<svg fill="#40AEF0" role="img" viewBox="0 0 28 24" xmlns="http://www.w3.org/2000/svg"><title>1001Tracklists</title><path d="M9.607 0v1.514H8.089v1.514H6.573V4.542H5.054v1.514H3.536v7.517H2.018v1.516H0.499v2.758h1.519v1.514h1.518v1.514h2.764v-8.816H4.782V7.3h1.519V5.786h1.518V4.272h1.518V2.758h9.326v1.514h1.518v1.514h1.519v1.514h1.518v4.759h-1.518v8.816h2.764V19.361h1.519v-1.514H27.501V15.089h-1.519v-1.516h-1.518V6.056h-1.518V4.542h-1.519V3.028h-1.516V1.514h-1.518V0Zm1.543 9.001v1.52H9.625v4.294h2.778v-4.564h3.32v4.891h-1.525v1.521h-1.523v2.773h2.775v-3.043H18.5v-5.872h-1.525V9.001Zm1.525 12.228v2.771h2.775v-2.771z"/></svg>