<svg fill="#3B66BC" role="img" viewBox="0 0 25 24" xmlns="http://www.w3.org/2000/svg"><title>1Password</title><path d="M12.5 0C5.869 0 0.493 5.372 0.493 11.999c0 6.628 5.376 12.001 12.007 12.001S24.507 18.627 24.507 12C24.507 5.372 19.131 0 12.5 0Zm-0.896 4.86h1.79c0.484 0 0.729 0.002 0.914 0.096a0.861 0.861 0 0 1 0.377 0.377c0.094 0.185 0.095 0.428 0.095 0.913v6.019c0 0.12 0 0.182-0.015 0.238a0.427 0.427 0 0 1-0.067 0.137 0.924 0.924 0 0 1-0.174 0.162l-0.695 0.565c-0.113 0.092-0.17 0.138-0.191 0.194a0.216 0.216 0 0 0 0 0.15c0.02 0.055 0.078 0.101 0.191 0.193l0.695 0.565c0.094 0.076 0.14 0.115 0.174 0.163 0.03 0.042 0.053 0.087 0.067 0.137a0.937 0.937 0 0 1 0.015 0.238v2.747c0 0.484-0.001 0.727-0.095 0.913a0.861 0.861 0 0 1-0.377 0.377c-0.185 0.094-0.43 0.096-0.914 0.096h-1.79c-0.484 0-0.726-0.002-0.912-0.096a0.861 0.861 0 0 1-0.377-0.377c-0.094-0.185-0.095-0.428-0.095-0.913v-6.019c0-0.12 0-0.182 0.015-0.238a0.437 0.437 0 0 1 0.067-0.139c0.034-0.047 0.08-0.083 0.174-0.16l0.695-0.565c0.113-0.092 0.17-0.138 0.191-0.194a0.216 0.216 0 0 0 0-0.15c-0.02-0.055-0.078-0.101-0.191-0.193l-0.695-0.565a0.921 0.921 0 0 1-0.174-0.163 0.437 0.437 0 0 1-0.067-0.139 0.921 0.921 0 0 1-0.015-0.236V6.247c0-0.484 0.001-0.727 0.095-0.913a0.861 0.861 0 0 1 0.377-0.377c0.186-0.094 0.428-0.096 0.912-0.096z"/></svg>