<svg fill="#000C1F" role="img" viewBox="0 0 69 24" xmlns="http://www.w3.org/2000/svg"><title>365 Data Science</title><path d="M4.426 16.711v-2.457h2.345c1.647 0 3.388-0.435 3.41-1.913 0-0.91-0.741-2.115-3.341-2.115-1.439 0-3.388 0.5-3.389 1.957h-3.064c0-3.435 3.482-4.676 6.474-4.676 3.065 0 6.359 1.457 6.384 4.844a3.356 3.356 0 0 1-2.251 3.115c1.554 0.5 2.647 2.003 2.647 3.346 0 3.892-3.737 5.035-6.87 5.035-3.133 0-6.618-1.244-6.64-4.863h3.086c0 1.64 2.252 2.208 3.576 2.209 1.554 0 3.622-0.637 3.622-2.346 0-0.953-0.536-2.137-3.46-2.136z m14.344-4.097v2.388c0.719-1.079 2.482-1.683 3.759-1.683 3.273 0 6.708 1.342 6.708 5.302 0 3.529-3.457 5.28-6.73 5.28-3.273 0-6.78-1.752-6.78-5.323V12.636c0-3.55 3.345-5.208 6.687-5.208 3.529 0 6.661 1.363 6.661 4.708H26.029c0-1.41-1.799-2.115-3.551-2.115-1.834-0.021-3.69 0.957-3.69 2.683z m7.428 6.007c0-1.752-1.626-2.683-3.669-2.683-2.043 0-3.784 0.91-3.759 2.683 0.025 1.773 1.741 2.601 3.737 2.6 1.924 0 3.69-0.849 3.691-2.6z m17.174-8.054h-8.772v2.799h3.154c3.46 0 6.546 1.388 6.525 5.118 0 3.618-3.089 5.348-6.363 5.349-3.571 0-6.636-1.252-6.661-4.986h3.046c0 1.755 2.043 2.208 3.575 2.209 1.532 0 3.363-0.683 3.363-2.572 0.025-1.799-1.798-2.32-3.481-2.32h-6.154v-8.42h11.768z m22.675-10.567a2.719 2.719 0 0 0-1.306 5.1l-5.514 13.514a2.705 2.705 0 0 0-2.288 0.237l-5.862-6.708a2.701 2.701 0 0 0-0.255-3.637 2.701 2.701 0 0 0-4.04 3.555 2.701 2.701 0 0 0 3.575 0.715l5.86 6.708a2.726 2.726 0 0 0-0.594 1.698 2.718 2.718 0 0 0 0.76 1.986 2.719 2.719 0 0 0 4.497-0.916 2.718 2.718 0 0 0 0.178-1.07 2.701 2.701 0 0 0-0.982-2.09l5.582-13.668a2.367 2.367 0 0 0 0.393 0.029 2.719 2.719 0 0 0 2.601-1.654 2.719 2.719 0 0 0-0.615-3.021 2.719 2.719 0 0 0-1.987-0.76Z"/></svg>