<svg fill="#FF0000" role="img" viewBox="0 0 46 24" xmlns="http://www.w3.org/2000/svg"><title>3M</title><path d="M36.092 0.532L32.805 13.953l-3.298-13.421h-9.671v4.956C18.676 1.151 14.579 0.062 10.782 0.001 6.158-0.061 1.308 1.949 1.13 8.085h6.397c0-1.853 1.417-2.913 3.012-2.889 1.957-0.015 2.86 0.823 2.908 2.132-0.068 1.132-0.734 1.923-2.893 1.923H8.402V13.706h1.953c1.108 0 2.653 0.605 2.714 2.191 0.076 1.887-1.237 2.722-2.846 2.737-2.877-0.101-3.344-2.323-3.344-4.23H0.241c0.028 1.284-0.286 9.656 10.122 9.595 4.986 0.047 8.466-2.058 9.489-4.956v4.442h6.552v-14.475l3.541 14.479h5.724l3.556-14.464v14.479H45.759V0.532h-9.667z m-16.237 13.391c-0.814-1.694-1.961-2.435-2.609-2.669 1.354-0.605 2.067-1.424 2.609-3.061v5.73z"/></svg>