<svg fill="#222222" role="img" viewBox="0 0 96 24" xmlns="http://www.w3.org/2000/svg"><title>500px</title><path d="M29.807 0A12 12 0 1 0 41.807 12a12.108 12.108 0 0 0-12.001-12Zm0 21.48A9.42 9.42 0 1 1 39.166 12a9.48 9.48 0 0 1-9.36 9.48Zm25.788-21.48A12 12 0 1 0 67.595 12a12 12 0 0 0-12-12Zm0 21.48A9.42 9.42 0 1 1 64.955 12a9.324 9.324 0 0 1-9.36 9.48zM9.167 7.199a8.088 8.088 0 0 0-6.36 1.68V2.52h10.8c0.36 0 0.6-0.12 0.6-1.199 0-1.08-0.48-1.08-0.72-1.081H1.607a1.08 1.08 0 0 0-1.08 1.08V11.88c0 0.6 0.36 0.72 0.96 0.84a0.912 0.912 0 0 0 1.08-0.24A6.828 6.828 0 0 1 8.567 9.6 6.24 6.24 0 0 1 13.967 14.879 6.072 6.072 0 0 1 8.687 21.6h-0.72a6.12 6.12 0 0 1-5.64-3.96c-0.12-0.36-0.36-0.6-1.32-0.24-0.96 0.36-1.08 0.6-0.96 0.96a8.508 8.508 0 0 0 10.8 5.04A8.508 8.508 0 0 0 15.887 12.6 8.4 8.4 0 0 0 9.167 7.2z m66.588-7.079a6.504 6.504 0 0 0-5.76 6.48v10.679c0 0.6 0.48 0.72 1.2 0.72s1.2-0.12 1.2-0.72v-10.679a4.032 4.032 0 0 1 3.48-4.08 3.948 3.948 0 0 1 3 0.959 3.828 3.828 0 0 1 1.319 2.881 4.8 4.8 0 0 1-0.839 2.279A3.78 3.78 0 0 1 75.995 10.2c-0.48 0-0.84 0-0.96 1.08 0 0.72 0 1.08 0.6 1.2a5.904 5.904 0 0 0 3.48-0.72 6.444 6.444 0 0 0 3.48-5.04 6.216 6.216 0 0 0-5.784-6.72 3.324 3.324 0 0 1-1.056 0.12z m15.72 6.239l4.32-4.319c0.12-0.12 0.48-0.48-0.24-1.321a1.2 1.2 0 0 0-0.84-0.479 0.624 0.624 0 0 0-0.48 0.24l-4.32 4.32-4.32-4.44c-0.36-0.36-0.72-0.24-1.32 0.239-0.6 0.48-0.6 0.96-0.24 1.32l4.32 4.32-4.344 4.44a0.912 0.912 0 0 0-0.24 0.48 1.008 1.008 0 0 0 0.48 0.84 1.932 1.932 0 0 0 0.839 0.48 1.272 1.272 0 0 0 0.601-0.24l4.32-4.32 4.32 4.32a0.624 0.624 0 0 0 0.48 0.24 1.2 1.2 0 0 0 0.839-0.48c0.36-0.48 0.48-0.96 0.12-1.199z"/></svg>