<svg fill="#000000" role="img" viewBox="0 0 42 24" xmlns="http://www.w3.org/2000/svg"><title>7Zip</title><path d="M0.003 24h41.994V5.318H18.755V0H0.003ZM3.539 3.725h11.648v3.489c-3.045 3.657-4.969 7.878-5.158 12.956H6.087c0.157-4.376 0.618-8.668 3.994-12.238l0.058-0.058H3.539Zm14.786 2.193h23.123v17.748H18.323Zm10.516 2.122v12.023h2.593v-12.021Zm4.82 0.075v12.095h2.828v-4.234h1.801c0.752-0.002 1.319-0.507 1.695-1.253 0.747-1.484 0.751-3.949-0.042-5.411-0.397-0.733-0.999-1.22-1.807-1.197z m-13.865 0.004v2.793h3.879l-4.031 6.537v2.694h7.501V17.424h-4.721l4.875-6.84v-2.467Zm16.539 2.646h1.041c0.287-0.01 0.502 0.142 0.649 0.379 0.297 0.478 0.301 1.288 0.007 1.733a0.637 0.637 0 0 1-0.652 0.308l-0.963 0.082z"/></svg>