<svg fill="#FE5F50" role="img" viewBox="0 0 47 24" xmlns="http://www.w3.org/2000/svg"><title>99designs</title><path d="M42.169 15.441c0 2.25-1.824 4.074-4.074 4.074-2.25 0-4.074-1.824-4.074-4.074 0-2.25 1.824-4.074 4.074-4.074 2.25 0 4.074 1.824 4.074 4.074z m-14.619-6.91c0 2.097-1.698 3.913-3.913 3.913-2.161 0-3.914-1.753-3.914-3.913s1.753-3.914 3.914-3.914c2.161 0 3.913 1.753 3.913 3.914z m-14.82 0c0 2.094-1.694 3.913-3.914 3.913-2.161 0-3.913-1.753-3.913-3.913s1.752-3.914 3.913-3.914 3.914 1.753 3.914 3.914z m21.296 14.824c1.773 0.771 4.34 0.901 6.04 0.112 0.758-0.352 1.457-0.924 2.098-1.713v1.697H46.715V0.513h-4.807v8.264c-1.368-1.326-2.803-1.891-4.742-1.89-2.048 0-3.723 0.682-4.999 1.772 0.001-0.043 0.001-0.085 0.001-0.128 0-4.711-3.821-8.531-8.531-8.531-3.172 0-5.94 1.732-7.411 4.302C14.756 1.731 11.988 0 8.816 0 4.106 0 0.285 3.82 0.285 8.531c0 4.51 3.502 8.203 7.934 8.51L4.518 23.451H10.068c2.053-3.564 4.105-7.128 6.158-10.691 1.377 2.407 3.893 4.079 6.813 4.281l-3.701 6.41h5.55l4.328-7.514c0.129 3.065 1.679 6.056 4.81 7.418"/></svg>