<svg fill="#FF9E0F" role="img" viewBox="0 0 29 24" xmlns="http://www.w3.org/2000/svg"><title>ABB RobotStudio</title><path d="M28.805 12.553a11.446 11.446 0 0 1-22.894 0h1.276a10.169 10.169 0 1 0 10.173-10.169v-1.276A11.445 11.445 0 0 1 28.806 12.551z m-11.445-3.815a3.815 3.815 0 1 0 3.815 3.815 3.815 3.815 0 0 0-3.815-3.815z m-2.385 0l-0.715-7.954-2.935 2.289-1.741-1.717a5.567 5.567 0 0 0-6.7-0.441l-2.408 1.55a0.644 0.644 0 0 0-0.179 0.882 0.644 0.644 0 0 0 0.883 0.179l2.384-1.562a4.34 4.34 0 0 1 5.114 0.263l1.634 1.645-2.73 2.171z"/></svg>