<svg fill="#071D49" role="img" viewBox="0 0 36 24" xmlns="http://www.w3.org/2000/svg"><title>Abbvie</title><path d="M34.429 23.999c-2.252 0-3.143-0.899-3.447-2.7l-0.596-2.555c-0.607 1.057-3.603 5.256-10.201 5.256H13.432C3.225 23.999 0.376 17.091 0.376 11.999c0-5.706 3.447-11.999 13.048-11.999h7.204c7.351 0 11.396 4.19 12.295 9.445 0.752 4.347 2.701 14.555 2.701 14.555zM19.58 3.742h-5.698c-6.9 0-9.151 4.355-9.152 8.259 0 3.896 2.252 8.251 9.159 8.251h5.691c7.202 0 9.159-4.502 9.159-8.251 0-3.299-1.808-8.251-9.159-8.251z"/></svg>