<svg fill="#333333" role="img" viewBox="0 0 60 24" xmlns="http://www.w3.org/2000/svg"><title>About.me</title><path d="M28.591 23.348v-14.857c0-2.452-1.092-4.104-3.789-4.104-2.228 0-4.313 1.51-5.309 3.02v15.941H14.518v-14.857c0-2.452-1.04-4.104-3.745-4.104-2.225 0-4.264 1.557-5.307 3.02v15.941H0.492V0.568h4.974v3.066C6.462 2.262 9.448 0 12.954 0c3.408 0 5.496 1.697 6.253 4.151 1.279-2.029 4.313-4.151 7.771-4.151 4.173 0 6.59 2.262 6.59 6.885v16.461h-4.977zM59.508 12.401c0-7.193-4.397-12.398-11.321-12.399-6.829 0-11.702 5.346-11.703 11.973 0 7.242 5.112 12.02 12.082 12.025 3.63 0 7.02-1.185 9.361-3.364l-2.292-3.266c-1.672 1.655-4.296 2.557-6.59 2.558-4.348 0-6.922-2.887-7.306-6.295H59.508v-1.23z m-17.815-2.319c0.189-2.744 2.196-6.01 6.447-6.01 4.537 0 6.398 3.312 6.541 6.01h-12.988z"/></svg>