<svg fill="#00465B" role="img" viewBox="0 0 83 24" xmlns="http://www.w3.org/2000/svg"><title>abuse.ch</title><path d="M78.952 6.421c0.066 0 0.405-0.628 1.316-0.871 0.371-0.099 1.233-0.174 1.858 0.329 0.481 0.388 0.634 1.019 0.634 1.663v3.875h-0.944V7.695c0-1.245-0.63-1.408-1.134-1.408-0.931 0-1.527 0.724-1.73 1.018v4.113h-0.944v-8.823h0.944z m-3.281 0.177c-0.65-0.248-1.344-0.417-2.066-0.177-0.6 0.2-0.909 0.679-1.066 1.085-0.11 0.289-0.165 0.648-0.165 1.078 0 0.604 0.15 1.142 0.494 1.554 0.662 0.759 1.847 0.746 2.894 0.317v0.786c-0.227 0.133-0.575 0.212-0.639 0.225-0.303 0.074-1.831 0.382-2.895-0.615-1.249-1.17-0.741-3.222-0.725-3.284 0.131-0.489 0.372-1.005 0.81-1.396 1.197-1.04 2.768-0.7 3.358-0.359z m-20.626 9.613h6.071v1.891h-8.331v-12.345h7.999v1.892h-5.739v3.192h4.927v1.891h-4.927z m-7.854-1.652c0-1.147-1.09-1.417-2.786-1.762a14.432 14.432 0 0 1-1.375-0.369c-1.343-0.454-1.778-1.24-1.947-1.578-0.408-0.816-0.402-2.23 0.046-3.174 0.841-1.796 2.725-2.15 4.078-2.15 1.527 0 2.918 0.361 3.7 0.693v1.937c-0.64-0.252-1.255-0.434-1.845-0.544-0.997-0.199-3.976-0.622-3.977 1.448 0 0.267 0.017 0.853 0.738 1.283 0.793 0.45 1.608 0.42 3.221 0.922 0.48 0.142 0.904 0.341 1.273 0.6 0.369 0.259 0.661 0.597 0.876 1.015 0.215 0.412 0.323 0.941 0.323 1.587 0 1.089-0.346 2.179-1.421 2.934-1.11 0.775-2.679 0.932-3.764 0.932-1.144 0-2.639-0.222-3.598-0.757v-1.91c1.075 0.467 2.169 0.756 3.57 0.757 1.096 0 2.888-0.247 2.888-1.864z m-18.058 3.045c-2.018-1.23-2.048-3.554-2.049-4.576v-7.271h2.261V12.825c0 0.832 0.053 2.534 1.338 3.239 0.905 0.483 2.269 0.483 3.173 0 1.286-0.704 1.338-2.408 1.338-3.239v-7.067h2.261v7.27c0 0.516-0.031 0.984-0.092 1.402-0.124 0.937-0.558 2.332-1.984 3.174-1.663 0.972-4.587 0.985-6.246 0z m-5.576-8.562c0 0.535-0.12 1.027-0.359 1.476-0.24 0.443-0.637 0.812-1.191 1.107v0.037c0.596 0.203 1.55 0.683 1.92 1.744 0.265 0.717 0.243 1.93-0.489 2.925-0.24 0.32-0.56 0.615-0.96 0.885-1.084 0.734-2.492 0.837-3.359 0.877-1.5 0.02-3.002 0.009-4.502 0.01v-12.345h4.29c0.981 0 2.294 0.085 3.304 0.811 0.948 0.664 1.347 1.622 1.346 2.473zM16.878 12.733v3.478h1.476a16.091 16.091 0 0 0 1.015-0.028c0.993-0.087 2.023-0.392 2.297-1.245 0.062-0.198 0.424-1.564-1.098-2.048-0.395-0.123-0.89-0.157-1.55-0.157z m2.039-1.892c0.496 0 1.654 0 2.094-0.766 0.288-0.492 0.315-1.195-0.027-1.716-0.422-0.657-1.437-0.711-2.252-0.71H16.878v3.192z m-13.774-5.087L0.24 18.098h2.411c0.785-2.045 1.571-4.09 2.357-6.135 0.338-0.866 0.724-1.944 1.155-3.235h0.04c1.06 3.163 2.312 6.258 3.513 9.37h2.39l-4.902-12.344z m60.528 18.246h1.008V0h-1.008z"/></svg>