<svg fill="#41454A" role="img" viewBox="0 0 25 24" xmlns="http://www.w3.org/2000/svg"><title>Academia</title><path d="M22.932 21.545L14.34 0H8.205l1.09 2.727L1.932 21.545C1.659 22.5 0.841 22.637 0.023 22.773v1.227h7.091v-1.227C5.205 22.637 4.113 22.363 4.932 20.318c0.136-0.136 0.682-1.637 1.363-3.545h8.726l1.227 3.136c0.136 0.546 0.272 0.955 0.273 1.363 0 1.091-0.955 1.5-2.728 1.5v1.227H24.977v-1.227c-0.955-0.135-1.773-0.409-2.045-1.227zM7.114 14.455a377.752 377.752 0 0 0 3.409-8.864l3.546 8.864H7.114z"/></svg>