<svg fill="#A9225C" role="img" viewBox="0 0 37 24" xmlns="http://www.w3.org/2000/svg"><title>Accusoft</title><path d="M21.856 0c-0.589 0.003-6.175 0.031-6.73 0.034-0.953 0.007-1.196-0.007-1.347 0.168-0.079 0.092-0.206 0.254 0.237 0.809 0.442 0.552 13.529 17.295 13.861 17.695 0.422 0.511 0.812 0.685 0.983 0.713 0.274 0.041 0.617-0.103 0.802-0.175 0.182-0.072 6.665-2.752 6.805-2.827 0.216-0.117 0.202-0.445 0.059-0.689-0.144-0.247-0.353-0.514-0.473-0.661-0.123-0.147-11.853-14.173-11.977-14.327-0.226-0.284-0.555-0.555-0.685-0.599-0.13-0.045-0.315-0.144-1.535-0.141z m-6.189 7.909s-0.692 0.092-1.453 0.867c-0.521 0.538-13.991 13.792-14.063 13.895-0.065 0.092-0.226 0.271-0.099 0.37 0.065 0.051 0.696-0.154 1.011-0.267 0.045 0 6.617-2.097 6.617-2.097 0.031-0.034-0.003-0.003 0.034-0.031-0.02-0.291-0.045-1.511-0.055-1.597-0.031-0.243 0.086-0.343 0.168-0.398 0.082-0.055 0.236-0.116 0.237-0.116l5.349-1.95c0.034-0.045 5.116-4.722 5.215-4.811v-0.065c-0.045-0.034-0.062-0.092-0.099-0.134-0.024-0.01-2.861-3.677-2.862-3.666z m2.851 7.802c-0.178 0.014-0.555 0.045-0.836 0.168-0.281 0.123-8.389 3.05-8.68 3.163-0.291 0.113-0.658 0.206-0.637 0.439 0.01 0.144 0.113 0.154 0.267 0.202 0.154 0.051 17.383 3.886 17.799 3.971 0.415 0.086 1.741 0.452 2.429 0.316 0.37-0.051 0.545-0.144 0.665-0.216 0.12-0.072 7.155-4.393 7.268-4.476 0.11-0.082 0.188-0.137 0.202-0.27 0.007-0.051-0.141-0.168-0.302-0.202a495.693 495.693 0 0 0-1.716-0.336l-0.477-0.086s-6.644 2.913-6.791 2.981c-0.185 0.086-0.452 0.154-0.686 0.134-0.487-0.045-0.86-0.319-1.432-0.977l-3.296-4.273s-1.443-0.233-1.954-0.301c-0.511-0.069-1.645-0.247-1.823-0.237z"/></svg>