<svg fill="#000000" role="img" viewBox="0 0 94 24" xmlns="http://www.w3.org/2000/svg"><title>Activision</title><path d="M7.699 0L0.398 20.87h3.825l1.049-2.788h4.862l1.045 2.788h3.825z m12.52 1.394l-2.085 3.822h8.349v15.65H30.301v-15.65h5.911l7.308 18.784 6.956-18.784h17.736l-2.086-3.822H47.699l-4.171 11.126L39 1.394z m62.952 4.517v14.609h3.829v-5.914l6.602 6.61v-14.602h-3.48v5.211z m-61.903 0.349c-4.175 0-7.305 3.134-7.305 7.305 0 4.175 3.13 7.301 7.301 7.301 1.74 0 3.476-0.695 4.52-1.736L23.699 15.65c-0.699 0.699-1.39 1.049-2.435 1.049a3.483 3.483 0 0 1-3.476-3.48c0-1.74 1.39-3.48 3.476-3.479 0.699 0 1.74 0.346 2.086 1.041l2.434-2.777c-1.049-1.045-2.781-1.74-4.52-1.74z m29.212 0v14.26h3.825v-14.256z m8.341 0c-1.39 0-3.122 0.699-3.122 3.48 0 3.48 4.171 5.565 3.825 6.959-0.35 0.695-1.049 0.691-1.394 0.691h-2.431v3.13h4.171c1.74 0 3.476-1.045 3.476-3.13 0-3.825-4.866-6.256-3.822-7.65 0-0.35 0.691-0.35 0.692-0.35h2.438v-3.126z m4.874 0v14.26h3.822v-14.256z m11.825 0c-4.175 0-7.301 3.134-7.301 7.305 0 3.825 3.126 7.301 7.301 7.301 4.171 0 7.301-3.126 7.301-7.301 0-4.171-3.13-7.301-7.301-7.301z m-42.78 0.35v14.26h3.829v-14.26z m42.78 3.479c1.74 0 3.476 1.39 3.476 3.476a3.483 3.483 0 0 1-3.476 3.48c-2.089 0-3.825-1.39-3.479-3.48 0-1.74 1.39-3.476 3.479-3.476z m-67.821 0.692l1.049 3.479h-2.098z"/></svg>