<svg fill="#000000" role="img" viewBox="0 0 25 24" xmlns="http://www.w3.org/2000/svg"><title>Actix</title><path d="M5.034 3.842c-0.272 0.221-0.793 0.079-1.171-0.336-0.157 0.157-0.271 0.3-0.414 0.457 0.414 0.336 0.6 0.872 0.379 1.121-0.221 0.272-0.757 0.221-1.171-0.114-0.115 0.157-0.221 0.335-0.336 0.493 0.457 0.3 0.678 0.757 0.521 1.063s-0.678 0.336-1.17 0.079c-0.08 0.193-0.193 0.378-0.272 0.521 0.492 0.221 0.757 0.6 0.635 0.95-0.114 0.3-0.6 0.414-1.092 0.271-0.079 0.193-0.115 0.378-0.157 0.572 0.492 0.157 0.821 0.492 0.757 0.792-0.079 0.336-0.521 0.521-1.015 0.457-0.028 0.193-0.028 0.415-0.078 0.6 0.493 0.079 0.872 0.336 0.871 0.678 0 0.343-0.415 0.572-0.9 0.6v0.6c0.493 0 0.9 0.221 0.951 0.522 0.028 0.3-0.3 0.635-0.793 0.713 0.028 0.193 0.079 0.415 0.114 0.6 0.492-0.079 0.899 0.079 0.979 0.379 0.079 0.3-0.193 0.678-0.637 0.821 0.079 0.193 0.115 0.378 0.194 0.572 0.457-0.157 0.9-0.029 1.013 0.221 0.115 0.3-0.079 0.678-0.521 0.949 0.079 0.193 0.193 0.336 0.3 0.522 0.415-0.221 0.872-0.193 1.014 0.078 0.192 0.272 0 0.678-0.336 0.979 0.115 0.157 0.221 0.335 0.379 0.492 0.378-0.271 0.821-0.299 1.013-0.079 0.221 0.221 0.115 0.678-0.192 1.015 0.157 0.157 0.3 0.3 0.457 0.413 0.335-0.335 0.757-0.457 1.014-0.27 0.251 0.192 0.221 0.635-0.029 1.064 0.157 0.114 0.335 0.221 0.493 0.335 0.3-0.378 0.678-0.571 0.95-0.414s0.335 0.6 0.115 1.064c0.192 0.114 0.378 0.192 0.52 0.271 0.221-0.414 0.6-0.678 0.9-0.571 0.3 0.114 0.415 0.571 0.3 1.014 0.193 0.079 0.378 0.115 0.571 0.193 0.157-0.457 0.492-0.757 0.793-0.715 0.3 0.079 0.493 0.493 0.457 0.979 0.193 0.029 0.415 0.079 0.6 0.078 0.079-0.492 0.336-0.871 0.678-0.821 0.336 0 0.572 0.415 0.6 0.95h0.6c0-0.493 0.221-0.9 0.521-0.95 0.335-0.028 0.635 0.336 0.757 0.821 0.192-0.028 0.414-0.079 0.6-0.114-0.115-0.493 0.079-0.95 0.378-1.063 0.335-0.079 0.714 0.221 0.871 0.756 0.193-0.079 0.378-0.115 0.572-0.193-0.193-0.492-0.115-0.978 0.192-1.121 0.3-0.143 0.757 0.157 0.978 0.636 0.193-0.079 0.378-0.193 0.522-0.272-0.271-0.457-0.271-0.978 0-1.17 0.3-0.193 0.793 0.028 1.093 0.492 0.157-0.114 0.335-0.221 0.492-0.379-0.378-0.414-0.457-0.949-0.192-1.17 0.271-0.221 0.792-0.079 1.17 0.335 0.157-0.157 0.3-0.3 0.415-0.414-0.458-0.378-0.6-0.872-0.415-1.121 0.221-0.272 0.757-0.221 1.2 0.157l0.028 0.028c0.115-0.157 0.272-0.335 0.379-0.492-0.492-0.3-0.757-0.757-0.6-1.093 0.193-0.3 0.715-0.335 1.2-0.028l0.029 0.028c0.114-0.192 0.192-0.378 0.271-0.571h-0.028c-0.521-0.193-0.872-0.636-0.757-0.978 0.114-0.35 0.678-0.457 1.199-0.222 0.028 0 0.028 0.028 0.079 0.029 0.079-0.192 0.157-0.414 0.192-0.6h-0.078c-0.571-0.114-0.978-0.492-0.9-0.821 0.079-0.336 0.6-0.521 1.171-0.414 0.028 0 0.079 0 0.114 0.029 0.029-0.221 0.079-0.415 0.115-0.636h-0.115c-0.571-0.028-1.014-0.335-1.013-0.679 0-0.342 0.492-0.635 1.063-0.6H24.579v-0.635h-0.115c-0.571 0.079-1.064-0.193-1.092-0.521-0.028-0.335 0.378-0.678 0.978-0.757h0.157c-0.028-0.221-0.079-0.414-0.114-0.635-0.029 0-0.079 0.028-0.158 0.028-0.571 0.157-1.092 0-1.17-0.335-0.114-0.336 0.272-0.757 0.821-0.9 0.028 0 0.114-0.029 0.157-0.029-0.079-0.221-0.157-0.414-0.221-0.6-0.028 0.029-0.079 0.029-0.157 0.078-0.521 0.221-1.064 0.157-1.2-0.157-0.157-0.335 0.157-0.792 0.678-1.013 0.079-0.028 0.115-0.028 0.193-0.079-0.115-0.193-0.193-0.378-0.3-0.571-0.029 0.029-0.079 0.079-0.157 0.114-0.493 0.3-1.015 0.335-1.25 0.028-0.192-0.3 0.028-0.792 0.522-1.121 0.028-0.028 0.114-0.079 0.157-0.078-0.114-0.192-0.272-0.335-0.414-0.521-0.029 0.028-0.079 0.079-0.115 0.114-0.414 0.378-0.978 0.493-1.199 0.221s-0.079-0.792 0.336-1.17c0.028-0.029 0.114-0.08 0.157-0.115-0.157-0.157-0.3-0.3-0.493-0.457-0.028 0.028-0.079 0.079-0.114 0.157-0.378 0.457-0.872 0.635-1.172 0.415-0.271-0.221-0.221-0.757 0.157-1.2 0.029-0.029 0.079-0.115 0.115-0.157-0.193-0.115-0.336-0.272-0.521-0.378-0.028 0.028-0.028 0.114-0.079 0.157-0.3 0.492-0.757 0.757-1.093 0.6-0.3-0.193-0.335-0.715-0.028-1.2 0.028-0.029 0.079-0.115 0.114-0.157-0.193-0.115-0.378-0.193-0.599-0.3 0 0.028-0.029 0.114-0.03 0.157-0.192 0.521-0.635 0.871-0.978 0.757-0.349-0.115-0.457-0.678-0.221-1.2 0.029-0.028 0.029-0.115 0.078-0.157-0.192-0.079-0.414-0.115-0.635-0.193 0 0.029 0 0.079-0.028 0.157-0.115 0.572-0.493 0.978-0.822 0.899-0.336-0.079-0.521-0.6-0.414-1.17 0-0.029 0.029-0.115 0.029-0.157-0.221-0.029-0.415-0.079-0.636-0.079v0.114c-0.028 0.572-0.335 1.015-0.679 1.015-0.335 0-0.635-0.493-0.598-1.064V0h-0.637v0.115c0.079 0.571-0.192 1.064-0.521 1.092-0.335 0.028-0.678-0.378-0.757-0.979V0.115c-0.192 0.028-0.414 0.079-0.6 0.113 0 0.028 0 0.028 0.029 0.079 0.157 0.572 0 1.093-0.336 1.172-0.335 0.114-0.757-0.272-0.9-0.822V0.579c-0.192 0.079-0.378 0.157-0.6 0.221 0 0 0 0.028 0.03 0.028 0.221 0.521 0.157 1.064-0.157 1.2-0.336 0.157-0.793-0.157-1.015-0.678V1.321c-0.192 0.115-0.378 0.193-0.521 0.3 0.3 0.493 0.336 1.015 0.029 1.25-0.3 0.192-0.793-0.028-1.121-0.522-0.157 0.115-0.335 0.272-0.493 0.379 0.335 0.371 0.442 0.893 0.178 1.114m-0.521 6.533c-0.457-0.157-0.714-0.635-0.572-1.092 0.158-0.457 0.636-0.715 1.093-0.571 0.457 0.157 0.714 0.635 0.571 1.093-0.114 0.449-0.635 0.714-1.092 0.57m0.785 8.248c-2.184-2.407-3.134-5.762-1.849-6.934 1.249-1.12 4.07 0.493 6.298 2.9 2.185 2.406 3.577 5.348 2.292 6.519-1.277 1.142-4.556-0.108-6.741-2.485m9.198 2.185c-0.493 0.114-0.95-0.193-1.064-0.678-0.115-0.493 0.192-0.95 0.678-1.064 0.492-0.115 0.949 0.192 1.064 0.678 0.086 0.514-0.214 0.956-0.678 1.064m6.113-12.881c1.613 0.521 2.184 3.956 1.198 7.047s-3.434 5.591-5.047 5.098c-1.614-0.521-1.614-3.813-0.636-6.904 0.971-3.056 2.871-5.784 4.485-5.241m-1.393-2.043c0.336 0.378 0.3 0.9-0.079 1.249-0.378 0.35-0.9 0.3-1.249-0.078-0.35-0.378-0.3-0.9 0.079-1.249 0.378-0.3 0.949-0.258 1.249 0.078m-4.941 4.528c0.9 0.977 0.821 2.484-0.157 3.384s-2.485 0.821-3.385-0.157-0.821-2.485 0.157-3.385c0.964-0.907 2.485-0.827 3.385 0.158M10.433 2.492c3.164-0.678 6.556 0.192 6.934 1.849s-2.485 3.278-5.649 3.992c-3.164 0.678-6.441 0.415-6.79-1.249-0.387-1.693 2.334-3.906 5.505-4.592"/></svg>