<svg fill="#000000" role="img" viewBox="0 0 25 24" xmlns="http://www.w3.org/2000/svg"><title>Adafruit</title><path d="M14.899 12.794c-0.924 0.148-1.722-0.037-1.781-0.412-0.06-0.375 0.64-0.798 1.565-0.945 0.924-0.147 1.721 0.038 1.781 0.412 0.06 0.374-0.64 0.798-1.565 0.945m-0.878 3.861c-0.338 0.172-0.957-0.363-1.382-1.196-0.426-0.834-0.497-1.65-0.158-1.823 0.338-0.172 0.956 0.363 1.382 1.197 0.425 0.833 0.497 1.65 0.158 1.822m-3.641-1.552c-0.662 0.662-1.415 0.981-1.683 0.713-0.27-0.268 0.05-1.022 0.71-1.684 0.66-0.663 1.414-0.982 1.683-0.715 0.269 0.268-0.05 1.023-0.71 1.686m-2.532-4.611c0.171-0.339 0.987-0.268 1.821 0.156 0.834 0.424 1.372 1.042 1.2 1.38-0.173 0.338-0.988 0.269-1.822-0.155-0.834-0.424-1.37-1.043-1.199-1.381m4.802-2.451c0.375 0.058 0.56 0.856 0.414 1.78-0.145 0.925-0.566 1.625-0.942 1.568-0.374-0.06-0.56-0.857-0.416-1.781 0.145-0.925 0.567-1.626 0.944-1.568m11.838 2.531c-0.078-0.491-0.345-0.632-0.989-0.838l-3.763-1.2s-2.284-0.863-3.975 0.357c-0.228 0.164-0.464 0.351-0.701 0.55 0.198-0.236 0.385-0.472 0.551-0.7 1.215-1.694 0.349-3.976 0.349-3.976l-1.208-3.762c-0.207-0.643-0.347-0.91-0.84-0.986-0.492-0.078-0.707 0.132-1.101 0.68l-2.306 3.21s-1.524 1.904-0.888 3.891c0.086 0.266 0.191 0.549 0.308 0.836a12.218 12.218 0 0 0-0.497-0.74C8.192 6.213 5.756 6.33 5.756 6.33S2.317 6.318 1.805 6.318c-0.676-0.003-0.972 0.05-1.199 0.494-0.226 0.443-0.093 0.714 0.308 1.258 0.303 0.415 2.341 3.184 2.34 3.184S4.593 13.292 6.678 13.3c0.28 0.001 0.58-0.012 0.889-0.034a12.32 12.32 0 0 0-0.855 0.244c-1.981 0.656-2.62 3.011-2.62 3.011L2.857 20.275c-0.21 0.64-0.252 0.939 0.1 1.291 0.352 0.353 0.65 0.31 1.291 0.098 0.489-0.16 3.751-1.242 3.751-1.243s2.353-0.644 3.005-2.624c0.088-0.266 0.169-0.556 0.243-0.855a11.103 11.103 0 0 0-0.03 0.888c0.01 2.086 2.052 3.422 2.052 3.421l3.187 2.334c0.546 0.398 0.816 0.531 1.26 0.305 0.443-0.226 0.495-0.523 0.491-1.199l-0.022-3.951s0.114-2.436-1.567-3.669a11.933 11.933 0 0 0-0.739-0.495c0.287 0.115 0.568 0.22 0.836 0.304 1.987 0.633 3.889-0.894 3.889-0.895l3.205-2.31c0.547-0.395 0.756-0.612 0.679-1.104"/></svg>