<svg fill="#34567C" role="img" viewBox="0 0 30 24" xmlns="http://www.w3.org/2000/svg"><title>Adminer</title><path d="M27.848 7.478a0.647 0.647 0 0 1-0.648 0.648 0.647 0.647 0 0 1-0.648-0.648 0.647 0.647 0 0 1 0.647-0.647 0.647 0.647 0 0 1 0.649 0.647z m-1.325-7.475c-0.322-0.01-0.535 0.012-0.535 0.012l0.093 1.021s0.705-0.055 1.367 0.13c0.332 0.093 0.636 0.242 0.842 0.451 0.204 0.208 0.338 0.466 0.338 0.925 0 0.239-0.063 0.361-0.17 0.477a1.177 1.177 0 0 1-0.461 0.283c-0.381 0.138-0.794 0.142-0.794 0.142l-0.516-0.003v2.655h1.026V4.378c0.216-0.021 0.305 0.005 0.632-0.113 0.294-0.106 0.613-0.272 0.871-0.555A1.734 1.734 0 0 0 29.654 2.542c0-0.69-0.254-1.258-0.633-1.643-0.379-0.386-0.851-0.596-1.296-0.721a5.12 5.12 0 0 0-1.202-0.175ZM22.195 1.975l-3.51 3.037 3.525 2.993 0.664-0.782-2.613-2.219 2.604-2.254zM8.39 3.584c-2.117 0-4.032 0.227-5.459 0.611-0.713 0.192-1.304 0.419-1.756 0.707-0.452 0.287-0.829 0.684-0.829 1.221V21.46c0 0.35 0.177 0.659 0.412 0.892 0.233 0.233 0.534 0.419 0.894 0.586 0.72 0.336 1.697 0.598 2.894 0.783 2.393 0.372 5.294 0.372 7.687 0 1.197-0.186 2.174-0.447 2.894-0.782 0.361-0.169 0.659-0.354 0.894-0.586 0.233-0.232 0.412-0.542 0.411-0.893V6.123c0-0.537-0.377-0.934-0.83-1.221-0.452-0.288-1.042-0.515-1.755-0.707-1.425-0.383-3.341-0.611-5.458-0.611Zm0 1.026c2.042 0 3.892 0.226 5.19 0.575 0.651 0.175 1.164 0.385 1.474 0.581 0.309 0.197 0.354 0.335 0.354 0.357 0 0.022-0.045 0.159-0.354 0.354-0.31 0.198-0.823 0.408-1.473 0.582-1.299 0.35-3.149 0.576-5.191 0.577-2.043 0-3.893-0.226-5.192-0.577-0.65-0.175-1.163-0.385-1.472-0.581-0.31-0.198-0.354-0.333-0.354-0.355 0-0.022 0.044-0.159 0.354-0.357 0.309-0.197 0.822-0.407 1.472-0.581 1.299-0.349 3.151-0.575 5.192-0.575ZM1.371 7.421c0.43 0.244 0.928 0.457 1.56 0.628 1.426 0.383 3.341 0.611 5.459 0.61 2.116 0 4.032-0.227 5.458-0.61 0.633-0.171 1.13-0.385 1.559-0.628v3.814c0 0.012 0 0.057-0.11 0.164a2.241 2.241 0 0 1-0.602 0.383c-0.58 0.27-1.486 0.524-2.62 0.699-2.266 0.352-5.106 0.352-7.373 0-1.133-0.176-2.039-0.43-2.618-0.699a2.233 2.233 0 0 1-0.603-0.383c-0.107-0.107-0.11-0.154-0.11-0.164Zm0 5.107c0.101 0.057 0.167 0.131 0.281 0.183 0.72 0.337 1.697 0.598 2.894 0.784 2.393 0.371 5.294 0.371 7.687 0 1.197-0.186 2.174-0.447 2.894-0.784 0.114-0.053 0.18-0.126 0.281-0.183v3.818c0 0.012-0.002 0.057-0.11 0.165a2.24 2.24 0 0 1-0.603 0.384c-0.58 0.27-1.486 0.524-2.62 0.699-2.266 0.352-5.106 0.352-7.373 0-1.133-0.176-2.039-0.43-2.618-0.699a2.232 2.232 0 0 1-0.603-0.384c-0.107-0.107-0.11-0.154-0.11-0.165z m0 5.113c0.101 0.057 0.167 0.131 0.281 0.183 0.72 0.336 1.697 0.598 2.894 0.784 2.393 0.371 5.294 0.371 7.687 0 1.197-0.187 2.174-0.448 2.894-0.784 0.114-0.053 0.18-0.126 0.281-0.183v3.818c0 0.012-0.002 0.057-0.11 0.165a2.24 2.24 0 0 1-0.603 0.383c-0.58 0.27-1.486 0.524-2.62 0.7-2.266 0.352-5.106 0.352-7.373 0-1.133-0.176-2.039-0.43-2.618-0.7a2.232 2.232 0 0 1-0.603-0.383c-0.107-0.107-0.11-0.154-0.11-0.165Z"/></svg>