<svg fill="#EC1C24" role="img" viewBox="0 0 25 24" xmlns="http://www.w3.org/2000/svg"><title>Adobe Acrobat Reader</title><path d="M24.417 15.381c-0.728-0.763-2.219-1.199-4.328-1.198-1.127 0-2.436 0.109-3.854 0.362a19.923 19.923 0 0 1-2.364-2.726c-0.545-0.728-1.019-1.527-1.455-2.292 0.837-2.545 1.237-4.618 1.237-6.109 0-1.672-0.618-3.418-2.4-3.418-0.545 0-1.091 0.328-1.382 0.8-0.799 1.418-0.435 4.509 0.946 7.563a61.764 61.764 0 0 1-1.746 4.619c-0.582 1.382-1.237 2.8-1.964 4.109C3.108 18.691 0.526 20.546 0.235 21.999c-0.109 0.546 0.073 1.055 0.473 1.455 0.146 0.11 0.655 0.546 1.527 0.546 2.654 0 5.454-4.291 6.872-6.873 1.091-0.364 2.183-0.728 3.273-1.018a35.826 35.826 0 0 1 3.491-0.763c2.799 2.508 5.272 2.909 6.509 2.909 1.527 0 2.073-0.619 2.254-1.128 0.328-0.656 0.109-1.382-0.218-1.746z m-1.455 1.056c-0.11 0.545-0.656 0.909-1.418 0.909-0.218 0-0.4-0.037-0.619-0.073-1.381-0.328-2.691-1.019-3.999-2.11a18.154 18.154 0 0 1 3.053-0.254c0.764 0 1.419 0.036 1.855 0.146 0.509 0.109 1.31 0.437 1.127 1.381z m-7.71-1.709a38.948 38.948 0 0 0-3.017 0.69 40.659 40.659 0 0 0-2.583 0.764 41.038 41.038 0 0 0 1.237-2.618c0.437-1.019 0.799-2.073 1.164-3.055 0.363 0.618 0.763 1.237 1.163 1.782a51.364 51.364 0 0 0 2.036 2.437zM10.49 1.2a0.787 0.787 0 0 1 0.69-0.436c0.763 0 0.909 0.872 0.909 1.564 0 1.163-0.364 2.945-0.981 4.981-1.055-2.836-1.127-5.199-0.618-6.109zM6.489 18.145c-1.855 3.055-3.637 4.945-4.727 4.945a0.894 0.894 0 0 1-0.545-0.181c-0.218-0.218-0.328-0.472-0.255-0.764 0.218-1.091 2.327-2.618 5.527-4Z"/></svg>