<svg fill="#DA1F26" role="img" viewBox="0 0 33 24" xmlns="http://www.w3.org/2000/svg"><title>Adobe Creative Cloud</title><path d="M20.273 0c-0.313 0.027-0.64 0.054-0.953 0.095a11.466 11.466 0 0 0-3.841 1.131 12.141 12.141 0 0 0-3.337 2.41c-0.041 0.054-0.122 0.081-0.191 0.068a10.092 10.092 0 0 0-2.03-0.095 10.07 10.07 0 0 0-3.976 1.035c-2.398 1.199-4.087 3.065-5.068 5.572a9.615 9.615 0 0 0-0.627 2.902c0 0.068-0.014 0.122-0.027 0.176v1.048c0.027 0.273 0.068 0.532 0.095 0.805 0.136 1.103 0.45 2.165 0.954 3.16 1.118 2.233 2.834 3.867 5.135 4.875a9.667 9.667 0 0 0 3.323 0.804c0.043 0 0.081 0.005 0.117 0.014h11.632c0.248-0.023 0.491-0.047 0.742-0.081a11.318 11.318 0 0 0 3.813-1.132 11.985 11.985 0 0 0 4.945-4.481 11.105 11.105 0 0 0 1.606-4.195c0.068-0.461 0.109-0.939 0.165-1.403 0-0.068 0.014-0.122 0.027-0.176v-1.077c-0.027-0.312-0.068-0.613-0.068-0.898a11.319 11.319 0 0 0-1.131-3.814 12.142 12.142 0 0 0-4.509-4.944 11.183 11.183 0 0 0-4.167-1.594c-0.491-0.081-0.967-0.122-1.458-0.177-0.068 0-0.122-0.014-0.19-0.027z m0.501 2.296c2.884 0.007 5.331 1.12 7.318 3.33a9.4 9.4 0 0 1 2.192 4.508c0.203 1.036 0.246 2.098 0.095 3.146-0.258 1.826-0.952 3.459-2.138 4.89a9.606 9.606 0 0 1-5.422 3.323 9.898 9.898 0 0 1-3.472 0.136c-1.485-0.19-2.847-0.68-4.073-1.565a7.053 7.053 0 0 1-0.912-0.777c-1.663-1.634-3.31-3.282-4.972-4.917-0.408-0.407-0.435-0.857-0.244-1.267a1.115 1.115 0 0 1 1.17-0.64c0.285 0.027 0.505 0.191 0.708 0.396 1.499 1.511 2.984 2.996 4.482 4.508a7.139 7.139 0 0 0 4.195 2.084c2.642 0.354 4.89-0.463 6.674-2.439 0.967-1.076 1.553-2.37 1.798-3.813 0.353-2.153-0.149-4.087-1.485-5.789-1.184-1.512-2.737-2.452-4.617-2.793-1.921-0.339-3.731 0.027-5.38 1.077-0.041 0.027-0.136 0.041-0.177 0.014a12.262 12.262 0 0 0-1.908-1.159s-0.014-0.014-0.027-0.04a8.956 8.956 0 0 1 1.703-1.117 9.015 9.015 0 0 1 3.582-1.063 11.462 11.462 0 0 1 0.909-0.033zM10.459 5.908c1.974-0.033 3.786 0.712 5.401 2.211 1.158 1.088 2.22 2.219 3.337 3.351 0.313 0.312 0.381 0.708 0.231 1.13-0.149 0.422-0.491 0.627-0.926 0.694a0.979 0.979 0 0 1-0.857-0.312c-1.063-1.063-2.125-2.112-3.174-3.187-0.859-0.886-1.88-1.39-3.079-1.609-2.656-0.476-5.339 1.063-6.292 3.582-1.226 3.201 0.708 6.824 4.044 7.588 0.654 0.149 1.35 0.149 2.031 0.135 0.19-0.014 0.298 0.054 0.434 0.177 0.655 0.642 1.35 1.282 2.03 1.92 0.041 0.041 0.095 0.081 0.136 0.122-0.081 0-0.136 0.014-0.19 0.014h-3.12a7.912 7.912 0 0 1-7.722-6.196c-0.886-3.991 1.403-8.037 5.326-9.221a8.586 8.586 0 0 1 2.39-0.399Z"/></svg>