<svg fill="#9999FF" role="img" viewBox="0 0 25 24" xmlns="http://www.w3.org/2000/svg"><title>Adobe Premiere Pro</title><path d="M10.603 8.328a3.005 3.005 0 0 0-1.211-0.205 14.256 14.256 0 0 0-1.118 0.021v3.446l0.4 0.02h0.544c0.4 0 0.8-0.062 1.179-0.184 0.328-0.092 0.615-0.287 0.841-0.544 0.215-0.256 0.318-0.605 0.318-1.056a1.487 1.487 0 0 0-0.953-1.498zM20.449 0H4.551A4.359 4.359 0 0 0 0.192 4.359v15.282c0 2.41 1.949 4.359 4.359 4.359h15.898c2.41 0 4.359-1.949 4.359-4.359V4.359C24.808 1.949 22.859 0 20.449 0z m-7.272 11.949c-0.41 0.574-0.985 1.005-1.651 1.251-0.697 0.256-1.467 0.349-2.308 0.349l-0.513-0.011-0.441-0.01v3.293a0.123 0.123 0 0 1-0.113 0.143H6.162c-0.082 0-0.123-0.041-0.124-0.133V6.277c0-0.072 0.031-0.113 0.103-0.113l0.574-0.01 0.78-0.021 0.892-0.02 0.934-0.01c0.841 0 1.538 0.103 2.112 0.318 0.513 0.174 0.985 0.462 1.375 0.841 0.328 0.328 0.585 0.728 0.748 1.169 0.154 0.431 0.236 0.872 0.236 1.333 0 0.882-0.205 1.61-0.615 2.185z m6.995-3.231v2c0 0.082-0.051 0.113-0.164 0.113a4.462 4.462 0 0 0-1.97 0.379c-0.195 0.092-0.379 0.215-0.523 0.38v5.231c0 0.103-0.041 0.144-0.133 0.143h-2.02a0.144 0.144 0 0 1-0.165-0.123v-5.723l-0.01-0.769-0.02-0.8c0-0.236-0.021-0.462-0.041-0.698a0.103 0.103 0 0 1 0.071-0.113h1.826c0.103 0 0.185 0.072 0.205 0.165a3.108 3.108 0 0 1 0.134 0.943c0.308-0.359 0.687-0.656 1.107-0.882a3.179 3.179 0 0 1 1.559-0.4c0.072-0.01 0.133 0.041 0.144 0.113v0.041z"/></svg>