<svg fill="#000B1D" role="img" viewBox="0 0 25 24" xmlns="http://www.w3.org/2000/svg"><title>Adobe Fonts</title><path d="M20.514 0H4.486A4.372 4.372 0 0 0 0.113 4.372V19.628a4.372 4.372 0 0 0 4.373 4.372h16.028A4.372 4.372 0 0 0 24.887 19.627V4.371A4.372 4.372 0 0 0 20.514 0z m-3.355 6.747c-0.25 0-0.376-0.187-0.454-0.454-0.265-1.001-0.609-1.297-0.812-1.297s-0.516 0.376-0.86 1.156c-0.43 1.001-0.778 2.033-1.039 3.09l1.787-0.002c0.114 0.289 0.01 0.619-0.245 0.797H13.77c-0.578 1.938-1.064 3.807-1.644 5.636a9.988 9.988 0 0 1-1.14 2.643 3.245 3.245 0 0 1-2.564 1.375c-0.798 0-1.579-0.375-1.58-1.204 0.037-0.519 0.438-0.939 0.954-1.001a0.475 0.475 0 0 1 0.438 0.251c0.391 0.704 0.766 1.11 0.938 1.109 0.171 0 0.313-0.234 0.594-1.25l2.052-7.558-1.476-0.002a0.707 0.707 0 0 1 0.234-0.799h1.469c0.265-0.924 0.629-1.817 1.082-2.663a3.908 3.908 0 0 1 3.377-2.266c1.173 0 1.657 0.563 1.657 1.282a1.181 1.181 0 0 1-1.002 1.157z"/></svg>