<svg fill="#FF61F6" role="img" viewBox="0 0 25 24" xmlns="http://www.w3.org/2000/svg"><title>Adobe Dreamweaver</title><path d="M7.054 8.308c-0.441-0.133-0.892-0.205-1.354-0.195-0.205 0-0.379 0-0.523 0.01-0.144 0-0.308 0.01-0.482 0.021v6.841c0.113 0 0.215 0 0.318 0.01 0.092 0.01 0.195 0.01 0.287 0.02 0.103 0.011 0.215 0.011 0.338 0.012 0.472 0.01 0.944-0.072 1.395-0.235 0.41-0.145 0.769-0.381 1.077-0.699 0.308-0.327 0.544-0.718 0.687-1.138 0.164-0.491 0.246-1.015 0.247-1.539 0.01-0.492-0.072-0.985-0.236-1.446C8.521 9.169 7.874 8.554 7.054 8.308zM20.449 0H4.551C2.141 0 0.192 1.949 0.192 4.359v15.282c0 2.41 1.949 4.359 4.359 4.359h15.898c2.41 0 4.359-1.949 4.359-4.359V4.359C24.808 1.949 22.859 0 20.449 0z m-9.477 13.467c-0.195 0.575-0.492 1.108-0.882 1.58-0.359 0.431-0.79 0.799-1.262 1.097-0.462 0.287-0.974 0.502-1.507 0.646-0.513 0.133-1.046 0.205-1.58 0.205H4.582c-0.41 0-0.8 0-1.149-0.011-0.359-0.01-0.626-0.01-0.8-0.021-0.072 0-0.103-0.063-0.102-0.164V6.297c-0.01-0.062 0.041-0.123 0.102-0.133h0.011c0.154-0.01 0.39-0.021 0.687-0.02 0.308-0.01 0.656-0.01 1.066-0.021s0.841-0.01 1.303-0.01c1.251 0 2.297 0.226 3.118 0.677 0.79 0.421 1.436 1.067 1.856 1.856 0.41 0.79 0.615 1.692 0.616 2.718 0.01 0.718-0.092 1.426-0.318 2.103z m9.661 3.323c-0.01 0.041-0.03 0.082-0.061 0.112 0 0.052-0.041 0.072-0.094 0.062H18.562c-0.041 0.01-0.092-0.01-0.124-0.041-0.031-0.041-0.051-0.081-0.061-0.123-0.195-0.821-0.36-1.559-0.492-2.185-0.133-0.636-0.246-1.169-0.329-1.609-0.082-0.442-0.154-0.811-0.214-1.118-0.052-0.308-0.104-0.564-0.134-0.779h-0.011c-0.103 0.451-0.194 0.892-0.287 1.313-0.081 0.421-0.185 0.851-0.287 1.282-0.103 0.431-0.214 0.903-0.349 1.415-0.122 0.513-0.267 1.077-0.42 1.682-0.021 0.113-0.071 0.164-0.164 0.164h-1.918c-0.052 0.01-0.103-0.01-0.145-0.03-0.03-0.032-0.051-0.072-0.072-0.112L11.556 8.892c-0.031-0.092 0.01-0.133 0.123-0.133h1.939c0.092 0 0.145 0.031 0.154 0.103 0.204 0.903 0.378 1.682 0.513 2.338 0.133 0.656 0.246 1.21 0.318 1.671 0.072 0.462 0.144 0.841 0.194 1.129 0.051 0.287 0.092 0.534 0.122 0.718h0.032c0.021-0.164 0.04-0.319 0.071-0.483 0.041-0.194 0.092-0.45 0.153-0.769 0.063-0.318 0.134-0.687 0.227-1.118s0.194-0.923 0.319-1.498c0.112-0.564 0.277-1.21 0.47-1.938 0-0.041 0.022-0.092 0.042-0.134 0.01-0.021 0.05-0.031 0.112-0.03h2.01c0.062 0 0.092 0.041 0.104 0.113 0.174 0.749 0.318 1.405 0.441 1.969 0.112 0.564 0.215 1.067 0.308 1.507 0.082 0.431 0.153 0.81 0.195 1.118 0.04 0.319 0.092 0.575 0.132 0.79 0.032 0.174 0.063 0.349 0.072 0.524h0.03c0.051-0.205 0.092-0.451 0.134-0.728 0.041-0.278 0.092-0.585 0.164-0.933 0.063-0.349 0.133-0.728 0.215-1.149 0.071-0.421 0.174-0.882 0.287-1.405 0.112-0.513 0.236-1.077 0.379-1.682 0.022-0.092 0.063-0.133 0.134-0.134h1.795c0.092 0 0.122 0.051 0.103 0.144l-2.215 7.908z"/></svg>