<svg fill="#FF3366" role="img" viewBox="0 0 25 24" xmlns="http://www.w3.org/2000/svg"><title>Adobe InDesign</title><path d="M4.551 0C2.141 0 0.192 1.949 0.192 4.359v15.282c0 2.41 1.949 4.359 4.359 4.359h15.898c2.41 0 4.359-1.949 4.359-4.359V4.359C24.808 1.949 22.859 0 20.449 0z m11.6 5.262h2.082c0.051-0.01 0.092 0.031 0.103 0.071v9.785c0 0.185 0.01 0.39 0.02 0.615 0.021 0.215 0.031 0.421 0.041 0.595 0 0.072-0.031 0.133-0.102 0.164-0.533 0.226-1.097 0.39-1.672 0.493-0.513 0.092-1.046 0.144-1.579 0.143-0.759 0.01-1.518-0.144-2.206-0.461-0.646-0.297-1.179-0.79-1.548-1.395-0.379-0.626-0.564-1.405-0.564-2.339-0.01-0.759 0.185-1.508 0.564-2.164 0.39-0.667 0.954-1.221 1.631-1.59 0.718-0.4 1.579-0.595 2.594-0.594 0.051 0 0.123 0 0.216 0.01s0.195 0.01 0.318 0.02V5.374c0-0.072 0.031-0.113 0.102-0.112z m-9.159 0.882h2c0.062-0.01 0.123 0.031 0.134 0.102 0.01 0.01 0.01 0.021 0.01 0.031v10.523c0 0.113-0.051 0.164-0.144 0.164H6.982c-0.092 0-0.133-0.051-0.133-0.164V6.277c0-0.092 0.051-0.133 0.143-0.133z m8.441 4.348c-0.4 0-0.8 0.082-1.159 0.267-0.349 0.174-0.646 0.431-0.871 0.759-0.226 0.328-0.338 0.769-0.339 1.303-0.01 0.359 0.051 0.718 0.174 1.056 0.103 0.277 0.256 0.523 0.462 0.728 0.195 0.185 0.431 0.328 0.697 0.41 0.277 0.092 0.564 0.133 0.852 0.134 0.154 0 0.297-0.01 0.43-0.021 0.133 0.01 0.256-0.01 0.37-0.051v-4.513c-0.092-0.021-0.185-0.041-0.277-0.051-0.113-0.01-0.226-0.021-0.339-0.021z"/></svg>