<svg fill="#9999FF" role="img" viewBox="0 0 25 24" xmlns="http://www.w3.org/2000/svg"><title>Adobe After Effects</title><path d="M8.951 10.697c-0.103-0.318-0.195-0.626-0.297-0.943s-0.195-0.615-0.277-0.913c-0.082-0.287-0.154-0.554-0.226-0.8h-0.02c-0.092 0.441-0.205 0.882-0.349 1.323-0.154 0.492-0.308 1.005-0.472 1.518-0.133 0.523-0.297 1.005-0.451 1.436h2.605c-0.062-0.215-0.144-0.472-0.236-0.739-0.092-0.277-0.185-0.574-0.277-0.882z m8.8-0.297c-0.564-0.031-1.097 0.267-1.364 0.779-0.123 0.236-0.195 0.482-0.225 0.739h2.163c0.267 0 0.462 0 0.584-0.01 0.082-0.01 0.164-0.031 0.236-0.082v-0.103c0-0.133-0.022-0.256-0.062-0.379-0.183-0.574-0.726-0.964-1.332-0.944zM20.449 0H4.551C2.141 0 0.192 1.949 0.192 4.359v15.282c0 2.41 1.949 4.359 4.359 4.359h15.898c2.41 0 4.359-1.949 4.359-4.359V4.359C24.808 1.949 22.859 0 20.449 0z m-7.221 16.934h-2.143c-0.072 0.01-0.144-0.042-0.164-0.112l-0.842-2.462H6.264l-0.779 2.421c-0.021 0.092-0.103 0.154-0.195 0.143H3.362c-0.113 0-0.144-0.062-0.113-0.185L6.551 7.272c0.031-0.103 0.062-0.195 0.103-0.318 0.041-0.215 0.062-0.441 0.061-0.667-0.01-0.051 0.031-0.103 0.082-0.113h2.657c0.072 0 0.123 0.031 0.133 0.082l3.744 10.513c0.031 0.113 0.001 0.165-0.103 0.165z m8.053-4.093c-0.022 0.194-0.032 0.338-0.043 0.431-0.01 0.072-0.071 0.133-0.143 0.133-0.062 0-0.174 0.01-0.339 0.022-0.163 0.021-0.359 0.03-0.593 0.029-0.236 0-0.483-0.041-0.749-0.041h-3.251c0.04 0.318 0.144 0.636 0.318 0.913 0.186 0.278 0.442 0.492 0.747 0.617 0.41 0.174 0.863 0.267 1.314 0.256 0.359-0.011 0.717-0.041 1.066-0.113 0.319-0.04 0.626-0.122 0.914-0.236 0.051-0.04 0.082-0.021 0.082 0.082v1.571c0 0.04-0.01 0.082-0.022 0.122-0.022 0.031-0.041 0.052-0.071 0.071-0.328 0.144-0.667 0.246-1.025 0.308-0.483 0.092-0.964 0.133-1.457 0.123-0.781 0-1.436-0.123-1.969-0.359-0.503-0.216-0.945-0.555-1.293-0.974-0.327-0.4-0.564-0.851-0.708-1.344-0.144-0.483-0.214-0.986-0.214-1.498 0-0.553 0.082-1.097 0.256-1.631 0.164-0.513 0.421-0.985 0.769-1.405 0.338-0.41 0.758-0.738 1.24-0.974 0.483-0.236 1.056-0.318 1.713-0.318 0.545-0.01 1.087 0.092 1.59 0.318 0.421 0.185 0.79 0.462 1.077 0.82 0.267 0.349 0.482 0.738 0.616 1.169 0.132 0.41 0.194 0.831 0.194 1.252 0 0.246-0.01 0.462-0.019 0.656z"/></svg>