<svg fill="#31A8FF" role="img" viewBox="0 0 25 24" xmlns="http://www.w3.org/2000/svg"><title>Adobe Lightroom</title><path d="M20.449 0H4.551C2.141 0 0.192 1.949 0.192 4.359v15.282c0 2.41 1.949 4.359 4.359 4.359h15.898c2.41 0 4.359-1.949 4.359-4.359V4.359C24.808 1.949 22.859 0 20.449 0z m-7.17 16.809c0 0.052-0.03 0.092-0.061 0.124-0.031 0.021-0.062 0.03-0.104 0.03H6.613c-0.113 0-0.164-0.063-0.164-0.185V6.297c-0.01-0.072 0.041-0.133 0.113-0.143h2.051c0.051-0.01 0.113 0.031 0.113 0.082v8.646h4.738c0.104 0 0.134 0.05 0.113 0.144l-0.298 1.783z m6.411-8.06v2c0 0.082-0.051 0.113-0.164 0.113-0.666-0.041-1.333 0.082-1.939 0.348-0.205 0.092-0.4 0.215-0.554 0.38v5.231c0 0.103-0.041 0.144-0.133 0.143h-2c-0.082 0.01-0.154-0.041-0.164-0.122V11.118c0-0.246 0-0.503-0.01-0.769s-0.01-0.533-0.021-0.8c-0.01-0.226-0.031-0.451-0.062-0.677-0.01-0.051 0.021-0.103 0.071-0.113 0.01-0.01 0.021-0.01 0.041 0h1.795c0.103 0 0.185 0.072 0.216 0.164 0.041 0.072 0.072 0.154 0.082 0.236 0.021 0.103 0.04 0.215 0.051 0.318 0.01 0.113 0.022 0.236 0.022 0.369 0.307-0.359 0.677-0.656 1.096-0.882 0.472-0.256 0.995-0.379 1.528-0.369 0.071-0.01 0.133 0.041 0.144 0.113 0.001 0.01 0.001 0.021 0.001 0.041z"/></svg>