<svg fill="#9999FF" role="img" viewBox="0 0 25 24" xmlns="http://www.w3.org/2000/svg"><title>Adobe Audition</title><path d="M20.449 0H4.551C2.141 0 0.192 1.949 0.192 4.359v15.282c0 2.41 1.949 4.359 4.359 4.359h15.898c2.41 0 4.359-1.949 4.359-4.359V4.359C24.808 1.949 22.859 0 20.449 0zM13.013 16.923h-2.144c-0.072 0.011-0.144-0.041-0.164-0.113l-0.841-2.451H6.049l-0.78 2.42c-0.021 0.092-0.103 0.154-0.195 0.144H3.146c-0.113 0-0.144-0.062-0.113-0.185l3.303-9.476c0.031-0.103 0.062-0.215 0.102-0.339 0.051-0.215 0.082-0.431 0.083-0.656-0.01-0.051 0.031-0.103 0.082-0.113h2.656c0.072 0 0.123 0.031 0.133 0.082l3.723 10.524c0.031 0.112 0 0.163-0.102 0.163z m7.949 0.011h-1.766c-0.081 0.01-0.163-0.042-0.193-0.112-0.021-0.082-0.041-0.175-0.063-0.257-0.021-0.072-0.021-0.144-0.021-0.215-0.328 0.296-0.728 0.513-1.158 0.635-0.369 0.104-0.758 0.154-1.139 0.153-0.378 0-0.759-0.051-1.118-0.174-0.328-0.112-0.635-0.308-0.872-0.564-0.267-0.287-0.462-0.626-0.575-0.995-0.144-0.473-0.214-0.964-0.204-1.456V8.862c-0.01-0.062 0.03-0.123 0.102-0.134h1.989c0.063-0.01 0.124 0.031 0.134 0.103v4.852c0 0.45 0.103 0.809 0.297 1.066 0.196 0.256 0.595 0.391 1.057 0.39 0.235 0 0.471-0.042 0.698-0.124 0.236-0.082 0.45-0.194 0.646-0.338V8.841c0-0.072 0.051-0.113 0.143-0.113h1.959c0.052-0.01 0.112 0.031 0.112 0.082v6.318c0 0.278 0 0.524 0.012 0.739 0.01 0.216 0.022 0.401 0.03 0.565 0.021 0.164 0.03 0.256 0.04 0.368 0.012 0.092-0.029 0.134-0.11 0.134zM8.736 10.697c-0.103-0.318-0.195-0.626-0.298-0.943s-0.195-0.615-0.276-0.913c-0.082-0.287-0.154-0.554-0.226-0.8h-0.021c-0.092 0.441-0.205 0.882-0.348 1.323-0.154 0.492-0.308 1.005-0.472 1.518-0.133 0.523-0.297 1.005-0.451 1.436h2.605c-0.062-0.215-0.144-0.472-0.236-0.739-0.092-0.277-0.185-0.574-0.277-0.882z"/></svg>