<svg fill="#31A8FF" role="img" viewBox="0 0 25 24" xmlns="http://www.w3.org/2000/svg"><title>Adobe Lightroom Classic</title><path d="M20.449 0H4.551C2.141 0 0.192 1.949 0.192 4.359v15.282c0 2.41 1.949 4.359 4.359 4.359h15.898c2.41 0 4.359-1.949 4.359-4.359V4.359C24.808 1.949 22.859 0 20.449 0zM8.982 16.809c-0.01 0.063-0.031 0.104-0.061 0.124-0.031 0.021-0.062 0.03-0.093 0.03H2.972c-0.103 0-0.144-0.063-0.144-0.185V6.297c0-0.103 0.041-0.144 0.134-0.143h1.815c0.072 0 0.103 0.041 0.102 0.113v8.615h4.267c0.092 0 0.123 0.05 0.103 0.144l-0.267 1.783z m5.744-6.071c0 0.082-0.051 0.113-0.145 0.113-0.327-0.021-0.655 0-0.973 0.072-0.267 0.062-0.523 0.154-0.77 0.277-0.185 0.092-0.359 0.226-0.502 0.379v5.231c0 0.104-0.041 0.145-0.123 0.145H10.428c-0.103 0-0.144-0.052-0.143-0.164v-5.682c0-0.246 0-0.503-0.011-0.77 0-0.267-0.01-0.533-0.02-0.8-0.01-0.227-0.031-0.452-0.062-0.677 0-0.031 0-0.062 0.021-0.093 0.031-0.01 0.051-0.021 0.082-0.01h1.62c0.092 0 0.154 0.051 0.195 0.164 0.031 0.072 0.062 0.154 0.072 0.236 0.021 0.103 0.031 0.215 0.041 0.318 0.01 0.113 0.01 0.236 0.01 0.369 0.267-0.349 0.605-0.656 0.985-0.882 0.409-0.246 0.892-0.379 1.374-0.369 0.092 0 0.133 0.051 0.134 0.143v2z m7.384-1.651c0.01 0.062-0.022 0.113-0.061 0.154-0.042 0.021-0.092 0.021-0.135 0-0.235-0.123-0.482-0.205-0.738-0.246-0.318-0.062-0.646-0.082-0.964-0.082-0.523-0.01-1.046 0.123-1.497 0.39-0.421 0.256-0.749 0.636-0.964 1.076-0.235 0.513-0.35 1.077-0.338 1.642-0.011 0.41 0.051 0.811 0.164 1.198 0.103 0.319 0.256 0.616 0.451 0.883 0.174 0.235 0.389 0.442 0.645 0.594 0.246 0.144 0.503 0.256 0.78 0.329 0.256 0.071 0.534 0.113 0.801 0.112 0.296 0 0.595-0.011 0.891-0.042 0.246-0.03 0.492-0.092 0.718-0.174 0.082-0.062 0.133-0.03 0.164-0.01 0.041 0.041 0.062 0.103 0.051 0.154v1.528c0.01 0.122-0.051 0.226-0.153 0.277-0.267 0.103-0.543 0.174-0.831 0.205-0.348 0.053-0.696 0.074-1.056 0.074-0.503 0-1.015-0.071-1.496-0.204-0.473-0.123-0.914-0.338-1.304-0.616-0.39-0.278-0.728-0.616-1.004-1.015-0.298-0.431-0.513-0.904-0.657-1.406-0.154-0.595-0.236-1.2-0.227-1.804 0-1.005 0.196-1.908 0.595-2.667 0.391-0.749 0.975-1.374 1.703-1.795 0.729-0.421 1.61-0.636 2.616-0.636 0.349 0 0.697 0.021 1.046 0.062 0.236 0.031 0.472 0.082 0.687 0.174 0.082 0.051 0.123 0.144 0.113 0.246V9.087z"/></svg>