<svg fill="#FF9A00" role="img" viewBox="0 0 25 24" xmlns="http://www.w3.org/2000/svg"><title>Adobe Illustrator</title><path d="M10.992 10.697c-0.103-0.318-0.195-0.626-0.297-0.943-0.103-0.318-0.195-0.615-0.277-0.913-0.082-0.287-0.154-0.554-0.226-0.8h-0.02c-0.092 0.441-0.205 0.882-0.349 1.323-0.154 0.492-0.308 1.005-0.472 1.518-0.144 0.523-0.297 1.005-0.451 1.436h2.605c-0.062-0.216-0.144-0.472-0.236-0.74-0.092-0.276-0.185-0.573-0.277-0.881zM20.449 0H4.551C2.141 0 0.192 1.949 0.192 4.359v15.282c0 2.41 1.949 4.359 4.359 4.359h15.898c2.41 0 4.359-1.949 4.359-4.359V4.359C24.808 1.949 22.859 0 20.449 0zM15.269 16.954h-2.144c-0.071 0.01-0.143-0.041-0.163-0.113l-0.841-2.441H8.305l-0.779 2.41c-0.021 0.092-0.103 0.154-0.195 0.145H5.403c-0.113 0-0.144-0.063-0.113-0.185L8.592 7.262c0.031-0.103 0.062-0.215 0.103-0.339 0.041-0.215 0.062-0.441 0.061-0.667-0.01-0.051 0.031-0.103 0.082-0.112h2.657c0.082 0 0.123 0.031 0.133 0.082l3.744 10.564c0.031 0.112 0 0.164-0.103 0.164z m3.487-0.154c0 0.113-0.04 0.164-0.132 0.164H16.613c-0.103 0-0.154-0.063-0.154-0.164v-7.897c0-0.103 0.042-0.144 0.134-0.144h2.031c0.092 0 0.132 0.051 0.132 0.144v7.897z m-0.214-9.262c-0.237 0.246-0.586 0.379-0.934 0.359-0.338 0.01-0.667-0.123-0.914-0.359-0.236-0.256-0.359-0.595-0.349-0.943-0.01-0.349 0.123-0.677 0.368-0.913 0.248-0.236 0.576-0.359 0.915-0.359 0.401 0 0.707 0.123 0.934 0.359 0.226 0.246 0.349 0.574 0.338 0.913 0.01 0.349-0.113 0.687-0.358 0.943z"/></svg>