<svg fill="#FF61F6" role="img" viewBox="0 0 25 24" xmlns="http://www.w3.org/2000/svg"><title>Adobe XD</title><path d="M4.551 0C2.141 0 0.192 1.949 0.192 4.359v15.282c0 2.41 1.949 4.359 4.359 4.359h15.898c2.41 0 4.359-1.949 4.359-4.359V4.359C24.808 1.949 22.859 0 20.449 0Zm14.431 5.262h2.082c0.051-0.01 0.092 0.031 0.103 0.071v9.785c0 0.185 0.01 0.39 0.02 0.615 0.021 0.215 0.031 0.421 0.041 0.595 0 0.072-0.031 0.133-0.102 0.164-0.533 0.226-1.097 0.39-1.672 0.493-0.523 0.092-1.046 0.144-1.58 0.143-0.759 0.01-1.518-0.144-2.205-0.461-0.646-0.297-1.179-0.79-1.548-1.395-0.379-0.626-0.564-1.405-0.565-2.339a4.212 4.212 0 0 1 2.195-3.754c0.718-0.4 1.579-0.595 2.595-0.594 0.051 0 0.123 0 0.216 0.01s0.195 0.01 0.317 0.02V5.374c0-0.072 0.031-0.113 0.103-0.112zM3.967 6.154h2.328c0.051 0 0.103 0.01 0.143 0.02 0.041 0.021 0.072 0.051 0.103 0.093 0.195 0.441 0.421 0.882 0.656 1.323 0.246 0.441 0.482 0.872 0.739 1.302 0.246 0.431 0.472 0.862 0.687 1.303h0.021c0.215-0.451 0.441-0.892 0.666-1.323 0.226-0.431 0.462-0.862 0.698-1.293 0.236-0.431 0.462-0.872 0.687-1.292 0.01-0.041 0.031-0.082 0.061-0.102a0.195 0.195 0 0 1 0.134-0.021h2.164c0.051-0.01 0.103 0.021 0.113 0.072 0.01 0.01-0.01 0.051-0.031 0.072l-3.077 5.077 3.282 5.384c0.021 0.041 0.031 0.082 0.021 0.123-0.01 0.041-0.051 0.01-0.113 0.021h-2.349c-0.164 0-0.277-0.01-0.349-0.113-0.215-0.431-0.441-0.851-0.656-1.282-0.215-0.421-0.451-0.851-0.698-1.292-0.246-0.441-0.492-0.882-0.738-1.334h-0.021c-0.215 0.441-0.451 0.882-0.687 1.323-0.236 0.441-0.472 0.882-0.697 1.313-0.236 0.431-0.472 0.872-0.708 1.293-0.041 0.103-0.123 0.113-0.236 0.112h-2.256c-0.041 0-0.072 0.021-0.072-0.03a0.144 0.144 0 0 1 0.021-0.113l3.189-5.231L3.885 6.297c-0.031-0.041-0.041-0.082-0.021-0.102 0.021-0.031 0.062-0.041 0.103-0.041z m14.297 4.338c-0.4 0-0.8 0.082-1.159 0.267-0.349 0.174-0.646 0.431-0.872 0.759-0.226 0.328-0.338 0.769-0.338 1.303-0.01 0.359 0.051 0.718 0.174 1.056 0.103 0.277 0.256 0.523 0.462 0.728 0.195 0.185 0.431 0.328 0.697 0.41 0.277 0.092 0.564 0.133 0.851 0.134 0.154 0 0.297-0.01 0.431-0.021 0.133 0.01 0.246-0.01 0.369-0.051v-4.513c-0.092-0.021-0.185-0.041-0.276-0.051-0.113-0.01-0.226-0.021-0.339-0.021Z"/></svg>