<svg fill="#31A8FF" role="img" viewBox="0 0 25 24" xmlns="http://www.w3.org/2000/svg"><title>Adobe Photoshop</title><path d="M10.295 8.329c-0.38-0.154-0.79-0.215-1.211-0.206-0.267 0-0.503 0-0.697 0.011-0.205-0.01-0.349 0-0.421 0.01v3.446c0.144 0.01 0.277 0.021 0.4 0.021h0.544c0.4 0 0.8-0.062 1.18-0.185 0.328-0.092 0.615-0.287 0.841-0.543 0.215-0.256 0.318-0.605 0.318-1.057 0.01-0.318-0.072-0.636-0.236-0.913-0.174-0.267-0.421-0.472-0.718-0.584zM20.449 0H4.551C2.141 0 0.192 1.949 0.192 4.359v15.282c0 2.41 1.949 4.359 4.359 4.359h15.898c2.41 0 4.359-1.949 4.359-4.359V4.359C24.808 1.949 22.859 0 20.449 0z m-7.581 11.949c-0.409 0.574-0.984 1.005-1.65 1.252-0.697 0.256-1.467 0.349-2.308 0.348-0.246 0-0.41 0-0.513-0.01s-0.246-0.01-0.441-0.01v3.291c0.01 0.072-0.041 0.134-0.113 0.145H5.854c-0.082 0-0.123-0.042-0.124-0.135V6.277c0-0.072 0.031-0.113 0.103-0.113 0.174 0 0.338 0 0.574-0.01 0.246-0.01 0.503-0.01 0.78-0.02s0.574-0.01 0.892-0.021c0.318-0.01 0.626-0.01 0.934-0.01 0.841 0 1.539 0.103 2.113 0.318 0.513 0.174 0.985 0.462 1.374 0.841 0.328 0.328 0.585 0.728 0.749 1.169 0.153 0.431 0.235 0.872 0.235 1.334 0.001 0.882-0.204 1.61-0.616 2.184z m7.273 3.99c-0.287 0.41-0.688 0.727-1.148 0.914-0.503 0.214-1.118 0.326-1.858 0.326-0.471 0-0.933-0.04-1.394-0.132-0.359-0.063-0.718-0.174-1.046-0.328-0.072-0.04-0.124-0.112-0.114-0.194v-1.785c0-0.03 0.011-0.072 0.042-0.092 0.03-0.021 0.062-0.01 0.092 0.01 0.4 0.236 0.821 0.401 1.272 0.503 0.389 0.103 0.799 0.154 1.211 0.154 0.39 0 0.667-0.052 0.851-0.145 0.164-0.072 0.277-0.246 0.277-0.431 0-0.145-0.082-0.277-0.246-0.41-0.164-0.132-0.502-0.286-1.004-0.483-0.523-0.185-1.004-0.431-1.457-0.738-0.318-0.227-0.584-0.523-0.78-0.872-0.163-0.328-0.245-0.687-0.235-1.047 0-0.441 0.123-0.862 0.349-1.241 0.256-0.41 0.635-0.738 1.076-0.944 0.481-0.245 1.086-0.358 1.815-0.357 0.421 0 0.851 0.031 1.272 0.092 0.308 0.041 0.605 0.123 0.882 0.236 0.04 0.01 0.082 0.051 0.102 0.092 0.01 0.041 0.021 0.082 0.021 0.123v1.672c0 0.041-0.021 0.082-0.051 0.103-0.092 0.021-0.144 0.021-0.185 0-0.308-0.164-0.636-0.277-0.985-0.349-0.38-0.082-0.759-0.133-1.148-0.134-0.205-0.01-0.421 0.021-0.617 0.072-0.132 0.031-0.246 0.103-0.318 0.205-0.051 0.082-0.082 0.185-0.082 0.277s0.041 0.185 0.104 0.267c0.092 0.113 0.214 0.205 0.348 0.277 0.235 0.123 0.482 0.236 0.728 0.338 0.555 0.185 1.088 0.441 1.58 0.749 0.338 0.214 0.615 0.503 0.809 0.852 0.164 0.326 0.246 0.687 0.236 1.055 0.011 0.483-0.132 0.964-0.399 1.365z"/></svg>