<svg fill="#D0271D" role="img" viewBox="0 0 53 24" xmlns="http://www.w3.org/2000/svg"><title>ADP</title><path d="M33.292 12a6.89 6.89 0 0 1-6.867 6.867h-2.642v-3.018h2.642a3.849 3.849 0 1 0 0-7.698h-2.642V5.132h2.642a6.89 6.89 0 0 1 6.867 6.868M18.651 5.132v5.585H13.897l-1.736 3.018H21.67v-8.603Zm34.263 4.302a9.434 9.434 0 0 1-9.433 9.433v5.132h-8.151V19.999a11.803 11.803 0 0 1-8.981 4H18.651v-5.132H12.614l-3.019 5.132H0.086L14.047 0h12.378a12.317 12.317 0 0 1 8.98 4V0h8.151a9.419 9.419 0 0 1 9.358 9.434m-26.489 11.547a9.004 9.004 0 0 0 8.15-5.132h3.849v5.132h2.113v-5.132h3.019a6.407 6.407 0 0 0 6.415-6.415 6.475 6.475 0 0 0-6.49-6.415H38.349v7.698h-3.019a9.056 9.056 0 0 0-8.905-7.698H15.859l-10.491 17.962h2.491l3.019-5.132h10.792v5.132z m17.056-15.849h-3.019v3.019h3.019a1.275 1.275 0 0 1 1.283 1.283 1.321 1.321 0 0 1-1.283 1.283h-3.019v3.018h3.019a4.302 4.302 0 0 0 4.301-4.301 4.347 4.347 0 0 0-4.301-4.302M47.707 22.49a1.208 1.208 0 1 1-1.208-1.208 1.192 1.192 0 0 1 1.208 1.208m0.302 0a1.509 1.509 0 1 0-1.51 1.509 1.509 1.509 0 0 0 1.51-1.509M46.575 21.811a0.302 0.302 0 1 1 0 0.604h-0.302v-0.604z m0.377-0.076a0.574 0.574 0 0 0-0.377-0.151h-0.604v1.812h0.227v-0.68h0.301l0.378 0.68h0.302l-0.453-0.755c0.075 0 0.151-0.075 0.226-0.151a0.453 0.453 0 0 0 0.076-0.302 0.423 0.423 0 0 0-0.076-0.453"/></svg>