<svg fill="#0ABF53" role="img" viewBox="0 0 75 24" xmlns="http://www.w3.org/2000/svg"><title>Adyen</title><path d="M36.409 5.455v9.068c0 0.414 0.336 0.75 0.75 0.75h1.432V5.455h5.455v15.919c0 1.45-1.176 2.626-2.626 2.626H31.142v-3.818h7.449v-1.636h-5.011c-1.45 0-2.626-1.176-2.626-2.626V5.455h5.455Zm-25.535 0c1.45 0 2.626 1.176 2.625 2.625v10.466H3.034c-1.45 0-2.626-1.176-2.626-2.626v-2.93c0-1.45 1.176-2.626 2.626-2.626h2.829v4.159c0 0.414 0.336 0.75 0.75 0.75h1.432V9.478c0-0.414-0.336-0.75-0.751-0.75l-6.698-0.001V5.455Zm17.898-5.455v18.546H18.307c-1.45 0-2.626-1.176-2.626-2.626v-7.84c0-1.45 1.176-2.626 2.626-2.625h2.829v9.068c0 0.414 0.336 0.75 0.75 0.75h1.432l0-15.273h5.454Zm27.921 5.455a2.626 2.626 0 0 1 2.626 2.625v2.931c0 1.45-1.176 2.626-2.626 2.626h-2.829v-4.159c0-0.414-0.336-0.75-0.75-0.75h-1.432v5.795c0 0.414 0.336 0.75 0.75 0.75h6.699v3.273h-10.278c-1.45 0-2.626-1.176-2.625-2.626v-10.465Zm15.273 0c1.45 0 2.626 1.176 2.626 2.625v10.466h-5.455V9.478c-0.001-0.414-0.336-0.749-0.75-0.75h-1.432v9.818H61.501V5.455Z"/></svg>