<svg fill="#006272" role="img" viewBox="0 0 25 24" xmlns="http://www.w3.org/2000/svg"><title>Aer Lingus</title><path d="M24.749 13.561c-0.496 1.596-2.15 3.094-4.135 3.405 0.32 0.496 0.467 1.109 0.39 1.79-0.215 1.848-1.984 3.337-3.882 3.357-1.284 0.009-3.025-0.545-4.251-2.482-1.099-1.721-1.255-4.455-1.178-5.282-1.342 1.372-2.179 2.704-2.577 3.628-0.895 2.092-1.236 4.64-1.216 5.837 0 0-0.165 0.156-0.32 0.186-0.496-0.088-0.925-0.273-1.246-0.555-0.388-0.351-0.476-0.682-0.476-0.682 0.593-2.967 1.537-4.814 2.947-6.925 1.897-2.851 4.824-4.611 8.297-5.671 2.51-0.769 5.118-0.934 6.907 0.583 0.964 0.797 1.022 1.945 0.74 2.811zM9.963 11.986c-0.594 0.992-2.218 2.588-3.502 3.414-2.676 1.712-4.601 1.828-5.565 1.216a1.499 1.499 0 0 1-0.302-0.243c-0.749-0.788-0.622-2.189 0.253-3.337 0.429-0.564 0.982-0.963 1.519-1.147-0.419-0.195-0.701-0.603-0.759-1.178-0.117-1.147 0.749-2.655 1.945-3.268 1.051-0.535 3.317-1.07 4.98 1.411 0.652 0.963 1.236 2.335 1.431 3.132zM20.954 1.556c-0.145-1.43-1.674-1.956-3.355-1.235-0.797 0.341-1.498 0.914-1.994 1.566 0.077-0.651-0.107-1.225-0.574-1.566-0.925-0.671-2.607-0.176-3.755 1.07-0.399 0.438-1.702 2.014-1.771 4.328-0.029 1.119 0.467 3.6 2.101 5.312 4.358-1.644 6.702-4.163 7.597-5.204 1.032-1.207 1.469-2.266 1.654-3.044 0.136-0.614 0.117-1.051 0.097-1.227z"/></svg>