<svg fill="#0B2343" role="img" viewBox="0 0 31 24" xmlns="http://www.w3.org/2000/svg"><title>Aerom&#233;xico</title><path d="M28.7 12.283c0.056 0.199 0 0.538-0.341 0.623a4.768 4.768 0 0 1-0.849 0.141c-0.481 0.057-0.453 0.454-0.452 0.68v2.887c0 0.395-0.311 1.726-1.84 1.726H21.708c-1.33 0-2.376-1.104-2.376-2.292V9.199c-0.028-1.188 1.047-1.981 2.009-1.953 0.481 0 0.821 0.142 1.075 0.283 0.566 0.255 1.189 0.566 2.01 0.962 0 0 1.3-0.934 1.386-0.99 0.453-0.311 0.877-0.085 1.02 0.198 0.481 0.934 1.386 2.83 1.868 4.584z m2.093-5.122a4.185 4.185 0 0 0-4.104-4.246c-2.179-0.056-3.395 0.737-3.848 0.963-0.028 0.029-0.084 0-0.141-0.056-0.396-0.395-1.275-0.991-2.236-1.274-0.142-0.028-0.17-0.255 0-0.255a16.955 16.955 0 0 1 4.641 0.142c0.171 0.029 0.312-0.084 0.227-0.226-0.056-0.113-0.085-0.17-0.17-0.368-0.199-0.395-0.679-0.821-1.302-0.991-1.614-0.453-4.387-0.849-6.876-0.849-2.774-0.028-5.716 0.538-6.453 0.708-0.17 0.029-0.425 0.115-0.481 0.114-0.142 0-0.198 0.198-0.113 0.282l0.283 0.283c0.085 0.113 0.142 0.283-0.029 0.453L5.041 6.454H8.578c0.226 0 0.453 0.198 0.452 0.453 0 0.226-0.199 0.453-0.424 0.452H4.022l-1.387 1.274h6c0.227 0 0.425 0.255 0.424 0.453 0 0.198-0.17 0.453-0.424 0.452H1.617L0.202 10.84h12.112c0.226 0 0.425 0.255 0.425 0.452 0 0.255-0.17 0.482-0.425 0.482H0.202v1.274h12.084c0.283 0 0.425 0.255 0.425 0.48 0 0.199-0.199 0.425-0.454 0.425H0.202v1.275h15.79c0.255 0 0.426 0.226 0.426 0.48 0 0.226-0.199 0.453-0.426 0.453H4.447v1.274h11.574c0.226 0 0.395 0.255 0.396 0.48s-0.198 0.453-0.396 0.453l-0.227-0.028H4.447v1.273h13.329s0.481-1.104 0.48-2.349V8.689c0-0.678 0.283-1.81 1.67-2.121 0.028 0 0.085-0.029 0.114-0.03 3.933-0.933 7.981-0.084 10.272 0.906 0.425 0.199 0.51-0.14 0.481-0.283zM8.692 24h2.69c2.404-0.028 3.961-1.3 3.961-1.3H8.691v1.3z m0-2.207h7.726c0.37-0.368 0.821-1.02 0.934-1.273H8.691v1.273Z"/></svg>