<svg fill="#02458D" role="img" viewBox="0 0 68 24" xmlns="http://www.w3.org/2000/svg"><title>Aeroflot</title><path d="M25.805 14.024c-0.156-0.377-0.271-0.76-0.399-1.134l-18.645 1.134 3.771 1.936z m2.539 3.483c-0.159-0.117-0.321-0.279-0.475-0.419a5.089 5.089 0 0 1-0.802-0.888l-9.309 1.872 3.963 1.421z m7.374-0.799c0.447-0.07 1.117-0.341 1.642-0.748l-2.704-5.676 2.807-1.424-2.368-2.184c-1.681 0.816-3.369 1.62-5.053 2.424l1.201 2.863 1.939-0.922z m4.608-11.845c1.081 1.397 1.829 3.019 2.185 4.748h-1.704a10.848 10.848 0 0 0-0.481-1.592c-1.145-3.19-3.491-5.463-6.189-7.354-0.355-0.218-0.673-0.458-1.034-0.665 0.36 0.123 0.679 0.24 1.034 0.38 2.458 1.039 4.642 2.472 6.189 4.483m0.517 18.203c-0.628 0.318-1.271 0.614-1.905 0.921l-1.578-3.332c-1.033 0.388-2.123 0.601-3.223 0.631-1.184 0.056-2.366-0.112-3.489-0.491l-1.349 3.192c-0.439 0.039-1.045 0-1.43-0.296a1.056 1.056 0 0 1-0.472-0.625c0.57-0.994 1.087-2.019 1.617-3.037-0.355-0.246-0.67-0.425-0.991-0.754l0.961-1.22c1.626 1.061 3.408 1.634 5.153 1.634 1.751 0.061 3.491-0.536 5.117-1.754 0.531 0.154 1.075 0.332 1.511 0.502-0.162 0.128-0.279 0.243-0.439 0.38-0.318 0.335-0.595 0.676-1.111 0.967 0.525 1.103 1.081 2.19 1.628 3.282z m21.745-9.584L67.517 10.164h-26.674c0 1.179-0.168 2.19-0.517 3.073-1.031 2.807-3.606 4.153-6.189 4.103-2.536-0.075-5.123-1.464-6.268-4.025a7.667 7.667 0 0 1-0.64-3.151H0.483l4.887 3.318 20.435-1.128c0.385 1.545 1.109 2.896 2.067 3.896a8.561 8.561 0 0 0 6.265 2.821 7.793 7.793 0 0 0 6.189-2.77c0.871-1.011 1.547-2.307 1.939-3.869z m-1.341 0.542l-3.776 1.852L42.379 14.024a26.535 26.535 0 0 0 0.361-1.134z m-10.913 4.084l-4.134 1.452a999.296 999.296 0 0 1-6.385-2.053c0.193-0.168 0.349-0.327 0.511-0.547 0.237-0.207 0.439-0.492 0.676-0.71z m1.986-0.252l3.288-1.606-13.575-1.715c-0.12 0.458-0.478 0.832-0.715 1.207z m-36.635 0l-3.293-1.513 13.645-1.774c0.251 0.425 0.478 0.799 0.754 1.173Z"/></svg>