<svg fill="#1E96EB" role="img" viewBox="0 0 28 24" xmlns="http://www.w3.org/2000/svg"><title>AFFiNE</title><path d="M13.994 0c-0.673 0.006-1.337 0.352-1.69 0.975C10.975 3.295 1.674 19.345 0.589 21.301c-0.441 1.058 0.174 2.313 1.278 2.621 0.459 0.122 0.942 0.06 1.358 0.075 6.07 0.006 16.078-0.007 22.167 0 0.176 0.003 0.484-0.002 0.743-0.075 0.801-0.223 1.395-0.983 1.419-1.813 0.009-0.275-0.042-0.551-0.141-0.806-0.126-0.273-0.221-0.415-0.325-0.6l-0.615-1.065L16.622 2.575l-0.616-1.066-0.308-0.534c-0.14-0.231-0.321-0.441-0.543-0.604-0.347-0.255-0.756-0.374-1.161-0.371Zm0.007 1.469c0.166 0 0.332 0.083 0.424 0.243 0.187 0.313 0.733 1.286 0.922 1.599 2.068 3.585 4.648 8.053 7.121 12.338L12.146 4.194c0.372-0.644 1.272-2.205 1.431-2.482v-0.002c0.092-0.161 0.258-0.241 0.424-0.241z m-2.5 3.916l8.534 8.863c-0.021-0.01-0.043-0.019-0.064-0.029L10.934 8.073c0.08-0.703 0.218-1.403 0.395-2.096zM9.9 8.086L5.214 22.528c-0.602 0-1.444 0-1.988 0-0.124-0.001-0.771 0.004-0.856-0.005-0.317-0.006-0.54-0.373-0.419-0.664 0.723-1.266 4.72-8.183 7.949-13.773Zm0.953 1.361l6.296 3.877-6.217-2.573A10.346 10.346 0 0 1 10.853 9.447z m-0.971 1.556l-0.788 10.691c-0.813 0.342-1.664 0.607-2.53 0.819z m1.302 1.026l4.013 1.383h-3.486a8.053 8.053 0 0 1-0.373-0.874c-0.057-0.17-0.108-0.339-0.154-0.509z m-0.625 0.961c0.018 0.049 0.036 0.099 0.055 0.148l0.942 7.159c-0.39 0.296-0.801 0.56-1.229 0.799z m2.107 1.32h2.672c0.203 0 0.331 0.219 0.229 0.395l-1.337 2.314a0.263 0.263 0 0 1-0.456 0h-0.003l-1.334-2.314c-0.102-0.176 0.025-0.395 0.229-0.395z m4.154 0.017a8.089 8.089 0 0 1 0.94 0.113 8.864 8.864 0 0 1 0.523 0.124l-3.21 2.786z m2.69 0.656a10.374 10.374 0 0 1 1.194 0.595l-6.641 3.585z m-7.782 0.291l1.743 3.018a8.037 8.037 0 0 1-0.569 0.757 8.826 8.826 0 0 1-0.364 0.39z m10.127 1.068c0.309 0.23 0.608 0.477 0.9 0.732l1.114 1.156L11.773 21.226c0.022-0.015 0.044-0.031 0.066-0.046z m2.765 3.033c0.429 0.743 0.958 1.656 1.348 2.332 0.069 0.113 0.059 0.118 0.083 0.155 0.107 0.259-0.052 0.569-0.315 0.648-0.034 0.002-0.065 0.016-0.104 0.014-0.006 0.006-0.146 0.004-0.24 0.004-4.269-0.001-10.151 0-15.576 0z"/></svg>