<svg fill="#099DFD" role="img" viewBox="0 0 70 24" xmlns="http://www.w3.org/2000/svg"><title>Agora</title><path d="M39.191 11.069a3.934 3.934 0 1 1 3.93-3.933 3.937 3.937 0 0 1-3.93 3.933m0-11.065a7.132 7.132 0 1 0 7.132 7.132 7.144 7.144 0 0 0-7.132-7.132m11.848 1.837l-0.088 0.088-0.096 0.091-0.064-0.115-0.055-0.096a3.407 3.407 0 0 0-2.532-1.757l-0.268-0.052v14.272l0.268-0.036a3.314 3.314 0 0 0 2.935-3.358v-3.742a3.966 3.966 0 0 1 3.526-3.909l0.212-0.024V0.008l-0.256 0.028a6.074 6.074 0 0 0-3.594 1.813M7.188 11.073a3.934 3.934 0 1 1 3.934-3.933 3.937 3.937 0 0 1-3.934 3.934m4.581-9.665l-0.06 0.08-0.06 0.08-0.08-0.06-0.076-0.06a7.132 7.132 0 1 0-4.305 12.823 7.056 7.056 0 0 0 4.305-1.449l0.076-0.056 0.08-0.064 0.059 0.084 0.06 0.079a3.402 3.402 0 0 0 2.289 1.374l0.263 0.036v-14.272l-0.263 0.036a3.407 3.407 0 0 0-2.289 1.369m51.039 9.664a3.934 3.934 0 1 1 3.938-3.933 3.937 3.937 0 0 1-3.934 3.934m6.865-11.034a3.422 3.422 0 0 0-2.292 1.369l-0.056 0.076-0.06 0.085-0.08-0.061-0.076-0.06a7.132 7.132 0 1 0-4.305 12.815 7.056 7.056 0 0 0 4.305-1.45l0.076-0.055 0.08-0.064 0.06 0.084 0.056 0.08a3.418 3.418 0 0 0 2.292 1.373L69.939 14.268V0.004ZM23.29 3.203a3.934 3.934 0 1 1-3.938 3.933 3.937 3.937 0 0 1 3.945-3.933M27.75 12.699a7.116 7.116 0 0 0 1.458-9.56 5.758 5.758 0 0 0-0.328-0.444 3.458 3.458 0 0 0 1.526-2.424l0.04-0.267H23.262A7.128 7.128 0 0 0 18.825 12.699a7.112 7.112 0 0 0-0.855 0.798l2.173 2.397a3.934 3.934 0 1 1 5.191 5.71l2.177 2.396a7.124 7.124 0 0 0 0.204-11.285"/></svg>