<svg fill="#7F2B7B" role="img" viewBox="0 0 19 24" xmlns="http://www.w3.org/2000/svg"><title>AIB</title><path d="M2.312 0.004c-0.045 0.012-0.08 0.051-0.097 0.107-0.127 0.402-0.601 3.018 0.728 3.129 4.032 0.334 3.338 3.608 6.284 4.215v1.07H7.133l-0.946 0.93h3.039v1.818H6.664c-2.01 0-2.849-1.379-2.519-2.427 0.284-0.903 2.21-2.604-0.131-3.334 0.743 2.027-2.43 1.776-2.43 4.894 0 2.435 2.803 3.326 5.08 3.326h6.371c2.277 0 5.08-0.892 5.08-3.326 0-3.118-3.173-2.868-2.429-4.894-2.341 0.73-0.413 2.431-0.129 3.334 0.33 1.049-0.511 2.428-2.522 2.427h-2.562V9.455h3.039l-0.946-0.93h-2.093V7.459c2.39-0.49 2.679-2.883 4.318-4.049 0.741-0.527 2.063-0.529 2.063-0.529s-1.829-1.356-2.026-1.502c-0.196-0.146-0.642-0.455-1.168-0.455-0.635 0-1.504 0.923-2.101 1.304-1.279 0.818-4.093 2.129-9.086-2.17-0.059-0.051-0.115-0.066-0.161-0.054z m11.477 1.758c0.306 0 0.555 0.248 0.555 0.554a0.554 0.554 0 0 1-0.555 0.555 0.554 0.554 0 0 1-0.555-0.555c0-0.307 0.248-0.555 0.555-0.554zM3.394 15.955L0.213 24H1.875l0.736-1.887h3.127L6.484 24h1.688l-3.014-7.625c-0.098-0.249-0.345-0.42-0.613-0.42z m5.17 0v0.367c0.047 0.02 0.096 0.043 0.139 0.063 0.202 0.143 0.346 0.49 0.346 0.898l0.002 6.43c0 0.158 0.127 0.287 0.285 0.287h1.824v-0.367c-0.048-0.021-0.097-0.043-0.141-0.063-0.202-0.143-0.346-0.492-0.345-0.9V16.242c0-0.158-0.127-0.287-0.285-0.287z m3.832 0V24h3.805c1.602 0 2.586-1.074 2.586-2.182 0-0.878-0.597-1.633-1.453-1.974 0.579-0.397 0.953-1.013 0.953-1.707 0-1.108-0.984-2.182-2.586-2.182z m1.516 1.389h1.85c0.534 0 0.967 0.433 0.966 0.966 0 0.518-0.408 0.939-0.92 0.963h-1.896z m-9.727 0.894l1 2.477H3.18z m9.727 2.443h2.383c0.534 0 0.936 0.429 0.935 0.963 0 0.533-0.435 0.967-0.968 0.967h-2.35Z"/></svg>