<svg fill="#00205B" role="img" viewBox="0 0 130 24" xmlns="http://www.w3.org/2000/svg"><title>Airbus</title><path d="M59.965 8.2c0-4.4-2.867-7.734-8.799-7.734h-11.934v23.001h5.6v-18.001H51.166c2.333 0 3.2 1.333 3.2 2.867 0 1.6-0.866 2.867-3.2 2.867H45.765l7.734 12.267h6.4s-5.267-8.267-5.2-8.267c3.2-0.734 5.267-3 5.266-7M29.898 0.466h5.601v23.001H29.898Zm-17.934 0L0.231 23.534h6.333l1.867-3.866h9.467l-2.334-4.867h-4.733l3.467-7.067h0.067l7.866 15.8h6.467L16.964 0.466Zm68.468 11.067c1.8-1 2.734-2.533 2.734-4.867 0-3.733-2.8-6.2-7.4-6.2h-13.134v23.001h13.601c4.734 0 7.867-2.533 7.866-6.467 0.066-2.666-1.467-4.667-3.667-5.467m-12.2-6.2h7.467c1.133 0 2 0.867 2 2s-0.867 2-2 2h-7.467z m7.667 13.334H68.233v-4.667h7.667c1.333 0 2.4 1 2.4 2.334 0 1.333-1.067 2.333-2.4 2.333m25.933-5.334c0 3.467-1.6 5.4-4.799 5.4-3.134 0-4.734-1.933-4.734-5.4V0.466h-5.734v12.467c0 7.134 3.733 11.067 10.534 11.067 6.801 0 10.534-3.933 10.534-11.067V0.466h-5.734v12.868z m20.734-3.666c-5.333-1.267-6.467-1.4-6.467-2.934 0-1.2 1.333-1.733 3.6-1.733 3 0 6.134 0.733 7.934 1.867l1.8-4.667c-2.4-1.333-5.734-2.2-9.734-2.2-5.933 0-9.267 2.933-9.267 6.933 0 4.267 2.467 6 8.201 7.201 4.467 1 5.4 1.6 5.4 2.866 0 1.334-1.2 1.934-3.667 1.933-3.533 0-6.667-0.867-9.2-2.266l-1.733 4.933c2.8 1.467 6.933 2.4 11.066 2.4 5.8 0 9.267-2.666 9.268-7.2 0.066-3.666-2.267-6-7.2-7.133"/></svg>