<svg fill="#F01428" role="img" viewBox="0 0 25 24" xmlns="http://www.w3.org/2000/svg"><title>Air Canada</title><path d="M12.903 17.077c0-0.808 0.346-0.924 1.155-0.462a55.54 55.54 0 0 0 2.769 1.501c0-0.461 0.462-0.808 1.27-0.578 0.808 0.231 1.615 0.346 1.614 0.346s-0.461-1.038-0.692-1.499c-0.346-0.808 0-1.27 0.346-1.384 0 0-0.461-0.346-0.808-0.578-0.692-0.461-0.577-1.038 0.116-1.27 0.924-0.461 2.193-0.922 2.193-0.922-0.346-0.231-0.808-0.809-0.347-1.616 0.461-0.692 1.27-1.731 1.27-1.73H19.597c-0.809 0-1.039-0.692-1.04-1.154 0 0-1.269 0.923-2.191 1.5-0.809 0.577-1.5 0-1.385-0.924a37.89 37.89 0 0 0 0.346-3c-0.462 0.462-1.27 0.347-1.73-0.345-0.578-1.154-1.154-2.54-1.154-2.54S11.865 3.807 11.289 4.963c-0.346 0.692-1.154 0.807-1.616 0.46a37.89 37.89 0 0 0 0.346 3.001c0.116 0.808-0.577 1.385-1.385 0.808-0.923-0.578-2.307-1.5-2.307-1.5 0 0.461-0.231 1.038-1.038 1.154H3.096s0.808 1.038 1.27 1.73c0.461 0.692 0 1.385-0.347 1.615 0 0 1.154 0.578 2.192 0.924 0.692 0.346 0.924 0.807 0.116 1.27-0.231 0.23-0.808 0.577-0.808 0.577 0.461 0.115 0.808 0.577 0.461 1.384-0.23 0.461-0.691 1.499-0.691 1.499s0.807-0.23 1.614-0.346c0.808-0.23 1.154 0.231 1.27 0.578 0 0 1.385-0.808 2.769-1.501 0.692-0.461 1.154-0.23 1.155 0.461v1.962c0 1.154-0.231 2.308-0.578 3.001-5.192-0.578-9.577-4.731-9.577-10.269 0-5.654 4.731-10.27 10.615-10.271 5.885 0 10.616 4.616 10.617 10.271 0 5.308-4.155 9.692-9.463 10.269v1.384C19.943 22.847 24.789 17.884 24.789 11.77 24.789 5.192 19.251 0 12.443 0 5.749 0 0.211 5.192 0.211 11.654c0 5.654 4.269 10.384 9.923 11.423 0.924 0.23 1.5 0.346 2.077 0.923 0.578-1.153 0.692-3.461 0.692-4.731Z"/></svg>