<svg fill="#000000" role="img" viewBox="0 0 27 24" xmlns="http://www.w3.org/2000/svg"><title>AirPlay Video</title><path d="M3.851 0.001c-1.324 0-1.78 0.137-2.282 0.411A2.752 2.752 0 0 0 0.428 1.552C0.155 2.055 0.018 2.51 0.018 3.878v10.266c0 1.324 0.137 1.781 0.41 2.282 0.274 0.502 0.64 0.867 1.141 1.141 0.456 0.274 0.913 0.41 2.282 0.411h3.056l1.279-1.506H3.395c-0.365 0.046-0.775-0.001-1.141-0.184-0.228-0.09-0.411-0.318-0.549-0.546-0.137-0.365-0.228-0.73-0.182-1.142V3.468c-0.045-0.365 0-0.775 0.182-1.14 0.091-0.228 0.32-0.41 0.549-0.547 0.365-0.137 0.73-0.229 1.141-0.184h20.074c0.365-0.045 0.775 0.002 1.142 0.184 0.228 0.092 0.409 0.319 0.546 0.547 0.137 0.364 0.228 0.73 0.182 1.14v11.179c0.045 0.364 0 0.775-0.182 1.141-0.091 0.228-0.318 0.41-0.546 0.546-0.365 0.137-0.73 0.228-1.142 0.183h-4.791l1.278 1.507 3.149-0.045c1.368 0 1.823-0.137 2.326-0.412a2.752 2.752 0 0 0 1.141-1.141c0.273-0.456 0.41-0.913 0.41-2.281V3.877c0-1.368-0.137-1.823-0.41-2.325a2.752 2.752 0 0 0-1.141-1.141c-0.502-0.274-0.957-0.411-2.326-0.411H3.851z m9.495 13.705a0.563 0.563 0 0 0-0.416 0.21l-7.983 9.17a0.522 0.522 0 0 0-0.139 0.366 0.528 0.528 0 0 0 0.549 0.548h16.058c0.137 0 0.275-0.045 0.366-0.136 0.228-0.183 0.229-0.549 0.047-0.778l-7.985-9.17-0.046-0.045a0.667 0.667 0 0 0-0.45-0.165z"/></svg>