<svg fill="#000000" role="img" viewBox="0 0 25 24" xmlns="http://www.w3.org/2000/svg"><title>AirPlay Audio</title><path d="M12.407 0a12.198 12.198 0 0 0-8.169 3.222c-4.958 4.544-5.246 12.267-0.703 17.224 0.207 0.248 0.455 0.454 0.703 0.703a0.32 0.32 0 0 0 0.414-0.041l0.539-0.619a0.325 0.325 0 0 0 0-0.455C0.853 16.027 0.561 9.211 4.61 4.874 8.658 0.537 15.434 0.248 19.771 4.297c4.337 4.048 4.625 10.82 0.577 15.158-0.206 0.206-0.371 0.413-0.577 0.579a0.325 0.325 0 0 0 0 0.454l0.538 0.62a0.376 0.376 0 0 0 0.453 0.041c4.958-4.586 5.246-12.268 0.703-17.225a12.165 12.165 0 0 0-9.058-3.924z m0.393 3.573A8.74 8.74 0 0 0 6.552 5.907c-3.511 3.263-3.717 8.756-0.453 12.267 0.124 0.125 0.247 0.289 0.412 0.414a0.324 0.324 0 0 0 0.454 0l0.538-0.62a0.325 0.325 0 0 0 0-0.453A7.375 7.375 0 0 1 5.189 12.186c0-4.007 3.262-7.271 7.268-7.271s7.271 3.303 7.271 7.311a7.318 7.318 0 0 1-2.273 5.289 0.324 0.324 0 0 0 0 0.454l0.538 0.62c0.124 0.123 0.33 0.165 0.454 0.04a8.732 8.732 0 0 0 0.414-12.309 8.625 8.625 0 0 0-6.062-2.747z m-0.271 3.367A5.278 5.278 0 0 0 8.783 8.426c-2.107 2.024-2.148 5.328-0.123 7.435l0.122 0.125a0.324 0.324 0 0 0 0.454 0l0.538-0.621a0.325 0.325 0 0 0 0-0.454 3.873 3.873 0 0 1-1.114-2.725 3.79 3.79 0 0 1 3.799-3.8 3.79 3.79 0 0 1 3.8 3.8c0 1.033-0.412 1.981-1.156 2.725a0.325 0.325 0 0 0 0 0.454l0.538 0.62a0.325 0.325 0 0 0 0.454 0c2.065-2.023 2.149-5.327 0.125-7.434a5.207 5.207 0 0 0-3.69-1.611z m0.007 7.864a0.608 0.608 0 0 0-0.409 0.148l-0.04 0.042-7.27 8.179a0.514 0.514 0 0 0 0.042 0.701 0.444 0.444 0 0 0 0.287 0.126h14.582a0.503 0.503 0 0 0 0.497-0.496 0.47 0.47 0 0 0-0.123-0.331l-7.19-8.179a0.508 0.508 0 0 0-0.375-0.19z"/></svg>