<svg fill="#E40000" role="img" viewBox="0 0 25 24" xmlns="http://www.w3.org/2000/svg"><title>Airtel</title><path d="M7.58 24c0.799 0 1.728-0.192 2.783-0.56 1.568-0.544 2.817-1.296 4.033-2.033l0.319-0.207a30.08 30.08 0 0 0 3.808-2.752 16.768 16.768 0 0 0 5.521-7.617c0.4-1.151 0.96-3.424 0.271-5.551a7.2 7.2 0 0 0-2.895-3.793c-0.16-0.127-1.92-1.487-5.264-1.487-3.04 0-6.384 1.12-9.92 3.359l-0.112 0.081-0.32 0.207a20.368 20.368 0 0 0-2.336 1.713C1.963 6.752 0.268 9.072 0.364 11.056c0.031 0.799 0.432 1.552 1.087 2.031a3.513 3.513 0 0 0 2.24 0.688c1.824 0 3.809-0.959 5.169-1.76l0.256-0.159 0.704-0.448 0.24-0.16c1.92-1.248 3.92-2.544 6.176-3.296a5.316 5.316 0 0 1 1.568-0.289 3.2 3.2 0 0 1 0.672 0.081 2.137 2.137 0 0 1 1.487 1.119c0.529 1.024 0.401 2.64-0.32 4.128a18.08 18.08 0 0 1-4.944 5.904 19.716 19.716 0 0 1-3.231 2.241l-0.096 0.031a9.746 9.746 0 0 1-1.488 0.704l-0.081 0.033-0.415 0.16c-2.256 0.577-0.88-1.345-0.88-1.345 0.48-0.543 0.991-1.04 1.536-1.519 0.32-0.272 0.64-0.56 0.943-0.864l0.065-0.064c0.4-0.384 0.944-0.913 0.912-1.664-0.048-0.991-1.088-1.6-2.08-1.632h-0.064c-0.961 0-1.84 0.528-2.432 0.991a7.355 7.355 0 0 0-1.617 1.761c-0.607 0.912-1.872 3.264-0.639 5.136 0.496 0.752 1.328 1.136 2.448 1.136z"/></svg>