<svg fill="#18BFFF" role="img" viewBox="0 0 29 24" xmlns="http://www.w3.org/2000/svg"><title>Airtable</title><path d="M14.49 0c-0.519 0-1.041 0.103-1.531 0.307L2.275 4.726c-0.602 0.249-0.586 1.086 0.015 1.334l10.742 4.256a3.906 3.906 0 0 0 2.936 0l10.742-4.256c0.602-0.234 0.602-1.086 0.015-1.334l-10.713-4.419a3.893 3.893 0 0 0-1.522-0.307zM28.135 7.284a0.704 0.704 0 0 0-0.266 0.054l-11.974 4.637a0.732 0.732 0 0 0-0.455 0.674v10.64a0.718 0.718 0 0 0 0.982 0.661L28.398 19.297a0.697 0.697 0 0 0 0.454-0.659V7.998a0.718 0.718 0 0 0-0.717-0.713zM0.956 7.331a0.77 0.77 0 0 0-0.574 0.227C0.25 7.691 0.147 7.851 0.147 8.042v9.993c0 0.529 0.616 0.881 1.087 0.646l7.499-3.595 0.367-0.176 3.551-1.718c0.557-0.263 0.514-1.086-0.073-1.306L1.204 7.382a0.682 0.682 0 0 0-0.248-0.053z"/></svg>