<svg fill="#23C8D2" role="img" viewBox="0 0 40 24" xmlns="http://www.w3.org/2000/svg"><title>Ajv</title><path d="M14.57 0a1614.979 1614.979 0 0 1 1.996 5.257l4.881 12.995c0.326 0.867-0.089 1.928-0.961 2.251-0.512 0.191-1.079 0.099-1.526-0.181l-2.396 2.337c1.335 1.277 3.271 1.704 5.135 1.011 2.64-0.977 3.934-3.981 2.95-6.604L18.326 0z m6.844 0.021l7.531 19.314 3.17 0.013L39.775 0.107l-3.962-0.018-5.261 14.554-5.177-14.602z m-13.693 0.022L0.225 19.285l3.879 0.017 1.8-4.796 6.776 0.032 1.78 4.812 3.881 0.019L11.055 0.059z m1.647 4.271L12.008 11.901l-5.465-0.026z"/></svg>