<svg fill="#0096D6" role="img" viewBox="0 0 23 24" xmlns="http://www.w3.org/2000/svg"><title>Akamai</title><path d="M12.555 0C5.884 0 0.461 5.38 0.461 12.008 0.461 18.635 5.87 24 12.555 24c0.617 0 0.645-0.357 0.086-0.529-4.935-1.506-8.535-6.069-8.536-11.463 0-5.466 3.672-10.071 8.694-11.52C13.315 0.345 13.172 0 12.555 0Zm2.324 1.822c-5.265 0-9.525 4.261-9.525 9.526 0 1.219 0.229 2.382 0.644 3.443 0.172 0.459 0.445 0.458 0.402 0.014-0.029-0.316-0.057-0.645-0.056-0.975 0-5.265 4.261-9.525 9.525-9.525 4.978 0 6.47 2.224 6.656 2.08 0.201-0.158-1.808-4.562-7.646-4.563z m0.469 4.071c-1.862 0.059-3.651 0.717-5.104 1.855-0.258 0.201-0.157 0.328 0.145 0.199 2.467-1.076 5.581-1.105 8.636-0.043 2.051 0.717 3.241 1.736 3.342 1.694 0.158-0.072-1.192-2.223-3.644-3.141-1.113-0.42-2.258-0.6-3.375-0.564z"/></svg>