<svg fill="#FFDF6F" role="img" viewBox="0 0 31 24" xmlns="http://www.w3.org/2000/svg"><title>Alby</title><path d="M15.601 8.632c-4.741 0-8.753 2.93-10.124 7.005-0.453 1.308 0.314 2.679 1.598 3.207 2.704 1.094 5.609 1.66 8.526 1.66s5.81-0.566 8.526-1.66c1.283-0.528 2.05-1.899 1.598-3.207-1.371-4.075-5.395-7.005-10.124-7.005z m-3.672 8.313c-1.371 0-2.477-0.88-2.478-1.975s1.119-1.974 2.478-1.974 2.477 0.88 2.477 1.974-1.107 1.974-2.477 1.975z m7.08 0c-1.358 0-2.465-0.88-2.465-1.975s1.094-1.974 2.465-1.974 2.477 0.88 2.477 1.974-1.107 1.974-2.477 1.975z m6.024-10.237l1.144-1.144c0.943 0.528 2.1 0.503 3.018-0.076 1.396-0.868 1.811-2.691 0.944-4.087a2.962 2.962 0 0 0-4.088-0.943 2.965 2.965 0 0 0-0.955 4.087l-1.157 1.157c-2.352-1.924-5.219-3.069-8.338-3.069s-6.049 1.17-8.426 3.144l-1.257-1.257c0.566-0.931 0.578-2.088 0.037-3.031a2.964 2.964 0 0 0-4.049-1.094 2.968 2.968 0 0 0-1.107 4.049 2.98 2.98 0 0 0 4.062 1.107l1.233 1.233c-2.427 2.44-4.15 5.797-4.817 9.557-0.352 2.088 0.717 4.137 2.628 5.018 3.672 1.748 7.684 2.654 11.746 2.641 4.024 0 7.998-0.88 11.633-2.591a4.647 4.647 0 0 0 2.716-4.238c0-0.252-0.013-0.516-0.063-0.78-0.679-3.823-2.427-7.231-4.904-9.683z m1.622 13.368a25.647 25.647 0 0 1-11.004 2.452c-3.848 0.013-7.646-0.843-11.104-2.502a3.149 3.149 0 0 1-1.811-3.396c1.295-7.244 6.64-12.5 12.865-12.5s11.595 5.282 12.878 12.538c0.239 1.408-0.503 2.792-1.824 3.408z"/></svg>