<svg fill="#0C0C0E" role="img" viewBox="0 0 29 24" xmlns="http://www.w3.org/2000/svg"><title>Alchemy</title><path d="M14.507 0a0.514 0.514 0 0 0-0.252 0.064 0.494 0.494 0 0 0-0.183 0.179L11.407 4.772a0.96 0.96 0 0 0-0.133 0.487c0 0.171 0.045 0.339 0.133 0.488l5.804 9.862a0.99 0.99 0 0 0 0.366 0.357 1.006 1.006 0 0 0 0.497 0.13h5.333a0.511 0.511 0 0 0 0.249-0.066 0.491 0.491 0 0 0 0.181-0.179 0.481 0.481 0 0 0 0.069-0.242 0.488 0.488 0 0 0-0.067-0.245L14.935 0.247a0.488 0.488 0 0 0-0.181-0.178 0.501 0.501 0 0 0-0.247-0.069zM9.834 7.904a0.501 0.501 0 0 0-0.248 0.066 0.496 0.496 0 0 0-0.183 0.179L0.501 23.265a0.479 0.479 0 0 0-0.002 0.49 0.491 0.491 0 0 0 0.183 0.179c0.076 0.043 0.162 0.067 0.25 0.066h5.334a1.007 1.007 0 0 0 0.497-0.13 0.983 0.983 0 0 0 0.364-0.358l5.807-9.861a0.961 0.961 0 0 0 0.133-0.488 0.969 0.969 0 0 0-0.133-0.49L10.266 8.149a0.496 0.496 0 0 0-0.183-0.179 0.51 0.51 0 0 0-0.249-0.066Zm3.53 10.344a1.013 1.013 0 0 0-0.499 0.131 0.983 0.983 0 0 0-0.364 0.357l-2.667 4.527a0.483 0.483 0 0 0-0.067 0.245 0.476 0.476 0 0 0 0.067 0.242 0.496 0.496 0 0 0 0.181 0.181 0.506 0.506 0 0 0 0.249 0.064h17.807a0.506 0.506 0 0 0 0.249-0.064 0.495 0.495 0 0 0 0.181-0.181 0.476 0.476 0 0 0 0.067-0.242 0.483 0.483 0 0 0-0.067-0.245L25.836 18.736a0.983 0.983 0 0 0-0.364-0.357 1.005 1.005 0 0 0-0.497-0.131z"/></svg>