<svg fill="#2490D7" role="img" viewBox="0 0 23 24" xmlns="http://www.w3.org/2000/svg"><title>Aldi Nord</title><path d="M13.312 2.057L5.586 13.73c-0.349 0.523-0.581 0.89-0.592 1.461-0.01 0.541 0.128 1.027 0.395 1.495h1.46a2.11 2.11 0 0 1-0.546-1.531c0.007-0.125 0.03-0.28 0.067-0.405h9.833a1.933 1.933 0 0 0-0.297-0.583H6.645a11.3 11.3 0 0 1 0.379-0.604l0.507-0.76h7.47l-0.408-0.614H7.94l6.702-10.132z m-3.502 0L2.592 12.963c-0.549 0.823-0.806 1.304-0.806 2.068 0 0.871 0.232 1.255 0.409 1.655h1.153a4.007 4.007 0 0 1-0.096-0.232 3.327 3.327 0 0 1-0.233-1.23c0.02-0.811 0.302-1.356 0.772-2.058l7.381-11.109z m6.34 14.629c0.338-0.352 0.58-0.927 0.547-1.532-0.028-0.517-0.343-1.026-0.72-1.591l-4.234-6.35 0.648-0.974 4.993 7.491c0.348 0.523 0.58 0.89 0.592 1.461a2.833 2.833 0 0 1-0.395 1.495h-1.43z m3.508 0c0.041-0.09 0.062-0.144 0.094-0.23 0.123-0.324 0.27-0.768 0.26-1.231-0.02-0.812-0.302-1.357-0.773-2.059l-5.745-8.58 0.665-0.996 6.25 9.373c0.548 0.824 0.805 1.303 0.805 2.068 0 0.871-0.232 1.255-0.409 1.655z m-17.53 0.457v4.8h18.743v-4.8z m3.588 0.571h1.672l1.873 3.658H7.604l-0.176-0.385H5.677L5.5 21.372H3.843z m3.761 0h1.67v2.601h1.435v1.057H9.477z m3.422 0h2.43c1.002 0 1.814 0.82 1.814 1.83a1.822 1.822 0 0 1-1.815 1.828h-2.43z m4.614 0h1.644v3.658h-1.644z m-2.974 1.034v1.59h0.352c0.41 0 0.743-0.356 0.743-0.795 0-0.44-0.332-0.795-0.743-0.795z m-7.996 0.465l-0.374 0.811h0.767z m0.84-6.189h7.767l0.614 0.922H6.776c0.088-0.145 0.607-0.922 0.607-0.922m4.035-10.967L3.988 13.24c-0.465 0.695-0.731 1.214-0.75 1.99-0.01 0.452 0.128 1.013 0.337 1.457h1.576a2.942 2.942 0 0 1-0.376-1.497c0.012-0.615 0.266-1.01 0.614-1.531l7.678-11.6z m6.431 14.629a2.94 2.94 0 0 0 0.376-1.497c-0.012-0.615-0.266-1.01-0.613-1.532l-5.079-7.625 0.827-1.247 5.652 8.454c0.465 0.695 0.732 1.214 0.75 1.99 0.011 0.452-0.128 1.013-0.338 1.457H17.85zM22.929 0H0.07v24h22.86z m-0.915 23.086H0.986V0.914h21.028z"/></svg>