<svg fill="#981E32" role="img" viewBox="0 0 25 24" xmlns="http://www.w3.org/2000/svg"><title>Alfa Romeo</title><path d="M14.039 5.405a0.216 0.216 0 1 0 0-0.432 0.216 0.216 0 1 0 0 0.432z m-9.306 1.576l-0.653 1.299-1.337-0.7-0.276 0.551a0.432 0.432 0 0 1 0.092-0.009c0.056 0 0.111 0.011 0.154 0.03l1.492 0.781 0.887-1.764z m15.723 0.432l0.311-0.168 0.509 0.979 0.35-0.19-0.51-0.979 0.297-0.161 0.734 1.41 0.349-0.19-1.014-1.948c-0.037 0.086-0.108 0.159-0.165 0.188l-1.451 0.787 1.007 1.936 0.35-0.189z m-7.287-2.008a0.216 0.216 0 1 0 0-0.432 0.216 0.216 0 1 0 0 0.432z m5.058 1.519l0.002 0.003c1.198 1.35 1.926 3.127 1.927 5.073 0 3.104-1.85 5.775-4.507 6.973-0.009 0.004-0.018 0.009-0.027 0.014l0.002-0.002 0.025-0.012c0.435-0.207 0.735-0.649 0.735-1.162 0-0.711-0.576-1.287-1.286-1.286l-1.355-0.001a0.166 0.166 0 1 1 0-0.332h2.288c1.077 0 1.95-0.873 1.949-1.949 0-1.077-0.873-1.95-1.949-1.95l-0.291 0h-1.918a0.166 0.166 0 1 1 0-0.331l1.686-0.002c1.78 0 3.223-1.443 3.223-3.223a3.207 3.207 0 0 0-0.531-1.772l-0.008-0.012a0.023 0.023 0 0 1-0.005-0.013c0-0.013 0.011-0.024 0.024-0.024 0.008 0 0.011 0.001 0.016 0.008z m-3.258 12.318a7.634 7.634 0 0 1-2.459 0.404c-1.148 0-2.237-0.253-3.214-0.707v-6.026h2.165a2.43 2.43 0 0 1-0.123-0.765c0-0.403 0.099-0.783 0.272-1.118H9.296v-5.969c0.977-0.454 2.066-0.707 3.214-0.707 1.335 0 2.59 0.342 3.682 0.944h0c0.156 0.099 0.26 0.273 0.26 0.471a0.557 0.557 0 0 1-0.557 0.558l-0.012-0.001h-0.179l-0.76 0.001c-0.268 0-0.415 0.079-0.507 0.159-0.266 0.23-0.175 0.503-0.719 0.503h-1.503c0.203 0.469 0.67 0.807 0.786 0.885h1.845a0.178 0.178 0 0 1 0.166 0.112 0.156 0.156 0 0 1 0.01 0.098 0.179 0.179 0 0 1-0.176 0.148H12.968c-0.144 0.075-0.583 0.349-0.785 0.966h3.39a0.401 0.401 0 1 1 0 0.801l-1.717 0c-1.184 0-2.143 0.96-2.143 2.143 0 1.184 0.96 2.143 2.143 2.143h2.141c0.092 0 0.166 0.077 0.166 0.168a0.164 0.164 0 0 1-0.166 0.164h-2.193c-0.867 0-1.57 0.703-1.57 1.57 0 0.867 0.703 1.57 1.57 1.57l0.829 0.002c0.419 0 0.763 0.351 0.763 0.767 0 0.34-0.205 0.579-0.427 0.716z m-7.556-8.212H4.925c0.237-1.872 1.151-3.532 2.488-4.729z m0 6.669c-1.351-1.209-2.269-2.891-2.495-4.786h2.495z m5.097-13.759c-4.451 0-8.06 3.608-8.06 8.06 0 4.451 3.608 8.06 8.06 8.06 4.451 0 8.06-3.609 8.059-8.06 0-4.451-3.608-8.06-8.059-8.06z m-0.301 2.01h1.902a0.144 0.144 0 0 0 0.144-0.144 0.145 0.145 0 0 0-0.144-0.145h-1.902a0.145 0.145 0 0 0-0.144 0.145c0 0.079 0.065 0.144 0.144 0.144z m0.072-0.545a0.216 0.216 0 1 0 0-0.432 0.216 0.216 0 1 0 0 0.432z m0.299 2.652l0.027-0.025v-0.001l-0.027-0.025c-0.421-0.306-0.608-0.684-0.721-0.978-0.078-0.202-0.165-0.368-0.292-0.489-0.132-0.126-0.229-0.193-0.419-0.193a0.971 0.971 0 0 0-0.231 0.029l-0.045 0.011 0.028 0.053c0.042 0.078 0.121 0.224 0.258 0.265a0.119 0.119 0 0 0 0.035 0.005 0.386 0.386 0 0 0 0.034-0.002c0.009-0.001 0.018-0.002 0.026-0.002 0.009 0 0.012 0.001 0.012 0.002 0.148 0.086 0.226 0.717 0.226 1.031 0 0.054-0.022 0.078-0.072 0.078-0.049 0-0.114-0.027-0.153-0.065-0.087-0.094-0.211-0.146-0.347-0.146-0.222 0-0.458 0.15-0.468 0.401v0.051c0.009 0.251 0.245 0.401 0.468 0.4 0.136 0 0.26-0.053 0.347-0.146 0.039-0.037 0.104-0.064 0.153-0.063 0.05 0 0.072 0.024 0.072 0.077 0 0.314-0.078 0.945-0.226 1.031 0 0-0.003 0.001-0.012 0.002a0.285 0.285 0 0 1-0.026-0.002 0.386 0.386 0 0 0-0.034-0.002 0.119 0.119 0 0 0-0.035 0.005c-0.137 0.042-0.215 0.187-0.258 0.265l-0.028 0.053 0.045 0.011a0.984 0.984 0 0 0 0.231 0.029c0.191 0 0.287-0.067 0.419-0.193 0.127-0.121 0.215-0.287 0.292-0.489 0.113-0.293 0.299-0.672 0.721-0.978z m-9.442 2.123l-0.122 0.803-0.7-0.528z m-1.274 0.637a0.246 0.246 0 0 1 0.097-0.019 0.252 0.252 0 0 1 0.124 0.031l0.002 0.002 1.527 1.174 0.077-0.51-0.31-0.234 0.186-1.224 0.364-0.122 0.077-0.509-2.031 0.683zM12.5 23.52C6.138 23.52 0.98 18.362 0.98 12S6.138 0.48 12.5 0.48C18.862 0.48 24.02 5.638 24.02 12c0 6.362-5.158 11.52-11.52 11.52zM12.5 0C5.873 0 0.5 5.373 0.5 12c0 6.627 5.373 12 12 12 6.628 0 12-5.373 12-12C24.5 5.373 19.128 0 12.5 0z m2.668 2.643c0.079-0.23 0.275-0.357 0.55-0.357 0.115 0 0.238 0.023 0.364 0.069 0.44 0.158 0.65 0.475 0.535 0.807-0.08 0.231-0.276 0.359-0.551 0.359-0.116 0-0.239-0.023-0.367-0.069-0.438-0.158-0.647-0.475-0.531-0.809z m0.392 1.217c0.195 0.07 0.389 0.106 0.576 0.105h0c0.475 0 0.84-0.233 0.975-0.624 0.095-0.276 0.052-0.57-0.122-0.828-0.166-0.246-0.438-0.448-0.768-0.566-0.19-0.068-0.382-0.103-0.568-0.103-0.479 0-0.845 0.232-0.98 0.62-0.192 0.555 0.181 1.142 0.887 1.396z m3.094 0.159l-0.183 1.456 0.023 0.021 1.394-0.327-0.766 1.037 0.375 0.351 1.162-1.533-0.431-0.402-1.216 0.272 0.148-1.267-0.452-0.422h0l-0.055-0.051c-0.005 0.092-0.043 0.184-0.095 0.234l-1.204 1.17 0.377 0.352z m3.625 7.482a0.54 0.54 0 0 1-0.092 0.008c-0.301 0-0.532-0.263-0.602-0.685-0.078-0.467 0.094-0.807 0.437-0.868a0.566 0.566 0 0 1 0.09-0.007c0.296 0 0.532 0.268 0.601 0.683 0.078 0.469-0.092 0.81-0.434 0.869z m0.849-0.942c-0.112-0.674-0.542-1.144-1.046-1.144a0.9 0.9 0 0 0-0.148 0.012c-0.568 0.099-0.889 0.717-0.764 1.469 0.114 0.686 0.535 1.147 1.046 1.147a0.883 0.883 0 0 0 0.151-0.013c0.566-0.098 0.887-0.717 0.761-1.471zM12.932 1.727h0c0.161 0 0.271 0.116 0.273 0.288 0.001 0.174-0.104 0.283-0.275 0.284l-0.99 0.009-0.005-0.572z m-1.495 1.523l0.511-0.004-0.004-0.532 0.857-0.008 0.375 0.529 0.569-0.005-0.43-0.57 0.053-0.025c0.219-0.105 0.343-0.323 0.34-0.598-0.004-0.435-0.29-0.715-0.729-0.716l-1.559 0.014v0l-0.09 0.001c0.053 0.065 0.087 0.15 0.093 0.221z m-3.384 0.324l-0.705 0.405-0.023-0.877z m-1.165-0.422l0.001 0.004 0.033 1.927 0.447-0.257-0.011-0.388 1.074-0.618 0.322 0.209 0.446-0.256-1.8-1.164-0.64 0.366a0.254 0.254 0 0 1 0.128 0.177zM4.248 5.574L5.457 6.735l0.351-0.381-0.446-0.427 0.744-0.808-0.288-0.277-0.745 0.807-0.344-0.33 1.072-1.162-0.289-0.277-1.486 1.613c0.078 0.005 0.164 0.036 0.22 0.08l0.002 0.001Z"/></svg>