<svg fill="#FF6A00" role="img" viewBox="0 0 39 24" xmlns="http://www.w3.org/2000/svg"><title>Alibaba Cloud</title><path d="M6.665 0h8.484L13.101 2.898 6.916 4.793a2.675 2.675 0 0 0-1.868 2.568v9.278a2.675 2.675 0 0 0 1.868 2.566l6.185 1.897 2.048 2.898H6.665A6.408 6.408 0 0 1 0.256 17.592V6.408a6.408 6.408 0 0 1 6.409-6.408m25.67 0h-8.484l2.048 2.898 6.185 1.895c1.147 0.364 1.876 1.426 1.868 2.568v9.278a2.675 2.675 0 0 1-1.868 2.566l-6.185 1.897-2.048 2.898h8.484A6.408 6.408 0 0 0 38.744 17.592V6.408a6.408 6.408 0 0 0-6.409-6.408m-6.425 13.382H13.089v-2.893h12.821Z"/></svg>