<svg fill="#FF6A00" role="img" viewBox="0 0 48 24" xmlns="http://www.w3.org/2000/svg"><title>Alibaba.com</title><path d="M28.782 20.44c-1.926 0.088-1.73-0.918-0.604-2.468 2.64-3.536 7.64-8.472 7.812-11.963 0.302-4.566-4.286-6.052-9.002-6.008-3.29 0.044-6.688 0.984-9.001 1.812C10.001 4.631 4.979 9.153 1.819 14.152-1.535 19.108-0.431 23.846 6.645 24c5.432-0.218 8.96-1.724 12.64-3.604 0.02 0-10.172 2.906-13.916 0.766l-0.016-0.004c-0.386-0.22-0.808-0.528-0.914-1.366-0.024-1.77 2.92-3.604 4.566-4.194v-3.066a10.748 10.748 0 0 0 3.91 0.732 10.756 10.756 0 0 0 6.944-2.529c0.074 0.26 0.112 0.556 0.088 0.893h0.742c0.096-0.788-0.344-1.412-0.344-1.411-0.666-1.058-1.83-1.04-1.83-1.04s0.63 0.274 1.058 0.932a9.906 9.906 0 0 1-9.33 1.863l2.42-2.399-0.672-1.748c4.87-1.704 8.96-3.014 15.623-4.17l-1.492-1.248 0.778-0.48c4.02 1.136 6.65 1.97 6.506 4.102a5.344 5.344 0 0 1-0.404 1.222c-1.168 2.316-4.652 6.18-6.058 7.795-0.93 1.07-1.84 2.12-2.49 3.124-0.67 1.006-1.08 1.942-1.102 2.84 0.086 7.008 20.667-3.28 24.647-6.006-5.886 2.532-12.226 4.978-19.217 5.436Z"/></svg>