<svg fill="#541BAE" role="img" viewBox="0 0 17 24" xmlns="http://www.w3.org/2000/svg"><title>Alienware</title><path d="M16.882 9.405c-0.065-0.649-0.13-1.362-0.259-2.01-0.13-0.649-0.259-1.297-0.519-1.946-0.13-0.324-0.26-0.649-0.39-0.908-0.13-0.324-0.324-0.584-0.454-0.909-0.195-0.259-0.389-0.584-0.583-0.843-0.195-0.26-0.454-0.519-0.714-0.713-0.454-0.389-0.973-0.778-1.557-1.103-0.584-0.324-1.232-0.584-1.881-0.713C9.877 0.065 9.228 0 8.514 0c-0.714 0-1.362 0.065-2.01 0.26C5.855 0.389 5.271 0.649 4.687 0.973c-0.649 0.324-1.168 0.714-1.686 1.167-0.26 0.195-0.454 0.454-0.714 0.714l-0.583 0.778c-0.13 0.324-0.324 0.584-0.454 0.908l-0.39 0.973c-0.195 0.649-0.389 1.297-0.519 1.946-0.13 0.649-0.195 1.297-0.259 2.011-0.065 0.714 0 1.297 0 1.946 0 0.649 0.065 1.297 0.195 2.011l0.194 0.973c0.065 0.324 0.195 0.649 0.325 0.973 0.454 1.232 1.168 2.4 1.881 3.503 0.389 0.584 0.778 1.103 1.167 1.621 0.389 0.519 0.778 1.103 1.233 1.557 0.195 0.259 0.454 0.454 0.713 0.714 0.259 0.195 0.519 0.389 0.843 0.583 0.26 0.195 0.584 0.324 0.908 0.454 0.13 0.065 0.324 0.13 0.455 0.13 0.195 0 0.324 0.065 0.519 0.065 0.195 0 0.324 0 0.518-0.065 0.195 0 0.324-0.065 0.454-0.13 0.324-0.13 0.649-0.26 0.909-0.454 0.26-0.195 0.584-0.389 0.843-0.583 0.26-0.195 0.519-0.454 0.713-0.714 0.454-0.519 0.843-1.038 1.233-1.557 0.389-0.519 0.778-1.103 1.167-1.621 0.714-1.103 1.427-2.27 1.881-3.503 0.13-0.324 0.26-0.649 0.325-0.973 0.065-0.324 0.195-0.649 0.194-0.973 0.13-0.649 0.195-1.297 0.195-2.011 0-0.649 0-1.362-0.065-2.011zM1.314 12.065s3.697 0.843 6.098 5.838c-0.065 0-6.422-0.13-6.098-5.838z m8.368 5.838c2.335-4.995 6.097-5.838 6.097-5.838 0.324 5.708-6.097 5.838-6.097 5.838z"/></svg>