<svg fill="#FF4747" role="img" viewBox="0 0 100 24" xmlns="http://www.w3.org/2000/svg"><title>AliExpress</title><path d="M21.76 0a0.091 0.091 0 0 0-0.091 0.087c0 1.636-1.322 2.963-2.946 2.963a0.087 0.087 0 0 0-0.087 0.09c0 0.05 0.041 0.087 0.087 0.087 1.628 0 2.946 1.331 2.946 2.967 0 0.05 0.041 0.087 0.091 0.087 0.045 0 0.087-0.041 0.087-0.087A2.963 2.963 0 0 1 24.793 3.24a0.087 0.087 0 0 0 0-0.178 2.959 2.959 0 0 1-2.946-2.967v-0.008a0.087 0.087 0 0 0-0.025-0.062 0.091 0.091 0 0 0-0.062-0.025z m-15.26 2.174L0.413 18.041h1.984l1.467-3.81h7.363l1.463 3.81h1.988L8.595 2.174z m9.355 0.008v15.859h2.029V2.182z m9.814 0v15.859h9.971v-2.074H27.74v-4.917H34.256v-1.971H27.74v-4.819h7.326v-2.074z m-18.124 2.446l2.885 7.521H4.661z m60.699 1.661a6.058 6.058 0 0 0-3.992 1.513V6.628h-2.029v11.417h2.025c0.008-1.971 0-3.946 0.008-5.921a4.004 4.004 0 0 1 3.988-3.793z m17.272 0.029c-0.219 0-0.434 0.012-0.652 0.042-1.302 0.128-2.504 0.723-3.112 1.557a2.847 2.847 0 0 0-0.579 1.922c0.029 0.826 0.273 1.475 0.963 2.049 0.76 0.607 1.736 0.826 2.715 1.071 1.285 0.277 1.76 0.393 2.256 0.768 0.331 0.289 0.55 0.525 0.562 1.116 0 1.033-0.913 1.537-1.735 1.694a3.678 3.678 0 0 1-3.694-1.421l-1.533 1.19c1.364 1.579 3.211 2.087 4.504 2.066 2.231-0.041 3.682-0.897 4.252-2.207 0.273-0.632 0.26-1.277 0.26-1.57a2.798 2.798 0 0 0-1.103-2.252c-0.942-0.731-2.409-0.942-2.628-1-1.806-0.322-2.719-0.81-2.88-1.409-0.178-0.793 0.421-1.446 1.227-1.698a3.14 3.14 0 0 1 3.541 1.144l1.517-1.02a4.818 4.818 0 0 0-3.881-2.042z m9.864 0c-0.215 0-0.434 0.012-0.649 0.042-1.306 0.128-2.508 0.723-3.111 1.557a2.847 2.847 0 0 0-0.579 1.922c0.025 0.826 0.269 1.475 0.963 2.049 0.756 0.607 1.736 0.826 2.715 1.071 1.281 0.277 1.76 0.393 2.252 0.768 0.335 0.289 0.554 0.525 0.562 1.116 0.004 1.033-0.913 1.537-1.736 1.694a3.678 3.678 0 0 1-3.694-1.421l-1.533 1.19c1.364 1.579 3.211 2.087 4.504 2.066 2.236-0.041 3.682-0.897 4.257-2.207 0.269-0.632 0.256-1.277 0.256-1.57a2.798 2.798 0 0 0-1.104-2.252c-0.938-0.731-2.409-0.942-2.628-1-1.806-0.322-2.719-0.81-2.876-1.409-0.178-0.793 0.417-1.446 1.228-1.698a3.14 3.14 0 0 1 3.541 1.144l1.516-1.02a4.822 4.822 0 0 0-3.884-2.042z m-40.661 0.008a6.037 6.037 0 0 0-5.868 4.616 5.393 5.393 0 0 0-0.169 1.351v11.707h2.029v-7.492c0.702 0.744 2.012 1.736 3.967 1.876a5.979 5.979 0 0 0 4.991-2.591 6.021 6.021 0 0 0-4.954-9.471z m19.851 0a5.983 5.983 0 0 0-5.322 8.595c1.054 2.19 3.351 3.595 5.835 3.443a6 6 0 0 0 4.181-2.108l-1.5-1.202a4 4 0 0 1-4.57 1.128 4.174 4.174 0 0 1-2.487-2.851h9.252l0.008-1.765a5.351 5.351 0 0 0-5.397-5.24z m-38.016 0.331l4.388 5.69-4.388 5.694h2.4l3.219-4.173 3.215 4.173h2.401l-4.388-5.694 4.388-5.694h-2.401l-3.215 4.173-3.219-4.173z m-15.806 0.062v11.322h2.025v-11.322z m34.021 1.529a3.967 3.967 0 0 1 3.925 4.103 3.979 3.979 0 0 1-3.566 4.124 3.975 3.975 0 0 1-4.273-3.054c-0.306-1.579 0-3.083 1.269-4.21a3.963 3.963 0 0 1 2.645-0.963z m19.793 0.062a3.401 3.401 0 0 1 3.384 3.12h-7.273a3.983 3.983 0 0 1 3.885-3.12z"/></svg>