<svg fill="#1677FF" role="img" viewBox="0 0 24 24" xmlns="http://www.w3.org/2000/svg"><title>Alipay</title><path d="M19.695 15.069c3.426 1.158 4.203 1.22 4.203 1.22V3.845c0-2.124-1.705-3.845-3.81-3.845H3.914C1.808 0 0.102 1.721 0.102 3.845v16.31c0 2.123 1.706 3.845 3.813 3.845h16.173c2.105 0 3.81-1.722 3.81-3.845v-0.157s-6.19-2.602-9.315-4.119c-2.096 2.602-4.8 4.181-7.607 4.181-4.75 0-6.361-4.19-4.112-6.949 0.49-0.602 1.324-1.175 2.617-1.497 2.025-0.502 5.247 0.313 8.266 1.317a16.796 16.796 0 0 0 1.341-3.302H5.781v-0.952h4.799V6.974H4.77v-0.953h5.81V3.59s0-0.409 0.411-0.409h2.347v2.84h5.744v0.951h-5.744v1.704h4.69a19.453 19.453 0 0 1-1.986 5.06c1.424 0.52 2.702 1.011 3.654 1.333m-13.81-2.032c-0.596 0.06-1.71 0.325-2.321 0.869-1.83 1.608-0.735 4.55 2.968 4.55 2.151 0 4.301-1.388 5.99-3.61-2.403-1.182-4.438-2.028-6.637-1.809"/></svg>