<svg fill="#FF5A00" role="img" viewBox="0 0 72 24" xmlns="http://www.w3.org/2000/svg"><title>Allegro</title><path d="M13.875 0a0.37 0.37 0 0 0-0.365 0.37v17.667a0.37 0.37 0 0 0 0.371 0.37h2.149a0.37 0.37 0 0 0 0.371-0.37h-0.006V0.37a0.37 0.37 0 0 0-0.37-0.37Zm5.049 0a0.37 0.37 0 0 0-0.371 0.37v17.667a0.37 0.37 0 0 0 0.371 0.37h2.149a0.37 0.37 0 0 0 0.368-0.37V0.37a0.37 0.37 0 0 0-0.365-0.37Zm37.82 5.303a5.577 5.577 0 0 0-3.932 1.588 4.998 4.998 0 0 0-1.585 3.744v7.405a0.37 0.37 0 0 0 0.367 0.367h2.15a0.37 0.37 0 0 0 0.37-0.37v-7.246c0-2.245 1.493-3.323 3.923-2.825a0.388 0.388 0 0 0 0.502-0.424v-1.478c0-0.388-0.042-0.537-0.299-0.621a8.342 8.342 0 0 0-1.496-0.14Zm-13.812 0a6.548 6.548 0 0 0-5.171 2.535 7.031 7.031 0 0 0 0 7.995 6.363 6.36 90 0 0 5.171 2.535 6.599 6.599 0 0 0 3.685-1.11v1.582c0 2.141-1.872 2.532-3.076 2.607a14.123 14.123 0 0 1-2.466-0.135c-0.328-0.051-0.561 0-0.561 0.356v1.899a0.325 0.325 0 0 0 0.34 0.307c2.786 0.239 4.658 0.191 6.067-0.615a4.589 4.589 0 0 0 2.06-2.612 8.742 8.742 0 0 0 0.35-2.61v-6.201h0.006a6.703 6.703 0 0 0-1.231-4.001 6.548 6.548 0 0 0-5.174-2.532Zm-36.59 0.006a8.668 8.668 0 0 0-4.374 1.164 0.275 0.275 0 0 0-0.135 0.239l0.114 1.881a0.334 0.334 0 0 0 0.552 0.194c1.872-1.155 4.12-1.37 5.267-0.791a2 2 0 0 1 1 1.806v0.275H5.64c-1.344 0-5.464 0.499-5.464 4.282v0.041a3.669 3.669 0 0 0 1.344 3.037 5.279 5.279 0 0 0 3.338 0.955h6.324a0.37 0.37 0 0 0 0.37-0.373v-7.494l-0.006 0.012c0-1.702-0.379-2.998-1.2-3.891-0.818-0.896-2.469-1.344-4.001-1.343z m23.011 0c-3.822 0-5.494 2.562-6.031 4.732a7.285 7.285 0 0 0-0.221 1.792 6.799 6.799 0 0 0 1.23 3.995 6.563 6.563 0 0 0 5.174 2.537c2.063 0.072 3.443-0.278 4.497-0.877a0.585 0.585 0 0 0 0.251-0.633v-1.666c0-0.34-0.206-0.499-0.499-0.293a6.524 6.524 0 0 1-4.159 0.997 3.404 3.404 0 0 1-3.338-3.033h8.494a0.349 0.349 0 0 0 0.35-0.347c0.149-2.323-0.523-7.205-5.748-7.204Zm36.068 0a6.548 6.548 0 0 0-5.168 2.532 6.793 6.793 0 0 0-1.231 4.001 6.793 6.793 0 0 0 1.231 3.997 6.548 6.548 0 0 0 10.345 0 6.799 6.799 0 0 0 1.23-4 6.799 6.799 0 0 0-1.23-3.998 6.548 6.548 0 0 0-5.174-2.532Zm-22.489 2.487c3.455 0 3.571 3.523 3.571 4.034 0 0.511-0.116 4.034-3.571 4.033-1.544 0-2.657-1.129-3.126-2.535a4.634 4.634 0 0 1 0-2.997c0.469-1.403 1.582-2.535 3.126-2.535z m-13.573 0.012a2.568 2.568 0 0 1 2.717 2.753H26.307a2.89 2.89 0 0 1 3.058-2.753z m36.062 0c1.538-0.036 2.657 1.129 3.129 2.532a4.637 4.637 0 0 1 0 2.994v0.006c-0.472 1.403-1.585 2.499-3.129 2.532-1.547 0.036-2.657-1.129-3.126-2.532a4.634 4.634 0 0 1 0-3c0.472-1.403 1.582-2.499 3.126-2.532zM5.813 12.361h2.956v3.72H5.037a2.308 2.308 0 0 1-1.326-0.465 1.469 1.469 0 0 1-0.627-1.231c0-0.675 0.457-2.024 2.729-2.024z"/></svg>