<svg fill="#1578D3" role="img" viewBox="0 0 27 24" xmlns="http://www.w3.org/2000/svg"><title>AlliedModders</title><path d="M0.963 0.001A0.676 0.676 0 0 0 0.317 0.674v22.65c0 0.374 0.302 0.676 0.675 0.676h9.129c0.374 0 0.676-0.302 0.675-0.676v-1.918l0.711 2.131a0.676 0.676 0 0 0 0.642 0.463h7.437a0.676 0.676 0 0 0 0.643-0.469l0.038-0.121c0.044 0.337 0.33 0.59 0.671 0.59h5.07c0.374 0 0.676-0.302 0.675-0.676V7.775a0.676 0.676 0 0 0-0.491-0.651l-4.731-1.351a0.676 0.676 0 0 0-0.818 0.407l-2.073 5.39v-6.097a0.676 0.676 0 0 0-0.487-0.651l-3.718-1.077a0.676 0.676 0 0 0-0.865 0.648v6.757l-3.086-8.218a0.676 0.676 0 0 0-0.448-0.412l-8.789-2.496a0.676 0.676 0 0 0-0.214-0.023z m0.029 0.673l8.789 2.496 4.395 11.703v-10.481L17.894 5.473v9.739l3.38-8.789 4.734 1.353v15.549H20.938v-2.705h2.026v-7.774l-3.379 10.481h-7.437L7.079 8.112v12.17h3.043v3.043H0.992z m0.676 0.897V22.647h7.778v-1.689H7.078a0.676 0.676 0 0 1-0.676-0.676V8.112c0.002-0.767 1.076-0.939 1.318-0.213l4.915 14.748h6.457l3.23-10.01c0.236-0.734 1.319-0.564 1.318 0.209v7.772c0 0.374-0.302 0.676-0.676 0.677h-1.351v1.352h3.719V8.283l-3.647-1.04-3.16 8.211c-0.269 0.698-1.305 0.505-1.307-0.242V5.981l-2.367-0.687v9.579c0 0.753-1.044 0.942-1.307 0.238L9.267 3.725z m6.086 10.708l2.444 7.328c-0.806-0.011-1.631 0-2.444 0zM22.289 17.146v2.797h-0.903Z"/></svg>