<svg fill="#FECC00" role="img" viewBox="0 0 17 24" xmlns="http://www.w3.org/2000/svg"><title>AlloCin&#233;</title><path d="M12.934 0.001a0.826 0.826 0 0 0-0.164 0.008l-3.423 0.543a2.635 2.635 0 0 1-2.189 3.01 2.629 2.629 0 0 1-3.01-2.185l-3.417 0.538a0.818 0.818 0 0 0-0.677 0.931l3.24 20.467a0.818 0.818 0 0 0 0.931 0.677l3.423-0.543a2.635 2.635 0 0 1 2.189-3.01 2.629 2.629 0 0 1 3.01 2.185l3.422-0.543a0.818 0.818 0 0 0 0.677-0.93L13.7 0.685a0.816 0.816 0 0 0-0.767-0.685z m-3.22 6.534c0.066 0 0.128 0.005 0.185 0.017 0.423 0.09 0.975 0.6 1.315 0.955 0.178 0.187 0.192 0.519 0.048 0.73l-1.228 1.795a0.89 0.89 0 0 1-0.437 0.283c-0.504 0.125-1.248-0.95-1.771 1.507-0.524 2.458 0.59 1.776 1.003 2.098a0.828 0.828 0 0 1 0.283 0.437l0.394 2.14a0.613 0.613 0 0 1-0.341 0.649c-0.456 0.182-1.167 0.427-1.589 0.336-0.907-0.192-2.342-2.4-1.57-6.044 0.725-3.415 2.71-4.89 3.708-4.903Z"/></svg>