<svg fill="#142800" role="img" viewBox="0 0 32 24" xmlns="http://www.w3.org/2000/svg"><title>AllTrails</title><path d="M25.619 7.413c-0.844-1.612-1.497-2.38-2.344-2.38-0.945 0-1.361 0.5-1.931 1.394-0.462 0.6-0.905 1.422-1.646 1.34-0.781-0.081-1.233-1.927-1.822-3.473-0.808-2.107-1.273-4.294-2.617-4.294-0.767 0-1.436 0.698-2.475 2.258l-10.731 16.457c-1.233 2.059-2.266 3.496-0.959 4.845 1.534 1.476 5.139-1.108 7.605-2.667 2.467-1.558 4.989-3.077 8.551-2.994 4.796 0.11 7.126 4.923 10.032 5.838 1.973 0.63 3.783-0.096 4.166-2.133 0.225-1.12-0.167-2.207-0.707-3.366z m-0.328 9.652c-0.973 0.724-2.331-0.438-3.207-0.93-0.931-0.518-2.508-1.763-5.332-1.722-2.301 0.027-3.549 0.888-4.918 1.819-2.973 2.023-5.661 4.375-6.428 3.158-0.494-0.78 0.835-2.339 3.96-7.206 2.221-3.459 3.784-6.222 4.893-6.222 1.226 0 1.293 1.202 1.48 2.434 0.352 1.962 1.311 2.984 2.557 3.146 1.396 0.189 2.604-0.982 3.563-0.971 0.896 0.018 1.487 1.316 2.226 2.669 0.937 1.682 1.916 3.291 1.206 3.825z"/></svg>