<svg fill="#000000" role="img" viewBox="0 0 25 24" xmlns="http://www.w3.org/2000/svg"><title>AlmaLinux</title><path d="M24.755 15.201c0.081 1.084-0.682 1.969-1.727 2.049a1.839 1.839 0 0 1-1.97-1.687c-0.08-1.085 0.644-1.889 1.728-2.01 1.045-0.08 1.889 0.603 1.969 1.648z m-12.897 5.063c-0.964 0-1.768 0.803-1.768 1.848 0 1.165 0.763 1.888 1.928 1.888 0.924-0.041 1.728-0.884 1.728-1.848 0-1.004-0.924-1.888-1.888-1.888z m1.084-9.885c-0.04-0.884-0.08-1.768 0.081-2.612 0.159-0.964 0.321-1.928 0.924-2.732 0.722-1.004 1.848-0.964 2.451 0.121 0.321 0.522 0.441 1.085 0.481 1.688 0 0.362 0.161 0.441 0.483 0.401 0.964-0.16 1.929-0.16 2.852 0.201 0.121 0.04 0.241 0.121 0.403 0 0.321-0.282 0.402-1.688 0.2-2.049-0.362-0.644-0.924-0.562-1.487-0.562-0.643 0.04-1.206-0.161-1.647-0.685-0.402-0.481-0.522-1.083-0.602-1.685-0.041-0.282-0.081-0.523-0.322-0.725-0.562-0.562-1.848-0.441-2.531 0.121-2.611 2.089-3.054 5.586-1.567 8.357 0.041 0.121 0.121 0.241 0.281 0.161z m8.157 3.737c0.362-0.522 0.884-0.763 1.446-1.004a0.994 0.994 0 0 0 0.602-0.482c0.362-0.684-0.08-1.849-0.763-2.412-2.651-2.05-6.067-1.647-8.357 0.443-0.121 0.08-0.16 0.2-0.08 0.321 0.803-0.241 1.647-0.482 2.531-0.522 0.925-0.082 1.888-0.161 2.813 0.241 1.165 0.482 1.366 1.567 0.482 2.411-0.402 0.402-0.925 0.682-1.487 0.843-0.322 0.082-0.362 0.241-0.241 0.563 0.362 0.884 0.603 1.808 0.482 2.812-0.041 0.16-0.081 0.281 0.08 0.402 0.362 0.241 1.728 0 2.01-0.281 0.522-0.482 0.321-1.045 0.2-1.567-0.16-0.644-0.08-1.245 0.282-1.768z m-7.353-2.089c-0.121-0.081-0.201-0.121-0.322 0 0.482 0.723 0.925 1.487 1.286 2.289 0.321 0.885 0.682 1.768 0.562 2.773-0.121 1.206-1.124 1.727-2.169 1.125-0.522-0.281-0.925-0.684-1.246-1.165-0.2-0.282-0.402-0.282-0.643-0.081-0.763 0.644-1.566 1.126-2.571 1.287-0.161 0-0.322 0-0.402 0.16-0.121 0.402 0.482 1.647 0.844 1.849 0.603 0.362 1.085 0 1.567-0.282 0.562-0.321 1.125-0.441 1.768-0.241 0.603 0.201 1.004 0.644 1.366 1.125 0.161 0.2 0.322 0.361 0.643 0.442 0.763 0.201 1.808-0.603 2.13-1.406 1.206-3.094-0.16-6.268-2.813-7.875z m-2.612 2.491c0.482-0.684 0.844-1.447 1.005-2.25-0.16-0.041-0.201 0.041-0.322 0.08-0.924 0.964-1.888 1.889-3.134 2.531-0.482 0.241-1.004 0.442-1.567 0.443-0.884 0-1.406-0.563-1.326-1.447a2.983 2.983 0 0 1 0.804-1.889c0.241-0.281 0.241-0.441-0.041-0.683-0.803-0.562-1.526-1.246-1.888-2.17-0.08-0.281-0.281-0.281-0.521-0.16a4.386 4.386 0 0 0-0.444 0.241c-1.044 0.644-1.165 1.447-0.281 2.329 0.644 0.644 0.964 1.367 0.724 2.251-0.121 0.442-0.362 0.763-0.644 1.125a0.971 0.971 0 0 0-0.24 0.804c0.081 0.763 0.844 1.526 1.768 1.607 2.572 0.241 4.661-0.644 6.107-2.812z m-4.781-5.264c1.406 1.206 3.134 1.487 4.942 1.407 0.16 0 0.322 0 0.361-0.121 0.041-0.201-0.16-0.201-0.281-0.241-0.844-0.362-1.728-0.644-2.49-1.165S7.237 8.169 6.916 7.163c-0.241-0.763 0.08-1.446 0.843-1.686 0.684-0.241 1.366-0.241 2.009 0 0.402 0.16 0.562 0.08 0.643-0.362 0.121-0.763 0.362-1.487 0.844-2.13 0.562-0.803 0.562-0.884-0.362-1.406-0.041 0-0.041-0.041-0.081-0.041-0.884-0.481-1.567-0.2-1.888 0.724-0.482 1.406-1.407 1.928-2.893 1.647-0.2-0.041-0.402-0.081-0.482-0.08-0.763 0.121-1.206 0.562-1.325 1.164-0.161 1.849 0.803 3.174 2.129 4.261z m-2.371 3.737c-0.081-0.964-1.045-1.688-2.089-1.567-0.925 0.081-1.728 1.044-1.648 2.009 0.082 1.004 1.045 1.808 2.01 1.687 1.165-0.081 1.768-1.206 1.726-2.129z m15.51-8.478c0.963-0.081 1.768-1.004 1.687-1.969-0.08-1.004-1.044-1.808-2.049-1.727-1.045 0.081-1.768 1.004-1.688 2.008s1.004 1.768 2.05 1.688z m-12.536-0.844c1.085-0.16 1.808-1.045 1.687-2.089C8.523 0.656 7.558-0.108 6.554 0.013c-1.085 0.121-1.728 0.964-1.607 2.13 0.121 0.884 1.084 1.647 2.009 1.526z"/></svg>