<svg fill="#0D597F" role="img" viewBox="0 0 28 24" xmlns="http://www.w3.org/2000/svg"><title>Alpine Linux</title><path d="M7.07 0L0.145 12l6.925 12h13.86L27.855 12 20.93 0H7.07zM11.65 6.365L14.762 9.575l1.845 1.842 0.002-0.002 2.783 2.728c-0.231 0.162-0.446 0.291-0.65 0.397a4.337 4.337 0 0 1-0.573 0.251 3.12 3.12 0 0 1-0.49 0.128c-0.151 0.027-0.289 0.039-0.414 0.039-0.15 0-0.279-0.016-0.39-0.039a1.521 1.521 0 0 1-0.277-0.083 1.097 1.097 0 0 1-0.231-0.131l-1.226-1.261-3.509-3.511-1.27 1.216-3.545 3.547a1.125 1.125 0 0 1-0.231 0.128 1.471 1.471 0 0 1-0.273 0.084c-0.111 0.023-0.241 0.038-0.391 0.039-0.125 0-0.262-0.01-0.413-0.036a3.117 3.117 0 0 1-0.491-0.132 4.328 4.328 0 0 1-0.573-0.25 6.036 6.036 0 0 1-0.65-0.396l7.855-7.768z m5.45 0.907l5.287 5.309 1.596 1.562a6.05 6.05 0 0 1-0.651 0.397 4.307 4.307 0 0 1-0.571 0.251 3.114 3.114 0 0 1-0.492 0.128c-0.15 0.027-0.29 0.039-0.415 0.039-0.149 0-0.278-0.016-0.389-0.039a1.484 1.484 0 0 1-0.445-0.169c-0.038-0.023-0.058-0.042-0.061-0.046l-1.423-1.406-2.437-2.438-0.386 0.386L14.912 9.46l2.189-2.19z m-6.888 4.757v2.92a2.457 2.457 0 0 1-0.411-0.041 3.193 3.193 0 0 1-0.488-0.133 4.281 4.281 0 0 1-0.563-0.248 6.024 6.024 0 0 1-0.641-0.392l2.102-2.107Z"/></svg>