<svg fill="#0078C0" role="img" viewBox="0 0 80 24" xmlns="http://www.w3.org/2000/svg"><title>Alteryx</title><path d="M8.088 15.953l-0.046 0.033-0.047 0.026a5.916 5.916 0 0 1-3.106 0.965C3.39 16.941 2.844 16.414 2.811 14.965c0.033-1.66 0.586-2.174 2.46-2.29l2.586-0.122 0.115-0.006h0.112V15.953z m4.707 0.817a0.609 0.609 0 0 0-0.6-0.452 1.219 1.219 0 0 0-0.237 0.03c-0.399 0.099-0.623 0.125-0.929 0.148-0.586 0.026-0.692-0.201-0.725-0.856v-8.999a0.791 0.791 0 0 0-0.289-0.541l-0.056-0.039c-0.02-0.013-0.04-0.033-0.066-0.046-0.488-0.287-1.298-0.517-1.99-0.692l-0.049-0.016a11.321 11.321 0 0 0-3.815-0.238c-0.395 0.04-1.456 0.214-1.811 0.336-0.105 0.033-0.438 0.194-0.452 0.511 0.007 0.165 0.191 0.692 0.191 0.692 0.122 0.366 0.25 0.455 0.481 0.504 0.188 0.02 0.593-0.066 0.86-0.109a8.979 8.979 0 0 1 3.037-0.105c1.176 0.181 1.627 0.544 1.627 0.543v3.492l-0.102 0.003-2.51 0.066c-3.36 0.105-4.908 1.436-4.888 4.117-0.003 1.219 0.379 2.197 1.103 2.827 0.675 0.593 1.667 0.909 2.86 0.909h0.003a5.699 5.699 0 0 0 3.696-1.331l0.108-0.086 0.056 0.126a2.013 2.013 0 0 0 1.394 1.169 3.861 3.861 0 0 0 1.357 0.102c0.385-0.053 0.893-0.122 1.459-0.389 0.313-0.148 0.534-0.329 0.517-0.658a6.71 6.71 0 0 0-0.23-1.018z m37.093 2.022h-1.218a0.583 0.583 0 0 1-0.445-0.168c-0.099-0.115-0.142-0.27-0.142-0.481v-11.562c-0.01-0.217 0.046-0.376 0.158-0.481 0.099-0.099 0.24-0.142 0.435-0.141h1.104c0.208 0 0.346 0.043 0.454 0.132 0.109 0.092 0.168 0.247 0.165 0.428l0.013 0.309 0.01 0.261 0.175-0.191a3.633 3.633 0 0 1 3.452-1.143c0.231 0.043 0.316 0.273 0.296 0.395 0 0.063 0 0.109-0.006 0.151l-0.185 1.166a0.382 0.382 0 0 1-0.352 0.353 2.036 2.036 0 0 1-0.313-0.033c-0.132-0.02-0.28-0.046-0.544-0.046-0.856 0-1.808 0.563-2.444 1.443l-0.02 0.026v8.933c0 0.198-0.049 0.356-0.148 0.468a0.573 0.573 0 0 1-0.445 0.181z m-7.533-7.823h-5.606c0.079-2.826 1.156-3.986 2.931-3.986 1.726 0 2.701 0.949 2.701 3.166 0 0.175 0 0.616-0.026 0.823z m-2.622-5.784c-3.139 0-5.501 2.184-5.501 7.148 0 4.552 2.131 6.786 6.143 6.785 0.636 0 1.39-0.072 2.108-0.22 0.115-0.02 0.231-0.049 0.346-0.076a8.07 8.07 0 0 0 1.087-0.395c0.25-0.096 0.445-0.29 0.458-0.531a11.002 11.002 0 0 0-0.263-1.087c-0.099-0.24-0.316-0.392-0.537-0.379-0.076 0-1.153 0.234-1.219 0.254a7.925 7.925 0 0 1-1.93 0.254c-2.853 0-3.702-1.364-3.703-4.17v-0.205h7.478a0.471 0.471 0 0 0 0.421-0.411l0.007-0.099c0.026-0.488 0.043-1.005 0.043-1.417 0-3.449-1.673-5.452-4.941-5.451z m17.692 18.815h-0.082c-0.441 0-0.804-0.033-1.16-0.102-0.221-0.04-0.303-0.326-0.257-0.715 0 0 0.026-0.415 0.089-0.708 0.056-0.296 0.198-0.435 0.356-0.435h0.046l0.122 0.007c0.069 0.003 0.171 0.016 0.267 0.026 0.217 0.023 0.438 0.046 0.612 0.046 1.456-0.016 2.243-0.55 2.8-1.9l0.672-1.641 0.066-0.174 0.023-0.073-0.023-0.076-4.49-11.871a0.438 0.438 0 0 1-0.026-0.155 0.296 0.296 0 0 1 0.066-0.198 0.296 0.296 0 0 1 0.214-0.089h1.703c0.247 0 0.428 0.132 0.484 0.323l2.958 8.499 0.198 0.573 0.201-0.57 3.053-8.439a0.501 0.501 0 0 1 0.481-0.389h0.013l0.047 0.003h1.409c0.115 0 0.198 0.023 0.257 0.07a0.231 0.231 0 0 1 0.079 0.181 0.613 0.613 0 0 1-0.042 0.217l-5.024 13.473c-1.094 3.001-2.477 4.117-5.112 4.117z m20.235-5.237a0.735 0.735 0 0 1-0.672-0.389l-2.681-4.144-0.096-0.138-0.089 0.138-2.681 4.137a0.744 0.744 0 0 1-0.679 0.396l-0.042-0.007h-1.433a0.435 0.435 0 0 1-0.274-0.079 0.316 0.316 0 0 1-0.112-0.26c0-0.119 0.043-0.244 0.112-0.346l3.881-5.893 0.046-0.059-0.046-0.06-3.578-5.514a0.501 0.501 0 0 1-0.089-0.27c0-0.231 0.211-0.372 0.415-0.372h1.344c0.293 0 0.52 0.125 0.62 0.323l2.516 3.821 0.089 0.131 0.086-0.131 2.503-3.798a0.659 0.659 0 0 1 0.606-0.346h1.38c0.198 0 0.418 0.142 0.419 0.372 0 0.082-0.033 0.168-0.099 0.264l-3.574 5.52-0.043 0.06 0.043 0.059 3.87 5.88a0.606 0.606 0 0 1 0.126 0.355 0.326 0.326 0 0 1-0.109 0.264 0.455 0.455 0 0 1-0.28 0.079h-1.426l-0.053 0.007z m-58.116 0.033c-0.632 0-1.242-0.102-1.772-0.297a2.731 2.731 0 0 1-1.143-0.711c-0.764-0.84-0.83-1.884-0.84-3.262v-13.175c0-0.076 0.033-0.155 0.082-0.215a4.019 4.019 0 0 1 1.736-1.12c0.043-0.016 0.072-0.016 0.109-0.016a0.461 0.461 0 0 1 0.326 0.132c0.105 0.109 0.158 0.264 0.155 0.461v14.016c0.007 0.728 0.181 1.308 0.501 1.67 0.273 0.303 0.718 0.455 1.281 0.454 0.138 0 0.29-0.01 0.474-0.032a6.884 6.884 0 0 0 1.068-0.257 0.514 0.514 0 0 1 0.207-0.043c0.224 0 0.418 0.158 0.494 0.392 0 0 0.198 0.672 0.224 0.988 0.016 0.277-0.231 0.461-0.458 0.54a7.115 7.115 0 0 1-2.444 0.475z m12.31-2.01c-0.072-0.237-0.267-0.395-0.498-0.395a0.56 0.56 0 0 0-0.207 0.043 5.468 5.468 0 0 1-1.482 0.29l-0.06 0.006c-0.58 0-1.015-0.158-1.291-0.461-0.264-0.287-0.448-0.758-0.461-1.631v-0.046l0.069-6.937h2.839a0.609 0.609 0 0 0 0.396-0.108c0.142-0.112 0.165-0.296 0.158-0.396v-0.873c0.003-0.188-0.049-0.323-0.158-0.408a0.609 0.609 0 0 0-0.372-0.099h-2.863V1.453c0-0.204-0.049-0.356-0.155-0.465a0.481 0.481 0 0 0-0.326-0.132c-0.033 0-0.066 0-0.118 0.017-0.165 0.063-0.613 0.217-1.101 0.56a4.325 4.325 0 0 0-0.514 0.451 0.336 0.336 0 0 0-0.075 0.208l-0.066 3.633h-1.469a0.553 0.553 0 0 0-0.409 0.155 0.593 0.593 0 0 0-0.138 0.421v0.798c0 0.175-0.003 0.323 0.128 0.467 0.152 0.138 0.296 0.128 0.468 0.132h1.377l-0.132 6.529 0.004 0.28c0.007 1.383 0.072 2.431 0.84 3.277 0.586 0.639 1.657 1.005 2.931 1.012 1.15 0 2.042-0.306 2.454-0.475 0.217-0.092 0.464-0.27 0.455-0.543 0-0.26-0.224-0.991-0.224-0.992z"/></svg>