<svg fill="#E9568E" role="img" viewBox="0 0 33 24" xmlns="http://www.w3.org/2000/svg"><title>Alwaysdata</title><path d="M31.62 16.451c1.726 1.727 1.726 4.529 0 6.255-1.726 1.726-4.523 1.724-6.25-0.002-1.313-1.313-1.624-3.244-0.941-4.853L17.827 7.824a3.971 3.971 0 0 1-1.047-0.009l-6.301 8.482c0.351 1.03 0.128 2.214-0.694 3.033-1.149 1.151-3.018 1.149-4.169-0.002-0.894-0.894-1.083-2.219-0.585-3.305l-2.739-4.013c-0.08 0.01-0.159 0.024-0.242 0.024-1.084 0-1.964-0.878-1.964-1.964 0-1.084 0.88-1.964 1.964-1.964 1.086 0 1.964 0.88 1.964 1.964 0 0.344-0.096 0.663-0.251 0.945l2.835 3.494c0.706-0.287 1.462-0.261 2.12-0.018l5.276-8.498c-0.938-1.514-0.755-3.527 0.56-4.842 1.534-1.534 4.023-1.534 5.555-0.001 1.202 1.202 1.459 2.993 0.776 4.451l7.167 9.581c1.274-0.128 2.592 0.294 3.568 1.269z"/></svg>