<svg fill="#002B56" role="img" viewBox="0 0 48 24" xmlns="http://www.w3.org/2000/svg"><title>ALX</title><path d="M27.396 0l-5.692 2.547V24h5.692V0Zm6.311 2.815c-0.708 0.706-3.117 3.112-3.876 3.879 1.645 1.668 3.302 3.325 4.954 4.985l-4.958 4.959 3.878 3.878c1.655-1.651 3.306-3.306 4.959-4.958l4.985 4.958c1.294-1.292 2.586-2.586 3.878-3.882-1.663-1.649-3.323-3.302-4.985-4.955L47.527 6.694l-3.878-3.879-4.985 4.986-4.957-4.986ZM12.544 6.65v0.749C6.856 4.902 0.476 9.066 0.473 15.277c0.002 6.213 6.384 10.378 12.071 7.878v0.845H18.236V6.65H12.544ZM9.08 11.809c1.917 0 3.368 1.453 3.464 3.282v0.372a3.47 3.47 0 0 1-3.464 3.284c-1.855 0-3.47-1.553-3.471-3.47s1.553-3.47 3.471-3.47v0.002Z"/></svg>