<svg fill="#DD344C" role="img" viewBox="0 0 26 24" xmlns="http://www.w3.org/2000/svg"><title>Amazon Cognito</title><path d="M2.368 10.065h5.956v-0.916h-5.955z m20.498 6.656l0.648 0.647-3.403 3.398a0.459 0.459 0 0 1-0.647 0l-1.713-1.709 0.649-0.646 1.388 1.385z m2.108 2.521a4.362 4.362 0 0 1-2.464 3.426c-0.741 0.351-1.562 0.485-2.381 0.384a4.308 4.308 0 0 1-2.172-0.906 4.351 4.351 0 0 1-1.623-3.958 4.372 4.372 0 0 1 2.334-3.36 4.308 4.308 0 0 1 2.511-0.449 4.351 4.351 0 0 1 3.35 2.348c0.397 0.778 0.55 1.648 0.445 2.515m0.373-2.93a5.264 5.264 0 0 0-9.923 1.766 5.266 5.266 0 0 0 1.963 4.784 5.255 5.255 0 0 0 5.516 0.632 5.331 5.331 0 0 0 1.755-1.343 5.277 5.277 0 0 0 1.226-2.799 5.277 5.277 0 0 0-0.538-3.04M6.95 12.81h1.832v-0.915H6.95z m-4.582 0h3.665v-0.915H2.368zM1.972 0.914h20.494c0.538 0 0.978 0.534 0.978 1.19v3.385h-1.374V3.202a0.458 0.458 0 0 0-0.459-0.458H11.072a0.458 0.458 0 0 0-0.457 0.458v2.287H0.992V2.104c0-0.646 0.449-1.19 0.98-1.19zM16.349 5.355c1.064 0 1.93 0.855 1.93 1.907a1.895 1.895 0 0 1-0.998 1.666 1.96 1.96 0 0 1-1.867 0 1.895 1.895 0 0 1-0.994-1.665c0-1.052 0.865-1.907 1.93-1.908zM0.992 15.28V6.404h9.623v7.778c0 0.253 0.205 0.458 0.457 0.458h4.79v-0.916h-3.826A4.162 4.162 0 0 1 15.046 9.806c0.81 0.379 1.777 0.382 2.6 0a4.2 4.2 0 0 1 2.412 1.848l0.784-0.473a5.126 5.126 0 0 0-2.376-2.047 2.8 2.8 0 0 0 0.728-1.87c0-1.556-1.277-2.822-2.846-2.822s-2.845 1.265-2.845 2.822c0 0.7 0.266 1.358 0.721 1.866a5.062 5.062 0 0 0-2.693 2.672V3.659h9.621v7.32h0.917V6.404h1.374v6.863h0.917V2.104c0-1.16-0.851-2.104-1.895-2.104H1.971C0.928 0 0.077 0.944 0.077 2.103v13.176c0 1.161 0.851 2.105 1.895 2.106h12.309v-0.916H1.971c-0.53 0-0.978-0.545-0.978-1.19z"/></svg>