<svg fill="#8C4FFF" role="img" viewBox="0 0 25 24" xmlns="http://www.w3.org/2000/svg"><title>Amazon Route 53</title><path d="M24.505 15.768c0 2.873-2.358 5.017-6.302 5.702-2.958 0.557-5.402 2.401-5.446 2.444q-0.129 0.086-0.257 0.086t-0.257-0.086C12.2 23.871 9.756 22.028 6.797 21.47c-3.945-0.686-6.303-2.83-6.302-5.702 0-1.758 0.686-2.916 1.286-3.945 0.515-0.9 0.986-1.672 0.986-2.744 0-2.272-1.758-3.773-1.801-3.773Q0.838 5.177 0.795 5.006q0-0.171 0.128-0.3C0.923 4.663 3.753 1.276 4.396 0.375c0.086-0.086 0.171-0.171 0.301-0.171s0.257 0.043 0.343 0.128c1.115 1.158 2.358 1.801 3.601 1.801 1.372 0 2.487-0.6 3.516-1.972 0.172-0.214 0.515-0.214 0.686 0C13.872 1.533 14.987 2.133 16.359 2.133c1.243 0 2.487-0.643 3.601-1.801 0.086-0.086 0.214-0.129 0.343-0.128s0.214 0.086 0.301 0.171c0.643 0.9 3.473 4.288 3.472 4.331q0.129 0.129 0.129 0.3-0.043 0.171-0.171 0.3c-0.043 0-1.801 1.501-1.801 3.773 0 1.072 0.472 1.844 0.986 2.744 0.6 1.029 1.286 2.187 1.286 3.945Zm-0.857 0c0-1.501-0.6-2.53-1.158-3.516-0.557-0.9-1.115-1.887-1.115-3.173 0-2.101 1.201-3.559 1.801-4.159-0.643-0.729-2.187-2.658-2.958-3.644C19.06 2.39 17.688 2.991 16.359 2.991c-1.501 0-2.744-0.6-3.859-1.887C11.385 2.39 10.142 2.991 8.641 2.991c-1.329 0-2.701-0.6-3.859-1.715-0.772 0.986-2.315 2.916-2.958 3.644 0.6 0.6 1.801 2.058 1.801 4.159 0 1.286-0.557 2.272-1.115 3.173C1.952 13.238 1.352 14.267 1.352 15.768c0 0.9 0.386 3.945 5.574 4.888 2.615 0.472 4.845 1.887 5.574 2.401 0.729-0.514 2.958-1.929 5.574-2.401 5.188-0.943 5.574-3.987 5.574-4.888z m-2.573-2.659c0.557 0.986 0.9 1.629 0.901 2.659 0 2.315-3.216 3.044-4.202 3.215-2.058 0.386-3.902 1.286-5.06 1.973q-0.086 0.043-0.214 0.043t-0.214-0.043c-1.158-0.686-3.001-1.586-5.06-1.973-0.986-0.171-4.202-0.9-4.202-3.215 0-1.029 0.343-1.672 0.901-2.659 0.6-1.029 1.329-2.315 1.329-4.03 0-1.372-0.386-2.658-1.115-3.859-0.086-0.172-0.086-0.386 0.043-0.514q0.3-0.386 0.643-0.815c0.129-0.171 0.386-0.214 0.558-0.129 1.072 0.6 2.144 0.9 3.258 0.901 1.372 0 2.53-0.386 3.602-1.115 0.171-0.086 0.343-0.086 0.514 0 1.072 0.729 2.23 1.115 3.602 1.115 1.115 0 2.187-0.3 3.258-0.901 0.171-0.086 0.429-0.043 0.558 0.129q0.343 0.429 0.643 0.815c0.129 0.129 0.129 0.343 0.043 0.514-0.729 1.201-1.115 2.487-1.115 3.859 0 1.715 0.729 3.001 1.329 4.03z m0.043 2.659c0-0.772-0.257-1.329-0.815-2.23-0.643-1.115-1.415-2.487-1.414-4.459 0-1.458 0.343-2.787 1.071-4.073q-0.129-0.171-0.257-0.3c-1.072 0.515-2.187 0.815-3.344 0.814-1.415 0-2.701-0.386-3.859-1.114-1.158 0.729-2.444 1.115-3.859 1.114q-1.715 0-3.344-0.814-0.129 0.129-0.257 0.3c0.729 1.286 1.072 2.615 1.071 4.073 0 1.972-0.772 3.344-1.414 4.459-0.557 0.9-0.815 1.458-0.815 2.23 0 1.672 2.916 2.273 3.473 2.401 2.101 0.386 3.902 1.201 5.145 1.886 1.243-0.686 3.044-1.501 5.145-1.886 0.557-0.129 3.473-0.729 3.473-2.401z m-4.888-3.473q0.472 0.429 0.472 1.157 0 0.815-0.557 1.287-0.6 0.472-1.587 0.471-0.772 0-1.501-0.3v-0.686q0.9 0.3 1.501 0.3 0.643 0 0.986-0.257 0.3-0.3 0.3-0.815 0-0.986-1.243-0.986-0.386 0-0.772 0.043v-0.557l1.715-1.844h-2.401v-0.686h3.302v0.643l-1.673 1.801h0.172q0.815 0 1.286 0.429z m-4.759-0.172q0.472 0.472 0.472 1.287t-0.558 1.329q-0.6 0.472-1.543 0.471-0.815 0-1.587-0.3v-0.686q0.943 0.3 1.587 0.3 0.6 0 0.943-0.257 0.343-0.3 0.343-0.815 0-0.6-0.3-0.857-0.343-0.257-1.029-0.257-0.515 0-1.286 0.085v-0.557l0.171-2.444h3.001v0.686H9.37l-0.129 1.629q0.472-0.043 0.815-0.043 0.9 0 1.415 0.429z"/></svg>