<svg fill="#00A8E1" role="img" viewBox="0 0 124 24" xmlns="http://www.w3.org/2000/svg"><title>Amazon Prime</title><path d="M9.393 14.079c-0.361-0.495-0.743-0.901-0.743-1.825v-3.068c0-1.302 0.092-2.498-0.867-3.394-0.756-0.727-2.008-0.982-2.968-0.982-1.876 0-3.967 0.702-4.408 3.019-0.045 0.246 0.133 0.376 0.295 0.413l1.911 0.205c0.178-0.007 0.308-0.185 0.341-0.363 0.165-0.797 0.834-1.183 1.586-1.183 0.406 0 0.866 0.151 1.104 0.511 0.278 0.406 0.24 0.962 0.24 1.431v0.255c-1.142 0.128-2.637 0.213-3.706 0.684-1.235 0.534-2.101 1.62-2.101 3.221 0 2.046 1.292 3.07 2.95 3.07 1.403 0 2.166-0.33 3.248-1.432 0.358 0.519 0.476 0.771 1.13 1.315 0.147 0.077 0.335 0.07 0.466-0.048l1.517-1.302c0.161-0.133 0.131-0.346 0.005-0.527m-3.509-2.975c0 0.769 0.018 1.408-0.368 2.092-0.313 0.553-0.811 0.894-1.365 0.894-0.756 0-1.197-0.576-1.197-1.428 0-1.681 1.505-1.984 2.93-1.983z m29.343 2.976c-0.358-0.496-0.744-0.902-0.743-1.826v-3.068c0-1.302 0.093-2.498-0.867-3.394-0.756-0.727-2.008-0.982-2.968-0.982-1.876 0-3.967 0.702-4.405 3.019-0.048 0.246 0.133 0.376 0.293 0.413l1.911 0.205c0.178-0.007 0.308-0.185 0.34-0.363 0.165-0.797 0.834-1.183 1.586-1.183 0.406 0 0.867 0.151 1.104 0.511 0.278 0.406 0.24 0.962 0.24 1.431v0.255c-1.142 0.128-2.637 0.213-3.704 0.684-1.237 0.534-2.103 1.62-2.103 3.221 0 2.046 1.292 3.07 2.95 3.07 1.402 0 2.168-0.33 3.251-1.432 0.356 0.519 0.473 0.771 1.129 1.315a0.407 0.407 0 0 0 0.464-0.048l0.005 0.005c0.396-0.351 1.109-0.972 1.512-1.307 0.161-0.133 0.134-0.346 0.005-0.527m-3.877-0.883c-0.313 0.553-0.811 0.894-1.365 0.894-0.756 0-1.197-0.576-1.197-1.428 0-1.681 1.506-1.984 2.931-1.983v0.425c0 0.769 0.02 1.408-0.369 2.092m26.628 2.738h-1.964a0.37 0.37 0 0 1-0.353-0.363l-0.004-10.118c0.017-0.185 0.18-0.33 0.379-0.33h1.828a0.374 0.374 0 0 1 0.349 0.282v1.547h0.038c0.552-1.384 1.324-2.043 2.685-2.043 0.883 0 1.748 0.319 2.3 1.192 0.515 0.809 0.515 2.17 0.515 3.15v6.365c-0.022 0.179-0.183 0.318-0.377 0.318h-1.976a0.372 0.372 0 0 1-0.351-0.318v-5.492c0-1.107 0.129-2.725-1.232-2.725-0.478 0-0.92 0.319-1.141 0.809-0.276 0.618-0.313 1.235-0.313 1.916v5.446a0.377 0.377 0 0 1-0.383 0.364M49.677 4.909c2.925 0 4.506 2.512 4.507 5.705 0 3.086-1.747 5.534-4.507 5.534-2.87 0-4.434-2.512-4.433-5.641 0-3.15 1.582-5.598 4.433-5.598m0.018 2.065c-1.454 0-1.545 1.979-1.545 3.213 0 1.234-0.019 3.874 1.528 3.874 1.526 0 1.6-2.129 1.599-3.426 0-0.851-0.037-1.873-0.294-2.682-0.221-0.703-0.663-0.979-1.288-0.979m-36.442 8.96h-1.97a0.371 0.371 0 0 1-0.353-0.333l0.002-10.114c0-0.203 0.17-0.364 0.381-0.364h1.835c0.192 0.009 0.346 0.155 0.358 0.339v1.321h0.036c0.478-1.278 1.38-1.873 2.594-1.873 1.232 0 2.005 0.595 2.557 1.873 0.479-1.278 1.564-1.873 2.723-1.873 0.828 0 1.729 0.341 2.281 1.106 0.625 0.851 0.497 2.086 0.497 3.171l-0.002 6.384c0 0.201-0.17 0.364-0.38 0.363h-1.968a0.369 0.369 0 0 1-0.354-0.363v-5.362c0-0.425 0.036-1.489-0.056-1.894-0.147-0.681-0.588-0.873-1.158-0.873-0.479 0-0.975 0.32-1.178 0.829-0.202 0.511-0.184 1.362-0.184 1.938v5.361c0 0.202-0.17 0.364-0.38 0.364h-1.969a0.369 0.369 0 0 1-0.353-0.363l-0.002-5.362c0-1.128 0.184-2.788-1.214-2.788-1.417 0-1.361 1.617-1.361 2.788l-0.001 5.361c0 0.202-0.17 0.364-0.381 0.364m23.63-9.027v-1.445a0.357 0.357 0 0 1 0.366-0.366h6.478c0.207 0 0.374 0.15 0.373 0.364v1.24c-0.002 0.208-0.177 0.479-0.487 0.909l-3.355 4.791c1.245-0.029 2.563 0.158 3.694 0.794 0.255 0.143 0.324 0.356 0.344 0.564v1.542c0 0.212-0.233 0.458-0.477 0.331-1.993-1.044-4.64-1.158-6.844 0.012-0.226 0.12-0.461-0.123-0.462-0.335v-1.466c0-0.235 0.005-0.636 0.241-0.993l3.888-5.578h-3.385c-0.206 0-0.373-0.148-0.374-0.364m4.216 11.153c-0.473-0.606-3.127-0.287-4.32-0.144-0.361 0.043-0.417-0.272-0.092-0.501 2.118-1.487 5.588-1.058 5.991-0.56 0.406 0.502-0.107 3.981-2.091 5.642-0.305 0.255-0.596 0.119-0.46-0.218 0.446-1.115 1.446-3.612 0.972-4.219m-1.539 1.758c-3.7 2.73-9.063 4.182-13.682 4.182-6.473 0-12.302-2.393-16.713-6.376-0.346-0.313-0.037-0.74 0.379-0.498 4.759 2.769 10.645 4.437 16.723 4.437 4.101 0 8.608-0.851 12.755-2.61 0.625-0.265 1.15 0.412 0.538 0.865m80.138-3.576c-1.765 0-3.119-0.484-4.066-1.452-0.947-0.968-1.419-2.355-1.419-4.162 0-1.849 0.482-3.301 1.45-4.354 0.968-1.053 2.312-1.58 4.034-1.579 1.324 0 2.359 0.32 3.106 0.96 0.747 0.64 1.12 1.494 1.12 2.561 0 1.067-0.403 1.875-1.205 2.422-0.804 0.549-1.988 0.822-3.554 0.822-0.81 0-1.515-0.078-2.113-0.234 0.085 0.953 0.374 1.636 0.864 2.048 0.491 0.413 1.234 0.619 2.231 0.62 0.398 0 0.785-0.025 1.163-0.075 0.377-0.05 0.9-0.16 1.569-0.331a0.841 0.841 0 0 1 0.234-0.043c0.242 0 0.363 0.164 0.363 0.491v0.982c0 0.228-0.032 0.388-0.095 0.48-0.065 0.093-0.189 0.175-0.375 0.245-1.039 0.398-2.142 0.598-3.307 0.598m-0.705-6.701c0.726 0 1.252-0.11 1.579-0.331 0.327-0.221 0.491-0.559 0.492-1.014 0-0.897-0.534-1.345-1.601-1.345-1.366 0-2.155 0.84-2.369 2.519 0.569 0.114 1.202 0.171 1.899 0.171M96.2 15.922c-0.185 0-0.321-0.042-0.406-0.128-0.086-0.085-0.128-0.22-0.128-0.406V5.549c0-0.2 0.042-0.338 0.128-0.416 0.085-0.078 0.22-0.117 0.406-0.117h1.536c0.327 0 0.526 0.156 0.598 0.469l0.17 0.576c0.754-0.498 1.434-0.85 2.039-1.056 0.604-0.206 1.227-0.31 1.868-0.31 1.28 0 2.183 0.455 2.709 1.366 0.726-0.484 1.409-0.832 2.05-1.045 0.64-0.214 1.301-0.32 1.985-0.32 0.996 0 1.767 0.277 2.315 0.832 0.548 0.555 0.822 1.331 0.822 2.326v7.534c0 0.185-0.04 0.32-0.117 0.406-0.078 0.086-0.217 0.128-0.417 0.128h-2.049c-0.185 0-0.32-0.042-0.405-0.128-0.086-0.085-0.129-0.22-0.129-0.406V8.537c0-0.968-0.433-1.452-1.301-1.451-0.768 0-1.544 0.185-2.326 0.554v7.748c0 0.185-0.039 0.32-0.118 0.406-0.078 0.086-0.217 0.128-0.416 0.128h-2.049c-0.186 0-0.32-0.042-0.406-0.128-0.085-0.085-0.128-0.22-0.128-0.406V8.537c0-0.968-0.434-1.452-1.302-1.451-0.797 0-1.579 0.192-2.347 0.575v7.727c0 0.185-0.04 0.32-0.117 0.406-0.079 0.086-0.218 0.128-0.417 0.128z m-4.734-12.593c-0.541 0-0.974-0.15-1.302-0.448-0.328-0.298-0.491-0.704-0.491-1.216s0.164-0.917 0.491-1.217c0.327-0.299 0.761-0.448 1.302-0.448 0.54 0 0.974 0.15 1.302 0.448 0.327 0.299 0.491 0.704 0.491 1.217s-0.164 0.918-0.491 1.216c-0.327 0.299-0.762 0.449-1.302 0.449m-1.025 12.592c-0.185 0-0.32-0.043-0.405-0.129-0.086-0.085-0.128-0.22-0.128-0.405V5.549c0-0.199 0.042-0.338 0.128-0.416 0.085-0.078 0.221-0.117 0.405-0.117h2.049c0.199 0 0.338 0.039 0.417 0.117 0.078 0.078 0.118 0.217 0.117 0.416v9.839c0 0.186-0.04 0.32-0.117 0.405-0.078 0.086-0.217 0.129-0.417 0.129z m-8.528 0c-0.185 0-0.321-0.042-0.406-0.128-0.086-0.085-0.128-0.22-0.128-0.406V5.549c0-0.2 0.042-0.338 0.128-0.416 0.085-0.078 0.22-0.117 0.406-0.117h1.536c0.327 0 0.526 0.156 0.598 0.469l0.277 1.153c0.569-0.626 1.106-1.071 1.612-1.334a3.439 3.439 0 0 1 1.612-0.395h0.298c0.199 0 0.342 0.039 0.427 0.117 0.086 0.078 0.128 0.217 0.128 0.417v1.792c0 0.185-0.039 0.32-0.118 0.405-0.078 0.086-0.217 0.129-0.416 0.129a4.279 4.279 0 0 1-0.384-0.022 7.047 7.047 0 0 0-0.597-0.021c-0.327 0-0.726 0.046-1.196 0.139-0.47 0.093-0.868 0.21-1.195 0.352v7.171c0 0.185-0.04 0.32-0.117 0.406-0.079 0.086-0.218 0.128-0.416 0.128z m-12.782 4.396c-0.185 0-0.32-0.04-0.406-0.117-0.085-0.079-0.128-0.217-0.128-0.416V5.549c0-0.199 0.043-0.338 0.128-0.416 0.086-0.078 0.221-0.117 0.406-0.117h1.537c0.327 0 0.526 0.157 0.597 0.469l0.149 0.555c0.427-0.413 0.943-0.739 1.548-0.982a4.934 4.934 0 0 1 1.846-0.363c1.379 0 2.472 0.506 3.276 1.516 0.804 1.01 1.206 2.376 1.206 4.097 0 1.182-0.199 2.213-0.597 3.095-0.398 0.882-0.94 1.562-1.622 2.038-0.683 0.477-1.466 0.715-2.348 0.715a4.98 4.98 0 0 1-1.664-0.277c-0.527-0.185-0.975-0.441-1.345-0.769v4.675c0 0.199-0.039 0.337-0.117 0.416-0.079 0.077-0.217 0.117-0.417 0.117z m4.674-6.51c0.797 0 1.384-0.27 1.761-0.81 0.377-0.541 0.566-1.395 0.566-2.561 0-1.181-0.186-2.041-0.555-2.583-0.371-0.541-0.961-0.811-1.772-0.811a4.068 4.068 0 0 0-2.091 0.576v5.614c0.625 0.384 1.323 0.576 2.091 0.575Z"/></svg>