<svg fill="#FF9900" role="img" viewBox="0 0 53 24" xmlns="http://www.w3.org/2000/svg"><title>Amazon Games</title><path d="M8.831 10.142c0.195-0.657 0.178-1.484 0.178-2.336V1.71c0-0.293 0.072-1.127-0.044-1.3-0.117-0.173-0.563-0.134-0.875-0.134-0.893 0-1.289-0.124-1.369 0.728l-0.035 0.022c-0.7-0.535-1.365-1.044-2.65-1.019l-0.427 0.033a4.063 4.063 0 0 0-0.728 0.178 3.515 3.515 0 0 0-1.92 1.928 6.537 6.537 0 0 0-0.37 1.315 4.262 4.262 0 0 0-0.068 1.344c0.065 0.423 0.026 0.791 0.109 1.159 0.314 1.32 0.932 2.347 2.069 2.838a3.608 3.608 0 0 0 1.987 0.247 3.749 3.749 0 0 0 1.278-0.476l0.484-0.356h0.01a4.024 4.024 0 0 1-0.021 1.205c-0.197 1.14-0.533 1.525-1.671 1.727a3.213 3.213 0 0 1-0.966 0.024l-0.943-0.124-1.382-0.333a0.303 0.303 0 0 0-0.223 0.19 7.177 7.177 0 0 0 0.043 1.394c0.158 0.264 0.672 0.368 0.99 0.472 1.07 0.34 2.8 0.505 3.961 0.102 1.328-0.457 2.167-1.352 2.583-2.732z m-2.362-6.592v3.131a2.719 2.719 0 0 1-0.771 0.382c-1.889 0.594-2.605-0.737-2.605-2.479a4.522 4.522 0 0 1 0.202-1.584c0.167-0.429 0.423-0.804 0.845-0.975 0.147-0.065 0.329-0.048 0.492-0.115a3.781 3.781 0 0 1 1.391 0.217l0.418 0.195c0.102 0.18 0.03 0.949 0.03 1.228z m7.604 5.972a4.581 4.581 0 0 0 1.493-0.574l0.594-0.438c0.152 0.199 0.093 0.501 0.29 0.652 0.199 0.152 1.729 0.208 1.874 0 0.147-0.206 0.08-0.654 0.08-0.966v-4.004c0-0.78 0.059-1.653-0.123-2.267-0.427-1.445-1.647-1.941-3.536-1.922l-1.01 0.065a11.073 11.073 0 0 0-1.708 0.373c-0.243 0.085-0.613 0.147-0.715 0.368-0.098 0.225-0.078 1.402 0.057 1.495 0.202 0.137 1.161-0.18 1.43-0.238 0.774-0.167 2.542-0.338 2.973 0.217 0.312 0.399 0.26 1.179 0.251 1.898-0.178 0.043-0.485-0.076-0.672-0.113l-0.853-0.089a3.213 3.213 0 0 0-0.943 0.033c-1.465 0.251-2.501 0.808-2.839 2.167-0.527 2.087 1.283 3.783 3.357 3.345Zm-0.427-3.87c0.212-0.126 0.477-0.091 0.741-0.195 0.598 0 1.103 0.093 1.604 0.115 0.093 0.202 0.028 1.22 0.021 1.528-0.425 0.566-2.141 1.129-2.723 0.325-0.42-0.596-0.139-1.482 0.357-1.773Zm6.88 2.856c0 0.312-0.039 0.622 0.156 0.741 0.108 0.065 0.373 0.035 0.535 0.035 0.375 0 1.658 0.078 1.799-0.102 0.178-0.223 0.076-1.398 0.075-1.807v-4.899a3.454 3.454 0 0 1 1.09-0.406c0.605-0.141 1.404-0.143 1.706 0.26 0.267 0.355 0.225 0.99 0.225 1.615v3.391c0 0.462-0.104 1.749 0.156 1.909 0.16 0.098 0.893 0.035 1.144 0.034 0.254 0 0.99 0.061 1.148-0.056 0.21-0.16 0.121-1.3 0.122-1.707q0-2.522 0.011-5.051c0.087-0.141 0.438-0.199 0.606-0.26 0.741-0.26 1.896-0.433 2.256 0.292 0.178 0.375 0.124 1.057 0.124 1.608v3.363c0 0.401-0.089 1.489 0.078 1.707 0.1 0.128 0.327 0.102 0.55 0.102 0.336 0 1.668 0.059 1.82-0.056 0.221-0.169 0.132-0.845 0.132-1.224v-3.489c0-1.473 0.115-2.813-0.535-3.651-1.164-1.517-4.232-0.704-5.356 0.26h-0.044c-0.431-0.724-1.17-1.131-2.342-1.114l-0.472 0.035a5.395 5.395 0 0 0-0.943 0.212 7.246 7.246 0 0 0-1.133 0.535l-0.551 0.338c-0.199-0.241-0.078-0.633-0.357-0.797-0.108-0.065-1.547-0.082-1.749-0.032a0.358 0.358 0 0 0-0.19 0.123c-0.119 0.178-0.059 1.354-0.059 1.695z m17.196 0.379c1.105 0.693 3.09 0.843 4.659 0.451 0.394-0.098 1.164-0.238 1.3-0.561a8.618 8.618 0 0 0 0.022-1.348 0.325 0.325 0 0 0-0.143-0.167c-0.141-0.061-0.358 0.043-0.494 0.078l-1.157 0.212a4.225 4.225 0 0 1-1.279 0.048 7.029 7.029 0 0 1-0.892-0.126c-0.88-0.267-1.463-0.921-1.474-2.043 0.21-0.093 0.895-0.022 1.179-0.022h2.86c0.412 0 1.068 0.087 1.322-0.101 0.336-0.251 0.312-1.937 0.201-2.479-0.368-1.842-1.478-2.856-3.705-2.817l-0.269 0.011-0.808 0.108c-0.867 0.221-1.616 0.622-2.097 1.226a4.587 4.587 0 0 0-0.664 1.071c-0.44 1.044-0.561 2.932-0.188 4.182 0.299 0.997 0.826 1.772 1.627 2.273z m0.661-5.811c0.202-0.581 0.535-1.003 1.122-1.192l0.503-0.095c1.333-0.011 1.699 0.678 1.684 2.01-0.18 0.082-0.758 0.022-1.012 0.022h-2.42c-0.074-0.186 0.065-0.585 0.123-0.752z m13.864 2.355c-0.535-0.927-1.699-1.289-2.739-1.716-0.492-0.204-1.3-0.373-1.415-0.943-0.245-1.222 2.264-0.867 3.007-0.684 0.208 0.05 0.687 0.238 0.82 0.065s0.069-0.585 0.069-0.852c0-0.219 0.028-0.498-0.059-0.639-0.128-0.217-0.466-0.277-0.728-0.358a6.535 6.535 0 0 0-2.088-0.303l-0.642 0.048a5.192 5.192 0 0 0-1.166 0.312 2.65 2.65 0 0 0-1.428 1.391c-0.399 0.986-0.022 2.292 0.575 2.773 0.715 0.576 1.684 0.904 2.6 1.279 0.466 0.191 0.992 0.299 1.092 0.854 0.264 1.51-2.592 0.962-3.445 0.741-0.18-0.048-0.743-0.238-0.895-0.156-0.204 0.115-0.124 0.687-0.124 0.996 0 0.18-0.026 0.433 0.046 0.551 0.217 0.358 1.398 0.583 1.92 0.687 2.071 0.412 3.913-0.29 4.578-1.595 0.334-0.631 0.394-1.807 0.022-2.455z m-7.274 8.856l-0.39 0.022a6.702 6.702 0 0 0-1.136 0.125 7.84 7.84 0 0 0-2.414 0.845c-0.18 0.108-0.893 0.457-0.762 0.783 0.102 0.26 1.135 0.043 1.469 0.021 0.661-0.043 0.984-0.102 1.607-0.099h1.144a6.409 6.409 0 0 1 1.023 0.065 1.521 1.521 0 0 1 0.616 0.294c0.26 0.223 0.212 0.979 0.123 1.335a24.876 24.876 0 0 1-1.031 3.368c-0.074 0.178-0.65 1.304-0.011 1.17 0.288-0.065 0.875-0.715 1.055-0.932 0.893-1.144 1.456-2.457 1.874-4.108 0.098-0.386 0.319-1.894 0.1-2.245-0.358-0.583-2.247-0.663-3.267-0.644z m-1.394 3.213l-1.022 0.449-1.691 0.639c-1.51 0.585-3.185 0.966-4.864 1.383l-1.966 0.368-2.312 0.304-0.741 0.056c-0.295 0.065-0.644 0.026-0.975 0.078a14.891 14.891 0 0 1-2.21 0.091l-1.673 0.011-1.202-0.044-0.774-0.043c-0.178-0.037-0.39-0.013-0.585-0.048l-2.345-0.257c-0.693-0.13-1.441-0.178-2.102-0.358l-0.548-0.091-2.039-0.455c-1.458-0.455-2.906-0.813-4.269-1.337-1.508-0.585-3.086-1.222-4.42-2.011l-1.322-0.762c-0.243-0.143-0.438-0.355-0.823-0.356-0.284 0.141-0.371 0.325-0.176 0.661a2.273 2.273 0 0 0 0.516 0.505l0.607 0.563c0.875 0.693 1.755 1.408 2.704 2.031 0.823 0.535 1.697 0.99 2.557 1.495l1.293 0.615c0.737 0.325 1.504 0.661 2.275 0.964l1.99 0.661c1.073 0.358 2.238 0.537 3.393 0.824l2.436 0.353 0.784 0.058 1.326 0.1h0.481a5.426 5.426 0 0 0 1.415 0.013l0.505-0.013 0.618-0.011 2.11-0.167c0.947-0.212 1.944-0.18 2.839-0.45l2.067-0.503a34.882 34.882 0 0 0 3.625-1.27 25.734 25.734 0 0 0 4.219-2.245c0.457-0.308 1.105-0.535 1.224-1.178 0.102-0.542-0.455-0.752-0.925-0.622z"/></svg>