<svg fill="#569A31" role="img" viewBox="0 0 24 24" xmlns="http://www.w3.org/2000/svg"><title>Amazon S3</title><path d="M20.913 13.147l0.12-0.895c0.947 0.576 1.258 0.922 1.354 1.071-0.16 0.031-0.562 0.046-1.474-0.176z m-2.174 7.988a0.547 0.547 0 0 0-0.005 0.073c0 0.084-0.207 0.405-1.124 0.768a10.28 10.28 0 0 1-1.438 0.432c-1.405 0.325-3.128 0.504-4.853 0.504-4.612 0-7.412-1.184-7.412-1.704a0.547 0.547 0 0 0-0.005-0.073L1.81 5.602c0.135 0.078 0.28 0.154 0.432 0.227 0.042 0.02 0.086 0.038 0.128 0.057 0.134 0.062 0.272 0.122 0.417 0.18l0.179 0.069c0.154 0.058 0.314 0.114 0.478 0.168 0.043 0.013 0.084 0.029 0.13 0.043 0.207 0.065 0.423 0.127 0.646 0.187l0.176 0.044c0.175 0.044 0.353 0.087 0.534 0.127a23.414 23.414 0 0 0 0.843 0.17l0.121 0.023c0.252 0.045 0.508 0.085 0.768 0.122 0.071 0.011 0.144 0.02 0.216 0.03 0.2 0.027 0.4 0.053 0.604 0.077l0.24 0.027c0.245 0.026 0.49 0.05 0.74 0.07l0.081 0.009c0.275 0.022 0.552 0.04 0.83 0.056l0.233 0.012c0.21 0.01 0.422 0.018 0.633 0.025a33.088 33.088 0 0 0 2.795-0.026l0.232-0.011c0.278-0.016 0.555-0.034 0.83-0.056l0.08-0.008c0.25-0.02 0.497-0.045 0.742-0.072l0.238-0.026c0.205-0.024 0.408-0.05 0.609-0.077 0.07-0.01 0.141-0.019 0.211-0.03 0.261-0.037 0.519-0.078 0.772-0.122l0.111-0.02c0.215-0.04 0.427-0.082 0.634-0.125l0.212-0.047c0.186-0.041 0.368-0.085 0.546-0.13l0.166-0.042c0.225-0.06 0.444-0.122 0.654-0.189 0.04-0.012 0.077-0.026 0.115-0.038a10.6 10.6 0 0 0 0.493-0.173c0.058-0.021 0.114-0.044 0.17-0.066 0.15-0.06 0.293-0.12 0.43-0.185 0.038-0.017 0.079-0.034 0.116-0.052 0.153-0.073 0.3-0.15 0.436-0.228l-0.976 7.245c-2.488-0.78-5.805-2.292-7.311-3a1.09 1.09 0 0 0-1.088-1.085c-0.6 0-1.088 0.489-1.088 1.088 0 0.6 0.488 1.089 1.088 1.089 0.196 0 0.378-0.056 0.537-0.148 1.72 0.812 5.144 2.367 7.715 3.15z m-7.42-20.047c5.677 0 9.676 1.759 9.75 2.736l-0.014 0.113c-0.01 0.033-0.031 0.067-0.048 0.101-0.015 0.028-0.026 0.057-0.047 0.087-0.024 0.033-0.058 0.068-0.09 0.102-0.028 0.03-0.051 0.06-0.084 0.09-0.038 0.035-0.087 0.07-0.133 0.105-0.04 0.03-0.074 0.06-0.119 0.091-0.053 0.036-0.116 0.071-0.177 0.107-0.05 0.03-0.095 0.06-0.15 0.09-0.068 0.036-0.147 0.073-0.222 0.11-0.059 0.028-0.114 0.057-0.177 0.085-0.084 0.038-0.177 0.074-0.268 0.111-0.068 0.027-0.13 0.054-0.203 0.082-0.097 0.036-0.205 0.072-0.31 0.107-0.075 0.026-0.148 0.053-0.228 0.079-0.111 0.035-0.233 0.069-0.35 0.103-0.085 0.024-0.165 0.05-0.253 0.073-0.124 0.034-0.258 0.065-0.389 0.098-0.093 0.022-0.181 0.046-0.278 0.068-0.139 0.032-0.287 0.061-0.433 0.091-0.098 0.02-0.191 0.041-0.293 0.06-0.155 0.03-0.32 0.057-0.482 0.084-0.1 0.018-0.198 0.036-0.302 0.052-0.166 0.026-0.342 0.048-0.515 0.072-0.11 0.014-0.213 0.03-0.325 0.044-0.181 0.023-0.372 0.041-0.56 0.06-0.11 0.012-0.218 0.025-0.332 0.036-0.188 0.016-0.386 0.029-0.58 0.043-0.122 0.009-0.24 0.02-0.364 0.028-0.207 0.012-0.422 0.02-0.635 0.028-0.12 0.005-0.234 0.012-0.354 0.016a35.605 35.605 0 0 1-2.069 0c-0.12-0.004-0.234-0.011-0.352-0.016-0.214-0.008-0.43-0.016-0.637-0.028-0.122-0.008-0.238-0.02-0.36-0.027-0.195-0.015-0.394-0.028-0.584-0.044-0.11-0.01-0.215-0.024-0.324-0.035-0.19-0.02-0.384-0.038-0.568-0.06l-0.315-0.044c-0.176-0.024-0.355-0.046-0.525-0.073-0.1-0.015-0.192-0.033-0.29-0.05-0.167-0.028-0.335-0.055-0.494-0.086-0.096-0.018-0.183-0.038-0.276-0.056-0.151-0.032-0.305-0.062-0.45-0.095-0.09-0.02-0.173-0.043-0.26-0.064-0.138-0.034-0.277-0.067-0.407-0.102-0.082-0.022-0.157-0.046-0.235-0.069a11.75 11.75 0 0 1-0.368-0.108c-0.075-0.024-0.141-0.049-0.213-0.073-0.11-0.037-0.223-0.075-0.325-0.113-0.067-0.025-0.125-0.051-0.188-0.077-0.096-0.038-0.195-0.076-0.282-0.115-0.06-0.027-0.11-0.054-0.166-0.08-0.08-0.039-0.162-0.077-0.233-0.116-0.052-0.028-0.094-0.055-0.142-0.084-0.063-0.038-0.13-0.075-0.185-0.113-0.043-0.029-0.075-0.058-0.113-0.086-0.048-0.037-0.098-0.073-0.139-0.11-0.032-0.029-0.054-0.057-0.08-0.087-0.033-0.035-0.069-0.07-0.093-0.104-0.02-0.03-0.031-0.058-0.046-0.086-0.018-0.035-0.039-0.068-0.049-0.102l-0.015-0.113c0.076-0.977 4.074-2.736 9.748-2.736z m12.182 12.124c-0.118-0.628-0.84-1.291-2.31-2.128l0.963-7.16a0.531 0.531 0 0 0 0.005-0.073C22.16 1.581 16.447 0 11.32 0 6.194 0 0.482 1.581 0.482 3.851a0.58 0.58 0 0 0 0.005 0.072L2.819 21.25c0.071 2.002 5.236 2.75 8.5 2.75 1.805 0 3.615-0.188 5.098-0.531 0.598-0.138 1.133-0.3 1.592-0.48 1.18-0.467 1.789-1.053 1.813-1.739l0.945-7.018c0.557 0.131 1.016 0.197 1.389 0.197 0.54 0 0.902-0.137 1.134-0.413a0.956 0.956 0 0 0 0.21-0.804Z"/></svg>