<svg fill="#232F3E" role="img" viewBox="0 0 41 24" xmlns="http://www.w3.org/2000/svg"><title>Amazon Web Services</title><path d="M11.743 8.716c0 0.495 0.054 0.895 0.147 1.187 0.107 0.294 0.241 0.615 0.428 0.963 0.067 0.105 0.094 0.212 0.094 0.306 0 0.134-0.08 0.268-0.255 0.402l-0.841 0.56a0.64 0.64 0 0 1-0.347 0.12c-0.134 0-0.268-0.067-0.4-0.187a4.13 4.13 0 0 1-0.48-0.627 10.334 10.334 0 0 1-0.415-0.788c-1.04 1.227-2.349 1.841-3.925 1.841-1.12 0-2.015-0.319-2.668-0.96-0.654-0.642-0.987-1.495-0.987-2.563 0-1.134 0.4-2.057 1.214-2.749 0.814-0.694 1.895-1.042 3.269-1.042 0.455 0 0.921 0.04 1.415 0.107 0.495 0.067 1.003 0.174 1.535 0.294v-0.975c0-1.015-0.212-1.722-0.627-2.135-0.426-0.415-1.147-0.614-2.174-0.614-0.468 0-0.95 0.052-1.443 0.172-0.493 0.12-0.975 0.268-1.442 0.455a3.824 3.824 0 0 1-0.468 0.174 0.816 0.816 0 0 1-0.212 0.039c-0.187 0-0.281-0.134-0.281-0.413v-0.654c0-0.214 0.027-0.375 0.094-0.468a0.998 0.998 0 0 1 0.374-0.28c0.467-0.241 1.027-0.441 1.681-0.602a8.094 8.094 0 0 1 2.083-0.252c1.589 0 2.749 0.361 3.497 1.082 0.734 0.719 1.107 1.814 1.107 3.282v4.325z m-5.418 2.03c0.44 0 0.893-0.08 1.374-0.241 0.48-0.161 0.908-0.453 1.268-0.853 0.214-0.254 0.375-0.535 0.455-0.856 0.079-0.319 0.134-0.707 0.133-1.161v-0.56a11.137 11.137 0 0 0-1.229-0.227 10.067 10.067 0 0 0-1.254-0.08c-0.895 0-1.548 0.174-1.99 0.535-0.44 0.36-0.652 0.866-0.652 1.533 0 0.627 0.159 1.095 0.493 1.415 0.319 0.334 0.786 0.495 1.402 0.495z m10.719 1.441c-0.241 0-0.401-0.04-0.509-0.133-0.107-0.08-0.201-0.268-0.281-0.521L13.119 1.214a2.338 2.338 0 0 1-0.12-0.535c0-0.214 0.107-0.334 0.319-0.335h1.309c0.253 0 0.426 0.042 0.519 0.134 0.109 0.08 0.189 0.268 0.267 0.522l2.244 8.836 2.082-8.836c0.067-0.268 0.147-0.441 0.253-0.522a0.918 0.918 0 0 1 0.535-0.134h1.067c0.254 0 0.428 0.042 0.535 0.134 0.105 0.08 0.201 0.268 0.253 0.522l2.108 8.943 2.31-8.943c0.08-0.268 0.174-0.441 0.267-0.522a0.87 0.87 0 0 1 0.52-0.134h1.243c0.212 0 0.334 0.109 0.334 0.335 0 0.067-0.015 0.134-0.028 0.214a1.901 1.901 0 0 1-0.094 0.334l-3.216 10.318c-0.08 0.268-0.174 0.44-0.281 0.52a0.853 0.853 0 0 1-0.506 0.134h-1.149c-0.253 0-0.426-0.04-0.535-0.134-0.105-0.094-0.199-0.268-0.251-0.535l-2.07-8.609-2.057 8.596c-0.067 0.268-0.145 0.441-0.251 0.535-0.109 0.094-0.296 0.134-0.535 0.134z m17.15 0.36c-0.694 0-1.388-0.08-2.055-0.239-0.667-0.161-1.187-0.334-1.535-0.535-0.214-0.119-0.36-0.253-0.413-0.373a0.941 0.941 0 0 1-0.08-0.375v-0.681c0-0.279 0.107-0.413 0.306-0.413 0.08 0 0.161 0.013 0.24 0.041 0.08 0.027 0.201 0.08 0.335 0.133 0.453 0.201 0.946 0.36 1.468 0.467 0.533 0.107 1.054 0.161 1.589 0.16 0.839 0 1.495-0.147 1.948-0.441a1.438 1.438 0 0 0 0.694-1.268 1.299 1.299 0 0 0-0.36-0.934c-0.241-0.253-0.696-0.48-1.349-0.694l-1.935-0.602c-0.975-0.306-1.696-0.759-2.135-1.36a3.181 3.181 0 0 1-0.669-1.936c0-0.56 0.122-1.054 0.361-1.482 0.241-0.426 0.56-0.801 0.962-1.094 0.401-0.308 0.853-0.535 1.387-0.694 0.535-0.161 1.095-0.227 1.683-0.227 0.293 0 0.6 0.013 0.894 0.054 0.306 0.04 0.585 0.094 0.867 0.147 0.268 0.067 0.522 0.134 0.76 0.212 0.241 0.08 0.428 0.161 0.562 0.241a1.154 1.154 0 0 1 0.402 0.334 0.719 0.719 0 0 1 0.118 0.44v0.627c0 0.281-0.107 0.428-0.307 0.428a1.388 1.388 0 0 1-0.507-0.16 6.107 6.107 0 0 0-2.562-0.52c-0.761 0-1.363 0.119-1.776 0.373-0.415 0.254-0.627 0.64-0.627 1.187 0 0.375 0.134 0.696 0.402 0.948 0.266 0.254 0.759 0.508 1.466 0.736l1.896 0.598c0.96 0.308 1.656 0.736 2.069 1.283 0.413 0.547 0.614 1.174 0.614 1.868 0 0.574-0.12 1.095-0.346 1.548-0.241 0.455-0.562 0.855-0.975 1.176-0.415 0.334-0.908 0.574-1.482 0.748-0.602 0.186-1.227 0.279-1.91 0.279zM36.718 19.035c-4.391 3.244-10.773 4.965-16.258 4.965-7.689 0-14.615-2.843-19.849-7.569-0.413-0.373-0.04-0.881 0.455-0.587 5.659 3.283 12.64 5.273 19.861 5.273 4.873 0 10.224-1.015 15.15-3.097 0.734-0.334 1.361 0.48 0.641 1.015zM38.547 16.952c-0.562-0.719-3.712-0.346-5.14-0.173-0.426 0.054-0.493-0.321-0.106-0.602 2.508-1.761 6.634-1.254 7.114-0.667 0.48 0.602-0.134 4.726-2.483 6.701-0.36 0.308-0.707 0.147-0.547-0.253 0.535-1.321 1.722-4.298 1.162-5.006z"/></svg>