<svg fill="#FF4F8B" role="img" viewBox="0 0 25 24" xmlns="http://www.w3.org/2000/svg"><title>Amazon API Gateway</title><path d="M9.956 18.7h1.258v-0.865H9.956Zm2.115 0h1.286v-0.865h-1.286ZM6.93 1.127L1.357 3.892v17.19l5.572 1.885Zm0.857 5.47v11.238H9.07v0.865H7.786v4.868a0.434 0.434 0 0 1-0.429 0.432 0.425 0.425 0 0 1-0.136-0.022L0.792 21.804a0.432 0.432 0 0 1-0.292-0.41V3.623c0-0.164 0.093-0.315 0.24-0.388L7.168 0.045a0.424 0.424 0 0 1 0.415 0.02 0.433 0.433 0 0 1 0.203 0.367v5.3H9.07v0.865ZM14.214 18.7H15.5v-0.865h-1.286Zm0.028-12.103H15.5v-0.864h-1.258Zm-2.143 0h1.258v-0.864H12.1Zm-2.143 0h1.258v-0.864H9.956Zm13.687-2.705L18.07 1.127v21.84l5.572-1.884ZM24.5 21.394c0 0.186-0.117 0.35-0.292 0.41l-6.429 2.174a0.425 0.425 0 0 1-0.386-0.06 0.434 0.434 0 0 1-0.179-0.35V18.7h-0.829v-0.865h0.83V6.597h-0.83v-0.864h0.83v-5.3c0-0.15 0.076-0.289 0.202-0.368a0.424 0.424 0 0 1 0.415-0.02l6.428 3.19c0.147 0.073 0.24 0.224 0.24 0.388ZM13.757 9.346l-0.8-0.31-2.143 5.618 0.8 0.31Zm2.903 2.744a0.434 0.434 0 0 0 0-0.612L14.946 9.75l-0.606 0.612 1.411 1.423-1.411 1.423 0.606 0.611Zm-6.606 1.728L8.34 12.09a0.434 0.434 0 0 1 0-0.612L10.054 9.75l0.606 0.612-1.411 1.423 1.411 1.423Z"/></svg>