<svg fill="#C925D1" role="img" viewBox="0 0 22 24" xmlns="http://www.w3.org/2000/svg"><title>Amazon DocumentDB</title><path d="M15.505 21.095l0.716 0.463C15.253 23.032 12.095 24 8.389 24c-4.632 0-8.126-1.474-8.126-3.41V3.369C0.263 1.726 3.126 0 8.474 0c5.347 0 8.21 1.726 8.21 3.368v2.906h-0.842V4.884c-1.221 1.01-3.705 1.81-7.368 1.811-3.663 0-6.147-0.8-7.369-1.811v4.8c0.337 1.179 3.2 2.358 7.242 2.358q1.095 0 2.106-0.126l0.126 0.842q-1.095 0.126-2.232 0.126c-3.242 0-5.937-0.716-7.242-1.81v4.505c0.337 1.137 3.2 2.316 7.242 2.316q1.053 0 2.106-0.085l0.126 0.8q-1.137 0.126-2.232 0.127c-3.242 0-5.937-0.716-7.242-1.811v3.663c0 1.221 2.989 2.568 7.284 2.569 3.789 0 6.442-1.053 7.116-2.063z m-14.4-17.727c0 1.179 3.031 2.484 7.369 2.485 4.337 0 7.368-1.305 7.368-2.485 0-1.221-3.032-2.526-7.368-2.526-4.337 0-7.368 1.305-7.369 2.526z m20.632 7.664v9.094c0 0.253-0.168 0.421-0.421 0.421h-8c-0.253 0-0.421-0.168-0.421-0.421V9.221c0-0.211 0.168-0.421 0.421-0.421h4.631l-0.715-0.842h-5.179V18.021h0.421v0.842h-0.842c-0.253 0-0.421-0.168-0.421-0.421V7.537c0-0.21 0.168-0.421 0.421-0.421h5.81c0.126 0 0.253 0.084 0.295 0.168L19.042 8.8h0.463q0.168 0 0.295 0.126l1.81 1.811q0.126 0.126 0.127 0.295z m-0.842 0.715h-2.106c-0.253 0-0.421-0.169-0.421-0.421V9.642h-4.631v10.063h7.158z m-2.442 0.969c0.253 0 0.463 0.084 0.589 0.252 0.253 0.337 0.21 0.8 0.211 0.969 0 0.884 0.505 1.053 0.547 1.095 0.168 0.042 0.295 0.21 0.295 0.421 0 0.169-0.126 0.337-0.295 0.379-0.042 0-0.547 0.21-0.547 1.094 0 0.505-0.253 1.053-0.8 1.053h-0.295v-0.842h0.21c0-0.042 0.042-0.126 0.042-0.211 0-0.758 0.253-1.221 0.506-1.515-0.253-0.253-0.505-0.758-0.506-1.516v-0.337h-0.252v-0.842z m0.758-1.811h1.347L19.295 9.642h-0.085z m-2.737 1.811h0.337v0.842h-0.253v0.21c0 0.758-0.253 1.221-0.548 1.516 0.295 0.295 0.547 0.758 0.548 1.516q0 0.042-0.042 0.084v0.295h0.294v0.842h-0.336c-0.21 0-0.421-0.126-0.59-0.295-0.253-0.295-0.21-0.8-0.168-0.968-0.042-0.884-0.505-1.053-0.59-1.053-0.168-0.042-0.295-0.253-0.294-0.421 0-0.169 0.126-0.337 0.336-0.379 0.042-0.042 0.547-0.211 0.548-1.137-0.042-0.463 0.21-1.053 0.758-1.052z"/></svg>