<svg fill="#C925D1" role="img" viewBox="0 0 26 24" xmlns="http://www.w3.org/2000/svg"><title>Amazon ElastiCache</title><path d="M17.981 21.535v-2.65c-1.147 0.741-3.213 1.091-5.183 1.091-2.146 0-3.82-0.375-4.78-1.016v2.575c0 0.767 1.788 1.56 4.78 1.559 3.054 0 5.183-0.822 5.183-1.559m-5.183-5.585c-2.146 0-3.82-0.375-4.78-1.017v2.586c0.015 0.764 1.799 1.552 4.78 1.552 3.045 0 5.169-0.818 5.183-1.553v-2.66c-1.147 0.742-3.213 1.091-5.183 1.092z m5.183-2.459v-3.062c-1.147 0.741-3.213 1.091-5.183 1.091-2.146 0-3.82-0.374-4.78-1.016v2.988c0.015 0.764 1.799 1.551 4.78 1.551 3.045 0 5.169-0.817 5.183-1.553m-9.964-4.438v0.004h0.001v0.006c0.015 0.764 1.799 1.551 4.78 1.551 3.325 0 5.169-0.915 5.183-1.554v-0.003l0.001-0.003c0-0.638-1.846-1.561-5.184-1.561-2.993 0-4.781 0.792-4.781 1.561m10.869 0.012v4.417h0.001v8.053c0 1.694-3.157 2.465-6.089 2.465-3.453 0-5.685-0.968-5.684-2.465v-4.011l-0.003-0.014h0.002v-4.013l-0.002-0.015h0.002V9.068l-0.002-0.014c0-1.498 2.233-2.467 5.687-2.467 2.933 0 6.089 0.771 6.089 2.467z m6.34-5.84A0.454 0.454 0 0 0 25.679 2.772V0.453a0.454 0.454 0 0 0-0.453-0.453H0.773A0.454 0.454 0 0 0 0.321 0.453v2.319c0 0.25 0.202 0.453 0.452 0.453 0.553 0 1.003 0.447 1.003 0.996s-0.45 0.996-1.003 0.997A0.454 0.454 0 0 0 0.321 5.67v9.275c0 0.25 0.202 0.453 0.452 0.453h4.528v-0.905H3.036v-1.359h2.264v-0.906H2.584a0.454 0.454 0 0 0-0.452 0.452v1.813H1.226V6.068a1.906 1.906 0 0 0 1.455-1.847c0-0.894-0.62-1.645-1.455-1.849V0.906h23.548V2.374a1.907 1.907 0 0 0-1.456 1.848c0 0.893 0.621 1.644 1.456 1.847v8.425h-0.906v-1.812a0.454 0.454 0 0 0-0.453-0.453h-2.716v0.906h2.263v1.359h-2.263v0.905h4.527a0.454 0.454 0 0 0 0.453-0.453V5.671a0.454 0.454 0 0 0-0.453-0.452 1.001 1.001 0 0 1-1.003-0.997c0-0.549 0.45-0.996 1.004-0.996zM7.566 6.341v-3.624a0.454 0.454 0 0 0-0.452-0.453H4.396a0.454 0.454 0 0 0-0.452 0.454V10.415c0 0.25 0.202 0.453 0.452 0.453h1.359v-0.905h-0.906v-6.794H6.66v3.17z m13.585 3.623h-0.452v0.905h0.905a0.454 0.454 0 0 0 0.452-0.453V2.718a0.454 0.454 0 0 0-0.452-0.454H18.885a0.454 0.454 0 0 0-0.452 0.454v3.623H19.34v-3.17h1.811z m-3.622-4.077v-3.169a0.454 0.454 0 0 0-0.455-0.454h-3.17a0.454 0.454 0 0 0-0.452 0.454v2.716h0.907V3.17h2.263v2.717z m-5.888-0.453V3.17H9.377v2.717h-0.906v-3.169c0-0.25 0.203-0.453 0.454-0.454h3.169c0.25 0 0.452 0.203 0.453 0.454v2.716z"/></svg>