<svg fill="#4053D6" role="img" viewBox="0 0 21 24" xmlns="http://www.w3.org/2000/svg"><title>Amazon DynamoDB</title><path d="M15.106 20.705v-2.371c-1.263 1.082-3.884 1.795-7.066 1.795-3.184 0-5.805-0.714-7.068-1.797v2.369c0 1.168 2.903 2.47 7.068 2.47 4.16 0 7.06-1.3 7.066-2.466z m0.001-6.765l0.817-0.005v0.005c0 0.517-0.258 0.998-0.75 1.441 0.601 0.54 0.75 1.071 0.75 1.449a1661.7 1661.7 0 0 0 0 3.87c0 1.881-3.389 3.3-7.884 3.3-4.471 0-7.846-1.404-7.88-3.27a583.119 583.119 0 0 1-0.003-3.909c0.001-0.375 0.15-0.9 0.745-1.437-0.592-0.538-0.743-1.062-0.746-1.435v-3.892c0.002-0.377 0.153-0.903 0.747-1.438-0.593-0.54-0.744-1.062-0.747-1.435 0-1.357-0.002-2.735 0.002-3.897C0.174 1.412 3.556 0 8.04 0c2.159 0 4.233 0.356 5.689 0.974l-0.315 0.766c-1.36-0.58-3.319-0.91-5.374-0.91-4.165 0-7.067 1.3-7.067 2.47 0 1.168 2.902 2.47 7.067 2.47 0.115 0 0.222 0 0.334-0.005l0.033 0.828c-0.122 0.006-0.245 0.006-0.367 0.006-3.184 0-5.805-0.714-7.068-1.798v2.38c0.005 0.45 0.45 0.843 0.821 1.093 1.116 0.736 3.114 1.239 5.34 1.342l-0.037 0.829c-2.254-0.105-4.23-0.59-5.5-1.332-0.318 0.245-0.623 0.573-0.623 0.952 0 1.168 2.902 2.47 7.067 2.47 0.411 0 0.812-0.014 1.203-0.042l0.06 0.826c-0.41 0.03-0.833 0.045-1.263 0.045-3.184 0-5.805-0.713-7.068-1.797v2.368c0.005 0.462 0.449 0.855 0.821 1.104 1.275 0.842 3.67 1.366 6.247 1.366h0.182v0.83H8.04c-2.62 0-4.99-0.507-6.444-1.359-0.317 0.245-0.623 0.574-0.623 0.954 0 1.168 2.902 2.47 7.067 2.47 4.159 0 7.058-1.298 7.066-2.465v-0.007c0-0.377-0.303-0.705-0.62-0.948a5.732 5.732 0 0 1-0.662 0.336l-0.316-0.764c0.3-0.128 0.56-0.266 0.776-0.412 0.376-0.254 0.823-0.651 0.823-1.1z m4.377-6.915h-2.717a0.406 0.406 0 0 1-0.332-0.173 0.42 0.42 0 0 1-0.055-0.375l1.204-3.597h-5.403l-2.583 4.974h2.623c0.128 0 0.248 0.06 0.325 0.164a0.418 0.418 0 0 1 0.069 0.36l-2.249 8.365z m1.249-0.128l-10.89 11.608a0.408 0.408 0 0 1-0.498 0.075 0.418 0.418 0 0 1-0.192-0.471l2.534-9.426h-2.766a0.407 0.407 0 0 1-0.349-0.2 0.418 0.418 0 0 1-0.012-0.407l3.014-5.804a0.408 0.408 0 0 1 0.36-0.222h6.22c0.132 0 0.256 0.065 0.332 0.174a0.422 0.422 0 0 1 0.055 0.374l-1.204 3.598h3.1c0.164 0 0.31 0.099 0.375 0.251a0.422 0.422 0 0 1-0.08 0.45zM1.585 20.723a8.107 8.107 0 0 0 1.72 0.72l0.233-0.794a7.32 7.32 0 0 1-1.546-0.645z m1.72-5.984l0.233-0.795a7.262 7.262 0 0 1-1.546-0.646l-0.407 0.72a8.051 8.051 0 0 0 1.72 0.72z m-1.72-7.427l0.407-0.719c0.418 0.244 0.939 0.462 1.546 0.646l-0.232 0.794a8.046 8.046 0 0 1-1.72-0.72Z"/></svg>