<svg fill="#8C4FFF" role="img" viewBox="0 0 17 24" xmlns="http://www.w3.org/2000/svg"><title>Amazon Redshift</title><path d="M13.139 9.932a0.822 0.822 0 0 1-0.822-0.82 0.823 0.823 0 0 1 1.645 0c0 0.452-0.37 0.82-0.823 0.82m-2.086 4.994a0.823 0.823 0 0 1-0.822-0.822 0.822 0.822 0 0 1 1.645 0 0.822 0.822 0 0 1-0.823 0.822m-5.004-0.833a0.822 0.822 0 1 1 0.002-1.644 0.822 0.822 0 0 1-0.002 1.644m-2.083 4.578a0.823 0.823 0 0 1-0.823-0.82 0.823 0.823 0 0 1 1.645 0c0 0.452-0.37 0.82-0.822 0.82m9.173-11.236a1.68 1.68 0 0 0-1.68 1.676c0 0.566 0.285 1.066 0.718 1.37l-0.782 1.982a1.674 1.674 0 0 0-1.923 1.104l-1.753-0.398a1.675 1.675 0 0 0-3.348 0.103c0 0.432 0.169 0.823 0.438 1.12l-0.764 1.79c-0.028-0.001-0.053-0.008-0.08-0.008a1.68 1.68 0 0 0-1.68 1.676 1.68 1.68 0 0 0 3.36 0c0-0.593-0.312-1.112-0.778-1.41l0.674-1.579c0.161 0.052 0.33 0.088 0.508 0.088 0.661 0 1.228-0.386 1.502-0.94l1.856 0.42a1.68 1.68 0 0 0 3.327-0.325c0-0.5-0.224-0.943-0.574-1.25l0.822-2.083c0.053 0.005 0.104 0.016 0.157 0.016a1.68 1.68 0 0 0 1.68-1.676 1.68 1.68 0 0 0-1.68-1.676M8.5 23.145c-4.17 0-7.286-1.252-7.286-2.37V4.79C2.64 5.938 5.631 6.547 8.5 6.547c2.869 0 5.86-0.609 7.286-1.756v15.983c0 1.12-3.116 2.37-7.286 2.37M8.5 0.856c4.293 0 7.286 1.274 7.286 2.419 0 1.143-2.993 2.418-7.286 2.418-4.293 0-7.286-1.275-7.286-2.418C1.214 2.129 4.207 0.855 8.5 0.855m8.143 2.419C16.643 1.147 12.447 0 8.5 0 4.552 0 0.357 1.147 0.357 3.274l0.002 0.01h-0.002v17.49C0.357 22.87 4.552 24 8.5 24c3.947 0 8.143-1.13 8.143-3.226V3.284h-0.002l0.002-0.01"/></svg>