<svg fill="#527FFF" role="img" viewBox="0 0 25 24" xmlns="http://www.w3.org/2000/svg"><title>Amazon RDS</title><path d="M1.963 0.857L5.946 4.84l-0.606 0.606L1.357 1.463v3.251H0.5V0.43A0.43 0.43 0 0 1 0.929 0h4.285v0.857ZM24.5 0.43v4.285h-0.857v-3.25l-3.983 3.98-0.606-0.606L23.037 0.857h-3.251V0h4.285c0.237 0 0.429 0.192 0.429 0.429Zm-0.857 18.857H24.5v4.285a0.428 0.428 0 0 1-0.429 0.429h-4.285v-0.857h3.25l-3.982-3.983 0.606-0.606 3.983 3.983Zm-0.214-7.623c0-1.423-1.643-2.828-4.393-3.76l0.274-0.811c3.162 1.07 4.976 2.736 4.976 4.57 0 1.836-1.814 3.502-4.976 4.572l-0.275-0.812c2.751-0.931 4.394-2.336 4.394-3.76Zm-21.834 0c0 1.363 1.538 2.73 4.113 3.66l-0.291 0.806C2.444 15.057 0.738 13.43 0.738 11.664S2.444 8.27 5.417 7.197l0.291 0.806c-2.575 0.93-4.113 2.297-4.113 3.66Zm4.35 7.497l-3.982 3.983h3.251V24H0.93a0.428 0.428 0 0 1-0.43-0.429v-4.285h0.857v3.25l3.983-3.982ZM12.5 8.265c-3.063 0-4.714-0.79-4.714-1.114 0-0.323 1.651-1.114 4.714-1.114 3.062 0 4.714 0.79 4.714 1.114 0 0.323-1.652 1.114-4.714 1.114Zm0.012 3.32c-2.932 0-4.726-0.801-4.726-1.237V8.265c1.055 0.582 2.928 0.858 4.714 0.858 1.786 0 3.659-0.276 4.714-0.858v2.083c0 0.436-1.785 1.237-4.702 1.237Zm0 3.272c-2.932 0-4.726-0.8-4.726-1.237v-2.108c1.042 0.613 2.89 0.93 4.726 0.93 1.827 0 3.664-0.317 4.702-0.928v2.106c0 0.437-1.785 1.237-4.702 1.237ZM12.5 17.793c-3.05 0-4.714-0.82-4.714-1.24v-1.768c1.042 0.612 2.89 0.93 4.726 0.93 1.827 0 3.664-0.317 4.702-0.928v1.765c0 0.422-1.664 1.241-4.714 1.241ZM12.5 5.18c-2.683 0-5.571 0.616-5.571 1.971v9.401c0 1.378 2.802 2.099 5.571 2.099 2.769 0 5.571-0.721 5.571-2.099v-9.4c0-1.356-2.888-1.972-5.571-1.972Z"/></svg>