<svg fill="#46C3D0" role="img" viewBox="0 0 36 24" xmlns="http://www.w3.org/2000/svg"><title>Amazon Music</title><path d="M22.163 8.208c-2.035 1.491-4.982 2.287-7.524 2.287a13.655 13.655 0 0 1-9.183-3.487c-0.192-0.171-0.021-0.405 0.207-0.27a18.571 18.571 0 0 0 9.195 2.425c2.251 0 4.733-0.465 7.011-1.429 0.345-0.144 0.633 0.225 0.297 0.474h-0.003z m0.846-0.96c-0.261-0.33-1.72-0.159-2.374-0.081-0.201 0.024-0.231-0.15-0.051-0.273 1.165-0.813 3.07-0.579 3.293-0.306 0.225 0.273-0.06 2.176-1.15 3.085-0.168 0.141-0.327 0.066-0.252-0.12 0.246-0.609 0.795-1.975 0.534-2.305z m-2.329-6.102v-0.789c0-0.12 0.09-0.201 0.202-0.201h3.562c0.114 0 0.204 0.081 0.204 0.198v0.678c0 0.114-0.096 0.264-0.27 0.499L22.535 4.151c0.684-0.015 1.411 0.087 2.032 0.435 0.141 0.078 0.18 0.195 0.189 0.309v0.84c0 0.12-0.129 0.252-0.261 0.18a4.12 4.12 0 0 0-3.764 0.009c-0.126 0.066-0.255-0.066-0.255-0.183v-0.801c0-0.129 0.003-0.348 0.132-0.543l2.14-3.055h-1.86c-0.114 0-0.207-0.078-0.211-0.198l0.003 0.002z m7.035-1.092c1.609 0 2.479 1.375 2.479 3.121 0 1.687-0.96 3.025-2.479 3.025-1.579 0-2.437-1.375-2.437-3.085 0-1.723 0.87-3.061 2.437-3.061z m0.009 1.129c-0.798 0-0.849 1.08-0.849 1.758 0 0.675-0.009 2.119 0.84 2.119 0.84 0 0.879-1.164 0.879-1.876 0-0.465-0.021-1.023-0.162-1.464-0.12-0.384-0.363-0.537-0.708-0.537z m-8.79 4.888c-0.072 0.06-0.204 0.066-0.255 0.024-0.372-0.285-0.621-0.72-0.622-0.72-0.594 0.603-1.017 0.786-1.788 0.786-0.909 0-1.621-0.561-1.621-1.68a1.831 1.831 0 0 1 1.156-1.762c0.588-0.258 1.411-0.303 2.037-0.375 0 0 0.051-0.675-0.132-0.921a0.762 0.762 0 0 0-0.609-0.279c-0.399 0-0.789 0.216-0.867 0.633-0.021 0.12-0.108 0.222-0.204 0.21L14.993 1.876a0.189 0.189 0 0 1-0.162-0.225c0.24-1.267 1.39-1.651 2.422-1.651 0.528 0 1.215 0.141 1.633 0.537 0.525 0.489 0.477 1.14 0.477 1.855v1.68c0 0.504 0.21 0.726 0.408 0.997 0.069 0.099 0.084 0.216-0.003 0.288-0.222 0.183-0.834 0.714-0.834 0.714z m-1.093-2.629v-0.234c-0.783 0-1.612 0.168-1.611 1.087 0 0.465 0.243 0.78 0.66 0.78 0.3 0 0.576-0.186 0.75-0.489 0.21-0.375 0.201-0.723 0.201-1.144zM4.727 6.072c-0.069 0.06-0.201 0.066-0.253 0.024-0.372-0.285-0.621-0.72-0.621-0.721-0.597 0.603-1.017 0.786-1.788 0.786-0.912 0-1.621-0.561-1.621-1.68a1.831 1.831 0 0 1 1.155-1.762c0.588-0.258 1.41-0.303 2.038-0.375 0 0 0.051-0.675-0.132-0.921a0.762 0.762 0 0 0-0.609-0.279c-0.402 0-0.789 0.216-0.867 0.633-0.021 0.12-0.111 0.222-0.205 0.21L0.786 1.876a0.189 0.189 0 0 1-0.159-0.225c0.237-1.267 1.389-1.651 2.422-1.651 0.528 0 1.216 0.141 1.633 0.537 0.525 0.489 0.474 1.14 0.474 1.855v1.68c0 0.504 0.21 0.726 0.408 0.997 0.069 0.099 0.084 0.216-0.003 0.288-0.222 0.183-0.834 0.714-0.834 0.714z m-1.09-2.63v-0.234c-0.783 0-1.612 0.168-1.611 1.087 0 0.465 0.24 0.78 0.66 0.78 0.3 0 0.576-0.186 0.75-0.489 0.21-0.375 0.201-0.723 0.201-1.144z m4.262-0.489v2.929a0.202 0.202 0 0 1-0.204 0.202H6.614a0.201 0.201 0 0 1-0.204-0.202v-5.509a0.202 0.202 0 0 1 0.204-0.202h1.012a0.201 0.201 0 0 1 0.201 0.201v0.706h0.021c0.264-0.696 0.759-1.023 1.425-1.024 0.678 0 1.101 0.327 1.408 1.024a1.54 1.54 0 0 1 1.494-1.024c0.456 0 0.951 0.186 1.255 0.606 0.345 0.465 0.273 1.14 0.273 1.735v3.49c0 0.111-0.093 0.198-0.21 0.199H12.412a0.201 0.201 0 0 1-0.195-0.199v-2.932c0-0.234 0.021-0.816-0.03-1.035-0.081-0.375-0.324-0.48-0.639-0.48a0.72 0.72 0 0 0-0.645 0.456c-0.111 0.279-0.102 0.744-0.102 1.059v2.932c0 0.111-0.093 0.198-0.21 0.199h-1.081a0.201 0.201 0 0 1-0.195-0.199v-2.932c0-0.618 0.099-1.525-0.669-1.524-0.78 0-0.75 0.882-0.75 1.524h0.003z m24.591 2.929a0.201 0.201 0 0 1-0.201 0.202h-1.084a0.201 0.201 0 0 1-0.201-0.202v-5.509a0.201 0.201 0 0 1 0.201-0.202h1c0.12 0 0.204 0.093 0.204 0.156v0.844h0.021c0.3-0.756 0.726-1.116 1.476-1.117 0.486 0 0.96 0.174 1.264 0.651 0.282 0.444 0.282 1.188 0.282 1.723V5.909a0.204 0.204 0 0 1-0.207 0.174h-1.087a0.204 0.204 0 0 1-0.192-0.174V2.566c0-1.116-0.429-1.149-0.678-1.149-0.288 0-0.522 0.225-0.621 0.432a2.491 2.491 0 0 0-0.18 1.056l0.003 2.977zM0.723 23.79c-0.186 0-0.279-0.09-0.279-0.279v-6.51c0-0.186 0.093-0.279 0.279-0.279H1.344c0.09 0 0.165 0.021 0.216 0.057 0.051 0.036 0.087 0.108 0.105 0.21l0.084 0.445c0.897-0.612 1.771-0.918 2.62-0.919 0.87 0 1.459 0.33 1.768 0.991 0.924-0.66 1.849-0.991 2.773-0.991 0.645 0 1.14 0.18 1.486 0.54 0.345 0.366 0.519 0.882 0.519 1.549v4.907c0 0.186-0.096 0.279-0.282 0.279h-0.826c-0.186 0-0.282-0.09-0.282-0.279v-4.514c0-0.465-0.09-0.81-0.264-1.032-0.18-0.225-0.459-0.336-0.84-0.336-0.684 0-1.368 0.21-2.062 0.63a1.459 1.459 0 0 1 0.015 0.207v5.045c0 0.186-0.093 0.279-0.279 0.279H5.267c-0.186 0-0.279-0.09-0.279-0.279v-4.514c0-0.465-0.09-0.81-0.267-1.032-0.18-0.225-0.459-0.336-0.841-0.336-0.711 0-1.392 0.204-2.047 0.615v5.267c0 0.186-0.09 0.279-0.279 0.279H0.723z m14.237 0.21c-0.663 0-1.17-0.186-1.527-0.558-0.354-0.372-0.531-0.897-0.531-1.576v-4.859c0-0.189 0.09-0.282 0.279-0.282h0.825c0.189 0 0.282 0.093 0.282 0.279v4.421c0 0.501 0.096 0.87 0.294 1.108 0.195 0.237 0.51 0.354 0.94 0.354 0.672 0 1.35-0.222 2.031-0.67v-5.216c0-0.186 0.09-0.279 0.279-0.279h0.826c0.189 0 0.282 0.093 0.282 0.279v6.513c0 0.183-0.093 0.276-0.282 0.276h-0.601c-0.093 0-0.168-0.018-0.219-0.054-0.051-0.039-0.084-0.108-0.105-0.21l-0.096-0.486c-0.87 0.639-1.762 0.96-2.677 0.96z m7.959 0c-0.786 0-1.492-0.129-2.115-0.39a0.549 0.549 0 0 1-0.232-0.153c-0.042-0.057-0.063-0.144-0.063-0.264v-0.393c0-0.168 0.054-0.252 0.168-0.253 0.066 0 0.18 0.03 0.349 0.085 0.618 0.195 1.26 0.291 1.92 0.291 0.459 0 0.807-0.09 1.045-0.265 0.24-0.177 0.357-0.432 0.357-0.765a0.72 0.72 0 0 0-0.216-0.546 2.35 2.35 0 0 0-0.792-0.417l-1.192-0.444c-1.038-0.381-1.555-1.032-1.555-1.951 0-0.606 0.234-1.095 0.709-1.465 0.471-0.372 1.09-0.558 1.854-0.558a5.102 5.102 0 0 1 1.78 0.321c0.111 0.036 0.192 0.084 0.24 0.144 0.045 0.06 0.069 0.15 0.069 0.271v0.378c0 0.168-0.06 0.252-0.18 0.252a1.26 1.26 0 0 1-0.324-0.069 5.193 5.193 0 0 0-1.516-0.225c-0.894 0-1.345 0.303-1.344 0.906 0 0.24 0.075 0.432 0.225 0.57 0.15 0.141 0.444 0.294 0.882 0.462l1.093 0.421c0.552 0.21 0.948 0.465 1.191 0.759 0.243 0.291 0.363 0.669 0.363 1.134 0 0.66-0.246 1.185-0.741 1.576-0.495 0.39-1.152 0.585-1.975 0.585v0.003z m4.484-0.21c-0.186 0-0.282-0.09-0.282-0.279v-6.51c0-0.186 0.096-0.279 0.282-0.279h0.825c0.186 0 0.282 0.093 0.282 0.279v6.513c0 0.183-0.096 0.276-0.282 0.276h-0.825z m0.42-8.322c-0.27 0-0.483-0.075-0.639-0.228a0.816 0.816 0 0 1-0.231-0.606c0-0.252 0.078-0.453 0.231-0.607a0.864 0.864 0 0 1 0.639-0.231c0.27 0 0.48 0.078 0.636 0.231 0.156 0.15 0.231 0.354 0.231 0.607 0 0.249-0.075 0.45-0.231 0.606-0.153 0.15-0.366 0.228-0.636 0.228z m5.855 8.475c-1.102 0-1.945-0.312-2.527-0.939-0.585-0.63-0.876-1.537-0.876-2.725 0-1.179 0.3-2.095 0.903-2.74 0.6-0.645 1.455-0.969 2.557-0.97 0.504 0 0.999 0.09 1.486 0.267 0.102 0.036 0.174 0.081 0.216 0.138s0.063 0.15 0.063 0.28v0.375c0 0.186-0.06 0.279-0.18 0.279-0.048 0-0.12-0.012-0.225-0.042a4.142 4.142 0 0 0-1.165-0.165c-0.783 0-1.35 0.195-1.695 0.591s-0.516 1.024-0.516 1.891v0.18c0 0.843 0.174 1.465 0.525 1.86 0.351 0.393 0.903 0.591 1.659 0.591 0.39 0 0.81-0.063 1.261-0.194 0.105-0.03 0.174-0.042 0.21-0.043 0.12 0 0.183 0.093 0.183 0.28v0.378c0 0.12-0.018 0.21-0.057 0.264-0.036 0.054-0.111 0.105-0.222 0.15-0.459 0.198-0.99 0.294-1.6 0.294z"/></svg>