<svg fill="#FF9900" role="img" viewBox="0 0 39 24" xmlns="http://www.w3.org/2000/svg"><title>Amazon Pay</title><path d="M23.308 0.782c-0.598-0.517-1.526-0.776-2.786-0.776-0.624 0-1.247 0.057-1.871 0.169-0.625 0.113-1.149 0.262-1.574 0.448-0.159 0.067-0.266 0.136-0.318 0.209-0.053 0.073-0.08 0.203-0.08 0.387v0.537c0 0.239 0.086 0.359 0.259 0.359a0.54 0.54 0 0 0 0.169-0.03c0.06-0.02 0.11-0.036 0.149-0.05 1.022-0.305 1.997-0.458 2.927-0.458 0.796 0 1.353 0.146 1.672 0.439 0.319 0.292 0.478 0.796 0.478 1.512v1.314c-0.929-0.226-1.765-0.338-2.509-0.338-1.167 0-2.096 0.289-2.786 0.865-0.69 0.577-1.036 1.35-1.036 2.319 0 0.903 0.279 1.622 0.837 2.16 0.557 0.538 1.313 0.805 2.268 0.806 0.571 0 1.144-0.113 1.722-0.338 0.578-0.225 1.104-0.545 1.583-0.956l0.1 0.657c0.04 0.252 0.186 0.378 0.438 0.378h0.856c0.265 0 0.399-0.133 0.399-0.398V3.19c-0.001-1.088-0.3-1.891-0.897-2.408z m-0.975 7.366c-0.438 0.332-0.896 0.584-1.373 0.757-0.478 0.173-0.936 0.259-1.374 0.258-0.518 0-0.916-0.136-1.194-0.407-0.279-0.272-0.418-0.66-0.418-1.165 0-1.155 0.75-1.732 2.249-1.732 0.345 0 0.7 0.024 1.064 0.07 0.365 0.047 0.714 0.11 1.046 0.189zM14.332 3.036c-0.193-0.644-0.468-1.191-0.827-1.643-0.358-0.451-0.796-0.797-1.313-1.035-0.517-0.239-1.094-0.358-1.732-0.358-0.597 0-1.181 0.112-1.751 0.338-0.571 0.226-1.108 0.558-1.613 0.995l-0.099-0.637c-0.04-0.265-0.193-0.398-0.459-0.398h-0.876c-0.265 0-0.398 0.133-0.398 0.398v13.397c0 0.266 0.133 0.398 0.398 0.398h1.175c0.266 0 0.398-0.133 0.397-0.398v-4.658c0.863 0.783 1.891 1.174 3.086 1.175 0.65 0 1.24-0.13 1.771-0.388 0.531-0.259 0.981-0.621 1.353-1.086 0.372-0.464 0.661-1.027 0.866-1.692 0.206-0.664 0.309-1.407 0.309-2.23 0.002-0.809-0.095-1.535-0.287-2.178zM9.863 9.016c-0.903 0-1.779-0.318-2.628-0.955V2.508c0.836-0.611 1.725-0.916 2.668-0.916 1.805 0 2.707 1.241 2.708 3.722-0.001 2.469-0.916 3.702-2.748 3.702z m20.819 3.144l4.379-11.147c0.092-0.226 0.139-0.385 0.139-0.478 0-0.159-0.093-0.239-0.279-0.239h-1.114c-0.213 0-0.358 0.034-0.439 0.1-0.08 0.067-0.159 0.213-0.239 0.439l-2.687 7.723-2.787-7.723c-0.08-0.226-0.159-0.372-0.239-0.439-0.08-0.066-0.226-0.1-0.439-0.1h-1.194c-0.186 0-0.279 0.08-0.279 0.239 0 0.093 0.046 0.252 0.139 0.478l3.842 9.475-0.378 1.015c-0.226 0.638-0.478 1.075-0.756 1.315-0.279 0.239-0.671 0.358-1.175 0.357-0.226 0-0.405-0.014-0.536-0.04-0.133-0.026-0.233-0.04-0.299-0.04-0.199 0-0.299 0.126-0.299 0.378v0.518c0 0.186 0.033 0.322 0.1 0.408 0.066 0.086 0.172 0.15 0.319 0.189 0.331 0.092 0.71 0.14 1.134 0.14 0.757 0 1.37-0.199 1.841-0.598 0.473-0.397 0.888-1.054 1.246-1.97m4.341 7.083c-4.208 3.106-10.308 4.757-15.561 4.757-7.362 0-13.992-2.722-19.008-7.251-0.394-0.356-0.043-0.842 0.431-0.566 5.412 3.149 12.106 5.046 19.019 5.046 4.664 0 9.79-0.968 14.508-2.968 0.711-0.303 1.307 0.468 0.612 0.982m1.749-1.999c0.539 0.69-0.599 3.529-1.106 4.798-0.154 0.384 0.176 0.539 0.524 0.248 2.257-1.888 2.841-5.845 2.379-6.417-0.459-0.567-4.405-1.054-6.814 0.637-0.371 0.26-0.307 0.62 0.104 0.569 1.356-0.162 4.376-0.525 4.913 0.165Z"/></svg>