<svg fill="#FF4F8B" role="img" viewBox="0 0 27 24" xmlns="http://www.w3.org/2000/svg"><title>Amazon CloudWatch</title><path d="M20.728 15.254c0-1.877-1.537-3.404-3.426-3.404-1.888 0-3.425 1.527-3.425 3.404 0 1.876 1.537 3.403 3.425 3.402 1.889 0 3.426-1.527 3.426-3.402Zm0.966 0c0 2.405-1.97 4.361-4.391 4.361-2.421 0-4.39-1.957-4.39-4.361 0-2.406 1.969-4.362 4.39-4.363 2.42 0 4.39 1.957 4.391 4.363Zm4.051 6.574l-3.365-3.01c-0.271 0.381-0.586 0.727-0.934 1.037l3.359 3.009c0.287 0.258 0.732 0.233 0.991-0.051a0.698 0.698 0 0 0-0.051-0.986Zm-8.443-1.35c2.901 0 5.26-2.343 5.26-5.224 0-2.882-2.359-5.225-5.26-5.225-2.9 0-5.26 2.343-5.259 5.225 0 2.881 2.36 5.224 5.259 5.224Zm9.211 2.977c-0.328 0.362-0.784 0.545-1.24 0.545a1.669 1.669 0 0 1-1.114-0.423L20.667 20.447a6.208 6.208 0 0 1-3.365 0.989c-3.432 0-6.224-2.773-6.224-6.182 0-3.409 2.792-6.184 6.224-6.184 3.433 0 6.225 2.774 6.225 6.183 0 0.979-0.235 1.901-0.645 2.724l3.509 3.139c0.681 0.612 0.736 1.66 0.123 2.339ZM4.514 6.909c0 0.249 0.016 0.497 0.045 0.738a0.477 0.477 0 0 1-0.394 0.529C2.977 8.481 1.025 9.403 1.025 12.166c0 2.087 1.158 3.239 2.13 3.838 0.333 0.207 0.725 0.318 1.14 0.323l5.818 0.005v0.959l-5.824-0.005a3.153 3.153 0 0 1-1.645-0.469C1.68 16.223 0.06 14.827 0.06 12.166c0-3.208 2.208-4.394 3.504-4.813a6.824 6.824 0 0 1-0.014-0.444c0-2.621 1.79-5.339 4.162-6.323 2.775-1.155 5.717-0.582 7.864 1.531a7.894 7.894 0 0 1 1.634 2.37 3.125 3.125 0 0 1 1.994-0.721c1.441 0 3.063 1.086 3.352 3.463 1.35 0.309 4.201 1.389 4.201 4.974 0 1.431-0.451 2.613-1.342 3.513l-0.688-0.672c0.708-0.715 1.066-1.67 1.066-2.841 0-3.136-2.643-3.914-3.779-4.104a0.482 0.482 0 0 1-0.395-0.555c-0.158-1.947-1.322-2.819-2.415-2.819-0.69 0-1.336 0.334-1.774 0.916a0.483 0.483 0 0 1-0.84-0.125c-0.395-1.088-0.964-2.003-1.692-2.717-1.863-1.832-4.408-2.329-6.814-1.328-2.001 0.829-3.569 3.218-3.57 5.438Z"/></svg>