<svg fill="#FF4F8B" role="img" viewBox="0 0 30 24" xmlns="http://www.w3.org/2000/svg"><title>Amazon SQS</title><path d="M9.111 13.923l1.567-1.546a0.517 0.517 0 0 0 0.003-0.734L9.114 10.076l-0.741 0.731 0.672 0.673H6.656v1.037h2.398l-0.678 0.669Zm11.956 0.049l2.088-1.559a0.52 0.52 0 0 0 0-0.83l-2.089-1.555-0.627 0.831 0.835 0.621H19.187v1.038h2.088l-0.835 0.622ZM12.497 11.999c0 1.102-0.19 2.14-0.547 3.044a8.607 8.607 0 0 1 3.057-0.542c1.059 0 2.118 0.18 3.056 0.542a8.346 8.346 0 0 1-0.545-3.044c0-1.102 0.191-2.139 0.546-3.043-1.879 0.722-4.236 0.722-6.114 0 0.357 0.905 0.548 1.942 0.548 3.043Zm-2.557 5.036a0.516 0.516 0 0 1 0-0.733c0.947-0.942 1.513-2.551 1.514-4.303 0-1.752-0.566-3.36-1.515-4.302a0.516 0.516 0 0 1 0-0.733 0.524 0.524 0 0 1 0.739 0c2.023 2.009 6.635 2.009 8.66 0a0.524 0.524 0 0 1 0.891 0.366 0.511 0.511 0 0 1-0.153 0.367c-0.947 0.942-1.513 2.551-1.514 4.302 0 1.752 0.566 3.36 1.514 4.303a0.516 0.516 0 0 1 0 0.733 0.524 0.524 0 0 1-0.738 0c-2.023-2.009-6.636-2.009-8.66 0a0.524 0.524 0 0 1-0.739 0Zm18.626-5.033c0-0.483-0.189-0.937-0.533-1.28a1.82 1.82 0 0 0-1.288-0.529c-0.466 0-0.933 0.177-1.288 0.529a1.803 1.803 0 0 0 0 2.559c0.71 0.706 1.865 0.706 2.576 0 0.345-0.341 0.533-0.796 0.533-1.278Zm0.205 2.014a2.866 2.866 0 0 1-2.026 0.832 2.866 2.866 0 0 1-2.026-0.832 2.837 2.837 0 0 1 0-4.028 2.881 2.881 0 0 1 4.052 0 2.837 2.837 0 0 1 0 4.028ZM5.077 12.014a1.815 1.815 0 0 0-1.822-1.81 1.818 1.818 0 0 0-1.821 1.81c0 0.483 0.189 0.937 0.532 1.28 0.689 0.683 1.888 0.683 2.576 0 0.345-0.342 0.534-0.796 0.535-1.28Zm0.204 2.014a2.866 2.866 0 0 1-2.027 0.832 2.867 2.867 0 0 1-2.026-0.832 2.839 2.839 0 0 1 0-4.028 2.882 2.882 0 0 1 4.053 0 2.837 2.837 0 0 1 0 4.028Zm17.491 5.722a10.999 10.999 0 0 1-7.804 3.213 10.997 10.997 0 0 1-7.803-3.212c-1.431-1.42-2.216-3.117-2.625-4.29l-0.986 0.341c0.443 1.275 1.303 3.124 2.873 4.682a12.038 12.038 0 0 0 8.541 3.516 12.038 12.038 0 0 0 8.542-3.516 12.46 12.46 0 0 0 2.959-4.685l-0.989-0.336a11.408 11.408 0 0 1-2.708 4.288ZM4.537 8.539l-0.986-0.341c0.633-1.807 1.653-3.471 2.877-4.686a12.037 12.037 0 0 1 8.539-3.512 12.035 12.035 0 0 1 8.54 3.512 12.78 12.78 0 0 1 2.958 4.688l-0.985 0.339a11.722 11.722 0 0 0-2.712-4.292 10.994 10.994 0 0 0-7.801-3.21 10.994 10.994 0 0 0-7.801 3.21c-1.113 1.107-2.047 2.631-2.629 4.292Z"/></svg>