<svg fill="#FC4C02" role="img" viewBox="0 0 45 24" xmlns="http://www.w3.org/2000/svg"><title>Amazon Fire TV</title><path d="M37.786 17.819c0.494 0.629-0.548 3.227-1.011 4.389-0.144 0.354 0.159 0.496 0.48 0.229 2.063-1.727 2.592-5.347 2.174-5.873-0.422-0.517-4.029-0.962-6.231 0.586-0.341 0.237-0.282 0.567 0.093 0.52 1.24-0.149 4.004-0.479 4.495 0.149m-1.6 1.83c-3.85 2.841-9.43 4.351-14.234 4.351-6.735 0-12.798-2.488-17.387-6.63-0.362-0.328-0.037-0.772 0.392-0.523 4.952 2.882 11.077 4.62 17.398 4.62 4.265 0 8.958-0.888 13.27-2.719 0.649-0.274 1.197 0.431 0.559 0.901m3.794-5.885a0.724 0.724 0 0 1-0.375-0.074c-0.076-0.048-0.162-0.187-0.248-0.42l-3.234-8.122a3.339 3.339 0 0 0-0.086-0.219 0.496 0.496 0 0 1-0.043-0.201c0-0.157 0.091-0.239 0.272-0.239h1.082c0.183 0 0.308 0.026 0.382 0.075 0.075 0.048 0.153 0.19 0.237 0.421l2.507 7.131 2.505-7.131c0.086-0.231 0.166-0.373 0.239-0.421a0.75 0.75 0 0 1 0.382-0.075h1.007c0.187 0 0.276 0.082 0.276 0.239a0.56 0.56 0 0 1-0.047 0.201c-0.03 0.075-0.06 0.145-0.082 0.219l-3.221 8.122c-0.084 0.231-0.168 0.371-0.246 0.42a0.724 0.724 0 0 1-0.375 0.074z m-6.797 0.127c-1.733 0-2.596-0.864-2.596-2.596V5.918h-1.317c-0.242 0-0.367-0.123-0.367-0.366v-0.458a0.41 0.41 0 0 1 0.084-0.275c0.056-0.058 0.16-0.103 0.319-0.125l1.337-0.167 0.237-2.267c0.024-0.242 0.153-0.366 0.386-0.365h0.765c0.242 0 0.366 0.123 0.365 0.365v2.231h2.38c0.242 0 0.364 0.121 0.364 0.368v0.693c0 0.242-0.119 0.366-0.364 0.366h-2.38v5.286c0 0.453 0.103 0.767 0.302 0.951 0.201 0.183 0.546 0.274 1.036 0.274 0.231 0 0.517-0.03 0.858-0.091 0.185-0.037 0.306-0.056 0.367-0.056 0.097 0 0.164 0.026 0.201 0.082 0.037 0.056 0.054 0.144 0.054 0.265v0.496a0.683 0.683 0 0 1-0.074 0.354c-0.048 0.08-0.145 0.145-0.293 0.192a5.629 5.629 0 0 1-1.664 0.22m-8.7-5.55c0.011-0.097 0.021-0.256 0.02-0.476 0-0.744-0.175-1.302-0.522-1.68-0.347-0.38-0.858-0.571-1.526-0.571-0.768 0-1.365 0.229-1.794 0.688-0.425 0.457-0.671 1.138-0.731 2.039z m-1.757 5.726c-1.498 0-2.632-0.414-3.402-1.244-0.768-0.828-1.149-2.055-1.149-3.678 0-1.548 0.38-2.751 1.149-3.613 0.77-0.858 1.843-1.289 3.223-1.289 1.156 0 2.048 0.328 2.671 0.977 0.619 0.655 0.933 1.578 0.932 2.774 0 0.392-0.032 0.787-0.093 1.19-0.026 0.144-0.063 0.242-0.12 0.291-0.054 0.05-0.144 0.075-0.264 0.074h-5.745c0.024 1.05 0.287 1.822 0.78 2.322 0.494 0.5 1.257 0.752 2.294 0.752 0.366 0 0.718-0.026 1.052-0.075a9.4 9.4 0 0 0 1.272-0.309l0.218-0.066a0.53 0.53 0 0 1 0.168-0.029c0.159 0 0.233 0.112 0.233 0.33v0.514c0 0.159-0.022 0.269-0.069 0.336a0.823 0.823 0 0 1-0.312 0.213 6.304 6.304 0 0 1-1.307 0.382 7.901 7.901 0 0 1-1.529 0.148m-10.117-0.275c-0.242 0-0.364-0.123-0.363-0.367v-8.542c0-0.242 0.119-0.364 0.363-0.364h0.806c0.119 0 0.216 0.022 0.285 0.073 0.067 0.047 0.112 0.142 0.135 0.272l0.13 1.026c0.328-0.354 0.64-0.634 0.931-0.843a3.217 3.217 0 0 1 1.902-0.602c0.147 0 0.295 0.006 0.439 0.018 0.209 0.026 0.313 0.134 0.313 0.328v0.989c0 0.218-0.108 0.33-0.332 0.33-0.108 0-0.213-0.007-0.317-0.019a3.055 3.055 0 0 0-0.336-0.018c-0.977 0-1.815 0.293-2.51 0.876v6.476c0 0.244-0.123 0.367-0.364 0.367z m-4.194 0c-0.242 0-0.366-0.123-0.366-0.367v-8.542c0-0.242 0.123-0.364 0.366-0.364h1.08c0.242 0 0.364 0.119 0.363 0.364v8.542c0 0.244-0.121 0.367-0.363 0.367z m0.55-10.922c-0.354 0-0.632-0.101-0.834-0.298a1.084 1.084 0 0 1-0.3-0.798c0-0.328 0.101-0.593 0.298-0.795 0.205-0.203 0.479-0.304 0.836-0.304 0.353 0 0.629 0.101 0.832 0.304 0.2 0.201 0.298 0.466 0.298 0.795a1.084 1.084 0 0 1-0.298 0.796 1.134 1.134 0 0 1-0.832 0.3m-6.761 10.922c-0.246 0-0.367-0.123-0.367-0.367v-7.479H0.483c-0.242 0-0.364-0.123-0.364-0.368v-0.456c0-0.121 0.026-0.213 0.08-0.275 0.056-0.062 0.164-0.103 0.323-0.13l1.315-0.162v-1.5c0-2.035 0.975-3.055 2.928-3.055 0.463 0 0.951 0.067 1.462 0.203 0.134 0.035 0.228 0.088 0.284 0.164 0.054 0.071 0.082 0.2 0.082 0.383v0.475c0 0.231-0.09 0.347-0.276 0.347-0.108 0-0.261-0.019-0.463-0.054-0.205-0.037-0.429-0.056-0.688-0.056-0.56 0-0.951 0.106-1.181 0.321-0.226 0.214-0.338 0.565-0.337 1.052v1.684h2.469c0.244 0 0.367 0.119 0.367 0.364v0.695c0 0.242-0.123 0.367-0.367 0.368H3.648v7.479c0 0.244-0.121 0.367-0.366 0.367Z"/></svg>