<svg fill="#FF9900" role="img" viewBox="0 0 25 24" xmlns="http://www.w3.org/2000/svg"><title>Amazon EC2</title><path d="M6.929 17.571h10.714V6.857H6.929v10.714ZM18.5 6.857h1.714v0.857H18.5V9.43h1.714v0.857H18.5v1.285h1.714v0.858H18.5v1.714h1.714V15H18.5v1.714h1.714v0.857H18.5v0.059a0.8 0.8 0 0 1-0.799 0.799h-0.058v1.714h-0.857v-1.714H15.07v1.714h-0.857v-1.714H12.93v1.714h-0.858v-1.714H10.357v1.714H9.5v-1.714H7.786v1.714h-0.857v-1.714H6.87a0.8 0.8 0 0 1-0.799-0.8v-0.058H4.786v-0.857H6.07V15H4.786v-0.857H6.07v-1.714H4.786v-0.858H6.07v-1.285H4.786v-0.857H6.07V7.714H4.786v-0.857H6.07V6.8a0.8 0.8 0 0 1 0.8-0.799h0.058V4.286h0.857V6H9.5V4.286h0.857V6h1.714V4.286h0.858V6h1.285V4.286h0.857V6h1.715V4.286h0.857V6h0.058a0.8 0.8 0 0 1 0.799 0.799v0.058ZM12.929 23.09a0.054 0.054 0 0 1-0.054 0.053H1.41a0.053 0.053 0 0 1-0.053-0.053V11.625c0-0.03 0.024-0.054 0.053-0.054h2.52v-0.857H1.41a0.911 0.911 0 0 0-0.91 0.91V23.09c0 0.502 0.408 0.91 0.91 0.91h11.465a0.91 0.91 0 0 0 0.91-0.91V21h-0.856ZM24.5 0.91v11.465a0.91 0.91 0 0 1-0.91 0.91h-2.52v-0.856h2.519a0.054 0.054 0 0 0 0.053-0.054V0.91a0.053 0.053 0 0 0-0.053-0.053H12.125a0.053 0.053 0 0 0-0.054 0.053v2.52h-0.857V0.91c0-0.502 0.409-0.91 0.91-0.91H23.59a0.91 0.91 0 0 1 0.91 0.91Z"/></svg>