<svg fill="#66459B" role="img" viewBox="0 0 37 24" xmlns="http://www.w3.org/2000/svg"><title>Amazon Lumberyard</title><path d="M20.206 0a3.379 3.379 0 0 0-0.662 0.063 3.204 3.204 0 0 0-2.614 3.297c-0.105 0.084-0.209 0.173-0.3 0.267l-0.315 0.329c-0.206 0.21-0.415 0.418-0.627 0.625-0.424 0.412-0.862 0.813-1.302 1.219-0.877 0.811-1.781 1.634-2.591 2.576a10.964 10.964 0 0 0-1.096 1.523 7.359 7.359 0 0 0-0.976 2.69 5.602 5.602 0 0 0-0.06 0.486l-0.012 0.121-0.006 0.111-0.008 0.225-0.003 0.057-0.003 0.074v0.117l0.003 0.24 0.009 0.228c-1.328-0.44-3.189-0.722-4.782-0.702-1.855 0.02-3.202 0.41-3.887 1.126a1.712 1.712 0 0 0-0.495 1.265c0.051 1.427 1.678 2.269 4.373 2.269h0.15c1.888-0.023 4.148-0.523 5.427-1.152a3.086 3.086 0 0 1 0.105 1.637 2.496 2.496 0 0 1-0.263 0.698 2.157 2.157 0 0 1-0.466 0.561 2.178 2.178 0 0 1-0.629 0.36 2.733 2.733 0 0 1-0.751 0.15l0.071 0.952h0.018c1.961 1.158 2.371 2.436 2.613 2.557 0.323 0.158 1.536-0.282 1.317-1.283-0.129-0.589-0.819-1.014-1.464-1.293 0.12-0.012 0.24-0.03 0.357-0.048a0.799 0.799 0 0 0 0.077-0.003l0.075-0.015 0.075-0.017a8.11 8.11 0 0 0 0.351-0.064l0.006-0.003c1.84-0.378 3.484-1.071 4.81-1.978 1.361 0.864 2.839 2.1 3.334 3.229-0.045 0.194-0.207 0.392-0.392 0.411l0.501 0.929c1.583-0.799 2.717-0.357 3.494 0.003l0.267 0.136c0.041 0.023 0.005 0 0.041 0.024l0.132-0.046c0.225-0.143 0.804-0.682 0.661-1.232-0.18-0.68-0.623-0.94-1.052-0.863-0.43 0.078-1.517 0.76-1.434 0.105l-0.006-0.005c0.063-0.496 0.132-1.385 0.006-2.391-0.24-1.873-1.065-3.325-2.394-4.231a5.272 5.272 0 0 0 0.209-0.931c0.922 0.324 1.813 0.584 2.963 0.688 0.415 0.038 1.355 0.045 2.062 0.038l0.096 0.356a0.015 0.015 0 0 0 0.021 0.009l0.385-0.139a0.772 0.772 0 0 1 0.105-0.036c0.033-0.009 0.051-0.009 0.052 0.018-0.006 0.075-0.026 0.18-0.034 0.221l-0.086 0.431-0.046 0.249c-0.009 0.093 0.047 0.144 0.16 0.1 0.099-0.045 0.23-0.107 0.236-0.112 0.658-0.273 1.371-0.665 2.029-0.944 0.315-0.132 0.466-0.451 0.529-0.757a1.877 1.877 0 0 0-0.012-0.607l1.038 0.087 0.006-0.009 0.311-0.829 0.883 0.087 0.311-0.829 0.88 0.087 0.311-0.83 0.88 0.09 0.311-0.829 0.883 0.088 0.308-0.83 0.883 0.088 0.308-0.83 0.519 0.053 0.129-0.76 0.003-0.03-0.449-2.124-12.59 4.979a0.045 0.045 0 0 0-0.015 0.07l0.572 0.575c0.011 0.012 0.026 0.015 0.045 0.012l0.256-0.085a0.156 0.156 0 0 1 0.195 0.085l0.144 0.352s0.015 0.045-0.062 0.045l-0.076-0.005a10.566 10.566 0 0 1-0.308-0.016 5.159 5.159 0 0 1-0.563-0.08c-0.093-0.015-0.185-0.045-0.277-0.064-0.09-0.023-0.183-0.051-0.274-0.077l-0.271-0.096-0.264-0.113a6.748 6.748 0 0 1-0.52-0.259c-0.086-0.048-0.17-0.095-0.255-0.151a16.995 16.995 0 0 1-0.756-0.498c-0.167-0.117-0.336-0.24-0.504-0.361l-0.033-0.027c0.189-2.227 0.784-3.151 1.252-3.532a1.22 1.22 0 0 1 0.535-0.263 2.751 2.751 0 0 0-0.033 0.571l0.652 0.051 0.046-0.165c0.012-0.054 0.032-0.105 0.047-0.158 0.015-0.054 0.038-0.105 0.056-0.156 0.017-0.051 0.045-0.099 0.061-0.151 0.02-0.05 0.048-0.096 0.071-0.148 0.023-0.045 0.053-0.098 0.076-0.147 0.056-0.098 0.113-0.201 0.176-0.301l0.195-0.324c0.063-0.113 0.129-0.225 0.189-0.349 0.03-0.063 0.06-0.125 0.089-0.19 0.029-0.066 0.056-0.128 0.081-0.203l0.036-0.105 0.021-0.053 0.015-0.046 0.023-0.091 0.015-0.045 0.003-0.009 0.012-0.039 0.007-0.045 0.006-0.042v-0.06c0-0.023 0-0.03-0.009-0.075a0.351 0.351 0 0 0-0.01-0.045l-0.015-0.041a2.2 2.2 0 0 0-0.601-0.911 3.319 3.319 0 0 0-0.321-0.262l0.225 0.01c0.219 0.008 0.401 0.012 0.529 0.012 0.128 0.003 0.2 0 0.199 0l0.08-0.793s-0.075-0.015-0.203-0.035a11.892 11.892 0 0 0-0.53-0.08l-0.09-0.012 0.072-0.015a3.394 3.394 0 0 0-3.265-2.632z m0.153 0.966a2.433 2.433 0 0 1 2.094 1.59l-0.578-0.04a31.145 31.145 0 0 0-0.869-0.045 29.921 29.921 0 0 0-0.763-0.015l-0.31 0.003c-0.093 0-0.162 0.005-0.229 0.006l-0.202 0.009v0.003c-0.039 0-0.078 0-0.118 0.003a4.674 4.674 0 0 0-1.462 0.326 2.223 2.223 0 0 1 0.911-1.427c0.021-0.003 0.044-0.005 0.071-0.015 0.038-0.005 0.081-0.008 0.129-0.015 0.045 0 0.095-0.011 0.15-0.008h0.17c0.059 0.009 0.119 0.014 0.179 0.021 0.06 0.015 0.126 0.018 0.187 0.035 0.06 0.018 0.123 0.033 0.182 0.06a1.502 1.502 0 0 1 0.173 0.069c0.057 0.024 0.105 0.057 0.156 0.083 0.045 0.03 0.096 0.059 0.135 0.088a1.712 1.712 0 0 1 0.225 0.188 0.051 0.051 0 0 1 0.015 0.016l0.385-0.265-0.015-0.033a2.238 2.238 0 0 0-0.246-0.311c-0.045-0.05-0.095-0.095-0.148-0.148-0.056-0.045-0.11-0.099-0.175-0.145z m-0.725 2.47h0.1l0.111 0.003c0.264 0.012 0.548 0.045 0.819 0.096 0.545 0.105 1.083 0.279 1.557 0.532 0.234 0.126 0.455 0.273 0.631 0.44a1.382 1.382 0 0 1 0.314 0.421l-0.003 0.019-0.015 0.047-0.012 0.033-0.022 0.069c-0.015 0.045-0.041 0.099-0.062 0.15-0.018 0.05-0.042 0.101-0.065 0.153-0.021 0.051-0.051 0.102-0.076 0.155l-0.075 0.159a10.105 10.105 0 0 0-0.172 0.337l-0.039 0.076c-0.155-0.018-0.76-0.057-1.411 0.446-0.832 0.646-1.367 1.877-1.592 3.675-0.038-0.026-0.069-0.054-0.105-0.075a15.545 15.545 0 0 0-0.546-0.347l-0.279-0.166-0.287-0.157a9.106 9.106 0 0 0-1.194-0.525 4.401 4.401 0 0 0-0.311-0.096 5.263 5.263 0 0 0-0.317-0.09c-0.105-0.027-0.213-0.06-0.315-0.077l-0.309-0.062-0.13 0.478c0.2 0.071 0.403 0.135 0.585 0.21 0.09 0.035 0.185 0.075 0.277 0.116a8.361 8.361 0 0 1 0.813 0.402 10.063 10.063 0 0 1 0.523 0.305l0.255 0.167 0.249 0.17 0.247 0.18 0.246 0.183c0.164 0.123 0.324 0.249 0.487 0.379l0.486 0.39c0.33 0.261 0.668 0.526 1.03 0.775 0.089 0.06 0.18 0.12 0.274 0.179a6.945 6.945 0 0 0 0.88 0.489c0.102 0.048 0.209 0.09 0.314 0.136 0.105 0.041 0.213 0.075 0.321 0.114 0.111 0.033 0.221 0.069 0.332 0.097 0.113 0.026 0.222 0.053 0.335 0.074 0.225 0.039 0.455 0.068 0.683 0.084 0.113 0.005 0.225 0.012 0.341 0.012l0.14-0.003a0.861 0.861 0 0 0 0.372-0.094l0.083-0.041s0.078-0.045 0.15-0.105a1.398 1.398 0 0 1 0.196-0.168 0.749 0.749 0 0 1 0.267-0.121 0.436 0.436 0 0 1 0.233 0.012c0.02 0.009 0.038 0.011 0.058 0.022a0.562 0.562 0 0 1 0.059 0.031l0.009 0.003a1.352 1.352 0 0 1 0.01 0.11 1.367 1.367 0 0 1-0.007 0.272 1.081 1.081 0 0 1-0.443 0.75l-0.003 0.003a2.365 2.365 0 0 1-0.113 0.077c-0.039 0.027-0.081 0.044-0.123 0.068-0.042 0.024-0.09 0.042-0.135 0.061l-0.117 0.047a5.527 5.527 0 0 1-0.056-0.343 26.785 26.785 0 0 1-1.937-0.036c-1.332-0.12-2.277-0.466-3.47-0.901a34.323 34.323 0 0 0-2.712-0.893 1.347 1.347 0 0 0-1.676 0.883c-0.128 0.415-0.129 0.943-0.008 1.575 0.372 1.925 0.383 3.441 0.026 4.162a12.871 12.871 0 0 1-3.602 1.292h-0.006l-0.138 0.03-0.197 0.034a6.533 6.533 0 0 1-0.658 0.078 3.169 3.169 0 0 0 0.391-0.525c0.174-0.303 0.3-0.635 0.375-0.974a4.051 4.051 0 0 0-0.165-2.256c-0.024-0.08-0.06-0.158-0.09-0.234-0.03-0.078-0.072-0.153-0.108-0.228l-0.093-0.203a4.208 4.208 0 0 1-0.258-0.754 5.396 5.396 0 0 1-0.133-0.811 6.503 6.503 0 0 1-0.027-0.417l-0.003-0.211v-0.145l0.006-0.056 0.015-0.225 0.006-0.113 0.009-0.099c0.014-0.135 0.027-0.27 0.053-0.407a6.388 6.388 0 0 1 0.844-2.347c0.287-0.485 0.626-0.946 1-1.385 0.752-0.879 1.628-1.682 2.508-2.493 0.44-0.409 0.88-0.82 1.318-1.244 0.216-0.21 0.437-0.425 0.648-0.646l0.047-0.052 0.051 0.06c0.078 0.089 0.159 0.197 0.285 0.3 0.11 0.11 0.252 0.216 0.412 0.317a3.181 3.181 0 0 0 0.845 0.373 5.317 5.317 0 0 0 0.977 0.175 7.08 7.08 0 0 0 1.086 0l-0.006-0.416a6.646 6.646 0 0 1-1.007-0.135 4.725 4.725 0 0 1-0.826-0.27 2.208 2.208 0 0 1-0.227-0.114 2.377 2.377 0 0 1-0.378-0.256 1.804 1.804 0 0 1-0.258-0.261c-0.074-0.078-0.116-0.161-0.161-0.222-0.039-0.065-0.06-0.12-0.083-0.156 0-0.005-0.005-0.006-0.006-0.011l0.075-0.048 0.088-0.044a3.741 3.741 0 0 1 1.123-0.381 3.815 3.815 0 0 1 0.592-0.047z m0.781 0.727c-0.326 0.014-0.583 0.195-0.571 0.406 0.014 0.21 0.29 0.372 0.617 0.36 0.33-0.012 0.584-0.195 0.569-0.405-0.011-0.209-0.285-0.369-0.612-0.361zM35.411 7.855l0.078 0.429a0.135 0.135 0 0 1-0.158 0.17c-0.048-0.009-0.095 0.008-0.111 0.053l-0.288 0.769-0.883-0.089-0.308 0.831-0.883-0.09-0.308 0.832-0.883-0.091-0.308 0.833-0.883-0.091-0.311 0.831-0.88-0.09-0.275 0.736a0.138 0.138 0 0 1-0.144 0.087l-0.071-0.006c-0.054-0.006-0.381-0.036-0.398-0.089l-0.814-1.9z m-9.038 3.747c0.276-0.02 0.458 0.116 0.582 0.361 0.02 0.015 0.731 1.822 0.72 1.794a0.556 0.556 0 0 1-0.075 0.655c-0.125 0.143-0.421 0.24-0.603 0.316-0.098 0.044-0.099-0.02-0.135-0.122l-0.079-0.23 0.036-0.063a2.148 2.148 0 0 0 0.207-0.676 2.29 2.29 0 0 0-0.011-0.686l-0.024-0.114-0.015-0.059-0.018-0.073v-0.003a0.452 0.452 0 0 0-0.151-0.223 1.937 1.937 0 0 0-0.415-0.258 1.075 1.075 0 0 0-0.164-0.062c-0.059-0.017-0.116-0.036-0.175-0.045a1.305 1.305 0 0 0-0.176-0.016l-0.03-0.003c-0.024-0.011-0.069-0.092-0.05-0.129a0.676 0.676 0 0 1 0.576-0.364z m-9.829 1.648a0.381 0.381 0 0 1 0.003 0 0.457 0.457 0 0 1 0.162 0.015c0.954 0.264 1.727 0.539 2.41 0.787-0.113 1.55-1.089 3.019-2.638 4.164 0.134-1.122-0.042-2.495-0.255-3.592-0.114-0.596-0.071-0.937-0.015-1.119a0.381 0.381 0 0 1 0.333-0.255z m-11.671 1.306c1.681-0.021 3.746 0.336 4.931 0.835l0.015 0.068a5.32 5.32 0 0 0 0.207 0.67c-1.02 0.523-3.139 1.047-5.036 1.066-1.723 0.018-3.469-0.375-3.502-1.291a0.706 0.706 0 0 1 0.219-0.532c0.478-0.502 1.636-0.799 3.166-0.816z m14.644 1.687c2.274 1.715 1.897 5.063 1.784 5.79l-0.323 0.067c-0.646-1.467-2.388-2.797-3.403-3.475 0.838-0.712 1.502-1.517 1.942-2.382z"/></svg>