<svg fill="#9146FF" role="img" viewBox="0 0 25 24" xmlns="http://www.w3.org/2000/svg"><title>Amazon Luna</title><path d="M22.443 15.468a4.667 4.667 0 0 0-0.831-0.375h-0.004c-0.044-0.015-0.088-0.025-0.132-0.038-0.518-0.159-2.446-0.866-3.544-2.866v0.002l-1.963-3.397c-0.825-1.448-0.686-3.755-0.596-4.628a4.605 4.605 0 0 0 0.04-0.331 0.271 0.271 0 0 0 0.004-0.021h-0.002c0.006-0.078 0.012-0.155 0.012-0.235-0.002-1.976-1.603-3.579-3.579-3.579s-3.579 1.603-3.579 3.579c0 0.078 0.008 0.157 0.011 0.235h-0.004s0.002 0.017 0.006 0.046c0.008 0.092 0.019 0.18 0.033 0.269 0.092 0.852 0.25 3.248-0.618 4.712h0.002l-2.811 4.867v-0.004l-0.032 0.06-0.264 0.458c-0.021 0.038-0.036 0.078-0.057 0.117-0.29 0.503-0.734 1.229-1.221 1.886-0.407 0.55-1.043 1.093-1.668 1.46l0.007 0.002c-0.057 0.029-0.117 0.053-0.172 0.087a2.441 2.441 0 0 0-0.878 0.891c-0.682 1.181-0.277 2.692 0.903 3.374 0.617 0.357 1.322 0.409 1.955 0.216l-0.004 0.006c1.089-0.38 2.28-0.715 2.889-0.854 1.022-0.233 2.536-0.29 3.396-0.302h0.978c4.366 0.042 6.579 1.894 6.579 1.894l0.004-0.004c0.178 0.141 0.361 0.275 0.564 0.391 2.186 1.263 4.983 0.514 6.244-1.674 1.269-2.186 0.52-4.983-1.668-6.244z m-5.127 2.31c-0.457 0.789-1.106 1.179-2.184 1.261-1.078 0.082-1.311 0.145-3.284 0.146-1.974 0-2.272-0.061-3.285-0.146-1.011-0.084-1.727-0.472-2.184-1.261-0.457-0.789-0.419-1.691 0-2.522 0.418-0.831 0.686-1.473 1.464-2.82 0.778-1.347 1.087-1.857 1.819-2.869 0.734-1.011 1.273-1.261 2.184-1.261 0.911 0 1.492 0.338 2.184 1.261 0.692 0.923 0.889 1.28 1.746 2.767s1.076 1.989 1.536 2.922c0.464 0.932 0.459 1.733 0.004 2.522z"/></svg>