<svg fill="#FF9900" role="img" viewBox="0 0 27 24" xmlns="http://www.w3.org/2000/svg"><title>Amazon</title><path d="M0.337 18.628c0.079-0.128 0.206-0.137 0.383-0.024 4.004 2.323 8.362 3.486 13.07 3.486 3.14 0 6.241-0.587 9.3-1.756l0.347-0.154c0.152-0.066 0.258-0.11 0.323-0.144 0.249-0.097 0.429-0.051 0.578 0.144 0.132 0.192 0.099 0.37-0.132 0.528-0.282 0.209-0.661 0.451-1.108 0.72-1.37 0.818-2.907 1.449-4.608 1.901a19.398 19.398 0 0 1-12.058-0.636 19.687 19.687 0 0 1-5.979-3.688c-0.11-0.081-0.166-0.165-0.166-0.243 0-0.052 0.023-0.099 0.056-0.143z m7.228-6.846c0-1.107 0.272-2.051 0.818-2.838 0.545-0.782 1.288-1.376 2.246-1.778 0.876-0.369 1.934-0.633 3.207-0.793 0.429-0.051 1.137-0.113 2.114-0.192v-0.407c0-1.024-0.116-1.715-0.33-2.064-0.333-0.473-0.859-0.716-1.586-0.716h-0.2c-0.529 0.051-0.987 0.216-1.372 0.506-0.385 0.297-0.633 0.694-0.744 1.207-0.066 0.33-0.227 0.512-0.479 0.562l-2.774-0.347c-0.273-0.066-0.41-0.198-0.41-0.43 0-0.051 0.008-0.099 0.024-0.165 0.272-1.42 0.941-2.477 2.004-3.171 1.075-0.678 2.312-1.074 3.733-1.156h0.595c1.817 0 3.256 0.478 4.281 1.42 0.149 0.165 0.297 0.33 0.446 0.529 0.132 0.182 0.247 0.346 0.311 0.495 0.083 0.148 0.165 0.363 0.215 0.628 0.066 0.28 0.116 0.462 0.149 0.562 0.033 0.115 0.068 0.33 0.083 0.677 0.011 0.345 0.022 0.543 0.022 0.609v5.813c0 0.414 0.066 0.793 0.182 1.141 0.116 0.345 0.231 0.595 0.347 0.742l0.561 0.742c0.099 0.15 0.15 0.282 0.15 0.397 0 0.132-0.066 0.249-0.198 0.345-1.321 1.156-2.048 1.784-2.162 1.883-0.182 0.149-0.413 0.165-0.693 0.05a6.675 6.675 0 0 1-0.579-0.546l-0.342-0.382a10.34 10.34 0 0 1-0.349-0.463l-0.33-0.479c-0.892 0.976-1.765 1.586-2.643 1.834-0.544 0.165-1.203 0.25-2.015 0.249-1.222 0-2.246-0.378-3.039-1.138-0.793-0.76-1.189-1.833-1.189-3.237l-0.055-0.084z m4.133-0.483c0 0.623 0.154 1.123 0.467 1.502 0.314 0.374 0.743 0.564 1.272 0.564 0.05 0 0.117-0.008 0.215-0.022 0.099-0.018 0.148-0.025 0.183-0.025 0.676-0.176 1.189-0.609 1.568-1.297 0.182-0.308 0.314-0.639 0.396-1.002 0.099-0.352 0.132-0.65 0.149-0.881 0.017-0.215 0.017-0.595 0.016-1.107v-0.594c-0.925 0-1.634 0.066-2.114 0.198-1.404 0.396-2.114 1.288-2.114 2.675l-0.038-0.022z m10.088 7.738c0.033-0.066 0.083-0.121 0.145-0.188 0.399-0.268 0.786-0.451 1.156-0.55a8.912 8.912 0 0 1 1.775-0.264c0.154-0.013 0.308 0 0.452 0.033 0.716 0.066 1.156 0.185 1.29 0.363 0.069 0.099 0.109 0.251 0.109 0.429v0.166c0 0.562-0.164 1.222-0.467 1.982-0.306 0.76-0.731 1.374-1.273 1.849-0.08 0.066-0.154 0.099-0.217 0.1-0.033 0-0.066 0-0.099-0.014-0.099-0.048-0.118-0.132-0.07-0.264 0.595-1.387 0.887-2.36 0.887-2.907 0-0.165-0.033-0.297-0.096-0.379-0.16-0.183-0.606-0.283-1.347-0.283-0.268 0-0.587 0.018-0.958 0.051-0.4 0.05-0.771 0.099-1.101 0.149-0.099 0-0.163-0.015-0.198-0.049-0.033-0.033-0.04-0.052-0.022-0.085 0-0.019 0.007-0.033 0.022-0.069v-0.066z"/></svg>