<svg fill="#ED1C24" role="img" viewBox="0 0 101 24" xmlns="http://www.w3.org/2000/svg"><title>AMD</title><path d="M77.006 0l6.535 6.539h10.713v10.717L100.797 23.795V0zM8.586 1.605l-8.383 20.79h5.487l1.55-4.116H16.55l1.71 4.116h5.608L14.588 1.605z m17.642 0v20.769h5.189v-12.96l5.608 6.547h0.788l5.608-6.522v12.956h5.189V1.605H44.087l-6.673 7.733L30.746 1.605z m26.334 0v20.79h8.622c8.295 0 12.071-4.384 12.071-10.361 0-5.7-3.927-10.428-11.514-10.429z m5.185 3.814h3.32c4.904 0 6.832 2.98 6.832 6.581 0 3.051-1.559 6.589-6.774 6.589h-3.378z m-46.043 1.145l3.316 8.098H8.619z m71.828 1.287l-6.723 6.718v9.431h9.414l6.723-6.736h-9.414z"/></svg>