<svg fill="#0078D2" role="img" viewBox="0 0 25 24" xmlns="http://www.w3.org/2000/svg"><title>American Airlines</title><path d="M0.251 0h3.332c1.406 0 1.982 0.575 2.551 1.139 0.65 0.592 2.623 3.262 6.795 8.475H8.414c-1.847 0-2.429-0.314-3.144-1.403z m10.64 17.426l-2.477-4.096c-0.298-0.464-0.38-0.872-0.38-1.345 0-0.521 0.222-0.806 1.075-1.259 0.993-0.476 2.994-0.684 5.057-0.684 3.351 0 4.154 1.077 4.496 2.238 0 0-0.474-0.189-1.586-0.189-3.531 0-6.352 1.715-6.352 4.308 0 0.545 0.167 1.027 0.167 1.027z m5.039-3.488c-2.6 0.091-5.136 1.908-5.039 3.487l2.756 4.579c0.853 1.372 2.261 1.996 4.014 1.996H24.749l-8.299-10.056a5.665 5.665 0 0 0-0.52-0.006Z"/></svg>