<svg fill="#000000" role="img" viewBox="0 0 243 24" xmlns="http://www.w3.org/2000/svg"><title>AMG</title><path d="M242.928 10.93a1.23 1.23 0 0 0-1.285-1.286H218.715a1.23 1.23 0 0 0-1.286 1.285v1.929a1.436 1.436 0 0 0 1.285 1.499h14.359c0.857 0 0.857 0.429 0.857 1.5v0.204c0 1.071 0 1.286-0.857 1.286h-29.356a1.23 1.23 0 0 1-1.286-1.285v-8.346a1.23 1.23 0 0 1 1.285-1.286h37.711a1.23 1.23 0 0 0 1.285-1.286v-3.215a1.23 1.23 0 0 0-1.285-1.285h-46.71a1.23 1.23 0 0 0-1.285 1.285v20.785a1.23 1.23 0 0 0 1.285 1.285h46.71a1.23 1.23 0 0 0 1.285-1.285v-11.784m-74.563 5.57a3.198 3.198 0 0 1-1.929 0.858h-6a3.198 3.198 0 0 1-1.93-0.858l-11.354-7.285c-0.643-0.428-1.286-0.215-1.286 0.642v12.214a1.23 1.23 0 0 1-1.286 1.286h-6.001a1.436 1.436 0 0 1-1.498-1.285v-20.785c0-0.857 0.641-1.285 1.498-1.285h6.429a5.127 5.127 0 0 1 1.928 0.641l15.429 10.071a1.606 1.606 0 0 0 1.928 0l15.426-10.071a2.996 2.996 0 0 1 1.93-0.642h6.429a1.23 1.23 0 0 1 1.284 1.286v20.785a1.23 1.23 0 0 1-1.284 1.285h-6a1.436 1.436 0 0 1-1.502-1.285v-12.215q0-1.286-1.285-0.642z m-66.853-10.286c-0.429 0-0.642 0.205-1.071 0.644l-3.643 4.717c-0.216 0.429 0 0.643 0.205 0.643h26.356c0.857 0 0.857-0.429 0.857-1.071v-3.217c0-1.072 0-1.5-0.857-1.5h-21.847z m-15.427 17.357h-7.722a0.721 0.721 0 0 1-0.643-1.071L94.002 1.072a2.171 2.171 0 0 1 1.5-0.857h35.569a1.658 1.658 0 0 1 1.5 1.714v20.356a1.23 1.23 0 0 1-1.285 1.286h-6.001a1.23 1.23 0 0 1-1.285-1.285V19.286c0-0.857 0-1.073-0.858-1.072H91.869a1.436 1.436 0 0 0-1.287 0.857v0.205l-2.356 2.998a3.721 3.721 0 0 1-2.357 1.287z m-15.642 0a3.255 3.255 0 0 0 2.142-1.285l16.07-20.785c0.644-0.857 0.205-1.5-0.429-1.5h-3.214a2.171 2.171 0 0 0-1.499 0.857l-16.5 21.427a0.725 0.725 0 0 0 0.644 1.072h2.786z m-11.141 0a3.258 3.258 0 0 0 2.141-1.285l16.07-20.785c0.642-0.857 0.216-1.5-0.429-1.5h-4.5a2.171 2.171 0 0 0-1.5 0.857L54.37 22.285a0.725 0.725 0 0 0 0.644 1.072h4.072z m-18.215 0a0.721 0.721 0 0 1-0.642-1.071L56.728 1.072a2.165 2.165 0 0 1 1.5-0.857h6.641c0.857 0 1.073 0.644 0.429 1.501l-16.072 20.785a2.922 2.922 0 0 1-2.142 1.285h-6.215z m-15.213 0a0.721 0.721 0 0 1-0.641-1.071L41.516 1.072a2.171 2.171 0 0 1 1.499-0.857h8.785c0.857 0 1.071 0.644 0.429 1.501l-16.07 20.785a2.922 2.922 0 0 1-2.143 1.285h-8.357z m-24.855 0a0.721 0.721 0 0 1-0.642-1.071L16.66 1.072a2.171 2.171 0 0 1 1.5-0.857h19.497c0.857 0 1.073 0.644 0.429 1.501l-16.07 20.785a2.922 2.922 0 0 1-2.141 1.285H0.799Z"/></svg>