<svg fill="#ED1D24" role="img" viewBox="0 0 71 24" xmlns="http://www.w3.org/2000/svg"><title>Amul</title><path d="M14.461 11.336c-0.304-1.293-1.594-4.356-2.295-5.244-0.117-0.091-0.181-0.134-0.228-0.198l-2.096 5.103s1.095 0.266 2.324 0.432c0.791 0.088 1.629 0.088 2.295-0.093z m49.634-4.651v10.324c0 2.044-0.823 1.723-1.124 1.79l3.53 2.972L70.536 18.53c-0.041-0.251-0.184-0.499-0.362-0.569-1.387 0.858-1.293-0.882-1.293-0.882V4.781c0-1.542-2.724-3.203-3.752-2.879l-3.807 3.787c0.044 0.158 0.175 0.473 0.592 0.543 1.781-1.635 2.181 0 2.181 0.453z m-16.28 6.376v4.38c0 1.542-0.584 1.25-1.016 1.425 1.203 0.636 2.838 1.95 4.245 2.951l4.222-2.674 3.133 2.745 3.696-3.609s-0.047-0.526-0.496-0.499c-1.296 1.273-1.679-0.841-1.679-0.841v-5.352c0-2.339-3.001-2.861-3.632-2.838l-3.022 2.949a1.168 1.168 0 0 0 0.567 0.482c1.413-1.115 1.655 0.496 1.655 0.496v4.379c-0.041 1.81-3.328 2.473-3.328 0.024v-6.102c-0.277-1.682-2.663-2.613-3.002-2.318l-3.448 2.837c0.161 0.272 0.175 0.596 0.605 0.546 1.527-1.072 1.501 1.019 1.5 1.019z m-22.788-0.838v4.765c0 1.314-0.975 1.29-1.284 1.358l3.719 3.223 3.583-3.153a1.422 1.422 0 0 0-0.336-0.52c-0.593 0.312-1.042 0.134-1.042-0.642v-4.829c0.315-1.495 2.447-1.159 2.446-0.137v4.951c-0.053 0.993-0.455 1.425-0.905 1.562l3.375 2.792 3.63-3.046c-0.058-0.248-0.058-0.467-0.377-0.583-0.362 0.023-1.042 0.73-1.042-0.841v-4.721c0.747-1.907 2.584-0.905 2.656 0.16v4.426c-0.026 1.042-0.216 1.702-1.068 1.994l3.515 2.745 3.726-3.358c0-0.225-0.321-0.458-0.438-0.519-1.223 1.063-1.156-0.277-1.174-0.482v-6.102c-0.05-1.066-2.044-3.285-4.701-2.286l-2.657 1.95c-1.413-2.406-3.474-2.473-4.023-2.336-0.899 0.128-2.809 2.447-3.03 2.082-0.841-2.082-3.074-2.126-3.53-2.061l-3.124 2.698c0.158 0.342 0.412 0.385 0.584 0.452 0.844-0.496 1.416-0.385 1.497 0.458z m-16.265 1.434l-0.975 2.645 2.306 1.478c0.327 0.207 0.739 0.07 1.39-0.526l0.458 0.458c-1.042 1.197-2.131 2.336-3.2 3.539-1.407-1.29-3.066-2.561-4.653-2.56-1.834 0.038-3.542 1.81-1.77 5.013 0.05 0.064-0.274 0.403-0.455 0.262-1.358-1.153-1.904-4.327-0.835-6.116 0.747-1.159 2.102-2.292 4.417-2.024l0.914-2.481c-0.838-0.33-1.746 0-2.885 0.899 0.385-1.956 1.609-3.317 4.123-3.656l2.575-6.172c-1.363-0.546-2.636 0.117-3.27 1.273-0.385-0.05-0.657-0.184-0.73-0.429l2.637-4.905c1.285-0.447 2.385-0.447 3.36-0.14 4.017 1.273 6.035 8.058 9.045 15.547 0.277 0.724 0.645 0.791 1.507-0.134l0.613 0.543-5.431 5.401-2.499-7.468c0 0.064-1.218 0.365-3.232 0.184a16.496 16.496 0 0 1-3.41-0.631z"/></svg>