<svg fill="#13448F" role="img" viewBox="0 0 96 24" xmlns="http://www.w3.org/2000/svg"><title>ANA</title><path d="M76.2 0l-13.699 23.996h13.612l13.704-23.996z m15.6 0l-13.704 23.996h3.804L95.595 0z m-39.703 3.098H59.106l1.598 20.902h-5.196l-0.099-2.3a0.817 0.817 0 0 0-0.801-0.901h-7.405l1.701-3.002h4.8c0.599 0 1.301 0.103 1.3-0.801l-0.801-9.401c0-0.595-0.5-0.896-0.9-0.297L44.799 23.897h-3.498z m-39.595 0h6.901l1.4 20.902h-5.196l-0.103-2.3a0.896 0.896 0 0 0-0.9-0.901H6.604l1.701-3.002h5.498c0.599 0 1.301 0.103 1.301-0.801l-0.599-9.401c0-0.595-0.5-0.896-0.901-0.297L3.903 23.897H0.405z m13.001 0h7.1l4.601 16.198c0.198 0.5 0.595 0.401 0.698 0l2.998-16.198h3.102l-3.701 20.902H33.103l-4.502-16c-0.099-0.401-0.599-0.504-0.698 0l-2.8 15.996h-3.3Z"/></svg>