<svg fill="#44A833" role="img" viewBox="0 0 25 24" xmlns="http://www.w3.org/2000/svg"><title>Anaconda</title><path d="M12.545 0a12.216 12.215 90 0 0-1.365 0.078 17.561 17.56 90 0 1 1.818 1.437l0.482 0.439-0.467 0.452a15.089 15.088 90 0 0-1.129 1.208l-0.178 0.216a8.551 8.551 0 0 1 0.862-0.051 8.177 8.176 90 1 1-4.298 15.191 15.808 15.807 90 0 1-1.846 0.106h-0.862a21.908 21.907 90 0 0 0.265 2.874 12 11.999 90 1 0 6.718-21.95zM8.659 0.647a12.216 12.215 90 0 0-2.631 1.278 15.55 15.549 90 0 1 1.818 0.431A18.603 18.602 90 0 1 8.659 0.647zM9.916 0.719a16.283 16.282 90 0 0-0.998 2.003 16.197 16.195 90 0 1 1.609 0.662 6.999 6.999 0 0 1 0.432-0.51c0.235-0.287 0.473-0.561 0.718-0.819A15.089 15.088 90 0 0 9.916 0.719zM5.16 2.924a15.011 15.01 90 0 0 0 2.342c0.589-0.065 1.199-0.1 1.817-0.107a16.663 16.663 0 0 1 0.481-1.753 16.526 16.525 90 0 0-2.298-0.482zM4.097 3.477A11.971 11.971 0 0 0 2.234 5.863a17.051 17.051 0 0 1 1.882-0.445A17.439 17.438 90 0 1 4.097 3.477z m4.418 0.287c-0.143 0.438-0.266 0.89-0.381 1.351a8.278 8.278 0 0 1 1.674-0.805c-0.424-0.201-0.847-0.381-1.293-0.546zM6.784 6.2a14.091 14.09 90 0 0-1.559 0.108c0.064 0.524 0.157 1.041 0.273 1.559a8.414 8.413 90 0 1 1.286-1.667z m-2.557 0.137a15.355 15.355 0 0 0-2.609 0.718h-0.078v0.08a17.152 17.151 90 0 0 1.27 2.551l0.043 0.071 0.073-0.049a16.355 16.354 90 0 1 1.738-1.086l0.058-0.035V8.53a16.915 16.914 90 0 1-0.41-2.099v-0.093zM1.113 8.084l-0.064 0.201A11.878 11.877 90 0 0 0.467 11.654v0.21l0.143-0.153a17.756 17.755 90 0 1 1.589-1.451l0.057-0.043-0.043-0.064a16.225 16.225 0 0 1-1.028-1.875z m3.78 1.257l-0.181 0.1c-0.466 0.274-0.933 0.575-1.378 0.891l-0.065 0.051 0.05 0.064c0.31 0.438 0.647 0.869 0.998 1.279l0.138 0.166v-0.209a8.199 8.199 0 0 1 0.365-2.156zM2.673 10.85l-0.072 0.05a16.62 16.62 0 0 0-1.818 1.739l-0.058 0.058 0.066 0.057a15.493 15.492 90 0 0 1.996 1.487l0.072 0.05 0.044-0.08a16.786 16.784 90 0 1 1.055-1.644v-0.051l-0.043-0.05a17.037 17.037 0 0 1-1.193-1.544z m1.86 2.077l-0.121 0.172a15.405 15.405 0 0 0-0.92 1.437l-0.043 0.072 0.071 0.043a16.656 16.656 0 0 0 1.567 0.768l0.193 0.087-0.086-0.194a8.062 8.062 0 0 1-0.662-2.178z m-3.987 0.481v0.2a11.791 11.79 90 0 0 0.949 3.336l0.078 0.186 0.072-0.194a16.261 16.26 90 0 1 0.847-2.006l0.058-0.063-0.065-0.043a17.245 17.244 90 0 1-1.781-1.288z m2.55 1.81l-0.035 0.08a15.808 15.807 90 0 0-0.986 2.486v0.08h0.086a16.197 16.195 90 0 0 2.696 0.501l0.072 0.008v-0.087a17.611 17.61 90 0 1 0.165-2.061v-0.066H5.029a16.311 16.311 0 0 1-1.854-0.898z m2.551 1.172v0.114a17.303 17.302 90 0 0-0.151 1.833v0.079h0.933c0.288 0 0.626 0.014 0.949 0h0.209l-0.166-0.13a8.033 8.033 0 0 1-1.645-1.839z m-3.299 2.106l0.115 0.172a12.021 12.021 0 0 0 2.509 2.745l0.158 0.129v-0.201a22.642 22.64 90 0 1-0.201-2.343v-0.071h-0.072a16.275 16.275 0 0 1-2.306-0.388z"/></svg>