<svg fill="#3DDC84" role="img" viewBox="0 0 20 24" xmlns="http://www.w3.org/2000/svg"><title>Android Studio</title><path d="M17.269 10.337c-0.332 0-0.603 0.271-0.602 0.603v9.832h-1.738l-3.336-6.939c0.476-0.539 0.68-1.286 0.525-2.001a2.286 2.286 0 0 0-1.29-1.625v-0.812c0.012-0.287-0.143-0.579-0.404-0.741-0.139-0.083-0.288-0.123-0.44-0.124a0.848 0.848 0 0 0-0.432 0.119c-0.27 0.167-0.425 0.459-0.412 0.766l-0.001 0.721c-1.015 0.367-1.662 1.415-1.486 2.52a2.282 2.282 0 0 0 0.591 1.21l-3.209 6.906H2.093c-1.095-0.007-1.98-0.895-1.983-1.989V5.016c-0.005 1.102 0.884 2.001 1.986 2.006a2.024 2.024 0 0 0 0.132-0.003h14.745s2.534-0.219 2.862 1.539c-0.249 0.029-0.445 0.232-0.445 0.489 0 0.712-0.579 1.29-1.302 1.29h-0.819zM15.222 22.537c0.235 0.484 0.033 1.066-0.451 1.3-0.13 0.063-0.267 0.089-0.401 0.093a0.974 0.974 0 0 1-0.32-0.045c-0.024-0.008-0.046-0.021-0.069-0.031a0.97 0.97 0 0 1-0.228-0.132c-0.025-0.019-0.05-0.038-0.072-0.06-0.083-0.078-0.157-0.167-0.21-0.276l-1.256-2.614-1.558-3.245a0.772 0.772 0 0 0-0.7-0.444h-0.002a0.792 0.792 0 0 0-0.708 0.444l-1.511 3.245-1.232 2.647a0.972 0.972 0 0 1-0.799 0.579c-0.063 0.005-0.124-0.002-0.185-0.009-0.034-0.004-0.069-0.005-0.102-0.012-0.049-0.01-0.095-0.028-0.142-0.045-0.03-0.011-0.061-0.02-0.091-0.034-0.05-0.024-0.095-0.057-0.139-0.089-0.022-0.016-0.046-0.028-0.066-0.045a0.986 0.986 0 0 1-0.17-0.184 0.979 0.979 0 0 1-0.071-0.986l0.847-1.822 3.268-7.031a1.796 1.796 0 0 1-0.707-1.164c-0.155-0.98 0.513-1.9 1.492-2.056V9.395a0.354 0.354 0 0 1 0.168-0.316 0.347 0.347 0 0 1 0.354 0 0.354 0.354 0 0 1 0.167 0.316v1.159l0.013 0.006a1.803 1.803 0 0 1 1.288 1.378 1.784 1.784 0 0 1-0.644 1.784l3.389 7.05 0.848 1.765zM10.984 12.306c0.004-0.608-0.485-1.104-1.093-1.109a1.12 1.12 0 0 0-0.786 0.322 1.101 1.101 0 0 0-0.323 0.772c-0.004 0.608 0.485 1.104 1.094 1.108h0.007c0.605 0 1.097-0.488 1.101-1.093z m-1.027 5.277c-0.112 0.001-0.212 0.063-0.257 0.155l-1.413 3.034h3.374l-1.457-3.033a0.274 0.274 0 0 0-0.247-0.156z m8.143-6.746l-0.013 0h-0.817a0.103 0.103 0 0 0-0.103 0.103v12.91a0.103 0.103 0 0 0 0.096 0.103h0.844c0.986-0.004 1.784-0.804 1.783-1.79V9.047c0 0.989-0.801 1.79-1.79 1.79zM0.61 5.016v0.019c0.004 0.816 0.672 1.483 1.487 1.487a12.061 12.061 0 0 1 0.131-0.003h1.129c0.197-1.315 0.761-2.525 1.638-3.486H2.099c-0.927 0.003-1.697 0.64-1.919 1.497 0.242 0.035 0.43 0.235 0.43 0.486z m6.338-2.898L5.911 0.328a0.219 0.219 0 0 1 0-0.218A0.238 0.238 0 0 1 6.098 0a0.219 0.219 0 0 1 0.187 0.109l1.049 1.816a6.491 6.491 0 0 1 5.319 0L13.696 0.109a0.219 0.219 0 0 1 0.373 0.219l-1.03 1.79c1.667 0.912 2.797 2.544 3.098 4.402l-12.286-0.001c0.3-1.857 1.431-3.488 3.097-4.401z m5.377 2.621a0.515 0.515 0 0 0 0.527 0.502 0.515 0.515 0 0 0 0.516-0.515 0.521 0.521 0 0 0-0.889-0.367 0.515 0.515 0 0 0-0.154 0.38z m-5.717-0.007a0.515 0.515 0 0 0 0.52 0.509 0.509 0.509 0 0 0 0.367-0.148 0.521 0.521 0 1 0-0.734-0.734 0.515 0.515 0 0 0-0.153 0.373z"/></svg>