<svg fill="#34A853" role="img" viewBox="0 0 42 24" xmlns="http://www.w3.org/2000/svg"><title>Android</title><path d="M32.054 0.944c-1.159 2.002-2.321 4.003-3.481 6.005-0.063-0.027-0.127-0.049-0.191-0.074-3.132-1.194-5.98-1.373-7.587-1.351-3.184 0.032-5.758 0.797-7.311 1.408-0.144-0.256-3.008-5.186-3.47-5.984a1.966 1.966 0 0 0-0.242-0.329c-0.569-0.625-1.554-0.834-2.367-0.348-0.815 0.484-1.225 1.607-0.667 2.578 3.341 5.784-0.166-0.37 3.343 5.766 0.03 0.053-0.849 0.454-2.391 1.747C5.377 12.303 1.178 16.759 0.402 24h41.196c-0.204-1.907-0.633-3.603-1.28-5.267-1.277-3.282-3.164-5.652-4.704-7.181a20.778 20.778 0 0 0-3.658-2.897c1.132-1.926 2.252-3.872 3.373-5.81 0.357-0.621 0.324-1.366-0.014-1.921a1.888 1.888 0 0 0-1.461-0.915c-0.897-0.092-1.612 0.537-1.8 0.935z m-0.068 14.524c0.677 1.017 0.556 2.284-0.268 2.833-0.824 0.549-2.039 0.169-2.715-0.848-0.677-1.017-0.556-2.284 0.268-2.833 0.811-0.541 2.028-0.186 2.715 0.848zM12.773 14.623c0.824 0.549 0.945 1.816 0.268 2.833-0.676 1.017-1.895 1.397-2.719 0.848-0.824-0.549-0.945-1.816-0.268-2.833 0.688-1.034 1.903-1.391 2.719-0.848z"/></svg>