<svg fill="#0073FF" role="img" viewBox="0 0 45 24" xmlns="http://www.w3.org/2000/svg"><title>Animal Planet</title><path d="M35.166 0.736l-0.918 1.595c4.842 0.946 7.655 3.008 7.655 5.422 0 1.608-1.206 3.153-3.275 3.153-3.158 0-5.482-4.969-5.482-4.969-0.662-0.02-1.846-0.048-1.846-0.048s-3.387-4.353-8.542-5.889v7.06c0.454 0.381 1.039 0.928 1.59 1.604-2.327-1.407-4.744-2.448-9.01-2.448-4.64 0-10.311 1.872-13.462 6.995l0.331 0.599c1.437-1.623 3.658-2.606 3.729-2.633C2.84 13.882 1.065 18.371 0.193 21.292l2.707 2.708a19.866 19.866 0 0 1 14.973-6.67c5.149 0 10.376 2.151 14.005 5.869l2.932-2.935c-2.461-4.207-5.435-7.177-5.525-7.267 0.126 0.058 2.764 1.58 7.389 1.58 4.298 0 8.133-2.389 8.133-5.954 0-4.261-3.653-6.962-9.641-7.887"/></svg>