<svg fill="#88F387" role="img" viewBox="0 0 25 24" xmlns="http://www.w3.org/2000/svg"><title>AnkerMake</title><path d="M12.863 10.403l3.193 3.242c0.194 0.194 0.194 0.436 0 0.629l-3.241 3.243c-0.193 0.193-0.436 0.193-0.63 0L8.944 14.274c-0.194-0.193-0.194-0.435 0-0.629l3.29-3.242c0.193-0.193 0.435-0.193 0.629 0Zm-1.645-1.645c0.145 0.193 0.145 0.435-0.049 0.629l-3.242 3.242c-0.193 0.193-0.435 0.193-0.629 0l-1.79-1.79v13.161H0.04V0h2.419l8.759 8.758ZM22.589 0H24.96v24h-5.468V10.839l-1.79 1.79c-0.194 0.193-0.436 0.193-0.629 0l-3.242-3.242c-0.194-0.193-0.194-0.435 0-0.629L22.589 0Z"/></svg>