<svg fill="#FFB71B" role="img" viewBox="0 0 78 24" xmlns="http://www.w3.org/2000/svg"><title>Ansys</title><path d="M61.669 5.849l-3.196 7.8-3.197-7.8h-3.95l5.172 12.621-2.266 5.53h3.95l7.437-18.152z m15.023 6.847c-0.623-0.623-1.611-1.087-2.964-1.395l-2.248-0.514c-0.54-0.144-0.92-0.297-1.137-0.461-0.217-0.163-0.325-0.389-0.325-0.676 0-0.397 0.181-0.704 0.542-0.92 0.361-0.217 0.858-0.325 1.489-0.325 1.371 0 2.762 0.487 4.17 1.462l1.083-2.707c-0.721-0.524-1.534-0.929-2.437-1.218a9.111 9.111 0 0 0-2.789-0.434c-1.119 0-2.117 0.181-2.991 0.542-0.877 0.361-1.553 0.858-2.031 1.488-0.478 0.632-0.718 1.364-0.718 2.194 0 1.047 0.302 1.873 0.908 2.477 0.604 0.605 1.547 1.052 2.829 1.341l2.166 0.488c0.668 0.144 1.124 0.307 1.368 0.487 0.245 0.181 0.366 0.433 0.366 0.758 0 0.362-0.176 0.646-0.528 0.852-0.352 0.208-0.843 0.311-1.476 0.311-0.885 0-1.76-0.135-2.626-0.405-0.867-0.271-1.662-0.65-2.383-1.137l-1.084 2.815c0.74 0.524 1.62 0.925 2.641 1.206 1.019 0.279 2.142 0.419 3.371 0.419 1.787 0 3.19-0.366 4.21-1.097 1.019-0.732 1.529-1.737 1.53-3.019-0.003-1.065-0.314-1.909-0.936-2.532z m-30.199-1.395l-2.246-0.514c-0.541-0.144-0.921-0.297-1.138-0.461-0.215-0.163-0.324-0.389-0.324-0.676 0-0.397 0.18-0.704 0.541-0.92 0.361-0.217 0.858-0.325 1.489-0.325 1.371 0 2.762 0.487 4.17 1.462l1.083-2.707c-0.723-0.524-1.534-0.929-2.436-1.218a9.117 9.117 0 0 0-2.789-0.434c-1.12 0-2.117 0.181-2.992 0.542-0.876 0.361-1.552 0.858-2.03 1.488-0.479 0.632-0.718 1.364-0.718 2.194 0 1.047 0.304 1.873 0.908 2.477 0.604 0.605 1.548 1.052 2.83 1.341l2.167 0.488c0.668 0.144 1.123 0.307 1.367 0.487 0.243 0.181 0.366 0.433 0.366 0.758 0 0.362-0.176 0.646-0.528 0.852-0.352 0.208-0.845 0.311-1.476 0.311-0.885 0-1.76-0.135-2.626-0.405-0.865-0.271-1.661-0.65-2.383-1.137l-1.082 2.815c0.739 0.524 1.62 0.925 2.639 1.206 1.019 0.279 2.144 0.419 3.371 0.419 1.787 0 3.19-0.366 4.21-1.097 1.02-0.732 1.529-1.737 1.53-3.019 0-1.064-0.311-1.909-0.934-2.531-0.626-0.624-1.613-1.088-2.968-1.396zM31.992 5.507c-0.939 0-1.783 0.19-2.531 0.568-0.749 0.379-1.358 0.929-1.827 1.652v-1.895H23.654v13.294h4.088v-7.446c0-0.902 0.258-1.625 0.772-2.166 0.513-0.542 1.195-0.813 2.044-0.813 0.705 0 1.222 0.208 1.558 0.623 0.334 0.415 0.501 1.074 0.5 1.976v7.826h4.089v-8.016c0-1.877-0.389-3.28-1.165-4.21-0.777-0.928-1.96-1.393-3.548-1.393zM14.643 0.603l-2.631 6.423 4.951 12.085h5.556z m-1.199-0.603H8.203L0.372 19.111h5.242z"/></svg>