<svg fill="#D70010" role="img" viewBox="0 0 45 24" xmlns="http://www.w3.org/2000/svg"><title>Anta</title><path d="M44.684 17.985a38.35 38.35 0 0 0-18.228-13.882 57.801 57.801 0 0 1 12.774 1.874l-2.872-2.439A53.911 53.911 0 0 0 17.046 0a53.76 53.76 0 0 0-11.841 1.301L0.316 4.664c0.619 0 1.548-0.039 2.171-0.038a46.502 46.502 0 0 1 37.819 19.374ZM17.317 13.804h6.162l-0.615 2.187h-1.947L18.679 24H16.527l2.23-8.009H16.705z m-6.972 0H12.273l0.809 5.462 1.521-5.462h2.214l-2.841 10.196H11.816l-0.747-5.071-1.413 5.071H7.496ZM0.316 24l5.218-10.192h2.183L7.283 24H5.092l0.101-1.366H3.137l-0.665 1.366z m3.735-3.484h1.274l0.387-3.6z m15.182 3.484l5.23-10.192h2.175l-0.434 10.192h-2.183l0.097-1.366h-2.048l-0.673 1.366z m3.743-3.484h1.274l0.387-3.6z"/></svg>