<svg fill="#0170FE" role="img" viewBox="0 0 25 24" xmlns="http://www.w3.org/2000/svg"><title>Ant Design</title><path d="M17.955 6.677c0.509-0.507 0.509-1.333 0-1.84l-1.874-1.874 0.003 0.002c-0.496-0.496-1.349-1.349-2.556-2.552-0.568-0.555-1.488-0.55-2.051 0.013L0.917 10.978a1.444 1.444 0 0 0 0 2.048l10.557 10.55a1.452 1.452 0 0 0 2.051 0l4.428-4.425c0.509-0.507 0.509-1.333 0-1.839a1.306 1.306 0 0 0-1.842 0l-3.352 3.357c-0.139 0.14-0.357 0.14-0.496 0l-8.434-8.426c-0.14-0.139-0.14-0.357 0-0.496L12.26 3.322c0.011-0.011 0.024-0.019 0.035-0.029 0.139-0.11 0.332-0.099 0.461 0.029l3.357 3.355c0.509 0.509 1.335 0.509 1.842 0z m-8.251 5.379a2.85 2.848 0 1 0 5.701 0 2.85 2.848 0 1 0-5.701 0z m14.379-1.035l-3.296-3.28c-0.51-0.507-1.335-0.507-1.842 0.003a1.298 1.298 0 0 0 0 1.839l2.226 2.223c0.139 0.139 0.139 0.357 0 0.497l-2.194 2.19a1.298 1.298 0 0 0 0 1.84 1.306 1.306 0 0 0 1.842 0l3.266-3.264a1.446 1.446 0 0 0-0.002-2.048Z"/></svg>