<svg fill="#FF7328" role="img" viewBox="0 0 28 24" xmlns="http://www.w3.org/2000/svg"><title>Antena 3</title><path d="M15.159 10.554a8.394 8.394 0 0 0-1.159-0.096c-0.129 0-0.578 0.009-1.16 0.096-3.393 0.509-5.751 2.417-7.207 5.457-0.745 1.553-0.415 2.621 0.93 3.679 0.079 0.063 0.159 0.123 0.238 0.184 0.248 0.166 0.492 0.325 0.729 0.481 3.517 2.295 4.804 3.11 5.323 3.349 0.216 0.099 0.595 0.284 1.118 0.296h0.056c0.523-0.013 0.903-0.198 1.119-0.296 0.518-0.238 1.805-1.054 5.322-3.35 0.238-0.156 0.482-0.316 0.731-0.482a26.383 26.383 0 0 0 0.236-0.182c1.345-1.059 1.675-2.127 0.93-3.679-1.454-3.038-3.813-4.948-7.206-5.457z m8.428 5.067c0.74 0.9 1.4 0.969 2.142 0.45 0.988-0.694 2.201-3.32 2.218-5.49-0.058-5.941-6.203-10.072-12.376-10.568-0.246-0.023-0.621-0.03-0.903 0.178-0.287 0.212-0.339 0.531-0.131 0.943 0.354 0.701 0.823 1.333 1.269 1.976 2.241 3.219 4.138 6.648 6.158 10.003 0.514 0.853 0.988 1.734 1.623 2.507zM6.036 13.112c2.02-3.354 3.917-6.784 6.157-10.003 0.447-0.643 0.915-1.275 1.269-1.976 0.209-0.413 0.157-0.732-0.131-0.944-0.282-0.209-0.657-0.201-0.903-0.177C6.256 0.509 0.111 4.638 0.053 10.581c0.015 2.17 1.228 4.798 2.218 5.49 0.742 0.52 1.402 0.45 2.142-0.451 0.635-0.773 1.109-1.654 1.623-2.507Z"/></svg>