<svg fill="#3399FF" role="img" viewBox="0 0 61 24" xmlns="http://www.w3.org/2000/svg"><title>AOL</title><path d="M33.205 5.259c6.387 0 9.456 5.049 9.457 9.371 0 4.321-3.07 9.37-9.457 9.37-6.389 0-9.456-5.049-9.456-9.37 0-4.321 3.067-9.37 9.456-9.371m0 13.818c2.276 0 4.205-1.874 4.205-4.447 0-2.574-1.929-4.448-4.205-4.448s-4.207 1.874-4.207 4.448c0 2.574 1.932 4.45 4.207 4.45m12.423-19.08h5.32v23.509h-5.32z m11.676 16.604a3.535 3.535 0 1 0 0.005 7.07 3.535 3.535 0 0 0-0.005-7.07M14.156 0H9.418L0.159 23.504h6.275l1.239-3.395h8.167l1.143 3.395H23.319z m-4.829 15.343L11.79 7.145l2.462 8.198H9.327z"/></svg>