<svg fill="#20A6C9" role="img" viewBox="0 0 49 24" xmlns="http://www.w3.org/2000/svg"><title>Apache Superset</title><path d="M12.751 0.002C5.569 0.002 0.325 5.107 0.325 12.027c0 6.918 5.244 11.969 12.426 11.969 4.4 0 7.833-2.067 11.634-6.201 3.082 4.096 8.133 6.318 11.866 6.201 7.184 0 12.424-5.042 12.424-11.969 0-6.926-5.24-12.027-12.426-12.027-5.77 0-10.351 4.885-11.626 6.392-1.531-1.813-3.372-3.354-5.403-4.581-2.053-1.185-4.198-1.809-6.469-1.809Zm5.792 2.625c2.329 1.199 3.932 2.861 5.316 4.642-1.076 1.269-2.508 2.988-3.503 4.17-1.128-1.326-3.183-3.842-5.256-4.65ZM12.787 7.371c2.051 0.054 3.646 0.923 6.92 4.851-2.333 2.776-4.436 4.521-6.92 4.521-3.042 0-4.855-1.994-4.855-4.654s1.825-4.799 4.855-4.718z m23.238 0c3.042 0 4.851 2.067 4.851 4.718 0 2.649-1.737 4.636-4.839 4.654-1.15-0.075-3.08-0.052-6.934-4.662l0.149-0.181 0.004 0.004c2.26-2.675 4.225-4.533 6.769-4.533z m-7.578 5.516c1.229 1.37 3.616 4.005 5.465 4.513l-3.392 4.061h-0.004c-1.517-0.747-4.092-2.285-5.472-4.462l3.403-4.11z"/></svg>