<svg fill="#66CCFF" role="img" viewBox="0 0 33 24" xmlns="http://www.w3.org/2000/svg"><title>Apache Hadoop</title><path d="M16.631 0c-1.512 0.37-1.957 0.633-2.459 2.385 0.638-1.284 1.121-1.755 2.459-2.385z m4.308 0.101c-1.113-0.071-2.289 0.236-3.678 0.821a5.299 5.299 0 0 0-1.601 1.015c-0.414 0.383-0.769 0.828-1.156 1.343a1.751 1.751 0 0 0-0.624 0.126 2.493 2.493 0 0 0-0.72 0.476c-0.188 0.166-0.374 0.336-0.555 0.511v0.002c-0.164 0.16-0.326 0.322-0.484 0.488-1.261 0.203-2.296 0.427-3.217 0.784a8.428 8.428 0 0 0-2.63 1.625c-0.336 0.296-0.643 0.626-0.917 0.982a7.254 7.254 0 0 0-0.671 1.072c-0.174 0.19-0.347 0.384-0.533 0.553a1.935 1.935 0 0 1-0.588 0.38c-0.124 0.047-0.178 0.077-0.183 0.075-0.005-0.001-0.011-0.044-0.016-0.063 0.314-0.28 0.356-0.734 0.386-1.148 0.04 0.045 0.071 0.091 0.109 0.151 0.041 0.063 0.083 0.127 0.133 0.19l0.211 0.266 0.074-0.332c0.061-0.278 0.108-0.646 0.036-0.966-0.045-0.204-0.156-0.42-0.314-0.525l0.048-0.12c0.053-0.133 0.107-0.272 0.154-0.404l0.092-0.258-0.273 0.047c-0.36 0.063-1.137 0.489-1.683 1.056-0.203 0.211-0.379 0.44-0.494 0.686a1.313 1.313 0 0 0-0.124 0.787 1.215 1.215 0 0 0 0.363 0.665c0.04 0.16 0.077 0.298 0.117 0.422 0.044 0.139 0.091 0.264 0.149 0.387 0.159 0.33 0.414 0.531 0.706 0.624 0.243 0.079 0.493 0.088 0.756 0.027a5.112 5.112 0 0 0-0.097 0.921 11.894 11.894 0 0 0 0.094 1.861c0.017 0.124 0.037 0.246 0.06 0.367l-0.143 0.388-0.221 0.608-0.494 0.487-0.458 0.454a12.307 12.307 0 0 1-0.11 0.106c-0.31 0.299-0.372 0.36-0.284 0.884 0.053 0.322 0.159 0.646 0.323 0.961 0.152 0.288 0.356 0.57 0.618 0.833 0.327 0.327 0.864 0.734 1.423 0.948 0.327 0.123 0.651 0.184 0.965 0.129l-0.052 0.147a5.4 5.4 0 0 1-0.164 0.4c-0.38 0.833 0.011 1.268 0.618 1.546 0.303 0.139 0.663 0.231 0.998 0.318l0.224 0.06c0.398 0.107 1.084 0.304 1.71 0.344 0.685 0.044 1.3-0.097 1.466-0.711 0.065-0.243 0.104-0.43 0.12-0.613a3.11 3.11 0 0 0-0.013-0.542c0.192-0.427 0.28-0.565 0.421-0.771l0.071-0.107c0.153-0.227 0.224-0.387 0.251-0.569 0.024-0.175 0.005-0.35-0.027-0.615l-0.014-0.112a9.106 9.106 0 0 0 1.786 0.066l-0.158 0.082-0.073 0.04c-0.527 0.271-0.551 0.784-0.386 1.313 0.149 0.477 0.458 0.965 0.65 1.262 0.404 0.623 0.79 1.149 1.259 1.436 0.491 0.302 1.049 0.338 1.772-0.054 0.368-0.2 0.485-0.403 0.641-0.676 0.051-0.088 0.107-0.178 0.168-0.273 0.135-0.067 0.51-0.395 0.894-0.712l0.396-0.323c0.097 0.071 0.219 0.12 0.36 0.153 0.187 0.045 0.407 0.067 0.673 0.087 0.199 0.013 0.848 0.013 1.266 0.013h0.303c0.432 0.001 0.781-0.021 1.045-0.171 0.28-0.159 0.446-0.442 0.482-0.947a1.709 1.709 0 0 0-0.01-0.505 1.263 1.263 0 0 0-0.182-0.416l-0.019-0.67-0.021-0.696a3.166 3.166 0 0 0-0.091-0.715 4.749 4.749 0 0 0-0.24-0.674c-0.071-0.17-0.128-0.327-0.184-0.481a7.683 7.683 0 0 0-0.306-0.73l0.024-0.164 0.242 0.232 0.355 0.345c0.271 0.262 0.521 0.498 0.81 0.67 0.302 0.178 0.639 0.28 1.077 0.26a2.569 2.569 0 0 0 1.356-0.514c0.391-0.288 0.705-0.679 0.837-1.11l0.112-0.373 0.094-0.3c0.643 0.109 1.332 0.147 1.999 0.076a4.939 4.939 0 0 0 1.804-0.519 4.546 4.546 0 0 0 1.802-1.776h0.002v-0.002c0.474-0.822 0.741-1.789 0.841-2.787 0.083-0.8 0.037-1.889-0.129-2.937-0.147-0.936-0.394-1.842-0.735-2.496a0.982 0.982 0 0 0-0.182-0.237 1.886 1.886 0 0 0-0.681-0.414c-0.275-0.093-0.563-0.112-0.793 0.008a0.647 0.647 0 0 0-0.164 0.12 3.728 3.728 0 0 0-0.401 0.518c-0.141 0.204-0.28 0.41-0.449 0.553-0.199 0.171-0.436 0.27-0.67 0.363a4.61 4.61 0 0 0-0.349-0.678 6.42 6.42 0 0 0-0.532-0.721 2.95 2.95 0 0 0-0.488-0.466 7.15 7.15 0 0 0-0.547-0.367c-0.543-0.34-1.006-0.746-1.479-1.161-0.214-0.187-0.431-0.376-0.643-0.552-1.124-0.928-2.173-1.376-3.296-1.447z m-5.511 0.006c-0.761 0.183-0.908 0.327-1.136 1.073 0.364-0.547 0.574-0.727 1.136-1.073z m5.275 0.62c1.107-0.001 2.118 0.404 3.245 1.353 0.55 0.463 1.033 0.913 1.591 1.312-0.203 0.017-0.378 0.053-0.607 0.142 0.28-0.053 0.602 0 0.894 0.054 0.08 0.052 0.166 0.104 0.252 0.155 0.394 0.232 0.618 0.36 0.884 0.73 0.28 0.392 0.515 0.786 0.722 1.217-0.135-0.048-0.248-0.089-0.35-0.12a0.755 0.755 0 0 0-0.711 0.045l-0.016 0.008c-0.218 0.105-0.555 0.227-0.782 0.263a0.934 0.934 0 0 0 0.54-0.008 0.754 0.754 0 0 0-0.024 0.72 0.359 0.359 0 0 1-0.027-0.16 0.304 0.304 0 0 1 0.333-0.278 0.311 0.311 0 0 1 0.249 0.44c-0.156 0.027-0.311 0.073-0.471 0.134a5.886 5.886 0 0 0-0.316 0.127 4.968 4.968 0 0 1 1.447-0.027c0.033 0.156 0.067 0.32 0.097 0.489l-0.183 0.013-0.016 0.003c-0.232-0.187-0.49-0.156-0.845-0.077-1.076 0.246-0.824 0.85-1.318 1.76 0.514-0.627 0.477-1.284 1.313-1.482 0.196-0.048 0.33-0.104 0.462-0.084-0.238 0.12-0.444 0.316-0.526 0.547-0.231 0.649-0.087 1.195-0.339 1.802 0.312-0.543 0.332-1.07 0.613-1.642 0.1-0.204 0.473-0.534 0.7-0.537l0.187-0.003c0.056 0.36 0.091 0.719 0.07 1.016a11.392 11.392 0 0 1-0.265 1.655c0.284-0.363 0.414-1.135 0.538-1.678 0.129-0.566 0.093-1.247-0.018-1.854-0.156-0.834 0.703-0.697 1.201-1.089 0.367-0.29 0.618-0.753 0.954-1.08 0.334-0.324 0.86 0.152 0.991 0.47 0.569 1.375 0.828 3.537 0.678 4.925-0.168 1.554-0.921 3.253-2.295 4.018-1.749 0.977-3.809 0.38-5.547-0.206-0.371-0.124-0.627-0.306-0.954-0.51 0.089 0.4 0.129 0.821 0.01 1.22-0.187 0.633-0.49 1.67 0.37 1.861 0.328 0.073 0.477 0.064 0.94-0.174a1.735 1.735 0 0 1-0.823 0.015 0.53 0.53 0 0 1-0.419-0.364c0.08 0.059 0.214 0.088 0.441 0.143 0.638 0.153 1.244-0.152 1.363-0.594 0.069-0.259 0.057-0.394 0.204-0.747 0.132 0.04 0.27 0.079 0.408 0.113l-0.236 0.771c-0.206 0.669-1.004 1.207-1.708 1.195-0.651-0.012-1.064-0.419-1.514-0.819l-0.905-0.8a6.978 6.978 0 0 1-2.213-1.114c0.534 0.63 0.898 0.977 1.644 1.291-0.108 1.108-0.494 1.917-0.821 2.977-0.148 0.481-1.323 2.403-1.647 2.589-0.232 0.133-1.682 1.356-1.955 1.516-0.204 0.271-0.383 0.645-0.689 0.807-0.932 0.494-1.532-0.452-2.033-1.25-0.228-0.363-0.861-1.407-0.307-1.699 0.521-0.278 0.814-0.477 1.347-0.827 0.079 0.144 0.212 0.283 0.3 0.427l-0.057-0.47a3.673 3.673 0 0 1-0.011-0.796c0.021-0.275 0.04-0.551 0.063-0.827-0.08 0.28-0.239 0.561-0.319 0.841-0.032 0.112-0.06 0.203-0.075 0.285a9.41 9.41 0 0 1-3.58 0.046 22.371 22.371 0 0 0-0.246-1.236c-0.024 0.371-0.009 1.398-0.011 1.97-0.001 0.444-0.021 0.598-0.251 0.975-0.214 0.354-0.304 0.434-0.605 1.032 0.025 0.378 0.025 0.627-0.076 0.987-0.167 0.595-1.85 0.131-2.293 0.009-0.547-0.149-1.676-0.371-1.392-1.1 0.25-0.641 0.41-1.316 0.531-2.213-1.001-1.442-1.933-3.417-2.111-5.169-0.139-1.36-0.053-2.197 0.24-3.03 0.467-1.317 1.117-2.46 2.162-3.377C8.195 6.514 9.515 6.014 11.583 5.699c-0.498 0.557-0.989 1.145-1.526 1.776-0.542 0.639-0.865 1.285-1.209 1.984-0.477 0.964-0.464 1.329 0.167 2.176 0.543 0.73 0.837 1.06 1.073 1.773-0.195 0.404-0.267 0.747-0.334 1.298 0.667 0.727 1.161 1.225 1.807 1.379 0.634 0.151 1.164 0.124 1.731-0.167 1.26-0.643 2.424-1.478 3.845-1.511 0.658-1.616 0.593-2.966 0.277-4.528-0.216-1.068-0.303-2.078-0.371-3.168-0.267 1.121-0.315 2.105-0.117 3.222 0.24 1.345 0.424 2.835-0.241 4.018-1.284 0.097-2.387 0.878-3.543 1.478-0.467 0.24-0.95 0.264-1.466 0.122-0.478-0.131-0.801-0.446-1.316-1.041-0.008-0.595 0.127-0.872 0.4-1.412 0.44-0.868 0.928-1.675 1.461-2.528-0.654 0.788-1.272 1.447-1.786 2.238-0.196-0.559-0.478-0.845-0.944-1.474-0.454-0.615-0.501-0.884-0.16-1.597 0.34-0.715 0.63-1.345 1.211-1.973 1.005-1.085 1.926-2.292 3.024-3.361 0.597-0.579 0.838-0.561 1.629-0.68a27.72 27.72 0 0 0 2.143-0.414 30.032 30.032 0 0 1-2.073 0.107h-0.02c0.675-0.862 1.066-1.343 2.163-1.82 1.268-0.55 2.32-0.87 3.296-0.87z m0.742 3.724c-1.47 0.368-1.745 0.986-1.556 1.936 0.162-0.714 0.447-1.402 1.556-1.936z m-4.355 0.082c-0.595 0.067-1.188 0.128-1.783 0.185-0.501 0.047-0.582 0.04-0.937 0.391-0.538 0.533-1.06 2.36-1.228 3.092 0.264-0.607 0.921-2.308 1.426-2.74 0.14-0.12 0.24-0.191 0.345-0.245-0.362 0.607-0.336 0.755-0.21 1.57 0.108-0.828 0.394-1.147 0.864-1.762a12.396 12.396 0 0 0 1.522-0.491z m13.649 0.071c-0.34 0.69-0.868 1.268-1.581 1.621-0.384 0.19-0.627 0.124-1.056 0.083 0.435 0.125 0.711 0.28 1.138 0.128 0.87-0.311 1.291-1.009 1.499-1.832z m-3.043 1.113c0.031 0.063 0.061 0.128 0.089 0.192a0.804 0.804 0 0 0-0.066 0.055 0.763 0.763 0 0 0-0.169-0.242l0.147-0.005z m-4.351 0.534c-0.481 0.222-1.04 0.168-1.451 0.446-0.362 0.246-0.862 1.02-1.231 1.348 0.267-0.104 0.526-0.283 0.761-0.473 0.003 0.294 0.135 0.569 0.36 0.754a0.414 0.414 0 0 1 0.123-0.656 0.416 0.416 0 0 1 0.577 0.255c-0.198 0.147-0.379 0.318-0.53 0.516a2.224 2.224 0 0 0-0.321 0.587 5.635 5.635 0 0 1 2.673-1.727c-0.267-0.004-0.583 0.045-0.905 0.152a0.977 0.977 0 0 0-0.644-0.819c0.214-0.113 0.422-0.234 0.588-0.383z m-1.391 2.189a0.981 0.981 0 0 1-0.167-0.111 0.467 0.467 0 0 0 0.167 0.112zM2.245 7.114c-1.272 0.897-1.588 1.305-1.418 3.121C0.953 8.807 1.23 8.189 2.245 7.114z m-1.079 0.54c-0.643 0.448-0.727 0.634-0.667 1.413 0.14-0.643 0.271-0.886 0.667-1.413z m2.375 0.26c-0.093 0.2-0.158 0.352-0.203 0.508-0.196 0.678 0.088 1.284-0.527 1.776 0.29 0.585 0.276 0.817 0.949 0.547 0.26-0.104 0.474-0.25 0.664-0.422-0.093 0.24-0.178 0.482-0.255 0.728l-0.04 0.125c-0.481 0.204-1.113 0.334-1.355-0.174a4.616 4.616 0 0 1-0.27-0.794c-0.793-0.821 0.392-1.905 1.037-2.294z m0.164 0.368c0.164 0.095 0.208 0.267 0.227 0.501-0.097-0.099-0.176-0.163-0.303-0.15 0.011-0.08 0.025-0.159 0.045-0.236 0.009-0.04 0.019-0.077 0.031-0.115z m19.848 4.361c-0.175 0.029-0.487 0.093-0.661 0.123-0.464 0.079-0.517 0.19-0.589 0.646l-0.114 0.699a12.226 12.226 0 0 1 0.304-0.758c0.112-0.246 0.176-0.27 0.414-0.4 0.17-0.091 0.477-0.218 0.644-0.31z m-19.314 3.203c0.366 1.263 0.985 2.504 1.675 3.547v0.019a1.325 1.325 0 0 1-0.199 0.492c-0.493 0.658-1.743-0.307-2.106-0.678-0.396-0.404-0.662-0.884-0.725-1.332-0.045-0.328-0.001-0.336 0.227-0.569l0.925-0.935 0.204-0.542z m16.558 0.828c0.075 0.244 0.135 0.486 0.244 0.745 0.184 0.435 0.274 0.702 0.287 1.168l0.042 1.476c0.156 0.275 0.182 0.332 0.154 0.646-0.057 0.642-0.271 0.685-0.834 0.675-0.256-0.004-1.277-0.009-1.535-0.03-0.366-0.032-0.573-0.067-0.684-0.15 0.574-0.422 1.551-2.161 1.741-2.76 0.202-0.633 0.42-1.185 0.585-1.77z"/></svg>