<svg fill="#225593" role="img" viewBox="0 0 26 24" xmlns="http://www.w3.org/2000/svg"><title>Apache Storm</title><path d="M4.57 12.022l2.3 0.031c3.225 0.045 4.698-0.154 6.143-0.827 0.825-0.384 1.396-0.899 1.727-1.553 0.222-0.437 0.254-0.619 0.221-1.24-0.101-1.912-1.479-2.94-3.948-2.939-1.859 0-3.726 0.478-6.572 1.68-0.735 0.31-1.35 0.551-1.366 0.534-0.067-0.066 5.052-4.943 6.045-5.76 0.937-0.769 1.917-1.343 2.851-1.666 0.727-0.253 0.936-0.279 2.34-0.282 1.307-0.003 1.667 0.032 2.359 0.232 3.309 0.953 5.259 3.616 4.324 5.905-0.065 0.158-0.007 0.18 0.484 0.18 1.573 0 3.166 0.947 3.754 2.232 0.843 1.843 0.037 4.074-1.811 5.01-0.968 0.49-1.623 0.589-4.278 0.644l-2.467 0.052-1.33 0.991-1.331 0.992 3.592 0.051 3.592 0.052-0.566 0.433-4.076 3.15a1477.971 1477.971 0 0 1-4.402 3.396l-0.89 0.68H10.288c-0.549 0-0.963-0.042-0.945-0.094 0.019-0.052 1.656-1.358 3.638-2.904 4.398-3.43 4.157-3.238 4.158-3.312 0-0.034-1.6-0.073-3.558-0.088l-3.558-0.028 1.065-0.814c0.586-0.447 1.948-1.518 3.026-2.382l1.962-1.566 2.767-0.039c2.534-0.035 2.819-0.058 3.37-0.262 1.229-0.456 1.862-1.251 1.864-2.346 0.003-0.916-0.392-1.521-1.288-1.975-0.809-0.412-1.529-0.536-3.103-0.536l-1.206-0.001 0.411-0.633c0.485-0.75 0.649-1.27 0.648-2.04-0.002-0.755-0.294-1.381-0.944-2.021-1.663-1.636-4.671-2.07-6.889-0.995-0.814 0.394-3.425 2.459-2.842 2.246 0.113-0.041 0.83-0.097 1.592-0.126 2.198-0.08 3.49 0.29 4.563 1.304 1.377 1.302 1.794 3.372 1.003 4.978-0.824 1.672-2.831 2.703-5.925 3.044-0.634 0.069-2.687 0.102-5.345 0.082L0.434 13.461l1.387-1.084c0.762-0.597 2.203-1.717 3.201-2.492l1.815-1.41h2.301L4.57 12.022z"/></svg>