<svg fill="#D22128" role="img" viewBox="0 0 65 24" xmlns="http://www.w3.org/2000/svg"><title>Apache JMeter</title><path d="M12.016 0.726s-0.661-1.071-1.438-0.611c-0.375 0.225-1.001 0.852-1.749 1.762l0.688 1.296a16.816 16.816 0 0 1 1.385-1.749c-0.212 0.241-0.659 0.798-1.296 1.773 0.894-0.062 1.783-0.171 2.667-0.329 0.265-1.47-0.257-2.142-0.257-2.142z m-1.034 0.61l0.059-0.064zM2.804 17.408a121.286 121.286 0 0 0-2.072 6.239 0.53 0.53 0 0 1-0.364 0.353c0.616-2.035 1.226-3.952 1.839-5.687-0.383-0.088-0.926 0.019-1.59 0.294 0.455-0.348 0.908-0.648 1.339-0.675-0.137-0.029-0.49-0.153-0.964-0.589 0.453 0.169 0.846 0.252 1.13 0.193-0.059-0.755-0.466-1.526-1.002-2.303-0.003-0.005 0.75 0.431 1.026 0.884l0.005-0.062c0.046-0.589 0.129-1.173 0.249-1.751v-0.005c0.091-0.466 0.204-0.932 0.34-1.398l0.177-0.597c0.075-0.233 0.161-0.471 0.249-0.723 0.295-0.806 0.629-1.596 1.004-2.367l0.096-0.193c0.343-0.688 0.707-1.368 1.093-2.035 0.204-0.356 0.412-0.702 0.619-1.044 0.019-0.019 0.029-0.046 0.045-0.07L6.018 5.867l0.021-0.035c0.632-1.018 1.307-2.008 2.019-2.967a22.385 22.385 0 0 1 0.613-0.793l0.156-0.192 0.685 1.29a28.009 28.009 0 0 0-0.718 1.082c-0.461 0.739-0.897 1.497-1.304 2.265l-0.581 1.109-0.594-1.176 0.589 1.179-0.019 0.04c-0.118 0.241-0.241 0.482-0.356 0.723a18.476 18.476 0 0 0-0.206 0.428l-0.552 1.189a114.669 114.669 0 0 0-1.526 3.599l-0.482 1.224a17.467 17.467 0 0 1-0.107 0.275c-0.118 0.324-0.244 0.64-0.359 0.956v0.011l-0.088 0.236-0.378 1.02-0.027 0.078z m8.663-12.379a13.335 13.335 0 0 1-0.895 1.504c-0.284 0.399-0.578 0.669-1.223 0.972l0.059-0.01c0.005-0.005 0.008-0.005 0.016-0.006 0.335-0.062 0.75-0.198 0.99-0.34a0.493 0.493 0 0 0 0.097-0.064 2.265 2.265 0 0 1-0.054 0.238c-0.016 0.067-0.043 0.145-0.069 0.228l-0.032 0.088-0.097 0.247a7.993 7.993 0 0 1-0.273 0.605c-0.021 0.051-0.048 0.102-0.075 0.152l-0.064 0.105a2.276 2.276 0 0 1-0.225 0.311l-0.107 0.117a3.213 3.213 0 0 1-0.303 0.271 3.296 3.296 0 0 1-0.723 0.404l0.046-0.005 0.171-0.03c0.345-0.083 0.672-0.228 0.967-0.428-0.37 0.736-0.873 1.331-1.682 1.639l0.139-0.019 0.134-0.03a2.672 2.672 0 0 0 0.68-0.233 18.048 18.048 0 0 1-0.482 1.318c-0.19 0.466-0.388 0.884-0.602 1.258a6.9 6.9 0 0 1-0.937 1.304c-0.739 0.798-1.888 1.446-2.75 1.553l0.043 0.009c0.98 0.204 1.995-0.126 2.667-0.868a7.19 7.19 0 0 1-0.284 0.501c-0.396 0.643-0.852 1.034-1.751 1.438 0.616 0.035 0.937-0.11 1.199-0.442a3.786 3.786 0 0 1-0.139 0.268c-0.576 0.953-1.698 1.28-2.991 1.221a1.446 1.446 0 0 1 0.466 0.99c-0.198-0.359-0.407-0.672-0.672-0.795l0.31-0.894a1.4 1.4 0 0 1 0.054-0.145v-0.016l0.353-0.991a2.241 2.241 0 0 0 0.07-0.187l0.008-0.027 0.455-1.216 0.019-0.059 0.45-1.164c0.163-0.426 0.332-0.835 0.493-1.232 0.329-0.806 0.669-1.607 1.022-2.402 0.139-0.311 0.27-0.611 0.407-0.9l0.134-0.289 0.26-0.549c0.075-0.169 0.158-0.327 0.236-0.49l0.072-0.155c0.005-0.005 0.008-0.016 0.005-0.03l0.016-0.002c0.198-0.402 0.383-0.779 0.571-1.133 0.402-0.777 0.827-1.542 1.269-2.295l0.035-0.061c0.236-0.396 0.458-0.75 0.658-1.061 0.892-0.062 1.781-0.171 2.665-0.321-0.029 0.139-0.059 0.287-0.102 0.442a7.942 7.942 0 0 1-0.201 0.602 11.091 11.091 0 0 1-0.501 1.106h-0.002z m6.295 1.804v12.307c0 0.75-0.11 1.411-0.335 1.96a3.58 3.58 0 0 1-0.937 1.371 3.668 3.668 0 0 1-1.422 0.803c-0.544 0.169-1.151 0.254-1.805 0.255a7.305 7.305 0 0 1-1.764-0.198 0.169 0.169 0 0 1-0.123-0.161v-2.255a0.169 0.169 0 0 1 0.203-0.166c0.206 0.048 0.434 0.088 0.67 0.121 0.434 0.064 1.007 0.08 1.446-0.027a1.285 1.285 0 0 0 0.889-0.777 2.212 2.212 0 0 0 0.139-0.838v-12.397c0-0.094 0.072-0.169 0.166-0.169h2.704c0.096 0 0.169 0.075 0.169 0.169z m22.996 3.856a3.62 3.62 0 0 0-1.387-0.894 5.053 5.053 0 0 0-1.807-0.305c-0.68 0-1.312 0.11-1.88 0.334-0.557 0.22-1.058 0.562-1.46 1.01a4.686 4.686 0 0 0-0.937 1.657 7.24 7.24 0 0 0-0.329 2.3c0 0.857 0.118 1.623 0.361 2.271 0.246 0.643 0.594 1.186 1.034 1.615 0.439 0.42 0.975 0.739 1.58 0.95a6.159 6.159 0 0 0 1.987 0.316c0.383 0 0.715-0.013 1.009-0.04a6.239 6.239 0 0 0 1.634-0.348c0.254-0.088 0.501-0.198 0.731-0.321a0.161 0.161 0 0 0 0.088-0.148v-2.061a0.169 0.169 0 0 0-0.241-0.148 6.708 6.708 0 0 1-2.215 0.71c-0.273 0.027-0.546 0.04-0.822 0.037a2.429 2.429 0 0 1-0.889-0.147 1.882 1.882 0 0 1-0.65-0.434 2.134 2.134 0 0 1-0.415-0.704 3.128 3.128 0 0 1-0.156-0.79h5.776a0.169 0.169 0 0 0 0.169-0.166v-1.293a5.693 5.693 0 0 0-0.305-1.941 3.915 3.915 0 0 0-0.876-1.457z m-4.707 2.756c0.059-0.578 0.217-1.009 0.471-1.28a1.387 1.387 0 0 1 1.058-0.448 1.473 1.473 0 0 1 0.658 0.14c0.187 0.088 0.348 0.222 0.472 0.385a1.732 1.732 0 0 1 0.281 0.589c0.054 0.19 0.088 0.396 0.101 0.614h-3.041z m28.579-3.714v2.501a0.166 0.166 0 0 1-0.207 0.16 1.947 1.947 0 0 0-0.68-0.072l-0.214-0.011c-0.324 0-0.624 0.043-0.902 0.126a1.703 1.703 0 0 0-0.678 0.388 1.799 1.799 0 0 0-0.436 0.707c-0.104 0.295-0.158 0.664-0.158 1.101v4.97a0.169 0.169 0 0 1-0.169 0.168h-2.662a0.169 0.169 0 0 1-0.168-0.168v-9.761c0-0.094 0.075-0.169 0.168-0.168h2.017c0.075 0 0.142 0.054 0.16 0.123l0.332 1.237c0.107-0.179 0.228-0.348 0.357-0.511a2.496 2.496 0 0 1 1.304-0.906 3.053 3.053 0 0 1 1.162-0.117c0.088 0 0.174 0 0.257 0.016a2.035 2.035 0 0 1 0.225 0.029 0.747 0.747 0 0 1 0.176 0.03 0.163 0.163 0 0 1 0.118 0.158h-0.002z m-15.949 7.481a0.161 0.161 0 0 1 0.073 0.134v1.984a0.161 0.161 0 0 1-0.089 0.147 4.081 4.081 0 0 1-0.974 0.335c-0.814 0.182-1.66 0.177-2.475-0.021a2.437 2.437 0 0 1-1.02-0.555 2.774 2.774 0 0 1-0.685-1.063 4.871 4.871 0 0 1-0.236-1.628V11.999h-1.109a0.169 0.169 0 0 1-0.166-0.166v-1.125a0.161 0.161 0 0 1 0.081-0.142l1.416-0.865 0.75-2.008a0.166 0.166 0 0 1 0.155-0.107h1.703c0.094 0 0.166 0.075 0.166 0.168v1.912h2.209c0.091 0 0.169 0.075 0.169 0.166v2.001a0.169 0.169 0 0 1-0.169 0.168h-2.209v4.539c0 0.332 0.078 0.573 0.228 0.718a0.843 0.843 0 0 0 0.618 0.225c0.252 0 0.485-0.029 0.705-0.081 0.238-0.059 0.474-0.134 0.707-0.214a0.166 0.166 0 0 1 0.152 0.019v0.002z m-16.347-10.379v12.773a0.169 0.169 0 0 1-0.166 0.163h-2.525a0.169 0.169 0 0 1-0.169-0.168v-6.561l0.038-1.266 0.026-0.648 0.022-0.501-2.726 9.024a0.166 0.166 0 0 1-0.161 0.118h-2.49a0.169 0.169 0 0 1-0.161-0.118l-2.487-8.89a66.8 66.8 0 0 1 0.088 2.356c0.008 0.198 0.013 0.38 0.014 0.546v5.94a0.169 0.169 0 0 1-0.169 0.168h-2.418a0.169 0.169 0 0 1-0.169-0.168V6.831c0-0.091 0.072-0.169 0.166-0.169h3.685c0.08 0 0.142 0.054 0.163 0.126l2.627 9.299 2.801-9.302a0.169 0.169 0 0 1 0.16-0.118h3.685c0.091 0 0.166 0.072 0.166 0.164z m24.461 3.856a3.618 3.618 0 0 0-1.385-0.894 5.05 5.05 0 0 0-1.81-0.305c-0.677 0-1.312 0.11-1.877 0.334-0.557 0.22-1.058 0.562-1.459 1.01a4.686 4.686 0 0 0-0.937 1.657c-0.233 0.744-0.348 1.521-0.332 2.3 0 0.857 0.123 1.623 0.361 2.271 0.249 0.643 0.597 1.186 1.036 1.615 0.439 0.42 0.975 0.739 1.58 0.95a6.159 6.159 0 0 0 1.987 0.316c0.383 0 0.712-0.013 1.007-0.04a6.175 6.175 0 0 0 2.367-0.669 0.161 0.161 0 0 0 0.088-0.148v-2.061a0.169 0.169 0 0 0-0.241-0.148 6.694 6.694 0 0 1-2.217 0.71c-0.27 0.027-0.546 0.04-0.819 0.037a2.423 2.423 0 0 1-0.889-0.147 1.874 1.874 0 0 1-0.648-0.434 2.139 2.139 0 0 1-0.421-0.704 3.12 3.12 0 0 1-0.152-0.79h5.775a0.169 0.169 0 0 0 0.169-0.166v-1.293a5.693 5.693 0 0 0-0.305-1.941 3.92 3.92 0 0 0-0.878-1.457z m-2.049 1.553a1.74 1.74 0 0 1 0.284 0.589c0.054 0.19 0.088 0.396 0.102 0.614h-3.045c0.059-0.578 0.22-1.009 0.474-1.28a1.387 1.387 0 0 1 1.058-0.448 1.473 1.473 0 0 1 0.659 0.14 1.285 1.285 0 0 1 0.468 0.385zM17.13 0.297h-0.367L14.854 4.865h0.479l0.584-1.43h2.059l0.589 1.43h0.482l-1.912-4.573H17.13z m-1.122 2.785l0.943-2.26 0.913 2.26h-1.856z m3.971 0.094h1.486c0.782 0 1.309-0.702 1.31-1.446 0-0.71-0.565-1.435-1.347-1.436h-1.896v4.574h0.444v-1.692z m0-2.48h1.425c0.501 0 0.926 0.461 0.926 1.034 0 0.554-0.348 1.05-0.889 1.049h-1.462v-2.083z m3.023 4.172l0.584-1.43h2.054l0.589 1.43h0.493l-1.912-4.574H24.44l-1.914 4.574h0.474z m1.623-4.043l0.916 2.257H23.69l0.943-2.26H24.628z m2.083 1.721c0-1.098 0.795-2.276 2.169-2.276a1.799 1.799 0 0 1 1.69 0.996l-0.362 0.217a1.441 1.441 0 0 0-1.349-0.811c-1.092 0-1.692 0.977-1.693 1.898 0 1.007 0.739 1.923 1.711 1.923a1.553 1.553 0 0 0 1.409-0.851l0.375 0.195c-0.297 0.685-1.109 1.063-1.81 1.063-1.253 0-2.139-1.197-2.14-2.356z m5.021 2.322h-0.442V0.294h0.442v2.035h2.707v-2.035h0.452v4.574h-0.452v-2.14h-2.704v2.14z m7.256 0h-3.066V0.294h3.01v0.402h-2.568v1.65h2.239v0.38h-2.241v1.74h2.629v0.402z"/></svg>