<svg fill="#326CAC" role="img" viewBox="0 0 327 24" xmlns="http://www.w3.org/2000/svg"><title>Apache FreeMarker</title><path d="M0.42 12.815v-4.226l15.764-7.312v3.819l-11.783 5.328v0.366l11.797 5.464v3.818L0.42 12.802z m43.216-3.424h-3.615l-0.965 5.558h4.118l-0.734 3.683h-3.982l-0.951 5.354h-3.71l0.937-5.354h-4.919l-0.951 5.354h-3.738l0.938-5.354h-3.452l0.734-3.683h3.357l0.965-5.572h-3.819l0.734-3.669h3.723l0.965-5.708h3.724l-0.979 5.708h4.934l0.964-5.708h3.751l-1.032 5.708h3.75l-0.734 3.669z m-7.298 0h-4.92l-1.005 5.558h4.919l1.006-5.572z m15.411-8.834h14.908v2.46h-12.231v8.426h10.954v2.432h-10.954v10.111h-2.677v-23.442z m36.625 23.429l-4.933-7.501a22.084 22.084 0 0 1-1.495 0.068H75.708v7.433h-2.677v-23.442h8.902c2.935 0 5.191 0.693 6.795 2.079 1.631 1.359 2.446 3.289 2.446 5.789a8.154 8.154 0 0 1-1.359 4.825 7.339 7.339 0 0 1-3.928 2.745l5.531 8.018h-3.044z m-6.441-9.92c2.147 0 3.792-0.462 4.933-1.4 1.155-0.951 1.74-2.351 1.739-4.186 0-1.78-0.584-3.126-1.739-4.05-1.142-0.938-2.786-1.413-4.933-1.413H75.708v11.062h6.225z m17.735-13.522h15.9v2.473H102.345v7.882h11.823v2.446H102.345v8.154h13.671v2.487H99.668v-23.442z m24.217 0h15.914v2.473h-13.237v7.882h11.824v2.446h-11.824v8.154h13.672v2.487H123.885v-23.442z m24.217 0h3.262l8.942 17.082 8.834-17.082h3.289v23.442h-2.515l-0.04-19.528-8.834 17.055h-1.549l-8.902-17.055v19.528h-2.487v-23.442z m51.289 23.442l-2.636-5.979h-12.775l-2.609 5.979h-2.854l10.532-23.442h2.773l10.491 23.442h-2.922z m-14.296-8.466h10.586l-5.327-12.055-5.259 12.055z m38.704 8.466l-4.933-7.501a22.084 22.084 0 0 1-1.495 0.068h-6.238v7.433h-2.677v-23.442h8.901c2.935 0 5.191 0.693 6.795 2.079 1.631 1.359 2.446 3.289 2.447 5.789a8.154 8.154 0 0 1-1.359 4.825 7.339 7.339 0 0 1-3.928 2.745l5.531 8.018h-3.044z m-6.442-9.92c2.147 0 3.792-0.462 4.933-1.4 1.155-0.951 1.74-2.351 1.74-4.186 0-1.78-0.584-3.126-1.74-4.05-1.142-0.938-2.786-1.413-4.933-1.413h-6.224v11.062h6.224z m36.856 9.92h-3.248l-8.629-11.143-4.566 4.987v6.156h-2.678v-23.442h2.678v13.766l12.597-13.766h3.221l-9.35 10.219 9.975 13.223z m6.741-23.442h15.9v2.473h-13.223v7.882h11.824v2.446h-11.824v8.154h13.658v2.487h-16.335v-23.442z m39.547 23.442l-4.919-7.501a22.084 22.084 0 0 1-1.495 0.068h-6.238v7.433h-2.677v-23.442h8.901c2.935 0 5.191 0.693 6.795 2.079 1.631 1.359 2.446 3.289 2.446 5.789 0 1.93-0.448 3.533-1.359 4.825s-2.229 2.215-3.927 2.745l5.531 8.018h-3.044z m-6.428-9.92c2.147 0 3.792-0.462 4.933-1.4 1.155-0.951 1.74-2.351 1.74-4.186 0-1.78-0.584-3.126-1.74-4.05-1.142-0.938-2.786-1.413-4.933-1.413h-6.224v11.062h6.224zM326.58 8.602v4.213l-15.764 7.271v-3.819l11.783-5.463v-0.367l-11.797-5.327v-3.805l15.778 7.297z"/></svg>