<svg fill="#E8E8E8" role="img" viewBox="0 0 26 24" xmlns="http://www.w3.org/2000/svg"><title>Apache Cordova</title><path d="M19.856 0H6.144L0.429 9.143l2.286 14.857h4.071l-0.286-3.429h2l0.286 3.429h8.427l0.286-3.429h2l-0.286 3.429h4.071L25.571 9.143 19.856 0zM19.856 18.285H6.144L5.001 9.143l2.286-4.571h3.672L10.714 6.285h4.572l-0.245-1.713h3.672l2.286 4.571L19.856 18.285zM16.714 11c0.315 0 0.571 0.951 0.571 2.125 0 1.174-0.256 2.126-0.571 2.126-0.315 0-0.571-0.951-0.571-2.126C16.143 11.952 16.398 11 16.714 11zM9.5 11.178c0.315 0 0.571 0.951 0.571 2.125 0 1.174-0.256 2.126-0.571 2.126-0.315 0-0.571-0.951-0.571-2.126C8.929 12.129 9.185 11.178 9.5 11.178z"/></svg>