<svg fill="#E42528" role="img" viewBox="0 0 37 24" xmlns="http://www.w3.org/2000/svg"><title>Apache CouchDB</title><path d="M29.929 15.999c0 1.516-0.799 2.258-2.286 2.286H9.357c-1.487-0.027-2.286-0.77-2.286-2.286s0.799-2.258 2.286-2.285h18.286c1.487 0.027 2.286 0.77 2.286 2.285m-2.286 3.429H9.357c-1.487 0.027-2.286 0.77-2.286 2.286s0.799 2.258 2.286 2.286h18.286c1.487-0.027 2.286-0.77 2.286-2.286s-0.799-2.258-2.286-2.286m5.715-12.569v-0.001c-1.487 0.026-2.286 0.768-2.286 2.284v12.572c0 1.516 0.799 2.258 2.286 2.286v-0.003c2.231-0.079 3.429-2.307 3.429-6.855v-5.714c0-3.033-1.198-4.517-3.429-4.569m-29.716-0.001C1.411 6.912 0.213 8.398 0.213 11.429v5.715c0 4.547 1.198 6.775 3.429 6.854v0.002c1.487-0.026 2.286-0.768 2.286-2.284v-12.573c0-1.516-0.799-2.258-2.286-2.285m29.716-1.143c0-3.788-1.996-5.646-5.715-5.712v-0.003H9.357v0.003c-3.718 0.066-5.715 1.923-5.715 5.712v0.001c2.231 0.04 3.429 1.154 3.429 3.427s1.198 3.388 3.428 3.428v0.001h16.002v-0.001c2.231-0.04 3.429-1.154 3.428-3.428s1.198-3.388 3.429-3.427z"/></svg>