<svg fill="#188FFF" role="img" viewBox="0 0 34 24" xmlns="http://www.w3.org/2000/svg"><title>Apache Pulsar</title><path d="M33.987 7.647h-8.304c-2.245-4.305-4.618-7.647-7.848-7.647-4.204 0-6.182 3.671-8.093 7.241l-0.167 0.311H0.013v2.124h5.569c1.968 0 2.368 0.662 2.368 0.662-1.543 2.394-3.397 4.761-6.489 4.761H0.013v2.228h1.458c5.994 0 8.611-4.861 10.712-8.767 1.927-3.597 3.27-5.776 5.652-5.776 2.473 0 5.073 5.381 7.363 10.132 0.335 0.691 0.675 1.399 1.019 2.099-8.777 0.279-12.96 2.334-16.363 4.011-2.49 1.226-4.455 2.746-7.691 2.746H0.013v2.228h2.133c3.899 0 6.328-1.203 8.911-2.479 3.581-1.76 7.641-3.754 17.21-3.754h5.53V15.539H30.675a1.67 1.67 0 0 1-1.376-0.556 100.267 100.267 0 0 1-1.604-3.286l-0.724-1.482s0.518-0.556 1.954-0.556H33.987Z"/></svg>