<svg fill="#F8DC75" role="img" viewBox="0 0 34 24" xmlns="http://www.w3.org/2000/svg"><title>Apache Tomcat</title><path d="M17.931 0c-0.532 0.899-0.767 2.982-0.708 4.461l-0.007 0.005c0.051 1.335 0.233 2.562 0.525 3.69-4.368 1.082-9.122 3.943-11.783 6.706-1.244-1.679-1.738-3.059-1.885-4.102-0.185-1.32 0.13-2.531 0.912-3.502 1.223-1.519 2.96-1.627 4.747-1.326-0.035 0.282 0.001 0.552 0.114 0.72 0.473 0.697 3.012 0.942 4.529 0.266-1.119-1.569-3.386-2.333-4.013-2.027a1.075 1.075 0 0 0-0.472 0.507c-0.618-0.11-1.232-0.193-1.679-0.189-1.576 0.011-2.781 0.561-3.682 1.683-0.886 1.1-1.244 2.465-1.036 3.95 0.198 1.405 0.893 2.899 2.06 4.449-0.195 0.207-0.381 0.413-0.561 0.615C2.149 19.086 0.071 22.496 0.071 23.063v0.292h3.75l-0.065-0.347c-0.212-1.119 0.212-2.518 1.076-3.563 0.545-0.656 1.445-1.405 2.86-1.751 1.257 1.227 2.86 2.531 4.643 3.788h2.787v-0.294a0.957 0.957 0 0 0-0.461-0.814c-0.44-0.288-1.12-0.327-1.745-0.114-0.594-0.663-0.928-1.549-1-2.648 6.048 0.536 11.834 2.977 18.361 6.388h3.592l0.046-0.236c0.068-0.334-0.116-0.784-0.488-1.2-0.643-0.719-1.903-1.061-2.955-1.036-0.725-0.863-4.715-5.066-4.948-5.311a13.58 13.58 0 0 0 3.771-4.017h1.958v-0.42H29.542a13.84 13.84 0 0 0 0.314-0.591h1.396v-0.422h-1.192c0.886-1.917 1.375-4.117 1.329-6.525l0.004 0.003c-0.003-0.66-0.207-3.449-0.586-4.217-1.024 0.389-2.888 1.651-3.309 2.94a20.537 20.537 0 0 0-6.297 0.079c-0.334-1.388-2.008-2.449-3.27-3.047z m0.232 0.814c0.298 1.62 0.837 2.637 2.003 3.136 1.036-0.296 2.229-0.48 3.453-0.547l1.012 2.216 0.649-2.236c1.236 0.041 2.449 0.2 3.506 0.492 1.075-0.782 1.491-1.975 1.718-3.016 0.285 1.213 0.251 3.833 0.254 3.833a13.943 13.943 0 0 1-0.223 2.805l-1.162 0.494 1.024 0.155a12.965 12.965 0 0 1-0.28 1.007l-0.991 0.289 0.79 0.284c-0.133 0.357-0.282 0.705-0.443 1.041h-1.637v0.422h1.422a12.398 12.398 0 0 1-0.335 0.591h-1.087v0.42h0.823a12.181 12.181 0 0 1-4.121 3.877c-1.882-0.937-3.303-2.305-4.344-3.877h0.629v-0.42h-0.897a12.972 12.972 0 0 1-0.333-0.591h1.23v-0.422h-1.447a14.277 14.277 0 0 1-0.649-1.543l0.736-0.208-0.929-0.371c-0.093-0.303-0.179-0.607-0.254-0.911l1.432-0.098-1.637-0.867c-0.398-2.205-0.317-4.345 0.088-5.955z m4.156 4.19c-1.256 0-1.749 1.282-1.771 1.337l0.356 0.133c0.017-0.047 0.426-1.091 1.415-1.091 0.217 0 0.37 0.087 0.479 0.276 0.257 0.443 0.214 1.316 0 2.229h-1.731v0.379h1.635a8.012 8.012 0 0 1-0.699 1.728l-0.091 0.158 2.169 1.365-1.221 0.804 0.209 0.316 1.364-0.899 1.472 0.961 0.202-0.322-1.365-0.844 2.142-1.391v-0.001c-0.449-0.663-0.593-1.23-0.404-1.875h0.153l1.646-0.001 0.003-0.378h-1.658c0.305-0.719 0.734-1.366 2.26-1.366v-0.381c-1.409 0-2.252 0.56-2.656 1.747h-3.039c0.212-0.948 0.25-1.881-0.065-2.42a0.889 0.889 0 0 0-0.804-0.465z m0.776 3.263h2.999c-0.134 0.429-0.08 1.076 0.251 1.632h-3.861c0.234-0.471 0.451-1.044 0.611-1.632z m-5.196 0.453c0.219 0.727 0.485 1.407 0.793 2.047h-1.284v0.422h1.495c0.106 0.2 0.216 0.398 0.329 0.591H17.409v0.42h2.085c1.284 1.998 3.019 3.526 4.986 4.681a13.332 13.332 0 0 0 0.643-0.395l0.511 0.55-0.861 1.324 1.468-0.669 0.855 0.92-1.438 1.095 1.979-0.512 2.688 2.892 0.226-0.02c1.421-0.121 2.229 0.649 2.44 0.889 0.158 0.175 0.253 0.334 0.304 0.46h-2.873c-6.588-3.438-12.374-5.862-18.519-6.391 0.014-0.856 0.165-1.824 0.457-2.904l-0.564-0.152c-0.3 1.109-0.458 2.112-0.477 3.011-0.64-0.042-1.284-0.065-1.934-0.065-0.552 0-1.054 0.051-1.513 0.141a20.838 20.838 0 0 1-1.537-1.707c0.77-0.804 1.679-1.584 2.67-2.318l1.365 0.942-0.446-1.591c0.419-0.282 0.851-0.556 1.289-0.818l2.023 1.03-0.949-1.64c0.279-0.15 0.561-0.296 0.843-0.437l2.832 1.899-0.931-2.754a21.613 21.613 0 0 1 2.869-0.941z m4.926 1.559h3.132l-1.529 1.009zM5.93 15.774c0.385 0.475 0.814 0.957 1.284 1.44a5.79 5.79 0 0 0-2.832 1.857c-0.887 1.072-1.357 2.486-1.25 3.699H0.769c0.475-1.027 2.366-3.997 5.161-6.996z"/></svg>