<svg fill="#FDEE21" role="img" viewBox="0 0 25 24" xmlns="http://www.w3.org/2000/svg"><title>Apache Hive</title><path d="M6.268 0c-0.338 0.221-0.664 0.537-1.016 0.896-0.581 0.602-0.968 1.19-1.559 1.625-0.119 0.102-0.451 0.266-0.869 0.29-0.196 0.01-0.325 0.043-0.686-0.003-0.319-0.173-0.621-0.06-0.917 0.294-0.324 0.466-0.736 1.351-0.906 1.909-0.353 1.421 0.545 2.592 1.406 3.495 0.765 0.746 1.206 1.214 1.52 1.9 0.238 0.445 0.414 1.055 0.605 1.481 0.068 0.136 0.054 0.135 0.24 0.176 0.399 0.086 0.955 0.086 1.449 0.129 0.214 0.003 0.507-0.005 0.784-0.034 0.383-0.073 0.833-0.143 1.211-0.274 0.368-0.092 0.697-0.217 0.993-0.332-0.038 0.129-0.32 0.254-0.425 0.419-0.983 1.406-1.267 2.662-1.114 4.609l-0.009-0.007 0.012 0.051 0.006 0.079c0.099 0.893 0.305 1.635 0.613 2.483a6.949 6.949 0 0 0 0.733 1.411c0.074 0.103 0.155 0.21 0.243 0.316h-0.002l0.005 0.004c0.95 1.155 2.765 2.504 5.21 3.052 0.467 0.063 0.996 0.03 1.495-0.102 1.32-0.401 4.011-1.348 4.011-1.348s-2.388 0.198-3.483 0.09c-0.253-0.04-0.531-0.053-0.708-0.226-0.031-0.038-0.138-0.255-0.068-0.257 0.095-0.003 0.368-0.115 0.787-0.153-0.896-0.096-0.884-0.095-0.95-0.258a10.187 10.187 0 0 0-0.418-0.904c0.394 0.034 1.267 0.082 1.563-0.223 0 0-0.516 0.059-0.972 0.007a2.821 2.821 0 0 1-0.495-0.14c-0.204-0.081-0.373-0.105-0.412-0.158-0.072-0.181-0.119-0.241-0.205-0.483-0.117-0.322-0.126-0.68-0.148-1.008 0.298 0.368 0.679 0.678 1.182 0.836 0.006-0.013 0.652 0.281 1.122 0.13l0.09-0.03c-0.046 0.009-0.314 0.02-0.418-0.03-0.955-0.407-1.099-0.761-1.253-0.939l-0.411-0.617c0.126-0.25 0.196-0.26 0.362-0.262 0.502 0.055 0.72 0.098 1.026 0.025 0.207 0.425 0.263 0.853 0.734 1.162 1.567 0.466 1.907-0.138 2.286-0.67 1.128 0.828 2.964 1.082 4.238 0.014 1.621-1.875 2.134-4.832 1.99-5.001-0.202-0.343-0.467-0.698-0.695-0.648-0.813 0.222-1.114 0.634-1.918 0.54 0.096-0.006 0.258-0.008 0.259-0.017 0.061-0.682-0.005-1.012-0.035-1.069-0.245-0.539-0.566-1.106-0.789-1.531-0.058-0.088-0.228-0.758-0.511-1.022-0.123-0.104-0.419-0.378-0.419-0.378l-0.027 0.291s0.117 0.017 0.162 0.197c0.081 0.329 0.32 0.873 0.554 1.36h-0.378l0.433 0.112c0.233 0.475 0.447 0.871 0.477 0.907 0.197 0.319 0.151 0.688 0.159 1.002l-0.113 0.056c-0.017-0.369-0.414-0.342-0.748-0.345l-0.274-0.068c0.084 0.078 0.341 0.072 0.237 0.238-0.088 0.047-0.128 0.247-0.178 0.416l-0.148 0.007c0.262 0.102 0.505 0.192 0.793 0.313l0.145 0.022-0.145 0.365-0.197-0.08-0.007-0.138c-0.347-0.139-1.017-0.197-1.041-0.169-0.247 0.242-0.427 0.536-0.623 0.818 0.268-0.208 0.47-0.523 0.831-0.61 0.029-0.003 0.386 0.066 0.58 0.1-0.125 0.026-0.327 0.035-0.357 0.079-0.275 0.339-0.476 0.752-0.713 1.129 0.326-0.336 0.425-0.681 0.979-1.007 0.046-0.031 0.383-0.024 0.547 0.059-0.052 0.187-0.171 0.41-0.265 0.621-0.136 0.32-0.394 0.614-0.593 0.922 0.621-0.756 0.445-0.479 0.859-0.967 0.174-0.413 0.347-0.858 0.508-1.299l0.031-0.016c0.055 0.034 0.48-0.008 0.812 0.012 0.571-0.123 0.547-0.375 1.041-0.413 0.332-0.026 0.366 0.599 0.36 0.648a7.407 7.407 0 0 1-0.592 2.222c-0.666 1.286-1.413 2.44-2.473 2.6-1.293 0.226-1.964-0.339-2.666-0.699l-0.267 0.229c-0.911 0.906-1.992 0.826-2.435-0.358l-0.003-0.006a2.901 2.901 0 0 0-0.094-0.179c-0.13-0.251-0.255-0.506-0.411-0.74-1.367-1.081-0.736-2.066-0.372-2.69-0.76-0.192-1.768-0.601-1.907-1.137-0.224-1.737-0.11-2.289 0.113-3.182-1.018 0.215-2.05 0.428-3.145 0.793l-0.001-0.008c-0.292 0.065-1.273 0.425-1.551 0.575-0.631 0.183-1.155 0.374-1.959 0.576a2.998 2.998 0 0 1-0.77-0.002c-0.578-0.079-1.565-0.008-1.628-0.067-0.391-0.547-0.499-1.526-0.856-2.05l-0.004-0.005-0.005-0.004c-0.207-0.281-0.451-0.509-0.69-0.746C1.759 8.13 1.027 7.306 0.821 6.434c-0.051-0.258-0.184-0.524-0.114-1.285l0.002-0.004 0.001-0.004c0.206-0.712 0.542-1.293 1.111-1.874 0.593 0.01 1.178 0.022 1.635 0.111 0.21 0.035 0.645 0.092 1.094 0.259 1.139 0.424 2.644 1.121 2.644 1.121-1.129-0.62-2.391-1.426-3.189-1.588-0.12-0.017-0.192-0.072-0.227-0.165 1.199-0.705 1.418-1.535 2.207-2.279 0.361-0.157 0.501-0.237 0.808-0.271 2.835 0.449 4.619 1.577 6.029 2.332 0.572 0.311 1.093 0.547 1.591 0.83 0.435 0.143 1.751 1.137 2.136 1.673 0.391 0.825 0.677 1.717 0.937 2.577 0.187 0.876 0.351 1.23 0.351 1.23s-0.158-0.732-0.133-0.863c0.166 0.061 0.554 0.184 0.715 0.163 0 0-0.72-0.372-0.814-0.701-0.302-1.056-0.607-2.699-0.689-2.784-0.231-0.29-1.194-1.027-1.784-1.369-0.223-0.129-0.343-0.208-0.353-0.266 0.188-0.19 0.421-0.443 0.631-0.603 0.199-0.153 0.382-0.327 0.661-0.429 1.226-0.553 1.927 0.212 2.095 0.057 0 0-0.265-0.302-0.147-0.252 0.12 0.064 0.511 0.141 0.554 0.181 0.447 0.35 1.616 1.628 2.319 2.977 0.17 0.33 0.238 0.548 0.16 0.945-0.079 0.399-0.139 0.617-0.225 0.883-0.078 0.178-0.516 1.395-0.514 1.559-0.089 0.667 0.286 1.503 0.286 1.503 0.003-0.227-0.014-0.347 0.006-0.51l0.026-0.29s-0.016-0.077-0.013-0.108c0.019-0.2 0.068-0.369 0.082-0.484 0.141-0.872 0.385-1.499 0.665-2.265 0.082-0.193 0.189-0.3 0.184-0.447 0.005-0.261-0.229-0.611-0.398-0.954a10.364 10.364 0 0 0-0.641-1.136c-0.609-0.876-1.127-1.561-2.077-1.99-0.266-0.117-1.312-0.231-1.674-0.163-0.438 0.092-0.815 0.182-1.116 0.375-0.472 0.302-0.844 0.772-1.28 1.047-0.965-0.482-1.431-0.843-1.516-0.893-0.573-0.307-1.261-0.663-2.001-1.002-0.356-0.328-2.559-1.12-4.578-1.277z m9.918 19.742c0.004 0 0.007-0.001 0.008-0.002z m2-16.619c0.051 0.266 0.093 0.528 0.294 0.863 0.429 0.473 0.584 0.807 0.643 0.955 0.21 0.538 0.377 1.075 0.531 1.613-0.051-0.56-0.242-1.161-0.32-1.697-0.044-0.245-0.975-1.717-1.148-1.734z m-7.233 2.565c1.074 0.273 2.666 0.28 3.442 0.76 0.011 0.042-0.02 0.069-0.068 0.092-0.191-0.027-0.38-0.079-0.582-0.031-0.296 0.095-0.56 0.275-0.84 0.415 0.771-0.157 0.986 0.028 1.572 0.076 0.634 0.241 1.007 1.405 1.424 1.734-0.386-0.845-0.631-2.105-1.385-2.774-0.937-0.3-2.317-0.231-3.563-0.273z m7.14 5.024a3.103 3.103 0 0 0-0.682 0.068c-0.164 0.22-0.174 0.443-0.246 0.649 0.486-0.537 0.68-0.569 1.459-0.681a4.526 4.526 0 0 0-0.532-0.036z m-7.958 0.373c0.507 1.901 1.549 3.815 2.586 5.56 0.399 0.507 0.508 0.734 1.111 1.04-0.05 0.105-0.105 0.235-0.166 0.384-1.157-0.571-2.112-1.259-3.074-1.952-1.545-1.128-1.932-2.471-2.202-4.227a0.371 0.371 0 0 1 0.122-0.11 4.656 4.656 0 0 1 1.623-0.695z m8.365 1.16c-0.476-0.002-0.87 0.164-1.381 0.493 0 0 0.566-0.082 0.556-0.031-0.038 0.179 0.049 0.588 0.075 0.615l0.006-0.005c0 0.006-0.003 0.008-0.006 0.005l-0.313 0.256c0.668-0.336 1.37-0.269 2.084-0.32 0 0-0.601-0.166-0.564-0.171 0.134-0.019-0.036-0.626-0.082-0.64a4.292 4.292 0 0 1 0.341-0.096 2.872 2.872 0 0 0-0.716-0.106z m-1.381 0.493z m0.924 0.082c0.096 0.001 0.193 0.029 0.225 0.092a0.495 0.495 0 0 1 0.019 0.271 0.55 0.55 0 0 0-0.404 0.123c-0.073 0.072-0.126-0.355-0.07-0.421 0.035-0.041 0.133-0.065 0.23-0.065z m3.084 0.305c0.086-0.001 0.262 0.009 0.293 0.123 0.02 0.063-0.043 0.276-0.074 0.298-0.047 0.024-0.364 0.003-0.377-0.062-0.027-0.078 0.038-0.313 0.111-0.356l0.047-0.003z m2.96 0.392l-0.565 0.276c-0.92 0.29-0.975 0.031-1.318-0.067 0.227 0.259 0.498 0.452 0.979 0.337 0.659-0.2 0.682-0.368 0.904-0.546z m-16.861 0.715c0.511 1.39 2.95 3.98 6.224 4.372l-0.009 0.018c-0.112 0.272-0.206 0.74-0.2 1.128l-0.006 0.011c-4.246-0.904-4.773-2.038-6.082-3.053-0.095-0.785-0.107-1.637 0.073-2.476z m9.649 1.946c-0.021 0-0.034 0-0.034 0.003-0.302 0.215-0.347 0.421-0.341 0.599 0.502-0.494 0.483-0.496 1.216-0.491a7.42 7.42 0 0 0-0.841-0.111z m0.303 0.371c-0.107 0.579-0.498 0.991-0.801 1.398-0.06 0.095-0.103 0.225 0.194 0.637 0.08 0.11 0.368 0.129 0.562 0.119-0.197-0.149-0.499-0.308-0.548-0.446 0.348 0.238 0.671 0.307 0.964 0.268 0.066-0.007 0.149-0.079 0.213-0.187 0.13-0.28 0.232-0.347 0.335-0.422l0.238 0.296 0.267-0.228c-0.594-0.465-1.093-0.943-1.424-1.435z m-9.485 2.473c1.492 0.897 3.898 1.879 5.94 1.83 0.204 0.355 0.449 0.727 0.646 1.023-2.6 0.395-4.403-0.4-5.505-0.94l-0.119-0.121c-0.353-0.4-0.691-1.159-0.962-1.793z m7.035 3.532c0.102 0.212 0.268 0.387 0.279 0.41 0.875 1.141-1.103 0.878-1.51 0.809-0.726-0.115-1.436-0.4-2.111-0.784 1.098-0.021 2.256 0.061 3.342-0.435Z"/></svg>