<svg fill="#1B6AC6" role="img" viewBox="0 0 22 24" xmlns="http://www.w3.org/2000/svg"><title>Apache NetBeans IDE</title><path d="M21.858 6.121c-0.009-0.087-0.049-0.16-0.121-0.21C21.738 5.91 11.119 0.032 11.118 0.03a0.249 0.249 0 0 0-0.237 0c-0.003 0-10.613 5.878-10.614 5.88-0.074 0.05-0.116 0.124-0.125 0.212v11.837c0.015 0.057 0.018 0.125 0.071 0.161 0.018 0.079 10.617 5.798 10.67 5.85a0.246 0.246 0 0 0 0.234 0c0.003-0.002 10.614-5.796 10.615-5.798 0.075-0.049 0.115-0.126 0.125-0.213V6.121z m-17.633 9.329L0.632 17.534V6.54l3.592 2.011z m13.551-6.899l3.592-2.011v10.994l-3.592-2.084z m-0.741-0.145c-2.011 1.132-4.023 2.263-6.035 3.394a125706.698 125706.698 0 0 1-6.035-3.394L11 4.935zM4.714 15.447V8.827l6.041 3.398v6.544l-6.041-3.322z m6.531 3.322v-6.544l6.041-3.398v6.62c-2.014 1.107-4.027 2.215-6.041 3.322zM11 0.525l10.109 5.598-3.577 2.003-6.41-3.686a0.242 0.242 0 0 0-0.244 0L4.468 8.126l-3.577-2.003L11 0.525zM4.473 15.873l6.282 3.455v4.014L0.887 17.952z m6.772 7.469v-4.014l6.282-3.455 3.586 2.079z"/></svg>