<svg fill="#29F1FB" role="img" viewBox="0 0 33 24" xmlns="http://www.w3.org/2000/svg"><title>Apache Druid</title><path d="M12.321 23.995c-0.503 0-1.005 0.01-1.511 0-0.477-0.01-0.8-0.281-0.849-0.681a0.8 0.8 0 0 1 0.722-0.866c1.076-0.084 2.155-0.086 3.231-0.004a0.746 0.746 0 0 1 0.711 0.82c-0.033 0.444-0.345 0.716-0.839 0.735zM2.595 7.021c-0.534 0-1.065 0.011-1.598 0.003-0.445-0.008-0.786-0.3-0.836-0.697-0.05-0.399 0.199-0.741 0.68-0.838 0.262-0.044 0.529-0.061 0.794-0.053a111.035 111.035 0 0 1 2.175 0c0.222 0 0.443 0.026 0.658 0.076 0.392 0.099 0.606 0.433 0.56 0.841-0.046 0.406-0.291 0.65-0.702 0.663-0.578 0.019-1.155 0.005-1.732 0.005z m10.336 11.465H6a3.356 3.356 0 0 1-0.444-0.009c-0.4-0.054-0.654-0.285-0.692-0.689-0.04-0.406 0.15-0.682 0.533-0.826 0.244-0.089 0.497-0.069 0.748-0.069 4.559 0 9.12 0.007 13.678-0.008 1.599-0.005 2.979-0.598 4.077-1.771 0.94-1.005 1.434-2.22 1.58-3.589 0.116-1.073-0.037-2.061-0.703-2.937-0.741-0.978-1.744-1.468-2.946-1.474-4.308-0.018-8.62-0.007-12.922-0.014-0.458 0-0.917-0.037-1.372-0.079-0.395-0.037-0.613-0.274-0.639-0.67-0.029-0.432 0.192-0.742 0.584-0.817a2.111 2.111 0 0 1 0.395-0.02h13.863c2.329 0.005 4.341 1.414 5.075 3.615 0.522 1.562 0.335 3.138-0.248 4.653-1.122 2.908-3.762 4.697-6.885 4.704-2.25 0.007-4.5 0-6.751 0z m3.958-18.481c2.088 0 4.176-0.011 6.263 0 3.998 0.025 7.667 2.577 9.063 6.301 0.602 1.609 0.733 3.273 0.561 4.982-0.252 2.509-1.001 4.838-2.419 6.925-2.19 3.221-5.276 5.013-9.098 5.609-1.294 0.202-2.595 0.177-3.896 0.177-0.541 0-0.831-0.247-0.862-0.695-0.034-0.478 0.267-0.846 0.8-0.878 0.591-0.035 1.185-0.005 1.777-0.022 3.597-0.098 6.713-1.338 9.181-3.998 1.729-1.866 2.604-4.14 2.901-6.644 0.206-1.737 0.184-3.465-0.504-5.111-1.053-2.52-2.941-4.063-5.541-4.78-1.008-0.278-2.043-0.331-3.078-0.336-3.864-0.023-7.73-0.01-11.593-0.01-0.163 0-0.327 0.005-0.489-0.008a0.776 0.776 0 0 1-0.705-0.73 0.759 0.759 0 0 1 0.622-0.759c0.177-0.025 0.356-0.033 0.534-0.026h6.486Z"/></svg>