<svg fill="#F09D13" role="img" viewBox="0 0 27 24" xmlns="http://www.w3.org/2000/svg"><title>Apache Kylin</title><path d="M9.159 16.879l-0.645 1.411h0.155l0.17-0.376h0.788l0.168 0.377h0.158l-0.646-1.412h-0.148z m-0.265 0.913l0.339-0.759 0.339 0.759h-0.678z m1.262-0.563v1.453h0.144v-0.591a0.464 0.464 0 0 0 0.403 0.21c0.303 0 0.528-0.219 0.529-0.54a0.514 0.514 0 0 0-0.529-0.54 0.46 0.46 0 0 0-0.409 0.219v-0.21h-0.138z m0.536 0.117c0.224 0 0.396 0.167 0.396 0.414 0 0.248-0.172 0.415-0.395 0.414-0.226 0-0.396-0.166-0.396-0.414 0-0.245 0.17-0.414 0.396-0.414z m1.627 0.945v-0.658c0-0.274-0.155-0.411-0.428-0.412a0.674 0.674 0 0 0-0.433 0.143l0.065 0.108a0.541 0.541 0 0 1 0.353-0.126c0.197 0 0.3 0.098 0.3 0.281v0.065h-0.337c-0.304 0-0.409 0.137-0.409 0.301 0 0.183 0.148 0.309 0.387 0.308 0.175 0 0.301-0.067 0.366-0.175v0.164h0.136z m-0.142-0.319c-0.057 0.14-0.176 0.217-0.338 0.217-0.169 0-0.268-0.077-0.268-0.201 0-0.109 0.066-0.189 0.274-0.189h0.331v0.173z m0.575-0.211c0 0.249 0.17 0.414 0.401 0.413a0.359 0.359 0 0 0 0.309-0.155l0.107 0.072c-0.084 0.137-0.236 0.21-0.416 0.21-0.317 0-0.547-0.224-0.547-0.54 0-0.317 0.23-0.539 0.547-0.54 0.179 0 0.332 0.071 0.416 0.21l-0.107 0.073a0.361 0.361 0 0 0-0.309-0.158c-0.232 0-0.402 0.166-0.401 0.415z m1.225-0.968v0.622c0.079-0.123 0.218-0.194 0.397-0.194 0.258 0 0.435 0.15 0.436 0.454v0.616h-0.142v-0.601c0-0.224-0.118-0.339-0.32-0.34-0.228 0-0.372 0.142-0.372 0.383v0.558h-0.142v-1.499h0.142z m2.153 0.968c0-0.319-0.217-0.539-0.514-0.54-0.3 0-0.52 0.224-0.52 0.54 0 0.314 0.226 0.541 0.558 0.54a0.522 0.522 0 0 0 0.41-0.174l-0.081-0.093a0.418 0.418 0 0 1-0.325 0.14c-0.232 0-0.402-0.148-0.418-0.37h0.888l0.002-0.043z m-0.89-0.064a0.369 0.369 0 0 1 0.375-0.352c0.208 0 0.36 0.144 0.378 0.352h-0.753z m1.891-0.818v0.853l0.829-0.853h0.172l-0.612 0.639 0.654 0.773h-0.177l-0.578-0.664-0.288 0.292v0.372h-0.149v-1.412h0.149z m1.413 1.513l0.046-0.103-0.474-1.06h0.149l0.4 0.903 0.399-0.903h0.142l-0.532 1.189c-0.088 0.208-0.201 0.274-0.352 0.274a0.363 0.363 0 0 1-0.258-0.096l0.066-0.108a0.266 0.266 0 0 0 0.194 0.081c0.094 0 0.159-0.044 0.219-0.177z m1.007-1.599v1.498h-0.143v-1.499h0.142z m0.399 0.436h0.142v1.061h-0.142v-1.061z m0.072-0.232a0.104 0.104 0 0 1-0.104-0.103c0-0.055 0.046-0.101 0.104-0.101a0.102 0.102 0 1 1 0 0.204z m0.609 0.232v0.197c0.077-0.13 0.219-0.205 0.404-0.205 0.258 0 0.435 0.15 0.435 0.454v0.615h-0.143v-0.602c0-0.223-0.117-0.338-0.319-0.338-0.229 0-0.372 0.142-0.372 0.383v0.558h-0.142v-1.061h0.137zM2.652 15.731C0.659 15.72 0.506 15.715 0.439 15.672c-0.092-0.06-0.092-0.15-0.002-0.331 0.244-0.49 0.853-0.832 1.833-1.031 0.629-0.127 1.003-0.276 1.346-0.533 0.409-0.307 0.457-0.589 0.132-0.755a2.757 2.757 0 0 1-0.95-0.86c-0.322-0.489-0.538-1.271-0.538-1.946 0-0.351 0.184-1.026 0.393-1.447 0.309-0.618 0.744-1.054 1.353-1.352a3.33 3.33 0 0 1 1.368-0.326c0.093 0 0.155-0.015 0.194-0.048 0.055-0.044 0.057-0.056 0.029-0.142-0.044-0.13-0.225-0.291-0.408-0.359-0.171-0.063-0.363-0.093-0.883-0.133-0.197-0.014-0.416-0.044-0.486-0.066a0.862 0.862 0 0 1-0.45-0.306c-0.062-0.093-0.073-0.138-0.073-0.284 0-0.153 0.012-0.196 0.107-0.37 0.101-0.184 0.142-0.292 0.219-0.571 0.025-0.094 0.04-0.112 0.098-0.111 0.036 0 0.109 0.034 0.162 0.076 0.319 0.252 1.294 0.58 1.719 0.58 0.269 0 0.395-0.038 0.496-0.153 0.07-0.08 0.078-0.104 0.063-0.198a1.134 1.134 0 0 0-0.293-0.549c-0.153-0.153-0.466-0.312-0.759-0.389a2.102 2.102 0 0 0-0.552-0.059c-0.377-0.004-0.408 0.004-0.616 0.178-0.173 0.144-0.23 0.131-0.422-0.097-0.483-0.571-0.707-1.165-0.567-1.499 0.045-0.109 0.104-0.132 0.511-0.201 0.178-0.03 0.545-0.1 0.814-0.157 1.056-0.221 1.639-0.293 2.368-0.292 0.613 0.001 0.64-0.007 0.805-0.253 0.218-0.325 0.297-0.64 0.298-1.19 0-0.444 0.02-0.498 0.177-0.498 0.124 0 0.302 0.088 0.391 0.193 0.175 0.207 0.242 0.48 0.272 1.107 0.019 0.384 0.038 0.557 0.088 0.75 0.103 0.398 0.16 0.487 0.594 0.916 0.539 0.534 0.7 0.79 0.8 1.27 0.08 0.385 0.035 0.84-0.117 1.187-0.187 0.43-0.634 0.925-1.131 1.255-0.384 0.256-0.828 0.467-2.518 1.2-0.325 0.14-0.667 0.295-0.762 0.341-0.612 0.309-1.184 0.893-1.404 1.434-0.063 0.153-0.077 0.23-0.087 0.485-0.018 0.47 0.083 0.788 0.372 1.17 0.198 0.265 0.58 0.556 0.865 0.663 0.353 0.132 0.849 0.139 1.263 0.018 0.405-0.118 0.872-0.395 0.817-0.484-0.028-0.046-0.088-0.034-0.268 0.053-0.686 0.327-1.44 0.376-1.871 0.122a2.235 2.235 0 0 1-0.602-0.603c-0.249-0.422-0.328-1.02-0.189-1.425a1.247 1.247 0 0 1 0.343-0.512c0.263-0.255 1.087-0.676 2.691-1.377 0.95-0.416 1.138-0.508 1.469-0.729a4.069 4.069 0 0 0 1.827-3.43c0-0.162 0.011-0.295 0.023-0.295 0.031 0 0.208 0.236 0.342 0.455 0.686 1.123 0.922 2.624 0.591 3.767-0.311 1.07-1.037 1.905-1.937 2.226a2.524 2.524 0 0 1-0.962 0.153 2.812 2.812 0 0 1-0.933-0.142c-0.511-0.148-0.891-0.162-1.302-0.048-0.379 0.105-0.569 0.257-0.643 0.514a0.746 0.746 0 0 0 0.087 0.567c0.094 0.175 0.181 0.235 0.354 0.249 0.256 0.021 0.599-0.159 0.598-0.314 0-0.034-0.077-0.195-0.17-0.357-0.094-0.162-0.171-0.323-0.171-0.359 0-0.097 0.092-0.146 0.275-0.145 0.241 0 0.394 0.083 0.577 0.311 0.173 0.214 0.329 0.328 0.515 0.372 0.225 0.055 0.257 0.173 0.142 0.521-0.191 0.571-0.678 1.24-1.564 2.144a9.456 9.456 0 0 0-0.652 0.722c-0.245 0.349-0.481 0.861-0.618 1.34-0.095 0.335-0.179 0.42-0.449 0.45-0.043 0.005-1.042 0.003-2.219-0.004zM11.028 1.789a11.686 11.686 0 0 1 5.621-0.698c2.882 0.368 5.352 1.827 6.888 4.07 0.546 0.797 0.765 1.251 0.766 1.588 0 0.379-0.265 0.583-0.676 0.522a1.072 1.072 0 0 1-0.556-0.297 27.058 27.058 0 0 1-0.735-0.854c-1.431-1.712-1.896-2.199-2.631-2.753a9.438 9.438 0 0 0-2.031-1.143c-1.991-0.78-4.315-0.881-6.681-0.291-0.541 0.135-0.525 0.073 0.035-0.144zM26.419 12.974c-0.393 1.02-1.339 1.785-2.627 2.125-1.027 0.27-1.86 0.267-2.692-0.011a4.726 4.726 0 0 1-1.554-0.919c-0.241-0.224-0.322-0.252-0.321-0.107 0 0.073 0.037 0.136 0.197 0.335 0.253 0.312 0.368 0.534 0.345 0.671-0.022 0.135-0.114 0.208-0.285 0.23-0.202 0.024-2.784 0.004-2.837-0.022-0.114-0.056 0.013-0.339 0.222-0.493 0.156-0.114 0.301-0.173 0.538-0.217 0.201-0.038 0.27-0.082 0.27-0.172 0-0.022-0.059-0.16-0.131-0.304a2.851 2.851 0 0 1-0.252-0.791c-0.026-0.142-0.194-0.08-0.349 0.128-0.27 0.362-0.458 0.937-0.579 1.776-0.061 0.413-0.093 0.503-0.197 0.549-0.053 0.024-0.613 0.031-2.268 0.028a114.733 114.733 0 0 1-2.265-0.015c-0.233-0.044-0.195-0.278 0.088-0.525 0.23-0.201 0.769-0.456 1.426-0.674 0.444-0.148 0.497-0.189 0.494-0.394-0.002-0.317-0.257-0.627-0.955-1.16-0.734-0.559-0.945-1.659-0.47-2.446 0.286-0.472 0.799-0.856 1.313-0.981 0.879-0.214 1.565 0.036 1.884 0.687 0.12 0.246 0.199 0.522 0.175 0.616-0.024 0.097-0.102 0.078-0.298-0.072-0.282-0.217-0.475-0.295-0.746-0.306-0.279-0.011-0.455 0.039-0.604 0.175-0.173 0.154-0.217 0.267-0.218 0.555 0 0.228 0.008 0.265 0.085 0.429 0.413 0.871 1.75 1.039 2.684 0.337 0.304-0.23 0.682-0.862 0.792-1.33 0.047-0.198 0.055-0.292 0.043-0.578-0.01-0.292-0.022-0.374-0.089-0.568-0.17-0.487-0.375-0.75-0.736-0.935-0.55-0.284-1.24-0.361-2.176-0.241-0.797 0.101-1.634 0.065-2.134-0.094-0.219-0.069-0.295-0.125-0.295-0.212 0-0.073 0.025-0.081 0.328-0.103 0.468-0.034 0.98-0.161 1.807-0.447 0.271-0.094 0.608-0.2 0.748-0.235 0.857-0.217 1.761-0.276 2.427-0.16 0.284 0.049 0.626 0.219 0.887 0.44 0.76 0.643 1.497 1.948 2.094 3.71 0.184 0.544 0.353 0.918 0.553 1.222 0.449 0.686 1.048 1.105 1.806 1.263 0.088 0.019 0.306 0.033 0.486 0.032a2.396 2.396 0 0 0 1.096-0.257c0.665-0.316 1.069-0.81 1.272-1.557 0.074-0.274 0.082-0.93 0.015-1.188-0.158-0.591-0.538-0.98-1.136-1.159-0.262-0.078-0.846-0.1-1.031-0.038a0.96 0.96 0 0 0-0.587 0.562c-0.048 0.12-0.059 0.204-0.061 0.438-0.002 0.259 0.005 0.304 0.068 0.438 0.19 0.406 0.553 0.599 1.128 0.599 0.284 0 0.328 0.022 0.3 0.153-0.033 0.149-0.195 0.246-0.478 0.29a1.824 1.824 0 0 1-1.079-0.142c-0.337-0.156-0.651-0.522-0.788-0.914a1.589 1.589 0 0 1-0.023-0.831 2.626 2.626 0 0 1 0.403-0.801c0.437-0.538 1.16-0.816 1.942-0.744 1.096 0.101 1.947 0.699 2.321 1.635 0.304 0.758 0.315 1.965 0.024 2.72z m-14.102 0.623c-0.29 0.197-1.116 0.293-2.093 0.241-0.599-0.031-0.657-0.021-0.699 0.124-0.045 0.159 0.037 0.348 0.256 0.585 0.295 0.323 0.318 0.489 0.084 0.615-0.107 0.057-0.117 0.057-1.684 0.063-1.313 0.004-1.59 0-1.66-0.031-0.152-0.066-0.141-0.289 0.023-0.475 0.146-0.164 0.195-0.178 0.714-0.195 0.423-0.013 0.472-0.019 0.505-0.066a0.207 0.207 0 0 0 0.036-0.103c0-0.089-0.112-0.333-0.232-0.51-0.191-0.282-0.224-0.377-0.225-0.666-0.001-0.281 0.026-0.347 0.191-0.459 0.277-0.188 1.025-0.109 1.78 0.189 0.733 0.29 1.453 0.406 2.526 0.406 0.557 0 0.64 0.005 0.653 0.042 0.021 0.051-0.06 0.164-0.175 0.24z m11.154 5.473c0.051 0.044 0.042 0.195-0.022 0.318-0.135 0.265-0.567 0.771-1.103 1.294-0.921 0.898-1.75 1.482-2.924 2.062-1.743 0.86-3.479 1.269-5.329 1.256a20.811 20.811 0 0 1-0.738-0.013 11.325 11.325 0 0 1-2.621-0.525c-2.392-0.786-4.424-2.363-5.909-4.584-0.41-0.616-0.566-0.979-0.588-1.374-0.016-0.278 0.012-0.405 0.131-0.581a0.59 0.59 0 0 1 0.265-0.219c0.171-0.088 0.195-0.092 0.433-0.091 0.55 0.004 0.984 0.27 1.481 0.908 0.094 0.12 0.357 0.491 0.585 0.823 0.47 0.687 0.827 1.169 1.144 1.549 0.279 0.335 0.788 0.843 1.068 1.067 0.458 0.365 1.537 0.944 2.317 1.241 2.538 0.966 5.143 0.875 7.734-0.27 1.335-0.591 2.635-1.492 3.578-2.484 0.323-0.339 0.438-0.427 0.498-0.377z"/></svg>