<svg fill="#4298B8" role="img" viewBox="0 0 49 24" xmlns="http://www.w3.org/2000/svg"><title>Apache Groovy</title><path d="M24.494 0S21.123 5.587 19.522 8.303c-0.311 0.116-0.345 0.082-0.683 0.414-0.822-0.942-1.798-0.082-2.06 0.441-0.114-1.134-0.303-1.136-0.56-1.39 0.148-0.994 0.633-2.615-0.483-3.776-2.16-1.457-4.661 2.104-6.054 3.972l-0.751 1.246c-3.098-0.064-5.537 0.016-8.479-0.042 3.587 1.343 3.735 1.375 8.068 3.018 0 0.132 0.323 0.745 0.681 1.107 0.295 0.301 0.617 0.469 0.78 0.569-0.212 0.108-0.641 0.277-0.772 0.517-0.585 1.094 0.279 1.347 0.838 2.218 0.631 1.138 0.766 1.892 2.257 1.253 0.509-0.22 1.126-0.297 1.519-0.421-1.389 2.192-1.743 2.79-4.175 6.561l0.024 0.008c9.719-3.794 9.968-3.892 14.776-5.792 6.91 2.681 7.307 2.902 14.894 5.794-1.06-1.655-1.784-2.691-2.553-3.998 0.303-0.026 0.968-0.092 1.557-0.467 0.427-0.271 0.928-0.577 1.378-1.15 0.888-1.132 1.104-2.559 0.782-4.341-0.156-0.848-0.471-1.671-0.427-1.703 4.13-1.559 4.617-1.727 8.469-3.181-4.629 0.068-4.854 0.02-9.2 0.032-0.072-0.83-0.489-1.257-1.768-1.214-0.477 0.078-0.78 0.24-1.002 0.892-0.715-1.317-1.703-0.93-2.124-0.281-0.551-0.565-1.838-0.756-2.485-0.341-0.477-0.224-1.03-0.224-1.517 0.355-0.351-0.293-0.461-0.377-1.231-0.685-1.776-3-3.251-5.395-4.729-7.918z m0.024 1.607c0.701 1.072 3.11 5.23 3.705 6.161-0.675 0.046-1.339 0.405-1.839 1.126-0.435-0.449-0.942-0.892-1.838-0.928-1.09-0.186-1.671 0.297-2.405 1.138-0.216-0.731-1.062-0.902-1.795-0.561 0.655-1.04 3.752-6.257 4.172-6.934zM15.382 6.244c-0.1 2.874-2.14 5.435-3.603 4.499-1.104-0.9 0.299-3.174 1.182-3.977-0.066 0.615 0.493 0.998 0.046 1.543-0.894 1.088-0.541 1.876-0.156 1.996 1.028 0.325 2.012-2.459 2.012-4.411 0-1.253-0.733-1.228-2.177 0.272-1.97 2.048-3.032 4.032-2.324 5.391 0.395 0.762 0.972 1.305 1.922 1.19 1.854-0.22 2.972-2.513 3.092-3.983 0.297-0.006 0.218 0.02 0.296-0.041 0 0.259 0.355 1.513 0.636 2.337 0.367 1.407 1.932 4.228-2.744 5.327-0.882 0.22-1.23 0.297-2.104 0.641-0.427-0.888-0.527-1.172-1.397-2.03 1.178-0.411 1.188-0.371 1.948-0.635 2.94-1.022 3.824-1.898 3.721-3.147 0 0 0.036-0.641-0.37-1.178a5.236 5.236 0 0 1-0.587 1.293c-0.876 1.363-2.597 2.206-4.129 1.669-0.836-0.293-1.194-0.934-1.194-2.034 0-1.409 3.208-5.481 4.783-6.172 1.112-0.331 1.16 0.587 1.145 1.45z m13.03 2.606c0.521 0.012 1.088 0.267 1.473 0.681 1.19 1.283 1.06 2.84 0.326 3.818-0.872 1.164-3.07 0.649-3.589-0.978-0.24-0.758 0.19-2.629 0.952-3.255a1.259 1.259 0 0 1 0.838-0.264z m-4.235 0.132a1.006 1.006 0 0 1 0.235 0.034c1.008 0.06 1.222 0.627 1.405 1.122 0.463 1.255 0.347 2.429-0.604 3.389-1.425 1.441-3.086 0.804-3.078-1.136 0.028-1.383 0.888-3.437 2.044-3.407z m3.744 0.076c-0.768 0.575-0.866 2.05-0.16 2.597 0.277 0.261 0.431 0.441 1.228 0.513 0.547 0.048 1.411-0.507 1.453-1.056 0.02-0.251-0.026-0.667-0.625-1.342-0.505-0.567-1.16-0.699-1.325-0.602-0.531 0.313 0.042 0.561 0.25 0.768 0.325 0.327 0.401 0.469 0.251 0.565a0.896 0.896 0 0 1-0.746 0.114c-0.21-0.098-0.914-0.493-0.326-1.557z m7.533 0.006c0.335 0.521 0.431 0.633 0.806 1.934 0.481 1.679 1.094 2.331 1.635 2.024 1.483-0.838 0.297-2.958-0.227-3.956 0.335-0.004 0.269 0.014 0.573 0.01 0.24 0.944 0.172 0.776 0.816 3.633 0.772 3.419 0.886 4.329-1.058 5.864-0.894 0.705-2.21 0.741-3.341 0.682l-1.274-0.191c0.878-0.575 1.092-1.116 1.086-2.236 2.561 1.072 3.926 0.265 4.469-1.054 0.265-0.635 0.172-1.473-0.08-2.948 0.016 1.202-0.01 1.423-0.169 2.018-0.317 1.192-1.096 1.523-1.627 0.681-0.204-0.327-0.691-1.407-0.842-2.569-0.15-1.162-0.265-2.796-1.002-3.479 0.08-0.16 0.164-0.341 0.235-0.413z m-2.499 0.02c0.517 0.136 1.146 0.409 1.483 1.042 0.469 0.874 0.778 1.339 0.753 2.9-0.028 1.667-0.681 2.114-1.116 2.176-0.557 0.08-1.527 0.068-2.102-3.202-0.19-1.084-0.537-2.116-0.902-2.453 0.18-0.22 0.194-0.192 0.331-0.409 0.182 0.2 0.341 0.541 0.597 1.557 0.405 1.619 0.776 1.954 1.493 2.044 1.118 0.144 1.559-1.563 0.637-2.787-0.2-0.269-0.731-0.615-1.008-0.473 0.016 0.473 0.226 0.325 0.229 0.637-0.052 0.371-0.106 0.439-0.227 0.642-0.285-0.112-0.421-0.156-0.669-0.584-0.315-0.621-0.11-1.202 0.501-1.09z m-9.213 0.152c-0.527 0.371-1.19 1.603-0.609 2.706 0.287 0.411 0.595 0.745 1.279 0.601 0.491-0.102 1.345-0.681 1.463-1.501 0.104-0.701-0.914-2.06-1.479-1.743-0.655 0.367-0.257 0.629 0.148 1.024 0.371 0.361 0.104 0.579-0.154 0.685-0.517 0.212-0.808 0.006-0.936-0.407-0.13-0.411-0.02-0.762 0.288-1.363z m-5.745 0.129c0.112 0.345 0.2 0.806 0.437 1.25 0.056 0.046 0.265 0 0.539-0.314 0.172-0.2 0.371-0.477 0.715-0.928 0.208 0.19 0.226 0.333 0.285 0.439 0.146 0.261 0.451 0.24 0.547 0.212 0.337-0.335 0.391-0.551 0.613-0.581 0.02 0.433 0.042 0.701-0.515 1.357a1.072 1.072 0 0 1-1.004 0.344c-0.24-0.068-0.399-0.216-0.779-0.411-0.517 0.08-0.381 0.631-0.287 1.095 0.24 1.224 1.002 1.713 1.667 1.352 0.232-0.124 0.18-0.124 0.626-0.306-0.076 0.778-0.12 0.928 0.02 1.795-1.084 0.603-1.968 0.501-2.209-1.014-0.182-1.267-0.523-2.806-0.831-3.118-0.291-0.295-0.411-0.391-0.411-0.391l0.587-0.781z m-14.257 0.164c1.509 0.02 3.21 0.02 5.023 0.034-0.261 0.637-0.351 1.082-0.387 1.712-0.846-0.327-3.762-1.371-4.636-1.746z m41.53 0.02c-1.998 0.719-3.437 1.277-5.365 2.012-0.21-0.902-0.248-1.178-0.439-1.992 3.208-0.01 3.263-0.004 5.804-0.02z m-13.984 4.088c0.21 0.862 0.507 1.285 0.507 1.285 0.405 0.697 0.91 1.092 1.683 1.292 0.17 0.273 0.23 0.327 0.297 0.473 0.074 0.916 0.02 1.03-0.69 1.551-0.419 0.409-0.437 0.996-0.006 1.542 0.463 0.441 0.95 0.597 2.756 0.128 0.349 0.601 0.838 1.309 1.555 2.439-2.417-0.912-5.747-2.21-12.886-4.99 0 0-8.355 3.246-12.834 4.992 1.874-2.954 2.028-3.204 3.361-5.271 0.451-0.178 0.299-0.106 0.699-0.31 0.92-0.491 1.657-1.222 2.061-2.295 0.737 1.663 1.561 1.854 3.278 1.313 0.355-0.164 0.762-0.401 0.85-1.039 0.922 0.828 2.87 0.982 4.292-0.765 1.226 1.437 4.01 1.573 5.077-0.343z m4.322 1.734s0.08 0.259 0.128 0.338c-0.202 0.006-0.427 0-0.426 0a1.814 1.814 0 0 0 0.298-0.34z"/></svg>