<svg fill="#BE160C" role="img" viewBox="0 0 32 24" xmlns="http://www.w3.org/2000/svg"><title>Apache HBase</title><path d="M31.129 23.883c-0.024-0.064-0.044-0.178-0.044-0.252 0-0.203-0.156-0.47-0.387-0.662-0.113-0.094-0.276-0.278-0.362-0.408-0.184-0.277-0.383-0.385-1.118-0.609-0.806-0.245-1.054-0.456-1.127-0.958l-0.036-0.25-0.147 0.213c-0.287 0.416-0.477 0.483-0.867 0.303-0.247-0.114-0.428-0.124-0.633-0.036-0.131 0.056-0.155 0.054-0.241-0.024-0.091-0.083-0.101-0.083-0.23-0.006-0.102 0.06-0.185 0.072-0.34 0.049-0.248-0.037-0.38 0.035-0.545 0.297-0.314 0.497-0.537 0.27-0.536-0.545 0.001-0.905 0.427-1.419 1.656-1.994 0.632-0.296 0.919-0.488 1.095-0.732 0.136-0.189 0.148-0.196 0.207-0.115 0.126 0.172 0.559 1.059 0.766 1.567 0.236 0.58 0.307 0.687 0.396 0.598 0.075-0.075-0.107-0.61-0.461-1.35-0.88-1.839-2.179-3.155-3.802-3.848-0.744-0.318-1.11-0.386-2.077-0.384-0.735 0.001-0.915 0.017-1.411 0.123-0.726 0.154-1.538 0.414-2.573 0.822-1.042 0.412-1.043 0.412-2.094 0.036-0.426-0.152-0.936-0.318-1.134-0.369-0.405-0.103-1.002-0.121-1.339-0.04-0.388 0.093-0.933 0.385-1.602 0.857-0.804 0.566-1.236 0.791-1.812 0.94-0.499 0.13-0.71 0.242-0.834 0.446-0.099 0.163-0.109 0.293-0.034 0.458 0.051 0.113 0.543 0.472 1.119 0.817 0.156 0.093 0.295 0.188 0.309 0.211 0.034 0.054-0.746 0.443-1.315 0.656-1.012 0.378-2.1 0.617-3.74 0.822-1.093 0.137-1.279 0.175-2.094 0.431-0.326 0.102-0.797 0.228-1.048 0.281-1.105 0.229-2.106-0.042-2.257-0.613-0.028-0.104-0.077-0.22-0.11-0.258-0.202-0.232-0.277-0.789-0.147-1.093 0.038-0.088 0.113-0.426 0.168-0.751 0.189-1.121 0.381-1.727 0.796-2.509 0.725-1.37 2.169-3.11 3.918-4.721 1.156-1.064 2.254-1.883 4.793-3.573 1.569-1.044 1.585-1.058 1.766-1.561 0.04-0.112 0.235-0.832 0.432-1.6 0.616-2.393 1.011-3.297 1.746-3.99 0.414-0.391 1.074-0.634 1.457-0.538 0.219 0.055 0.23 0.163 0.078 0.771-0.253 1.014-0.338 1.654-0.34 2.558-0.003 0.892 0.053 1.238 0.264 1.656 0.291 0.574 0.487 0.684 1.626 0.918 4.027 0.825 6.714 2.066 8.623 3.981 1.768 1.774 3.209 4.55 4.147 7.989l0.178 0.654 0.342 0.262c0.871 0.668 1.359 1.34 1.619 2.23 0.138 0.471 0.117 1.473-0.043 2.065-0.17 0.63-0.316 0.895-0.492 0.895-0.05 0-0.104-0.049-0.129-0.117z m0.075-1.322c0.016-0.065 0.019-0.347 0.005-0.626-0.042-0.888-0.316-1.523-0.944-2.185-0.482-0.509-1.356-1.123-1.598-1.123-0.092 0-0.098 0.016-0.074 0.219 0.014 0.12 0.111 0.442 0.214 0.714s0.2 0.593 0.215 0.711c0.022 0.189 0.011 0.229-0.093 0.333-0.142 0.142-0.276 0.149-0.479 0.024-0.084-0.051-0.163-0.083-0.176-0.071-0.012 0.012-0.008 0.105 0.01 0.206 0.062 0.368 0.275 0.515 1.092 0.757 1.198 0.355 1.444 0.518 1.633 1.08 0.04 0.12 0.161 0.096 0.195-0.039zM2.666 20.876c0.21-0.038 0.63-0.147 0.934-0.243 0.652-0.207 1.152-0.311 2.532-0.527 1.62-0.253 2.271-0.388 2.993-0.619 0.459-0.147 0.878-0.335 0.876-0.394-0.001-0.018-0.136-0.115-0.301-0.216s-0.473-0.351-0.685-0.557c-0.212-0.207-0.405-0.376-0.428-0.376-0.115 0-0.404 0.161-0.769 0.429-1.044 0.767-1.41 0.918-3.075 1.273-0.826 0.176-1.119 0.276-1.505 0.513-0.534 0.328-0.649 0.382-1 0.472-0.196 0.05-0.505 0.091-0.687 0.091-0.476 0-0.529 0.148-0.081 0.227 0.264 0.047 0.672 0.022 1.196-0.073m22.687-0.094c0.034-0.042 0.15-0.115 0.258-0.162l0.195-0.086 0.42 0.127c0.525 0.159 1.214 0.183 1.4 0.048l0.268-0.195c0.094-0.068 0.189-0.102 0.239-0.086 0.046 0.015 0.083 0.019 0.083 0.011 0-0.046-0.643-1.518-0.704-1.611l-0.072-0.11-0.23 0.181c-0.126 0.1-0.553 0.376-0.949 0.614-1.017 0.612-1.337 0.923-1.26 1.23 0.023 0.089 0.058 0.115 0.159 0.115 0.072 0 0.158-0.034 0.193-0.076zM6.176 18.16c0.11-0.056 0.22-0.136 0.245-0.176 0.191-0.317-0.571-0.284-0.777 0.034-0.054 0.084-0.053 0.107 0.011 0.171 0.102 0.102 0.285 0.092 0.521-0.029z m1.435-0.995c0.49-0.132 0.981-0.293 1.131-0.372 0.314-0.165 0.58-0.453 0.77-0.83 0.076-0.15 0.217-0.347 0.314-0.437s0.176-0.197 0.176-0.237c0-0.355-1.218-0.516-2.003-0.265-0.952 0.304-1.861 1.273-1.883 2.008-0.014 0.45 0.233 0.472 1.495 0.133m18.693-1.391c0-0.083-0.304-0.486-0.519-0.69-0.417-0.394-0.842-0.637-1.662-0.948-0.487-0.185-0.688-0.298-0.688-0.388 0-0.021 0.041-0.079 0.091-0.13 0.256-0.256 1.48 0.059 2.344 0.603 0.341 0.215 0.73 0.518 1.055 0.822 0.248 0.232 0.289 0.256 0.289 0.169 0-0.137-0.225-0.549-0.5-0.915-0.686-0.915-1.803-1.627-3.053-1.947-1.01-0.259-1.886-0.273-2.633-0.044-0.691 0.212-1.493 0.711-2.299 1.43-1.134 1.013-1.47 1.295-1.76 1.48-0.174 0.111-0.311 0.221-0.303 0.245 0.008 0.024 0.138 0.084 0.291 0.133l0.277 0.088 0.676-0.31c1.336-0.614 2.563-1.009 3.476-1.12 1.393-0.169 2.952 0.271 4.348 1.229 0.426 0.292 0.569 0.366 0.57 0.293m-12.34 3.852c-1.433-0.177-2.787-0.678-3.893-1.44-0.251-0.173-0.322-0.247-0.334-0.349-0.029-0.252 0.202-0.401 0.825-0.533 0.548-0.116 0.91-0.3 1.74-0.882 1.121-0.788 1.564-0.966 2.295-0.926 0.342 0.019 0.556 0.077 1.689 0.455 1.699 0.567 3.501 1.209 3.637 1.296 0.311 0.198-0.226 0.928-1.067 1.451-0.634 0.395-1.471 0.705-2.33 0.864-0.474 0.087-2.052 0.127-2.562 0.064m-10.59-7.071c-0.018-0.046-0.021-0.271-0.007-0.5 0.063-1.008 0.611-2.148 1.358-2.825 0.286-0.259 0.743-0.53 0.894-0.53 0.15 0 0.243 0.156 0.354 0.597 0.059 0.232 0.151 0.481 0.205 0.553s0.091 0.138 0.083 0.146a74.129 74.129 0 0 1-0.471 0.375c-0.612 0.486-1.459 1.268-1.967 1.818-0.347 0.375-0.422 0.436-0.449 0.366z"/></svg>