<svg fill="#2AA5DC" role="img" viewBox="0 0 30 24" xmlns="http://www.w3.org/2000/svg"><title>Apache CloudStack</title><path d="M15.553 11.238c0.404-0.144 1.335-0.573 1.522-1.525l-2.097-0.141s-0.568-0.2-0.874-1.165c0 0-1.267-0.682-1.179-1.664 0 0 0.196-1.223 1.245-1.398 0 0 1.093-0.27 1.316 1.478 0 0 0.514 1.48-0.488 1.584 0 0-0.217 0.477 0.57 0.498 0 0 0.958 0.285 1.636-0.284 0 0 0.46-0.423 1.007-0.342 0 0 0.118-0.209-0.112-0.339 0 0-1.36-1.164-1.598-2.81 0 0-1.122-0.156-1.262-0.95 0 0-0.262-1.23 0.754-1.475 0 0 0.647-0.148 0.976 0 0 0 0.827-2.252 3.185-2.638 0 0 1.95-0.459 2.645 1.017 0 0 0.288 0.802 0.132 1.475 0 0-0.164 0.736 0.008 0.925 0 0 0.631-0.149 0.893 0.261 0.262 0.409 0.377 1.287-0.148 1.491 0 0 0.156 0.697-0.368 1.172 0 0-1.663 0.967-2.138 1.784 0 0-0.146 0.187-0.221 0.253a1.678 1.678 0 0 1-0.639 0.351s-0.197 0.087-0.418-0.022c0 0-0.066 0.328 0.304 0.385 0 0 0.7-0.097 1.462-0.329l5.507-1.971s-0.255-0.688-0.05-1.024c0 0 0.113-0.178 0.215-0.217 0.191-0.073 0.419-0.436 0.429-0.72 0 0-0.053-0.719 0.462-0.751 0 0 0.496-0.03 0.454 0.576l-0.036 0.398s0.756-0.285 1.009 0.229c0 0 0.511 1.036-0.031 1.872 0 0-0.797 0.785-1.845 0.291l-0.36-0.222s-6.406 2.653-6.48 2.826c0 0-0.502 0.254-0.876 0.934 0 0-1.285 2.293-1.949 2.9 0 0-0.434 0.524-0.745 0.655l0.067 0.181c0.43 0.046 0.745-0.058 0.745-0.059 1.196-0.573 1.37-0.131 1.37-0.131 0.436 0.312 0.253 1.212 0.253 1.212 3.342 3.21-0.253 6.356-0.253 6.356-0.564 0.245-0.829 0-0.83 0-0.098-0.148 0.83-0.949 0.831-0.949 1.696-2.033 0.193-4.229 0.193-4.229-2.508-2.702-5.02-0.685-5.02-0.686-1.13 1.262-0.967 2.638-0.967 2.638-0.197 0.393-0.524 0.229-0.524 0.229-0.443-0.524 0-1.9 0-1.9 0.656-1.525 2.048-2.147 2.048-2.147l0.209-0.168c0.253-1.159-0.166-2.556-0.166-2.556-1.147-2.734-3.084-3.195-3.756-3.272 0.01 0.071 0.007 0.057-0.001 0-0.149-0.016-0.234-0.015-0.234-0.015-2.872-0.273-4.188 2.217-4.188 2.217-0.768 0.682-0.72 2.25-0.72 2.25 1.889 0.425 2.353 1.605 2.352 1.605 0.131 0.491-0.431 0.333-0.431 0.333C6.596 14.094 5.716 14.026 5.716 14.026c-1.785-0.322-2.992 0.823-2.992 0.823-0.724 0.502-1.366 1.588-1.366 1.587C0.321 18.271 0.969 20.021 0.969 20.021c0.356 1.776 2.475 2.956 2.475 2.956 1.009 0.523 2.087 0.368 2.088 0.368 0.878-0.201 0.674 0.262 0.674 0.262-0.248 0.372-0.581 0.377-0.581 0.377-1.894 0.125-2.747-0.513-2.747-0.513C-1.355 20.812 0.556 16.449 0.556 16.449c1.983-3.866 5.194-3.047 5.194-3.047 0.064-1.164 1.015-2.785 1.015-2.785 1.413-1.76 2.995-2.139 3.943-2.187l0.005-0.005s-0.022-1.248 0.359-2.308c0 0 0.198-0.539 0.896-1.594 0.11-0.166 0.459-0.611 0.568-1.016 0 0 0.59-1.856-1.523-2.15 0 0-0.673-0.119-1.113 0.235-0.279 0.223-0.542 0.354-0.744 0.409 0 0-0.999 0.343-0.967-0.295 0 0-0.18-0.951 2.082-1.212 0 0 2.764-0.475 3.087 1.72 0 0 0.451 1.342-1.188 3.358 0 0-0.895 1.386-0.69 2.893 0.056 0.009 0.084 0.016 0.084 0.016 2.883 0.501 3.98 2.742 3.98 2.742l0.009 0.015z m0.399 0.803l0.988 1.986c1.719-0.699 2.454-3.017 2.454-3.017 0.471-1.168-0.262-1.342-0.261-1.343-0.503-0.131-0.863 0.372-0.863 0.372-1.128 1.368-2.071 1.883-2.318 2.002z m5.31-10.106c-1.605-1.539-3.146 0.425-3.146 0.426-0.949 1.212 0.099 2.917 0.099 2.916-0.426 0.099-0.623 0.393-0.623 0.393-0.294 1.475 1.376 2.49 1.376 2.49 1.278 0.852 2.065-0.263 2.065-0.263 0.327-0.754 2.096-1.998 2.096-1.998 0.59-0.59 0-1.244 0-1.244-0.622-0.443-0.72-1.212-0.72-1.212-0.05-0.656 0.05-1.458 0.049-1.458-0.328-0.59-1.196-0.05-1.196-0.05z m-4.603 1.475c-0.099-0.263-0.434-0.181-0.434-0.181-0.663 0.123-0.524 0.868-0.524 0.868 0.05 0.517 0.59 0.599 0.59 0.599 0.016-0.77 0.368-1.287 0.368-1.287z m6.127 0.58c-0.074 0.156 0.082 0.263 0.081 0.263 0.219 0.145 0.425 0.402 0.426 0.402 0.099 0.089 0.254 0 0.254 0 0.211-0.306-0.155-0.664-0.155-0.665-0.245-0.245-0.607 0-0.608 0z m-7.635 2.892s-0.164-0.835-0.709-1.066c0 0-0.394-0.103-0.688 0.236 0 0-0.542 0.552-0.36 1.223 0 0 0.311 0.738 1.135 0.89 0 0 0.465 0.143 0.731-0.563 0 0 0.068-0.218-0.109-0.72z m12.184-0.406c0.123 0.141 0.196 0.377 0.195 0.376 0.016 0.552 0.777 0.521 0.778 0.521 0.853 0.037 1.156-0.496 1.156-0.496 0.255-0.443 0.157-1.3-0.124-1.46-0.283-0.161-0.907 0-0.907 0 0.151-0.295 0.059-0.762 0.059-0.762-0.055-0.503-0.478-0.213-0.478-0.213-0.255 0.191-0.131 0.738-0.132 0.737-0.012 0.347-0.461 0.502-0.461 0.502-0.342 0.351-0.087 0.793-0.086 0.793z m-7.338-2.432c-0.012 0.149-0.185 0.082-0.185 0.082-0.045-0.322-0.467-0.4-0.467-0.401-0.443 0.019-0.441 0.347-0.442 0.347-0.247 0.152-0.3-0.069-0.3-0.069 0.144-0.56 0.73-0.446 0.731-0.446 0.617 0.037 0.663 0.487 0.663 0.487z m0.939 0.068s0.033-0.459 0.414-0.545c0 0 0.553-0.177 0.793 0.317 0 0 0.087 0.201 0.009 0.256 0 0-0.174 0.063-0.224-0.238 0 0-0.14-0.273-0.417-0.214 0 0-0.245 0.026-0.307 0.285 0 0-0.012 0.273-0.268 0.139z m-2.077 1.531c0.126-0.077 0.306-0.011 0.421 0.058 0.124 0.077 0.26 0.149 0.392 0.211 0.259 0.123 0.527 0.201 0.819 0.201 0.152 0 0.315 0.015 0.464-0.007 0.124-0.017 0.252-0.031 0.377-0.043a1.228 1.228 0 0 0 0.445-0.119c0.068-0.036 0.136-0.064 0.203-0.104 0.062-0.038 0.119-0.089 0.178-0.127 0.029-0.017 0.102-0.072 0.137-0.065 0.043 0.007 0.086 0.128 0.074 0.168-0.084 0.025-0.165 0.092-0.245 0.13-0.112 0.055-0.214 0.128-0.316 0.199-0.144 0.099-0.312 0.238-0.405 0.388-0.214 0.351-0.459 0.709-0.813 0.928a1.137 1.137 0 0 1-0.613 0.148c-0.206 0-0.466-0.037-0.643-0.149a0.756 0.756 0 0 1-0.36-0.441c-0.055-0.196 0-0.393 0-0.593 0-0.155 0.041-0.384-0.032-0.52-0.025-0.047-0.035-0.033-0.077-0.071-0.032-0.027-0.05-0.081-0.033-0.14 0.002-0.01 0.017-0.053 0.027-0.052z m1.6-0.639a0.17 0.17 0 0 1-0.174 0.166 0.17 0.17 0 0 1-0.173-0.166c0-0.092 0.077-0.166 0.173-0.166 0.095 0 0.174 0.074 0.174 0.166z m0.713-0.028a0.17 0.17 0 0 1-0.174 0.166 0.17 0.17 0 0 1-0.173-0.166c0-0.092 0.077-0.166 0.173-0.166 0.095 0 0.174 0.074 0.174 0.166z"/></svg>