<svg fill="#50ABF1" role="img" viewBox="0 0 31 24" xmlns="http://www.w3.org/2000/svg"><title>Apache Parquet</title><path d="M14.165 22.699c-1.211-1.292-1.247-1.348-1.029-1.592 0.344-0.388 15.061-13.858 15.272-13.98 0.182-0.106 1.987 0.765 2.381 1.15 0.152 0.147-1.02 1.4-7.417 7.929-4.179 4.265-7.678 7.772-7.775 7.793-0.097 0.02-0.742-0.564-1.432-1.3zM10.824 19.267c-0.652-0.657-1.065-1.173-1.024-1.279 0.074-0.194 8.535-7.032 8.693-7.026 0.195 0.006 2.186 1.519 2.186 1.661 0 0.148-8.505 7.744-8.671 7.744-0.048 0-0.581-0.495-1.184-1.1zM7.735 16.114c-0.51-0.571-0.831-1.033-0.763-1.097 0.357-0.332 4.035-2.882 4.157-2.881 0.196 0.003 1.973 1.525 1.973 1.692 0 0.205-3.984 3.272-4.252 3.272-0.128 0-0.63-0.444-1.115-0.986z m-2.535-2.601c-0.732-0.74-0.819-0.88-0.653-1.033 0.238-0.222 11.932-7.771 12.171-7.858 0.186-0.068 1.807 0.913 1.807 1.094 0 0.13-11.988 8.524-12.28 8.6-0.116 0.029-0.555-0.307-1.045-0.803z m7.8-1.193c-0.483-0.4-0.876-0.798-0.873-0.882 0.003-0.084 0.43-0.451 0.948-0.816 0.518-0.363 2.84-2.024 5.159-3.69 2.321-1.667 4.314-3.03 4.43-3.03 0.312 0 1.894 0.914 1.843 1.065-0.073 0.221-10.216 8.079-10.43 8.08-0.11 0-0.595-0.326-1.077-0.727z m-10.154-1.177c-0.576-0.61-0.661-0.756-0.51-0.893 0.131-0.119 7.374-4.398 8.25-4.873 0.145-0.079 1.681 1.029 1.632 1.176-0.064 0.191-8.232 5.32-8.473 5.32-0.115 0-0.52-0.328-0.899-0.73Zm17.514 0.049c-0.53-0.38-0.984-0.752-1.01-0.829-0.036-0.106 4.769-4.1 5.859-4.868 0.212-0.15 0.379-0.101 1.288 0.383 0.574 0.306 1.043 0.618 1.042 0.695-0.003 0.194-5.722 5.226-5.993 5.273-0.122 0.02-0.657-0.273-1.186-0.654zM0.896 9.075L0.198 8.373l0.31-0.202c0.17-0.11 3.623-1.993 7.674-4.185l7.364-3.986 0.705 0.344c0.386 0.191 0.704 0.411 0.704 0.49 0 0.107-15.142 8.949-15.327 8.949-0.019 0-0.349-0.318-0.732-0.705z m11.323-3.557c-0.343-0.255-0.621-0.533-0.621-0.616s1.381-0.963 3.068-1.956l3.067-1.807 0.787 0.421c0.434 0.23 0.787 0.463 0.786 0.517 0 0.156-6.012 3.915-6.253 3.911-0.117-0.001-0.493-0.213-0.835-0.469Zm6.141-0.781c-0.414-0.255-0.751-0.533-0.749-0.617 0.003-0.143 2.091-1.542 2.434-1.631 0.157-0.041 1.563 0.701 1.677 0.885 0.034 0.056-0.04 0.191-0.164 0.302-0.425 0.377-2.168 1.533-2.308 1.529-0.077-0.003-0.477-0.213-0.89-0.468z"/></svg>