<svg fill="#1287B1" role="img" viewBox="0 0 47 24" xmlns="http://www.w3.org/2000/svg"><title>Apache Cassandra</title><path d="M20.371 9.171a5.97 5.97 0 0 1-0.824-0.427l1.068 0.275c0 0.038-0.019 0.069-0.019 0.106l-0.225 0.048z m-0.545 2.898l-0.606 0.487 1.639-2.076-2.074 0.752c0.004 0.033 0.017 0.064 0.017 0.096a1.097 1.097 0 0 1-0.354 0.809c0.196 0.418 0.439 0.816 0.722 1.185a6.159 6.159 0 0 1 0.654-1.253z m1.38-4.517l-1.255-1.578a0.822 0.822 0 0 1-0.974 0.312c-0.104 0.14-0.16 0.312-0.25 0.462l2.421 0.891c0.021-0.029 0.037-0.06 0.058-0.087z m-3.207 0.855c-0.135 0.604-0.167 1.226-0.096 1.84a1.089 1.089 0 0 1 0.868 0.914l1.821-1.166c-0.129-0.042-0.243-0.115-0.368-0.17l-2.153-0.154 1.231-0.269a6.132 6.132 0 0 1-1.285-1.066l-0.019 0.071zM39.089 11.323c-0.316 0.389 1.603 1.967 1.604 1.966s-3.183-1.967-4.3-1.385c-0.535 0.277 1.105 1.561 2.261 2.39-0.824-0.527-1.89-1.099-2.261-0.785-0.631 0.533 3.012 4.906 3.012 4.906s-4.128-4.469-4.542-4.252c-0.412 0.219 1.141 2.356 1.141 2.356s-2.04-2.233-2.598-1.846c-0.558 0.389 2.914 6.193 2.914 6.194s-3.765-5.949-5.318-4.954c2.44 5.354 1.53 6.12 1.53 6.12s-0.312-5.464-3.352-5.32c-1.53 0.073 0.729 4.08 0.729 4.081s-2.079-3.661-3.464-3.588c2.552 4.831 1.644 6.794 1.643 6.794s0.421-4.124-3.041-6.421c1.313 1.166-0.822 6.421-0.821 6.421s1.878-7.743-1.384-6.267c-0.516 0.233-0.037 3.863-0.037 3.863s-0.654-4.153-1.638-3.936c-0.574 0.127-3.643 5.755-3.643 5.755s2.514-6.082 1.748-5.826c-0.558 0.185-1.603 2.694-1.604 2.695s0.51-2.477 0-2.624c-0.508-0.144-3.349 2.623-3.348 2.624s2.111-2.477 1.747-2.987c-0.552-0.774-1.199-0.808-1.967-0.51-1.118 0.435-2.623 2.477-2.623 2.477s1.501-2.067 1.237-2.841c-0.421-1.245-4.735 2.404-4.734 2.404s2.55-2.406 1.967-2.914c-0.583-0.51-3.747-0.352-4.735-0.356-2.916-0.008-3.924-0.693-4.807-1.394 3.824 1.919 7.319-0.291 11.728 0.951l0.404 0.116c-2.502-1.074-4.126-2.652-4.284-4.531-0.069-0.801 0.142-1.592 0.572-2.352 1.191-0.77 2.483-1.488 3.964-2.107a7.698 7.698 0 0 0-0.123 1.343c0 4.696 4.24 8.501 9.469 8.501s9.469-3.805 9.47-8.501c0-0.866-0.16-1.696-0.43-2.483 2.754 0.778 4.715 1.863 6.028 2.57 0.042 0.177 0.087 0.354 0.102 0.537 0.046 0.527-0.035 1.053-0.211 1.566 0.183-0.283 0.381-0.554 0.538-0.856 0.706-1.919 3.57 0.437 3.571 0.437s-2.088-0.874-2.04-0.462c0.05 0.414 3.133 1.848 3.133 1.847s-2.791-0.876-2.622-0.219c0.169 0.654 3.497 3.278 3.498 3.278s-3.765-2.866-4.081-2.477z m-13.988 5.1l0.081-0.016-0.115 0.02zM18.219 7.675c0.231 0.25 0.5 0.45 0.762 0.661l1.784-0.056-2.048-1.517c-0.179 0.296-0.375 0.583-0.5 0.912Zm20.439 6.621c0.577 0.414 1.039 0.718 1.04 0.718s-0.462-0.348-1.04-0.72zM14.853 5.489c-0.269 0.441-0.412 0.947-0.414 1.463a7.679 7.679 0 0 0 4.538 7.005c0-0.01 0.004-0.019 0.006-0.027a6.14 6.14 0 0 1-1.116-1.516c-1.247 0.191-1.782-1.528-0.647-2.079a6.109 6.109 0 0 1 0.266-2.671 6.086 6.086 0 0 1-1.001-2.618c-0.57 0.135-1.114 0.283-1.632 0.443Zm2.864 1.578c0.208-0.462 0.468-0.885 0.773-1.272a0.837 0.837 0 0 1 1.093-1.072c0.148-0.114 0.319-0.191 0.478-0.289a31.121 31.121 0 0 0-3.324 0.547c0.219 0.747 0.523 1.463 0.98 2.086Zm4.397 7.56c2.694 0 5.068-1.391 6.436-3.495a6.542 6.542 0 0 0-2.434-1.037l-0.572-0.045 1.763 1.733-2.304-0.899 1.355 2.074-2.067-1.601-0.023 0.012 0.668 2.459-1.147-2.182-0.189 2.56-0.772-2.552-0.908 2.427 0.219-2.616c-0.012-0.004-0.019-0.012-0.029-0.015l-1.566 2.221 0.55-2.054c-0.654 0.62-1.164 1.372-1.503 2.206 0.183 0.196 0.379 0.381 0.583 0.558 0.62 0.16 1.27 0.246 1.94 0.246z m19.526-8.534c1.869-1.091 3.303-3.763 3.302-3.762s-3.643 3.763-6.168 3.204c2.283-1.798 3.399-4.906 3.399-4.906s-2.898 4.475-4.712 4.664c2.09-1.846 2.964-4.469 2.964-4.469s-2.381 3.497-4.226 3.741c2.477-2.234 2.575-3.643 2.575-3.643s-3.428 4.43-4.81 3.739c1.651-1.798 2.77-4.08 2.77-4.08s-2.866 3.886-3.644 3.253c-0.533-0.096 0.874-1.844 0.874-1.844s-1.748 1.553-2.232 1.166c0.874-0.535 2.379-3.156 2.378-3.156S31.198 3.349 30.469 2.962l1.407-2.854s-1.405 2.854-3.301 2.367c0.874-1.116 1.213-2.14 1.213-2.14s-1.455 2.335-3.253 1.703c-0.423-0.148 0.525-1.222 0.526-1.222s-1.205 1.174-2.031 1.028c-0.828-0.146 0.048-1.651 0.048-1.652s-1.457 2.283-1.747 2.187c-0.293-0.096 0.144-1.603 0.144-1.603s-1.068 1.748-1.651 1.651c-0.581-0.096 0-1.798 0-1.798s-0.631 1.894-1.117 1.75c-0.485-0.146-0.583-1.263-0.583-1.263s-0.131 1.517-0.825 1.652c-5.245 1.02-11.024 3.253-18.263 10.489C7.886 9.571 10.605 4.128 23.427 3.645c9.708-0.368 14.24 4.113 15.737 4.177C43.728 8.016 46.595 3.595 46.595 3.595s-2.866 3.303-4.954 2.502z m-14.897 1.679l-1.17 0.893v0.002l0.104 0.005a6.447 6.447 0 0 0 1.066-0.9z m3.047-0.82c0-1.032-0.456-1.788-1.144-2.343a6.116 6.116 0 0 1-0.317 1.588 0.756 0.756 0 0 1-0.631 1.311c-0.296 0.448-0.654 0.856-1.057 1.212l1.272 0.066-1.915 0.456c-0.048 0.035-0.087 0.079-0.135 0.112a6.147 6.147 0 0 1 2.957 1.33c0.616-1.105 0.97-2.377 0.97-3.734zM21.556 4.294a6.736 6.736 0 0 0-1.511 0.885 0.822 0.822 0 0 1-0.025 0.687l1.704 1.238 0.044-0.031-0.693-2.429 1.207 2.156c0.035-0.012 0.077-0.012 0.111-0.021l-0.038-2.408 0.766 2.238 0.918-2.213 0.031 2.44c0.008 0.002 0.013 0.01 0.023 0.014l1.372-1.935-0.699 2.345 0.018 0.019 2.001-1.328-1.46 2.021 0.003 0.009 1.829-0.654c0.023-0.031 0.054-0.056 0.079-0.087a0.76 0.76 0 0 1 0.758-1.216 6.601 6.601 0 0 0 0.52-1.509 26.925 26.925 0 0 0-5.385-0.323c-0.55 0.021-1.059 0.064-1.573 0.102Z"/></svg>