<svg fill="#ED145B" role="img" viewBox="0 0 24 24" xmlns="http://www.w3.org/2000/svg"><title>Aparat</title><path d="M12.001 1.594C2.732 1.591-1.912 12.797 4.641 19.352c2.975 2.976 7.45 3.867 11.337 2.257 3.888-1.61 6.423-5.404 6.423-9.612 0-5.744-4.655-10.401-10.4-10.403zM6.11 6.783c0.501-2.598 3.893-3.294 5.376-1.103 1.483 2.191-0.422 5.082-3.02 4.582-1.612-0.31-2.667-1.868-2.356-3.479z m4.322 8.988c-0.504 2.597-3.897 3.288-5.377 1.096-1.481-2.192 0.427-5.081 3.025-4.579 1.612 0.311 2.666 1.871 2.352 3.483z m1.26-2.405c-1.153-0.223-1.462-1.727-0.491-2.387 0.971-0.66 2.256 0.18 2.04 1.334-0.135 0.72-0.829 1.192-1.549 1.053z m6.197 3.838c-0.501 2.598-3.893 3.293-5.376 1.103-1.483-2.191 0.422-5.082 3.021-4.583 1.612 0.31 2.667 1.868 2.356 3.48z m-1.966-5.502c-2.598-0.501-3.293-3.896-1.102-5.38 2.191-1.483 5.082 0.422 4.582 3.02-0.308 1.613-1.867 2.67-3.48 2.36z m-2.335 11.562l2.265 0.611c1.983 0.526 4.017-0.654 4.543-2.637l0.639-2.402a11.383 11.383 0 0 1-7.447 4.428zM21.232 3.599l-2.363-0.629a11.376 11.376 0 0 1 4.354 7.619l0.649-2.458c0.519-1.98-0.661-4.008-2.64-4.532zM0.671 13.809l-0.54 2.04c-0.526 1.983 0.654 4.017 2.636 4.543l2.107 0.562a11.379 11.379 0 0 1-4.203-7.145zM10.358 0.702L8.15 0.126C6.166-0.402 4.13 0.779 3.603 2.763l-0.551 2.082A11.376 11.376 0 0 1 10.358 0.702Z"/></svg>