<svg fill="#F44A53" role="img" viewBox="0 0 26 24" xmlns="http://www.w3.org/2000/svg"><title>Apifox</title><path d="M25.908 9.915a11.271 11.271 0 0 0-0.492-2.538 4.442 4.442 0 0 1-0.392 0.801A10.154 10.154 0 0 0 20.875 1.426 10.098 10.098 0 0 0 18.371 0.12a7.923 7.923 0 0 0-0.365-0.12 7.591 7.591 0 0 1 1.536 3.741c0.006 0.047 0.011 0.095 0.017 0.143a0.065 0.065 0 0 1 0 0.011c0.005 0.049 0.01 0.098 0.013 0.148v0.026a5.658 5.658 0 0 1 0.01 0.147c0.003 0.049 0.005 0.099 0.007 0.149 0 0.035 0 0.07 0.004 0.105a0.209 0.209 0 0 0 0 0.016v0.178a7.596 7.596 0 0 1-1.366 4.356 6.828 6.828 0 0 1 0.08 2.367 6.658 6.658 0 0 0 1.255-0.433 6.666 6.666 0 0 0 0.864-0.475c0.056 0.196 0.104 0.396 0.142 0.6 0.081 0.422 0.121 0.85 0.12 1.28a6.809 6.809 0 0 1-0.076 1.02 6.725 6.725 0 0 0 1.74-0.42c0.293-0.114 0.578-0.248 0.852-0.402 0.041 0.23 0.07 0.461 0.087 0.694 0.013 0.169 0.019 0.339 0.02 0.511a6.8 6.8 0 0 1-0.145 1.399 6.739 6.739 0 0 0 2.055-0.41 11.272 11.272 0 0 0 0.712-3.957 9.271 9.271 0 0 0-0.025-0.879z m-3.026 6.244a6.128 6.128 0 0 1-0.42 0.014h-0.14a6.737 6.737 0 0 0 0.213-1.69c0-0.254-0.014-0.508-0.043-0.76a6.715 6.715 0 0 1-2.096 0.641 6.497 6.497 0 0 1-0.617 0.054 6.685 6.685 0 0 0 0.124-1 6.982 6.982 0 0 0 0.008-0.337 6.78 6.78 0 0 0-0.152-1.436 6.72 6.72 0 0 1-2.285 0.837l-0.006-0.008a6.659 6.659 0 0 0 0.12-0.954 6.054 6.054 0 0 0 0.01-0.366c0-0.408-0.037-0.815-0.109-1.217a7.607 7.607 0 0 1-5.517 2.358 7.592 7.592 0 0 1-3.499-0.849 6.751 6.751 0 0 0 1.394-0.738 6.791 6.791 0 0 1-3.851-6.124 6.786 6.786 0 0 1 0.111-1.223 6.679 6.679 0 0 1 0.324-1.172 6.691 6.691 0 0 1 0.523-1.08 6.751 6.751 0 0 1 0.814-1.096 13.164 13.164 0 0 0-2.894 1.8A13.158 13.158 0 0 0 0.418 8.962 13.146 13.146 0 0 0 0.065 12.001a13.1 13.1 0 0 0 1.606 6.307 6.738 6.738 0 0 1 0.48-1.846 12.567 12.567 0 0 0 9.254 7.538 6.722 6.722 0 0 1-0.867-1.491 11.866 11.866 0 0 0 3.369 0.575c0.101 0 0.203 0.004 0.306 0.004a11.839 11.839 0 0 0 5.246-1.217 6.657 6.657 0 0 1-0.78-0.515 11.325 11.325 0 0 0 4.657-3.336 11.284 11.284 0 0 0 1.461-2.256 6.746 6.746 0 0 1-1.915 0.395z"/></svg>