<svg fill="#311C87" role="img" viewBox="0 0 25 24" xmlns="http://www.w3.org/2000/svg"><title>Apollo GraphQL</title><path d="M12.5 0C5.872 0 0.5 5.373 0.5 12 0.5 18.628 5.872 24 12.5 24 19.127 24 24.5 18.628 24.5 12A12.014 12.014 0 0 0 24.027 8.657 0.6 0.6 0 0 0 22.9 9.066H22.898C23.163 10.009 23.3 10.994 23.3 12A10.73 10.73 0 0 1 20.137 19.637 10.729 10.729 0 0 1 12.5 22.8 10.73 10.73 0 0 1 4.863 19.637 10.728 10.728 0 0 1 1.7 12 10.73 10.73 0 0 1 4.863 4.363 10.728 10.728 0 0 1 12.5 1.2C15.076 1.2 17.513 2.096 19.458 3.74A1.466 1.466 0 1 0 20.32 2.9 11.953 11.953 0 0 0 12.5 0ZM11.06 5.88L6.86 16.782H9.49L10.177 14.934H14.146L13.427 12.892H10.814L12.514 8.201 15.538 16.781H18.169L13.97 5.88Z"/></svg>