<svg fill="#6236FF" role="img" viewBox="0 0 24 24" xmlns="http://www.w3.org/2000/svg"><title>Apostrophe</title><path d="M15.674 0c-0.795 0.001-1.794 0.095-3.167 0.313l-4.6 0.729c-3.138 0.497-4.224 1.003-5.274 1.798a6.485 6.485 0 0 0-2.24 3.082c-0.43 1.245-0.577 2.434-0.08 5.571l0.729 4.6c0.497 3.138 1.003 4.22 1.798 5.273a6.485 6.485 0 0 0 3.082 2.24c1.245 0.431 2.434 0.578 5.571 0.081l4.6-0.729c3.138-0.497 4.22-1.003 5.273-1.799a6.477 6.477 0 0 0 2.24-3.081c0.431-1.245 0.578-2.434 0.082-5.571l-0.73-4.6c-0.497-3.138-1.003-4.224-1.799-5.274a6.477 6.477 0 0 0-3.081-2.24C17.378 0.152 16.695 0 15.674 0z m-5.319 4.566a0.52 0.52 0 0 1 0.003 0 0.52 0.52 0 0 1 0.52 0.444l0.77 4.865a0.52 0.52 0 0 1-0.435 0.6l-4.859 0.77a0.52 0.52 0 0 1-0.602-0.436l-0.77-4.866a0.52 0.52 0 0 1 0.435-0.6l4.86-0.77a0.52 0.52 0 0 1 0.078-0.007zM9.92 5.692l-3.823 0.605 0.612 3.83 3.813-0.605z m6.504 2.91a3.274 3.274 0 0 1 0.497 6.513 3.258 3.258 0 0 1-3.713-2.726 3.274 3.274 0 0 1 3.216-3.787z m-0.054 1.058a2.226 2.226 0 1 0 0.388 4.42 2.208 2.208 0 0 0 1.818-2.541 2.226 2.226 0 0 0-2.206-1.879z m-6.45 3a0.52 0.52 0 0 1 0.424 0.208l3.824 4.964a0.52 0.52 0 0 1-0.333 0.839l-5.932 0.937a0.52 0.52 0 0 1-0.576-0.695l2.108-5.901a0.52 0.52 0 0 1 0.486-0.352z m0.18 1.611L8.61 18.438l4.186-0.664z"/></svg>