<svg fill="#000000" role="img" viewBox="0 0 26 24" xmlns="http://www.w3.org/2000/svg"><title>Apple Arcade</title><path d="M0.245 18.745a1.044 1.044 0 0 1-0.209-0.617v-1.032s0-0.617 0.608-0.338c0 0 7.478 3.388 8.682 3.919a8.464 8.464 0 0 0 3.683 0.787 8.879 8.879 0 0 0 3.67-0.787l8.686-3.919c0.604-0.279 0.604 0.338 0.604 0.338v1.032a1.122 1.122 0 0 1-0.214 0.622c-0.205 0.279-0.557 0.583-1.525 1.036-0.771 0.364-6.733 3.045-7.56 3.426a8.654 8.654 0 0 1-3.674 0.788 9.009 9.009 0 0 1-4.129-1.002c-1.551-0.702-6.321-2.843-7.097-3.212-0.973-0.463-1.246-0.707-1.525-1.041z m1.525-6.455l7.551-3.426a8.619 8.619 0 0 1 2.339-0.685v6.168c0 0.428 0.617 0.753 1.336 0.753s1.233-0.338 1.233-0.753V8.196c0.841 0.113 1.664 0.338 2.445 0.668l7.552 3.426c0.626 0.295 1.739 0.822 1.738 1.662s-1.093 1.336-1.738 1.654l-7.552 3.426a8.862 8.862 0 0 1-3.67 0.787 8.464 8.464 0 0 1-3.683-0.787l-7.551-3.426C1.124 15.289 0.031 14.783 0.031 13.948s1.113-1.366 1.739-1.658z m1.953 2.428c0.832 0.428 1.819 0.428 2.651 0 0.737-0.428 0.741-1.109 0-1.533a2.923 2.923 0 0 0-2.651 0c-0.735 0.424-0.72 1.102 0 1.533zM13 7.241a3.62 3.62 0 1 1 3.619-3.622v0.004c0 1.998-1.621 3.618-3.619 3.618z"/></svg>