<svg fill="#000000" role="img" viewBox="0 0 38 24" xmlns="http://www.w3.org/2000/svg"><title>Apple Pay</title><path d="M3.615 0.002a65.853 65.853 0 0 0-0.71 0.005c-0.234 0.008-0.473 0.02-0.706 0.062a2.249 2.249 0 0 0-1.655 1.206c-0.109 0.216-0.178 0.434-0.219 0.672-0.044 0.231-0.058 0.469-0.062 0.702A15.932 15.932 0 0 0 0.256 2.976v18.052c0 0.109 0.003 0.216 0.005 0.323 0.006 0.234 0.02 0.473 0.062 0.706 0.042 0.234 0.112 0.455 0.222 0.67a2.243 2.243 0 0 0 0.984 0.984c0.216 0.109 0.434 0.18 0.672 0.222 0.231 0.042 0.469 0.056 0.703 0.062l0.325 0.005h31.542l0.324-0.005c0.234-0.006 0.473-0.02 0.706-0.062 0.234-0.042 0.455-0.111 0.668-0.22a2.237 2.237 0 0 0 0.986-0.986c0.109-0.216 0.18-0.434 0.22-0.672 0.042-0.231 0.056-0.469 0.062-0.703 0.003-0.109 0.005-0.216 0.005-0.324l0.002-0.385V2.974c0-0.109-0.003-0.216-0.007-0.323a4.678 4.678 0 0 0-0.062-0.706 2.259 2.259 0 0 0-1.874-1.876 4.72 4.72 0 0 0-0.706-0.062 16.319 16.319 0 0 0-0.708-0.005z m0 0.8h31.148c0.103 0 0.205 0.003 0.308 0.004 0.18 0.006 0.39 0.016 0.586 0.05 0.17 0.031 0.312 0.078 0.448 0.147a1.448 1.448 0 0 1 0.636 0.636 1.557 1.557 0 0 1 0.147 0.45c0.034 0.192 0.044 0.403 0.048 0.584 0.003 0.102 0.005 0.203 0.005 0.308v18.043c0 0.102 0 0.203-0.005 0.307-0.005 0.18-0.014 0.39-0.05 0.585a1.448 1.448 0 0 1-0.781 1.083 1.565 1.565 0 0 1-0.447 0.147 4.058 4.058 0 0 1-0.582 0.05l-0.313 0.004H3.233c-0.103 0-0.208-0.003-0.306-0.004a4.077 4.077 0 0 1-0.585-0.05c-0.17-0.031-0.312-0.078-0.45-0.147a1.434 1.434 0 0 1-0.634-0.636 1.571 1.571 0 0 1-0.147-0.45 3.953 3.953 0 0 1-0.05-0.582 14.976 14.976 0 0 1-0.003-0.308V2.979c0-0.102 0-0.205 0.003-0.308 0.006-0.178 0.016-0.387 0.05-0.585 0.031-0.169 0.078-0.311 0.147-0.449a1.445 1.445 0 0 1 0.635-0.634 1.609 1.609 0 0 1 0.449-0.147c0.195-0.034 0.406-0.045 0.585-0.05 0.102-0.003 0.205-0.003 0.306-0.004z m7.356 5.779c-0.469 0.025-1.043 0.311-1.374 0.712-0.298 0.344-0.562 0.906-0.494 1.434 0.528 0.047 1.054-0.264 1.387-0.653 0.32-0.403 0.539-0.942 0.481-1.492z m3.448 0.656v8.58h1.331v-2.932h1.843c1.684 0 2.866-1.154 2.866-2.83 0-1.671-1.159-2.819-2.824-2.82z m1.331 1.123h1.533c1.154 0 1.813 0.619 1.814 1.701 0 1.081-0.659 1.706-1.818 1.706h-1.529z m-4.927 0.469c-0.703 0.016-1.296 0.437-1.64 0.437-0.367 0-0.926-0.412-1.532-0.402a2.259 2.259 0 0 0-1.922 1.167c-0.823 1.418-0.217 3.522 0.585 4.678 0.389 0.572 0.858 1.201 1.474 1.178 0.583-0.022 0.812-0.378 1.52-0.378 0.709 0 0.915 0.378 1.531 0.367 0.64-0.011 1.042-0.572 1.429-1.145 0.447-0.651 0.629-1.281 0.64-1.313-0.011-0.012-1.234-0.481-1.245-1.889-0.012-1.178 0.961-1.738 1.006-1.773-0.55-0.812-1.406-0.903-1.702-0.926a1.754 1.754 0 0 0-0.144-0.003z m12.814 0.62c-1.546 0-2.509 0.833-2.58 1.961h1.214c0.112-0.559 0.576-0.915 1.32-0.915 0.784 0 1.254 0.415 1.254 1.111v0.482l-1.714 0.1c-1.485 0.084-2.324 0.756-2.324 1.85 0 1.125 0.856 1.885 2.081 1.885 0.822 0 1.612-0.439 1.974-1.136h0.03v1.03h1.231v-4.311c0-1.254-0.968-2.057-2.486-2.057z m3.031 0.112l2.258 6.262c0 0.005-0.114 0.375-0.114 0.386-0.195 0.64-0.515 0.892-1.11 0.892-0.108 0-0.322 0-0.417-0.024v1.041c0.094 0.017 0.417 0.03 0.523 0.029 1.296 0 1.915-0.487 2.449-2.004l2.343-6.582h-1.356l-1.58 5.091h-0.024l-1.582-5.092z m-1.823 3.419v0.494c0 0.814-0.703 1.432-1.6 1.432-0.69 0-1.142-0.356-1.141-0.904 0-0.534 0.434-0.875 1.201-0.926z"/></svg>