<svg fill="#000000" role="img" viewBox="0 0 50 24" xmlns="http://www.w3.org/2000/svg"><title>Apple TV</title><path d="M42.501 23.712h-3.706l-6.821-18.794h3.335l4.125 12.226c0.153 0.472 0.558 1.838 1.197 4.109l0.606-2.036 0.674-2.054 4.277-12.262H49.506z m-10.913-0.135a11.763 11.763 0 0 1-3.166 0.423c-2.512 0-3.758-1.415-3.757-4.262V7.193h-2.171V4.918h2.289V1.954l3.015-1.229v4.211h3.486v2.273H27.818v11.855c0 0.911 0.151 1.532 0.437 1.903 0.286 0.372 0.809 0.539 1.532 0.539 0.423 0 1.011-0.084 1.803-0.234z m-14.888-10.911c0.035 3.602 3.165 4.816 3.2 4.832-0.035 0.086-0.506 1.72-1.65 3.386-0.995 1.45-2.022 2.896-3.655 2.93-1.599 0.033-2.103-0.943-3.942-0.943-1.818 0-2.389 0.909-3.906 0.976-1.548 0.051-2.745-1.583-3.754-3.031-2.038-2.963-3.604-8.369-1.499-12.008 1.042-1.818 2.912-2.963 4.934-2.982 1.532-0.033 2.998 1.046 3.941 1.046 0.941 0 2.71-1.28 4.563-1.095 0.776 0.033 2.965 0.321 4.362 2.357-0.118 0.067-2.61 1.517-2.594 4.532M13.702 3.807c0.825-1.011 1.399-2.41 1.246-3.807-1.195 0.051-2.643 0.792-3.519 1.803-0.776 0.892-1.45 2.324-1.264 3.688 1.332 0.102 2.712-0.69 3.537-1.684Z"/></svg>