<svg fill="#21375A" role="img" viewBox="0 0 33 24" xmlns="http://www.w3.org/2000/svg"><title>AppSignal</title><path d="M28.808 5.613c-2.435 0-4.176 2.146-5.972 4.536-1.114-5.077-2.351-10.149-6.29-10.149-3.938 0-5.18 5.072-6.311 10.153-1.791-2.395-3.532-4.539-5.967-4.539C2.717 5.614 0.095 6.666 0.095 10.614v7.163c0 3.871 2.067 4.822 3.309 5.148 2.139 0.555 7.292 1.075 13.093 1.075s10.954-0.519 13.095-1.075c1.24-0.328 3.312-1.277 3.313-5.148v-7.163c0-3.948-2.625-5.001-4.173-5.001m-12.186-3.375c2.36 0 3.259 4.656 4.512 10.243-1.373 1.692-2.833 3.057-4.512 3.057-1.679 0-3.133-1.364-4.511-3.057 1.172-5.225 2.077-10.243 4.511-10.243M2.37 17.799v-7.163c0-2.492 1.341-2.761 1.933-2.762 1.718 0 3.582 2.865 5.322 5.168-1.244 5.219-2.56 8.398-5.666 7.743-0.811-0.219-1.572-0.734-1.572-2.963m6.097 3.63c1.375-1.494 2.239-3.828 2.924-6.298 1.435 1.508 3.098 2.645 5.156 2.645 2.059 0 3.716-1.137 5.158-2.645 0.667 2.47 1.545 4.804 2.919 6.298a92.286 92.286 0 0 1-16.14 0m22.259-3.63c0 2.238-0.76 2.744-1.572 2.963-3.11 0.659-4.422-2.524-5.667-7.745 1.759-2.301 3.582-5.166 5.323-5.166 0.581 0 1.933 0.269 1.934 2.762z"/></svg>