<svg fill="#2A2F3D" role="img" viewBox="0 0 144 24" xmlns="http://www.w3.org/2000/svg"><title>Appsmith</title><path d="M96.862 16.332v-11.054h-6.967v2.528h3.654v8.526h-3.654v2.522h10.628v-2.522z m34.089 6.991v-2.522H143.891v2.522z m-3.954-17.086q1.276 1.282 1.276 3.618v8.999h-3.307v-8.447q0-2.576-2.552-2.577a2.876 2.876 0 0 0-2.157 0.911q-0.881 0.905-0.881 2.51v7.609h-3.307v-18.111h3.307v6.351q1.552-2.133 4.134-2.133 2.217 0 3.487 1.27z m-14.828 1.569h-4.229v7.339q0 0.659 0.359 0.917 0.347 0.264 1.186 0.258h2.421v2.528c-0.719 0.072-2.588 0.102-3.026 0.102q-2.205 0-3.223-0.827-1.018-0.827-1.018-2.642V7.806h-3.074v-2.528h3.08v-4.529h3.295v4.529h4.229z m-26.641-1.527q1.246 1.318 1.252 3.606v8.969h-3.313v-8.447q0-2.576-2.337-2.577a2.558 2.558 0 0 0-2.055 0.911q-0.773 0.905-0.779 2.642v7.471h-3.277v-8.447q0-2.576-2.366-2.577a2.522 2.522 0 0 0-2.013 0.911q-0.779 0.911-0.779 2.648v7.471h-3.307v-13.582h3.211v1.947q1.39-2.259 3.859-2.258 3.103 0 4.211 2.522 1.522-2.522 4.206-2.522 2.241 0 3.487 1.318z m-34.928 8.261h3.241q0.132 1.258 0.827 1.792 0.701 0.521 2.199 0.521 2.684 0 2.684-1.63a1.288 1.288 0 0 0-0.581-1.132q-0.575-0.395-2.079-0.659l-1.552-0.258q-4.445-0.737-4.445-4.103 0-1.917 1.474-3.014 1.468-1.09 4.157-1.09 5.811 0 5.997 4.595h-3.127q-0.054-1.21-0.761-1.726-0.707-0.515-2.103-0.509-2.372 0-2.372 1.576a1.24 1.24 0 0 0 0.527 1.066q0.527 0.377 1.738 0.593l1.707 0.258q2.474 0.449 3.595 1.426 1.114 0.971 1.114 2.708 0 2.049-1.576 3.157-1.576 1.102-4.445 1.102-5.949 0.006-6.213-4.673z m-4.613-7.656q1.63 1.947 1.63 5.182t-1.63 5.152q-1.654 1.941-4.445 1.941-2.792 0-4.212-2.073v6.914h-3.307v-18.722h3.182v1.947q1.474-2.259 4.343-2.258 2.774 0 4.433 1.917z m-5.236 9.549q1.63 0 2.576-1.186 0.941-1.18 0.917-3.283 0-2.079-0.905-3.175-0.911-1.09-2.594-1.09-1.654 0-2.576 1.138-0.917 1.126-0.917 3.235 0 2.127 0.947 3.235 0.887 1.126 2.546 1.126z m-11.814-9.549q1.63 1.947 1.63 5.182t-1.63 5.152q-1.654 1.941-4.445 1.941-2.792 0-4.212-2.073v6.914h-3.307v-18.722h3.181v1.947q1.474-2.259 4.344-2.258 2.78 0 4.433 1.917z m-5.236 9.549q1.63 0 2.576-1.186 0.947-1.18 0.917-3.283 0-2.079-0.905-3.175-0.911-1.09-2.594-1.09-1.654 0-2.576 1.138-0.917 1.126-0.917 3.235 0 2.127 0.947 3.235 0.899 1.126 2.552 1.126z m-13.965 2.421q-0.24-0.419-0.371-1.654-1.366 1.977-4.362 1.977-2.241 0-3.564-1.078Q0.109 17.015 0.109 15.091q0-3.714 5.212-4.229l2.049-0.18a3.019 3.019 0 0 0 1.467-0.491 1.288 1.288 0 0 0 0.45-1.067q0-0.869-0.563-1.276-0.569-0.407-1.912-0.407-1.444 0-2.078 0.485c-0.419 0.33-0.665 0.881-0.731 1.678H0.738q0.288-4.631 6.104-4.637 5.655 0 5.656 4.08v7.231q0 1.797 0.551 2.576z m-1.42-2.9q0.971-0.857 0.971-2.456v-1.24a2.834 2.834 0 0 1-1.558 0.551l-1.785 0.204q-1.318 0.162-1.875 0.617a1.618 1.618 0 0 0-0.564 1.33 1.654 1.654 0 0 0 0.588 1.36q0.593 0.485 1.695 0.485 1.558 0 2.528-0.851Zm85.563-12.832a1.737 1.737 0 0 1-0.539-1.283 1.839 1.839 0 0 1 1.839-1.839 1.737 1.737 0 0 1 1.288 0.539 1.797 1.797 0 0 1 0.521 1.3 1.737 1.737 0 0 1-0.539 1.289 1.767 1.767 0 0 1-1.276 0.521 1.797 1.797 0 0 1-1.294-0.527z"/></svg>