<svg fill="#0D96F6" role="img" viewBox="0 0 27 24" xmlns="http://www.w3.org/2000/svg"><title>App Store</title><path d="M9.997 15.204l6.707-12.113c0.092-0.166 0.185-0.331 0.268-0.504 0.075-0.156 0.139-0.313 0.18-0.483 0.088-0.358 0.065-0.731-0.072-1.072-0.136-0.34-0.375-0.623-0.681-0.807a1.556 1.556 0 0 0-1.011-0.211c-0.352 0.047-0.673 0.212-0.926 0.47-0.12 0.123-0.219 0.259-0.311 0.405-0.101 0.161-0.192 0.327-0.284 0.493l-0.425 0.766-0.424-0.766c-0.092-0.166-0.183-0.333-0.284-0.493-0.092-0.146-0.191-0.282-0.311-0.405-0.253-0.258-0.574-0.423-0.926-0.47a1.556 1.556 0 0 0-1.011 0.211c-0.306 0.184-0.545 0.468-0.681 0.807-0.137 0.341-0.16 0.714-0.072 1.072 0.042 0.17 0.106 0.328 0.181 0.483 0.083 0.172 0.175 0.337 0.267 0.504l1.37 2.474-5.337 9.639H2.557c-0.184 0-0.368-0.001-0.552 0.01-0.167 0.01-0.33 0.031-0.492 0.079-0.341 0.099-0.639 0.307-0.854 0.601-0.214 0.293-0.33 0.651-0.33 1.019 0 0.368 0.116 0.726 0.33 1.018 0.215 0.294 0.513 0.502 0.854 0.601 0.162 0.047 0.325 0.068 0.492 0.079 0.184 0.011 0.368 0.01 0.552 0.01h14.375c0.019-0.039 0.065-0.142 0.11-0.296 0.455-1.553-0.676-3.12-2.233-3.121zM3.746 19.18l-0.87 1.647c-0.09 0.17-0.18 0.34-0.261 0.517-0.074 0.16-0.136 0.322-0.177 0.496-0.086 0.367-0.063 0.75 0.071 1.1 0.133 0.348 0.367 0.64 0.666 0.829 0.299 0.189 0.647 0.265 0.989 0.217 0.345-0.048 0.659-0.218 0.907-0.483 0.118-0.126 0.214-0.266 0.304-0.416 0.099-0.165 0.188-0.336 0.279-0.506L6.915 20.192c-0.098-0.164-1.04-1.614-3.169-1.012m22.595-3.299a1.614 1.614 0 0 0-0.855-0.593c-0.162-0.047-0.325-0.068-0.493-0.078-0.184-0.011-0.368-0.01-0.552-0.01H20.797l-4.818-8.579c-0.73 0.769-1.057 1.63-1.182 2.412-0.182 1.134 0.04 2.298 0.599 3.293l5.789 10.31c0.092 0.164 0.183 0.328 0.284 0.486 0.092 0.144 0.191 0.278 0.311 0.4 0.254 0.255 0.575 0.418 0.928 0.464 0.35 0.047 0.706-0.027 1.011-0.208 0.306-0.181 0.545-0.461 0.682-0.797 0.137-0.337 0.16-0.705 0.072-1.058-0.042-0.168-0.106-0.323-0.181-0.477-0.083-0.169-0.175-0.333-0.267-0.496l-1.335-2.378h1.752c0.184 0 0.368 0.001 0.552-0.01 0.167-0.01 0.33-0.031 0.492-0.077a1.614 1.614 0 0 0 0.855-0.594A1.689 1.689 0 0 0 26.671 16.886a1.689 1.689 0 0 0-0.33-1.005Z"/></svg>