<svg fill="#FD366E" role="img" viewBox="0 0 28 24" xmlns="http://www.w3.org/2000/svg"><title>Appwrite</title><path d="M27.609 18.001v5.999H12.363A11.999 11.999 0 0 1 0.391 12.811v-1.622c0.054-0.834 0.197-1.659 0.424-2.462C2.239 3.69 6.87 0 12.363 0c5.494 0 10.124 3.69 11.549 8.727h-6.52a5.991 5.991 0 0 0-5.029-2.726 5.99 5.99 0 0 0-5.028 2.726A5.931 5.931 0 0 0 6.364 12a5.977 5.977 0 0 0 1.883 4.364 5.977 5.977 0 0 0 4.116 1.637H27.609Zm0-7.638v6.001h-11.129A5.984 5.984 0 0 0 18.364 12c0-0.567-0.079-1.116-0.226-1.637H27.609Z"/></svg>