<svg fill="#1904DA" role="img" viewBox="0 0 24 24" xmlns="http://www.w3.org/2000/svg"><title>Aqua</title><path d="M17.787 18.681c0.769 0 0.769 0.711 0.77 0.752 0 0.289-0.105 0.43-0.223 0.553l-3.607 3.613c-0.255 0.256-0.596 0.401-0.956 0.401H0.879c-0.144 0-0.289-0.041-0.424-0.123-0.263-0.152-0.46-0.483-0.455-0.804v-4.392h17.787zM23.063 0c0.32-0.005 0.649 0.189 0.802 0.452 0.081 0.135 0.135 0.279 0.135 0.423V13.757c0 0.36-0.14 0.705-0.395 0.96l-3.546 3.553c-0.137 0.137-0.274 0.274-0.603 0.274-0.041 0-0.823 0-0.822-0.768V0h4.429zM4.554 5.482s0.824 0 0.824 0.77v12.093H0v-8.064c0-0.361 0.14-0.707 0.395-0.963L3.95 5.757c0.137-0.138 0.274-0.275 0.604-0.275zM18.298 0v5.377H6.255c-0.767 0-0.767-0.823-0.767-0.823 0-0.329 0.137-0.466 0.274-0.604L9.309 0.398a1.355 1.355 0 0 1 0.958-0.398h8.031z"/></svg>