<svg fill="#DDE072" role="img" viewBox="0 0 35 24" xmlns="http://www.w3.org/2000/svg"><title>ArangoDB</title><path d="M20.241 0.002c-0.465 0.01-0.779 0.047-0.887 0.06-1.277 0.154-4.086 0.713-6.494 3.036-1.339 1.294-2.183 3.131-2.593 4.11 0.365-0.105 0.73-0.189 1.09-0.238 1.367-0.191 2.618-0.019 3.536 0.318 1.294-0.23 2.144-0.332 2.591-0.33 1.386 0.006 2.913-0.012 4.036 0.945 0.302 0.259 1.192 0.788 1.054 2.203-0.122 1.261-0.689 2.811-2.077 4.337-0.835 0.919-2.452 2.1-4.448 3.127-1.447 0.743-3.508 1.909-6.499 2.073-0.481 0.028-1.03 0.06-1.607 0.059-1.472-0.006-3.607-0.201-5.156-1.817-0.321-0.336-1.905-2.12-1.457-4.261 0.361-1.723 1.787-2.615 2.932-3.333 0.65-0.409 1.527-0.745 2.706-1.096 0.851-0.916 1.853-1.479 2.873-1.836-2.027 0.454-4.049 0.948-5.509 1.673-1.672 0.81-3.252 1.573-3.937 3.253-0.417 1.028-0.382 2.065-0.278 2.751 0 0 0.451 4.502 3.55 6.798 2.594 1.924 6.418 2.635 9.27 1.855 2.244-0.428 4.385-2.527 6.166-4.368l0.008 0.005c0.57 0.27 1.883 0.849 2.948 1.401 2.461 1.27 4.165 1.533 5.046 1.687 1.915 0.334 4.898-0.425 6.313-2.011 1.355-1.52 1.749-3.569 1.426-5.397-0.097-0.561-0.096-1.56-0.508-2.932-0.323-1.072-0.484-1.605-0.718-2.176-0.451-1.102-1.025-1.997-1.884-3.107-2.01-2.594-3.013-3.896-4.653-4.93-2.667-1.687-5.439-1.886-6.84-1.859z m1.037 1.651c1.184 0.048 2.929 0.067 4.437 1.054 0.877 0.577 1.719 0.989 3.4 3.214 2.269 3.009 2.488 3.346 3.335 4.952 0.644 1.222 1.195 3.708 0.945 5.65-0.073 0.563-0.131 1.758-1.381 2.939-1.683 1.589-4.552 1.411-4.853 1.375-0.915-0.112-1.619-0.54-3.755-1.358l-2.641-1.082c-0.176-0.07-0.356-0.167-0.538-0.262 0.606-0.726 1.719-2.164 2.177-3.07 0.336-0.678 0.56-1.432 0.71-1.992 0.113-0.448 0.284-1.113 0.354-1.751 0.036-0.333 0.065-0.673 0.072-0.964 0.006-0.301-0.001-0.355-0.015-0.585a6.044 6.044 0 0 0-0.292-1.346 3.502 3.502 0 0 0-0.665-1.088 3.815 3.815 0 0 0-0.741-0.534c-0.302-0.164-0.689-0.314-0.94-0.411-0.465-0.182-0.851-0.285-1.552-0.373a7.28 7.28 0 0 0-0.655-0.023c-0.795 0.007-1.853 0.116-3.4 0.345-0.989 0.138-1.973 0.302-2.944 0.486l0.003-0.009c1.003-2.039 2.429-3.479 4.872-4.338 1.563-0.548 3.196-0.865 4.067-0.829z m0.396 3.731a3.025 3.025 0 0 0-1.049 0.163c0.55 0.135 1.081 0.413 1.548 0.62 0.371 0.201 0.713 0.455 0.92 0.672 0.362 0.38 0.669 0.896 0.828 1.352 0.144 0.422 0.3 1.033 0.328 1.542 0.013 0.218 0.023 0.32 0.018 0.637a11.663 11.663 0 0 1-0.077 1.034c-0.079 0.71-0.259 1.403-0.373 1.849a11.385 11.385 0 0 1-0.557 1.664c0.348 0.006 0.683-0.003 0.876-0.036 1.363-0.238 2.27-1.637 2.548-2.769 0.39-1.603-0.414-2.938-0.951-3.829-0.508-0.839-1.4-2.013-3.015-2.667a3.039 3.039 0 0 0-1.044-0.232zM11.456 7.688a6.748 6.748 0 0 0-2.197 0.665c-0.771 0.369-1.44 0.942-2.288 1.941-0.945 1.185-1.617 3.471-1.105 4.086 0.262 0.317 0.4 0.349 0.495 0.412 1.31 0.634 2.507 1.505 4.461 1.62h1.626c0.34 0.003 0.793-0.073 0.919-0.086 2.25-0.369 5.243-1.962 5.128-4.188-0.044-0.833-0.993-2.199-1.639-2.814-0.627-0.596-1.668-1.146-2.115-1.334-0.387-0.191-0.838-0.243-1.291-0.309-0.683-0.113-1.414-0.07-1.994 0.007z"/></svg>