<svg fill="#FCBFBD" role="img" viewBox="0 0 29 24" xmlns="http://www.w3.org/2000/svg"><title>Arc</title><path d="M28.655 7.861c0.174-0.848 0.044-1.739-0.399-2.487-0.498-0.841-1.309-1.408-2.262-1.601a3.46 3.46 0 0 0-0.666-0.069h-0.013c-1.633 0-3.004 1.172-3.327 2.773-0.193 0.941-0.567 1.851-1.091 2.692a0.312 0.312 0 0 1-0.28 0.143 0.312 0.312 0 0 1-0.262-0.174l-3.39-7.104c-0.43-0.904-1.203-1.614-2.162-1.894-1.645-0.486-3.34 0.337-4.038 1.807L7.263 9.313c-0.093 0.193-0.368 0.187-0.449-0.007v-0.006a3.391 3.391 0 0 0-3.159-2.131c-0.449 0-0.891 0.087-1.315 0.262-1.745 0.729-2.524 2.785-1.801 4.53 0.66 1.577 1.745 3.066 3.153 4.349 0.1 0.093 0.131 0.237 0.075 0.362l-1.134 2.38c-0.798 1.682-0.156 3.733 1.502 4.574 0.486 0.243 1.003 0.368 1.539 0.368 1.309 0 2.517-0.76 3.078-1.944l0.978-2.051a0.301 0.301 0 0 1 0.362-0.162c1.19 0.324 2.387 0.499 3.564 0.499 1.327 0 2.636-0.199 3.901-0.567a0.311 0.311 0 0 1 0.368 0.162l0.966 2.031c0.573 1.209 1.77 2.031 3.103 2.038 0.542 0 1.066-0.118 1.558-0.368 1.664-0.841 2.299-2.898 1.501-4.586L23.838 16.491c-0.056-0.125-0.031-0.268 0.069-0.361 2.356-2.193 4.094-5.066 4.748-8.269ZM7.637 21.507a2.176 2.176 0 0 1-0.803 0.904 2.176 2.176 0 0 1-1.16 0.336c-0.324 0-0.654-0.075-0.96-0.224-1.072-0.53-1.477-1.863-0.96-2.941l0.941-1.975c0.081-0.174 0.305-0.237 0.455-0.125 0.199 0.143 0.405 0.28 0.617 0.417 0.829 0.53 1.695 0.978 2.586 1.346 0.168 0.069 0.243 0.255 0.169 0.418l-0.885 1.844Zm6.019-2.424c-4.991 0-10.263-3.384-12.008-7.702a2.168 2.168 0 0 1 1.197-2.822c0.268-0.106 0.542-0.162 0.81-0.162 0.86 0 1.67 0.511 2.013 1.358 1.09 2.704 4.748 4.991 7.988 4.991 0.499 0 0.997-0.05 1.49-0.137a0.313 0.313 0 0 1 0.336 0.169l1.633 3.439c0.081 0.174-0.012 0.38-0.194 0.43-1.066 0.28-2.156 0.436-3.265 0.436Zm-0.71-5.845l0.754-1.582c0.062-0.125 0.243-0.125 0.305 0l0.735 1.545c0.05 0.1-0.019 0.224-0.124 0.243-0.318 0.044-0.636 0.069-0.947 0.069a6.004 6.004 0 0 1-0.58-0.032c-0.131-0.019-0.193-0.143-0.143-0.243Zm10.032 9.279a2.171 2.171 0 0 1-2.41-0.331 2.169 2.169 0 0 1-0.512-0.685l-5.914-12.431c-0.118-0.249-0.474-0.249-0.585 0l-1.833 3.857a0.311 0.311 0 0 1-0.38 0.162c-1.246-0.43-2.43-1.159-3.309-2.038a0.303 0.303 0 0 1-0.056-0.349l3.963-8.337c0.137-0.293 0.349-0.555 0.617-0.736 1.246-0.816 2.704-0.305 3.247 0.835l8.132 17.105c0.511 1.084 0.112 2.418-0.96 2.948Zm-1.713-11.441a0.306 0.306 0 0 1 0.037-0.324c0.928-1.19 1.608-2.58 1.901-4.057 0.206-1.028 1.109-1.745 2.125-1.744 0.175 0 0.349 0.019 0.529 0.062 1.153 0.287 1.82 1.483 1.577 2.648-0.573 2.729-1.994 5.203-3.932 7.141-0.156 0.156-0.411 0.112-0.505-0.081l-1.732-3.645Z"/></svg>