<svg fill="#2C7AC3" role="img" viewBox="0 0 22 24" xmlns="http://www.w3.org/2000/svg"><title>ArcGIS</title><path d="M11 0a0.849 0.849 0 0 0-0.338 0.07l-8.518 3.695C1.146 4.198 0.5 5.182 0.5 6.27v13.252l10.162 4.408c0.215 0.093 0.46 0.094 0.676 0l8.518-3.696c0.998-0.433 1.644-1.417 1.644-2.504V4.478L11.338 0.07C11.23 0.023 11.115 0 11 0Zm0 4.837c4.163 0 7.538 3.375 7.538 7.538S15.163 19.912 11 19.912c-4.163 0-7.538-3.375-7.538-7.537S6.837 4.837 11 4.837z m-0.35 1.389c-0.897-0.023-2.327 0.241-3.747 1.614 0.35 0.555 0.645 0.978 0.49 1.418-0.231 0.655-0.514 0.514-1.07 0.995-0.396 0.342 0.207 1.013-0.313 1.306-0.519 0.293-1.213 0.664-0.949 1.175 0.264 0.512 1.469 0.83 1.959 1.075 0.49 0.245 0.928 0.706 0.607 1.238-0.314 0.519-0.537 1.131-0.601 1.609 1.055 0.944 2.447 1.519 3.974 1.519 3.293 0 5.818-2.71 5.962-6 0.041-0.925-0.939-0.94-1.534-0.94 0 0 0.341 0.924 0.018 1.436-0.322 0.513-0.85 0.762-0.835 1.377 0.015 0.615-0.937 1.597-1.26 1.949-0.322 0.352-0.923 0.747-1.128-0.059-0.205-0.806-0.126-1.478 0.109-2.049 0.234-0.571-0.217-0.747-0.921-0.762-0.703-0.015-1.08-0.108-1.187-1.193-0.088-0.894 1.243-1.844 1.815-1.844 0.334 0 1.455 0.22 1.507-0.34 0.081-0.859-0.82-1.042-1.039-1.602C12.288 7.587 13.986 6.607 11 6.25c-0.105-0.013-0.222-0.021-0.35-0.024z"/></svg>