<svg fill="#990000" role="img" viewBox="0 0 36 24" xmlns="http://www.w3.org/2000/svg"><title>Archive of Our Own</title><path d="M27.496 8.868c-1.017 1.652-2.698 2.548-4.425 2.745-6.255 0.716-8.949-6.14-5.133-9.956 3.418-3.418 10.48-1.332 10.366 4.29-0.016 0.904-0.246 2.008-0.808 2.921z m-9.558-3.003c0.21 5.322 7.05 5.449 8.415 1.56 1.206-3.439-1.657-6.214-4.72-5.767-2.254 0.327-3.778 2.088-3.695 4.207zM34.46 3.126c0.42-0.194 1.031-0.61 1.239-0.364 0.312 0.371-0.679 0.703-1.107 0.983-1.359 0.888-2.562 1.816-3.666 3.032-1.419 1.567-2.877 3.516-3.773 5.65 0.915 0.047 4.471 0.232 5.327 2.192 0.687 1.572-0.573 3.191-1.953 3.887 0.981 0.613 2.679 1.398 2.582 2.809-0.234 3.467-5.47 3.316-7.663 1.028-0.361-0.428-0.53-0.713-0.37-0.855 0.223-0.198 0.482 0.275 1.001 0.704 0.333 0.277 0.558 0.371 0.846 0.524 1.925 1.011 4.941 0.596 5.147-1.172 0.095-0.82-0.983-1.413-1.801-1.781-0.737-0.331-2.24-0.571-2.211-1.409 0.03-0.82 0.775-0.666 1.525-0.962 0.814-0.321 1.486-1.333 1.484-1.652-0.007-1.339-3.051-1.314-4.767-1.361-0.407 0.897-0.697 1.814-1.024 3.193-0.206 0.863-0.223 2.807-1.107 3.003-1.091 0.243-1.501-0.706-2.153-1.467-0.879-1.021-2.125-2.423-2.874-3.289-4.488 1.483-7.979 3.094-12.218 5.493-1.94 1.098-3.053 2.353-3.766 2.004-0.586-0.287-0.502-0.937-0.217-1.313 0.582-0.771 1.372-1.813 2.066-2.794 0.888-1.256 1.56-2.467 2.031-3.618 1.024-2.498 1.82-6.985 2.183-8.671 0.13-0.61 0.457-0.515 0.477-0.219 0.04 0.62-0.351 3.029-0.429 3.527-0.645 4.115-1.142 6.526-2.973 9.395 3.25-2.01 7.111-4.468 11.235-5.852C13.332 8.946 8.894 4.379 2.722 1.501 1.776 0.964 0.241 0.849 0.241 0.487c0-0.401 1.156-0.089 1.544 0.011 3.526 0.882 7.128 3.168 9.768 5.096 3.174 2.319 6.976 5.871 8.405 7.52 0.972-0.334 3.383-0.676 5.469-0.734 1.113-2.338 3.774-5.946 7.086-8.054 0.611-0.389 1.246-0.879 1.947-1.2z m-12.718 11.944c0.626 0.633 1.098 1.382 1.643 2.069 0.257-0.873 0.599-1.8 0.951-2.602-0.916 0.121-1.896 0.3-2.594 0.533z"/></svg>