<svg fill="#1793D1" role="img" viewBox="0 0 26 24" xmlns="http://www.w3.org/2000/svg"><title>Arch Linux</title><path d="M12.358 0C11.29 2.619 10.645 4.333 9.456 6.874c0.73 0.773 1.625 1.673 3.079 2.689-1.563-0.642-2.629-1.289-3.425-1.959C7.587 10.781 5.203 15.305 0.363 24c3.804-2.196 6.752-3.549 9.5-4.067a6.961 6.961 0 0 1-0.18-1.629l0.003-0.121c0.061-2.438 1.328-4.312 2.83-4.184 1.502 0.126 2.669 2.207 2.609 4.643a6.866 6.866 0 0 1-0.154 1.309c2.717 0.532 5.636 1.882 9.388 4.048-0.739-1.362-1.401-2.59-2.032-3.76-0.993-0.769-2.028-1.771-4.142-2.857 1.453 0.378 2.493 0.813 3.304 1.3-6.413-11.936-6.931-13.522-9.13-18.682zM24.477 21.857v-0.656h-0.247v-0.089h0.592v0.089h-0.246v0.656h0.348v-0.745h0.15l0.176 0.527 0.035 0.113a2.38 2.38 0 0 1 0.04-0.12l0.179-0.52H25.637v0.745h-0.096v-0.625l-0.217 0.625h-0.088l-0.216-0.634v0.634h-0.096"/></svg>