<svg fill="#C61C3E" role="img" viewBox="0 0 28 24" xmlns="http://www.w3.org/2000/svg"><title>Ardour</title><path d="M14 0L0.146 24c1.674 0 0.961-1.022 1.807-1.074 0.812 0 0.645 0.508 1.205 0.508 0.977 0 0.315-3.256 1.204-3.255 0.768 0 0.554 2.353 1.205 2.352 0.332 0 0.602-0.936 0.602-2.089v-1.091c0-1.505 0.27-2.729 0.603-2.729 0.332 0 0.603 1.231 0.602 2.314 0 1.36 0.269 2.805 0.603 2.806 0.332 0 0.602-1.458 0.601-3.239v-0.508c0-1.951 0.27-3.539 0.603-3.538 0.332 0 0.603 1.581 0.603 3.425 0 1.918 0.269 3.577 0.602 3.577 0.332 0 0.602-1.659 0.602-3.671 0-2.005 0.27-3.632 0.603-3.633 0.332 0 0.603 1.644 0.602 3.784 0 2.062 0.269 3.633 0.603 3.633 0.332 0 0.602-1.578 0.601-3.313 0-1.6 0.27-3.068 0.603-3.068 0.332 0 0.603 1.467 0.603 3.275v0.545c0 1.634 0.269 2.956 0.601 2.956 0.334 0 0.603-1.33 0.603-2.654 0-1.123 0.27-2.296 0.602-2.297 0.332 0 0.603 1.166 0.603 2.598v0.658c0 1.221 0.269 2.203 0.602 2.203 0.334 0 0.603-0.97 0.602-1.863 0-0.68 0.27-1.505 0.603-1.506 0.332 0 0.603 0.819 0.603 1.825v0.621c0 0.804 0.269 1.469 0.601 1.469 0.687 0 0.52-1.995 1.205-1.995 0.332 0 0.603 0.496 0.603 1.111v0.526c0 0.444 0.269 0.791 0.602 0.791 0.681 0 0.533-0.903 1.205-0.903 0.877 0 0.227 1.242 1.204 1.242 0.591 0 0.492-0.208 1.205-0.207 0.65 0 0.569 0.414 1.807 0.414z"/></svg>