<svg fill="#00878F" role="img" viewBox="0 0 50 24" xmlns="http://www.w3.org/2000/svg"><title>Arduino</title><path d="M37.478 0c-0.615 0-1.244 0.035-1.86 0.141-5.19 0.752-8.671 4.59-10.618 7.532-1.947-2.942-5.428-6.779-10.618-7.532a13.304 13.304 0 0 0-1.86-0.141C5.83 0 0.401 5.379 0.401 12s5.444 12 12.121 12c0.615 0 1.244-0.035 1.878-0.141 5.188-0.771 8.671-4.606 10.618-7.55 1.945 2.944 5.426 6.779 10.619 7.55 0.613 0.088 1.244 0.141 1.875 0.141C44.154 24 49.599 18.621 49.599 12s-5.444-12-12.121-12zM13.787 19.654a7.865 7.865 0 0 1-1.281 0.088c-4.403 0-7.972-3.485-7.972-7.742 0-4.274 3.585-7.742 7.99-7.742 0.426 0 0.853 0.035 1.28 0.088 4.899 0.717 7.886 5.674 8.91 7.654-1.041 1.997-4.046 6.937-8.927 7.654z m23.693 0.088c-0.426 0-0.853-0.035-1.279-0.088-4.899-0.717-7.904-5.674-8.911-7.654 1.006-1.98 4.012-6.937 8.911-7.654 0.426-0.053 0.853-0.088 1.279-0.088 4.405 0 7.974 3.485 7.974 7.742 0 4.274-3.587 7.742-7.974 7.742z m3.382-9.027v2.324h-2.47v2.423h-2.37v-2.423H33.548v-2.324h2.472V8.29h2.37v2.425h2.472zM9.105 13.021H16.431v-2.306H9.103v2.306z"/></svg>