<svg fill="#DA291C" role="img" viewBox="0 0 29 24" xmlns="http://www.w3.org/2000/svg"><title>Argos</title><path d="M0.468 0v24h28.064V0z m6.934 6.485c0.208 0 0.508 0 0.746 0.031 0.269 0 0.359 0.09 0.389 0.328 0.06 0.926 0.269 4.931 0.3 5.738 0 0.21-0.12 0.269-0.269 0.269H7.729c-0.209 0-0.299-0.119-0.299-0.269 0-0.298-0.03-1.076-0.03-1.075H5.13c-0.239 0.419-0.508 0.897-0.628 1.106-0.089 0.179-0.208 0.209-0.358 0.209h-0.956c-0.21 0-0.269-0.15-0.179-0.329C4.294 10.162 5.937 7.621 6.654 6.785c0.208-0.269 0.448-0.269 0.746-0.3zM7.286 7.884a0.111 0.111 0 0 0-0.035 0.037c-0.538 0.657-1.225 1.734-1.614 2.482h1.763S7.344 8.667 7.312 7.919c0 0 0-0.05-0.025-0.037z m17.15 0.277c0.718 0 1.316 0.327 1.585 0.776 0.119 0.18 0.089 0.298-0.09 0.389a4.107 4.107 0 0 1-0.508 0.239c-0.15 0.029-0.269 0.029-0.389-0.119-0.508-0.599-1.224-0.389-1.255-0.06-0.03 0.298 0.299 0.417 0.747 0.538 0.688 0.208 1.464 0.567 1.226 1.494-0.24 0.957-1.166 1.435-2.242 1.434-0.688 0-1.465-0.208-1.763-0.926-0.06-0.15-0.03-0.269 0.09-0.327 0.179-0.12 0.359-0.21 0.537-0.27 0.15-0.03 0.269 0 0.358 0.119 0.21 0.299 0.449 0.449 0.838 0.449 0.359 0 0.747-0.151 0.716-0.479-0.029-0.298-0.477-0.417-0.716-0.479-0.448-0.119-1.375-0.327-1.376-1.075 0-0.926 0.866-1.614 2.242-1.703z m-4.483 0.089c1.435 0 2.093 0.957 1.794 2.332-0.269 1.375-1.345 2.331-2.78 2.33-1.435 0-2.092-0.955-1.793-2.33 0.298-1.375 1.345-2.332 2.779-2.332z m-5.17 0.03c0.657 0 1.016 0.388 1.105 0.538 0 0.029 0.03 0.029 0.03 0 0.029-0.09 0.06-0.15 0.06-0.179 0.03-0.15 0.15-0.269 0.359-0.269h0.596c0.18 0 0.33 0.119 0.271 0.358a112.617 112.617 0 0 1-0.867 3.587c-0.449 1.733-1.345 2.601-2.689 2.6-0.538 0-1.435-0.15-1.825-0.776-0.089-0.12-0.119-0.24 0.09-0.39 0.18-0.119 0.388-0.179 0.569-0.239 0.179-0.058 0.239-0.058 0.417 0.06a1.059 1.059 0 0 0 0.658 0.21c0.478 0 1.106-0.269 1.405-1.287 0.03-0.058 0-0.058-0.029-0.029-0.21 0.269-0.658 0.448-1.166 0.448-0.628-0.029-1.016-0.239-1.256-0.627-0.269-0.419-0.239-1.166-0.029-1.824 0.327-1.045 1.135-2.181 2.301-2.181z m-4.514 0.031h0.718c0.149 0 0.209 0.118 0.179 0.238-0.029 0.119-0.06 0.209-0.059 0.239 0 0.03 0.029 0.03 0.029 0.03 0.538-0.479 1.227-0.478 1.974-0.478 0.119 0 0.179 0.119 0.088 0.209-0.269 0.269-0.419 0.478-0.597 0.747-0.119 0.179-0.21 0.239-0.419 0.239-0.478 0.03-0.717 0.119-0.897 0.24-0.179 0.119-0.359 0.508-0.447 0.956a56.487 56.487 0 0 1-0.389 1.883 0.262 0.262 0 0 1-0.269 0.209h-0.867c-0.119 0-0.208-0.09-0.179-0.21 0.15-0.836 0.748-3.645 0.837-4.064 0.03-0.18 0.15-0.239 0.299-0.238z m9.595 0.926c-0.807 0-1.135 0.657-1.345 1.345-0.18 0.688-0.269 1.345 0.538 1.344 0.807 0 1.134-0.657 1.345-1.344 0.209-0.688 0.269-1.345-0.538-1.345z m-4.931 0.029c-0.599-0.029-1.017 0.449-1.287 1.345-0.149 0.479-0.179 1.196 0.449 1.286 0.628 0.029 1.047-0.419 1.286-1.286 0.15-0.567 0.299-1.314-0.448-1.345zM3.202 14.29a0.374 0.374 0 0 1 0.105 0.027c4.303 1.763 7.084 2.421 10.999 2.42 3.915 0 6.695-0.657 11.027-2.42 0.299-0.119 0.479 0.179 0.181 0.357-1.704 1.076-5.619 3.288-11.208 3.289-5.59 0-9.534-2.212-11.179-3.289-0.261-0.157-0.156-0.405 0.075-0.384z"/></svg>