<svg fill="#49B48A" role="img" viewBox="0 0 28 24" xmlns="http://www.w3.org/2000/svg"><title>Arlo</title><path d="M18.784 11.059l5.64-6.582c1.072-1.469 1.698-2.077 1.216-4.477l-8.372 9.773a8.985 8.985 0 0 0-2.155 6.235L11.458 11.852a6.563 6.563 0 0 0-1.076-0.942A11.34 11.34 0 0 0 8.318 9.785c0.242-0.086 0.489-0.159 0.737-0.22 0.438-0.107 0.886-0.164 1.337-0.167 0.505 0 1.001 0.08 1.477 0.269 0.473 0.191 0.932 0.491 1.377 0.975l0.246 0.286 1.518-1.283c-0.011-0.013-0.274-0.322-0.285-0.331a5.784 5.784 0 0 0-2.114-1.487 5.947 5.947 0 0 0-2.219-0.413c-0.172 0-0.34 0.008-0.507 0.019-1.66 0.273-2.686 1.255-4.22 1.414 0.001 0.007-5.205 0-5.206 0.002-0.115 0-0.131 0.164-0.019 0.185 1.366 0.273 3.797 0.794 5.504 1.38 1.298 0.601 2.545 1.369 3.53 2.297 0.193 0.153 0.36 0.308 0.498 0.461l4.868 5.534c0.693 0.569 1.585 0.858 3.484 0.871a7.042 7.042 0 0 1-0.79-1.519 7.015 7.015 0 0 1-0.016-4.836 6.976 6.976 0 0 1 1.266-2.163zM27.636 24c-1.97-0.025-2.828-0.36-3.534-1.009l-1.093-1.242c-0.074-0.09-0.148-0.178-0.224-0.266l0.012 0.026-1.936-2.201a5.448 5.448 0 0 1-1.028-5.461 5.403 5.403 0 0 1 0.989-1.685l4.782-5.559c0.489 2.476-0.218 3.03-1.375 4.648l-1.895 2.201a3.452 3.452 0 0 0-0.84 2.26c0.001 0.842 0.309 1.657 0.865 2.289L27.636 24z"/></svg>