<svg fill="#0091BD" role="img" viewBox="0 0 79 24" xmlns="http://www.w3.org/2000/svg"><title>Arm</title><path d="M17.911 0.63h5.295v22.671H17.911v-2.362c-2.329 2.697-5.16 3.061-6.79 3.061C4.13 24 0.134 18.174 0.134 11.951c0-7.391 5.059-11.918 11.055-11.918 1.663 0 4.593 0.433 6.722 3.228z m-12.351 11.452c0 3.93 2.464 7.224 6.292 7.224 3.33 0 6.426-2.428 6.427-7.155 0-4.96-3.064-7.325-6.427-7.325-3.828-0.033-6.292 3.195-6.292 7.256z m23.938-11.449h5.291v2.027a9.841 9.841 0 0 1 2.198-1.896c1.03-0.6 2.031-0.764 3.228-0.764 1.299 0 2.697 0.197 4.163 1.063l-2.165 4.796a4.698 4.698 0 0 0-2.697-0.8c-1.132 0-2.264 0.164-3.296 1.233-1.463 1.565-1.463 3.727-1.464 5.226v11.75H29.462z m18.239 0h5.295v2.096c1.765-2.165 3.861-2.697 5.593-2.696 2.362 0 4.593 1.132 5.859 3.329 1.899-2.697 4.727-3.33 6.725-3.329 2.762 0 5.16 1.299 6.459 3.562 0.433 0.764 1.197 2.428 1.198 5.725v14.014h-5.295V10.852c0-2.529-0.262-3.563-0.499-4.029-0.331-0.866-1.132-1.998-3.027-1.997-1.299 0-2.431 0.699-3.13 1.666-0.932 1.296-1.033 3.228-1.033 5.157v11.685H60.593V10.852c0-2.529-0.266-3.563-0.498-4.029-0.335-0.866-1.132-1.998-3.031-1.997-1.299 0-2.428 0.699-3.13 1.666-0.932 1.296-1.03 3.228-1.03 5.157v11.685h-5.16z"/></svg>