<svg fill="#394049" role="img" viewBox="0 0 142 24" xmlns="http://www.w3.org/2000/svg"><title>Arm Keil</title><path d="M18.289 0.605h5.288v22.695h-5.288v-2.374c-1.692 1.992-4.183 3.114-6.797 3.073-6.991 0-10.992-5.816-10.992-12.073 0-7.385 5.07-11.915 11.051-11.915 2.632-0.059 5.135 1.146 6.738 3.231v-2.643z m-12.396 11.426c0 3.936 2.479 7.226 6.304 7.227 3.331 0 6.416-2.426 6.415-7.174 0-4.959-3.073-7.332-6.415-7.332-3.825 0-6.304 3.255-6.304 7.279z m23.97-11.426h5.288v2.05c0.629-0.746 1.375-1.381 2.209-1.886 0.987-0.546 2.103-0.811 3.231-0.764 1.457-0.029 2.891 0.347 4.148 1.087l-2.156 4.794a4.771 4.771 0 0 0-2.697-0.811c-1.128 0-2.262 0.165-3.29 1.24-1.445 1.563-1.445 3.719-1.445 5.229v11.75h-5.288V0.605z m18.289 0h5.288v2.103a6.991 6.991 0 0 1 5.604-2.703c2.415-0.035 4.665 1.246 5.875 3.337 1.88-2.685 4.741-3.331 6.739-3.331 2.75 0 5.17 1.293 6.474 3.56 0.429 0.752 1.187 2.421 1.187 5.711v14.018h-5.287v-12.508c0-2.532-0.27-3.56-0.488-4.042a3.002 3.002 0 0 0-3.02-1.998 3.901 3.901 0 0 0-3.125 1.663c-0.917 1.298-1.028 3.237-1.029 5.182v11.703h-5.281v-12.508c0-2.532-0.27-3.56-0.482-4.042a3.002 3.002 0 0 0-3.02-1.998 3.901 3.901 0 0 0-3.125 1.663c-0.922 1.298-1.028 3.237-1.028 5.182v11.703h-5.288V0.605z m42.988 9.734l9.664-9.729h3.402l-10.617 10.575 10.957 12.109h-3.466l-9.288-10.411-0.647 0.647v9.764H88.625V0.605h2.52v9.734z m28.582-7.355h-9.254v6.739h8.995v2.379h-8.995v8.813h9.254v2.379h-11.774V0.605h11.774v2.379z m7.144-2.379v22.689h-2.515V0.605h2.515z m8.371 0v20.327H141.5v2.38h-8.777V0.605h2.514z"/></svg>