<svg fill="#417598" role="img" viewBox="0 0 22 24" xmlns="http://www.w3.org/2000/svg"><title>Artifact Hub</title><path d="M11.001 24c-0.617 0.001-1.242-0.172-1.78-0.5l-7.51-4.293c-1.018-0.617-1.64-1.718-1.64-2.907V7.729c0-1.253 0.637-2.369 1.76-3.01L9.252 0.479c1.08-0.639 2.415-0.638 3.495 0.001l7.42 4.237c1.08 0.596 1.771 1.734 1.762 3.01v8.582c0 0.968-0.443 2.164-1.636 2.899l-7.511 4.292c-0.563 0.344-1.199 0.5-1.782 0.5z m-0.5-21.347L2.956 6.962c-0.201 0.157-0.379 0.369-0.379 0.767l0.001 8.671c0.038 0.22 0.119 0.428 0.373 0.634l7.56 4.317c0.266 0.172 0.664 0.21 0.985 0l7.518-4.297c0.232-0.148 0.371-0.389 0.41-0.653V7.729c0.009-0.299-0.136-0.589-0.377-0.765L11.501 2.652c-0.391-0.239-0.759-0.156-1 0.001z"/></svg>