<svg fill="#B31B1B" role="img" viewBox="0 0 19 24" xmlns="http://www.w3.org/2000/svg"><title>arXiv</title><path d="M1.342 0a1.004 1.004 0 0 0-0.922 0.608c-0.154 0.369-0.044 0.627 0.294 1.111l6.919 8.36-1.023 1.106a1.039 1.039 0 0 0 0.003 1.423l1.23 1.313-5.44 6.444c-0.28 0.299-0.454 0.823-0.297 1.199a1.025 1.025 0 0 0 0.959 0.635 0.913 0.913 0 0 0 0.689-0.341l5.783-6.126 7.49 8.006a0.853 0.853 0 0 0 0.684 0.259 0.958 0.958 0 0 0 0.877-0.613c0.158-0.377-0.017-0.75-0.306-1.141l-7.051-8.342 1.063-1.13a0.963 0.963 0 0 0 0.009-1.316L2.134 0.464s-0.373-0.454-0.768-0.463z m0 0.272h0.017c0.218 0.005 0.487 0.272 0.564 0.364l0.005 0.006 0.006 0.005 10.169 10.991a0.692 0.692 0 0 1-0.008 0.945l-1.066 1.133-1.498-1.772-8.6-10.39c-0.329-0.472-0.352-0.618-0.259-0.841a0.731 0.731 0 0 1 0.67-0.441Zm14.341 1.57a0.877 0.877 0 0 0-0.655 0.242l-5.696 6.158 1.694 1.832 5.309-6.514c0.325-0.433 0.479-0.66 0.325-1.029a1.121 1.121 0 0 0-0.977-0.689z m-7.655 12.282l1.318 1.414-5.786 6.129a0.649 0.649 0 0 1-0.496 0.26 0.752 0.752 0 0 1-0.706-0.467c-0.112-0.268 0.036-0.686 0.244-0.908l0.005-0.005 0.005-0.006z"/></svg>