<svg fill="#68A51C" role="img" viewBox="0 0 82 24" xmlns="http://www.w3.org/2000/svg"><title>ASDA</title><path d="M74.172 0.692h-8.412l-4.797 13.885c0.215-1.153 0.253-2.075 0.252-2.476 0-5.817-3.333-11.41-11.163-11.409h-8.993l0.027 13.811c-0.777-3.924-4.363-4.976-8.821-6.331-1.666-0.513-2.581-1.328-2.248-2.088 0.285-0.663 1.307-0.871 2.547-0.7 1.891 0.271 3.402 0.903 4.857 1.695l1.987-4.925c-0.448-0.221-3.668-2.154-7.704-2.154-5.628 0-9.222 2.746-9.221 6.798 0 3.61 2.224 5.71 6.312 6.886 4.398 1.276 5.512 1.789 5.38 3.053-0.114 1.09-2.839 2.418-9.508-1.685l-1.982 4.1-6.116-18.46H8.16L0.213 23.639h6.628l1.284-3.704h7.775l1.321 3.705h6.959l-0.79-2.244c2.352 1.36 5.27 2.604 8.76 2.604 5.346 0 8.236-2.92 8.926-5.718v5.358h8.966c5.346 0 8.142-2.549 9.603-5.276l-1.834 5.276h6.623l1.326-3.705h7.895l1.165 3.705H81.787L74.172 0.692Zm-64.566 14.059l2.472-7.884 2.341 7.884Zm38.134 2.971v-11.115h1.58c2.254 0 4.713 0.912 4.714 5.558 0 4.114-2.173 5.558-4.694 5.557z m19.622-2.971l2.357-7.79 2.456 7.79z"/></svg>