<svg fill="#00665E" role="img" viewBox="0 0 106 24" xmlns="http://www.w3.org/2000/svg"><title>Aston Martin</title><path d="M2.16 0.001c-0.691 0-1.234 0.298-1.479 0.796-0.298 0.499-0.249 1.147 0.096 1.694l0.744 1.295c0.394 0.7 0.937 0.796 1.33 0.897 0.35 0.053 0.595 0.101 0.841 0.6l0.691 1.195c0.547 0.998 1.138 1.094 1.584 1.194 0.346 0.053 0.691 0.101 1.134 0.897 0.446 0.796 1.09 1.996 2.717 2.49 0.149 0.053 15.759 4.634 15.812 4.635 1.632 0.551 2.074 1.147 2.569 1.895 0.298 0.446 1.138 1.645 3.111 2.192l15.019 4.083a3.081 3.081 0 0 0 3.112-0.796l2.717-2.591c0.398-0.35 0.595-0.499 0.841-0.499 0.249 0 0.446 0.149 0.84 0.499l2.718 2.591c0.495 0.398 1.484 1.195 3.115 0.796l15.015-4.083c2.026-0.547 2.818-1.746 3.112-2.192 0.495-0.748 0.941-1.396 2.569-1.895 0 0 15.614-4.582 15.811-4.635 1.58-0.495 2.276-1.694 2.718-2.49 0.446-0.796 0.74-0.845 1.085-0.897 0.446-0.101 1.09-0.197 1.632-1.194l0.692-1.195c0.298-0.499 0.495-0.547 0.84-0.6 0.394-0.101 0.937-0.201 1.335-0.897l0.739-1.295c0.346-0.595 0.398-1.195 0.101-1.694a1.689 1.689 0 0 0-1.483-0.796h-42.341c-0.691 0-1.777 0-2.914 1.146a4.105 4.105 0 0 0-0.74 1.046c-0.346 0.648-0.595 1.094-1.781 1.094h-6.175c-1.138 0-1.431-0.446-1.777-1.094a4.451 4.451 0 0 0-0.744-1.046c-1.133-1.147-2.223-1.147-2.914-1.146H2.16Zm0.004 1.046h42.34c0.639 0 1.383 0 2.175 0.844 0.49 0.499 0.639 1.05 1.086 1.598H4.037c-1.282 0-1.431 0-1.825-0.6l-0.542-0.945c-0.149-0.249-0.197-0.499-0.101-0.648 0.101-0.149 0.298-0.249 0.595-0.249Zm59.382 0h42.34c0.298 0 0.495 0.101 0.595 0.249a0.814 0.814 0 0 1-0.101 0.648l-0.542 0.945c-0.394 0.6-0.543 0.6-1.83 0.6h-43.723c0.446-0.547 0.595-1.098 1.086-1.598 0.84-0.845 1.536-0.845 2.175-0.844Zm-31.965 3.238h46.835v7.475H29.581v-7.475Zm47.675 0.101h24.358c-0.101 0.149-0.149 0.249-0.245 0.35 0 0-0.394 0.648-0.542 0.993-0.595 0.95-0.893 0.945-2.569 0.797l-21.002-1.243v-0.897Zm-72.825 0.048h24.358v0.897l-20.997 1.247c-1.676 0.096-1.974 0.149-2.569-0.796l-0.542-0.998c-0.101-0.149-0.197-0.249-0.25-0.35Zm32.183 1.361a1.492 1.492 0 0 0-0.958 0.337 1.256 1.256 0 0 0-0.394 0.893c0 0.551 0.293 0.95 0.888 1.247 0.643 0.298 0.937 0.398 1.085 0.599a0.503 0.503 0 0 1-0.048 0.749 1.072 1.072 0 0 1-0.59 0.148 1.982 1.982 0 0 1-1.287-0.547l0.048 0.797c0.372 0.188 0.775 0.306 1.186 0.346a1.917 1.917 0 0 0 1.138-0.346c0.543-0.398 0.543-1.247 0.197-1.646-0.245-0.35-0.643-0.499-1.383-0.897-0.346-0.197-0.495-0.35-0.495-0.599 0-0.495 0.643-0.643 1.234-0.447a1.926 1.926 0 0 1 0.543 0.298l-0.048-0.748a9.146 9.146 0 0 0-0.495-0.149c-0.048 0-0.306-0.048-0.621-0.035Zm1.611 0.035l-0.049 0.648c0.543-0.053 0.937-0.101 1.283-0.101v3.785h0.84v-3.785c0.201 0 0.595 0 1.286 0.101l-0.048-0.648h-3.312Zm5.531 0c-1.282 0-2.171 0.897-2.171 2.241 0 1.295 0.888 2.245 2.171 2.245 1.287 0 2.175-0.95 2.175-2.245 0-1.344-0.888-2.241-2.175-2.241Zm21.693 0l-0.052 0.648c0.543-0.053 0.941-0.101 1.286-0.101v3.838-0.053h0.84v-3.785c0.197 0 0.591 0 1.283 0.101l-0.048-0.648h-3.309Zm-2.223 0.048c-0.446 0-0.744 0-0.989 0.048v4.337h0.84v-1.842h0.293l1.335 1.842h0.989l-1.531-1.943a1.4 1.4 0 0 0 0.691-0.451 1.479 1.479 0 0 0 0.249-0.744c0-0.648-0.495-0.95-0.892-1.098a2.713 2.713 0 0 0-0.985-0.149Zm-30.336 0l-1.829 4.337h0.739l0.447-1.099h1.632l0.394 1.099h0.941l-1.83-4.337h-0.494Zm13.733 0v4.337h0.595v-2.941l2.569 2.941h0.446v-4.337h-0.595v2.941l-2.569-2.941h-0.446Zm6.424 0l-0.486 4.284h0.683l0.249-2.639 1.234 2.491h0.394l1.186-2.491 0.245 2.692h0.893l-0.495-4.337h-0.446l-1.479 3.042-1.532-3.042h-0.446Zm-0.486 4.284h-0.009v0.053l0.009-0.053Zm7.006-4.284l-1.824 4.337h0.739l0.442-1.099h1.632l0.394 1.099h0.941l-1.829-4.337h-0.495Zm9.781 0v4.337h0.841v-4.337h-0.841Zm1.681 0v4.337h0.595v-2.941l2.569 2.941h0.446v-4.337h-0.595v2.941l-2.569-2.941h-0.446Zm-42.24 0.398v1.099l-17.439 1.991c-1.877 0.201-2.271 0.249-2.862-0.6a8.026 8.026 0 0 1-0.446-0.695c-0.101-0.201-0.197-0.398-0.346-0.548 0.394-0.053 0.84-0.053 0.989-0.052l20.104-1.195Zm48.419 0l20.109 1.195c0.149 0 0.543 0.053 0.989 0.052-0.101 0.149-0.249 0.35-0.346 0.548a8.026 8.026 0 0 1-0.446 0.695c-0.591 0.849-0.989 0.801-2.867 0.6l-17.439-1.991v-1.099Zm-33.452 0c0.298 0 0.499 0.048 0.696 0.202 0.591 0.499 0.591 1.444 0.591 1.54 0 1.199-0.595 1.746-1.287 1.746-0.639 0-1.234-0.547-1.282-1.742 0-0.897 0.394-1.746 1.282-1.746Zm19.321 0.101h0.293c0.495 0 0.893 0.201 0.893 0.748 0 0.35-0.201 0.748-0.893 0.749-0.096 0-0.245-0.053-0.341-0.053h0.048v-1.444Zm-30.139 0.595l0.643 1.646h-1.234l0.591-1.646Zm26.678 0.004l0.643 1.642h-1.234l0.591-1.642Zm17.693 1.392l17.636 1.991-3.606 1.051c-0.989 0.245-1.877 0.149-3.26-0.101l-10.77-1.794v-1.147Zm-48.52 0v1.147l-10.77 1.794c-1.431 0.249-2.324 0.35-3.26 0.101l-3.606-1.046 17.636-1.996Zm0 2.092v1.448l-4.048 1.042c-1.238 0.302-1.978 0.451-2.569 0.451-0.84 0-1.335-0.197-4.35-1.094l10.967-1.847Zm48.419 0l10.967 1.847c-3.011 0.897-3.505 1.094-4.346 1.094-0.591 0-1.335-0.101-2.568-0.447l-4.053-1.05v-1.444Zm-41.351 2.096h3.361c-2.026 1.492-5.09 3.733-6.424 4.683a3.733 3.733 0 0 1-2.127 0.796c-0.788 0-1.133-0.35-1.58-1.046-0.245-0.298-0.495-0.648-0.788-0.949 0.197-0.048 0.394-0.048 0.591-0.149 1.186-0.346 2.915-1.243 6.967-3.335Zm4.989 0h2.814a291.449 291.449 0 0 1-5.729 6.079c-0.495 0.495-1.186 1.195-2.223 1.194-0.394 0-0.346 0-3.952-0.997 0.691-0.197 1.282-0.6 1.58-0.797 1.632-1.098 5.733-4.136 7.51-5.479Zm4.1 0h2.569c-1.431 2.438-3.361 5.676-4.197 7.024-0.398 0.648-1.09 1.645-2.371 1.646-0.495 0.048-0.547-0.004-3.659-0.849 0.643-0.35 1.085-0.796 1.287-1.046a326.656 326.656 0 0 0 6.371-6.775Zm3.659 0h2.319a350.091 350.091 0 0 1-2.717 8.368c-0.293 0.796-0.691 1.794-1.83 1.794-0.394 0.048-0.293 0.053-3.851-0.945 0.888-0.547 1.431-1.396 1.58-1.694 0.989-1.545 3.26-5.383 4.499-7.523Zm13.781 0h2.818a255.139 255.139 0 0 0 7.51 5.479c0.298 0.197 0.888 0.547 1.58 0.797-3.65 0.998-3.558 0.998-3.952 0.997-0.989 0-1.729-0.7-2.223-1.194a290.438 290.438 0 0 1-5.733-6.079Zm9.881 0h3.659l5.138 1.296c0.346 0.096 0.691 0.149 0.984 0.245-2.915 0.897-3.357 0.998-3.851 0.997-0.937 0-2.175-0.648-5.93-2.538Zm-42.143 0.048h3.659c-3.755 1.891-4.993 2.543-5.93 2.543-0.543-0.053-0.989-0.153-3.851-0.998 0.293-0.048 0.639-0.149 0.984-0.249l5.138-1.296Zm21.838 0h2.126c0.543 1.742 2.468 7.82 2.814 8.718a3.75 3.75 0 0 0 0.595 1.199c-0.053-0.053-0.149-0.101-0.201-0.153l-2.713-2.591c-0.446-0.398-0.893-0.796-1.532-0.797-0.643 0-1.138 0.398-1.536 0.797l-2.713 2.591c-0.101 0.053-0.197 0.101-0.25 0.153 0.197-0.249 0.346-0.6 0.596-1.199 0.346-0.897 2.271-7.024 2.814-8.718Zm3.111 0h2.324c1.47 2.525 2.967 5.033 4.494 7.523 0.201 0.302 0.691 1.147 1.584 1.694-3.558 0.945-3.462 0.945-3.855 0.945-1.133 0-1.532-0.993-1.829-1.79-0.346-0.897-2.171-6.779-2.718-8.372Zm3.462 0h2.569c1.628 1.746 5.037 5.378 6.371 6.775 0.197 0.201 0.643 0.648 1.287 1.046-3.164 0.796-3.164 0.849-3.659 0.849-1.282 0-1.974-0.998-2.372-1.646a419.529 419.529 0 0 1-4.196-7.024Zm8.297 0h3.361c4.101 2.044 5.829 2.989 6.967 3.339l0.591 0.149c-0.346 0.249-0.543 0.595-0.788 0.945-0.446 0.7-0.792 1.046-1.58 1.046-0.744 0-1.484-0.346-2.127-0.796a331.54 331.54 0 0 1-6.424-4.683Z"/></svg>