<svg fill="#009FDB" role="img" viewBox="0 0 25 24" xmlns="http://www.w3.org/2000/svg"><title>AT&amp;T</title><path d="M5.042 21.491a12.145 12.145 0 0 0 7.391 2.509 12.067 12.067 0 0 0 7.931-2.984c-0.949 0.61-3.66 2.034-7.931 2.035-3.729 0-6.102-0.815-7.391-1.559m8.204 0.609c2.983 0 6.237-0.814 8.136-2.44 0.542-0.407 1.016-1.017 1.491-1.763 0.272-0.475 0.542-1.017 0.745-1.491-1.83 2.645-7.05 4.339-12.474 4.339-3.797 0-7.932-1.221-9.559-3.593 1.491 3.254 6.034 4.948 11.661 4.947m-3.254-5.286C3.822 16.814 0.907 13.966 0.433 12c0 0.678 0.067 1.491 0.203 2.102 0.068 0.272 0.272 0.678 0.61 1.085 1.491 1.559 5.22 3.728 11.66 3.728 8.746 0 10.78-2.914 11.187-3.864 0.272-0.678 0.475-1.899 0.474-2.984v-0.677c-0.61 2.305-8.067 5.424-14.575 5.424m-8.474-9.966C1.179 7.525 0.772 8.745 0.636 9.355c-0.067 0.272 0 0.406 0.068 0.611 0.745 1.559 4.475 4.067 13.152 4.066 5.288 0 9.424-1.287 10.101-3.66 0.136-0.406 0.136-0.881 0-1.491-0.203-0.678-0.475-1.491-0.814-2.102 0.068 3.118-8.61 5.153-13.016 5.153-4.745 0-8.745-1.899-8.745-4.272 0.067-0.339 0.136-0.609 0.136-0.814M20.364 2.984c0.068 0.067 0.068 0.136 0.068 0.271 0 1.356-4.068 3.66-10.576 3.661-4.814 0-5.695-1.763-5.695-2.917 0-0.406 0.136-0.813 0.475-1.219-0.61 0.61-1.152 1.153-1.695 1.83-0.203 0.272-0.339 0.543-0.339 0.679 0 2.373 5.898 3.999 11.322 3.999 5.83 0 8.474-1.898 8.474-3.593 0-0.609-0.204-0.948-0.814-1.627a17.398 17.398 0 0 0-1.22-1.084m-1.763-1.288A11.86 11.86 0 0 0 12.433 0C10.127 0 8.025 0.611 6.195 1.763c-0.542 0.272-0.881 0.543-0.881 0.882 0 1.016 2.373 2.102 6.577 2.102 4.135 0 7.389-1.221 7.389-2.374 0.067-0.203-0.204-0.407-0.679-0.677"/></svg>