<svg fill="#E4202E" role="img" viewBox="0 0 30 24" xmlns="http://www.w3.org/2000/svg"><title>Atari</title><path d="M0.084 23.999s3.92-0.441 6.976-2.964c2.907-2.399 3.959-4.465 4.686-6.806 0.726-2.343 0.834-7.979 0.834-9.651V0H10.771v1.697c-0.03 2.537-0.249 7.356-1.411 10.496C6.551 19.759 0.084 20.421 0.084 20.421z m29.832 0s-3.92-0.441-6.973-2.964c-2.911-2.399-3.961-4.465-4.689-6.806-0.725-2.343-0.834-7.979-0.834-9.651V0H19.226l0.001 1.697c0.03 2.537 0.251 7.356 1.415 10.496 2.807 7.566 9.273 8.229 9.273 8.228zM13.333 0.002h3.338v23.998H13.334Z"/></svg>