<svg fill="#D6180B" role="img" viewBox="0 0 26 24" xmlns="http://www.w3.org/2000/svg"><title>Auchan</title><path d="M15.599 19.115l1.741 4.885h1.284l-1.839-5.119a8.386 8.386 0 0 1-1.186 0.233M0.356 24h5.801l1.878-5.912H2.375A113.042 113.042 0 0 0 0.356 23.999m7.644-13.311L11.35 7.891c0.548-1.484 1.121-2.971 1.717-4.238 0.297 0.675 0.579 1.35 0.874 2.07 1.293-1.062 2.142-1.639 2.185-1.667l0.017-0.013a5.966 5.966 0 0 1 1.72-0.744 118.83 118.83 0 0 0-1.561-3.299h-6.501c-0.542 1.043-2.563 5.218-4.927 10.957h2.391c0.389 0 0.584-0.144 0.735-0.269m13.6 4.644a7.854 7.854 0 0 1-3.66 3.125l1.971 5.543H25.644c-1.146-3.478-2.375-6.616-3.528-9.555-0.161 0.319-0.332 0.59-0.516 0.886M19.9 5.988c0.165 0 0.319 0.038 0.46 0.106-0.028-0.004-0.057-0.01-0.086-0.009a0.616 0.616 0 0 0-0.616 0.612 0.612 0.612 0 0 0 0.616 0.611 0.612 0.612 0 0 0 0.614-0.61c0-0.021-0.003-0.039-0.004-0.058a1.052 1.052 0 0 1 0.081 0.405c0 0.582-0.477 1.057-1.064 1.056-0.585 0.001-1.061-0.471-1.065-1.056 0-0.586 0.478-1.057 1.065-1.057z m-5.941 11.926c1.401 0 4.745-0.356 6.554-3.263 1.812-2.908 2.444-7.522 2.443-7.521l1.984-0.94c0.124-0.062 0.092-0.276-0.06-0.277H22.742c-0.335-0.522-1.496-1.633-3.205-1.633-1.014 0-1.903 0.286-2.699 0.805 0 0-1.161 0.791-2.849 2.242l-5.167 4.299c-0.398 0.332-0.885 0.548-1.558 0.548H0.763c-0.184 0-0.122 0.154-0.093 0.244 0.458 1.397 1.682 2.643 3.817 2.643l-1.525 1.571c-0.06 0.059-0.06 0.238 0.091 0.238h5.8c4.192 0 6.769-1.835 8.464-4.377 0.145-0.218 0.282-0.449 0.411-0.674 0.064 0.03 0.07 0.091 0.04 0.151-0.428 1.032-1.496 3.124-3.449 4.368-0.674 0.394-0.887 0.515-1.834 0.878-0.065 0.028-0.091 0.131-0.061 0.22l2.348 6.564h1.281l-2.152-6.087h0.059z"/></svg>