<svg fill="#0000CC" role="img" viewBox="0 0 30 24" xmlns="http://www.w3.org/2000/svg"><title>Audacity</title><path d="M15 0.001c-3.028 0-5.789 0.945-7.826 2.533-2.037 1.586-3.36 3.858-3.361 6.384v0.914C1.793 10.856 0.39 13.544 0.39 16.695c0 4.032 2.294 7.305 5.25 7.305V8.917c0-1.892 0.98-3.633 2.661-4.943C9.983 2.663 12.357 1.825 15 1.825c2.642 0 5.016 0.838 6.699 2.148 1.68 1.311 2.662 3.052 2.661 4.943v15.082c2.956 0 5.25-3.272 5.25-7.306 0-3.15-1.403-5.838-3.425-6.862v-0.913c0-2.526-1.322-4.797-3.36-6.385-2.036-1.588-4.797-2.532-7.825-2.532z m0 7.492l-1.37 10.572L12.261 8.475l-0.685 8.219-0.457-0.914-0.457-5.478-0.228 5.478-0.685 1.599-0.456-5.479-0.457 4.337-0.685-1.141v3.196l-0.685-2.569v-5.649a1.744 1.744 0 0 0-1.141-0.457v14.382c0.457 0 0.913-0.228 1.141-0.684v-4.11l0.229 0.228 0.685 2.283 0.228-2.74 0.685 3.425v-4.336l0.456 1.14 0.685 3.196v-4.336l0.457 0.455 0.685 3.881 0.685-5.251 1.509 5.917 0.088-3.634 0.457-1.368 0.457 5.706 1.369-5.706 0.456 4.793 1.142-5.022 1.142 5.479 0.228-4.11 0.684-1.369 0.229 5.251 1.142-5.022 0.685 2.282 0.229-2.055 0.455 0.913v4.11c0.229 0.457 0.685 0.684 1.142 0.684V9.617c-0.457 0-0.913 0.229-1.142 0.457v5.86l-0.455 1.217-0.229-3.881-0.457 2.967-0.457-0.913-0.228-3.196-1.141 4.338-0.229-0.913L18.653 8.704l-0.685 5.936-0.457 1.826-0.914-6.163-0.913 5.25-0.456 1.369Z"/></svg>