<svg fill="#BB0A30" role="img" viewBox="0 0 70 24" xmlns="http://www.w3.org/2000/svg"><title>Audi</title><path d="M57.682 0c-2.867 0-5.497 1.006-7.561 2.682-2.064-1.676-4.694-2.682-7.56-2.682-2.867 0-5.497 1.006-7.561 2.682-2.064-1.676-4.694-2.682-7.561-2.682-2.867 0-5.497 1.006-7.56 2.682-2.064-1.676-4.694-2.682-7.561-2.682C5.691 0 0.318 5.373 0.318 12s5.373 12 12 12c2.867 0 5.497-1.006 7.561-2.682 2.064 1.676 4.694 2.682 7.56 2.682 2.867 0 5.497-1.006 7.561-2.682 2.064 1.676 4.694 2.682 7.561 2.682 2.867 0 5.497-1.006 7.56-2.682 2.064 1.676 4.694 2.682 7.561 2.682C64.309 24 69.682 18.627 69.682 12S64.309 0 57.682 0zM50.121 17.393c-1.087-1.52-1.728-3.382-1.728-5.393 0-2.012 0.642-3.873 1.728-5.393 1.087 1.52 1.728 3.382 1.729 5.393C51.85 14.012 51.208 15.873 50.121 17.393zM35 17.393c-1.087-1.52-1.728-3.382-1.728-5.393 0-2.012 0.642-3.873 1.728-5.393 1.087 1.52 1.728 3.382 1.728 5.393C36.728 14.012 36.087 15.873 35 17.393zM19.879 17.393C18.792 15.873 18.15 14.012 18.15 12c0-2.012 0.642-3.873 1.729-5.393C20.965 8.127 21.607 9.988 21.607 12 21.607 14.012 20.965 15.873 19.879 17.393zM3.029 12c0-5.13 4.159-9.289 9.289-9.289 2.127 0 4.087 0.717 5.653 1.922C16.387 6.665 15.439 9.223 15.439 12c0 2.777 0.948 5.335 2.532 7.367-1.566 1.202-3.526 1.922-5.653 1.922C7.188 21.289 3.029 17.13 3.029 12zM21.786 19.367C23.37 17.335 24.318 14.777 24.318 12c0-2.777-0.948-5.335-2.532-7.367 1.566-1.202 3.526-1.922 5.653-1.922 2.127 0 4.087 0.717 5.653 1.922-1.587 2.035-2.532 4.59-2.531 7.367 0 2.777 0.948 5.335 2.531 7.367-1.566 1.202-3.526 1.922-5.653 1.922C25.312 21.289 23.353 20.572 21.786 19.367zM36.908 19.367c1.587-2.035 2.532-4.59 2.531-7.367 0-2.777-0.948-5.335-2.531-7.37 1.566-1.202 3.526-1.922 5.653-1.922s4.087 0.717 5.653 1.922c-1.587 2.035-2.532 4.59-2.532 7.367 0 2.777 0.948 5.335 2.532 7.367-1.566 1.202-3.526 1.922-5.653 1.922C40.434 21.289 38.474 20.572 36.908 19.367zM57.682 21.289c-2.127 0-4.087-0.717-5.653-1.922 1.584-2.035 2.532-4.59 2.532-7.367 0-2.777-0.948-5.335-2.532-7.367 1.566-1.202 3.526-1.922 5.653-1.922 5.13 0 9.289 4.159 9.289 9.289S62.812 21.289 57.682 21.289z"/></svg>