<svg fill="#F8991C" role="img" viewBox="0 0 39 24" xmlns="http://www.w3.org/2000/svg"><title>Audible</title><path d="M19.513 20.669L38.902 8.58v3.279l-19.389 12.141L0.098 11.858V8.582l19.415 12.089z m0-15.162c-4.38 0-8.222 2.204-10.425 5.61 0.179-0.179 0.283-0.283 0.462-0.41 5.455-4.534 13.318-3.508 17.596 2.202l2.842-1.818c-2.254-3.305-6.121-5.584-10.477-5.584m0 5.61a7.101 7.101 0 0 0-5.736 2.944 5.816 5.816 0 0 1 3.458-1.126c2.1 0 3.969 1.077 5.226 2.894l2.714-1.69c-1.179-1.871-3.279-3.023-5.66-3.023M6.399 6.199c7.992-6.301 19.287-4.585 25.306 3.79l0.05 0.051 2.946-1.818a18.131 18.131 0 0 0-15.188-8.222c-6.301 0-11.909 3.227-15.188 8.222 0.589-0.666 1.332-1.46 2.074-2.023"/></svg>