<svg fill="#FFA200" role="img" viewBox="0 0 35 24" xmlns="http://www.w3.org/2000/svg"><title>Audiomack</title><path d="M0.554 11.097s0.787-0.129 1.111 0.209c0.324 0.339 0.112 1.039-0.318 1.051-0.431 0.015-0.828 0.091-1.111-0.209-0.283-0.3-0.207-0.903 0.318-1.051m8.541 4.781c-0.076 0.015-0.156-0.026-0.238-0.086-0.564-0.786-0.768-3.474-1.027-3.634-0.269-0.166-1.241 1.489-3.175 1.312-0.809-0.074-1.632-0.598-2.116-0.962 0.045-0.611 0.053-2.037 1.257-1.573 0.732 0.282 1.985 1.055 3.085-0.334 1.217-1.536 1.888-1.09 2.291-0.756 0.402 0.334 0.134 2.071 0.734 1.585 0.6-0.485 3.023-3.5 3.024-3.5s1.876-1.892 2.163 0.097c0.287 1.989 1.511 4.193 1.835 4.131 0.324-0.062 4.098-7.733 4.639-8.228 0.541-0.495 2.36-0.43 2.273 0.84-0.087 1.269-0.272 9.16-0.271 9.16s-0.213 2.223 0.134 1.035c0.144-0.493 0.299-0.937 0.493-1.456 0.931-2.982 2.518-8.076 3.308-10.7 0.182-0.628 0.338-1.167 0.46-1.582l0-0.001a5.217 5.217 0 0 1 0.141-0.48c0.066-0.222 0.111-0.37 0.125-0.409 0.035-0.099 0.134-0.173 0.274-0.228 0.14-0.089 0.29-0.093 0.459-0.097 0.439-0.039 1.003 0.017 1.511 0.163 0.148 0 0.309 0.054 0.46 0.162v0s0.009 0 0.022 0.015c0.003 0 0.007 0 0.011 0.014 0.032 0.022 0.083 0.065 0.143 0.138 0.002 0 0.004 0 0.005 0.015 0.025 0.03 0.05 0.065 0.075 0.106 0.283 0.416 0.457 1.182 0.283 2.541-0.435 3.391-0.772 10.368-0.772 10.368s-0.067 0.334 0.632-1.136c0.024-0.051 0.056-0.096 0.084-0.142 0.038-0.025 0.08-0.061 0.133-0.124 0.432-0.515 1.593-0.817 2.398-0.811 0.339 0.041 0.623 0.126 0.793 0.234 0.318 0.484 0.13 2.268 0.13 2.268-0.67 0.062-1.946 0.422-2.399 0.489-0.453 0.067-1.14 3.006-2.096 2.705-0.956-0.3-3.085-1.636-3.085-1.82 0-0.16 0.167-2.112 0.211-2.616 0.003-0.035 0.006-0.067 0.009-0.099a0.221 0.221 0 0 1 0.002-0.02l-0.001 0c0.031-0.397 0.003-0.57-0.18-0.174-0.158 0.341-0.844 2.521-1.608 4.895-0.081 0.208-1.526 4.583-1.717 5.117-0.227 0.619-0.417 1.092-0.548 1.337-0.2 0.271-0.47 0.441-0.846 0.327-0.939-0.284-2.128-1.581-2.139-1.903-0.023-1.816 0.088-11.578-0.352-10.765-0.452 0.834-3.964 6.623-3.964 6.623-0.059 0.015-0.102 0.015-0.154 0.015-0.249-0.028-0.634-0.107-0.741-0.346-0.006-0.015-0.014-0.026-0.019-0.041-0.005-0.015-0.011-0.032-0.019-0.058-0.048-0.159-0.067-0.332-0.11-0.474-0.157-0.53-0.408-1.29-0.672-2.064-0.404-1.318-0.821-2.667-0.89-2.816-0.134-0.291-0.329-0.168-0.505 0-0.784 0.665-2.45 3.6-3.953 3.761"/></svg>