<svg fill="#ED2B88" role="img" viewBox="0 0 25 24" xmlns="http://www.w3.org/2000/svg"><title>Aurelia</title><path d="M16.313 4.444L14.029 5.969l-2.355-3.529 2.286-1.525zM18.171 15.044l3.905 5.852-4.651 3.104-3.905-5.852-0.681-1.021 4.651-3.104zM12.312 18.954l0.86 1.288-3.54 2.364-1.542-2.309 0.774-0.517 2.767-1.847zM20.106 12.277l0.994-0.662 1.54 2.309-2.285 1.526-0.86-1.289 1.293-0.862z m-0.611 1.884l-0.682-1.021 1.293-0.862 0.682 1.02zM4.078 12.608l-0.773 0.517L0.95 9.596l3.54-2.362 1.652 2.473-2.768 1.847 2.767-1.847 0.704 1.056zM12 5.796l0.705 1.056-4.652 3.104L7.349 8.901 3.481 3.104 8.131 0zM15.321 5.107l-1.293 0.862-0.704-1.055-1.651-2.473 2.286-1.526 2.355 3.529zM9.545 20.801l-0.681-1.021 2.767-1.847 0.681 1.021zM19.495 14.161l-0.682-1.021 1.293-0.862 0.682 1.02zM4.078 12.608l-0.704-1.054 2.767-1.847 0.704 1.056zM14.028 5.969l-0.704-1.055 1.293-0.862 0.704 1.055zM18.171 15.044l-4.651 3.104-0.681-1.021 4.651-3.104zM12 5.796l0.705 1.056-4.652 3.104L7.349 8.901zM2.759 4.953l0.878 1.316-1.316 0.878-0.878-1.316zM7.5 20.727l0.878 1.316-1.315 0.878-0.879-1.316zM4.039 22.053L0.187 16.233 20.773 2.464 24.813 8.19z"/></svg>