<svg fill="#FD4B2D" role="img" viewBox="0 0 32 24" xmlns="http://www.w3.org/2000/svg"><title>Authentik</title><path d="M18.559 8.097h-1.097V6.115h-1.611v4.782H7.804c0.444 0.675 0.702 1.282 0.702 1.504 0 0.601-1.886 3.993-4.173 3.993C1.379 16.474-0.638 13.044 0.82 10.505a3.997 3.997 0 0 1 3.513-2.096c1.358 0 2.573 1.195 3.338 2.291V4.92a4.926 4.926 0 0 1 4.922-4.92h14.151C29.459 0 31.666 2.209 31.666 4.92v14.158a4.926 4.926 0 0 1-4.922 4.921h-2.089V19.18h-9.974v4.82h-2.088a4.926 4.926 0 0 1-4.922-4.92v-4.452h15.815v-8.512h-2.076v1.166h-1.097v-1.166H18.559v1.979Zm-12.998 2.408c-0.864-0.918-2.06-0.71-2.883 0-2.748 2.681 1.747 7.249 4.31 1.889a7.043 7.043 0 0 0-1.427-1.889Z"/></svg>