<svg fill="#D52B1E" role="img" viewBox="0 0 49 24" xmlns="http://www.w3.org/2000/svg"><title>AutoZone</title><path d="M21.186 0.001c-1.406 0.018-3.394 0.472-4.371 2.33l-4.905 8.536h3.194l1.37-2.386h1.552l-1.367 2.386h3.173l4.519-7.841c0.753-1.384 0.026-2.687-2.308-2.979a6.307 6.307 0 0 0-0.857-0.046Zm12.216 1.572l-3.798 6.618c-0.345 0.635-0.313 1.342 0.192 1.981 0.36 0.464 0.737 0.699 1.42 0.699h1.796l1.245-2.169h-1.357c-0.106 0-0.221 0.016-0.263-0.083-0.024-0.06-0.04-0.123-0.013-0.18l1.915-3.327h1.612l1.326-2.319h-1.607l0.701-1.22Zm7.743 0.774c-2.342-0.002-4.513 1.892-5.528 4.76-0.749 2.123-0.434 3.903 1.864 4.027 2.322 0.123 4.541-1.326 5.783-4.839 0.751-2.121 0.215-3.828-1.892-3.94a4.318 4.318 0 0 0-0.227-0.008Zm-16.081 0.446l-3.358 5.848c-0.599 1.101 0.189 2.197 2.135 2.441 1.105 0.139 3.425 0.008 4.519-1.862l0.004-0.008 3.676-6.419h-2.939l-3.016 5.362c-0.247 0.444-0.502 0.57-0.894 0.494-0.49-0.096-0.283-0.47-0.141-0.725l2.969-5.131z m-4.8 0.102a1.4 1.4 0 0 1 0.203 0.004c0.468 0.048 0.621 0.289 0.329 0.773l-1.277 2.23h-1.559l1.4-2.447a1.077 1.077 0 0 1 0.904-0.56z m20.053 1.996a0.502 0.502 0 0 1 0.107 0.008c0.506 0.09 0.289 0.683-0.147 1.523-0.721 1.392-1.211 2.089-1.82 1.968-0.442-0.086-0.281-0.717 0.157-1.556 0.57-1.101 1.181-1.92 1.703-1.943z m-33.703 7.922L0.397 23.631h3.284l6.221-10.818z m4.057 0l-6.22 10.818h2.087l6.226-10.818z m3.139 0l-6.218 10.818h1.292l6.216-10.818Zm2.648 0l-6.215 10.818h0.758l6.218-10.818z m1.966 0.04l-1.472 2.563h4.304l-7.395 5.387-1.667 2.88h8.763l1.464-2.551H18.31l7.148-5.292 1.713-2.989z m29.54 1.151a0.623 0.623 0 0 0-0.643 0.643 0.599 0.599 0 0 0 0.313 0.556 0.643 0.643 0 0 0 0.33 0.085c0.121 0 0.231-0.026 0.329-0.083a0.586 0.586 0 0 0 0.227-0.227 0.649 0.649 0 0 0 0.082-0.329 0.653 0.653 0 0 0-0.082-0.329 0.589 0.589 0 0 0-0.227-0.233 0.667 0.667 0 0 0-0.329-0.081Zm-0.036 0.135h0.036a0.476 0.476 0 0 1 0.436 0.247 0.542 0.542 0 0 1 0.066 0.261 0.538 0.538 0 0 1-0.068 0.267 0.454 0.454 0 0 1-0.175 0.181 0.508 0.508 0 0 1-0.261 0.066 0.518 0.518 0 0 1-0.261-0.066 0.462 0.462 0 0 1-0.177-0.181 0.556 0.556 0 0 1 0-0.528 0.452 0.452 0 0 1 0.177-0.181 0.51 0.51 0 0 1 0.227-0.066z m-0.161 0.14v0.713h0.114v-0.269h0.091l0.12 0.269h0.121l-0.137-0.285c0.046-0.014 0.08-0.034 0.101-0.066a0.291 0.291 0 0 0 0.026-0.139v-0.016c0-0.08-0.016-0.135-0.053-0.164-0.034-0.028-0.1-0.042-0.194-0.043z m0.11 0.101h0.075c0.052 0 0.088 0.01 0.106 0.024 0.016 0.016 0.022 0.044 0.022 0.09v0.008c0 0.046-0.006 0.078-0.022 0.095-0.018 0.016-0.054 0.028-0.106 0.028h-0.075z m-19.149 0.803c-2.342-0.004-4.513 1.896-5.526 4.772-0.751 2.127-0.436 3.917 1.862 4.038 2.322 0.125 4.545-1.326 5.787-4.849 0.747-2.127 0.213-3.844-1.894-3.957-0.076-0.006-0.153-0.006-0.229-0.006z m15.771 0c-2.334-0.004-4.365 1.896-5.379 4.772-0.749 2.127-0.582 3.917 1.715 4.038 1.934 0.102 3.654-0.892 4.939-3.26h-2.962c-0.402 0.623-0.787 1.004-1.157 0.934-0.341-0.068-0.227-0.713 0.042-1.394h4.312c0.167-0.349 0.321-0.725 0.462-1.129 0.751-2.127 0.362-3.844-1.745-3.957-0.074-0.006-0.151-0.006-0.227-0.006z m-6.749 0.352c-0.992 0.036-1.611 0.623-1.611 0.622l0.31-0.548h-2.7l-4.648 8.074h2.971l2.788-4.86c0.197-0.345 0.462-0.739 0.86-0.655 0.356 0.074 0.462 0.402 0.345 0.619l-2.81 4.896h2.943l3.37-5.885c0.466-0.854-0.295-1.994-1.071-2.185a2.73 2.73 0 0 0-0.745-0.078Zm-9.85 2.201a0.472 0.472 0 0 1 0.103 0.004c0.508 0.088 0.295 0.685-0.141 1.529-0.723 1.396-1.217 2.095-1.824 1.974-0.442-0.088-0.277-0.717 0.161-1.561 0.568-1.105 1.179-1.926 1.701-1.948z m15.599 0c0.028 0 0.056 0 0.082 0.004 0.454 0.084 0.301 0.611-0.06 1.368h-1.364c0.462-0.815 0.93-1.37 1.342-1.372z"/></svg>