<svg fill="#186BFF" role="img" viewBox="0 0 28 24" xmlns="http://www.w3.org/2000/svg"><title>Autodesk Revit</title><path d="M27.502 24H3.867c-0.584 0-0.943-0.33-0.94-0.814 0.001 0.047 0.002-0.167 0.004-0.52 0.16-0.093 0.318-0.186 0.48-0.278l0.088-0.051 0.078-0.065 0.017-0.015 0.143-0.088 1.456-0.904h1.276c3.769 0 13.296 0 18.62 0.008 0.179 0 0.71 0 1.127-0.418 0.417-0.419 0.416-0.96 0.416-1.137-0.009-2.314-0.001-4.623 0.006-6.932 0.009-2.689 0.018-5.468 0-8.211v-0.071l0.686-0.008c0.19-0.003 0.161 0.222 0.161 0.333 0.016 6.391-0.023 12.782 0.017 19.171zM16.617 8.604c0.007-0.316 0.007-0.63 0.007-0.966-0.01-0.563-0.444-1.187-1.031-1.187-0.489 0-1.034 0.007-1.611 0.006v3.387h1.611c0.585 0 1.013-0.657 1.024-1.24zM4.871 20.14L4.833 0.032l0.008-0.029 0.029-0.003h19.48c0.574 0.261 1.061 0.63 1.163 1.305 0.026 1.184 0 2.133 0 3.211 0.001 0.026-0.002 0.041 0 0.067 0.034 5.051-0.025 10.085-0.006 15.137 0 0.321-0.081 0.428-0.416 0.427-6.74-0.009-20.219-0.008-20.22-0.007z m6.328-4.469h2.695l0.064-0.057v-3.938c0.356 0.001 0.641-0.006 0.886-0.006 0.084 0 0.392 0.084 0.505 0.322 0.405 0.852 0.779 1.723 1.266 2.532 0.656 1.088 1.917 1.355 2.778 1.354 0.594 0 0.594-0.027 0.594-0.275 0-0.476-0.007-1.052-0.007-1.546-0.453-0.044-0.826-0.183-1.045-0.609-0.407-0.793-0.833-1.576-1.259-2.379 0.279-0.081 0.245-0.064 0.34-0.103 0.967-0.402 1.282-1.07 1.365-1.924 0.056-0.566 0.066-1.287 0.028-1.57-0.126-0.937-0.425-1.636-1.166-2.174-0.87-0.632-1.888-0.739-2.905-0.773a70.205 70.205 0 0 0-4.139 0.014v11.132z m-6.366-15.639C2.333 1.468 1.601 1.971 0.749 2.451 0.526 2.573 0.498 2.88 0.498 3.111l0.022 19.634c0.647-0.402 3.705-2.205 4.351-2.605L4.833 0.032z"/></svg>