<svg fill="#3499CD" role="img" viewBox="0 0 27 24" xmlns="http://www.w3.org/2000/svg"><title>Automattic</title><path d="M16.243 7.768a1.629 1.629 0 0 1 0.471 2.287l-3.82 5.919a1.628 1.628 0 0 1-2.25 0.497 1.64 1.64 0 0 1-0.479-2.262l3.822-5.919c0.234-0.364 0.603-0.62 1.026-0.712 0.424-0.092 0.866-0.044 1.23 0.19zM13.478 24C5.572 24 0.445 18.299 0.445 12.368v-0.736C0.445 5.6 5.572 0 13.478 0 21.383 0 26.555 5.6 26.555 11.632v0.736c0 5.933-5.127 11.632-13.077 11.632z m8.848-12.305c0-4.323-3.142-8.17-8.848-8.17-5.706 0-8.798 3.853-8.798 8.17v0.541c0 4.323 3.142 8.244 8.798 8.245 5.655 0 8.848-3.921 8.848-8.245v-0.541z"/></svg>