<svg fill="#334455" role="img" viewBox="0 0 26 24" xmlns="http://www.w3.org/2000/svg"><title>AutoHotkey</title><path d="M21.891 0V0.002H2.352C1.569 0.002 0.551 0.655 0.469 1.84v17.891h0.002v2.428c0.084 1.186 1.096 1.841 1.88 1.841h1.571l0.002-0.002h19.704c1.312-0.055 1.844-1.113 1.903-1.774v-3.157h-0.002V1.776c-0.058-0.661-0.592-1.721-1.905-1.776h-1.733zM4.032 1.164h17.913c0.938 0 1.69 0.752 1.69 1.689v17.376c0 0.938-0.752 1.692-1.69 1.692H4.032a1.688 1.688 0 0 1-1.691-1.692V2.853c0-0.937 0.754-1.689 1.692-1.689z m3.462 12.962l-1.979 5.259h0.734l0.549-1.531h2.11l0.519 1.531h0.776l-1.904-5.259h-0.805z m8.803 0.008v5.26h0.709v-1.845l0.828-0.792 1.838 2.637h0.923l-2.249-3.135 2.19-2.125h-0.981l-2.549 2.549v-2.549h-0.71z m-5.381 0.028v5.26h0.712v-2.455h2.744v2.455h0.712V14.162h-0.712v2.176h-2.744V14.162h-0.712z m-3.056 0.749h0.015l0.775 2.315H7.017l0.843-2.315z"/></svg>