<svg fill="#4B4B77" role="img" viewBox="0 0 44 24" xmlns="http://www.w3.org/2000/svg"><title>avajs</title><path d="M10.003 0.502a2.9 2.9 0 0 1 1.135 1.217q0.499 1.146 1.107 2.493c0.403 0.9 0.813 1.811 1.217 2.733s0.796 1.822 1.167 2.695 0.709 1.675 1.004 2.401 0.529 1.342 0.704 1.85a4.114 4.114 0 0 1 0.262 1.004 3.016 3.016 0 0 1-0.11 0.796 1.744 1.744 0 0 1-0.393 0.715 1.976 1.976 0 0 1-0.796 0.513 3.917 3.917 0 0 1-1.326 0.192 3.607 3.607 0 0 1-1.397-0.23 2.768 2.768 0 0 1-0.895-0.583 3.963 3.963 0 0 1-0.594-0.753q-0.237-0.393-0.491-0.753a2.435 2.435 0 0 0-0.573-0.584 1.478 1.478 0 0 0-0.873-0.229H7.624a2.122 2.122 0 0 0-1.063 0.229 2.007 2.007 0 0 0-0.644 0.584 7.539 7.539 0 0 0-0.464 0.753 3.693 3.693 0 0 1-0.551 0.753 2.499 2.499 0 0 1-0.873 0.583 3.763 3.763 0 0 1-1.446 0.23 2.75 2.75 0 0 1-1.958-0.595A1.889 1.889 0 0 1 0.002 15.107a4.154 4.154 0 0 1 0.251-1.086c0.169-0.518 0.393-1.135 0.682-1.849 0.3-0.72 0.627-1.511 0.993-2.39 0.366-0.873 0.753-1.778 1.168-2.706 0.415-0.933 0.829-1.86 1.238-2.793q0.622-1.399 1.195-2.684A2.514 2.514 0 0 1 6.636 0.431a3.536 3.536 0 0 1 1.73-0.431 3.067 3.067 0 0 1 1.637 0.502Zm19.297 0.082a1.863 1.863 0 0 1 0.622 1.446 4.667 4.667 0 0 1-0.251 1.315c-0.169 0.54-0.382 1.151-0.644 1.838-0.262 0.682-0.567 1.424-0.906 2.221-0.344 0.796-0.687 1.604-1.036 2.433-0.475 1.129-0.889 2.145-1.228 3.044a17.089 17.089 0 0 1-1.048 2.292 5.194 5.194 0 0 1-1.168 1.456 2.388 2.388 0 0 1-1.56 0.514 2.774 2.774 0 0 1-1.587-0.421 3.905 3.905 0 0 1-1.146-1.265 13.13 13.13 0 0 1-1.004-2.134c-0.327-0.856-0.709-1.877-1.157-3.055q-0.499-1.334-1.025-2.613c-0.349-0.851-0.666-1.637-0.955-2.352-0.284-0.715-0.518-1.358-0.704-1.92a4.689 4.689 0 0 1-0.273-1.326 1.734 1.734 0 0 1 0.742-1.576A3.336 3.336 0 0 1 16.812 0.006a3.873 3.873 0 0 1 1.561 0.251 3.276 3.276 0 0 1 0.965 0.654 3.431 3.431 0 0 1 0.573 0.835 10.792 10.792 0 0 1 0.535 1.206c0.169 0.436 0.333 0.878 0.502 1.325s0.322 0.857 0.464 1.229a5.778 5.778 0 0 0 0.42 0.905c0.136 0.229 0.257 0.344 0.371 0.344q0.188 0 0.392-0.344a6.729 6.729 0 0 0 0.421-0.894c0.142-0.366 0.289-0.77 0.441-1.206s0.312-0.873 0.475-1.299a12.671 12.671 0 0 1 0.524-1.178 3.163 3.163 0 0 1 0.562-0.824 4.042 4.042 0 0 1 0.513-0.442A2.673 2.673 0 0 1 26.081 0.268a3.177 3.177 0 0 1 0.682-0.18 6.375 6.375 0 0 1 0.933-0.06 2.324 2.324 0 0 1 1.604 0.556Zm8.102-0.082a2.898 2.898 0 0 1 1.135 1.217q0.499 1.146 1.107 2.493c0.403 0.9 0.813 1.811 1.217 2.733s0.796 1.822 1.168 2.695 0.709 1.675 1.003 2.401 0.529 1.342 0.704 1.85A4.114 4.114 0 0 1 43.998 14.894a3.016 3.016 0 0 1-0.109 0.797 1.744 1.744 0 0 1-0.393 0.715 1.976 1.976 0 0 1-0.797 0.513 3.918 3.918 0 0 1-1.325 0.191 3.609 3.609 0 0 1-1.397-0.229 2.765 2.765 0 0 1-0.895-0.584 3.964 3.964 0 0 1-0.595-0.753q-0.237-0.393-0.491-0.753a2.432 2.432 0 0 0-0.573-0.583 1.478 1.478 0 0 0-0.872-0.229h-1.528a2.122 2.122 0 0 0-1.063 0.229 2.008 2.008 0 0 0-0.644 0.583 7.573 7.573 0 0 0-0.464 0.753 3.679 3.679 0 0 1-0.551 0.753 2.5 2.5 0 0 1-0.873 0.584 3.764 3.764 0 0 1-1.445 0.229 2.75 2.75 0 0 1-1.959-0.595 1.889 1.889 0 0 1-0.622-1.407 4.161 4.161 0 0 1 0.251-1.086c0.169-0.518 0.393-1.135 0.682-1.849 0.284-0.715 0.611-1.511 0.976-2.383s0.753-1.778 1.168-2.707c0.415-0.933 0.829-1.86 1.238-2.793q0.622-1.4 1.195-2.684a2.513 2.513 0 0 1 1.108-1.168A3.536 3.536 0 0 1 35.749 0.006a3.027 3.027 0 0 1 1.653 0.496ZM8.311 24a0.353 0.353 0 0 0 0.317-0.191c0-0.005 0.518-0.96 1.031-2.09 0.257-0.567 0.518-1.173 0.715-1.734 0.098-0.284 0.18-0.551 0.24-0.797a3.025 3.025 0 0 0 0.098-0.688 2.864 2.864 0 0 0-0.802-2.04 2.24 2.24 0 0 0-3.208 0 2.868 2.868 0 0 0-0.802 2.04 2.941 2.941 0 0 0 0.099 0.688 11.272 11.272 0 0 0 0.485 1.446c0.616 1.533 1.5 3.17 1.501 3.18A0.394 0.394 0 0 0 8.311 24Zm27.399 0a0.353 0.353 0 0 0 0.317-0.191c0-0.005 0.518-0.96 1.031-2.09 0.257-0.567 0.518-1.173 0.715-1.734 0.098-0.284 0.18-0.551 0.24-0.797a3.014 3.014 0 0 0 0.098-0.688 2.864 2.864 0 0 0-0.802-2.04 2.24 2.24 0 0 0-3.208 0 2.868 2.868 0 0 0-0.802 2.04 2.933 2.933 0 0 0 0.098 0.688 11.241 11.241 0 0 0 0.486 1.446c0.616 1.533 1.5 3.17 1.5 3.18a0.395 0.395 0 0 0 0.328 0.186Z"/></svg>