<svg fill="#FF7800" role="img" viewBox="0 0 25 24" xmlns="http://www.w3.org/2000/svg"><title>Avast</title><path d="M10.794 2.991a3.029 3.029 0 0 1 4.45 1.204l7.002 14.804a11.937 11.937 0 0 0 2.254-6.913C24.547 5.457 19.211 0.047 12.583 0 5.956-0.046 0.547 5.289 0.5 11.917a11.936 11.936 0 0 0 2.222 7.034l0.281-0.061 4.569-1.008c0.129-0.029 0.197 0.145 0.084 0.213L3.874 20.337a11.956 11.956 0 0 0 8.543 3.663c3.76 0.027 7.126-1.68 9.344-4.371L10.309 7.573a3.027 3.027 0 0 1 0.485-4.582z m2.149 13.609l-7.373 0.64a1.302 1.302 0 1 1 0.187-2.567l7.203 1.698c0.129 0.031 0.114 0.217-0.017 0.229zM9.53 10.116l8.94 7.233c0.102 0.083 0.01 0.245-0.113 0.198L7.603 13.471a1.959 1.959 0 1 1 1.927-3.355z"/></svg>