<svg fill="#FF0000" role="img" viewBox="0 0 22 24" xmlns="http://www.w3.org/2000/svg"><title>avianca</title><path d="M2.813 0s-2.326 2.052-2.51 6.367c-0.205 4.716 2.324 9.47 10.654 10.076 0.026 0.005 0.055 0.005 0.08 0.008C6.806 11.534 3.955 5.241 2.812 0z m8.224 16.451a30.654 30.654 0 0 0 2.2 2.303H4.282c0.12 0.278 0.53 0.472 1.463 0.527 5.59 0.332 6.38 4.719 14.381 4.719 0.702 0 1.14-0.042 1.582-0.125-3.16-0.972-6-2.8-8.47-5.121h2.21c0.917 0 1.325 0.076 1.58 0.191-0.392-1.218-1.631-2.168-5.992-2.494z"/></svg>