<svg fill="#E02027" role="img" viewBox="0 0 25 24" xmlns="http://www.w3.org/2000/svg"><title>Avira</title><path d="M24.5 23.415a0.586 0.586 0 0 1-0.586 0.587H1.085A0.586 0.586 0 0 1 0.5 23.415V0.587c0-0.324 0.262-0.587 0.585-0.587h22.829c0.325 0 0.586 0.263 0.586 0.587v22.828Zm-4.971-9.675l-0.04-0.044-1.323 1.256a0.925 0.925 0 0 1-1.342 1.272 1.234 1.234 0 0 1-0.118-0.122l-3.56-3.753 4.857-4.609c-3.034-2.858-7.795-2.984-10.765-0.111-2.969 2.874-3.337 7.527-0.539 10.838l5.106-4.845 3.748 3.952a2.777 2.777 0 0 0 1.995 0.74 2.681 2.681 0 0 0 1.772-0.742c0.559-0.526 0.894-1.272 0.887-2.022a2.702 2.702 0 0 0-0.678-1.81Zm-4.573-5.55l-7.65 7.259c-2.576-4.553 2.815-10.009 7.65-7.259Z"/></svg>