<svg fill="#FF9900" role="img" viewBox="0 0 24 24" xmlns="http://www.w3.org/2000/svg"><title>AWS Fargate</title><path d="M17.648 19.54v-2.28l1.412-0.565v2.28Zm-2.353-2.845l1.412 0.565v2.28l-1.412-0.564Zm-2.823 6.14v-2.281l1.411-0.565v2.28Zm-2.353-2.846l1.411 0.565v2.28l-1.411-0.564Zm-2.824-0.449v-2.28l1.412-0.565v2.28Zm-2.353-2.845l1.412 0.565v2.28l-1.412-0.564Zm1.883-1.13L7.911 16l-1.086 0.434L5.738 16ZM12.001 18.86l1.086 0.434-1.086 0.434-1.086-0.434Zm5.176-3.294l1.087 0.434-1.087 0.434L16.09 16Zm2.528-0.003l-2.353-0.941a0.476 0.476 0 0 0-0.35 0l-2.352 0.94a0.471 0.471 0 0 0-0.296 0.438v2.787l-2.178-0.871a0.476 0.476 0 0 0-0.35 0l-2.178 0.871V16a0.471 0.471 0 0 0-0.296-0.437l-2.353-0.941a0.476 0.476 0 0 0-0.35 0l-2.352 0.94A0.471 0.471 0 0 0 4.001 16v3.294a0.47 0.47 0 0 0 0.296 0.437l2.353 0.941a0.476 0.476 0 0 0 0.35 0l2.177-0.871v2.787c0 0.193 0.118 0.365 0.296 0.437l2.353 0.942a0.476 0.476 0 0 0 0.35 0l2.353-0.942a0.471 0.471 0 0 0 0.296-0.437v-2.787l2.178 0.871a0.476 0.476 0 0 0 0.35 0l2.352-0.94a0.471 0.471 0 0 0 0.296-0.438V16a0.471 0.471 0 0 0-0.296-0.437Zm4.06-5.71c0 2.75-6.06 4.235-11.764 4.235-5.703 0-11.765-1.484-11.765-4.235 0-1.313 1.457-2.47 4.101-3.256l0.269 0.902C2.491 8.128 1.177 9.03 1.177 9.853c0 1.558 4.445 3.294 10.824 3.294s10.824-1.736 10.824-3.294c0-0.823-1.314-1.725-3.429-2.354l0.269-0.902c2.644 0.787 4.1 1.943 4.1 3.256ZM12.001 0.975l4.807 1.849L12.001 4.672 7.194 2.824Zm4.979 9.304c-0.888 0.397-2.378 0.86-4.508 0.921V5.5l5.176-1.99v5.736c0 0.448-0.262 0.853-0.668 1.033ZM6.354 9.246V3.51l5.176 1.99v5.7c-2.13-0.062-3.62-0.524-4.51-0.922a1.126 1.126 0 0 1-0.666-1.032Zm0.284 1.891c1.036 0.464 2.807 1.017 5.363 1.017 2.556 0 4.327-0.553 5.361-1.016a2.068 2.068 0 0 0 1.227-1.892V2.824c0-0.195-0.12-0.37-0.301-0.44L12.17 0.031a0.475 0.475 0 0 0-0.338 0L5.714 2.384a0.471 0.471 0 0 0-0.301 0.44v6.422c0 0.82 0.481 1.562 1.225 1.891Z"/></svg>