<svg fill="#FF9900" role="img" viewBox="0 0 23 24" xmlns="http://www.w3.org/2000/svg"><title>AWS Lambda</title><path d="M4.485 0c-0.294 0.003-0.533 0.247-0.534 0.548L3.946 5.456c0 0.145 0.06 0.283 0.159 0.389a0.532 0.532 0 0 0 0.381 0.156h3.428l8.197 17.681a0.536 0.536 0 0 0 0.488 0.318h5.811c0.297 0 0.543-0.245 0.543-0.548V18.544c0-0.303-0.239-0.548-0.543-0.548h-2.013L12.239 0.315C12.147 0.124 11.956 0 11.745 0h-7.254Zm0.54 1.091h6.368l8.16 17.68a0.536 0.536 0 0 0 0.488 0.318h1.818v3.817H16.937L8.74 5.226a0.536 0.536 0 0 0-0.488-0.318H5.022Zm2.014 8.236c-0.21 0.001-0.394 0.119-0.486 0.31L0.1 23.213a0.551 0.551 0 0 0 0.031 0.528 0.533 0.533 0 0 0 0.455 0.25h6.169a0.547 0.547 0 0 0 0.497-0.309l3.38-7.166a0.54 0.54 0 0 0-0.003-0.469L7.536 9.637a0.547 0.547 0 0 0-0.494-0.31Zm0.006 1.804l2.488 5.152-3.122 6.621H1.446Z"/></svg>