<svg fill="#E7157B" role="img" viewBox="0 0 25 24" xmlns="http://www.w3.org/2000/svg"><title>AWS Organizations</title><path d="M24.506 18.717v4.803c0 0.288-0.192 0.48-0.48 0.48h-4.803c-0.288 0-0.48-0.192-0.48-0.48v-4.803c0-0.288 0.192-0.48 0.48-0.48h1.921v-1.921h-8.164v1.921h1.921c0.288 0 0.48 0.192 0.48 0.48v4.803c0 0.288-0.192 0.48-0.48 0.48H10.099c-0.288 0-0.48-0.192-0.48-0.48v-4.803c0-0.288 0.192-0.48 0.48-0.48h1.921v-1.921H3.856v1.921h1.921c0.288 0 0.48 0.192 0.48 0.48v4.803c0 0.288-0.192 0.48-0.48 0.48H0.974c-0.288 0-0.48-0.192-0.48-0.48v-4.803c0-0.288 0.192-0.48 0.48-0.48H2.895v-2.401c0-0.288 0.192-0.48 0.48-0.48h8.645v-1.441h0.96v1.441h8.645c0.288 0 0.48 0.192 0.48 0.48v2.401h1.921c0.288 0 0.48 0.192 0.48 0.48z m-13.927 4.323h3.842v-3.842h-3.842z m-9.125 0H5.296v-3.842H1.454Zm18.25 0h3.842v-3.842H19.704ZM6.737 9.641V3.542c0-0.192 0.096-0.336 0.24-0.432L12.26 0.036c0.144-0.048 0.336-0.048 0.48 0l5.283 3.074c0.144 0.096 0.24 0.24 0.24 0.432v6.099c0 0.144-0.096 0.288-0.24 0.384l-5.283 3.074q-0.096 0.048-0.24 0.048t-0.24-0.048l-5.283-3.074c-0.144-0.096-0.24-0.24-0.24-0.384Zm10.565-0.288V4.358l-4.322 2.497v4.995z m-9.604 0l4.322 2.497V6.855L7.698 4.358Zm0.48-5.811L12.5 5.991l4.322-2.449L12.5 1.045Z"/></svg>