<svg fill="#E21E29" role="img" viewBox="0 0 15 24" xmlns="http://www.w3.org/2000/svg"><title>Backblaze</title><path d="M4.811 0c0.653 1.35 1.567 4.081-1.389 7.174-1.81 1.88-3.078 3.849-2.35 6.064 0.364 1.104 1.186 2.508 2.887 2.785 0.611 0.101 1.343-0.001 1.74-0.14 2.454-0.854 2.098-3.414 1.555-5.047-0.07-0.213-0.192-0.733-0.236-0.924-0.373-1.602 0.776-2.656 1.129-3.805 0.028-0.092 0.053-0.182 0.07-0.271 0.042-0.21 0.067-0.423 0.078-0.639 0-1.826-0.988-2.63-1.775-3.599C5.679 0.564 4.811 0 4.811 0Zm6.275 6.018s-0.709 0.337-1.219 0.882c-0.445 0.482-0.864 0.879-1.295 1.86-0.028 0.14-0.052 0.286-0.074 0.437-0.233 1.642 1.147 3.145 0.719 5.19-0.112 0.535-0.355 0.712-0.781 1.636-0.51 1.107-0.383 2.588 0.359 3.53 0.672 0.849 1.879 1.232 3.053 0.949 2.107-0.504 3.065-2.282 2.896-4.285-0.132-1.58-0.815-2.754-2.754-4.961-0.961-1.093-1.607-2.409-1.562-3.406 0.137-1.207 0.658-1.832 0.658-1.832zM0.393 15.193c-0.022 0.015-0.044 0.061-0.059 0.161a0.047 0.047 0 0 1-0.006 0.019v0.01c-0.115 0.541-0.165 1.823 0.116 2.969 0.353 1.443 1.417 3.902 4.412 5.129 2.518 1.034 5.718 0.541 7.849-1.627 0.529-0.543 0.408-0.49-0.488-0.201v-0.002c-1.112 0.356-3.518 0.546-4.768-1-1.524-1.885-0.43-3.363-1.357-3.151-3.616 0.835-5.267-1.466-5.547-2.101-0.002-0.002-0.086-0.249-0.152-0.205z"/></svg>