<svg fill="#9BF0E1" role="img" viewBox="0 0 19 24" xmlns="http://www.w3.org/2000/svg"><title>Backstage</title><path d="M17.019 9.3a4.519 4.519 0 0 0 0.753-0.581 7.048 7.048 0 0 0 0.129-0.128 4.655 4.655 0 0 0 0.444-0.526 3.567 3.567 0 0 0 0.354-0.603 2.721 2.721 0 0 0 0.244-0.918c0.084-1.086-0.56-2.166-1.995-3.037L11.169 0 4.433 6.454 0.048 10.656l6.083 3.691a6.25 6.25 0 0 0 3.235 0.919c1.396 0 2.733-0.493 3.72-1.438 1.073-1.028 1.429-2.359 0.767-3.466a2.757 2.757 0 0 0-0.381-0.497 4.994 4.994 0 0 0 1.082 0.121h0.009a4.765 4.765 0 0 0 1.736-0.324 4.53 4.53 0 0 0 0.72-0.362Zm-5.632 3.35c-1.082 1.037-2.823 1.189-4.24 0.331l-4.208-2.555 3.777-3.62 4.28 2.597c1.542 0.935 1.457 2.225 0.391 3.247z m0.5-4.605l-3.957-2.402 3.608-3.459 3.885 2.358c1.453 0.88 1.642 2.072 0.591 3.081a3.399 3.399 0 0 1-4.127 0.422Zm1.673 10.642c-1.096 1.05-2.586 1.629-4.194 1.629a6.93 6.93 0 0 1-3.591-1.019L0.048 15.824v1.382l6.083 3.691a6.251 6.251 0 0 0 3.235 0.92c1.396 0 2.733-0.493 3.72-1.439 0.721-0.691 1.12-1.52 1.102-2.324v-0.1a4.888 4.888 0 0 1-0.628 0.735z m0-2.184c-1.096 1.05-2.586 1.629-4.194 1.628a6.934 6.934 0 0 1-3.591-1.018L0.048 13.64v1.382l6.083 3.692a6.251 6.251 0 0 0 3.235 0.92c1.396 0 2.733-0.493 3.72-1.439 0.721-0.691 1.12-1.52 1.102-2.325v-0.099a4.888 4.888 0 0 1-0.628 0.735z m0-2.185c-1.096 1.051-2.586 1.629-4.194 1.629a6.934 6.934 0 0 1-3.591-1.018l-5.727-3.472v1.382l6.083 3.692a6.25 6.25 0 0 0 3.235 0.919c1.396 0 2.733-0.493 3.72-1.439 0.721-0.692 1.12-1.52 1.102-2.324v-0.102a4.822 4.822 0 0 1-0.628 0.737z m4.688 1.442a5.273 5.273 0 0 1-3.372 1.448v1.499a4.57 4.57 0 0 0 2.898-1.253c0.784-0.749 1.184-1.574 1.176-2.388v-0.123a5.316 5.316 0 0 1-0.702 0.821z m-4.688 5.109c-1.096 1.051-2.586 1.629-4.194 1.629a6.93 6.93 0 0 1-3.591-1.019L0.048 18.007v1.382l6.083 3.691A6.251 6.251 0 0 0 9.366 24c1.396 0 2.733-0.493 3.72-1.439 0.721-0.691 1.12-1.52 1.102-2.324v-0.1a4.833 4.833 0 0 1-0.628 0.735zM18.363 9.099c-0.038 0.039-0.076 0.077-0.115 0.115a5.286 5.286 0 0 1-0.596 0.485 5.117 5.117 0 0 1-0.649 0.392 5.295 5.295 0 0 1-1.47 0.487 5.472 5.472 0 0 1-0.793 0.088 3.07 3.07 0 0 1 0.07 0.275 2.984 2.984 0 0 1 0.064 0.672v0.541h0.003a4.728 4.728 0 0 0 1.42-0.311 4.537 4.537 0 0 0 1.478-0.942c0.045-0.043 0.084-0.087 0.126-0.131a4.597 4.597 0 0 0 0.444-0.525 3.571 3.571 0 0 0 0.354-0.602 2.719 2.719 0 0 0 0.242-0.921c0.005-0.069 0.011-0.138 0.011-0.208v-0.113q-0.06 0.086-0.126 0.173a5.418 5.418 0 0 1-0.463 0.525z m0 4.364c-0.039 0.039-0.073 0.079-0.112 0.118a5.276 5.276 0 0 1-3.372 1.448v1.494a4.57 4.57 0 0 0 2.898-1.253 4.117 4.117 0 0 0 0.922-1.26 2.72 2.72 0 0 0 0.242-0.921c0.005-0.069 0.011-0.138 0.011-0.208v-0.123c-0.041 0.06-0.082 0.12-0.128 0.18a5.359 5.359 0 0 1-0.461 0.525z m0-2.184c-0.039 0.039-0.073 0.079-0.112 0.117a5.219 5.219 0 0 1-0.595 0.485 5.132 5.132 0 0 1-0.652 0.392 5.347 5.347 0 0 1-2.125 0.57v1.495a4.573 4.573 0 0 0 2.898-1.253c0.045-0.043 0.084-0.087 0.127-0.131a4.597 4.597 0 0 0 0.444-0.525 3.571 3.571 0 0 0 0.351-0.603 2.72 2.72 0 0 0 0.242-0.92c0.005-0.069 0.011-0.139 0.011-0.208v-0.123c-0.041 0.06-0.082 0.121-0.128 0.18a5.359 5.359 0 0 1-0.461 0.525z"/></svg>