<svg fill="#783BF9" role="img" viewBox="0 0 32 24" xmlns="http://www.w3.org/2000/svg"><title>Badoo</title><path d="M23.413 0.005c4.427 0 8.248 3.639 8.248 8.128 0 8.757-8.614 15.867-15.661 15.867S0.339 16.891 0.339 8.133c0-4.49 3.821-8.128 8.248-8.128 5.387 0 7.28 4.149 7.413 4.451a7.934 7.934 0 0 1 7.4-4.451z m1.407 8.467V8.228h-3.106v0.243c0 3.07-2.571 5.581-5.714 5.58-3.154 0-5.702-2.511-5.702-5.58V8.228H7.168v0.243c0 2.305 0.91 4.463 2.585 6.089a8.868 8.868 0 0 0 6.235 2.523 8.871 8.871 0 0 0 6.235-2.523 8.467 8.467 0 0 0 2.584-6.089Z"/></svg>