<svg fill="#2932E1" role="img" viewBox="0 0 23 24" xmlns="http://www.w3.org/2000/svg"><title>Baidu</title><path d="M8.654 0C7.21 0 6.04 1.658 6.04 3.707c0 2.051 1.171 3.71 2.615 3.71 1.446 0 2.614-1.659 2.614-3.71C11.268 1.658 10.1 0 8.654 0z m7.025 0.594C14.36 0.58 12.847 2.589 12.7 3.927c-0.187 1.745 0.25 3.487 2.179 3.735 1.933 0.25 3.175-1.806 3.422-3.364 0.252-1.555-0.995-3.364-2.362-3.674a1.218 1.218 0 0 0-0.261-0.03zM3.082 5.535a2.811 2.811 0 0 0-0.156 0.008c-2.118 0.19-2.428 3.24-2.428 3.24-0.287 1.41 0.686 4.425 3.297 3.864 2.617-0.561 2.262-3.68 2.183-4.362-0.125-1.018-1.292-2.773-2.896-2.75z m16.534 1.753c-2.308 0-2.617 2.119-2.617 3.616 0 1.43 0.121 3.425 2.988 3.362 2.867-0.063 2.553-3.238 2.553-3.988 0-0.745-0.62-2.99-2.924-2.99z m-8.264 2.478c-1.424 0.014-2.708 0.925-3.323 1.947-1.118 1.868-2.863 3.05-3.112 3.363-0.25 0.309-3.61 2.116-2.864 5.42 0.746 3.301 3.365 3.237 3.365 3.237s1.93 0.19 4.171-0.31c2.24-0.495 4.17 0.123 4.17 0.123s5.233 1.748 6.665-1.616c1.43-3.364-0.808-5.109-0.808-5.109s-2.99-2.306-4.736-4.798c-1.072-1.665-2.348-2.268-3.528-2.257z m-2.234 3.84l1.542 0.024v8.197H7.258c-1.47-0.291-2.055-1.292-2.13-1.462-0.072-0.173-0.488-0.976-0.268-2.343 0.635-2.049 2.447-2.196 2.447-2.196h1.81z m3.964 2.39v3.881c0.096 0.413 0.612 0.488 0.612 0.488h1.614v-4.343h1.689v5.782h-3.915c-1.517-0.39-1.59-1.465-1.59-1.465v-4.317z m-5.458 1.147c-0.66 0.197-0.978 0.708-1.05 0.928-0.076 0.22-0.247 0.78-0.1 1.269 0.294 1.095 1.248 1.144 1.248 1.144h1.37v-3.34z"/></svg>