<svg fill="#00A2E2" role="img" viewBox="0 0 21 24" xmlns="http://www.w3.org/2000/svg"><title>Bakal&#225;&#345;i</title><path d="M10.501 0c-0.385 0-0.77 0.102-1.11 0.307L1.263 5.193a2.147 2.147 0 0 0-1.043 1.84v9.93a2.15 2.15 0 0 0 1.043 1.843l8.126 4.886c0.683 0.41 1.537 0.41 2.22 0l8.128-4.886a2.15 2.15 0 0 0 1.043-1.842v-9.93c0-0.754-0.396-1.452-1.043-1.84L11.611 0.306A2.152 2.152 0 0 0 10.501 0Zm-0.094 3.462c0.224-0.001 0.449 0.056 0.65 0.17l6.192 3.548c0.402 0.23 0.65 0.658 0.65 1.12v1.85c0 0.468-0.253 0.898-0.66 1.127l-1.296 0.722 1.295 0.724c0.408 0.228 0.661 0.659 0.661 1.126v1.849c0 0.462-0.248 0.89-0.65 1.12l-6.192 3.549a1.29 1.29 0 0 1-1.297-0.008l-6.022-3.55a1.29 1.29 0 0 1-0.635-1.111V8.3c0-0.457 0.242-0.88 0.635-1.112l6.022-3.547c0.2-0.118 0.423-0.177 0.647-0.179z m0.018 2.782L5.683 9.037v5.924l4.742 2.793 4.894-2.803v-0.344l-1.413-0.788c-0.34-0.19-0.55-0.55-0.55-0.94V11.12c0-0.39 0.21-0.75 0.55-0.94l1.413-0.787v-0.345z"/></svg>