<svg fill="#0052CC" role="img" viewBox="0 0 21 24" xmlns="http://www.w3.org/2000/svg"><title>Bamboo</title><path d="M20.214 13.643h-4.989a0.651 0.651 0 0 0-0.655 0.555 4.114 4.114 0 0 1-4.061 3.53l1.35 6.173a10.374 10.374 0 0 0 9.007-9.545 0.651 0.651 0 0 0-0.652-0.713z m-8.632-0.158l7.199-6.171a0.645 0.645 0 0 0 0-0.984L11.582 0.16a0.648 0.648 0 0 0-1.074 0.483v12.342a0.651 0.651 0 0 0 1.073 0.5z m-11.355 1.505A10.385 10.385 0 0 0 10.512 24v-6.27a4.093 4.093 0 0 1-4.1-4.087z m-0.096-1.447v0.1h6.28a4.093 4.093 0 0 1 4.098-4.088l-1.348-6.169a10.37 10.37 0 0 0-9.03 10.157"/></svg>