<svg fill="#FF8800" role="img" viewBox="0 0 45 24" xmlns="http://www.w3.org/2000/svg"><title>B&amp;R Automation</title><path d="M44.545 20.164H0.455v3.836h44.09v-3.836Zm-16.188-2.921l-2.605-3.244 1.144-1.409-1.526-1.904-1.145 1.41-2.875-3.599 4.027 0.014V5.739H17.705v2.581l1.225 1.534c-0.132 0.066-0.988 0.45-1.269 0.641-0.812 0.496-1.424 1.264-1.725 2.168a3.77 3.77 0 0 0 1.911 4.316c1.512 0.766 3.547 0.612 5.066-0.074 0.309-0.149 0.612-0.325 0.886-0.531l0.228-0.171 0.841 1.04h3.489ZM11.806 8.306a3.876 3.876 0 0 0 2.212-3.645c0-2.831-2.05-4.661-5.495-4.661H0.455v17.25h8.357c3.878 0 5.737-2.234 5.737-4.829a4.145 4.145 0 0 0-2.735-4.115h-0.008Zm27.621 2.573s3.917-0.812 3.917-5.384c0-3.215-1.977-5.495-5.974-5.495h-8.166v17.25h3.843V10.879h1.844l5.104 6.371h4.543L39.42 10.879h0.007Zm-20.342 3.511a1.31 1.31 0 0 1-0.081-1.527c0.384-0.479 0.885-0.856 1.46-1.083l1.97 2.485c-0.391 0.257-0.797 0.478-1.225 0.671a2.113 2.113 0 0 1-1.792-0.245 1.672 1.672 0 0 1-0.325-0.308l-0.007 0.007Zm-10.723-0.015H4.291v-4.794h4.144c1.674 0 2.669 0.827 2.669 2.397 0 1.475-0.952 2.397-2.742 2.397ZM33.054 7.922V3.29h4.064c1.69 0 2.745 0.707 2.745 2.315 0 1.468-0.988 2.317-2.745 2.317h-4.064ZM4.291 2.928h3.687c1.402 0 2.234 0.737 2.234 2.051 0 1.314-0.832 2.146-2.425 2.145H4.291V2.928Z"/></svg>