<svg fill="#012169" role="img" viewBox="0 0 45 24" xmlns="http://www.w3.org/2000/svg"><title>Bank of America</title><path d="M28.391 3.829c0.898-0.301 1.931-0.566 2.83-0.832-2.597-1.099-5.858-2.263-8.787-2.997-0.467 0.135-1.863 0.5-2.83 0.8 0.998 0.299 4.294 1.064 8.787 3.029z m-16.408 12.515c1.064 0.633 2.195 1.498 3.294 2.23 7.289-5.659 14.479-10.019 22.368-12.482-1.099-0.566-2.064-1.066-3.296-1.663-4.725 1.199-12.813 4.427-22.366 11.915z m-1.398-11.915c-3.895 1.796-7.988 4.261-10.218 5.69 0.799 0.367 1.597 0.666 2.694 1.198 4.927-3.329 8.787-5.358 10.318-6.023-1.097-0.4-2.128-0.666-2.794-0.867z m14.877 0.431c-1.265-0.699-5.659-2.33-8.687-3.028-0.898 0.332-2.164 0.832-3.029 1.198 1.097 0.299 5.192 1.398 8.688 3.162 0.898-0.433 2.164-0.965 3.028-1.332z m-6.223 2.863c-1.033-0.498-2.164-0.965-3.03-1.365-2.628 1.298-6.057 3.263-10.385 6.358 0.931 0.498 1.931 1.097 2.996 1.696 3.329-2.462 6.69-4.792 10.419-6.689z m3.195 16.277c6.99-5.993 16.808-11.817 22.199-13.915a88.566 88.566 0 0 0-3.595-2.13c-6.955 2.298-15.076 7.391-22.332 13.149 1.23 0.931 2.529 1.896 3.726 2.896z m5.258-0.434h-0.199l-0.332-0.498h-0.201v0.498h-0.133v-1.099h0.498c0.101 0 0.201 0 0.268 0.067 0.1 0.035 0.133 0.135 0.132 0.234 0 0.199-0.166 0.299-0.365 0.299z m-0.533-0.632c0.166 0 0.367 0.033 0.367-0.166 0-0.133-0.133-0.166-0.265-0.166h-0.301v0.332z m-0.965 0.066c0-0.533 0.433-0.965 0.998-0.964 0.566 0 1 0.432 1 0.964a1.002 1.002 0 0 1-1 1 0.981 0.981 0 0 1-0.996-1m0.198 0c0 0.433 0.367 0.799 0.831 0.799a0.782 0.782 0 1 0 0-1.564c-0.498 0-0.83 0.367-0.83 0.765"/></svg>