<svg fill="#6078FF" role="img" viewBox="0 0 26 24" xmlns="http://www.w3.org/2000/svg"><title>Baremetrics</title><path d="M23.831 7.662l1.591 2.64a3.757 3.757 0 0 1 0 3.509l-4.827 8.268a3.571 3.571 0 0 1-3.15 1.921H8.532a3.573 3.573 0 0 1-3.15-1.921l-1.666-2.82 6.578-6.102 4.764 2.762a1.171 1.171 0 0 0 1.56-0.212z m-14.346 0.673L2.275 16.446 0.578 13.848a3.745 3.745 0 0 1 0-3.503L5.669 1.918A3.576 3.576 0 0 1 8.822 0h8.58c1.316 0 2.525 0.736 3.152 1.918l1.731 2.916-6.447 5.992-4.748-2.758a1.176 1.176 0 0 0-1.606 0.266z"/></svg>