<svg fill="#009FE3" role="img" viewBox="0 0 20 24" xmlns="http://www.w3.org/2000/svg"><title>Barmenia</title><path d="M5.046 13.427v6.395h5.709a5.41 5.41 0 0 0 2.377-0.422c1.021-0.537 1.532-1.537 1.532-2.999a2.591 2.591 0 0 0-1.492-2.571 5.834 5.834 0 0 0-2.347-0.403z m0-9.26v5.287h5.714a4.722 4.722 0 0 0 2.486-0.592c0.637-0.398 0.955-1.101 0.955-2.109 0-1.117-0.421-1.855-1.263-2.213a8.63 8.63 0 0 0-2.78-0.368z m12.761-1.611a6.19 6.19 0 0 1 1.079 3.66 5.433 5.433 0 0 1-1.089 3.531 5.617 5.617 0 0 1-1.791 1.388 5.232 5.232 0 0 1 2.716 2.113 6.474 6.474 0 0 1 0.915 3.481 7.069 7.069 0 0 1-1.05 3.854 6.467 6.467 0 0 1-4.316 3.093c-1.093 0.222-2.207 0.33-3.322 0.324H0.361V0H11.72c2.864 0.046 4.893 0.899 6.087 2.556"/></svg>