<svg fill="#1D2D35" role="img" viewBox="0 0 28 24" xmlns="http://www.w3.org/2000/svg"><title>Basecamp</title><path d="M14.748 24c-4.63 0-8.696-1.784-11.76-5.16a1.274 1.274 0 0 1-0.252-1.301c0.805-2.168 2.977-7.21 5.764-7.227h0.014c1.399 0 2.447 1.108 3.289 1.999 0.252 0.267 0.637 0.674 0.898 0.874 0.649-0.641 1.926-2.773 2.918-4.911 0.297-0.639 1.057-0.917 1.695-0.62 0.639 0.297 0.917 1.055 0.621 1.694-3.01 6.487-4.614 6.487-5.141 6.487-1.173 0-2.024-0.9-2.846-1.771-0.368-0.389-1.134-1.2-1.433-1.199h-0.001c-0.65 0.109-2.076 2.357-3.095 4.825 2.517 2.494 5.652 3.757 9.329 3.757 5.046 0 8.82-1.373 10.446-3.783-0.561-6.412-4.092-15.112-10.446-15.111-5.379 0-9.431 3.747-12.044 11.136-0.235 0.665-0.966 1.013-1.629 0.778-0.665-0.235-1.013-0.964-0.778-1.629 3.012-8.519 7.874-12.838 14.451-12.838 8.59 0 12.548 10.976 13.025 17.895a1.28 1.28 0 0 1-0.167 0.725c-1.998 3.469-6.565 5.38-12.858 5.38Z"/></svg>