<svg fill="#80247B" role="img" viewBox="0 0 29 24" xmlns="http://www.w3.org/2000/svg"><title>Basic Attention Token</title><path d="M28.553 23.658l0.073-0.146v-0.05c0-0.048 0.025-0.098 0.025-0.121v-0.05c0-0.048 0-0.121-0.024-0.171l-0.074-0.146v-0.025L15.137 0.367A0.729 0.729 0 0 0 14.5 0c-0.269 0-0.489 0.146-0.636 0.366L0.447 22.926v0.024l-0.073 0.147C0.349 23.145 0.349 23.218 0.349 23.267v0.049c0 0.048 0 0.098 0.024 0.122v0.049c0.025 0.048 0.025 0.098 0.074 0.146l0.024 0.025c0.025 0.048 0.05 0.098 0.099 0.123l0.073 0.073c0.024 0.024 0.048 0.048 0.073 0.048 0.024 0.025 0.073 0.025 0.098 0.05 0.024 0 0.048 0.024 0.073 0.023 0.073 0.025 0.123 0.025 0.196 0.025h26.811c0.073 0 0.121 0 0.194-0.024 0.025 0 0.05-0.025 0.075-0.024 0.048-0.025 0.073-0.025 0.121-0.05 0.024-0.024 0.05-0.024 0.073-0.048l0.073-0.073a0.429 0.429 0 0 0 0.098-0.123h0.025ZM14.5 11.193l4.277 6.893H10.223L14.5 11.193Zm-0.733-1.588l-5.378 8.676-5.253 3.007 10.631-17.866v6.183ZM9.099 19.577h10.778l5.255 3.007H3.844l5.255-3.007Zm11.511-1.296l-5.378-8.676V3.421l10.632 17.866-5.254-3.006Z"/></svg>