<svg fill="#31369E" role="img" viewBox="0 0 47 24" xmlns="http://www.w3.org/2000/svg"><title>bat</title><path d="M16.306 0a0.323 0.323 0 0 0-0.162 0.044L0.323 9.315a0.645 0.645 0 0 0 0 1.113c1.429 0.837 3.105 1.818 5.805 3.399l0-0.001c0.346 0.203 0.713 0.418 1.306 0.765 0.599 0.351 3.044 1.819 3.716 2.223a0.337 0.337 0 0 0 0.344 0.002l6.353-3.704a0.284 0.284 0 0 0 0.141-0.247 0.286 0.286 0 0 0-0.142-0.247c-0.806-0.466-2.533-1.464-3.182-1.844l-1.552-0.91c0.829-0.481 2.393-1.383 2.978-1.725a1.093 1.093 0 0 0 0.542-0.943V0.324a0.324 0.324 0 0 0-0.326-0.324m14.389 0a0.324 0.324 0 0 0-0.326 0.324v6.872a1.093 1.093 0 0 0 0.541 0.943c0.579 0.338 2.439 1.425 2.966 1.732l-6.196 3.635a0.482 0.482 0 0 1-0.726-0.415V4.705a0.372 0.372 0 0 0-0.179-0.318 0.372 0.372 0 0 0-0.365-0.012c-0.236 0.123-2.145 1.043-3.014 1.461-1.244-0.572-2.446-1.129-2.805-1.316-0.116-0.06-0.247-0.042-0.365 0.013-0.097 0.045-0.179 0.188-0.179 0.318v8.239c0 0.173 0.021 0.745-0.595 1.101L13.002 17.92l10.5 6.08s18.708-10.956 23.175-13.572a0.645 0.645 0 0 0 0-1.113l-5.511-3.229 0.001 0-0.42-0.246-0.003-0.002-9.887-5.793a0.323 0.323 0 0 0-0.162-0.045z"/></svg>