<svg fill="#DD282E" role="img" viewBox="0 0 106 24" xmlns="http://www.w3.org/2000/svg"><title>Bata</title><path d="M76.712 16.406c1.072-5.747 7.886-8.673 12.899-8.391 1.916 0.11 3.603 0.677 4.565 1.801 0.395-0.395 0.791-0.844 1.182-1.239 0.224-0.224 0.901-0.167 1.52-0.057 0.677 0.114 1.406 0.395 1.858 0.396 0.453 0 1.582-0.338 2.65-0.506 1.068-0.171 2.025-0.114 1.858 0.281l-0.958 2.364-3.097 7.601c-0.619 1.525 1.801 1.129 5.123-2.416 0.567 0.395 0.848 0.448 1.41 1.858-2.873 2.478-5.58 4.222-9.349 5.518-3.383 1.186-5.914-0.505-6.705-3.321-4.842 4.503-11.546 4.451-13.461-0.62-3.155 1.577-6.871 3.207-8.449 3.66-1.239 0.338-2.311 0.619-3.383 0.62-1.687 0-3.488-1.52-2.926-3.832-2.759 1.239-4.956 2.03-8.111 3.098-3.383 1.186-5.351-0.11-6.142-2.926-4.842 4.503-11.546 4.451-13.462-0.62-1.916 0.901-4.503 2.254-6.928 3.208-3.884 1.749-8.449 1.41-11.827-2.14l1.129-1.744c1.577 1.687 3.546 1.634 5.065 0.224 1.634-1.463 2.649-4.279 1.916-6.648-0.338-1.011-1.463-1.801-3.66-1.687l0.677-1.801c2.197-0.057 3.941-0.395 4.899-1.749 1.353-1.973 1.353-4.956-1.521-4.898a5.887 5.887 0 0 0-1.801 0.338c-0.51 1.463-1.353 3.207-2.087 5.008-1.63 4.174-3.436 8.787-5.518 11.775-2.478 3.55-5.184 4.227-7.324 4.112-2.249-0.171-3.998-0.844-6.476-3.04 0-0.958 0.057-1.353 0.281-2.535 0.958 1.182 3.945 2.478 4.899 1.068 2.144-3.155 4.508-9.235 6.309-13.181-1.577 0.51-3.097 1.52-5.184 2.988 0-0.224-0.672-0.791-0.673-1.468 3.383-3.884 9.292-6.252 13.295-7.095 6.138-1.296 12.671 0.562 13.686 4.45 0.677 2.592-2.364 5.009-5.237 5.352 1.634 0.958 3.379 2.645 3.831 4.731 0.22 1.011 0.167 2.14-0.171 3.208 0.958-0.448 2.14-1.011 2.873-1.349 1.186-8.282 14.024-10.927 17.517-6.986l1.186-1.239c0.22-0.224 0.896-0.167 1.52-0.057 0.672 0.114 1.406 0.395 1.859 0.396 0.448 0 1.577-0.338 2.645-0.506 1.072-0.171 2.03-0.114 1.858 0.281l-3.998 9.969c-0.901 2.254 5.747-1.749 6.138-1.972l2.873-6.081-2.926 0.053 0.505-2.478h3.269c0.562-0.729 0.672-1.577 1.406-2.083 0.958-0.734 3.155-0.338 4.169-1.01 0.901-0.567 1.577-1.41 2.364-2.764 0.677-1.125 3.269-0.844 2.759 0.224l-2.249 5.69h2.869c1.353 0.057 0.171 2.368-1.349 2.368l-2.368 0.053-2.759 7.157c-0.901 2.197 2.592 0.11 5.237-1.406z m-26.414-4.898c-0.338-1.072-1.239-1.353-2.087-1.296-1.916 0.224-3.774 2.364-4.732 3.831-1.52 2.364-1.182 5.914 1.296 5.237 2.535-0.677 5.975-6.195 5.523-7.777z m42.468 0c-0.338-1.072-1.239-1.353-2.083-1.296-1.916 0.224-3.778 2.364-4.732 3.831-1.52 2.364-1.186 5.914 1.296 5.237 2.535-0.677 5.971-6.195 5.519-7.777Z"/></svg>