<svg fill="#4381C3" role="img" viewBox="0 0 25 24" xmlns="http://www.w3.org/2000/svg"><title>Battle.net</title><path d="M19.673 8.172C16.531 6.72 12.018 5.798 7.772 6.141c0.213-1.406 0.738-2.386 1.6-2.592 1.187-0.284 2.481 0.496 3.715 1.916 0.808 0.105 1.768 0.289 2.434 0.444C13.272 1.677 10.255-0.695 7.959 0.181c-1.745 0.666-2.639 3.07-2.53 6.298-2.274 0.484-4.047 1.344-5.182 2.579-0.058 0.067-0.187 0.235-0.141 0.316 0.035 0.06 0.151-0.008 0.2-0.042 1.317-0.92 3.002-1.419 5.196-1.732 0.313 3.445 1.771 7.814 4.192 11.32-1.323 0.519-2.435 0.554-3.045-0.09-0.839-0.885-0.81-2.396-0.197-4.176a27.664 27.664 0 0 1-0.834-2.329c-2.542 4.066-3.086 7.866-1.181 9.416 1.449 1.178 3.976 0.749 6.72-0.957 1.556 1.728 3.187 2.832 4.824 3.198 0.087 0.016 0.297 0.044 0.343-0.035 0.035-0.062-0.083-0.128-0.135-0.154-1.455-0.679-2.729-1.889-4.097-3.633 2.827-1.994 5.882-5.44 7.707-9.291 1.112 0.889 1.695 1.833 1.445 2.683-0.347 1.169-1.669 1.902-3.517 2.258a28.628 28.628 0 0 1-1.6 1.887c4.79 0.165 8.352-1.261 8.742-3.684 0.296-1.846-1.339-3.82-4.189-5.344 0.719-2.211 0.86-4.176 0.358-5.776-0.03-0.083-0.11-0.279-0.203-0.279-0.07 0-0.069 0.134-0.065 0.193 0.14 1.599-0.272 3.308-1.098 5.365z m-8.82 10.2c-2.026-3.251-3.194-7.079-3.185-10.95 3.826-0.128 7.725 0.773 11.074 2.715-1.802 3.379-4.532 6.305-7.89 8.234h0.001z"/></svg>