<svg fill="#43A047" role="img" viewBox="0 0 25 24" xmlns="http://www.w3.org/2000/svg"><title>Bazel</title><path d="M12.243 24l-5.582-5.583v-5.619l5.582 5.582v5.62z m-0.105-17.91l0 0 0.18-0.18L6.407 0 0.497 5.911l0 0 5.91 5.915 5.731-5.736zM0.317 6.449v5.619l5.836 5.841v-5.618l-0.105-0.106 0 0L0.317 6.449z m17.917 5.736l-5.737-5.736-5.731 5.736 5.731 5.732 5.737-5.732z m0.105 5.979v-5.366l-5.588 5.583v5.619l5.588-5.583v-0.253zM24.683 6.449l-5.731 5.736 0 0-0.105 0.106v5.618L24.683 12.068V6.449z m-0.18-0.538l0 0L18.593 0l-5.916 5.911 5.916 5.916 5.91-5.916z"/></svg>