<svg fill="#000000" role="img" viewBox="0 0 30 24" xmlns="http://www.w3.org/2000/svg"><title>BEM</title><path d="M0.457 3.714h6.799v2H0.457Zm0-3.714h6.799v2H0.457Zm12.2 7.4H0.457v1.999h11.744c1.285 0 4.285 0.029 5.398 1.83v-1.115c-0.543-1.772-2.143-2.715-4.942-2.714Zm0.028 3.714H0.457v2h11.744c2.856 0 4.656 0.115 5.398 0.515v-0.886c-0.571-1.4-2.97-1.629-4.914-1.629Zm-0.028 9.429H0.457V18.544h11.744c1.285 0 4.285-0.029 5.398-1.829v1.115c-0.543 1.771-2.143 2.715-4.942 2.715z m0.028-3.715H0.457v-1.999h11.744c2.856 0 4.656-0.114 5.398-0.514v0.884c-0.571 1.401-2.97 1.629-4.914 1.629z m7.886 7.172H29.543v-1.229h-8.714c-0.772 0-2.601-0.028-3.257-1.086v0.686c0.315 1.057 1.285 1.629 2.999 1.629z m-0.028-2.258h8.972v-1.227H20.829c-1.744 0-2.829-0.057-3.257-0.315v0.542c0.343 0.858 1.8 1 2.971 1z"/></svg>