<svg fill="#768CFF" role="img" viewBox="0 0 27 24" xmlns="http://www.w3.org/2000/svg"><title>Bento</title><path d="M0.358 10.286c0-0.28 0.056-0.561 0.167-0.83 0.255-0.613 0.935-1.146 2.295-2.21l6.796-5.318c1.359-1.065 2.039-1.597 2.823-1.797 0.69-0.175 1.433-0.175 2.122 0 0.783 0.2 1.463 0.732 2.823 1.797l6.796 5.318c1.359 1.065 2.039 1.597 2.295 2.21 0.112 0.269 0.168 0.55 0.167 0.83v3.428c0 0.28-0.056 0.561-0.167 0.83-0.255 0.613-0.935 1.146-2.295 2.209l-6.796 5.319c-1.359 1.065-2.039 1.596-2.823 1.797-0.69 0.175-1.433 0.175-2.122 0-0.783-0.2-1.463-0.732-2.823-1.797L2.82 16.753C1.461 15.691 0.78 15.157 0.525 14.544A2.159 2.159 0 0 1 0.358 13.714v-3.428Zm10.229-3.546l0.971 0.76c0.679 0.531 1.019 0.797 1.412 0.898 0.345 0.088 0.715 0.088 1.06 0 0.392-0.101 0.732-0.367 1.413-0.898l0.97-0.76c0.679-0.532 1.019-0.798 1.147-1.105a1.068 1.068 0 0 0 0-0.83c-0.127-0.307-0.468-0.573-1.147-1.104l-0.971-0.76c-0.679-0.532-1.019-0.798-1.412-0.898a2.173 2.173 0 0 0-1.06 0c-0.392 0.1-0.732 0.366-1.413 0.898l-0.97 0.76c-0.679 0.531-1.019 0.797-1.147 1.104a1.068 1.068 0 0 0 0 0.83c0.127 0.307 0.468 0.573 1.147 1.105Zm6.472 5.065l0.972 0.76c0.679 0.532 1.02 0.798 1.413 0.898 0.344 0.088 0.715 0.088 1.06 0 0.392-0.1 0.732-0.366 1.41-0.898l0.972-0.76c0.679-0.531 1.02-0.797 1.146-1.104a1.069 1.069 0 0 0 0-0.83c-0.127-0.307-0.467-0.573-1.146-1.105l-0.972-0.76c-0.679-0.531-1.019-0.797-1.41-0.898a2.173 2.173 0 0 0-1.061 0c-0.392 0.101-0.732 0.367-1.412 0.898l-0.971 0.76c-0.68 0.532-1.02 0.798-1.146 1.105a1.068 1.068 0 0 0 0 0.83c0.127 0.307 0.467 0.573 1.146 1.104Zm-12.945 0l7.444 5.826c0.679 0.532 1.019 0.797 1.412 0.899 0.345 0.088 0.715 0.088 1.06 0 0.392-0.101 0.732-0.366 1.413-0.899l0.97-0.76c0.679-0.532 1.019-0.798 1.147-1.105a1.067 1.067 0 0 0 0-0.83c-0.127-0.307-0.468-0.573-1.147-1.104l-7.444-5.826c-0.679-0.531-1.02-0.797-1.413-0.898a2.173 2.173 0 0 0-1.06 0c-0.392 0.101-0.732 0.367-1.41 0.898l-0.972 0.76c-0.679 0.532-1.02 0.798-1.146 1.105a1.068 1.068 0 0 0 0 0.83c0.127 0.307 0.467 0.573 1.146 1.104Z"/></svg>