<svg fill="#000000" role="img" viewBox="0 0 25 24" xmlns="http://www.w3.org/2000/svg"><title>BentoML</title><path d="M16.8 11a1.1 1.1 0 1 0 0-2.2 1.1 1.1 0 0 0 0 2.2z m-4.4 0a1.1 1.1 0 1 0 0-2.2 1.1 1.1 0 0 0 0 2.2zM6.17 0a1.2 1.2 0 0 0-0.815 0.318L0.886 4.444A1.2 1.2 0 0 0 0.5 5.325V22.4A1.6 1.6 0 0 0 2.1 24h17.048a1.2 1.2 0 0 0 0.911-0.42l4.152-4.843a1.2 1.2 0 0 0 0.289-0.781V1.6A1.6 1.6 0 0 0 22.9 0ZM6.5 0.6h16.2a1.2 1.2 0 0 1 1.2 1.2v15.8a1.6 1.6 0 0 1-1.6 1.6H6.5A1.2 1.2 0 0 1 5.3 18V1.8A1.2 1.2 0 0 1 6.5 0.6Z"/></svg>