<svg fill="#F15541" role="img" viewBox="0 0 24 24" xmlns="http://www.w3.org/2000/svg"><title>BentoBox</title><path d="M7.406 3.821l2.723-2.725a3.74 3.74 0 0 1 5.29 0l0.078 0.078a3.74 3.74 0 0 1 0 5.29l-2.723 2.723-5.368-5.366Zm7.407 7.407l2.723-2.723a3.74 3.74 0 0 1 5.29 0l0.078 0.078a3.74 3.74 0 0 1 0 5.29l-2.725 2.723-5.369-5.368h0.003ZM0 11.228l2.723-2.723a3.74 3.74 0 0 1 5.29 0l0.079 0.078a3.742 3.742 0 0 1 0 5.29l-2.724 2.723L0 11.228Zm7.406 7.406l2.723-2.723a3.74 3.74 0 0 1 5.29 0l0.078 0.078a3.74 3.74 0 0 1 0 5.29L12.774 24l-5.368-5.366Z"/></svg>