<svg fill="#333333" role="img" viewBox="0 0 75 24" xmlns="http://www.w3.org/2000/svg"><title>Bentley</title><path d="M36.064 0a16.697 16.697 0 0 0-4.601 1.05c-0.405 0.154-0.831 0.417-1.278 0.244-2.02-0.472-4.11-0.296-6.152-0.077-2.653 0.278-5.311-0.009-7.964-0.139a66.525 66.525 0 0 0-7.254 0.154c-2.202 0.136-4.413-0.031-6.602-0.265-0.272-0.006-0.55-0.062-0.818-0.007-0.417 0.272-0.679 0.716-0.951 1.121v0.21c0.571 0.488 1.248 0.809 1.93 1.106-0.191 0.466-0.312 0.957-0.402 1.451 0.815 0.383 1.668 0.701 2.459 1.137-0.09 0.293-0.222 0.574-0.257 0.88-0.019 0.182 0.074 0.374 0.257 0.438 0.648 0.34 1.383 0.438 2.053 0.71 0.065 0.031 0.154 0.062 0.154 0.149 0.052 0.395 0.062 0.797 0.146 1.188a0.534 0.534 0 0 0 0.176 0.109c0.886 0.293 1.816 0.405 2.72 0.605 0.105 0.34 0.068 0.769 0.327 1.037 1.158 0.605 2.532 0.309 3.746 0.704 0.303 0.296 0.232 0.896 0.689 1.063 0.914 0.278 1.896 0.031 2.835 0.154 0.213 0.244 0.238 0.596 0.444 0.843a0.769 0.769 0 0 0 0.522 0.235c0.886 0.025 1.735-0.269 2.613-0.371 0.182 0.306 0.269 0.763 0.657 0.856 0.707 0.139 1.396-0.13 2.054-0.359 0.247 0.803 0.513 1.609 0.936 2.341 1.461 2.65 3.977 4.629 6.787 5.685 0.395 0.111 0.531 0.54 0.735 0.852 0.392-0.148 0.778-0.315 1.186-0.413l0.617 0.917c0.367-0.185 0.732-0.377 1.1-0.568 0.247 0.29 0.494 0.577 0.747 0.864l0.957-0.679c0.278 0.241 0.534 0.506 0.785 0.775h0.108c0.296-0.262 0.577-0.547 0.871-0.812 0.327 0.238 0.648 0.482 0.975 0.726 0.25-0.293 0.503-0.587 0.76-0.877 0.371 0.185 0.735 0.38 1.102 0.568 0.195-0.303 0.383-0.605 0.572-0.911 0.432 0.096 0.834 0.275 1.247 0.42 0.102-0.21 0.201-0.426 0.315-0.63 0.164-0.438 0.679-0.506 1.038-0.717 3.002-1.38 5.497-3.971 6.482-7.158 0.5 0.185 1.065 0.414 1.596 0.198 0.278-0.142 0.386-0.445 0.519-0.704 0.741 0.164 1.482 0.476 2.254 0.315 0.401-0.12 0.599-0.497 0.781-0.837 0.71 0.093 1.408 0.293 2.131 0.232 0.321-0.04 0.763 0 0.982-0.297 0.182-0.296 0.207-0.664 0.383-0.963 0.973-0.13 2.001 0.13 2.946-0.223 0.296-0.334 0.3-0.834 0.568-1.182 0.763-0.056 1.529 0 2.291-0.056a0.883 0.883 0 0 0 0.664-0.38c0.173-0.33 0.198-0.71 0.309-1.062 0.022-0.074 0.062-0.154 0.136-0.188 0.744-0.309 1.649-0.068 2.331-0.547 0.334-0.371 0.065-0.957 0.272-1.368 0.639-0.364 1.473-0.272 2.066-0.744 0.398-0.34 0.099-0.871 0.043-1.297 0.695-0.238 1.458-0.367 2.029-0.862-0.161-0.432-0.349-0.849-0.525-1.272A14.421 14.421 0 0 0 74.556 2.338v-0.269a3.631 3.631 0 0 0-0.84-1.05c-0.219-0.164-0.525-0.031-0.772-0.056-2.149 0.191-4.311 0.401-6.469 0.285-1.288-0.068-2.572-0.191-3.86-0.192-1.612 0-3.224-0.046-4.83 0.083-2.378 0.142-4.768 0.318-7.142 0.053-2.029-0.238-4.122-0.355-6.118 0.164-0.318 0.133-0.652 0.028-0.942-0.115-1.593-0.723-3.326-1.075-5.058-1.241z m1.609 0.479c1.01 0.043 2.02 0.151 3.008 0.376 0.957 0.222 1.921 0.46 2.81 0.887-0.318 0.201-0.701 0.506-1.093 0.339a15.712 15.712 0 0 0-5.299-0.895c-1.007 0.062-2.013 0.142-2.996 0.386-0.63 0.124-1.235 0.358-1.871 0.46-0.296-0.08-0.568-0.225-0.84-0.368a17.457 17.457 0 0 1 6.281-1.185z m35.41 0.858c0.525-0.031 0.951 0.389 1.22 0.803a7.133 7.133 0 0 1-3.375 0.778c-5.095 0.083-10.184 0.293-15.277 0.423 0 0.083 0.006 0.167 0.013 0.25a8.473 8.473 0 0 1-0.149-0.475c1.115-0.154 2.223-0.371 3.351-0.439 2.063-0.154 4.138-0.21 6.207-0.231a1.217 1.217 0 0 0 0.756-0.223c-1.646-0.176-3.304-0.08-4.953-0.04-1.146 0.083-2.297 0.102-3.44 0.247-1.529 0.185-3.054 0.476-4.598 0.494-0.963 0.015-1.93 0.099-2.893 0.031-1.204-0.022-2.427-0.13-3.613 0.139-0.334 0.108-0.738 0.225-0.871 0.593-0.287 0.581 0.031 1.229 0.293 1.757 0.318 0.67 0.862 1.312 0.763 2.106-0.046 0.281-0.284 0.466-0.5 0.627a7.411 7.411 0 0 1-0.612-0.775c0.124-0.247 0.327-0.479 0.272-0.778-0.102-0.618-0.55-1.106-0.97-1.538-0.605-0.587-1.278-1.133-1.689-1.884-0.12-0.216-0.204-0.525 0.028-0.701 0.679-0.482 1.516-0.645 2.322-0.778 2.208-0.309 4.434-0.046 6.649 0.046 1.09 0.108 2.189 0.093 3.282 0 2.588-0.167 5.188-0.426 7.782-0.253 1.167 0.065 2.338 0.117 3.505 0.145 2.137 0.086 4.261-0.191 6.392-0.312a0.951 0.951 0 0 1 0.105-0.012zM2.142 1.346c0.605-0.006 1.21 0.083 1.813 0.124 1.674 0.148 3.354 0.244 5.033 0.173 2.081-0.025 4.153-0.272 6.235-0.161 2.121 0.068 4.231 0.303 6.355 0.368 1.621-0.056 3.239-0.185 4.861-0.26 1.646-0.052 3.357-0.034 4.91 0.578 0.3 0.124 0.67 0.287 0.741 0.639-0.062 0.488-0.432 0.865-0.735 1.232-0.54 0.667-1.325 1.112-1.76 1.868-0.34 0.432-0.389 1.081-0.016 1.507a5.583 5.583 0 0 1-0.676 0.751c-0.256-0.235-0.494-0.525-0.463-0.902 0.117-1.068 1.072-1.831 1.182-2.903 0.096-0.374-0.096-0.738-0.333-1.01a3.567 3.567 0 0 0-1.445-0.382c-1.735-0.148-3.477 0.083-5.216-0.022-1.72 0.012-3.418-0.287-5.117-0.516a82.987 82.987 0 0 0-6.531-0.327c-0.602-0.009-1.204 0.046-1.806 0.099 0.195 0.161 0.432 0.269 0.695 0.241 2.264 0.031 4.527 0.068 6.784 0.262 0.948 0.09 1.884 0.259 2.828 0.405l-0.071 0.259c-1.655-0.102-3.317-0.086-4.974-0.154-2.98-0.108-5.96-0.201-8.94-0.251-1.269-0.083-2.597 0.052-3.811-0.413-0.34-0.114-0.658-0.272-0.979-0.42 0.235-0.287 0.472-0.615 0.834-0.741 0.201-0.031 0.401-0.043 0.602-0.044z m35.373 0.352a13.353 13.353 0 0 1 4.932 0.914c0.012 0.321-0.09 0.673 0.074 0.967a3.845 3.845 0 0 0 0.494 0.707c0.556 0.655 1.266 1.183 1.816 1.844a2.211 2.211 0 0 1 0.485 0.84 11.611 11.611 0 0 0-3.913-2.332 11.883 11.883 0 0 0-9.752 0.865c-0.537 0.303-1.025 0.679-1.5 1.074l-0.47 0.396a1.55 1.55 0 0 1 0.185-0.454c0.689-0.973 1.717-1.646 2.412-2.613 0.34-0.411 0.309-0.957 0.256-1.451a17.163 17.163 0 0 1 4.981-0.757z m17.794 1.405c0.049 0.136 0.093 0.272 0.135 0.408-0.967 0.556-2.125 0.417-3.186 0.278-0.241-0.022-0.383-0.229-0.479-0.429 1.173-0.127 2.356-0.117 3.53-0.257z m-35.667 0.05c1.192 0.019 2.381 0.077 3.564 0.197-0.093 0.157-0.167 0.383-0.377 0.408-0.627 0.108-1.266 0.127-1.896 0.151-0.488 0.031-0.936-0.191-1.359-0.398l0.071-0.358z m3.727 0.17c0.476 0.009 0.954 0.015 1.43 0.043 1.266 0.052 2.566-0.049 3.798 0.324 0.306 0.105 0.642 0.247 0.8 0.55 0.12 0.531-0.185 1.004-0.445 1.433-0.256 0.466-0.608 0.905-0.725 1.433-0.148 0.494 0.154 0.908 0.383 1.306-0.346 0.012-0.772 0.157-1.044-0.124-0.127-0.253 0.022-0.553 0.074-0.812l-0.494 0.442-0.602-0.037c-0.046-0.627 0.435-1.081 0.682-1.609-0.426 0.38-0.858 0.917-1.491 0.867-0.25 0.009-0.442-0.321-0.287-0.521 0.343-0.435 0.787-0.784 1.108-1.242-0.383 0.296-0.772 0.602-1.226 0.775a1.433 1.433 0 0 1-1.007-0.117c0.056-0.63 0.723-0.852 1.081-1.288-0.392 0.164-0.741 0.476-1.195 0.448-0.179 0.006-0.355-0.049-0.525-0.09-0.031-0.534 0.528-0.723 0.843-1.04-0.278 0.062-0.547 0.191-0.833 0.185-0.191-0.068-0.34-0.222-0.507-0.333 0.046-0.204 0.108-0.401 0.185-0.593z m28.274 0c0.056 0.241 0.269 0.55-0.015 0.732-0.309 0.386-0.828 0.068-1.205-0.007 0.346 0.296 0.88 0.516 0.877 1.06-0.296 0.052-0.618 0.154-0.911 0.03-0.272-0.111-0.534-0.25-0.799-0.376 0.083 0.083 0.17 0.164 0.259 0.241l0.269 0.234c0.176 0.157 0.349 0.321 0.494 0.507 0.049 0.21-0.102 0.432-0.328 0.429-0.72 0.182-1.282-0.392-1.803-0.784 0.275 0.374 0.602 0.698 0.917 1.034 0.157 0.167 0.142 0.417 0.198 0.627-0.259 0.034-0.537 0.136-0.791 0.025-0.395-0.161-0.695-0.479-1.019-0.751 0.281 0.494 0.71 0.942 0.667 1.55l-0.642 0.025a30.883 30.883 0 0 1-0.423-0.407c0.025 0.253 0.185 0.543 0.021 0.772-0.191 0.216-0.488 0.201-0.759 0.194-0.093 0-0.182 0-0.266 0.009 0.145-0.367 0.432-0.686 0.423-1.099-0.111-1.081-1.106-1.813-1.253-2.878-0.031-0.46 0.476-0.673 0.843-0.806 1.711-0.448 3.499-0.225 5.249-0.361zM2.599 3.329c2.378 0 4.756 0.124 7.134 0.145 2.974 0.065 5.948 0.086 8.918 0.164 0.618-0.043 1.127 0.358 1.636 0.639l-0.055 0.587a16.861 16.861 0 0 1-0.275 0.132l0.08-0.225c-2.776 0.074-5.546 0.262-8.322 0.346-1.748 0.037-3.489 0.185-5.24 0.154A11.447 11.447 0 0 1 3.192 4.913c-0.355-0.105-0.763-0.161-1.044-0.423-0.003-0.417 0.225-0.815 0.448-1.161z m69.851 0.068c0.198 0.343 0.408 0.686 0.553 1.056-1.328 0.432-2.748 0.411-4.126 0.358-2.557-0.006-5.114-0.17-7.67-0.256-2.159-0.099-4.317-0.185-6.476-0.309 0.442-0.315 0.942-0.624 1.501-0.605 5.407-0.022 10.811-0.241 16.218-0.247z m-49.633 0.661c0.238 0.015 0.42 0.229 0.599 0.37a0.426 0.426 0 0 1 0.154 0.358c-0.241 0.185-0.559 0.21-0.843 0.285-0.574 0.105-1.143 0.278-1.729 0.299-0.207-0.08-0.432-0.17-0.572-0.358-0.049-0.259 0.031-0.618 0.322-0.686 0.648-0.13 1.312-0.167 1.964-0.262a0.429 0.429 0 0 1 0.105-0.006z m29.228 0.024c0.726 0 1.451 0.093 2.161 0.226 0.337 0.065 0.327 0.463 0.414 0.722-0.278 0.154-0.547 0.401-0.896 0.331-0.503-0.077-0.997-0.204-1.497-0.297-0.269-0.068-0.577-0.09-0.797-0.278 0.015-0.334 0.358-0.547 0.618-0.704z m-14.777 0.426c2.804-0.062 5.688 0.896 7.705 2.888 1.106 1.127 1.915 2.643 1.89 4.252 0.031 1.451-0.615 2.859-1.566 3.934-1.748 1.983-4.37 3.036-6.966 3.23a11.046 11.046 0 0 1-6.701-1.587c-1.065-0.679-2.038-1.544-2.678-2.65a5.722 5.722 0 0 1-0.701-4.215c0.306-1.282 1.099-2.39 2.063-3.264 1.745-1.575 4.07-2.393 6.392-2.563 0.185-0.012 0.374-0.019 0.562-0.025z m17.417 0.072c0.673-0.015 1.343 0.077 2.016 0.108 4.447 0.272 8.9 0.432 13.347 0.691 0.287 0.043 0.611-0.012 0.874 0.133 0.176 0.256 0.222 0.571 0.268 0.874-0.933 0.571-2.094 0.432-3.134 0.46-1.312-0.086-2.625-0.247-3.934-0.374a48.29 48.29 0 0 0-1.313-0.111c-2.693-0.269-5.395-0.429-8.075-0.796a4.552 4.552 0 0 0-0.049-0.989z m-17.148 0.03c-0.358 0-0.71 0.015-1.065 0.05-2.486 0.238-5.024 1.204-6.673 3.15-0.951 1.075-1.6 2.498-1.495 3.958 0.056 2.081 1.383 3.931 3.042 5.096 2.73 1.908 6.352 2.316 9.508 1.358 1.42-0.46 2.788-1.173 3.844-2.245 1.322-1.278 2.205-3.141 1.961-5.008-0.201-1.529-1.081-2.906-2.233-3.907-1.884-1.655-4.4-2.455-6.889-2.452z m-18.266 0.541c0.182 0 0.364 0 0.55 0.006 0.457 0.13 0.769 0.516 1.109 0.821-0.083 0.238-0.154 0.479-0.223 0.723 0.222 0.176 0.46 0.334 0.711 0.463-1.597 0.259-3.181 0.596-4.768 0.902l-1.433 0.315-1.436 0.302c-0.957 0.195-1.918 0.38-2.884 0.538-1.251 0.222-2.557 0.154-3.774-0.213-0.349-0.099-0.435-0.5-0.293-0.809 0.052-0.309 0.435-0.278 0.664-0.325 3.94-0.401 7.868-0.911 11.796-1.38 0.55-0.059 1.173-0.071 1.575-0.503-2.165 0.198-4.329 0.438-6.491 0.679l-3.246 0.349c-1.081 0.111-2.165 0.216-3.248 0.309-1.217 0.124-2.477 0.006-3.613-0.473a5.095 5.095 0 0 1 0.445-1.012c4.302-0.195 8.612-0.284 12.907-0.603 0.55-0.025 1.099-0.077 1.652-0.089z m3.879 0.197a1.729 1.729 0 0 1 0.377 0.025c0.259 0.077 0.5 0.207 0.741 0.324-0.028 0.408-0.426 0.513-0.735 0.655-0.386 0.157-0.763 0.34-1.158 0.472-0.5 0.161-1.004-0.086-1.464-0.268 0.062-0.21 0.086-0.445 0.216-0.627a2.829 2.829 0 0 1 0.918-0.371c0.361-0.093 0.732-0.198 1.105-0.21z m28.558 0c0.547-0.012 1.081 0.167 1.596 0.328 0.198 0.08 0.445 0.111 0.593 0.284 0.099 0.185 0.124 0.401 0.198 0.593-0.451 0.164-0.933 0.448-1.427 0.287a21.202 21.202 0 0 1-1.951-0.837c0.056-0.38 0.423-0.556 0.756-0.636a2.217 2.217 0 0 1 0.235-0.019z m2.739 0.532c0.738-0.012 1.464 0.127 2.196 0.203 2.341 0.262 4.685 0.519 7.028 0.76 1.677 0.21 3.366 0.334 5.039 0.587 0.04 0.33 0.389 0.963-0.101 1.081a12.769 12.769 0 0 1-3.459 0.077c-3.65-0.568-7.288-1.217-10.944-1.748a13.451 13.451 0 0 0-0.074-0.948c0.105-0.006 0.21-0.012 0.315-0.012z m-16.604 0.342c0.781 0.003 1.556 0.099 2.31 0.318 0.871 0.259 1.754 0.698 2.254 1.489 0.343 0.494 0.383 1.136 0.269 1.711-0.173 0.698-0.812 1.127-1.365 1.519l0.012 0.13c0.818 0.559 1.711 1.34 1.683 2.424 0.077 0.784-0.34 1.519-0.905 2.028-0.398 0.303-0.834 0.565-1.303 0.745-1.328 0.46-2.755 0.519-4.144 0.426-1.705-0.213-3.489-0.692-4.746-1.936 0.216-0.29 0.494-0.525 0.691-0.828a71.549 71.549 0 0 0 0.019-4.987c-0.204-0.306-0.485-0.547-0.713-0.834 0.846-1.158 2.26-1.683 3.612-1.976 0.763-0.145 1.544-0.232 2.326-0.229z m12.855 0.195c0.09 0 0.179 0.003 0.266 0.025 0.522 0.201 1.025 0.445 1.525 0.694 0.111 0.074 0.278 0.111 0.328 0.254 0.012 0.247-0.105 0.519-0.349 0.608-0.355 0.148-0.781 0.241-1.143 0.074-0.59-0.259-1.127-0.624-1.68-0.948 0.052-0.13 0.077-0.293 0.167-0.401a0.309 0.309 0 0 1 0.117-0.084 1.871 1.871 0 0 1 0.769-0.222z m-26.442 0a1.714 1.714 0 0 1 0.852 0.241c0.201 0.096 0.244 0.432 0.052 0.556-0.5 0.34-1.025 0.648-1.587 0.867-0.442 0.145-0.886-0.022-1.297-0.163l-0.123-0.599c0.519-0.272 1.05-0.534 1.587-0.772a1.112 1.112 0 0 1 0.516-0.13z m13.494 0.531a7.828 7.828 0 0 0-0.871 0.046 1.924 1.924 0 0 0-1.114 0.519c-0.503 0.522-0.543 1.303-0.448 1.98a1.739 1.739 0 0 0 1.133 1.503c0.72 0.244 1.513 0.232 2.239 0.031 0.784-0.262 1.18-1.118 1.161-1.896 0.04-0.658-0.124-1.427-0.713-1.809a2.492 2.492 0 0 0-1.387-0.371z m16.326 0.262c0.834 0.019 1.668 0.161 2.489 0.306 2.572 0.463 5.145 0.929 7.714 1.415 0.648 0.133 1.306 0.244 1.946 0.426-0.086 0.386-0.133 0.988-0.624 1.062-1.584 0.201-3.174-0.154-4.694-0.578-2.514-0.679-5.055-1.278-7.566-1.976a1.343 1.343 0 0 0-0.46-0.021c0.04-0.161 0.052-0.33 0.13-0.476 0.198-0.148 0.472-0.139 0.707-0.154h0.358z m-32.075 0.17c0.086 0.352 0.161 0.707 0.3 1.041-1.958 0.602-3.913 1.204-5.88 1.766-1.044 0.3-2.069 0.689-3.15 0.834-0.976 0.086-1.976 0.04-2.927-0.204-0.389-0.105-0.494-0.525-0.503-0.877 2.748-0.596 5.487-1.232 8.245-1.781 1.303-0.262 2.591-0.627 3.915-0.779z m27.474 0.158a0.821 0.821 0 0 1 0.547 0.194c0.463 0.306 0.917 0.618 1.383 0.914a0.605 0.605 0 0 0-0.043 0.133l-0.031 0.145c-0.028 0.099-0.065 0.188-0.154 0.238-0.401 0.043-0.831 0.133-1.223-0.018a6.84 6.84 0 0 1-1.223-1.001c-0.142-0.12-0.127-0.358-0.006-0.488a0.287 0.287 0 0 1 0.154-0.083c0.188-0.009 0.395-0.04 0.596-0.031z m-23.818 0c0.157 0 0.315 0.012 0.47 0.031 0.213 0.052 0.358 0.377 0.145 0.522-0.482 0.482-0.982 1.093-1.72 1.127-0.247-0.003-0.494 0.006-0.735-0.047-0.176-0.117-0.161-0.371-0.219-0.543 0.534-0.34 1.044-0.713 1.593-1.028a1.945 1.945 0 0 1 0.463-0.062z m27.351 0.63c0.5 0.052 0.976 0.216 1.461 0.333 2.365 0.695 4.734 1.38 7.096 2.082 0.442 0.133 0.892 0.244 1.315 0.426-0.117 0.293-0.229 0.627-0.503 0.809a6.392 6.392 0 0 1-3.397-0.223c-0.834-0.318-1.627-0.72-2.446-1.068-1.482-0.633-2.958-1.294-4.462-1.884 0.318-0.145 0.602-0.374 0.936-0.475z m-4.827 0.123c0.324 0 0.587 0.259 0.822 0.457 0.222 0.222 0.516 0.405 0.654 0.695 0.046 0.262-0.17 0.491-0.243 0.726-0.321-0.062-0.723 0.062-0.982-0.204a4.848 4.848 0 0 1-0.995-1.226c-0.049-0.266 0.256-0.426 0.504-0.435l0.098 0.003a0.624 0.624 0 0 1 0.142-0.016z m-21.279 0.013a1.306 1.306 0 0 1 0.71 0.253 4.632 4.632 0 0 1-1.05 1.405c-0.229 0.278-0.618 0.232-0.926 0.139-0.195-0.145-0.266-0.401-0.383-0.605 0.38-0.392 0.741-0.809 1.201-1.109a0.988 0.988 0 0 1 0.448-0.083z m-4.095 0.37a2.619 2.619 0 0 1 0.334 0.006c0.315 0.046 0.355 0.417 0.472 0.655-0.55 0.185-1.053 0.472-1.568 0.729-1.34 0.642-2.646 1.343-3.984 1.992-0.911 0.482-1.986 0.401-2.983 0.41-0.278-0.028-0.59 0-0.834-0.16-0.161-0.207-0.229-0.469-0.309-0.717 0.757-0.383 1.593-0.556 2.378-0.874 1.408-0.531 2.853-0.957 4.274-1.451 0.735-0.207 1.454-0.553 2.223-0.587z m23.753 0.034c0.287 0.068 0.639 0.046 0.856 0.281 0.303 0.411 0.608 0.84 0.781 1.322-0.056 0.371-0.476 0.618-0.84 0.602-0.124-0.781-0.457-1.498-0.797-2.205z m-18.182 0.009a9.233 9.233 0 0 0-0.747 2.218c-0.293-0.068-0.661-0.142-0.791-0.454-0.093-0.154-0.003-0.324 0.068-0.464a6.485 6.485 0 0 1 0.695-1.068c0.219-0.167 0.516-0.167 0.775-0.232z m23.206 0.087c0.562 0.102 1.056 0.414 1.569 0.655 2.041 0.954 4.076 1.924 6.105 2.908-0.04 0.216-0.034 0.476-0.182 0.661-0.503 0.195-1.062 0.114-1.584 0.062-0.636-0.071-1.297-0.145-1.856-0.494-1.566-0.973-3.026-2.121-4.66-2.983 0.355-0.13 0.476-0.491 0.608-0.809z m-27.273 0.784c0.278 0 0.556 0.043 0.825 0.13-0.599 0.716-1.408 1.21-2.147 1.763-0.865 0.587-1.661 1.288-2.624 1.708a6.259 6.259 0 0 1-2.35 0.321c-0.346-0.043-0.497-0.364-0.513-0.679 1.813-0.988 3.665-1.899 5.478-2.881a2.563 2.563 0 0 1 1.328-0.362z m26.02 0.056a1.853 1.853 0 0 1 0.991 0.414c1.387 1.034 2.767 2.081 4.156 3.109 0.185 0.096 0.281 0.281 0.359 0.47-0.389 0.167-0.812 0.371-1.245 0.241-0.127-0.031-0.259-0.056-0.389-0.084a2.921 2.921 0 0 1-1.124-0.401c-1.319-0.834-2.387-2.007-3.724-2.817 0.284-0.253 0.371-0.648 0.636-0.904a1.232 1.232 0 0 1 0.34-0.028z m-25.186 0.543c0.352 0.55 1.031 0.361 1.569 0.51-1.173 0.843-2.057 2.013-3.218 2.872-0.704 0.522-1.8 0.723-2.514 0.114 0.349-0.54 0.896-0.896 1.381-1.306 0.926-0.729 1.831-1.492 2.782-2.19z m23.327 0.386c0.34 0.071 0.72 0.099 0.985 0.359 0.877 0.741 1.701 1.538 2.581 2.278 0.3 0.278 0.701 0.516 0.735 0.973-0.293 0.108-0.624 0.232-0.932 0.102a2.075 2.075 0 0 1-0.22-0.071c-0.5-0.195-0.911-0.565-1.309-0.917a30.303 30.303 0 0 0-2.375-2.097c0.173-0.213 0.352-0.423 0.535-0.627z m-21.826 0.544c0.315 0.083 0.621 0.201 0.935 0.281 0.04 0.309 0.062 0.618 0.081 0.926-0.537 0.54-0.948 1.254-1.671 1.575-0.482 0.185-1.01 0.25-1.522 0.185-0.176-0.037-0.3-0.176-0.427-0.293 0.858-0.902 1.668-1.853 2.604-2.674z m20.779 0.225c0.466-0.006 0.772 0.364 1.062 0.673 0.605 0.704 1.297 1.322 1.921 2.005-0.133 0.176-0.278 0.42-0.556 0.327a2.279 2.279 0 0 1-0.96-0.155c-0.642-0.309-1.065-0.905-1.612-1.337l0.145-1.513z m-9.582 0.408a4.83 4.83 0 0 0-0.788 0.043c-0.846 0.099-1.658 0.726-1.803 1.59-0.093 0.837-0.059 1.859 0.63 2.458 0.454 0.371 1.05 0.494 1.621 0.544 0.797 0.025 1.729-0.102 2.223-0.815 0.54-0.815 0.543-1.924 0.167-2.804-0.408-0.741-1.238-0.994-2.05-1.019z m-10.2 1.019c0.204 0.525 0.352 1.068 0.494 1.612-0.371-0.071-0.933-0.031-1.142-0.426-0.102-0.497 0.361-0.846 0.648-1.183z m19.606 0.463c0.269 0.238 0.63 0.559 0.525 0.957-0.207 0.361-0.673 0.364-1.035 0.402a102.213 102.213 0 0 0 0.51-1.359z m-20.659 0.991c0.287 0.238 0.602 0.485 0.985 0.544 0.247 0.074 0.534 0.056 0.757 0.194 0.482 0.59 0.908 1.232 1.507 1.714 0.923 0.855 2.032 1.448 3.072 2.137-0.179 0.741-0.658 1.349-1.047 1.989-2.841-1.09-5.308-3.304-6.438-6.161 0.389-0.13 0.778-0.269 1.161-0.417z m21.595 0.195c0.287 0.114 0.574 0.232 0.864 0.34-0.571 1.575-1.643 2.934-2.903 4.017a9.675 9.675 0 0 1-3.125 1.853c-0.247-0.432-0.513-0.858-0.728-1.309-0.062-0.154-0.161-0.364-0.031-0.51 0.303-0.303 0.701-0.482 1.068-0.692 0.766-0.457 1.47-1.01 2.119-1.624 0.432-0.414 0.704-0.963 1.102-1.408 0.34-0.133 0.735-0.074 1.071-0.229 0.216-0.111 0.383-0.284 0.563-0.438z m-23.686 0.216l0.63 0.009c0.537 1.328 1.303 2.585 2.347 3.573 0.639 0.577 1.26 1.186 2.004 1.628 0.71 0.469 1.488 0.809 2.255 1.173a4.376 4.376 0 0 1-0.275 0.618 13.927 13.927 0 0 1-2.159-1.087c-0.926-0.547-1.698-1.3-2.47-2.038-0.803-0.781-1.328-1.791-1.865-2.761-0.201-0.352-0.327-0.738-0.463-1.115z m24.788 0.179l0.679 0.062a9.801 9.801 0 0 1-2.615 4.107c-1.149 1.05-2.424 2.054-3.928 2.532-0.105-0.216-0.21-0.432-0.309-0.655 0.942-0.423 1.884-0.892 2.687-1.556 1.482-1.198 2.81-2.68 3.486-4.49z m-4.163 1.337c-0.587 0.821-1.498 1.297-2.303 1.869-0.371 0.287-0.896 0.463-1.047 0.957 0.034 0.29 0.269 0.506 0.401 0.756 0.334 0.574 0.664 1.155 0.933 1.761 0.148 0.383-0.003 0.778-0.148 1.133-0.488-0.133-1.031-0.355-1.245-0.849-0.411-0.744-0.401-1.68-0.973-2.347-0.052 0.994 0.667 1.797 0.788 2.757-0.049 0.337-0.259 0.624-0.42 0.917-0.429-0.241-0.957-0.482-1.059-1.015-0.293-0.791-0.114-1.739-0.593-2.462-0.195 0.689 0.142 1.359 0.272 2.026 0.071 0.414 0.253 0.936-0.071 1.288a8.523 8.523 0 0 1-0.328 0.411c-0.324-0.232-0.741-0.448-0.849-0.865-0.182-0.803-0.049-1.637-0.198-2.44-0.043-0.102-0.114-0.182-0.179-0.265-0.216 0.957 0.262 1.902 0.145 2.865-0.13 0.346-0.417 0.707-0.802 0.772-0.355-0.247-0.686-0.618-0.683-1.08-0.046-0.837 0.269-1.652 0.225-2.492l-0.225-0.007c-0.114 0.71-0.056 1.436-0.102 2.153a1.504 1.504 0 0 1-0.321 0.908c-0.185 0.167-0.392 0.309-0.608 0.438-0.195-0.204-0.417-0.401-0.535-0.667-0.105-0.401 0.04-0.803 0.124-1.198 0.145-0.593 0.355-1.186 0.327-1.803h-0.204c-0.256 0.8-0.25 1.646-0.475 2.451a1.445 1.445 0 0 1-0.843 0.911c-0.167 0.074-0.367-0.043-0.432-0.203-0.3-0.38-0.148-0.892-0.016-1.307 0.266-0.686 0.593-1.356 0.741-2.081l-0.204-0.083c-0.432 0.803-0.537 1.742-0.988 2.535a1.476 1.476 0 0 1-0.96 0.741c-0.139 0.046-0.247-0.068-0.309-0.176a1.192 1.192 0 0 1-0.015-1.031c0.346-0.744 0.834-1.42 1.173-2.168 0.062-0.204 0.173-0.479 0.003-0.658-0.679-0.698-1.686-0.926-2.378-1.612 0.72 0.426 1.417 0.914 2.211 1.192 2.85 1.149 6.145 1.183 9.002 0.034 1.204-0.42 2.251-1.195 3.168-2.066Z"/></svg>