<svg fill="#000000" role="img" viewBox="0 0 107 24" xmlns="http://www.w3.org/2000/svg"><title>BeReal</title><path d="M29.06 6.342c2.636 0 4.573 0.871 5.809 2.609 1.24 1.747 1.858 3.809 1.858 6.182v1.387H25.384a4.311 4.311 0 0 0 1.525 2.649c0.809 0.658 1.876 0.991 3.191 0.991 0.764 0 1.453-0.102 2.062-0.293 0.724-0.244 1.44-0.529 2.134-0.854l1.32 3.258a7.689 7.689 0 0 1-2.863 1.316c-1.12 0.28-2.044 0.413-2.755 0.413-2.916 0-5.209-0.8-6.889-2.387-1.676-1.6-2.511-3.733-2.511-6.404 0-2.68 0.756-4.827 2.266-6.445 1.52-1.618 3.582-2.422 6.196-2.422Zm39.267 0c2.636 0 4.569 0.871 5.809 2.609 1.236 1.747 1.853 3.809 1.853 6.182v1.387h-11.342c0.169 1.044 0.711 1.987 1.529 2.649 0.809 0.658 1.871 0.991 3.191 0.991 0.76 0 1.449-0.102 2.062-0.293a20.133 20.133 0 0 0 2.133-0.854l1.32 3.258a7.68 7.68 0 0 1-2.862 1.316 11.867 11.867 0 0 1-2.756 0.413c-2.916 0-5.213-0.8-6.888-2.387-1.676-1.6-2.516-3.733-2.516-6.404 0-2.68 0.756-4.827 2.276-6.445 1.511-1.618 3.578-2.422 6.191-2.422Zm17.222 0.182c4.329 0 7.124 2.231 7.124 5.6v11.463h-4.564v-2.494h-0.089c-0.956 1.711-2.738 2.756-4.938 2.756-3.36 0-5.622-2.102-5.622-5.049v-0.036c0-3.036 2.356-4.813 6.511-5.084l4.138-0.244v-1.027c0-1.489-0.964-2.404-2.747-2.405-1.702 0-2.733 0.8-2.951 1.872l-0.031 0.133h-4.173l0.017-0.178c0.249-3.093 2.902-5.307 7.325-5.307Zm21.284 12.445v4.618h-4.622v-4.618H106.833ZM8.976 0.036c2.289 0 4.151 0.507 5.586 1.511 1.431 1 2.151 2.698 2.151 5.066 0 0.88-0.204 1.671-0.609 2.374-0.4 0.711-0.933 1.316-1.577 1.822 1.067 0.556 1.938 1.307 2.622 2.249 0.68 0.947 1.022 2.147 1.022 3.6 0 2.173-0.76 3.871-2.275 5.093-1.511 1.222-3.533 1.836-6.054 1.836H0.167V0.036h8.809Zm38.675 0c2.569 0 4.764 0.591 6.591 1.768 1.827 1.178 2.742 3 2.742 5.472 0 1.453-0.378 2.707-1.128 3.76a7.618 7.618 0 0 1-2.898 2.44l5.795 10.111h-4.786l-4.996-9a16.116 16.116 0 0 1-1.631 0.066h-2.6v8.934H40.264V0.036h7.387ZM99.936 0v23.587h-4.783V0h4.783Zm-11.823 16.271l-3.453 0.218c-1.764 0.111-2.689 0.853-2.689 2.044v0.031c0 1.231 1.018 1.964 2.596 1.965 2.044 0 3.542-1.307 3.542-3.058l0.004-1.2ZM9.811 13.267H4.642v6.617h4.854c1.2 0 2.169-0.28 2.897-0.835a2.764 2.764 0 0 0 1.094-2.356c0-1.111-0.338-1.956-1.005-2.542-0.671-0.587-1.564-0.884-2.671-0.884Zm19.147-3.085a3.333 3.333 0 0 0-2.325 0.845c-0.622 0.569-1.031 1.4-1.213 2.48h7.04c-0.231-1.124-0.649-1.964-1.249-2.507a3.244 3.244 0 0 0-2.253-0.818Zm39.262 0a3.333 3.333 0 0 0-2.324 0.845c-0.622 0.569-1.027 1.4-1.214 2.48h7.045c-0.236-1.124-0.649-1.964-1.249-2.507a3.244 3.244 0 0 0-2.258-0.818Zm-20.707-6.404h-2.773v7.2h2.844c1.338 0 2.449-0.267 3.329-0.809 0.88-0.542 1.316-1.44 1.316-2.685 0-1.32-0.413-2.267-1.245-2.84-0.836-0.578-1.991-0.867-3.471-0.866Zm-39.195 0h-3.676v5.849h3.329c1.249 0 2.222-0.236 2.933-0.711 0.702-0.467 1.058-1.213 1.058-2.227 0-1.111-0.324-1.876-0.973-2.289-0.649-0.413-1.538-0.622-2.671-0.622Z"/></svg>