<svg fill="#000000" role="img" viewBox="0 0 31 24" xmlns="http://www.w3.org/2000/svg"><title>Better Stack</title><path d="M1.352 10.421l-0.965 8.37a2.642 2.642 0 0 0 0.877 2.285l2.392 2.109c0.819 0.722 2.091 0.018 1.914-1.06L3.653 10.367c-0.217-1.331-2.146-1.286-2.301 0.054Zm15.601 10.987L11.251 4.978c-0.633-1.825-3.289-1.746-3.808 0.113l-1.735 6.208c-0.197 0.705-0.272 1.112 0 1.792h0.659l2.395 7.653c0.371 0.923 1.137 1.64 2.094 1.959l3.571 1.19c1.566 0.522 3.06-0.947 2.526-2.484z m13.403-1.302L20.28 1.211c-0.879-1.648-3.25-1.605-4.069 0.074l-2.478 4.988c-0.299 0.614-0.161 0.833 0.088 1.189 0.2 0.286 0.663 0.309 0.852 0.015 0.185-0.288 0.615-0.262 0.764 0.048l6.478 13.475a3.449 3.449 0 0 0 2.701 2.019l3.427 0.438c1.844 0.243 3.19-1.707 2.313-3.351z"/></svg>