<svg fill="#232326" role="img" viewBox="0 0 33 24" xmlns="http://www.w3.org/2000/svg"><title>Bevy</title><path d="M25.725 4.228a4.272 4.272 0 0 0-1.038 0.11c-0.024 0.005-0.045 0.014-0.068 0.018-0.393 0.391-0.836 0.781-1.306 1.165 0.156 0.727 0.418 1.428 0.776 2.081 0.692 1.239 1.262 1.902 1.594 2.762 0.335 0.859 0.393 1.872 0.081 3.713-0.384 2.286-1.773 4.706-3.979 6.491 1.712-0.499 3.17-1.42 4.137-2.536 1.043-1.203 1.39-1.886 1.512-2.571 0.122-0.686 0.008-1.439 0.054-2.717 0.033-0.742 0.178-1.476 0.432-2.175l0.054-0.152 0.159-0.02c1.427-0.186 2.717-0.551 3.383-0.98-0.214-0.963-1.123-1.709-2.329-2.279l-0.114-0.054-0.029-0.122c-0.383-1.64-1.663-2.698-3.32-2.734Zm0.827 2.027c0.087 0 0.171 0.014 0.251 0.038a0.844 0.844 0 0 1 0.538 1.066 0.844 0.844 0 0 1-1.056 0.559 0.844 0.844 0 0 1-0.537-1.067 0.851 0.851 0 0 1 0.806-0.596z m-7.719-6.254c-1.036-0.008-2.099 0.407-3.011 1.292-1.199 1.164-1.571 2.211-1.361 3.519l0.057 0.359-0.357-0.058c-2.634-0.427-5.894-0.212-9.601 1.289 1.091 0.467 3.09 1.247 5.311 2.311l0.705 0.339-0.767 0.156C6.878 9.803 3.398 11.519 0.221 15.266c1.422-0.111 4.326-0.453 7.357-0.448 1.684 0.003 3.344 0.119 4.696 0.469 1.351 0.35 2.582 1.153 2.754 1.741 0.174 0.587 0.075 0.898-0.095 1.356-0.171 0.461-0.695 1.159-1.421 1.62-0.724 0.463-1.646 0.865-2.605 1.208-1.913 0.685-3.948 1.123-4.847 1.207-0.19 0.018-0.267 0.085-0.339 0.22a1.319 1.319 0 0 0-0.122 0.564c-0.008 0.292 0.038 0.446 0.122 0.562 0.081 0.117 0.212 0.163 0.344 0.172 5.65 0.381 9.873-1.039 12.942-2.256 3.527-1.618 5.757-4.813 6.242-7.689 0.304-1.803 0.239-2.686-0.055-3.438-0.293-0.753-0.853-1.42-1.564-2.697a8.343 8.343 0 0 1-0.871-2.374l-0.032-0.157 0.125-0.1c1.308-1.047 2.374-2.191 2.759-3.026-0.794-0.844-2.162-1.022-3.698-0.857l-0.125 0.014-0.089-0.091c-0.817-0.833-1.831-1.26-2.867-1.266Zm0.458 1.946a0.973 0.973 0 0 1 0.955 0.75 0.966 0.966 0 0 1-0.702 1.173 0.967 0.967 0 0 1-1.161-0.723 0.967 0.967 0 0 1 0.908-1.2Zm9.058 9.047h-0.009c-0.19 0.571-0.3 1.167-0.327 1.767-0.046 1.236 0.079 1.987-0.063 2.79-0.142 0.8-0.562 1.587-1.634 2.821-1.271 1.472-3.288 2.61-5.62 2.994a12.084 12.084 0 0 1-1.373 0.758c1.814 0.682 3.712 0.72 5.215 0.226 2.649-0.868 2.445-1.494 3.631-3.313 0.374-0.572 0.806-1.011 1.239-1.37 1.236 0.54 2.453 0.884 3.21 0.8 0.408-0.946-0.008-2.042-0.702-3.079 0.568-1.768-0.296-3.535-2.208-4.162a4.128 4.128 0 0 0-1.359-0.232zM30.337 13.832c0.263 0.298 0.229 0.76-0.077 1.028a0.73 0.73 0 0 1-1.03-0.057 0.73 0.73 0 0 1 0.075-1.03 0.76 0.76 0 0 1 0.496-0.184 0.709 0.709 0 0 1 0.536 0.243z"/></svg>