<svg fill="#A5CD39" role="img" viewBox="0 0 25 24" xmlns="http://www.w3.org/2000/svg"><title>bigbasket</title><path d="M12.042 12.992a3.361 3.361 0 0 0-0.874-1.379 2.257 2.257 0 0 0-1.478-0.504 2.282 2.282 0 0 0-1.545 0.538 2.961 2.961 0 0 0-0.976 1.378 5.625 5.625 0 0 0-0.336 1.851 5.435 5.435 0 0 0 0.336 1.814c0.193 0.55 0.529 1.037 0.976 1.411 0.442 0.34 0.988 0.517 1.545 0.504a2.086 2.086 0 0 0 1.951-1.075h-0.002a4.934 4.934 0 0 0 0.671-2.656 6.495 6.495 0 0 0-0.268-1.882zM20.904 0H4.063A3.594 3.594 0 0 0 0.466 3.562V20.404a3.6 3.6 0 0 0 3.597 3.596h16.841c1.992 0 3.611-1.604 3.63-3.596V3.562A3.624 3.624 0 0 0 20.904 0zM11.136 3.009h1.917v5.76a3.48 3.48 0 0 0-1.917-0.585v-5.175z m-0.439 17.981a5.602 5.602 0 0 1-2.284-0.37 3.532 3.532 0 0 1-1.178-0.807 4.192 4.192 0 0 1-0.336-0.537l-0.033-0.135v0.303C6.765 21.292 3.876 20.957 3.876 20.957V3.009h3.159v7.463h0.034a3.685 3.685 0 0 1 1.545-1.312 4.839 4.839 0 0 1 2.085-0.437 4.209 4.209 0 0 1 2.656 0.874 5.278 5.278 0 0 1 1.68 2.284v-0.001c0.373 0.954 0.567 1.968 0.571 2.993a8.442 8.442 0 0 1-0.573 2.992 5.485 5.485 0 0 1-1.68 2.284 4.173 4.173 0 0 1-2.656 0.841z m9.855-3.12a5.485 5.485 0 0 1-1.679 2.284 4.185 4.185 0 0 1-2.657 0.841 5.603 5.603 0 0 1-2.284-0.371 4.864 4.864 0 0 1-0.363-0.187c0.445-0.361 0.839-0.78 1.171-1.248 0.354 0.127 0.728 0.19 1.104 0.185 2.387 0 3.159-2.509 3.159-4.496 0-1.965-0.723-4.536-3.159-4.536a3.067 3.067 0 0 0-1.024 0.163 6.367 6.367 0 0 0-1.019-1.169c0.107-0.063 0.219-0.121 0.332-0.176a4.733 4.733 0 0 1 6.42 2.722l-0.001 0.004c0.374 0.954 0.568 1.968 0.573 2.993a8.433 8.433 0 0 1-0.573 2.991z"/></svg>