<svg fill="#121118" role="img" viewBox="0 0 25 24" xmlns="http://www.w3.org/2000/svg"><title>BigCommerce</title><path d="M13.145 13.664h3.027c0.861 0 1.406-0.474 1.406-1.235 0-0.717-0.545-1.234-1.406-1.234h-3.027c-0.1 0-0.187 0.086-0.187 0.172v2.125c0.015 0.1 0.086 0.172 0.187 0.172z m0 4.896h3.128c0.961 0 1.535-0.488 1.535-1.35 0-0.746-0.545-1.35-1.535-1.35h-3.128c-0.1 0-0.187 0.087-0.187 0.173v2.34c0.015 0.115 0.086 0.187 0.187 0.187zM24.22 0.053l-8.953 8.93h1.464c2.281 0 3.63 1.435 3.63 3.001 0 1.235-0.832 2.14-1.722 2.541-0.143 0.058-0.143 0.259 0.014 0.316 1.033 0.402 1.765 1.48 1.765 2.742 0 1.78-1.19 3.202-3.5 3.202h-6.342c-0.1 0-0.187-0.086-0.187-0.172V13.851L0.562 23.641c-0.13 0.13-0.043 0.359 0.143 0.359h23.631a0.16 0.16 0 0 0 0.158-0.158V0.182c0.043-0.158-0.158-0.244-0.273-0.13z"/></svg>