<svg fill="#000000" role="img" viewBox="0 0 116 24" xmlns="http://www.w3.org/2000/svg"><title>Billboard</title><path d="M18.099 7.313h5.402v16.428H18.099Zm6.519-6.424h5.401v22.852H24.618Zm6.519 0H36.537v22.852H31.137Zm63.53 8.118v-1.694h-5.401v16.428h5.401v-7.829c0-2.014 1.053-3.101 2.972-3.101h0.639v-5.658c-1.63 0.064-2.813 0.575-3.611 1.854zM20.8 0c-1.729 0-3.132 1.403-3.132 3.132 0 1.73 1.403 3.133 3.131 3.133 1.73 0 3.132-1.403 3.133-3.133 0-1.73-1.402-3.132-3.132-3.132z m61.945 8.564c-0.759-0.828-2.526-1.512-3.866-1.512-4.079 0-7.006 2.689-7.722 6.687-0.781-3.835-4.124-6.786-8.2-6.786-4.115 0-7.485 2.985-8.222 6.893-0.715-4.061-3.909-6.753-7.871-6.753-1.47 0-2.685 0.32-3.74 1.054v-7.255H37.724v22.852h5.305v-1.503c1.278 1.183 2.652 1.726 4.347 1.726 3.648 0 6.72-2.856 7.378-6.793 0.774 3.852 4.097 6.781 8.203 6.781 4.071 0 7.336-2.866 8.167-6.62 0.687 4.1 3.936 6.665 7.818 6.665 1.341 0 2.813-0.449 3.803-1.183v0.927h5.401v-7.19a42.904 42.904 0 0 0-0.008-0.863 42.112 42.112 0 0 0 0.008-0.863v-7.487H82.746z m-36.456 10.175c-1.73 0-3.132-1.403-3.131-3.133 0-1.729 1.402-3.132 3.131-3.132 1.729 0 3.132 1.402 3.132 3.132 0 1.73-1.402 3.133-3.132 3.133z m16.668-0.251c-1.729 0-3.132-1.404-3.133-3.133 0-1.729 1.404-3.132 3.133-3.132 1.729 0 3.132 1.403 3.132 3.132 0 1.729-1.402 3.133-3.132 3.133z m16.229 0.099c-1.73 0-3.131-1.404-3.13-3.133 0-1.729 1.401-3.132 3.13-3.131 1.731 0 3.132 1.403 3.132 3.131 0 1.729-1.401 3.133-3.132 3.133z m31.077-17.7v7.255c-1.053-0.735-2.268-1.054-3.739-1.054-4.506 0-8.021 3.483-8.021 8.502 0 4.729 3.388 8.373 7.511 8.373 1.693 0 3.067-0.544 4.346-1.726v1.502H115.666V0.887Zm-3.181 17.811c-1.727 0-3.131-1.404-3.13-3.131 0-1.73 1.403-3.133 3.13-3.134 1.73 0 3.133 1.403 3.133 3.134 0 1.728-1.403 3.132-3.133 3.131z m-97.608-11.605c-1.47 0-2.685 0.32-3.74 1.054V0.892H0.334v22.852h5.305v-1.503c1.278 1.183 2.653 1.726 4.347 1.726 4.122 0 7.51-3.645 7.51-8.374 0-5.017-3.516-8.5-8.021-8.5z m-0.575 11.646c-1.729 0-3.132-1.403-3.131-3.133 0-1.729 1.403-3.132 3.131-3.132 1.73 0 3.132 1.402 3.132 3.132 0 1.73-1.402 3.133-3.131 3.133z"/></svg>