<svg fill="#EB1928" role="img" viewBox="0 0 51 24" xmlns="http://www.w3.org/2000/svg"><title>BIM</title><path d="M7.235 0c-3.87 0-7.005 3.139-7.005 7.009v9.986c0 3.869 3.135 7.005 7.005 7.005h36.53c3.87 0 7.005-3.135 7.005-7.005V7.009c0-3.869-3.135-7.009-7.005-7.009H26.243L23.52 3.981 20.838 0Zm3.315 4.611c1.714-0.018 3.306 0.147 4.233 0.51 1.68 0.635 2.641 2.022 2.723 3.805 0.062 1.289-0.624 2.448-1.666 3.327 1.181 0.697 2.06 1.741 2.032 3.241-0.054 2.652-2.541 4.294-7.025 4.191-2.416-0.057-3.59-0.06-4.99-0.366V4.923c2.442-0.329 2.712-0.295 4.693-0.312Zm20.053 0.234h4.191l2.702 6.791 2.682-6.791h4.319l1.16 14.462h-4.15l-0.305-8.239-3.73 8.21-3.468-8.181-0.719 8.21h-4.245Zm-9.42 0.05h4.401v14.461h-4.401Zm-11.023 3.01v3.061h1.702a1.528 1.528 0 0 0 1.53-1.53c0-0.844-0.624-1.53-1.53-1.531z m0 5.87v2.521h1.641c0.864 0.049 2.017-0.315 2.028-1.234-0.052-1.037-1.104-1.341-1.967-1.287z"/></svg>