<svg fill="#000000" role="img" viewBox="0 0 26 24" xmlns="http://www.w3.org/2000/svg"><title>Bio Link</title><path d="M4.368 4.103V2.085c0-0.283-0.153-0.424-0.458-0.423H2.52V4.527h1.39c0.305 0 0.458-0.141 0.458-0.424z m0 4.595V6.595c0-0.147-0.034-0.249-0.102-0.305-0.068-0.068-0.187-0.102-0.356-0.102H2.52V9.122h1.39c0.305 0 0.458-0.141 0.458-0.424zM0.129 0h4.476c1.436 0 2.153 0.622 2.154 1.865v1.899c0 0.836-0.254 1.362-0.763 1.577 0.509 0.192 0.763 0.678 0.763 1.458v2.102c0 1.255-0.718 1.882-2.154 1.882H0.129Zm8.115 0h2.407v10.783H8.244z m6.074 0h2.272c1.424 0 2.136 0.622 2.136 1.865v7.036c0 1.255-0.712 1.882-2.136 1.882h-2.272c-1.435 0-2.153-0.627-2.153-1.882V1.865c0-1.243 0.718-1.865 2.153-1.865z m1.984 8.579V2.204c0-0.283-0.147-0.424-0.441-0.424h-0.814c-0.305 0-0.458 0.141-0.458 0.424v6.375c0 0.283 0.153 0.424 0.458 0.424h0.814c0.294 0 0.441-0.141 0.441-0.424z m5.397 2.176c-0.808 0-1.462-0.655-1.462-1.462V9.198c0-0.808 0.655-1.462 1.462-1.462 0.808 0 1.462 0.655 1.463 1.462v0.095c0 0.808-0.655 1.462-1.463 1.462zM2.546 22.22h3.103v1.78H0.139V13.217h2.407z m3.935-9.003h2.408v10.783h-2.408z m8.499 0h2.221v10.783h-2.17l-2.357-6.46v6.46H10.47V13.217h2.187l2.323 6.443z m10.891 0l-2.171 5.324L25.871 24h-2.611l-2.086-5.459 2.086-5.324z m-7.155 10.783V13.217h2.407v10.783Z"/></svg>