<svg fill="#EE6123" role="img" viewBox="0 0 25 24" xmlns="http://www.w3.org/2000/svg"><title>Bitly</title><path d="M13.555 21.26c-1.345 0.022-2.325-0.41-2.386-1.585-0.025-0.44-0.018-0.91 0.002-1.192 0.137-1.716 1.333-2.95 2.53-3.19 1.482-0.294 2.455 0.38 2.455 2.31 0 1.303-0.36 3.618-2.59 3.657h-0.016zM12.423 0C5.82 0 0.5 5.297 0.5 12.224c0 3.594 1.92 7.062 4.623 9.147 0.52 0.4 1.138 0.367 1.497 0.02 0.297-0.285 0.272-0.984-0.285-1.475-2.16-1.886-3.652-4.76-3.652-7.635 0-5.15 4.58-9.49 9.74-9.49 6.28 0 9.636 5.102 9.636 9.43 0 2.65-1.29 5.84-3.626 7.874 0.015 0 0.493-0.942 0.493-2.784 0-3.13-1.976-4.836-4.28-4.836-1.663 0-2.667 0.598-3.34 1.152 0-1.272 0.045-3.652 0.045-3.652 0-1.572-0.54-2.83-2.47-2.86-1.11-0.015-1.932 0.493-2.44 1.647-0.18 0.436-0.12 0.916 0.254 1.125 0.3 0.18 0.81 0.046 1.046-0.284 0.165-0.21 0.254-0.254 0.404-0.24 0.24 0.03 0.257 0.405 0.257 0.66 0.014 0.193 0.193 2.903 0.088 9.865C8.48 21.798 9.993 24 13.6 24c1.56 0 2.756-0.435 4.493-1.422C20.743 21.08 24.5 17.758 24.5 12.128 24.453 5.045 18.765 0 12.433 0"/></svg>