<svg fill="#683D87" role="img" viewBox="0 0 30 24" xmlns="http://www.w3.org/2000/svg"><title>Bitrise</title><path d="M29.036 13.775c-0.334-2.298-0.843-4.611-1.207-6.153-0.436-1.833-1.993-3.142-3.869-3.258-1.847-0.116-4.902-0.247-8.974-0.248-4.073 0-7.127 0.131-8.975 0.248-1.876 0.116-3.433 1.426-3.869 3.258-0.364 1.542-0.873 3.855-1.207 6.153-0.233 1.556-0.407 3.375-0.553 5.44-0.073 1.149 0.305 2.255 1.076 3.112 0.771 0.858 1.818 1.367 2.982 1.411 2.531 0.116 6.415 0.262 10.56 0.262 4.146 0 8.029-0.145 10.56-0.262 1.149-0.058 2.211-0.553 2.982-1.411 0.771-0.858 1.149-1.964 1.076-3.112-0.16-2.065-0.349-3.898-0.582-5.44z m-2.007 7.214c-0.407 0.451-0.96 0.713-1.571 0.742-2.516 0.116-6.356 0.262-10.472 0.262-4.116 0-7.956-0.145-10.473-0.262-0.611-0.029-1.164-0.291-1.571-0.742-0.407-0.451-0.611-1.033-0.567-1.644 0.131-2.007 0.305-3.782 0.538-5.28 0.32-2.225 0.815-4.48 1.178-5.978 0.233-0.975 1.047-1.658 2.051-1.731C7.96 6.24 10.971 6.109 15 6.109c4.015 0 7.04 0.131 8.858 0.247 0.989 0.058 1.818 0.756 2.051 1.731 0.349 1.498 0.844 3.753 1.178 5.978 0.218 1.498 0.393 3.273 0.538 5.28 0 0.611-0.204 1.193-0.596 1.644zM14.985 2.487c0.684 0 1.251-0.553 1.251-1.236 0-0.684-0.553-1.251-1.251-1.251-0.684 0-1.251 0.553-1.251 1.251 0 0.669 0.567 1.236 1.251 1.236z m7.273 9.557c-1.105 0-2.007 0.902-2.007 2.007h4.014c0-1.106-0.887-2.007-2.007-2.007z m-14.545 0c-1.106 0-2.007 0.902-2.008 2.007h4.015c0-1.106-0.887-2.007-2.007-2.007z m7.272 7.272c1.789 0 3.244-1.455 3.244-3.243h-6.502c0 1.775 1.455 3.244 3.258 3.243z"/></svg>