<svg fill="#050505" role="img" viewBox="0 0 25 24" xmlns="http://www.w3.org/2000/svg"><title>BitTorrent</title><path d="M12.5 0C5.873-0.001 0.5 5.371 0.499 11.998a12 12 0 0 0 1.7 6.16 0.132 0.132 0 0 0 0.113 0.039c0.029 0 0.048-0.07 0.048-0.111a0.739 0.739 0 0 0-0.033-0.129 22.143 22.143 0 0 1-0.423-2.295 9.84 9.84 0 0 1 0.427-3.866c1.102-3.396 3.334-5.7 6.665-6.938a10.303 10.303 0 0 1 3.399-0.596 0.782 0.782 0 0 1 0.856 0.763c0 0.449-0.343 0.737-0.849 0.766a12.854 12.854 0 0 0-1.608 0.166 8.693 8.693 0 0 0-4.865 2.64C3.846 10.817 3.049 13.457 3.529 16.454a8.686 8.686 0 0 0 2.446 4.786 8.942 8.942 0 0 0 6.369 2.76h0.156a11.952 11.952 0 0 0 5.614-1.392h-5.595a8.4 8.4 0 0 1-1.408-0.13c-4.139-0.747-6.916-4.674-6.24-8.824 0.563-3.528 3.473-6.208 7.034-6.48a7.642 7.642 0 0 1 2.16 0.136 0.749 0.749 0 0 1 0.617 0.876 0.785 0.785 0 0 1-0.96 0.603 6.084 6.084 0 0 0-0.802-0.115 6.329 6.329 0 0 0-2.899 0.504c-2.505 1.08-4.01 3.672-3.706 6.384 0.357 3.137 3.006 5.51 6.164 5.52h6.991c0.679 0 0.84 0.014 1.137-0.24 0.382-0.353 0.742-0.728 1.078-1.126h-9.331a4.349 4.349 0 0 1-2.074-0.516c-2.404-1.179-3.397-4.083-2.218-6.487s4.083-3.397 6.487-2.219c0.12 0.059 0.237 0.122 0.351 0.191a0.751 0.751 0 0 1 0.317 1.044 0.766 0.766 0 0 1-1.066 0.271c-1.599-0.913-3.635-0.356-4.547 1.243a3.334 3.334 0 0 0-0.397 2.179c0.243 1.619 1.639 2.813 3.276 2.804 3.36 0.034 6.72 0 10.08 0a0.422 0.422 0 0 0 0.281-0.144c3.359-5.713 1.45-13.068-4.263-16.427a12 12 0 0 0-6.081-1.655z"/></svg>