<svg fill="#FF5A00" role="img" viewBox="0 0 50 24" xmlns="http://www.w3.org/2000/svg"><title>Bitwig</title><path d="M8.782 3.286a3.285 3.285 0 1 1 6.572 0 3.285 3.285 0 0 1-6.572 0z m11.861 3.287a3.285 3.285 0 1 0 0-6.572 3.285 3.285 0 0 0 0 6.572z m8.715 0a3.285 3.285 0 1 0 0-6.572 3.285 3.285 0 0 0 0 6.572z m8.574 0a3.285 3.285 0 1 0 0-6.572 3.285 3.285 0 0 0 0 6.572zM12.069 8.713a3.285 3.285 0 1 0 0 6.572 3.285 3.285 0 0 0 0-6.572z m17.289 0a3.285 3.285 0 1 0 0 6.572 3.285 3.285 0 0 0 0-6.572z m8.574 0a3.285 3.285 0 1 0 0 6.572 3.285 3.285 0 0 0 0-6.572z m8.574 6.575a3.285 3.285 0 1 0 0-6.572 3.285 3.285 0 0 0 0 6.572zM3.495 8.713a3.287 3.287 0 1 0 0 6.575 3.287 3.287 0 0 0 0-6.575z m8.574 8.715a3.285 3.285 0 1 0 0 6.572 3.285 3.285 0 0 0 0-6.572z m25.863 0a3.285 3.285 0 1 0 0 6.572 3.285 3.285 0 0 0 0-6.572z m8.574 0a3.285 3.285 0 1 0 0 6.572 3.285 3.285 0 0 0 0-6.572z m-43.011 0a3.285 3.285 0 1 0 0 6.572 3.285 3.285 0 0 0 0-6.572m17.148-8.715a3.287 3.287 0 1 0 0 6.575 3.287 3.287 0 0 0 0-6.575Z"/></svg>