<svg fill="#FFA200" role="img" viewBox="0 0 8 24" xmlns="http://www.w3.org/2000/svg"><title>Blackmagic Design</title><path d="M2.385 0c-1.15 0-2.076 0.93-2.076 2.076V5.31c0 1.148 0.929 2.076 2.076 2.076h3.23c1.15 0 2.076-0.93 2.076-2.076V2.076A2.074 2.074 0 0 0 5.615 0h-3.23z m0 0.924h3.23c0.638 0 1.155 0.514 1.155 1.152V5.31c0 0.638-0.516 1.152-1.155 1.152h-3.23A1.152 1.152 0 0 1 1.23 5.309V2.076c0-0.638 0.516-1.152 1.155-1.152z m0 7.385c-1.15 0-2.076 0.929-2.076 2.076v3.23c0 1.15 0.929 2.076 2.076 2.076h3.23c1.15 0 2.076-0.929 2.076-2.076v-3.23c0-1.15-0.929-2.076-2.076-2.076h-3.23z m0 0.921h3.23c0.638 0 1.155 0.516 1.155 1.155v3.23c0 0.638-0.516 1.155-1.155 1.155h-3.23a1.154 1.154 0 0 1-1.155-1.155v-3.23c0-0.638 0.516-1.155 1.155-1.155z m0 7.385c-1.15 0-2.076 0.93-2.076 2.076v3.233c0 1.149 0.929 2.076 2.076 2.076h3.23c1.15 0 2.076-0.93 2.076-2.076V18.69a2.075 2.075 0 0 0-2.076-2.076h-3.23z m0 0.924h3.23c0.638 0 1.155 0.514 1.155 1.152v3.233c0 0.638-0.516 1.152-1.155 1.152h-3.23a1.152 1.152 0 0 1-1.155-1.152V18.69c0-0.638 0.516-1.152 1.155-1.152Z"/></svg>