<svg fill="#000000" role="img" viewBox="0 0 35 24" xmlns="http://www.w3.org/2000/svg"><title>Blackberry</title><path d="M3.387 0L2.138 5.901H6.791C10.365 5.901 11.443 4.156 11.443 2.582 11.443 1.418 10.777 0 7.869 0H3.387M15.429 0L14.181 5.901H18.833C22.465 5.901 23.486 4.156 23.486 2.582 23.486 1.418 22.819 0 19.911 0H15.429M26.465 5.234L25.145 11.135H29.798C33.443 11.135 34.521 9.475 34.521 7.816 34.521 6.652 33.855 5.234 30.975 5.234H26.465M1.727 8.879L0.479 14.78H5.131C8.777 14.78 9.784 13.035 9.784 11.461 9.784 10.298 9.117 8.879 6.209 8.879H1.727M13.855 8.879L12.535 14.78H17.174C20.819 14.78 21.911 13.035 21.911 11.461 21.911 10.298 21.245 8.879 18.337 8.879H13.84M24.72 14.454L23.486 20.34H28.138C31.684 20.34 32.777 18.681 32.777 17.021 32.777 15.858 32.11 14.454 29.216 14.454H24.72M12.11 18.099L10.862 24H15.514C19.074 24 20.152 22.255 20.152 20.681 20.152 19.518 19.5 18.099 16.592 18.099H12.11Z"/></svg>