<svg fill="#512BD4" role="img" viewBox="0 0 27 24" xmlns="http://www.w3.org/2000/svg"><title>Blazor</title><path d="M26.594 7.686a15.394 15.394 0 0 1-15.095 12.968 11.181 11.181 0 0 1-2.207-0.134 6.762 6.762 0 0 1-5.623-6.374 6.566 6.566 0 0 1 13.13-0.093c0.028 1.088-0.444 2.043-1.413 2.071-1.035 0-1.521-0.739-1.52-1.734v-2.767a1.694 1.694 0 0 0-1.681-1.696H9.865a4.037 4.037 0 1 0 2.982 6.727l0.081-0.121 0.081 0.134a2.855 2.855 0 0 0 2.436 1.16 3.219 3.219 0 0 0 2.981-3.365 8.754 8.754 0 0 0-0.24-2.138 8.193 8.193 0 0 0-16.198 1.774 8.295 8.295 0 0 0 8.085 8.193s0.607 0.055 1.292 0.039a17.485 17.485 0 0 0 9.377-2.797c0.04-0.028 0.08 0.028 0.053 0.068a13.764 13.764 0 0 1-10.722 4.384A9.675 9.675 0 0 1 0.226 14.058a10.012 10.012 0 0 1 4.022-8.018 9.807 9.807 0 0 1 5.785-1.91h3.113a8.757 8.757 0 0 0 6.46-2.852 0.121 0.121 0 0 1 0.066-0.038 0.123 0.123 0 0 1 0.132 0.058 0.125 0.125 0 0 1 0.017 0.074 8.779 8.779 0 0 1-1.358 3.927 0.119 0.119 0 0 0-0.015 0.068 0.121 0.121 0 0 0 0.081 0.104 0.121 0.121 0 0 0 0.068 0.004 9.411 9.411 0 0 0 6.543-5.395 0.172 0.172 0 0 1 0.06-0.059 0.166 0.166 0 0 1 0.163 0 0.17 0.17 0 0 1 0.061 0.059 11.927 11.927 0 0 1 1.17 7.606z m-16.529 3.903a2.421 2.421 0 1 0 2.42 2.42v-2.259a0.174 0.174 0 0 0-0.165-0.166Z"/></svg>