<svg fill="#CA2133" role="img" viewBox="0 0 57 24" xmlns="http://www.w3.org/2000/svg"><title>Blazemeter</title><path d="M35.604 24c-0.598 0-0.823-0.299-0.748-0.823l3.964-22.354c0.075-0.523 0.374-0.823 0.972-0.823h8.375c5.609 0 8.375 1.72 8.376 5.235 0 1.419-0.374 2.69-1.122 3.739-0.748 1.122-1.795 1.87-3.141 2.316 0.897 0.224 1.72 0.748 2.244 1.57 0.598 0.748 0.897 1.795 0.897 2.991 0 2.839-0.972 4.861-2.916 6.205-1.944 1.271-4.562 1.944-7.778 1.944H35.604z m9.273-3.889c3.889 0 5.833-1.421 5.833-4.26 0-0.897-0.374-1.496-1.047-1.944-0.673-0.449-1.87-0.598-3.44-0.598h-4.861l-1.196 6.73h4.711v0.072z m1.795-10.242c3.44 0 5.085-1.271 5.085-3.887 0-0.823-0.299-1.346-0.972-1.719-0.673-0.374-1.72-0.523-3.141-0.524h-4.637l-1.121 6.13h4.786z m-16.078-0.599a1.421 1.421 0 0 0-1.421-1.42H1.878a1.421 1.421 0 1 0 0 2.841h27.22c0.823 0 1.496-0.598 1.496-1.421z m3.141-5.082a1.421 1.421 0 0 0-1.421-1.421H15.563a1.421 1.421 0 1 0 0 2.842h16.751c0.748 0 1.421-0.598 1.421-1.421z m-5.758 15.549a1.421 1.421 0 0 0-1.421-1.42H19.751a1.421 1.421 0 1 0 0 2.841h6.805c0.748 0 1.421-0.598 1.421-1.421z m-2.02-5.307a1.421 1.421 0 0 0-1.42-1.42H7.935a1.421 1.421 0 1 0 0 2.841h16.602a1.472 1.472 0 0 0 1.42-1.421z"/></svg>