<svg fill="#E87D0D" role="img" viewBox="0 0 30 24" xmlns="http://www.w3.org/2000/svg"><title>Blender</title><path d="M15.628 13.495c0.057-0.985 0.539-1.854 1.268-2.47a4.215 4.215 0 0 1 2.723-0.972c1.046 0 2.008 0.369 2.722 0.972 0.729 0.616 1.21 1.485 1.265 2.469 0.055 1.013-0.351 1.953-1.065 2.65a4.172 4.172 0 0 1-2.922 1.155 4.177 4.177 0 0 1-2.925-1.155c-0.714-0.698-1.12-1.637-1.065-2.649M9.275 15.485c0.007 0.387 0.13 1.135 0.315 1.722a9.076 9.076 0 0 0 1.961 3.394 10.128 10.128 0 0 0 3.431 2.463 11.015 11.015 0 0 0 4.506 0.936 11.036 11.036 0 0 0 4.502-0.951 10.2 10.2 0 0 0 3.429-2.474 9.145 9.145 0 0 0 1.96-3.4 8.573 8.573 0 0 0 0.308-3.785 8.769 8.769 0 0 0-1.251-3.421 9.558 9.558 0 0 0-2.28-2.515h0.002L16.928 0.366l-0.025-0.018c-0.606-0.465-1.624-0.463-2.29 0.002-0.673 0.47-0.75 1.25-0.151 1.742l-0.002 0.002 3.849 3.13-11.733 0.013h-0.016c-0.97 0.001-1.902 0.638-2.086 1.442-0.19 0.819 0.468 1.498 1.477 1.502V8.184l5.946-0.013-10.612 8.147-0.042 0.03c-1.001 0.766-1.323 2.041-0.693 2.848 0.64 0.821 2.001 0.822 3.013 0.005L9.354 14.462s-0.085 0.64-0.078 1.023z m14.884 2.144c-1.194 1.216-2.864 1.906-4.672 1.908-1.81 0.005-3.48-0.68-4.674-1.893a5.552 5.552 0 0 1-1.276-1.997 5.272 5.272 0 0 1 0.347-4.333 5.789 5.789 0 0 1 1.42-1.687c1.16-0.945 2.636-1.456 4.181-1.459 1.546-0.002 3.022 0.505 4.183 1.446 0.591 0.481 1.071 1.051 1.418 1.683a5.269 5.269 0 0 1 0.643 2.101 5.215 5.215 0 0 1-0.294 2.229 5.589 5.589 0 0 1-1.275 2.002"/></svg>