<svg fill="#1E93D9" role="img" viewBox="0 0 34 24" xmlns="http://www.w3.org/2000/svg"><title>Blockbench</title><path d="M33.026 0c-0.344 0.003-1.388 0.078-4.773 0.311l-12.535 0.863c-4.187 0.286-3.773 0.248-3.973 0.371-0.224 0.14-0.349 0.377-0.423 0.798-0.62 2.995-1.117 5.145-1.519 6.887-0.021 0.055-0.063 0.245-0.096 0.421-0.052 0.3-0.051 0.329 0.016 0.422 0.144 0.198 0.316 0.242 1.568 0.405 6.575 0.867 12.249 1.601 18.449 2.428 1.281 0.171 1.304 0.172 1.362 0.03 0.044-0.111 0.125-0.495 0.285-1.336 0.655-3.395 1.417-7.381 1.971-10.206 0.173-0.883 0.182-0.979 0.095-1.128a0.697 0.697 0 0 0-0.211-0.211c-0.055-0.033-0.01-0.058-0.216-0.055zM8.265 11.05c-0.221 0.034-1.948 0.282-3.838 0.55-1.889 0.267-3.513 0.514-3.609 0.549-0.289 0.105-0.404 0.392-0.267 0.657 0.085 0.165 0.296 0.261 0.963 0.446 0.089 0.025 0.206 0.059 0.261 0.077 6.245 1.752 12.845 3.686 18.684 5.348 0.327 0.098 0.774 0.271 1.06 0.271 0.216-0.058 1.448-0.666 4.239-2.07 2.268-1.142 4.157-2.105 4.198-2.139 0.155-0.136 0.238-0.426 0.155-0.553-0.017-0.025-0.238-0.076-0.491-0.113-5.432-0.796-11.172-1.637-16.071-2.352-2.77-0.399-3.625-0.528-3.857-0.58a4.579 4.579 0 0 0-0.89-0.124 3.1 3.1 0 0 0-0.537 0.033zM6.436 15.507h-0.022c-0.074 0.015-1.543 3.168-1.544 3.311 0 0.147 0.105 0.327 0.231 0.394 0.139 0.076 0.227 0.077 0.43 0.007 0.612-0.191 1.263-0.403 1.87-0.584 1.81-0.543 1.839-0.554 2.032-0.756 0.158-0.165 0.451-0.773 0.536-1.115a1.105 1.105 0 0 1 0.079-0.212c0.028-0.048 0.041-0.089 0.033-0.089-1.056-0.272-2.153-0.571-3.153-0.845a4.054 4.054 0 0 0-0.492-0.111z m18.597 2.535c-0.096 0.055-0.373 0.213-0.616 0.349-0.662 0.4-1.289 0.816-1.989 1.146-0.568 0.356-0.817 0.433-1.102 0.341a12.387 12.387 0 0 0-1.081-0.28 0.105 0.105 0 0 0-0.092 0.068c-0.316 0.884-0.697 1.919-1.018 2.824-0.118 0.319-0.325 1.055-0.322 1.145 0.003 0.088 0.195 0.27 0.344 0.324a0.758 0.758 0 0 0 0.317 0.037c1.729-0.702 3.047-1.582 4.518-2.352 0.45-0.235 0.615-0.399 0.679-0.676 0.129-0.56 0.25-1.111 0.37-1.651 0.252-1.117 0.267-1.221 0.204-1.322a0.052 0.052 0 0 0-0.048-0.027c-0.074 0.017-0.11 0.05-0.163 0.074z"/></svg>