<svg fill="#000000" role="img" viewBox="0 0 30 24" xmlns="http://www.w3.org/2000/svg"><title>Bloglovin</title><path d="M15.647 11.625c2.264-0.47 4.143-2.515 4.143-5.51 0-3.204-2.338-6.115-6.909-6.115H0.235v24h13.042c4.614 0 6.992-2.88 6.993-6.511-0.011-2.985-2.025-5.468-4.623-5.864z m-10.298-7.128h6.406c1.731 0 2.805 1.045 2.806 2.515 0 1.544-1.084 2.515-2.806 2.515H5.348zM11.973 19.503H5.348v-5.468h6.626c1.981 0 3.056 1.221 3.057 2.734 0.011 1.721-1.147 2.734-3.057 2.734zM26.561 0.041c-1.544 0-2.848 1.294-2.849 2.838s1.085 2.588 2.453 2.588c0.293 0 0.575-0.031 0.689-0.105-0.293 1.294-1.618 2.808-2.776 3.423l1.982 1.617C28.283 8.828 29.765 6.416 29.765 3.715c0-2.338-1.513-3.673-3.204-3.673Z"/></svg>