<svg fill="#F0B90B" role="img" viewBox="0 0 21 24" xmlns="http://www.w3.org/2000/svg"><title>BNB Chain</title><path d="M4.131 3.676L10.501 0l6.367 3.676-2.34 1.358L10.5 2.716 6.472 5.034l-2.34-1.358Zm12.737 4.636l-2.34-1.358L10.5 9.272 6.472 6.954l-2.34 1.358v2.716l4.026 2.318v4.636L10.5 19.341l2.341-1.359v-4.636l4.027-2.318V8.312Zm0 7.352v-2.716l-2.34 1.358v2.716l2.34-1.358Zm1.663 0.96l-4.027 2.318v2.717l6.368-3.677V10.63l-2.34 1.358v4.636Zm-2.34-10.63l2.34 1.358v2.716l2.341-1.358V5.994l-2.34-1.358-2.342 1.358ZM8.157 19.926v2.716L10.5 24l2.341-1.358v-2.716l-2.34 1.358-2.343-1.358Zm-4.027-4.262l2.341 1.358v-2.716l-2.34-1.358v2.716Zm4.027-9.67L10.5 7.352l2.341-1.358-2.34-1.358-2.343 1.358Zm-5.69 1.358L4.81 5.994 2.468 4.636l-2.34 1.358V8.71l2.34 1.358V7.352Zm0 4.636l-2.34-1.358v7.352l6.368 3.677v-2.717l-4.028-2.318v-4.636Z"/></svg>