<svg fill="#00E47C" role="img" viewBox="0 0 25 24" xmlns="http://www.w3.org/2000/svg"><title>Boehringer Ingelheim</title><path d="M5.91 22.03c-1.72-1.24-2.63-2.15-3.49-3.46A12.185 12.185 0 0 1 0.5 12.03C0.5 5.38 5.86 0 12.5 0s12 5.38 12 12c0 2.73-0.93 5.46-2.58 7.48-0.68 0.86-1.26 1.36-2.83 2.55v-7.02h1.19v4.8c0.88-1.04 1.31-1.67 1.74-2.43 0.88-1.57 1.36-3.51 1.36-5.38 0-6.06-4.88-10.99-10.89-10.99S1.61 5.94 1.61 12.08c0 2.8 0.99 5.28 3.08 7.73v-4.8H5.9v7.02Zm2.37 1.21c-0.23-0.05-0.76-0.3-1.19-0.53V15h1.19v8.24Zm7.23-16.92L12.5 4 9.49 6.32l-0.66-0.86 3.66-2.86 3.66 2.86-0.66 0.86Zm-4.83 17.56c-0.43-0.08-0.45-0.08-0.61-0.13-0.13-0.02-0.18-0.02-0.58-0.13V7.2h1.19v16.67Zm2.4 0.1c-0.18 0.02-0.23 0.02-0.48 0.02-0.38 0-0.51 0-0.71-0.02V7.2h1.19v16.78Zm2.4-0.38c-0.38 0.13-0.71 0.2-1.19 0.3V7.2h1.19v16.4Zm2.43-0.88c-0.38 0.18-0.61 0.28-1.21 0.56v-8.27h1.21v7.71Z"/></svg>