<svg fill="#1D439C" role="img" viewBox="0 0 30 24" xmlns="http://www.w3.org/2000/svg"><title>Boeing</title><path d="M8.814 18.418a7.346 7.346 0 0 1-4.564-1.579c1.463-3.296 4.437-7.719 8.495-12.039a7.37 7.37 0 0 1 2.746 9.383c-1.287-0.595-2.488-1.343-3.505-2.282l2.222 4.173a7.355 7.355 0 0 1-5.394 2.344M1.438 11.043a7.376 7.376 0 0 1 7.377-7.378c1.092 0 2.128 0.238 3.063 0.663-3.998 3.532-7.094 7.64-8.927 11.19a7.346 7.346 0 0 1-1.513-4.476m14.982 3.536a8.331 8.331 0 0 0 0.779-3.536c0-2.913-1.487-5.481-3.745-6.985a60.225 60.225 0 0 1 4.35-4.057A37.845 37.845 0 0 0 12.705 3.611a8.385 8.385 0 0 0-10.242 12.901C0.856 19.988 0.576 22.778 1.992 23.72c1.516 1.01 4.811-0.822 6.786-3.805 0 0-3.057 2.76-4.736 2.127-1.034-0.391-1.038-1.973-0.185-4.24a8.342 8.342 0 0 0 4.958 1.624c2.299 0 4.378-0.923 5.892-2.418l0.297 0.561c3.654-0.297 14.564-0.586 14.564-0.587 0-0.523-7.224-0.049-13.151-2.403"/></svg>