<svg fill="#020203" role="img" viewBox="0 0 177 24" xmlns="http://www.w3.org/2000/svg"><title>Bombardier</title><path d="M0.373 0.411h9.047c4.318 0 6.308 2.262 6.309 5.765 0 2.468-1.102 4.656-3.635 5.141v0.066c3.018 0.345 4.318 2.879 4.318 5.214 0 3.966-1.917 6.852-6.918 6.852H0.373v-23.038z m6.029 9.055h1.447c1.234 0 1.851-1.102 1.851-2.401 0-1.3-0.69-2.401-1.851-2.402H6.395v4.803z m0 9.731h1.719c1.102 0 2.13-1.028 2.129-2.879 0-1.785-1.028-2.813-2.129-2.812H6.395v5.691z m19.887-19.197c6.169 0 8.299 3.364 8.299 12s-2.13 12-8.299 12-8.225-3.364-8.225-12 2.188-12 8.225-12m0 19.953c1.851 0 2.056-1.718 2.057-7.953s-0.14-7.953-2.057-7.953-2.056 1.718-2.056 7.953 0.206 7.953 2.056 7.953m10.554-19.534h8.636l2.468 13.703h0.073l2.468-13.711H59.124v23.038h-5.552v-17.141h-0.073l-3.356 17.141H45.832l-3.224-17.141h-0.066v17.141h-5.552c-0.14 0.073-0.14-23.038-0.14-23.038z m24.675 0h9.122c4.318 0 6.242 2.255 6.242 5.757 0 2.468-1.102 4.656-3.635 5.141v0.066c3.011 0.345 4.318 2.879 4.318 5.214 0 3.966-1.917 6.852-6.925 6.852H61.526v-23.038z m6.111 9.047h1.439c1.16 0 1.909-1.102 1.909-2.401 0-1.3-0.676-2.401-1.909-2.402h-1.439v4.803z m0 9.731h1.711c1.102 0 2.13-1.028 2.129-2.879 0-1.785-1.028-2.813-2.129-2.812h-1.711v5.691z m15.973-18.786h7.534l5.692 23.038h-6.441l-0.616-4.039h-4.803l-0.617 4.039h-6.441l5.692-23.038z m3.767 4.737l-1.711 9.797h3.356l-1.645-9.797z m11.038-4.737h9.393c4.59 0 6.308 2.607 6.308 6.169 0 3.018-1.175 5.075-3.98 5.486v0.074c2.879 0.272 3.775 2.13 3.775 5.14v1.917c0 1.168 0 2.673 0.338 3.224a1.322 1.322 0 0 0 0.69 0.683v0.345h-6.448c-0.617-1.168-0.617-3.356-0.617-4.391v-1.506c0-2.607-0.477-3.29-1.917-3.29h-1.579v9.18h-5.963v-23.031z m5.963 9.804h1.168c1.711 0 2.534-1.102 2.534-2.805 0-1.851-0.756-2.673-2.534-2.673h-1.168v5.478z m12.338-9.804h8.71c6.925 0 7.271 5.486 7.27 11.589s-0.345 11.515-7.27 11.515H116.701v-23.104z m6.037 18.786h1.16c2.401 0 2.607-1.028 2.607-7.197 0-6.242-0.272-7.197-2.607-7.197h-1.16v14.394z m12.411-18.786h6.022v23.038h-6.022v-23.038z m8.703 0h13.711v4.869H149.822v3.981h7.197v4.729h-7.197v4.59h7.953v4.869h-13.916v-23.038z m16.178 0h9.393c4.59 0 6.308 2.607 6.309 6.169 0 3.018-1.168 5.075-3.907 5.486v0.074c2.879 0.272 3.767 2.13 3.767 5.14v1.917c0 1.168 0 2.673 0.345 3.224a1.322 1.322 0 0 0 0.683 0.683v0.345h-6.44c-0.617-1.168-0.617-3.356-0.617-4.391v-1.506c0-2.607-0.485-3.29-1.924-3.29h-1.579v9.18h-5.964l-0.066-23.031z m6.03 9.804h1.175c1.704 0 2.534-1.102 2.533-2.805 0-1.851-0.756-2.673-2.541-2.673h-1.167v5.478z"/></svg>