<svg fill="#F44336" role="img" viewBox="0 0 37 24" xmlns="http://www.w3.org/2000/svg"><title>BookBub</title><path d="M0.5 24V0h8.1c2.4 0 4.2 0.45 5.7 1.5 1.35 1.05 2.1 2.4 2.1 4.05 0 1.2-0.45 2.4-1.2 3.45-0.9 1.05-1.95 1.8-3.3 2.1 1.65 0.15 3 0.9 4.05 1.95 1.05 1.05 1.5 2.4 1.5 3.9 0 2.1-0.75 3.9-2.25 5.1-1.5 1.35-3.6 1.95-6.15 1.95H0.5zM5 3.6v6.3h2.55c1.2 0 2.25-0.3 2.85-0.9 0.6-0.6 1.05-1.5 1.05-2.55 0-1.95-1.35-2.85-4.05-2.85H5zM5 13.5v7.05h3.15c1.35 0 2.4-0.3 3.15-0.9 0.75-0.75 1.2-1.65 1.2-2.85C12.5 14.55 11 13.5 8 13.5H5z m14.55 10.5V0h8.1c2.4 0 4.2 0.45 5.7 1.5 1.35 1.05 2.1 2.4 2.1 4.05 0 1.2-0.45 2.4-1.2 3.45-0.9 1.05-1.95 1.8-3.3 2.1 1.65 0.15 3 0.9 4.05 1.95 1.05 1.05 1.5 2.4 1.5 3.9 0 2.1-0.75 3.9-2.25 5.1-1.5 1.35-3.6 1.95-6.15 1.95h-8.55z m4.5-20.4v6.3h2.55c1.2 0 2.25-0.3 2.85-0.9s1.05-1.5 1.05-2.55c0-1.95-1.35-2.85-4.05-2.85h-2.4z m0 9.9v7.05h3.15c1.35 0 2.4-0.3 3.15-0.9 0.75-0.6 1.05-1.5 1.05-2.7 0-2.25-1.5-3.45-4.5-3.45h-2.85z"/></svg>