<svg fill="#C4242B" role="img" viewBox="0 0 25 24" xmlns="http://www.w3.org/2000/svg"><title>BookMyShow</title><path d="M5.647 16.726a0.679 0.679 0 0 1-0.57-0.679v-8.301a0.689 0.689 0 0 1 0.699-0.691h6.07c0.158 0 0.317 0.015 0.471 0.041a2.697 2.697 0 0 1 2.253 2.65v6.301a0.679 0.679 0 0 1-0.21 0.492 0.704 0.704 0 0 1-0.617 0.187 0.679 0.679 0 0 1-0.569-0.679V9.746a1.314 1.314 0 0 0-1.327-1.309h-1.324v7.61a0.697 0.697 0 0 1-0.829 0.679 0.679 0.679 0 0 1-0.569-0.679v-7.612H6.474v7.612a0.679 0.679 0 0 1-0.208 0.492 0.702 0.702 0 0 1-0.619 0.187m10.093 3.618a0.679 0.679 0 0 1-0.571-0.681c0-0.188 0.072-0.363 0.202-0.492a0.704 0.704 0 0 1 0.498-0.198c0.588 0 1.099-0.375 1.267-0.935l0.721-2.373-2.359-7.794a0.696 0.696 0 0 1 0.466-0.871 0.715 0.715 0 0 1 0.864 0.457l1.754 5.812 1.773-5.809c0.087-0.327 0.442-0.535 0.808-0.472l0.05 0.01a0.699 0.699 0 0 1 0.471 0.874l-2.43 7.997-0.767 2.561c-0.199 0.587-0.54 1.066-0.985 1.387a2.755 2.755 0 0 1-1.633 0.537 0.683 0.683 0 0 1-0.129-0.011M24.844 7.033l-1.392-2.342-2.49 1.169-1.392-2.343-2.489 1.171-1.393-2.343-2.49 1.171-1.392-2.342-2.49 1.168L7.922 0 5.435 1.168 0.156 18.127l6.404 1.934a3.389 3.389 0 0 1 3.242-2.363c1.874 0 3.395 1.502 3.394 3.354l-0.002 0.067c0.015 0.303-0.021 0.611-0.113 0.912l6.513 1.969L24.844 7.031"/></svg>