<svg fill="#DC2829" role="img" viewBox="0 0 22 24" xmlns="http://www.w3.org/2000/svg"><title>Bookalope</title><path d="M0.418 24v-1.184c0.81-0.021 1.459-0.083 1.948-0.187 0.488-0.104 0.862-0.28 1.122-0.529 0.26-0.249 0.436-0.603 0.53-1.06 0.093-0.458 0.141-1.05 0.141-1.778V4.738c0-0.728-0.037-1.315-0.11-1.762-0.073-0.446-0.218-0.799-0.436-1.059-0.219-0.261-0.535-0.437-0.951-0.531-0.416-0.093-0.956-0.161-1.621-0.202V0h9.32c2.806 0 4.987 0.499 6.546 1.496 1.559 0.997 2.338 2.399 2.337 4.207 0 1.372-0.431 2.494-1.293 3.367-0.863 0.872-2.229 1.59-4.099 2.151v0.124c0.644 0.063 1.206 0.135 1.684 0.219 0.477 0.083 0.903 0.182 1.277 0.295 0.374 0.115 0.722 0.254 1.045 0.421 0.321 0.166 0.638 0.354 0.95 0.561 1.849 1.309 2.774 2.951 2.774 4.925 0 1.102-0.306 2.125-0.92 3.07-0.613 0.946-1.469 1.689-2.571 2.229-0.353 0.187-0.716 0.338-1.091 0.453-0.374 0.114-0.811 0.207-1.309 0.28-0.499 0.073-1.075 0.124-1.729 0.156-0.655 0.031-1.429 0.046-2.323 0.046H0.418Zm11.315-1.34c3.761 0 5.642-1.61 5.642-4.831 0-2.348-0.967-3.99-2.899-4.925-0.332-0.146-0.655-0.27-0.967-0.374-0.312-0.104-0.675-0.182-1.091-0.233-0.416-0.052-0.909-0.089-1.481-0.11-0.572-0.021-1.272-0.031-2.103-0.031H7.431v6.951c0 1.267 0.332 2.176 0.997 2.727 0.665 0.551 1.766 0.826 3.305 0.826z m-2.557-12.063c0.644 0 1.184-0.01 1.622-0.031 0.436-0.022 0.81-0.057 1.121-0.109 0.312-0.051 0.587-0.124 0.827-0.218 0.239-0.093 0.483-0.224 0.732-0.39 0.665-0.416 1.137-0.914 1.418-1.496 0.28-0.582 0.421-1.34 0.421-2.275 0-1.642-0.4-2.821-1.201-3.538-0.799-0.717-2.051-1.075-3.755-1.076H7.96c-0.353 0-0.529 0.176-0.529 0.531v8.602z"/></svg>