<svg fill="#0288D1" role="img" viewBox="0 0 26 24" xmlns="http://www.w3.org/2000/svg"><title>BookStack</title><path d="M0.584 17.959c-0.138-0.359-0.555-1.605-0.142-2.581l10.43 6.022a0.349 0.349 0 0 0 0.35 0L25.736 13.021v2.498l-14.689 8.481-10.463-6.041zM0.467 8.776c-0.306 0.931 0.016 2.184 0.131 2.575l10.449 6.033L25.736 8.903V6.404L11.222 14.784a0.349 0.349 0 0 1-0.35 0L0.467 8.776z m13.977-2.054c-0.193 0.118-0.466 0.002-0.515-0.22l-0.297-1.203-2.256-0.186a0.35 0.35 0 0 1-0.146-0.652l5.92-3.418-1.806-1.043L1.005 8.278l10.042 5.798 14.339-8.278-4.671-2.697-6.271 3.621z m-0.193-1.835l0.246 0.995 5.518-3.185-2.165-1.25-5.3 3.06 1.39 0.115a0.35 0.35 0 0 1 0.311 0.265zM25.736 9.713l-14.514 8.38a0.349 0.349 0 0 1-0.35 0L0.442 12.071c-0.413 0.975 0.003 2.22 0.141 2.58l10.464 6.041L25.736 12.211V9.713z"/></svg>