<svg fill="#F7901E" role="img" viewBox="0 0 32 24" xmlns="http://www.w3.org/2000/svg"><title>Boost</title><path d="M6.201 0l4.316 4.316c-0.629 0.091-1.169 0.357-1.708 0.807L1.618 12.496c-1.528 1.527-1.528 4.133 0 5.661a3.119 3.119 0 0 0 2.068 1.079l22.113 4.764-4.316-4.313c0.629-0.091 1.169-0.36 1.708-0.81l7.191-7.37c1.528-1.528 1.528-4.136 0-5.664a3.12 3.12 0 0 0-2.068-1.078zM15.551 4.494c0.898 0 1.618 0.629 1.618 1.527 0 0.899-0.629 1.619-1.529 1.619-0.899 0-1.618-0.628-1.617-1.527s0.718-1.619 1.527-1.619z m1.954 4.907c0.063-0.008 0.114 0.06 0.114 0.127-0.18 0.898-0.899 1.528-1.799 1.529-0.898 0-1.708-0.63-1.889-1.439 0 0 0.003-0.091 0.092 0 0.63 0.36 1.258 0.45 1.708 0.359 0.448 0 1.078-0.091 1.708-0.538a0.119 0.119 0 0 1 0.065-0.038z m0.936 3.25c0.075 0.017 0.078 0.137 0.077 0.204-0.27 1.169-1.259 2.156-2.518 2.156a2.804 2.804 0 0 1-2.697-1.977c-0.091-0.091 0-0.179 0.179-0.179 0.899 0.449 1.799 0.538 2.429 0.539 0.629 0 1.527-0.181 2.426-0.72 0.045-0.022 0.078-0.028 0.104-0.023z m0.772 3.905c0.063-0.017 0.113 0.116 0.113 0.253-0.36 1.528-1.618 2.698-3.235 2.789-1.619 0-2.967-1.081-3.326-2.519 0-0.18 0.088-0.36 0.268-0.27 1.079 0.629 2.248 0.72 3.056 0.719s1.979-0.269 3.057-0.898c0.023-0.045 0.047-0.069 0.067-0.074z"/></svg>