<svg fill="#7952B3" role="img" viewBox="0 0 31 24" xmlns="http://www.w3.org/2000/svg"><title>Bootstrap</title><path d="M15.211 11.048H12.935V7.235h2.701c1.468 0 2.301 0.655 2.301 1.84 0 1.265-0.97 1.973-2.728 1.973z m0.407 1.513H12.936v4.201h2.8c1.831 0 2.801-0.734 2.801-2.114s-0.998-2.087-2.919-2.087zM30.558 11.236v1.528c-1.415 0.136-2.28 1.185-2.793 2.846-0.511 1.655-0.581 3.685-0.527 5.253 0.056 1.631-1.215 3.137-2.933 3.137H6.697c-1.719 0-2.99-1.506-2.932-3.137 0.054-1.567-0.016-3.598-0.527-5.253-0.514-1.661-1.38-2.71-2.796-2.846V11.236c1.415-0.136 2.283-1.185 2.794-2.846 0.512-1.655 0.582-3.685 0.528-5.253-0.056-1.631 1.215-3.137 2.933-3.137h17.608c1.719 0 2.989 1.506 2.933 3.137-0.054 1.567 0.016 3.598 0.527 5.253 0.513 1.661 1.378 2.71 2.793 2.846z m-9.947 3.535c0-1.699-1.196-2.928-2.972-3.122v-0.072c1.305-0.212 2.329-1.424 2.329-2.777 0-1.929-1.522-3.185-3.842-3.185h-5.22v12.765h5.247c2.783 0 4.458-1.363 4.458-3.609z"/></svg>