<svg fill="#05054B" role="img" viewBox="0 0 46 24" xmlns="http://www.w3.org/2000/svg"><title>Boots</title><path d="M43.714 5.088c0.379-0.434 0.615-0.974 0.615-1.377 0-0.27-0.157-0.441-0.411-0.441-0.423 0-0.93 0.521-0.931 1.303a1.6 1.6 0 0 0 0.034 0.33c-0.485 0.755-0.989 1.523-1.496 2.261a2.813 2.813 0 0 0-0.551-0.055c-1.224 0-2.488 0.919-2.488 2.579a3.202 3.202 0 0 0 0.215 1.192c-1.047 1.194-1.97 1.97-2.594 1.97-0.245 0-0.392-0.134-0.393-0.413 0-0.298 0.143-0.772 0.432-1.43l3.604-7.977 3.89-0.457 0.442-0.922-3.76 0.126 0.652-1.439-1.464 0.173-0.66 1.311-5.264 0.17-0.945 1.878 5.503-0.649-1.107 2.197a4.973 4.973 0 0 0-2.049-0.4 7.409 7.409 0 0 0-3.332 0.802 3.415 3.415 0 0 0-1.494-0.33c-1.27 0-2.709 0.611-3.879 1.685-0.238-0.732-0.736-1.17-1.468-1.17-0.857 0-1.764 0.449-2.633 1.176-0.521-0.424-1.27-0.547-2.066-0.249a5.286 5.286 0 0 0 0.66-2.485c0-1.473-0.689-2.555-1.947-3.207a9.745 9.745 0 0 1 1.364-0.931 3.245 3.245 0 0 0-0.44-0.309 12.531 12.531 0 0 0-1.777 0.892c-0.792-0.253-1.739-0.381-2.822-0.381C10.133 0.511 5.379 3.415 5.379 6.999c0 1.579 0.892 2.145 1.777 2.146 0.826 0 1.634-0.464 1.891-1.027-0.719-0.147-1.145-0.77-1.145-1.56 0-2.794 3.381-5.234 6.848-5.234 0.777 0 1.451 0.145 2.004 0.412-2.107 1.623-3.726 3.83-5.06 6.192a3.654 3.654 0 0 0-0.563-0.046c-0.996 0-1.717 0.423-1.716 1.257 0 0.562 0.366 1.045 0.932 1.394-0.83 1.719-1.551 3.437-2.245 5.004-0.241-0.475-0.791-0.785-1.425-0.785-1.523 0-2.675 1.343-2.675 3.007 0 1.085 0.44 2.122 1.2 2.954-0.717 0.802-1.502 1.275-2.415 1.302a1.619 1.619 0 0 1-0.853-0.215c0.717-0.079 1.306-0.613 1.289-1.305-0.015-0.692-0.592-1.185-1.385-1.164a1.496 1.496 0 0 0-1.477 1.541c0.032 1.311 1.147 2.004 2.603 1.97 1.258-0.028 2.339-0.477 3.302-1.234a6.162 6.162 0 0 0 3.337 0.943c3.866 0 7.145-3.292 7.145-7.711 0-1.755-0.453-3.147-1.13-4.209a8.675 8.675 0 0 0 3.217-2c1.202-1.189 2.094-1.079 2.605-0.76-1.994 2.07-3.615 5.409-3.615 7.652 0 1.39 0.557 2.296 1.627 2.296 3.207 0 7.037-6.184 6.99-9.584 1.03-1.141 2.407-1.821 3.526-1.82a2.238 2.238 0 0 1 0.579 0.069c-2.507 1.773-4.069 4.805-4.07 7.136 0 1.236 0.607 2.173 1.793 2.173 2.207 0 5.079-3.439 5.079-6.867 0-1.055-0.3-1.845-0.774-2.402a4.903 4.903 0 0 1 2.528-0.74 3.981 3.981 0 0 1 1.574 0.34l-2.212 4.383c-0.513 1.072-0.713 1.864-0.713 2.439 0 0.885 0.519 1.34 1.342 1.34 1.2 0 2.613-1.113 4.022-2.71 0.609 0.755 1.558 1.092 2.343 1.093a4.179 4.179 0 0 0 0.762-0.074c-0.592 0.749-1.581 1.313-3.031 1.677l-19.188 4.808c-2.915 0.728-4.698 2.166-3.837 4.92 0.666-0.547 1.862-1.081 4.962-2.024l17.417-5.313c2.547-0.775 4.164-2.604 4.853-4.445 1.185-0.577 2.243-1.679 2.243-3.207 0.002-1.687-1.413-2.696-1.926-3.921z m-30.488 4.381a4.228 4.228 0 0 1 0.605 0.623 5.703 5.703 0 0 1-0.949 0.117q0.17-0.372 0.344-0.74z m-3.004-0.404c0-0.436 0.526-0.509 1.089-0.445q-0.306 0.566-0.593 1.14c-0.315-0.198-0.496-0.443-0.496-0.695z m-4.284 10.684c-0.641-0.598-0.957-1.372-0.948-2.015a1.887 1.887 0 0 1 0.227-0.871 1.426 1.426 0 0 0 1.307 0.788 1.704 1.704 0 0 0 0.661-0.134 19.649 19.649 0 0 1-1.247 2.232z m2.646 0.964a4.371 4.371 0 0 1-1.209-0.162c1.987-2.236 3.471-5.82 5.088-9.42a9.211 9.211 0 0 0 1.912-0.164c0.325 0.685 0.523 1.519 0.522 2.511 0 3.251-2.388 7.235-6.313 7.235z m6.351-10.972a6.139 6.139 0 0 0-1.321-1.089c1.147-2.36 2.422-4.588 4.019-6.292 0.541 0.56 0.836 1.324 0.836 2.238-0.002 2.272-1.502 4.268-3.532 5.143z m4.9 6.752c-0.309 0-0.464-0.268-0.465-0.721 0-1.975 3.354-8.441 5.043-8.441 0.321 0 0.464 0.268 0.465 0.733-0.004 1.996-3.339 8.43-5.043 8.429z m8.655-1.879c-0.321 0-0.462-0.255-0.462-0.732 0-1.528 1.358-4.741 3.541-6.624 0.241 0.402 0.351 0.909 0.353 1.439 0.009 2.528-2.309 5.917-3.433 5.917z m10.837-4.468a2.502 2.502 0 0 1-0.06-0.556c0-0.987 0.704-1.785 1.632-1.785q0.094 0 0.181 0.008c-0.598 0.841-1.189 1.634-1.756 2.333z m3.523 1.119a2.405 2.405 0 0 1-1.44 0.476c-0.726 0-1.345-0.3-1.73-0.815 0.73-0.887 1.453-1.881 2.132-2.893 0.792 0.445 1.117 1.475 1.117 2.408a4.056 4.056 0 0 1-0.083 0.824z m0.932-1.132c-0.028-1.132-0.594-2.217-1.557-2.724 0.381-0.581 0.747-1.164 1.093-1.73 0.36 0.736 0.9 1.534 0.9 2.581a4.177 4.177 0 0 1-0.438 1.875z"/></svg>