<svg fill="#00DD00" role="img" viewBox="0 0 75 24" xmlns="http://www.w3.org/2000/svg"><title>BorgBackup</title><path d="M0.156 0v18.744h6.242V0Zm7.232 0v3.744h4.631v3.999H7.388v3.261h4.631v3.996H7.388v3.744h7.245l3.756-3.744V11.315l-1.877-1.879 1.877-1.877V3.744L14.633 0Zm17.331 3.744L20.975 7.488v7.512l3.744 3.744H28.911v-3.501h-1.625V7.488h1.625V3.744Zm5.181 0v3.744h1.556v7.755h-1.556v3.501h4.183l3.741-3.744V7.488l-3.741-3.744Zm10.749 0v15h6.243v-15Zm9.336 0l-2.091 2.104v1.64h2.658v3.644h6.255v-3.884l-3.034-3.504Zm12.358 0l-3.74 3.744v7.512l3.74 3.744h3.405l1.867-1.849v-1.652h-2.77V3.744Zm3.489 0v3.744h2.77v13.235h-7.612v1.382l1.876 1.895h8.235L74.844 20.228V7.488l-3.743-3.744Z"/></svg>