<svg fill="#205081" role="img" viewBox="0 0 15 24" xmlns="http://www.w3.org/2000/svg"><title>Botble CMS</title><path d="M7.5 9.371c-1.613 0-3.09 0.54-4.3 1.426V0S1.124 0.434 0.186 1.313l0.036 15.742C0.418 20.918 3.586 24 7.5 24c0.547 0 1.074-0.07 1.59-0.184v-3.105a4.318 4.318 0 0 1-1.59 0.312 4.336 4.336 0 0 1 0-8.671 4.321 4.321 0 0 1 4.313 4.109l0.09 6.031c1.757-1.332 2.91-3.426 2.91-5.805A7.315 7.315 0 0 0 7.5 9.372Zm1.523 7.512c0 0.84-0.683 1.523-1.523 1.523a1.525 1.525 0 0 1 0-3.05c0.84 0 1.523 0.683 1.523 1.527Z"/></svg>