<svg fill="#FD5300" role="img" viewBox="0 0 35 24" xmlns="http://www.w3.org/2000/svg"><title>boulanger</title><path d="M12.357 0v5.118h8.099c4.273 0.05 7.702 3.478 7.702 7.752-0.05 4.273-3.478 7.702-7.702 7.751h-4.471c-4.273 0-7.751-3.478-7.752-7.751V6.857c0-2.981 1.639-5.565 4.124-6.857zC5.748 0 0.333 5.416 0.333 12.024c0 6.609 5.316 11.976 11.974 11.976h10.386C29.301 24 34.667 18.683 34.667 12.024c0-6.658-5.267-12.024-11.974-12.024z m0.05 9.193v3.627c0 1.988 1.639 3.627 3.627 3.627h4.324c1.988 0 3.627-1.639 3.626-3.627 0-1.988-1.589-3.628-3.626-3.627z"/></svg>