<svg fill="#EF5734" role="img" viewBox="0 0 28 24" xmlns="http://www.w3.org/2000/svg"><title>Bower</title><path d="M27.13 11.723c-1.405-1.35-8.427-2.192-10.642-2.437 0.107-0.254 0.199-0.516 0.275-0.786 0.303-0.133 0.628-0.256 0.965-0.358 0.041 0.122 0.235 0.586 0.345 0.806 4.456 0.123 4.685-3.31 4.865-4.252 0.177-0.919 0.17-1.809 1.698-3.433-2.276-0.664-5.551 1.028-6.648 3.547a6.804 6.804 0 0 0-1.235-0.339c-0.292-1.181-1.817-4.471-5.817-4.471-2.591 0-5.203 1.069-7.168 2.935a10.717 10.717 0 0 0-2.472 3.549C0.668 7.939 0.349 9.543 0.349 11.252c0 5.946 4.059 11.156 6.352 11.156 1.001 0 1.863-0.75 2.066-1.422 0.171 0.462 0.689 1.894 0.862 2.258 0.253 0.54 1.421 1.007 1.931 0.446 0.656 0.365 1.863 0.585 2.52-0.389 1.266 0.267 2.386-0.487 2.409-1.388 0.621-0.033 0.926-0.906 0.791-1.599-0.1-0.512-1.167-2.347-1.585-2.98 0.825 0.671 2.915 0.861 3.167 0 1.33 1.044 3.403 0.497 3.567-0.353 1.615 0.42 3.47-0.502 3.164-1.619 2.596-0.179 2.264-2.941 1.536-3.64z m-6.76-4.578c-0.683-0.268-1.551-0.439-2.158-0.439-0.861 0-1.388 0.489-2.198 0.489-0.171 0-0.577 0-0.903-0.116 0.215 0.225 0.481 0.347 0.997 0.347 0.309 0 0.921-0.158 1.417-0.307 0.008 0.106 0.018 0.208 0.033 0.312-0.928 0.222-1.902 0.812-2.185 0.966-0.626-1.386-0.088-2.694 0.41-3.298 2.232 0.005 4.036 1.538 4.587 2.047z m0.967-0.103l-0.342-0.319c-0.352-0.33-0.717-0.626-1.092-0.891 0.559-1.108 1.262-2.321 2.149-3.069-0.977 0.394-1.942 1.57-2.512 2.827a8.686 8.686 0 0 0-0.884-0.492c0.796-1.698 2.643-3.116 4.681-3.227-1.365 1.238-0.853 3.706-2.003 5.17l0.001 0.001z m-2.803 1.157c-0.151-0.328-0.303-0.868-0.285-1.186 0.253-0.007 0.739 0.089 0.817 0.107-0.03 0.149-0.046 0.478-0.046 0.519 0.048-0.083 0.182-0.369 0.237-0.481 0.487 0.092 1.126 0.248 1.502 0.423-0.441 0.284-1.189 0.595-2.227 0.618zM10.487 5.978c-0.551-0.198-0.551-0.695 0-0.893 0.552-0.198 1.246 0.051 1.246 0.446 0 0.396-0.694 0.645-1.246 0.447z m1.84 0.184A1.424 1.424 0 1 0 10.189 7.394c0.946 0.546 2.138-0.14 2.138-1.232z m3.166-1.791c-1.78 1.804-1.077 4.087-0.429 5.118-0.921 1.533-2.735 2.582-4.841 3.06 2.364 0 3.754-0.609 4.563-1.205 0.516-0.381 0.796-0.755 0.939-0.963 3.505 0.226 9.055 1.356 9.595 1.721 0.216 0.147 0.441 0.471 0.475 0.781-2.634-0.369-7.381-0.756-8.623-0.821 0.882 0.125 7.318 1.342 8.434 1.629-0.34 0.553-1.115 0.944-2.28 0.672 0.631 0.858-0.592 1.888-2.297 1.321 0.375 0.842-1.141 1.601-2.866 0.724 0.023 0.842-2.139 0.94-2.992 0.007 0.017 0.111 0.118 0.323 0.161 0.418-0.274 2.461-2.291 3.988-4.355 3.988-5.054 0-9.458-4.107-9.458-9.568 0-5.774 4.267-10.085 9.417-10.085 2.951 0 4.284 2.323 4.557 3.203z"/></svg>