<svg fill="#0061D5" role="img" viewBox="0 0 45 24" xmlns="http://www.w3.org/2000/svg"><title>Box</title><path d="M2.045 0c-1 0-1.777 0.778-1.776 1.666v13.985a8.504 8.504 0 0 0 8.546 8.326 8.739 8.739 0 0 0 7.66-4.552c1.443 2.664 4.33 4.552 7.548 4.552 4.774 0 8.659-3.774 8.659-8.547 0.111-4.552-3.774-8.328-8.546-8.327-3.22 0-6.104 1.777-7.548 4.441-1.445-2.664-4.331-4.441-7.66-4.441-1.999 0-3.776 0.667-5.219 1.665V1.666a1.704 1.704 0 0 0-1.664-1.666zM32.878 6.923a1.76 1.76 0 0 0-1.304 0.293c-0.667 0.556-0.887 1.666-0.333 2.442l4.44 5.772-4.439 5.771c-0.556 0.778-0.445 1.779 0.334 2.335 0.776 0.556 1.882 0.552 2.438-0.226l3.777-4.884 3.883 4.997c0.556 0.667 1.666 0.776 2.442 0.222 0.667-0.556 0.778-1.556 0.224-2.333l-4.331-5.77 4.331-5.664c0.556-0.776 0.552-1.886-0.224-2.442-0.889-0.556-1.888-0.445-2.442 0.334l-3.883 4.772-3.779-4.993c-0.276-0.333-0.691-0.556-1.134-0.626zM8.815 10.432c2.886 0 5.219 2.334 5.218 5.11 0 2.886-2.332 5.106-5.218 5.105-2.886 0-5.217-2.219-5.217-5.105 0-2.775 2.331-5.11 5.217-5.11z m15.321 0c2.886 0 5.217 2.334 5.217 5.11-0.111 2.886-2.442 5.106-5.217 5.105-2.886 0-5.219-2.219-5.219-5.105 0-2.775 2.332-5.11 5.219-5.11Z"/></svg>