<svg fill="#40D1F5" role="img" viewBox="0 0 26 24" xmlns="http://www.w3.org/2000/svg"><title>Brandfolder</title><path d="M0.246 24h20.832v-3.165H3.414V3.167h17.67v11.596h-1.512l3.091 3.092L25.754 14.762h-1.506V0H0.246V24zM17.408 13.441c-0.203-0.431-0.459-0.785-0.765-1.059-0.305-0.274-0.637-0.483-0.991-0.62-0.358-0.14-0.681-0.231-0.974-0.27 0.267-0.036 0.527-0.142 0.781-0.315 0.256-0.171 0.484-0.387 0.688-0.647 0.204-0.263 0.367-0.569 0.487-0.917 0.122-0.351 0.182-0.729 0.181-1.136 0-0.689-0.134-1.26-0.4-1.719-0.268-0.459-0.634-0.824-1.098-1.098-0.463-0.274-1.008-0.468-1.633-0.581-0.623-0.115-1.286-0.172-1.985-0.172-0.801 0-1.469 0.019-2.005 0.057C9.16 5.004 8.689 5.053 8.281 5.118v13.746c0.727 0.088 1.374 0.15 1.949 0.181 0.573 0.032 1.15 0.047 1.737 0.047 0.763 0 1.492-0.057 2.186-0.172 0.693-0.114 1.304-0.323 1.831-0.629 0.53-0.306 0.949-0.723 1.262-1.251 0.312-0.529 0.469-1.206 0.469-2.034C17.715 14.394 17.613 13.874 17.408 13.441zM11.05 7.027c0.967-0.118 1.991-0.057 2.445 0.323 0.404 0.337 0.645 0.637 0.645 1.509 0 0.798-0.379 1.27-0.646 1.442-0.267 0.171-0.627 0.391-1.491 0.391s-0.953 0-0.953 0V7.027zM14.269 16.252c-0.477 0.414-1.184 0.587-1.93 0.587-0.84 0-1.289-0.077-1.289-0.077v-3.971h1.203c0.756 0 1.528 0.134 1.947 0.493 0.541 0.464 0.649 0.951 0.649 1.599C14.85 15.531 14.624 15.944 14.269 16.252z"/></svg>