<svg fill="#212121" role="img" viewBox="0 0 30 24" xmlns="http://www.w3.org/2000/svg"><title>Brex</title><path d="M23.293 0a4.795 4.795 0 0 0-3.853 1.918l-0.941 1.248a2.055 2.055 0 0 1-1.627 0.813H0.125V24h6.565a4.797 4.797 0 0 0 3.852-1.918l0.941-1.247a2.053 2.053 0 0 1 1.628-0.814H29.875V0h-6.582Zm1.373 14.812h-7.016a4.797 4.797 0 0 0-3.852 1.918l-0.941 1.248a2.055 2.055 0 0 1-1.628 0.813H5.334V9.188h7.017a4.795 4.795 0 0 0 3.851-1.918l0.941-1.247a2.055 2.055 0 0 1 1.628-0.814h5.914l-0.019 9.603Z"/></svg>