<svg fill="#2E5C99" role="img" viewBox="0 0 96 24" xmlns="http://www.w3.org/2000/svg"><title>British Airways</title><path d="M93.925 17.005c-0.999 0.847-2.418 1.775-4.961 3.066-5.384 2.878-8.786 3.929-8.786 3.929s-6.464-0.935-16.816-4.025c0 0 5.22-1.511 7.714-2.323a160.331 160.331 0 0 0 7.827-2.722c4.217-1.583 6.915-3.042 8.714-4.349 0.12-0.088 0.232-0.184 0.34-0.272 0 0 1.279 0.144 2.37 0.452 1.175 0.332 2.414 0.979 3.142 1.543 0.763 0.588 1.119 1.231 1.231 1.431a2.722 2.722 0 0 1 0.284 0.903s0.056 0.34-0.012 0.708a2.314 2.314 0 0 1-0.587 1.251zM95.967 12.784a2.646 2.646 0 0 0-0.319-0.628 5.388 5.388 0 0 0-0.788-0.919 6.735 6.735 0 0 0-0.907-0.712c-1.415-0.927-3.238-1.447-4.857-1.663-2.506-0.332-5.364-0.28-5.64-0.28-0.919-0.02-6.883 0.028-8.414 0.06-6.803 0.136-15.138 0.156-17.321 0.152-22.529 0.108-32.334-0.376-43.25-2.566C5.185 4.381 0.033 2.638 0.033 2.638c8.194-0.292 55.978-2.27 64.7-2.506 5.704-0.16 9.753-0.192 13.003 0 1.651 0.092 3.206 0.232 5.144 0.56a24.783 24.783 0 0 1 4.253 1.143c1.943 0.72 3.57 1.767 4.381 2.826 0 0 0.24 0.24 0.56 0.68 0.372 0.504 0.787 1.127 0.935 1.359 1.175 1.787 1.735 2.918 1.935 3.309 0.208 0.408 0.4 0.835 0.58 1.26 0.176 0.416 0.252 0.664 0.304 0.839 0.08 0.256 0.12 0.5 0.139 0.68Z"/></svg>