<svg fill="#AB2B28" role="img" viewBox="0 0 53 24" xmlns="http://www.w3.org/2000/svg"><title>BSD</title><path d="M10.705 0.415C12.605 0.949 14.24 2.629 14.776 4.522c0.586 2.063-0.069 4.136-1.457 5.717 1.7 0.938 3.126 2.351 3.7 4.247 0.53 1.752 0.402 3.776-0.487 5.391-0.968 1.763-2.822 3.163-4.783 3.582-1.077 0.23-2.215 0.152-3.308 0.152H1.754c-0.853 0-1.307-0.608-1.308-1.385V6.52C0.446-1.439 8.89-0.098 10.705 0.415zM2.728 6.854v2.968h7.009c2.731 0 3.172-3.823 2.79-4.933-0.399-1.157-1.492-1.939-2.606-2.292-0.925-0.211-7.193-1.702-7.193 4.257z m0 5.118v9.329c0 0.252-0.013 0.215 0.252 0.215H8.197c1.455 0 2.961 0.048 4.299-0.617 1.698-0.84 2.692-3.087 2.514-4.913-0.182-1.843-1.448-3.105-3.126-3.734-0.84-0.319-2.013-0.28-2.907-0.28H2.726z m32.113-10.357c0-1.02 0.608-1.533 1.855-1.532h6.331c6.296 0 9.527 6.073 9.527 11.923 0 5.979-3.902 11.733-10.168 11.733h-6.201c-1.023 0-1.344-0.191-1.344-1.309V1.618z m2.367 0.802v18.988h5.017c5.085 0 7.803-4.668 7.803-9.399 0-4.859-2.462-9.59-7.353-9.589h-5.467z m-11.954 0.036c-2.058 0-3.96 1.685-3.96 3.9 0 1.993 2.681 3.148 5.332 4.581 2.805 1.528 5.797 3.057 5.797 6.3 0 4.459-3.335 6.765-7.638 6.766a9.724 9.724 0 0 1-5.363-1.559c-0.56-0.376-0.842-0.842-0.842-1.372 0-0.716 0.345-1.06 1.059-1.06 0.345 0 0.716 0.124 1.094 0.374 1.216 0.749 2.773 1.185 4.147 1.185 2.714 0 5.017-1.185 5.018-4.179 0-1.869-2.243-3.055-4.675-4.334-3.057-1.589-6.487-3.335-6.487-6.578 0-4.086 3.118-6.455 7.017-6.455 1.683 0 3.522 0.467 5.3 1.433a1.665 1.665 0 0 1 0.873 1.435c0 0.623-0.436 1.216-1.09 1.216-0.376 0-0.749-0.28-1.186-0.561-0.999-0.623-2.777-1.092-4.396-1.092z"/></svg>