<svg fill="#000000" role="img" viewBox="0 0 32 24" xmlns="http://www.w3.org/2000/svg"><title>Bugatti</title><path d="M0.039 0h24.73c0.028 0.005 0.056 0.016 0.084 0.017 0.58 0.025 1.148 0.12 1.701 0.29 1.941 0.6 3.334 1.818 4.146 3.687 0.604 1.391 0.665 3.005 0.42 4.198a6.163 6.163 0 0 1-1.822 3.301c-0.019 0.019-0.036 0.04-0.053 0.06 0.028 0.035 0.069 0.053 0.102 0.081a6.35 6.35 0 0 1 2.595 4.74c0.001 0.028 0.013 0.056 0.019 0.084v1.051c-0.007 0.036-0.016 0.07-0.019 0.106-0.005 0.061-0.003 0.124-0.009 0.186a7.317 7.317 0 0 1-0.28 1.393c-0.529 1.7-1.552 3.009-3.107 3.889-1.112 0.63-2.32 0.912-3.591 0.914-8.299 0.005-16.599 0.003-24.898 0.002v-6.304h3.974l0.001 2.312c0.178 0.021 9.611 0.013 9.691-0.008v-6.209h-4.07v1.895c-0.136 0.025-3.894 0.019-3.971-0.005V7.892h3.971v1.894c0.137 0.025 3.994 0.019 4.07-0.004V3.987H4.03V6.028H0.05Zm18.293 20.017h6.309c0.338 0 0.672-0.031 0.998-0.12 1.024-0.279 1.729-0.908 2.056-1.924a3.465 3.465 0 0 0-0.009-2.176 2.751 2.751 0 0 0-1.49-1.695 3.396 3.396 0 0 0-1.452-0.317h-6.411z m0.004-16.038v5.822h5.848a3.325 3.325 0 0 0 0.961-0.137c0.902-0.27 1.526-0.838 1.831-1.734 0.193-0.569 0.217-1.154 0.09-1.74-0.214-0.987-0.795-1.664-1.746-2.015a3.606 3.606 0 0 0-1.26-0.196Z"/></svg>