<svg fill="#F26822" role="img" viewBox="0 0 28 24" xmlns="http://www.w3.org/2000/svg"><title>Bugcrowd</title><path d="M27.568 12L20.784 0H7.216L0.432 12l6.784 12h13.568z m-6.537 1.875c-0.003 0.933-0.138 1.774-0.401 2.522a5.71 5.71 0 0 1-1.119 1.931 4.88 4.88 0 0 1-1.699 1.236 5.303 5.303 0 0 1-2.144 0.436 4.701 4.701 0 0 1-1.295-0.172 4.245 4.245 0 0 1-0.981-0.407 4.288 4.288 0 0 1-0.68-0.492 3.418 3.418 0 0 1-0.527-0.581h-0.045l0.023 0.218c0.012 0.188 0.02 0.374 0.022 0.562v0.597H9.433V6.417c0-0.171-0.045-0.297-0.129-0.381-0.087-0.084-0.215-0.123-0.373-0.124h-0.917V3.435h2.773c0.535-0.003 0.932 0.122 1.185 0.374 0.251 0.252 0.377 0.651 0.373 1.186v3.396c-0.003 0.292-0.011 0.528-0.023 0.708l-0.023 0.279h0.046a3.277 3.277 0 0 1 0.523-0.573c0.176-0.162 0.4-0.321 0.679-0.482 0.277-0.161 0.608-0.295 0.99-0.407 0.43-0.113 0.871-0.17 1.314-0.167 0.794 0.003 1.508 0.153 2.141 0.446a4.656 4.656 0 0 1 1.635 1.255c0.452 0.543 0.799 1.189 1.041 1.939 0.24 0.744 0.358 1.574 0.361 2.486m-3.169 1.589c0.156-0.451 0.233-0.963 0.236-1.544-0.003-0.745-0.127-1.392-0.37-1.943-0.244-0.547-0.585-0.971-1.02-1.272a2.654 2.654 0 0 0-1.52-0.456 2.906 2.906 0 0 0-1.096 0.21 2.682 2.682 0 0 0-0.938 0.666 3.21 3.21 0 0 0-0.655 1.147c-0.159 0.467-0.24 1.024-0.244 1.671 0 0.449 0.06 0.896 0.18 1.327 0.114 0.414 0.3 0.805 0.546 1.153 0.239 0.339 0.55 0.62 0.91 0.817 0.362 0.199 0.789 0.302 1.274 0.305 0.388 0.002 0.772-0.079 1.128-0.241a2.748 2.748 0 0 0 0.931-0.704c0.271-0.309 0.484-0.686 0.638-1.136Z"/></svg>