<svg fill="#4949E4" role="img" viewBox="0 0 17 24" xmlns="http://www.w3.org/2000/svg"><title>Bugsnag</title><path d="M8.501 24c-4.596 0-8.336-3.74-8.336-8.336v-4.135a0.62 0.62 0 0 1 0.62-0.62h2.957L3.731 1.337 1.404 2.77v5.45a0.62 0.62 0 0 1-1.24 0V2.7c0-0.384 0.204-0.749 0.53-0.95L3.274 0.166a1.114 1.114 0 0 1 1.699 0.949l0.01 9.796h3.52a4.759 4.759 0 0 1 4.753 4.754 4.759 4.759 0 0 1-4.753 4.753 4.759 4.759 0 0 1-4.754-4.753l-0.003-3.515H1.404v3.515c0 3.912 3.183 7.097 7.097 7.097a7.104 7.104 0 0 0 7.097-7.097c0-3.915-3.184-7.098-7.097-7.098h-1.076a0.62 0.62 0 0 1 0-1.24H8.501c4.596 0 8.336 3.74 8.336 8.336S13.097 24 8.501 24zM4.983 12.15l0.004 3.514A3.518 3.518 0 0 0 8.501 19.178a3.518 3.518 0 0 0 3.514-3.514A3.518 3.518 0 0 0 8.501 12.149z m4.513 3.514a0.995 0.995 0 0 1-0.995 0.994 0.995 0.995 0 0 1-0.995-0.994 0.995 0.995 0 0 1 0.995-0.995 0.995 0.995 0 0 1 0.995 0.995Z"/></svg>