<svg fill="#023E84" role="img" viewBox="0 0 56 24" xmlns="http://www.w3.org/2000/svg"><title>Buhl</title><path d="M49.56 9.405a3.917 3.917 0 0 0-0.968-1.802 3.677 3.677 0 0 0-1.755-0.916 11.933 11.933 0 0 0-2.636-0.26c-0.247 0-0.515 0.01-0.831 0.031a14.772 14.772 0 0 0-0.937 0.092l-0.924 0.125c-0.298 0.042-0.577 0.073-0.813 0.092-0.165 0-0.268-0.052-0.308-0.146V0.323a0.286 0.286 0 0 0-0.076-0.238 0.277 0.277 0 0 0-0.237-0.081h-2.328a0.208 0.208 0 0 0-0.113 0.021 0.277 0.277 0 0 0-0.185 0.302v0.1c0 0.063-0.01 0.125-0.01 0.209l0.01 0.25v22.434a0.286 0.286 0 0 0 0.076 0.239 0.277 0.277 0 0 0 0.233 0.085h2.308c0.206 0 0.309-0.104 0.309-0.324v-14.033a0.399 0.399 0 0 1 0.277-0.229 12.649 12.649 0 0 1 2.811-0.26 7.386 7.386 0 0 1 1.772 0.177 2.031 2.031 0 0 1 1.06 0.615 2.516 2.516 0 0 1 0.516 1.189 7.224 7.224 0 0 1 0.133 1.563v10.968c0 0.219 0.103 0.323 0.299 0.323h2.297c0.206 0 0.298-0.104 0.298-0.323V12.314a11.079 11.079 0 0 0-0.277-2.909ZM3.505 19.673H0.612c-0.206 0-0.309 0.092-0.31 0.288v2.925c0 0.196 0.103 0.288 0.31 0.288h2.893c0.206 0 0.309-0.092 0.309-0.288v-2.925a0.271 0.271 0 0 0-0.309-0.288M55.389 0h-2.308c-0.206 0-0.309 0.104-0.309 0.323v23.001a0.286 0.286 0 0 0 0.075 0.238 0.277 0.277 0 0 0 0.234 0.085h2.308c0.206 0 0.308-0.104 0.309-0.323V0.323c0.001-0.219-0.102-0.323-0.309-0.323m-21.163 7.029h-2.297c-0.206 0-0.298 0.103-0.298 0.31v13.651c0 0.165-0.103 0.277-0.298 0.34a8.309 8.309 0 0 1-1.164 0.185 14.08 14.08 0 0 1-1.349 0.062 8.448 8.448 0 0 1-1.874-0.176 2.137 2.137 0 0 1-1.741-1.781 8.379 8.379 0 0 1-0.165-1.832v-10.454a0.27 0.27 0 0 0-0.298-0.309h-2.297c-0.206 0-0.298 0.103-0.298 0.309v10.774a11.541 11.541 0 0 0 0.298 2.853 3.638 3.638 0 0 0 1.061 1.802 4.409 4.409 0 0 0 2.059 0.957 16.157 16.157 0 0 0 3.296 0.277c0.36 0 0.773-0.02 1.226-0.052s0.923-0.082 1.411-0.144q0.731-0.093 1.442-0.216c0.474-0.082 0.917-0.165 1.318-0.247 0.206-0.042 0.298-0.144 0.299-0.309V7.334a0.297 0.297 0 0 0-0.331-0.309Zm-16.21 1.29a4.547 4.547 0 0 0-2.13-1.397 10.779 10.779 0 0 0-3.255-0.427 11.31 11.31 0 0 0-1.7 0.124 9.002 9.002 0 0 1-1.091 0.125q-0.247 0-0.247-0.219V0.313a0.277 0.277 0 0 0-0.073-0.232 0.268 0.268 0 0 0-0.227-0.076h-2.308c-0.205 0-0.297 0.1-0.298 0.412v22.705c0 0.042 0.092 0.146 0.268 0.209a20.081 20.081 0 0 0 2.277 0.479 19.388 19.388 0 0 0 2.822 0.184 10.617 10.617 0 0 0 3.693-0.554 4.824 4.824 0 0 0 2.286-1.729 7.271 7.271 0 0 0 1.164-2.955 22.92 22.92 0 0 0 0.33-4.222 16.388 16.388 0 0 0-0.35-3.701 5.886 5.886 0 0 0-1.161-2.514m-1.662 9.831a5.078 5.078 0 0 1-0.607 2.105 2.544 2.544 0 0 1-1.359 1.116 7.386 7.386 0 0 1-2.379 0.313c-0.34 0-0.739-0.021-1.185-0.052a4.247 4.247 0 0 1-1.029-0.177 0.312 0.312 0 0 1-0.216-0.345v-11.53a0.427 0.427 0 0 1 0.247-0.448 8.54 8.54 0 0 1 0.969-0.184 9.694 9.694 0 0 1 1.421-0.093 7.271 7.271 0 0 1 2.07 0.251 2.4 2.4 0 0 1 1.318 0.938 4.57 4.57 0 0 1 0.685 1.87 17.773 17.773 0 0 1 0.196 2.961 29.775 29.775 0 0 1-0.124 3.273z m-12.849-11.328H0.612c-0.206 0-0.309 0.092-0.31 0.288v2.924c0 0.196 0.103 0.288 0.31 0.288h2.893c0.206 0 0.309-0.092 0.309-0.288V7.11a0.271 0.271 0 0 0-0.309-0.288"/></svg>