<svg fill="#14CC80" role="img" viewBox="0 0 36 24" xmlns="http://www.w3.org/2000/svg"><title>Buildkite</title><path d="M35.204 6.287l-11.36-5.713v11.425l11.36-5.711zM12.32 17.715V6.287L0.796 0.574V12.001l11.526 5.714zM0.494 0.087a0.566 0.566 0 0 1 0.558-0.025l11.268 5.586 11.27-5.586a0.572 0.572 0 0 1 0.512 0l11.36 5.714a0.572 0.572 0 0 1 0.315 0.511v11.422a0.575 0.575 0 0 1-0.315 0.512l-11.36 5.719a0.576 0.576 0 0 1-0.832-0.511v-10.504l-10.695 5.304a0.581 0.581 0 0 1-0.51 0L0.541 12.513A0.573 0.573 0 0 1 0.223 12.001V0.574a0.57 0.57 0 0 1 0.271-0.487z"/></svg>