<svg fill="#E31E52" role="img" viewBox="0 0 24 24" xmlns="http://www.w3.org/2000/svg"><title>Bukalapak</title><path d="M10.975 23.844a3.158 3.158 0 1 1-1.95-6.008 3.158 3.158 0 0 1 1.95 6.008Zm6.554-2.883c4.047-1.315 7.315-5.981 5.689-10.984-1.626-5.003-7.012-6.856-11.058-5.541a1.89 1.89 0 0 0-1.252 2.249l0.414 1.682a1.892 1.892 0 0 0 2.42 1.348l0.162-0.053c1.861-0.606 3.592 0.504 4.071 2.019 0.505 1.507-0.244 3.422-2.106 4.027l-0.162 0.054a1.891 1.891 0 0 0-1.166 2.512l0.653 1.604a1.89 1.89 0 0 0 2.335 1.083Zm-6.962-7.982L7.84 1.751A2.3 2.3 0 0 0 4.896 0.112l-2.952 0.959A2.3 2.3 0 0 0 0.525 4.127L4.919 14.814a2.3 2.3 0 0 0 2.841 1.318l1.285-0.417a2.298 2.298 0 0 0 1.522-2.736Z"/></svg>