<svg fill="#000000" role="img" viewBox="0 0 28 24" xmlns="http://www.w3.org/2000/svg"><title>Bun</title><path d="M14 24c7.506 0 13.59-4.913 13.59-10.972 0-3.758-2.33-7.076-5.91-9.044-1.456-0.81-2.601-1.537-3.555-2.14C16.331 0.703 15.223 0 14 0c-1.242 0-2.643 0.889-4.492 2.062a56.535 56.535 0 0 1-3.189 1.922C2.74 5.952 0.41 9.271 0.41 13.028c0 6.059 6.084 10.971 13.59 10.971v0.001ZM12.413 3.75c0.378-0.86 0.57-1.789 0.564-2.728 0-0.164 0.229-0.212 0.261-0.033 0.745 3.152-1.022 4.713-2.33 5.236-0.14 0.054-0.225-0.137-0.116-0.236a6.527 6.527 0 0 0 1.621-2.239Zm2.331-0.116a6.591 6.591 0 0 0-0.886-2.611v-0.018c-0.078-0.139 0.097-0.298 0.21-0.195 2.222 2.391 1.48 4.606 0.63 5.72-0.093 0.117-0.26-0.003-0.214-0.143a6.625 6.625 0 0 0 0.26-2.753Zm2.011-0.635a6.486 6.486 0 0 0-1.825-2.045v-0.016c-0.127-0.096-0.027-0.31 0.129-0.247 2.939 1.231 3.142 3.601 2.785 4.991a0.131 0.131 0 0 1-0.056 0.08 0.125 0.125 0 0 1-0.173-0.029 0.138 0.138 0 0 1-0.025-0.094 6.672 6.672 0 0 0-0.835-2.64Zm-5.761 0.635c-0.699 0.618-1.452 0.861-2.336 1.133-0.133 0-0.221-0.088-0.177-0.205 1.984-1.029 2.691-1.867 3.397-3.146 0 0 0.176-0.134 0.213 0.096 0 0.344-0.395 1.505-1.097 2.122Zm5.601 12.726a3.349 3.349 0 0 1-1.062 1.759c-0.392 0.392-0.906 0.64-1.456 0.702a2.467 2.467 0 0 1-1.503-0.702 3.347 3.347 0 0 1-1.047-1.759 0.276 0.276 0 0 1 0.072-0.224 0.265 0.265 0 0 1 0.219-0.078h4.49a0.256 0.256 0 0 1 0.215 0.079c0.057 0.06 0.083 0.142 0.072 0.223Zm-6.182-2.464a2.109 2.109 0 0 1-2.7-0.278 2.242 2.242 0 0 1-0.263-2.771c0.234-0.361 0.57-0.641 0.96-0.807a2.084 2.084 0 0 1 1.237-0.125c0.414 0.085 0.796 0.296 1.095 0.601a2.242 2.242 0 0 1 0.462 2.395 2.187 2.187 0 0 1-0.791 0.984v0.001Zm9.621 0.005a2.106 2.106 0 0 1-2.697-0.286 2.224 2.224 0 0 1-0.619-1.547c0-0.435 0.125-0.861 0.362-1.222 0.234-0.361 0.57-0.642 0.962-0.807a2.088 2.088 0 0 1 1.238-0.123c0.416 0.086 0.797 0.297 1.096 0.605a2.242 2.242 0 0 1 0.453 2.397 2.188 2.188 0 0 1-0.795 0.983Z"/></svg>