<svg fill="#0075BB" role="img" viewBox="0 0 25 24" xmlns="http://www.w3.org/2000/svg"><title>Bungie</title><path d="M24.842 12.801l-1.145-0.851V0L12.92 0.521 2.143 0.001v3.05L0.465 2.383c-0.062-0.026-0.236-0.056-0.364 0.086-0.141 0.157-0.098 0.399 0.078 0.503 0.654 0.405 1.309 0.809 1.964 1.214v7.841c0.016 3.369 2.558 6.222 5.064 8.289 2.468 2.023 4.965 3.299 5.279 3.457 0.073 0.038 0.224 0.114 0.45 0.227l0.416-0.228c0.208-0.104 2.759-1.391 5.28-3.457 2.281-1.879 4.577-4.413 4.987-7.388l0.895 0.44c0.201 0.101 0.481-0.052 0.469-0.31-0.007-0.176-0.141-0.254-0.141-0.256zM2.521 0.398l10.399 0.501c3.466-0.166 6.933-0.334 10.399-0.502V11.668l-0.512-0.38 0.005-0.375V0.873l-9.887 0.482-9.886-0.482v2.533l-0.518-0.205Zm16.564 3.06v-0.465h1.704l-0.991 2.347h-0.55l0.815-1.882zM12.351 8.408c0.251 0.101 0.386 0.356 0.386 0.356l0.62 1.133 2.014 1.331c-0.179 0.324-0.243 0.58-0.275 0.682a0.933 0.933 0 0 0-0.021 0.074l0.289 1.525c-0.015 0.005-0.029 0.007-0.043 0.011-0.42 0.139-0.796 0.376-1.181 0.588-0.265 0.149-0.317 0.176-0.45 0.225-0.369 0.133-0.63 0.078-0.853 0.017-0.03-0.009-0.06-0.016-0.089-0.024-0.243-0.045-0.608-0.358-0.901-0.609-0.408-0.349-0.538-0.451-0.842-0.59-0.014-0.008-0.029-0.014-0.045-0.02l0.467-1.635c-0.618-1.005-1.234-2.011-1.851-3.016a0.149 0.149 0 0 1 0.013-0.196l1.26-2.345c0.046-0.072 0.142-0.085 0.204-0.044 0.87 0.353 1.725 0.741 2.581 1.125 0.074 0.03 0.108 0.118 0.077 0.194l-0.566 0.904c-0.035 0.083-0.126 0.111-0.191 0.083l-1.292-0.518-0.195 0.321c-0.002 0.001 0.201 0.081 0.884 0.428z m7.042 7.255c0.06 0.167-0.144 0.359-0.188 0.51-0.018 0.062-0.009 0.145-0.031 0.21-0.092 0.26-0.3 0.486-0.433 0.725a0.268 0.268 0 0 1-0.104-0.032c-0.14-0.076 0.316-0.606 0.352-0.67 0.087-0.149-0.757-0.149-0.806-0.173-0.176-0.087-0.308-0.313-0.376-0.488-0.069-0.181-0.127-0.515 0.108-0.599 0.102-0.039 0.219 0.017 0.33-0.023 0.086-0.032 0.16-0.131 0.215-0.195-0.248-0.199-0.48-0.271-0.708-0.271-0.393 0-0.778 0.214-1.22 0.369-0.3 0.057-0.579 0.102-0.703 0.127-0.529 0.108-1.056 0.561-1.474 0.7-0.645 0.234-1.192 0.199-1.245 0.195-0.603-0.047-0.997-0.051-1.9-0.814-0.47-0.372-0.591-0.64-1.815-0.897-0.541-0.109-1.035-0.235-1.006-0.537 0.008-0.19 0.331-0.371 0.247-0.562-0.044-0.1-0.087-0.342-0.014-0.499-0.155-0.294-0.297-0.358-0.717-0.489-0.249-0.078-0.455-0.073-0.468-0.07 0.016 0.084 0.02 0.172 0.005 0.256-0.038 0.203-0.137 0.723-0.537 0.657-0.017-0.047 0.172-0.264-0.13-0.62-0.182-0.21-0.551-0.81-0.152-1.095 0.451-0.315 1.031-0.105 1.376 0.076 0.107 0.092 0.912 0.188 1.285 0.266 0.442 0.087 0.779 0.497 0.468 0.804-0.202 0.166-0.524 0.393-0.367 0.467 0.107 0.024 0.521 0.121 0.6 0.142 0.238 0.064 0.511 0.147 0.745 0.241 0.009 0.003 0.246 0.101 0.373 0.183 0.455 0.292 1.072 1.004 1.58 1.098 0.088 0.02 0.291 0.094 0.57 0.094 0.41 0 0.763-0.188 0.864-0.247 0.068-0.036 0.133-0.073 0.199-0.109 0.383-0.216 0.738-0.432 1.109-0.556 0.297-0.099 0.509-0.103 0.539-0.103 0.26-0.029 0.511-0.044 0.589-0.069 0.389-0.122 0.788-0.264 1.194-0.264 0.548 0 0.922 0.255 1.204 0.635 0.081 0.109 0.479 0.667 0.37 0.805-0.121 0.157-0.385 0.323-0.418 0.533-0.032 0.212 0.073 0.211 0.206 0.197 0.133-0.014 0.244-0.023 0.284 0.092z m-4.728 3.007c0.05 0.002 0.031 0.069 0.066 0.053 0.033-0.016 0.062-0.021 0.082 0.035 0.026 0.073-0.068 0.043-0.043 0.074 0.032 0.042-0.077 0.191-0.144 0.224-0.068 0.031-0.065-0.052-0.116-0.053-0.051-0.002-0.035 0.032-0.058-0.011-0.024-0.042-0.007-0.075 0.019-0.099 0.026-0.024-0.004-0.068-0.004-0.068l-0.124-0.39-1.039 0.844 1.045 0.927s0.171 0.357 0.086 0.354c-0.209-0.007-0.35-0.038-0.351-0.038l-1.154-0.938-1.155 0.938s-0.141 0.03-0.35 0.037c-0.086 0.003 0.086-0.353 0.086-0.353l1.044-0.927-1.039-0.844-0.124 0.39s-0.03 0.043-0.004 0.068c0.026 0.024 0.043 0.057 0.02 0.099-0.024 0.042-0.007 0.009-0.059 0.01-0.05 0.001-0.047 0.084-0.115 0.053-0.068-0.032-0.176-0.182-0.144-0.223 0.024-0.031-0.069-0.001-0.045-0.074 0.02-0.056 0.048-0.051 0.083-0.035 0.035 0.016 0.016-0.051 0.066-0.053 0.073-0.002 0.103-0.544 0.103-0.544l-0.642-0.566-0.094-0.112s-0.1 0.02-0.169-0.045c-0.069-0.064-0.09-0.245-0.021-0.327 0.064-0.077 0.202-0.091 0.321 0.023 0.068 0.064 0.055 0.137 0.055 0.137l0.116 0.098 0.678 0.516s0.539-0.183 0.534-0.232c-0.005-0.05 0.064-0.039 0.044-0.071-0.02-0.031-0.029-0.06 0.025-0.086 0.069-0.034 0.051 0.062 0.079 0.034 0.038-0.037 0.203 0.049 0.243 0.112 0.039 0.063-0.045 0.07-0.04 0.121 0.005 0.049 0.037 0.03-0.002 0.058-0.039 0.029-0.075 0.015-0.102-0.008-0.038-0.03-0.017-0.046-0.017-0.046l-0.423 0.283 1.047 0.93 1.047-0.93-0.423-0.283s0.021 0.016-0.017 0.046c-0.027 0.023-0.063 0.037-0.102 0.008-0.039-0.028-0.007-0.009-0.002-0.058 0.005-0.051-0.079-0.058-0.04-0.121 0.041-0.063 0.206-0.149 0.243-0.112 0.028 0.028 0.01-0.069 0.079-0.034 0.055 0.026 0.047 0.055 0.025 0.086-0.02 0.032 0.049 0.021 0.044 0.071-0.004 0.05 0.534 0.233 0.534 0.232l0.678-0.516 0.116-0.098s-0.014-0.073 0.054-0.137c0.119-0.115 0.257-0.1 0.321-0.023 0.069 0.082 0.048 0.263-0.021 0.327-0.069 0.064-0.169 0.045-0.169 0.045l-0.094 0.112-0.642 0.566c0.001 0 0.035 0.544 0.105 0.544zM12.592 6.236c-0.206-0.088-0.399-0.17-1.327-0.567l0.803-1.353a0.15 0.15 0 0 1 0.202-0.052l0.985 0.583a0.147 0.147 0 0 1 0.053 0.201z m0.975-1.024c0.044-0.073 0.139-0.089 0.203-0.048l0.9 0.532a0.146 0.146 0 0 1 0.049 0.202c-0.176 0.28-0.493 0.79-0.716 1.149a0.418 0.418 0 0 0-0.171-0.233 0.396 0.396 0 0 0-0.101-0.062l-0.872-0.391Zm1.328 0.907a0.149 0.149 0 0 1 0.204-0.047l0.809 0.476a0.147 0.147 0 0 1 0.048 0.202c-0.934 1.488-1.086 1.734-1.351 2.157-0.007 0.011-0.011 0.023-0.017 0.034a0.147 0.147 0 0 1-0.198 0.042l-0.809-0.478c-0.111-0.067-0.055-0.202-0.048-0.201 0.006 0 0.485-0.77 1.362-2.185z m1.194 0.925a0.152 0.152 0 0 1 0.204-0.048l0.642 0.382a0.146 0.146 0 0 1 0.049 0.202L15.725 9.585c-0.047 0.074-0.143 0.087-0.203 0.048l-0.643-0.383a0.144 0.144 0 0 1-0.048-0.201zM0.315 2.743c-0.056-0.033-0.034-0.131 0.052-0.111L7.531 5.48l-0.134-2.501 3.63 2.57s-0.042-0.017-0.104-0.018c-0.12 0-0.214 0.062-0.238 0.122-0.245 0.457-0.491 0.914-0.737 1.371l-0.924-0.646-0.39 1.505Zm18.076 17.281c-2.483 2.037-5.014 3.315-5.214 3.415l-0.249 0.135c-0.086-0.044-0.172-0.088-0.258-0.131-0.22-0.109-2.745-1.386-5.222-3.419-2.482-2.039-4.924-4.833-4.927-7.997v-7.606c0.173 0.106 0.345 0.213 0.518 0.32v7.29c0 6.032 9.286 10.763 9.682 10.96l0.213 0.109 0.197-0.109c0.384-0.193 9.176-4.677 9.652-10.476 0.159 0.078 0.317 0.157 0.476 0.236-0.336 2.864-2.576 5.393-4.868 7.273z m6.267-6.891h-0.002c-0.009 0-0.023-0.004-0.023-0.004l-5.761-2.838-0.396 2.659-4.839-3.236-0.662-1.221L15.095 9.692l0.288 0.171c0.072 0.045 0.19 0.063 0.225 0.063 0.221 0 0.343-0.2 0.343-0.2l0.154-0.246 0.148-0.218 1.117 0.923 0.355-2.343 6.963 5.178c0.052 0.034 0.029 0.112-0.031 0.113z"/></svg>