<svg fill="#3394D7" role="img" viewBox="0 0 59 24" xmlns="http://www.w3.org/2000/svg"><title>bunq</title><path d="M40.167 18.333h2.666v-6.999a6.003 6.003 0 0 0-6.001-6 6.003 6.003 0 0 0-5.998 6v7.001h2.666v-7.001c0-2.023 1.494-3.666 3.335-3.666 1.837 0 3.333 1.643 3.332 3.666z m-14.669-12.663h2.668v6.998a6.003 6.003 0 0 1-5.998 6.001 6.003 6.003 0 0 1-6.001-6.001V5.667h2.666v7.001c0 2.023 1.494 3.666 3.335 3.666 1.837 0 3.333-1.643 3.332-3.666zM0.5 0V12.001c0 0.111 0.002 0.225 0.01 0.336H0.5v5.998h2.332l0.133-1.16A6.67 6.67 0 0 0 13.835 12.001a6.67 6.67 0 0 0-10.667-5.336V0.002z m6.501 7.666c2.298 0 4.166 1.941 4.166 4.333 0 2.393-1.868 4.333-4.169 4.333-2.298 0-4.166-1.941-4.166-4.333 0-2.393 1.868-4.333 4.166-4.333z m44.834-2.332A6.67 6.67 0 0 0 45.165 12.001a6.67 6.67 0 0 0 10.667 5.334v6.665H58.5V12.001a5.196 5.196 0 0 0-0.01-0.336H58.5V5.67h-2.332l-0.133 1.16a6.624 6.624 0 0 0-4.2-1.492z m0.167 2.332c2.298 0 4.166 1.941 4.166 4.333 0 2.393-1.868 4.333-4.166 4.333-2.301 0-4.169-1.941-4.169-4.333 0-2.393 1.868-4.333 4.169-4.333Z"/></svg>