<svg fill="#000000" role="img" viewBox="0 0 28 24" xmlns="http://www.w3.org/2000/svg"><title>Burton</title><path d="M13.983 0a0.292 0.292 0 0 0-0.241 0.134l-1.118 1.731a0.716 0.716 0 0 1-0.405 0.301l-0.66 0.188a0.86 0.86 0 0 0-0.519 0.416L8.211 7.953a0.852 0.852 0 0 1-0.551 0.424c-0.177 0.041-0.445 0.099-0.713 0.152a0.634 0.634 0 0 0-0.46 0.37c-0.339 0.788-0.996 2.312-1.327 3.078a1.15 1.15 0 0 1-0.585 0.592l-0.487 0.219a1.154 1.154 0 0 0-0.623 0.69s-0.743 1.911-1.315 3.634c-0.518 1.557-1.872 6.248-1.873 6.248a0.49 0.49 0 0 0 0.104 0.564 0.367 0.367 0 0 0 0.535-0.122s1.809-3.87 2.469-5.133a0.356 0.356 0 0 1 0.529-0.107c0.291 0.189 0.434 0.697 0.761 0.992a0.296 0.296 0 0 0 0.484-0.118c0.236-0.579 0.79-2.38 0.976-3.126 0.156-0.621 0.683-0.677 0.985-0.222l0.217 0.269a2.585 2.585 0 0 0 0.819 0.679l0.401 0.213a0.574 0.574 0 0 1 0.262 0.281l0.439 1.029a0.86 0.86 0 0 0 0.759 0.522l0.136 0.006a0.861 0.861 0 0 1 0.727 0.456c0.202 0.38 0.529 1.07 0.807 1.522a0.298 0.298 0 0 0 0.544-0.069 17.703 17.703 0 0 0 0.688-2.364c0.162-0.822 0.664-0.717 0.837-0.495 0.063 0.08 0.281 0.41 0.341 0.478a0.289 0.289 0 0 0 0.526-0.112 14.128 14.128 0 0 0 0.463-2.185c0.044-0.334 0.411-0.376 0.586-0.091 0.187 0.305 0.492 0.85 0.658 1.174a2.969 2.969 0 0 1 0.27 0.708l0.242 1.091a2.498 2.498 0 0 0 0.765 1.294 3.882 3.882 0 0 0 0.547 0.485 0.307 0.307 0 0 0 0.469-0.121c0.127-0.292 0.289-0.788 0.385-1.074a0.291 0.291 0 0 1 0.221-0.192c0.123-0.024 0.206-0.035 0.382-0.082a0.969 0.969 0 0 0 0.647-0.564l0.237-0.573a0.295 0.295 0 0 1 0.536-0.014c0.086 0.155 0.24 0.478 0.311 0.656a2.266 2.266 0 0 1 0.102 0.283l0.189 0.73a2.58 2.58 0 0 0 0.332 0.756l0.087 0.134a2.446 2.446 0 0 0 0.9 0.828 0.284 0.284 0 0 0 0.401-0.139c0.269-0.627 0.373-1.56 0.497-2.162a0.327 0.327 0 0 1 0.593-0.106c0.702 1.15 2.67 4.499 2.669 4.499a0.358 0.358 0 0 0 0.621-0.355c-0.05-0.113-1.728-4.346-3.341-8.093-1.474-3.425-2.897-6.398-2.898-6.398a0.525 0.525 0 0 0-0.638-0.283c-0.432 0.128-0.902 0.41-1.229 0.523a0.617 0.617 0 0 1-0.742-0.29c-0.398-0.73-1.276-2.637-2.083-4.147-0.873-1.634-1.98-3.809-2.574-4.669a0.292 0.292 0 0 0-0.245-0.126z"/></svg>