<svg fill="#EB4714" role="img" viewBox="0 0 63 24" xmlns="http://www.w3.org/2000/svg"><title>BuySellAds</title><path d="M62.588 23.399h-6.956l-1.855-7.005-8.549 7.005h-6.93l7.243-22.852h9.804z m-15.427-7.215h6.59l-3.295-12.29zM14.87 11.609c2.433 0.391 4.342 2.718 4.342 5.567 0 3.321-1.754 6.197-6.225 6.197H0.412V0.547h11.192c4.497 0 6.666 2.956 6.665 5.831 0 2.824-1.228 4.759-3.399 5.231m-9.072 6.824l5.15-0.026c1.386 0 2.249-0.811 2.249-2.042 0-1.124-0.811-2.039-2.249-2.039H5.798z m0-12.917v3.79h4.471c1.202 0 2.013-0.782 2.013-1.907 0-1.098-0.811-1.883-2.013-1.883z m20.604 1.176c0 3.373 11.87 0.523 11.896 9.621 0 4.549-3.034 7.687-9.099 7.687-3.661 0-6.746-0.863-9.046-2.43l2.3-5.021c1.751 1.36 3.948 2.326 6.93 2.327 2.013 0 2.979-0.782 2.98-1.855 0-3.738-11.974-0.132-11.948-9.832 0.026-3.79 3.399-7.189 9.202-7.189 3.295 0 6.536 0.627 9.072 2.246l-2.168 4.995c-2.381-1.593-4.837-2.352-7.086-2.301-1.699 0.052-3.034 0.549-3.033 1.752"/></svg>