<svg fill="#F0D722" role="img" viewBox="0 0 27 24" xmlns="http://www.w3.org/2000/svg"><title>BVG</title><path d="M19.285 0c4.019 0 7.138 3.18 7.416 7.104 0.166 2.435-0.59 4.429-2.378 6.252l-3.968 4.028-0.17 0.173-0.086 0.087-0.235 0.239-0.236 0.239a20218.423 20218.423 0 0 1-5.456 5.531c-0.082 0.082-0.356 0.333-0.635 0.347h-0.025c-0.3 0-0.588-0.264-0.661-0.347l-5.389-5.463-0.142-0.144-0.283-0.287-0.236-0.241A6605.624 6605.624 0 0 1 2.701 13.355C0.887 11.533 0.133 9.54 0.299 7.104 0.574 3.181 3.696 0 7.715 0c2.593 0 4.082 1.56 5.785 3.336 1.693-1.774 3.192-3.336 5.785-3.336z m-4.43 7.14c-0.287 0-0.491 0.192-0.563 0.529l-0.661 3.408c-0.047 0.324-0.107 0.707-0.132 0.958a6.292 6.292 0 0 0-0.132-0.958l-0.731-3.409c-0.072-0.397-0.312-0.529-0.588-0.529-0.432 0-0.636 0.386-0.528 0.841l1.116 4.621c0.108 0.456 0.336 0.707 0.864 0.707 0.456 0 0.732-0.251 0.84-0.756l1.044-4.643c0.096-0.468-0.169-0.768-0.529-0.769z m3.301-0.036c-1.404 0-2.315 0.937-2.316 3.121 0 2.076 0.408 3.071 2.208 3.071 1.116 0 1.631-0.383 1.63-1.26v-1.8c0-0.371-0.118-0.528-0.454-0.528h-0.996c-0.324 0-0.48 0.156-0.48 0.456 0 0.275 0.18 0.432 0.48 0.432h0.336v1.728a1.118 1.118 0 0 1-0.385 0.048c-0.804 0-1.187-0.385-1.187-2.063 0-1.801 0.456-2.208 1.14-2.209 0.516 0 0.768 0.18 1.02 0.18a0.484 0.484 0 0 0 0.324-0.84c-0.336-0.264-1.019-0.336-1.32-0.336Zm-8.916 0.072H8.052a0.463 0.463 0 0 0-0.48 0.456v5.197c0 0.312 0.204 0.408 0.48 0.407h1.091c1.549 0 1.896-0.864 1.908-1.823 0-0.613-0.3-1.297-1.163-1.345 0.792-0.169 0.996-0.732 0.996-1.368 0-0.791-0.216-1.524-1.644-1.524z m-0.204 3.325c0.756 0 0.815 0.408 0.815 0.948v0.022c-0.002 0.496-0.082 0.939-0.731 0.939h-0.408v-1.91h0.324z m0.024-2.495c0.636 0 0.732 0.228 0.732 0.839v0.078l-0.001 0.033c-0.011 0.358-0.096 0.752-0.791 0.752h-0.276V8.004h0.336z"/></svg>