<svg fill="#813588" role="img" viewBox="0 0 25 24" xmlns="http://www.w3.org/2000/svg"><title>Byju's</title><path d="M2.814 0A2.328 2.328 0 0 0 0.483 2.327v19.347a2.328 2.328 0 0 0 2.331 2.326h19.372A2.328 2.328 0 0 0 24.517 21.674V2.327A2.328 2.328 0 0 0 22.186 0z m10.068 3.501a3.448 3.448 0 0 1 0.07 0 4.323 4.323 0 0 1 3.271 1.464 4.453 4.453 0 0 1 0.962 2.368 4.163 4.163 0 0 1-0.456 2.273 5.031 5.031 0 0 1 2.427 2.011 5.244 5.244 0 0 1 0.731 3.379 4.686 4.686 0 0 1-1.151 2.469 4.847 4.847 0 0 1-2.264 1.537l-4.993 1.441a1.496 1.496 0 0 1-0.411 0.058 1.499 1.499 0 0 1-1.434-1.076L6.015 6.902a1.489 1.489 0 0 1 1.019-1.843l4.963-1.431a3.448 3.448 0 0 1 0.885-0.127z m0.248 0.862a3.095 3.095 0 0 0-0.856 0.122L7.433 5.88a0.745 0.745 0 0 0-0.511 0.923l3.535 12.223a0.746 0.746 0 0 0 0.922 0.51l4.671-1.347a4.091 4.091 0 0 0-0.897-8.014 3.302 3.302 0 0 0 1.139-2.275 3.484 3.484 0 0 0-0.929-2.553 2.993 2.993 0 0 0-2.233-0.984Z"/></svg>