<svg fill="#7ED321" role="img" viewBox="0 0 25 24" xmlns="http://www.w3.org/2000/svg"><title>Cachet</title><path d="M12.241 0C5.619 0 0.241 5.379 0.241 12c0 6.621 5.379 12 12 12 6.622 0 12-5.379 12-12 0-1.471-0.266-2.881-0.75-4.186l-0.27-0.724-1.142 1.142 0.102 0.294c0.381 1.087 0.587 2.255 0.587 3.474a10.52 10.52 0 0 1-10.527 10.528A10.52 10.52 0 0 1 1.713 12 10.52 10.52 0 0 1 12.241 1.472c1.856 0 3.596 0.48 5.11 1.321l0.327 0.182 1.076-1.076-0.565-0.323A11.952 11.952 0 0 0 12.241 0zM23.707 0.6l-14.221 14.221-3.802-3.802-1.054 1.053 4.855 4.855L24.759 1.653z"/></svg>