<svg fill="#000000" role="img" viewBox="0 0 62 24" xmlns="http://www.w3.org/2000/svg"><title>Cadillac</title><path d="M7.447 5.389h5.379l-1.017-1.838h18.25v1.833h0.609v-2.467H5.781l1.666 2.472z m0.517 2.424h22.699v-1.839H7.67l0.294 1.839z m5.765 3.077h-5.267l-0.409-2.507h22.615v2.507h-0.611v-1.919H13.537l0.192 1.919z m8.433 1.77h8.503v1.316H22.162v-1.316z m9.175-9.743h8.582v3.691h-8.582V2.917z m-21.65 14.237c0.138 0.22 0.396 0.476 1.252 0.718 0.373 0.095 0.78 0.189 1.317 0.312l0.205 0.049H21.567v-1.304H9.567c0.033 0.077 0.072 0.153 0.117 0.225h0.003z m11.88-1.992H9.165l-0.608-3.681H21.567v3.681z m0.593 5.167c3.178 0.647 6.281 1.248 8.51 1.61V15.758H22.16V20.329z m31.383-9.439h-13.038v-3.694h13.633l-0.595 3.694z m-13.038-6.8v1.312l14.022-0.005 0.879-1.307h-14.901zM0.323 0l4.131 6.056c0.452 2.572 1.636 9.201 1.771 9.843l0.016 0.081c0.378 1.805 0.611 2.912 4.064 3.766 4.666 1.15 15.331 3.382 20.692 4.254 5.361-0.872 16.032-3.106 20.7-4.254 3.451-0.854 3.681-1.961 4.062-3.766l0.016-0.081c0.135-0.647 1.319-7.271 1.771-9.843L61.677 0H0.323z m54.846 5.969l-0.708 4.39c-0.409 2.541-0.683 4.236-0.818 4.987l-0.018 0.09-0.031 0.179c-0.325 1.769-0.468 2.562-2.326 3.08-3.876 0.954-15.104 3.349-20.265 4.157-5.159-0.808-16.387-3.206-20.26-4.157-1.859-0.519-2.002-1.311-2.327-3.083l-0.048-0.266c-0.135-0.736-0.399-2.378-0.793-4.831v-0.003L6.841 5.967 3.585 1.135h54.836l-3.252 4.832v0.002z m-23.223 8.007h-0.609v-2.495h22.114l-0.409 2.5h-5.123c0.079-0.437 0.23-1.685 0.253-1.866H31.946v1.861z m-0.609 2.408h21.275l0.343-1.83h-21.618v1.83z m0-7.999h8.585v1.319h-8.585v-1.319z m0 8.544v5.008c5.407-0.92 15.909-3.081 19.731-4.07 0.864-0.222 1.12-0.493 1.258-0.713a1.145 1.145 0 0 0 0.115-0.225h-21.104z m5.87 3.277l-1.061 0.21c-0.537 0.107-1.7 0.32-2.722 0.509l-1.476 0.271v-3.636h15.032c-0.69 0.844-2.076 1.117-9.773 2.646z"/></svg>