<svg fill="#58A616" role="img" viewBox="0 0 37 24" xmlns="http://www.w3.org/2000/svg"><title>CafePress</title><path d="M9.107 17.464v-3.176h2.688v1.173h0.028c0.451-0.891 1.047-1.358 2.064-1.358 0.269 0 0.537 0.042 0.819 0.114v2.069c0.584-1.29 1.848-2.182 3.518-2.181 2.913 0 4.169 1.612 4.17 4.483h-5.371c0.072 0.848 0.537 1.426 1.428 1.426 0.453 0 0.947-0.168 1.173-0.524h2.485a2.237 2.237 0 0 1-0.019-0.268h2.672a0.918 0.918 0 0 0 0.337 0.65c0.157 0.14 0.411 0.211 0.751 0.211 0.368 0 0.945-0.143 0.946-0.565 0-0.423-0.24-0.553-1.54-0.777-2.135-0.353-2.998-1.047-2.998-2.305 0-1.851 1.994-2.333 3.464-2.333 1.584 0 3.493 0.439 3.563 2.32h-2.543a0.722 0.722 0 0 0-0.325-0.552 0.955 0.955 0 0 0-0.622-0.211c-0.397 0-0.848 0.099-0.849 0.565 0 0.211 0.168 0.311 0.325 0.382 0.451 0.185 1.527 0.268 2.461 0.565 0.945 0.296 1.755 0.848 1.755 2.05h2.354a0.928 0.928 0 0 0 0.339 0.65c0.157 0.14 0.41 0.211 0.751 0.211 0.366 0 0.947-0.143 0.947-0.565 0-0.423-0.242-0.553-1.541-0.777-2.135-0.353-2.998-1.047-2.998-2.305 0-1.851 1.992-2.333 3.464-2.333 1.583 0 3.495 0.439 3.563 2.32h-2.545a0.711 0.711 0 0 0-0.325-0.552 0.956 0.956 0 0 0-0.62-0.211c-0.397 0-0.848 0.099-0.849 0.565 0 0.211 0.169 0.311 0.325 0.382 0.451 0.185 1.527 0.268 2.459 0.565 0.947 0.296 1.755 0.848 1.755 2.05 0 2.034-1.949 2.587-3.732 2.587-1.432 0-2.979-0.476-3.489-1.718-0.48 1.329-2.095 1.718-3.593 1.718-1.563 0-3.267-0.568-3.603-2.086-0.63 1.424-2.112 2.088-3.684 2.088-2.346 0-4.114-1.384-4.114-3.831 0-0.471 0.074-0.921 0.214-1.338a2.819 2.819 0 0 0-0.961-0.135c-1.118 0-1.697 0.636-1.697 2.218v2.899H9.107v-3.037c-0.145 1.584-0.913 3.222-3.1 3.222-0.848 0-1.57-0.366-2.007-0.99h-0.031v3.181H1.173v-9.712h2.702v0.805h0.028c0.339-0.451 0.793-0.99 2.147-0.99 1.885 0 2.885 1.672 3.057 3.361Zm-4.005 2.31c1.005 0 1.23-0.945 1.23-1.809 0-0.865-0.226-1.824-1.23-1.825-1.002 0-1.23 0.961-1.23 1.825 0 0.861 0.228 1.809 1.23 1.809Zm14.608-2.642v-0.027a1.212 1.212 0 0 0-1.205-1.205h-0.028c-0.847 0-1.315 0.439-1.441 1.232h2.674Zm0.454-11.203c0.052 0.41 0.051 0.841 0.051 1.269v3.986c0 0.73 0.017 1.552 0.45 2.169h-3.779a2.58 2.58 0 0 1-0.13-0.917h-0.039c-0.804 0.898-1.926 1.159-3.124 1.159-1.871 0-3.423-0.896-3.422-2.938 0-0.214 0.018-0.413 0.05-0.595-0.564 2.273-2.52 3.535-4.94 3.535C2.361 13.597 0.024 11.578 0.024 8.51c0-3.067 2.337-5.105 5.255-5.106 2.562 0 4.693 1.233 4.939 3.928H6.702c-0.038-0.411-0.169-0.71-0.411-0.918a1.39 1.39 0 0 0-0.936-0.317c-1.421 0-1.627 1.233-1.628 2.413 0 1.198 0.205 2.394 1.628 2.394 0.804 0 1.366-0.656 1.439-1.421h3.537a4.942 4.942 0 0 1-0.057 0.341c0.604-2.228 3.694-2.14 5.376-2.477 0.505-0.092 1.012-0.243 1.012-0.859 0-0.656-0.617-0.898-1.217-0.898-1.122 0-1.386 0.58-1.385 0.992H10.622c0.092-2.751 2.71-3.181 4.993-3.181 3.242 0 4.2 0.942 4.482 2.149V3.647h1.513c-0.054-0.953 0.038-2.002 0.767-2.729 0.804-0.807 1.74-0.918 3.235-0.918 0.58 0 1.084 0.057 1.666 0.075v2.544c-0.299-0.057-0.599-0.131-0.898-0.131-0.896 0-1.198 0.262-1.139 1.159h1.946v1.951c0.875-1.324 2.377-2.194 4.272-2.194 3.852 0 5.517 2.134 5.517 5.931h-7.107c0.094 1.121 0.71 1.888 1.887 1.887 0.6 0 1.255-0.226 1.552-0.692h3.461c-0.748 2.095-2.807 3.067-4.993 3.067-3.105 0-5.443-1.831-5.442-5.067 0-0.948 0.229-1.837 0.651-2.601h-1.669v7.426H21.61V5.929h-1.446Zm-3.501 3.066c-0.45 0.226-0.953 0.337-1.458 0.468-0.825 0.205-1.255 0.393-1.255 1.047 0 0.45 0.487 0.896 1.161 0.896 0.842 0 1.497-0.483 1.552-1.514v-0.897Zm16.759-1.591v-0.032a1.601 1.601 0 0 0-1.593-1.594h-0.034c-1.122 0-1.738 0.577-1.908 1.626h3.535Z"/></svg>