<svg fill="#0000FF" role="img" viewBox="0 0 28 24" xmlns="http://www.w3.org/2000/svg"><title>Caffeine</title><path d="M7.291 0c-0.207 0.007-0.302 0.157-0.337 0.207L0.268 11.793c-0.08 0.163-0.069 0.31-0.005 0.409 2.232 3.861 4.461 7.725 6.69 11.589a0.387 0.387 0 0 0 0.351 0.209h13.386c0.159 0.003 0.299-0.103 0.357-0.209 2.229-3.861 4.456-7.723 6.687-11.583a0.415 0.415 0 0 0 0-0.411l-6.687-11.589c-0.129-0.222-0.354-0.208-0.354-0.208z m0.924 0.826h10.931L11.857 5.037z m-0.491 0.693l3.406 3.937L7.725 7.424z m11.836 0.021l-4.436 7.682L8.472 7.943z m1.541 0.41l5.465 9.476-5.465-1.053z m-14.203 0.002v5.948l-5.148 2.973z m13.375 0v12.804l-4.432-5.122zM8.4 8.767l6.719 1.293 4.479 5.174-6.713-1.293zM6.898 8.852v3.935l-5.113-0.982z m0.827 0.391l4.431 5.122-4.432 7.681z m13.376 1.969l5.11 0.983-5.11 2.954zM1.431 12.575l5.469 1.052v8.423z m24.816 0.551l-5.146 8.92v-5.946z m-13.375 1.651l6.653 1.28-11.087 6.403z m7.4 1.799v5.904l-3.406-3.936z m-4.133 2.387l3.645 4.211H8.851z"/></svg>