<svg fill="#F39914" role="img" viewBox="0 0 16 24" xmlns="http://www.w3.org/2000/svg"><title>Cairo Graphics</title><path d="M6.58 0v2.846h2.84V0h-2.84z m0.092 0.092h0.824v0.826h-0.824V0.092z m0.916 0h0.824v0.826h-0.824V0.092z m0.916 0h0.824v0.826h-0.824V0.092zM8 0.184a0.321 0.321 90 0 0-0.32 0.32A0.321 0.321 90 0 0 8 0.826a0.321 0.321 90 0 0 0.32-0.322A0.321 0.321 90 0 0 8 0.184z m-1.328 0.826h0.824v0.826h-0.824v-0.826z m0.916 0h0.824v0.826h-0.824v-0.826z m0.916 0h0.824v0.826h-0.824v-0.826z m0.412 0.092a0.321 0.321 90 0 0-0.32 0.32 0.321 0.321 90 0 0 0.32 0.322 0.321 0.321 90 0 0 0.32-0.322 0.321 0.321 90 0 0-0.32-0.32z m-5.42 0.32c-0.364 0.09-0.183 0.451-0.242 0.648-0.151 0.502-0.938 0.661-1.332 1.002-0.385 0.333-0.615 0.723-0.912 1.09-0.251 0.309-0.563 0.611-0.614 0.965-0.057 0.401-0.037 0.854 0.145 1.238 0.226 0.475 0.491 1.078 0.869 1.502 0.29 0.325 0.33 0.434 0.819 0.606 0.155 0.07 0.194 0.105 0.404 0.148l0.041-0.258 0.181-0.215c-0.243-0.298-0.611-0.326-0.824-0.543-0.355-0.363-0.472-0.733-0.683-1.148-0.202-0.398-0.465-0.702-0.487-1.125-0.009-0.181-0.089-0.505 0.006-0.668 0.063-0.108 0.363-0.246 0.465-0.35 0.315-0.321 0.174-0.726 0.539-1.023 0.325-0.265 0.873-0.469 1.258-0.711 0.267-0.168 0.433-0.229 0.49-0.465 0.063-0.26-0.142-0.453-0.123-0.693z m6.844 0a2.346 2.34 90 0 1-0.686 1.66A2.346 2.34 90 0 1 8 3.77a2.346 2.34 90 0 1-1.654-0.688l-0.145 0.145A2.551 2.544 90 0 0 8 3.973c0.675 0 1.322-0.268 1.799-0.746a2.551 2.544 90 0 0 0.744-1.805h-0.203z m2.164 0c0.019 0.24-0.186 0.433-0.123 0.693 0.058 0.236 0.222 0.297 0.488 0.465 0.385 0.242 0.935 0.446 1.26 0.711 0.365 0.297 0.222 0.703 0.537 1.023 0.102 0.104 0.402 0.241 0.465 0.35 0.095 0.163 0.015 0.487 0.006 0.668-0.022 0.423-0.285 0.727-0.487 1.125-0.211 0.415-0.327 0.786-0.681 1.148-0.213 0.217-0.581 0.245-0.824 0.543l0.181 0.215 0.041 0.258c0.21-0.044 0.248-0.078 0.403-0.148 0.488-0.172 0.528-0.28 0.818-0.606 0.378-0.424 0.644-1.026 0.871-1.502 0.182-0.384 0.202-0.837 0.145-1.238-0.05-0.354-0.362-0.656-0.614-0.965-0.297-0.367-0.527-0.757-0.912-1.09-0.394-0.341-1.181-0.5-1.332-1.002-0.059-0.197 0.122-0.558-0.242-0.648z m-5.832 0.506h0.824v0.826h-0.824v-0.826z m0.916 0h0.824v0.826h-0.824v-0.826z m0.916 0h0.824v0.826h-0.824v-0.826z m-1.42 0.092a0.321 0.321 90 0 0-0.32 0.322 0.321 0.321 90 0 0 0.32 0.32 0.321 0.321 90 0 0 0.32-0.32 0.321 0.321 90 0 0-0.32-0.322z m0.916 0a0.321 0.321 90 0 0-0.32 0.322A0.321 0.321 90 0 0 8 2.662a0.321 0.321 90 0 0 0.32-0.32A0.321 0.321 90 0 0 8 2.02z m0.916 0a0.321 0.321 90 0 0-0.32 0.322 0.321 0.321 90 0 0 0.32 0.32 0.321 0.321 90 0 0 0.32-0.32 0.321 0.321 90 0 0-0.32-0.322z m-0.918 3.148c-1.563 0-2.83 0.483-2.83 1.078 0 0.52 1.267 0.375 2.83 0.375 1.563 0 2.83 0.118 2.83-0.375 0-0.595-1.267-1.078-2.83-1.078z m-1.41 1.58c-1.615 0-3.024 0.665-3.795 1.652a9.516 9.491 90 0 0-0.117 0.936c0.202-0.002 4.27-0.033 4.633 0.326l0.689 0.682c0.115-0.114 0.689-0.682 0.69-0.682 0.363-0.359 4.432-0.328 4.632-0.326-0.024-0.321-0.063-0.635-0.117-0.943-0.772-0.983-2.18-1.645-3.791-1.645h-2.824zM2.674 9.365a9.354 9.329 90 0 0-0.018 0.33c-0.004 0.113 0.529 0.239 0.53 0.342 0 0.118-0.532 0.261-0.528 0.391 0.152 3.742 2.47 6.715 5.311 6.736l-0.459-5.678 0.002-0.007 0.451-1.086-0.697-0.69c-0.287-0.284-3.412-0.318-4.592-0.307v-0.031z m10.648 0v0.031c-1.18-0.011-4.304 0.022-4.592 0.307l-0.695 0.69 0.453 1.093-0.459 5.676c2.842-0.021 5.158-2.993 5.311-6.734 0.005-0.13-0.527-0.272-0.527-0.391 0-0.103 0.531-0.229 0.527-0.342a9.138 9.113 90 0 0-0.018-0.33z m-12.207 0.774c-0.782-0.03-0.658 0.733-0.398 1.408 0.289 0.751 0.42 1.542 0.73 2.285 0.143 0.341 0.353 0.674 0.729 0.772 0.019-0.43-0.048-0.544-0.313-0.864-0.224-0.27-0.169-0.64-0.308-0.943-0.182-0.398-0.212-0.798-0.369-1.199-0.069-0.177-0.426-0.711-0.331-0.911 0.162-0.337 0.468-0.005 0.622 0.106 0.215 0.155 0.328 0.114 0.593 0.148 0.03 0.004 0.18 0.11 0.534 0.272l-0.041-0.375c-0.484-0.234-0.526-0.497-1.055-0.635-0.151-0.039-0.281-0.06-0.393-0.064z m13.77 0c-0.112 0.004-0.242 0.025-0.393 0.064-0.529 0.137-0.571 0.401-1.054 0.635l-0.043 0.375c0.353-0.162 0.505-0.267 0.535-0.272 0.265-0.034 0.379 0.006 0.593-0.148 0.153-0.11 0.457-0.442 0.62-0.105 0.095 0.199-0.259 0.733-0.329 0.91-0.157 0.401-0.189 0.801-0.371 1.199-0.14 0.304-0.085 0.673-0.308 0.943-0.264 0.32-0.329 0.433-0.311 0.864 0.375-0.098 0.586-0.43 0.729-0.772 0.311-0.743 0.44-1.534 0.728-2.285 0.26-0.675 0.386-1.438-0.396-1.408z m-6.887 0.326a7454.469 7434.774 90 0 1-0.428 1.031c0.001 0.012 0.326 4.03 0.428 5.291 0.102-1.261 0.427-5.279 0.428-5.291-0.005-0.011-0.33-0.795-0.428-1.031z m-4.42 3.824c-0.34 0.455-0.356 0.828-0.512 1.191-0.268 0.626-0.009 1.472 0.5 1.922 0.308 0.274 0.811 0.49 1.178 0.67 0.511 0.25 1.023 0.576 1.594 0.684 0.126 0.024 0.447 0.066 0.34-0.18-0.05-0.114-0.411-0.235-0.516-0.293-0.423-0.236-0.833-0.538-1.228-0.826-0.483-0.35-1.06-0.57-1.44-1.055-0.155-0.198-0.182-0.251-0.144-0.478 0.035-0.217 0.07-0.468 0.115-0.686 0.051-0.245 0.123-0.483 0.254-0.703l-0.141-0.246z m8.844 0l-0.141 0.246c0.13 0.22 0.202 0.458 0.254 0.703 0.046 0.218 0.08 0.468 0.115 0.686 0.037 0.228 0.011 0.28-0.144 0.478-0.38 0.484-0.956 0.705-1.44 1.055-0.395 0.288-0.806 0.59-1.228 0.826-0.104 0.058-0.468 0.179-0.518 0.293-0.107 0.246 0.216 0.203 0.342 0.18 0.571-0.108 1.083-0.434 1.594-0.684 0.367-0.179 0.87-0.396 1.178-0.67 0.509-0.45 0.768-1.296 0.5-1.922-0.156-0.363-0.172-0.736-0.512-1.191z m-4.541 4.15a0.386 0.385 90 0 0-0.266 0.368 0.386 0.385 90 1 0 0.77 0 0.386 0.385 90 0 0-0.504-0.368z m-5.74 1.518c-1.178 0-1.963 0.848-1.963 2.022 0 1.105 0.8 2.021 1.963 2.021 0.257 0 0.596-0.024 0.89-0.16l-0.052-0.635c-0.219 0.144-0.52 0.219-0.762 0.219-0.914 0-1.283-0.756-1.283-1.445 0-0.734 0.446-1.445 1.238-1.446 0.227 0 0.498 0.052 0.769 0.166l0.061-0.59c-0.204-0.083-0.574-0.152-0.861-0.152z m2.988 0c-0.491 0-0.913 0.151-1.268 0.363l0.037 0.606c0.287-0.242 0.717-0.393 1.118-0.393 0.71 0 0.951 0.34 0.951 1.006-0.279-0.015-0.475-0.016-0.754-0.016-0.732 0-1.791 0.304-1.791 1.274 0 0.84 0.582 1.203 1.412 1.203 0.649 0 1.027-0.355 1.193-0.59h0.016v0.498h0.664c-0.015-0.114-0.029-0.317-0.029-0.756V21.555c0-1.052-0.447-1.598-1.549-1.598z m5.877 0c-0.408 0-0.815 0.288-1.004 0.689h-0.014v-0.597h-0.666v3.859h0.711v-1.756c0-0.969 0.415-1.574 1.049-1.574 0.121 0 0.264 0.015 0.393 0.068v-0.636c-0.151-0.03-0.257-0.053-0.469-0.053z m2.861 0c-1.178 0-1.965 0.848-1.965 2.022 0 1.105 0.802 2.021 1.965 2.021 1.155 0 1.955-0.916 1.955-2.021 0-1.173-0.785-2.021-1.955-2.022z m-6.222 0.092v3.859h0.71v-3.859h-0.71z m6.222 0.484c0.755 0 1.199 0.711 1.199 1.446 0 0.689-0.369 1.445-1.199 1.445-0.838 0-1.209-0.756-1.209-1.445 0-0.734 0.446-1.445 1.209-1.446zM5.514 22.055c0.151 0 0.302 0.016 0.453 0.015v0.34c0 0.575-0.37 1.014-1.072 1.014-0.325 0-0.717-0.218-0.717-0.627 0-0.681 0.951-0.742 1.336-0.742z"/></svg>