<svg fill="#D33C43" role="img" viewBox="0 0 31 24" xmlns="http://www.w3.org/2000/svg"><title>CakePHP</title><path d="M0.12 14.403v4.8c0 2.649 6.882 4.797 15.38 4.797V19.203c-8.497 0-15.38-2.153-15.38-4.797v-0.003z m27.407 2.99L15.5 14.403v4.8l12.027 2.99C29.624 21.373 30.88 20.335 30.88 19.203v-4.8c0 1.13-1.256 2.169-3.353 2.99zM15.5 9.607v4.796c-8.493 0-15.38-2.149-15.38-4.798V4.797c0-2.645 6.882-4.797 15.38-4.797 8.491 0 15.38 2.153 15.38 4.798v4.807c0 1.132-1.256 2.166-3.353 2.991L15.5 9.603v0.004z"/></svg>