<svg fill="#292929" role="img" viewBox="0 0 116 24" xmlns="http://www.w3.org/2000/svg"><title>Cal.com</title><path d="M11.906 23.955C5.308 23.955 0.335 18.727 0.335 12.278c0-6.468 4.719-11.74 11.571-11.74 3.643 0 6.161 1.12 8.126 3.676l-3.172 2.643a6.454 6.454 0 0 0-4.949-2.124c-4.469 0-6.92 3.417-6.92 7.545 0 4.133 2.686 7.482 6.92 7.482 1.985 0 3.676-0.706 5.012-2.129l3.128 2.754c-1.879 2.451-4.464 3.57-8.145 3.57zM33.723 6.776h4.277v16.771h-4.277v-2.451c-0.889 1.74-2.369 2.902-5.204 2.902-4.532 0-8.145-3.94-8.146-8.774 0-4.839 3.614-8.77 8.146-8.77 2.811 0 4.315 1.158 5.204 2.902z m0.125 8.448c0-2.624-1.797-4.796-4.633-4.796-2.729 0-4.508 2.196-4.507 4.796 0 2.537 1.778 4.796 4.507 4.796 2.816 0 4.632-2.191 4.633-4.796zM41.022 0h4.277v23.523h-4.277zM47.197 21.307a2.547 2.547 0 0 1 2.605-2.537c1.504 0 2.561 1.163 2.561 2.537a2.532 2.532 0 0 1-2.561 2.581 2.566 2.566 0 0 1-2.605-2.581zM68.716 20.836c-1.586 1.937-3.998 3.162-6.852 3.162a8.679 8.679 0 0 1-8.842-8.774c0-4.839 3.739-8.77 8.842-8.77 2.749 0 5.142 1.158 6.727 2.989l-3.301 2.772c-0.827-1.033-1.903-1.807-3.426-1.806-2.729 0-4.508 2.191-4.508 4.795 0 2.6 1.778 4.791 4.508 4.792 1.648 0 2.787-0.86 3.637-2.019zM69.077 15.224c0-4.839 3.748-8.77 8.842-8.77 5.099 0 8.842 3.931 8.842 8.77 0 4.839-3.743 8.775-8.842 8.774-5.094-0.024-8.842-3.94-8.842-8.774z m13.349 0c0-2.624-1.778-4.796-4.507-4.796-2.729-0.019-4.503 2.172-4.503 4.796 0 2.605 1.778 4.796 4.503 4.796 2.729 0 4.508-2.191 4.507-4.796zM115.665 13.292v10.236h-4.276v-9.184c0-2.902-1.35-4.152-3.383-4.152-1.903 0-3.258 0.947-3.259 4.152v9.179h-4.276v-9.179c0-2.902-1.37-4.152-3.383-4.152-1.903 0-3.575 0.947-3.576 4.152v9.179h-4.277v-16.771h4.277v2.326c0.889-1.807 2.499-2.71 4.974-2.711 2.35 0 4.315 1.158 5.396 3.119 1.076-2.004 2.662-3.124 5.541-3.124 3.513 0.024 6.242 2.691 6.242 6.93z"/></svg>