<svg fill="#45B29D" role="img" viewBox="0 0 15 24" xmlns="http://www.w3.org/2000/svg"><title>Calibre-Web</title><path d="M9.236 0.083q4.935-0.678 5.525 4.191-1.104 5.486-6.478 7.145-1.313 0.398-2.667 0.191-0.409-0.133-0.667-0.477a3.91 3.91 0 0 1 0-1.714q4.073 0.443 6.478-3.049 0.867-1.316 0.572-2.858-0.558-1.204-1.906-1.143-2.708 0.45-4.382 2.668-3.913 5.755-2.476 12.574 1.59 5.439 6.954 3.525 1.458-0.747 2.667-1.81 1.627 0.683 0.857 2.286-4.452 3.901-9.812 1.429-3.138-2.512-3.524-6.573-0.858-7.33 3.62-13.146Q6.173 0.927 9.236 0.083"/></svg>