<svg fill="#E72429" role="img" viewBox="0 0 24 24" xmlns="http://www.w3.org/2000/svg"><title>Canvas</title><path d="M0.44 15.414a13.706 13.706 0 0 1-0.436-3.44 13.7 13.7 0 0 1 0.436-3.44c1.714 0.21 3.044 1.669 3.044 3.44 0 1.771-1.329 3.23-3.044 3.44z m3.973-3.44c0 0.6 0.487 1.087 1.087 1.087 0.601 0 1.088-0.487 1.088-1.087s-0.487-1.088-1.088-1.088c-0.601 0-1.087 0.488-1.087 1.088zM23.56 8.534c-1.715 0.21-3.044 1.669-3.044 3.44 0 1.771 1.329 3.23 3.044 3.44a13.731 13.731 0 0 0 0.436-3.44c0-1.188-0.152-2.341-0.436-3.44z m-6.148 3.44c0 0.601 0.486 1.087 1.088 1.087 0.6 0 1.088-0.487 1.088-1.087s-0.488-1.088-1.088-1.088c-0.601 0-1.088 0.488-1.088 1.088z m-5.435 8.546c-1.771 0-3.229 1.33-3.44 3.044a13.736 13.736 0 0 0 3.441 0.436c1.188 0 2.34-0.151 3.44-0.436-0.211-1.714-1.669-3.044-3.441-3.044z m0.001-3.104c-0.601 0-1.088 0.488-1.088 1.088s0.487 1.088 1.088 1.088c0.6 0 1.087-0.487 1.087-1.088s-0.487-1.088-1.087-1.088z m0-13.936c1.771 0 3.229-1.329 3.44-3.044A13.735 13.735 0 0 0 11.978 0c-1.189 0-2.341 0.152-3.441 0.436 0.211 1.715 1.669 3.044 3.441 3.044z m0 0.929c-0.601 0-1.088 0.487-1.088 1.087 0 0.6 0.487 1.088 1.088 1.088 0.6 0 1.087-0.487 1.087-1.088 0-0.601-0.487-1.088-1.087-1.087z m6.032 13.596c-1.251 1.252-1.344 3.221-0.282 4.582a13.762 13.762 0 0 0 4.863-4.865c-1.361-1.06-3.33-0.967-4.581 0.283z m-0.657-2.194c-0.425-0.424-1.113-0.424-1.539 0-0.424 0.425-0.424 1.114 0 1.538 0.425 0.425 1.114 0.425 1.539 0 0.424-0.425 0.424-1.113 0-1.538zM5.965 5.96c1.252-1.251 1.344-3.221 0.282-4.581a13.768 13.768 0 0 0-4.864 4.864c1.361 1.062 3.331 0.969 4.582-0.283z m0.656 0.658c-0.424 0.425-0.424 1.114 0 1.538 0.424 0.425 1.114 0.425 1.539 0 0.425-0.424 0.425-1.114 0-1.538-0.424-0.424-1.114-0.424-1.539 0z m15.963-0.386a13.76 13.76 0 0 0-4.864-4.864c-1.061 1.361-0.969 3.33 0.283 4.581 1.252 1.251 3.22 1.344 4.581 0.283zM17.346 8.144c0.424-0.425 0.424-1.113 0-1.538-0.425-0.425-1.115-0.425-1.539 0-0.424 0.425-0.424 1.113 0 1.538 0.424 0.424 1.114 0.424 1.539 0zM1.377 17.709a13.763 13.763 0 0 0 4.865 4.865c1.061-1.361 0.969-3.33-0.283-4.582-1.251-1.251-3.22-1.344-4.582-0.283z m5.239-1.912c-0.424 0.425-0.424 1.114 0 1.539 0.425 0.425 1.114 0.425 1.538 0 0.425-0.425 0.425-1.114 0-1.539-0.424-0.424-1.113-0.424-1.538 0z"/></svg>