<svg fill="#0133AD" role="img" viewBox="0 0 26 24" xmlns="http://www.w3.org/2000/svg"><title>Cardano</title><path d="M7.131 11.913c-0.053 0.964 0.684 1.789 1.647 1.846h0.101c0.966-0.001 1.749-0.785 1.748-1.751-0.001-0.966-0.785-1.749-1.751-1.748-0.928 0.001-1.695 0.726-1.745 1.653Zm-6.521-0.45c-0.312-0.017-0.578 0.221-0.596 0.533-0.017 0.312 0.221 0.578 0.533 0.596 0.311 0.017 0.578-0.221 0.596-0.532 0.018-0.311-0.22-0.578-0.531-0.597H0.61Zm6.41-9.701c0.278-0.142 0.389-0.482 0.247-0.761-0.142-0.278-0.482-0.389-0.76-0.247-0.277 0.141-0.388 0.479-0.249 0.757 0.141 0.279 0.481 0.392 0.76 0.251 0 0 0.001 0 0.002 0Zm1.774 3.094c0.431-0.217 0.604-0.742 0.387-1.174-0.217-0.431-0.742-0.604-1.173-0.386-0.431 0.217-0.604 0.742-0.387 1.172 0.217 0.431 0.742 0.604 1.173 0.388ZM2.824 6.983c0.332 0.218 0.779 0.125 0.996-0.207 0.218-0.332 0.125-0.779-0.208-0.997-0.332-0.218-0.779-0.125-0.996 0.208 0 0 0 0 0 0-0.218 0.332-0.125 0.778 0.208 0.996Zm1.063 4.169c-0.482-0.027-0.895 0.341-0.923 0.822s0.341 0.895 0.823 0.923c0.482 0.027 0.895-0.341 0.923-0.823v-0.001c0.027-0.482-0.341-0.894-0.823-0.921Zm-0.965 5.867c-0.355 0.179-0.498 0.611-0.319 0.967 0.179 0.355 0.611 0.498 0.967 0.319 0.355-0.179 0.498-0.611 0.319-0.966l-0.001-0.001c-0.178-0.355-0.61-0.498-0.964-0.32-0.001 0-0.001 0.001-0.002 0.001Zm3.394-7.676c0.475 0.311 1.112 0.179 1.423-0.296 0.311-0.475 0.179-1.112-0.296-1.423-0.475-0.311-1.112-0.179-1.423 0.296-0.311 0.474-0.18 1.111 0.295 1.422 0 0 0.001 0.001 0.001 0.001Zm10.768-4.557c0.404 0.265 0.946 0.152 1.211-0.251 0.265-0.404 0.152-0.946-0.251-1.21-0.404-0.265-0.946-0.152-1.211 0.251 0 0 0 0 0 0-0.265 0.403-0.153 0.945 0.251 1.21 0 0 0.001 0 0 0Zm1.793-3.084c0.261 0.171 0.611 0.098 0.782-0.163s0.098-0.611-0.163-0.783c-0.261-0.171-0.611-0.098-0.782 0.163-0.171 0.261-0.099 0.611 0.162 0.782l0.001 0.001Zm-1.656 8.543c-0.964-0.055-1.791 0.682-1.845 1.647-0.055 0.964 0.682 1.791 1.647 1.845h0.1c0.966 0 1.749-0.783 1.749-1.749 0-0.928-0.724-1.694-1.651-1.746v0.003ZM9.369 9.222c0.296 0.591 0.902 0.963 1.563 0.96 0.966 0 1.749-0.783 1.748-1.749 0-0.273-0.064-0.543-0.187-0.787-0.435-0.863-1.486-1.21-2.349-0.775-0.863 0.435-1.21 1.486-0.775 2.349v0.002Zm13.709-2.241c0.354-0.18 0.495-0.614 0.314-0.968-0.18-0.354-0.614-0.495-0.967-0.314-0.353 0.18-0.494 0.61-0.317 0.964 0.179 0.355 0.612 0.499 0.967 0.32 0.001 0 0.002-0.001 0.003-0.002Zm-4.433 0.557c-0.507 0.256-0.71 0.874-0.455 1.381 0.256 0.507 0.874 0.71 1.381 0.455 0.506-0.256 0.71-0.873 0.455-1.38-0.256-0.507-0.874-0.711-1.381-0.456Zm-5.711-6.1c0.397 0.022 0.737-0.281 0.759-0.678s-0.281-0.737-0.678-0.759c-0.396-0.022-0.735 0.28-0.759 0.675-0.024 0.396 0.277 0.737 0.674 0.762 0.002 0 0.003 0 0.004 0Zm-0.008 4.528c0.567 0.031 1.052-0.403 1.083-0.97 0.031-0.567-0.403-1.052-0.97-1.083-0.566-0.031-1.051 0.402-1.083 0.968-0.032 0.567 0.401 1.052 0.968 1.085h0.002Zm-5.571 10.497c0.507-0.255 0.711-0.873 0.456-1.381-0.255-0.507-0.873-0.711-1.381-0.455-0.507 0.255-0.711 0.873-0.456 1.38 0.256 0.507 0.873 0.711 1.381 0.456Zm6.234-8.997c-0.528 0.807-0.302 1.89 0.505 2.418s1.89 0.302 2.418-0.505 0.302-1.89-0.505-2.418c-0.284-0.186-0.615-0.285-0.954-0.285-0.59 0-1.14 0.297-1.464 0.79Zm3.042 7.313c-0.435-0.863-1.486-1.21-2.35-0.776-0.863 0.435-1.21 1.486-0.776 2.35 0.435 0.863 1.486 1.21 2.35 0.775 0.001 0 0.001-0.001 0.001 0 0.86-0.428 1.211-1.472 0.783-2.332-0.003-0.006-0.006-0.011-0.008-0.017Zm3.053-0.121c-0.475-0.311-1.112-0.179-1.423 0.296-0.311 0.475-0.179 1.112 0.296 1.423 0.475 0.311 1.112 0.179 1.423-0.296 0.311-0.475 0.179-1.112-0.296-1.423h0Zm3.351-2.628c0.027-0.482-0.341-0.895-0.823-0.923-0.482-0.027-0.895 0.341-0.923 0.823-0.027 0.482 0.341 0.895 0.823 0.923h0.001c0.482 0.027 0.894-0.341 0.922-0.823Zm2.418-0.622c-0.312-0.017-0.578 0.221-0.596 0.533s0.221 0.578 0.533 0.596c0.311 0.017 0.578-0.221 0.596-0.532 0.017-0.312-0.221-0.578-0.533-0.596Zm-2.277 5.609c-0.333-0.218-0.779-0.124-0.996 0.208-0.218 0.333-0.124 0.779 0.208 0.996 0.332 0.218 0.778 0.125 0.996-0.208 0.218-0.332 0.125-0.778-0.208-0.996l0 0ZM7.123 22.299c-0.261-0.171-0.611-0.099-0.783 0.162-0.171 0.261-0.099 0.611 0.162 0.782 0.261 0.171 0.611 0.099 0.783-0.162 0.171-0.261 0.098-0.611-0.162-0.782Zm11.856-0.06c-0.278 0.142-0.389 0.482-0.247 0.76 0.142 0.278 0.482 0.389 0.76 0.247 0.277-0.141 0.388-0.479 0.249-0.756-0.14-0.279-0.479-0.392-0.758-0.253-0.001 0.001-0.002 0.001-0.004 0.002Zm-6.568-5.705c0.529-0.808 0.304-1.892-0.504-2.421-0.808-0.529-1.892-0.304-2.421 0.504s-0.304 1.892 0.504 2.421c0.284 0.186 0.617 0.286 0.957 0.286 0.591 0.002 1.142-0.295 1.464-0.79Zm-3.496 2.68c-0.404-0.265-0.946-0.152-1.21 0.252-0.265 0.404-0.152 0.946 0.251 1.21s0.946 0.152 1.211-0.251c0 0 0 0 0-0.001 0.265-0.404 0.152-0.945-0.252-1.21Zm4.077 3.348c-0.397-0.023-0.737 0.281-0.76 0.677s0.281 0.737 0.678 0.76c0.396 0.023 0.735-0.279 0.759-0.675 0.024-0.397-0.278-0.738-0.675-0.762-0.001 0-0.002 0-0.002 0Zm0.007-4.528c-0.567-0.031-1.052 0.403-1.083 0.97-0.031 0.567 0.403 1.052 0.97 1.083 0.566 0.031 1.05-0.402 1.083-0.968 0.032-0.567-0.401-1.053-0.969-1.085h-0.001Zm4.206 1.11c-0.43 0.219-0.602 0.745-0.383 1.176 0.219 0.43 0.745 0.602 1.175 0.383 0.429-0.218 0.601-0.741 0.385-1.171-0.216-0.431-0.742-0.606-1.173-0.39-0.001 0.001-0.003 0.001-0.004 0.002Z"/></svg>