<svg fill="#00321E" role="img" viewBox="0 0 43 24" xmlns="http://www.w3.org/2000/svg"><title>Carlsberg Group</title><path d="M3.553 0a0.345 0.345 0 0 0-0.227 0.091C1.357 1.854 0.068 4.152 0.068 6.806c0 3.927 3.143 6.963 6.84 6.963 1.85 0 3.59-0.817 4.804-2.027 0.278-0.278-0.064-0.631-0.359-0.359-0.902 0.831-2.2 1.346-3.524 1.346-2.793 0-5.135-2.301-5.135-5.079 0-2.3 1.846-4.615 4.165-4.615 0.845 0 1.753 0.339 2.289 0.876 0.046 0.044 0.119 0.044 0.16-0.011l2.847-3.746a0.09 0.09 0 0 0-0.066-0.154H3.553z m31.224 0a0.302 0.302 0 0 0-0.185 0.066c-0.197 0.156-0.465 0.203-0.705 0.109a0.448 0.448 0 0 0-0.554 0.191 0.453 0.453 0 0 0 0.108 0.579 0.717 0.717 0 0 1 0.261 0.663 0.291 0.291 0 0 0 0.035 0.192 0.302 0.302 0 0 0 0.412 0.112l0.401-0.231a0.228 0.228 0 0 1 0.31 0.084 0.224 0.224 0 0 1-0.083 0.307l-0.401 0.234a0.299 0.299 0 0 0-0.109 0.411c0.035 0.062 0.091 0.102 0.15 0.126a0.716 0.716 0 0 1 0.443 0.558 0.451 0.451 0 0 0 0.447 0.384 0.447 0.447 0 0 0 0.443-0.384 0.722 0.722 0 0 1 0.443-0.558c0.061-0.024 0.116-0.064 0.15-0.126 0.084-0.144 0.037-0.329-0.108-0.411l-0.398-0.234a0.223 0.223 0 0 1-0.083-0.307 0.224 0.224 0 0 1 0.306-0.083l0.402 0.23a0.301 0.301 0 0 0 0.411-0.112 0.295 0.295 0 0 0 0.035-0.192 0.716 0.716 0 0 1 0.262-0.662 0.451 0.451 0 0 0 0.108-0.58c-0.114-0.197-0.349-0.272-0.555-0.191a0.716 0.716 0 0 1-0.704-0.109 0.298 0.298 0 0 0-0.185-0.066c-0.166 0-0.3 0.137-0.3 0.304v0.46a0.227 0.227 0 0 1-0.227 0.227 0.226 0.226 0 0 1-0.227-0.227v-0.46a0.304 0.304 0 0 0-0.303-0.304zM15.458 2.407a0.098 0.098 0 0 0-0.097 0.101v0.241c0 0.055 0.056 0.089 0.097 0.101l0.3 0.087c0.041 0.012 0.087 0.042 0.088 0.098v6.052c0 1.288 0.979 1.654 1.632 1.654h3.356c0.76 0 1.486-0.555 1.486-1.452 0-1.354-2.086-1.232-2.086-2.009 0-0.314 0.307-0.426 0.687-0.426 0.286 0 0.68 0.127 0.9 0.29 0.077 0.057 0.134 0.001 0.154-0.042l0.516-1.179c0.023-0.051-0.006-0.136-0.091-0.136h-2.41c-0.658 0-1.242 0.569-1.242 1.27 0 1.395 1.814 1.148 1.814 2.093 0 0.366-0.292 0.68-0.698 0.68-0.801 0-1.139-0.535-1.175-0.844-0.008-0.059-0.083-0.101-0.137-0.08l-0.331 0.132c-0.063 0.025-0.076 0.112-0.042 0.154 0.058 0.07 0.091 0.14 0.091 0.251a0.394 0.394 0 0 1-0.398 0.394c-0.23 0-0.391-0.194-0.39-0.394V2.508a0.102 0.102 0 0 0-0.102-0.101H15.458z m7.075 0a0.098 0.098 0 0 0-0.098 0.101v0.241c0 0.055 0.055 0.088 0.098 0.101l0.3 0.087c0.043 0.012 0.087 0.042 0.087 0.098v6.035c0 1.018 0.731 1.671 1.901 1.671h0.795c0.851 0 1.392-0.586 1.392-1.371v-0.925c0.225 0.146 0.53 0.289 0.834 0.381 0.256 1.193 1.315 2.069 2.571 2.068 1.338 0 1.994-0.904 2.138-1.235 0.148-0.341-0.168-0.409-0.3-0.237-0.287 0.377-0.699 0.576-1.252 0.576-0.939 0-1.416-0.774-1.416-0.984 1.519 0 2.497-0.82 2.518-1.908 0.287-0.197 0.606-0.377 0.81-0.377 0.221 0 0.398 0.12 0.397 0.398v3.512c0 0.054 0.043 0.101 0.098 0.102h1.922a0.103 0.103 0 0 0 0.101-0.102v-0.244c0-0.056-0.058-0.085-0.101-0.097l-0.297-0.091c-0.043-0.011-0.087-0.042-0.087-0.098V7.081c0-0.243 0.221-0.433 0.464-0.432 0.407 0 0.322 0.433 0.949 0.432 0.531 0 1.172-0.543 1.172-1.559 0-0.625-0.31-1.174-0.924-1.528-0.243-0.141-0.451 0.155-0.259 0.314 0.283 0.235 0.572 0.629 0.573 0.883 0 0.265-0.207 0.443-0.384 0.443-0.411 0-0.684-0.499-1.162-0.499-0.266 0-0.509 0.22-0.509 0.464 0 0.128 0.066 0.231 0.066 0.366 0 0.111-0.085 0.21-0.195 0.21-0.324 0-0.326-0.541-0.984-0.541-0.588 0-1.313 0.472-1.789 0.841-0.23-0.464-0.742-0.841-1.549-0.841-1.442 0-2.588 1.127-2.63 2.546a5.115 5.115 0 0 1-0.775-0.418V5.888a0.099 0.099 0 0 0-0.097-0.101h-1.438a0.102 0.102 0 0 0-0.101 0.101v1.382c0 0.132 0.067 0.198 0.157 0.251l0.663 0.401v1.326c0 0.52-0.444 0.663-0.82 0.662-0.342 0-0.816-0.211-0.816-0.697v-6.705a0.101 0.101 0 0 0-0.101-0.101h-1.922zM6.577 5.634c-1.249 0-2.267 1.183-2.268 2.63 0 1.458 1.018 2.63 2.268 2.63 1.16 0 1.185-0.687 1.601-0.687 0.479 0 0.398 0.687 1.032 0.687 0.574 0 1.672-1.06 2.216-1.622v1.368c0 0.055 0.046 0.101 0.101 0.101h1.922a0.102 0.102 0 0 0 0.101-0.101v-0.245c0-0.057-0.059-0.086-0.101-0.097l-0.297-0.091c-0.043-0.012-0.091-0.042-0.09-0.098V7.081a0.427 0.427 0 0 1 0.432-0.432c0.144 0 0.265 0.121 0.265 0.265 0 0.194-0.154 0.2-0.153 0.488 0 0.297 0.253 0.562 0.561 0.562 0.652 0 1.172-0.517 1.173-1.169 0-0.652-0.52-1.162-1.173-1.161-0.889 0-0.944 0.75-1.27 0.75-0.359 0-0.205-0.75-1.217-0.75-0.585 0-0.959 0.453-0.959 0.663 0 0.111 0.089 0.234 0.234 0.233 0.156 0 0.158-0.112 0.279-0.111 0.099 0 0.192 0.056 0.192 0.178v1.883c-0.406 0.363-1.092 0.931-1.413 0.932-0.177 0-0.342-0.144-0.342-0.321V6.419c0-0.056 0.044-0.088 0.087-0.101l0.3-0.088c0.043-0.013 0.098-0.046 0.098-0.101V5.888a0.101 0.101 0 0 0-0.098-0.101h-1.605c-0.066 0-0.108 0.047-0.118 0.101-0.034 0.177-0.104 0.296-0.258 0.297-0.25 0-0.48-0.551-1.5-0.551z m32.776 0c-1.248 0-2.267 1.182-2.267 2.63 0 1.458 1.019 2.63 2.267 2.63 0.95 0 1.116-0.475 1.287-0.474 0.116 0 0.171 0.064 0.171 0.174v0.974c0 0.684-0.489 1.193-1.14 1.193-0.651 0-1.169-0.476-1.169-1.106 0-0.066-0.057-0.098-0.101-0.098h-0.377a0.096 0.096 0 0 0-0.097 0.098c0 0.63-1.096 2.512-4.853 2.511-4.453 0-8.232-2.686-13.657-2.686-2.774 0-6.696 1.182-9.404 3.478-0.054 0.046-0.028 0.127 0.024 0.157l4.096 2.236c0.067 0.038 0.107 0.023 0.157-0.028 2.199-2.205 4.311-3.07 7.513-3.07 2.333 0 6.819 1.305 9.461 1.305 4.795 0 6.441-1.948 6.949-2.853 0.377 0.641 1.118 1.029 1.956 1.029 1.233 0 2.278-0.995 2.278-2.233V6.419c0-0.055 0.045-0.087 0.088-0.101l0.296-0.088c0.044-0.013 0.101-0.046 0.101-0.101V5.888a0.103 0.103 0 0 0-0.101-0.101h-1.601a0.123 0.123 0 0 0-0.122 0.101c-0.034 0.177-0.1 0.296-0.255 0.297-0.251 0-0.479-0.551-1.5-0.551z m-8.721 0.983c0.463 0 0.509 0.365 0.51 0.51 0 0.418-0.575 1.27-1.647 1.27 0-1.116 0.584-1.78 1.137-1.78zM7.163 6.796c0.42 0 0.872 0.329 0.872 0.659v1.625c0 0.33-0.452 0.663-0.872 0.663-0.773 0-1.273-0.618-1.273-1.479 0-0.863 0.5-1.469 1.273-1.468z m32.773 0c0.421 0 0.876 0.329 0.876 0.659v1.625c0 0.33-0.455 0.663-0.876 0.663-0.773 0-1.27-0.617-1.27-1.479 0-0.863 0.497-1.469 1.27-1.468z m-16.012 9.359c-1.566 0.056-2.557 0.989-2.556 3.195 0 2.362 0.807 3.234 2.351 3.234 0.435 0 0.981-0.128 1.304-0.29 0.085-0.044 0.129-0.077 0.206-0.076 0.111 0 0.154 0.094 0.206 0.153 0.068 0.076 0.128 0.111 0.289 0.112h0.314v-2.868c0-0.137-0.05-0.195-0.177-0.195h-0.461v1.884c0 0.239-0.009 0.292-0.188 0.411 0 0-0.442 0.255-1.082 0.255-1.561 0-2.041-0.666-2.04-2.62 0-2.013 0.761-2.609 2.023-2.609 0.503 0 0.886 0.111 1.193 0.324 0.076 0.051 0.135 0.077 0.178 0.077 0.052 0 0.079-0.034 0.104-0.094l0.196-0.579s-0.785-0.314-1.706-0.314c-0.052 0-0.103-0.002-0.154 0z m7.563 1.821c-1.313 0-2.02 0.814-2.02 2.305 0 1.502 0.707 2.302 2.02 2.303 1.314 0 2.023-0.801 2.023-2.303 0-1.501-0.71-2.306-2.023-2.305z m-2.522 0.01c-0.376 0.015-0.75 0.138-0.998 0.29-0.085 0.052-0.12 0.077-0.188 0.076-0.077 0-0.095-0.066-0.164-0.16-0.051-0.076-0.099-0.105-0.279-0.105h-0.241v4.197c0 0.136 0.054 0.199 0.182 0.199h0.45v-3.387c0-0.094 0.001-0.102 0.094-0.179 0.111-0.093 0.488-0.342 1.008-0.341 0.171 0 0.373 0.024 0.373 0.024v-0.607s-0.092-0.007-0.16-0.007c-0.025 0-0.052-0.001-0.077 0z m11.693 0c-0.401 0-0.81 0.129-1.074 0.29-0.085 0.052-0.12 0.077-0.189 0.076-0.076 0-0.095-0.066-0.164-0.16-0.051-0.076-0.1-0.105-0.279-0.105h-0.24v5.718c0 0.136 0.054 0.195 0.181 0.195h0.45v-1.58c0-0.127 0.028-0.178 0.087-0.178 0.034 0 0.076 0.018 0.136 0.052 0.281 0.144 0.648 0.289 1.092 0.29 0.912 0 1.782-0.717 1.783-2.313 0-1.595-0.793-2.285-1.783-2.285z m-6.373 0.101v3.028c0 0.998 0.53 1.469 1.57 1.469 0.383 0 0.786-0.128 1.05-0.29 0.085-0.052 0.12-0.077 0.188-0.076 0.076 0 0.092 0.066 0.16 0.16 0.052 0.076 0.103 0.105 0.283 0.105h0.237v-4.197c0-0.136-0.05-0.199-0.178-0.199h-0.453v3.405c0 0.094 0.003 0.111-0.091 0.188-0.111 0.094-0.479 0.342-1.067 0.342-0.819 0-1.068-0.301-1.068-1.078v-2.658c0-0.136-0.05-0.199-0.178-0.199h-0.453z m-2.878 0.412c0.027-0.001 0.052 0 0.08 0 0.904 0 1.35 0.605 1.35 1.782 0 1.177-0.446 1.782-1.35 1.783s-1.347-0.605-1.346-1.783c0-1.139 0.418-1.746 1.266-1.782z m9.045 0.049c0.87 0 1.315 0.608 1.315 1.733 0 1.297-0.609 1.741-1.35 1.741-0.521 0-0.87-0.248-0.98-0.342-0.094-0.077-0.094-0.094-0.094-0.188V19.071c0-0.094 0.018-0.113 0.094-0.182 0.111-0.093 0.435-0.342 1.015-0.341z"/></svg>