<svg fill="#004E9F" role="img" viewBox="0 0 37 24" xmlns="http://www.w3.org/2000/svg"><title>Carrefour</title><path d="M18.711 0.002c-3.875 0-5.388 5.491-5.388 12.035 0 6.546 1.513 11.963 5.388 11.963 2.324 0 4.306-1.362 4.314-2.481a0.943 0.943 0 0 0-0.3-0.684c-1.101-1.065-1.533-2.13-1.536-3.068-0.008-1.793 1.548-3.128 2.983-3.128 1.97 0 3.133 1.549 3.132 3.555 0 1.901-0.81 3.484-1.69 4.752a0.291 0.291 0 0 0-0.052 0.161c0 0.098 0.06 0.181 0.148 0.181 0.053 0 0.115-0.03 0.184-0.098l9.897-9.569c0.495-0.422 0.81-0.917 0.81-1.619 0-0.706-0.317-1.198-0.81-1.618l-9.897-9.572c-0.068-0.068-0.131-0.097-0.184-0.097-0.089 0-0.146 0.083-0.148 0.181 0 0.053 0.015 0.11 0.052 0.161 0.881 1.267 1.689 2.851 1.689 4.752 0 2.005-1.161 3.554-3.131 3.554-1.433 0-2.99-1.333-2.983-3.127 0.003-0.938 0.434-2.003 1.536-3.067A0.941 0.941 0 0 0 23.025 2.483c-0.006-1.121-1.99-2.483-4.314-2.483m-7.607 0.81L1.209 10.387C0.715 10.805 0.399 11.298 0.399 12.001c0 0.701 0.317 1.196 0.81 1.618l9.895 9.571c0.063 0.065 0.125 0.091 0.177 0.09 0.094 0 0.158-0.086 0.155-0.185a0.284 0.284 0 0 0-0.086-0.186C9.027 20.025 7.338 16.716 7.338 12.037c0-4.682 1.689-8.056 4.012-10.943a0.279 0.279 0 0 0 0.086-0.186c0.003-0.103-0.06-0.186-0.155-0.185-0.051 0-0.113 0.026-0.177 0.09"/></svg>