<svg fill="#596CAF" role="img" viewBox="0 0 20 24" xmlns="http://www.w3.org/2000/svg"><title>Carrd</title><path d="M19.254 18.421L7.746 23.947a0.516 0.516 0 0 1-0.23 0.053 0.549 0.549 0 0 1-0.284-0.08 0.529 0.529 0 0 1-0.247-0.451v-5.473l-6.217-2.602c-0.199-0.084-0.327-0.274-0.327-0.491V0.532c0-0.181 0.093-0.354 0.248-0.451 0.155-0.097 0.349-0.106 0.513-0.031l11.964 5.743 5.632-2.703c0.164-0.08 0.358-0.066 0.513 0.031a0.529 0.529 0 0 1 0.248 0.451v14.371c-0.004 0.204-0.119 0.389-0.305 0.478zM1.503 1.377v13.172l5.482 2.297v-2.646L3.538 12.81c-0.27-0.111-0.403-0.42-0.297-0.69 0.111-0.274 0.42-0.403 0.691-0.296l3.053 1.23v-2.173L3.538 9.492c-0.27-0.111-0.403-0.42-0.297-0.69 0.111-0.274 0.42-0.403 0.691-0.297l3.053 1.23v-0.632c0-0.204 0.115-0.389 0.301-0.478l0.787-0.381-4.562-2.075c-0.265-0.119-0.385-0.438-0.265-0.703 0.119-0.266 0.438-0.385 0.703-0.266l5.367 2.447 2.615-1.257zM18.493 4.417L8.047 9.434v13.194l10.446-5.022z m-8.451 6.867l5.986-2.894a0.528 0.528 0 0 1 0.708 0.248c0.128 0.265 0.018 0.584-0.247 0.708l-5.987 2.894a0.545 0.545 0 0 1-0.23 0.053c-0.199 0-0.385-0.111-0.478-0.301-0.124-0.261-0.013-0.58 0.248-0.708z m0 3.318l5.986-2.893a0.528 0.528 0 0 1 0.708 0.247c0.128 0.265 0.018 0.584-0.247 0.708l-5.987 2.894a0.545 0.545 0 0 1-0.23 0.053c-0.199 0-0.385-0.111-0.478-0.301-0.124-0.265-0.013-0.58 0.248-0.708z m0 3.314l5.986-2.893a0.528 0.528 0 0 1 0.708 0.247c0.128 0.266 0.018 0.584-0.247 0.708l-5.987 2.894a0.545 0.545 0 0 1-0.23 0.053c-0.199 0-0.385-0.111-0.478-0.301-0.124-0.261-0.013-0.58 0.248-0.708z"/></svg>