<svg fill="#EB1510" role="img" viewBox="0 0 60 24" xmlns="http://www.w3.org/2000/svg"><title>Carto</title><path d="M47.617 0C54.244 0 59.617 5.373 59.617 12s-5.373 12-12 12c-4.701 0-8.77-2.702-10.738-6.638h1.155c1.879 3.352 5.467 5.617 9.583 5.617 6.063 0 10.979-4.915 10.979-10.979 0-6.063-4.915-10.979-10.979-10.979-4.116 0-7.703 2.265-9.583 5.617h-1.155c1.969-3.936 6.038-6.638 10.738-6.638z m0 8.17c2.115 0 3.83 1.715 3.83 3.83 0 2.115-1.715 3.83-3.83 3.83-2.115 0-3.83-1.715-3.83-3.83 0-2.115 1.715-3.83 3.83-3.83z m-43.382 0.027c1.497 0 2.46 0.628 3.109 1.518l-1.528 1.183c-0.419-0.513-0.9-0.858-1.602-0.858-1.026 0-1.748 0.879-1.748 1.947v0.02c0 1.099 0.722 1.957 1.748 1.957 0.764 0 1.214-0.355 1.654-0.89l1.528 1.089c-0.691 0.953-1.623 1.654-3.234 1.654C2.068 15.818 0.383 14.216 0.383 12.029v-0.02c0-2.135 1.633-3.81 3.852-3.81z m11.686 0.095l3.119 7.38h-2.177l-0.523-1.319H13.502l-0.523 1.319h-2.125l3.109-7.38z m10.538 0.052c1.121 0 1.895 0.293 2.387 0.785 0.429 0.429 0.649 0.984 0.649 1.706v0.02c0 1.13-0.597 1.874-1.507 2.261l1.748 2.554h-2.334l-1.476-2.219h-0.901v2.219h-2.03v-7.327z m13.324 0v1.779h-2.199v5.549h-2.03v-5.549h-2.188v-1.779z m-24.857 2.355l-0.827 2.073h1.644z m11.439-0.607h-1.34v1.769h1.351c0.68 0 1.088-0.335 1.088-0.869v-0.019c0-0.586-0.429-0.879-1.099-0.88z"/></svg>