<svg fill="#00C244" role="img" viewBox="0 0 25 24" xmlns="http://www.w3.org/2000/svg"><title>Cash App</title><path d="M24.095 3.471a5.102 5.102 0 0 0-3.051-3.051c-1.311-0.42-2.501-0.42-4.922-0.42H8.858c-2.401 0-3.612 0-4.902 0.4a5.102 5.102 0 0 0-3.051 3.061C0.495 4.762 0.495 5.962 0.495 8.363v7.274c0 2.411 0 3.602 0.4 4.902a5.102 5.102 0 0 0 3.051 3.051c1.301 0.41 2.501 0.41 4.902 0.41h7.284c2.411 0 3.612 0 4.902-0.4a5.102 5.102 0 0 0 3.061-3.061c0.41-1.301 0.41-2.501 0.41-4.902v-7.254c0-2.411 0-3.612-0.41-4.912z m-6.173 4.632l-0.93 0.931a0.5 0.5 0 0 1-0.67 0.01 5.002 5.002 0 0 0-3.222-1.181c-0.97 0-1.941 0.32-1.941 1.211 0 0.9 1.04 1.201 2.241 1.65 2.101 0.7 3.842 1.581 3.842 3.642 0 2.241-1.741 3.782-4.582 3.952l-0.26 1.2a0.49 0.49 0 0 1-0.48 0.39H10.129l-0.09-0.01a0.5 0.5 0 0 1-0.38-0.59l0.28-1.27a6.543 6.543 0 0 1-2.881-1.571v-0.01a0.48 0.48 0 0 1 0-0.68l1-0.971a0.49 0.49 0 0 1 0.67 0c0.91 0.86 2.131 1.341 3.392 1.321 1.301 0 2.171-0.55 2.171-1.421 0-0.87-0.88-1.1-2.541-1.721-1.761-0.63-3.431-1.521-3.432-3.601 0-2.421 2.011-3.602 4.392-3.712l0.25-1.23a0.48 0.48 0 0 1 0.48-0.38h1.781l0.1 0.01c0.26 0.06 0.43 0.31 0.37 0.57l-0.27 1.371c0.9 0.3 1.751 0.77 2.481 1.39l0.02 0.02c0.19 0.2 0.19 0.5 0 0.68z"/></svg>