<svg fill="#FFCD11" role="img" viewBox="0 0 40 24" xmlns="http://www.w3.org/2000/svg"><title>Caterpillar</title><path d="M19.836 11.263l1.326-6.775 1.318 6.775z m4.741-10.774h-6.857L13.721 18.418l7.441-6.007 7.758 6.501z m-3.415 13.477l-12.408 10.034H33.137zM39.829 0.466v4.577h-3.414v18.921h-1.457l-4.025-3.371V5.043h-3.4V0.466zM11.526 20.037c0.906-0.757 1.061-1.692 1.061-2.531V13.983h-4.924v4.782a1.239 1.239 0 0 1-1.236 1.241c-0.684 0-1.193-0.555-1.193-1.239V5.213c0-0.684 0.509-1.239 1.193-1.239a1.239 1.239 0 0 1 1.238 1.239v4.814H12.581V5.035c0-2.76-1.804-5.03-6.197-5.035-4.508 0-6.213 2.28-6.213 5.04v14.15c0 2.735 2.171 4.804 4.949 4.803h1.523Z"/></svg>