<svg fill="#E60505" role="img" viewBox="0 0 24 24" xmlns="http://www.w3.org/2000/svg"><title>CBC</title><path d="M12 0c-1.567 0-2.938 0.84-3.686 2.094l7.369 0.002C14.936 0.84 13.568 0 12 0z m0 2.768c-2.369 0-4.291 1.919-4.291 4.287h8.578c0-2.368-1.919-4.287-4.287-4.287z m-4.953 0.209c-2.251 0-4.076 1.824-4.076 4.074h4.076V2.977z m9.904 0.002v4.072l4.072 0.002c0-2.25-1.823-4.074-4.072-4.075zM7.047 7.709c-2.37 0-4.289 1.922-4.289 4.291 0 2.368 1.919 4.287 4.289 4.287V7.709z m9.904 0v8.578c2.368 0 4.291-1.919 4.291-4.287 0-2.369-1.923-4.291-4.291-4.291z m-4.955 0.002C9.628 7.711 7.709 9.632 7.709 12c0 2.369 1.919 4.287 4.287 4.287 2.368 0 4.289-1.919 4.289-4.287 0-2.368-1.921-4.289-4.289-4.289z m-9.9 0.604C0.84 9.062 0 10.433 0 12c0 1.567 0.84 2.936 2.094 3.686l0.002-7.372z m19.808 0l0.002 7.371C23.16 14.936 24 13.567 24 12c0-1.567-0.84-2.938-2.096-3.686zM7.047 16.949l-4.074 0.002c0 2.249 1.822 4.07 4.074 4.07v-4.072z m9.904 0v4.07c2.248 0 4.072-1.819 4.072-4.068l-4.072-0.002z m-9.242 0.002c0 2.369 1.922 4.289 4.291 4.289 2.368 0 4.287-1.92 4.287-4.289H7.709z m0.549 4.953C9.006 23.159 10.376 24 11.943 24c1.567 0 2.937-0.841 3.686-2.096H8.258z"/></svg>