<svg fill="#CB2D29" role="img" viewBox="0 0 27 24" xmlns="http://www.w3.org/2000/svg"><title>CCleaner</title><path d="M16.687 0C10.112 0 4.784 5.373 4.784 12c0 0.543 0.035 1.077 0.105 1.601 1.033-0.786 1.747-1.587 2.121-2.061l-0.14-0.088L8.793 8.836s0.305-0.364 0.742-0.365c0.14 0 0.286 0.03 0.419 0.083 0.133 0.052 1.073 0.445 1.722 0.716l3.668-7.792s0.358-0.739 1.14-0.737c0.182 0.001 0.371 0.039 0.612 0.136 0.241 0.097 0.464 0.289 0.588 0.514 0.125 0.226 0.15 0.46 0.138 0.649-0.021 0.2-0.105 0.388-0.157 0.582l-1.781 4.467c0.389-0.064 0.626-0.072 0.885-0.072 0.463 0 2.788 0.107 4.738 2.189 0.118 0.126 0.232 0.277 0.345 0.382 0.183 0.184 0.482 0.214 0.674-0.019l3.59-4.192c0.168-0.195 0.142-0.499 0.01-0.688-1.083-1.42-2.475-2.588-4.074-3.403-1.612-0.822-3.435-1.286-5.365-1.286Zm-0.206 1.283c-0.467-0.001-0.637 0.404-0.637 0.405l-3.897 8.279c0.012 0.005-1.864-0.778-2.182-0.905-0.09-0.035-0.166-0.049-0.231-0.048-0.205 0-0.296 0.131-0.296 0.131l-1.588 2.16s4.967 3.169 5.085 3.268c0.118 0.099 0.244 0.108 0.243 0.108l2.754 0.525s0.326-2.579 0.396-3.037c0.071-0.48-0.267-0.568-0.267-0.567s-1.104-0.461-2.023-0.845l3.323-8.336s0.422-0.756-0.307-1.061c-0.141-0.053-0.265-0.076-0.373-0.077z m-9.005 10.554c-0.802 1.024-3.125 3.57-6.932 4.346 0 0-0.088 0.024-0.044 0.229 0.043 0.205 0.535 1.791 2.02 3.314 0 0 0.358 0.386 0.818 0.508 0.458 0.123 1.311 0.092 1.793 0 0 0-0.208 0.188-1.012 0.712a0.112 0.112 0 0 0-0.047 0.127c0.02 0.067 0.087 0.156 0.255 0.275 0.315 0.225 1.347 0.866 2.012 1.125 0 0 0.235 0.162 1.196 0.165h0.896l0.691-0.387-0.32 0.387s0.986 0.026 1.798-0.135c0.237-0.047 0.463-0.141 0.665-0.276 0.753-0.504 2.562-2.116 4.013-6.555l-2.395-0.457c-0.096-0.017-0.31-0.07-0.496-0.227 0.031 0.025-0.717-0.479-4.911-3.151z m14.37 2.622c-1.555 2.422-4.501 2.511-4.967 2.52-0.495 0.01-0.957-0.043-1.431-0.163-1.417 3.807-3.082 5.327-3.882 5.862a2.53 2.53 0 0 1-0.14 0.087c1.587 0.791 3.372 1.235 5.261 1.235 3.892 0 7.331-1.898 9.503-4.808 0.291-0.405 0.315-0.487 0.322-0.607 0.012-0.222-0.144-0.381-0.144-0.382l-3.734-3.808c-0.402-0.445-0.764-0.002-0.788 0.064z"/></svg>