<svg fill="#DC0D15" role="img" viewBox="0 0 16 24" xmlns="http://www.w3.org/2000/svg"><title>CD Projekt</title><path d="M14.943 20.154c-0.687 0.323-1.719 0.302-2.986-0.072l0.213 0.547-0.389-0.226-1.537-0.907h0.001l-0.033-0.158C10.784 19.509 13.747 20.507 14.943 20.154zM3.93 22.045c-0.127 0.229 0.179 0.645 0.179 0.645-0.687-0.534-1.276 0.346-1.276 0.346-0.039-0.385 0.397-0.669 0.397-0.669-0.715 0.113-1.549 0.78-1.549 0.78-0.097-0.333 0.319-0.556 0.319-0.556 0-0.263 0.361-0.236 0.763-0.347 0.272-0.074 0.679-0.186 0.919-0.252 0.005-0.004 0.007-0.01 0.011-0.013 0-0.002 0.303-0.348 0.671-0.745 0.291-0.31 0.614-0.648 0.868-0.88 0.118 0.018 0.226 0.031 0.294 0.037-0.243 0.199-0.651 0.62-0.999 0.994C4.267 21.665 4.04 21.921 3.93 22.045zM6.169 14.083l8.822 6.05c-0.013 0.007-0.029 0.011-0.042 0.018-0.008-0.004-0.163-0.064-0.328-0.129-0.081-0.033-0.178-0.072-0.29-0.118h-0.001c-0.005-0.002-0.012-0.005-0.019-0.009-0.772-0.317-2.27-0.951-4.634-2.041-2.4-1.112-3.815-1.798-5.028-2.388l0.001 0.002c0 0-0.001-0.002-0.002-0.002l4.363 3.974 0.006 0.004 0.011 0.011h0.002l0.256 0.211-1.153 0.348c-0.001-0.006-0.005-0.013-0.006-0.018-0.006-0.016-0.011-0.033-0.017-0.051-0.003-0.008-0.006-0.017-0.009-0.025-0.006-0.017-0.012-0.033-0.018-0.05-0.003-0.007-0.006-0.015-0.009-0.023-0.011-0.023-0.021-0.047-0.032-0.073l-0.202 0.094c0.09 0.197 0.121 0.356 0.121 0.482-0.001 0.16-0.064 0.282-0.109 0.353-0.025 0.037-0.07 0.086-0.071 0.086l0.064 0.088c-0.004 0.011-0.008 0.023-0.014 0.035-0.341 0.545-0.652 1.308-0.786 1.653-0.044 0.114-0.069 0.183-0.069 0.183 0 0 0 0.002-0.001 0.005 0.227 0.009 0.767 0.073 0.627 0.504l-0.122 0.444c-0.268-0.478-0.154-0.606-0.154-0.606C6.545 22.894 4.969 24 4.969 24c0.052-0.411 0.506-0.697 0.768-0.847-0.221-0.026-0.494 0.165-0.64 0.283 0.137-0.27 0.335-0.433 0.539-0.522-0.002-0.002-0.002-0.002-0.003-0.004 0.359-0.135 0.712-0.069 0.753-0.029l-0.002 0.001c0.122-0.038 0.131-0.043 0.241-0.068 0.036-0.026 0.071-0.112 0.088-0.158 0.001-0.005 0.363-1.014 0.81-1.774-0.217-0.021-0.388-0.274-0.388-0.581 0-0.018 0.001-0.037 0.002-0.055-0.475 0.069-0.973 0.088-1.484 0.043-0.016 0-0.032-0.003-0.049-0.005 0 0.001 0 0.001 0 0.001-0.024-0.002-0.131-0.012-0.262-0.029-0.945-0.128-1.803-0.45-2.507-0.911l0.002 0.01c0 0-1.279-0.682-1.551-2.233l-0.309 0.195c0-1.39 0.238-2.365 0.563-3.111l-0.38 0.037 0.38-0.534c-0.05 0.103-0.096 0.212-0.143 0.332l0.233-0.039 0-0.002c0.047-0.096 0.092-0.184 0.138-0.27 0.092-0.169 0.188-0.328 0.295-0.484 0.024-0.035 0.069-0.098 0.111-0.152 0.062-0.08 0.147-0.179 0.204-0.245 0.051-0.06 0.166-0.172 0.22-0.221 0.041-0.037 0.114-0.096 0.147-0.12l-0.229 1.072c0.669-0.832 1.912-2.075 2.535-2.665-0.118-0.222-0.248-0.418-0.386-0.581L4.081 10.763l-0.025 0.019c0 0-0.416 0.314-0.565 0.412-0.409 0.267-0.706-0.07-0.722-0.09 0.088 0.074 0.201 0.12 0.328 0.12 0.14 0 0.267-0.055 0.357-0.144 0.092-0.088 0.147-0.209 0.147-0.343 0-0.068-0.014-0.132-0.038-0.191-0.044-0.097-0.12-0.178-0.214-0.23H3.351c0 0-0.104-0.06-0.082-0.158 0.022-0.099 0.206-0.291 0.206-0.291l0.225-0.229 0.36-0.367 0.777-0.79c0.047-0.052 0.077-0.087 0.077-0.087L4.232 8.686 4.23 8.68c0-0.009 0.006-0.037 0.053-0.123 0.065-0.119 0.22-0.335 0.224-0.343l0.001-0.001L3.243 9.117c0-0.001 0-0.001 0-0.002 0.074-0.35 0.824-1.365 0.858-1.412L3.271 8.464c0-0.002-0.001-0.004-0.003-0.006C3.225 8.2 3.639 7.317 3.696 7.197 3.698 7.193 3.699 7.19 3.701 7.187 3.399 7.488 3.181 7.815 3.174 7.823c0-0.291 0.223-0.709 0.223-0.709C3.333 7.176 3.273 7.242 3.215 7.307 2.347 8.285 2.096 9.429 2.028 9.873c0 0 0 0.001-0.001 0.001C1.882 9.963 1.971 9.854 1.901 10.022c-0.256 0.073-0.47 0.202-0.642 0.346-0.287 0.237-0.459 0.511-0.513 0.605 0.034-0.043 0.07-0.083 0.105-0.119C1.381 10.3 1.993 10.36 1.993 10.36s0.682 1.26 0.542 1.405c-0.015 0.015-0.039 0.017-0.072 0.006-0.09-0.031-0.149-0.017-0.182 0.024-0.105 0.117-0.009 0.454-0.008 0.462l-1.809-0.778c0.858-0.318 1.47-0.1 1.47-0.1 0 0.212 0.48 0.184 0.48 0.184l0-0.001h0.001c0-0.196-0.365-0.43-0.365-0.43s-0.327 0.136-0.716 0c-0.077-0.027-0.161-0.038-0.242-0.034C1.021 11.1 0.947 11.115 0.875 11.136c-0.206 0.059-0.357 0.174-0.357 0.174v-0.001L0.516 11.31l1.131-4.139 0.119 1.591L4.061 3.367l0.039 4.037L10.355 0l-3.847 8.316 0.023 0.041 2.713-1.954-0.573 1.149 3.793-1.481-3.539 2.585 6.612-0.81-8.021 3.471 4.105-1.001L6.169 14.083zM7.513 11.319l0.001 0-0.001-0.004C7.513 11.316 7.513 11.317 7.513 11.319zM5.516 12.181c-0.095-0.395-0.223-0.757-0.371-1.076L4.201 13.182 5.516 12.181zM3.216 11.087c0.208-0.071 0.314-0.308 0.239-0.529l-0.208 0.071c0.013 0.031 0.022 0.064 0.022 0.099 0 0.031-0.005 0.06-0.017 0.086l0.095 0.057c-0.032 0.051-0.081 0.095-0.141 0.12-0.036 0.016-0.074 0.022-0.112 0.022-0.122 0-0.236-0.074-0.286-0.195-0.004-0.01-0.01-0.022-0.012-0.034l-0.092 0.03C2.779 11.038 3.009 11.158 3.216 11.087z"/></svg>