<svg fill="#F47216" role="img" viewBox="0 0 25 24" xmlns="http://www.w3.org/2000/svg"><title>Celestron</title><path d="M12.5 0c-6.628 0-12.002 5.372-12.002 12.002 0 6.629 5.374 11.998 12.002 11.998 1.745 0 3.404-0.37 4.899-1.041C11.258 21.241 2.777 17.325 3.749 9.531c0.641-5.135 7.216-8.461 13.807-8.416C16.019 0.399 14.307 0 12.5 0z m5.431 1.844c-5.093-0.049-9.307 2.041-9.69 5.558-0.605 5.597 7.156 8.81 11.846 10.142 0.906 0.259 1.897 0.42 2.768 0.523C23.901 16.287 24.502 14.211 24.502 12.002c0-4.251-2.21-7.984-5.542-10.119a18.679 18.679 0 0 0-1.029-0.039z"/></svg>