<svg fill="#262577" role="img" viewBox="0 0 25 24" xmlns="http://www.w3.org/2000/svg"><title>CentOS</title><path d="M12.576 0L9.366 3.232H3.8v5.464L0.434 12.01l3.367 3.316v5.42h5.404l3.303 3.254 3.303-3.254h5.46v-5.404L24.566 12.026l-3.25-3.27V3.273H15.828z m0 0.753l2.504 2.52h-1.699v6.477l-0.805 0.809-0.814-0.819V3.232H10.114z m-8.245 3.008h4.508L6.954 5.657l4.277 4.303v0.657H10.429L6.139 6.392l-1.808 1.78z m5.256 0h1.644v5.445l-3.528-3.55z m4.326 0.043h1.696l1.84 1.852-3.536 3.559z m2.444 0h4.429v4.418l-1.841-1.852-4.264 4.291h-0.768v-0.694l4.284-4.311z m2.588 3.318l1.841 1.853v1.686h-5.357z m-12.805 0.013l3.534 3.481H4.331v-1.699zM3.8 9.44v1.706h6.412l0.876 0.863-0.786 0.774H3.802v1.796L1.191 12.01z m17.516 0.068l2.502 2.517-2.547 2.564v-1.806h-6.445l-0.754-0.758 0.829-0.834h6.415z m-9.554 0.984l0.814 0.819 0.187-0.189 0.618-0.621v0.69h0.772l-0.829 0.834 0.754 0.758h-0.723v0.813l-0.847-0.835-0.745 0.734v-0.711h-0.704l0.785-0.774-0.189-0.187-0.685-0.676h0.792z m-7.431 2.822h5.432l-3.623 3.57-1.808-1.782z m6.188 0h0.712v0.704l-4.428 4.362 1.862 1.834h-4.334v-4.366l1.808 1.78z m3.367 0h0.719l4.34 4.367 0.187-0.188 1.608-1.619v4.34h-4.39l1.863-1.835-0.189-0.186-4.138-4.076z m1.468 0h5.386v1.808l-1.795 1.806z m-2.846 0.192l0.847 0.834v6.405h1.7l-2.546 2.509-2.547-2.509h1.8V14.242z m-1.277 1.258v5.45H9.422l-1.862-1.833z m2.655 0.098l3.571 3.518-1.863 1.835h-1.709z"/></svg>