<svg fill="#EF5C55" role="img" viewBox="0 0 25 24" xmlns="http://www.w3.org/2000/svg"><title>Ceph</title><path d="M12.458 0A12.173 12.173 0 0 0 3.817 3.58 12.181 12.181 0 0 0 0.237 12.222a12.195 12.195 0 0 0 1.234 5.357c0.736 1.506 1.929 3.008 3.278 4.133 0.879-0.48 1.38-1.012 1.485-1.579 0.102-0.545-0.137-1.131-0.753-1.844a9.229 9.229 0 0 1-2.268-6.067c0-5.097 4.147-9.245 9.245-9.245h0.082c5.099 0 9.246 4.148 9.246 9.245a9.228 9.228 0 0 1-2.267 6.066c-0.612 0.708-0.858 1.32-0.751 1.87 0.11 0.568 0.608 1.091 1.481 1.555 1.351-1.124 2.543-2.626 3.279-4.135A12.158 12.158 0 0 0 24.763 12.222a12.19 12.19 0 0 0-3.58-8.642A12.184 12.184 0 0 0 12.541 0h-0.042z m-0.005 4.943a7.227 7.227 0 0 0-3.842 1.098A7.36 7.36 0 0 0 6.522 8.008a7.321 7.321 0 0 0-1.186 2.707 7.345 7.345 0 0 0 0.04 3.194 7.296 7.296 0 0 0 1.247 2.664c0.157 0.212 0.333 0.405 0.52 0.61l0.189 0.206 0.005 0.007c0.007 0.007 0.017 0.016 0.027 0.027 0.649 0.754 0.978 1.567 0.978 2.412a3.474 3.474 0 0 1-1.827 3.054 12.185 12.185 0 0 0 2.744 1.111c0.143-0.09 0.627-0.451 1.1-1.107a5.006 5.006 0 0 0 0.961-3.055 6.739 6.739 0 0 0-0.501-2.422 6.864 6.864 0 0 0-1.33-2.077l-0.003-0.005-0.126-0.145c-0.215-0.25-0.437-0.508-0.615-0.809a4.194 4.194 0 0 1-0.473-1.16 4.351 4.351 0 0 1-0.024-1.89 4.343 4.343 0 0 1 0.701-1.599 4.308 4.308 0 0 1 3.507-1.811H12.543a4.294 4.294 0 0 1 3.507 1.811c0.337 0.476 0.58 1.029 0.701 1.6a4.363 4.363 0 0 1-0.023 1.889c-0.095 0.399-0.254 0.789-0.474 1.16-0.177 0.301-0.4 0.559-0.615 0.809l-0.125 0.145-0.005 0.005a6.883 6.883 0 0 0-1.329 2.077 6.752 6.752 0 0 0-0.501 2.422 5.004 5.004 0 0 0 0.961 3.055c0.473 0.656 0.958 1.017 1.099 1.107a12.034 12.034 0 0 0 2.746-1.111 3.473 3.473 0 0 1-1.828-3.053c0-0.835 0.32-1.625 0.977-2.411 0.009-0.012 0.02-0.022 0.028-0.03l0.006-0.005 0.188-0.208c0.187-0.204 0.363-0.399 0.521-0.609a7.296 7.296 0 0 0 1.247-2.665 7.368 7.368 0 0 0 0.04-3.193 7.342 7.342 0 0 0-1.185-2.707 7.361 7.361 0 0 0-2.089-1.967 7.229 7.229 0 0 0-3.844-1.098h-0.092zM12.5 9.926a2.417 2.417 0 0 0-2.414 2.412A2.416 2.416 0 0 0 12.5 14.75c1.329 0 2.412-1.082 2.412-2.412A2.416 2.416 0 0 0 12.5 9.924z"/></svg>