<svg fill="#4445E7" role="img" viewBox="0 0 29 24" xmlns="http://www.w3.org/2000/svg"><title>Chainguard</title><path d="M28.532 17.064c-0.127-1.314-3.962-1.741-6.687-2.926 0.596-1.189 1.5-2.536 1.11-5.014C22.433 5.83 19.597 0 14.5 0c-5.097 0-7.933 5.826-8.455 9.124-0.39 2.478 0.518 3.825 1.11 5.014-2.721 1.185-6.556 1.616-6.687 2.926-0.119 1.214 2.211 1.657 4.837 1.5-0.662 0.808-1.18 1.575-1.138 2.125 0.066 0.924 1.048 1.525 2.598 1.525 1.735 0 4.414-1.098 5.051-4.065 0 0-0.263 1.189-0.119 2.329 0.173 1.359 1.192 3.522 2.803 3.522 1.611 0 2.631-2.163 2.803-3.522 0.144-1.14-0.119-2.329-0.119-2.329 0.637 2.967 3.313 4.065 5.051 4.065 1.55 0 2.532-0.601 2.598-1.525 0.041-0.551-0.481-1.322-1.139-2.125 2.626 0.157 4.957-0.286 4.838-1.5zM9.161 4.927c-0.304-0.261-0.222-0.825 0.181-1.26 0.403-0.435 0.978-0.58 1.282-0.319s0.222 0.825-0.181 1.26c-0.403 0.435-0.978 0.576-1.282 0.319Zm2.774 7.508c-1.254 0-2.269-1.023-2.269-2.287s1.015-2.287 2.269-2.288c1.254 0 2.269 1.023 2.269 2.288 0 1.26-1.015 2.287-2.269 2.287z m1.385-9.008c-0.884 0.398-1.825 0.261-2.104-0.303-0.28-0.568 0.21-1.347 1.093-1.744 0.884-0.398 1.825-0.261 2.105 0.302 0.28 0.564-0.21 1.347-1.094 1.745Zm6.104 9.008c-1.253 0-2.269-1.023-2.269-2.287 0-1.264 1.015-2.287 2.269-2.288 1.254 0 2.269 1.023 2.269 2.288 0 1.26-1.015 2.287-2.269 2.287z m0.185-2.304l0.834-0.99a1.41 1.41 0 0 0-1.019-0.435c-0.789 0-1.426 0.642-1.426 1.438 0 0.796 0.637 1.438 1.426 1.437 0.789 0 1.426-0.642 1.426-1.437v-0.013z m-6.252 0v0.013c0 0.796-0.637 1.438-1.426 1.437-0.789 0-1.426-0.642-1.426-1.437 0-0.796 0.637-1.438 1.426-1.438 0.399 0 0.76 0.166 1.019 0.435l-0.834 0.99Z"/></svg>