<svg fill="#A30701" role="img" viewBox="0 0 21 24" xmlns="http://www.w3.org/2000/svg"><title>Chai</title><path d="M20.723 5.831L10.731 0.062a0.462 0.462 0 0 0-0.462 0L0.276 5.831a0.462 0.462 0 0 0-0.23 0.4v11.538c0 0.165 0.088 0.317 0.23 0.4l9.993 5.769a0.462 0.462 0 0 0 0.462 0l9.993-5.769a0.462 0.462 0 0 0 0.23-0.4V6.231a0.462 0.462 0 0 0-0.231-0.4z m-0.63 11.707L10.5 23.077l-9.593-5.539V6.461L10.5 0.923l9.593 5.538v11.077zM9.796 8.186c0.387-0.277 0.792-0.496 1.213-0.659s0.843-0.243 1.263-0.244c0.26 0 0.502 0.038 0.727 0.114 0.225 0.076 0.42 0.185 0.584 0.328s0.294 0.32 0.389 0.532c0.095 0.212 0.143 0.454 0.143 0.727 0 0.329-0.065 0.655-0.195 0.98-0.13 0.325-0.304 0.625-0.522 0.902s-0.471 0.519-0.756 0.727-0.582 0.357-0.89 0.448l-0.136-0.227a2.087 2.087 0 0 0 0.5-0.351 2.275 2.275 0 0 0 0.389-0.483c0.108-0.18 0.192-0.37 0.25-0.572a2.189 2.189 0 0 0 0.088-0.613c0-0.238-0.035-0.463-0.104-0.675-0.069-0.212-0.171-0.397-0.305-0.555-0.134-0.158-0.3-0.282-0.496-0.373-0.197-0.091-0.423-0.136-0.679-0.136-0.311 0-0.597 0.061-0.856 0.181-0.26 0.121-0.493 0.284-0.701 0.49s-0.388 0.441-0.542 0.708a4.874 4.874 0 0 0-0.383 0.837 5.617 5.617 0 0 0-0.231 0.886c-0.052 0.299-0.078 0.58-0.077 0.844 0 0.268 0.028 0.545 0.084 0.831s0.139 0.567 0.247 0.844c0.108 0.277 0.242 0.539 0.402 0.785 0.16 0.247 0.345 0.463 0.555 0.649a2.583 2.583 0 0 0 0.701 0.444c0.258 0.11 0.538 0.166 0.84 0.166 0.208 0 0.41-0.028 0.607-0.084a2.987 2.987 0 0 0 0.568-0.228 3.209 3.209 0 0 0 0.516-0.337 3.967 3.967 0 0 0 0.451-0.422l0.214 0.208c-0.19 0.251-0.416 0.492-0.678 0.723a5.543 5.543 0 0 1-0.847 0.617 4.624 4.624 0 0 1-0.951 0.428c-0.331 0.106-0.659 0.159-0.983 0.159-0.316 0-0.613-0.055-0.892-0.165-0.279-0.11-0.535-0.26-0.769-0.448s-0.442-0.409-0.627-0.662c-0.184-0.253-0.34-0.522-0.467-0.808s-0.225-0.58-0.292-0.883-0.101-0.599-0.101-0.889c0-0.42 0.07-0.851 0.211-1.295s0.334-0.874 0.581-1.291 0.538-0.812 0.873-1.185c0.335-0.372 0.697-0.697 1.084-0.973z"/></svg>