<svg fill="#F3F5F5" role="img" viewBox="0 0 26 24" xmlns="http://www.w3.org/2000/svg"><title>Charles</title><path d="M11.4 0.014c-0.109 0.012-0.409 0.052-0.661 0.081-0.255 0.03-0.749 0.117-1.105 0.185l-0.647 0.13-0.938-0.14C6.316 0.014 4.179 0.042 2.648 0.34c-1.555 0.295-2.602 0.852-2.356 1.246 0.035 0.058 0.38 0.361 0.765 0.673 1.631 1.317 2.438 2.315 2.903 3.608 0.242 0.672 0.329 1.183 0.323 2.002-0.005 0.957-0.121 1.461-0.777 3.441-0.287 0.863-0.599 1.914-0.69 2.33-0.151 0.69-0.168 0.854-0.168 1.857 0 1.085 0.046 1.52 0.255 2.384a6.996 6.996 0 0 0 2.013 3.417c0.358 0.325 0.478 0.469 0.457 0.551-0.053 0.186 0.096 0.504 0.34 0.754 0.62 0.627 2.003 1.161 3.472 1.334 0.754 0.092 2.315 0.081 3.04-0.023 0.563-0.081 1.561-0.32 1.854-0.435 0.627-0.255 1.186-0.592 1.468-0.882 0.472-0.481 0.478-0.493 0.443-0.777-0.034-0.238-0.023-0.261 0.179-0.412 0.271-0.202 1.136-1.08 1.37-1.387 0.212-0.278 0.612-0.962 0.732-1.264 0.109-0.255 0.149-0.261 0.329-0.07 0.39 0.418 1.189 0.766 1.623 0.708 0.374-0.053 0.633-0.383 0.431-0.552-0.039-0.034-0.281-0.149-0.541-0.26a4.604 4.335 0 0 1-0.68-0.36l-0.212-0.168 0.023-0.435c0.034-0.754 0.265-1.085 2.05-2.952 1.428-1.497 1.694-1.799 2.281-2.594 0.616-0.83 0.939-1.357 1.324-2.176 0.772-1.647 1.036-3.44 0.703-4.762-0.531-2.105-2.54-3.683-4.671-3.666-1.198 0.006-2.223 0.453-3.299 1.433-0.611 0.556-0.733 0.504-0.559-0.226 0.103-0.459 0.085-0.668-0.087-1.015-0.345-0.69-1.699-1.34-3.253-1.567-0.488-0.07-1.992-0.121-2.333-0.08z m10.58 3.207c1.175 0.361 2.147 1.37 2.47 2.559 0.212 0.8 0.057 2.274-0.363 3.423a12.353 11.633 0 0 1-1.077 2.1c-0.35 0.532-1.381 1.81-1.965 2.425a46.454 43.745 0 0 0-1.606 1.786c-0.322 0.382-0.542 0.592-0.605 0.58-0.08-0.017-0.096-0.15-0.125-0.945a20.268 19.086 0 0 0-0.974-5.221c-0.219-0.627-0.276-1.01-0.167-1.079 0.046-0.03 0.333-0.053 0.64-0.053 0.357 0 0.57-0.022 0.599-0.064 0.023-0.039-0.138-0.244-0.398-0.492-0.449-0.435-0.622-0.701-0.766-1.179-0.178-0.59-0.034-1.548 0.322-2.179 0.507-0.888 1.474-1.596 2.425-1.764 0.425-0.076 1.158-0.03 1.59 0.104M12.542 7.051c0.104 0.035 0.265 0.122 0.363 0.204 0.127 0.109 0.212 0.138 0.329 0.116 0.24-0.053 0.793 0.22 0.92 0.44 0.053 0.1 0.144 0.238 0.202 0.308 0.085 0.104 0.104 0.186 0.074 0.424-0.028 0.255-0.011 0.329 0.111 0.51a0.807 0.807 0 0 1 0.143 0.47c0 0.204 0.017 0.251 0.087 0.226a0.189 0.178 0 0 0 0.085-0.145c0-0.209 0.168-0.516 0.312-0.581a0.822 0.822 0 0 1 0.404-0.028c0.241 0.04 0.265 0.053 0.241 0.186-0.017 0.081 0.011 0.181 0.064 0.226 0.081 0.087 0.081 0.098-0.018 0.174-0.098 0.07-0.103 0.099-0.041 0.26 0.07 0.187 0.07 0.187-0.091 0.158-0.092-0.018-0.178-0.024-0.197-0.006-0.017 0.017 0.018 0.215 0.081 0.435 0.144 0.516 0.138 0.661-0.029 1.12-0.109 0.308-0.127 0.429-0.085 0.626 0.085 0.458 0.056 1.669-0.063 2.425a15.044 14.166 0 0 1-0.404 1.826c-0.242 0.847-0.513 2.42-0.501 2.913 0.005 0.261 0.029 0.487 0.046 0.506 0.017 0.017 0.133-0.11 0.247-0.28 0.255-0.372 0.478-0.558 0.905-0.748 0.172-0.075 0.361-0.196 0.42-0.266 0.167-0.187 0.27-0.162 0.207 0.051-0.029 0.093-0.035 0.174-0.023 0.174 0.017 0-0.017 0.07-0.081 0.163-0.057 0.087-0.138 0.273-0.178 0.417-0.04 0.145-0.127 0.337-0.191 0.425-0.085 0.121-0.097 0.185-0.051 0.231 0.047 0.046 0.149-0.03 0.393-0.284 0.367-0.377 0.563-0.615 0.598-0.707 0.046-0.122 0.639-0.708 0.685-0.68 0.029 0.018 0.064 0.006 0.087-0.029 0.091-0.15 0.127-0.017 0.121 0.425l-0.011 0.475-0.312 0.343a59.469 59.469 0 0 1-0.835 0.892c-0.282 0.297-0.663 0.703-0.836 0.893a4.771 4.493 0 0 1-0.632 0.569c-0.316 0.215-0.984 0.475-1.413 0.558a3.028 3.028 0 0 0-0.344 0.07c-0.271 0.063-3.04 0.074-3.743 0.009a33.834 31.861 0 0 0-0.927-0.079 0.867 0.816 0 0 1-0.231-0.048 0.565 0.532 0 0 0-0.223-0.035c-0.552-0.011-0.998-0.121-1.303-0.329-0.121-0.082-0.287-0.145-0.368-0.146-0.081 0-0.143-0.03-0.144-0.058 0-0.034-0.04-0.057-0.087-0.058-0.046 0-0.085-0.03-0.085-0.058 0-0.035-0.03-0.057-0.063-0.057-0.07 0-0.306-0.21-0.646-0.576-0.133-0.138-0.329-0.342-0.425-0.446-0.106-0.105-0.191-0.21-0.191-0.232 0-0.031-0.053-0.1-0.117-0.167-0.229-0.244-0.344-0.378-0.315-0.378 0.011 0-0.029-0.11-0.085-0.245-0.226-0.499-0.093-0.539 0.202-0.074 0.114 0.173 0.24 0.319 0.28 0.319 0.109 0 0.357 0.302 0.525 0.638 0.074 0.151 0.271 0.417 0.424 0.597l0.296 0.32 0.247-0.059c0.132-0.035 0.265-0.087 0.293-0.11 0.069-0.064-0.191-0.425-0.708-0.98-0.425-0.459-0.535-0.645-0.345-0.598 0.064 0.017 0.127 0.052 0.138 0.081 0.017 0.023 0.121 0.03 0.225 0.012a1.056 0.994 0 0 1 0.46 0.058c0.219 0.074 0.265 0.074 0.265 0.011 0-0.046-0.023-0.098-0.057-0.116-0.03-0.017-0.047-0.117-0.035-0.22a0.777 0.733 0 0 0-0.196-0.505c-0.018-0.017-0.035-0.122-0.046-0.232l-0.017-0.197 0.161 0.145c0.092 0.081 0.247 0.186 0.35 0.226 0.104 0.039 0.265 0.162 0.351 0.273 0.157 0.186 0.179 0.196 0.414 0.162 0.14-0.022 0.273-0.052 0.295-0.063 0.035-0.024 0.319 0.092 0.64 0.255 0.023 0.011 0.04 0 0.04-0.03 0-0.028-0.092-0.098-0.202-0.149-0.253-0.122-0.253-0.198-0.005-0.245 0.236-0.046 0.368-0.011 0.764 0.191 0.324 0.162 0.445 0.145 0.277-0.046-0.131-0.149-0.074-0.319 0.076-0.225 0.191 0.121 0.311 0.417 0.299 0.754-0.011 0.435-0.011 0.43 0.122 0.308 0.074-0.07 0.103-0.145 0.08-0.228-0.225-0.76-0.265-1.073-0.306-2.325l-0.01-0.303-0.191 0.07a3.313 3.313 0 0 0-0.468 0.232c-0.35 0.209-0.661 0.244-1.069 0.127-0.173-0.046-0.457-0.127-0.627-0.174-0.174-0.047-0.336-0.122-0.358-0.163-0.109-0.168-0.12-0.446-0.029-0.579 0.127-0.181 0.117-0.221-0.074-0.221-0.085 0-0.236-0.022-0.33-0.052a2.138 2.013 0 0 0-0.414-0.087 1.572 1.48 0 0 1-0.293-0.058c-0.023-0.019-0.238-0.047-0.474-0.07-0.23-0.017-0.455-0.064-0.494-0.093-0.081-0.064-0.057-0.202 0.063-0.446 0.051-0.099 0.08-0.181 0.058-0.181-0.023 0 0-0.039 0.04-0.098a0.336 0.316 0 0 0 0.074-0.127c-0.034-0.151 0.393-0.935 0.582-1.085 0.191-0.144 0.57-0.25 0.887-0.255h0.202l-0.149-0.163c-0.308-0.325-0.398-0.603-0.382-1.172 0.018-0.667 0.053-0.702 0.802-0.835 0.765-0.14 0.949-0.087 1.324 0.372 0.092 0.109 0.127 0.127 0.148 0.064 0.064-0.169 0.301-0.355 0.439-0.355 0.081 0 0.323 0.105 0.535 0.231 0.219 0.128 0.421 0.233 0.457 0.233 0.114 0.006 0.517 0.36 0.672 0.586 0.149 0.232 0.223 0.569 0.236 1.08 0 0.202 0.035 0.299 0.133 0.388 0.167 0.156 0.23 0.382 0.247 0.858 0.011 0.343 0 0.406-0.121 0.528-0.143 0.145-0.587 0.251-0.789 0.187-0.127-0.04-0.155 0.103-0.207 1.072-0.053 0.95 0.081 2.065 0.306 2.581l0.166 0.39 0.219-0.239 0.219-0.238 0.092 0.14c0.081 0.117 0.115 0.134 0.207 0.08 0.127-0.064 0.311-0.278 0.317-0.353 0-0.029-0.029-0.029-0.057-0.012-0.035 0.018-0.057 0.006-0.058-0.029 0-0.034-0.035-0.058-0.069-0.053-0.133 0.019-0.449-0.074-0.449-0.132 0-0.03-0.023-0.039-0.057-0.018-0.07 0.048-0.52-0.364-0.521-0.475 0-0.07 0.019-0.075 0.082-0.023 0.047 0.04 0.144 0.053 0.225 0.035 0.092-0.023 0.207 0.005 0.334 0.08 0.404 0.25 0.444 0.134 0.087-0.237-0.287-0.308-0.368-0.51-0.468-1.195-0.029-0.202 0.053-0.25 0.139-0.076 0.035 0.057 0.181 0.168 0.322 0.238 0.375 0.186 0.772 0.696 0.979 1.27 0.167 0.465 0.265 0.563 0.444 0.465 0.053-0.031 0.109-0.152 0.132-0.267 0.023-0.122 0.144-0.528 0.266-0.905 0.282-0.836 0.345-1.381 0.195-1.549-0.074-0.087-0.167-0.116-0.351-0.104-0.427 0.011-0.68-0.255-0.766-0.83-0.057-0.361-0.005-0.394 0.57-0.418 0.467-0.022 0.639 0.053 0.892 0.389 0.127 0.173 0.151 0.25 0.128 0.452-0.117 1.01-0.178 1.37-0.335 1.933-0.098 0.347-0.191 0.743-0.207 0.863-0.029 0.204-0.023 0.22 0.074 0.18 0.064-0.03 0.22-0.058 0.358-0.075l0.248-0.023-0.184 0.26c-0.23 0.331-0.202 0.425 0.127 0.414 0.189-0.007 0.246-0.032 0.258-0.117 0.005-0.064 0.029-0.279 0.046-0.488 0.035-0.347 0.138-0.811 0.444-1.972 0.064-0.238 0.149-0.58 0.191-0.754 0.045-0.174 0.102-0.382 0.131-0.464 0.099-0.244 0.259-1.16 0.363-2.048 0.053-0.452 0.04-1.3-0.024-1.357-0.064-0.064-0.155 0.296-0.109 0.417 0.064 0.144 0.058 0.191-0.115 1.004-0.109 0.51-0.167 0.68-0.27 0.754-0.069 0.052-0.202 0.168-0.295 0.261-0.091 0.087-0.212 0.157-0.269 0.157-0.104-0.006-0.358-0.361-0.502-0.714-0.047-0.116-0.109-0.22-0.144-0.243-0.127-0.083-0.299-0.842-0.276-1.224 0.023-0.406 0.005-0.43-0.271-0.273-0.34 0.191-1.582 0.064-1.63-0.168-0.005-0.048 0.07-0.199 0.181-0.343 0.292-0.389 0.453-0.91 0.332-1.062-0.053-0.057-0.04-0.086 0.035-0.121 0.098-0.035 0.098-0.04 0.005-0.093-0.167-0.093-0.115-0.156 0.117-0.15 0.206 0.011 0.212 0.004 0.223-0.21 0.011-0.237 0.195-0.584 0.335-0.643 0.057-0.018 0.085-0.117 0.085-0.279 0-0.191-0.016-0.226-0.068-0.174-0.127 0.127-0.478 0.081-0.669-0.094a2.103 1.981 0 0 0-0.386-0.271c-0.212-0.109-0.287-0.202-0.725-0.895a5.346 5.034 0 0 0-0.421-0.55c-0.115-0.121-0.202-0.25-0.191-0.29 0.019-0.04 0.179-0.058 0.478-0.046 0.25 0.006 0.664-0.023 0.918-0.07 0.576-0.098 0.811-0.109 1.053-0.041m-3.639 0.436c0.074 0.058 0.191 0.074 0.345 0.053 0.212-0.03 0.247-0.018 0.282 0.092 0.029 0.092-0.011 0.191-0.161 0.371-0.184 0.226-0.421 0.372-1.077 0.673-0.495 0.226-0.622 0.342-0.673 0.586-0.029 0.144-0.087 0.208-0.271 0.29-0.133 0.057-0.276 0.15-0.323 0.215-0.167 0.208-0.559 0.801-0.651 0.974-0.081 0.157-0.357 0.47-0.581 0.649a0.348 0.328 0 0 1-0.208 0.076c-0.103 0-0.115-0.04-0.127-0.365a37.712 35.513 0 0 0-0.023-0.575c-0.005-0.237 0.104-0.452 0.243-0.452 0.109 0 0.104-0.092-0.006-0.141-0.127-0.046-0.104-0.324 0.046-0.55l0.219-0.347a0.321 0.302 0 0 1 0.27-0.17c0.212-0.022 0.207-0.004 0.105-0.22a1.776 1.672 0 0 1-0.122-0.325l-0.04-0.148 0.253 0.085c0.133 0.047 0.271 0.11 0.306 0.14 0.092 0.092 0.143 0.058 0.143-0.1 0-0.144 0.03-0.179 0.501-0.568 0.271-0.215 0.611-0.313 0.744-0.203 0.057 0.047 0.103 0.047 0.155 0.005 0.035-0.035 0.161-0.069 0.271-0.086 0.109-0.011 0.219-0.03 0.235-0.029 0.018-0.005 0.081 0.023 0.145 0.07"/></svg>