<svg fill="#54B848" role="img" viewBox="0 0 25 24" xmlns="http://www.w3.org/2000/svg"><title>Checkmarx</title><path d="M6.989 0A6.619 6.619 0 0 0 0.379 6.61v10.782a6.617 6.617 0 0 0 6.61 6.608h11.022A6.617 6.617 0 0 0 24.621 17.392v-0.839a2.215 2.215 0 0 0-4.432 0v0.838c0 1.202-0.977 2.179-2.178 2.179H6.989a2.182 2.182 0 0 1-2.18-2.178V6.695c0-1.202 0.979-2.182 2.18-2.182 3.882 0.004 7.893-0.009 11.729 0.001 0.562 0.139 0.901 0.449 1.069 0.857 0.195 0.475 0.346 1.129-0.408 1.765l-6.323 4.643-1.912-2.466a2.213 2.213 0 0 0-3.106-0.395 2.213 2.213 0 0 0-0.395 3.107l3.231 4.175a2.219 2.219 0 0 0 3.065 0.428l7.326-5.354a57.253 57.253 0 0 0 1.232-0.987c2.127-1.945 2.542-4.437 1.643-6.619C23.21 1.404 20.852 0 17.99 0Z"/></svg>