<svg fill="#008DB6" role="img" viewBox="0 0 32 24" xmlns="http://www.w3.org/2000/svg"><title>CheckiO</title><path d="M14.473 7.879L31.88 0v18.288L12.852 24 0.12 14.766l4.433-13.175 9.92 6.287v0.001z m-6.064 2.735l5.192-2.339-8.026-5.095 2.834 7.434z m-7.136 3.229l6.407-2.894-2.883-7.565-3.523 10.459H1.273z m29.809 3.362V1.752l-7.887 9.753 7.887 5.7z m-17.025 5.601l16.538-4.973-7.904-5.711-8.634 10.684zM1.364 14.685l10.708 7.764-4.11-10.751L1.364 14.685z m28.745-13.003c-6.729 3.038-13.449 6.087-20.18 9.124l12.498 0.376 7.682-9.499v-0.001zM13.056 22.776l8.744-10.816-13.027-0.383 4.283 11.198v0.001z"/></svg>