<svg fill="#E0832F" role="img" viewBox="0 0 40 24" xmlns="http://www.w3.org/2000/svg"><title>Chedraui</title><path d="M14.265 0c-1.272 0-2.307 1.034-2.306 2.307 0 1.275 1.031 2.307 2.306 2.306 1.273 0 2.307-1.034 2.307-2.306 0-1.272-1.034-2.307-2.307-2.307z m6.846 2.596c-1.208 0-2.187 0.979-2.187 2.188 0.003 1.205 0.982 2.184 2.187 2.184 1.208 0 2.184-0.979 2.184-2.184 0-1.208-0.979-2.187-2.184-2.188zM12.629 5.241a0.282 0.282 0 0 0-0.284 0.281v8.981c0 0.156 0.128 0.284 0.284 0.284h4.12c0.156 0 0.28-0.128 0.281-0.284v-3.898c0-0.252 0.306-0.376 0.483-0.196l0.667 0.573c0.18 0.18 0.486 0.052 0.483-0.203l-0.032-2.761a0.287 0.287 0 0 0-0.081-0.196L16.002 5.325a0.294 0.294 0 0 0-0.203-0.084Zm6.913 2.323a0.279 0.279 0 0 0-0.28 0.28v6.804a0.282 0.282 0 0 1-0.084 0.2l-1.833 1.833c-0.177 0.177-0.053 0.483 0.197 0.483l6.201 0.013a0.282 0.282 0 0 0 0.284-0.28v-4.665c0-0.252 0.306-0.377 0.483-0.2l1.907 1.907a0.278 0.278 0 0 0 0.2 0.081l1.942-0.01c0.25-0.002 0.377-0.303 0.2-0.483l-5.844-5.882a0.298 0.298 0 0 0-0.203-0.081Zm-14.171 0.206c-1.053 0.053-1.891 0.925-1.891 1.991 0 1.101 0.893 1.991 1.994 1.991 1.101 0 1.991-0.89 1.991-1.991 0-1.101-0.89-1.991-1.991-1.991-0.035 0-0.069-0.002-0.103 0z m26.075 3.431c-0.971 0.049-1.743 0.857-1.743 1.84 0 1.015 0.819 1.836 1.836 1.836 1.015 0 1.839-0.821 1.839-1.836 0-1.015-0.825-1.84-1.839-1.84z m-27.373 1.115a0.285 0.285 0 0 0-0.284 0.283v6.582c0 0.156 0.128 0.284 0.284 0.283h3.089c0.156 0 0.28-0.128 0.281-0.283v-2.526c0-0.252 0.306-0.38 0.483-0.203l1.011 1.012a0.282 0.282 0 0 0 0.403-0.004l1.34-1.388c0.107-0.11 0.11-0.286 0-0.393l-3.238-3.28a0.277 0.277 0 0 0-0.199-0.083z m24.406 1.9a0.735 0.735 0 0 0-0.735 0.735c0 0.405 0.329 0.734 0.735 0.734a0.712 0.712 0 0 0 0.186-0.025l1.282 1.282a0.277 0.277 0 0 1 0.071 0.112l1.595 4.929a0.285 0.285 0 0 0 0.267 0.197h0.638c-0.308 0.161-0.522 0.48-0.522 0.853 0 0.534 0.432 0.967 0.967 0.967 0.534 0 0.967-0.432 0.966-0.967 0-0.373-0.213-0.693-0.522-0.853h3.892c-0.309 0.161-0.522 0.48-0.522 0.853 0 0.534 0.432 0.967 0.967 0.967 0.534 0 0.966-0.432 0.966-0.967a0.959 0.959 0 0 0-0.519-0.853h0.612c0.156 0 0.28-0.128 0.281-0.284l0.025-0.193a0.421 0.421 0 0 0-0.422-0.47h-6.198c-0.118 0-0.217-0.07-0.225-0.161-0.056-0.229-0.14-0.454-0.21-0.68a0.205 0.205 0 0 1 0.178-0.267h6.555a0.576 0.576 0 0 0 0.57-0.506c0.145-1.233 0.29-2.466 0.435-3.699-0.016-0.15-0.14-0.267-0.29-0.267l-9.371-0.01a0.191 0.191 0 0 1-0.138-0.058l-0.79-0.74a0.732 0.732 0 0 0-0.724-0.629Zm-15.85 1.415a0.281 0.281 0 0 0-0.2 0.083l-7.654 7.709c-0.177 0.18-0.049 0.483 0.203 0.484h2.98a0.289 0.289 0 0 0 0.203-0.084l7.706-7.709c0.18-0.177 0.056-0.483-0.197-0.484Zm4.578 2.287a0.278 0.278 0 0 0-0.2 0.08l-5.383 5.425c-0.177 0.18-0.053 0.483 0.199 0.483h2.974a0.281 0.281 0 0 0 0.2-0.083l5.347-5.348a0.287 0.287 0 0 1 0.403 0l5.348 5.348a0.278 0.278 0 0 0 0.196 0.084h2.951c0.252 0 0.38-0.303 0.203-0.484l-5.386-5.424a0.286 0.286 0 0 0-0.203-0.081zM3.689 20.102a0.282 0.282 0 0 0-0.199 0.084l-0.155 0.154-3.044 3.083c-0.177 0.18-0.053 0.483 0.199 0.483H2.472a0.277 0.277 0 0 0 0.199-0.083l3.238-3.238c0.182-0.18 0.056-0.483-0.197-0.483z"/></svg>