<svg fill="#4D2B1A" role="img" viewBox="0 0 25 24" xmlns="http://www.w3.org/2000/svg"><title>Chemex</title><path d="M23.276 0c-0.749 0-1.374 0.599-1.374 1.348 0 0.75 0.625 1.349 1.374 1.349A1.344 1.344 0 0 0 24.625 1.348 1.344 1.344 0 0 0 23.276 0zM1.498 0.024s5.369 6.818 6.045 7.993c0.899 1.573 0.849 2.098-0.126 3.995C6.793 13.213 0.375 24 0.375 24h2.722S9.166 13.685 9.99 12.287c0.899-1.524 0.899-3.197 0.15-4.521C9.54 6.717 4.246 0.024 4.246 0.024z m17.133 0s-5.295 6.693-5.894 7.742c-0.724 1.299-0.774 2.947 0.15 4.521 0.825 1.398 6.893 11.713 6.893 11.713h2.698c0-0.024-6.394-10.788-7.018-12.012-0.974-1.873-1.024-2.398-0.125-3.971 0.674-1.174 6.042-7.993 6.043-7.993z m4.645 0.226c0.599 0 1.099 0.499 1.1 1.098 0 0.6-0.5 1.099-1.1 1.099a1.108 1.108 0 0 1-1.098-1.099A1.091 1.091 0 0 1 23.276 0.25z m-0.599 0.299V2.047h0.275v-0.524h0.374l0.276 0.525h0.324l-0.3-0.55a0.458 0.458 0 0 0 0.3-0.45c0-0.299-0.2-0.499-0.525-0.499z m0.325 0.275h0.449c0.151 0 0.225 0.051 0.225 0.224 0 0.175-0.125 0.225-0.225 0.225h-0.449z"/></svg>