<svg fill="#81B64C" role="img" viewBox="0 0 17 24" xmlns="http://www.w3.org/2000/svg"><title>Chess.com</title><path d="M8.501 0a3.85 3.85 0 0 0-3.875 3.846A3.84 3.84 0 0 0 6.231 6.969l-2.79 1.85c0 0.622 0.144 1.114 0.434 1.649H6.331c-0.014 0.245-0.014 0.549-0.014 0.925 0 0.025 0.003 0.048 0.006 0.071-0.064 1.353-0.507 3.472-3.62 5.842-0.816 0.625-1.423 1.495-1.806 2.533a0.33 0.33 0 0 0-0.045 0.084 8.124 8.124 0 0 0-0.39 2.516c0 0.1 0.216 1.561 8.038 1.561s8.038-1.46 8.038-1.561c0-2.227-0.824-4.048-2.24-5.133-4.034-3.08-3.586-5.74-3.644-6.838h2.458c0.29-0.535 0.434-1.027 0.434-1.649l-2.79-1.836a3.86 3.86 0 0 0 1.604-3.123A3.873 3.873 0 0 0 9.946 0.275c-0.004-0.002-0.01 0.004-0.015 0.004A3.76 3.76 0 0 0 8.501 0Z"/></svg>