<svg fill="#CD9834" role="img" viewBox="0 0 74 24" xmlns="http://www.w3.org/2000/svg"><title>Chevrolet</title><path d="M73.518 5.202H49.024V0.485a0.482 0.482 0 0 0-0.481-0.485H25.46a0.482 0.482 0 0 0-0.482 0.485v4.717H7.423c-0.267 0-0.592 0.215-0.727 0.485L0.251 18.313c-0.138 0.27-0.034 0.482 0.237 0.481H24.975v4.724c0 0.264 0.215 0.482 0.482 0.482h23.083c0.267 0 0.482-0.215 0.481-0.482v-4.724h17.556c0.267 0 0.592-0.215 0.73-0.481l6.441-12.626c0.138-0.267 0.034-0.485-0.233-0.485m-7.65 3.056l-3.816 7.475h-16.049v5.239H28.012v-5.239H8.15L11.969 8.258h16.049V3.021h17.988v5.237z"/></svg>