<svg fill="#5ECE71" role="img" viewBox="0 0 40 24" xmlns="http://www.w3.org/2000/svg"><title>Chia Network</title><path d="M22.402 0.015c-0.101 0-0.538 0.034-0.941 0.067-0.706 0.067-1.714 0.168-1.881 0.235-0.034 0-0.235 0.034-0.403 0.068-1.344 0.201-3.024 0.739-3.966 1.276-0.168 0.101-0.369 0.202-0.403 0.202-0.202 0.067-1.613 1.075-2.15 1.512-3.864 3.158-5.914 8.098-5.04 12.197 0.101 0.504 0.134 0.504 0.47 0.236 0.571-0.403 1.075-0.739 1.747-1.143 0.403-0.235 2.151-1.075 2.218-1.075 0 0 0.134-0.067 0.302-0.135 1.546-0.706 6.015-2.251 8.266-2.822 0.067-0.034 0.47-0.134 0.84-0.235 2.117-0.571 2.487-0.672 2.487-0.572 0 0.034-0.134 0.067-0.269 0.135-0.739 0.269-2.722 1.075-2.822 1.142-0.034 0.034-0.067 0.034-0.101 0.034s-0.202 0.067-0.403 0.168-0.336 0.168-0.37 0.168-0.202 0.067-0.403 0.168c-0.202 0.101-0.403 0.168-0.404 0.168l-0.47 0.202-0.47 0.201c-0.235 0-5.208 2.621-6.788 3.562-0.37 0.202-0.672 0.403-0.672 0.403s-0.504 0.302-2.083 1.311c-1.747 1.109-4.67 3.158-6.452 4.57-0.202 0.168-0.47 0.37-0.571 0.436-1.546 1.209-1.747 1.445-0.874 0.975 1.983-1.042 4.2-2.083 5.78-2.722 0.974-0.403 2.016-0.672 2.688-0.773l0.303-0.033 0.739 0.739c1.882 1.882 3.898 2.856 6.888 3.259 0.706 0.101 2.991 0.067 3.528-0.033 0.168-0.034 0.504-0.101 0.773-0.135 0.269-0.034 0.571-0.101 0.638-0.134 0.067-0.034 0.302-0.067 0.504-0.135 3.427-0.907 6.384-3.024 9.006-6.519 0.067-0.067 0.302-0.37 0.504-0.671 0.235-0.302 0.47-0.605 0.537-0.706 0.067-0.067 0.202-0.302 0.336-0.471 1.344-1.915 3.293-5.074 4.503-7.392 0.134-0.269 0.37-0.672 0.47-0.907 0.101-0.235 0.538-1.075 0.941-1.848 0.403-0.773 0.739-1.478 0.739-1.512 0.101-0.202 0.067-0.269-0.436-0.471-0.067-0.034-0.437-0.168-0.84-0.268-0.403-0.134-0.874-0.269-1.042-0.336-0.672-0.235-1.814-0.538-3.192-0.908-1.21-0.303-1.512-0.403-1.983-0.504-0.235-0.034-0.47-0.101-0.537-0.134s-0.269-0.067-0.437-0.101c-0.47-0.101-0.706-0.134-1.143-0.235-1.68-0.37-3.125-0.504-5.577-0.504-1.008-0.034-1.949 0-2.084 0"/></svg>