<svg fill="#008BCB" role="img" viewBox="0 0 34 24" xmlns="http://www.w3.org/2000/svg"><title>China Southern Airlines</title><path d="M23.202 9.006v0.868c0.43-0.004 0.778 0.141 0.778 0.141-1.063 0.364-1.654 1.494-1.654 2.581v3.674c-0.058 0.05-0.093 0.093-0.132 0.138-0.156-0.482-0.633-1.06-1.127-1.334v-2.842c0-1.019 0.744-2.132 1.794-2.341v-0.89c-0.34-0.078-0.597-0.385-0.597-0.748a0.769 0.769 0 0 1 0.77-0.773 0.771 0.771 0 0 1 0.774 0.773c0 0.363-0.262 0.679-0.606 0.753m-4.245-0.005v0.89c1.049 0.209 1.797 1.321 1.797 2.34v2.844c-0.498 0.273-0.973 0.852-1.127 1.333-0.042-0.044-0.077-0.088-0.133-0.138v-3.674c0-1.109-0.591-2.218-1.652-2.581 0 0 0.346-0.145 0.773-0.141v-0.873a0.77 0.77 0 0 1-0.596-0.748c0-0.428 0.34-0.772 0.77-0.772a0.771 0.771 0 0 1 0.773 0.772c0 0.364-0.259 0.671-0.605 0.748m2.124-0.591l-0.004 0.834c0.41 0.055 0.777 0.342 0.903 0.681-0.487 0.317-0.882 0.797-1.072 1.393-0.187-0.596-0.582-1.077-1.07-1.393 0.154-0.339 0.495-0.626 0.901-0.681v-0.836a0.77 0.77 0 0 1-0.597-0.751 0.77 0.77 0 0 1 0.77-0.772c0.427 0 0.775 0.345 0.775 0.772 0 0.367-0.259 0.676-0.606 0.753m-0.169 10.624c2.403 0 2.944-2.015 3.017-2.529v-0.679c-0.744 0.185-1.408 0.579-1.858 1.171-0.16-0.691-0.597-1.28-1.159-1.663-0.565 0.382-1.003 0.972-1.166 1.663-0.447-0.591-1.114-0.986-1.855-1.171v0.679c0.072 0.514 0.615 2.529 3.021 2.529m-5.931-7.013c-0.01-1.024 0.693-1.858 2.129-1.857 0.95 0 2.085 0.796 2.084 2.839v3.03c-0.412-0.27-0.985-0.519-1.298-0.524v-2.824c0-1.082-0.777-1.398-1.141-1.398 0.206 0.189 0.331 0.423 0.331 0.734 0 0.574-0.479 1.05-1.055 1.051-0.576 0-1.023-0.424-1.05-1.051m11.861 0c0.006-1.024-0.697-1.858-2.129-1.857-0.952 0-2.088 0.796-2.088 2.839v3.03c0.413-0.27 0.986-0.519 1.296-0.524v-2.824c0-1.082 0.781-1.398 1.142-1.398-0.205 0.189-0.328 0.423-0.328 0.734 0 0.574 0.477 1.05 1.054 1.051 0.578 0 1.026-0.424 1.053-1.051M22.562 9.24c-0.368-0.18-0.627-0.557-0.627-0.987 0-0.607 0.493-1.102 1.098-1.102 0.609 0 1.1 0.495 1.101 1.102a1.094 1.094 0 0 1-0.626 0.99v0.309c0.341 0.035 0.75 0.177 1.001 0.305a5.646 5.646 0 0 1 0.409-0.017c1.387 0 2.36 0.916 2.361 2.181 0 0.78-0.699 1.492-1.483 1.492-0.788 0-1.502-0.773-1.36-1.55 0 0-0.08 0.268-0.079 0.596V16.525c-0.035 0.452-0.642 2.95-3.445 2.95-2.805 0-3.415-2.497-3.449-2.95v-3.966c0-0.328-0.08-0.596-0.08-0.596 0.151 0.748-0.572 1.55-1.355 1.55-0.79 0-1.486-0.712-1.486-1.492 0-1.265 0.971-2.182 2.364-2.181 0.146 0 0.292 0.01 0.401 0.017 0.255-0.128 0.685-0.281 1.004-0.305v-0.313c-0.365-0.179-0.624-0.555-0.624-0.986 0-0.607 0.495-1.102 1.102-1.102 0.609 0 1.102 0.495 1.102 1.102a1.098 1.098 0 0 1-0.63 0.993v0.414c0.092 0.03 0.19 0.065 0.28 0.107 0.171-0.367 0.514-0.654 0.902-0.782V8.65c-0.373-0.178-0.629-0.554-0.628-0.993 0-0.61 0.491-1.1 1.097-1.1a1.098 1.098 0 0 1 1.1 1.1c0 0.44-0.254 0.816-0.627 0.993v0.335c0.385 0.126 0.724 0.415 0.893 0.782 0.087-0.042 0.191-0.077 0.284-0.107zM33.811 0h-9.615L0.189 24h24.007Z"/></svg>