<svg fill="#1A2477" role="img" viewBox="0 0 30 24" xmlns="http://www.w3.org/2000/svg"><title>China Eastern Airlines</title><path d="M14.466 0c-2.304 0-2.801 0.297-3.696 1.504-0.474 0.644-4.452 6.133-6.251 8.607-0.225 0.294-0.557 0.606-1.285 0.607H0.026v0.005c3.806 10.744 7.891 13.277 11.982 13.277h6.461c0.087 0 0.182-0.1-0.051-0.155-4.748-1.189-9.446-4.971-9.47-8.687 0.082 3.075 6.557 4.137 13.572 5.011 0.122 0.014 0.116-0.081 0.078-0.15l-0.212-0.365c-0.025-0.049-0.054-0.085-0.155-0.11-3.861-0.982-7.789-2.418-7.789-3.756 0-2.536 6.579-5.044 14.063-6.189 0.243-0.05 0.362-0.095 0.525-0.225 0.212-0.17 0.669-0.54 0.867-0.691 0.12-0.106 0.076-0.137 0.031-0.138-0.2 0-0.407 0.005-0.605 0.013-9.856 0.273-19.397 2.506-20.282 5.678-0.002 0.017-0.012 0.034-0.017 0.049 1.169-5.805 8.982-11.433 18.728-14.075 0.225-0.065 0.298-0.21 0.017-0.21Z"/></svg>