<svg fill="#80B5E3" role="img" viewBox="0 0 27 24" xmlns="http://www.w3.org/2000/svg"><title>Chocolatey</title><path d="M0.105 0l1.607 3.55L0.105 6.337l1.607 2.79L0.105 11.915l1.607 2.705L0.105 17.409l1.607 2.79L0.105 24l3.126-1.016c7.032 0.011 14.172 0.007 20.199 0l3.465 1.016-2.282-4.057 1.268-2.112-2.451-2.536-0.005-0.019V0.844c-7.312-0.001-13.666 0-20.193 0z m21.977 2.197v7.847l-0.257-1.003-1.605-4.9-3.974 0.676-2.11-2.616z m-13.055 0.004h5.094L10.753 3.548z m3.193 4.108a4.357 4.357 0 0 1 1.83 0.283c2.197 0.845 1.435 3.125 0.168 4.479-0.422 0.422-1.351 0.253-0.676-1.014 0.254-0.507 0.507-1.521-0.253-1.775-1.691-0.592-3.633 0.761-4.056 2.535-0.422 1.521 0.676 3.127 2.619 2.705 1.606-0.338 3.128-1.438 3.72-1.944 0.592-0.508 1.012 0.424 0.336 1.437-0.759 1.014-1.942 2.197-2.958 2.873-3.972 2.705-7.436-0.846-6-4.902 0.756-2.059 2.739-4.511 5.269-4.677z m7.285 2.267a0.737 0.737 0 0 1 0.507 0.203c0.362 0.364 0.228 1.085-0.299 1.613-0.528 0.529-1.251 0.662-1.614 0.299-0.363-0.364-0.229-1.085 0.298-1.613 0.326-0.326 0.743-0.515 1.108-0.502z m-0.469 3.609a0.737 0.737 0 0 1 0.507 0.203c0.363 0.363 0.23 1.086-0.299 1.614-0.528 0.528-1.25 0.661-1.613 0.299-0.362-0.364-0.229-1.085 0.299-1.613 0.325-0.326 0.741-0.516 1.105-0.503Z"/></svg>