<svg fill="#000000" role="img" viewBox="0 0 152 24" xmlns="http://www.w3.org/2000/svg"><title>Chrysler</title><path d="M151.811 12.919c0-0.002 0.003-0.004 0.003-0.006l-0.004 0.002c-0.025-0.109-0.403-0.157-1.087-0.163l-10.077-0.136c-15.41-0.136-44.09-0.403-45.392-0.404h-0.316a11.975 11.975 0 0 0-4.44 0.621l-0.577 0.174a20.562 20.562 0 0 1-5.023 1.085c-1.792 0.068-8.613 0.056-8.899 0.056s-7.113 0-8.898-0.05a20.491 20.491 0 0 1-5.023-1.085l-0.577-0.174a12.032 12.032 0 0 0-4.446-0.62h-0.278c-1.308 0-29.988 0.13-45.392 0.273l-10.114 0.124c-0.688 0-1.091 0.056-1.085 0.167l0.577 0.143c2.123 0.436 4.278 0.699 6.443 0.788 4.124 0.081 34.335 0.837 35.061 0.849 1.633-0.042 3.257 0.246 4.774 0.849h9.457s-3.82 0.223-3.876 0.459h-0.236c-0.955 0-3.832 0-5.463-0.075 0 0-0.118 0.459 1.545 0.459 0.583 0.39 1.19 0.763 1.742 1.072h8.13s-3.194 0.192-3.256 0.428c-0.378 0-1.767-0.037-3.101-0.074l-1.86-0.056s-0.093 0.403 1.432 0.409l0.26 0.161c3.053 1.371 6.288 2.295 9.606 2.741 1.259 0.241 2.53 0.409 3.808 0.502 0 0 1.544 0.136 1.277 0.131a60.959 60.959 0 0 1-10.746-1.402 27.292 27.292 0 0 1-8.062-3.41 8.793 8.793 0 0 0-4.663-1.463c-1.073-0.075-35.687-1.439-35.762-1.439a33.759 33.759 0 0 1-6.592-0.887L0.186 12.795c0 0.093 0.242 0.347 0.447 0.533 1.066 0.949 5.116 2.914 7.478 3.491 4.099 0.992 29.343 4.205 33.827 4.707l2.48 0.279c6.778 0.732 15.298 1.668 19.639 2.109a5.334 5.334 0 0 0 2.481-0.137A26.187 26.187 0 0 1 76 22.147a27.245 27.245 0 0 1 9.494 1.63 5.278 5.278 0 0 0 2.449 0.137c4.341-0.434 12.886-1.383 19.608-2.127l2.511-0.28c4.483-0.496 29.722-3.584 33.821-4.576 2.369-0.571 6.412-2.542 7.484-3.492 0.191-0.173 0.423-0.413 0.441-0.513l0.006 0c0-0.003-0.003-0.004-0.003-0.007z m-77.485 6.288c-5.023 0-9.99-0.068-11.435-0.428-3.441-0.855-5.047-2.425-5.32-2.902-0.273-0.478-0.205-0.471 0.223-0.471h36.387c0.428 0 0.459 0.044 0.218 0.471-0.242 0.428-1.861 2.046-5.315 2.902-1.445 0.359-6.412 0.416-11.434 0.428h-3.324z m77.004-6.133a33.769 33.769 0 0 1-6.598 0.893c-0.075 0-34.726 1.24-35.767 1.327a8.793 8.793 0 0 0-4.664 1.463 27.292 27.292 0 0 1-8.061 3.41 60.959 60.959 0 0 1-10.747 1.402c-0.267 0 1.277-0.13 1.278-0.131a32.773 32.773 0 0 0 3.801-0.502 34.867 34.867 0 0 0 9.611-2.741l0.298-0.161c1.526 0 1.439-0.409 1.439-0.409l-1.861 0.056c-1.377 0.037-2.791 0.075-3.144 0.074-0.062-0.236-3.231-0.428-3.231-0.428h8.124a33.854 33.854 0 0 0 1.711-1.06c1.662 0 1.55-0.459 1.551-0.458-1.786 0.044-5.11 0.087-5.699 0.068-0.056-0.236-3.597-0.459-3.597-0.459h9.135a12.21 12.21 0 0 1 4.799-0.843l35.086-0.72a40.186 40.186 0 0 0 6.443-0.788l0.432-0.106-0.339 0.113z m-75.578 3.361h0.57l-1.103 0.788v0.626h-0.838v-0.614l-1.19-0.8h0.974l0.812 0.509 0.775-0.509z m5.11 1.154h1.909v0.26h-2.74v-1.42h0.831v1.16z m3.416 0h1.978v0.26h-2.797v-1.42h2.766v0.26h-1.947v0.323h1.91v0.26h-1.91v0.317z m-15.936-1.154h0.837v1.414h-0.856v-0.577h-1.755v0.577h-0.837v-1.414h0.837v0.571h1.755l0.019-0.571z m3.776 0.794l1.073 0.62h-0.942s-0.862-0.614-1.061-0.769c0.85 0.031 0.992-0.062 0.992-0.204s-0.67-0.223-1.432-0.18v1.153h-0.887v-1.407h1.929c0.949 0 1.24 0.198 1.24 0.396 0 0.18-0.347 0.341-0.912 0.391z m17.152-0.353c0-0.143-0.67-0.223-1.432-0.18v1.165h-0.881v-1.407h1.904c0.949 0 1.24 0.217 1.24 0.396 0 0.18-0.347 0.341-0.912 0.379l1.073 0.62h-0.943s-0.862-0.614-1.06-0.769c0.843 0.031 1.011-0.062 1.011-0.204z m-9.841 0.551c0 0.359-0.775 0.478-1.587 0.478a10.181 10.181 0 0 1-1.309-0.087l0.087-0.304a5.934 5.934 0 0 0 1.196 0.087c0.682 0 0.725-0.081 0.726-0.167 0-0.087-0.192-0.143-0.496-0.143l-0.621-0.075c-0.601-0.075-0.85-0.099-0.849-0.458s0.782-0.421 1.283-0.422a11.461 11.461 0 0 1 1.315 0.112l-0.068 0.273a7.192 7.192 0 0 0-1.036-0.087c-0.533 0-0.651 0.031-0.651 0.124s0.174 0.149 0.44 0.149l0.72 0.05c0.565 0.086 0.838 0.222 0.85 0.47zM62.575 17.118c0 0.329 0.8 0.465 1.333 0.465s1.035-0.056 1.153-0.056l-0.086 0.291c-0.149 0.013-0.67 0.068-1.24 0.069-1.06 0-2.009-0.254-2.009-0.769s0.949-0.769 2.009-0.769c0.62 0 1.11 0.062 1.24 0.062l0.086 0.297a12.409 12.409 0 0 0-1.153-0.062c-0.558 0-1.333 0.142-1.333 0.472z m6.3-13.897l-3.473-3.144h2.307l1.321 1.117 1.444 1.24 0.261 0.235 0.26-0.229 2.666-2.344h0.899c-1.123 1.073-3.218 3.101-3.218 3.101l-0.124 0.117v2.729h-2.207v-2.705l-0.136-0.117z m33.97 2.822h-9.308v-5.972h2.059v5.234h7.249v0.738z m13.809-0.038H107.197v-5.922h9.34v0.738h-7.349v1.841h7.225v0.763h-7.225v1.848h7.466v0.732z m-78.431 0.013h-2.102v-5.959h2.102v2.636h5.78V0.06h2.09v5.958h-2.09V3.408h-5.78v2.61z m16.073-0.019H52.175v-5.972h5.582c1.061-0.068 2.124 0.118 3.1 0.54a1.241 1.241 0 0 1 0.751 1.06c-0.006 0.682-0.509 1.352-2.282 1.544l-0.509 0.056 0.391 0.31c0.564 0.459 1.972 1.861 2.629 2.48l0.062 0.019h-2.431c-0.359-0.397-2.357-2.207-3.224-3.101a13.892 13.892 0 0 0 2.48-0.303 0.905 0.905 0 0 0 0.62-0.831 0.728 0.728 0 0 0-0.328-0.577c-0.509-0.428-1.674-0.428-3.038-0.428h-1.681v5.203z m30.993-1.532c0-0.359-0.31-0.527-0.62-0.62a8.183 8.183 0 0 0-1.284-0.229c-1.166-0.149-1.761-0.236-2.17-0.304a5.929 5.929 0 0 1-2.152-0.621 1.183 1.183 0 0 1-0.589-1.091c-0.006-0.626 0.533-1.023 1.408-1.283 0.922-0.229 1.871-0.335 2.821-0.317 1.48 0.017 2.957 0.131 4.421 0.341l-0.142 0.72a19.737 19.737 0 0 0-3.417-0.317 7.762 7.762 0 0 0-1.861 0.149c-0.385 0.106-0.62 0.341-0.62 0.621a0.689 0.689 0 0 0 0.558 0.62c0.379 0.107 0.767 0.178 1.159 0.211 0.651 0.062 1.569 0.192 2.443 0.31a5.375 5.375 0 0 1 2.09 0.621 1.204 1.204 0 0 1 0.621 1.073c0.006 0.608-0.546 1.073-1.544 1.395a13.226 13.226 0 0 1-3.721 0.446l0.006-0.043a30.535 30.535 0 0 1-4.26-0.335l0.186-0.85c1.298 0.285 2.622 0.428 3.95 0.428a5.525 5.525 0 0 0 2.22-0.304 0.708 0.708 0 0 0 0.497-0.621z m-64.993-1.395c0-0.998 0.651-1.712 1.755-2.239a10.248 10.248 0 0 1 4.285-0.806c1.207 0.007 2.413 0.092 3.609 0.254l0.167 0.813a32.416 32.416 0 0 0-3.293-0.223 7.832 7.832 0 0 0-2.777 0.484c-0.837 0.329-1.538 0.868-1.538 1.699 0.006 0.831 0.701 1.37 1.538 1.698 0.889 0.328 1.83 0.492 2.777 0.484a32.416 32.416 0 0 0 3.293-0.223l-0.217 0.831a28.04 28.04 0 0 1-3.609 0.254 10.313 10.313 0 0 1-4.235-0.788c-1.135-0.527-1.754-1.265-1.755-2.238z m103.744 2.989h-2.097v-5.978h5.581a6.818 6.818 0 0 1 3.101 0.546 1.241 1.241 0 0 1 0.751 1.054c-0.006 0.688-0.509 1.358-2.282 1.551l-0.509 0.05 0.391 0.31c0.564 0.459 1.972 1.829 2.629 2.48v0.006h-2.394c-0.359-0.397-2.363-2.207-3.224-3.1a13.379 13.379 0 0 0 2.48-0.311 0.9 0.9 0 0 0 0.621-0.824 0.728 0.728 0 0 0-0.329-0.577c-0.515-0.434-1.674-0.434-3.038-0.434h-1.681v5.227z"/></svg>