<svg fill="#CF103E" role="img" viewBox="0 0 24 24" xmlns="http://www.w3.org/2000/svg"><title>Chupa Chups</title><path d="M15.206 0.001c-1.195-0.018-2.357 0.45-3.206 1.288C10.765 0.069 8.869-0.366 7.169 0.338c-1.7 0.704-2.732 2.353-2.743 4.088-1.736 0.011-3.384 1.044-4.088 2.743-0.704 1.7-0.268 3.595 0.951 4.831C0.069 13.235-0.366 15.131 0.338 16.831c0.704 1.7 2.353 2.732 4.088 2.743 0.011 1.736 1.043 3.385 2.743 4.088 1.7 0.704 3.596 0.268 4.831-0.951 1.235 1.22 3.13 1.655 4.831 0.951 1.7-0.704 2.732-2.352 2.743-4.088 1.736-0.011 3.385-1.043 4.088-2.743 0.704-1.7 0.268-3.595-0.951-4.832 1.22-1.235 1.655-3.131 0.951-4.83-0.704-1.7-2.353-2.732-4.088-2.743-0.011-1.736-1.043-3.384-2.743-4.089a4.416 4.416 0 0 0-1.625-0.336zM8.855 0.623C10.09 0.621 11.277 1.222 12 2.252 13.006 0.819 14.91 0.216 16.593 0.913c1.683 0.697 2.603 2.47 2.3 4.195 1.725-0.303 3.498 0.617 4.194 2.299 0.697 1.683 0.094 3.587-1.339 4.593 1.433 1.006 2.036 2.91 1.339 4.593-0.697 1.682-2.469 2.602-4.194 2.299 0.302 1.725-0.618 3.498-2.3 4.195-1.683 0.697-3.587 0.094-4.593-1.339-1.006 1.433-2.91 2.036-4.592 1.339-1.683-0.697-2.602-2.47-2.3-4.194-1.725 0.302-3.498-0.618-4.195-2.3-0.697-1.683-0.094-3.587 1.339-4.593C0.819 10.994 0.216 9.09 0.913 7.408c0.697-1.683 2.47-2.603 4.195-2.3-0.303-1.725 0.618-3.498 2.3-4.195a3.79 3.79 0 0 1 1.447-0.29z m0.262 0.492a3.793 3.793 0 0 0-1.505 0.29c-1.574 0.652-2.482 2.246-2.345 3.862-1.615-0.137-3.209 0.771-3.862 2.344C0.753 9.186 1.238 10.955 2.477 12 1.238 13.045 0.753 14.814 1.405 16.389c0.652 1.574 2.246 2.482 3.862 2.345-0.137 1.615 0.771 3.209 2.345 3.861 1.574 0.652 3.343 0.167 4.388-1.072 1.045 1.239 2.814 1.724 4.389 1.072 1.574-0.652 2.482-2.246 2.345-3.861 1.615 0.137 3.209-0.771 3.861-2.346 0.652-1.574 0.168-3.343-1.072-4.388 1.239-1.045 1.724-2.814 1.072-4.389-0.652-1.574-2.246-2.482-3.862-2.345 0.137-1.615-0.771-3.209-2.345-3.861-1.574-0.652-3.343-0.167-4.388 1.072-0.719-0.852-1.779-1.348-2.883-1.362z m0.128 0.575a3.851 3.851 0 0 1 2.755 1.104C13.062 1.748 14.69 1.375 16.15 1.98c1.46 0.605 2.348 2.019 2.359 3.51 1.491 0.012 2.905 0.899 3.511 2.359 0.605 1.46 0.232 3.088-0.814 4.151 1.046 1.062 1.418 2.691 0.814 4.15-0.605 1.46-2.019 2.348-3.51 2.36-0.011 1.491-0.899 2.905-2.36 3.51-1.46 0.605-3.088 0.232-4.15-0.814-1.062 1.046-2.691 1.418-4.15 0.814-1.46-0.605-2.348-2.02-2.36-3.51-1.491-0.012-2.905-0.9-3.51-2.36-0.605-1.46-0.232-3.088 0.814-4.15-1.046-1.062-1.418-2.691-0.814-4.151 0.605-1.46 2.019-2.347 3.51-2.359 0.011-1.491 0.899-2.905 2.36-3.51a3.797 3.797 0 0 1 1.395-0.29zM6.821 5.946c-0.496 0.003-1.003 0.209-1.391 0.487-0.983 0.705-1.552 1.765-1.508 2.936 0.024 0.623 0.379 1.275 0.995 1.507 0.772 0.293 1.396-0.003 2.043-0.442l-0.177 0.43 1.061 0 1.062-2.357c0.1-0.223 0.594-0.176 0.481 0.088l-0.653 1.532c-0.105 0.245-0.017 0.541 0.216 0.693 0.488 0.32 1.059 0.004 1.48-0.248 0.052 0.128 0.11 0.273 0.244 0.341 0.387 0.196 0.943 0.009 1.261-0.203 0.023-0.015 0.138 0.128 0.267 0.203 0.429 0.247 0.994 0.029 1.351-0.219-0.217 0.498-0.428 1.296-0.946 1.518-0.089 0.038-0.288-0.043-0.265 0.096 0.193 0.225 0.525 0.259 0.826 0.205 0.915-0.163 1.063-1.179 1.456-1.825 0.108 0.116 0.211 0.251 0.381 0.281 0.973 0.167 1.536-0.83 2.205-1.363-0.107 0.343-0.289 0.884 0.105 1.25 0.38 0.355 1.071 0.125 1.439-0.152l0.144 0.229c0.115 0.182 0.399 0.159 0.606 0.112 0.236-0.053 0.607-0.207 0.605-0.405-0.287 0.046-0.481-0.107-0.361-0.397 0.376-0.903 1.169-2.719 1.17-2.719h-1.044l-0.126 0.301c-0.068-0.148-0.217-0.284-0.369-0.313-1.242-0.24-1.684 1.19-2.377 1.632 0.12-0.437 0.389-1.161-0.044-1.516-0.322-0.263-0.751-0.047-1.083 0.085l0.067-0.189h-0.99l-1.094 2.479c-0.08 0.181-0.267 0.28-0.445 0.304-0.079 0.011-0.16-0.027-0.208-0.096-0.059-0.083-0.058-0.194-0.02-0.281l1.061-2.406h-1.067l-0.941 2.15c-0.006 0.014-0.183 0.504-0.369 0.569-0.092 0.033-0.213 0.008-0.264-0.088-0.041-0.076-0.024-0.181 0.008-0.253l1.051-2.378H11.62l-1.086 2.462c-0.086 0.194-0.526 0.417-0.653 0.121-0.045-0.105-0.022-0.225 0.02-0.321l0.481-1.099c0.148-0.338 0.515-0.883 0.068-1.147-0.463-0.273-0.921 0.068-1.217 0.26l0.752-1.751H8.948L7.39 9.48c-0.204 0.449-0.754 0.671-1.214 0.751-0.369 0.064-0.745-0.015-0.939-0.321-0.469-0.742-0.07-1.658 0.297-2.314 0.272-0.485 0.744-1.135 1.371-1.086 0.108 0.008 0.234 0.057 0.277 0.18 0.143 0.413-0.327 0.7-0.625 0.87 0.056 0.356 0.683 0.38 0.938 0.245 0.328-0.174 0.539-0.516 0.565-0.87 0.022-0.292-0.13-0.577-0.385-0.746-0.262-0.173-0.556-0.244-0.854-0.243z m12.43 2.294c0.19 0.003 0.238 0.185 0.169 0.343l-0.702 1.592c-0.061 0.138-0.248 0.203-0.409 0.132-0.048-0.021-0.104-0.076-0.104-0.132-0.003-0.485 0.246-0.923 0.457-1.343 0.114-0.228 0.259-0.56 0.549-0.59a0.334 0.334 0 0 1 0.04-0.002z m-3.335 0.007c0.09 0.003 0.167 0.044 0.18 0.127 0.071 0.449-0.53 1.696-0.931 1.913-0.1 0.054-0.248 0.004-0.272-0.104-0.022-0.097 0.031-0.207 0.072-0.301l0.646-1.46c0.052-0.119 0.19-0.179 0.305-0.175z m-6.303 3.182l-1.124 0.005-1.705 3.819c-0.537 0.569-1.297 1.123-2.056 0.812-0.369-0.151-0.547-0.549-0.557-0.926-0.018-0.673 0.149-1.289 0.501-1.809 0.342-0.504 0.794-1.128 1.447-1.195 0.172-0.018 0.333 0.075 0.397 0.229 0.08 0.192-0.015 0.389-0.14 0.521-0.144 0.153-0.337 0.246-0.513 0.281 0.091 0.441 0.734 0.421 1.054 0.277 0.244-0.11 0.481-0.35 0.55-0.606 0.084-0.31 0.038-0.669-0.165-0.918-0.379-0.465-1.028-0.518-1.588-0.389-1.216 0.28-2.329 1.385-2.642 2.574-0.239 0.909-0.182 2.085 0.682 2.615 1 0.613 1.904-0.006 2.604-0.514l-0.257 0.578 1.149 0.003 1.239-2.802c0.123-0.279 0.694-0.234 0.538 0.12l-0.682 1.544c-0.087 0.197-0.152 0.385-0.152 0.598 0 0.229 0.083 0.471 0.312 0.569 0.558 0.238 1.11-0.113 1.527-0.47 0.054 0.273 0.205 0.457 0.494 0.518 0.452 0.096 0.818-0.16 1.171-0.369 0.068 0.128 0.109 0.281 0.257 0.357 0.434 0.222 0.963-0.028 1.34-0.236l-0.394 0.863c-0.982-0.208-2.095-0.258-3.06 0.075-0.532 0.184-1.093 0.691-1.134 1.307-0.031 0.459 0.19 0.867 0.569 1.099 0.76 0.462 1.835 0.465 2.643 0.096 0.479-0.219 0.89-0.577 1.238-1.007 1.576 0.333 3.489 0.589 4.604-0.821 0.021-0.027 0.173-0.249 0.2-0.446-0.209 0.137-0.44 0.22-0.682 0.265-0.598 0.111-1.229 0.094-1.847 0.042-0.41-0.034-1.13-0.183-1.489-0.35l0.598-1.304c0.092 0.208 0.27 0.366 0.485 0.409 0.663 0.133 1.186-0.298 1.608-0.758l1.961-2.141c0.065-0.071 0.171-0.203 0.292-0.18 0.037 0.007 0.055 0.05 0.041 0.088-0.111 0.295-0.224 0.59-0.314 0.898-0.135 0.47-0.084 1.026-0.368 1.431-0.067 0.095-0.18 0.143-0.293 0.149-0.116 0.006-0.226-0.052-0.277-0.161-0.09-0.196 0.04-0.424 0.181-0.557-0.07-0.059-0.17-0.068-0.235-0.063-0.167 0.012-0.316 0.107-0.419 0.244-0.099 0.132-0.136 0.312-0.112 0.492 0.036 0.272 0.296 0.492 0.55 0.558 0.54 0.139 1.096-0.017 1.515-0.377 0.732-0.627 0.5-1.663 0.425-2.494-0.037-0.412 0.176-0.802 0.55-0.974-0.103-0.126-0.245-0.168-0.335-0.18-1.103-0.139-1.822 1.28-2.489 1.676 0.031-0.13 0.34-1.281-0.208-1.609-0.387-0.23-0.838-0.004-1.155 0.217 0.011-0.057 0.036-0.208 0.036-0.209h-1.034l-1.332 3.004c-0.072 0.163-0.268 0.205-0.428 0.208-0.08 0.002-0.16-0.026-0.197-0.104-0.035-0.075-0.046-0.152-0.012-0.229l1.286-2.888h-1.137l-1.275 2.888c-0.052 0.116-0.173 0.176-0.293 0.189-0.076 0.008-0.16-0.048-0.209-0.12-0.043-0.065-0.038-0.178-0.008-0.249l1.163-2.708h-1.117l-1.249 2.852c-0.07 0.161-0.241 0.286-0.409 0.329-0.104 0.026-0.213 0.001-0.273-0.084-0.061-0.087-0.042-0.199 0-0.305 0.29-0.729 0.682-1.419 0.927-2.165 0.065-0.198 0.035-0.445-0.141-0.569-0.443-0.314-0.966-0.067-1.355 0.188z m6.336 2.318c0.078 0.006 0.147 0.059 0.183 0.121 0.048 0.086 0.037 0.221 0.008 0.313-0.186 0.583-0.47 1.188-0.786 1.676-0.101 0.155-0.529 0.239-0.529 0v-0.132l0.805-1.809c0.05-0.112 0.169-0.155 0.285-0.168a0.187 0.187 0 0 1 0.034-0.001z m-5.364 4.849c0.161 0.002 0.322 0.015 0.478 0.027 0.346 0.028 0.682 0.104 1.007 0.201-0.45 0.778-1.439 1.2-2.266 0.718-0.327-0.191-0.365-0.625 0.008-0.806 0.238-0.115 0.505-0.143 0.773-0.14z m3.119 0.739a0.823 0.823 0 0 0-0.389 0.098c-0.123 0.065-0.227 0.162-0.309 0.291-0.082 0.129-0.124 0.274-0.124 0.433 0 0.227 0.08 0.421 0.241 0.581 0.16 0.16 0.354 0.24 0.581 0.24 0.225 0 0.419-0.081 0.579-0.241 0.161-0.161 0.241-0.354 0.241-0.58 0-0.159-0.042-0.304-0.124-0.435-0.084-0.13-0.187-0.227-0.311-0.291-0.124-0.064-0.253-0.096-0.385-0.096z m0.001 0.161c0.177 0 0.331 0.063 0.463 0.19 0.131 0.126 0.197 0.283 0.197 0.471 0 0.181-0.065 0.337-0.195 0.466-0.129 0.13-0.285 0.195-0.465 0.195-0.182 0-0.337-0.064-0.466-0.194-0.129-0.129-0.194-0.285-0.194-0.468 0-0.187 0.066-0.345 0.197-0.47 0.132-0.126 0.285-0.189 0.463-0.19z m-0.372 0.229v0.871h0.177v-0.358h0.046c0.056 0 0.099 0.015 0.131 0.045 0.032 0.03 0.07 0.087 0.113 0.172l0.073 0.141h0.219l-0.103-0.176c-0.05-0.085-0.086-0.138-0.107-0.158a0.204 0.204 0 0 0-0.078-0.047c0.07-0.01 0.127-0.037 0.17-0.081 0.043-0.043 0.065-0.097 0.065-0.162 0-0.067-0.02-0.122-0.06-0.165-0.04-0.043-0.084-0.067-0.131-0.074-0.047-0.006-0.161-0.008-0.338-0.008z m0.177 0.138h0.071c0.079 0 0.133 0.002 0.163 0.005a0.129 0.129 0 0 1 0.076 0.036 0.103 0.103 0 0 1 0.031 0.077 0.109 0.109 0 0 1-0.029 0.077 0.12 0.12 0 0 1-0.072 0.037c-0.028 0.004-0.085 0.006-0.169 0.006h-0.071Z"/></svg>