<svg fill="#42B883" role="img" viewBox="0 0 24 24" xmlns="http://www.w3.org/2000/svg"><title>CircuitVerse</title><path d="M12.123 24c-0.201 0-0.404-0.006-0.603-0.018a0.487 0.487 0 0 1-0.043-0.286 0.703 0.703 0 0 0-0.022-0.263H9.225a1.205 1.205 0 0 1-0.785 0.39 0.706 0.706 0 0 1-0.507-0.228 0.915 0.915 0 0 1-0.065-1.099 0.7 0.7 0 0 1 0.558-0.267 1.219 1.219 0 0 1 0.703 0.267h2.327a1.964 1.964 0 0 0 0-0.614h-1.196a1.142 1.142 0 0 1-0.55-0.13c-0.442-0.265-0.915-0.522-1.487-0.808a1.383 1.383 0 0 0-0.711-0.194 7.102 7.102 0 0 1-0.475 0.015c-0.157 0-0.313-0.004-0.464-0.007a18.831 18.831 0 0 0-0.45-0.008 1.349 1.349 0 0 1-0.814 0.371 0.675 0.675 0 0 1-0.512-0.241 0.76 0.76 0 0 1 0-1.067 0.719 0.719 0 0 1 0.537-0.272 1.306 1.306 0 0 1 0.756 0.337H7.771a1.14 1.14 0 0 1 0.55 0.129c0.141 0.082 0.294 0.162 0.441 0.239a6.044 6.044 0 0 1 0.754 0.44 1.95 1.95 0 0 0 1.116 0.329 2.542 2.542 0 0 0 0.178-0.006 1.521 1.521 0 0 1 0.219-0.014c0.068 0 0.136 0.003 0.208 0.007 0.08 0.004 0.162 0.008 0.251 0.007v-1.034h-1.164a1.267 1.267 0 0 1-0.711 0.299 0.84 0.84 0 0 1-0.614-0.331c-0.371-0.404-0.135-0.803 0.13-1.067a0.565 0.565 0 0 1 0.353-0.125 1.347 1.347 0 0 1 0.842 0.448h1.099v-0.905a0.381 0.381 0 0 0-0.177-0.04c-0.027 0-0.054 0.002-0.083 0.004-0.029 0.002-0.062 0.004-0.095 0.004H4.959a0.84 0.84 0 0 1-0.743-0.356c-0.172-0.229-0.37-0.459-0.545-0.663l-0.069-0.08c-0.744-0.065-0.97-0.284-0.938-0.905a0.75 0.75 0 0 1 0.841-0.679c0.492 0 0.711 0.329 0.711 1.067 0.061 0.071 0.12 0.143 0.182 0.219 0.136 0.165 0.276 0.336 0.432 0.492h6.658a5.502 5.502 0 0 0 0-1.034H6.64a1.318 1.318 0 0 1-0.795 0.37 0.662 0.662 0 0 1-0.498-0.241 0.746 0.746 0 0 1 0-1.099 0.693 0.693 0 0 1 0.508-0.268 1.168 1.168 0 0 1 0.72 0.365h4.881v-1.002h-8.242c-0.156 0.174-0.323 0.349-0.502 0.535-0.158 0.166-0.321 0.337-0.501 0.531a0.838 0.838 0 0 1-0.791 0.752 0.805 0.805 0 0 1-0.114-0.008 0.846 0.846 0 0 1-0.646-1.002c0.059-0.383 0.372-0.602 0.86-0.602a1.928 1.928 0 0 1 0.271 0.02c0.176-0.206 0.444-0.508 0.711-0.776a0.959 0.959 0 0 1 0.776-0.323h8.177v-1.099H1.63a1.226 1.226 0 0 1-0.744 0.344 0.682 0.682 0 0 1-0.549-0.311 0.849 0.849 0 0 1 0.097-1.132 0.749 0.749 0 0 1 0.479-0.194 1.154 1.154 0 0 1 0.814 0.485h3.2l-0.102-0.097c-0.559-0.528-1.138-1.075-1.838-1.713a0.755 0.755 0 0 1-0.776-0.808c0-0.514 0.22-0.744 0.711-0.743 0.662 0 0.84 0.213 0.873 1.034 0.248 0.238 0.492 0.469 0.751 0.713 0.542 0.513 1.101 1.041 1.673 1.614h5.236v-0.743H9.161a1.278 1.278 0 0 1-0.705 0.263 0.746 0.746 0 0 1-0.588-0.295 0.808 0.808 0 0 1 0.129-1.099 0.635 0.635 0 0 1 0.437-0.167 1.278 1.278 0 0 1 0.824 0.393h2.198v-0.841c-0.226 0-0.453-0.004-0.671-0.007h-0.007a39.371 39.371 0 0 0-0.656-0.007c-0.248 0-0.468 0.005-0.67 0.014a1.397 1.397 0 0 1-0.115 0.005 1.231 1.231 0 0 1-0.855-0.36l-0.6-0.507-0.012-0.01-0.008-0.006A260.83 260.83 0 0 0 6.64 7.272H3.052a1.235 1.235 0 0 1-0.719 0.291 0.73 0.73 0 0 1-0.574-0.291 0.776 0.776 0 0 1 0.097-1.099 0.701 0.701 0 0 1 0.474-0.223 1.356 1.356 0 0 1 0.819 0.45h3.135a1.599 1.599 0 0 1 1.164 0.452c0.373 0.351 0.795 0.691 1.203 1.019h0.001c0.19 0.153 0.388 0.311 0.573 0.466h2.198V7.271c-0.138 0-0.282-0.004-0.42-0.007H11a17.915 17.915 0 0 0-0.439-0.008c-0.162 0-0.303 0.005-0.429 0.015a1.415 1.415 0 0 1-0.115 0.005 1.337 1.337 0 0 1-0.856-0.327 11.371 11.371 0 0 0-0.305-0.24c-0.102-0.079-0.212-0.162-0.309-0.245-0.8-0.065-1.099-0.291-1.067-0.808a0.776 0.776 0 0 1 0.776-0.743c0.497 0 0.776 0.302 0.808 0.872 0.129 0.097 0.259 0.203 0.388 0.307l0.001 0.002c0.127 0.103 0.259 0.21 0.388 0.306h1.584V5.139h-0.55a1.351 1.351 0 0 1-0.765 0.361 0.687 0.687 0 0 1-0.528-0.296 0.798 0.798 0 0 1 0.033-1.099 0.698 0.698 0 0 1 0.5-0.215 1.11 1.11 0 0 1 0.759 0.376h0.517a0.514 0.514 0 0 0 0.043-0.346 1.233 1.233 0 0 1-0.011-0.138v-0.518a3.11 3.11 0 0 1-0.291 0.013c-0.119 0-0.24-0.005-0.355-0.01h-0.007a8.416 8.416 0 0 0-0.364-0.01 1.96 1.96 0 0 0-1.017 0.234 10.704 10.704 0 0 1-1.115 0.582h-0.003c-0.154 0.073-0.313 0.148-0.466 0.224a0.885 0.885 0 0 1-0.421 0.065H5.219a1.097 1.097 0 0 1-0.696 0.328 0.782 0.782 0 0 1-0.598-0.327 0.724 0.724 0 0 1-0.181-0.545 0.846 0.846 0 0 1 0.31-0.586 0.735 0.735 0 0 1 0.473-0.197 1.071 1.071 0 0 1 0.755 0.456h2.101a0.617 0.617 0 0 0 0.223-0.053 1.192 1.192 0 0 1 0.133-0.044c0.132-0.065 0.263-0.129 0.389-0.19a10.079 10.079 0 0 0 0.936-0.489 2.555 2.555 0 0 1 1.353-0.362c0.065 0 0.131 0.002 0.198 0.006a2.065 2.065 0 0 0 0.259 0.014c0.085 0 0.17-0.003 0.258-0.006h0.002c0.092-0.004 0.187-0.007 0.286-0.008a2.144 2.144 0 0 0 0.037-0.591c-0.002-0.07-0.004-0.142-0.004-0.217H9.416a1.454 1.454 0 0 1-0.766 0.332 0.682 0.682 0 0 1-0.526-0.3 0.831 0.831 0 0 1 0.065-1.099 0.715 0.715 0 0 1 0.487-0.204 1.243 1.243 0 0 1 0.776 0.366h2.004c0-0.09 0.007-0.18 0.014-0.276 0.009-0.114 0.018-0.231 0.018-0.37h0.126c4.196 0 7.492 1.642 9.797 4.88a12.226 12.226 0 0 1 2.408 6.457c0.121 2.203-0.439 4.457-1.665 6.698a11.395 11.395 0 0 1-4.433 4.477A11.48 11.48 0 0 1 12.123 24z m0.367-5.577v4.461a1.616 1.616 0 0 0 0.27 0.021 3.47 3.47 0 0 0 0.491-0.045c0.109-0.015 0.22-0.032 0.337-0.041a14.979 14.979 0 0 0 2.392-4.396z m4.654 0a19.092 19.092 0 0 1-1.842 3.943 10.38 10.38 0 0 0 5.301-3.943z m1.035-5.785a20.458 20.458 0 0 1-0.679 4.654h3.814a11.211 11.211 0 0 0 1.293-4.654z m-5.689 0v4.622h3.879a18.149 18.149 0 0 0 0.678-4.622z m0.032-5.786v4.654h4.558a18.719 18.719 0 0 0-0.711-4.654z m4.945-0.032a21.359 21.359 0 0 1 0.711 4.654h4.429a10.918 10.918 0 0 0-1.326-4.654z m-2.197-5.042a20.007 20.007 0 0 1 1.874 3.943h3.459a10.614 10.614 0 0 0-5.333-3.943z m-2.748-0.582c0 1.562 0 3.038 0.033 4.493h3.458a0.118 0.118 0 0 1-0.032-0.097 16.201 16.201 0 0 0-2.231-4.105c-0.013-0.013-0.025-0.026-0.037-0.041a0.277 0.277 0 0 0-0.189-0.121 9.487 9.487 0 0 0-1.002-0.129z"/></svg>