<svg fill="#4051B5" role="img" viewBox="0 0 25 24" xmlns="http://www.w3.org/2000/svg"><title>Cirrus CI</title><path d="M20.213 0a1.157 1.157 0 0 0-1.156 1.159 1.157 1.157 0 0 0 1.155 1.157c1.361 0 2.442 1.083 2.442 2.456 0 1.372-1.081 2.456-2.442 2.456H1.185A1.157 1.157 0 0 0 0.029 8.383a1.157 1.157 0 0 0 1.157 1.161h19.028c1.359 0 2.442 1.083 2.442 2.456 0 1.372-1.083 2.456-2.442 2.456H1.185A1.157 1.157 0 0 0 0.029 15.617a1.157 1.157 0 0 0 1.157 1.155h19.028c1.359 0 2.442 1.083 2.442 2.456 0 1.372-1.083 2.456-2.442 2.456H1.185A1.157 1.157 0 0 0 0.029 22.841a1.157 1.157 0 0 0 1.157 1.159h19.028a1.157 1.157 0 0 0 0.214-0.023c2.515-0.116 4.541-2.203 4.542-4.749 0-1.448-0.667-2.737-1.694-3.615C24.302 14.735 24.971 13.448 24.971 12c0-1.448-0.668-2.735-1.694-3.613C24.303 7.511 24.971 6.22 24.971 4.772c0-2.619-2.141-4.772-4.758-4.772z"/></svg>