<svg fill="#DA291C" role="img" viewBox="0 0 20 24" xmlns="http://www.w3.org/2000/svg"><title>Citro&#235;n</title><path d="M10 0C4.684 0 0.292 5.38 0.292 12S4.652 24 10 24c5.347 0 9.708-5.38 9.708-12S15.316 0 10 0zM2.106 16.233c-0.19-0.604-0.35-1.241-0.414-1.878L10 8.18l8.371 6.175a12.334 12.334 0 0 1-0.413 1.878v0.032h-0.032L10 10.345z m0.923 2.101l-0.032-0.032L10 13.114l7.003 5.188v0.032c-1.655 2.897-4.202 4.616-6.987 4.616s-5.363-1.751-6.987-4.616zM10 5.347l-8.53 6.335v-0.032c0.063-2.674 0.954-5.284 2.61-7.385C5.67 2.324 7.772 1.21 10 1.21c2.228 0 4.36 1.114 5.92 3.055 1.56 1.942 2.515 4.616 2.61 7.417v0.032l-0.031-0.032z"/></svg>