<svg fill="#452170" role="img" viewBox="0 0 17 24" xmlns="http://www.w3.org/2000/svg"><title>Citrix</title><path d="M8.483 0a1.78 1.78 0 0 0-1.78 1.78 1.78 1.78 0 0 0 1.78 1.78 1.78 1.78 0 0 0 1.78-1.78A1.78 1.78 0 0 0 8.483 0zM1.67 5.991a1.026 1.026 0 0 0-1.095 1.027c0 0.308 0.136 0.616 0.376 0.822l6.162 7.086-6.401 7.258a1.084 1.084 0 0 0-0.309 0.787c0 0.582 0.48 1.027 1.062 1.027 0.342 0 0.684-0.17 0.89-0.444l6.128-7.19 6.162 7.19c0.205 0.274 0.547 0.444 0.89 0.444 0.582 0.035 1.062-0.445 1.062-1.027a1.14 1.14 0 0 0-0.309-0.787l-6.402-7.258 6.162-7.086c0.24-0.206 0.377-0.514 0.377-0.822v-0.034c0-0.582-0.513-1.027-1.095-0.993-0.343 0-0.65 0.171-0.856 0.445l-5.957 7.018L2.56 6.436a1.07 1.07 0 0 0-0.855-0.445z"/></svg>