<svg fill="#239DFF" role="img" viewBox="0 0 72 24" xmlns="http://www.w3.org/2000/svg"><title>Civo</title><path d="M27.724 0.009h-2.966c-0.547 0-0.905 0.418-0.904 0.949v22.08c0 0.529 0.358 0.95 0.904 0.95h2.966a0.95 0.95 0 0 0 0.965-0.95V0.958a0.947 0.947 0 0 0-0.965-0.949m-9.258 17.435a0.956 0.956 0 0 0-1.514-0.31 6.989 6.989 0 0 1-4.791 1.896c-4.859 0-8.566-4.928-6.394-10.059a6.355 6.355 0 0 1 3.375-3.368c2.963-1.254 5.848-0.538 7.762 1.218a0.956 0.956 0 0 0 1.514-0.307l1.284-2.817a1.054 1.054 0 0 0-0.331-1.278C16.363 0.143 12.257-0.747 7.977 0.711a11.463 11.463 0 0 0-7.204 7.4c-2.61 8.279 3.5 15.889 11.388 15.889 2.748 0 5.268-0.926 7.287-2.482a1.039 1.039 0 0 0 0.302-1.254z m52.761-9.333a11.463 11.463 0 0 0-7.204-7.4 12.472 12.472 0 0 0-6.956-0.389c-3.584 0.803-6.182 2.503-8.464 7.404l-4.581 9.933-7.774-17.089a0.956 0.956 0 0 0-0.866-0.558l-3.399-0.006a0.956 0.956 0 0 0-0.872 1.353l10.083 22.047a0.968 0.968 0 0 0 0.869 0.567l0.167 0.015h3.811a0.705 0.705 0 0 0 0.227-0.039 1.001 1.001 0 0 0 0.597-0.537l5.107-11.627c1.538-3.623 2.47-5.131 4.907-6.167a7.547 7.547 0 0 1 6.135 0.077c1.469 0.663 2.622 1.879 3.237 3.369a8.067 8.067 0 0 1 0.615 2.837 7.03 7.03 0 0 1-7.027 7.129 6.989 6.989 0 0 1-4.791-1.896 0.956 0.956 0 0 0-1.514 0.31l-1.284 2.82a1.039 1.039 0 0 0 0.299 1.254c2.022 1.553 4.546 2.482 7.287 2.482 7.891 0 14.001-7.61 11.391-15.889"/></svg>