<svg fill="#0287D0" role="img" viewBox="0 0 26 24" xmlns="http://www.w3.org/2000/svg"><title>CKEditor 4</title><path d="M17.349 3.296a4.755 4.755 0 0 0-0.495 2.119c0 2.637 2.138 4.775 4.775 4.775a4.69 4.69 0 0 0 0.102-0.001v6.687a2.247 2.247 0 0 1-1.123 1.946l-8.447 4.877a2.247 2.247 0 0 1-2.247 0l-8.446-4.877A2.247 2.247 0 0 1 0.345 16.877V7.123c0-0.803 0.428-1.545 1.123-1.946L9.914 0.301a2.247 2.247 0 0 1 2.247 0zM6.391 7.755a0.562 0.562 0 0 0-0.562 0.562v0.268c0 0.31 0.252 0.562 0.562 0.562h9.487a0.562 0.562 0 0 0 0.562-0.562V8.317a0.562 0.562 0 0 0-0.562-0.562z m0 3.461a0.562 0.562 0 0 0-0.562 0.561v0.268c0 0.31 0.252 0.562 0.562 0.562h6.878a0.562 0.562 0 0 0 0.562-0.562v-0.268a0.562 0.562 0 0 0-0.562-0.561z m0 3.46a0.562 0.562 0 0 0-0.562 0.562v0.268c0 0.31 0.252 0.562 0.562 0.561h9.487a0.562 0.562 0 0 0 0.562-0.561v-0.268a0.562 0.562 0 0 0-0.562-0.562z m15.332-5.422c-2.172 0-3.932-1.761-3.932-3.933 0-2.172 1.761-3.932 3.932-3.932S25.655 3.149 25.655 5.321c0 2.172-1.761 3.932-3.932 3.933z m0.669-2.935h0.415v-0.623h-0.419V3.71h-0.859l-1.23 1.964v0.645H21.722v0.632h0.67z m-0.666-1.822v1.199h-0.731l0.718-1.199Z"/></svg>