<svg fill="#1955FF" role="img" viewBox="0 0 29 24" xmlns="http://www.w3.org/2000/svg"><title>Clarifai</title><path d="M3.621 15.271A3.266 3.266 0 0 1 0.341 12.009a3.281 3.281 0 0 1 3.28-3.28 3.263 3.263 0 0 1 3.261 3.262c0 1.794-1.451 3.28-3.261 3.28zM20.54 0c-2.419 0-2.527 2.044-6.218 2.044-3.729 0-4.034-2.044-6.239-2.044a3.263 3.263 0 0 0-3.262 3.263 3.274 3.274 0 0 0 3.262 3.261c2.438 0 2.545-2.042 6.238-2.043 3.729 0 4.033 2.042 6.237 2.043A3.263 3.263 0 0 0 23.822 3.263a3.278 3.278 0 0 0-3.281-3.263z m0 17.475c-2.438 0-2.545 2.044-6.237 2.044-3.729 0-4.033-2.042-6.237-2.043a3.263 3.263 0 0 0-3.263 3.261 3.274 3.274 0 0 0 3.263 3.263c2.438 0 2.545-2.044 6.237-2.044 3.729 0 4.033 2.044 6.237 2.044a3.263 3.263 0 0 0 0-6.525z m4.839-8.728c-2.454 0-2.366 2.151-5.448 2.151-2.851-0.018-2.886-2.151-5.61-2.151-1.703 0-3.101 1.56-3.101 3.262s1.416 3.261 3.262 3.262c2.454 0 2.366-2.151 5.449-2.151 2.85 0 2.885 2.133 5.629 2.133 1.701 0 3.1-1.56 3.099-3.262 0-1.684-1.416-3.244-3.28-3.244Z"/></svg>