<svg fill="#03A9F4" role="img" viewBox="0 0 22 24" xmlns="http://www.w3.org/2000/svg"><title>Clockify</title><path d="M12.351 20.404c1.111 0 2.169-0.222 3.139-0.616l2.692 2.694C16.456 23.446 14.469 24 12.351 24 5.729 24 0.359 18.627 0.359 12.001 0.359 5.373 5.729 0 12.351 0c2.096 0 4.065 0.541 5.779 1.486L15.483 4.136c-0.969-0.392-2.024-0.613-3.132-0.613-4.638 0-8.398 3.779-8.397 8.441 0 4.661 3.76 8.44 8.397 8.439z m2.176-12.155l5.511-5.514 1.577 1.577-5.51 5.514z m-2.233 5.635c-1.078 0-1.952-0.877-1.952-1.961 0-1.083 0.874-1.961 1.952-1.961 1.078 0 1.952 0.879 1.952 1.961 0 1.084-0.874 1.961-1.952 1.961z m9.347 5.695l-1.578 1.578-5.51-5.514 1.577-1.578z"/></svg>