<svg fill="#407AFC" role="img" viewBox="0 0 36 24" xmlns="http://www.w3.org/2000/svg"><title>CloudCannon</title><path d="M30.749 5.545c0.471-2.883-1.766-5.545-4.712-5.545-1.336 0-2.544 0.552-3.412 1.434a1.661 1.661 0 0 0-1.557-1.092c-0.925 0-1.675 0.749-1.675 1.673s0.63 1.334 1.967 1.96a8.636 8.636 0 0 1 1.193 0.675c0.404 0.27 0.784 0.569 1.139 0.898A8.836 8.836 0 0 1 26.507 12a8.836 8.836 0 0 1-3.954 7.35 9.041 9.041 0 0 1-1.193 0.675c-1.337 0.627-1.967 1.033-1.967 1.96 0 0.925 0.749 1.675 1.673 1.674 0.722 0 1.321-0.458 1.559-1.091 0.869 0.881 2.075 1.432 3.412 1.432 2.972 0 5.177-2.657 4.712-5.545C33.572 17.639 35.613 14.974 35.613 12.001c0-2.991-2.028-5.632-4.864-6.456zM14.64 20.025a9.09 9.09 0 0 1-2.332-1.574A8.836 8.836 0 0 1 9.493 12a8.836 8.836 0 0 1 2.815-6.451 9.129 9.129 0 0 1 2.332-1.573c1.336-0.627 1.967-1.033 1.967-1.959s-0.749-1.675-1.673-1.675c-0.722 0-1.321 0.458-1.559 1.092a4.78 4.78 0 0 0-3.412-1.433c-2.94 0-5.19 2.652-4.712 5.545C2.414 6.37 0.387 9.009 0.387 12c0 2.977 2.025 5.63 4.864 6.454-0.474 2.868 1.758 5.545 4.712 5.545 1.336 0 2.544-0.55 3.412-1.433 0.238 0.634 0.837 1.092 1.557 1.092 0.925 0 1.675-0.749 1.675-1.673 0-0.926-0.63-1.334-1.967-1.96zM18 6.779a5.221 5.221 0 1 1 0 10.442 5.221 5.221 0 0 1 0-10.442z"/></svg>