<svg fill="#1997B5" role="img" viewBox="0 0 25 24" xmlns="http://www.w3.org/2000/svg"><title>CloudBees</title><path d="M7.246 0C3.366 0 0.21 3.11 0.21 6.93c0 3.822 3.156 6.93 7.036 6.931h2.488v-3.58h-2.489c-1.874 0-3.399-1.503-3.399-3.351 0-1.848 1.524-3.349 3.4-3.349 0.752 0 1.41 0.195 1.975 0.581l2.57-2.533C10.513 0.544 8.997 0.001 7.246 0.001z m5.277 2.285c-0.068-0.005-0.144 0.082-0.359 0.258a0.468 0.468 0 0 0-0.029 0.027L10.167 4.497c-0.331 0.323-0.297 0.208-0.068 0.569a3.281 3.281 0 0 1 0.545 1.792v10.232c0 3.82 3.171 6.91 7.075 6.91C21.622 24 24.79 20.91 24.79 17.09c0-3.818-3.168-6.913-7.071-6.913H14.303V6.858c0-1.531-0.524-3.075-1.471-4.259-0.179-0.208-0.24-0.307-0.307-0.314z m5.372 11.48c1.805 0.09 3.245 1.538 3.245 3.325 0 1.846-1.536 3.343-3.423 3.343s-3.416-1.513-3.416-3.359v-3.297h3.594z"/></svg>