<svg fill="#3448C5" role="img" viewBox="0 0 37 24" xmlns="http://www.w3.org/2000/svg"><title>Cloudinary</title><path d="M36.835 16.37c0 3.32-2.102 6.072-5.485 7.18l-0.152 0.049V21.151c2.105-0.887 3.341-2.64 3.341-4.781-0.011-3.056-2.458-5.545-5.513-5.608h-0.911l-0.219-0.868c-1.073-4.43-5.025-7.562-9.584-7.594a9.766 9.766 0 0 0-8.879 5.598l-0.279 0.574-0.638 0.067a6.771 6.771 0 0 0-5.05 3.19c-1.956 3.187-0.959 7.356 2.228 9.313v2.582h-0.015l-0.228-0.104a9.076 9.076 0 0 1-5.143-6.645c-0.884-4.934 2.399-9.651 7.333-10.535a12.035 12.035 0 0 1 10.671-6.34c5.306 0.038 9.985 3.484 11.598 8.539 3.94 0.514 6.897 3.857 6.925 7.831z m-23.404-2.02h0.863a0.1 0.1 0 0 0 0.069-0.17L10.989 10.802l-0.002-0.001a0.1 0.1 0 0 0-0.141 0.001L7.468 14.18a0.1 0.1 0 0 0 0.073 0.17h0.85a0.1 0.1 0 0 1 0.101 0.1v7.727c0 1.007 0.816 1.823 1.822 1.823H14.293a0.1 0.1 0 0 0 0.07-0.17l-0.504-0.504a1.823 1.823 0 0 1-0.532-1.282v-7.594a0.103 0.103 0 0 1 0.104-0.1z m14.926 3.891h0.866a0.1 0.1 0 0 0 0.07-0.173l-3.378-3.375-0.002-0.002a0.097 0.097 0 0 0-0.137 0.002L22.398 18.068a0.1 0.1 0 0 0 0.07 0.173h0.85a0.1 0.1 0 0 1 0.1 0.1v3.836c0 1.007 0.816 1.823 1.823 1.823h3.982a0.1 0.1 0 0 0 0.07-0.17l-0.504-0.504a1.823 1.823 0 0 1-0.532-1.282V18.341a0.1 0.1 0 0 1 0.101-0.1z m-7.463-1.947h0.863a0.1 0.1 0 0 0 0.073-0.17l-3.378-3.366-0.001-0.001a0.1 0.1 0 0 0-0.142 0.001l-3.375 3.372a0.1 0.1 0 0 0 0.07 0.17h0.86a0.103 0.103 0 0 1 0.1 0.103v5.774c0 1.007 0.816 1.823 1.823 1.823h3.97a0.1 0.1 0 0 0 0.073-0.17l-0.507-0.504a1.823 1.823 0 0 1-0.529-1.282v-5.647c0-0.056 0.044-0.102 0.1-0.103z"/></svg>