<svg fill="#F38020" role="img" viewBox="0 0 21 24" xmlns="http://www.w3.org/2000/svg"><title>Cloudflare Pages</title><path d="M9.216 14.32H3.943l-0.64-1.203L12.174 0l1.397 0.579-1.752 9.112h5.24l0.648 1.192L9.22 24l-1.413-0.54ZM2.592 5.448a0.579 0.579 0 1 1 0-1.157 0.579 0.579 0 0 1 0 1.157z m1.543 0a0.579 0.579 0 1 1 0-1.157 0.579 0.579 0 0 1 0 1.157z m1.544 0a0.579 0.579 0 1 1 0-1.157 0.579 0.579 0 0 1 0 1.157z m8.657-2.7h5.424l0.772 0.771v16.975l-0.772 0.772h-7.392l0.374-0.579h6.779l0.432-0.432V3.758l-0.432-0.432h-4.676l-0.552 2.85h-0.59l0.529-2.877 0.108-0.552ZM1.241 21.265l-0.772-0.772V3.518l0.772-0.771h7.676l-0.386 0.579H1.481l-0.432 0.432v16.496l0.432 0.432h5.586l-0.092 0.579z m1.157-1.93h3.28l-0.116 0.58h-3.55l-0.192-0.193v-3.473l0.578 1.158z m13.117 0l0.579 0.58H13.2l0.386-0.58z"/></svg>