<svg fill="#03A9F4" role="img" viewBox="0 0 26 24" xmlns="http://www.w3.org/2000/svg"><title>Cloudron</title><path d="M13.017 0.001c-2.882-0.004-5.766 0.196-6.464 0.605C5.152 1.425 0.077 10.341 0.075 11.983c-0.002 1.643 5.052 10.569 6.447 11.392 1.397 0.823 11.526 0.838 12.925 0.018 1.4-0.819 6.475-9.735 6.478-11.376 0.002-1.643-5.052-10.569-6.447-11.392-0.699-0.411-3.579-0.62-6.461-0.625z m-0.288 4.699h2.563c0.916 0 1.652 0.735 1.652 1.648V9.016a1.648 1.648 0 0 1-1.651 1.651h-2.564c-0.137 0-0.269-0.019-0.396-0.05l0.002 0.05v2.667l-0.002 0.051c0.126-0.031 0.258-0.051 0.396-0.051h2.563a1.648 1.648 0 0 1 1.652 1.651v2.666c0 0.914-0.737 1.649-1.651 1.649h-2.564a1.647 1.647 0 0 1-1.652-1.648V14.983l0.003-0.049a1.657 1.657 0 0 1-0.394 0.048H8.12a1.645 1.645 0 0 1-1.65-1.65v-2.667c0-0.914 0.736-1.65 1.65-1.65h2.566c0.136 0 0.267 0.018 0.394 0.049l-0.003-0.05V6.349c0-0.914 0.737-1.649 1.652-1.649z"/></svg>