<svg fill="#2C39BD" role="img" viewBox="0 0 45 24" xmlns="http://www.w3.org/2000/svg"><title>Cloudways</title><path d="M29.528 0.002a9.145 9.145 0 0 0-4.602 1.328 0.804 0.804 0 0 1-0.437 0.122c-5.032-0.004-10.064-0.004-15.096-0.004a1.1 1.1 0 0 0-1.101 0.834 1.061 1.061 0 0 0 0.526 1.222c0.207 0.104 0.463 0.152 0.699 0.152 4.167 0.009 8.332 0.006 12.499 0.008 0.081 0 0.167 0.006 0.282 0.011l-0.167 0.24a9.153 9.153 0 0 0-1.248 2.412c-0.056 0.167-0.139 0.209-0.308 0.209-4.713-0.006-8.971-0.006-13.322-0.004a1.115 1.115 0 0 0-1.076 0.845 1.082 1.082 0 0 0 0.578 1.237 1.621 1.621 0 0 0 0.649 0.128c3.563 0.007 7.127 0.006 10.688 0.005h0.228a0.407 0.407 0 0 1-0.138 0.158c-0.926 0.68-1.682 1.517-2.255 2.511-0.085 0.148-0.176 0.202-0.349 0.202a9338.114 9338.114 0 0 0-14.236-0.004 1.108 1.108 0 0 0-1.049 1.308c0.111 0.556 0.556 0.908 1.156 0.908h13.528a9.429 9.429 0 0 0-0.137 2.902H13.739c-0.432 0-0.661 0.217-0.674 0.646a14.083 14.083 0 0 0 0 0.878c0.011 0.437 0.244 0.656 0.686 0.657 0.498 0.002 0.996 0.006 1.494-0.001 0.139-0.004 0.207 0.043 0.263 0.17 0.344 0.793 0.813 1.511 1.389 2.158 0.152 0.17 0.311 0.333 0.508 0.54h-9.279a1.115 1.115 0 0 0-1.063 0.889 1.083 1.083 0 0 0 0.648 1.23 1.558 1.558 0 0 0 0.565 0.095c10.109 0.007 19.16 0.019 28.468-0.034a7.467 7.467 0 0 0 2.076-0.318c4.321-1.274 6.86-5.851 5.567-10.309-0.804-2.771-2.617-4.638-5.348-5.593-0.124-0.044-0.176-0.1-0.201-0.23a7.542 7.542 0 0 0-0.181-0.722c-1.195-4.045-4.914-6.875-9.129-6.786zM1.679 16.734a0.574 0.574 0 0 0-0.598 0.583c-0.007 0.293-0.004 0.585-0.004 0.878 0.002 0.507 0.22 0.719 0.733 0.718h7.71c0.376 0 0.65-0.232 0.662-0.566a16.902 16.902 0 0 0 0-1.008c-0.011-0.356-0.259-0.606-0.606-0.605H1.679z"/></svg>