<svg fill="#FFE450" role="img" viewBox="0 0 32 24" xmlns="http://www.w3.org/2000/svg"><title>Clubhouse</title><path d="M31.552 8.816c0 0.415-0.298 0.989-0.436 1.265-0.505 1.08-1.335 2.737-1.335 4.646 0 4.164-1.471 6.235-2.622 7.294a7.395 7.395 0 0 1-4.993 1.979 7.963 7.963 0 0 1-4.302-1.265c-1.77-1.173-2.876-3.015-4.003-4.854-0.897-1.494-1.518-2.67-2.485-4.945-0.546-1.319-1.054-2.608-1.491-4.01-0.207-0.666-0.184-1.173 0.069-1.495 0.253-0.298 0.599-0.437 1.011-0.46 0.713-0.023 0.99 0.483 1.403 1.794 0.253 0.828 0.759 2.026 1.058 2.692 0.391 0.805 0.944 1.886 1.196 2.255 0.207 0.324 0.391 0.415 0.598 0.415 0.368 0 0.644-0.207 0.644-0.574 0-0.207-0.207-0.552-0.322-0.76-0.207-0.391-0.644-1.173-0.943-1.84a42.478 42.478 0 0 1-0.989-2.485c-0.184-0.483-0.39-1.173-0.597-1.862-0.321-1.058-0.483-1.702-0.484-2.187 0-0.736 0.552-1.218 1.38-1.218 0.597 0 0.989 0.298 1.242 1.379 0.207 0.989 0.575 2.6 1.104 3.865 0.345 0.828 0.85 1.934 1.15 2.486 0.184 0.321 0.39 0.597 0.39 0.713 0 0.161-0.298 0.415-0.552 0.758-0.161 0.207-0.229 0.346-0.23 0.505 0 0.139 0.092 0.277 0.23 0.462 0.139 0.184 0.276 0.368 0.438 0.368 0.114 0 0.184-0.047 0.253-0.139a7.932 7.932 0 0 1 2.393-2.026c1.058-0.597 2.14-0.897 2.992-1.081 0.413-0.091 0.529-0.184 0.528-0.414 0-0.275-0.207-0.435-0.483-0.459-0.207-0.023-0.39 0-0.713 0.023-0.229 0.023-0.345-0.092-0.482-0.391-0.415-0.874-1.218-2.347-1.702-4.233a18.08 18.08 0 0 1-0.505-2.761c-0.07-0.507 0.022-0.691 0.275-0.92 0.323-0.276 0.897-0.391 1.335-0.276 0.527 0.137 0.804 0.552 1.079 2.165 0.139 0.758 0.368 1.724 0.644 2.553 0.345 1.058 0.782 1.934 1.449 3.106 0.368 0.644 0.827 1.31 1.311 1.957-0.092 0.276-0.253 0.459-0.782 0.897-0.529 0.437-1.058 0.897-1.541 1.747-0.345 0.621-0.505 1.31-0.505 1.771 0 0.437 0.091 0.529 0.368 0.528 0.482 0 0.874-0.091 0.897-0.298 0.114-0.829 0.253-1.357 0.712-1.98 0.275-0.345 0.758-0.782 1.15-1.128 0.735-0.596 0.989-0.942 1.242-1.792 0.114-0.391 0.253-0.759 0.436-1.104 0.437-0.804 1.218-1.724 2.439-1.724 0.391 0 0.713 0.114 0.921 0.437a1.252 1.252 0 0 1 0.16 0.621zM16.788 5.863c0.207 0.853 0.46 1.589 0.713 2.233 0.298 0.784 0.644 1.452 1.127 2.347 0.229 0.437 0.343 0.437 0.896 0.139a11.846 11.846 0 0 1 1.564-0.667c-0.828-1.794-1.518-3.291-1.862-4.555a38.729 38.729 0 0 1-0.506-2.485c-0.07-0.644-0.139-1.196-0.299-1.794-0.184-0.736-0.438-1.081-1.151-1.081-0.666 0-1.471 0.345-1.471 1.218 0 0.575 0.161 1.426 0.321 2.114 0.276 0.669 0.323 1.082 0.668 2.531z m-9.7 9.263c-0.557 0.15-2.95 1.016-3.526 1.24-0.652 0.253-1.111 0.482-0.784 1.454 0.266 0.787 0.717 0.824 1.132 0.669 0.583-0.215 3.165-1.568 3.653-1.869 0.441-0.272 0.583-0.48 0.376-0.996-0.188-0.47-0.459-0.603-0.851-0.498z m-1.653-3.984c0.327-0.01 0.581-0.117 0.658-0.682 0.061-0.434-0.008-0.661-0.505-0.815-0.481-0.148-3.502-0.64-4.154-0.702-0.562-0.054-0.91 0-0.976 0.89-0.064 0.829 0.168 1.083 0.741 1.141 0.658 0.065 3.542 0.187 4.236 0.168z m-3.409-7.882c0.614 0.367 2.972 1.795 3.766 2.046 0.397 0.124 0.607 0.013 0.83-0.429s0.283-0.618-0.144-0.962c-0.441-0.355-2.751-2.153-3.406-2.493-0.564-0.293-0.945-0.18-1.287 0.468-0.388 0.734-0.316 1.034 0.24 1.37z"/></svg>