<svg fill="#3CBDB1" role="img" viewBox="0 0 18 24" xmlns="http://www.w3.org/2000/svg"><title>Clyp</title><path d="M9 17.958a1.137 1.137 0 0 1-1.137-1.136V7.235a1.138 1.138 0 0 1 2.275 0v9.589c0 0.626-0.51 1.134-1.138 1.134m7.439 2.44a1.137 1.137 0 0 1-1.14-1.138V4.796a1.138 1.138 0 0 1 2.276 0v14.465c0 0.627-0.51 1.136-1.138 1.136M12.719 24a1.137 1.137 0 0 1-1.138-1.136V1.138a1.138 1.138 0 0 1 2.276 0v21.726c0 0.627-0.509 1.136-1.138 1.136m-7.436-3.16a1.137 1.137 0 0 1-1.138-1.136V4.298a1.138 1.138 0 0 1 2.276 0v15.406c0 0.628-0.51 1.137-1.138 1.137m-3.72-4.989a1.137 1.137 0 0 1-1.138-1.135V9.286a1.138 1.138 0 0 1 2.276 0v5.432c0 0.626-0.51 1.135-1.138 1.135z"/></svg>