<svg fill="#E71D1D" role="img" viewBox="0 0 106 24" xmlns="http://www.w3.org/2000/svg"><title>CNET</title><path d="M8.682 0C3.308 0 0.397 2.358 0.397 7.027v9.942c0 4.673 2.911 7.031 8.29 7.031h15.706v-10.315h-1.285c-0.57 5.984-3.204 8.508-8.39 8.509h-3.243c-2.525 0-3.752-1.258-3.753-3.744v-12.905c0-2.485 1.227-3.744 3.753-3.743h3.243c5.26 0 7.851 2.385 8.39 8.184h1.285V0H8.682Zm32.973 0v1.205c5.585 0.557 8.136 2.928 8.136 9.215v7.522L35.049 0H27.702v24H37.877v-1.205c-5.729-0.627-8.267-2.972-8.268-9.298v-8.605l15.702 19.108h6.387V0H41.655Zm13.414 0v24h24v-10.31h-1.284c-0.57 6.001-3.204 8.535-8.39 8.535h-7.22v-9.789h2.446c4.09 0 5.821 1.819 6.229 5.769h1.306v-13.19h-1.306c-0.412 3.928-2.148 5.76-6.229 5.76h-2.446V1.775h7.215c5.265 0 7.851 2.389 8.395 8.211h1.284V0h-24Zm26.534 0v9.986h1.289c0.552-5.493 2.849-8.044 7.158-8.509v16.877c0 2.933-1.035 4.107-4.818 4.353v1.293h16.746v-1.293c-3.787-0.245-4.822-1.42-4.822-4.353v-16.877c4.309 0.465 6.606 3.016 7.162 8.509H105.603V0h-24Z"/></svg>