<svg fill="#CC0000" role="img" viewBox="0 0 52 24" xmlns="http://www.w3.org/2000/svg"><title>CNN</title><path d="M51.84 19.569c0 4.445-5.746 6.58-8.786 1.417-0.218-0.373-5.008-8.623-5.009-8.623v7.206c0 4.445-5.743 6.58-8.783 1.417-0.221-0.373-5.009-8.623-5.008-8.623v6.795c0 3.084-1.83 4.754-4.694 4.754H12.064a11.911 11.911 0 0 1 0-23.822h3.865v2.86H12.064a9.051 9.051 0 1 0 0 18.102h7.429a1.933 1.933 0 0 0 1.895-1.891V4.513a0.58 0.58 0 0 1 0.416-0.588c0.304-0.083 0.624 0.105 0.859 0.502l4.636 7.988c2.695 4.647 4.465 7.698 4.487 7.731 0.605 1.021 1.505 1.201 2.148 1.024a1.717 1.717 0 0 0 1.254-1.695v-14.959a0.583 0.583 0 0 1 0.411-0.591c0.301-0.083 0.618 0.105 0.85 0.502l4.296 7.403 4.83 8.324c0.472 0.801 1.129 1.085 1.7 1.086a1.657 1.657 0 0 0 0.445-0.061 1.72 1.72 0 0 0 1.273-1.704V0.09H51.848zM17.39 16.242V4.43c0-4.445 5.746-6.58 8.785-1.413 0.221 0.373 5.009 8.62 5.009 8.62V4.43c0-4.445 5.743-6.58 8.783-1.413 0.221 0.373 5.009 8.62 5.008 8.62V0.09H47.841v19.385a0.583 0.583 0 0 1-0.416 0.591c-0.304 0.083-0.624-0.105-0.859-0.502a2930.328 2930.328 0 0 1-4.826-8.32l-4.297-7.396c-0.602-1.022-1.499-1.201-2.137-1.028a1.72 1.72 0 0 0-1.256 1.693v14.962a0.585 0.585 0 0 1-0.417 0.591c-0.307 0.083-0.627-0.105-0.859-0.502-0.041-0.069-2.303-3.965-4.486-7.731a13380.06 13380.06 0 0 0-4.639-7.994c-0.602-1.024-1.502-1.201-2.145-1.027a1.723 1.723 0 0 0-1.259 1.693v14.647a0.801 0.801 0 0 1-0.752 0.748h-7.435a7.908 7.908 0 0 1 0-15.815H15.924v2.861H12.091a5.047 5.047 0 1 0 0 10.094H16.6a0.784 0.784 0 0 0 0.79-0.798Z"/></svg>