<svg fill="#D00013" role="img" viewBox="0 0 77 24" xmlns="http://www.w3.org/2000/svg"><title>Coca Cola</title><path d="M53.843 1.844s-1.435 0.574-3.102 2.41c-1.67 1.839-2.64 3.905-1.922 4.453 0.277 0.21 0.915 0.252 2.072-0.797a9.13 9.13 0 0 0 2.442-3.389c0.746-1.817 0.51-2.656 0.51-2.677m9.127 3.309c-1.852-0.953-3.207-2.117-4.616-2.838-1.345-0.689-2.216-0.979-3.303-0.832a3.37 3.37 0 0 0-0.446 0.112s0.561 1.913-1.667 5.123c-2.257 3.258-4.304 3.236-4.887 2.34-0.609-0.944 0.179-2.869 1.492-4.581 1.377-1.792 3.794-3.277 3.793-3.277s-0.768-0.472-2.662 0.605c-1.849 1.039-5.027 3.529-7.976 7.725-2.952 4.195-3.539 6.503-3.959 8.32-0.421 1.817-0.038 3.762 1.976 3.762s4.361-3.073 5.024-4.141c1.231-1.989 2.031-5.04 0.357-4.623-0.826 0.207-1.492 1.119-1.912 1.999a8.553 8.553 0 0 0-0.606 1.766 6.966 6.966 0 0 0-1.636 0.95 12.076 12.076 0 0 0-1.549 1.371s0.006-1.454 1.164-3.806c1.16-2.35 3.284-3.424 4.488-3.526 1.084-0.086 2.496 0.835 1.301 4.23-1.195 3.395-4.728 7.524-8.435 7.575-3.421 0.048-5.662-4.32-0.899-11.939C43.285 3.042 49.469 0.46 51.474 0.173c2.008-0.287 2.662 0.596 2.662 0.596a8.636 8.636 0 0 1 3.816-0.628c2.455 0.166 4.348 1.9 6.855 3.121-0.654 0.622-1.275 1.275-1.834 1.888m11.012-2.838c-1.699 1.09-4.049 2.079-6.309 1.868-0.571 0.59-1.183 1.275-1.795 2.022 3.915 0.775 7.348-1.655 9.172-3.721A12.178 12.178 0 0 0 76.755 0.039a15.277 15.277 0 0 1-2.77 2.276m-5.216 11.037a0.854 0.854 0 0 0 0.074-0.162 0.395 0.395 0 0 0-0.361-0.345c-0.373-0.016-0.883 0.054-2.215 1.531a20.094 20.094 0 0 0-2.838 4.026c-0.765 1.396-1.074 2.436-0.637 2.703a0.634 0.634 0 0 0 0.465 0.048c0.296-0.07 0.634-0.351 1.148-0.94 0.239-0.281 0.504-0.676 0.822-1.113 0.883-1.199 3.102-4.983 3.542-5.748m-13.864 1.607c0.223-0.58 0.507-1.725-0.083-2.174-0.634-0.478-2.248 0.641-2.257 1.788-0.01 1.176 1.138 1.706 1.412 1.782 0.159 0.041 0.21 0.032 0.287-0.092a10.469 10.469 0 0 0 0.641-1.304m-1.221 2.136a4.881 4.881 0 0 1-1.11-0.708 3.558 3.558 0 0 1-0.829-1.01c-0.026-0.038-0.048-0.01-0.073 0.025-0.022 0.032-0.124 0.124-0.985 1.384-0.861 1.262-2.181 3.877-0.988 4.319 0.768 0.287 2.043-1.055 2.741-1.944a16.609 16.609 0 0 0 1.282-1.958c0.038-0.073 0-0.092-0.038-0.108m13.574 3.019c-0.325 0.52-0.695 1.517 0.373 0.896 1.307-0.752 3.169-3.58 3.169-3.58h0.845a28.309 28.309 0 0 1-2.56 3.36c-1.323 1.466-2.939 2.802-4.081 2.668-1.326-0.153-0.912-1.9-0.912-1.9s-1.9 2.024-3.219 1.881c-1.776-0.198-1.234-2.394-1.234-2.394s-2.008 2.467-3.379 2.391c-2.146-0.128-1.607-2.738-1.008-4.578 0.319-0.982 0.615-1.753 0.615-1.754s-0.214 0.054-0.669 0.122c-0.242 0.035-0.676 0.061-0.676 0.06s-0.893 1.578-1.61 2.525c-0.714 0.947-3.755 4.215-5.547 3.561-1.651-0.606-1.103-3.137-0.14-5.149 1.403-2.933 5.356-7.151 7.638-6.592 2.362 0.574 0.054 4.884 0.054 4.884s0 0.016 0.023 0.028c0.048 0.016 0.172 0.032 0.456-0.025a5.117 5.117 0 0 0 0.864-0.255s2.378-4.976 5.002-8.235c2.624-3.252 7.858-8.863 9.914-7.504 0.497 0.335 0.274 1.482-0.402 2.875a9.216 9.216 0 0 1-0.927 0.249c0.453-0.822 0.752-1.514 0.841-1.999 0.309-1.683-3.618 1.865-6.423 5.675a52.901 52.901 0 0 0-4.492 7.268 12.306 12.306 0 0 0 1.447-1.033 41.45 41.45 0 0 0 3.564-3.325 38.794 38.794 0 0 0 3.032-3.5 8.225 8.225 0 0 0 0.893-0.093 38.428 38.428 0 0 1-3.348 3.954c-1.116 1.132-2.327 2.35-3.382 3.235a28.182 28.182 0 0 1-2.968 2.203s-2.455 4.951-1.119 5.267c0.784 0.191 2.334-2.2 2.333-2.2s2.024-3.083 3.243-4.476c1.664-1.89 3.092-2.984 4.527-3.003 0.832-0.016 1.323 0.87 1.323 0.87l0.392-0.605h2.413s-4.508 7.645-4.868 8.221m6.73-17.788c-1.699 1.087-4.049 2.075-6.309 1.865-0.574 0.59-1.183 1.275-1.798 2.021 3.918 0.775 7.348-1.651 9.175-3.721A12.178 12.178 0 0 0 76.755 0.039a15.277 15.277 0 0 1-2.77 2.276m-33.888 3.753h-2.296l-1.297 2.097h2.295z m-10.871 7.259c0.979-1.339 3.673-6.028 3.672-6.029a0.395 0.395 0 0 0-0.357-0.344c-0.373-0.019-0.995 0.108-2.232 1.654-1.234 1.546-2.193 2.774-2.891 4.056-0.765 1.396-1.103 2.381-0.66 2.649a0.654 0.654 0 0 0 0.459 0.048c0.287-0.07 0.663-0.36 1.177-0.95a17.757 17.757 0 0 0 0.835-1.084m-12.315-6.344c-0.634-0.478-2.248 0.641-2.257 1.785-0.01 1.176 1.454 1.537 1.641 1.543a0.287 0.287 0 0 0 0.16-0.032 0.191 0.191 0 0 0 0.076-0.086 11.104 11.104 0 0 0 0.466-1.036c0.223-0.583 0.504-1.725-0.086-2.174m-0.957 4.048a5.349 5.349 0 0 1-1.243-0.574 2.589 2.589 0 0 1-0.89-0.985c-0.022-0.038-0.048-0.01-0.07 0.026-0.022 0.032-0.15 0.194-1.013 1.46-0.861 1.269-2.142 3.857-0.944 4.304 0.765 0.287 2.053-1.065 2.754-1.951a23.081 23.081 0 0 0 1.451-2.171c0.029-0.077 0-0.096-0.045-0.109m18.746 0.778h0.838s-4.211 6.095-6.593 5.812c-1.326-0.156-0.934-1.795-0.934-1.795s-1.865 2.184-3.58 1.741c-1.553-0.398-0.548-2.984-0.548-2.984-0.179 0.07-3.542 3.861-5.908 2.952-2.474-0.956-1.189-4.132-0.717-5.085 0.398-0.807 0.838-1.591 0.839-1.591s-0.379 0.108-0.622 0.163l-0.593 0.127s-1.17 1.9-1.884 2.85c-0.717 0.947-3.755 4.208-5.547 3.561-1.792-0.65-1.349-3.156-0.341-5.148 1.632-3.226 5.502-7.192 7.836-6.593 2.356 0.603 0.405 4.425 0.405 4.425s0.469 0.061 1.594-0.708c1.616-1.103 3.749-4.071 6.06-3.72 1.09 0.163 2.104 1.275 0.717 3.392-0.443 0.679-1.186 1.285-1.753 0.685-0.354-0.376-0.045-1.052 0.328-1.52a1.457 1.457 0 0 1 1.243-0.571s0.383-0.87-0.589-0.858c-0.787 0.016-2.777 1.849-3.899 3.698-1.03 1.699-2.592 4.594-1.027 5.225 1.438 0.58 4.173-2.665 5.439-4.367 1.266-1.699 4.151-5.553 6.574-5.707 0.832-0.054 1.329 0.705 1.329 0.705l0.28-0.443h2.42s-4.559 7.61-4.916 8.183c-0.281 0.45-0.65 1.466 0.373 0.896 1.027-0.567 3.175-3.325 3.176-3.325m-1.32 12.191a10.023 10.023 0 0 0-6.083-1.776 3.73 3.73 0 0 0-2.965 1.607c-0.925-1.61-2.748-2.598-5.569-2.576-4.559 0.051-9.083 2.155-12.663 2.152-3.433 0-5.939-2.158-5.856-5.993 0.15-6.723 5.834-12.781 10.074-15.507 2.445-1.562 4.492-2.031 5.828-1.881 0.976 0.108 2.149 1.237 1.409 2.898-1.087 2.426-2.589 2.228-2.535 1.068 0.032-0.756 0.536-1.231 0.912-1.495a1.855 1.855 0 0 1 0.886-0.217c0.217-0.182 0.373-1.511-1.367-1.074-1.741 0.437-3.857 2.155-5.866 4.371-2.008 2.219-5.133 6.411-5.904 10.813-0.36 2.04-0.124 5.764 4.718 5.723 4.103-0.032 10.154-2.738 15.713-2.681a10.648 10.648 0 0 1 5.5 1.504c1.438 0.886 3.162 2.181 3.774 3.064"/></svg>