<svg fill="#6933FF" role="img" viewBox="0 0 20 24" xmlns="http://www.w3.org/2000/svg"><title>Cockroach Labs</title><path d="M15.645 16.155a13.013 13.013 0 0 0-4.479-13.287 11.617 11.617 0 0 1 5.815-1.546c0.774 0 1.545 0.075 2.304 0.226l0.32-1.282A13.092 13.092 0 0 0 16.98 0 12.93 12.93 0 0 0 10 2.03 12.933 12.933 0 0 0 3.021 0C2.139 0 1.26 0.089 0.396 0.266l0.319 1.282a11.83 11.83 0 0 1 2.306-0.226 11.64 11.64 0 0 1 5.817 1.544 13.01 13.01 0 0 0 0.792 20.877l0.375 0.257 0.373-0.257c2.624-1.801 4.5-4.5 5.269-7.588z m-6.305 5.7A11.687 11.687 0 0 1 5.825 9.519a13.08 13.08 0 0 0 2.457 2.977 3.202 3.202 0 0 1 1.058 2.383z m0.661-9.657a11.717 11.717 0 0 1-2.343-2.315 3.23 3.23 0 0 1 0-3.912 11.67 11.67 0 0 1 2.347-2.333c0.9 0.671 1.697 1.468 2.37 2.366a3.197 3.197 0 0 1 0 3.832 11.816 11.816 0 0 1-2.374 2.362z m0.659 9.657v-6.976a3.202 3.202 0 0 1 1.06-2.383 13.026 13.026 0 0 0 2.455-2.977 11.694 11.694 0 0 1-3.515 12.336Z"/></svg>