<svg fill="#222F29" role="img" viewBox="0 0 25 24" xmlns="http://www.w3.org/2000/svg"><title>Codacy</title><path d="M4.372 9.822a8.471 8.471 0 0 1 3.88-5.077l0.04-0.021-1.805-3.117C3.764 3.2 1.754 5.761 0.912 8.806l-0.02 0.084zM10.321 3.883a8.257 8.257 0 0 1 2.167-0.283h0.005V0h-0.019a12.066 12.066 0 0 0-3.169 0.422l0.084-0.02zM14.681 3.886a8.46 8.46 0 0 1 5.07 3.88l0.021 0.04 3.121-1.801c-1.593-2.722-4.152-4.732-7.196-5.575l-0.084-0.02zM0.484 12v0.006c0 1.101 0.148 2.168 0.426 3.181l-0.02-0.084 3.48-0.93a8.151 8.151 0 0 1-0.284-2.164v-0.008zM2.091 18.003c0.551 0.942 1.182 1.756 1.904 2.478l2.556-2.543a8.571 8.571 0 0 1-1.315-1.697l-0.022-0.04zM6.487 22.394a11.786 11.786 0 0 0 5.975 1.606h0.021-0.001v-3.6h-0.004a8.319 8.319 0 0 1-4.229-1.146l0.039 0.021zM19.769 16.211a8.451 8.451 0 0 1-5.041 3.889l-0.059 0.014 0.932 3.48c3.128-0.861 5.689-2.867 7.256-5.527l0.031-0.056zM24.092 15.225c0.268-0.948 0.424-2.038 0.424-3.163 0-1.088-0.144-2.143-0.416-3.146l0.019 0.084-3.49 0.932c0.175 0.641 0.275 1.376 0.275 2.135 0 0.791-0.109 1.557-0.313 2.283l0.014-0.059z"/></svg>