<svg fill="#B1361E" role="img" viewBox="0 0 25 24" xmlns="http://www.w3.org/2000/svg"><title>Codewars</title><path d="M1.441 0A1.085 1.085 0 0 0 0.356 1.085v21.83a1.085 1.085 0 0 0 1.085 1.085h22.118A1.085 1.085 0 0 0 24.644 22.915V1.085A1.085 1.085 0 0 0 23.559 0z m9.853 1.84a0.915 0.915 0 0 1 0.838 0.545 0.793 0.793 0 0 1 1.289 0.499 0.647 0.647 0 0 1 0.293-0.061c0.334 0.008 0.597 0.265 0.633 0.582a1.338 1.338 0 0 1 0.631-0.521 1.341 1.341 0 0 1 1.739 0.719 1.111 1.111 0 0 1 0.31-0.239 1.115 1.115 0 0 1 1.5 0.485 1.107 1.107 0 0 1 0.122 0.475 1.006 1.006 0 0 1 1.338 1.229 0.915 0.915 0 0 1 0.884 1.455 0.793 0.793 0 0 1 0.178 1.372 0.647 0.647 0 0 1 0.192 0.227 0.65 0.65 0 0 1-0.011 0.62 1.342 1.342 0 0 1 0.488 0.238 1.35 1.35 0 0 1 0.261 1.864 1.111 1.111 0 0 1 0.354 0.152 1.115 1.115 0 0 1 0.341 1.534 1.107 1.107 0 0 1-0.348 0.348 1.006 1.006 0 0 1 0.231 1.334 1.018 1.018 0 0 1-0.612 0.439 0.915 0.915 0 0 1-0.813 1.5 0.824 0.824 0 0 0-0.008-0.041 0.793 0.793 0 0 1-1.088 0.884 0.647 0.647 0 0 1-0.099 0.283 0.632 0.632 0 0 1-0.435 0.292 1.346 1.346 0 0 1 0.023 0.461 1.35 1.35 0 0 1-1.457 1.187 1.111 1.111 0 0 1 0.055 0.382 1.115 1.115 0 0 1-1.142 1.084 1.111 1.111 0 0 1-0.476-0.121 1.006 1.006 0 0 1-1.716 0.59 0.915 0.915 0 0 1-1.705 0.076 0.793 0.793 0 0 1-1.289-0.499 0.647 0.647 0 0 1-0.294 0.065 0.648 0.648 0 0 1-0.628-0.587l0.004-0.007a1.342 1.342 0 0 1-0.64 0.529 1.35 1.35 0 0 1-1.738-0.714 1.111 1.111 0 0 1-0.31 0.234 1.115 1.115 0 0 1-1.498-0.483 1.107 1.107 0 0 1-0.124-0.477 1.006 1.006 0 0 1-1.334-1.224 0.915 0.915 0 0 1-0.884-1.46 0.793 0.793 0 0 1-0.179-1.372 0.647 0.647 0 0 1-0.196-0.227 0.65 0.65 0 0 1 0.011-0.617l0.019 0.004a1.342 1.342 0 0 1-0.502-0.242 1.35 1.35 0 0 1-0.266-1.867 1.111 1.111 0 0 1-0.354-0.148 1.115 1.115 0 0 1-0.341-1.538 1.107 1.107 0 0 1 0.351-0.344A1.006 1.006 0 0 1 3.271 8.964a0.915 0.915 0 0 1 0.812-1.498 0.793 0.793 0 0 1 1.096-0.846 0.647 0.647 0 0 1 0.1-0.283 0.657 0.657 0 0 1 0.438-0.291 1.346 1.346 0 0 1-0.027-0.458A1.35 1.35 0 0 1 7.153 4.4a1.111 1.111 0 0 1-0.061-0.381 1.114 1.114 0 0 1 1.144-1.086 1.107 1.107 0 0 1 0.475 0.116 1.006 1.006 0 0 1 1.716-0.586 0.915 0.915 0 0 1 0.868-0.624zM4.083 7.465a0.793 0.793 0 0 0 0.008 0.042l-0.004-0.041a0.915 0.915 0 0 0-0.004-0.001zM18.068 19.701a1.111 1.111 0 0 0-0.002-0.004h-0.038a1.35 1.35 0 0 0 0.04 0.004zM14.347 3.405a1.338 1.338 0 0 0-0.008 0.012l0.008-0.011z m-2.398-0.014l-0.003 0.003a0.911 0.911 0 0 1-0.673 0.273 0.907 0.907 0 0 1-0.589-0.234 1.006 1.006 0 0 1-0.998 0.74 1.002 1.002 0 0 1-0.367-0.076 1.111 1.111 0 0 1-1.073 1.059 1.342 1.342 0 0 1 0.124 0.745 1.35 1.35 0 0 1-0.734 1.047 1.113 1.113 0 0 1 0.311 0.805 1.119 1.119 0 0 1-0.235 0.658c0.325 0.182 0.536 0.529 0.53 0.925a1.028 1.028 0 0 1-0.071 0.342 0.926 0.926 0 0 1 0.83 0.948 0.934 0.934 0 0 1-0.011 0.139 0.749 0.749 0 0 1 0.159-0.01c0.347 0.007 0.635 0.253 0.711 0.577a0.669 0.669 0 0 1 0.384-0.112c0.314 0.007 0.568 0.227 0.64 0.517a0.423 0.423 0 0 1 0.385-0.015 1.368 1.368 0 0 1 0.307-0.638 0.423 0.423 0 0 1-0.121-0.145 0.427 0.427 0 0 1 0.004-0.396 0.673 0.673 0 0 1-0.329-1.131 0.745 0.745 0 0 1-0.364-0.34 0.749 0.749 0 0 1 0.39-1.035 0.756 0.756 0 0 0-0.061 0.026 0.926 0.926 0 0 1-0.203-0.265 0.926 0.926 0 0 1 0.63-1.33V6.464a1.032 1.032 0 0 1 0.443-1.387 1.024 1.024 0 0 1 0.559-0.113 1.123 1.123 0 0 1 0.605-1.067 1.133 1.133 0 0 1 0.061-0.026 0.65 0.65 0 0 1-0.11-0.213 0.793 0.793 0 0 1-0.461 0.134 0.793 0.793 0 0 1-0.67-0.401z m4.628 1.53a1.342 1.342 0 0 1-0.594 0.466 1.35 1.35 0 0 1-1.27-0.144v-0.011a1.123 1.123 0 0 1-0.559 0.668 1.119 1.119 0 0 1-0.692 0.114 1.032 1.032 0 0 1-0.559 0.9 1.028 1.028 0 0 1-0.333 0.106 0.929 0.929 0 0 1-0.435 1.183 0.934 0.934 0 0 1-0.129 0.057 0.749 0.749 0 0 1 0.087 0.131 0.747 0.747 0 0 1-0.17 0.901 0.669 0.669 0 0 1 0.284 0.286 0.663 0.663 0 0 1-0.151 0.806 0.423 0.423 0 0 1 0.155 0.166c0.019 0.034 0.03 0.069 0.038 0.102a1.372 1.372 0 0 1 0.68-0.015 0.427 0.427 0 0 1 0.057-0.144 0.427 0.427 0 0 1 0.344-0.196 0.673 0.673 0 0 1 0.805-0.858 0.745 0.745 0 0 1 0.114-0.484 0.742 0.742 0 0 1 1.028-0.227 0.926 0.926 0 0 1 0.128-0.309 0.926 0.926 0 0 1 1.286-0.284 0.926 0.926 0 0 1 0.181 0.155 1.032 1.032 0 0 1 1.425-0.318 1.024 1.024 0 0 1 0.378 0.427c0.359-0.243 0.843-0.264 1.229-0.015a1.123 1.123 0 0 1 0.211 0.174 0.65 0.65 0 0 1 0.083-0.109 0.793 0.793 0 0 1-0.336-0.341 0.793 0.793 0 0 1 0.03-0.779 0.911 0.911 0 0 1-0.559-0.461 0.907 0.907 0 0 1-0.076-0.631 1.006 1.006 0 0 1-1.13-0.517 1.006 1.006 0 0 1-0.106-0.364 1.111 1.111 0 0 1-1.444-0.435zM5.668 7.315a0.793 0.793 0 0 1-0.125 0.465 0.793 0.793 0 0 1-0.688 0.366c0.061 0.238 0.026 0.496-0.114 0.719a0.907 0.907 0 0 1-0.506 0.381c0.314 0.329 0.377 0.839 0.122 1.24a1.002 1.002 0 0 1-0.258 0.272 1.111 1.111 0 0 1 0.355 1.468 1.342 1.342 0 0 1 0.699 0.279 1.35 1.35 0 0 1 0.518 1.168c0.283-0.065 0.586-0.019 0.85 0.152a1.119 1.119 0 0 1 0.443 0.536 1.032 1.032 0 0 1 1.063 0.03 1.028 1.028 0 0 1 0.26 0.234 0.925 0.925 0 0 1 1.24-0.227 0.93 0.93 0 0 1 0.113 0.087 0.749 0.749 0 0 1 0.072-0.143 0.749 0.749 0 0 1 0.862-0.31 0.669 0.669 0 0 1 0.101-0.386 0.672 0.672 0 0 1 0.773-0.276 0.423 0.423 0 0 1 0.248-0.377 1.376 1.376 0 0 1-0.362-0.53v-0.008a0.423 0.423 0 0 1-0.253 0.076 0.427 0.427 0 0 1-0.348-0.192 0.673 0.673 0 0 1-1.145-0.246 0.745 0.745 0 0 1-0.476 0.151 0.742 0.742 0 0 1-0.727-0.764 0.926 0.926 0 0 1-0.333 0.049 0.926 0.926 0 0 1-0.865-1.191h-0.004a1.028 1.028 0 0 1-1.005-1.054 1.024 1.024 0 0 1 0.17-0.541 1.123 1.123 0 0 1-0.647-1.047 1.123 1.123 0 0 1 0.068-0.362 0.658 0.658 0 0 1-0.101-0.019z m11.26 2.158a0.924 0.924 0 0 1-1.239 0.227 0.937 0.937 0 0 1-0.114-0.083 0.749 0.749 0 0 1-0.067 0.143 0.749 0.749 0 0 1-0.863 0.306 0.669 0.669 0 0 1-0.106 0.39 0.67 0.67 0 0 1-0.771 0.28 0.423 0.423 0 0 1-0.064 0.215 0.431 0.431 0 0 1-0.076 0.087 1.372 1.372 0 0 1 0.318 0.57 0.423 0.423 0 0 1 0.189-0.04 0.427 0.427 0 0 1 0.347 0.196 0.673 0.673 0 0 1 1.15 0.245 0.745 0.745 0 0 1 0.473-0.155c0.415 0.008 0.737 0.352 0.728 0.764a0.749 0.749 0 0 1 0 0.008v-0.005a0.926 0.926 0 0 1 0.33-0.052 0.926 0.926 0 0 1 0.907 0.952 0.93 0.93 0 0 1-0.038 0.239c0.571 0.015 1.02 0.488 1.005 1.058a1.024 1.024 0 0 1-0.17 0.541 1.123 1.123 0 0 1 0.655 1.047 1.123 1.123 0 0 1-0.076 0.366l0.004-0.007 0.101 0.019a0.793 0.793 0 0 1 0.126-0.466 0.793 0.793 0 0 1 0.688-0.366 0.911 0.911 0 0 1 0.113-0.719 0.907 0.907 0 0 1 0.51-0.377 1.006 1.006 0 0 1-0.124-1.24 1.002 1.002 0 0 1 0.26-0.272 1.111 1.111 0 0 1-0.354-1.47 1.342 1.342 0 0 1-0.704-0.277h-0.004a1.35 1.35 0 0 1-0.518-1.172 1.095 1.095 0 0 1-0.847-0.146 1.119 1.119 0 0 1-0.445-0.542 1.032 1.032 0 0 1-1.063-0.026 1.028 1.028 0 0 1-0.261-0.238z m-0.095 3.153l-0.007 0.067a0.749 0.749 0 0 0 0.007-0.067z m-2.898-0.262a1.376 1.376 0 0 1-0.367 0.605 0.423 0.423 0 0 1 0.196 0.19 0.427 0.427 0 0 1-0.007 0.4 0.673 0.673 0 0 1 0.333 1.127 0.745 0.745 0 0 1 0.362 0.34 0.748 0.748 0 0 1-0.324 1.006 0.926 0.926 0 0 1 0.2 0.264 0.921 0.921 0 0 1-0.401 1.248 0.93 0.93 0 0 1-0.227 0.083v0.004a1.032 1.032 0 0 1-0.445 1.39 1.024 1.024 0 0 1-0.557 0.11 1.123 1.123 0 0 1-0.669 1.096 0.65 0.65 0 0 1 0.114 0.213 0.026 0.026 0 0 1-0.004 0v0.003a0.793 0.793 0 0 1 0.461-0.136 0.793 0.793 0 0 1 0.669 0.397 0.911 0.911 0 0 1 0.673-0.273 0.907 0.907 0 0 1 0.594 0.239 1.006 1.006 0 0 1 0.994-0.745 1.002 1.002 0 0 1 0.366 0.08v0.022a1.113 1.113 0 0 1 1.074-1.085 1.342 1.342 0 0 1-0.125-0.745c0.057-0.466 0.344-0.847 0.734-1.047l0.003 0.004a1.115 1.115 0 0 1-0.314-0.805 1.119 1.119 0 0 1 0.235-0.661 1.032 1.032 0 0 1-0.457-1.266 0.926 0.926 0 0 1-0.832-0.946 0.934 0.934 0 0 1 0.011-0.143 0.749 0.749 0 0 1-0.159 0.015 0.749 0.749 0 0 1-0.706-0.579 0.669 0.669 0 0 1-0.39 0.113 0.675 0.675 0 0 1-0.634-0.518 0.423 0.423 0 0 1-0.22 0.054 0.423 0.423 0 0 1-0.182-0.046z m-0.976 0.941a1.376 1.376 0 0 1-0.34 0.043c-0.113 0-0.223-0.012-0.325-0.039a0.423 0.423 0 0 1-0.061 0.299 0.427 0.427 0 0 1-0.347 0.197 0.673 0.673 0 0 1-0.802 0.854 0.745 0.745 0 0 1-0.113 0.484 0.749 0.749 0 0 1-1.032 0.227 0.926 0.926 0 0 1-0.129 0.31 0.926 0.926 0 0 1-1.281 0.283 0.93 0.93 0 0 1-0.185-0.155v0.004a1.032 1.032 0 0 1-1.425 0.314 1.024 1.024 0 0 1-0.379-0.423c-0.359 0.242-0.84 0.264-1.228 0.015a1.126 1.126 0 0 1-0.213-0.174 0.658 0.658 0 0 1-0.082 0.106 0.793 0.793 0 0 1 0.34 0.34 0.793 0.793 0 0 1-0.034 0.779 0.901 0.901 0 0 1 0.56 0.461 0.907 0.907 0 0 1 0.076 0.631 1.006 1.006 0 0 1 1.133 0.522 1.002 1.002 0 0 1 0.102 0.359 1.111 1.111 0 0 1 1.448 0.435 1.342 1.342 0 0 1 0.594-0.466c0.435-0.174 0.907-0.105 1.27 0.144a1.119 1.119 0 0 1 0.556-0.658 1.119 1.119 0 0 1 0.691-0.109 1.032 1.032 0 0 1 0.56-0.904 1.032 1.032 0 0 1 0.337-0.105 0.927 0.927 0 0 1 0.43-1.184 0.93 0.93 0 0 1 0.132-0.053 0.745 0.745 0 0 1-0.091-0.135 0.747 0.747 0 0 1 0.171-0.897 0.669 0.669 0 0 1-0.283-0.287 0.678 0.678 0 0 1 0.151-0.809 0.423 0.423 0 0 1-0.152-0.166 0.423 0.423 0 0 1-0.049-0.243z"/></svg>