<svg fill="#5B4638" role="img" viewBox="0 0 18 24" xmlns="http://www.w3.org/2000/svg"><title>CodeChef</title><path d="M8.257 0.004c-0.37 0.01-0.735 0.041-1.1 0.095C6.616 0.153 6.077 0.423 5.482 0.694c-0.757 0.324-1.515 0.649-2.218 0.703-1.19 0.379-1.568 0.919-1.892 1.351 0 0.054-0.054 0.108-0.054 0.108-0.432 0.865-0.487 1.73-0.325 2.595 0.162 0.541 0.379 1.028 0.541 1.515 0.379 1.027 0.758 2.001 0.92 3.136 0.162 0.324 0.324 0.757 0.431 1.19 0.27 0.865 0.542 1.838 1.353 2.595l0.006-0.003c0.018 0.018 0.03 0.039 0.048 0.057 0.007-0.004 0.014-0.006 0.021-0.01l-0.021-0.585c0.649-0.973 1.567-1.622 2.865-1.892 0.519-0.109 1.081-0.15 1.663-0.128a8.773 8.773 0 0 1 1.798 0.236c1.46 0.379 2.595 1.136 2.65 1.784 0.027 0.355 0.04 0.695 0.032 1.037-0.001 0.064-0.005 0.129-0.007 0.193l0.136 0.068c0.075-0.037 0.142-0.107 0.206-0.19 0.001-0.001 0.002-0.002 0.003-0.003 0.002-0.002 0.004-0.006 0.006-0.009 0.04-0.054 0.075-0.124 0.111-0.193 0.019-0.038 0.037-0.087 0.055-0.129 0.205-0.462 0.362-1.154 0.538-1.963 0.054-0.27 0.109-0.486 0.163-0.703 0.433-0.973 1.027-1.838 1.622-2.649 0.973-1.352 1.893-2.596 1.784-4.056-1.784-3.461-4.272-4.002-5.569-4.272-0.216-0.054-0.323-0.054-0.486-0.108-1.338-0.243-2.494-0.395-3.605-0.365z m5.043 14.379a9.86 9.86 0 0 0-0.032-0.983c-0.054-0.703-1.189-1.46-2.704-1.838-0.588-0.134-1.176-0.214-1.744-0.236-0.539-0.014-1.066 0.025-1.555 0.128-1.244 0.27-2.216 0.919-2.811 1.892l0.051 1.431c0.667-0.356 1.733-0.875 3.139-0.999 0.066-0.006 0.137-0.006 0.204-0.01 0.118-0.013 0.267-0.044 0.445-0.044 1.607 0 3.268 0.534 4.877 1.648 0.039-0.274 0.061-0.549 0.071-0.823l0.044 0.022c0.003-0.062 0.014-0.127 0.015-0.188zM8.256 0.058c0.124-0.003 0.254 0.01 0.379 0.011-0.23-0.002-0.459 0.003-0.687 0.016 0.103-0.006 0.205-0.024 0.308-0.027z m0.498 0.015c0.655 0.014 1.325 0.071 2.039 0.181-0.683-0.099-1.365-0.167-2.039-0.181z m-1.314 0.056c-0.076 0.009-0.153 0.013-0.229 0.024-0.817 0.117-1.774 0.702-2.75 1.045 0.354-0.132 0.714-0.296 1.075-0.45C6.076 0.477 6.67 0.207 7.157 0.153c0.094-0.014 0.189-0.013 0.283-0.024z m-0.229 0.24c0.162 0 0.379 0 0.541 0.054-0.142-0.036-0.26-0.026-0.371-0.015a1.174 1.174 0 0 1 0.317 0.068c0.58 1.001-0.426 5.279-0.679 8.15 0.156 1.028 0.314 1.996 0.463 2.72-0.703-1.784-1.407-4.921-1.515-7.354-0.054-0.973 0.001-1.839 0.218-2.488C6.401 0.856 6.724 0.423 7.211 0.369z m3.136 0.271c-0.811 2.109-0.918 6.109-0.972 7.352-0.054 0.541 0 1.73 0.054 2.596 0 0.216 0.054 0.432 0.054 0.648 0-0.216-0.054-0.379-0.054-0.594-0.433-3.244-0.974-7.136 0.918-10.002z m3.352 0.377c-0.27 2.163-1.405 3.191-1.783 5.3-0.108 1.676-0.325 3.622-0.379 5.299-0.054-1.676-0.001-3.46 0.27-5.245 0.27-1.838 0.865-3.678 1.892-5.354z m-10.381 0.433c-0.358 0.119-0.632 0.248-0.857 0.381 0.232-0.136 0.5-0.267 0.857-0.381z m0.21 0.198c0.215 0.003 0.438 0.073 0.601 0.235-0.007-0.004-0.008-0.003-0.014-0.007 0.133 0.093 0.267 0.209 0.393 0.385-0.204 0.967 0.255 3.032 0.04 4.669 0.076 1.548 0.072 3.18 0.849 4.46-0.98-1.511-1.176-3.438-1.322-5.236-0.113-1.091-0.203-2.097-0.464-2.903-0.144-0.305-0.268-0.575-0.384-0.822-0.025-0.037-0.045-0.078-0.071-0.114-0.108-0.108-0.162-0.27-0.162-0.378 0-0.054 0.054-0.162 0.108-0.161 0.054-0.054 0.162-0.055 0.216-0.11a1.013 1.013 0 0 1 0.21-0.018z m-1.346 0.613c-0.06 0.02-0.092 0.041-0.14 0.061 0.177-0.034 0.362 0.034 0.519 0.318-0.188 0.892 0.436 3.369 0.429 5.104 0.312 1.848 0.55 3.85 1.572 5.115C3.372 11.507 2.886 9.128 2.508 7.128 2.183 5.56 1.912 4.208 1.372 3.776c-0.054-0.108-0.108-0.163-0.108-0.271 0-0.162 0-0.379 0.108-0.595-0.277 0.634-0.405 1.267-0.371 1.901-0.044-0.649 0.086-1.29 0.371-1.901 0-0.054 0.054-0.054 0.054-0.108 0.012-0.016 0.031-0.035 0.044-0.051 0.062-0.098 0.131-0.189 0.225-0.257 0.056-0.061 0.097-0.119 0.159-0.182-0.053 0.056-0.087 0.109-0.133 0.165 0.027-0.018 0.052-0.037 0.084-0.053 0.108-0.108 0.215-0.163 0.377-0.163z m-0.377 0.163c-0.004 0.007-0.008 0.011-0.012 0.019 0.013-0.01 0.024-0.021 0.037-0.03-0.007 0.004-0.018 0.008-0.025 0.011z m14.761 1.135c-0.002 0.005-0.004 0.01-0.006 0.015 0.038-0.005 0.075-0.017 0.113-0.015-0.038-0.002-0.076 0.01-0.115 0.02-0.863 2.642-1.887 5.284-2.911 7.926a0.018 0.018 0 0 1-0.002 0.003c-0.087 0.465-0.234 0.884-0.539 1.189 0.433-0.487 0.485-1.191 0.539-2.055 0.054-0.811 0.054-1.676 0.487-2.542 0-0.053 0.001-0.106 0.053-0.159 0-0.001 0.001-0.002 0.001-0.003 0.097-0.352 0.202-0.689 0.317-1.018 0.418-1.29 1.14-3.165 2.013-3.34 0.016-0.005 0.034-0.018 0.049-0.021zM5.373 16.211l-0.324 0.108c0.162 0.216 0.27 0.379 0.377 0.433 0.108 0.054 0.217 0.108 0.379 0.108 0.054 0 0.162 0 0.216-0.054l0.812-0.27c0.054 0 0.108-0.054 0.162-0.054 0.108 0 0.162 0 0.27 0.054l0.271 0.27 0.27-0.054c-0.108-0.162-0.27-0.324-0.378-0.378-0.108-0.054-0.217-0.109-0.379-0.109h-0.108l-0.866 0.325h-0.162c-0.108 0-0.216 0-0.269-0.054-0.054-0.054-0.163-0.163-0.272-0.325z m-2.596 0.541c-0.27 0.162-0.649 0.432-1.189 0.649-0.541 0.216-0.973 0.432-1.19 0.649-0.216 0.216-0.324 0.433-0.324 0.648 0 0.108 0.054 0.163 0.162 0.218 0.054 0.054 0.163 0.054 0.217 0.108 0.757 0.324 1.513 0.702 2.216 1.08 0.108 0.054 0.217 0.163 0.272 0.217 0.054 0.054 0.108 0.054 0.161 0.054 0.108 0 0.27-0.054 0.378-0.162 0.108-0.108 0.163-0.217 0.163-0.325 0-0.108-0.055-0.162-0.163-0.216 0 0-0.433-0.216-1.19-0.541-0.487-0.216-0.918-0.433-1.188-0.594 0.162-0.27 0.486-0.486 0.973-0.703 0.541-0.216 0.92-0.433 1.081-0.595 0.054-0.054 0.054-0.108 0.054-0.162 0-0.054-0.054-0.163-0.108-0.217-0.054-0.054-0.163-0.108-0.271-0.108z m11.247 0c-0.054 0-0.162 0.054-0.216 0.108-0.054 0.108-0.109 0.163-0.109 0.217v0.054c0.162 0.162 0.38 0.27 0.704 0.378 0.27 0.054 0.54 0.163 0.811 0.217 0.324 0.108 0.541 0.269 0.649 0.486v0.055c0 0.054-0.109 0.162-0.325 0.27-0.108 0.054-0.325 0.217-0.595 0.433-0.27 0.162-0.433 0.324-0.595 0.377-0.216 0.108-0.378 0.217-0.432 0.325-0.054 0.054-0.054 0.108-0.054 0.162 0 0.108 0.054 0.108 0.108 0.216 0.054 0.108 0.162 0.109 0.216 0.109 0.054 0 0.108-0.055 0.162-0.055 0.27-0.162 0.649-0.378 1.082-0.757 0.487-0.378 0.866-0.648 1.082-0.81 0.216-0.108 0.324-0.217 0.323-0.379 0-0.054 0-0.162-0.108-0.216-0.379-0.432-0.918-0.702-1.567-0.919-0.108-0.054-0.27-0.109-0.595-0.163-0.162-0.054-0.325-0.108-0.433-0.108z m-2.974 0.811c-0.27 0-0.487 0.055-0.649 0.217-0.216 0.162-0.27 0.432-0.216 0.757 0 0.27 0.107 0.486 0.27 0.702 0.162 0.216 0.379 0.325 0.595 0.326 0.162 0 0.271-0.055 0.433-0.11 0.27-0.162 0.379-0.432 0.379-0.918 0-0.379-0.109-0.648-0.271-0.811-0.162-0.108-0.325-0.163-0.541-0.163z m-4.488 0.054c-0.27 0-0.487 0.055-0.649 0.217-0.216 0.162-0.27 0.432-0.215 0.757 0 0.27 0.107 0.486 0.269 0.702s0.379 0.325 0.595 0.325c0.162 0 0.271-0.055 0.433-0.109 0.27-0.162 0.378-0.432 0.378-0.918 0-0.432-0.107-0.703-0.27-0.811-0.162-0.108-0.325-0.163-0.541-0.163z m0 0.65c0.162 0 0.271 0.108 0.271 0.27 0 0.162-0.163 0.27-0.271 0.269-0.162 0-0.27-0.107-0.27-0.269s0.108-0.27 0.27-0.27z m4.38 0.054c0.162 0 0.271 0.107 0.271 0.27 0 0.108-0.109 0.27-0.271 0.269-0.162 0-0.27-0.108-0.27-0.269 0-0.162 0.108-0.27 0.27-0.27z m-2.703 2.108l0.162 0.324c0.054 0.108 0.108 0.163 0.216 0.271 0.054 0.054 0.163 0.162 0.271 0.162h0.108c0.108 0 0.162 0 0.215-0.054 0.054-0.054 0.163-0.054 0.218-0.108l0.161-0.162c0.054-0.054 0.108-0.109 0.108-0.163 0.054-0.054 0.054-0.108 0.108-0.162 0-0.054 0.054-0.108 0.054-0.108-0.054 0.108-0.162 0.216-0.216 0.324-0.108 0.054-0.162 0.163-0.269 0.163-0.108 0.054-0.217 0.054-0.325 0.054s-0.216 0-0.27-0.054c-0.108 0-0.163-0.054-0.217-0.108l-0.162-0.163c-0.054-0.054-0.108-0.162-0.162-0.216z m-0.866 1.028c-1.135 0-1.838 1.514-3.46 0.162-0.433 2.649 2.758 2.866 4.11 1.73 0.919-0.811 0.647-1.946-0.65-1.892z m2.866 0c-1.298-0.054-1.568 1.081-0.649 1.892 1.352 1.135 4.541 0.919 4.109-1.73-1.622 1.352-2.27-0.162-3.46-0.162z"/></svg>