<svg fill="#1F4056" role="img" viewBox="0 0 31 24" xmlns="http://www.w3.org/2000/svg"><title>Codecademy</title><path d="M30.305 21.675h-7.004c-0.118 0-0.213 0.073-0.212 0.216v1.896c0 0.118 0.073 0.213 0.215 0.213h7.003c0.12 0 0.215-0.055 0.215-0.205v-1.897c0-0.131-0.071-0.208-0.217-0.208v-0.017zM21.087 0.061c0.02 0.043 0.038 0.084 0.059 0.151v23.521c0 0.075-0.025 0.12-0.047 0.143a0.21 0.21 0 0 1-0.169 0.075H0.67c-0.048 0-0.094 0-0.122-0.025A0.227 0.227 0 0 1 0.478 23.758V0.188c0-0.095 0.05-0.168 0.12-0.188h20.332c0.05 0 0.12 0.021 0.144 0.043v0.02zM2.754 21.48c0 0.09 0.048 0.169 0.12 0.19h15.827c0.073-0.024 0.12-0.095 0.12-0.192V2.489c0-0.091-0.049-0.168-0.123-0.188H2.875c-0.07 0.025-0.12 0.091-0.12 0.188l-0.004 18.99z m6.477-10.484c0.814 0 1.269 0.222 1.747 0.776 0.073 0.093 0.192 0.116 0.288 0.043l1.295-1.152c0.094-0.055 0.073-0.205 0.025-0.28-0.795-0.956-1.945-1.557-3.43-1.558-1.99 0-3.493 0.995-4.075 2.762-0.207 0.62-0.3 1.41-0.3 2.479 0 1.069 0.094 1.856 0.319 2.478 0.582 1.784 2.084 2.759 4.075 2.759 1.502 0 2.648-0.601 3.436-1.522 0.056-0.093 0.075-0.207-0.019-0.283l-1.298-1.145c-0.091-0.059-0.204-0.059-0.281 0.033-0.488 0.563-0.995 0.864-1.82 0.864-0.884 0-1.559-0.432-1.84-1.295-0.17-0.488-0.208-1.089-0.208-1.857 0-0.77 0.056-1.337 0.226-1.84 0.3-0.826 0.959-1.262 1.86-1.262z"/></svg>