<svg fill="#08B1AB" role="img" viewBox="0 0 32 24" xmlns="http://www.w3.org/2000/svg"><title>Codefresh</title><path d="M0.28 0c1.837 3.55 1.893 6.866 3.9 13.624 2.43 6.997 11.401 7.468 12.065 7.481 0.603 0.951 1.982 2.232 5.143 2.895l0.351-1.666c-2.727-0.571-3.726-1.623-4.069-2.201l-0.006 0.008c0.114-0.634 1.995-7.044-1.733-12.251C9.689 0.973 0.28 0 0.28 0z m31.44 1.1c-5.106 0.8-5.624-1.205-15.03 4.052a15.561 15.561 0 0 1 3.439 13.165c4.877-1.947 6.767-5.208 7.344-8.47 0 0 1.664-6.178 4.247-8.747zM16.69 5.152l-0.002-0.002v0.005l0.002-0.003zM3.743 3.118s7.103 1.868 11.191 15.121c-3.858-1.165-5.506-4.973-6.065-6.77h0.007a20.78 20.78 0 0 0-5.135-8.351z"/></svg>