<svg fill="#008C99" role="img" viewBox="0 0 26 24" xmlns="http://www.w3.org/2000/svg"><title>CodeStream</title><path d="M11.438 18.686a6.915 6.915 0 0 1 0-13.467V0.461A0.462 0.462 0 0 0 10.64 0.146l-10.02 10.674a1.723 1.723 0 0 0 0 2.356l10.02 10.678a0.462 0.462 0 0 0 0.798-0.316z m3.124 0a6.915 6.915 0 0 0 0-13.467V0.461a0.462 0.462 0 0 1 0.799-0.315l10.019 10.674a1.723 1.723 0 0 1 0 2.356l-10.019 10.678a0.462 0.462 0 0 1-0.799-0.316z m2.423-6.734a3.994 3.99 90 0 1-3.99 3.994 3.994 3.99 90 0 1-3.99-3.994 3.994 3.99 90 0 1 3.99-3.993 3.994 3.99 90 0 1 3.99 3.993z"/></svg>