<svg fill="#F01F7A" role="img" viewBox="0 0 26 24" xmlns="http://www.w3.org/2000/svg"><title>Codecov</title><path d="M13.006 0.001C6.115 0.006 0.504 5.575 0.499 12.417v0.031l2.127 1.24 0.029-0.019a6.063 6.063 0 0 1 3.446-1.063c0.385 0 0.764 0.035 1.131 0.105l-0.038-0.007a5.928 5.928 0 0 1 2.994 1.49l-0.004-0.002 0.365 0.34 0.206-0.453c0.2-0.438 0.431-0.848 0.688-1.222 0.104-0.15 0.217-0.302 0.345-0.464l0.214-0.268-0.263-0.22a8.678 8.678 0 0 0-3.996-1.882l-0.054-0.009a8.923 8.923 0 0 0-4.25 0.262l0.062-0.017c1.013-4.434 4.911-7.525 9.515-7.527a9.699 9.699 0 0 1 6.875 2.826 9.58 9.58 0 0 1 2.613 4.686 8.735 8.735 0 0 0-2.602-0.395h-0.161c-0.371 0.006-0.729 0.034-1.079 0.081l0.047-0.005-0.044 0.006a8.441 8.441 0 0 0-0.406 0.063c-0.059 0.01-0.119 0.023-0.177 0.034a8.44 8.44 0 0 0-0.409 0.094l-0.143 0.035a9.595 9.595 0 0 0-0.504 0.15l-0.031 0.011c-0.369 0.125-0.738 0.279-1.094 0.458l-0.028 0.014c-0.158 0.079-0.318 0.167-0.49 0.266l-0.036 0.023a8.559 8.559 0 0 0-2.196 1.875l-0.011 0.015-0.079 0.096a8.693 8.693 0 0 0-0.393 0.524c-0.092 0.135-0.184 0.28-0.3 0.471l-0.063 0.108a9.36 9.36 0 0 0-0.244 0.45l-0.016 0.03c-0.177 0.354-0.33 0.727-0.459 1.108l-0.017 0.055a8.388 8.388 0 0 0-0.428 2.829v-0.007 0.117a12.501 12.501 0 0 0 0.024 0.449l-0.002-0.039a12.164 12.164 0 0 0 0.044 0.429l0.005 0.044 0.014 0.107c0.019 0.132 0.04 0.263 0.064 0.394 0.251 1.319 0.88 2.638 1.818 3.813l0.043 0.053 0.044-0.052c0.374-0.442 1.301-1.844 1.38-2.685v-0.015l-0.006-0.014a5.792 5.792 0 0 1-0.667-2.703c0-3.142 2.469-5.752 5.621-5.94l0.209-0.008a6.178 6.178 0 0 1 3.615 1.068l0.028 0.02L25.501 12.434v-0.031a12.261 12.261 0 0 0-3.657-8.774A12.461 12.461 0 0 0 13.007 0z"/></svg>