<svg fill="#003648" role="img" viewBox="0 0 36 24" xmlns="http://www.w3.org/2000/svg"><title>Codementor</title><path d="M12.747 16.317c0.583 0 1.056 0.47 1.056 1.047a1.051 1.051 0 0 1-1.056 1.046H8.478a1.051 1.051 0 0 1-1.057-1.046c0-0.577 0.474-1.047 1.057-1.047z m1.032-3.877c0.583 0 1.056 0.471 1.055 1.046a1.051 1.051 0 0 1-1.057 1.047H8.502a1.051 1.051 0 0 1-1.056-1.047c0-0.577 0.473-1.047 1.056-1.046z m5.778-5.174a3.154 3.154 0 0 1 3.167-3.139 3.154 3.154 0 0 1 3.167 3.14 3.163 3.163 0 0 1-3.167 3.145 3.164 3.164 0 0 1-3.167-3.146Zm9.359 9.808c0.15 0.926-0.565 1.764-1.503 1.761h-9.379a1.519 1.519 0 0 1-1.502-1.761c0.471-2.904 2.08-5.247 4.181-6.176a4.139 4.139 0 0 0 4.022 0c2.101 0.929 3.711 3.275 4.181 6.176z m-13.027-6.415c-12.531 0-0.22-0.003-7.389-0.003a1.051 1.051 0 0 1-1.057-1.047c0-0.577 0.474-1.047 1.057-1.047l7.389 0.002c0.583 0 1.057 0.47 1.055 1.048a1.05 1.05 0 0 1-1.055 1.047z m-7.387-3.879a1.05 1.05 0 0 1-1.058-1.047c0-0.577 0.474-1.047 1.058-1.047h7.387c0.582 0 1.054 0.468 1.054 1.047a1.051 1.051 0 0 1-1.056 1.045z m11.677 15.128a0.984 0.984 0 0 0 0.987-0.978h10.557v-18.841H4.279v18.84h10.555c0 0.54 0.441 0.978 0.987 0.978zM35.944 20.93v1.431c0 0.905-0.742 1.639-1.654 1.639H1.71c-0.912 0-1.654-0.733-1.654-1.639v-1.431h2.113V2.067c0-1.141 0.932-2.067 2.084-2.067h27.495c1.151 0 2.084 0.926 2.085 2.067v18.863Z"/></svg>