<svg fill="#000000" role="img" viewBox="0 0 35 24" xmlns="http://www.w3.org/2000/svg"><title>Coder</title><path d="M15.937 0c-3.19 0-4.424 1.636-4.424 4.594v1.53a6.943 6.943 0 0 1 2.263-0.394c0.453 0 0.906 0.043 1.339 0.146v-0.849c0-1.2 0.616-1.903 1.85-1.902h0.454v-3.124Zm10.74 0v3.124h0.453c1.255 0 1.853 0.684 1.853 1.905v4.095c0 1.779 0.535 2.504 1.708 2.876-1.173 0.352-1.708 1.097-1.708 2.876v3.04c0 0.848 0 1.677-0.227 2.526a6.209 6.209 0 0 1-1.112 2.171 5.503 5.503 0 0 1-0.986 0.972v0.415h1.48c3.19 0 4.424-1.636 4.424-4.594v-4.635c0-0.828 0.432-1.2 1.131-1.199H34.537v-3.124h-0.823v-0.02c-0.677 0-1.129-0.393-1.129-1.201V4.596c0-2.96-1.237-4.596-4.427-4.596Zm-7.614 3.994a0.185 0.185 0 0 0-0.184 0.184v0.355c0 0.102 0.082 0.185 0.184 0.185h4.57c0.102 0 0.204-0.082 0.205-0.185v-0.355a0.185 0.185 0 0 0-0.185-0.184Zm0 2.235a0.185 0.185 0 0 0-0.184 0.184v0.354c0 0.104 0.082 0.185 0.184 0.184h6.669c0.104 0 0.165-0.102 0.165-0.184v-0.352a0.185 0.185 0 0 0-0.185-0.185ZM13.817 7.655a6.906 6.906 0 0 0-6.193 3.911c-0.021 0-0.02 0.021-0.043 0.021a6.209 6.209 0 0 0-2.22 0.145A6.436 6.436 0 0 0 0.525 17.111a5.272 5.272 0 0 0-0.062 0.785c0 0.787 0.535 1.512 1.317 1.616a1.545 1.545 0 0 0 1.789-1.553c0-0.145 0-0.31 0.023-0.455a3.28 3.28 0 0 1 2.489-2.752 3.028 3.028 0 0 1 1.214-0.062c1.255 0.165 2.49-0.476 3.024-1.593 0.392-0.828 1.008-1.552 1.831-1.945a3.762 3.762 0 0 1 2.881-0.166c0.988 0.352 1.729 1.097 2.182 2.029 0.473 0.91 0.699 1.55 1.707 1.675 0.412 0.061 1.565 0.043 1.996 0.02 0.843 0 1.688 0.29 2.284 0.889a3.166 3.166 0 0 1 0.803 1.512 3.136 3.136 0 0 1-0.597 2.566 2.973 2.973 0 0 1-1.522 1.033 3.091 3.091 0 0 1-0.866 0.105h-4.546c-0.906 0-1.626-0.724-1.626-1.635v-6.063a0.459 0.459 0 0 0-0.454-0.454h-0.637c-1.255 0.021-2.263 1.428-2.264 2.918v5.439a2.906 2.906 0 0 0 2.903 2.919l7.243-0.021a6.162 6.162 0 0 0 4.197-2.319c1.029-1.262 1.502-2.916 1.296-4.614-0.329-2.627-2.345-4.817-4.938-5.314a5.736 5.736 0 0 0-2.139-0.043c-0.021 0-0.021-0.02-0.043-0.02-1.132-2.38-3.559-3.953-6.193-3.953Zm7.244 0.81a0.185 0.185 0 0 0-0.165 0.186v0.35c0 0.104 0.082 0.186 0.185 0.186h3.333c0.104 0 0.185-0.104 0.185-0.184V8.649a0.185 0.185 0 0 0-0.185-0.184Z"/></svg>