<svg fill="#D30707" role="img" viewBox="0 0 26 24" xmlns="http://www.w3.org/2000/svg"><title>CodeMirror</title><path d="M13.337 0c1.124-0.002 2.171 0.392 3.194 1.269 0.861 0.738 1.257 1.637 1.565 2.325 0.49 1.096 0.346 1.198-0.194 1.506a1.368 1.368 0 0 1-0.28 0.116c0.129 1.618 1.036 1.763 1.327 2.332 0.19 0.366 0.282 0.81-0.595 0.949-0.882 0.14-0.595 0.819-1.899 0.877-0.931 0.044-1.478-0.277-1.793-0.611a4.996 4.996 0 0 1-0.671 2.668c0.226 0.112 0.722 0.33 1.405 0.455 0.949 0.172 2.321-0.562 2.848-0.562 0.165 0 0.337-0.024 0.528-0.027 0.403-0.008 0.891 0.078 1.583 0.67l0.036-0.081c-0.405-0.555-0.228-2.03 0.528-3.807 0.873-2.051 1.942-3.806 2.807-3.338v-0.004c0.781 0.422 0.388 2.064-0.485 4.114-0.751 1.762-1.483 3.165-2.243 3.277l-0.085 0.26c0.898 0.713 0.718 1.053 0.475 1.637-0.282 0.667 0.123 1.265-1.316 1.511a1.044 1.044 0 0 1-0.468-0.027c-0.106 0.25-0.191 0.444-0.19 0.444s-0.14 0.384-0.515 0.249c-0.384-0.14-0.283-0.418-0.284-0.417l0.371-0.674c-0.23-0.249-0.352-0.53-0.32-0.631 0.143-0.317 0.49-0.033 0.456-0.383-0.667 0.071-1.299-0.317-1.439-0.351-0.14-0.033-0.071-0.35-1.195 0.351-0.446 0.278-0.855 0.557-1.27 0.821 0.165 0.844 1.138 2.171 1.874 2.268 2.318-0.106 2.318 1.443 2.144 1.475-0.35-0.666-0.911-0.527-1.65-0.104s0.14 0.35 0.455 0.594c-1.548 0.655-3.067-0.578-3.497-0.97-0.612 0.973-1.802 1.662-2.625 2.03-1.017 0.456-1.777 1.059-1.017 1.439 0.633 0.317 0.983-0.49 1.899-0.633 0.911-0.14 1.722 0.211 1.793 0.739-0.383-0.211-0.667-0.211-0.667-0.212s0.317 0.211 0.35 0.56c0.034 0.351-0.032 0.174-0.244 0.175-0.528 0-0.595-0.457-1.056-0.385-1.16 0.106-1.228 0.595-1.86 0.668-0.633 0.067-1.688-0.28-1.544-1.09 0.14-0.806 1.228-1.371 2.249-1.793 1.017-0.422 2.565-1.756 2.354-2.954-0.103-0.588-0.378-0.827-0.63-0.918-0.736 0.291-1.508 0.485-2.294 0.572-2.262 0.277-3.02-0.799-3.213-1.174-1.402 1.005-3.396 1.373-4.138 2.609 0.317-1.756 1.265-2.321 3.481-3.338 2.21-1.015 2.669-3.114 2.671-3.124v-0.007 0.007c-0.002 0.032-0.109 1.91-1.343 3.263 0.42 0.803 1.06 1.212 2.542 1.06 1.688-0.172 4.123-1.637 5.836-2.495 1.194-0.599 1.721 0.528 2.566 0.596 1.174 0.097 0.211 1.333 0.211 1.333s0.882-0.14 1.055-0.455c0.172-0.317-0.107-0.528 0.173-0.807 0.282-0.282 0.244-0.599-0.157-0.894-0.355-0.262-0.578-0.612-1.738-1.139-1.161-0.528-2.148 0.489-3.482 0.805-1.004 0.237-1.906-0.197-2.293-0.429-1.03 1.103-2.306 1.316-2.306 1.316v-0.005c1.265-0.739 2.055-2.08 2.397-3.24 0.252-0.856 0.075-1.782-0.036-2.21-1.626-0.032-2.829-1.592-2.829-1.592h0.004s2.072 1.333 3.759 0.772c1.684-0.561 1.405-3.828 1.44-3.654 0.016 0.084 0.282 0.745 0.323 1.546 0.395-0.047 1.836-0.269 1.534-0.955-0.952-2.143-2.677-3.484-5.721-3.634 0.558 3.021-2.008 2.195-6.049 4.266C1.893 6.877 0.779 10.328 1.268 14.337c0.298 2.418 1.85 5.079 4.725 6.81a2.779 2.779 0 0 0 1.774-0.898c0.878-0.983 0.383-2.531 1.826-3.093a4.425 4.425 0 0 1 1.586-0.319c0.529-0.003 0.841 0.108 0.841 0.108s-2.565 0.35-2.777 1.827c-0.211 1.477-0.56 2.143-1.122 2.599-0.256 0.2-0.549 0.349-0.864 0.436 1.684 0.754 3.729 1.214 6.143 1.214 7.701 0 10.77-6.11 11.098-7.747 0.366-1.81 1.426-2.24 1.426-0.308 0 3.692-5.532 9.034-12.494 9.034-6.963 0-10.828-3.764-12.411-6.785C-0.564 14.188-0.139 9.585 2.18 6.809c2.32-2.781 5.472-3.41 7.755-4.148 2.172-0.703 2.057-2.003 2.041-2.127-0.355-0.016-0.713-0.018-1.07-0.004 0.857-0.342 1.662-0.529 2.431-0.53z m10.015 4.838c-0.386 0.006-1.282 1.411-2.006 3.224-0.759 1.906-0.979 3.569-0.743 3.701 0.131 0.072 1.258-1.296 2.017-3.199 0.76-1.906 1.135-3.582 0.785-3.717a0.136 0.136 0 0 0-0.054-0.009z m-7.173 0.541c-0.011 0.839-0.305 1.774-1.383 2.345-0.086 0.046-0.17 0.086-0.254 0.121a4.2 4.2 0 0 1 0.082 0.452c0.291 0.163 0.724 0.366 1.198 0.445 0.844 0.139 1.443-0.426 1.688-0.633 0.244-0.207 0.616-0.051 0.789-0.017 0.172 0.039 0.523-0.067 0.279-0.173-0.249-0.106-0.528-0.474-0.739-0.928-0.224-0.897-0.539-1.282-0.703-1.433-0.267 0.131-0.624 0.031-0.862-0.129-0.032-0.016-0.065-0.032-0.095-0.05z m6.889 0.178h0.015l-0.039 0.015c-0.006 0.004-0.011 0.011-0.016 0.018 0.017 0.075 0.008 0.157 0.008 0.242a0.868 0.868 0 0 1-0.033 0.258c0.006 0.016 0 0.043 0 0.064-0.02 0.026-0.004 0.047-0.009 0.069 0.032 0.031 0.08 0.068 0.058 0.11-0.011 0.027-0.043 0.038-0.075 0.047-0.015 0.075-0.037 0.158-0.052 0.244 0 0.022 0 0.053-0.005 0.073-0.016 0.054-0.032 0.1-0.048 0.158-0.011 0.047 0 0.138-0.052 0.148-0.022 0.054-0.032 0.096-0.058 0.148-0.011 0.004-0.022-0.005-0.032 0v0.001a1.12 1.12 0 0 1-0.033 0.194c0 0.022-0.004 0.058-0.004 0.084-0.027 0.037-0.011 0.064-0.022 0.095 0.038 0.043 0.085 0.085 0.059 0.148-0.015 0.043-0.058 0.054-0.095 0.074-0.032 0.1-0.064 0.222-0.095 0.332-0.005 0.032-0.011 0.069-0.021 0.101-0.026 0.068-0.058 0.137-0.079 0.215-0.022 0.065-0.016 0.18-0.084 0.191-0.032 0.068-0.048 0.121-0.085 0.189-0.016 0.011-0.026-0.005-0.042 0-0.016 0.022-0.022 0.053-0.037 0.075-0.011 0.011-0.027 0.011-0.037 0.026-0.022 0.032-0.015 0.079-0.037 0.127a0.342 0.342 0 0 0-0.058 0.068l-0.006 0.01c-0.025 0.067-0.037 0.146-0.066 0.211 0.025-0.212 0.048-0.459 0.067-0.713 0.01-0.183 0.024-0.411 0.04-0.645a6.925 6.925 0 0 0-0.01-0.958l0.033-0.068 0.069-0.133c0.015-0.163 0.028-0.276 0.032-0.258a1.023 1.023 0 0 1 0.025 0.151c0.038-0.066 0.076-0.134 0.122-0.208 0.043-0.074 0.08-0.153 0.127-0.211 0.032-0.043 0.084-0.126 0.121-0.205 0.011-0.027 0.011-0.054 0.052-0.059 0.038-0.047 0.069-0.106 0.111-0.148 0.011-0.011 0.027-0.016 0.038-0.021 0.011-0.011 0.015-0.026 0.031-0.037 0.026-0.022 0.074-0.042 0.106-0.084 0.005-0.011 0.011-0.022 0.021-0.032 0.013-0.016 0.032-0.048 0.054-0.073l-0.001-0.011 0.018-0.007a0.067 0.067 0 0 1 0.024-0.015z m-1.07 1.565c-0.061 0.78-0.108 1.562-0.138 2.343a2.014 2.014 0 0 0-0.048 0.102c-0.053 0.126-0.131 0.274-0.184 0.421l-0.016 0.085c-0.022 0.058-0.053 0.115-0.069 0.174-0.032 0.09-0.073 0.248-0.159 0.332-0.004 0.011-0.026 0.022-0.036 0.033-0.011 0.015-0.005 0.037-0.022 0.057l-0.018 0.012 0.126-1.521c0.006-0.28 0.036-0.555 0.075-0.804l-0.003-0.034c0.016-0.089 0.027-0.158 0.053-0.258l0.011-0.033c0.084-0.414 0.177-0.695 0.176-0.694l-0.034 0.331c0.013-0.03 0.027-0.06 0.043-0.09 0.015-0.032 0.041-0.058 0.057-0.095 0.005-0.016 0.011-0.043 0.016-0.064 0.05-0.102 0.11-0.198 0.17-0.297z m-0.645 1.701c-0.079 0.544-0.137 1.239-0.064 1.878-0.006 0.012-0.011 0.025-0.02 0.037-0.027 0.026-0.065 0.042-0.09 0.073-0.015 0.022-0.026 0.054-0.048 0.08a1.055 1.055 0 0 1-0.073 0.084l-0.095 0.138a0.228 0.228 0 0 1-0.105 0.094c-0.022 0.011-0.054 0.005-0.08 0.011-0.015-0.022 0-0.054 0-0.08 0-0.011-0.011-0.026-0.011-0.036 0-0.032-0.004-0.09 0-0.122 0-0.032 0.027-0.058 0.038-0.105 0.005-0.037 0-0.079 0-0.121 0-0.016 0.005-0.038 0.005-0.065 0-0.031 0-0.046 0.005-0.089a0.644 0.644 0 0 0-0.005-0.142c0.022-0.111 0.031-0.2 0.063-0.332 0.011-0.058 0.038-0.164 0.065-0.233 0.02-0.068 0.046-0.137 0.067-0.211 0.022-0.073 0.047-0.148 0.074-0.22 0.016-0.047 0.043-0.09 0.064-0.144 0.01-0.026 0.01-0.057 0.021-0.089 0.022-0.064 0.047-0.131 0.078-0.19l0.09-0.174z m-6.75 6.468c-0.14 0.08-0.283 0.157-0.431 0.232 0.305 0.219 0.975 0.838 0.7 1.912a2.351 2.351 0 0 1-0.041 0.142c0.565 0.785 1.371 1.198 1.784 1.258 0.452 0.068 0.257-0.177 0.19-0.421-0.071-0.246 0.422-0.317 0.7-0.49 0.28-0.177 0.14-0.456-0.771-0.317-0.821 0.129-1.974-1.664-2.131-2.316Z"/></svg>