<svg fill="#F2BB13" role="img" viewBox="0 0 182 24" xmlns="http://www.w3.org/2000/svg"><title>CodinGame</title><path d="M8.169 11.192c-0.755 2.211-0.528 4.234 0.068 5.057 0.589 0.83 1.683 1.962 4.151 2.053 2.468 0.091 5.26-1.26 5.26-1.26l-1.026 5.886c-0.06 0.06-3.019 1.042-6.642 1.012-4.989-0.03-9.97-2.392-9.517-9.449 0.045-0.611 0.4-3.004 0.966-4.325a13.585 13.585 0 0 1 8.34-8.098c5.057-1.781 10.491-0.121 10.491-0.121l-1.065 6.166s-1.864-1.532-5.698-1.162a7.962 7.962 0 0 0-2.437 0.8 6.438 6.438 0 0 0-2.891 3.441z m30.038 4.483c-0.604 3.615-3.366 8.279-10.544 8.28-7.177 0-8.317-4.664-7.668-8.28 1.638-8.558 10.521-8.128 10.521-8.128s9.019-0.43 7.698 8.128z m-6.695-2.09c-0.325-1.321-1.819-1.275-1.818-1.276v0.008s-1.608-0.128-2.491 1.585c-1.026 2.37-0.566 3.879-0.528 4.015 0.325 1.321 1.811 1.275 1.811 1.275v-0.007s1.615 0.128 2.491-1.585c1.026-2.37 0.566-3.879 0.528-4.015z m28.883-13.185l-4.03 23.17h-6.551l0.325-1.849a6.34 6.34 0 0 1-4.981 2.264c-3.977 0-6.136-2.981-5.336-7.57 0.996-5.736 4.906-9.057 8.589-9.057 1.766 0 3.102 0.747 3.864 2.076v-0.015l1.57-9.019z m-10.792 11.902c-1.547-0.03-2.717 1.826-3.034 3.623-0.302 1.796-0.038 3.223 1.842 3.245 1.132 0 2.46-0.664 2.973-3.245 0.211-1.23 0.377-3.623-1.781-3.623z m26.823-4.196s-1.955-1.313-5.268 0c-1.426 0.551-2.823 2.325-2.823 2.324l0.438-2.528h-6.544l-1.962 11.268h6.566l0.755-4.325 0.015-0.143c0.106-0.536 0.589-2.4 2.302-2.4 2 0 1.358 2.521 1.358 2.521l-1.494 8.747h6.536l1.789-10.287c0.679-3.962-1.66-5.177-1.661-5.177z m-10.317-2.551c1.66 0 3.004-1.177 3.003-2.634 0-1.457-1.343-2.634-3.003-2.634-1.66 0-3.004 1.177-3.004 2.641 0 1.442 1.343 2.626 3.004 2.627z m28.098 1.102c4.566 0 6.174 1.192 6.173 1.192l1.012-5.796c-3.057-0.77-17.683-3.615-20.997 11.041-1.992 11.472 10.136 10.853 10.136 10.853s4.785 0 8.876-1.841l1.426-8.227-6.679-0.022-0.755 4.528s-4.151 1.109-5.683-2c-0.581-1.147-0.189-3.389-0.188-3.389s0.883-6.34 6.679-6.339z m24.226 7.788l-1.585 9.125h-5.947l0.415-2.378s-1.962 2.762-5.328 2.763c-4.906 0-3.925-4.943-3.925-4.944s0.4-4.234 5.676-5.124l4.875-0.536s0.596-1.819-2.286-1.819-5.758 1.562-5.759 1.562l0.755-4.354s3.894-1.411 7.509-1.231c7.623 0.038 5.6 6.936 5.6 6.936z m-6.339 1.947s-1.192 0.249-2.265 0.34c-1.698 0.257-1.909 1.374-1.939 1.532-0.287 1.66 1.479 1.434 1.479 1.434s1.872 0.068 2.551-2.34z m32.377-8.89c-3.864 0-5.781 2.747-5.781 2.747s-0.74-2.747-4.302-2.747c-3.555 0-5.706 2.838-5.706 2.838l0.423-2.423h-6.566l-2.725 15.653h6.566l1.578-9.064s0.528-2.211 2.287-2.212c1.751 0 1.328 2.242 1.328 2.242l-1.57 9.034h6.581l1.562-9.004s0.438-2.272 2.272-2.272c1.842 0 1.313 2.332 1.313 2.332l-1.585 8.936h6.627l1.819-10.475c0 0.008 1.004-5.585-4.121-5.585z m33.313-3.147c0 0.151 0.075 2.242-3.645 2.883-6.475 0.83-7.245 4.34-7.321 4.754-0.091 0.415 0.038 1.23-0.241 2.642a378.838 378.838 0 0 0-0.453 2.974H156.056s0.309 2.211 3.109 2.211 4.755-0.875 4.755-0.876l-0.657 4.046s-1.962 1.011-6.249 1.011c-0.679 0-8.415-0.015-6.988-8.234 0.687-3.955 4.204-8.264 10.324-8.264 2.868-0.015 3.019 1.004 5.789 1.004 2.34-0.06 4.302-2.302 4.302-2.302s0.709-1.132 1.283-2.415c0.453-0.619 1.268-1.947 3.879-1.676 2.189 0.4 2.189 2.091 2.189 2.242z m-18.641 7.139c-2.038 0-2.513 2.694-2.514 2.695h4s0.558-2.694-1.486-2.695z m21.071-11.494a1.351 1.351 0 1 0 0 2.702 1.351 1.351 0 0 0 0-2.702z"/></svg>