<svg fill="#DD6620" role="img" viewBox="0 0 23 24" xmlns="http://www.w3.org/2000/svg"><title>Coding Ninjas</title><path d="M22.698 0c-0.499 0.264-1.209 0.675-1.79 0.984a542.82 542.82 0 0 0 0 6.242c0.995-0.526 1.761-0.834 1.79-2.066V0zM8.243 0.181C6.798 0.144 5.113 0.65 3.97 1.414c-1.17 0.8-1.987 1.869-2.572 3.179A16.787 16.787 0 0 0 0.4 8.87c-0.15 1.483-0.128 3.079 0.025 4.677 0.27 1.855 0.601 3.724 1.616 5.456 1.57 2.62 4.313 4.109 7.262 4.19 3.41 0.246 7.233 0.53 11.411 0.807 0.022-2.005 0.01-5.418 0-6.25-3.206-0.21-7.398-0.524-11.047-0.782-0.443-0.043-0.896-0.056-1.324-0.172-1.086-0.295-1.806-0.802-2.374-1.757-0.643-1.107-0.875-2.832-0.797-4.294 0.11-1.27 0.287-2.41 1.244-3.44 0.669-0.56 1.307-0.758 2.161-0.84 5.17 0.345 7.609 0.53 12.137 0.858 0.032-1.133 0.01-3.46 0-6.229C16.061 0.752 12.276 0.474 8.243 0.181z m-0.281 9.7c0.174 0.675 0.338 1.305 0.729 1.903 0.537 0.832 1.375 1.127 2.388 0.877 0.76-0.196 1.581-0.645 2.35-1.282z m12.974 1.04l-5.447 0.689c0.799 0.739 1.552 1.368 2.548 1.703 0.988 0.319 1.78 0.01 2.308-0.777 0.209-0.329 0.56-1.148 0.591-1.614z m0.842 6.461c-0.388 0.01-0.665 0.198-0.87 0.355 0.002 1.798 0 4.127 0 6.223 0.586-0.297 1.135-0.644 1.793-0.998-0.005-1.454 0.002-3.137-0.005-4.707a0.904 0.904 0 0 0-0.917-0.873z"/></svg>