<svg fill="#2F2625" role="img" viewBox="0 0 30 24" xmlns="http://www.w3.org/2000/svg"><title>CoffeeScript</title><path d="M5.856 6.371c2.611 0.659 5.941 0.995 9.956 0.994 4.101 0 7.357-0.336 9.955-0.994 2.772-0.646 4.101-1.517 4.102-2.338 0-0.584-0.597-1.156-1.679-1.591 0.249 0.162 0.435 0.435 0.435 0.734 0 0.833-1.256 1.517-3.778 2.088-2.337 0.51-5.32 0.87-8.948 0.87-3.506 0-6.625-0.361-8.874-0.845-2.424-0.597-3.692-1.243-3.692-2.089 0-0.348 0.162-0.646 0.646-0.994-1.517 0.584-2.337 1.082-2.337 1.827 0.087 0.845 1.442 1.691 4.214 2.338z m5.83-2.686c2.822-0.249 3.641-2.062 6.947-2.361 1.629-0.124 2.66 0.199 2.772 0.771 0.099 0.535-0.709 0.895-1.691 0.97-1.355 0.137-1.915-0.348-2.026-0.808-1.007 0.112-1.169 0.535-1.119 0.833 0.112 0.572 1.33 1.144 3.419 0.945 2.362-0.186 3.158-1.119 2.958-2.052-0.249-1.218-2.064-2.238-5.32-1.927-4.176 0.373-4.151 2.312-6.997 2.549-1.169 0.112-1.815-0.162-1.927-0.622-0.075-0.46 0.497-0.684 1.169-0.733 0.622-0.062 1.38 0.05 1.74 0.249 0.261-0.137 0.348-0.274 0.323-0.436-0.124-0.435-0.982-0.622-2.063-0.547-2.113 0.186-2.113 1.131-2.039 1.554 0.211 1.082 1.84 1.803 3.854 1.617z m14.193 4.774c-2.611 0.609-5.941 1.006-9.955 1.006-4.103 0-7.445-0.423-10.043-0.995-2.337-0.597-3.58-1.256-4.015-1.939 0.224 1.529 0.609 3.009 1.106 4.413-0.597 0.373-1.131 0.833-1.616 1.455a5.618 5.618 0 0 0-1.267 3.851 4.475 4.474 0 0 0 1.765 3.257c1.082 0.845 2.25 1.094 3.58 0.846 0.51-0.087 1.082-0.348 1.603-0.522-1.094 0-2.014-0.348-2.934-1.082a4.413 4.412 0 0 1-1.852-3.008c-0.249-1.169 0-2.25 0.659-3.207 0.149-0.186 0.311-0.348 0.485-0.497 0.373 0.908 0.771 1.803 1.218 2.636 1.007 1.529 2.014 2.858 3.021 4.3 0.435 0.845 0.721 1.678 0.92 2.51a4.847 4.847 0 0 0 2.771 1.865c1.43 0.497 2.921 0.721 4.449 0.634h0.162a12.677 12.677 0 0 0 4.586-0.647 5.195 5.195 0 0 0 2.686-1.852h0.087c0.162-0.833 0.435-1.666 0.832-2.511 0.993-1.455 2.013-2.771 3.008-4.299A26.101 26.098 0 0 0 29.918 6.545c-0.535 0.746-1.79 1.405-4.04 1.914z"/></svg>