<svg fill="#1A4CA1" role="img" viewBox="0 0 112 24" xmlns="http://www.w3.org/2000/svg"><title>Cognizant</title><path d="M9.198 0.001C4.013 0.001 0.09 3.914 0.09 9.109c0 5.274 3.825 9.099 9.099 9.1 3.401 0 6.402-1.887 8.037-5.051l0.047-0.093-3.238-1.715-0.042 0.107c-0.96 2.036-2.74 3.196-4.874 3.197-3.089 0-5.498-2.437-5.498-5.554 0-3.196 2.399-5.6 5.577-5.6 2.059 0 3.625 0.969 4.66 2.874l0.046 0.103 3.113-1.99-0.056-0.088a8.88 8.88 0 0 0-7.763-4.398z m96.818 0.88v4.207h-2.175v3.136h2.166v4.081c0 4.156 1.328 5.535 5.381 5.536h0.504v-3.267c-2.139 0-2.399-0.308-2.4-2.297v-4.053H111.91v-3.136h-2.399v-4.207z m-45.93 0.009v3.169h3.495v-3.169z m-22.024 3.937c-2.884 0-6.197 2.125-6.197 6.64 0 4.487 3.438 6.625 6.127 6.634 1.659 0 3.014-0.69 3.853-1.686v1.197c0 1.659-1.197 3.136-3.084 3.136a3.737 3.737 0 0 1-3.546-2.167l-3.084 1.738c1.025 1.994 3.401 3.681 6.639 3.681 4.314 0 6.583-2.912 6.584-6.509v-12.403h-3.495v1.375a4.985 4.985 0 0 0-3.797-1.631z m44.724 0c-2.884 0-6.201 2.125-6.202 6.64 0 4.487 3.443 6.625 6.15 6.634 1.659 0 3.01-0.69 3.849-1.686v1.435h3.494v-12.762h-3.494v1.24c-0.839-0.885-2.139-1.5-3.797-1.501z m-29.046 0.01a4.384 4.384 0 0 0-3.522 1.686v-1.435h-3.466v12.762h3.494V10.88c0-2.143 1.1-3.056 2.423-3.057 1.556 0 2.353 0.997 2.353 2.707v7.315h3.541v-7.781c0-3.289-1.812-5.228-4.823-5.227z m44.738 0a4.384 4.384 0 0 0-3.518 1.686v-1.435h-3.466l-0.01 12.762h3.495V10.88c0-2.143 1.1-3.056 2.423-3.057 1.565 0 2.353 0.997 2.352 2.707v7.315h3.541v-7.781c0-3.289-1.803-5.228-4.817-5.227z m-74.081 0.046a6.616 6.616 0 0 0-6.63 6.584l-0.01 0.046a6.616 6.616 0 1 0 6.64-6.63z m40.553 0.205v3.085h6.616l-6.709 6.56v3.117h11.527v-3.094h-6.84l6.709-6.532v-3.136z m-4.915 0.038v12.756h3.494v-12.756z m-21.339 2.898c1.892 0 3.271 1.528 3.271 3.415 0 1.887-1.379 3.443-3.267 3.443a3.355 3.355 0 0 1-3.415-3.443c0-1.966 1.477-3.415 3.415-3.415z m44.719 0c1.887 0 3.261 1.528 3.261 3.415 0.014 1.887-1.365 3.443-3.261 3.443a3.355 3.355 0 0 1-3.416-3.443c0-1.966 1.486-3.425 3.416-3.415z m-59.037 0.121c1.78 0 3.215 1.514 3.215 3.322a3.28 3.28 0 0 1-3.215 3.317c-1.808 0-3.187-1.5-3.187-3.317 0-1.817 1.379-3.322 3.187-3.322z"/></svg>