<svg fill="#0052FF" role="img" viewBox="0 0 135 24" xmlns="http://www.w3.org/2000/svg"><title>Coinbase</title><path d="M27.448 6.7c-4.881 0-8.692 3.705-8.692 8.664s3.716 8.631 8.692 8.63c4.976 0 8.754-3.733 8.753-8.658 0-4.897-3.716-8.636-8.753-8.636z m0.033 13.724c-2.782 0-4.813-2.16-4.813-5.06 0-2.927 1.998-5.088 4.78-5.088 2.81 0 4.847 2.194 4.847 5.093 0 2.894-2.037 5.054-4.814 5.055z m9.79-9.952h2.423v13.209h3.879V7.019H37.271z m-28.277-0.196c2.037 0 3.655 1.254 4.265 3.123h4.109c-0.744-3.991-4.041-6.7-8.34-6.699-4.881 0-8.692 3.705-8.692 8.664 0 4.965 3.716 8.636 8.692 8.636 4.198 0 7.562-2.709 8.306-6.733h-4.075a4.366 4.366 0 0 1-4.231 3.157c-2.81 0-4.785-2.16-4.785-5.06 0-2.927 1.942-5.088 4.757-5.088z m101.95 3.481l-2.843-0.419c-1.354-0.196-2.323-0.644-2.323-1.707 0-1.159 1.259-1.735 2.966-1.735 1.881 0 3.078 0.8 3.331 2.121h3.75c-0.42-3.353-3.006-5.317-6.98-5.317-4.103 0-6.817 2.099-6.817 5.059 0 2.832 1.774 4.478 5.362 4.993l2.843 0.42c1.394 0.19 2.166 0.739 2.166 1.768 0 1.321-1.354 1.869-3.229 1.87-2.295 0-3.588-0.935-3.784-2.351h-3.811c0.358 3.252 2.91 5.541 7.556 5.541 4.237 0 7.052-1.937 7.052-5.25 0-2.966-2.037-4.511-5.239-4.993zM41.631 0.162a2.401 2.401 0 0 0-2.485 2.446c0 1.422 1.063 2.451 2.485 2.452a2.401 2.401 0 0 0 2.49-2.452 2.401 2.401 0 0 0-2.49-2.446z m56.904 12.566c0-3.61-2.194-6.022-6.85-6.023-4.394 0-6.851 2.222-7.332 5.636h3.845c0.196-1.321 1.231-2.418 3.425-2.417 1.97 0 2.938 0.868 2.939 1.93 0 1.388-1.774 1.741-3.974 1.965-2.972 0.325-6.66 1.354-6.661 5.222 0 2.994 2.239 4.925 5.788 4.925 2.782 0 4.528-1.159 5.401-2.994 0.129 1.64 1.354 2.703 3.067 2.703h2.261v-3.447h-1.903v-7.5z m-3.806 4.186c0 2.222-1.942 3.862-4.304 3.862-1.455 0-2.687-0.616-2.686-1.903 0-1.64 1.976-2.088 3.783-2.283 1.746-0.157 2.715-0.543 3.202-1.288z m-20.591-10.214c-2.16 0-3.974 0.907-5.261 2.418V0h-3.879v23.675h3.806v-2.188c1.299 1.578 3.134 2.513 5.334 2.513 4.657 0 8.177-3.672 8.177-8.636 0-4.959-3.582-8.664-8.171-8.664z m-0.576 13.724c-2.782 0-4.813-2.16-4.814-5.06 0-2.894 2.065-5.088 4.842-5.088 2.815 0 4.785 2.16 4.785 5.093 0 2.894-2.037 5.054-4.813 5.055z m-17.838-13.724c-2.519 0-4.17 1.03-5.144 2.479v-2.155H46.735v16.651h3.879v-9.05c0-2.547 1.618-4.349 4.007-4.349 2.228 0 3.621 1.578 3.622 3.862v9.537h3.873v-9.822c0-4.187-2.16-7.153-6.392-7.153zM134.664 14.815c0-4.763-3.493-8.116-8.171-8.115-4.981 0-8.631 3.739-8.631 8.664 0 5.188 3.907 8.636 8.692 8.636 4.041 0 7.203-2.384 8.015-5.765h-4.041c-0.582 1.478-2.004 2.317-3.912 2.317-2.491 0-4.366-1.545-4.78-4.253H134.664v-1.478z m-12.604-1.287c0.616-2.317 2.362-3.442 4.365-3.442 2.194 0 3.879 1.254 4.265 3.442Z"/></svg>