<svg fill="#79BD42" role="img" viewBox="0 0 34 24" xmlns="http://www.w3.org/2000/svg"><title>ComicFury</title><path d="M0.454 5.049l2.618-4.489 3.758 3.772 4.099-0.281L13.277 0l3.052 3.713 11.933-0.347 0.56-1.496L33.546 2.525v7.263l-15.509 4.862-1.496 9.35H0.454V5.049z m3.027-1.031L1.889 6.674l2.413 2.41 1.563-2.686-2.384-2.38z m10.215-0.618L12.147 5.859l1.687 2.203 1.568-2.435-1.706-2.227z m5.379 5.172l-2.746 0.481 1.374 2.793 1.372-3.274z m4.576-0.779l-2.746 0.48 1.373 2.792 1.373-3.272z m4.451-0.842l-2.745 0.481 1.373 2.792 1.372-3.273z m4.389-0.781l-2.746 0.481 1.373 2.793 1.373-3.274z"/></svg>