<svg fill="#FFCC33" role="img" viewBox="0 0 28 24" xmlns="http://www.w3.org/2000/svg"><title>Commerzbank</title><path d="M7.436 0a0.021 0.021 0 0 0-0.014 0.008l-5.437 9.417-1.603 2.773c0.512 0.888 0.911 1.552 1.399 2.398 0.77 1.335 1.776 1.832 3.59 2.166a14.796 14.796 0 0 1 0.8-1.596l3.192-5.533 3.195-5.536c0.463-0.805 1.487-2.458 2.948-3.401-0.046 0.029-0.08 0.068-0.125 0.098 0.08-0.054 0.157-0.108 0.24-0.156 0.528-0.319 1.124-0.536 1.62-0.591 0.389-0.044 1.68-0.047 3.143-0.047z m13.293 0.579c-1.202-0.009-1.677 0.008-2.919 0.009-1.594 0-2.731 1.017-3.536 2.034 0.427 0.565 0.78 1.114 0.99 1.477a15321.267 15321.267 0 0 0 6.39 11.067c0.463 0.803 1.387 2.519 1.473 4.255 0.033 0.658-0.091 1.336-0.304 1.826-0.15 0.344-0.748 1.384-1.441 2.584L27.764 12.778v-0.01a0.015 0.015 0 0 0-0.002-0.005zM0.237 7.599l0.109 5.673L0.236 7.599z m0.107 5.673l1.298 2.253 4.891 8.469a0.017 0.017 0 0 0 0.014 0.006h14.068c0.512-0.894 0.762-1.316 1.504-2.617 0.813-1.425 0.319-3.075-0.043-3.983-0.709 0.087-1.353 0.107-1.774 0.107H7.519c-0.928 0-2.873-0.057-4.419-0.85-0.588-0.302-1.115-0.746-1.431-1.178-0.202-0.273-0.717-1.15-1.326-2.207z"/></svg>