<svg fill="#000000" role="img" viewBox="0 0 41 24" xmlns="http://www.w3.org/2000/svg"><title>commitlint</title><path d="M13.793 0v1.506h3.084v10.594c0 1.352 0.313 2.396 0.941 3.135 0.634 0.732 1.526 1.098 2.675 1.098h2.438v-1.621H20.684c-0.619 0-1.09-0.217-1.411-0.657-0.313-0.44-0.47-1.09-0.47-1.956V0.002ZM6.221 4.34c-1.812 0-3.232 0.543-4.256 1.632C0.947 7.058 0.439 8.563 0.439 10.489c0 1.923 0.508 3.429 1.526 4.517 1.025 1.087 2.444 1.632 4.256 1.632a6.135 6.135 0 0 0 1.672-0.23c0.552-0.147 1.087-0.369 1.602-0.668V13.739c-0.453 0.433-0.945 0.752-1.475 0.963a5.015 5.015 0 0 1-1.799 0.301c-1.199 0-2.126-0.388-2.781-1.171-0.647-0.786-0.973-1.902-0.973-3.345 0-1.451 0.326-2.566 0.973-3.347 0.649-0.781 1.576-1.17 2.781-1.17 0.649 0 1.227 0.1 1.736 0.302a5.183 5.183 0 0 1 1.538 0.984V5.239a7.113 7.113 0 0 0-1.622-0.678 6.252 6.252 0 0 0-1.652-0.221Zm21.491 10.236v1.886H40.561V14.575z m5.276 3.77l-3.848 5.654h2.173l2.832-3.685 2.815 3.685h2.174l-3.847-5.654z"/></svg>