<svg fill="#C8202F" role="img" viewBox="0 0 110 24" xmlns="http://www.w3.org/2000/svg"><title>CompTIA</title><path d="M54.218 10.658v8.477a2.782 2.782 0 0 1-2.753-2.808v-5.659a2.621 2.621 0 0 0-5.23 0v8.467a2.74 2.74 0 0 1-2.745-2.736v-5.731a2.63 2.63 0 0 0-5.242 0v5.689a2.782 2.782 0 0 1-2.745 2.778V10.668c0.044-2.907 2.437-5.227 5.344-5.182h0.006c1.515-0.021 2.968 0.596 4.006 1.699a5.378 5.378 0 0 1 3.972-1.699c2.916-0.059 5.328 2.256 5.387 5.172z m32.106-10.488v16.306a2.732 2.732 0 0 0 2.749 2.659v-16.305a2.732 2.732 0 0 0-2.749-2.66zM109.916 18.983c-1.483 0.123-3.089-0.319-3.666-1.572l-1.457-3.136h-9.751l-1.444 3.22c-0.684 1.275-2.49 1.678-3.879 1.679l7.953-17.419a2.422 2.422 0 0 1 2.18-1.572 2.456 2.456 0 0 1 2.201 1.572L109.916 18.983z m-6.296-7.406l-3.688-8.087-3.679 8.087h7.367z m-87.711 2.923a8.449 8.449 0 0 1-5.408 2.001c-4.262 0-7.729-3.123-7.728-6.925s3.48-6.891 7.728-6.891c2.293 0.001 4.485 0.94 6.067 2.6a2.66 2.66 0 0 0 3.394 0.379c-1.657-3.433-5.383-5.664-9.47-5.664C4.757 0 0.084 4.295 0.084 9.585c0 5.289 4.656 9.589 10.408 9.589a10.913 10.913 0 0 0 5.897-1.7c1.192-0.741 2.207-1.734 2.974-2.91a2.694 2.694 0 0 0-3.454-0.064z m52.308-11.619h5.893v13.506a2.702 2.702 0 0 0 2.621 2.748h0.128v-16.254h5.876a2.719 2.719 0 0 0 2.714-2.715h-19.908a2.702 2.702 0 0 0 2.676 2.715z m-33.457 9.457c0 3.828-3.322 6.797-7.554 6.797-4.248 0-7.553-2.974-7.553-6.797s3.318-6.84 7.553-6.84c4.236 0 7.554 3.013 7.554 6.84z m-2.749-0.013c0-2.29-2.124-4.091-4.805-4.091-2.689 0-4.809 1.797-4.809 4.091 0 2.294 2.125 4.062 4.809 4.062s4.805-1.771 4.806-4.062z m31.108-6.865c-4.35 0-7.503 2.944-7.503 6.946v11.594a2.728 2.728 0 0 0 2.753-2.681v-8.922c0-2.889 2.362-4.197 4.75-4.197 2.511 0 4.49 1.822 4.491 4.142 0 2.231-1.98 4.006-4.491 4.006-1.687 0-2.953-0.425-3.722-1.274v0.025a3.434 3.434 0 0 0-0.174 0.489 2.728 2.728 0 0 0 1.882 3.314c0.669 0.144 1.351 0.212 2.035 0.204 4.066 0 7.235-2.978 7.201-6.755a6.703 6.703 0 0 0-2.124-4.92 7.514 7.514 0 0 0-5.098-1.971z"/></svg>