<svg fill="#368CCB" role="img" viewBox="0 0 263 24" xmlns="http://www.w3.org/2000/svg"><title>Comsol</title><path d="M170.266 2.479c-1.219 1.425-1.516 3.293-1.516 4.243l3.258-0.001c0-1.616 1.009-2.523 1.62-2.973 0.413-0.305 1.558-0.861 2.582-0.861 1.608 0 3.657 0.001 3.657 0h13.384l0.002 0.001c0.794 0 1.437-0.645 1.438-1.438 0-0.794-0.643-1.439-1.438-1.439h-12.718c-1.884 0-2.96-0.011-4.715-0.011-2.525 0-4.298 1.01-5.554 2.479m51.723-2.468h-9.826s-11.733-0.617-11.733 11.987c0 12.607 11.733 11.99 11.733 11.99h9.826s11.731 0.617 11.731-11.99c0-11.481-9.733-11.992-11.469-11.992-0.17 0-0.263 0.005-0.262 0.005m-18.407 11.987s-0.721-9.112 8.837-9.112h9.313c9.556 0 8.836 9.112 8.836 9.112s0.72 9.112-8.836 9.112h-9.313c-9.559 0-8.838-9.112-8.837-9.112m-93.067-11.987h-9.825s-11.733-0.617-11.733 11.987c0 12.607 11.733 11.99 11.733 11.99h9.825s11.73 0.617 11.731-11.99c0-11.481-9.732-11.992-11.468-11.992-0.169 0-0.262 0.005-0.262 0.005m-18.408 11.987s-0.721-9.112 8.838-9.112h9.314c9.556 0 8.837 9.112 8.836 9.112s0.72 9.112-8.836 9.112h-9.314c-9.559 0-8.838-9.112-8.838-9.112m-36.276 0.002c0 12.607 11.732 11.99 11.733 11.99h15.825c0.022 0.001 0.033 0.005 0.055 0.005 0.794 0 1.438-0.644 1.438-1.438 0-0.794-0.644-1.439-1.438-1.439v-0.006H67.825c-9.559 0-8.838-9.112-8.838-9.112s-0.721-9.112 8.838-9.112h15.617s0.001 0.001 0.003 0.001c0.794 0 1.438-0.645 1.438-1.438 0-0.794-0.644-1.439-1.438-1.439H67.567s-0.099-0.005-0.264-0.005c-1.735 0-11.469 0.512-11.468 11.993m-28.565-11.992c-1.926 0-3.487 1.562-3.487 3.487v17.006c0 1.926 1.561 3.487 3.487 3.487h13.52c1.925 0 3.487-1.561 3.487-3.487v-17.006c0-1.925-1.562-3.487-3.487-3.487z m-23.756 0c-1.926 0-3.487 1.562-3.487 3.486l0 0.004c0 0.004-0.001 0.007 0 0.011 0 0.828 0.299 1.579 0.779 2.178l0.011 0.044 13.501 16.991 0.033 0.011c0.643 0.759 1.59 1.25 2.661 1.25 0.004 0 0.008-0.001 0.011-0.001l0.003 0.001c1.926 0 3.487-1.561 3.487-3.486v-17.007c0-1.925-1.562-3.487-3.487-3.487z m235.477 1.443h-0.001v22.546h22.546v-0.002c0.794 0 1.437-0.644 1.437-1.438 0-0.793-0.643-1.439-1.437-1.439H241.866v-19.667c0-0.794-0.644-1.439-1.438-1.439-0.794 0-1.437 0.644-1.437 1.439m-78.665-0.964l-0.005-0.006-15.294 15.293-15.446-15.444-0.011 0.011c-0.249-0.205-0.562-0.332-0.909-0.332-0.794 0-1.437 0.644-1.437 1.439h-0.002v22.545h2.877v-19.081l13.918 13.916c0.066 0.055 0.125 0.099 0.187 0.141 0.044 0.022 0.077 0.044 0.123 0.077 0.044 0.022 0.077 0.044 0.12 0.065 0.022 0.01 0.044 0.022 0.065 0.033 0.423 0.173 0.798 0.11 1.071-0.011 0.01-0.004 0.022-0.01 0.033-0.011 0.077-0.033 0.142-0.066 0.198-0.109 0.011-0.009 0.033-0.022 0.044-0.033 0.127-0.088 0.198-0.161 0.198-0.161v0.002l13.896-13.895v19.074h2.878v-22.545h-0.002c0-0.794-0.643-1.439-1.436-1.44-0.423 0-0.798 0.185-1.062 0.475m8.427 6.235c0 0.95 0.298 2.819 1.516 4.244 1.256 1.468 3.028 2.48 5.554 2.48 1.755 0 2.831-0.011 4.714-0.011h0.179v0.003h8.086c1.024 0 2.169 0.557 2.583 0.861 0.61 0.448 1.618 1.355 1.618 2.972h3.259c0-0.947-0.297-2.817-1.515-4.243-1.256-1.469-3.029-2.48-5.556-2.48-1.755 0-2.831 0.011-4.713 0.011h-0.18v-0.003h-8.085c-1.024 0-2.169-0.555-2.582-0.861-0.61-0.449-1.619-1.357-1.62-2.974z m24.25 10.55c0 1.615-1.008 2.523-1.618 2.971-0.414 0.307-1.559 0.861-2.583 0.862-1.607 0-3.658-0.002-3.658 0h-14.953v0.011c-0.794 0-1.438 0.644-1.438 1.438 0 0.794 0.644 1.437 1.438 1.438 0.044 0 0.077-0.009 0.121-0.011h14.167c1.883 0 2.958 0.011 4.713 0.011 2.526 0 4.299-1.011 5.555-2.48 1.219-1.426 1.516-3.295 1.516-4.245z"/></svg>