<svg fill="#3398DC" role="img" viewBox="0 0 25 24" xmlns="http://www.w3.org/2000/svg"><title>Concourse</title><path d="M24.707 11.23c-0.042-0.496-0.125-0.981-0.24-1.466-0.052-0.248-0.136-0.485-0.198-0.733l-0.115-0.341-0.062-0.165-0.073-0.186c-0.177-0.454-0.396-0.888-0.647-1.311a9.997 9.997 0 0 0-1.607-2.075l-0.094-0.093-0.042-0.052-0.073-0.062c-0.063-0.062-0.125-0.114-0.187-0.175-0.063-0.052-0.125-0.114-0.178-0.165-0.073-0.062-0.136-0.114-0.209-0.165l-0.166-0.135-0.084-0.062-0.021-0.02-0.052-0.042-0.01-0.01-0.042-0.031c-0.104-0.072-0.198-0.134-0.292-0.196-0.167-0.114-0.292-0.207-0.386-0.268 0.104-0.392 0.188-0.795 0.25-1.198 0.104-0.609 0.532-1.869-0.344-2.23-0.824-0.341-1.899 1.208-1.899 1.208-2.16 2.488-3.464 5.585-3.756 8.848 0.543 0.114 1.064 0.351 1.502 0.691h0.011C16.767 9.743 17.686 8.546 18.416 7.245c0.699 0.433 1.315 0.991 1.805 1.652l0.073 0.093 0.073 0.113 0.146 0.227c0.084 0.145 0.177 0.279 0.25 0.434 0.323 0.599 0.553 1.239 0.689 1.9 0.063 0.31 0.104 0.62 0.125 0.939a5.873 5.873 0 0 1 0 0.857c-0.011 0.237-0.042 0.485-0.083 0.723a4.731 4.731 0 0 1-0.115 0.557c-0.083 0.299-0.136 0.475-0.136 0.475s0.073-0.165 0.199-0.454c0.052-0.145 0.125-0.33 0.187-0.547 0.073-0.237 0.136-0.485 0.178-0.723 0.052-0.289 0.094-0.589 0.115-0.888a8.018 8.018 0 0 0 0-1.001c-0.021-0.361-0.073-0.723-0.146-1.074a9.269 9.269 0 0 0-0.314-1.084c-0.063-0.175-0.146-0.361-0.229-0.537l-0.115-0.237-0.062-0.124-0.032-0.134c-0.177-0.33-0.386-0.64-0.615-0.94-0.396-0.527-0.866-0.991-1.388-1.404 0.156-0.351 0.313-0.712 0.438-1.084l0.063 0.031 0.313 0.165 0.042 0.021 0.01 0.01c0.042 0.031-0.063-0.041-0.052-0.031l0.021 0.01 0.083 0.052 0.178 0.114 0.094 0.062 0.052 0.031 0.021 0.02h0.01c0.011 0.01-0.052-0.041-0.031-0.02l0.01 0.01c0.063 0.052 0.125 0.093 0.198 0.144l0.209 0.155 0.031 0.021c-0.042-0.031-0.011-0.01-0.021-0.021h0.011l0.01 0.011 0.052 0.041 0.105 0.082a8.998 8.998 0 0 1 2.285 2.798l0.073 0.145 0.073 0.165 0.156 0.32c0.084 0.207 0.177 0.413 0.24 0.63 0.303 0.857 0.48 1.766 0.511 2.674 0.01 0.217 0.01 0.433 0.011 0.65 0 0.217-0.021 0.423-0.031 0.62-0.031 0.382-0.094 0.754-0.178 1.135-0.073 0.32-0.156 0.63-0.261 0.94-0.083 0.279-0.188 0.516-0.26 0.712-0.083 0.196-0.156 0.341-0.199 0.444-0.052 0.103-0.073 0.155-0.073 0.155s0.031-0.052 0.094-0.145c0.052-0.093 0.146-0.237 0.251-0.423 0.094-0.186 0.219-0.413 0.334-0.681 0.136-0.299 0.261-0.609 0.354-0.929 0.125-0.372 0.219-0.754 0.303-1.146 0.042-0.207 0.083-0.423 0.104-0.641a6.97 6.97 0 0 0 0.063-0.671c0.031-0.465 0.031-0.939-0.011-1.414z m-13.05 0.713a15.652 15.652 0 0 0-4.531-0.637c0.041-0.82 0.248-1.619 0.599-2.358l0.052-0.102 0.062-0.121 0.123-0.233c0.083-0.142 0.155-0.283 0.258-0.415 0.371-0.557 0.826-1.052 1.342-1.477 0.237-0.202 0.495-0.385 0.764-0.547 0.237-0.152 0.495-0.283 0.753-0.404a7.729 7.729 0 0 1 0.671-0.274c0.206-0.081 0.392-0.121 0.536-0.162 0.299-0.071 0.485-0.111 0.485-0.111s-0.175 0.01-0.495 0.051c-0.155 0.02-0.351 0.04-0.568 0.091a8.356 8.356 0 0 0-0.722 0.182c-0.279 0.091-0.557 0.192-0.836 0.314-0.31 0.132-0.599 0.293-0.877 0.465-0.31 0.192-0.599 0.395-0.877 0.628-0.289 0.243-0.557 0.496-0.805 0.779-0.124 0.132-0.248 0.293-0.372 0.445l-0.154 0.213-0.073 0.111-0.082 0.121c-0.196 0.304-0.382 0.628-0.527 0.962a7.113 7.113 0 0 0-0.577 1.882v0.03c-0.371 0.03-0.743 0.081-1.115 0.142v-0.192-0.405c0.01-0.051-0.01 0.071-0.01 0.061V10.951c0-0.03 0.01-0.061 0.01-0.101 0.01-0.071 0.01-0.132 0.021-0.202 0-0.04 0.01-0.071 0.01-0.112v-0.091c0-0.01-0.01 0.071-0.01 0.031v-0.01c0.01-0.071 0.021-0.152 0.031-0.233 0.01-0.081 0.021-0.162 0.041-0.243v-0.03c-0.01 0.051 0 0.01-0.01 0.02v-0.031l0.01-0.06 0.021-0.132c0.258-1.164 0.722-2.277 1.393-3.258l0.093-0.132 0.103-0.142 0.216-0.283c0.145-0.162 0.279-0.344 0.444-0.506 0.609-0.658 1.321-1.235 2.105-1.69a6.084 6.084 0 0 1 0.568-0.304c0.186-0.101 0.382-0.182 0.557-0.263 0.351-0.152 0.712-0.273 1.073-0.384 0.31-0.091 0.629-0.162 0.95-0.223 0.289-0.061 0.537-0.081 0.743-0.111 0.206-0.02 0.371-0.03 0.485-0.041h0.165l-0.175-0.01c-0.114 0-0.279-0.01-0.485-0.01-0.206 0.01-0.464 0-0.764 0.03-0.33 0.03-0.66 0.071-0.98 0.132-0.392 0.071-0.774 0.162-1.146 0.283a8.824 8.824 0 0 0-0.609 0.213c-0.206 0.071-0.413 0.162-0.619 0.263-0.433 0.202-0.846 0.425-1.249 0.678-0.413 0.263-0.805 0.567-1.176 0.89-0.186 0.152-0.371 0.344-0.547 0.517l-0.237 0.263-0.124 0.131-0.124 0.152c-0.31 0.364-0.599 0.759-0.846 1.164-0.454 0.729-0.815 1.518-1.063 2.338l-0.041 0.121-0.021 0.061-0.021 0.091-0.062 0.243c-0.021 0.081-0.041 0.152-0.061 0.233-0.021 0.091-0.031 0.172-0.052 0.253-0.01 0.071-0.031 0.142-0.041 0.202-0.01 0.03-0.01 0.061-0.021 0.101v0.031l-0.01 0.06v0.061c-0.01 0.121-0.021 0.233-0.042 0.344-0.031 0.314-0.052 0.516-0.062 0.607-0.361 0.091-0.722 0.202-1.073 0.324 0 0-1.889 0.435-1.785 1.346 0.103 0.86 1.961 1.032 1.961 1.032 3.209 0.648 6.542 0.293 9.535-1.012-0.155-0.526-0.196-1.073-0.103-1.609z m4.499 1.977c-0.372 0.417-0.826 0.74-1.343 0.948v0.011c0.392 1.511 1.002 2.949 1.808 4.283-0.713 0.375-1.477 0.625-2.272 0.73l-0.114 0.01-0.134 0.011-0.269 0.021c-0.165 0-0.33 0.01-0.495 0-0.682-0.01-1.353-0.125-1.993-0.344-0.299-0.094-0.599-0.219-0.878-0.355-0.258-0.125-0.506-0.261-0.744-0.417-0.207-0.135-0.403-0.271-0.588-0.427-0.176-0.135-0.31-0.271-0.434-0.375-0.227-0.219-0.351-0.354-0.351-0.354s0.103 0.146 0.299 0.396c0.103 0.125 0.227 0.271 0.382 0.427 0.176 0.188 0.351 0.354 0.548 0.521 0.227 0.198 0.465 0.375 0.712 0.542 0.279 0.188 0.568 0.354 0.868 0.5 0.32 0.156 0.661 0.292 1.001 0.407 0.361 0.115 0.723 0.198 1.095 0.26 0.186 0.031 0.382 0.052 0.578 0.073l0.269 0.021 0.134 0.01h0.155c0.372 0 0.744-0.021 1.115-0.073 0.63-0.083 1.249-0.25 1.849-0.489 0.227 0.313 0.465 0.615 0.712 0.906-0.01 0.01-0.021 0.01-0.031 0.021l-0.299 0.188-0.041 0.021-0.011 0.01c-0.052 0.021 0.062-0.031 0.052-0.021h-0.01l-0.021 0.011c-0.031 0.01-0.062 0.031-0.093 0.041l-0.186 0.094-0.103 0.052-0.052 0.032-0.02 0.01h-0.011c-0.01 0 0.062-0.031 0.031-0.01l-0.01 0.01-0.217 0.094c-0.072 0.031-0.155 0.062-0.227 0.104l-0.031 0.01c0.052-0.021 0.01 0 0.02-0.01h-0.01l-0.01 0.01-0.062 0.021-0.124 0.052a8.957 8.957 0 0 1-3.552 0.605l-0.155-0.011-0.176-0.01-0.361-0.031c-0.217-0.031-0.444-0.052-0.672-0.105-0.899-0.167-1.766-0.459-2.581-0.885-0.196-0.104-0.382-0.208-0.568-0.313-0.186-0.104-0.351-0.229-0.527-0.344-0.31-0.219-0.62-0.459-0.898-0.709-0.248-0.219-0.475-0.448-0.692-0.688-0.206-0.208-0.351-0.417-0.486-0.583-0.134-0.167-0.217-0.302-0.289-0.396l-0.103-0.146s0.031 0.052 0.083 0.146c0.062 0.094 0.134 0.25 0.247 0.427 0.114 0.177 0.248 0.396 0.434 0.636 0.196 0.271 0.413 0.531 0.63 0.771 0.268 0.292 0.547 0.573 0.847 0.823 0.165 0.135 0.33 0.281 0.506 0.407 0.176 0.135 0.361 0.271 0.558 0.396a11.281 11.281 0 0 0 1.249 0.698c0.454 0.208 0.919 0.386 1.394 0.521 0.237 0.073 0.496 0.125 0.744 0.188l0.351 0.062 0.175 0.032 0.197 0.031c0.485 0.063 0.971 0.094 1.456 0.094 0.878-0.011 1.745-0.136 2.592-0.365l0.124-0.031 0.062-0.021 0.093-0.031c0.083-0.031 0.165-0.052 0.237-0.084l0.227-0.073 0.248-0.094c0.072-0.031 0.134-0.052 0.196-0.072 0.031-0.01 0.062-0.021 0.093-0.042l0.021-0.011h0.01l0.062-0.031 0.01-0.01 0.042-0.021 0.31-0.156c0.165-0.083 0.289-0.146 0.392-0.188 0.268 0.261 0.537 0.511 0.826 0.74 0 0 1.353 1.407 2.097 0.834 0.702-0.542-0.103-2.251-0.104-2.251-1.074-3.085-3.108-5.795-5.793-7.692z m-0.056-1.44a1.92 1.92 0 0 1-1.92 1.92 1.92 1.92 0 0 1-1.92-1.92 1.92 1.92 0 0 1 1.92-1.92 1.92 1.92 0 0 1 1.92 1.92Z"/></svg>