<svg fill="#000000" role="img" viewBox="0 0 47 24" xmlns="http://www.w3.org/2000/svg"><title>Conda-Forge</title><path d="M16.078 0l0.01 0.775H13.238l0.012 1.281v0.01l-13.22 0.004v0.412L0.026 4.122l0.039 0.08c0.415 0.914 1.297 1.762 2.459 2.568 1.162 0.804 2.611 1.557 4.196 2.211 3.169 1.299 6.85 2.191 9.793 2.151 1.459-0.02 2.475 0.446 3.169 1.315 0.667 0.833 0.998 2.136 1.025 3.756L15.558 20.291l0.016 3.709H39.716l-0.007-3.443-5.145-4.342c0.108-3.938 1.385-6.735 3.476-8.617 2.126-1.915 5.106-2.915 8.548-3.161l0.382-0.03L46.974 0.012z m0.832 0.825l29.236 0.012-0.007 2.85c-3.398 0.303-6.436 1.303-8.654 3.296-1.784 1.608-2.803 4.034-3.308 6.913l-3.163 0.008 0.003 0.826 3.003-0.008c-0.053 0.442-0.221 0.782-0.24 1.252l-1.747-0.006-0.004 0.826 1.946 0.007 4.182 3.525-5.753 0.004c-1.416-1.32-3.036-2.183-4.726-2.265-1.598-0.078-3.204 0.634-4.669 2.034l-5.825-0.047 4.397-3.483v-0.2c0.004-1.845-0.391-3.365-1.252-4.438-0.775-0.97-1.97-1.465-3.406-1.546l-0.015-8.783h0.015z m-2.837 0.775h2.007l0.016 8.615c-2.713-0.039-6.113-0.79-9.059-2.001-1.539-0.634-2.948-1.365-4.041-2.125C1.92 5.348 1.174 4.572 0.856 3.901v-1.006l12.394-0.004v4.225h0.825v-4.225h0.008l-0.008-0.851v-0.442z m13.566 17.291c1.467 0.072 2.94 0.853 4.265 2.108l-0.004 2.176h-8.5l-0.012-2.348c1.381-1.403 2.823-2.007 4.251-1.936zM16.38 20.874l6.181 0.045 0.012 2.256h-6.182z m22.495 0.278l0.004 2.023h-6.158V21.154z"/></svg>