<svg fill="#0A1837" role="img" viewBox="0 0 23 24" xmlns="http://www.w3.org/2000/svg"><title>Conekta</title><path d="M11.791 17.883a11.733 11.733 0 0 1-6.174 3.034 2.46 2.46 0 0 1-2.165-0.746c-4.247-4.626-4.247-11.732 0-16.358a2.46 2.46 0 0 1 2.173-0.746 11.668 11.668 0 0 1 6.289 3.14 27.166 27.166 0 0 0-0.697 6.101 27.776 27.776 0 0 0 0.574 5.575z m9.897-3.938a1.394 1.394 0 0 0-1.525 0.527 24.68 24.68 0 0 1-11.914 8.938 35.442 35.442 0 0 0 6.429 0.59 36.286 36.286 0 0 0 4.46-0.279 3.6 3.6 0 0 0 3.034-2.698c0.469-1.884 0.645-3.884 0.517-5.813a1.394 1.394 0 0 0-1.001-1.265z m-1.525-4.335a1.394 1.394 0 0 0 2.526-0.746c0.135-1.97-0.044-3.969-0.517-5.888A3.6 3.6 0 0 0 19.138 0.279 36.268 36.268 0 0 0 14.678 0a35.434 35.434 0 0 0-6.429 0.59 24.64 24.64 0 0 1 11.914 9.02z"/></svg>