<svg fill="#172B4D" role="img" viewBox="0 0 25 24" xmlns="http://www.w3.org/2000/svg"><title>Confluence</title><path d="M1.095 18.412c-0.254 0.391-0.543 0.897-0.782 1.276a0.783 0.783 0 0 0 0.261 1.066l5.088 3.129a0.783 0.783 0 0 0 1.084-0.266c0.204-0.34 0.465-0.782 0.751-1.251 2.016-3.327 4.043-2.924 7.695-1.175l5.079 2.395a0.783 0.783 0 0 0 1.054-0.391l2.422-5.479a0.783 0.783 0 0 0-0.391-1.025 614.717 614.717 0 0 1-5.088-2.419C11.384 10.944 5.557 11.165 1.095 18.412zM23.907 5.588c0.255-0.415 0.544-0.897 0.783-1.281a0.783 0.783 0 0 0-0.262-1.06L19.341 0.117a0.783 0.783 0 0 0-1.084 0.266c-0.2 0.343-0.462 0.782-0.753 1.255-2.015 3.326-4.043 2.921-7.694 1.175L4.75 0.414a0.783 0.783 0 0 0-1.052 0.391L1.275 6.284a0.783 0.783 0 0 0 0.391 1.025c1.065 0.502 3.182 1.503 5.088 2.419 6.864 3.326 12.699 3.104 17.153-4.14z"/></svg>