<svg fill="#F24C53" role="img" viewBox="0 0 25 24" xmlns="http://www.w3.org/2000/svg"><title>Consul</title><path d="M14.644 12.029a2.589 2.589 0 0 0-2.589-2.588 2.589 2.589 0 0 0-2.588 2.588 2.589 2.589 0 0 0 2.588 2.589 2.589 2.589 0 0 0 2.589-2.589z m3.648 0.001a1.194 1.194 0 0 0-1.194-1.194 1.194 1.194 0 0 0-1.194 1.194 1.194 1.194 0 0 0 1.194 1.193 1.194 1.194 0 0 0 1.194-1.193z m4.95 5.692a1.196 1.195 0 0 0-1.196-1.195 1.196 1.195 0 0 0-1.196 1.195 1.196 1.195 0 0 0 1.196 1.194 1.196 1.195 0 0 0 1.196-1.194zM21.536 13.95a1.195 1.191 90 0 0-1.191-1.195 1.195 1.191 90 0 0-1.191 1.195 1.195 1.191 90 0 0 1.191 1.196 1.195 1.191 90 0 0 1.191-1.196z m3.359 0.064a1.192 1.192 0 0 0-1.192-1.192 1.192 1.192 0 0 0-1.193 1.192 1.192 1.192 0 0 0 1.193 1.192 1.192 1.192 0 0 0 1.192-1.192z m-3.387-4.011a1.194 1.192 0 0 0-1.194-1.191 1.194 1.192 0 0 0-1.195 1.191 1.194 1.192 0 0 0 1.195 1.192 1.194 1.192 0 0 0 1.194-1.192z m3.388 0.047a1.2 1.195 0 0 0-1.2-1.196 1.2 1.195 0 0 0-1.2 1.196 1.2 1.195 0 0 0 1.2 1.195A1.2 1.195 0 0 0 24.896 10.05z m-1.68-3.751a1.198 1.196 90 0 0-1.196-1.198 1.198 1.196 90 0 0-1.195 1.198 1.198 1.196 90 0 0 1.195 1.198A1.198 1.196 90 0 0 23.216 6.299zM12.104 0c-3.212 0-6.228 1.246-8.49 3.51C1.35 5.784 0.104 8.798 0.104 12c0 3.212 1.246 6.227 3.51 8.49 2.275 2.264 5.29 3.51 8.49 3.51 2.663 0 5.183-0.852 7.288-2.465l-1.466-1.913c-1.68 1.287-3.693 1.968-5.822 1.967-2.559 0-4.97-0.996-6.788-2.805-1.806-1.806-2.801-4.217-2.801-6.784 0-2.56 0.996-4.971 2.805-6.787 1.806-1.806 4.216-2.802 6.784-2.803 2.126 0 4.139 0.681 5.823 1.969l1.465-1.915C17.284 0.852 14.764 0 12.104 0Z"/></svg>