<svg fill="#000000" role="img" viewBox="0 0 41 24" xmlns="http://www.w3.org/2000/svg"><title>Contactless Payment</title><path d="M15.239 23.964c-4.821-0.421-9.074-2.211-11.846-4.978-1.577-1.577-2.534-3.289-2.966-5.306-0.199-0.917-0.197-2.44 0-3.365 0.602-2.804 2.415-5.258 5.268-7.128 6.508-4.268 16.477-4.246 22.924 0.05 0.856 0.57 1.409 1.023 2.184 1.787 0.977 0.966 1.665 1.924 2.389 3.336 0.027 0.051 0.16 0.118 0.297 0.145 0.455 0.094 1.067 0.452 1.557 0.91 0.381 0.354 0.676 0.741 1.402 1.842 0.733 1.109 4.051 6.23 4.253 6.565 0.078 0.131-0.078 0.34-0.253 0.34-0.123 0-0.212-0.084-0.394-0.37l-1.881-2.919c-3.202-4.958-3.375-5.187-4.266-5.633l-0.469-0.236h-1.377c-1.375 0-1.377 0.002-1.41 0.146-0.182 0.792-0.216 0.987-0.175 1.025 0.025 0.024 0.805 0.468 1.735 0.987l1.689 0.947-0.105 0.221c-0.059 0.121-0.125 0.222-0.148 0.223-0.024 0-1.446-0.789-3.159-1.751-1.715-0.961-3.219-1.776-3.34-1.81-0.489-0.135-1.237 0.404-1.237 0.891 0 0.492 0.147 0.637 3.158 3.103 1.879 1.54 2.954 2.464 3.117 2.682 0.3 0.398 0.602 0.984 0.881 1.706 0.489 1.271 1.286 1.978 2.592 2.305l0.43 0.108-0.036 0.236a1.124 1.124 0 0 1-0.062 0.264c-0.056 0.062-0.922-0.214-1.422-0.455-0.784-0.376-1.323-0.912-1.852-1.843a9.378 9.378 0 0 0-0.683 0.234c-0.659 0.239-0.691 0.26-1.314 0.868-2.656 2.592-6.464 4.248-11.064 4.811-0.746 0.093-3.623 0.133-4.417 0.062z m4.579-0.797c2.11-0.28 3.746-0.698 5.459-1.399 1.798-0.736 3.493-1.795 4.68-2.92l0.467-0.445-1.177-0.561c-1.257-0.602-1.382-0.701-1.542-1.238-0.101-0.337 0.013-0.699 0.334-1.047l0.251-0.271-0.546-0.415c-0.431-0.329-0.566-0.472-0.65-0.691a1.095 1.095 0 0 1 0.133-1.038l0.165-0.232-1.724-0.304a44.072 44.072 0 0 1-1.965-0.374c-0.258-0.078-0.522-0.371-0.589-0.658-0.037-0.155 0.809-4.28 0.997-4.87a1.129 1.129 0 0 1 0.718-0.634c0.285-0.052 5.367 0.841 5.62 0.989 0.401 0.233 0.527 0.61 0.401 1.188l-0.054 0.243h0.281c0.155 0 0.522-0.02 0.814-0.042l0.533-0.042-0.265-0.489c-0.799-1.486-2.241-2.979-4.024-4.166-0.832-0.553-2.607-1.427-3.675-1.81a22.766 22.766 0 0 0-5.128-1.135c-0.969-0.101-3.508-0.101-4.448 0.001-2.256 0.246-4.304 0.757-6.095 1.52C4.643 4.095 1.854 7.022 1.142 10.36c-0.185 0.871-0.202 2.398-0.031 3.192 0.377 1.753 1.201 3.271 2.543 4.684 2.73 2.876 6.904 4.644 11.907 5.046 0.669 0.052 3.574-0.025 4.257-0.115z m-0.916-3.141c-0.258-0.074-0.519-0.383-0.572-0.674-0.037-0.192 0.007-0.324 0.279-0.853 1.105-2.14 1.586-4.107 1.586-6.496 0-2.309-0.425-4.103-1.481-6.257-0.227-0.462-0.413-0.891-0.413-0.952 0-0.229 0.192-0.561 0.399-0.691 0.285-0.18 0.762-0.147 0.991 0.068 0.088 0.084 0.315 0.457 0.506 0.832 0.757 1.483 1.274 3.112 1.53 4.808 0.158 1.05 0.19 3.038 0.064 3.999a15.722 15.722 0 0 1-1.449 4.902c-0.455 0.935-0.738 1.321-0.978 1.321a0.704 0.704 0 0 0-0.17 0.025 0.709 0.709 0 0 1-0.292-0.032z m-3.076-1.609c-0.394-0.116-0.681-0.602-0.567-0.966 0.029-0.088 0.214-0.494 0.415-0.901 0.846-1.726 1.198-3.577 1.026-5.394-0.142-1.493-0.409-2.435-1.083-3.814-0.453-0.925-0.474-1.068-0.211-1.439 0.249-0.354 0.875-0.413 1.201-0.111 0.227 0.209 0.935 1.685 1.207 2.521a11.974 11.974 0 0 1-0.391 8.452c-0.593 1.392-1.009 1.822-1.597 1.652z m-3.172-1.633a0.961 0.961 0 0 1-0.512-0.63c-0.035-0.158 0.024-0.334 0.315-0.922 1.065-2.157 1.077-4.236 0.034-6.345-0.457-0.927-0.467-1.11-0.079-1.476 0.19-0.18 0.271-0.212 0.539-0.212 0.45 0 0.684 0.227 1.085 1.053 0.618 1.271 0.873 2.373 0.869 3.785 0 1.449-0.238 2.447-0.898 3.786-0.379 0.767-0.566 0.969-0.943 1.021a0.885 0.885 0 0 1-0.41-0.06z m-2.961-1.52a0.998 0.998 0 0 1-0.481-0.573c-0.072-0.256-0.013-0.46 0.278-0.939 0.374-0.615 0.462-0.944 0.461-1.749 0-0.804-0.088-1.134-0.461-1.749a3.448 3.448 0 0 1-0.284-0.554c-0.12-0.404 0.217-0.902 0.671-0.988 0.384-0.072 0.649 0.101 1.003 0.652a4.988 4.988 0 0 1 0 5.317c-0.362 0.559-0.765 0.758-1.187 0.583z m22.058 2.482c0.342-0.123 0.639-0.238 0.658-0.258 0.02-0.019-0.045-0.238-0.147-0.487-0.206-0.509-0.172-0.497-0.9-0.357-0.789 0.152-1.245 0.017-2.106-0.617-0.236-0.174-0.477-0.315-0.539-0.315-0.061 0-0.194 0.089-0.299 0.201-0.219 0.236-0.253 0.607-0.074 0.825 0.157 0.19 2.32 1.22 2.578 1.225 0.113 0.003 0.487-0.094 0.829-0.217z m-0.34-1.656c0.32-0.064 0.356-0.086 0.3-0.189-0.061-0.115-3.053-2.598-3.313-2.75-0.214-0.125-0.388-0.096-0.564 0.094-0.521 0.556-0.46 0.674 0.886 1.707 1.624 1.244 1.796 1.318 2.691 1.138z m-4.017-3.76c0-0.017-0.339-0.308-0.755-0.649-1.025-0.844-1.244-1.159-1.244-1.782 0-0.522 0.347-1.025 0.907-1.315a1.628 1.628 0 0 1 1.053-0.096c0.199 0.064 1.092 0.548 2.33 1.261l0.262 0.15 0.215-1.022c0.219-1.045 0.224-1.318 0.021-1.381-0.062-0.019-1.257-0.236-2.654-0.482-2.482-0.438-2.753-0.463-2.869-0.277-0.062 0.101-1.006 4.476-1.006 4.663 0 0.093 0.047 0.209 0.105 0.256 0.057 0.049 0.863 0.222 1.79 0.388 1.79 0.322 1.845 0.33 1.845 0.286Z"/></svg>