<svg fill="#F47C00" role="img" viewBox="0 0 28 24" xmlns="http://www.w3.org/2000/svg"><title>Contao</title><path d="M2.697 14.558c0.77 3.58 1.409 6.988 3.653 9.442H2.072A1.835 1.835 0 0 1 0.253 22.192V1.815a1.833 1.833 0 0 1 1.819-1.815h3.091a11.819 11.819 0 0 0-1.968 2.323c-2.446 3.747-1.44 7.834-0.498 12.235ZM25.927 0h-4.851c1.148 1.148 2.116 2.635 2.848 4.483l-7.374 1.555c-0.809-1.548-2.038-2.836-4.441-2.33-1.324 0.281-2.203 1.024-2.594 1.838-0.479 1.004-0.715 2.128 0.432 7.475 1.144 5.346 1.819 6.279 2.666 7.002 0.688 0.585 1.799 0.91 3.124 0.63 2.406-0.506 2.998-2.179 3.102-3.921l7.374-1.556c0.175 3.814-1.007 6.772-3.092 8.816h2.806A1.835 1.835 0 0 0 27.747 22.185V1.815a1.835 1.835 0 0 0-1.82-1.815Z"/></svg>