<svg fill="#E74C3D" role="img" viewBox="0 0 29 24" xmlns="http://www.w3.org/2000/svg"><title>Contentstack</title><path d="M22.307 9.749a0.413 0.413 0 0 1-0.433 0.438h-8.294a0.416 0.416 0 0 1-0.439-0.438v-0.939a0.416 0.416 0 0 1 0.44-0.438h8.282a0.413 0.413 0 0 1 0.433 0.439z m3.669 2.724a0.413 0.413 0 0 1-0.438 0.44h-10.216a0.408 0.408 0 0 1-0.431-0.44v-0.96a0.407 0.407 0 0 1 0.433-0.433h10.125a0.411 0.411 0 0 1 0.439 0.433z m2.795 2.795a0.413 0.413 0 0 1-0.44 0.437h-11.084a0.407 0.407 0 0 1-0.433-0.437v-0.955a0.407 0.407 0 0 1 0.433-0.44h11.085a0.413 0.413 0 0 1 0.438 0.44z m0 2.797a0.413 0.413 0 0 1-0.44 0.433h-11.084a0.408 0.408 0 0 1-0.433-0.433v-0.96a0.407 0.407 0 0 1 0.433-0.44h11.085a0.413 0.413 0 0 1 0.438 0.44z m-2.795 2.703a0.417 0.417 0 0 1-0.438 0.44h-10.214a0.413 0.413 0 0 1-0.433-0.44v-0.96a0.411 0.411 0 0 1 0.433-0.44h10.126a0.417 0.417 0 0 1 0.438 0.44z m-3.669 2.794a0.411 0.411 0 0 1-0.433 0.437h-8.294a0.417 0.417 0 0 1-0.439-0.437v-0.961a0.413 0.413 0 0 1 0.44-0.434h8.282a0.408 0.408 0 0 1 0.433 0.434zM6.597 1.399a0.413 0.413 0 0 0 0.44 0.433h8.289a0.407 0.407 0 0 0 0.436-0.434V0.44a0.411 0.411 0 0 0-0.437-0.439h-8.289a0.417 0.417 0 0 0-0.437 0.44ZM3.024 4.186a0.407 0.407 0 0 0 0.433 0.433h10.126a0.411 0.411 0 0 0 0.437-0.433v-0.96a0.417 0.417 0 0 0-0.437-0.44H3.455a0.411 0.411 0 0 0-0.433 0.44ZM0.229 6.978a0.407 0.407 0 0 0 0.433 0.433h11.085a0.407 0.407 0 0 0 0.433-0.433V6.017a0.411 0.411 0 0 0-0.433-0.44H0.663a0.413 0.413 0 0 0-0.433 0.44Zm0 2.771a0.413 0.413 0 0 0 0.433 0.44h11.085a0.411 0.411 0 0 0 0.433-0.44v-0.939a0.411 0.411 0 0 0-0.433-0.438H0.663A0.413 0.413 0 0 0 0.229 8.811Zm2.792 2.725a0.407 0.407 0 0 0 0.434 0.438h10.124a0.411 0.411 0 0 0 0.44-0.438v-0.961a0.411 0.411 0 0 0-0.44-0.433H3.456a0.407 0.407 0 0 0-0.434 0.433z m3.577 2.793a0.411 0.411 0 0 0 0.439 0.437h8.287a0.411 0.411 0 0 0 0.44-0.437v-0.955a0.411 0.411 0 0 0-0.44-0.441H7.038a0.413 0.413 0 0 0-0.44 0.441z"/></svg>