<svg fill="#D4AA00" role="img" viewBox="0 0 23 24" xmlns="http://www.w3.org/2000/svg"><title>Cookiecutter</title><path d="M12.306 0a12 12 0 0 0-4.512 0.885A12 12 0 0 0 0.358 12.978a12 12 0 0 0 9.303 10.724 12 12 0 0 0 13.021-5.656L12.317 12l9.244-7.65A12 12 0 0 0 12.306 0zM8.718 2.143c0.34-0.003 0.701 0.123 1.193 0.378 0.847 0.437 1.013 1.027 0.36 1.277-0.487 0.187-2.457 0.177-2.932-0.015-0.526-0.212-0.38-0.781 0.32-1.24 0.402-0.263 0.72-0.396 1.059-0.4z m4.077 4.052a1.292 1.292 0 0 1 0.022 0 1.292 1.292 0 0 1 1.292 1.291 1.292 1.292 0 0 1-1.292 1.292 1.292 1.292 0 0 1-1.292-1.292 1.292 1.292 0 0 1 1.27-1.291z m-6.259 3.8c1.033 0 1.788 0.434 1.788 1.028 0 0.694-1.961 2.384-2.766 2.384-0.365 0-0.727-0.166-0.804-0.368-0.078-0.203 0.117-0.97 0.434-1.706 0.505-1.176 0.67-1.338 1.348-1.338z m8.637 9.187c0.372 0 1.362 2.316 1.186 2.775-0.201 0.524-1.046 0.467-1.564-0.105-0.676-0.747-0.404-2.67 0.378-2.67z"/></svg>