<svg fill="#1E1E28" role="img" viewBox="0 0 31 24" xmlns="http://www.w3.org/2000/svg"><title>Cooler Master</title><path d="M15.5 0c-1.229 0-3.202 0.361-7.153 1.811-3.446 1.267-4.077 1.578-4.623 1.828C1.064 4.858 0.3 6.118 0.3 9.293v5.837c0 2.946 0.452 3.805 3.154 4.981 0.939 0.405 2.353 1.108 5.966 2.478 1.6 0.605 3.994 1.411 6.076 1.411 2.084 0 4.488-0.806 6.081-1.411 3.619-1.369 5.035-2.072 5.971-2.478C30.252 18.935 30.699 18.076 30.699 15.13V9.293c0.004-3.175-0.751-4.436-3.412-5.654-0.546-0.25-1.177-0.562-4.623-1.828-3.957-1.45-5.934-1.811-7.164-1.811Zm0 0.817c1.739 0 4.239 0.754 6.956 1.764 3.305 1.225 3.577 1.401 4.236 1.676 1.864 0.779 3.167 1.753 3.166 4.645l-0.003 3.041v3.408c0 2.241-0.517 3.093-2.365 3.922-1.545 0.687-1.702 0.76-4.903 2.014-2.022 0.792-4.707 1.838-7.087 1.838-2.379 0-5.064-1.046-7.079-1.838-3.198-1.253-3.349-1.326-4.901-2.014-1.851-0.827-2.364-1.681-2.363-3.92V8.903c0-2.893 1.302-3.867 3.16-4.646 0.661-0.276 0.932-0.452 4.233-1.676C11.277 1.571 13.762 0.817 15.5 0.817Zm0.914 1.027v9.729h3.89v-1.749l-2.183-0.158V2.418l-1.707-0.574Zm-2.801 0.349a1.434 1.434 0 0 0-0.57 0.098c-1.516 0.578-2.101 2.812-1.996 5.212 0.109 2.452 0.946 4.17 2.296 4.17 1.509 0 2.514-1.699 2.456-5.047-0.042-2.41-0.912-4.383-2.186-4.433Zm7.176 1.098l0.002 8.282h3.751v-1.468l-2.202-0.149V8.457l1.826 0.247V7.213L22.34 6.839V5.435l2.202 0.585V4.537l-3.753-1.246Zm-12.211 0.552a1.401 1.401 0 0 0-0.38 0.075c-1.239 0.415-1.886 2.166-1.813 4.252 0.075 2.052 0.813 3.502 2.031 3.502 1.487 0 2.265-1.619 2.218-4.198-0.041-2.051-0.869-3.688-2.056-3.631Zm4.813 0.382c0.429 0.024 0.704 1.069 0.742 2.587 0.043 1.687-0.238 2.975-0.77 3.027-0.48 0.048-0.768-1.023-0.817-2.489-0.057-1.671 0.269-2.845 0.651-3.07a0.343 0.343 0 0 1 0.194-0.055Zm11.645 0.481v6.867h1.42V9.364l0.477 0.055 0.666 2.154h1.208l-0.751-2.277c0.336-0.146 0.709-0.571 0.709-1.519 0-1.03-0.54-1.999-1.456-2.308l-2.273-0.763Zm-20.715 0.701c-0.086 0.003-0.172 0.013-0.259 0.032-1.415 0.32-1.977 1.87-1.931 3.524 0.046 1.609 0.804 2.711 2.019 2.71 1.088 0 2.008-1.122 2.007-2.352l-1.236 0.104c-0.061 0.543-0.41 0.937-0.789 0.965-0.576 0.041-0.811-0.612-0.831-1.606-0.02-1.008 0.195-1.814 0.779-1.978 0.38-0.106 0.641 0.181 0.733 0.635l1.286-0.239c-0.176-1.069-0.949-1.819-1.778-1.795Zm4.096 0.027c0.451-0.027 0.757 0.892 0.784 2.202 0.032 1.37-0.262 2.422-0.757 2.463-0.465 0.039-0.741-0.888-0.779-2.156-0.037-1.434 0.329-2.38 0.66-2.491a0.351 0.351 0 0 1 0.092-0.018Zm18.038 1.094l0.666 0.178c0.32 0.085 0.545 0.403 0.545 0.841 0 0.438-0.224 0.655-0.545 0.595l-0.666-0.124V6.528ZM13.638 12.204c-1.203-0.015-2.366 1.021-2.329 2.583 0.061 2.797 3.111 2.351 3.133 4.675 0 0.348-0.195 0.7-0.551 0.665-0.451-0.086-0.789-0.398-0.819-1.356l-1.585-0.388c-0.016 1.46 0.512 3.006 2.059 3.341 1.503 0.331 2.883-0.883 2.557-2.972-0.385-2.428-3.127-2.573-3.197-3.874-0.025-0.488 0.328-0.817 0.676-0.779 0.257 0.03 0.593 0.304 0.546 0.965l1.695 0.167c0.09-1.714-0.632-3.001-2.185-3.027Zm-11.377 0.091v5.453l0.964 0.337v-3.448l0.73 3.697 0.414 0.144 0.94-3.533v3.859l1.263 0.437v-6.946H4.935l-0.732 2.896-0.564-2.896H2.261Zm5.888 0l-1.286 7.043 1.229 0.424 0.172-1.084 1.35 0.382 0.195 1.291 1.496 0.522-1.607-8.578H8.149Zm8.265 0v2.025l1.187-0.079 0.003 7.398 1.622-0.541v-6.973l1.067-0.087v-1.743h-3.879Zm4.375 0v8.283l3.753-1.251v-1.455l-2.202 0.579v-1.529l1.942-0.386V15.053l-1.942 0.25v-1.387l2.202-0.154v-1.467h-3.753Zm4.247 0v6.868l1.422-0.473v-2.195l0.477-0.104 0.659 1.921 1.213-0.404-0.741-2.019c0.334-0.258 0.708-0.811 0.708-1.764 0-1.037-0.54-1.83-1.46-1.83h-2.278Zm2.149 1.305c0.29 0.01 0.488 0.251 0.487 0.662 0 0.441-0.225 0.733-0.546 0.782l-0.67 0.097v-1.493l0.67-0.047 0.059-0.001ZM8.901 14.483l0.476 2.901-0.916-0.205 0.44-2.696Z"/></svg>