<svg fill="#0032A0" role="img" viewBox="0 0 25 24" xmlns="http://www.w3.org/2000/svg"><title>Copa Airlines</title><path d="M0.394 0v6.513c0.696-0.02 1.493 0.21 2.357 0.323l-1.516 0.192c-0.258 0.01-0.55 0.033-0.841 0.061v0.342a20.243 20.243 0 0 1 3.417-0.347c9.767-2.316 17.856-0.136 17.856-0.136C19.933 6.554 10.26 5.243 0.394 9.097v0.585c1.465-0.493 3.012-0.875 4.492-1.049 2.195-0.269 4.237-0.148 5.954 0.334 7.22-0.513 12.451 1.025 12.451 1.025C21.327 9.674 10.788 8.236 0.394 12.961v0.47c2.877-1.367 5.896-2.157 8.469-2.326 2.608-0.139 4.939 0.23 6.693 1.267 4.136-0.064 7.289 0.471 9.05 0.897V0H0.394z m7.328 7.462a7.334 7.334 0 0 1 1.876 0.794l-0.741-0.116c-0.636-0.238-1.389-0.397-2.137-0.502 0.324-0.071 0.641-0.131 1.002-0.176z m-0.059 1.823C5.452 9.282 2.907 9.677 0.394 10.505v0.759c2.589-1.002 5.201-1.612 7.707-1.974a17.909 17.909 0 0 0-0.438-0.005z m5.692 0.757c0.516 0.339 1.209 0.879 1.62 1.392l-0.43-0.139c-0.61-0.439-1.25-0.838-2.076-1.174 0.276-0.018 0.562-0.063 0.886-0.079z m-3.352 2.243c-2.909 0.008-6.241 0.711-9.609 2.115v1.466c4.252-2.055 8.589-3.034 12.366-3.358-0.863-0.151-1.787-0.225-2.757-0.221z m9.185 0.873c-5.057 0.01-12.13 0.849-18.794 4.639v0.611c0.293-0.166 0.585-0.324 0.862-0.471 2.175-1.163 4.348-1.974 6.521-2.468 2.057-0.487 4.071-0.659 5.911-0.496 3.48 0.311 5.982 1.824 7.186 4.434 0.01 0.02 0.871 1.936 0.954 3.743l-0.418-1.034c-0.111-0.517-0.254-1.047-0.526-1.524-0.892-1.722-2.629-2.961-4.973-3.686-2.129-0.668-4.925-0.696-7.827-0.131-2.575 0.484-5.195 1.451-7.69 2.679v4.546h0.242c1.496-1.107 3.11-1.918 4.788-2.58 4.398-1.881 8.677-2.451 11.888-1.604 2.357 0.671 3.898 2.056 4.526 4.184H24.606V13.46a47.315 47.315 0 0 0-5.418-0.302z m-1.929 0.401c0.128 0.095 0.252 0.212 0.368 0.354 0.044 0.064 1.481 1.471 1.962 2.902l-0.61-0.67c-0.733-1.075-1.663-1.89-2.952-2.512 0.385-0.045 0.87-0.059 1.231-0.074z m-4.249 7.508a20.146 20.146 0 0 0-3.361 0.347c-2.391 0.434-4.897 1.241-7.306 2.586h18.387c-0.856-1.242-2.218-2.038-3.884-2.493-1.18-0.312-2.464-0.459-3.836-0.44z"/></svg>