<svg fill="#0266AE" role="img" viewBox="0 0 32 24" xmlns="http://www.w3.org/2000/svg"><title>Coppel</title><path d="M1.184 0a0.942 0.942 0 0 0-0.971 0.974v22.052c0 0.563 0.46 0.974 0.971 0.974h29.628a0.972 0.972 0 0 0 0.972-0.974V0.974c0.051-0.563-0.408-0.974-0.971-0.974Zm8.701 8.341c1.535 0 2.763 1.23 2.763 2.765 0 0.308-0.053 0.562-0.104 0.817h15.864v2.457h-1.28v3.325h-1.276v-1.688h-1.23v1.688h-1.279v-3.325H12.544c0.053 0.255 0.104 0.563 0.104 0.82a2.75 2.75 0 0 1-2.763 2.763c-1.33 0-2.408-0.921-2.714-2.15a4.457 4.457 0 0 1-0.816 0.101 2.752 2.752 0 0 1-2.765-2.763c0-1.535 1.229-2.763 2.764-2.762 0.308 0 0.562 0 0.817 0.104 0.308-1.229 1.384-2.151 2.714-2.152Zm0 1.537c-0.717 0-1.28 0.563-1.229 1.228 0 0.666 0.563 1.226 1.229 1.226a1.243 1.243 0 0 0 1.228-1.226 1.246 1.246 0 0 0-1.228-1.228zM6.354 11.921a1.246 1.246 0 0 0-1.227 1.229c0 0.666 0.563 1.229 1.227 1.229a1.246 1.246 0 0 0 1.229-1.229 1.246 1.246 0 0 0-1.229-1.229z m3.531 1.997a1.246 1.246 0 0 0-1.229 1.229c0 0.664 0.563 1.227 1.229 1.228a1.246 1.246 0 0 0 1.228-1.228 1.246 1.246 0 0 0-1.228-1.229z"/></svg>