<svg fill="#E61845" role="img" viewBox="0 0 83 24" xmlns="http://www.w3.org/2000/svg"><title>Cora</title><path d="M60.966 0.468c0-0.289-0.119-0.398-0.407-0.386-0.429 0.016-0.859 0-1.288 0a5.203 5.203 0 0 0-3.504 1.389 8.538 8.538 0 0 0-1.596 2.051c-0.182 0.304-0.365 0.606-0.549 0.909l-0.074-0.018c-0.01-0.105-0.027-0.21-0.027-0.316q-0.021-1.542-0.037-3.075c0-0.225-0.024-0.379-0.324-0.385-1.645-0.038-3.289-0.055-4.935-0.03-0.329 0.005-0.409 0.129-0.411 0.439-0.077 7.331-0.044 14.662 0 21.994 0 0.26 0.096 0.309 0.329 0.313 1.656 0.029 3.314 0.046 4.97 0 0.591-0.016 0.599-0.023 0.606-0.625 0.041-4.029 0.073-8.059 0.121-12.088a4.361 4.361 0 0 1 3.494-4.341 12.114 12.114 0 0 1 3.239-0.179c0.328 0.011 0.398-0.089 0.394-0.395-0.011-1.001 0.01-2.003 0.011-3.004-0.002-0.751-0.016-1.501-0.012-2.253zM11.442 5.074a3.351 3.351 0 0 1 2.764 1.638 5.356 5.356 0 0 1 0.675 1.719c0.054 0.241 0.163 0.295 0.385 0.289 0.882-0.011 1.764 0 2.646 0 0.882 0 1.765-0.017 2.646 0.009 0.331 0.01 0.409-0.096 0.377-0.402a8.41 8.41 0 0 0-4.836-7.17 12.322 12.322 0 0 0-7.613-0.912A8.984 8.984 0 0 0 1.761 4.88a13.821 13.821 0 0 0-1.603 5.77 17.237 17.237 0 0 0 0.513 6.375 8.979 8.979 0 0 0 4.848 5.917 12.359 12.359 0 0 0 7.837 0.729c4.805-0.995 6.962-4.625 7.546-8.147 0.051-0.307-0.009-0.44-0.375-0.435-1.597 0.022-3.195 0.01-4.791 0.01-0.771 0-0.771 0-0.973 0.761a4.013 4.013 0 0 1-3.401 3.139 3.941 3.941 0 0 1-3.951-1.619 6.23 6.23 0 0 1-0.94-2.335 19.445 19.445 0 0 1-0.215-3.847 8.423 8.423 0 0 1 0.289-2.26c0.537-2.087 1.946-4.073 4.897-3.864Zm27.319-4.253a13.116 13.116 0 0 0-9.106-0.011 9.907 9.907 0 0 0-6.341 6.43 14.839 14.839 0 0 0-0.144 9.043 9.951 9.951 0 0 0 6.431 6.874 13.147 13.147 0 0 0 8.769 0.15 10.007 10.007 0 0 0 6.348-5.678 13.6 13.6 0 0 0 1.089-5.616 17.075 17.075 0 0 0-0.34-3.359 10.227 10.227 0 0 0-6.706-7.833z m0.192 15.08a4.502 4.502 0 0 1-4.344 2.988 5.988 5.988 0 0 1-2.532-0.315 4.906 4.906 0 0 1-2.853-3.149 10.326 10.326 0 0 1-0.473-3.714 8.488 8.488 0 0 1 0.807-3.938 4.625 4.625 0 0 1 4.121-2.685 5.936 5.936 0 0 1 2.57 0.312 4.484 4.484 0 0 1 2.714 2.68 10.696 10.696 0 0 1-0.01 7.822z m43.736 6.475a1.668 1.668 0 0 1-0.7-0.785 3.617 3.617 0 0 1-0.322-1.596c-0.086-4.637-0.013-9.275-0.131-13.911a5.221 5.221 0 0 0-1.887-3.938 8.528 8.528 0 0 0-3.888-1.778 18.604 18.604 0 0 0-5.907-0.193 9.26 9.26 0 0 0-3.705 1.105c-2.444 1.392-3.402 3.674-3.74 6.321-0.039 0.305 0.076 0.348 0.342 0.346 1.502-0.012 3.004-0.006 4.507-0.006 0.817 0 0.817 0 1.025-0.775a2.928 2.928 0 0 1 2.582-2.284 10.631 10.631 0 0 1 2.71 0.068 2.38 2.38 0 0 1 2.145 2.479 1.612 1.612 0 0 1-0.983 1.522 5.15 5.15 0 0 1-1.451 0.35c-2.043 0.346-4.109 0.555-6.13 1.013a6.64 6.64 0 0 0-4.784 3.565 7.881 7.881 0 0 0-0.669 4.426 5.86 5.86 0 0 0 3.07 4.743 9.337 9.337 0 0 0 9.612-0.985c0.43-0.358 0.851-0.729 1.272-1.098 0.193-0.165 0.261-0.138 0.296 0.119a11.744 11.744 0 0 0 0.419 1.989 0.377 0.377 0 0 0 0.432 0.309c0.941-0.016 1.884-0.007 2.824-0.007v-0.029c0.942 0 1.884 0.007 2.826-0.006 0.167 0 0.414 0.08 0.451-0.215 0.035-0.273 0.116-0.575-0.216-0.749z m-8.921-3.7a5.829 5.829 0 0 1-3.688 0.997 2.688 2.688 0 0 1-2.409-3.399 2.83 2.83 0 0 1 2.017-2.243 19.512 19.512 0 0 1 2.816-0.646 9.25 9.25 0 0 0 2.987-0.922c0.193-0.116 0.228-0.012 0.228 0.146v1.502h0.014v0.964a4.068 4.068 0 0 1-1.965 3.601Z"/></svg>