<svg fill="#000000" role="img" viewBox="0 0 18 24" xmlns="http://www.w3.org/2000/svg"><title>CorelDRAW</title><path d="M7.651 0C7.265 0.019 6.4 0.272 5.584 0.657c-0.816 0.39-3.696 2.161-3.752 6.536 0.072 4.145 3.847 11.191 6.397 13.455 0 0-4.141-6.952-4.439-13.013C3.488 1.575 7.651 0 7.651 0Zm2.679 0s4.159 1.575 3.861 7.635c-0.299 6.061-4.439 13.013-4.439 13.013 2.547-2.264 6.324-9.31 6.396-13.455-0.057-4.375-2.936-6.146-3.752-6.536C11.58 0.272 10.715 0.019 10.33 0Zm-1.38 0.019a1.088 1.088 0 0 0-0.555 0.144C6.864 0.99 5.909 3.982 6.177 8.66c0.185 3.242 1.009 7.291 2.422 11.988h0.7c1.413-4.697 2.24-8.742 2.425-11.984 0.268-4.677-0.688-7.674-2.219-8.501a1.088 1.088 0 0 0-0.555-0.144ZM4.017 1.066S-0.457 2.909 0.431 8.225c0.884 5.32 5.588 10.995 6.986 12.2 0.503 0.457-5.777-6.548-6.386-12.699-0.291-2.323 0.39-4.9 2.986-6.66Zm9.966 0c2.595 1.76 3.276 4.337 2.985 6.66-0.608 6.151-6.888 13.156-6.386 12.699 1.398-1.205 6.103-6.88 6.987-12.2 0.888-5.316-3.586-7.159-3.586-7.159Zm-6.815 20.78L7.647 24h2.599l0.488-2.154h-3.566Z"/></svg>