<svg fill="#F96F29" role="img" viewBox="0 0 25 24" xmlns="http://www.w3.org/2000/svg"><title>Corona Engine</title><path d="M14.19 7.499c-0.919-0.965-1.577-2.105-1.6-3.116 0.655-0.187 2.017 0.001 3.35 0.558 1.354 0.566 2.668 1.514 3.158 2.831 0.014 0.039 0.029 0.078 0.041 0.116a2.337 2.337 0 0 1-0.529 1.14c-0.26 0.279-0.586 0.487-0.948 0.605-1.143-0.23-2.464-1.074-3.472-2.134z m5.581 2.244c-0.957 0.334-1.839 1.311-2.473 2.482v0.001c-0.697 1.284-1.093 2.799-0.96 3.957 0.225 0.307 0.523 0.553 0.869 0.713 0.394 0.163 0.826 0.215 1.247 0.151 0.038-0.027 0.07-0.053 0.1-0.075 1.103-0.872 1.6-2.413 1.72-3.875 0.119-1.437-0.122-2.79-0.503-3.354z m-7.939-3.389a2.23 2.23 0 0 0-0.283-1.088 2.332 2.332 0 0 0-0.92-0.853l-0.123 0.002C9.1 4.473 7.792 5.428 6.834 6.541 5.893 7.633 5.291 8.87 5.268 9.55c0.969 0.288 2.257 0.017 3.459-0.559v0.002c1.32-0.631 2.532-1.625 3.105-2.639zM8.46 14.641c-0.193-1.449-0.765-2.907-1.553-3.767a2.252 2.252 0 0 0-1.123-0.067c-0.415 0.099-0.794 0.31-1.097 0.61l-0.036 0.118c-0.38 1.355 0.125 2.893 0.886 4.146 0.749 1.233 1.741 2.185 2.382 2.418 0.577-0.832 0.718-2.139 0.54-3.459l0.001 0.001z m5.297 2c-1.439-0.264-3.004-0.172-4.065 0.311a2.227 2.227 0 0 0-0.411 1.046c-0.034 0.426 0.05 0.852 0.243 1.233 0.033 0.025 0.067 0.047 0.1 0.068 1.172 0.779 2.793 0.774 4.223 0.438 1.405-0.332 2.619-0.978 3.039-1.515-0.614-0.807-1.817-1.344-3.128-1.584l-0.001 0.003zM24.5 12c0 6.622-5.364 11.992-11.985 12C5.887 24.008 0.508 18.642 0.5 12.015 0.492 5.387 5.858 0.008 12.485 0h0.001C19.117-0.004 24.496 5.369 24.5 12z m-1.547 0c-0.003-5.778-4.69-10.459-10.468-10.456-5.774 0.007-10.45 4.693-10.443 10.468 0.007 5.775 4.693 10.45 10.468 10.443C18.28 22.448 22.953 17.77 22.953 12z"/></svg>