<svg fill="#000000" role="img" viewBox="0 0 25 24" xmlns="http://www.w3.org/2000/svg"><title>Corsair</title><path d="M13.61 0s1.981 4.019 1.619 5.696c0 0 5.165 1.669 5.737 4.424 0 0 2.827-3.722-7.356-10.12zM8.262 3.785s1.738 2.718 1.468 4.505l2.918 1.105a18.185 18.185 0 0 0-1.026-3.364z m3.919 0.716a14.666 14.666 0 0 1 0.169 14.285 18.332 18.332 0 0 0 0.615-6.82c-0.018-0.193-0.032-0.381-0.055-0.569L7.227 7.609a14.633 14.633 0 0 1 1.173 4.623 14.519 14.519 0 0 1-1.351 7.609 18.382 18.382 0 0 0 0.457-6.201 0.953 0.953 0 0 1-0.022-0.252l-5.316-2.823a12.053 12.053 0 0 1 1.113 4.07A12.205 12.205 0 0 1 0.073 24c22.69-9.621 23.606-3.286 23.606-3.286s1.715-2.241 1.124-4.671C24.024 12.819 12.181 4.502 12.181 4.502zM3.221 7.076s1.687 2.164 1.412 3.951l2.658 0.66a21.082 21.082 0 0 0-0.894-2.888z"/></svg>