<svg fill="#2E3084" role="img" viewBox="0 0 26 24" xmlns="http://www.w3.org/2000/svg"><title>CountingWorks PRO</title><path d="M12.297 0c-3.976 0.036-7.779 3.332-7.501 8.096 0.107 1.616 0.919 3.533 3.114 5.988a0.381 0.381 0 0 0 0.663-0.24l0.055-2.367a0.376 0.376 0 0 0-0.104-0.266 5.272 5.272 0 0 1 3.559-8.882c2.371-0.109 4.19 1.291 4.965 2.867 0.355 0.724 0.55 1.515 0.574 2.321a0.373 0.373 0 0 0 0.359 0.359c0.503 0.016 1.005 0.067 1.501 0.154a0.375 0.375 0 0 0 0.443-0.36 7.56 7.56 0 0 0-2.893-6.046C16.155 0.932 14.634 0.008 12.297 0z m5.16 8.735a15.46 15.46 0 0 0-2.627 0.271 0.38 0.38 0 0 0-0.177 0.664l1.77 1.499a0.376 0.376 0 0 0 0.33 0.076 5.25 5.25 0 0 1 3.263 0.294c1.859 0.822 3.05 2.522 3.177 4.495 0.217 3.329-2.591 5.786-5.512 5.61a5.256 5.256 0 0 1-1.829-0.43 0.381 0.381 0 0 0-0.463 0.12c-0.302 0.402-0.63 0.783-0.982 1.142a0.383 0.383 0 0 0 0.094 0.599c1.971 1.121 4.112 1.212 6.282 0.334 3.45-1.362 4.836-4.725 4.748-7.152-0.1-2.759-1.546-5.298-4.267-6.688-0.962-0.491-2.131-0.848-3.806-0.834z m-13.507 1.253a0.38 0.38 0 0 0-0.159 0.055c-1.473 0.864-2.315 2.149-2.923 3.945-0.298 0.932-0.403 1.577-0.403 2.545a7.6 7.6 0 0 0 7.476 7.459c1.179 0.018 2.198-0.245 3.094-0.609 1.515-0.648 3.282-1.668 4.858-5.131a0.379 0.379 0 0 0-0.48-0.511l-2.47 0.906a0.373 0.373 0 0 0-0.204 0.182 5.254 5.254 0 0 1-2.369 2.323C6.733 22.893 3.048 20.131 2.8 16.952c-0.151-1.819 0.516-3.189 1.431-4.16 0.306-0.322 0.428-0.498 0.692-0.691a0.376 0.376 0 0 0 0.103-0.492 9.582 9.582 0 0 1-0.682-1.386 0.382 0.382 0 0 0-0.394-0.235z"/></svg>