<svg fill="#000000" role="img" viewBox="0 0 23 24" xmlns="http://www.w3.org/2000/svg"><title>Counter-Strike</title><path d="M21.21 3.235a0.022 0.022 0 0 1-0.022-0.022c0.001-0.082 0.003-0.37 0.004-0.424 0-0.129-0.143-0.183-0.211-0.083-0.011 0.016-0.146 0.212-0.229 0.333a0.024 0.024 0 0 1-0.02 0.01h-6.551a0.047 0.047 0 0 1-0.047-0.046l-0.013-0.177a0.048 0.048 0 0 1 0.056-0.048l0.335 0.032a0.059 0.059 0 0 0 0.062-0.045l0.245-0.989a0.048 0.048 0 0 0-0.03-0.054l-0.227-0.085a0.043 0.043 0 0 1-0.026-0.029c-0.041-0.172-0.377-1.323-1.994-1.581-0.787-0.125-1.302 0.211-1.577 0.478a1.594 1.594 0 0 0-0.301 0.41l-0.097 0.212c-0.008 0.016-0.046 0.216-0.046 0.234l0.051 0.982a0.109 0.109 0 0 0 0.043 0.085l0.354 0.153-0.196 0.325a0.055 0.055 0 0 1-0.053 0.04s-0.417 0.011-0.622 0.019c-0.386 0.015-1.244 0.486-1.878 1.839-0.622 1.328-0.724 1.55-0.724 1.549a0.074 0.074 0 0 1-0.068 0.04l-0.578 0.002c-0.036 0-0.074 0.029-0.088 0.061l-0.898 2.543c-0.015 0.032-0.006 0.081 0.017 0.108l0.627 0.392a0.059 0.059 0 0 1 0.019 0.059l-0.327 0.966a0.192 0.192 0 0 1-0.023 0.062l-0.435 0.382a0.106 0.106 0 0 0-0.035 0.059l-0.598 1.531a0.063 0.063 0 0 1-0.061 0.045l-0.335 0.002a0.163 0.163 0 0 0-0.162 0.149l-0.201 2.288a1.719 1.719 0 0 1-0.016 0.121l-0.158 0.908a0.128 0.128 0 0 1-0.034 0.055l-0.558 0.427c-0.256 0.244-0.599 0.69-0.767 1.001l-1.86 3.924c-0.045 0.083-0.081 0.227-0.078 0.322l0.132 0.235c0.002 0.084-0.032 0.456-0.071 0.531L0.317 23.655a0.099 0.099 0 0 0-0.003 0.085l0.031 0.071 0.093 0.186 1.891 0.003c0.117 0.011 0.247-0.14 0.251-0.301l0.103-1.296-0.027-0.196 3.606-4.232c0.094-0.115 0.222-0.317 0.286-0.45l1.719-3.789a0.171 0.171 0 0 1 0.1-0.088l0.109-0.035a0.169 0.169 0 0 1 0.183 0.052c0.15 0.181 0.504 0.781 0.676 1.032 0.142 0.208 0.85 1.23 1.158 1.567 0.085 0.093 0.348 0.198 0.466 0.27a0.083 0.083 0 0 1 0.029 0.112l-1.03 1.808-0.455 2.136a0.954 0.954 0 0 0-0.035 0.152l-0.412 1.484c0.003 0.187-0.141 0.286-0.153 0.506l-0.15 1.084a0.058 0.058 0 0 0 0.059 0.061l2.544 0.014c0.095 0 0.19-0.004 0.285-0.006a1.105 1.105 0 0 0 0.076-0.007c0.124-0.016 0.563-0.075 0.75-0.151 0.11-0.039 0.181-0.082 0.227-0.129 0.185-0.194 0.2-0.278 0.203-0.398 0.001-0.021-0.011-0.073-0.028-0.104-0.005-0.012-0.032-0.038-0.059-0.048l-1.182-0.356a0.369 0.369 0 0 1-0.189-0.134l-0.317-0.469a0.086 0.086 0 0 1 0.018-0.097l0.618-0.609a0.202 0.202 0 0 0 0.048-0.072l1.903-4.488c0.089-0.285 0.059-0.606 0-0.945-0.044-0.25-0.685-1.326-0.853-1.624-0.148-0.262-1.068-1.871-1.286-2.251-0.079-0.138-0.189-0.133-0.228-0.276l-0.073-1.118a0.04 0.04 0 0 1 0.036-0.05l0.331-0.028a0.093 0.093 0 0 0 0.074-0.048l1.147-2.155a0.096 0.096 0 0 0-0.002-0.094l-0.235-0.29a0.087 0.087 0 0 1-0.001-0.088l0.351-0.38a0.054 0.054 0 0 1 0.074-0.02l0.934 0.526a0.382 0.382 0 0 0 0.186 0.051c0.259-0.002 0.686-0.155 0.908-0.291a0.383 0.383 0 0 0 0.139-0.148l0.458-1.07c0.006-0.014 0.026-0.012 0.029 0.003l0.128 0.595a0.064 0.064 0 0 0 0.079 0.05l1.349-0.3a0.066 0.066 0 0 0 0.05-0.078l-0.318-1.344a0.072 0.072 0 0 1 0.009-0.053l0.132-0.204a0.281 0.281 0 0 0 0.036-0.081l0.158-0.725a0.041 0.041 0 0 1 0.04-0.033l3.733 0.005a0.092 0.092 0 0 0 0.093-0.093v-0.634a0.022 0.022 0 0 1 0.022-0.021h1.439a0.046 0.046 0 0 0 0.046-0.047v-0.285a0.046 0.046 0 0 0-0.046-0.046h-1.44z"/></svg>