<svg fill="#0056D2" role="img" viewBox="0 0 25 24" xmlns="http://www.w3.org/2000/svg"><title>Coursera</title><path d="M11.874 23.983c-4.185-0.21-8.01-2.627-9.965-6.351-2.098-3.86-1.872-8.869 0.733-12.461C5.244 1.331 9.996-0.706 14.782 0.223c4.585 0.857 8.356 4.496 9.363 8.916 1.123 4.346-0.423 9.178-3.927 12.046-2.29 1.954-5.298 2.958-8.344 2.799z m7.709-8.055a589.057 589.057 0 0 0-3.173-1.888c-0.903 1.484-2.887 2.249-4.572 1.666-2.025-0.639-3.396-2.989-2.49-5.137 0.801-2.01 2.792-2.708 4.36-2.465a4.192 4.192 0 0 1 2.624 1.67c1.078-0.631 2.129-1.219 3.175-1.856-2.031-3.12-6.154-4.296-9.661-2.756-3.132 1.424-4.893 4.683-4.391 7.924 0.54 3.6 3.732 6.49 7.72 6.407a7.668 7.668 0 0 0 6.408-3.565z"/></svg>