<svg fill="#FF6C2C" role="img" viewBox="0 0 109 24" xmlns="http://www.w3.org/2000/svg"><title>cPanel</title><path d="M20.991 0.005a2.432 2.432 0 0 0-1.537 0.511 2.536 2.536 0 0 0-0.89 1.351L12.647 23.995h4.167a2.386 2.386 0 0 0 1.501-0.511 2.536 2.536 0 0 0 0.904-1.315l4.375-16.289h3.362a3.06 3.06 0 0 1 1.433 0.348 3.177 3.177 0 0 1 1.085 0.9 3.308 3.308 0 0 1 0.583 1.27 2.938 2.938 0 0 1-0.045 1.473 3.155 3.155 0 0 1-3.056 2.378h-1.74a2.432 2.432 0 0 0-1.523 0.51 2.536 2.536 0 0 0-0.904 1.316l-1.084 4.049h5.428a8.764 8.764 0 0 0 7.322-3.918 8.985 8.985 0 0 0 1.197-2.649l0.122-0.452a8.379 8.379 0 0 0 0.118-4.099 8.917 8.917 0 0 0-4.66-6.057 8.474 8.474 0 0 0-3.977-0.949H20.995z m83.373 0a1.812 1.812 0 0 0-1.13 0.371 1.704 1.704 0 0 0-0.632 0.98l-6.03 22.644a7.683 7.683 0 0 0 2.577-0.434 8.162 8.162 0 0 0 2.241-1.202 7.864 7.864 0 0 0 1.74-1.844 7.448 7.448 0 0 0 1.058-2.4l4.502-16.705a1.04 1.04 0 0 0-0.204-0.981 1.112 1.112 0 0 0-0.904-0.429h-3.218zM38.143 5.867l-0.602 2.273a2.549 2.549 0 0 0-0.027 1.175 2.459 2.459 0 0 0 0.452 0.999 2.495 2.495 0 0 0 0.836 0.696 2.395 2.395 0 0 0 1.139 0.271h9.749a0.456 0.456 0 0 1 0.38 0.172 0.443 0.443 0 0 1 0.068 0.398l-0.091 0.325-1.464 5.428-0.059 0.249a0.777 0.777 0 0 1-0.303 0.474 0.927 0.927 0 0 1-0.574 0.181H41.745a0.664 0.664 0 0 1-0.543-0.257 0.615 0.615 0 0 1-0.122-0.588c0.099-0.334 0.321-0.506 0.665-0.506h3.652a2.395 2.395 0 0 0 1.5-0.506 2.549 2.549 0 0 0 0.904-1.325l0.597-2.25H40.217a5.112 5.112 0 0 0-1.717 0.293 5.207 5.207 0 0 0-1.46 0.796 5.396 5.396 0 0 0-1.157 1.225 4.755 4.755 0 0 0-0.705 1.564l-0.127 0.451a4.949 4.949 0 0 0-0.059 2.409 5.437 5.437 0 0 0 0.959 2.098 5.157 5.157 0 0 0 4.149 2.047l9.748 0.027a4.063 4.063 0 0 0 3.955-3.028l2.373-8.813a4.976 4.976 0 0 0 0.045-2.323 5.035 5.035 0 0 0-0.926-2.007 5.193 5.193 0 0 0-1.704-1.41 4.737 4.737 0 0 0-2.251-0.543H38.138z m-28.913 0.045a8.696 8.696 0 0 0-2.883 0.484 8.99 8.99 0 0 0-2.499 1.333 8.868 8.868 0 0 0-3.164 4.723l-0.122 0.452a8.75 8.75 0 0 0-0.104 4.09 8.836 8.836 0 0 0 1.631 3.553 8.976 8.976 0 0 0 3.02 2.504 8.474 8.474 0 0 0 3.977 0.949h2.097l1.202-4.443a1.04 1.04 0 0 0-0.194-0.972 1.08 1.08 0 0 0-0.895-0.434h-1.912a3.173 3.173 0 0 1-1.442-0.334 3.028 3.028 0 0 1-1.084-0.882 3.308 3.308 0 0 1-0.574-1.27 3.191 3.191 0 0 1 0.045-1.536 3.299 3.299 0 0 1 1.157-1.704 3.051 3.051 0 0 1 1.898-0.633h3.15a2.432 2.432 0 0 0 1.528-0.515 2.536 2.536 0 0 0 0.899-1.342l1.049-4.023h-6.78z m50.078 0l-4.438 16.673a1.04 1.04 0 0 0 0.203 0.981 1.076 1.076 0 0 0 0.881 0.429h3.214a1.867 1.867 0 0 0 1.121-0.361 1.641 1.641 0 0 0 0.646-0.95l2.911-10.892h3.367a3.064 3.064 0 0 1 1.437 0.339 3.2 3.2 0 0 1 1.076 0.904 3.322 3.322 0 0 1 0.583 1.265 2.938 2.938 0 0 1-0.045 1.478l-1.799 6.807a1.098 1.098 0 0 0 1.085 1.41h3.222a1.821 1.821 0 0 0 1.103-0.361 1.654 1.654 0 0 0 0.646-0.963l1.501-5.641a8.574 8.574 0 0 0 0.131-4.103 8.836 8.836 0 0 0-1.632-3.571 8.981 8.981 0 0 0-3.019-2.504 8.538 8.538 0 0 0-4-0.944h-8.194z m26.182 0a6.59 6.59 0 0 0-2.205 0.366 6.73 6.73 0 0 0-3.399 2.622 6.748 6.748 0 0 0-0.927 2.051l-1.835 6.802a4.601 4.601 0 0 0-0.072 2.296 5.148 5.148 0 0 0 0.927 2.016 4.949 4.949 0 0 0 1.704 1.41 4.841 4.841 0 0 0 2.25 0.52h11.308a2.386 2.386 0 0 0 1.501-0.511 2.536 2.536 0 0 0 0.904-1.315l0.949-3.575h-12.42a0.904 0.904 0 0 1-0.863-1.139l1.351-5.093a1.537 1.537 0 0 1 0.511-0.733 1.27 1.27 0 0 1 0.813-0.289h5.569a0.692 0.692 0 0 1 0.664 0.872l-0.118 0.452c-0.099 0.339-0.321 0.511-0.659 0.511h-3.661a2.432 2.432 0 0 0-1.532 0.502 2.377 2.377 0 0 0-0.864 1.324l-0.601 2.215h9.058a4.009 4.009 0 0 0 2.472-0.818 3.905 3.905 0 0 0 1.446-2.183l0.542-2.034a5.017 5.017 0 0 0 0.059-2.319 4.863 4.863 0 0 0-0.917-2.002 5.179 5.179 0 0 0-1.695-1.415 4.732 4.732 0 0 0-2.251-0.537h-8.009Z"/></svg>