<svg fill="#E62431" role="img" viewBox="0 0 25 24" xmlns="http://www.w3.org/2000/svg"><title>C++ Builder</title><path d="M24.424 10.659a11.885 11.885 0 0 0-0.461-2.21 11.927 11.927 0 0 0-1.469-3.089 12.003 12.003 0 0 0-1.362-1.692 11.995 11.995 0 0 0-3.017-2.274 11.851 11.851 0 0 0-2.343-0.941A11.917 11.917 0 0 0 14.284 0.133c-0.462-0.069-0.927-0.114-1.394-0.124-0.236-0.005-0.473-0.015-0.709-0.004-0.345 0.016-0.691 0.036-1.033 0.077-0.385 0.047-0.77 0.108-1.151 0.182-0.501 0.098-0.99 0.241-1.471 0.411C7.277 1.114 6.132 1.743 5.09 2.561c-0.406 0.319-0.792 0.662-1.153 1.031-0.81 0.826-1.489 1.748-2.033 2.769A11.912 11.912 0 0 0 0.893 8.94c-0.138 0.524-0.24 1.055-0.306 1.592-0.052 0.429-0.08 0.859-0.087 1.291a11.918 11.918 0 0 0 0.073 1.527c0.138 1.23 0.457 2.41 0.962 3.541 0.536 1.2 1.251 2.284 2.142 3.25a11.984 11.984 0 0 0 2.913 2.312c0.726 0.412 1.487 0.744 2.283 0.996 0.587 0.187 1.185 0.325 1.795 0.418 0.481 0.073 0.965 0.119 1.452 0.133 0.013 0 0.819-0.002 0.868-0.004a12.1 12.1 0 0 0 1.543-0.163c1.077-0.182 2.109-0.508 3.096-0.975 1.136-0.537 2.162-1.238 3.078-2.097 0.98-0.919 1.783-1.972 2.411-3.159 0.371-0.701 0.668-1.433 0.892-2.194 0.162-0.55 0.29-1.107 0.365-1.675 0.053-0.406 0.087-0.816 0.112-1.225 0.038-0.617 0.007-1.234-0.061-1.849z m-5.831 7.557c-0.043 0.276-0.164 0.479-0.324 0.706-0.173 0.245-0.418 0.418-0.657 0.594-1.029 0.758-2.411 1.342-3.669 1.562-0.469 0.082-2.956 0.504-5.4-0.692-1.117-0.547-2.169-1.337-2.987-2.276-1.76-2.018-2.561-4.629-2.217-7.254 0.334-2.555 1.763-4.9 3.859-6.388 1.043-0.74 2.173-1.226 3.425-1.473 0.647-0.127 1.298-0.174 1.956-0.162 0.669 0.011 1.336 0.115 1.985 0.275 0.625 0.153 1.231 0.394 1.807 0.68 0.565 0.281 1.169 0.634 1.642 1.056 0.449 0.4 0.665 0.973 0.592 1.572-0.088 0.715-0.448 1.121-0.967 1.36-0.506 0.233-1.131 0.191-1.598-0.115-0.259-0.17-0.484-0.385-0.747-0.552-0.265-0.167-0.546-0.292-0.834-0.412-0.607-0.254-1.213-0.359-1.865-0.399-0.625-0.038-1.361 0.071-1.959 0.258-1.207 0.376-2.26 1.1-2.973 2.154-0.72 1.064-1.108 2.323-1.031 3.61 0.075 1.251 0.555 2.494 1.341 3.444 0.789 0.954 1.922 1.593 3.109 1.854 1.27 0.279 2.613 0.141 3.775-0.458 0.283-0.146 0.554-0.298 0.807-0.492 0.238-0.182 0.458-0.363 0.75-0.45 0.577-0.172 1.224-0.033 1.671 0.367 0.427 0.384 0.597 1.07 0.509 1.631z m-7.322-5.024h-1.798c-0.26 0-0.415-0.155-0.415-0.415a457.229 457.229 0 0 1 0-1.049c0-0.256 0.156-0.411 0.413-0.412 0.382-0.001 0.765 0 1.148 0h0.721V9.445c0-0.257 0.155-0.413 0.411-0.414a331.108 331.108 0 0 1 1.054 0c0.252 0 0.408 0.156 0.409 0.411 0.001 0.541 0 1.082 0 1.623v0.251h1.86c0.267 0 0.422 0.153 0.422 0.421 0.001 0.35 0.001 0.699 0 1.049 0 0.248-0.158 0.406-0.407 0.406-0.599 0.001-1.198 0-1.797 0h-0.078v1.865c0 0.263-0.154 0.419-0.418 0.419-0.349 0.001-0.699 0.001-1.048 0-0.252 0-0.408-0.158-0.408-0.411-0.001-0.6 0-1.199 0-1.799v-0.074h-0.069z m12.108-0.406c0 0.248-0.158 0.406-0.407 0.406-0.599 0.001-1.198 0-1.798 0h-0.077v1.865c0 0.263-0.154 0.419-0.418 0.419-0.349 0.001-0.699 0.001-1.048 0-0.252 0-0.408-0.158-0.408-0.411-0.001-0.6 0-1.199 0-1.799v-0.074h-1.867c-0.26 0-0.415-0.155-0.416-0.415a456.716 456.716 0 0 1 0-1.049c0-0.256 0.156-0.411 0.414-0.412 0.382-0.001 0.765 0 1.147 0h0.722V9.445c0-0.257 0.155-0.413 0.411-0.414 0.351-0.001 0.703 0 1.054 0 0.252 0 0.408 0.156 0.409 0.411 0.001 0.541 0 1.082 0 1.623v0.251h1.86c0.267 0 0.422 0.153 0.422 0.421 0.001 0.35 0.001 0.699 0 1.049z"/></svg>