<svg fill="#D6001C" role="img" viewBox="0 0 101 24" xmlns="http://www.w3.org/2000/svg"><title>Craftsman</title><path d="M1.895 1.802v20.577h97.21V1.802Zm6.481 4.801h0.723l3.721 0.059v2.402h-3.125v6.233h3.125v2.403H8.376l-1.558-1.554v-7.985z m7.14 0h5.221l1.974 1.319v4.137l-1.554 1.025 2.525 4.561h-3.066l-2.218-4.087v4.087h-2.877Zm11.824 0H31.599l1.5 1.319v9.723h-2.584v-3.667h-2.033v3.667h-2.646v-9.723z m8.694 0h5.583v2.574H39.033v2.168h2.281v2.394h-2.281v3.906h-2.999Zm8.166 0h7.081l-0.84 2.642h-1.86v8.4h-2.823v-8.4h-2.394z m8.82 0h6.536l-0.714 2.574h-3.541l4.322 5.94-0.844 2.583h-7.195l0.777-2.462h3.956l-3.956-5.821z m8.821 0h3.419l1.738 4.074 1.681-4.074h3.423v10.975h-2.823v-6.594l-1.676 4.019h-1.26l-1.68-3.965v6.607h-2.827z m14.999 0h4.259l1.503 1.319v9.723h-2.646v-3.667h-2.033v3.667h-2.583v-9.723z m8.639 0h2.642l2.583 5.939v-5.939h2.634v11.042h-2.634l-2.583-5.947v5.947h-2.642z m-57.064 2.335v2.579h2.046v-2.579z m49.508 0v2.579h2.037v-2.579z m-59.525 0.059v2.402h1.503v-2.402ZM0.097 0h100.806v24H0.097Z"/></svg>