<svg fill="#FF6A4C" role="img" viewBox="0 0 45 24" xmlns="http://www.w3.org/2000/svg"><title>Crayon</title><path d="M3.838 20.471C6.132 22.765 9.132 23.912 12.132 23.912c3 0 6-1.147 8.295-3.441l10.764-10.765-2.647-2.647-10.764 10.676c-3.088 3.088-8.118 3.088-11.295 0l-0.176-0.176c-3.088-3.088-3.088-8.118 0-11.294l0.176-0.177c3.088-3.088 8.118-3.088 11.295 0l0.882 0.971 2.647-2.647-0.882-0.971c-4.588-4.588-12.088-4.588-16.677 0l-0.088 0.265c-4.588 4.588-4.588 12.088 0 16.676z m37.236-16.942c-2.294-2.294-5.294-3.441-8.295-3.441-3 0-6 1.147-8.294 3.441l-10.764 10.765 2.647 2.647 10.764-10.676c3.088-3.088 8.118-3.088 11.294 0l0.177 0.176c3.088 3.088 3.088 8.118 0 11.294l-0.177 0.177c-3.088 3.088-8.118 3.088-11.294 0l-0.882-0.883-2.647 2.648 0.882 0.882c4.588 4.588 12.088 4.588 16.677 0l0.176-0.177c4.588-4.588 4.588-12.088 0-16.676-0.088 0-0.265-0.176-0.264-0.177z"/></svg>