<svg fill="#000000" role="img" viewBox="0 0 133 24" xmlns="http://www.w3.org/2000/svg"><title>Creative Technology</title><path d="M74.669 18.889h-3.273l-5.674-12.216-5.542 12.216h-2.837l8.517-18.889 8.804 18.889M15.74 7.529s-0.994-0.569-1.562-0.856c-1.137-0.425-2.699-0.994-4.405-0.993-3.406 0-6.53 1.562-6.53 5.542 0 3.974 2.981 5.536 6.679 5.536 1.844 0 3.687-0.569 4.681-1.419 0.569-0.431 1.419-1.281 1.419-1.28l1.562 2.412-1.275 0.856c-1.281 0.85-2.981 1.987-6.679 1.987C4.954 19.314 0.263 16.896 0.263 11.222c0-5.117 4.399-8.098 9.797-8.098 2.412 0 4.261 0.569 5.537 1.281 0.712 0 1.706 0.707 1.705 0.706l-1.562 2.418m41.603 14.053h17.321v2.418h-17.321v-2.418m66.877-11.784h4.118v2.98h-4.118v-2.98m-6.11-0.282v-6.105H132.737v2.412h-11.646v3.693h-2.981m2.981 3.124v3.831H132.737v2.418h-14.627v-6.249h2.981M26.68 9.792h3.688c1.562 0 2.843-0.569 2.842-1.987s-1.281-2.131-2.842-2.131H23.832v13.066h-2.981v-15.334h9.798c3.693 0 5.68 1.987 5.68 4.399 0 2.412-1.562 4.261-4.261 4.405l4.117 5.68c0.144 0.425 0.569 0.994 0.569 0.993h-3.836L26.675 9.792m56.224 9.091h-2.98V5.818h-6.105v-2.412h15.477v2.412h-6.105l-0.287 13.065m12.354 0h-2.981v-15.477h2.981v15.477m17.321-15.477l-5.255 11.646-5.25-11.646h-3.411l7.242 15.477h2.981l7.104-15.621h-3.411M46.552 9.516h4.117v2.981h-4.117v-2.981m-6.105 0v-6.105h14.627v2.412H43.427v3.693h-2.98m3.124 3.124v3.831h11.641v2.418H40.447v-6.249h3.124"/></svg>