<svg fill="#000000" role="img" viewBox="0 0 173 24" xmlns="http://www.w3.org/2000/svg"><title>Creality</title><path d="M23.376 0l-12.733 0.072c-5.641 0.208-10.204 5.296-10.369 11.59v0.633c0.129 6.489 4.958 11.705 10.85 11.705h12.252c0.072 0 0.144-0.079 0.143-0.172v-4.333a0.158 0.158 0 0 0-0.143-0.158H11.11c-3.6 0-6.611-3.183-6.668-7.193-0.05-4.089 2.91-7.43 6.553-7.43l12.381-0.051c0.072 0 0.144-0.072 0.143-0.158v-4.333c0-0.093-0.072-0.172-0.143-0.172z m2.96 0c-0.079 0-0.144 0.079-0.144 0.172v23.656c0 0.093 0.065 0.172 0.144 0.172h3.88c0.086 0 0.144-0.079 0.144-0.172V4.814c0-0.086 0.065-0.151 0.144-0.151h11.54c1.207 0 2.256 1.042 2.299 2.393 0.043 1.423-0.984 2.587-2.249 2.587l-11.015 0.014c-0.129 0-0.201 0.165-0.115 0.266l12.575 14.012c0.029 0.036 0.065 0.065 0.1 0.065H49.136c0.122 0 0.187-0.18 0.101-0.287L40.801 14.299h1.315c3.564 0 6.453-3.262 6.395-7.257-0.043-3.923-2.989-7.042-6.503-7.042h-15.665Zm35.016 0c-5.943 0-10.778 5.389-10.779 12 0 6.611 4.836 12 10.779 12h12.072c0.072 0 0.144-0.079 0.143-0.172v-4.333c0-0.086-0.072-0.158-0.143-0.158H61.352c-2.903 0-5.389-2.098-6.259-5.009h18.323c0.086 0 0.144-0.072 0.144-0.165v-4.34c0-0.086-0.057-0.151-0.144-0.151h-18.323c0.884-2.91 3.363-5.008 6.266-5.009h12.072c0.072 0 0.144-0.086 0.143-0.172v-4.319c0-0.093-0.072-0.172-0.143-0.172z m26.651 0c-0.093 0-0.187 0.065-0.237 0.172l-12.216 23.569c-0.05 0.115 0 0.259 0.115 0.259h4.491a0.144 0.144 0 0 0 0.13-0.086l7.588-14.695a0.144 0.144 0 0 1 0.259 0l5.101 9.88c0.057 0.108-0.014 0.237-0.122 0.238h-6.668c-0.05 0-0.086 0.036-0.108 0.086l-2.249 4.326c-0.057 0.108 0.014 0.237 0.129 0.237h16.111c0.108 0 0.18-0.129 0.122-0.237l-12.194-23.577a0.295 0.295 0 0 0-0.252-0.172z m14.587 0.014c-0.072 0-0.144 0.072-0.144 0.158v21.126c0 1.487 1.078 2.702 2.415 2.702h15.434c0.072 0 0.158-0.079 0.158-0.172v-4.333a0.158 0.158 0 0 0-0.158-0.158H106.765A0.158 0.158 0 0 1 106.621 19.186v-19.014c0-0.093-0.072-0.158-0.144-0.158h-3.88z m20.407 0c-0.072 0-0.144 0.072-0.144 0.158v23.656c0 0.093 0.072 0.172 0.144 0.172h3.895c0.072 0 0.144-0.079 0.144-0.172v-23.656c0-0.093-0.072-0.158-0.144-0.158h-3.88z m6.108 0c-0.072 0-0.144 0.072-0.144 0.158v4.319c0 0.086 0.072 0.172 0.144 0.172h8.4c0.072 0 0.144 0.065 0.144 0.151v19.014c0 0.093 0.072 0.158 0.143 0.158h3.881c0.072 0 0.144-0.072 0.143-0.158V4.814a0.144 0.144 0 0 1 0.144-0.151h8.422a0.144 0.144 0 0 1 0.107 0.051l7.315 9.729a0.144 0.144 0 0 1 0.029 0.101v9.284c0 0.093 0.057 0.172 0.144 0.172h3.88c0.079 0 0.144-0.079 0.144-0.172v-9.284c0-0.043 0.022-0.072 0.043-0.101l10.649-14.156c0.079-0.115 0.007-0.273-0.115-0.273h-5.066a0.144 0.144 0 0 0-0.108 0.058l-7.372 9.794a0.144 0.144 0 0 1-0.216 0l-7.372-9.794a0.144 0.144 0 0 0-0.115-0.058z"/></svg>