<svg fill="#09D3AC" role="img" viewBox="0 0 27 24" xmlns="http://www.w3.org/2000/svg"><title>Create React App</title><path d="M24.333 10.74c0-1.336-1.573-2.52-3.991-3.243 0.582-2.457 0.328-4.412-0.83-5.073a1.856 1.856 0 0 0-0.929-0.232c-1.08 0-2.445 0.754-3.823 2.059-1.378-1.295-2.74-2.045-3.818-2.045a1.856 1.856 0 0 0-0.942 0.236c-1.151 0.663-1.39 2.606-0.816 5.051-2.406 0.72-3.971 1.895-3.975 3.224-0.003 1.33 1.575 2.52 3.993 3.242-0.582 2.458-0.33 4.412 0.83 5.072 0.283 0.158 0.603 0.238 0.926 0.233 1.082 0 2.447-0.754 3.825-2.06 1.376 1.295 2.738 2.045 3.818 2.046a1.856 1.856 0 0 0 0.942-0.236c1.151-0.663 1.388-2.606 0.816-5.041 2.407-0.729 3.971-1.905 3.973-3.233m-8.685-6.051c1.588-1.421 2.581-1.575 2.933-1.574a0.917 0.917 0 0 1 0.47 0.112c0.555 0.317 0.775 1.431 0.599 2.908a10.921 10.921 0 0 1-0.194 1.123 18.565 18.565 0 0 0-2.439-0.401 19.111 19.111 0 0 0-1.597-1.955q0.107-0.107 0.229-0.213m-4.806 7.151q0.227 0.436 0.478 0.874c0.167 0.293 0.342 0.59 0.535 0.882a18.565 18.565 0 0 1-1.519-0.283c0.135-0.493 0.308-0.977 0.506-1.474m-0.537-3.691q0.737-0.173 1.537-0.284c-0.193 0.287-0.36 0.582-0.535 0.89s-0.328 0.582-0.477 0.876a22.933 22.933 0 0 1-0.524-1.483M11.316 10.734q0.36-0.761 0.793-1.525c0.292-0.508 0.603-1.003 0.925-1.474q0.847-0.066 1.745-0.066c0.6 0.002 1.163 0.024 1.723 0.069 0.322 0.47 0.63 0.969 0.922 1.464 0.29 0.495 0.558 1.012 0.798 1.518a21.841 21.841 0 0 1-1.716 2.999 21.841 21.841 0 0 1-3.468-0.004 21.841 21.841 0 0 1-0.923-1.463 22.933 22.933 0 0 1-0.791-1.518z m6.371-2.865c0.527 0.074 1.037 0.169 1.52 0.282-0.143 0.478-0.315 0.97-0.512 1.463q-0.228-0.435-0.481-0.873a41.498 41.498 0 0 0-0.519-0.872z m0.535 4.833q0.25-0.44 0.477-0.879c0.193 0.505 0.388 1.001 0.524 1.485q-0.736 0.171-1.536 0.281 0.281-0.431 0.543-0.887z m-3.456-7.142q0.524 0.56 1.026 1.209a25.117 25.117 0 0 0-1.013-0.023c-0.343 0-0.695 0-1.033 0.023a16.381 16.381 0 0 1 1.02-1.208M10.464 3.236a0.939 0.939 0 0 1 0.478-0.108 2.512 2.512 0 0 1 1.007 0.254 7.644 7.644 0 0 1 1.939 1.314l0.227 0.207a19.111 19.111 0 0 0-1.583 1.94 19.657 19.657 0 0 0-2.452 0.398 9.828 9.828 0 0 1-0.194-1.098c-0.202-1.463 0.031-2.581 0.576-2.9z m-1.026 9.83a10.921 10.921 0 0 1-1.074-0.387c-1.376-0.582-2.23-1.328-2.23-1.966S6.991 9.329 8.367 8.758a10.921 10.921 0 0 1 1.055-0.377 18.565 18.565 0 0 0 0.885 2.354 19.657 19.657 0 0 0-0.867 2.329m4.46 3.702c-1.588 1.422-2.581 1.573-2.936 1.573a0.906 0.906 0 0 1-0.469-0.112c-0.554-0.317-0.775-1.431-0.599-2.908a10.921 10.921 0 0 1 0.194-1.121q1.207 0.278 2.439 0.399 0.734 1.032 1.598 1.955z m0.885-0.873q-0.524-0.558-1.028-1.208 0.5 0.023 1.015 0.023c0.343 0 0.695 0 1.033-0.022q-0.503 0.648-1.021 1.207z m4.301 2.326a0.939 0.939 0 0 1-0.481 0.114c-0.353 0-1.357-0.155-2.939-1.57l-0.227-0.208a19.111 19.111 0 0 0 1.581-1.938 18.565 18.565 0 0 0 2.454-0.4q0.13 0.566 0.194 1.1c0.192 1.461-0.032 2.578-0.584 2.894z m2.094-5.514q-0.497 0.205-1.055 0.374a19.111 19.111 0 0 0-0.886-2.353q0.512-1.136 0.871-2.326 0.546 0.166 1.074 0.387c1.375 0.582 2.23 1.328 2.227 1.965s-0.857 1.373-2.233 1.945z m-6.413-0.197c0.352 0 0.696-0.105 0.988-0.299a1.78 1.78 0 0 0 0.656-0.798 1.78 1.78 0 0 0 0.103-1.029 1.78 1.78 0 0 0-0.486-0.912 1.78 1.78 0 0 0-0.911-0.488 1.78 1.78 0 0 0-1.028 0.101 1.78 1.78 0 0 0-0.8 0.655 1.78 1.78 0 0 0-0.301 0.988 1.747 1.747 0 0 0 0.134 0.682 1.78 1.78 0 0 0 1.645 1.099M2.938 0v21.453H26.605V0.001z m22.742 20.531H3.864V0.926h21.816z m-16.479-6.573c-0.582 2.458-0.331 4.412 0.828 5.072 0.283 0.158 0.603 0.238 0.928 0.233 1.081 0 2.446-0.754 3.825-2.06 1.376 1.295 2.737 2.045 3.817 2.045a1.856 1.856 0 0 0 0.942-0.235c1.152-0.663 1.388-2.606 0.817-5.041 2.406-0.721 3.971-1.897 3.972-3.225 0.002-1.328-1.573-2.52-3.989-3.244 0.581-2.457 0.328-4.412-0.83-5.072a1.856 1.856 0 0 0-0.929-0.233c-1.081 0-2.446 0.754-3.824 2.06-1.378-1.295-2.739-2.045-3.818-2.046a1.856 1.856 0 0 0-0.941 0.236C8.847 3.113 8.608 5.055 9.182 7.501c-2.406 0.72-3.971 1.895-3.975 3.225-0.003 1.33 1.577 2.508 3.995 3.234z m4.692 2.809c-1.588 1.421-2.581 1.573-2.935 1.573a0.906 0.906 0 0 1-0.47-0.113c-0.554-0.317-0.775-1.431-0.598-2.908a10.921 10.921 0 0 1 0.194-1.121 19.657 19.657 0 0 0 2.439 0.399q0.734 1.032 1.597 1.955z m4.807-7.153a26.209 26.209 0 0 0-0.48-0.873c-0.169-0.294-0.349-0.582-0.529-0.872 0.527 0.074 1.037 0.169 1.52 0.282-0.142 0.478-0.312 0.97-0.51 1.463z m0.528 3.684q-0.735 0.171-1.537 0.282a22.933 22.933 0 0 0 1.013-1.766c0.204 0.513 0.38 1.006 0.519 1.494z m-1.01-2.588a21.841 21.841 0 0 1-1.717 3 21.841 21.841 0 0 1-3.468-0.005 21.841 21.841 0 0 1-1.721-2.981q0.36-0.761 0.792-1.525c0.29-0.508 0.603-1.003 0.925-1.474a22.496 22.496 0 0 1 3.469 0.005c0.321 0.467 0.63 0.968 0.92 1.463 0.29 0.494 0.56 1.021 0.801 1.527z m-6.363 2.885a18.565 18.565 0 0 1-1.519-0.283c0.142-0.477 0.316-0.97 0.514-1.463q0.227 0.436 0.478 0.873c0.167 0.293 0.334 0.58 0.527 0.874M11.316 8.75q-0.252 0.435-0.477 0.875a19.657 19.657 0 0 1-0.533-1.477q0.737-0.17 1.537-0.283c-0.18 0.287-0.353 0.583-0.527 0.885m3.467 7.144q-0.524-0.558-1.03-1.208 0.5 0.023 1.016 0.023c0.343 0 0.695 0 1.033-0.022a17.473 17.473 0 0 1-1.019 1.207m4.3 2.326a0.939 0.939 0 0 1-0.481 0.114c-0.353 0-1.357-0.155-2.939-1.57l-0.227-0.207a19.111 19.111 0 0 0 1.58-1.939 18.565 18.565 0 0 0 2.454-0.399q0.131 0.566 0.195 1.099c0.194 1.461-0.029 2.578-0.582 2.894z m1.024-9.822q0.546 0.167 1.073 0.388c1.376 0.582 2.23 1.329 2.228 1.965-0.001 0.639-0.855 1.389-2.231 1.962q-0.497 0.205-1.055 0.373a19.111 19.111 0 0 0-0.885-2.353q0.511-1.142 0.87-2.343z m-4.46-3.701c1.588-1.421 2.581-1.575 2.934-1.575a0.917 0.917 0 0 1 0.47 0.113c0.554 0.317 0.775 1.431 0.598 2.908a10.921 10.921 0 0 1-0.194 1.122 18.565 18.565 0 0 0-2.439-0.4 19.111 19.111 0 0 0-1.597-1.955q0.11-0.117 0.23-0.221z m-0.881 0.865q0.524 0.558 1.026 1.208a25.117 25.117 0 0 0-1.013-0.023c-0.343 0-0.695 0-1.033 0.022a16.381 16.381 0 0 1 1.02-1.207M10.464 3.236a0.939 0.939 0 0 1 0.478-0.109 2.512 2.512 0 0 1 1.007 0.254 7.644 7.644 0 0 1 1.939 1.314l0.227 0.207a19.111 19.111 0 0 0-1.583 1.94 19.657 19.657 0 0 0-2.452 0.398 9.828 9.828 0 0 1-0.194-1.098c-0.202-1.463 0.031-2.581 0.576-2.9zM8.366 8.758a10.921 10.921 0 0 1 1.055-0.377 18.565 18.565 0 0 0 0.885 2.354 19.657 19.657 0 0 0-0.872 2.326 10.921 10.921 0 0 1-1.074-0.387c-1.376-0.582-2.229-1.328-2.229-1.965s0.861-1.379 2.235-1.951m6.399 0.194a1.78 1.78 0 0 0-0.99 0.299 1.78 1.78 0 0 0-0.656 0.797 1.78 1.78 0 0 0-0.103 1.029 1.78 1.78 0 0 0 3.526-0.343 1.747 1.747 0 0 0-0.131-0.685 1.747 1.747 0 0 0-0.385-0.582 1.747 1.747 0 0 0-0.579-0.389 1.747 1.747 0 0 0-0.682-0.136za1.78 1.78 0 0 0-0.99 0.299 1.78 1.78 0 0 0-0.656 0.797 1.78 1.78 0 0 0-0.103 1.029 1.78 1.78 0 0 0 3.526-0.343 1.747 1.747 0 0 0-0.131-0.685 1.747 1.747 0 0 0-0.385-0.582 1.747 1.747 0 0 0-0.579-0.389 1.747 1.747 0 0 0-0.682-0.136za1.78 1.78 0 0 0-0.99 0.299 1.78 1.78 0 0 0-0.656 0.797 1.78 1.78 0 0 0-0.103 1.029 1.78 1.78 0 0 0 3.526-0.343 1.747 1.747 0 0 0-0.131-0.685 1.747 1.747 0 0 0-0.385-0.582 1.747 1.747 0 0 0-0.579-0.389 1.747 1.747 0 0 0-0.682-0.136z m9.567 1.791c0-1.336-1.573-2.519-3.99-3.244 0.582-2.457 0.328-4.411-0.83-5.071a1.856 1.856 0 0 0-0.929-0.233c-1.08 0-2.445 0.754-3.823 2.059-1.378-1.295-2.74-2.045-3.818-2.046a1.856 1.856 0 0 0-0.942 0.237c-1.151 0.663-1.39 2.606-0.816 5.051-2.406 0.719-3.971 1.894-3.975 3.224-0.003 1.33 1.575 2.52 3.993 3.242-0.582 2.457-0.33 4.411 0.83 5.071 0.283 0.158 0.603 0.239 0.926 0.233 1.082 0 2.447-0.754 3.825-2.059 1.376 1.295 2.738 2.045 3.818 2.046 0.33 0.005 0.655-0.076 0.942-0.237 1.151-0.663 1.388-2.606 0.816-5.041 2.407-0.733 3.971-1.908 3.973-3.236z m-8.684-6.055c1.588-1.421 2.581-1.575 2.933-1.575a0.917 0.917 0 0 1 0.47 0.113c0.555 0.317 0.775 1.431 0.599 2.908a10.921 10.921 0 0 1-0.194 1.123 18.565 18.565 0 0 0-2.439-0.401 19.111 19.111 0 0 0-1.597-1.955q0.107-0.107 0.229-0.213m-4.806 7.151q0.227 0.436 0.478 0.874c0.167 0.293 0.342 0.59 0.535 0.882a18.565 18.565 0 0 1-1.519-0.283c0.135-0.493 0.308-0.977 0.506-1.474m-0.537-3.691q0.737-0.173 1.537-0.284c-0.193 0.287-0.36 0.582-0.535 0.89s-0.328 0.582-0.477 0.876a22.933 22.933 0 0 1-0.524-1.483M11.316 10.734q0.36-0.761 0.793-1.525c0.292-0.508 0.603-1.003 0.925-1.474q0.847-0.066 1.745-0.066c0.6 0.002 1.163 0.024 1.723 0.069 0.322 0.47 0.63 0.969 0.922 1.464 0.29 0.495 0.558 1.012 0.798 1.518a21.841 21.841 0 0 1-1.716 2.999 21.841 21.841 0 0 1-3.468-0.004 21.841 21.841 0 0 1-0.923-1.463 22.933 22.933 0 0 1-0.791-1.518z m6.371-2.865c0.527 0.074 1.037 0.169 1.52 0.282-0.143 0.478-0.315 0.97-0.512 1.463q-0.228-0.435-0.481-0.873a41.498 41.498 0 0 0-0.519-0.872z m0.535 4.833q0.25-0.44 0.477-0.879c0.193 0.505 0.388 1.001 0.524 1.485q-0.736 0.171-1.536 0.281 0.281-0.431 0.543-0.887z m-3.456-7.142q0.524 0.56 1.026 1.209a25.117 25.117 0 0 0-1.013-0.023c-0.343 0-0.695 0-1.033 0.023a16.381 16.381 0 0 1 1.02-1.208M10.464 3.236a0.939 0.939 0 0 1 0.478-0.108 2.512 2.512 0 0 1 1.007 0.254 7.644 7.644 0 0 1 1.939 1.314l0.227 0.207a19.111 19.111 0 0 0-1.583 1.94 19.657 19.657 0 0 0-2.452 0.398 9.828 9.828 0 0 1-0.194-1.098c-0.202-1.463 0.031-2.581 0.576-2.9z m-1.026 9.83a10.921 10.921 0 0 1-1.074-0.387c-1.376-0.582-2.23-1.328-2.23-1.966S6.991 9.329 8.367 8.758a10.921 10.921 0 0 1 1.055-0.377 18.565 18.565 0 0 0 0.885 2.354 19.657 19.657 0 0 0-0.867 2.329m4.46 3.702c-1.588 1.422-2.581 1.573-2.936 1.573a0.906 0.906 0 0 1-0.469-0.112c-0.554-0.317-0.775-1.431-0.599-2.908a10.921 10.921 0 0 1 0.194-1.121q1.207 0.278 2.439 0.399 0.734 1.032 1.598 1.955z m0.885-0.873q-0.524-0.558-1.028-1.208 0.5 0.023 1.015 0.023c0.343 0 0.695 0 1.033-0.022q-0.503 0.648-1.021 1.207z m4.301 2.326a0.939 0.939 0 0 1-0.481 0.114c-0.353 0-1.357-0.155-2.939-1.57l-0.227-0.208a19.111 19.111 0 0 0 1.581-1.938 18.565 18.565 0 0 0 2.454-0.4q0.13 0.566 0.194 1.1c0.192 1.461-0.032 2.578-0.584 2.894z m2.094-5.514q-0.497 0.205-1.055 0.374a19.111 19.111 0 0 0-0.886-2.353q0.512-1.136 0.871-2.326 0.546 0.166 1.074 0.387c1.375 0.582 2.23 1.328 2.227 1.965s-0.857 1.373-2.233 1.945z m-6.413-0.197c0.352 0 0.696-0.105 0.988-0.299a1.78 1.78 0 0 0 0.656-0.798 1.78 1.78 0 0 0 0.103-1.029 1.78 1.78 0 0 0-0.486-0.912 1.78 1.78 0 0 0-0.911-0.488 1.78 1.78 0 0 0-1.028 0.101 1.78 1.78 0 0 0-0.8 0.655 1.78 1.78 0 0 0-0.301 0.988 1.747 1.747 0 0 0 0.134 0.682 1.78 1.78 0 0 0 1.645 1.099M1.324 23.074V1.615L0.395 2.544v21.456h23.664l0.927-0.925z"/></svg>