<svg fill="#FF6B00" role="img" viewBox="0 0 48 24" xmlns="http://www.w3.org/2000/svg"><title>Credly</title><path d="M47.599 14.308a0.598 0.598 0 0 0-0.202-0.048 0.814 0.814 0 0 0-0.404 0.096c-0.12 0.056-0.184 0.16-0.254 0.272-0.174 0.256-0.3 0.536-0.452 0.8-0.214 0.374-0.492 0.702-0.76 1.03-0.27 0.312-0.572 0.582-0.848 0.88-0.056 0.054-0.144 0.086-0.214 0.054-0.056-0.032-0.072-0.112-0.064-0.176 0.08-0.76 0.15-1.526 0.246-2.276 0.04-0.344 0.086-0.672 0.126-1.024 0.056-0.494 0.112-0.974 0.174-1.47l0.468-3.648c0.04-0.256 0.064-0.744-0.27-1.04a0.892 0.892 0 0 0-0.466-0.232 0.92 0.92 0 0 0-0.508 0.12c-0.452 0.32-0.594 1.008-0.73 1.52-0.284 1.206-0.356 2.482-0.942 3.608a3.544 3.544 0 0 1-0.404 0.632 1.336 1.336 0 0 1-0.372 0.36 0.664 0.664 0 0 1-0.492 0.102 0.73 0.73 0 0 1-0.476-0.414 1.742 1.74 0 0 1-0.126-0.648 8.998 8.998 0 0 1 0.48-3.17c0.09-0.264 0.178-0.504 0.208-0.766 0.056-0.312 0.056-0.76-0.228-1.032-0.262-0.256-0.674-0.36-1.008-0.256-0.388 0.112-0.62 0.488-0.744 0.784-0.396 0.926-0.5 1.9-0.634 2.892-0.088 0.654-0.254 1.28-0.586 1.852a5.434 5.434 0 0 1-1.206 1.44c-0.236 0.174-0.444 0.246-0.656 0.214a0.752 0.752 0 0 1-0.556-0.416 1.75 1.75 0 0 1-0.19-0.63 6.722 6.72 0 0 1-0.072-1.232c0.008-0.446 0-0.88 0.088-1.316 0.15-0.78 1.356-3.874 1.616-4.69 0.27-0.814 0.524-1.646 0.706-2.492 0.16-0.76 0.246-1.534 0.22-2.3-0.014-0.554-0.14-1.152-0.576-1.472a1.222 1.22 0 0 0-1.206-0.096 1.936 1.936 0 0 0-0.91 0.856 5.06 5.06 0 0 0-0.452 1.18 24.02 24.02 0 0 0-0.532 2.58c-0.142 0.858-0.276 1.696-0.412 2.536-0.12 0.71-0.412 3.228-0.522 3.76-0.12 0.544-0.35 1.08-0.602 1.574-0.262 0.536-0.516 1.072-0.816 1.582a1.388 1.388 0 0 1-0.35 0.448c-0.16 0.12-0.364 0.176-0.54 0.096-0.204-0.096-0.292-0.352-0.332-0.584-0.15-0.87-0.024-1.75 0.144-2.604 0.166-0.862 0.88-4.8 1.038-5.702 0.198-1.064 0.48-2.1 0.57-3.18 0.056-0.776 0.18-1.76-0.404-2.374-0.23-0.272-0.62-0.32-0.88-0.272-0.348 0.072-0.62 0.352-0.776 0.592-0.2 0.256-0.372 0.56-0.516 0.934-0.23 0.568-0.372 1.23-0.522 1.82l-0.064 0.258c-0.166 0.766-0.286 1.54-0.372 2.324a33.9 33.896 0 0 0-0.12 1.264c-0.016 0.2-0.032 0.406-0.054 0.614 0 0.16 0.014 0.336-0.056 0.488a0.608 0.608 0 0 1-0.104 0.136c-0.16 0.144-0.404 0.12-0.62 0.112-1.114-0.032-2.09 0.6-2.699 1.51-0.36 0.504-0.562 1.084-0.78 1.668-0.02 0.096-0.068 0.2-0.108 0.304-0.102 0.286-0.26 0.654-0.444 1.022a6.074 6.074 0 0 1-0.634 0.92 6.57 6.57 0 0 1-0.768 0.82 2.246 2.246 0 0 1-1.03 0.52c-0.348 0.08-0.768-0.086-1.086-0.406a1.832 1.832 0 0 1-0.412-1.08c-0.008-0.11-0.008-0.23 0.056-0.326 0.1-0.136 0.292-0.144 0.46-0.152a3.246 3.246 0 0 0 2.75-2.03c0.276-0.68 0.356-1.396 0.244-2.092a2.386 2.386 0 0 0-0.38-0.96 1.8 1.8 0 0 0-0.792-0.646c-0.586-0.28-1.316-0.254-2.02 0.008-1.15 0.464-1.902 1.48-2.268 3.124l-0.04 0.176c-0.228 0.974-0.46 2-1.164 2.708-0.254 0.24-0.522 0.326-0.736 0.286-0.088-0.008-0.16-0.08-0.206-0.15-0.192-0.32 0.006-1.064 0.3-2a8.2 8.2 0 0 0 0.2-0.732 1.85 1.85 0 0 0-0.216-0.99 1.566 1.566 0 0 0-0.744-0.648c-0.286-0.128-0.62-0.12-0.936-0.12h-0.094c-0.088 0-0.206 0-0.302-0.024a0.43 0.43 0 0 1-0.294-0.254 0.97 0.97 0 0 1 0.032-0.464c0.008-0.04 0.024-0.096 0.032-0.144a0.736 0.736 0 0 0-0.324-0.824 1.018 1.018 0 0 0-0.936-0.072 1.536 1.536 0 0 0-0.728 0.696 1.538 1.538 0 0 0-0.206 0.96c0.08 0.26 0.14 0.64 0.086 0.95-0.11 0.56-0.444 1.02-0.768 1.48-0.08 0.1-0.144 0.212-0.214 0.32a9.92 9.92 0 0 1-1.412 1.65c-0.744 0.67-1.608 1.15-2.464 1.34-1.49 0.33-3.012-0.12-3.82-1.468-0.444-0.76-0.64-1.654-0.696-2.532a10.85 10.85 0 0 1 0.848-5.032c0.656-1.52 1.632-3.04 3.43-3.228 0.706-0.08 1.506 0.166 1.824 0.8 0.23 0.46 0.15 1.012 0 1.5-0.144 0.488-0.35 0.98-0.36 1.5-0.006 0.52 0.248 1.08 0.74 1.232 0.476 0.144 0.99-0.16 1.268-0.58 0.276-0.42 0.372-0.92 0.49-1.408a12.564 12.562 0 0 1 1.324-3.268c0.278-0.472 0.594-0.976 0.508-1.52a1.086 1.086 0 0 0-0.746-0.83 1.086 1.086 0 0 0-1.07 0.288c-0.268 0.296-0.412 0.742-0.774 0.86-0.34 0.12-0.7-0.11-1.014-0.268-1.2-0.64-2.672-0.624-3.926-0.096-1.268 0.5-2.292 1.47-3.052 2.588C0.924 5.06 0.196 7.016 0.044 8.96c-0.054 0.68-0.062 1.39 0 2.076 0.072 0.92 0.2 1.708 0.428 2.412 0.278 0.846 0.634 1.58 1.094 2.188 0.532 0.68 1.174 1.2 1.88 1.494 0.744 0.296 1.568 0.44 2.384 0.416a6.344 6.344 0 0 0 2.354-0.566 8.58 8.58 0 0 0 2.052-1.36c0.618-0.52 1.188-1.118 1.68-1.78 0.324-0.448 0.618-0.92 0.88-1.416a9.66 9.66 0 0 0 0.356-0.766c0.088-0.208 0.174-0.43 0.404-0.52 0.112-0.086 0.3-0.04 0.404 0.026 0.128 0.08 0.23 0.15 0.27 0.27 0.096 0.232 0.04 0.464-0.008 0.664v0.024c-0.056 0.2-0.11 0.406-0.182 0.606-0.28 0.848-0.476 1.622-0.32 2.39 0.09 0.414 0.256 0.774 0.5 1.054a1.68 1.68 0 0 0 1.008 0.528c0.492 0.08 1.02-0.056 1.45-0.264 0.286-0.136 0.556-0.312 0.794-0.52 0.12-0.12 0.244-0.24 0.348-0.368 0.088-0.12 0.174-0.294 0.356-0.286a0.3 0.3 0 0 1 0.214 0.128c0.056 0.062 0.08 0.142 0.12 0.23 0.46 1.04 1.552 1.68 2.67 1.68h0.14c0.54 0 1.112-0.186 1.58-0.44 0.54-0.28 0.96-0.696 1.4-1.104 0.04-0.032 0.09-0.08 0.146-0.088 0.07-0.016 0.14 0.024 0.198 0.088a0.52 0.52 0 0 1 0.094 0.2c0.27 0.68 0.92 1.2 1.647 1.32a2.2 2.2 0 0 0 1.98-0.712c0.112-0.12 0.208-0.256 0.334-0.352 0.128-0.088 0.3-0.152 0.444-0.088 0.214 0.08 0.27 0.328 0.364 0.536 0.214 0.47 0.714 0.742 1.23 0.75 0.578 0 1.108-0.296 1.528-0.68 0.39-0.366 0.706-0.798 1.032-1.22a0.656 0.656 0 0 1 0.212-0.192c0.08-0.048 0.192-0.056 0.26 0 0.066 0.048 0.09 0.12 0.12 0.182 0.326 0.8 1.174 1.304 2.02 1.296 0.834-0.008 1.618-0.448 2.206-1.032 0.19-0.184 0.388-0.4 0.64-0.42 0.28-0.034 0.414 0.228 0.508 0.44 0.144 0.284 0.23 0.476 0.5 0.676 0.316 0.232 0.72 0.304 1.094 0.2 0.34-0.08 0.68-0.312 0.94-0.632 0.144-0.176 0.224-0.408 0.38-0.568 0.184-0.174 0.264 0.056 0.272 0.2 0.032 0.232 0.032 0.472 0.016 0.704-0.032 0.472-0.104 0.942-0.16 1.406-0.022 0.136-0.04 0.272-0.126 0.376-0.12 0.136-0.332 0.16-0.506 0.128a5.796 5.796 0 0 0-0.642-0.056l-0.28-0.032c-0.402-0.024-0.8-0.072-1.22-0.088h-0.37c-0.808 0-1.466 0.096-2.06 0.32-0.96 0.374-1.704 1.14-2.006 2.036a2.61 2.61 0 0 0-0.104 1.28c0.08 0.406 0.26 0.806 0.564 1.174 0.53 0.63 1.36 1.03 2.298 1.086 0.816 0.04 1.704-0.128 2.584-0.52 1.696-0.734 2.964-2.188 3.392-3.9 0-0.04 0.02-0.078 0.046-0.086 0.596-0.208 1.14-0.496 1.626-0.856 0.49-0.374 0.934-0.798 1.3-1.286 0.18-0.24 0.348-0.486 0.506-0.74 0.14-0.25 0.26-0.514 0.404-0.76a1.812 1.812 0 0 0 0.26-0.632 0.822 0.822 0 0 0-0.1-0.656 0.514 0.514 0 0 0-0.27-0.248m-27.359-3.26c0.034-0.142 0.09-0.28 0.12-0.412a3.8 3.8 0 0 1 0.524-1.008c0.08-0.096 0.16-0.2 0.27-0.272a0.492 0.492 0 0 1 0.372-0.096c0.214 0.04 0.366 0.256 0.404 0.472 0.064 0.36-0.08 0.792-0.228 1.11a2.194 2.194 0 0 1-0.62 0.83c-0.12 0.088-0.228 0.176-0.356 0.232-0.056 0.016-0.126 0.056-0.23 0.056h-0.032c-0.11 0-0.228-0.056-0.252-0.176a1.654 1.654 0 0 1 0.03-0.734m8.615-0.368c-0.008 0.144-0.048 0.296-0.056 0.446a9.82 9.82 0 0 0 0 1.558c0.024 0.304 0.094 0.6-0.032 0.888a2.138 2.138 0 0 1-1.134 1.286 1.11 1.11 0 0 1-0.49 0.112c-0.04 0-0.08-0.008-0.12-0.008-0.24 0-0.428-0.184-0.53-0.36a1.742 1.74 0 0 1-0.2-0.544 4.258 4.258 0 0 1 0.144-2.244c0.16-0.44 0.404-0.87 0.76-1.188a1.748 1.748 0 0 1 1.126-0.48 0.62 0.62 0 0 1 0.412 0.128c0.08 0.088 0.12 0.208 0.112 0.328a0.1 0.1 0 0 1 0.008 0.08m12.86 9.306c-0.03 0.088-0.12 0.208-0.16 0.28-0.084 0.16-0.204 0.326-0.322 0.47a5.124 5.124 0 0 1-0.634 0.608c-0.476 0.36-1.006 0.622-1.554 0.774a4.05 4.05 0 0 1-0.974 0.144h-0.08a1.59 1.59 0 0 1-1.03-0.36 0.866 0.866 0 0 1-0.316-0.5 1.074 1.074 0 0 1 0.094-0.61 1.552 1.552 0 0 1 0.76-0.766c0.652-0.32 1.364-0.352 2.038-0.32 0.278 0.008 0.53 0.024 0.8 0.04 0.214 0.008 0.436 0.024 0.65 0.048 0.112 0 0.23 0.008 0.34 0.024 0.088 0.008 0.184-0.008 0.27 0.016 0.12 0.008 0.136 0.072 0.12 0.152"/></svg>