<svg fill="#000000" role="img" viewBox="0 0 36 24" xmlns="http://www.w3.org/2000/svg"><title>Crew United</title><path d="M17.808 0.004c-1.7 0.068-3.309 1.04-4.111 2.674-0.683 1.38-0.653 3.01 0.072 4.369-1.328-0.777-2.817-1.153-4.49-1.154-0.327 0-0.647 0.021-0.968 0.05-4.98 0.519-8.586 4.975-8.059 9.948 0.484 4.618 4.388 8.116 9.027 8.109l1.06-0.064c0.306-0.036 0.62-0.085 0.919-0.156 0.05-0.014 0.101-0.02 0.15-0.035 1.195-0.292 2.327-0.825 3.309-1.564l5.243-4.227c3.316 3.742 9.035 4.089 12.785 0.773 3.75-3.316 4.092-9.035 0.776-12.784a9.083 9.083 0 0 0-6.782-3.045c-0.512 0-1.025 0.042-1.529 0.128L20.108 0.479l0.009 0.014a4.794 4.794 0 0 0-2.309-0.489ZM24.399 4.213l9.89 4.838c1.601 4.17-0.485 8.844-4.647 10.438-0.925 0.363-1.914 0.542-2.902 0.542-2.298 0-4.482-0.974-6.012-2.688l1.906-1.539c1.487 1.864 4.198 2.176 6.07 0.69 1.871-1.487 2.177-4.198 0.689-6.07-1.487-1.871-4.198-2.177-6.069-0.689a4.317 4.317 0 0 0-1.167 1.437l-4.85-2.39a0.949 0.949 0 0 1-0.307-1.31c0.256-0.42 0.79-0.568 1.231-0.347l0.655 0.318 0.88 0.429a8.08 8.08 0 0 1 4.633-3.659Zm0.513 1.901a6.931 6.931 0 0 0-3.601 1.793l0.938 0.469c0.811-0.69 1.801-1.139 2.854-1.309ZM9.279 6.861c4.461 0 8.083 3.613 8.083 8.074 0.007 4.098-3.06 7.55-7.13 8.034l-0.997 0.057c-4.461-0.028-8.052-3.671-8.03-8.131 0.028-4.105 3.13-7.543 7.213-7.985 0.285-0.028 0.576-0.042 0.861-0.049Zm7.179 2.561l7.842 3.728-6.837 5.693c1.466-3.081 1.072-6.718-1.005-9.421z"/></svg>