<svg fill="#2E3340" role="img" viewBox="0 0 27 24" xmlns="http://www.w3.org/2000/svg"><title>Crowdin</title><path d="M18.099 18.468a2.925 2.925 0 0 1-1.861-0.628c-0.61-0.487-1.121-1.217-1.137-2.074-0.009-0.433 0.462-0.433 0.462-0.434l1.137-0.009c0.371 0.009 0.48 0.525 0.497 0.655 0.143 1.161 0.801 1.669 1.304 1.9 0.305 0.137 0.228 0.573-0.404 0.59z m-6.359-5.904L9.591 12.281c-0.968-0.239-0.942-1.097-0.901-1.393a5.716 5.716 0 0 1 0.909-2.373c0.609-0.898 1.455-1.684 2.557-2.315 2.073-1.199 4.969-1.868 8.163-1.868 2.334 0 4.753 0.302 4.791 0.302 0.22 0.028 0.366 0.238 0.372 0.488a0.421 0.421 0 0 1-0.397 0.438l-1.027-0.011c-3.241 0-5.548 0.44-7.265 1.394-1.705 0.935-2.87 2.364-3.671 4.48-0.085 0.182-0.374 1.251-1.384 1.141z m2.828 8.736c-1.608 0-3.123-0.695-4.271-1.95-0.972-1.072-1.56-2.156-1.667-3.533-0.067-0.908 0.335-1.222 0.88-1.166l2.22 0.244c0.503 0.103 0.838 0.38 0.921 0.953 0.443 3.055 2.37 4.259 3.518 4.518 0.201 0.047 0.326 0.175 0.316 0.408a0.46 0.46 0 0 1-0.36 0.444c-0.511 0.083-1.045 0.082-1.557 0.082z m-4.579 2.7a15.875 15.875 0 0 1-2.576-0.239c-1.342-0.239-2.466-0.65-3.431-1.262C1.674 21.039 0.282 18.46 0.115 15.403c-0.041-0.726-0.123-2.111 1.594-2.007 0.712 0.037 1.846 0.383 2.644 0.612 0.99 0.276 1.467 1.042 1.467 1.796 0 4.308 3.902 7.156 5.606 7.155 0.73 0 0.462 0.783 0.142 0.87-0.561 0.152-1.284 0.171-1.578 0.171zM4.036 11.35c-0.676-0.122-1.333-0.4-1.974-0.558C0.08 10.301 0.417 8.301 0.602 7.751c1.806-5.312 7.533-7.091 12.157-7.563 4.353-0.447 8.909-0.103 13.152 1.08 0.346 0.093 1.417 0.365 0.802 0.995-0.391 0.4-1.898-0.018-2.315-0.046-2.49-0.186-4.951-0.214-7.432 0.168-2.623 0.399-5.324 1.227-7.493 2.976-1.047 0.846-1.965 1.924-2.583 3.2-0.161 0.335-0.286 0.67-0.395 1.005-0.123 0.365-0.525 2.133-2.474 1.787z m11.1 1.024c0.371-1.662 2.021-4.297 7.13-4.116 1.173 0.037 0.637 0.836 0.058 0.817-2.888-0.101-4.26 1.762-4.977 3.651-0.245 0.61-0.759 0.699-1.42 0.592-0.463-0.083-0.967-0.137-0.793-0.945Z"/></svg>