<svg fill="#4285F4" role="img" viewBox="0 0 29 24" xmlns="http://www.w3.org/2000/svg"><title>Crowdsource</title><path d="M14.5 0c-1.325 0-2.399 1.074-2.399 2.399s1.074 2.401 2.399 2.401 2.399-1.077 2.399-2.401-1.074-2.399-2.399-2.399zM9.06 4.319c-1.325 0-2.399 1.077-2.399 2.402S7.736 9.12 9.06 9.12s2.399-1.074 2.4-2.399-1.074-2.401-2.4-2.402z m10.88 0c-1.325 0-2.399 1.077-2.399 2.402s1.074 2.399 2.399 2.399 2.399-1.074 2.399-2.399-1.074-2.401-2.399-2.402zM2.001 6.881a1.546 1.546 0 0 0-1.091 0.422c-0.581 0.546-0.653 1.444-0.17 2.076 0.775 1.014 2.338 3.055 3.112 4.065a6.337 6.337 0 0 1 1.304 3.852c0 1.782 0.833 3.48 2.287 4.507 0.9 0.636 1.894 1.152 2.951 1.525v-4.614c0-0.695 0.224-1.374 0.553-1.939-0.121-1.114-0.611-2.126-1.405-2.928L3.169 7.431c-0.307-0.339-0.734-0.55-1.168-0.55z m25.001 0a1.546 1.546 0 0 0-1.075 0.458l-5.332 5.367-1.136 1.143c-0.795 0.8-1.284 1.816-1.406 2.926 0.311 0.534 0.533 1.165 0.554 1.817v4.739a12.062 12.062 0 0 0 2.951-1.528c1.453-1.027 2.287-2.725 2.287-4.508a6.35 6.35 0 0 1 1.303-3.854c0.697-0.913 2.395-3.128 3.112-4.062 0.483-0.632 0.41-1.53-0.169-2.076a1.542 1.542 0 0 0-1.089-0.422z m-12.502 1.758c-1.325 0-2.399 1.077-2.399 2.401s1.074 2.399 2.399 2.399 2.399-1.074 2.399-2.399c0-1.325-1.074-2.401-2.399-2.401z m0.003 6.72c-1.945 0-3.522 1.502-3.522 3.355v4.8c1.117 0.314 2.296 0.486 3.519 0.486s2.403-0.171 3.52-0.486v-4.903c-0.058-1.805-1.609-3.252-3.517-3.252z"/></svg>