<svg fill="#000000" role="img" viewBox="0 0 54 24" xmlns="http://www.w3.org/2000/svg"><title>CRYENGINE</title><path d="M33.008 18.361c0.655 0 1.284 0.226 1.787 0.638l0.031 0.027-0.33 0.526c-0.407-0.372-0.932-0.576-1.485-0.575-1.215 0-2.203 0.987-2.203 2.203 0 1.215 0.987 2.203 2.203 2.202 1.1 0 2.015-0.81 2.176-1.864l0.004-0.031h-1.886l0.383-0.613h2.138v0.308c0 1.554-1.264 2.818-2.815 2.818-1.554 0-2.816-1.264-2.816-2.818-0.004-1.556 1.26-2.82 2.813-2.821z m-29.758 0c0.768 0 1.505 0.319 2.032 0.868l0.027 0.029-0.348 0.536c-0.421-0.52-1.04-0.819-1.713-0.819-1.215 0-2.203 0.987-2.203 2.202 0 1.215 0.987 2.203 2.203 2.203 0.635 0 1.238-0.272 1.656-0.75l0.022-0.027 0.467 0.399c-0.531 0.631-1.315 0.992-2.143 0.991-1.552 0-2.816-1.262-2.816-2.816 0-1.552 1.264-2.816 2.816-2.816z m5.402 0.034c1.415 0 1.979 0.664 1.979 1.622 0 0.804-0.407 1.37-1.375 1.563l-0.031 0.007 1.554 2.38h-0.743l-1.468-2.342h-1.058v2.342h-0.605v-5.572z m13.017 5.032v0.54H17.857v-0.54z m-8.895-5.032l1.53 2.543c0.053 0.093 0.084 0.193 0.099 0.255 0.022-0.064 0.042-0.148 0.096-0.241l0.013-0.023 1.523-2.534h0.657l-3.462 5.574h-0.6l1.432-2.325-1.952-3.249z m38.791 5.032v0.54h-3.813v-0.54z m-10.098-5.032l3.348 4.615c-0.029-0.131-0.044-0.179-0.047-0.281v-4.334h0.602v5.574h-0.571l-3.354-4.631c0.022 0.073 0.051 0.173 0.053 0.314v4.317h-0.602v-5.574z m-3.013 0v5.574h-0.602v-5.574z m-14.157 0l3.347 4.615c-0.029-0.131-0.044-0.179-0.046-0.281v-4.334h0.602v5.574h-0.571l-3.354-4.631c0.022 0.073 0.051 0.173 0.053 0.314v4.317h-0.602v-5.574z m27.268 2.357v0.549h-3.813v-0.549z m-29.896 0v0.549H17.857v-0.549z m-13.008-1.817h-1.151v2.141h1.144c0.85 0 1.361-0.248 1.362-1.059-0.002-0.812-0.514-1.083-1.355-1.082z m44.256-1.255c0.359 0 0.649 0.288 0.649 0.646 0 0.359-0.29 0.646-0.649 0.646-0.359 0-0.649-0.288-0.648-0.646 0.002-0.359 0.292-0.646 0.648-0.646z m-1.352 0.715v0.54h-3.813v-0.54z m-29.896 0v0.54h-3.254l0.334-0.54z m31.248-0.607c-0.297 0-0.536 0.239-0.536 0.536s0.239 0.536 0.536 0.536 0.538-0.239 0.538-0.536c0-0.294-0.241-0.536-0.538-0.536z m0.005 0.201c0.166 0 0.239 0.084 0.239 0.202 0 0.089-0.04 0.155-0.131 0.186l-0.013 0.004 0.177 0.273h-0.129l-0.148-0.231c-0.004-0.004-0.007-0.015-0.009-0.024v-0.007h-0.128v0.262h-0.106v-0.667h0.248z m0.002 0.102h-0.144v0.202h0.142c0.091 0 0.133-0.024 0.132-0.1 0-0.073-0.042-0.102-0.13-0.102z m-28.339-18.049l0.195-0.015c-5.225 1.215-8.326 5.163-8.327 5.676v0.002c0 0.002 0.002-0.02 0.005 0.08v0.013h0.002c0.106 0.56 1.649 3.265 7.618 4.873-6.841-0.542-9.949-3.87-10.102-4.844l-0.002-0.031h-0.002c0-0.102-0.002-0.082-0.003-0.075l0.003-0.029c0.082-1.001 4.268-5.118 10.613-5.65l0.195-0.015z m2.171-0.042c7.104 0.37 11.237 4.594 11.275 5.776v-0.002c0-0.004-0.002 0-0.002 0.073v0.013h-0.004c-0.055 0.593-2.313 3.006-5.692 4.118-4.129 1.357-10.772 0.863-10.772-4.313 0-2.429 1.979-4.405 4.41-4.405 2.453 0 4.421 1.986 4.421 4.416 0 1.184-0.511 2.331-1.287 3.142 0.724-0.013 3.358-0.206 5.84-2.252 0.275-0.268 0.449-0.491 0.523-0.629 0.02-0.035 0.049-0.1 0.044-0.159 0.002-0.531-2.851-4.614-8.756-5.778z m-0.79 3.159c-1.384 0-2.504 1.12-2.504 2.504s1.12 2.504 2.504 2.504c1.381 0 2.504-1.12 2.504-2.504 0-1.381-1.12-2.504-2.504-2.504z m12.063 2.617z"/></svg>