<svg fill="#000000" role="img" viewBox="0 0 25 24" xmlns="http://www.w3.org/2000/svg"><title>Crystal</title><path d="M24.487 15.272l-8.704 8.686c-0.034 0.035-0.086 0.052-0.121 0.035L3.773 20.807c-0.052-0.017-0.087-0.052-0.087-0.086L0.484 8.85c-0.018-0.053 0-0.087 0.035-0.122L9.222 0.042c0.035-0.035 0.087-0.052 0.121-0.035l11.889 3.186c0.052 0.017 0.087 0.052 0.087 0.086l3.186 11.871c0.034 0.053 0.016 0.087-0.018 0.122z m-11.662-9.451L1.145 8.937c-0.017 0-0.035 0.034-0.017 0.052l8.546 8.529c0.017 0.017 0.052 0.017 0.053-0.017l3.133-11.663c0.017 0-0.018-0.035-0.035-0.017Z"/></svg>