<svg fill="#000000" role="img" viewBox="0 0 30 24" xmlns="http://www.w3.org/2000/svg"><title>CSS Modules</title><path d="M24.384 0v24H0.385V0h23.999ZM0.557 23.828h23.655V0.172H0.557v23.656Zm3.119-12.72c0.521 0 0.926 0.138 1.213 0.412 0.287 0.274 0.447 0.587 0.479 0.935h-0.544a1.128 1.128 0 0 0-0.369-0.629c-0.183-0.156-0.441-0.233-0.773-0.233-0.406 0-0.733 0.142-0.984 0.429-0.248 0.284-0.373 0.719-0.373 1.308 0 0.482 0.112 0.873 0.336 1.174 0.227 0.298 0.563 0.448 1.009 0.448 0.412 0 0.725-0.158 0.939-0.474 0.114-0.166 0.199-0.385 0.256-0.655h0.543c-0.049 0.434-0.209 0.797-0.482 1.09-0.326 0.353-0.767 0.529-1.323 0.529-0.477 0-0.879-0.144-1.205-0.434-0.426-0.384-0.642-0.974-0.641-1.773 0-0.608 0.161-1.105 0.482-1.493 0.347-0.423 0.827-0.633 1.437-0.634Zm2.777 2.899c0.012 0.234 0.068 0.424 0.164 0.569 0.185 0.273 0.512 0.409 0.978 0.409 0.209 0 0.399-0.029 0.573-0.089 0.331-0.116 0.498-0.324 0.498-0.622 0-0.224-0.071-0.384-0.211-0.479-0.141-0.094-0.364-0.175-0.666-0.243l-0.558-0.127c-0.364-0.082-0.621-0.173-0.773-0.272-0.261-0.172-0.392-0.429-0.393-0.771 0-0.369 0.128-0.674 0.384-0.909 0.256-0.237 0.619-0.356 1.088-0.356 0.431 0 0.798 0.104 1.098 0.313 0.302 0.207 0.453 0.54 0.453 0.999h-0.523a1.032 1.032 0 0 0-0.179-0.508c-0.171-0.216-0.459-0.323-0.865-0.323-0.329 0-0.566 0.069-0.71 0.207a0.649 0.649 0 0 0-0.216 0.482c0 0.202 0.085 0.35 0.252 0.444 0.11 0.06 0.359 0.134 0.748 0.224l0.577 0.131c0.279 0.063 0.493 0.15 0.646 0.261 0.261 0.192 0.391 0.471 0.391 0.837 0 0.457-0.166 0.782-0.499 0.978a2.219 2.219 0 0 1-1.154 0.294c-0.512 0-0.913-0.132-1.202-0.392-0.289-0.259-0.431-0.611-0.426-1.056h0.524Zm3.82 0c0.013 0.234 0.068 0.424 0.166 0.569 0.185 0.273 0.512 0.409 0.978 0.409 0.208 0 0.399-0.029 0.571-0.089 0.332-0.116 0.499-0.324 0.499-0.622 0-0.224-0.071-0.384-0.21-0.479-0.142-0.094-0.365-0.175-0.668-0.243l-0.556-0.127c-0.365-0.082-0.622-0.173-0.774-0.272-0.262-0.172-0.392-0.429-0.392-0.771 0-0.369 0.128-0.674 0.384-0.909 0.256-0.237 0.619-0.356 1.086-0.356 0.432 0 0.798 0.104 1.099 0.313 0.303 0.207 0.454 0.54 0.454 0.999h-0.524a1.032 1.032 0 0 0-0.18-0.508c-0.171-0.216-0.458-0.323-0.865-0.323-0.329 0-0.565 0.069-0.708 0.207a0.649 0.649 0 0 0-0.216 0.482c0 0.202 0.084 0.35 0.252 0.444 0.11 0.06 0.359 0.134 0.748 0.224l0.577 0.131c0.278 0.063 0.492 0.15 0.644 0.261 0.261 0.192 0.392 0.471 0.393 0.837 0 0.457-0.167 0.782-0.5 0.978a2.219 2.219 0 0 1-1.153 0.294c-0.512 0-0.913-0.132-1.202-0.392-0.29-0.259-0.432-0.611-0.426-1.056h0.523Zm-7.547 4.385l1.181 3.479 1.176-3.479h0.789v4.116h-0.529v-2.43c0-0.085 0.001-0.223 0.005-0.417 0.004-0.195 0.006-0.402 0.006-0.625l-1.174 3.471h-0.552l-1.181-3.471v0.126c0 0.101 0 0.256 0.005 0.463 0.005 0.205 0.009 0.356 0.008 0.453v2.429h-0.532v-4.115h0.798Zm5.776-0.111c0.727 0 1.264 0.233 1.614 0.7 0.273 0.364 0.409 0.829 0.409 1.397 0 0.615-0.156 1.125-0.467 1.533-0.365 0.477-0.889 0.717-1.566 0.718-0.633 0-1.131-0.209-1.494-0.629-0.323-0.402-0.485-0.913-0.484-1.529 0-0.557 0.138-1.033 0.414-1.429 0.356-0.508 0.881-0.761 1.574-0.761Zm0.057 3.848c0.491 0 0.846-0.175 1.064-0.526 0.22-0.353 0.331-0.759 0.331-1.217 0-0.484-0.128-0.873-0.381-1.167-0.252-0.295-0.597-0.442-1.036-0.443-0.426 0-0.773 0.146-1.043 0.439-0.268 0.292-0.403 0.723-0.403 1.292 0 0.457 0.114 0.84 0.345 1.155 0.231 0.312 0.605 0.468 1.123 0.467Zm4.207-0.097c0.189 0 0.345-0.021 0.466-0.06a1.023 1.023 0 0 0 0.532-0.42c0.11-0.166 0.19-0.379 0.239-0.638a2.436 2.436 0 0 0 0.041-0.433c0-0.509-0.101-0.905-0.305-1.187-0.202-0.281-0.529-0.423-0.978-0.423H11.773v3.161h0.993ZM11.212 18.39h1.666c0.566 0 1.005 0.201 1.317 0.603 0.279 0.362 0.418 0.827 0.418 1.392 0 0.438-0.082 0.832-0.246 1.185-0.29 0.624-0.788 0.937-1.493 0.937H11.212v-4.117Zm4.726 0v2.545c0 0.298 0.056 0.548 0.168 0.745 0.166 0.298 0.447 0.448 0.84 0.448 0.473 0 0.794-0.162 0.964-0.485 0.093-0.175 0.138-0.412 0.137-0.708v-2.545h0.567v2.312c0 0.505-0.068 0.895-0.205 1.169-0.251 0.496-0.723 0.743-1.418 0.743s-1.167-0.247-1.415-0.743c-0.136-0.274-0.205-0.664-0.205-1.169v-2.312h0.567Zm3.53 0Zm0.558 0v3.626h2.084v0.49h-2.643v-4.116h0.559Zm2.689 0h3v0.505h-2.456v1.249h2.271v0.476h-2.271v1.396h2.499v0.49h-3.043v-4.116Zm4.144 2.789c0.012 0.231 0.068 0.423 0.164 0.568 0.185 0.273 0.512 0.409 0.978 0.409 0.209 0 0.399-0.03 0.573-0.09 0.331-0.116 0.498-0.323 0.498-0.621 0-0.224-0.071-0.384-0.211-0.48-0.141-0.093-0.364-0.174-0.666-0.244l-0.558-0.125c-0.364-0.083-0.621-0.173-0.773-0.272-0.262-0.172-0.392-0.429-0.393-0.771 0-0.37 0.128-0.674 0.384-0.911 0.256-0.236 0.619-0.356 1.088-0.355 0.431 0 0.798 0.105 1.097 0.314 0.303 0.207 0.454 0.54 0.454 0.997h-0.523a1.032 1.032 0 0 0-0.179-0.506c-0.171-0.216-0.459-0.323-0.866-0.323-0.329 0-0.565 0.069-0.709 0.207a0.649 0.649 0 0 0-0.216 0.482c0 0.201 0.084 0.35 0.252 0.443 0.11 0.061 0.359 0.134 0.748 0.224l0.577 0.131c0.278 0.065 0.493 0.151 0.645 0.261 0.262 0.192 0.392 0.473 0.392 0.838 0 0.455-0.166 0.782-0.5 0.978a2.219 2.219 0 0 1-1.153 0.293c-0.512 0-0.913-0.13-1.202-0.392-0.29-0.259-0.431-0.611-0.426-1.056h0.524Z"/></svg>