<svg fill="#E53236" role="img" viewBox="0 0 40 24" xmlns="http://www.w3.org/2000/svg"><title>CTS</title><path d="M32.311 17.497c0.082 0 0.148 0.066 0.148 0.148v6.207c0 0.082-0.066 0.148-0.148 0.148H27.299a0.148 0.148 0 0 1-0.124-0.066 0.148 0.148 0 0 1-0.011-0.141l2.635-6.207a0.148 0.148 0 0 1 0.136-0.091h2.374z m1.594-12.973c1.78 0 3.588 0.588 5.379 1.751a0.148 0.148 0 0 1 0.049 0.197l-1.414 2.526a0.148 0.148 0 0 1-0.213 0.055c-1.32-0.858-2.655-1.292-3.965-1.292-0.986 0-2.157 0.214-2.157 1.226 0 0.309 0.122 0.746 0.702 1.063 0.444 0.242 1.157 0.516 2.18 0.839 1.003 0.312 1.721 0.556 2.14 0.721 0.419 0.164 0.927 0.427 1.509 0.776 1.085 0.661 1.611 1.731 1.611 3.278 0 1.552-0.554 2.762-1.693 3.699-0.993 0.812-2.236 1.276-3.704 1.377a0.148 0.148 0 0 1-0.159-0.148v-2.896a0.148 0.148 0 0 1 0.128-0.148c0.362-0.049 0.664-0.159 0.904-0.321a1.141 1.141 0 0 0 0.548-0.986c0-0.408-0.247-0.784-0.74-1.118-0.47-0.321-1.156-0.625-2.038-0.901a23.449 23.449 0 0 1-2.006-0.706 11.188 11.188 0 0 1-1.571-0.854c-1.184-0.736-1.759-1.798-1.759-3.246 0-1.453 0.569-2.605 1.739-3.523 1.162-0.909 2.684-1.369 4.529-1.369z m-25.949 0a0.148 0.148 0 0 1 0.157 0.148v3.462a0.148 0.148 0 0 1-0.125 0.148 4.376 4.376 0 0 0-2.268 1.098c-0.855 0.774-1.29 1.864-1.29 3.24 0 1.376 0.434 2.462 1.292 3.227 0.822 0.753 1.899 1.164 3.011 1.15 1.43 0 2.739-0.684 3.893-2.035a0.148 0.148 0 0 1 0.112-0.052 0.148 0.148 0 0 1 0.111 0.049l2.29 2.574a0.148 0.148 0 0 1-0.006 0.204c-1.979 1.992-4.142 3.002-6.428 3.002-2.351 0-4.369-0.755-5.99-2.239C1.096 17.014 0.274 15.048 0.274 12.649S1.106 8.273 2.745 6.773a8.379 8.379 0 0 1 5.211-2.248ZM27.941 0c0.082 0 0.148 0.066 0.148 0.148v3.501c0 0.082-0.066 0.148-0.148 0.148h-5.617a0.099 0.099 0 0 0-0.098 0.099v14.046c0 0.082-0.066 0.148-0.148 0.148h-4.126a0.148 0.148 0 0 1-0.148-0.148V3.899a0.099 0.099 0 0 0-0.099-0.098H12.087a0.148 0.148 0 0 1-0.148-0.148V0.148a0.148 0.148 0 0 1 0.148-0.148z"/></svg>