<svg fill="#1D2C54" role="img" viewBox="0 0 87 24" xmlns="http://www.w3.org/2000/svg"><title>Cultura</title><path d="M9.543 0C4.187 0 0.192 4.046 0.192 9.322c0 5.356 3.844 9.481 9.402 9.481 4.638 0 7.149-2.949 7.149-2.949l-1.743-2.382s-2.129 2.306-5.28 2.307c-3.789 0-6.121-3.05-6.125-6.507 0-3.382 2.256-6.251 6.1-6.251 2.894 0 4.973 1.924 4.973 1.923l1.588-2.461s-2.281-2.49-6.713-2.483z m24.462 0.303h-3.23v14.115c0 3.743 2.23 4.204 4.024 4.204 0.538 0 1.025-0.076 1.025-0.075v-2.844s-0.231 0.025-0.488 0.025c-0.848 0-1.335-0.361-1.335-1.794z m3.165 1.563v3.562h-1.769v2.588h1.697v5.691c0 4.378 3.609 4.915 5.431 4.915 0.614 0 0.996-0.076 0.996-0.075v-2.844s-0.231 0.051-0.588 0.05c-0.899 0-2.584-0.307-2.584-2.457v-5.28h4.035v5.817c0 3.562 1.747 4.97 4.536 4.97 2.23 0 3.894-1.357 4.537-2.718h0.047s-0.047 0.411-0.047 0.924v1.483h3.125v-13.064h-3.255v5.994c0 2.331-1.306 4.407-3.663 4.407-1.617 0-2.021-1.075-2.021-2.663V5.432h-7.298v-3.563z m34.617 3.255c-3.104 0-5.125 1.617-5.125 1.617l1.228 2.328s1.718-1.252 3.587-1.256c1.436 0 2.512 0.592 2.512 2.31v0.176h-0.433c-2.129 0-7.741 0.282-7.738 4.432 0 2.613 2.1 4.075 4.432 4.075 2.97 0 3.999-2.306 3.97-2.31h0.054s-0.054 0.411-0.054 0.928v1.075h2.999v-8.171c0-3.306-1.999-5.204-5.432-5.204z m-6.189 0.126c-1.996 0-3.562 1.487-4.151 3.357h-0.05a8.373 8.373 0 0 0 0.05-0.92v-2.256h-3.125V18.496h3.255v-5.175c0-0.772 0.072-1.491 0.278-2.13 0.617-1.945 2.18-2.739 3.562-2.739 0.433 0 0.772 0.051 0.773 0.051v-3.201s-0.285-0.054-0.592-0.055z m-48.462 0.181v8.405c0 3.562 1.74 4.97 4.537 4.97 2.23 0 3.898-1.357 4.533-2.718h0.05s-0.051 0.411-0.05 0.924v1.487h3.125v-13.064h-3.252v5.99c0 2.331-1.31 4.41-3.666 4.411-1.617 0-2.021-1.079-2.021-2.667V5.432z m66.103 6.864c-0.469 0-1 0.054-1.708 0.181a0.592 0.592 0 0 0-0.375 0.231 1.18 1.18 0 0 0-0.166 0.368 0.595 0.595 0 0 0-0.025 0.177 0.433 0.433 0 0 0 0.144 0.332 0.419 0.419 0 0 0 0.289 0.097 1.314 1.314 0 0 0 0.173-0.011s0.235-0.025 0.628-0.047l0.004 0.065c0.011 0.152 0.025 0.368 0.025 0.639 0 1.324-0.292 3.89-2.263 5.8-1.599 1.552-3.284 2.317-5.41 2.436a10.791 10.791 0 0 1-6.186-1.556c-2.075-1.26-3.421-2.97-4.081-3.76-0.101-0.123-0.18-0.227-0.264-0.311-0.076-0.079-0.152-0.173-0.31-0.18a0.282 0.282 0 0 0-0.199 0.076 1.877 1.877 0 0 0-0.357 0.541 1.83 1.83 0 0 0-0.209 0.711v0.014c0.007 0.451 0 2.122 1.407 3.512a6.857 6.857 0 0 0 1.632 1.184c0.505 0.26 0.895 0.397 1.111 0.415h0.036a0.314 0.314 0 0 0 0.271-0.148 0.505 0.505 0 0 0 0.061-0.253c-0.007-0.332-0.188-0.743-0.187-0.754l-0.037-0.079-0.194-0.062a5.85 5.85 0 0 1-1.48-0.844 4.428 4.428 0 0 1-1.552-2.458c0.967 1.227 2.555 2.801 3.873 3.537 1.635 0.931 3.981 1.859 6.503 1.855a9.196 9.196 0 0 0 3.843-0.812 9.636 9.636 0 0 0 4.461-3.858c1.234-1.96 1.386-4.259 1.386-5.313v-0.317c0.289 0.112 0.805 0.397 1.227 1.082 0.004 0 0.094 0.159 0.253 0.224a0.469 0.469 0 0 0 0.18 0.029 0.816 0.816 0 0 0 0.325-0.076 1.851 1.851 0 0 0 0.462-0.317c0.144-0.137 0.274-0.303 0.278-0.534a0.448 0.448 0 0 0-0.044-0.199c-0.346-0.686-1.209-1.292-2.345-1.501a6.417 6.417 0 0 0-1.184-0.116z m-9.788 0.235h0.567v0.307c0 1.588-1.234 3.429-2.949 3.428-1.332 0-1.974-0.816-1.974-1.685 0-1.819 2.692-2.05 4.356-2.05z"/></svg>