<svg fill="#4051B5" role="img" viewBox="0 0 25 24" xmlns="http://www.w3.org/2000/svg"><title>Custom Ink</title><path d="M12.5 24c1.866 0 3.402-1.51 3.402-3.455 0-0.384-0.106-0.861-0.238-1.191-0.423-1.019-2.185-2.529-2.794-3.813-0.08-0.198-0.21-0.291-0.356-0.291-0.145 0-0.29 0.093-0.357 0.29-0.596 1.284-2.369 2.807-2.794 3.814-0.132 0.33-0.238 0.807-0.238 1.191A3.374 3.374 0 0 0 12.5 23.999z m0-11.834a1.858 1.858 0 0 0 1.589-0.901c0.12-0.185 0.066-0.477-0.29-0.357a3.484 3.484 0 0 1-2.595 0c-0.358-0.119-0.397 0.172-0.292 0.357 0.33 0.531 0.874 0.887 1.589 0.901z m1.774-3.297c-0.068-0.2 0.03-0.42 0.225-0.502a0.587 0.587 0 0 1 0.199-0.04 0.116 0.116 0 0 0 0.092-0.12c0-0.039-0.013-0.065-0.052-0.093a0.965 0.965 0 0 0-0.583-0.198 0.971 0.971 0 0 0-0.966 0.966 0.971 0.971 0 0 0 0.966 0.966c0.437 0 0.807-0.29 0.926-0.687a0.14 0.14 0 0 0-0.013-0.106c-0.026-0.026-0.053-0.053-0.092-0.053-0.04 0-0.093 0.04-0.146 0.053-0.317 0.172-0.503-0.053-0.556-0.186Zm-3.296 0c-0.068-0.2 0.03-0.42 0.225-0.502a0.587 0.587 0 0 1 0.201-0.04 0.116 0.116 0 0 0 0.09-0.12c0-0.039-0.012-0.065-0.052-0.093a0.965 0.965 0 0 0-0.583-0.198 0.971 0.971 0 0 0-0.966 0.966c0.008 1.106 1.567 1.336 1.892 0.279a0.14 0.14 0 0 0-0.012-0.106c-0.027-0.026-0.053-0.053-0.093-0.053s-0.092 0.04-0.145 0.053c-0.304 0.172-0.504-0.053-0.557-0.186Zm5.903-1.892c0 0.582-0.105 1.124-0.317 1.628-0.053 0.132-0.04 0.264 0.093 0.317 0.185 0.08 0.516 0.172 1.058 0.186 1.244 0 3.098-0.636 3.257-0.662 0.781-0.212 1.456-0.304 2.157 0.026 0.384 0.185 0.781-0.105 0.636-0.516C22.083 3.389 17.966 0 12.488 0 7.009 0 2.889 3.39 1.21 7.956c-0.146 0.41 0.25 0.701 0.635 0.516 0.701-0.33 1.377-0.238 2.158-0.026 0.158 0.026 2.012 0.662 3.256 0.662 0.543-0.013 0.874-0.106 1.059-0.186 0.132-0.053 0.145-0.185 0.092-0.317a4.458 4.458 0 0 1-0.317-1.629c0-2.409 1.959-4.355 4.382-4.355 2.448 0 4.406 1.946 4.406 4.355zM8.345 19.246c0.106-0.225 1.138-2.357 1.245-4.619 0.027-0.37-0.25-0.557-0.583-0.331-1.337 0.689-2.343 0.728-3.614 1.151-1.495 0.344-2.423 1.298-2.461 2.687a2.809 2.809 0 0 0 2.713 2.9 2.783 2.783 0 0 0 2.7-1.788zM4.638 14.733c0.225-0.105 1.852-0.979 3.296-2.66 0.252-0.278 0.067-0.543-0.251-0.609-2.065-0.57-2.807-1.827-4.488-1.801-0.794-0.013-1.509 0.291-2.065 0.953a2.735 2.735 0 0 0 0.344 3.866c0.894 0.749 2.163 0.849 3.164 0.251z m12.019 4.514c1.142 2.952 5.536 2.052 5.426-1.111-0.052-1.404-0.979-2.357-2.463-2.688-1.269-0.41-2.276-0.463-3.614-1.151-0.316-0.225-0.607-0.04-0.581 0.33 0.08 2.264 1.125 4.382 1.232 4.62z m3.705-4.514c-0.225-0.105-1.852-0.979-3.294-2.66-0.253-0.278-0.068-0.543 0.251-0.609 2.064-0.57 2.805-1.827 4.487-1.801 0.794-0.013 1.509 0.291 2.065 0.953a2.735 2.735 0 0 1-0.344 3.866 2.739 2.739 0 0 1-3.164 0.251z m-9.383-5.864c-0.068-0.2 0.03-0.42 0.224-0.502a0.587 0.587 0 0 1 0.201-0.04 0.116 0.116 0 0 0 0.09-0.12c0-0.039-0.012-0.065-0.052-0.093a0.965 0.965 0 0 0-0.583-0.198 0.971 0.971 0 0 0-0.966 0.966c0.008 1.106 1.567 1.336 1.892 0.279a0.14 0.14 0 0 0-0.012-0.106c-0.027-0.026-0.053-0.053-0.093-0.053s-0.092 0.04-0.145 0.053c-0.304 0.172-0.504-0.053-0.557-0.186Zm3.295 0c-0.068-0.2 0.03-0.42 0.225-0.502a0.587 0.587 0 0 1 0.199-0.04 0.116 0.116 0 0 0 0.092-0.12c0-0.039-0.013-0.065-0.052-0.093a0.965 0.965 0 0 0-0.583-0.198 0.971 0.971 0 0 0-0.966 0.966 0.971 0.971 0 0 0 0.966 0.966c0.437 0 0.807-0.29 0.926-0.687a0.14 0.14 0 0 0-0.013-0.106c-0.026-0.026-0.053-0.053-0.092-0.053-0.04 0-0.093 0.04-0.146 0.053-0.317 0.172-0.503-0.053-0.556-0.186Zm-1.773 3.296a1.858 1.858 0 0 0 1.588-0.9c0.12-0.185 0.066-0.477-0.29-0.357a3.484 3.484 0 0 1-2.595 0c-0.358-0.119-0.397 0.172-0.292 0.357 0.33 0.531 0.874 0.887 1.589 0.901z m0 11.835c1.865 0 3.401-1.51 3.401-3.455 0-0.384-0.106-0.861-0.238-1.191-0.423-1.019-2.185-2.529-2.794-3.813-0.08-0.198-0.21-0.291-0.356-0.291-0.145 0-0.29 0.093-0.357 0.29-0.596 1.284-2.369 2.807-2.794 3.814-0.132 0.33-0.238 0.807-0.238 1.191A3.374 3.374 0 0 0 12.5 23.999z m7.861-9.267c-0.225-0.105-1.852-0.979-3.294-2.66-0.253-0.278-0.068-0.543 0.251-0.609 2.064-0.57 2.805-1.827 4.487-1.801 0.794-0.013 1.482 0.3 2.065 0.953 0.662 1.595 0.681 1.596-0.33 3.855l-0.014 0.011a2.739 2.739 0 0 1-3.164 0.251z m-3.704 4.514c1.141 2.952 5.536 2.052 5.426-1.111-0.053-1.404-0.981-2.357-2.463-2.688-1.27-0.41-2.277-0.463-3.614-1.151-0.317-0.225-0.608-0.04-0.581 0.33 0.08 2.264 1.124 4.382 1.232 4.62zM4.637 14.733c0.225-0.105 1.852-0.979 3.296-2.66 0.252-0.278 0.067-0.543-0.251-0.609-2.065-0.57-2.807-1.827-4.488-1.801-0.794-0.013-1.509 0.291-2.065 0.953a2.735 2.735 0 0 0 0.344 3.866c0.894 0.749 2.163 0.849 3.164 0.251z m3.706 4.514c0.106-0.225 1.138-2.357 1.245-4.619 0.027-0.37-0.25-0.557-0.583-0.331-1.337 0.689-2.343 0.728-3.614 1.151-1.495 0.344-2.423 1.298-2.461 2.687a2.809 2.809 0 0 0 2.713 2.9 2.783 2.783 0 0 0 2.7-1.788z m8.537-12.271c0 0.583-0.105 1.125-0.317 1.629-0.053 0.132-0.04 0.264 0.093 0.317 0.185 0.08 0.516 0.172 1.058 0.186 1.244 0 3.098-0.636 3.257-0.662 0.781-0.212 1.456-0.304 2.157 0.026 0.384 0.185 0.781-0.105 0.636-0.516C22.081 3.389 17.966 0 12.488 0 7.01 0 2.889 3.39 1.21 7.956c-0.146 0.41 0.25 0.701 0.635 0.516 0.701-0.33 1.377-0.238 2.158-0.026 0.158 0.026 2.012 0.662 3.256 0.662 0.543-0.013 0.874-0.106 1.059-0.186 0.132-0.053 0.145-0.185 0.092-0.317a4.458 4.458 0 0 1-0.317-1.629c0-2.409 1.959-4.355 4.382-4.355 2.448 0 4.406 1.946 4.406 4.355z"/></svg>