<svg fill="#111111" role="img" viewBox="0 0 50 24" xmlns="http://www.w3.org/2000/svg"><title>Cycling '74</title><path d="M11.221 5.914c-0.086-0.726 0.872-1.518 1.785-2.168 1.305-0.929 3.45-1.682 5.932-1.973 2.242-0.261 4.306-0.092 5.776 0.387 1.296 0.423 2.591 1.032 2.687 1.859 0.094 0.82-1.017 1.715-2.174 2.424-1.321 0.808-3.294 1.452-5.545 1.717-2.474 0.287-4.73 0.051-6.215-0.547-1.044-0.423-2.16-0.97-2.246-1.699z m34.399-3.163c0.749-0.045 1.522 1.259 2.154 2.495 0.898 1.766 1.584 4.603 1.785 7.831 0.178 2.917-0.078 5.569-0.63 7.426-0.484 1.637-1.161 3.253-2.012 3.302-0.847 0.053-1.717-1.46-2.398-3.015-0.777-1.778-1.358-4.383-1.539-7.309-0.197-3.22 0.135-6.113 0.811-7.979 0.472-1.311 1.081-2.706 1.831-2.751z m-16.738 13.216c-0.045-0.689 0.743-1.383 1.489-1.944 1.071-0.802 2.804-1.389 4.79-1.518 1.793-0.113 3.434 0.168 4.591 0.708 1.017 0.478 2.029 1.132 2.08 1.917 0.049 0.784-0.866 1.563-1.809 2.164-1.077 0.689-2.671 1.182-4.47 1.297-1.981 0.129-3.772-0.228-4.935-0.882-0.818-0.462-1.69-1.046-1.736-1.742zM37.635 0.534c0.591 0.363 0.704 1.405 0.732 2.338 0.041 1.333-0.478 3.083-1.518 4.773-0.937 1.528-2.109 2.701-3.216 3.332-0.976 0.556-2.092 1.001-2.763 0.588-0.671-0.41-0.779-1.604-0.728-2.72 0.057-1.276 0.572-2.855 1.511-4.389 1.036-1.686 2.357-2.941 3.561-3.508 0.847-0.402 1.826-0.777 2.421-0.414zM1.168 0.126c0.603-0.345 1.582 0.082 2.427 0.527 1.206 0.636 2.519 1.984 3.532 3.762 0.917 1.608 1.405 3.245 1.444 4.551 0.031 1.149-0.098 2.369-0.784 2.759-0.683 0.39-1.797-0.115-2.767-0.724-1.108-0.697-2.271-1.953-3.189-3.565C0.817 5.662 0.327 3.851 0.391 2.489c0.043-0.958 0.174-2.018 0.779-2.363z m24.307 8.785c0.656 0.386 0.699 1.698 0.657 2.884-0.066 1.696-0.816 3.996-2.162 6.289-1.216 2.072-2.677 3.721-4.017 4.671-1.179 0.835-2.513 1.551-3.259 1.112-0.743-0.435-0.769-1.945-0.618-3.375 0.172-1.635 0.903-3.719 2.125-5.796 1.344-2.287 2.98-4.059 4.429-4.944 1.017-0.622 2.187-1.227 2.845-0.841Z"/></svg>