<svg fill="#69D3A7" role="img" viewBox="0 0 25 24" xmlns="http://www.w3.org/2000/svg"><title>Cypress</title><path d="M12.498 0c-0.866 0-1.684 0.11-2.148 0.194v0.002C4.66 1.211 0.48 6.127 0.48 12.002c0 1.128 0.158 2.236 0.466 3.308 0.039 0.146 0.092 0.3 0.137 0.448 1.61 4.873 6.235 8.239 11.411 8.242 0.065 0 0.252 0 0.503-0.012 0.858-0.035 1.625-0.574 1.954-1.371l0.475-1.156L20.94 8.037H19.132l-2.32 5.88-2.338-5.88h-1.911l3.278 8.024c-0.813 1.973-1.628 3.946-2.439 5.92-0.081 0.195-0.266 0.329-0.474 0.337-0.144 0.005-0.285 0.01-0.432 0.009-4.592 0-8.681-3.075-9.944-7.477a10.323 10.323 0 0 1-0.399-2.848c0-5.097 3.658-9.356 8.618-10.181 0.222-0.037 0.89-0.145 1.727-0.144 4.424 0 8.282 2.736 9.746 6.858 0.056 0.144 0.098 0.293 0.147 0.441 0.299 0.976 0.454 1.992 0.454 3.026 0 4.577-2.946 8.547-7.328 9.877l0.487 1.603c5.093-1.549 8.513-6.162 8.516-11.478 0-1.552-0.299-2.875-0.652-3.899-0.043-0.121-0.087-0.243-0.131-0.364h-0.002C21.973 3.081 17.553 0 12.498 0ZM8.928 7.884c-1.202 0-2.178 0.386-2.986 1.178-0.802 0.787-1.207 1.776-1.206 2.94 0 1.156 0.407 2.14 1.206 2.925 0.807 0.792 1.784 1.176 2.986 1.175 1.708 0 3.161-0.957 3.793-2.492l0.033-0.082-1.631-0.556c-0.168 0.457-0.756 1.491-2.195 1.491-0.676 0-1.246-0.235-1.696-0.7-0.458-0.471-0.689-1.065-0.689-1.761 0-0.701 0.226-1.283 0.689-1.776 0.453-0.466 1.021-0.702 1.696-0.703 1.44 0 2.027 1.083 2.197 1.491l1.629-0.554-0.033-0.084c-0.63-1.538-2.085-2.492-3.793-2.492Z"/></svg>