<svg fill="#B03931" role="img" viewBox="0 0 36 24" xmlns="http://www.w3.org/2000/svg"><title>D</title><path d="M33.723 0a2.017 1.848 0 0 0-2.015 1.848 2.017 1.848 0 0 0 2.015 1.848A2.017 1.848 0 0 0 35.741 1.848a2.017 1.848 0 0 0-2.018-1.848z m-23.66 0.618l-8.911 0.012c-0.038 0-0.075-0.004-0.112 0-0.438 0.053-0.779 0.404-0.781 0.825l0.027 21.546c0 0.325 0.089 0.999 1.008 0.999l8.25-0.031c2.358-0.004 3.938-0.046 4.878-0.166h0.024a16.898 16.898 0 0 0 2.89-0.693c1.804-0.562 3.4-1.396 4.775-2.509a11.611 11.611 0 0 0 3.126-3.787 9.929 9.929 0 0 0 0.955-2.938 6.274 5.751 0 0 0 0.384 0.041 6.274 5.751 0 0 0 6.274-5.75 6.274 5.751 0 0 0-6.274-5.751 6.274 5.751 0 0 0-4.287 1.599 13.066 13.066 0 0 0-3.327-2.003c-2.271-0.961-5.228-1.402-8.899-1.394z m-0.388 4.441c1.796-0.004 3.074 0.05 3.798 0.149a10.822 10.822 0 0 1 2.391 0.645c0.843 0.322 1.579 0.714 2.211 1.203 1.74 1.353 2.561 2.955 2.564 5.074 0.004 2.17-0.789 3.86-2.484 5.278a8.252 8.252 0 0 1-1.74 1.097c-0.605 0.281-1.393 0.525-2.387 0.733-0.94 0.189-2.365 0.296-4.223 0.299l-3.951 0.006-0.018-14.478 3.841-0.006z"/></svg>