<svg fill="#00529B" role="img" viewBox="0 0 88 24" xmlns="http://www.w3.org/2000/svg"><title>DAF</title><path d="M72.01 14.864h-9.679V0H87.943v4.332h-15.933v2.648h15.662v4.2h-15.662z m-27.501-11.129l-6.705 11.169H28.474l8.839-14.904h14.37l8.876 14.904h-19.642l2.343-3.882h5.618zM0.072 14.875V0.066h18.273c5.932 0 10.154 2.702 10.154 7.302 0 4.38-3.347 7.507-10.326 7.507z m14.677-3.787c2.274 0 3.607-1.941 3.607-3.424 0-1.512-1.19-3.281-3.541-3.281H9.838v6.705zM0.057 18.339h87.615v5.661H0.057Z"/></svg>