<svg fill="#CE3DF3" role="img" viewBox="0 0 43 24" xmlns="http://www.w3.org/2000/svg"><title>daily.dev</title><path d="M32.758 0.736a2.514 2.514 0 0 0-3.556 0L8.466 21.478l2.37-4.743-4.743-4.74 5.928-5.926 4.742 4.743 3.554-3.558-6.518-6.518a2.514 2.514 0 0 0-3.556 0L0.762 10.218a2.513 2.513 0 0 0 0 3.556l7.704 7.702 1.777 1.777a2.514 2.514 0 0 0 3.556 0L34.539 2.515l-1.777-1.779Zm-0.594 6.527l4.743 4.743-7.706 7.704a2.513 2.513 0 1 0 3.554 3.554l9.483-9.481a2.513 2.513 0 0 0 0-3.556l-7.704-7.703-2.37 4.739Z"/></svg>