<svg fill="#1AD1A5" role="img" viewBox="0 0 16 24" xmlns="http://www.w3.org/2000/svg"><title>DaisyUI</title><path d="M8 0C3.828 0.001 0.396 3.433 0.395 7.605c0.001 4.172 3.433 7.604 7.605 7.605 4.172-0.001 7.604-3.433 7.605-7.605C15.604 3.433 12.172 0.001 8 0Zm0 0.286c4.016 0 7.32 3.304 7.32 7.32-0.001 4.015-3.305 7.318-7.32 7.318-4.015 0-7.319-3.304-7.32-7.319 0-4.016 3.304-7.32 7.32-7.32z m0 4.04a3.294 3.294 0 0 0-3.279 3.279v0.001A3.296 3.296 0 0 0 8 10.884a3.294 3.294 0 0 0 3.279-3.279A3.294 3.294 0 0 0 8 4.326ZM4.34 16.681h-0.008a3.67 3.67 0 0 0-3.652 3.652v0.015A3.67 3.67 0 0 0 4.332 24h7.336a3.67 3.67 0 0 0 3.652-3.652v-0.016a3.67 3.67 0 0 0-3.652-3.652h-0.008Z"/></svg>