<svg fill="#0D2192" role="img" viewBox="0 0 33 24" xmlns="http://www.w3.org/2000/svg"><title>Dapr</title><path d="M10.536 6.091h14.302a0.334 0.334 0 0 1 0.335 0.335v0.893a0.334 0.334 0 0 1-0.335 0.335H10.536a0.334 0.334 0 0 1-0.335-0.335v-0.893a0.334 0.334 0 0 1 0.335-0.335z m2.767-6.091h8.89a0.18 0.18 0 0 1 0.18 0.18v6.151a0.18 0.18 0 0 1-0.18 0.18h-8.89a0.18 0.18 0 0 1-0.181-0.18v-6.151a0.18 0.18 0 0 1 0.181-0.18z m7.935 22.998l-1.429 1.002-1.43-1.002 0.211-5.725h2.438z m-13.072-5.775H5.744v-0.76c-0.231 0.29-0.465 0.502-0.701 0.634-0.413 0.231-0.883 0.347-1.41 0.348-0.852 0-1.61-0.293-2.274-0.879C0.566 15.867 0.17 14.941 0.17 13.79c0-1.172 0.406-2.107 1.218-2.806 0.645-0.556 1.386-0.834 2.222-0.835 0.487 0 0.945 0.103 1.374 0.31 0.246 0.118 0.5 0.313 0.76 0.584V6.132h2.422Zm-2.348-3.426c0-0.433-0.153-0.801-0.458-1.104-0.305-0.303-0.674-0.454-1.107-0.454-0.482 0-0.879 0.182-1.189 0.546-0.251 0.295-0.377 0.633-0.377 1.012 0 0.379 0.125 0.716 0.377 1.011 0.305 0.364 0.701 0.547 1.189 0.547 0.438 0 0.808-0.15 1.111-0.451 0.303-0.3 0.454-0.67 0.454-1.107Zm11.431 3.426h-2.422v-0.761c-0.231 0.291-0.465 0.502-0.701 0.635-0.413 0.231-0.883 0.347-1.411 0.348-0.851 0-1.609-0.293-2.274-0.879-0.793-0.699-1.189-1.624-1.188-2.777 0-1.172 0.406-2.107 1.218-2.806 0.645-0.556 1.386-0.834 2.222-0.834 0.487 0 0.945 0.103 1.374 0.31 0.246 0.118 0.5 0.313 0.76 0.584v-0.672h2.422z m-2.348-3.426c0-0.433-0.153-0.801-0.458-1.104-0.305-0.303-0.674-0.454-1.107-0.454-0.482 0-0.879 0.182-1.189 0.546-0.251 0.295-0.377 0.633-0.377 1.012 0 0.379 0.125 0.716 0.377 1.011 0.305 0.364 0.701 0.547 1.189 0.547 0.438 0 0.808-0.15 1.111-0.451 0.303-0.3 0.454-0.67 0.454-1.107z m11.704 0.007c0 1.172-0.406 2.107-1.218 2.806-0.645 0.556-1.386 0.834-2.223 0.835-0.487 0-0.945-0.103-1.373-0.311-0.246-0.118-0.5-0.313-0.761-0.583v4.098h-2.421v-10.278h2.421v0.76c0.217-0.286 0.45-0.497 0.702-0.635 0.413-0.231 0.883-0.347 1.41-0.347 0.852 0 1.61 0.293 2.274 0.879 0.792 0.699 1.189 1.625 1.189 2.776z m-2.518-0.007c0-0.389-0.123-0.726-0.369-1.012-0.31-0.364-0.709-0.547-1.196-0.546-0.438 0-0.808 0.15-1.111 0.45-0.303 0.3-0.454 0.67-0.454 1.108 0 0.433 0.153 0.801 0.457 1.104 0.305 0.303 0.674 0.454 1.108 0.454 0.487 0 0.884-0.182 1.188-0.547 0.251-0.295 0.377-0.633 0.377-1.011zM32.83 12.608c-0.34-0.162-0.684-0.244-1.033-0.244-0.797 0-1.314 0.325-1.551 0.975-0.089 0.236-0.133 0.554-0.133 0.953v2.931h-2.422v-6.852h2.422v1.122c0.256-0.399 0.532-0.687 0.827-0.864 0.399-0.236 0.871-0.355 1.418-0.354a6.137 6.137 0 0 1 0.472 0.022z"/></svg>