<svg fill="#141E24" role="img" viewBox="0 0 28 24" xmlns="http://www.w3.org/2000/svg"><title>Dark Reader</title><path d="M21.118 8.115c-0.204-1.894-1.049-3.55-2.385-4.73A7.157 7.157 0 0 0 14 1.6c-1.743 0-3.429 0.635-4.733 1.785C7.932 4.565 7.087 6.221 6.883 8.115a5.63 5.63 0 0 1 1.118-0.115 5.199 5.199 0 0 1 4.806 3.204l2.388-0.002a5.179 5.179 0 0 1 4.806-3.202 5.531 5.531 0 0 1 1.119 0.115zM4.507 17.093l-2.507 6.906H0.4l3.017-8.3a5.237 5.237 0 0 1-0.455-1.186 5.443 5.443 0 0 1-0.162-1.314 5.327 5.327 0 0 1 0.651-2.588 5.021 5.021 0 0 1 1.786-1.861c0.091-2.501 1.069-4.735 2.754-6.338A8.727 8.727 0 0 1 14 0c2.236 0 4.393 0.87 6.012 2.414 1.684 1.606 2.661 3.84 2.751 6.342a5.009 5.009 0 0 1 1.786 1.859c0.434 0.785 0.653 1.675 0.651 2.584 0 0.442-0.053 0.884-0.161 1.313-0.103 0.41-0.255 0.808-0.456 1.185L27.6 23.999h-1.6l-2.507-6.909c-0.465 0.416-0.996 0.736-1.568 0.955a5.273 5.273 0 0 1-1.925 0.355 5.253 5.253 0 0 1-3.55-1.391c-0.937-0.867-1.523-2.056-1.635-3.409H13.184c-0.117 1.351-0.703 2.54-1.64 3.406a5.255 5.255 0 0 1-3.545 1.394 5.263 5.263 0 0 1-1.924-0.352 5.116 5.116 0 0 1-1.569-0.955z m12.694-3.904a2.79 2.79 0 0 0 2.82 2.81 2.799 2.799 0 0 0-0.021-5.598 2.793 2.793 0 0 0-2.799 2.788z m-12.001 0.011a2.791 2.791 0 0 0 2.799 2.799 2.798 2.798 0 0 0 2.802-2.799 2.798 2.798 0 0 0-2.801-2.799 2.791 2.791 0 0 0-2.799 2.799z m6.4 6.8c0.037-0.479 0.371-0.797 0.8-0.8a0.772 0.772 0 0 1 0.8 0.8v3.199a0.772 0.772 0 0 1-0.8 0.8c-0.431-0.003-0.763-0.321-0.8-0.8V20.001z m3.2 0c0.037-0.479 0.369-0.797 0.8-0.8a0.772 0.772 0 0 1 0.8 0.8v3.199a0.772 0.772 0 0 1-0.8 0.8c-0.431-0.003-0.763-0.321-0.8-0.8V20.001z m3.2 1.6c0.037-0.479 0.371-0.797 0.8-0.8a0.772 0.772 0 0 1 0.8 0.8v1.599a0.772 0.772 0 0 1-0.8 0.8c-0.431-0.003-0.763-0.321-0.8-0.8v-1.599z m-9.6 0c0.037-0.479 0.369-0.797 0.8-0.8a0.772 0.772 0 0 1 0.8 0.8v1.599a0.772 0.772 0 0 1-0.8 0.8c-0.431-0.003-0.763-0.321-0.8-0.8v-1.599z"/></svg>