<svg fill="#0175C2" role="img" viewBox="0 0 24 24" xmlns="http://www.w3.org/2000/svg"><title>Dart</title><path d="M4.105 4.106S9.158 1.581 11.684 0.317a3.079 3.079 0 0 1 1.481-0.315c0.766 0.047 1.677 0.788 1.677 0.788L24 9.949v9.789h-4.263V24.001H9.789l-9-9C0.303 14.501 0 13.796 0 13.106c0-0.319 0.18-0.818 0.316-1.105l3.789-7.895z m0.679 0.679v11.787c0.002 0.543 0.021 1.024 0.498 1.508L10.204 23.001h8.533v-4.263L4.784 4.785z m12.055-0.678c-0.899-0.896-1.809-1.78-2.74-2.643-0.302-0.267-0.567-0.468-1.07-0.462-0.37 0.014-0.87 0.195-0.87 0.195L6.341 4.106l10.498 0.001z"/></svg>