<svg fill="#0E353D" role="img" viewBox="0 0 18 24" xmlns="http://www.w3.org/2000/svg"><title>Dashlane</title><path d="M17.89 7.719c0-0.149-0.149-0.298-0.357-0.357l-2.502-0.922c-0.417-0.179-0.893 0.03-0.894 0.327V17.25c0 0.149 0.149 0.327 0.298 0.387l2.561 0.922c0.387 0.149 0.894-0.06 0.894-0.387z m-4.676-3.663c0-0.149-0.149-0.298-0.358-0.358l-2.501-0.922c-0.417-0.179-0.894 0.03-0.894 0.328v6.372c0 0.149 0.149 0.327 0.298 0.388l2.561 0.922c0.387 0.149 0.894-0.059 0.894-0.387z m0 11.466c0-0.149-0.149-0.297-0.358-0.357l-2.501-0.922c-0.417-0.179-0.894 0.03-0.894 0.328v6.372c0 0.149 0.149 0.327 0.298 0.387l2.561 0.922c0.387 0.149 0.894-0.059 0.894-0.387z m-4.676 1.281c0-0.149-0.149-0.298-0.358-0.357l-2.501-0.922c-0.419-0.179-0.894 0.03-0.894 0.327v6.791c0 0.149 0.149 0.328 0.298 0.387l2.561 0.922c0.387 0.149 0.894-0.059 0.894-0.387z m0-15.458c0-0.149-0.149-0.298-0.358-0.357L5.679 0.066c-0.419-0.179-0.894 0.03-0.894 0.328v6.79c0 0.149 0.149 0.328 0.298 0.387l2.561 0.922c0.387 0.149 0.894-0.059 0.894-0.387z m-4.675 0.269c0-0.149-0.149-0.298-0.358-0.358L1.004 0.334C0.587 0.155 0.11 0.364 0.11 0.662v21.741c0 0.149 0.149 0.327 0.298 0.386l2.561 0.923c0.387 0.149 0.894-0.059 0.894-0.388z"/></svg>