<svg fill="#008DE4" role="img" viewBox="0 0 30 24" xmlns="http://www.w3.org/2000/svg"><title>Dash</title><path d="M4.171 9.495C1.352 9.495 0.949 11.33 0.684 12.443 0.331 13.894 0.216 14.488 0.216 14.488h11.023c2.821 0 3.224-1.838 3.489-2.949 0.351-1.451 0.467-2.045 0.466-2.045zM19.583 0H8.818L7.928 4.986l9.713 0.012c4.786 0 6.197 1.737 6.156 4.618-0.023 1.473-0.662 3.973-0.938 4.784-0.737 2.16-2.251 4.619-7.928 4.613l-9.444-0.005-0.894 4.992h10.741c3.788 0 5.396-0.444 7.104-1.226 3.783-1.757 6.037-5.488 6.94-10.361C30.72 5.159 29.048 0 19.583 0z"/></svg>