<svg fill="#005386" role="img" viewBox="0 0 23 24" xmlns="http://www.w3.org/2000/svg"><title>Dassault Syst&#232;mes</title><path d="M20.685 8.025c1.064 0.192 1.932 0.34 2.132 0.79 0.223 0.51-0.936 0.541-1.52 0.552-2.799 0.054-4.486 0.11-4.572 1.061-0.11 1.224 1.196 2.457 2.486 4.186 1.178 1.577 2.517 3.135 2.133 4.586-0.482 1.809-2.699 2.192-4.811 2.192-2.021 0.001-3.938-0.323-4.743-0.482-1.002-0.199-0.852-0.694-0.585-0.853 0.298-0.178 2.002-0.182 3.187-0.252 0.975-0.058 3.805-0.056 4.246-0.781 0.54-0.889-0.783-2.408-2-4-1.519-1.984-3.186-4.034-2.303-5.533 1.14-1.936 4.484-1.803 6.35-1.466m-13.69 2.95c1.772-0.104 3.926 0.206 5.134 1.131a2.172 2.172 0 0 1 0.78 2.277c-0.698 2.752-3.304 6.083-9.093 8.643-1.841 0.813-3.289 1.125-3.593 0.906-0.326-0.234 0.624-2.052 0.909-2.654 0.925-1.952 2.079-3.853 3.205-5.595 0.414-0.64 1.055-1.752 1.634-1.662 0.519 0.08-0.089 1.26-0.488 2.011-0.672 1.26-2.523 4.76-1.912 4.969 1.35 0.462 7.68-4.354 6.746-7.036-0.432-1.245-3.18-1.363-4.912-1.363-0.787 0-2.508 0.186-2.603-0.417-0.102-0.556 2.613-1.116 4.192-1.21M11.367 0.013c2.068-0.098 4.514 0.342 4.97 1.802 0.747 2.39-3.04 5.877-6.338 7.587-0.809 0.42-1.3 0.536-1.504 0.507-0.195-0.027-0.225-0.221-0.162-0.355 0.118-0.252 0.65-0.764 1.361-1.322 3.715-2.9 4.923-5.028 4.221-5.89-0.45-0.552-2.332-0.937-4.287-0.937-0.53 0-1.925 0.123-2.068-0.367C7.442 0.634 9.314 0.108 11.366 0.012"/></svg>