<svg fill="#770C56" role="img" viewBox="0 0 29 24" xmlns="http://www.w3.org/2000/svg"><title>date-fns</title><path d="M1.397 5.451C0.546 7.502 0.121 9.686 0.121 11.999c0 2.315 0.425 4.498 1.276 6.55a16.498 16.498 0 0 0 3.676 5.451h3.218c-3.336-3.302-5.004-7.302-5.004-12.001 0-4.697 1.668-8.697 5.004-11.999H5.073a16.498 16.498 0 0 0-3.676 5.451Zm26.205 13.098c0.851-2.051 1.277-4.235 1.277-6.55 0-2.314-0.427-4.497-1.277-6.548a16.498 16.498 0 0 0-3.676-5.451h-3.218c3.336 3.302 5.004 7.302 5.004 11.999 0 4.698-1.668 8.698-5.004 12.001h3.218a16.498 16.498 0 0 0 3.676-5.451ZM14.057 1.575H11.929v12.234h2.128v-0.04l8.649-8.649-1.379-1.379-7.27 7.27V1.575Z"/></svg>