<svg fill="#199ED9" role="img" viewBox="0 0 74 24" xmlns="http://www.w3.org/2000/svg"><title>Datto</title><path d="M12.387 7.862c-1.384-1.17-2.668-1.67-4.423-1.67C3.54 6.193 0.472 9.788 0.472 14.996c0 5.237 3.139 8.947 7.591 8.947 1.669 0 3.139-0.571 4.309-1.712v1.312h3.596V0l-3.581 0.014v7.848z m-0.4 10.374c-0.5 1.313-1.955 2.24-3.567 2.24-2.54 0-4.167-2.097-4.167-5.351 0-3.382 1.641-5.493 4.281-5.494 1.598 0 3.139 0.999 3.524 2.312 0.214 0.642 0.286 1.527 0.286 3.353 0 1.441-0.1 2.34-0.357 2.94z m19.919-0.386v-6.249c0-2.026-0.214-2.811-1.099-3.739-1.027-1.113-2.925-1.712-5.279-1.712-2.383 0-4.78 0.571-7.092 1.741l1.499 2.882c2.383-1.027 3.567-1.313 5.208-1.313 2.212 0 3.111 0.785 3.139 2.711v0.543c-2.882 0.286-3.852 0.399-4.994 0.599-3.638 0.714-5.351 2.311-5.351 5.022 0 3.21 2.783 5.636 6.45 5.637 1.955 0 3.496-0.714 4.594-2.098 0.357 1.17 1.313 1.883 2.925 2.098l1.826-2.783c-1.655-0.671-1.826-1.027-1.826-3.339z m-3.638 0.314c0 0.999-0.143 1.384-0.642 1.812-0.642 0.571-1.741 0.97-2.668 0.971-1.741 0-3.182-1.141-3.182-2.54 0-1.141 0.756-1.812 2.425-2.212 1.113-0.257 2.026-0.357 4.067-0.571v2.54z m15.924 1.926l0.456 3.168c-1.17 0.314-2.497 0.5-3.638 0.499-3.353 0-4.666-1.384-4.666-4.851v-9.275h-3.096v-3.096h3.096V1.299l3.596-1.285v6.521h4.48v3.096h-4.466v8.076c0 2.098 0.428 2.597 2.212 2.597 0.599 0 1.284-0.071 2.026-0.214z m12.428 0l0.456 3.168c-1.17 0.314-2.497 0.5-3.638 0.499-3.353 0-4.666-1.384-4.666-4.851v-9.275H45.676v-3.096h3.096V1.299l3.596-1.285v6.521h4.466v3.096h-4.466l0.014 8.076c0 2.098 0.428 2.597 2.211 2.597 0.599 0 1.284-0.071 2.027-0.214z m8.561-13.983c-4.737 0-7.919 3.61-7.919 9.018 0 5.237 3.353 8.875 8.204 8.875 4.751 0 8.062-3.667 8.062-8.875 0-5.337-3.382-9.018-8.347-9.018z m0.143 14.383c-2.64 0-4.381-2.169-4.381-5.422s1.783-5.493 4.423-5.494c2.569 0 4.281 2.183 4.281 5.494 0 3.239-1.755 5.422-4.323 5.422z"/></svg>