<svg fill="#382923" role="img" viewBox="0 0 20 24" xmlns="http://www.w3.org/2000/svg"><title>DBeaver</title><path d="M15.111 0.001a3.283 3.283 0 0 0-1.746 0.55 8.436 8.436 0 0 0-2.748 2.543 6.722 6.722 0 0 1-1.344 0c-0.32 0-0.789 0.209-0.574 0.963 0.215 0.754 0.798 1.497 0.75 1.924a3.699 3.699 0 0 0-0.069 0.805c-0.298 0.471-1.691 2.743-2.113 4.549 0 0 0.796-7.967-1.645-9.33C3.182 0.641 1.218 1.728 0.562 3.524c-1.403 3.833 0.675 9.825 3.605 14.662 2.93 4.837 5.713 5.708 7.686 5.795 3.299 0.144 2.338-0.57 3.523-0.641 1.185-0.07 1.012 0.641 2.985 0.366 1.438-0.208 1.685-1.171 1.14-1.604-0.544-0.433-0.363-1.483 0.157-3.719 0.519-2.236-0.224-6.17-0.746-7.183-0.522-1.014-0.464-1.53 0.089-2.528a6.213 6.213 0 0 0 0.85-2.506 3.858 3.858 0 0 0 0-1.043 0.07 0.07 0 0 0 0-0.021v-0.051s-0.344 1.375-1.02 1.869a9.836 9.836 0 0 0-0.32 0.245c0.067-0.257 0.321-1.34-0.041-1.924 0 0-0.151 2.488-1.476 2.619-1.326 0.132-3.202-1.224-3.731-1.77 0.038 0.21 0.068 0.268 0.109 0.43 0.044 0.151 0.096 0.3 0.157 0.445 0.186 0.6 0.384 1.518 0.086 2.092-0.464 0.911-1.476 2.313-1.373 4.315a8.49 8.49 0 0 0 0.802 3.527c0.391 0.988 0.493 1.899 0.416 2.057-0.077 0.157 0.027 0.961-1.814-0.418-1.841-1.379-2.338-2.807-2.338-2.807a5.901 5.901 0 0 0-0.336 2.496 15.511 15.511 0 0 0 0.777 3.561s-2.415-1.957-2.543-5.877c-0.122-3.602 1.986-7.769 2.323-8.411 0.065 0.144 0.162 0.273 0.283 0.375 0.121 0.102 0.265 0.174 0.418 0.213 0 0-0.939-0.517-0.254-2.525 0.685-2.008 2.067-3.794 3.463-4.58a3.994 3.994 0 0 1 3.871-0.197A3.281 3.281 0 0 0 15.376 0.006 3.258 3.258 0 0 0 15.111 0.001Zm-1.391 1.865a1.152 1.152 0 0 0-0.221 0.025c-0.352 0.077-0.54 0.49-0.296 1a0.823 0.823 0 0 1 0.066 0.362 0.827 0.827 0 0 1-0.096 0.355 4.986 4.986 0 0 1 0.91-0.717 4.395 4.395 0 0 1 1.217-0.439 1.429 1.429 0 0 1-0.724-0.221 1.14 1.14 0 0 0-0.493-0.312 1.142 1.142 0 0 0-0.363-0.053Zm4.871 0.174c-0.504 0-1.172 0.114-1.687 0.316a1.34 1.34 0 0 0-0.762 0.563c-0.279 0.641 1.417 1.705 2.1 1.505 0.32-0.093 0.796-0.788 1.004-1.394 0.141-0.433 0.16-0.819-0.1-0.918-0.131-0.049-0.326-0.072-0.555-0.072z m0.225 5.33s-0.346 1.181-0.59 1.716c-0.211 0.475-0.279 0.436-0.436 0.491a4.388 4.388 0 0 0 0.176-0.664c0.093-0.391 0-0.494 0-0.494a4.172 4.172 0 0 1-0.463 1.283 1.008 1.008 0 0 1-0.64 0.039c-0.259-0.106-0.305-1.326-0.305-1.397a2.513 2.513 0 0 0 1.256-0.191 2.52 2.52 0 0 0 1.002-0.783Z"/></svg>