<svg fill="#FF694B" role="img" viewBox="0 0 24 24" xmlns="http://www.w3.org/2000/svg"><title>dbt</title><path d="M17.9 9.376a8.149 8.149 0 0 0-3.042-3.12l1.771 0.838a10.287 10.287 0 0 1 3.74 3.001l3.234-5.93a2.855 2.855 0 0 0-0.061-2.96C22.757 0.037 21.211-0.341 19.975 0.333l-5.875 3.21a4.361 4.361 0 0 1-4.176 0L4.177 0.408a2.854 2.854 0 0 0-2.959 0.063c-1.167 0.785-1.545 2.33-0.873 3.566L3.55 9.911a4.361 4.361 0 0 1 0 4.177l-3.127 5.743a2.86 2.86 0 0 0 0.085 2.997c0.794 1.144 2.322 1.505 3.545 0.839l6.058-3.305a10.288 10.288 0 0 1-3.005-3.746l-0.838-1.77a8.148 8.148 0 0 0 3.121 3.042l10.583 5.779c1.221 0.666 2.748 0.305 3.543-0.837a2.87 2.87 0 0 0 0.079-3.001L17.9 9.376z m3.38-7.735c0.602 0 1.09 0.488 1.091 1.091s-0.488 1.09-1.091 1.09-1.09-0.488-1.09-1.09 0.488-1.09 1.09-1.091zM2.744 3.822c-0.602 0-1.09-0.488-1.09-1.09s0.488-1.09 1.09-1.091 1.09 0.488 1.091 1.091S3.346 3.822 2.744 3.822z m0 18.536c-0.602 0-1.09-0.488-1.09-1.09 0-0.602 0.488-1.09 1.09-1.09s1.09 0.488 1.091 1.09c0 0.602-0.488 1.09-1.091 1.09z m10.359-11.449c-1.201-0.004-2.177 0.967-2.181 2.168a2.174 2.174 0 0 0 0.705 1.609c-1.487-0.209-2.523-1.584-2.314-3.071 0.209-1.487 1.584-2.523 3.072-2.314a2.719 2.719 0 0 1 2.314 2.314 2.162 2.162 0 0 0-1.596-0.706z m8.177 11.449c-0.602 0-1.09-0.488-1.09-1.09 0-0.602 0.488-1.09 1.09-1.09s1.09 0.488 1.091 1.09c0 0.602-0.488 1.09-1.091 1.09z"/></svg>