<svg fill="#FF2D55" role="img" viewBox="0 0 24 24" xmlns="http://www.w3.org/2000/svg"><title>Decentraland</title><path d="M16.925 18.978h3.134l-3.134-3.778Zm-8.507-9.423v6.623h5.507ZM12.044 0C5.418 0 0 5.333 0 11.956c0 1.467 0.269 2.889 0.761 4.177l4.657-5.555L8.104 7.333l6.537 7.822 1.881-2.266 4.925 5.866h0.403c1.388-1.956 2.149-4.311 2.149-6.844C24.089 5.333 18.671 0 12.044 0ZM8.059 6.267c-0.94 0-1.657-0.755-1.656-1.645 0-0.889 0.761-1.644 1.656-1.644 0.94 0 1.657 0.755 1.657 1.644 0 0.889-0.716 1.644-1.657 1.645z m8.731 5.377c-1.836 0-3.313-1.467-3.313-3.288 0-1.822 1.478-3.289 3.313-3.289 1.836 0 3.313 1.467 3.314 3.288 0.045 1.822-1.478 3.289-3.314 3.289z m-3.985 5.734H1.164c0.269 0.533 0.582 1.022 0.896 1.511h9.447ZM4.478 21.422h14.999c0.492-0.4 1.03-0.889 1.343-1.244H3.134c0.448 0.444 0.895 0.889 1.344 1.244z m7.566 2.578c1.97 0 3.851-0.444 5.508-1.289H6.537C8.194 23.555 10.03 24 12.044 24z"/></svg>