<svg fill="#0F2B46" role="img" viewBox="0 0 20 24" xmlns="http://www.w3.org/2000/svg"><title>DeepL</title><path d="M18.907 4.94L10.685 0.186a1.358 1.358 0 0 0-1.37 0L1.093 4.957a1.377 1.377 0 0 0-0.686 1.182v9.526a1.377 1.377 0 0 0 0.686 1.194l8.222 4.759 0.062 0.036 4.048 2.346-0.011-2.061 0.008-1.145 0.003 0.019v-0.384c0-0.23 0.119-0.434 0.296-0.561l0.264-0.15 0.127-0.07h-0.008l4.803-2.78a1.38 1.38 0 0 0 0.686-1.195V6.135a1.38 1.38 0 0 0-0.686-1.195m-9.853 9.688a1.427 1.427 0 0 1-0.399 1.384 1.409 1.409 0 0 1-1.971 0 1.42 1.42 0 0 1 0-2.063 1.409 1.409 0 0 1 2.042 0.076l3.328-1.916 0.687 0.386z m5.771-2.414a1.409 1.409 0 0 1-1.971 0 1.426 1.426 0 0 1-0.37-1.478l-0.013 0.008-3.752-2.173-0.057 0.057a1.409 1.409 0 0 1-1.97 0 1.42 1.42 0 0 1 0-2.063 1.409 1.409 0 0 1 1.972 0c0.394 0.377 0.524 0.918 0.39 1.407l3.781 2.2 0.019-0.019a1.409 1.409 0 0 1 1.972 0 1.427 1.427 0 0 1 0 2.061z"/></svg>