<svg fill="#00CCBC" role="img" viewBox="0 0 22 24" xmlns="http://www.w3.org/2000/svg"><title>Deliveroo</title><path d="M15.861 0l-1.127 10.584L12.81 1.66 6.777 2.926l1.924 8.922-8.695 1.822 1.535 7.127L16.832 24l3.498-7.744L21.994 0.636 15.861 0zM10.39 13.61a0.755 0.755 0 0 1 0.322 0.066c0.208 0.093 0.56 0.29 0.63 0.592 0.103 0.434 0.004 0.799-0.312 1.084v0.002c-0.315 0.284-0.732 0.258-1.174 0.113-0.441-0.145-0.637-0.672-0.47-1.309 0.124-0.473 0.71-0.544 1.004-0.549z m4.142 0.548c0.447-0.012 0.832 0.186 1.05 0.543 0.217 0.357 0.107 0.75-0.122 1.143h-0.002c-0.229 0.392-0.83 0.445-1.422 0.16-0.399-0.193-0.397-0.684-0.353-0.983a0.922 0.922 0 0 1 0.193-0.447c0.142-0.177 0.381-0.408 0.656-0.416Z"/></svg>