<svg fill="#072240" role="img" viewBox="0 0 75 24" xmlns="http://www.w3.org/2000/svg"><title>De'Longhi</title><path d="M62.987 0H12.016A12.025 12.025 0 0 0 0.02 11.997a12.019 12.019 0 0 0 11.996 12.003H62.987A12.006 12.006 0 0 0 74.98 11.997a12.012 12.012 0 0 0-11.993-11.997z m-0.16 23.141H12.154A11.132 11.132 0 0 1 1.016 12a11.132 11.132 0 0 1 11.138-11.154h50.673A11.138 11.138 0 0 1 73.981 12a11.132 11.132 0 0 1-11.154 11.141z m-11.993-12.069c0.262 0 0.444 0.041 0.553 0.135v3.229a2.611 2.611 0 0 1-0.553 0.135c-0.194-0.009-0.334-0.094-0.416-0.263a2.096 2.096 0 0 1-0.112-0.787v-1.699c0-0.5 0.184-0.75 0.528-0.75z m-14.477 0.428v2.59a1.224 1.224 0 0 1-0.113 0.609c-0.081 0.109-0.206 0.166-0.371 0.165-0.166 0-0.303-0.053-0.388-0.153-0.072-0.109-0.112-0.319-0.112-0.618V11.5c0-0.459 0.166-0.678 0.484-0.678 0.334 0 0.5 0.219 0.5 0.678z m-15.305-0.193a2.505 2.505 0 0 1 0.044 0.496h-1.081c0-0.194 0.016-0.359 0.044-0.512 0-0.069 0.025-0.137 0.041-0.206 0.056-0.181 0.209-0.262 0.428-0.263 0.25 0 0.403 0.081 0.471 0.263 0.012 0.069 0.041 0.137 0.053 0.222zM13.263 8.939c0.141 0.122 0.209 0.372 0.209 0.731v3.823c0 0.359-0.056 0.597-0.169 0.706a0.896 0.896 0 0 1-0.553 0.194h-0.374v-5.632h0.249c0.29 0 0.5 0.056 0.638 0.178z m49.636-5.381H12.141a8.464 8.464 0 0 0-8.439 8.439 8.471 8.471 0 0 0 8.439 8.442h50.733a8.464 8.464 0 0 0 8.424-8.442c0-4.607-3.723-8.439-8.399-8.439zM17.748 7.546H23.601v0.775H17.748v-0.775z m-1.218 4.023v2.186c0 0.469-0.087 0.912-0.266 1.312a2.086 2.086 0 0 1-0.943 1.015c-0.444 0.262-1.049 0.397-1.812 0.397H8.89v-1.755c0.178-0.072 0.29-0.181 0.334-0.322a2.077 2.077 0 0 0 0.069-0.578v-4.623a1.524 1.524 0 0 0-0.081-0.565c-0.041-0.125-0.153-0.222-0.319-0.29v-1.74h4.623c0.693 0 1.259 0.094 1.699 0.3 0.444 0.197 0.79 0.5 0.999 0.902 0.206 0.415 0.322 0.931 0.322 1.537v2.224z m7.168 1.952H20.015v0.653a1.562 1.562 0 0 0 0.085 0.565c0.072 0.137 0.209 0.225 0.428 0.225 0.222 0 0.362-0.072 0.415-0.209a1.465 1.465 0 0 0 0.097-0.553v-0.266h2.658v1.775c-0.262 0.247-0.706 0.469-1.34 0.662a6.184 6.184 0 0 1-3.726 0 1.865 1.865 0 0 1-1.012-0.844 2.917 2.917 0 0 1-0.303-1.424v-2.795a2.827 2.827 0 0 1 0.4-1.303 1.815 1.815 0 0 1 1.027-0.69c0.456-0.122 1.049-0.194 1.784-0.194 0.693 0 1.246 0.056 1.677 0.178a2.277 2.277 0 0 1 0.956 0.538c0.219 0.237 0.359 0.497 0.427 0.793 0.041 0.206 0.084 0.428 0.097 0.678 0.016 0.122 0.016 0.262 0.016 0.396v1.815z m8.258 2.958H24.763v-1.755c0.237-0.141 0.347-0.387 0.347-0.747V9.061c0-0.344-0.112-0.578-0.347-0.718v-1.74h3.764v1.74a0.656 0.656 0 0 0-0.275 0.334 1.796 1.796 0 0 0-0.097 0.593 2.58 2.58 0 0 1 0.025 0.384v4.735h0.387c0.29-0.028 0.484-0.109 0.565-0.278a1.815 1.815 0 0 0 0.129-0.787v-1.63h2.695v4.785z m7.103-3.639v1.3a2.839 2.839 0 0 1-0.335 1.467 1.88 1.88 0 0 1-0.996 0.806 4.935 4.935 0 0 1-1.715 0.247c-0.846-0.016-1.509-0.097-1.98-0.262a1.765 1.765 0 0 1-1.037-0.803c-0.209-0.372-0.319-0.871-0.318-1.521V11.541a2.78 2.78 0 0 1 0.293-1.356c0.178-0.362 0.512-0.625 0.981-0.806 0.472-0.181 1.109-0.262 1.908-0.262 0.778 0 1.399 0.081 1.856 0.222a1.824 1.824 0 0 1 1.011 0.746c0.222 0.359 0.334 0.856 0.335 1.496v1.259z m7.805 3.639h-2.88a3.567 3.567 0 0 1-0.097-0.703 7.505 7.505 0 0 1-0.043-0.734c-0.012-0.234-0.012-0.525-0.013-0.871v-2.421a0.609 0.609 0 0 0-0.637-0.637c-0.125 0-0.25 0.034-0.344 0.072v2.742c0 0.275 0.012 0.478 0.041 0.609 0.041 0.122 0.125 0.234 0.275 0.331v1.618h-3.361v-1.618a0.706 0.706 0 0 0 0.291-0.3 1.293 1.293 0 0 0 0.053-0.446v-2.408a1.843 1.843 0 0 0-0.053-0.538 0.756 0.756 0 0 0-0.291-0.318v-1.649h2.92v0.471c0.606-0.428 1.215-0.65 1.824-0.649 0.568 0.016 0.996 0.137 1.287 0.371 0.294 0.237 0.484 0.5 0.566 0.791a2.967 2.967 0 0 1 0.128 0.827v3.127c0 0.166 0.028 0.306 0.056 0.428a0.55 0.55 0 0 0 0.278 0.281v1.624z m7.555-5.644a0.584 0.584 0 0 0-0.293 0.319 2.186 2.186 0 0 0-0.053 0.512V16.644c0 0.628-0.084 1.149-0.25 1.55a1.865 1.865 0 0 1-0.953 0.934c-0.487 0.209-1.165 0.315-2.049 0.315a6.587 6.587 0 0 1-1.537-0.194 5.185 5.185 0 0 1-1.467-0.624v-1.784h2.489c0 0.537 0.184 0.8 0.556 0.8 0.234-0.009 0.375-0.106 0.431-0.275a2.614 2.614 0 0 0 0.094-0.731v-0.528a2.892 2.892 0 0 1-1.647 0.497c-0.734-0.009-1.274-0.206-1.617-0.597-0.331-0.384-0.512-0.925-0.513-1.618v-2.808c0-0.762 0.15-1.374 0.459-1.814 0.294-0.431 0.875-0.653 1.703-0.653 0.287 0 0.593 0.041 0.899 0.141a2.305 2.305 0 0 1 0.79 0.387v-0.444h2.965v1.637z m7.818 5.644h-2.864a14.674 14.674 0 0 1-0.166-1.727c0.028-0.206 0.028-0.497 0.029-0.856v-2.008a0.803 0.803 0 0 0-0.194-0.538 0.656 0.656 0 0 0-0.484-0.237 0.859 0.859 0 0 0-0.303 0.072v3.017c0 0.347 0.097 0.581 0.303 0.665v1.618H55.21v-1.618a0.703 0.703 0 0 0 0.29-0.318 2.086 2.086 0 0 0 0.053-0.584v-4.732c0-0.609-0.122-0.959-0.372-1.012v-1.615h3.071v2.958a2.561 2.561 0 0 1 0.831-0.4 2.695 2.695 0 0 1 0.843-0.137 2.405 2.405 0 0 1 1.412 0.456c0.387 0.294 0.593 0.79 0.593 1.508v2.799a1.346 1.346 0 0 1-0.025 0.234 2.015 2.015 0 0 0 0.081 0.565c0.028 0.1 0.125 0.194 0.25 0.266v1.624z m1.215-9.654a1.643 1.643 0 0 1 1.025-0.319c0.262 0 0.512 0.053 0.73 0.141a1.124 1.124 0 0 1 0.541 0.387 0.918 0.918 0 0 1 0.209 0.593v0.025a0.99 0.99 0 0 1-0.197 0.597 1.437 1.437 0 0 1-0.537 0.387 2.108 2.108 0 0 1-0.75 0.125 1.574 1.574 0 0 1-1.008-0.306 1.012 1.012 0 0 1-0.013-1.63z m2.852 9.654h-3.377v-1.618c0.166-0.109 0.262-0.209 0.288-0.331a1.961 1.961 0 0 0 0.056-0.572v-2.32a1.63 1.63 0 0 0-0.056-0.497 0.506 0.506 0 0 0-0.288-0.309v-1.634h3.043v5.01c0 0.322 0.112 0.528 0.331 0.653v1.618z"/></svg>