<svg fill="#003366" role="img" viewBox="0 0 156 24" xmlns="http://www.w3.org/2000/svg"><title>Delta</title><path d="M155.859 21.437h-4.471l-1.868-4.795h-7.786l-1.875 4.795h-4.179l8-19.205h4.322z m-7.526-8l-2.667-6.774-2.667 6.774z m-27.997 8h4.282v-15.818h6.456v-3.309h-17.155v3.309h6.417z m-24.824 0h12.503v-3.315H99.8v-15.819h-4.288z m-21.295-15.818h9.188v-3.309h-13.476v19.127h13.761v-3.315h-9.473v-4.97h8.111v-3.316h-8.111z m-32.318 15.818h6.735c6.955 0 11.095-3.601 11.095-9.551 0-5.943-4.139-9.544-11.095-9.544H41.899z m4.25-15.818h2.485c4.503 0 6.774 2.232 6.774 6.229 0 4.003-2.232 6.235-6.774 6.235h-2.485z m-14.773 13.982a0.973 0.973 0 0 1 0.973 0.973 0.973 0.973 0 0 1-0.973 0.973 0.973 0.973 0 0 1-0.974-0.973 0.973 0.973 0 0 1 0.974-0.973m0 1.797a0.843 0.843 0 0 0 0.869-0.824c0-0.474-0.363-0.83-0.869-0.83a0.818 0.818 0 0 0-0.824 0.83c0 0.467 0.357 0.824 0.824 0.824m-0.215-0.253H31.025v-1.148h0.435c0.247 0 0.357 0.104 0.357 0.324 0 0.214-0.143 0.285-0.286 0.325l0.357 0.499h-0.182l-0.324-0.499h-0.214z m0-0.649h0.182c0.143 0 0.324 0 0.324-0.175 0-0.143-0.143-0.182-0.253-0.182h-0.253zM0.141 24h30.015l-14.988-6.345z m1.116-2.563l13.911-6.702 13.904 6.702-13.904-21.437Z"/></svg>