<svg fill="#0B131A" role="img" viewBox="0 0 111 24" xmlns="http://www.w3.org/2000/svg"><title>Denon</title><path d="M43.329 8.476l15.677 15.524v-23.418h-3.594v14.596L39.703 0.018v23.451h3.598V8.628l0.028-0.152m-20.771 14.988V0.582h12.887v3.57H26.151v5.377h7.197v3.566H26.151v6.799h9.234v3.57H22.558M95.13 8.443L110.927 23.917V0.582h-3.598v14.781l-0.023-0.07-15.806-15.293v23.464h3.649v-14.937l-0.014-0.088M3.676 20.069v-16.18h3.177s8.106-0.148 8.107 8.176c0 7.607-7.358 8.005-7.358 8.004H3.676zM0.073 0.577v22.887h7.644s10.79-0.891 10.79-11.529c0-10.965-10.822-11.353-10.822-11.353H0.073z m66.586 11.326c0 2.55 0.864 4.647 2.587 6.286 3.293 3.344 8.919 3.242 12.092-0.046 3.344-3.182 3.344-9.196 0.033-12.36-3.118-3.353-9.081-3.344-12.217 0-1.663 1.649-2.494 3.695-2.495 6.12z m-3.529-0.046c0-3.242 1.201-6.032 3.589-8.36 4.531-4.637 12.582-4.693 17.1 0.027 4.739 4.457 4.767 12.499-0.014 16.906-4.439 4.453-11.991 4.688-16.739 0.388-2.624-2.277-3.935-5.266-3.936-8.961z"/></svg>