<svg fill="#70FFAF" role="img" viewBox="0 0 27 24" xmlns="http://www.w3.org/2000/svg"><title>Deno</title><path d="M1.632 18.558A12.963 12.963 0 0 1 0.428 13.073q0-0.76 0.085-1.499a13.072 13.072 0 0 1 0.252-1.459A13.072 13.072 0 0 1 4.813 3.307a13.072 13.072 0 0 1 5.947-3.018 13.072 13.072 0 0 1 3.735-0.251c1.582 0.122 3.077 0.52 4.441 1.144a13.072 13.072 0 0 1 3.028 1.933 13.094 13.094 0 0 1 4.415 7.71A13.072 13.072 0 0 1 26.572 13.073q0 0.495-0.039 0.996a13.072 13.072 0 0 1-0.793 3.6 13.072 13.072 0 0 1-2.593 4.221c-1.449 1.478-3.29 2.137-4.826 2.109a4.793 4.793 0 0 1-2.967-1.115c-1.078-0.929-1.515-1.993-1.667-3.18a5.447 5.447 0 0 1 0.14-1.654c0.114-0.414 0.403-1.216 0.828-1.565-0.496-0.215-1.133-0.68-1.336-0.903-0.049-0.054-0.044-0.142 0-0.199a0.169 0.169 0 0 1 0.193-0.058c0.427 0.146 0.947 0.291 1.495 0.381 0.719 0.121 1.617 0.272 2.524 0.318 2.211 0.109 4.524-0.886 5.241-2.861s0.439-3.931-2.135-5.104-3.763-2.566-5.842-3.407c-1.358-0.55-2.871-0.223-4.422 0.634-4.181 2.31-7.927 9.61-6.199 16.374a0.208 0.208 0 0 1-0.343 0.207 13.072 13.072 0 0 1-1.361-1.78 13.072 13.072 0 0 1-0.838-1.529M13.032 5.559c0.707-0.056 1.322 0.546 1.427 1.346 0.142 1.066-0.248 2.168-1.536 2.193-1.1 0.022-1.432-1.086-1.36-1.758 0.072-0.671 0.625-1.716 1.471-1.781"/></svg>