<svg fill="#025E8C" role="img" viewBox="0 0 23 24" xmlns="http://www.w3.org/2000/svg"><title>Dependabot</title><path d="M10.449 0.314a1.918 1.918 0 0 1 2.102 0l9.333 6.118c0.541 0.354 0.866 0.957 0.866 1.604v7.928c0 0.647-0.326 1.25-0.866 1.604l-9.333 6.118a1.918 1.918 0 0 1-2.102 0l-9.333-6.118a1.916 1.916 0 0 1-0.866-1.604V8.036c0-0.647 0.326-1.25 0.866-1.604z m1.801 7.186v0.75H6.25a0.75 0.75 0 0 0-0.75 0.75V12h-0.5a0.25 0.25 0 0 0-0.25 0.25v2.5c0 0.138 0.112 0.25 0.25 0.25h0.5v1.5c0 0.415 0.336 0.75 0.75 0.75h10.5a0.75 0.75 0 0 0 0.75-0.75v-1.5h0.5a0.25 0.25 0 0 0 0.25-0.25v-2.5a0.25 0.25 0 0 0-0.25-0.25h-0.5V9a0.75 0.75 0 0 0-0.75-0.75H13V5.5a0.25 0.25 0 0 0-0.25-0.25H11a0.25 0.25 0 0 0-0.25 0.25v1.75c0 0.138 0.112 0.25 0.25 0.25z m3.286 5.089l-1.572 1.572a0.303 0.303 0 0 1-0.428 0l-0.947-0.947a0.303 0.303 0 0 1 0-0.428l0.322-0.322a0.303 0.303 0 0 1 0.428 0l0.41 0.411 1.037-1.036a0.303 0.303 0 0 1 0.428 0l0.322 0.322a0.303 0.303 0 0 1 0 0.428zM8.964 14.16v0.001a0.303 0.303 0 0 1-0.428 0l-0.948-0.947a0.302 0.302 0 0 1 0-0.428l0.323-0.322a0.303 0.303 0 0 1 0.427 0l0.412 0.411 1.036-1.037a0.303 0.303 0 0 1 0.427 0l0.323 0.322a0.303 0.303 0 0 1 0 0.428z"/></svg>