<svg fill="#E64415" role="img" viewBox="0 0 183 24" xmlns="http://www.w3.org/2000/svg"><title>Der Spiegel</title><path d="M7.06 19.995v-15.99h5.136v15.99z m9.785 1.441v-18.872a2.625 2.625 0 0 0-2.563-2.556H0.476v3.997h1.927v15.99H0.476v3.997h13.965a2.503 2.503 0 0 0 2.412-2.556z m14.45-5.916v4.475h-5.461v-6.554h7.229v-3.997h-7.221v-5.439h5.461v3.353h4.491v-7.358H19.417v4.005h1.767v15.99h-1.767v3.997h16.384v-8.472z m13.487-6.076v-5.439h5.302v5.439z m10.119 10.551v-5.757a2.533 2.533 0 0 0-2.571-2.557c1.441 0 2.571-1.123 2.571-2.563v-6.395c0-1.282-1.13-2.556-2.412-2.556H38.206v3.997h2.086v15.99h-2.086v3.838h8.503v-3.997h-1.768v-6.554h5.303v6.554h-1.927v3.997h8.344v-3.997z m34.187-10.551v-5.439h5.461v5.439z m10.119 1.441v-8.321a2.533 2.533 0 0 0-2.572-2.556h-14.124v3.997h1.927v15.99h-1.927v3.997h8.344v-3.997h-1.767v-6.554h7.547c1.441 0 2.571-1.123 2.572-2.564z m8.192 9.11v-15.99h1.919v-3.997h-8.344v3.997h1.927v15.99h-1.927v3.997h8.344v-3.997z m15.883-4.475v4.475h-5.461v-6.554h7.229v-3.997h-7.221v-5.439h5.461v3.353h4.65v-7.358h-16.536v4.005h1.767v15.99h-1.767v3.997h16.536v-8.472z m13.168-6.076v3.997h3.695v6.554h-5.462v-15.99h5.462v3.353h4.809v-4.794a2.533 2.533 0 0 0-2.564-2.556h-9.634a2.465 2.465 0 0 0-1.608 0.637c-0.478 0.478-0.963 1.123-0.963 1.919v18.872a2.276 2.276 0 0 0 0.963 1.919 2.427 2.427 0 0 0 1.768 0.637h12.038v-14.548z m22.635 6.068v4.483h-5.461v-6.554h7.228v-3.997h-7.228v-5.439h5.461v3.353h4.657v-7.358h-16.536v4.005h1.768v15.99h-1.768v3.997h16.536v-8.472z m18.781 0v4.483h-5.294v-15.99h1.926v-3.997H165.988v3.997h1.926v15.99h-1.926v3.997H182.524v-8.472z m-97.441 6.068v-12.076H70.466v-5.476h5.302v3.383h4.817v-4.832c0-1.547-1.441-2.579-2.89-2.579H68.221a2.541 2.541 0 0 0-2.564 2.579v10.953h9.952v6.599h-5.302v-4.505h-4.65v5.795c0 1.441 1.123 2.579 2.564 2.579h9.474c1.479 0 2.731-0.971 2.73-2.42Z"/></svg>