<svg fill="#FFCC00" role="img" viewBox="0 0 31 24" xmlns="http://www.w3.org/2000/svg"><title>Deutsche Post</title><path d="M14.305 19.883L10.227 24H6.189l4.079-4.117z m-5.448 0L4.781 24H0.742l4.079-4.117z m10.425 0l4.079 4.117h-4.038l-4.08-4.117z m5.449 0l4.076 4.117h-4.038l-4.078-4.117zM13.555 0c4.771-0.004 8.718 3.472 8.699 8.46 0.701-1.903 1.187-4.801 1.287-6.83L30.706 3.409c-0.573 8.39-6.881 15.738-16.239 15.733C3.882 19.14-0.209 9.959 0.343 3.002l3.109-0.987c-0.506 3.96 0.722 6.815 1.568 8.122-1.007-5.601 3.23-10.135 8.535-10.137m0.014 2.916a5.726 5.726 0 0 0-5.733 5.72 5.726 5.726 0 0 0 5.733 5.72 5.725 5.725 0 0 0 5.733-5.72 5.725 5.725 0 0 0-5.733-5.72"/></svg>