<svg fill="#F01414" role="img" viewBox="0 0 35 24" xmlns="http://www.w3.org/2000/svg"><title>Deutsche Bahn</title><path d="M31.214 0H3.786C1.9 0 0.357 1.543 0.357 3.429v17.142c0 1.886 1.543 3.429 3.429 3.429h27.428c1.886 0 3.429-1.543 3.429-3.463V3.429c0-1.886-1.543-3.429-3.429-3.429z m0.926 20.537c0.034 0.514-0.377 0.96-0.926 0.994H3.786c-0.514 0-0.926-0.446-0.926-0.96V3.429a0.953 0.953 0 0 1 0.891-0.995H31.214c0.514 0 0.926 0.446 0.926 0.96v17.143zM10.849 4.149H5.089v15.702h5.76c4.766-0.034 6.309-3.394 6.308-7.92 0-5.246-2.229-7.783-6.308-7.782z m-0.652 13.165h-1.337V6.617h0.754c3.394 0 3.737 2.469 3.737 5.623 0 3.463-1.166 5.074-3.154 5.074z m16.903-5.691c1.611-0.48 2.709-1.954 2.743-3.669 0-0.343-0.069-3.84-4.492-3.84h-6.548v15.703H24.357c1.474 0 6.069 0 6.069-4.423 0-1.063-0.48-3.154-3.326-3.771z m-3.36-5.04c1.68 0 2.366 0.583 2.366 1.886 0 1.029-0.754 1.886-2.057 1.885h-1.475v-3.771h1.166z m0.343 10.731h-1.543v-4.045h1.646c1.954 0 2.434 1.131 2.434 2.022 0 2.023-1.92 2.023-2.537 2.023z"/></svg>