<svg fill="#0A0A0A" role="img" viewBox="0 0 41 24" xmlns="http://www.w3.org/2000/svg"><title>dev.to</title><path d="M12.715 8.686c-0.306-0.272-0.782-0.391-1.427-0.391H10.302l0.034 4.147 0.068 4.164 0.952-0.034c0.697 0 1.071-0.119 1.41-0.442 0.408-0.408 0.442-0.612 0.442-3.739 0-3.246-0.034-3.331-0.493-3.705zM0.103 0v24h40.794V0H0.103zM14.653 17.609c-0.748 0.986-1.802 1.309-4.3 1.309H8.109V6.102h2.38c2.839 0 3.671 0.306 4.419 1.53 0.459 0.731 0.493 1.02 0.544 4.368 0.085 3.79-0.034 4.64-0.799 5.609z m8.652-9.297h-4.199v3.008h2.584v2.176l-1.224 0.068-1.275 0.051v3.008l2.074 0.051 2.04 0.068v2.176h-2.72c-2.601 0-2.72-0.017-3.178-0.51l-0.51-0.476v-5.371c0-5.133 0.017-5.405 0.425-5.915 0.391-0.527 0.425-0.527 3.195-0.527h2.788v2.21z m7.954 9.263c-0.289 0.731-1.088 1.343-1.7 1.343-0.306 0-0.765-0.255-1.138-0.663-0.544-0.544-0.765-1.071-1.394-3.535l-1.53-5.762-0.765-2.839h1.292c0.68 0 1.275 0.034 1.275 0.085 0 0.102 1.972 7.717 2.142 8.21 0.068 0.255 0.544-1.19 1.24-3.91l1.122-4.283 1.258-0.068c0.68-0.034 1.241 0 1.241 0.068 0 0.238-2.839 10.844-3.06 11.354z"/></svg>