<svg fill="#FFCC00" role="img" viewBox="0 0 170 24" xmlns="http://www.w3.org/2000/svg"><title>DHL</title><path d="M30.001 0l-5.422 7.373h29.55c1.485 0 1.47 0.551 0.742 1.541-0.742 1.004-1.979 2.757-2.729 3.775-0.382 0.516-1.089 1.463 1.209 1.464h12.088l3.57-4.878c2.22-3.011 0.198-9.275-7.74-9.275H30.001z m50.927 0l-10.427 14.153h38.103l10.413-14.153H103.451l-5.96 8.101h-6.963l5.981-8.101h-15.574z m43.158 0l-10.42 14.153h16.499l10.406-14.153H124.093z m-90.804 9.19l-10.887 14.803h26.538c8.766 0 13.658-5.966 15.163-8.031h-18.097c-2.305 0-1.598-0.94-1.216-1.463 0.756-1.011 2.001-2.743 2.743-3.747 0.735-0.99 0.756-1.555-0.742-1.555h-13.502zM0.169 15.969v1.711h24.022l1.244-1.711H0.169z m69.01 0l-5.91 8.031h15.574l5.91-8.031H69.179z m22.516 0l-5.91 8.031h15.573l5.91-8.031h-15.573z m20.628 0s-1.124 1.555-1.683 2.305c-1.951 2.644-0.233 5.726 6.15 5.726h25.011l5.896-8.031h-35.374z m38.23 0l-1.251 1.711H169.831v-1.711h-19.278zM0.169 19.136v1.697h21.689l1.258-1.697H0.169z m148.051 0l-1.237 1.697H169.831v-1.697h-21.611zM0.169 22.296v1.697h19.37l1.244-1.697H0.169z m145.732 0l-1.251 1.697H169.831v-1.697h-23.93z"/></svg>