<svg fill="#F08705" role="img" viewBox="0 0 25 24" xmlns="http://www.w3.org/2000/svg"><title>diagrams.net</title><path d="M20.19 13.419h-2.527l-2.667-4.555a1.292 1.292 0 0 0 1.035-1.28V4.16c0-0.725-0.576-1.312-1.302-1.312H10.271c-0.726 0-1.312 0.576-1.312 1.301v3.435c0 0.619 0.426 1.152 1.034 1.28l-2.666 4.555H4.809c-0.725 0-1.312 0.576-1.312 1.301v3.435c0 0.725 0.576 1.312 1.302 1.312h4.458c0.726 0 1.312-0.576 1.312-1.302v-3.434c0-0.726-0.576-1.312-1.301-1.312h-0.437l2.645-4.523h2.059l2.656 4.523h-0.438c-0.725 0-1.312 0.576-1.312 1.301v3.435c0 0.725 0.576 1.312 1.302 1.312H20.2c0.726 0 1.312-0.576 1.312-1.302v-3.434c0-0.726-0.576-1.312-1.301-1.312zM24.5 22.976c0 0.565-0.459 1.024-1.013 1.024H1.524A1.022 1.022 0 0 1 0.5 22.987V1.024C0.5 0.459 0.959 0 1.513 0h21.963C24.041 0 24.5 0.459 24.5 1.013z"/></svg>