<svg fill="#000000" role="img" viewBox="0 0 25 24" xmlns="http://www.w3.org/2000/svg"><title>Diaspora</title><path d="M15.859 22.241l-2.403-3.357c-0.642-0.897-1.164-1.598-1.191-1.599-0.028 0-1.039 1.359-2.391 3.213-1.287 1.767-2.352 3.213-2.364 3.213-0.036 0-4.642-3.244-4.652-3.278-0.006-0.017 1.035-1.544 2.313-3.396 1.278-1.851 2.323-3.394 2.323-3.43 0-0.058-0.414-0.203-3.662-1.286a1655.563 1655.563 0 0 1-3.707-1.238c-0.034-0.013 0.158-0.655 0.815-2.732 0.475-1.492 0.872-2.725 0.884-2.739 0.013-0.015 1.764 0.545 3.891 1.245 2.127 0.699 3.885 1.272 3.907 1.272 0.022 0 0.046-0.033 0.054-0.073 0.008-0.04 0.027-1.851 0.042-4.025 0.013-2.173 0.037-3.969 0.051-3.992 0.021-0.031 0.618-0.039 2.811-0.039 1.532 0 2.802 0.01 2.821 0.024 0.024 0.017 0.066 1.212 0.137 3.895 0.116 4.408 0.119 4.467 0.188 4.466 0.027 0 1.712-0.564 3.746-1.254 2.032-0.689 3.706-1.242 3.719-1.228 0.041 0.046 1.708 5.474 1.687 5.495-0.011 0.01-1.708 0.592-3.77 1.291-2.837 0.961-3.753 1.283-3.76 1.325-0.006 0.03 0.97 1.487 2.211 3.303 1.221 1.788 2.216 3.264 2.21 3.28-0.012 0.037-4.582 3.403-4.621 3.403-0.015 0-0.595-0.791-1.289-1.759z"/></svg>