<svg fill="#004C97" role="img" viewBox="0 0 28 24" xmlns="http://www.w3.org/2000/svg"><title>Diners Club</title><path d="M19.213 11.979a6.971 6.971 0 0 0-4.473-6.499V18.478a6.97 6.97 0 0 0 4.473-6.499zM9.754 18.476V5.481a6.976 6.976 0 0 0-4.468 6.498 6.973 6.973 0 0 0 4.468 6.497z m2.495-17.483A10.987 10.987 0 0 0 1.263 11.979a10.984 10.984 0 0 0 10.984 10.983c6.068 0 10.984-4.917 10.986-10.983a10.989 10.989 0 0 0-10.986-10.986Zm-0.027 23.007C5.582 24.031 0.118 18.652 0.118 12.104 0.118 4.949 5.582-0.001 12.222 0h3.112C21.892 0 27.882 4.947 27.882 12.104c0 6.545-5.988 11.896-12.549 11.896"/></svg>