<svg fill="#000000" role="img" viewBox="0 0 86 24" xmlns="http://www.w3.org/2000/svg"><title>Dior</title><path d="M0.351 0.468h11.141c9.579 0 13.328 5.623 13.328 11.575 0 6.056-4.807 11.453-13.953 11.454H0.368c-0.191 0-0.26-0.122-0.26-0.226 0-0.122 0.122-0.226 0.295-0.226h1.961c0.608 0 1.007-0.364 1.006-1.041V1.996c0-0.503-0.243-1.058-1.041-1.059H0.333C0.177 0.937 0.09 0.833 0.09 0.712c0-0.104 0.035-0.243 0.261-0.244m6.959 21.953c0 0.503 0.226 0.659 0.555 0.659h2.95c7.271 0 9.909-5.57 9.909-11.158S17.93 0.92 11.787 0.92H7.778c-0.417 0-0.451 0.347-0.451 0.503l-0.017 20.998z m18.62-21.953c-0.173 0-0.33 0.069-0.33 0.209s0.087 0.226 0.243 0.225h1.961c0.451 0 0.885 0.313 0.885 1.18v19.94c0 0.417-0.313 1.041-0.868 1.041h-1.943c-0.226 0-0.243 0.173-0.243 0.243s-0.018 0.191 0.243 0.191h9.44c0.139 0 0.33-0.018 0.33-0.157s-0.035-0.277-0.277-0.277h-1.823c-0.26 0-0.972-0.156-0.972-0.955V1.874c0-0.573 0.364-0.954 1.024-0.954h1.787c0.156 0 0.243-0.087 0.243-0.208 0-0.122-0.087-0.226-0.295-0.226-0.002-0.017-9.439 0.033-9.405-0.018z m14.75 11.523c0-6.369 2.846-11.523 8.191-11.522 5.241 0 8.191 5.154 8.191 11.522S54.372 23.514 48.871 23.514c-5.328 0.018-8.191-5.154-8.191-11.523m8.191 12.009c7.601 0 12.39-5.379 12.391-11.991s-4.738-12.009-12.391-12.009c-7.635 0-12.39 5.379-12.39 11.991s4.946 12.009 12.39 12.009m36.686-0.642c-2.985 0.313-4.634-4.581-6.144-6.907-1.128-1.718-3.523-3.471-5.883-3.818 3.887-0.226 8.243-1.475 8.243-5.883 0-3.575-2.204-6.282-10.29-6.282h-9.319c-0.122 0-0.243 0.069-0.243 0.209s0.122 0.226 0.243 0.225h2.134c0.451 0 0.885 0.313 0.885 1.18v19.94c0 0.417-0.313 1.041-0.868 1.041h-2.099c-0.173 0-0.243 0.139-0.243 0.208s0.069 0.226 0.243 0.226h9.892c0.139 0 0.26-0.069 0.26-0.209s-0.087-0.226-0.278-0.225h-1.995c-0.26 0-0.972-0.173-0.972-0.955v-9.423h1.024c4.894 0 5.258 5.31 7.687 8.347 2.083 2.603 4.807 2.933 6.352 2.933 0.659 0 1.111-0.018 1.527-0.121 0.26-0.087 0.313-0.538-0.156-0.486m-15.445-22.455h1.44c2.464 0 6.455 0.972 6.456 5.622 0 4.269-3.54 5.709-6.82 5.71h-2.1V1.874c0-0.59 0.365-0.972 1.024-0.971"/></svg>