<svg fill="#263238" role="img" viewBox="0 0 40 24" xmlns="http://www.w3.org/2000/svg"><title>Directus</title><path d="M31.843 15.145a2.867 2.867 0 0 1-0.472-0.151 1.083 1.083 0 0 1-0.334-0.23c0.092-0.804 0-1.503 0.077-2.293 0.303-3.068 2.233-2.096 3.965-2.599 1.079-0.303 2.159-0.926 2.43-2.201a22.291 22.291 0 0 0-3.95-3.632c-4.696-3.342-10.832-4.68-16.408-3.752a8.425 8.425 0 0 0 3.688 3.418s-1.511 0-2.806-0.968c-0.379 0.152-1.14 0.451-1.505 0.633a8.394 8.394 0 0 0 10.925 0.61c-0.016 0.028-0.305 0.47-0.654 2.307-0.774 3.922-3.009 3.617-5.774 2.63-5.742-2.083-8.903-0.153-11.773-4.103-0.835 0.471-1.351 1.351-1.352 2.31 0 0.987 0.545 1.822 1.335 2.279 0.432-0.573 0.626-0.735 1.378-0.735-1.163 0.659-1.302 1.236-1.803 2.831-0.606 1.93-0.349 3.905-3.19 4.421-1.504 0.076-1.473 1.094-2.02 2.613-0.684 1.976-1.595 2.765-3.373 4.633 0.73 0.882 1.49 0.989 2.264 0.669 1.595-0.669 2.826-2.735 3.979-4.071 1.292-1.49 4.391-0.852 6.731-2.31 1.61-0.987 2.401-2.323 1.337-4.588a4.482 4.482 0 0 1 1.155 2.736c2.704-0.351 6.321 2.946 9.616 3.493a5.889 5.889 0 0 1-0.804-1.351c-0.379-0.913-0.501-1.747-0.425-2.477 0.303 1.808 2.126 4.131 5.059 4.345 0.745 0.059 1.565-0.031 2.415-0.29 1.018-0.303 1.961-0.699 3.085-0.486 0.835 0.153 1.61 0.577 2.096 1.292 0.73 1.063 2.323 1.292 3.038-0.015-1.61-4.208-6.047-4.482-7.93-4.968z"/></svg>