<svg fill="#FF6000" role="img" viewBox="0 0 143 24" xmlns="http://www.w3.org/2000/svg"><title>Discover</title><path d="M86.799 12a12 12 0 1 1-12.012-12h0.012c6.632 0 12 5.374 12 12z m-30.845-11.87c-6.667 0-12.012 5.244-12.012 11.805 0 6.632 5.208 11.769 11.905 11.768 1.892 0 3.518-0.374 5.517-1.311v-5.178c-1.756 1.762-3.316 2.468-5.309 2.468-4.431 0-7.575-3.215-7.575-7.783 0-4.33 3.245-7.747 7.373-7.747 2.1 0 3.69 0.747 5.517 2.539v-5.178a11.259 11.259 0 0 0-5.416-1.383z m-19.883 9.165c-2.64-0.979-3.417-1.619-3.417-2.841 0-1.418 1.382-2.503 3.28-2.503 1.317 0 2.402 0.54 3.547 1.827l2.302-3.014a9.876 9.876 0 0 0-6.626-2.503c-3.992 0-7.035 2.77-7.035 6.46 0 3.108 1.418 4.698 5.552 6.187 1.726 0.611 2.598 1.014 3.043 1.287a2.705 2.705 0 0 1 1.317 2.337c0 1.827-1.453 3.179-3.417 3.179-2.1 0-3.79-1.05-4.798-3.007l-2.842 2.734c2.029 2.978 4.461 4.295 7.812 4.295 4.573 0 7.777-3.043 7.777-7.409-0.012-3.577-1.495-5.196-6.495-7.029zM142.677 1.916a1.72 1.72 0 0 1-1.709 1.726 1.72 1.72 0 0 1-1.726-1.726v-0.018A1.72 1.72 0 1 1 142.677 1.916z m-0.35 0.006a1.394 1.394 0 0 0-1.371-1.418 1.388 1.388 0 0 0-1.376 1.418c0 0.783 0.617 1.418 1.376 1.418a1.394 1.394 0 0 0 1.371-1.418zM20.909 23.193h4.401v-22.558h-4.401v22.558z m75.346-7.403l-6.015-15.149h-4.805l9.574 23.134h2.367l9.746-23.134h-4.77l-6.097 15.149z m12.848 7.403h12.48v-3.82h-8.079v-6.092h7.783v-3.82h-7.783v-5.006h8.079v-3.82H109.103v22.558z m32.085-21.099l0.652 0.819h-0.575l-0.558-0.772v0.772h-0.474v-1.982h0.635c0.48 0 0.747 0.214 0.747 0.611 0.006 0.273-0.148 0.475-0.427 0.552z m-0.036-0.546c0-0.172-0.125-0.255-0.356-0.255h-0.083v0.516h0.083c0.231 0 0.356-0.083 0.356-0.261z m-7.284 12.143l7.1 9.502H135.559l-6.092-9.063h-0.576v9.063h-4.395v-22.558h6.525c5.072 0 7.984 2.438 7.984 6.661 0 3.458-1.827 5.724-5.137 6.395z m0.611-6.158c0-2.195-1.489-3.34-4.229-3.339h-1.353v6.833h1.287c2.806-0.006 4.295-1.228 4.295-3.494z m-115.593 4.402a11.33 11.33 0 0 1-4.093 8.66c-2.165 1.797-4.633 2.604-8.049 2.604H0.32v-22.558H6.779c7.13 0 12.107 4.633 12.107 11.294z m-4.532-0.036c0-2.159-0.913-4.259-2.438-5.617-1.453-1.317-3.179-1.827-6.02-1.827H4.715v14.918h1.181c2.841 0 4.639-0.546 6.02-1.791 1.519-1.352 2.438-3.518 2.438-5.683z"/></svg>