<svg fill="#333333" role="img" viewBox="0 0 25 24" xmlns="http://www.w3.org/2000/svg"><title>Discogs</title><path d="M2.24 11.982c0-5.669 4.611-10.28 10.278-10.28 1.824 0 3.538 0.48 5.026 1.318l0.814-1.489C16.678 0.586 14.748 0.034 12.691 0h-0.195C5.908 0.012 0.57 5.309 0.498 11.886v0.115c0.007 3.44 1.457 6.536 3.775 8.723l1.186-1.282c-1.98-1.875-3.219-4.527-3.219-7.46zM20.864 3.404l-1.155 1.24c1.903 1.867 3.089 4.464 3.089 7.338 0 5.667-4.611 10.278-10.278 10.278-1.783 0-3.461-0.456-4.923-1.258l-0.854 1.522c1.709 0.939 3.67 1.474 5.756 1.476C19.126 24 24.502 18.626 24.502 11.999c-0.005-3.372-1.399-6.416-3.638-8.595zM2.461 11.982c0 2.871 1.212 5.463 3.147 7.297l1.181-1.277c-1.591-1.517-2.588-3.653-2.588-6.02 0-4.587 3.73-8.317 8.317-8.317 1.483 0 2.876 0.391 4.083 1.075l0.835-1.526C15.982 2.393 14.304 1.925 12.518 1.925 6.973 1.923 2.461 6.435 2.461 11.982z m18.374 0c0 4.587-3.73 8.317-8.317 8.317-1.433 0-2.784-0.365-3.963-1.006l-0.852 1.517c1.431 0.782 3.072 1.229 4.815 1.229 5.545 0 10.057-4.513 10.057-10.057 0-2.808-1.157-5.348-3.017-7.174l-1.183 1.274c1.519 1.507 2.46 3.593 2.46 5.9z m-1.949 0c0 3.512-2.856 6.365-6.366 6.365a6.33 6.33 0 0 1-3.007-0.756l-0.847 1.508c1.147 0.624 2.46 0.977 3.854 0.977 4.464 0 8.096-3.632 8.096-8.096 0-2.239-0.914-4.27-2.39-5.739l-1.179 1.267c1.135 1.152 1.839 2.732 1.839 4.474z m-14.462 0c0 2.302 0.967 4.383 2.516 5.859l1.174-1.27c-1.207-1.159-1.961-2.787-1.961-4.589 0-3.512 2.856-6.365 6.365-6.365 1.143 0 2.215 0.305 3.144 0.835l0.831-1.517c-1.176-0.665-2.532-1.049-3.975-1.049-4.462 0-8.094 3.632-8.094 8.096z m12.532 0c0 2.451-1.987 4.438-4.438 4.438a4.42 4.42 0 0 1-2.062-0.509l-0.835 1.488a6.115 6.115 0 0 0 2.897 0.728c3.389 0 6.145-2.755 6.145-6.145 0-1.678-0.677-3.2-1.769-4.308l-1.162 1.25c0.756 0.797 1.224 1.872 1.224 3.058z m-10.583 0c0 1.738 0.725 3.308 1.889 4.426L9.419 15.158l0.015 0.014c-0.835-0.806-1.356-1.937-1.356-3.188 0-2.451 1.985-4.438 4.438-4.438 0.809 0 1.565 0.218 2.218 0.598l0.82-1.498a6.098 6.098 0 0 0-3.038-0.806c-3.384-0.005-6.142 2.753-6.143 6.142z m6.683 0c0 0.295-0.242 0.535-0.538 0.535-0.295 0-0.538-0.24-0.538-0.535 0-0.298 0.24-0.538 0.538-0.538 0.295 0 0.538 0.24 0.538 0.538z m-3.942 0c0-1.879 1.524-3.404 3.402-3.404 1.879 0 3.401 1.522 3.401 3.404 0 1.879-1.524 3.401-3.401 3.401S9.114 13.861 9.114 11.982z m0.149 0c0.005 1.798 1.457 3.25 3.253 3.252 1.795 0 3.255-1.457 3.254-3.252-0.002-1.798-1.457-3.252-3.254-3.255-1.795 0-3.252 1.457-3.253 3.255Z"/></svg>