<svg fill="#2E9FFF" role="img" viewBox="0 0 25 24" xmlns="http://www.w3.org/2000/svg"><title>Disqus</title><path d="M12.951 24c-2.938 0-5.622-1.071-7.698-2.848L0.144 21.852l1.974-4.873C1.431 15.46 1.045 13.776 1.045 12 1.045 5.373 6.373 0 12.953 0 19.522 0 24.856 5.373 24.856 12c0 6.629-5.33 12-11.905 12z m6.502-12.034v-0.034c0-3.463-2.443-5.931-6.653-5.931H8.255V18.003h4.479c4.242 0 6.719-2.574 6.718-6.037h0.005z m-6.605 3.087h-1.328V8.952h1.328c1.953 0 3.251 1.112 3.251 3.033v0.03c0 1.94-1.297 3.038-3.251 3.038z"/></svg>