<svg fill="#50162D" role="img" viewBox="0 0 31 24" xmlns="http://www.w3.org/2000/svg"><title>Disroot</title><path d="M5.146 0.201C3.011 0.769 0.794 2.311 0.173 3.659c-0.186 0.406-0.212 1.142-0.051 1.462 0.23 0.452 0.443 0.495 1.789 0.31 1.054-0.142 1.4-0.151 2.562-0.071 1.427 0.098 2.057 0.275 2.428 0.674 0.222 0.231 4.839 11.655 4.92 12.152 0.142 0.895-0.302 1.693-1.534 2.765-1.028 0.886-1.196 1.17-1.063 1.782 0.195 0.859 0.655 1.267 1.436 1.267 0.655 0 2.703-0.346 4.254-0.71 4.485-1.054 8.306-2.481 10.973-4.094 2.508-1.507 4.194-3.297 4.858-5.141 0.194-0.559 0.23-0.797 0.239-1.71 0-1.258-0.142-1.781-0.692-2.527-1.107-1.497-2.323-2.587-4.307-3.855-3.819-2.454-4.875-2.96-8.606-4.149-3.253-1.036-6.914-1.701-9.972-1.798-1.312-0.035-1.48-0.026-2.261 0.185z m12.144 8.421c1.906 0.726 3.643 1.897 5.876 3.961 1.081 1.003 1.321 1.383 1.365 2.235 0.098 1.587-0.77 2.623-2.694 3.235-0.914 0.284-2.827 0.692-2.907 0.612-0.026-0.018 0-0.168 0.052-0.328 0.062-0.168 0.08-0.577 0.062-0.967-0.035-0.559-0.124-0.877-0.469-1.702-0.231-0.559-0.914-2.465-1.516-4.236l-1.099-3.226 0.284 0.061c0.159 0.036 0.628 0.195 1.046 0.355z"/></svg>