<svg fill="#231F20" role="img" viewBox="0 0 187 24" xmlns="http://www.w3.org/2000/svg"><title>Distrokid</title><path d="M0.356 0.396h9.043c7.296 0 12.334 5.006 12.334 11.534V12c0 6.528-5.045 11.604-12.342 11.604H0.356v-23.208zM9.399 18.986c4.176 0 6.994-2.818 6.994-6.924V12c0.016-4.114-2.802-7.009-6.994-7.009H5.464v14.003h3.935z m17.115-18.598h5.108v23.208H26.514v-23.208z m9.322 19.824l3.02-3.617c2.088 1.723 4.269 2.818 6.923 2.818 2.096 0 3.345-0.831 3.346-2.189v-0.062c0-1.296-0.792-1.956-4.673-2.95-4.673-1.195-7.684-2.484-7.684-7.094v-0.07c0-4.207 3.361-6.986 8.119-6.986a13.428 13.428 0 0 1 8.623 2.95l-2.654 3.842c-2.049-1.428-4.075-2.29-6.024-2.29-1.94 0-2.981 0.9-2.98 2.018v0.078c0 1.521 0.994 2.018 4.999 3.042 4.704 1.226 7.366 2.918 7.366 6.963v0.07c0 4.603-3.516 7.195-8.523 7.195a14.771 14.771 0 0 1-9.858-3.718z m27.711-15.12h-7.056v-4.696h19.226v4.696H68.662v18.504h-5.1V5.092z m16.082-4.704h10.611c2.95 0 5.239 0.831 6.761 2.352 1.296 1.296 1.995 3.12 1.994 5.309v0.062c0 3.749-2.018 6.101-4.967 7.196l5.666 8.289h-5.977l-4.967-7.428h-4.013v7.428h-5.108v-23.208z m10.277 11.27c2.484 0 3.912-1.327 3.912-3.283v-0.062c0-2.189-1.521-3.314-4.005-3.314h-5.061v6.659h5.154z m12.668 0.404V12c0-6.598 5.208-12 12.372-12s12.287 5.34 12.288 11.93V12c0 6.598-5.201 12-12.365 12s-12.295-5.34-12.295-11.93z m19.327 0V12c0-3.974-2.911-7.296-7.025-7.296s-6.962 3.26-6.962 7.234v0.07c0 3.974 2.918 7.296 7.032 7.296s6.962-3.26 6.963-7.234z m10.867-11.674h2.616v13.855l13.335-13.855h3.376l-9.943 10.145 10.378 13.063h-3.284l-8.926-11.239-4.936 5.007v6.232h-2.616v-23.208z m24.062 0h2.631v23.208h-2.623v-23.208z m9.423 0h8.057c7.296 0 12.334 5.006 12.334 11.534V12c0 6.528-5.045 11.604-12.334 11.604h-8.057v-23.208z m8.057 20.787c5.868 0 9.617-3.974 9.617-9.113V12c0-5.138-3.749-9.175-9.617-9.175h-5.449v18.365l5.449-0.008z"/></svg>