<svg fill="#008000" role="img" viewBox="0 0 17 24" xmlns="http://www.w3.org/2000/svg"><title>Dlib</title><path d="M1.719 0.002c-0.508-0.01-1.016 0.015-1.523 0.046v23.909c0.972 0.068 1.954 0.055 2.924-0.032 0.284-0.94 0.574-1.878 0.861-2.818 1.488-0.245 2.917-0.708 4.192-1.361 1.04 0.502 2.08 1.005 3.12 1.507a14.213 14.213 0 0 0 2.076-1.581c-0.635-0.83-1.273-1.659-1.91-2.488 0.829-1.02 1.443-2.161 1.726-3.357 1.19-0.229 2.38-0.458 3.57-0.686a10.528 10.528 0 0 0-0.03-2.287c-1.183-0.228-2.365-0.455-3.548-0.682-0.292-1.194-0.871-2.344-1.723-3.355 0.638-0.829 1.276-1.659 1.915-2.488-0.613-0.588-1.297-1.117-2.044-1.599-1.054 0.51-2.109 1.019-3.162 1.529-1.267-0.667-2.697-1.143-4.187-1.387C3.687 1.929 3.398 0.987 3.11 0.044c-0.463-0.028-0.927-0.049-1.391-0.042Zm2.33 5.388c3.687 0.814 6.464 3.746 6.278 6.801-0.093 2.897-2.682 5.658-6.243 6.398-0.169-0.227-0.025-0.78-0.073-1.134-0.002-4.024-0.003-8.049-0.005-12.073l0.042 0.01z"/></svg>