<svg fill="#48A842" role="img" viewBox="0 0 28 24" xmlns="http://www.w3.org/2000/svg"><title>DLNA</title><path d="M26.756 12.756H15.156c-1.192 0-2.38 0.554-3.052 1.435v-0.019a3.672 3.672 0 0 1-2.98 1.533 3.683 3.683 0 0 1 0-7.369c1.23 0 2.312 0.607 2.981 1.533v-0.014c0.67 0.879 1.859 1.443 3.051 1.442h11.48c0.211-0.006 0.989-0.108 0.961-1.112-1.002-5.764-6.664-10.185-13.513-10.185-4.218 0-7.988 1.677-10.498 4.31-0.403 0.597 0.016 0.781 0.396 0.832H11.473c1.19 0 2.38-0.564 3.051-1.447v0.02a3.674 3.674 0 0 1 2.98-1.536 3.686 3.686 0 0 1 0 7.371 3.672 3.672 0 0 1-2.98-1.536v0.022c-0.671-0.884-1.861-1.435-3.051-1.435H3.29l0.031 0.003s-1.21-0.068-1.948 0.974C0.809 8.487 0.4 10.436 0.4 12.002c0 1.573 0.224 3.003 0.982 4.446 0.639 1.029 1.938 0.963 1.938 0.964l-0.047 0.005h8.197c1.19 0 2.38-0.555 3.051-1.437v0.023a3.674 3.674 0 0 1 2.981-1.537 3.685 3.685 0 0 1 0 7.369 3.674 3.674 0 0 1-2.981-1.534v0.02c-0.671-0.883-1.861-1.447-3.051-1.447H3.986c-0.372 0.048-0.791 0.224-0.43 0.793 2.512 2.648 6.296 4.333 10.528 4.333 6.861 0 12.53-4.431 13.516-10.21-0.005-0.808-0.554-0.994-0.844-1.034"/></svg>