<svg fill="#002878" role="img" viewBox="0 0 37 24" xmlns="http://www.w3.org/2000/svg"><title>dm</title><path d="M12.49 6.888c-1.906 0-2.994 2.66-2.995 4.546 0 0.774 0.188 1.11 0.586 1.109 1.068 0 2.891-3.101 3.267-5.027l0.105-0.502a3.988 3.988 0 0 0-0.963-0.126m2.262 8.001H11.966c0.126-0.734 0.354-1.529 0.755-2.62h-0.043c-0.878 1.467-2.114 2.871-3.685 2.871-1.614 0-2.43-1.048-2.431-3.225 0-3.833 1.988-7.331 6.43-7.331a5.086 5.086 0 0 1 0.878 0.084l0.463-2.327v-0.018a15.343 15.343 0 0 0-1.717-0.21l0.397-1.906c1.402-0.146 2.848-0.251 4.545-0.188z m16.69 0h-2.763l1.006-6.2c0.21-1.005 0.062-1.402-0.397-1.402-0.943 0-2.62 2.47-3.016 4.9l-0.441 2.702h-2.765l1.027-6.2c0.21-1.005 0.062-1.402-0.398-1.402-0.943 0-2.577 2.45-3.036 4.837l-0.524 2.765h-2.765l1.487-7.792v-0.062c-0.441-0.085-1.11-0.17-1.718-0.211l0.398-1.904a27.52 27.52 0 0 1 4.376-0.19 18.971 18.971 0 0 1-0.773 2.62h0.041c0.922-1.572 1.906-2.766 3.687-2.766 1.194 0 1.988 0.629 1.988 2.011 0 0.251-0.062 0.502-0.167 0.921l0.022 0.022c0.922-1.677 2.073-2.933 3.853-2.933 1.97 0 2.389 1.424 2.011 3.329z m5.49 2.681s-0.398 0.481-1.236 1.025c-1.634 1.11-4.879 2.512-9.928 1.258a62.045 62.045 0 0 1-1.383-0.378c-4.608-1.341-7.33-3.079-13.466-3.832-4.169 0.105-8.399 0.586-10.723 1.507 0 0 0.627 0.65 0.817 0.921 0.105 0.21 0.313 0.817 0.524 1.446 0.23 0.67 0.439 1.299 0.439 1.299s2.618-1.382 5.676-2.199c1.446-0.398 2.974-0.629 4.377-0.546 4.691 0.293 8.482 2.723 12.692 4.693 2.911 0.817 10.033 1.444 12.043 0.544-0.02-0.042 0.378-1.99 0.169-5.739m-1.237 1.026c-1.634 1.11-4.879 2.512-9.928 1.258a62.045 62.045 0 0 1-1.383-0.378c-3.182-1.382-6.408-2.848-7.705-3.832 3.643 0.566 9.088 1.131 17.884-0.293 0 0 0.838 1.319 1.132 3.245m-34.161 0.902L0.007 20.041s1.76 2.094 2.052 2.765l0.441 1.194s5.548-3.059 13.613-2.598a15.396 15.396 0 0 1 3.436 0.628s-3.29-2.136-3.939-2.345a40.839 40.839 0 0 0-7.958-1.09 30.674 30.674 0 0 0-5.676 2.199s-0.231-0.649-0.441-1.297"/></svg>