<svg fill="#000000" role="img" viewBox="0 0 28 24" xmlns="http://www.w3.org/2000/svg"><title>Docs.rs</title><path d="M26.459 11.689l-5.174-1.939V3.938a1.931 1.931 0 0 0-1.254-1.806l-5.356-2.007a1.906 1.906 0 0 0-1.355 0L7.963 2.133a1.928 1.928 0 0 0-1.254 1.806v5.811l-5.174 1.939A1.931 1.931 0 0 0 0.287 13.495v5.896c0 0.729 0.411 1.399 1.066 1.726l5.356 2.678a1.92 1.92 0 0 0 1.726 0L14 21.009l5.565 2.786a1.92 1.92 0 0 0 1.726 0l5.356-2.678a1.931 1.931 0 0 0 1.066-1.726v-5.896c0-0.803-0.498-1.521-1.254-1.806z m-6.996-1.897l-4.552 1.71V7.848l4.552-1.981zM8.538 3.864L14 1.818l5.463 2.046v0.032L14 6.112l-5.463-2.216Zm4.499 15.592l-4.553 2.277V17.496l4.553-2.077z m0-5.999l-5.464 2.217-5.463-2.217v-0.032l5.463-2.046 5.464 2.046z m12.855 5.999l-4.552 2.277V17.496l4.552-2.077z m0-5.999l-5.463 2.217-5.463-2.217v-0.032l5.463-2.046 5.463 2.046z"/></svg>