<svg fill="#2ECE53" role="img" viewBox="0 0 32 24" xmlns="http://www.w3.org/2000/svg"><title>Docsify</title><path d="M16 0c-8.689 0-15.758 7.069-15.758 15.758 0 2.579 0.643 4.473 1.97 5.789 2.24 2.227 6.066 2.453 10.571 2.453 0.565 0 1.142-0.003 1.727-0.007a285.746 285.746 0 0 1 3.63 0c4.98 0.032 9.279 0.058 11.661-2.309C31.116 20.375 31.758 18.434 31.758 15.758c0-8.689-7.069-15.758-15.758-15.758z m-11.624 10.708a0.516 0.516 0 1 1 0-1.034 0.516 0.516 0 0 1 0 1.034zM6.956 7.377c-0.722 0.836-1.326 1.787-1.326 1.788-0.079 0.121-0.219 0.13-0.315 0.022l-0.342-0.381a0.33 0.33 0 0 1-0.026-0.398s1.458-2.047 2.372-2.87c0.328-0.295 0.326-0.314 1.17-0.909 0.844-0.595 1.838-1.085 1.838-1.085a0.357 0.357 0 0 1 0.405 0.078l0.341 0.381c0.098 0.108 0.074 0.244-0.053 0.308 0 0-2.327 1.165-3.089 1.982-0.517 0.554-0.252 0.25-0.975 1.084z m2.07 2.815a1.808 1.808 0 1 1 3.616 0 1.808 1.808 0 0 1-3.616 0z m7.104 10.412c-2.498 0-4.521-2.025-4.521-4.522s2.159-1.121 4.655-1.121 4.386-1.375 4.386 1.121-2.024 4.521-4.521 4.522zM22.198 12a1.808 1.808 0 1 1 0-3.617 1.808 1.808 0 0 1 0 3.617z"/></svg>