<svg fill="#3ECC5F" role="img" viewBox="0 0 29 24" xmlns="http://www.w3.org/2000/svg"><title>Docusaurus</title><path d="M3.28 24h14.494a2.901 2.901 0 0 0 2.786-2.181c0.031 0.005 0.061 0.009 0.093 0.01a0.73 0.73 0 0 0 0.724-0.724 0.73 0.73 0 0 0-0.724-0.723c-0.032 0-0.062 0.005-0.093 0.008l-0.016-0.065a0.729 0.729 0 0 0 0.445-0.668 0.73 0.73 0 0 0-0.724-0.723 0.715 0.715 0 0 0-0.436 0.149l-0.05-0.048a0.713 0.713 0 0 0 0.147-0.433c0-0.788-1.081-1.009-1.389-0.284l-0.065-0.016c0.004-0.031 0.009-0.061 0.01-0.093a0.732 0.732 0 0 0-0.725-0.723 0.73 0.73 0 0 0-0.723 0.723h-0.113a0.726 0.726 0 0 0-1.215 0h-0.844v-2.895h2.895c0.135 0 0.266-0.02 0.39-0.055a0.361 0.361 0 1 0 0.622-0.358l0.023-0.025c0.061 0.047 0.136 0.075 0.219 0.076h0.003c0.396 0 0.503-0.545 0.137-0.695l0.008-0.033c0.015 0.001 0.031 0.005 0.046 0.004a0.365 0.365 0 0 0 0.363-0.362 0.365 0.365 0 0 0-0.363-0.362c-0.015 0-0.031 0.004-0.046 0.004a0.329 0.329 0 0 1-0.008-0.031c0.385-0.153-0.033-0.876-0.359-0.621l-0.023-0.025a0.361 0.361 0 0 0 0.073-0.217c-0.013-0.383-0.534-0.489-0.695-0.141a1.456 1.456 0 0 0-0.377-0.055h-2.521a2.9 2.9 0 0 1 2.508-1.447h8.687V9.523l-10.137-0.634a1.547 1.547 0 0 1-1.446-1.539c0-0.809 0.638-1.488 1.446-1.537l10.137-0.634v-1.447a2.909 2.909 0 0 0-2.896-2.896H10.518l-0.361-0.627a0.419 0.419 0 0 0-0.725 0l-0.361 0.627-0.362-0.627a0.418 0.418 0 0 0-0.723 0l-0.363 0.627-0.362-0.627a0.418 0.418 0 0 0-0.724 0l-0.362 0.627-0.009 0.001-0.6-0.6a0.416 0.416 0 0 0-0.699 0.187l-0.198 0.739-0.751-0.201a0.42 0.42 0 0 0-0.513 0.511l0.202 0.752-0.738 0.199a0.419 0.419 0 0 0-0.189 0.699l0.6 0.6v0.009l-0.627 0.361a0.419 0.419 0 0 0 0 0.725l0.627 0.361-0.627 0.362a0.419 0.419 0 0 0 0 0.725l0.627 0.361-0.627 0.362a0.418 0.418 0 0 0 0 0.724l0.627 0.362-0.627 0.362a0.418 0.418 0 0 0 0 0.724l0.627 0.362-0.627 0.361a0.419 0.419 0 0 0 0 0.725l0.627 0.362-0.627 0.361a0.419 0.419 0 0 0 0 0.725l0.627 0.361-0.627 0.362a0.418 0.418 0 0 0 0 0.724l0.627 0.362-0.627 0.362a0.418 0.418 0 0 0 0 0.724l0.627 0.362-0.627 0.362a0.418 0.418 0 0 0 0 0.724l0.627 0.362-0.627 0.361a0.419 0.419 0 0 0 0 0.725l0.627 0.361-0.627 0.362a0.418 0.418 0 0 0 0 0.724l0.627 0.362-0.627 0.362a0.418 0.418 0 0 0 0 0.724l0.627 0.362a2.897 2.897 0 0 1-2.505-1.448A2.9 2.9 0 0 0 0.384 21.105c0 1.588 1.308 2.894 2.896 2.895z m23.164-6.122v3.227a2.909 2.909 0 0 1-2.895 2.895h-0.001 1.448a2.901 2.901 0 0 0 2.803-2.181c0.031 0.005 0.061 0.009 0.093 0.01A0.73 0.73 0 0 0 28.616 21.105a0.73 0.73 0 0 0-0.724-0.723c-0.032 0-0.062 0.005-0.093 0.008l-0.016-0.065a0.729 0.729 0 0 0 0.445-0.668 0.73 0.73 0 0 0-0.724-0.723 0.715 0.715 0 0 0-0.436 0.149l-0.05-0.048a0.72 0.72 0 0 0 0.147-0.433 0.733 0.733 0 0 0-0.721-0.724z m-4.784 3.082h2.615c0.079 0 0.145 0.066 0.145 0.145a0.146 0.146 0 0 1-0.145 0.145h-2.615a0.994 0.994 0 0 0 0-0.29z m-0.388-1.448h3.003c0.079 0 0.145 0.066 0.145 0.145a0.146 0.146 0 0 1-0.145 0.145h-3.003a0.994 0.994 0 0 0 0-0.29z m-1.207-1.448h4.21c0.079 0 0.145 0.066 0.145 0.145a0.146 0.146 0 0 1-0.145 0.145h-4.086a1 1 0 0 0-0.124-0.29z m4.21-1.157h-7.245a0.148 0.148 0 0 1-0.144-0.145c0-0.08 0.066-0.145 0.144-0.145h7.245c0.079 0 0.145 0.066 0.145 0.145a0.146 0.146 0 0 1-0.145 0.145z m2.169-4.489v2.896c0.135 0 0.265-0.02 0.39-0.055a0.362 0.362 0 1 0 0.621-0.358l0.025-0.025c0.061 0.047 0.136 0.075 0.218 0.076a0.367 0.367 0 0 0 0.361-0.363 0.36 0.36 0 0 0-0.222-0.332l0.008-0.033c0.015 0.001 0.031 0.005 0.047 0.004a0.367 0.367 0 0 0 0.362-0.362 0.367 0.367 0 0 0-0.362-0.362c-0.016 0-0.032 0.004-0.047 0.004l-0.008-0.031a0.365 0.365 0 0 0-0.139-0.697 0.36 0.36 0 0 0-0.218 0.076l-0.025-0.025a0.353 0.353 0 0 0 0.074-0.217c-0.013-0.383-0.534-0.489-0.695-0.141a1.459 1.459 0 0 0-0.378-0.055z m-7.127 2.751h4.958c0.079 0 0.145 0.066 0.145 0.145a0.146 0.146 0 0 1-0.145 0.145h-5.236a0.663 0.663 0 0 0 0.086-0.224 0.651 0.651 0 0 0 0.192-0.066z m0.534-1.421h4.424c0.079 0 0.145 0.066 0.145 0.145a0.146 0.146 0 0 1-0.145 0.145h-4.437a0.649 0.649 0 0 0 0.013-0.29z m6.593-7.322h-0.004c-0.448 0.015-0.66 0.462-0.846 0.857-0.195 0.412-0.346 0.68-0.593 0.673-0.274-0.011-0.431-0.319-0.595-0.646-0.191-0.376-0.408-0.802-0.864-0.785-0.441 0.015-0.654 0.405-0.841 0.748-0.199 0.366-0.335 0.588-0.596 0.577-0.279-0.009-0.427-0.261-0.599-0.551-0.192-0.323-0.413-0.688-0.86-0.676-0.433 0.015-0.646 0.346-0.834 0.638-0.199 0.308-0.338 0.495-0.603 0.485-0.286-0.011-0.433-0.219-0.604-0.46-0.192-0.272-0.408-0.578-0.854-0.564-0.423 0.015-0.636 0.286-0.824 0.525-0.178 0.226-0.318 0.405-0.612 0.394h-0.006a0.148 0.148 0 0 0-0.145 0.145c0 0.078 0.062 0.142 0.14 0.144 0.436 0.014 0.658-0.261 0.851-0.504 0.171-0.216 0.318-0.403 0.607-0.414 0.279-0.012 0.409 0.162 0.607 0.441 0.188 0.266 0.401 0.567 0.829 0.582 0.449 0.015 0.666-0.321 0.858-0.618 0.171-0.266 0.319-0.495 0.601-0.504 0.259-0.009 0.4 0.195 0.6 0.533 0.187 0.319 0.4 0.679 0.837 0.694 0.453 0.016 0.671-0.379 0.861-0.728 0.165-0.302 0.321-0.588 0.597-0.598 0.26-0.006 0.395 0.231 0.595 0.627 0.187 0.369 0.399 0.788 0.843 0.805h0.025c0.443 0 0.654-0.445 0.84-0.839 0.165-0.349 0.321-0.678 0.589-0.692zM9.071 5.541a0.367 0.367 0 0 1-0.362-0.362c-0.012-0.626-0.445-1.072-1.09-1.085-0.621-0.013-1.045 0.508-1.082 1.085-0.013 0.198-0.164 0.361-0.362 0.362a0.365 0.365 0 0 1-0.362-0.362c0-0.998 0.812-1.809 1.81-1.809 0.998 0 1.809 0.812 1.809 1.809a0.367 0.367 0 0 1-0.361 0.362z m11.582-2.715a0.365 0.365 0 0 1 0.363 0.363 0.365 0.365 0 0 1-0.363 0.362 0.365 0.365 0 0 1-0.362-0.362 0.365 0.365 0 0 1 0.362-0.363z m2.895-0.18a0.365 0.365 0 0 1 0.361 0.363 0.365 0.365 0 0 1-0.362 0.362h-0.001a0.365 0.365 0 0 1-0.361-0.362 0.365 0.365 0 0 1 0.362-0.363z"/></svg>