<svg fill="#BF2E1A" role="img" viewBox="0 0 25 24" xmlns="http://www.w3.org/2000/svg"><title>Dota 2</title><path d="M10.299 23.703L9.95 23.407 9.478 23.367C8.889 23.318 8.615 23.265 8.282 23.133L8.022 23.029 7.742 23.14C7.504 23.236 6.921 23.322 6.478 23.329 6.454 23.329 6.414 23.273 6.389 23.203 6.36 23.133 6.311 23.065 6.273 23.052 6.237 23.04 5.973 23.098 5.681 23.186L5.152 23.346 4.961 23.254C4.721 23.137 4.62 23.139 4.219 23.261 3.913 23.356 3.875 23.358 3.63 23.305 3.264 23.229 2.958 23.234 2.27 23.331 1.52 23.438 1.503 23.438 1.283 23.287 1.134 23.186 1.054 23.161 0.873 23.161 0.669 23.161 0.646 23.152 0.623 23.056 0.608 22.997 0.627 22.877 0.667 22.777 0.779 22.497 0.824 21.817 0.836 20.193L0.848 18.675 1.061 18.69 1.271 18.705 1.303 17.828C1.319 17.346 1.335 16.649 1.338 16.281L1.343 15.616 1.23 15.535C0.923 15.31 0.937 15.343 0.809 14.609 0.742 14.229 0.677 13.672 0.661 13.369 0.636 12.833 0.638 12.818 0.737 12.706L0.838 12.591 1.088 12.806C1.227 12.924 1.345 13.001 1.356 12.977 1.393 12.863 1.279 11.504 1.22 11.332 1.182 11.232 1.154 11.093 1.154 11.022 1.154 10.953 1.085 10.768 0.999 10.606L0.847 10.315 0.898 9.798C0.966 9.112 0.879 8.608 0.592 8.001L0.466 7.728 0.546 7.049 0.63 6.37 0.541 6.018 0.45 5.665 0.556 5.27 0.657 4.874 0.541 4.491 0.422 4.109 0.566 3.706C0.708 3.313 0.711 3.292 0.708 2.653 0.706 1.933 0.63 1.464 0.481 1.277 0.353 1.113 0.374 1.001 0.565 0.827 0.655 0.741 0.731 0.632 0.731 0.587 0.731 0.517 0.762 0.504 0.954 0.5 1.075 0.5 1.448 0.468 1.784 0.43L2.396 0.356 3.196 0.474C3.995 0.59 3.996 0.59 5.091 0.543L6.188 0.496 6.447 0.652 6.709 0.807 7.773 0.792 8.838 0.776 9.197 0.646C9.392 0.575 9.706 0.45 9.893 0.365 10.076 0.28 10.41 0.166 10.629 0.106L11.03 0 11.548 0.163 12.067 0.329 12.514 0.178 12.96 0.028 13.441 0.188C13.706 0.274 14.198 0.488 14.539 0.663L15.155 0.978 15.8 0.96C16.289 0.945 16.457 0.927 16.483 0.881 16.503 0.85 16.565 0.664 16.617 0.471L16.713 0.117 17.323 0.137C17.78 0.153 18.189 0.202 18.937 0.333L19.94 0.51 20.202 0.405C20.343 0.348 20.613 0.278 20.802 0.254 21.117 0.212 21.172 0.217 21.602 0.326 22.003 0.427 22.142 0.442 22.693 0.442 23.041 0.442 23.402 0.427 23.498 0.41 23.662 0.382 23.689 0.393 24.023 0.634 24.218 0.773 24.39 0.91 24.405 0.939 24.422 0.966 24.459 1.113 24.483 1.265L24.529 1.546 24.319 1.945C24.201 2.165 24.103 2.363 24.103 2.387 24.103 2.41 24.151 2.448 24.208 2.475 24.265 2.501 24.362 2.599 24.424 2.694L24.536 2.866 24.511 5.17C24.496 6.437 24.471 7.567 24.457 7.679L24.43 7.885 24.082 7.863 23.735 7.836 23.706 8.028C23.689 8.132 23.676 8.323 23.676 8.456 23.676 8.649 23.646 8.751 23.515 9.006L23.351 9.32 23.441 9.45C23.492 9.523 23.664 9.717 23.825 9.884L24.119 10.191 24.029 10.517 23.938 10.844 24.046 11.538C24.171 12.372 24.162 12.582 23.958 13.304 23.876 13.593 23.81 13.861 23.81 13.902 23.81 13.977 23.866 13.996 24.241 14.048 24.407 14.069 24.443 14.089 24.443 14.165 24.443 14.214 24.469 15.278 24.503 16.529 24.611 20.638 24.621 21.535 24.571 22.466 24.543 22.952 24.512 23.356 24.503 23.365 24.493 23.374 24.159 23.24 23.759 23.067L23.03 22.757 22.715 22.893C22.391 23.033 22.358 23.069 22.316 23.338 22.287 23.517 22.309 23.509 21.509 23.672L21.039 23.769 20.581 23.616C20.157 23.474 20.1 23.464 19.766 23.486 19.517 23.501 19.346 23.489 19.199 23.445 18.99 23.386 18.99 23.386 18.638 23.548L18.283 23.709 16.972 23.709C15.592 23.707 15.307 23.729 14.356 23.905 13.699 24.026 13.468 24.021 12.318 23.883L11.711 23.808 11.286 23.905C11.05 23.96 10.812 24.002 10.756 24 10.687 24 10.53 23.898 10.301 23.703L10.299 23.703ZM7.745 19.984C8.758 19.602 9.594 19.283 9.599 19.276 9.612 19.262 5.65 15.418 5.123 14.933 4.977 14.798 4.846 14.694 4.836 14.704 4.827 14.715 4.504 15.576 4.121 16.615 3.698 17.762 3.436 18.53 3.458 18.562 3.483 18.604 5.869 20.67 5.897 20.677 5.9 20.677 6.732 20.365 7.745 19.984ZM21.369 17.877C21.897 16.602 22.313 15.548 22.299 15.533 22.28 15.512 12.387 8.832 5.462 4.161L4.906 3.787 3.999 4.198C3.498 4.421 3.096 4.626 3.103 4.648 3.113 4.677 6.461 8.188 10.548 12.453L17.977 20.209 19.193 20.201 20.412 20.193 21.369 17.877ZM19.996 6.93C20.17 5.96 20.315 5.134 20.315 5.094 20.315 5.051 20.059 4.843 19.633 4.543 19.258 4.279 18.926 4.049 18.897 4.03 18.843 3.997 14.962 5.047 14.967 5.092 14.971 5.122 19.65 8.721 19.666 8.704 19.674 8.698 19.821 7.898 19.996 6.93Z"/></svg>