<svg fill="#512BD4" role="img" viewBox="0 0 65 24" xmlns="http://www.w3.org/2000/svg"><title>.NET</title><path d="M64.708 3.331h-6.624v20.304h-3.825V3.331h-6.608V0.003H64.708z m-18.391 20.304h-12.939V0.003h12.426v3.328h-8.602v6.694h7.926v3.312h-7.926v6.989h9.115z m-18.004 0H24.131L13.122 6.264a7.773 7.773 0 0 1-0.693-1.368h-0.096c0.086 0.507 0.129 1.589 0.129 3.247v15.492H8.766V0.003h4.452l10.642 16.962c0.448 0.701 0.738 1.186 0.867 1.45h0.065c-0.107-0.625-0.161-1.688-0.161-3.181V0h3.682z m-23.359-1.86a2.33 2.225 0 0 1-2.332 2.225 2.33 2.225 0 0 1-2.33-2.228 2.33 2.225 0 0 1 2.33-2.222 2.33 2.225 0 0 1 2.332 2.225Z"/></svg>