<svg fill="#54BCAB" role="img" viewBox="0 0 80 24" xmlns="http://www.w3.org/2000/svg"><title>Dovecot</title><path d="M29.309 0C28.635 0.003 27.973 0.226 27.434 0.638L0.499 21.217C-0.026 21.633-0.026 22.434 0.499 22.846L1.626 23.687C2.135 24.086 2.849 24.086 3.365 23.687L16.723 13.511C17.461 12.952 18.478 12.952 19.216 13.511L28.056 20.27C28.791 20.828 29.808 20.828 30.546 20.27L42.232 11.35C43 10.792 43 9.645 42.232 9.083L31.188 0.638C30.649 0.226 29.988 0 29.309 0ZM60.221 0C59.543 0 58.885 0.226 58.349 0.638L31.414 21.237C30.875 21.646 30.875 22.454 31.414 22.863L32.528 23.711C33.046 24.096 33.764 24.096 34.28 23.711L49.689 11.965C50.427 11.413 51.444 11.413 52.176 11.965L67.226 23.441C67.961 24.003 68.985 24.003 69.719 23.441L79.324 16.084C80.085 15.512 80.085 14.369 79.324 13.797L62.1 0.638C61.561 0.226 60.899 0 60.221 0Z"/></svg>