<svg fill="#2C4AA8" role="img" viewBox="0 0 102 24" xmlns="http://www.w3.org/2000/svg"><title>Doxygen</title><path d="M44.107 20.183l0.055 3.775h-0.249l-43.468 0.042-0.064-3.817h43.726z m-27.706-5.318c-0.317-0.872-0.478-1.845-0.478-2.933s0.161-2.061 0.478-2.932a6.22 6.22 0 0 1 1.354-2.243 5.755 5.755 0 0 1 2.116-1.438c0.817-0.355 1.735-0.529 2.758-0.529 1.02 0 1.946 0.169 2.763 0.52 0.838 0.33 1.549 0.812 2.133 1.439 0.584 0.614 1.041 1.362 1.354 2.251 0.322 0.872 0.478 1.849 0.478 2.932s-0.157 2.061-0.474 2.933c-0.296 0.834-0.753 1.599-1.354 2.251-0.601 0.618-1.329 1.1-2.137 1.413a7.32 7.32 0 0 1-2.763 0.499c-1.024 0-1.946-0.169-2.763-0.499a5.996 5.996 0 0 1-2.111-1.413 6.542 6.542 0 0 1-1.354-2.251z m3.089-2.933a8.463 8.463 0 0 0 0.148 1.6c0.102 0.508 0.271 0.969 0.508 1.388 0.254 0.402 0.575 0.719 0.973 0.969a2.903 2.903 0 0 0 1.51 0.363c0.605 0 1.1-0.127 1.507-0.363a2.666 2.666 0 0 0 0.977-0.974 4.197 4.197 0 0 0 0.529-1.383c0.203-1.058 0.203-2.137 0-3.195a4.016 4.016 0 0 0-0.529-1.388 2.666 2.666 0 0 0-0.973-0.969 2.708 2.708 0 0 0-1.511-0.393 2.708 2.708 0 0 0-1.506 0.393 2.945 2.945 0 0 0-0.982 0.973 4.354 4.354 0 0 0-0.503 1.384c-0.097 0.52-0.148 1.058-0.148 1.595z m54.698 2.878a8.759 8.759 0 0 1-0.449-2.878c0-1.011 0.157-1.955 0.474-2.826 0.588-1.667 1.828-3.025 3.44-3.766a6.559 6.559 0 0 1 2.708-0.55c1.113 0 2.073 0.224 2.895 0.677 0.821 0.44 1.489 1.032 2.009 1.781 0.533 0.749 0.918 1.608 1.156 2.564 0.233 0.961 0.317 1.963 0.249 3.013h-9.368c0.051 1.206 0.339 2.073 0.88 2.615 0.533 0.542 1.307 0.812 2.311 0.812a3.131 3.131 0 0 0 1.857-0.55c0.52-0.381 0.838-0.783 0.956-1.201h3.14c-0.508 1.621-1.274 2.78-2.315 3.478-1.037 0.698-2.289 1.049-3.765 1.049-1.02 0-1.946-0.169-2.763-0.499a5.873 5.873 0 0 1-2.082-1.464 6.749 6.749 0 0 1-1.333-2.251z m3.114-4.342h5.805c-0.169-0.944-0.47-1.659-0.905-2.145-0.423-0.491-1.066-0.736-1.934-0.736a2.962 2.962 0 0 0-1.43 0.313 2.759 2.759 0 0 0-0.905 0.736 3.106 3.106 0 0 0-0.479 0.939c-0.085 0.339-0.135 0.635-0.152 0.889v0.004zM34.511 18.685l2.716-4.265 2.708 4.265h4.071l-4.798-7.193 4.273-6.338H39.533l-2.259 3.533-2.285-3.533h-4.062l4.265 6.41L30.521 18.685h3.994z m22.883-13.531h-3.69l-2.835 9.266h-0.059l-2.937-9.266h-3.791l4.545 12.694c0.102 0.271 0.152 0.55 0.148 0.837a1.862 1.862 0 0 1-0.347 1.101 1.333 1.333 0 0 1-1.033 0.575 7.096 7.096 0 0 1-1.058-0.025 210.529 210.529 0 0 1-1.028-0.106v3.063c0.368 0.034 0.732 0.059 1.083 0.077 0.368 0.034 0.736 0.055 1.105 0.055 1.227 0 2.175-0.237 2.86-0.707s1.227-1.257 1.608-2.357l5.429-15.207z m12.77 16.46a5.416 5.416 0 0 1-2.031 1.548c-0.889 0.419-2.078 0.626-3.567 0.626a7.616 7.616 0 0 1-1.959-0.262 5.979 5.979 0 0 1-1.807-0.762 4.667 4.667 0 0 1-1.358-1.354 4.02 4.02 0 0 1-0.605-1.963h3.541c0.169 0.698 0.495 1.176 0.982 1.439a3.317 3.317 0 0 0 1.684 0.419c1.003 0 1.731-0.313 2.183-0.944a3.757 3.757 0 0 0 0.677-2.382v-1.777h-0.05a3.652 3.652 0 0 1-1.659 1.595 5.175 5.175 0 0 1-2.234 0.499c-0.973 0-1.807-0.178-2.509-0.524a4.993 4.993 0 0 1-1.735-1.469 6.55 6.55 0 0 1-1.003-2.17 11.293 11.293 0 0 1-0.3-2.645c0-0.872 0.114-1.709 0.351-2.513a6.643 6.643 0 0 1 1.079-2.146c0.465-0.63 1.045-1.126 1.735-1.489a5.12 5.12 0 0 1 2.411-0.55c0.846 0 1.595 0.169 2.23 0.495 0.698 0.381 1.269 0.965 1.634 1.676h0.05v-1.807h3.385v12.668c0 0.542-0.068 1.164-0.22 1.862a4.443 4.443 0 0 1-0.905 1.934z m-2.26-9.859a8.082 8.082 0 0 0-0.148-1.579 4.049 4.049 0 0 0-0.507-1.333 2.649 2.649 0 0 0-0.931-0.914 2.835 2.835 0 0 0-1.452-0.338 2.598 2.598 0 0 0-1.303 0.309 2.886 2.886 0 0 0-0.905 0.863 3.867 3.867 0 0 0-0.529 1.231c-0.102 0.457-0.152 0.931-0.153 1.439 0 0.495 0.042 0.982 0.127 1.473 0.102 0.465 0.262 0.897 0.478 1.282 0.233 0.381 0.537 0.698 0.906 0.939 0.41 0.254 0.889 0.381 1.379 0.368a2.742 2.742 0 0 0 2.285-1.151 3.592 3.592 0 0 0 0.55-1.176c0.135-0.457 0.203-0.931 0.203-1.418z m24.644-0.165c0-1.375 0.22-2.361 0.655-2.954 0.436-0.614 1.138-0.918 2.108-0.918 0.855 0 1.451 0.279 1.785 0.838 0.334 0.542 0.499 1.371 0.499 2.483v7.646h3.567v-8.323c0-0.838-0.076-1.595-0.224-2.276a4.214 4.214 0 0 0-0.728-1.752 3.355 3.355 0 0 0-1.455-1.129 5.594 5.594 0 0 0-2.34-0.419c-0.753 0-1.489 0.186-2.209 0.55a4.079 4.079 0 0 0-1.756 1.701h-0.076v-1.883h-3.389v13.531h3.563v-7.095z m-91.976 2.936a10.43 10.43 0 0 1 0-5.34c0.254-0.855 0.609-1.608 1.078-2.251 0.487-0.647 1.087-1.159 1.811-1.544a5.078 5.078 0 0 1 2.51-0.601c0.77 0 1.498 0.169 2.187 0.52a3.787 3.787 0 0 1 1.655 1.494h0.05V0h3.567v18.685h-3.385v-1.726h-0.055a3.808 3.808 0 0 1-1.658 1.6 5.331 5.331 0 0 1-2.285 0.465c-0.973 0-1.824-0.186-2.564-0.571a5.509 5.509 0 0 1-1.833-1.6 7.934 7.934 0 0 1-1.078-2.327z m3.215-2.619c0 0.525 0.059 1.049 0.178 1.565 0.114 0.529 0.296 1.003 0.55 1.422 0.267 0.402 0.592 0.732 0.978 0.995 0.436 0.254 0.931 0.377 1.438 0.363a2.678 2.678 0 0 0 2.412-1.332c0.228-0.423 0.398-0.889 0.495-1.414a8.568 8.568 0 0 0 0-3.215 3.753 3.753 0 0 0-0.529-1.371 2.793 2.793 0 0 0-0.926-0.965 2.678 2.678 0 0 0-1.456-0.368 2.805 2.805 0 0 0-1.481 0.368 2.949 2.949 0 0 0-0.982 0.965c-0.245 0.436-0.423 0.906-0.524 1.396-0.102 0.508-0.152 1.032-0.153 1.591z m54.229 8.458l-0.043-0.199-4.172 0.043-0.055 0.169c-0.385 1.193-0.762 1.984-1.722 2.983l-0.402 0.423h8.488l-0.562-0.444c-0.791-0.618-1.248-1.506-1.532-2.975z m14.754-0.258l-0.042 0.148c-0.385 1.269-1.151 2.391-2.188 3.216l-0.457 0.372 31.553-0.169 0.14-3.77-29.006 0.203z"/></svg>