<svg fill="#FF6600" role="img" viewBox="0 0 30 24" xmlns="http://www.w3.org/2000/svg"><title>Draugiem.lv</title><path d="M21.362 6.65c5.343 0.07 8.459 3.346 4.92 7.828-1.624 2.065-4.37 4.104-8.033 5.434l-0.524 0.178c-0.345 0.112-0.687 0.215-1.023 0.321-0.793 0.224-1.566 0.422-2.315 0.565-0.801 0.166-1.576 0.285-2.323 0.371-0.534 0.052-1.049 0.087-1.547 0.097-3.408 0.087-5.972-0.845-6.805-2.84-1.006-2.384 1.031-5.706 5.114-8.234C5.802 11.579 0.323 14.436 0.09 18.531v0.502a5.352 5.352 0 0 0 0.239 1.279c0.87 2.768 4.974 4.059 10.202 3.596a24.142 24.142 0 0 0 1.545-0.183 29.92 29.92 0 0 0 4.639-1.086c0.17-0.062 0.342-0.112 0.514-0.174 0.352-0.112 0.697-0.229 1.033-0.36 4.523-1.643 7.88-3.836 9.842-6.339 1.116-1.435 1.695-2.778 1.806-3.957v-0.898c-0.323-2.986-3.807-4.74-8.548-4.262z m-3.464-1.481a1.537 1.537 0 0 0 0.351-0.041c0.758-0.189 1.128-0.998 1.161-1.953 0.035-1.013-0.319-1.858-1.161-1.978a1.026 1.026 0 0 0-0.223 0 1.38 1.38 0 0 0-1.324 0.981 3.139 3.139 0 0 0-0.191 1.013 2.724 2.724 0 0 0 0.191 1.185 1.234 1.234 0 0 0 1.196 0.793z m-0.017 0.339a3.66 3.66 0 0 0-0.869 0.093l0.07 0.096 0.128 0.23 0.106 0.243 0.087 0.249 0.057 0.256 0.045 0.258 0.025 0.27v0.531l-0.019 0.268v0.265l-0.035 0.268-0.036 0.266-0.051 0.268-0.051 0.266-0.051 0.259-0.062 0.258-0.049 0.25-0.062 0.24-0.06 0.233-0.061 0.224-0.051 0.214-0.051 0.205-0.025 0.13-0.037 0.144-0.031 0.157-0.029 0.162-0.032 0.174-0.025 0.147v0.031l-0.036 0.193-0.035 0.187-0.024 0.199-0.046 0.218-0.025 0.207-0.035 0.205-0.026 0.218-0.032 0.203-0.029 0.218-0.025 0.215-0.026 0.213c0.051 0.621 0.096 1.144 0.122 1.446a1.557 1.557 0 0 0 0.207 0.757 0.959 0.959 0 0 0 0.805 0.367 1.177 1.177 0 0 0 0.742-0.265 1.464 1.464 0 0 0 0.346-0.859c0.137-0.886 0.534-3.795 0.876-5.041 0.492-1.797 1.669-5.067-1.222-5.316a2.807 2.807 0 0 0-0.368-0.02z m-3.516-0.923h0.02c1.118 0 1.643-1.03 1.643-2.286 0-1.255-0.522-2.289-1.641-2.299h-0.022c-1.134 0-1.659 1.033-1.659 2.299 0 1.266 0.528 2.286 1.659 2.286z m-2.301 5.309c0.102 0.437 0.208 0.844 0.294 1.206 0.352 1.435 0.696 4.771 0.824 5.777 0.128 1.008 0.483 1.231 1.205 1.299 0.713-0.067 1.075-0.281 1.197-1.297 0.121-1.016 0.472-4.344 0.815-5.779 0.086-0.362 0.198-0.768 0.319-1.206 0.319-1.317 0.575-2.878 0-3.862-0.372-0.64-1.077-1.061-2.314-1.061-1.236 0-1.963 0.422-2.324 1.061-0.591 0.998-0.335 2.545-0.016 3.862zM10.529 5.128a1.537 1.537 0 0 0 0.352 0.041 1.234 1.234 0 0 0 1.183-0.808 2.986 2.986 0 0 0 0.189-1.186 3.321 3.321 0 0 0-0.189-1.013 1.394 1.394 0 0 0-1.323-0.982 0.998 0.998 0 0 0-0.224 0c-0.835 0.122-1.195 0.959-1.164 1.979 0.026 0.972 0.406 1.781 1.176 1.969z m-0.357 10.753a1.404 1.404 0 0 0 0.357 0.86 1.173 1.173 0 0 0 0.738 0.266 0.959 0.959 0 0 0 0.809-0.368 1.803 1.803 0 0 0 0.209-0.758l0.118-1.435v-0.019l-0.025-0.215-0.026-0.214-0.036-0.217-0.025-0.205-0.025-0.218-0.033-0.203-0.041-0.195-0.032-0.205-0.033-0.212-0.025-0.187-0.034-0.193v-0.025L12.038 12l-0.035-0.174-0.035-0.162-0.025-0.157-0.032-0.144-0.036-0.131-0.045-0.205-0.061-0.213-0.049-0.224-0.059-0.234-0.061-0.239-0.06-0.249-0.051-0.276-0.061-0.258-0.051-0.266-0.045-0.266-0.032-0.265-0.035-0.268-0.025-0.266V7.204l0.025-0.268 0.041-0.259 0.062-0.256 0.076-0.248 0.112-0.244 0.13-0.231 0.069-0.095a3.699 3.699 0 0 0-0.87-0.092 2.756 2.756 0 0 0-0.368 0c-2.876 0.249-1.713 3.516-1.221 5.315 0.342 1.26 0.738 4.169 0.876 5.054z"/></svg>