<svg fill="#50A901" role="img" viewBox="0 0 25 24" xmlns="http://www.w3.org/2000/svg"><title>Dreamstime</title><path d="M22.418 4.876C17.653-2.155 7.421-0.904 2.89 4.33 0.624 6.907-0.236 10.5 0.076 13.78c0.312 2.578 1.25 4.921 2.578 6.484 3.515 4.297 9.608 4.765 13.592 2.032 5.624-3.907 5.234-10.232 2.187-13.749-5.468-6.249-14.841-0.078-11.326 7.03 0.858 1.717 2.809 2.655 4.609 2.656 2.499 0 4.452-2.967 3.28-4.765-1.172-1.875-3.203 0-2.344 1.405 0.703 1.095-0.78 1.72-1.405 1.564-1.641-0.391-2.423-2.656-1.874-4.53 0.468-1.641 2.185-2.734 3.826-2.657 2.265 0.156 4.765 1.953 4.531 5.858-0.546 6.328-8.827 7.5-12.107 2.969-5.156-7.265 0.936-17.029 10.233-14.06 4.765 1.561 8.28 7.187 6.092 13.201-0.858 2.265-1.327 3.124-1.405 3.906-0.392 2.889 8.748-6.093 1.873-16.249z"/></svg>