<svg fill="#C5F74F" role="img" viewBox="0 0 47 24" xmlns="http://www.w3.org/2000/svg"><title>Drizzle</title><path d="M10.755 11.66a1.987 1.987 0 0 0-0.758-2.726 2.038 2.038 0 0 0-2.755 0.765L0.755 21.016a1.985 1.985 0 0 0 0.758 2.726 2.038 2.038 0 0 0 2.755-0.763l6.487-11.319Zm21.506 0a1.987 1.987 0 0 0-0.755-2.726 2.04 2.04 0 0 0-2.757 0.765l-6.485 11.317a1.987 1.987 0 0 0 0.755 2.726c0.97 0.543 2.205 0.199 2.757-0.763l6.485-11.319Zm13.985-8.676a1.987 1.987 0 0 0-0.758-2.727 2.036 2.036 0 0 0-2.755 0.765l-6.487 11.317a1.987 1.987 0 0 0 0.757 2.727 2.038 2.038 0 0 0 2.756-0.765l6.487-11.317Zm-21.513 0a1.985 1.985 0 0 0-0.755-2.727 2.04 2.04 0 0 0-2.758 0.763l-6.484 11.319a1.987 1.987 0 0 0 0.755 2.727c0.97 0.541 2.205 0.199 2.757-0.765l6.485-11.317Z"/></svg>