<svg fill="#0678BE" role="img" viewBox="0 0 19 24" xmlns="http://www.w3.org/2000/svg"><title>Drupal</title><path d="M13.281 5.113C11.591 3.425 9.981 1.815 9.499 0c-0.48 1.815-2.09 3.425-3.778 5.113-2.534 2.53-5.405 5.4-5.405 9.702a9.185 9.184 90 1 0 18.368 0c0-4.303-2.871-7.171-5.405-9.702M4.221 16.954c-0.563-0.019-2.64-3.6 1.215-7.416l2.55 2.788a0.218 0.218 0 0 1-0.016 0.325c-0.61 0.625-3.204 3.227-3.527 4.126-0.066 0.186-0.164 0.18-0.222 0.177M9.501 21.677a3.158 3.158 0 0 1-3.158-3.159 3.291 3.291 0 0 1 0.787-2.087c0.57-0.696 2.37-2.655 2.37-2.655s1.774 1.988 2.367 2.649a3.09 3.09 0 0 1 0.792 2.093A3.158 3.158 0 0 1 9.501 21.677m6.046-5.123c-0.068 0.15-0.223 0.398-0.431 0.405-0.371 0.014-0.411-0.177-0.686-0.583-0.604-0.892-5.864-6.39-6.848-7.455-0.866-0.935-0.122-1.595 0.223-1.94C8.237 6.547 9.501 5.285 9.501 5.285s3.766 3.574 5.336 6.016c1.57 2.443 1.029 4.556 0.71 5.253"/></svg>