<svg fill="#F98B2B" role="img" viewBox="0 0 60 24" xmlns="http://www.w3.org/2000/svg"><title>DTS</title><path d="M58.431 17.77l-2.938-2.885a2.069 2.069 0 0 1 1.486-3.555h1.452a0.851 0.851 0 0 0 0.858-0.844v-1.565H47.148a3.671 3.671 0 0 0-3.708 3.634v0.007c0 0.974 0.394 1.907 1.093 2.583l2.954 2.903a2.069 2.069 0 0 1-1.486 3.558h-4.549a3.213 3.213 0 0 1-3.24-3.184v-7.075h2.793a0.851 0.851 0 0 0 0.861-0.844v-1.565h-3.654V1.142l-9.511 4.084v3.675h-4.601V0h-7.061a2.426 2.426 0 0 0-2.452 2.411v6.49H9.506C4.202 8.901 0.477 11.736 0.477 16.452c0 4.207 4.369 7.548 9.044 7.548h11.354a3.213 3.213 0 0 0 3.243-3.184v-9.484h4.583v6.158c0 3.501 2.15 6.51 6.52 6.51h20.594A3.671 3.671 0 0 0 59.523 20.364v-0.008a3.553 3.553 0 0 0-1.092-2.586zM14.572 21.06a0.534 0.534 0 0 1-0.539 0.526h-0.32c-3.297 0-4.515-2.234-4.551-5.137 0.037-2.992 1.292-5.137 4.551-5.137h0.859v9.748z"/></svg>