<svg fill="#F01A30" role="img" viewBox="0 0 28 24" xmlns="http://www.w3.org/2000/svg"><title>DTube</title><path d="M0.098 0v24h9.865c1.521 0 2.883-0.184 4.098-0.552 1.203-0.368 2.284-0.907 3.229-1.632 1.337-1.031 2.367-2.37 3.091-4.013 0.712-1.644 1.079-3.532 1.079-5.655-0.012-1.828-0.282-3.499-0.821-4.996-0.54-1.497-1.288-2.771-2.27-3.826-0.969-1.055-2.147-1.866-3.509-2.455-1.362-0.577-2.871-0.871-4.528-0.871z m6.026 6.614l9.313 5.398-9.313 5.386z m18.526 10.614c-1.73 0-3.141 1.411-3.14 3.14 0 1.73 1.411 3.141 3.14 3.141h0.111c1.73 0 3.141-1.411 3.141-3.141 0-1.73-1.411-3.141-3.141-3.14z"/></svg>