<svg fill="#CC0000" role="img" viewBox="0 0 23 24" xmlns="http://www.w3.org/2000/svg"><title>Ducati</title><path d="M22.64 3.896c-0.326-1.307-1.96-2.001-3.103-2.45C16.802 0.384 12.882-0.189 9.901 0.057c-2.94 0.245-6.738 1.062-8.575 2.45-0.531 0.409-0.899 0.776-1.021 1.715C0.06 6.223 0.999 9.204 1.57 11.001c0.163-0.082 0.367-0.327 0.857-0.572 0.98-0.49 2.164-0.817 3.267-1.02 3.96-0.817 9.473-0.9 13.597-0.9 0.49 0 0.98 0 1.43 0.042 0.449 0 0.98 0.04 1.429 0.04l0.245-1.102c0.204-1.02 0.49-2.573 0.245-3.593zM5.45 5.529c-0.531 1.674-2.083 1.43-3.634 1.43L2.55 3.691c0.326-0.04 0.898 0 1.265 0 0.45 0 0.776 0 1.144 0.123 0.612 0.245 0.735 0.98 0.49 1.715z m1.837 1.51c-0.898 0.042-1.715-0.162-1.551-1.142 0.04-0.245 0.449-2.124 0.49-2.206h1.306c-0.04 0.368-0.204 0.94-0.286 1.307-0.04 0.245-0.081 0.408-0.122 0.654-0.04 0.204-0.123 0.571 0.204 0.49 0.204-0.041 0.245-0.286 0.286-0.49 0.122-0.572 0.327-1.47 0.408-1.96H9.33c-0.04 0.326-0.163 0.816-0.245 1.143-0.204 1.062-0.204 2.123-1.797 2.205z m3.308 0c-1.103 0-1.511-0.693-1.266-1.755 0.367-1.756 2.205-1.92 2.94-1.51 0.408 0.244 0.49 0.53 0.408 1.102h-1.225c0-0.164 0.041-0.327-0.081-0.409-0.123-0.081-0.327 0-0.409 0.082-0.204 0.204-0.53 1.43-0.286 1.593 0.286 0.204 0.49-0.205 0.531-0.409h1.225c-0.081 0.817-0.816 1.348-1.837 1.307z m4.165-0.08v-0.49h-0.94l-0.244 0.53H12.31c0.04-0.122 0.735-1.43 0.857-1.633l0.899-1.634h1.715l0.367 3.267c-0.286-0.04-1.225 0-1.388-0.04z m3.757-2.41c-0.082 0.163-0.245 0.98-0.286 1.184-0.082 0.327-0.164 0.858-0.286 1.184h-1.307c-0.04-0.204 0.49-2.123 0.49-2.409h-0.816l0.204-0.898h2.98c0 0.122-0.163 0.816-0.204 0.898l-0.775 0.041z m1.837 2.41h-1.347L19.7 3.691h1.306l-0.653 3.267z m-2.327 2.94c-1.266 0.122-2.45 0.244-3.635 0.408-2.245 0.326-4.573 0.898-6.451 1.674-1.593 0.694-3.88 2.082-3.88 4.165 0 0.326 0.041 0.326 0.286 0.694 0.368 0.53 0.858 1.266 1.225 1.756 1.184 1.51 3.308 4.124 4.982 5.063 0.49 0.286 0.898 0.49 1.51 0.204 0.45-0.204 0.9-0.53 1.226-0.776 2.164-1.755 4.982-5.349 6.288-7.758 0.899-1.674 1.715-3.716 2.287-5.676-0.368-0.04-3.47 0.204-3.838 0.245zM14.719 5.611V4.426c-0.082 0.082-0.49 1.021-0.53 1.185zM3.694 4.426l-0.408 1.797c0.571 0.041 0.735-0.327 0.816-0.776 0.123-0.49 0.286-1.061-0.408-1.02z"/></svg>