<svg fill="#ED1C24" role="img" viewBox="0 0 26 24" xmlns="http://www.w3.org/2000/svg"><title>Dungeons &amp; Dragons</title><path d="M4.323 1.493C5.33 0.505 6.687-0.092 8.691 0.012c3.162 0.163 4.681 2.251 4.681 4.503 0 1.086-0.576 2.538-1.371 3.569-0.048-0.047-0.089-0.093-0.139-0.141a22.855 22.855 0 0 0-0.527-0.468c-0.52-0.452-1.106-0.972-1.5-1.532 0.867-1.518 0.372-3.667-1.46-3.666-1.072 0-1.965 0.945-1.889 2.198-0.279 0.593-0.416 1.452-0.362 2.215-0.525-0.317-0.968-0.664-1.176-1.146l-0.672-1.552-0.53 1.602a2.701 2.701 0 0 0-0.094 1.219l-0.011-0.001a3.512 3.512 0 0 1-0.596-1.686c-0.193-2.049 0.821-3.183 1.278-3.633z m-0.483 7.329c0.122-0.466-0.836-1.26-1.193-1.408 1.315-0.05 1.969 0.188 1.969 0.188-0.344-0.488-0.454-1.231-0.26-1.821 0.716 1.653 3.278 1.918 3.912 3.289-0.09-0.591-0.671-1.256-1.346-1.643-0.362-0.9-0.091-2.559 0.351-3.016-0.156 2.384 3.382 3.748 4.116 5.483-0.43-1.485-2.079-2.425-2.861-3.315-0.258-0.591-0.06-1.59 0.22-1.932-0.083 1.598 1.71 2.844 2.667 3.738 1.129 1.051 1.449 1.982 1.296 2.742 0.247 0.062 0.587 0.293 0.53 0.685 0.361-0.081 0.727-0.478 0.816-0.723 0.177 1.186-0.548 2.441-1.36 2.815 0 0 0.218-0.566-0.151-0.999-0.365-0.427-1.402-0.433-1.752-0.408 0 0 0.43-0.612 0.26-0.924-0.215-0.383-2.241-0.215-3.147 0.101 0.308-0.032 1.039 0.047 1.294 0.151-0.142 0.203-0.513 1.062-0.247 1.32 0.247 0.236 0.569-0.174 0.569-0.174s-0.316 0.94-0.088 1.158c0.226 0.218 0.711 0.063 0.711 0.063-0.302 0.738-1.481 1.246-2.305 1.246 0.294-0.09 0.779-0.594 0.854-0.898-0.215 0.104-0.78 0.164-0.996 0.126 0.266-0.104 0.801-0.765 0.635-1.509-0.246-1.084-1.815-1.221-2.604-0.698 0.256-0.728 1.02-1.409 1.618-1.632a8.08 8.08 0 0 0-1.199-0.293c0.503-0.396 1.764-0.72 2.407-0.687-0.982-0.242-2.777 0.061-3.6 0.996 0.263 0 0.94 0.122 1.2 0.204-1.126 0.195-2.661 1.205-3.112 1.682 0.118-0.627 0.301-1.16 0.146-1.536-0.217-0.534-0.887-0.756-2.223-0.491 0.902-0.869 2.75-1.407 2.874-1.88z m6.147 0.841c0.178 0.605 0.419 1.16 1.179 1.16 0 0-0.266-0.837-1.179-1.16z m11.255 6.662c0.572 0.095 1.377 0.682 1.377 1.522 0 1.369-1.774 1.79-2.756 1.578 1.042-0.696 0.902-2.698-0.35-3.414 0.424 1.122-0.848 2.236-2.086 1.259-0.688-0.543-2.28-1.819-2.991-2.369-0.709-0.549-1.54-0.23-1.869-0.47-0.374-0.273-0.134-1.042-0.644-1.327-0.429-0.238-0.848-0.105-1.346-0.264-0.451-0.143-0.787-0.481-0.73-0.937-0.191 0.325-0.204 0.891 0.138 1.274 0.339 0.378 0.906 0.612 1.141 1.028 0.303 0.537-0.207 1.285 1.14 2.301 0.644 0.485 1.643 1.283 2.296 1.834 1.097 0.926 0.511 2.084 0.655 3.092 0.166 1.177 1.151 1.83 1.806 1.995-0.565-0.494-0.779-1.74 0.015-2.502 0.041 0.984 0.779 2.524 2.462 2.957 1.79 0.459 3.694-0.518 4.089-1.205-0.691 0.301-1.991-0.024-2.527-0.507 2.101 0.287 3.959-1.115 3.959-2.913 0-1.754-1.767-3.113-3.779-2.932z m-9.129 0.852c-0.716 1.181-2.243 2.718-3.79 2.718-2.847 0-4.275-3.877-1.082-7.05a1.541 1.541 0 0 0-0.43-0.064c-0.274 0-0.541 0.069-0.717 0.187l-1.254 0.833 0.283-1.538a2.298 2.298 0 0 1 0.1-0.242c-0.725 0.346-1.438 0.84-1.706 1.123L2.281 14.449l0.131-1.829c0.027-0.143 0.058-0.281 0.086-0.414 0.064-0.295 0.145-0.664 0.096-0.786a0.23 0.23 0 0 0-0.089-0.098C1.916 11.758 0.302 13.133 0.112 15.153c0 0 0.313-0.424 0.584-0.523 0.179-0.067 0.336 0.018 0.164 0.523-0.066 0.198-1.622 4.253 1.439 7.057 0 0-0.335-0.825-0.133-1.075 0.099-0.122 0.228-0.132 0.404 0.086 0.132 0.168 0.27 0.329 0.471 0.548 0.201 0.22 0.48 0.48 0.783 0.706 0.916 0.618 2.16 1.114 3.575 1.114 3.787 0 5.794-2.513 6.906-4.624a1.666 1.666 0 0 0-0.167-0.161 61.221 61.221 0 0 0-2.026-1.627z m2.051-3.098c0.223 0.072 0.451 0.17 0.674 0.343 0.262 0.202 0.648 0.506 1.06 0.833 0.329-0.698 1.084-2.151 2.252-3.441 1.053-1.16 2.889-1.272 3.854-0.565 0.62-0.539 2.759-1.046 3.884-0.738-0.686-0.717-2.144-1.68-3.754-1.68-1.329 0-2.079 0.626-2.27 0.344-0.245-0.361 0.899-0.895 0.899-0.895-1.568 0.062-2.71 1.838-3.185 1.617-0.281-0.129 0.424-0.988 0.424-0.988-1.435 0.801-2.637 2.5-2.887 3.534 1.32-1.555 3.882-2.67 5.548-2.434-2.824 0.131-5.253 2.444-6.498 4.07Z"/></svg>