<svg fill="#13ADC7" role="img" viewBox="0 0 40 24" xmlns="http://www.w3.org/2000/svg"><title>DVC</title><path d="M0.5 0.52a0.479 0.479 0 0 1 0.146-0.363 0.416 0.416 0 0 1 0.327-0.149h6.372c2.613 0.198 4.563 0.946 6.357 2.789 1.804 1.844 2.52 3.936 2.749 6.626 0.219 2.59-0.839 4.833-2.632 6.676a8.808 8.808 0 0 1-2.955 2.08 8.639 8.639 0 0 1-3.519 0.701H0.974a0.455 0.455 0 0 1-0.328-0.15 0.512 0.512 0 0 1-0.112-0.169 0.523 0.523 0 0 1-0.032-0.2V0.52Zm4.076 14.365H7.081c1.463 0 2.681-0.53 3.647-1.581a5.53 5.53 0 0 0 1.448-3.884c0-1.531-0.488-2.823-1.446-3.872a4.769 4.769 0 0 0-1.658-1.193 4.68 4.68 0 0 0-1.991-0.387H4.576z m19.604 0.101a0.52 0.52 0 0 1 0.045 0.505l-3.776 8.216c-0.102 0.198-0.249 0.293-0.444 0.293h-0.263c-0.195 0-0.341-0.098-0.449-0.299l-3.705-8.114a0.515 0.515 0 0 1 0.054-0.513 8.346 8.346 0 0 0 1.562-5.152c-0.003-0.143 0.216-0.2 0.273-0.068l2.34 5.259h0.159l2.428-5.451c0.057-0.127 0.26-0.08 0.26 0.059 0 1.864 0.471 3.708 1.516 5.265z m1.943 1.183c-1.853-1.833-2.711-4.056-2.71-6.676 0-2.636 0.853-4.869 2.71-6.716a9.328 9.328 0 0 1 3.104-2.088 9.181 9.181 0 0 1 3.653-0.688 9.25 9.25 0 0 1 6.403 2.443c0.267 0.249 0.271 0.497 0.028 0.736l-2.063 2.129c-0.228 0.208-0.453 0.208-0.663 0a5.216 5.216 0 0 0-3.573-1.341c-1.482 0-2.714 0.528-3.705 1.594a5.309 5.309 0 0 0-1.414 3.811c0 1.476 0.439 2.73 1.433 3.772a4.912 4.912 0 0 0 3.715 1.56 5.289 5.289 0 0 0 3.544-1.261c0.244-0.21 0.473-0.2 0.683 0.024l2.067 2.183c0.229 0.229 0.219 0.463-0.024 0.706a8.921 8.921 0 0 1-6.431 2.547 9.222 9.222 0 0 1-3.648-0.675 9.417 9.417 0 0 1-3.109-2.063z"/></svg>