<svg fill="#008CD7" role="img" viewBox="0 0 16 24" xmlns="http://www.w3.org/2000/svg"><title>D-Wave Systems</title><path d="M6.106 12.005c0 1.581-1.284 2.864-2.868 2.863-1.584 0-2.868-1.282-2.869-2.863 0-1.581 1.284-2.864 2.869-2.864 1.584 0 2.869 1.282 2.868 2.864zM3.238 0C1.654 0 0.369 1.282 0.369 2.863s1.284 2.863 2.869 2.863c1.584 0 2.869-1.282 2.868-2.863C6.106 1.282 4.822 0 3.238 0z m9.524 18.278c-1.584 0-2.868 1.276-2.867 2.864 0 1.576 1.284 2.858 2.867 2.858 1.585 0 2.868-1.282 2.869-2.858 0-1.587-1.284-2.864-2.869-2.864z m-2.868-6.273c0-1.581 1.284-2.864 2.868-2.864 1.584 0 2.868 1.282 2.869 2.864 0 1.581-1.284 2.864-2.869 2.863-1.584 0-2.869-1.282-2.868-2.863z m0.5 0c0 1.303 1.063 2.364 2.368 2.363s2.368-1.06 2.369-2.363c0-1.303-1.062-2.364-2.369-2.364s-2.369 1.06-2.368 2.364z"/></svg>