<svg fill="#E73D2F" role="img" viewBox="0 0 35 24" xmlns="http://www.w3.org/2000/svg"><title>E3</title><path d="M16.153 18.525H7.062v-3.861h9.043v-5.426H7.062v-3.812h9.043V0H0.17v24h20.431c0-0.049-4.008-1.027-4.448-5.475z m14.615-9.238c2.737 1.857 4.155 3.666 4.057 7.381-0.098 3.861-4.008 7.283-8.26 7.283-3.03 0-6.892-1.369-8.359-5.426l5.035-2.248c0.684 1.271 1.662 2.249 3.177 2.248 1.662 0 2.884-1.271 3.031-2.884 0.049-0.391-0.195-3.226-3.031-3.323l-3.177-0.343 4.057-6.549h-9.141v-5.426h16.668z"/></svg>