<svg fill="#FF6600" role="img" viewBox="0 0 104 24" xmlns="http://www.w3.org/2000/svg"><title>easyJet</title><path d="M12.855 12.975H6.353c-0.286 0-0.429 0.126-0.429 0.372 0 0.598 0.325 1.165 0.975 1.694 0.65 0.529 1.347 0.797 2.096 0.797 0.442 0 0.936-0.087 1.473-0.255 0.542-0.169 0.983-0.381 1.334-0.628 0.312-0.221 0.563-0.334 0.746-0.334 0.238 0 0.477 0.147 0.706 0.442a1.473 1.473 0 0 1 0.346 0.914c0 0.663-0.416 1.304-1.243 1.923-1.469 1.096-3.158 1.646-5.077 1.647-1.936 0-3.561-0.563-4.87-1.69a6.931 6.931 0 0 1-1.576-2.006 6.979 6.979 0 0 1-0.819-3.292c0-1.551 0.472-2.941 1.412-4.176 0.81-1.07 1.845-1.867 3.098-2.392 0.94-0.399 1.958-0.593 3.058-0.593 1.75 0 3.24 0.498 4.466 1.495 0.619 0.498 1.118 1.087 1.495 1.771 0.433 0.775 0.65 1.529 0.65 2.27a2.673 2.673 0 0 1-0.373 1.473c-0.247 0.377-0.572 0.568-0.966 0.568z m-6.143-2.586h1.4c0.589 0 0.884-0.273 0.883-0.815a1.733 1.733 0 0 0-0.429-1.217 1.451 1.451 0 0 0-1.122-0.472 1.421 1.421 0 0 0-1.217 0.61 1.928 1.928 0 0 0-0.416 1.148c0 0.277 0.065 0.472 0.199 0.581 0.134 0.108 0.368 0.165 0.702 0.165z m15.999-5.008c1.603 0 2.963 0.407 4.081 1.217 0.589 0.433 1.005 0.931 1.239 1.486 0.234 0.559 0.351 1.326 0.35 2.305l-0.026 2.062c0 1.43 0.1 2.357 0.304 2.781 0.1 0.204 0.199 0.334 0.29 0.385a1.776 1.776 0 0 0 0.58 0.152c0.295 0.048 0.442 0.238 0.442 0.581a2.339 2.339 0 0 1-0.533 1.381 4.436 4.436 0 0 1-1.377 1.205 4.224 4.224 0 0 1-2.171 0.611 2.855 2.855 0 0 1-2.296-0.997c-0.195-0.238-0.373-0.36-0.541-0.359-0.186 0-0.429 0.117-0.732 0.346a5.207 5.207 0 0 1-3.141 1.01c-1.209 0-2.188-0.26-2.933-0.776a3.648 3.648 0 0 1-1.161-1.334 3.682 3.682 0 0 1-0.429-1.724c0-0.957 0.386-1.806 1.161-2.548 1.209-1.161 3.015-1.746 5.424-1.758 0.533 0 0.871-0.052 1.009-0.161 0.139-0.104 0.208-0.351 0.208-0.74 0-0.979-0.1-1.685-0.303-2.123-0.204-0.438-0.533-0.658-0.996-0.659a1.17 1.17 0 0 0-0.741 0.252c-0.217 0.165-0.485 0.472-0.81 0.914-0.823 1.17-1.677 1.759-2.573 1.758a1.542 1.542 0 0 1-1.105-0.402 1.378 1.378 0 0 1-0.429-1.053c0-0.442 0.178-0.884 0.533-1.33 0.355-0.442 0.836-0.832 1.447-1.161a11.077 11.077 0 0 1 5.229-1.321z m-0.927 8.01a1.373 1.373 0 0 0-1.057 0.498 1.72 1.72 0 0 0-0.451 1.191c0 0.442 0.104 0.801 0.316 1.075a1.014 1.014 0 0 0 0.845 0.407c0.736 0 1.105-0.624 1.105-1.867 0-0.507-0.052-0.849-0.161-1.023-0.104-0.182-0.303-0.273-0.597-0.281z m14.426-7.997c0.459 0 1.213 0.1 2.257 0.303a2.967 2.967 0 0 0 0.524 0.056 3.453 3.453 0 0 0 0.914-0.247 1.547 1.547 0 0 1 0.541-0.125c0.425 0 0.853 0.273 1.287 0.814 0.351 0.433 0.637 0.91 0.858 1.425a3.509 3.509 0 0 1 0.333 1.343 1.213 1.213 0 0 1-0.385 0.919 1.365 1.365 0 0 1-0.971 0.368 1.625 1.625 0 0 1-0.866-0.234 8.924 8.924 0 0 1-1.226-1.04c-0.589-0.572-1.079-0.858-1.469-0.857a0.927 0.927 0 0 0-0.671 0.281 0.91 0.91 0 0 0-0.282 0.672c0 0.451 0.433 0.875 1.3 1.273 1.56 0.702 2.755 1.469 3.583 2.296 0.702 0.702 1.053 1.56 1.052 2.574 0 1.282-0.563 2.352-1.689 3.21a5.662 5.662 0 0 1-3.557 1.122c-0.36 0-1.014-0.061-1.962-0.178a31.971 31.971 0 0 0-1.508-0.152 2.188 2.188 0 0 0-0.416 0.044 5.389 5.389 0 0 1-0.58 0.056 1.482 1.482 0 0 1-1.023-0.334 4.796 4.796 0 0 1-1.052-1.611 4.813 4.813 0 0 1-0.486-1.889c0-0.849 0.334-1.274 0.997-1.274 0.26 0 0.494 0.087 0.71 0.256 0.217 0.169 0.671 0.624 1.365 1.365 0.377 0.407 0.693 0.684 0.94 0.836a1.508 1.508 0 0 0 0.801 0.229c0.303 0 0.55-0.082 0.732-0.242a0.81 0.81 0 0 0 0.278-0.646c0-0.416-0.355-0.793-1.066-1.135-1.486-0.728-2.556-1.482-3.214-2.257a4.02 4.02 0 0 1-0.988-2.686c0-1.096 0.338-2.045 1.009-2.837 0.957-1.131 2.27-1.698 3.93-1.698z m21.634 6.805l-1.828 5.021a19.083 19.083 0 0 1-1.365 3.05 8.941 8.941 0 0 1-1.555 2.014c-1.2 1.144-2.643 1.716-4.332 1.716-1.365 0-2.474-0.36-3.318-1.079a2.656 2.656 0 0 1-0.984-2.118c0-0.71 0.23-1.308 0.685-1.794a2.218 2.218 0 0 1 1.68-0.727c0.663 0 1.2 0.221 1.603 0.662a1.811 1.811 0 0 1 0.386 0.542c0.065 0.156 0.16 0.503 0.29 1.04 0.1 0.407 0.334 0.611 0.693 0.61a0.884 0.884 0 0 0 0.719-0.372 1.456 1.456 0 0 0 0.291-0.927c0-0.433-0.238-1.157-0.719-2.171l-3.336-7.096a6.524 6.524 0 0 0-0.789-1.381 3.934 3.934 0 0 0-1.161-0.676 1.014 1.014 0 0 1-0.476-0.438 1.187 1.187 0 0 1-0.199-0.628c0-0.819 0.814-1.378 2.447-1.672 1.087-0.195 2.331-0.29 3.721-0.29 0.979 0 1.746 0.1 2.309 0.303 0.758 0.269 1.135 0.723 1.136 1.369a1.516 1.516 0 0 1-0.317 0.814 1.438 1.438 0 0 0-0.303 0.789c0 0.221 0.048 0.451 0.147 0.693 0.095 0.238 0.303 0.645 0.615 1.217 0.351 0.645 0.658 0.97 0.928 0.971 0.286 0 0.581-0.282 0.883-0.85a3.474 3.474 0 0 0 0.455-1.637 1.547 1.547 0 0 0-0.346-1.04c-0.351-0.416-0.524-0.771-0.525-1.065 0-0.472 0.312-0.845 0.94-1.127 0.628-0.282 1.464-0.42 2.517-0.42 1.954 0 2.933 0.472 2.933 1.412a1.139 1.139 0 0 1-0.299 0.823 2.851 2.851 0 0 1-1.087 0.589 2.123 2.123 0 0 0-1.053 0.832c-0.394 0.602-0.862 1.62-1.386 3.041z m13.815-12.199c1.031 0 2.084 0.091 3.154 0.277 0.875 0.147 1.503 0.351 1.88 0.611 0.377 0.26 0.568 0.615 0.567 1.066a0.996 0.996 0 0 1-0.207 0.671 3.097 3.097 0 0 1-0.902 0.59c-0.533 0.277-0.84 0.602-0.918 0.974s-0.152 1.824-0.217 4.35c-0.026 2.443-0.052 3.912-0.078 4.401a9.565 9.565 0 0 1-0.173 1.425c-0.269 1.347-0.806 2.404-1.62 3.167-0.663 0.628-1.516 1.122-2.56 1.482a10.033 10.033 0 0 1-3.293 0.541 12.173 12.173 0 0 1-3.08-0.403 9.791 9.791 0 0 1-2.677-1.104 4.224 4.224 0 0 1-1.495-1.569 4.267 4.267 0 0 1-0.554-2.109c0-0.923 0.29-1.685 0.871-2.292a2.911 2.911 0 0 1 2.187-0.905c0.858 0 1.586 0.256 2.188 0.762a2.426 2.426 0 0 1 0.901 1.911c0 0.195-0.056 0.516-0.165 0.97a1.646 1.646 0 0 0-0.025 0.303 0.91 0.91 0 0 0 0.316 0.719 1.235 1.235 0 0 0 0.845 0.278 1.733 1.733 0 0 0 1.494-0.832c0.377-0.555 0.568-1.282 0.568-2.188l-0.013-1.261-0.026-3.387a88.821 88.821 0 0 0-0.187-3.631 1.897 1.897 0 0 0-0.312-0.892 1.213 1.213 0 0 0-0.368-0.36 5.649 5.649 0 0 0-0.866-0.264 0.94 0.94 0 0 1-0.568-0.385 1.122 1.122 0 0 1-0.234-0.676c0-0.498 0.195-0.897 0.589-1.196 0.39-0.299 1.031-0.542 1.915-0.728a14.296 14.296 0 0 1 3.063-0.316z m18 12.975h-6.503c-0.286 0-0.429 0.126-0.428 0.372 0 0.598 0.325 1.165 0.974 1.694 0.65 0.529 1.347 0.797 2.097 0.797 0.442 0 0.936-0.087 1.473-0.255 0.542-0.169 0.983-0.381 1.334-0.628 0.312-0.221 0.563-0.334 0.745-0.334 0.238 0 0.477 0.147 0.706 0.442a1.473 1.473 0 0 1 0.347 0.914c0 0.663-0.416 1.304-1.243 1.923-1.469 1.096-3.158 1.646-5.077 1.647-1.936 0-3.561-0.563-4.87-1.69a7.001 7.001 0 0 1-2.391-5.298c0-1.551 0.472-2.941 1.412-4.176 0.81-1.07 1.845-1.867 3.098-2.392 0.94-0.399 1.958-0.593 3.058-0.593 1.75 0 3.24 0.498 4.471 1.495 0.619 0.498 1.118 1.087 1.494 1.771 0.433 0.775 0.65 1.529 0.65 2.27a2.673 2.673 0 0 1-0.372 1.473c-0.256 0.377-0.576 0.568-0.975 0.568z m-6.143-2.586h1.399c0.589 0 0.884-0.273 0.884-0.815a1.733 1.733 0 0 0-0.429-1.217 1.451 1.451 0 0 0-1.122-0.472 1.421 1.421 0 0 0-1.217 0.61 1.928 1.928 0 0 0-0.416 1.148c0 0.277 0.065 0.472 0.199 0.581 0.139 0.108 0.373 0.165 0.702 0.165z m16.293-1.369v4.674c0 0.555 0.134 1.005 0.407 1.356a1.265 1.265 0 0 0 1.044 0.524c0.36 0 0.836-0.165 1.426-0.498a0.81 0.81 0 0 1 0.415-0.126c0.221 0 0.425 0.134 0.611 0.403a1.525 1.525 0 0 1 0.273 0.875c0 0.572-0.312 1.122-0.94 1.646-1.308 1.118-2.898 1.672-4.761 1.673-1.477 0-2.66-0.416-3.557-1.252-0.897-0.836-1.343-1.936-1.342-3.301v-6.39c0-0.212-0.026-0.342-0.078-0.394-0.052-0.052-0.182-0.078-0.395-0.078h-1.425c-0.269 0-0.438-0.043-0.511-0.13-0.074-0.087-0.113-0.295-0.113-0.616v-0.61c0.009-0.277 0.117-0.481 0.316-0.611l6.338-3.986a1.239 1.239 0 0 1 0.581-0.125h1.122c0.23 0 0.386 0.052 0.463 0.16 0.078 0.104 0.117 0.316 0.117 0.628v1.867c0 0.277 0.043 0.455 0.13 0.542 0.087 0.082 0.273 0.126 0.559 0.125h2.56c0.342 0 0.563 0.061 0.663 0.187 0.1 0.126 0.152 0.39 0.152 0.797v0.814c0 0.442-0.065 0.749-0.195 0.919-0.13 0.169-0.364 0.256-0.706 0.255h-2.504c-0.26 0-0.433 0.048-0.524 0.139-0.082 0.1-0.126 0.273-0.126 0.533z"/></svg>