<svg fill="#1765F6" role="img" viewBox="0 0 33 24" xmlns="http://www.w3.org/2000/svg"><title>EasyEDA</title><path d="M18.268 0.003a10.35 10.35 0 0 0-4.069 0.735 10.35 10.35 0 0 0-2.334 1.283 10.613 10.613 0 0 0-2.146 2.115 8.512 8.512 0 0 0-1.031-0.064C4.059 4.072 0.308 7.832 0.308 12.473a8.389 8.389 0 0 0 5.594 7.919 5.072 5.072 0 0 0 9.886-2.124l7.151-3.607-0.054-0.106 0.674-0.346-1.378-2.735-0.674 0.337-0.063-0.116-7.139 3.586a5.029 5.029 0 0 0-3.545-1.451 5.087 5.087 0 0 0-4.615 2.965 5.024 5.024 0 0 1-2.294-5.594 5.006 5.006 0 0 1 7.488-2.988 7.032 7.032 0 0 1 8.885-4.479 7.071 7.071 0 0 1 4.774 5.9 3.931 3.931 0 0 1 4.302 3.912 3.925 3.925 0 0 1-3.576 3.912h-2.881v3.396h3.028l0.149-0.021a7.296 7.296 0 0 0 6.645-7.897 7.366 7.366 0 0 0-2.123-4.554A7.226 7.226 0 0 0 27.7 6.617a10.424 10.424 0 0 0-9.432-6.613ZM10.762 16.544c1.302 0 2.365 1.067 2.366 2.377a2.359 2.359 0 0 1-2.366 2.365 2.359 2.359 0 0 1-2.366-2.365 2.369 2.369 0 0 1 2.366-2.366Z"/></svg>