<svg fill="#E53238" role="img" viewBox="0 0 61 24" xmlns="http://www.w3.org/2000/svg"><title>eBay</title><path d="M15.603 12.331v-12.331h3.007v7.584c1.479-1.762 3.514-2.271 5.519-2.271 3.358 0 7.088 2.266 7.088 7.156 0 0.584-0.038 1.145-0.151 1.674 0.602-2.388 3.193-3.271 7.259-3.369 1.278-0.045 2.744-0.045 3.909-0.045v-0.338c0-2.218-1.393-3.118-3.834-3.118-1.805 0-3.12 0.752-3.271 2.03h-3.195c0.341-3.233 3.759-4.06 6.731-4.06 2.667 0 5 0.677 6.053 2.556l-1.093-2.105h3.534l5.151 10.339 5.15-10.341H60.575l-9.323 18.308h-3.374l2.682-5.113-5.839-10.977c0.326 0.639 0.501 1.391 0.501 2.331v6.165c0 0.867 0.025 1.729 0.1 2.519H42.53a16.398 16.398 0 0 1-0.115-1.917c-1.511 1.84-3.308 2.406-5.815 2.406-3.709 0-5.694-1.955-5.694-4.249 0-0.376 0.038-0.712 0.093-1.015-0.752 3.123-3.409 5.228-6.935 5.228-2.18 0-4.246-0.789-5.514-2.33 0 0.602-0.038 1.238-0.1 1.839h-2.958c0.05-0.977 0.1-2.143 0.101-3.12v-2.632h-12.106c0.163 2.744 2.05 4.361 4.645 4.361 1.799 0 3.396-0.752 3.929-2.331h3.108c-0.602 3.233-4.035 4.323-6.992 4.324C2.806 19.541 0.425 16.566 0.425 12.581c0-4.396 2.461-7.293 7.809-7.293 4.231 0 7.343 2.221 7.369 7.033v0.012z m22.9 0.458c-2.744 0.085-4.436 0.584-4.437 2.381 0 1.165 0.902 2.431 3.271 2.432 3.158 0 4.85-1.729 4.85-4.547v-0.326c-1.128 0-2.481 0.015-3.72 0.055h0.03z m-15.188 4.7c2.782 0 4.702-2.02 4.701-5.063s-1.925-5.063-4.744-5.063c-2.782 0-4.737 2.02-4.737 5.063s1.917 5.063 4.699 5.063h0.076z m-10.903-6.301c-0.11-2.82-2.14-3.875-4.323-3.875-2.366 0-4.246 1.188-4.549 3.875z"/></svg>