<svg fill="#BE2323" role="img" viewBox="0 0 23 24" xmlns="http://www.w3.org/2000/svg"><title>EBOX</title><path d="M0.439 14.973l10.97 6.4V24L0.44 17.6v-2.626z m22.123 0v2.626l-10.971 6.4v-2.626l10.97-6.401ZM0.439 10.66l10.97 6.4v2.627l-7.223-4.214-1.068 0.622-2.253-1.313 1.07-0.623-1.496-0.873V10.66z m22.123 0v2.626l-1.496 0.873 1.07 0.624-2.253 1.313-1.07-0.623-7.224 4.214V17.06l10.972-6.4ZM0.439 6.347l10.97 6.4v2.627l-3.525-2.057-1.067 0.622-2.252-1.314 1.067-0.622-1.429-0.833-1.066 0.622-2.253-1.314 1.068-0.622-1.514-0.883Zm22.123 0v2.626l-1.514 0.883 1.07 0.622-2.254 1.315-1.068-0.623-1.428 0.833 1.068 0.622-2.252 1.314-1.07-0.622-3.525 2.057v-2.627l10.972-6.4ZM11.5 8.584l3.236 1.885-2.252 1.314-0.983-0.573-0.982 0.573-2.252-1.314 3.235-1.885Zm0-4.293l6.916 4.03-2.252 1.315L11.5 6.918 6.838 9.635 4.585 8.321ZM11.5 0l10.597 6.175-2.252 1.314L11.5 2.627 3.157 7.489 0.905 6.175 11.5 0Z"/></svg>