<svg fill="#782A90" role="img" viewBox="0 0 25 24" xmlns="http://www.w3.org/2000/svg"><title>Eclipse Vert.x</title><path d="M3.848 0C2.056 0 0.516 1.26 0.489 2.931v1.437h2.517l3.865 8.904 4.032-8.799h5.082l2.184 3.99 2.563-3.99H24.511V2.939C24.511 1.272 22.95 0.001 21.153 0.001zM24.511 5.663l-8.882 13.573H12.94c-0.02-0.63-0.188-1.238-0.503-1.742l3.612-5.713-2.746-4.364-3.833 8.428-0.036-0.002a3.446 3.446 0 0 0-3.437 3.436c0 0.021 0.003 0.042 0.004 0.063h-0.263L0.489 7.497v13.565c0 1.667 1.561 2.938 3.359 2.938h17.305c1.814 0 3.358-1.277 3.358-2.938v-1.827h-3.59l-1.596-2.877 2.226-3.381L24.511 17.644z m-15.08 11.511a2.104 2.104 0 0 1 2.111 2.105 2.108 2.108 0 1 1-4.216 0c0-1.161 0.938-2.102 2.105-2.105Z"/></svg>