<svg fill="#2C2255" role="img" viewBox="0 0 25 24" xmlns="http://www.w3.org/2000/svg"><title>Eclipse IDE</title><path d="M11.607 0a15.612 15.612 0 0 0-0.738 0.023C7.217 0.338 3.952 2.498 2.058 5.848A12.556 12.556 0 0 0 0.497 11.109c-0.04 0.518-0.02 1.749 0.035 2.212 0.307 2.687 1.356 5.07 3.076 6.979 1.966 2.177 4.595 3.474 7.452 3.671 0.421 0.032 1.045 0.04 1.022 0.012a2.409 2.409 0 0 0-0.339-0.074c-1.677-0.331-3.395-1.132-4.786-2.237a12.369 12.369 0 0 1-2.455-2.641A12.412 12.412 0 0 1 2.363 12.501a12.438 12.438 0 0 1 0.562-4.282c0.787-2.527 2.375-4.736 4.484-6.241A11.096 11.096 0 0 1 11.654 0.098l0.444-0.098z m1.477 0.511C11.143 0.627 9.301 1.278 7.791 2.381 5.913 3.754 4.479 5.631 3.702 7.738c-0.145 0.398-0.283 0.822-0.282 0.881 0 0.012 3.836 0.024 10.331 0.024 8.48 0 10.336-0.008 10.336-0.036 0-0.047-0.153-0.526-0.284-0.88-0.153-0.421-0.577-1.313-0.822-1.726-0.401-0.684-0.912-1.376-1.477-1.996-1.653-1.824-3.6-2.94-5.832-3.341-0.787-0.141-1.804-0.2-2.59-0.153zM24.354 9.966c-0.02 0-4.802 0-10.63 0.004l-10.595 0.008-0.011 0.059c-0.036 0.16-0.134 1.083-0.134 1.245 0 0.028 1.789 0.032 10.768 0.032H24.525v-0.075c0-0.102-0.07-0.793-0.107-1.056-0.02-0.16-0.04-0.216-0.063-0.217z m-10.594 2.641c-9.389-0.004-10.752 0-10.764 0.035-0.02 0.04 0.024 0.558 0.075 0.975 0.02 0.157 0.035 0.299 0.035 0.314 0 0.027 2.141 0.035 10.646 0.035h10.645l0.024-0.188c0.043-0.327 0.102-0.972 0.094-1.069l-0.008-0.094z m0.003 2.723c-8.9 0-10.342 0.004-10.342 0.035 0 0.02 0.054 0.208 0.12 0.421a11.145 11.145 0 0 0 2.076 3.749c0.283 0.343 0.947 1.038 1.231 1.289 1.571 1.403 3.254 2.221 5.19 2.536 0.606 0.094 0.888 0.113 1.754 0.11 0.912 0 1.3-0.032 2.027-0.178 2.114-0.417 3.922-1.454 5.541-3.176 1.27-1.351 2.11-2.766 2.633-4.419l0.118-0.367z"/></svg>