<svg fill="#FC390E" role="img" viewBox="0 0 32 24" xmlns="http://www.w3.org/2000/svg"><title>Eclipse Jetty</title><path d="M6.898 0a1.092 1.092 0 0 0-1.064 0.847l-0.801 3.468a1.092 1.092 0 0 0 0.03 0.595 1.092 1.092 0 0 0-0.288 0.523L1.71 18.71c-0.056 0.004-0.083 0.008-0.156 0.011a1.092 1.092 0 0 0-1.049 1.065l-0.075 3.095a1.092 1.092 0 0 0 1.096 1.119c1.757-0.006 3.524-0.012 5.277-0.02 0.705-0.018 1.426-0.306 1.956-0.822 0.53-0.516 0.853-1.195 1.092-2.008a1.095 1.095 0 0 0 0.017-0.062l0.121-0.524a1.092 1.092 0 0 0 1.048 0.788h3.268a1.092 1.092 0 0 0 0.99-0.63l8.937-19.168c0.337-0.724-0.191-1.554-0.99-1.554h-3.267a1.092 1.092 0 0 0-0.99 0.631L17.124 4.621a1.092 1.092 0 0 0-0.271-0.034h-3.176l0.75-3.249c0.158-0.684-0.362-1.338-1.064-1.338z m20.311 0a1.092 1.092 0 0 0-0.99 0.631l-8.937 19.167c-0.337 0.724 0.191 1.554 0.99 1.554h3.267a1.092 1.092 0 0 0 0.99-0.63l8.937-19.168c0.337-0.724-0.191-1.554-0.99-1.554z m-20.311 1.092h6.465l-0.801 3.469H6.098z m13.077 0h3.267l-8.937 19.168H11.037l0.448-0.959h2.476a1.092 1.092 0 0 0 1.064-0.846l1.111-4.811c0.158-0.684-0.362-1.338-1.065-1.338h-0.325l0.338-0.724h0.659a1.092 1.092 0 0 0 1.064-0.847l1.11-4.81a1.092 1.092 0 0 0 0.011-0.442z m7.234 0h3.267l-8.937 19.168h-3.267zM5.839 5.679h3.405l-1.054 4.565c-0.158 0.684 0.362 1.338 1.064 1.338H10.941l-0.167 0.724H8.583a1.092 1.092 0 0 0-1.064 0.847l-1.111 4.81c-0.158 0.684 0.362 1.338 1.064 1.338h1.687l-0.355 1.541c-0.416 1.417-1.048 1.991-2.061 2.047l-5.22 0.019 0.074-3.096c0.634-0.025 0.918 0.004 1.104-0.542z m4.526 0h6.488l-1.11 4.811H9.255z m1.697 5.903h1.817l-0.338 0.724H11.895z m-3.479 1.816h6.488l-1.11 4.811H7.472Z"/></svg>