<svg fill="#FF1464" role="img" viewBox="0 0 23 24" xmlns="http://www.w3.org/2000/svg"><title>Eclipse Adoptium</title><path d="M11.479 14.013l-2.632 5.729 6.813 3.058c-1.55-2.754-2.82-5.852-4.18-8.787Zm11.033 4.645L15.776 4.064a3.952 3.952 0 0 1-0.387 1.471l-3.6 7.82 3.871 8.361a3.76 3.76 0 0 0 3.445 2.245 3.734 3.734 0 0 0 3.755-3.755c0-0.542-0.155-1.045-0.348-1.548zM15.234 3.755A3.734 3.734 0 0 0 11.481 0C10.009 0 8.769 0.852 8.149 2.052 5.618 7.582 3.043 13.127 0.487 18.658c-0.232 0.464-0.348 1.006-0.348 1.587A3.734 3.734 0 0 0 3.893 24a3.76 3.76 0 0 0 3.445-2.245l7.587-16.413c0.193-0.503 0.31-1.045 0.31-1.587z"/></svg>