<svg fill="#1B66B3" role="img" viewBox="0 0 20 24" xmlns="http://www.w3.org/2000/svg"><title>EDEKA</title><path d="M8.901 18.997h2.688v0.699h-1.857v0.297h1.857v0.699h-1.857v0.295h1.857v0.698h-2.688z m-6.476 0h2.686v0.699H3.253v0.297h1.858v0.699H3.253v0.295h1.858v0.698H2.425ZM15.996 19l-0.92 2.685h0.827l0.182-0.552h1.066l0.172 0.552h0.834L17.233 19Zm0.617 0.593l0.319 0.91h-0.635ZM12.076 19h0.827v1.024L13.839 19h1.089l-1.055 1.144 1.144 1.541h-1.053l-0.673-0.914-0.387 0.402v0.512h-0.828z m-6.459 0v2.685h1.59a1.344 1.344 0 0 0 0-2.685z m0.827 0.71h0.652a0.633 0.633 0 1 1 0 1.267h-0.65ZM2.432 2.318h15.136V6.32H7.104v1.563h10.463v4.004H7.104v1.56h10.463v4.004H2.432ZM0.116 0v24h19.768V0Zm0.176 0.177h19.413v23.647H0.291Zm2.136 18.821h2.686v0.698H3.256v0.297h1.858v0.699H3.256v0.294h1.858v0.699H2.428Zm6.476 0h2.688v0.698h-1.857v0.297h1.857v0.699h-1.857v0.294h1.857v0.699h-2.688zM15.998 19l-0.92 2.686h0.828l0.182-0.553h1.064l0.172 0.553h0.836l-0.924-2.686z m0.617 0.594l0.319 0.908h-0.635ZM12.078 19h0.828v1.024L13.842 19h1.089l-1.056 1.144 1.144 1.541H13.966l-0.672-0.914-0.388 0.402v0.512h-0.828zM5.621 19v2.686H7.209c0.74-0.002 1.338-0.608 1.336-1.348-0.003-0.735-0.599-1.335-1.336-1.338Zm0.826 0.711h0.651c0.349 0 0.635 0.281 0.634 0.631 0 0.349-0.285 0.635-0.634 0.635h-0.651ZM2.434 2.317h15.135v4.004H7.106v1.563h10.463v4.004H7.106v1.56h10.463v4.004H2.435Z"/></svg>