<svg fill="#3B47C2" role="img" viewBox="0 0 34 24" xmlns="http://www.w3.org/2000/svg"><title>Edge Impulse</title><path d="M22.65 9.585h6.358l1.901 4.977h-8.259c-1.38 0-2.498-1.114-2.498-2.49s1.118-2.49 2.498-2.49v0.003ZM1.037 12.069a2.495 2.495 0 0 1 2.5-2.49h12.119a2.495 2.495 0 0 1 2.499 2.49c0 1.376-1.118 2.49-2.499 2.49H3.537c-1.382 0-2.5-1.114-2.5-2.49ZM33.917 22.733H6.353a3.546 3.546 0 0 1-2.72 1.267A3.544 3.544 0 0 1 0.083 20.461a3.544 3.544 0 0 1 3.55-3.537c1.093 0 2.068 0.495 2.72 1.268h25.829L33.917 22.733ZM27.706 5.875H6.291a3.539 3.539 0 0 1-2.658 1.201A3.544 3.544 0 0 1 0.083 3.539a3.544 3.544 0 0 1 3.55-3.539c1.124 0 2.123 0.523 2.773 1.334h19.564l1.736 4.541Z"/></svg>