<svg fill="#FEFEFE" role="img" viewBox="0 0 25 24" xmlns="http://www.w3.org/2000/svg"><title>EditorConfig</title><path d="M10.767 0.001c-0.25-0.013-1.041 0.352-1.45 0.562-0.928 0.488-1.179 0.654-1.869 1.594-0.792 1.082-1.121 1.695-1.255 2.256-0.396 1.44-0.551 2.161-1.187 3.036-0.473 0.356-0.565 0.819-0.943 1.35-0.242 0.338-0.892 1.479-0.893 1.569-0.003 0.169-0.052 0.207-0.558 0.191-0.544-0.019-0.761 0.04-1.037 0.309-0.248 0.24-0.298 0.248-0.299 1.09 0 1.014 0.237 1.128 0.594 1.599C1.334 14.895 0.186 18.805 0.085 21.192c0 0.202 0.016 0.73 0.136 1.801 0.142 0.306 0.349 0.532 0.607 0.695 0.85 0.064 1.823 0.312 3.507 0.312 1.36 0 3.99-0.6 4.201-0.657 0.717-0.191 1.832-0.786 2.596-1.228 0.18-0.103 1.443-0.561 1.921-0.921 0.247-0.187 1.512-0.902 1.952-1.248 0.906-0.711 0.993-0.864 1.776-2.009 0.357-0.522 0.514-0.666 0.858-1.505l0.01-0.727c0.271 0.093 2.26 0.629 2.494 0.768 0.38 0.227 0.012 0.463-0.19 0.701-0.145 0.171 0.095 0.334 0.232 0.21 0.199-0.18 0.808-0.584 0.77-0.786 0-0.139-0.326-0.339-0.835-0.592-0.461-0.229-0.43-0.226-0.265-0.274 0.936-0.311 1.455-0.452 2.102-0.828 1.735-1.078 2.643-2.044 2.857-3.028 0.205-0.906 0.093-1.573-0.283-2.374-0.189-0.707-0.531-0.967-1.283-1.279-0.877-0.365-2.479-0.528-3.116-0.311-0.535 0.181-1.838 0.764-2.499 1.094-0.358 0.179-0.655 0.318-0.66 0.307-0.161-0.263-0.331-0.524-0.479-0.817-0.261-0.517-0.383-0.682-0.646-0.804-0.138-0.064-0.398-0.181-0.708-0.399-0.513-0.356-1.202-0.848-2.817-1.286 0.923-1.598 0.935-1.8 1.075-2.676 0.129-0.651 0.174-1.743 0.04-2.038-0.121-0.266-0.638-0.828-0.988-0.995-0.683-0.326-1.112-0.297-1.683-0.297z m0.024 0.583c0.178-0.001 0.382 0.023 0.643 0.073 0.455 0.088 0.753 0.207 1.212 0.486l0.31 0.188 0.068 0.543c0.071 0.584 0.048 1.02-0.076 1.395-0.041 0.128-0.139 0.439-0.214 0.69-0.15 0.501-0.515 1.05-0.658 1.279-0.031 0.052-0.129-0.023-0.172 0.083-0.19 0.482-0.414 0.504-0.786 0.537-0.117 0.01-0.92-0.048-1.746-0.072-0.996 0.029-1.383-0.228-2.605 0.267-0.262 0.099 0.546-1.459 0.632-1.614 0.217-0.393 1.373-1.717 1.655-1.823 0.238-0.089 0.472-0.353 0.679-0.55 0.341-0.326 0.432-0.36 0.791-0.43 0.335-0.065 1.103-0.3 1.479-0.038 0.233 0.184 0.394 0.556 0.358 0.849-0.071 0.586-0.154 0.819-0.514 1.356-0.853 1.269-0.834 1.294-0.723 1.358 0.109 0.062 0.088 0.097 0.069 0.167-0.058 0.213 0.007 0.169 0.167 0.114 0.326-0.114 0.83-1.03 1.158-2.071 0.199-0.632 0.197-0.347 0.165-1.158-0.018-0.481-0.03-0.429-0.188-0.688-0.235-0.383-0.466-0.507-1.262-0.507-0.859-0.002-1.183 0.034-1.734 0.532-0.624 0.563-1.12 0.797-2.017 2.126-0.442 0.477-0.952 1.671-1.188 2.51-0.03-0.005-0.044 0.021-0.016-0.378 0.044-0.608 0.191-1.022 0.817-2.302 0.444-0.904 0.6-1.172 0.787-1.345 0.634-0.59 1.717-1.259 2.421-1.495 0.158-0.054 0.31-0.081 0.488-0.083z m1.329 6.225c1.455 0.56 2.421 0.641 3.561 1.711 0.704 1.146 0.931 2.297 1.29 3.554 0.355 1.097 0.341 2.833 0.332 3.073-0.428-0.162-0.855-0.204-1.337-0.221-0.062-0.561-1.176-0.658-1.584-0.854-0.53-0.236-1.34-0.377-2.38-0.545-0.993-0.228-1.814-0.115-2.816-0.129-0.114 0.103-0.197 0.192-0.287 0.328-0.155-0.083-0.366-0.285-0.656-0.274-0.109 0-0.121-0.019-0.083-0.289 0.025-0.174 0.106-0.316 0.018-0.397-0.229-0.211-0.173-0.226-0.208-0.326-1.145-0.662-3.134-1.667-4.159-1.77 0.352-0.492 0.202-0.538 0.313-0.715 0.281-0.444 1.001-1.389 1.162-1.752 0-0.237 0.748-1.018 1.451-1.555 1.479-0.29 3.688-0.274 5.383 0.161z m8.814 1.557c1.661 0.042 2.241 0.244 2.79 0.804 0.542 0.569 0.722 0.907 0.722 1.356 0 0.366-0.288 1.389-0.478 1.703-0.724 1.192-2.343 2.487-3.724 2.98-0.327 0.115-0.495 0.138-1.134 0.153-0.417 0.036-0.941-0.044-1.342-0.134 0.228-2.65 0.027-2.824-0.205-3.902 0.093-0.228 0.522-0.497 0.437-0.632 0.803-0.507 1.371-1.076 2-1.27 0.422-0.155 0.51-0.167 1.389-0.193 0.83-0.024 0.977-0.014 1.267 0.078 0.618 0.197 1.309 0.772 1.308 1.089 0 0.2 0.046 0.25 0.142 0.25 0.228-0.002 0.156-0.337 0.038-0.579-0.391-0.728-1.001-0.987-1.586-1.118-0.148-0.031-0.621-0.102-1.048-0.122-0.611-0.028-0.869-0.005-1.182 0.062-0.497 0.106-0.929 0.247-1.347 0.616-0.321 0.285-0.887 0.611-1.35 0.833-0.11 0.016-0.18-0.176-0.265-0.276 1.089-0.835 2.1-1.574 3.568-1.697zM2.897 10.924c-0.315 0.505-0.533 0.871-0.542 1.268-0.124 0.311-0.235 0.616-0.393 0.939-0.386-0.389-0.263-1.217-0.096-1.57 0.369-0.714 0.381-0.526 1.031-0.637z m0.826 0.115c1.135 0.348 2.325 0.662 3.826 1.588 0.288 0.173 0.134 0.517 0.024 1.07a1.733 1.733 0 0 1-1.172 0.628c0.446-0.449 0.908-1.236 0.416-1.774-0.122-0.161-0.155-0.187-0.37-0.171-0.294 0.021-0.298-0.006-0.456 0.402-0.338 0.398-0.509 1.337-0.395 1.63-0.586-0.034-2.149-0.157-3.052-0.733 0.097-0.251 0.347-0.616 0.371-0.946 0.123-0.249 0.641-1.723 0.807-1.694z m2.793 1.768c0.173 0.292-0.199 1.174-0.431 1.284-0.171-0.623 0.173-1.21 0.43-1.284z m3.656 0.86c0.452 0 1.283 0.095 2.287 0.261 0.865 0.143 1.029 0.183 1.774 0.429 0.884 0.273 0.826 0.377 1.125 0.812 0.065 0.093 0.161 0.379 0.212 0.63 0.113 0.551-0.416 0.976-1.49 1.197-0.366 0.076-0.696 0.1-1.273 0.096-0.909-0.007-1.231-0.046-1.743-0.207-0.761-0.239-1.153-0.574-1.571-1.276-0.228-0.383-0.282-0.428-0.251-0.708 0.066-0.581 0.189-0.959 0.358-1.101 0.139-0.117 0.21-0.133 0.572-0.133z m-2.052 0.087c0.103-0.003 0.606 0.232 0.706 0.301-0.147 0.398-0.009 1.368 0.396 1.838 0.095 0.148 0.329 0.481 0.554 0.703 0.708 0.707 1.169 0.822 2.748 0.824 1.322 0.002 1.707-0.07 2.364-0.281 0.609-0.195 0.795-0.443 0.866-0.616 0.176-0.416 0.261-0.845 0.218-1.29l1.332 0.379c-0.11 0.896-0.607 1.423-0.977 1.884-0.275 0.443-0.844 1.273-1.005 1.411-0.773 0.665-1.486 1.133-3.029 2.003-0.454 0.257-1.674 0.73-1.99 0.888-0.323 0.161-1.466 0.838-1.624 0.885a9.818 9.818 0 0 1-1.607 0.326c-0.414 0.049-1.883 0.271-2.82 0.309-0.683 0.014-0.869-0.056-1.714-0.031-0.453-0.087-1.444-0.311-1.444-0.311-0.295-0.473-0.371-0.835-0.454-1.382 0.687 0.805 1.1 1.077 1.65 1.077 0.496 0 0.75-0.186 0.952-0.187 0.127 0 0.47-0.241 0.452-0.398a1.066 1.066 0 0 0-0.262-0.626c-0.238-0.152-1.655-0.715-1.895-0.715-0.662 0-0.808 0.052-0.88 0.186 0.409-2.216 0.94-4.776 1.728-6.849 1.215 0.532 3.204 0.918 4.183 0.588 1.502-0.528 1.159-0.709 1.552-0.916z m3.949 0.156c-0.174 0-0.606 0.474-0.77 0.843-0.164 0.371-0.209 0.943-0.086 1.091 0.101 0.122 0.52 0.124 0.731-0.004 0.412-0.251 0.806-1.134 0.706-1.591-0.036-0.166-0.341-0.339-0.581-0.339z m0.027 0.403c0.153 0.184-0.041 0.682-0.221 0.88-0.211 0.223-0.42 0.256-0.36 0.06 0.145-0.365 0.472-0.946 0.581-0.94zM2.858 21.789c0.161 0.051 0.365 0.279 0.326 0.341-0.66 0.037-1.033-0.008-1.088-0.012-0.225-0.018-0.949-0.331-0.928-0.68 0.028-0.409 1.366 0.321 1.69 0.351z"/></svg>