<svg fill="#0066CC" role="img" viewBox="0 0 24 24" xmlns="http://www.w3.org/2000/svg"><title>E.Leclerc</title><path d="M12.001 0C5.43 0 0.104 5.373 0.104 12.001 0.104 18.628 5.43 24 12.001 24c6.57 0 11.895-5.372 11.895-11.999C23.896 5.373 18.571 0 12.001 0z m0 2.491c5.206 0 9.427 4.258 9.426 9.51 0 5.252-4.22 9.508-9.426 9.508-5.207 0-9.428-4.257-9.428-9.508 0-5.252 4.221-9.51 9.428-9.51z m1.147 1.991c-1.442 0-2.773 0.47-3.856 1.266h3.193V8.982c-0.556 0.028-1.016 0.478-1.016 1.044v5.45h0.945c1.206 0 1.509-1.453 1.509-1.454h2.836l0.001 2.594c1.774-1.183 2.944-3.215 2.944-5.521 0-3.652-2.935-6.613-6.556-6.613zM6.49 6.732v1.621c0.546 0.142 1.018 0.611 1.018 1.381v5.459c0 0.616-0.436 1.169-1.018 1.315v2.095h9.3V15.004l-1.234 0.007c-0.348 0.847-1.177 1.442-2.142 1.442h-1.913V9.691c0-0.698 0.454-1.182 1.015-1.335V6.732z"/></svg>