<svg fill="#02262B" role="img" viewBox="0 0 43 24" xmlns="http://www.w3.org/2000/svg"><title>edX</title><path d="M11.463 9.181c0.094 0.288 0.141 0.594 0.14 0.919a5.612 5.612 0 0 1-0.019 0.411h-5.338c0.116-0.42 0.27-0.802 0.466-1.146 0.194-0.343 0.425-0.639 0.694-0.885 0.267-0.246 0.566-0.438 0.895-0.571 0.327-0.133 0.681-0.201 1.058-0.201 0.372 0 0.698 0.064 0.977 0.192 0.278 0.126 0.512 0.301 0.701 0.52 0.19 0.219 0.331 0.473 0.426 0.761z m9.686-0.711a2.146 2.146 0 0 0-0.775-0.543 2.633 2.633 0 0 0-1.032-0.192c-0.505 0-0.973 0.112-1.406 0.338a3.473 3.473 0 0 0-1.123 0.939 4.644 4.644 0 0 0-0.749 1.438 5.881 5.881 0 0 0-0.274 1.831c0 0.415 0.059 0.794 0.178 1.141s0.285 0.644 0.498 0.889c0.214 0.246 0.468 0.438 0.767 0.575 0.299 0.137 0.63 0.206 0.997 0.207 0.511 0 0.984-0.119 1.419-0.362 0.434-0.24 0.815-0.569 1.137-0.985a4.822 4.822 0 0 0 0.758-1.47c0.181-0.562 0.274-1.171 0.275-1.822 0-0.42-0.059-0.797-0.175-1.132a2.5 2.5 0 0 0-0.495-0.852zM42.852 3.936l-4.267 20.064H19.235l1.112-5.075H0.148L4.11 0h24.159l-0.822 3.936H42.852zM13.247 10.301a4.466 4.466 0 0 0-0.3-1.698 3.681 3.681 0 0 0-0.814-1.245 3.472 3.472 0 0 0-1.19-0.773 3.95 3.95 0 0 0-1.439-0.263 4.858 4.858 0 0 0-2.068 0.438 4.676 4.676 0 0 0-1.621 1.236c-0.45 0.534-0.802 1.173-1.055 1.917a7.733 7.733 0 0 0-0.377 2.478c0 0.664 0.105 1.251 0.315 1.762a3.577 3.577 0 0 0 2.131 2.085c0.486 0.18 1.004 0.269 1.552 0.269 0.571 0 1.096-0.069 1.575-0.205a4.537 4.537 0 0 0 1.259-0.565c0.363-0.24 0.662-0.525 0.899-0.854a3.274 3.274 0 0 0 0.511-1.059h-1.669a2.276 2.276 0 0 1-0.904 0.913c-0.395 0.224-0.92 0.338-1.572 0.338-0.299 0-0.593-0.05-0.884-0.152a2.139 2.139 0 0 1-0.79-0.487 2.509 2.509 0 0 1-0.571-0.872 3.404 3.404 0 0 1-0.219-1.292c0-0.085 0.002-0.167 0.005-0.245 0.004-0.078 0.007-0.16 0.015-0.246h7.092c0.018-0.091 0.034-0.203 0.046-0.333l0.036-0.402a10.948 10.948 0 0 0 0.037-0.745z m8.961 6.035L25.13 2.587h-1.598l-1.213 5.724h-0.146a2.502 2.502 0 0 0-0.406-0.807 2.776 2.776 0 0 0-0.667-0.63 3.178 3.178 0 0 0-0.867-0.406 3.434 3.434 0 0 0-1.009-0.146 4.459 4.459 0 0 0-2.58 0.811 5.146 5.146 0 0 0-1.023 0.951c-0.308 0.37-0.569 0.786-0.79 1.245a6.984 6.984 0 0 0-0.507 1.497c-0.117 0.539-0.178 1.103-0.178 1.694 0 0.609 0.094 1.16 0.283 1.653 0.189 0.493 0.445 0.913 0.772 1.259 0.326 0.347 0.703 0.614 1.137 0.799 0.432 0.187 0.895 0.279 1.388 0.28 0.626 0 1.212-0.135 1.753-0.406 0.541-0.27 0.991-0.641 1.35-1.109h0.146l-0.283 1.342h1.516z m10.883-2.473l6.366-7.34H35.895l-3.886 4.812h-0.192l-2.055-4.812h-3.604l3.089 6.989-6.669 7.901h3.516l4.281-5.075h0.289l2.313 5.075h3.537l-3.423-7.55z"/></svg>