<svg fill="#00968F" role="img" viewBox="0 0 100 24" xmlns="http://www.w3.org/2000/svg"><title>Egnyte</title><path d="M69.673 8.741l-1.855-3.236a0.257 0.257 0 0 0-0.34-0.091l-8.355 4.821-8.239-4.842a0.257 0.257 0 0 0-0.341 0.087l-1.9 3.236a0.257 0.257 0 0 0 0.087 0.345l8.335 4.887v9.803c0 0.137 0.112 0.249 0.249 0.249h3.692a0.249 0.249 0 0 0 0.249-0.249v-9.849l8.327-4.821c0.116-0.066 0.162-0.228 0.091-0.34z m-16.026 6.568c-0.071-0.116-0.228-0.158-0.365-0.092l-5.568 3.307c-0.112 0.066-0.158 0.224-0.091 0.361l0.792 1.356c0.066 0.116 0.228 0.162 0.361 0.092l5.572-3.307c0.112-0.066 0.158-0.224 0.091-0.361z m6.36-15.309l-1.834 0.025c-0.066 0-0.112 0.046-0.112 0.137l0.021 6.721c0 0.071 0.046 0.116 0.136 0.116h1.834c0.066 0 0.112-0.041 0.112-0.137l-0.021-6.721a0.145 0.145 0 0 0-0.136-0.137z m10.595 18.159l-5.862-3.282c-0.071-0.021-0.137-0.021-0.162 0.046l-0.904 1.605c-0.021 0.071-0.021 0.137 0.046 0.162l5.862 3.278c0.071 0.025 0.137 0.025 0.161-0.042l0.905-1.61c0.041-0.041 0.021-0.133-0.046-0.157z m-58.318 0.498h-7.882v-2.423h6.999a0.311 0.311 0 0 0 0.315-0.316v-2.696a0.311 0.311 0 0 0-0.315-0.316H4.406v-2.306h7.758a0.311 0.311 0 0 0 0.32-0.32v-2.966a0.311 0.311 0 0 0-0.32-0.315H0.531A0.311 0.311 0 0 0 0.216 7.314v14.628c0 0.178 0.137 0.315 0.315 0.316H12.289a0.311 0.311 0 0 0 0.315-0.316v-2.966a0.324 0.324 0 0 0-0.315-0.319z m16.458-5.319H22.038v3.103h3.008v1.834c0 0.021 0 0.041-0.021 0.041-0.635 0.411-1.402 0.614-2.423 0.614-2.423 0-4.145-1.767-4.144-4.231v-0.05c0-2.332 1.701-4.19 3.895-4.19 1.402 0 2.423 0.456 3.444 1.249 0.133 0.112 0.336 0.091 0.427-0.042l2.083-2.518a0.324 0.324 0 0 0-0.042-0.452c-1.564-1.265-3.402-2.012-5.957-2.013-4.729 0-8.214 3.485-8.215 7.945v0.042c0 4.622 3.551 7.903 8.306 7.903a10.33 10.33 0 0 0 6.522-2.261 0.365 0.365 0 0 0 0.112-0.249v-6.41c0.021-0.178-0.112-0.315-0.295-0.315z m16.777-6.36h-3.555a0.311 0.311 0 0 0-0.319 0.315v7.742l-6.182-7.945a0.365 0.365 0 0 0-0.249-0.112h-3.46a0.311 0.311 0 0 0-0.319 0.315v14.624c0 0.183 0.137 0.319 0.319 0.32h3.551a0.311 0.311 0 0 0 0.32-0.32v-8.06l6.43 8.264a0.365 0.365 0 0 0 0.249 0.116h3.236a0.311 0.311 0 0 0 0.315-0.32v-14.624c-0.021-0.158-0.178-0.315-0.336-0.315z m39.707 0H72.486a0.311 0.311 0 0 0-0.32 0.315v3.079c0 0.183 0.137 0.315 0.32 0.315h4.256v11.255c0 0.178 0.133 0.315 0.316 0.316h3.601a0.311 0.311 0 0 0 0.315-0.316v-11.209c0-0.021 0.025-0.041 0.045-0.042h4.211a0.311 0.311 0 0 0 0.32-0.319v-3.079a0.324 0.324 0 0 0-0.32-0.315z m14.243 11.679h-7.883v-2.423h7.02a0.311 0.311 0 0 0 0.319-0.316v-2.696a0.311 0.311 0 0 0-0.319-0.316h-7.016v-2.306h7.762a0.311 0.311 0 0 0 0.32-0.32v-2.966a0.311 0.311 0 0 0-0.32-0.315h-11.637a0.311 0.311 0 0 0-0.315 0.315v14.628c0 0.178 0.137 0.315 0.315 0.316h11.754a0.311 0.311 0 0 0 0.315-0.316v-2.966a0.311 0.311 0 0 0-0.315-0.319Z"/></svg>