<svg fill="#262729" role="img" viewBox="0 0 16 24" xmlns="http://www.w3.org/2000/svg"><title>Eight Sleep</title><path d="M15.847 7.28V4.105A4.104 4.104 0 0 0 11.745 0H4.258a4.104 4.104 0 0 0-4.105 4.102v3.183a4.092 4.092 0 0 0 2.415 3.738v0.588a4.102 4.102 0 0 0-2.415 3.738v4.546A4.104 4.104 0 0 0 4.255 24h7.488a4.104 4.104 0 0 0 4.104-4.104v-4.553a4.102 4.102 0 0 0-2.415-3.738v-0.587a4.102 4.102 0 0 0 2.415-3.738zM4.451 5.126c0-0.818 0.662-1.482 1.48-1.483h4.133c0.819 0 1.483 0.663 1.483 1.482v1.991c0 0.819-0.664 1.482-1.483 1.482H5.93a1.482 1.482 0 0 1-1.482-1.482l0.003-1.99z m7.1 13.732c0 0.818-0.664 1.482-1.483 1.482H5.93a1.482 1.482 0 0 1-1.482-1.482v-2.752c0-0.819 0.664-1.483 1.482-1.483h4.134c0.819 0 1.483 0.664 1.483 1.483l0.003 2.752z"/></svg>