<svg fill="#005571" role="img" viewBox="0 0 22 24" xmlns="http://www.w3.org/2000/svg"><title>Elasticsearch</title><path d="M12.393 0C7.682 0 3.608 2.716 1.643 6.667h15.641a4.77 4.77 0 0 0 3.073-1.11c0.446-0.375 0.864-0.785 1.247-1.243l0.001-0.002A11.974 11.974 0 0 0 12.393 0zM0.803 8.889a12.009 12.009 0 0 0 0 6.222h14.7a3.111 3.111 0 1 0 0-6.222z m0.84 8.444C3.609 21.283 7.683 24 12.394 24c3.701 0 7.011-1.677 9.212-4.312l-0.001-0.002a9.958 9.958 0 0 0-1.247-1.243 4.77 4.77 0 0 0-3.073-1.11z"/></svg>