<svg fill="#0C2074" role="img" viewBox="0 0 40 24" xmlns="http://www.w3.org/2000/svg"><title>Elavon</title><path d="M20.047 12.413c-0.633 1.499-1.253 3.11-1.871 4.844a104.928 104.928 0 0 0-1.692 5.214h0.591a81.385 81.385 0 0 1 2.932-7.979c0.37-0.855 0.743-1.652 1.114-2.437-0.358 0.11-0.716 0.22-1.074 0.358z m12.193-9.523c-0.648-1.912-1.597-2.89-2.822-2.89h-0.013c-2.244 0-5.037 3.303-7.817 9 0.483-0.178 0.964-0.343 1.432-0.51 1.939-3.26 3.783-5.187 5.119-5.187h0.123c0.743 0.068 1.294 0.783 1.611 2.132 0.825 3.468-0.083 10.266-2.106 17.436 1.554 0.097 2.917 0.483 4.06 1.129 1.554-8.932 1.829-16.941 0.413-21.11zM30.161 9.371c0-0.715 1.416 0.22-0.055-2.448-7.293 0.618-17.532 5.297-27.013 12.934-1.073 0.866-2.104 1.734-3.082 2.616h0.605c0.18-0.138 0.345-0.29 0.523-0.442 9.978-8.022 20.877-12.686 28.279-12.686 0.248 0 0.495 0.013 0.743 0.026z m3.756-2.327c0.12 1.048 0.183 2.099 0.194 3.154a6.68 6.68 0 0 1 2.215 1.487c1.349 1.376 1.956 3.258 1.819 5.612-0.097 1.596-0.54 3.345-1.283 5.189h0.4c1.611-2.932 2.559-5.684 2.71-8.079 0.125-2.257-0.466-4.058-1.747-5.364-1.044-1.074-2.532-1.709-4.308-1.999Z"/></svg>