<svg fill="#47848F" role="img" viewBox="0 0 23 24" xmlns="http://www.w3.org/2000/svg"><title>Electron</title><path d="M11.511 0c-0.85 0-1.539 0.689-1.539 1.539 0 0.85 0.689 1.539 1.539 1.54 0.595 0 1.11-0.338 1.366-0.832 2.221 1.268 3.847 5.473 3.847 10.362 0 2.071-0.289 4.056-0.825 5.768a0.322 0.322 0 0 0 0.211 0.403 0.322 0.322 0 0 0 0.403-0.211c0.556-1.776 0.854-3.825 0.855-5.96 0-5.193-1.772-9.686-4.321-11.003 0.001-0.022 0.004-0.044 0.003-0.067 0-0.85-0.689-1.539-1.539-1.539z m0 0.643a0.896 0.896 0 1 1 0 1.792 0.896 0.896 0 1 1 0-1.792z m-5.486 4.305c-2.067 0.007-3.647 0.665-4.388 1.949-0.738 1.277-0.527 2.971 0.511 4.781a0.322 0.322 0 0 0 0.558-0.32C1.771 9.727 1.589 8.266 2.194 7.219c0.821-1.422 3.033-1.955 5.932-1.428a0.322 0.322 0 0 0 0.115-0.632c-0.784-0.143-1.527-0.212-2.216-0.21z m11.052 0.018a0.322 0.322 0 0 0-0.008 0.643c1.834 0.024 3.156 0.596 3.75 1.626 0.819 1.419 0.18 3.595-1.718 5.837a0.322 0.322 0 0 0 0.038 0.453 0.322 0.322 0 0 0 0.453-0.037c2.054-2.426 2.771-4.866 1.784-6.575-0.726-1.257-2.26-1.921-4.299-1.947z m-2.698 0.292a0.323 0.323 0 0 0-0.065 0.008c-1.857 0.398-3.833 1.175-5.731 2.271-4.57 2.638-7.592 6.495-7.36 9.372-0.473 0.263-0.793 0.766-0.793 1.345 0 0.85 0.689 1.539 1.539 1.539 0.85 0 1.539-0.689 1.539-1.539 0-0.85-0.689-1.539-1.539-1.539-0.038 0-0.075 0.003-0.113 0.006-0.1-2.56 2.743-6.141 7.048-8.627 1.841-1.063 3.755-1.816 5.545-2.2a0.322 0.322 0 0 0-0.07-0.636z m-2.879 6.237a1.119 1.119 0 0 0-0.224 0.025c-0.601 0.13-0.983 0.723-0.853 1.324 0.13 0.601 0.723 0.983 1.323 0.853 0.601-0.13 0.983-0.723 0.854-1.323-0.114-0.526-0.582-0.884-1.1-0.879zM4.032 13.341a0.321 0.321 0 0 0-0.232 0.084 0.321 0.321 0 0 0-0.021 0.454c1.268 1.394 2.916 2.701 4.794 3.785 4.415 2.549 9.106 3.285 11.561 1.84a1.53 1.53 0 0 0 0.897 0.29c0.85 0 1.539-0.689 1.539-1.54 0-0.85-0.689-1.539-1.539-1.539-0.85 0-1.539 0.689-1.539 1.539 0 0.276 0.074 0.534 0.201 0.759-2.245 1.214-6.631 0.5-10.798-1.906-1.823-1.052-3.418-2.318-4.64-3.661a0.321 0.321 0 0 0-0.223-0.105z m-2.063 4.017a0.896 0.896 0 1 1 0 1.792 0.896 0.896 0 1 1 0-1.792z m19.062 0a0.896 0.896 0 1 1 0 1.792 0.891 0.891 0 0 1-0.587-0.219c-0.003-0.004-0.004-0.008-0.006-0.012a0.32 0.32 0 0 0-0.096-0.092 0.896 0.896 0 0 1 0.689-1.469z m-14.005 1.368a0.322 0.322 0 0 0-0.32 0.43C7.779 22.154 9.536 24 11.511 24c1.441 0 2.773-0.982 3.813-2.711a0.322 0.322 0 0 0-0.11-0.441 0.322 0.322 0 0 0-0.442 0.11c-0.934 1.554-2.081 2.399-3.261 2.399-1.641 0-3.208-1.647-4.2-4.418a0.322 0.322 0 0 0-0.285-0.213z"/></svg>