<svg fill="#E79537" role="img" viewBox="0 0 18 24" xmlns="http://www.w3.org/2000/svg"><title>Electron Fiddle</title><path d="M5 0c-0.631 0-1.143 0.512-1.143 1.143v13.858c-1.972 0.507-3.429 2.297-3.428 4.428C0.429 21.953 2.475 24 5 24c2.525 0 4.571-2.047 4.571-4.571 0-2.13-1.457-3.92-3.428-4.428v-4.715h4.734c0.541 0 0.98-0.512 0.98-1.143 0-0.631-0.439-1.143-0.98-1.143H6.143V2.286h10.286c0.631 0 1.143-0.512 1.142-1.143C17.571 0.512 17.06 0 16.429 0Zm0 17.143c1.262 0 2.286 1.023 2.286 2.286 0 1.262-1.023 2.286-2.286 2.285-1.262 0-2.286-1.023-2.286-2.285 0-1.262 1.023-2.286 2.286-2.286z"/></svg>