<svg fill="#2C3A83" role="img" viewBox="0 0 44 24" xmlns="http://www.w3.org/2000/svg"><title>Elegoo</title><path d="M23.257 3.716c0.989 1.519 1.891 3.051 2.705 4.59 1.173-2.23 3.388-3.822 6.098-3.822 4.062 0 7.011 3.58 7.01 7.516 0 3.938-2.948 7.516-7.01 7.516-1.202 0-2.309-0.313-3.269-0.855l-0.002-0.002c-1.164-0.66-2.113-1.658-2.765-2.846-0.887-1.473-1.328-3.126-1.816-4.868-1.096-3.91-2.294-6.913-5.853-9.14-1.834-1.147-4.024-1.805-6.415-1.805C5.17 0 0.012 5.262 0.012 12c0 6.829 5.059 12 11.928 12 3.582 0 6.668-1.404 8.805-3.714-0.995-1.521-1.895-3.049-2.707-4.59-1.175 2.23-3.388 3.82-6.098 3.82-4.064 0-7.012-3.579-7.012-7.516 0-3.936 2.948-7.516 7.012-7.516 1.2 0 2.309 0.313 3.268 0.859h0.001c1.164 0.66 2.115 1.656 2.765 2.846 1.052 1.743 1.479 3.74 2.097 5.841 1.017 3.463 2.355 6.118 5.5 8.121 1.847 1.176 4.062 1.849 6.489 1.849 6.769 0 11.929-5.262 11.928-12 0-6.829-5.057-12-11.928-12-3.58 0-6.67 1.404-8.803 3.716Z"/></svg>