<svg fill="#101010" role="img" viewBox="0 0 24 24" xmlns="http://www.w3.org/2000/svg"><title>Elgato</title><path d="M13.882 8.396l0.026 0.02 9.949 5.717c-0.488 2.729-1.92 5.222-4.038 7.025A11.926 11.926 0 0 1 12.097 24c-3.192 0-6.194-1.248-8.453-3.514C1.387 18.219 0.143 15.204 0.143 12c0-3.204 1.244-6.219 3.501-8.485C5.902 1.248 8.903 0 12.097 0c2.439 0 4.785 0.733 6.783 2.119 1.953 1.354 3.447 3.236 4.323 5.442 0.111 0.283 0.215 0.574 0.305 0.866l-2.126 1.235a9.492 9.492 0 0 0-0.262-0.869c-1.354-3.83-4.981-6.405-9.023-6.405C6.817 2.388 2.522 6.7 2.522 12c0 5.3 4.295 9.611 9.575 9.611 2.052 0 4.008-0.644 5.659-1.864 1.617-1.196 2.804-2.834 3.431-4.737l0.007-0.042L9.591 8.305v7.225l4-2.313 2.06 1.181-5.996 3.469-2.12-1.213V7.194l2.117-1.224 4.231 2.428-0.001-0.002"/></svg>