<svg fill="#BE312E" role="img" viewBox="0 0 30 24" xmlns="http://www.w3.org/2000/svg"><title>El Jueves</title><path d="M18.955 15.23a2.308 1.384 90 0 1-1.384 2.308 2.308 1.384 90 0 1-1.385-2.308 2.308 1.384 90 0 1 1.385-2.308 2.308 1.384 90 0 1 1.384 2.308z m-4.615 0a2.308 1.384 90 0 1-1.384 2.308 2.308 1.384 90 0 1-1.385-2.308 2.308 1.384 90 0 1 1.385-2.308 2.308 1.384 90 0 1 1.384 2.308zM19.068 0a2.225 2.149 90 0 0-2.145 2.149c-3.078 0.589-4.904 2.627-5.489 6.098a9.21 8.265 0 0 0-0.623 0.286C9.465 7.294 8.196 6.698 7.002 6.754c-1.093 0.051-2.123 0.649-3.089 1.786a2.225 2.149 90 0 0-1.27-0.433A2.225 2.149 90 0 0 0.494 10.332a2.225 2.149 90 0 0 2.149 2.225A2.225 2.149 90 0 0 4.792 10.332a2.225 2.149 90 0 0-0.249-1.036c1.274-0.569 2.483-0.156 3.625 1.227a9.21 8.265 0 0 0-2.071 5.212 9.21 8.265 0 0 0 9.21 8.265 9.21 8.265 0 0 0 9.209-8.265 9.21 8.265 0 0 0-2.499-5.653c0.652-1.814 1.731-2.621 3.235-2.424a2.225 2.149 90 0 0-0.044 0.449 2.225 2.149 90 0 0 2.149 2.225A2.225 2.149 90 0 0 29.506 8.107a2.225 2.149 90 0 0-2.149-2.227 2.225 2.149 90 0 0-1.626 0.772c-1.056-0.51-2.046-0.777-2.963-0.773-1.537 0.007-2.879 0.74-4.025 2.193a9.21 8.265 0 0 0-3.079-0.586c-0.081-2.046 0.403-3.493 1.45-4.339a2.225 2.149 90 0 0 1.954 1.303 2.225 2.149 90 0 0 2.149-2.225 2.225 2.149 90 0 0-2.149-2.225z m-3.761 10.401c4.37 0 7.912 2.687 7.912 6.001 0 3.314-3.542 5.999-7.912 5.999-4.37 0-7.913-2.685-7.913-5.999 0-3.314 3.544-6.001 7.913-6.001z"/></svg>