<svg fill="#FF6C00" role="img" viewBox="0 0 27 24" xmlns="http://www.w3.org/2000/svg"><title>Elsevier</title><path d="M7.526 11.242c0.288-0.154 0.455-0.341 0.483-0.559 0.047-0.196-0.13-0.177-0.172-0.139-0.163 0.13-0.371 0.331-0.572 0.465a2.094 2.094 0 0 0-0.279 0.037c-0.022-0.01-0.052-0.047-0.037-0.06 0.181-0.117 0.382-0.233 0.512-0.387 0.083-0.097 0.046-0.186-0.116-0.205-0.182-0.027-0.396 0.047-0.564 0.196-0.284 0.242-0.419 0.777-0.446 1.117-0.061 0.056-0.079 0.056-0.14 0.084a1.415 1.415 0 0 1 0.149-1.102c0.028-0.071 0.009-0.182-0.093-0.215-0.061-0.022-0.089-0.01-0.116 0.056-0.139 0.399-0.382 0.571-0.722 0.823-0.033 0.028-0.34 0.196-0.418 0.242-0.27-0.083-0.573-0.586-0.829-0.963a0.233 0.233 0 0 0-0.223-0.097c-0.559 0.06-0.973 0.018-1.27-0.42-0.135-0.181-0.196-0.214-0.363-0.056-0.186 0.196-0.371 0.345-0.558 0.503-0.098 0.061-0.169 0.043-0.209-0.083A3.522 3.522 0 0 1 1.356 9.306c0-0.168 0.019-0.418 0.023-0.581a1.433 1.433 0 0 0-0.354-0.238C0.555 8.263 0.011 7.743 0.007 7.589c0-0.037 0.028-0.13 0.157-0.205 0.685-0.302 1.214-0.046 1.42-0.079 0.172-0.015 0.228-0.139 0.2-0.386a1.349 1.349 0 0 1 0.438-1.209c0.233-0.247 0.214-0.522 0.157-0.824-0.027-0.139-0.06-0.177-0.2-0.163-0.371 0.084-0.353 0.093-0.423 0.419a1.66 1.66 0 0 1-0.232 0.596c-0.148 0.236-0.349 0.436-0.527 0.647-0.06 0.083-0.129 0.083-0.218 0.027A1.219 1.219 0 0 1 0.299 4.871c0.06-0.162 0.148-0.334 0.246-0.423l0.046 0.019c0 0.028 0 0.065-0.009 0.093l-0.112 0.345C0.333 5.31 0.355 5.691 0.625 6.035c0.089 0.112 0.169 0.144 0.214 0.093 0.173-0.172 0.35-0.335 0.498-0.522 0.187-0.209 0.237-0.464 0.187-0.73a4.634 4.634 0 0 0-0.052-0.302c-0.027-0.144-0.088-0.135-0.158-0.047-0.169 0.169-0.247 0.304-0.326 0.615A0.242 0.242 0 0 1 0.91 5.253a0.326 0.326 0 0 1-0.037-0.163c0.046-0.279 0.111-0.525 0.287-0.707 0.117-0.126 0.089-0.196-0.022-0.228-0.4-0.111-0.746-0.223-1.048-0.596A0.335 0.335 0 0 1 0.007 3.356c0-0.079 0.042-0.139 0.13-0.204 0.353-0.243 0.707-0.494 1.057-0.568 0.138-0.028 0.214-0.037 0.284-0.047-0.159-0.493-0.326-1.084-0.42-1.633 0-0.112 0.079-0.418 0.122-0.507a0.63 0.63 0 0 1 0.311 0.042c0.163 0.056 0.311 0.157 0.461 0.251 0.144 0.083 0.186 0.083 0.279-0.047 0.163-0.236 0.349-0.446 0.596-0.572 0.083-0.042 0.139-0.07 0.194-0.07 0.079 0 0.141 0.047 0.22 0.169 0.135 0.218 0.251 0.469 0.371 0.697 0.141 0.237 0.289 0.251 0.503 0.098 0.236-0.157 0.451-0.311 0.671-0.494 0.205-0.157 0.26-0.157 0.483-0.004 0.2 0.139 0.418 0.396 0.526 0.618 0.022 0.043 0.488-0.209 0.502-0.32 0.019-0.2 0.075-0.344 0.149-0.508 0.098-0.2 0.236-0.256 0.364-0.256 0.116 0 0.335 0.13 0.497 0.233l0.354 0.205c0.186 0.102 0.196 0.102 0.307-0.07 0.126-0.196 0.233-0.233 0.493-0.233 0.512 0 0.977 0.13 1.331 0.554 0.065 0.083 0.126 0.092 0.204 0.014 0.144-0.148 0.279-0.205 0.549-0.205h0.474c0.108 0 0.178 0.009 0.276-0.13 0.129-0.186 0.279-0.368 0.488-0.368 0.335 0 0.772 0.47 0.996 0.875l-0.117 0.061a2.383 2.383 0 0 0-0.875-0.549c-0.205-0.084-0.292 0-0.265 0.209 0.028 0.247 0.093 0.498 0.154 0.744a0.9 0.9 0 0 0 0.494 0.527l0.013 0.083c-0.037-0.009-0.084-0.022-0.139-0.028a1.019 1.019 0 0 0-0.439 0.014c-0.278 0.07-0.534 0.191-0.785 0.297-0.126 0.061-0.126 0.093-0.019 0.196 0.139 0.13 0.27 0.28 0.428 0.396 0.452 0.34 0.9 0.27 1.396 0.078l0.233-0.078c0.209-0.037 0.433 0.046 0.605 0.204l0.503 0.451c0.157 0.154 0.196 0.289 0.093 0.48-0.163 0.32-0.345 0.647-0.526 0.958a0.311 0.311 0 0 1-0.116 0.122c-0.061-0.047-0.117-0.163-0.056-0.266 0.223-0.279 0.363-0.67 0.409-0.935 0.046-0.261-0.093-0.382-0.34-0.316l-0.209 0.079c-0.089 0.033-0.121 0-0.139-0.094-0.034-0.079-0.075-0.13-0.103-0.213-0.056-0.139-0.141-0.187-0.256-0.094a1.365 1.365 0 0 0-0.483 0.466 1.763 1.763 0 0 0-0.196 1.084c0.004 0.046 0.042 0.079 0.07 0.107a0.2 0.2 0 0 0 0.093-0.093c0.065-0.163 0.107-0.326 0.135-0.502 0.013-0.098 0.027-0.275 0.059-0.363 0.024-0.047 0.098-0.028 0.141-0.015 0.107 0.043 0.148 0.093 0.162 0.169-0.209 0.264-0.34 0.66-0.479 1.013-0.022 0.047-0.112 0.108-0.168 0.108-0.065-0.004-0.153-0.061-0.172-0.117-0.083-0.223-0.233-0.442-0.292-0.666-0.154-0.758-0.2-0.799-0.233-0.847A4.662 4.662 0 0 0 10.234 2.262c-0.037-0.037-0.056-0.079-0.084-0.111 0.042-0.019 0.074-0.056 0.116-0.07 0.144-0.061 0.292-0.117 0.442-0.167a0.693 0.693 0 0 0 0.4-0.359c0.052-0.098 0.121-0.195 0.177-0.292 0.079-0.139 0.07-0.214-0.033-0.335a0.721 0.721 0 0 0-0.734-0.229c-0.284 0.07-0.461 0.274-0.55 0.545a0.824 0.824 0 0 0-0.046 0.303c0 0.153 0.046 0.186 0.172 0.106 0.209-0.172 0.442-0.311 0.666-0.461a1.229 1.229 0 0 1-0.457 0.559c-0.139 0.089-0.279 0.163-0.418 0.242-0.117 0.084-0.157 0.047-0.196-0.093-0.033-0.15-0.019-0.304-0.019-0.452a0.986 0.986 0 0 0-0.66-0.99l-0.368-0.154a0.353 0.353 0 0 0-0.139 0.321c0.028 0.405 0.088 0.697 0.157 1.043 0.065 0.139 0.219 0.195 0.378 0.222 0.092-0.046 0.168-0.177 0.042-0.381l-0.181-0.359c-0.019-0.046-0.043-0.088-0.056-0.139-0.004-0.018-0.013-0.051 0-0.074 0.022 0.009 0.046 0.009 0.093 0.056 0.233 0.251 0.418 0.535 0.54 0.888 0.046 0.139 0.004 0.196-0.131 0.209-0.307 0.028-0.618 0.047-0.916 0.113-0.489 0.101-0.652 0.279-0.829 0.604-0.074 0.141-0.112 0.228-0.116 0.312 0.172 0.013 0.368 0.004 0.647-0.047a1.852 1.852 0 0 0 0.67-0.218c0.13-0.154 0.233-0.307 0.427-0.447 0.056-0.043 0.187-0.056 0.238-0.028A2.559 2.559 0 0 1 10.745 3.634c0.019 0.056 0.075 0.112 0.102 0.158 0.056 0.066 0.034 0.09-0.046 0.084-0.112-0.033-0.233-0.061-0.335-0.101-0.042-0.019-0.074-0.084-0.093-0.132l-0.101-0.288c-0.056-0.117-0.084-0.117-0.202-0.074-0.06 0.022-0.125 0.045-0.222 0.092-0.084 0.034-0.126 0.047-0.145-0.046-0.027-0.139-0.064-0.279-0.097-0.405-0.056-0.154-0.117-0.187-0.265-0.112-0.28 0.145-0.484 0.36-0.624 0.638-0.13 0.27-0.181 0.457-0.061 1.172 0.028 0.139 0.141 0.311 0.27 0.355l1.21 0.371c0.061 0 0.098 0.071 0.023 0.117-0.148 0.102-0.311 0.191-0.465 0.288-0.079 0.046-0.12 0.022-0.158-0.047a0.949 0.949 0 0 0-0.498-0.455c-0.079-0.037-0.121-0.022-0.154 0.061-0.056 0.13-0.116 0.32-0.167 0.455-0.028 0.07-0.061 0.098-0.14 0.047-0.344-0.289-0.707-0.304-1.13-0.247-0.21 0.028-0.308 0.084-0.256 0.292 0.116 0.582 0.623 0.852 1.057 1.039a0.292 0.292 0 0 0 0.148-0.117c0.065-0.093 0.046-0.186-0.047-0.27-0.168-0.144-0.521-0.311-0.697-0.47-0.028-0.092 0.172-0.177 0.279-0.106 0.316 0.144 0.558 0.405 0.809 0.652 0.13 0.125 0.191 0.111 0.233-0.071 0.046-0.139 0.093-0.353 0.135-0.512 0.022-0.083 0.074-0.056 0.093-0.004 0.033 0.121 0.07 0.279 0.07 0.418 0 0.15-0.052 0.28-0.093 0.419-0.028 0.139-0.135 0.214-0.252 0.186-0.534-0.051-0.939 0.2-1.271 0.21a1.005 1.005 0 0 1-0.31-0.084c-0.117-0.093 0.056-0.101 0.092-0.101 0.139 0 0.349 0 0.461-0.062a0.67 0.67 0 0 0-0.144-0.135c-0.298-0.242-0.633 0.015-0.888 0.145-0.145 0.079-0.154 0.097-0.094 0.251 0.092 0.233 0.26 0.322 0.488 0.321 0.13 0 0.256 0.018 0.392 0.014a0.466 0.466 0 0 0 0.185-0.046c0.172-0.065 0.326-0.15 0.484-0.22 0.196-0.028 0.191 0.07 0.103 0.169l-0.396 0.241c-0.042 0.022-0.089 0.037-0.116 0.065-0.056 0.042-0.125 0.112-0.116 0.139a0.295 0.295 0 0 0 0.148 0.131c0.187 0.056 0.372 0.084 0.55 0.126 0.288 0.056 0.409-0.022 0.488-0.307 0.042-0.157 0.093-0.307 0.168-0.452 0.046-0.092 0.102-0.101 0.157-0.009 0.197 0.363 0.401 0.716 0.611 1.07 0.037 0.079 0 0.116-0.075 0.107a26.695 26.695 0 0 1-1.349-0.167c-0.154-0.022-0.304-0.121-0.457-0.186-0.233-0.108-0.466-0.206-0.73-0.196-0.227 0.004-0.358 0.139-0.279 0.358 0.102 0.313 0.219 0.633 0.344 0.944 0.089 0.214 0.298 0.293 0.526 0.313 0.107 0.013 0.07-0.061 0.042-0.112l-0.371-0.805c-0.047-0.135-0.011-0.153 0.064-0.042 0.205 0.307 0.418 0.6 0.605 0.912 0.112 0.196-0.028 0.252-0.168 0.256-0.47-0.047-0.898-0.209-1.349-0.382-0.046-0.018-0.112-0.116-0.098-0.158 0.084-0.079 0.187 0 0.279 0 0.108 0.018 0.154-0.028 0.112-0.112a0.427 0.427 0 0 0-0.228-0.209 2.777 2.777 0 0 0-0.67-0.242c-0.139-0.028-0.233 0.034-0.205 0.158 0.037 0.164 0.112 0.308 0.196 0.475 0.022 0.046 0.022 0.112 0.009 0.158-0.083-0.004-0.186 0.024-0.535-0.125-0.349-0.144-0.353-0.242-0.353-0.67 0-0.093 0-0.274 0.018-0.359 0.037-0.116 0.047-0.139 0.154-0.12 0.363 0.074 0.731 0.172 1.088 0.344 0.107 0.046 0.209 0.139 0.322 0.181 0.092 0.034 0.139 0 0.124-0.092a0.326 0.326 0 0 0-0.204-0.28c-0.381-0.162-0.762-0.344-1.145-0.497-0.092-0.038-0.125-0.079-0.074-0.178 0.154-0.251 0.233-0.544 0.169-0.86 0-0.022 0.027-0.056 0.055-0.085a0.233 0.233 0 0 1 0.172 0.214c0.028 0.27 0.209 0.457 0.385 0.639 0.359 0.371 0.359 0.371 0.862 0.25 0.065-0.009 0.112-0.056 0.167-0.093-0.047-0.037-0.093-0.101-0.157-0.13-0.094-0.046-0.197-0.074-0.299-0.116-0.335-0.126-0.433-0.363-0.321-0.716a12.098 12.098 0 0 0 0.312-0.973c0.037-0.154 0.046-0.316 0.056-0.479 0-0.093 0.07-0.093 0.125-0.102l0.731-0.048c0.187-0.013 0.396-0.233 0.47-0.357l0.241-0.396a0.507 0.507 0 0 0-0.498-0.074c0.056-0.182 0.13-0.354 0.131-0.526 0-0.112-0.028-0.247-0.075-0.364-0.046-0.111-0.126-0.129-0.218-0.059-0.178 0.148-0.326 0.326-0.382 0.566-0.056 0.243-0.157 0.685-0.107 0.764 0.112-0.083 0.261-0.196 0.359-0.224a0.214 0.214 0 0 1 0.167 0.028 2.384 2.384 0 0 1-0.539 0.373c-0.135 0.061-0.187-0.018-0.163-0.149 0.157-0.605 0.061-0.652 0.009-0.949a3.489 3.489 0 0 0-0.451-1.042c-0.065-0.084-0.169-0.056-0.307 0.112-0.224 0.27-0.28 0.497-0.396 0.963l-0.028 0.092-0.158 0.14-0.07-0.078c0.061-0.215 0.126-0.341 0.126-0.513a0.59 0.59 0 0 0-0.233-0.475c-0.172 0.112-0.331 0.251-0.371 0.327a0.461 0.461 0 0 0 0.008 0.529c0.178 0.313 0.15 0.624 0.093 0.992l-0.046-0.015a4.131 4.131 0 0 0-0.131-0.707c-0.037-0.148-0.135-0.274-0.213-0.405-0.079-0.116-0.15-0.368-0.085-0.47 0.093-0.162 0.387-0.246 0.499-0.394 0.116-0.178 0.061-0.252 0.209-0.41 0.089-0.108 0.279-0.326 0.418-0.252 0.419 0.209 0.866 0.256 1.336 0.196 0.2-0.028 0.242-0.022 0.298-0.224 0.046-0.168 0.07-0.056 0.236-0.111 0.284-0.093 0.434-0.349 0.434-0.652 0-0.166 0.009-0.338-0.01-0.511-0.013-0.15-0.07-0.293-0.116-0.428-0.037-0.089-0.098-0.07-0.139-0.005-0.117 0.153-0.311 0.455-0.42 0.623-0.06 0.098-0.111 0.196-0.162 0.298-0.028 0.079-0.065 0.098-0.135 0.023a1.517 1.517 0 0 0-0.247-0.214c-0.153-0.098-0.168-0.405-0.107-0.599 0.065 0.037 0.112 0.111 0.154 0.209 0.056 0.13 0.083 0.279 0.186 0.326 0.135 0.069 0.27-0.21 0.252-0.4a0.304 0.304 0 0 0-0.048-0.141c-0.148-0.264-0.488-0.479-0.697-0.479-0.243 0-0.396 0.298-0.298 0.581 0.028 0.075 0.056 0.13 0.094 0.201-0.573 0.304-0.726 0.494-0.955 0.759-0.028 0.033-0.056 0.126-0.028 0.172 0.108 0.205 0.065 0.274-0.153 0.395-0.098 0.056-0.233 0.107-0.335 0.14-0.013 0.009-0.042-0.015-0.07-0.019a0.139 0.139 0 0 1 0.028-0.056c0.139-0.311 0.292-0.608 0.423-0.926 0.139-0.34-0.168-0.656-0.442-0.762-0.181-0.071-0.326-0.028-0.446 0.135-0.304 0.362-0.368 0.954 0.056 1.511 0.065 0.093 0.045 0.13-0.061 0.141-0.242 0.018-0.484 0.045-0.735 0.059a0.977 0.977 0 0 0-0.745 0.396c-0.056 0.084-0.13 0.102-0.209 0.046-0.191-0.116-0.354-0.088-0.554 0.028-0.326 0.172-0.707 0.307-0.916 0.307-0.033 0-0.074-0.027-0.102-0.056 0.018-0.027 0.045-0.069 0.116-0.092 0.199-0.046 0.362-0.098 0.54-0.149 0.033-0.034 0.045-0.112 0.064-0.145-0.031-0.046-0.101-0.107-0.153-0.112a2.457 2.457 0 0 0-0.507 0c-0.442 0.043-0.768 0.247-1.047 0.508-0.13 0.13-0.139 0.265 0 0.372 0.326 0.233 0.675 0.466 1.117 0.349 0.307-0.098 0.498-0.326 0.697-0.549 0.169-0.177 0.373-0.386 0.568-0.163 0.284 0.326 0.341 0.666 0.805 0.605 0.178-0.018 0.252-0.079 0.298-0.247l0.037-0.199c0.015-0.13-0.056-0.196-0.181-0.144-0.084 0.027-0.157 0.074-0.242 0.092-0.047 0.015-0.098-0.004-0.154-0.018 0.004-0.047 0.015-0.112 0.047-0.14 0.083-0.056 0.186-0.102 0.279-0.145 0.349-0.092 0.679-0.162 1.023-0.231a0.298 0.298 0 0 1 0.107 0l-0.033 0.096c-0.125 0.289-0.292 0.378-0.52 0.433a0.539 0.539 0 0 0-0.126 0.224c-0.144 0.466-0.061 0.949 0.252 1.284 0.111 0.126 0.251 0.228 0.394 0.316 0.243 0.139 0.307 0.372 0.396 0.619 0.056 0.154 0.117 0.308 0.187 0.461a1.558 1.558 0 0 0-0.47 0.502c-0.047 0.047-0.084 0.028-0.113-0.028l-0.134-0.329c-0.12-0.293-0.326-0.48-0.651-0.507-0.116-0.01-0.233-0.028-0.345-0.043-0.135-0.013-0.224 0.047-0.269 0.2-0.182 0.559-0.009 1.042 0.525 1.34-0.427 0.107-0.781 0.279-1.001 0.577 0.024 0.084 0.154 0.196 0.322 0.265 0.419 0.172 0.847 0.154 1.242 0.02 0.233-0.084 0.242-0.028 0.285 0.139l0.115 0.521c0.028 0.126-0.042 0.196-0.157 0.154-0.639-0.187-1.397-0.494-1.945-0.862a2.885 2.885 0 0 0-0.722-0.213c-0.083 0.046-0.153 0.107-0.227 0.093a4.081 4.081 0 0 1-0.69-0.243c-0.112-0.065-0.116-0.098 0.023-0.116 0.215 0 0.606 0.093 0.806 0.094 0.195-0.061 0.195-0.093 0.074-0.178-0.47-0.371-1.001-0.283-1.526-0.194-0.187 0.037-0.2 0.125-0.093 0.274 0.679 0.768 1.181 0.762 2.009 0.666 0.54 0.344 1.079 0.651 1.71 0.851l0.012 0.093a9.17 9.17 0 0 0-1.284 0.186c-0.205 0.042-0.246 0.168-0.135 0.354 0.169 0.27 0.433 0.395 0.735 0.469a0.954 0.954 0 0 0 0.652-0.042c0.251-0.116 0.414-0.326 0.651-0.455 0.139-0.075 0.371 0.009 0.512 0.046 0.214 0.07 0.418 0.163 0.638 0.195 0.866 0.116 1.787 0.196 2.592 0.131a4.157 4.157 0 0 0-0.233 0.544c-0.042 0.112-0.004 0.139 0.112 0.131a0.49 0.49 0 0 0 0.405-0.233c0.013-0.13 0.013-0.247 0.04-0.377 0.015-0.07 0.034-0.169 0.079-0.178 0.034-0.004 0.234 0.028 0.21 0.085a8.111 8.111 0 0 1-0.213 0.557c0.074 0.015 0.153 0.028 0.231 0.029 0.326 0 0.378-0.046 0.364-0.371a1.349 1.349 0 0 0-0.042-0.276c-0.042-0.242 0.009-0.409 0.218-0.521 0.206-0.102 0.419-0.07 0.624-0.047a3.815 3.815 0 0 1 1.763 0.796c0.256 0.205 0.034 0.488 0.034 0.875 0 0.242-0.047 0.493-0.043 0.619 0.009 0.2 0.093 0.307 0.168 0.363 0.224 0.172 0.47 0.344 0.707 0.498 0.242 0.157 0.363 0.255 0.652 0.353a0.625 0.625 0 0 0 0.204 0.015 0.744 0.744 0 0 0-0.014-0.298c-0.139-0.093-0.335-0.139-0.558-0.214-0.042-0.015-0.083-0.071-0.107-0.121a0.418 0.418 0 0 1 0.163-0.094l0.363-0.079a0.214 0.214 0 0 0 0.092-0.078c-0.018-0.034-0.045-0.075-0.074-0.08-0.148-0.046-0.344-0.079-0.47-0.113-0.046-0.013-0.07-0.055-0.107-0.096a0.457 0.457 0 0 1 0.177-0.094l0.372-0.046a0.196 0.196 0 0 0 0.098-0.06c-0.013-0.037-0.033-0.084-0.06-0.098-0.079-0.037-0.461-0.177-0.503-0.219-0.034-0.031-0.043-0.079-0.056-0.14a0.356 0.356 0 0 1 0.177-0.037l0.311 0.005a0.2 0.2 0 0 0 0.126-0.06 0.279 0.279 0 0 0-0.083-0.098c-0.15-0.093-0.205-0.159-0.372-0.233-0.079-0.047-0.117-0.093-0.131-0.191a0.518 0.518 0 0 1 0.209-0.009c0.112 0.028 0.172 0.065 0.293 0.083a0.319 0.319 0 0 0 0.131-0.013 0.13 0.13 0 0 0-0.033-0.093c-0.045-0.046-0.107-0.07-0.162-0.113-0.084-0.055-0.228-0.195-0.312-0.264-0.028-0.022-0.015-0.093-0.019-0.117l0.093 0.006c0.112 0.022 0.279 0.07 0.372 0.083 0.169 0.033 0.146 0.009 0.075-0.113-0.102-0.092-0.209-0.153-0.307-0.259-0.028-0.037-0.019-0.098-0.015-0.149 0.159 0.009 0.322 0.083 0.466 0.083 0.015-0.028 0.024-0.046 0.023-0.083a2.373 2.373 0 0 0-0.115-0.28c-0.043-0.107 0.013-0.148 0.092-0.116 0.112 0.046 0.289 0.139 0.409 0.168 0.047 0.013 0.108 0 0.169-0.023-0.056-0.112-0.121-0.201-0.196-0.312-0.015-0.028 0-0.07 0.023-0.103 0.191 0.056 0.387 0.187 0.558 0.233 0.079 0.033 0.13 0 0.149-0.037 0.015-0.047-0.125-0.187-0.116-0.242 0.004-0.037 0.013-0.047 0.033-0.069l0.326 0.101c0.236 0.061 0.371 0.084 0.409 0.028 0.045-0.013-0.006-0.125-0.075-0.255 0.187-0.015 0.21 0.074 0.539 0.139 0.126 0.033 1.871-0.214 2.579-0.433 0.279-0.093 0.605-0.233 0.866-0.353l0.083 0.018c0.2 0.512 0.623 0.67 1.057 0.716 0.124 0.015 0.259 0.024 0.393 0.029 0.127 0 0.154-0.033 0.117-0.158a2.233 2.233 0 0 0-0.646-1.098l-0.279-0.172c-0.121-0.126-0.107-0.27 0.022-0.373 0.225-0.15 0.522-0.292 0.746-0.433 0.326-0.209 0.437-0.531 0.418-0.87a0.289 0.289 0 0 0-0.12-0.227 0.363 0.363 0 0 0-0.169 0.116c-0.088 0.186-0.177 0.34-0.255 0.502-0.061 0.033-0.126 0.046-0.181 0.07-0.015-0.056-0.047-0.112-0.034-0.167 0.099-0.289 0.354-0.521 0.522-0.708 0.07-0.116-0.033-0.163-0.083-0.154-0.187 0.043-0.391 0.112-0.531 0.27a3.75 3.75 0 0 0-0.735 1.523c-0.033 0.144-0.093 0.195-0.14 0.329-0.061 0.205-0.056 0.252 0.122 0.378 0.255 0.166 0.59 0.32 0.832 0.492 0.098 0.107 0.047 0.15-0.057 0.144a0.964 0.964 0 0 1-0.697-0.311c-0.093-0.101-0.172-0.168-0.279-0.181-0.252 0.065-0.6 0.168-0.861 0.204-0.148 0.028-0.265 0.088-0.344 0.229-0.052 0.116-0.157 0.139-0.279 0.092-0.187-0.051-0.372-0.116-0.559-0.157a2.094 2.094 0 0 0-0.931 0.065c-0.125 0.018-0.153-0.01-0.116-0.131 0.033-0.154 0.083-0.304 0.113-0.452 0.003-0.065 0.013-0.162-0.047-0.194-0.061 0.027-0.148 0.042-0.177 0.083-0.098 0.144-0.172 0.298-0.265 0.456-0.061 0.125-0.084 0.125-0.214 0.07a2.373 2.373 0 0 1-0.526-0.321c-0.126-0.2-0.261-0.368-0.326-0.54-0.022-0.046 0.047-0.083 0.107-0.083 0.141 0.111 0.307 0.251 0.433 0.371 0.084 0.093 0.112 0.187 0.168 0.308 0.013 0.028 0.148 0.022 0.171-0.028 0.019-0.046 0.043-0.116 0.061-0.214a0.66 0.66 0 0 0-0.153-0.609c-0.206-0.21-0.345-0.252-0.63-0.448-0.353-0.242-0.405-0.227-0.534 0.01a1.385 1.385 0 0 0-0.172 0.651c0.093 0.568 0.228 0.801 0.916 1.154a0.191 0.191 0 0 1-0.056 0.093c-0.045 0.037-0.07 0.061-0.148 0.061-0.242-0.01-0.581-0.015-0.847-0.037-0.074-0.006-0.121-0.028-0.139-0.071a3.489 3.489 0 0 1 0.307-2.512 0.418 0.418 0 0 1 0.167-0.181c0.144-0.075 0.371-0.172 0.512-0.233 0.084-0.037 0.126-0.01 0.163 0.074 0.061 0.224 0.083 0.382 0.101 0.573 0.011 0.116 0.015 0.233 0.062 0.255 0.111 0.047 0.209-0.045 0.265-0.139a1.237 1.237 0 0 0 0.112-1.13c-0.015-0.037 0.018-0.112 0.06-0.135 0.475-0.191 0.916-0.387 1.396-0.574 0.27-0.013 0.614 0.015 1.093 0.095 0.079 0.009 0.247 0.148 0.419 0.246-0.219 0.112-0.54 0.344-0.763 0.558-0.061 0.065-0.139 0.15-0.084 0.326 0.186-0.009 0.279-0.061 0.419-0.102 0.214-0.062 0.349-0.094 0.521-0.094a0.931 0.931 0 0 1 0.14 0.019 0.256 0.256 0 0 1-0.065 0.144c-0.061 0.056-0.157 0.047-0.229 0.084-0.07 0.046-0.139 0.116-0.093 0.201 0.034 0.056 0.126 0.12 0.191 0.111 0.224-0.015 0.427-0.042 0.661-0.113 0.101-0.083 0.493-0.596 0.27-0.641-0.126-0.028-0.396-0.047-0.512-0.107a0.233 0.233 0 0 1 0.14-0.158c0.12 0.018 0.26 0.056 0.446 0.074a2.745 2.745 0 0 0 0.917-0.041c0.126-0.047 0.168-0.093 0.126-0.172a1.443 1.443 0 0 0-0.852-0.746c-0.168-0.045-0.371-0.009-0.545-0.009l-1.497-0.013c-0.034 0-0.07-0.028-0.103-0.048 0.028-0.022 0.056-0.051 0.083-0.065 0.139-0.083 0.304-0.153 0.442-0.25a0.978 0.978 0 0 0 0.411-0.619 0.256 0.256 0 0 0 0-0.145c-0.141-0.512-0.419-0.884-1.001-0.949l-0.289-0.046c-0.107-0.009-0.148 0.037-0.148 0.135 0 0.181 0.009 0.279 0 0.465 0 0.092 0.046 0.125 0.154 0.14a3.582 3.582 0 0 1 0.79 0.228c0.154 0.06 0.186 0.153 0 0.311l-0.418 0.298c-0.075 0.046-0.108 0.009-0.117-0.06-0.009-0.112-0.009-0.233-0.028-0.34a0.233 0.233 0 0 0-0.061-0.107 0.307 0.307 0 0 0-0.223 0.186c-0.056 0.15-0.093 0.289-0.117 0.433a0.457 0.457 0 0 1-0.32 0.372c-0.084 0.022-0.157-0.009-0.144-0.089 0.013-0.092 0.033-0.186 0.06-0.279 0.135-0.326 0.205-0.605 0.177-0.911a6.56 6.56 0 0 1-0.047-0.643 0.191 0.191 0 0 1 0.14-0.204c0.252-0.098 0.489-0.196 0.753-0.279 0.09-0.034 0.164 0.004 0.234 0.092l0.529 0.624c0.141 0.148 0.178 0.144 0.298-0.022 0.112-0.159 0.233-0.304 0.41-0.402 0.093-0.046 0.093-0.135-0.014-0.176-0.2-0.074-0.4-0.116-0.609-0.186-0.047-0.015-0.098-0.015-0.15-0.034-0.033-0.013-0.074-0.055-0.074-0.083 0-0.028 0.042-0.07 0.074-0.083 0.382-0.135 0.698-0.261 1.038-0.391 0.093-0.042 0.139-0.116 0.126-0.214-0.009-0.126-0.046-0.233-0.065-0.354-0.019-0.111-0.093-0.196-0.209-0.209-0.466-0.046-0.744 0.084-1.062 0.409a0.289 0.289 0 0 0-0.074 0.256c0.056 0.009 0.102 0.009 0.144-0.004a1.9 1.9 0 0 0 0.498-0.21c0.084-0.092 0.15-0.186 0.196-0.186 0.028 0 0.079 0.116 0.093 0.157-0.047 0.056-0.093 0.112-0.461 0.27a10.623 10.623 0 0 1-2.038 0.703c-0.093 0.01-0.089-0.051-0.065-0.092 0.13-0.228 0.279-0.466 0.423-0.709 0.139-0.083 0.178-0.045 0.126 0.085a2.5 2.5 0 0 1-0.154 0.289c-0.013 0.093 0.028 0.116 0.084 0.107a0.781 0.781 0 0 0 0.577-0.694c0-0.116-0.056-0.157-0.176-0.153-0.177 0.013-0.372 0.028-0.545 0.079-0.326 0.084-0.522 0.311-0.628 0.609a3.299 3.299 0 0 0-0.103 0.424c-0.028 0.153-0.157 0.209-0.292 0.283-0.228 0.139-0.345 0.112-0.54 0.15a3.21 3.21 0 0 0-0.489 0.111c0-0.056-0.015-0.107 0-0.139 0.112-0.177 0.209-0.349 0.326-0.512 0.162-0.237 0.12-0.372-0.14-0.465a0.967 0.967 0 0 0-1.117 0.39c-0.139 0.224-0.242 0.489-0.339 0.731-0.061 0.144 0 0.233 0.154 0.265 0.236 0.042 0.521-0.046 0.735-0.107-0.015 0.07-0.019 0.34-0.043 0.395l-0.139 0.304c-0.088 0.148-0.186 0.199-0.349 0.12a7.352 7.352 0 0 1-0.731-0.396c-0.279-0.163-0.549-0.279-0.86-0.279a0.418 0.418 0 0 1-0.093-0.009c-0.102-0.022-0.107-0.056-0.047-0.121 0.079-0.079 0.084-0.157 0.038-0.256l-0.322-0.595a1.628 1.628 0 0 1-0.153-0.349c0.079-0.015 0.371 0.083 0.371 0.139 0.024 0.326 0.121 0.558 0.294 0.763 0.13 0.13 0.252 0.047 0.265-0.083 0.022-0.172-0.209-0.452 0.094-1.095 0.13-0.288 0.531-0.781 0.79-0.781 0.139 0 0.256 0.061 0.34 0.265 0.047 0.093 0.079 0.317 0.121 0.41 0.037 0.093 0.083 0.139 0.186 0.13 0.252-0.033 0.6-0.186 0.885-0.223 0.181-0.028 0.32 0.423 0.409 0.585 0.139 0.243 0.205 0.452 0.363 0.191 0.27-0.371 0.395-0.79 0.684-0.921a2.015 2.015 0 0 1 1.173-0.2c0.125 0.015 0.162 0.061 0.134 0.187-0.024 0.074-0.028 0.153-0.047 0.233-0.028 0.088 0.052 0.12 0.15 0.046 0.135-0.079 0.233-0.186 0.326-0.307 0.241-0.261 0.484-0.391 0.958-0.392 0.223 0 0.395 0.047 0.596 0.117 0.153 0.056 0.177 0.079 0.135 0.233l-0.135 0.447c-0.047 0.205-0.015 0.233 0.166 0.335 0.159 0.093 0.284 0.157 0.383 0.279a0.326 0.326 0 0 0 0.2-0.07 2.406 2.406 0 0 1 0.86-0.973c0.15-0.083 0.187-0.074 0.247 0.07 0.125 0.317 0.195 0.591 0.218 0.888 0.168-0.195 0.363-0.405 0.503-0.558 0.503-0.475 1.001-0.47 1.675-0.302 0.166 0.047 0.037 0.214-0.06 0.344l-0.131 0.196c-0.042 0.07-0.074 0.074-0.13 0.014-0.084-0.098-0.168-0.27-0.252-0.354-0.153-0.153-0.423-0.065-0.609 0.047a2.499 2.499 0 0 0-0.902 0.926 4.886 4.886 0 0 1-0.792 0.935c-0.12 0.046-0.12 0.042-0.093-0.084a3.327 3.327 0 0 0 0.55-1.726 0.414 0.414 0 0 0-0.322 0.07c-0.466 0.261-0.697 1.186-0.762 1.806-0.015 0.129-0.015 0.233-0.131 0.296-0.196 0.112-0.27 0.159-0.465 0.248-0.046 0.009-0.074 0-0.117-0.005 0.093-0.41 0.028-0.698-0.209-1.085-0.042-0.074-0.093-0.111-0.181-0.083-0.046 0.028-0.093 0.065-0.2 0.148a1.754 1.754 0 0 0-0.549 1.345c0 0.093 0.092 0.093 0.157 0.047a0.702 0.702 0 0 0 0.178-0.213c0.116-0.196 0.214-0.401 0.326-0.596 0.018-0.047 0.073-0.079 0.116-0.093 0.022 0.046 0.022 0.098 0.013 0.139l-0.083 0.372a1.163 1.163 0 0 1-0.372 0.512c-0.034 0.047-0.056 0.13 0.037 0.139 0.4 0.019 0.632-0.027 0.977-0.209 0.362-0.186 0.605-0.34 0.762-0.32 0.107 0.013 0.652 0.172 0.699 0.209-0.028 0.056-0.07 0.074-0.103 0.112-0.056 0.045-0.322 0.19-0.437 0.288-0.187 0.153-0.251 0.223-0.214 0.535 0.018 0.139 0.042 0.27 0.075 0.405 0.013 0.042 0.046 0.101 0.074 0.111 0.046 0 0.093-0.037 0.121-0.069 0.153-0.187 0.297-0.391 0.451-0.577a0.353 0.353 0 0 1 0.093-0.056c0 0.037 0.009 0.07 0 0.093-0.034 0.228-0.15 0.4-0.289 0.568l-0.093 0.116c-0.12 0.172-0.129 0.2-0.009 0.372a0.821 0.821 0 0 1 0.117 0.652c-0.034 0.162-0.084 0.405-0.117 0.641-0.292 0.135-0.59 0.326-0.838 0.495-0.157 0.138-0.186 0.251-0.185 0.283 0.074 0.092 0.144 0.107 0.288 0.166 0.205 0.065 0.587-0.013 0.656-0.231a0.649 0.649 0 0 0 0.047-0.237c0.074 0.013 0.139 0.013 0.157 0.074 0.075 0.233 0.141 0.39 0.289 0.544a0.767 0.767 0 0 1-0.111 0.205c-0.088 0.144-0.163 0.27-0.288 0.241-0.047-0.004-0.098-0.018-0.154-0.018-0.093 0-0.186 0-0.172 0.168 0.018 0.214 0.046 0.311 0 0.53-0.028 0.121-0.065 0.252-0.187 0.247-0.292-0.024-0.484-0.237-0.767-0.233a1.103 1.103 0 0 1-0.535-0.093c-0.15-0.079-0.256-0.163-0.326-0.205a78.025 78.025 0 0 0-3.486 0.652c-0.106 0.022-0.101 0.092-0.12 0.204-0.056 0.256-0.153 0.507-0.196 0.763-0.009 0.042 0.047 0.093 0.075 0.131 0.027-0.028 0.07-0.047 0.098-0.085 0.06-0.088 0.101-0.191 0.172-0.278 0.12-0.13 0.437 0.009 0.493 0.185 0.047 0.108-0.101 0.159-0.092 0.28 0.009 0.101 0.157 0.196 0.157 0.326 0 0.116-0.046 0.191-0.065 0.251 0.439 0.279 0.544 0.512 0.559 0.875 0.013 0.112 0.013 0.168 0.074 0.233 0.061 0.06 0.157 0.148 0.2 0.204 0.205 0.236 0.391 0.614 0.531 0.652 0.07 0.022 0.246 0.036 0.381 0.023l0.028 0.074a0.553 0.553 0 0 1-0.279 0.274c-0.322 0.102-0.48-0.377-0.652-0.652a2.326 2.326 0 0 0-0.27-0.357c-0.139 0.154-0.371 0.772-0.353 1.066 0.093 0.395 0.326 0.787 0.479 1.069 0.107 0.178 0.316 0.238 0.521 0.317 0.173 0.061 0.298 0.093 0.474 0.042 0.093-0.022 0.126-0.028 0.169-0.061l-0.006-0.358c0.047-0.652 0.15-1.303 0.191-1.861 0-0.15 0.112-0.4 0.303-0.53a0.606 0.606 0 0 0 0.27-0.562 0.442 0.442 0 0 1 0.046-0.234c0.065-0.13-0.06-0.13-0.186-0.149-0.139-0.022-0.172-0.074-0.102-0.2 0.13-0.219 0.316-0.405 0.466-0.614 0.092-0.15 0.139-0.256 0.172-0.345-0.037-0.18-0.024-0.45 0.157-0.461 0.591-0.069 0.838-0.018 1.214 0.266 0.024 0.037 0.028 0.092 0.029 0.14 0 0.046 0.107 0.083 0.306 0.283 0.154 0.144 0.304 0.549 0.043 1.173 0.129 0.079 0.125 0.2 0.112 0.34-0.009 0.121 0.028 0.139 0.139 0.181 0.139 0.047 0.214 0.13 0.331 0.419 0.101 0.279 0.405 1.01 0.581 2.8-0.033 0.564-0.13 0.978-0.242 1.439 0.12 0.86 0.255 1.916 0.363 3.363 0.088 1.368 0.111 2.071 0.14 2.634 0.242 0.019 0.316 0.07 0.367-0.135l0.047-0.191c0.046-0.135 0.181-0.088 0.186-0.014l0.149 0.439c0.033 0.124 0.07 0.204 0.115 0.325 0.163 0.223 0.233 0.028 0.233-0.135 0.019-0.139 0.019-0.256 0.019-0.383 0.028-0.162 0.112-0.172 0.172-0.059l0.214 0.506c0.079 0.178 0.163 0.225 0.196 0.117 0.028-0.144 0.034-0.4 0.028-0.605-0.033-0.116-0.084-0.242-0.103-0.344 0-0.139 0.112-0.112 0.14-0.07a16.238 16.238 0 0 1 0.759 0.991c0.139 0.084 0.223-0.06 0.185-0.116-0.009-0.056-0.079-0.126-0.078-0.237 0.018-0.177 0.186-0.098 0.222-0.034 0.154 0.154 0.256 0.354 0.346 0.517a0.326 0.326 0 0 0 0.139 0.07 0.268 0.268 0 0 0 0.042-0.163c-0.009-0.056-0.074-0.186-0.094-0.247 0.065-0.107 0.196 0.028 0.237 0.07 0.047 0.047 0.093 0.126 0.155 0.224 0.083 0.13 0.223 0.242 0.529 0.283 0.006 0.028 0.019 0.065 0.019 0.094-0.042 0.028-0.112 0.061-0.298 0.093a3.801 3.801 0 0 1-1.162 0.022 1.349 1.349 0 0 0-0.857 0.187c-0.186 0.107-0.371 0.093-0.591 0.083-0.419-0.018-0.838-0.018-1.266-0.027-0.884-0.024-1.326 0.153-2.326 0.205-0.326 0-1.004-0.169-1.004-0.377 0-0.145 0.083-0.265 0.083-0.34 0-0.092-0.019-0.116-0.102-0.14-0.712-0.125-1.415 0.037-2.061 0.159-0.549 0.084-0.838-0.004-1.127-0.233a1.456 1.456 0 0 1-0.399-0.423 5.686 5.686 0 0 0-1.114-1.057c-0.464-0.371-1.056-1.046-1.423-1.512-0.083-0.097-0.227-0.572-0.279-0.707a1.424 1.424 0 0 1-0.065-0.614c0.056-0.046 0.126-0.101 0.176-0.107 0.313-0.009 0.698-0.157 0.713-0.251 0.033-0.07-0.019-0.13-0.078-0.112a1.81 1.81 0 0 1-0.55 0c-0.093-0.013-0.205-0.056-0.248-0.102 0.056-0.071 0.093-0.121 0.154-0.154a1.633 1.633 0 0 0 0.727-0.28 0.177 0.177 0 0 0-0.019-0.092c-0.205-0.01-0.363-0.01-0.591-0.065a0.526 0.526 0 0 1-0.223-0.13 0.362 0.362 0 0 1 0.167-0.14c0.261-0.084 0.451-0.209 0.629-0.372l-0.005-0.102a3.55 3.55 0 0 1-0.708-0.075c-0.107-0.056-0.116-0.065 0.005-0.195 0.168-0.043 0.475-0.07 0.641-0.126 0.126-0.065 0.103-0.172-0.022-0.209a3.815 3.815 0 0 1-0.605-0.066c-0.126-0.112-0.139-0.121 0.022-0.195l0.537-0.113c0.205-0.069 0.172-0.199 0-0.25-0.163-0.018-0.275-0.056-0.439-0.084-0.214-0.107-0.209-0.117-0.036-0.186l0.34-0.093c0.092-0.024 0.186-0.061 0.204-0.13a0.102 0.102 0 0 0-0.01-0.07c-0.144-0.043-0.437-0.015-0.566-0.056-0.047-0.009-0.093-0.061-0.122-0.121l0.126-0.07a1.934 1.934 0 0 0 0.461-0.177 0.405 0.405 0 0 0 0.051-0.115 0.302 0.302 0 0 0-0.094-0.048 3.969 3.969 0 0 1-0.432-0.148c-0.092-0.117-0.088-0.139 0.037-0.191l0.243-0.065a1.549 1.549 0 0 0-0.122-0.242 0.242 0.242 0 0 0-0.083-0.083c-0.141-0.084-0.341-0.169-0.489-0.266-0.279-0.172-0.572-0.34-0.791-0.559a1.815 1.815 0 0 1-0.587-0.958 2.006 2.006 0 0 1-0.004-0.708c0.028-0.175 0.126-0.362 0.219-0.528 0.037-0.062 0.064-0.117 0.027-0.169a3.666 3.666 0 0 0-0.432-0.466 0.735 0.735 0 0 0-0.275-0.139c-0.553-0.098-0.893-0.209-1.145-0.177a0.884 0.884 0 0 0-0.214 0.321c0.047 0.187 0.139 0.476 0.144 0.713 0.205 0.022 0.448 0.092 0.699 0.231 0.2 0.13 0.247 0.2 0.326 0.448 0.172 0.558 0.218 1.271 0.339 2.033 0.107 0.725-0.274 1.327-1.009 1.354-0.4 0.019-0.726-0.061-0.833-0.331-0.132-0.381-0.229-0.703-0.354-1.084a8.362 8.362 0 0 0-1.629 0.577c-0.488 0.233-0.888 0.457-1.406 0.666-0.981 0.405-2.064 0.652-3.037 0.652-0.512 0-1.084-0.103-1.479-0.261-0.354-0.141-0.479-0.284-0.559-0.731a4.239 4.239 0 0 1-0.018-1.145c0.046-0.372 0.107-0.633 0.363-1.33 0.111-0.308 0.255-0.452 0.492-0.573a2.605 2.605 0 0 1 1.285-0.256c0.154 0.009 0.354 0.033 0.493 0.094 0.279 0.101 0.32 0.326 0.331 0.605 0 0.163 0.009 0.326-0.006 0.488-0.013 0.13-0.009 0.182-0.009 0.233 0.354 0.052 1.094 0.033 1.443-0.047 0.288-0.061 0.405-0.107 0.931-0.354 0.362-0.163 0.855-0.531 1.428-0.827z m11.139 6.221c0.034 0.07 0.112 0.418 0.112 0.539 0 0.283-0.024 0.544-0.056 0.986-0.047 0.577 0.013 1.164-0.065 1.732-0.034 0.279-0.102 0.712-0.079 1.093 0.004 0.153 0.027 0.196 0.116 0.214 0.279 0.065 0.466 0.093 0.605 0.093 0.427 0 0.707-0.196 0.67-0.433a5.816 5.816 0 0 1-0.2-1.6l0.112-0.01c0.157 0.652 0.292 0.973 0.339 1.312 0.056 0.307 0 0.833 0.06 1.103 0.716 0.079 1.573 0.009 1.833-0.046 0.065-0.587 0.047-1.187-0.209-1.41a7.241 7.241 0 0 0-0.568-0.433 3.206 3.206 0 0 1-0.762-0.847c-0.307-0.484-0.391-0.638-0.661-1.107-0.251-0.437-0.418-0.814-0.591-1.071a1.894 1.894 0 0 0-0.247-0.326 3.29 3.29 0 0 0-0.652-0.12c-0.301-0.033-0.501-0.065-0.675-0.255-0.147-0.15-0.208-0.27-0.12-0.47 0.047-0.108-0.013-0.182-0.093-0.27-0.09-0.112-0.065-0.233 0.045-0.317 0.266-0.26 0.513-0.39 0.862-0.484l-0.056-0.242c-0.138 0.018-0.292 0.061-0.572 0.061-0.387 0-0.735-0.159-0.874-0.665-0.052-0.182-0.279-0.694-0.345-0.923-0.047-0.139 0.004-0.311 0.07-0.511-0.121-0.148-0.224-0.316-0.326-0.456-0.209-0.089-0.461-0.177-0.628-0.382-0.07-0.083-0.101-0.088-0.162-0.045-0.056 0.04-0.07 0.101-0.15 0.171-0.074 0.065-0.228 0.07-0.371 0.009-0.141-0.056-0.21-0.199-0.206-0.34 0.015-0.186 0.107-0.349 0.023-0.422-0.143-0.154-0.278-0.326-0.106-0.447 0.046-0.043 0.153-0.034 0.218-0.065a0.466 0.466 0 0 0 0.224-0.522c-0.037-0.153-0.121-0.223-0.274-0.236-0.219-0.015-0.317-0.127-0.318-0.27 0-0.187 0.163-0.266 0.313-0.234a0.473 0.473 0 0 1 0.195 0.094c0.015 0.07 0.047 0.168 0.102 0.157 0.252-0.027 0.448-0.288 0.447-0.534 0-0.084-0.056-0.126-0.219-0.089-0.298 0.047-0.67 0.159-1.038 0.285-0.205 0.07-0.233 0.233-0.12 0.418 0.037 0.042 0.065 0.093 0.092 0.139 0.047 0.074 0.028 0.13-0.045 0.173l-0.094 0.069c-0.111 0.084-0.125 0.178-0.056 0.304 0.019 0.045 0.047 0.079 0.084 0.111 0.084 0.074 0.084 0.139 0.004 0.233a0.353 0.353 0 0 0-0.074 0.377c0.033 0.107 0.117 0.712 0.117 0.827-0.006 0.313 0.056 0.624 0.037 0.917-0.015 0.214 0.092 0.4 0.297 0.633 0.225 0.247 0.387 0.47 0.689 0.763 0.358 0.34 0.553 0.744 0.586 1.243 0.015 0.233 0.126 0.316 0.349 0.437 0.471 0.13 0.633 0.395 0.689 0.753 0.093 0.638-0.218 1.256-0.79 1.201-0.293-0.028-0.439-0.205-0.439-0.358 0-0.163 0.084-0.326 0.219-0.373 0.022-0.009 0.107 0 0.126 0a0.279 0.279 0 0 1 0.014 0.103c0 0.042-0.056 0.065-0.074 0.148-0.013 0.056-0.013 0.169 0.041 0.237 0.061 0.079 0.169 0.108 0.28 0.07 0.129-0.042 0.218-0.153 0.279-0.27 0.265-0.479 0.13-1.046-0.377-1.171-0.163-0.047-0.396-0.07-0.545 0.018-0.315 0.196-0.585 0.307-0.851 0.549a0.205 0.205 0 0 0-0.066 0.153 26.023 26.023 0 0 0 0.224 3.165c0 0.228 0.168 0.512 0.233 0.548 0.186-0.135 0.233-0.27 0.396-0.525 0.079-0.047 0.116-0.019 0.139 0.051-0.004 0.237-0.052 0.466-0.023 0.67 0.013 0.061 0.083 0.116 0.13 0.157 0.112-0.101 0.116-0.255 0.163-0.371 0.125-0.13 0.153 0.013 0.158 0.051-0.009 0.154 0 0.292 0.014 0.372 0.004 0.061 0.061 0.074 0.113 0.089 0.135-0.27 0.306-0.512 0.525-0.661 0.13-0.093 0.214-0.013 0.139 0.117a3.299 3.299 0 0 0-0.298 0.786 0.466 0.466 0 0 0 0.131-0.014c0.028-0.01 0.07-0.019 0.083-0.093 0.093-0.233 0.145-0.261 0.252-0.093 0.046 0.157 0.116 0.27 0.209 0.316 0.139-0.037 0.148-0.205 0.204-0.327 0.148 0.011 0.157 0.173 0.233 0.252 0.051 0.042 0.475 0.056 0.553 0.048l-0.013-0.248c-0.009-0.493 0-0.888 0.033-1.377 0.037-0.512 0.093-1.037 0.121-1.489 0.018-0.371 0.065-0.94 0.092-1.382zM25.635 7.952a8.479 8.479 0 0 0-0.703-0.046c-0.102 0-0.382 0-0.391 0.144 0 0.042 0.056 0.116 0.121 0.157 0.34 0.233 1.289 0.275 1.676 0.211a0.645 0.645 0 0 0-0.034-0.285c-0.092-0.283-0.442-0.534-0.762-0.637a2.629 2.629 0 0 0-1.034-0.038l-0.065-0.172c0.112-0.503 0.098-0.967 0.028-1.334a1.082 1.082 0 0 0-0.205-0.466c-0.065-0.093-0.139-0.089-0.222-0.019-0.056 0.047-0.112 0.108-0.21 0.233-0.32 0.391-0.307 0.652-0.251 1.237 0.037 0.029 0.079 0.056 0.185 0.056 0.102 0 0.15-0.045 0.163-0.186 0.01-0.196 0.056-0.4 0.085-0.581 0.046 0.013 0.13 0.07 0.139 0.101 0.018 0.304-0.079 0.62-0.154 0.904 0.019 0.033 0.242 0.129 0.209 0.223-0.027 0.07-0.371 0.157-0.614 0.176a1.228 1.228 0 0 0-0.572-0.468c-0.139-0.056-0.292-0.102-0.177-0.196l0.187-0.074c0.326-0.135 0.218-0.322 0.205-0.638-0.015-0.121-0.061-0.154-0.172-0.149a0.894 0.894 0 0 0-0.405 0.093c-0.243 0.148-0.428 0.396-0.605 0.596-0.034 0.033-0.102 0.018-0.159 0.018 0.093-0.292 0.214-0.614 0.307-0.875 0.033-0.092 0.074-0.186 0.177-0.163 0.503 0.117 1.014 0.019 1.368-0.334 0.148-0.159 0.148-0.233-0.041-0.368a1.182 1.182 0 0 0-1.071-0.232c-0.154 0.061-0.256 0.148-0.279 0.307-0.015 0.093 0.451-0.037 0.614-0.023 0.046 0.003 0.079 0.045 0.113 0.069-0.299 0.13-0.643 0.196-0.931 0.279-0.093 0.024-0.13 0-0.145-0.093a0.405 0.405 0 0 1 0.145-0.409c0.218-0.187 0.39-0.405 0.437-0.698 0.027-0.157-0.103-0.396-0.173-0.531-0.009-0.037 0.01-0.065 0.015-0.093a2.024 2.024 0 0 1 0.59 0.28 1.317 1.317 0 0 0 0.916 1.014c0.163 0.056 0.331 0.116 0.509 0.167 0.157 0.046 0.279 0.004 0.27-0.168l-0.011-0.232c0.139-0.061 0.298-0.107 0.335-0.102 0.265 0.037 0.535 0.168 0.81 0.255 0.187 0.093 0.093 0.159-0.037 0.141-0.205-0.034-0.405-0.093-0.6-0.141-0.125-0.027-0.227 0.028-0.247 0.15 0.083 0.148 0.466 0.326 0.605 0.382 0.205 0.073 0.977 0.162 0.967-0.047a2.727 2.727 0 0 0-0.092-0.614c-0.047-0.173-0.196-0.27-0.359-0.313a4.187 4.187 0 0 0-1.032-0.12 0.945 0.945 0 0 0-0.372 0.12l-0.043-0.227c-0.074-0.313-0.223-0.387-0.455-0.465 0.013-0.093 0.013-0.154 0.013-0.252 0.205-0.116 0.457-0.311 0.555-0.475-0.084-0.079-0.233-0.12-0.313-0.148-0.316-0.112-0.349-0.233-0.562-0.326a1.395 1.395 0 0 0-0.503-0.126c-0.157-0.004-0.372 0.038-0.419 0.098-0.022 0.043 0 0.108 0.093 0.172 0.139 0.108 0.433 0.187 0.577 0.289 0.093 0.052 0.047 0.074-0.014 0.083a1.438 1.438 0 0 1-0.567-0.162c-0.107-0.056-0.139-0.102-0.219-0.131-0.141-0.047-0.163-0.009-0.256 0.153-0.07 0.117 0.013 0.178 0.113 0.233 0.334 0.187 0.581 0.292 1.004 0.34 0.046 0.047 0.056 0.126 0.069 0.219-0.418-0.056-0.558-0.061-0.818-0.154-0.414-0.223-0.744-0.4-1.145-0.53-0.074-0.034-0.102-0.079-0.019-0.13 0.419-0.252 0.82-0.559 1.242-0.792 0.061-0.033 0.157-0.018 0.233-0.004 0.205 0.037 0.274 0.102 0.479 0.163 0.121 0.046 0.237 0.079 0.261-0.034 0.061-0.306 0.157-0.534 0.248-0.663 0.186-0.284 0.45-0.434 0.799-0.653 0.13-0.442 0.559-0.894 0.712-0.894 0.419 0 0.838 0.759 0.922 1.043 0.056 0.205-0.28 0.382-0.056 0.382 0.196 0 0.377 0.033 0.376 0.2 0 0.292-0.083 0.59-0.233 0.804-0.157 0.214-0.326 0.448-0.539 0.592l0.013 0.074c0.363 0.27 0.759 0.466 0.759 0.875 0 0.219-0.061 0.372-0.186 0.479-0.097 0.084-0.177 0.169-0.167 0.293 0.013 0.283 0.031 0.442 0.014 0.721-0.013 0.187-0.581 0.224-0.661 0.307a2.326 2.326 0 0 1-0.158 1.415l0.116 0.213c0.577 0.405 0.652 0.774 0.735 1.09-0.157 0.154-0.419 0.283-0.511 0.283-0.372 0-1.196-0.279-1.36-0.302-0.065 0.117-0.027 0.225 0.056 0.456 0.074 0.209 0.214 0.353 0.214 0.549 0 0.093-0.013 0.242-0.279 0.284a1.87 1.87 0 0 1-1.242-0.339c-0.074-0.043-0.139-0.093-0.214-0.126-0.126-0.07-0.283-0.019-0.326 0.126l-0.083 0.279c-0.047 0.153-0.126 0.168-0.335 0.126-0.591-0.126-0.866-0.763-0.866-1.327 0.028-0.116 0.121-0.07 0.139-0.014 0.037 0.274 0.159 0.54 0.248 0.763 0.111 0.214 0.251 0.331 0.483 0.359 0.046 0 0.112-0.09 0.168-0.186 0.126-0.265 0.242-0.443 0.204-0.754a0.756 0.756 0 0 0-0.126-0.359c-0.037-0.045-0.098-0.079-0.167-0.14 0.034-0.051 0.084-0.107 0.126-0.092 0.261 0.092 0.457 0.092 0.618 0.004 0.102-0.056 0.15-0.126 0.22-0.213a9.209 9.209 0 0 1 0.898-0.182c0.418 0 0.79 0.056 1.102 0.195zM9.708 18.161c0.223 0 0.493 0.111 0.488 0.353l-0.046 0.121a0.126 0.126 0 0 1-0.056-0.014c-0.083-0.181-0.218-0.283-0.437-0.242a0.939 0.939 0 0 0-0.512 0.289c-0.089 0.092 0.093 0.148 0.205 0.209l0.232 0.139c0 0.121-0.317 1.005-0.157 1.034 0.399 0.07 0.93-0.48 0.985-1.257-0.013-0.279 0.145-0.418 0.452-0.521 0.363-0.139 0.535-0.302 0.475-0.697-0.028-0.197 0.083-0.141 0.191-0.304l0.12-0.13c0.019 0.056 0.061 0.187 0.046 0.243-0.083 0.32-0.018 0.572 0.141 0.86l0.297 0.772c0.071 0.074 0.135 0.013 0.205 0.094 0.255 0.517 0.544 1.289 0.935 1.619 0.322 0.265 0.661 0.731 0.963 1.01 0.177 0.157 0.298 0.553 0.521 0.627 0.157 0.056 0.154 0.139 0.13 0.285-0.028 0.177 0.046 0.209 0.113 0.209 0.107-0.013 0.209-0.042 0.32-0.046 0.242 0.051 0.186 0.214 0.009 0.241-0.12 0.013-0.236-0.01-0.357-0.01a0.689 0.689 0 0 0-0.126 0.048 0.254 0.254 0 0 0 0.065 0.12c0.196 0.108 0.335 0.121 0.525 0.163 0.037 0 0.065 0.028 0.108 0.042-0.015 0.034-0.056 0.108-0.093 0.125a0.82 0.82 0 0 1-0.214 0c-0.173-0.037-0.331-0.112-0.495-0.185-0.055-0.019-0.092-0.079-0.142-0.117-0.043-0.018-0.093-0.028-0.141-0.042 0 0.056-0.018 0.107-0.013 0.154 0.037 0.074 0.116 0.205 0.083 0.232-0.013 0.024-0.125 0.093-0.158 0.075-0.139-0.065-0.252-0.224-0.382-0.298-0.166-0.107-0.32-0.107-0.479 0.005-0.163 0.112-0.307 0.209-0.461 0.298-0.19 0.125-0.395 0.326-0.623 0.326-0.126 0-0.437-0.191-0.577-0.234-0.261-0.083-0.344-0.092-0.623-0.153-0.233-0.056-0.439 0.033-0.674 0.113-0.289 0.088-0.605 0.125-0.918 0.18-0.177 0.034-0.381 0-0.567-0.009-0.28-0.009-0.55-0.033-0.824-0.029-0.186 0-0.382 0.034-0.558 0.094a0.961 0.961 0 0 1-0.247 0.037 0.627 0.627 0 0 1-0.362-0.111 0.531 0.531 0 0 0-0.396-0.075c-0.13 0.028-0.387 0.074-0.493-0.022-0.13-0.132-0.442-0.391-0.619-0.36-0.554 0.093-0.819 0.41-1.358 0.265-0.382-0.097-0.633-0.186-1.005-0.064-0.093 0.037-0.335-0.019-0.433-0.005-0.139 0.019-0.187-0.009-0.169-0.149l0.015-0.074c0.024-0.144-0.116-0.252-0.256-0.2-0.154 0.046-0.242 0.205-0.386 0.279-0.265 0.13-0.512 0.093-0.8-0.018-0.196-0.084-0.396-0.047-0.582 0.046-0.12 0.065-0.316 0.349-0.447 0.348-0.046 0-0.116-0.074-0.139-0.139v-0.135a0.931 0.931 0 0 1 0.307-0.283 1.745 1.745 0 0 1 1.061-0.14c0.168 0.027 0.349 0.046 0.506-0.019 0.126-0.056 0.256-0.065 0.373-0.126 0.209-0.111 0.39-0.209 0.628-0.125 0.172-0.079 0.265-0.135 0.354-0.265 0.042-0.209-0.034-0.427 0.018-0.633 0.047-0.187 0.126-0.418 0.187-0.596 0.037-0.092 0.101-0.083 0.163-0.074 0.168 0.247 0.371 0.479 0.27 0.708-0.07 0.157 0.292 0.27 0.232 0.428-0.061 0.12-0.034 0.196 0.088 0.209l0.093 0.009c0.107 0 0.112-0.07 0.107-0.205 0.004-0.762-0.242-1.293-0.502-1.894-0.107-0.233-0.088-0.466-0.005-0.697l0.158-0.475a0.893 0.893 0 0 1 0.48-0.503c0.028-0.004 0.107 0.028 0.126 0.065 0.34 0.48 0.464 1.061 0.297 1.639a6.128 6.128 0 0 0-0.116 0.539c-0.009 0.046 0.004 0.093 0.013 0.14 0.034-0.028 0.075-0.056 0.103-0.094 0.169-0.251 0.341-0.497 0.475-0.766 0.129-0.261 0.344-0.368 0.614-0.42 0.292-0.061 0.377-0.022 0.303 0.261a5.926 5.926 0 0 1-0.154 0.484 0.964 0.964 0 0 1-0.493 0.6c-0.169 0.093-0.322 0.218-0.465 0.326-0.056 0.074-0.07 0.07-0.011 0.144 0.056 0.07 0.141 0.028 0.211-0.015 0.274-0.199 0.558-0.358 0.836-0.511 0.103-0.046 0.135-0.009 0.126 0.112-0.013 0.139-0.033 0.329-0.172 0.381-0.153 0.051-0.359 0.074-0.493 0.14A0.931 0.931 0 0 0 5.494 22.12c-0.093 0.139-0.093 0.233-0.169 0.382-0.013 0.031 0 0.088 0.006 0.139 0.046-0.018 0.093-0.018 0.125-0.038 0.182-0.13 0.28-0.279 0.461-0.418 0.139-0.107 0.172-0.093 0.228 0.079 0.018 0.056 0.061 0.102 0.116 0.154 0.056-0.037 0.117-0.07 0.158-0.126 0.163-0.242 0.265-0.725 0.479-1.046 0.037 0 0.084 0.027 0.113 0.041 0.045 0.107-0.015 0.475-0.006 0.554 0.006 0.223 0.075 0.27 0.28 0.168 0.157-0.079 0.302-0.163 0.456-0.248 0.169-0.083 0.304-0.018 0.204 0.113-0.051 0.079-0.13 0.139-0.176 0.222-0.028 0.047-0.022 0.126-0.028 0.187 0.047 0 0.112 0.009 0.157-0.015 0.127-0.033 0.243-0.088 0.364-0.139 0.162-0.074 0.329-0.051 0.512 0 0.172 0.061 0.349 0.102 0.512 0.149 0.135 0.033 0.283-0.028 0.404-0.084a4.318 4.318 0 0 1 0.736-0.283 2.373 2.373 0 0 0 0.916-0.526c0.061-0.065 0.154-0.098 0.224-0.163 0.056-0.046 0.101-0.264 0.107-0.336 0.046-0.186-0.028-0.623 0.009-0.818 0.022-0.046 0.061-0.148 0.093-0.2l0.079 0.022c0.022 0.071 0.056 0.178 0.056 0.234-0.015 0.335-0.019 1.079-0.056 1.406 0 0.074-0.13 0.195-0.205 0.222-0.586 0.214-1.177 0.439-1.767 0.605-0.265 0.074-0.559 0.033-0.838 0.037-0.224 0-0.442-0.033-0.661-0.018-0.172 0.013-0.418 0.172-0.596 0.2-0.484 0.074-0.902 0.042-1.381 0.13-0.442 0.084-0.866 0.205-1.29 0.321a0.784 0.784 0 0 0-0.264 0.131c-0.034 0.028-0.043 0.079-0.056 0.112 0.046 0.022 0.093 0.055 0.139 0.045 0.107-0.009 0.196 0.024 0.307 0.01 0.261-0.042 0.522-0.07 0.792-0.093a0.36 0.36 0 0 1 0.181 0.074 0.499 0.499 0 0 0 0.409 0.085c0.157-0.037 0.298 0.004 0.439 0.106 0.241 0.196 0.301 0.205 0.58 0.046 0.214-0.116 0.452-0.116 0.689-0.101 0.53 0.027 1.023 0.106 1.502 0.195a1.023 1.023 0 0 0 0.988-0.383 6.679 6.679 0 0 0 0.371-0.505c0.09-0.117 0.187-0.196 0.326-0.196 0.298-0.004 0.605-0.074 0.898-0.056 0.168 0.015 0.247 0.169 0.248 0.265-0.011 0.098-0.047 0.157-0.165 0.154a10.266 10.266 0 0 1-0.67-0.056c-0.232-0.019-0.418 0.046-0.558 0.224-0.074 0.083-0.056 0.139 0.057 0.167 0.046 0.004 0.107 0.027 0.157 0.033 0.121 0.013 0.178 0.07 0.209 0.18 0.024 0.071 0.169 0.141 0.411 0.154 0.311 0.019 0.475 0.019 0.744-0.07 0.111-0.037 0.186-0.168 0.265-0.264 0.177-0.256 0.297-0.322 0.614-0.257 0.223 0.042 0.371-0.196 0.573-0.181 0.368 0.045-0.047-0.694-0.28-0.935-0.32-0.237-0.577-0.708-0.855-1.057-0.206-0.255-0.452-0.353-0.63-0.665-0.34-0.562-0.618-1.251-0.995-1.703-0.148-0.153-0.47-0.046-0.628 0.037a0.442 0.442 0 0 0-0.186 0.13c0.455 0.387 0.475 0.922 0.316 1.317-0.046 0.126-0.093 0.121-0.222 0.07a4.795 4.795 0 0 1-0.36-0.144c-0.079-0.042-0.147-0.022-0.232 0.028-0.344 0.209-0.768 0.494-0.838 0.423-0.139-0.139-0.363-0.558-0.348-0.772a0.859 0.859 0 0 1 0.135-0.424 3.489 3.489 0 0 1-0.447-0.289l-0.005-0.152c0.289-0.279 0.68-0.549 0.983-0.549z m-8.711-4.048c0.037 0.274 0.154 0.497 0.42 0.599 0.382 0.159 0.884 0.252 1.312 0.257 0.506 0.013 1.06-0.028 1.656-0.14a10.795 10.795 0 0 0 2.68-0.935 7.417 7.417 0 0 1 1.629-0.619 3.685 3.685 0 0 1 1.799-0.047c0.266 0.061 0.322 0.061 0.285-0.129-0.018-0.126-0.056-0.252-0.074-0.383-0.065-0.446-0.046-0.866-0.214-1.247a0.517 0.517 0 0 0-0.247-0.227 1.471 1.471 0 0 0-0.428-0.13 3.025 3.025 0 0 0-0.903 0 4.531 4.531 0 0 0-1.358 0.418c-0.466 0.228-0.931 0.484-1.28 0.694a3.676 3.676 0 0 1-1.889 0.544c-0.442 0-0.735-0.015-1.177-0.061a4.205 4.205 0 0 1-1.736-0.479c-0.12-0.061-0.186-0.042-0.232 0.083a3.894 3.894 0 0 0-0.233 1.796z m20.701 4.884c-0.154 0.024-0.475 0.065-0.661 0.076a0.884 0.884 0 0 1-0.18-0.024c0.027-0.056 0.045-0.074 0.079-0.089 0.227-0.116 0.469-0.223 0.636-0.353 0.093-0.07 0.074-0.139 0.048-0.2-0.313 0.139-0.605 0.2-0.936 0.256-0.022 0-0.037-0.024-0.046-0.038 0.255-0.191 0.596-0.344 0.781-0.511 0.125-0.101 0.033-0.13-0.01-0.172-0.27 0.093-0.54 0.182-0.823 0.26a0.326 0.326 0 0 1-0.13-0.014c0-0.056 0.056-0.079 0.102-0.107a4.34 4.34 0 0 0 0.792-0.521l-0.015-0.069-0.093-0.01c-0.218 0.038-0.702 0.108-0.967 0.134-0.13 0-0.107-0.074-0.085-0.092 0.21-0.093 0.372-0.205 0.527-0.367 0.056-0.061 0.046-0.117 0.028-0.144-0.252 0.116-0.54 0.12-0.709 0.139-0.031-0.043 0.011-0.093 0.03-0.112 0.205-0.079 0.246-0.144 0.353-0.214 0.07-0.046 0.219-0.148 0.252-0.205 0.013-0.019 0.009-0.074-0.006-0.093a3.257 3.257 0 0 1-0.619 0.15 0.311 0.311 0 0 1-0.112-0.02c0.019-0.046 0.029-0.083 0.056-0.097 0.289-0.148 0.443-0.209 0.648-0.335a0.501 0.501 0 0 0 0.139-0.182l-0.019-0.028c-0.233 0.074-0.47 0.154-0.712 0.219-0.046-0.009-0.07-0.037-0.112-0.07a0.283 0.283 0 0 1 0.084-0.083 3.801 3.801 0 0 0 1.317-0.759 1.037 1.037 0 0 0 0.252-0.284l-0.034-0.056c-0.464 0.326-0.915 0.609-1.45 0.82-0.107-0.01-0.084-0.075-0.048-0.103 0.047-0.047 0.187-0.205 0.298-0.354a4.202 4.202 0 0 0 1.219-0.703c0.028-0.028 0.043-0.107 0.024-0.157-0.237 0.107-0.6 0.311-0.916 0.427l-0.061-0.018a0.634 0.634 0 0 1 0.074-0.163c0.214-0.139 0.522-0.359 0.764-0.624 0.009-0.033 0.022-0.074 0-0.111a4.239 4.239 0 0 1-0.629 0.256c-0.07-0.047 0.015-0.169 0.022-0.195 0.295-0.242 0.434-0.4 0.578-0.605 0.028-0.046 0.028-0.089 0-0.163-0.163 0.117-0.396 0.187-0.576 0.256l-0.052-0.015c-0.009-0.06 0-0.046 0.019-0.092 0.214-0.196 0.396-0.349 0.526-0.573 0.013-0.022 0.009-0.083-0.014-0.125-0.177 0.061-0.311 0.112-0.503 0.157a0.148 0.148 0 0 1-0.065-0.013c0.01-0.061 0-0.074 0.023-0.121 0.13-0.112 0.261-0.265 0.383-0.447 0.031-0.046 0.027-0.092 0.003-0.125-0.092 0.022-0.26 0.046-0.344 0.056-0.037 0.009-0.083-0.034-0.107-0.075l0.326-0.233a0.279 0.279 0 0 0 0.056-0.087c-0.043-0.019-0.075-0.043-0.103-0.034-0.139 0.019-0.27 0.034-0.409 0.061-0.307 0.065-0.307 0.108-0.335 0.195a6.807 6.807 0 0 1-0.34 1.014c-0.042 0.093-0.093 0.182-0.185 0.22-0.13 0.065-0.102 0.135-0.14 0.259-0.056 0.252-0.093 0.233-0.196 0.481a1.349 1.349 0 0 1-0.289 0.464h-0.069l-0.023-0.349c-0.028-0.233-0.075-0.181-0.112-0.418-0.022-0.209 0.028-0.433 0.056-0.614 0.022-0.21 0.046-0.573 0.046-0.778-0.018-0.013-0.037-0.045-0.065-0.064a0.196 0.196 0 0 0-0.065 0.092c-0.042 0.159-0.116 0.409-0.14 0.574-0.051 0.381 0.028 0.748 0 1.134a4.327 4.327 0 0 0-0.046 1.201c0.126-0.015 0.116-0.028 0.293-0.098 0.233-0.093 0.4-0.126 0.637-0.335 0.169-0.145 0.141-0.428 0.2-0.661 0.079-0.279 0.187-0.382 0.298-0.427 0.034-0.01 0.065 0.004 0.098 0.013-0.065 0.157-0.102 0.242-0.163 0.41-0.056 0.144-0.112 0.382 0.047 0.409l0.116 0.019c0.009 0.027 0.009 0.07-0.013 0.092-0.15 0.145-0.27 0.317-0.955 0.513-0.079 0.022-0.251 0.232-0.26 0.311-0.015 0.107-0.015 0.233 0.009 0.41 0.07 0.684 0.409 1.327 0.791 1.958 0.322 0.54 0.559 0.949 0.907 1.304 0.163 0.148 0.335 0.26 0.605 0.135 0.144-0.07 0.326-0.182 0.372-0.224 0.022-0.028 0.028-0.074 0.023-0.116z m-9.306-9.844c0.019 0.27-0.033 0.34-0.376 0.251-0.363-0.112-0.531-0.074-0.764-0.34-0.139-0.163-0.316-0.163-0.464-0.009-0.07 0.083-0.121 0.168-0.233 0.186-0.019-0.037-0.043-0.088-0.028-0.131a0.517 0.517 0 0 1 0.283-0.353c0.107-0.056 0.237-0.093 0.349-0.126 0.322-0.126 0.48-0.316 0.48-0.692 0-0.214 0.065-0.428 0.065-0.653 0-0.157-0.056-0.209-0.209-0.157-0.265 0.101-0.513 0.205-0.777 0.316a0.318 0.318 0 0 0-0.187 0.176c-0.074 0.139-0.121 0.279-0.186 0.42-0.06 0.079-0.111 0.042-0.129 0.009a8.484 8.484 0 0 0-0.411-0.581c-0.116-0.139-0.116-0.187 0.015-0.285l0.433-0.377c0.214-0.2 0.298-0.466 0.32-0.763v-0.405c-0.009-0.177 0.028-0.227 0.205-0.205a0.976 0.976 0 0 1 0.354 0.103c0.196 0.084 0.39 0.196 0.586 0.298 0.102 0.065 0.177 0.154 0.186 0.284 0.004 0.153-0.093 0.251-0.232 0.195a4.281 4.281 0 0 0-0.657-0.227c-0.111-0.028-0.223 0.033-0.242 0.139-0.046 0.255 0.172 0.27 0.154 0.34-0.056 0.181-0.349 0.233-0.391 0.4-0.033 0.153-0.033 0.251 0.102 0.223 0.368-0.074 0.726-0.302 1.01-0.419 0.242-0.102 0.368-0.065 0.4 0.205 0.13 0.79 0.251 1.471 0.34 2.178z m5.724-2.513c0.07 0.019 0.157 0.061 0.213 0.112 0.135 0.311 0.424 0.66 0.788 0.847a0.895 0.895 0 0 0 0.326 0.092c0.031-0.139 0.092-0.371 0.092-0.627a0.831 0.831 0 0 0-0.248-0.605 2.42 2.42 0 0 0-0.557-0.42 0.237 0.237 0 0 0-0.275 0.024c-0.004 0.046-0.004 0.116 0.023 0.157 0.09 0.154 0.304 0.293 0.396 0.439 0.034 0.148 0.024 0.139-0.098 0.092a2.35 2.35 0 0 1-0.665-0.581c-0.107-0.12-0.178-0.12-0.252 0.009a2.252 2.252 0 0 0-0.335 1.001 1.023 1.023 0 0 0 0.559 1.07c0.172 0.074 0.298 0.056 0.383-0.107 0.088-0.163 0.148-0.304 0.203-0.483 0.028-0.093 0.028-0.132-0.042-0.215a3.075 3.075 0 0 0-0.278-0.312 0.405 0.405 0 0 0-0.14-0.112 0.187 0.187 0 0 0-0.038 0.117c0.006 0.144 0.028 0.292 0.034 0.437 0 0.037-0.006 0.093-0.028 0.126a0.283 0.283 0 0 1-0.159-0.186c-0.093-0.344-0.079-0.647 0.098-0.875z m-16.08-5.067l0.27 0.321c0.11 0.21 0.171 0.4 0.227 0.567 0.046 0.169 0.116 0.169 0.224 0.094a0.379 0.379 0 0 0 0.158-0.326 1.084 1.084 0 0 0-0.061-0.293c-0.092-0.363-0.027-0.67 0.289-0.898 0.107-0.074 0.186-0.196 0.144-0.326-0.046-0.181-0.088-0.353-0.158-0.521-0.028-0.074-0.13-0.093-0.2-0.056-0.354 0.187-0.772 0.722-0.452 1.168 0.015 0.028-0.004 0.112-0.028 0.158-0.292-0.292-0.869-0.888-1.041-0.874-0.047 0.083-0.084 0.255-0.047 0.605 0.042 0.34 0.13 0.688 0.386 1.163a0.86 0.86 0 0 0 0.219 0.247c0.061 0.055 0.187 0.116 0.278 0.116a0.514 0.514 0 0 0 0.019-0.279 10.738 10.738 0 0 0-0.278-0.852zM25.531 2.913c0.246-0.047 0.446-0.117 0.54-0.154 0.4-0.153 0.665-0.409 0.754-0.846 0.028-0.116-0.042-0.181-0.168-0.214l-0.261-0.07c-0.255-0.075-0.307 0.033-0.405 0.279-0.074 0.186-0.153 0.4-0.353 0.558-0.061 0.052-0.27-0.101-0.326-0.14 0.391-0.233 0.647-0.605 0.838-1.051 0.046-0.083 0-0.168-0.089-0.196a0.949 0.949 0 0 0-0.399-0.041 2.005 2.005 0 0 0-1.443 1.075c-0.019 0.046 0 0.153 0.033 0.167 0.056 0.022 0.196 0.009 0.255-0.014 0.037-0.004 0.056-0.056 0.079-0.092 0.164-0.289 0.439-0.466 0.754-0.605 0.093-0.047 0.126-0.015 0.075 0.093-0.061 0.079-0.627 0.479-0.641 0.534-0.075 0.163 0.036 0.187 0.129 0.187l0.172-0.046a0.761 0.761 0 0 0 0.452 0.576z m-8.607-0.047c-0.01 0.139-0.061 0.219-0.187 0.172-0.261-0.111-0.418-0.395-0.712-0.492-0.107-0.037-0.172 0.061-0.186 0.157-0.046 0.298-0.092 0.563-0.092 0.675 0 0.41 0.218 0.633 0.437 0.852 0.064 0.056 0.064 0.092-0.006 0.125l-0.897 0.503c-0.084 0.056-0.187 0.07-0.279 0-0.09-0.079-0.117-0.177-0.09-0.275 0.108-0.451 0.182-0.916 0.299-1.358 0.186-0.697 0.488-0.936 0.996-1.001 0.182-0.028 0.317-0.028 0.456-0.028 0.148 0 0.214 0.028 0.233 0.163 0.018 0.093 0.022 0.196 0.022 0.507z m0.679 3.086c0-0.34-0.274-0.439-0.391-0.727-0.112-0.283-0.214-0.283-0.442-0.078-0.261 0.247-0.418 0.461-0.512 0.814a1.954 1.954 0 0 0 0.009 0.977c0.022 0.098 0.079 0.209 0.187 0.176a0.187 0.187 0 0 0 0.135-0.185c0-0.289 0.027-0.568 0.172-0.754a0.427 0.427 0 0 1 0.13-0.126c0.045 0.07 0.027 0.153 0.027 0.168-0.042 0.214-0.074 0.432-0.12 0.647-0.028 0.144-0.028 0.223 0.046 0.353 0.084 0.13 0.154 0.144 0.209 0.056 0.265-0.424 0.55-1.033 0.55-1.321zM3.076 6.892a2.605 2.605 0 0 0-0.185-0.838c-0.112-0.265-0.28-0.419-0.391-0.419-0.102 0-0.34 0.28-0.419 0.507-0.206 0.573-0.093 1.038 0.236 1.586 0.047 0.07 0.141 0.2 0.266 0.07 0.102-0.116 0.182-0.199 0.28-0.326a0.905 0.905 0 0 0 0.213-0.58z m12.536 8.979c-0.061-0.479-0.419-0.945-1.024-1.349-0.126-0.052-0.141 0.033-0.14 0.14 0.061 0.666 0.139 1.335 0.224 1.926 0.022 0.13 0.083 0.168 0.204 0.102 0.181-0.083 0.353-0.172 0.525-0.27 0.159-0.093 0.256-0.181 0.211-0.549z m5.476-5.444c-0.093-0.233-0.251-0.329-0.484-0.349-0.233-0.028-0.428-0.061-0.674-0.097-0.141 0.019-0.233 0.13-0.313 0.317 0.004 0.037 0.019 0.083 0.047 0.092 0.079 0.028 0.223 0.056 0.242 0.07a0.461 0.461 0 0 1 0.139 0.191c-0.018 0.065-0.102 0.135-0.209 0.154-0.139 0.027-0.139 0.139-0.117 0.283a0.819 0.819 0 0 0 0.182 0.405c0.093-0.056 0.139-0.079 0.21-0.154a0.316 0.316 0 0 0 0.093-0.27c-0.019-0.302 0.148-0.521 0.357-0.721l0.048 0.028c-0.034 0.172-0.126 0.298-0.145 0.47-0.045 0.353-0.162 0.652-0.512 0.889 0.107 0.139 0.372 0.037 0.457-0.046a1.065 1.065 0 0 0 0.316-0.494l0.056-0.177a0.139 0.139 0 0 1 0.046 0.014c0.07 0.13-0.028 0.396 0.019 0.587a0.437 0.437 0 0 0 0.172-0.14c0.13-0.308 0.196-0.765 0.07-1.046z m4.383-7.165c-0.061 0-0.304 0.004-0.372 0.019-0.056 0.013-0.084 0.144-0.057 0.167 0.07 0.047 0.112 0.084 0.169 0.103 0.218 0.022 0.315 0.022 0.567 0.064a0.192 0.192 0 0 1 0.126 0.071c-0.024 0.018-0.047 0.051-0.094 0.06-0.466 0.056-0.605 0.047-0.931-0.173-0.088-0.037-0.12 0.028-0.092 0.113 0.046 0.157 0.177 0.288 0.418 0.386 0.191 0.083 0.377 0.186 0.573 0.181 0.298-0.009 0.512-0.027 0.758-0.07 0.13-0.018 0.261-0.092 0.28-0.158 0.022-0.065 0-0.21-0.075-0.303l-0.177-0.177c-0.279-0.292-0.461-0.479-0.875-0.437-0.056 0.006-0.139 0.154-0.218 0.154z m0.288 3.099c0-0.172-0.022-0.298-0.07-0.452a0.79 0.79 0 0 0-0.688-0.567c-0.172-0.006-0.256 0.027-0.187 0.186 0.019 0.056 0.173 0.219 0.233 0.348 0.079 0.159 0.154 0.322 0.154 0.461a0.466 0.466 0 0 1-0.042 0.187c-0.102-0.056-0.159-0.182-0.182-0.243-0.046-0.148-0.056-0.236-0.101-0.32-0.043-0.074-0.094-0.093-0.117-0.094-0.065 0-0.093 0.022-0.098 0.113a1.336 1.336 0 0 0 0.731 1.334c0.129 0.046 0.162 0.015 0.205-0.101a2.792 2.792 0 0 0 0.162-0.848zM2.799 4.565c-0.065 0.246-0.079 0.409-0.07 0.549 0.004 0.177 0.092 0.326 0.255 0.4a3.117 3.117 0 0 0 1.55 0.242c0.019 0 0.07-0.034 0.069-0.046-0.013-0.108-0.07-0.126-0.167-0.154-0.218-0.074-0.805-0.233-0.884-0.326-0.061-0.083-0.033-0.172 0.065-0.186a0.497 0.497 0 0 1 0.257 0.042c0.144 0.07 0.27 0.163 0.418 0.247 0.046 0.027 0.102 0.079 0.157 0 0.043-0.071 0.084-0.132-0.009-0.201l-0.344-0.27c-0.298-0.236-0.744-0.349-1.302-0.297z m10.64 3.853c-0.022 0.051-0.07 0.101-0.12 0.163-0.056-0.056-0.112-0.093-0.141-0.154a11.18 11.18 0 0 1-0.557-1.861c-0.009-0.121 0.037-0.163 0.139-0.158 0.265 0.027 0.498 0.148 0.731 0.27 0.037 0.027 0.065 0.106 0.07 0.162 0.046 0.526-0.019 1.117-0.122 1.573z m-11.46 1.07l-0.037-0.019c0.024-0.316 0.187-0.768 0.126-0.884a0.652 0.652 0 0 0-0.321 0.033c-0.112 0.046-0.159 0.157-0.182 0.344-0.028 0.414 0.037 0.838 0.126 1.21 0.028 0.139 0.083 0.153 0.186 0.056 0.265-0.243 0.517-0.55 0.717-0.787 0.139-0.181 0.163-0.353 0.107-0.525-0.047-0.145-0.144-0.2-0.252-0.2-0.116 0-0.157 0.088-0.186 0.176-0.065 0.228-0.172 0.39-0.284 0.59z m21.488-0.955c0.209 0 0.381 0.042 0.436 0.061 0.252 0.093 0.363 0.205 0.411 0.292a0.291 0.291 0 0 1 0.045 0.169 0.451 0.451 0 0 1-0.413-0.084c-0.224-0.209-0.55-0.298-0.744-0.209 0.013 0.144 0.153 0.326 0.27 0.418 0.39 0.304 0.734 0.354 1.153 0.256 0.07-0.028 0.098-0.126 0.094-0.209-0.015-0.27 0.004-0.559-0.252-0.791-0.279-0.265-0.679-0.255-0.954-0.14-0.047 0.022-0.117 0.056-0.149 0.093a0.238 0.238 0 0 0 0.102 0.14zM13.788 1.16c0.083-0.019 0.045 0.018 0.022 0.093-0.046 0.237-0.186 0.424-0.353 0.591-0.093 0.083-0.112 0.214-0.047 0.279 0.121 0.112 0.261 0.015 0.354-0.074 0.186-0.209 0.302-0.466 0.41-0.717 0.13-0.313 0.102-0.698-0.047-0.959-0.079-0.111-0.2-0.125-0.293-0.041a1.615 1.615 0 0 0-0.568 1.116c0 0.061 0.004 0.172 0.046 0.196 0.214-0.093 0.345-0.326 0.466-0.479z m5.676 11.259c0.022-0.018 0.061 0 0.074 0.011 0 0.251 0.061 0.553 0.094 0.64a0.289 0.289 0 0 0 0.093-0.064l0.07-0.339c0.157-0.479 0.042-0.861-0.159-1.299-0.037-0.083-0.093-0.092-0.176-0.056-0.061 0.028-0.112 0.071-0.061 0.154 0.046 0.07 0.042 0.126 0 0.196-0.065 0.126-0.112 0.261-0.181 0.409-0.028 0.093-0.034 0.169-0.043 0.279l-0.07 1.721c0.028 0.093 0.084 0.075 0.117 0.019 0.037-0.093 0.065-0.181 0.083-0.279 0.047-0.27 0.126-0.28 0.14-0.549 0.024-0.279 0.024-0.558 0.015-0.837zM3.701 1.787a0.255 0.255 0 0 1 0.01-0.107l0.288 0.046c0.139 0.028 0.21 0.01 0.256-0.097 0.079-0.206 0.037-0.391-0.177-0.433-0.326-0.061-0.652 0.046-0.931 0.112-0.181 0.061-0.224 0.251-0.093 0.382 0.21 0.199 0.409 0.399 0.629 0.576a0.69 0.69 0 0 0 0.59 0.14c0.093-0.024 0.173-0.084 0.173-0.168a0.233 0.233 0 0 0-0.07-0.167 0.629 0.629 0 0 0-0.163-0.093z m-0.293 12.53c-0.019 0.092-0.061 0.172-0.213 0.164a1.917 1.917 0 0 1-0.42-0.061c-0.148-0.043-0.191-0.098-0.2-0.154a2.542 2.542 0 0 1 0.047-0.922c0.018-0.045 0.177-0.138 0.242-0.176 0.2 0.022 0.358 0.056 0.503 0.092 0.056 0.034 0.168 0.2 0.176 0.224a0.933 0.933 0 0 1 0.028 0.279c-0.056 0.233-0.126 0.433-0.163 0.554z m15.54 8.399c0.373 0.139 0.661 0.181 0.772 0.157a0.223 0.223 0 0 0 0.174-0.25c-0.006-0.102-0.056-0.187-0.187-0.224-0.283-0.061-0.577-0.101-0.847-0.2-0.157-0.046-0.279-0.042-0.419 0.065-0.214 0.163-0.418 0.247-0.684 0.298a0.326 0.326 0 0 0-0.172 0.061c-0.074 0.098-0.056 0.168 0.061 0.232 0.461 0.042 0.893-0.047 1.302-0.139z m1.531 0.911c0.233 0 0.405-0.045 0.563-0.149a1.395 1.395 0 0 1 0.674-0.298c0.103-0.018 0.206-0.125 0.214-0.209 0-0.116-0.092-0.13-0.171-0.157-0.224-0.071-0.489-0.061-0.716-0.117-0.075-0.013-0.182-0.013-0.243 0.034-0.479 0.484-0.572 0.371-0.8 0.608-0.061 0.079-0.061 0.177 0.107 0.219 0.13 0.033 0.298 0.06 0.371 0.07zM12.514 5.436c0-0.12 0.214-0.307 0.33-0.288 0.022 0.009 0.045 0.022 0.065 0.046l0.047 0.252c0.013 0.098 0.046 0.186 0.098 0.185 0.242 0.019 0.525-0.148 0.66-0.357 0.145-0.225 0.247-0.48 0.367-0.722 0.112-0.265 0.284-0.101 0.224 0.06-0.154 0.461-0.344 0.931-0.494 1.382-0.046 0.168-0.07 0.177-0.232 0.122l-0.767-0.276a0.396 0.396 0 0 1-0.298-0.404z m5.89 11.483c0.126 0.061 0.117 0.037 0.284-0.056a0.382 0.382 0 0 0 0.149-0.27l-0.047-1.009c0-0.033-0.047-0.083-0.065-0.084-0.139 0-0.307-0.028-0.419 0.033-0.214 0.116-0.395 0.283-0.59 0.437-0.074 0.074-0.004 0.148 0.106 0.14 0.093-0.037 0.2-0.084 0.293-0.135l0.177-0.093a0.159 0.159 0 0 1-0.018 0.084c-0.169 0.186-0.293 0.409-0.521 0.53-0.061 0.01-0.046 0.157 0.041 0.163a0.766 0.766 0 0 0 0.257-0.122c0.139-0.111 0.2-0.18 0.339-0.297 0.046 0.07 0.079 0.125 0.009 0.186l-0.371 0.335c-0.056 0.056-0.015 0.112 0.051 0.102a0.733 0.733 0 0 0 0.265-0.101c0.092-0.062 0.172-0.146 0.255-0.234 0.004 0.01 0.056 0.061 0.048 0.065a4.177 4.177 0 0 1-0.243 0.326zM6.497 5.216c-0.056 0.562-0.195 1.13-0.446 1.387-0.205-0.391-0.344-0.847-0.484-1.247 0.112-0.139 0.251-0.349 0.312-0.512 0.028-0.079 0.074-0.093 0.143-0.037 0.169 0.153 0.313 0.279 0.475 0.409z m0.666 8.022a0.466 0.466 0 0 1-0.256 0.32 1.027 1.027 0 0 1-0.438 0.117c-0.083 0-0.144-0.019-0.158-0.093-0.046-0.261-0.107-0.503-0.149-0.753-0.004-0.061 0.047-0.141 0.098-0.187 0.163-0.154 0.372-0.196 0.591-0.209 0.046 0 0.2 0.065 0.224 0.107 0.045 0.233 0.07 0.442 0.088 0.697z m-2.033-3.011c-0.298 0.047-0.559 0.313-0.512 0.419 0.004 0.233 0.051 0.455 0.177 0.656 0.079 0.117 0.139 0.145 0.26 0.065a2.233 2.233 0 0 0 0.893-0.911c0.056-0.112-0.061-0.146-0.172-0.201-0.148-0.07-0.307-0.07-0.391-0.028-0.083 0.043-0.116 0.13-0.129 0.2-0.093 0.34-0.112 0.349-0.214 0.465a0.903 0.903 0 0 1 0.088-0.665z m2.015 12.773c0.018-0.038 0.027-0.066 0.059-0.07a0.701 0.701 0 0 1 0.2 0c0.265 0.074 0.512-0.116 0.759-0.155 0.056-0.004 0.116-0.013 0.181-0.004 0.163 0.004 0.326 0.01 0.508-0.037 0.074-0.028 0.172 0.01 0.256 0.047 0.283 0.125 0.558 0.195 0.832 0.033a4.273 4.273 0 0 1 0.443-0.266c0.255-0.098 0.279 0.07 0.288 0.168a0.242 0.242 0 0 1-0.14 0.144c-0.884 0.316-1.647 0.32-2.637 0.2a2.233 2.233 0 0 1-0.749-0.061z m-5.538-9.307a0.512 0.512 0 0 0 0.117 0.401l0.041 0.041-0.022 0.076a2.094 2.094 0 0 1-0.457-0.061c-0.065-0.024 0.116-0.121 0.131-0.233 0.033-0.228 0.093-0.605 0.093-0.879 0-0.047-0.117-0.093-0.117-0.14a0.168 0.168 0 0 1 0.056-0.093c0.326 0.079 0.371 0.074 0.438 0.228 0.065 0.139 0.125 0.371 0.222 0.54 0.019-0.01 0.047-0.019 0.061-0.034 0.015-0.153 0.009-0.377 0.015-0.479 0.009-0.083 0.045-0.125 0.135-0.124 0.07 0 0.242 0.004 0.311 0.018 0.009 0.015 0.009 0.028 0.009 0.047 0 0.046-0.056 0.06-0.07 0.065-0.154 0.056-0.163 0.07-0.232 0.497l-0.075 0.494c-0.009 0.037-0.019 0.112-0.041 0.163-0.043 0.004-0.117 0-0.131-0.037a7.079 7.079 0 0 0-0.382-0.777l-0.045-0.005c-0.038 0.101-0.038 0.199-0.062 0.297z m10.237 2.294a0.967 0.967 0 0 0 0-0.283c-0.056-0.157-0.126-0.311-0.103-0.452 0.07-0.242 0.12-0.493 0.098-0.745a3.136 3.136 0 0 1 0.028-0.929c0.083 0.028 0.148 0.083 0.168 0.139 0.022 0.098 0.045 0.196 0.045 0.283 0.034 0.265 0.011 0.522-0.004 0.777-0.042 0.503-0.084 0.968-0.069 1.462 0.009 0.074 0.022 0.172 0.046 0.242 0.065 0.153 0.034 0.311-0.088 0.483l-0.075-0.032c-0.056-0.209-0.195-0.493-0.255-0.716-0.01-0.042 0-0.074 0.056-0.085 0.092-0.018 0.153-0.074 0.157-0.139z m4.838-3.699c-0.205-0.018-0.414-0.199-0.4-0.525-0.101 0.139-0.227 0.279-0.34 0.33 0.01 0.112 0.284 0.27 0.475 0.349 0.108 0.144 0.187 0.214 0.326 0.372 0.084-0.214 0.187-0.396 0.219-0.512a1.652 1.652 0 0 0-0.163-0.759c-0.154-0.172-0.396-0.315-0.633-0.468-0.116 0.125 0.033 0.395 0.322 0.557a0.476 0.476 0 0 0 0.227 0.605z m-13.911-0.497c0.144-0.01 0.298-0.034 0.47-0.056 0.112-0.028 0.236-0.056 0.241-0.196 0.009-0.125-0.139-0.195-0.241-0.223a2.215 2.215 0 0 0-1.467 0.144 1.33 1.33 0 0 0-0.296 0.214c-0.112 0.121-0.09 0.196-0.006 0.261a1.106 1.106 0 0 0 0.4 0.186c0.024-0.102 0.047-0.27 0.079-0.372 0.159-0.261 0.606-0.308 0.917-0.317 0.074 0.015 0.074 0.107 0.014 0.126-0.088 0.07-0.265 0.056-0.312 0.131 0 0.079 0.074 0.107 0.201 0.097z m0.995 2.699c-0.004-0.056 0.061-0.126 0.065-0.164 0.015-0.074 0.015-0.177 0.015-0.256 0.009-0.2-0.034-0.525-0.034-0.721l0.108-0.069c0.037-0.013 0.065 0.009 0.107 0.046 0.093 0.093 0.304 0.326 0.4 0.415 0.009 0 0.022-0.024 0.028-0.028v-0.15a1.095 1.095 0 0 0-0.047-0.288c-0.037-0.126-0.125-0.214-0.027-0.224l0.381-0.028c-0.037 0.075-0.065 0.13-0.079 0.243-0.019 0.153-0.047 0.292-0.051 0.436 0.019 0.225 0.065 0.448 0.084 0.633 0 0.015-0.028 0.034-0.056 0.048a0.349 0.349 0 0 1-0.107-0.07c-0.187-0.187-0.317-0.36-0.559-0.587a0.205 0.205 0 0 0-0.033 0.102c0.047 0.144 0.107 0.307 0.205 0.442 0.061 0.084 0.075 0.112-0.079 0.169a0.729 0.729 0 0 1-0.316 0.045z m6.803 0.041c0.219-0.135 0.307-0.586 0.251-0.805a0.289 0.289 0 0 0-0.075-0.153c-0.07-0.07-0.148-0.047-0.185 0.074-0.042 0.172-0.061 0.358-0.085 0.521a1.628 1.628 0 0 0-0.492-0.014c-0.169 0.022-0.494 0.12-0.494 0.321 0 0.326 0.749 0.252 1.08 0.056z m1.312-2.252a0.372 0.372 0 0 0 0.093 0.261c0.335 0.349 0.795 0.712 1.089 0.781 0.261 0.07 0.479 0.224 0.637 0.433l0.153 0.209c0.112 0.139 0.256 0.233 0.452 0.261 0.033 0.009 0.074 0 0.113 0-0.029-0.117-0.029-0.13-0.113-0.214-0.689-0.615-1.419-1.094-2.131-1.592-0.07-0.042-0.196-0.125-0.293-0.139z m-7.193 7.91v-0.01c-0.07-0.292-0.15-0.577-0.224-0.86-0.056-0.102-0.157-0.028-0.148 0.013-0.074 0.21-0.15 0.419-0.214 0.638a0.307 0.307 0 0 0 0 0.196c0.111 0.307 0.214 0.609 0.334 0.916 0.019 0.042 0.075 0.07 0.107 0.093 0.028-0.037 0.071-0.079 0.078-0.115z m1.219-7.296c0.018 0.056 0.046 0.126 0.056 0.191 0.004 0.047 0.004 0.084-0.01 0.112-0.004 0.013-0.033 0.009-0.061-0.005-0.144-0.065-0.307-0.157-0.437-0.07-0.045 0.034-0.027 0.117 0.033 0.145l0.41 0.168c0.186 0.07 0.232 0.153 0.194 0.371-0.033 0.21-0.186 0.293-0.367 0.345-0.074 0.018-0.153 0.028-0.256 0.018-0.013 0.065 0.004 0.139-0.041 0.169-0.034 0.018-0.043 0.013-0.076 0.027a1.796 1.796 0 0 1-0.139-0.508c0-0.042 0.015-0.046 0.028-0.06 0.061 0.019 0.117 0.102 0.209 0.191 0.112 0.037 0.304 0.07 0.331 0.037 0.056-0.07 0.079-0.112 0.078-0.139 0-0.047-0.064-0.093-0.12-0.117-0.144-0.079-0.224-0.107-0.372-0.168-0.139-0.056-0.163-0.18-0.163-0.297 0-0.126 0.065-0.261 0.265-0.326 0.061-0.022 0.172-0.046 0.233-0.065a0.922 0.922 0 0 0 0.033-0.209c0.033-0.004 0.093-0.015 0.101 0.009zM3.003 4.129c-0.279 0-0.457-0.075-0.735-0.047-0.2 0.015-0.396 0.102-0.59 0.176-0.117 0.056-0.093 0.108 0.009 0.15a0.543 0.543 0 0 0 0.27 0.07c0.577-0.046 1.223-0.112 1.8-0.168 0.034-0.046 0.061-0.083 0.093-0.157-0.219-0.145-0.503-0.117-0.768-0.196z m6.626 8.612a0.588 0.588 0 0 0-0.135 0.121 0.363 0.363 0 0 1-0.116 0.084l-0.079-0.046 0.125-0.304c0.047-0.116 0.093-0.129 0.205-0.055l0.102 0.083c0.084 0.071 0.196 0.126 0.298 0.079 0.098-0.045 0.046-0.186-0.056-0.236-0.148-0.093-0.26-0.121-0.442-0.233-0.111-0.065-0.157-0.163-0.158-0.304 0-0.116 0.079-0.255 0.227-0.27 0.056-0.012 0.126-0.012 0.205-0.012 0.098 0 0.163-0.015 0.225-0.098 0.045-0.061 0.097-0.098 0.11-0.034a0.85 0.85 0 0 1-0.027 0.457c-0.034-0.009-0.056-0.009-0.084-0.022-0.089-0.141-0.205-0.206-0.303-0.192-0.093 0.013-0.139 0.083-0.069 0.158 0.126 0.13 0.302 0.2 0.451 0.284 0.214 0.116 0.2 0.279 0.173 0.396a0.302 0.302 0 0 1-0.313 0.251 0.593 0.593 0 0 1-0.339-0.107z m-0.423-0.427c0.018 0.358-0.27 0.488-0.475 0.483-0.191 0-0.304-0.043-0.367-0.233-0.034-0.112-0.07-0.452-0.094-0.576-0.037-0.047-0.102-0.065-0.2-0.094-0.046-0.009-0.051-0.047-0.061-0.089 0.07-0.033 0.196-0.07 0.285-0.083 0.205-0.034 0.205-0.019 0.236 0.168 0.029 0.214 0.061 0.437 0.103 0.651 0.07 0.209 0.292 0.163 0.293-0.014 0-0.169 0.01-0.359 0-0.535-0.033-0.043-0.092-0.13-0.158-0.191-0.079-0.093-0.084-0.121 0.028-0.163 0.26-0.101 0.279-0.168 0.315 0.176 0.015 0.13 0.094 0.331 0.095 0.499z m0.242 1.833l0.652-0.154c0.171-0.046 0.27-0.233 0.255-0.396-0.019-0.125-0.093-0.195-0.224-0.223a1.768 1.768 0 0 0-0.838 0.116c-0.022 0.224 0.056 0.466 0.155 0.652zM3.463 11.831a1.158 1.158 0 0 0-0.279 0.042 1.027 1.027 0 0 1-0.409 0.043c-0.093-0.01-0.242-0.071-0.33-0.094-0.098 0.009-0.196 0.098-0.233 0.236-0.018 0.141 0.065 0.238 0.219 0.267 0.311 0.07 0.605 0.125 0.893 0.125 0.112 0 0.126-0.013 0.13-0.107 0.015-0.177 0.009-0.326 0.009-0.512z m7.445-6.653a1.885 1.885 0 0 1-0.405-0.126c-0.046-0.013-0.079-0.126-0.078-0.185 0.013-0.163-0.028-0.326 0-0.499 0.013-0.093 0.065-0.121 0.153-0.102 0.126 0.028 0.243 0.056 0.363 0.093 0.157 0.064 0.396 0.501 0.326 0.656-0.07 0.139-0.196 0.157-0.354 0.168z m-2.684 7.626a0.466 0.466 0 0 1-0.13 0.126c-0.154 0.101-0.433 0.162-0.624 0.288-0.093 0.065-0.046-0.157-0.057-0.242l-0.096-0.521a0.679 0.679 0 0 0-0.169-0.28c-0.055-0.065 0.103-0.093 0.182-0.115l0.304-0.094c0.11-0.037 0.138 0.042 0.106 0.065-0.153 0.112-0.139 0.163-0.121 0.307 0.022 0.139 0.022 0.292 0.027 0.41 0.024 0.056 0.056 0.13 0.098 0.182 0.093-0.028 0.196-0.098 0.196-0.126l0.022-0.298c0.112-0.139 0.132-0.07 0.15-0.009 0.047 0.111 0.07 0.181 0.112 0.307z m0.461-3.304a8.644 8.644 0 0 1-0.178-0.618c-0.013-0.084 0.056-0.13 0.135-0.117 0.279 0.061 0.553 0.126 0.833 0.2 0.093 0.019 0.093 0.093 0.033 0.154a1.982 1.982 0 0 1-0.624 0.456c-0.126 0.07-0.13 0.019-0.2-0.075z m12.054-7.379a2.046 2.046 0 0 0-0.32-0.773c-0.126-0.157-0.279-0.172-0.419-0.028a1.079 1.079 0 0 0-0.121 0.141c-0.139 0.177-0.126 0.232 0.084 0.335 0.315 0.092 0.497 0.279 0.726 0.511zM5.954 20.198a1.303 1.303 0 0 0-0.418 0.372c-0.093 0.172-0.196 0.335-0.289 0.503-0.033 0.079-0.088 0.27-0.112 0.396l0.057 0.056a2.326 2.326 0 0 0 0.409-0.303c0.236-0.233 0.292-0.451 0.423-0.917l0.023-0.056zM26.458 1.066a5.206 5.206 0 0 0-0.455-0.735c-0.126-0.157-0.187-0.172-0.326-0.029a1.133 1.133 0 0 0-0.126 0.14c-0.139 0.172-0.223 0.387 0.004 0.419 0.196 0.033 0.461 0 0.587 0.088 0.116 0.075 0.218 0.154 0.27 0.182zM2.867 13.567c-0.036 0.341-0.027 0.341-0.027 0.578 0 0.129 0.061 0.129 0.177 0.14 0.107 0.004 0.139-0.093 0.163-0.219l0.07-0.47c0.019-0.153 0.028-0.242-0.066-0.256-0.172-0.024-0.302 0.083-0.316 0.227zM4.684 7.277a1.796 1.796 0 0 1-0.438-0.154c-0.232-0.12-0.455-0.371-0.418-0.604 0.019-0.108 0.079-0.141 0.172-0.089 0.178 0.132 0.326 0.326 0.456 0.466a0.92 0.92 0 0 1 0.233 0.381z m1.744 5.528c0.004 0.093 0.084 0.368 0.113 0.525 0.013 0.084 0.033 0.15 0.153 0.135 0.157-0.022 0.214-0.092 0.191-0.218-0.019-0.144-0.056-0.289-0.084-0.437-0.027-0.139-0.088-0.218-0.214-0.214-0.13 0.013-0.172 0.06-0.157 0.209z m6.916-8.78c-0.099 0.177-0.187 0.353-0.304 0.506-0.088 0.126-0.227 0.206-0.353 0.313-0.121 0.033-0.126 0.022-0.084-0.098 0.182-0.298 0.354-0.531 0.55-0.787 0.139-0.074 0.191-0.013 0.185 0.066z m9.333 4.83c0 0.112-0.019 0.214-0.057 0.32l-0.028 0.015c-0.144-0.363-0.493-0.949-0.469-1.01-0.01-0.042 0.083-0.065 0.125-0.056l0.159 0.065c0.093 0.214 0.187 0.418 0.27 0.666z m1.014-7.71c0.019 0.004 0.074 0.019 0.117 0.056 0.07 0.056 0.079 0.12-0.015 0.157-0.218 0.103-0.586 0.298-0.823 0.387-0.047 0.022-0.098 0.028-0.079-0.056 0.045-0.139 0.604-0.544 0.8-0.544z m-7.961 10.111c-0.153 0-0.283 0.121-0.284 0.241 0.004 0.135 0.177 0.279 0.33 0.279 0.141 0 0.237-0.092 0.237-0.233 0.01-0.166-0.111-0.288-0.283-0.287zM3.463 22.995c-0.031 0-0.092 0.102-0.144 0.107-0.186 0.015-0.251 0.034-0.25 0.112 0 0.107 0.056 0.162 0.144 0.135 0.279-0.084 0.344-0.075 0.707-0.047l0.126-0.149c-0.043-0.037-0.074-0.084-0.126-0.098a2.08 2.08 0 0 0-0.457-0.06zM19.851 9.604c-0.061 0.037-0.111 0.074-0.092 0.144l0.045 0.112c0.108-0.019 0.229-0.028 0.34-0.019 0.148 0.046 0.4 0.102 0.559 0.131 0.037 0.009 0.083-0.034 0.111-0.07 0.009-0.004-0.019-0.034-0.033-0.061-0.214-0.214-0.571-0.218-0.93-0.233zM9.6 4.9l-0.381-0.168c-0.022-0.013-0.037-0.083-0.013-0.112 0.083-0.125 0.172-0.242 0.26-0.353 0.047-0.047 0.084-0.042 0.107 0.018l0.192 0.475c0.036 0.093-0.006 0.13-0.165 0.14zM4.594 9.576c0.093-0.018 0.139 0.037 0.126 0.121-0.01 0.046-0.024 0.065-0.097 0.101a1.683 1.683 0 0 1-0.847 0.03c-0.093-0.015-0.154-0.034-0.169-0.057a0.177 0.177 0 0 1 0.108-0.074z m2.671-7.468c-0.028 0.009-0.061 0.033-0.079 0.018-0.247-0.139-0.6-0.326-0.824-0.47-0.051-0.074-0.018-0.101 0.052-0.092 0.181 0.06 0.498 0.153 0.679 0.223 0.117 0.056 0.154 0.163 0.172 0.321z m3.793 5.435c0.027 0.042 0.056 0.083-0.024 0.209-0.126 0.196-0.157 0.396-0.242 0.666a0.725 0.725 0 0 1-0.084 0.157c-0.028 0.028-0.07 0.038-0.101 0.056-0.011-0.033-0.029-0.074-0.024-0.101l0.251-0.821c0.037-0.097 0.112-0.148 0.224-0.166z m9.086-2.746a4.513 4.513 0 0 1-0.977-0.344c-0.107-0.092-0.089-0.088 0.052-0.092l0.916 0.246c0.177 0.135 0.139 0.13 0.009 0.185z m-3.782 5.826a0.311 0.311 0 0 0-0.14-0.172c-0.047-0.028-0.135-0.013-0.186 0.028a0.964 0.964 0 0 0-0.149 0.13c-0.07 0.098-0.028 0.196 0.083 0.274 0.093 0.065 0.196 0.061 0.257-0.028 0.056-0.07 0.107-0.121 0.135-0.232zM10.228 6.128c-0.033 0.07-0.042 0.139-0.089 0.191-0.125 0.148-0.264 0.292-0.399 0.438-0.135 0.06-0.141-0.024-0.126-0.09 0.126-0.232 0.302-0.427 0.465-0.619 0.018-0.018 0.07-0.031 0.093-0.018 0.024 0.013 0.037 0.046 0.056 0.094zM4.971 4.849c-0.033 0.022-0.525-0.744-0.586-0.903 0-0.028 0.079-0.083 0.121-0.116a0.219 0.219 0 0 1 0.084 0.074c0.157 0.335 0.433 0.903 0.409 0.925zM4.763 7.915l-0.209-0.093c-0.154 0.034-0.28 0.102-0.452 0.121-0.181 0.013-0.255-0.024-0.326-0.07 0.029-0.056 0.126-0.112 0.27-0.139 0.084-0.015 0.452-0.047 0.773-0.019zM23.699 4.005l0.539 0.405c0.056 0.037 0.047 0.112 0.07 0.157l-0.12-0.013c-0.233-0.116-0.475-0.209-0.629-0.437-0.13-0.191 0.084-0.168 0.14-0.112z m-13.67 0.666l-0.061 0.093c-0.022-0.028-0.056-0.056-0.07-0.093-0.046-0.093-0.046-0.2-0.056-0.298-0.027-0.233-0.013-0.359 0.126-0.498 0.056-0.065 0.102-0.028 0.102 0.034 0.01 0.292-0.004 0.473-0.041 0.762zM6.567 3.825c0.052 0.018 0.141 0.572 0.2 0.856a0.632 0.632 0 0 1 0 0.209c-0.022 0.065-0.046 0.079-0.101 0.023-0.093-0.292-0.141-0.59-0.187-0.87-0.019-0.083-0.019-0.172 0.088-0.218zM22.349 7.187c0.224 0.126 0.484 0.349 0.592 0.481 0.028 0.027 0.013 0.101 0 0.157-0.037-0.013-0.079-0.018-0.107-0.042-0.187-0.116-0.359-0.247-0.531-0.367-0.022-0.018-0.028-0.153-0.046-0.181a0.196 0.196 0 0 1 0.092-0.048zM12.173 2.397c0.038 0.024 0.056 0.047 0.08 0.079a0.196 0.196 0 0 1-0.079 0.084c-0.159 0.061-0.526 0.061-0.679-0.028a0.475 0.475 0 0 1-0.079-0.092l0.106-0.061a1.451 1.451 0 0 1 0.652 0.023z m4.189 0.894c0.148 0.233 0.214 0.455 0.279 0.708 0 0.013-0.009 0.018-0.009 0.056-0.037-0.024-0.056-0.028-0.07-0.048a1.303 1.303 0 0 1-0.372-0.613c-0.019-0.056-0.01-0.102 0.059-0.144a0.252 0.252 0 0 1 0.113 0.041zM13.466 19.217c0.177-0.102 0.228-0.181 0.386-0.279 0.065-0.037 0.056-0.047 0.024-0.108-0.037-0.07-0.07-0.07-0.163-0.045-0.172 0.06-0.242 0.101-0.419 0.171-0.074 0.028-0.102 0.061-0.022 0.117zM8.019 2.718c0.214-0.15 0.446-0.228 0.684-0.317 0.037-0.009 0.093 0.006 0.135 0.042l-0.084 0.075c-0.186 0.13-0.371 0.233-0.549 0.339a1.105 1.105 0 0 1-0.186-0.032 0.139 0.139 0 0 1 0-0.107zM2.458 7.277c-0.052-0.251-0.121-0.559-0.079-0.781a0.32 0.32 0 0 1 0.097-0.14c0.047 0.042 0.093 0.074 0.098 0.116 0.047 0.261-0.028 0.559-0.046 0.801z m12.11-5.615a3.969 3.969 0 0 1 0.63-0.368 2.35 2.35 0 0 1-0.643 0.684c-0.013-0.093-0.046-0.261 0.014-0.316z m-2.977 9.72c0 0.101 0.047 0.214 0.13 0.292 0.047-0.037 0.084-0.107 0.084-0.14 0.018-0.196 0.033-0.396 0.033-0.6 0.022-0.079-0.093-0.101-0.121-0.018-0.046 0.153-0.12 0.307-0.126 0.466z m10.217 8.048l-0.86 0.289c0.2 0.228 0.781 0.042 0.86-0.289zM9.137 3.797c0.013 0.228-0.028 0.512-0.154 0.721-0.013 0.028-0.046 0.047-0.083 0.074-0.015-0.042-0.056-0.074-0.047-0.101 0.047-0.234 0.107-0.513 0.163-0.745 0.009-0.013 0.046-0.028 0.065-0.033z m12.051 16.453c0.186 0 0.363-0.006 0.502-0.047 0.125-0.079 0.12-0.242 0.163-0.353l-0.047-0.015-0.204 0.187a2.9 2.9 0 0 1-0.419 0.083 0.29 0.29 0 0 0-0.065 0.084c0.022 0.033 0.046 0.056 0.074 0.061z m-1.722-9.223c0.061-0.135 0.116-0.255 0.163-0.382 0.009-0.027-0.034-0.097-0.084-0.143a0.363 0.363 0 0 0-0.101 0.046 1.861 1.861 0 0 0-0.27 0.41c0.018 0.034 0.11 0.034 0.288 0.069zM5.06 7.384l0.181-0.465c0.034-0.009 0.061-0.009 0.084 0.005 0.027 0.139 0.004 0.362-0.01 0.45-0.027 0.127-0.074 0.201-0.185 0.256a0.758 0.758 0 0 1-0.07-0.246z m10.502 3.415c-0.127 0-0.225 0.075-0.234 0.187 0 0.093 0.102 0.181 0.214 0.181 0.117-0.009 0.206-0.092 0.214-0.195 0-0.112-0.069-0.173-0.195-0.173z m-0.112 1.145c0-0.125-0.074-0.209-0.209-0.209-0.108 0-0.187 0.07-0.187 0.168 0 0.11 0.117 0.223 0.233 0.214 0.102 0 0.163-0.075 0.163-0.173z m-0.47-1.172c0 0.101-0.065 0.162-0.163 0.162-0.13 0-0.228-0.079-0.229-0.2 0-0.092 0.093-0.186 0.187-0.186 0.098-0.009 0.205 0.083 0.205 0.224z m0.083 0.465c-0.111 0-0.186 0.07-0.186 0.163 0 0.098 0.101 0.187 0.21 0.186 0.083 0 0.163-0.089 0.163-0.186 0.004-0.088-0.079-0.163-0.187-0.163z m-1.223 8.319c-0.144 0-0.27 0.07-0.266 0.149 0.009 0.079 0.121 0.187 0.209 0.186 0.093 0 0.145-0.098 0.145-0.223-0.004-0.092 0-0.111-0.088-0.112zM4.971 1.95c-0.07-0.279-0.037-0.531 0.034-0.814 0.116 0.242 0.124 0.633-0.034 0.814z m10.469 8.152c-0.074 0.046-0.139 0.12-0.13 0.153 0.009 0.056 0.07 0.107 0.107 0.163a0.304 0.304 0 0 0 0.126-0.149c0.013-0.034-0.056-0.093-0.108-0.168z"/></svg>