<svg fill="#7F7FFF" role="img" viewBox="0 0 29 24" xmlns="http://www.w3.org/2000/svg"><title>EndeavourOS</title><path d="M16.945 0v0.003C16.069 0.123 0.049 19.779 0.049 19.779s1.152 0.328 3.775 0.708c0 0 12.567-20.546 13.132-20.482-0.001 0-0.012-0.007-0.012-0.005zM3.824 20.487c-1.144 1.881-2.059 3.394-2.059 3.394s12.305 0.554 21.876-0.73c13.618-1.826-2.799-19.22-6.668-23.138 3.061 4.046 16.225 21.377 2.961 21.6-4.685 0.079-16.109-1.126-16.11-1.126z m13.134-20.484v0.002c0.026 0.012 0 0.002 0-0.002z m-0.044 0.96c-0.066 0.088-0.108 0.135-0.188 0.247a73.93 73.93 0 0 0-1.548 2.288 429.689 429.689 0 0 0-4.483 7.035c-2.948 4.706-5.379 8.68-5.836 9.425 1.245 0.129 10.776 1.126 15.063 1.053 1.592-0.026 2.739-0.313 3.523-0.75 0.785-0.437 1.231-1.01 1.479-1.742 0.497-1.466 0.076-3.669-0.906-6.043-1.851-4.469-5.401-9.256-7.104-11.513z"/></svg>