<svg fill="#0D47A1" role="img" viewBox="0 0 28 24" xmlns="http://www.w3.org/2000/svg"><title>Enpass</title><path d="M14.026 0.003c3.028 0 6.056-0.009 9.084 0.004a4.323 4.323 0 0 1 3.335 1.472A4.188 4.188 0 0 1 27.501 4.065a10.871 10.871 0 0 1-0.313 2.609c-0.402 2.311-0.82 4.617-1.231 6.925-0.354 1.987-0.693 3.978-1.066 5.963-0.522 2.293-2.395 4.033-4.72 4.386a7.117 7.117 0 0 1-0.836 0.049c-3.539 0.003-7.079 0.003-10.617 0-2.76-0.006-5.12-1.988-5.601-4.706A3997.45 3997.45 0 0 0 0.973 7.398C0.831 6.613 0.675 5.832 0.563 5.041c-0.402-2.306 1.127-4.507 3.43-4.933a5.629 5.629 0 0 1 1.092-0.1c2.98-0.008 5.96-0.01 8.941-0.005zM11.623 18.776c-0.034 0.772 0.601 1.407 1.373 1.373h1.966c0.829 0.08 1.525-0.617 1.444-1.446 0-1.55 0-3.1-0.008-4.649a0.433 0.433 0 0 1 0.246-0.434c1.914-1.134 2.841-3.403 2.267-5.553-0.743-2.674-3.491-4.259-6.177-3.562a4.736 4.736 0 0 0-3.414 2.813c-0.894 2.349-0.005 5.003 2.124 6.34a0.326 0.326 0 0 1 0.184 0.322c-0.008 1.665-0.005 3.044-0.005 4.796Z"/></svg>