<svg fill="#AC6199" role="img" viewBox="0 0 33 24" xmlns="http://www.w3.org/2000/svg"><title>Envoy Proxy</title><path d="M31.727 6.087l-9.482-5.874a1.387 1.387 0 0 0-1.127-0.157c-0.027 0.013-0.07 0.028-0.099 0.043L11.765 4.091a0.932 0.932 0 0 0-0.584 0.912l0.228 9.867c0.013 0.4 0.256 0.798 0.642 1.027l9.482 5.876c0.342 0.213 0.77 0.27 1.127 0.155 0.027-0.013 0.071-0.028 0.099-0.043l9.254-3.992a0.946 0.946 0 0 0 0.585-0.912l-0.228-9.868c-0.015-0.398-0.258-0.783-0.643-1.026m-9.639 13.475l-8.241-5.105-0.2-8.57 8.043-3.465 8.241 5.105 0.2 8.569z m0.015-8.086a1.116 1.116 0 0 0-0.556-0.899l-6.788-4.205-0.213 0.085 0.043 2.04 5.375 3.336 0.128 5.447 2.052 1.269 0.116-0.043z m-8.127 9.568L7.658 17.137l-0.155-6.56 2.879-1.239-0.057-2.267-4.463 1.925a0.82 0.82 0 0 0-0.512 0.798l0.185 7.7c0 0.356 0.215 0.698 0.555 0.899l7.4 4.591c0.301 0.185 0.671 0.241 0.985 0.142a0.201 0.201 0 0 1 0.086-0.028l4.362-1.882-2.168-1.342z m-3.508-8.183l-2.039-1.271 0.042 1.94 2.04 1.269z m2.938 6.787l-0.043-1.897-1.783-1.114c-0.028-0.013-0.056-0.042-0.071-0.056l0.043 1.911z m-6.374 2.551l-4.663-2.895-0.114-4.847 2.28-0.985-0.041-1.938-3.649 1.569a0.707 0.707 0 0 0-0.443 0.685l0.142 5.817c0 0.299 0.185 0.598 0.47 0.77l5.59 3.463a1.103 1.103 0 0 0 0.841 0.129c0.028-0.013 0.058-0.013 0.086-0.028l3.436-1.484-1.868-1.153Z"/></svg>