<svg fill="#FC0000" role="img" viewBox="0 0 30 24" xmlns="http://www.w3.org/2000/svg"><title>EPEL</title><path d="M1.058 0.106c-1.466 0.136-1.086 0.19 2.443 0.352 7.006 0.299 11.159 1.412 14.01 3.694 1.52 1.249 2.699 3.882 2.699 3.882s-4.491 1.032-9.622 2.036c-5.132 1.004-9.206 1.9-9.041 1.955 0.434 0.136 6.434-0.597 12.734-1.575l6.009-0.905c0.096-0.015 0.044 0.486 0.045 0.634 0 1.357-1.385 3.638-3.448 5.675-3.394 3.312-8.173 5.783-14.282 7.357-1.683 0.434-2.715 0.787-2.334 0.788 1.466 0.054 7.086-1.602 9.637-2.797 3.313-1.575 5.431-3.095 8.01-5.755 1.826-2.273 3.695-3.45 3.772-6.191l3.776-0.625c2.01-0.326 3.829-0.679 4.047-0.76 0.297-0.109 0.352-0.434 0.243-1.249-0.19-1.493-1.357-2.661-3.719-3.747-3.584-1.656-7.256-1.978-9.184-0.839-0.213 0.125-0.464 0.515-0.659 0.599a1332.374 1332.374 0 0 0-2.918-1.063C9.53 0.296 4.94-0.247 1.058 0.106z m23.486 3.421c2.009 0.597 5.158 2.485 4.679 2.58l-3.783 0.741-4.179 0.953c-0.795-1.771-1.84-2.754-3.243-4.079l0.165-0.403c0.397-0.982 3.129-0.743 6.361 0.208z"/></svg>