<svg fill="#0082F0" role="img" viewBox="0 0 18 24" xmlns="http://www.w3.org/2000/svg"><title>Ericsson</title><path d="M17.76 1.593A2.36 2.36 0 0 0 16.572 0.225c-0.54-0.27-1.188-0.336-2.256 0.02L2.187 4.29c-1.068 0.357-1.548 0.795-1.818 1.338a2.36 2.36 0 0 0 1.059 3.174c0.54 0.27 1.188 0.336 2.256-0.021l12.129-4.044c1.068-0.354 1.548-0.795 1.818-1.338a2.35 2.35 0 0 0 0.13-1.806z m0 7.485a2.36 2.36 0 0 0-1.188-1.368c-0.54-0.27-1.188-0.336-2.256 0.021L2.187 11.775c-1.068 0.357-1.548 0.795-1.818 1.338a2.36 2.36 0 0 0 1.059 3.174c0.54 0.27 1.188 0.336 2.256-0.021l12.129-4.041c1.068-0.357 1.548-0.795 1.818-1.341a2.35 2.35 0 0 0 0.13-1.806z m0 7.488a2.36 2.36 0 0 0-1.188-1.368c-0.54-0.27-1.188-0.336-2.256 0.021L2.187 19.263c-1.068 0.357-1.548 0.795-1.818 1.338a2.36 2.36 0 0 0 1.059 3.174c0.54 0.27 1.188 0.336 2.256-0.02l12.129-4.045c1.068-0.354 1.548-0.795 1.818-1.338a2.35 2.35 0 0 0 0.13-1.806z"/></svg>