<svg fill="#A90533" role="img" viewBox="0 0 38 24" xmlns="http://www.w3.org/2000/svg"><title>Erlang</title><path d="M14.038 5.506c0.243-2.943 2.564-4.921 5.283-4.928 2.739 0.006 4.717 1.984 4.785 4.928z m19.131 18.494c1.267-1.359 2.401-2.957 3.431-4.787l-5.712-2.854c-2.006 3.261-4.94 6.264-8.995 6.282-5.905-0.019-8.224-5.068-8.212-11.567h22.063c0.03-0.733 0.03-1.074 0-1.428 0.144-3.866-0.882-7.115-2.744-9.646l-0.011 0.008H37.957v23.99h-4.801z m-27.182-0.002C3.046 20.878 1.324 16.572 1.327 11.431c-0.003-4.545 1.425-8.452 3.88-11.425H0.043v23.992h5.941Z"/></svg>