<svg fill="#4B32C3" role="img" viewBox="0 0 28 24" xmlns="http://www.w3.org/2000/svg"><title>ESLint</title><path d="M8.599 8.735L13.789 5.739a0.42 0.42 0 0 1 0.419 0l5.19 2.996a0.42 0.42 0 0 1 0.21 0.364v5.992a0.421 0.421 0 0 1-0.21 0.363l-5.19 2.996a0.42 0.42 0 0 1-0.419 0l-5.19-2.996a0.42 0.42 0 0 1-0.209-0.364V9.099a0.421 0.421 0 0 1 0.209-0.364M27.491 11.465l-6.2-10.787c-0.225-0.39-0.642-0.678-1.092-0.678H7.8c-0.451 0-0.867 0.288-1.093 0.678L0.508 11.441a1.283 1.283 0 0 0 0 1.272l6.2 10.698c0.224 0.389 0.641 0.589 1.092 0.589h12.401c0.45 0 0.865-0.194 1.092-0.583l6.199-10.716a1.217 1.217 0 0 0 0-1.236m-5.134 5.187a0.455 0.455 0 0 1-0.232 0.384L14.227 21.592a0.45 0.45 0 0 1-0.447 0l-7.904-4.556a0.455 0.455 0 0 1-0.233-0.384V7.537c0-0.159 0.094-0.306 0.232-0.384L13.771 2.597c0.137-0.08 0.31-0.08 0.446 0l7.904 4.557a0.455 0.455 0 0 1 0.235 0.385z"/></svg>