<svg fill="#000000" role="img" viewBox="0 0 32 24" xmlns="http://www.w3.org/2000/svg"><title>ESPHome</title><path d="M9.839 0.001c-0.877 0-1.598 0.72-1.598 1.599v1.267h-0.108a0.937 0.937 0 0 0-0.93 0.929v15.163H1.346v-0.74h4.6a0.461 0.461 0 0 0 0.46-0.459v-1.66a0.461 0.461 0 0 0-0.46-0.461H1.345v-0.734h4.6a0.461 0.461 0 0 0 0.459-0.46v-1.659a0.461 0.461 0 0 0-0.459-0.461H1.345v-0.738h4.6a0.461 0.461 0 0 0 0.459-0.461V9.47a0.461 0.461 0 0 0-0.459-0.46H1.345V4.36a0.461 0.461 0 0 0-0.461-0.461 0.461 0.461 0 0 0-0.459 0.461v5.11a0.461 0.461 0 0 0 0.459 0.46h4.6v0.735H0.884a0.461 0.461 0 0 0-0.459 0.461v1.66a0.461 0.461 0 0 0 0.459 0.459h4.6v0.74H0.884a0.461 0.461 0 0 0-0.459 0.46v1.655a0.461 0.461 0 0 0 0.459 0.46h4.6v0.74H0.884a0.461 0.461 0 0 0-0.459 0.46v1.658a0.461 0.461 0 0 0 0.459 0.461h6.319v0.112c0 0.505 0.419 0.929 0.93 0.929h0.108v1.48c0 0.879 0.72 1.6 1.598 1.6 0.879 0 1.6-0.722 1.6-1.599v-1.48h0.619v1.476c0 0.877 0.722 1.599 1.599 1.599 0.879 0 1.599-0.722 1.599-1.599v-1.477h0.625v1.477c0 0.877 0.722 1.599 1.599 1.599 0.877 0 1.6-0.722 1.6-1.599v-1.477h0.623v1.477c0 0.877 0.722 1.599 1.599 1.599 0.879 0 1.599-0.722 1.599-1.599v-1.477h0.624v1.477c0 0.877 0.722 1.599 1.599 1.599 0.877 0 1.6-0.722 1.601-1.599v-1.477h0.619v1.477c0 0.877 0.72 1.599 1.598 1.599 0.879 0 1.6-0.722 1.6-1.599v-1.477h0.103c0.506 0 0.931-0.419 0.93-0.929V3.796a0.938 0.938 0 0 0-0.927-0.929h-0.106v-1.271c0-0.877-0.722-1.598-1.599-1.596h-0.001c-0.877 0.001-1.598 0.723-1.598 1.6v1.267h-0.619v-1.272c0-0.876-0.723-1.596-1.601-1.594h-0.001c-0.877 0-1.596 0.722-1.596 1.599v1.267h-0.626v-1.267c0-0.879-0.72-1.599-1.599-1.599-0.877 0-1.599 0.72-1.599 1.599v1.267h-0.623v-1.267c0-0.879-0.723-1.599-1.6-1.599s-1.599 0.72-1.599 1.599v1.267h-0.623v-1.267c0-0.879-0.722-1.599-1.601-1.599-0.877 0-1.599 0.72-1.599 1.599v1.267h-0.619v-1.267c0-0.879-0.722-1.599-1.6-1.599z m0 0.928a0.662 0.662 0 0 1 0.671 0.671v1.267H9.169v-1.267a0.662 0.662 0 0 1 0.67-0.671z m3.818 0a0.662 0.662 0 0 1 0.671 0.671v1.267H12.988v-1.267a0.662 0.662 0 0 1 0.669-0.671z m3.823 0a0.662 0.662 0 0 1 0.669 0.671v1.267h-1.339v-1.267a0.662 0.662 0 0 1 0.67-0.671z m3.822 0a0.662 0.662 0 0 1 0.671 0.671v1.267h-1.341v-1.267a0.662 0.662 0 0 1 0.67-0.671z m3.822 0h0.002a0.658 0.658 0 0 1 0.668 0.666v1.272h-1.339v-1.267a0.662 0.662 0 0 1 0.669-0.671z m3.819 0.002h0.001a0.658 0.658 0 0 1 0.669 0.665v1.271h-1.34v-1.267a0.662 0.662 0 0 1 0.67-0.669zM8.236 3.899h22.306v15.989H8.236z m11.201 3.604a0.418 0.418 0 0 0-0.304 0.124l-4.901 4.906a0.418 0.418 0 0 0 0.296 0.714h0.805v2.888a0.418 0.418 0 0 0 0.419 0.417h7.359a0.418 0.418 0 0 0 0.418-0.417V13.247h0.806a0.418 0.418 0 0 0 0.296-0.714l-1.111-1.115v-1.99a0.418 0.418 0 0 0-0.418-0.419h-0.767a0.418 0.418 0 0 0-0.419 0.419v0.39L19.725 7.627a0.418 0.418 0 0 0-0.287-0.124z m-10.267 13.417H10.51v1.48a0.662 0.662 0 0 1-0.671 0.671 0.662 0.662 0 0 1-0.67-0.67z m3.816 0h1.342v1.477a0.662 0.662 0 0 1-0.671 0.67 0.662 0.662 0 0 1-0.669-0.67z m3.824 0h1.339v1.477a0.662 0.662 0 0 1-0.669 0.67 0.662 0.662 0 0 1-0.67-0.67z m3.822 0h1.341v1.477a0.662 0.662 0 0 1-0.671 0.67 0.662 0.662 0 0 1-0.67-0.67z m3.823 0h1.339v1.477a0.662 0.662 0 0 1-0.67 0.67 0.662 0.662 0 0 1-0.669-0.67z m3.817 0h1.341v1.477a0.662 0.662 0 0 1-0.671 0.67 0.662 0.662 0 0 1-0.67-0.67z"/></svg>