<svg fill="#000000" role="img" viewBox="0 0 24 24" xmlns="http://www.w3.org/2000/svg"><title>ESRI</title><path d="M11.639 0.003c-1.581 0.037-3.043 0.445-4.535 1.062-2.071 0.873-4.706 2.881-6.312 6.671-0.376 1.056-1.879 6.09 0.792 10.412 2.167 3.507 4.957 5.177 8.371 5.654 3.407 0.475 5.255 0.064 7.41-0.893 5.039-2.237 8.887-10.634 5.038-16.72-1.519-2.81-5.498-5.275-9.855-5.084v0.002c-1.03-0.032-1.636 0.102-2.246 0.22-0.183-0.047-0.526 0.003-0.545 0.4 0 0.213 0.068 0.379 0.204 0.477 0.135 0.097 1.264 0.931 2.094 1.813-0.398 0.044-0.83 0.116-1.274 0.208-0.495-1.07-2.086-0.097-3.144-0.055-0.124 0.006-0.243 0.024-0.365 0.03-0.116-0.894-0.199-1.821-0.178-2.473C8.464 0.951 11.115 0.378 12.915 0.35l0.315-0.008c0.264-0.003 0.285-0.212 0.036-0.246-0.559-0.076-1.1-0.105-1.627-0.093z m-0.192 1.53c3.911-0.017 7.35 1.641 8.925 3.57-0.56-0.291-1.766-0.707-2.258-0.816-0.265-0.27-0.599-0.49-0.888-0.676-0.229-0.146-0.514-0.091-0.396 0.163 0.045 0.099 0.219 0.267 0.362 0.435-0.835-0.23-3.054-0.406-4.111-0.309-0.69-0.776-1.477-1.716-2.423-2.341 0.265-0.016 0.529-0.025 0.789-0.026z m-4.856 0.426c-0.013 0.339 0.074 1.328 0.186 2.282-0.483 0.048-0.961 0.108-1.433 0.178a10.231 10.231 0 0 0-2.637 3.46c-0.099-0.892-0.151-1.635-0.113-2.092 1.112-1.556 2.62-3.072 3.997-3.828Zm8.418 2.649c0.488 0.017 0.988 0.052 1.466 0.101-0.859 0.307-1.237 1.061-1.658 1.662-0.009 0.013-0.024 0.023-0.034 0.034a19.522 19.522 0 0 0-1.165-1.787c0.426-0.026 0.903-0.027 1.391-0.01z m-2.375 0.121a13.327 13.327 0 0 1 1.48 2.153c-0.682 0.33-1.591 0.582-1.96 1.11-0.153 0.22-0.191 0.519-0.196 0.842a19.973 19.973 0 0 0-3.283 1.089c-0.384-1.128-0.719-2.252-0.951-3.253 1.097-1.047 2.38-1.217 2.91-1.628a15.032 15.032 0 0 1 2-0.313z m6.89 0.634c0.451 0.171 1.029 0.407 1.486 0.657 0.347 0.437 1.341 1.418 1.871 4.165 0.478 2.474-0.05 4.354-0.212 4.898l-0.163 0.64c-0.116 0.436-0.502 1.466-0.705 1.882 0.077-0.561 0.145-2.019 0.125-2.312 0.135 0.042 0.424-0.123 0.473-0.286 0.048-0.165-0.476-0.42-0.477-0.42a17.562 17.562 0 0 0-0.145-2.286c0.12-0.195 0.242-0.383 0.367-0.555a10.23 10.23 0 0 0-0.157-1.333c0.106 0.035 0.202 0.062 0.273 0.063 0.24 0.003 0.24-0.161 0.163-0.253-0.049-0.059-0.278-0.201-0.545-0.355a10.177 10.177 0 0 0-2.354-4.505ZM1.869 7.005s0.052 0.896 0.095 1.551c0 0-0.662 0.751-1 1.346 0.135-1.222 0.423-1.851 0.905-2.897Zm5.352 0.232c0.198 1.001 0.435 1.828 0.751 2.978-1.187 0.523-3.287 1.818-4.213 2.516-0.168-0.425-0.342-1.028-0.499-1.647 0.211-0.624 0.642-1.06 1.25-1.121 1.04-0.104 1.93-1.652 2.663-2.665 0.016-0.022 0.033-0.039 0.048-0.061z m-5.152 2.241l0.014 0.111c-0.195 0.737-0.315 1.502-0.34 2.294 0.313 0.33 0.682 0.879 1.091 1.446-0.262 0.195-0.768 0.543-0.887 0.628-0.347 0.247-0.342 0.636-0.095 0.858 0.136 0.122 0.416 0.071 0.519-0.01 0.303-0.241 0.555-0.433 0.903-0.65 0.127 0.333 0.247 0.633 0.363 0.918-0.148 0.159-0.253 0.37-0.288 0.677-0.114 0.992 0.828 1.77 1.623 1.997 0.03 0.01 0.05 0.014 0.079 0.02 0.042 0.064 0.08 0.124 0.125 0.19-0.412 0.32-0.695 0.646-0.888 0.898-0.112 0.146-0.237 0.365-0.136 0.408 0.104 0.042 0.454 0.001 0.61-0.028 0.395-0.076 0.699-0.514 0.971-0.675 0.328 0.452 0.861 1.032 1.416 1.591 0.025 0.102 0.047 0.21 0.074 0.299 0.106 0.341 0.249 0.68 0.42 1.012 0.399 0.186 0.815 0.34 1.24 0.474a7.065 7.065 0 0 0-0.527 0.61c-3.426-1.073-5.963-3.96-6.869-6.988a14.796 14.796 0 0 1-0.551-5.48c0.047 0.01 0.157 0.061 0.321 0.016 0.114-0.079 0.523-0.363 0.812-0.616z m9.891 0.182c-0.007 0.282-0.037 0.55-0.153 0.765-0.166 0.31-0.09 1.208 0.113 1.503 0.639 0.93 1.701 0.413 2.499 0.747 0.367 0.153 0.61 0.408 0.816 0.71-1.671 0.105-3.311 0.496-4.832 1.196C9.622 12.921 8.948 10.75 8.948 10.75v-0.002c0.948-0.449 1.946-0.819 3.012-1.088ZM8.203 11.078c0.423 1.262 1.029 2.95 1.447 3.852-0.059 0.029-0.123 0.062-0.183 0.093a34.547 34.547 0 0 0-2.757-0.66c-0.842-0.173-0.873-0.128-1.821 0.147-0.135 0.039-0.266 0.075-0.391 0.113a30.624 30.624 0 0 1-0.376-1.018c1.216-0.936 2.441-1.723 4.081-2.527Zm13.136 1.976c0.052 0.463 0.087 0.916 0.109 1.325a7.837 7.837 0 0 0-0.656-0.249c0.166-0.345 0.35-0.712 0.547-1.076z m-5.611 1.175c0.161 0.279 0.34 0.559 0.585 0.81 0.641 0.655-0.372 1.595-0.08 3.449h-0.003c-0.3 0.032-0.598 0.069-0.86 0.109-0.652 0.102-1.492 0.323-2.273 0.613-0.449-0.714-1.65-2.449-2.258-3.757 1.221-0.6 2.926-1.104 4.889-1.224z m4.755 0.556c0.354 0.1 0.687 0.207 0.975 0.325 0.036 0.522 0.035 2.311-0.067 3.184-0.102 0.214-0.363 0.583-0.537 0.757-0.264-0.107-0.66-0.22-1.076-0.319 0.066-0.08 0.139-0.154 0.204-0.236 0.227-1.521-0.286-2.006 0.355-3.398z m-9.67 2.378c0.482 0.811 1.057 1.693 1.502 2.383-0.693 0.336-1.499 0.856-2.261 1.427 0.052-0.878 0.071-1.747 0.248-2.209 0.248-0.648 0.44-1.128 0.511-1.601z m8.545 2.053c0.463 0.053 0.925 0.131 1.208 0.202-0.627 0.792-1.492 1.453-2.413 2.028 0.02-0.345 0.033-0.78 0.044-1.182 0.412-0.32 0.802-0.669 1.161-1.048z m-2.952 0.011c0.092 0.29 0.213 0.597 0.378 0.926 0.161 0.323 0.348 0.559 0.549 0.721 0.072-0.045 0.139-0.097 0.21-0.143-0.005 0.356-0.015 0.716-0.036 1.064-0.242 0.16-1.41 0.689-1.868 0.836a19.838 19.838 0 0 1-2.066-2.71c0.715-0.3 1.814-0.568 2.833-0.694z m-3.628 1.001c0.34 0.533 1.46 2.123 1.91 2.635-0.815 0.142-1.956 0.249-2.859 0.21 0 0-1.357-0.9-1.7-1.246 0.68-0.565 1.78-1.235 2.649-1.599zM9.622 22.282c0.396 0.262 0.819 0.563 1.157 0.757-0.521-0.059-1.131-0.073-1.585-0.228 0.131-0.172 0.265-0.383 0.428-0.529Z"/></svg>