<svg fill="#419EDA" role="img" viewBox="0 0 25 24" xmlns="http://www.w3.org/2000/svg"><title>etcd</title><path d="M11.449 10.67A1.62 1.62 0 1 1 9.829 9.051a1.621 1.621 0 0 1 1.62 1.619z m2.094 0a1.62 1.62 0 1 0 1.62-1.619 1.619 1.619 0 0 0-1.62 1.619z m11.028 1.758a4.446 4.446 0 0 1-0.358 0.013 4.676 4.676 0 0 1-2.056-0.478 19.096 19.096 0 0 0 0.276-3.638 18.823 18.823 0 0 0-2.354-2.79 4.678 4.678 0 0 1 1.66-1.777l0.304-0.189-0.238-0.269a12.398 12.398 0 0 0-4.329-3.157l-0.33-0.143-0.083 0.348a4.664 4.664 0 0 1-1.175 2.13 18.829 18.829 0 0 0-3.392-1.397 18.763 18.763 0 0 0-3.387 1.395A4.653 4.653 0 0 1 7.939 0.35L7.854 0.001l-0.328 0.144a12.516 12.516 0 0 0-4.329 3.157l-0.238 0.268 0.304 0.189a4.671 4.671 0 0 1 1.656 1.768 18.966 18.966 0 0 0-2.35 2.779 19.083 19.083 0 0 0 0.269 3.662 4.663 4.663 0 0 1-2.045 0.475 4.372 4.372 0 0 1-0.358-0.014L0.078 12.4l0.033 0.356a12.322 12.322 0 0 0 1.666 5.097l0.181 0.309 0.272-0.231a4.66 4.66 0 0 1 2.207-1.033 18.933 18.933 0 0 0 1.888 3.075 19.122 19.122 0 0 0 3.579 0.88 4.651 4.651 0 0 1-0.297 2.443l-0.137 0.33 0.35 0.078a12.472 12.472 0 0 0 2.681 0.296l2.681-0.296 0.35-0.078-0.136-0.331a4.645 4.645 0 0 1-0.297-2.444 19.125 19.125 0 0 0 3.564-0.878 18.848 18.848 0 0 0 1.89-3.078 4.669 4.669 0 0 1 2.219 1.034l0.272 0.231 0.181-0.307a12.295 12.295 0 0 0 1.664-5.097l0.033-0.355z m-8.238 4.357a14.472 14.472 0 0 1-7.677 0 14.688 14.688 0 0 1-2.335-7.26 14.614 14.614 0 0 1 2.782-2.647 14.837 14.837 0 0 1 3.394-1.847 14.882 14.882 0 0 1 3.385 1.841 14.726 14.726 0 0 1 2.795 2.667 14.795 14.795 0 0 1-0.699 3.78 14.87 14.87 0 0 1-1.646 3.466z"/></svg>