<svg fill="#2535A0" role="img" viewBox="0 0 39 24" xmlns="http://www.w3.org/2000/svg"><title>Ethers</title><path d="M38.539 20.636c-19.907 2.602-34.116 5.728-34.327-7.099 0 0 0.435-4.971 6.53-5.283 0 0 0.206-4.414 4.863-4.914 2.504-0.271 5.347 2.307 5.656 5.022 0 0 6.161-1.141 6.428 4.866 0.094 2.094-0.378 5.653-6.32 5.497 0 0-3.438-0.466-3.904-5.781-0.968 10.289 13.91 9.691 14.123 0.346 0.095-4.041-2.494-8.198-8.323-7.419-3.195-8.038-11.701-7.576-14.866-0.121-4.528 0-7.988 3.484-7.938 8.035 0.175 14.644 20.553 10.229 38.078 6.851Z"/></svg>