<svg fill="#648B1A" role="img" viewBox="0 0 30 24" xmlns="http://www.w3.org/2000/svg"><title>Ethiopian Airlines</title><path d="M22.768 11.511c2.943-1.793 5.22-3.115 6.115-5.362 1.901-5.135 0.447-7.222-1.36-5.62C25.212 2.772 14.357 14.16 0.463 22.168c-0.212 0.121-0.246 0.397 0.688 0.112 5.517-1.936 17.523-8.257 21.617-10.769z m2.245-0.41c1.16-0.722 2.433-0.292 0.389 3.037-1.387 2.047-2.346 3.239-6.059 4.364-2.555 0.967-12.028 3.724-18.664 4.525-0.494 0.041-0.645-0.14-0.158-0.302 6.323-1.608 22.145-10.11 24.492-11.625z m-11.055 12.893c2.714-0.089 4.756 0.298 7.05-2.13 2.401-2.487 2.118-3.78 0.67-3.378-2.149 0.645-9.988 3.312-19.237 4.599-0.416 0.057-0.315 0.278 0.172 0.308 6.179 0.584 8.51 0.628 11.345 0.601Z"/></svg>