<svg fill="#BD8B13" role="img" viewBox="0 0 70 24" xmlns="http://www.w3.org/2000/svg"><title>Etihad Airways</title><path d="M46.721 0s-0.559 1.267-1.535 1.901l0.006 0.069c0.02 0.193 0.132 0.265 0.242 0.337 0.132 0.086 0.262 0.173 0.276 0.483 0.014 0.23 0 4.994 0 4.994l-1.238 1.296-1.244-1.296c0-0.075-0.017-4.78 0-4.999 0.014-0.308 0.138-0.392 0.271-0.478 0.109-0.072 0.225-0.144 0.247-0.346v-0.095c-0.884-0.616-1.535-1.86-1.535-1.86v8.414l1.489 1.469-1.238 1.241 2.01 2.005 1.996-2.005-1.241-1.241 1.497-1.587z m1.498 0v9.855h1.221s-0.023-6.883 0-7.111c0.014-0.299 0.173-0.386 0.337-0.472 0.138-0.072 0.279-0.144 0.308-0.354v-0.095c0-0.115-0.084-0.156-0.19-0.202a3.355 3.355 0 0 1-0.68-0.489c-0.631-0.541-0.78-0.795-0.783-0.801z m-17.91 0.046s-0.786 1.037-1.866 1.832l0.006 0.04v0.066c0.029 0.202 0.17 0.276 0.308 0.351 0.164 0.086 0.366 0.164 0.366 0.467v7.053h7.833v0.144a1.045 1.045 0 0 0-0.009 0.193c0 0.559 0.199 0.945 0.55 1.085a0.922 0.922 0 0 0 0.432 0.101c0.196 0 0.38-0.058 0.559-0.173l0.135-0.086-0.124-0.101c-0.23-0.173-0.308-0.683-0.305-1.066v-0.097h2.92V3.369s-0.389 0.867-1.794 1.884c0 0 0.046 0.282 0.294 0.417 0.363 0.202 0.337 0.392 0.337 0.392v2.6h-1.745v-0.259c-0.003-0.657-0.202-2.183-1.961-2.183-0.51 0.014-1.066 0.029-1.622 0.029-1.042 0-1.59-0.115-1.722-0.366l-0.06-0.106-0.095 0.066c-0.19 0.124-0.305 0.357-0.306 0.642 0.006 0.42 0.236 0.884 0.654 0.916 0.259 0.012 0.636 0.017 1.017 0.017 0.68 0 1.353-0.012 1.356-0.011 1.454 0.012 1.48 0.622 1.492 0.918v0.337h-6.653z m7.949 1.198l-0.922 0.927 0.922 0.922 0.927-0.922 0.921 0.922 0.93-0.927-0.086-0.072-0.844-0.85-0.921 0.922-0.087-0.072z m-18.345 2.062v3.539c2.065 0 4.127 0 6.192-0.006 0.187 0.003 0.443 0.058 0.446 0.45v2.831c0 0.023-0.006 0.605-0.61 0.604-0.973 0-0.907-0.49-0.913-0.489l0.006-1.59H19.916v1.21h4.015v0.979s-0.127 1.037 2.03 1.036c1.757 0 1.814-1.094 1.814-1.105l0.003-4.049c0-0.23-0.063-0.979-0.78-0.991H20.878v-0.444c0-0.101 0.089-0.135 0.161-0.181 0.36-0.219 0.418-0.415 0.306-0.489-0.723-0.412-1.428-1.305-1.429-1.305z m24.559 6.986l0.827 0.838-0.827 0.835-0.835-0.835z m3.009 4.933l-1.215 1.273 1.351 1.429 1.394 1.405h-2.356l-1.287 1.351 0.273 0.19 0.305-0.165a0.386 0.386 0 0 1 0.09-0.028 2.22 2.22 0 0 1 0.219-0.003l4.028 0.006 2.777 2.966s-0.043 0.052-0.288 0.052h-0.104v0.299h3.145z m7.401 0v0.248s0.323 0.213 0.334 0.213v0.913h7.35c1.486 0 2.575 0.199 3.234 0.585 1.051 0.613 1.564 1.411 1.563 2.436 0 0.513-0.132 0.979-0.403 1.394a3.182 3.182 0 0 1-1.227 1.045c-0.711 0.369-1.8 0.559-3.228 0.559h-3.83v-5.385h-2.099v6.177l-0.012 0.089a0.815 0.815 0 0 1-0.057 0.063l-0.28 0.173v0.253h6.29c1.21 0 2.157-0.066 2.822-0.201 0.913-0.193 1.722-0.527 2.407-0.991 0.7-0.469 1.204-1.008 1.492-1.612a3.577 3.577 0 0 0 0.161-2.526c-0.331-1.051-1.094-1.912-2.26-2.563-1.051-0.587-2.543-0.87-4.562-0.87z m-42.649 0.006l-1.279 1.604 0.26 0.089 0.04 0.012 0.394-0.202a0.599 0.599 0 0 1 0.337-0.109h5.063v6.785l-0.023 0.095a0.187 0.187 0 0 1-0.063 0.052l-0.288 0.19v0.247h2.825v-0.253l-0.291-0.179-0.069-0.063-0.006-0.078v-6.796h4.492c0.173 0.02 0.196 0.058 0.196 0.063v0.242h0.254l1.391-1.699z m13.84 0v0.254l0.282 0.184c0.066 0.046 0.101 0.084 0.101 0.118v7.611l-0.017 0.095a0.907 0.907 0 0 1-0.078 0.064l-0.288 0.184v0.253h2.808v-0.253l-0.259-0.179c-0.035-0.026-0.052-0.04-0.061-0.04h-0.005v-7.724l0.005-0.077 0.067-0.061 0.253-0.173v-0.256z m3.836 0v0.254l0.277 0.184c0.02 0.017 0.052 0.029 0.074 0.04v7.695l-0.017 0.101a0.19 0.19 0 0 1-0.052 0.052l-0.282 0.19v0.247h2.831v-0.253l-0.3-0.184c-0.046-0.026-0.063-0.04-0.072-0.041v-7.718l0.006-0.083c0-0.003 0.023-0.023 0.066-0.046l0.271-0.161 0.029-0.018v-0.259z m2.459 4.752l0.303 0.098 0.394-0.225a0.634 0.634 0 0 1 0.173-0.086 0.487 0.487 0 0 1 0.164-0.023h5.907v2.712l2.11-2.266v-4.484c0-0.032 0.043-0.06 0.044-0.06l0.305-0.159v-0.259h-2.831v0.254l0.288 0.184c0.084 0.052 0.089 0.092 0.089 0.118v2.572H33.647z m-24.938-4.74c-0.893 0-1.593 0.029-2.074 0.086a6.814 6.814 0 0 0-2.571 0.841c-0.947 0.536-1.624 1.221-2.016 2.03-0.219 0.461-0.328 0.97-0.326 1.526 0 1.411 0.76 2.54 2.261 3.352 0.677 0.371 1.44 0.628 2.266 0.764 0.619 0.101 1.469 0.153 2.526 0.152h5.846l1.394-1.693h-0.119l-0.311 0.011-0.362 0.208c-0.101 0.06-0.161 0.081-0.173 0.086l-6.278 0.015c-1.437 0-2.526-0.181-3.243-0.548-1.083-0.564-1.613-1.368-1.612-2.453 0-0.49 0.138-0.95 0.414-1.374a3.629 3.629 0 0 1 2.448-1.555c0.294-0.052 0.576-0.058 0.763-0.057h3.24c0.196-0.009 0.164 0.035 0.173 0.054l-0.038 0.225h0.265l1.391-1.67z m38.269 1.592l-6.828 7.136h3.145v-0.296h-0.116c-0.052 0-0.095-0.012-0.138-0.018a0.406 0.406 0 0 1-0.118-0.034l5.276-5.489z m-41.976 1.67l-0.921 1.371h8.256c0.153 0.017 0.207 0.058 0.213 0.087l-0.034 0.241h0.282l1.359-1.699Z"/></svg>