<svg fill="#F05537" role="img" viewBox="0 0 25 24" xmlns="http://www.w3.org/2000/svg"><title>Eventbrite</title><path d="M11.01 5.676c2.711-0.613 5.415 0.498 6.922 2.595L5.952 10.978c0.414-2.533 2.348-4.691 5.058-5.302z m6.989 9.957a6.61 6.61 0 0 1-4.004 2.691c-2.728 0.617-5.451-0.512-6.952-2.638l12.018-2.715 1.957-0.442L24.76 11.684a11.821 11.821 0 0 0-0.312-2.383C22.926 2.846 16.341-1.18 9.745 0.31 3.148 1.8-0.966 8.242 0.557 14.699c1.523 6.456 8.107 10.481 14.704 8.991 3.887-0.879 6.912-3.476 8.428-6.782z"/></svg>