<svg fill="#6965DB" role="img" viewBox="0 0 25 24" xmlns="http://www.w3.org/2000/svg"><title>Excalidraw</title><path d="M24.475 19.827a0.197 0.197 0 0 0-0.169-0.034c-1.263-1.86-2.88-3.62-4.43-5.33l-0.253-0.284c-0.002-0.073-0.067-0.121-0.134-0.151-0.028-0.028-0.056-0.056-0.085-0.084-0.051-0.101-0.169-0.168-0.286-0.101-0.472 0.235-0.909 0.587-1.331 0.922-0.555 0.436-1.111 0.872-1.634 1.358a5.071 5.071 0 0 0-0.59 0.62c-0.084 0.117-0.017 0.218 0.085 0.268-0.371 0.369-0.742 0.738-1.112 1.123a0.19 0.19 0 0 0-0.051 0.134c0 0.05 0.034 0.1 0.067 0.117l0.658 0.503v0.017c0.926 0.922 2.561 2.179 4.296 3.536 0.252 0.202 0.522 0.402 0.774 0.603 0.118 0.135 0.235 0.285 0.337 0.42 0.051 0.066 0.169 0.084 0.236 0.033 0.034 0.034 0.085 0.067 0.118 0.101a0.24 0.24 0 0 0 0.101 0.033 0.154 0.154 0 0 0 0.135-0.067 0.238 0.238 0 0 0 0.033-0.1c0.018 0 0.017 0.017 0.034 0.017a0.192 0.192 0 0 0 0.135-0.051l3.066-3.335c0.12-0.116 0.014-0.268 0-0.268z m-7.648-0.134l-1.55-1.174-0.152-0.1c-0.034-0.017-0.068-0.051-0.101-0.067l-0.118-0.101c0.661-0.661 1.333-1.311 2.005-1.961-0.489 0.486-1.466 1.911-1.264 2.38 0.002 0 0.019 0.042 0.068 0.084 0.371 0.312 0.742 0.625 1.112 0.939z m4.11 3.134l-1.28-0.973a26.977 26.977 0 0 0-1.584-1.508c0.691 0.519 1.28 0.972 1.365 1.056 0.674 0.587 0.64 0.486 1.095 0.872l0.556 0.402c-0.074 0.103-0.151 0.148-0.152 0.151z m0.337 0.251l-0.034-0.017c0.051-0.033 0.101-0.067 0.152-0.117zM1.058 3.452c0.033 0.218 0.085 0.436 0.118 0.637 0.202 1.106 0.404 2.112 0.775 2.866l0.152 0.57c0.051 0.218 0.135 0.486 0.219 0.553 0.859 0.754 2.173 1.876 3.588 2.95a0.178 0.178 0 0 0 0.219 0s0 0.016 0.017 0.016a0.153 0.153 0 0 0 0.118 0.051 0.192 0.192 0 0 0 0.134-0.051c1.803-1.994 3.15-3.636 4.111-5.01 0.068-0.067 0.085-0.168 0.085-0.252 0.067-0.067 0.118-0.151 0.185-0.201 0.067-0.067 0.067-0.184 0-0.235l-0.017-0.017c0-0.033-0.017-0.084-0.051-0.1-0.421-0.402-0.724-0.687-1.044-0.989A93.804 93.804 0 0 1 7.308 1.961c-0.017-0.017-0.034-0.034-0.067-0.034-0.337-0.117-1.028-0.235-1.887-0.385C4.074 1.324 2.338 1.023 0.772 0.553c0 0-0.101 0-0.119 0.017L0.603 0.62C0.518 0.684 0.49 0.676 0.468 0.687 0.485 0.787 0.485 0.854 0.519 0.972c0 0.033 0.067 0.302 0.067 0.335z m7.21 4.793l-0.033 0.034a0.036 0.036 0 0 1 0.033-0.034zM7.039 2.212c0.101 0.101 0.522 0.503 0.623 0.587-0.438-0.202-1.532-0.704-2.039-0.872 0.506 0.101 1.196 0.202 1.416 0.285ZM1.26 1.374c0.253 0.436 0.455 1.944 0.657 3.419-0.118-0.469-0.202-0.938-0.303-1.374C1.463 2.648 1.31 1.961 1.108 1.358c0.124 0 0.152 0.021 0.152 0.016z m-0.286-0.369c0-0.016 0-0.033-0.017-0.033 0.085 0 0.135 0.017 0.202 0.05 0.001 0.006-0.145-0.017-0.185-0.017zM24.205 0.787c0.017-0.066-0.337-0.368-0.219-0.385 0.253-0.016 0.253-0.402 0-0.402-0.337 0.017-0.69 0.1-1.011 0.151-0.589 0.117-1.196 0.235-1.785 0.368-1.331 0.285-2.645 0.587-3.959 0.939-0.404 0.117-0.859 0.201-1.246 0.402-0.135 0.067-0.118 0.201-0.051 0.285-0.034 0.017-0.051 0.017-0.085 0.034-0.118 0.017-0.219 0.034-0.336 0.05-0.101 0.017-0.152 0.101-0.135 0.201 0 0.016 0.017 0.05 0.016 0.067-0.708 0.939-1.499 1.928-2.358 2.983-0.842 0.972-1.735 1.995-2.628 3.051-2.847 3.318-6.065 7.089-9.619 10.407a0.162 0.162 0 0 0 0 0.235c0.017 0.016 0.034 0.033 0.05 0.033-0.051 0.051-0.101 0.085-0.152 0.134-0.034 0.034-0.051 0.067-0.05 0.101a0.365 0.365 0 0 0-0.067 0.084c-0.068 0.067-0.068 0.184 0.017 0.235 0.067 0.066 0.185 0.066 0.235-0.017 0.018-0.017 0.018-0.034 0.034-0.034a0.266 0.266 0 0 1 0.371 0c0.202 0.218 0.404 0.436 0.589 0.62l-0.421-0.351c-0.068-0.067-0.185-0.05-0.235 0.016-0.068 0.066-0.051 0.184 0.016 0.235l4.481 3.737c0.034 0.034 0.068 0.034 0.118 0.034 0.051 0 0.084-0.017 0.118-0.051l0.101-0.1c0.017 0.016 0.05 0.016 0.067 0.016 0.051 0 0.084-0.016 0.119-0.05 6.065-6.067 10.951-10.642 16.543-14.732 0.05-0.033 0.067-0.1 0.067-0.15 0.068 0 0.118-0.05 0.152-0.117 1.028-3.134 1.23-5.916 1.297-7.291 0-0.058 0.017-0.037 0.017-0.067 0.017-0.034 0.017-0.051 0.017-0.05a0.981 0.981 0 0 0-0.067-0.621z m-10.849 4.928c0.269-0.302 0.539-0.62 0.809-0.905-1.735 2.279-4.616 5.782-8.693 9.955C8.251 11.698 11.048 8.531 13.356 5.715ZM5.623 23.497c-0.016-0.017-0.016-0.017 0-0.017z m2.51-2.162c0.135-0.151 0.27-0.285 0.422-0.436 0 0 0 0.016 0.017 0.017-0.224 0.198-0.435 0.419-0.439 0.419z m0.692-0.67c0.1-0.1 0.14-0.173 0.286-0.319 0.994-1.022 2.022-2.045 3.066-3.084l0.017-0.016c0.253-0.201 0.556-0.419 0.825-0.621a228.671 228.671 0 0 0-4.194 4.04z m6.536-16.777c-0.556 0.721-1.179 1.676-1.702 2.43-1.651 2.38-6.958 8.195-7.075 8.296A1192.818 1192.818 0 0 1 1.732 19.223l-0.101 0.101c-0.085-0.101-0.085-0.252 0.017-0.336 7.496-7.022 12.045-12.871 13.882-15.435-0.051 0.117-0.085 0.217-0.169 0.335z m2.914 3.436c-0.673-0.386-0.993-0.99-0.809-1.575l0.051-0.202a0.777 0.777 0 0 1 0.085-0.167c0.185-0.302 0.455-0.553 0.758-0.704 0.016 0 0.033 0 0.05-0.017-0.017-0.034-0.017-0.084-0.017-0.134 0.017-0.101 0.085-0.168 0.202-0.168 0.202 0 0.826 0.185 1.062 0.386 0.067 0.05 0.135 0.117 0.202 0.184 0.084 0.101 0.219 0.268 0.286 0.402 0.034 0.017 0.068 0.185 0.119 0.269 0.034 0.134 0.067 0.285 0.05 0.419-0.017 0.017 0 0.117-0.017 0.117a1.61 1.61 0 0 1-0.219 0.62c-0.031 0.031 0.006 0.012-0.05 0.067-0.085 0.135-0.202 0.252-0.32 0.335-0.388 0.268-0.826 0.352-1.264 0.235-0.111-0.047-0.168-0.067-0.169-0.067z m4.381 1.408c0 0.017-0.017 0.05 0 0.067-0.034 0-0.051 0.017-0.085 0.033-1.331 0.971-2.628 1.994-3.925 3.034 1.112-0.989 2.224-1.995 3.387-2.983 0.337-0.302 0.573-0.687 0.639-1.123l0.169-1.006v-0.033c0.084-0.202 0.404-0.118 0.354 0.1-0.004-0.001-0.174 0.797-0.539 1.911z"/></svg>