<svg fill="#009CAB" role="img" viewBox="0 0 28 24" xmlns="http://www.w3.org/2000/svg"><title>Exercism</title><path d="M5.122 0c-1.113 0-1.957 0.346-2.531 1.036-0.576 0.691-0.863 1.699-0.864 3.024v4.031c0 0.934-0.1 1.653-0.3 2.157-0.201 0.504-0.572 0.975-1.114 1.413-0.16 0.131-0.239 0.239-0.239 0.323 0 0.084 0.079 0.191 0.237 0.321 0.552 0.448 0.926 0.921 1.123 1.422 0.197 0.499 0.294 1.215 0.293 2.148v4.018c0 1.335 0.29 2.348 0.871 3.038 0.58 0.691 1.421 1.035 2.523 1.035h1.023c0.44 0 0.717-0.021 0.836-0.062 0.116-0.042 0.174-0.147 0.174-0.315 0-0.233-0.154-0.388-0.463-0.462l-0.561-0.126c-1.234-0.28-1.851-1.497-1.851-3.654v-3.821c0-1.447-0.35-2.468-1.051-3.066l-0.267-0.224c-0.13-0.111-0.195-0.196-0.195-0.252 0-0.065 0.065-0.15 0.196-0.252l0.267-0.224c0.7-0.598 1.05-1.619 1.05-3.066V4.62c0-1.288 0.157-2.182 0.47-2.681 0.313-0.499 0.966-0.884 1.956-1.154 0.299-0.085 0.449-0.221 0.449-0.407 0-0.252-0.337-0.378-1.01-0.378z m16.734 0.034c-0.673 0-1.01 0.125-1.01 0.377 0 0.187 0.149 0.323 0.448 0.406 0.991 0.27 1.643 0.656 1.957 1.155 0.313 0.499 0.47 1.393 0.47 2.681v3.822c0 1.446 0.35 2.467 1.051 3.065l0.266 0.224c0.131 0.103 0.197 0.187 0.197 0.252 0 0.057-0.066 0.14-0.197 0.252l-0.267 0.224c-0.7 0.598-1.05 1.62-1.05 3.066v3.822c0 2.156-0.617 3.374-1.851 3.654l-0.562 0.126c-0.309 0.074-0.462 0.229-0.462 0.462 0 0.168 0.058 0.273 0.174 0.315 0.118 0.042 0.396 0.063 0.836 0.063h1.023c1.103 0 1.944-0.346 2.523-1.036 0.58-0.691 0.87-1.703 0.871-3.038v-4.017c0-0.934 0.097-1.65 0.293-2.15 0.197-0.499 0.57-0.973 1.123-1.42 0.159-0.131 0.238-0.238 0.237-0.323 0-0.084-0.079-0.191-0.237-0.321-0.543-0.439-0.915-0.91-1.116-1.414-0.201-0.505-0.302-1.223-0.301-2.156V4.093c0-1.325-0.287-2.333-0.863-3.024-0.574-0.691-1.418-1.035-2.53-1.035zM8.99 9.371c-1.69 0-3.064 1.289-3.064 2.876h1.184c0-0.973 0.844-1.764 1.88-1.764 1.035 0 1.879 0.791 1.879 1.764h1.184c0-1.586-1.373-2.876-3.064-2.876z m9.755 0c-1.69 0-3.063 1.289-3.062 2.876h1.184c0-0.973 0.844-1.764 1.88-1.764 1.035 0 1.88 0.791 1.88 1.764h1.183c0-1.586-1.375-2.876-3.063-2.876zM11.342 14.739v0.651c0 1.482 1.232 2.688 2.746 2.688 1.515 0 2.747-1.206 2.747-2.688v-0.65h-1.084v0.65c0 1.018-0.882 1.655-1.663 1.655s-1.718-0.317-1.717-1.655v-0.65z"/></svg>