<svg fill="#DAA449" role="img" viewBox="0 0 25 24" xmlns="http://www.w3.org/2000/svg"><title>Exordo</title><path d="M12.5 0a12 12 0 0 0-5.514 1.342l2.01 14.062 2.033-5.281a0.375 0.375 0 0 1 0.334-0.24 0.375 0.375 0 0 1 0.15 0.023 0.375 0.375 0 0 1 0.217 0.487L10.14 14.529 19.45 2.22a12 12 0 0 0-3.853-1.81l-0.844 2.327-0.318 0.828a0.375 0.375 0 0 1-0.485 0.215 0.375 0.375 0 0 1-0.215-0.484l0.315-0.822 0.812-2.239A12 12 0 0 0 12.5 0zM6.285 1.736a12 12 0 0 0-5.691 8.762l0.699 0.49a0.375 0.375 0 0 1 0.09 0.524 0.375 0.375 0 0 1-0.522 0.09l-0.343-0.243A12 12 0 0 0 0.5 12a12 12 0 0 0 1.129 5.078 0.375 0.375 0 0 1 0.21-0.084l6.05-0.422-5.213-3.693a0.375 0.375 0 0 1-0.088-0.524 0.375 0.375 0 0 1 0.28-0.158 0.375 0.375 0 0 1 0.243 0.069l5.205 3.691-2.03-14.22z m13.764 0.934L9.775 16.252l10.037-2.57-0.126-0.493a0.375 0.375 0 0 1 0.27-0.455 0.375 0.375 0 0 1 0.075-0.011 0.375 0.375 0 0 1 0.38 0.279l0.128 0.492 3.951-1.012A12 12 0 0 0 24.5 12a12 12 0 0 0-4.451-9.33z m-7.48 1.607a0.375 0.375 0 0 1 0.156 0.024l0.826 0.316 0.826 0.315a0.375 0.375 0 0 1 0.217 0.484 0.375 0.375 0 0 1-0.485 0.215l-0.826-0.315-0.828-0.314a0.375 0.375 0 0 1-0.217-0.484 0.375 0.375 0 0 1 0.33-0.24z m0.13 2.13a0.375 0.375 0 0 1 0.155 0.023 0.375 0.375 0 0 1 0.214 0.484l-0.271 0.711 0.389 0.148a0.375 0.375 0 0 1 0.216 0.485 0.375 0.375 0 0 1-0.482 0.217l-0.393-0.149-0.091 0.238a0.375 0.375 0 0 1-0.485 0.215 0.375 0.375 0 0 1-0.215-0.484l0.09-0.236-0.56-0.215a0.375 0.375 0 0 1-0.217-0.485 0.375 0.375 0 0 1 0.33-0.24 0.375 0.375 0 0 1 0.154 0.024l0.56 0.214 0.276-0.71a0.375 0.375 0 0 1 0.33-0.24z m11.733 6.864l-3.705 0.95 0.127 0.49a0.375 0.375 0 0 1-0.27 0.459 0.375 0.375 0 0 1-0.457-0.27l-0.127-0.494-9.785 2.506 4.91 1.502a0.375 0.375 0 0 1 0.248 0.467 0.375 0.375 0 0 1-0.469 0.25l-4.922-1.504 1.032 1.17a0.375 0.375 0 0 1-0.034 0.53 0.375 0.375 0 0 1-0.529-0.034l-1.328-1.51-0.52 5.567A12 12 0 0 0 12.5 24a12 12 0 0 0 2.07-0.18l-2.441-2.636-0.303 0.265a0.375 0.375 0 0 1-0.53-0.035 0.375 0.375 0 0 1 0.036-0.53l0.295-0.257-0.313-0.354a0.375 0.375 0 0 1 0.034-0.529 0.375 0.375 0 0 1 0.252-0.094 0.375 0.375 0 0 1 0.277 0.127l0.312 0.354 0.383-0.334a0.375 0.375 0 0 1 0.252-0.094 0.375 0.375 0 0 1 0.278 0.129 0.375 0.375 0 0 1-0.036 0.53l-0.373 0.327 2.729 2.95a12 12 0 0 0 5.164-2.772l-3.264-0.998a0.375 0.375 0 0 1-0.25-0.469 0.375 0.375 0 0 1 0.367-0.265 0.375 0.375 0 0 1 0.102 0.017l3.654 1.118a12 12 0 0 0 3.237-6.999zM7.965 17.34l-5.912 0.562a12 12 0 0 0 2.728 3.285l0.358-0.427a0.375 0.375 0 0 1 0.273-0.137 0.375 0.375 0 0 1 0.256 0.086 0.375 0.375 0 0 1 0.049 0.527l-0.344 0.416a12 12 0 0 0 2.5 1.418l0.467-5.01-0.559 0.678a0.375 0.375 0 0 1-0.527 0.051 0.375 0.375 0 0 1-0.05-0.527l0.76-0.922z m-2.541 1.88a0.375 0.375 0 0 1 0.254 0.087l0.681 0.562 0.684 0.563a0.375 0.375 0 0 1 0.05 0.529 0.375 0.375 0 0 1-0.529 0.05l-0.681-0.564-0.682-0.562a0.375 0.375 0 0 1-0.05-0.528 0.375 0.375 0 0 1 0.273-0.136Z"/></svg>