<svg fill="#191E3B" role="img" viewBox="0 0 25 24" xmlns="http://www.w3.org/2000/svg"><title>Expedia</title><path d="M19.567 0H5.433A4.94 4.94 0 0 0 0.5 4.933v14.134A4.932 4.932 0 0 0 5.433 24h14.134A4.932 4.932 0 0 0 24.5 19.067V4.933C24.51 2.213 22.297 0 19.567 0ZM7.836 19.341c0 0.19-0.148 0.337-0.337 0.337h-2.33a0.333 0.333 0 0 1-0.337-0.337v-2.33c0-0.189 0.148-0.336 0.337-0.336H7.5c0.19 0 0.337 0.147 0.337 0.337z m12.121-1.486l-2.308 2.298c-0.169 0.168-0.422 0.053-0.422-0.2V9.57l-6.44 6.44a0.533 0.533 0 0 1-0.421 0.17H8.669a0.32 0.32 0 0 1-0.338-0.338v-1.697c0-0.2 0.053-0.316 0.169-0.422l6.44-6.44H4.558c-0.253 0-0.369-0.253-0.2-0.421l2.297-2.309c0.137-0.137 0.285-0.232 0.517-0.232H18.65c0.854 0 1.539 0.686 1.539 1.54v11.478c-0.01 0.231-0.095 0.368-0.232 0.516z"/></svg>