<svg fill="#000000" role="img" viewBox="0 0 42 24" xmlns="http://www.w3.org/2000/svg"><title>Express</title><path d="M41.681 23.355a2.635 2.635 0 0 1-3.266-1.241l-5.946-8.223-0.861-1.149-6.899 9.382a2.527 2.527 0 0 1-3.106 1.22l8.89-11.926-8.269-10.773a2.749 2.749 0 0 1 3.274 1.148l6.163 8.324 6.197-8.289a2.473 2.473 0 0 1 3.082-1.152L37.731 4.935l-4.347 5.658a1.148 1.148 0 0 0 0 1.713l8.28 11.05zM0.323 11.27l0.723-3.576c1.989-7.071 10.096-10.013 15.673-5.636 3.266 2.566 4.081 6.199 3.921 10.294H2.242C1.944 19.665 7.221 24.08 13.969 21.824a7.028 7.028 0 0 0 4.449-4.956c0.357-1.148 0.944-1.344 2.024-1.014a9.336 9.336 0 0 1-4.462 6.82 10.809 10.809 0 0 1-12.591-1.608 11.331 11.331 0 0 1-2.827-6.649c0-0.405-0.138-0.784-0.231-1.148A152.228 152.228 0 0 1 0.319 11.272z m1.942-0.493h16.638c-0.103-5.301-3.449-9.062-7.911-9.096-4.967-0.069-8.521 3.609-8.739 9.072z"/></svg>