<svg fill="#DA3940" role="img" viewBox="0 0 30 24" xmlns="http://www.w3.org/2000/svg"><title>ExpressVPN</title><path d="M14.633 0a6.06 6.06 0 0 0-5.458 3.478L7.581 6.893h18.16c0.51 0 0.86 0.383 0.861 0.831 0 0.446-0.351 0.828-0.861 0.828H3.303L0.08 15.446h3.511c-0.99 2.139-1.246 3.192-1.246 4.053 0 2.617 2.139 4.501 5.491 4.501h10.244c2.202 0 4.149-1.756 4.149-3.767 0-1.754-1.499-3.127-3.447-3.127H7.038c-1.085 0-1.596-0.734-1.149-1.66h14.745c4.978 0 9.286-3.766 9.286-8.457 0-3.958-3.255-6.989-7.659-6.989z"/></svg>