<svg fill="#000000" role="img" viewBox="0 0 76 24" xmlns="http://www.w3.org/2000/svg"><title>EyeEm</title><path d="M11.965 3.258v-3.252H0.48v17.891h11.506v-3.277H4.189V10.312h6.747v-3.18H4.189v-3.877z m6.759 20.739l7.917-18.466h-3.877l-2.82 7.369-2.846-7.369H13.24l4.834 11.268-3.158 7.201z m20.714-11.168v-1.392c0-3.852-2.345-6.147-5.909-6.147-3.686 0-6.294 2.439-6.294 6.438 0 3.971 2.608 6.431 6.388 6.431 2.895 0 5.265-1.676 5.693-4.017l-3.514-0.169c-0.266 0.86-1.054 1.363-2.273 1.363-1.579 0-2.514-0.982-2.586-2.511z m-5.934-4.812c1.579 0 2.345 0.982 2.417 2.488H30.943c0.097-1.579 1.079-2.489 2.564-2.488z m20.254-4.765v-3.252h-11.481v17.897h11.506v-3.277h-7.801V10.312h6.748v-3.183h-6.748v-3.877z m17.072 2.032c-1.867 0-3.086 0.841-3.802 1.967-0.813-1.269-2.179-1.96-3.877-1.961s-2.701 0.644-3.252 1.507v-1.272h-3.302v12.369h3.493V11.031c0-1.482 0.838-2.489 2.223-2.489 1.269 0 2.01 0.885 2.01 2.464v6.894h3.493v-7.294c0.144-1.248 0.91-2.06 2.154-2.061 1.338 0 2.057 0.888 2.057 2.467v6.891H75.52V10.312c0-3.133-1.867-5.021-4.69-5.022z"/></svg>