<svg fill="#E4002B" role="img" viewBox="0 0 25 24" xmlns="http://www.w3.org/2000/svg"><title>F5</title><path d="M12.5 0C5.873 0 0.5 5.373 0.5 12a11.943 11.943 0 0 0 2.336 7.111c0.509 0.004 0.859-0.111 0.898-0.33 0.046-0.229 0.007-0.582-0.033-0.939a55.067 55.067 0 0 1-0.234-7.447c-0.609 0.027-1.155 0.055-1.678 0.086 0.02-0.471 0.046-0.919 0.084-1.383 0.517-0.05 1.064-0.094 1.666-0.145 0.026-0.406 0.057-0.798 0.092-1.195 0.27-2.43 2.828-3.916 4.959-4.49 0.946-0.23 1.524-0.302 1.978-0.327 0.164-0.005 0.34-0.012 0.518-0.011 0.442 0 0.89 0.041 1.174 0.234 0.46 0.345 0.913 0.687 1.396 1.068 0.048 0.065 0.102 0.168-0.017 0.344-0.222 0.26-0.437 0.508-0.662 0.776-0.13 0.157-0.345 0.116-0.528 0.066-0.38-0.194-0.746-0.373-1.117-0.553-0.672-0.299-1.367-0.606-2.141-0.576-0.483 0.039-0.951 0.532-1 1.209a101.41 101.41 0 0 0-0.15 3.229c1.343-0.038 2.684-0.062 4.096-0.069l-0.002 0.946c-0.46 0.206-0.895 0.413-1.358 0.623-0.953 0.011-1.859 0.02-2.771 0.035a125.13 125.13 0 0 0 0.119 7.931c0.024 0.378 0.042 0.76 0.15 1.018 0.13 0.322 0.88 0.57 2.51 0.662 0.007 0.284 0.015 0.553 0.025 0.828-2.655-0.077-5.205-0.33-7.247-0.699A11.962 11.962 0 0 0 12.5 24c6.628 0 12-5.373 12-12a11.942 11.942 0 0 0-2.096-6.775c-0.147 0.607-0.225 1.238-0.367 1.882-1.8-0.234-3.913-0.405-6.287-0.488-0.191 0.602-0.371 1.192-0.578 1.836 3.973 0.245 5.905 1.292 7.051 2.526 1.113 1.248 1.35 2.626 1.285 3.906-0.143 2.081-1.061 3.397-2.321 4.371-1.274 0.96-2.814 1.436-4.046 1.539-1.819 0.137-4.251-0.296-4.77-0.613a178.03 178.03 0 0 1-0.949-2.202c-0.08-0.166-0.129-0.337 0.097-0.535 0.354-0.339 0.693-0.667 1.051-1.013 0.158-0.155 0.334-0.299 0.467-0.079 0.489 0.755 0.947 1.448 1.406 2.137 0.522 0.77 1.317 1.469 3.053 1.354 1.459-0.13 2.567-1.233 2.686-2.448 0.128-2.246-2.145-3.84-8.055-4.349a2571.269 2571.269 0 0 1 3.123-9.371c1.404 0.065 2.704 0.18 3.945 0.34 0.919 0.116 1.772 0.329 2.627 0.427A11.973 11.973 0 0 0 12.5 0z m10.019 21.111c-0.501 0-0.908 0.408-0.908 0.908 0 0.501 0.408 0.908 0.908 0.909 0.501 0 0.908-0.407 0.909-0.909 0-0.501-0.407-0.908-0.909-0.908z m0 0.127c0.432 0 0.779 0.349 0.78 0.781a0.778 0.778 0 0 1-0.78 0.78c-0.432 0-0.781-0.347-0.781-0.78a0.781 0.781 0 0 1 0.781-0.781z m-0.365 0.278v0.996h0.174v-0.393h0.139c0.092 0 0.158 0.011 0.195 0.033 0.062 0.037 0.094 0.115 0.094 0.229v0.08l0.002 0.029a0.07 0.07 0 0 1 0.004 0.012c0 0.005 0 0.007 0.004 0.01h0.162l-0.006-0.014a0.106 0.106 0 0 1-0.008-0.049 0.685 0.685 0 0 1-0.004-0.074v-0.074a0.276 0.276 0 0 0-0.053-0.155c-0.037-0.053-0.095-0.085-0.171-0.097A0.408 0.408 0 0 0 22.828 22c0.066-0.042 0.098-0.11 0.098-0.197 0-0.124-0.05-0.21-0.155-0.252a0.752 0.752 0 0 0-0.269-0.035z m0.174 0.123h0.15a0.45 0.45 0 0 1 0.211 0.037c0.042 0.024 0.066 0.073 0.067 0.144a0.153 0.153 0 0 1-0.104 0.157 0.451 0.451 0 0 1-0.166 0.021h-0.158z"/></svg>