<svg fill="#ED4242" role="img" viewBox="0 0 69 24" xmlns="http://www.w3.org/2000/svg"><title>Facebook Live</title><path d="M27.275 0a1.321 1.321 0 0 0-1.324 1.323v21.347a1.321 1.321 0 0 0 1.324 1.323H67.551v0.007a1.321 1.321 0 0 0 1.323-1.323V1.323a1.321 1.321 0 0 0-1.323-1.323z m-15.143 0.021C5.508 0.021 0.126 5.389 0.126 12.02c0 5.993 4.391 10.962 10.133 11.857V15.489h-3.068v-3.469h3.068v-2.647c0-3.007 1.778-4.677 4.521-4.676 1.31 0 2.674 0.251 2.674 0.251v2.932h-1.5c-1.493 0-1.968 0.937-1.968 1.88v2.253h3.332l-0.536 3.469H13.979v8.389c5.756-0.889 10.154-5.857 10.153-11.851 0-6.631-5.376-12-12-12z m20.532 6.895h1.819v8.573h4.663v1.588H32.664z m8.437 0h1.819v10.161h-1.819z m3.563 0h2.009l2.559 8.043h0.122l2.538-8.043h1.935l-3.516 10.161h-2.097z m10.914 0.007h6.577v1.568h-4.758v2.695h4.5v1.479h-4.5v2.844h4.758v1.575h-6.577Z"/></svg>