<svg fill="#4495D1" role="img" viewBox="0 0 178 24" xmlns="http://www.w3.org/2000/svg"><title>Fairphone</title><path d="M24.404 14.639c0.915-2.259 1.846-4.518 2.806-6.777 0.428 2.259 0.886 4.525 1.366 6.777H24.404z m0.953-14.344a342.733 342.733 0 0 0-10.306 23.262h4.791a1.727 1.727 0 0 0 1.595-1.137c0.369-1.011 0.753-2.015 1.144-3.027h7.065l0.76 3.035a1.476 1.476 0 0 0 1.44 1.144h4.924a283.497 283.497 0 0 1-5.552-23.269l-5.861-0.008z m14.285 23.269h5.787c0.458-7.707 1.255-15.422 2.37-23.136h-5.78a270.681 270.681 0 0 0-2.377 23.136m23.845-14.897c-0.214 1.846-1.484 3.005-3.448 3.004h-2.864c0.207-2.015 0.443-4.031 0.694-6.046h2.834c1.934 0 3.027 0.989 2.791 2.968v0.066m5.854-0.295c0-0.059 0.015-0.118 0.022-0.17 0.273-2.348-0.192-4.134-1.269-5.418-1.255-1.521-3.403-2.348-6.43-2.348H51.217c-0.258 1.727-0.495 3.455-0.709 5.19h1.61c-0.76 5.98-1.314 11.959-1.669 17.939h5.759c0.148-2.384 0.317-4.769 0.516-7.161h2.053c0.945 2.104 1.919 4.208 2.908 6.319a1.476 1.476 0 0 0 1.351 0.849h5.581a392.593 392.593 0 0 1-4.001-8.393 8.194 8.194 0 0 0 4.725-6.807m15.451 0.458c-0.229 1.949-1.565 3.174-3.595 3.174h-2.023c0.221-2.163 0.458-4.223 0.731-6.385h1.993c2.089 0 3.152 0.989 2.901 3.1l-0.007 0.104m-1.897-8.394H73.246c-0.244 1.698-0.487 3.492-0.709 5.19h1.602a269.293 269.293 0 0 0-1.653 17.953h5.758c0.133-2.237 0.295-4.474 0.48-6.71h2.214c4.939-0.066 9.043-2.709 9.671-8.268l0.015-0.126c0.613-5.19-2.407-8.032-7.722-8.032m22.383 8.785h-6.393c0.325-2.923 0.709-5.854 1.137-8.785h-5.788a266.54 266.54 0 0 0-2.362 23.136h5.788c0.17-2.975 0.391-5.95 0.664-8.925h6.401c-0.273 2.975-0.495 5.95-0.665 8.933h5.818a271.301 271.301 0 0 1 2.369-23.144h-5.824c-0.428 2.931-0.812 5.862-1.137 8.785m44.796 2.85a386.923 386.923 0 0 1-6.253-12.041l-5.3 0.886a265.897 265.897 0 0 0-2.304 22.664h5.707c0.229-4.038 0.561-8.084 0.982-12.122 2.052 3.809 4.178 7.619 6.385 11.428a1.388 1.388 0 0 0 1.204 0.694h4.355a271.301 271.301 0 0 1 2.363-23.136h-5.7c-0.561 3.883-1.048 7.759-1.446 11.634M7.359 9.878c0.148-1.366 0.31-2.731 0.487-4.105h10.534c0.229-1.772 0.472-3.558 0.739-5.345H1.18c-0.266 1.787-0.509 3.566-0.739 5.352h1.61A265.248 265.248 0 0 0 0.412 23.572h5.788c0.17-2.85 0.384-5.707 0.642-8.564h6.238a1.823 1.823 0 0 0 1.742-1.631c0.118-1.166 0.236-2.325 0.369-3.492H7.351z m158.432 8.467c0.111-1.329 0.221-2.65 0.347-3.972h6.342a1.823 1.823 0 0 0 1.749-1.631c0.103-1.1 0.221-2.193 0.347-3.293h-7.936c0.148-1.27 0.295-2.532 0.458-3.802h9.774c0.221-1.735 0.465-3.477 0.716-5.219h-17.105c-0.258 1.742-0.495 3.477-0.716 5.219h1.609a261.062 261.062 0 0 0-1.661 17.917h15.644c0.096-1.742 0.221-3.477 0.354-5.219h-9.922z m-37.495-5.869l-0.037 0.362c-0.399 4.001-2.163 5.773-4.872 5.773-2.658 0-4.356-2.451-3.95-6.452 0-0.118 0.022-0.244 0.037-0.362 0.413-4.001 2.576-6.415 5.242-6.415a3.396 3.396 0 0 1 3.012 1.661l-0.812 0.782c0.687 1.107 1.602 2.635 1.388 4.651m3.056-8.873l0.797-0.776c-1.565-1.794-3.839-2.827-6.666-2.827-6.039 0-11.221 4.858-11.93 11.76l-0.052 0.502c-0.701 6.939 3.418 11.738 9.494 11.738 6.068 0 10.476-4.223 11.17-11.133l0.051-0.494a11.406 11.406 0 0 0-2.864-8.77"/></svg>