<svg fill="#FFAD00" role="img" viewBox="0 0 23 24" xmlns="http://www.w3.org/2000/svg"><title>FamPay</title><path d="M14.327 23.971a0.206 0.206 0 0 1-0.233-0.016c-0.646-0.407-3.892-2.571-6.089-5.288-1.34-1.677 3.783-4.173 3.783-3.844 0.005 1.782 0.5 6.467 2.603 8.747a0.268 0.268 0 0 1-0.013 0.356l-0.051 0.035M12.979 13.082l4.659-2.119a4.386 4.386 0 0 0 2.542-2.636l0.581-1.634a0.174 0.174 0 0 0-0.11-0.222 0.171 0.171 0 0 0-0.125 0l-8.897 3.771 0.033-0.142a0.902 0.902 0 0 1 0.439-0.626c1.505-0.927 6.903-3.686 6.903-3.686a6.592 6.592 0 0 0 3.53-4.112L22.943 0.28a0.225 0.225 0 0 0-0.153-0.268 0.222 0.222 0 0 0-0.144 0s-8.123 3.156-10.734 4.425C9.299 5.707 6.625 7.34 5.699 12.142c-0.376 1.945 0.313 3.592 1.607 5.46-0.006-1.836 4.637-4.02 5.673-4.52zM1.525 4.86C0.788 4.299 0.161 4.25 0.052 4.299c-0.049-0.174 0.846-0.597 0.956-0.707 0.362-0.346 0.565-0.804 0.988-1.098 0.863-0.611 1.93-0.424 2.824 0.064 0.455 0.25 1.709 1.071 1.728 1.112A14.02 14.02 0 0 1 8.444 5.38a0.241 0.241 0 0 1 0 0.314c-0.211 0.203-0.418 0.348-0.675 0.565-1.703 1.43-2.73 5.24-2.746 5.711V12s-0.999-5.38-3.498-7.14z"/></svg>