<svg fill="#FF7300" role="img" viewBox="0 0 25 24" xmlns="http://www.w3.org/2000/svg"><title>Fandango</title><path d="M14.171 6.935L8.533 8.481 9.678 12.723l5.639-1.546L16.467 15.414l-5.639 1.496 1.098 4.242-5.639 1.496L4.888 17.563c0.85-0.999 1.199-2.396 0.85-3.743-0.4-1.348-1.398-2.395-2.595-2.844L1.745 5.737 13.072 2.741z m7.136-0.199L19.461 0 0.45 5.039l1.845 6.786c1.098 0.201 2.096 1.047 2.395 2.246 0.349 1.198-0.1 2.395-0.947 3.193l1.795 6.736L24.55 18.911l-1.797-6.736c-1.147-0.201-2.095-1.047-2.444-2.246-0.299-1.198 0.1-2.445 0.998-3.193z"/></svg>