<svg fill="#00CCFF" role="img" viewBox="0 0 25 24" xmlns="http://www.w3.org/2000/svg"><title>Fanfou</title><path d="M22.515 0l1.376 2.093c-3.284 0.909-6.9 1.523-10.847 1.841v3.827H23.295c-0.45 4.451-1.625 7.988-3.523 10.61 1.246 1.483 2.843 2.803 4.794 3.96l-1.709 1.669a25.271 25.271 0 0 1-4.608-3.761 21.061 21.061 0 0 1-5.02 3.761l-1.537-1.735c2.155-1.219 3.836-2.49 5.047-3.814-1.608-2.534-2.659-5.32-3.153-8.359h-0.542c0.07 5.59-0.897 10.216-2.901 13.882l-2.013-1.404c1.739-3.047 2.608-7.334 2.608-12.862V1.841c4.311-0.168 8.235-0.78 11.777-1.84Zm-1.908 10.093h-4.636c0.352 2.313 1.121 4.437 2.305 6.371 1.19-1.871 1.968-3.995 2.331-6.371zM9.891 3.577c-0.124 1.995-0.513 4.066-1.165 6.211l-2.158-0.622c0.31-0.892 0.587-1.966 0.834-3.217H4.037C3.41 7.475 2.761 8.813 2.089 9.96L0.434 8.159C1.627 6.049 2.584 3.337 3.308 0.027l2.252 0.65a63.914 63.914 0 0 1-0.768 2.9Zm-0.966 15.841c-1.625 1.625-3.171 2.918-4.636 3.881L2.898 21.379c0.256-0.221 0.384-0.557 0.384-1.008V8.411h2.358v10.9c0.626-0.486 1.404-1.192 2.33-2.118z"/></svg>