<svg fill="#0928FF" role="img" viewBox="0 0 19 24" xmlns="http://www.w3.org/2000/svg"><title>Fantom</title><path d="M8.46 0.23c0.583-0.306 1.471-0.306 2.055 0l5.952 3.128c0.351 0.185 0.544 0.46 0.579 0.743h0.005V19.824c-0.008 0.31-0.203 0.617-0.584 0.818l-5.952 3.128c-0.583 0.306-1.471 0.306-2.055 0l-5.952-3.128c-0.38-0.2-0.563-0.51-0.572-0.818a1.117 1.117 0 0 1 0-0.077V4.202a0.796 0.796 0 0 1 0-0.051l0-0.05h0.003c0.026-0.287 0.211-0.555 0.569-0.743Zm7.654 12.643l-5.599 2.943c-0.583 0.307-1.471 0.307-2.055 0l-5.587-2.936v6.913l5.587 2.92c0.316 0.168 0.643 0.331 0.964 0.353l0.064 0.002c0.334 0.001 0.657-0.167 0.986-0.327l5.64-2.973Zm-15.146 6.609c0 0.602 0.07 0.998 0.21 1.277 0.116 0.231 0.29 0.408 0.607 0.623l0.018 0.012a7.138 7.138 0 0 0 0.24 0.153l0.11 0.067 0.338 0.204-0.485 0.797-0.378-0.227-0.064-0.039a8.425 8.425 0 0 1-0.285-0.182c-0.904-0.607-1.241-1.268-1.248-2.643l0-0.042Zm8.051-10.823a0.855 0.855 0 0 0-0.121 0.051l-5.952 3.128a0.735 0.735 0 0 0-0.018 0.01l-0.005 0.003 0.009 0.005 0.014 0.007 5.952 3.128a0.855 0.855 0 0 0 0.121 0.052z m0.937 0v6.384a0.854 0.854 0 0 0 0.121-0.052l5.952-3.128a0.812 0.812 0 0 0 0.018-0.009l0.005-0.003-0.009-0.005-0.014-0.008-5.952-3.128a0.853 0.853 0 0 0-0.121-0.051z m6.158-3.442l-5.339 2.806 5.339 2.806zM2.873 5.223v5.599L8.2 8.023Zm7.204-4.169c-0.309-0.163-0.87-0.163-1.179 0L2.946 4.182a0.643 0.643 0 0 0-0.018 0.01l-0.005 0.003 0.009 0.005 0.014 0.007 5.952 3.128c0.309 0.163 0.87 0.163 1.179 0l5.952-3.128a0.643 0.643 0 0 0 0.018-0.01l0.005-0.002-0.009-0.006-0.014-0.007z m6.917 0.343l0.378 0.227 0.064 0.039c0.109 0.067 0.2 0.125 0.285 0.182 0.904 0.607 1.241 1.268 1.248 2.643l0 0.042h-0.937c0-0.602-0.07-0.998-0.21-1.277-0.116-0.231-0.29-0.408-0.607-0.623l-0.018-0.012a7.298 7.298 0 0 0-0.24-0.153l-0.11-0.067-0.338-0.203z"/></svg>