<svg fill="#855DCD" role="img" viewBox="0 0 25 24" xmlns="http://www.w3.org/2000/svg"><title>Farcaster</title><path d="M18.867 0H6.133C2.887 0 0.255 2.631 0.255 5.878v12.244c0 3.246 2.632 5.878 5.878 5.878h12.734c3.246 0 5.878-2.632 5.878-5.878V5.878C24.745 2.631 22.113 0 18.867 0m0.832 17.517v0.514c0.293-0.026 0.557 0.194 0.555 0.489v0.58h-5.248v-0.58c-0.002-0.294 0.263-0.515 0.555-0.489v-0.514c0-0.224 0.156-0.41 0.366-0.468l-0.01-4.453c-0.162-1.772-1.674-3.161-3.514-3.162-1.841 0-3.352 1.389-3.514 3.162l-0.01 4.446c0.232 0.043 0.543 0.213 0.551 0.475v0.514c0.292-0.026 0.557 0.194 0.555 0.489v0.58H4.736v-0.58c-0.002-0.294 0.263-0.515 0.555-0.489v-0.514c0-0.258 0.205-0.464 0.463-0.482v-8.057h-0.501L4.632 6.906l2.695 0V4.9h10.152v2.006h2.88l-0.622 2.072h-0.5v8.056c0.257 0.018 0.462 0.224 0.462 0.483"/></svg>