<svg fill="#0A6ECE" role="img" viewBox="0 0 36 24" xmlns="http://www.w3.org/2000/svg"><title>FareHarbor</title><path d="M3.826 0c0.001 0.02 0.003 0.041 0.003 0.061 0 1.161-0.94 2.101-2.101 2.101-0.029 0-0.058-0.002-0.087-0.003v2.195c0.029-0.003 0.057-0.009 0.087-0.009 0.526 0 0.95 0.428 0.95 0.953a0.949 0.949 0 0 1-0.95 0.951c-0.03 0-0.058-0.006-0.087-0.009v1.738c0.029-0.003 0.057-0.009 0.087-0.009a0.949 0.949 0 0 1 0.95 0.95c0 0.526-0.425 0.953-0.95 0.954-0.03 0-0.058-0.006-0.087-0.009v1.735c0.029-0.003 0.057-0.009 0.087-0.009 0.526 0 0.95 0.428 0.95 0.953a0.949 0.949 0 0 1-0.95 0.951c-0.03 0-0.058-0.006-0.087-0.009v2.13c0.029-0.001 0.058-0.006 0.087-0.006 1.161 0 2.101 0.943 2.101 2.104v0.018h28.403v-0.018c0-1.161 0.94-2.104 2.101-2.104 0.01 0 0.017 0.003 0.026 0.003v-2.121c-0.009 0-0.017 0.003-0.026 0.003-0.526 0-0.953-0.425-0.953-0.951a0.954 0.954 0 0 1 0.953-0.953c0.01 0 0.017 0.003 0.026 0.003v-1.723c-0.009 0-0.017 0.003-0.026 0.003a0.954 0.954 0 0 1-0.953-0.953c0-0.526 0.428-0.95 0.953-0.951 0.01 0 0.017 0.003 0.026 0.003V6.245c-0.009 0-0.017 0.003-0.026 0.003-0.526 0-0.953-0.425-0.953-0.95a0.954 0.954 0 0 1 0.953-0.953c0.01 0 0.017 0.003 0.026 0.003V2.162h-0.026c-1.161 0-2.101-0.94-2.101-2.101 0-0.02 0.002-0.041 0.003-0.061z m14.162 1.238c0.052 0 0.104 0.013 0.152 0.041l5.045 2.985a0.297 0.297 0 0 1 0.18 0.273 0.3 0.3 0 0 1-0.299 0.299h-1.221v5.371h1.514v1.572l-0.953 0.895v2.671h7.992c0.278 0 0.506-0.259 0.506-0.578V3.13c0-0.32-0.228-0.578-0.506-0.578h-7.135V1.953h7.135c0.607 0 1.101 0.528 1.102 1.177v11.637c0 0.649-0.494 1.177-1.102 1.177H5.625c-0.607 0-1.101-0.528-1.101-1.177V3.13c0-0.649 0.494-1.177 1.101-1.177h7.022v0.599H5.625c-0.278 0-0.506 0.259-0.505 0.578v11.637c0 0.319 0.228 0.578 0.505 0.578h7.928v-2.685l-0.938-0.881v-1.572h1.514V4.836H12.914a0.302 0.302 0 0 1-0.291-0.221 0.297 0.297 0 0 1 0.137-0.334l5.077-3.002a0.294 0.294 0 0 1 0.151-0.041z m0 0.645l-3.984 2.354h7.966z m10.631 2.473a0.302 0.302 0 0 1 0.247 0.221 0.298 0.298 0 0 1-0.209 0.367l-4.807 1.305a0.299 0.299 0 0 1-0.078 0.011 0.299 0.299 0 0 1-0.288-0.221 0.298 0.298 0 0 1 0.209-0.366l4.807-1.308a0.297 0.297 0 0 1 0.119-0.008zM7.63 4.435a0.301 0.301 0 0 1 0.12 0.009l4.356 1.229a0.299 0.299 0 0 1-0.081 0.587 0.297 0.297 0 0 1-0.082-0.011l-4.353-1.23a0.299 0.299 0 0 1-0.207-0.369 0.295 0.295 0 0 1 0.247-0.215Zm7.098 0.401v5.371h2.97v-0.907c-0.864-0.139-1.526-0.888-1.526-1.79 0-0.902 0.662-1.652 1.526-1.79v-0.884z m3.568 0v0.889c0.853 0.148 1.505 0.89 1.506 1.785 0 0.895-0.652 1.64-1.506 1.787v0.91h2.95V4.836Zm-0.308 1.456c-0.671 0-1.218 0.547-1.217 1.218 0 0.671 0.547 1.218 1.217 1.218s1.215-0.547 1.215-1.218-0.544-1.218-1.215-1.218z m-11.677 0.939h5.103a0.297 0.297 0 0 1 0.297 0.299 0.297 0.297 0 0 1-0.297 0.3H6.311a0.3 0.3 0 0 1-0.299-0.3 0.3 0.3 0 0 1 0.299-0.299z m18.074 0h5.103a0.3 0.3 0 0 1 0.3 0.299 0.3 0.3 0 0 1-0.3 0.3H24.385a0.3 0.3 0 0 1-0.299-0.3 0.3 0.3 0 0 1 0.299-0.299z m-12.325 1.343a0.299 0.299 0 0 1 0.253 0.212 0.299 0.299 0 0 1-0.201 0.372l-4.048 1.22a0.304 0.304 0 0 1-0.088 0.012 0.301 0.301 0 0 1-0.287-0.212 0.299 0.299 0 0 1 0.2-0.372l4.051-1.221a0.303 0.303 0 0 1 0.12-0.011z m11.68 0a0.304 0.304 0 0 1 0.119 0.011l4.577 1.375a0.299 0.299 0 0 1 0.201 0.372 0.3 0.3 0 0 1-0.288 0.212 0.285 0.285 0 0 1-0.084-0.012l-4.577-1.374a0.299 0.299 0 0 1-0.201-0.372 0.299 0.299 0 0 1 0.253-0.212z m-10.53 2.232v0.714l0.768 0.718h8.018l0.767-0.718v-0.714H14.129Zm0.939 2.031v1.721l4.47-1.721Zm6.132 0l-6.091 2.345c-0.013 0.005-0.027 0.003-0.041 0.006v0.157h3.773l3.885-1.648v-0.86Zm1.526 1.508l-2.392 1h2.392zM0.144 20.358v3.59h0.756v-1.39h1.752v-0.717H0.9v-0.765h1.988v-0.718z m14.165 0v3.59h0.721v-1.506h1.491v1.506h0.752v-3.59h-0.752v1.404h-1.491v-1.404z m16.284 0.518c-0.953 0-1.648 0.702-1.648 1.56v0.009c0 0.858 0.686 1.555 1.639 1.555 0.953 0 1.645-0.706 1.645-1.564v-0.008c0-0.858-0.683-1.552-1.636-1.552z m-26.136 0.032l-1.325 3.04h0.694l0.282-0.677h1.305l0.282 0.677h0.712l-1.325-3.04z m14.851 0l-1.323 3.04h0.692l0.282-0.677h1.308l0.282 0.677h0.709l-1.322-3.04ZM7.148 20.928v3.02h0.68v-0.968h0.532l0.663 0.968H9.816l-0.753-1.079c0.393-0.142 0.663-0.449 0.663-0.936V21.925c0-0.621-0.437-0.997-1.165-0.997Zm3.63 0v3.02h2.354v-0.593h-1.677v-0.634h1.456v-0.59h-1.456v-0.613h1.654V20.928Zm11.221 0v3.02h0.68v-0.968h0.535l0.662 0.968h0.794l-0.756-1.079c0.393-0.142 0.663-0.449 0.663-0.936V21.925c0-0.621-0.437-0.997-1.166-0.997Zm3.546 0v3.02h1.467c0.697 0 1.157-0.276 1.157-0.829v-0.009c0-0.405-0.221-0.607-0.578-0.741 0.221-0.121 0.407-0.31 0.407-0.651v-0.008c0-0.474-0.389-0.782-1.021-0.782Zm7.64 0v3.02h0.68v-0.968h0.535l0.663 0.968H35.856l-0.756-1.079c0.393-0.142 0.663-0.449 0.663-0.936V21.925c0-0.621-0.437-0.997-1.165-0.997Zm-2.601 0.561c0.547 0 0.933 0.43 0.933 0.947v0.009c0 0.517-0.377 0.942-0.924 0.942-0.547 0-0.936-0.433-0.936-0.951v-0.008c0-0.518 0.38-0.939 0.927-0.939z m-4.38 0.02h0.672c0.287 0 0.448 0.113 0.447 0.311v0.009c0 0.224-0.191 0.32-0.491 0.32h-0.628z m-18.376 0.018h0.674c0.331 0 0.535 0.149 0.535 0.433v0.009c0 0.254-0.189 0.427-0.52 0.427h-0.689Zm14.851 0h0.677c0.331 0 0.532 0.149 0.532 0.433v0.009c0 0.254-0.189 0.427-0.52 0.427h-0.689z m11.186 0h0.677c0.331 0 0.532 0.149 0.532 0.433v0.009c0 0.254-0.189 0.427-0.52 0.427h-0.689z m-29.106 0.177l0.413 0.979h-0.823Zm14.854 0l0.41 0.979h-0.82z m6.591 0.997h0.788c0.349 0 0.503 0.126 0.503 0.328v0.009c0 0.224-0.182 0.325-0.483 0.326h-0.808z"/></svg>