<svg fill="#FF282D" role="img" viewBox="0 0 22 24" xmlns="http://www.w3.org/2000/svg"><title>Fastly</title><path d="M12.919 3.036V1.3h0.632V0H8.377v1.3h0.631v1.749a10.572 10.572 0 0 0-8.575 10.384C0.433 19.275 5.17 24 11 24c5.842 0 10.567-4.737 10.567-10.567 0-5.186-3.729-9.486-8.648-10.397z m-1.628 15.826v-0.607h-0.619v0.607c-2.757-0.158-4.955-2.38-5.101-5.137h0.607v-0.62h-0.607a5.436 5.436 0 0 1 5.101-5.089v0.607h0.62v-0.607a5.435 5.435 0 0 1 5.137 5.114h-0.607v0.619h0.607a5.444 5.444 0 0 1-5.138 5.113z m2.26-7.712l-0.39-0.389-1.979 1.725a0.912 0.912 0 0 0-0.316-0.06c-0.534 0-0.971 0.448-0.971 0.995 0 0.547 0.437 0.996 0.971 0.996 0.535 0 0.972-0.45 0.972-0.996a0.839 0.839 0 0 0-0.049-0.304Z"/></svg>