<svg fill="#00F200" role="img" viewBox="0 0 25 24" xmlns="http://www.w3.org/2000/svg"><title>Fastlane</title><path d="M8.507 19.437a1.496 1.496 0 0 0-1.281-0.899l-1.672-5.152-0.383-1.175c-0.018 0.01-0.116 0.054-0.135 0.062-0.008 0.01-0.026 0.01-0.034 0.019a0.379 0.379 0 0 0-0.072 0.038 0.489 0.489 0 0 1-0.106 0.045c-0.045 0.017-0.081 0.035-0.124 0.043-0.036 0.01-0.072 0.028-0.108 0.037-0.041 0.01-0.086 0.026-0.13 0.036-0.035 0.01-0.07 0.018-0.107 0.026a0.605 0.605 0 0 1-0.142 0.018c-0.036 0.01-0.072 0.01-0.106 0.018-0.029 0-0.056 0-0.083 0.01h-0.166c-0.054 0-0.098 0-0.151-0.01-0.036 0-0.072 0-0.098-0.011l-0.171-0.026c-0.027-0.01-0.054-0.01-0.089-0.017a2.543 2.543 0 0 1-0.259-0.062 2.586 2.586 0 0 1-1.691-3.248C1.835 7.828 3.287 7.062 4.648 7.497l0.356-1.139A3.803 3.803 0 0 0 0.248 8.832a3.804 3.804 0 0 0 2.474 4.753 4.014 4.014 0 0 0 1.682 0.133l1.692 5.213a1.483 1.483 0 0 0-0.241 0.276 1.522 1.522 0 0 0 0.401 2.126 1.522 1.522 0 0 0 2.278-0.685 1.628 1.628 0 0 0-0.031-1.209zM12.397 0.002a3.786 3.786 0 0 0-3.748 3.828c0.01 0.559 0.152 1.129 0.393 1.636L4.611 8.687a1.52 1.52 0 0 0-0.339-0.142 1.522 1.522 0 0 0-1.895 1.032c-0.241 0.808 0.222 1.653 1.032 1.895 0.107 0.033 0.214 0.052 0.321 0.051 0.418 0.026 0.828-0.114 1.128-0.393 0.207-0.186 0.367-0.414 0.446-0.702a1.491 1.491 0 0 0 0.018-0.791l4.387-3.189 0.996-0.727c-0.018-0.019-0.08-0.089-0.097-0.107l-0.027-0.027c-0.018-0.019-0.036-0.037-0.054-0.062a0.476 0.476 0 0 1-0.072-0.09 2.021 2.021 0 0 0-0.079-0.106c-0.027-0.027-0.045-0.062-0.072-0.089a1.063 1.063 0 0 1-0.071-0.114 0.58 0.58 0 0 0-0.062-0.1 0.772 0.772 0 0 1-0.062-0.124c-0.018-0.035-0.035-0.062-0.045-0.098l-0.027-0.073c-0.006-0.018-0.014-0.043-0.023-0.062-0.01-0.035-0.026-0.072-0.036-0.097-0.017-0.046-0.026-0.099-0.043-0.153l-0.026-0.099c-0.01-0.052-0.018-0.114-0.027-0.169 0-0.026-0.01-0.052-0.018-0.088a2.349 2.349 0 0 1-0.018-0.269 2.591 2.591 0 0 1 2.563-2.615 2.591 2.591 0 0 1 2.615 2.562l1.193-0.01C16.202 1.657 14.488-0.025 12.396 0z m12.33 8.971a3.794 3.794 0 0 0-4.796-2.384 3.938 3.938 0 0 0-1.434 0.881l-4.432-3.219c0.027-0.117 0.035-0.241 0.035-0.367a1.536 1.536 0 0 0-1.565-1.486 1.536 1.536 0 0 0-1.487 1.567 1.522 1.522 0 0 0 0.77 1.273c0.24 0.133 0.518 0.212 0.81 0.204 0.276-0.01 0.544-0.089 0.756-0.231l4.389 3.186 0.996 0.729 0.073-0.124c0.008-0.008 0.008-0.026 0.016-0.035 0.008-0.028 0.026-0.046 0.035-0.072 0.018-0.035 0.035-0.062 0.052-0.098a0.476 0.476 0 0 0 0.073-0.116l0.062-0.088c0.027-0.036 0.054-0.072 0.089-0.107 0.027-0.027 0.045-0.052 0.072-0.089l0.098-0.099 0.079-0.081c0.019-0.018 0.036-0.035 0.063-0.051 0.019-0.019 0.037-0.028 0.054-0.046a0.292 0.292 0 0 1 0.089-0.062c0.041-0.027 0.087-0.054 0.125-0.081a0.547 0.547 0 0 1 0.087-0.052c0.054-0.028 0.097-0.055 0.151-0.082 0.027-0.008 0.054-0.026 0.08-0.035a2.599 2.599 0 0 1 3.532 1.53 2.596 2.596 0 0 1-1.627 3.282l0.383 1.129c1.967-0.649 3.034-2.796 2.375-4.779z m-2.243 0.642a1.526 1.526 0 0 0-1.947-0.926 1.586 1.586 0 0 0-0.294 0.144c-0.356 0.222-0.605 0.58-0.686 0.979-0.052 0.267-0.045 0.552 0.054 0.828 0.097 0.266 0.249 0.479 0.454 0.649l-1.674 5.153-0.383 1.174c0.019 0 0.116 0.027 0.143 0.027 0.018 0 0.027 0 0.045 0.01 0.029 0.008 0.056 0.008 0.082 0.018 0.036 0.01 0.072 0.018 0.108 0.026 0.045 0.01 0.089 0.027 0.135 0.036 0.034 0.01 0.07 0.018 0.105 0.035l0.125 0.052c0.036 0.019 0.072 0.028 0.106 0.045 0.041 0.018 0.079 0.045 0.124 0.063 0.034 0.018 0.062 0.035 0.097 0.053 0.027 0.01 0.045 0.026 0.062 0.045 0.019 0.01 0.036 0.025 0.054 0.034 0.027 0.019 0.062 0.036 0.089 0.062a0.601 0.601 0 0 1 0.117 0.1c0.026 0.017 0.052 0.043 0.079 0.062 0.045 0.034 0.08 0.079 0.125 0.124 0.021 0.017 0.045 0.035 0.062 0.062 0.062 0.062 0.114 0.135 0.17 0.204a2.594 2.594 0 0 1-0.535 3.621 2.596 2.596 0 0 1-3.624-0.533l-0.959 0.71c1.248 1.673 3.624 2.029 5.297 0.784 1.672-1.246 2.029-3.621 0.783-5.293a3.955 3.955 0 0 0-1.281-1.096l1.69-5.214a1.531 1.531 0 0 0 1.281-2.038zM18.919 19.15a1.497 1.497 0 0 0-1.361-0.577 1.429 1.429 0 0 0-0.775 0.31c-0.223 0.169-0.383 0.391-0.481 0.632H9.645c0 0.018 0.01 0.124 0.021 0.142 0 0.019 0 0.027 0.01 0.044 0 0.027 0.01 0.054 0.01 0.081 0 0.035 0.007 0.072 0.008 0.116 0 0.045 0 0.089 0.01 0.133v0.115c0 0.045-0.01 0.089-0.01 0.135 0 0.035-0.01 0.07-0.011 0.114-0.01 0.046-0.021 0.09-0.02 0.143-0.007 0.036-0.007 0.072-0.016 0.107-0.01 0.026-0.01 0.052-0.017 0.082-0.01 0.014-0.01 0.041-0.019 0.062-0.01 0.031-0.018 0.068-0.027 0.104-0.018 0.045-0.035 0.098-0.054 0.145-0.01 0.033-0.026 0.062-0.035 0.095a2.869 2.869 0 0 1-0.08 0.151c-0.017 0.026-0.025 0.052-0.034 0.08a2.208 2.208 0 0 1-0.143 0.223 2.593 2.593 0 0 1-3.613 0.603 2.59 2.59 0 0 1-0.606-3.612l-0.97-0.694a3.788 3.788 0 0 0 0.89 5.277 3.786 3.786 0 0 0 5.276-0.891c0.329-0.461 0.543-1.004 0.65-1.555h5.481a1.531 1.531 0 0 0 2.332 0.587c0.632-0.526 0.756-1.487 0.24-2.154z"/></svg>