<svg fill="#000000" role="img" viewBox="0 0 38 24" xmlns="http://www.w3.org/2000/svg"><title>Fastify</title><path d="M36.528 3.412L37.704 0.362l-0.048-0.189-11.648 3.066c1.242-1.797 0.815-3.239 0.815-3.239s-3.721 2.375-6.536 2.315c-2.812-0.062-3.721-0.811-8.035 0.564-4.314 1.375-5.535 5.596-6.781 6.504-1.253 0.909-5.175 3.861-5.175 3.861l0.009 0.053 3.538-1.128s-0.97 0.912-3.031 3.694l-0.097-0.089 0.003 0.017s1.658 2.534 3.284 2.064a3.336 3.336 0 0 0 0.55-0.229c0.653 0.365 1.507 0.722 2.451 0.818 0 0-0.639-0.74-1.172-1.585l0.371-0.24 1.348 0.496-0.15-1.266c0.005-0.005 0.009-0.005 0.013-0.01l1.323 0.485-0.164-1.15a8.807 8.807 0 0 1 0.502-0.246l1.38-5.214 5.708-3.892-0.454 1.142c-1.155 2.846-3.328 3.516-3.328 3.517l-0.907 0.343c-0.675 0.798-0.957 0.993-1.191 3.667 0.542-0.137 1.063-0.167 1.534-0.043 2.438 0.656 3.284 3.596 2.626 4.406-0.162 0.203-0.555 0.552-1.049 0.962H12.407l-0.013 0.801-0.101 0.079h-1.005l-0.014 0.786-0.265 0.198c-0.946 0.017-2.14-0.807-2.141-0.807 0 0.75 0.625 1.909 0.626 1.909l0.109-0.053-0.095 0.07s2.533 1.688 4.124 1.062c1.418-0.555 5.086-3.449 8.255-4.822l9.586-2.525 1.264-3.273-7.307 1.925v-2.944l8.572-2.257 1.265-3.274-9.836 2.591V6.338z m-17.4 6.235l2.274-0.599 0.031 0.116-0.709 1.837-2.358 0.621z m0.784 3.937l-2.357 0.62 0.762-1.973 2.274-0.6 0.032 0.115z m3.072-0.661l-2.358 0.621 0.763-1.974 2.275-0.6 0.031 0.114Z"/></svg>