<svg fill="#512DA8" role="img" viewBox="0 0 28 24" xmlns="http://www.w3.org/2000/svg"><title>Favro</title><path d="M13.52 0a7.682 7.682 0 0 0-7.679 7.679v0.896a8.703 8.703 0 0 1 3.839 3.792V7.68a3.83 3.83 0 0 1 3.84-3.839A1.925 1.925 0 0 0 15.438 1.92a1.925 1.925 0 0 0-1.921-1.92z m-11.518 8.639A1.925 1.925 0 0 0 0.081 10.559c0 1.056 0.864 1.92 1.92 1.919a3.83 3.83 0 0 1 3.839 3.84v5.76c0 1.056 0.864 1.92 1.92 1.92a1.925 1.925 0 0 0 1.919-1.92v-5.76a7.682 7.682 0 0 0-7.678-7.68z m18.238 0a7.682 7.682 0 0 0-7.681 7.68 7.682 7.682 0 0 0 7.681 7.68 7.636 7.636 0 0 0 4.016-1.136c0.304 0.673 0.974 1.137 1.743 1.137A1.925 1.925 0 0 0 27.919 22.079v-11.518a1.925 1.925 0 0 0-1.92-1.92c-0.784 0-1.439 0.464-1.743 1.136a7.625 7.625 0 0 0-4.016-1.137z m0 3.841a3.831 3.831 0 0 1 3.84 3.839 3.831 3.831 0 0 1-3.84 3.839 3.83 3.83 0 0 1-3.839-3.839 3.831 3.831 0 0 1 3.839-3.839z"/></svg>