<svg fill="#1976D2" role="img" viewBox="0 0 25 24" xmlns="http://www.w3.org/2000/svg"><title>F-Droid</title><path d="M21.08 10.057H3.92c-0.888 0-1.609 0.72-1.609 1.609v10.725c0 0.888 0.72 1.609 1.609 1.609h17.16c0.888 0 1.609-0.72 1.609-1.609V11.666C22.689 10.777 21.968 10.057 21.08 10.057zM12.5 22.659c-3.105 0-5.631-2.526-5.631-5.631s2.526-5.631 5.631-5.631c3.105 0 5.631 2.526 5.631 5.631S15.605 22.659 12.5 22.659zM12.5 12.416c-2.543 0-4.612 2.069-4.612 4.612S9.957 21.64 12.5 21.64s4.612-2.069 4.612-4.612S15.043 12.416 12.5 12.416zM12.5 20.379c-1.583 0-2.918-1.117-3.262-2.6h1.691c0.279 0.588 0.87 0.991 1.571 0.991 0.972 0 1.743-0.771 1.743-1.743 0-0.972-0.771-1.743-1.743-1.743-0.657 0-1.215 0.356-1.512 0.885H9.264c0.383-1.43 1.69-2.493 3.236-2.493 1.841 0 3.351 1.51 3.351 3.351C15.851 18.869 14.341 20.379 12.5 20.379zM24.5 0.248c-0.001 0.001-0.002 0.002-0.002 0.003-0.002-0.002-0.004-0.003-0.006-0.005 0.001-0.001 0.002-0.003 0.004-0.004-0.117-0.139-0.283-0.234-0.526-0.241-0.205 0.005-0.396 0.098-0.518 0.262l-1.841 2.383c-0.166-0.059-0.343-0.096-0.53-0.096H3.92c-0.186 0-0.363 0.038-0.53 0.096L1.549 0.262c-0.123-0.164-0.314-0.256-0.518-0.262-0.243 0.006-0.408 0.101-0.526 0.241 0.001 0.001 0.002 0.003 0.004 0.004C0.506 0.247 0.504 0.249 0.502 0.251 0.502 0.25 0.501 0.249 0.5 0.248 0.433 0.327 0.199 0.68 0.488 1.083l1.933 2.502C2.353 3.763 2.312 3.956 2.312 4.158v3.755c0 0.888 0.72 1.609 1.609 1.609h17.16c0.888 0 1.609-0.72 1.609-1.609V4.158c0-0.203-0.042-0.395-0.11-0.573l1.933-2.502C24.801 0.68 24.567 0.327 24.5 0.248zM7.339 8.18c-1 0-1.81-0.81-1.81-1.81s0.81-1.81 1.81-1.81 1.81 0.81 1.81 1.81S8.339 8.18 7.339 8.18zM17.796 8.18c-1 0-1.81-0.81-1.81-1.81s0.81-1.81 1.81-1.81c1 0 1.81 0.81 1.809 1.81S18.795 8.18 17.796 8.18z"/></svg>