<svg fill="#4D148C" role="img" viewBox="0 0 89 24" xmlns="http://www.w3.org/2000/svg"><title>FedEx</title><path d="M83.159 20.464c-0.059-1.525 1.27-2.766 2.762-2.781a2.743 2.743 0 0 1 2.769 2.781 2.78 2.78 0 0 1-2.766 2.743c-1.455 0.007-2.795-1.274-2.765-2.743z m2.795-0.306c0.247-0.074 0.604-0.155 0.597-0.479 0.026-0.331-0.317-0.49-0.597-0.493h-0.6v0.968c0 0.004 0.608-0.007 0.6 0.004z m-0.6 0.394v1.539h-0.516v-3.351h1.204c0.574-0.077 1.083 0.339 1.054 0.932a0.803 0.803 0 0 1-0.575 0.7c0.597 0.306 0.398 1.186 0.637 1.719h-0.574a8.672 8.672 0 0 1-0.148-0.755c-0.066-0.342-0.173-0.843-0.626-0.784h-0.456z m2.798-0.088a2.221 2.221 0 0 0-2.228-2.328c-1.245-0.044-2.283 1.112-2.227 2.328a2.279 2.279 0 0 0 2.227 2.29 2.246 2.246 0 0 0 2.228-2.29z m-18.604-2.132l-3.233 3.712h-4.809l5.741-6.426-5.745-6.445h4.99l3.321 3.672 3.234-3.676h4.809l-5.682 6.419 5.741 6.456h-5.049l-3.318-3.712z m-17.319-1.297v-3.045h7.012v-5.546l6.349 7.174-6.349 7.147v-5.73h-7.012z m5.745 5.009h-11.784V1.116h11.873v3.771H51.018v4.282h6.953v3.528h-7.012v5.605h7.012v3.742z m-21.009-2.413c-1.989 0.063-3.233-2.033-3.229-3.829-0.037-1.867 1.131-4.135 3.233-4.07 2.132-0.092 3.207 2.21 3.112 4.062 0.085 1.845-1.068 3.911-3.116 3.837zM17.776 13.511c0.28-1.318 1.484-2.467 2.872-2.441a2.902 2.902 0 0 1 2.957 2.441H17.776z m55.908 2.077l6.684-7.538h-7.826l-2.725 3.108-2.81-3.108h-14.866v-2.018h7.041V0H40.228v9.501c-1.333-1.65-3.613-2.059-5.619-1.812-2.88 0.453-5.255 2.806-6.018 5.575-0.935-3.528-4.342-5.848-7.943-5.722-2.876 0.033-5.892 1.344-7.317 3.944v-3.013h-6.886v-3.314h7.523v-5.155H0.31v23.152h6.135v-9.737h6.135a27.95 27.95 0 0 0-0.302 2.291c-0.048 4.537 3.837 8.359 8.374 8.234a8.116 8.116 0 0 0 7.943-5.274H23.34c-0.516 0.987-1.624 1.399-2.688 1.326-1.683 0.033-3.056-1.536-3.053-3.167h10.731c0.306 3.782 3.638 7.24 7.523 7.17a5.634 5.634 0 0 0 4.383-2.353v1.51h26.569l2.776-3.167 2.777 3.167h8.072l-6.746-7.568z"/></svg>