<svg fill="#2BB24C" role="img" viewBox="0 0 27 24" xmlns="http://www.w3.org/2000/svg"><title>Feedly</title><path d="M15.568 0.87a2.901 2.901 0 0 0-4.143 0L1.013 11.474a3.034 3.034 0 0 0 0 4.219l7.431 7.569a2.911 2.911 0 0 0 1.934 0.738h6.24a2.908 2.908 0 0 0 2.082-0.879l7.286-7.421a3.031 3.031 0 0 0 0-4.219l-10.417-10.611z m-0.289 19.369l-1.04 1.056a0.414 0.414 0 0 1-0.298 0.127h-0.889a0.418 0.418 0 0 1-0.275-0.107l-1.06-1.078a0.434 0.434 0 0 1 0-0.603l1.486-1.512a0.411 0.411 0 0 1 0.59 0l1.487 1.513a0.432 0.432 0 0 1 0 0.604z m0-6.349l-4.155 4.233a0.416 0.416 0 0 1-0.298 0.124h-0.888a0.418 0.418 0 0 1-0.278-0.104l-1.057-1.078a0.435 0.435 0 0 1 0-0.605l4.601-4.685a0.414 0.414 0 0 1 0.591 0l1.486 1.514a0.429 0.429 0 0 1 0 0.601z m0-6.345L8.008 14.949a0.414 0.414 0 0 1-0.298 0.126h-0.89a0.415 0.415 0 0 1-0.276-0.105l-1.06-1.08a0.431 0.431 0 0 1 0-0.601L13.203 5.429a0.414 0.414 0 0 1 0.59 0l1.487 1.512a0.432 0.432 0 0 1 0 0.604z"/></svg>