<svg fill="#042133" role="img" viewBox="0 0 25 24" xmlns="http://www.w3.org/2000/svg"><title>FerretDB</title><path d="M13.249 0.001a7.982 7.982 0 0 0-1.508 0.122C9.261 0.532 6.9 1.954 5.388 3.937c-0.832 1.119-1.226 1.77-1.06 1.77 0.046 0 0.288-0.137 0.53-0.318 2.028-1.437 5.706-2.089 8.156-1.437 2.345 0.619 3.586 1.588 4.63 3.646 0.878 1.695 1.06 2.345 1.497 5.145l0.107 0.59 0.288-0.364c0.515-0.665 1.149-2.163 1.406-3.283 0.863-3.889-0.786-7.127-4.524-8.912-1.049-0.499-2.087-0.756-3.169-0.774z m-6.721 5.869c-0.313 0.018-0.649 0.275-1.141 0.774-0.53 0.52-1.075 1.026-1.634 1.515C2.285 9.399 0.939 11.593 0.47 13.484c-0.438 1.801-0.122 4.434 0.741 6.143 1.316 2.633 4.827 4.418 8.578 4.372 0.742 0 0.833-0.031 0.576-0.181-0.848-0.515-2.089-1.891-2.542-2.814-0.453-0.937-0.484-1.09-0.484-2.664 0-1.528 0.031-1.725 0.424-2.465 0.696-1.316 1.422-1.937 2.783-2.33 1.634-0.469 2.451-1.256 2.906-2.785 0.181-0.59 0.317-1.15 0.317-1.226 0-0.318-0.438-0.499-1.588-0.665-2.149-0.287-3.435-0.954-4.661-2.345-0.393-0.454-0.681-0.672-0.992-0.654Zm1.204 1.966c0.19 0 0.416 0.057 0.666 0.17 0.348 0.152 0.394 0.242 0.303 0.636-0.273 1.256-0.273 1.604 0 1.906 0.423 0.469 0.831 0.364 1.589-0.363 0.665-0.666 0.877-0.742 1.679-0.711 0.303 0.015 0.438 0.121 0.499 0.378 0.046 0.212 0.227 0.424 0.393 0.469 0.394 0.122 0.379 0.364-0.075 0.998-1.573 2.15-4.72 2.135-5.825-0.014-0.499-0.983-0.364-2.421 0.332-3.299 0.099-0.112 0.25-0.17 0.439-0.17Zm14.98 1.804c-0.075 0-0.212 0.348-0.303 0.773-0.575 2.662-2.588 5.674-4.766 7.081-1.694 1.104-2.39 1.286-5.084 1.301-1.286 0-2.708-0.061-3.162-0.121l-0.817-0.122 0.106 0.5c0.136 0.726 1.089 2.013 2.042 2.799 1.74 1.422 3.374 1.936 5.614 1.816 3.98-0.212 7.203-2.618 8.185-6.083 0.122-0.454 0.213-1.407 0.198-2.345 0-1.316-0.076-1.8-0.409-2.769-0.41-1.195-1.347-2.829-1.604-2.83z"/></svg>