<svg fill="#00B899" role="img" viewBox="0 0 28 24" xmlns="http://www.w3.org/2000/svg"><title>Fi</title><path d="M17.305 3.612c0-1.988 1.673-3.594 3.736-3.594 2.061 0 3.736 1.61 3.736 3.594s-1.673 3.594-3.736 3.595c-2.064 0-3.735-1.607-3.736-3.595zM27.64 17.771h-0.835c-1.713 0-2.577-1.215-2.577-3.129v-3.595h-6.33v5.095c0 5.535 3.669 7.858 7.221 7.858H27.64ZM6.7 19.481c0-1.851 1.024-2.693 3.104-2.693h5.162v-5.756H6.7V8.655c0-1.88 1.622-2.901 3.56-2.901h4.698V0H8.645C3.685 0 0.36 2.626 0.36 8.128v15.857h6.34Z"/></svg>