<svg fill="#FFBF3B" role="img" viewBox="0 0 59 24" xmlns="http://www.w3.org/2000/svg"><title>Fido Alliance</title><path d="M19.35 1.025a2.654 2.654 0 1 0 2.654 2.656v-0.003c0-1.465-1.189-2.654-2.654-2.653zM12.24 8.46v3.468H17.005v11.722h1.722V16.988h1.244v6.662h1.737v-15.19H12.238zM34.692 9.771H34.638c-0.702-1.017-2.108-1.717-4.008-1.717-3.642 0-6.841 2.994-6.814 8.117 0 4.735 2.888 7.829 6.503 7.829 1.949 0 3.815-0.883 4.733-2.544l0.286 2.184h4.082V1.362h-4.73z m0 7.102c0 0.386-0.029 0.766-0.083 1.137l0.005-0.041c-0.269 1.301-1.404 2.262-2.764 2.262h-0.034 0.003c-1.949 0-3.223-1.612-3.224-4.214 0-2.392 1.091-4.322 3.25-4.321 1.482 0 2.5 1.069 2.784 2.316 0.034 0.22 0.056 0.474 0.056 0.733l-0.003 0.132v-0.007zM11.898 4.393l1.162-3.914a7.127 7.127 0 0 0-0.939-0.247l-0.047-0.007a8.937 8.937 0 0 0-2.027-0.225 9.123 9.123 0 0 0-2.651 0.389l0.066-0.017a4.945 4.945 0 0 0-0.93 0.374l0.027-0.012a6.418 6.418 0 0 0-1.621 1.162c-1.223 1.198-1.844 2.825-1.845 4.83v1.731H0.151v3.468h2.933v11.723h4.698V11.925h2.932v-3.463H7.782v-1.834a2.492 2.492 0 0 1 0.562-1.744l-0.002 0.005a1.8 1.8 0 0 1 0.154-0.152l0.003-0.002s1.013-1.003 3.397-0.342zM49.817 8.056c-4.916 0-8.137 3.145-8.137 8.088s3.407 7.856 7.858 7.856c4.07 0 8.012-2.544 8.012-8.137-0.005-4.583-3.099-7.807-7.733-7.807z m-0.154 12.537c-2.035 0-3.121-1.949-3.121-4.576 0-2.238 0.883-4.552 3.121-4.551 2.13 0 3.018 2.289 3.018 4.527 0 2.781-1.179 4.603-3.018 4.603zM55.165 6.523h0.568v1.44h0.342v-1.44h0.565v-0.286h-1.475v0.286zM58.36 6.237l-0.446 1.235-0.442-1.235h-0.497v1.729h0.318V6.569l0.485 1.397h0.276l0.477-1.397v1.397h0.318v-1.729h-0.492z"/></svg>