<svg fill="#556472" role="img" viewBox="0 0 25 24" xmlns="http://www.w3.org/2000/svg"><title>figshare</title><path d="M12.5 0a1.007 1.007 0 0 0-1.008 1.008c0 0.557 0.451 1.01 1.008 1.01 0.558 0 1.008-0.453 1.008-1.01C13.508 0.451 13.058 0 12.5 0zM9.189 0.541A1.007 1.007 0 0 0 8.791 0.588c-0.528 0.171-0.819 0.741-0.647 1.27 0.172 0.53 0.742 0.821 1.27 0.648 0.53-0.172 0.821-0.742 0.648-1.271-0.128-0.399-0.481-0.661-0.873-0.694z m6.621 0c-0.392 0.033-0.745 0.295-0.873 0.693-0.172 0.529 0.118 1.099 0.649 1.272 0.53 0.173 1.098-0.118 1.271-0.649 0.171-0.529-0.12-1.097-0.65-1.269a0.998 0.998 0 0 0-0.397-0.047zM11.088 1.99A0.852 0.852 0 0 0 10.916 2c-0.465 0.074-0.781 0.508-0.707 0.973a0.85 0.85 0 0 0 0.975 0.707c0.464-0.073 0.779-0.51 0.707-0.973a0.854 0.854 0 0 0-0.803-0.717z m2.824 0a0.85 0.85 0 0 0-0.801 0.717c-0.074 0.464 0.242 0.9 0.705 0.973 0.464 0.073 0.9-0.241 0.975-0.705 0.072-0.466-0.243-0.9-0.707-0.975a0.854 0.854 0 0 0-0.172-0.01z m-7.908 0.11a1.002 1.002 0 0 0-0.557 0.191c-0.45 0.327-0.552 0.959-0.224 1.41 0.328 0.45 0.96 0.551 1.41 0.223 0.451-0.326 0.551-0.959 0.223-1.41-0.205-0.282-0.528-0.425-0.852-0.414z m12.992 0c-0.324-0.011-0.647 0.133-0.851 0.414-0.328 0.451-0.228 1.083 0.222 1.41 0.451 0.327 1.082 0.228 1.41-0.223 0.327-0.452 0.227-1.083-0.222-1.41a1.01 1.01 0 0 0-0.559-0.191z m-10.767 0.787a0.843 0.843 0 0 0-0.325 0.092c-0.419 0.213-0.586 0.726-0.371 1.144a0.846 0.846 0 0 0 1.143 0.371c0.417-0.213 0.586-0.725 0.373-1.144a0.854 0.854 0 0 0-0.82-0.463z m8.543 0a0.854 0.854 0 0 0-0.821 0.463 0.851 0.851 0 0 0 0.373 1.144c0.419 0.214 0.932 0.049 1.143-0.371 0.214-0.419 0.05-0.932-0.369-1.144a0.852 0.852 0 0 0-0.326-0.092zM12.5 3.563a0.709 0.709 0 0 0-0.709 0.709c0 0.393 0.317 0.709 0.709 0.709a0.708 0.708 0 0 0 0.709-0.709 0.709 0.709 0 0 0-0.709-0.709z m-2.328 0.38a0.706 0.706 0 0 0-0.279 0.034c-0.372 0.12-0.576 0.52-0.456 0.892a0.709 0.709 0 0 0 0.893 0.455c0.371-0.121 0.578-0.521 0.457-0.892a0.712 0.712 0 0 0-0.615-0.489z m4.656 0c-0.275 0.024-0.525 0.209-0.615 0.489-0.121 0.372 0.085 0.772 0.457 0.892 0.373 0.121 0.772-0.083 0.892-0.455a0.708 0.708 0 0 0-0.455-0.892 0.705 0.705 0 0 0-0.279-0.034z m-11.184 0.588a1.013 1.013 0 0 0-0.853 0.416c-0.327 0.449-0.225 1.081 0.225 1.409 0.451 0.328 1.08 0.228 1.406-0.223 0.329-0.451 0.231-1.082-0.221-1.41a0.995 0.995 0 0 0-0.557-0.192z m17.713 0a1.003 1.003 0 0 0-0.558 0.192c-0.451 0.328-0.549 0.96-0.223 1.41 0.327 0.451 0.958 0.549 1.408 0.223 0.452-0.328 0.552-0.96 0.223-1.411-0.204-0.281-0.526-0.425-0.85-0.414z m-15.414 0.059a0.849 0.849 0 0 0-0.601 0.25c-0.333 0.332-0.334 0.873-0.002 1.205a0.855 0.855 0 0 0 1.205 0c0.331-0.333 0.332-0.873 0-1.205a0.847 0.847 0 0 0-0.602-0.25z m13.116 0a0.852 0.852 0 0 0-0.604 0.25c-0.332 0.332-0.332 0.873 0 1.205 0.333 0.332 0.872 0.332 1.205 0 0.334-0.332 0.334-0.872 0-1.205a0.847 0.847 0 0 0-0.601-0.25z m-11.125 0.449a0.709 0.709 0 0 0-0.393 0.135c-0.316 0.231-0.387 0.673-0.156 0.99 0.23 0.318 0.673 0.386 0.99 0.156a0.707 0.707 0 0 0 0.156-0.988 0.707 0.707 0 0 0-0.597-0.293z m9.132 0a0.707 0.707 0 0 0-0.597 0.293c-0.23 0.317-0.16 0.759 0.156 0.988a0.707 0.707 0 0 0 0.99-0.156 0.708 0.708 0 0 0-0.549-1.125z m-5.547 0.01a0.59 0.59 0 0 0-0.119 0.008c-0.321 0.051-0.543 0.352-0.492 0.674 0.051 0.322 0.356 0.543 0.678 0.492 0.322-0.051 0.541-0.353 0.49-0.676a0.591 0.591 0 0 0-0.557-0.498z m1.961 0a0.588 0.588 0 0 0-0.554 0.498c-0.051 0.322 0.168 0.625 0.488 0.676 0.322 0.051 0.626-0.17 0.676-0.492 0.052-0.323-0.168-0.623-0.49-0.674a0.59 0.59 0 0 0-0.12-0.008z m-3.945 0.623a0.605 0.605 0 0 0-0.228 0.064 0.59 0.59 0 0 0-0.258 0.793 0.592 0.592 0 0 0 0.795 0.26c0.29-0.15 0.408-0.506 0.259-0.797a0.589 0.589 0 0 0-0.568-0.32z m5.932 0c-0.229-0.017-0.458 0.102-0.569 0.32-0.15 0.292-0.034 0.648 0.256 0.795a0.592 0.592 0 0 0 0.797-0.258 0.59 0.59 0 0 0-0.26-0.793 0.586 0.586 0 0 0-0.224-0.064zM12.5 6.188a0.488 0.488 0 0 0-0.488 0.488c0 0.27 0.219 0.488 0.488 0.488 0.27 0 0.49-0.218 0.49-0.488 0-0.269-0.22-0.488-0.49-0.488z m-1.604 0.261a0.483 0.483 0 0 0-0.191 0.024c-0.257 0.083-0.399 0.359-0.314 0.615 0.083 0.256 0.359 0.396 0.615 0.313a0.488 0.488 0 0 0 0.314-0.616 0.492 0.492 0 0 0-0.424-0.336z m3.207 0a0.486 0.486 0 0 0-0.421 0.336 0.488 0.488 0 0 0 0.312 0.616c0.257 0.082 0.532-0.056 0.615-0.313 0.083-0.256-0.056-0.533-0.312-0.615a0.49 0.49 0 0 0-0.194-0.024z m-7.83 0.299a0.705 0.705 0 0 0-0.597 0.293c-0.231 0.315-0.16 0.759 0.156 0.988 0.317 0.231 0.76 0.16 0.99-0.156 0.23-0.317 0.159-0.759-0.158-0.99a0.702 0.702 0 0 0-0.391-0.135z m12.455 0a0.71 0.71 0 0 0-0.392 0.135 0.707 0.707 0 0 0-0.158 0.99c0.231 0.316 0.675 0.388 0.99 0.158 0.318-0.231 0.388-0.675 0.158-0.99a0.705 0.705 0 0 0-0.598-0.293z m-10.783 0.108a0.592 0.592 0 0 0-0.418 0.173c-0.231 0.23-0.23 0.605 0 0.834a0.59 0.59 0 0 0 0.836 0 0.591 0.591 0 0 0 0.002-0.836 0.592 0.592 0 0 0-0.42-0.171z m9.11 0a0.589 0.589 0 0 0-0.418 0.173 0.587 0.587 0 0 0 0 0.834 0.589 0.589 0 0 0 0.834 0c0.23-0.23 0.232-0.603 0.002-0.834a0.588 0.588 0 0 0-0.418-0.173z m-12.756 0.084a0.856 0.856 0 0 0-0.821 0.464 0.849 0.849 0 0 0 0.373 1.143c0.419 0.215 0.932 0.046 1.145-0.371 0.214-0.419 0.045-0.93-0.373-1.145a0.843 0.843 0 0 0-0.324-0.091z m16.404 0a0.853 0.853 0 0 0-0.326 0.091c-0.419 0.213-0.585 0.725-0.373 1.145 0.213 0.418 0.727 0.585 1.144 0.371 0.419-0.214 0.587-0.725 0.373-1.143a0.854 0.854 0 0 0-0.818-0.464zM9.353 7.205a0.483 0.483 0 0 0-0.269 0.092c-0.218 0.158-0.266 0.466-0.107 0.683 0.158 0.217 0.464 0.266 0.681 0.108a0.489 0.489 0 0 0 0.108-0.682 0.484 0.484 0 0 0-0.412-0.201z m6.293 0a0.485 0.485 0 0 0-0.412 0.201c-0.16 0.218-0.109 0.524 0.11 0.682a0.488 0.488 0 0 0 0.681-0.108c0.16-0.218 0.109-0.526-0.109-0.683a0.483 0.483 0 0 0-0.27-0.092z m-3.812 0.068a0.388 0.388 0 0 0-0.08 0.004c-0.221 0.035-0.372 0.241-0.336 0.461 0.034 0.219 0.24 0.367 0.461 0.334 0.219-0.035 0.368-0.241 0.334-0.461-0.03-0.191-0.192-0.33-0.379-0.338z m1.332 0a0.401 0.401 0 0 0-0.379 0.338c-0.032 0.218 0.117 0.424 0.334 0.461 0.222 0.034 0.427-0.115 0.461-0.336 0.034-0.218-0.116-0.423-0.334-0.459a0.409 0.409 0 0 0-0.082-0.004z m-11.205 0.325c-0.392 0.034-0.744 0.296-0.873 0.693-0.172 0.531 0.118 1.1 0.648 1.271 0.529 0.173 1.097-0.117 1.27-0.646 0.172-0.53-0.119-1.099-0.649-1.273a1.001 1.001 0 0 0-0.396-0.045z m21.078 0a1.001 1.001 0 0 0-0.396 0.045c-0.53 0.173-0.821 0.743-0.649 1.273 0.174 0.53 0.741 0.82 1.27 0.646 0.531-0.172 0.821-0.741 0.648-1.271-0.129-0.397-0.482-0.659-0.873-0.693z m-12.555 0.099a0.409 0.409 0 0 0-0.156 0.043c-0.196 0.1-0.276 0.342-0.176 0.539a0.401 0.401 0 0 0 0.541 0.176c0.197-0.101 0.277-0.342 0.176-0.539a0.397 0.397 0 0 0-0.385-0.219z m4.032 0a0.399 0.399 0 0 0-0.385 0.217 0.401 0.401 0 0 0 0.176 0.541c0.198 0.101 0.437 0.022 0.539-0.176a0.401 0.401 0 0 0-0.176-0.541 0.398 0.398 0 0 0-0.154-0.041z m-6.305 0.686c-0.157-0.005-0.314 0.064-0.412 0.201-0.159 0.217-0.11 0.523 0.107 0.682 0.218 0.16 0.522 0.108 0.682-0.11 0.159-0.219 0.109-0.523-0.108-0.681a0.485 0.485 0 0 0-0.269-0.092z m8.58 0a0.49 0.49 0 0 0-0.272 0.092 0.487 0.487 0 0 0-0.107 0.681c0.16 0.218 0.464 0.268 0.682 0.11 0.219-0.16 0.267-0.465 0.107-0.682a0.481 0.481 0 0 0-0.41-0.201z m-9.986 0.103a0.594 0.594 0 0 0-0.571 0.323 0.591 0.591 0 0 0 0.26 0.793 0.587 0.587 0 0 0 0.793-0.256c0.148-0.292 0.033-0.649-0.258-0.797a0.584 0.584 0 0 0-0.224-0.063z m11.392 0a0.59 0.59 0 0 0-0.226 0.063c-0.291 0.147-0.405 0.505-0.258 0.797a0.59 0.59 0 0 0 0.793 0.257 0.59 0.59 0 0 0 0.258-0.795 0.587 0.587 0 0 0-0.567-0.322zM9.404 8.5a0.41 0.41 0 0 0-0.287 0.119 0.402 0.402 0 0 0 0.002 0.569 0.402 0.402 0 0 0 0.568 0 0.402 0.402 0 0 0 0-0.569 0.4 0.4 0 0 0-0.283-0.119z m6.194 0.002a0.4 0.4 0 0 0-0.286 0.117 0.399 0.399 0 0 0 0.002 0.569 0.4 0.4 0 0 0 0.567 0c0.158-0.158 0.157-0.413 0-0.569a0.399 0.399 0 0 0-0.283-0.117z m-10.508 0.404c-0.275 0.023-0.523 0.207-0.613 0.487-0.122 0.372 0.083 0.771 0.455 0.892a0.707 0.707 0 0 0 0.892-0.453c0.12-0.373-0.081-0.773-0.455-0.892a0.703 0.703 0 0 0-0.279-0.034z m14.82 0a0.703 0.703 0 0 0-0.279 0.034c-0.373 0.119-0.576 0.519-0.455 0.892 0.12 0.372 0.52 0.574 0.892 0.453 0.372-0.122 0.578-0.52 0.457-0.892a0.711 0.711 0 0 0-0.615-0.487zM8.627 9.611a0.402 0.402 0 0 0-0.387 0.219 0.4 0.4 0 0 0 0.176 0.539 0.397 0.397 0 0 0 0.539-0.174 0.401 0.401 0 0 0-0.176-0.541 0.394 0.394 0 0 0-0.152-0.043z m7.746 0a0.392 0.392 0 0 0-0.152 0.043 0.401 0.401 0 0 0-0.176 0.541 0.403 0.403 0 0 0 0.539 0.174 0.399 0.399 0 0 0 0.176-0.541 0.403 0.403 0 0 0-0.387-0.217z m-13.072 0.088a0.853 0.853 0 0 0-0.803 0.717 0.852 0.852 0 0 0 0.709 0.973 0.848 0.848 0 0 0 0.973-0.705c0.073-0.464-0.241-0.901-0.705-0.975a0.875 0.875 0 0 0-0.174-0.01z m18.398 0a0.854 0.854 0 0 0-0.172 0.01 0.85 0.85 0 0 0-0.707 0.975 0.848 0.848 0 0 0 0.973 0.705 0.849 0.849 0 0 0 0.707-0.973c-0.064-0.406-0.406-0.699-0.801-0.717z m-14.305 0.168a0.488 0.488 0 0 0-0.421 0.336 0.487 0.487 0 0 0 0.314 0.615c0.256 0.084 0.533-0.056 0.615-0.312 0.084-0.256-0.058-0.534-0.314-0.617a0.489 0.489 0 0 0-0.194-0.022z m10.211 0a0.489 0.489 0 0 0-0.193 0.022c-0.256 0.084-0.397 0.361-0.314 0.617a0.49 0.49 0 0 0 0.617 0.312c0.256-0.083 0.395-0.359 0.31-0.615-0.06-0.192-0.23-0.319-0.42-0.336z m-11.494 0.533a0.59 0.59 0 0 0-0.554 0.498c-0.051 0.323 0.168 0.627 0.488 0.678 0.324 0.052 0.627-0.169 0.678-0.49a0.593 0.593 0 0 0-0.493-0.678 0.586 0.586 0 0 0-0.119-0.008z m12.778 0a0.593 0.593 0 0 0-0.12 0.008 0.592 0.592 0 0 0-0.492 0.678 0.59 0.59 0 0 0 0.676 0.49c0.322-0.051 0.541-0.355 0.49-0.678a0.591 0.591 0 0 0-0.554-0.498z m-10.733 0.514c-0.185 0.009-0.347 0.145-0.379 0.336a0.402 0.402 0 0 0 0.336 0.461 0.401 0.401 0 0 0 0.457-0.332 0.403 0.403 0 0 0-0.334-0.463 0.394 0.394 0 0 0-0.08-0.002z m8.688 0a0.417 0.417 0 0 0-0.082 0.004 0.402 0.402 0 0 0-0.332 0.461c0.034 0.218 0.241 0.366 0.459 0.332a0.402 0.402 0 0 0 0.334-0.459c-0.03-0.193-0.192-0.329-0.379-0.338z m-15.336 0.078C0.951 10.992 0.5 11.444 0.5 12c0 0.557 0.45 1.008 1.008 1.008A1.007 1.007 0 0 0 2.516 12c0-0.556-0.451-1.008-1.008-1.008z m21.984 0c-0.558 0-1.01 0.451-1.01 1.008 0 0.557 0.452 1.008 1.01 1.008C24.047 13.008 24.5 12.558 24.5 12c0-0.556-0.453-1.008-1.008-1.008z m-18.721 0.299a0.709 0.709 0 0 0-0.709 0.709c0.001 0.392 0.317 0.709 0.709 0.709a0.709 0.709 0 0 0 0.709-0.709 0.709 0.709 0 0 0-0.709-0.709z m15.457 0c-0.39 0-0.709 0.317-0.709 0.709 0 0.392 0.319 0.709 0.709 0.709a0.706 0.706 0 0 0 0.707-0.709c0-0.392-0.315-0.709-0.707-0.709z m-13.052 0.219c-0.27 0-0.488 0.221-0.489 0.49 0 0.269 0.218 0.488 0.489 0.486 0.269 0 0.488-0.217 0.488-0.486 0-0.269-0.219-0.49-0.488-0.49z m10.648 0c-0.27 0-0.488 0.221-0.488 0.49a0.486 0.486 0 0 0 0.488 0.486 0.487 0.487 0 0 0 0.488-0.486c0-0.269-0.218-0.49-0.488-0.49z m-1.017 0.773c-0.186 0.007-0.346 0.147-0.377 0.338-0.035 0.22 0.113 0.426 0.332 0.461 0.219 0.033 0.425-0.115 0.461-0.334a0.398 0.398 0 0 0-0.334-0.459 0.408 0.408 0 0 0-0.082-0.006z m-8.614 0.002a0.417 0.417 0 0 0-0.082 0.004c-0.218 0.035-0.37 0.239-0.334 0.459 0.035 0.22 0.241 0.367 0.461 0.334a0.404 0.404 0 0 0 0.334-0.461c-0.031-0.192-0.192-0.328-0.379-0.336z m-2.027 0.133a0.606 0.606 0 0 0-0.121 0.006c-0.321 0.05-0.539 0.353-0.488 0.676a0.589 0.589 0 0 0 0.673 0.492 0.592 0.592 0 0 0 0.493-0.678c-0.044-0.282-0.281-0.484-0.557-0.496z m12.668 0a0.591 0.591 0 0 0-0.557 0.498c-0.051 0.321 0.168 0.625 0.491 0.676 0.323 0.051 0.624-0.17 0.675-0.492 0.051-0.323-0.167-0.625-0.49-0.676a0.585 0.585 0 0 0-0.119-0.006z m-15.455 0.182a0.854 0.854 0 0 0-0.172 0.009c-0.464 0.073-0.782 0.51-0.709 0.975 0.074 0.464 0.511 0.781 0.975 0.707 0.466-0.073 0.781-0.51 0.707-0.975a0.85 0.85 0 0 0-0.801-0.716z m18.242 0c-0.396 0.018-0.738 0.31-0.803 0.716-0.073 0.464 0.244 0.901 0.709 0.975 0.464 0.074 0.898-0.243 0.973-0.707 0.073-0.465-0.241-0.901-0.705-0.975a0.874 0.874 0 0 0-0.174-0.009z m-14.141 0.558a0.492 0.492 0 0 0-0.193 0.022 0.489 0.489 0 0 0-0.314 0.617c0.082 0.257 0.358 0.396 0.615 0.312 0.257-0.083 0.397-0.361 0.314-0.615a0.488 0.488 0 0 0-0.422-0.336z m10.041 0a0.49 0.49 0 0 0-0.423 0.336c-0.082 0.255 0.059 0.532 0.314 0.615 0.256 0.083 0.532-0.056 0.613-0.312 0.084-0.257-0.054-0.534-0.31-0.617a0.492 0.492 0 0 0-0.194-0.022z m-8.951 0.428a0.396 0.396 0 0 0-0.152 0.043 0.398 0.398 0 0 0-0.176 0.541 0.399 0.399 0 0 0 0.537 0.176 0.399 0.399 0 0 0 0.176-0.539c-0.076-0.148-0.23-0.231-0.385-0.221z m7.862 0a0.405 0.405 0 0 0-0.389 0.219 0.404 0.404 0 0 0 0.176 0.541c0.198 0.101 0.442 0.023 0.543-0.176 0.101-0.196 0.02-0.439-0.178-0.541a0.391 0.391 0 0 0-0.152-0.043z m-11.221 0.094a0.705 0.705 0 0 0-0.279 0.033c-0.372 0.122-0.577 0.521-0.455 0.894a0.707 0.707 0 0 0 0.892 0.454c0.374-0.12 0.575-0.519 0.455-0.893a0.711 0.711 0 0 0-0.613-0.488z m14.578 0a0.712 0.712 0 0 0-0.613 0.49c-0.12 0.372 0.082 0.77 0.455 0.891a0.707 0.707 0 0 0 0.892-0.453c0.123-0.373-0.083-0.773-0.455-0.895a0.704 0.704 0 0 0-0.279-0.033z m-13.07 0.654a0.58 0.58 0 0 0-0.225 0.063c-0.291 0.148-0.408 0.504-0.26 0.795a0.59 0.59 0 0 0 0.795 0.257 0.586 0.586 0 0 0 0.258-0.793 0.591 0.591 0 0 0-0.568-0.322z m11.562 0a0.592 0.592 0 0 0-0.568 0.32 0.59 0.59 0 0 0 0.258 0.795c0.291 0.147 0.647 0.033 0.795-0.258 0.149-0.291 0.032-0.647-0.26-0.795a0.578 0.578 0 0 0-0.225-0.062z m-16.148 0.057a0.992 0.992 0 0 0-0.397 0.047c-0.53 0.171-0.821 0.741-0.648 1.271 0.172 0.529 0.741 0.818 1.269 0.647 0.53-0.173 0.82-0.741 0.649-1.272a1.009 1.009 0 0 0-0.873-0.693z m20.734 0a1.011 1.011 0 0 0-0.873 0.693c-0.171 0.53 0.118 1.099 0.649 1.272 0.529 0.172 1.097-0.118 1.269-0.647 0.173-0.531-0.117-1.1-0.648-1.271a0.992 0.992 0 0 0-0.397-0.047z m-14.691 0.25a0.485 0.485 0 0 0-0.27 0.093c-0.217 0.159-0.266 0.464-0.109 0.682a0.489 0.489 0 0 0 0.683 0.109c0.217-0.159 0.268-0.466 0.11-0.683a0.494 0.494 0 0 0-0.414-0.201z m8.648 0a0.491 0.491 0 0 0-0.412 0.201 0.49 0.49 0 0 0 0.107 0.683c0.218 0.159 0.525 0.11 0.682-0.109a0.487 0.487 0 0 0-0.107-0.682 0.484 0.484 0 0 0-0.27-0.093z m-7.42 0.054c-0.103 0-0.206 0.037-0.285 0.116a0.402 0.402 0 0 0 0 0.568c0.158 0.157 0.412 0.157 0.568 0.002a0.403 0.403 0 0 0 0-0.57 0.397 0.397 0 0 0-0.283-0.116z m6.192 0a0.398 0.398 0 0 0-0.284 0.118c-0.158 0.157-0.157 0.412 0 0.568 0.159 0.157 0.412 0.157 0.569 0a0.402 0.402 0 0 0 0-0.568 0.403 0.403 0 0 0-0.285-0.118z m-11.42 0.666a0.842 0.842 0 0 0-0.324 0.09c-0.419 0.213-0.586 0.725-0.373 1.145 0.213 0.419 0.725 0.586 1.144 0.373 0.418-0.214 0.587-0.726 0.373-1.145-0.16-0.314-0.489-0.486-0.82-0.463z m16.648 0a0.855 0.855 0 0 0-0.82 0.463c-0.213 0.418-0.046 0.93 0.373 1.145 0.419 0.213 0.93 0.045 1.144-0.373 0.214-0.419 0.046-0.931-0.373-1.145a0.84 0.84 0 0 0-0.324-0.09zM14.459 15.5a0.404 0.404 0 0 0-0.154 0.043c-0.195 0.102-0.274 0.344-0.174 0.541a0.399 0.399 0 0 0 0.539 0.176c0.196-0.102 0.277-0.343 0.176-0.541a0.401 0.401 0 0 0-0.387-0.219z m-3.918 0.002c-0.157-0.011-0.311 0.069-0.387 0.217a0.401 0.401 0 0 0 0.176 0.541c0.198 0.1 0.439 0.022 0.539-0.176 0.102-0.198 0.023-0.439-0.174-0.541a0.402 0.402 0 0 0-0.154-0.041z m-1.152 0.316a0.487 0.487 0 0 0-0.412 0.202 0.487 0.487 0 1 0 0.789 0.572c0.158-0.217 0.11-0.523-0.108-0.682a0.483 0.483 0 0 0-0.269-0.092z m6.224 0a0.483 0.483 0 0 0-0.269 0.092c-0.218 0.159-0.268 0.465-0.11 0.682 0.157 0.219 0.464 0.267 0.682 0.109 0.218-0.159 0.269-0.465 0.109-0.681a0.486 0.486 0 0 0-0.412-0.202z m-9.39 0.016a0.7 0.7 0 0 0-0.391 0.133c-0.316 0.231-0.387 0.676-0.156 0.992a0.704 0.704 0 0 0 0.988 0.156c0.317-0.231 0.388-0.672 0.158-0.988a0.711 0.711 0 0 0-0.599-0.293z m12.554 0a0.713 0.713 0 0 0-0.599 0.293 0.705 0.705 0 0 0 0.158 0.988c0.317 0.231 0.761 0.162 0.99-0.156 0.23-0.317 0.159-0.761-0.158-0.992a0.699 0.699 0 0 0-0.391-0.133z m-6.98 0.088c-0.188 0.008-0.35 0.149-0.381 0.342-0.033 0.218 0.118 0.422 0.338 0.459 0.22 0.035 0.423-0.116 0.459-0.336 0.034-0.218-0.117-0.422-0.334-0.459a0.412 0.412 0 0 0-0.082-0.006z m1.406 0.002a0.411 0.411 0 0 0-0.082 0.004c-0.22 0.035-0.367 0.241-0.332 0.461a0.401 0.401 0 0 0 0.459 0.334 0.399 0.399 0 0 0 0.332-0.459 0.4 0.4 0 0 0-0.377-0.34z m-5.258 0.039a0.59 0.59 0 0 0-0.418 0.174 0.591 0.591 0 0 0 0.836 0.834c0.231-0.231 0.232-0.604 0.002-0.834a0.596 0.596 0 0 0-0.42-0.174z m9.11 0a0.589 0.589 0 0 0-0.418 0.174 0.587 0.587 0 0 0 0 0.834 0.588 0.588 0 0 0 0.834 0 0.589 0.589 0 0 0 0-0.834 0.585 0.585 0 0 0-0.416-0.174z m-6.242 0.613a0.488 0.488 0 0 0-0.422 0.336 0.486 0.486 0 0 0 0.314 0.615 0.489 0.489 0 0 0 0.615-0.312c0.083-0.257-0.058-0.534-0.314-0.617a0.49 0.49 0 0 0-0.193-0.022z m3.375 0a0.491 0.491 0 0 0-0.194 0.022c-0.255 0.083-0.396 0.36-0.312 0.617 0.082 0.256 0.359 0.394 0.615 0.312a0.488 0.488 0 0 0 0.312-0.615 0.488 0.488 0 0 0-0.421-0.336zM12.5 16.836a0.488 0.488 0 0 0-0.488 0.488c0 0.27 0.219 0.488 0.488 0.489 0.27 0 0.49-0.218 0.49-0.489 0-0.27-0.22-0.488-0.49-0.488z m-2.883 0.312a0.591 0.591 0 0 0-0.568 0.321c-0.147 0.292-0.032 0.646 0.258 0.795a0.592 0.592 0 0 0 0.797-0.258c0.147-0.29 0.032-0.646-0.258-0.795a0.601 0.601 0 0 0-0.229-0.063z m5.766 0a0.59 0.59 0 0 0-0.227 0.063c-0.292 0.148-0.406 0.504-0.26 0.795 0.149 0.291 0.506 0.406 0.797 0.258a0.59 0.59 0 0 0 0.256-0.795 0.586 0.586 0 0 0-0.566-0.321z m-11.811 0.303a1.004 1.004 0 0 0-0.556 0.194c-0.45 0.327-0.551 0.959-0.223 1.41 0.327 0.449 0.958 0.549 1.408 0.22 0.452-0.328 0.55-0.958 0.223-1.408a1.009 1.009 0 0 0-0.852-0.416z m17.856 0.002c-0.324-0.011-0.647 0.133-0.852 0.414-0.329 0.45-0.229 1.081 0.223 1.408 0.452 0.328 1.082 0.228 1.408-0.22 0.329-0.451 0.228-1.083-0.223-1.41a1 1 0 0 0-0.556-0.192z m-13.446 0.09a0.708 0.708 0 0 0-0.597 0.293c-0.231 0.316-0.159 0.759 0.156 0.99 0.318 0.23 0.759 0.158 0.99-0.158 0.23-0.317 0.161-0.761-0.156-0.99a0.704 0.704 0 0 0-0.393-0.135z m9.036 0a0.704 0.704 0 0 0-0.393 0.135c-0.316 0.23-0.386 0.673-0.156 0.99a0.71 0.71 0 0 0 0.99 0.158c0.317-0.23 0.387-0.674 0.156-0.99a0.707 0.707 0 0 0-0.597-0.293z m-11.075 0.162a0.847 0.847 0 0 0-0.601 0.25c-0.333 0.333-0.333 0.871 0 1.203 0.332 0.332 0.87 0.332 1.203 0a0.852 0.852 0 0 0-0.602-1.453z m13.116 0.002a0.855 0.855 0 0 0-0.604 0.248 0.85 0.85 0 0 0 0 1.203c0.333 0.332 0.871 0.331 1.205 0a0.85 0.85 0 0 0 0-1.203 0.844 0.844 0 0 0-0.601-0.248z m-7.592 0.063c-0.275 0.013-0.514 0.216-0.559 0.498-0.051 0.322 0.169 0.625 0.492 0.675a0.591 0.591 0 0 0 0.676-0.492c0.053-0.322-0.168-0.623-0.49-0.674a0.594 0.594 0 0 0-0.119-0.007z m2.066 0a0.591 0.591 0 0 0-0.119 0.007c-0.321 0.05-0.54 0.352-0.488 0.674 0.051 0.322 0.351 0.544 0.674 0.492a0.589 0.589 0 0 0 0.49-0.675c-0.044-0.282-0.282-0.486-0.557-0.498z m-3.482 0.873a0.71 0.71 0 0 0-0.614 0.488 0.708 0.708 0 0 0 0.455 0.892c0.373 0.121 0.773-0.084 0.895-0.455 0.121-0.373-0.086-0.772-0.457-0.892a0.707 0.707 0 0 0-0.279-0.033z m4.898 0a0.706 0.706 0 0 0-0.279 0.031c-0.372 0.121-0.578 0.522-0.457 0.894 0.121 0.371 0.522 0.576 0.894 0.455 0.372-0.122 0.576-0.52 0.455-0.892a0.709 0.709 0 0 0-0.613-0.488zM12.5 19.02a0.709 0.709 0 0 0-0.709 0.709c0 0.392 0.317 0.709 0.709 0.709a0.709 0.709 0 0 0 0.709-0.709 0.709 0.709 0 0 0-0.709-0.709z m-4.15 0.394a0.852 0.852 0 0 0-0.819 0.463c-0.213 0.419-0.045 0.929 0.373 1.143 0.419 0.214 0.93 0.048 1.143-0.369 0.213-0.419 0.049-0.933-0.371-1.147a0.85 0.85 0 0 0-0.326-0.09z m8.3 0a0.86 0.86 0 0 0-0.328 0.09c-0.418 0.214-0.585 0.726-0.371 1.147 0.214 0.419 0.728 0.583 1.147 0.369 0.417-0.212 0.583-0.724 0.369-1.143a0.847 0.847 0 0 0-0.817-0.463z m-10.576 0.469a1.009 1.009 0 0 0-0.851 0.416c-0.328 0.45-0.225 1.081 0.224 1.408a1.008 1.008 0 0 0 1.408-0.222c0.328-0.451 0.228-1.081-0.222-1.409a1.01 1.01 0 0 0-0.559-0.193z m12.852 0a1.012 1.012 0 0 0-0.559 0.193c-0.451 0.327-0.551 0.958-0.223 1.409 0.328 0.451 0.958 0.551 1.411 0.222 0.45-0.327 0.55-0.958 0.222-1.408a1.008 1.008 0 0 0-0.851-0.416z m-7.914 0.426c-0.396 0.018-0.738 0.312-0.803 0.718-0.074 0.462 0.242 0.9 0.707 0.973 0.463 0.074 0.9-0.244 0.973-0.709 0.074-0.464-0.242-0.898-0.705-0.972a0.852 0.852 0 0 0-0.172-0.01z m2.978 0a0.851 0.851 0 0 0-0.879 0.984c0.073 0.464 0.508 0.781 0.973 0.707 0.464-0.073 0.781-0.509 0.707-0.973-0.064-0.407-0.407-0.701-0.801-0.718z m-4.972 1.14c-0.391 0.034-0.744 0.296-0.873 0.694-0.173 0.529 0.117 1.097 0.646 1.269 0.531 0.173 1.101-0.118 1.271-0.648 0.172-0.53-0.118-1.097-0.648-1.27a0.999 0.999 0 0 0-0.396-0.045z m6.964 0a0.999 0.999 0 0 0-0.396 0.045c-0.529 0.172-0.822 0.74-0.651 1.27 0.171 0.53 0.743 0.821 1.272 0.648 0.53-0.172 0.821-0.74 0.65-1.269-0.13-0.397-0.483-0.66-0.875-0.694zM12.5 21.982c-0.557 0-1.008 0.453-1.008 1.01S11.943 24 12.5 24a1.007 1.007 0 0 0 1.008-1.008c0-0.557-0.45-1.01-1.008-1.01Z"/></svg>