<svg fill="#002D62" role="img" viewBox="0 0 73 24" xmlns="http://www.w3.org/2000/svg"><title>Fila</title><path d="M26.877 0c-1.855 0-3.362 1.504-3.362 3.362v17.276a3.362 3.362 0 0 0 6.724 0V3.362c0-1.855-1.504-3.362-3.362-3.362m-8.605 0.236H3.617a3.362 3.362 0 0 0 0 6.723h14.655a3.362 3.362 0 0 0 0-6.723m52.588 13.341L63.774 2.048c-0.831-1.341-1.963-1.987-3.398-1.988-1.474 0-2.73 0.692-3.51 1.988l-8.2 13.592c-0.562 0.93-1.208 1.317-2.274 1.316h-6.098a0.831 0.831 0 0 1-0.861-0.857V3.247c0-1.851-1.501-3.247-3.353-3.247-1.855 0-3.353 1.398-3.352 3.25v15.751c0 2.368 2.338 4.663 4.663 4.664h12.275c1.74 0 2.909-1.269 3.902-3.009l6.385-10.955c0.054-0.121 0.16-0.275 0.281-0.274 0.13 0 0.211 0.154 0.275 0.265l4.18 6.706c0.175 0.284 0.208 0.426 0.097 0.679-0.1 0.233-0.326 0.281-0.695 0.281h-5.868a3.153 3.153 0 1 0 0 6.307h9.574c2.326 0 4.947-2.217 4.948-5.114 0-1.836-0.353-2.483-1.885-4.974M16.659 8.841H3.617c-1.858 0-3.362 1.504-3.362 3.361v8.201a3.362 3.362 0 1 0 6.724 0v-3.83c0-0.559 0.453-1.009 1.009-1.009h8.668a3.362 3.362 0 0 0 0-6.723"/></svg>