<svg fill="#4285F4" role="img" viewBox="0 0 31 24" xmlns="http://www.w3.org/2000/svg"><title>Files</title><path d="M15.961 0a1.033 1.033 0 0 0-0.724 0.299L0.72 14.782a1.033 1.033 0 0 0-0.303 0.734v0.083c0-0.406 0.263-0.764 0.648-0.892l9.145-2.913a3.063 3.063 0 0 0 1.991-2.001l2.913-9.134a0.952 0.952 0 0 1 0.904-0.659zM0.417 15.599v6.343c0 1.136 0.921 2.058 2.057 2.058h26.052c1.136 0 2.058-0.921 2.057-2.058V2.058c0-1.136-0.921-2.058-2.057-2.058h-12.508v0.628l0.11 12.395c0.013 1.477-1.209 2.69-2.686 2.69L0.417 15.597zM15.5 1.517l-2.7 8.466v0.001a3.695 3.695 0 0 1-2.399 2.408l-8.442 2.691h11.483c1.138 0 2.059-0.923 2.058-2.06z m-13.026 1.226c-1.138 0-2.059 0.923-2.057 2.059v9.393l11.482-11.452Z"/></svg>