<svg fill="#00549F" role="img" viewBox="0 0 88 24" xmlns="http://www.w3.org/2000/svg"><title>Fineco</title><path d="M6.362 0a6.227 6.227 0 0 0-4.427 1.786A6.139 6.139 0 0 0 0.099 6.161v11.619a6.135 6.135 0 0 0 1.814 4.416 6.227 6.227 0 0 0 4.449 1.804h75.276v-0.059a6.227 6.227 0 0 0 4.427-1.782A6.139 6.139 0 0 0 87.901 17.78v-11.619a6.135 6.135 0 0 0-1.836-4.375 6.23 6.23 0 0 0-4.427-1.786Zm66.789 5.349c4.156 0 7.492 2.963 7.492 6.567 0 3.6-3.336 6.563-7.492 6.563-4.156 0-7.492-2.499-7.493-6.563 0-4.068 3.336-6.567 7.493-6.567z m-12.234 0.058a11.846 11.846 0 0 1 3.512 0.524l-0.585 1.917a8.839 8.839 0 0 0-2.927-0.465c-3.629 0-6.556 1.452-6.556 4.588 0 3.139 2.927 4.591 6.556 4.591a8.897 8.897 0 0 0 2.868-0.465l0.585 1.917a11.846 11.846 0 0 1-3.453 0.524c-5.561 0-9.014-2.499-9.015-6.567 0-4.065 4.039-6.563 9.015-6.564z m-52.448 0.231h9.425v1.858h-7.025v3.549h6.673v1.859H10.869v5.403h-2.4Zm12.117 0h2.4v12.691H20.586Zm5.502 0h2.986l3.98 5.403a33.025 33.025 0 0 1 2.634 4.244h0.059a47.476 47.476 0 0 1-0.234-5.29v-4.357h2.4v12.665H35.22L31.181 12.732a42.365 42.365 0 0 1-2.751-4.416h-0.059c0.117 1.624 0.117 3.311 0.117 5.403v4.53l-2.4 0.058z m14.634 0h9.424v1.917h-7.024v3.486h6.673v1.917H43.122v3.487l7.024-0.059v1.917h-9.424z m32.429 1.628c-2.81 0-5.093 1.452-5.093 4.646 0 3.197 2.283 4.65 5.093 4.65 2.81 0 5.093-2.093 5.092-4.646 0-2.561-2.283-4.65-5.092-4.65z"/></svg>