<svg fill="#F07A5B" role="img" viewBox="0 0 25 24" xmlns="http://www.w3.org/2000/svg"><title>Firefish</title><path d="M17.271 0c-0.68-0.016-1.342 0.507-1.342 1.304V7.27c0 0.719 0.582 1.301 1.3 1.301h5.967c1.16 0 1.74-1.401 0.92-2.22L18.15 0.383a1.275 1.275 0 0 0-0.879-0.383ZM7.073 0.106c-0.672-0.017-1.326 0.5-1.326 1.287v5.892c0 0.71 0.575 1.285 1.285 1.285h5.892c1.145 0 1.718-1.384 0.908-2.194L7.94 0.484a1.259 1.259 0 0 0-0.867-0.379ZM1.786 10.287c-0.71 0-1.286 0.576-1.286 1.286v11.142C0.5 23.425 1.076 24 1.786 24h11.143c0.71 0 1.285-0.575 1.285-1.285V11.573c0-0.71-0.575-1.286-1.285-1.286z m15.485 0c-0.68-0.017-1.342 0.507-1.342 1.304v5.966c0 0.718 0.582 1.3 1.3 1.3h5.967c1.16 0 1.74-1.4 0.92-2.22L18.15 10.67a1.275 1.275 0 0 0-0.879-0.384zM3.93 17.144a1.714 1.714 0 1 1 0 3.428 1.714 1.714 0 0 1 0-3.428z m4.285 0a1.714 1.714 0 1 1 0 3.428 1.714 1.714 0 0 1 0-3.428z"/></svg>