<svg fill="#C8332D" role="img" viewBox="0 0 16 24" xmlns="http://www.w3.org/2000/svg"><title>Firewalla</title><path d="M8.156 0c-3.602 4.89 0.391 7.768 2.61 11.893-0.751 1.527-1.745 3.08-2.733 4.836l-0.072 0.025c-0.849-0.983-1.99-1.85-3.033-2.967 2.606-5.783-0.809-9.812-0.809-9.812a12.555 12.555 0 0 0-1.916 2.021c-2.296 3.06-2.027 5.897-2.027 5.897C0.176 19.07 8.125 24 8.125 24a21.738 21.738 0 0 0 2.139-1.594c5.864-4.974 5.564-10.513 5.564-10.513 0.122-4.308-1.622-5.905-4.82-9.014A83.864 83.864 0 0 1 8.156 0z m0.281 17.37z m0.397 0.687a4.298 4.298 0 0 1 0.14 0.328 4.463 4.463 0 0 0-0.14-0.328z m0.266 0.718a4.289 4.289 0 0 1 0.14 0.791c0.024 0.286 0.023 0.588-0.006 0.91a5.23 5.23 0 0 0 0.006-0.91 4.513 4.513 0 0 0-0.14-0.79z"/></svg>