<svg fill="#0066B3" role="img" viewBox="0 0 32 24" xmlns="http://www.w3.org/2000/svg"><title>FIRST</title><path d="M17.755 23.63c0.81 0.24 1.65 0.365 2.494 0.37 1.111 0 1.96-0.252 2.69-0.779 0.811-0.575 1.333-1.462 1.333-2.266a1.771 1.771 0 0 0-0.653-1.378c-0.326-0.264-0.666-0.469-1.358-0.793l-0.562-0.263c-0.182-0.096-0.274-0.192-0.274-0.3 0-0.288 0.366-0.503 0.861-0.503 0.373 0 0.815 0.108 1.661 0.385l0.583-2.166a7.064 7.064 0 0 0-1.864-0.258c-2.325 0-4.115 1.27-4.115 2.914 0 0.864 0.575 1.475 2.011 2.146 0.679 0.312 0.798 0.395 0.798 0.613 0 0.322-0.353 0.527-0.927 0.527-0.51 0-1.162-0.156-2.051-0.48h-0.001Zm-6.027-7.747l0.184-0.024c0.913-0.107 2.051-0.18 2.677-0.18 1.045 0 1.855 0.12 2.468 0.373 0.784 0.322 1.254 1.031 1.255 1.881 0 0.732-0.249 1.427-0.719 1.967-0.405 0.466-0.77 0.695-1.528 0.923l-0.184 0.06c0.08 0.06 0.105 0.084 0.144 0.12 0.222 0.253 0.888 1.547 1.452 2.829h-3.136a43.662 43.662 0 0 0-1.059-2.733l-0.626 2.733h-2.769Zm-3.591-0.048h2.847L9.129 23.832H6.282Zm-6.261 0h5.511l-0.519 2.122H4.226l-0.261 1.115h2.757l-0.48 1.967H3.521l-0.653 2.793H0.021Zm23.195 0H31.979l-0.484 2.315h-2.05l-1.358 5.682H25.241l1.358-5.682h-2.224z m-11.24 3.813c0.915 0 1.555-0.541 1.555-1.307 0-0.407-0.301-0.613-0.888-0.613a1.944 1.944 0 0 0-0.445 0.05l-0.431 1.847c0.093 0.012 0.105 0.024 0.209 0.023z m14.501-12.942L21.326 0.011 18.972 2.466c-0.972-0.377-2.503-0.679-3.666-0.679-1.692 0-3.437 0.578-4.655 1.332L7.366 0.005v-0.004h-0.002l-0.003-0.001v0.003l-1.175 0.122-2.535 13.884 1.18 0.123v-0.004l5.351-2.341 0.026 0.024c1.273 1.123 3.182 1.838 5.321 1.837 1.482 0 2.855-0.345 3.982-0.93l2.151 2.065 6.671-6.945v-1.131ZM4.883 13.838L7.326 0.237l3.486 3.302 1.092 1.035 0.834 0.791 1.981 1.888v0.862l0.842 0.808-2.63 1.198a4.77 4.77 0 0 1-1.516-0.992l-0.026-0.028 2.018-0.943-4.745-4.42-0.093-0.094-0.115 0.613-1.121 5.842-0.173 0.908 0.297-0.128 0.001-0.007 1.525-0.654c0.24 0.502 0.581 0.969 1.005 1.388z m16.779-0.187l-1.422-1.366a5.699 5.699 0 0 0 1.398-1.332l0.013-0.021L25.111 7.34l0.102-0.111 0.453-0.47-4.225-4.056-0.95 0.988-1.048 1.092-0.713 0.743-1.345 1.401-0.116 0.122 0.393 0.376 1.82 1.775c-0.399 0.377-0.905 0.7-1.477 0.937l-1.202-1.152-1.18-1.133-0.801-0.76 1.906-1.987 0.959-0.998 1.04-1.084 2.601-2.709 6.848 6.554z m-2.301-2.2a7.417 7.417 0 0 1-0.804 0.351c-0.959 0.354-1.993 0.533-3.072 0.532-1.531 0-2.98-0.362-4.191-1.052a6.015 6.015 0 0 1-1.669-1.371 4.735 4.735 0 0 1-0.443-0.629 3.996 3.996 0 0 1-0.557-1.985c0-0.732 0.21-1.438 0.625-2.1l1.114 1.127a2.783 2.783 0 0 0-0.034 1.438c0.076 0.31 0.206 0.613 0.388 0.9 0.144 0.229 0.318 0.446 0.519 0.646 0.553 0.553 1.302 0.985 2.168 1.255a6.983 6.983 0 0 0 2.08 0.309c0.583 0 1.158-0.069 1.713-0.206 0.314-0.08 0.619-0.178 0.903-0.297 0.656-0.273 1.233-0.652 1.669-1.1a3.249 3.249 0 0 0 0.868-1.506c0.053-0.221 0.08-0.442 0.08-0.656 0-0.621-0.233-1.322-0.613-1.859l0.946-0.987c0.812 0.844 1.292 1.971 1.291 3.036 0 0.196-0.017 0.399-0.05 0.607-0.146 0.893-0.621 1.744-1.372 2.461-0.439 0.421-0.964 0.786-1.558 1.086z m-3.374-2.117l1.136 1.092a6.901 6.901 0 0 1-3.893-0.186l2.52-1.132z m6.558-1.442c0.031-0.202 0.049-0.402 0.049-0.595 0-1.136-0.515-2.333-1.378-3.225l0.225-0.234 3.499 3.36-2.897 3.018c0.306-0.716 0.506-1.598 0.506-2.232a1.321 1.321 0 0 0-0.004-0.092z m-14.115 0.053l0.005 0.024a1.052 1.052 0 0 0-0.005 0.084c0 0.334 0.205 1.129 0.288 1.446l-1.088 0.466 1.038-5.406 0.427 0.421a4.172 4.172 0 0 0-0.72 2.317c0 0.21 0.017 0.422 0.054 0.648z m11.205 1.102l-1.651-1.61 1.398-1.457c0.498 0.414 0.866 0.911 1.061 1.455-0.012 0.089-0.027 0.178-0.049 0.268-0.117 0.483-0.373 0.933-0.759 1.344z m-8.667-0.464l-0.039-0.053a2.808 2.808 0 0 1-0.355-0.826c-0.008-0.031-0.011-0.06-0.017-0.09a2.943 2.943 0 0 1 0.376-0.812l1.324 1.307z m5.748-3.768l-2.037 2.122-1.788-1.696c0.834-0.354 1.731-0.533 2.636-0.527 0.41 0 0.808 0.036 1.189 0.101z m-1.466-2.763c1.105 0 2.581 0.284 3.52 0.626l-0.043 0.044-1.041 1.084-0.003 0.004a6.808 6.808 0 0 0-2.154-0.343c-1.345 0-2.566 0.373-3.474 0.982l-0.014-0.014-1.092-1.034-0.097-0.092c1.193-0.72 2.743-1.257 4.398-1.257Zm2.505 21.578c0.81 0.24 1.65 0.365 2.494 0.37 1.111 0 1.96-0.252 2.69-0.779 0.811-0.575 1.333-1.462 1.333-2.266a1.771 1.771 0 0 0-0.653-1.378c-0.326-0.264-0.666-0.469-1.358-0.793l-0.562-0.263c-0.182-0.096-0.274-0.192-0.274-0.3 0-0.288 0.366-0.503 0.861-0.503 0.373 0 0.815 0.108 1.661 0.385l0.583-2.166a7.064 7.064 0 0 0-1.864-0.258c-2.325 0-4.115 1.27-4.115 2.914 0 0.864 0.575 1.475 2.011 2.146 0.679 0.312 0.798 0.395 0.798 0.613 0 0.322-0.353 0.527-0.927 0.527-0.51 0-1.162-0.156-2.051-0.48h-0.001Zm-6.027-7.747l0.184-0.024c0.913-0.107 2.051-0.18 2.677-0.18 1.045 0 1.855 0.12 2.468 0.373 0.784 0.322 1.254 1.031 1.255 1.881 0 0.732-0.249 1.427-0.719 1.967-0.405 0.466-0.77 0.695-1.528 0.923l-0.184 0.06c0.08 0.06 0.105 0.084 0.144 0.12 0.222 0.253 0.888 1.547 1.452 2.829h-3.136a43.662 43.662 0 0 0-1.059-2.733l-0.626 2.733h-2.769Zm-3.591-0.048h2.847L9.129 23.832H6.282Zm-6.261 0h5.511l-0.519 2.122H4.226l-0.261 1.115h2.757l-0.48 1.967H3.521l-0.653 2.793H0.021Zm23.195 0H31.979l-0.484 2.315h-2.05l-1.358 5.682H25.241l1.358-5.682h-2.224z m-11.24 3.813c0.915 0 1.555-0.541 1.555-1.307 0-0.407-0.301-0.613-0.888-0.613a1.944 1.944 0 0 0-0.445 0.05l-0.431 1.847c0.093 0.012 0.105 0.024 0.209 0.023z m14.501-12.942L21.326 0.011 18.972 2.466c-0.972-0.377-2.503-0.679-3.666-0.679-1.692 0-3.437 0.578-4.655 1.332L7.366 0.005v-0.004h-0.002l-0.003-0.001v0.003l-1.175 0.122-2.535 13.884 1.18 0.123v-0.004l5.351-2.341 0.026 0.024c1.273 1.123 3.182 1.838 5.321 1.837 1.482 0 2.855-0.345 3.982-0.93l2.151 2.065 6.671-6.945v-1.131ZM4.883 13.838L7.326 0.237l3.486 3.302 1.092 1.035 0.834 0.791 1.981 1.888v0.862l0.842 0.808-2.63 1.198a4.77 4.77 0 0 1-1.516-0.992l-0.026-0.028 2.018-0.943-4.745-4.42-0.093-0.094-0.115 0.613-1.121 5.842-0.173 0.908 0.297-0.128 0.001-0.007 1.525-0.654c0.24 0.502 0.581 0.969 1.005 1.388z m16.779-0.187l-1.422-1.366a5.699 5.699 0 0 0 1.398-1.332l0.013-0.021L25.111 7.34l0.102-0.111 0.453-0.47-4.225-4.056-0.95 0.988-1.048 1.092-0.713 0.743-1.345 1.401-0.116 0.122 0.393 0.376 1.82 1.775c-0.399 0.377-0.905 0.7-1.477 0.937l-1.202-1.152-1.18-1.133-0.801-0.76 1.906-1.987 0.959-0.998 1.04-1.084 2.601-2.709 6.848 6.554z m-2.301-2.2a7.417 7.417 0 0 1-0.804 0.351c-0.959 0.354-1.993 0.533-3.072 0.532-1.531 0-2.98-0.362-4.191-1.052a6.015 6.015 0 0 1-1.669-1.371 4.735 4.735 0 0 1-0.443-0.629 3.996 3.996 0 0 1-0.557-1.985c0-0.732 0.21-1.438 0.625-2.1l1.114 1.127a2.783 2.783 0 0 0-0.034 1.438c0.076 0.31 0.206 0.613 0.388 0.9 0.144 0.229 0.318 0.446 0.519 0.646 0.553 0.553 1.302 0.985 2.168 1.255a6.983 6.983 0 0 0 2.08 0.309c0.583 0 1.158-0.069 1.713-0.206 0.314-0.08 0.619-0.178 0.903-0.297 0.656-0.273 1.233-0.652 1.669-1.1a3.249 3.249 0 0 0 0.868-1.506c0.053-0.221 0.08-0.442 0.08-0.656 0-0.621-0.233-1.322-0.613-1.859l0.946-0.987c0.812 0.844 1.292 1.971 1.291 3.036 0 0.196-0.017 0.399-0.05 0.607-0.146 0.893-0.621 1.744-1.372 2.461-0.439 0.421-0.964 0.786-1.558 1.086z m-3.374-2.117l1.136 1.092a6.901 6.901 0 0 1-3.893-0.186l2.52-1.132z m6.558-1.442c0.031-0.202 0.049-0.402 0.049-0.595 0-1.136-0.515-2.333-1.378-3.225l0.225-0.234 3.499 3.36-2.897 3.018c0.306-0.716 0.506-1.598 0.506-2.232a1.321 1.321 0 0 0-0.004-0.092z m-14.115 0.053l0.005 0.024a1.052 1.052 0 0 0-0.005 0.084c0 0.334 0.205 1.129 0.288 1.446l-1.088 0.466 1.038-5.406 0.427 0.421a4.172 4.172 0 0 0-0.72 2.317c0 0.21 0.017 0.422 0.054 0.648z m11.205 1.102l-1.651-1.61 1.398-1.457c0.498 0.414 0.866 0.911 1.061 1.455-0.012 0.089-0.027 0.178-0.049 0.268-0.117 0.483-0.373 0.933-0.759 1.344z m-8.667-0.464l-0.039-0.053a2.808 2.808 0 0 1-0.355-0.826c-0.008-0.031-0.011-0.06-0.017-0.09a2.943 2.943 0 0 1 0.376-0.812l1.324 1.307z m5.748-3.768l-2.037 2.122-1.788-1.696c0.834-0.354 1.731-0.533 2.636-0.527 0.41 0 0.808 0.036 1.189 0.101z m-1.466-2.763c1.105 0 2.581 0.284 3.52 0.626l-0.043 0.044-1.041 1.084-0.003 0.004a6.808 6.808 0 0 0-2.154-0.343c-1.345 0-2.566 0.373-3.474 0.982l-0.014-0.014-1.092-1.034-0.097-0.092c1.193-0.72 2.743-1.257 4.398-1.257Z"/></svg>