<svg fill="#34C534" role="img" viewBox="0 0 38 24" xmlns="http://www.w3.org/2000/svg"><title>fish shell</title><path d="M30.306 7.627l-4.76 4.242v0.832l4.76 4.242v-1.938l-3.056-2.719 3.056-2.721V7.627m-10.507 0.073v1.906l3.006 2.676-3.006 2.675v1.908l4.683-4.174v-0.817l-4.683-4.174M15.498 5.448a10.288 10.288 0 0 0-3.216-0.529c-1.06 0-2.129 0.177-3.204 0.529a14.566 14.566 0 0 0-3.295 1.605v1.141c1.089-0.631 2.173-1.105 3.251-1.416a11.659 11.659 0 0 1 3.248-0.467c1.079 0 2.159 0.155 3.238 0.467a14.916 14.916 0 0 1 3.275 1.416v-1.141a14.564 14.564 0 0 0-3.298-1.605m0.022 12.277a11.632 11.632 0 0 1-3.239 0.468 11.659 11.659 0 0 1-3.246-0.468 14.487 14.487 0 0 1-3.252-1.415v1.141a14.563 14.563 0 0 0 3.295 1.605 10.245 10.245 0 0 0 3.203 0.528c1.07 0 2.142-0.177 3.217-0.528a14.561 14.561 0 0 0 3.296-1.605v-1.141c-1.105 0.631-2.195 1.105-3.274 1.415m0.95-17.722h-0.805L11.551 3.985h1.878l2.639-2.557 2.637 2.557h1.879l-4.114-3.985m-4.679 21.589v-1.301H10.205v1.302l1.241 2.41h0.969l-0.624-2.41M6.575 10.345v1.919H8.158V10.345H6.575m-1.83-2.675L0.063 11.845v0.818l4.682 4.174v-1.906L1.74 12.254l3.005-2.675V7.671m32.635 5.176c-0.371-0.473-0.906-0.803-1.605-0.987 0.623-0.163 1.098-0.439 1.424-0.829 0.325-0.39 0.489-0.877 0.489-1.461 0-0.862-0.311-1.553-0.931-2.074-0.62-0.521-1.45-0.781-2.486-0.781-0.347 0-0.746 0.039-1.196 0.115-0.448 0.076-0.963 0.189-1.537 0.343v1.325c0.496-0.189 0.967-0.331 1.42-0.426a6.391 6.391 0 0 1 1.313-0.144c0.636 0 1.127 0.147 1.473 0.439 0.344 0.292 0.518 0.712 0.517 1.26 0 0.518-0.186 0.922-0.557 1.212-0.371 0.29-0.887 0.436-1.546 0.435h-1.1v1.184h1.098c0.723 0 1.296 0.183 1.72 0.546 0.423 0.363 0.634 0.855 0.635 1.474 0 0.671-0.211 1.184-0.635 1.54-0.425 0.357-1.031 0.535-1.819 0.535a5.602 5.602 0 0 1-1.405-0.185 6.936 6.936 0 0 1-1.436-0.565v1.435a9.627 9.627 0 0 0 1.499 0.393c0.51 0.09 1.008 0.134 1.5 0.134 1.165 0 2.075-0.279 2.735-0.837 0.658-0.56 0.988-1.329 0.987-2.308 0-0.709-0.186-1.299-0.557-1.773"/></svg>