<svg fill="#00B0B9" role="img" viewBox="0 0 25 24" xmlns="http://www.w3.org/2000/svg"><title>Fitbit</title><path d="M13.802 1.791c0 0.979-0.813 1.791-1.792 1.791-0.975 0-1.79-0.813-1.79-1.791 0-0.976 0.816-1.791 1.79-1.791 0.979 0 1.792 0.816 1.792 1.791z m-1.792 3.254c-1.056 0-1.869 0.813-1.869 1.872 0 1.057 0.813 1.871 1.871 1.871 1.057 0 1.871-0.814 1.872-1.871s-0.828-1.872-1.882-1.872h0.008z m0 5.046c-1.056 0-1.952 0.894-1.951 1.951s0.897 1.952 1.953 1.952 1.953-0.894 1.953-1.952-0.897-1.952-1.953-1.951h-0.002z m0 5.124c-1.056 0-1.869 0.813-1.869 1.87s0.813 1.872 1.871 1.872c1.057 0 1.871-0.814 1.872-1.872 0-0.975-0.828-1.87-1.882-1.87h0.008z m0 5.208c-0.975 0-1.79 0.812-1.79 1.79 0 0.973 0.816 1.787 1.79 1.787 0.98 0 1.792-0.812 1.792-1.79 0-0.976-0.813-1.787-1.792-1.787zM16.975 4.799c-1.14 0-2.115 0.98-2.115 2.118 0 1.138 0.976 2.114 2.115 2.114 1.139 0 2.113-0.978 2.113-2.114 0-1.139-0.975-2.116-2.113-2.116v-0.002z m0 5.047c-1.22 0-2.197 0.976-2.197 2.197 0 1.22 0.978 2.194 2.197 2.194 1.219 0 2.196-0.974 2.196-2.196 0-1.22-0.977-2.195-2.196-2.195z m0 5.125c-1.14 0-2.115 0.979-2.115 2.114 0 1.139 0.976 2.116 2.115 2.116 1.139 0 2.113-0.979 2.113-2.116s-0.974-2.114-2.113-2.114z m5.123-5.371c-1.3 0-2.438 1.059-2.438 2.442 0 1.301 1.055 2.441 2.438 2.441 1.386 0 2.442-1.069 2.442-2.452-0.082-1.387-1.139-2.439-2.442-2.439v0.008zM6.968 5.29c-0.895 0-1.625 0.732-1.626 1.628 0 0.894 0.731 1.625 1.626 1.625 0.896 0 1.624-0.731 1.624-1.625 0-0.896-0.729-1.625-1.624-1.625v-0.003z m0 5.043c-0.976 0-1.709 0.731-1.709 1.709 0 0.978 0.723 1.709 1.701 1.709s1.701-0.732 1.7-1.709c0-0.978-0.737-1.709-1.716-1.709h0.024z m0 5.125c-0.895 0-1.625 0.733-1.626 1.625 0 0.898 0.731 1.628 1.626 1.628 0.896 0 1.624-0.737 1.624-1.64s-0.729-1.625-1.624-1.626v0.013z m-5.042-4.88c-0.816 0-1.466 0.648-1.466 1.464 0 0.813 0.65 1.464 1.465 1.464 0.813 0 1.464-0.65 1.464-1.464s-0.65-1.464-1.463-1.464z"/></svg>