<svg fill="#1DBF73" role="img" viewBox="0 0 81 24" xmlns="http://www.w3.org/2000/svg"><title>Fiverr</title><path d="M77.303 24a3.328 3.328 0 1 0 0.006-6.656 3.328 3.328 0 0 0-0.006 6.656z m-3.331-12.391h-2.843c-1.826 0-2.809 1.371-2.81 3.652v8.247h-5.384v-11.899h-2.288c-1.829 0-2.809 1.371-2.809 3.652v8.247h-5.385v-16.301h5.385v2.475c0.883-1.92 2.094-2.475 3.889-2.475h6.596v2.475c0.883-1.92 2.09-2.475 3.886-2.475h1.763v4.402z m-22.696 5.02h-11.234c0.294 1.826 1.438 2.87 3.364 2.869 1.438 0 2.448-0.585 2.776-1.628l4.766 1.337c-1.174 2.836-4.08 4.562-7.542 4.562-5.846 0-8.525-4.532-8.525-8.411 0-3.813 2.351-8.378 8.194-8.378 6.207 0 8.264 4.629 8.264 8.053 0 0.749-0.033 1.237-0.066 1.596z m-5.224-3.161c-0.134-1.405-1.144-2.709-2.973-2.709-1.699 0-2.709 0.753-3.037 2.709h6.01zM25.477 23.505h4.735l5.91-16.301h-5.418l-2.876 9.488-2.937-9.488H19.497l5.976 16.301z m-22.074 0H8.761v-11.9h5.097v11.9h5.321v-16.301H8.761v-1.01c0-1.11 0.786-1.793 2.027-1.793h3.07V0H9.898c-3.886 0-6.498 2.381-6.498 5.87v1.337H0.366v4.402h3.037v11.899z"/></svg>