<svg fill="#000000" role="img" viewBox="0 0 27 24" xmlns="http://www.w3.org/2000/svg"><title>Flask</title><path d="M8.088 21.372c-1.025-0.807-2.119-1.581-2.866-2.668-1.572-1.919-2.782-4.141-3.609-6.476-0.5-1.519-0.673-3.148-1.316-4.607-0.675-1.058 0.115-2.217 1.275-2.556 0.516-0.098 1.426-0.585 0.329-0.237-0.984 0.722-1.08-0.656-0.071-0.742 0.689-0.092 0.942-0.656 0.706-1.163-0.74-0.482 1.794-1.012 0.519-1.73C1.729-0.241 4.913-0.516 4.128 1.11 3.941 2.36 6.352 0.88 5.793 2.324c0.568 0.694 2.13 0.157 2.091 1.131 0.83 0.056 1.113 0.753 1.891 0.807 0.807 0.364 2.267 0.65 2.54 1.558-0.799 0.634-2.65-1.306-2.739 0.446 0.241 2.59 0.179 5.256 1.126 7.722 0.448 1.493 1.536 2.668 2.515 3.832 0.938 1.139 2.21 1.939 3.506 2.615 1.137 0.536 2.362 0.891 3.602 1.114 0.502-0.385 1.39-1.813 2.172-1.211 0.037 0.677-1.556 1.416-0.075 1.341 0.87-0.262 1.473 0.673 2.189-0.17 0.659 0.781 2.742-0.5 2.273 1.098-0.634 0.408-1.56 0.161-2.196 0.725-1.048-0.524-1.883 0.469-3.044 0.343a22.263 22.263 0 0 1-3.906 0.325c-2.143-0.168-4.333-0.24-6.371-0.987-1.148-0.333-2.268-0.988-3.278-1.641z m1.81 0.785c1.121 0.484 2.217 0.995 3.446 1.15 1.951 0.269 3.965 0.688 5.922 0.307-0.886-0.4-1.803 0.157-2.684-0.286-1.058 0.228-2.194-0.058-3.27-0.198-1.224-0.545-2.545-0.919-3.69-1.628-1.432-0.522 0.74 0.67 1.127 0.768 0.895 0.508-0.983-0.261-1.249-0.472-0.749-0.42-0.845-0.333-0.074 0.094 0.156 0.09 0.309 0.186 0.471 0.264z m-2.134-1.509c1.087 0.402-0.004-0.765-0.505-0.697-0.22-0.382-0.842-0.624-0.403-0.83-0.789 0.274-0.826-1.043-1.2-0.855-0.834-0.263-0.325-1.199-1.318-1.772-0.091-0.605-0.989-1.13-1.276-2.042-0.127-0.466-1.015-1.808-0.468-0.561 0.464 1.202 1.281 2.231 1.961 3.259 0.527 0.979 1.151 2.002 2.113 2.612 0.325 0.312 0.637 0.788 1.096 0.886zM4.633 17.21c0.037-0.164 0.198 0.355 0 0z m4.432 3.92c0.241-0.108-0.348-0.135 0 0z m0.59 0.215c-0.061-0.297-0.269 0.166 0 0z m0.74 0.308c0.35-0.336-0.543-0.211 0 0z m1.263 0.707c0.214-0.316-0.684-0.12 0 0zM9.229 20.664c0.546-0.353-0.706-0.004 0 0z m0.554 0.275c-0.016-0.186-0.197 0.084 0 0z m2.769 1.729c0.445 0.28 2.601 0.617 1.249 0.115-0.224 0.047-2.5-0.643-1.251-0.115z m-4.396-3.424c-0.045-0.187-0.691-0.207 0 0z m1.289 0.751c0.336-0.235-0.696-0.179 0 0z m1.083 0.665c0.482-0.182-0.78-0.183 0 0z m-2.897-1.987c0.522 0.401 2.108 0.052 0.801-0.239-0.594-0.317-1.936-0.534-1.023 0.19z m3.632 2.217c0.216-0.37-0.914-0.213 0 0z m-1.103-0.878c1.278 0.362-1.074-0.807-0.315-0.132l0.169 0.076 0.145 0.056z m2.212 1.278c1.211 0.011-1.093-0.165 0 0z m-5.206-3.318c-0.047-0.224-0.298 0.02 0 0z m7.253 4.467c0.031-0.407-0.396 0.303 0 0z m-5.19-3.201c-0.072-0.214-0.377-0.009 0 0z m-1.949-1.406c0.695-0.041-0.951-0.306 0 0z m-2.309-1.493c-0.086-0.333-0.756-0.599 0 0z m6.062 3.85c-0.128-0.146-0.061 0.031 0 0z m3.773 2.315c-0.011-0.221-0.205 0.084 0 0z m-4.108-2.66c0.067-0.286-0.592-0.086 0 0z m-2.809-1.785c0.516-0.056-0.83-0.349 0 0z m4.754 2.957c0.805-0.319-0.785-0.157 0 0zM10.17 19.337c0.927 0.119-1.104-0.631-0.202-0.067z m3.225 1.982c0.867-0.518 0.581 1.213 1.469 0.146 0.877-0.639-0.757 0.793 0.325 0.116 0.78-0.524 1.935 0.247 2.664 0.498 0.525-0.026 1.035 0.454 1.573 0.163 1.035-0.28-2.025-0.415-1.222-0.908-0.947 0.275-1.648-0.33-2.113-0.936-1.063-0.247-2.291-0.788-2.822-1.729-0.215-0.353 0.314 0.049-0.186-0.527-0.639-0.569-0.96-1.216-1.39-1.908-0.512-0.274-0.572-1.08-0.625-0.026 0.004-0.665-0.62-1.112-0.771-0.926-0.002-0.64 0.667-0.319 0.197-0.793-0.101-0.664-0.433-1.356-0.532-2.104-0.155-0.361-0.022-1.133-0.53-0.316-0.185 0.863-0.062-1.062 0.226-0.426 0.378-0.65-0.135-0.572-0.157-0.482 0.247-0.547 0.157-1.323-0.064-1.027 0.131-0.58 0.207-2.132-0.196-1.857 0.244-0.605 0.464-2.772-0.598-1.946-0.43 0.006-1.175 0.157-1.528 0.332 1.105 0.609-0.112 0.22-0.561 0.123-0.058 0.563-0.504 0.319-1.06 0.326 0.889 0.11-0.433 0.908-0.943 0.598-0.661 0.316 0.572 1.106 0.013 1.351 0.067 0.368-1.015-0.135-0.93 0.717-0.642-0.27-0.087 1.009 0.234 0.577 1.093 0.296 0.769 0.971 0.796 1.611-0.177 0.373-0.879-0.878-0.157-0.82-0.568-0.927-0.629-0.336-1.103 0.095-0.112 0.031 1.21 0.613 0.381 0.901 0.729 0.112 0.749 0.751 0.897 1.154 0.437 0.456 0.348-0.504 0.873 0.045-0.332-0.489-1.757-1.377-0.61-1.092-0.006-0.493-0.207-0.889 0.145-0.879 0.348-0.63-0.364 1.555 0.42 0.754 0.216-0.095 0.269-0.631 0.662 0.05 0.566 0.558 0.204 0.962-0.595 0.452 0.142 0.485 1.069 0.658 0.895 1.418 0.185 0.667 0.443 0.422 0.668 0.383 0.177 0.648 0.277 0.172 0.286-0.138 0.807 0.174 0.619 0.65 0.872 0.987 0.557 0.251-0.798-1.706 0.16-0.59 1.007 0.908 0.378 1.289-0.527 1.144 0.572-0.046 0.757 0.774 1.472 0.744 0.652 0.311 1.093 1.502-0.031 1.006-0.39-0.351-1.771-0.785-0.642-0.117 1.041 0.482 1.866 0.771 2.871 1.376 0.717 0.513 1.029 1.101 1.3 1.217-0.603 0.288-1.819-0.231-0.916-0.39-0.564-0.102-1.197-0.387-0.658 0.314 0.46 0.385 1.625 0.343 1.835 0.386-0.178 0.39-0.482 0.422 0.007 0.452-0.545 0.291 0.175 0.336 0.226 0.502z m-1.115-3.147c-0.332-0.348-0.418-0.998-0.059-0.432 0.184 0.074 0.589 1.062 0.059 0.432z m3.63 2.305c0.207-0.012 0.007 0.157 0 0z m-4.154-3.156c-0.011-0.525 0.12 0.404 0 0z m-0.361-0.486c-0.417-0.807 0.527 0.229 0 0z m-4.372-3.017c0.246-0.067 0.121 0.419 0 0z m3.479 1.885c0.15-0.565 0.177 0.475 0 0z m-2.457-1.709c-0.174-0.312 0.362 0.291 0 0z m2.11 0.677c-0.395-0.886 0.28-0.484 0.087 0.145zM6.516 12.244c-0.177-0.291-0.469-1.143-0.374-1.404 0.085 0.424 0.901 1.824 0.4 0.581-0.554-1.043 0.661 0.339 0.787 0.598 0.056 0.258-0.342-0.071-0.072 0.536-0.493-0.692-0.291 0.381-0.741-0.311z m-1.124-0.775c0.045-0.676 0.258 0.463 0 0z m0.504 0.174c0.242-0.51 0.41 0.711 0 0z m-1.215-0.942c-0.419-0.415-0.722-0.799 0.019-0.258 0.286 0.011-0.634-0.872 0.067-0.28 0.74 0.135 0.367 1.213-0.086 0.538z m0.639-0.017c0.243-0.241 0.129 0.238 0 0z m0.392 0.127c-0.368-0.692 0.448 0.289 0 0z m-0.781-0.748c-1.217-1.083 1.53 0.567 0.198 0.202z m3.486 2.027c-0.527-0.316-0.138-2.224 0.042-0.919 0.512-0.166-0.028 0.673 0.353 0.666-0.059 0.53-0.231 0.721-0.393 0.253z m1.289 0.762c0.054-0.575 0.111 0.392 0 0z m-0.224-0.222c0.061-0.247 0.008 0.289 0 0zM5.171 9.708c-0.781-1.08 2.272 1.091 0.501 0.273-0.185-0.048-0.408-0.067-0.501-0.273z m2.484 1.317c-0.074-0.908 0.165 0.15 0 0z m1.885 1.21c0.146-0.518 0.011 0.342 0 0zM5.29 9.295c0.465-0.099 1.926 0.817 0.582 0.263-0.148-0.166-0.466-0.09-0.582-0.263z m3.99 1.99c0.049-0.93 0.278-0.555 0.003 0.132zM5.636 8.972c0.189-0.278-0.504-1.256 0.1-0.35 0.26 0.207 0.753 0.348 0.317 0.433 0.684 0.604-0.168 0.164-0.417-0.083z m3.447 2.023c0.131-1.058 0.115 0.62 0 0zM5.24 7.995c0.145-0.062 0.076 0.193 0 0z m0.899 0.536c0.231-0.487 0.426 0.541 0 0z m2.537 1.411c-0.002-0.187 0.048 0.271 0 0z m-0.147-0.325c-0.352-0.87 0.327 0.46 0 0z m-0.216-0.572c-0.059-0.359 0.202 0.453 0 0z m0.352-0.571c-0.242-0.426 0.305-1.875 0.365-0.976-0.254 0.701-0.073 1.093 0.105 0.153 0.328-0.74-0.071 1.461-0.471 0.824z m0.361-2.156c0.105-0.129 0.022 0.156 0 0zM8.422 18.215c-0.143-0.124 0.018 0.078 0 0z m1.244 0.628c0.689 0.179 0.686-0.106 0.062-0.191-0.336-0.314-1.397-0.645-0.449-0.039 0.064 0.159 0.263 0.156 0.386 0.231zM7.21 17.213c0.381 0.284 1.435 0.806 0.542 0.108 0.302-0.35-0.576-0.536-0.284-0.769-0.74-0.453-0.583-0.413-0.065-0.399-0.89-0.397 0.128-0.368 0.078-0.572-0.342-0.067-1.704-0.605-0.901 0.045-0.814-0.415-0.194 0.155-0.44 0.094-0.833-0.226 0.74 0.633-0.132 0.42 0.476 0.378 1.285 0.969 0.202 0.4-0.143 0.205 0.774 0.516 1 0.673z m1.3 0.748c1.581 0.509-0.775-0.623 0 0z m6.659 4.033c0.022-0.314-0.216 0.269 0 0z m0.685 0.288c0.364-0.353 0.015 0.564 0.605-0.086 0.006-0.465-0.019-0.74-0.679-0.175-0.182 0.101-0.262 0.53 0.074 0.261z m-10.865-6.823c-0.112-0.441-0.785-0.437 0 0z m0.731 0.479c-0.271-0.451-0.969-0.408 0 0z m4.159 2.508c0.406 0.359 1.863 0.265 0.493 0.045-0.204-0.303-1.29-0.229-0.493-0.045z m5.714 3.53c0.626-0.525-0.605 0.233 0 0z m1.3 0.893c0.003-0.168-0.269 0.074 0 0z m0.001-0.236c0.692-0.733-0.67 0.044 0 0zM3.192 13.954c-0.59-0.841-0.367-1.22-0.936-1.905-0.108-0.527-0.975-1.719-0.448-0.456 0.482 0.739 0.626 1.882 1.384 2.361z m13.486 8.446c1.272-0.823-0.522-0.359 0 0z m0.971 0.381c0.639-0.547-0.404-0.114 0 0zM4.773 14.528c0.183-0.271-0.471-0.035 0 0z m12.673 7.992c0.618-0.398-0.141-0.336-0.112 0.036z m-8.374-5.28c-0.022-0.269-0.326 0.022 0 0z m0.516 0.299c-0.163-0.333-0.251 0.053 0 0z m8.849 5.251c0.79-0.572-0.48-0.11-0.166 0.108z m-0.303-0.146c0.643-0.54-0.68 0.239 0 0z m1.547 1.029c0.433-0.289-0.526-0.093 0 0zM5.171 14.332c0.58 0.13 2.316 1.428 1.291 0.09-0.525-0.155-0.21-1.438-0.745-1.211 0.359 0.6 0.296 0.855-0.46 0.478-0.947-0.463-0.531 0.229-0.347 0.419-0.251 0.058 0.335 0.22 0.261 0.224z m-2.641-2.085c0.103-0.429-0.956-2.362-0.5-0.969 0.164 0.291 0.146 0.845 0.5 0.969z m4.847 2.989c-0.298-0.25-0.015-0.036 0 0z m0.735 0.17c0-0.454-0.813-0.184 0 0z m6.369 4.017c-0.121-0.312-0.48-0.007 0 0z m0.306 0.223c-0.045-0.174-0.176 0.034 0 0zM17.311 21.238c0.242-0.179-0.303-0.022 0 0zM3.848 12.583c0.695-0.269-0.744-0.191 0 0z m10.071 6.347c-0.008-0.45-0.443 0.112 0 0z m-10.347-6.985c0.447-0.151-0.411-0.101 0 0z m1.296 0.628c-0.008-0.149-0.137 0.056 0 0z m15.795 9.686c0.574-0.117 1.881 0.291 2.092-0.153-0.695-0.017-2.41-0.491-2.491 0.112l0.153 0.026 0.246 0.015zM5.279 12.676c0.01-0.456-0.355-0.017 0 0zM1.875 10.313c-0.155-0.869-0.589-0.132 0 0z m0.812 0.204c0.01-0.28-0.743-0.251 0 0z m0.464 0.228c-0.135-0.109-0.105 0.137 0 0z m2.92 1.872c0.137-0.126-0.325-0.093 0 0z m-3.229-2.386c-0.078-0.656-0.942-0.099 0 0z m-1.665-1.08c-0.022-0.303-0.161 0.114 0 0z m0.246-0.188c-0.039-0.359-0.213 0.045 0 0z m1.368 0.818c0.581-0.228-1.054-0.471-0.117-0.045z m18.311 11.31c0.37-0.34-0.471-0.105 0 0z m2.212 1.146c0.148-0.439-0.374 0.056 0 0zM2.932 9.063c0.062-0.426-0.46 0.084 0 0zM0.986 7.761c-0.104-0.6-0.09-1.652 0.91-1.296-1.335 0.265 0.924 1.659 0.639 0.558 0.561 0.027 1.099-0.332 0.803 0.213 1.106-0.123 1.872-1.081 2.941-0.947 0.832-0.11 1.742-0.193 2.639-0.528 0.738-0.054 1.446-0.847 1.043-1.317-1.004-0.085-2.057 0.04-3.169 0.261-1.231 0.256-2.35 0.742-3.593 0.951-1.211 0.163 0.243 0.448-0.103 0.512-0.632 0.22 0.753 0.368-0.082 0.598-0.516-0.099-1.054-0.276-0.833-0.818-1.16 0.149-2.18 0.631-1.263 1.812h0.067z m2.796-1.424c0.272-1.002 1.457 0.824 0.446 0.132-0.121-0.09-0.319-0.164-0.446-0.134z m0.052-0.487c0.392-0.291 0.209 0.164 0 0z m0.499 0.009c0.036-0.461 1.141 0.244 0.183 0.166z m0.682-0.274c0.249-0.291 0.072 0.258 0 0z m0.175-0.117c0.415-0.498 2.349-0.317 0.932-0.048-0.379-0.286-0.67 0.168-0.932 0.048z m2.522-0.389c-0.062-1.361 1.254 0.484 0 0z m0.718-0.004c0.261-0.686 1.016-0.275 0.121-0.138 0.019 0.073-0.027 0.354-0.121 0.138zM2.651 8.712c0.781-0.479-0.831-0.415 0 0z m0.577 0.162c0.275-0.291-0.595-0.119 0 0z m-1.704-1.211c0.447-0.342-0.528-0.13 0 0z m23.095 14.45c0.013-0.398-0.341 0.179 0 0z m-2.346-1.603c0.067-0.457-0.303 0.041 0 0z m2.993 1.758c0.624 0 1.892-0.194 0.533-0.194-0.213 0.034-1.243 0.027-0.534 0.194zM3.736 8.591c0.504-0.034 0.791-0.557-0.098-0.527-1.379-0.142 1.215 0.471-0.177 0.296-0.187 0.123 0.265 0.266 0.275 0.232z m0.446 0.227c-0.054-0.325-0.157 0.173 0 0z m0.527-1.409c0.221-0.272-0.303-0.073 0 0z m-1.682-2.812c0.904-0.307 2.138-0.651 2.564 0.151-0.434-0.522-0.175-1.036 0.236-0.272 0.578 0.772 0.869-0.351 0.491-0.611 0.429 0.534 0.918 0.785 0.288 0.034 0.684-0.823-1.371 0.109-1.839 0.098-0.224 0.101-2.322 0.535-1.739 0.6z m0.529-1.012c0.516-0.389 1.78 0.231 0.969-0.387-0.078-0.07-1.778 0.469-0.969 0.387z m1.877 0.077c0.603 0.015-0.259-0.809 0.459-0.437-0.118-0.385-0.836-0.456-1.189-0.61-0.197 0.352 0.404 1.052 0.729 1.047z m-1.547-1.704c0.209-0.282-0.365 0.143 0 0z m0.767 0.184c0.971-0.129-0.247-0.418-0.195-0.011z m-1.432-1.121c-0.684-0.892 1.285 0.15 0.591-0.785-0.585-0.465-1.147 0.525-0.591 0.785z m8.771 4.725c0.314-0.556-1.295-0.749-0.211-0.196 0.101 0.034 0.078 0.235 0.211 0.196z"/></svg>