<svg fill="#19315B" role="img" viewBox="0 0 64 24" xmlns="http://www.w3.org/2000/svg"><title>Flightaware</title><path d="M32.475 14.413l-2.835 6.712h-1.253l3.651-8.58h0.858l3.845 8.58h-1.253z m28.876 3.997h-3.936c0.029 0.544 0.211 0.965 0.541 1.281a1.777 1.777 0 0 0 1.282 0.483c0.725 0 1.404-0.226 2.022-0.68v1.087c-0.346 0.226-0.679 0.392-1.012 0.483a4.461 4.461 0 0 1-1.173 0.151c-0.621 0-1.119-0.123-1.494-0.394a2.803 2.803 0 0 1-0.92-1.039 3.224 3.224 0 0 1-0.346-1.508c0-0.858 0.24-1.553 0.722-2.079 0.482-0.546 1.116-0.799 1.886-0.799 0.738 0 1.34 0.253 1.778 0.783 0.44 0.528 0.666 1.22 0.666 2.095v0.136z m-3.922-0.664h2.835a1.636 1.636 0 0 0-0.392-1.039 1.284 1.284 0 0 0-0.949-0.362 1.38 1.38 0 0 0-0.98 0.362 1.796 1.796 0 0 0-0.514 1.039m-4.69-2.246v1.279l0.061-0.088c0.544-0.874 1.087-1.298 1.615-1.298 0.421 0 0.858 0.213 1.311 0.635l-0.586 0.98c-0.394-0.362-0.757-0.544-1.074-0.543-0.36 0-0.663 0.165-0.933 0.511a1.913 1.913 0 0 0-0.391 1.223v2.939h-1.12v-5.622h1.12z m-3.014 2.246v2.398c0 0.195 0.059 0.285 0.195 0.285s0.346-0.107 0.634-0.301v0.666c-0.256 0.163-0.453 0.269-0.602 0.331a1.306 1.306 0 0 1-0.483 0.09c-0.485 0-0.754-0.181-0.844-0.559a2.457 2.457 0 0 1-1.508 0.559 1.34 1.34 0 0 1-1.373-1.372 1.359 1.359 0 0 1 0.376-0.951 2.718 2.718 0 0 1 1.087-0.664l1.418-0.482v-0.301c0-0.679-0.333-1.026-1.013-1.026-0.602 0-1.191 0.317-1.764 0.933v-1.205c0.437-0.498 1.058-0.754 1.855-0.754 0.605 0 1.087 0.168 1.465 0.483 0.12 0.107 0.224 0.24 0.331 0.407a1.308 1.308 0 0 1 0.181 0.515c0.029 0.149 0.045 0.48 0.045 0.948m-1.087 2.262v-1.66l-0.738 0.288a2.478 2.478 0 0 0-0.799 0.453 0.799 0.799 0 0 0-0.24 0.573c0 0.226 0.075 0.421 0.224 0.573 0.152 0.149 0.346 0.226 0.573 0.226a1.511 1.511 0 0 0 0.98-0.453m-4.719-4.508h1.191l-2.473 5.745h-0.375l-1.66-3.936-1.628 3.936h-0.379l-2.486-5.745h1.191l1.476 3.421 1.418-3.421h0.831l1.431 3.421z m20.054-11.143c0.016 0.045-0.075 0.165-0.149 0.255-0.12 0.12-0.469 0.528-1.855 0.829-1.386 0.304-3.136 0.618-3.259 0.65-0.12 0.013-0.36-0.032-0.495 0.376a2038.841 2038.841 0 0 0-1.66 5.91l-0.467 0.107-0.527-5.761s-3.272 0.65-3.605 0.65l-0.829 2.201-0.421 0.045 0.088-2.233s-0.453-0.075-0.528-0.09c-0.027 0-0.059 0-0.074-0.046 0-0.027 0.016-0.045 0.045-0.058 0.061-0.045 0.453-0.288 0.453-0.288l-0.981-2.004 0.408-0.136 1.644 1.69c0.301-0.136 3.557-0.861 3.557-0.861l-1.825-5.505 0.469-0.088s3.619 4.431 3.906 4.748c0.285 0.317 0.48 0.181 0.602 0.152 0.12-0.032 1.855-0.437 3.243-0.725 1.386-0.285 1.868-0.045 2.033 0.016 0.091 0.029 0.226 0.12 0.227 0.166z m-34.395 16.768a0.426 0.426 0 0 1-0.224-0.061 0.392 0.392 0 0 1-0.106-0.56c0.016-0.027 0.453-0.693 1.327-1.732a0.389 0.389 0 0 1 0.559-0.045c0.165 0.133 0.195 0.392 0.043 0.559-0.845 0.994-1.266 1.641-1.279 1.658a0.354 0.354 0 0 1-0.32 0.181z m2.731-3.272a0.362 0.362 0 0 1-0.271-0.107 0.386 0.386 0 0 1-0.016-0.559c0.498-0.512 1.013-1.023 1.537-1.506a0.4 0.4 0 0 1 0.56 0.013 0.4 0.4 0 0 1-0.016 0.56c-0.512 0.48-1.026 0.981-1.508 1.476a0.357 0.357 0 0 1-0.286 0.123z m3.121-2.881a0.352 0.352 0 0 1-0.301-0.152 0.389 0.389 0 0 1 0.061-0.559c0.557-0.45 1.13-0.903 1.703-1.308a0.392 0.392 0 0 1 0.559 0.088 0.392 0.392 0 0 1-0.093 0.559c-0.557 0.408-1.13 0.845-1.657 1.295a0.613 0.613 0 0 1-0.272 0.077z m3.453-2.518a0.378 0.378 0 0 1-0.333-0.181 0.41 0.41 0 0 1 0.123-0.559c0.602-0.392 1.22-0.767 1.838-1.114a0.394 0.394 0 0 1 0.544 0.149 0.394 0.394 0 0 1-0.152 0.544c-0.602 0.346-1.22 0.709-1.809 1.084a0.304 0.304 0 0 1-0.211 0.077z m3.709-2.081a0.397 0.397 0 0 1-0.181-0.754c0.647-0.317 1.298-0.618 1.961-0.89 0.195-0.091 0.437 0.016 0.528 0.213a0.405 0.405 0 0 1-0.213 0.525c-0.647 0.272-1.295 0.56-1.914 0.861a0.522 0.522 0 0 1-0.181 0.045z m3.92-1.644a0.402 0.402 0 0 1-0.376-0.272 0.41 0.41 0 0 1 0.24-0.511c0.679-0.226 1.372-0.453 2.052-0.634a0.402 0.402 0 0 1 0.498 0.271 0.402 0.402 0 0 1-0.272 0.499c-0.679 0.181-1.359 0.392-2.006 0.618-0.045 0.029-0.091 0.029-0.134 0.029z m-22.918 7.661l2.094-2.052v1.162h1.767v0.994H25.685v2.776c0 0.647 0.272 0.965 0.8 0.965 0.392 0 0.815-0.136 1.252-0.392v1.039c-0.421 0.24-0.89 0.362-1.386 0.363a1.812 1.812 0 0 1-1.268-0.453 1.188 1.188 0 0 1-0.256-0.301 1.474 1.474 0 0 1-0.165-0.437 4.972 4.972 0 0 1-0.077-1.039v-2.505h-0.978v-0.12zM17.787 12.588h1.117v3.631a2.169 2.169 0 0 1 1.719-0.842 1.796 1.796 0 0 1 1.673 1.069c0.152 0.333 0.213 0.831 0.213 1.479v3.211h-1.119v-3.483a1.596 1.596 0 0 0-0.301-0.994 0.951 0.951 0 0 0-0.799-0.378 1.311 1.311 0 0 0-0.693 0.197 2.851 2.851 0 0 0-0.709 0.631v4.043h-1.114v-8.564z m-5.926 4.854c0-0.602 0.226-1.071 0.667-1.417 0.434-0.346 1.039-0.528 1.793-0.528h2.321v0.858h-1.13a1.879 1.879 0 0 1 0.453 0.618c0.088 0.181 0.133 0.394 0.133 0.635 0 0.301-0.091 0.586-0.256 0.874a1.673 1.673 0 0 1-0.647 0.65c-0.272 0.149-0.693 0.272-1.298 0.36-0.421 0.061-0.632 0.213-0.631 0.439 0 0.133 0.075 0.24 0.239 0.315 0.152 0.091 0.437 0.168 0.861 0.258 0.693 0.149 1.13 0.269 1.327 0.36 0.195 0.091 0.376 0.213 0.528 0.362a1.364 1.364 0 0 1 0.405 1.013 1.492 1.492 0 0 1-0.709 1.279c-0.466 0.32-1.114 0.482-1.9 0.482-0.799 0-1.447-0.165-1.913-0.48a1.476 1.476 0 0 1-0.725-1.284c0-0.767 0.469-1.252 1.402-1.476-0.376-0.24-0.557-0.482-0.557-0.709 0-0.181 0.075-0.346 0.24-0.482a1.38 1.38 0 0 1 0.65-0.32c-0.829-0.389-1.252-0.978-1.253-1.807m1.839 3.949a1.575 1.575 0 0 0-0.919 0.243c-0.24 0.165-0.36 0.362-0.36 0.618 0 0.586 0.528 0.874 1.567 0.874a2.585 2.585 0 0 0 1.146-0.21c0.272-0.152 0.408-0.346 0.407-0.619 0-0.256-0.165-0.482-0.511-0.634a2.843 2.843 0 0 0-1.327-0.272m0.255-4.929c-0.301 0-0.56 0.107-0.77 0.301a1.005 1.005 0 0 0 0 1.465c0.213 0.195 0.469 0.285 0.8 0.286a1.092 1.092 0 0 0 0.783-0.288 0.949 0.949 0 0 0 0.32-0.725 0.959 0.959 0 0 0-0.32-0.738 1.207 1.207 0 0 0-0.813-0.301M9.676 13.147c0.181 0 0.346 0.061 0.467 0.197 0.136 0.12 0.197 0.285 0.197 0.467a0.626 0.626 0 0 1-0.197 0.466 0.626 0.626 0 0 1-0.467 0.197 0.618 0.618 0 0 1-0.453-0.197 0.626 0.626 0 0 1-0.197-0.466c0-0.165 0.061-0.317 0.197-0.453a0.584 0.584 0 0 1 0.453-0.211m-0.543 2.353h1.116v5.622h-1.116zM6.071 12.588h1.117v8.534h-1.117zM0.025 12.588h4.554v1.084H1.232v2.398h3.347v1.071H1.232v3.981H0.025Z"/></svg>