<svg fill="#49BDA5" role="img" viewBox="0 0 34 24" xmlns="http://www.w3.org/2000/svg"><title>Fluent Bit</title><path d="M0.025 0.712Zm0.583-0.712c-0.054 0-0.102 0-0.145 0.014a0.475 0.475 0 0 0-0.123 0.05H0.329a0.46 0.46 0 0 0-0.16 0.16 0.588 0.588 0 0 0-0.075 0.141c-0.011 0.03-0.027 0.051-0.032 0.095a0.598 0.598 0 0 0-0.022 0.1v-0.014H0.031v0.026L0.025 0.593l0.01-0.033v0.065L0.025 0.689v0.021h0.006l0.004-0.006v-0.004a1.872 1.872 0 0 0 0.134 0.668l0.027 0.065v0.01l0.085 0.204 0.032 0.084 0.091 0.231a27.919 27.919 0 0 0 2.439 4.603L2.854 6.586l0.033 0.054c1.304 2.037 2.882 4.081 4.529 5.793l0.053 0.057c1.177 1.215 2.385 2.263 3.556 3.011a5.658 5.658 0 0 0 0.523 0.306l0.054 0.027-0.037 0.027c-1.594 2.32-3.423 4.009-5.293 5.239C3.576 22.982 1.312 23.56 1.312 23.56s5.994 1.647 12.572-1.433c4.999-2.354 7.594-6.936 8.186-7.951l3.005-5.107c0.471-0.648 0.738-0.915 0.764-0.962 0.092-0.092 0.761-0.869 2.155-1.338 2.065-0.69 5.187-1.108 5.925-1.177a0.16 0.16 0 0 0 0.042-0.187 0.108 0.108 0 0 0-0.079-0.071 5.909 5.909 0 0 0-0.769-0.052 13.062 13.062 0 0 0-1.979 0.096 26.015 26.015 0 0 0-1.957 0.289 42.127 42.127 0 0 0-1.508 0.288l-0.075 0.017h-0.032a4.941 4.941 0 0 1-0.812 0.053 3.872 3.872 0 0 1-0.669-0.106 10.327 10.327 0 0 1-0.658-0.183 9.605 9.605 0 0 0-0.685-0.202 6.571 6.571 0 0 0-2.07-0.215 3.957 3.957 0 0 0-0.929 0.188l-0.236 0.085a3.914 3.914 0 0 0-1.726 1.375c-0.567 0.758-1.744 3.081-3.358 3.696l-0.033-0.032h0.014a109.228 109.228 0 0 0-1.273-1.173l-0.029-0.021-0.283-0.268-0.075-0.059a85.909 85.909 0 0 0-3.264-2.849 40.19 40.19 0 0 0-2.127-1.598l-0.322-0.231a43.464 43.464 0 0 0-5.559-3.299c-0.161-0.091-0.325-0.144-0.509-0.235-0.054-0.023-0.108-0.054-0.145-0.053l0.278 0.155-0.112-0.054h-0.014V0.938a1.433 1.433 0 0 0-0.077-0.033l-0.032-0.021-0.043-0.021a1.429 1.429 0 0 1-0.144-0.071l-0.102-0.047a2.139 2.139 0 0 1-0.138-0.065c-0.042-0.014-0.081-0.031-0.108-0.031a1.833 1.833 0 0 0-0.311-0.113l-0.01-0.006-0.021-0.009h-0.01l-0.017-0.006v-0.006h-0.031a0.523 0.523 0 0 1-0.054-0.027l-0.054-0.025a0.16 0.16 0 0 0-0.048-0.017h-0.005l-0.331-0.133a4.037 4.037 0 0 0-0.343-0.123 0.85 0.85 0 0 0-0.213-0.043ZM0.025 0.529Zm0.133 0.839l0.017 0.038Zm0.017 0.042c0.031 0.085 0.058 0.167 0.096 0.241z m0.096 0.247l0.004 0.016zM23.729 6.766a0.546 0.546 0 0 1 0.16 0.021 0.546 0.546 0 0 1 0.381 0.669 0.546 0.546 0 0 1-0.669 0.374 0.546 0.546 0 0 1-0.374-0.662 0.546 0.546 0 0 1 0.502-0.402z"/></svg>