<svg fill="#0E83C8" role="img" viewBox="0 0 30 24" xmlns="http://www.w3.org/2000/svg"><title>Fluentd</title><path d="M2.553 0C1.879-0.005 1.293 0.223 0.834 0.765-0.211 1.993 0.35 4.822 2.501 8.227l0.024 0.034a12.455 12.455 0 0 0 0.241 0.364c2.121 3.156 5.2 5.724 4.581 9.284a5.238 5.238 0 0 1-0.733 1.914C4.738 22.767 0.317 23.073 0.317 23.073l0.052 0.001-0.055 0.006s5.33 1.645 10.443 0.536c0.732-0.159 1.459-0.373 2.165-0.657a15.092 15.092 0 0 0 0.028-0.013c0.42-0.169 0.816-0.348 1.193-0.534a15.092 15.092 0 0 0 0.345-0.178c0.349-0.184 0.68-0.375 0.997-0.571a15.092 15.092 0 0 0 0.186-0.117c0.387-0.25 0.747-0.509 1.087-0.777a15.092 15.092 0 0 0 0.178-0.142c0.201-0.164 0.395-0.33 0.583-0.498a15.092 15.092 0 0 0 0.15-0.128l0.044-0.049c0.01-0.01 0.018-0.02 0.03-0.028a15.717 15.717 0 0 0 1.052-1.087c0.061-0.069 0.122-0.137 0.181-0.207 0.072-0.083 0.144-0.165 0.215-0.249l0.122-0.15c0.155-0.188 0.306-0.379 0.455-0.569l0.039-0.052c0.831-1.077 1.567-2.177 2.366-3.229l0.265-0.341c0.36-0.458 0.734-0.906 1.14-1.335l0.037-0.038c0.132-0.14 0.269-0.277 0.409-0.412l0.085-0.082a13.459 13.459 0 0 1 0.323-0.298c0.044-0.039 0.088-0.08 0.134-0.117a6.123 6.123 0 0 1 0.458-0.359c0.015-0.012 0.031-0.022 0.046-0.033a6.123 6.123 0 0 1 1.04-0.587l-0.079 0.036 0.027-0.012 0.073-0.033a6.882 6.882 0 0 1 1.995-0.504h0.001a6.882 6.882 0 0 1 0.653-0.032h0.085a6.882 6.882 0 0 1 0.141 0.003l0.524-0.004a0.25 0.25 0 0 0 0.108-0.02c0.076-0.037 0.058-0.125-0.015-0.227a1.689 1.689 0 0 0-0.477-0.42 4.514 4.514 0 0 1-0.12-0.064 4.738 4.738 0 0 1-0.044-0.027 4.514 4.514 0 0 1-0.314-0.197 4.738 4.738 0 0 1-0.158-0.117 4.514 4.514 0 0 1-0.236-0.184c-0.251-0.245-0.529-0.897-0.64-1.087a2.509 2.509 0 0 0-0.294-0.403c-0.333-0.375-0.814-0.652-1.593-0.753-1.09-0.141-2.114 0.088-3.139 0.407l0.122-0.042c-1.429 0.433-2.857 1.065-4.473 1.15h-0.049a6.796 6.796 0 0 1-0.818-0.012l-0.073-0.005a6.698 6.698 0 0 1-1.42-0.285c-1.606-0.504-3.86-2.301-6.177-4.059a138.319 138.319 0 0 0-0.796-0.599 63.103 63.103 0 0 0-0.966-0.71l-0.272-0.19-0.289-0.203-0.105-0.074a21.567 21.567 0 0 0-1.973-1.22l-0.023-0.012a12.283 12.283 0 0 0-0.449-0.228c-0.048-0.023-0.095-0.043-0.143-0.064a9.463 9.463 0 0 0-0.671-0.282l-0.061-0.021a6.148 6.148 0 0 0-0.387-0.123l-0.032-0.009a3.739 3.739 0 0 0-0.999-0.153zM25.525 7.889a0.617 0.612 0 0 1 0.618 0.612 0.617 0.612 0 0 1-0.618 0.612 0.617 0.612 0 0 1-0.616-0.612 0.617 0.612 0 0 1 0.616-0.612z"/></svg>