<svg fill="#FFC20E" role="img" viewBox="0 0 80 24" xmlns="http://www.w3.org/2000/svg"><title>Fluke</title><path d="M68.621 14.182h-0.306v-0.435h0.266c0.216 0 0.259 0.043 0.26 0.216 0 0.133-0.086 0.22-0.22 0.219z m0.875 0.044c0 0.522-0.393 0.958-0.918 0.958s-0.915-0.432-0.915-0.958c0-0.526 0.349-0.918 0.872-0.962 0.566 0 0.961 0.393 0.961 0.962z m-0.393 0.655l-0.349-0.566c0.173-0.047 0.303-0.176 0.303-0.352 0-0.263-0.173-0.393-0.433-0.393h-0.482v1.311h0.22v-0.566h0.216l0.349 0.566h0.176zM79.922 0v24H0.078V0h79.844zM21.503 10.559H14.124V9.339h7.329v-1.657H12.164v7.678h1.963v-2.967h7.372v-1.83z m9.378 2.882H24.643v-5.759h-1.919v7.678h8.157v-1.919z m11.518-5.759h-1.92v5.888h-6.72v-5.888h-1.916v6.238c0.13 1.397 1.437 1.441 1.437 1.44h7.678s1.264-0.043 1.441-1.44v-6.238z m11.87 7.678l-6.112-3.926 5.806-3.752h-3.404l-4.321 2.661v-2.661h-1.92v7.678h1.92v-2.881l4.581 2.881h3.45z m10.776-7.678h-9.688v7.678h9.688v-1.79h-7.769v-1.091h7.769v-1.786h-7.769v-1.181h7.769v-1.83z m4.667 6.544a1.154 1.154 0 0 0-1.131-1.135 1.154 1.154 0 0 0-1.138 1.131c0 0.612 0.526 1.138 1.135 1.138a1.154 1.154 0 0 0 1.134-1.134z"/></svg>