<svg fill="#FFFFFF" role="img" viewBox="0 0 12 24" xmlns="http://www.w3.org/2000/svg"><title>Fluxus</title><path d="M8.348 19.35a2738.241 2738.241 0 0 0-3.926-5.741 595.98 595.98 0 0 1-1.5-2.194 433.452 433.452 0 0 0-1.646-2.396c-0.493-0.712-0.88-1.343-0.86-1.404 0.021-0.06 0.944-0.73 2.05-1.489 4.797-3.285 8.82-6.032 8.962-6.117 0.124-0.075 0.152 0.287 0.147 1.963l-0.005 2.055-2.993 2.02c-1.647 1.111-2.975 2.072-2.953 2.136 0.117 0.326 2.53 3.694 2.645 3.694 0.11 0 1.55-0.937 3.084-2.005 0.224-0.156 0.227-0.125 0.226 1.905v2.063l-0.692 0.446c-0.38 0.245-0.692 0.49-0.692 0.544 0 0.054 0.313 0.545 0.694 1.09l0.695 0.993-0.03 3.543-0.03 3.544z"/></svg>