<svg fill="#000000" role="img" viewBox="0 0 92 24" xmlns="http://www.w3.org/2000/svg"><title>FMOD</title><path d="M13.15 5.049a3.43 3.43 0 0 0-3.43 3.43v15.459H4.698v-10.687H0.417v-5.007h4.286a8.453 8.453 0 0 1 8.447-8.244H18.168v5.023z m27.828 6.99a0.95 0.95 0 0 0-0.903 0.658l-2.021 6.97a5.941 5.941 0 0 1-11.402 0l-2.021-6.97a0.955 0.955 0 0 0-1.812 0l-2.02 6.97a5.973 5.973 0 0 1-5.743 4.266h-1.399v-5.013h1.42a0.94 0.94 0 0 0 0.893-0.657l2.02-6.97a5.962 5.962 0 0 1 11.429 0l2.036 6.98a0.934 0.934 0 0 0 1.79 0l2.021-6.97a5.962 5.962 0 0 1 11.429 0l2.02 6.97a0.94 0.94 0 0 0 0.893 0.658h1.42v5.012h-1.399a5.968 5.968 0 0 1-5.743-4.266l-2.021-6.97a0.955 0.955 0 0 0-0.887-0.668z m10.217 3.441a8.453 8.453 0 1 1 8.453 8.452 8.453 8.453 0 0 1-8.453-8.452z m11.883 0a3.43 3.43 0 1 0-3.43 3.43 3.43 3.43 0 0 0 3.43-3.43z m17.756 1.749a3.654 3.654 0 0 0 0.256-0.47 2.548 2.548 0 0 1 4.808 1.17 2.485 2.485 0 0 1-0.209 0.997l-0.073 0.151a8.614 8.614 0 0 1-7.727 4.845 8.453 8.453 0 0 1 0-16.905h0.371a8.547 8.547 0 0 1 3.853 1.107V0h5.022v11.434a2.819 2.819 0 0 1-2.704 2.74 6.041 6.041 0 0 1-4.062-1.419 3.425 3.425 0 0 0-2.088-0.726h-0.371a3.43 3.43 0 1 0 2.945 5.189zM16.476 10.572a2.673 2.673 0 0 1-2.673 2.673 2.673 2.673 0 0 1-2.673-2.673 2.673 2.673 0 0 1 2.673-2.673 2.673 2.673 0 0 1 2.673 2.673z m69.887 10.77a2.61 2.61 0 1 0 2.61-2.563 2.574 2.574 0 0 0-2.61 2.563z m0.47 0a2.125 2.125 0 1 1 2.13 2.214 2.12 2.12 0 0 1-2.146-2.214z m1.07 1.452h0.47v-1.295h0.522l0.82 1.295h0.522l-0.862-1.332a0.773 0.773 0 0 0 0.794-0.819c0-0.58-0.34-0.862-1.045-0.861h-1.164z m0.47-2.611h0.6c0.318 0 0.663 0.063 0.663 0.46 0 0.397-0.381 0.522-0.794 0.522h-0.49z"/></svg>