<svg fill="#77B829" role="img" viewBox="0 0 12 24" xmlns="http://www.w3.org/2000/svg"><title>Folium</title><path d="M3.209 17.302v0.558h-0.558v-0.558h0.558z m-1.116-0.558v0.558h0.558v-0.558h-0.558z m1.116 1.116v0.558h0.558v-0.558h-0.558z m-1.674-1.674v0.558h0.558v-0.558h-0.558z m2.232 2.233v0.558h0.558v-0.558h-0.558z m0.559-4.466v0.558h0.558v-0.558h-0.558zM3.767 2.791v0.558h0.558v-0.558h-0.558z m0.559 5.581v0.558h0.558v-0.558h-0.558z m0 10.605v0.558h0.558v-0.558h-0.558z m-2.233-7.256v-0.558h-0.558v0.558h0.558z m1.116-4.465v-0.558h-0.558v0.558h0.558z m-0.558-0.558V6.14h-0.558v0.558h0.558z m1.116 1.116v-0.558h-0.558v0.558h0.558zM2.093 6.14v-0.559h-0.558v0.559h0.558z m1.116 6.697v-0.558h-0.558v0.558h0.558z m1.117 1.116v-0.558h-0.559v0.558h0.559z m-1.675-1.674v-0.558h-0.558v0.558h0.558z m1.116 1.116v-0.558h-0.558v0.558h0.558z m0.559-5.023v-0.558h-0.559v0.558h0.559zM0.977 18.977v0.558h0.558v-0.558h-0.558z m1.116-15.07h-0.558v0.558h0.558v-0.558z m0 16.186v0.558h0.558v-0.558h-0.558z m-0.558-3.907v-0.558h-0.558v-4.465h0.558v-0.558h-0.558V5.581h0.558V4.465h-0.558v0.558h-0.558v13.953h0.558v-2.791h0.558z m0 3.349v0.558h0.558v-0.558h-0.558z m1.116 1.116v0.558h0.558v-0.558h-0.558z m1.675 1.675v0.558h0.558v-0.558h-0.558z m-0.559-0.559v0.558h0.558v-0.558h-0.558z m-0.558-0.558v0.558h0.558v-0.558h-0.558z m1.117-19.535h-0.559v0.558h0.558v-0.558z m0 1.675v0.558h0.558v-0.558h-0.558z m-0.559-1.116h-0.558v0.558h0.558v-0.558z m1.117-1.117h-0.558v0.558h0.558v-0.558zM3.209 2.791h-0.558v0.558h0.558v-0.558z m-0.558 0.558h-0.558v0.558h0.558v-0.558z m5.023 15.628h0.558v-0.558h-0.558v0.558z m0.559-16.186h-0.558v0.558h0.558v-0.558z m0 15.628h0.558v-0.559h-0.558v0.559z m-1.117 1.116h0.558v-0.558h-0.558v0.558z m2.233-7.256h-0.558v0.558h0.558v-0.558z m0.558 4.465h0.558v-0.558h-0.558v0.558z m-1.116 1.116h0.558v-0.558h-0.558v0.558z m0.558-0.558h0.558v-0.558h-0.558v0.558z m-1.675-3.349h-0.558v0.558h0.558v-0.558z m0.559-0.558h-0.558v0.558h0.558v-0.558z m0.558-6.139h-0.558v0.558h0.558v-0.558z m0.558-0.558h-0.558v0.558h0.558v-0.558z m0.558-0.558h-0.558v0.558h0.558V6.14z m-2.233-2.791h-0.558v0.558h0.558v-0.558z m1.117 9.488h-0.558v0.558h0.558v-0.558z m1.116-1.116h-0.558v0.558h0.558v-0.558z m-1.674-3.907h-0.558v0.558h0.558v-0.558z m-0.559 0.558h-0.558v0.558h0.558v-0.558z m-0.558 14.512h0.558v-0.558h-0.558v0.558z m1.675-1.675h0.558v-0.558h-0.558v0.558z m-0.558 0.558h0.558v-0.558h-0.558v0.558z m1.674-10.046h0.558v-0.558h-0.558v0.558z m-0.558 8.93h0.558v-0.558h-0.558v0.558z m0.558-0.558h0.558v-0.558h-0.558v0.558z m1.116-15.07v-0.558h-0.558v1.116h0.558v5.023h-0.558v0.558h0.558v4.465h-0.558v0.558h0.558v2.791h0.558V5.023h-0.558z m-0.558 14.512h0.558v-0.558h-0.558v0.558z m-2.791 2.791h0.558v-0.558h-0.558v0.558z m2.791-17.861v-0.558h-0.558v0.558h0.558z m-0.558-0.558v-0.558h-0.558v0.558h0.558z m-0.558-0.558v-0.558h-0.558v0.558h0.558z m0.558 2.791h0.558v-0.559h-0.558v0.559z m-2.233-4.466v-0.558h-0.558v0.558h0.558z m1.117 1.117v-0.558h-0.558v0.558h0.558z m-2.233 17.302h0.558v-0.558h-0.558V15.07h0.558v-0.558h-0.558V9.488h0.558V8.93h-0.558V4.465h0.558v-0.558h-0.558V1.116h0.558V0.558h-0.558V0h-1.116v0.558h-0.558v0.558h0.558v2.791h-0.558v0.558h0.558V8.93h-0.558v0.558h0.558v5.023h-0.558v0.558h0.558v4.465h-0.558v0.558h0.558v2.791h-0.558v0.558h0.558V24h1.116v-0.558h0.558v-0.558h-0.558v-2.791z m1.675-17.86v-0.559h-0.558v0.558h0.558z"/></svg>