<svg fill="#02B78F" role="img" viewBox="0 0 30 24" xmlns="http://www.w3.org/2000/svg"><title>Fonoma</title><path d="M24.323 23.999a5.196 5.196 0 0 0 5.194-5.197 5.196 5.196 0 1 0-5.194 5.197zM5.681 10.393a5.196 5.196 0 0 0 5.194-5.196 5.196 5.196 0 1 0-5.195 5.196z m12.596 0h6.019a5.174 5.174 0 0 0 5.193-5.196 5.174 5.174 0 0 0-5.193-5.197h-6.019a5.174 5.174 0 0 0-5.194 5.197 5.174 5.174 0 0 0 5.194 5.196zM5.68 24h6.02a5.174 5.174 0 0 0 5.193-5.197 5.174 5.174 0 0 0-5.193-5.196H5.68a5.174 5.174 0 0 0-5.193 5.196c0.082 2.804 2.39 5.197 5.193 5.197z"/></svg>