<svg fill="#000000" role="img" viewBox="0 0 15 24" xmlns="http://www.w3.org/2000/svg"><title>foobar2000</title><path d="M13.882 7.619L10.881 0l-2.396 5.166c-0.509-0.174-1.462-0.176-1.971 0L4.119 0 1.118 7.619c-0.846 2.147-1.622 4.38 0 6.812 0.597 0.895 6.376 9.579 6.382 9.569l6.382-9.569c1.622-2.432 0.846-4.664 0-6.812z m-5.007 7.252c-0.336-0.298-0.417-0.845-0.228-1.54 0.189-0.696 0.626-1.455 1.23-2.136 0.604-0.681 1.304-1.206 1.972-1.479 0.667-0.272 1.22-0.257 1.556 0.041 0.336 0.298 0.417 0.845 0.228 1.54-0.189 0.696-0.626 1.455-1.23 2.136-0.604 0.681-1.304 1.206-1.972 1.478-0.667 0.272-1.22 0.257-1.556-0.04z m0.445 4.833c-0.157 0.091-0.376 0.08-0.489-0.116l-1.328-2.304L7.5 17.279l-1.333 2.311c-0.063 0.109-0.163 0.169-0.281 0.169-0.139 0-0.278-0.081-0.348-0.202-0.06-0.104-0.058-0.222 0.005-0.331l1.555-2.689c0.083-0.142 0.232-0.228 0.4-0.227h0.001c0.17 0 0.322 0.086 0.404 0.231l1.548 2.685c0.12 0.207 0.016 0.393-0.131 0.478z m-4.752-4.793c-0.668-0.272-1.368-0.797-1.971-1.478-0.604-0.681-1.04-1.44-1.23-2.136-0.189-0.695-0.108-1.242 0.228-1.54 0.176-0.156 0.412-0.234 0.693-0.234 0.255 0 0.546 0.065 0.863 0.194 0.668 0.272 1.368 0.797 1.972 1.478 0.604 0.681 1.04 1.44 1.23 2.136 0.189 0.695 0.108 1.242-0.228 1.54-0.336 0.298-0.889 0.312-1.557 0.04z"/></svg>