<svg fill="#00274E" role="img" viewBox="0 0 64 24" xmlns="http://www.w3.org/2000/svg"><title>Ford</title><path d="M32 1.963C15.659 1.963 2.413 6.48 2.413 12.005S15.659 22.045 32 22.045c16.339 0 29.584-4.515 29.584-10.04 0-5.528-13.245-10.043-29.584-10.042z m-15.195 16.64c-1.749 0.013-3.288-1.067-3.466-2.936a3.773 3.773 0 0 1 0.784-2.72c0.52-0.677 1.4-1.24 2.144-1.379 0.24-0.045 0.568-0.016 0.704 0.144 0.211 0.248 0.149 0.517-0.062 0.624-0.568 0.291-1.253 0.787-1.592 1.467a1.8 1.8 0 0 0 0.091 1.856c0.701 1.059 2.659 1.088 4.477-0.6 0.451-0.416 0.853-0.811 1.262-1.28 0.8-0.917 1.067-1.253 2.133-2.731 0.013-0.016 0.016-0.037 0.011-0.048-0.008-0.019-0.024-0.027-0.054-0.027-0.712 0.019-1.333 0.232-1.933 0.68-0.173 0.128-0.424 0.109-0.533-0.056-0.123-0.187-0.035-0.435 0.165-0.573 0.968-0.675 2.027-0.795 3.109-0.979 0 0 0.075 0.005 0.136-0.08 0.445-0.568 0.779-1.08 1.254-1.656 0.475-0.587 1.093-1.12 1.562-1.525 0.656-0.565 1.077-0.755 1.504-0.987 0.115-0.059-0.013-0.131-0.048-0.13-2.389-0.448-4.872-1.029-7.245-0.15-1.643 0.613-2.365 1.915-2.019 2.787 0.248 0.616 1.059 0.72 1.822 0.347a4.133 4.133 0 0 0 1.629-1.451c0.232-0.357 0.72-0.101 0.456 0.52-0.693 1.629-2.019 2.925-3.635 2.981-1.376 0.043-2.264-0.968-2.261-2.216 0.005-2.464 2.747-4.085 5.627-4.325 3.469-0.288 6.755 0.637 10.2 1.053 2.637 0.32 5.168 0.328 7.818-0.282 0.315-0.067 0.533 0.133 0.515 0.448-0.027 0.459-0.381 0.899-1.253 1.376-0.995 0.544-2.035 0.709-3.12 0.72-2.624 0.021-5.069-1.003-7.6-1.552 0.005 0.109 0.032 0.243-0.062 0.312-1.4 1.035-2.667 2.085-3.514 3.557-0.029 0.035-0.013 0.067 0.034 0.064 0.739-0.04 1.4-0.059 2.088-0.112 0.12-0.011 0.125-0.04 0.115-0.128a1.707 1.707 0 0 1 0.533-1.488c0.459-0.408 1.032-0.453 1.414-0.16 0.427 0.336 0.392 0.941 0.154 1.395a1.68 1.68 0 0 1-1.018 0.826s-0.08 0.016-0.07 0.091c0.016 0.115 0.533 0.403 0.579 0.48 0.045 0.072 0.021 0.187-0.056 0.272a0.328 0.328 0 0 1-0.253 0.12c-0.088 0-0.141-0.032-0.256-0.093a2.453 2.453 0 0 1-0.72-0.579c-0.064-0.083-0.099-0.085-0.264-0.077-0.744 0.045-1.904 0.157-2.691 0.256-0.189 0.021-0.219 0.059-0.256 0.125-1.253 2.067-2.592 4.293-4.061 5.787-1.579 1.6-2.888 2.021-4.278 2.032zM50.8 8.56c-0.243 0.421-4.931 7.557-5.227 8.293-0.093 0.235-0.107 0.413-0.01 0.544 0.245 0.331 0.792 0.136 1.133-0.101 1.016-0.699 1.72-1.547 2.499-2.288 0.045-0.035 0.123-0.048 0.173 0 0.115 0.107 0.283 0.243 0.4 0.365a0.107 0.107 0 0 1 0.005 0.152 15.661 15.661 0 0 1-2.41 2.43c-1.253 0.971-2.504 1.219-3.126 0.597a1.355 1.355 0 0 1-0.373-0.843c-0.005-0.152-0.083-0.16-0.155-0.09-0.741 0.733-2.027 1.544-3.194 0.965-0.976-0.48-1.203-1.648-1.022-2.629 0.003-0.021-0.016-0.16-0.136-0.08a3.413 3.413 0 0 1-0.8 0.432 2.275 2.275 0 0 1-0.976 0.205 1.381 1.381 0 0 1-1.202-0.675 2.024 2.024 0 0 1-0.254-0.925c-0.003-0.029-0.045-0.085-0.088-0.013-0.8 1.219-1.544 2.397-2.333 3.634-0.043 0.059-0.08 0.096-0.16 0.099l-1.565 0.003c-0.096 0-0.141-0.075-0.091-0.168 0.277-0.533 1.797-2.747 2.827-4.63 0.285-0.517 0.227-0.784 0.05-0.898-0.221-0.144-0.661 0.072-1.032 0.354-1.011 0.765-1.859 1.96-2.29 2.494-0.253 0.312-0.493 0.776-1.155 1.493-1.043 1.133-2.427 1.784-3.755 1.333a2.261 2.261 0 0 1-1.456-1.546c-0.04-0.139-0.117-0.176-0.194-0.086-0.213 0.267-0.653 0.664-1.022 0.912-0.04 0.029-0.139 0.088-0.224 0.046a2.269 2.269 0 0 1-0.405-0.531 0.187 0.187 0 0 1 0.043-0.213c0.525-0.461 0.813-0.723 1.042-1.014 0.171-0.213 0.301-0.453 0.454-0.84 0.32-0.805 1.048-2.309 2.501-3.088a4.827 4.827 0 0 1 1.739-0.584c0.267-0.027 0.488 0.005 0.568 0.214 0.029 0.088 0.104 0.28 0.149 0.421 0.029 0.085 0.008 0.152-0.093 0.189-0.853 0.325-1.715 0.829-2.307 1.627-0.675 0.901-0.856 1.989-0.405 2.613 0.328 0.453 0.859 0.533 1.37 0.371 0.773-0.245 1.435-0.968 1.776-1.768 0.368-0.877 0.427-1.912 0.155-2.824-0.043-0.157-0.003-0.277 0.099-0.363 0.205-0.168 0.491-0.299 0.573-0.341a0.373 0.373 0 0 1 0.485 0.12c0.283 0.419 0.435 1.008 0.454 1.619 0.016 0.131 0.069 0.133 0.133 0.066 0.507-0.539 0.976-1.115 1.515-1.546 0.493-0.392 1.125-0.712 1.714-0.699 0.763 0.016 1.141 0.533 1.118 1.456-0.003 0.117 0.08 0.107 0.136 0.029a3.173 3.173 0 0 1 0.64-0.704c0.528-0.435 1.067-0.629 1.629-0.592 0.693 0.053 1.248 0.685 1.133 1.406a1.413 1.413 0 0 1-0.749 1.082 0.965 0.965 0 0 1-1.08-0.117 0.896 0.896 0 0 1-0.256-0.859c0.013-0.067-0.072-0.128-0.144-0.053-0.677 0.704-0.728 1.616-0.285 2.027 0.488 0.453 1.221 0.149 1.754-0.2 0.976-0.637 1.733-1.501 2.611-2.168 0.581-0.443 1.245-0.837 1.989-0.936a2.32 2.32 0 0 1 1.211 0.138c0.533 0.216 0.869 0.667 0.912 1.056 0.011 0.115 0.096 0.128 0.168 0.027 0.421-0.656 2.68-4.045 2.867-4.4 0.053-0.109 0.117-0.125 0.237-0.125h1.616c0.093 0 0.136 0.053 0.096 0.125z m-6.187 5.877a0.141 0.141 0 0 0-0.008 0.107c0.008 0.053 0.08 0.107 0.15 0.133 0.027 0.008 0.04 0.027 0.01 0.086-0.2 0.427-0.381 0.672-0.632 1.042a3.925 3.925 0 0 1-0.8 0.867c-0.475 0.392-1.131 0.819-1.674 0.533-0.24-0.125-0.347-0.464-0.339-0.736 0.011-0.768 0.352-1.557 0.984-2.333 0.768-0.947 1.619-1.437 2.176-1.168 0.576 0.275 0.395 0.944 0.133 1.467z m-15.864-5.016a1.061 1.061 0 0 1 0.352-0.92c0.152-0.133 0.355-0.165 0.48-0.058 0.139 0.12 0.072 0.419-0.069 0.624a1.147 1.147 0 0 1-0.653 0.472c-0.048 0.011-0.091-0.011-0.11-0.118zM32 0C14.24 0 0 5.325 0 12c0 6.635 14.355 12 32 12s32-5.387 32-12-14.355-12-32-12z m0 22.955C15.064 22.955 1.333 18.053 1.333 12.005 1.333 5.955 15.067 1.053 32 1.053s30.661 4.901 30.661 10.952c0 6.048-13.728 10.949-30.661 10.95z"/></svg>