<svg fill="#FB923C" role="img" viewBox="0 0 16 24" xmlns="http://www.w3.org/2000/svg"><title>Forgejo</title><path d="M12.777 0c1.602 0 2.9 1.299 2.901 2.901s-1.299 2.9-2.901 2.9c-1.085 0-2.031-0.596-2.528-1.479H8.91c-2.332 0-4.227 1.872-4.265 4.195l-0.001 2.118a7.076 7.076 0 0 1 4.148-1.421l0.118-0.001 1.339 0c0.497-0.883 1.443-1.479 2.528-1.478 1.602 0 2.9 1.299 2.901 2.9s-1.299 2.9-2.901 2.901c-1.085 0-2.031-0.596-2.529-1.479H8.91c-2.332 0-4.227 1.872-4.265 4.195l-0.001 2.319c0.883 0.497 1.479 1.443 1.479 2.529 0 1.602-1.299 2.901-2.9 2.9-1.602 0-2.9-1.299-2.901-2.9 0-1.085 0.596-2.031 1.479-2.529l0-9.983c0-3.887 3.119-7.045 6.991-7.108l0.118-0.001h1.339C10.746 0.596 11.692 0 12.777 0ZM3.223 19.905c-0.66 0-1.194 0.535-1.195 1.194s0.535 1.194 1.195 1.195 1.194-0.535 1.194-1.195-0.535-1.194-1.194-1.194Zm9.554-10.464c-0.66 0-1.194 0.535-1.194 1.194s0.535 1.194 1.194 1.194c0.66 0 1.194-0.535 1.195-1.194s-0.535-1.194-1.195-1.194Zm0-7.735c-0.66 0-1.194 0.535-1.194 1.195s0.535 1.194 1.194 1.194c0.66 0 1.194-0.535 1.195-1.194s-0.535-1.194-1.195-1.195Z"/></svg>