<svg fill="#21B573" role="img" viewBox="0 0 29 24" xmlns="http://www.w3.org/2000/svg"><title>Formstack</title><path d="M22.937 2.4h1.688c0.399 0 0.723 0.324 0.723 0.723v17.754c0 0.399-0.324 0.723-0.723 0.723H22.937V2.4zM26.553 4.8h1.687c0.399 0 0.723 0.324 0.724 0.723v12.953c0 0.399-0.324 0.723-0.724 0.723H26.553V4.8zM0.76 0h20.249c0.399 0 0.723 0.324 0.723 0.723v22.554c0 0.399-0.324 0.723-0.723 0.723H0.76c-0.399 0-0.723-0.324-0.724-0.723V0.723C0.036 0.324 0.361 0 0.76 0zM5.099 3.84c-0.133 0-0.241 0.108-0.241 0.241v8.859c0 0.054 0.018 0.107 0.053 0.151 0.083 0.104 0.235 0.122 0.338 0.038l11.123-8.859c0.058-0.046 0.09-0.116 0.09-0.188 0-0.133-0.108-0.241-0.241-0.241L5.099 3.84zM4.858 18.249c0 0.048 0.014 0.096 0.042 0.137 0.075 0.11 0.225 0.137 0.335 0.062l9.131-6.248c0.065-0.045 0.105-0.119 0.105-0.199 0-0.133-0.108-0.241-0.241-0.241H8.341c-0.054 0-0.106 0.018-0.148 0.051l-3.243 2.533C4.891 14.39 4.858 14.46 4.858 14.535L4.858 18.249zM4.961 19.644C4.896 19.689 4.858 19.763 4.858 19.842v0.105c0 0.128 0.104 0.231 0.231 0.231H8.473c0.133 0 0.241-0.108 0.242-0.241v-2.437c0-0.049-0.014-0.098-0.044-0.138-0.076-0.11-0.227-0.136-0.335-0.06L4.961 19.644z"/></svg>