<svg fill="#EE3124" role="img" viewBox="0 0 34 24" xmlns="http://www.w3.org/2000/svg"><title>Fortinet</title><path d="M0.198 8.899h9.504v6.237H0.198z m12.134-8.863h9.336v6.235H12.332z m0 17.694h9.336v6.236H12.332z m11.932-8.831H33.802v6.237h-9.538zM4.107 0.036C2.119 0.539 0.569 2.765 0.198 5.595v0.708h9.504V0.035zM0.198 17.729v0.775c0.336 2.697 1.787 4.853 3.674 5.461h5.864v-6.236z m33.604-11.459v-0.709c-0.371-2.798-1.921-5.022-3.909-5.561h-5.629v6.236H33.802zM30.128 24c1.854-0.641 3.304-2.764 3.674-5.461v-0.775h-9.538v6.236Z"/></svg>