<svg fill="#F94877" role="img" viewBox="0 0 18 24" xmlns="http://www.w3.org/2000/svg"><title>Foursquare City Guide</title><path d="M14.727 3.465l-0.535 2.799c-0.064 0.303-0.445 0.623-0.801 0.623H8.41c-0.562 0-0.963 0.391-0.963 0.945v0.614c0 0.569 0.405 0.96 0.966 0.96h4.23c0.395 0 0.785 0.436 0.697 0.855l-0.535 2.76c-0.051 0.24-0.314 0.63-0.785 0.63h-3.457c-0.63 0-0.818 0.091-1.239 0.601-0.42 0.524-4.206 5.069-4.206 5.069-0.037 0.045-0.074 0.029-0.074-0.015V3.42c0-0.359 0.311-0.78 0.776-0.78h10.274c0.375 0 0.73 0.356 0.633 0.821v0.004z m0.451 10.98c0.145-0.578 1.746-8.784 2.281-11.385M15.486 0H2.683C0.918 0 0.4 1.328 0.4 2.164v20.34c0 0.94 0.504 1.291 0.789 1.405 0.284 0.117 1.069 0.214 1.541-0.328 0 0 6.044-7.014 6.146-7.117 0.165-0.157 0.165-0.157 0.315-0.157h3.914c1.65 0 1.906-1.17 2.086-1.86 0.15-0.569 1.754-8.774 2.279-11.385C17.875 1.08 17.365 0 15.49 0h-0.004z"/></svg>