<svg fill="#000000" role="img" viewBox="0 0 57 24" xmlns="http://www.w3.org/2000/svg"><title>FOX</title><path d="M7.353 6.554h8.098L15.004 0H0.086v24h7.267V16.262h6.604v-6.578H7.353ZM56.914 0h-7.793L46.211 5.133l-2.915-5.133h-7.794l6.798 12.019-6.798 11.981h7.832l2.877-5.072 2.872 5.072H56.914l-6.798-11.981Zm-29.816 0A11.998 11.998 0 1 0 39.096 12a11.998 11.998 0 0 0-11.998-11.993Zm2.103 16.92a2.053 2.053 0 0 1-2.067 2.006 2.006 2.006 0 0 1-1.982-2.032V7.073a2.088 2.088 0 0 1 1.982-2.131 2.162 2.162 0 0 1 2.067 2.131Z"/></svg>