<svg fill="#EB5205" role="img" viewBox="0 0 118 24" xmlns="http://www.w3.org/2000/svg"><title>Foxtel</title><path d="M14.34 5.306l1.667-5.008H0.32v23.369h5.673v-8.41h7.012l1.667-5.008H5.993v-4.938z m14.817-5.306a12 12 0 1 0-0.03 24 12 12 0 0 0 0.034-24z m0 18.289a6.293 6.293 0 1 1-0.035-12.587 6.293 6.293 0 0 1 0.039 12.591z m31.814-17.991h-6.343l-3.97 6.377-4.01-6.377H40.306l7.178 11.418-7.511 11.951h6.342l4.343-6.87 4.303 6.87h6.342l-7.477-11.951z m0.498 5.008h6.91v18.361h5.672V5.301h6.015V0.298h-15.452z m35.717 0l1.667-5.008h-15.687v23.369h14.02l1.667-5.007h-10.005v-4.474h7.003l1.667-5.008h-8.67v-3.872z m10.479 13.349V0.303h-5.672v23.369h14.019L117.68 18.66Z"/></svg>