<svg fill="#F15B29" role="img" viewBox="0 0 25 24" xmlns="http://www.w3.org/2000/svg"><title>Fozzy</title><path d="M14.994 20.48l-0.998-2.095 5.787-11.273c0.897 1.396 1.496 3.092 1.496 4.888 0 3.99-2.594 7.382-6.285 8.48zM13.498 0.029C6.115-0.471 0.03 5.615 0.528 12.998c0.5 5.786 5.188 10.475 10.974 10.973 7.383 0.5 13.468-5.586 12.97-12.969C23.971 5.216 19.283 0.527 13.497 0.03zM7.612 4.717c1.297-0.897 2.793-1.396 4.39-1.496L9.307 8.409 7.612 4.717z m3.491 7.383l4.19-8.38c0.798 0.3 1.497 0.598 2.195 1.097L12.4 14.793 11.103 12.1zM3.721 12c0-1.796 0.599-3.492 1.496-4.888l6.485 13.667C7.212 20.38 3.72 16.589 3.72 12z"/></svg>