<svg fill="#000000" role="img" viewBox="0 0 25 24" xmlns="http://www.w3.org/2000/svg"><title>Framework</title><path d="M24.067 8.97L22.23 7.883a2.875 2.875 0 0 1-1.389-2.472V3.234c0-0.446-0.196-0.866-0.534-1.146A12.372 12.372 0 0 0 16.964 0.101a1.402 1.402 0 0 0-1.234 0.094L13.893 1.287a2.711 2.711 0 0 1-2.78 0L9.276 0.195a1.394 1.394 0 0 0-1.235-0.093 12.336 12.336 0 0 0-3.341 1.983 1.489 1.489 0 0 0-0.533 1.146v2.176c0 1.02-0.527 1.962-1.39 2.473L0.942 8.968c-0.375 0.222-0.631 0.608-0.698 1.047A12.657 12.657 0 0 0 0.091 12.001c0 0.673 0.05 1.336 0.15 1.981 0.067 0.439 0.323 0.828 0.698 1.051l1.835 1.088a2.875 2.875 0 0 1 1.389 2.473v2.176c0 0.446 0.198 0.866 0.534 1.145 0.998 0.827 2.124 1.501 3.341 1.985 0.406 0.16 0.859 0.128 1.235-0.094l1.837-1.091a2.711 2.711 0 0 1 2.78 0l1.837 1.091c0.375 0.222 0.831 0.254 1.234 0.094a12.381 12.381 0 0 0 3.342-1.986 1.489 1.489 0 0 0 0.534-1.144v-2.176a2.875 2.875 0 0 1 1.389-2.473l1.835-1.088c0.375-0.222 0.631-0.608 0.698-1.051 0.097-0.645 0.15-1.308 0.15-1.981 0-0.674-0.05-1.337-0.15-1.982a1.458 1.458 0 0 0-0.693-1.048zM12.503 19.662c-4.117 0-7.456-3.43-7.455-7.659s3.339-7.658 7.455-7.658c4.116 0 7.456 3.429 7.456 7.658s-3.34 7.659-7.456 7.659z"/></svg>