<svg fill="#0A0A23" role="img" viewBox="0 0 36 24" xmlns="http://www.w3.org/2000/svg"><title>freeCodeCamp</title><path d="M29.69 0a0.921 0.921 0 0 0-0.525 0.178c-0.119 0.119-0.239 0.291-0.238 0.464 0 0.297 0.35 0.703 0.997 1.368 2.701 2.6 4.059 5.787 4.051 9.628-0.01 4.251-1.438 7.665-4.217 10.31-0.584 0.523-0.824 0.934-0.825 1.286 0 0.172 0.119 0.351 0.237 0.523 0.113 0.119 0.351 0.24 0.523 0.24 0.643 0 1.542-0.759 2.718-2.237 2.286-2.802 3.321-5.898 3.378-10.117 0.053-4.221-1.271-7.082-3.859-10.037-0.934-1.056-1.709-1.604-2.24-1.606z m-23.379 0.003c-0.531 0-1.308 0.549-2.238 1.606C1.481 4.563 0.157 7.425 0.211 11.646c0.059 4.219 1.093 7.314 3.38 10.117 1.173 1.478 2.073 2.239 2.716 2.237a0.85 0.85 0 0 0 0.522-0.24c0.119-0.172 0.237-0.351 0.237-0.524 0-0.351-0.24-0.762-0.824-1.283-2.777-2.646-4.206-6.059-4.217-10.312-0.009-3.841 1.349-7.027 4.051-9.628 0.648-0.666 0.999-1.07 0.997-1.368 0-0.173-0.119-0.345-0.238-0.464a0.921 0.921 0 0 0-0.525-0.178z m10.461 1.327s0.971 3.085-3.927 9.973c-4.679 6.572 1.549 10.6 2.123 10.951-0.417-0.267-2.967-2.224 0.596-8.041 0.691-1.142 1.595-2.179 2.719-4.508 0 0 0.993 1.403 0.475 4.445-0.775 4.597 3.367 3.282 3.43 3.346 1.447 1.705-1.198 4.7-1.359 4.793-0.16 0.09 7.555-4.64 2.074-11.764-0.375 0.375-0.863 2.138-1.879 1.877-1.014-0.258 3.15-5.18-4.252-11.072zM14.968 22.254c0.034 0.024 0.056 0.036 0.056 0.035l-0.056-0.035z"/></svg>