<svg fill="#AB2B28" role="img" viewBox="0 0 27 24" xmlns="http://www.w3.org/2000/svg"><title>FreeBSD</title><path d="M26.383 1.42c-0.001-0.164-0.107-0.206-0.265-0.209h-0.276v0.727h0.119v-0.311h0.113l0.187 0.311h0.135l-0.203-0.32c0.112-0.013 0.193-0.072 0.19-0.198z m-0.422 0.106v-0.213h0.144c0.066-0.002 0.16 0.012 0.157 0.098 0.006 0.099-0.088 0.118-0.168 0.114h-0.133zM24.363 0.41c1.292 1.291-2.29 6.968-2.895 7.575-0.605 0.604-2.144 0.049-3.436-1.244-1.292-1.291-1.848-2.83-1.242-3.435 0.605-0.607 6.282-4.188 7.573-2.896zM2.089 6.056C0.957 4.08-0.333 1.209 0.571 0.305c0.893-0.893 3.7 0.352 5.673 1.471A12.134 12.134 0 0 0 2.089 6.056z m20.897 0.461a11.672 11.672 0 0 1 1.509 5.754c0 6.478-5.251 11.729-11.73 11.729C6.287 24 1.036 18.749 1.036 12.271 1.036 5.792 6.287 0.542 12.765 0.542c1.953 0 3.795 0.477 5.413 1.322-0.398 0.222-0.761 0.439-1.069 0.633-0.472-0.085-0.858-0.019-1.1 0.223-0.443 0.443-0.297 1.373 0.29 2.426 0.301 0.594 0.773 1.24 1.378 1.846 0.114 0.115 0.229 0.223 0.348 0.328 1.675 1.595 3.534 2.328 4.222 1.638 0.294-0.294 0.328-0.803 0.146-1.419 0.184-0.298 0.386-0.644 0.593-1.022z m3.103-5.611c-0.355 0-0.644 0.293-0.644 0.656s0.288 0.656 0.644 0.656c0.356 0 0.644-0.293 0.644-0.656s-0.288-0.656-0.644-0.656z m0 1.199c-0.278 0-0.504-0.243-0.504-0.543s0.225-0.543 0.504-0.542c0.278 0 0.504 0.243 0.504 0.542s-0.225 0.543-0.504 0.543z"/></svg>