<svg fill="#1273EB" role="img" viewBox="0 0 25 24" xmlns="http://www.w3.org/2000/svg"><title>Freepik</title><path d="M4.616 6.808c-0.72 0.72-1.235 1.544-1.75 2.368l-0.72-0.413c-0.103-0.411-0.618-0.72-1.03-0.72-0.618 0.103-0.926 0.515-0.926 1.133 0 0.514 0.515 0.926 1.03 0.824 0.103 0 0.205 0 0.308-0.103l0.721 0.41c-0.411 0.927-0.72 1.854-0.824 2.883l1.235 0.206c0.412-2.161 1.339-4.118 2.883-5.663Zm12.868 7.823c-1.235 0-2.161-1.029-2.161-2.161 0-1.235 1.03-2.161 2.161-2.162 1.236 0 2.162 1.029 2.163 2.162 0 1.235-0.926 2.161-2.163 2.161z m-7.514 1.545a2.987 2.987 0 0 1-2.985-2.985c0-1.751 1.338-3.089 2.985-3.089a2.987 2.987 0 0 1 2.985 2.985c0 1.647-1.339 3.088-2.985 3.088z m3.397-10.604a9.665 9.665 0 0 0-9.677 9.678c0 0.72 0.103 1.338 0.205 2.059 1.03 0.823 4.325 1.441 8.545 1.235 4.633-0.309 8.443-1.544 10.707-3.5 0-0.309 0-0.618-0.103-0.927-0.619-4.941-4.736-8.545-9.677-8.545Zm-0.824 14.104c-0.618 0-1.235 0.103-1.853 0.103-1.441 0-2.78-0.103-4.015-0.308-0.618-0.104-1.338-0.31-2.059-0.516 1.647 2.985 4.941 5.045 8.648 5.045 4.529 0 8.442-3.089 9.47-7.309a17.263 17.263 0 0 1-3.911 1.853c-1.853 0.618-4.015 1.029-6.28 1.132zM23.971 7.22c0.514-0.103 0.926-0.515 0.823-1.133-0.103-0.515-0.515-0.926-1.03-0.824-0.515 0.103-0.824 0.515-0.823 1.03l-0.72 0.618c-0.721-0.721-1.441-1.339-2.265-1.853l-0.618 1.029a11.515 11.515 0 0 1 4.118 4.735l1.132-0.514c-0.412-0.927-0.926-1.75-1.544-2.575l0.618-0.616c0.103 0.103 0.205 0.103 0.308 0.103zM13.367 3.102h-0.824l-0.103-1.03c0.309-0.205 0.515-0.618 0.412-1.029-0.103-0.618-0.618-1.133-1.235-1.03-0.618 0.103-1.029 0.618-1.029 1.339 0.103 0.411 0.308 0.72 0.617 0.926l0.103 1.03c-1.133 0.205-2.265 0.514-3.294 1.029l0.515 1.132a10.694 10.694 0 0 1 4.735-1.132c0.824 0 1.544 0.103 2.368 0.309l0.205-1.235c-0.72-0.205-1.544-0.309-2.47-0.309Z"/></svg>