<svg fill="#3B80AE" role="img" viewBox="0 0 29 24" xmlns="http://www.w3.org/2000/svg"><title>freedesktop.org</title><path d="M28.644 13.328l-2.451-9.396a5.266 5.266 0 0 0-6.417-3.762L4.115 4.257a5.265 5.265 0 0 0-3.762 6.416l2.452 9.395a5.269 5.269 0 0 0 6.418 3.762l15.66-4.086a5.222 5.222 0 0 0 3.209-2.429 5.222 5.222 0 0 0 0.552-3.987z m-1.249 3.579a4.416 4.416 0 0 1-2.717 2.055L9.019 23.049a4.456 4.456 0 0 1-5.43-3.183L1.137 10.47a4.455 4.455 0 0 1 3.183-5.431L19.98 0.953a4.447 4.447 0 0 1 5.429 3.183l2.451 9.396a4.414 4.414 0 0 1-0.465 3.375z m-2.819-11.803c-0.575-2.459-2.532-3.509-5.212-2.908l-13.899 3.627c-2.894 0.842-3.703 2.403-3.128 5.084l2.086 7.991c0.575 2.52 2.721 3.696 5.213 2.908l13.9-3.627c2.531-0.601 3.703-2.5 3.128-5.084l-2.088-7.991z m-7.488 3.695l0.206 0.791-4.912 0.566-0.206-0.791 4.912-0.566z m-10.798 4.606a0.762 0.762 0 0 1-0.934-0.549l-0.927-3.549a0.767 0.767 0 0 1 0.548-0.934l4.973-1.297a0.768 0.768 0 0 1 0.936 0.546l0.926 3.55a0.767 0.767 0 0 1-0.548 0.935l-4.974 1.298z m6.703 2.1l-2.458-2.372 0.918-0.24 2.422 2.338-0.62 0.161a1.126 1.126 0 0 0-0.262 0.113z m4.053 2.303a0.253 0.253 0 0 1-0.153 0.115l-2.787 0.727a0.251 0.251 0 0 1-0.307-0.18l-0.519-1.989a0.251 0.251 0 0 1 0.181-0.307l2.787-0.726a0.252 0.252 0 0 1 0.305 0.179l0.519 1.988a0.255 0.255 0 0 1-0.026 0.193z m0.013-2.861a1.052 1.052 0 0 0-0.213-0.17 1.052 1.052 0 0 0-0.552-0.142l1.864-2.805c0.218 0.175 0.489 0.28 0.774 0.296l-1.873 2.821z m6.145-4.701l-4.057 1.058a0.551 0.551 0 0 1-0.672-0.394l-0.755-2.896a0.55 0.55 0 0 1 0.394-0.672l4.057-1.058a0.561 0.561 0 0 1 0.418 0.058 0.545 0.545 0 0 1 0.254 0.337l0.755 2.896a0.549 0.549 0 0 1-0.394 0.671z"/></svg>