<svg fill="#343434" role="img" viewBox="0 0 30 24" xmlns="http://www.w3.org/2000/svg"><title>FreeNAS</title><path d="M24.227 0.715h0.174c0.073 0 0.123 0.012 0.151 0.039a0.13 0.13 0 0 1 0.041 0.101c0 0.055-0.021 0.094-0.062 0.118a0.373 0.373 0 0 1-0.186 0.035h-0.119v-0.293z m0 0.475h0.11l0.26 0.409h0.246l-0.294-0.432v-0.01a0.352 0.352 0 0 0 0.196-0.098 0.288 0.288 0 0 0 0.071-0.204 0.308 0.308 0 0 0-0.036-0.152 0.293 0.293 0 0 0-0.097-0.099 0.424 0.424 0 0 0-0.139-0.055 0.783 0.783 0 0 0-0.161-0.016h-0.368v1.068h0.212v-0.411m-0.589-0.447a0.763 0.763 0 0 1 0.423-0.445 0.836 0.836 0 0 1 0.336-0.065 0.777 0.777 0 0 1 0.759 0.51 0.893 0.893 0 0 1 0.06 0.328 0.899 0.899 0 0 1-0.06 0.329 0.78 0.78 0 0 1-0.422 0.445 0.82 0.82 0 0 1-0.337 0.065 0.785 0.785 0 0 1-0.757-0.511 0.865 0.865 0 0 1-0.06-0.328c0-0.115 0.018-0.225 0.058-0.328z m0.017 1.074a1.014 1.014 0 0 0 0.332 0.217 1.074 1.074 0 0 0 0.41 0.078c0.146 0 0.283-0.026 0.412-0.078A1.008 1.008 0 0 0 25.442 1.071a1.035 1.035 0 0 0-0.303-0.744 0.99 0.99 0 0 0-0.33-0.218c-0.128-0.052-0.265-0.078-0.412-0.077s-0.283 0.026-0.41 0.077a0.996 0.996 0 0 0-0.551 0.547 1.018 1.018 0 0 0-0.082 0.415c0 0.152 0.026 0.29 0.082 0.417a0.967 0.967 0 0 0 0.219 0.329m-2.263 15.012a3.969 3.969 0 0 1-1.131 1.475 3.89 3.89 0 0 1-2.439 0.844 3.885 3.885 0 0 1-2.942-1.317 2.416 2.416 0 0 1-0.533-1.039 2.7 2.7 0 0 1-0.073-0.63c0.002-1.037 0.52-2.077 1.026-2.869 0.255-0.396 0.508-0.731 0.698-0.964l0.253 0.309 0.044 0.055a9.107 9.107 0 0 0 1.367 1.316c0.93 0.725 2.247 1.454 3.796 1.492 0.015 0 0.028 0.004 0.043 0.005a0.209 0.209 0 0 1 0.078 0 0.194 0.194 0 0 1 0.153 0.23c-0.074 0.401-0.192 0.763-0.34 1.093z m8.16-8.532a6.484 6.484 0 0 1-0.998 1.099c-0.913 0.806-2.351 1.631-4.431 1.743l-0.613 1.125a0.21 0.21 0 0 1-0.363 0.009l-0.706-1.158c-0.334 0.062-1.195 0.204-2.196 0.204-1.671-0.036-2.195-0.293-2.748-0.646l1.868-2.517-4.004-0.928 5.023-0.965c1.467-2.96 1.922-5.491 2.034-6.263-5.633 0.624-9.839 2.023-12.544 3.196l-0.218 0.096-0.041 0.017-0.302-0.292a11.285 11.285 0 0 0-1.772-1.197 11.421 11.421 0 0 0-5.485-1.427 9.776 9.776 0 0 0-1.085 0.053c-0.596 0.038-0.307 0.186-0.236 0.246 0.273 0.223 0.661 0.696 0.915 1.351 0.256 0.657 0.43 1.542 0.429 2.737 0 0.334-0.015 0.703-0.043 1.088-0.237 0.44-0.457 0.9-0.655 1.375C0.804 8.634 0.427 10.154 0.427 11.718c0 2.782 1.093 5.317 2.648 7.377l0.21 0.318-1.645 3.279a0.077 0.077 0 0 0 0.025 0.097c0.013 0.009 0.028 0.012 0.043 0.012a0.081 0.081 0 0 0 0.057-0.024l2.571-2.262 0.301 0.291a12.266 12.266 0 0 0 8.273 3.194c5.484 0 10.131-3.586 11.722-8.54l0.35-0.151a7.668 7.668 0 0 0 1.374-0.674c0.831-0.515 1.824-1.344 2.484-2.6 0.44-0.834 0.734-1.863 0.733-3.128 0-0.198-0.007-0.401-0.021-0.61"/></svg>