<svg fill="#2D3232" role="img" viewBox="0 0 26 24" xmlns="http://www.w3.org/2000/svg"><title>Frontify</title><path d="M24.61 15.94l-2.699-1.559a0.784 0.784 0 0 1-0.393-0.677v-3.118a1.818 1.818 0 0 0-0.909-1.573l-2.7-1.559a0.788 0.788 0 0 1-0.391-0.679V3.657a1.823 1.823 0 0 0-0.909-1.576L13 0 9.391 2.081a1.823 1.823 0 0 0-0.906 1.576v3.118a0.788 0.788 0 0 1-0.391 0.678L5.391 9.014a1.821 1.821 0 0 0-0.907 1.573v3.119a0.782 0.782 0 0 1-0.391 0.676l-2.702 1.559A1.825 1.825 0 0 0 0.482 17.515v4.161l3.61 2.081a1.815 1.815 0 0 0 1.816 0l2.7-1.559a0.785 0.785 0 0 1 0.783 0l2.7 1.559a1.82 1.82 0 0 0 1.819 0l2.699-1.559a0.785 0.785 0 0 1 0.783 0L20.093 23.757a1.815 1.815 0 0 0 1.816 0L25.518 21.676v-4.162a1.825 1.825 0 0 0-0.908-1.575ZM16.487 3.657v3.118a1.823 1.823 0 0 0 0.91 1.573l2.699 1.56a0.785 0.785 0 0 1 0.393 0.678v3.119a1.821 1.821 0 0 0 0.907 1.572l2.701 1.559a0.784 0.784 0 0 1 0.391 0.678v2.973l-10.971-6.332V1.494l2.575 1.486a0.782 0.782 0 0 1 0.396 0.678zM1.908 16.836l2.701-1.559a1.823 1.823 0 0 0 0.909-1.573v-3.118a0.784 0.784 0 0 1 0.39-0.678L8.608 8.348a1.823 1.823 0 0 0 0.909-1.573V3.657a0.785 0.785 0 0 1 0.391-0.677l2.578-1.486v12.661L1.518 20.487v-2.973a0.784 0.784 0 0 1 0.39-0.678Zm19.483 6.034a0.785 0.785 0 0 1-0.782 0l-2.7-1.559a1.815 1.815 0 0 0-1.817 0l-2.7 1.559a0.785 0.785 0 0 1-0.782 0l-2.701-1.559a1.818 1.818 0 0 0-1.818 0L5.391 22.87a0.785 0.785 0 0 1-0.782 0l-2.575-1.487L13 15.045l10.966 6.332Z"/></svg>