<svg fill="#3F54A3" role="img" viewBox="0 0 27 24" xmlns="http://www.w3.org/2000/svg"><title>Frontend Mentor</title><path d="M13.691 0a0.819 0.819 0 0 0-0.804 0.819v15.563a0.819 0.819 0 0 0 0.819 0.819 0.819 0.819 0 0 0 0.818-0.819V0.819a0.819 0.819 0 0 0-0.833-0.819z m12.387 4.663a0.821 0.821 0 0 0-0.309 0.07L18.742 7.869a0.82 0.82 0 0 0 0 1.495l7.027 3.147a0.825 0.825 0 0 0 0.334 0.072 0.819 0.819 0 0 0 0.333-1.567l-5.353-2.399 5.353-2.389a0.821 0.821 0 0 0 0.414-1.081 0.821 0.821 0 0 0-0.772-0.484z m-25.166 5.628a0.818 0.818 0 0 0-0.808 1.024c1.942 7.469 8.696 12.685 16.422 12.685a0.819 0.819 0 0 0 0-1.638 15.33 15.33 0 0 1-14.838-11.459 0.818 0.818 0 0 0-0.776-0.612z"/></svg>