<svg fill="#00BAFF" role="img" viewBox="0 0 26 24" xmlns="http://www.w3.org/2000/svg"><title>F-Secure</title><path d="M25.86 2.239a38.727 38.727 0 0 0-23.965-0.647A2.392 2.392 0 0 0 0.149 4.554c0.431 1.725 1.057 3.708 1.811 5.507 0.011 0.043 0.032 0.022 0.032-0.021-0.108-0.841 0.539-1.908 1.811-2.297a29.698 29.698 0 0 1 18.738 0.248c0.927 0.323 1.962-0.183 2.263-1.141 0.755-2.424 1.057-4.073 1.132-4.482 0.011-0.075-0.054-0.108-0.075-0.129zM7.241 7.572c-0.927 0.194-2.21 0.496-3.17 0.819-1.917 0.658-1.831 2.995-0.807 3.739 0.075-0.431 0.539-1.024 1.056-1.218 1.918-0.755 3.976-1.206 6.056-1.39-1.057-0.431-2.092-1.046-3.126-1.95m15.27 4.677a22.802 22.802 0 0 0-17.726-0.701c-0.916 0.345-1.488 1.455-0.916 2.511a41.119 41.119 0 0 0 3.394 5.172c-0.183-0.625 0.14-1.789 1.369-2.166 3.394-1.045 6.96-0.604 9.331 0.355 0.668 0.27 1.617 0.108 2.146-0.69a41.615 41.615 0 0 0 2.466-4.33c0.032-0.065 0-0.119-0.064-0.151m-5.506 8.372a10.689 10.689 0 0 1-2.694-1.94c-0.367-0.367-0.906-0.894-1.477-1.519-1.293 0-2.553 0.129-3.9 0.56-1.251 0.388-1.369 1.833-0.819 2.587 0.927 1.154 1.574 1.779 2.608 2.845a2.953 2.953 0 0 0 4.116 0.021 46.682 46.682 0 0 0 2.22-2.382c0.054-0.054 0.032-0.151-0.054-0.173"/></svg>