<svg fill="#C83D1E" role="img" viewBox="0 0 60 24" xmlns="http://www.w3.org/2000/svg"><title>Fubo</title><path d="M27.273 23.639H22.859v-0.718c-0.656 0.485-1.623 1.029-3.266 1.03-5.34 0-7.413-2.887-7.413-8.487V6.576h4.412v8.888c-0.015 1.524 0 4.399 3.177 4.399 3.071 0 3.088-2.722 3.088-4.367V6.576h4.411v17.063zM10.456 0.138c-4.852-0.534-5.956 0.577-6.837 1.732-0.782 1.022-0.883 2.445-0.883 3.466v1.24H0.309v4.088h2.471v12.975h4.412v-12.975h3.33V6.576h-3.241v-1.15c0-1.173 0.94-1.319 1.413-1.29l0.97 0.045 0.792-4.043zM59.691 15.107c0-4.909-3.944-8.888-8.811-8.887-2.066 0-3.966 0.718-5.468 1.917 0.95 1.089 1.675 2.388 2.103 3.818a4.224 4.224 0 0 1 3.309-1.648c2.412 0 4.367 2.128 4.367 4.756 0 2.625-1.955 4.756-4.367 4.755-2.398 0-4.347-2.106-4.368-4.711 0-2.259-0.821-4.323-2.172-5.891a8.529 8.529 0 0 0-6.475-2.996c-1.611 0-3.12 0.453-4.412 1.242V0.267l-4.411 0.866v22.508h4.411v-0.712c1.292 0.789 2.801 1.069 4.412 1.069a8.462 8.462 0 0 0 5.384-1.933 10.429 10.429 0 0 1-2.168-3.803c-0.794 1.061-1.979 1.737-3.305 1.737-2.388 0-4.323-2.187-4.323-4.887s1.935-4.887 4.323-4.886c2.388 0 4.325 2.19 4.325 4.889 0 4.909 3.959 8.885 8.823 8.885C55.733 23.995 59.691 20.016 59.691 15.107"/></svg>