<svg fill="#242F4B" role="img" viewBox="0 0 21 24" xmlns="http://www.w3.org/2000/svg"><title>Fuga Cloud</title><path d="M17.588 13.976l-1.102-0.636v-2.534l1.101 0.639 3.174-1.831v2.528z m-14.176 0.01h-0.006l-3.167-1.834V9.625l3.17 1.828 1.098-0.637v2.535z m0.06-3.547L0.239 8.569V5.946l0.971-0.556L10.494 0l1.954 1.137 5.957 3.471 0.201 0.13 1.03 0.592 0.166 0.095 0.959 0.569v2.56l-3.174 1.835-1.101-0.636V8.434l-4.95-2.89-1.042-0.628-0.971 0.557-5.033 2.949v1.426l-1.018 0.588m0 4.42l1.018-0.581v1.208l6.063 3.542 0.225-0.142 0.048-0.024 5.672-3.317-0.012-0.426v-0.892l1.102 0.631 3.173-1.833v5.02l-0.959 0.557-1.196 0.698-0.201 0.119-5.957 3.482L10.494 24l-1.93-1.137-5.969-3.471-0.201-0.13-1.184-0.687-0.971-0.57v-4.62l0.012-0.397 3.221 1.868"/></svg>