<svg fill="#FF0000" role="img" viewBox="0 0 32 24" xmlns="http://www.w3.org/2000/svg"><title>Fujitsu</title><path d="M22.08 0C18.867 0 16.053 1.653 14.24 3.96L14.24 9.013C16.667 2.28 22.08 2.773 22.08 2.773 26 2.773 29.12 5.84 29.12 9.6 29.12 13.387 26 16.44 22.08 16.44A7.093 7.093 0 0 1 17.12 14.44L13.707 10.707A8.08 8.08 0 0 0 8.04 8.427C3.6 8.427 0 11.907 0 16.213 0 20.533 3.6 24 8.04 24 10.533 24 12.773 22.92 14.24 21.187L14.24 17.147C11.84 21.72 8.04 21.227 8.04 21.227 5.2 21.227 2.893 18.987 2.893 16.213 2.893 13.467 5.2 11.227 8.04 11.227 9.453 11.227 10.733 11.787 11.667 12.667L15.08 16.413A10 10 0 0 0 22.08 19.24C27.56 19.24 32 14.92 32 9.6 32 4.28 27.56 0 22.08 0Z"/></svg>