<svg fill="#36566F" role="img" viewBox="0 0 29 24" xmlns="http://www.w3.org/2000/svg"><title>Fur Affinity</title><path d="M7.047 23.932c-0.509-0.13-1.263-0.597-1.411-0.875-0.134-0.248-0.024-1.604 0.137-1.704 0.134-0.083 0.134-0.313 0-0.525-0.082-0.129-0.278-0.096-0.948 0.156-1.053 0.396-1.414 0.397-2.175 0.012C1.899 20.615 1.132 19.758 0.627 18.732c-0.532-1.081-0.459-1.298 0.613-1.82 0.464-0.225 1.103-0.574 1.419-0.774l0.574-0.367-0.058-0.857-0.059-0.857 0.582-0.621 0.582-0.623-0.219-0.337-0.518-0.794c-0.251-0.382-0.277-0.502-0.156-0.727 0.187-0.349 0.112-0.411-0.303-0.252-0.186 0.071-0.39 0.128-0.454 0.128-0.157 0-0.147-0.458 0.019-0.767 0.187-0.35 0.043-0.441-0.262-0.166-0.186 0.167-0.29 0.192-0.391 0.09-0.354-0.354 0.742-2.984 1.411-3.391l0.415-0.254h-0.529c-0.292 0-0.53-0.047-0.53-0.106 0-0.357 1.64-1.171 2.804-1.39l0.802-0.152 1.383-2.221c0.761-1.222 1.461-2.286 1.557-2.366 0.37-0.308 0.629-0.033 1.74 1.831 0.62 1.04 1.162 1.926 1.204 1.969 0.044 0.044 0.439-0.194 0.879-0.528 0.982-0.742 3.95-2.474 5.195-3.031 0.696-0.31 0.967-0.379 1.123-0.28 0.168 0.106 0.244 0.613 0.42 2.796 0.118 1.467 0.213 3.088 0.209 3.603-0.008 1.422 0.005 1.621 0.107 1.617 0.051 0 0.313-0.31 0.583-0.686 0.83-1.161 0.619-1.118 2.947-0.601l2.047 0.454 1.416 1.191c1.333 1.123 1.63 1.44 1.483 1.588-0.035 0.034-0.897 0.075-1.917 0.09-2.183 0.033-3.474 0.342-4.219 1.008-0.388 0.348-0.433 0.457-0.446 1.073-0.008 0.377-0.011 0.724-0.005 0.769 0.006 0.047 0.526-0.135 1.156-0.405 0.629-0.269 1.233-0.489 1.342-0.489 0.109 0 0.689 0.492 1.289 1.096l1.089 1.094-0.65 1.254-0.654 1.254 0.592 0.674c0.324 0.37 0.574 0.736 0.556 0.812-0.052 0.212-1.21 1.171-1.414 1.171-0.098 0-0.179-0.043-0.18-0.093 0-0.051-0.106-0.27-0.238-0.485l-0.238-0.391-0.85 0.236c-1.131 0.313-1.307 0.299-1.722-0.135-0.424-0.441-0.565-0.39-0.566 0.205 0 0.606-0.435 1.331-0.981 1.633-0.484 0.269-2.834 1.117-4.068 1.467a9.209 9.209 0 0 0-1.336 0.509c-1.242 0.625-1.268 0.303-0.106-1.311 0.719-0.996 1.119-1.396 2.369-2.374 0.826-0.647 1.526-1.263 1.556-1.372 0.03-0.106 0.181-1.117 0.336-2.243l0.282-2.049-0.615-1.163c-0.613-1.157-0.615-1.164-0.402-1.536 0.116-0.205 0.189-0.373 0.162-0.373-0.045 0-0.927 0.49-1.05 0.583-0.027 0.021 0.101 0.156 0.284 0.301 0.382 0.299 0.856 1.171 1.07 1.963 0.162 0.6 0.047 2.406-0.134 2.12-0.067-0.106-0.106 0.03-0.106 0.371-0.004 0.55-0.445 1.769-0.642 1.769-0.06 0-0.11-0.112-0.11-0.249 0-0.138-0.057-0.251-0.125-0.25-0.077 0-0.096 0.189-0.05 0.485l0.078 0.485-0.81-0.018c-0.594-0.012-0.873 0.038-1.042 0.188-0.34 0.299-3.057 1.712-4.018 2.089-1.265 0.496-1.349 0.584-1.772 1.895-0.208 0.645-0.46 1.297-0.559 1.451-0.402 0.616-1.83 1.029-2.752 0.792z m1.313-0.702c0.213-0.241 0.387-0.366 0.387-0.274a0.529 0.529 0 0 1-0.148 0.314c-0.08 0.082-0.109 0.187-0.06 0.234 0.118 0.118 0.407-0.3 0.594-0.868 0.181-0.548 0.354-0.722 0.267-0.27-0.032 0.169-0.03 0.308 0.006 0.308 0.175 0 0.635-1.032 0.856-1.919 0.331-1.327 0.427-1.489 1.518-2.52 0.745-0.705 0.965-0.996 1.077-1.434 0.227-0.885 0.276-0.963 0.378-0.61 0.052 0.172 0.065 0.452 0.03 0.623-0.095 0.477 0.13 0.193 0.718-0.902 0.642-1.196 0.79-1.307 0.73-0.553l-0.045 0.573 0.415-0.4c0.55-0.529 1.64-1.978 1.641-2.183 0-0.089-0.154-0.304-0.342-0.479-0.327-0.302-0.273-0.318 0.296-0.089 0.164 0.066 0.185 0.027 0.108-0.217-0.502-1.623-1.121-2.566-2.563-3.9-1.183-1.094-1.786-1.506-2.852-1.946l-0.86-0.353-0.779 0.456c-0.726 0.426-4.602 4.029-4.601 4.279 0 0.66 3.174-1.802 4.676-3.624 0.386-0.47 0.718-0.757 0.875-0.758 0.464-0.002 1.84 0.923 2.873 1.931 1.184 1.157 1.608 1.874 1.514 2.568-0.071 0.523-0.539 1.538-0.817 1.769-0.154 0.127-0.173 0.089-0.122-0.254 0.032-0.224 0.04-0.406 0.016-0.406-0.024 0-0.214 0.183-0.426 0.406-0.337 0.358-0.375 0.373-0.32 0.124 0.075-0.342 0.054-0.343-0.863-0.026a30.368 30.368 0 0 1-1.926 0.556c-1.331 0.34-2.012 0.597-2.519 0.958-0.409 0.291-0.44 0.476-0.077 0.476 0.147 0 0.459 0.203 0.693 0.453l0.428 0.453 0.195-0.279c0.183-0.261 0.861-0.627 1.163-0.627 0.075 0-0.007 0.187-0.181 0.414-0.284 0.373-0.316 0.524-0.305 1.465 0.011 0.975-0.035 1.175-0.642 2.796-0.358 0.959-0.787 1.926-0.951 2.147-0.401 0.538-1.301 1.049-1.985 1.126-0.525 0.059-0.547 0.076-0.359 0.284 0.336 0.371 0.898 0.549 1.242 0.392 0.247-0.112 0.287-0.104 0.23 0.045-0.138 0.362 0.431 0.182 0.816-0.259z m-1.968-1.148a4.773 4.773 0 0 0-0.297-0.456c-0.17-0.227-0.182-0.222-0.266 0.112-0.095 0.375 0.056 0.556 0.461 0.559 0.174 0.001 0.196-0.045 0.102-0.216z m1.707-0.804c0.23-0.23 0.18-0.42-0.151-0.571-0.386-0.177-0.458-0.092-0.301 0.355 0.14 0.4 0.226 0.44 0.452 0.216z m-3.668-0.414c0.248-0.103 0.451-0.211 0.451-0.238 0-0.207-1.467-1.048-2.406-1.378a45.413 45.413 0 0 1-1.37-0.498c-0.362-0.155 0.212 0.72 0.946 1.443 0.845 0.832 1.531 1.026 2.378 0.671z m-1.513-0.151c-0.187-0.066-0.209-0.408-0.027-0.408 0.13 0 0.318 0.349 0.231 0.425-0.026 0.021-0.118 0.014-0.204-0.017z m-0.868-0.814c-0.237-0.308-0.286-0.451-0.176-0.519 0.151-0.095 0.786 0.416 0.695 0.561-0.101 0.163-0.379 0.142-0.52-0.042z m4.702 0.351c0.962-0.174 1.098-0.234 1.473-0.659 0.666-0.755 1.166-1.721 1.122-2.17-0.062-0.621-0.53-0.887-1.686-0.952-0.534-0.031-1.207 0.007-1.493 0.085-0.689 0.186-1.427 1.021-1.715 1.94l-0.218 0.69 0.327 0.556c0.35 0.599 0.647 0.835 0.944 0.753 0.103-0.028 0.664-0.137 1.246-0.243z m0.119-1.136c-0.13-0.159-0.125-0.227 0.035-0.388 0.248-0.248 0.47-0.117 0.47 0.277 0 0.347-0.26 0.405-0.504 0.111z m-1.128-0.755c-0.319-0.386 0.308-0.871 0.703-0.543 0.265 0.22 0.225 0.341-0.18 0.55-0.323 0.167-0.379 0.166-0.523-0.007z m1.451-0.622c-0.19-0.19-0.192-0.228-0.016-0.406 0.216-0.215 0.4-0.106 0.468 0.281 0.056 0.317-0.192 0.386-0.452 0.125z m5.219 1.7c0.503-0.215 1.171-0.944 1.012-1.103-0.118-0.118-1.407 0.745-1.538 1.033-0.172 0.377-0.186 0.375 0.526 0.071z m-10.33-0.758c-0.544-0.272-1.04-0.542-1.099-0.601-0.059-0.059 0.225-0.144 0.646-0.193 0.828-0.093 2.068-0.426 1.966-0.529-0.035-0.035-0.504 0.02-1.041 0.124-1.724 0.331-1.956 0.348-1.774 0.129 0.088-0.105 0.429-0.328 0.759-0.494 0.644-0.327 0.804-0.497 0.279-0.297-0.712 0.271-1.424 0.777-1.424 1.014 0 0.161 0.911 0.722 1.704 1.047 1.103 0.453 1.095 0.353-0.016-0.2z m12.544-0.385c1.15-0.647 1.159-0.658 0.462-0.568-0.752 0.099-1.23 0.324-1.23 0.58a0.58 0.58 0 0 1-0.15 0.354c-0.258 0.258-0.027 0.166 0.918-0.366z m9.554-1.896c0.044-0.668-0.022-0.696-0.817-0.335-0.587 0.266-0.581 0.252-0.402 0.9l0.13 0.462 0.525-0.224c0.499-0.212 0.528-0.251 0.564-0.803z m-6.431-0.172c0.054-0.464-0.039-1.15-0.212-1.561-0.053-0.127-0.037-0.219 0.038-0.219 0.138 0 0.646 1.246 0.646 1.587 0 0.166 0.031 0.176 0.154 0.052 0.292-0.291 0.091-2.139-0.347-3.197-0.2-0.481 0.304 0.059 0.569 0.609l0.246 0.512-0.041-0.623c-0.073-1.105-0.45-1.727-1.424-2.358-1.233-0.796-1.288-0.898-0.493-0.891 0.666 0.005 2.04-0.512 2.348-0.883 0.117-0.142 0.101-0.157-0.091-0.084-0.142 0.054-0.05-0.101 0.232-0.391 0.613-0.631 0.633-0.972 0.031-0.512-0.526 0.4-0.551 0.328-0.095-0.271 0.316-0.413 0.347-0.556 0.387-1.767 0.043-1.291 0.039-1.313-0.195-1.103-0.146 0.131-0.284 0.172-0.355 0.102-0.272-0.269-0.509 0.213-0.728 1.488-0.124 0.72-0.299 1.488-0.39 1.706-0.169 0.411-0.787 0.888-1.565 1.213l-0.45 0.185-0.686-1.103-0.688-1.103 0.378-0.076c0.351-0.071 0.362-0.089 0.152-0.242-0.213-0.155-0.202-0.173 0.133-0.248 0.366-0.08 1.006-0.539 0.901-0.644-0.031-0.031-0.237-0.006-0.455 0.057-0.461 0.132-0.521-0.007-0.115-0.277 0.154-0.103 0.47-0.536 0.701-0.962 0.387-0.713 0.4-0.769 0.156-0.692-0.211 0.066-0.291 0.017-0.39-0.244a2.135 2.135 0 0 1-0.124-0.627c0-0.215-0.053-0.28-0.186-0.229-0.263 0.101-0.353-0.227-0.207-0.754 0.067-0.246 0.097-0.447 0.065-0.447-0.14 0-1.551 0.959-2.321 1.578-0.935 0.75-1.01 0.98-0.651 1.976 0.098 0.273 0.18 0.506 0.181 0.518 0 0.012-0.083 0.007-0.187-0.008-0.104-0.015-0.399-0.232-0.654-0.482-0.678-0.659-1.767-1.1-2.896-1.173-0.982-0.063-1.045 0.116-0.098 0.275 1.021 0.173 0.556 0.308-1.06 0.308-1.253 0-1.911 0.062-2.629 0.245-1.171 0.299-1.625 0.518-0.866 0.417 0.655-0.088 1.937 0.065 1.841 0.219-0.039 0.064-0.237 0.116-0.441 0.116-0.678 0-1.763 0.473-2.307 1.009-0.476 0.466-1.266 1.808-1.139 1.933 0.03 0.03 0.3-0.083 0.602-0.252 0.781-0.433 1.857-0.838 1.857-0.698 0 0.065-0.121 0.182-0.267 0.26-0.627 0.337-1.727 1.55-1.727 1.906 0 0.032 0.296-0.021 0.654-0.117 0.361-0.095 0.796-0.174 0.97-0.175 0.293-0.001 0.312 0.034 0.274 0.529l-0.04 0.529 0.28-0.374c0.467-0.625 2.484-2.655 3.376-3.398 0.461-0.384 0.825-0.715 0.806-0.732-0.018-0.018-0.241 0.015-0.496 0.072-0.72 0.163-0.545-0.071 0.253-0.337l0.717-0.239-0.468-0.089c-0.8-0.15-0.512-0.29 0.36-0.172 1.737 0.233 3.509 1.185 5.129 2.756 1.243 1.207 1.934 2.268 2.383 3.664l0.368 1.15-0.592 0.906c-0.78 1.191-1.072 1.701-1.003 1.751 0.06 0.044 1.627 0.56 1.757 0.578 0.044 0.006 0.104-0.198 0.134-0.452z m-11.433-0.86l1.246-1.198-0.499 0.08-0.498 0.081 0.311-0.25c0.369-0.297 0.305-0.318-0.265-0.085-0.231 0.095-0.561 0.215-0.733 0.266-0.31 0.095-0.31 0.093-0.074-0.171 0.518-0.58 0.007-0.216-0.899 0.638-0.528 0.497-1.183 1.088-1.458 1.311-0.433 0.353-0.458 0.397-0.187 0.342 0.172-0.035 0.592-0.014 0.935 0.046 0.343 0.059 0.68 0.116 0.75 0.124 0.069 0.008 0.686-0.525 1.371-1.183z m-2.067-0.459c0.387-0.351 0.5-0.535 0.444-0.717-0.08-0.251-0.31-0.34-0.31-0.118a0.125 0.125 0 0 1-0.125 0.124c-0.069 0-0.124-0.14-0.125-0.311 0-0.402-0.166-0.396-0.489 0.017-0.327 0.415-0.331 0.592-0.01 0.42 0.295-0.159 0.323-0.02 0.066 0.319-0.198 0.261-0.26 0.849-0.08 0.781 0.059-0.022 0.343-0.254 0.629-0.515z m18.655-0.133c0.524-0.232 0.892-0.459 0.817-0.506-0.16-0.099-1.796 0.596-1.861 0.792-0.065 0.193-0.009 0.177 1.044-0.286z m-18.018-1.941c-0.071-0.132-0.13-0.414-0.13-0.623 0-0.407-0.205-0.517-0.335-0.179-0.083 0.216 0.3 1.043 0.485 1.044 0.059 0 0.051-0.109-0.02-0.242z m0.449-0.321c0.075-0.194-0.15-0.56-0.344-0.56-0.128 0-0.149 0.543-0.027 0.665 0.138 0.138 0.296 0.095 0.371-0.105z m4.983-0.582l0.411-0.31c0.027-0.021-0.092-0.149-0.266-0.287-0.377-0.296-0.758-1.181-0.653-1.514 0.103-0.322-0.106-0.296-0.527 0.066-0.298 0.256-0.349 0.39-0.342 0.909 0.011 0.741 0.366 1.408 0.75 1.408 0.147 0 0.429-0.123 0.627-0.272z m-5.87-1.574c-0.092-0.092-0.468 0.127-0.529 0.308-0.024 0.069 0.085 0.183 0.242 0.253 0.25 0.112 0.289 0.091 0.325-0.178 0.021-0.168 0.005-0.341-0.038-0.383z m6.19 0.019c0.125-0.114 0.227-0.273 0.227-0.355 0-0.246-0.447-0.573-0.667-0.488-0.24 0.092-0.277 0.679-0.056 0.899 0.193 0.194 0.224 0.19 0.496-0.056z m6.687-1.632c0.446-0.427 0.505-0.563 0.69-1.59 0.111-0.616 0.289-1.795 0.395-2.618a103.04 103.04 0 0 1 0.31-2.236c0.065-0.408 0.097-0.762 0.071-0.788-0.025-0.025-0.309 0.729-0.631 1.676-0.322 0.946-0.615 1.806-0.653 1.91-0.039 0.105 0.073 0.056 0.261-0.116 0.18-0.166 0.328-0.256 0.327-0.198 0 0.321-0.461 1.554-0.708 1.894-0.331 0.455-0.375 0.641-0.098 0.411 0.512-0.426 0.267 0.381-0.32 1.049-0.36 0.408-0.376 0.655-0.02 0.3 0.282-0.283 0.166 0.177-0.122 0.485-0.447 0.476-0.027 0.324 0.498-0.179z m-4.889-2.919c-0.226-0.323-0.269-0.216-0.065 0.163 0.075 0.138 0.164 0.222 0.201 0.187 0.035-0.035-0.026-0.193-0.136-0.35z m-0.757-1.359c0.189-0.367 0.185-0.406-0.148-0.967-0.246-0.416-0.358-0.521-0.391-0.366-0.056 0.272-0.26 0.278-0.629 0.018-0.284-0.198-0.284-0.196-0.203 0.237 0.045 0.238 0.03 0.466-0.034 0.505-0.064 0.039-0.401-0.122-0.75-0.357l-0.635-0.428-0.081 0.371c-0.045 0.205-0.13 0.371-0.19 0.372-0.162 0-0.496-0.523-0.495-0.776 0-0.392-0.175-0.238-0.709 0.621l-0.521 0.84 0.381 0.04c0.209 0.024 0.441-0.019 0.515-0.094 0.221-0.22 2.063-0.15 2.765 0.106 0.862 0.313 0.903 0.309 1.126-0.122z m1.301 17.429l-0.556-0.28v-1.496l0.935-0.466c0.515-0.256 0.975-0.466 1.023-0.467 0.125-0.002 0.722 1.042 0.722 1.266 0 0.188-1.318 1.724-1.479 1.723-0.05 0-0.34-0.125-0.645-0.28z m-1.365-0.777c-0.232-0.239-0.396-0.457-0.367-0.485 0.03-0.028 0.264-0.138 0.521-0.245l0.467-0.194v0.679c0 0.374-0.045 0.679-0.099 0.679-0.056 0-0.29-0.195-0.521-0.434z m3.402-1.574c-0.329-0.497-0.334-0.53-0.115-0.66 0.127-0.075 0.603-0.374 1.058-0.663 0.817-0.522 1.138-0.639 1.138-0.419 0 0.137-1.42 2.068-1.604 2.182-0.072 0.045-0.287-0.154-0.477-0.441z"/></svg>