<svg fill="#F05F00" role="img" viewBox="0 0 85 24" xmlns="http://www.w3.org/2000/svg"><title>G2A</title><path d="M84.612 23.999s-6.613-12.597-11.079-21.11a5.896 5.896 0 0 0-1.641-1.986 4.57 4.57 0 0 0-2.781-0.903 4.348 4.348 0 0 0-2.708 0.903 5.896 5.896 0 0 0-1.64 1.986c-4.466 8.513-11.154 21.11-11.154 21.11l6.103 0.001 9.399-18.017 4.416 8.468h-6.8l2.398 4.58h6.792l2.592 4.968H84.612zM12.626 18.874c-3.759 0-6.805-3.047-6.806-6.805s3.047-6.805 6.806-6.805l13.806-0.011V0.143H12.301C5.713 0.151 0.38 5.498 0.388 12.086c0.008 6.576 5.337 11.904 11.913 11.913h14.131v-14.486H11.102v5.114l9.983-0.001v4.261l-8.459-0.013z m25.374-4.249l10.753-0.001c3.999 0 7.241-3.242 7.241-7.241s-3.242-7.241-7.241-7.241h-12.796c-2.822-0.001-5.109 2.286-5.11 5.108v0.002l17.534 0a2.161 2.161 0 0 1 2.176 2.074 2.128 2.128 0 0 1-2.069 2.186l-0.055 0.001h-11.178c-3.764 0.001-6.814 3.053-6.812 6.817v7.668h19.134l2.711-5.112h-16.499v-2.05a2.211 2.211 0 0 1 2.211-2.211z"/></svg>