<svg fill="#000000" role="img" viewBox="0 0 34 24" xmlns="http://www.w3.org/2000/svg"><title>Gameloft</title><path d="M1.317 21.75c0.694 1.209 1.752 1.773 3.081 1.922 4.769 0.544 18.998 0.247 19.018 0.247 3.375 0 6.085-1.546 6.819-4.738 0.187-0.814 0.334-3.569 0.164-6.491-0.177-3.035-1.56-5.041-5.688-5.322-5.482-0.371-13.237-0.197-16.373 0.127-1.676 0.174-2.652 1.32-2.631 2.881 0.051 3.72 0.091 4.292 0.131 4.492 1.665 0.239 1.644 0.253 1.695 0.163 0.295-0.541 0.838-0.902 1.45-0.967 0.707-0.093 0.174-0.065 14.893-0.288 0.576 0 0.918 0.26 1.024 0.827 0.121 0.734 0.143 1.481 0.066 2.22-0.048 0.632-0.568 1.639-1.517 1.651-0.021 0-10.544 0.049-15.565-0.183-1.518-0.07-3.18-1.565-3.18-4.348 0-1.182 0-4.986 0.098-6.169A3.141 3.141 0 0 1 7.406 4.918c1.873-0.34 19.326-0.133 20.435 0.119 3.149 0.721 3.415 4.494 3.425 4.574 0.295 2.168 0.323 4.613 0.297 6.823-0.065 4.986-1.927 6.081-2.55 6.801-0.187 0.216 0.055 0.316 0.422 0.583 1.567-0.294 3.805-2.005 4.244-5.636 0.169-1.404 0.299-4.613 0.028-10.374-0.176-3.739-1.747-6.962-6.959-7.555-4.521-0.514-14.474-0.104-18.945 0C-0.001 0.431 0.147 4.885 0.144 6.701c-0.03 11.487-0.02 12.975 1.175 15.049Z"/></svg>