<svg fill="#000000" role="img" viewBox="0 0 29 24" xmlns="http://www.w3.org/2000/svg"><title>Game &amp; Watch</title><path d="M27.103 0c0.702 0 1.172 0.332 1.439 0.88 0.093 0.195 0.159 0.402 0.196 0.616l0.024 0.175 0.012 0.176v20.488c0 0.702-0.302 1.174-0.805 1.439a1.965 1.965 0 0 1-0.682 0.213l-0.178 0.013H2.079c-0.77 0-1.291-0.291-1.59-0.782a1.815 1.815 0 0 1-0.248-0.692L0.226 22.342V1.858C0.226 1.08 0.555 0.557 1.102 0.262a2.165 2.165 0 0 1 0.619-0.219l0.174-0.029 0.173-0.013Zm0 0.305H2.043a1.858 1.858 0 0 0-0.794 0.221c-0.409 0.224-0.665 0.588-0.712 1.141l-0.008 0.19v20.481c0.012 0.256 0.087 0.504 0.22 0.722 0.219 0.36 0.584 0.589 1.14 0.631l0.192 0.007h25.023a1.653 1.653 0 0 0 0.722-0.19c0.362-0.19 0.59-0.506 0.637-0.987l0.008-0.188V1.85a2.028 2.028 0 0 0-0.033-0.3 2.001 2.001 0 0 0-0.169-0.537c-0.219-0.45-0.589-0.709-1.166-0.708z m-7.255 15.392c1.154 0 2.167 0.632 2.731 1.55l0.107 0.187h-1.225a2.183 2.183 0 0 0-1.613-0.726 2.193 2.193 0 1 0 1.499 3.794l0.131-0.135h1.219a3.205 3.205 0 1 1-2.849-4.671z m-16.368 0.208v4.217l2.796-4.208v-0.009h1.045v4.217l2.799-4.213h1.255L7.321 22.016h-1.047v-4.211l-2.793 4.211h-1.046v-6.111z m9.602 0.001v6.109h-1.047V20.707H10.102l-0.866 1.304H7.981l4.054-6.105z m3.82 0v1.045h-1.183v5.062h-1.047v-5.062l-1.182 0.001v-1.047z m7.099 0v2.459h1.889v-2.46h1.047v6.108h-1.047V19.411h-1.889v2.602h-1.045v-6.108Zm-11.967 1.892l-1.238 1.865h1.239Zm1.982-8.792c0.394-0.002 0.773 0.152 1.054 0.428 0.239 0.24 0.371 0.557 0.371 0.892 0 0.56-0.261 0.92-0.582 1.202l-0.109 0.093 0.804 0.741 0.54-1.217h1.025l-0.838 1.888 1.446 1.335-0.637 0.69-1.216-1.125c-0.377 0.742-0.868 1.222-1.858 1.222-0.525 0-0.999-0.188-1.341-0.529a1.85 1.85 0 0 1-0.523-1.32c0-0.906 0.507-1.344 1.089-1.757-0.314-0.276-0.63-0.648-0.63-1.223 0-0.827 0.714-1.32 1.404-1.32z m1.136 4.26l-1.178-1.088-0.311 0.224c-0.404 0.297-0.572 0.502-0.573 0.904a0.904 0.904 0 0 0 0.248 0.658c0.182 0.172 0.427 0.263 0.678 0.252 0.521 0 0.757-0.158 1.044-0.749z m-1.136-3.322a0.535 0.535 0 0 0-0.289 0.081l-0.08 0.062a0.321 0.321 0 0 0-0.099 0.238c0 0.252 0.184 0.421 0.486 0.663 0.345-0.255 0.471-0.398 0.471-0.662a0.309 0.309 0 0 0-0.098-0.228 0.576 0.576 0 0 0-0.392-0.155zM8.517 3.757h-1.11a2.236 2.236 0 1 0 0.2 2.233h-1.975v-1.017h3.152l0.003 0.072A3.207 3.207 0 0 1 5.579 8.253 3.209 3.209 0 1 1 8.517 3.757Zm17.973-1.857v1.045h-2.129v1.544h2.129v1.046h-2.129v1.424h2.129v1.045h-2.129l-1.047 0.005V1.9z m-13.253 0v6.108h-1.047v-1.309H10.257l-0.866 1.307H8.136l4.054-6.106Zm9.232-0.002v6.109h-1.046V3.79l-2.795 4.21v0.007h-1.046V3.79L14.783 8.003h-1.255l4.054-6.105h1.047v4.209l2.795-4.211z m-10.279 1.892L10.952 5.655h1.237z"/></svg>