<svg fill="#CCFF00" role="img" viewBox="0 0 23 24" xmlns="http://www.w3.org/2000/svg"><title>Game Jolt</title><path d="M5.853 0v2.824H4.44v2.823H3.03v2.824H1.618v2.823H0.206v2.824h8.47v2.823H7.265v2.824H5.853v2.823h1.412v-1.412h1.411v-1.411h1.412v-1.412H11.5V16.94h1.412v-1.41h1.412v-1.411h1.411v-1.412h1.412v-1.412h1.412V9.882h1.412V8.471h1.411V7.059h-4.235V5.647h1.412V4.235h1.412V2.824h1.411V1.412h1.412V0z m0 22.588H4.44V24h1.412zM7.265 2.824h9.882v1.411h-1.412v1.412h-1.411V7.06h-1.412v1.41H11.5v1.411h1.412v1.412H11.5V9.882h-1.412v1.412H8.676V9.882H7.265v1.412H5.853V9.882H4.44V8.471h1.412V5.647h1.412zM5.853 8.47v1.411h1.412v-1.41z m2.823 1.411h1.412v-1.41H8.676z m5.648 0h1.411v1.412h-1.411Z"/></svg>