<svg fill="#FCEF40" role="img" viewBox="0 0 23 24" xmlns="http://www.w3.org/2000/svg"><title>GameBanana</title><path d="M13.75 0v3h1.5V1.5h1.505V3h-1.505V7.5h1.5V4.5h3.002v-1.5h-1.505V0Zm6.002 4.498v1.5h1.5V4.501Zm1.5 1.5v10.503h1.5V5.998Zm0 10.503h-1.5V19.5h1.5z m-1.5 2.998h-1.505v1.5h1.5z m-1.5 1.5h-3.002v1.5h3.001z m-3.002 1.5H6.25V24h9z m-8.999 0V21h-3v1.5z m-3-1.5v-1.497H1.749v1.5z m-1.501-1.497v-2.997H9.251v-1.5H0.248v4.497z m7.502-4.497h2.997v-1.5H9.252Zm2.997-1.5h1.5v-1.501h-1.5z m1.5-1.501h1.501V7.506h-1.5z"/></svg>