<svg fill="#FF9E2A" role="img" viewBox="0 0 44 24" xmlns="http://www.w3.org/2000/svg"><title>Gatling</title><path d="M35.032 21.69c1.211-0.718 2.266-1.682 3.073-2.849h1.413a1.302 1.302 0 0 0 1.301-1.301 1.302 1.302 0 0 0-1.301-1.301h-0.112c0.269-0.83 0.449-1.682 0.493-2.579h1.391a1.302 1.302 0 0 0 1.301-1.301 1.302 1.302 0 0 0-1.301-1.301h-1.436c-0.09-0.897-0.314-1.772-0.628-2.58h0.269a1.302 1.302 0 0 0 1.301-1.3 1.302 1.302 0 0 0-1.301-1.301h-1.749c-1.794-2.243-4.621-3.746-7.783-3.746h-2.221c-1.391 0-2.736 0.292-3.948 0.83H26.127c5.383 0 9.802 4.419 9.802 9.802 0 4.979-3.746 9.107-8.568 9.734-0.292 0.022-0.583 0.045-0.897 0.045H16.37a12.042 12.042 0 0 0 4.105-3.701c0.067 0.022 0.157 0.022 0.224 0.023h8.793a1.302 1.302 0 0 0 1.301-1.301 1.302 1.302 0 0 0-1.301-1.301H21.843a12.463 12.463 0 0 0 0.673-2.58h10.071a1.302 1.302 0 0 0 1.301-1.301 1.302 1.302 0 0 0-1.301-1.301H22.628c-0.067-0.897-0.247-1.749-0.493-2.579h7.402a1.302 1.302 0 0 0 1.301-1.301 1.302 1.302 0 0 0-1.301-1.301h-8.546c-2.086-3.522-5.944-5.899-10.318-5.899h-0.852C5.828 0 2.262 1.996 0.086 5.024a10.676 10.676 0 0 1 8.097-3.701c4.621 0 8.568 2.938 10.049 7.043H12.804C11.727 6.998 10.045 6.123 8.183 6.123c-3.252 0.045-5.877 2.669-5.877 5.922s2.647 5.899 5.9 5.899c1.929 0 3.634-0.92 4.71-2.355H7.308c0-2.602 2.108-4.688 4.688-4.688h6.841c0.045 0.381 0.067 0.763 0.068 1.144 0 5.899-4.8 10.699-10.699 10.699-3.118 0-5.922-1.346-7.896-3.477 2.198 2.871 5.652 4.733 9.533 4.733h17.585c9.107 0 16.486-0.538 16.486-1.234 0-0.449-3.611-0.875-8.882-1.076Z"/></svg>