<svg fill="#FF4C00" role="img" viewBox="0 0 21 24" xmlns="http://www.w3.org/2000/svg"><title>Gcore</title><path d="M20.785 12c0 6.627-5.361 12-11.973 12-2.671 0-5.138-0.877-7.13-2.358 1.167 0.656 3.03 1.418 5.392 1.418 2.779 0 5.455-1.054 7.492-2.945a11.06 11.06 0 0 0 3.5-7.263 8.3 8.3 0 0 0 0.05-0.787c0.01-0.417-0.066-1.079-0.075-1.296l-0.01 0.01a24 24 0 0 0-0.102-0.814h-8.687c-0.749 1.398-1.486 2.802-2.226 4.204h6.565a6.91 6.91 0 0 1-1.075 2.019 6.82 6.82 0 0 1-2.403 1.981 6.796 6.796 0 0 1-3.031 0.708c-0.804 0-1.603-0.146-2.357-0.425a6.845 6.845 0 0 1-3.263-2.514A6.893 6.893 0 0 1 0.215 12a6.88 6.88 0 0 1 0.522-2.631 6.92 6.92 0 0 1 1.486-2.232 6.82 6.82 0 0 1 2.226-1.489c0.834-0.344 1.725-0.523 2.625-0.523a6.82 6.82 0 0 1 4.043 1.321c0.663-1.238 1.317-2.479 1.973-3.721C9.665 0.488 5.281 0.349 1.716 2.329 3.705 0.867 6.158 0 8.812 0c6.612 0 11.973 5.373 11.973 12"/></svg>