<svg fill="#5CAE58" role="img" viewBox="0 0 23 24" xmlns="http://www.w3.org/2000/svg"><title>GDAL</title><path d="M13.826 13.627q0.017-0.016 0.034-0.034l-0.034 0.034ZM13.597 13.852c-0.004-0.017-0.007-0.032-0.008-0.043l0.005 0.047ZM13.304 9.19l-0.003 0.001h0.025l-0.022-0.001M14.653 19.241l0.189 0.701a1.26 1.26 0 0 0-0.01-0.491 0.542 0.542 0 0 0-0.179-0.21ZM12.542 19.65h0.493l-0.246-1.015-0.247 1.015M9.38 21.609a3.792 3.792 0 0 0 0.713-2.418 3.147 3.147 0 0 0-1.021-2.714 2.65 2.65 0 0 0-1.593-0.443H5.74v6.478h1.739a2.3 2.3 0 0 0 1.901-0.903Zm-0.46-1.991a3.052 3.052 0 0 1-0.399 1.141 1.312 1.312 0 0 1-1.128 0.569h-0.548v-4.107h0.541a1.348 1.348 0 0 1 1.138 0.532 2.347 2.347 0 0 1 0.406 1.457 2.605 2.605 0 0 1-0.01 0.408ZM15.536 22.519v0.294h-0.3c0.014 0.016 0.028 0.031 0.043 0.046a7.851 7.851 0 0 1-0.878 0.119c0.056-0.069 0.069-0.13-0.108-0.138 0.004-0.011 0.012-0.017 0.017-0.027h-0.527l-0.056-0.23-0.293-1.211H12.161l-0.29 1.211-0.056 0.23H9.987l0.104-0.38 1.787-6.479 0.061-0.22h0.359a0.462 0.462 0 0 0-0.111-0.094c-0.166-0.078-0.26 0.034-0.434 0.011a2.564 2.564 0 0 1-0.516-0.244 0.938 0.938 0 0 1-0.569-0.546 1.997 1.997 0 0 0-0.404-0.559c-0.169-0.205-0.221-0.38-0.482-0.435-0.031-0.007 0.064 0.215 0.074 0.233a5.192 5.192 0 0 0 0.344 0.483c0.165 0.233 0.095 0.276-0.073 0.051-0.192-0.257-0.415-0.513-0.581-0.786-0.063-0.103-0.051-0.17-0.155-0.267-0.1-0.095-0.232-0.141-0.333-0.231a1.175 1.175 0 0 1-0.388-0.839 11.432 11.432 0 0 0-2.146 2.122 0.436 0.436 0 0 1-0.357 0.187 0.45 0.45 0 0 1-0.166-0.033 0.436 0.436 0 0 1-0.265-0.474l0.579-3.563a8.437 8.437 0 0 0-0.875 7.31v-2.327h2.039c1.33 0 2.915 0.6 2.915 3.458a4.098 4.098 0 0 1-0.779 2.604 2.652 2.652 0 0 1-0.799 0.675 8.751 8.751 0 0 0 9.344 0.342H15.615ZM5.225 6.435a0.33 0.33 0 0 0 0.103 0.23c0.017 0.017 0.045 0.014 0.066 0.027a0.316 0.316 0 0 0 0.164 0.066l0.006-0.002 0.002 0.001a0.333 0.333 0 0 0 0.165-0.049l0.705-0.435 0.815 0.589-1.219 7.499a0.138 0.138 0 0 0 0.084 0.149 0.144 0.144 0 0 0 0.051 0.01 0.136 0.136 0 0 0 0.111-0.059 13.866 13.866 0 0 1 8.121-4.905 0.137 0.137 0 0 0 0.108-0.123 0.136 0.136 0 0 0-0.089-0.137L7.457 6.741l-0.162-0.998 0.687-0.423a0.367 0.367 0 0 0-0.017-0.575l-0.967-0.522a0.7 0.7 0 0 0-0.097-0.278l-0.314-0.509 0.289-0.178 0.289 0.849 3.329-2.228v0l-0.162-0.477L9.855 0l0 0V0L8.902 0.637 6.525 2.228l0.277 0.813-0.332 0.205-0.421-0.683a0.713 0.713 0 0 0-0.978-0.232l-0.735 0.454A0.712 0.712 0 0 0 4.104 3.763l0.421 0.683-0.3 0.185-0.293-0.862 0 0v0L2.267 4.883 0.602 5.997l0.639 1.879 1.995-1.334 1.335-0.893-0.273-0.801 0.172-0.106 0.172-0.106 0.314 0.509a0.691 0.691 0 0 0 0.238 0.225Zm2.272 0.61l6.391 2.346a14.422 14.422 0 0 0-7.504 4.503ZM7.386 17.521h-0.24v3.497l-0.001 0v0.01h0.001v0H7.393a1.007 1.007 0 0 0 0.884-0.444 2.331 2.331 0 0 0 0.352-1.374 2.071 2.071 0 0 0-0.344-1.275 1.055 1.055 0 0 0-0.899-0.414ZM14.561 9.046c0.012-0.089-0.04-0.1-0.166-0.185a1.52 1.52 0 0 0-0.461-0.286c-0.206-0.041-0.286 0.015-0.328 0.103l0.914 0.335c0.017 0.006 0.025 0.024 0.041 0.033ZM10.551 8.922a3.599 3.599 0 0 1 0.614 0.008c0.082 0.01 0.355 0.101 0.429 0.059a0.25 0.25 0 0 0 0.05-0.102l-0.428-0.158a0.572 0.572 0 0 1-0.382 0.055c-0.217-0.029-0.446-0.101-0.634 0.087 0.104 0.062 0.39 0.302 0.351 0.051ZM8.593 11.49a0.857 0.857 0 0 0-0.06-0.073c-0.029-0.045-0.101-0.157-0.105-0.164a1.384 1.384 0 0 0-0.278-0.379c-0.075-0.064-0.27-0.213-0.453-0.339a7.781 7.781 0 0 1 2.707-2.103l-1.244-0.457a8.765 8.765 0 0 0-1.738 1.4l-0.583 3.591a14.67 14.67 0 0 1 1.754-1.476ZM13.768 6.658a8.798 8.798 0 0 0-3.571 0.769l1.752 0.643a0.591 0.591 0 0 1 0.226-0.249h-0.028a7.815 7.815 0 0 1 2.68-0.096c-0.12 0.062-0.031 0.104-0.119 0.167a3.283 3.283 0 0 1-0.661 0.299c0.252-0.001 0.863 0.233 0.98-0.116l-0.244-0.037a2.154 2.154 0 0 1 0.5-0.239 7.806 7.806 0 0 1 4.122 2.246c-0.008 0-0.015 0-0.023 0a1.243 1.243 0 0 0-0.757 0.175 0.967 0.967 0 0 1-0.289 0.19c-0.112 0.031-0.232 0.004-0.343 0.041-0.399 0.134-0.336 0.978-0.862 0.85-0.247-0.06-0.421-0.348-0.546-0.536-0.11-0.166-0.309-0.302-0.174-0.51-0.062 0.015-0.127-0.002-0.188 0.009 0.084-0.183 0.367-0.167 0.414-0.26 0.117-0.234-0.323-0.258-0.447-0.29 0.15-0.158 0.226 0.053 0.375 0.017 0.142-0.035-0.075-0.219-0.161-0.24-0.031-0.007-0.532 0.137-0.242-0.12q-0.537-0.338-1.074-0.676c-0.06 0.251 0.477 0.393 0.652 0.482-0.027 0.104-0.19 0.254-0.315 0.21-0.118-0.042-0.07-0.234-0.248-0.215-0.127 0.291 0.268 0.206 0.305 0.384 0.042 0.203-0.149 0.117-0.223 0.114-0.018-0.001-0.154-0.141-0.161-0.035-0.009 0.126 0.218 0.077 0.234 0.204a0.903 0.903 0 0 1-0.596-0.214 0.416 0.416 0 0 1-0.277 0.225l-0.023 0.006a1.356 1.356 0 0 0 0.195 0.055c0.149 0.018 0.233 0.221 0.314 0.305 0.054 0.055 0.15 0.172 0.245 0.16 0.149-0.02 0.087-0.149 0.173-0.209 0.232-0.159 0.294 0.057 0.387 0.273a0.94 0.94 0 0 0 0.324 0.409c0.072 0.061 0.388 0.277 0.358 0.41-0.02 0.09-0.381 0.226-0.477 0.256-0.353 0.11-1.014-0.18-1.085 0.372 0.137-0.05 0.526-0.364 0.643-0.215 0.053 0.067-0.042 0.166-0.02 0.232 0.067 0.201 0.224 0.131 0.388 0.099a0.279 0.279 0 0 1-0.035 0.018c0.225-0.114 0.202-0.09 0.305-0.275a1.313 1.313 0 0 1 0.131-0.25c0.164-0.148 0.189-0.046 0.29 0.068 0.026 0.03 0.277 0.386 0.188 0.368a1.061 1.061 0 0 0-0.813 0.107 2.212 2.212 0 0 1-0.437 0.274c-0.04 0.014-0.335 0.042-0.299-0.008 0.051-0.072 0.226-0.12 0.295-0.199-0.192-0.078-0.351 0.094-0.502 0.195-0.16 0.075-0.197 0.214-0.333 0.335-0.059 0.053-0.172 0.062-0.23 0.132-0.057 0.068-0.064 0.174-0.117 0.239-0.038 0.045-0.134 0.018-0.174 0.086-0.051 0.089 0.047 0.171 0.026 0.235-0.039 0.116-0.263 0.214-0.349 0.299a1.312 1.312 0 0 0-0.23 0.225 2.458 2.458 0 0 1 0.102 0.574c-0.09 0.264-0.264-0.143-0.335-0.248-0.243-0.361-0.729-0.12-1.061-0.09a0.728 0.728 0 0 0-0.579 1.023 0.516 0.516 0 0 0 0.58 0.245c0.216-0.044 0.281-0.341 0.484-0.347 0.374-0.01 0.008 0.361-0.024 0.497-0.03 0.126 0.047 0.138 0.178 0.169 0.097 0.023 0.235-0.041 0.319 0.014a0.097 0.097 0 0 1 0.029 0.045h0.418l0.06 0.222 0.12 0.444a0.369 0.369 0 0 1 0.06 0.001c0.323 0.081 0.169-0.024 0.452-0.193 0.191-0.114 0.223 0.021 0.354 0.022 0.089 0 0.146-0.126 0.294-0.09 0.121 0.03 0.169 0.123 0.314 0.144 0.058 0.008 0.118-0.02 0.174-0.015v-0.535h1.706v1.797a0.569 0.569 0 0 0 0.107-0.076h0a0.564 0.564 0 0 1-0.107 0.076v0c-0.05 0.028-0.098 0.045-0.098 0.011 0 0.023 0.051 0.057 0.098 0.087v0c0.023 0.015 0.05 0.032 0.06 0.039 0.094-0.301 0.248-0.107 0.434-0.033a3.683 3.683 0 0 0 0.52 0.106 1.42 1.42 0 0 1 0.563 0.244c0.127 0.139 0.039 0.364-0.055 0.502-0.123 0.181-0.309 0.25-0.386 0.462a3.372 3.372 0 0 0-0.05 0.526c-0.047 0.253-0.085 0.164-0.249 0.319-0.139 0.13-0.002 0.107-0.192 0.19-0.19 0.083-0.357 0.059-0.488 0.264a0.343 0.343 0 0 0 0.013-0.04 1.694 1.694 0 0 0-0.11 0.285 0.654 0.654 0 0 1-0.06 0.077v0.458h1.817v1.203a8.602 8.602 0 0 0 3.498-6.902 8.731 8.731 0 0 0-8.789-8.671ZM12.707 8.034c0.166-0.059 0.638-0.004 0.697-0.158a4.13 4.13 0 0 0-1.029 0.227 0.824 0.824 0 0 0-0.118 0.08l0.249 0.091c0.056-0.132 0.036-0.181 0.201-0.24ZM13.94 10.842c0.231-0.168 0.179-0.178 0.096-0.447a1.698 1.698 0 0 1-0.103-0.418 14.042 14.042 0 0 0-1.648 0.509c0.2 0.11 0.466 0.182 0.615 0.248 0.132 0.059 0.517 0.14 0.588 0.238 0.096 0.132-0.083 0.256 0.118 0.349a0.251 0.251 0 0 0 0.252-0.025c0.09-0.1-0.036-0.122-0.058-0.238-0.042-0.222 0.027-0.134 0.14-0.216ZM12.167 16.034l-1.786 6.478h1.198l0.172-0.72 0.173-0.72h1.746l0.349 1.44h1.205l-1.746-6.478Zm-0.006 3.916l0.533-2.195a3.188 3.188 0 0 0 0.086-0.566h0.027c0.001 0.024 0.008 0.048 0.01 0.072a3.646 3.646 0 0 0 0.072 0.511l0.264 1.089 0.263 1.089ZM2.697 19.987h0.983v1.265a1.158 1.158 0 0 1-0.63 0.149 1.221 1.221 0 0 1-1.049-0.547 2.634 2.634 0 0 1-0.389-1.545 2.6 2.6 0 0 1 0.433-1.574 1.331 1.331 0 0 1 1.121-0.59 2.226 2.226 0 0 1 1.39 0.433v-1.369a3.16 3.16 0 0 0-1.376-0.284 2.387 2.387 0 0 0-1.985 0.962 3.949 3.949 0 0 0-0.746 2.489 3.755 3.755 0 0 0 0.683 2.385 2.251 2.251 0 0 0 1.867 0.864 2.868 2.868 0 0 0 1.786-0.546v-3.258H2.697ZM16.942 16.034h-1.106v6.478h2.923v-1.184h-1.817Z"/></svg>