<svg fill="#DD1F26" role="img" viewBox="0 0 65 24" xmlns="http://www.w3.org/2000/svg"><title>G&#233;ant</title><path d="M54.775 19.656c-0.072-0.038-0.107-0.038-0.072-0.187 0.038-0.182 0.11-0.407 0.147-0.555 0.075-0.26 0.222-0.41 0.671-0.445 0.37-0.038 0.817-0.038 1.077-0.15-0.335 0.965-1.34 0.705-1.823 1.34z m8.883 1.528c-0.188 0.815-0.817 1.407-1.375 1.372-0.373-0.038-0.482-0.41-0.373-0.817 0.15-0.67 0.745-1.375 1.34-1.34 0.332 0.038 0.52 0.335 0.408 0.782m-0.223-1.302c-1.228-0.072-2.192 0.817-2.342 1.747-0.89 0.93-1.26 0.817-1.188 0.483 0.11-0.407 0.67-1.447 0.705-1.858 0-0.222-0.107-0.375-0.407-0.407-0.482-0.038-1.303 0.482-2.083 1.112-0.147 0.113-0.222 0.038-0.187-0.072 0.113-0.295 0.188-0.448 0.3-0.745 0.038-0.072 0.038-0.107-0.038-0.148a0.842 0.842 0 0 0-0.445-0.222c-0.15 0-0.26 0.038-0.335 0.188-0.67 0.59-1.97 2.375-2.412 2.339-0.078 0-0.153-0.038-0.153-0.15 0-0.26 0.858-2.01 0.858-2.192 0-0.107-0.078-0.147-0.15-0.147-0.188 0-1.115 0.295-1.19 0.369-0.038 0.038-0.038 0.075-0.075 0.15 0.113 0 0.188 0.038 0.15 0.223-0.113 0.407-0.745 1.71-0.745 1.97 0 0.26 0.113 0.407 0.41 0.407 0.78 0.038 1.56-0.52 2.6-1.71-0.26 0.523-0.445 1.005-0.483 1.34-0.038 0.332 0.445 0.37 0.708 0.333 0.11 0 0.11 0 0.147-0.107 0.113-0.3 0.445-0.895 1.19-1.566 0.332-0.295 0.777-0.63 0.965-0.589 0.15 0 0.15 0.145 0.15 0.219-0.075 0.335-0.335 0.858-0.522 1.341-0.147 0.442 0.038 0.74 0.41 0.739 0.482 0.038 1.152-0.26 1.822-0.89 0.072 0.52 0.445 0.927 1.113 0.965 1.228 0.075 2.38-0.817 2.452-2.045 0.038-0.59-0.52-1.04-1.225-1.077m-10.182 0.632c0 0.038 0.038 0.038 0.075 0 0.188-0.075 0.407-0.222 0.408-0.375 0-0.182-0.222-0.295-0.928-0.329-1.077-0.075-2.01 0.295-2.01 0.889 0 0.745 1.453 0.858 1.453 1.488 0 0.295-0.335 0.557-0.965 0.557-0.448 0-0.82-0.15-0.82-0.482 0-0.222 0.188-0.448 0.857-0.595-0.078-0.113-0.15-0.113-0.262-0.113-0.777 0.113-1.228 0.41-1.228 0.778-0.035 0.413 0.298 0.748 1.563 0.785 1.412 0.035 2.005-0.595 2.005-1.153 0-0.633-0.89-0.965-1.3-1.265-0.107-0.072-0.188-0.188-0.188-0.26 0-0.147 0.188-0.332 0.708-0.332 0.222 0 0.482 0.072 0.557 0.147 0.113 0.038 0.113 0.147 0.075 0.26z m-6.54 1.823c-0.214 0-0.327-0.15-0.327-0.335 0.038-0.858 1.34-1.895 2.6-1.71-0.633 1.447-1.597 2.08-2.265 2.042m3.458-2.155c0.064-0.107 0.027-0.222-0.08-0.26-0.188-0.038-0.45-0.072-0.671-0.107-2.447-0.153-4.157 1.26-4.234 2.375-0.032 0.445 0.228 0.742 0.857 0.777 0.67 0 1.525-0.37 2.08-0.777 0.147-0.113 0.147-0.075 0.148 0.037-0.107 0.37-0.075 0.705 0.294 0.743 0.407 0.038 0.927-0.188 1.113-0.26 0 0 0.038-0.075 0.037-0.148-0.222 0-0.295-0.225-0.26-0.447 0.038-0.557 0.482-1.522 0.705-1.93m-3.706-0.745c0 0.075 0.038 0.075 0.072 0.075 0.557 0 0.965-0.375 0.965-0.595 0-0.222-0.257-0.557-1.34-0.557-3.155-0.038-5.234 1.375-5.42 2.934-0.225 2.083 2.822 3.163 5.425 2.528 0.595-0.147 0.927-0.335 0.927-0.445v-0.225a3.27 3.27 0 0 1-0.557 0.187c-2.117 0.63-4.645-0.222-4.422-2.155 0.15-1.375 1.935-2.493 3.83-2.452a0.724 0.724 0 0 1 0.294 0.035c0.263 0.038 0.375 0.15 0.376 0.295 0.035 0.188 0 0.263-0.15 0.375M19.853 3.715c0.893-0.407 5.277-3.01 5.424-3.082 0.188-0.11 0.93-0.188 1.34 0.557 0.407 0.742 0.407 1.485-0.635 1.895-1.04 0.37-5.425 1.04-6.129 0.63m6.094 5.499c-0.15-1.412-0.965-2.305-2.23-2.304s-2.083 0.858-2.229 2.304z m3.12 5.2c-2.305 1.415-4.235 1.415-5.052 1.415-3.605 0-5.95-2.117-5.95-5.387 0-3.79 2.68-5.682 5.87-5.682 3.015 0 5.468 2.375 5.355 6.089H21.595c0.113 1.97 1.375 2.937 3.382 2.938 1.3 0 2.117-0.26 4.087-1.413z m34.96-7.169h-3.16v4.534c0 1.002 0.595 1.672 1.598 1.673 0.67 0 1.005-0.15 2.117-0.595v2.377c-1.41 0.482-2.225 0.67-3.232 0.67-2.155 0-4.012-1.002-4.012-3.902v-4.757h-1.488v-2.34h1.563v-2.305l3.457-1.485v3.752h3.157z m-16.751-0.965c1.077-1.19 2.147-1.597 3.522-1.598 1.71 0 3.975 1.04 3.975 4.128v6.834h-3.417v-6.352c0-1.49-0.742-2.083-1.71-2.082-0.855 0-1.477 0.445-2.37 1.707v6.727h-3.42V4.942h3.42z m-9.847 4.234c-1.932 0.708-2.825 1.152-2.825 2.198 0 0.59 0.482 1.11 1.04 1.11 0.595 0 1.265-0.295 1.785-0.778z m4.645 4.388c-0.858 0.557-2.155 0.965-3.01 0.965-1.077 0-1.597-0.335-1.822-1.19-1.262 0.858-2.265 1.19-3.38 1.19-1.635 0-2.862-1.26-2.862-2.565 0-2.493 2.083-3.157 6.392-4.53 0.075-0.965-0.482-1.75-1.895-1.75-1.303 0-2.38 0.188-3.567 0.858l-0.376-1.973c1.34-0.858 2.937-1.187 4.573-1.187 2.6 0 4.795 1.152 4.795 3.417l0.037 4.535c0 0.52 0.147 0.63 0.483 0.63 0.222 0 0.15 0 0.632-0.26v1.785zM14.868 3.825c-2.23-1.152-3.157-1.3-5.018-1.3-4.127 0-5.575 3.27-5.575 5.575 0 2.747 2.117 5.127 5.28 5.127 0.927 0 1.41-0.075 2.788-0.558v-2.565h-2.455v-2.675h6.17v6.318c-1.303 1.187-4.127 2.08-6.578 2.079-5.352 0-9.142-3.27-9.142-7.879 0-4.717 3.752-7.947 9.18-7.947 2.265 0 4.53 0.52 6.28 1.447z"/></svg>