<svg fill="#2F8D46" role="img" viewBox="0 0 48 24" xmlns="http://www.w3.org/2000/svg"><title>GeeksforGeeks</title><path d="M42.535 16.541c-0.28 0.549-0.655 1.043-1.108 1.461a7.239 7.239 0 0 1-2.166 1.363 8.846 8.846 0 0 1-6.111-0.031 7.433 7.433 0 0 1-4.188-4.076 7.004 7.004 0 0 1-0.255-0.692h14.549a8.355 8.355 0 0 1-0.721 1.977z m-23.517-1.283a7.439 7.439 0 0 1-4.185 4.076 8.846 8.846 0 0 1-6.114 0.031 7.257 7.257 0 0 1-2.165-1.363 5.201 5.201 0 0 1-1.106-1.461 8.279 8.279 0 0 1-0.722-1.973H19.273c-0.075 0.235-0.157 0.467-0.255 0.69z m28.442-3.448a7.549 7.549 0 0 0-0.161-0.931l-18.896-0.016a7.712 7.712 0 0 1 2.242-4.605c0.712-0.686 1.549-1.226 2.471-1.587a7.787 7.787 0 0 1 8.795 1.877l2.983-2.922a11.18 11.18 0 0 0-3.77-2.662 12.323 12.323 0 0 0-4.989-0.961 12.455 12.455 0 0 0-4.717 0.896 11.782 11.782 0 0 0-3.85 2.503 12.047 12.047 0 0 0-2.599 3.805 11.497 11.497 0 0 0-0.914 3.656h-0.124a11.488 11.488 0 0 0-0.916-3.658 12.023 12.023 0 0 0-2.598-3.803A11.768 11.768 0 0 0 16.567 0.899a13.137 13.137 0 0 0-9.707 0.061A11.195 11.195 0 0 0 3.092 3.626l2.981 2.922a8.171 8.171 0 0 1 8.795-1.879c0.922 0.361 1.761 0.902 2.471 1.589 0.722 0.706 1.294 1.553 1.685 2.487 0.286 0.675 0.475 1.389 0.559 2.118l-18.897 0.016A9.246 9.246 0 0 0 0.464 12.897a12.735 12.735 0 0 0 0.677 4.172 9.664 9.664 0 0 0 2.118 3.497c1.036 1.098 2.295 1.961 3.687 2.536a12.658 12.658 0 0 0 4.911 0.896c1.616 0.01 3.217-0.294 4.715-0.896a11.741 11.741 0 0 0 3.853-2.505 11.996 11.996 0 0 0 3.306-6.033h0.536a12.023 12.023 0 0 0 3.307 6.035 11.748 11.748 0 0 0 3.852 2.503 12.445 12.445 0 0 0 4.717 0.896 12.651 12.651 0 0 0 4.907-0.896 10.63 10.63 0 0 0 3.691-2.536 9.665 9.665 0 0 0 2.118-3.497A12.788 12.788 0 0 0 47.536 12.897a9.33 9.33 0 0 0-0.076-1.087z"/></svg>