<svg fill="#FFFF64" role="img" viewBox="0 0 27 24" xmlns="http://www.w3.org/2000/svg"><title>Genius</title><path d="M0.117 6.231c0 2.413 0.881 4.609 2.417 6.145 0.438 0.438 0.877 0.658 1.316 1.096h0.217c0.22 0 0.219-0.219 0.219-0.219-0.438-0.878-0.656-1.974-0.656-3.071 0-2.413 1.095-4.828 2.632-6.364V0.31c0-0.22-0.22-0.219-0.22-0.219h-3.29C0.997 1.846 0.117 3.818 0.117 6.231z m2.854 14.041c2.632 2.413 5.922 3.728 9.871 3.728 7.898 0 14.041-6.359 14.041-14.037 0-3.729-1.537-7.24-3.95-9.653h-0.219c0-0.22-0.219 0-0.218 0 0.658 1.755 1.096 3.51 1.096 5.484 0 8.117-6.582 14.914-14.919 14.915-1.974 0-3.729-0.438-5.484-1.096-0.22 0-0.219 0.222-0.218 0.44z m6.58-13.381c0 0.658 0.441 1.314 0.879 1.752h0.437c3.948 1.316 5.266-0.215 5.266-1.971V4.255c0-0.219 0.219-0.219 0.219-0.218h0.877c0.22 0 0.219-0.219 0.219-0.219-0.219-1.316-0.874-2.63-1.752-3.727h-2.635c0-0.22-0.219 0-0.219 0.219v3.29c0 1.755-1.316 3.071-3.071 3.291 0-0.22-0.219 0-0.219 0z"/></svg>