<svg fill="#00874D" role="img" viewBox="0 0 27 24" xmlns="http://www.w3.org/2000/svg"><title>Geocaching</title><path d="M0.314 11.164h2.108c0.166-1.91 0.924-4.196 2.77-6.041C3.402 3.794 3.044 2.261 3.044 1.408h0.716c0.075 0.749 0.392 1.82 2.469 3.025C8.189 3.284 8.59 2.152 8.699 1.408h0.717c0 0.792-0.348 2.288-2.144 3.714 1.501 0.978 2.754 2.412 3.217 4.655H8.639c-0.323-1.605-1.143-2.874-2.41-3.85-1.284 1.256-1.949 3.322-1.99 5.237h7.219V0.021H0.314v11.143zM6.229 1.705c0.515 0 0.934 0.414 0.934 0.925 0 0.511-0.418 0.924-0.934 0.924a0.93 0.93 0 0 1-0.934-0.924 0.931 0.931 0 0 1 0.934-0.925zM4.241 12.856h7.216v7.216a8.063 8.063 0 0 1-4.148-1.679L6.023 19.681a9.865 9.865 0 0 0 5.434 2.21v2.109H0.314V12.856h2.109a9.867 9.867 0 0 0 2.231 5.459l1.286-1.287a8.054 8.054 0 0 1-1.699-4.172z m8.909-12.835h11.144V11.165h-2.108a9.868 9.868 0 0 0-2.211-5.436l-1.287 1.287a8.063 8.063 0 0 1 1.679 4.149h-7.217V3.948a8.073 8.073 0 0 1 4.174 1.698l1.286-1.287a9.875 9.875 0 0 0-5.458-2.23V0.021z m0 12.835h11.144V23.999h-6.579l-1.288-5.204c0.52-0.629 1.06-0.919 2.348-1.119 2.4-0.375 2.83-2.452 2.831-2.452-1.121 0.269-2.018 0.001-3.076-0.257-1.043-0.254-2.043-0.232-2.996 0.101-0.724 0.253-0.899 0.489-0.899 0.489l2.095 8.442h-3.578V12.856z m12.527-12.856a0.982 0.982 0 0 0-1.004 1.009c0 0.572 0.431 1.003 1.004 1.003A0.982 0.982 0 0 0 26.685 1.009a0.983 0.983 0 0 0-1.008-1.009z m0 1.845a0.811 0.811 0 0 1-0.828-0.836c0-0.48 0.351-0.839 0.828-0.839 0.48 0 0.834 0.359 0.834 0.839a0.814 0.814 0 0 1-0.834 0.836z m0.416-0.996c0-0.221-0.164-0.327-0.359-0.328h-0.452v0.977h0.224v-0.34h0.093l0.284 0.34h0.242v-0.044l-0.276-0.308c0.13-0.031 0.244-0.134 0.244-0.297z m-0.368 0.146h-0.219v-0.288h0.219c0.084 0 0.146 0.048 0.146 0.144 0.001 0.089-0.063 0.144-0.146 0.144z"/></svg>