<svg fill="#EEEEEE" role="img" viewBox="0 0 26 24" xmlns="http://www.w3.org/2000/svg"><title>Gerrit</title><path d="M13.694 2.017l-0.262-0.285c0.004-0.004 0.311-0.287 0.442-0.439 0.13-0.156 0.366-0.518 0.37-0.521l0.323 0.209c-0.015 0.017-0.251 0.384-0.402 0.559-0.147 0.177-0.458 0.463-0.471 0.477z m1.689 11.349c-0.013-0.004-0.257-0.165-0.391-0.237-0.125-0.063-0.343-0.156-0.452-0.204l0.228-0.656-0.962-0.475-0.306 0.933c-0.186 0.004-0.764 0.057-1.617 0.416-1.027 0.428-1.808 1.098-1.815 1.102l-0.154 0.134 0.687 0.027 0.021-0.017c0.006-0.006 0.772-0.573 1.199-0.755 0.094-0.04 0.222-0.079 0.353-0.113-0.224 0.112-0.47 0.243-0.642 0.343-0.213 0.127-0.61 0.408-0.628 0.421l-0.199 0.138 0.73 0.017 0.02-0.01c0.013-0.009 1.247-0.667 1.916-0.814l0.209-0.051c0.155-0.04 0.263-0.069 0.452-0.068 0.167 0 0.395 0.022 0.737 0.075 0.426 0.063 0.707 0.169 0.711 0.171l0.257 0.101-0.344-0.467-0.013-0.009 0.003-0.002z m-9.618-7.816h-0.031l-1.077 0.981v0.032c-0.017 0.285 0.084 0.557 0.276 0.767 0.195 0.21 0.45 0.331 0.735 0.342h0.046c0.569 0 1.034-0.442 1.062-1.007 0.025-0.584-0.427-1.082-1.011-1.115zM5.717 7.511h-0.044c-0.125-0.005-0.246-0.034-0.353-0.091 0.048 0.009 0.105 0.011 0.158 0.002 0.304-0.037 0.515-0.312 0.48-0.616-0.037-0.299-0.314-0.514-0.617-0.473-0.283 0.036-0.489 0.286-0.477 0.569-0.033-0.096-0.048-0.196-0.049-0.3l0.977-0.893c0.478 0.045 0.846 0.462 0.823 0.945s-0.419 0.857-0.902 0.857H5.717z m9.992-3.99l-0.314-0.208-0.439 0.283-0.423-0.305-0.323 0.193 0.433 0.312-0.446 0.289 0.318 0.193 0.429-0.272 0.414 0.299 0.331-0.181-0.436-0.317M25.852 20.06c-0.228-0.224-0.448-0.446-0.674-0.672-0.514-0.523-1.025-1.054-1.518-1.591-0.586-0.64-1.159-1.293-1.695-1.975-0.241-0.303-0.472-0.621-0.692-0.944-0.272-0.414-0.502-0.851-0.715-1.301-0.226-0.477-0.426-0.964-0.617-1.452 0.257 0.225 0.496 0.476 0.711 0.741 0.022-0.23 0.044-0.461 0.063-0.694l0.025-0.345c0-0.035 0.013-0.071-0.008-0.103-0.017-0.031-0.035-0.055-0.057-0.08-0.13-0.16-0.283-0.302-0.435-0.442-0.202-0.194-0.414-0.386-0.626-0.571l-0.192-0.167c-0.029-0.029-0.061-0.055-0.092-0.08-0.033-0.032-0.044-0.103-0.059-0.145l-0.165-0.513c0.65 0.305 1.188 0.794 1.69 1.301 0.004-0.235 0.004-0.467 0-0.698 0-0.122-0.002-0.245-0.009-0.371 0-0.031 0.006-0.107-0.017-0.136-0.013-0.021-0.033-0.039-0.046-0.059-0.117-0.125-0.251-0.232-0.382-0.336-0.184-0.153-0.375-0.297-0.565-0.437-0.167-0.125-0.341-0.248-0.511-0.37-0.019-0.017-0.081-0.042-0.068-0.064l0.042-0.085c0.021-0.037 0.015-0.048 0.056-0.032l0.182 0.064c0.435 0.167 0.834 0.394 1.225 0.651-0.132-0.482-0.333-0.948-0.563-1.388-0.417-0.816-0.956-1.572-1.567-2.255-0.406-0.456-0.841-0.883-1.305-1.277-0.239-0.203-0.489-0.395-0.749-0.571-0.121-0.079-0.241-0.16-0.37-0.233-0.052-0.032-0.112-0.06-0.161-0.1-0.193-0.154-0.391-0.304-0.588-0.46 0.255 0.105 0.502 0.225 0.738 0.362-0.136-0.208-0.366-0.355-0.584-0.467-0.329-0.17-0.682-0.296-1.035-0.405 0.121-0.129 0.251-0.244 0.37-0.372 0.121-0.129 0.239-0.263 0.354-0.399 0.136-0.161 0.27-0.321 0.401-0.487l-1.238-0.777-0.514-0.325c-0.132 0.263-0.297 0.51-0.49 0.728-0.193 0.217-0.419 0.395-0.643 0.578-0.205 0.167-0.406 0.338-0.606 0.505-0.05 0.043-0.099 0.091-0.155 0.129-0.027 0.022-0.103 0.004-0.136 0.004H11.608c-0.318 0.006-0.638 0.031-0.955 0.073-0.062 0.007-0.121 0.014-0.187 0.008l-0.191-0.01c-0.147-0.009-0.29-0.017-0.437-0.018-0.31-0.004-0.621 0-0.932 0.027-0.261 0.024-0.524 0.059-0.781 0.12-0.255 0.06-0.494 0.184-0.707 0.334-0.207 0.151-0.414 0.343-0.54 0.568s-0.182 0.488-0.228 0.738c-0.145 0.014-0.287 0.011-0.428 0.017-0.151 0.009-0.297 0.022-0.446 0.042-0.289 0.04-0.573 0.103-0.851 0.193-0.531 0.165-1.012 0.434-1.431 0.803-0.209 0.194-0.404 0.407-0.577 0.638-0.021 0.027-0.04 0.055-0.068 0.073-0.011 0.01-0.029 0.017-0.035 0.029-0.016 0.029-0.035 0.056-0.055 0.081l-0.143 0.227c-0.18 0.305-0.296 0.637-0.411 0.971l-0.048 0.131 0.036-0.022c-0.011 0.072-0.021 0.145-0.027 0.216l-0.009 0.113v0.056l-0.07 0.014c-0.145 0.028-0.29 0.064-0.429 0.108-0.129 0.042-0.25 0.092-0.361 0.161-0.112 0.071-0.209 0.164-0.305 0.256-0.341 0.332-0.602 0.748-0.736 1.208-0.107 0.373-0.147 0.787-0.063 1.17 0.022 0.096 0.052 0.201 0.115 0.28 0.079 0.096 0.213 0.135 0.335 0.102 0.14-0.039 0.266-0.133 0.397-0.2l0.336-0.168c0.487-0.242 0.996-0.478 1.541-0.563 0.037-0.005 0.107 0.072 0.14 0.098 0.052 0.04 0.107 0.079 0.158 0.111 0.117 0.074 0.237 0.138 0.358 0.194 0.281 0.122 0.579 0.186 0.876 0.247 0.538 0.112 1.086 0.183 1.638 0.193 0.222 0.004 0.446 0 0.669-0.019 0.241-0.021 0.483-0.052 0.726-0.055 0.268-0.005 0.531 0.027 0.793 0.059 0.272 0.033 0.546 0.073 0.818 0.113 0.555 0.085 1.104 0.181 1.653 0.299-0.123 0.193-0.243 0.388-0.362 0.583-0.009 0.014-0.077 0-0.095 0-0.044-0.002-0.092-0.002-0.136 0-0.079 0-0.161 0.009-0.241 0.021-0.226 0.032-0.446 0.089-0.658 0.167-0.525 0.194-1.005 0.517-1.421 0.892-0.237 0.209-0.461 0.437-0.652 0.686-0.052 0.069-0.101 0.138-0.149 0.207 0.112-0.025 0.226-0.048 0.341-0.075 0.065-0.017 0.125-0.029 0.188-0.042 0.022-0.009 0.031-0.017 0.053-0.029 0.235-0.217 0.483-0.421 0.744-0.603 0.119-0.086 0.241-0.165 0.373-0.23 0.178-0.089 0.379-0.14 0.571-0.186-0.353 0.193-0.726 0.375-1.047 0.625-0.184 0.149-0.351 0.312-0.524 0.47l0.7-0.111c0.011 0 0.015-0.004 0.025-0.011l0.182-0.1c0.121-0.069 0.246-0.134 0.37-0.2 0.257-0.132 0.516-0.257 0.784-0.364 0.253-0.101 0.514-0.191 0.784-0.241 0.237-0.049 0.458-0.056 0.694 0 0.366 0.079 0.718 0.248 1.038 0.444 0.022 0.015 0.037 0.035 0.059 0.015 0.017-0.015 0.105-0.079 0.096-0.099l-0.192-0.358c-0.017-0.031-0.025-0.052-0.055-0.07l-0.14-0.083c-0.188-0.111-0.373-0.225-0.546-0.354-0.04-0.025-0.084-0.042-0.088-0.096-0.004-0.049 0.015-0.1 0.031-0.145 0.035-0.096 0.086-0.181 0.14-0.266 0.035-0.062 0.077-0.119 0.117-0.178 0.015-0.019 0.011-0.022 0.033-0.015l0.127 0.037c0.253 0.082 0.502 0.17 0.762 0.235 0.289 0.073 0.584 0.132 0.878 0.189l0.052 0.011c-0.06-0.032-0.097-0.096-0.142-0.146-0.025-0.032-0.037-0.054-0.079-0.064l-0.113-0.022c-0.079-0.017-0.159-0.032-0.241-0.052-0.281-0.061-0.562-0.127-0.832-0.224-0.402-0.139-0.812-0.248-1.226-0.345-0.521-0.115-1.046-0.208-1.569-0.294-0.268-0.044-0.533-0.079-0.803-0.117-0.263-0.036-0.531-0.075-0.799-0.093-0.577-0.036-1.15 0.093-1.73 0.086-0.391-0.004-0.786-0.059-1.174-0.112l-0.073-0.01c0.27-0.1 0.535-0.201 0.804-0.305 0.253-0.102 0.504-0.206 0.755-0.309 0.136-0.056 0.268-0.112 0.399-0.169 0.121-0.055 0.241-0.107 0.352-0.182 0.437-0.299 0.724-0.779 1.044-1.187 0.292-0.387 0.628-0.75 1.06-0.973 0.138-0.071 0.281-0.125 0.428-0.167-0.303-0.47-0.588-0.996-0.667-1.558 0.031 0.013 0.065 0.027 0.101 0.039 0.037 0.013 0.069 0.017 0.077 0.049l0.031 0.144c0.028 0.097 0.057 0.188 0.092 0.281 0.077 0.205 0.171 0.402 0.279 0.59 0.235 0.424 0.518 0.82 0.82 1.199 0.577 0.735 1.226 1.398 1.859 2.079 0.155 0.169 0.295 0.347 0.439 0.527 0.161 0.2 0.325 0.402 0.49 0.601 0.13 0.151 0.251 0.305 0.381 0.456l0.101 0.12c0.017 0.019 0.04 0.028 0.065 0.039 0.647 0.321 1.299 0.643 1.951 0.958 0.465 0.224 0.931 0.45 1.402 0.668 0.253 0.117 0.504 0.235 0.762 0.342 0.031 0.015 0.071 0.031 0.105 0.042 0.017 0.011 0.031 0.017 0.05 0.025l0.017 0.052c0.029 0.077 0.055 0.155 0.082 0.233 0.052 0.151 0.105 0.299 0.158 0.445 0.353 0.977 0.744 1.943 1.227 2.866 0.371 0.703 0.766 1.393 1.167 2.077 0.428 0.728 0.869 1.45 1.312 2.169 0.356 0.573 0.713 1.148 1.079 1.718 0.156 0.243 0.31 0.492 0.471 0.737l0.067 0.101 0.83-1.222 0.205-0.303c0.009-0.006 0.088-0.109 0.081-0.117l-0.167-0.257c-0.312-0.483-0.625-0.962-0.933-1.446l-0.887-1.374-0.112-0.178 0.703 0.856 1.194 1.446c0.13 0.156 0.253 0.31 0.379 0.469 0.235-0.431 0.47-0.858 0.709-1.286 0.092-0.176 0.188-0.353 0.285-0.527M13.139 1.2c0.331-0.263 0.603-0.603 0.811-0.971l1.262 0.796 0.192 0.12c-0.263 0.321-0.531 0.647-0.83 0.935-0.037 0.036-0.079 0.074-0.114 0.111-0.022 0.027-0.05 0.055-0.075 0.081l-0.036 0.04c-0.025-0.007-0.048-0.017-0.072-0.021-0.156-0.044-0.31-0.086-0.467-0.119-0.313-0.071-0.631-0.125-0.949-0.163-0.205-0.022-0.412-0.043-0.619-0.062 0.295-0.251 0.597-0.5 0.897-0.747m-1.878 1.467c0.248-0.103 0.516-0.161 0.782-0.205 0.525-0.088 1.065-0.101 1.594-0.043 0.379 0.041 0.751 0.116 1.115 0.225l-0.151 0.123-0.241-0.065c-0.151-0.031-0.301-0.064-0.452-0.088-0.263-0.04-0.532-0.064-0.802-0.069-0.494-0.009-0.992 0.045-1.468 0.17-0.322 0.084-0.647 0.201-0.942 0.356-0.306 0.165-0.594 0.371-0.835 0.623-0.144 0.147-0.275 0.31-0.385 0.487-0.061 0.096-0.112 0.193-0.16 0.295-0.026 0.05-0.046 0.103-0.066 0.154l-0.031 0.08c-0.004 0.016-0.009 0.028-0.012 0.041L9.134 4.739l-0.088-0.012c0.251-0.77 0.817-1.377 1.519-1.766 0.222-0.122 0.456-0.233 0.696-0.298m-4.209 0.4c0.285-0.408 0.735-0.695 1.22-0.796 0.538-0.108 1.088-0.127 1.633-0.114-0.562 0.14-1.125 0.349-1.594 0.698-0.364 0.08-0.711 0.257-1 0.492-0.096 0.076-0.182 0.161-0.264 0.252-0.037 0.04-0.071 0.08-0.104 0.125-0.015 0.016-0.029 0.032-0.039 0.052h-0.09c0.025-0.145 0.059-0.289 0.105-0.428 0.031-0.096 0.069-0.193 0.127-0.279m0.945 0.06c-0.155 0.153-0.289 0.325-0.419 0.502-0.05 0.074-0.105 0.164-0.193 0.205-0.091 0.042-0.208-0.005-0.299-0.033 0.24-0.299 0.558-0.529 0.911-0.674M2.62 6.201c0.086-0.171 0.195-0.337 0.294-0.498 0.017-0.029 0.057-0.049 0.08-0.067 0.052-0.036 0.103-0.074 0.153-0.114 0.331-0.241 0.665-0.478 1.005-0.703 0.178-0.115 0.353-0.228 0.538-0.328 0.195-0.108 0.395-0.193 0.605-0.262 0.372-0.12 0.757-0.202 1.144-0.261 0.186-0.027 0.387-0.061 0.569-0.016-0.353 0.201-0.705 0.402-1.061 0.598-0.366 0.205-0.738 0.393-1.108 0.591-0.356 0.193-0.707 0.402-1.051 0.618-0.36 0.221-0.718 0.449-1.073 0.673-0.086 0.055-0.171 0.112-0.257 0.166 0.048-0.134 0.096-0.269 0.162-0.397m1.081 3.273c-0.031 0.06-0.144 0.045-0.201 0.045-0.101 0-0.199 0-0.299 0.006-0.276 0.016-0.546 0.064-0.811 0.148-0.509 0.157-0.987 0.402-1.462 0.647-0.107 0.059-0.217 0.145-0.339 0.174-0.065 0.016-0.14-0.009-0.178-0.068-0.037-0.065-0.057-0.14-0.068-0.212-0.029-0.129-0.037-0.262-0.035-0.394 0-0.353 0.081-0.707 0.23-1.028 0.103-0.225 0.237-0.429 0.397-0.615 0.161-0.187 0.349-0.376 0.577-0.482 0.38-0.174 0.83-0.228 1.247-0.252 0.077-0.005 0.155-0.007 0.233-0.007 0.107 0 0.232-0.017 0.333 0.02 0.079 0.029 0.13 0.112 0.16 0.186 0.048 0.112 0.079 0.241 0.107 0.359 0.065 0.278 0.132 0.562 0.156 0.848 0.011 0.127 0.017 0.256 0.004 0.384-0.01 0.078-0.015 0.167-0.054 0.239m3.03-2.113c-0.208 0.132-0.432 0.233-0.66 0.319-0.23 0.082-0.467 0.154-0.706 0.194-0.104 0.014-0.209 0.027-0.314 0.022-0.108-0.003-0.207-0.039-0.314-0.071-0.209-0.067-0.421-0.139-0.61-0.25-0.069-0.042-0.145-0.09-0.187-0.161-0.031-0.056-0.031-0.124-0.024-0.186 0.013-0.247 0.101-0.491 0.217-0.707 0.2-0.367 0.516-0.655 0.9-0.83 0.941-0.424 1.997-0.031 2.796 0.525l0.086 0.065c-0.165 0.177-0.333 0.344-0.507 0.511-0.213 0.202-0.433 0.408-0.679 0.569M9.048 5.295c-0.509-0.217-0.992-0.491-1.452-0.79 0.481 0.201 1 0.321 1.514 0.396 0.276 0.04 0.558 0.077 0.837 0.086 0.301 0.009 0.604-0.022 0.899-0.081 0.584-0.11 1.144-0.327 1.677-0.59 0.529-0.262 1.032-0.575 1.514-0.92 0.232-0.166 0.461-0.337 0.678-0.521 0.022-0.017 0.186-0.172 0.197-0.165l0.044 0.033 0.575 0.445c0.351 0.272 0.705 0.546 1.058 0.816-0.97 0.349-1.956 0.674-2.947 0.969-0.556 0.167-1.112 0.322-1.677 0.449-0.441 0.105-0.893 0.202-1.345 0.225-0.543 0.024-1.077-0.145-1.574-0.353m9.478 4.222c0.081 0.022 0.155 0.048 0.23 0.072l0.101 0.035c0.017 0.006 0.033 0.016 0.048 0.021l0.023 0.065c0.048 0.156 0.096 0.31 0.149 0.462-0.161-0.136-0.322-0.272-0.483-0.406l-0.097-0.079c-0.022-0.017-0.048-0.022-0.031-0.049l0.063-0.122m-0.718 1.546l0.037-0.067 0.029-0.049c0.013-0.019 0.009-0.024 0.031-0.013 0.138 0.058 0.276 0.119 0.413 0.182 0.257 0.118 0.509 0.246 0.752 0.39 0.115 0.07 0.232 0.145 0.345 0.219l0.161 0.113 0.079 0.061c0.035 0.029 0.044 0.067 0.061 0.109 0.111 0.302 0.235 0.604 0.362 0.904 0.084 0.202 0.174 0.406 0.266 0.606-0.314-0.397-0.665-0.766-1.025-1.119-0.371-0.371-0.755-0.719-1.155-1.051l-0.346-0.283m4.012 6.876l-0.129 0.097 0.008 0.017 0.068 0.1 0.29 0.45 0.968 1.502c0.333 0.514 0.665 1.031 0.998 1.547l0.331 0.514 0.09 0.143c0.004 0.004 0.031 0.044 0.031 0.048-0.278 0.412-0.56 0.825-0.838 1.236-0.029 0.04-0.055 0.081-0.079 0.119-0.257-0.399-0.513-0.797-0.766-1.196-0.428-0.68-0.851-1.368-1.268-2.052-0.465-0.759-0.916-1.519-1.354-2.293-0.41-0.722-0.803-1.458-1.134-2.224-0.322-0.746-0.603-1.508-0.869-2.271 0.521 0.207 1.05 0.393 1.585 0.558 0.155 0.048 0.31 0.096 0.467 0.136l0.068 0.019c0.009 0 0.015-0.042 0.019-0.053 0.019-0.069 0.033-0.138 0.048-0.208 0.033-0.134 0.055-0.272 0.08-0.409 0.22 0.458 0.467 0.904 0.75 1.324 0.23 0.336 0.477 0.665 0.735 0.986 0.558 0.703 1.15 1.374 1.76 2.032 0.496 0.529 1 1.054 1.508 1.569l0.416 0.417c0.006 0.006 0.042 0.033 0.04 0.044l-0.033 0.057-0.159 0.294-0.63 1.144c-0.193-0.235-0.387-0.467-0.579-0.705l-1.205-1.457c-0.336-0.414-0.682-0.828-1.021-1.243l-0.199-0.241"/></svg>