<svg fill="#8A2BE2" role="img" viewBox="0 0 26 24" xmlns="http://www.w3.org/2000/svg"><title>GetX</title><path d="M11.539 0.081c-0.325 0.072-1 0.312-1.493 0.542-2.334 1.131-3.754 3.791-3.393 6.353a6.204 6.204 0 0 0 1.696 3.501c1.215 1.264 2.659 1.866 4.453 1.878 1.769 0 3.225-0.614 4.452-1.877C20.96 6.615 18.445 0.274 13.102 0.009c-0.53-0.024-1.228 0-1.563 0.072zM14.907 2.489c0.975 0.361 2.118 1.48 2.345 2.311 0.229 0.854 0.108 1.96-0.312 2.743-0.926 1.696-3.033 2.936-4.296 2.527-0.577-0.193-1.346-1.071-1.769-1.998C9.963 6.037 9.661 4.281 10.082 3.462c0.638-1.239 2.924-1.696 4.826-0.974ZM4.499 11.849c-3.057 0.987-4.861 3.875-4.332 6.98 0.517 3.08 3.418 5.379 6.498 5.137 2.19-0.156 4.055-1.336 5.042-3.188 0.542-1.034 0.733-1.805 0.733-3.032 0-2.203-1.046-4.092-2.948-5.271-1.336-0.842-3.501-1.107-4.993-0.625Zm2.624 1.938c2.948 0.481 4.547 2.948 3.392 5.258-0.47 0.926-1.456 1.866-2.466 2.347-0.686 0.312-0.903 0.361-1.54 0.312-1.107-0.072-1.601-0.517-2.203-2.021-0.722-1.769-1.023-3.886-0.661-4.572 0.445-0.83 1.203-1.252 2.599-1.433 0.072 0 0.457 0.048 0.879 0.109z m10.6-1.877c-3.597 1.263-5.21 5.258-3.525 8.699 0.469 0.963 1.576 2.094 2.563 2.612 2.538 1.336 5.282 0.938 7.303-1.072 3.285-3.248 2.046-8.7-2.346-10.239-1.119-0.396-2.876-0.396-3.995 0z m3.683 2.13c1.275 0.409 2.551 1.599 2.839 2.671 0.193 0.71 0.084 1.733-0.24 2.406-0.59 1.216-2.057 2.31-3.502 2.599-1.95 0.386-2.948-0.95-3.393-4.513-0.266-2.153 0.323-3.14 2.058-3.403 0.722-0.109 1.346-0.05 2.238 0.24z"/></svg>