<svg fill="#5C5543" role="img" viewBox="0 0 28 24" xmlns="http://www.w3.org/2000/svg"><title>GIMP</title><path d="M23.086 0.002c-0.123-0.019-0.264 0.124-0.375 0.459-0.182 0.544-1.242 3.708-6.372 5.009 0.69 0.593 1.13 1.438 1.13 2.383 0 1.791-1.556 3.242-3.474 3.242-1.916 0-3.47-1.452-3.47-3.242 0-0.698 0.241-1.341 0.642-1.871-3.629-0.373-5.198-3.616-5.198-3.615l-0.111 4.819c-0.029 0.653-0.01 1.286-0.313 1.894a3.861 2.738 54.527 0 0-0.058-0.083 3.861 2.738 54.527 0 0-3.298-1.915 3.861 2.738 54.527 0 0-1.173 0.387 3.861 2.738 54.527 0 0 0.034 4.741 3.861 2.738 54.527 0 0 3.81 1.841c3.47 2.57 9.82 4.802 14.16 2.182l-2.344-1.886c-1.232 0.399-3.015 0.394-5.091-0.342 3.357 0.674 5.175-0.061 6.175-0.835-0.264-0.343-0.822-0.609-0.822-0.609s0.652 0.124 1.077 0.574c0.17 0.179 0.229 0.448 0.252 0.756 0.64 0.345 1.37 0.759 2.171 1.229 2.385-2.385 3.766-6.869 2.918-14.607-0.041-0.311-0.147-0.492-0.27-0.511zM8.044 6.323c1.217-0.001 2.203 0.92 2.203 2.057 0 1.135-0.988 2.056-2.203 2.055-1.216 0-2.2-0.92-2.2-2.055 0-1.136 0.984-2.057 2.2-2.058z m6.687 0.558a1.534 1.534 0 1 0-0.003 3.068 1.534 1.534 0 0 0 0.003-3.068z m-12.668 0.74a1.116 1.096 0 0 1 0.002 0 1.116 1.096 0 0 1 0.024 0 1.116 1.096 0 0 1 1.118 1.098 1.116 1.096 0 0 1-1.118 1.097 1.116 1.096 0 0 1-1.113-1.097 1.116 1.096 0 0 1 1.088-1.1z m6.436 0.142a0.972 0.972 0 1 0 0.023 1.945 0.972 0.972 0 0 0-0.023-1.945z m9.562 5.747c-0.05 0.061-0.119 0.115-0.18 0.17l0.243 0.133c-0.02-0.116-0.038-0.243-0.063-0.303z m-0.636 0.116l-0.849 0.418 0.069 0.057 0.23 0.182 2.308 1.86 0.018 0.013a94.655 94.655 0 0 0 2.259 1.752 0.629 0.629 0 0 0-0.009 0.147l0.301-0.046 0.119 0.176 2.683 1.704c-0.139 0.475-0.075 1.103 0.24 1.687 0.915 1.696 3.099 2.424 3.099 2.424-0.893-2.278-0.242-4.132-2.003-4.785-0.28-0.104-0.524-0.108-0.728-0.038l-2.37-2.194-0.202-0.06-0.029-0.303a0.971 0.971 0 0 0-0.138 0.068c-0.354-0.301-0.795-0.622-1.262-0.944-1.579-0.967-2.613-1.505-3.738-2.118z"/></svg>