<svg fill="#008ECF" role="img" viewBox="0 0 18 24" xmlns="http://www.w3.org/2000/svg"><title>Gin</title><path d="M8.836 23.977c-2.059-0.105-3.37-0.359-4.468-0.868-0.131-0.061-0.115-0.027-0.278-0.596-0.276-0.963-0.553-2.128-0.785-3.29-0.135-0.678-0.153-0.761-0.471-2.118-0.51-2.176-0.64-2.831-0.804-4.056-0.106-0.796 0.122-1.316 0.275-0.625 0.603 2.715 1.124 4.697 1.675 6.368 0.19 0.576 0.175 0.552 0.335 0.537 0.11-0.011 0.11-0.01 0.028 0.181-0.112 0.26-0.057 0.399 0.291 0.741 0.261 0.256 0.264 0.271 0.041 0.239-0.174-0.025-0.166-0.043-0.103 0.214 0.029 0.12 0.081 0.345 0.115 0.499 0.264 1.231 0.609 1.834 1.112 1.941 1.468 0.314 3.601 0.45 5.479 0.351 2.182-0.116 2.704-0.199 3.381-0.537 0.458-0.229 0.853-0.657 0.611-0.663-0.178-0.005-0.195-0.046-0.043-0.109 0.329-0.137 0.468-0.282 0.441-0.461-0.008-0.053 0.002-0.109 0.042-0.232 0.123-0.376 0.144-0.682 0.112-1.664-0.015-0.454-0.014-0.487 0.021-0.658 0.091-0.449 0.132-0.789 0.199-1.656 0.047-0.613 0.063-0.766 0.112-1.119 0.049-0.353 0.065-0.554 0.093-1.186 0.055-1.238 0.116-1.732 0.229-1.845 0.188-0.189 0.187-0.289-0.006-0.563-0.221-0.313-0.22-0.476 0.003-0.711 0.108-0.114 0.113-0.242 0.039-1.065-0.019-0.211-0.039-0.528-0.046-0.705-0.007-0.217-0.017-0.32-0.029-0.32-0.041 0-0.306 0.226-0.89 0.76-0.663 0.607-0.837 0.75-1.209 0.998-0.767 0.512-1.504 0.763-2.778 0.947-1.286 0.185-2.801 0.141-3.792-0.11-0.668-0.169-1.055-0.351-1.809-0.851-0.706-0.469-0.667-1.228 0.079-1.562 0.336-0.151 0.076-0.315-0.599-0.378-0.507-0.047-0.249-0.146 0.4-0.153 0.789-0.008 1.349-0.288 2.074-1.036 0.303-0.313 0.374-0.375 0.778-0.677 0.643-0.481 0.87-0.69 0.972-0.895 0.078-0.155 0.073-0.308-0.01-0.34-0.027-0.01-0.04-0.029-0.04-0.056 0-0.052 0.157-0.044-2.561-0.122-2.868-0.082-5.04-0.212-6.148-0.367-0.216-0.03-0.113 0.162 0.151 0.28 0.084 0.038 0.091 0.071 0.02 0.086-0.195 0.038-0.184 0.01-0.129 0.328 0.217 1.235 0.555 1.542 1.215 1.105 0.131-0.087 0.176-0.103 0.497-0.176 0.7-0.159 1.456-0.246 2.583-0.299 1.163-0.054 1.289-0.059 1.304-0.045 0.03 0.03-0.56 0.11-1.594 0.215-1.07 0.109-1.429 0.158-1.926 0.264-0.134 0.029-0.28 0.052-0.324 0.052-0.289 0.001-0.711 0.293-0.865 0.599-0.193 0.385-0.015 0.615 0.511 0.663 0.176 0.016 0.606 0.092 0.682 0.121 0.066 0.025 0.052 0.066-0.033 0.104-0.093 0.041-0.093 0.039-0.009 0.093 0.169 0.107 0.097 0.1-0.37-0.036-0.778-0.225-0.937-0.238-0.723-0.058 0.102 0.085 0.097 0.11-0.013 0.076-0.171-0.052-0.168-0.086-0.064 0.605 0.133 0.886 0.031 0.842-0.154-0.067-0.255-1.25-0.669-2.314-0.484-1.246 0.04 0.232 0.085 0.415 0.22 0.888 0.181 0.638 0.287 1.249 0.223 1.288-0.03 0.018-0.19-0.484-0.302-0.947-0.124-0.51-0.177-0.8-0.433-2.382-0.13-0.802-0.242-1.346-0.378-1.826-0.077-0.274-0.05-0.403 0.128-0.601 0.364-0.405 1.275-0.653 1.274-0.347 0 0.147-0.187 0.246-0.643 0.34-0.52 0.108-0.563 0.175-0.29 0.458 0.249 0.257 1.814 0.481 3.725 0.533 0.366 0.01 0.912 0.026 1.213 0.035 2.134 0.067 4.388 0.066 4.518-0.002 0.015-0.008 0.084-0.105 0.153-0.216 0.282-0.454 0.552-0.795 0.944-1.195 0.278-0.284 0.286-0.294 0.242-0.306-0.132-0.033-0.143-0.562-0.013-0.628 0.238-0.121 0.354-0.292 0.729-1.072 0.198-0.413 0.309-0.596 0.477-0.783 0.146-0.162 0.257-0.385 0.421-0.845 0.161-0.452 0.264-0.663 0.38-0.782 0.223-0.229 0.232-0.103 0.037 0.49-0.162 0.49-0.711 1.686-1.127 2.454-0.355 0.656-0.307 0.845 0.188 0.743 0.088-0.018 0.171-0.024 0.246-0.017 0.131 0.012 0.272-0.017 0.621-0.128 0.289-0.092 0.326-0.077 0.201 0.081-0.089 0.113-0.089 0.114 0.053 0.18 0.141 0.065 0.13 0.078-0.061 0.079-0.265 0-0.45 0.106-0.476 0.273-0.012 0.074-0.012 0.074-0.123-0.048-0.306-0.335-0.645-0.281-0.851 0.136-0.072 0.146-0.186 0.253-0.268 0.253-0.051 0-0.039-0.034 0.082-0.232 0.293-0.478 0.298-0.562 0.028-0.424-0.308 0.156-0.784 0.826-0.803 1.131-0.017 0.266 0.296 0.408 0.532 0.243 0.902-0.627 1.348-0.875 0.98-0.544-0.076 0.069-0.159 0.148-0.183 0.176-0.174 0.203-0.311 0.293-0.566 0.376-0.849 0.275-0.849 0.656 0 0.636 0.227-0.005 0.422-0.002 0.477 0.007 0.412 0.076 2.233-0.238 3.162-0.544 0.588-0.194 0.684-0.429 0.323-0.786-0.465-0.459-0.959-0.368-0.647 0.119 0.194 0.302-0.388 0.623-1.37 0.756-0.443 0.06-0.611 0.09-0.774 0.136-0.111 0.032-0.438 0.072-0.704 0.087-0.352 0.019-0.464-0.027-0.192-0.08 0.416-0.08 0.582-0.105 1.078-0.16 1.33-0.147 1.759-0.355 1.763-0.855 0.002-0.278-0.223-0.32-0.851-0.16-0.201 0.051-0.209 0.032-0.025-0.056 0.282-0.136 0.26-0.252-0.072-0.374-0.111-0.041-0.111-0.041 0.052-0.054 0.742-0.059 1.105-0.355 0.759-0.618-0.068-0.052-0.066-0.069 0.01-0.084 0.029-0.006 0.086-0.034 0.127-0.063 0.163-0.117 0.3 0.246 0.156 0.414-0.198 0.231-0.036 0.531 0.357 0.66 0.403 0.132 0.589-0.051 0.422-0.415-0.03-0.066-0.089-0.258-0.131-0.427-0.24-0.963-0.759-2.041-0.985-2.041-0.022 0-0.036-0.02-0.047-0.064-0.215-0.834-0.288-0.989-0.535-1.133-0.419-0.244-0.551-0.669-0.163-0.528 0.887 0.324 1.822 1.449 2.532 3.05 0.565 1.274 0.693 3.168 0.324 4.804-0.203 0.899-0.363 2.666-0.546 6.03-0.075 1.375-0.149 2.388-0.239 3.253-0.022 0.216-0.045 0.47-0.051 0.563-0.044 0.708-0.203 2.027-0.36 2.98-0.033 0.2-0.047 0.37-0.059 0.692-0.042 1.22-0.431 1.823-1.258 1.947a2.719 2.719 0 0 0-0.325 0.075c-1.08 0.332-2.166 0.471-4.343 0.557-0.728 0.029-0.709 0.029-1.306-0.002z m0.261-0.236c0.047-0.047-0.241-0.09-0.884-0.129-0.164-0.01-0.353-0.026-0.419-0.035-0.418-0.058-1.17-0.103-1.169-0.07 0 0.128 2.356 0.351 2.473 0.234z m-4.095-0.863c0-0.041-0.336-1.37-0.404-1.598-0.125-0.42-0.377-1.016-0.423-1.003-0.07 0.019 0.099 0.904 0.275 1.447 0.174 0.536 0.552 1.325 0.552 1.154z m-0.524-0.13c0.043-0.275-0.042-0.673-0.335-1.571-0.176-0.538-0.234-0.741-0.276-0.964-0.044-0.236-0.04-0.225-0.08-0.219-0.166 0.025-0.151 0.285 0.054 0.975 0.148 0.5 0.165 0.567 0.188 0.751 0.064 0.52 0.406 1.302 0.449 1.028z m-0.791-3.282c0-0.344-0.049-0.623-0.204-1.183-0.174-0.625-0.243-0.896-0.283-1.105-0.074-0.402-0.229-0.621-0.18-0.257 0.026 0.195 0.215 1.179 0.266 1.388 0.023 0.094 0.062 0.327 0.086 0.517 0.066 0.528 0.102 0.673 0.197 0.805 0.098 0.135 0.118 0.105 0.118-0.165z m5.783-8.22c0.047-0.052 0.038-0.166-0.035-0.459-0.1-0.4-0.1-0.586 0.001-0.74 0.171-0.261-0.816-0.377-1.398-0.165-0.53 0.193-0.648 0.517-0.319 0.877 0.161 0.177-0.075 0.272-0.297 0.12-0.304-0.207-0.277-0.861 0.036-0.861 0.036 0 0.106-0.073 0.106-0.111 0-0.056-0.067-0.103-0.211-0.148-0.198-0.062-0.197-0.074 0.008-0.108 0.483-0.079 0.939-0.422 1.659-1.247 0.935-1.071 1.308-1.393 0.812-0.7-0.25 0.35-0.46 0.592-0.878 1.016-0.75 0.76-0.843 0.922-0.532 0.922 0.472 0 0.683-0.194 1.114-1.024 0.408-0.785 0.608-0.987 0.897-0.901 0.122 0.036 0.121 0.039-0.219 0.875-0.314 0.774-0.3 0.986 0.054 0.811 0.177-0.087 0.17-0.076 0.241-0.409 0.173-0.821 0.53-1.947 0.617-1.947 0.115 0 0.046 0.505-0.143 1.041-0.284 0.808-0.298 1.069-0.068 1.296 0.25 0.248 0.53 0.202 0.747-0.121 0.079-0.118 0.115-0.102 0.177 0.081 0.046 0.136 0.054 0.141 0.244 0.143 0.262 0.004 0.62-0.091 0.639-0.169 0.006-0.025 0.021-0.04 0.035-0.036 0.141 0.037 0.139-0.106-0.003-0.168-0.092-0.04-0.1-0.065-0.032-0.099 0.15-0.076 0.306 0.038 0.306 0.224 0 0.078 0.019 0.088 0.205 0.11 1.218 0.141 1.95-0.176 2.364-1.024 0.071-0.144 0.205-0.409 0.299-0.587 0.335-0.637 0.473-1.103 0.413-1.393-0.035-0.17-0.017-0.164-0.38-0.12-1.858 0.226-3.529 0.379-4.933 0.454-0.268 0.014-0.555 0.03-0.639 0.034-0.152 0.009-0.152 0.009-0.452 0.304-0.485 0.475-0.904 0.861-1.701 1.561-0.225 0.198-0.433 0.385-0.461 0.415-0.08 0.087-0.344 0.295-0.734 0.581-0.815 0.596-1.238 1.054-1.097 1.189 0.161 0.154 1.371 0.375 2.378 0.434 0.169 0.01 0.404 0.029 0.521 0.042 0.31 0.036 0.319 0.037 0.479 0.04 0.13 0.002 0.151-0.002 0.18-0.033z m4.933-2.688c-0.635-0.103-1.247-0.462-1.883-1.103-0.419-0.423-0.37-0.456 0.226-0.153 0.437 0.222 0.594 0.278 0.778 0.274 0.07-0.002 0.163-0.004 0.205-0.005 0.19-0.004 0.925 0.402 0.855 0.472-0.024 0.024-0.159-0.019-0.42-0.134-0.835-0.368-1.369-0.371-0.803-0.004 0.595 0.386 1.249 0.571 1.64 0.463 0.146-0.04 0.186-0.039 0.193 0.004 0.024 0.169-0.349 0.257-0.791 0.186z m-3.517 2.69c0.075-0.019 0.362-0.073 0.64-0.121 1.31-0.225 1.609-0.339 2.422-0.924 0.552-0.397 0.619-0.789 0.126-0.731-0.552 0.064-0.613 0.113-0.775 0.623-0.189 0.593-0.272 0.665-0.775 0.666-0.527 0.001-0.74-0.181-0.889-0.76-0.053-0.204-0.067-0.222-0.216-0.271-0.556-0.183-0.832 0.186-0.833 1.112 0 0.159-0.01 0.167-0.192 0.172-0.298 0.008-0.33-0.091-0.154-0.475 0.233-0.509 0.242-0.609 0.061-0.685-0.392-0.166-0.783 0.255-0.709 0.762 0.066 0.455 0.393 0.695 0.802 0.589 0.116-0.03 0.116-0.03 0.218 0.023 0.123 0.063 0.107 0.062 0.274 0.02z m1.822-0.777c0.233-0.021 0.388-0.185 0.388-0.41 0-0.326-0.282-0.468-0.629-0.317-0.102 0.044-0.122 0.048-0.207 0.034-0.357-0.058-0.502 0.239-0.254 0.52 0.159 0.181 0.28 0.211 0.702 0.173z m-3.21-0.95c0.373-0.19 0.833-1.164 0.684-1.45-0.044-0.084-0.06-0.077-0.158 0.074-0.048 0.073-0.168 0.24-0.266 0.371-0.458 0.608-0.578 0.867-0.456 0.989 0.062 0.062 0.1 0.065 0.196 0.016zM7.302 21.261c-0.102-0.013-0.455-0.077-0.786-0.142-0.643-0.127-0.933-0.171-1.123-0.172-0.176 0-0.216-0.034-0.167-0.142 0.054-0.117 0.217-0.105 0.757 0.058 0.356 0.107 0.602 0.167 0.744 0.18 0.061 0.006 0.149 0.021 0.196 0.034 0.135 0.037 1.206 0.178 1.352 0.178 0.004 0 0.003 0.008-0.002 0.017-0.016 0.026-0.751 0.018-0.971-0.011z m1.759-0.748c-0.223-0.109-0.292-0.254-0.352-0.735-0.062-0.504-0.159-0.66-0.453-0.727a4.091 4.091 0 0 1-0.115-0.027c-0.04-0.011-0.072-0.173-0.056-0.294 0.034-0.272 0.205-0.492 0.717-0.92 0.113-0.094 0.235-0.203 0.271-0.241 0.36-0.375 1.531 0.105 1.99 0.816 0.326 0.505 0.322 0.619-0.028 0.849-0.431 0.284-0.493 0.366-0.485 0.638 0.003 0.089 0.006 0.204 0.008 0.256 0.009 0.324-0.177 0.407-0.645 0.29-0.396-0.099-0.523-0.084-0.683 0.084-0.06 0.063-0.063 0.063-0.169 0.011z m1.138-0.225c0.31-0.159 0.375-0.551 0.147-0.892-0.244-0.365-0.56-0.239-0.548 0.218 0.014 0.564 0.154 0.799 0.401 0.674z m-0.866-0.083c0.245-0.111 0.326-0.537 0.167-0.875-0.156-0.33-0.446-0.136-0.502 0.335a3.721 3.721 0 0 1-0.033 0.222c-0.067 0.345 0.062 0.457 0.368 0.318z m-0.54-1.136c0.271-0.182 0.542-0.19 1.375-0.043 0.477 0.085 0.863 0.029 0.862-0.126-0.002-0.573-0.348-0.742-1.229-0.603-0.554 0.088-0.759 0.088-1.008 0.002-0.275-0.095-0.602 0.165-0.554 0.44 0.045 0.257 0.372 0.451 0.554 0.33z m-2.023-0.889c-1.242-0.261-2.03-1.748-1.379-2.602 0.2-0.262 0.262-0.17 0.123 0.179-0.581 1.458 1.23 2.822 2.635 1.986 1.027-0.612 1.014-2.107-0.022-2.619a3.106 3.106 0 0 1-0.196-0.112c-0.402-0.247-0.853-0.231-1.717 0.062-0.504 0.171-0.489 0.171-0.329-0.001 0.605-0.653 1.898-0.633 2.686 0.041 1.432 1.226 0.114 3.47-1.801 3.066z m5.037-0.112c-1.959-0.3-2.62-2.187-1.153-3.292 1.311-0.987 3.322-0.009 3.258 1.584-0.04 0.981-1.121 1.859-2.105 1.708z m0.402-0.32c1.503-0.02 2.006-1.931 0.735-2.794-0.798-0.542-2.093-0.295-2.555 0.488-0.542 0.917 0.047 2.147 1.111 2.318 0.028 0.004 0.147 0.004 0.265-0.001 0.117-0.005 0.317-0.01 0.444-0.012z m-1.504-0.836c-0.44-0.124-0.509-0.654-0.138-1.057 0.336-0.363 0.817-0.206 1.018 0.333 0.089 0.239 0.058 0.275-0.223 0.258-0.179-0.011-0.264 0.003-0.263 0.041 0 0.007 0.06 0.057 0.134 0.111 0.22 0.162 0.225 0.215 0.027 0.283-0.144 0.05-0.432 0.066-0.555 0.031z m-4.654 0.107c-0.466-0.044-0.631-0.297-0.442-0.679 0.224-0.453 0.732-0.586 1.015-0.265 0.428 0.486 0.11 1.009-0.573 0.944zM2.261 4.894c-0.006-0.01 0.009-0.046 0.033-0.081 0.024-0.035 0.064-0.091 0.088-0.126 0.024-0.035 0.048-0.094 0.054-0.132 0.006-0.043 0.02-0.072 0.037-0.077 0.071-0.021 0.689-0.149 0.95-0.196 0.669-0.12 0.851-0.132 2.365-0.156 2.81-0.044 3.885-0.08 4.924-0.162 0.358-0.028 0.339-0.032 0.424 0.084 0.133 0.183 0.016 0.311-0.338 0.369-0.425 0.07-2.138 0.026-2.594-0.066-0.484-0.098-0.636-0.093-0.775 0.026-0.081 0.069-0.063 0.07-0.278-0.002-0.27-0.09-0.507-0.119-0.876-0.106-0.3 0.01-0.417 0.024-1.136 0.129-0.193 0.028-0.462 0.06-0.598 0.07-0.472 0.036-1.013 0.136-1.756 0.325-0.498 0.127-0.507 0.129-0.524 0.101Zm11.997-1.208c0-0.085 0.11-0.209 0.595-0.668 0.269-0.255 0.464-0.481 0.464-0.54 0-0.056 0.048-0.06 0.066-0.006 0.104 0.3-0.107 0.597-0.698 0.983a31.133 31.133 0 0 0-0.321 0.212c-0.085 0.058-0.106 0.062-0.106 0.019z"/></svg>