<svg fill="#BBDDE5" role="img" viewBox="0 0 27 24" xmlns="http://www.w3.org/2000/svg"><title>GitBook</title><path d="M14.065 0c-0.71 0-1.357 0.374-2.65 1.119L4.337 5.198A7.961 7.961 0 0 0 0.292 12.07v0.26a7.961 7.961 0 0 0 4.036 6.866L8.756 21.752c2.591 1.497 3.886 2.248 5.31 2.248 1.422 0.001 2.719-0.746 5.31-2.243l4.679-2.7c1.295-0.748 1.942-1.123 2.297-1.738 0.356-0.616 0.357-1.365 0.356-2.862v-2.895a1.145 1.145 0 0 0-1.715-0.993l-9.607 5.529c-0.646 0.371-0.969 0.558-1.321 0.558-0.356 0-0.678-0.185-1.326-0.557l-6.498-3.734c-0.327-0.188-0.491-0.282-0.622-0.298a0.664 0.664 0 0 0-0.698 0.405c-0.05 0.122-0.05 0.31-0.047 0.688 0.002 0.277 0 0.416 0.028 0.543 0.058 0.285 0.208 0.543 0.426 0.734 0.098 0.085 0.218 0.154 0.457 0.293l6.951 4.018c0.648 0.374 0.973 0.561 1.329 0.561 0.357 0 0.679-0.187 1.327-0.56l8.519-4.919c0.222-0.128 0.332-0.189 0.415-0.143 0.083 0.048 0.083 0.176 0.083 0.431v1.313c0 0.374 0.001 0.561-0.088 0.715-0.088 0.154-0.25 0.247-0.575 0.433l-7.024 4.056c-1.297 0.748-1.945 1.123-2.656 1.123-0.711 0-1.36-0.374-2.655-1.125l-6.571-3.799-0.047-0.028a4.519 4.519 0 0 1-2.236-3.874V11.67c0-0.882 0.47-1.696 1.233-2.139a2.178 2.178 0 0 1 2.181-0.001l5.444 3.145c1.292 0.747 1.939 1.122 2.65 1.123 0.71 0 1.357-0.374 2.652-1.119l8.235-4.74a1.201 1.201 0 0 0 0-2.081L16.714 1.115c-1.293-0.743-1.939-1.115-2.648-1.115Z"/></svg>