<svg fill="#2E69AE" role="img" viewBox="0 0 44 24" xmlns="http://www.w3.org/2000/svg"><title>Gitconnected</title><path d="M12.396 0C5.341 0 0.116 5.444 0.116 12.064c0 6.578 5.183 11.936 12.197 11.936 7.038 0 12.233-5.354 12.319-12l0.003-0.146c0.055-3.994 2.743-7.235 6.925-7.234 4.136 0 7.058 3.352 7.057 7.444 0 4.052-2.705 7.362-6.972 7.362-2.433 0-4.432-1.198-5.666-3.02a13.782 13.782 0 0 1-2.571 4.614c2.121 1.847 4.942 2.98 8.152 2.98 7.1 0 12.324-5.446 12.324-12.022 0-6.62-5.181-11.978-12.237-11.978-6.981 0-12.168 5.329-12.279 11.854-0.027 0.073 0 0.184 0 0.21 0 4.052-2.703 7.362-6.972 7.362-4.092 0-7.012-3.356-7.012-7.448 0-4.05 2.703-7.359 6.929-7.358 2.247 0 4.111 1.01 5.367 2.571l2.525-4.466A12.31 12.31 0 0 0 12.396 0Z"/></svg>