<svg fill="#C71D23" role="img" viewBox="0 0 25 24" xmlns="http://www.w3.org/2000/svg"><title>Gitee</title><path d="M12.484 0A12 12 0 0 0 0.5 12a12 12 0 0 0 12 12 12 12 0 0 0 12-12A12 12 0 0 0 12.5 0a12 12 0 0 0-0.016 0z m6.09 5.333c0.328 0 0.593 0.266 0.592 0.593v1.482a0.594 0.594 0 0 1-0.593 0.592H10.277c-0.982 0-1.778 0.796-1.778 1.778v5.63c0 0.327 0.266 0.592 0.593 0.592h5.63c0.982 0 1.778-0.796 1.778-1.778v-0.296a0.593 0.593 0 0 0-0.592-0.593h-4.15a0.592 0.592 0 0 1-0.592-0.592v-1.482a0.593 0.593 0 0 1 0.593-0.592h6.815c0.327 0 0.593 0.265 0.593 0.592v3.408a4 4 0 0 1-4 4H6.426a0.593 0.593 0 0 1-0.593-0.593V9.778a4.444 4.444 0 0 1 4.445-4.444h8.296Z"/></svg>