<svg fill="#222222" role="img" viewBox="0 0 128 24" xmlns="http://www.w3.org/2000/svg"><title>GitHub Pages</title><path d="M75.092 17.981h-1.573V0.621h5.302c4.329 0 5.811 2.497 5.811 5.206s-1.487 5.206-5.811 5.206h-3.724v6.948z m0-8.403h3.931a3.41 3.41 0 0 0 3.893-3.745 3.41 3.41 0 0 0-3.888-3.751h-3.936z m15.304-1.966a10.162 10.162 0 0 0-3.469 0.584v-1.391a9.328 9.328 0 0 1 3.469-0.627c3.474 0 4.377 1.578 4.377 3.888v7.915h-0.903l-0.351-0.924a6.072 6.072 0 0 1-3.49 1.158 3.522 3.522 0 0 1-4.053-3.729c0-1.965 1.089-3.426 4.122-3.612l3.055-0.186v-0.648c0-1.689-0.6-2.428-2.757-2.428z m-0.414 4.515c-1.647 0.159-2.364 1.02-2.364 2.364 0 1.041 0.255 2.29 2.454 2.29a5.61 5.61 0 0 0 3.081-0.924v-4.027z m9.88 2.619a1.339 1.339 0 0 0-0.441 0.85c0 0.584 0.282 0.839 0.882 0.903l3.931 0.468c2.178 0.234 3.177 1.089 3.177 3.102 0 2.826-2.826 3.931-6.019 3.931-3.24 0-5.185-0.946-5.185-3.49a3.235 3.235 0 0 1 2.386-3.055v-0.026a1.705 1.705 0 0 1-0.744-1.525 2.082 2.082 0 0 1 0.882-1.577 3.963 3.963 0 0 1-1.854-3.793c0-2.385 1.02-4.356 4.515-4.356a7.224 7.224 0 0 1 1.854 0.234h3.931v0.876l-1.939 0.558a4.823 4.823 0 0 1 0.669 2.682c0 2.385-1.02 4.356-4.515 4.356a7.421 7.421 0 0 1-1.53-0.143z m0.675 3.124c-1.53 0.345-2.826 1.062-2.826 2.55 0 1.711 1.296 2.194 3.681 2.194 2.311 0 4.489-0.579 4.489-2.55 0-1.174-0.558-1.641-1.966-1.806z m3.862-7.336c0-1.53-0.297-2.943-3.007-2.943-2.709 0-3.012 1.413-3.012 2.943 0 1.53 0.303 2.938 3.012 2.937 2.709 0 3.007-1.413 3.007-2.943z m8.696-4.356c3.931 0 4.398 2.688 4.398 6.018v0.744h-7.639c0.096 2.013 0.627 3.841 3.241 3.841a8.845 8.845 0 0 0 3.819-0.648v1.386a9.376 9.376 0 0 1-3.819 0.696c-3.91 0-4.861-2.683-4.861-6.019s0.951-6.019 4.861-6.018z m-3.241 5.439h6.019c0-2.056-0.117-4-2.778-4-2.688 0-3.171 1.912-3.241 4z m13.817-0.276c3.288 0.303 4.074 1.413 4.074 3.31 0 1.785-1.131 3.564-4.653 3.564a11.405 11.405 0 0 1-3.448-0.579V16.25a10.221 10.221 0 0 0 3.475 0.531c2.406 0 3.054-1.02 3.054-2.109 0-1.062-0.324-1.806-2.614-1.987-3.357-0.303-4.053-1.487-4.053-3.081 0-1.647 1.062-3.426 4.33-3.426a8.643 8.643 0 0 1 3.33 0.584v1.381a9.557 9.557 0 0 0-3.352-0.531c-2.295 0-2.778 0.861-2.778 1.997 0 1.009 0.414 1.541 2.635 1.732z m-110.423-3.5H7.585a0.266 0.266 0 0 0-0.265 0.265v2.773a0.266 0.266 0 0 0 0.265 0.266h2.21v3.447a6.73 6.73 0 0 1-1.864 0.17c-1.62 0-3.883-0.595-3.884-5.567s2.353-5.631 4.569-5.631a8.977 8.977 0 0 1 3.261 0.5 0.266 0.266 0 0 0 0.319-0.266l0.638-2.677a0.25 0.25 0 0 0-0.107-0.207 9.11 9.11 0 0 0-4.796-0.877C4.132 0.037 0.255 1.641 0.255 9.386s4.446 8.898 8.191 8.898a9.222 9.222 0 0 0 4.983-1.328 0.228 0.228 0 0 0 0.085-0.202v-8.648a0.266 0.266 0 0 0-0.266-0.265z m29.456-6.874a0.266 0.266 0 0 0-0.266-0.266H39.246a0.266 0.266 0 0 0-0.266 0.266v6.167h-4.972V0.967a0.266 0.266 0 0 0-0.266-0.266h-3.187a0.266 0.266 0 0 0-0.266 0.266v16.706a0.266 0.266 0 0 0 0.266 0.266h3.187a0.266 0.266 0 0 0 0.266-0.266v-7.145h4.977l-0.01 7.145a0.266 0.266 0 0 0 0.265 0.266h3.203a0.266 0.266 0 0 0 0.266-0.266z m-23.315 2.188a2.061 2.061 0 1 0-2.056 2.083 2.072 2.072 0 0 0 2.056-2.083z m-0.223 10.986v-7.708a0.266 0.266 0 0 0-0.266-0.266h-3.187a0.303 0.303 0 0 0-0.271 0.298v11.049c0 0.319 0.202 0.42 0.462 0.42h2.869c0.319 0 0.393-0.159 0.393-0.425z m35.931-7.953h-3.171a0.266 0.266 0 0 0-0.266 0.266v8.191a3.575 3.575 0 0 1-1.95 0.585c-1.142 0-1.445-0.515-1.444-1.631v-7.14a0.266 0.266 0 0 0-0.266-0.265h-3.209a0.266 0.266 0 0 0-0.265 0.265v7.682c0 3.325 1.849 4.138 4.398 4.138a7.426 7.426 0 0 0 3.772-1.153 6.768 6.768 0 0 0 0.117 0.68 0.276 0.276 0 0 0 0.233 0.143l2.046-0.01a0.266 0.266 0 0 0 0.265-0.266v-11.219a0.266 0.266 0 0 0-0.265-0.266z m8.829-0.371a5.955 5.955 0 0 0-3.023 0.796V0.967a0.266 0.266 0 0 0-0.266-0.266h-3.197a0.266 0.266 0 0 0-0.266 0.266v16.706a0.266 0.266 0 0 0 0.266 0.266h2.22a0.266 0.266 0 0 0 0.234-0.144 5.169 5.169 0 0 0 0.133-0.764 5.737 5.737 0 0 0 3.787 1.237c2.911 0 4.579-1.477 4.579-6.629s-2.667-5.817-4.467-5.817z m-1.249 9.407a3.803 3.803 0 0 1-1.843-0.531v-5.291a4.213 4.213 0 0 1 1.636-0.531c1.142-0.101 2.242 0.244 2.242 2.964 0 2.869-0.499 3.437-2.035 3.395z m-34.396-9.062h-2.39l-0.011-3.161c0-0.122-0.058-0.181-0.196-0.18h-3.267c-0.127 0-0.191 0.053-0.191 0.175v3.267l-1.753 0.425a0.266 0.266 0 0 0-0.186 0.255v2.056a0.266 0.266 0 0 0 0.265 0.265h1.674v4.94c0 3.676 2.571 4.037 4.313 4.038a7.304 7.304 0 0 0 1.896-0.319 0.244 0.244 0 0 0 0.149-0.234l0.005-2.263a0.266 0.266 0 0 0-0.265-0.265c-0.138 0-0.499 0.053-0.866 0.053-1.174 0-1.572-0.542-1.572-1.254v-4.696h2.395a0.266 0.266 0 0 0 0.266-0.265v-2.571a0.266 0.266 0 0 0-0.266-0.266z"/></svg>