<svg fill="#204ECF" role="img" viewBox="0 0 38 24" xmlns="http://www.w3.org/2000/svg"><title>gitignore.io</title><path d="M23.791 4.446c-1.49 0.887-3.075 1.657-5.822 1.586-3.239 0-5.522 1.727-5.522 4.527 0 1.61 0.63 2.707 2.191 3.546-0.887 0.56-1.375 1.447-1.375 2.359 0 1.307 1.118 2.45 3.821 2.449h1.955c1.235 0 1.794 0.513 1.793 1.237 0 0.817-0.535 1.423-2.863 1.423-2.353 0-2.819-0.49-2.819-1.563H11.888c0 2.45 1.235 3.99 5.987 3.99 4.379 0 6.614-1.563 6.614-4.107 0-2.077-1.84-3.593-4.703-3.593h-2.051c-1.188 0-1.352-0.373-1.351-0.746 0-0.28 0.14-0.56 0.396-0.7 0.442 0.093 0.908 0.14 1.444 0.14 3.192 0 5.242-1.75 5.242-4.154 0-1.612-0.84-2.52-2.4-3.198 1.56 0 2.702-0.14 3.563-0.49z m-5.729 3.99c1.234 0 1.885 0.653 1.885 2.029 0 1.423-0.675 2.17-1.885 2.17-1.142 0-1.887-0.77-1.887-2.123 0-1.283 0.722-2.077 1.887-2.076z m14.21-8.436c-1.285 0-2.196 0.915-2.197 2.086 0 1.198 0.912 2.087 2.197 2.087s2.171-0.891 2.171-2.086c0-1.173-0.887-2.086-2.171-2.085z m2.218 6.518h-7.078v2.53h3.388v7.384h-3.504v2.531H37.666V16.434h-3.176zM6.452 15.008l1.586 1.586-3.853 3.852-0.964-0.965v-1.244l3.231-3.229Zm-4.192-0.341v3.853L0.334 16.593l1.926-1.926Zm3.51-0.341l-2.548 2.55v-3.172l0.963-0.963 1.585 1.587z"/></svg>