<svg fill="#179287" role="img" viewBox="0 0 28 24" xmlns="http://www.w3.org/2000/svg"><title>GitKraken</title><path d="M26.869 5.41a0.548 0.548 0 0 0-1.058 0.196c0 0.061 0.015 0.136 0.029 0.196 2.465 6.546-0.861 13.845-7.405 16.309a12.496 12.496 0 0 1-2.782 0.696v-5.91c0.378-0.076 0.741-0.181 1.103-0.303v4.973c6.242-1.527 10.081-7.815 8.556-14.057a11.633 11.633 0 0 0-5.684-7.437 0.541 0.541 0 0 0-0.741 0.212 0.541 0.541 0 0 0 0.213 0.741c5.093 2.811 6.937 9.235 4.127 14.329a10.467 10.467 0 0 1-5.367 4.7v-4.397a1.688 1.688 0 0 0 1.179-1.603c0-0.604-0.303-1.149-0.831-1.451 0.393-3.793 2.131-2.796 2.131-4.005v-0.711c0-1.814-4.202-7.723-6.168-7.859h-0.362c-1.965 0.136-6.167 6.046-6.167 7.859v0.711c0 1.208 1.723 0.211 2.132 4.005a1.675 1.675 0 0 0-0.832 1.451c0 0.741 0.484 1.376 1.179 1.603v4.397C4.726 17.924 2.066 11.805 4.196 6.394a10.593 10.593 0 0 1 4.701-5.366 0.549 0.549 0 0 0 0.212-0.756 0.558 0.558 0 0 0-0.484-0.272 0.509 0.509 0 0 0-0.257 0.075 11.627 11.627 0 0 0-4.565 15.81 11.633 11.633 0 0 0 7.437 5.683V16.608c0.362 0.122 0.726 0.227 1.103 0.303v5.909C5.406 21.9 0.538 15.536 1.461 8.599a12.496 12.496 0 0 1 0.695-2.781 0.561 0.561 0 0 0-0.318-0.711 0.566 0.566 0 0 0-0.711 0.318c-2.675 7.119 0.923 15.053 8.042 17.714 1.376 0.514 2.811 0.801 4.276 0.861v-6.982c0.197 0.014 0.561 0.014 0.561 0.014s0.362 0 0.559-0.015v6.968c7.602-0.318 13.497-6.726 13.18-14.329a14.282 14.282 0 0 0-0.876-4.246z m-10.34 7.844a1.141 1.141 0 0 1 1.603 0 1.141 1.141 0 0 1 0 1.602 1.141 1.141 0 0 1-1.603 0 1.133 1.133 0 0 1 0-1.602z m-5.078 1.602a1.122 1.122 0 0 1-1.587 0 1.141 1.141 0 0 1 0-1.602 1.141 1.141 0 0 1 1.603 0 1.127 1.127 0 0 1-0.015 1.602z"/></svg>