<svg fill="#FFAE33" role="img" viewBox="0 0 22 24" xmlns="http://www.w3.org/2000/svg"><title>Gitpod</title><path d="M13.033 1.194a2.387 2.387 0 0 1-0.87 3.235l-6.98 4.04a0.602 0.602 0 0 0-0.3 0.522v6.342a0.6 0.6 0 0 0 0.3 0.521l5.524 3.199a0.585 0.585 0 0 0 0.586 0l5.527-3.199a0.603 0.603 0 0 0 0.299-0.52V11.389l-4.969 2.838a2.326 2.326 0 0 1-3.19-0.9 2.388 2.388 0 0 1 0.89-3.23l7.108-4.062C19.123 4.799 21.8 6.383 21.8 8.9v6.914a4.524 4.524 0 0 1-2.245 3.919l-6.345 3.672a4.407 4.407 0 0 1-4.422 0l-6.344-3.672A4.524 4.524 0 0 1 0.2 15.815V8.509a4.524 4.524 0 0 1 2.245-3.918l7.393-4.28a2.326 2.326 0 0 1 3.195 0.883z"/></svg>