<svg fill="#3333FF" role="img" viewBox="0 0 30 24" xmlns="http://www.w3.org/2000/svg"><title>Glitch</title><path d="M11.435 0c-0.772 0-2.241 2.011-2.241 2.011s-0.566 0-2.252 0.087c-1.686 0.087-3.189 0.837-5.195 2.416C-0.259 6.092 0.025 7.674 0.025 7.674s1.871 0.633 1.871 0.976c0 0.343-1.638 0.749-1.638 0.749 1.055 1.35 4.331 2.611 5.159 2.611h0.655c-1.356 0.267-2.668 1.004-4.325 2.307-2.006 1.579-1.722 3.16-1.722 3.16s1.871 0.633 1.871 0.976c0 0.343-1.638 0.749-1.638 0.749 1.055 1.35 4.331 2.611 5.159 2.611 0.793 0 1.348 0.022 2.351-0.165 0.075 0.167 0.857 1.825 2.454 2.168 1.683 0.362 2.613 0.077 2.613 0.078s0.084-0.743-0.299-1.486c1.461 0.144 3.116 0.181 4.736-0.065 4.5-0.683 6.723-1.765 7.448-1.908 0.727-0.144 4.876 1.844 5.129 1.379 0.254-0.466-0.912-1.484-0.368-2.858 0.542-1.374-0.667-2.282 0.003-3.379 0.671-1.098 0.537-2.772 0.365-2.86-0.368-0.187-4.276 1.757-5.129 1.599-2.106-0.388-1.72-0.641-4.555-1.283-1.133-0.257-0.976-0.105-1.227-0.295-0.167-0.127-0.331-0.145-0.568-0.382 3.766-0.678 5.686-1.593 6.35-1.724 0.727-0.145 4.876 1.844 5.129 1.378 0.252-0.465-0.912-1.483-0.368-2.858 0.542-1.374-0.667-2.281 0.003-3.379 0.671-1.097 0.537-2.77 0.365-2.859-0.368-0.189-4.276 1.757-5.129 1.599-2.106-0.39-1.72-0.641-4.555-1.283-1.133-0.257-0.976-0.105-1.227-0.295-0.25-0.19-0.487-0.132-0.976-0.924-0.49-0.793-6.14-2.011-6.527-2.011zM10.116 3.454l0.05 0.002 0.139 0.008 0.496 0.025a357.832 357.832 0 0 1 1.986 0.11c0.435 0.025 0.799 0.047 1.08 0.067 1.075 0.075 2.713 0.325 3.968 0.58 1.944 0.393 3.522 0.972 6.008 2.089l0.846 0.381c0.164 0.074 0.244 0.285 0.179 0.471-0.065 0.187-0.251 0.277-0.416 0.204a828.65 828.65 0 0 0-0.843-0.381c-2.451-1.1-3.995-1.668-5.885-2.049-1.234-0.25-2.848-0.496-3.897-0.57a95.827 95.827 0 0 0-1.073-0.068l-0.48-0.027c-0.478-0.026-0.991-0.055-1.502-0.082l-0.158-0.007a8.481 8.481 0 0 1 0.424 1.483c0.025 0.137 0.044 0.27 0.056 0.399 0.042 0.42-0.035 1.019-0.202 1.774-0.055 0.25-0.12 0.511-0.191 0.779a26.609 26.609 0 0 1-0.363 1.243l-0.025 0.08-0.01 0.029c-0.062 0.187-0.247 0.282-0.412 0.212-0.166-0.071-0.25-0.281-0.187-0.468l0.009-0.025a14.79 14.79 0 0 0 0.111-0.354c0.09-0.295 0.18-0.608 0.265-0.925 0.069-0.26 0.13-0.51 0.182-0.748 0.15-0.675 0.219-1.207 0.187-1.516a4.292 4.292 0 0 0-0.047-0.336 7.281 7.281 0 0 0-0.262-0.994 10.118 10.118 0 0 0-0.33-0.855c-0.114-0.249 0.051-0.543 0.297-0.531z m-2.065 0.212c0.082 0.002 0.162 0.041 0.224 0.114a5.943 5.943 0 0 1 0.521 0.783c0.28 0.505 0.467 1.019 0.518 1.525 0.029 0.289 0.01 0.612-0.047 0.963-0.055 0.337-0.144 0.693-0.258 1.056a10.262 10.262 0 0 1-0.312 0.859c-0.079 0.18-0.27 0.254-0.428 0.165-0.159-0.087-0.225-0.306-0.146-0.486l0.022-0.055a9.487 9.487 0 0 0 0.262-0.727c0.102-0.329 0.182-0.647 0.231-0.943a3.023 3.023 0 0 0 0.04-0.75c-0.037-0.382-0.191-0.799-0.424-1.221a5.216 5.216 0 0 0-0.445-0.672 0.398 0.398 0 0 1 0.013-0.512 0.299 0.299 0 0 1 0.229-0.1z m-3.799 1.212c0.774 0 1.401 0.712 1.401 1.588 0 0.879-0.628 1.59-1.401 1.591-0.693 0-1.269-0.571-1.382-1.322 0.096 0.565 0.535 0.991 1.061 0.991 0.596 0 1.079-0.55 1.079-1.226 0-0.677-0.483-1.225-1.079-1.225-0.592 0-1.074 0.54-1.081 1.209V6.466c0-0.878 0.627-1.59 1.402-1.59zM3.608 6.531a0.331 0.292 90 0 1 0.291 0.333 0.331 0.292 90 0 1-0.291 0.331 0.331 0.292 90 0 1-0.292-0.331 0.331 0.292 90 0 1 0.292-0.333z m4.159 5.313l0.007 0.016-0.144 0.006 0.137-0.022z m2.348 1.411l0.05 0.004 0.138 0.006 0.496 0.025a357.814 357.814 0 0 1 1.986 0.11c0.435 0.025 0.799 0.049 1.081 0.069 1.075 0.075 2.713 0.325 3.968 0.578 1.944 0.393 3.522 0.972 6.008 2.09l0.846 0.381c0.164 0.075 0.244 0.285 0.178 0.471-0.065 0.187-0.251 0.277-0.416 0.203a828.65 828.65 0 0 0-0.843-0.381c-2.451-1.1-3.995-1.666-5.884-2.048-1.234-0.25-2.848-0.496-3.897-0.57a95.827 95.827 0 0 0-1.553-0.096l-1.502-0.081-0.158-0.008a8.481 8.481 0 0 1 0.424 1.483c0.025 0.137 0.044 0.271 0.056 0.4 0.042 0.42-0.035 1.02-0.203 1.773-0.055 0.25-0.12 0.512-0.191 0.781a26.609 26.609 0 0 1-0.387 1.322l-0.01 0.028c-0.062 0.187-0.247 0.282-0.412 0.213-0.166-0.071-0.25-0.28-0.187-0.469l0.008-0.025a14.79 14.79 0 0 0 0.112-0.353c0.09-0.295 0.18-0.608 0.264-0.924 0.069-0.26 0.13-0.511 0.183-0.75 0.15-0.673 0.219-1.207 0.187-1.515a4.292 4.292 0 0 0-0.047-0.335 7.281 7.281 0 0 0-0.263-0.994 10.118 10.118 0 0 0-0.329-0.857c-0.114-0.247 0.051-0.542 0.297-0.53z m-2.065 0.213c0.082 0.002 0.162 0.041 0.224 0.113a5.943 5.943 0 0 1 0.521 0.783c0.28 0.506 0.467 1.019 0.518 1.527 0.029 0.287 0.01 0.611-0.048 0.962-0.055 0.337-0.144 0.693-0.257 1.055a10.261 10.261 0 0 1-0.312 0.859c-0.079 0.18-0.27 0.255-0.429 0.167-0.159-0.089-0.225-0.307-0.146-0.488a7.598 7.598 0 0 0 0.088-0.216 9.48 9.48 0 0 0 0.197-0.566c0.102-0.327 0.182-0.647 0.231-0.943a3.023 3.023 0 0 0 0.04-0.749c-0.037-0.381-0.191-0.799-0.425-1.222a5.216 5.216 0 0 0-0.444-0.67 0.398 0.398 0 0 1 0.012-0.514 0.299 0.299 0 0 1 0.23-0.098z m-3.8 1.211c0.774 0 1.401 0.712 1.402 1.59s-0.628 1.59-1.402 1.59c-0.693 0-1.269-0.572-1.381-1.321 0.096 0.563 0.535 0.989 1.06 0.989 0.596 0 1.079-0.548 1.08-1.224 0-0.678-0.483-1.227-1.08-1.227-0.592 0-1.074 0.541-1.08 1.211v-0.018c0-0.878 0.627-1.59 1.401-1.59z m-0.642 1.656a0.331 0.292 90 0 1 0.291 0.331 0.331 0.292 90 0 1-0.291 0.331 0.331 0.292 90 0 1-0.292-0.331 0.331 0.292 90 0 1 0.292-0.331z"/></svg>