<svg fill="#CA6201" role="img" viewBox="0 0 38 24" xmlns="http://www.w3.org/2000/svg"><title>Globus</title><path d="M18.996 0c-6.032 0-11.276 2.673-13.856 6.56-0.615 0.035-1.23 0.065-1.845 0.105-0.918 0.065-2.082 0.883-2.25 1.956l-0.287 1.786c-0.284 1.774-0.516 3.171-0.672 4.983-0.052 0.636 0.103 1.23 0.414 1.593 0.415 0.492 1.232 0.609 1.554 0.647 1.149 0.106 2.285 0.199 3.413 0.283 2.678 3.63 7.736 6.087 13.529 6.087 5.795 0 10.855-2.46 13.533-6.09 0.697-0.054 1.388-0.101 2.091-0.164 0.984-0.09 1.891-0.918 2.11-1.927 0.284-1.295 0.378-1.798 0.481-2.444 0.039-0.208 0.076-0.445 0.113-0.716 0-0.039 0.027-0.18 0.053-0.361 0.065-0.388 0.158-1.009 0.234-1.451l0.284-1.903a1.72 1.72 0 0 0-0.425-1.474c-0.336-0.388-0.921-0.661-1.503-0.699a251.859 251.859 0 0 0-3.093-0.189c-2.57-3.899-7.824-6.58-13.876-6.58Zm0 0.519c5.667 0 10.606 2.441 13.133 6.027l-0.675-0.032c-1.219-1.545-2.93-2.85-4.977-3.781-0.53 0.142-1.151 0.273-1.81 0.375a21.445 21.445 0 0 1 1.736 3.207 80.31 80.31 0 0 0-0.877-0.022 22.171 22.171 0 0 0-1.728-3.067c-1.307 0.167-2.796 0.257-4.349 0.284v0.464h-0.683c-0.032 0-0.063 0.003-0.093 0.006v-0.472a39.233 39.233 0 0 1-4.466-0.271 22.193 22.193 0 0 0-1.718 3.047l-0.442 0.009h-0.167l0.011-0.17a2.365 2.365 0 0 0-0.016-0.402 22.076 22.076 0 0 1 1.467-2.601 17.898 17.898 0 0 1-1.85-0.375c-2.023 0.93-3.712 2.217-4.92 3.742-0.229 0.011-0.457 0.019-0.686 0.032 2.533-3.572 7.459-6 13.11-6Zm-0.336 0.659c-1.082 0.014-2.14 0.132-3.158 0.326a18.434 18.434 0 0 0-0.801 1.022c1.216 0.129 2.563 0.205 3.96 0.219z m0.789 0v1.555a39.017 39.017 0 0 0 3.848-0.221c-0.442-0.596-0.752-0.959-0.805-1.024a19.227 19.227 0 0 0-3.043-0.31Zm-5.149 0.583c-0.531 0.144-1.05 0.298-1.554 0.48 0.336 0.063 0.699 0.117 1.074 0.168 0.169-0.246 0.339-0.465 0.48-0.646Zm9.41 0c0.142 0.183 0.296 0.404 0.463 0.636 0.363-0.052 0.714-0.117 1.051-0.169a14.678 14.678 0 0 0-1.514-0.465Zm-4.737 3.028h0.75c0.298 0 0.568 0.142 0.749 0.389a1.274 1.274 0 0 1 0.221 0.958c-0.038 0.323-0.09 0.634-0.129 0.958 0.79 0 1.593 0.016 2.381 0.027 0.298 0 0.571 0.142 0.752 0.388a1.277 1.277 0 0 1 0.218 0.943c-0.336 2.627-0.738 5.256-1.139 7.897-0.104 0.686-0.647 1.214-1.23 1.229-1.139 0.013-2.291 0.016-3.43 0.015a0.951 0.951 0 0 1-0.764-0.388 1.282 1.282 0 0 1-0.218-0.933v-0.013c0.505-3.818 1.061-7.638 1.593-11.456 0.09 0 0.167 0 0.246-0.013z m-8.779 0.222c0.284 0 0.52 0.117 0.688 0.336 0.181 0.233 0.246 0.568 0.181 0.918-0.634 3.742-1.176 7.419-1.552 11.07-0.337-0.013-0.662-0.039-0.998-0.053a1.025 1.025 0 0 1-0.763-0.403 1.225 1.225 0 0 1-0.248-0.907 146.24 146.24 0 0 1 1.645-10.896c0.337-0.013 0.659-0.039 0.995-0.052 0.013 0 0.027 0 0.052-0.013z m6.125 2.096c0.311 0 0.571 0.129 0.752 0.363a1.326 1.326 0 0 1 0.205 0.957c-0.374 2.654-0.749 5.293-1.099 7.935-0.09 0.686-0.621 1.205-1.203 1.19a154.534 154.534 0 0 1-3.432-0.116 1.038 1.038 0 0 1-0.775-0.412 1.228 1.228 0 0 1-0.248-0.907 187.806 187.806 0 0 1 1.075-7.73c0.104-0.673 0.673-1.216 1.27-1.23 1.151-0.025 2.302-0.038 3.455-0.05Zm8.737 0.079c0.336 0.014 0.673 0.013 1.01 0.025 0.312 0 0.583 0.142 0.764 0.388 0.194 0.246 0.285 0.583 0.234 0.934a208.022 208.022 0 0 1-0.986 6.676l1.374-0.036c0.375-2.266 0.71-4.507 0.995-6.721 0.079-0.661 0.621-1.162 1.217-1.135l1.088 0.036a136.596 136.596 0 0 1-1.334 8.79c-0.117 0.647-0.672 1.191-1.266 1.215-1.151 0.052-2.291 0.104-3.444 0.142a0.869 0.869 0 0 1-0.751-0.359 1.23 1.23 0 0 1-0.194-0.921c0.478-3.029 0.918-6.055 1.293-9.034z m-18.38 0.18a0.978 0.978 0 0 1 0.776 0.323 1.228 1.228 0 0 1 0.194 0.921c-0.117 0.647-0.221 1.293-0.323 1.927-0.479 0-0.956 0.013-1.435 0.012a0.631 0.631 0 0 1-0.611-0.634c0-0.039 0.052-0.336 0.052-0.335-0.49 0.013-1.088 0.016-1.58 0.026-0.09 0.375-0.749 4.802-0.775 5.308 0.492 0.025 1.088 0.063 1.58 0.088 0.181-1.009 0.26-1.318 0.312-1.681-0.065-0.013-0.222-0.013-0.287-0.012-0.323-0.013-0.606-0.363-0.555-0.74 0.065-0.452 0.129-0.867 0.207-1.332H6.495c0.336 0 0.725 0.115 0.634 0.709-0.142 1.153-0.336 2.851-0.57 4.184-0.129 0.686-0.442 1.047-1.151 1.06-0.688 0-2.474-0.126-3.508-0.297-0.311-0.05-0.647-0.142-0.854-0.375-0.208-0.246-0.271-0.647-0.271-0.946 0-0.801 0.426-4.207 0.918-6.809 0.117-0.621 0.867-1.164 1.474-1.229a40.608 40.608 0 0 1 3.509-0.169Zm26.096 0.063h0.039c1.981 0.039 2.861 0.131 3.378 0.195 0.3 0.038 0.634 0.284 0.801 0.492 0.194 0.233 0.285 0.453 0.248 0.763-0.079 0.557-0.169 1.116-0.26 1.686-0.465 0-0.93-0.016-1.398-0.016a0.656 0.656 0 0 1-0.623-0.619c0-0.038 0-0.09 0.013-0.128 0.013-0.066 0.039-0.131 0.052-0.196l-1.41-0.039c-0.039 0.284-0.207 1.216-0.271 1.616h2.369c0.298 0 0.569 0.12 0.75 0.339 0.181 0.233 0.259 0.44 0.207 0.841-0.194 1.632-0.374 2.46-0.607 3.314-0.155 0.596-0.738 1.189-1.333 1.254-1.697 0.194-2.215 0.21-3.47 0.274a0.853 0.853 0 0 1-0.75-0.326 1.072 1.072 0 0 1-0.181-0.878 104.232 104.232 0 0 0 0.336-1.943c0.478-0.027 0.956-0.039 1.435-0.054 0.323-0.013 0.598 0.26 0.598 0.61 0 0.052 0 0.09-0.013 0.142 0 0.065-0.016 0.142-0.028 0.205 0.467-0.011 0.934-0.038 1.398-0.063 0.052-0.284 0.221-1.151 0.287-1.551-0.467 0.013-2.255 0.011-2.255 0.011-0.311 0.013-0.542-0.05-0.725-0.284-0.18-0.232-0.308-0.413-0.334-0.776 0.156-1.449 0.489-3.248 0.555-3.766 0.077-0.634 0.596-1.104 1.192-1.103z m-12.517 1.955c-0.052 0.39-0.763 5.349-0.841 5.905h1.448c0.063-0.402 0.766-5.335 0.844-5.903z m-5.242 0.014c-0.479 0-0.971 0.011-1.451 0.011-0.065 0.402-0.752 5.271-0.804 5.828 0.479 0.013 0.96 0.011 1.438 0.024 0.039-0.388 0.725-5.294 0.817-5.863z m-8.752 8.574l0.716 0.049c1.154 1.296 2.667 2.399 4.436 3.221a17.188 17.188 0 0 1 1.878-0.416 22.225 22.225 0 0 1-1.419-2.544l0.899 0.038c0.457 0.907 0.946 1.719 1.386 2.378 1.359-0.181 2.912-0.284 4.518-0.296v-1.971l0.452 0.003 0.323-0.003v1.971a37.574 37.574 0 0 1 4.391 0.296c0.44-0.662 0.926-1.474 1.381-2.381 0.3-0.011 0.599-0.016 0.897-0.028a22.959 22.959 0 0 1-1.425 2.554c0.699 0.115 1.321 0.255 1.865 0.424 1.793-0.823 3.326-1.933 4.491-3.243l0.699-0.052c-2.624 3.301-7.361 5.51-12.751 5.509-5.388 0-10.114-2.209-12.738-5.509z m12.414 3.206c-1.424 0.013-2.796 0.088-4.026 0.231 0.427 0.594 0.765 0.984 0.883 1.128 1.009 0.181 2.056 0.298 3.143 0.31z m0.775 0v1.669a19.072 19.072 0 0 0 3.019-0.312 20.684 20.684 0 0 0 0.867-1.112 38.98 38.98 0 0 0-3.886-0.246z m-5.681 0.346c-0.415 0.066-0.788 0.134-1.151 0.212a14.375 14.375 0 0 0 1.697 0.53c-0.156-0.208-0.352-0.456-0.546-0.742Zm10.447 0.016a38.758 38.758 0 0 1-0.53 0.726c0.569-0.142 1.126-0.311 1.668-0.518-0.349-0.079-0.738-0.142-1.138-0.206z"/></svg>