<svg fill="#F2CC38" role="img" viewBox="0 0 16 24" xmlns="http://www.w3.org/2000/svg"><title>Glovo</title><path d="M8.012 0C3.847 0 0.459 3.388 0.459 7.553c0 1.576 0.494 3.106 1.412 4.4l0.211 0.281 3.93 5.555s0.47 0.775 1.529 0.775h0.941c1.036 0 1.53-0.775 1.53-0.775l3.93-5.555 0.187-0.28a7.43 7.43 0 0 0 1.412-4.401C15.564 3.388 12.176 0 8.011 0Zm0 3.693a3.837 3.837 0 0 1 3.836 3.836c0 0.824-0.26 1.578-0.73 2.237l-0.212 0.28-2.894 4.095-2.895-4.07-0.21-0.305a3.848 3.848 0 0 1-0.731-2.237 3.837 3.837 0 0 1 3.836-3.836z m-2.117 18.26c0 1.106 0.893 2.023 2.07 2.047 1.223 0 2.117-0.917 2.117-2.059 0-1.14-0.894-2.058-2.094-2.058-1.2 0-2.093 0.917-2.093 2.07z"/></svg>