<svg fill="#A42E2B" role="img" viewBox="0 0 25 24" xmlns="http://www.w3.org/2000/svg"><title>GNU</title><path d="M5.413 13.974a0.634 0.634 0 0 0-0.531 0.346c-0.117 0.216-0.397 0.248-0.528 0.206-0.215-0.072-0.491-0.122-0.761 0.069-0.269 0.191-0.559 0.046-0.507-0.304 0.051-0.348 0.176-0.66 0.512-0.849 0.729-0.419 0.221-0.711 0.621-1.133 0.403-0.421 0.314-0.549 0.299-1.125-1.356-0.205-2.125-0.593-2.981-1.668C0.677 8.448 0.345 7.564 0.256 6.22 0.167 4.873 0.246 4 0.827 2.885 1.408 1.77 2.022 1.233 3.077 0.676 4.138 0.116 5.176-0.016 6.138 0.001c0.959 0.014 1.599 0.084 2.141 0.395 0.542 0.31 1.039 0.7 1.354 0.701 0.245 0.015 0.488-0.054 0.688-0.196 0.041 1.043-0.898 1.133-1.737 1.155-0.839 0.02-1.354-0.324-2.127-0.196-0.771 0.131-2.038 0.481-2.655 1.555-0.617 1.074-0.638 1.453-0.586 2.353 0.051 0.899 0.824 1.57 1.263 1.578 0.438 0.007 0.535-0.12 0.918-0.368 0.383-0.252 2.336-2.67 3.001-3.212 0.668-0.542 1.326-0.712 2.036-0.721 0.711-0.008 0.89 0.015 1.466 0.251 0.573 0.234 0.924 0.667 1.386 0.931 0.235-0.138 0.384-0.348 0.597-0.506 0.777-0.565 1.178-0.718 2.1-0.629 0.53 0.053 1.197 0.355 1.596 0.701 0.709 0.618 1.294 1.473 1.766 2.127 0.368 0.508 0.803 1.115 1.424 1.306 0.675 0.205 1.183-0.667 1.258-1.156 0.044-0.276 0.099-0.517 0.1-0.818 0-0.304-0.031-0.67-0.118-0.987a3.532 3.532 0 0 0-0.401-0.89c-0.264-0.425-0.696-0.869-1.142-1.096-0.252-0.128-0.845-0.361-1.217-0.368-0.459-0.01-0.808 0.143-1.229 0.172-0.511 0.035-1.428 0.149-1.827-0.245-0.256-0.252-0.289-0.419-0.332-0.747a0.777 0.777 0 0 0 0.41 0.166c0.321 0.027 0.62-0.235 0.879-0.387 0.215-0.126 0.516-0.348 0.796-0.46 0.72-0.292 1.603-0.284 2.363-0.205 0.608 0.061 1.398 0.331 1.933 0.634 0.537 0.304 1.054 0.816 1.432 1.298 0.476 0.608 0.736 1.129 0.909 1.887 0.221 0.967 0.283 2.419 0.015 3.374-0.21 0.751-0.907 1.903-1.501 2.469-0.586 0.56-1.263 0.829-2.031 0.977 0.031 0.152 0.034 0.297 0.073 0.426 0.057 0.182 0.167 0.384 0.388 0.32 0.088-0.026 0.136-0.048 0.252 0.054 0.118 0.102 0.057 0.495-0.272 0.675-0.168 0.087-0.342 0.105-0.609 0.113a5.738 5.738 0 0 1-0.975-0.047c-0.289-0.048-0.46-0.278-0.782-0.315-0.495-0.056-0.874-0.413-1.273-0.668-0.166-0.106-0.223-0.106-0.317-0.162 0.051 0.158 0.12 0.321 0.154 0.476 0.035 0.148 0.02 0.291 0.037 0.412 0.02 0.123 0.053 0.215 0.072 0.315 0.079 0.07 0.105 0.177 0.238 0.212 0.133 0.036 0.342-0.018 0.479-0.038 0.138-0.018 0.229-0.092 0.335-0.072 0.107 0.02 0.209 0.098 0.298 0.17s0.168 0.082 0.24 0.26c0.072 0.182 0.138 0.549 0.149 0.795 0.01 0.245-0.018 0.465-0.091 0.663-0.072 0.194-0.138 0.279-0.334 0.473s-0.517 0.476-0.837 0.675c0.059 0.086 0.085 0.166 0.177 0.26 0.092 0.096 0.283 0.202 0.368 0.302 0.085 0.1 0.129 0.172 0.129 0.283a0.6 0.6 0 0 1-0.094 0.382c-0.228 0.307-0.494 0.36-0.822 0.503 0.055 0.342 0.1 0.585 0.021 0.927-0.031 0.14-0.104 0.455-0.276 0.537-0.174 0.082-0.503 0.042-0.714 0.075-0.21 0.032-0.327 0.064-0.491 0.097-0.099 0.144-0.245 0.304-0.297 0.431-0.051 0.13-0.035 0.176 0.006 0.307 0.043 0.131 0.189 0.322 0.23 0.479a0.951 0.951 0 0 1 0.011 0.473 0.853 0.853 0 0 1-0.236 0.406c-0.131 0.138-0.389 0.245-0.519 0.353-0.128 0.113-0.258 0.126-0.222 0.31 0.048 0.254 0.419 0.661 0.685 0.761a0.811 0.811 0 0 0 0.57-0.04c-0.014 0.213-0.199 0.361-0.322 0.504 0.329-0.096 0.651-0.276 0.873-0.516-0.069 0.208-0.307 0.541-0.66 0.835-0.353 0.294-0.351 0.234-0.528 0.352 0.321 0.061 0.62 0.046 0.869 0.002a1.729 1.729 0 0 1-0.655 0.212 1.919 1.919 0 0 1-0.746-0.057c-0.266-0.064-0.51-0.308-0.833-0.475 0.031 0.122 0.054 0.266 0.189 0.388 0.139 0.123 0.343 0.187 0.563 0.291-0.279-0.031-0.572-0.038-0.844-0.098a2.131 2.131 0 0 1-0.489-0.168c-0.147-0.072-0.261-0.18-0.393-0.27 0.061 0.12 0.082 0.262 0.188 0.36 0.106 0.1 0.281 0.138 0.422 0.204-0.146-0.004-0.286 0.03-0.44-0.011a1.193 1.193 0 0 1-0.453-0.215 3.237 3.237 0 0 1-0.455-0.404c-0.135-0.148-0.303-0.34-0.353-0.473-0.049-0.136 0.031-0.23 0.045-0.346-0.092 0.061-0.205 0.096-0.279 0.184-0.072 0.09-0.134 0.17-0.102 0.326 0.031 0.153 0.175 0.346 0.276 0.517-0.302-0.248-0.471-0.344-0.542-0.639-0.065-0.279 0.106-0.532 0.239-0.742 0.065-0.106 0.165-0.205 0.225-0.307-0.137-0.131-0.291-0.245-0.41-0.397-0.115-0.153-0.165-0.36-0.282-0.503-0.12-0.146-0.28-0.237-0.419-0.356 0.122 0.262 0.324 0.585 0.367 0.788 0.045 0.205-0.049 0.33-0.123 0.44-0.072 0.11-0.187 0.137-0.297 0.202-0.113 0.07-0.283 0.016-0.35 0.116s-0.085 0.252-0.022 0.352l0.262 0.407a1.2 1.2 0 0 1-0.334-0.287c-0.076-0.099-0.19-0.193-0.205-0.324-0.015-0.133-0.023-0.252 0.066-0.371 0.086-0.12 0.325-0.16 0.431-0.252 0.107-0.092 0.166-0.151 0.16-0.27-0.006-0.12-0.123-0.205-0.222-0.279-0.307-0.23-0.696-0.44-0.956-0.715a0.952 0.952 0 0 1-0.245-0.388c-0.031-0.107 0.002-0.192 0.074-0.321 0.074-0.133 0.322-0.312 0.353-0.453 0.03-0.143-0.097-0.176-0.209-0.225-0.114-0.051-0.329 0.025-0.435-0.064-0.105-0.088 0.031-0.272-0.088-0.373-0.119-0.101-0.389-0.046-0.532-0.153a0.741 0.741 0 0 1-0.245-0.404 0.847 0.847 0 0 1-0.021-0.446c0.033-0.116 0.131-0.136 0.191-0.195 0.061-0.059 0.11-0.107 0.031-0.196-0.076-0.09-0.338 0.004-0.487-0.108-0.153-0.116-0.061-0.389-0.166-0.505-0.106-0.111-0.294-0.068-0.395-0.106-0.099-0.036-0.138 0.092-0.199-0.112-0.061-0.204-0.064-0.815-0.146-1.043-0.082-0.228-0.243-0.016-0.317-0.242-0.078-0.225-0.005-0.587-0.039-0.928l-0.153-0.931c-0.532 0.36-0.887 0.474-1.461 0.574-0.048 1.404-0.18 2.232 0.297 3.79 0.477 1.556 1.441 2.475 2.741 3.791-1.718-1.285-2.535-2.331-3.048-3.67-0.512-1.34-0.415-2.462-0.365-3.75z m9.123-0.565a0.856 0.856 0 0 1 0.384 0.1c0.092 0.062 0.192 0.109 0.276 0.194 0.211 0.215 0.368 0.473 0.438 0.768 0.045 0.19 0.051 0.432 0.066 0.655-0.063-0.205-0.105-0.418-0.197-0.602-0.143-0.292-0.385-0.573-0.687-0.704a0.358 0.358 0 0 0-0.219-0.028c0.024 0.042 0.064 0.078 0.067 0.136 0 0.061-0.012 0.178-0.115 0.228-0.164 0.08-0.348 0.021-0.475-0.088a0.423 0.423 0 0 1-0.104-0.469c0.082-0.198 0.384-0.198 0.566-0.19z m-1.657-0.279c0.016-0.34 0.137-0.623 0.441-0.787 0.191-0.109 0.401-0.184 0.618-0.22 0.212-0.027 0.729-0.008 1.042 0.133 0.237 0.107 0.399 0.277 0.61 0.403 0.21 0.124 0.358 0.206 0.559 0.346 0.307 0.216 0.486 0.45 0.697 0.589 0.102 0.068 0.245 0.058 0.383 0.1-0.106 0.031-0.245 0.065-0.358 0.031a1.601 1.601 0 0 1-0.448-0.271 3.013 3.013 0 0 0-0.508-0.368c-0.127-0.074-0.338-0.162-0.477-0.251-0.138-0.092-0.378-0.289-0.514-0.357a1.655 1.655 0 0 0-0.664-0.128c-0.262 0.008-0.64 0.051-0.841 0.233-0.202 0.184-0.276 0.344-0.233 0.579 0.075-0.086 0.126-0.194 0.2-0.26 0.158-0.136 0.338-0.142 0.532-0.115 0.221 0.028 0.33 0.153 0.403 0.362-0.048-0.034-0.138-0.111-0.209-0.138a0.506 0.506 0 0 0-0.448 0.044c-0.184 0.1-0.133 0.245-0.157 0.405-0.013 0.078-0.041 0.136-0.062 0.204a0.399 0.399 0 0 1-0.184-0.101c0 0.078-0.01 0.144 0.005 0.228 0.014 0.086 0.056 0.188 0.086 0.279-0.129-0.128-0.262-0.245-0.342-0.411a1.082 1.082 0 0 1-0.133-0.529z m0.223-2.455c0.092-0.137 0.123-0.351 0.178-0.526-0.02 0.222 0.02 0.463-0.085 0.623-0.107 0.162-0.299 0.132-0.453 0.18 0.121-0.092 0.264-0.134 0.36-0.275z m-2.257 3.277c0.122-0.098 0.448-0.02 0.692-0.002l-0.526 0.136c-0.017 0.061-0.01 0.126-0.049 0.178-0.041 0.052-0.117 0.07-0.175 0.106 0.006-0.159-0.063-0.32 0.058-0.418z m1.721-6.803c0.146 0.077 0.327 0.182 0.46 0.185 0.126 0.004 0.161-0.082 0.236-0.134 0.118 0.389 0.256 0.815 0.458 1.168 0.085 0.149 0.139 0.081 0.205 0.229 0.064 0.148 0.092 0.449 0.153 0.64s0.14 0.327 0.212 0.494c-0.178-0.256-0.409-0.579-0.511-0.79-0.1-0.212-0.036-0.23-0.118-0.431-0.08-0.203-0.243-0.516-0.365-0.773-0.088 0.01-0.194 0.027-0.261 0.006-0.066-0.021-0.055-0.093-0.114-0.137-0.061-0.046-0.162-0.028-0.246-0.103-0.082-0.072-0.102-0.222-0.109-0.354z m-0.784 1.918c0.138-0.012 0.306 0.024 0.435 0.018 0.129-0.006 0.221-0.041 0.331-0.062-0.02-0.194-0.002-0.549-0.179-0.679-0.118-0.082-0.591-0.02-0.717 0.006-0.286 0.061-0.618 0.232-0.893 0.338 0.264-0.184 0.491-0.354 0.808-0.45 0.193-0.055 0.636-0.131 0.833-0.077 0.091 0.024 0.106 0.061 0.162 0.138 0.187 0.261 0.187 0.486 0.235 0.791 0.047 0.072 0.097 0.122 0.137 0.198a0.931 0.931 0 0 1 0.069 0.296c-0.049-0.072-0.018-0.159-0.153-0.211-0.137-0.054-0.343-0.005-0.527 0.015 0.133 0.098 0.199 0.19 0.205 0.392 0.007 0.238-0.194 0.409-0.406 0.427-0.292 0.023-0.444-0.042-0.563-0.292-0.051-0.109-0.015-0.241-0.017-0.348-0.354 0.025-0.348 0.013-0.606 0.227 0.142 0.205 0.229 0.322 0.46 0.446 0.129 0.068 0.276 0.136 0.436 0.163 0.161 0.028 0.425 0.054 0.593 0.028a0.643 0.643 0 0 0 0.389-0.191c0.125-0.115 0.137-0.28 0.185-0.413a1.227 1.227 0 0 1-0.071 0.379c-0.143 0.276-0.389 0.361-0.683 0.361-0.281 0-0.63-0.064-0.893-0.174-0.21-0.086-0.557-0.331-0.639-0.545-0.057-0.146-0.012-0.325-0.018-0.488 0.292-0.194 0.362-0.146 0.704-0.203 0.143-0.026 0.244-0.078 0.383-0.09z m-1.693-1.309c0.007-0.116 0.02-0.113 0.031-0.17-0.266-0.072-0.368 0.101-0.526 0.42-0.058 0.119 0 0.191-0.063 0.27-0.061 0.078-0.164 0.066-0.263 0.142-0.1 0.076-0.2 0.22-0.297 0.299-0.192 0.16-0.456 0.256-0.681 0.366 0.153-0.114 0.453-0.286 0.55-0.45 0.051-0.087 0.043-0.252 0.123-0.332 0.08-0.077 0.107-0.133 0.21-0.153 0.102-0.018 0.061-0.138 0.095-0.233 0.033-0.093 0.099-0.162 0.169-0.257s0.16-0.235 0.296-0.289c0.139-0.051 0.356 0.005 0.46-0.023 0.105-0.031 0.045-0.107 0.122-0.153s0.224-0.024 0.328-0.074c0.18-0.086 0.266-0.232 0.375-0.386 0.015 0.333 0.01 0.573-0.11 0.889-0.134 0.354-0.272 0.563-0.655 0.781-0.131 0.074-0.263 0.1-0.374 0.14 0.063-0.088 0.155-0.126 0.193-0.262 0.035-0.139 0.009-0.409 0.017-0.524zM16.285 9.388c-0.181 0.014-0.225-0.012-0.371 0.092l0.237 0.368c-0.006-0.241 0.018-0.291 0.136-0.46z m-0.476-0.176c0.252-0.106 0.471-0.194 0.747-0.212 0.109-0.008 0.28 0.009 0.392 0.016 0.096-0.14 0.215-0.25 0.262-0.409 0.029-0.106 0.015-0.597-0.039-0.726-0.149-0.368-0.297-0.385-0.507-0.598-0.149-0.153-0.155-0.389-0.201-0.652-0.015-0.096-0.063-0.218-0.086-0.317a3.989 3.989 0 0 0-0.877-0.046c0.151-0.146 0.297-0.277 0.342-0.497a0.981 0.981 0 0 0-0.116-0.683c-0.123-0.195-0.322-0.368-0.505-0.528-0.182-0.159-0.446-0.291-0.618-0.422 0.225-0.079 0.454-0.198 0.675-0.24 0.573-0.11 1.067 0.058 1.621 0.392 0.322 0.194 0.586 0.378 0.922 0.733 0.338 0.352 0.752 0.997 1.077 1.379 0.324 0.384 0.588 0.685 0.873 0.913 0.282 0.231 0.54 0.296 0.81 0.44l0.421 0.449 0.343-0.422 0.547 0.061 0.114-0.615 0.501-0.139-0.081-0.829 0.362-0.258-0.273-0.516 0.277-0.565-0.361-0.645 0.139-0.621-0.417-0.356-0.054-0.66-0.582-0.222-0.232-0.573-0.655-0.008-0.322-0.427-0.44 0.031-0.491-0.055-0.276-0.204-0.404 0.266-0.488-0.253-0.969 0.368 0.632-0.55 0.655-0.104 0.501-0.129 0.677 0.223 0.596-0.151 0.576 0.338 0.609-0.031 0.3 0.537 0.605 0.069 0.327 0.593 0.38 0.211 0.103 0.763 0.34 0.322-0.151 0.668 0.399 0.505-0.371 0.542 0.398 0.339-0.51 0.453 0.518 0.541-0.627 0.205 0.407 0.579-0.512 0.09 0.335 0.636-0.576-0.008 0.291 0.477-0.634-0.076 0.151 0.687-0.479-0.42-0.163 0.833-0.329-0.599-0.179 0.747-0.406-0.549 0.011 0.782-0.449-0.704c0.093 0.399 0.075 0.836 0.337 1.213 0.811-0.109 1.341-0.314 1.964-0.913 0.565-0.545 1.242-1.682 1.426-2.404 0.209-0.82 0.215-2.333 0.011-3.172-0.199-0.805-0.457-1.19-0.918-1.848-0.44-0.465-0.873-0.962-1.431-1.293-0.818-0.491-1.87-0.622-2.803-0.61a3.294 3.294 0 0 0-1.173 0.22c-0.539 0.194-0.972 0.624-1.521 0.837-0.179 0.069-0.322 0.07-0.464-0.004 0.138 0.276 0.286 0.399 0.634 0.501 0.249 0.072 0.843 0.026 1.254-0.012 0.44-0.041 0.669-0.171 1.266-0.164 0.583 0.01 1.047 0.23 1.301 0.377 0.523 0.299 0.897 0.628 1.224 1.156 0.179 0.286 0.305 0.614 0.391 0.945 0.088 0.331 0.127 0.704 0.133 1.029 0.006 0.325-0.019 0.616-0.099 0.908-0.186 0.684-0.596 1.381-1.439 1.274-0.516-0.064-1.292-1.033-1.553-1.389-0.526-0.717-1.066-1.511-1.725-2.107a2.646 2.646 0 0 0-1.497-0.665c-1.015-0.092-1.316 0.101-2.079 0.733 0.153 0.048 0.307 0.076 0.465 0.148 0.354 0.16 0.677 0.365 0.959 0.629 0.297 0.276 0.43 0.452 0.44 0.848 0.007 0.265-0.209 0.476-0.409 0.664-0.12 0.117-0.28 0.223-0.378 0.314-0.131 0.12-0.293 0.252-0.128 0.442 0.061 0.072 0.169 0.126 0.258 0.193 0.143 0.105 0.077 0.499-0.111 0.606a0.624 0.624 0 0 1-0.729-0.063c0.252-0.036 0.411-0.07 0.404-0.276-0.002-0.118-0.153-0.218-0.304-0.286-0.358-0.164-0.628-0.137-0.985-0.395-0.361-0.26-0.368-0.402-0.465-0.808-0.174 0.017-0.334 0.02-0.567 0.099-0.231 0.076-0.489 0.26-0.7 0.306-0.532 0.113-0.637 0.08-0.928 0.006-0.512-0.135-1.176 0.092-1.841 0.306-0.109 0.034-0.555 0-0.855 0.104a5.644 5.644 0 0 0-1.49 0.873c-0.569 0.48-1.315 1.912-1.737 3.557-0.046 0.501 0.097 0.836-0.218 1.079-0.315 0.245-0.307 0.87-0.414 1.046-0.105 0.174-0.23 0.096-0.461 0.344-0.228 0.245-0.345 0.206-0.339 0.669 0.199-0.128 0.488-0.279 0.741-0.292 0.225-0.006 0.227 0.289 0.803-0.279 0.307-0.306 0.9-0.316 1.313-0.449 0.411-0.133 1.151-0.411 1.892-1.238 0.742-0.829 1.097-1.702 1.241-2.962 0.02 0.22 0.061 0.474-0.034 1.089-0.097 0.618-0.303 1.309 0.133 2.14l0.27 0.516c-0.161-0.22-0.476-0.579-0.573-0.834l-0.215-0.59c-0.491 0.769-0.604 0.905-1.284 1.455-0.027 0.342-0.034 0.698 0.077 1.025 0.11 0.327-0.065 0.704 0.021 0.921 0.084 0.215 0.279 0.092 0.344 0.31s-0.033 0.65 0.065 0.861c0.102 0.212 0.345 0.084 0.463 0.154 0.118 0.068 0.158 0.162 0.22 0.251 0.064 0.09-0.024 0.304 0.106 0.374 0.129 0.068 0.327 0.01 0.463 0.075 0.133 0.068 0.153 0.228 0.123 0.37-0.034 0.144-0.177 0.21-0.24 0.356a0.373 0.373 0 0 0 0.021 0.381c0.076 0.134 0.241 0.206 0.409 0.276 0.166 0.065 0.399 0.028 0.572 0.123 0.173 0.092 0.327 0.278 0.417 0.414a0.554 0.554 0 0 1 0.112 0.372 1.062 1.062 0 0 1-0.14 0.444c-0.076 0.138-0.241 0.307 0.02 0.567 0.26 0.26 0.252 0.148 0.402 0.32-0.017-0.296-0.138-0.532-0.051-0.754 0.091-0.222 0.358-0.262 0.496-0.36 0.142-0.102 0.224-0.237 0.334-0.356 0 0.151 0.015 0.317-0.003 0.429-0.034 0.232-0.104 0.442 0.243 0.478 0.157 0.016 0.306-0.084 0.468-0.143-0.086 0.15-0.235 0.276-0.257 0.46a0.811 0.811 0 0 0 0.133 0.573c0.126 0.184 0.348 0.319 0.509 0.424 0.162 0.107 0.25 0.118 0.373 0.178 0.006 0.18-0.031 0.371-0.01 0.542a0.984 0.984 0 0 0 0.174 0.465c0.1 0.143 0.258 0.225 0.407 0.327-0.082-0.192-0.248-0.373-0.245-0.573 0.002-0.202 0.061-0.343 0.257-0.521 0.194-0.179 0.655-0.332 0.87-0.507a1.054 1.054 0 0 0 0.363-0.446c0.077-0.168 0.056-0.44 0.072-0.589 0.07 0.21 0.08 0.276 0.104 0.497 0.02 0.222-0.13 0.533-0.194 0.696a1.043 1.043 0 0 0 0.521-0.537c0.059 0.036 0.031 0.128 0.051 0.308 0.096-0.094 0.205-0.166 0.3-0.256 0.096-0.09 0.199-0.168 0.249-0.294 0.047-0.123 0.028-0.258-0.007-0.402-0.036-0.146-0.197-0.314-0.287-0.473-0.085-0.155 0.017-0.312 0.01-0.503-0.174-0.03-0.32-0.12-0.521-0.09-0.2 0.031-0.43 0.254-0.637 0.257-0.205 0-0.321-0.192-0.489-0.243-0.169-0.054-0.338-0.046-0.506-0.072 0.215-0.204 1.043-0.302 1.612-0.394a10.018 10.018 0 0 1 1.504-0.136c0.225-0.006 0.518 0.07 0.675 0.026 0.157-0.046 0.123-0.153 0.169-0.27 0.133-0.325 0.068-0.618-0.004-0.945-0.454-0.054-0.929-0.118-1.387-0.084-0.448 0.034-0.978 0.248-1.443 0.262-0.399 0.014-0.997-0.076-1.34-0.287-0.423-0.256-0.749-0.808-0.865-0.988-0.188-0.286-0.425-0.855-0.573-1.113-0.143-0.26-0.175-0.331-0.296-0.44-0.119-0.107-0.282-0.116-0.427-0.173 0.164 0.014 0.344-0.036 0.493 0.048 0.225 0.13 0.476 0.663 0.615 0.897 0.148-0.497 0.113-0.691 0.542-0.972-0.345 0.387-0.355 0.68-0.439 1.135 0.286 0.471 0.685 1.22 1.207 1.428 0.19 0.076 0.513 0.123 0.716 0.149 0.636 0.078 1.248-0.122 1.872-0.277 0.454-0.113 0.917-0.068 1.47-0.035 0.187 0.012 0.63-0.102 0.723-0.29a0.338 0.338 0 0 0-0.024-0.337c-0.072-0.107-0.261-0.162-0.364-0.26-0.102-0.1-0.16-0.215-0.24-0.321a6.659 6.659 0 0 1-1.086 0.117c0.225-0.092 0.443-0.143 0.675-0.235 0.242-0.1 0.474-0.224 0.691-0.367 0.19-0.126 0.31-0.197 0.448-0.342 0.136-0.146 0.311-0.296 0.413-0.474 0.102-0.178 0.117-0.377 0.122-0.597 0.004-0.22-0.005-0.528-0.09-0.706-0.086-0.177-0.249-0.231-0.378-0.271-0.131-0.041-0.222 0.064-0.358 0.078-0.137 0.014-0.264 0.098-0.463 0.006a1.718 1.718 0 0 1-0.631-0.56c-0.2-0.28-0.343-0.739-0.546-1.092-0.351-0.61-0.788-1.176-1.207-1.741a3.47 3.47 0 0 1-0.102-0.519c-0.033-0.329-0.037-0.671 0.065-0.993 0.077-0.245 0.192-0.504 0.448-0.604a0.491 0.491 0 0 1 0.325-0.023c0.092 0.033 0.184 0.138 0.145 0.258-0.041 0.132-0.13 0.137-0.192 0.203a0.709 0.709 0 0 0-0.188 0.337c0.113-0.004 0.268-0.011 0.362 0.013 0.123 0.031 0.235 0.113 0.297 0.286-0.145-0.129-0.217-0.189-0.399-0.192-0.084-0.002-0.184 0.027-0.276 0.04-0.035 0.111-0.055 0.25-0.102 0.338-0.051 0.086-0.145 0.064-0.181 0.164a1.015 1.015 0 0 0-0.021 0.401h0.004z m1.271-0.154c0.057 0.023 0.077 0.029 0.149 0.082 0.072 0.054 0.169 0.107 0.225 0.235a0.898 0.898 0 0 1 0.041 0.409c-0.049-0.015-0.116-0.005-0.167-0.048-0.051-0.044-0.082-0.143-0.146-0.184-0.066-0.044-0.12-0.035-0.192-0.044 0.039 0.098 0.051 0.204 0.036 0.307-0.037 0.209-0.16 0.315-0.36 0.338-0.086 0.013-0.225-0.015-0.298-0.029 0.035 0.077 0.092 0.146 0.129 0.224 0.168-0.024 0.292-0.02 0.383-0.062 0.09-0.042 0.187-0.138 0.303-0.177 0.116-0.041 0.219-0.041 0.346-0.062-0.1 0.087-0.166 0.172-0.266 0.26l0.22 0.637c0.155 0.098 0.301 0.149 0.496 0.269 0.194 0.119 0.43 0.334 0.685 0.451 0.254 0.115 0.404 0.18 0.671 0.229 0.266 0.051 0.478 0.268 0.739 0.301 0.261 0.033 0.752 0.042 0.953 0.022 0.23-0.02 0.528-0.138 0.554-0.389-0.192 0.045-0.486 0.004-0.633-0.358-0.065-0.16-0.035-0.456-0.135-0.644-0.101-0.191-0.241-0.252-0.409-0.486-0.168-0.235-0.44-0.604-0.593-0.916-0.153-0.315-0.192-0.669-0.32-0.951-0.131-0.279-0.326-0.505-0.48-0.723-0.33-0.474-0.597-0.795-1.146-1.034-0.263-0.115-0.563-0.146-0.842-0.218-0.116 0.051-0.274 0.106-0.301 0.242a0.548 0.548 0 0 0 0.122 0.43c0.164 0.17 0.404 0.351 0.499 0.618 0.061 0.172 0.078 0.747 0.025 0.903-0.055 0.164-0.182 0.263-0.288 0.368z m0.053 1.363c-0.051 0.044-0.089 0.089-0.171 0.125-0.082 0.037-0.194 0.046-0.302 0.071 0.151 0.237 0.312 0.478 0.458 0.726 0.146 0.248 0.272 0.522 0.409 0.782-0.006-0.15 0.003-0.308-0.019-0.447-0.02-0.139-0.085-0.26-0.148-0.472-0.061-0.211-0.138-0.495-0.227-0.785z m-4.092-5.204a3.396 3.396 0 0 0 0.067 0.825c0.059 0.273 0.113 0.413 0.335 0.577 0.405 0.302 0.663 0.251 0.977 0.425 0.148 0.082 0.336 0.222 0.391 0.367 0.054 0.149-0.037 0.307-0.149 0.372 0.196 0.03 0.417-0.194 0.325-0.42-0.046-0.113-0.261-0.164-0.328-0.277a0.419 0.419 0 0 1-0.033-0.343c0.054-0.207 0.464-0.397 0.61-0.558 0.223-0.254 0.307-0.463 0.181-0.788-0.176-0.455-0.861-0.822-1.27-1.002-0.187-0.082-0.294-0.085-0.44-0.131 0.3 0.178 0.616 0.317 0.767 0.706 0.127 0.327 0.016 0.454 0.023 0.736 0.002 0.133 0.176 0.202 0.254 0.284 0.065 0.074 0.061 0.128 0.008 0.228a0.262 0.262 0 0 0-0.113-0.205c-0.116-0.082-0.24-0.063-0.302-0.229-0.092-0.254 0.092-0.495-0.114-0.78-0.153-0.213-0.361-0.451-0.639-0.457a1.098 1.098 0 0 0-0.369 0.06l-0.187-0.225-0.005-0.004c-0.381-0.348-0.64-0.634-1.172-0.871-0.534-0.239-0.798-0.276-1.412-0.262-0.61 0.013-1.217 0.064-1.925 0.675-0.71 0.614-2.537 2.954-2.982 3.25-0.44 0.296-0.539 0.398-1.092 0.398-0.552 0-1.419-0.784-1.453-1.763-0.033-0.978-0.046-1.327 0.635-2.506 0.68-1.177 1.91-1.538 2.825-1.661 0.915-0.123 1.465 0.198 2.14 0.2 0.675 0.002 1.344-0.113 1.542-0.652-0.097 0.057-0.226 0.123-0.59 0.102-0.363-0.018-0.869-0.44-1.434-0.721C7.546 0.285 6.915 0.251 6.107 0.237c-0.808-0.015-1.818 0.046-2.818 0.587C2.29 1.361 1.606 1.934 1.026 2.992 0.445 4.049 0.358 4.91 0.453 6.191 0.545 7.468 0.941 8.419 1.7 9.36c0.761 0.935 1.519 1.394 2.888 1.564l0.289-1.27-0.515 0.736 0.014-0.82-0.465 0.578-0.207-0.785-0.375 0.629-0.187-0.874-0.548 0.441 0.174-0.721-0.723 0.08 0.331-0.502-0.658 0.006 0.383-0.668-0.583-0.093 0.465-0.61-0.714-0.21 0.591-0.568-0.586-0.478 0.458-0.356-0.43-0.573 0.459-0.532-0.171-0.699 0.388-0.338 0.115-0.803 0.436-0.219 0.373-0.624 0.693-0.074 0.341-0.566 0.696 0.036 0.657-0.356 0.681 0.157 0.773-0.233 0.575 0.133 0.747 0.111 0.722 0.577-1.105-0.386-0.557 0.266-0.461-0.279-0.317 0.214-0.562 0.058-0.503-0.031-0.367 0.446-0.748 0.007-0.266 0.604-0.665 0.232-0.062 0.693-0.478 0.375 0.158 0.651-0.41 0.68 0.317 0.593-0.312 0.542 0.412 0.27-0.092 0.873 0.576 0.143 0.128 0.648 0.627-0.064 0.389 0.444 0.481-0.472c0.879-0.438 1.241-0.683 1.926-1.423 0.777-0.842 1.223-1.62 2.258-2.196 0.747-0.414 1.35-0.564 2.188-0.417 0.784 0.135 1.047 0.607 1.627 1.102 0.061-0.113 0.072-0.143 0.171-0.223-0.031 0.145-0.082 0.294-0.095 0.432z"/></svg>