<svg fill="#1BDBDB" role="img" viewBox="0 0 27 24" xmlns="http://www.w3.org/2000/svg"><title>GoDaddy</title><path d="M23.274 1.095c-2.801-1.745-6.49-1.333-9.779 0.734C10.216-0.237 6.525-0.651 3.728 1.095c-4.426 2.766-4.964 9.891-1.201 15.912 2.774 4.441 7.113 7.041 10.973 6.992 3.863 0.048 8.2-2.553 10.974-6.992 3.759-6.021 3.226-13.145-1.2-15.912zM4.562 15.739a14.419 14.419 0 0 1-1.737-3.978 11.366 11.366 0 0 1-0.377-3.749c0.168-2.224 1.074-3.958 2.55-4.88 1.477-0.923 3.428-0.977 5.506-0.154 0.316 0.127 0.624 0.27 0.927 0.429A16.971 16.971 0 0 0 8.446 6.991c-2.286 3.656-2.982 7.725-2.185 10.968a14.878 14.878 0 0 1-1.7-2.224z m19.616-3.978a14.451 14.451 0 0 1-1.738 3.976 14.882 14.882 0 0 1-1.699 2.229c0.713-2.908 0.228-6.469-1.52-9.81a0.438 0.438 0 0 0-0.632-0.172l-5.45 3.406a0.446 0.446 0 0 0-0.141 0.613l0.8 1.279a0.444 0.444 0 0 0 0.614 0.142l3.532-2.207c0.113 0.344 0.228 0.681 0.315 1.028 0.332 1.22 0.46 2.487 0.376 3.748-0.168 2.226-1.074 3.959-2.55 4.883a4.983 4.983 0 0 1-2.527 0.73h-0.113a4.978 4.978 0 0 1-2.527-0.73c-1.476-0.923-2.382-2.656-2.55-4.883-0.083-1.261 0.044-2.528 0.376-3.748a14.839 14.839 0 0 1 4.549-7.28 11.398 11.398 0 0 1 3.2-1.982c2.072-0.823 4.028-0.769 5.504 0.154 1.478 0.923 2.383 2.656 2.55 4.88a11.396 11.396 0 0 1-0.37 3.744z"/></svg>