<svg fill="#478CBF" role="img" viewBox="0 0 26 24" xmlns="http://www.w3.org/2000/svg"><title>Godot Engine</title><path d="M10.413 0.001c-1.162 0.259-2.313 0.618-3.391 1.161 0.024 0.952 0.086 1.864 0.211 2.791-0.419 0.268-0.859 0.498-1.249 0.812-0.398 0.305-0.804 0.598-1.164 0.956-0.719-0.475-1.48-0.921-2.263-1.316C1.712 5.313 0.921 6.294 0.277 7.393c0.486 0.786 0.992 1.522 1.539 2.22h0.015v6.74c0.013 0 0.024 0 0.037 0.003l4.131 0.399c0.216 0.021 0.386 0.195 0.401 0.412l0.127 1.824 3.605 0.256 0.248-1.682c0.032-0.218 0.219-0.38 0.44-0.38h4.359c0.221 0 0.408 0.161 0.44 0.38l0.248 1.682 3.604-0.256 0.128-1.824a0.445 0.445 0 0 1 0.4-0.412l4.131-0.399c0.013 0 0.024-0.003 0.037-0.003v-0.538h0.002V9.614h0.015c0.547-0.699 1.054-1.435 1.539-2.22-0.645-1.098-1.436-2.079-2.281-2.989-0.784 0.394-1.545 0.841-2.264 1.316-0.359-0.357-0.764-0.65-1.162-0.956-0.391-0.314-0.831-0.544-1.249-0.812 0.124-0.927 0.186-1.839 0.211-2.791-1.078-0.543-2.228-0.902-3.391-1.161-0.464 0.78-0.889 1.625-1.258 2.452-0.439-0.073-0.879-0.1-1.322-0.105h-0.017c-0.442 0.005-0.882 0.032-1.321 0.105-0.37-0.826-0.794-1.671-1.259-2.452l0.001-0.001zM7.144 9.868c1.375 0 2.491 1.114 2.49 2.489s-1.115 2.49-2.49 2.49c-1.374 0-2.49-1.114-2.49-2.49 0-1.375 1.114-2.49 2.49-2.489z m11.715 0c1.374 0 2.49 1.114 2.489 2.489s-1.114 2.49-2.489 2.49-2.491-1.114-2.491-2.49c0-1.375 1.114-2.49 2.491-2.489z m-11.477 0.986c-0.913 0-1.653 0.74-1.653 1.653s0.74 1.652 1.653 1.652c0.913 0 1.653-0.74 1.653-1.652 0-0.912-0.739-1.653-1.653-1.653z m11.237 0c-0.913 0-1.652 0.74-1.652 1.653s0.739 1.652 1.652 1.652c0.913 0 1.653-0.74 1.653-1.652 0-0.912-0.739-1.653-1.653-1.653z m-5.618 0.48c0.442 0 0.803 0.327 0.803 0.729v2.292c0 0.402-0.359 0.728-0.803 0.729s-0.802-0.327-0.802-0.729V12.063c0-0.402 0.359-0.728 0.802-0.729zM1.825 17.245c0.002 0.4 0.006 0.837 0.006 0.923 0 3.924 4.977 5.81 11.162 5.832h0.014c6.184-0.021 11.16-1.908 11.161-5.832 0-0.089 0.005-0.525 0.007-0.923l-3.713 0.358-0.129 1.833a0.446 0.446 0 0 1-0.412 0.414l-4.433 0.314a0.446 0.446 0 0 1-0.44-0.38l-0.253-1.711h-3.59l-0.252 1.711a0.444 0.444 0 0 1-0.472 0.379l-4.402-0.314c-0.221-0.016-0.398-0.192-0.412-0.413l-0.128-1.833-3.715-0.357z"/></svg>