<svg fill="#00B964" role="img" viewBox="0 0 32 24" xmlns="http://www.w3.org/2000/svg"><title>GoFundMe</title><path d="M28.687 1.558l-5.566 4.048c-0.883 0.645-1.071 1.875-0.437 2.758 0.645 0.883 1.875 1.072 2.759 0.437l5.565-4.049c0.883-0.645 1.071-1.875 0.437-2.758a1.962 1.962 0 0 0-2.758-0.436z m-12.72-1.558c-1.091 0-1.975 0.883-1.974 1.974v3.324c0 1.091 0.883 1.974 1.974 1.975 1.091 0 1.974-0.883 1.975-1.975V1.974c0-1.091-0.883-1.974-1.975-1.974zM0.559 1.994c-0.645 0.883-0.447 2.113 0.436 2.758L6.562 8.8c0.883 0.645 2.113 0.446 2.758-0.436 0.645-0.883 0.447-2.113-0.437-2.758L3.317 1.558c-0.893-0.635-2.123-0.447-2.758 0.436z m4.872 10.269C8.229 9.763 11.92 8.235 15.967 8.235c4.048 0 7.739 1.528 10.537 4.028z m19.189 2.154c-1.776 0-2.948 0.584-3.692 1.308-0.784 0.774-1.349 1.985-1.349 3.493 0 1.716 0.744 2.827 1.33 3.413 1.111 1.111 2.539 1.369 3.73 1.369 1.955 0 3.006-0.605 3.67-1.25 0.665-0.645 0.954-1.35 1.092-1.855H26.316c-0.139 0.278-0.368 0.486-0.566 0.605-0.406 0.218-0.971 0.239-1.051 0.239-0.724 0-1.132-0.248-1.33-0.447-0.387-0.377-0.566-1.023-0.566-1.509h6.717v-0.347c0-1.002-0.158-2.58-1.429-3.79-1.072-1.012-2.42-1.229-3.471-1.229z m0.079 2.053c0.318 0 0.902 0.059 1.329 0.486 0.248 0.248 0.446 0.625 0.526 0.973h-3.652c0.06-0.407 0.269-0.735 0.487-0.973 0.338-0.347 0.764-0.486 1.31-0.486z m-22.215-1.786h3.224v1.091c0.764-0.923 1.815-1.25 2.699-1.25 0.645 0 1.25 0.139 1.736 0.407 0.665 0.347 1.032 0.843 1.25 1.29 0.367-0.645 0.824-1.032 1.231-1.25 0.645-0.367 1.27-0.447 1.875-0.447 0.664 0 1.756 0.099 2.5 0.824 0.804 0.784 0.843 1.855 0.843 2.48v5.874h-3.224v-4.455c0-0.953-0.099-1.597-0.466-1.935-0.179-0.159-0.427-0.298-0.843-0.297-0.367 0-0.665 0.099-0.953 0.367-0.546 0.526-0.585 1.27-0.585 1.716v4.624H8.546v-4.455c0-0.863-0.06-1.558-0.427-1.935-0.278-0.298-0.645-0.367-0.972-0.367-0.347 0-0.625 0.059-0.883 0.327-0.566 0.546-0.566 1.409-0.565 1.975v4.455H2.474v-9.039Z"/></svg>