<svg fill="#86328A" role="img" viewBox="0 0 26 24" xmlns="http://www.w3.org/2000/svg"><title>GOG.com</title><path d="M7.904 15.405H4.972a0.42 0.42 0 0 0-0.42 0.42v2.101c0 0.221 0.189 0.42 0.42 0.421h2.942v1.387h-3.678c-0.588 0-1.072-0.483-1.071-1.083v-3.562c0-0.588 0.483-1.072 1.082-1.071h3.657v1.387zM8.965 11.517c0 0.609-0.494 1.103-1.103 1.103H3.154v-1.419h3.972a0.42 0.42 0 0 0 0.42-0.42V6.105a0.42 0.42 0 0 0-0.42-0.42H5.004a0.42 0.42 0 0 0-0.431 0.42v2.123c0 0.242 0.189 0.42 0.42 0.42H6.695v1.419H4.257c-0.609 0-1.103-0.483-1.103-1.093V5.359c0-0.599 0.494-1.093 1.103-1.093H7.851c0.609 0 1.103 0.494 1.103 1.093v6.158zM22.835 19.734h-1.387v-4.329h-0.977a0.42 0.42 0 0 0-0.42 0.42v3.909h-1.398v-4.329h-0.977a0.42 0.42 0 0 0-0.42 0.42v3.909h-1.398v-4.645c0-0.588 0.483-1.072 1.082-1.071h5.895v5.716zM22.846 11.517c0 0.609-0.494 1.103-1.103 1.103h-4.708v-1.419h3.972a0.42 0.42 0 0 0 0.42-0.42V6.105a0.42 0.42 0 0 0-0.42-0.42h-2.133a0.42 0.42 0 0 0-0.42 0.42v2.123c0 0.242 0.189 0.42 0.42 0.42h1.702v1.419H18.149c-0.609 0-1.103-0.483-1.103-1.093V5.359c0-0.599 0.494-1.093 1.103-1.093h3.604c0.609 0 1.103 0.494 1.103 1.093v6.158zM14.807 4.266h-3.614c-0.609 0-1.093 0.494-1.093 1.093v3.615c0 0.609 0.483 1.093 1.093 1.093h3.614c0.599 0 1.093-0.483 1.093-1.093V5.359c0-0.599-0.494-1.093-1.093-1.093m-0.315 1.839v2.123a0.42 0.42 0 0 1-0.42 0.42h-2.133a0.42 0.42 0 0 1-0.421-0.42V6.116c0-0.231 0.179-0.42 0.421-0.421H14.051c0.242 0 0.42 0.189 0.42 0.421zM13.662 14.018H10.1c-0.599 0-1.082 0.483-1.082 1.071v3.562c0 0.599 0.483 1.082 1.082 1.083h3.562c0.599 0 1.082-0.483 1.082-1.083v-3.562c0-0.588-0.483-1.072-1.082-1.071m-0.315 1.807v2.101a0.42 0.42 0 0 1-0.421 0.421v-0.011H10.835a0.42 0.42 0 0 1-0.42-0.42v-2.091c0-0.231 0.189-0.42 0.42-0.42h2.102c0.231 0 0.42 0.189 0.42 0.42zM25.074 0.546a1.828 1.828 0 0 0-1.303-0.546H2.229A1.828 1.828 0 0 0 0.391 1.839v20.322a1.828 1.828 0 0 0 1.838 1.839h21.542A1.828 1.828 0 0 0 25.609 22.161V1.839c0-0.504-0.21-0.967-0.535-1.303m0 21.625a1.292 1.292 0 0 1-1.303 1.303H2.229A1.292 1.292 0 0 1 0.916 22.161V1.839a1.292 1.292 0 0 1 1.303-1.303h21.541a1.303 1.303 0 0 1 1.303 1.303v20.322z"/></svg>