<svg fill="#00AA13" role="img" viewBox="0 0 26 24" xmlns="http://www.w3.org/2000/svg"><title>Gojek</title><path d="M13.077 0.002a16.349 16.349 0 0 0-0.684 0.012C5.896 0.305 0.61 5.447 0.263 11.806c-0.283 5.222 2.708 9.79 7.146 11.91 1.655 0.791 3.619-0.202 3.939-1.978 0.216-1.197-0.406-2.382-1.519-2.915-2.522-1.211-4.216-3.829-4.016-6.809 0.234-3.487 3.116-6.319 6.675-6.56 4.208-0.284 7.714 2.973 7.714 7.036 0 2.788-1.651 5.196-4.049 6.341a2.669 2.669 0 0 0-1.483 2.876l0.012 0.06c0.314 1.748 2.244 2.74 3.872 1.968C22.815 21.714 25.756 17.439 25.756 12.49 25.752 5.617 20.084 0.04 13.077 0v0.002Zm-0.065 8.094c-2.478 0-4.491 1.973-4.491 4.399 0 2.426 2.013 4.398 4.491 4.398 2.477 0 4.491-1.972 4.491-4.398 0-2.427-2.014-4.4-4.491-4.399Z"/></svg>