<svg fill="#7399C6" role="img" viewBox="0 0 56 24" xmlns="http://www.w3.org/2000/svg"><title>Goldman Sachs</title><path d="M4.608 5.624h3.384v5.542c-1.128 0.228-1.993 0.345-2.941 0.345C1.341 11.511 0.033 9.385 0.033 5.887c0-3.762 1.813-5.887 5.428-5.887 0.457 0 1.321 0.033 2.401 0.196v3.547h-0.783l-0.443-1.357c-0.426-1.289-0.932-1.927-1.734-1.927-1.389 0-2.125 1.878-2.126 5.395 0 3.531 0.294 5.197 2.107 5.197 0.247 0 0.538-0.033 0.818-0.111V6.817l-1.093-0.753v-0.44Zm3.319 14.873c0 2.223-1.517 3.498-4.2 3.498-0.734 0-1.813-0.112-2.827-0.277v-4.346h0.786l0.326 1.027c0.734 2.37 1.258 3.153 2.191 3.154 0.981 0 1.683-0.865 1.682-2.009 0-0.93-0.44-1.585-1.386-2.093l-1.636-0.881c-1.261-0.669-1.946-1.715-1.946-2.99 0-1.93 1.585-3.09 4.185-3.091 0.587 0 1.275 0.051 2.368 0.199v3.544h-0.785l-0.438-1.354c-0.443-1.44-0.916-1.962-1.781-1.962-0.967 0-1.538 0.62-1.538 1.519 0 0.799 0.443 1.373 1.307 1.863l1.65 0.929c1.389 0.785 2.042 1.832 2.042 3.27Zm7.227 2.568l0.326 0.492v0.247H12.982l-0.117-0.948c-0.261 0.718-0.949 1.144-1.831 1.144-1.307 0-2.125-0.818-2.126-2.158 0-1.307 0.734-2.174 2.99-3.055l0.965-0.376v-1.223c0-1.079-0.198-1.52-0.802-1.52-0.489 0-0.767 0.261-1.242 1.452l-0.538 1.336h-0.734v-2.667c0.965-0.294 1.93-0.489 2.761-0.489 1.846 0 2.846 0.881 2.846 2.484v5.281Zm0.944-15.903c0 2.778-1.485 4.349-3.4 4.349-1.911 0-3.396-1.571-3.396-4.349 0-2.78 1.485-4.349 3.4-4.349 1.911 0 3.396 1.568 3.396 4.349Zm-3.233 14.531v-2.827l-0.31 0.13c-0.965 0.394-1.326 1.275-1.326 2.566 0 0.965 0.231 1.52 0.767 1.52 0.538 0 0.869-0.524 0.869-1.389Zm0.832-14.531c0-3.139-0.261-3.971-0.995-3.971s-0.997 0.832-0.997 3.971c0 3.137 0.263 3.971 0.997 3.971s0.995-0.834 0.995-3.971Zm8.206 14.61l0.294 0.149c-0.522 1.506-1.191 2.074-2.484 2.074-2.107 0-3.284-1.582-3.284-4.346 0-2.762 1.373-4.349 3.612-4.349 0.601 0 1.405 0.098 2.091 0.373v2.78h-0.767l-0.308-1.046c-0.41-1.389-0.636-1.748-1.046-1.748-0.655 0-1.177 0.851-1.177 4.088 0 2.596 0.392 3.545 1.387 3.545 0.669 0.002 1.24-0.422 1.682-1.52Zm-1.815-10.46H17.144v-0.242l0.329-0.492V1.457l-0.329-0.49V0.72l2.618-0.196v10.052l0.326 0.492v0.244Zm4.022 0.199c-1.799 0-2.878-1.636-2.878-4.431 0-2.778 1.126-4.265 2.86-4.265 0.883 0 1.373 0.343 1.584 1.028V1.457l-0.328-0.49V0.72l2.617-0.196v10.052l0.326 0.492v0.242h-2.321l-0.179-1.242c-0.259 1.065-0.748 1.443-1.681 1.443Zm5.736 11.554l0.326 0.492v0.247H27.231v-0.247l0.326-0.492v-5.884c0-0.701-0.212-1.126-0.72-1.126-0.606 0-1.046 0.508-1.046 1.503v5.507l0.328 0.492v0.247H23.176v-0.247l0.326-0.492v-9.121l-0.326-0.49v-0.244l2.615-0.196v3.381c0.296-0.701 0.965-1.093 1.911-1.093 1.342 0 2.142 0.851 2.141 2.501v5.262h0.003Zm-6.209-15.954c0 2.943 0.261 3.841 0.981 3.84 0.897 0 1.06-1.291 1.061-3.873 0-2.501-0.179-3.743-1.047-3.743-0.734 0-0.995 0.883-0.995 3.776Zm16.41 3.465l0.326 0.492v0.242h-2.941V11.068l0.326-0.492V4.512c0-0.587-0.196-0.949-0.655-0.949-0.569 0-1.028 0.51-1.028 1.487v5.526l0.327 0.492v0.242h-2.942V11.068l0.327-0.492V4.512c0-0.587-0.196-0.949-0.653-0.949-0.571 0-1.03 0.51-1.03 1.487v5.526l0.329 0.492v0.242h-2.944V11.068l0.326-0.492V3.925l-0.326-0.394v-0.243l2.354-0.279h0.196l0.065 0.916c0.277-0.72 0.965-1.112 1.897-1.112 0.995 0 1.65 0.489 1.944 1.373 0.245-0.851 1.014-1.373 1.995-1.373 1.289 0 2.107 0.851 2.107 2.498v5.265Zm-3.056 10.823c0 1.419-0.916 2.596-3.12 2.596-0.571 0-1.34-0.065-2.534-0.277v-3.039h0.669l0.212 0.655c0.522 1.666 1.028 2.289 1.83 2.288 0.753 0 1.242-0.541 1.242-1.375 0-0.685-0.343-1.158-1.158-1.601l-1.406-0.752c-0.897-0.489-1.389-1.256-1.389-2.205 0-1.487 1.163-2.386 3.088-2.387 0.557 0 1.275 0.079 2.061 0.245v2.387h-0.669l-0.345-0.87c-0.392-1.046-0.767-1.387-1.387-1.386-0.669 0-1.063 0.392-1.063 1.046 0 0.555 0.329 0.93 1.128 1.387l1.387 0.785c0.946 0.541 1.454 1.307 1.454 2.503Zm10.576-10.823l0.327 0.492v0.242h-2.501l-0.112-0.948c-0.261 0.72-0.949 1.144-1.832 1.144-1.307 0-2.123-0.816-2.123-2.158 0-1.307 0.734-2.172 2.99-3.056l0.963-0.372v-1.226c0-1.079-0.196-1.52-0.8-1.52-0.492 0-0.767 0.263-1.242 1.454l-0.538 1.341h-0.739V3.307c0.967-0.296 1.93-0.492 2.762-0.492 1.846 0 2.846 0.883 2.845 2.485v5.276Zm-2.288-1.373V6.376l-0.31 0.131c-0.963 0.392-1.321 1.275-1.322 2.566 0 0.965 0.228 1.522 0.767 1.522 0.536 0 0.865-0.524 0.865-1.392Zm10.688 1.865v0.242h-2.944V11.068l0.329-0.492V4.691c0-0.704-0.212-1.128-0.72-1.128-0.606 0-1.046 0.51-1.047 1.506v5.507l0.326 0.492v0.242h-2.941V11.068l0.327-0.492V3.925l-0.327-0.394v-0.243l2.354-0.279h0.196l0.065 0.916c0.277-0.72 0.949-1.112 1.911-1.112 1.34 0 2.139 0.851 2.14 2.498v5.265L55.967 11.068Z"/></svg>