<svg fill="#4285F4" role="img" viewBox="0 0 28 24" xmlns="http://www.w3.org/2000/svg"><title>Google AdSense</title><path d="M25.357 7.987a4.398 4.398 0 0 0-6 1.602l-4.392 7.59a4.375 4.375 0 0 0 1.598 5.978l0.011 0.006a4.398 4.398 0 0 0 5.999-1.604l4.393-7.587a4.376 4.376 0 0 0-1.6-5.98l-0.009-0.005m-16.602 13.742c-1.22 2.132-3.969 2.917-6.081 1.687-2.112-1.231-2.861-3.902-1.641-6.035s3.946-2.921 6.06-1.689c2.112 1.231 2.884 3.904 1.664 6.035m4.666-21.716a4.444 4.444 0 0 0-3.69 2.472l-4.145 7.092a5.238 5.238 0 0 0-0.256 0.437l-3.101 5.35c1.519-0.971 3.49-1.121 5.138-0.162a5.033 5.033 0 0 1 2.508 4.564l3.128-5.379c0.093-0.14 0.177-0.285 0.253-0.435l4.145-7.094a4.359 4.359 0 0 0-1.449-6.268 4.47 4.47 0 0 0-2.53-0.577z"/></svg>