<svg fill="#458CF5" role="img" viewBox="0 0 27 24" xmlns="http://www.w3.org/2000/svg"><title>Google Search Console</title><path d="M9.68 0L7.781 1.899v1.861h1.899z m0 3.76v0.039H7.781v-0.039H3.968L0.221 7.401v3.958h3.127V8.614c0-0.581 0.475-1.056 1.056-1.056h18.232c0.581 0 1.056 0.476 1.056 1.056v2.744h3.047V7.401l-3.747-3.641H19.365v0.039h-1.9v-0.039z m7.785 0H19.365V1.899l-1.9-1.899zM9.825 0.035V1.864h7.495V0.035z m12.694 7.824a0.923 0.923 0 0 0-0.146 0.011l-0.601 0.002c-5.772 0.015-11.544-0.009-17.316 0.011-0.481-0.07-0.879 0.482-0.793 0.978v2.505h19.711c-0.018-0.983 0.05-1.972-0.037-2.95-0.115-0.378-0.473-0.556-0.818-0.556z m-17.066 0.702a0.772 0.762 90 0 1 0.762 0.772 0.772 0.762 90 0 1-0.762 0.771 0.772 0.762 90 0 1-0.762-0.771 0.772 0.762 90 0 1 0.762-0.772z m2.361 0a0.772 0.762 90 0 1 0.763 0.772 0.772 0.762 90 0 1-0.763 0.771 0.772 0.762 90 0 1-0.761-0.771 0.772 0.762 90 0 1 0.761-0.772zM0.261 11.607v10.132c0 1.162 0.949 2.111 2.11 2.112h0.977V11.607z m23.431 0v12.244h0.976c1.162 0 2.111-0.949 2.111-2.112v-10.132zM4.71 13.254v7.58h6.791v-7.58z m14.655 0.023v4.18l-1.89 1.081-1.89-1.081v-4.159a4.433 4.433 0 0 0 0 8.001v2.701h3.825v-2.702a4.433 4.433 0 0 0-0.045-8.021z m-14.655 9.141v1.582h8.77v-1.582z"/></svg>