<svg fill="#4285F4" role="img" viewBox="0 0 61 24" xmlns="http://www.w3.org/2000/svg"><title>Google Pay</title><path d="M10.263 0.001A9.979 9.979 0 0 0 1.346 5.5a9.979 9.979 0 0 0 0 8.962 9.979 9.979 0 0 0 8.917 5.499c2.694 0 4.961-0.886 6.614-2.41 1.883-1.737 2.971-4.306 2.972-7.342a11.89 11.89 0 0 0-0.177-2.03H10.265v3.843h5.389a4.621 4.621 0 0 1-1.99 3.034c-0.896 0.607-2.05 0.954-3.399 0.954-2.604 0-4.812-1.755-5.603-4.119a5.98 5.98 0 0 1 0-3.82c0.791-2.367 2.999-4.119 5.603-4.12a5.419 5.419 0 0 1 3.827 1.496l2.851-2.845a9.589 9.589 0 0 0-6.678-2.601z m16.369 1.385v17.374h2.231V11.722h3.689c1.518 0 2.795-0.494 3.833-1.481a4.812 4.812 0 0 0 1.599-3.686 4.835 4.835 0 0 0-1.599-3.666 5.351 5.351 0 0 0-3.833-1.506z m6.112 2.14a2.911 2.911 0 0 1 2.072 0.919 2.961 2.961 0 0 1 0 4.245 2.949 2.949 0 0 1-2.208 0.899H28.863V3.526h3.745a2.911 2.911 0 0 1 0.136 0z m10.384 2.959c-2.12 0-3.719 0.776-4.802 2.329l1.967 1.236c0.725-1.05 1.712-1.576 2.958-1.576a3.16 3.16 0 0 1 2.156 0.813 2.541 2.541 0 0 1 0.921 1.977v0.508c-0.856-0.486-1.949-0.728-3.273-0.727-1.554 0-2.795 0.365-3.724 1.093-0.932 0.725-1.395 1.705-1.395 2.933a3.717 3.717 0 0 0 1.322 2.911c0.881 0.776 1.977 1.166 3.286 1.166 1.536 0 2.765-0.68 3.689-2.04h0.095v1.649h2.136v-7.324c0-1.536-0.478-2.745-1.431-3.626-0.957-0.881-2.256-1.322-3.905-1.322z m5.698 0.387l4.9 11.135-2.764 5.993h2.304L60.716 6.87h-2.43l-3.444 8.538h-0.051l-3.54-8.536z m-5.403 5.963c1.244 0 2.216 0.277 2.91 0.831 0 0.937-0.37 1.753-1.108 2.45a3.558 3.558 0 0 1-2.51 1.043 2.722 2.722 0 0 1-1.737-0.585 1.783 1.783 0 0 1-0.738-1.455c0-0.647 0.302-1.183 0.914-1.629 0.604-0.436 1.36-0.655 2.266-0.655Z"/></svg>