<svg fill="#4285F4" role="img" viewBox="0 0 26 24" xmlns="http://www.w3.org/2000/svg"><title>Google Earth Engine</title><path d="M8.59 0.001a1.265 1.265 0 0 0-0.691 0.181L5.056 1.887c-0.564 0.337-0.778 1.046-0.496 1.641l0.989 2.082a9.802 9.802 0 0 0-1.856 3.271l-2.259 0.143A1.274 1.274 0 0 0 0.239 10.297v3.314a1.276 1.276 0 0 0 1.153 1.27l2.308 0.223a9.791 9.791 0 0 0 1.859 3.261l-1 2.107a1.274 1.274 0 0 0 0.496 1.641l2.843 1.705a1.276 1.276 0 0 0 1.706-0.369l1.298-1.884a9.805 9.805 0 0 0 2.096 0.23c0.034 0 0.068-0.004 0.102-0.004a9.831 9.831 0 0 0 1.995-0.226l1.297 1.883a1.276 1.276 0 0 0 1.708 0.37l2.843-1.705c0.564-0.337 0.778-1.046 0.496-1.641l-1-2.107c0.023-0.027 0.051-0.052 0.074-0.081 0.07-0.082 0.133-0.169 0.2-0.253a9.81 9.81 0 0 0 1.578-2.91l2.274-0.146A1.274 1.274 0 0 0 25.761 13.702v-3.313a1.276 1.276 0 0 0-1.153-1.27V9.118l-2.297-0.223a9.764 9.764 0 0 0-1.596-2.963c-0.067-0.085-0.132-0.17-0.202-0.253-0.019-0.023-0.041-0.046-0.062-0.069l0.989-2.082a1.274 1.274 0 0 0-0.496-1.641L18.101 0.182a1.276 1.276 0 0 0-1.707 0.369L15.116 2.404a9.751 9.751 0 0 0-2.016-0.233c-0.035 0-0.068-0.004-0.102-0.005a9.784 9.784 0 0 0-2.118 0.238L9.606 0.551a1.276 1.276 0 0 0-1.016-0.55z m4.411 4.129c0.61 0 1.202 0.077 1.774 0.209a7.88 7.88 0 0 1 5.725 5.31 7.827 7.827 0 0 1 0.353 2.332c0 0.812-0.123 1.595-0.353 2.332a7.877 7.877 0 0 1-5.725 5.308 7.862 7.862 0 0 1-1.774 0.212c-4.329 0-7.852-3.523-7.852-7.852 0-4.328 3.523-7.851 7.852-7.851zM12.901 5.619C10.403 5.619 9.203 6.903 9.203 6.903c3.723-1.677 5.562 3.175 7.127 4.664 1.565 1.489 3.07 0.216 3.07 0.216-0.013-0.837-0.268-1.63-0.268-1.63-1.029 0.179-1.487-0.525-2.095-1.332C16.428 8.015 14.66 5.619 12.901 5.619z m-4.083 3.433c-0.75 0.016-1.382 0.372-1.758 1.064-0.923 1.703-0.102 3.871-0.102 3.87s0.319-1.629 1.634-1.392c1.317 0.238 1.865 1.285 2.663 2.111 0.798 0.825 2.015 2.195 4.23 2.195 2.214 0 3.209-1.612 3.653-3.123v-0.002l-0.056 0.042c-1.345 1.042-3.547 0.938-4.837-0.292-0.946-0.9-1.492-2.029-2.27-2.85-1.043-1.104-2.196-1.643-3.159-1.623z"/></svg>