<svg fill="#34A853" role="img" viewBox="0 0 22 24" xmlns="http://www.w3.org/2000/svg"><title>Google Display &amp; Video 360</title><path d="M3.421 0.01a2.947 2.947 0 0 0-2.828 1.52 2.967 2.967 0 0 0 1.094 4.076l10.6 6.064 4.79-2.672a3.546 3.546 0 0 1 1.811-0.443L4.701 0.424A2.947 2.947 0 0 0 3.42 0.01ZM0.164 4.768v14.484a3.474 3.474 0 0 1 2.972-1.687 3.47 3.47 0 0 1 2.961 1.672l0.004-10.53L1.44 6.04a3.433 3.433 0 0 1-1.275-1.271Zm18.42 4.289a3.08 3.08 0 0 0-1.264 0.379L6.6 15.414c0.003 1.873-0.011 3.745 0.003 5.617 0 0.4-0.072 0.988-0.396 1.606l12.548-7.227 1.487-0.83a2.978 2.978 0 0 0 1.463-3.511 3.08 3.08 0 0 0-3.121-2.012ZM3.136 18.065A2.967 2.967 0 1 0 3.134 24a2.967 2.967 0 0 0 0.002-5.935z"/></svg>