<svg fill="#4285F4" role="img" viewBox="0 0 28 24" xmlns="http://www.w3.org/2000/svg"><title>Google Authenticator</title><path d="M8.325 0.002A2.266 2.266 0 0 0 7.248 0.305c-1.088 0.628-1.461 2.02-0.833 3.108L10.059 9.725H2.771C1.515 9.725 0.496 10.744 0.496 12c0 1.257 1.018 2.275 2.275 2.275H10.059l-3.644 6.312c-0.628 1.088-0.255 2.48 0.833 3.108 1.088 0.628 2.48 0.255 3.108-0.833L14 16.552l3.644 6.31c0.628 1.088 2.02 1.461 3.108 0.833 1.088-0.628 1.461-2.02 0.833-3.108l-3.644-6.312h7.288C26.485 14.275 27.504 13.256 27.504 12c0-1.257-1.018-2.275-2.275-2.275H17.941l3.644-6.312c0.628-1.088 0.255-2.48-0.833-3.108-1.088-0.628-2.48-0.255-3.108 0.833L14 7.448 10.356 1.138C9.924 0.39 9.132-0.019 8.325 0.002Zm11.207 1.132c0.217-0.014 0.442 0.036 0.651 0.156 0.556 0.321 0.739 0.998 0.417 1.554l-4.628 8.017h9.257c0.642 0 1.138 0.496 1.138 1.139s-0.496 1.138-1.138 1.138H17.286l-1.314-2.277-1.315-2.277 3.972-6.877c0.201-0.348 0.541-0.55 0.903-0.573z m-11.178 0.004c0.404-0.01 0.797 0.187 1.017 0.569l3.972 6.877-1.315 2.277-1.314 2.277H2.771c-0.642 0-1.138-0.496-1.138-1.138s0.496-1.138 1.138-1.139h9.258l-4.629-8.017c-0.321-0.556-0.139-1.233 0.417-1.554a1.113 1.113 0 0 1 0.537-0.152ZM11.374 14.275h5.252l3.974 6.881c0.321 0.556 0.139 1.233-0.417 1.554-0.556 0.321-1.233 0.139-1.554-0.417L14 14.279l-4.629 8.013c-0.321 0.556-0.998 0.739-1.554 0.418-0.556-0.321-0.739-0.998-0.417-1.554Z"/></svg>