<svg fill="#00897B" role="img" viewBox="0 0 30 24" xmlns="http://www.w3.org/2000/svg"><title>Google Meet</title><path d="M7.148 0.022L0.437 6.842h6.711z m0.483 0v6.82h9.233v4.43l6.638-5.4c-0.017-1.481 0.038-2.731-0.03-4.199-0.18-1.323-1.562-1.784-2.714-1.651zM28.471 2.68c-0.973 0.358-1.648 1.208-2.484 1.808-3.041 2.488-6.046 5-9.063 7.512 3.671 3.143 7.33 6.286 11.001 9.417 1.478 0.814 1.733-0.988 1.611-1.99v-15.776a1.005 1.005 0 0 0-1.064-1.002zM0.483 7.328v9.344h6.711v-9.344z m16.477 9.83H7.728v6.82c4.689-0.007 9.389 0.013 14.054-0.011 1.238-0.085 1.964-1.359 1.781-2.512v-3.046l-6.638-5.68v4.43z m-16.477 0c0.024 1.748-0.05 3.495 0.04 5.23 0.197 1.15 1.405 1.735 2.485 1.59h4.203v-6.82z"/></svg>