<svg fill="#0F9D58" role="img" viewBox="0 0 28 24" xmlns="http://www.w3.org/2000/svg"><title>Google Classroom</title><path d="M2 0C0.953 0 0.105 0.848 0.105 1.895v20.21c0 1.047 0.848 1.895 1.895 1.895h24c1.047 0 1.895-0.848 1.895-1.895V1.895c0-1.047-0.848-1.895-1.895-1.895H2z m0.631 2.526h22.738v18.948h-3.157v-1.262h-5.686v1.262h-13.895V2.526zM14 7.579c-1.047 0-1.895 0.848-1.895 1.895 0 1.047 0.848 1.895 1.895 1.895 1.047 0 1.895-0.848 1.895-1.895 0-1.047-0.848-1.895-1.895-1.895z m-5.052 2.211c-0.784 0-1.423 0.636-1.423 1.421 0 0.784 0.638 1.42 1.423 1.42 0.784 0 1.42-0.636 1.42-1.42 0-0.784-0.636-1.42-1.42-1.421z m10.104 0c-0.784 0-1.42 0.636-1.42 1.421 0 0.784 0.636 1.42 1.42 1.42 0.784 0 1.423-0.636 1.423-1.42 0-0.784-0.638-1.42-1.423-1.421zM14 12.631c-1.365 0-2.794 0.465-3.646 1.165-0.445-0.139-0.931-0.217-1.406-0.217-1.521 0-3.159 0.805-3.16 1.804v1.038h16.424v-1.038c0-1-1.638-1.805-3.16-1.804-0.475 0-0.962 0.078-1.406 0.217-0.852-0.7-2.28-1.165-3.646-1.165Z"/></svg>