<svg fill="#4285F4" role="img" viewBox="0 0 31 24" xmlns="http://www.w3.org/2000/svg"><title>Google Apps Script</title><path d="M15.961 0.001a3.978 3.978 0 0 0-0.477 0.028 3.633 3.633 0 0 0-2.015 1.05c-0.713 0.736-1.04 1.414-0.98 2.465-0.013 0.335 0.245 1.298 0.345 1.616 1.414 4.498 2.651 8.561 4.134 13.037 0.101 0.312 0.213 0.616 0.339 0.913 0.025 0.06 0.044 0.058 0.061-0.005 0.098-0.377 0.221-0.776 0.368-1.198 1.134-3.267 2.248-6.519 3.339-9.762a0.438 0.438 0 0 0 0.005-0.275 206.812 206.812 0 0 0-1.889-5.799 3.302 3.302 0 0 0-0.893-1.183c-0.698-0.583-1.479-0.88-2.337-0.888Zm11.515 0.149a3.468 3.468 0 0 0-3.651 2.318l-5.804 16.856a3.468 3.468 0 0 0 2.15 4.407l0.152 0.051a3.468 3.468 0 0 0 4.408-2.149L30.531 4.779a3.468 3.468 0 0 0-2.15-4.409c-0.296-0.127-0.642-0.157-0.908-0.22ZM15.977 1.802a1.771 1.771 0 1 1 0 3.54 1.769 1.769 0 0 1 0-3.538z m11.173 0.089a1.778 1.778 0 1 1 0 3.555 1.778 1.778 0 0 1 0-3.555zM7.154 6.426a3.619 3.619 0 0 0-0.594 0.065 3.403 3.403 0 0 0-1.696 0.796 3.323 3.323 0 0 0-1.172 2.325 4.83 4.83 0 0 0 0 0.822 3.196 3.196 0 0 0 0.854 1.927c0.28 0.302 0.59 0.576 0.928 0.822 3.86 2.803 7.712 5.619 11.553 8.453a0.989 0.989 0 0 0 0.2 0.113c0.038-0.055 0.041-0.124 0.009-0.212a22.081 22.081 0 0 0-0.402-1.352 675.724 675.724 0 0 1-2.562-7.929 53.157 53.157 0 0 0-0.631-1.873c-1.227-1.077-2.636-2.029-3.834-2.92A4.881 4.881 0 0 0 8.085 6.546a3.029 3.029 0 0 0-0.931-0.119Zm0.025 1.806a1.773 1.773 0 1 1 0 3.546 1.773 1.773 0 0 1 0-3.546z m-3.117 8.614c-0.93-0.008-1.744 0.256-2.445 0.789a3.45 3.45 0 0 0-1.205 1.839 3.526 3.526 0 0 0-0.114 1.32 3.475 3.475 0 0 0 0.882 2.007c0.842 0.733 1.598 1.078 2.537 1.199 1.801-0.006 3.602-0.015 5.405-0.025h0.53c2.888-0.004 5.724-0.003 8.506 0.003 0.188 0.006 0.355 0.004 0.497-0.012 0.076-0.006 0.115-0.039 0.117-0.098a13.516 13.516 0 0 0-1.058-0.828 619.908 619.908 0 0 1-8.333-6.107 0.299 0.299 0 0 0-0.178-0.06c-1.7-0.004-3.413-0.013-5.141-0.025z m-0.241 1.799a1.778 1.778 0 1 1 0 3.555 1.778 1.778 0 0 1 0-3.555z m17.597 0.003a1.776 1.776 0 1 1 0 3.551 1.776 1.776 0 0 1 0-3.551z"/></svg>