<svg fill="#F9AB00" role="img" viewBox="0 0 41 24" xmlns="http://www.w3.org/2000/svg"><title>Google Colab</title><path d="M28.941 0a12.014 12.014 0 0 0-8.423 3.527 12.014 12.014 0 0 0-0.21 16.753l4.091-4.092a6.227 6.227 0 0 1 8.797-8.793l4.095-4.098a12.014 12.014 0 0 0-8.35-3.297zM12.078 0.017a12.014 12.014 0 0 0-8.349 3.3l4.084 4.084a6.224 6.224 0 0 1 8.58 0.217l2.963-5.079-0.171-0.137A12.014 12.014 0 0 0 12.078 0.017z m25.64 3.711l-4.081 4.084a6.227 6.227 0 0 1-8.797 8.797l-4.112 4.112a12.02 12.02 0 0 0 16.99-16.993zM3.301 3.744a12.014 12.014 0 0 0-0.003 16.539l4.095-4.095a6.224 6.224 0 0 1-0.007-8.356z m13.092 12.681c-2.357 2.36-6.126 2.41-8.57 0.194l-4.094 4.091c4.218 3.985 10.699 4.399 15.386 0.932l0.234-0.19z"/></svg>