<svg fill="#4285F4" role="img" viewBox="0 0 27 24" xmlns="http://www.w3.org/2000/svg"><title>Google Ads</title><path d="M4.716 24C2.29 24 0.324 22.034 0.324 19.608s1.966-4.392 4.392-4.391 4.392 1.966 4.392 4.391-1.966 4.392-4.392 4.392z m21.371-6.588L17.303 2.197C16.09 0.096 13.403-0.624 11.303 0.589S8.482 4.488 9.694 6.589l8.785 15.214c1.213 2.101 3.899 2.82 6 1.608 2.101-1.213 2.82-3.899 1.608-5.999zM8.574 4.143L2.042 15.457A4.941 4.941 0 0 1 4.716 14.668c2.811-0.008 5.078 2.37 4.935 5.177l3.532-6.119-3.964-6.862c-0.494-0.856-0.694-1.8-0.645-2.721z"/></svg>