<svg fill="#174EA6" role="img" viewBox="0 0 30 24" xmlns="http://www.w3.org/2000/svg"><title>Google News</title><path d="M26.332 23.251a0.751 0.751 0 0 1-0.749 0.749H4.415a0.751 0.751 0 0 1-0.749-0.749V7.249a0.751 0.751 0 0 1 0.749-0.749h21.168a0.751 0.751 0 0 1 0.749 0.749V23.251z m-3.707-4.182v-1.462a0.098 0.098 0 0 0-0.098-0.099h-6.57v1.666h6.57a0.1 0.1 0 0 0 0.098-0.102l0-0.003z m0.999-3.164v-1.469a0.098 0.098 0 0 0-0.096-0.1h-7.571v1.665h7.569a0.097 0.097 0 0 0 0.098-0.095v-0.005 0.004z m-0.999-3.165v-1.475a0.098 0.098 0 0 0-0.098-0.098h-6.57v1.665h6.57a0.1 0.1 0 0 0 0.098-0.097v0.005zM10.291 14.501v1.498h2.165c-0.178 0.916-0.984 1.58-2.165 1.581-1.334-0.05-2.375-1.171-2.325-2.505 0.047-1.264 1.061-2.278 2.325-2.325a2.165 2.165 0 0 1 1.532 0.6l1.143-1.141a3.84 3.84 0 0 0-2.675-1.042c-2.207 0-3.997 1.789-3.997 3.997 0 2.207 1.789 3.997 3.997 3.996 2.31 0 3.83-1.624 3.83-3.91a4.819 4.819 0 0 0-0.063-0.756l-3.767 0.007zM3.101 6.685a0.753 0.753 0 0 1 0.75-0.749h14.863l-1.552-4.269a0.728 0.728 0 0 0-0.909-0.468L0.775 6.833a0.726 0.726 0 0 0-0.395 0.948l2.721 7.474V6.685za0.753 0.753 0 0 1 0.75-0.749h14.863l-1.552-4.269a0.728 0.728 0 0 0-0.909-0.468L0.775 6.833a0.726 0.726 0 0 0-0.395 0.948l2.721 7.474V6.685z m26.062-0.38l-10.765-2.896 0.919 2.526h6.828a0.751 0.751 0 0 1 0.75 0.75v10.755l2.748-10.231a0.724 0.724 0 0 0-0.48-0.904z m-5.497-2.047V0.743a0.746 0.746 0 0 0-0.748-0.743H7.08a0.746 0.746 0 0 0-0.753 0.739v3.469l10.261-3.732a0.726 0.726 0 0 1 0.907 0.477l0.667 1.832 5.504 1.473z"/></svg>