<svg fill="#E37400" role="img" viewBox="0 0 22 24" xmlns="http://www.w3.org/2000/svg"><title>Google Analytics</title><path d="M21.84 2.998v17.999c0.009 1.647-1.32 2.99-2.967 2.998a2.981 2.981 0 0 1-0.368-0.02c-1.528-0.226-2.648-1.556-2.61-3.1V3.121c-0.037-1.546 1.086-2.876 2.615-3.1 1.636-0.192 3.118 0.98 3.31 2.615 0.014 0.12 0.021 0.241 0.02 0.362zM3.133 18.055c-1.642 0-2.973 1.331-2.973 2.973C0.16 22.669 1.491 24 3.133 24s2.973-1.331 2.972-2.972-1.331-2.973-2.972-2.973z m7.872-9.01c-0.017 0-0.034 0-0.051 0-1.649 0.09-2.929 1.474-2.891 3.126v7.985c0 2.167 0.954 3.482 2.351 3.763 1.612 0.327 3.183-0.715 3.509-2.327 0.04-0.197 0.06-0.398 0.06-0.6v-8.959c0.003-1.647-1.33-2.985-2.978-2.988z"/></svg>