<svg fill="#1E8E3E" role="img" viewBox="0 0 25 24" xmlns="http://www.w3.org/2000/svg"><title>Google Campaign Manager 360</title><path d="M16.321 0c-2.093 0-4.186 0.8-5.783 2.397-1.336 1.336-2.112 3.021-2.33 4.762a8.731 8.731 0 0 1 0.472-0.014c1.785 0 3.566 0.547 5.077 1.639-0.207-0.882 0.068-1.826 0.712-2.471 1.046-1.046 2.711-0.998 3.716 0.006 1.083 1.083 2.837 1.083 3.92 0 1.083-1.084 1.083-2.839 0-3.922C20.507 0.799 18.414 0 16.321 0Zm7.079 4.078c0.079 0.929-0.234 1.886-0.942 2.594-0.981 0.981-2.438 1.204-3.639 0.674 0.312 0.938 0.065 1.99-0.633 2.688-0.991 0.991-2.663 1.066-3.725 0.004-0.017-0.017-0.029-0.035-0.046-0.053l-0.003 0.002c-3.199-3.142-8.34-3.125-11.517 0.051-3.194 3.194-3.194 8.373 0 11.567 1.162 1.162 3.045 1.162 4.207 0 1.162-1.162 0.869-2.756-0.293-3.919-0.935-0.935-1.123-2.593-0.006-3.711 0.91-0.91 2.538-1.17 3.727-0.007 0.073 0.073 0.148 0.141 0.224 0.203 3.208 2.985 8.226 2.916 11.351-0.207 2.68-2.679 3.111-6.755 1.295-9.886zM11.225 15.2c0.215 0.877-0.035 1.832-0.701 2.498-0.672 0.672-1.679 0.924-2.592 0.658 0.211 0.392 0.347 0.809 0.393 1.237 0.088 0.827-0.193 1.689-0.869 2.365-0.757 0.757-1.781 1.09-2.774 1 3.116 1.748 7.131 1.296 9.782-1.353 1.337-1.336 2.11-3.021 2.328-4.762-1.946 0.105-3.92-0.445-5.567-1.643z"/></svg>