<svg fill="#7248B9" role="img" viewBox="0 0 18 24" xmlns="http://www.w3.org/2000/svg"><title>Google Forms</title><path d="M11.727 6h6l-6-6v6z m0 0.727H11V0H1.91c-0.905 0-1.637 0.732-1.637 1.636v20.728c0 0.904 0.732 1.636 1.636 1.636h14.182c0.904 0 1.636-0.732 1.636-1.636V6.727h-6zM4.91 17.318a0.819 0.819 0 1 1 0.001-1.638 0.819 0.819 0 0 1 0 1.638z m0-3.273a0.819 0.819 0 1 1 0.001-1.637 0.819 0.819 0 0 1 0 1.637z m0-3.272a0.819 0.819 0 1 1 0.001-1.638 0.819 0.819 0 0 1 0 1.638z m9 6.409h-6.818v-1.364h6.818v1.364z m0-3.273h-6.818v-1.364h6.818v1.364z m0-3.273h-6.818V9.273h6.818v1.363z"/></svg>