<svg fill="#EA4335" role="img" viewBox="0 0 25 24" xmlns="http://www.w3.org/2000/svg"><title>Google AdMob</title><path d="M11.959 0.013h-0.052A12.012 12.012 0 0 0 0.481 11.922v0.052c0 7.487 6.574 11.947 11.465 11.947h0.17a3.091 3.091 0 0 0 3.13-3.052c0-1.696-1.435-2.922-3.157-2.922h-0.039a6.026 6.026 0 0 1-5.517-6.378v-0.052a6.026 6.026 0 0 1 5.582-5.518c1.722 0 3.13-1.239 3.13-2.922A3.091 3.091 0 0 0 12.103 0h-0.143z m2.034 0.026a3.522 3.522 0 0 1 1.749 3.026 3.391 3.391 0 0 1-1.931 3.052c2.87 0.601 4.539 3.131 4.696 5.387v7.696a3.496 3.496 0 0 1 6.012 0.026v-7.748A12.065 12.065 0 0 0 13.993 0.025z m7.487 17.961a3 3 0 1 0 0.041 0z"/></svg>