<svg fill="#FF7143" role="img" viewBox="0 0 38 24" xmlns="http://www.w3.org/2000/svg"><title>Google Cardboard</title><path d="M5.226 0a4.744 4.744 0 0 0-3.374 1.406A4.842 4.842 0 0 0 0.455 4.814v14.366a4.837 4.837 0 0 0 1.396 3.409 4.738 4.738 0 0 0 3.375 1.411h6.614a4.757 4.757 0 0 0 4.193-2.542l1.868-3.517a1.213 1.213 0 0 1 1.087-0.65 1.21 1.21 0 0 1 1.083 0.65l1.87 3.517a4.76 4.76 0 0 0 4.2 2.542h6.633a4.744 4.744 0 0 0 3.375-1.411A4.837 4.837 0 0 0 37.545 19.18V4.814c0-1.275-0.501-2.5-1.397-3.408a4.737 4.737 0 0 0-3.374-1.406z m5.401 8.741c1.759 0 3.184 1.448 3.184 3.233 0 1.788-1.425 3.235-3.184 3.234-1.76 0-3.185-1.446-3.185-3.234 0-1.785 1.425-3.233 3.184-3.233z m16.74 0c1.76 0 3.185 1.448 3.185 3.233 0 1.788-1.425 3.235-3.184 3.234-1.762 0-3.188-1.446-3.188-3.234 0-1.785 1.426-3.233 3.187-3.233z"/></svg>