<svg fill="#669DF6" role="img" viewBox="0 0 27 24" xmlns="http://www.w3.org/2000/svg"><title>Google Data Studio</title><path d="M21.34 23.985c-1.107-0.668-1.849-1.882-1.849-3.268 0-1.387 0.742-2.601 1.849-3.268h-7.526a3.305 3.305 0 0 0-0.275-0.012c-1.804 0-3.292 1.476-3.307 3.28v0.015c0 1.792 1.475 3.268 3.268 3.268 0.105 0 0.209-0.005 0.314-0.015h7.526Zm1.964-6.536c1.804 0 3.268 1.464 3.268 3.268s-1.464 3.268-3.268 3.268-3.268-1.464-3.268-3.268 1.464-3.268 3.268-3.268Zm-11.768-2.183c-1.107-0.668-1.849-1.882-1.849-3.268 0-1.387 0.742-2.601 1.849-3.268H4.01a3.305 3.305 0 0 0-0.275-0.012C1.931 8.718 0.443 10.194 0.428 11.998v0.015c0 1.792 1.475 3.268 3.268 3.268 0.105 0 0.209-0.005 0.314-0.015h7.526Zm1.964-6.536c1.804 0 3.268 1.464 3.268 3.268s-1.464 3.268-3.268 3.268-3.268-1.464-3.268-3.268 1.464-3.268 3.268-3.268Zm7.84-2.183c-1.107-0.668-1.849-1.882-1.849-3.268 0-1.387 0.742-2.601 1.849-3.268h-7.526c-0.087-0.007-0.174-0.011-0.262-0.011C11.746 0 10.255 1.473 10.232 3.279v0.015c0 1.792 1.475 3.268 3.268 3.268 0.105 0 0.209-0.005 0.314-0.015h7.526Zm1.964-6.536c1.804 0 3.268 1.464 3.268 3.268s-1.464 3.268-3.268 3.268-3.268-1.464-3.268-3.268 1.464-3.268 3.268-3.268Z"/></svg>