<svg fill="#2684FC" role="img" viewBox="0 0 26 24" xmlns="http://www.w3.org/2000/svg"><title>Google Tasks</title><path d="M12.349 0C5.723 0 0.349 5.373 0.349 12c0 6.627 5.373 12 12 12 6.627 0 11.997-5.373 11.997-12a11.955 11.955 0 0 0-0.925-4.627l-3.377 3.377c0.065 0.408 0.105 0.824 0.105 1.25a7.799 7.799 0 1 1-7.801-7.799c1.58 0 3.046 0.472 4.274 1.28l3.012-3.012a11.939 11.939 0 0 0-7.285-2.469z m10.199 0.797c-0.308 0-0.615 0.118-0.849 0.352-3.131 3.126-6.256 6.256-9.382 9.385L10.465 8.683a1.201 1.201 0 0 0-1.697 0l-1.871 1.87a1.201 1.201 0 0 0 0 1.697l4.392 4.388a1.498 1.498 0 0 0 2.121 0L25.298 4.748a1.198 1.198 0 0 0 0-1.697l-1.903-1.902a1.198 1.198 0 0 0-0.847-0.352z"/></svg>