<svg fill="#4285F4" role="img" viewBox="0 0 27 24" xmlns="http://www.w3.org/2000/svg"><title>Google Cloud Spanner</title><path d="M13.5 8.815L9.106 6.436V1.586L11.745 0v3.965l1.755 0.806 1.755-0.806V0l2.639 1.586v4.85L13.5 8.815z m-8.802 5.148L0.499 16.394v3.238l3.497-2.016 1.521 0.989 0.104 1.768-3.51 2.028 2.834 1.599 4.148-2.457-0.143-4.98-4.252-2.6z m10.544-0.975V8.488l-1.484 0.803-0.258 0.14-0.258-0.141-1.484-0.802v4.5l-3.915 2.264 1.389 0.849 0.251 0.154 0.008 0.292 0.05 1.747L13.5 16.004l3.895 2.253 0.049-1.723 0.008-0.292 0.251-0.154 1.409-0.862-3.87-2.238z m7.762 4.628L26.501 19.632v-3.238L22.237 13.95l-4.252 2.6-0.143 4.98 4.213 2.431 2.834-1.56-3.51-1.989 0.104-1.807 1.521-0.989z"/></svg>