<svg fill="#AECBFA" role="img" viewBox="0 0 26 24" xmlns="http://www.w3.org/2000/svg"><title>Google Dataproc</title><path d="M25.261 21.017a5.048 5.048 0 0 1-8.733 0 5.06 5.06 0 0 1 0-5.033c0.351-0.608 0.839-1.073 1.372-1.465 0.509 0.213 3.659 1.532 4.222 1.852a2.47 2.47 0 0 0-3.351 0.907 2.484 2.484 0 0 0 0 2.444 2.444 2.444 0 0 0 2.764 1.135 2.43 2.43 0 0 0 1.482-1.135 2.51 2.51 0 0 0 0-2.457 2.671 2.671 0 0 0-0.895-0.894l-3.805-2.205-6.174-3.576a5.414 5.414 0 0 0 4.462-0.388l6.813 3.925a5.048 5.048 0 0 1 1.843 6.89z m-15.093-2.167v0.004l-3.836 2.157a2.447 2.447 0 0 1-3.344-0.888 2.444 2.444 0 0 1 2.75-3.592c0.637 0.174 1.174 0.604 1.482 1.188v-0.054a2.447 2.447 0 0 1-0.888 3.346c0.603-0.327 3.614-2.825 3.735-2.926-0.328-1.88-1.696-3.493-3.661-4.011a4.968 4.968 0 0 0-3.835 0.517 5.035 5.035 0 0 0-1.827 6.881 5.048 5.048 0 0 0 3.089 2.363 5.021 5.021 0 0 0 3.946-0.604l7.414-4.283c-0.02-1.405 0.552-2.807 1.482-3.859l-6.507 3.762z m-2.588-5.07v-8.732h0.013c0.002-1.743 0.885-3.438 2.503-4.372a5.048 5.048 0 1 1 2.519 9.419 5.043 5.043 0 0 1-1.671-0.302c-0.017-0.092-0.79-4.092-0.79-4.515L10.078 9.402v7.289a4.393 4.393 0 0 0-2.498-2.911z m2.591-8.732a2.457 2.457 0 1 0 4.901 0 2.404 2.404 0 0 0-0.32-1.215 2.457 2.457 0 0 0-2.124-1.229 2.444 2.444 0 0 0-2.457 2.43v0.014z"/></svg>