<svg fill="#AECBFA" role="img" viewBox="0 0 18 24" xmlns="http://www.w3.org/2000/svg"><title>Google Dataflow</title><path d="M2.856 9.6L0.72 9.564l0.036-2.46 6.312-3.516L2.94 1.14 5.028 0l4.092 2.436h0.012L13.284 0.108h0.06l1.992 1.188-4.188 2.352 6.168 3.684v2.46l-2.124-0.036 0.012-1.284L10.116 5.4l-0.024 2.076-1.224-0.012v-0.002l-0.84-0.01 0.024-2.076-5.172 2.94L2.856 9.6z m12.252 6.072l-5.16 2.94 0.024-2.064-2.064-0.024-0.024 2.064-5.1-3.072 0.012-1.248H0.684v2.4l6.168 3.684 2.011 1.197 0.005 0.015L12.972 24h0.06l2.028-1.14-4.128-2.448-0.02 0.011 0.008-0.023 6.324-3.516 0.036-2.508-2.148-0.024-0.024 1.32zM2.664 22.704l1.992 1.188h0.06l4.152-2.328-2.016-1.212-4.188 2.352z m13.68-12.024c-0.755 0-1.368 0.613-1.368 1.368 0 0.755 0.613 1.368 1.368 1.368 0.756 0 1.368-0.613 1.368-1.368 0-0.755-0.612-1.368-1.368-1.368zM1.656 13.224c0.755 0 1.368-0.613 1.368-1.368 0-0.756-0.613-1.368-1.368-1.368-0.756 0-1.368 0.612-1.368 1.368 0 0.755 0.612 1.368 1.368 1.368z m7.416-5.004c-0.755 0-1.368 0.613-1.368 1.368 0 0.756 0.613 1.368 1.368 1.368s1.368-0.612 1.368-1.368c0-0.755-0.613-1.368-1.368-1.368z m-0.108 4.812c-0.755 0-1.368 0.613-1.368 1.368s0.613 1.368 1.368 1.368c0.755 0 1.368-0.613 1.368-1.368s-0.613-1.368-1.368-1.368z"/></svg>