<svg fill="#4285F4" role="img" viewBox="0 0 29 24" xmlns="http://www.w3.org/2000/svg"><title>Google Fit</title><path d="M27.835 3.523c-1.468-2.608-4.668-3.989-7.581-3.38-1.32 0.289-2.583 0.92-3.542 1.882-0.739 0.729-1.476 1.461-2.216 2.188-1.088-1.082-2.125-2.303-3.426-3.148a7.109 7.109 0 0 0-4.64-1.004c-5.655 0.687-8.245 7.544-4.298 11.709 4.138 4.063 8.246 8.158 12.379 12.23 3.912-3.865 7.814-7.739 11.734-11.593 2.534-2.177 3.329-5.975 1.59-8.884zM7.56 11.077c-0.823-0.898-1.796-1.669-2.545-2.625-0.976-1.448-0.188-3.581 1.498-4.038 0.928-0.304 2.001-0.037 2.709 0.627 0.745 0.724 1.469 1.47 2.218 2.19l0.006 0.008a492.982 492.982 0 0 0-3.886 3.838z m6.95 6.845a3922.973 3922.973 0 0 1-3.87-3.828c3.037-2.991 6.066-5.994 9.094-8.994 0.467-0.468 1.106-0.768 1.768-0.8 2.48-0.183 3.905 2.82 2.141 4.596-3.03 3.022-6.088 6.017-9.133 9.026z"/></svg>