<svg fill="#669DF6" role="img" viewBox="0 0 25 24" xmlns="http://www.w3.org/2000/svg"><title>Google BigQuery</title><path d="M6.176 10.595h2.052v5.244a5.892 5.892 0 0 1-2.052-2.088v-3.156z m18.179 10.836a0.504 0.504 0 0 1 0 0.708l-1.716 1.716a0.504 0.504 0 0 1-0.708 0l-4.248-4.248a0.206 0.206 0 0 1-0.007-0.007c-0.02-0.02-0.028-0.045-0.043-0.066a10.736 10.736 0 0 1-6.334 2.065C5.335 21.599 0.5 16.764 0.5 10.799S5.335 0 11.3 0s10.799 4.835 10.799 10.8c0 2.369-0.772 4.553-2.066 6.333 0.025 0.017 0.052 0.028 0.074 0.05l4.248 4.248z m-5.028-10.632a8.015 8.015 0 1 0-8.028 8.028h0.024a8.016 8.016 0 0 0 8.004-8.028z m-4.86 4.98a6.002 6.002 0 0 0 2.04-2.184v-1.764h-2.04v3.948z m-4.5 0.948c0.442 0.057 0.887 0.08 1.332 0.072 0.4 0.025 0.8 0.025 1.2 0V7.692H9.968v9.035z"/></svg>