<svg fill="#02303A" role="img" viewBox="0 0 33 24" xmlns="http://www.w3.org/2000/svg"><title>Gradle</title><path d="M31.053 1.517a5.181 5.181 0 0 0-7.199-0.123 0.501 0.501 0 0 0 0 0.726l0.626 0.639a0.494 0.494 0 0 0 0.645 0.044 2.969 2.969 0 0 1 3.892 4.479c-4.114 4.11-9.602-7.413-22.061-1.474a1.687 1.687 0 0 0-0.727 2.374l2.138 3.693a1.685 1.685 0 0 0 2.288 0.627l0.05-0.027-0.039 0.027 0.936-0.523a21.887 21.887 0 0 0 2.984-2.225 0.523 0.523 0 0 1 0.679-0.022 0.486 0.486 0 0 1 0.022 0.727 22.366 22.366 0 0 1-3.152 2.369H12.103l-0.947 0.531a2.665 2.665 0 0 1-1.311 0.34 2.704 2.704 0 0 1-2.349-1.345L5.475 8.864C1.61 11.619-0.766 16.903 0.522 23.597a0.494 0.494 0 0 0 0.481 0.403h2.28a0.494 0.494 0 0 0 0.503-0.451 3.372 3.372 0 0 1 6.689 0 0.49 0.49 0 0 0 0.486 0.432h2.229a0.494 0.494 0 0 0 0.486-0.432 3.372 3.372 0 0 1 6.687 0 0.494 0.494 0 0 0 0.487 0.432h2.215a0.494 0.494 0 0 0 0.494-0.486c0.05-3.122 0.893-6.709 3.293-8.505 8.312-6.219 6.127-11.548 4.202-13.473z m-8.477 9.391l-1.585-0.794a0.993 0.993 0 1 1 1.585 0.798z"/></svg>