<svg fill="#E10098" role="img" viewBox="0 0 22 24" xmlns="http://www.w3.org/2000/svg"><title>GraphQL</title><path d="M11.001 0a2.138 2.138 0 1 0 0 4.277 2.138 2.138 0 1 0 0-4.277z m8.54 4.931a2.138 2.138 0 1 0 0 4.277 2.138 2.138 0 1 0 0-4.277z m0 9.862a2.138 2.138 0 1 0 0 4.277 2.138 2.138 0 1 0 0-4.277z m-8.54 4.931a2.138 2.138 0 1 0 0 4.276 2.138 2.138 0 1 0 0-4.276z m-8.542-4.93a2.138 2.138 0 1 0 0 4.276 2.138 2.138 0 1 0 0-4.277z m0-9.863a2.138 2.138 0 1 0 0 4.277 2.138 2.138 0 1 0 0-4.277z m8.542-3.378L1.952 6.777v10.448l9.049 5.224 9.047-5.224V6.777z m0 1.601l7.66 13.27H3.339z m-1.387 0.371L2.969 15.037V7.363z m2.774 0l6.646 3.838v7.674zM4.354 17.44h13.293l-6.646 3.836z"/></svg>