<svg fill="#FF3633" role="img" viewBox="0 0 25 24" xmlns="http://www.w3.org/2000/svg"><title>Graylog</title><path d="M7.257 11.347a0.869 0.869 0 0 1 0.776 0.466h0.729l1.15-2.766a0.499 0.499 0 0 1 0.31-0.288c0.243-0.043 0.486 0.089 0.53 0.332l1.218 5.354 1.238-7.212a0.424 0.424 0 0 1 0.331-0.354 0.455 0.455 0 0 1 0.554 0.332l1.327 5.419 0.686-2.013a0.464 0.464 0 0 1 0.176-0.243c0.2-0.133 0.487-0.089 0.62 0.111l0.575 0.818c0.022 0.2 0.022 0.398 0.022 0.598a8.583 8.583 0 0 1-0.044 0.773c-0.088-0.022-0.155-0.088-0.221-0.155l-0.576-0.796-0.884 2.677a0.463 0.463 0 0 1-0.575 0.288 0.406 0.406 0 0 1-0.287-0.311l-1.196-4.822-1.26 7.322a0.464 0.464 0 0 1-0.509 0.376c-0.199-0.022-0.331-0.176-0.376-0.375l-1.349-6.194-0.73 1.747a0.454 0.454 0 0 1-0.42 0.288H8.032a0.892 0.892 0 0 1-0.774 0.442 0.91 0.91 0 0 1-0.907-0.907c0.021-0.486 0.42-0.907 0.907-0.907zM12.5 0c7.211 0 12.41 5.552 12.41 12.011 0 6.57-4.933 11.989-12.41 11.989S0.091 18.581 0.091 12.011C0.07 5.552 5.266 0 12.5 0zM4.293 12.01c0 4.401 3.783 8.273 8.185 8.273 4.401 0 8.184-3.872 8.184-8.273 0-4.757-3.783-8.317-8.184-8.317-4.381 0-8.185 3.562-8.185 8.317z"/></svg>