<svg fill="#24A47F" role="img" viewBox="0 0 12 24" xmlns="http://www.w3.org/2000/svg"><title>Greenhouse</title><path d="M10.279 7.13c0 1.16-0.49 2.185-1.293 2.987-0.891 0.891-2.184 1.114-2.184 1.872 0 1.025 1.65 0.713 3.231 2.295 1.048 1.047 1.694 2.43 1.694 4.034C11.727 21.482 9.187 24 6 24c-3.187 0-5.727-2.518-5.727-5.68 0-1.607 0.646-2.989 1.694-4.036 1.582-1.582 3.23-1.27 3.23-2.295 0-0.758-1.292-0.98-2.183-1.872-0.802-0.802-1.293-1.827-1.293-3.03 0-2.318 1.895-4.19 4.212-4.19 0.446 0 0.847 0.067 1.181 0.067 0.602 0 0.914-0.268 0.914-0.691 0-0.245-0.112-0.557-0.112-0.891 0-0.758 0.647-1.382 1.427-1.382s1.404 0.646 1.404 1.426c0 0.825-0.647 1.204-1.137 1.382-0.401 0.134-0.713 0.312-0.713 0.713 0 0.758 1.382 1.493 1.382 3.61z m-0.446 11.19c0-2.206-1.627-3.99-3.833-3.99-2.206 0-3.833 1.784-3.833 3.99 0 2.184 1.627 3.989 3.833 3.989 2.206 0 3.833-1.808 3.833-3.99zM8.518 7.086c0-1.404-1.136-2.562-2.518-2.562S3.482 5.682 3.482 7.086 4.618 9.65 6 9.65s2.518-1.159 2.518-2.563z"/></svg>