<svg fill="#00A672" role="img" viewBox="0 0 25 24" xmlns="http://www.w3.org/2000/svg"><title>Gridsome</title><path d="M12.526 0l-0.108 0.001C5.395 0.118 0.381 5.966 0.485 11.956 0.508 19.296 6.511 24.147 12.583 23.997c7.218-0.2 12.34-6.47 11.908-12.067a2.2 2.2 0 0 0-2.195-2.004h-3.154a2.158 2.158 0 0 0-2.164 2.15c0 1.189 0.968 2.151 2.163 2.151h0.789c-0.871 2.795-3.625 5.463-7.45 5.568-3.808 0.095-7.621-2.908-7.779-7.58a2.176 2.176 0 0 0 0-0.159c-0.148-3.725 2.899-7.648 7.891-7.856a2.099 2.099 0 0 0 2.006-2.186 2.098 2.098 0 0 0-2.073-2.014z m-0.018 9.925a2.153 2.153 0 0 0-2.149 2.154 2.153 2.153 0 0 0 2.149 2.155 2.153 2.153 0 0 0 2.15-2.155 2.153 2.153 0 0 0-2.15-2.153Z"/></svg>