<svg fill="#00AFF0" role="img" viewBox="0 0 23 24" xmlns="http://www.w3.org/2000/svg"><title>GroupMe</title><path d="M10.66 6.574H12.34V8.169H10.66V6.574ZM17.7 0H5.3C2.649 0 0.5 2.04 0.5 4.556V16.324C0.5 18.84 2.649 20.88 5.3 20.88H9.427L11.479 24 13.531 20.88H17.7C20.351 20.88 22.5 18.84 22.5 16.324V4.556C22.5 2.04 20.351 0 17.7 0ZM7.068 8.169H8.848V6.574H7.068V4.854H8.848V3.166H10.66V4.854H12.34V3.166H14.152V4.854H15.931V6.574H14.152V8.169H15.931V9.889H14.152V11.577H12.34V9.889H10.66V11.577H8.848V9.889H7.068V8.169ZM19.812 13.432C19.812 13.432 17.42 17.708 11.741 17.708 11.662 17.708 11.584 17.707 11.507 17.706 11.43 17.707 11.352 17.708 11.274 17.708 5.594 17.708 3.202 13.432 3.202 13.432 3.202 13.432 3.047 13.154 3.047 12.853 3.038 12.637 3.149 12.326 3.442 12.143 3.605 12.042 3.759 11.991 3.902 11.976 4.586 11.907 4.982 12.329 5.308 12.812 5.668 13.345 7.744 15.678 11.507 15.767 15.27 15.678 17.346 13.345 17.706 12.812 18.032 12.329 18.443 11.906 19.112 11.976 19.255 11.991 19.409 12.042 19.572 12.143 19.865 12.326 19.979 12.584 19.969 12.853 19.946 13.249 19.812 13.432 19.812 13.432Z"/></svg>