<svg fill="#F63440" role="img" viewBox="0 0 115 24" xmlns="http://www.w3.org/2000/svg"><title>Grubhub</title><path d="M79.955 0.343h-4.007c-0.229 0-0.343 0.229-0.343 0.344v8.718h-4.006V0.687c0-0.229-0.229-0.343-0.344-0.344h-4.006c-0.229 0-0.343 0.229-0.344 0.344v22.378c0 0.229 0.229 0.343 0.344 0.344h4.006c0.229 0 0.343-0.229 0.344-0.344v-8.947h4.006v8.947c0 0.229 0.229 0.343 0.343 0.344h4.007c0.229 0 0.343-0.229 0.343-0.344V0.687c0-0.114-0.114-0.343-0.343-0.344m-33.768 0h-4.007c-0.229 0-0.343 0.114-0.343 0.344v15.854a2.909 2.909 0 0 1-0.572 1.831c-0.343 0.458-0.801 0.572-1.374 0.572a1.932 1.932 0 0 1-1.374-0.572 2.909 2.909 0 0 1-0.572-1.831V0.687c0-0.229-0.229-0.343-0.343-0.344h-4.007c-0.229 0-0.343 0.114-0.343 0.344v15.968c0 2.06 0.458 4.006 1.717 5.285 1.259 1.259 2.976 1.946 4.941 1.946 2.06 0 3.797-0.687 4.941-1.946 1.259-1.259 1.717-3.091 1.717-5.285V0.687c-0.019-0.114-0.134-0.343-0.381-0.344m-39.263-0.343c-2.06 0-3.797 0.687-4.941 1.946C0.724 3.205 0.266 5.037 0.266 7.231v9.538c0 2.06 0.458 4.006 1.717 5.285 1.259 1.259 2.976 1.946 4.941 1.946 2.06 0 3.797-0.687 4.942-1.946 1.259-1.259 1.717-3.091 1.717-5.285v-5.265a0.486 0.486 0 0 0-0.458-0.458H7.268a0.486 0.486 0 0 0-0.458 0.458v3.911c0 0.229 0.229 0.458 0.458 0.458h1.507v0.916a3.224 3.224 0 0 1-0.572 1.945c-0.343 0.458-0.801 0.572-1.374 0.573a1.932 1.932 0 0 1-1.374-0.573 3.291 3.291 0 0 1-0.572-1.945v-9.425c0-0.801 0.229-1.507 0.572-1.946 0.343-0.458 0.801-0.572 1.374-0.572 0.553 0 1.03 0.229 1.374 0.572 0.343 0.458 0.572 1.145 0.572 1.946v0.916c0 0.229 0.229 0.343 0.343 0.343h4.007c0.229 0 0.343-0.114 0.343-0.343v-0.916c0-2.06-0.458-4.006-1.717-5.285-1.03-1.393-2.881-2.079-4.827-2.079m51.663 18.258c-0.343 0.458-0.801 0.572-1.507 0.572h-2.289v-4.846h2.289c0.572 0 1.03 0.229 1.374 0.572 0.377 0.496 0.577 1.097 0.572 1.717 0.038 0.954-0.076 1.507-0.439 1.985z m-1.736-13.202c0.572 0 1.03 0.114 1.374 0.572 0.343 0.343 0.458 0.916 0.458 1.622s-0.114 1.259-0.458 1.717a1.836 1.836 0 0 1-1.259 0.572h-2.061v-4.483h1.946z m4.598 6.543c0.687-0.687 1.946-2.289 1.946-4.368 0-2.423-0.916-3.911-1.622-4.713-1.259-1.374-2.976-2.06-4.941-2.06h-6.276c-0.229 0-0.343 0.229-0.344 0.343v22.398c0 0.229 0.229 0.343 0.344 0.343h6.658c2.06 0 4.006-0.801 5.284-2.423 0.687-0.916 1.507-2.423 1.508-4.712-0.134-2.747-1.851-4.369-2.557-4.808z m-36.496-2.194c-0.343 0.458-0.916 0.687-1.622 0.687h-1.945v-5.036h1.945c0.687 0 1.259 0.229 1.622 0.686 0.458 0.458 0.572 1.03 0.572 1.832s-0.095 1.374-0.572 1.831z m2.537 4.14c0.458-0.343 0.801-0.572 1.145-1.03 0.801-0.916 1.831-2.537 1.832-5.056 0-2.423-0.916-4.006-1.832-4.941-1.145-1.374-2.862-2.06-4.827-2.175H17.15c-0.229 0-0.343 0.229-0.343 0.344v22.378c0 0.229 0.229 0.343 0.343 0.344h4.007c0.229 0 0.343-0.229 0.343-0.344v-8.28h1.374l2.537 8.49c0 0.114 0.229 0.229 0.343 0.229h4.236c0.114 0 0.229-0.114 0.343-0.114s0.114-0.229 0.115-0.344l-2.958-9.501z m81.73 4.713c-0.343 0.458-0.801 0.572-1.507 0.572h-2.289v-4.846h2.289c0.572 0 1.03 0.229 1.374 0.572 0.377 0.496 0.577 1.097 0.572 1.717 0.134 0.954-0.076 1.507-0.439 1.985z m-1.621-13.202c0.572 0 1.03 0.114 1.373 0.572 0.343 0.343 0.458 0.916 0.458 1.622s-0.114 1.259-0.458 1.717a1.836 1.836 0 0 1-1.259 0.572h-2.06v-4.483h1.946z m4.597 6.543c0.687-0.687 1.946-2.289 1.946-4.368 0-2.423-0.916-3.911-1.621-4.713-1.259-1.374-2.976-2.06-4.942-2.06h-6.333c-0.229 0-0.343 0.229-0.344 0.343v22.398c0 0.229 0.229 0.343 0.344 0.343h6.696c2.06 0 4.006-0.801 5.285-2.423 0.687-0.916 1.507-2.423 1.507-4.712a6.878 6.878 0 0 0-2.538-4.808z m-15.376-11.256h-4.007c-0.229 0-0.343 0.114-0.343 0.344v15.854a2.909 2.909 0 0 1-0.573 1.831c-0.343 0.458-0.801 0.572-1.373 0.572a1.932 1.932 0 0 1-1.374-0.572 2.909 2.909 0 0 1-0.572-1.831V0.687c0-0.229-0.229-0.343-0.344-0.344H84.209c-0.229 0-0.343 0.114-0.343 0.344v15.968c0 2.06 0.458 4.006 1.717 5.285 1.259 1.259 2.976 1.946 4.941 1.946 2.06 0 3.797-0.687 4.941-1.946 1.259-1.259 1.717-3.091 1.717-5.285V0.687c0.114-0.114-0.114-0.343-0.362-0.344"/></svg>