<svg fill="#F36633" role="img" viewBox="0 0 80 24" xmlns="http://www.w3.org/2000/svg"><title>GSK</title><path d="M55.82 16.971v7.012h4.942V12.99c0-0.498 0.381-0.577 0.664-0.308l11.65 11.305H79.806L67.463 11.995 79.806 0h-6.747l-11.65 11.305c-0.269 0.269-0.663 0.192-0.663-0.308V0h-4.926v7.049c0 2.531 1.659 4.064 4.597 4.87 0.116 0.036 0.116 0.153 0 0.189-2.952 0.806-4.598 2.339-4.597 4.863ZM27.803 9.311c0 3.065 2.568 4.976 6.054 4.976h11.726a1.287 1.287 0 0 1 1.38 1.38v1.991a1.287 1.287 0 0 1-1.38 1.379H29.053v4.943h16.633a5.948 5.948 0 0 0 6.093-6.097v-2.179a5.941 5.941 0 0 0-6.09-6.094H34.029a1.287 1.287 0 0 1-1.38-1.38v-2.378a0.846 0.846 0 0 1 0.919-0.919h16.254V0H35.887a3.354 3.354 0 0 0-3.371 3.317V4.697a0.222 0.222 0 0 1-0.215 0.229h-0.017a4.21 4.21 0 0 0-4.481 4.385ZM22.306 9.62H14.371v1.486a3.175 3.175 0 0 0 3.155 3.191h1.941v3.832a0.922 0.922 0 0 1-0.923 0.918H6.519a1.38 1.38 0 0 1-1.379-1.38v-11.344a1.377 1.377 0 0 1 1.376-1.38H19.433v-4.943h-13.268a5.971 5.971 0 0 0-5.971 5.971v12.058a5.971 5.971 0 0 0 5.971 5.971h10.008A3.377 3.377 0 0 0 19.546 20.62v-1.327a0.222 0.222 0 0 1 0.216-0.232c2.68-0.076 4.405-1.38 4.405-3.649v-5.792Z"/></svg>