<svg fill="#FF3131" role="img" viewBox="0 0 97 24" xmlns="http://www.w3.org/2000/svg"><title>GStreamer</title><path d="M69.064 20.298c-0.117-2.367 0.913-7.872 3.276-7.351 1.01 0.222 0.731 1.612 0.404 3.11-0.444 2.028-1.212 4.237-1.212 4.237s2.884 0.113 2.828 0c0.287-3.635 1.05-7.585 3.17-7.29 1.757 0.246-0.501 7.29-0.501 7.29h2.626c-0.093-1.196 0.549-3.978 0.913-5.99 0.364-2.011-0.408-2.892-2.028-2.908s-3.223 1.402-3.223 1.402c0.065-1.212-1.535-1.402-1.535-1.402-1.7-0.109-3.336 1.038-3.336 1.038l0.153-0.888h-2.569s-0.129 1.414-0.646 3.998c-0.521 2.577-1.212 4.75-1.211 4.75h2.891z m17.586-8.967c-3.514 0-5.085 2.48-5.085 5.017s1.498 4.209 4.556 4.209c1.434 0 2.246-1.325 2.246-1.325s0.048-0.364-0.222-0.214c-0.271 0.153-1.01 0.469-1.979 0.468s-2.007-0.917-2.008-3.195h5.534c0.291-0.925 0.477-4.964-3.042-4.964z m0.513 3.934h-2.686c0-1.858 1.486-3.255 2.496-2.758 0.921 0.428 0.19 2.759 0.19 2.758z m-33.548-3.938c-3.518 0-5.089 2.484-5.089 5.021s1.503 4.209 4.556 4.209c1.438 0 2.25-1.325 2.25-1.325s0.048-0.364-0.226-0.214c-0.271 0.153-1.01 0.469-1.975 0.468s-2.007-0.917-2.008-3.195h5.534c0.291-0.925 0.477-4.964-3.042-4.964z m0.513 3.938h-2.686c0-1.858 1.252-3.058 2.262-2.56 0.921 0.428 0.424 2.561 0.424 2.56z m38.868 5.17h-2.84s1.656-5.945 1.801-8.861c-0.024 0.024 2.46 0 2.46 0s-0.214 0.658-0.307 1.232c0.703-0.78 0.941-1.478 2.848-1.479 0.024 0 0 2.46 0 2.46s-1.777-0.444-2.424 0.198c-0.638 0.638-1.325 1.151-1.538 6.45z m-48.953 0h-2.836s1.656-5.945 1.802-8.861c-0.024 0.024 2.46 0 2.46 0s-0.214 0.658-0.307 1.232c0.703-0.78 0.941-1.478 2.847-1.479 0.024 0 0 2.46 0 2.46s-1.777-0.444-2.423 0.198c-0.638 0.638-1.325 1.151-1.543 6.45z m-3.458-11.915l-2.318 0.8-0.533 2.161h-1.478v1.422h1.167s-1.244 4.455-1.01 5.816c0.23 1.478 1.672 1.789 2.529 1.749s1.091-0.662 1.05-0.893-1.208 0.222-1.325-0.828c-0.081-0.622 0.969-5.844 0.969-5.844h1.834v-1.422h-1.442l0.557-2.965z m24.174 11.778c0.343-0.283 0.113-0.848-0.182-0.921-0.339-0.695 0.699-4.758 0.699-5.873s-1.866-3.344-5.719-1.244c-0.372 0.238-0.234 0.626-0.146 0.756s0.267 0.214 0.348 0.129c0.364-0.396 1.939-0.808 2.677-0.028 0.505 0.464 0.485 1.369 0.134 1.716-0.428 0.04-4.645-0.081-5.154 2.601-0.872 4.766 4.471 2.254 4.746 2.06s0.242 0.565 0.694 0.885c1.216 0.105 1.664 0.121 1.903-0.081z m-2.666-1.991c-0.432 1.139-2.04 0.969-2.132 0.161-0.347-2.698 2.436-2.496 2.435-2.496s0.129 1.196-0.303 2.335z m-28.063-4.201l0.808-1.361s-0.658-1.402-2.601-1.401-3.062 1.402-3.062 3.061 3.696 2.912 2.803 4.556c-1.494 1.531-3.07-0.969-3.041-1.131-0.113 0.162-0.885 1.228-0.848 1.228 0.19 0.372 0.864 1.555 3.029 1.583 1.793 0.02 2.876-1.309 2.908-2.948 0.04-2.205-3.171-3.324-3.207-4.33-0.04-1.01 2.129-2.169 3.211 0.743z m-4.233-3.243c-0.343-0.323-0.606 0.109-1.381 0.432-0.78 0.323-1.038 0.283-1.818 0.174-1.276-0.283-3.518-0.198-4.107 0.089-3.938 1.579-1.826 4.508-1.184 5.089-0.004 0-0.961 0.505-1.098 1.292-0.178 1.014 0.287 1.563 0.303 1.576-1.288 0.069-2.116 1.365-1.915 2.423 0.214 1.143 1.575 2.052 3.522 2.06 4.12 0.089 4.33-2.545 4.33-2.545 0.565-3.203-2.153-3.352-4.088-3.199-0.699-0.626-0.153-1.212-0.181-1.211 6.539 0.158 4.891-4.205 4.891-4.205 1.103-0.271 3.272-1.454 2.726-1.975z m-8.756 9.177c2.561 0.46 3.595-0.125 3.768 1.179 0.073 1.276-1.01 1.64-2.266 1.717-1.256 0.081-2.173-0.557-2.225-1.374-0.048-0.82 0.662-0.735 0.723-1.522z m3.958-5.574c-0.242 1.05-0.965 1.777-1.624 1.632-0.658-0.149-1.002-1.119-0.767-2.169 0.242-1.05 0.965-1.777 1.624-1.628 0.658 0.149 1.002 1.119 0.767 2.169zM16.339 1.799c-1.874 0-4.613-1.527-7.278-1.526s-4.261 1.527-4.54 1.736c-0.279 0.202-0.452 1.002 0.38 0.76 0.832-0.242 1.527-0.242 2.843-0.243s4.471 1.801 7.658 1.802 5.857-2.46 6.447-3.324c0.586-0.868 0.032-1.147-0.416-0.937-0.452 0.206-3.36 1.733-5.094 1.732z m8.127 4.746c-1.967 0-4.843-1.523-7.646-1.522s-4.475 1.523-4.766 1.732c-0.295 0.206-0.477 1.002 0.4 0.76 0.872-0.242 1.599-0.242 2.985-0.243 1.381 0 4.693 1.801 8.045 1.802s6.151-2.46 6.77-3.324c0.618-0.868 0.036-1.143-0.437-0.937s-3.53 1.737-5.351 1.736z m-11.309 5.239c-2.044 0-5.025-1.648-7.933-1.648s-4.645 1.648-4.944 1.874-0.493 1.082 0.416 0.82c0.905-0.263 1.656-0.263 3.094-0.263s4.871 1.947 8.345 1.947c3.474 0 6.382-2.658 7.02-3.594 0.646-0.929 0.04-1.232-0.453-1.01-0.489 0.226-3.659 1.874-5.549 1.874z"/></svg>