<svg fill="#CF4647" role="img" viewBox="0 0 40 24" xmlns="http://www.w3.org/2000/svg"><title>gulp</title><path d="M10.04 0c-0.552 0-1.109 0.128-1.664 0.365-0.558 0.238-1.11 0.568-1.654 0.993a11.716 11.716 0 0 0-1.593 1.506c-0.514 0.581-1.002 1.224-1.457 1.912-0.453 0.69-0.875 1.424-1.281 2.168h-0.001v0.002c-0.393 0.777-0.736 1.577-1.035 2.39-0.296 0.815-0.532 1.631-0.72 2.458-0.181 0.821-0.292 1.621-0.328 2.407a0.846 0.846 0 0 0-0.016 0.149v0.156c0 0.429 0.062 0.87 0.123 1.275v0.003l0.001 0.003c0.112 0.43 0.287 0.828 0.51 1.178a2.792 2.792 0 0 0 0.882 0.851c0.356 0.227 0.779 0.34 1.274 0.34 0.432 0 0.88-0.099 1.342-0.304 0.458-0.205 0.915-0.473 1.37-0.787 0.44-0.315 0.88-0.677 1.304-1.084 0.34-0.315 0.65-0.644 0.957-0.969l-0.322 0.999c-0.14 0.481-0.296 0.946-0.422 1.401-0.14 0.45-0.25 0.854-0.343 1.212-0.094 0.355-0.158 0.595-0.158 0.749v0.353c0 0.396 0.041 0.675 0.171 0.851a0.654 0.654 0 0 0 0.547 0.249 0.714 0.714 0 0 0 0.435-0.156c0.133-0.099 0.246-0.225 0.36-0.368v-0.003l0.003-0.002c0.094-0.143 0.189-0.296 0.27-0.456 0.082-0.166 0.128-0.312 0.176-0.442v-0.002l0.11-0.394 0.234-0.813 0.312-1.087c0.125-0.406 0.233-0.813 0.373-1.227l0.37-1.232c0.118-0.401 0.23-0.764 0.333-1.086 0.103-0.328 0.191-0.595 0.263-0.809 0.033-0.107 0.066-0.191 0.089-0.253l0.023-0.053 0.065 0.03 0.03-0.079c0.125-0.358 0.248-0.701 0.373-1.028 0.125-0.328 0.25-0.657 0.345-0.981a6.179 6.179 0 0 0 0.361-2.119 1.046 1.046 0 0 0-0.082-0.418 0.723 0.723 0 0 0-0.204-0.296 0.82 0.82 0 0 0-0.285-0.164 1.022 1.022 0 0 0-0.313-0.05 1.076 1.076 0 0 0-0.62 0.209c-0.212 0.141-0.37 0.376-0.488 0.693v0.002l-0.904 2.897a6.422 6.422 0 0 1-0.52 0.843v0.001a15.45 15.45 0 0 1-2.809 3.009c-0.34 0.279-0.664 0.494-0.985 0.664a1.746 1.746 0 0 1-0.821 0.24 0.788 0.788 0 0 1-0.513-0.17 1.046 1.046 0 0 1-0.335-0.451 2.598 2.598 0 0 1-0.167-0.636 5.226 5.226 0 0 1-0.046-0.693c0-0.678 0.108-1.435 0.325-2.29 0.217-0.854 0.512-1.708 0.885-2.593 0.373-0.887 0.808-1.741 1.291-2.58 0.481-0.839 0.994-1.585 1.521-2.237 0.526-0.65 1.051-1.16 1.593-1.561 0.537-0.401 1.018-0.595 1.482-0.594a1.445 1.445 0 0 1 0.816 0.238c0.25 0.161 0.476 0.432 0.69 0.815v-0.002c0.22 0.425 0.442 0.756 0.632 0.995 0.197 0.246 0.425 0.373 0.67 0.373a0.838 0.838 0 0 0 0.683-0.341c0.189-0.227 0.279-0.537 0.28-0.914 0-0.158-0.016-0.328-0.05-0.504a1.429 1.429 0 0 0-0.23-0.548c-0.516-0.772-1.069-1.325-1.658-1.682H11.886a3.64 3.64 0 0 0-1.848-0.521z m18.003 1.404a1.317 1.317 0 0 0-0.673 0.197h-0.002l-0.002 0.002a1.396 1.396 0 0 0-0.522 0.706l-3.103 7.815-0.684 1.716c-0.251 0.624-0.485 1.248-0.735 1.886a7.871 7.871 0 0 0-0.289 0.905 8.204 8.204 0 0 1-0.422 0.353c-0.34 0.263-0.662 0.462-0.967 0.6h-0.004c-0.302 0.153-0.557 0.212-0.76 0.211-0.135 0-0.225-0.033-0.282-0.087-0.057-0.054-0.092-0.138-0.092-0.272 0-0.304 0.046-0.641 0.138-1.01 0.094-0.361 0.217-0.741 0.356-1.122a14.339 14.339 0 0 1 0.45-1.133l0.453-1.058c0.141-0.328 0.251-0.627 0.345-0.877a1.889 1.889 0 0 0 0.146-0.619 1.166 1.166 0 0 0-0.235-0.718 0.779 0.779 0 0 0-0.64-0.312 0.765 0.765 0 0 0-0.621 0.294 2.487 2.487 0 0 0-0.417 0.69 6.433 6.433 0 0 0-0.33 0.882c-0.092 0.312-0.215 0.604-0.34 0.878-0.186 0.411-0.404 0.861-0.683 1.357a10.906 10.906 0 0 1-0.928 1.394c-0.34 0.427-0.71 0.787-1.109 1.074-0.394 0.287-0.813 0.422-1.232 0.423-0.136 0-0.227-0.049-0.274-0.145a0.775 0.775 0 0 1-0.086-0.369c0.016-0.335 0.076-0.688 0.184-1.057 0.108-0.365 0.232-0.728 0.372-1.084 0.14-0.345 0.296-0.696 0.464-1.026 0.172-0.33 0.328-0.642 0.483-0.92v-0.002l0.408-0.771c0.112-0.223 0.176-0.399 0.221-0.542l0.002-0.004v-0.001c0.016-0.066 0.034-0.148 0.034-0.239a0.688 0.688 0 0 0-0.088-0.351v-0.002l-0.002-0.001a0.864 0.864 0 0 0-0.55-0.391 1.068 1.068 0 0 0-0.966 0.169c-0.217 0.149-0.379 0.381-0.524 0.7a37.916 37.916 0 0 0-1.297 2.984c-0.312 0.829-0.531 1.501-0.687 2.018a7.664 7.664 0 0 0-0.268 1.15v0.002l-0.032 0.379v0.004c0 0.351 0.048 0.657 0.147 0.903v0.003c0.112 0.241 0.243 0.437 0.409 0.587a1.467 1.467 0 0 0 0.592 0.313c0.217 0.066 0.443 0.097 0.673 0.097 0.511 0 0.982-0.095 1.414-0.254s0.823-0.381 1.173-0.651c0.345-0.268 0.657-0.568 0.925-0.9 0.197-0.23 0.345-0.468 0.492-0.701-0.066 0.361-0.128 0.718-0.128 1.008 0 0.542 0.103 0.936 0.332 1.178a1.141 1.141 0 0 0 0.859 0.351c0.342 0 0.721-0.094 1.14-0.279 0.416-0.186 0.838-0.43 1.264-0.732 0.107-0.074 0.209-0.153 0.313-0.232l0.008 0.059a1.642 1.642 0 0 0 0.246 0.575h0.002l0.001 0.003c0.131 0.163 0.279 0.296 0.478 0.394 0.202 0.102 0.448 0.149 0.739 0.15 0.416 0 0.848-0.097 1.293-0.288h0.003c0.44-0.205 0.882-0.458 1.322-0.788 0.44-0.33 0.895-0.723 1.334-1.145l0.017-0.014c-0.076 0.174-0.148 0.348-0.227 0.523-0.36 0.795-0.726 1.596-1.107 2.417-0.383 0.821-0.765 1.633-1.124 2.443l-0.001 0.005-0.002 0.004a6.455 6.455 0 0 1-0.171 0.456c-0.059 0.151-0.14 0.309-0.188 0.49v0.001c-0.061 0.164-0.123 0.325-0.157 0.503-0.049 0.181-0.066 0.356-0.065 0.517 0 0.342 0.097 0.603 0.282 0.735a1.1 1.1 0 0 0 0.654 0.188c0.2 0 0.384-0.049 0.55-0.131v-0.002h0.002a1.56 1.56 0 0 0 0.432-0.361c0.125-0.148 0.23-0.315 0.325-0.506 0.097-0.192 0.176-0.397 0.253-0.599l0.003-0.007v-0.006c0.013-0.061 0.061-0.199 0.138-0.401l0.266-0.716 0.312-0.841 0.327-0.858 0.279-0.714c0.079-0.204 0.126-0.345 0.156-0.419v-0.002c0.031-0.062 0.079-0.156 0.14-0.31l0.218-0.514 0.265-0.608 0.282-0.624 0.234-0.562 0.169-0.371 0.001-0.001c0.14-0.279 0.309-0.588 0.496-0.93v-0.002c0.202-0.34 0.419-0.665 0.651-1.005v-0.002c0.25-0.328 0.496-0.652 0.76-0.96 0.264-0.307 0.542-0.57 0.822-0.818 0.284-0.23 0.568-0.43 0.855-0.567a1.872 1.872 0 0 1 0.82-0.21c0.141 0 0.235 0.03 0.292 0.064a0.222 0.222 0 0 1 0.069 0.169c0 0.131-0.071 0.34-0.236 0.58v0.001c-0.171 0.263-0.371 0.542-0.62 0.853-0.266 0.312-0.531 0.639-0.826 0.98-0.296 0.345-0.578 0.688-0.844 1.032a10.15 10.15 0 0 0-0.677 0.99v0.002a2.493 2.493 0 0 0-0.336 0.87v0.012a0.317 0.317 0 0 1-0.007 0.036c-0.005 0.016-0.01 0.023-0.01 0.058v0.093c0 0.422 0.151 0.764 0.45 0.995 0.301 0.25 0.724 0.361 1.249 0.362 0.573 0 1.1-0.112 1.593-0.335 0.489-0.22 0.994-0.519 1.511-0.913h0.001c0.517-0.388 1.051-0.849 1.628-1.385 0.56-0.534 1.214-1.125 1.945-1.774a1.391 1.391 0 0 0 0.43-0.578c0.097-0.227 0.146-0.452 0.146-0.673a1.043 1.043 0 0 0-0.134-0.533 0.457 0.457 0 0 0-0.408-0.243 0.606 0.606 0 0 0-0.269 0.071c-0.087 0.043-0.179 0.099-0.279 0.166-0.171 0.054 0.028 0.103 0.049 0.177-0.884 0.79-1.649 1.457-2.255 1.981-0.624 0.545-1.148 0.966-1.554 1.294a9.679 9.679 0 0 1-0.943 0.674c-0.217 0.13-0.383 0.192-0.474 0.192-0.128 0-0.217-0.033-0.257-0.071a0.233 0.233 0 0 1-0.07-0.177c0-0.011 0.016-0.059 0.057-0.123 0.043-0.066 0.107-0.149 0.192-0.25l0.654-0.764c0.266-0.297 0.532-0.626 0.828-0.985 0.296-0.361 0.575-0.734 0.824-1.12 0.263-0.378 0.468-0.767 0.641-1.15 0.166-0.383 0.256-0.747 0.256-1.094a1.375 1.375 0 0 0-0.174-0.7 1.511 1.511 0 0 0-0.455-0.492c-0.181-0.131-0.391-0.23-0.616-0.298h-0.001a2.557 2.557 0 0 0-1.713 0.12 5.032 5.032 0 0 0-0.983 0.546 9.324 9.324 0 0 0-0.928 0.739 16.244 16.244 0 0 0-0.624 0.621l0.059-0.29c0.025-0.12 0.041-0.232 0.056-0.34v-0.001c0.016-0.112 0.021-0.191 0.022-0.245a0.869 0.869 0 0 0-0.207-0.613v-0.001h-0.004c-0.143-0.148-0.365-0.212-0.657-0.212-0.2 0-0.394 0.115-0.558 0.312a3.581 3.581 0 0 0-0.432 0.687 6.939 6.939 0 0 0-0.332 0.788l-0.218 0.621v0.001c-0.076 0.261-0.159 0.527-0.247 0.797-0.023 0.007-0.044 0.013-0.067 0.023a0.542 0.542 0 0 0-0.223 0.146l0.005-0.005c-0.194 0.187-0.412 0.406-0.656 0.639-0.241 0.233-0.498 0.466-0.762 0.7-0.266 0.218-0.535 0.452-0.805 0.668-0.266 0.214-0.526 0.402-0.773 0.567-0.246 0.166-0.476 0.296-0.688 0.396a1.275 1.275 0 0 1-0.508 0.144c-0.099 0-0.14-0.023-0.164-0.069h-0.002a0.511 0.511 0 0 1-0.052-0.254c0-0.186 0.033-0.399 0.105-0.641 0.069-0.24 0.141-0.45 0.213-0.632l0.046-0.049 0.615-1.564c0.233-0.599 0.483-1.225 0.763-1.892l0.843-2.06c0.279-0.701 0.562-1.38 0.826-2.027l0.78-1.809c0.233-0.552 0.437-1.017 0.608-1.393l-0.002 0.003c0.097-0.192 0.159-0.373 0.222-0.526v-0.003a1.534 1.534 0 0 0 0.09-0.488c0-0.322-0.1-0.575-0.295-0.727a0.985 0.985 0 0 0-0.631-0.219Z"/></svg>