<svg fill="#499848" role="img" viewBox="0 0 36 24" xmlns="http://www.w3.org/2000/svg"><title>Gunicorn</title><path d="M15.25 23.876c-0.394-0.126-0.396-0.181-0.032-1.282 0.362-1.101 0.196-2.122-0.475-2.925-0.914-1.092-1.355-2.024-1.495-3.164-0.119-0.978-0.159-1.057-0.557-1.132-0.267-0.052-0.637 0.05-1.516 0.416-1.28 0.534-1.586 0.771-1.887 1.452-0.16 0.359-0.178 0.574-0.089 0.989 0.111 0.507 0.56 1.322 0.732 1.323 0.044 0 0.29 0.169 0.546 0.374 0.425 0.341 0.455 0.4 0.333 0.678-0.261 0.605-0.882 1.337-1.132 1.337-0.141 0-0.714-0.403-1.349-0.944-1.239-1.063-1.292-1.171-1.422-2.912-0.148-2.079 0.362-3.05 2.638-5.002l1.428-1.225 0.092-0.741c0.093-0.768-0.039-2.59-0.262-3.597-0.133-0.593-0.566-1.16-0.978-1.274-0.449-0.124-0.711 0.133-1.055 1.028-0.37 0.969-0.72 1.307-1.364 1.307-0.4 0-0.771-0.256-1.028-0.707C6.192 7.554 6.084 5.614 6.195 4.593c0.053-0.489 0.056-0.987 0.008-1.104-0.08-0.19-0.771-0.6-2.401-1.426a6.436 6.436 0 0 1-0.768-0.449 4.524 4.524 0 0 0-0.726-0.396C1.689 0.944 0.075 0 0.226 0c0.286 0 1.497 0.373 2.143 0.659 0.394 0.175 0.771 0.319 0.837 0.319 0.067 0 0.827 0.245 1.69 0.543 0.86 0.299 1.646 0.544 1.748 0.543 0.237 0 0.274-0.207 0.199-1.105-0.036-0.408-0.034-0.741 0.003-0.741s0.196 0.079 0.353 0.175c0.48 0.293 1.512 0.474 2.726 0.474 1.16 0.003 2.676 0.233 3.255 0.496 0.83 0.376 1.795 1.556 3.017 3.691 0.851 1.485 1.764 2.113 3.072 2.114 0.529 0 1.941-0.218 3.853-0.592 1.575-0.311 3.656-0.384 4.464-0.153 0.986 0.282 2.29 1.037 3.364 1.947 1.008 0.854 1.165 1.043 1.785 2.176 0.741 1.352 1.556 3.271 2.282 5.367 0.104 0.299 0.32 0.8 0.483 1.116 0.436 0.842 0.415 0.894-0.378 0.894-0.86 0-1.264-0.136-1.827-0.615-0.541-0.459-0.682-0.741-1.53-3.038-0.433-1.18-0.855-1.887-1.126-1.887-0.184 0-0.557 1.263-0.557 1.887 0 0.445 0.277 1.04 0.993 2.144 1.168 1.793 1.781 4.33 1.535 6.343l-0.104 0.869-0.779 0.032c-1.223 0.05-1.211 0.068-1.211-1.682 0-1.863-0.126-2.266-0.948-3.016-0.341-0.311-1.109-1.2-1.703-1.971-0.596-0.771-1.165-1.402-1.266-1.402-0.234 0-0.35 0.634-0.361 1.974-0.009 0.882-0.044 1.031-0.304 1.305-0.705 0.737-1.2 2.079-1.506 4.081-0.068 0.445-0.126 0.526-0.413 0.59-0.422 0.095-1.593 0.111-1.694 0.022-0.087-0.074 0.065-1.279 0.412-3.246 0.13-0.747 0.274-1.749 0.317-2.227 0.079-0.851-0.096-2.445-0.302-2.767-0.086-0.133-0.523-0.163-2.567-0.172-1.356-0.004-2.842-0.049-3.305-0.098l-0.837-0.088v0.37c0 0.4 0.104 0.75 0.785 2.7 0.24 0.688 0.588 1.734 0.775 2.327l0.337 1.079-0.285 0.877a9.055 9.055 0 0 1-0.516 1.285c-0.225 0.394-0.252 0.406-0.881 0.4a4.401 4.401 0 0 1-1.004-0.123z"/></svg>