<svg fill="#1E54B7" role="img" viewBox="0 0 28 24" xmlns="http://www.w3.org/2000/svg"><title>H3</title><path d="M9.694 5.255c-0.113-0.051-0.294-0.096-0.426-0.197-0.556-0.429-1.098-0.879-1.65-1.313-0.198-0.154-0.223-0.319-0.102-0.537 0.354-0.638 0.679-1.296 1.057-1.917 0.119-0.198 0.354-0.38 0.575-0.453 0.906-0.299 1.822-0.573 2.746-0.814 0.219-0.057 0.515-0.01 0.72 0.096 0.599 0.307 1.172 0.665 1.754 1.01 0.303 0.18 0.333 0.266 0.207 0.597-0.247 0.648-0.503 1.29-0.74 1.941-0.125 0.34-0.368 0.54-0.696 0.638-1.006 0.297-2.014 0.585-3.022 0.875-0.116 0.029-0.237 0.041-0.423 0.074z m-6.986 5.641c-0.151-0.096-0.337-0.164-0.449-0.296C1.774 10.029 1.312 9.436 0.835 8.856 0.676 8.665 0.694 8.467 0.805 8.283c0.53-0.863 1.055-1.728 1.619-2.57 0.129-0.192 0.386-0.341 0.614-0.415 0.935-0.301 1.883-0.566 2.828-0.841 0.296-0.086 0.562-0.055 0.81 0.164 0.505 0.446 1.023 0.881 1.547 1.31 0.219 0.178 0.26 0.376 0.144 0.62-0.427 0.896-0.832 1.804-1.295 2.681-0.127 0.243-0.399 0.487-0.658 0.57-1.159 0.372-2.335 0.689-3.505 1.021-0.053 0.016-0.112 0.014-0.166 0.02-0.014 0.022-0.024 0.037-0.035 0.053z m17.078-10.512c0.186 0.053 0.386 0.082 0.558 0.165 0.82 0.391 1.632 0.795 2.445 1.2 0.307 0.153 0.47 0.323 0.377 0.737-0.157 0.703-0.264 1.417-0.375 2.129-0.055 0.35-0.247 0.568-0.568 0.662-1.204 0.352-2.409 0.695-3.615 1.031-0.323 0.09-0.632 0.01-0.91-0.174-0.787-0.525-1.573-1.051-2.36-1.575-0.225-0.151-0.303-0.339-0.205-0.603 0.26-0.712 0.495-1.432 0.779-2.135 0.072-0.178 0.264-0.372 0.442-0.429 1.059-0.34 2.131-0.646 3.2-0.959 0.07-0.022 0.149-0.014 0.223-0.019 0.004-0.01 0.008-0.02 0.01-0.03z m-8.471 12.359c-0.229-0.125-0.497-0.211-0.681-0.385-0.697-0.656-1.364-1.345-2.051-2.01-0.248-0.243-0.305-0.501-0.165-0.813 0.411-0.904 0.8-1.818 1.245-2.706 0.109-0.219 0.364-0.432 0.599-0.509 1.078-0.35 2.17-0.656 3.26-0.963 0.297-0.084 0.595-0.043 0.861 0.143 0.759 0.532 1.523 1.063 2.282 1.597 0.358 0.251 0.425 0.44 0.305 0.867-0.266 0.947-0.54 1.893-0.8 2.84-0.113 0.411-0.38 0.666-0.775 0.779-1.233 0.356-2.468 0.702-3.703 1.046-0.108 0.029-0.221 0.031-0.332 0.048a1.002 1.002 0 0 0-0.045 0.066zM0.271 16.688c0.104-0.262 0.174-0.515 0.296-0.739 0.56-1.049 1.135-2.09 1.702-3.136 0.211-0.391 0.524-0.652 0.953-0.772 1.082-0.307 2.163-0.615 3.245-0.924 0.409-0.117 0.736-0.031 1.035 0.295 0.622 0.677 1.268 1.331 1.914 1.985 0.307 0.309 0.385 0.65 0.231 1.051-0.491 1.276-0.979 2.552-1.473 3.824-0.19 0.487-0.55 0.787-1.057 0.923-1.264 0.344-2.527 0.697-3.791 1.045-0.614 0.17-0.865 0.072-1.202-0.461-0.528-0.84-1.063-1.679-1.585-2.523-0.104-0.172-0.172-0.364-0.268-0.568Zm27.442-7.078c-0.065 1.088-0.121 2.139-0.19 3.186-0.041 0.611-0.237 0.842-0.832 1.006-1.354 0.376-2.71 0.742-4.065 1.119-0.53 0.147-1 0.045-1.423-0.295-1.023-0.822-2.043-1.648-3.07-2.466-0.378-0.301-0.521-0.652-0.386-1.135 0.262-0.937 0.499-1.883 0.738-2.828 0.098-0.386 0.34-0.618 0.709-0.726 1.153-0.335 2.307-0.662 3.46-0.992 0.419-0.119 0.818-0.072 1.193 0.146 1.094 0.636 2.184 1.276 3.278 1.912 0.425 0.251 0.671 0.593 0.588 1.073zM9.608 19.236c0.106-0.34 0.178-0.611 0.272-0.874 0.397-1.11 0.816-2.213 1.2-3.329 0.196-0.567 0.554-0.896 1.133-1.051 1.168-0.307 2.327-0.646 3.489-0.977 0.489-0.139 0.912-0.055 1.307 0.284 0.983 0.842 1.975 1.671 2.971 2.499 0.458 0.382 0.652 0.832 0.537 1.437-0.28 1.472-0.527 2.951-0.793 4.426-0.102 0.56-0.434 0.924-0.986 1.073-1.536 0.413-3.074 0.828-4.615 1.229-0.558 0.145-1.01-0.051-1.368-0.495-0.654-0.81-1.311-1.617-1.969-2.425-0.278-0.343-0.579-0.669-0.826-1.031-0.162-0.241-0.247-0.53-0.352-0.766z"/></svg>