<svg fill="#2C3454" role="img" viewBox="0 0 21 24" xmlns="http://www.w3.org/2000/svg"><title>HackerEarth</title><path d="M16.946 20.936H4.052V19.66h12.894zM19.472 0H8.01v6.51h0.104c0.986-1.276 2.206-1.4 3.538-1.306 1.967 0.117 3.89 1.346 4.017 5.169v7.322c0 0.089-0.05 0.177-0.138 0.177h-2.29c-0.09 0-0.253-0.082-0.253-0.177V10.6c0-1.783-0.58-3.115-2.341-3.115-1.282 0-2.637 0.892-2.637 2.77v7.417c0 0.089-0.008 0.072-0.102 0.072h-2.29c-0.09 0-0.29 0.022-0.29-0.072V0H1.677c-0.843 0-1.581 0.673-1.581 1.515v20.996c0 0.843 0.738 1.489 1.58 1.489h17.797c0.843 0 1.431-0.646 1.431-1.489V1.515c0-0.842-0.588-1.515-1.43-1.515"/></svg>