<svg fill="#494649" role="img" viewBox="0 0 13 24" xmlns="http://www.w3.org/2000/svg"><title>HackerOne</title><path d="M1.707 0c-0.484 0-0.877 0.102-1.182 0.3-0.304 0.2-0.459 0.463-0.46 0.78v21.809c0 0.277 0.158 0.528 0.476 0.761 0.315 0.234 0.703 0.35 1.166 0.35 0.443 0 0.831-0.117 1.168-0.35 0.335-0.231 0.506-0.484 0.506-0.761V1.081c0-0.319-0.162-0.577-0.49-0.781C2.564 0.102 2.17 0 1.707 0z m9.523 8.662c-0.484 0-0.872 0.098-1.168 0.301l-4.439 2.782c-0.199 0.186-0.284 0.469-0.247 0.855 0.034 0.383 0.211 0.747 0.524 1.091 0.315 0.346 0.666 0.563 1.068 0.654 0.396 0.09 0.697 0.041 0.896-0.143l1.755-1.095v9.782c0 0.277 0.152 0.528 0.461 0.761 0.301 0.234 0.687 0.35 1.15 0.35 0.463 0 0.863-0.117 1.199-0.35 0.337-0.233 0.506-0.484 0.506-0.761V9.738c0-0.319-0.165-0.577-0.49-0.775-0.325-0.203-0.729-0.301-1.215-0.301z"/></svg>