<svg fill="#9FEF00" role="img" viewBox="0 0 22 24" xmlns="http://www.w3.org/2000/svg"><title>Hack The Box</title><path d="M21.511 6.456l0-0.012a0.888 0.888 0 0 0-0.271-0.638c-0.008-0.008-0.018-0.015-0.027-0.024-0.019-0.017-0.037-0.033-0.057-0.048-0.019-0.015-0.04-0.028-0.061-0.041-0.01-0.006-0.018-0.013-0.028-0.019L11.458 0.126a0.891 0.891 0 0 0-0.923 0.005L0.933 5.674c-0.011 0.006-0.02 0.014-0.031 0.021-0.007 0.005-0.015 0.008-0.022 0.013-0.007 0.005-0.013 0.011-0.02 0.015a0.877 0.877 0 0 0-0.147 0.133l-0.003 0.003a0.887 0.887 0 0 0-0.221 0.585l0 0.014c0 0.009-0.002 0.018-0.001 0.026v11.071c0 0.328 0.18 0.629 0.469 0.784l9.599 5.542c0.008 0.004 0.016 0.007 0.023 0.011a0.875 0.875 0 0 0 0.166 0.069c0.013 0.004 0.027 0.008 0.04 0.012a0.879 0.879 0 0 0 0.072 0.014c0.012 0.002 0.023 0.004 0.035 0.006a0.835 0.835 0 0 0 0.216 0c0.012-0.002 0.023-0.004 0.035-0.006a0.9 0.9 0 0 0 0.072-0.014c0.013-0.003 0.027-0.008 0.04-0.012a0.895 0.895 0 0 0 0.064-0.022 0.913 0.913 0 0 0 0.102-0.047c0.008-0.004 0.016-0.007 0.023-0.011l9.599-5.542a0.889 0.889 0 0 0 0.469-0.784V6.478c0-0.007-0.001-0.014-0.001-0.022zM4.254 6.082l6.537-3.774a0.418 0.418 0 0 1 0.418 0l6.537 3.774a0.418 0.418 0 0 1 0 0.724l-6.537 3.774a0.418 0.418 0 0 1-0.418 0l-6.537-3.774a0.418 0.418 0 0 1 0-0.724z m5.614 14.345a0.417 0.417 0 0 1-0.626 0.361L2.718 17.022a0.417 0.417 0 0 1-0.209-0.362V9.128a0.417 0.417 0 0 1 0.626-0.362l6.524 3.767a0.417 0.417 0 0 1 0.209 0.361v7.533z m9.623-3.767a0.417 0.417 0 0 1-0.209 0.362l-6.524 3.766a0.417 0.417 0 0 1-0.626-0.361v-7.533c0-0.149 0.08-0.287 0.209-0.361l6.524-3.767a0.417 0.417 0 0 1 0.626 0.362v7.532z"/></svg>