<svg fill="#1A1A1A" role="img" viewBox="0 0 27 24" xmlns="http://www.w3.org/2000/svg"><title>Hackaday</title><path d="M0.329 3.356c0-0.224 0.023-0.44 0.066-0.653l2.147 1.903 2.353-2.612L2.794 0.125c0.284-0.079 0.582-0.125 0.892-0.125a3.361 3.361 0 0 1 3.356 3.333v0.023c0 0.167-0.013 0.334-0.036 0.494l2.617 2.318a7.371 7.371 0 0 0-2.209 2.788L4.7 6.553a3.334 3.334 0 0 1-1.014 0.16A3.359 3.359 0 0 1 0.329 3.356z m22.985 13.933c-0.336 0-0.66 0.049-0.966 0.141l-2.533-2.243a7.531 7.531 0 0 1-1.996 2.97l2.187 1.937a3.348 3.348 0 0 0-0.048 0.551 3.359 3.359 0 0 0 4.319 3.215l-2.186-1.943 2.348-2.596 2.175 1.932c0.037-0.199 0.057-0.4 0.057-0.608v-0.029a3.355 3.355 0 0 0-3.357-3.327z m-3.728-8.333l2.714-2.403c0.32 0.102 0.66 0.159 1.014 0.16A3.359 3.359 0 0 0 26.605 2.704l-2.147 1.904-2.353-2.613 2.101-1.869a3.346 3.346 0 0 0-0.892-0.125 3.361 3.361 0 0 0-3.356 3.333v0.023c0 0.167 0.013 0.334 0.036 0.494l-2.617 2.318a7.371 7.371 0 0 1 2.209 2.788z m-12.402 6.231l-2.532 2.243A3.355 3.355 0 0 0 0.329 20.616v0.029c0 0.209 0.02 0.409 0.057 0.608l2.176-1.932 2.349 2.596-2.188 1.943a3.359 3.359 0 0 0 4.319-3.215 3.348 3.348 0 0 0-0.048-0.551l2.187-1.937a7.531 7.531 0 0 1-1.997-2.97z m9.846 2.916a1.181 1.181 0 1 1-2.153 0.465h-0.21a1.181 1.181 0 1 1-2.335 0h-0.164A1.213 1.213 0 0 1 10.976 19.936c-0.663 0-1.201-0.549-1.201-1.224 0-0.23 0.063-0.445 0.171-0.628-1.639-1.253-2.715-3.349-2.715-5.721 0-3.838 2.809-6.95 6.27-6.95s6.27 3.112 6.27 6.95c0 2.385-1.088 4.49-2.74 5.741z m-4.603-6.491a2.19 2.19 0 0 0-0.614-0.724 1.98 1.98 0 0 0-1.007-0.29 1.591 1.591 0 0 0-0.351 0.039c-0.445 0.055-0.82 0.359-1.079 0.711-0.227 0.282-0.404 0.625-0.408 0.993-0.035 0.305 0.026 0.61 0.083 0.909 0.072 0.353 0.322 0.641 0.603 0.849 0.131 0.104 0.318 0.248 0.483 0.128 0.11-0.147 0.018-0.362 0.118-0.525a0.549 0.549 0 0 1 0.283-0.358c0.289-0.145 0.578-0.288 0.887-0.39 0.25-0.074 0.457-0.24 0.669-0.383 0.28-0.216 0.465-0.612 0.333-0.959z m1.093 2.552c-0.306-0.008-0.691 1.358-0.63 1.954 0.192 0.79 0.26-0.554 0.63-0.556 0.355 0.015 0.302 1.377 0.581 0.553 0.086-0.549-0.246-1.943-0.581-1.951z m4.429-0.914c0.056-0.299 0.117-0.604 0.083-0.909-0.004-0.369-0.181-0.711-0.408-0.993-0.259-0.351-0.634-0.654-1.079-0.711a1.591 1.591 0 0 0-0.351-0.039c-0.351-0.001-0.707 0.11-1.007 0.29-0.258 0.188-0.461 0.446-0.614 0.724-0.133 0.347 0.053 0.743 0.333 0.959 0.213 0.143 0.419 0.31 0.669 0.385 0.307 0.101 0.598 0.244 0.887 0.388a0.549 0.549 0 0 1 0.283 0.358c0.1 0.161 0.008 0.378 0.117 0.525 0.166 0.121 0.353-0.023 0.483-0.128 0.283-0.209 0.532-0.496 0.604-0.849z"/></svg>