<svg fill="#B03532" role="img" viewBox="0 0 25 24" xmlns="http://www.w3.org/2000/svg"><title>HAL</title><path d="M19.296 5.325c0.48 0.485 1.118 0.75 1.798 0.755h0.009a2.501 2.501 0 0 0 1.58-0.553 12.11 12.11 0 0 0-3.549-3.616 2.556 2.556 0 0 0 0.162 3.414z m-0.647 0.71A7.058 7.058 0 0 1 16.559 0.62a11.981 11.981 0 0 0-2.641-0.62 9.688 9.688 0 0 0 2.835 7.936 9.921 9.921 0 0 0 7.005 2.894h0.036c0.238 0 0.476-0.01 0.71-0.027-0.09-0.92-0.283-1.811-0.566-2.661a7.271 7.271 0 0 1-5.289-2.107z m4.602 7.324a21.571 21.571 0 0 1-7.145-4.718 21.182 21.182 0 0 1-5.285-8.613 12.314 12.314 0 0 0-2.605 0.66 23.887 23.887 0 0 0 5.994 9.854 24.168 24.168 0 0 0 8.029 5.301c0.49 0.198 0.988 0.383 1.488 0.549 0.323-0.827 0.557-1.695 0.696-2.597-0.39-0.13-0.786-0.278-1.172-0.436z m-1.317 6.148L5.038 2.49a12.041 12.041 0 0 0-1.914 1.882l16.913 17.035c0.7-0.562 1.334-1.2 1.896-1.9z m-10.978-5.887a24.168 24.168 0 0 0-8.029-5.302c-0.57-0.23-1.145-0.436-1.726-0.624a11.958 11.958 0 0 0-0.67 2.6 21.571 21.571 0 0 1 8.533 5.226 21.246 21.246 0 0 1 5.218 8.408c0.903-0.135 1.771-0.369 2.596-0.692-0.18-0.553-0.377-1.1-0.602-1.645a23.775 23.775 0 0 0-5.32-7.971z m-2.542 2.606A9.913 9.913 0 0 0 0.496 13.372c0.103 0.921 0.314 1.807 0.61 2.651 0.09-0.004 0.18-0.004 0.27-0.004 1.866 0 3.73 0.705 5.146 2.112a7.058 7.058 0 0 1 2.098 5.046c0 0.081-0.004 0.167-0.004 0.248 0.844 0.287 1.735 0.48 2.651 0.575 0.022-0.27 0.036-0.54 0.036-0.814a9.691 9.691 0 0 0-2.889-6.96z m-2.539 2.611a2.551 2.551 0 0 0-3.438-0.162 12.11 12.11 0 0 0 3.631 3.536c0.35-0.445 0.543-0.993 0.548-1.568a2.524 2.524 0 0 0-0.741-1.807z"/></svg>