<svg fill="#000000" role="img" viewBox="0 0 41 24" xmlns="http://www.w3.org/2000/svg"><title>Handlebars.js</title><path d="M15.566 0.002a5.87 5.87 0 0 0-0.678 0.024C10.836 0.345 9.225 2.43 8.253 3.323c-0.973 0.893-2.818 3-4.042 2.629-1.227-0.369-1.572-1.883-1.14-2.35s0.772-0.383 1.043 0c0.165 0.306 0.247 0.652 0.238 0.999a2.314 2.314 0 0 0 0.745-1.132 1.348 1.348 0 0 0-0.754-1.73c-2.212-1.121-3.639 0.875-3.845 1.339-0.208 0.464-0.572 1.203-0.34 2.884 0.23 1.683 1.041 3.236 3.58 3.847a10.736 10.736 0 0 0 7.21-0.843l7.503-3.13a9.201 9.201 0 0 1 0.946-0.172v16.783c0 0.861 0.538 1.553 1.205 1.553 0.665 0 1.203-0.692 1.203-1.553V5.688a9.201 9.201 0 0 1 0.743 0.15l7.503 3.13a10.736 10.736 0 0 0 7.211 0.841c2.538-0.613 3.35-2.164 3.581-3.846 0.23-1.683-0.136-2.421-0.34-2.885-0.208-0.464-1.637-2.46-3.847-1.339a1.348 1.348 0 0 0-0.754 1.73c0.129 0.442 0.39 0.837 0.744 1.132a2.025 2.025 0 0 1 0.24-0.999c0.271-0.383 0.611-0.466 1.043 0s0.087 1.98-1.14 2.351c-1.225 0.369-3.069-1.735-4.043-2.63-0.971-0.893-2.583-2.977-6.635-3.297A5.87 5.87 0 0 0 20.5 2.903a5.87 5.87 0 0 0-4.934-2.901z m21.08 4.599v0.006l0.01 0.004c-0.003-0.003-0.007-0.007-0.01-0.007z m-32.293 0c-0.003 0.003-0.007 0.007-0.01 0.006l0.01-0.001V4.599z"/></svg>