<svg fill="#E50010" role="img" viewBox="0 0 37 24" xmlns="http://www.w3.org/2000/svg"><title>H&amp;M</title><path d="M25.876 0.73c1.32-0.65 1.975-0.564 1.991 0.092 0.018 0.856-0.108 1.99-0.199 2.815-0.49 4.467-1.31 8.119-1.373 12.708 2.159-5.587 3.97-9.471 6.3-14.254 0.74-1.522 1.211-1.24 1.819-1.51 2.369-1.054 2.459-0.406 2.148 0.881-1.149 4.775-4.085 19.809-4.536 22.124-0.13 0.67-0.858 0.387-1.047 0.124-0.843-1.166-1.793-1.184-1.686-1.96 0.528-3.859 2.43-13.543 2.926-15.824-2.53 5.184-5.151 11.663-6.497 15.337-0.286 0.781-0.805 0.723-1.13 0.152-0.455-0.802-1.339-1.211-1.484-2.159-0.464-3.012 0.528-8.756 0.666-12.387-1.376 3.969-3.688 11.674-4.701 15.154-0.418 1.44-1.808 1.205-1.438-0.199 1.539-5.842 4.852-16.174 6.287-19.889 0.337-0.873 1.22-0.843 1.954-1.205Zm-8.39-0.719c0.418 0.102 0.385 0.596 0.129 1.27-0.756 1.992-1.804 4.608-3.003 7.695 0.753-0.086 1.163-0.115 1.163-0.115 1.081-0.133 1.282 0.408 0.977 0.982-0.243 0.459-0.535 0.153-1.546 1.661-0.57 0.85-1.501 1.075-2.019 1.189-1.245 3.297-2.58 6.976-3.876 10.896-0.189 0.571-0.741 0.447-0.906 0.215-0.609-0.852-1.058-0.879-1.531-1.567-0.056-0.112-0.167-0.262-0.101-0.537 0.347-1.419 1.269-4.334 2.671-8.173-1.766 0.384-3.677 0.794-4.467 0.977-0.946 2.503-1.871 5.014-2.745 7.495-0.543 1.539-1.955 1.241-1.46-0.214 0.79-2.316 1.661-4.722 2.536-7.055-0.979-0.105-1.31-0.796-1.857-1.373-0.211-0.223-0.672-0.191-0.897-0.503-0.405-0.562-0.365-0.812 0.571-1.083 1.222-0.353 2.451-0.681 3.687-0.984 1.583-4.084 3.012-7.588 3.774-9.457 0.588-1.442 2.102-1.307 1.528 0.114-1.17 2.889-2.369 5.889-3.553 8.933 1.46-0.329 2.927-0.62 4.402-0.874 1.081-2.776 2.216-5.53 3.406-8.259 0.083-0.191 0.326-0.461 0.578-0.504 0.796-0.136 2.09-0.837 2.539-0.729ZM14.776 18.709c0.124-0.076 0.247-0.168 0.37-0.27-0.094-0.277-0.186-0.555-0.278-0.833-0.092 0.118-0.182 0.238-0.271 0.359-0.529 0.726-0.215 0.985 0.179 0.744Zm0.705-3.448c0.656-0.741-0.641-1.05-0.343 0.082 0.017 0.064 0.038 0.139 0.061 0.221 0.095-0.099 0.189-0.2 0.282-0.303Zm0.682 2.233c0.65-0.564 1.27-0.005 0.627 0.945a10.543 10.543 0 0 1-0.465 0.643c0.068 0.194 0.138 0.387 0.212 0.578 0.332 0.852-0.541 1.066-0.822 0.359a11.051 11.051 0 0 1-0.075-0.196c-0.531 0.47-1.143 0.766-1.798 0.561-1.078-0.335-1.352-1.852-0.346-3.021 0.403-0.468 0.706-0.794 0.961-1.053-0.062-0.202-0.123-0.405-0.179-0.608-0.132-0.473-0.249-1.023 0.225-1.586 0.888-1.054 2.948-0.118 1.905 1.504-0.25 0.391-0.544 0.759-0.85 1.134 0.106 0.335 0.212 0.668 0.321 1.002 0.092-0.091 0.186-0.177 0.284-0.262Z"/></svg>