<svg fill="#7C4EC4" role="img" viewBox="0 0 27 24" xmlns="http://www.w3.org/2000/svg"><title>HappyCow</title><path d="M9.817 0a1.037 1.037 0 0 0-0.032 0.001 3.843 3.843 0 0 0-1.246 0.257c-0.935 0.378-1.741 1.268-2.196 2.442a6.281 6.281 0 0 0-0.137 4.014c0.202-0.328 0.441-0.642 0.724-0.927 0.438-0.442 0.948-0.781 1.524-1.021-0.192-0.903-0.55-3.427 1.322-4.065 0 0-1.526 1.013-0.675 3.845a5.791 5.791 0 0 1 0.438-0.102c-0.393-1.003-0.454-1.85-0.177-2.522a2.762 2.762 0 0 1 0.562-0.714c0.294-0.301 0.57-0.586 0.532-0.869a0.369 0.369 0 0 0-0.202-0.246 1.037 1.037 0 0 0-0.437-0.093z m10.878 2.118a0.386 0.386 0 0 0-0.284 0.133c-0.155 0.219-0.046 0.594 0.069 0.99a2.786 2.786 0 0 1 0.162 0.908c-0.105 1.002-0.909 1.786-1.484 2.243 0.114 0.094 0.229 0.197 0.343 0.31 2.25-2.159 1.336-3.823 1.336-3.823 1.493 1.598-0.464 3.91-0.863 4.35 0.629 0.8 0.989 1.716 1.169 2.655a6.259 6.259 0 0 0 1.79-3.617c0.152-1.249-0.134-2.409-0.787-3.184-0.263-0.313-0.959-0.961-1.433-0.965a0.386 0.386 0 0 0-0.018 0z m-9.076 1.277c0.35 0.166 0.935 0.527 1.09 1.147l0.027 0.109-0.111-0.021c-1.204-0.229-1.881 0.342-2.168 0.683a2.239 2.239 0 0 1 0.867-0.164 3.183 3.183 0 0 1 1.239 0.266l0.183 0.085-0.197 0.05c-0.476 0.123-0.785 0.338-0.92 0.652-0.159 0.369-0.045 0.791 0.05 1.039 0.315-1.302 2.089-1.531 2.114-1.534h0.017a3.021 3.021 0 0 1 2.344 1.528c0.032-0.396-0.027-1.209-0.983-1.56l-0.164-0.066 0.16-0.073c0.723-0.329 2.059 0.46 2.534 0.767-0.473-1.249-2.245-1.385-2.264-1.386l-0.14-0.01 0.09-0.108c0.316-0.382 1.118-0.283 1.547-0.195-1.084-0.86-2.285-0.183-2.298-0.176l-0.108 0.062v-0.122a1.214 1.214 0 0 0-0.358-0.832 1.083 1.083 0 0 0-0.393 0.707l-0.008 0.169-0.116-0.123c-0.774-0.811-1.614-0.905-2.034-0.894z m-0.694 1.074c-1.63-0.01-2.94 0.47-3.893 1.43-1.59 1.604-1.786 4.151-1.786 5.32a3.151 3.151 0 0 1 0.378-0.097c0.721-0.136 1.331-0.097 1.892 0.047 0.026-0.696 0.237-3.636 2.005-3.557 0.065 0.003 0.131 0.01 0.2 0.021 2.806 0.452 1.459 4.746 1.295 5.238 0.513 0.233 1.075 0.433 1.726 0.564 0.7 0.139 1.351 0.155 1.961 0.106 0.03-0.63 0.31-4.59 2.728-4.57 0.175 0.001 0.361 0.024 0.559 0.07 1.893 0.455 1.067 3.11 0.818 3.801 0.459-0.014 0.915 0.037 1.375 0.203 0.289 0.103 0.555 0.258 0.797 0.456 0.327-1.97 0.312-4.499-1.241-6.336a5.006 5.006 0 0 0-2.238-1.542l-0.101-0.019c0.226 0.223 0.409 0.503 0.5 0.861l0.047 0.187-0.159-0.11c-0.016-0.011-1.53-1.064-2.38-0.922 1.159 0.562 0.854 1.858 0.85 1.872l-0.051 0.223-0.082-0.216a2.85 2.85 0 0 0-2.325-1.644 3.525 3.525 0 0 0-0.966 0.295c-0.644 0.31-0.998 0.763-1.053 1.344l-0.021 0.224-0.113-0.199c-0.017-0.031-0.419-0.751-0.152-1.375 0.133-0.308 0.406-0.536 0.812-0.675-0.387-0.133-1.287-0.356-2.043 0.103l-0.221 0.135 0.123-0.23a2.009 2.009 0 0 1 0.575-0.623 2.254 2.254 0 0 1 0.806-0.358 8.847 8.847 0 0 0-0.622-0.027z m-8.29 1.102v0.001c-0.6 0-1.24 0.138-1.764 0.614a2.335 2.335 0 0 0-0.737 1.598A1.627 1.627 0 0 0 0.564 8.991c0.804 0.846 2.458 0.698 3.553 0.601h0.057l0.095-0.009c0.401-0.033 0.712-0.068 0.968-0.104 0.125-0.774 0.373-1.723 0.871-2.596a6.431 6.431 0 0 1-0.128-0.453c-0.27-0.118-0.536-0.23-0.711-0.296a10.754 10.754 0 0 0-1.62-0.455 5.48 5.48 0 0 0-1.014-0.108z m0.163 0.752c0.188-0.002 0.381 0.026 0.585 0.063 0.32 0.053 0.983 0.235 1.259 0.554 0.275 0.32 1.098 1.514-0.832 1.813-0.629 0.064-1.631 0.181-2.112-0.331-0.438-0.469-0.256-1.3 0.192-1.727 0.3-0.28 0.595-0.368 0.908-0.372z m6.826 2.073c-0.834 0.026-1.496 1.008-1.475 2.212a3.033 3.033 0 0 0 0.129 0.826c0.446 0.193 0.878 0.438 1.333 0.696 0.234 0.133 0.47 0.267 0.714 0.398 0.502-0.362 0.849-1.111 0.834-1.979C11.138 9.345 10.458 8.37 9.624 8.396z m13.265 0.797a9.683 9.683 0 0 0-0.484 0.012h-0.057a34.505 34.505 0 0 0-0.458 0.028 6.408 6.408 0 0 1-0.717 0.821c0.108 0.641 0.136 1.289 0.111 1.917 0.251 0.117 0.571 0.255 1.028 0.43l0.097 0.039c0.975 0.38 2.596 1.011 3.621 0.524a1.442 1.442 0 0 0 0.772-0.93 1.945 1.945 0 0 0-0.227-1.536c-0.555-0.86-1.626-1.106-2.497-1.229a9.683 9.683 0 0 0-1.189-0.076z m-13.188 0.259a0.458 0.458 0 0 1 0.004 0 0.462 0.462 0 0 1 0.459 0.458 0.458 0.458 0 1 1-0.463-0.458z m7.644 0.246c-0.67 0.03-1.379 0.637-1.743 1.55-0.326 0.82-0.265 1.65 0.09 2.16 0.395-0.072 0.775-0.157 1.138-0.24 0.437-0.099 0.86-0.197 1.276-0.259a3.093 3.093 0 0 0 0.289-0.555c0.447-1.123 0.18-2.271-0.597-2.581a1.087 1.087 0 0 0-0.453-0.075z m6.288 0.205c0.186 0.001 0.357 0.016 0.477 0.032 0.554 0.079 1.013 0.182 1.333 0.693 0.31 0.49 0.246 1.247-0.32 1.525-0.608 0.295-1.525-0.085-2.112-0.319-1.759-0.789-0.627-1.578-0.265-1.776 0.226-0.124 0.577-0.158 0.887-0.155z m-6.412 0.716a0.456 0.456 0 0 1 0.449 0.448 0.458 0.458 0 1 1-0.469-0.448 0.456 0.456 0 0 1 0.02 0z m-10.722 0.561c-0.268-0.001-0.551 0.024-0.853 0.081-1.81 0.344-3.023 2.29-2.95 4.732a7.587 7.587 0 0 0 1.989 4.855c1.458 1.608 3.602 2.635 6.203 2.972v0.001c9.029 1.16 10.906-3.654 11.267-5.161 0.57-2.377-0.357-4.888-2.024-5.484-1.066-0.382-2.089-0.145-3.274 0.13-1.185 0.275-2.537 0.589-4.148 0.268-1.315-0.263-2.303-0.826-3.175-1.321-0.992-0.565-1.874-1.067-3.035-1.073z m1.851 2.239c0.444-0.011 0.98 0.351 1.291 0.889 0.342 0.615 0.246 1.237-0.223 1.375-0.469 0.139-1.131-0.246-1.475-0.86-0.344-0.615-0.246-1.237 0.223-1.376a0.708 0.708 0 0 1 0.184-0.028z m-2.855 1.052c0.578 0.008 1.261 0.352 1.737 1.02 0.693 0.971 0.694 2.271 0.096 2.698-0.599 0.426-1.749 0.01-2.442-0.96-0.693-0.97-0.692-2.121-0.085-2.559 0.19-0.137 0.431-0.203 0.694-0.199z m11.963 0.193c0.343 0.007 0.605 0.175 0.671 0.476 0.104 0.481-0.32 1.106-0.96 1.418-0.64 0.31-1.247 0.171-1.352-0.31-0.104-0.481 0.32-1.106 0.96-1.418 0.24-0.117 0.476-0.17 0.681-0.166z m2.321 1.819c0.268 0.009 0.502 0.095 0.674 0.266 0.522 0.52 0.266 1.631-0.587 2.473-0.842 0.842-1.951 1.106-2.473 0.587-0.522-0.52-0.256-1.631 0.586-2.474 0.526-0.527 1.157-0.827 1.683-0.852a1.483 1.483 0 0 1 0.117 0zM8.283 18.442a0.143 0.143 0 0 1 0.001 0 0.143 0.143 0 0 1 0.074 0.022 0.155 0.155 0 0 1 0.053 0.203 1.031 1.031 0 0 1-0.241 0.27 4.67 4.67 0 0 0 3.433 2.365c2.317 0.324 4.077-0.738 4.57-1.076a1.106 1.106 0 0 1-0.165-0.29 0.133 0.133 0 0 1 0.095-0.18 0.166 0.166 0 0 1 0.192 0.096 0.8 0.8 0 0 0 0.534 0.479 0.161 0.161 0 0 1 0.122 0.171 0.165 0.165 0 0 1-0.166 0.107H16.764a1.106 1.106 0 0 1-0.376-0.178c-0.487 0.359-2.352 1.573-4.807 1.181-2.448-0.391-3.44-2.045-3.679-2.522a1.031 1.031 0 0 1-0.351 0.068h-0.021l-0.005-0.004a0.141 0.141 0 0 1-0.123-0.149 0.131 0.131 0 0 1 0.139-0.146 0.719 0.719 0 0 0 0.614-0.342 0.143 0.143 0 0 1 0.128-0.075z"/></svg>