<svg fill="#2A6379" role="img" viewBox="0 0 30 24" xmlns="http://www.w3.org/2000/svg"><title>haveibeenpwned</title><path d="M3.825 0.003a2.604 2.604 0 0 0-0.415 0.024 1.127 1.127 0 0 0-0.304 0.084 0.657 0.657 0 0 0-0.207 0.11 0.623 0.623 0 0 0-0.166 0.179L0.862 3.208a5.088 5.088 0 0 0-0.384 0.663 2.721 2.721 0 0 0-0.249 0.618c-0.064 0.212-0.111 0.437-0.137 0.676A6.89 6.89 0 0 0 0.05 5.949c0 0.248 0.027 0.444 0.082 0.59a0.598 0.598 0 0 0 0.234 0.332 0.928 0.928 0 0 0 0.399 0.153c0.166 0.029 0.359 0.039 0.579 0.039v0.002c0.229 0 0.426-0.012 0.592-0.041a1.068 1.068 0 0 0 0.414-0.153 0.698 0.698 0 0 0 0.233-0.332c0.055-0.147 0.083-0.343 0.083-0.59V4.187L4.469 0.426a0.521 0.521 0 0 0 0.056-0.192 0.221 0.221 0 0 0-0.084-0.139 0.426 0.426 0 0 0-0.22-0.068 2.703 2.703 0 0 0-0.397-0.027z m5.415 6.989a2.529 2.529 0 0 0-0.696 0.081 0.806 0.806 0 0 0-0.427 0.255 1.013 1.013 0 0 0-0.227 0.482 4.281 4.281 0 0 0-0.054 0.748c0 0.284 0.017 0.526 0.054 0.722a1.1 1.1 0 0 0 0.227 0.481 0.934 0.934 0 0 0 0.427 0.256c0.179 0.045 0.411 0.066 0.696 0.066a2.741 2.741 0 0 0 0.682-0.066 0.934 0.934 0 0 0 0.429-0.256 0.934 0.934 0 0 0 0.228-0.482c0.045-0.196 0.066-0.436 0.066-0.723a3.451 3.451 0 0 0-0.066-0.747 0.875 0.875 0 0 0-0.228-0.481 0.806 0.806 0 0 0-0.429-0.255 2.413 2.413 0 0 0-0.682-0.081z m5.046 4.597a0.42 0.42 0 0 0-0.384 0.214c-0.085 0.142-0.128 0.394-0.128 0.754 0 0.361 0.044 0.618 0.128 0.769 0.086 0.143 0.214 0.212 0.385 0.211h5.954c0.162 0 0.284-0.069 0.37-0.211 0.085-0.142 0.126-0.399 0.126-0.769 0-0.181-0.012-0.334-0.041-0.457a0.794 0.794 0 0 0-0.1-0.299 0.311 0.311 0 0 0-0.158-0.171 0.417 0.417 0 0 0-0.197-0.041z m9.213 0a0.42 0.42 0 0 0-0.384 0.214c-0.086 0.142-0.13 0.394-0.129 0.754 0 0.361 0.044 0.618 0.129 0.769 0.085 0.143 0.213 0.212 0.384 0.211H29.452c0.162 0 0.284-0.069 0.369-0.211 0.087-0.142 0.13-0.399 0.129-0.769 0-0.181-0.015-0.334-0.043-0.457a0.794 0.794 0 0 0-0.1-0.299 0.308 0.308 0 0 0-0.156-0.171 0.427 0.427 0 0 0-0.199-0.041z m-14.103 5.345c-0.229 0-0.426 0.015-0.592 0.042a1.068 1.068 0 0 0-0.413 0.153 0.698 0.698 0 0 0-0.233 0.332 1.723 1.723 0 0 0-0.084 0.59v1.762L6.272 23.574a0.521 0.521 0 0 0-0.056 0.192c0.009 0.055 0.037 0.102 0.083 0.139 0.045 0.037 0.12 0.057 0.221 0.068 0.111 0.016 0.243 0.027 0.398 0.027 0.166 0 0.301-0.007 0.411-0.027a1.127 1.127 0 0 0 0.306-0.083 0.657 0.657 0 0 0 0.206-0.109 0.623 0.623 0 0 0 0.166-0.18l1.874-2.808a5.133 5.133 0 0 0 0.384-0.663c0.111-0.202 0.191-0.406 0.245-0.618 0.065-0.212 0.112-0.437 0.14-0.676 0.027-0.238 0.041-0.498 0.041-0.784a1.719 1.719 0 0 0-0.083-0.59 0.594 0.594 0 0 0-0.234-0.332 0.928 0.928 0 0 0-0.398-0.153 3.482 3.482 0 0 0-0.58-0.038z"/></svg>