<svg fill="#EA8220" role="img" viewBox="0 0 25 24" xmlns="http://www.w3.org/2000/svg"><title>Haxe</title><path d="M24.284 0a0.221 0.221 0 0 0-0.043 0.003h-5.853a0.221 0.221 0 0 0-0.1 0.023L12.5 2.918 6.71 0.026a0.221 0.221 0 0 0-0.098-0.023H0.738a0.221 0.221 0 0 0-0.026 0 0.221 0.221 0 0 0-0.21 0.256v5.853a0.221 0.221 0 0 0 0.024 0.1l2.894 5.785L0.526 17.79a0.221 0.221 0 0 0-0.024 0.099v5.84a0.221 0.221 0 0 0 0.002 0.078 0.221 0.221 0 0 0 0.253 0.19h5.855a0.221 0.221 0 0 0 0.099-0.023L12.5 21.076l5.789 2.898a0.221 0.221 0 0 0 0.099 0.023h5.877a0.221 0.221 0 0 0 0.232-0.257V17.89a0.221 0.221 0 0 0-0.023-0.1l-2.895-5.792 2.895-5.786a0.221 0.221 0 0 0 0.023-0.099V0.267a0.221 0.221 0 0 0-0.005-0.098 0.221 0.221 0 0 0-0.208-0.169zM2.522 0.445H6.56l4.038 2.017z m15.918 0h4.038l-8.075 2.017zM1.028 0.528l11.039 2.76-8.28 8.275-0.238-0.953zM23.97 0.535l-2.76 11.031-8.277-8.279z m0.084 1.487V6.06l-2.019 4.035z m-23.11 0.003L2.79 9.398l0.175 0.7L0.945 6.06zM12.5 3.48L21.02 12l-8.517 8.516-8.241-8.234L3.98 12z m8.712 8.952l0.088 0.351 2.672 10.688-11.04-2.76z m-17.424 0l8.274 8.274L1.031 23.46l0.266-1.065z m18.247 1.466l2.02 4.042v4.027z m-19.07 0l-2.02 8.08v-4.038z m7.626 7.638l-4.032 2.018H2.52z m3.818 0l8.071 2.018h-4.04z"/></svg>