<svg fill="#000000" role="img" viewBox="0 0 59 24" xmlns="http://www.w3.org/2000/svg"><title>HBO</title><path d="M17.461 23.888H11.08v-9.115H6.938v9.115H0.386L0.362 0.394h6.576v8.741h4.142v-8.741h6.381z m29.242 0.112C53.284 23.995 58.638 18.529 58.638 11.947a11.874 11.874 0 0 0-11.935-11.947c-6.573-0.005-9.931 4.834-10.761 6.787 0.007-2.931-2.882-6.391-6.265-6.396H18.792v23.49l10.152 0.002c4.094 0 7.008-3.545 7.012-6.587 0.935 1.913 4.176 6.707 10.75 6.702z m-18.611-9.557c0.94 0 1.68 0.928 1.68 1.984 0 1.056-0.741 1.984-1.68 1.983h-3.23v-3.967z m0.012-8.822c0.94 0 1.68 0.928 1.68 1.984 0 1.059-0.741 1.986-1.68 1.986h-3.23V5.621z m4.298 6.331c0.741-0.095 1.974-0.94 2.408-1.482-0.153 0.67-0.165 2.608 0.015 3.278-0.495-0.762-1.671-1.702-2.423-1.796z m8.328 0a5.978 5.978 0 1 1 11.956 0 5.978 5.978 0 0 1-11.958 0z m5.978 4.7a4.701 4.701 0 1 0 0-9.401 4.701 4.701 0 0 0 0 9.401Z"/></svg>