<svg fill="#006BB6" role="img" viewBox="0 0 168 24" xmlns="http://www.w3.org/2000/svg"><title>HCL</title><path d="M149.772 0.81l-7.679 17.078H167.993l-2.404 5.34H121.055l10.031-22.418z m-44.786 7.627h17.242c-0.106-3.764-3.75-6.376-10.969-7.414-14.242-2.096-29.645-1.203-40.611 4.853-8.641 4.801-9.302 12.022-0.693 15.561 7.249 2.952 22.472 3.259 33.366 1.407 7.053-1.198 12.442-3.514 15.464-6.981H101.177c-2.283 1.757-5.268 2.632-8.75 2.663-9.886 0.066-11.191-2.927-9.466-6.374 2.051-4.06 6.352-6.276 12.911-6.451 5.166-0.139 7.72 1.005 9.114 2.736M0.007 23.246h18.226l3.905-8.952h17.869l-4.012 8.939h18.444l10.119-22.42h-18.57l-3.338 7.565H24.8l3.381-7.565-18.045-0.004Z"/></svg>