<svg fill="#000000" role="img" viewBox="0 0 25 24" xmlns="http://www.w3.org/2000/svg"><title>hearthis.at</title><path d="M20.986 3.514C16.299-1.171 8.7-1.171 4.014 3.514c-4.687 4.686-4.687 12.286 0 16.971 4.685 4.686 12.285 4.686 16.972 0 4.687-4.685 4.687-12.285 0-16.971z m-5.811 14.434c-0.252 0.252-1.25 0.562-1.25-0.012 0-0.573-0.157-3.089-2.028-4.958-1.88-1.88-4.55-2.192-5.056-2.192-0.506 0-0.331-1-0.078-1.253 0.253-0.253 0.558-0.15 1.064-0.15 0 0 3.445 0.464 5.326 2.346 1.868 1.869 2.173 5.153 2.173 5.153 0 0.463 0.102 0.813-0.15 1.066z m4.022-0.509c-0.36 0.36-1.786 0.803-1.786-0.015 0-0.82-0.224-4.41-2.893-7.079C11.835 7.661 8.024 7.216 7.3 7.216c-0.723 0-0.473-1.426-0.113-1.787 0.361-0.36 0.799-0.214 1.52-0.214 0 0 4.918 0.663 7.603 3.348 2.666 2.667 3.1 7.357 3.101 7.357 0 0.658 0.147 1.158-0.215 1.52z"/></svg>