<svg fill="#99CC33" role="img" viewBox="0 0 28 24" xmlns="http://www.w3.org/2000/svg"><title>HelloFresh</title><path d="M11.421 23.937c-1.127-0.114-2.333-0.38-3.549-0.885-0.69-0.287-1.362-0.682-1.414-0.712-0.422-0.24-0.766-0.533-1.415-0.848-0.822-0.399-1.614-0.615-2.463-0.713-1.148-0.077-1.211 0.014-1.538-0.087-0.196-0.064-0.372-0.141-0.578-0.332-0.061-0.057-0.146-0.152-0.187-0.211-0.146-0.206-0.203-0.387-0.227-0.467-0.033-0.114-0.049-0.182-0.049-0.387 0-0.183 0.018-0.28 0.041-0.364 0.089-0.325 0.202-0.398 0.501-0.988 0.383-0.755 0.611-1.499 0.721-2.282a6.684 6.684 0 0 0 0.065-1.187c-0.017-0.591-0.045-0.715-0.046-1.218-0.003-1.464 0.277-2.747 0.645-3.834 0.24-0.709 0.454-1.175 0.706-1.672 0.682-1.348 1.751-2.891 3.424-4.307 0.902-0.764 2.302-1.75 4.146-2.47 1.569-0.613 2.943-0.818 3.574-0.889 0.775-0.101 2.108-0.144 3.471 0.063 1.163 0.176 2.618 0.568 4.098 1.4 0.503 0.283 0.795 0.511 1.183 0.734 0.95 0.548 1.925 0.823 2.855 0.935 0.495 0.059 1.239 0.005 1.519 0.078 0.172 0.044 0.298 0.101 0.455 0.205 0.132 0.088 0.423 0.322 0.573 0.756 0.071 0.207 0.145 0.709-0.115 1.156-0.043 0.073-0.124 0.213-0.182 0.312-0.057 0.098-0.166 0.306-0.242 0.462-0.771 1.596-0.754 2.97-0.701 3.807 0.062 0.98 0.058 2.606-0.632 4.624-0.121 0.354-0.392 1.086-0.819 1.884-0.966 1.803-2.188 3.072-2.96 3.763-1.72 1.54-3.457 2.377-4.581 2.802-1.047 0.396-1.847 0.594-2.686 0.738-0.809 0.139-2.122 0.283-3.593 0.134z"/></svg>