<svg fill="#DA2128" role="img" viewBox="0 0 48 24" xmlns="http://www.w3.org/2000/svg"><title>Helly Hansen</title><path d="M45.626 0a2.158 2.158 0 1 0-0.004 4.316 2.158 2.158 0 0 0 0.004-4.316z m0.024 0.48a1.685 1.685 0 1 1 0 3.369 1.685 1.685 0 0 1 0-3.369z m-0.658 0.743v1.886h0.356v-0.697h0.339l0.365 0.697h0.41l-0.422-0.763c0.091-0.034 0.377-0.133 0.377-0.554 0-0.329-0.238-0.569-0.641-0.569h-0.784z m0.356 0.311h0.331c0.246 0 0.365 0.113 0.365 0.285 0 0.176-0.129 0.283-0.309 0.284h-0.389v-0.569zM0.218 2.168v21.832h7.301v-7.491h6.982v7.491h2.814l4.261-21.832H14.529v7.638H7.541V2.168H0.218z m24.034 0L20.013 24h7.025V16.36h6.984v7.638h7.327V2.168H34.048v7.491h-6.986v-7.491h-2.81Z"/></svg>