<svg fill="#2FC774" role="img" viewBox="0 0 28 24" xmlns="http://www.w3.org/2000/svg"><title>HelpDesk</title><path d="M14 10.526l6.994-6.069H14c-2.469 0-4.937 0.069-7.269 0.24-0.96 0.069-1.714 0.789-1.782 1.749-0.137 1.44-0.206 3.257-0.206 5.04v0.994c0 1.817 0.069 3.6 0.206 5.04 0.103 0.926 0.857 1.68 1.782 1.714a102.857 102.857 0 0 0 14.538 0c0.926-0.034 1.714-0.789 1.782-1.714 0.103-1.371 0.171-3.051 0.206-4.766L27.714 8.914V12.754c0 1.817-0.069 3.634-0.205 5.109a6.366 6.366 0 0 1-5.932 5.828c-2.434 0.206-5.006 0.309-7.577 0.309s-5.143-0.103-7.577-0.274a6.366 6.366 0 0 1-5.932-5.829C0.354 16.354 0.286 14.434 0.286 12.514v-0.994C0.286 9.6 0.354 7.68 0.491 6.103a6.366 6.366 0 0 1 5.932-5.829C8.857 0.103 11.429 0 14 0h13.714v4.457L14 16.354l-6.411-5.554L10.949 7.886z"/></svg>