<svg fill="#E1251B" role="img" viewBox="0 0 66 24" xmlns="http://www.w3.org/2000/svg"><title>Hepsiemlak</title><path d="M26.76 20.189c0 1.306-1.09 2.148-2.958 2.147-0.877 0-2.026-0.164-2.865-0.744l0.685-1.292c0.552 0.358 1.223 0.619 2.193 0.62 0.806 0 1.191-0.222 1.191-0.595 0-0.304-0.325-0.475-1.071-0.581l-0.525-0.07c-1.488-0.203-2.227-0.842-2.226-1.923 0-1.299 1.024-2.068 2.718-2.069 0.934-0.018 1.858 0.189 2.692 0.6l-0.585 1.329c-0.515-0.248-1.329-0.506-2.053-0.516-0.659 0-0.991 0.229-0.991 0.575 0 0.365 0.465 0.456 1.05 0.541l0.572 0.085c1.397 0.208 2.173 0.822 2.173 1.893z m-6.239-1.263c0 1.85-1.323 3.244-3.077 3.243-0.854 0-1.457-0.324-1.871-0.802v2.633h-1.707v-8.153h1.673v0.681c0.415-0.503 1.024-0.846 1.898-0.847 1.758 0 3.084 1.393 3.084 3.245z m-1.759 0c0-0.941-0.63-1.698-1.64-1.699-0.972 0-1.635 0.725-1.635 1.699 0 0.972 0.663 1.699 1.635 1.698 1.011 0 1.641-0.758 1.64-1.698z m-5.728 0.075a4.761 4.761 0 0 1-0.033 0.572H8.541c0.182 0.911 0.819 1.316 1.617 1.315a2.531 2.531 0 0 0 1.59-0.607l0.994 1.097c-0.715 0.659-1.623 0.958-2.682 0.958-1.928 0-3.265-1.315-3.265-3.307 0-1.992 1.298-3.347 3.181-3.348 1.812 0 3.05 1.351 3.058 3.32z m-1.701-0.586c-0.155-0.809-0.643-1.266-1.37-1.266-0.8 0-1.267 0.482-1.415 1.266h2.785z m16.675 3.746h1.664v-6.239h-1.664v6.24zM13.035 19.003v-0.004l-0.001 0.002v0.002z m1.663-12.172l7.859 6.896 3.372-3.875-11.231-9.852-11.23 9.852 3.371 3.875 7.859-6.896z m-10.887 8.885c-0.722 0-1.424 0.22-1.894 0.842l0.001-2.71H0.14v8.319h1.777v-3.443c0-0.947 0.634-1.42 1.396-1.42 0.812 0 1.288 0.503 1.288 1.408v3.455h1.778V18.167c0-1.459-1.069-2.452-2.569-2.452z m45.411 6.451h1.664v-8.319h-1.664v8.319z m14.23-3.331l2.385-2.96-2.102 0.001-1.792 2.24h-0.605l-0.002-4.269h-1.715l0.004 8.319 1.715-0.001-0.001-2.544h0.578l1.834 2.543 2.109-0.001-2.408-3.328z m-4.665-2.986l0.002 6.322h-1.674v-0.699c-0.412 0.506-1.029 0.863-1.902 0.864-1.752 0-3.079-1.428-3.079-3.327-0.001-1.899 1.323-3.328 3.076-3.329 0.874 0 1.484 0.352 1.904 0.867v-0.698h1.673z m-1.621 3.159c-0.001-0.998-0.664-1.742-1.641-1.742-1.004 0-1.639 0.777-1.639 1.742 0 0.966 0.637 1.742 1.641 1.741 0.978 0 1.641-0.744 1.639-1.741z m-11.723-3.424c-0.843 0.001-1.682 0.287-2.179 1.101-0.43-0.682-1.195-1.099-2.119-1.099-0.728 0-1.431 0.242-1.887 0.924v-0.755h-1.683v6.415h1.729v-3.516c-0.002-0.966 0.615-1.45 1.357-1.45 0.789 0 1.253 0.514 1.253 1.437v3.526h1.728V18.651c-0.001-0.966 0.615-1.45 1.357-1.45 0.782 0 1.252 0.513 1.252 1.438v3.529h1.722v-4.084l0.002 0.003c-0.001-1.49-1.022-2.502-2.532-2.502z m-8.284 3.415a5.033 5.033 0 0 1-0.032 0.572H32.666c0.183 0.911 0.82 1.315 1.618 1.316a2.535 2.535 0 0 0 1.589-0.607l0.995 1.095c-0.714 0.66-1.623 0.961-2.681 0.961-1.928 0-3.266-1.315-3.266-3.306-0.002-1.99 1.296-3.348 3.179-3.35 1.812 0 3.051 1.349 3.059 3.319z m-1.701-0.583c-0.156-0.81-0.644-1.265-1.37-1.265-0.799 0-1.266 0.483-1.415 1.265h2.785z m1.702 0.584z m-8.38-5.973a1.039 1.039 0 0 0-0.961 0.641 1.039 1.039 0 0 0 0.224 1.133 1.039 1.039 0 0 0 1.134 0.226 1.041 1.041 0 0 0 0.337-1.696 1.038 1.038 0 0 0-0.734-0.304z"/></svg>