<svg fill="#00AFAA" role="img" viewBox="0 0 27 24" xmlns="http://www.w3.org/2000/svg"><title>HERE</title><path d="M21.456 0.003c-0.761 0.039-1.492 0.419-2.192 1.131-1.059 1.077-1.205 2.407-0.741 3.619l-1.19-1.432c-0.116 0.045-0.334 0.222-0.553 0.443-0.624 0.65-0.769 1.654-0.608 2.319l-0.802-0.693-1.582 1.61 2.178 2.215c-1.728-1.447-3.282-1.374-4.717 0.09-1.453 1.477-1.366 3.28-0.161 4.785l-0.203-0.206c-1.292-1.315-2.541-1.597-3.776-0.326-0.727 0.724-0.842 1.434-0.77 2.071l-3.049-3.089-1.774 1.802 5.863 5.98H0.404l3.615 3.678 3.581-3.645h3.414l-2.483-2.525c-0.871-0.873-1.134-1.478-0.597-2.025 0.393-0.414 0.844-0.401 1.395 0.162l2.991 3.059 1.801-1.832-2.236-2.275c1.771 1.493 3.703 1.124 5.17-0.383 0.77-0.768 1.19-1.479 1.395-1.965l-1.584-0.901a7.141 7.141 0 0 1-0.959 1.33c-0.872 0.886-1.684 0.886-2.235 0.427l3.209-3.265L18.957 12.273l1.8-1.831-1.945-1.981c-1.582-1.611-1.119-2.466-0.754-2.836 0.231-0.237 0.464-0.413 0.625-0.502a4.565 4.565 0 0 0 0.869 1.196c1.886 1.936 3.951 1.67 5.533 0.046 0.944-0.96 1.396-1.846 1.511-2.291l-1.554-0.872a6.441 6.441 0 0 1-1.117 1.625c-0.858 0.886-1.672 0.887-2.223 0.43l3.241-3.282-0.408-0.413C23.464 0.465 22.436-0.047 21.457 0.003z m-0.06 2.093c0.298-0.002 0.609 0.123 0.914 0.382l-1.742 1.772c-0.493-0.575-0.507-1.24 0-1.772 0.247-0.251 0.529-0.381 0.828-0.382z m-8.029 8.17c0.3-0.002 0.615 0.123 0.927 0.382l-1.757 1.774c-0.493-0.576-0.509-1.256 0-1.774 0.248-0.251 0.53-0.381 0.83-0.382z"/></svg>