<svg fill="#430098" role="img" viewBox="0 0 22 24" xmlns="http://www.w3.org/2000/svg"><title>Heroku</title><path d="M19.61 0H2.39C1.189 0 0.23 0.96 0.23 2.16v19.681c0 1.198 0.959 2.159 2.16 2.159h17.22c1.2 0 2.159-0.961 2.159-2.159V2.16C21.77 0.96 20.811 0 19.61 0z m0.96 21.841c0 0.539-0.421 0.96-0.96 0.96H2.39c-0.54 0-0.96-0.421-0.96-0.96V2.16c0-0.54 0.42-0.961 0.96-0.961h17.22c0.539 0 0.96 0.421 0.96 0.961v19.681zM5.63 20.399L8.33 18l-2.7-2.4v4.799z m9.72-9.719c-0.479-0.48-1.379-1.08-2.879-1.08-1.621 0-3.301 0.421-4.5 0.84V3.6h-2.4v10.38l1.68-0.78s2.76-1.26 5.16-1.26c1.2 0 1.5 0.66 1.5 1.26v7.2h2.4v-7.2c0.059-0.179 0.059-1.501-0.961-2.52zM12.17 7.5h2.4c1.08-1.26 1.62-2.521 1.8-3.9h-2.399c-0.241 1.379-0.841 2.64-1.801 3.9z"/></svg>