<svg fill="#000000" role="img" viewBox="0 0 31 24" xmlns="http://www.w3.org/2000/svg"><title>Hevy</title><path d="M8.889 0c1.858 0 3.371 1.464 3.426 3.289q0.003 2.046 0.002 4.093c0 0.722-0.525 1.514-1.319 1.767-0.795 0.255-1.278-0.544-1.317-1.231q-0.003-2.263-0.001-4.525a0.787 0.787 0 0 0-0.896-0.776c-0.473 0.059-0.888 0.132-1.322 0.2l-0.404 0.074q-1.678 0.319-2.677 0.736c-0.426 0.179-0.737 0.362-0.93 0.534-0.121 0.107-0.168 0.178-0.177 0.223-0.052 0.211-0.056 0.361-0.087 0.567-0.059 0.568-0.072 0.945-0.105 1.484l-0.022 0.571c-0.052 1.779-0.062 2.956-0.062 4.603 0.009 1.538 0.024 2.594 0.059 4.027 0.02 0.871 0.056 1.551 0.094 2.414q0.025 0.439 0.058 0.878c0.016 0.275 0.048 0.484 0.073 0.742q0.032 0.033 0.067 0.063c0.173 0.146 0.476 0.318 0.903 0.492q0.625 0.256 1.529 0.492c0.434 0.12 0.858 0.203 1.263 0.295 0.627 0.131 1.11 0.208 1.716 0.313a0.79 0.79 0 0 0 0.908-0.646c0.01-0.042 0.008-0.085 0.012-0.126v-2.638a7.028 7.028 0 0 1 3.391-6.006l3.398-1.967a4.429 4.429 0 0 0 2.219-3.692c0.006-0.926 0.003-1.852 0.003-2.778 0-1.874 1.534-3.394 3.428-3.394q0.278 0 0.552 0.046c0.638 0.101 1.072 0.187 1.67 0.297 0.338 0.066 0.603 0.129 0.938 0.202 0.175 0.04 0.342 0.082 0.524 0.126l0.333 0.089c2.615 0.707 3.997 1.643 4.191 3.083 0.028 0.202 0.039 0.36 0.061 0.552q0.029 0.353 0.054 0.706c0.043 0.635 0.062 1.148 0.092 1.789 0.029 0.698 0.04 1.239 0.06 1.927l0.024 1.153c0.015 0.946 0.019 1.687 0.022 2.627l-0.004 1.187q-0.008 0.801-0.018 1.603-0.013 0.638-0.033 1.276c-0.014 0.488-0.035 0.859-0.056 1.329q-0.019 0.332-0.041 0.661c-0.013 0.193-0.033 0.385-0.05 0.577-0.018 0.211-0.045 0.375-0.07 0.583q-0.025 0.174-0.066 0.344c-0.375 1.556-2.009 2.545-4.903 3.221-0.307 0.073-0.65 0.139-0.925 0.197-0.37 0.074-0.656 0.119-1.004 0.18q-0.43 0.069-0.86 0.132c-1.875 0.269-3.613-1.018-3.884-2.873a3.785 3.785 0 0 1-0.031-0.323c-0.009-1.375-0.004-2.75-0.004-4.125 0-0.72 0.638-1.606 1.318-1.766s1.277 0.545 1.316 1.231c0.005 1.499 0.003 2.998 0.003 4.497 0.004 0.479 0.43 0.845 0.904 0.775 0.423-0.057 0.722-0.114 1.101-0.175 0.358-0.061 0.631-0.121 0.979-0.188 0.314-0.063 0.551-0.129 0.856-0.199 0.231-0.058 0.406-0.111 0.62-0.17 0.146-0.042 0.29-0.091 0.434-0.136 0.129-0.043 0.254-0.092 0.381-0.138q0.164-0.064 0.325-0.135c0.092-0.04 0.18-0.088 0.27-0.132 0.1-0.049 0.169-0.103 0.263-0.161q0.24-0.173 0.276-0.318c0.115-0.555 0.134-1.194 0.169-1.674 0.114-2.493 0.102-4.996 0.081-7.247-0.016-1.178-0.039-2.078-0.073-3.215l-0.039-0.988c-0.023-0.508-0.05-0.902-0.079-1.374-0.013-0.208-0.037-0.415-0.054-0.622l-0.019-0.161-0.059-0.056c-0.172-0.146-0.473-0.317-0.9-0.492q-0.965-0.395-2.603-0.744c-0.732-0.156-1.274-0.244-1.915-0.356a0.789 0.789 0 0 0-0.916 0.712c-0.006 0.9-0.003 1.8-0.002 2.7a7.028 7.028 0 0 1-3.393 6.004q-1.696 0.988-3.396 1.967a4.429 4.429 0 0 0-2.221 3.693v2.777q0 0.274-0.047 0.549c-0.305 1.848-2.069 3.104-3.936 2.801-0.462-0.073-0.815-0.141-1.267-0.222-0.358-0.066-0.632-0.127-0.966-0.196-0.416-0.086-0.84-0.202-1.219-0.295C2.278 22.485 0.891 21.551 0.681 20.118c-0.048-0.332-0.059-0.573-0.094-0.906-0.042-0.514-0.059-0.908-0.088-1.413-0.038-0.748-0.056-1.358-0.08-2.116-0.032-1.107-0.04-1.951-0.054-3.017l-0.004-0.624L0.36 11.558l0.002-1.072c0.005-1.017 0.02-1.799 0.044-2.793 0.01-0.385 0.028-0.77 0.042-1.156 0.014-0.385 0.043-0.77 0.066-1.155 0.019-0.303 0.047-0.534 0.072-0.824 0.016-0.155 0.042-0.31 0.061-0.465 0.013-0.097 0.037-0.192 0.055-0.288 0.343-1.489 1.779-2.467 4.289-3.129 0.314-0.088 0.559-0.134 0.857-0.205 0.246-0.054 0.493-0.1 0.741-0.149q0.293-0.054 0.588-0.104c0.303-0.05 0.535-0.082 0.825-0.127l0.431-0.059q0.227-0.03 0.454-0.031"/></svg>