<svg fill="#E42C51" role="img" viewBox="0 0 50 24" xmlns="http://www.w3.org/2000/svg"><title>Hi Bob</title><path d="M26.094 23.5c-4.313 0-7.823-3.541-7.822-7.892 0-4.353 3.51-7.891 7.822-7.891s7.823 3.539 7.823 7.891c0 4.351-3.51 7.891-7.821 7.892m0-13.308c-2.961 0-5.37 2.43-5.37 5.414 0 2.988 2.407 5.418 5.368 5.418s5.368-2.43 5.369-5.418c0-2.984-2.409-5.412-5.369-5.412M3.625 8.676V1.786a1.782 1.782 0 0 0-1.771-1.786 1.778 1.778 0 0 0-1.774 1.786v13.772c0.004 4.66 3.759 8.442 8.369 8.442 4.612 0 8.367-3.786 8.367-8.442 0-4.652-3.755-8.437-8.367-8.437a8.265 8.265 0 0 0-4.824 1.553z m4.824 11.75a4.849 4.849 0 0 1-4.824-4.866 4.849 4.849 0 0 1 4.824-4.863 4.849 4.849 0 0 1 4.824 4.863 4.849 4.849 0 0 1-4.824 4.866m34.192-12.157a7.25 7.248 90 0 0-5.914 3.082V1.001a0.685 0.685 0 0 0-0.679-0.687 0.685 0.685 0 0 0-0.681 0.687v14.611c0.004 4.047 3.265 7.337 7.276 7.337 4.01 0 7.277-3.294 7.277-7.343 0-4.047-3.267-7.339-7.279-7.339m0 13.307c-3.26 0-5.912-2.677-5.912-5.966s2.654-5.964 5.912-5.964c3.26 0 5.914 2.675 5.915 5.964 0 3.292-2.652 5.966-5.915 5.966"/></svg>