<svg fill="#231F20" role="img" viewBox="0 0 65 24" xmlns="http://www.w3.org/2000/svg"><title>Hilton</title><path d="M0.184 0v24h64.632V0H0.184z m63.522 22.899H1.277V1.093h62.429v21.806zM10.1 18.49h-4.363v-0.67l0.873-0.119V6.272l-0.873-0.121v-0.652h4.363v0.652l-0.873 0.121v4.882h5.674V6.272l-0.956-0.121v-0.652h4.436v0.652l-0.9 0.121v11.429l0.9 0.119v0.673H13.945v-0.673l0.956-0.119v-5.205H9.227v5.205l0.873 0.119v0.673z m14.267 0H20.29v-0.587l0.835-0.118V9.953l-0.835-0.121v-0.587h3.24v8.537l0.834 0.121v0.587z m5.847 0.011H26.139v-0.579l0.816-0.111V6.197l-0.816-0.119V5.51h3.24v12.301l0.835 0.108v0.582z m2.534-8.391h-1.708v-0.862h1.772v-1.931l2.37-0.706v2.634h2.173v0.862h-2.181v5.502c0 1.422 0.291 1.872 1.586 1.871 0.477 0 0.899 0 1.293-0.099v0.632c-1.174 0.412-2.165 0.587-3 0.588-1.874 0-2.305-0.846-2.305-2.462v-6.032z m10.567 8.655c3.067 0 5.012-1.925 5.012-4.81 0-3.167-1.826-4.966-4.856-4.966-3.067 0-5.012 1.993-5.011 4.966 0 3.555 1.89 4.81 4.855 4.81z m0.065-9.059c1.414 0 2.286 1.276 2.286 4.195 0 2.992-0.819 4.158-2.289 4.158-1.373 0-2.246-1.22-2.246-4.158 0-2.976 0.87-4.196 2.249-4.195z m10.018 8.784h-4.096v-0.587l0.834-0.118v-7.767l-0.834-0.121v-0.652h3.258v1.287c1.01-0.808 1.993-1.462 3.361-1.462 1.826 0 2.642 1.066 2.642 3.159v5.564l0.835 0.11v0.587h-4.075v-0.587l0.816-0.118v-5.263c0-1.46-0.539-2.111-1.651-2.111-0.514 0-1.333 0.358-1.928 0.773v6.598l0.835 0.121v0.587zM21.022 6.803a1.311 1.311 0 0 1 2.626 0 1.311 1.311 0 0 1-1.314 1.306 1.306 1.306 0 0 1-1.312-1.306z"/></svg>