<svg fill="#1E4380" role="img" viewBox="0 0 35 24" xmlns="http://www.w3.org/2000/svg"><title>Hilton Hotels &amp; Resorts</title><path d="M16.339 0C7.022 0 0.16 5.934 0.16 12.274c0 3.276 1.843 6.036 4.161 7.949l0.176-0.12C2.658 18.579 0.998 16.191 0.998 12.92 1.484 5.983 10.023 2.072 17.61 2.072c5.372 0 15.018 1.244 15.019 10.24 0 4.694-5.006 10.798-15.515 10.798-5.382 0-9.563-2.888-9.563-7.037 0-3.594 2.808-6.153 6.996-6.153 1.154 0 2.235 0.27 3.06 0.495-1.746-0.315-4.458 0.134-5.861 1.239v6.075h5.146v-6.906a6.356 6.356 0 0 1 2.241 0.863v6.043h1.341c-1.054 1.184-3.017 1.905-4.717 1.641v0.254c4.89 0.385 6.959-1.938 6.959-4.552 0-3.075-2.88-4.882-5.824-5.251V5.279H11.746v4.596c-3.33 0.672-6.59 2.655-6.59 5.938 0 5.055 7.052 8.187 13.186 8.187C27.666 24 34.84 19.483 34.84 13.146c0-7.671-10.358-13.146-18.501-13.146m7.092 15.249c0-2.234-1.524-4.023-4.298-4.887V5.279h5.14v12.45H22.666c0.565-0.798 0.765-1.703 0.765-2.48"/></svg>