<svg fill="#FF7A00" role="img" viewBox="0 0 25 24" xmlns="http://www.w3.org/2000/svg"><title>Hive</title><path d="M20.241 21.732c0.572-0.198 0.77-0.266 1.03-0.388 0.356-0.158 0.629-0.406 0.629-0.851a0.88 0.88 0 0 0-0.629-0.846c-0.331-0.096-0.731 0.044-1.03 0.127l-5.639 1.519a8.123 8.123 0 0 1-4.22 0l-5.625-1.519c-0.299-0.083-0.699-0.223-1.03-0.127a0.881 0.881 0 0 0-0.629 0.846c0 0.444 0.274 0.693 0.629 0.851 0.26 0.122 0.458 0.191 1.03 0.388l5.345 1.862c1.551 0.541 3.229 0.541 4.787 0z m-9.636-3.354a7.929 7.929 0 0 0 3.782 0l8.333-2.046c0.527-0.127 0.738-0.172 1.03-0.268 0.368-0.121 0.629-0.432 0.629-0.838a0.881 0.881 0 0 0-0.629-0.846c-0.292-0.083-0.725 0.025-1.03 0.083l-9.013 1.608a7.088 7.088 0 0 1-2.428 0l-9.001-1.608c-0.305-0.058-0.737-0.166-1.03-0.083a0.881 0.881 0 0 0-0.628 0.846c0 0.406 0.26 0.718 0.628 0.838 0.293 0.096 0.502 0.14 1.03 0.268zM15.36 0.162a25.415 25.415 0 0 0-5.733 0L6.772 0.487c-0.306 0.031-0.744 0.057-1.03 0.145-0.291 0.096-0.629 0.369-0.629 0.84 0 0.406 0.267 0.73 0.629 0.838 0.292 0.083 0.724 0.077 1.03 0.077h11.454c0.305 0 0.738 0.006 1.03-0.077a0.869 0.869 0 0 0 0.629-0.838c0-0.47-0.337-0.744-0.629-0.84-0.286-0.088-0.725-0.114-1.03-0.145z m6.28 7.04c0.312-0.02 0.738-0.038 1.03-0.121a0.874 0.874 0 0 0 0-1.679c-0.292-0.088-0.718-0.076-1.03-0.076H3.359c-0.312 0-0.738-0.012-1.03 0.076a0.874 0.874 0 0 0 0 1.679c0.292 0.082 0.718 0.101 1.03 0.121l8.123 0.578c0.668 0.044 1.361 0.044 2.021 0z m1.686 4.413c0.534-0.083 0.737-0.108 1.028-0.21 0.368-0.126 0.629-0.425 0.63-0.839a0.874 0.874 0 0 0-0.63-0.838c-0.291-0.089-0.718-0.02-1.03 0.012l-9.604 0.967c-0.807 0.082-1.646 0.082-2.453 0l-9.591-0.968c-0.312-0.031-0.744-0.101-1.03-0.011a0.874 0.874 0 0 0-0.63 0.838c0 0.413 0.26 0.713 0.63 0.839 0.286 0.096 0.495 0.128 1.03 0.21l9.178 1.475c1.08 0.172 2.205 0.172 3.286 0Z"/></svg>