<svg fill="#41BDF5" role="img" viewBox="0 0 25 24" xmlns="http://www.w3.org/2000/svg"><title>Home Assistant Community Store</title><path d="M1.708 0.001a0.409 0.409 0 0 0-0.406 0.406v2.515c0 0.221 0.184 0.406 0.406 0.406h21.584c0.222 0 0.406-0.185 0.406-0.406V0.406a0.409 0.409 0 0 0-0.406-0.406z m-0.047 4.294a0.427 0.427 0 0 0-0.424 0.351l-1.217 6.571C0.011 11.245 0.011 11.272 0.011 11.3v2.203c0 0.239 0.194 0.433 0.433 0.433h24.112c0.239 0 0.433-0.194 0.433-0.433v-2.212c0-0.028 0-0.055-0.01-0.084l-1.216-6.561a0.427 0.427 0 0 0-0.424-0.351zM1.781 14.895a0.476 0.476 0 0 0-0.479 0.478v8.148c0 0.267 0.211 0.479 0.479 0.479h14.682c0.267 0 0.479-0.211 0.479-0.479v-6.857c0-0.267 0.212-0.479 0.48-0.479h4.183c0.269 0 0.48 0.211 0.48 0.479v6.857c0 0.267 0.212 0.479 0.479 0.479h0.645a0.475 0.475 0 0 0 0.48-0.479v-8.148a0.477 0.477 0 0 0-0.479-0.478z m1.917 1.613h8.166c0.221 0 0.406 0.184 0.406 0.406V21.991c0 0.221-0.185 0.406-0.406 0.406H3.698a0.409 0.409 0 0 1-0.406-0.406v-5.078c0-0.23 0.185-0.406 0.406-0.406Z"/></svg>