<svg fill="#E40521" role="img" viewBox="0 0 30 24" xmlns="http://www.w3.org/2000/svg"><title>Honda</title><path d="M29.629 5.695c-0.406-3.955-3.036-4.787-5.351-5.167-1.163-0.197-3.232-0.369-4.568-0.417-1.163-0.074-3.894-0.111-4.713-0.111-0.807 0-3.552 0.037-4.714 0.111-1.322 0.049-3.405 0.221-4.567 0.417C3.402 0.921 0.768 1.75 0.365 5.695c-0.098 1.078-0.123 2.486-0.111 3.993 0.037 2.496 0.246 4.186 0.369 5.362 0.086 0.807 0.415 3.22 0.844 4.469 0.587 1.715 1.126 2.216 1.751 2.731 1.152 0.93 3.037 1.224 3.429 1.298 2.13 0.381 6.44 0.452 8.338 0.452 1.898 0 6.207-0.061 8.338-0.452 0.404-0.074 2.29-0.356 3.429-1.298 0.624-0.515 1.163-1.016 1.75-2.731 0.43-1.249 0.772-3.661 0.858-4.469 0.123-1.176 0.343-2.866 0.367-5.362 0.049-1.506 0.012-2.914-0.098-3.993m-1.445 6.637c-0.234 3.159-0.514 5.044-0.919 6.416-0.356 1.2-0.783 1.995-1.431 2.571-1.066 0.967-2.536 1.175-3.393 1.298-1.861 0.283-4.984 0.369-7.444 0.369-2.461 0-5.584-0.098-7.445-0.369-0.857-0.123-2.327-0.331-3.392-1.298-0.637-0.576-1.077-1.384-1.419-2.572-0.404-1.358-0.686-3.257-0.918-6.416-0.135-1.896-0.111-4.983 0.098-6.637 0.317-2.472 1.542-3.709 4.163-4.174 1.224-0.221 2.876-0.381 4.432-0.454 1.249-0.086 3.318-0.123 4.469-0.111 1.15-0.012 3.22 0.037 4.469 0.111 1.567 0.074 3.208 0.234 4.432 0.454 2.633 0.465 3.858 1.715 4.164 4.175 0.245 1.653 0.281 4.739 0.135 6.637m-6.394-10.311c-0.674 3.026-0.943 4.41-1.494 6.6-0.526 2.108-0.943 4.053-1.641 4.996-0.721 0.955-1.678 1.164-2.327 1.236-0.343 0.037-0.587 0.049-1.31 0.062-0.733 0-0.978-0.025-1.321-0.062-0.649-0.074-1.616-0.281-2.326-1.236-0.71-0.943-1.115-2.888-1.64-4.995-0.578-2.179-0.833-3.577-1.52-6.6 0 0-0.674 0.025-0.979 0.049-0.404 0.025-0.723 0.061-1.066 0.111 0.422 6.603 0.851 13.617 1.384 19.824a27.019 27.019 0 0 0 2.938 0.208c0.406-1.556 0.919-3.712 1.483-4.63 0.465-0.747 1.187-0.832 1.592-0.881 0.637-0.086 1.175-0.098 1.432-0.098 0.246-0.012 0.783 0 1.432 0.098 0.406 0.061 1.127 0.135 1.591 0.881 0.578 0.918 1.078 3.073 1.482 4.629 0 0 0.44-0.012 1.432-0.062 0.504-0.022 1.008-0.071 1.507-0.147 0.563-6.625 0.965-13.185 1.384-19.822-0.344-0.049-0.661-0.086-1.066-0.111-0.283-0.025-0.967-0.049-0.967-0.049z"/></svg>