<svg fill="#09090B" role="img" viewBox="0 0 36 24" xmlns="http://www.w3.org/2000/svg"><title>Hoppscotch</title><path d="M23.428 1.16a13.292 13.292 0 0 1 7.906 11.864c2.79 2.197 5.564 5.271 4.275 8.167-1.447 3.249-6.598 3.116-12.456 1.472A10.631 10.631 0 0 1 7.632 15.753C2.491 12.501-1.055 8.761 0.392 5.512c1.29-2.898 5.431-2.893 8.929-2.289a13.292 13.292 0 0 1 14.107-2.063ZM2.849 6.606c-0.702 1.578 3.073 6.059 13.408 10.661 10.336 4.603 16.192 4.409 16.895 2.83 0.583-1.306-1.811-3.817-4.553-5.763-2.131-1.524-5.052-3.203-8.861-4.899-1.037-0.462-1.441-1.693-1.006-2.672 0.436-0.979 1.394-1.634 3.411-1.728 0.949-0.003 1.073-0.266 1.116-0.491 0.054-0.348-0.429-0.702-0.926-0.924-3.956-1.762-8.8-1.024-12.157 2.511-3.28-0.734-6.746-0.831-7.327 0.475Zm16.563 8.468c-0.359 0.807-1.465 1.098-2.467 0.652s-1.524-1.463-1.166-2.269c0.359-0.807 1.463-1.098 2.466-0.652 1.003 0.447 1.526 1.463 1.166 2.269z m6.008 3.478c1.051 0.302 2.098-0.139 2.341-0.984 0.242-0.843-0.412-1.773-1.465-2.072-1.049-0.302-2.097 0.139-2.339 0.983-0.242 0.843 0.412 1.773 1.465 2.073zM10.853 8.619c0.927 0.58 1.3 1.653 0.836 2.397-0.465 0.744-1.593 0.879-2.52 0.299-0.927-0.578-1.3-1.651-0.837-2.397 0.466-0.744 1.595-0.879 2.521-0.299Z"/></svg>