<svg fill="#302683" role="img" viewBox="0 0 19 24" xmlns="http://www.w3.org/2000/svg"><title>HTML Academy</title><path d="M9.5 0L0.024 0.994v17.368L9.5 24l9.476-5.638V0.994L9.599 0.01 9.5 0z m8.236 17.657L9.5 22.557l-8.236-4.9v-7.119l8.2 4.881 0.014 0.885-5.626-3.349-0.008 0.86 5.648 3.394 0.015 0.908-5.647-3.36-0.008 0.86L9.5 19.01l5.703-3.412v-0.862l-0.008 0.004v-2.805l2.54-1.517v7.238z m-0.006-8.162l-2.254 1.328-1.04 0.613-4.96-2.951-0.009 0.858 4.24 2.521-0.037 0.023-0.092 0.054-0.602 0.355-3.5-2.083-0.009 0.859 2.763 1.643-0.652 0.436-0.015 0.01-2.088-1.23-0.008 0.858 1.37 0.807-1.395 0.837-8.16-4.85 8.172-4.912v0.001l8.276 4.823z m0.006-0.864l-8.28-4.882h-0.002l-8.19 4.877V2.11L9.5 1.246l8.237 0.864v6.52z"/></svg>