<svg fill="#009020" role="img" viewBox="0 0 25 24" xmlns="http://www.w3.org/2000/svg"><title>htop</title><path d="M7.416 16.749v7.251h1.417v-7.251H7.416Zm10.938 0v7.251h1.418v-7.251H18.354Zm2.184 0v7.251h1.418v-7.251h-1.418Zm-4.376 0v7.251h1.417v-7.251h-1.417Zm-13.121 0v7.251h1.419v-7.251H3.041Zm2.188 0v7.251h1.418v-7.251H5.229ZM24.529 16.783l-0.02 7.195-2.165-0.008v-1.26h0.829v-4.757h-0.816V16.772l2.172 0.011Zm-24.058-0.009l0.02 7.195 2.165-0.008v-1.26h-0.829v-4.756h0.816v-1.182L0.471 16.774Zm6.945-8.377v7.251h1.417V8.397H7.416Zm2.187 0v7.251h1.417V8.397H9.603Zm2.186 0v7.251h1.418V8.397h-1.418Zm4.373 0v7.251h1.417V8.397h-1.417Zm2.192 0v7.251h1.418V8.397H18.354Zm2.184 0v7.251h1.418V8.397h-1.418Zm-17.497 0v7.251h1.419V8.397H3.041Zm2.188 0v7.251h1.418V8.397H5.229Zm8.748 0v7.251h1.418V8.397h-1.418ZM24.529 8.424l-0.02 7.196-2.165-0.008v-1.26h0.829V9.595h-0.816V8.413L24.529 8.424ZM0.471 8.421l0.02 7.196 2.165-0.008v-1.26h-0.829V9.593h0.816v-1.183L0.471 8.421ZM7.416 0v7.251h1.417V0H7.416Zm8.746 0v7.251h1.417V0h-1.417Zm4.376 0v7.251h1.418V0h-1.418Zm-2.184 0v7.251h1.418V0H18.354Zm-15.313 0v7.251h1.419V0H3.041Zm2.188 0v7.251h1.418V0H5.229ZM24.529 0.026l-0.02 7.195-2.165-0.009V5.952h0.829V1.197h-0.816V0.015L24.529 0.026ZM0.471 0.023L0.491 7.218l2.165-0.008V5.95h-0.829V1.195h0.816V0.012L0.471 0.023Z"/></svg>