<svg fill="#FFD21E" role="img" viewBox="0 0 27 24" xmlns="http://www.w3.org/2000/svg"><title>Hugging Face</title><path d="M1.994 11.461c0 1.201 0.182 2.353 0.528 3.441-0.041-0.003-0.075-0.006-0.115-0.006-0.459 0-0.874 0.174-1.167 0.491-0.377 0.407-0.543 0.909-0.47 1.41a1.718 1.718 0 0 0 0.234 0.652c-0.253 0.203-0.438 0.486-0.528 0.826-0.07 0.267-0.143 0.822 0.234 1.394a1.586 1.586 0 0 0-0.068 0.115c-0.227 0.428-0.241 0.913-0.04 1.363 0.303 0.682 1.057 1.218 2.52 1.795 0.911 0.359 1.743 0.59 1.751 0.592 1.204 0.31 2.293 0.466 3.236 0.466 1.545 0 2.698-0.42 3.436-1.248 1.677 0.289 3.042 0.153 3.916 0.007 0.738 0.824 1.889 1.241 3.43 1.241 0.943 0 2.032-0.156 3.236-0.466 0.007-0.002 0.839-0.233 1.751-0.592 1.464-0.577 2.218-1.113 2.52-1.795 0.2-0.45 0.186-0.935-0.04-1.363a1.601 1.601 0 0 0-0.068-0.115c0.377-0.572 0.305-1.128 0.234-1.394-0.09-0.34-0.275-0.623-0.528-0.826 0.12-0.198 0.2-0.413 0.234-0.652 0.073-0.501-0.094-1.002-0.47-1.409-0.293-0.318-0.708-0.492-1.167-0.492-0.023 0-0.041 0.001-0.064 0.002 0.345-1.086 0.528-2.237 0.528-3.437 0-6.33-5.163-11.461-11.532-11.461-6.369 0-11.532 5.131-11.531 11.461Zm11.531-10.337c5.748 0 10.407 4.628 10.408 10.337a10.268 10.268 0 0 1-0.294 2.438c-0.004-0.005-0.009-0.012-0.013-0.017-0.299-0.355-0.728-0.551-1.207-0.551-0.384 0-0.778 0.126-1.173 0.374-0.262 0.165-0.551 0.46-0.85 0.829-0.276-0.381-0.663-0.636-1.105-0.705a1.654 1.654 0 0 0-0.255-0.019c-1.01 0-1.616 0.871-1.846 1.654-0.114 0.264-0.661 1.47-1.484 2.287-1.273 1.265-1.576 2.565-0.915 3.966-0.919 0.112-1.726 0.101-2.578-0.007 0.644-1.321 0.395-2.658-0.919-3.959-0.823-0.817-1.37-2.022-1.484-2.287-0.23-0.783-0.836-1.654-1.846-1.654-0.085 0-0.171 0.006-0.255 0.019-0.442 0.069-0.829 0.324-1.105 0.705-0.298-0.368-0.588-0.663-0.85-0.829-0.395-0.249-0.79-0.375-1.173-0.374-0.465 0-0.882 0.186-1.18 0.521a10.269 10.269 0 0 1-0.283-2.391c0-5.709 4.66-10.337 10.407-10.337zM9.842 6.554c-0.527 0.005-1.036 0.291-1.301 0.787-0.385 0.723-0.11 1.621 0.616 2.006 0.383 0.203 0.532-0.573 0.911-0.707 0.339-0.119 0.917 0.435 1.098 0.094 0.385-0.723 0.112-1.621-0.613-2.006a1.489 1.489 0 0 0-0.711-0.174Zm7.456 0c-0.24-0.002-0.482 0.055-0.709 0.174-0.725 0.384-1.001 1.283-0.615 2.006 0.182 0.341 0.76-0.213 1.099-0.094 0.379 0.133 0.531 0.91 0.913 0.707 0.725-0.384 0.998-1.283 0.613-2.006-0.265-0.497-0.774-0.783-1.301-0.787Zm-10.635 1.545a0.956 0.956 0 0 0-0.956 0.956c0 0.528 0.428 0.956 0.956 0.956a0.956 0.956 0 0 0 0.956-0.956 0.956 0.956 0 0 0-0.956-0.956z m13.782 0c-0.528 0-0.958 0.428-0.958 0.956 0 0.528 0.43 0.956 0.958 0.956a0.956 0.956 0 0 0 0.956-0.956 0.956 0.956 0 0 0-0.956-0.956zM10.004 11.41c-0.195-0.003-0.304 0.121-0.305 0.454 0 0.883 0.422 2.316 1.557 3.187 0.226-0.776 1.466-1.399 1.644-1.309 0.252 0.127 0.239 0.481 0.662 0.792 0.423-0.311 0.408-0.665 0.66-0.792 0.177-0.089 1.418 0.533 1.644 1.309 1.134-0.871 1.556-2.305 1.556-3.187 0-1.331-1.726 0.698-3.86 0.707-1.601-0.007-2.972-1.151-3.558-1.161zM5.12 14.7c0.631 0.398 1.849 2.48 2.295 3.289 0.149 0.271 0.404 0.385 0.634 0.386 0.457 0 0.814-0.451 0.043-1.024-1.159-0.862-0.754-2.272-0.2-2.359a0.469 0.469 0 0 1 0.072-0.005c0.503 0 0.726 0.86 0.726 0.86s0.65 1.624 1.767 2.734c1.027 1.02 1.158 1.856 0.541 2.907-0.018-0.004-0.017 0.026-0.162 0.234-0.202 0.291-0.471 0.511-0.783 0.67-0.552 0.247-1.242 0.294-1.944 0.294-1.13 0-2.291-0.199-2.94-0.366-0.032-0.008-3.979-1.043-3.48-1.987 0.084-0.158 0.222-0.221 0.397-0.221 0.705 0 1.987 1.041 2.538 1.041 0.123 0 0.214-0.094 0.249-0.221 0.245-0.877-3.574-1.147-3.254-2.359 0.057-0.214 0.21-0.301 0.426-0.301 0.931 0 3.02 1.627 3.458 1.627 0.033 0 0.057-0.009 0.07-0.03 0.219-0.352 0.119-0.639-1.427-1.569-1.546-0.93-2.65-1.449-2.033-2.116 0.071-0.077 0.172-0.111 0.294-0.111 0.939 0 3.156 2.006 3.155 2.006s0.598 0.619 0.961 0.619c0.083 0 0.154-0.034 0.202-0.115 0.257-0.43-2.383-2.418-2.532-3.238-0.101-0.556 0.07-0.837 0.388-0.837-0.001 0.009 0.185-0.031 0.539 0.192z m17.687 0.645c-0.149 0.82-2.788 2.808-2.532 3.238 0.048 0.081 0.119 0.115 0.202 0.115 0.362 0 0.96-0.62 0.961-0.619s2.217-2.005 3.155-2.006c0.122 0 0.223 0.034 0.294 0.111 0.617 0.668-0.487 1.186-2.034 2.116-1.546 0.93-1.646 1.217-1.426 1.569 0.013 0.02 0.037 0.03 0.07 0.03 0.438 0 2.527-1.627 3.458-1.627 0.216 0 0.369 0.086 0.426 0.301 0.32 1.212-3.499 1.482-3.254 2.359 0.035 0.127 0.126 0.222 0.249 0.221 0.551 0 1.833-1.041 2.538-1.041 0.174 0 0.312 0.063 0.396 0.222 0.5 0.944-3.447 1.978-3.479 1.986-0.649 0.167-1.81 0.366-2.94 0.366-0.692 0-1.375-0.045-1.923-0.283-0.321-0.16-0.598-0.383-0.804-0.681-0.045-0.074-0.112-0.161-0.156-0.224-0.624-1.055-0.496-1.894 0.535-2.917 1.118-1.11 1.767-2.734 1.767-2.734s0.223-0.86 0.726-0.86a0.471 0.471 0 0 1 0.072 0.005c0.554 0.087 0.959 1.497-0.2 2.359-0.771 0.573-0.414 1.024 0.043 1.024 0.23 0 0.485-0.114 0.634-0.386 0.446-0.809 1.664-2.892 2.295-3.289 0.609-0.384 1.079-0.198 0.927 0.645z"/></svg>