<svg fill="#CC2929" role="img" viewBox="0 0 25 24" xmlns="http://www.w3.org/2000/svg"><title>Humble Bundle</title><path d="M18.47 19.435c-3.427 0 1.849-19.431 1.849-19.431L16.787 0s-1.445 4.573-2.4 9.654h-3.044c0.079-1.045 0.117-2.102 0.101-3.153-0.137-8.365-5.037-6.816-7.231-4.897C2.127 3.43 0.38 6.898 0.347 9.569c0.332-0.016 1.645-0.022 1.645-0.022S3.083 4.566 6.511 4.566c3.428 0-1.857 19.432-1.858 19.432l3.535 0.002s1.826-5.201 2.734-11.011l2.907-0.017c-0.169 1.504-0.223 3.164-0.199 4.705 0.138 8.365 5.019 6.571 7.213 4.652 2.194-1.92 3.83-5.975 3.81-7.922 0.002-0.002-1.666 0.013-1.686 0.013 0.006 0.154-1.069 5.014-4.497 5.015z"/></svg>