<svg fill="#D0021B" role="img" viewBox="0 0 25 24" xmlns="http://www.w3.org/2000/svg"><title>Hungry Jack's</title><path d="M3.201 0C1.589 0 0.281 1.284 0.281 2.868v18.264c0 1.583 1.307 2.868 2.92 2.868h18.598c1.613 0 2.92-1.285 2.92-2.868V2.868C24.719 1.284 23.411 0 21.799 0z m9.198 1.853c6.255 0 9.633 2.274 9.921 4.569 0.044 0.339 0.016 1.03 0.016 1.031v10.778s-0.031 0.623-0.331 1.132c-1.086 1.841-4.183 2.723-9.606 2.723s-8.52-0.882-9.606-2.723c-0.3-0.509-0.33-1.132-0.33-1.132s0-10.874-0.003-11.011v-0.541c0.003-0.095 0.009-0.183 0.018-0.257 0.288-2.295 3.666-4.57 9.921-4.57z m-0.132 0.547c-5.789 0-8.873 2.006-9.246 4.025-0.088 0.463 0.201 0.622 0.489 0.622H21.023c0.288 0 0.576-0.159 0.488-0.622-0.373-2.019-3.457-4.025-9.245-4.025zM7.095 8.141c-0.193 0-0.479 0.1-0.478 0.331v1.952c0 0.535 0.67 0.911 1.254 0.911s1.255-0.377 1.256-0.911V8.473c0-0.231-0.285-0.331-0.479-0.331-0.196 0-0.48 0.1-0.48 0.331v1.761c0 0.129-0.157 0.204-0.297 0.204-0.141 0-0.295-0.074-0.295-0.204v-1.761c0-0.231-0.285-0.331-0.48-0.331z m2.8 0c-0.199 0-0.491 0.136-0.49 0.387v2.577c0 0.25 0.292 0.369 0.491 0.369s0.49-0.15 0.49-0.369v-0.96c0-0.07 0.092-0.056 0.135 0 0 0 0.622 0.8 0.828 1.063 0.207 0.262 0.322 0.265 0.493 0.265 0.2 0 0.491-0.118 0.491-0.367V8.528c0-0.249-0.291-0.387-0.491-0.387s-0.492 0.137-0.492 0.387v0.952c0 0.071-0.089 0.059-0.15-0.021l-0.78-1.014c-0.119-0.159-0.27-0.303-0.524-0.303z m4.404 0c-0.996 0-1.688 0.678-1.688 1.658 0 1.154 0.738 1.675 1.679 1.675 0.728 0 1.389-0.283 1.389-0.804v-0.906c0-0.238-0.155-0.335-0.403-0.335h-0.703c-0.352 0-0.43 0.232-0.43 0.412 0 0.18 0.061 0.427 0.421 0.427 0.099 0 0.128 0.007 0.128 0.071 0.012 0.17-0.102 0.271-0.427 0.271-0.399 0-0.626-0.36-0.627-0.798 0-0.438 0.183-0.83 0.712-0.83 0.188 0 0.28 0.003 0.591 0.143 0.313 0.141 0.484-0.022 0.56-0.128 0.078-0.106 0.161-0.338-0.037-0.513-0.269-0.234-0.656-0.343-1.165-0.343z m-10.264 0.138c-0.198 0-0.486 0.112-0.485 0.353v2.489c0 0.238 0.288 0.352 0.484 0.353 0.198 0 0.485-0.114 0.485-0.353v-0.726c0-0.077 0.055-0.099 0.116-0.099h0.483c0.061 0 0.112 0.021 0.112 0.099v0.726c0 0.238 0.287 0.352 0.483 0.353 0.198 0 0.485-0.114 0.485-0.353V8.633c0-0.239-0.287-0.352-0.485-0.353-0.197 0-0.485 0.112-0.484 0.353v0.665c0 0.074-0.042 0.102-0.107 0.101h-0.495c-0.057 0-0.108-0.027-0.108-0.101v-0.665c0-0.239-0.287-0.352-0.485-0.353z m12.408 0c-0.234 0-0.486 0.122-0.486 0.352v2.51c0 0.229 0.288 0.328 0.486 0.327 0.197 0 0.484-0.099 0.483-0.327v-0.65c0-0.061 0.056-0.08 0.095-0.034l0.689 0.878c0.141 0.18 0.495 0.166 0.66 0.063 0.183-0.113 0.319-0.365 0.177-0.544l-0.539-0.69c-0.022-0.031-0.027-0.057 0.018-0.092 0.339-0.226 0.425-0.56 0.425-0.851 0-0.325-0.279-0.942-1.094-0.942z m4.371 0c-0.177-0.008-0.391 0.053-0.471 0.204l-0.367 0.576c-0.03 0.051-0.063 0.05-0.092 0.004l-0.364-0.58c-0.107-0.201-0.449-0.237-0.631-0.171-0.236 0.086-0.349 0.343-0.243 0.545l0.719 1.175c0.054 0.094 0.078 0.147 0.077 0.24v0.849c0 0.239 0.29 0.352 0.489 0.353s0.489-0.113 0.489-0.353v-0.849c0-0.094 0.006-0.135 0.075-0.237l0.72-1.178c0.107-0.202-0.012-0.453-0.243-0.545a0.499 0.499 0 0 0-0.158-0.032z m-3.702 0.555c0.311 0 0.379 0.135 0.378 0.351 0 0.214-0.164 0.344-0.36 0.344-0.126 0-0.197 0.003-0.197-0.057V8.905c0.036-0.047 0.064-0.069 0.179-0.07zM5.538 12.169c-0.269 0-0.661 0.167-0.661 0.519v2.647c0.029 0.421-0.248 0.529-0.355 0.218-0.153-0.374-0.536-0.292-0.682-0.218-0.147 0.073-0.357 0.265-0.269 0.626 0.156 0.553 0.553 0.924 1.315 0.93 1.018 0 1.307-0.636 1.307-1.321l0.005-0.071v-2.811c0-0.352-0.391-0.519-0.66-0.519z m2.682 0c-0.25 0.008-0.666 0.117-0.763 0.466L6.36 16.197c-0.11 0.342 0.191 0.64 0.455 0.688 0.236 0.043 0.645-0.134 0.715-0.443l0.063-0.21c0.017-0.066 0.047-0.081 0.102-0.082h1.053c0.075 0 0.081 0.031 0.097 0.082l0.063 0.21c0.071 0.309 0.479 0.486 0.714 0.443 0.264-0.047 0.566-0.345 0.456-0.688l-1.095-3.562c-0.102-0.355-0.513-0.458-0.764-0.466z m3.903 0c-1.275 0-2.161 0.966-2.16 2.36 0 1.395 0.886 2.362 2.16 2.363 0.552 0 0.914-0.155 1.169-0.418 0.253-0.248 0.146-0.554 0.047-0.704-0.099-0.152-0.314-0.373-0.717-0.184-0.229 0.106-0.253 0.13-0.435 0.131-0.675 0-0.911-0.558-0.911-1.182h-0.001c0-0.624 0.237-1.196 0.912-1.196 0.19 0 0.229 0.035 0.435 0.13 0.403 0.189 0.618-0.032 0.717-0.183 0.099-0.151 0.206-0.452-0.047-0.701-0.284-0.292-0.629-0.417-1.169-0.417z m2.39 0c-0.263 0-0.647 0.167-0.647 0.521v3.679c0 0.354 0.384 0.521 0.647 0.522s0.647-0.167 0.647-0.522V15.36l-0.001 0.014c0-0.217 0.122-0.098 0.122-0.097l1.194 1.454s0.285 0.382 0.788-0.061c0.503-0.445 0.014-0.913 0.015-0.914s-0.734-0.864-0.9-1.083c-0.148-0.198 0.041-0.394 0.041-0.394l0.925-1.136c0.224-0.28 0.17-0.555-0.089-0.776-0.291-0.25-0.651-0.242-0.891 0.068l-1.076 1.3c-0.051 0.069-0.122 0.063-0.128-0.048v0.003l-0.001-0.013 0.001 0.01v-0.996c0-0.354-0.384-0.521-0.647-0.521z m3.313 0c-0.185 0-0.336 0.141-0.336 0.316 0.007 0.214 0.134 0.278 0.177 0.293 0.042 0.016 0.031 0.048 0.026 0.067a0.348 0.348 0 0 1-0.118 0.173c-0.143 0.088-0.002 0.271 0.115 0.262 0.13-0.01 0.656-0.46 0.451-0.908a0.346 0.346 0 0 0-0.316-0.204z m2.016 0c-1.014 0-1.637 0.69-1.64 1.715-0.001 0.621 0.535 1.038 1.071 1.146l0.275 0.056c0.125 0.03 0.295 0.099 0.296 0.295 0 0.194-0.105 0.379-0.341 0.378-0.158 0-0.201 0.041-0.535-0.132-0.377-0.193-0.583 0.033-0.677 0.178-0.094 0.148-0.193 0.441 0.046 0.682 0.305 0.287 0.672 0.403 1.289 0.404 1.122 0 1.638-0.68 1.629-1.623-0.006-0.733-0.511-1.154-1.093-1.304l-0.31-0.08c-0.106-0.029-0.281-0.107-0.281-0.268 0-0.177 0.105-0.323 0.306-0.323 0.128 0 0.181-0.02 0.457 0.131 0.373 0.203 0.584-0.032 0.679-0.179 0.093-0.146 0.193-0.432-0.046-0.672-0.314-0.316-0.575-0.404-1.125-0.404zM8.147 14.252c0.027-0.002 0.055 0.022 0.069 0.077l0.206 0.68c0.02 0.063-0.001 0.076-0.072 0.076H7.928c-0.039 0-0.071-0.026-0.051-0.076l0.206-0.678c0.01-0.049 0.037-0.077 0.063-0.079z m-4.637 3.732c-0.288 0-0.576 0.112-0.489 0.482 0.525 2.016 3.457 3.073 9.246 3.073 5.788 0 8.719-1.056 9.245-3.073 0.087-0.37-0.202-0.482-0.488-0.482h-8.757z m17.474 2.734c0.293 0 0.544 0.232 0.544 0.546a0.541 0.541 0 0 1-0.544 0.548 0.542 0.542 0 0 1-0.546-0.548c0-0.314 0.25-0.546 0.546-0.546z m0 0.092a0.439 0.439 0 0 0-0.438 0.454c0 0.264 0.192 0.458 0.438 0.458 0.243 0 0.436-0.194 0.436-0.458a0.438 0.438 0 0 0-0.436-0.454z m-0.214 0.13h0.236c0.147 0 0.22 0.056 0.22 0.18 0 0.112-0.071 0.162-0.162 0.174l0.178 0.277h-0.106l-0.163-0.273h-0.109v0.273h-0.094z m0.094 0.082v0.195h0.112c0.08 0 0.152-0.006 0.152-0.103 0-0.078-0.07-0.092-0.136-0.091Z"/></svg>