<svg fill="#8C5AFF" role="img" viewBox="0 0 20 24" xmlns="http://www.w3.org/2000/svg"><title>Hyperskill</title><path d="M20 22.6a1.4 1.4 0 0 1-1.4 1.4h-1.2a1.4 1.4 0 0 1-1.4-1.4V1.4A1.4 1.4 0 0 1 17.4 0h1.2A1.4 1.4 0 0 1 20 1.4z m-8-14a1.4 1.4 0 0 1-1.4 1.4h-1.2A1.4 1.4 0 0 1 8 8.6V3.4A1.4 1.4 0 0 1 9.4 2h1.2A1.4 1.4 0 0 1 12 3.4z m-8.001 8a1.4 1.4 0 0 1-1.4 1.4H1.4A1.4 1.4 0 0 1 0 16.6V7.4A1.4 1.4 0 0 1 1.4 6h1.2A1.4 1.4 0 0 1 4 7.4v9.2z m8.001 4a1.4 1.4 0 0 1-1.4 1.4h-1.2a1.4 1.4 0 0 1-1.4-1.4v-5.2a1.4 1.4 0 0 1 1.4-1.4h1.2a1.4 1.4 0 0 1 1.4 1.4z"/></svg>