<svg fill="#002C5E" role="img" viewBox="0 0 47 24" xmlns="http://www.w3.org/2000/svg"><title>Hyundai</title><path d="M23.5 24c-12.906 0-23.368-5.372-23.368-12.002 0-6.626 10.462-11.998 23.368-11.998 12.907 0 23.368 5.372 23.368 11.998 0 6.63-10.462 12.002-23.368 12.002zM14.936 2.594C7.339 4.169 2.027 7.775 2.027 11.97c0 2.323 1.632 4.466 4.377 6.184 0.229 0.141 0.378 0.168 0.489 0.161 0.198-0.012 0.31-0.136 0.391-0.285 0.055-0.094 0.123-0.239 0.19-0.383 0.896-2.11 4.046-9.412 8.183-14.363a2.293 2.293 0 0 0 0.204-0.285c0.09-0.164 0.069-0.295 0.001-0.374-0.115-0.126-0.438-0.127-0.926-0.031zM19.103 5.962c-2.284 5.548 2.039 4.861 3.209 4.603 1.987-0.44 3.884-1.193 5.403-1.801 4.326-1.731 6.623-3.467 7.385-4.134a3.863 3.863 0 0 0 0.21-0.193c0.108-0.113 0.19-0.232 0.19-0.39 0-0.182-0.158-0.329-0.462-0.434-0.023-0.01-0.101-0.041-0.125-0.049-3.307-1.054-7.252-1.668-11.493-1.667-0.033 0-0.114-0.004-0.227 0-0.508 0.015-1.073 0.129-1.533 0.367-1.514 0.788-2.174 2.772-2.557 3.698z m20.613 0.007c-0.052 0.095-0.119 0.238-0.188 0.385-0.896 2.108-4.045 9.408-8.182 14.358-0.1 0.123-0.155 0.201-0.203 0.286-0.096 0.165-0.076 0.299 0 0.377 0.111 0.125 0.435 0.127 0.923 0.03 7.594-1.577 12.907-5.181 12.907-9.376 0-2.322-1.628-4.465-4.376-6.182-0.226-0.142-0.377-0.17-0.487-0.161-0.2 0.013-0.312 0.136-0.394 0.283zM27.897 18.035c2.284-5.548-2.041-4.857-3.207-4.6-1.99 0.438-3.887 1.194-5.405 1.799-4.328 1.73-6.624 3.47-7.389 4.135-0.091 0.083-0.162 0.144-0.207 0.194-0.11 0.112-0.188 0.229-0.189 0.391 0 0.18 0.156 0.329 0.46 0.434 0.023 0.009 0.1 0.041 0.128 0.05 3.303 1.052 7.248 1.666 11.49 1.666 0.034 0 0.115 0.003 0.229 0 0.508-0.016 1.075-0.132 1.533-0.368 1.515-0.789 2.175-2.772 2.557-3.701z"/></svg>