<svg fill="#26A69A" role="img" viewBox="0 0 17 24" xmlns="http://www.w3.org/2000/svg"><title>i18next</title><path d="M11.436 2.487v4.517l5.076 13.036s1.55 3.184-2.882 3.96H3.519s-4.131-0.431-3.14-3.702L5.713 7.004V2.487h5.723Zm2.09 13.108c-4.43-1.374-8.155-0.636-9.975-0.079l-1.836 4.419c-0.783 2.499 2.273 2.942 2.597 2.981l0.028 0.003h8.444c3.541-0.598 2.511-2.972 2.415-3.177l-0.007-0.014-1.666-4.133Zm-7.814 0.777c0.789 0 1.429 0.386 1.429 0.865 0 0.476-0.64 0.864-1.429 0.864-0.789 0-1.427-0.388-1.427-0.864 0-0.478 0.638-0.865 1.427-0.865Zm5.084 0c0.787 0 1.427 0.386 1.427 0.865 0 0.476-0.64 0.864-1.427 0.864-0.791 0-1.429-0.388-1.429-0.864 0-0.478 0.638-0.865 1.429-0.865Zm-4.5-5.213c-0.552 0-1 0.539-1 1.205 0 0.666 0.448 1.205 1 1.205 0.552 0 1-0.539 1-1.205 0-0.666-0.448-1.205-1-1.205Zm3.641-1.297c-0.655 0-1.186 0.638-1.186 1.429 0 0.787 0.531 1.427 1.186 1.427 0.653 0 1.186-0.64 1.187-1.427 0-0.791-0.533-1.429-1.187-1.429Zm6.037-2.738s-2.122 1.546-4.086-0.42V4.556s2.724-0.601 4.086 2.568Zm-14.844 0C2.491 3.955 5.215 4.556 5.215 4.556v2.148c-1.966 1.966-4.085 0.42-4.085 0.42ZM11.544 0c0.495 0 0.896 0.439 0.895 0.981 0 0.542-0.401 0.981-0.895 0.981H5.455c-0.493 0-0.894-0.439-0.895-0.981C4.56 0.439 4.961 0 5.455 0h6.089Z"/></svg>