<svg fill="#004E81" role="img" viewBox="0 0 38 24" xmlns="http://www.w3.org/2000/svg"><title>Iata</title><path d="M5.615 24l1.528-7.618H9.628l-1.518 7.616z m7.498-2.495h1.578l-0.405-2.795z m-3.485 2.495l3.761-7.618h2.448l1.544 7.616H15.081l-0.137-0.904H12.492l-0.389 0.904z m10.041 0l0.853-5.729h-2.174l0.371-1.923h6.675l-0.37 1.923h-2.069L22.119 24z m8.349-2.495h1.578l-0.405-2.795z m-3.477 2.495l3.753-7.618h2.449l1.544 7.616h-2.319l-0.114-0.904h-2.449l-0.389 0.904zM37.713 7.772h-11.688c-0.43 2.14-1.915 3.925-4.873 5.159 0.335 1.017 1.481 1.957 2.673 1.957h6.341c0.967 0 1.734-0.811 2.043-1.466h-6.441c-0.396-0.069-0.413-0.39-0.016-0.422h6.332c0.817 0 1.559-0.699 1.99-1.458h-7.377c-0.37-0.062-0.37-0.371 0-0.432h7.439c0.749 0 1.432-0.87 1.715-1.457h-8.159c-0.405-0.051-0.405-0.432 0-0.44H35.998c0.647 0 1.277-0.708 1.715-1.441z m-37.426 0h11.688c0.421 2.14 1.915 3.925 4.865 5.159-0.337 1.017-1.485 1.957-2.674 1.957H7.834c-0.967 0-1.734-0.811-2.044-1.466h6.44c0.39-0.069 0.415-0.39 0.016-0.422H5.913c-0.819 0-1.559-0.699-1.984-1.458H11.312c0.371-0.062 0.371-0.371 0-0.432H3.873c-0.75 0-1.432-0.87-1.715-1.457h8.159c0.405-0.051 0.405-0.432 0-0.44H2.011c-0.655 0-1.285-0.708-1.724-1.441z m14.922-6.415c0.432 0.371 0.914 0.699 1.432 0.904 0.44-0.862 1.053-1.603 1.76-2.261a6.316 6.316 0 0 0-3.192 1.357zM13.14 5.609h2.604a8.356 8.356 0 0 1 0.708-2.978 6.271 6.271 0 0 1-1.563-0.983 5.973 5.973 0 0 0-1.749 3.961z m5.657-2.443V5.606H16.193a7.205 7.205 0 0 1 0.646-2.83c0.622 0.223 1.294 0.37 1.958 0.39z m3.992-1.811a5.218 5.218 0 0 1-1.43 0.905 8.176 8.176 0 0 0-1.768-2.251 6.227 6.227 0 0 1 3.2 1.346zM24.854 5.606h-2.596a7.947 7.947 0 0 0-0.69-2.978c0.552-0.257 1.076-0.585 1.535-0.983a5.806 5.806 0 0 1 1.751 3.961zM19.218 3.166V5.606h2.589c0-0.984-0.242-1.924-0.647-2.83a6.264 6.264 0 0 1-1.942 0.39z m-4.009 7.126c0.432-0.337 0.931-0.708 1.432-0.888 0.466 0.872 1.045 1.588 1.76 2.234a6.316 6.316 0 0 1-3.192-1.346zM13.14 6.032h2.604c0.061 1.076 0.284 2.027 0.708 3a6.553 6.553 0 0 0-1.563 0.975 6.026 6.026 0 0 1-1.749-3.977z m5.657 2.448v-2.448H16.193c0.016 0.982 0.24 1.957 0.646 2.829 0.622-0.225 1.294-0.362 1.958-0.381z m3.992 1.812a5.318 5.318 0 0 0-1.43-0.888 7.973 7.973 0 0 1-1.768 2.234 6.375 6.375 0 0 0 3.2-1.346z m2.064-4.26h-2.597a7.914 7.914 0 0 1-0.689 3c0.552 0.259 1.051 0.571 1.534 0.975a5.935 5.935 0 0 0 1.752-3.977z m-5.633 2.448v-2.448h2.589c0 0.982-0.242 1.94-0.648 2.829a6.253 6.253 0 0 0-1.941-0.381z m-0.423-8.227a6.841 6.841 0 0 0-1.751 2.155c0.561 0.19 1.154 0.346 1.751 0.346z m0.421 0c0.692 0.569 1.321 1.319 1.736 2.155a5.084 5.084 0 0 1-1.734 0.346z m-0.421 11.143a6.596 6.596 0 0 1-1.751-2.164c0.561-0.2 1.154-0.312 1.751-0.312z m0.421 0.016c0.692-0.577 1.321-1.352 1.736-2.183a5.793 5.793 0 0 0-1.734-0.307z"/></svg>