<svg fill="#3D7EBB" role="img" viewBox="0 0 25 24" xmlns="http://www.w3.org/2000/svg"><title>iBeacon</title><path d="M12.5 0c-6.646 0-12.053 5.407-12.053 12.053 0 6.104 4.561 11.162 10.454 11.947v-0.366C5.209 22.852 0.808 17.957 0.808 12.053 0.808 5.607 6.054 0.362 12.5 0.362s11.692 5.245 11.692 11.691c0 5.904-4.399 10.799-10.093 11.581v0.366C19.992 23.216 24.553 18.157 24.553 12.053c0-6.646-5.407-12.053-12.053-12.053z m0 1.704c-5.678 0-10.296 4.618-10.296 10.295 0 5.135 3.777 9.404 8.698 10.174v-0.368c-4.721-0.766-8.337-4.872-8.337-9.805 0-5.478 4.457-9.934 9.935-9.934s9.935 4.456 9.935 9.934c0 4.934-3.616 9.039-8.337 9.805v0.368c4.922-0.77 8.698-5.039 8.698-10.173 0-5.678-4.618-10.295-10.296-10.295z m0 1.743c-4.716 0-8.553 3.837-8.553 8.553 0 4.169 2.999 7.652 6.954 8.402v-0.369C7.147 19.288 4.309 15.97 4.309 12c0-4.516 3.675-8.191 8.191-8.191 4.516 0 8.19 3.675 8.19 8.191 0 3.97-2.838 7.288-6.591 8.033v0.369c3.954-0.75 6.954-4.233 6.954-8.402 0-4.716-3.837-8.553-8.553-8.553z m0 1.733A6.828 6.828 0 0 0 5.68 12c0 3.21 2.23 5.909 5.221 6.631v-0.373C8.111 17.544 6.041 15.009 6.041 12A6.466 6.466 0 0 1 12.5 5.541 6.466 6.466 0 0 1 18.959 12c0 3.009-2.069 5.544-4.86 6.258v0.373c2.992-0.722 5.221-3.421 5.221-6.631A6.828 6.828 0 0 0 12.5 5.18z m0 1.757A5.069 5.069 0 0 0 7.437 12a5.072 5.072 0 0 0 3.465 4.803v-0.381A4.71 4.71 0 0 1 7.797 12c0-2.591 2.109-4.701 4.702-4.701s4.701 2.109 4.701 4.701a4.71 4.71 0 0 1-3.102 4.422v0.381A5.072 5.072 0 0 0 17.564 12 5.069 5.069 0 0 0 12.5 6.938z m0 1.744A3.323 3.323 0 0 0 9.181 12c0 1.251 0.695 2.34 1.72 2.907v-0.422a2.956 2.956 0 1 1 3.198 0v0.422A3.321 3.321 0 0 0 15.819 12 3.323 3.323 0 0 0 12.5 8.681z m0 1.72A1.599 1.599 0 0 0 10.901 12 1.599 1.599 0 0 0 12.5 13.599 1.599 1.599 0 0 0 14.099 12 1.599 1.599 0 0 0 12.5 10.401Z"/></svg>