<svg fill="#CC092F" role="img" viewBox="0 0 106 24" xmlns="http://www.w3.org/2000/svg"><title>Iceland</title><path d="M34.231 20.461c-4.154 0-5.538-1.846-5.846-3.384L39.769 14.615c0-8.308-5.077-9.846-8.307-9.846-4.154 0-8.769 3.077-8.77 9.692 0 5.846 4 9.538 10.616 9.539 2 0 4.154-0.461 5.385-0.924l-0.616-3.076c-1.077 0.307-2.615 0.461-3.846 0.461z m-2.77-12.153c1.693 0 2.924 1.23 3.078 3.692l-6.616 1.385c0.153-3.231 1.385-5.077 3.539-5.077z m26.77-3.539c-2.923 0-5.538 0.769-7.077 1.231 0 0.154 0.615 3.077 0.769 3.385 1.692-0.616 4-1.077 5.538-1.077 2.462 0 3.539 0.769 3.539 2.461v0.769c-7.692 0-10.923 2.77-10.923 6.308 0 4 3.538 6.154 8.615 6.154 3.384 0 6.154-0.615 7.385-0.924v-11.999c0.154-4.307-2.461-6.308-7.846-6.308z m2.769 15.538c-0.462 0.154-1.385 0.154-1.846 0.154-1.692 0-3.692-0.769-3.693-2.769 0-2 1.693-3.077 5.385-2.923v5.538z m39.692-20.307v5.231c-0.616-0.154-1.385-0.308-2.615-0.308-4.462 0-9.231 3.077-9.231 9.692 0 5.846 3.846 9.385 10.154 9.385 2.615 0 5.692-0.462 6.923-0.77V0Zm0 20.461c-0.462 0.154-1.077 0.154-1.385 0.154-3.231 0-5.077-2.308-5.077-6.154 0-2.923 1.231-6 4.77-6 0.462 0 1.385 0.154 1.692 0.154zM0.077 0h4.77v23.076H0.077Zm17.538 24c-5.384 0-8.923-3.692-8.922-9.077 0-5.846 3.846-10 9.076-10 1.231 0 2.77 0.308 3.693 0.769l-0.923 3.231c-0.615-0.154-1.385-0.461-2-0.462-2.923 0-4.923 2.461-4.923 6.154 0 3.692 1.846 5.846 4.615 5.846 0.769 0 1.846-0.154 2.769-0.461l0.769 3.23c-0.923 0.308-2.769 0.769-4.154 0.77zM42.539 0h4.769v23.076H42.539ZM86.077 23.076h-5.077v-11.845c0-2.462-1.23-3.077-3.077-3.077-0.923 0-2 0.154-2.77 0.307v14.616h-5.076v-17.385c1.23-0.307 4.923-0.923 8-0.923 5.538 0 8 2 8 6.154z"/></svg>