<svg fill="#AE282E" role="img" viewBox="0 0 23 24" xmlns="http://www.w3.org/2000/svg"><title>ICICI Bank</title><path d="M21.426 2.096C18.779-1.648 12.198-0.243 6.714 5.242c-5.484 5.475-7.787 12.963-5.14 16.706 0.873 1.239 2.184 1.902 3.739 2.052 1.052 0.008 1.913-1.185 2.616-2.777 0.725-1.668 1.169-3.218 1.513-4.66 0.508-2.293 0.544-3.934 0.29-4.278-0.435-0.58-1.432-0.435-2.556 0.217-0.544 0.299-1.26 0.1-0.408-0.933 0.861-1.042 4.261-3.563 5.494-3.952 1.341-0.39 2.873 0.136 2.356 1.622-0.371 1.085-5.047 13.486-1.596 12.272 1.105-0.747 2.205-1.65 3.264-2.709 5.484-5.475 7.787-12.963 5.14-16.706z m-5.366 3.209c-1.097 1.097-2.52 1.486-3.137 0.852-0.662-0.634-0.272-2.058 0.825-3.172 1.106-1.115 2.529-1.459 3.146-0.834 0.634 0.644 0.245 2.049-0.834 3.154z"/></svg>