<svg fill="#31B8BB" role="img" viewBox="0 0 25 24" xmlns="http://www.w3.org/2000/svg"><title>ICON</title><path d="M2.409 23.955c-0.939-0.178-1.707-0.946-1.885-1.885-0.32-1.691 1.134-3.146 2.825-2.825 0.939 0.178 1.708 0.946 1.885 1.885 0.32 1.691-1.134 3.146-2.825 2.825zM21.651 4.755c-0.939-0.178-1.708-0.946-1.886-1.885-0.32-1.691 1.135-3.146 2.826-2.825 0.939 0.178 1.707 0.947 1.885 1.885 0.32 1.691-1.135 3.146-2.825 2.825z m-9.13 1.245c1.15 0 2.223 0.324 3.136 0.884l2.589-2.59c-1.599-1.19-3.58-1.894-5.725-1.894-5.302 0-9.6 4.298-9.6 9.6 0 2.146 0.704 4.127 1.894 5.726l2.59-2.59c-0.56-0.913-0.884-1.986-0.884-3.136 0-3.314 2.686-6 6-6z m5.116 2.864c0.561 0.913 0.884 1.986 0.884 3.136 0 3.314-2.686 6-6 6-1.15 0-2.223-0.324-3.136-0.884L6.795 19.706c1.599 1.19 3.58 1.894 5.726 1.894 5.302 0 9.6-4.298 9.6-9.6 0-2.146-0.705-4.127-1.894-5.726Z"/></svg>