<svg fill="#16A5F3" role="img" viewBox="0 0 19 24" xmlns="http://www.w3.org/2000/svg"><title>IconJar</title><path d="M2.65 5.875c-0.492 0-0.936-0.453-0.936-0.954 0-1.155 2.858-2.01 6.11-2.01 0.295 0 0.492 0 0.492-0.25 0-0.452-0.985-0.602-0.985-1.355C7.331 0.502 8.267 0 9.45 0c1.183 0 2.12 0.502 2.12 1.306 0 0.753-0.986 0.853-0.986 1.355 0 0.151 0.148 0.251 0.492 0.251 3.252 0 6.16 0.803 6.16 2.009a0.944 0.944 0 0 1-0.937 0.953H2.651z m14.732 4.568c1.183 0.753 1.626 2.109 1.43 3.365l-1.38 7.58C17.136 22.897 15.854 24 14.326 24H4.67c-1.526 0-2.808-1.104-3.104-2.611l-1.38-7.581a3.307 3.307 0 0 1 1.48-3.315c0.69-0.501 0.836-1.355 0-1.656-1.184-0.452-0.938-1.908 0.245-1.908h7.193c1.133 0 2.514 0.853 2.514 3.615 0 2.762-1.282 2.51-1.282 4.468 0 0.854 0.69 1.758 1.527 1.859 1.43 0.15 2.267-0.402 2.267-2.41 0-2.06-1.182-3.013-1.182-4.72 0-2.059 1.28-2.863 2.118-2.863h2.07c1.182 0 1.43 1.457 0.246 1.909-0.837 0.35-0.69 1.205 0 1.656z"/></svg>