<svg fill="#00629B" role="img" viewBox="0 0 83 24" xmlns="http://www.w3.org/2000/svg"><title>IEEE</title><path d="M16.598 22.198h-0.172v-0.22h0.138c0.075 0 0.175 0.007 0.174 0.103 0 0.096-0.051 0.117-0.137 0.117z m0.346-0.103c0-0.206-0.137-0.271-0.374-0.271h-0.339v0.909h0.195v-0.381h0.093l0.209 0.381h0.233l-0.236-0.398c0.123-0.01 0.22-0.069 0.219-0.24z m-0.377 0.834c-0.336 0-0.604-0.261-0.604-0.652 0-0.388 0.268-0.645 0.604-0.645 0.326 0 0.607 0.257 0.607 0.645 0 0.391-0.281 0.652-0.607 0.652z m-0.847-0.652c0 0.535 0.398 0.847 0.847 0.847 0.446 0 0.847-0.309 0.847-0.847a0.816 0.816 0 0 0-0.847-0.844 0.82 0.82 0 0 0-0.847 0.844zM11.83 14.093c-0.069 1.283-0.086 2.47-0.178 3.759 0.508 0.045 1.08 0.089 1.622 0.01l-0.161-3.588-0.031-0.171c-0.412 0.017-0.803 0.034-1.252-0.01z m-3.176-3.605c-0.624 0.312-1.544 0.789-1.444 1.646 0.137 0.466 0.641 0.768 1.042 0.96 2.219 0.981 5.166 1.012 7.512 0.285 0.576-0.223 1.355-0.549 1.462-1.255-0.007-0.587-0.628-0.957-1.074-1.18v-0.028a1.972 1.972 0 0 1 0.494-0.133v-0.014c-0.782-0.141-1.544-0.346-2.302-0.549 0.147 0.333 0.25 0.686 0.374 1.032 0.23-0.072 0.463-0.13 0.71-0.161 0.401 0.154 0.974 0.377 1.029 0.878 0.048 0.47-0.466 0.7-0.789 0.892-1.718 0.621-3.653 0.686-5.447 0.206-0.494-0.154-1.211-0.353-1.269-0.984 0.35-0.83 1.259-1.002 2.017-1.204-0.391-0.25-0.789-0.473-1.166-0.755-0.408 0.024-0.779 0.202-1.149 0.364z m3.797-5.008l-0.22 0.713-1.118 3.197c0.281 0.027 0.628 0 0.902 0.027v0.028l-0.164 3.615 0.027 0.034c0.357 0.034 0.803 0.055 1.166-0.006V13.029l-0.144-3.505 0.021-0.12 0.981-0.014a160.279 160.279 0 0 1-1.42-3.91z m-0.515-1.609c0.82-0.559 1.554 0.223 2.192 0.669 2.459 1.983 4.778 4.246 6.548 6.805 0.223 0.329 0.322 0.844 0.124 1.218-0.46 0.765-1.077 1.461-1.664 2.171v0.038c-1.461 1.557-3.005 3.156-4.675 4.476-0.813 0.494-1.561 1.578-2.61 0.906a37.755 37.755 0 0 1-6.61-6.243c-0.329-0.511-0.844-0.93-1.07-1.509-0.319-0.789 0.384-1.351 0.785-1.942 1.976-2.435 4.428-4.826 6.977-6.586z m2.058-2.326l-0.912-1.289c-0.11-0.069-0.25-0.178-0.37-0.213-0.271-0.117-0.559 0.024-0.779 0.192l-1.647 2.14c-2.638 3.269-5.763 6.322-9.168 8.661-0.271 0.209-0.669 0.415-0.755 0.762-0.089 0.312 0.075 0.569 0.268 0.765a44.801 44.801 0 0 1 7.663 6.654c0.412 0.436 0.744 0.864 1.149 1.269 0.679 0.909 1.475 1.818 2.102 2.789 0.196 0.206 0.226 0.542 0.535 0.641 0.24 0.082 0.535 0.137 0.765 0l0.227-0.229a45.514 45.514 0 0 1 10.407-10.497c0.401-0.353 1.166-0.487 1.176-1.152a1.056 1.056 0 0 0-0.47-0.775l-0.068-0.011c-2.058-1.399-3.976-2.984-5.784-4.781l-1.996-2.089a56.923 56.923 0 0 1-2.346-2.837z m0.134 2.305c0.707 0.539 1.441 1.153 2.093 1.777l0.116 0.069a34.72 34.72 0 0 1 4.819 5.46c0.223 0.343 0.418 0.727 0.295 1.177-0.456 1.139-1.382 2.048-2.191 3.042-1.749 1.887-3.602 3.708-5.667 5.166-0.418 0.295-0.984 0.569-1.485 0.333-1.523-0.796-2.806-2.103-4.14-3.293-1.544-1.43-3.094-3.101-4.267-4.847a1.43 1.43 0 0 1-0.22-0.868c0.151-0.604 0.566-1.098 0.957-1.608 1.382-1.763 3.077-3.437 4.792-4.964 0.038-0.041 0.11-0.123 0.171-0.161 0.737-0.638 1.468-1.201 2.237-1.753 0.803-0.624 1.815-0.106 2.49 0.47z m54.683-0.675H82.662v3.526h-8.812v3.752h8.109v3.526H73.846V17.831H82.662v3.527h-13.851z m-16.667 0h13.847v3.526h-8.815v3.752h8.105v3.526H57.176V17.831h8.812v3.527h-13.847z m-16.67 0h13.847v3.526h-8.815v3.752h8.112v3.526H40.506V17.831h8.815v3.527h-13.851z m-7.684 0h5.039v18.183H27.794Z"/></svg>