<svg fill="#EA1D2C" role="img" viewBox="0 0 28 24" xmlns="http://www.w3.org/2000/svg"><title>iFood</title><path d="M9.851 0c-5.402 0-8.345 4.82-8.346 8.129 0 2.665 2.556 3.832 4.937 3.832l-0.007-0.007c4.93 0 8.345-4.477 8.346-8.129 0-2.66-2.527-3.825-4.93-3.825z m13.159 0c-5.402 0-8.345 4.82-8.346 8.129 0 2.665 2.556 3.832 4.937 3.832l-0.007-0.007C24.526 11.953 27.94 7.477 27.94 3.825c0-2.66-2.532-3.825-4.93-3.825zM16.523 14.927l2.829 2.131c-2.521 2.405-7.114 4.095-10.865 3.682A10.354 10.354 0 0 1 0.327 14.952H0.06a11.149 11.149 0 0 0 10.255 9.012c4.431 0.279 8.507-1.051 11.555-3.636l-0.005 0.008 1.255 3.471 1.806-8.855-8.403-0.024Z"/></svg>