<svg fill="#9147FF" role="img" viewBox="0 0 50 24" xmlns="http://www.w3.org/2000/svg"><title>IGDB</title><path d="M49.948 0c-16.632 0.004-33.264 0-49.896 0v23.998a184.771 184.771 0 0 1 4.721-0.692 153.952 153.952 0 0 1 35.422-0.583c3.264 0.318 6.516 0.755 9.751 1.277V0z m-1.468 1.47v20.817a155.399 155.399 0 0 0-46.96 0V1.468h46.96ZM16.121 5.43a5.455 5.455 0 0 0-3.861 1.497 5.301 5.301 0 0 0-1.518 2.765c-0.204 1.04-0.131 2.141 0.233 3.14 0.368 1.015 1.071 1.906 1.983 2.486 1.137 0.736 2.545 0.981 3.878 0.834a6.74 6.74 0 0 0 3.713-1.616c-0.006-1.505 0.004-3.012-0.004-4.517-1.507 0.008-3.015-0.004-4.52 0.006 0.006 0.659 0 1.318 0.002 1.977h2.297c0.004 0.491 0 0.983 0.004 1.476-0.557 0.407-1.254 0.595-1.937 0.62-0.665 0.042-1.351-0.104-1.917-0.468a3.044 3.044 0 0 1-1.227-1.547c-0.374-1.037-0.279-2.256 0.339-3.181 0.478-0.738 1.287-1.268 2.169-1.345a3.742 3.742 0 0 1 2.104 0.428c0.316 0.17 0.595 0.399 0.881 0.614 0.474-0.584 0.958-1.162 1.439-1.742a6.306 6.306 0 0 0-1.237-0.838c-0.869-0.441-1.854-0.593-2.821-0.589Zm24.241 0.179c-0.193 0-0.389 0.004-0.582 0-1.414 0.004-2.825-0.008-4.237 0.006 0.006 3.464 0 6.927 0.004 10.391h5.191c0.497-0.004 0.994-0.071 1.474-0.201 0.574-0.158 1.135-0.432 1.543-0.878 0.403-0.432 0.617-1.023 0.632-1.613 0.033-0.578-0.067-1.189-0.406-1.672-0.364-0.524-0.942-0.848-1.526-1.068 0.439-0.254 0.846-0.593 1.083-1.05 0.279-0.511 0.31-1.112 0.244-1.678a2.403 2.403 0 0 0-0.907-1.518c-0.549-0.43-1.245-0.632-1.933-0.694a5.732 5.732 0 0 0-0.58-0.025Zm-34.751 0v10.399h2.291V5.611c-0.765-0.004-1.528 0-2.291 0z m17.722 0v10.399h4.191a5.967 5.967 0 0 0 2.224-0.438 5.083 5.083 0 0 0 2.441-2.065c0.707-1.154 0.892-2.586 0.607-3.9a4.921 4.921 0 0 0-1.721-2.782c-0.994-0.805-2.279-1.2-3.549-1.214h-4.193z m14.447 2.011c0.815 0.004 1.63-0.002 2.445 0.004 0.38 0.023 0.79 0.112 1.06 0.395 0.229 0.233 0.283 0.582 0.233 0.894a0.906 0.906 0 0 1-0.458 0.657 2.249 2.249 0 0 1-1.004 0.241c-0.759 0.004-1.518-0.002-2.274 0.002-0.004-0.73 0-1.462-0.002-2.191z m-10.46 0.054c0.582 0 1.179 0.11 1.695 0.395 0.57 0.31 1.021 0.823 1.262 1.424 0.235 0.565 0.287 1.193 0.222 1.798a3.027 3.027 0 0 1-0.697 1.634 2.963 2.963 0 0 1-1.798 0.969c-0.349 0.064-0.707 0.046-1.06 0.048h-1.314V7.676h1.69z m10.458 4.049h2.827c0.362 0.012 0.736 0.073 1.05 0.265 0.229 0.137 0.397 0.374 0.441 0.64 0.052 0.312 0.008 0.665-0.206 0.915-0.212 0.249-0.536 0.366-0.85 0.415-0.358 0.067-0.723 0.042-1.086 0.046-0.728-0.002-1.451 0.004-2.176-0.002v-2.279z"/></svg>