<svg fill="#0058A3" role="img" viewBox="0 0 60 24" xmlns="http://www.w3.org/2000/svg"><title>IKEA</title><path d="M0 0v24h60V0H0z m30.005 22.8C13.27 22.8 1.2 17.9 1.2 12s12.077-10.8 28.805-10.8c16.725 0 28.795 4.9 28.795 10.8s-12.06 10.8-28.795 10.8z m-0.562-15.155h10.44v2.41c-0.257-0.117-0.507-0.117-0.765-0.118h-4.395v1.15h4.222v1.83h-4.222v1.143h4.395c0.257 0 0.507 0 0.765-0.125v2.417h-10.44c0.13-0.252 0.13-0.495 0.13-0.747V8.4c0-0.252 0-0.495-0.13-0.755z m-17.69 0.755v7.202c0 0.252 0 0.495 0.13 0.748H6c0.13-0.252 0.13-0.495 0.13-0.748V8.4c0-0.252 0-0.495-0.13-0.748h5.883c-0.13 0.252-0.13 0.495-0.13 0.748z m16.117 7.202c0.19 0.267 0.395 0.52 0.638 0.748H22.013c0-0.252-0.25-0.765-0.525-1.168-0.275-0.402-1.762-2.61-1.763-2.61v3.03c0 0.252 0 0.495 0.13 0.748H14.445c0.13-0.252 0.13-0.495 0.13-0.748V8.4c0-0.252 0-0.495-0.13-0.748h5.41c-0.13 0.252-0.13 0.495-0.13 0.748v3.147s1.727-2.2 2.125-2.712c0.3-0.385 0.67-0.932 0.67-1.183h5.643c-0.387 0.252-0.817 0.705-1.17 1.125l-2.065 2.46s2.597 3.87 2.942 4.365z m26.365-7.512a0.445 0.445 0 0 0-0.437-0.445h-0.525v1.377h0.207v-0.487h0.3l0.275 0.487h0.233l-0.3-0.53a0.46 0.46 0 0 0 0.247-0.402z m-0.472 0.252h-0.285v-0.477h0.31c0.137 0 0.232 0.117 0.232 0.252 0 0.132-0.12 0.232-0.257 0.225z m-0.053-1.142h-0.077a1.11 1.11 0 0 0-1.093 1.142c0 0.017 0 0.042-0.007 0.058a1.165 1.165 0 0 0 1.205 1.117 1.16 1.16 0 0 0 1.145-1.175v-0.042a1.135 1.135 0 0 0-1.173-1.1z m0 2.057a0.93 0.93 0 0 1-0.937-0.915v-0.067a0.892 0.892 0 0 1 0.937-0.848c0.515 0 0.937 0.412 0.938 0.915s-0.42 0.915-0.938 0.915z m-2.192-0.847c-0.095-0.252-0.232-0.495-0.163-0.748h-7.542c0.035 0.252-0.06 0.495-0.155 0.748l-2.675 7.202a2.13 2.13 0 0 1-0.405 0.748h4.462c-0.035-0.252 0.06-0.495 0.145-0.748 0.085-0.252 0.18-0.495 0.18-0.495l0.053-0.135h3.26l0.052 0.125c0.12 0.295 0.207 0.495 0.208 0.495 0.102 0.252 0.197 0.495 0.172 0.748h5.658a2.092 2.092 0 0 1-0.423-0.748 1725.692 1725.692 0 0 0-2.827-7.192z m-5.418 4.732c0.387-1.05 0.722-1.93 0.748-2.015 0.07-0.185 0.12-0.377 0.155-0.57 0.042 0.192 0.102 0.385 0.172 0.57l0.79 2.015h-1.865z"/></svg>