<svg fill="#039CB2" role="img" viewBox="0 0 26 24" xmlns="http://www.w3.org/2000/svg"><title>Image.sc</title><path d="M14.758 16.04h0.269a0.463 0.463 0 0 1 0.463 0.463v4.027a0.463 0.463 0 0 1-0.463 0.463h-4.027a0.463 0.463 0 0 1-0.463-0.463v-0.13L7.53 22.147v0.673c0 0.652 0.528 1.18 1.18 1.18h8.607c0.652 0 1.18-0.528 1.18-1.18v-8.607c0-0.652-0.528-1.18-1.18-1.18h-4.299z m-0.856-3.537l2.133-3.742c0.323-0.566 1.043-0.764 1.609-0.441l7.478 4.262c0.566 0.323 0.764 1.043 0.441 1.609l-4.261 7.478c-0.323 0.566-1.043 0.764-1.61 0.441l-0.665-0.379v-3.461l0.165 0.094a0.463 0.463 0 0 0 0.631-0.173l1.994-3.499a0.463 0.463 0 0 0-0.173-0.632l-3.499-1.994a0.463 0.463 0 0 0-0.631 0.173l-0.153 0.269z m5.224-6.941a0.463 0.463 0 0 1 0.633 0.168l2.022 3.483a0.463 0.463 0 0 1-0.168 0.633l-0.109 0.063 3.021 1.722 0.579-0.335c0.564-0.327 0.755-1.049 0.427-1.613l-4.323-7.443c-0.327-0.563-1.049-0.755-1.612-0.428l-7.443 4.323c-0.564 0.327-0.755 1.049-0.428 1.613l2.159 3.717 1.727-3.014-0.136-0.233a0.463 0.463 0 0 1 0.168-0.633m-4.401 0.375h-0.269a0.463 0.463 0 0 1-0.463-0.463V3.47a0.463 0.463 0 0 1 0.463-0.463h4.027a0.463 0.463 0 0 1 0.463 0.463v0.13l3.007-1.747V1.18c0-0.652-0.528-1.18-1.18-1.18h-8.607c-0.652 0-1.18 0.528-1.18 1.18v8.607c0 0.652 0.528 1.18 1.18 1.18h4.299z m-2.603 3.532l-0.153 0.269a0.463 0.463 0 0 1-0.631 0.173l-3.499-1.994a0.463 0.463 0 0 1-0.173-0.632L6.177 5.809a0.463 0.463 0 0 1 0.631-0.173l0.165 0.094V2.269l-0.665-0.379c-0.566-0.323-1.287-0.125-1.61 0.441L0.437 9.809c-0.323 0.566-0.125 1.287 0.441 1.609l7.478 4.262c0.566 0.323 1.287 0.125 1.609-0.441l2.133-3.742z m3.477 1.043l2.159 3.717c0.327 0.564 0.136 1.286-0.428 1.613l-7.443 4.323c-0.563 0.327-1.286 0.136-1.612-0.428L0.469 14.317c-0.327-0.564-0.136-1.286 0.427-1.613l0.579-0.335 3.021 1.722-0.109 0.063a0.463 0.463 0 0 0-0.168 0.633l2.022 3.483a0.463 0.463 0 0 0 0.633 0.168l3.483-2.023a0.463 0.463 0 0 0 0.168-0.633l-0.136-0.233z"/></svg>