<svg fill="#00D8E0" role="img" viewBox="0 0 15 24" xmlns="http://www.w3.org/2000/svg"><title>ImageJ</title><path d="M8.629 17.508h-8.072a0.187 0.187 0 0 1-0.187-0.187v-0.444a0.187 0.187 0 0 1 0.187-0.187h8.072a0.187 0.187 0 0 1 0.187 0.187v0.444a0.187 0.187 0 0 1-0.187 0.187z m5.623-12.195c-1.423 0.003-4.218-0.01-5.641-0.006a0.404 0.404 0 0 0-0.404 0.403v3.607c0 0.223 0.181 0.404 0.404 0.403h1.747v8.19a1.827 1.827 0 0 1-0.911 1.576 1.828 1.828 0 0 1-1.823 0 1.828 1.828 0 0 1-0.911-1.578H2.441c0 2.171 1.168 4.193 3.047 5.278 0.94 0.543 1.994 0.814 3.048 0.814s2.108-0.271 3.047-0.814c1.879-1.084 3.044-3.109 3.047-5.274V5.692a0.379 0.379 0 0 0-0.378-0.379zM2.955 15.231h3.276a0.64 0.64 0 0 0 0.64-0.641V0.64A0.64 0.64 0 0 0 6.231 0h-3.276a0.64 0.64 0 0 0-0.641 0.64v13.95c0 0.354 0.287 0.64 0.641 0.641z"/></svg>