<svg fill="#F5C518" role="img" viewBox="0 0 24 24" xmlns="http://www.w3.org/2000/svg"><title>IMDb</title><path d="M22.378 0H1.622C0.741 0.058 0.059 0.744 0.002 1.595l-0.001 20.783c0.059 0.876 0.713 1.543 1.556 1.619A0.337 0.337 0 0 0 1.602 24h20.797a0.458 0.458 0 0 0 0.043-0.002c0.873-0.077 1.557-0.827 1.557-1.708V1.71c0-0.891-0.696-1.642-1.584-1.708A0.329 0.329 0 0 0 22.378 0z m0 0.496a1.214 1.214 0 0 1 1.125 1.214v20.58c0 0.638-0.487 1.16-1.104 1.214H1.602c-0.597-0.054-1.065-0.53-1.106-1.126V1.628C0.537 1.019 1.018 0.536 1.622 0.496h20.756zM4.795 8.26v7.364H2.89V8.26h1.905z m6.537 0v7.364H9.671v-4.97l-0.671 4.97H7.813l-0.699-4.862-0.006 4.862h-1.668V8.26h2.468c0.075 0.448 0.149 0.969 0.23 1.574l0.272 1.871 0.44-3.445h2.482z m2.977 1.329c0.074 0.04 0.122 0.108 0.142 0.204 0.028 0.095 0.035 0.312 0.034 0.644v2.855c0 0.488-0.035 0.787-0.095 0.895-0.061 0.115-0.23 0.17-0.502 0.17V9.521c0.204 0 0.346 0.021 0.421 0.068z m-0.021 6.035c0.454 0 0.801-0.026 1.025-0.074 0.23-0.048 0.42-0.136 0.569-0.265 0.156-0.122 0.264-0.298 0.325-0.522 0.061-0.224 0.102-0.665 0.102-1.322v-2.584c0-0.699-0.027-1.167-0.074-1.403-0.041-0.237-0.143-0.454-0.313-0.644-0.17-0.197-0.42-0.332-0.745-0.421-0.319-0.081-0.854-0.129-1.77-0.129h-1.424v7.364h2.305z m5.14-1.783c0 0.352-0.02 0.576-0.054 0.671-0.033 0.095-0.189 0.142-0.305 0.142-0.109 0-0.19-0.048-0.224-0.135-0.041-0.089-0.061-0.299-0.061-0.623v-1.947c0-0.332 0.02-0.542 0.055-0.624 0.034-0.081 0.109-0.122 0.217-0.122 0.115 0 0.271 0.041 0.311 0.142 0.041 0.095 0.061 0.299 0.061 0.604v1.892z m-2.475-5.581v7.364h1.716l0.115-0.468c0.156 0.189 0.325 0.332 0.516 0.428 0.183 0.088 0.461 0.136 0.678 0.135 0.305 0 0.563-0.075 0.78-0.237 0.216-0.156 0.359-0.346 0.42-0.563 0.054-0.217 0.089-0.543 0.088-0.984v-2.067c0-0.441-0.014-0.732-0.034-0.868-0.02-0.136-0.074-0.278-0.17-0.421-0.102-0.142-0.244-0.251-0.427-0.332-0.183-0.074-0.4-0.115-0.657-0.115-0.217 0-0.495 0.048-0.685 0.128-0.183 0.089-0.353 0.224-0.509 0.401V8.26h-1.831z"/></svg>