<svg fill="#00E7C3" role="img" viewBox="0 0 43 24" xmlns="http://www.w3.org/2000/svg"><title>Immer</title><path d="M4.217 16.144C1.991 16.144 0.184 14.336 0.184 12.109s1.807-4.035 4.033-4.035 4.033 1.808 4.033 4.035-1.807 4.035-4.033 4.035z m34.567 1.525a5.545 5.545 0 0 1-3.236-1.038c-1.319 1.487-1.859 1.86-3.672 1.86-2.739 0-5.542-4.123-8.096-7.664 2.659-4.149 5.099-6.89 7.693-6.89 1.981 0 3.881 0.877 4.95 3.138a5.534 5.534 0 0 1 2.361-0.525 5.516 5.516 0 0 1 2.078 0.402c-1.563-4.617-5.323-6.952-9.083-6.952-4.147 0-7.211 3.837-9.903 8.223-3.168-4.32-6.189-8.223-10.523-8.223-3.689 0-7.379 2.285-8.959 6.803a5.539 5.539 0 0 1 1.662-0.253 5.53 5.53 0 0 1 3.051 0.913c0.97-1.372 2.212-2.193 3.566-2.149 2.73 0.092 5.202 3.286 8.325 7.683-2.274 3.479-5.192 6.872-7.656 6.871-1.877 0-3.684-0.789-4.778-2.796a5.531 5.531 0 0 1-2.508 0.597c-0.659 0.012-1.303-0.137-1.927-0.33 1.655 4.293 5.28 6.465 8.904 6.465 4.132 0 6.984-3.651 9.815-8.196 3.106 4.376 6.216 8.392 10.644 8.392 3.596 0 7.634-2.368 9.278-6.661-0.636 0.155-1.285 0.353-1.986 0.33z m-0.001-9.595c-2.226 0-4.033 1.808-4.033 4.035s1.807 4.035 4.033 4.035c2.226 0 4.033-1.808 4.033-4.035s-1.807-4.035-4.033-4.035z"/></svg>