<svg fill="#ED2F21" role="img" viewBox="0 0 25 24" xmlns="http://www.w3.org/2000/svg"><title>Indian Super League</title><path d="M11.085 0C9.426-0.008 8.014 0.479 7.397 0.779c-0.114 0.055-0.226 0.114-0.355 0.183C5.216 3.69 4.765 6.649 4.523 7.841c0.267 0.31 0.532 0.594 0.808 0.857-1.083 0.039-2.051-0.008-2.834-0.155-0.334 0.641-0.623 1.213-0.876 1.746C1.398 9.761 1.212 9.26 1.148 8.533c-0.337 0.4-0.503 0.784-0.561 1.125v0.032c-0.095 0.495-0.15 0.981-0.18 1.498-0.037 0.686-0.014 1.364 0.059 2.024 0 0.047 0.031 0.291 0.04 0.325 0.061 0.421 0.14 0.839 0.24 1.25 0.008 0.033-0.008-0.016 0.038 0.152 0 0.001 0.071 0.256 0.073 0.248 0.846 2.905 2.333 4.807 4.397 6.44 0.101 0.019 0.208 0.034 0.317 0.047 0.316 0.289 0.659 0.566 1.124 0.889 0.722 0.304 1.618 0.681 2.801 1.003 0.084-0.136 0.198-0.275 0.345-0.425-0.825-0.509-1.317-0.819-1.993-1.461 0.963-0.069 2.015-0.2 3.061-0.331v-0.004c0.079-0.673 0.183-1.279 0.351-2.042 0.582 0.49 1.155 0.927 1.865 1.447-0.05 0.276-0.079 0.515-0.117 0.863 0.396 0.218 0.688 0.375 0.948 0.507-0.484 0.091-0.961 0.172-1.425 0.24-0.007 0.594 0 0.616 0.136 1.126 0.866 0.301 1.046 0.342 1.794 0.514 0.348-0.07 0.961-0.225 1.368-0.353h0.004c0.077-0.308 0.102-0.314 0.282-0.772a97.354 97.354 0 0 1-0.339-0.188c0.623-0.118 1.261-0.265 1.894-0.433 0 0 0.326-0.539 1.074-1.914-0.184-0.158-0.617-0.515-1.163-0.964 0.315-0.832 0.538-1.435 0.716-1.94a29.594 29.594 0 0 1 0.786-0.169c0.48-1.386 0.658-1.889 1.52-4.074-0.252-0.444-0.473-0.821-0.696-1.179 0.205 0.177 0.428 0.368 0.708 0.611 0.136-0.055 0.27-0.109 0.406-0.168 1.034-0.433 1.958-0.87 2.761-1.306v-0.002c0.315-1.581 0.346-2.437 0.387-3.625-0.931-0.847-1.555-1.305-2.502-1.991-0.752 0.407-1.614 0.819-2.582 1.222-0.125 0.051-0.25 0.106-0.378 0.154-0.162 1.109-0.321 1.853-0.527 2.712-0.058-0.073-0.11-0.14-0.171-0.217-1.485 0.304-3.014 0.689-4.514 1.151-0.203 1.062-0.341 1.861-0.439 2.659-0.606 0.13-1.206 0.247-1.798 0.349-0.769-0.885-1.379-1.651-1.884-2.357 0.218 0.097 0.43 0.191 0.668 0.291 1.348-1.045 2.38-1.883 3.319-2.704 0.336 0.163 0.688 0.333 1.102 0.53 0.926-0.743 1.836-1.526 2.696-2.328-0.594-1.746-0.929-2.435-1.482-3.575a240.131 240.131 0 0 1-0.985-0.276C13.945 1.329 13.448 0.415 13.448 0.382c-0.804-0.273-1.609-0.379-2.363-0.382Zm6.944 0.791c-0.888 0.287-1.642 0.678-1.662 0.678 0.253 0.689 0.421 1.403 0.572 2.034 0.986 0.506 1.688 0.983 2.257 1.372 0.594-0.286 1.151-0.521 1.667-0.69-0.15-0.92-0.359-1.528-0.542-2.064-0.854-0.623-1.651-1.015-2.292-1.33ZM3.882 3.302l0.002 0.002 0.002-0.002z m0.002 0.002c-0.425 0.418-0.829 0.86-1.202 1.332 0 0-0.002 0.012-0.006 0.016-0.227 0.554-0.489 1.334-0.676 1.902 0.15 0.147 0.338 0.286 0.554 0.422 0.337-0.469 0.801-1.071 1.153-1.522 0.172-0.546 0.439-1.264 0.648-1.796-0.186-0.113-0.343-0.234-0.471-0.354Zm11.423 0.532c0.453 0.933 0.781 1.684 1.247 3.014-0.698 0.641-1.423 1.267-2.164 1.87a116.776 116.776 0 0 1-0.615-0.296c0.714-0.64 1.393-1.287 2.137-2.034-0.355-1.029-0.684-1.901-0.986-2.661 0 0 0.016 0.005 0.381 0.107zM2.826 9.036c0.87 0.128 1.881 0.158 2.994 0.1 0.731 0.612 1.571 1.131 2.69 1.674 0.587 0.883 1.302 1.821 2.259 2.934-0.387 1.405-0.655 2.471-0.991 4.217 0.391 0.375 0.738 0.693 1.07 0.985-0.159 0.725-0.265 1.316-0.345 1.92-1.186 0.147-2.365 0.28-3.369 0.319-0.638-0.354-1.366-0.778-2.132-1.322-0.169 0.167-0.312 0.33-0.428 0.489-1.544-1.443-2.656-3.133-3.321-5.608-0.025-0.092-0.045-0.183-0.063-0.274 0.112-0.165 0.247-0.334 0.394-0.507-0.032-0.769-0.061-1.463 0.01-2.343 0.293-0.739 0.723-1.599 1.232-2.584Zm14.968 0.944c0.081 0.102 0.153 0.197 0.229 0.293-0.01 0.043-0.019 0.079-0.03 0.123 0.149 0.124 0.226 0.19 0.351 0.293 0.688 0.908 1.143 1.605 1.695 2.571-0.685 1.744-0.943 2.457-1.334 3.583-0.073 0.015-0.146 0.033-0.219 0.049 0.092-0.269 0.185-0.55 0.294-0.879-1.628-1.588-1.891-1.859-3.369-3.366-0.605 0.162-1.212 0.311-1.813 0.447 0.086-0.655 0.201-1.326 0.352-2.135 2.181-0.655 3.826-0.968 3.844-0.979zM3.575 13.013c-0.308 1.137-0.387 1.94-0.454 2.651 0.649 1.155 1.356 2.023 1.932 2.72 0.674 0.073 1.431 0.099 2.255 0.077 0.07-0.921 0.25-1.824 0.408-2.627-0.862-1.089-1.423-2.006-1.875-2.74-0.825 0.018-1.588-0.004-2.266-0.081Zm19.47 1.053c-0.704 0.433-1.436 0.851-2.18 1.261-0.216 0.803-0.252 0.924-0.692 2.369 0.403 0.244 0.899 0.562 1.488 0.956 0.649-0.352 1.203-0.734 1.816-1.107 0.062-0.037 0.117-0.073 0.175-0.107 0.012 0 0.02-0.016 0.024-0.027-0.013-0.013 0.034-0.023 0.23-0.481 0.268-0.565 0.491-1.151 0.675-1.757 0.011-0.029 0.019-0.059 0.029-0.088-0.389-0.381-0.396-0.377-1.364-1.147-0.067 0.043-0.134 0.085-0.201 0.128z m-3.106 6.339c-0.33 0.359-0.791 0.81-1.144 1.147 0.102 0.153 0.178 0.298 0.233 0.439 0.476-0.165 0.947-0.362 1.401-0.589 0 0 0.004-0.004 0.004-0.008 0.378-0.345 0.858-0.847 1.207-1.214-0.062-0.169-0.149-0.341-0.27-0.524-0.469 0.265-0.951 0.504-1.431 0.749z m-2.547-0.529c0.295 0.243 0.539 0.444 0.706 0.584-0.418 0.755-0.712 1.276-0.757 1.35-0.64 0.166-1.281 0.309-1.902 0.42-0.721-0.305-1.157-0.521-1.863-0.903 0.02-0.171 0.047-0.341 0.079-0.522 1.203-0.21 2.447-0.484 3.694-0.816 0.014-0.037 0.029-0.075 0.043-0.113z"/></svg>