<svg fill="#2C6CAF" role="img" viewBox="0 0 79 24" xmlns="http://www.w3.org/2000/svg"><title>InfoQ</title><path d="M65.369 0c-1.461 0-2.799 0.209-4.012 0.623a9.893 9.893 0 0 0-5.985 5.636c-0.61 1.471-0.913 3.138-0.914 5.001 0 2.671 0.62 4.919 1.84 6.751l0.023 0.033c0.059 0.088 0.117 0.176 0.183 0.261l0.075 0.104a9.805 9.805 0 0 0 0.466 0.587l0.059 0.066a9.612 9.612 0 0 0 4.305 2.837 12.29 12.29 0 0 0 3.963 0.588c1.076 0 2.101-0.114 3.066-0.343a10.568 10.568 0 0 0 2.642-0.998 8.448 8.448 0 0 0 3.383 2.283c0.793 0.29 1.647 0.479 2.564 0.571L78.641 20.167a8.419 8.419 0 0 1-1.8-0.397 7.642 7.642 0 0 1-2.597-1.517 9.41 9.41 0 0 0 0.907-1.481 9.948 9.948 0 0 0 0.744-2.065l0.006-0.019c0.251-1.037 0.378-2.182 0.379-3.428 0-3.409-0.995-6.132-2.985-8.187-1.99-2.048-4.632-3.073-7.926-3.073ZM0.359 0.489v21.476h5.284V0.493Zm32.226 0c-1.876 0-3.226 0.375-4.048 1.122-0.825 0.75-1.239 1.97-1.239 3.66a9.971 9.971 0 0 0 0.065 1.116h-2.456v2.925h2.453v12.653h4.827V9.312h3.001v-2.925h-3.001v-0.61c0-0.652 0.144-1.086 0.431-1.305 0.284-0.219 0.871-0.326 1.761-0.326h0.809V0.802a10.927 10.927 0 0 0-2.6-0.309z m32.784 4.012c1.703 0 3.033 0.597 3.999 1.788 0.962 1.194 1.445 2.851 1.445 4.971 0 0.904-0.095 1.719-0.271 2.456a7.776 7.776 0 0 1-0.166 0.6l-0.043 0.13a6.687 6.687 0 0 1-0.182 0.463l-0.088 0.196a5.966 5.966 0 0 1-0.317 0.581l-0.085 0.13a4.775 4.775 0 0 1-1.05 1.152l-0.026 0.019-0.026 0.017a4.482 4.482 0 0 1-0.881 0.528c-0.01 0-0.02 0.007-0.026 0.01a4.981 4.981 0 0 1-1.053 0.329h-0.017l-0.009 0.003c-0.378 0.075-0.78 0.111-1.204 0.111-1.699 0-3.033-0.597-3.996-1.79a5.415 5.415 0 0 1-0.332-0.46l-0.007-0.007c-0.101-0.16-0.196-0.326-0.284-0.496l-0.006-0.013a6.279 6.279 0 0 1-0.242-0.531l-0.039-0.111a9.374 9.374 0 0 1-0.535-3.317c0-2.101 0.486-3.751 1.455-4.955 0.969-1.204 2.296-1.804 3.986-1.804z m-21.453 0.979c-2.577 0-4.664 0.783-6.246 2.348-1.582 1.566-2.375 3.617-2.374 6.162 0 0.235 0.013 0.46 0.026 0.685v0.006a10.438 10.438 0 0 0 0.078 0.78l0.006 0.052c0.033 0.228 0.072 0.453 0.118 0.672l0.039 0.169a8.608 8.608 0 0 0 0.411 1.289l0.104 0.235c0.068 0.15 0.137 0.297 0.216 0.44l0.163 0.29c0.075 0.117 0.144 0.238 0.222 0.356 0.088 0.134 0.189 0.261 0.287 0.391l0.163 0.216a7.77 7.77 0 0 0 4.087 2.586c0.277 0.072 0.561 0.13 0.848 0.18h0.003c0.587 0.098 1.2 0.147 1.849 0.146 2.587 0 4.674-0.78 6.263-2.338 0.189-0.183 0.365-0.375 0.532-0.574v-0.007c0.117-0.137 0.219-0.281 0.319-0.424 0.052-0.065 0.108-0.134 0.154-0.206 0.104-0.153 0.196-0.313 0.287-0.476 0.036-0.065 0.078-0.124 0.111-0.189 0.101-0.186 0.189-0.382 0.274-0.58l0.048-0.115c0.091-0.222 0.173-0.45 0.245-0.685l0.013-0.039v-0.01a8.699 8.699 0 0 0 0.323-1.598 10.731 10.731 0 0 0 0.065-0.854v-0.01c0-0.13 0.013-0.258 0.013-0.392 0-2.551-0.789-4.606-2.368-6.164s-3.673-2.339-6.279-2.339z m-25.246 0.15c-0.972 0-1.849 0.153-2.632 0.456-0.78 0.31-1.481 0.776-2.104 1.4v-1.484h-4.827v15.963h4.827V12.564c0-1.148 0.205-1.957 0.62-2.426 0.411-0.47 1.102-0.705 2.071-0.705 0.822 0 1.422 0.251 1.804 0.757 0.378 0.502 0.571 1.295 0.571 2.374v9.401h4.827V12.326c0-2.267-0.424-3.947-1.272-5.049-0.848-1.099-2.143-1.647-3.881-1.647z m25.246 3.594a3.229 3.229 0 0 1 2.691 1.292c0.669 0.861 1.001 2.019 1.002 3.474 0 0.179-0.003 0.352-0.013 0.522v0.006c-0.01 0.15-0.026 0.294-0.043 0.437v0.01l-0.042 0.271c-0.01 0.059-0.016 0.121-0.029 0.176-0.013 0.075-0.033 0.15-0.049 0.222a5.871 5.871 0 0 1-0.245 0.789 4.557 4.557 0 0 1-0.3 0.6l-0.065 0.114a4.067 4.067 0 0 1-0.222 0.313 3.236 3.236 0 0 1-2.685 1.292 3.223 3.223 0 0 1-2.681-1.285 4.032 4.032 0 0 1-0.212-0.303l-0.088-0.147a4.208 4.208 0 0 1-0.349-0.757l-0.039-0.111a5.421 5.421 0 0 1-0.085-0.287l-0.006-0.023a6.621 6.621 0 0 1-0.196-1.187 8.601 8.601 0 0 1-0.026-0.652c0-1.435 0.336-2.59 1.011-3.458 0.672-0.874 1.562-1.308 2.671-1.308z"/></svg>