<svg fill="#007CC3" role="img" viewBox="0 0 66 24" xmlns="http://www.w3.org/2000/svg"><title>Infosys</title><path d="M63.539 0c-1.079 0-1.963 0.889-1.963 1.968 0 1.087 0.884 1.963 1.963 1.963 1.079 0 1.968-0.876 1.968-1.963 0-1.079-0.89-1.968-1.968-1.968z m0 0.291c0.92 0 1.677 0.757 1.678 1.677 0 0.92-0.758 1.672-1.678 1.672-0.92 0-1.672-0.752-1.672-1.672 0-0.92 0.751-1.677 1.672-1.677z m-41.005 0.148c-2.438 0-4.196 1.603-4.439 4.444h-1.883v1.413h1.857c0.008 4.514-0.005 9.032-0.005 13.54h2.106c-0.006-4.513-0.005-9.026-0.006-13.54h4.735c-1.75 1.42-2.889 3.722-2.888 6.323 0 4.315 3.133 7.815 6.994 7.815 3.862 0 6.995-3.499 6.995-7.815 0-0.514-0.047-1.017-0.132-1.503 0.695 1.119 2.028 1.661 3.814 2.434 2.109 0.891 3.286 1.67 3.286 3 0 1.594-1.506 2.426-3.201 2.413-1.655 0-2.948-0.675-4.386-1.979v2.503c0.877 0.566 2.237 0.889 3.709 0.888 1.854-0.006 5.667-0.675 5.666-4.539-0.012-2.318-1.937-3.315-4.026-4.222-2.542-1.26-3.512-1.525-3.487-2.969 0-1.92 1.674-2.497 2.979-2.497 0.569 0 1.054 0.079 1.513 0.233 0.857 0.323 1.14 0.962 1.445 1.656 1.431 3.347 2.802 6.721 4.195 10.085-0.667 1.527-1.425 3.12-1.941 4.137l-0.011 0.027-0.434 0.804-0.486 0.91h2.063c0.9-1.989 4.723-11.293 5.545-13.296 0.54 1.444 1.858 2.023 3.873 2.894 2.108 0.891 3.291 1.67 3.291 3 0 1.594-1.507 2.421-3.201 2.407-1.72 0-3.049-0.727-4.556-2.132l-0.137-0.111v2.55c0.844 0.702 2.36 1.111 4.016 1.111 1.854-0.006 5.667-0.675 5.666-4.54-0.011-2.318-1.937-3.321-4.026-4.227-2.542-1.261-3.411-1.525-3.386-2.968 0-1.921 1.568-2.497 2.872-2.497 1.485 0 2.427 0.552 3.736 1.502V5.455c-1.063-0.374-1.954-0.519-3.154-0.513-2.414-0.005-4.596 0.876-5.148 2.915l-2.994 7.407-0.313 0.931-0.275-0.931c-1.36-3.275-2.691-6.565-4.026-9.836-0.854-0.224-2.25-0.545-3.233-0.529-0.102-0.002-0.205-0.001-0.312 0-2.791-0.005-5.482 1.174-5.481 3.947 0 0.161 0.006 0.313 0.016 0.461-1.116-2.658-3.531-4.497-6.334-4.498-0.337 0-0.67 0.023-0.994 0.074H20.143c-0.323-1.986 0.604-3.116 2-3.116 1.753-0.002 2.504 0.52 3.265 1.222 0 0 0.053-0.002 0.074 0 0.01-0.666 0.005-1.441 0.005-2.153-0.501-0.232-1.371-0.397-2.952-0.397zM0.493 0.503v19.333h2.328V0.503z m62.306 0.376v2.074h0.375v-0.836h0.445l0.322 0.836h0.418l-0.381-0.894c0.134-0.067 0.36-0.14 0.36-0.508 0-0.602-0.453-0.672-0.846-0.672z m0.375 0.359h0.418c0.226 0 0.349 0.091 0.349 0.275 0 0.184-0.142 0.27-0.317 0.27h-0.45zM11.794 4.836c-2.56 0-3.638 0.91-4.492 1.825a0.67 0.67 0 0 0-0.095 0.175h-0.021v-0.117l-0.027-1.687H5.117v14.804h2.1v-10.825c0.061-1.329 1.933-2.64 3.392-2.641 1.755 0 3.19 1.182 3.19 2.815v10.651h2.101c-0.005-3.871-0.005-7.742-0.006-11.614-0.063-1.31-1.651-3.386-4.1-3.386z m17.021 1.508c2.639-0.047 4.829 2.767 4.889 6.28 0.06 3.514-2.033 6.397-4.672 6.445-2.639 0.046-4.829-2.762-4.889-6.275-0.06-3.514 2.033-6.402 4.672-6.45Z"/></svg>