<svg fill="#7A78D7" role="img" viewBox="0 0 21 24" xmlns="http://www.w3.org/2000/svg"><title>Inkdrop</title><path d="M7.354 1.812C7.923 0.834 8.971 0.143 10.107 0.02c0.939-0.102 1.915 0.18 2.656 0.771a3.665 3.665 0 0 1 0.873 1.008c2.165 3.721 4.314 7.451 6.471 11.177 0.342 0.594 0.5 1.282 0.475 1.963-0.022 0.579-0.176 1.153-0.463 1.658-1.067 1.862-2.142 3.72-3.213 5.58-0.637 1.102-1.868 1.813-3.134 1.821-2.169 0.004-4.339 0-6.508 0-1.268-0.003-2.498-0.711-3.137-1.8-1.082-1.859-2.156-3.723-3.234-5.585-0.636-1.104-0.636-2.527-0.007-3.628 2.148-3.728 4.312-7.448 6.468-11.173ZM3.125 14.149a1.192 1.192 0 0 0 0 1.183c1.074 1.864 2.085 3.628 3.175 5.483a1.188 1.188 0 0 0 1.019 0.585c2.169 0.005 4.219 0.013 6.388 0a1.187 1.187 0 0 0 1.018-0.591c1.075-1.858 2.095-3.611 3.154-5.479a1.188 1.188 0 0 0-0.004-1.176c-2.15-3.73-4.172-7.26-6.352-10.972-0.23-0.388-0.666-0.617-1.118-0.581a1.186 1.186 0 0 0-0.933 0.585 2974.983 2974.983 0 0 0-6.347 10.963Zm8.466 4.064a1.26 1.26 0 0 1-2.182 0L7.245 14.465a1.26 1.26 0 0 1 1.091-1.89h4.328a1.26 1.26 0 0 1 1.091 1.89l-2.164 3.748Z"/></svg>