<svg fill="#000000" role="img" viewBox="0 0 25 24" xmlns="http://www.w3.org/2000/svg"><title>Inkscape</title><path d="M8.108 14.91c0.24 0.149 3.869 0.887 4.756 1.034 0.307 0.065 0.089 0.381-0.334 0.595-0.956 0.254-5.591-1.628-4.422-1.629z m5.723-13.441l3.551 3.608c0.337 0.345 0.332 1.011 0.144 1.203l-1.763-1.411-0.346 2.089-1.475-0.778-2.359 1.49-0.781-3.141L9.534 6.722H7.596c-0.79 0-0.883-1.003-0.166-1.721 1.254-1.353 2.692-2.732 3.475-3.532 0.786-0.804 2.155-0.78 2.926 0zM10.257 0.824l-8.979 9.187c-3.033 3.756 2.065 3.32 4.25 4.401 0.784 0.802-3.005 1.393-2.22 2.195 0.783 0.802 4.74 1.544 5.526 2.345 0.783 0.802-1.605 1.652-0.821 2.452 0.783 0.803 2.597 0.043 2.937 1.893 0.241 1.321 3.267 0.567 4.746-0.515 0.784-0.802-1.5-0.727-0.715-1.528 1.949-1.993 3.765-0.724 4.431-2.722 0.329-0.987-2.87-1.521-2.084-2.323 2.256-1.317 10.051-2.175 6.351-5.873L14.375 0.824c-1.138-1.092-3.038-1.105-4.117 0z m10.312 17.708c0 0.456 3.358 0.755 3.359-0.107-0.478-1.384-2.961-1.291-3.359 0.107z m-15.127 2.422c0.794 0.688 2.024-0.171 2.392-1.131-0.77-1.023-3.655 0.037-2.392 1.131z m14.706-1.486c-1.024 0.92 0.116 1.852 1.126 1.259 0.225-0.228-0.006-1.03-1.125-1.259Z"/></svg>