<svg fill="#4EE3C2" role="img" viewBox="0 0 21 24" xmlns="http://www.w3.org/2000/svg"><title>Instatus</title><path d="M15.493 21.028c3.584-1.91 5.471-5.759 5.057-9.564-1.321 1.085-2.624 2.32-3.871 3.691-2.066 2.269-3.748 4.656-4.996 6.981 1.295-0.097 2.591-0.459 3.81-1.108z m-13.394-2.563c-1.341 1.819-2.377 4.499-1.303 5.307 1.515 1.139 8.404-2.013 13.908-8.805 5.504-6.792 7.327-13.796 4.879-14.873-1.128-0.496-3.486 1.083-4.839 2.394l0.584 0.314c1.332-0.853 3.553-1.734 1.499 1.976-0.01 0.018-0.02 0.035-0.029 0.053-2.907-2.208-6.947-2.662-10.379-0.833-4.703 2.506-6.483 8.35-3.977 13.052 0.59 1.107 1.364 2.052 2.265 2.817-3.559 2.749-2.691 0.36-2.192-0.816z"/></svg>