<svg fill="#FABF15" role="img" viewBox="0 0 19 24" xmlns="http://www.w3.org/2000/svg"><title>Instructables</title><path d="M6.917 0c-0.166-0.003-0.319 0.007-0.449 0.037-0.902 0.201-1.237 1.112-1.621 1.953-0.104 0.226-0.192 0.107-0.558 0.975-1.149-0.137-2.559-0.107-3.406-0.204 0.14 0.484 0.832 0.198 1.295 0.204 0.759 0.006 1.545 0.201 2.111 0.204 0.034 0.21 0.213 0.441 0.25 0.649 0.119 0.692 0.076 1.341-0.112 2.005-0.183 0.649-1.249 1.189-1.499 2.045-0.104 0.353 0.012 0.655-0.138 1.091-0.11 0.137-0.326 0.17-0.475 0.27-1.057 1.191-1.673 3.178-1.974 4.903 0.725 0.338 1.347 0.018 1.703 0.271 0.216 0.061 0.092-0.226 0.271-0.204 0.137 0.021 0.131 0.183 0.271 0.204-0.113 1.027 0.067 1.731 0.067 2.791 1.115 0.481 2.377 0.399 3.955 0.412-0.018 0.204 0.387 0.96 0.058 1.457 0.487 0.497-0.241 2.178 0.759 2.221-0.332 0.487-0.558 1.079-0.546 1.907-0.241 0.107-0.04-0.232-0.204-0.204-1.691-0.043-2.684-0.308-4.494-0.204 0.506 0.207 1.444 0.119 2.179 0.271 0.079 0.012 0.055 0.125 0.067 0.204 0.296-0.14 1.103-0.03 1.633 0-0.238 0.125 0.333 0.247 0.341 0 0.457 0.07 0.829 0.585 1.225 0.68 1.307 0.314 2.045-0.631 2.861-1.223 0.128 0.268 0.755 0.015 1.158 0-0.335-0.198-1.137-0.134-1.499 0 0.122-0.963-0.353-1.329-0.817-1.703 0.189-0.107 0.396-0.195 0.545-0.341 0.018-1.341-0.055-1.795-0.136-2.995 0.725-0.149 1.761-0.244 2.657-0.408-0.317 0.969-0.14 1.444-0.272 2.723 0.168 0.082 0.399 0.101 0.613 0.138-0.67 0.359-1.057 1.895-0.204 2.382-0.076 0.174-0.365 0.134-0.613 0.138 0.009 0.356 0.85-0.122 0.75 0.341 0.457-0.369 3.181-0.039 4.29 0.067-0.119-0.609-1.453-0.119-2.044-0.546 0.765-0.488 0.777-1.962-0.068-2.382 0.646-0.43 0.268-2.197 0.476-3.199 0.619-0.268 1.591-0.18 2.111-0.546-0.015-0.871-0.182-1.587-0.341-2.316 0.216-0.149 0.75-0.335 1.021-0.204 0.149-0.012 0.146-0.174 0.137-0.341 0.061-0.165 0.201 0.153 0.408 0.067 0.009-0.814-0.368-1.225-0.749-1.908-0.573-1.024-1.32-2.03-2.453-2.453-0.954-1.636-1.971-3.205-4.153-3.61-0.122-0.308-0.049-0.814-0.067-1.225 0.302-0.265 0.564-0.573 0.545-1.158 0.829-0.353 2.13 0.085 2.928 0-0.128-0.421-0.866-0.155-1.362-0.204-0.527-0.052-1.048-0.28-1.499 0-0.131-0.387-0.353-1.106-0.591-0.929-0.14-0.338-0.131-0.866-0.092-1.384-0.847-0.174-1.776-0.439-2.723-0.545-0.423-0.048-1.029-0.167-1.526-0.174z m-0.382 0.238c1.545 0.134 3.166 0.192 4.427 0.612 0.216 1.551-0.085 2.98 0.138 4.632-1.648-0.28-3.51-0.619-5.177-0.342 0.079-1.63 0.146-3.434 0.612-4.902zM6.127 0.509c-0.095 1.539-0.396 2.843-0.408 4.631-0.323 0.244-0.673 0.46-1.091 0.613-0.037-0.57 0.021-1.34 0.137-1.77 0.098 0.107 0.265 0.143 0.475 0.137 0.554-0.64 0.28-1.743-0.067-2.52 0.28-0.399 0.491-0.871 0.954-1.091z m2.263 0.79c-0.294-0.004-0.576 0.023-0.831 0.097 0.332 0.006 0.719-0.037 0.954 0.067-0.475 0.207-0.795 0.567-0.75 1.295 0.728 1.012 1.971-0.225 1.225-1.225 0.475-0.034 1.338 0.329 1.974 0.271-0.695-0.194-1.689-0.492-2.572-0.505z m0.356 0.354c0.297 0.041 0.325 0.751 0.242 1.028-0.32 0.387-0.987 0.141-1.091-0.27 0.162-0.085-0.025-0.521 0.271-0.476-0.082 0.515 0.165 0.701 0.546 0.75 0.094-0.131 0.18-0.271 0.204-0.476-0.058-0.235-0.283-0.305-0.408-0.475 0.064-0.046 0.122-0.072 0.172-0.08a0.214 0.214 0 0 1 0.063-0.001z m-3.573 0.422c0.119 0.417 0.213 1.173 0.067 1.77-1.039-0.025-0.722-1.581-0.067-1.77z m3.133 0c0.226 0.003 0.481-0.027 0.475 0.205-0.037 0.098-0.107 0.165-0.205 0.204-0.085-0.14-0.329-0.125-0.27-0.409z m1.692 0.024c-0.276 0.021-0.54 0.247-0.535 0.796 0.241 0.119 0.402 0.323 0.817 0.271 0.668-0.566 0.178-1.102-0.282-1.067z m0.011 0.043c0.299 0.021 0.515 0.119 0.475 0.476-0.219-0.095-0.274-0.357-0.475-0.476z m1.362 0.138c0.393 0.433 0.414 1.718-0.205 1.907-0.024-0.567-0.061-1.441 0.205-1.907z m-1.494 0.069c0.027 0.002 0.05 0.021 0.065 0.067-0.189 0.104-0.009 0.408 0.07 0.479-0.268 0.04-0.302-0.153-0.342-0.342 0.016-0.059 0.127-0.211 0.207-0.204z m0.132 0.135c0.213-0.03 0.304 0.061 0.271 0.271-0.213 0.034-0.301-0.058-0.271-0.271z m-3.407 0.816c-0.079 0.012-0.058 0.125-0.067 0.204 1.527 0.183 2.773 0.649 4.086 0.545-0.213-0.35-0.71-0.174-1.02-0.204-0.945-0.095-1.892-0.454-2.862-0.475-0.079 0.009-0.122-0.015-0.137-0.07z m2.093 1.902c0.932 0.045 2.029 0.469 2.542 0.618 0.14 0.04 0.323-0.043 0.475 0 0.484 0.134 1.197 0.472 1.499 0.683 0.844 0.591 1.426 1.807 1.975 2.791 0.195 0.353 0.515 0.61 0.612 0.886 0.302 0.859 0.35 1.767 0.749 2.52l0.074 0.341c0.216 0.759 0.427 1.819 0.545 2.453-3.029 0.43-5.872 0.75-8.309 1.021-2.023-0.329-4.168-0.173-5.994-0.341-0.302-2.304 0.399-4.595 0.272-6.948 0.012-0.192 0.223-0.186 0.271-0.341-0.174-0.009-0.351-0.012-0.342-0.204 0.198-2.105 2.407-3.967 4.699-3.337 0.238-0.037 0.305-0.116 0.546-0.136a2.844 2.844 0 0 1 0.386-0.006zM7.394 9a1.609 1.609 0 0 0-0.314 0.022c-0.226 0.347-0.155 0.661-0.137 1.158 1.114 1.191 1.869-1.134 0.451-1.18z m5.063 0.017c-1.353 0.032-0.382 2.696 0.684 1.3 0.253-0.807-0.137-1.255-0.545-1.295a1.165 1.165 0 0 0-0.139-0.005z m-2.361 0.03c-0.225-0.011-0.472 0.067-0.703 0.247-0.085 0.417 0.089 0.944 0.342 1.224 0.518 0.043 0.911-0.043 1.157-0.271 0.094-0.727-0.3-1.177-0.796-1.2z m-7.306 0.109c0.359 1.094-0.045 2.523-0.067 3.678-0.567-0.091-1.069-0.246-1.703-0.271 0.329-1.395 0.664-2.788 1.77-3.407z m4.885 0.067a0.264 0.264 0 0 1 0.152 0.071c0.162 0.162-0.012 0.335 0 0.545-0.277 0.067-0.274-0.006-0.612 0 0.049-0.253-0.116-0.292-0.067-0.545 0.194 0.023 0.369-0.088 0.527-0.071z m2.299 0.003c0.598-0.053 0.924 0.804-0.103 0.75-0.076-0.219-0.274-0.317-0.341-0.545 0.154-0.131 0.306-0.192 0.444-0.205z m2.58 0.013c0.269-0.001 0.52 0.163 0.52 0.533-0.234 0.274-0.472 0.557-0.954 0.408-0.03-0.165 0.121-0.15 0.067-0.341-0.134 0.003-0.085 0.186-0.271 0.137-0.086-0.461 0.291-0.736 0.638-0.737z m3.107 0.259c1.042 0.503 1.645 1.444 2.111 2.52-0.497 0.043-0.789-0.118-1.295-0.067-0.103-0.576-0.447-0.911-0.475-1.566 0.18-0.003 0.402 0.036 0.409-0.138-0.049-0.262-0.351-0.469-0.546-0.204-0.009-0.241-0.195-0.304-0.204-0.545zM2.379 9.702c-0.088 0.289-0.061 0.521 0.271 0.545 0.107-0.192-0.018-0.28 0.071-0.545z m5.723 0.204c0.003 0.207-0.143 0.265-0.204 0.408-0.384 0.021-0.713-0.015-0.75-0.341 0.363 0.076 0.674 0.091 0.954-0.067z m2.586 0v0.341c-0.271 0.125-1.209 0.28-0.953-0.204 0.247 0.308 0.767 0.034 0.953-0.137z m2.316 0.204c-0.028 0.387-0.762 0.582-0.954 0.204 0.411 0.11 0.707 0.012 0.954-0.204z m-6.332 1.365c0.128 0.503-0.134 0.634-0.204 1.091 0.926 0.067 1.981-0.021 2.791-0.003 0.043-0.061 0.082-0.122 0-0.137H7.011c2.553-0.527 4.211-0.365 7.014-0.271 0.076 0.213-0.019 0.179 0.067 0.341-1.615 0.326-3.251-0.402-4.833 0.067 1.563-0.052 3.196 0.164 4.903 0.271 0.036-0.347 0.088-0.832 0-1.225-0.247-0.064-0.07 0.293-0.204 0.342-1.865-0.14-4.677-0.125-7.082 0.204-0.094-0.088-0.067-0.296-0.066-0.476 1.46-0.247 4.305 0.253 5.447-0.204-1.7 0.104-3.724-0.012-5.585 0z m6.543 0.064c-0.325-0.011-0.674 0.014-0.89 0.003 0.311 0.302 1.21 0.015 1.633 0.204-0.117-0.151-0.417-0.196-0.742-0.207z m3.896 0.615c0.318 0.002 0.661 0.07 0.799 0.205-0.46-0.159-0.911 0.167-1.295-0.137 0.123-0.046 0.305-0.068 0.496-0.068z m0.151 0.325c0.23-0.003 0.459 0.023 0.578 0.084-0.207 0.143-1.079 0.363-1.159 0 0.12-0.05 0.351-0.081 0.581-0.084z m0.964 0.244c0.244-0.038 0.372 0.35 0.363 0.657-0.253 0.134-0.439-0.308-0.475-0.613 0.04-0.024 0.077-0.039 0.112-0.044z m-17.276 0.044c0.408 0 1.341 0.067 1.703 0.341-0.588-0.095-1.383 0.022-1.703-0.341z m16.89 0.137c0.213 0.268 0.25 0.481 0.271 0.817-0.262-0.055-0.284-0.71-0.271-0.817z m-0.951 0.067h0.271c0.006 0.314 0.171 0.463 0.137 0.817-0.387-0.021-0.332-0.484-0.408-0.817z m0.61 0c0.04 0.213 0.32 0.542 0.136 0.75-0.107-0.146-0.311-0.548-0.137-0.75z m-16.039 0.13c0.43 0.011 0.945 0.115 1.057 0.345-0.545-0.088-1.134-0.134-1.634-0.27 0.091-0.054 0.319-0.081 0.577-0.075z m-0.25 0.344c0.117 0.001 0.21 0.028 0.219 0.142-0.149 0.171-0.076 0.557-0.342 0.612 0-0.113-0.189-0.039-0.204-0.137 0.094-0.177 0.25-0.295 0.204-0.612a1.524 1.524 0 0 1 0.123-0.005z m-0.394 0.005c-0.018 0.253-0.107 0.435-0.271 0.545-0.021-0.292-0.006-0.551 0.271-0.545z m1.225 0.134c0.116 0.137 0.097 0.551-0.067 0.612-0.143-0.076-0.274-0.649 0.067-0.612z m0.408 0.07c0.015 0.125 0.177 0.451 0 0.545-0.021-0.119-0.314-0.524 0-0.545z m14.574 2.041c0.226 0.024 0.106 0.393 0.137 0.613-2.38 0.582-4.564 0.713-7.164 1.099l-1.215-0.008c-1.792 0.131-4.171 0.165-5.856-0.205-0.033-0.241-0.101-0.445-0.068-0.749 2.282-0.168 4.644 0.314 6.948 0.137 2.526-0.195 4.951-0.783 7.218-0.887z m-0.408 0.137c-0.055 0.036-0.11 0.07-0.204 0.067 0.006 0.198 0.024 0.384 0.27 0.341 0.009-0.168 0.013-0.329-0.066-0.408z m-2.657 0.342c-0.015 0.244 0.098 0.356 0.341 0.341 0.052-0.061 0.073-0.152 0.067-0.271-0.079-0.082-0.241-0.079-0.408-0.07zM3.47 16.582c-0.046 0.229 0.116 0.25 0.271 0.271 0.055-0.061 0.076-0.153 0.071-0.271z m6.947 0.067c-0.101 0.213-0.003 0.277 0.137 0.408 0.174-0.006 0.134-0.229 0.134-0.408z m-4.113 0.075c-0.057-0.004-0.119 0.015-0.177 0.062-0.015 0.244 0.097 0.356 0.341 0.341 0.135-0.185 0.007-0.392-0.164-0.403z m8.812 0.196c0.009 0.521-0.082 0.582-0.07 1.158-1.021 0.07-1.472-0.098-2.383-0.137 0.311-0.911 1.551-0.871 2.453-1.021z m-5.582 0.683c0.046 0.247 0.095 0.493 0.067 0.816-0.868 0.028-1.737-0.222-2.52-0.067-0.076-0.213-0.006-0.155 0-0.408 0.603-0.402 1.914-0.229 2.453-0.341z m3.906 0.663c0.138-0.006 0.327 0.028 0.451 0.153h-0.204c-0.569-0.017-0.477-0.142-0.247-0.153z m1.382 0.004c0.133-0.008 0.238 0.011 0.227 0.149-0.076 0.091-0.536-0.006-0.613-0.137 0.095 0.03 0.254-0.004 0.386-0.012z m-6.395 0.215c0.181 0.007 0.337 0.04 0.424 0.138-0.247-0.003-0.536 0.037-0.612-0.137a2.667 2.667 0 0 1 0.188-0.001z m5.294 0.063c0.424-0.002 0.86 0.043 1.261 0.279-0.917-0.204-2.02 0.11-2.453-0.27 0.355 0.044 0.768-0.006 1.192-0.009z m-6.076 0.176c0.679-0.004 1.615 0.097 2.022 0.378-0.972-0.125-1.743 0.021-2.587-0.341 0.14-0.022 0.338-0.035 0.565-0.037z m5.515 0.171c0.691 0.005 1.353 0.044 1.892 0.207-0.116 0.18-0.009 0.585-0.137 0.75-0.637-0.067-1.828 0.128-2.52 0-0.037-0.378 0.036-0.643 0.067-0.954 0.234-0.002 0.468-0.004 0.698-0.003z m-6.012 0.136c0.573 0.104 1.919 0.189 2.519 0.275-0.088 0.494 0.168 0.945 0 1.295-0.597 0.353-1.527 0.378-2.382 0.475-0.146-0.536-0.317-1.411-0.137-2.045z m6.947 1.091c0.954-0.043 1.407 0.765 1.292 1.43-0.207 1.204-2.501 1.486-3.132 0.475 0.009-0.716 0.003-1.45 0.545-1.633 0.064 0.49-0.219 0.591-0.204 0.886 0.058 1.21 2.282 1.377 2.453 0.272 0.131-0.856-0.621-0.899-0.954-1.43z m-0.756 0.241c0.044-0.015 0.095 0.015 0.104 0.06 0.004 0.004 0.009 0.005 0.012 0.011 0.036 0.07 0.043 0.146 0.058 0.222 0.009 0.046-0.022 0.076-0.061 0.088a0.921 0.921 0 0 1-0.204 0.034c-0.061 0.003-0.119-0.061-0.076-0.119 0.055-0.076 0.088-0.161 0.125-0.253a0.072 0.072 0 0 1 0.042-0.043z m1.03 0.305c0.265 0.006 0.552 0.454 0.475 1.021-0.277 0.487-1.554 0.527-1.566 0.341 0.795 0.091 1.036-0.371 1.362-0.75 0.021-0.274-0.442-0.417-0.271-0.612z m-0.364 0.165c0.185-0.006 0.367 0.25 0.431 0.447-0.311 0.21-0.5 0.545-0.954 0.613-0.171-0.168-0.448-0.234-0.408-0.613 0.469-0.04 0.418-0.158 0.75 0.068 0.149-0.143-0.034-0.195 0-0.409 0.058-0.072 0.12-0.104 0.181-0.106z m-5.291 0.31c0.887 0.025 1.176 0.64 1.292 1.429 0.03 0.189-0.253 0.064-0.271 0.204 0.079 0.034 0.155 0.073 0.204 0.137-0.46 0.893-3.169 1.45-2.724-0.408 0.07 1.176 1.779 0.951 2.248 0.272 0.226-0.957-0.438-1.039-0.749-1.633z m-0.475 0.546c0.088 0.091 0.255 0.102 0.275 0.262a0.313 0.313 0 0 1-0.001 0.079c-0.131 0.128-0.171 0.006-0.342 0 0.037-0.101-0.079-0.353 0.068-0.341z m0.545 0c1.402 0.551-0.158 2.05-1.225 1.227-0.094-0.265-0.31-0.966 0.067-1.09 0.119 0.198 0.161 0.476 0.137 0.817 0.299 0.472 1.384 0.305 1.43-0.272-0.28-0.076-0.132-0.478-0.409-0.682z m0.067 0.475c0.095 0.088 0.067 0.296 0.07 0.479-0.332 0.043-0.71 0.237-0.887-0.138 0.417 0.03 0.49-0.28 0.817-0.341z m8.503 0.532c-0.069-0.005-0.178 0.015-0.331 0.084 0.393 0.171 0.539-0.068 0.331-0.084Z"/></svg>