<svg fill="#E2001A" role="img" viewBox="0 0 130 24" xmlns="http://www.w3.org/2000/svg"><title>Intermarche</title><path d="M53.961 17.646l3.642 6.349h68.767l0.807-6.349z m10.55-13.751a17.264 17.264 0 0 0-3.734 0.382 9.254 9.254 0 0 0-2.889-0.377 14.521 14.521 0 0 0-5.417 0.904l-1.157 8.232 1.705 2.969h2.066l1.367-9.866a3.486 3.486 0 0 1 1.076-0.162c0.915 0 1.232 0.463 1.237 1.033l-1.259 8.995h4.207l1.157-8.204a5.38 5.38 0 0 0 0.043-0.5l0.162-1.152a3.475 3.475 0 0 1 1.081-0.156c1.06 0 1.323 0.619 1.221 1.345l-1.183 8.651h4.185l1.157-8.199c0.334-2.378-0.995-3.874-5.004-3.873M48.215 11.352a3.9 3.9 0 0 0 2.356-3.191l0.065-0.419h-0.021c0.334-2.378-0.995-3.874-5.004-3.874a14.521 14.521 0 0 0-5.417 0.915v0.016L38.639 15.984h4.185l0.56-3.981h1.076l7.887 10.76c0.522 0.699 1.178 1.237 2.017 1.237h1.119l-7.289-12.654z m-1.722-4.062l-0.053 0.452-0.135 0.887a1.453 1.453 0 0 1-1.614 1.329h-1.022l0.054-0.419 0.484-3.433a3.443 3.443 0 0 1 1.087-0.161c1.06 0 1.329 0.613 1.221 1.345z m-20.659 8.086c0.075-0.549-0.124-0.936-0.78-0.936h-0.484c-1.06 0-1.329-0.613-1.226-1.345l0.887-6.338v-0.08l0.054-0.42h1.13a0.312 0.312 0 0 1 0.107 0c0.608 0 1.114-0.619 1.243-1.555H24.489l0.657-4.686c-3.002 0.328-4.385 1.722-4.686 3.793l-0.355 2.335-0.032 0.226-0.022 0.161-0.753 5.595c-0.328 2.324 0.915 3.804 4.713 3.874h1.732l0.086-0.613m7.618-11.513a14.521 14.521 0 0 0-5.418 0.914l-0.64 4.552-0.366 2.738c-0.323 2.313 0.941 3.793 4.719 3.863h4.589l0.08-0.549c0.081-0.554-0.113-1.001-0.769-1.001H32.29c-1.06 0-1.323-0.613-1.221-1.345l0.135-1h1.312c3.841-0.054 5.541-1.523 5.875-3.836l0.065-0.425h-0.022c0.323-2.367-1.006-3.868-5.008-3.868z m0.893 3.454l-0.059 0.457-0.145 0.834a1.453 1.453 0 0 1-1.614 1.329h-1.028l0.054-0.42 0.484-3.433a3.454 3.454 0 0 1 1.087-0.156c1.054 0 1.318 0.619 1.216 1.345z m90.19-3.454a14.504 14.504 0 0 0-5.407 0.914l-0.646 4.552-0.365 2.738c-0.323 2.313 0.941 3.793 4.712 3.863h4.595l0.081-0.554c0.081-0.554-0.118-0.995-0.775-0.996h-3.363c-1.054 0-1.323-0.613-1.216-1.345l0.135-1h1.313c3.836-0.054 5.541-1.523 5.875-3.836l0.064-0.425h-0.021c0.328-2.367-1.001-3.868-5.004-3.868z m0.877 3.454l-0.054 0.457-0.135 0.882a1.458 1.458 0 0 1-1.614 1.329h-1.027l0.054-0.414 0.484-3.438a3.459 3.459 0 0 1 1.087-0.151c1.054-0.054 1.323 0.565 1.215 1.291z m-48.554-3.401h-3.578c-0.624 0-1.119 0.619-1.254 1.561h4.272c1.06 0 1.323 0.651 1.221 1.361l-0.183 1.329h-1.388c-3.782 0.07-5.471 1.528-5.799 3.835l-0.065 0.42h0.038c-0.323 2.367 1.006 3.868 5.019 3.868 1.84 0.043 3.68-0.269 5.407-0.914l0.646-4.557 0.403-3.034c0.323-2.313-0.941-3.836-4.713-3.906z m0.129 6.698l-0.484 3.47a3.454 3.454 0 0 1-1.082 0.162c-1.054 0-1.318-0.619-1.221-1.345l0.054-0.457 0.14-0.888a1.453 1.453 0 0 1 1.603-1.334h1.033l-0.054 0.414z m17-2.453l0.065-0.425h0.027c0.323-2.367-1.006-3.863-5.004-3.863a14.515 14.515 0 0 0-5.417 0.915v0.016l-1.576 11.19h4.185l0.56-3.981h1.065l2.351 3.976h4.186l-2.76-4.638a3.9 3.9 0 0 0 2.356-3.19z m-4.018-0.888l-0.054 0.458-0.21 0.877a1.453 1.453 0 0 1-1.614 1.329h-1.022l0.054-0.42 0.484-3.433a3.443 3.443 0 0 1 1.081-0.156c1.081 0.005 1.345 0.619 1.248 1.345z m14.009 7.156l0.097-0.71a17.646 17.646 0 0 1-3.481 0.392h-0.323c-1.054 0-1.318-0.619-1.221-1.366l0.35-2.577 0.096-0.732 0.377-2.566a1.453 1.453 0 0 1 1.593-1.367h0.322c1.13-0.011 2.26 0.108 3.357 0.361l0.097-0.737c0.086-0.613 0.145-1.114-0.683-1.27a17.566 17.566 0 0 0-2.889-0.199c-4.003 0-5.757 1.49-6.079 3.863l-0.63 4.492c-0.323 2.367 1.011 3.868 5.014 3.868 1.044 0 2.087-0.081 3.121-0.258 0.457-0.108 0.753-0.312 0.887-1.27m7.995-10.469c-0.387 0-0.769 0.011-1.13 0.032l0.538-3.927c-3.002 0.328-4.385 1.722-4.68 3.798l-0.382 2.728-1.329 9.469h4.185l1.367-9.867a3.475 3.475 0 0 1 1.076-0.156c1.06 0 1.323 0.613 1.221 1.345l-1.221 8.678h4.186l1.162-8.199c0.334-2.378-1.001-3.874-5.015-3.874M5.095 9.361l0.037-0.296 1.308-9.06h-4.197l-1.452 9.916v0.037l-0.302 2.281c-0.291 2.071 0.689 3.475 3.605 3.799l0.968-6.666m122.507-8.231h-5.756l-0.226 1.56h4.724c0.619 0 1.119-0.624 1.253-1.56M12.675 15.984l1.221-8.678c0.102-0.726-0.161-1.345-1.221-1.345a3.443 3.443 0 0 0-1.076 0.161l-1.366 9.862h-4.197l1.577-11.185a14.472 14.472 0 0 1 5.412-0.915c4.008 0 5.337 1.506 5.003 3.874l-1.151 8.204h-4.186"/></svg>