<svg fill="#E62431" role="img" viewBox="0 0 25 24" xmlns="http://www.w3.org/2000/svg"><title>Interbase</title><path d="M10.189 8.829c0 0.13-0.115 0.246-0.246 0.249-0.131 0.003-0.246-0.11-0.249-0.243-0.003-0.138 0.1-0.248 0.237-0.252 0.14-0.004 0.258 0.108 0.258 0.246z m14.296 3.679c-0.025 0.409-0.06 0.819-0.112 1.225-0.074 0.568-0.202 1.125-0.365 1.675a11.847 11.847 0 0 1-0.892 2.194 11.979 11.979 0 0 1-2.411 3.159c-0.917 0.859-1.943 1.56-3.078 2.097-0.987 0.467-2.018 0.794-3.096 0.975-0.511 0.086-1.025 0.142-1.543 0.163-0.05 0.002-0.856 0.005-0.868 0.004a12.046 12.046 0 0 1-1.452-0.133 11.763 11.763 0 0 1-1.795-0.418 11.93 11.93 0 0 1-2.283-0.996 11.984 11.984 0 0 1-2.913-2.312c-0.891-0.966-1.606-2.05-2.142-3.25-0.505-1.13-0.824-2.311-0.962-3.541a11.918 11.918 0 0 1-0.073-1.527c0.007-0.432 0.036-0.863 0.087-1.291 0.066-0.537 0.168-1.068 0.306-1.592 0.237-0.899 0.574-1.759 1.011-2.579 0.544-1.021 1.224-1.943 2.033-2.769a11.901 11.901 0 0 1 1.153-1.031C6.132 1.743 7.277 1.114 8.526 0.675 9.008 0.505 9.497 0.362 9.997 0.264c0.381-0.074 0.765-0.136 1.151-0.182 0.343-0.041 0.688-0.061 1.033-0.077 0.236-0.011 0.473-0.001 0.709 0.004 0.467 0.01 0.932 0.056 1.394 0.124 0.502 0.075 0.998 0.182 1.488 0.32 0.815 0.231 1.596 0.544 2.343 0.941a11.995 11.995 0 0 1 3.017 2.274 11.999 11.999 0 0 1 1.362 1.692A11.927 11.927 0 0 1 23.963 8.449c0.224 0.722 0.377 1.459 0.461 2.21 0.068 0.614 0.1 1.231 0.061 1.849zM13.714 8.662c0.051 0.087 0.129 0.135 0.266 0.136 0.028-0.013 0.089-0.031 0.14-0.064 0.819-0.531 1.653-1.036 2.514-1.495 0.069-0.037 0.118-0.088 0.15-0.159 0.192-0.433 0.384-0.866 0.577-1.3 0.05-0.114 0.048-0.223-0.041-0.316-0.089-0.093-0.199-0.108-0.314-0.058-0.157 0.069-0.317 0.137-0.465 0.223-0.369 0.212-0.693 0.484-1.006 0.77-0.648 0.595-1.225 1.256-1.779 1.938a0.44 0.44 0 0 0-0.041 0.057c-0.051 0.089-0.052 0.18-0.001 0.268z m8.194-2.644c-0.046-0.01-0.093-0.013-0.14-0.015-0.358-0.019-0.712 0.016-1.064 0.08-0.682 0.125-1.333 0.348-1.973 0.61-1.028 0.422-2.006 0.943-2.962 1.507-1.081 0.638-2.129 1.326-3.14 2.07-0.207 0.152-0.437 0.082-0.487-0.157-0.02-0.095-0.058-0.187-0.089-0.28-0.348-1.043-1.336-1.685-2.382-1.64-0.351 0.015-0.69 0.1-1.018 0.222-0.092 0.035-0.181 0.039-0.275 0.018-0.164-0.038-0.329-0.07-0.495-0.104l-4.449-0.937c-0.268-0.057-0.537-0.114-0.806-0.168-0.036-0.007-0.083-0.041-0.116 0.021 0.033 0.053 0.093 0.053 0.143 0.067 1.855 0.551 3.71 1.1 5.565 1.65 0.075 0.022 0.151 0.045 0.221 0.08 0.537 0.275 0.867 0.709 0.978 1.303 0.021 0.115 0.026 0.234 0.027 0.351 0.006 0.494-0.013 0.989 0.016 1.481 0.056 0.961 0.45 1.775 1.138 2.447 0.572 0.559 1.157 1.105 1.72 1.672 0.769 0.774 1.192 1.717 1.302 2.8 0.011 0.113 0.052 0.198 0.131 0.278 0.629 0.624 1.254 1.251 1.881 1.877 0.022 0.022 0.044 0.045 0.068 0.065 0.085 0.067 0.179 0.08 0.276 0.035 0.101-0.047 0.156-0.129 0.159-0.242 0.001-0.023-0.003-0.047-0.006-0.07-0.074-0.66-0.204-1.308-0.386-1.946-0.262-0.92-0.7-1.744-1.348-2.45-0.302-0.329-0.628-0.636-0.943-0.952-0.042-0.042-0.085-0.081-0.125-0.124-0.115-0.124-0.113-0.265 0.002-0.388 0.027-0.029 0.055-0.056 0.083-0.083l8.552-8.546c0.03-0.03 0.062-0.06 0.09-0.093 0.136-0.164 0.059-0.394-0.148-0.439z"/></svg>