<svg fill="#0071C5" role="img" viewBox="0 0 62 24" xmlns="http://www.w3.org/2000/svg"><title>Intel</title><path d="M52.703 0v23.662h4.256v-23.662zM0.069 0.335v4.477h4.477V0.333z m25.209 0.907v15.603c0 1.322 0.113 2.436 0.335 3.33 0.224 0.876 0.606 1.593 1.134 2.134 0.523 0.541 1.224 0.925 2.07 1.163 0.861 0.24 1.944 0.351 3.235 0.35h0.556v-3.951c-0.619 0-1.147-0.031-1.528-0.096a1.732 1.732 0 0 1-1.005-0.446 1.786 1.786 0 0 1-0.446-0.971 10.316 10.316 0 0 1-0.096-1.562v-5.625h3.075v-3.65h-3.075V1.242z m-9.035 5.96c-1.021 0-1.959 0.206-2.789 0.621-0.843 0.415-1.547 0.99-2.118 1.722l-0.225 0.301v-2.325H6.92v16.126h4.225v-8.285c0.046-1.516 0.412-2.629 1.116-3.348 0.748-0.766 1.655-1.147 2.691-1.147 1.227 0 2.168 0.384 2.789 1.116 0.606 0.732 0.925 1.768 0.925 3.093v8.568h4.287V14.499c0.015-2.294-0.59-4.111-1.768-5.387-1.181-1.276-2.835-1.913-4.942-1.913z m25.944 0.015a8.382 8.382 0 0 0-5.944 2.439c-0.748 0.748-1.353 1.642-1.784 2.662a8.107 8.107 0 0 0-0.655 3.282c0 1.165 0.206 2.263 0.622 3.283 0.415 1.018 1.005 1.913 1.737 2.661 0.732 0.748 1.642 1.356 2.694 1.786 1.052 0.446 2.217 0.67 3.459 0.67 3.601 0 5.831-1.642 7.171-3.17l-3.06-2.331c-0.639 0.766-2.168 1.802-4.08 1.802-1.196 0-2.183-0.271-2.934-0.827a4.093 4.093 0 0 1-1.528-2.248l-0.049-0.144h12.669v-1.513c0-1.162-0.206-2.248-0.606-3.266a8.746 8.746 0 0 0-1.704-2.663 7.766 7.766 0 0 0-2.629-1.783 8.622 8.622 0 0 0-3.379-0.64z m-42.007 0.304v16.126h4.255v-16.126z m41.958 3.315c2.918 0 4.289 2.054 4.289 3.235l-8.558 0.016c0-1.181 1.353-3.235 4.269-3.251z m18.231 9.831a1.562 1.562 0 0 0-1.562 1.562 1.562 1.562 0 0 0 1.562 1.562 1.562 1.562 0 0 0 1.562-1.562 1.562 1.562 0 0 0-1.562-1.562z m-0.02 0.271a1.289 1.289 0 0 1 0.005 0 1.289 1.289 0 0 1 1.288 1.291 1.289 1.289 0 0 1-1.288 1.289 1.289 1.289 0 0 1-1.289-1.289 1.289 1.289 0 0 1 1.284-1.289z m-0.601 0.399v1.802h0.335v-0.735h0.24l0.446 0.735h0.35l-0.464-0.765a0.492 0.492 0 0 0 0.304-0.145c0.077-0.077 0.129-0.191 0.129-0.35 0-0.175-0.052-0.302-0.162-0.397-0.095-0.098-0.271-0.144-0.477-0.145z m0.335 0.256h0.397c0.049 0 0.095 0.015 0.144 0.03a0.165 0.165 0 0 1 0.096 0.08c0.034 0.034 0.031 0.08 0.031 0.145a0.32 0.32 0 0 1-0.031 0.141 0.423 0.423 0 0 1-0.096 0.08c-0.049 0.015-0.095 0.034-0.144 0.034h-0.397Z"/></svg>