<svg fill="#3B00B9" role="img" viewBox="0 0 50 24" xmlns="http://www.w3.org/2000/svg"><title>Internet Computer</title><path d="M38.05 0c-5.25 0-11.2 6.3-13.05 8.3-1.5-1.65-7.7-8.3-13.05-8.3C5.35 0 0 5.4 0 12c0 6.6 5.35 12 11.95 12 5.25 0 11.2-6.3 13.05-8.3 1.5 1.65 7.7 8.3 13.05 8.3C44.65 24 50 18.6 50 12c0-6.6-5.35-12-11.95-12ZM11.95 19.05A7.042 7.042 0 0 1 4.9 12a7.073 7.073 0 0 1 7.05-7.05c2.45 0 6.75 3.75 9.75 7.05-0.85 0.95-6.55 7.05-9.75 7.05z m26.1 0c-2.45 0-6.75-3.75-9.75-7.05 0.85-0.95 6.6-7.05 9.75-7.05A7.042 7.042 0 0 1 45.1 12c-0.05 3.9-3.2 7.05-7.05 7.05z"/></svg>