<svg fill="#161A36" role="img" viewBox="0 0 28 24" xmlns="http://www.w3.org/2000/svg"><title>Intigriti</title><path d="M23.005 5.214c-1.258 0.653-4.282 2.189-6.714 3.423-4.294 2.177-7.996 4.089-8.093 4.173-0.036 0.024 0.012 0.46 0.097 0.98 0.653 3.883 2.444 7.343 4.912 9.508l0.786 0.702 0.786-0.677c2.093-1.839 3.786-4.802 4.609-8.033 0.169-0.641 0.315-1.488 0.327-1.875l0.024-0.701-3.363-1.742-0.835 0.423c-0.448 0.23-0.823 0.448-0.822 0.484 0 0.036 0.762 0.448 1.693 0.907l1.694 0.835-0.073 0.435c-0.448 2.468-1.839 5.407-3.327 7.041l-0.689 0.762-0.508-0.484c-1.052-1.016-2.202-2.976-2.867-4.899-0.375-1.076-0.823-2.77-0.75-2.831 0.024-0.024 3.46-1.754 7.633-3.859l7.573-3.834 0.242 0.399c0.762 1.234 0.823 2.891 0.157 4.246-0.738 1.5-1.996 2.262-3.835 2.347l-1.113 0.048-0.072 0.363c-0.036 0.206-0.073 0.544-0.073 0.774 0 0.363 0.036 0.411 0.436 0.484 0.653 0.121 2.008-0.036 2.794-0.327 1.911-0.714 3.242-2.177 3.835-4.246 0.508-1.778-0.036-3.895-1.44-5.516-0.242-0.278-0.508-0.508-0.581-0.508-0.085 0.012-1.173 0.544-2.443 1.198zM1.908 4.585C0.553 6.169 0.045 8.153 0.517 9.992c0.532 2.056 1.887 3.569 3.835 4.294 0.786 0.29 2.141 0.448 2.794 0.327 0.472-0.097 0.52-0.23 0.363-1.173l-0.073-0.448-1.113-0.048c-1.851-0.085-3.097-0.847-3.846-2.371-0.653-1.306-0.605-2.891 0.096-4.113l0.303-0.52 4.379 2.225 4.391 2.226 0.81-0.399c0.448-0.23 0.81-0.46 0.811-0.508 0-0.073-10.633-5.468-10.79-5.468-0.048 0-0.302 0.254-0.569 0.569z m7.186-4.113l-0.303 0.459 0.266 0.073c0.786 0.206 1.923 1.089 2.395 1.863l0.242 0.387-0.677 1.004c-0.677 1.016-1.379 2.31-1.379 2.54 0 0.109 1.089 0.726 1.294 0.726 0.048 0 0.327-0.46 0.605-1.004 0.605-1.185 1.089-1.887 1.887-2.734l0.569-0.605 0.508 0.545c0.798 0.859 1.379 1.694 1.923 2.758 0.278 0.532 0.532 1.004 0.557 1.04 0.073 0.085 1.367-0.617 1.367-0.75 0-0.218-0.738-1.56-1.391-2.516l-0.678-0.992 0.254-0.399c0.375-0.605 1.367-1.452 1.996-1.706 0.302-0.133 0.544-0.29 0.544-0.351 0-0.073-0.121-0.278-0.278-0.471l-0.278-0.339-0.593 0.278c-0.351 0.169-0.992 0.665-1.524 1.198l-0.919 0.919-0.75-0.689-0.738-0.702-0.738 0.702-0.75 0.701-0.859-0.871C10.956 0.835 9.783 0.024 9.469 0.024c-0.036 0-0.206 0.206-0.375 0.448z"/></svg>