<svg fill="#236CFF" role="img" viewBox="0 0 120 24" xmlns="http://www.w3.org/2000/svg"><title>Intuit</title><path d="M61.592 13.888c0 5.84 4.845 10.112 10.997 10.112 6.153 0 11.003-4.273 11.003-10.112v-13.43h-5.959v12.733c0 3.149-2.189 5.273-5.058 5.273s-5.059-2.109-5.059-5.273V0.458h-5.959l0.04 13.425z m37.922-8.053h7.108v17.722h5.959V5.83H119.689V0.458h-20.175v5.382zM95.664 0.458h-5.959v23.104h5.959V0.453zM37.527 5.835h7.113v17.722h5.954V5.83h7.103V0.458H37.527v5.382zM6.27 0.458H0.311v23.104h5.959V0.453z m28.118 9.649c0-5.84-4.845-10.107-11.002-10.107-6.158 0-11.003 4.268-11.003 10.107v13.455h5.959v-12.733c0-3.149 2.189-5.273 5.059-5.273s5.064 2.114 5.063 5.273v12.733h5.954L34.383 10.107h0.005z"/></svg>