<svg fill="#003D8F" role="img" viewBox="0 0 83 24" xmlns="http://www.w3.org/2000/svg"><title>Ionos</title><path d="M76.42 24a6.048 6.048 0 0 1-1.213-0.123 6.283 6.283 0 0 1-4.145-2.96l-0.023-0.041c-0.449-0.897-0.154-1.952 0.686-2.457a1.796 1.796 0 0 1 0.923-0.254 1.827 1.827 0 0 1 1.588 0.932 1.914 1.914 0 0 0 0.062 0.103l0.193 0.263 0.26 0.262a2.533 2.533 0 0 0 1.184 0.573 2.605 2.605 0 0 0 2.042-0.467 2.471 2.471 0 0 0 1.026-1.847 2.552 2.552 0 0 0-0.71-1.982s-5.485-5.697-5.732-5.961a6.723 6.723 0 0 1-0.661-0.786c-0.774-1.097-1.016-2.39-0.897-3.67a5.954 5.954 0 0 1 0.773-2.537s0.251-0.425 0.325-0.533c0.29-0.424 0.863-0.972 1.254-1.278a6.452 6.452 0 0 1 1.053-0.632 6 6 0 0 1 7.824 2.415 1.779 1.779 0 0 1 0.19 1.378 1.817 1.817 0 0 1-0.867 1.12 1.743 1.743 0 0 1-0.889 0.241 1.812 1.812 0 0 1-1.578-0.928 2.385 2.385 0 0 0-1.597-1.128 2.473 2.473 0 0 0-1.935 0.435 2.36 2.36 0 0 0-0.916 1.708 2.4 2.4 0 0 0 0.653 1.851l5.608 5.783a6.271 6.271 0 0 1 1.739 4.778c-0.159 1.798-1.053 3.427-2.453 4.477a6.319 6.319 0 0 1-3.767 1.265m-17.748-0.002a6.039 6.039 0 0 0 6.031-6.032v-11.931a6.032 6.032 0 0 0-12.063 0v11.93a6.039 6.039 0 0 0 6.032 6.033m0-20.352c1.295 0 2.39 1.094 2.39 2.389v11.93a2.393 2.393 0 0 1-2.39 2.39 2.364 2.364 0 0 1-2.39-2.39v-11.93a2.392 2.392 0 0 1 2.391-2.389m-27.089 1.106v17.423a1.821 1.821 0 0 0 3.642 0V12.309Zm9.878 6.946V1.824a1.821 1.821 0 0 1 3.642 0v17.432z m3.611 10.085v0.389a1.828 1.828 0 0 1-3.452 0.826L31.607 2.24v-0.416a1.804 1.804 0 0 1 1.039-1.637 1.802 1.802 0 0 1 2.43 0.849Zm-27.116 2.215a6.039 6.039 0 0 0 6.031-6.033v-11.93a6.032 6.032 0 0 0-12.063 0v11.93a6.039 6.039 0 0 0 6.032 6.033m0-20.352a2.425 2.425 0 0 1 2.39 2.389v11.93a2.39 2.39 0 1 1-4.78 0v-11.93a2.392 2.392 0 0 1 2.39-2.389M0.346 21.984a1.986 1.986 0 1 0 3.972 0V1.987a1.986 1.986 0 0 0-3.973 0z"/></svg>