<svg fill="#000000" role="img" viewBox="0 0 49 24" xmlns="http://www.w3.org/2000/svg"><title>iOS</title><path d="M2.517 0C1.278 0 0.298 0.968 0.298 2.178A2.178 2.178 0 0 0 2.517 4.356C3.767 4.356 4.755 3.388 4.755 2.178 4.755 0.968 3.767 0 2.517 0M17.865 0.04C11.088 0.04 6.853 4.659 6.853 12 6.853 19.402 11.088 24 17.865 24 24.601 24 28.856 19.402 28.856 12 28.856 4.659 24.601 0.04 17.865 0.04M39.727 0.04C34.685 0.04 31.095 2.824 31.095 6.958 31.095 10.245 33.132 12.303 37.408 13.291L40.413 14.017C43.337 14.682 44.527 15.65 44.527 17.324 44.527 19.261 42.571 20.632 39.787 20.632 36.944 20.632 34.806 19.24 34.584 17.103H30.55C30.712 21.378 34.221 24 39.545 24 45.172 24 48.702 21.237 48.702 16.84 48.702 13.392 46.685 11.435 42.006 10.366L39.324 9.761C36.48 9.076 35.31 8.168 35.31 6.635 35.31 4.699 37.085 3.408 39.707 3.408 42.349 3.408 44.164 4.719 44.366 6.877H48.318C48.218 2.803 44.85 0.04 39.727 0.04M17.865 3.57C21.979 3.57 24.621 6.857 24.621 12 24.621 17.183 21.979 20.471 17.865 20.471 13.71 20.471 11.088 17.183 11.088 12 11.088 6.857 13.71 3.57 17.865 3.57M0.522 6.575V23.617H4.534V6.575H0.52Z"/></svg>