<svg fill="#131F37" role="img" viewBox="0 0 26 24" xmlns="http://www.w3.org/2000/svg"><title>IOTA</title><path d="M7.206 19.118a0.771 0.771 0 1 0-0.774-0.771 0.772 0.772 0 0 0 0.774 0.771z m9.583 2.314a1.208 1.208 0 1 0-1.21-1.208 1.209 1.209 0 0 0 1.21 1.208z m-4.585 0.409a1.028 1.028 0 1 0-1.031-1.028 1.029 1.029 0 0 0 1.031 1.028z m2.602 2.159a1.208 1.208 0 1 0-1.211-1.208 1.209 1.209 0 0 0 1.211 1.208z m-4.741-0.411a1.028 1.028 0 1 0-1.03-1.028 1.029 1.029 0 0 0 1.03 1.028z m-1.777-2.262a0.9 0.9 0 1 0-0.902-0.897 0.901 0.901 0 0 0 0.902 0.897z m2.137-1.747a0.9 0.9 0 1 0-0.9-0.903 0.901 0.901 0 0 0 0.9 0.903z m3.788-0.308a1.028 1.028 0 1 0-1.031-1.028 1.029 1.029 0 0 0 1.031 1.028z m-1.803-2.236a0.9 0.9 0 1 0-0.901-0.899 0.901 0.901 0 0 0 0.9 0.899z m-3.066 0.334a0.771 0.771 0 1 0-0.773-0.771 0.772 0.772 0 0 0 0.773 0.771z m-2.628-0.334a0.643 0.643 0 1 0-0.644-0.642 0.644 0.644 0 0 0 0.644 0.642z m-0.026-1.773a0.565 0.565 0 1 0-0.566-0.565 0.566 0.566 0 0 0 0.566 0.565z m2.19 0.026a0.643 0.643 0 1 0-0.643-0.643 0.644 0.644 0 0 0 0.643 0.643z m2.473-0.488a0.771 0.771 0 1 0-0.772-0.771 0.773 0.773 0 0 0 0.772 0.771z m-0.489-2.056a0.643 0.643 0 1 0-0.644-0.642 0.644 0.644 0 0 0 0.644 0.642z m-2.035 0.771a0.565 0.565 0 1 0-0.568-0.565 0.566 0.566 0 0 0 0.568 0.565z m-1.855 0.231a0.462 0.462 0 1 0-0.464-0.463 0.464 0.464 0 0 0 0.464 0.463z m2.551-6.834a0.9 0.9 0 1 0-0.902-0.9 0.901 0.901 0 0 0 0.902 0.9z m2.344-0.027a0.771 0.771 0 1 0-0.773-0.77 0.772 0.772 0 0 0 0.773 0.77z m-0.439-2.723a0.771 0.771 0 1 0-0.773-0.771 0.773 0.773 0 0 0 0.773 0.771z m-2.343-0.001a0.9 0.9 0 1 0-0.903-0.899 0.901 0.901 0 0 0 0.903 0.899z m-2.731 0.617a1.028 1.028 0 1 0-1.033-1.027 1.028 1.028 0 0 0 1.033 1.027z m0.437 2.725a1.028 1.028 0 1 0-1.03-1.029 1.03 1.03 0 0 0 1.03 1.029zM3.806 8.967a1.208 1.208 0 1 0-1.212-1.207 1.209 1.209 0 0 0 1.212 1.207z m-1.882 5.473A1.439 1.439 0 1 0 0.482 13.002a1.441 1.441 0 0 0 1.442 1.439z m3.092-2.466a1.208 1.208 0 1 0-1.21-1.208 1.209 1.209 0 0 0 1.21 1.208z m2.989-1.464a1.028 1.028 0 1 0-1.031-1.028 1.029 1.029 0 0 0 1.031 1.028z m2.73-0.618a0.9 0.9 0 1 0-0.905-0.897 0.9 0.9 0 0 0 0.905 0.897z m2.345 0.001a0.771 0.771 0 1 0-0.773-0.771 0.772 0.772 0 0 0 0.773 0.771z m0.721-2.596a0.643 0.643 0 1 0-0.645-0.642 0.644 0.644 0 0 0 0.645 0.642z m-0.438-2.726a0.643 0.643 0 1 0-0.645-0.642 0.644 0.644 0 0 0 0.645 0.642z m7.471 11.976a0.643 0.643 0 1 0-0.645-0.642 0.643 0.643 0 0 0 0.645 0.642zM14.831 5.323a0.566 0.566 0 1 0-0.567-0.565 0.565 0.565 0 0 0 0.567 0.565z m1.082 0.869a0.462 0.462 0 1 0-0.464-0.462 0.463 0.463 0 0 0 0.464 0.462z m-0.618 1.851a0.566 0.566 0 1 0-0.567-0.565 0.566 0.566 0 0 0 0.567 0.565z m-0.283 2.261a0.643 0.643 0 1 0-0.645-0.643 0.644 0.644 0 0 0 0.645 0.643z m0.026 4.831a0.643 0.643 0 1 0-0.645-0.643 0.644 0.644 0 0 0 0.645 0.643z m1.751 1.233a0.565 0.565 0 1 0-0.567-0.565 0.566 0.566 0 0 0 0.567 0.565z m1.21 1.336a0.462 0.462 0 1 0-0.463-0.462 0.463 0.463 0 0 0 0.463 0.462z m1.366-0.362a0.565 0.565 0 1 0-0.567-0.565 0.565 0.565 0 0 0 0.567 0.565z m-1.105-1.77a0.643 0.643 0 1 0-0.644-0.642 0.643 0.643 0 0 0 0.644 0.642z m-1.781-1.722a0.771 0.771 0 1 0-0.772-0.772 0.772 0.772 0 0 0 0.772 0.772z m5.797 1.439a0.771 0.771 0 1 0-0.773-0.771 0.773 0.773 0 0 0 0.773 0.771z m-2.602-0.976a0.771 0.771 0 1 0-0.773-0.771 0.772 0.772 0 0 0 0.773 0.771z m3.89-0.874a0.9 0.9 0 1 0-0.902-0.899 0.901 0.901 0 0 0 0.902 0.899zM17.742 12a0.9 0.9 0 1 0-0.9-0.9 0.901 0.901 0 0 0 0.9 0.9z m3.22 0.437a0.9 0.9 0 1 0-0.901-0.899 0.901 0.901 0 0 0 0.901 0.899z m3.529-1.465a1.028 1.028 0 1 0-1.03-1.028 1.03 1.03 0 0 0 1.03 1.028z m-2.576-1.002a1.028 1.028 0 1 0-1.03-1.027 1.029 1.029 0 0 0 1.03 1.027z m-3.22-0.437a1.028 1.028 0 1 0-1.03-1.028 1.03 1.03 0 0 0 1.03 1.028z m3.633-2.595a1.208 1.208 0 1 0-1.21-1.208 1.209 1.209 0 0 0 1.21 1.208z m-3.22-0.463a1.208 1.208 0 1 0-1.212-1.208 1.209 1.209 0 0 0 1.212 1.208z m1.21 16.728a1.439 1.439 0 1 0-1.442-1.437 1.441 1.441 0 0 0 1.442 1.437z m-1.623-20.325a1.439 1.439 0 1 0-1.443-1.439 1.441 1.441 0 0 0 1.443 1.439z"/></svg>