<svg fill="#65C2CB" role="img" viewBox="0 0 21 24" xmlns="http://www.w3.org/2000/svg"><title>IPFS</title><path d="M10.5 0L0.108 6v12L10.5 24l10.392-6V6z m-1.073 1.445h0.001a1.8 1.8 0 0 0 2.138 0l7.534 4.35a1.794 1.794 0 0 0 0 0.403l-7.535 4.35a1.8 1.8 0 0 0-2.137 0l-7.536-4.35a1.795 1.795 0 0 0 0-0.402zM19.824 7.4c0.109 0.08 0.226 0.147 0.349 0.201v8.7a1.8 1.8 0 0 0-1.069 1.852l-7.535 4.35a1.8 1.8 0 0 0-0.349-0.2l-0.009-8.653a1.8 1.8 0 0 0 1.07-1.851z m-18.648 0.048l7.535 4.35a1.8 1.8 0 0 0 1.069 1.852v8.7c-0.124 0.054-0.24 0.122-0.349 0.202l-7.535-4.35a1.8 1.8 0 0 0-1.069-1.852v-8.7c0.124-0.054 0.24-0.122 0.35-0.202z"/></svg>