<svg fill="#25313C" role="img" viewBox="0 0 77 24" xmlns="http://www.w3.org/2000/svg"><title>IRIS</title><path d="M69.528 9.698c-4.034-1.031-5.036-1.534-5.037-3.064v-0.067c0-1.133 1.034-2.033 3-2.033 1.851 0 3.759 0.765 5.696 2.045l0.237 0.161c0.083 0.032 0.176 0.006 0.237-0.058l2.481-3.589a0.195 0.195 0 0 0-0.028-0.218c-0.074-0.048-0.141-0.109-0.218-0.16l-0.023-0.016c-2.292-1.732-5.071-2.699-8.298-2.699-4.777 0-8.171 2.798-8.171 7.031v0.067c0 4.636 3.038 5.936 7.735 7.134 3.906 1.002 4.7 1.668 4.7 2.968v0.067c0 1.367-1.268 2.2-3.368 2.199-2.552 0-4.678-1.009-6.698-2.615l-0.138-0.113a0.205 0.205 0 0 0-0.24 0.039l-2.82 3.358a0.221 0.221 0 0 0 0 0.234l0.217 0.189a14.872 14.872 0 0 0 9.561 3.442c5.033 0 8.568-2.603 8.567-7.233v-0.057c0.016-4.076-2.651-5.779-7.392-7.012ZM18.537 0.538a0.221 0.221 0 0 1 0.218-0.208h4.723a0.218 0.218 0 0 1 0.205 0.217v22.915a0.205 0.205 0 0 1-0.205 0.205H18.742a0.218 0.218 0 0 1-0.214-0.205l0.009-22.924ZM0.08 16.287c0-0.112 0.093-0.202 0.204-0.202h4.723a0.215 0.215 0 0 1 0.208 0.202v7.175a0.218 0.218 0 0 1-0.208 0.205H0.284A0.205 0.205 0 0 1 0.08 23.462v-7.175ZM50.782 0.538c0-0.112 0.093-0.205 0.205-0.205h4.725c0.109 0 0.202 0.093 0.202 0.205v22.924a0.205 0.205 0 0 1-0.202 0.205H50.987a0.205 0.205 0 0 1-0.205-0.205V0.538Zm-2.84 22.962l-5.584-8.167c2.965-1.101 4.991-3.471 4.991-7.233v-0.07c0-2.203-0.698-4.037-1.997-5.337-1.53-1.527-3.82-2.36-6.798-2.36H28.091a0.205 0.205 0 0 0-0.201 0.205v22.924c0 0.112 0.09 0.205 0.201 0.205h4.726a0.205 0.205 0 0 0 0.205-0.205v-7.261h4.034l4.991 7.466h5.796c0.122 0 0.163-0.077 0.099-0.167ZM9.195 8.689a0.218 0.218 0 0 1 0.218-0.201h4.706a0.218 0.218 0 0 1 0.205 0.201v14.76a0.205 0.205 0 0 1-0.205 0.202H9.393a0.224 0.224 0 0 1-0.217-0.202l0.019-14.76Zm23.846 2.978l0.026-6.701h5.052c2.504 0 4.034 1.133 4.034 3.333v0.067c0 1.966-1.431 3.301-3.932 3.301h-5.18Z"/></svg>