<svg fill="#6CB86A" role="img" viewBox="0 0 26 24" xmlns="http://www.w3.org/2000/svg"><title>iRobot</title><path d="M25.571 7.932c0.796-3.752-1.366-7.707-6.098-7.707h-7.379l-1.223 5.729h5.567c1.142 0 1.855 0.938 1.609 2.06-0.244 1.142-1.344 2.019-2.487 2.019H9.934l7.544 13.945h7.891l-5.099-9.358c1.367-0.734 4.467-2.793 5.302-6.688zM1.573 17.841L0.268 24h6.729l2.935-13.947c-4.099 0.143-7.321 2.875-8.36 7.788zM5.997 6.322a3.167 3.167 0 0 0 3.18-3.162A3.168 3.168 0 0 0 5.997 0a3.168 3.168 0 0 0-3.181 3.162c0 1.733 1.428 3.16 3.181 3.16z"/></svg>