<svg fill="#468145" role="img" viewBox="0 0 65 24" xmlns="http://www.w3.org/2000/svg"><title>ISC2</title><path d="M38.314 3.027c2.365 0 4.299 0.899 5.929 2.266 0.038 0.032 0.17 0.138 0.208 0.172 0.159 0.132 0.192 0.14 0.384-0.059l0.183-0.194 1.399-1.529c0.149-0.176 0.124-0.189 0.016-0.302l-0.191-0.187c-2.098-1.863-4.796-3.194-7.928-3.194-6.626 0-11.789 5.325-11.79 12.016s5.163 11.984 11.79 11.984c3.132 0 5.835-1.412 7.936-3.311 0.232-0.2 0.319-0.273 0.086-0.504l-1.426-1.559c-0.232-0.235-0.294-0.178-0.526 0.022-1.631 1.364-3.705 2.325-6.07 2.325-4.761 0-8.625-3.864-8.625-8.957 0-5.125 3.864-8.989 8.625-8.989ZM11.168 6.124c0-2.031 1.666-3.262 3.896-3.262 1.933 0 3.365 0.799 4.899 2.231 0.232 0.232 0.308 0.362 0.54 0.094l1.382-1.493c0.235-0.267 0.108-0.332-0.124-0.564a8.957 8.957 0 0 0-6.729-3.13c-3.832 0-6.861 2.495-6.861 6.092 0 7.523 11.59 5.959 11.589 11.184 0 2.131-1.863 3.797-4.628 3.797-2.66 0-4.061-1.226-5.528-2.622-0.232-0.235-0.284-0.289-0.483-0.089l-1.58 1.493c-0.235 0.2-0.211 0.216-0.046 0.483 1.515 2.041 4.339 3.629 7.637 3.63 4.131 0 7.693-2.73 7.693-6.559 0-7.923-11.657-6.157-11.657-11.285ZM3.194 0.224v20.565a0.162 0.162 0 0 1-0.051 0.119L0.216 23.735c-0.043 0.043-0.119 0.011-0.119-0.051V0.224c0-0.038 0.032-0.07 0.07-0.07h2.957c0.038 0 0.07 0.032 0.07 0.07Zm54.157-0.178c-2.997 0-5.374 1.323-6.84 3.154a3.275 3.275 0 0 0-0.154 0.219c-0.108 0.165-0.078 0.178 0.073 0.345 0.378 0.421 1.555 1.752 1.555 1.753 0.049 0.051 0.095 0.054 0.138 0.016l0.202-0.192c0.934-0.967 2.527-2.565 4.993-2.565 2.765 0 4.428 1.734 4.429 4.261 0 3.591-2.058 5.298-6.64 9.151-1.334 1.121-3.794 3.281-4.41 3.818a0.427 0.427 0 0 0-0.14 0.316v3.224c0 0.143 0.17 0.221 0.278 0.127 1.264-1.11 6.494-5.689 8.192-7.131 4.399-3.737 5.584-6.275 5.585-9.537 0-3.961-2.862-6.959-7.261-6.959Zm7.382 21.04H57.342a0.173 0.173 0 0 0-0.172 0.173v2.187c0 0.095 0.078 0.17 0.172 0.171h7.391a0.17 0.17 0 0 0 0.17-0.171v-2.187a0.173 0.173 0 0 0-0.17-0.173Z"/></svg>