<svg fill="#FA5C5C" role="img" viewBox="0 0 27 24" xmlns="http://www.w3.org/2000/svg"><title>Itch.io</title><path d="M3.64 0.148C2.473 0.839 0.183 3.472 0.161 4.163v1.145c0 1.448 1.356 2.723 2.584 2.724 1.478 0 2.708-1.225 2.708-2.679 0 1.454 1.189 2.679 2.668 2.679 1.476 0 2.626-1.225 2.626-2.679 0 1.454 1.264 2.679 2.741 2.679h0.026c1.478 0 2.741-1.225 2.742-2.679 0 1.454 1.149 2.679 2.626 2.679 1.478 0 2.668-1.225 2.668-2.679 0 1.454 1.229 2.679 2.707 2.679C25.483 8.032 26.839 6.755 26.839 5.308V4.163c-0.022-0.689-2.314-3.324-3.479-4.015-3.616-0.127-6.123-0.149-9.86-0.148-3.737 0-8.832 0.059-9.86 0.148z m7.088 7.2a3.046 3.046 0 0 1-0.521 0.669c-0.556 0.545-1.323 0.884-2.164 0.884a3.097 3.097 0 0 1-2.168-0.884c-0.202-0.198-0.356-0.411-0.495-0.656-0.141 0.247-0.337 0.458-0.541 0.656a3.099 3.099 0 0 1-2.167 0.884c-0.102 0-0.208-0.028-0.294-0.058-0.119 1.237-0.169 2.419-0.187 3.279v0.006l-0.006 1.297c0.022 2.595-0.256 8.408 1.145 9.838 2.17 0.505 6.164 0.736 10.171 0.737 4.007 0 8.001-0.233 10.171-0.738 1.401-1.427 1.123-7.241 1.145-9.836l-0.006-1.297v-0.004c-0.018-0.862-0.067-2.043-0.187-3.28-0.086 0.029-0.191 0.058-0.292 0.058a3.099 3.099 0 0 1-2.168-0.884c-0.205-0.198-0.4-0.409-0.54-0.656-0.141 0.245-0.295 0.458-0.497 0.656a3.097 3.097 0 0 1-2.168 0.883c-0.845 0-1.607-0.337-2.165-0.882a3.046 3.046 0 0 1-0.52-0.669 3.044 3.044 0 0 1-0.515 0.669 3.098 3.098 0 0 1-2.168 0.883h-0.178a3.098 3.098 0 0 1-2.167-0.881 3.044 3.044 0 0 1-0.516-0.67z m-2.228 2.879v0.002c0.884 0.002 1.667 0 2.638 1.06 0.764-0.08 1.563-0.12 2.362-0.119 0.8 0 1.599 0.039 2.362 0.119 0.97-1.059 1.754-1.056 2.637-1.06 0.418 0 2.085 0 3.246 3.262l1.248 4.477c0.925 3.329-0.296 3.41-1.818 3.413-2.257-0.083-3.508-1.723-3.509-3.363-1.249 0.205-2.708 0.307-4.166 0.308-1.458 0-2.917-0.103-4.166-0.308 0 1.64-1.251 3.279-3.509 3.364-1.523-0.004-2.743-0.086-1.818-3.415l1.247-4.476c1.162-3.262 2.829-3.262 3.246-3.262zM13.5 12.794c-0.002 0.002-2.379 2.183-2.805 2.959l1.557-0.062v1.356c0 0.062 0.623 0.037 1.248 0.008 0.625 0.029 1.249 0.056 1.249-0.009v-1.357l1.557 0.062C15.877 14.976 13.5 12.793 13.5 12.793z"/></svg>