<svg fill="#DEEB52" role="img" viewBox="0 0 72 24" xmlns="http://www.w3.org/2000/svg"><title>ITVx</title><path d="M47.666 9.071a178.635 178.635 0 0 0-2.924-0.806c-0.298 0-0.477 0.149-0.596 0.507-1.044 3.58-2.685 7.549-4.118 10.026-0.477-0.895-1.343-2.476-2.178-3.879l-3.103-5.46c-0.656-1.014-1.074-1.283-1.91-1.283-1.701 0-4.237 1.522-4.237 2.983 0 0.477 0.119 0.835 0.627 1.701 0.597 0.955 0.895 1.79 0.895 2.745 0 2.447-1.85 4.655-5.371 4.655-1.641 0-2.954-0.477-3.789-1.343-0.806-0.835-1.193-1.939-1.193-3.789v-3.074c0.597 0.239 1.313 0.358 2.178 0.359h2.775c0.388 0 0.507-0.149 0.507-0.478v-2.984c0-0.328-0.119-0.507-0.507-0.507H19.769v-4.863c0-0.597-0.149-0.985-0.478-1.283-0.477-0.448-1.492-0.656-2.655-0.657-1.193 0-2.148 0.209-2.656 0.657-0.298 0.298-0.477 0.716-0.477 1.283v11.935c0 1.969-0.298 3.043-1.015 3.789-0.597 0.656-1.581 1.014-2.625 1.014s-1.969-0.358-2.507-0.925c-0.597-0.597-0.865-1.432-0.865-2.685v-7.758c0-0.328-0.119-0.477-0.477-0.477H0.732c-0.358 0-0.507 0.149-0.507 0.477v7.012c0 2.805 0.746 4.386 1.999 5.669 1.641 1.611 4.416 2.357 7.102 2.357 2.626 0 5.401-0.955 7.041-2.446a11.935 11.935 0 0 0 7.758 2.446c4.237 0 7.37-1.79 9.19-4.774 0.806 1.283 1.402 2.208 1.999 3.044 0.835 1.253 1.611 1.731 3.342 1.73 1.611 0 2.596-0.388 3.49-1.76 2.327-3.521 4.297-7.728 5.729-11.577 0.149-0.477 0.298-0.835 0.299-1.044 0-0.239-0.149-0.418-0.508-0.537z m-44.308-2.745c1.969 0 3.193-1.373 3.193-3.133 0-1.79-1.193-3.163-3.193-3.163-1.939-0.03-3.163 1.373-3.163 3.133 0 1.76 1.193 3.133 3.163 3.133z m68.148 15.217l-6.803-9.339c-0.149-0.209-0.149-0.418 0-0.597l6.266-9.16c0.209-0.269 0.328-0.448 0.328-0.836 0-0.358-0.209-0.746-0.567-1.103a1.522 1.522 0 0 0-1.163-0.508 1.193 1.193 0 0 0-0.716 0.299l-8.653 6.623c-0.179 0.149-0.388 0.149-0.597 0l-8.623-6.623a1.193 1.193 0 0 0-0.746-0.299 1.522 1.522 0 0 0-1.133 0.508c-0.358 0.358-0.597 0.746-0.597 1.103 0 0.388 0.149 0.597 0.328 0.836l6.296 9.16c0.149 0.179 0.149 0.388 0 0.597l-6.803 9.339a1.253 1.253 0 0 0-0.299 0.775c0 0.418 0.179 0.776 0.537 1.134 0.328 0.328 0.716 0.537 1.134 0.537 0.298 0 0.507-0.119 0.776-0.298l9.13-6.654a0.507 0.507 0 0 1 0.597 0l9.16 6.654c0.269 0.179 0.477 0.298 0.776 0.298 0.418 0 0.806-0.209 1.134-0.537 0.358-0.358 0.537-0.716 0.537-1.134 0-0.298-0.119-0.507-0.299-0.775z"/></svg>