<svg fill="#1554FF" role="img" viewBox="0 0 149 24" xmlns="http://www.w3.org/2000/svg"><title>IVECO</title><path d="M0.812 0a0.519 0.519 0 0 0-0.519 0.52v22.101c0 0.284 0.235 0.519 0.519 0.519h5.64a0.513 0.513 0 0 0 0.507-0.519v-22.101a0.513 0.513 0 0 0-0.507-0.52z m10.977 0c-0.383 0-0.649 0.359-0.47 0.68l11.718 20.141 0.068 0.124c1.206 1.892 3.568 3.061 6.197 3.055 2.634-0.006 4.99-1.212 6.165-3.141L48.218 0.687c0.173-0.284-0.043-0.686-0.47-0.687H41.465a0.532 0.532 0 0 0-0.457 0.241l-11.484 18.088c-0.105 0.173-0.396 0.142-0.488 0.037L18.449 0.254a0.526 0.526 0 0 0-0.476-0.248z m46.985 0c-4.514-0.006-8.188 3.018-8.187 6.747v9.628c0 3.729 3.673 6.765 8.187 6.765h18.855a0.507 0.507 0 0 0 0.507-0.519v-4.533a0.507 0.507 0 0 0-0.507-0.519H57.395c-0.105 0-0.186-0.093-0.185-0.204V5.757c0-0.105 0.08-0.204 0.185-0.204h20.234a0.495 0.495 0 0 0 0.507-0.507v-4.526a0.507 0.507 0 0 0-0.507-0.52z m33.659 0c-4.514-0.006-8.188 3.018-8.187 6.747v9.628c0 3.729 3.673 6.765 8.187 6.765h18.861a0.519 0.519 0 0 0 0.514-0.519v-4.533a0.519 0.519 0 0 0-0.52-0.519h-20.227c-0.111 0-0.198-0.093-0.198-0.204V5.757c0-0.105 0.087-0.204 0.198-0.204h20.227a0.507 0.507 0 0 0 0.52-0.507v-4.526a0.519 0.519 0 0 0-0.52-0.52z m32.985 0c-4.514 0-8.188 3.03-8.187 6.759v9.616c0 3.729 3.673 6.765 8.187 6.765h15.102c4.514 0 8.188-3.03 8.187-6.765v-9.616c0-3.729-3.673-6.759-8.187-6.759z m-1.397 5.553h17.803c0.093 0 0.167 0.074 0.167 0.167v11.682a0.167 0.167 0 0 1-0.167 0.167h-17.809a0.167 0.167 0 0 1-0.167-0.167v-11.682c0-0.093 0.08-0.167 0.173-0.167z m-63.169 3.463a0.309 0.309 0 0 0-0.303 0.316v4.514c0 0.173 0.136 0.322 0.303 0.322h16.82a0.309 0.309 0 0 0 0.31-0.316v-4.514a0.309 0.309 0 0 0-0.31-0.316z"/></svg>