<svg fill="#66CFE3" role="img" viewBox="0 0 21 24" xmlns="http://www.w3.org/2000/svg"><title>Jaeger</title><path d="M13.316 22.377c0 0.072-0.128 0.131-0.287 0.132-0.158 0-0.286-0.059-0.286-0.131 0-0.072 0.128-0.131 0.286-0.132 0.158 0 0.286 0.059 0.287 0.131Zm-0.738 0.156c0 0.075-0.126 0.136-0.282 0.136-0.155 0-0.282-0.061-0.281-0.136 0-0.075 0.126-0.136 0.281-0.136 0.155 0 0.282 0.061 0.282 0.136Zm-0.743 0.141c0 0.07-0.174 0.126-0.388 0.126-0.214 0-0.388-0.057-0.389-0.126 0-0.07 0.174-0.126 0.389-0.127 0.214 0 0.388 0.057 0.388 0.127Zm-1.136 0.111c0 0.088-0.159 0.16-0.354 0.16-0.196 0-0.354-0.072-0.355-0.16 0-0.088 0.159-0.16 0.355-0.16 0.196 0 0.354 0.072 0.354 0.16Zm-1.194 0.039c0 0.097-0.237 0.175-0.529 0.175-0.292 0-0.529-0.078-0.529-0.175 0-0.097 0.237-0.175 0.529-0.175s0.529 0.078 0.529 0.175Zm1.107-0.879c0.612-0.029 0.772-0.121 0.791-0.325 0 0 0.121-0.15-0.291-0.233-0.413-0.083-0.995-0.083-0.893-0.413 0.102-0.335 1.155-0.393 1.786-0.393s1.345-0.039 1.253 0.301c-0.087 0.34-0.549 0.345-0.51 0.573 0.039 0.228 0.417 0.16 0.349 0.52-0.068 0.359-1.743 0.49-2.927 0.592-1.18 0.102-1.932-0.019-1.743-0.34 0.189-0.32 1.573-0.252 2.185-0.282Zm-9.969 1.076c0.007 0.045-0.128 0.102-0.301 0.127-0.172 0.025-0.318 0.009-0.324-0.036-0.007-0.045 0.128-0.102 0.301-0.127 0.172-0.025 0.318-0.009 0.324 0.036Zm0.091 0.226c0.008 0.053-0.147 0.119-0.346 0.148-0.199 0.029-0.366 0.009-0.374-0.043-0.008-0.053 0.147-0.119 0.346-0.149 0.199-0.029 0.367-0.009 0.374 0.044Zm0.165 0.204c0.008 0.053-0.147 0.119-0.346 0.148-0.199 0.029-0.367 0.009-0.374-0.043-0.008-0.053 0.147-0.12 0.346-0.149 0.199-0.029 0.367-0.009 0.374 0.044Zm0.739 0.114c0.009 0.064-0.15 0.138-0.355 0.166-0.205 0.028-0.377-0.001-0.386-0.065-0.009-0.064 0.15-0.138 0.355-0.166 0.205-0.028 0.378 0.001 0.386 0.065Zm1.18 0.131c0.007 0.083-0.239 0.17-0.549 0.195s-0.567-0.022-0.573-0.106c-0.007-0.083 0.239-0.17 0.549-0.194s0.567 0.022 0.573 0.105Zm1.193 0.001c0.018 0.084-0.201 0.203-0.489 0.265-0.288 0.063-0.537 0.046-0.555-0.038-0.018-0.084 0.201-0.203 0.489-0.265 0.288-0.063 0.537-0.045 0.555 0.038Zm1.246-2.033c0.354-0.078 1.986-0.039 2.029 0.247 0.053 0.291-2.67 0.544-3.286 0.631-0.617 0.087-0.641 0.262-0.641 0.263 0 0.015-0.053 0.155 0.349 0.15 0.563-0.01 0.956 0.107 0.724 0.379-0.233 0.272-2.811 0.199-3.34 0-0.529-0.199-0.32-0.398-0.049-0.5 0.272-0.097 1.044-0.189 1.937-0.359 0.893-0.17 1.927-0.728 2.277-0.811Zm6.792-9.734a0.646 0.646 0 1 1-1.292 0 0.646 0.646 0 0 1 1.292 0ZM5.815 13.44a0.646 0.646 0 1 1-1.291 0 0.646 0.646 0 0 1 1.291 0ZM2.825 20.023c-0.354 0-0.602-0.141-0.757-0.418-0.063-0.107-0.102-0.238-0.131-0.373-0.063-0.335-0.044-0.728 0.029-1.098 0.083-0.413 0.228-0.796 0.383-1.038 0.141-0.223 0.272-0.369 0.389-0.466a50.61 50.61 0 0 0 0.519 1.32c0.238 0.587 0.456 1.107 0.617 1.476-0.01 0.019-0.024 0.034-0.039 0.053-0.233 0.311-0.558 0.544-1.01 0.544Zm15.015-2.194c0 0.015 0.005 0.039 0.02 0.072 0.053 0.291 0.233 1.078 0.354 1.53-1.864 0.209-4.505 0.34-7.432 0.34-2.476 0-4.748-0.092-6.515-0.248a86.46 86.46 0 0 1-0.675-1.607c-0.597-1.456-1.33-3.393-1.558-4.578-0.209-1.092-0.461-2.418 0.116-3.612A28.568 28.568 0 0 1 1.82 9.697c-1.369-0.146-1.554-0.413-1.626-0.524-0.078-0.112-0.092-0.243-0.039-0.374 0.121-0.306 0.534-0.583 1.014-0.811a5.028 5.028 0 0 0 0.136 0.282c-0.437 0.209-0.777 0.432-0.859 0.645-0.019 0.044-0.01 0.063 0.005 0.088 0.068 0.097 0.461 0.398 2.685 0.471a0.632 0.632 0 0 1-0.5-0.505 0.634 0.634 0 0 1 0.058-0.393c-0.204 0.107-0.408 0.233-0.602 0.364 0 0-1.655-2.175-0.471-2.894 0.136-0.083 0.267-0.121 0.398-0.121 0.99 0 1.723 2.16 1.723 2.16s-0.146 0.053-0.359 0.151c0.262 0.024 0.782 0.146 1.83 0.568 1.068 0.432 1.495 0.461 1.612 0.461A0.625 0.625 0 0 1 7.5 9.343l0.034 0.034a22.885 22.885 0 0 0 0.456-0.039c0.049-0.005 0.112-0.019 0.194-0.039a0.628 0.628 0 0 1 0.287-0.583 0.619 0.619 0 0 1 0.733 0.044 0.434 0.434 0 0 0 0.087-0.034c0.272-0.136 1.233-1.16 1.957-2.034a0.616 0.616 0 0 1 0.611-0.214c0.194-0.655 0.971-2.976 2.156-2.976 1.379 0 0.578 2.728 0.442 2.923 0 0-0.32-0.024-0.758-0.024-0.485 0-1.117 0.029-1.631 0.165 0.015 0.01 0.034 0.024 0.054 0.039 0.267 0.218 0.301 0.612 0.082 0.878-0.117 0.136-0.267 0.32-0.442 0.52 0.359-0.146 0.733-0.306 1.107-0.466 0.626-0.277 1.209-0.539 1.724-0.792h0.009l0.005-0.009c0.442-0.214 0.84-0.417 1.175-0.607 1.17-0.655 1.316-0.942 1.33-1.015 0.01-0.049 0-0.063-0.005-0.068-0.01-0.019-0.092-0.097-0.461-0.097-0.403 0-0.966 0.092-1.553 0.219a3.849 3.849 0 0 0 0.029-0.326c0.573-0.117 1.121-0.204 1.529-0.204 0.369 0 0.592 0.068 0.709 0.214 0.053 0.063 0.107 0.175 0.068 0.335-0.044 0.189-0.243 0.519-1.481 1.214a8.662 8.662 0 0 1-0.374 0.204c-0.092 0.053-0.194 0.102-0.296 0.155 0.558 0.471 0.976 1.175 1.238 2.194 0.529 2.039 0.937 4.428 1.219 6.321-0.461 0.058-0.743 0.277-0.801 0.631-0.063 0.384 0.136 0.592 0.344 0.816 0.223 0.238 0.481 0.505 0.563 1.107Zm-4.84-12.331c0 0.024 0.005 0.019 0.005 0.019s0.024-0.044 0.063-0.116c0.044-0.073 0.102-0.175 0.17-0.296 0.073-0.121 0.155-0.257 0.258-0.379 0.049-0.058 0.107-0.117 0.165-0.16 0.063-0.044 0.121-0.073 0.184-0.083 0.019 0 0.034-0.005 0.049-0.005 0.015 0.005 0.034 0 0.048 0.005 0.015 0.005 0.034 0.005 0.049 0.01l0.039 0.01 0.009 0.004c0 0.005 0.005 0.005 0.005 0.01 0.01 0.015 0.015 0.044 0.02 0.078 0 0.068-0.005 0.15-0.02 0.223-0.01 0.073-0.029 0.146-0.044 0.214-0.034 0.136-0.063 0.248-0.082 0.33-0.024 0.083-0.034 0.131-0.034 0.131s0.034-0.034 0.087-0.102c0.053-0.063 0.121-0.165 0.194-0.291 0.034-0.063 0.073-0.136 0.102-0.219 0.029-0.083 0.058-0.175 0.068-0.281 0.005-0.053 0.005-0.117-0.019-0.185-0.005-0.019-0.015-0.034-0.024-0.053l-0.015-0.025-0.019-0.024c-0.019-0.029-0.097-0.078-0.102-0.077l-0.01-0.005h-0.005l-0.014-0.005h-0.005l-0.02-0.01-0.043-0.014c-0.024-0.01-0.058-0.015-0.088-0.02-0.029-0.005-0.063-0.005-0.092-0.005-0.029 0.005-0.063 0.005-0.092 0.01a0.684 0.684 0 0 0-0.321 0.155c-0.087 0.073-0.15 0.155-0.204 0.238-0.102 0.165-0.16 0.33-0.199 0.471-0.034 0.146-0.053 0.267-0.058 0.35-0.005 0.039-0.005 0.073-0.005 0.097Zm-4.286 3.578c-0.087 0.053-0.112 0.165-0.063 0.252 0.015 0.019 0.092 0.131 0.257 0.194a0.707 0.707 0 0 0 0.252 0.044c0.146 0 0.306-0.039 0.471-0.112 0.359-0.16 1.238-1.049 2.243-2.257 0.063-0.078 0.053-0.194-0.024-0.257-0.044-0.034-0.087-0.044-0.117-0.044a0.179 0.179 0 0 0-0.14 0.068c-0.432 0.519-1.655 1.923-2.093 2.146l-0.019 0.009c-0.053 0.019-0.102 0.039-0.151 0.054l-0.223 0.063-0.18-0.146c-0.029-0.029-0.073-0.044-0.116-0.043a0.175 0.175 0 0 0-0.097 0.029ZM7.67 14.304c0.058 0.335 0.587 0.524 1.184 0.427 0.597-0.097 1.039-0.452 0.981-0.786-0.058-0.335-0.588-0.524-1.184-0.427-0.597 0.102-1.034 0.456-0.981 0.786ZM2.917 7.949a2.001 2.001 0 0 0 0.073 0.093s-0.005-0.015-0.005-0.034c-0.005-0.019-0.005-0.049-0.014-0.088-0.01-0.078-0.039-0.184-0.078-0.31a2.409 2.409 0 0 0-0.175-0.418 1.887 1.887 0 0 0-0.141-0.223c-0.053-0.073-0.117-0.146-0.204-0.214-0.049-0.029-0.097-0.063-0.165-0.082-0.015-0.005-0.034-0.005-0.053-0.01h-0.073c-0.01 0-0.029 0.005-0.034 0.005l-0.029 0.009-0.019 0.005-0.005 0.005-0.01 0.005a0.337 0.337 0 0 0-0.16 0.136 0.447 0.447 0 0 0-0.054 0.175c-0.01 0.107 0.015 0.194 0.034 0.272 0.024 0.078 0.053 0.15 0.083 0.208a1.493 1.493 0 0 0 0.17 0.272c0.024 0.029 0.044 0.053 0.058 0.068l0.024 0.024s-0.01-0.044-0.024-0.116c-0.015-0.073-0.039-0.18-0.058-0.301a2.29 2.29 0 0 1-0.024-0.194c-0.005-0.068-0.005-0.136 0.009-0.19 0.005-0.024 0.015-0.044 0.025-0.053 0.01-0.005 0.015-0.01 0.029-0.015h0.009l0.015-0.004c0.005 0 0 0.005 0 0.004h0.005a0.204 0.204 0 0 1 0.063 0.034c0.049 0.039 0.102 0.092 0.15 0.151 0.053 0.063 0.102 0.121 0.146 0.184 0.087 0.126 0.175 0.248 0.248 0.35a5.199 5.199 0 0 0 0.184 0.252Zm0.355 1.078l0.034 0.005c0.131 0.015 0.553 0.092 1.592 0.51 0.855 0.345 1.5 0.519 1.913 0.519 0.311 0 0.393-0.097 0.422-0.131 0.044-0.053 0.049-0.107 0.044-0.136-0.005-0.029-0.015-0.083-0.068-0.126-0.044-0.034-0.087-0.044-0.117-0.044-0.029 0-0.058 0.005-0.082 0.02l-0.088 0.043h-0.116c-0.248 0-0.762-0.083-1.767-0.49-1.204-0.485-1.646-0.539-1.777-0.539-0.029 0-0.039 0-0.058 0.005-0.063 0.015-0.102 0.053-0.117 0.078-0.015 0.019-0.039 0.073-0.029 0.136 0.015 0.087 0.092 0.15 0.18 0.15h0.034Zm0.043 3.695c0 1.126 0.913 2.044 2.039 2.039 1.126 0 2.039-0.913 2.039-2.039 0-1.126-0.913-2.039-2.039-2.039s-2.039 0.913-2.039 2.039Zm5.525 3.364c-0.267 0.102-0.5 0.247-0.704 0.374 0.049 0.218 0.199 0.709 0.631 0.582 0.354-0.107 0.15-0.733 0.073-0.956Zm0.621 0.781c0.117 0.044 0.578 0.083 0.534-0.475-0.015-0.194-0.029-0.33-0.039-0.423-0.044-0.005-0.083-0.005-0.121-0.005-0.136 0-0.262-0.005-0.369-0.004-0.112 0-0.17 0.005-0.194 0.009a9.305 9.305 0 0 0-0.155 0.029c0.039 0.252 0.146 0.796 0.344 0.869Zm1.787-1.378c0.432-0.194 0.432-0.524 0.408-0.695-0.029-0.18-0.296-0.558-1.379-0.568 0 0-0.335 0.782-1.243 0.928-0.908 0.15-1.296-0.024-1.451-0.219 0 0-0.874 0.257-0.947 0.811-0.073 0.553 0.66 0.748 1.01 0.553 0.349-0.194 0.874-0.617 1.573-0.708 0.374-0.049 1.597 0.092 2.029-0.102Zm2.471-4.234c0-1.126-0.913-2.039-2.039-2.039s-2.039 0.913-2.039 2.039c0 1.126 0.913 2.039 2.039 2.039s2.039-0.917 2.039-2.039ZM1.616 18.198c-0.044 0.267-0.073 0.612-0.024 0.956-0.66-0.141-1.034-0.306-1.034-0.476 0-0.17 0.384-0.335 1.058-0.48Zm18.487 0.038c0.573 0.136 0.888 0.286 0.883 0.442 0 0.248-0.767 0.476-2.063 0.656 0.233-0.063 0.495-0.233 0.796-0.515 0.15-0.141 0.267-0.311 0.35-0.5a0.592 0.592 0 0 0 0.034-0.083Zm-0.35-0.072a1.045 1.045 0 0 1-0.276 0.388c-0.388 0.369-0.621 0.447-0.753 0.447-0.257 0-0.447-0.359-0.558-1.064-0.005-0.049-0.015-0.097-0.02-0.145-0.092-0.699-0.413-1.039-0.645-1.282-0.204-0.214-0.301-0.33-0.262-0.548 0.053-0.316 0.437-0.384 0.747-0.384 0.146 0 0.257 0.015 0.257 0.015h0.02c0.573 0.01 1.17 0.529 1.451 1.252 0.155 0.398 0.218 0.903 0.039 1.321ZM3.208 6.362c-0.107-0.146-0.214-0.267-0.325-0.359-0.01-0.398-0.01-0.757 0.01-0.898 0.039-0.262 0.689-1.024 1.296-1.607 0.51-0.49 1.486-1.335 2.301-1.5 0.126-0.024 0.272-0.039 0.442-0.039 1.554 0 4.699 1.165 4.855 1.32l0.009 0.01c0.039-0.379 0.078-0.908 0.01-1.058 0 0 0.296 0.092 0.35 0.276 0 0 0.733-0.738 0.66-1.655 0 0 0.165 0 0.184 0.296 0 0 0.529-1.252 0.918-1.141 0.388 0.112-0.126 1.859-0.403 2.19 0 0 0.442-0.107 0.495-0.403 0 0 0.053 0.257-0.019 0.403 0 0 0.995-0.811 0.956-1.122 0 0 0.131 0.316 0.092 0.554 0 0 0.825-0.66 0.826-0.937 0 0 0.126 1.602-1.471 2.189 0 0 0.422-0.053 0.626-0.092 0 0-0.175 0.228-0.442 0.553-0.16-0.102-0.35-0.15-0.563-0.15-0.641 0-1.228 0.485-1.748 1.442 0.078-0.417-0.029-0.757-0.184-0.792-0.005-0.005-0.015-0.005-0.024-0.005-0.16 0-0.388 0.277-0.481 0.69-0.092 0.437 0.015 0.806 0.175 0.84 0.058 0.015 0.131-0.019 0.204-0.088-0.15 0.359-0.267 0.694-0.345 0.932-3.976 1.791-6.505 1.753-7.656 1.573-0.083-0.214-0.233-0.578-0.442-0.942-0.058-0.097-0.117-0.194-0.175-0.281 2.777 0.748 6.476-0.651 7.957-1.296-0.078-0.218-0.087-0.5-0.019-0.806 0.063-0.296 0.194-0.548 0.354-0.719-0.029-0.117-0.053-0.199-0.073-0.242-0.34-0.184-3.156-1.233-4.626-1.233-0.146 0-0.272 0.015-0.379 0.034-1.301 0.267-3.277 2.529-3.349 2.849-0.024 0.155-0.015 0.68 0.004 1.214Z"/></svg>