<svg fill="#FFFFFF" role="img" viewBox="0 0 54 24" xmlns="http://www.w3.org/2000/svg"><title>Jaguar</title><path d="M11.958 0.003a15.423 15.423 0 0 0-0.652 0.022s-3.561 0.16-4.674 1.776c0 0-0.189 0.218-0.082 0.451 0 0 0.022 0.067-0.022 0.112 0 0-0.601 0.534-0.904 1.012-0.107 0.174-0.227 0.465 0 0.668 0 0 0.1 0.078 0.14 0.145 0.087 0.142 0.167 0.354 0.274 0.478 0.156 0.187 0.47 0.507 0.913 0.43 0.162-0.029 0.2-0.089 0.2-0.089 0.223 0.22 0.579 0.214 0.578 0.213-0.045-0.142-0.2-0.418-0.222-0.585a0.937 0.937 0 0 1 0.033-0.361 1.56 1.56 0 0 1 0.323-0.603c0.12-0.12 0.427-0.256 0.674-0.084 0.196 0.14 0.432 0.596 0.236 1.246 0 0.049-0.223 0.512-0.456 0.579 0 0-0.022 0.009-0.067 0.009-0.156 0-0.445-0.162-0.445-0.163s0 0.04 0.034 0.209c0.027 0.096 0.06 0.2 0.089 0.283 0 0-0.056 0.102-0.094 0.16-0.056 0.1-0.102 0.292 0.022 0.379 0 0 0.512 0.349 1.013 0.38 0.343 0.022 0.472-0.211 0.472-0.211 0.254-0.347 0.445-0.645 0.712-0.888 0.728-0.668 1.749-0.846 1.749-0.846 0.067-0.009 1.186-0.32 3.085 1.2-0.543 0.045-1.188 0.174-1.683 0.26-1.407 0.251-2.308 1.58-2.57 2.119-0.683 1.409 0.712 1.894 0.712 1.894 0.022-0.013 1.335-0.116 1.972-1.521 0 0 0.231-0.621 0.852-0.418 0.405 0.131 3.984 1.38 4.789 1.594 0 0 2.397 0.623 3.298-0.479 1.444 0.474 2.797 0.703 6.343 0.245 0.616-0.08 1.102-0.06 1.102-0.06 0.828 0.06 1.585 0.619 1.814 0.983 0.935 1.493 2.114 4.458 6.222 4.098l1.858-0.17c1.135-0.067 2.056-0.111 2.994 0.383 0.407 0.214 0.634 0.292 1.326 0.953 0.946 0.899 1.816 1.874 2.973 1.342 0.412-0.189 0.875-0.924 0.875-0.924a1.331 1.331 0 0 0-0.563-0.932c1.053 0.251 3.427 0.412 4.344-1.193 0.238-0.374 0.263-0.708 0.174-0.908-0.251-0.563-0.948-0.378-0.949-0.379-0.329 0.067-0.705 0.445-1.264 0.61-1.197 0.356-2.154-0.058-2.154-0.058-1.845-0.799-7.774-4.193-10.789-5.675 0 0-3.461-1.736-8.544-3.747 0 0-9.231-4.057-16.05-3.939z m0 0.302c6.676-0.114 15.83 3.87 15.921 3.913v0.002c0.819 0.325 1.593 0.643 2.321 0.946l-1.057-0.419a96.208 96.208 0 0 0-4.068-1.435c-3.436-1.186-4.941-1.395-5.045-1.409a12.329 12.329 0 0 0-0.57-0.084l-0.619-0.072 0.343 0.554c-2.426-1.716-5.33-1.803-5.472-1.807-0.585 0-1.095 0.167-1.491 0.356l0.198-0.367-0.481-0.022a14.094 14.094 0 0 0-2.005 0.04 11.35 11.35 0 0 1 2.02-0.196z m-0.71 0.441c0.211 0 0.438 0.007 0.683 0.018l-0.08 0.149c-0.171 0.325-0.857 0.997-1.985 0.748 0 0 0 0.503 1.235 0.683 0 0 1.106 0.196 2.984 1.707 0 0-0.897-1.785-2.421-2.248 0 0-0.191-0.04-0.098-0.16 0 0 0.899-0.846 2.152-0.846 0 0 3.904 0.085 6.385 2.68 0 0-0.111-0.452-0.501-1.091l-0.162-0.267s0.149 0.018 0.556 0.085c0 0 1.491 0.185 4.992 1.393 0 0 2.624 0.863 4.059 1.431 2.159 0.861 7.562 2.953 11.01 4.833 0.614 0.334 6.848 3.583 6.848 3.583 1.725 0.777 2.92 0.305 2.92 0.305 0.389-0.147 1.095-0.69 1.402-0.382 0.158 0.158 0.18 0.372 0.104 0.578-0.089 0.312-0.534 0.73-1.075 0.968-0.568 0.254-1.751 0.32-2.434 0.21 0 0-1.326-0.134-2.486-1.347-0.367-0.383-0.817-0.817-1.233-1.244a2.31 2.31 0 0 0-1.38-0.741c-0.779-0.105-2.682-0.156-3.396-0.394-0.478-0.16-1.055-0.483-1.823-1.62-0.369-0.543-0.63-0.692-1.132-1.013 0 0 0.385 0.307 0.603 0.695 0.316 0.561 0.474 0.968 0.645 1.268 0.171 0.3 0.365 0.565 0.657 0.801 0.365 0.292 0.592 0.347 0.985 0.412 0.378 0.062 1.651 0.051 2.742 0.036 1.075-0.018 1.556 0.329 1.908 0.627 0.327 0.276 0.89 1.062 1.232 1.407 0.409 0.409 0.712 0.828 1.523 1.237 0.283 0.142 0.743 0.494 0.719 0.832-0.365 0.365-0.817 0.461-1.903 0.17 0.078 0.076 0.645 0.674 1.618 0.391a1.242 1.242 0 0 1-0.882 0.334c-1.019-0.058-2.016-1.313-2.577-1.776-0.423-0.352-0.474-0.438-1.195-0.939-1.097-0.759-3.556-0.545-3.556-0.545l-1.807 0.093c-3.516 0.267-4.994-2.849-5.384-3.498a5.39 5.39 0 0 0-0.374-0.557c-0.178-0.24-1.139-1.487-2.112-1.896 0 0 0.957 0.823 0.899 1.367 0 0-0.396-0.185-1.473-0.031-4.631 0.661-6.209-0.499-6.209-0.499 0.216-0.928-0.432-1.881-0.432-1.88 0.356 0.111 2.635 0.881 4.796 0.445 0 0-3.519 0.018-5.986-1.952 0 0 1.536 1.925 1.17 3.185 0 0-0.251 1.342-2.928 0.801-0.287-0.056-0.623-0.151-4.629-1.264-0.944-0.283-1.269 0.167-1.44 0.438 0 0.396-0.474 0.859-0.708 1.002-1.242-0.223-0.748-1.373-0.748-1.374-0.779 1.117 0.038 1.611 0.296 1.647-0.156 0.073-0.3 0.129-0.423 0.174 0 0-1.017-0.603-0.449-1.591 0.79-1.38 1.596-1.823 3.071-1.959 0.645-0.06 1.182-0.107 1.591-0.049 1.068 0.147 1.74 0.752 3.343 0.906-3.401-1.001-3.409-2.971-3.421-3.009V4.211c-0.189 0.65-0.085 1.197 0.083 1.66-0.045-0.018-0.79-0.507-1.075-0.679-1.22-0.746-2.185-0.877-2.186-0.876-0.405-0.051-0.592-0.543-0.592-0.543-0.022-0.024-0.029-0.049-0.044-0.072-0.561-0.961-1.117-0.979-1.117-0.979a1.861 1.861 0 0 1 0.302 0.828c0.022 0.122 0.031 0.349 0.031 0.416 0 1.028-1.202 1.351-1.201 1.351-0.828 1.053-0.786 1.075-0.971 1.102-0.185 0.027-0.59-0.178-0.589-0.178-0.031-0.018-0.04-0.065-0.036-0.094 0-0.065 0.062-0.105 0.062-0.104 0.156-0.122 0.283-0.245 0.283-0.245 0.877-0.897 0.981-1.335 0.875-1.916-0.223-1.166-1.055-1.03-1.055-1.031-0.405 0.04-0.57 0.374-0.57 0.374a10.184 10.184 0 0 0-0.434 0.872c-0.178 0.392-0.365 0.478-0.461 0.497a0.881 0.881 0 0 1-0.144 0.006c-0.283-0.011-0.496-0.269-0.497-0.269-0.022-0.013-0.022-0.029-0.035-0.04-0.258-0.276-0.071-0.639-0.071-0.639 0.347-0.808 1.024-0.926 1.112-0.937l0.405-0.057c0.857-0.145 1.262-1.037 1.262-1.038a6.654 6.654 0 0 0-0.859 0.032c-0.57 0.1-0.763 0.77-0.763 0.767-0.481 0.111-0.467-0.303-0.383-0.429 0.076-0.116 0.356-0.612 2.205-1.039 0 0 0.699-0.211 2.177-0.205z m-0.354 0.267c-0.445 0-0.679 0.249-0.679 0.274 0 0.013 0.06 0.02 0.156 0.022l0.156 0.007a1.758 1.758 0 0 0 0.712-0.185 0.939 0.939 0 0 0 0.205-0.116l-0.545-0.004z m0.365 0.808v0.009c0.067 0.18 0.24 0.245 0.318 0.267v-0.003c0.363 0.111 0.688 0.307 0.973 0.537-0.868-0.485-1.364-0.581-1.398-0.588a3.581 3.581 0 0 1-0.349-0.071 2.197 2.197 0 0 0 0.463-0.151z m-3.035 0.111s-0.111 0.356-0.55 0.432c0 0-0.171 0.04-0.241 0.042l0.047-0.133c0-0.027 0.114-0.307 0.367-0.334 0 0 0.147-0.009 0.377-0.009z m-1.52 0.519a0.474 0.474 0 0 0 0.124 0.104c-0.3 0.127-1.079 0.961-1.079 0.962 0.394-0.583 0.908-1.019 0.912-1.024 0-0.007 0.022-0.013 0.022-0.02 0-0.007 0.022-0.016 0.023-0.022z m1.64 0.701c0.085-0.011 0.483-0.027 0.667 0.6a0.964 0.964 0 0 0-0.311-0.411 0.754 0.754 0 0 0-0.565-0.123 0.445 0.445 0 0 1 0.209-0.066z m-2.853 16.464v1.943c0 0.568-0.125 0.948-0.401 1.224-0.367 0.361-0.973 0.507-1.869 0.507H0.294v0.57h3.178c1.507 0 2.573-0.205 3.127-0.772 0.318-0.325 0.472-0.732 0.472-1.403v-2.069z m5.982 0L7.794 23.862h0.917l0.774-0.904h4.683l0.779 0.904h1.771l-3.685-4.244z m9.093 0c-1.075 0-1.718 0.125-2.292 0.445a1.849 1.849 0 0 0-0.962 1.669c0 0.857 0.389 1.482 1.24 1.825 0.51 0.207 1.184 0.305 2.041 0.305h4.573v-1.948h-1.573v1.38H21.071c-0.815 0-1.291-0.118-1.64-0.385-0.334-0.256-0.51-0.643-0.51-1.168 0-0.51 0.167-0.89 0.479-1.142 0.352-0.285 0.812-0.414 1.658-0.414h3.948v-0.567z m12.587 0v2.056c0 0.534-0.067 0.875-0.271 1.157-0.343 0.483-0.884 0.657-1.994 0.657h-0.134c-1.059 0-1.649-0.174-1.991-0.654-0.203-0.285-0.272-0.608-0.272-1.16v-2.054h-1.58v2.114c0 0.547 0.06 0.979 0.334 1.342 0.45 0.588 1.277 0.926 3.561 0.926h0.024c2.297 0 3.12-0.338 3.57-0.926 0.276-0.363 0.334-0.795 0.334-1.342v-2.114z m5.958 0l-3.681 4.244h0.917l0.777-0.904h4.68l0.779 0.904h1.771l-3.685-4.244z m6.645 0v4.246h1.581v-1.471h2.076l2.368 1.469H53.706l-2.486-1.498c0.592-0.02 1.097-0.111 1.484-0.318a1.157 1.157 0 0 0 0.595-1.051c0-0.568-0.254-0.93-0.715-1.135-0.412-0.178-0.919-0.24-1.927-0.24z m1.581 0.534h3.113c0.592 0 0.855 0.058 1.035 0.191 0.171 0.129 0.234 0.325 0.234 0.63v0.08c0 0.274-0.067 0.496-0.268 0.637-0.2 0.138-0.476 0.167-0.981 0.167h-3.133zM11.822 20.234l1.87 2.175H9.957z m27.639 0l1.869 2.175h-3.739z"/></svg>