<svg fill="#0B4EA2" role="img" viewBox="0 0 92 24" xmlns="http://www.w3.org/2000/svg"><title>JCB</title><path d="M50.008 3.848c3.711 0.281 6.587 1.401 8.987 2.612v-5s-4.801-1.207-9.317-1.405c-15.747-0.706-20.211 5.475-20.21 11.944 0 6.469 4.464 12.651 20.21 11.946 4.516-0.205 9.316-1.41 9.317-1.41v-4.995c-2.364 1.176-5.277 2.331-8.987 2.607-6.41 0.486-10.267-2.636-10.267-8.146 0-5.515 3.857-8.631 10.267-8.151m29.333 15.735c-0.196 0.04-0.603 0.076-0.82 0.076h-6.873V13.435H78.521c0.217 0 0.624 0.038 0.82 0.077a3.075 3.075 0 0 1 2.414 3.034c0 1.589-1.096 2.752-2.414 3.039z m-7.693-15.411h6.231c0.225 0 0.555 0.029 0.677 0.052 1.289 0.218 2.388 1.262 2.388 2.822 0 1.561-1.099 2.601-2.39 2.821a5.996 5.996 0 0 1-0.677 0.053h-6.225V4.178z m13.357 7.579v-0.139c3.486-0.508 5.401-2.771 5.401-5.42 0-3.37-2.803-5.312-6.601-5.502-0.295-0.012-0.775-0.042-1.162-0.042h-20.353v22.698h21.966c4.313 0 7.548-2.307 7.548-5.903 0-3.321-2.948-5.429-6.798-5.694z m-68.188 2.591c0 3.354-2.254 5.844-6.357 5.844-3.5 0-6.937-1.041-10.264-2.648V22.535s5.352 1.462 12.18 1.462c11.342 0 14.647-4.294 14.648-9.653V0.651H16.816v13.693Z"/></svg>