<svg fill="#000000" role="img" viewBox="0 0 60 24" xmlns="http://www.w3.org/2000/svg"><title>Jeep</title><path d="M10.54 0v12.919c0 1.68-1.103 2.677-2.889 2.676-1.785 0-2.73-1.312-2.73-2.73v-2.31H0.194v2.364c0 2.414 0.735 6.723 7.51 6.723 6.774 0 7.72-4.623 7.72-6.828V0Zm12.214 5.356c-4.464 0-6.459 4.095-6.458 7.614 0 3.519 2.259 6.933 6.879 6.933 4.045 0.052 6.724-2.573 6.723-4.517h-4.465s-0.525 1.261-2.101 1.261c-1.575 0-2.467-0.893-2.467-3.046h9.085c0-6.775-3.36-8.245-7.196-8.245z m14.523 0c-4.463 0-6.46 4.095-6.459 7.614 0 3.519 2.259 6.933 6.881 6.933 4.044 0.052 6.723-2.573 6.723-4.517h-4.465s-0.526 1.261-2.1 1.261c-1.577 0-2.469-0.893-2.47-3.046h9.085c0-6.775-3.359-8.245-7.195-8.245z m16.75 0.157c-2.268 0-3.275 1.232-3.329 1.297-0.319 0.382-0.714 0.786-0.714-0.194v-0.735h-4.519v18.119h4.57V19.009c0-0.368 0.367-0.313 0.632 0 0.264 0.317 1.419 1.104 3.415 1.104C57.707 20.113 59.806 16.962 59.806 12.656c0-5.567-3.518-7.143-5.779-7.143Zm-30.802 2.783c1.681 0 2.414 1.26 2.414 2.574H21.019c0-1.42 0.578-2.574 2.206-2.574z m14.522 0c1.681 0 2.415 1.26 2.416 2.574H35.541c0-1.42 0.579-2.574 2.207-2.574z m14.706 0.735c2.314 0 2.732 1.786 2.732 3.625 0 1.838-0.316 4.253-2.519 4.253-2.207 0-2.785-1.418-2.736-4.095 0.055-2.68 1.103-3.783 2.523-3.783z m5.666 11.342a1.454 1.454 0 0 0-1.455 1.455c0 0.803 0.65 1.455 1.455 1.454 0.799 0 1.453-0.652 1.453-1.454 0-0.803-0.654-1.455-1.453-1.455z m0 0.154a1.302 1.302 0 0 1 1.3 1.301c0 0.716-0.583 1.303-1.3 1.303a1.306 1.306 0 0 1-1.304-1.303c0-0.718 0.584-1.301 1.304-1.301z m-0.524 0.503v1.542h0.18v-0.668h0.439l0.287 0.668h0.201l-0.302-0.714c0.096-0.033 0.128-0.056 0.178-0.111 0.066-0.071 0.108-0.184 0.108-0.285 0-0.257-0.198-0.432-0.484-0.432z m0.175 0.168h0.428c0.179 0 0.292 0.102 0.292 0.259 0 0.179-0.12 0.29-0.317 0.29h-0.403z"/></svg>