<svg fill="#FBBA00" role="img" viewBox="0 0 40 24" xmlns="http://www.w3.org/2000/svg"><title>JET</title><path d="M26.209 23.577c5.009-0.818 7.814-1.2 13.506-3.936L39.72 14.976c-5.305 5.3-15.199 8.457-24.765 8.377-1.232-0.016-3.201 0.028-3.691-0.039 5.094 0.805 10.156 0.914 14.945 0.261M6.584 18.187c1.232 0.005 2.966-0.023 3.949-0.648 0.879-0.767 1.528-1.818 2.049-3.004l2.539-7.718-3.545 0.021-1.97 6.021c-0.37 1.908-1.55 2.573-2.437 2.437l-2.225-0.159-0.847 2.754 2.487 0.296m21.84-0.171l2.747-8.338h4.01l0.892-2.737-9.707-0.016-0.913 2.731H27.559l-2.843 8.343 3.709 0.017m-6.341-0.04l0.927-2.823h-5.266l0.488-1.494h4.385l0.892-2.696h-4.373l0.431-1.331h5.061l0.937-2.815-8.655 0.044-3.624 11.104 8.797 0.011m2.046-16.119c3.094-0.118 6.151 0.136 9.809 0.455-3.602-1.329-9.367-2.312-13.712-2.312-7.139 0-14.205 1.732-19.912 4.396L0.28 10.473c5.458-5.566 14.977-8.706 23.85-8.616"/></svg>