<svg fill="#001E59" role="img" viewBox="0 0 72 24" xmlns="http://www.w3.org/2000/svg"><title>JetBlue</title><path d="M2.668 5.451h2.751v14.811a3.758 3.758 0 0 1-3.993 3.731H0.354v-2.582h0.787c0.939 0 1.545-0.437 1.545-1.458V5.451M2.668 0h2.751v2.751H2.668V0Zm7.26 11.133a2.911 2.911 0 0 1 2.884-3.211 2.911 2.911 0 0 1 2.882 3.211H9.928m8.516 2.264v-2.264l0.003-0.219a5.576 5.576 0 0 0-5.549-5.549h-0.086c-2.635 0-5.635 1.678-5.635 7.025 0 5.599 3.253 6.942 6.069 6.942a6.289 6.289 0 0 0 4.946-2.148l-1.993-1.675a4.313 4.313 0 0 1-2.986 1.325c-0.071 0.006-0.143 0.006-0.214 0.006a3.08 3.08 0 0 1-3.056-3.36l8.501-0.083Zm2.181-12.022h2.747v4.076h1.997v2.094h-1.997v7.964c0 0.755 0.303 1.022 0.975 1.022h1.022v2.581h-1.426a3.149 3.149 0 0 1-3.354-3.351v-8.133H19.217v-2.177h1.372l0.036-4.076Zm13.881 9.289a2.914 2.914 0 0 1 3.211 2.884 2.914 2.914 0 0 1-3.211 2.882H30.029V10.664h4.477m-7.376 8.516h8.184a5.258 5.258 0 0 0 5.231-5.231l-0.003-0.216a4.304 4.304 0 0 0-3.119-4.426c1.747-0.597 2.902-2.281 2.834-4.126 0-3.018-1.946-5.145-5.683-5.145H27.145v19.177m7.108-16.596a2.777 2.777 0 0 1 3.072 2.748 2.78 2.78 0 0 1-3.072 2.75H30.047V2.617h4.206Zm7.863-2.617h2.751v15.66c0 0.621 0.353 0.939 1.022 0.939h0.938v2.581h-1.206c-1.996 0-3.505-0.856-3.505-3.353V0Zm5.87 5.451h2.748v8.13a2.727 2.727 0 0 0 2.709 2.929 2.727 2.727 0 0 0 2.706-2.929V5.451h2.751v13.661h-2.751v-1.458a4.355 4.355 0 0 1-3.535 1.678 4.616 4.616 0 0 1-4.581-4.595l0.003-0.149-0.05-9.137Zm15.138 5.682a2.881 2.881 0 0 1 2.884-3.184c1.678 0 2.801 1.105 2.884 3.184h-5.768m8.519 2.264v-2.264l0.003-0.219a5.576 5.576 0 0 0-5.549-5.549h-0.089c-2.632 0-5.632 1.678-5.632 7.025 0 5.599 3.253 6.942 6.051 6.942a6.297 6.297 0 0 0 4.931-2.213l-1.996-1.678a4.301 4.301 0 0 1-3.182 1.33 3.08 3.08 0 0 1-3.056-3.359l8.519-0.015Z"/></svg>