<svg fill="#40BE46" role="img" viewBox="0 0 25 24" xmlns="http://www.w3.org/2000/svg"><title>JFrog</title><path d="M11.108 15.758l-1.313 0.365c0.114 0.331 0.207 0.924 0.207 1.724v3.928h1.471v-4.156c0.274-0.331 0.571-0.491 0.89-0.491 0.161 0 0.287 0.034 0.424 0.114l0.399-1.358a1.087 1.087 0 0 0-0.548-0.126 1.263 1.263 0 0 0-0.48 0.093c-0.274 0.136-0.617 0.445-0.833 0.74 0-0.331-0.08-0.593-0.217-0.833zM6.041 13.818h-0.159v7.945h1.529v-3.517h1.929v-1.312H7.41v-1.826H9.819l0.091-0.697c-1.449-0.104-2.762-0.331-3.869-0.593z m-3.573 9.005l0.708 0.824c0.685-0.274 1.542-0.89 1.77-1.873 0.08-0.319 0.104-0.524 0.104-1.563v-6.381H3.503v6.551c0 0.857-0.033 1.176-0.147 1.473-0.149 0.331-0.503 0.719-0.89 0.971z m13.893-4.028c0 1.393-0.273 1.987-0.902 1.987a0.809 0.809 0 0 1-0.742-0.48c-0.114-0.296-0.182-0.8-0.182-1.484 0-0.583 0.057-0.994 0.148-1.313 0.114-0.365 0.4-0.594 0.753-0.594 0.263 0 0.491 0.114 0.628 0.308 0.206 0.274 0.297 0.787 0.297 1.576z m0.9 2.283c0.481-0.57 0.698-1.268 0.698-2.272 0-0.948-0.194-1.598-0.639-2.146-0.48-0.594-1.097-0.88-1.895-0.879-1.507 0-2.511 1.221-2.511 3.071 0 1.85 0.994 3.037 2.511 3.037 0.856 0.01 1.415-0.307 1.837-0.811z m4.18-3.288c0 0.538-0.321 0.833-0.89 0.833-0.514 0-0.857-0.238-0.857-0.833 0-0.548 0.321-0.867 0.867-0.868 0.549 0 0.88 0.321 0.88 0.868z m2.59-1.256l-0.605-0.97c-0.342 0.321-0.752 0.502-1.152 0.502-0.183 0-0.286-0.023-0.685-0.124a3.397 3.397 0 0 0-1.004-0.15c-1.428 0-2.352 0.776-2.352 1.987 0 0.866 0.388 1.415 1.199 1.632-0.331 0.08-0.685 0.252-0.845 0.445a0.818 0.818 0 0 0-0.172 0.538c0 0.182 0.046 0.342 0.114 0.479a0.704 0.704 0 0 0 0.321 0.285c0.262 0.104 0.683 0.172 1.335 0.183 0.342 0 0.548 0.01 0.616 0.01 0.4 0.024 0.604 0.093 0.765 0.172 0.148 0.092 0.262 0.297 0.262 0.526 0 0.228-0.137 0.455-0.353 0.593-0.195 0.137-0.514 0.195-0.925 0.195-0.673 0-1.05-0.252-1.05-0.72 0-0.207 0.023-0.252 0.068-0.377h-1.346c-0.057 0.114-0.126 0.274-0.127 0.594 0 0.4 0.149 0.742 0.458 1.039 0.502 0.491 1.324 0.627 2.111 0.627 0.867 0 1.712-0.205 2.203-0.752 0.308-0.343 0.445-0.719 0.445-1.211 0-0.525-0.148-0.924-0.479-1.255-0.388-0.377-0.833-0.514-1.689-0.526l-0.788-0.01c-0.148 0-0.24-0.058-0.24-0.138 0-0.159 0.206-0.298 0.583-0.48 0.114 0.01 0.148 0.01 0.217 0.01 1.186 0 2.054-0.73 2.053-1.745 0-0.388-0.114-0.685-0.331-0.959 0.183 0.023 0.24 0.034 0.377 0.034 0.388 0 0.697-0.124 1.016-0.434zM5.652 6.912c-1.826 0.445-3.07 1.324-3.07 2.329 0 0.627 0.479 1.198 1.267 1.643a2.231 2.231 0 0 1-0.365-1.198c0.01-1.039 0.822-2.009 2.168-2.774zM24.921 10.85c0-0.662-0.411-1.267-1.097-1.769 0.057 0.207 0.104 0.411 0.104 0.617 0 1.884-2.637 3.504-6.381 4.177 0.422 0.046 0.856 0.068 1.312 0.068 3.343-0.01 6.061-1.392 6.062-3.093z m-2.157-1.027c0-0.697-0.594-1.335-1.61-1.861 0.238 0.286 0.365 0.594 0.365 0.914 0 1.677-3.561 3.036-7.967 3.036-4.395 0-7.968-1.358-7.968-3.036 0-0.217 0.057-0.422 0.171-0.617-0.707 0.468-1.107 1.004-1.108 1.575 0 1.814 4.053 3.287 9.054 3.288 4.999 0 9.063-1.496 9.063-3.299zM18.814 9.733c-1.849 1.187-7.534 1.644-9.977 0.114-1.918-1.199-1.256-3.105-6.746-7.283-0.718-0.549 0.138-1.13 0.673-0.753 0.536 0.377 0.046 0.469 1.131 1.552 2.191 2.192 2.168 0.217 2.511 0.971 0.731 1.563 2.329 3.138 2.329 3.138 1.609 1.051 2.888 1.278 5.262-0.331 1.507-1.015 0.89 1.621 4.578-0.284 1.346-0.697 1.29-0.228 2.659-2.136 0.569-0.787 1.656 0.606 0.422 0.799-0.491 0.081-1.325 0.617-1.678 1.462-0.513 1.267-0.297 2.203-1.164 2.751zM8.563 6.514c-0.455-0.206-0.936-0.983-1.118-1.29 0.513-0.503 0.307-1.335 0.01-1.792-0.285-0.455-0.639-0.331-1.014-0.753-0.389-0.424 0.147-1.518 0.638-0.674 1.837 3.162 3.047 1.849 4.544 1.655 1.439-0.183 2.716 0.604 3.105-1.621 0.067-0.365 0.421-0.445 0.456 0.148 0.034 0.606 0.263 2.066 1.05 2.25 0.787 0.194 1.426-0.183 1.61-0.389 0.182-0.207 0.285-0.183 0.365 0.342 0.08 0.514 0.285 1.234 1.392 0.435 2.272-1.621 1.621-2.249 2.511-2.671 0.502-0.24 1.301 0.536 0.15 1.118-1.644 0.833-1.815 1.86-2.854 2.511-1.747 1.096-1.211 0.046-4.018-0.354-1.085-0.148-1.428 1.051-2.272 0.708-1.929-0.799-3.288-0.64-4.554 0.377z m6.085-5.855c0.068 0.479 0.148 0.468 0.32 0.502 0.171 0.046 0.388-0.228 0.388-0.48 0.01-0.263-0.114-0.422-0.366-0.41-0.263 0.01-0.354 0.137-0.342 0.388z m8.446 0.856c0.207 0.194 0.754 0.068 0.879-0.081 0.331-0.364 0.342-0.582 0.171-0.833-0.171-0.239-0.525-0.205-0.88 0.058-0.353 0.262-0.285 0.752-0.169 0.856z m-0.148 2.42c-0.171 0.228-0.182 0.4-0.057 0.524 0.137 0.137 0.411 0.25 0.605 0.104 0.194-0.16 0.194-0.389 0.034-0.583-0.172-0.207-0.4-0.207-0.582-0.045zM5.619 1.08c0.262 0.08 0.387 0.331 0.604 0.045 0.114-0.138 0.124-0.331-0.023-0.538-0.091-0.124-0.525-0.217-0.707-0.033-0.183 0.183-0.01 0.48 0.125 0.526zM0.264 0.92c0.479 0.297 0.787 0.742 1.153 0.341 0.125-0.136 0.273-0.376 0.01-0.855C1.236 0.052 0.608-0.084 0.391 0.052c-0.228 0.124-0.502 0.64-0.125 0.868zM4.682 3.191c0.148 0.159 0.411 0.148 0.571 0.057 0.149-0.091 0.125-0.331-0.023-0.536-0.091-0.126-0.365-0.195-0.549 0-0.182 0.194-0.101 0.364 0 0.479z"/></svg>