<svg fill="#B41717" role="img" viewBox="0 0 26 24" xmlns="http://www.w3.org/2000/svg"><title>Jinja</title><path d="M25.409 0l-0.085 0.042s-4.832 2.302-8.73 2.808c-1.963 0.254-4.822 0.509-7.374 0.656a69.331 69.331 0 0 1-3.446 0.124c-0.971 0.005-1.726-0.034-2.065-0.116a21.38 21.38 0 0 1-2.542-0.776l-0.267-0.105 0.367 1.241-0.974 0.857 0.262 0.462 0.466 0.035 1.114 0.139 0.172 0.544 0.672 0.06 0.337 1.142 0.097 0.006s1.417 0.122 1.866 0.122c0.387 0 0.985-0.042 1.135-0.053l0.026 0.419 0.304 0.058v0.333l-0.847 0.752 0.166 0.03c-0.148 0.011-0.24 0.019-0.53 0.032-0.455 0.018-0.989 0.021-1.274-0.02-0.621-0.091-0.752-0.091-0.751-0.091H3.448l-0.129 0.138-0.049 0.472h0.161l0.059 1.177 3.105-0.12-0.217 3.899-0.021 0.368-2.374-0.135-0.021-0.806h0.57l0.06-0.444 0.491-0.113 0.236-0.33-2.235-0.54-1.805 0.536 0.492 0.411h0.176l0.026 0.353 0.523 0.03v0.808l-0.647 0.166 0.201 0.428 0.112 0.072v0.874h0.363v3.49l-0.599 0.091 0.103 1.32 0.354 0.06-0.058 2.48 1.909 0.035-0.339-2.439 2.099-0.051-0.148 1.151-0.265 1.093 2.763 0.035 0.028-2.414 1.4-0.127-0.076 1.37-0.067 1.048h1.73l-0.056-2.435 0.186 0.028 0.071-1.474h-0.257l-0.062-0.36-0.139-1.366 0.052-1.444h0.313v-1.252l-0.386 0.029 0.043-0.854 0.455-0.045 0.024-0.373 0.182-0.027 0.54-0.412-1.934-0.397-1.811 0.402 0.303 0.496 0.253-0.021 0.057-0.004 0.036 0.468 0.434-0.021 0.004 0.713-1.615-0.037 0.056-0.928 0.062-0.981v-1.284l0.051-1.22 3.69-0.189 4.4-0.254 0.035 0.714-0.161 2.064-0.066 1.792-1.398-0.024-0.007-1.078 0.608-0.022 0.03-0.395 0.286-0.044-0.013-0.06 0.161-0.01 0.307-0.411-2.128-0.499-2.103 0.451 0.273 0.477 0.148-0.011v0.094h0.261v0.426l0.554 0.008-0.006 0.907h-0.558l-0.015 0.535 0.198 0.023-0.022 1.036 0.416 0.021-0.046 3.828-0.554 0.114 0.017 0.448h0.186v1.043h0.306l-0.074 1.276-0.119 1.392 2.298 0.06-0.074-1.241-0.146-0.898-0.023-0.628 1.403-0.025-0.043 1.061-0.009 1.408 1.094 0.087 1.326-0.053 0.564-0.166-0.265-0.805-0.056-1.059-0.084-0.617 1.305-0.048-0.06 0.786-0.007 1.604 0.782 0.073 0.668-0.017 0.441-0.138-0.198-1.508-0.052-0.912 0.265-0.029 0.006-0.948 0.085-0.018-0.029-0.455h-0.321l-0.052-0.558-0.024-2.851 0.235-0.006v-0.955l0.102 0.014v-0.488l-0.354-0.028 0.006-0.886 0.604-0.054-0.035-0.383 0.275-0.022-0.025-0.124 0.614-0.307-2.177-0.437-1.991 0.402 0.245 0.457 0.236-0.021 0.015 0.082h0.215l0.011 0.451 0.579-0.007 0.038 0.819-1.769-0.013-0.224-1.543-0.189-0.874-0.153-1.556 0.079-0.79 4.074-0.31 0.012-1.394 0.213-0.053-0.024-0.402-0.253-0.146h-0.039l-0.378 0.053-0.84 0.123a65.821 65.821 0 0 1-1.721 0.228l-0.201 0.022-0.016-0.189-0.831-0.434 0.006-0.291 0.287-0.009 0.021-0.711c0.095-0.006 0.373-0.025 0.817-0.066 0.513-0.048 1.101-0.111 1.441-0.191 0.632-0.148 1.538-0.297 1.538-0.296l0.08-0.014 0.432-1.173 0.853-0.248 0.069-0.195 1.885-0.521 0.324-0.267-0.759-1.656 0.05-0.25 0.364-0.19 0.315-0.96-0.267-0.236zM15.992 6.419l-0.011 0.557 0.431 0.018-0.017 0.339-0.836 0.549-0.091 0.273-1.969 0.095 0.01-0.195 0.119-0.19 0.011-0.163 0.001-0.242 0.071-0.165 0.032-0.169v-0.098l0.085-0.342z m-5.486 0.489l-0.045 0.279 0.21 0.248-0.014 0.41 0.186 0.286-0.05 0.347 0.027 0.037-1.956 0.078 0.021-0.161-0.692-0.374-0.023-0.366 0.307-0.015 0.031-0.633z m4.251 9.001l1.332 0.086-0.053 2.053 0.194 1.63-1.419-0.048-0.053-3.721z m-10.828 0.089l2.287 0.118L6.011 17.475v1.291l0.145 0.553-2.213 0.104z m16.282 0.01v3.448l-1.366 0.1-0.055-1.825-0.167-1.686z m-12.171 0.081l1.629 0.006 0.018 3.173-1.515 0.027-0.08-0.983-0.007-1.108z"/></svg>