<svg fill="#367C2B" role="img" viewBox="0 0 27 24" xmlns="http://www.w3.org/2000/svg"><title>John Deere</title><path d="M13.498 0c-3.827 0-7.731 0.825-11.398 2.599C0.805 5.7 0.215 8.892 0.215 12.008c0 3.107 0.582 6.263 1.877 9.392 3.686 1.782 7.574 2.6 11.408 2.6 3.835 0 7.725-0.817 11.406-2.599C26.201 18.27 26.785 15.114 26.785 12.008c0-3.115-0.592-6.308-1.886-9.409-3.667-1.774-7.569-2.599-11.399-2.599h-0.001z m0 1.014c3.785 0 7.414 0.838 10.598 2.331 1.075 2.69 1.664 5.61 1.664 8.663 0 3.045-0.584 5.962-1.656 8.646-3.186 1.495-6.817 2.333-10.606 2.333-3.786 0-7.417-0.838-10.603-2.333-1.071-2.684-1.657-5.6-1.657-8.646 0-3.053 0.587-5.972 1.663-8.663 3.187-1.493 6.814-2.331 10.597-2.331z m0 0.761c-3.463 0-6.908 0.739-9.988 2.13-0.996 2.59-1.504 5.314-1.505 8.103 0 2.783 0.507 5.5 1.499 8.089 3.081 1.393 6.53 2.129 9.994 2.128 3.466 0 6.914-0.736 9.994-2.128l0.005-0.004-0.001 0c-0.67-1.102-1.569-1.992-1.579-2.001-0.011-0.006-0.187-0.06-0.187-0.06-1.909-0.587-3.161-1.028-3.714-1.315-0.761-0.395-1.561-1.355-1.649-1.463-0.892-0.067-1.631-0.053-2.341 0.033l-0.452 0.059c-0.863 0.111-1.754 0.23-2.627 0.089-0.581-0.095-1.145-0.281-1.744-0.475-0.922-0.302-1.865-0.612-2.944-0.61H6.216l0.019 0.038c0.245 0.477 1.213 1.923 2.426 2.321 0.267 0.064 0.461 0.135 0.545 0.201 0 0.003 0.464 0.947 0.59 1.202-0.754-0.343-3.088-1.529-4.97-3.82v-0.003c0-0.031-0.049-0.476-0.059-0.573 1.121-0.418 3.645-0.661 3.93-0.688l0.02-0.002 0.01-0.023c0.151-1.328 0.465-2.391 1.054-3.555 0.017-0.035 0.027-0.067 0.027-0.095a0.13 0.13 0 0 0-0.014-0.057c-0.033-0.063-0.114-0.075-0.117-0.075L7.959 8.921a246.105 246.105 0 0 0-0.186-0.567c1.238-0.461 2.765-0.892 3.638-1.082 0.148-0.236 0.189-0.364 0.19-0.518 0-0.131-0.063-0.242-0.19-0.328-0.619-0.42-2.57-0.167-4.543 0.59-0.004-0.008-0.004-0.01-0.01-0.018 0.41-0.307 1.142-0.762 1.685-1.014l0.021-0.012-0.006-0.021c-0.147-0.499-1.111-0.881-1.22-0.92 0.002-0.017 0.004-0.028 0.006-0.041 0.98-0.067 1.63 0.391 1.829 0.719l0.01 0.015 0.019-0.006c0.126-0.041 0.568-0.181 1.048-0.238l0.028-0.001-0.008-0.029c-0.157-0.84-0.959-1.4-1.231-1.569 0.008-0.014 0.01-0.019 0.018-0.029 0.946 0.073 1.82 0.888 2.016 1.577l0.006 0.019 0.02 0.002c0.254 0.009 0.562 0.037 0.767 0.071l0.022 0.004 0.008-0.018a1.454 1.454 0 0 0 0.114-0.572c0-0.62-0.35-1.285-0.781-1.706 0.008-0.012 0.012-0.023 0.023-0.033 1.243 0.472 1.559 1.367 1.559 2.202 0 0.584-0.155 1.14-0.255 1.494l-0.041 0.147 1.954-0.236c-0.186 0.236-0.588 0.656-1.389 1.098 0-0.004-0.826-0.105-0.826-0.106l-0.022-0.003-0.007 0.021c-0.055 0.17-0.539 1.698-0.542 2.821 0 0.416 0.118 0.739 0.351 0.962 0.414 0.398 1.1 0.421 1.579 0.402 2.038-0.075 3.627 0.051 4.731 0.377l0.065 0.018 0.01-0.016c0.069-0.106 0.122-0.301 0.122-0.56 0-0.492-0.197-1.225-0.859-2.054 0.007-0.006 0.007-0.01 0.016-0.017 0.11 0.061 1.897 1.076 2.136 2.608-0.042 0.016-0.857 0.349-0.857 0.349l0.027 0.026c0.755 0.791 1.016 1.747 1.225 2.512 0.166 0.606 0.365 0.993 0.628 1.22 0.305 0.263 1.461 0.815 1.809 0.978 0.289 0.41 0.785 1.178 1.145 1.773a22.491 22.491 0 0 0 1.181-7.204c0-2.789-0.509-5.513-1.504-8.103-3.08-1.391-6.527-2.13-9.99-2.13Z"/></svg>