<svg fill="#5091CD" role="img" viewBox="0 0 25 24" xmlns="http://www.w3.org/2000/svg"><title>Joomla</title><path d="M17.225 14.762L14.723 17.267l-2.373 2.373-0.463 0.466c-1.37 1.367-3.301 1.832-5.053 1.399-0.327 1.426-1.606 2.493-3.134 2.493C1.925 23.998 0.485 22.56 0.485 20.783c0-1.52 1.056-2.792 2.472-3.127-0.447-1.762 0.016-3.71 1.398-5.086l0.179-0.181 2.373 2.373-0.184 0.182c-0.77 0.78-0.77 2.027 0 2.792 0.772 0.781 2.025 0.781 2.79 0l0.466-0.465 2.37-2.374 2.505-2.51 2.371 2.375z m0.925 6.661c-1.824 0.564-3.89 0.12-5.335-1.32l-0.18-0.185 2.368-2.372 0.18 0.184c0.772 0.769 2.021 0.769 2.791 0 0.766-0.766 0.77-2.013-0.004-2.784l-0.467-0.466-2.368-2.373-2.505-2.506 2.373-2.372 2.502 2.508 2.37 2.373 0.465 0.465c1.367 1.362 1.848 3.282 1.413 5.027 1.562 0.224 2.762 1.562 2.762 3.184 0 1.786-1.441 3.214-3.213 3.214-1.547 0-2.855-1.097-3.139-2.568l-0.013-0.009zM7.469 9.458l2.511-2.508 2.373-2.372 0.462-0.462C14.242 2.688 16.277 2.239 18.087 2.778c0.212-1.563 1.557-2.778 3.183-2.778 1.774 0 3.215 1.439 3.215 3.213 0 1.633-1.218 2.982-2.794 3.19 0.52 1.801 0.068 3.821-1.351 5.241l-0.182 0.184-2.372-2.372 0.184-0.184c0.77-0.771 0.77-2.019 0-2.787-0.767-0.767-2.014-0.769-2.785 0.003l-0.462 0.462-2.373 2.372-2.508 2.505-2.373-2.369z m-2.657 2.65l-0.461-0.462C2.918 10.213 2.473 8.165 3.017 6.351 1.586 6.022 0.515 4.745 0.515 3.213 0.515 1.441 1.957 0 3.729 0c1.598 0 2.924 1.167 3.174 2.694 1.732-0.406 3.631 0.065 4.985 1.417l0.184 0.185-2.373 2.373-0.183-0.181c-0.771-0.766-2.019-0.766-2.788 0-0.772 0.782-0.771 2.028-0.005 2.794l0.465 0.466 2.373 2.372 2.508 2.508-2.37 2.373-2.513-2.508-2.374-2.373v-0.012z"/></svg>