<svg fill="#000000" role="img" viewBox="0 0 26 24" xmlns="http://www.w3.org/2000/svg"><title>Jordan</title><path d="M14.656 1.523v-0.081c0-0.374 0.121-0.708 0.361-1.002 0.24-0.294 0.547-0.44 0.921-0.44s0.708 0.12 1.002 0.36 0.454 0.561 0.481 0.962c0.027 0.401-0.094 0.735-0.361 1.002s-0.588 0.401-0.962 0.401l-0.24 0.08 0.08 0.119-0.08 0.442-0.16 1.282c0.053 0.053 0.08 0.107 0.08 0.16l-0.16 0.801c-0.053 0.107-0.107 0.187-0.161 0.241l-0.08 0.32a24.136 24.136 0 0 1-0.481 1.683v0.16c-0.053 0.267-0.093 0.481-0.119 0.641-0.027 0.16-0.121 0.427-0.281 0.802-0.107 0.214-0.107 0.561 0 1.041l0.08 0.081c0 0.16 0.067 0.347 0.201 0.561s0.2 0.401 0.2 0.56c0.053 1.068-0.027 1.977-0.241 2.725l0.16 0.481c0.641 0.321 0.828 0.668 0.561 1.042l0.401 0.16c0.641 0.321 1.095 0.6 1.362 0.841 0.267 0.24 0.534 0.495 0.802 0.762 0.214 0.053 0.374 0.134 0.481 0.24l0.24 0.08c1.122 0.748 2.244 1.656 3.366 2.725l0.32 0.24v0.08l-0.08 0.16 0.24 0.161h0.08c0.16 0.107 0.267 0.16 0.321 0.16h0.08c0.053 0 0.107-0.027 0.16-0.08l0.161-0.08c0.107-0.107 0.214-0.187 0.32-0.241h0.321c0.053 0 0.053 0.027 0 0.08l-0.321 0.161-0.4 0.48h0.56l0.561 0.081c0.16-0.053 0.294-0.107 0.401-0.161l0.401-0.24c0.16-0.053 0.321 0 0.481 0.16h0.08c0.053 0.053 0.027 0.134-0.08 0.241l-0.962 0.881c-0.267 0.214-0.508 0.347-0.721 0.401l-1.042 0.721c-0.053 0.053-0.107 0.053-0.16 0l-0.241-0.321-0.16-0.32-0.201-0.281-0.24-0.321-0.2-0.24-0.16-0.2-0.321-0.24c-0.107 0-0.214-0.027-0.32-0.08l-1.042-0.802c-0.16 0-0.347-0.08-0.561-0.24-0.801-0.694-1.336-1.122-1.603-1.282l-0.48-0.321-0.962-0.16c-0.321-0.053-0.748-0.214-1.282-0.481l-0.641-0.32c-0.427-0.214-0.721-0.321-0.882-0.321l-0.32-0.16c-0.214-0.053-0.374-0.107-0.481-0.16l-0.16-0.161c-0.107 0-0.214 0.027-0.321 0.08l-1.603 0.802-2.003 0.881c-0.534 0.427-1.042 0.775-1.522 1.042l-0.882 0.401-1.362 0.961c-0.107 0.107-0.214 0.107-0.321 0l-0.16 0.16c-0.16 0.053-0.267 0.08-0.321 0.081l-0.32 0.16v0.16H3.598l-0.161 0.241c-0.107 0.214-0.214 0.333-0.32 0.36-0.107 0.027-0.173 0.067-0.2 0.12a0.464 0.464 0 0 1-0.08 0.12l-0.16 0.16-0.241 0.161-0.361-0.04-0.481 0.08-0.32 0.08c-0.267 0.053-0.481 0.013-0.641-0.12-0.16-0.134-0.294-0.333-0.401-0.601-0.107-0.16-0.053-0.294 0.16-0.401l0.08-0.08c0.053-0.053 0.134-0.08 0.241-0.08h0.481l0.641-0.24 0.32-0.08c0-0.107 0.027-0.187 0.08-0.241 0.053-0.053 0.134-0.08 0.241-0.08v-0.08a0.712 0.712 0 0 1-0.08-0.321c-0.053-0.107-0.067-0.187-0.04-0.24 0.027-0.053 0.053-0.08 0.08-0.08h0.04l0.08 0.24c0.053 0.267 0.134 0.347 0.24 0.241l0.08-0.161c0.053-0.107 0.134-0.16 0.241-0.16l0.16 0.16 0.16-0.16-0.08-0.08c0-0.053 0.027-0.08 0.08-0.08l0.321-0.321c0.267-0.321 0.588-0.614 0.962-0.881 0.748-0.588 1.549-1.042 2.404-1.362 0.267-0.267 0.561-0.401 0.881-0.401 0.214-0.374 0.534-0.775 0.962-1.202 0.374-0.267 0.641-0.454 0.801-0.561 0.107-0.214 0.24-0.321 0.401-0.321h0.08l0.16-0.16c0.107-0.053 0.187-0.107 0.24-0.16v-0.401c0-0.267 0.027-0.481 0.081-0.641 0.053-0.16 0.187-0.24 0.4-0.24l0.321-0.321c-0.107-0.214-0.16-0.454-0.161-0.721h-0.08c-0.107-0.16-0.16-0.321-0.16-0.481-0.16-0.267-0.267-0.481-0.32-0.641H10.489c-0.053 0.16-0.187 0.267-0.401 0.321l-0.08 0.16c-0.214 0.374-0.401 0.654-0.561 0.841-0.16 0.187-0.454 0.415-0.881 0.682-0.267 0.267-0.454 0.561-0.561 0.881-0.053 0.16-0.053 0.321 0 0.481l-0.08 0.16h0.08c0 0.107 0.027 0.16 0.08 0.16h0.08c0.107 0.053 0.16 0.12 0.161 0.2s-0.08 0.107-0.241 0.08a0.647 0.647 0 0 1-0.36-0.16c-0.08-0.08-0.147-0.12-0.201-0.12l-0.24 0.241c-0.107 0.16-0.214 0.227-0.321 0.2-0.107-0.027-0.134-0.066-0.08-0.12l0.08-0.08c0.053-0.107 0.053-0.16 0-0.161l-0.641 0.161c-0.053 0.053-0.12 0.053-0.2 0s-0.067-0.107 0.04-0.161l0.401-0.16c0-0.053-0.027-0.08-0.081-0.08-0.214 0.107-0.427 0.134-0.641 0.08l-0.4-0.08-0.08-0.08c0-0.053 0.027-0.08 0.08-0.08 0.214 0.053 0.481 0.027 0.801-0.08l0.561-0.241 0.641-0.721 0.08-0.16c0.214-0.427 0.441-0.815 0.682-1.163a3.932 3.932 0 0 1 0.761-0.841l0.08-0.32c0.107-0.214 0.214-0.401 0.32-0.561 0.107-0.16 0.24-0.374 0.401-0.641l0.24-0.321c0.214-0.321 0.454-0.481 0.722-0.48l0.24-0.241c0.053-0.053 0.08-0.134 0.08-0.24l0.16-0.161-0.08-0.08c-0.321-0.267-0.481-0.508-0.481-0.721-0.053-0.374 0.067-0.694 0.362-0.961s0.588-0.388 0.881-0.362c0.294 0.027 0.52 0.121 0.681 0.281l0.16 0.161c0.053 0 0.08 0.027 0.08 0.08l0.321 0.16v0.24c0.107 0.107 0.16 0.187 0.16 0.241 0.107-0.16 0.267-0.347 0.481-0.561l0.4-1.282c0-0.214 0.053-0.427 0.161-0.641l0.16-0.241v-0.16l0.24-0.962h0.16l0.241-0.961a0.997 0.997 0 0 0 0-0.561l-0.321-0.801-0.16-0.641z"/></svg>