<svg fill="#E1B133" role="img" viewBox="0 0 127 24" xmlns="http://www.w3.org/2000/svg"><title>JOUAV</title><path d="M25.712 17.825l0.59-0.363a7.144 7.143 90 0 1-2.533-5.459 7.212 7.212 90 0 1 7.233-7.186c2.158 0 4.085 0.948 5.422 2.432l0.085-0.142c0.605-1.069 1.19-2.116 1.631-3.159 0.2-0.411 0.347-0.826 0.511-1.226a12.024 12.023 90 0 0-7.643-2.722 12.039 12.039 90 0 0-12.081 12.003c0 2.959 1.079 5.664 2.863 7.754a13.129 13.129 90 0 0 0.742-0.305c1.053-0.453 2.106-1.027 3.18-1.627z m14.223-13.908a25.416 25.415 90 0 1-1.642 4.143 35.318 35.317 90 0 1-0.621 1.137 7.159 7.159 90 0 1 0.568 2.8 7.212 7.212 90 0 1-9.896 6.681 30.701 30.7 90 0 1-1.663 0.921 25.584 25.583 90 0 1-3.543 1.432l-0.063 0.021a12.071 12.07 90 0 0 7.927 2.948 12.039 12.039 90 0 0 12.081-12.003 11.881 11.881 90 0 0-3.148-8.08z m-32.647-3.543H14.652v14.498c0 3.116-0.769 5.412-2.3 6.896-1.537 1.474-3.922 2.211-7.159 2.211A19.53 19.53 90 0 1 0.329 23.373v-5.048a7.465 7.464 90 0 0 2.347 0.395c1.663 0 2.843-0.405 3.548-1.211 0.711-0.805 1.063-2.2 1.064-4.18v-12.95z m39.77 0h7.369v13.424c0 1.969 0.342 3.39 1.048 4.274 0.7 0.874 1.821 1.316 3.358 1.316 1.579 0 2.774-0.474 3.58-1.421 0.805-0.937 1.205-2.332 1.205-4.169v-13.424h7.012v13.424c0 3.401-0.984 5.949-2.948 7.638-1.964 1.695-4.911 2.543-8.843 2.543-3.895 0-6.838-0.853-8.812-2.559-1.979-1.711-2.964-4.248-2.964-7.622v-13.424z m36.401 0h8.88l10.449 23.073h-7.869l-1.959-4.885h-10.633l-2.053 4.885h-7.291z m4.29 5.148l-3.58 8.655h7.038z m11.444-5.148h7.696l6.159 17.956 6.085-17.951H126.671l-9.359 23.068h-9.233z"/></svg>