<svg fill="#0769AD" role="img" viewBox="0 0 25 24" xmlns="http://www.w3.org/2000/svg"><title>jQuery</title><path d="M1.625 5.636c-2.207 3.171-1.933 7.294-0.246 10.661 0.038 0.082 0.081 0.16 0.123 0.238 0.024 0.054 0.051 0.104 0.08 0.156 0.013 0.028 0.032 0.058 0.048 0.085 0.027 0.054 0.056 0.106 0.084 0.158l0.163 0.276c0.031 0.051 0.059 0.101 0.094 0.151 0.058 0.098 0.125 0.194 0.185 0.292 0.027 0.042 0.052 0.081 0.082 0.122a6.611 6.611 0 0 0 0.321 0.462c0.081 0.111 0.162 0.219 0.25 0.327 0.028 0.039 0.06 0.079 0.089 0.119l0.228 0.279c0.029 0.031 0.057 0.07 0.088 0.103 0.102 0.123 0.21 0.242 0.317 0.364l0.005 0.006a3.254 3.254 0 0 0 0.442 0.457c0.083 0.086 0.166 0.171 0.254 0.254l0.105 0.101c0.115 0.109 0.232 0.217 0.353 0.32 0.002 0 0.003 0.002 0.005 0.004l0.059 0.051c0.106 0.092 0.213 0.185 0.322 0.27l0.13 0.109c0.088 0.071 0.181 0.138 0.27 0.208l0.142 0.109c0.097 0.073 0.199 0.144 0.298 0.215 0.036 0.026 0.073 0.052 0.11 0.076l0.031 0.024 0.291 0.192 0.124 0.083c0.154 0.098 0.305 0.191 0.457 0.282 0.043 0.021 0.087 0.046 0.128 0.071 0.112 0.064 0.228 0.13 0.341 0.19 0.062 0.035 0.127 0.065 0.191 0.097 0.078 0.044 0.159 0.086 0.243 0.13a0.336 0.336 0 0 1 0.059 0.024c0.034 0.016 0.066 0.032 0.099 0.049 0.125 0.062 0.254 0.123 0.39 0.181 0.025 0.01 0.052 0.021 0.078 0.036 0.149 0.065 0.3 0.128 0.455 0.189 0.035 0.01 0.073 0.028 0.109 0.041 0.14 0.053 0.284 0.107 0.427 0.158l0.052 0.019c0.16 0.054 0.317 0.106 0.477 0.155 0.037 0.01 0.076 0.024 0.116 0.035 0.166 0.05 0.326 0.109 0.492 0.142 10.665 1.943 13.764-6.413 13.764-6.413-2.604 3.391-7.224 4.285-11.601 3.29-0.162-0.037-0.324-0.089-0.488-0.137a14.056 14.056 0 0 1-0.588-0.189l-0.065-0.025c-0.141-0.048-0.277-0.101-0.415-0.154a1.677 1.677 0 0 0-0.114-0.041c-0.154-0.062-0.301-0.126-0.45-0.191-0.032-0.01-0.059-0.025-0.091-0.037a24.335 24.335 0 0 1-0.376-0.177 1.542 1.542 0 0 1-0.11-0.054c-0.098-0.046-0.195-0.099-0.291-0.148a4.098 4.098 0 0 1-0.194-0.1c-0.118-0.062-0.236-0.13-0.353-0.194-0.035-0.025-0.076-0.046-0.116-0.069a16.53 16.53 0 0 1-0.456-0.28 2.187 2.187 0 0 1-0.122-0.081 6.239 6.239 0 0 1-0.324-0.215c-0.036-0.024-0.07-0.05-0.107-0.076a9.918 9.918 0 0 1-0.306-0.22c-0.044-0.035-0.09-0.069-0.137-0.104-0.091-0.073-0.184-0.14-0.276-0.216l-0.122-0.098a10.997 10.997 0 0 1-0.348-0.291 0.268 0.268 0 0 0-0.038-0.032l-0.361-0.328-0.103-0.098c-0.085-0.087-0.172-0.17-0.26-0.255l-0.102-0.104a9.428 9.428 0 0 1-0.32-0.335l-0.016-0.017c-0.11-0.12-0.218-0.244-0.325-0.368-0.028-0.031-0.055-0.066-0.083-0.101l-0.236-0.288a22.087 22.087 0 0 1-0.353-0.466C2.276 11.782 1.398 7.208 3.34 3.457m5.132-0.491c-1.599 2.295-1.51 5.366-0.264 7.795a9.459 9.459 0 0 0 0.704 1.176c0.239 0.343 0.502 0.749 0.823 1.026 0.111 0.127 0.232 0.249 0.358 0.373l0.093 0.094c0.118 0.114 0.241 0.225 0.363 0.337l0.017 0.014a10.244 10.244 0 0 0 0.43 0.355c0.035 0.024 0.065 0.052 0.099 0.076 0.145 0.112 0.293 0.22 0.445 0.328l0.015 0.009c0.064 0.047 0.133 0.089 0.206 0.135 0.029 0.019 0.062 0.044 0.093 0.062 0.11 0.071 0.218 0.137 0.33 0.205 0.018 0.007 0.033 0.017 0.05 0.024 0.093 0.057 0.195 0.112 0.293 0.163 0.034 0.021 0.067 0.036 0.104 0.056 0.069 0.034 0.137 0.071 0.204 0.106l0.034 0.014c0.14 0.07 0.283 0.134 0.423 0.197 0.035 0.015 0.065 0.026 0.096 0.041 0.115 0.05 0.233 0.098 0.349 0.142 0.052 0.018 0.101 0.038 0.149 0.054 0.106 0.039 0.218 0.076 0.322 0.112l0.145 0.047c0.153 0.047 0.306 0.108 0.466 0.135C23.052 17.405 24.958 11.064 24.958 11.064c-1.716 2.471-5.037 3.647-8.576 2.728a8.347 8.347 0 0 1-0.466-0.135c-0.05-0.015-0.093-0.03-0.142-0.044-0.108-0.037-0.219-0.073-0.323-0.114l-0.15-0.056c-0.117-0.047-0.236-0.09-0.349-0.14-0.035-0.016-0.067-0.026-0.094-0.041-0.145-0.065-0.292-0.13-0.434-0.2l-0.214-0.111-0.124-0.062a5.89 5.89 0 0 1-0.275-0.156 0.644 0.644 0 0 1-0.064-0.036c-0.11-0.069-0.225-0.135-0.33-0.206-0.035-0.02-0.067-0.044-0.101-0.064l-0.216-0.141c-0.149-0.104-0.296-0.216-0.444-0.325-0.033-0.03-0.065-0.055-0.098-0.082-1.556-1.223-2.783-2.897-3.366-4.789-0.613-1.969-0.478-4.177 0.582-5.97m4.456-0.152c-0.944 1.385-1.034 3.104-0.384 4.63 0.69 1.623 2.101 2.897 3.745 3.499 0.067 0.026 0.133 0.048 0.204 0.072l0.091 0.028c0.096 0.031 0.192 0.065 0.291 0.087 4.548 0.877 5.78-2.336 6.111-2.807-1.083 1.555-2.899 1.928-5.127 1.386a5.035 5.035 0 0 1-0.536-0.166 6.595 6.595 0 0 1-0.641-0.264 6.779 6.779 0 0 1-1.124-0.685c-1.995-1.513-3.232-4.398-1.93-6.748"/></svg>