<svg fill="#0084FF" role="img" viewBox="0 0 35 24" xmlns="http://www.w3.org/2000/svg"><title>JSFiddle</title><path d="M20.215 0c-3.928 0-7.292 2.206-9.074 5.4-0.766-0.453-1.628-0.772-2.58-0.772-2.831 0-5.144 2.295-5.144 5.114 0 0.376 0.09 0.733 0.168 1.089C1.656 12.129 0.353 14.289 0.353 16.778c0 3.948 3.202 7.162 7.156 7.222a0.602 0.602 0 0 0 0.012 0h20.004c3.924 0.024 7.122-3.152 7.122-7.055 0-2.781-1.648-5.147-4-6.301 0.004-0.089 0.014-0.164 0.015-0.263 0-5.727-4.687-10.381-10.446-10.381z m0 1.205c5.115 0 9.245 4.104 9.245 9.176 0 0.164-0.017 0.346-0.029 0.553a0.602 0.602 0 0 0 0.372 0.592 5.864 5.864 0 0 1 3.638 5.419 5.85 5.85 0 0 1-5.909 5.853 0.602 0.602 0 0 0-0.004 0H7.526C4.214 22.745 1.559 20.078 1.559 16.778c0-2.208 1.192-4.12 2.972-5.172a0.602 0.602 0 0 0 0.267-0.701 3.859 3.859 0 0 1-0.178-1.163 3.917 3.917 0 0 1 3.941-3.909 3.929 3.929 0 0 1 2.409 0.823 0.602 0.602 0 0 0 0.909-0.215A9.234 9.234 0 0 1 20.215 1.203z m-7.616 9.826c-2.266 0-4.158 1.733-4.158 3.911 0 2.176 1.892 3.909 4.158 3.91 2.016 0 3.118-1.33 3.566-1.809a0.602 0.602 0 1 0-0.876-0.826c-0.54 0.574-1.17 1.432-2.69 1.431-1.66 0-2.955-1.229-2.955-2.706 0-1.479 1.295-2.708 2.955-2.708 0.762 0 1.579 0.424 2.409 1.101 0.532 0.433 1.053 0.955 1.569 1.49a0.602 0.602 0 0 0 0.121 0.176c0.762 0.789 1.603 1.722 2.535 2.48 0.932 0.759 1.98 1.37 3.168 1.371 2.266 0 4.158-1.733 4.158-3.91 0-2.178-1.892-3.911-4.158-3.911-2.016 0-3.118 1.33-3.566 1.809a0.602 0.602 0 1 0 0.876 0.826c0.54-0.574 1.17-1.432 2.69-1.432 1.66 0 2.955 1.229 2.955 2.708 0 1.477-1.295 2.706-2.955 2.706-0.762 0-1.579-0.424-2.409-1.1-0.532-0.433-1.053-0.957-1.569-1.492a0.602 0.602 0 0 0-0.121-0.173c-0.762-0.789-1.603-1.726-2.535-2.484-0.932-0.757-1.98-1.367-3.168-1.368Z"/></svg>