<svg fill="#F7DF1E" role="img" viewBox="0 0 31 24" xmlns="http://www.w3.org/2000/svg"><title>JSS</title><path d="M0.342 0v24h24.253v-2.463c0.639 0.332 1.42 0.531 2.345 0.53 2.131 0 3.717-1.108 3.718-3.126 0-1.873-1.076-2.707-2.981-3.524l-0.561-0.24c-0.963-0.417-1.379-0.69-1.379-1.362 0-0.544 0.417-0.961 1.073-0.961 0.644 0 1.059 0.272 1.443 0.96l1.747-1.121c-0.739-1.3-1.763-1.796-3.19-1.796-0.903 0-1.657 0.261-2.215 0.701V0z m0.455 0.453h23.343v11.599a2.862 2.862 0 0 0-0.615 1.809c0 0.826 0.222 1.455 0.614 1.96v3.205l-1.286 0.747c0.293 0.576 0.72 1.091 1.286 1.487v2.287H0.798z m17.922 10.444c-2.003 0-3.284 1.281-3.285 2.964 0 1.825 1.074 2.691 2.693 3.379l0.56 0.24c1.023 0.448 1.633 0.72 1.633 1.49 0 0.642-0.594 1.105-1.522 1.105-1.107 0-1.732-0.577-2.213-1.361l-1.823 1.059c0.658 1.301 2.005 2.294 4.088 2.294 2.131 0 3.717-1.107 3.717-3.126 0-1.873-1.076-2.707-2.982-3.524l-0.561-0.24c-0.963-0.417-1.379-0.69-1.379-1.362 0-0.544 0.417-0.961 1.074-0.961 0.644 0 1.059 0.272 1.443 0.96l1.746-1.121c-0.738-1.3-1.763-1.796-3.189-1.796z m-7.413 0.128v7.627c0 1.122-0.465 1.41-1.201 1.409-0.771 0-1.091-0.528-1.444-1.153l-1.826 1.105c0.529 1.119 1.569 2.049 3.365 2.049 1.988 0 3.35-1.057 3.35-3.38v-7.657z m13.289 5.271c0.436 0.373 0.987 0.672 1.624 0.944l0.56 0.24c1.023 0.448 1.633 0.72 1.633 1.49 0 0.642-0.594 1.105-1.523 1.105-1.107 0-1.731-0.577-2.213-1.361l-0.081 0.046z"/></svg>