<svg fill="#6CD74A" role="img" viewBox="0 0 77 24" xmlns="http://www.w3.org/2000/svg"><title>JUKE</title><path d="M25.684 24c-6.184 0-8.738-2.951-8.738-8.195V0.594c0-0.324 0.267-0.584 0.598-0.584h4.761c0.33 0 0.597 0.26 0.597 0.584v15.31a2.763 2.763 0 0 0 2.782 2.592c1.48 0 2.7-1.137 2.783-2.592v-15.31a0.597 0.597 0 0 1 0.597-0.588h4.758c0.33 0 0.597 0.264 0.597 0.588v15.211c0 5.247-2.557 8.195-8.738 8.195h0.003Zm-14.277-8.449c0 5.247-2.306 8.204-8.471 8.204H0.982A0.591 0.591 0 0 1 0.385 23.168v-4.342c0-0.324 0.267-0.588 0.597-0.588h2.151c2.02 0 2.319-1.067 2.319-2.334V4.32a1.261 1.261 0 0 0-0.499-0.998L1.208 0.743a0.407 0.407 0 0 1-0.133-0.46 0.422 0.422 0 0 1 0.397-0.277h9.335c0.33 0 0.597 0.264 0.597 0.588v14.957h0.003Zm34.707 0.337v6.972a0.594 0.594 0 0 1-0.597 0.587h-4.764a0.594 0.594 0 0 1-0.582-0.571V0.594c0-0.318 0.257-0.578 0.582-0.588h4.764c0.33 0 0.597 0.264 0.597 0.588v6.988c0 0.343 0.143 0.388 0.321 0.089l4.202-7.15c0.254-0.432 0.505-0.511 1.068-0.511h5.628c0.327 0 0.435 0.267 0.238 0.587l-6.553 10.758a0.788 0.788 0 0 0 0 0.759l6.553 10.758c0.181 0.321 0.089 0.588-0.238 0.588h-5.628c-0.569 0-0.816-0.095-1.071-0.511l-4.202-7.147c-0.178-0.299-0.321-0.26-0.321 0.083l0.003 0.003Zm30.499-4.155a0.499 0.499 0 0 1-0.295 0.413l-7.643 4.606a0.324 0.324 0 0 0-0.184 0.289c0 0.124 0.073 0.235 0.181 0.289l7.769 5.38a0.413 0.413 0 0 1 0.134 0.461 0.426 0.426 0 0 1-0.4 0.276h-13.655a0.594 0.594 0 0 1-0.597-0.571V0.588c0-0.324 0.267-0.588 0.597-0.588h13.674c0.178 0 0.34 0.111 0.397 0.276a0.41 0.41 0 0 1-0.134 0.461l-7.766 5.377a0.318 0.318 0 0 0 0 0.578l7.608 4.625c0.206 0.118 0.311 0.254 0.311 0.413l0.003 0.003Z"/></svg>