<svg fill="#F37626" role="img" viewBox="0 0 19 24" xmlns="http://www.w3.org/2000/svg"><title>Jupyter</title><path d="M4.657 22.201A1.799 1.784 90 0 1 2.874 24a1.799 1.784 90 0 1-1.784-1.799 1.799 1.784 90 0 1 1.784-1.799 1.799 1.784 90 0 1 1.783 1.799zM18.082 1.427a1.427 1.415 90 0 1-1.415 1.428 1.427 1.415 90 0 1-1.416-1.428A1.427 1.415 90 0 1 16.668 0a1.427 1.415 90 0 1 1.415 1.427zM2.492 3.336A1.056 1.047 90 0 1 1.446 4.39a1.056 1.047 90 0 1-1.047-1.055A1.056 1.047 90 0 1 1.446 2.28a1.056 1.047 90 0 1 1.046 1.056z m7.336 1.517c3.769 0 7.06 1.38 8.768 3.424a9.363 9.363 0 0 0-3.393-4.547 9.238 9.238 0 0 0-5.377-1.728A9.238 9.238 0 0 0 4.45 3.73a9.363 9.363 0 0 0-3.394 4.547c1.713-2.04 5.004-3.424 8.773-3.424z m0.001 13.295c-3.768 0-7.06-1.381-8.768-3.425a9.363 9.363 0 0 0 3.394 4.547A9.238 9.238 0 0 0 9.83 21a9.238 9.238 0 0 0 5.377-1.729 9.363 9.363 0 0 0 3.393-4.547c-1.712 2.044-5.003 3.425-8.772 3.425Z"/></svg>