<svg fill="#FFC61C" role="img" viewBox="0 0 30 24" xmlns="http://www.w3.org/2000/svg"><title>K3s</title><path d="M26.551 0H3.449A3.111 3.111 0 0 0 0.347 3.102v17.796a3.111 3.111 0 0 0 3.102 3.102h23.102a3.111 3.111 0 0 0 3.102-3.102V3.103a3.111 3.111 0 0 0-3.102-3.102ZM12.729 17.453L7.092 20.731a1.508 1.508 0 1 1-1.516-2.609L11.215 14.846a1.508 1.508 0 1 1 1.515 2.608z m2.218-4.992h-0.007a1.508 1.508 0 0 1-1.502-1.514l0.028-6.496a1.509 1.509 0 0 1 1.51-1.502h0.006a1.508 1.508 0 0 1 1.502 1.515l-0.028 6.496a1.509 1.509 0 0 1-1.509 1.502z m9.977 7.717a1.508 1.508 0 0 1-2.062 0.553l-5.646-3.26a1.508 1.508 0 1 1 1.508-2.613l5.646 3.26a1.508 1.508 0 0 1 0.552 2.061z"/></svg>