<svg fill="#7D64FF" role="img" viewBox="0 0 25 24" xmlns="http://www.w3.org/2000/svg"><title>k6</title><path d="M24.865 24H0.135L8.368 6.439l4.959 3.645L19.795 0Zm-9.068-3.793h0.054a2.362 2.362 0 0 0 1.641-0.659 2.151 2.151 0 0 0 0.706-1.624 1.97 1.97 0 0 0-0.68-1.557 2.069 2.069 0 0 0-1.412-0.608h-0.041a0.738 0.738 0 0 0-0.205 0.028l1.306-1.941-1.041-0.726-0.492 0.726-1.257 1.921c-0.216 0.319-0.398 0.6-0.51 0.794-0.115 0.206-0.216 0.422-0.299 0.644a2.001 2.001 0 0 0-0.142 0.74 2.149 2.149 0 0 0 0.697 1.606c0.435 0.423 1.019 0.66 1.626 0.659Zm-5.528-2.089l1.441 2.039h1.541l-1.695-2.365 1.505-2.091-1-0.691-0.44 0.582-1.354 1.909v-3.838l-1.35-1.1v7.594h1.35v-2.041Zm5.53 0.817a0.992 0.992 0 1 1 0-1.986h0.01a0.97 0.97 0 0 1 0.699 0.299 0.924 0.924 0 0 1 0.299 0.688 1.008 1.008 0 0 1-1.007 0.997Z"/></svg>