<svg fill="#20BEFF" role="img" viewBox="0 0 62 24" xmlns="http://www.w3.org/2000/svg"><title>Kaggle</title><path d="M0.313 0c-0.176 0-0.264 0.088-0.263 0.263v17.415c0 0.176 0.088 0.264 0.263 0.263h1.818c0.175 0 0.264-0.088 0.264-0.263v-3.82l1.08-1.028 3.873 4.926c0.106 0.123 0.228 0.185 0.369 0.185h2.344c0.123 0 0.193-0.035 0.211-0.105 0.035-0.106 0.017-0.193-0.053-0.264l-5.111-6.349 4.901-4.742c0.053-0.053 0.061-0.132 0.026-0.237-0.035-0.087-0.105-0.132-0.211-0.132h-2.424c-0.123 0-0.246 0.062-0.368 0.185L2.395 10.986V0.263c0-0.175-0.088-0.263-0.264-0.263z m46.533 0c-0.175 0-0.263 0.088-0.263 0.263v17.415c0 0.176 0.088 0.263 0.263 0.263h1.819c0.175 0 0.263-0.088 0.263-0.263v-17.415c0-0.175-0.088-0.263-0.263-0.263zM15.424 5.875c-1.458 0-2.863 0.466-4.216 1.397-0.141 0.141-0.167 0.263-0.079 0.369l0.948 1.343c0.07 0.123 0.185 0.141 0.343 0.052 1.018-0.702 2.02-1.054 3.004-1.053 0.755 0 1.33 0.229 1.725 0.685 0.395 0.457 0.567 1.01 0.514 1.66-1.704 0.176-2.978 0.386-3.821 0.632-2.143 0.615-3.214 1.783-3.214 3.504 0 1.089 0.395 1.985 1.186 2.687 0.808 0.685 1.765 1.027 2.872 1.027 1.212 0 2.204-0.29 2.977-0.87v0.37c0 0.176 0.096 0.263 0.289 0.263h1.818c0.175 0 0.263-0.087 0.263-0.263V10.38c0-1.703-0.579-2.942-1.738-3.715-0.791-0.527-1.748-0.79-2.871-0.79z m11.148 0c-1.739 0-3.082 0.676-4.03 2.029-0.808 1.124-1.212 2.494-1.212 4.11 0 1.703 0.421 3.117 1.264 4.241 0.966 1.282 2.301 1.923 4.005 1.923 1.37 0 2.468-0.342 3.293-1.027v1.369c0 2.213-1.063 3.319-3.188 3.32-0.931 0-1.888-0.492-2.871-1.475a0.253 0.253 0 0 0-0.185-0.079c-0.088 0-0.158 0.026-0.211 0.079l-1.238 1.238c-0.105 0.158-0.097 0.29 0.026 0.395 0.351 0.298 0.659 0.549 0.923 0.751 0.263 0.202 0.491 0.364 0.685 0.487 0.913 0.509 1.879 0.764 2.898 0.764 1.756 0 3.113-0.496 4.07-1.488 0.957-0.992 1.436-2.446 1.436-4.36V6.376c0-0.175-0.088-0.263-0.263-0.263h-1.819c-0.176 0-0.263 0.088-0.263 0.263v0.527c-0.895-0.685-2.002-1.028-3.32-1.028z m12.386 0c-1.739 0-3.082 0.676-4.031 2.029-0.808 1.124-1.212 2.494-1.212 4.11 0 1.703 0.421 3.117 1.265 4.241 0.966 1.282 2.301 1.923 4.004 1.923 1.37 0 2.467-0.342 3.293-1.027v1.369c0 2.213-1.063 3.319-3.187 3.32-0.931 0-1.888-0.492-2.872-1.475a0.253 0.253 0 0 0-0.185-0.079c-0.088 0-0.158 0.026-0.21 0.079l-1.238 1.238c-0.105 0.158-0.097 0.29 0.026 0.395 0.352 0.298 0.659 0.549 0.922 0.751 0.263 0.202 0.492 0.364 0.685 0.487 0.913 0.509 1.879 0.764 2.899 0.764 1.756 0 3.113-0.496 4.07-1.488 0.957-0.992 1.435-2.446 1.435-4.36V6.376c0-0.175-0.088-0.263-0.263-0.263h-1.818c-0.176 0-0.264 0.088-0.264 0.263v0.527c-0.896-0.685-2.002-1.028-3.319-1.028z m17.398 0c-1.686 0-3.056 0.544-4.11 1.633-1.142 1.195-1.713 2.652-1.713 4.374 0 1.827 0.58 3.328 1.74 4.505 1.194 1.194 2.688 1.791 4.479 1.791 1.668 0 3.135-0.474 4.399-1.422 0.141-0.106 0.141-0.228 0-0.369l-1.239-1.265c-0.106-0.105-0.237-0.105-0.395 0-0.773 0.545-1.642 0.817-2.608 0.817-1.089 0-1.993-0.307-2.713-0.922-0.632-0.58-1.001-1.299-1.107-2.16h8.562c0.175 0 0.264-0.088 0.264-0.264l0.026-0.579c0.088-1.774-0.43-3.25-1.554-4.427-1.089-1.142-2.433-1.713-4.031-1.712z m-0.053 2.029c0.843 0 1.564 0.272 2.161 0.816 0.632 0.544 0.957 1.221 0.975 2.029h-6.35c0.158-0.843 0.536-1.528 1.133-2.055 0.597-0.527 1.291-0.79 2.081-0.79z m-29.467 0.263c1.598 0 2.617 0.563 3.056 1.686v4.347c-0.439 1.124-1.484 1.686-3.135 1.686-0.808 0-1.467-0.254-1.976-0.764-0.685-0.649-1.027-1.686-1.027-3.109 0-2.564 1.028-3.847 3.082-3.846z m12.385 0c1.598 0 2.617 0.563 3.057 1.686h-0.001v4.347c-0.439 1.124-1.484 1.686-3.135 1.686-0.808 0-1.467-0.254-1.976-0.764-0.685-0.649-1.027-1.686-1.027-3.109 0-2.564 1.027-3.847 3.082-3.846z m-21.558 4.268v2.634c-0.738 0.738-1.722 1.063-2.951 0.975-0.439-0.035-0.825-0.171-1.159-0.408-0.334-0.237-0.527-0.549-0.58-0.936-0.088-0.685 0.299-1.212 1.159-1.58 0.632-0.281 1.809-0.509 3.531-0.685z"/></svg>