<svg fill="#FFB319" role="img" viewBox="0 0 16 24" xmlns="http://www.w3.org/2000/svg"><title>Kagi</title><path d="M10.483 18.392h-5.109c-1.383 0-1.623-1.508-1.383-2.111 0.12-0.301 0.421-0.724 0.661-1.025 0.962 0.543 2.104 0.844 3.306 0.845 3.847 0 6.913-3.136 6.913-6.935 0-2.05-0.902-3.859-2.284-5.186l0.18-0.181c0.36-0.362 0.902-0.603 1.443-0.543l0.841 0.061V0h-1.442c-1.683 0-3.066 1.025-3.667 2.472-0.601-0.181-1.262-0.302-1.923-0.301-3.847 0-6.913 3.136-6.913 6.934 0 1.508 0.481 2.955 1.322 4.101-0.12 0.121-0.3 0.241-0.42 0.301l-0.181 0.181c-1.383 1.327-2.044 3.015-1.683 4.945 0.18 1.025 1.082 2.111 1.984 2.714 0.601 0.422 1.382 0.603 2.164 0.603l5.77-0.242c0.661 0 1.262 0.301 1.623 0.905L12.406 24l3.547-1.206-0.601-1.327c-0.902-1.869-2.765-3.075-4.869-3.075M8.019 5.849c1.803 0 3.306 1.508 3.306 3.317s-1.503 3.317-3.306 3.316-3.306-1.508-3.306-3.316c0-1.869 1.443-3.317 3.306-3.317"/></svg>