<svg fill="#FFCD00" role="img" viewBox="0 0 79 24" xmlns="http://www.w3.org/2000/svg"><title>Kakao</title><path d="M10.315 6.9l2.141 1.546-5.264 6.602 6.097 7.316-2.112 1.636-7.197-8.804z m-7.317 16.682H0.262V0.595l2.736-0.595z m68.483-14.333c-1.427 0-2.523 0.535-3.286 1.606-0.764 1.071-1.146 2.637-1.146 4.698 0 2.043 0.382 3.584 1.146 4.625 0.763 1.041 1.859 1.561 3.286 1.561 1.446 0 2.552-0.521 3.316-1.561 0.763-1.04 1.144-2.582 1.145-4.624 0-2.062-0.382-3.628-1.145-4.699-0.765-1.071-1.87-1.606-3.316-1.606m0-2.201c2.259 0 4.035 0.734 5.322 2.201 1.29 1.467 1.934 3.569 1.935 6.305 0 2.696-0.639 4.768-1.919 6.216-1.278 1.446-3.059 2.17-5.338 2.17-2.259 0-4.035-0.724-5.322-2.171-1.29-1.447-1.934-3.52-1.935-6.216 0-2.736 0.649-4.837 1.948-6.304 1.299-1.467 3.069-2.201 5.309-2.201m-18.095 14.602a4.892 4.892 0 0 0 1.169-0.149 9.418 9.418 0 0 0 1.214-0.386 6.561 6.561 0 0 0 1.141-0.58 6.794 6.794 0 0 0 0.946-0.729v-3.806h-2.842c-1.442 0-2.494 0.248-3.154 0.743-0.662 0.496-0.991 1.278-0.991 2.35 0 1.705 0.838 2.558 2.517 2.557m-5.135-2.438c0-1.645 0.55-2.9 1.65-3.762 1.102-0.863 2.701-1.295 4.803-1.295h3.152v-1.04c0-2.518-1.109-3.777-3.33-3.777-0.714 0-1.462 0.099-2.246 0.298-0.784 0.199-1.502 0.446-2.155 0.743l-0.803-1.933c0.813-0.456 1.69-0.807 2.631-1.056 0.941-0.247 1.859-0.371 2.751-0.372 3.845 0 5.77 2.052 5.77 6.156v10.409h-2.023l-0.327-1.785c-0.814 0.654-1.679 1.16-2.603 1.518-0.921 0.357-1.798 0.535-2.631 0.535-1.448 0-2.583-0.411-3.406-1.234-0.822-0.823-1.233-1.958-1.233-3.405m-5.398-12.312l2.142 1.546-5.263 6.602 6.095 7.316-2.11 1.636-7.197-8.804z m-7.314 16.682h-2.736V0.595l2.736-0.595z m-14.694-1.932c0.375 0 0.765-0.049 1.17-0.149a9.415 9.415 0 0 0 1.214-0.386 6.488 6.488 0 0 0 1.14-0.58 6.696 6.696 0 0 0 0.949-0.729v-3.806h-2.844c-1.44 0-2.492 0.248-3.154 0.743-0.66 0.496-0.991 1.278-0.991 2.35 0 1.705 0.838 2.558 2.516 2.557m-5.134-2.438c0-1.645 0.55-2.9 1.651-3.762 1.1-0.863 2.701-1.295 4.802-1.295h3.154v-1.04c0-2.518-1.111-3.777-3.332-3.777-0.713 0-1.462 0.099-2.244 0.298-0.784 0.199-1.502 0.446-2.157 0.743l-0.804-1.933c0.813-0.456 1.69-0.807 2.634-1.056 0.941-0.247 1.859-0.371 2.749-0.372 3.847 0 5.77 2.052 5.77 6.156v10.409h-2.022l-0.327-1.785c-0.813 0.654-1.681 1.16-2.602 1.518-0.922 0.357-1.799 0.535-2.633 0.535-1.446 0-2.581-0.411-3.404-1.234-0.823-0.823-1.235-1.958-1.235-3.405Z"/></svg>