<svg fill="#506365" role="img" viewBox="0 0 54 24" xmlns="http://www.w3.org/2000/svg"><title>Kamailio</title><path d="M8.326 15.673l2.488-5.857m-7.326 1.67l3.054-3.159H4.957L1.463 12.02v-3.693H0.173v7.346h1.29v-2.13l1.144-1.176 2.509 3.306h1.565L3.486 11.486z m24.726-1.668l1.268 2.938h-1.773l-0.485 1.142h2.729l0.747 1.775h1.364l-3.233-7.4h-1.196l-3.233 7.4h1.324c0.834-1.967 1.645-3.892 2.486-5.857z m-17.4 0l1.27 2.938h-1.775l-0.485 1.142H12.558l0.744 1.775h1.364l-3.23-7.4H10.233l-3.231 7.4h1.322M53.827 11.989a3.841 3.841 0 0 0-1.071-2.676 3.693 3.693 0 0 0-1.207-0.814 3.928 3.928 0 0 0-1.551-0.297 3.839 3.839 0 0 0-2.772 1.129 3.689 3.689 0 0 0-0.796 1.209 3.843 3.843 0 0 0-0.284 1.471 3.843 3.843 0 0 0 1.071 2.674c0.335 0.344 0.738 0.615 1.207 0.814 0.469 0.201 0.984 0.3 1.551 0.3a3.839 3.839 0 0 0 2.772-1.129 3.689 3.689 0 0 0 0.796-1.212c0.19-0.461 0.284-0.95 0.284-1.469z m-1.354 0.022c0 0.358-0.06 0.693-0.184 1.013-0.121 0.317-0.291 0.592-0.507 0.827a2.376 2.376 0 0 1-1.784 0.76 2.406 2.406 0 0 1-1.8-0.775 2.573 2.573 0 0 1-0.514-0.834 2.795 2.795 0 0 1-0.183-1.013c0-0.358 0.06-0.693 0.183-1.013 0.121-0.317 0.291-0.595 0.507-0.827a2.376 2.376 0 0 1 1.784-0.76 2.403 2.403 0 0 1 1.8 0.774c0.221 0.239 0.393 0.516 0.514 0.836 0.123 0.317 0.183 0.655 0.184 1.012z m-9.256-3.684v7.346h1.292v-7.346h-1.292z m-6.568 7.346h5.153v-1.176h-3.863v-6.17h-1.29v7.346z m-3.253-7.346v7.346h1.29v-7.346h-1.29z m-11.542 2.079v5.267h1.29v-7.346H21.769l-2.236 3.474-2.236-3.474h-1.372v7.346h1.27v-5.247l2.298 3.443h0.04l2.321-3.465z m-1.116-3.89c7.069-2.276 13.481-3.555 19.24-3.838 2.515-0.125 5.231-0.172 7.717 0.268 0.888 0.156 1.748 0.402 2.542 0.796 0.633 0.313 1.133 0.693 1.5 1.14 0.496-1.721 0.101-2.98-1.185-3.774-1.207-0.747-2.844-0.923-4.223-1.037-6.094-0.501-14.625 1.648-25.591 6.443z m12.602 11.704c-7.136 2.052-13.586 3.13-19.351 3.235-2.517 0.045-5.234 0.007-7.704-0.51a9.367 9.367 0 0 1-2.515-0.874 4.503 4.503 0 0 1-1.465-1.185c-0.55 1.706-0.192 2.973 1.067 3.807 1.185 0.782 2.817 1.01 4.189 1.167 6.076 0.693 14.67-1.189 25.777-5.64z"/></svg>