<svg fill="#9B2321" role="img" viewBox="0 0 49 24" xmlns="http://www.w3.org/2000/svg"><title>Karlsruher Verkehrsverbund</title><path d="M26.347 0.002c-5.057 4.872-12.49 8.603-22.867 8.729l-0.806 3.542h45.3L48.859 8.729H19.037c6.057-2.05 9.516-5.432 13.317-8.729z m21.213 13.643c-11.617 0.026-17.135 5.505-20.492 10.355h5.054c5.278-6.691 11.828-6.959 14.608-6.987z m-45.282 0.964L0.141 23.951h2.509l0.99-4.411 2.227 4.411H8.809l-2.721-4.807 4.527-4.535H7.398l-3.498 3.794 0.885-3.796z m8.601 0l1.033 9.342h3.08l5.338-9.342h-2.679l-3.759 7.03-0.538-7.03z m9.927 0l1.021 9.342h3.126l5.318-9.342h-2.679l-3.76 7.03-0.544-7.03Z"/></svg>