<svg fill="#E5426E" role="img" viewBox="0 0 30 24" xmlns="http://www.w3.org/2000/svg"><title>KashFlow</title><path d="M20.208 0l-1.01 3.289C10.141-2.394 3.996 3.144 3.996 3.144-1.598 7.817 0.992 15.259 0.999 15.259 1.92-2.625 17.728 8.279 17.728 8.279c-0.288 1.297-1.212 3.201-1.183 3.23l10.355-1.529z m8.797 8.74C28.081 26.624 12.275 15.72 12.275 15.72c0.404-1.297 1.241-3.23 1.241-3.173L3.159 14.02l6.634 9.98 1.01-3.289c9.056 5.683 15.202 0.145 15.202 0.145 5.595-4.674 2.999-12.115 2.999-12.115z"/></svg>