<svg fill="#006D5C" role="img" viewBox="0 0 127 24" xmlns="http://www.w3.org/2000/svg"><title>Kaspersky</title><path d="M57.262 12.076c0 4.778-2.914 7.036-6.563 7.036h-2.226v-2.867h2.058c2.2 0 3.665-1.187 3.665-4.169 0-2.956-1.386-4.431-3.728-4.431-2.258 0-3.875 1.391-3.875 4.373v11.982H43.548v-18.844h3.045v1.622h0.431a4.935 4.935 0 0 1 4.074-1.969c3.36 0 6.164 2.431 6.164 7.267z m-19.972-1.244l-2.027-0.205c-1.596-0.142-2.436-0.578-2.436-1.507 0-1.103 1.071-1.733 2.609-1.733 1.591 0 2.604 0.751 2.688 1.822h2.925c-0.116-2.72-2.226-4.4-5.587-4.4-3.387 0-5.671 1.796-5.67 4.427 0 2.205 1.386 3.623 4.542 3.937l2.058 0.205c1.244 0.116 2.084 0.378 2.084 1.565 0 1.071-0.788 1.848-2.835 1.848-1.895 0-2.83-0.856-3.156-2.006H29.319c0.315 2.625 2.525 4.673 6.317 4.673 3.56 0 5.881-1.885 5.88-4.662 0-2.462-1.628-3.707-4.226-3.964z m31.749 3.953c-0.478 1.092-1.617 1.922-3.234 1.922-2.231 0-3.88-1.449-3.88-4.573 0-2.982 1.533-4.631 3.906-4.631 2.116 0 3.329 1.271 3.45 3.182h-5.476v2.205h8.453v-1.454c0-4.022-2.662-6.626-6.458-6.627-3.528 0-6.915 2.399-6.915 7.325 0 4.92 3.387 7.324 6.92 7.324 3.229 0 5.534-1.995 6.248-4.673z m-47.921-9.976c-3.329 0-5.818 1.733-6.106 4.4h3.271c0.231-0.987 1.129-1.706 2.835-1.706 2.205 0 2.925 1.155 2.925 2.573v4.778c-1.244 1.418-2.694 2.084-4.138 2.084-1.507 0-2.552-0.725-2.552-2.027 0-1.244 0.814-2.027 2.374-2.026h2.436v-2.2h-2.52c-3.476 0-5.413 1.738-5.414 4.4 0 2.489 1.88 4.374 4.978 4.373 1.738 0 3.271-0.698 4.4-1.533h0.436v1.187h3.04v-9.325c0-3.444-2.347-4.977-5.965-4.978zM0.494 19.112h3.04v-19.112H0.494z m12.769-13.956h-3.707l-4.431 5.818v1.827l4.547 6.311h3.765L8.107 11.871z m109.883 0l-2.489 5.529c-0.609 1.334-1.187 2.636-1.36 3.502h-0.436c-0.173-0.866-0.777-2.142-1.386-3.471l-2.489-5.56h-3.36l5.849 12.533-2.898 6.311h3.245L126.506 5.156z m-12.192 0h-3.707l-4.426 5.818v1.827l4.542 6.311h3.764l-5.329-7.241z m-19.033 5.671l-2.027-0.2c-1.591-0.142-2.431-0.578-2.431-1.507 0-1.103 1.071-1.733 2.604-1.733 1.591 0 2.604 0.751 2.694 1.822h2.925c-0.116-2.72-2.231-4.4-5.587-4.4-3.387 0-5.676 1.796-5.676 4.427 0 2.205 1.391 3.623 4.547 3.937l2.053 0.205c1.244 0.116 2.084 0.378 2.085 1.565 0 1.071-0.782 1.848-2.836 1.848-1.89 0-2.825-0.856-3.15-2.006h-3.166c0.315 2.625 2.525 4.673 6.316 4.673 3.56 0 5.881-1.885 5.881-4.662 0-2.462-1.628-3.707-4.232-3.964z m6.264 8.285h3.045v-19.112h-3.045z m-20.041-12.339h-0.436v-1.617h-3.04v13.956h3.04v-7.298c0-2.489 1.15-3.938 3.413-3.938h1.927v-3.067h-1.114c-2.1 0-2.993 0.788-3.79 1.969z"/></svg>