<svg fill="#F48220" role="img" viewBox="0 0 35 24" xmlns="http://www.w3.org/2000/svg"><title>Katacoda</title><path d="M9.262 0.003a1.326 1.326 0 0 0-0.326 0.02c-0.275 0.122-0.501 0.663-0.655 1.575-0.266 1.567-0.258 3.623 0.025 5.151l0.071 0.375-0.298-0.26c-0.329-0.289-0.891-0.682-1.155-0.802a2.366 2.366 0 0 0-1.371-0.161 8.091 8.091 0 0 1-0.52 0.079c-0.487 0.057-0.821 0.222-1.194 0.593a2.449 2.449 0 0 0-0.587 0.912c-0.072 0.199-0.082 0.271-0.082 0.602 0.003 0.301 0.019 0.432 0.086 0.684 0.105 0.387 0.453 1.263 0.521 1.304 0.115 0.072 0.199 0.003 0.332-0.287 0.15-0.319 0.42-0.636 0.616-0.723 0.132-0.062 0.344-0.077 0.373-0.03 0.021 0.034-0.286 0.494-0.625 0.937-0.284 0.372-0.369 0.551-0.419 0.873-0.112 0.73 0.272 1.538 0.876 1.832 0.364 0.178 0.549 0.209 1.139 0.209 0.53-0.003 0.527-0.001 0.886-0.118a9.91 9.91 0 0 1 0.666-0.193l0.304-0.071 0.025 0.065c0.032 0.082 0.006 0.153-0.159 0.459-0.302 0.55-0.348 0.609-0.61 0.742-0.63 0.328-1.509 0.473-1.949 0.322a4.912 4.912 0 0 0-0.591-0.129c-1.598-0.249-1.694-0.275-1.915-0.478-0.253-0.233-0.473-0.722-0.666-1.504-0.066-0.258-0.129-0.444-0.137-0.418l-0.172 0.59c-0.387 1.366-0.451 1.504-0.95 2.023a8.22 8.22 0 0 0-0.434 0.473c-0.059 0.083-0.072 0.233-0.023 0.265a0.835 0.835 0 0 1 0.115 0.152c0.103 0.172 0.868 0.921 1.167 1.148 0.362 0.278 0.563 0.385 1.156 0.619 1.034 0.408 1.283 0.455 2.833 0.544 0.567 0.036 1.054-0.059 1.332-0.262 0.066-0.046 0.215-0.119 0.335-0.159 0.122-0.037 0.335-0.117 0.478-0.173 0.14-0.059 0.268-0.106 0.281-0.106 0.014 0 0.072 0.213 0.129 0.472 0.057 0.262 0.115 0.496 0.127 0.516 0.01 0.023 0.037-0.229 0.057-0.559 0.036-0.594 0.037-0.601 0.122-0.673l0.085-0.071 0.021 0.086c0.014 0.049 0.046 0.186 0.072 0.306 0.07 0.291 0.209 0.63 0.343 0.845 0.12 0.185 0.514 0.676 0.534 0.659a7.45 7.45 0 0 0-0.028-0.516c-0.021-0.347-0.024-0.516-0.003-0.537 0.021-0.021 0.084 0.052 0.19 0.226 0.755 1.232 2.039 2.466 3.419 3.287 1.361 0.811 3.486 1.613 5.506 2.081 0.477 0.109 1.303 0.269 1.394 0.269 0.029 0 0.155 0.064 0.286 0.143 0.949 0.581 2.151 0.884 3.003 0.762 0.71-0.102 1.584-0.536 2.011-1.002a0.802 0.802 0 0 1 0.37-0.231 9.28 9.28 0 0 0 1.529-0.787c0.63-0.418 1.06-0.831 1.375-1.322a3.795 3.795 0 0 1 0.427-0.497 7.375 7.375 0 0 0 1.604-2.478c0.149-0.391 0.312-1.037 0.371-1.489a9.084 9.084 0 0 0-0.033-1.955l-0.055-0.294 0.479-0.455c1.756-1.681 2.826-3.373 3.203-5.071 0.133-0.601 0.143-1.266 0.019-1.505-0.106-0.206-0.258-0.176-1.117 0.226-1.232 0.58-1.915 0.788-2.836 0.869-0.372 0.032-0.994 0.004-1.193-0.057a0.801 0.801 0 0 1-0.2-0.208c-0.397-0.546-1.174-1.338-1.78-1.83-0.673-0.538-1.635-1.104-2.349-1.375l-0.272-0.1 0.186-0.104c0.306-0.172 0.899-0.415 1.17-0.479 0.14-0.032 0.51-0.096 0.828-0.146l0.578-0.083-0.701-0.103c-1.449-0.209-2.455-0.296-3.499-0.302-0.392 0-0.71-0.009-0.71-0.015 0-0.007 0.067-0.09 0.147-0.19 0.341-0.405 0.584-0.891 0.673-1.342 0.023-0.129 0.053-0.41 0.066-0.624l0.023-0.391-0.233 0.312a3.573 3.573 0 0 1-1.192 1.055c-0.576 0.334-1.103 0.48-2.151 0.599-2.234 0.249-3.801 0.477-4.503 0.654l-0.293 0.075-0.143-0.1a28.261 28.261 0 0 1-0.426-0.301 14.298 14.298 0 0 0-2.807-1.637 10.911 10.911 0 0 1-1.478-0.809c-0.644-0.401-0.802-0.465-1.124-0.478z m-0.12 0.346c0.029-0.01 0.062-0.006 0.115 0.003 0.063 0.01 0.195 0.053 0.286 0.09 0.096 0.037 0.38 0.196 0.629 0.353 0.665 0.415 1.025 0.612 1.604 0.869a12.989 12.989 0 0 1 2.351 1.343c0.928 0.649 1.213 0.917 1.873 1.776 0.268 0.349 0.702 0.825 0.751 0.825 0.029 0-0.215-0.481-0.493-0.965a6.473 6.473 0 0 0-0.578-0.85c-0.137-0.166-0.152-0.152 0.223-0.229l0.226-0.046 0.249 0.232c0.133 0.129 0.362 0.309 0.502 0.404 0.279 0.183 0.501 0.401 0.699 0.673 0.175 0.241 0.215 0.322 0.386 0.831 0.17 0.493 0.225 0.622 0.284 0.644 0.115 0.037 0.186-0.082 0.252-0.415 0.137-0.687 0.095-1.074-0.226-1.988a14.921 14.921 0 0 1-0.218-0.648c0-0.026 1.299-0.205 1.468-0.202 0.034 0 0.062 0.049 0.09 0.149 0.064 0.268 0.155 0.43 0.467 0.852 0.318 0.43 0.553 0.854 0.637 1.153 0.029 0.093 0.093 0.43 0.146 0.744 0.122 0.735 0.268 1.316 0.427 1.672 0.175 0.401 0.223 0.62 0.238 1.122 0.02 0.587 0.1 0.851 0.258 0.82 0.113-0.021 0.294-0.73 0.349-1.39 0.069-0.773 0.107-2.277 0.072-2.775-0.049-0.646-0.049-1.743 0-1.772 0.02-0.011 0.296-0.029 0.614-0.038l0.584-0.015 0.132 0.152c0.193 0.225 0.255 0.371 0.255 0.602 0 0.243 0.143 0.813 0.324 1.303 0.358 0.967 0.58 1.773 0.648 2.366a1.361 1.361 0 0 1-0.03 0.624c-0.129 0.564-0.173 0.945-0.176 1.524-0.004 0.599 0.024 0.769 0.139 0.831 0.238 0.125 0.52-0.312 0.587-0.92 0.014-0.14 0.136-0.677 0.267-1.191 0.15-0.612 0.248-1.086 0.282-1.358 0.042-0.337 0.172-1.217 0.293-1.938l0.02-0.12 0.373 0.252c0.561 0.372 0.537 0.344 0.643 0.719 0.129 0.454 0.233 0.884 0.329 1.342 0.079 0.384 0.082 0.415 0.086 1.746 0 1.203 0.007 1.368 0.054 1.47 0.037 0.082 0.074 0.117 0.121 0.118 0.103 0 0.327-0.233 0.448-0.467 0.156-0.294 0.199-0.43 0.221-0.677 0.024-0.272 0.057-0.45 0.19-0.99 0.077-0.312 0.115-0.547 0.132-0.828l0.021-0.389 0.141 0.186c0.294 0.382 0.233 0.344 0.648 0.391 0.524 0.056 1.386 0.029 1.826-0.059 0.712-0.143 1.415-0.395 2.325-0.83 0.301-0.143 0.559-0.264 0.572-0.264 0.02 0 0.024 0.158 0.013 0.428-0.047 1.16-0.673 2.624-1.67 3.904-0.624 0.805-1.79 2.015-1.824 1.898-0.006-0.023-0.073-0.206-0.145-0.407-0.163-0.454-0.723-1.587-0.767-1.547-0.006 0.007 0.057 0.241 0.143 0.522 0.086 0.281 0.165 0.541 0.172 0.578 0.006 0.034 0.024 0.126 0.046 0.201 0.019 0.072 0.029 0.143 0.023 0.149-0.034 0.034-0.765 0.2-1.192 0.272-1.246 0.212-2.483 0.186-3.552-0.065-1.043-0.243-1.953-0.659-3.846-1.743-2.291-1.318-2.947-1.594-4.254-1.793-0.365-0.057-0.587-0.072-1.24-0.071-1.192-0.004-2.105 0.12-3.881 0.518-1.295 0.286-2.028 0.367-2.396 0.261-0.168-0.05-0.188-0.066-0.315-0.267-0.076-0.115-0.165-0.216-0.2-0.226-0.049-0.014-0.079-0.1-0.172-0.494-0.162-0.69-0.158-0.644-0.112-0.591 0.043 0.057 0.05 0.11-0.14-0.655a17.303 17.303 0 0 1-0.461-2.495c-0.05-0.504-0.05-2.286 0-2.821 0.117-1.217 0.315-2.054 0.539-2.294 0.04-0.043 0.066-0.069 0.095-0.079z m0.53 1.394c0.007 0.017 0.047 0.064 0.122 0.153 0.093 0.113 0.623 0.659 1.18 1.214 0.556 0.556 1.088 1.117 1.188 1.253 0.693 0.935 1.229 2.446 1.013 2.862-0.133 0.262-0.411 0.329-0.673 0.162-0.169-0.106-0.404-0.407-0.537-0.691a4.19 4.19 0 0 1-0.208-0.607c-0.059-0.221-0.107-0.387-0.115-0.369l-0.103 0.582c-0.103 0.616-0.148 1.263-0.103 1.51 0.04 0.212 0.01 0.258-0.09 0.14-0.059-0.072-0.093-0.172-0.135-0.402a45.137 45.137 0 0 0-0.126-0.663c-0.08-0.418-0.072-0.434-0.157 0.435a9.034 9.034 0 0 1-0.078 0.655c-0.064 0.301-0.281 0.559-0.458 0.558-0.143 0-0.321-0.1-0.382-0.215l-0.065-0.11 0.022 0.109c0.029 0.152 0.178 0.475 0.246 0.53 0.082 0.067 0.351 0.054 0.501-0.025a0.821 0.821 0 0 0 0.358-0.373c0.053-0.103 0.079-0.129 0.121-0.115 0.029 0.014 0.129 0.032 0.226 0.039 0.162 0.009 0.186 0.003 0.279-0.082l0.106-0.094-0.01-0.484c-0.007-0.329 0-0.487 0.022-0.487 0.019 0 0.034 0.013 0.034 0.025 0 0.067 0.365 0.42 0.511 0.494A0.905 0.905 0 0 0 13.274 7.703c0.38-0.278 0.42-0.868 0.117-1.781a8.356 8.356 0 0 0-0.792-1.609c-0.395-0.593-1.275-1.403-2.369-2.179-0.215-0.152-0.441-0.316-0.501-0.361-0.049-0.036-0.067-0.047-0.057-0.03z m13.366 0.171a0.461 0.461 0 0 1-0.05 0.151c-0.082 0.178-0.305 0.53-0.444 0.682l-0.102 0.12-0.168-0.165a1.156 1.156 0 0 1-0.164-0.186c0-0.011 0.12-0.09 0.272-0.178s0.358-0.222 0.458-0.3a0.954 0.954 0 0 1 0.198-0.125zM5.662 6.188a2.621 2.621 0 0 1 0.733 0.023c0.112 0.024 0.279 0.077 0.372 0.12 0.168 0.074 0.69 0.401 0.781 0.493 0.024 0.024 0.132 0.112 0.235 0.193 0.2 0.162 0.484 0.473 0.637 0.696 0.119 0.168 0.264 0.667 0.235 0.811-0.021 0.132-0.212 0.339-0.544 0.601-0.391 0.309-0.501 0.477-0.501 0.763 0 0.265 0.155 0.64 0.386 0.951 0.08 0.103 0.08 0.112 0.027 0.169-0.043 0.049-0.08 0.057-0.204 0.042-0.209-0.029-0.487-0.137-0.579-0.221-0.066-0.066-0.077-0.106-0.093-0.444l-0.014-0.368-0.122 0.25c-0.148 0.301-0.16 0.534-0.044 0.701 0.077 0.115 0.327 0.265 0.544 0.33l0.146 0.046-0.249-0.018a1.214 1.214 0 0 1-0.822-0.386c-0.225-0.223-0.296-0.369-0.272-0.542 0.029-0.172 0.292-0.67 0.504-0.956 0.097-0.129 0.196-0.275 0.22-0.325l0.049-0.095-0.12 0.1a2.24 2.24 0 0 0-0.234 0.219l-0.276 0.318c-0.464 0.527-0.553 0.799-0.373 1.159 0.178 0.347 0.728 0.739 1.106 0.788 0.312 0.042 0.327 0.049 0.326 0.128 0 0.129 0.089 0.258 0.235 0.344 0.148 0.086 0.178 0.135 0.086 0.143a0.501 0.501 0 0 0-0.194 0.049 6.571 6.571 0 0 1-1.533 0.372c-1.06 0.067-1.855-0.639-1.796-1.595 0.019-0.329 0.1-0.516 0.406-0.916 0.601-0.791 1.139-1.729 1.331-2.332 0.206-0.647 0.063-1.12-0.444-1.462-0.169-0.115-0.176-0.1 0.055-0.149z m-0.914 0.196c0.062 0 0.189 0.014 0.279 0.034 0.329 0.072 0.63 0.282 0.728 0.52 0.084 0.196 0.07 0.215-0.123 0.201a0.417 0.417 0 0 0-0.311 0.067 1.342 1.342 0 0 0-0.375 0.387c-0.011 0.021 0.06 0 0.16-0.047 0.239-0.11 0.537-0.12 0.638-0.018 0.097 0.096 0.067 0.203-0.208 0.755l-0.229 0.47-0.103-0.025a2.005 2.005 0 0 0-0.308-0.017 0.662 0.662 0 0 0-0.373 0.093 1.933 1.933 0 0 0-0.57 0.576 0.454 0.454 0 0 1-0.086 0.123c-0.034 0-0.266-0.673-0.329-0.951-0.11-0.506-0.053-0.934 0.198-1.354 0.239-0.405 0.745-0.811 1.012-0.814zM8.778 8.973c0.047-0.034 0.069 0.052 0.205 0.49l0.129 0.408-0.138 0.139a0.821 0.821 0 0 0-0.24 0.587v0.149l-0.179 0.029-0.179 0.024-0.123-0.157c-0.169-0.221-0.309-0.527-0.325-0.721-0.011-0.15-0.006-0.166 0.107-0.29 0.069-0.076 0.226-0.218 0.355-0.315 0.127-0.1 0.272-0.222 0.327-0.275 0.029-0.03 0.046-0.057 0.061-0.068z m6.627 0.928a14.135 14.135 0 0 1 1.589 0.012c0.199 0.019 0.53 0.066 0.744 0.106 1.007 0.196 1.683 0.498 3.671 1.637 2.884 1.653 4.02 2.039 6.001 2.039a9.395 9.395 0 0 0 2.601-0.329c0.186-0.049 0.341-0.086 0.343-0.082 0.057 0.067 0.246 0.907 0.304 1.332 0.049 0.372 0.049 1.246 0 1.575a6.596 6.596 0 0 1-0.305 1.185c-0.349 0.917-0.974 1.888-1.623 2.52l-0.187 0.185-0.246-0.1-0.333-0.132c-0.05-0.02-0.086-0.059-0.086-0.088 0-0.04-0.004-0.04-0.031 0-0.026 0.037-0.032 0.04-0.032 0.006 0-0.021-0.064-0.102-0.143-0.172a5.66 5.66 0 0 1-0.458-0.515c-0.384-0.475-0.706-0.816-0.993-1.05-0.178-0.143-0.225-0.203-0.277-0.349a5.637 5.637 0 0 1-0.244-0.888l-0.029-0.175 0.24 0.117c0.129 0.064 0.377 0.175 0.548 0.244 1.035 0.415 1.709 0.506 2.151 0.291 0.398-0.193 0.927-1.002 1.195-1.825l0.094-0.282 0.179-0.039c0.103-0.023 0.243-0.05 0.319-0.058 0.072-0.01 0.139-0.029 0.144-0.046 0.024-0.034-0.367-0.265-0.639-0.374-0.58-0.238-1.295-0.331-1.835-0.246-0.352 0.057-0.828 0.258-1.155 0.478-0.451 0.305-0.937 0.922-1.155 1.468l-0.086 0.21-0.024-0.255a5.8 5.8 0 0 1 0.076-1.274c0.029-0.172 0.043-0.306 0.031-0.301-0.032 0.023-0.206 0.506-0.274 0.765a3.924 3.924 0 0 0-0.019 1.973l0.024 0.091-0.12-0.062c-0.308-0.153-0.736-0.266-1.272-0.335a2.834 2.834 0 0 0-0.795-0.014 5.386 5.386 0 0 0-0.719 0.123c-0.18 0.05-0.497 0.132-0.698 0.184a10.416 10.416 0 0 1-2.709 0.347c-1.372-0.003-2.154-0.153-3.079-0.596-1.338-0.644-2.721-1.776-4.322-3.551a31.532 31.532 0 0 0-1.924-1.901c-0.437-0.39-0.573-0.576-0.682-0.909-0.076-0.236-0.064-0.387 0.043-0.516l0.074-0.08 0.08 0.123c0.15 0.225 0.501 0.352 0.98 0.353 0.444 0 1.038-0.1 2.475-0.42a19.524 19.524 0 0 1 2.119-0.358l0.469-0.043z m-6.717 1.132c0.069 0.006 0.117 0.027 0.137 0.066 0.029 0.047 0.024 0.143-0.015 0.389-0.05 0.305-0.05 0.329 0 0.441l0.05 0.121-0.132 0.28a9.509 9.509 0 0 0-0.19 0.414l-0.053 0.139-0.079-0.072c-0.14-0.132-0.203-0.309-0.204-0.568 0-0.222-0.007-0.243-0.081-0.302-0.046-0.037-0.1-0.067-0.12-0.068a0.289 0.289 0 0 1-0.124-0.064l-0.08-0.067 0.066-0.118c0.1-0.178 0.437-0.496 0.577-0.544a0.652 0.652 0 0 1 0.249-0.046z m7.559 0.441c-0.2 0-0.401 0.014-0.545 0.043-0.375 0.076-0.776 0.229-1.394 0.533-0.496 0.246-0.881 0.47-1.034 0.607-0.016 0.013 0.076-0.003 0.2-0.033 0.129-0.032 0.434-0.089 0.683-0.126 0.249-0.034 0.49-0.069 0.537-0.079 0.072-0.014 0.11 0.023 0.347 0.338 0.577 0.77 1.312 1.625 1.857 2.168 0.397 0.392 0.634 0.576 0.801 0.607 0.053 0.009 0.238 0.047 0.419 0.081 1.234 0.243 2.291 0.319 2.627 0.186 0.327-0.126 0.945-0.583 1.504-1.097 0.172-0.159 0.398-0.358 0.501-0.444 0.129-0.102 0.162-0.143 0.109-0.129-0.186 0.054-0.45 0.086-0.86 0.106-0.483 0.021-0.855-0.019-1.124-0.117-0.239-0.092-0.327-0.16-1.246-0.997a13.2 13.2 0 0 0-1.022-0.87c-0.315-0.231-0.773-0.455-0.988-0.486a3.063 3.063 0 0 1-0.344-0.109 4.193 4.193 0 0 0-0.491-0.144 3.073 3.073 0 0 0-0.537-0.038z m-6.847 0.401l0.094 0.083c0.053 0.043 0.377 0.341 0.716 0.663 0.344 0.318 0.894 0.882 1.232 1.25 1.328 1.455 2.3 2.334 3.37 3.049 1.435 0.96 2.728 1.318 4.568 1.272 1.137-0.024 1.989-0.165 3.149-0.511 1.001-0.301 2.168-0.172 3.008 0.338 0.454 0.278 0.798 0.599 1.303 1.223 0.491 0.607 0.627 0.729 1.025 0.928 0.186 0.097 0.361 0.18 0.387 0.19 0.069 0.021-0.079 0.225-0.405 0.567-0.574 0.599-1.475 1.153-2.441 1.504a0.75 0.75 0 0 0-0.382 0.258c-0.275 0.295-0.673 0.551-1.177 0.75-0.859 0.341-1.814 0.223-2.99-0.364-0.394-0.196-0.481-0.253-0.616-0.401a2.718 2.718 0 0 1-0.252-0.348l-0.098-0.179 0.02 0.158c0.009 0.083 0.034 0.2 0.053 0.256 0.014 0.057 0.026 0.112 0.015 0.121-0.033 0.034-1.998-0.394-2.054-0.45-0.014-0.014 0.007-0.102 0.043-0.202 0.08-0.241 0.11-0.536 0.057-0.599-0.059-0.069-0.225-0.057-0.396 0.029a1.22 1.22 0 0 1-0.449 0.115c-0.162 0.019-0.415 0.064-0.561 0.108l-0.272 0.075-0.182-0.06c-0.377-0.132-1.293-0.51-1.283-0.533a2.12 2.12 0 0 1 0.261-0.209c0.318-0.233 0.629-0.523 0.687-0.635 0.057-0.115 0.057-0.292-0.003-0.343-0.037-0.029-0.112-0.021-0.384 0.043a4.64 4.64 0 0 1-0.55 0.099 3.537 3.537 0 0 0-0.766 0.167 1.361 1.361 0 0 1-0.692 0.07c-0.229-0.024-0.262-0.039-0.561-0.237a13.826 13.826 0 0 1-1.217-0.957l-0.146-0.135h0.3c0.276-0.003 0.347-0.014 0.771-0.15 0.644-0.206 0.937-0.402 0.916-0.622-0.014-0.119-0.024-0.123-0.697-0.206a6.681 6.681 0 0 1-0.748-0.14 6.059 6.059 0 0 0-0.529-0.123c-0.216-0.04-0.387-0.103-0.735-0.265a36.247 36.247 0 0 0-0.63-0.287c-0.2-0.077-0.259-0.158-0.506-0.654a4.474 4.474 0 0 0-0.129-0.247c-0.017-0.021-0.258 0.258-0.289 0.343-0.02 0.043-0.046 0.14-0.067 0.217l-0.04 0.141-0.058-0.188a3.603 3.603 0 0 1-0.149-0.988c0-0.249 0.006-0.278 0.056-0.262 0.029 0.009 0.175 0.043 0.321 0.077 0.15 0.034 0.401 0.109 0.559 0.166 0.292 0.1 0.301 0.1 0.87 0.101 0.481 0 0.627-0.014 0.871-0.072 0.623-0.143 0.662-0.221 0.235-0.53a11.142 11.142 0 0 1-0.467-0.364 2.456 2.456 0 0 0-0.716-0.438 2.162 2.162 0 0 1-0.341-0.172c-0.15-0.1-0.465-0.43-0.702-0.732a2.141 2.141 0 0 0-0.295-0.316 2.574 2.574 0 0 0-0.455-0.264c-0.043-0.011 0.097-0.347 0.347-0.81z m6.877 0.354c0.215 0.003 0.415 0.024 0.444 0.04 0.043 0.024 0.029 0.054-0.102 0.229-0.265 0.355-0.401 0.869-0.355 1.386 0.024 0.285 0.039 0.286-0.235-0.03a4.295 4.295 0 0 1-0.639-0.995c-0.233-0.487-0.231-0.473-0.071-0.516a2.95 2.95 0 0 1 0.959-0.114z m0.868 0.176c0.009 0 0.109 0.05 0.22 0.111 0.113 0.063 0.294 0.175 0.401 0.252l0.201 0.141-0.101 0.106c-0.365 0.421-0.405 1.098-0.108 1.843 0.062 0.153 0.089 0.258 0.067 0.258-0.06 0-0.461-0.203-0.58-0.291-0.236-0.178-0.533-0.507-0.623-0.687a0.735 0.735 0 0 1-0.093-0.421c0.003-0.498 0.162-0.919 0.444-1.175a1.214 1.214 0 0 1 0.172-0.137z m-15.205 0.366c0.011 0.013 0.064 0.129 0.117 0.261 0.183 0.443 0.401 0.722 0.672 0.859 0.208 0.105 0.634 0.208 1.124 0.271 0.716 0.093 1.024 0.149 1.265 0.226 0.415 0.129 1.121 0.086 1.69-0.109 0.099-0.034 0.178-0.052 0.177-0.037 0 0.057-0.345 0.339-0.548 0.444-0.663 0.351-1.673 0.473-2.372 0.301-0.158-0.04-0.278-0.063-0.272-0.05 0.029 0.043 0.884 0.305 1.17 0.355 0.278 0.047 0.633 0.047 0.839-0.003 0.057-0.016 0.049 0-0.047 0.062a4.44 4.44 0 0 1-1.64 0.607 12.17 12.17 0 0 0-0.676 0.129c-0.347 0.077-0.484 0.069-0.892-0.068-0.501-0.166-0.945-0.465-1.491-0.995l-0.322-0.308 0.266-0.272c0.501-0.526 0.573-0.64 0.799-1.332 0.066-0.2 0.129-0.355 0.141-0.344z m6.212 0.25c0.029-0.021 0.063-0.001 0.182 0.094 0.049 0.042 0.049 0.054 0.007 0.152a10.025 10.025 0 0 0-0.315 1.163c-0.074 0.349-0.086 0.458-0.09 1.017 0 0.342 0.014 0.71 0.026 0.816l0.024 0.192-0.179 0.09c-0.1 0.053-0.243 0.112-0.321 0.135a0.974 0.974 0 0 0-0.219 0.091c-0.086 0.063-0.218 0.107-0.217 0.076a0.344 0.344 0 0 1 0.057-0.103 0.868 0.868 0 0 0 0.092-0.176c0.034-0.097 0.212-0.531 0.372-0.917a1.399 1.399 0 0 0 0.086-0.222c-0.003 0-0.086 0.158-0.179 0.353-0.222 0.448-0.516 0.891-0.693 1.034-0.296 0.243-0.639 0.298-1.533 0.237-0.988-0.064-1.303-0.126-1.956-0.363-0.517-0.186-1.141-0.45-1.141-0.48 0-0.016 0.136 0.024 0.305 0.083 0.444 0.158 0.639 0.163 1.144 0.043 0.225-0.057 0.57-0.133 0.769-0.178a5.929 5.929 0 0 0 0.61-0.159c0.533-0.178 1.197-0.573 1.623-0.959 0.392-0.365 0.971-1.1 1.364-1.747 0.083-0.137 0.166-0.259 0.182-0.272z m10.461 0.443c0.013 0 0.105 0.086 0.207 0.187 0.146 0.149 0.205 0.186 0.279 0.186 0.072 0 0.129 0.033 0.22 0.129 0.125 0.125 0.126 0.129 0.121 0.366 0 0.215-0.011 0.258-0.114 0.456-0.205 0.39-0.179 0.372-0.632 0.389a5.453 5.453 0 0 1-0.596-0.014l-0.196-0.023 0.219-0.265c0.215-0.268 0.432-0.649 0.433-0.755 0-0.034-0.057-0.096-0.139-0.149-0.079-0.047-0.14-0.096-0.14-0.111 0-0.014 0.077-0.023 0.171-0.023h0.181l-0.02-0.186c-0.009-0.102-0.006-0.186 0.006-0.187z m1.076 1.06l0.085 0.086c0.047 0.049 0.183 0.232 0.305 0.413 0.212 0.315 0.219 0.329 0.15 0.352-0.064 0.029-0.892 0.034-0.916 0.009a0.852 0.852 0 0 1 0.114-0.207 1.976 1.976 0 0 0 0.198-0.429l0.064-0.222z m8.613 0.251c0.021 0 0.043 0.029 0.056 0.066 0.029 0.11 0.023 0.487-0.009 0.507-0.014 0.009-0.039 0.095-0.047 0.184-0.086 0.659-0.507 1.18-1.048 1.289l-0.107 0.02 0.071-0.106c0.129-0.19 0.256-0.491 0.281-0.644 0.019-0.149-0.004-0.541-0.043-0.602-0.007-0.014-0.077-0.029-0.149-0.028h-0.132l0.158-0.102c0.454-0.294 0.938-0.584 0.969-0.584z m0.32 0.268c0.029-0.032 0.301 0 0.564 0.061 0.306 0.072 0.306 0.072 0.238 0.269-0.262 0.742-0.677 1.395-0.993 1.557a1.088 1.088 0 0 1-0.593 0.067l-0.12-0.024 0.185-0.132c0.427-0.315 0.693-0.905 0.693-1.546 0-0.125 0.01-0.239 0.026-0.252z m-1.948 1.105c0.029 0.014 0.052 0.1 0.106 0.28 0.034 0.112 0.072 0.226 0.086 0.254 0.017 0.043-0.02 0.036-0.216-0.045-0.132-0.053-0.238-0.107-0.238-0.124 0-0.014 0.057-0.115 0.129-0.22 0.072-0.106 0.106-0.16 0.133-0.145z m-2.959 1.969c-0.016 0-0.107 0.011-0.2 0.025-0.367 0.05-0.728 0.2-0.98 0.415l-0.126 0.105 0.118 0.213c0.228 0.418 0.59 0.806 0.936 1.017 0.2 0.119 0.196 0.109 0.062 0.583-0.135 0.464-0.129 0.458-0.388 0.522-0.186 0.047-0.344 0.057-0.792 0.058h-0.563l-0.318-0.111c-0.644-0.229-1.04-0.53-1.408-1.082-0.272-0.401-0.339-0.473-0.74-0.759-0.391-0.274-0.422-0.329-0.27-0.454l0.085-0.068-0.112-0.002a0.838 0.838 0 0 0-0.775 0.515c-0.069 0.186-0.082 0.42-0.031 0.516 0.05 0.092 0.072 0.076 0.152-0.109a0.984 0.984 0 0 1 0.183-0.282c0.135-0.135 0.179-0.13 0.425 0.025 0.352 0.228 0.576 0.451 0.834 0.843 0.137 0.208 0.295 0.427 0.348 0.486 0.125 0.146 0.387 0.364 0.52 0.436 0.057 0.032 0.215 0.15 0.343 0.266 0.129 0.115 0.315 0.249 0.42 0.297 0.215 0.1 0.683 0.246 1.091 0.346 0.511 0.122 1.107 0.072 1.488-0.117l0.144-0.072 0.177 0.06c0.637 0.218 1.361 0.1 1.769-0.293 0.451-0.434 0.619-1.025 0.415-1.468-0.073-0.169-0.304-0.451-0.365-0.451-0.014 0 0.004 0.08 0.039 0.176 0.082 0.229 0.089 0.65 0.014 0.862a1.671 1.671 0 0 1-0.381 0.612 1.371 1.371 0 0 1-0.291 0.186c-0.158 0.074-0.205 0.08-0.544 0.08-0.347-0.003-0.394-0.01-0.619-0.1a3.214 3.214 0 0 1-0.439-0.225l-0.196-0.131 0.071-0.193c0.04-0.106 0.1-0.329 0.142-0.495l0.07-0.301 0.186-0.072c0.593-0.212 0.988-0.544 1.15-0.966l0.062-0.167-0.136-0.123a2.798 2.798 0 0 0-0.837-0.469c-0.2-0.064-0.63-0.146-0.733-0.134z"/></svg>