<svg fill="#527EB2" role="img" viewBox="0 0 28 24" xmlns="http://www.w3.org/2000/svg"><title>Kdenlive</title><path d="M10.241 0l3.133 4.979v19.021h1.253V4.98l3.134-4.98z m-6.893 5.684V9.473h8.146c0.003-0.953 0-1.921-0.007-2.87 0-0.44-0.409-0.841-0.824-0.919H3.348z m14.134 0.001c-0.462 0.028-0.959 0.471-0.958 0.962l-0.016 14.496c0 0.655 0.881 1.223 1.386 0.835l9.512-7.273c0.507-0.385 0.505-1.287 0-1.671l-9.495-7.222a0.635 0.635 0 0 0-0.429-0.127zM0.215 12v3.79h11.278V12z m5.012 6.315v3.791h6.266v-3.791z"/></svg>