<svg fill="#E05735" role="img" viewBox="0 0 25 24" xmlns="http://www.w3.org/2000/svg"><title>Keep a Changelog</title><path d="M10.27 0C9.564-0.005 8.859 0.062 8.155 0.204 6.043 0.628 4.353 1.674 3.131 3.316 1.569 5.417 0.691 8.013 0.368 11.484c-0.127 1.373 0.008 2.752 0.184 4.28a10.121 10.121 0 0 0 2.177 5.293c0.947 1.174 2.034 1.946 3.321 2.359a12.153 12.153 0 0 0 3.386 0.582 6.233 6.233 0 0 0 0.807-0.034l0.423-0.042a93.888 93.888 0 0 0 1.747-0.188 21.733 21.733 0 0 0 7.504-2.292c2.037-1.064 3.462-2.633 4.233-4.666 0.359-0.944 0.531-1.739 0.531-2.482a4.654 4.654 0 0 0-0.065-0.773c-0.411-2.415-1.254-4.495-2.593-6.359-1.659-2.31-3.338-3.937-5.281-5.121C14.523 0.692 12.388 0.014 10.27 0.001Zm-0.446 1.08c0.782-0.021 1.584 0.059 2.412 0.241h-0.001c2.771 0.606 5.215 2.032 7.262 4.236 2.323 2.497 3.645 5.121 4.048 8.018 0.072 0.536-0.013 1.131-0.097 1.647-0.394 2.362-1.688 4.124-3.843 5.238a21.315 21.315 0 0 1-7.274 2.215c-0.566 0.067-1.137 0.125-1.784 0.19l-0.089 0.01a6.943 6.943 0 0 1-1.683-0.031c-0.7-0.099-1.494-0.213-2.258-0.395-1.794-0.426-3.115-1.647-4.038-3.713-0.694-1.561-1.054-3.294-1.097-5.312a18.189 18.189 0 0 1 1.166-6.901c0.629-1.666 1.54-3.505 3.514-4.484a8.879 8.879 0 0 1 3.762-0.959z m1.125 1.493a7.862 7.862 0 0 0-2.274 0.416c-1.624 0.533-2.759 1.324-3.576 2.475-1.522 2.15-2.309 4.649-2.345 7.435a10.276 10.276 0 0 0 0.815 4.455c1.097 2.608 3.099 4.125 5.793 4.391 2.838 0.274 5.627-0.387 8.302-1.966a8.245 8.245 0 0 0 2.814-2.664 7.211 7.211 0 0 0 1.185-3.918c0-2.195-1.03-4.538-3.095-6.966a6.5 6.5 0 0 0-0.714-0.718c-2.368-2.036-4.636-3.011-6.905-2.941z m0.1 1.05c1.515-0.022 3.061 0.482 4.743 1.531 1.81 1.134 3.209 2.805 4.153 4.983 0.9 2.051 0.919 3.998 0.059 5.782a6.912 6.912 0 0 1-2.951 3.033c-2.287 1.251-4.38 1.803-6.556 1.739h-0.022c-1.573 0.061-2.934-0.325-4.16-1.18-0.711-0.495-1.26-1.22-1.68-2.216a11.105 11.105 0 0 1-0.885-4.338A12.841 12.841 0 0 1 4.789 8.031a12.34 12.34 0 0 1 0.887-1.647l0.166-0.274c0.68-1.125 1.751-1.664 3.15-2.131a6.858 6.858 0 0 1 2.057-0.355z m0.031 1.645c-1.198 0.038-2.314 0.472-3.339 1.302-1.416 1.147-2.264 2.761-2.67 5.069a7.35 7.35 0 0 0 0.687 4.682c1.078 2.085 2.842 3.157 5.102 3.096h0.008c3.003-0.157 5.187-1.268 6.672-3.397a5.69 5.69 0 0 0 1.076-3.294 5.902 5.902 0 0 0-0.246-1.664c-0.731-2.472-2.194-4.208-4.354-5.162-1.024-0.452-2.004-0.662-2.936-0.633Zm0.317 1.08c0.782 0.008 1.57 0.194 2.385 0.558 1.89 0.846 3.119 2.367 3.653 4.529 0.534 2.162-0.274 4.269-2.098 5.505-1.501 1.014-2.974 1.469-4.505 1.388h-0.04c-1.019 0.081-2.024-0.229-2.988-0.924a3.723 3.723 0 0 1-1.309-1.746 7.755 7.755 0 0 1-0.522-2.768 8.602 8.602 0 0 1 0.758-3.431c0.686-1.58 1.75-2.541 3.264-2.937 0.467-0.122 0.933-0.181 1.401-0.174zM9.917 8.709v6.986h1.172v-1.937l1.705 1.937h1.485l-2.308-2.538 1.899-1.987h-1.531l-1.25 1.357V8.709Z"/></svg>