<svg fill="#047AED" role="img" viewBox="0 0 25 24" xmlns="http://www.w3.org/2000/svg"><title>KeyCDN</title><path d="M2.433 19.331c0.235 0.01 0.471 0.042 0.692 0.125v-0.004l0.033 0.013 2.917-2.844 0.106 0.142c0.152 0.207 0.311 0.394 0.482 0.581l0.062 0.071c0.045 0.045 0.08 0.089 0.124 0.135l0.339 0.337 0.08 0.073 0.072 0.062a7.748 7.748 0 0 0 4.832 1.844 7.802 7.802 0 0 0 4.162-1.08l0.225 0.233c0.259 0.276 0.526 0.553 0.784 0.83a9.197 9.197 0 0 1-5.207 1.453 9.172 9.172 0 0 1-5.671-2.141l0.011-0.016-1.872 1.845A2.332 2.332 0 1 1 0.04 21.661a2.331 2.331 0 0 1 2.332-2.331h0.06zM20.26 7.303a9.17 9.17 0 0 1 1.328 5.011 9.124 9.124 0 0 1-2.291 5.831l0.01 0.01 1.149 1.222c0.463-0.062 0.926 0.098 1.248 0.436a1.447 1.447 0 0 1-0.054 2.041 1.447 1.447 0 0 1-2.042-0.054 1.436 1.436 0 0 1-0.365-1.266 349.471 349.471 0 0 0-2.024-2.149l-0.115-0.124 0.133-0.107a7.186 7.186 0 0 0 0.964-0.919 7.71 7.71 0 0 0 1.951-4.958 7.722 7.722 0 0 0-0.962-3.958l1.069-1.017zM4.014 1.852c0.41-0.006 0.794 0.156 1.079 0.448 0.322 0.338 0.457 0.812 0.367 1.266L7.669 5.885l-0.133 0.108a7.186 7.186 0 0 0-0.963 0.919 7.777 7.777 0 0 0-0.998 8.923l-1.061 1.034A9.096 9.096 0 0 1 3.177 11.832c0.046-2.146 0.882-4.22 2.288-5.836L4.247 4.725a1.454 1.454 0 0 1-1.248-0.436 1.449 1.449 0 0 1 0.054-2.043c0.225-0.212 0.516-0.348 0.824-0.384 0.046-0.006 0.093-0.007 0.138-0.01zM22.619 0a2.333 2.333 0 1 1-0.726 4.548l-0.003 0.002-0.034-0.012-3.166 3.005-0.105-0.143a7.453 7.453 0 0 0-0.554-0.651l-0.035-0.045-0.276-0.276-0.125-0.107-0.08-0.073-0.062-0.051-0.08-0.073a7.741 7.741 0 0 0-4.795-1.818A7.718 7.718 0 0 0 8.422 5.385l-1.017-1.061a9.176 9.176 0 0 1 5.207-1.453 9.128 9.128 0 0 1 5.672 2.149h0.017l2.097-1.99A2.332 2.332 0 0 1 22.623 0.001zM12.454 5.207c0.264 0 0.526 0.021 0.789 0.052 3.762 0.472 6.427 3.905 5.964 7.668a6.878 6.878 0 0 1-7.667 5.965 6.878 6.878 0 0 1-5.966-7.667c0.448-3.491 3.382-6.005 6.879-6.018z m-0.104 2.948c-1.522 0.121-2.624 1.274-2.663 2.803 0.028 1.094 0.586 2.014 1.562 2.518l-0.531 2.491h3.553l-0.53-2.491c0.97-0.526 1.547-1.397 1.563-2.515-0.021-1.58-1.244-2.769-2.809-2.809l-0.146 0.004z m0.054-0.015h-0.01z"/></svg>