<svg fill="#4D4D4D" role="img" viewBox="0 0 27 24" xmlns="http://www.w3.org/2000/svg"><title>Keycloak</title><path d="M20.979 0l-13.858 0.002C4.798 3.996 2.495 7.999 0.189 12.002c2.297 4.007 4.617 8.002 6.935 11.998l13.855-0.004 3.426-5.995h2.394v-0.002H26.811L26.807 5.999h-2.405zM9.426 4.004h2.308l1.154 1.997-3.461 6.005 3.457 5.993-1.148 2.008H9.426a2271.288 2271.288 0 0 0-4.624-7.991C6.342 9.344 7.884 6.676 9.426 4.004Zm6.923 0l2.314 0.004c1.545 2.668 3.084 5.339 4.621 8.011l-4.623 7.987h-2.307c-0.424-0.623-1.151-2.006-1.151-2.006l3.464-5.996-3.465-6.004z"/></svg>