<svg fill="#F40027" role="img" viewBox="0 0 77 24" xmlns="http://www.w3.org/2000/svg"><title>KFC</title><path d="M69.991 0c-13.327 0.003-16.708 7.528-17.252 12.637-0.618 5.736 3.352 11.363 13.136 11.363 4.119 0 6.812-0.716 7.767-1.019a0.684 0.684 0 0 0 0.468-0.528l0.551-2.897a0.586 0.586 0 0 0-0.752-0.668c-1.069 0.337-2.96 0.802-5.363 0.802-4.676 0-8.053-2.807-7.623-7.639 0.414-4.679 3.568-8.244 7.909-8.244 2.61 0 3.766 1.369 3.68 3.192v0.106a0.586 0.586 0 0 0 0.579 0.614h1.773c0.274 0 0.509-0.191 0.573-0.455l1.242-5.602a0.684 0.684 0 0 0-0.478-0.812 22.95 22.95 0 0 0-6.207-0.847z m-64.16 0.369a0.637 0.637 0 0 0-0.621 0.497l-0.344 1.54a0.63 0.63 0 0 0 0.414 0.732l0.105 0.032c0.662 0.261 1.432 0.847 1.108 2.381l-2.521 11.523c-0.659 3.142-1.725 3.788-2.737 3.902h-0.032a0.637 0.637 0 0 0-0.56 0.5l-0.325 1.477a0.611 0.611 0 0 0 0.595 0.741h11.099c0.271 0 0.506-0.191 0.564-0.452l0.382-1.728a0.586 0.586 0 0 0-0.357-0.668l-0.07-0.032c-0.563-0.223-1.331-0.713-1.133-1.624l1.289-5.888c4.421 8.069 5.882 10.396 11.185 10.392H28.666a0.576 0.576 0 0 0 0.563-0.452l0.334-1.496a0.621 0.621 0 0 0-0.592-0.757c-1.197-0.019-1.782-0.296-2.976-1.83l-6.149-8.321 7.989-6.646c1.073-0.84 2.381-1.076 3.107-1.171l0.07-0.007a0.589 0.589 0 0 0 0.519-0.458l0.327-1.477a0.586 0.586 0 0 0-0.573-0.71h-9.612a0.633 0.633 0 0 0-0.615 0.494l-0.324 1.464a0.637 0.637 0 0 0 0.439 0.748c0.567 0.22 0.691 0.764 0.201 1.165L13.184 11.045l1.4-6.411a2.174 2.174 0 0 1 1.518-1.55l0.08-0.025a0.633 0.633 0 0 0 0.43-0.468l0.337-1.518a0.576 0.576 0 0 0-0.563-0.701z m28.265 0a0.637 0.637 0 0 0-0.617 0.497l-0.341 1.537a0.605 0.605 0 0 0 0.388 0.704l0.064 0.025c0.649 0.245 1.55 0.872 1.159 2.413l-3.852 17.443a0.579 0.579 0 0 0 0.567 0.706h8.839c0.274 0 0.509-0.191 0.57-0.455l0.382-1.741a0.554 0.554 0 0 0-0.312-0.624 4.959 4.959 0 0 1-0.086-0.041c-0.56-0.274-1.394-0.907-1.114-2.133 0.029-0.159 0.859-3.947 0.859-3.947h7.518c0.274 0 0.509-0.191 0.573-0.455l0.704-3.183a0.582 0.582 0 0 0-0.573-0.713h-7.257l1.359-6.175 5.067-0.009c1.639 0 2.139 0.859 2.044 2.317l-0.007 0.076a0.586 0.586 0 0 0 0.583 0.653h1.868c0.274 0 0.509-0.191 0.567-0.459l1.273-5.729a0.586 0.586 0 0 0-0.573-0.707z"/></svg>