<svg fill="#14BF96" role="img" viewBox="0 0 23 24" xmlns="http://www.w3.org/2000/svg"><title>Khan Academy</title><path d="M21.224 4.973L12.918 0.328a3.214 3.214 0 0 0-2.828 0L1.776 4.973A3.05 3.05 0 0 0 0.362 7.371v9.256a3.05 3.05 0 0 0 1.414 2.4l8.306 4.645a3.214 3.214 0 0 0 2.828 0l8.314-4.645a3.05 3.05 0 0 0 1.414-2.4V7.373a3.05 3.05 0 0 0-1.414-2.4zM11.5 4.921a2.571 2.571 0 1 1 0.001 5.143A2.571 2.571 0 0 1 11.5 4.92z m3.094 13.627a9.119 9.119 0 0 1-3.103 0.549 8.972 8.972 0 0 1-3.076-0.55 8.493 8.493 0 0 1-5.486-7.987v-0.857c4.646 0.017 8.074 3.823 8.074 8.51v0.198h0.926v-0.197c0-4.688 3.445-8.51 8.056-8.51 0.026 0.29 0.043 0.582 0.086 0.856a8.502 8.502 0 0 1-5.477 7.988z"/></svg>