<svg fill="#CC3333" role="img" viewBox="0 0 134 24" xmlns="http://www.w3.org/2000/svg"><title>Khronos Group</title><path d="M2.952 17.271H0.103v-14.578h2.849v14.578z m0.044-7.242l4.41-7.336h3.183l-4.677 7.236 4.677 7.336h-3.177l-4.416-7.236z m17.338 1.327v5.915h-2.849v-14.578h2.849v5.915h4.699v-5.915h2.849v14.578h-2.843v-5.915h-4.705z m18.787 5.915h-2.849v-14.578h3.462c1.104 0 1.923 0.033 2.464 0.117a4.387 4.387 0 0 1 3.272 1.996 4.571 4.571 0 0 1 0.653 2.447 4.493 4.493 0 0 1-0.931 2.871 4.142 4.142 0 0 1-2.526 1.5l3.641 5.653h-3.395l-3.78-6.757-0.011 6.751z m0-7.47h0.635c1.16 0 2.035-0.206 2.643-0.625a2.102 2.102 0 0 0 0.897-1.828c0-0.775-0.251-1.344-0.758-1.711-0.502-0.368-1.288-0.552-2.353-0.552h-1.064v4.716z m47.441 7.47h-2.799v-14.578h2.704L92.499 11.997v-9.304h2.798v14.578h-2.648l-6.087-9.589v9.589z m16.512-7.32a7.543 7.543 0 0 1 1.271-4.264c0.719-1.054 1.628-1.856 2.715-2.425a7.571 7.571 0 0 1 6.361-0.296 7.637 7.637 0 0 1 4.075 4.064 7.877 7.877 0 0 1 0.028 5.798c-0.362 0.914-0.886 1.728-1.578 2.431a7.398 7.398 0 0 1-5.368 2.302c-1.087 0-2.085-0.195-3.011-0.585a7.08 7.08 0 0 1-2.43-1.723 7.47 7.47 0 0 1-2.063-5.302z m2.983-0.1a4.761 4.761 0 0 0 1.232 3.233 4.627 4.627 0 0 0 1.527 1.121 4.265 4.265 0 0 0 1.762 0.396 4.248 4.248 0 0 0 3.211-1.361 4.722 4.722 0 0 0 1.293-3.389 4.348 4.348 0 0 0-1.31-3.172 4.259 4.259 0 0 0-3.144-1.316 4.454 4.454 0 0 0-3.245 1.31 4.32 4.32 0 0 0-1.326 3.178z m18.892 2.91l2.615-0.006v0.207c0 0.613 0.156 1.104 0.474 1.466a1.594 1.594 0 0 0 1.265 0.552 1.784 1.784 0 0 0 1.344-0.513 1.934 1.934 0 0 0 0.496-1.394c0-0.937-0.669-1.611-2.007-2.018a11.044 11.044 0 0 1-0.412-0.128c-1.132-0.351-1.973-0.859-2.52-1.505a3.707 3.707 0 0 1-0.82-2.47c0-1.366 0.379-2.47 1.138-3.295a3.913 3.913 0 0 1 3.032-1.243c1.182 0 2.124 0.368 2.821 1.104s1.093 1.773 1.171 3.094h-2.587v-0.123a1.511 1.511 0 0 0-0.424-1.114 1.494 1.494 0 0 0-1.103-0.424c-0.468 0-0.836 0.145-1.11 0.44s-0.401 0.691-0.401 1.193c0 0.217 0.028 0.401 0.083 0.563 0.056 0.167 0.145 0.312 0.268 0.441 0.273 0.301 0.864 0.574 1.762 0.836 0.401 0.106 0.708 0.195 0.919 0.273 0.998 0.34 1.739 0.825 2.219 1.461s0.725 1.444 0.725 2.43c0 1.505-0.418 2.704-1.254 3.618a4.281 4.281 0 0 1-3.317 1.366 4.086 4.086 0 0 1-3.156-1.316c-0.786-0.892-1.199-2.057-1.221-3.495z m-28.052 7.453l-0.39 0.43a1.862 1.862 0 0 0-0.574-0.363 1.628 1.628 0 0 0-0.619-0.117 1.449 1.449 0 0 0-1.115 0.469c-0.301 0.312-0.446 0.691-0.446 1.142s0.151 0.836 0.446 1.143c0.301 0.312 0.669 0.468 1.115 0.469a1.617 1.617 0 0 0 1.054-0.374v-0.964h-0.864v-0.569h1.483v1.873a3.451 3.451 0 0 1-0.82 0.474 2.431 2.431 0 0 1-0.847 0.156 2.135 2.135 0 0 1-2.202-2.202 2.23 2.23 0 0 1 1.299-2.024 2.386 2.386 0 0 1 1.784-0.011 1.851 1.851 0 0 1 0.696 0.468z m6.082-0.524h0.798a4.627 4.627 0 0 1 0.552 0.034 1.377 1.377 0 0 1 0.379 0.123c0.178 0.095 0.323 0.24 0.423 0.423s0.156 0.401 0.156 0.636a1.015 1.015 0 0 1-0.267 0.713 1.187 1.187 0 0 1-0.714 0.374l1.277 1.728-0.591 0.251-1.405-2.035v1.935l-0.624 0.05 0.016-4.232z m0.63 0.558v1.327h0.223c0.268 0 0.474-0.056 0.625-0.179a0.624 0.624 0 0 0 0.223-0.501 0.591 0.591 0 0 0-0.207-0.485 1.009 1.009 0 0 0-0.618-0.168h-0.246v0.006z m9.689-0.663a2.102 2.102 0 0 1 1.427 0.529 2.247 2.247 0 0 1-0.54 3.707 2.174 2.174 0 0 1-0.898 0.179 2.202 2.202 0 0 1-1.433-0.53 2.252 2.252 0 0 1-0.769-1.683 2.23 2.23 0 0 1 1.416-2.069 2.241 2.241 0 0 1 0.797-0.133z m0 0.579a1.449 1.449 0 0 0-1.115 0.469c-0.301 0.312-0.446 0.691-0.446 1.142s0.151 0.836 0.446 1.143c0.301 0.312 0.669 0.463 1.121 0.463a1.583 1.583 0 0 0 1.566-1.611 1.555 1.555 0 0 0-1.572-1.606z m8.714-0.529v2.375c0 0.502 0.067 0.859 0.195 1.064 0.128 0.201 0.346 0.301 0.652 0.301s0.535-0.095 0.669-0.29 0.206-0.513 0.206-0.958v-2.431l0.602-0.056v2.637c0 0.34-0.022 0.602-0.072 0.786s-0.139 0.34-0.251 0.474a1.204 1.204 0 0 1-0.485 0.329 1.773 1.773 0 0 1-0.641 0.123c-0.502 0-0.886-0.145-1.132-0.424-0.251-0.279-0.374-0.714-0.373-1.288v-2.57l0.63-0.072z m8.445 0.055h1.11c0.474 0 0.842 0.106 1.092 0.324 0.251 0.217 0.374 0.535 0.374 0.942 0 0.39-0.145 0.697-0.429 0.931a1.868 1.868 0 0 1-1.188 0.34 4.638 4.638 0 0 1-0.318-0.017h-0.016v1.656l-0.625 0.05v-4.226z m0.625 0.558v1.394l0.173 0.022a2.414 2.414 0 0 0 0.206 0.005c0.301 0 0.535-0.056 0.691-0.178a0.636 0.636 0 0 0 0.24-0.535c0-0.245-0.072-0.424-0.218-0.541-0.145-0.117-0.374-0.173-0.685-0.173h-0.407v0.006z m-67.064-3.925c-5.001-0.178-11.835-2.464-13.252-5.758-1.221-2.999-0.006-6.495 5.765-8.976 3.428-1.427 8.607-1.829 12.604-1.46 5.664 0.518 11.066 3.445 11.072 3.462v4.108l-0.006 0.273s-1.756-1.589-3.952-2.871c-2.068-1.21-3.958-2.057-7.716-2.402-0.881-0.078-2.375-0.279-4.8 0.055-0.981 0.139-2.358 0.24-5.469 1.606a13.056 13.056 0 0 0-2.653 1.589 16.462 16.462 0 0 0-1.243 1.12c-0.886 1.109-1.355 1.946-1.132 3.457 0.256 1.137 0.764 1.851 2.224 2.937 0.636 0.474 0.708 0.468 0.987 0.614 2.615 1.355 4.7 1.851 7.682 2.224m0.167-12.788c5.017-0.022 12.131 1.985 13.976 5.223 1.622 2.943 0.87 6.478-4.554 9.176-3.222 1.561-8.34 2.169-12.371 1.957-5.72-0.295-11.495-3.01-11.5-3.016l-0.547-4.098-0.033-0.273s1.962 1.516 4.326 2.715c2.224 1.121 4.226 1.901 8.016 2.096 0.886 0.05 2.403 0.178 4.778-0.245 0.959-0.173 2.325-0.329 5.24-1.812a11.038 11.038 0 0 0 3.523-2.854c0.736-1.143 1.093-1.996 0.669-3.49-0.413-1.121-1.009-1.812-2.603-2.843-0.691-0.446-0.764-0.44-1.065-0.574-2.787-1.243-4.928-1.656-7.961-1.912"/></svg>