<svg fill="#05141F" role="img" viewBox="0 0 103 24" xmlns="http://www.w3.org/2000/svg"><title>Kia</title><path d="M59.673 21.246c0 0.196 0.064 0.306 0.174 0.306a0.523 0.523 0 0 0 0.247-0.102l31.79-20.63a3.06 3.06 0 0 1 1.836-0.552h6.987c1.071 0 1.794 0.714 1.794 1.785v13.341c0 1.615-0.357 2.55-1.785 3.404l-8.475 5.1a0.582 0.582 0 0 1-0.285 0.102c-0.102 0-0.204-0.081-0.204-0.374v-15.568c0-0.183-0.051-0.302-0.174-0.302a0.48 0.48 0 0 0-0.247 0.102l-23.23 15.092a3.115 3.115 0 0 1-1.785 0.54h-15.403c-1.08 0-1.794-0.714-1.793-1.794V2.469c0-0.14-0.064-0.272-0.187-0.272a0.502 0.502 0 0 0-0.242 0.102L33.361 11.492c-0.153 0.102-0.196 0.174-0.196 0.247 0 0.06 0.034 0.123 0.136 0.233l10.953 10.944c0.145 0.145 0.247 0.255 0.246 0.378 0 0.102-0.166 0.183-0.357 0.183H34.245c-0.778 0-1.377-0.111-1.798-0.531l-6.639-6.63a0.285 0.285 0 0 0-0.204-0.102 0.438 0.438 0 0 0-0.204 0.064l-11.092 6.672a3.06 3.06 0 0 1-1.798 0.519H2.306C1.213 23.477 0.499 22.755 0.499 21.688v-13.09c0-1.615 0.357-2.55 1.794-3.4L10.827 0.068a0.438 0.438 0 0 1 0.221-0.068c0.136 0 0.204 0.128 0.204 0.425V17.952c0 0.183 0.043 0.268 0.174 0.268a0.612 0.612 0 0 0 0.255-0.102L40.48 0.782a3.115 3.115 0 0 1 1.895-0.527h15.504c1.071 0 1.794 0.714 1.794 1.785l-0.009 19.202z"/></svg>