<svg fill="#314CB0" role="img" viewBox="0 0 62 24" xmlns="http://www.w3.org/2000/svg"><title>KiCad</title><path d="M19.417 0.001c-1.206 0.061-2.166 1.058-2.166 2.275 0 1.257 1.021 2.276 2.281 2.276 1.26 0 2.281-1.019 2.281-2.276 0-1.257-1.02-2.276-2.281-2.275-0.039 0-0.076-0.002-0.115 0zM0.978 1.807c-0.356 0-0.639 0.31-0.639 0.649v20.895c0 0.339 0.283 0.649 0.639 0.649h21.773c0.356 0 0.634-0.31 0.634-0.649V2.456c0-0.339-0.277-0.649-0.634-0.648h-0.664c0.028 0.152 0.045 0.309 0.045 0.469 0 0.155-0.014 0.307-0.04 0.454h0.369v20.346H1.262v-20.346h15.71a2.601 2.601 0 0 1-0.04-0.454c0-0.16 0.017-0.316 0.045-0.469z m0.668 1.308v19.582h20.431v-19.582h-0.085a2.619 2.619 0 0 1-1.247 1.457 2.167 2.167 0 0 1-1.213 0.364 2.167 2.167 0 0 1-1.213-0.364 2.619 2.619 0 0 1-1.247-1.457z m55.09 0.644c0.247 0.277 0.399 0.579 0.459 0.908 0.03 0.157 0.045 0.509 0.045 1.048v4.252c-0.703-0.666-1.675-0.998-2.91-0.998-0.936 0-1.762 0.257-2.48 0.773-1.519 1.093-2.281 3.13-2.281 6.108 0 0.898 0.12 1.712 0.36 2.446 0.344 1.048 0.891 1.874 1.632 2.48 0.786 0.644 1.709 0.968 2.779 0.968 1.265 0 2.308-0.402 3.124-1.203v0.953H61.661c-0.344-0.381-0.514-1.04-0.514-1.975v-15.76Zm-24.613 0.763c-2.006 0-3.738 0.734-5.205 2.201-1.586 1.587-2.38 3.729-2.381 6.423 0 2.402 0.646 4.404 1.942 6.013 1.392 1.736 3.257 2.605 5.599 2.605 1.474 0 2.807-0.335 3.997-1.008 0.674-0.382 1.058-0.562 1.148-0.539l-1.866-3.054c-0.883 0.973-1.892 1.457-3.03 1.457-0.636 0-1.235-0.2-1.796-0.604-1.205-0.868-1.807-2.491-1.807-4.87 0-0.838 0.082-1.605 0.255-2.301 0.524-2.125 1.647-3.189 3.368-3.189 1.1 0 1.981 0.419 2.64 1.258l2.012-2.92c-0.217-0.023-0.502-0.13-0.854-0.324-1.37-0.763-2.713-1.148-4.022-1.148zM1.771 4.782H7.046c-0.419 0.419-0.629 1.143-0.629 2.175v4.123l3.224-4.078c0.659-0.83 0.988-1.45 0.988-1.861 0-0.149-0.022-0.269-0.06-0.359h5.624c-0.427 0.239-0.958 0.741-1.602 1.512-0.172 0.202-0.474 0.574-0.908 1.113L9.461 12.662l5.041 6.936c0.307 0.419 0.696 0.894 1.167 1.418 0.127 0.135 0.309 0.292 0.549 0.479H10.449a1.828 1.828 0 0 0 0.065-0.459c0-0.412-0.285-1.008-0.853-1.787L6.417 14.827v4.482c0 1.04 0.21 1.767 0.629 2.186H1.771c0.292-0.292 0.477-0.624 0.559-0.998 0.045-0.21 0.07-0.602 0.07-1.178v-12.362c0-0.576-0.025-0.968-0.07-1.177-0.082-0.374-0.267-0.706-0.559-0.998z m41.401 4.187c-0.606 0-1.165 0.05-1.682 0.154l-1.527 0.384c-0.718 0.18-1.205 0.27-1.452 0.27l1.112 2.68c1.048-0.554 2.049-0.828 3-0.829 1.115 0 1.672 0.642 1.671 1.922-0.554-0.03-0.943-0.045-1.167-0.045-1.579 0-2.807 0.212-3.683 0.639-1.519 0.741-2.276 1.887-2.276 3.443 0 0.681 0.12 1.293 0.36 1.831 0.337 0.756 0.871 1.34 1.611 1.752 0.704 0.389 1.49 0.582 2.351 0.574 1.212-0.015 2.203-0.417 2.974-1.203v0.953h4.187c-0.254-0.277-0.414-0.582-0.474-0.918-0.03-0.165-0.045-0.519-0.045-1.058V14.029c0-1.1-0.15-2.021-0.449-2.77-0.614-1.526-2.117-2.29-4.511-2.29z m-26.09 0.244h4.411v10.305c0 0.539 0.015 0.894 0.045 1.058 0.06 0.337 0.22 0.641 0.474 0.919H17.072c0.254-0.277 0.409-0.582 0.469-0.919 0.03-0.165 0.045-0.519 0.045-1.057V11.17c0-0.539-0.015-0.886-0.045-1.043-0.06-0.329-0.212-0.636-0.459-0.914zM55.588 11.819c0.606 0 1.158 0.21 1.652 0.628v5.604c-0.584 0.471-1.193 0.704-1.822 0.704-1.205 0-1.806-1.028-1.806-3.094 0-2.559 0.659-3.842 1.976-3.842z m-12.247 4.211c0.314 0 0.614 0.023 0.899 0.075v1.946c-0.374 0.644-0.971 0.963-1.787 0.964-0.442 0-0.806-0.118-1.098-0.35-0.322-0.254-0.484-0.592-0.484-1.018 0-0.569 0.285-0.998 0.854-1.282 0.449-0.224 0.988-0.334 1.616-0.335z"/></svg>