<svg fill="#82BC23" role="img" viewBox="0 0 48 24" xmlns="http://www.w3.org/2000/svg"><title>Kik</title><path d="M22.965 21.493c-0.02 1.375-1.119 2.481-2.473 2.481-1.377 0-2.457-1.081-2.486-2.457h-0.031v-12.473H18.006v-0.058c0-1.385 1.111-2.509 2.472-2.509s2.469 1.125 2.469 2.513v0.09h0.032v12.437h-0.032l0.018-0.024z m22.25-9.768c1.498 0 2.759 1.235 2.759 2.751 0 1.518-1.261 2.747-2.759 2.747-1.53 0-2.787-1.229-2.787-2.755 0-1.53 1.229-2.759 2.755-2.759l0.032 0.016z m-4.163 8.363c0.242 0.39 0.386 0.863 0.385 1.371 0 1.404-1.105 2.517-2.485 2.517-0.925 0-1.736-0.511-2.158-1.261l-4.101-5.486-1.261 1.171v3.267h-0.028c-0.078 1.303-1.139 2.333-2.447 2.333-1.347 0-2.439-1.105-2.44-2.473v-0.05h-0.032v-18.88h0.054v-0.094c0-1.379 1.101-2.503 2.458-2.503 1.347 0 2.447 1.123 2.447 2.503v0.14h0.032l0.02 9.184 4.617-4.517c0.458-0.509 1.117-0.809 1.854-0.809 1.377 0 2.493 1.139 2.493 2.517 0 0.691-0.266 1.291-0.687 1.74l0.024 0.03-3.239 3.207 4.557 6.115-0.032 0.032-0.031-0.054z m-26.464 0c0.24 0.39 0.39 0.863 0.39 1.371 0 1.404-1.109 2.517-2.486 2.517-0.931 0-1.74-0.511-2.159-1.261l-4.104-5.486-1.258 1.171v3.259H4.941c-0.072 1.307-1.139 2.337-2.44 2.337-1.351 0-2.447-1.109-2.447-2.473v-0.054H0.026V2.589h0.062c-0.008-0.03-0.008-0.058-0.008-0.088 0-1.379 1.101-2.501 2.457-2.501 1.349 0 2.447 1.117 2.448 2.497v0.14h0.032l0.02 9.19 4.617-4.517c0.46-0.509 1.123-0.809 1.86-0.809 1.373 0 2.487 1.139 2.487 2.517 0 0.659-0.262 1.291-0.691 1.74l0.032 0.03-3.251 3.207 4.537 6.115-0.032 0.032-0.008-0.054z"/></svg>