<svg fill="#000000" role="img" viewBox="0 0 18 24" xmlns="http://www.w3.org/2000/svg"><title>Kingston Technology</title><path d="M11.123 0.001c-0.544-0.004-1.03 0.008-1.439 0.02C4.185 0.17 1.212 1.706 1.212 1.706s-0.297 0.199-0.148 0.843c0 0 0.099 0.792 0.198 1.139l0.049 0.099c-0.099 0.099-0.496 0.297-0.644 0.496-0.347 0.446-0.049 2.477-0.05 2.477 0.347 2.13 0.694 2.526 0.694 2.526s0.496 0.644 1.189 1.09c0.297 0.149 0.248 0.495 0.248 0.495L0.32 24h16.35l-3.419-7.481c0.694 0 2.131 0.346 2.923-1.883 0.743-2.13 1.14-5.35 1.189-6.291 0.099-0.941-0.1-2.923-0.05-3.419 0-0.149 0.347-0.644 0.347-0.941 0.05-0.446-0.001-0.842-0.099-1.585-0.05-0.297-0.098-0.644-0.198-0.991-0.05-0.248-0.1-0.396-0.298-0.496C14.91 0.17 12.756 0.012 11.123 0.001Zm-1.439 0.417c0.545 0 5.103-0.049 7.233 0.892 0.198 0.149 0.05 0.891-0.049 1.288-0.05 0.297-0.397 0.397-0.397 0.397-0.347 0.099-0.446 0.346-0.446 0.346s0.446 4.31 0.496 4.459c0.05 0.198-0.148 0.198-0.545 0.248-0.198 0-2.477 0.049-2.477 0.049s-0.496-0.049-0.446-0.346c0-0.198 0.099-0.595 0.198-0.595h0.446s0.991 0.05 0.694-0.05l-1.04-0.248s-0.248 0-0.348 0.149c-0.05 0.149-0.297 0.942-0.297 0.942s0 0.049 0.049 0.099c0.05 0.05 2.577 1.883 2.577 1.883s-2.131-0.199-2.775-0.051c-0.644 0.149-1.981 0.842-2.823 0.991-0.842 0.149-3.964 0.495-4.162 0.496l-1.239-5.35s-0.148-1.337-1.535-1.288c-1.04 0.05-1.189 0.297-1.239 0.395-0.099 0.198 0 0.397 0 0.397l3.369 5.747s-2.279-1.09-3.171-2.328c-0.495-0.644-0.942-3.865-0.644-4.41 0.297-0.495 2.131-0.891 2.923-0.792 0.396 0.05 0.743 0.445 0.942 0.693 0.05 0.099 0.099 0.05 0.148 0.099 0 0-0.198-1.238-0.991-1.288-1.139-0.099-2.377 0.346-2.378 0.347s-0.1 0-0.149-0.149c-0.05-0.198-0.198-1.239-0.198-1.239s0.05-0.198 0.248-0.297c0 0 3.221-1.486 8.026-1.486z m0.644 1.427c-0.07 0.003-0.099 0.01-0.099 0.01-2.081 0.842-3.765 2.675-3.765 2.576 0.198 0.05 0.594 0 0.594 0 1.833-1.585 3.419-2.229 3.419-2.23 1.338 0 3.616 0.793 3.765 0.743 0.05 0 0.05-0.247-0.05-0.297-0.248-0.05-0.743-0.297-1.684-0.495-1.375-0.297-1.969-0.316-2.18-0.307Zm6.788 1.397c0.198 0.05 0.198 0.049 0.297 0.148 0.149 0.099 0.099 0.397 0 0.446-0.099 0.099-0.148-0.099-0.793-0.049 0 0 0.297-0.594 0.496-0.545z m-4.871 0.102c-0.362-0.019-0.864 0.047-1.422 0.195-0.743 0.198-2.229 0.942-2.229 0.942 0.595 0.248 1.586 0.347 2.527 0.495 1.04 0.099 2.179-0.446 2.179-0.446-0.05-0.149-0.396-1.041-0.743-1.14-0.087-0.025-0.192-0.04-0.312-0.046z m0.786 7.401c0.724 0.017 1.576 0.101 2.449 0.325 0 0 0.496 0.396 0.446 0.743 0 0-3.567 0.198-4.954-0.942 0 0 0.852-0.155 2.059-0.126z m-9.738 0.176l1.536 1.041 2.526 11.543H0.915Zm11.803 1.456a8.479 8.479 0 0 1 0.732 0.031s0.297 0.247-0.496 1.04c-0.991 0.941-2.726 1.684-4.261 1.288 0 0 0.566-2.351 4.025-2.359z m-8.087 4.192s3.122 1.932 3.617 2.675l0.346 4.311h-2.279Zm5.3 3.963s1.833 1.685 2.379 3.023h-3.071z"/></svg>