<svg fill="#5333ED" role="img" viewBox="0 0 123 24" xmlns="http://www.w3.org/2000/svg"><title>Kinsta</title><path d="M52.394 3.821a10.174 10.174 0 0 0-3.216-2.198 9.793 9.793 0 0 0-3.906-0.793 10.096 10.096 0 0 0-3.689 0.691 10.201 10.201 0 0 0-3.159 1.953l-1.624-1.884a0.93 0.93 0 0 0-0.696-0.32h-0.051a0.92 0.92 0 0 0-0.92 0.922v20.851a0.925 0.925 0 0 0 0.92 0.927h3.926a0.925 0.925 0 0 0 0.923-0.927v-12.029a4.258 4.258 0 0 1 0.337-1.685 4.319 4.319 0 0 1 0.928-1.387 4.368 4.368 0 0 1 3.108-1.269 4.168 4.168 0 0 1 1.667 0.337 4.363 4.363 0 0 1 2.302 2.317 4.307 4.307 0 0 1 0.338 1.684v12.047a0.927 0.927 0 0 0 0.923 0.927h3.92a0.925 0.925 0 0 0 0.921-0.927v-12.044a10.01 10.01 0 0 0-0.791-3.955 10.359 10.359 0 0 0-2.161-3.238z m44.535-2.493h-15.469a0.923 0.923 0 0 0-0.918 0.926v3.906a0.92 0.92 0 0 0 0.918 0.923h0.977a0.925 0.925 0 0 1 0.922 0.925v5.815a9.993 9.993 0 0 0 0.789 3.944 10.293 10.293 0 0 0 5.406 5.417 9.766 9.766 0 0 0 3.93 0.797h3.455a0.925 0.925 0 0 0 0.922-0.928v-3.907a0.923 0.923 0 0 0-0.922-0.925h-3.465a4.302 4.302 0 0 1-1.709-0.349 4.483 4.483 0 0 1-1.391-0.94 4.343 4.343 0 0 1-0.93-1.389 4.297 4.297 0 0 1-0.335-1.709v-5.816a0.925 0.925 0 0 1 0.92-0.925h6.907a0.923 0.923 0 0 0 0.923-0.923v-3.907a0.925 0.925 0 0 0-0.93-0.935z m25.147-0.42h-0.041a0.916 0.916 0 0 0-0.715 0.339l-1.355 1.624a0.918 0.918 0 0 1-1.299 0.117 15.337 15.337 0 0 0-1.035-0.803 12.969 12.969 0 0 0-1.934-1.145 11.395 11.395 0 0 0-2.09-0.764 8.846 8.846 0 0 0-2.177-0.276 11.531 11.531 0 0 0-4.493 0.881 11.201 11.201 0 0 0-3.683 2.461 11.687 11.687 0 0 0-2.484 3.804 12.72 12.72 0 0 0-0.906 4.866 13.321 13.321 0 0 0 0.906 5.066 11.035 11.035 0 0 0 2.483 3.763 10.655 10.655 0 0 0 3.677 2.341 12.43 12.43 0 0 0 4.492 0.808 8.628 8.628 0 0 0 2.166-0.278 11.812 11.812 0 0 0 2.082-0.752 12.739 12.739 0 0 0 1.934-1.126 17.138 17.138 0 0 0 1.004-0.754 0.916 0.916 0 0 1 1.323 0.178l1.382 1.922a0.92 0.92 0 0 0 1.67-0.542v-20.807a0.923 0.923 0 0 0-0.916-0.925z m-5.342 13.404a6.634 6.634 0 0 1-1.235 1.97 6.175 6.175 0 0 1-1.829 1.377 5.005 5.005 0 0 1-2.231 0.517 6.167 6.167 0 0 1-2.227-0.402 5.005 5.005 0 0 1-1.816-1.189 5.564 5.564 0 0 1-1.221-1.936 8.071 8.071 0 0 1 0-5.281 5.647 5.647 0 0 1 1.221-1.936 5.054 5.054 0 0 1 1.816-1.187 6.187 6.187 0 0 1 2.227-0.402 4.976 4.976 0 0 1 2.231 0.517 6.072 6.072 0 0 1 1.829 1.377 6.641 6.641 0 0 1 1.235 1.971 6.104 6.104 0 0 1 0 4.609zM4.914 1.287H0.942a0.923 0.923 0 0 0-0.925 0.922v20.851a0.927 0.927 0 0 0 0.925 0.927h3.965a0.925 0.925 0 0 0 0.923-0.927v-20.85A0.923 0.923 0 0 0 4.909 1.286z m16.236 1.572a0.927 0.927 0 0 0-0.698-1.531h-4.454a0.916 0.916 0 0 0-0.697 0.325L6.352 12.056a0.92 0.92 0 0 0 0 1.221l8.949 10.401a0.916 0.916 0 0 0 0.697 0.322h4.449a0.927 0.927 0 0 0 0.698-1.534l-7.947-9.191a0.925 0.925 0 0 1 0-1.221z m8.645-1.575h-0.051a0.918 0.918 0 0 0-0.698 0.322l-0.186 0.218-3.689 4.274a0.916 0.916 0 0 0-0.224 0.606v16.358a0.923 0.923 0 0 0 0.921 0.925h3.92a0.925 0.925 0 0 0 0.921-0.925v-20.853a0.925 0.925 0 0 0-0.921-0.925Zm47.16 10.621a7.08 7.08 0 0 0-2.282-1.389 7.813 7.813 0 0 0-2.789-0.489H65.875a1.365 1.365 0 0 1-1.015-0.434 1.45 1.45 0 0 1-0.422-1.051 1.445 1.445 0 0 1 1.437-1.439h10.768a0.923 0.923 0 0 0 0.92-0.924v-3.925a0.923 0.923 0 0 0-0.92-0.926h-10.77a7.08 7.08 0 0 0-2.813 0.562 7.127 7.127 0 0 0-3.811 3.823 7.361 7.361 0 0 0 0 5.64 7.259 7.259 0 0 0 3.811 3.858 6.953 6.953 0 0 0 2.813 0.571h6.196a1.235 1.235 0 0 1 1.238 1.106 1.221 1.221 0 0 1-1.22 1.33h-12.481a0.92 0.92 0 0 0-0.918 0.923v3.907a0.92 0.92 0 0 0 0.918 0.922h12.266a7.124 7.124 0 0 0 5.071-2.107 7.493 7.493 0 0 0 1.543-2.29 6.99 6.99 0 0 0 0.571-2.808 6.49 6.49 0 0 0-0.571-2.732 6.665 6.665 0 0 0-1.536-2.126z"/></svg>