<svg fill="#000000" role="img" viewBox="0 0 75 24" xmlns="http://www.w3.org/2000/svg"><title>Kit</title><path d="M10.939 10.853l-7.606 7.524V1.647a1.656 1.656 0 0 0-1.665-1.647 1.656 1.656 0 0 0-1.666 1.647v20.699a1.65 1.65 0 0 0 1.662 1.643 1.666 1.666 0 0 0 1.178-0.478l9.294-9.184 9.293 9.187a1.672 1.672 0 0 0 2.356 0 1.631 1.631 0 0 0 0-2.331l-9.293-9.18L23.782 2.812a1.631 1.631 0 0 0 0-2.328 1.681 1.681 0 0 0-2.353 0l-10.449 10.334c-0.009 0-0.016 0.009-0.022 0.016l-0.022 0.019v-0.004z m27.58 13.143a1.656 1.656 0 0 1-1.666-1.644V1.65a1.656 1.656 0 0 1 1.666-1.65 1.656 1.656 0 0 1 1.665 1.65v20.699a1.656 1.656 0 0 1-1.665 1.643v0.004z m22.677-20.699v19.055c0 0.906 0.744 1.644 1.662 1.644a1.656 1.656 0 0 0 1.666-1.644V3.297h8.805A1.656 1.656 0 0 0 74.998 1.65a1.656 1.656 0 0 0-1.666-1.647h-20.942a1.656 1.656 0 0 0-1.666 1.647 1.656 1.656 0 0 0 1.666 1.647h8.809-0.003z"/></svg>