<svg fill="#00A1DE" role="img" viewBox="0 0 41 24" xmlns="http://www.w3.org/2000/svg"><title>KLM</title><path d="M11.567 13.76H7.739l-3.829 3.841v-3.841H0.082v10.24h3.828v-3.84l3.829 3.84h5.104l-5.743-5.76z m5.105 0H12.843v10.24h10.209v-2.583H16.672z m17.866 0l-1.915 5.76L30.709 13.76h-6.381v10.24h3.829v-7.681l2.552 7.681h3.829l2.552-7.681v7.681H40.918v-10.24zM17.948 8.001c1.234 0 2.234-1.002 2.234-2.24s-1-2.241-2.234-2.241-2.232 1.002-2.233 2.241 0.999 2.239 2.233 2.24z m2.872-2.24c0 1.237 1 2.239 2.232 2.24 1.234 0 2.234-1.002 2.234-2.24s-1-2.241-2.234-2.241-2.232 1.002-2.232 2.241z m5.103 0c0 1.237 1 2.239 2.232 2.24 1.234 0 2.234-1.002 2.234-2.24s-1-2.241-2.234-2.241-2.232 1.002-2.232 2.241z m-10.847 0c0-1.237-1-2.241-2.235-2.241s-2.232 1.002-2.232 2.241 1 2.239 2.234 2.24 2.232-1.002 2.233-2.24zM12.843 8.64h15.314v2.561h-15.314z m7.019-4.8h1.276v-1.279h1.276V1.281h-1.276v-1.281h-1.276V1.281h-1.276v1.28h1.276z"/></svg>