<svg fill="#0865AD" role="img" viewBox="0 0 30 24" xmlns="http://www.w3.org/2000/svg"><title>Knative</title><path d="M12.697 0.06l5.837 2.811-1.133 1.962a0.332 0.332 0 0 0-0.039 0.225l0.751 4.261a0.326 0.326 0 0 0 0.116 0.199l3.313 2.78c0.059 0.051 0.136 0.079 0.216 0.079h2.325l0.628 2.749a0.609 0.609 0 0 1-0.117 0.514l-6.486 8.132a0.608 0.608 0 0 1-0.474 0.228h-10.402a0.608 0.608 0 0 1-0.474-0.228L0.273 15.64a0.609 0.609 0 0 1-0.118-0.514l2.314-10.141a0.612 0.612 0 0 1 0.33-0.412l9.37-4.513a0.607 0.607 0 0 1 0.528 0ZM9.111 17.729h2.064v-3.008l0.793-0.971 2.256 3.979h2.433l-3.212-5.291 3.049-3.925h-2.558l-2.091 3.063c-0.206 0.328-0.424 0.656-0.629 1.011h-0.041v-4.074H9.111v9.216ZM24.017 0.053l3.684 1.341c0.067 0.025 0.123 0.072 0.158 0.134l1.96 3.395c0.036 0.062 0.048 0.134 0.036 0.205l-0.681 3.861a0.301 0.301 0 0 1-0.102 0.179l-3.005 2.52a0.303 0.303 0 0 1-0.194 0.072h-3.921a0.305 0.305 0 0 1-0.195-0.072l-3.003-2.52a0.297 0.297 0 0 1-0.104-0.179l-0.681-3.861a0.302 0.302 0 0 1 0.035-0.205l1.961-3.395a0.303 0.303 0 0 1 0.159-0.134l3.685-1.341a0.301 0.301 0 0 1 0.208 0Zm-0.88 4.215c-0.04-0.114-0.121-0.17-0.244-0.169h-0.603V7.753h0.979V5.126c0.109-0.106 0.223-0.189 0.344-0.247a0.859 0.859 0 0 1 0.386-0.089c0.185 0 0.323 0.056 0.419 0.168 0.094 0.113 0.141 0.27 0.141 0.473V7.753h0.975V5.431c0-0.203-0.026-0.39-0.08-0.56a1.223 1.223 0 0 0-0.237-0.439 1.084 1.084 0 0 0-0.388-0.288 1.496 1.496 0 0 0-0.863-0.066 1.456 1.456 0 0 0-0.54 0.251 2.422 2.422 0 0 0-0.228 0.194l-0.061-0.255Z"/></svg>