<svg fill="#D26B38" role="img" viewBox="0 0 25 24" xmlns="http://www.w3.org/2000/svg"><title>Knex.js</title><path d="M24.538 10.282v0.127l-0.095 0.25q-0.02 0.052-0.071 0.076l-2.856 1.294a0.024 0.024 0 0 0 0 0.044L24.538 13.449v0.64q-0.265 0.445-0.724 0.657-0.05 0.023-0.1 0.002l-2.232-0.905q-0.05-0.02-0.1-0.004l-0.912 0.284a0.086 0.087 59.4 0 1-0.089-0.023l-0.825-0.863q-0.066-0.067-0.082 0.025-0.301 1.703-1.347 3.067a0.019 0.019 0 0 0 0.015 0.03l1.368-0.024q0.049 0 0.072 0.043l0.418 0.797a0.205 0.208 88 0 0 0.104 0.096l2.149 0.911a0.137 0.137 0 0 1 0.078 0.086c0.139 0.477 0.157 1.176-0.427 1.338q-0.05 0.014-0.097-0.004l-2.91-1.097a0.028 0.028 0 0 0-0.035 0.036l1.072 2.854q0.019 0.05 0.002 0.1c-0.184 0.565-0.849 0.545-1.317 0.415a0.177 0.176 86.1 0 1-0.113-0.1l-0.904-2.144q-0.023-0.053-0.074-0.08l-0.816-0.416q-0.047-0.025-0.047-0.08l0.018-1.151a0.04 0.04 0 0 1 0.004-0.018q0.024-0.052 0.018-0.108-0.007-0.075-0.07-0.031-1.445 1.029-3.147 1.251a0.033 0.033 0 0 0-0.019 0.056l0.96 0.915q0.045 0.043 0.027 0.103l-0.264 0.828a0.281 0.281 0 0 0 0.008 0.191l0.87 2.142q0.018 0.043-0.002 0.085-0.191 0.404-0.554 0.647h-0.747l-1.304-2.875a0.023 0.022 44.7 0 0-0.04 0l-1.314 2.875h-0.606q-0.437-0.247-0.654-0.702-0.024-0.05-0.003-0.101l0.883-2.176q0.02-0.05 0.003-0.102l-0.28-0.881a0.093 0.093 0 0 1 0.026-0.098l0.918-0.864a0.032 0.032 0 0 0-0.016-0.056q-1.628-0.289-2.946-1.22-0.051-0.036-0.05 0.026l0.023 1.229q0 0.055-0.047 0.081l-0.84 0.449a0.15 0.149 87.5 0 0-0.067 0.074l-0.941 2.22q-0.024 0.058-0.084 0.076c-0.49 0.144-1.194 0.165-1.381-0.436q-0.012-0.043 0.003-0.084l1.115-2.965q0.037-0.096-0.06-0.06l-2.876 1.084q-0.057 0.021-0.117 0.005c-0.592-0.163-0.562-0.905-0.417-1.38q0.018-0.056 0.072-0.08l2.215-0.938q0.055-0.024 0.083-0.077l0.435-0.833a0.107 0.108 14.6 0 1 0.098-0.057l1.115 0.038q0.091 0.003 0.039-0.07a6.934 6.934 0 0 1-1.189-2.885 0.026 0.026 0 0 0-0.044-0.014l-0.856 0.903q-0.033 0.033-0.078 0.019l-0.907-0.281a0.191 0.185 41.8 0 0-0.126 0.005l-2.229 0.903q-0.048 0.02-0.096-0.002-0.554-0.261-0.765-0.8v-0.328l0.07-0.15a0.133 0.133 0 0 1 0.065-0.067l2.938-1.331a0.023 0.023 0 0 0 0-0.042L0.662 10.73q-0.051-0.024-0.074-0.076c-0.247-0.562 0.233-1.035 0.698-1.263a0.125 0.127 43.2 0 1 0.106-0.004l2.234 0.909q0.05 0.02 0.103 0.004l0.912-0.288a0.087 0.085 58.8 0 1 0.086 0.023l0.786 0.819q0.052 0.056 0.066-0.02 0.253-1.498 1.14-2.785 0.035-0.05-0.027-0.05l-1.162 0.026a0.09 0.089 75.4 0 1-0.08-0.047l-0.418-0.8a0.274 0.273 87.6 0 0-0.137-0.127l-2.175-0.921a0.116 0.112 2.4 0 1-0.061-0.064c-0.178-0.477-0.194-1.204 0.403-1.399q0.045-0.015 0.09 0.002L6.065 5.76q0.085 0.032 0.053-0.053L4.992 2.717a0.13 0.13 0 0 1 0-0.087c0.207-0.58 0.904-0.575 1.394-0.409a0.133 0.132 88.3 0 1 0.077 0.074l0.937 2.217a0.159 0.159 0 0 0 0.07 0.075l0.823 0.432q0.049 0.024 0.05 0.079 0.028 0.586-0.019 1.216-0.006 0.08 0.058 0.032 1.214-0.897 2.807-1.23 0.103-0.02 0.027-0.093l-0.79-0.751q-0.044-0.04-0.026-0.099l0.289-0.903q0.016-0.053-0.004-0.103L9.776 0.93q-0.02-0.05 0.003-0.097c0.221-0.462 0.727-0.979 1.265-0.701q0.055 0.029 0.082 0.086l1.286 2.833a0.034 0.035 45.2 0 0 0.063 0l1.317-2.91q0.025-0.056 0.08-0.078c0.57-0.234 1.031 0.224 1.261 0.692q0.028 0.058 0.004 0.116l-0.909 2.237a0.133 0.13 47.8 0 0-0.003 0.09l0.285 0.906a0.106 0.103 60 0 1-0.028 0.107l-0.862 0.823a0.028 0.029 28.1 0 0 0.015 0.05 6.872 6.872 0 0 1 2.943 1.204q0.058 0.042 0.057-0.03l-0.015-1.161q0-0.047 0.041-0.067l0.83-0.43q0.058-0.03 0.084-0.09l0.942-2.227q0.02-0.05 0.072-0.066c0.507-0.153 1.196-0.164 1.387 0.422q0.014 0.042-0.002 0.083l-1.098 2.933q-0.028 0.073 0.045 0.046l2.971-1.118q0.062-0.024 0.125-0.002c0.579 0.193 0.555 0.891 0.409 1.382a0.123 0.124 86.7 0 1-0.07 0.078l-2.224 0.936q-0.054 0.023-0.081 0.075l-0.435 0.835q-0.03 0.059-0.096 0.057l-1.206-0.037q-0.094-0.003-0.04 0.074 0.898 1.239 1.206 2.853 0.012 0.068 0.06 0.017l0.782-0.824q0.028-0.03 0.068-0.018l0.926 0.29q0.053 0.016 0.103-0.004l2.22-0.9q0.05-0.02 0.101 0 0.626 0.254 0.798 0.887zM10.534 9.015c0.345-0.206 0.721-0.381 1.116-0.462a0.09 0.09 0 0 0 0.073-0.088V7.083q0-0.075-0.076-0.061-1.204 0.221-2.169 0.943-0.048 0.034-0.006 0.076l0.963 0.962q0.045 0.045 0.101 0.012z m2.715-0.47c0.426 0.104 0.813 0.264 1.16 0.495q0.058 0.037 0.105-0.012l1.039-1.038a0.032 0.032 0 0 0-0.004-0.049q-1.035-0.746-2.286-0.936-0.062-0.009-0.062 0.053v1.425a0.064 0.063 7.7 0 0 0.048 0.062z m4.316 2.725a5.174 5.174 0 0 0-0.903-2.199 0.055 0.055 0 0 0-0.084-0.007l-1.037 1.036q-0.043 0.044-0.01 0.096 0.315 0.502 0.443 1.083 0.013 0.06 0.075 0.06h1.455q0.07 0 0.06-0.069z m-8.625 0.011c0.089-0.403 0.241-0.775 0.463-1.124q0.034-0.053-0.01-0.097l-0.969-0.97a0.03 0.03 0 0 0-0.047 0.004q-0.692 0.956-0.893 2.178a0.058 0.058 0 0 0 0.058 0.067h1.324q0.06 0 0.074-0.058z m5.166 0.787a1.649 1.649 0 0 0-1.648-1.649 1.649 1.649 0 0 0-1.649 1.649 1.649 1.649 0 0 0 1.649 1.648 1.649 1.649 0 0 0 1.649-1.648z m-6.613 0.81a5.086 5.086 0 0 0 0.908 2.175q0.037 0.051 0.083 0.007l0.935-0.936q0.047-0.048 0.01-0.105-0.343-0.522-0.481-1.139-0.014-0.062-0.081-0.062H7.546q-0.061 0-0.052 0.06z m9.096 2.253c0.502-0.662 0.827-1.43 0.965-2.255q0.01-0.059-0.05-0.059l-1.457 0.001a0.08 0.08 0 0 0-0.078 0.064q-0.129 0.594-0.483 1.147-0.02 0.03 0.005 0.057l1.049 1.049q0.026 0.026 0.049-0.004z m-3.355 1.964a5.183 5.183 0 0 0 2.254-0.888 0.048 0.048 0 0 0 0.006-0.072l-1.014-1.015q-0.042-0.041-0.091-0.01-0.539 0.342-1.149 0.478-0.066 0.014-0.066 0.081v1.375q0 0.06 0.06 0.05z m-3.691-0.903a5.116 5.116 0 0 0 2.137 0.883q0.067 0.012 0.068-0.055l0.001-1.355q0-0.064-0.064-0.079-0.612-0.132-1.117-0.451a0.057 0.057 0 0 0-0.07 0.007l-0.961 0.963q-0.048 0.048 0.006 0.087z"/></svg>