<svg fill="#FDD800" role="img" viewBox="0 0 28 24" xmlns="http://www.w3.org/2000/svg"><title>KNIME</title><path d="M12.189 22.937l13.437-0.902 0.525 0.902zM8.83 10.967l-5.929 11.97h-1.052Zm12.141 3.088l-7.487-11.067 0.526-0.903z m2.993 6.073l0.73 1.044-12.403 0.823zM5.448 22.451l-1.331 0.105 5.483-11.047Zm7.187-17.077l0.555-1.162 6.967 10.225z m9.632 12.872l0.986 1.182-10.112 1.645zM7.899 21.934l-1.537 0.261 3.621-9.503Zm3.966-14.192l0.549-1.405 6.472 7.838Zm8.619 8.779l1.316 1.183-7.426 2.306z m-10.198 4.751l-1.7 0.522 1.7-7.499z m0.931-11.107l0.423-1.723 5.668 5.213z m-0.405 10.947v-9.141l0.284-1.263 7.992 4.571 0.971 0.882L12.067 20.733zM14.012 0L0.028 24h27.944z"/></svg>