<svg fill="#9146FF" role="img" viewBox="0 0 28 24" xmlns="http://www.w3.org/2000/svg"><title>KnowledgeBase</title><path d="M23.257 4.594V0h-0.206c-3.84 0.171-7.029 2.64-8.948 4.594l-0.103 0.103-0.103-0.103C11.943 2.64 8.789 0.171 4.949 0H4.743v4.594H0.286v7.92c0 1.92 0.069 3.84 0.205 5.417a6.366 6.366 0 0 0 5.932 5.829c2.434 0.137 5.006 0.24 7.577 0.24s5.143-0.103 7.577-0.274a6.366 6.366 0 0 0 5.932-5.829c0.137-1.577 0.206-3.497 0.205-5.417v-7.886z m0 7.92c0 1.817-0.069 3.6-0.206 5.04-0.103 0.926-0.857 1.68-1.782 1.715a102.857 102.857 0 0 1-14.538 0c-0.926-0.034-1.714-0.789-1.782-1.715-0.137-1.44-0.206-3.257-0.206-5.04V4.594c3.223 0.137 6.446 3.6 7.406 4.937L14 12.103l1.851-2.572c0.96-1.371 4.183-4.8 7.406-4.937z"/></svg>