<svg fill="#33333D" role="img" viewBox="0 0 45 24" xmlns="http://www.w3.org/2000/svg"><title>Koa</title><path d="M0.046 0v23.871h2.226v-7.67l0.861-0.986 5.889 8.656h2.226L4.406 13.815l5.188-5.857h-0.318L2.272 15.851v-15.849z m20.656 7.831c-2.227 0-4.074 0.732-5.539 2.195-1.441 1.465-2.163 3.523-2.163 6.175 0 2.653 0.7 4.616 2.099 5.889 1.402 1.272 3.215 1.909 5.444 1.908 2.249 0 4.094-0.73 5.538-2.195 1.463-1.465 2.195-3.523 2.195-6.175 0-2.651-0.7-4.614-2.099-5.888-1.402-1.272-3.226-1.909-5.475-1.909z m16.646 0c-1.952 0-3.873 0.434-5.761 1.304l0.127 0.225c0.488-0.277 1.254-0.554 2.292-0.829 1.061-0.298 1.983-0.445 2.769-0.446 0.786 0 1.422 0.107 1.909 0.319 0.487 0.191 0.827 0.425 1.02 0.699 0.191 0.277 0.337 0.561 0.445 0.861 0.127 0.275 0.168 0.509 0.127 0.7 0.013 1.815 0 3.72 0 5.569a17.344 17.344 0 0 0-1.56-0.064c-0.573 0-1.198 0.032-1.877 0.095-2.738 0.17-4.51 0.636-5.316 1.402-0.402 0.382-0.647 0.732-0.732 1.05-0.086 0.318-0.127 0.616-0.127 0.89 0 0.254 0.021 0.511 0.064 0.766 0.361 2.418 1.877 3.628 4.55 3.628 2.292 0 3.958-0.945 4.997-2.833v0.668c0 0.339 0.245 0.743 0.733 1.209 0.53 0.552 1.516 0.829 2.96 0.829H44.954v-0.255h-0.986l-0.35-0.063c-0.254-0.022-0.509-0.193-0.765-0.511-0.232-0.339-0.35-0.816-0.35-1.432v-10.662c0-0.679-0.275-1.327-0.827-1.942-0.932-1.042-2.927-1.168-4.328-1.179z m-16.583 0.254c1.613 0 2.906 0.616 3.883 1.845 0.977 1.231 1.465 3.131 1.465 5.698 0 2.545-0.531 4.541-1.59 5.984-1.063 1.422-2.399 2.133-4.012 2.134-1.613 0-2.908-0.617-3.883-1.847-0.977-1.231-1.465-3.119-1.465-5.666 0-2.567 0.531-4.562 1.591-5.984 1.063-1.441 2.399-2.163 4.011-2.164z m17.76 8.339c0.595 0 1.179 0.022 1.751 0.063v3.851c-0.064 0.722-0.552 1.476-1.465 2.26a4.521 4.521 0 0 1-3.024 1.148c-1.697 0-2.64-1.125-2.831-3.374a5.904 5.904 0 0 1-0.037-0.575c0-0.934 0.245-1.665 0.733-2.195 0.487-0.531 1.538-0.893 3.151-1.083 0.588-0.071 1.198-0.073 1.722-0.094z"/></svg>