<svg fill="#F9423A" role="img" viewBox="0 0 48 24" xmlns="http://www.w3.org/2000/svg"><title>Koc</title><path d="M47.215 7.814c-2.601-7.391-9.976-7.789-10.724-7.811-3.302-0.071-6.955 1.072-9.74 3.776-1.125 1.002-1.921 2.169-2.764 3.405-0.844-1.26-1.64-2.403-2.763-3.405C18.461 1.075 14.808-0.068 11.508 0.003c-0.773 0.022-8.149 0.418-10.725 7.811-0.911 2.635-0.701 6.062 0.656 8.577 1.359 2.892 4.614 5.269 8.054 5.038 2.482-0.069 5.198-1.632 6.204-4.174 0.844-2.26 0.586-4.709-1.357-6.644 0.048 0.489 0.069 1.189-0.422 1.818-0.773 1.072-2.013 1.353-3.3 0.886-1.125-0.513-1.545-1.327-1.428-2.401 0.069-0.911 0.818-1.608 1.591-1.959 1.5-0.654 2.88-0.325 4.239 0.957 2.225 2.47 2.482 6.2 3.536 9.046 0.749 2.332 1.919 4.358 4.516 4.943 0.305 0.069 0.634 0.117 0.961 0.093 0.329 0 0.656-0.024 0.961-0.093 2.599-0.582 3.77-2.611 4.518-4.943 1.054-2.845 1.311-6.577 3.512-9.046 1.359-1.282 2.74-1.608 4.239-0.957 0.773 0.351 1.498 1.05 1.591 1.959 0.119 1.072-0.303 1.888-1.426 2.401-1.288 0.467-2.506 0.186-3.302-0.886-0.491-0.63-0.469-1.329-0.422-1.818-1.943 1.935-2.201 4.384-1.359 6.644 1.008 2.541 3.724 4.104 6.206 4.174 3.417 0.234 6.672-2.12 8.031-5.036 1.335-2.518 1.545-5.945 0.633-8.579z m-5.223 8.813c-1.569 1.375-3.653 1.771-5.339 1.002-1.006-0.491-1.755-1.353-1.989-2.286 1.426 1.422 4.001 2.122 6.345-0.348 0 0 2.199-2.028 0.959-5.876-0.632-1.912-2.95-3.474-4.893-3.684-2.904-0.466-5.62 0.513-7.515 3.147-2.225 3.427-2.506 7.25-4.144 11.074a1.45 1.45 0 0 1-1.429 0.887 1.45 1.45 0 0 1-1.428-0.885c-1.616-3.801-1.874-7.601-4.12-11.054-1.898-2.635-4.637-3.613-7.518-3.145-1.941 0.186-4.285 1.771-4.892 3.684-1.242 3.845 0.959 5.873 0.958 5.873 2.365 2.472 4.919 1.749 6.347 0.351-0.236 0.931-0.961 1.795-1.991 2.284-1.686 0.771-3.793 0.351-5.362-1.002-2.318-2.284-2.668-5.222-1.755-7.926 1.099-3.288 4.449-4.921 7.094-5.13 3.138-0.279 7.468 1.632 9.201 4.92 0.398 0.745 1.242 2.704 1.242 2.704h4.401s0.844-1.959 1.24-2.704c1.733-3.265 6.066-5.176 9.204-4.92 2.645 0.21 5.994 1.866 7.093 5.13 0.961 2.68 0.608 5.618-1.709 7.904z"/></svg>