<svg fill="#ED0000" role="img" viewBox="0 0 28 24" xmlns="http://www.w3.org/2000/svg"><title>Kodak</title><path d="M23.767 8.639a0.845 0.845 0 0 0 0.966-0.971c0-0.586-0.293-0.886-0.966-0.886s-0.96 0.302-0.96 0.885a0.843 0.843 0 0 0 0.96 0.972z m0.147 2.444h-0.942v1.768h0.942c0.515 0 0.729-0.353 0.729-0.931 0-0.568-0.214-0.837-0.729-0.837zM2.97 12.975a1.665 1.665 0 0 1-0.397-0.866 1.216 1.216 0 0 1 0.198-0.693l7.748-10.505a0.514 0.514 0 0 0 0.088-0.325 0.586 0.586 0 0 0-0.597-0.586H1.975A1.793 1.793 0 0 0 0.204 1.775v20.469a1.759 1.759 0 0 0 1.766 1.755h8.04a0.59 0.59 0 0 0 0.597-0.581v-0.005a0.724 0.724 0 0 0-0.11-0.368l-7.527-10.07zM23.232 16.61h1.066l-0.533-1.327-0.533 1.327z m2.837-16.608h-7.797a2.556 2.556 0 0 0-1.75 0.824L3.544 11.87c-0.115 0.122-0.115 0.312 0 0.434l13.324 11.197c0.398 0.321 0.892 0.497 1.403 0.499h7.775A1.744 1.744 0 0 0 27.796 22.262V1.78a1.773 1.773 0 0 0-1.727-1.778zM22.335 2.005h0.739v1.341l1.33-1.341h1.03l-1.488 1.462 1.546 1.458h-1.056l-1.361-1.336v1.336h-0.74v-2.92z m1.531 4.163c1.086 0 1.69 0.502 1.69 1.493 0 0.973-0.586 1.572-1.69 1.572s-1.69-0.599-1.69-1.572c0-0.992 0.606-1.493 1.693-1.493h-0.003z m1.601 5.748c0 0.947-0.422 1.514-1.463 1.514h-1.663v-2.949h1.663c1.04 0 1.462 0.489 1.463 1.435z m-1.031 10.005l-1.361-1.337v1.337h-0.739v-2.92h0.739v1.341l1.332-1.341h0.982l-1.439 1.463L25.496 21.921h-1.06z m0.374-4.244l-0.207-0.516h-1.478l-0.203 0.516h-0.787l1.264-2.973h0.975l1.26 2.973h-0.824z"/></svg>