<svg fill="#17B2E7" role="img" viewBox="0 0 25 24" xmlns="http://www.w3.org/2000/svg"><title>Kodi</title><path d="M12.53 0.001c-0.227 0-0.454 0.107-0.672 0.325-0.926 0.926-1.849 1.852-2.773 2.779-0.234 0.234-0.457 0.482-0.706 0.698-0.311 0.268-0.407 0.585-0.401 0.992 0.02 1.404 0.008 2.81 0.008 4.214 0 1.459-0.002 2.918 0 4.377 0 0.11 0.002 0.224 0.031 0.328 0.087 0.338 0.304 0.395 0.548 0.151 1.315-1.315 2.628-2.632 3.943-3.949l4.466-4.47c0.432-0.433 0.432-0.909 0-1.341L13.2 0.325c-0.217-0.218-0.444-0.325-0.671-0.325z m7.252 7.258c-0.224 0-0.447 0.104-0.652 0.31L15.331 11.368c-0.43 0.431-0.429 0.898 0 1.327l3.774 3.781c0.442 0.442 0.912 0.442 1.352 0.002 1.22-1.221 2.436-2.442 3.658-3.661 0.183-0.181 0.354-0.365 0.432-0.618v-0.331c-0.077-0.252-0.247-0.438-0.43-0.619-1.229-1.225-2.453-2.455-3.68-3.683-0.206-0.206-0.431-0.308-0.655-0.308zM4.649 7.594c-0.086 0.014-0.146 0.094-0.207 0.158L0.663 11.571c-0.281 0.285-0.279 0.68 0.004 0.964l2.051 2.054c0.592 0.592 1.182 1.187 1.774 1.778 0.17 0.169 0.331 0.14 0.417-0.084 0.044-0.114 0.062-0.243 0.064-0.365 0.004-1.288 0.004-2.577 0.004-3.866h-0.002V8.17c0-0.085-0.01-0.17-0.022-0.253-0.019-0.136-0.072-0.259-0.208-0.311a0.187 0.187 0 0 0-0.096-0.012z m7.939 6.865c-0.225 0-0.449 0.106-0.658 0.316L8.143 18.563c-0.435 0.436-0.435 0.902 0.002 1.339 1.22 1.221 2.439 2.439 3.657 3.663 0.181 0.181 0.362 0.355 0.614 0.435h0.331c0.245-0.069 0.425-0.227 0.6-0.404 1.227-1.235 2.46-2.463 3.69-3.694 0.432-0.432 0.429-0.909-0.004-1.343l-3.786-3.788c-0.209-0.209-0.434-0.312-0.659-0.311z"/></svg>