<svg fill="#00558C" role="img" viewBox="0 0 127 24" xmlns="http://www.w3.org/2000/svg"><title>Kofax</title><path d="M7.458 16.96l3.039-2.638 6.718 8.96h9.683l-10.559-13.683 9.763-8.881h-9.605L7.458 9.599V0.718H0.175v22.564h7.283zM38.978 0c-7.678 0-14.158 2.639-14.159 12s6.48 12 14.159 12 14.164-2.639 14.163-12-6.48-12-14.163-12z m0 18.96c-3.842 0-6.48-2.164-6.481-6.96 0-4.718 2.639-6.96 6.481-6.96 3.921 0 6.48 2.243 6.48 6.965 0 4.718-2.639 6.955-6.48 6.955zM62.418 23.282v-8.723h12.48v-4.881h-12.48v-3.915h13.441v-5.045h-20.718v22.564zM117.379 11.525l8.406-10.886h-8.644L113.141 6.723l-4-6.084h-8.638l8.401 10.881-8.481 10.559-8.802-21.361h-8.881l-9.282 22.564h7.762l1.283-3.683h9.519l1.277 3.683h15.283l4.644-6.802 4.638 6.802H126.825z m-33.119 3.435l3.039-8.559h0.08l3.044 8.559z"/></svg>