<svg fill="#FF5E5B" role="img" viewBox="0 0 38 24" xmlns="http://www.w3.org/2000/svg"><title>Ko-fi</title><path d="M37.646 7.208c-1.213-6.411-7.626-7.208-7.626-7.208H1.301c-0.948 0-1.066 1.252-1.066 1.252s-0.129 11.495-0.034 18.554c0.257 3.804 4.059 4.194 4.058 4.194s12.975-0.036 18.78-0.077c3.826-0.669 4.211-4.027 4.172-5.86 6.83 0.377 11.648-4.443 10.435-10.855z m-17.361 5.511c-1.956 2.28-6.295 6.24-6.295 6.24s-0.19 0.187-0.487 0.036c-0.119-0.089-0.17-0.141-0.169-0.141-0.695-0.692-5.286-4.785-6.331-6.206-1.113-1.515-1.634-4.238-0.143-5.822 1.493-1.585 4.716-1.704 6.848 0.638 0 0 2.456-2.797 5.442-1.511 2.988 1.287 2.875 4.726 1.135 6.766z m9.688 0.75c-1.456 0.182-2.64 0.044-2.64 0.044V4.597h2.778s3.093 0.865 3.094 4.14c0 3.002-1.546 4.186-3.232 4.732z"/></svg>