<svg fill="#B60014" role="img" viewBox="0 0 143 24" xmlns="http://www.w3.org/2000/svg"><title>Konami</title><path d="M84.361 15.335l3.501-7.703a9.08 9.08 0 0 0 0.368-0.938h0.071c0.077 0.237 0.22 0.564 0.362 0.938l3.413 7.703z m11.198 7.864h6.149l-9.703-20.991a2.35 2.35 0 0 0-2.131-1.383h-4.255c-0.243 0-0.243 0.237-0.071 0.326 0.504 0.261 0.866 1.128 0.48 1.929l-9.388 20.119h4.166l2.314-5.163h10.166z m-24.267-22.374v12.771c0 0.635 0.024 1.033 0.048 1.597h-0.048a36.012 36.012 0 0 0-1.62-2.065l-9.602-11.104c-0.754-0.872-1.359-1.199-2.736-1.199H52.45c-0.22 0-0.243 0.237-0.077 0.326 0.73 0.332 1.306 0.73 1.305 2.048v20h3.656v-14.392c0-0.772-0.024-1.365-0.048-2.018h0.048c0.677 0.914 1.602 2.113 2.35 2.98l11.537 13.43h1.911a1.81 1.81 0 0 0 1.816-1.81v-20.564z m69.632 0h-5.08c-0.237 0-0.267 0.237-0.095 0.326 0.748 0.332 1.329 0.73 1.33 2.048v20H142.717v-20.564a1.804 1.78 90 0 0-1.793-1.81m-8.225 22.374l-3.335-20.427a2.38 2.38 0 0 0-2.279-1.947h-3.146l-5.466 12.724a11.074 11.074 0 0 0-0.534 1.365h-0.047a11.484 11.484 0 0 0-0.481-1.294l-4.843-11.335a2.38 2.38 0 0 0-2.178-1.46h-4.789c-0.237 0-0.267 0.237-0.095 0.326 0.653 0.285 1.139 0.777 0.92 2.018l-3.264 20.03h3.454l2.178-14.137c0.101-0.7 0.243-1.591 0.267-2.041h0.024c0.22 0.593 0.51 1.294 0.825 2.018l6.023 14.16h1.793l6.095-14.416c0.338-0.843 0.582-1.454 0.747-1.922h0.024c0.077 0.564 0.172 1.407 0.315 2.255l2.255 14.083z m-96.172-1.484c-4.499 0-7.062-4.386-7.062-9.436 0-5.774 2.564-10 7.062-10s7.062 4.415 7.062 9.436c0 5.941-2.564 10.006-7.062 10.006m0-21.721c-7.549 0-13.116 5.264-13.116 12 0 6.766 5.134 12 13.116 12 7.549 0 13.092-5.24 13.092-12 0-6.736-5.104-11.994-13.092-11.994M25.981 22.979c-1.941-0.415-3.442-1.335-5.08-3.003-1.792-1.834-8.231-9.412-8.232-9.412l10.261-9.745h-5.543L8.028 9.982c-0.415 0.398-0.653 0.653-0.872 0.914H7.108c0.024-0.303 0.024-0.635 0.024-0.938v-7.323a1.804 1.78 90 0 0-1.792-1.81h-4.867c-0.214 0-0.261 0.237-0.071 0.326 0.73 0.332 1.306 0.73 1.306 2.048v20h5.424V12.89c0-0.279 0-0.469-0.024-0.771h0.048c0.19 0.303 0.534 0.653 0.872 1.08 0 0 5.709 6.712 6.315 7.347 2.415 2.534 5.804 3.43 11.614 2.866 0.315-0.024 0.315-0.356 0.024-0.427"/></svg>