<svg fill="#003459" role="img" viewBox="0 0 27 24" xmlns="http://www.w3.org/2000/svg"><title>Kong</title><path d="M8.929 19.723h4.887l2.537 3.191-0.436 1.086h-6.314l0.155-1.086-1.488-2.349 0.659-0.842Zm3.497-14.016l2.618-0.004L26.814 19.734l-0.914 4.266h-5.045l0.314-1.202L10.171 9.684l2.255-3.977Zm4.627-5.707l5.472 4.3-0.701 0.723 0.948 1.321v1.413l-2.727 2.223-4.588-5.419h-2.67l1.075-1.971 3.191-2.59ZM5.569 13.772l3.817-3.316 5.065 6.096-1.438 2.232h-4.671l-3.231 4.241-0.738 0.975H0.186v-5.203l3.902-5.025h1.481Z"/></svg>