<svg fill="#3BABFF" role="img" viewBox="0 0 26 24" xmlns="http://www.w3.org/2000/svg"><title>Krita</title><path d="M0.885 0a0.667 0.667 0 0 0-0.534 0.263c-0.376 0.478-0.037 0.959 0.386 1.347 0.22 0.202 1.89 1.915 3.66 3.765a11.801 11.801 0 0 1 1.938-2.117C4.104 1.874 1.997 0.54 1.748 0.363 1.471 0.164 1.168 0.002 0.885 0z m5.45 3.258c1.973 1.226 4.042 2.49 5.01 3.032 1.568 0.877 4.012 2.865 4.369 4.734 0.571 0.498 2.33 2.046 2.771 2.576 0.745-0.225 1.621 0.142 2.2 1.196 0.925 1.69 0.242 4-2.101 5.325a5.786 5.786 0 0 1-0.316 0.285l0.316-0.285c1.217-1.567-0.762-2.605-1.255-4.125a2.199 2.199 0 0 1-0.117-0.833c-0.569-0.301-2.253-1.55-2.984-2.098-1.923 0.171-4.491-1.893-5.712-3.288-0.747-0.856-2.477-2.687-4.119-4.402a11.799 11.799 0 0 0-2.184 6.826A11.799 11.799 0 1 0 14.012 0.401c-2.819 0.004-5.541 1.019-7.676 2.857z m9.299 8.063c-0.55 0.135-1.033 0.887-1.194 1.394-0.041 0.123-0.043 0.323 0.071 0.365 0.856 0.632 1.661 1.247 2.562 1.815 0.173-0.42 0.796-1.028 1.17-1.281z m-12.31 1.75c0.867 2.026 6.19 7.655 12.876 2.877a2.21 2.21 0 0 0 0.121 0.763c0.491 1.516 2.52 2.591 1.322 4.153-2.279 1.456-5.338 1.282-7.461 0.564-3.799-1.285-6.314-4.625-6.859-8.357z m14.714 0.747a0.823 0.823 0 0 0-0.069 0.052c-0.004 0.003-0.009 0.009-0.012 0.009 0.003-0.003 0.007-0.009 0.011-0.009 0.026-0.016 0.047-0.036 0.07-0.051z"/></svg>