<svg fill="#326CE5" role="img" viewBox="0 0 25 24" xmlns="http://www.w3.org/2000/svg"><title>Kubernetes</title><path d="M10.649 14.422l0.007 0.01-1.03 2.487a5.329 5.329 0 0 1-2.138-2.676l2.657-0.451 0.004 0.005a0.453 0.453 0 0 1 0.499 0.625z m-0.859-2.194a0.453 0.453 0 0 0 0.179-0.779l0.002-0.012L7.95 9.63a5.3 5.3 0 0 0-0.753 3.354l2.591-0.747 0.002-0.009z m1.18-2.041a0.453 0.453 0 0 0 0.721-0.347l0.01-0.005 0.155-2.7a5.301 5.301 0 0 0-3.102 1.486l2.212 1.569 0.004-0.002z m0.784 2.834l0.745 0.36 0.744-0.358 0.185-0.804-0.515-0.642h-0.829l-0.515 0.642 0.185 0.803z m1.545-3.189a0.453 0.453 0 0 0 0.722 0.346l0.008 0.003 2.199-1.559a5.347 5.347 0 0 0-3.083-1.486l0.152 2.695 0.002 0.001z m11.209 6.152l-5.95 7.401a1.649 1.649 0 0 1-1.286 0.612l-9.544 0.003a1.649 1.649 0 0 1-1.285-0.614l-5.953-7.4a1.631 1.631 0 0 1-0.316-1.381L2.297 5.376c0.111-0.484 0.438-0.89 0.889-1.105L11.783 0.162a1.655 1.655 0 0 1 1.428 0l8.6 4.107c0.451 0.215 0.778 0.622 0.889 1.105l2.125 9.229c0.111 0.484-0.005 0.992-0.317 1.381z m-3.39-2.12c-0.043-0.01-0.106-0.027-0.149-0.035-0.179-0.034-0.325-0.026-0.494-0.039-0.361-0.038-0.658-0.069-0.922-0.152-0.108-0.041-0.186-0.17-0.223-0.223l-0.207-0.061a6.647 6.647 0 0 0-0.108-2.403 6.663 6.663 0 0 0-0.965-2.229c0.054-0.048 0.155-0.137 0.183-0.164 0.008-0.093 0.001-0.189 0.097-0.291 0.203-0.191 0.458-0.348 0.765-0.538 0.146-0.087 0.281-0.141 0.428-0.249 0.033-0.025 0.078-0.064 0.113-0.092 0.247-0.197 0.304-0.536 0.127-0.758-0.177-0.223-0.521-0.243-0.768-0.047-0.035 0.028-0.082 0.064-0.114 0.091-0.138 0.12-0.224 0.237-0.34 0.361-0.254 0.258-0.464 0.472-0.694 0.627-0.1 0.058-0.246 0.038-0.312 0.034l-0.196 0.139a6.745 6.745 0 0 0-4.272-2.064l-0.013-0.23c-0.067-0.064-0.147-0.119-0.168-0.257-0.023-0.276 0.015-0.574 0.059-0.933 0.024-0.168 0.063-0.307 0.07-0.489 0.001-0.041-0.001-0.102-0.001-0.147 0-0.315-0.231-0.572-0.515-0.572-0.283 0-0.514 0.257-0.515 0.572l0.001 0.015c0 0.042-0.002 0.095 0 0.132 0.006 0.182 0.045 0.322 0.07 0.489 0.043 0.359 0.08 0.656 0.057 0.934a0.562 0.562 0 0 1-0.167 0.266l-0.012 0.217a6.62 6.62 0 0 0-4.293 2.064 8.629 8.629 0 0 1-0.186-0.132c-0.093 0.012-0.186 0.041-0.306-0.029-0.23-0.155-0.44-0.369-0.694-0.627-0.116-0.124-0.201-0.241-0.339-0.36-0.031-0.027-0.079-0.064-0.114-0.09a0.612 0.612 0 0 0-0.359-0.136 0.496 0.496 0 0 0-0.41 0.181c-0.177 0.223-0.121 0.563 0.127 0.759l0.007 0.006 0.107 0.085c0.146 0.108 0.28 0.164 0.427 0.25 0.308 0.191 0.563 0.348 0.766 0.538 0.078 0.085 0.093 0.233 0.103 0.296l0.165 0.148a6.66 6.66 0 0 0-1.052 4.643l-0.214 0.062c-0.057 0.074-0.137 0.19-0.222 0.224-0.265 0.083-0.563 0.113-0.922 0.151-0.169 0.014-0.314 0.006-0.495 0.041-0.038 0.007-0.093 0.021-0.137 0.031l-0.004 0.002-0.007 0.002c-0.304 0.073-0.499 0.352-0.436 0.626 0.063 0.275 0.36 0.442 0.665 0.376l0.007-0.001 0.01-0.003 0.133-0.03c0.175-0.047 0.303-0.116 0.462-0.177 0.34-0.122 0.622-0.224 0.897-0.264 0.115-0.009 0.237 0.071 0.296 0.104l0.224-0.038a6.699 6.699 0 0 0 2.968 3.706l-0.093 0.225c0.034 0.087 0.071 0.205 0.046 0.291-0.1 0.26-0.271 0.533-0.466 0.837-0.094 0.14-0.191 0.249-0.276 0.412-0.021 0.038-0.046 0.098-0.066 0.138-0.132 0.283-0.035 0.609 0.219 0.731 0.256 0.124 0.573-0.007 0.711-0.29v-0.002c0.021-0.04 0.047-0.093 0.064-0.131 0.072-0.167 0.097-0.31 0.149-0.472 0.136-0.342 0.211-0.701 0.398-0.925 0.052-0.062 0.134-0.085 0.222-0.108l0.116-0.211a6.65 6.65 0 0 0 4.75 0.012l0.11 0.198c0.089 0.029 0.186 0.043 0.263 0.16 0.14 0.239 0.236 0.523 0.353 0.866 0.052 0.161 0.076 0.304 0.149 0.471 0.016 0.038 0.044 0.093 0.064 0.132 0.137 0.284 0.456 0.414 0.711 0.291 0.255-0.122 0.351-0.448 0.22-0.732-0.021-0.04-0.046-0.099-0.067-0.138-0.086-0.161-0.182-0.269-0.276-0.41-0.196-0.305-0.357-0.558-0.457-0.817-0.041-0.134 0.007-0.216 0.039-0.303-0.019-0.023-0.061-0.148-0.085-0.208a6.698 6.698 0 0 0 2.968-3.733c0.066 0.01 0.181 0.031 0.219 0.039 0.077-0.052 0.148-0.117 0.289-0.107 0.274 0.04 0.557 0.142 0.896 0.264 0.159 0.062 0.285 0.132 0.462 0.178 0.037 0.01 0.091 0.02 0.134 0.029l0.009 0.003 0.008 0.001c0.306 0.066 0.602-0.101 0.664-0.376 0.062-0.274-0.132-0.553-0.436-0.627zM17.034 9.631l-2.009 1.799v0.005a0.453 0.453 0 0 0 0.178 0.78l0.003 0.011 2.603 0.75a5.358 5.358 0 0 0-0.111-1.725A5.367 5.367 0 0 0 17.034 9.63z m-4.135 5.488a0.45 0.45 0 0 0-0.417-0.24 0.453 0.453 0 0 0-0.383 0.241h-0.002l-1.307 2.362a5.322 5.322 0 0 0 3.428 0.003l-1.309-2.366h-0.01z m1.945-1.333a0.453 0.453 0 0 0-0.278 0.037 0.453 0.453 0 0 0-0.221 0.59l-0.003 0.004 1.041 2.512a5.307 5.307 0 0 0 2.145-2.695l-2.68-0.453-0.004 0.005z"/></svg>