<svg fill="#0079C1" role="img" viewBox="0 0 25 24" xmlns="http://www.w3.org/2000/svg"><title>Kubuntu</title><path d="M21.758 14.292a0.207 0.207 0 0 1 0.11 0.238l-0.577 1.529a0.206 0.206 0 0 1-0.203 0.155l-2.337-0.228c-0.063 0.001-0.162-0.008-0.278 0.125-0.018 0.021-0.747 0.933-0.978 1.184-0.079 0.071-0.107 0.165-0.088 0.281l0.552 2.196a0.206 0.206 0 0 1-0.098 0.232l-1.513 0.89a0.206 0.206 0 0 1-0.256-0.041l-1.549-1.706c-0.052-0.056-0.155-0.099-0.227-0.076l-1.646 0.239c-0.08 0.011-0.127 0.064-0.16 0.117l-0.994 2.079a0.206 0.206 0 0 1-0.235 0.089l-1.669-0.394a0.207 0.207 0 0 1-0.146-0.183 0.209 0.209 0 0 1 0.01-0.081l0.881-3.245a0.222 0.222 0 0 1 0.283-0.137l0.004-0.001a5.843 5.843 0 0 0 2.717 0.218c2.323-0.37 4.197-2.096 4.756-4.38l0.011-0.041c0.028-0.119 0.177-0.183 0.297-0.155 0 0 2.869 0.974 3.294 1.082a0.209 0.209 0 0 1 0.039 0.014zM6.038 4.989l0 0a0.205 0.205 0 0 1 0.066 0.049l2.392 2.357a0.222 0.222 0 0 1-0.018 0.314l-0.001 0.003A5.843 5.843 0 0 0 6.959 9.976c-0.813 2.207-0.224 4.686 1.494 6.291l0.035 0.039c0.091 0.083 0.068 0.234-0.015 0.324 0 0-2.245 2.025-2.547 2.343a0.206 0.206 0 0 1-0.293 0.007l-1.052-1.251a0.206 0.206 0 0 1-0.036-0.253l1.336-1.925c0.03-0.055 0.086-0.138 0.026-0.304-0.009-0.026-0.448-1.108-0.554-1.432-0.023-0.104-0.092-0.174-0.202-0.214l-2.179-0.594a0.206 0.206 0 0 1-0.154-0.199l-0.037-1.755a0.207 0.207 0 0 1 0.161-0.203l2.239-0.516c0.074-0.018 0.163-0.087 0.177-0.161l0.596-1.552c0.03-0.076 0.007-0.142-0.023-0.197L4.61 6.539a0.206 0.206 0 0 1 0.037-0.249l1.161-1.263a0.207 0.207 0 0 1 0.23-0.038z m10.492-1.747a0.214 0.214 0 0 1 0.031 0.014l1.539 0.846a0.207 0.207 0 0 1 0.095 0.241l-0.68 2.199c-0.021 0.073-0.006 0.184 0.051 0.234l1.046 1.292c0.051 0.064 0.119 0.077 0.182 0.078l2.301-0.203a0.206 0.206 0 0 1 0.197 0.157l0.513 1.636a0.206 0.206 0 0 1-0.082 0.219h0a0.205 0.205 0 0 1-0.075 0.033l-3.245 0.894a0.222 0.222 0 0 1-0.262-0.173 0.012 0.012 0 0 1-0.003-0.002 5.843 5.843 0 0 0-1.201-2.447c-1.504-1.808-3.946-2.537-6.195-1.851l-0.04 0.012c-0.117 0.037-0.248-0.06-0.285-0.176 0 0-0.624-2.958-0.748-3.379a0.206 0.206 0 0 1 0.14-0.257l1.609-0.286a0.206 0.206 0 0 1 0.237 0.095l0.993 2.121c0.033 0.053 0.076 0.144 0.25 0.174 0.027 0.005 1.184 0.166 1.517 0.237 0.101 0.032 0.197 0.007 0.286-0.068l1.611-1.592a0.206 0.206 0 0 1 0.218-0.048zM16.522 0.694A11.998 11.998 0 0 0 8.293 0.762C2.088 3.085-1.06 9.999 1.263 16.205c2.323 6.206 9.237 9.353 15.444 7.03 6.206-2.323 9.353-9.237 7.03-15.443A11.999 11.999 0 0 0 16.522 0.694z"/></svg>