<svg fill="#01BC8D" role="img" viewBox="0 0 23 24" xmlns="http://www.w3.org/2000/svg"><title>KuCoin</title><path d="M7.428 11.996l7.122 7.122 4.49-4.49a2.004 2.004 0 0 1 2.865 0 2.004 2.004 0 0 1 0 2.865l-5.918 5.918a2.058 2.058 0 0 1-2.883 0l-8.541-8.542v5.07a2.034 2.034 0 1 1-4.07 0V4.043a2.034 2.034 0 1 1 4.07 0v5.088L13.104 0.589a2.058 2.058 0 0 1 2.883 0l5.918 5.918c0.785 0.803 0.785 2.088 0 2.865-0.804 0.785-2.089 0.785-2.865 0l-4.49-4.49zM14.55 9.96a2.038 2.038 0 0 0-2.053 2.035c0 1.133 0.902 2.052 2.035 2.052a2.038 2.038 0 0 0 2.053-2.035v-0.018a2.07 2.07 0 0 0-2.035-2.034z"/></svg>