<svg fill="#FFC62E" role="img" viewBox="0 0 51 24" xmlns="http://www.w3.org/2000/svg"><title>Kununu</title><path d="M43.597 24a6.792 6.792 0 0 1-4.883-2.092 7.265 7.265 0 0 1-2.023-5.046l0.031-9.726a2.25 2.25 0 0 0-0.629-1.565 2.113 2.113 0 0 0-1.517-0.648c-0.567 0-1.113 0.233-1.515 0.648-0.4 0.417-0.627 0.979-0.625 1.567l-0.031 9.728c0 1.892-0.727 3.709-2.023 5.046a6.79 6.79 0 0 1-4.884 2.088 6.786 6.786 0 0 1-4.882-2.092 7.255 7.255 0 0 1-2.021-5.046L18.624 7.136c0-0.588-0.227-1.15-0.629-1.567a2.098 2.098 0 0 0-3.029 0.002c-0.402 0.417-0.627 0.979-0.627 1.567l-0.03 9.728a7.307 7.307 0 0 1-1.166 3.963 6.955 6.955 0 0 1-3.099 2.625 6.696 6.696 0 0 1-3.987 0.406 6.826 6.826 0 0 1-3.534-1.952 7.109 7.109 0 0 1-1.502-2.315A7.319 7.319 0 0 1 0.498 16.862v-7.724c0-0.652 0.252-1.277 0.698-1.739 0.446-0.46 1.052-0.721 1.683-0.721 0.631 0 1.238 0.26 1.684 0.721a2.5 2.5 0 0 1 0.698 1.739v7.724c0 0.588 0.225 1.15 0.627 1.565 0.402 0.417 0.948 0.65 1.517 0.65 0.567 0 1.113-0.233 1.514-0.65 0.402-0.415 0.627-0.977 0.628-1.565l0.031-9.728c0-1.892 0.727-3.707 2.023-5.046A6.79 6.79 0 0 1 16.485 0c1.831 0 3.588 0.752 4.881 2.092s2.021 3.154 2.021 5.048l-0.029 9.724c0 0.588 0.227 1.15 0.629 1.567 0.402 0.415 0.946 0.648 1.515 0.648 0.569 0 1.113-0.235 1.515-0.65 0.402-0.417 0.627-0.979 0.627-1.567l0.029-9.726c0.002-1.894 0.729-3.709 2.025-5.046a6.792 6.792 0 0 1 4.884-2.09c1.831 0 3.586 0.754 4.882 2.092 1.294 1.34 2.021 3.154 2.021 5.048l-0.029 9.726c0 0.588 0.225 1.15 0.627 1.565 0.404 0.415 0.948 0.648 1.516 0.648 0.569 0 1.113-0.233 1.515-0.65 0.402-0.417 0.627-0.979 0.627-1.567v-7.722c0-0.652 0.25-1.277 0.696-1.739 0.448-0.46 1.052-0.721 1.686-0.721 0.631 0 1.236 0.258 1.683 0.721 0.446 0.463 0.696 1.088 0.696 1.739v7.722c0 1.892-0.727 3.709-2.021 5.046a6.792 6.792 0 0 1-4.884 2.092Z"/></svg>