<svg fill="#FFDB00" role="img" viewBox="0 0 39 24" xmlns="http://www.w3.org/2000/svg"><title>LabVIEW</title><path d="M15.001 0.003a1.302 1.302 0 0 0-1.223 1.3v11.238a1.3 1.3 0 0 0 1.883 1.163l11.243-5.618a1.303 1.303 0 0 0 0-2.331L15.661 0.136a1.287 1.287 0 0 0-0.66-0.133z m3.056 4.949h1.016v1.459h1.459v1.018h-1.459v1.463h-1.016V7.428h-1.463v-1.018h1.463v-1.459z m-7.57 11.964v0.584h0.417c0.137 0 0.217 0.08 0.217 0.219v6.163h0.653v-0.435a4.142 4.142 0 0 0-0.018-0.408h0.018s0.448 0.961 1.637 0.961c1.306 0 2.246-1.029 2.247-2.605 0-1.545-0.832-2.616-2.168-2.615-1.278 0-1.697 0.953-1.697 0.952H11.774s0.019-0.18 0.019-0.408v-1.801c0-0.425-0.178-0.607-0.604-0.607h-0.702z m4.548 0v0.616h0.1c0.188 0 0.287 0.029 0.357 0.217l2.288 6.133h0.743l2.29-6.133c0.07-0.188 0.167-0.217 0.355-0.217h1.328v5.737h-0.653v0.613h1.992v-0.613h-0.666v-5.737h0.666v-0.616h-2.876c-0.494 0-0.644 0.089-0.822 0.575l-1.714 4.687c-0.127 0.355-0.268 0.902-0.268 0.901h-0.017s-0.14-0.546-0.268-0.901L16.155 17.491c-0.167-0.475-0.317-0.575-0.813-0.575h-0.307z m9.434 0v0.616h0.643v5.746c0 0.427 0.178 0.604 0.606 0.604h3.01c0.427 0 0.604-0.177 0.604-0.604v-0.693h-0.643v0.462c0 0.15-0.08 0.223-0.219 0.223h-2.445c-0.139 0-0.218-0.073-0.218-0.223v-2.364h2.612v-0.616h-2.612v-2.535h2.377c0.139 0 0.218 0.069 0.218 0.217v0.467h0.653v-0.693c0-0.427-0.178-0.607-0.604-0.607h-3.982zM0.384 16.919v0.613h0.427c0.137 0 0.217 0.069 0.216 0.217v5.529c0 0.427 0.178 0.604 0.606 0.604h2.883c0.425 0 0.604-0.177 0.604-0.604v-0.693h-0.653v0.462c0 0.15-0.08 0.218-0.219 0.219H1.938c-0.137 0-0.217-0.069-0.216-0.217v-5.528c0-0.425-0.178-0.602-0.606-0.602H0.384z m29.206 0v0.613h0.121c0.188 0 0.314 0.029 0.365 0.217l1.596 6.133h0.821l1.429-4.854c0.127-0.446 0.249-1.02 0.248-1.019h0.019s0.107 0.583 0.226 1.029l1.299 4.844h0.82l1.606-6.133c0.049-0.188 0.169-0.217 0.366-0.217H38.616v-0.613h-0.307c-0.495 0-0.722 0.088-0.841 0.573l-1.211 4.803c-0.088 0.357-0.159 0.744-0.159 0.744h-0.016s-0.062-0.387-0.159-0.744l-1.398-5.349h-0.685l-1.534 5.349c-0.099 0.357-0.191 0.744-0.191 0.744h-0.016s-0.062-0.387-0.151-0.744l-1.206-4.804c-0.119-0.484-0.349-0.573-0.844-0.574h-0.308zM7.771 18.78c-0.436 0-1.625 0.15-1.625 0.844v0.475h0.643v-0.319c0-0.366 0.723-0.435 0.972-0.435 0.911 0 1.287 0.366 1.287 1.407v0.059h-0.275c-0.863 0-3.052 0.061-3.053 1.714 0 0.991 0.86 1.475 1.692 1.475 1.249 0 1.666-1.08 1.657-1.08h0.016s-0.008 0.15-0.008 0.366c0 0.408 0.169 0.596 0.594 0.596h0.685v-0.585h-0.417c-0.139 0-0.218-0.07-0.219-0.218v-2.386c0-1.071-0.376-1.913-1.949-1.913z m5.618 0.616c0.921 0 1.574 0.781 1.574 1.999 0 1.268-0.72 2.01-1.603 2.011-1.069 0-1.587-1-1.586-2.001 0-1.416 0.784-2.009 1.615-2.009z m-4.629 1.95h0.288v0.228c0 0.86-0.577 1.851-1.528 1.851-0.742 0-1.107-0.475-1.107-0.94 0-1.12 1.564-1.139 2.347-1.139Z"/></svg>