<svg fill="#ED6B21" role="img" viewBox="0 0 62 24" xmlns="http://www.w3.org/2000/svg"><title>LADA</title><path d="M30.995 0c-15.123 0-27.696 4.272-30.23 9.896a5.053 5.053 0 0 0-0.482 2.127c0 0.494 0.072 1.3 0.581 2.291 2.759 5.519 15.205 9.686 30.141 9.686C47.968 24 61.717 18.625 61.717 12c0-6.627-13.759-12-30.722-12Zm-2.278 2.542c1.075 0.98 0.41 3.115-1.644 6.061-2.288 3.266-4.485 5.058-7.093 5.716L25.65 1.976h0.026c1.449-0.064 2.429 0.013 3.041 0.563z m12.867 12.031c-0.166-0.102-0.115-0.356 0.077-0.395l2.56-0.514a0.179 0.179 0 0 0 0.133-0.12l0.41-1.214c0.038-0.113-0.046-0.223-0.162-0.23l-4.776-0.264a0.781 0.781 0 0 0-0.461 0.123l-1.914 1.27a0.985 0.985 0 0 0-0.436 1.008c0.535 2.79-0.517 4.311-6.025 4.971-8.004 0.955-13.979 0-15.021-0.189a0.558 0.558 0 0 0-0.599 0.309l-0.545 1.186c-5.654-1.682-9.578-4.231-10.526-7.15 0-0.092-0.207-0.578-0.207-1.369 0-4.846 8.155-8.933 19.311-10.219h0.041s-5.713 12.448-6.686 14.56a0.225 0.225 0 0 0 0.204 0.312h0.318c3.353 0.113 7.403 0.233 12.466-1.013 5.381-1.326 9.44-5.132 10.996-7.902 1.577-2.813 0.673-4.974 0.499-5.713 9.927 1.526 16.277 5.363 16.416 9.829-0.036 0.911-0.282 1.802-0.724 2.608-1.863 3.108-7.157 5.683-14.207 7.065 2.775-3.041 0.604-5.811-1.142-6.942z"/></svg>