<svg fill="#005A2B" role="img" viewBox="0 0 46 24" xmlns="http://www.w3.org/2000/svg"><title>Land Rover</title><path d="M19.548 11.033h1.361l1.187-3.513 0.693 3.513h1.364l1.857-5.427-1.424 0.001-0.992 2.951-0.567-2.951h-1.918l-0.048 0.141 0.095 0.091c0.101 0.101 0.095 0.216 0.01 0.467l-1.618 4.727z m7.119-4.727l-1.62 4.728h2.391c1.025 0 1.608-0.228 2.085-0.734 0.594-0.63 1.139-2.269 1.12-3.172-0.017-0.921-0.611-1.519-1.861-1.519H26.608l-0.046 0.139 0.095 0.091c0.099 0.101 0.095 0.216 0.008 0.467m1.301 0.589h0.594c0.404 0 0.627 0.135 0.632 0.448 0.004 0.201-0.051 0.479-0.26 1.073-0.186 0.532-0.334 0.841-0.545 1.067-0.167 0.178-0.393 0.256-0.908 0.256h-0.495l0.982-2.844z m7.72 0.659H32.077l-0.469 1.291h2.502l-2.842 0.967-0.177 0.461 4.096-1.348 0.501-1.371zM9.789 11.034h3.703l0.448-1.295H11.787l1.424-4.132h-1.859l-0.045 0.141 0.093 0.091c0.101 0.101 0.097 0.216 0.009 0.467l-1.62 4.728z m4.089-0.001h1.576l0.682-1.201h1.631l0.015 1.201h1.43l-0.308-5.426H16.764l-0.047 0.141 0.068 0.068c0.114 0.11 0.066 0.27-0.349 0.931l-2.558 4.286z m3.79-3.925h0.049l0.027 1.64h-1.001l0.925-1.64zM15.423 12.208H13.08l-0.047 0.14 0.095 0.095c0.101 0.097 0.095 0.215 0.007 0.466l-1.637 4.728h1.497l0.64-1.878h0.507l0.562 1.876h1.504l-0.707-1.918a1.443 1.443 0 0 0 0.823-0.368c0.283-0.258 0.479-0.619 0.639-1.153 0.235-0.773 0.093-1.215-0.058-1.443-0.209-0.311-0.649-0.545-1.482-0.545m0.13 1.971c-0.095 0.232-0.197 0.287-0.333 0.342a1.605 1.605 0 0 1-0.465 0.049H14.037l0.39-1.122h0.864c0.258 0 0.365 0.133 0.368 0.289a1.441 1.441 0 0 1-0.108 0.442m19.816-1.971H33.026l-0.045 0.14 0.094 0.095c0.101 0.097 0.095 0.215 0.01 0.466l-1.639 4.728h1.498l0.638-1.876h0.507l0.564 1.874h1.501l-0.703-1.918a1.439 1.439 0 0 0 0.818-0.368c0.285-0.258 0.48-0.619 0.642-1.153 0.235-0.773 0.095-1.215-0.057-1.443-0.209-0.311-0.651-0.545-1.485-0.545m0.131 1.971c-0.095 0.232-0.197 0.287-0.33 0.342a1.612 1.612 0 0 1-0.465 0.049h-0.714l0.385-1.122h0.864c0.258 0 0.365 0.133 0.367 0.289a1.418 1.418 0 0 1-0.107 0.442m2.596-9.005c-4.491-2.32-10.083-3.209-15.096-3.209s-10.605 0.889-15.096 3.209C5.378 6.479 2.179 8.83 2.179 11.999c0 3.169 3.202 5.52 5.725 6.825 4.491 2.32 10.083 3.209 15.096 3.209 5.013 0 10.605-0.887 15.096-3.209 2.524-1.305 5.725-3.655 5.725-6.825 0-3.171-3.2-5.52-5.725-6.825m-0.228 13.205c-4.424 2.284-9.925 3.152-14.868 3.152-4.943 0-10.444-0.868-14.868-3.152C5.794 17.166 2.682 14.935 2.682 11.999c0-2.939 3.11-5.169 5.45-6.378C12.556 3.336 18.059 2.469 23 2.469c4.943 0 10.444 0.866 14.868 3.152 2.341 1.21 5.45 3.437 5.45 6.38 0 2.938-3.11 5.167-5.45 6.378m1.13-14.95C34.718 1.217 29.038 0 23 0c-6.037 0-11.716 1.217-15.998 3.429C4.467 4.74 0.213 7.596 0.213 11.999s4.254 7.259 6.789 8.57C11.282 22.781 16.963 24 23 24c6.038 0 11.718-1.217 15.998-3.429C41.533 19.258 45.787 16.404 45.787 11.999c0-4.405-4.254-7.259-6.789-8.57m-0.556 16.065C34.331 21.615 28.849 22.785 23 22.785s-11.329-1.17-15.442-3.295C3.605 17.449 1.425 14.787 1.425 11.999c0-2.789 2.18-5.45 6.133-7.493C11.671 2.383 17.153 1.213 23 1.213c5.849 0 11.331 1.172 15.442 3.295 3.955 2.041 6.133 4.704 6.133 7.493 0 2.788-2.178 5.45-6.133 7.493m-17.869-7.349h-0.173c-1.023 0-1.606 0.273-2.086 0.783-0.596 0.632-1.156 2.336-1.145 3.239 0.011 0.919 0.608 1.557 1.857 1.557h0.182c1.025 0 1.61-0.275 2.089-0.784 0.596-0.632 1.145-2.336 1.133-3.24-0.011-0.919-0.608-1.557-1.859-1.557m0.088 2.877c-0.186 0.534-0.332 0.877-0.547 1.103-0.171 0.178-0.393 0.306-0.912 0.306-0.403 0-0.627-0.165-0.626-0.476-0.004-0.203 0.051-0.509 0.267-1.106 0.186-0.532 0.332-0.877 0.549-1.103 0.167-0.178 0.393-0.306 0.908-0.306 0.404 0 0.629 0.165 0.627 0.475 0.006 0.205-0.049 0.513-0.266 1.107M11.673 12.911l-4.096 1.346-0.499 1.373h3.612l0.47-1.293H8.656l2.842-0.963 0.175-0.463z m14.899-0.701l-1.986 3.902h-0.042l-0.101-3.902h-1.661l-0.065 0.14 0.142 0.088c0.139 0.097 0.177 0.196 0.194 0.467l0.226 4.732h1.852l2.986-5.427h-1.545z m4.55 3.251l0.415-1.134H29.627l0.296-0.868h2.066l0.456-1.253H28.545l-0.055 0.16 0.095 0.093c0.101 0.097 0.095 0.213 0.007 0.467l-1.623 4.709h3.646l0.44-1.259h-2.127l0.312-0.915h1.882z"/></svg>