<svg fill="#0E83CD" role="img" viewBox="0 0 27 24" xmlns="http://www.w3.org/2000/svg"><title>Laragon</title><path d="M14.417 0.005c-2.307-0.104-3.784 1.566-3.784 1.566C3.182 1.66 1.3 8.113 1.255 8.247l-0.269 0.805c-2.468 9.556 4.233 13.3 4.232 13.301 0.205 0.099 0.408-0.072 0.408-0.072 0.544-0.337 0.274-0.577 0.275-0.577-1.556-1.896-1.736-6.382-1.737-6.421-0.697-0.579-1.358-1.434-1.21-2.549 0 0 0.091-0.555 0.636-0.214 0 0 1.291 0.701 2.311 0.903-0.001 0 0.518 0.047 0.544 0.193 0 0 0.407 1.907-0.849 2.525 0.811 0.476 1.594 0.925 1.594 0.925 0.135 1.375 0.882 5.79 0.882 5.79 0.07 0.867 0.986 1.038 0.986 1.039 0.526 0.187 4.484 0.067 4.484 0.067 1.104-0.048 1.156-1.037 1.156-1.037 0.016-0.593 0.033-3.94 0.033-3.94 0.104-0.626 0.834-0.544 0.834-0.544 0.765-0.033 0.749 0.494 0.748 0.494-0.019 0.561 0.049 3.805 0.049 3.805 0.033 0.934 0.85 1.224 0.85 1.224 0.531 0 0.901-0.004 1.486 0 0.274 0.002 1.603 0 1.603 0 0.599-0.334 1.499-1.055 1.499-1.054 6.387-5.344 4.5-12.952 4.5-12.952C25.396 5.339 19.804 4.49 19.804 4.49c-0.633-1.971-1.788-2.919-1.788-2.919-1.33-1.105-2.55-1.519-3.599-1.567z m5.449 4.65s2.008 3.352-1.88 8.555c0.001 0.001-3.2 4.48-8.959 1.331 1.18 0.569 6.025 2.516 9.115-2.155 0 0 2.865-3.741 1.724-7.731zM7.735 8.591s1.411 0.039 1.459 1.981c0 0-1.11-2.904-3.56-0.218 0 0 0.44-1.882 2.101-1.763z"/></svg>