<svg fill="#D32D27" role="img" viewBox="0 0 50 24" xmlns="http://www.w3.org/2000/svg"><title>LastPass</title><path d="M46.882 1.412c0-0.78 0.626-1.412 1.412-1.412C49.072 0 49.704 0.642 49.704 1.412v21.176c0 0.78-0.626 1.412-1.412 1.412-0.78 0-1.412-0.642-1.412-1.412V1.412zM4.531 8.471c2.339 0 4.235 1.896 4.234 4.235S6.869 16.941 4.531 16.941 0.296 15.045 0.296 12.706 2.192 8.471 4.531 8.471zM20.059 8.471c2.339 0 4.235 1.896 4.235 4.235S22.398 16.941 20.059 16.941s-4.235-1.896-4.235-4.235S17.721 8.471 20.059 8.471zM35.588 8.471c2.339 0 4.235 1.896 4.234 4.235S37.926 16.941 35.588 16.941s-4.235-1.896-4.235-4.235S33.249 8.471 35.588 8.471z"/></svg>