<svg fill="#D51007" role="img" viewBox="0 0 44 24" xmlns="http://www.w3.org/2000/svg"><title>Last.fm</title><path d="M19.451 21.378l-1.584-4.306s-2.574 2.869-6.431 2.869c-3.414 0-5.839-2.968-5.839-7.718 0-6.087 3.067-8.263 6.086-8.263 4.356 0 5.74 2.82 6.928 6.433l1.584 4.948c1.584 4.799 4.552 8.658 13.112 8.657 6.136 0 10.292-1.879 10.292-6.827 0-4.008-2.277-6.085-6.534-7.075l-3.164-0.693c-2.178-0.495-2.82-1.386-2.82-2.871 0-1.681 1.336-2.671 3.513-2.671 2.376 0 3.661 0.891 3.859 3.018l4.948-0.594c-0.396-4.453-3.463-6.285-8.512-6.285-4.453 0-8.807 1.683-8.807 7.077 0 3.366 1.633 5.492 5.74 6.482l3.366 0.792c2.523 0.594 3.364 1.633 3.364 3.067 0 1.831-1.782 2.574-5.148 2.574-4.997 0-7.074-2.622-8.261-6.235l-1.633-4.95c-2.079-6.431-5.394-8.807-11.975-8.807C4.26 0 0.401 4.602 0.401 12.419c0 7.524 3.859 11.581 10.787 11.581 5.591 0 8.263-2.622 8.263-2.622z"/></svg>