<svg fill="#008080" role="img" viewBox="0 0 32 24" xmlns="http://www.w3.org/2000/svg"><title>LaTeX</title><path d="M3.167 0c0.304 0.549 0.622 1.019 0.953 1.424 0.323-0.017 1.479 0.596 1.714 0.683 0.664 0.368 1.389 0.823 2.047 1.262 0.66 0.44 1.254 0.865 1.662 1.176 0.204 0.157 0.363 0.285 0.46 0.373a0.631 0.631 0 0 1 0.102 0.107 0.105 0.105 0 0 1 0.013 0.028 0.078 0.078 0 0 1-0.006 0.061 0.074 0.074 0 0 1-0.052 0.039 0.101 0.101 0 0 1-0.036 0c-0.074 0-0.265-0.213-0.65-0.542a30.665 30.665 0 0 0-3.604-2.386c-0.658-0.366-1.249-0.708-1.651-0.801a3.033 3.033 0 0 0-0.47-0.033 3.535 3.535 0 0 0-1.03 0.174c0.645 0.541 1.189 0.935 1.672 1.24-0.745-0.238-1.544-0.274-2.484 0.173 0.687 0.43 1.263 0.741 1.768 0.974 1.441 0.204 2.95 0.909 4.212 1.71 0.631 0.401 1.181 0.803 1.592 1.132 0.205 0.163 0.379 0.31 0.51 0.429 0.128 0.119 0.227 0.201 0.257 0.274 0.039 0.095-0.025 0.136-0.109 0.076-0.042-0.029-0.115-0.133-0.241-0.25a9.602 9.602 0 0 0-0.501-0.427c-0.408-0.327-0.952-0.721-1.58-1.119-1.167-0.734-2.916-1.323-4.145-1.825-0.786-0.144-1.6-0.078-2.49 0.509 0.587 0.261 1.093 0.456 1.544 0.605 1.061 0 2.472 0.477 3.835 1.204 1.361 0.726 2.665 1.586 3.295 2.318 0.086 0.101-0.021 0.165-0.096 0.091-0.679-0.647-1.911-1.573-3.263-2.294-0.835-0.44-2.813-1.319-3.771-1.319l0.006 0.003c-0.741 0.026-1.476 0.255-2.194 0.935 0.623 0.154 1.156 0.256 1.625 0.325-0.575 0.115-1.137 0.392-1.683 0.943 0.423 0.091 0.805 0.159 1.152 0.212-0.428 0.208-0.835 0.528-1.206 1.019 0.487 0.039 0.918 0.055 1.306 0.057-0.47 0.217-0.909 0.562-1.301 1.111 0.696 0.035 1.28 0.033 1.782 0.004-0.551 0.225-1.061 0.606-1.496 1.264 0.865 0.013 1.552-0.029 2.127-0.099l-0.008 0.003c1.293-0.095 3.001 0.166 3.87 1.106 0.068 0.074-0.031 0.154-0.095 0.097-0.847-0.758-1.95-1.08-3.775-1.203h-0.002c-0.709 0.195-1.366 0.583-1.908 1.403 0.7 0.01 1.283-0.017 1.785-0.066-0.613 0.336-1.14 0.841-1.488 1.706 0.631-0.12 1.16-0.248 1.616-0.381-0.474 0.346-0.873 0.831-1.141 1.56 0.423-0.094 0.799-0.191 1.138-0.289a3.291 3.291 0 0 0-0.67 1.43c0.46-0.17 0.856-0.332 1.21-0.492-0.336 0.392-0.592 0.89-0.719 1.554 0.647-0.26 1.174-0.507 1.617-0.742-0.405 0.435-0.709 0.993-0.829 1.772a15.436 15.436 0 0 0 1.884-0.972c-0.566 0.473-0.998 1.101-1.149 2.073 1.029-0.455 1.749-0.866 2.309-1.247-0.24 0.486-0.368 1.053-0.307 1.76 0.995-0.763 1.624-1.379 2.092-1.924-0.031 0.351-0.004 0.732 0.101 1.155 0.713-1.227 1.423-1.583 2.155-1.993-1.169 0.589-0.995 1.032-0.995 1.546 0.892-0.941 2.136-1.936 2.517-2.56-0.509 0.764-0.715 1.489-0.849 2.129-2.604 1.377-4.189 1.736-5.967 2.286 0.69 0.253 1.428 0.5 1.122 0.852l-0.815 0.813c0.521-0.162 1.052-0.392 1.513-0.078-0.046 0.427-0.584 0.643-1.045 0.893 0.811-0.293 0.988-0.225 1.201-0.157 0.106 0.513-0.265 0.788-0.506 1.126 2.044-1.555 4.711-2.782 6.589-3.295 2.641-0.89 6.048-1.815 6.974-4.069l0.93-3.719-0.005 0.005c-0.145-0.044-0.321-0.082-0.457-0.173a0.85 0.85 0 0 1-0.307-0.388c-0.329 0.085-0.575 0.039-0.732-0.115-0.153-0.153-0.218-0.387-0.265-0.642-0.265 0.054-0.473 0.021-0.61-0.1-0.152-0.132-0.222-0.34-0.259-0.58l-0.01-0.051 0.048-0.02a1.1 1.1 0 0 0 0.395-0.253 0.336 0.336 0 0 0 0.091-0.294l-0.008-0.049 0.04-0.021c0.213-0.121 0.451-0.221 0.559-0.365a0.358 0.358 0 0 0 0.069-0.275 1.15 1.15 0 0 0-0.202-0.466l-0.036-0.052 0.052-0.036c0.154-0.118 0.319-0.234 0.403-0.339 0.042-0.052 0.063-0.099 0.061-0.144 0-0.043-0.02-0.091-0.083-0.153l-0.128-0.123 0.176 0.008c0.278 0.013 0.516-0.009 0.703-0.069a0.658 0.658 0 0 0 0.358-0.257c-0.009-0.043-0.026-0.082-0.026-0.128a0.632 0.632 0 0 1 1.263 0c0 0.057-0.02 0.11-0.034 0.163 0.231 0.018 0.453 0.013 0.662-0.078l0.003 0.001 0.045-0.017c0.308-0.111 0.436 0.059 0.941-0.596-2.208-2.861-5.43-0.83-6.502 2.119-0.274 0.752-1.835 0.755-2.287 0-1.79-3.854-7.224-7.927-11.848-9.429z m1.123 2.802c1.184 0.383 2.499 1.022 3.619 1.735 0.562 0.357 1.062 0.709 1.455 1.018 0.393 0.308 0.739 0.618 0.81 0.751 0.071 0.133 0 0.183-0.107 0.078-0.106-0.102-0.396-0.418-0.784-0.722-0.389-0.306-0.888-0.66-1.445-1.015-1.012-0.64-2.589-1.251-3.548-1.845z m-2.221 3.527c1.458 0.018 3.07 0.584 4.486 1.303 0.707 0.359 1.336 0.741 1.823 1.084 0.486 0.344 0.878 0.685 0.958 0.858 0.08 0.175-0.026 0.17-0.113 0.072a5.749 5.749 0 0 0-0.92-0.818 14.984 14.984 0 0 0-1.809-1.079C5.236 7.12 3.51 6.54 2.069 6.331z m19.486 1.009a0.498 0.498 0 1 0 0 0.995 0.498 0.498 0 0 0 0-0.995zM2.545 7.399c1.074 0.094 2.247 0.481 3.31 0.98 1.419 0.665 2.658 1.513 3.18 2.177 0.046 0.059-0.018 0.171-0.105 0.081-0.559-0.575-1.727-1.477-3.131-2.135-1.193-0.55-2.981-1.137-4.261-1.019 0.328-0.039 0.649-0.115 1.007-0.084z m21.344 0.013c-0.478 0.621-0.692 0.553-0.918 0.606 0.123 0.562 0.457 0.766 0.764 1.006l-0.079 0.016c3.024-0.584 5.468-0.374 8.02-0.308l-7.787-1.32z m-0.233 1.628h-0.002l-0.005 0.021 0.007-0.021z m-0.816-0.989c-0.239 0.097-0.487 0.099-0.735 0.077a0.623 0.623 0 0 1-0.549 0.34 0.631 0.631 0 0 1-0.568-0.363 0.796 0.796 0 0 1-0.358 0.245c-0.182 0.059-0.402 0.074-0.644 0.072 0.026 0.046 0.071 0.089 0.071 0.136a0.357 0.357 0 0 1-0.09 0.227c-0.095 0.12-0.247 0.222-0.385 0.324 0.114 0.184 0.179 0.34 0.195 0.473a0.509 0.509 0 0 1-0.092 0.371c-0.138 0.183-0.376 0.274-0.573 0.383a0.489 0.489 0 0 1-0.118 0.35 1.163 1.163 0 0 1-0.388 0.258c0.035 0.204 0.097 0.37 0.201 0.463 0.112 0.099 0.276 0.135 0.556 0.061l0.071-0.018 0.013 0.072c0.043 0.27 0.115 0.503 0.245 0.631 0.131 0.129 0.319 0.176 0.657 0.072l0.064-0.02 0.021 0.063c0.065 0.185 0.157 0.291 0.273 0.368 0.114 0.078 0.323 0.146 0.467 0.192 1.042-1.135 1.992-2.315 2.462-3.736-0.294-0.231-0.661-0.442-0.796-1.041z m-21.202 0.504c1.522-0.105 2.982 0.256 4.183 0.818 1.202 0.562 2.166 1.227 2.579 1.707 0.098 0.114-0.025 0.157-0.094 0.094a10.695 10.695 0 0 0-2.544-1.685c-1.181-0.541-2.865-0.841-4.124-0.934z m1.129 1.048c0.797 0.026 1.62 0.202 2.359 0.46 0.988 0.342 1.856 0.802 2.282 1.28 0.059 0.065-0.009 0.166-0.096 0.09-0.456-0.397-1.255-0.905-2.229-1.242-0.75-0.255-2.107-0.482-2.963-0.519 0.257-0.029 0.381-0.078 0.647-0.069z m1.371 2.336c0.553 0.044 1.157 0.174 1.752 0.531 0.056 0.034 0.064 0.178-0.064 0.118-1.118-0.525-1.732-0.64-3.209-0.405 0.504-0.167 0.967-0.289 1.52-0.244z m-0.052 1.029c0.523-0.046 1.024-0.003 1.695 0.266 0.057 0.024 0.105 0.165-0.044 0.123-1.12-0.317-1.524-0.428-2.987 0.136 0.366-0.299 0.813-0.478 1.336-0.525z m1.679 0.897c0.414-0.03 0.83-0.034 1.22 0.008 0.068 0.008 0.072 0.137-0.008 0.134a10.281 10.281 0 0 0-2.4 0.15c-0.317 0.06-0.553 0.056-1.835 0.598 0.375-0.304 1.037-0.59 1.809-0.731a11.639 11.639 0 0 1 1.215-0.157z m1.672 0.641c0.129 0.004 0.081 0.136 0.008 0.134-0.951-0.013-1.703 0.172-2.45 0.385a12.776 12.776 0 0 0-1.721 0.686c0.37-0.3 0.931-0.597 1.686-0.812 0.756-0.217 1.63-0.426 2.477-0.395z m0.69 0.519c0.047-0.007 0.137 0.11 0.023 0.131-0.954 0.179-1.625 0.349-2.343 0.593-0.282 0.097-0.758 0.27-1.624 0.767 0.34-0.351 0.857-0.643 1.584-0.888 0.729-0.248 1.562-0.483 2.36-0.601z m0.406 0.663c0.098-0.016 0.127 0.114 0.026 0.133-1.59 0.315-2.299 0.726-3.318 1.494 0.658-0.683 1.694-1.373 3.292-1.627z m0.777 0.585c0.114-0.017 0.144 0.114 0.028 0.131-1.139 0.17-1.929 0.722-2.946 1.737 0.385-0.644 1.312-1.62 2.918-1.868z m0.486 0.509c0.06-0.008 0.149 0.095 0.03 0.131a3.441 3.441 0 0 0-0.874 0.392c-0.238 0.154-0.392 0.261-0.78 0.662 0.145-0.32 0.387-0.567 0.708-0.77 0.323-0.205 0.665-0.383 0.915-0.415z"/></svg>