<svg fill="#F8C300" role="img" viewBox="0 0 22 24" xmlns="http://www.w3.org/2000/svg"><title>Launchpad</title><path d="M20.999 18.676l-4.432-2.556-4.783 2.764V24l9.215-5.324zM10.216 24v-5.119l-4.785-2.762-4.43 2.557L10.216 24z m0.779-6.475l4.789-2.765V9.236l-4.785-2.76-4.783 2.76v5.527l4.781 2.761-0.002 0.001zM0.22 6.682v10.641l4.432-2.559V9.239L0.219 6.68l0.001 0.002z m19.615 1.121l-2.484 1.436v5.522l4.43 2.559V6.678l-1.946 1.125zM1.001 5.324l4.435 2.559 4.781-2.762V0.003L1.001 5.324z m15.566 2.559l4.434-2.559L11.782 0v5.121l4.785 2.762z"/></svg>