<svg fill="#C28F2C" role="img" viewBox="0 0 23 24" xmlns="http://www.w3.org/2000/svg"><title>League of Legends</title><path d="M1.412 0l1.212 2.474v19.053L1.412 24h14.73l1.337-4.682H7.83V0ZM11.5 1.516c-0.913 0-1.798 0.112-2.648 0.312v1.74a9.738 9.738 0 0 1 2.648-0.368c5.267 0 9.536 4.184 9.536 9.348a9.203 9.203 0 0 1-2.3 6.086l-0.273 0.954-0.602 2.112c2.952-1.993 4.89-5.335 4.89-9.122C22.75 6.468 17.713 1.516 11.5 1.516Zm0 2.673c-0.924 0-1.814 0.148-2.648 0.414v13.713h8.817a8.246 8.246 0 0 0 2.36-5.768c0-4.617-3.818-8.359-8.529-8.359zM1.604 7.312A10.858 10.858 0 0 0 0.25 12.576c0 1.906 0.492 3.7 1.355 5.266z"/></svg>