<svg fill="#262425" role="img" viewBox="0 0 36 24" xmlns="http://www.w3.org/2000/svg"><title>Leanpub</title><path d="M32.922 2.166c-1.18-0.665-4.291-2.164-8.277-2.165-3.58 0-5.619 1.1-6.645 1.808-1.027-0.707-3.065-1.809-6.645-1.809-3.988 0-7.096 1.501-8.276 2.166L0.427 24h0.079a10.153 10.153 0 0 0 4.331-0.986c1.511-0.713 3.895-1.552 6.739-1.552 3.462 0 5.433 1.546 6.424 2.538 0.993-0.991 2.962-2.536 6.424-2.536 2.845 0 5.228 0.838 6.739 1.552a10.153 10.153 0 0 0 4.331 0.984H35.573zM31.083 20.465a17.817 17.817 0 0 0-4.21-1.173c-0.817-0.119-1.64-0.179-2.452-0.179-2.301 0-4.38 0.574-6.179 1.706l-0.243 0.151-0.242-0.151c-1.801-1.132-3.881-1.706-6.183-1.706-0.808 0-1.633 0.059-2.45 0.179-1.39 0.201-2.806 0.596-4.21 1.173l-1.783 0.734L5.26 3.684l0.158-0.07c1.794-0.794 4.096-1.267 6.158-1.267 2.555 0 4.715 0.814 6.424 2.42 1.71-1.605 3.869-2.419 6.423-2.42 2.063 0 4.364 0.473 6.159 1.267l0.158 0.07 2.128 17.516z m-5.982-1.945a17.558 17.558 0 0 0-0.68-0.013c-2.383 0-4.544 0.589-6.422 1.749-1.879-1.16-4.04-1.748-6.425-1.749-0.838 0-1.691 0.063-2.536 0.185-1.44 0.209-2.904 0.617-4.354 1.214l-0.827 0.339 1.962-16.145c1.697-0.72 3.834-1.147 5.755-1.146 2.497 0 4.585 0.823 6.209 2.448L18 5.616l0.214-0.214c1.567-1.567 3.563-2.386 5.938-2.444z"/></svg>