<svg fill="#FFC233" role="img" viewBox="0 0 18 24" xmlns="http://www.w3.org/2000/svg"><title>Lemon Squeezy</title><path d="M4.492 10.836l2.375-6.512a3.15 3.15 0 0 0-0.065-2.342C6.032 0.184 3.943-0.397 2.293 0.266 0.643 0.93-0.29 2.435 0.512 4.305l2.82 6.562c0.219 0.509 0.97 0.489 1.16-0.03m1.68 1.097l6.533-2.776c2.17-0.922 2.722-3.691 1.022-5.291l-0.068-0.063c-1.667-1.547-4.422-1.002-5.371 1.036L5.357 11.136c-0.234 0.503 0.295 1.02 0.816 0.797m0.373 0.87l6.645-2.511c2.208-0.835 4.621 0.745 4.589 3.039l-0.002 0.09c-0.048 2.236-2.394 3.738-4.554 2.947l-6.672-2.442a0.595 0.595 0 0 1-0.006-1.123m-0.386 1.927l6.437 2.977a3.3 3.3 0 0 1 1.666 1.699c0.769 1.8-0.283 3.64-1.933 4.301-1.65 0.662-3.41 0.235-4.21-1.635l-2.802-6.57c-0.217-0.509 0.328-1.009 0.842-0.772"/></svg>