<svg fill="#E42829" role="img" viewBox="0 0 137 24" xmlns="http://www.w3.org/2000/svg"><title>L'&#201;quipe</title><path d="M35.076 0l-0.749 1.708H28.784l-1.464 3.472h2.264l-7.49 17.543h13.606l1.504-3.466H30.554l2.576-5.963h6.649l1.328-3.161H34.503l2.127-4.913h6.605l1.464-3.467H38.491l0.755-1.753h-4.17Zm20.284 1.532c-6.939 0.045-9.872 5.055-11.484 8.465-4.601 9.77 2.718 12.664 4.386 12.965 0.953 0.176 2.865 0.176 3.824 0l0.607 1.038h3.603l-1.22-1.861c2.695-0.17 5.867-3.847 7.251-6.78 1.39-2.939 5.458-13.6-6.967-13.827Zm64.958 0.068l-1.526 3.574h2.48l-7.473 17.459h13.742l1.373-3.127h-7.001l2.615-6.116h7.007l1.374-3.217h-7.008l2.173-5.021h6.956l1.555-3.552h-16.267Zm-101.151 0.023l-1.532 3.546h2.354c-0.494 1.197-1.089 2.706-1.929 4.567 4.698-1.106 7.087-4.789 7.711-8.113H19.167Zm-11.966 0.005l-1.51 3.512h2.259L0.415 22.723h13.872l1.464-3.421H9.147l7.58-17.674H7.201Zm60.987 0.051l-1.509 3.461h2.354l-4.346 10.236c-1.77 3.87 0.8 7.433 6.519 7.478 5.889 0.051 7.887-3.609 8.511-5.129l6.826-16.046h-3.768l-6.825 15.876c-1.197 2.343-6.519 2.133-5.01-0.868l6.428-15.008h-9.18Zm32.272 0.046l-1.532 3.421h2.417l-7.449 17.577h6.876l3.098-7.319h6.826c3.24 0 5.526-3.189 6.604-5.963 1.112-2.848 0.357-7.716-4.074-7.716h-12.766Zm-11.523 0.005l-1.464 3.433h1.992l-7.49 17.606h6.871l9.084-21.039h-8.993Zm-33.577 3.149c1.583-0.068 3.138 0.976 2.541 2.446l-4.777 11.188-1.084-1.77-2.649 1.47 0.652 0.993c-2.304 0-1.906-1.901-1.344-2.979l4.164-9.731a2.763 2.763 0 0 1 2.497-1.617Zm52.811 0.267h2.042c1.725 0 0.704 3.461 0.398 4.08-0.312 0.613-1.197 2.672-2.531 2.672h-2.837l2.928-6.752Z"/></svg>