<svg fill="#78BE20" role="img" viewBox="0 0 40 24" xmlns="http://www.w3.org/2000/svg"><title>Leroy Merlin</title><path d="M17.351 4.381c-0.283-0.273-0.547-0.537-0.795-0.779 1.176-1.201 2.352-2.402 3.519-3.602 0.398 0.389 0.778 0.753 1.142 1.136 0.033 0.033 0.017 0.14-0.016 0.198-0.366 0.72-0.728 1.44-1.093 2.162-0.033 0.067-0.067 0.123-0.116 0.231l0.223-0.091c0.747-0.339 1.5-0.67 2.245-1.018 0.123-0.058 0.2-0.058 0.306 0.05 0.333 0.331 0.67 0.654 0.97 0.943-1.201 1.234-2.385 2.435-3.553 3.627-0.299-0.289-0.58-0.57-0.853-0.836 0.579-0.587 1.176-1.193 1.771-1.788l-0.025-0.05-0.183 0.075-2.135 0.968c-0.116 0.05-0.2 0.067-0.29-0.042-0.125-0.15-0.349-0.273-0.372-0.429-0.025-0.158 0.123-0.358 0.206-0.532 0.299-0.654 0.605-1.307 0.878-1.986-0.612 0.595-1.226 1.184-1.829 1.763z m19.476 17.226c0.017-0.075 0.027-0.1 0.026-0.123 0.323-1.136 0.645-2.27 0.96-3.405 0.017-0.067 0.033-0.173-0.008-0.216-0.389-0.396-0.787-0.777-1.201-1.174l-3.52 3.592c0.249 0.241 0.531 0.516 0.82 0.805 0.77-0.755 1.565-1.525 2.329-2.262 0-0.025 0 0-0.01 0.025-0.264 1.109-0.521 2.22-0.803 3.321-0.073 0.299-0.058 0.506 0.191 0.712 0.283 0.233 0.531 0.514 0.811 0.795L39.958 20.068c-0.24-0.233-0.514-0.499-0.836-0.821-0.737 0.762-1.499 1.54-2.295 2.361z m-13.233-10.948c0.206-0.216 0.447-0.456 0.72-0.736-0.497-0.489-1.018-0.986-1.507-1.459 0.273-0.273 0.522-0.529 0.795-0.812 0.389 0.389 0.795 0.795 1.193 1.185 0.233-0.24 0.472-0.481 0.762-0.77-0.398-0.389-0.82-0.787-1.193-1.151l0.556-0.596c0.521 0.512 1.043 1.018 1.557 1.524 0.223-0.225 0.456-0.466 0.686-0.706-0.828-0.81-1.673-1.63-2.526-2.466l-3.509 3.586c0.81 0.778 1.647 1.597 2.466 2.401zM5.342 17.159c-0.258-0.231-0.482-0.439-0.68-0.62 0.489-0.522 0.978-1.035 1.475-1.565-0.216-0.2-0.449-0.422-0.688-0.647-0.812 0.795-1.638 1.607-2.45 2.395l3.576 3.576c0.813-0.793 1.642-1.597 2.478-2.417-0.249-0.233-0.482-0.449-0.722-0.68-0.506 0.489-1.026 1.003-1.524 1.492l-0.77-0.722c0.414-0.439 0.812-0.868 1.226-1.307-0.233-0.216-0.472-0.439-0.778-0.731z m8.745-11.055c-0.116-0.042-0.191-0.033-0.274 0.058-0.248 0.256-0.512 0.506-0.77 0.754-0.033 0.033-0.057 0.075-0.1 0.124 0.632 0.206 1.236 0.398 1.848 0.596 0.439 0.141 0.92 0.216 1.309 0.449 0.381 0.231 0.679 0.62 1.001 0.951 0.166 0.173 0.323 0.356 0.489 0.546 0.333-0.356 0.62-0.662 0.92-0.977-0.399-0.406-0.828-0.837-1.243-1.275a0.649 0.649 0 0 1-0.149-0.266c-0.15-0.604-0.289-1.216-0.439-1.822-0.116-0.489-0.24-0.985-0.365-1.506-0.356 0.349-0.687 0.67-1.009 0.994-0.033 0.033-0.033 0.123-0.017 0.183 0.067 0.246 0.14 0.487 0.206 0.735 0.1 0.356 0.2 0.712 0.308 1.11-0.605-0.248-1.161-0.446-1.715-0.654z m18.617 6.649l-0.929-0.901c-1.159 1.184-2.327 2.385-3.519 3.602 0.795 0.778 1.623 1.58 2.445 2.377 0.256-0.266 0.537-0.547 0.843-0.861-0.489-0.481-1.001-0.978-1.515-1.474 0.911-0.945 1.805-1.856 2.675-2.743z m-29.16 10.528c0.828-0.805 1.64-1.6 2.46-2.403-0.289-0.266-0.572-0.531-0.861-0.795-0.481 0.464-0.985 0.961-1.507 1.465-0.911-0.935-1.813-1.854-2.716-2.782-0.299 0.316-0.589 0.614-0.878 0.928 1.151 1.176 2.319 2.378 3.502 3.586z m31.338-8.307c-1.159 1.184-2.328 2.385-3.496 3.576 0.266 0.266 0.564 0.565 0.887 0.88 1.159-1.184 2.335-2.385 3.502-3.586-0.264-0.266-0.57-0.556-0.893-0.87z m-4.944-2.926c-0.489 0.383-1.018 0.497-1.624 0.266-0.256 0.795-0.514 1.573-0.77 2.369-0.316-0.308-0.612-0.589-0.903-0.895-0.042-0.05-0.025-0.175-0.008-0.25 0.208-0.951 0.416-1.904 0.63-2.864 0.008-0.033 0.008-0.067-0.016-0.124-0.622 0.645-1.242 1.292-1.857 1.921l-0.918-0.895 3.47-3.593c0.778 0.752 1.532 1.447 2.235 2.194 0.472 0.481 0.324 1.424-0.239 1.871z m-0.903-1.613c-0.256-0.283-0.554-0.532-0.829-0.788-0.256 0.266-0.529 0.539-0.82 0.836 0.166 0.175 0.341 0.366 0.516 0.547 0.033 0.042 0.065 0.083 0.106 0.107 0.075 0.058 0.15 0.116 0.233 0.149 0.264 0.116 0.562 0.033 0.735-0.189 0.191-0.233 0.233-0.482 0.059-0.664z m-13.449 0.14c0 1.351-1.267 2.566-2.675 2.566-1.342 0-2.576-1.241-2.576-2.591 0-1.499 1.093-2.61 2.585-2.61a2.631 2.631 0 0 1 2.666 2.635z m-1.243 0a2.666 2.666 0 0 0-1.25-1.392 0.966 0.966 0 0 0-1.068 0.083c-0.349 0.249-0.547 0.589-0.506 1.036 0.067 0.712 1.093 1.647 1.807 1.638 0.662-0.008 1.259-0.77 1.017-1.365z m-1.738 3.785c-0.283 0.299-0.556 0.597-0.836 0.887-0.042 0.042-0.158 0.025-0.233 0.008-0.895-0.233-1.788-0.472-2.683-0.704a0.363 0.363 0 0 0-0.191-0.008l1.823 1.871c-0.299 0.323-0.597 0.639-0.87 0.928L6.012 13.815c0.05-0.058 0.083-0.1 0.117-0.134 0.562-0.562 1.134-1.118 1.696-1.673 0.374-0.364 0.82-0.554 1.351-0.487 0.679 0.083 1.176 0.629 1.192 1.332 0.008 0.249-0.033 0.506-0.049 0.77 0.77 0.241 1.54 0.497 2.286 0.737z m-3.431-1.374c-0.223-0.225-0.506-0.273-0.737-0.091-0.256 0.2-0.489 0.431-0.736 0.653 0.314 0.291 0.604 0.564 0.918 0.854 0.133-0.123 0.308-0.281 0.472-0.439 0.067-0.067 0.133-0.123 0.183-0.2 0.173-0.263 0.14-0.537-0.1-0.777z m26.379 11.014H4.289c-0.025-0.025-0.042-0.05-0.066-0.075 0.067-0.033 0.141-0.05 0.191-0.1 2.17-2.144 4.331-4.289 6.493-6.425l7.594-7.519c0.439-0.439 0.886-0.862 1.324-1.309 0.141-0.141 0.216-0.141 0.358 0 2.467 2.485 4.951 4.96 7.428 7.436 2.608 2.61 5.209 5.217 7.817 7.817a1.297 1.297 0 0 0 0.166 0.133c-0.017 0.017-0.025 0.033-0.041 0.042z"/></svg>