<svg fill="#CF4A0C" role="img" viewBox="0 0 22 24" xmlns="http://www.w3.org/2000/svg"><title>Les libraires</title><path d="M10.789 0.002a10.579 10.579 0 0 0-7.735 3.575C-0.821 7.958-0.408 14.647 3.98 18.518a10.557 10.557 0 0 0 5.3 2.51L11.001 24l1.717-2.971a10.56 10.56 0 0 0 6.227-3.437c3.876-4.38 3.461-11.07-0.926-14.94a10.567 10.567 0 0 0-7.23-2.65zM10.276 7.5l0.613 0.512-1.862 2.444c-0.005 0.007-0.048 0.06-0.048 0.115 0 0.056 0.045 0.112 0.045 0.113l1.866 2.461-0.615 0.502-2.573-2.403a0.883 0.883 0 0 1-0.3-0.667c0-0.38 0.22-0.596 0.304-0.678z m3.265 0l0.613 0.512-1.863 2.444c-0.005 0.007-0.048 0.06-0.048 0.115 0 0.056 0.045 0.112 0.046 0.113l1.866 2.461-0.615 0.502-2.573-2.403a0.883 0.883 0 0 1-0.301-0.667c0-0.38 0.222-0.596 0.305-0.678z"/></svg>