<svg fill="#1D365D" role="img" viewBox="0 0 60 24" xmlns="http://www.w3.org/2000/svg"><title>Less</title><path d="M9.216 0.003a19.693 19.693 0 0 0-2.607 0.168c-0.695 0.101-1.286 0.307-1.774 0.616a2.944 2.944 0 0 0-1.113 1.229c-0.242 0.515-0.346 1.163-0.346 1.984V7.795c0 1.059-0.208 1.811-0.626 2.187-0.418 0.411-1.217 0.618-2.434 0.618v2.87c1.182 0 2.016 0.205 2.434 0.615 0.418 0.411 0.626 1.163 0.626 2.256v3.83c0 1.469 0.453 2.496 1.355 3.042 0.94 0.512 2.434 0.787 4.485 0.787v-2.667c-0.972 0-1.598-0.173-1.912-0.48-0.312-0.307-0.453-0.923-0.453-1.845v-3.624c0-0.923-0.242-1.64-0.692-2.152-0.455-0.515-1.185-0.925-2.192-1.197 0.972-0.309 1.702-0.717 2.154-1.267 0.453-0.544 0.695-1.264 0.696-2.152V4.992c0-0.891 0.141-1.504 0.452-1.813 0.302-0.297 1.019-0.482 1.947-0.495v11.248c0 1.029 0.074 1.89 0.223 2.583 0.146 0.693 0.406 1.286 0.776 1.791 0.371 0.502 0.881 0.866 1.524 1.095 0.643 0.23 1.457 0.346 2.434 0.347 0.242 0 0.507-0.017 0.792-0.05a13.2 13.2 0 0 0 1.608-0.264l-0.089-2.425c-0.668 0.094-1.217 0.141-1.65 0.141-0.873 0-1.459-0.228-1.764-0.682-0.302-0.453-0.453-1.321-0.453-2.6V0H9.216z m41.603-0.003v2.702c0.972 0 1.6 0.171 1.912 0.477 0.314 0.309 0.453 0.923 0.452 1.813v3.624c0 0.888 0.242 1.608 0.693 2.152 0.455 0.549 1.185 0.957 2.157 1.267-1.007 0.272-1.737 0.683-2.189 1.195-0.453 0.515-0.695 1.232-0.695 2.154v3.624c0 0.923-0.141 1.539-0.453 1.845-0.312 0.309-0.94 0.48-1.912 0.48v2.667c2.053 0 3.547-0.272 4.485-0.787 0.903-0.547 1.356-1.573 1.355-3.042v-3.83c0-1.093 0.21-1.845 0.626-2.256 0.418-0.411 1.252-0.616 2.434-0.615v-2.87c-1.217 0-2.016-0.208-2.434-0.618-0.416-0.374-0.626-1.128-0.626-2.187V4c0-0.821-0.104-1.469-0.346-1.981a2.944 2.944 0 0 0-1.113-1.232 4.522 4.522 0 0 0-1.774-0.616 17.939 17.939 0 0 0-2.572-0.171z m-16.027 4.886c-1.67 0-2.991 0.346-3.929 1.041-0.94 0.695-1.425 1.704-1.425 2.991 0 1.044 0.277 1.912 0.869 2.538s1.529 1.182 2.849 1.702c0.106 0.037 0.346 0.141 0.733 0.279 1.113 0.453 1.875 0.767 2.258 1.079a1.464 1.464 0 0 1 0.591 1.182c0 0.554-0.208 0.972-0.626 1.252-0.418 0.277-1.009 0.416-1.773 0.416-0.73 0-1.563-0.139-2.434-0.384a9.65 9.65 0 0 1-2.189-0.833l-0.347 2.572c1.249 0.732 2.919 1.079 5.039 1.079 1.774 0 3.129-0.383 4.104-1.148 0.972-0.764 1.459-1.878 1.459-3.302 0-1.079-0.312-1.947-0.94-2.608-0.623-0.66-1.563-1.217-2.884-1.704-0.945-0.371-2.078-0.685-2.991-1.252a1.15 1.15 0 0 1-0.554-1.041c0-0.453 0.208-0.801 0.592-1.044 0.381-0.242 0.903-0.346 1.598-0.346 1.252 0 2.538 0.312 3.893 0.937l0.903-2.365c-1.39-0.693-2.988-1.041-4.796-1.041z m11.161 0c-1.67 0-2.993 0.346-3.931 1.041-0.94 0.695-1.425 1.704-1.425 2.991 0 1.044 0.277 1.912 0.869 2.538 0.594 0.626 1.531 1.182 2.852 1.702 0.104 0.037 0.346 0.141 0.729 0.279 1.113 0.453 1.878 0.767 2.261 1.079a1.464 1.464 0 0 1 0.589 1.182c0 0.554-0.208 0.972-0.626 1.252-0.416 0.277-1.007 0.416-1.771 0.416a9.202 9.202 0 0 1-2.434-0.384 9.657 9.657 0 0 1-2.192-0.833l-0.346 2.572c1.252 0.732 2.919 1.079 5.041 1.079 1.737 0 3.129-0.383 4.171-1.148 0.975-0.764 1.459-1.878 1.459-3.302 0-1.079-0.312-1.947-0.937-2.608s-1.563-1.217-2.884-1.704c-0.97-0.378-2.083-0.685-2.991-1.252a1.15 1.15 0 0 1-0.557-1.041c0-0.453 0.21-0.801 0.594-1.044 0.381-0.242 0.9-0.346 1.598-0.346 1.252 0 2.538 0.312 3.894 0.937l0.833-2.365c-1.39-0.693-2.991-1.041-4.799-1.041z m-23.401 0.034c-2.083 0-3.718 0.66-4.935 2.017-1.217 1.356-1.806 3.164-1.806 5.422 0 2.365 0.623 4.173 1.91 5.491 1.286 1.323 3.06 1.984 5.355 1.984 1.979 0 3.686-0.453 5.145-1.286l-0.487-2.434a9.054 9.054 0 0 1-4.485 1.217c-1.217 0-2.192-0.383-2.886-1.113-0.693-0.73-1.076-1.771-1.114-3.092h9.529v-1.462c0-2.051-0.557-3.686-1.635-4.903-1.113-1.215-2.607-1.84-4.589-1.841z m-0.032 2.432c0.94 0 1.667 0.314 2.189 0.94 0.522 0.626 0.799 1.529 0.799 2.677H19.289c0.104-1.217 0.45-2.12 1.007-2.712 0.626-0.591 1.356-0.905 2.226-0.905Z"/></svg>