<svg fill="#003A70" role="img" viewBox="0 0 23 24" xmlns="http://www.w3.org/2000/svg"><title>Let's Encrypt</title><path d="M11.491 0a0.883 0.883 0 0 0-0.871 0.817v3.021A0.883 0.883 0 0 0 11.5 4.721a0.883 0.883 0 0 0 0.88-0.881V0.817a0.883 0.883 0 0 0-0.889-0.817z m7.705 3.109a0.88 0.88 0 0 0-0.521 0.174l-2.374 1.948a0.88 0.88 0 0 0 0.559 1.563 0.879 0.879 0 0 0 0.559-0.201l2.372-1.95a0.88 0.88 0 0 0-0.595-1.534z m-15.376 0.013a0.883 0.883 0 0 0-0.611 1.521l2.37 1.95a0.876 0.876 0 0 0 0.56 0.201v-0.002a0.88 0.88 0 0 0 0.56-1.561L4.328 3.283a0.883 0.883 0 0 0-0.508-0.161z m7.66 3.228a5.046 5.046 0 0 0-5.027 5.045v1.488H5.287a0.967 0.967 0 0 0-0.965 0.964v9.189a0.967 0.967 0 0 0 0.965 0.964H17.713a0.967 0.967 0 0 0 0.964-0.964v-9.191a0.967 0.967 0 0 0-0.964-0.962h-1.168v-1.488a5.046 5.046 0 0 0-5.065-5.045z m0.012 2.893a2.152 2.152 0 0 1 2.16 2.152v1.488H9.347v-1.488a2.152 2.152 0 0 1 2.145-2.152z m7.382 0.503a0.883 0.883 0 1 0 0.07 1.764h3.027a0.883 0.883 0 0 0 0-1.761H18.944a0.883 0.883 0 0 0-0.071-0.003z m-17.845 0.003a0.883 0.883 0 0 0 0 1.761h2.998a0.883 0.883 0 0 0 0-1.761z m10.46 6.774a1.279 1.279 0 0 1 0.641 2.393v1.245a0.63 0.63 0 0 1-1.26 0v-1.245a1.279 1.279 0 0 1 0.619-2.393z"/></svg>