<svg fill="#202830" role="img" viewBox="0 0 65 24" xmlns="http://www.w3.org/2000/svg"><title>Letterboxd</title><path d="M22.304 18.351a12.008 12.008 0 0 1-10.194 5.649C5.476 24 0.097 18.626 0.097 12s5.379-12 12.016-12c4.299 0 8.068 2.257 10.191 5.649-1.153 1.842-1.817 4.018-1.817 6.351s0.664 4.509 1.817 6.351zM40.874 12c0-2.333 0.667-4.509 1.82-6.351-2.122-3.392-5.895-5.649-10.194-5.649s-8.071 2.257-10.194 5.649c1.153 1.842 1.82 4.018 1.82 6.351s-0.667 4.509-1.82 6.351c2.122 3.392 5.895 5.649 10.194 5.649s8.071-2.257 10.194-5.649A11.935 11.935 0 0 1 40.871 12z m12.016-12a12.008 12.008 0 0 0-10.194 5.649c1.153 1.842 1.817 4.018 1.817 6.351s-0.664 4.509-1.817 6.351a12.008 12.008 0 0 0 10.194 5.649C59.524 24 64.903 18.626 64.903 12s-5.379-12-12.016-12z"/></svg>