<svg fill="#788B95" role="img" viewBox="0 0 25 24" xmlns="http://www.w3.org/2000/svg"><title>levels.fyi</title><path d="M2.991 18.915h3.521v-3.521c0-0.43 0.35-0.78 0.781-0.78h3.521v-3.521c0-0.432 0.35-0.783 0.782-0.783h3.521V6.789c0-0.432 0.35-0.782 0.782-0.782h3.52V2.487c0-0.432 0.35-0.782 0.782-0.782h3.522c0.43 0 0.781 0.35 0.781 0.782v20.731c0 0.432-0.35 0.782-0.782 0.782H2.991a0.782 0.782 0 0 1-0.782-0.782v-3.521c0-0.43 0.35-0.78 0.782-0.781ZM0.668 15.929a0.587 0.587 0 0 1 0-0.83L15.603 0.164a0.587 0.587 0 0 1 0.83 0.831l-14.935 14.934c-0.23 0.23-0.6 0.23-0.83 0Z"/></svg>