<svg fill="#FF55DD" role="img" viewBox="0 0 32 24" xmlns="http://www.w3.org/2000/svg"><title>Libera.Chat</title><path d="M18.941 0l-1.597 12.251-2.141 2.445L12.983 0.016h-0.004a12.807 12.807 0 0 0-0.259 0.055l-0.087 0.017a15.703 15.703 0 0 0-0.171 0.039l-0.084 0.021a15.651 15.651 0 0 0-2.259 0.715l-0.048 0.024 4.413 14.629-0.205 0.235-2.075-0.915-0.136 0.175L4.889 4.336a13.893 13.893 0 0 0-1.205 1.36 16.347 16.347 0 0 0-0.716 0.986v0.008l8.418 9.197-1.327 1.706-9.358-5.39a15.206 15.206 0 0 0-0.287 2.999l8.902 3.345L7.269 21.178l-5.598 0.026a15.822 15.822 0 0 0 1.575 2.796h0.004l2.203-0.485h0.585l6.316-8.082 2.057 0.91 4.335-4.951c2.402 4.085 4.992 8.015 7.347 12.127h0.589l-0.011-0.018 2.094 0.471 0.02-0.023a14.327 14.327 0 0 0 1.007-1.632 14.796 14.796 0 0 0 0.457-0.942l-4.92-0.083-1.731-2.852 7.983-2.912v-0.04a9.013 9.013 0 0 0 0.005-0.263v-0.405l-0.005-0.083v-0.088l-0.004-0.088-0.003-0.087-0.004-0.087-0.004-0.088-0.008-0.083-0.004-0.088-0.008-0.087-0.004-0.088-0.008-0.083-0.008-0.088-0.008-0.088-0.008-0.087-0.008-0.084a12.593 12.593 0 0 0-0.147-1.034v-0.02l-8.45 4.831-1.36-2.24 7.451-8.433a14.036 14.036 0 0 0-1.153-1.52 15.452 15.452 0 0 0-0.899-0.946l-6.138 9.682-1.781-2.933 2.796-10.071-0.072-0.027a15.102 15.102 0 0 0-2.605-0.772 15.846 15.846 0 0 0-0.171-0.036z m-0.206 12.12l-4.216 4.832-2.057-0.855-5.823 7.414h0.644l5.33-6.821 2.045 0.847 4.005-4.594 6.3 10.588 0.62-0.012z m-0.096 1.69l-3.783 4.343-2.084-0.847-4.864 6.201 16.411 0.008z"/></svg>