<svg fill="#7324A9" role="img" viewBox="0 0 20 24" xmlns="http://www.w3.org/2000/svg"><title>LibreOffice Base</title><path d="M15 13h-1v-1h1v1z m0 1h-1v1h1v-1z m0 2h-1v1h1v-1z m-0.6-16H13l7 7V0h-5.6zM11 0l9 9v12c0 1.662-1.338 3-3 3H3c-1.662 0-3-1.338-3-3V3c0-1.662 1.338-3 3-3h8zM4 11c0 0.552 1.343 1 3 1s3-0.448 3-1v-1c0-0.552-1.343-1-3-1s-3 0.448-3 1v1z m0 2c0 0.552 1.343 1 3 1s3-0.448 3-1v-1c0 0.552-1.343 1-3 1s-3-0.448-3-1v1z m0 2c0 0.552 1.343 1 3 1s3-0.448 3-1v-1c0 0.552-1.343 1-3 1s-3-0.448-3-1v1z m0 2c0 0.552 1.343 1 3 1s3-0.448 3-1v-1c0 0.552-1.343 1-3 1s-3-0.448-3-1v1z m12-6h-5v7h5v-7z m-3 1h-1v1h1v-1z m0 4h-1v1h1v-1z m0-2h-1v1h1v-1z"/></svg>