<svg fill="#C10018" role="img" viewBox="0 0 20 24" xmlns="http://www.w3.org/2000/svg"><title>LibreOffice Math</title><path d="M20 0v7l-7-7h7z m-9 0l9 9v12c0 1.662-1.338 3-3 3H3c-1.662 0-3-1.338-3-3V3c0-1.662 1.338-3 3-3h8zM6 17H4v1h2v-1z m5 0h-2v1h2v-1z m2.293-1.293a1 1 0 0 0 1.414-1.414l-0.793-0.793 0.793-0.793a1 1 0 0 0-1.414-1.414l-0.793 0.793-0.793-0.793a1 1 0 1 0-1.414 1.414l0.793 0.793-0.793 0.793a1 1 0 0 0 1.414 1.414l0.793-0.793 0.793 0.793zM16 17h-2v1h2v-1z m0-8H7.862L6 13.653 5.338 12H4v1h0.662L6 16.347 8.539 10H16V9z"/></svg>