<svg fill="#000000" role="img" viewBox="0 0 76 24" xmlns="http://www.w3.org/2000/svg"><title>LIFX</title><path d="M9.976 0a9.824 9.824 0 0 0-6.987 2.906A9.944 9.944 0 0 0 0.095 9.941a9.931 9.931 0 0 0 2.894 7.031l0.853 0.84 0.044-0.044a8.62 8.62 0 0 1 6.102-2.511 8.652 8.652 0 0 1 6.1 2.511l0.047 0.044 0.841-0.853a9.972 9.972 0 0 0 2.893-7.031c0-2.546-0.963-5.092-2.893-7.031A9.915 9.915 0 0 0 9.976 0z m0 2.29a7.549 7.549 0 0 1 5.373 2.233 7.679 7.679 0 0 1 0.493 10.272 10.803 10.803 0 0 0-11.751 0 7.739 7.739 0 0 1-1.718-4.854c0-1.952 0.739-3.917 2.23-5.418a7.518 7.518 0 0 1 5.373-2.233z m16.792 0.259v19.031h10.003v-4.697H31.455l0.013-14.334z m13.415 0v19.022h4.697V2.549z m8.165 0v19.031h4.697V15.636h6.058v-4.454h-6.058v-3.879h9.625l2.726 4.88-5.25 9.397h5.25l2.568-4.832 2.198 4.832h5.62l-5.26-9.397L75.905 2.549h-5.62l-2.321 5.326-2.322-5.326zM9.976 17.531c-1.636 0-3.285 0.638-4.542 1.895l1.402 1.399a4.454 4.454 0 0 1 6.305 0l1.399-1.399c-1.263-1.257-2.906-1.895-4.564-1.895z m0 4.182a2.233 2.233 0 0 0-1.602 0.673l1.602 1.614 1.604-1.614a2.214 2.214 0 0 0-1.604-0.673Z"/></svg>