<svg fill="#14AE5C" role="img" viewBox="0 0 23 24" xmlns="http://www.w3.org/2000/svg"><title>LimeSurvey</title><path d="M3.434 2.301c0.718 0 1.436 0.166 2.154 0.387 0.663 0.221 1.326 0.552 1.989 0.884 0.608 0.331 1.215 0.718 1.823 1.16l0.829 0.663c0.166 0.11 0.276 0.221 0.386 0.331 0.055 0.055 0.111 0.111 0.221 0.166l0.111 0.166 0.11 0.11H9.068l0.166-0.221 0.166-0.165 0.331-0.332c0.221-0.276 0.442-0.497 0.663-0.718 0.221-0.221 0.497-0.442 0.718-0.608 0.111-0.111 0.276-0.221 0.387-0.276l0.166-0.166 0.166-0.165c0.497-0.387 1.05-0.718 1.602-1.05 0.552-0.331 1.105-0.608 1.712-0.884 1.16-0.552 2.375-0.939 3.591-1.215 0.608-0.11 1.271-0.221 1.878-0.276 0.663-0.111 1.326-0.111 1.934-0.056l-0.829 0.498c-0.111 0.055-0.276 0.166-0.387 0.221-0.055 0.055-0.111 0.055-0.221 0.11l-0.221 0.11c-0.497 0.332-1.05 0.608-1.547 0.94-0.939 0.663-1.878 1.271-2.872 1.933-0.994 0.663-1.878 1.326-2.817 1.989l-0.663 0.497c-0.221 0.166-0.442 0.331-0.663 0.552-0.221 0.221-0.442 0.387-0.663 0.553-0.111 0.111-0.221 0.166-0.332 0.276l-0.276 0.276-1.215 1.05-0.774-1.05-0.055-0.055-0.055-0.111-0.221-0.165-0.331-0.387c-0.221-0.276-0.442-0.497-0.663-0.718L6.417 5.063c-0.442-0.497-0.884-0.994-1.381-1.436-0.497-0.497-1.05-0.939-1.602-1.326Zm16.407 11.993c0-1.215-0.221-2.431-0.663-3.536l-3.48 1.492c0.994 2.762-0.166 5.856-2.763 7.236l1.492 3.481c3.314-1.602 5.414-4.972 5.414-8.673z m-3.867-7.734l-3.315 2.431c1.105 0.552 2.044 1.436 2.597 2.485l3.48-1.491c-0.608-1.326-1.547-2.486-2.762-3.425ZM4.263 14.294c0-2.044 1.105-3.977 2.817-5.027L4.649 6.339c-3.646 2.486-5.138 7.181-3.591 11.324l3.536-1.491c-0.221-0.608-0.331-1.271-0.332-1.878Zm5.855 5.911c-2.21 0-4.254-1.271-5.248-3.26L1.39 18.437c2.154 4.585 7.513 6.739 12.264 4.916l-1.492-3.48c-0.663 0.221-1.326 0.332-2.044 0.332z"/></svg>