<svg fill="#167C80" role="img" viewBox="0 0 60 24" xmlns="http://www.w3.org/2000/svg"><title>LineageOS</title><path d="M53.793 12.141a5.93 5.93 0 0 0-4.448 1.972l-0.341-0.133a43.911 43.911 0 0 0-7.071-2.12 11.86 11.86 0 0 0-23.72 0h-0.326a43.777 43.777 0 0 0-6.819 2.06l-0.341 0.134a5.93 5.93 0 1 0 1.379 2.639 40.946 40.946 0 0 1 6.359-1.913 11.86 11.86 0 0 0 23.083 0 40.842 40.842 0 0 1 6.359 1.898 5.93 5.93 0 1 0 5.886-4.537zM6.354 21.036a2.965 2.965 0 1 1 2.965-2.965 2.965 2.965 0 0 1-2.965 2.965z m23.719 0a8.895 8.895 0 1 1 8.895-8.895 8.895 8.895 0 0 1-8.895 8.895z m23.72 0a2.965 2.965 0 1 1 2.965-2.965 2.965 2.965 0 0 1-2.965 2.965z m-19.272-8.895a4.447 4.447 0 1 1-4.448-4.447 4.447 4.447 0 0 1 4.448 4.447z"/></svg>