<svg fill="#00C300" role="img" viewBox="0 0 26 24" xmlns="http://www.w3.org/2000/svg"><title>LINE</title><path d="M20.733 9.756c0.366 0 0.662 0.299 0.662 0.662 0 0.362-0.295 0.662-0.662 0.662H18.891v1.181h1.842c0.366 0 0.662 0.297 0.662 0.662 0 0.361-0.295 0.66-0.662 0.66h-2.505c-0.362 0-0.658-0.299-0.658-0.66V7.913c0-0.362 0.296-0.662 0.661-0.661h2.506c0.363 0 0.658 0.299 0.658 0.661 0 0.366-0.295 0.662-0.662 0.662H18.891v1.181h1.842z m-4.047 3.167c0 0.284-0.183 0.536-0.454 0.626-0.067 0.022-0.14 0.033-0.209 0.032-0.222 0-0.411-0.095-0.535-0.262l-2.566-3.483v3.087c0 0.361-0.293 0.66-0.662 0.66-0.363 0-0.657-0.299-0.658-0.66V7.913c0-0.284 0.182-0.536 0.452-0.625 0.063-0.024 0.143-0.035 0.204-0.034 0.205 0 0.394 0.109 0.519 0.266l2.586 3.497V7.913c0-0.362 0.296-0.662 0.661-0.661 0.362 0 0.662 0.299 0.662 0.661v5.01z m-6.029 0c0 0.361-0.296 0.66-0.662 0.66-0.362 0-0.658-0.299-0.659-0.66V7.913c0-0.362 0.296-0.662 0.662-0.661 0.363 0 0.659 0.299 0.659 0.661v5.01z m-2.589 0.66H5.563c-0.362 0-0.662-0.299-0.662-0.66V7.913c0-0.362 0.299-0.662 0.662-0.661 0.365 0 0.662 0.299 0.661 0.661v4.348h1.844c0.365 0 0.66 0.297 0.66 0.662 0 0.361-0.296 0.66-0.66 0.66M25.6 10.229C25.6 4.59 19.946 0 13 0S0.4 4.59 0.4 10.229c0 5.052 4.484 9.284 10.537 10.089 0.411 0.086 0.969 0.271 1.111 0.62 0.126 0.316 0.083 0.804 0.04 1.134l-0.173 1.071c-0.047 0.316-0.252 1.245 1.102 0.677 1.356-0.566 7.262-4.282 9.908-7.324C24.735 14.512 25.6 12.481 25.6 10.229"/></svg>