<svg fill="#C5242C" role="img" viewBox="0 0 91 24" xmlns="http://www.w3.org/2000/svg"><title>Li-Ning</title><path d="M33.921 0.002c-0.983-0.015-2.622 0.041-5.356 0.317-7.296 0.731-9.033 3.119-9.033 3.119L0.299 23.966h3.831c16.118-17.568 31.23-23.648 31.23-23.647s0.196-0.283-1.439-0.317Zm8.784 5.918c-6.441-0.03-11.982 0.347-14.325 1.378-5.356 2.354-14.457 8.554-22.732 16.668 0 0 3.254 0.433 7.164-1.808 0 0 12.867-9.741 23.222-7.797 10.359 1.944 19.47 6.889 19.471 6.89s6.596 3.767 12.769 1.649c6.177-2.121 22.427-10.916 22.427-10.916s-12.302-2.923-23.599-4.452c-6.355-0.863-16.118-1.575-24.397-1.612Z"/></svg>