<svg fill="#2BEDA7" role="img" viewBox="0 0 26 24" xmlns="http://www.w3.org/2000/svg"><title>Linkerd</title><path d="M24.138 4.495v9.741l1.796 1.04V5.534l-1.796-1.039ZM0.061 15.276l1.796-1.04V4.495L0.061 5.534v9.742Zm8.804-0.096l8.265 4.77V17.876l-7.738-4.466-0.527 0.304v1.466Zm8.739 7.536l-8.739-5.048v2.074l2.333 1.348-2.808 1.62a0.284 0.284 0 0 0 0 0.49l1.37 0.795 3.235-1.866 3.234 1.866 1.37-0.795c0.192-0.1 0.192-0.377 0.005-0.484Zm6.534-12.412v8.639c0 0.218 0.235 0.357 0.427 0.245l1.231-0.709a0.288 0.288 0 0 0 0.143-0.246V9.27l-1.801 1.034Zm-3.528 11.164l1.156-0.672a0.421 0.421 0 0 0 0.214-0.367v-8.878l-1.797 1.039v8.639c0 0.213 0.235 0.352 0.427 0.239Zm-4.381 2.532l1.658-0.954a0.286 0.286 0 0 0 0.144-0.245v-8.969l-1.802 1.039v9.129Zm-8.121-0.96L9.765 23.995v-9.124l-1.796-1.039v8.964c0 0.101 0.054 0.197 0.139 0.244Zm-3.88-2.238l1.156 0.672a0.286 0.286 0 0 0 0.427-0.245v-8.645l-1.796-1.038v8.883c0 0.155 0.08 0.299 0.213 0.373ZM0.274 18.521l1.156 0.672a0.286 0.286 0 0 0 0.427-0.246v-8.643L0.061 9.27v8.884c0 0.149 0.08 0.288 0.213 0.367ZM25.934 5.534l-1.796-1.039-3.235 1.865-2.153-1.242 2.808-1.619a0.285 0.285 0 0 0 0-0.491l-1.161-0.672a0.435 0.435 0 0 0-0.426 0l-3.022 1.743-2.153-1.241L17.604 1.217a0.284 0.284 0 0 0 0-0.489L16.443 0.056a0.437 0.437 0 0 0-0.427 0l-3.021 1.742L9.973 0.056a0.437 0.437 0 0 0-0.427 0l-1.161 0.672a0.284 0.284 0 0 0 0 0.489l15.743 9.092 1.795-1.039-3.235-1.866 3.246-1.87ZM5.598 2.336l-1.156 0.672a0.285 0.285 0 0 0 0 0.491l15.741 9.091 1.797-1.039L6.024 2.336a0.435 0.435 0 0 0-0.426 0ZM0.061 5.534l3.234 1.865-3.234 1.871 1.801 1.034 3.23-1.866 2.158 1.248-3.235 1.865 1.796 1.039 3.235-1.87 2.152 1.246-3.235 1.866L9.765 14.871l3.23-1.871 3.234 1.871 1.797-1.039L1.857 4.495 0.061 5.534Z"/></svg>