<svg fill="#333333" role="img" viewBox="0 0 27 24" xmlns="http://www.w3.org/2000/svg"><title>Linux Containers</title><path d="M11.492 8.722l1.788 1.033-6.247 3.63 0.005-2.074L11.492 8.722z m1.87-1.086l-1.685 0.979 1.68 0.969 0.005-1.948zM7.019 4.761L7.015 5.922l0.59 0.343 3.909 2.257 1.771-1.029-2.377-1.388-3.506-2.048-0.381-0.221-0.002 0.925z m0.078-1.067l0.389 0.227 6.861 3.961 5.706 3.296 6.358-3.695L13.452 0 7.097 3.694z m6.514 13.677l-0.006 2.088 6.358-3.694 0.005-2.088-6.357 3.694z m-0.084-9.777l-0.005 2.086 6.446 3.72 0.006-2.084-6.447-3.722z m-10.994 1.025l4.423 2.553 4.375-2.542-4.423-2.553-4.375 2.542zM26.523 7.639l-6.357 3.695-0.016 4.321 6.357-3.694L26.523 7.639z m-13.075 10.897l0.003-1.165L8.725 14.644l-1.699-0.98v0.001l-1.019-0.588L0.493 9.895 0.487 11.977l12.959 7.483 0.002-0.924z m6.441-4.998l-6.427-3.702-6.352 3.691 6.421 3.705 6.358-3.694z m6.59-1.344l-12.874 7.45-0.011 4.355 12.875-7.482 0.01-4.323zM13.439 22.061l0.006-2.417L0.487 12.161 0.477 16.517l12.958 7.483 0.004-1.939zM0.499 9.615L2.213 8.619 0.504 7.633 0.499 9.615z m6.33-3.68l0.026-1.775 0.001-0.321L0.584 7.494l1.787 1.032 4.458-2.591z m0.044 5.374L2.375 8.712l-0.499 0.289-1.297 0.755 6.289 3.63 0.005-2.077z"/></svg>