<svg fill="#FDC300" role="img" viewBox="0 0 24 24" xmlns="http://www.w3.org/2000/svg"><title>Linux Professional Institute</title><path d="M12 0c-6.627 0-12 5.373-12 12 0 6.627 5.373 12.001 12 12s12-5.373 12-12S18.627 0 12 0Zm0 20.987c-4.963 0-8.987-4.023-8.987-8.987 0-4.963 4.024-8.987 8.987-8.986 4.963 0 8.987 4.024 8.987 8.986 0 4.963-4.024 8.987-8.987 8.987z m5.104-3.003l0.8-2.998h-7.163L13.506 4.495h-2.998L6.912 17.984Zm0.29-10.494c0 0.823-0.67 1.494-1.494 1.494s-1.49-0.672-1.49-1.494c0-0.822 0.667-1.491 1.49-1.491s1.494 0.669 1.494 1.491"/></svg>