<svg fill="#DA3B8A" role="img" viewBox="0 0 26 24" xmlns="http://www.w3.org/2000/svg"><title>LinuxServer</title><path d="M6.89 0C0.567 3.178-1.773 12.129 2.167 17.989h0.002a12.797 12.797 0 0 0 5.446 4.789v-0.002c9.276 4.612 20.54-4.576 17.704-14.673-0.226-0.947-1.15-4.067-3.981-6.482C20.023 0.415 16.91-0.089 14.733 0.395a0.481 0.481 0 0 0-0.158 0.068c-0.71 0.462-1.577 0.633-2.408 0.786a0.379 0.379 0 0 0-0.309 0.361c-0.011 0.374 0.193 0.809 0.332 1.103 0.351 0.684 0.985 1.086 1.733 1.18 2.749 0.786 4.876 3.28 5.121 6.2-2.093 1.327-4.897 1.504-7.323-0.507-0.038-0.032-0.077-0.062-0.115-0.095-0.786-0.637-2.004 0.334-1.477 1.286 2.052 2.688 5.327 3.628 8.342 3.094-3.384 0.63-7.584 1.116-10.833-0.019-0.75-1.548-1.884-2.908-3.277-3.881-0.168-1.675 0.244-3.414 1.064-4.785 0.643-0.985-0.847-1.954-1.494-0.995C3.114 5.382 2.603 6.759 2.369 8.18c0.02-0.142 0.041-0.284 0.064-0.426C2.945 4.726 4.343 1.81 6.89 0Zm11.348 0.765c0.05 0.005 0.064 0.012 0.065 0.004 0.42 0.034 0.833 0.218 0.868 0.473 0.027 0.199-0.182 0.395-0.463 0.534a1.992 1.992 0 0 1-0.582 0.179c-0.503 0.07-0.038-0.262-0.083-0.588-0.045-0.326-0.586-0.519-0.081-0.59 0.141-0.019 0.226-0.017 0.276-0.012z m-3.077 0.502c0.509 0.034 0.508 0.528 0 0.563-0.508-0.035-0.508-0.529 0-0.563z m-4.209 4.762a0.676 0.676 0 0 0-0.678 0.674v2.275c0.371-0.182 0.832-0.178 1.264-0.019 0.609 0.363 1.35 0.746 2.148 1.039a0.676 0.676 0 0 0 0.569-0.669V6.703a0.677 0.677 0 0 0-0.677-0.674Zm-1.991 4.172a0.677 0.677 0 0 0-0.675 0.678v2.626a0.676 0.676 0 0 0 0.675 0.675h2.627a0.675 0.675 0 0 0 0.677-0.675v-0.16c-0.958-0.551-1.832-1.293-2.56-2.246l-0.023-0.031-0.018-0.035a1.463 1.463 0 0 1-0.181-0.832Zm5.352 0c0.734 0.213 1.497 0.333 2.242 0.277a0.676 0.676 0 0 0-0.542-0.277z m-1.587 3.393a0.676 0.676 0 0 0 0.661 0.586h0.85a8.887 8.887 0 0 1-1.511-0.586Z"/></svg>