<svg fill="#ED3237" role="img" viewBox="0 0 21 24" xmlns="http://www.w3.org/2000/svg"><title>Lion Air</title><path d="M20.973 7.088h-0.097v0.192l0.097 0.096c0.071 0.971-0.866 1.537-0.866 1.537-0.015-0.603-0.481-0.673-0.481-0.672-1.131-0.291-1.442 1.057-1.442 1.057-0.128 1.131 0.673 1.153 0.673 1.153 0.45 0.125 0.865-0.384 0.865-0.384v0.192l-0.096 0.865c-0.226 0.766-1.25 0.48-1.249 0.48-0.444-0.182-0.48 0.096-0.481 0.096 0.049 1.339 0.673 1.826 0.673 1.826 0.733 0.358 0.673 0.48 0.673 0.481 0.158 0.301-0.192 0.481-0.193 0.48-0.325 0.168-0.384 0.384-0.384 0.385-0.129 0.284 0.384 0.865 0.384 0.864 0.191 0.019 0.288 0.385 0.289 0.385-0.047 0.468-0.481 0.48-0.481 0.48-0.134 0.086-0.384 0.865-0.384 0.865-0.993 3.22-4.364 3.678-5.062 3.739 0.071 0.773 0.077 1.788-0.322 2.122 0 0-0.423 0.53-1.441 0.192 0 0 1.058-0.876 0.865-3.267 0 0-0.307-0.048-0.481-0.096 0 0-0.232 3.74-2.211 3.844 0 0-0.885 0.03-1.154-0.481 0 0 2.135-0.684 2.788-3.555l-0.384-0.192s-1.387 3.682-3.75 3.747c0 0-0.887 0.126-1.441-0.961 0 0 2.769-0.204 4.71-3.171l-0.385-0.288s-2.869 3.316-5.287 2.786c0 0-1.677-0.366-1.634-1.825 0 0 3.297 1.098 6.537-1.537l-0.288-0.481S6.03 19.834 3.381 19.387c0 0-3.487-0.667-2.404-3.17 0 0 3.571 2.36 8.171 1.153v-0.577s-8.873 0.756-9.132-4.036c0 0 0.113-1.279 0.672-1.345 0 0 2.346 3.597 8.46 4.709v-0.481s-8.614-2.96-8.651-8.264c0 0 0.074-2.21 1.826-1.922 0 0 0.163 5.086 7.018 9.514l0.192-0.385S3.082 10.516 3.188 2.86c0 0 0.376-3.894 3.269-2.595 0 0-1.898 8.102 3.557 13.549 0 0 0.791-1.494 3.076-1.441 0 0 3.541-0.145 3.941 3.748 0 0 0.307 3.757-3.75 4.132 0 0 0.036 0.189 0.076 0.474 3.465-0.247 4.059-3.645 4.058-3.645 0.516-3.73-2.884-4.901-2.883-4.901-2.675-1.016-4.615 0.961-4.615 0.961-2.602-2.12-2.883-6.342-2.883-6.343l0.673-0.288c-0.846-0.556-0.481-1.73-0.481-1.729 0.44 0.364 2.019-0.288 2.019-0.288-0.226-0.894 0.288-1.057 0.288-1.058 0.461-0.064 2.692 0 2.691 0 0-0.929 0.673-0.865 0.673-0.864 0.223 0.249 1.057 0.384 1.058 0.384 1.367 0.582 1.25 0.672 1.25 0.672 0.07 0.163 0.192 0.096 0.192 0.097-0.015-0.815 0.865-0.48 0.865-0.481 0.088 0.87 2.499 2.018 2.499 2.018 0.353 0.238 0 0.673 0 0.673l0.384 0.288h0.385l0.192 0.096 0.961 0.096c0.389 0.093 0.289 0.673 0.29 0.673z m-7.114-2.114s-0.534 0.256-0.193 0.865c0 0 0.149 0.214 0.481 0.384 0 0-0.681-1.198 0.865-0.865 0 0-0.343-0.66-1.153-0.384z m4.518 1.345h-0.673v0.192l0.481 0.481 0.384-0.769Z"/></svg>