<svg fill="#2962FF" role="img" viewBox="0 0 19 24" xmlns="http://www.w3.org/2000/svg"><title>Liquibase</title><path d="M9.519 0C4.15 0 0.466 1.922 0.465 3.646c0 1.723 3.727 3.646 9.055 3.645 5.328 0 9.054-1.922 9.055-3.645S14.847 0 9.519 0Zm9.056 6.451c-1.602 1.283-3.486 1.723-7.333 2.644-5.329 1.242-10.817 2.524-10.817 7.532v0.56c2.003-1.723 5.608-2.523 9.135-3.324h0.001c4.407-1.002 9.013-2.044 9.014-4.607z m0 5.849c-1.923 1.563-5.328 2.324-8.694 3.085-4.647 1.042-9.455 2.123-9.456 5.007 0 0.642 0.521 1.323 1.483 1.924 1.924-1.282 4.928-2.003 7.812-2.684 4.367-1.041 8.854-2.123 8.855-4.807z m0 5.649c-1.883 1.602-5.249 2.405-8.494 3.166-2.364 0.562-4.768 1.122-6.451 1.963C5.153 23.64 7.196 24 9.52 24c5.288 0 9.054-1.885 9.055-3.647z"/></svg>