<svg fill="#4E56A6" role="img" viewBox="0 0 22 24" xmlns="http://www.w3.org/2000/svg"><title>Livewire</title><path d="M11.001 0C5.173 0 0.448 4.957 0.448 11.072c0 2.089 0.552 4.042 1.51 5.709 0.249 0.28 0.544 0.484 0.965 0.485 1.339 0 1.268-2.064 2.607-2.065 1.339 0 1.411 2.064 2.75 2.065 1.339 0 1.266-2.064 2.606-2.065 0.585 0 0.928 0.397 1.24 0.84-0.221-0.205-0.479-0.348-0.82-0.348-1.196 0-1.306 1.677-2.202 2.141v4.51c0 0.914 0.742 1.656 1.657 1.656 0.914 0 1.656-0.742 1.656-1.656v-5.893c0.308 0.433 0.647 0.814 1.221 0.815 1.339 0 1.266-2.064 2.605-2.065 0.465 0 0.773 0.255 1.039 0.58-0.129-0.053-0.27-0.088-0.43-0.088-1.158 0-1.296 1.574-2.117 2.094v2.436c0 0.823 0.667 1.49 1.491 1.49s1.49-0.667 1.49-1.49V16.371c0.323 0.466 0.668 0.894 1.277 0.894 0.795 0 1.093-0.729 1.484-1.32 0.688-1.47 1.074-3.124 1.075-4.873C21.552 4.957 16.828 0 11.001 0z m-0.566 2.877c2.88 0 5.215 2.784 5.214 5.807 0 3.023-1.546 5.15-5.214 5.15-3.669 0-5.215-2.127-5.215-5.15S7.555 2.877 10.435 2.877zM9.032 4.537a2.158 1.955 90 0 0-1.955 2.158 2.158 1.955 90 0 0 1.955 2.158 2.158 1.955 90 0 0 1.955-2.158 2.158 1.955 90 0 0-1.955-2.158z m-0.326 0.664a0.996 0.978 90 0 1 0.979 0.996 0.996 0.978 90 0 1-0.979 0.996 0.996 0.978 90 0 1-0.977-0.996 0.996 0.978 90 0 1 0.977-0.996zM5.757 15.694c-1.075 0-1.272 1.354-1.951 1.964v1.782c0 0.823 0.667 1.49 1.49 1.49s1.49-0.667 1.49-1.49v-3.182c-0.264-0.324-0.577-0.564-1.029-0.565Z"/></svg>