<svg fill="#262D3A" role="img" viewBox="0 0 32 24" xmlns="http://www.w3.org/2000/svg"><title>LLVM</title><path d="M27.738 0.007l-0.114 0.126a21.595 21.595 0 0 0-1.582 1.977 7.674 7.674 0 0 0-0.593 0.955 3.829 3.829 0 0 0-0.331 0.793 0.661 0.661 0 0 0-0.044 0.235v0.005a0.395 0.395 0 0 0-0.279 0.386 0.399 0.399 0 0 0 0.249 0.377c0.051 0.493 0.106 1.518 0.093 2.925l-0.006 0.189a10.636 10.636 0 0 1-0.577 3.093c-0.021-0.013-0.04-0.019-0.053-0.017-0.04 0.004-0.146 0.16-0.252 0.333-0.077 0.12-0.158 0.259-0.205 0.387a0.492 0.492 0 0 0-0.04 0.186 0.331 0.331 0 0 0 0.013 0.117c0.013 0.049 0.029 0.077 0.03 0.078a9.087 9.087 0 0 1-0.004 0.009 0.191 0.191 0 0 0-0.038 0.089l-0.016 0.038a9.087 9.087 0 0 1-0.341 0.701l-0.103 0.189a9.087 9.087 0 0 1-0.093 0.153 0.209 0.209 0 0 0-0.029-0.019 0.213 0.213 0 0 0-0.15 0.032c-0.062 0.047-0.201 0.258-0.662 0.489a1.84 1.84 0 0 1-0.426 0.152 18.744 18.744 0 0 0 0.33-2.752 6.742 6.742 0 0 0-0.085-1.405c0.004-0.013 0.004-0.023 0.004-0.023l-0.007 0.014a5.776 5.776 0 0 0-0.138-0.609 4.724 4.724 0 0 0-0.962-1.841c-0.839-1.002-1.989-1.515-2.999-1.549l-0.166-0.003c0-0.011 0-0.02 0.002-0.029 0.027-0.13 0.032-0.169-0.115-0.043a1.159 1.159 0 0 0-0.076 0.072 3.969 3.969 0 0 0-0.194 0.01 0.952 0.952 0 0 1-0.004-0.144c0.005-0.101 0.032-0.169-0.116-0.043a0.735 0.735 0 0 0-0.189 0.222c-0.066 0.011-0.106 0.02-0.106 0.02l0.06-0.002-0.063 0.01c-0.021-0.056-0.07-0.14-0.064-0.212 0.013-0.157 0.057-0.186-0.049-0.087-0.13 0.12-0.269 0.3-0.292 0.399l-0.128 0.04c-0.024-0.025-0.098-0.093-0.114-0.238-0.017-0.146-0.016-0.221-0.106-0.067a1.515 1.515 0 0 0-0.173 0.463c-0.043 0.02-0.084 0.04-0.124 0.061a0.359 0.359 0 0 1-0.076-0.23c-0.007-0.191 0.053-0.346-0.089-0.09a2.172 2.172 0 0 0-0.194 0.54 2.127 2.127 0 0 0-0.139 0.106 3.589 3.589 0 0 1-0.011-0.226c-0.003-0.19 0.028-0.393-0.089-0.035a2.435 2.435 0 0 0-0.093 0.427c-0.537 0.512-0.864 1.219-0.856 2.09v0.009a4.546 4.546 0 0 0 0.018 0.439c0.027 0.316 0.076 0.582 0.143 0.804-0.126 0.173-0.137 0.916-0.014 1.087 0.097 0.138 0.659 0.465 0.779 0.531a0.488 0.488 0 0 1 0.125 0.124c0.153 0.25 0.153 0.754 0.036 1.012-0.142 0.316 0.142 0.379 0.379 0.426 0.237 0.048 0.552-0.031 0.615-0.157 0.062-0.126-0.205-0.412-0.315-0.994-0.112-0.584 0.173-0.63 0.173-0.63s0.126 0.032 0.315 0.331c0.146 0.233 0.302 0.416 0.447 0.549a0.966 0.966 0 0 1-0.267 0.228c0.16 0.007 0.319-0.068 0.404-0.115a1.024 1.024 0 0 0 0.093 0.059 1.349 1.349 0 0 1-0.067 0.067 0.673 0.673 0 0 0 0.145-0.029 0.392 0.392 0 0 0 0.112 0.029c0.206 0.016 0.758-0.489 0.758-0.584 0-0.024-0.02-0.053-0.051-0.083-0.056-0.06-0.16-0.133-0.275-0.236a1.369 1.369 0 0 1-0.146-0.154 0.961 0.961 0 0 1-0.188-0.497v-0.013l-0.004-0.042s0.009-0.009 0.022-0.026v0.005l0.005-0.013c0.069-0.106 0.199-0.504-0.625-1.433a4.048 4.048 0 0 0-1.228-0.939c-0.056-0.627 0.199-1.214 0.832-1.502l-0.007 0.007 0.011-0.008c0.302-0.136 0.687-0.206 1.166-0.181 0.917 0.048 1.622 0.479 2.114 1.123 0.683 0.946 0.981 2.366 0.764 3.797-0.09 0.086-0.073 0.1-0.017 0.102a6.136 6.136 0 0 1-0.074 0.363l-0.035 0.02c-0.164 0.098-0.094 0.097 0 0.122l-0.008 0.027a5.291 5.291 0 0 1-0.088 0.257 1.271 1.271 0 0 0-0.116 0.039c-0.179 0.07-0.106 0.08-0.016 0.12l0.059 0.031a7.471 7.471 0 0 1-0.134 0.315 0.992 0.992 0 0 0-0.107 0.022c-0.189 0.048-0.117 0.066-0.032 0.12a0.691 0.691 0 0 1 0.053 0.036 9.017 9.017 0 0 1-0.142 0.284 1.01 1.01 0 0 0-0.203 0.033c-0.186 0.048-0.116 0.066-0.031 0.12 0.045 0.027 0.08 0.053 0.107 0.079a10.663 10.663 0 0 1-0.125 0.219l-0.031 0.048a0.784 0.784 0 0 0-0.274 0.032c-0.189 0.048-0.117 0.066-0.032 0.119a0.891 0.891 0 0 1 0.139 0.105 11.446 11.446 0 0 1-0.168 0.24 0.683 0.683 0 0 0-0.306-0.007c-0.191 0.027-0.122 0.053-0.044 0.114 0.09 0.07 0.133 0.132 0.157 0.157l-0.082 0.112c-0.058-0.077-0.199-0.165-0.327-0.257a1.13 1.13 0 0 0-0.386-0.173c-0.064 0-0.266 0.356-1.352 0.262-1.089-0.094-1.157-0.199-1.252-0.199a1.3 1.3 0 0 0-0.303 0.078l-0.045-0.026a14.663 14.663 0 0 1-1.292-0.896c-0.617-0.492-0.957-0.86-0.957-0.86s0.182-0.166-0.063-0.378a4.413 4.413 0 0 0-0.449-0.368 2.867 2.867 0 0 0-0.322-0.221 4.746 4.746 0 0 1-0.117-0.169 15.267 15.267 0 0 1-0.482-0.834 13.898 13.898 0 0 1-0.333-0.701c-0.213-0.479-0.359-0.907-0.46-1.281a7.471 7.471 0 0 1-0.196-1.227 3 3 0 0 1 0.005-0.322 0.546 0.546 0 0 0 0.21-0.429 0.546 0.546 0 0 0-0.476-0.542c-0.271-0.568-1.305-1.963-5.159-4.892l-0.169-0.128 0.007 0.005-0.048-0.036C9.442 4.82 10.209 6.134 10.41 6.683a0.546 0.546 0 0 0-0.036 0.043 24.845 24.845 0 0 0-0.024-0.017c0.024 0 0.033-0.007 0.034-0.006s-0.893-0.726-2.376-1.636c-1.486-0.913-2.324-1.129-2.499-1.165l-0.035-0.008s0.274 0.253 0.232 0.379c-0.013 0.043-0.223 0.029-0.56 0.037a5.248 5.248 0 0 0-0.964 0.093 5.45 5.45 0 0 0-2.083 0.837C0.364 6.397 0.048 7.216 0.048 7.216s0.731-1.021 2.1-1.735c-0.019 0.448-0.062 2.619 0.592 5.477 0.705 3.084 2.034 5.965 2.145 6.201 0.005 0.237 0.021 0.362 0.022 0.362s0.197-2.38 1.005-4.848c0.233 0.376 1.008 1.485 2.758 2.786 2.164 1.609 3.151 2.042 3.19 2.058 0.001 0.209 0.007 0.319 0.007 0.319s0.007-0.133 0.024-0.35a6.235 6.235 0 0 1 0.734-0.89 4.759 4.759 0 0 1 0.718-0.579c0.043 0.146 0.084 0.271 0.123 0.367-0.027-0.129-0.048-0.253-0.069-0.375 0.142 0.013 0.715 0.088 1.603 0.523 0.456 0.223 0.81 0.525 1.061 0.791a0.222 0.222 0 0 0-0.018 0.008s0.164 0.149 0.357 0.535a3.212 3.212 0 0 0-0.97 0.112 3.872 3.872 0 0 0-0.131-0.253 0.643 0.643 0 0 0-0.051-0.178c-0.036-0.081-0.126-0.133-0.218-0.186a0.528 0.528 0 0 0-0.139-0.097 0.299 0.299 0 0 1-0.073-0.097c-0.112-0.245-1.061 0.016-1.252 0.239-0.233 0.271-0.278 0.617-0.186 0.809 0.028 0.06 0.093 0.109 0.183 0.146 0.003 0.292 0.182 0.997 0.537 1.506a6.599 6.599 0 0 1-0.143-0.885c-0.012-0.213 0-0.364 0.02-0.466 0.062 0.436 0.231 0.909 0.767 1.495-0.33-0.718-0.292-1.145-0.259-1.52l0.013-0.058 0.006-0.002c0.048 0.35 0.189 0.71 0.641 1.28a0.548 0.548 0 0 1-0.018-0.037l0.018 0.028a2.162 2.162 0 0 1-0.222-1.369l0.011-0.003c0.061 0.04 0.121 0.093 0.178 0.168 0.17 0.229 0.25 0.464 0.282 0.625a0.702 0.702 0 0 0 0.089 0.509 24.367 24.367 0 0 1-0.957 0.666c-0.306 0.199-0.651 0.416-1.007 0.625-0.186 0.106-0.371 0.21-0.55 0.305l-0.179-0.102h0.002l-0.01-0.005c-1.289-0.743-2.247-1.239-3.348-1.439-1.236-0.221-2.374 0.376-2.634 1.439a1.707 1.707 0 0 0 0.733 1.834l0.016 0.011c0.017 0.013 0.035 0.023 0.054 0.034l0.079 0.048h0.003a2.792 2.792 0 0 0 0.917 0.315l0.037 0.007h0.008a4.653 4.653 0 0 0 0.548 0.058c1.296 0.062 2.866-0.542 4.418-1.305 0.133 0.072 0.269 0.144 0.406 0.221 3.386 1.865 5.448 2.107 8.181 0.967-0.667 0.201-1.606 0.473-2.784 0.458a0.066 0.066 0 0 0-0.026-0.008v0.008a7.258 7.258 0 0 1-0.86-0.067l-0.04-0.005v-0.004a0.355 0.355 0 0 0-0.001 0.003 8.308 8.308 0 0 1-2.069-0.58 10.358 10.358 0 0 1-0.99-0.481 75.859 75.859 0 0 1-1.338-0.757c0.463-0.237 0.92-0.483 1.364-0.724 0.472-0.251 0.893-0.481 1.221-0.665l0.012-0.005h0.009s0.11-0.025 0.213-0.057c0.226-0.069 0.545-0.198 0.923-0.377 0.037 0.156 0.126 0.286 0.26 0.337 0.312 0.121 0.541 0.036 0.694-0.136l0.024-0.013 0.062-0.049c0.066-0.04 0.142-0.089 0.207-0.12a1.515 1.515 0 0 1 0.071-0.029c0.053-0.013 0.104-0.031 0.154-0.049l0.044-0.014c-0.193 0.395-0.121 0.772-0.121 0.773 0.057-0.492 0.292-0.808 0.521-0.951 0.085-0.036 0.173-0.066 0.266-0.089 0.085 0 0.154 0.031 0.191 0.093 0.093 0.16 0.288 0.258 0.484 0.301 0.032 0.199-0.06 0.537-0.531 1.151l0.119-0.083 0.005-0.004 0.096-0.07c0.19-0.144 0.335-0.279 0.444-0.405a1.289 1.289 0 0 0 0.253-0.406c0.017 0.266-0.056 0.674-0.412 1.377 0 0 0.421-0.367 0.683-0.837 0.008 0.254-0.013 0.589-0.084 1.043 0.459-0.895 0.432-1.442 0.318-1.762l-0.013-0.048a0.576 0.576 0 0 0-0.014-0.087l0.056-0.075c0.157-0.221-0.064-0.457-0.205-0.551-0.08-0.053-0.266-0.205-0.603-0.208-0.299-0.359-0.678-0.199-1.274 0.192a1.724 1.724 0 0 1-0.22 0.123 0.964 0.964 0 0 0-0.073-0.155c0.213-0.128 0.433-0.266 0.656-0.409 0.421-0.275 0.735-0.553 0.968-0.818 0.678-0.687 0.917-1.356 1.609-1.922h-0.018l0.08-0.041c1.135-0.609 1.736-0.727 1.779-0.735l-0.004 0.17 0.024-0.166a2.386 2.386 0 0 1 0.639 0.457 2.818 2.818 0 0 1 0.481 0.648l0.059 0.398s0-0.154-0.014-0.438c0.203-0.201 1.356-1.387 2.292-3.279 0.923-1.866 1.255-3.354 1.352-3.887a24.178 24.178 0 0 1 0.884 3.279s-0.003-0.177-0.04-0.498c0.128-0.447 0.685-2.489 0.833-4.993 0.133-2.233-0.086-3.696-0.187-4.218 0.861 0.713 1.323 1.736 1.323 1.737s-0.053-0.217-0.25-0.581l0.027 0.036s-0.314-0.605-0.856-1.202a8.574 8.574 0 0 0-0.209-0.229c-0.574-0.611-1.135-0.82-1.555-0.893a2.087 2.087 0 0 0-0.41-0.04h-0.025c-0.166-0.004-0.266 0.003-0.275-0.035-0.027-0.126 0.146-0.379 0.146-0.378s-0.235 0.061-0.736 0.438c-0.306 0.222-0.691 0.545-1.134 1.011a18.197 18.197 0 0 0-1.183 1.321l-0.1 0.126a0.27 0.27 0 0 0-0.031-0.022c0.101-0.439 0.481-1.485 2.377-4.136zM15.894 14.778a0.467 0.467 0 0 1 0.016 0.008z m-0.35 3.465c0.117 0.058 0.253 0.141 0.403 0.257h-0.007a0.643 0.643 0 0 0-0.206 0.094 1.271 1.271 0 0 1-0.167-0.298z m-6.454 2.087c0.175 0 0.367 0.017 0.574 0.062l0.027 0.007 0.023 0.005c0.146 0.036 0.296 0.082 0.448 0.136l0.075 0.028c0.254 0.098 0.525 0.207 0.813 0.329 0.425 0.186 0.824 0.368 1.114 0.499l0.243 0.117c-0.292 0.141-0.564 0.261-0.767 0.347-1.348 0.553-2.433 0.713-3.108 0.519-1.255-0.358-1.01-2.042 0.558-2.049z"/></svg>