<svg fill="#51BB7B" role="img" viewBox="0 0 25 24" xmlns="http://www.w3.org/2000/svg"><title>Local</title><path d="M4.886 11.97l6.775-6.774a0.647 0.647 0 0 0 0.207-0.482V0.683a0.71 0.71 0 0 0-0.426-0.632 0.689 0.689 0 0 0-0.746 0.15L1.753 9.154c-0.953 0.953-1.407 1.876-1.419 2.844s0.44 1.876 1.379 2.813l8.981 8.983a0.647 0.647 0 0 0 0.482 0.205 0.395 0.395 0 0 0 0.264-0.083 0.689 0.689 0 0 0 0.426-0.634v-4.056a0.702 0.702 0 0 0-0.207-0.482L4.885 11.97h0.002z m-2.676 1.338c-0.345-0.456-0.509-0.884-0.509-1.298 0.012-0.578 0.345-1.198 1.021-1.875l7.766-7.768v2.085l-7.158 7.158A4.415 4.415 0 0 0 2.21 13.308z m8.279 8.319l-6.541-6.539a0.758 0.758 0 0 0-0.095-0.122c-0.207-0.21-0.827-0.83 0.095-1.988l6.54 6.538v2.111zM14.307 0.215a0.677 0.677 0 0 0-0.744-0.152 0.689 0.689 0 0 0-0.428 0.635v4.07c0.004 0.182 0.077 0.355 0.207 0.483l6.774 6.773-6.774 6.774a0.647 0.647 0 0 0-0.207 0.483v4.015a0.691 0.691 0 0 0 1.172 0.497l8.939-8.94c0.953-0.953 1.408-1.876 1.42-2.843 0.017-0.965-0.439-1.876-1.379-2.813L14.307 0.215z m0.207 4.263V2.369l6.54 6.537c0.026 0.045 0.061 0.085 0.096 0.124 0.207 0.207 0.827 0.828-0.096 1.987l-6.538-6.54-0.002 0.002z m7.753 9.396l-7.766 7.767v-2.068l7.158-7.175a4.513 4.513 0 0 0 1.119-1.697c0.345 0.456 0.511 0.884 0.511 1.297-0.014 0.578-0.345 1.186-1.022 1.876z m-4.69-1.312H7.33a0.523 0.523 0 0 1-0.524-0.523v-0.055c0-0.29 0.233-0.525 0.524-0.525h10.25a0.527 0.527 0 0 1 0.525 0.525v0.055a0.533 0.533 0 0 1-0.525 0.523h-0.004z m-1.46-2.579v0.056a0.523 0.523 0 0 1-0.527 0.524H9.299a0.523 0.523 0 0 1-0.526-0.524v-0.056c0-0.289 0.235-0.524 0.526-0.524h6.291c0.29 0 0.523 0.235 0.523 0.524h0.002z m-1.947-2.015v0.055a0.523 0.523 0 0 1-0.524 0.525h-2.498a0.523 0.523 0 0 1-0.523-0.525v-0.055c0-0.29 0.235-0.523 0.523-0.523h2.498a0.515 0.515 0 0 1 0.523 0.523z m-0.524 7.546c0.288 0 0.523 0.235 0.523 0.526v0.054a0.523 0.523 0 0 1-0.523 0.523h-2.498a0.523 0.523 0 0 1-0.523-0.523v-0.054c0-0.29 0.235-0.525 0.523-0.526h2.498z m1.945-0.924H9.3a0.523 0.523 0 0 1-0.526-0.523v-0.055a0.527 0.527 0 0 1 0.526-0.525h6.291c0.29 0 0.523 0.235 0.523 0.525v0.055a0.523 0.523 0 0 1-0.523 0.523z"/></svg>