<svg fill="#3492FF" role="img" viewBox="0 0 27 24" xmlns="http://www.w3.org/2000/svg"><title>Lodash</title><path d="M0.16 21.174h26.679v2.826h-26.679z m20.077-16.72l0.248 0.035c2.149-0.079 4.319 1.118 5.427 2.972 0.938 1.741 1.085 3.844 0.792 5.766-0.227 1.842-1.277 3.595-2.939 4.477-2.42 1.266-5.653 1.131-7.801-0.656-2.217-2.159-2.736-5.709-1.605-8.535 0.79-2.453 3.335-4.07 5.878-4.035z m0.261 2.001h-0.204c-1.583-0.033-3.087 1.017-3.652 2.487-0.814 2.035-0.814 4.635 0.769 6.331 1.301 1.594 3.844 1.775 5.427 0.487 1.695-1.458 2.034-3.991 1.469-6.06-0.306-1.832-1.979-3.256-3.844-3.256z m-20.338-6.455h2.487v16.504h9.836v2.036h-12.323z"/></svg>