<svg fill="#00B8FC" role="img" viewBox="0 0 35 24" xmlns="http://www.w3.org/2000/svg"><title>Logitech</title><path d="M34.949 1.964a1.963 1.963 0 0 1-1.963 1.964 1.963 1.963 0 0 1-1.966-1.964 1.963 1.963 0 0 1 1.965-1.964A1.963 1.963 0 0 1 34.949 1.963zM24.115 21.176a3.328 3.328 0 0 1-3.377-3.376H17.791c0 3.561 2.763 6.2 6.261 6.2s6.322-2.7 6.323-6.2H27.49c-0.063 1.964-1.536 3.376-3.377 3.376z m7.427-4.112h2.885V5.278h-2.885zM0.051 17.065h2.885V0.368H0.051v16.697z m10.375-12.154c-3.561 0-6.263 2.702-6.263 6.2a6.209 6.209 0 0 0 6.263 6.261c3.499 0 6.261-2.702 6.261-6.2S13.985 4.911 10.426 4.911z m0 9.637c-1.905 0-3.376-1.473-3.377-3.437a3.328 3.328 0 0 1 3.377-3.377 3.328 3.328 0 0 1 3.375 3.377c0 1.903-1.41 3.438-3.375 3.437z m19.826-6.936V5.278h-4.112c-0.675-0.305-1.351-0.368-2.025-0.367-3.561 0-6.322 2.702-6.323 6.261 0 3.561 2.763 6.2 6.262 6.2s6.261-2.702 6.261-6.2c0-1.227-0.369-2.332-0.983-3.192z m-6.137 6.936c-1.903 0-3.376-1.473-3.377-3.437a3.328 3.328 0 0 1 3.377-3.377 3.328 3.328 0 0 1 3.376 3.377c0 1.903-1.536 3.438-3.376 3.437Z"/></svg>