<svg fill="#00B8FC" role="img" viewBox="0 0 23 24" xmlns="http://www.w3.org/2000/svg"><title>Logitech G</title><path d="M12.067 0C10.41 0 8.852 0.314 7.389 0.941c-1.479 0.627-2.766 1.483-3.859 2.569-1.093 1.085-1.955 2.359-2.582 3.822-0.643 1.447-0.958 3-0.942 4.656 0 1.656 0.314 3.216 0.942 4.68 0.854 1.97 2.676 4.771 6.441 6.367C8.852 23.678 10.41 24 12.067 24v-4.992c-0.981 0-1.898-0.185-2.75-0.555-1.685-0.731-2.99-2.017-3.739-3.74-0.747-1.721-0.736-3.755 0-5.451 0.737-1.698 2.032-2.998 3.739-3.739 0.852-0.37 1.769-0.555 2.75-0.554Zm0.17 9.842v4.943h5.812v5.815h4.945V9.842Z"/></svg>