<svg fill="#4285F4" role="img" viewBox="0 0 15 24" xmlns="http://www.w3.org/2000/svg"><title>Looker</title><path d="M7.447 0c-1.16 0.002-2.098 0.944-2.096 2.104a2.1 2.1 0 0 0 0.356 1.166l0.895-0.896a0.884 0.884 0 1 1 0.565 0.564l-0.895 0.895c0.959 0.648 2.262 0.395 2.91-0.564 0.648-0.959 0.395-2.262-0.564-2.91A2.096 2.096 0 0 0 7.447 0z m-0.835 6.113a3.263 3.263 0 0 0-0.653-1.965l-1.164 1.162a1.667 1.667 0 0 1-0.318 2.012l0.632 1.545a3.282 3.282 0 0 0 1.503-2.754z m-3.249 1.666h-0.03c-0.922 0.001-1.67-0.746-1.671-1.668-0.001-0.922 0.745-1.67 1.667-1.67a1.669 1.669 0 0 1 0.92 0.275l1.152-1.152c-1.407-1.141-3.472-0.926-4.614 0.481s-0.926 3.472 0.481 4.613a3.28 3.28 0 0 0 2.728 0.666l-0.633-1.544v-0.001z m4.127 1.336c-0.728 0-1.452 0.106-2.15 0.315l0.922 2.252c2.687-0.682 5.418 0.944 6.101 3.631 0.682 2.687-0.944 5.418-3.631 6.1s-5.418-0.944-6.101-3.631c-0.568-2.239 0.466-4.577 2.504-5.664l-0.91-2.245c-3.691 1.808-5.217 6.266-3.409 9.956l0.001 0.001c1.808 3.691 6.266 5.217 9.956 3.41l0.001-0.001c3.691-1.807 5.219-6.264 3.412-9.956a7.442 7.442 0 0 0-6.687-4.169h-0.008l-0.001 0.001z"/></svg>