<svg fill="#F29400" role="img" viewBox="0 0 25 24" xmlns="http://www.w3.org/2000/svg"><title>Loop</title><path d="M12.5 0C5.871 0 0.5 5.371 0.5 12s5.371 12 12 12 12-5.371 12-12C24.511 5.371 19.129 0 12.5 0zM13.2 22.611C7.337 22.611 2.589 17.863 2.589 12S7.337 1.389 13.2 1.389 23.811 6.137 23.811 12 19.063 22.611 13.2 22.611zM7.545 3.413c-4.747 2.735-6.366 8.795-3.632 13.542 2.735 4.737 8.806 6.366 13.542 3.632 4.747-2.735 6.366-8.806 3.632-13.542C18.352 2.297 12.292 0.678 7.545 3.413zM17.368 19.034c-4.08 2.352-9.287 0.952-11.639-3.118-2.352-4.08-0.952-9.287 3.118-11.639 4.08-2.352 9.287-0.952 11.639 3.118C22.837 11.464 21.448 16.682 17.368 19.034zM5.729 8.084c-2.166 3.741-0.875 8.532 2.866 10.687 3.741 2.166 8.532 0.875 10.698-2.866s0.875-8.532-2.866-10.687C12.675 3.063 7.884 4.343 5.729 8.084zM18.571 14.702c-1.827 3.161-5.863 4.244-9.025 2.417-3.161-1.827-4.244-5.863-2.418-9.025s5.863-4.244 9.025-2.418C19.315 7.493 20.398 11.541 18.571 14.702zM6.593 12c0 3.271 2.647 5.918 5.918 5.918s5.918-2.647 5.918-5.918-2.647-5.918-5.918-5.918C9.24 6.082 6.593 8.729 6.593 12zM17.204 11.3c0 2.593-2.1 4.693-4.693 4.693s-4.693-2.1-4.693-4.693 2.1-4.693 4.693-4.693C15.093 6.607 17.204 8.707 17.204 11.3z"/></svg>