<svg fill="#3F5DFF" role="img" viewBox="0 0 30 24" xmlns="http://www.w3.org/2000/svg"><title>LoopBack</title><path d="M7.966 19.959l3.118-2.005 3.946 2.252 3.983-2.329 3.296 1.881-7.259 4.242-7.084-4.041ZM6.651 4.849l8.299-4.849 8.353 4.765 0.028 8.384-3.294-1.878-0.014-4.594-5.053-2.882-5.026 2.938 0.013 4.59-1.121 0.653-2.158 1.387-0.027-8.514Zm4.478 3.057l2.374 1.352-2.365 1.377-0.009-2.729Zm5.383 6.844l3.269-1.917 4.06 2.311 2.756-1.608-0.016-3.191-2.081-1.188-0.013-3.79 5.405 3.084 0.002 6.964-6.031 3.526-7.351-4.191Zm-16.37 0.82L0.106 8.585l5.364-3.134 0.012 3.799-2.079 1.215 0.016 3.19 2.773 1.581L18.845 7.854l0.011 3.8-12.646 7.378-6.068-3.462Z"/></svg>