<svg fill="#900028" role="img" viewBox="0 0 34 24" xmlns="http://www.w3.org/2000/svg"><title>LTspice</title><path d="M13.233 0c-1.122 0.884-1.373 2.285-1.641 4.675-0.515 4.59-0.903 7.325-1.476 12.201-0.28 2.397 1.375 2.68 3.332 2.658h4.065c0.367 0.003 0.497 0.173 0.449 0.536-0.175 1.36-0.363 3.929-1.676 3.93L0.089 23.969s3.989-1.454 4.461-4.752L6.438 3.874c0.294-1.912 1.816-3.874 3.711-3.874h3.084z m7.83 24c1.896 0 3.418-1.962 3.712-3.874L26.663 4.784c0.472-3.298 4.46-4.752 4.46-4.753L14.927 0.001c-1.314 0-1.502 2.569-1.677 3.929-0.047 0.363 0.083 0.534 0.45 0.536h4.064c1.957-0.022 3.613 0.261 3.333 2.658-0.572 4.876-0.961 7.611-1.476 12.201-0.268 2.39-0.518 3.791-1.641 4.675h3.083zM32.786 4.465c0.365 0.001 0.7-0.295 0.745-0.657l0.375-3.144c0.044-0.361-0.218-0.664-0.583-0.664h-1.239c-1.534 0-3.103 2.53-3.179 3.799-0.048 0.364 0.213 0.662 0.579 0.666h3.302z"/></svg>