<svg fill="#FF00BF" role="img" viewBox="0 0 36 24" xmlns="http://www.w3.org/2000/svg"><title>Lyft</title><path d="M6.842 17.686c0.053 0.062 0.183 0.198 0.183 0.198s-0.138 0.086-0.222 0.126a4.46 4.46 0 0 1-1.875 0.418C2.761 18.428 0.429 16.818 0.429 13.286v-12.857h5.142v13.713c0 1.391 0.448 2.608 1.27 3.544zM35.571 10.714V5.572h-1.834c-0.767-4.041-5.015-6.698-9.285-5.102-2.378 0.889-4.309 3.731-4.31 6.27v11.684a2355.75 2355.75 0 0 0 0.224 0 5.118 5.118 0 0 0 3.485-1.577c0.925-0.964 1.435-2.229 1.435-3.561h2.143V8.143h-2.143V6.729c0-0.549 0.29-1.063 0.771-1.331 1.318-0.732 2.658 0.209 2.657 1.458v4.715c0 1.864 0.703 3.596 1.983 4.875a6.832 6.832 0 0 0 4.653 1.978H35.571v-5.14a1.713 1.713 0 0 1-1.713-1.713v-0.858H35.571z m-21.857 1.714a0.857 0.857 0 0 1-1.713 0V5.572H6.857v8.57a4.287 4.287 0 0 0 7.072 3.257c-0.081 0.634-0.431 1.16-1.01 1.523-0.546 0.343-1.255 0.523-2.053 0.523a5.608 5.608 0 0 1-2.416-0.56s-0.136-0.064-0.308-0.161v4.567a9.738 9.738 0 0 0 3.614 0.709c1.921 0 3.675-0.6 4.936-1.691 1.416-1.224 2.164-3.011 2.165-5.166V5.572H13.714v6.857z"/></svg>