<svg fill="#000000" role="img" viewBox="0 0 103 24" xmlns="http://www.w3.org/2000/svg"><title>macOS</title><path d="M0.4 23.612h4.007v-10.445c0-2.061 1.354-3.556 3.283-3.556 1.869 0 3.023 1.175 3.024 3.075v10.926h3.896V13.065c0-2.044 1.32-3.458 3.253-3.458 1.959 0 3.057 1.192 3.058 3.279v10.722h4.003v-11.702c0-3.411-2.202-5.681-5.566-5.68-2.461 0-4.488 1.32-5.31 3.428h-0.098c-0.626-2.189-2.351-3.428-4.761-3.428-2.321 0-4.122 1.303-4.863 3.283H4.245v-2.96H0.4v17.059z m33.3-2.75c-1.737 0-2.896-0.886-2.896-2.287 0-1.354 1.107-2.223 3.041-2.351l3.943-0.242v1.307c0 2.057-1.818 3.573-4.088 3.573z m-1.209 3.023c2.189 0 4.331-1.141 5.314-2.994h0.077v2.721h3.866v-11.753c0-3.424-2.755-5.664-6.983-5.663-4.348 0-7.069 2.287-7.244 5.472h3.718c0.256-1.414 1.465-2.334 3.364-2.334 1.976 0 3.185 1.031 3.185 2.819v1.222l-4.505 0.256c-4.156 0.26-6.49 2.078-6.49 5.106 0 3.07 2.402 5.148 5.698 5.148z m26.849-11.251c-0.277-3.59-3.062-6.439-7.567-6.438-4.957 0-8.176 3.428-8.176 8.887 0 5.536 3.219 8.866 8.21 8.866 4.28 0 7.226-2.512 7.545-6.324h-3.781c-0.37 1.929-1.691 3.087-3.718 3.088-2.542 0-4.182-2.057-4.181-5.63 0-3.509 1.622-5.634 4.152-5.634 2.138 0 3.407 1.367 3.73 3.185h3.786z m12.374-12.634c-6.775 0-11.025 4.62-11.025 12.009 0 7.388 4.25 11.991 11.03 11.991 6.754 0 11.004-4.603 11.003-11.991 0-7.388-4.246-12.009-11.008-12.009z m0 3.543c4.135 0 6.775 3.279 6.775 8.466 0 5.165-2.64 8.449-6.77 8.448-4.156 0-6.779-3.279-6.78-8.448 0-5.182 2.623-8.466 6.775-8.466z m12.699 13.533c0.179 4.284 3.688 6.924 9.027 6.924 5.621 0 9.16-2.768 9.16-7.18 0-3.462-1.997-5.408-6.711-6.485l-2.67-0.613c-2.853-0.673-4.024-1.576-4.024-3.122 0-1.929 1.767-3.219 4.394-3.219 2.653 0 4.471 1.303 4.668 3.479h3.96c-0.098-4.088-3.479-6.856-8.598-6.856-5.055 0-8.644 2.781-8.644 6.899 0 3.322 2.031 5.378 6.311 6.362l3.01 0.707c2.93 0.694 4.118 1.661 4.118 3.33 0 1.933-1.946 3.317-4.748 3.317-2.832 0-4.969-1.401-5.229-3.543h-4.024z"/></svg>