<svg fill="#E71B34" role="img" viewBox="0 0 26 24" xmlns="http://www.w3.org/2000/svg"><title>Magasins U</title><path d="M18.808 6.899h-3.713c-0.679 0-0.772 0.275-0.772 0.692v6.03c-0.047 1.381-0.561 1.823-1.545 1.823-1.011 0-1.528-0.465-1.549-1.934V7.591c0-0.416-0.097-0.692-0.776-0.692h-3.714v7.173c0 1.587 0.307 2.258 0.965 2.939 1.018 1.058 2.798 1.505 5.072 1.506 2.275 0 4.056-0.446 5.076-1.506 0.656-0.681 0.964-1.352 0.964-2.939zM15.391 0.263C9.218-0.939 3.161 3.334 1.86 9.803 0.565 16.276 4.515 22.495 10.691 23.694c6.178 1.198 12.235-3.073 13.533-9.542C25.52 7.68 21.57 1.46 15.392 0.261m-2.608 22.623c-5.992 0-10.847-4.848-10.847-10.827 0-5.977 4.856-10.823 10.847-10.823 5.989 0 10.847 4.845 10.848 10.823 0 5.98-4.858 10.827-10.848 10.827M0.332 11.086C-0.118 17.595 4.925 23.263 11.804 23.849c-0.368-0.032-0.74-0.085-1.113-0.156C4.517 22.495 0.563 16.274 1.861 9.803 3.151 3.377 9.134-0.878 15.264 0.239c-0.516-0.099-1.037-0.169-1.572-0.207C6.696-0.447 0.791 4.499 0.334 11.088M14.469 0.103a8.123 8.123 0 0 0-0.819-0.039 10.487 10.487 0 0 1 1.743 0.197c6.174 1.2 10.128 7.416 8.83 13.888-1.299 6.468-7.356 10.741-13.531 9.543a10.635 10.635 0 0 1-0.812-0.192c1.049 0.324 2.179 0.5 3.368 0.5 1.191 0 2.112-0.161 2.991-0.36 3.813-0.863 6.901-3.536 8.442-6.883 0.672-1.503 1.017-3.132 1.015-4.776-0.001-6.623-5.201-11.366-11.228-11.877"/></svg>