<svg fill="#6851FF" role="img" viewBox="0 0 21 24" xmlns="http://www.w3.org/2000/svg"><title>Magic</title><path d="M10.5 0a29.658 29.658 0 0 1-3.611 3.53A27.326 27.326 0 0 1 8.229 12c0 2.948-0.47 5.792-1.34 8.47A29.658 29.658 0 0 1 10.5 24a29.658 29.658 0 0 1 3.611-3.53 27.326 27.326 0 0 1-1.34-8.47c0-2.948 0.47-5.792 1.34-8.47A29.658 29.658 0 0 1 10.5 0Zm6.109 5.381A27.362 27.362 0 0 0 15.8 12c0 2.278 0.28 4.494 0.809 6.619a30.696 30.696 0 0 1 4.391-2.424A13.662 13.662 0 0 1 20.343 12c0-1.46 0.23-2.868 0.657-4.195a30.698 30.698 0 0 1-4.391-2.424Zm-12.218 0A30.7 30.7 0 0 1 0 7.805c0.427 1.327 0.657 2.736 0.657 4.195 0 1.46-0.23 2.868-0.657 4.195a30.696 30.696 0 0 1 4.391 2.424C4.92 16.494 5.2 14.278 5.2 12c0-2.278-0.28-4.494-0.809-6.619z"/></svg>