<svg fill="#DD052B" role="img" viewBox="0 0 195 24" xmlns="http://www.w3.org/2000/svg"><title>Mahindra</title><path d="M42.031 6.425H55.261a5.421 5.421 0 0 1 5.454 5.34v12.211H40.931a3.301 3.301 0 0 1-3.318-3.269v-4.24a3.075 3.075 0 0 1 3.1-3.035h10.956l-1.166 2.476h-8.075c-0.348 0-0.744 0.275-0.744 0.656v3.333c0 0.38 0.396 0.664 0.744 0.664h13.999v-8.011c0-1.546-1.367-2.735-2.889-2.735H40.413l1.618-3.39z m108.648-6.368v23.943h-19.283a3.301 3.301 0 0 1-3.317-3.261v-8.982a5.421 5.421 0 0 1 5.461-5.332h10.981l-1.619 3.414h-7.67c-1.521 0-2.889 1.189-2.889 2.727v7.364c0 0.372 0.396 0.647 0.744 0.647h13.303v-20.52h4.289zM82.935 24h4.264v-12.218a5.421 5.421 0 0 0-5.454-5.333H72.675l-1.619 3.415h8.99c1.521 0 2.889 1.189 2.889 2.727v11.409z m-17.761-23.951v23.951h4.264v-23.951h-4.264z m-35.604 23.951h4.265v-12.218a5.421 5.421 0 0 0-5.454-5.333H0.4v17.551h4.256v-13.505c0-0.38 0.405-0.655 0.752-0.656h8.82c0.348 0 0.744 0.275 0.745 0.656v13.505h4.264v-13.505c0-0.38 0.396-0.655 0.745-0.656h6.7c1.521 0 2.889 1.189 2.888 2.727v11.434z m143.385-17.575H162.234a5.421 5.421 0 0 0-5.454 5.34v12.211h4.264v-11.41c0-1.537 1.367-2.727 2.889-2.727h7.396l1.618-3.414z m-54.643 0a5.421 5.421 0 0 1 5.462 5.34v12.211h-4.265v-11.41c0-1.537-1.376-2.727-2.888-2.727h-10.261v14.161h-4.264v-17.551c5.381 0 10.786-0.024 16.216-0.024z m-25.813 1.108l4.265-2.476v18.919h-4.257v-16.443z m4.289-4.927v-2.606h-4.256v5.057l4.256-2.451z m79.153 3.819h13.206a5.421 5.421 0 0 1 5.453 5.34v12.211h-19.784a3.301 3.301 0 0 1-3.317-3.269v-4.24a3.075 3.075 0 0 1 3.099-3.035h10.956l-1.165 2.476h-8.076c-0.348 0-0.744 0.275-0.744 0.656v3.333c0 0.38 0.396 0.664 0.744 0.664h13.999v-8.011c0-1.546-1.367-2.735-2.889-2.735h-13.125l1.643-3.39z"/></svg>