<svg fill="#22D172" role="img" viewBox="0 0 22 24" xmlns="http://www.w3.org/2000/svg"><title>Mailtrap</title><path d="M4.371 17.607L2.335 18.815c-0.276 0.182-0.15 0.494 0 0.557l7.91 4.432c0.467 0.262 1.043 0.262 1.51 0l8.014-4.491c0.243-0.144 0.203-0.436 0-0.535l-2.153-1.163c-0.182-0.12-0.587-0.08-0.731 0.017l-5.13 2.875c-0.467 0.262-1.043 0.262-1.51 0l-5.176-2.9c-0.193-0.119-0.499-0.112-0.698 0ZM10.245 0.196c0.467-0.262 1.043-0.262 1.51 0l6.37 3.569c0.254 0.129 0.277 0.474 0 0.63-0.42 0.234-0.983 0.549-1.451 0.809-0.546 0.304-1.211 0.304-1.756-0.002l-3.163-1.772c-0.467-0.262-1.043-0.262-1.51 0l-3.167 1.774c-0.546 0.306-1.211 0.306-1.757 0.002-0.486-0.271-1.075-0.6-1.5-0.836-0.236-0.101-0.285-0.401 0-0.574L10.245 0.196Zm10.724 5.372c0.467 0.262 0.755 0.746 0.755 1.27v10.325c0 0.511-0.32 0.606-0.661 0.428l-2.359-1.273V9.376l-6.949 3.893c-0.467 0.262-1.043 0.262-1.51 0l-6.949-3.893v6.941L1.153 17.589c-0.255 0.162-0.877 0.214-0.877-0.426V6.838c0-0.524 0.288-1.007 0.755-1.27 0.752-0.394 1.528 0 1.529 0l8.44 4.74 8.427-4.74s0.748-0.451 1.542 0Z"/></svg>