<svg fill="#004788" role="img" viewBox="0 0 25 24" xmlns="http://www.w3.org/2000/svg"><title>mail.com</title><path d="M18.517 0H0.5V15.668c0 1.406 0.96 2.571 2.246 2.915L24.5 24.017V6c0.017-3.309-2.674-6-5.983-6z m3 15.668H18.5V8.794c0-0.668-0.223-2.228-2.212-2.228-1.32 0-2.28 0.908-2.28 2.228V15.668h-3.017V8.794c0-0.668-0.206-2.228-2.194-2.228-1.354 0-2.28 0.908-2.28 2.228V15.668H3.5V3.617h5.297c1.594 0 2.897 0.634 3.737 1.663 0.891-1.029 2.212-1.663 3.737-1.663 3.291 0 5.229 2.177 5.229 5.246l0.017 6.806z"/></svg>