<svg fill="#265A8F" role="img" viewBox="0 0 57 24" xmlns="http://www.w3.org/2000/svg"><title>Major League Hacking</title><path d="M56.449 0c0.15 0 0.283 0.047 0.38 0.15a0.534 0.534 0 0 1 0.169 0.382v18.471a0.506 0.506 0 0 1-0.167 0.383 0.527 0.527 0 0 1-0.382 0.152H52.414a0.541 0.541 0 0 1-0.548-0.532v-6.448a0.489 0.489 0 0 0-0.15-0.366c-0.1-0.1-0.216-0.133-0.385-0.133h-5.645a0.594 0.594 0 0 0-0.382 0.133 0.503 0.503 0 0 0-0.166 0.366v6.445c0 0.349-0.185 0.534-0.551 0.535h-3.997c-0.368 0-0.551-0.185-0.551-0.535V0.532c0-0.349 0.183-0.532 0.551-0.532h3.997c0.366 0 0.549 0.183 0.548 0.532v6.246c0 0.351 0.185 0.534 0.551 0.534h5.645c0.152 0 0.285-0.05 0.385-0.149a0.527 0.527 0 0 0 0.15-0.385v-6.246a0.499 0.499 0 0 1 0.166-0.382 0.527 0.527 0 0 1 0.382-0.15z m-19.887 14.741c0.15 0 0.283 0.047 0.366 0.149a0.527 0.527 0 0 1 0.15 0.383v3.681a0.556 0.556 0 0 1-0.15 0.382 0.489 0.489 0 0 1-0.366 0.152h-12.942c-0.366 0-0.549-0.185-0.549-0.534V0.532c0-0.349 0.183-0.532 0.549-0.532h3.966c0.366 0 0.546 0.183 0.546 0.532v13.727a0.451 0.451 0 0 0 0.166 0.365c0.102 0.1 0.235 0.133 0.385 0.133h7.879z m-18.404-14.491c0.382 0.166 0.715 0.399 0.997 0.683 0.285 0.283 0.499 0.617 0.684 0.998 0.166 0.385 0.249 0.8 0.249 1.235v15.788a0.489 0.489 0 0 1-0.149 0.365 0.489 0.489 0 0 1-0.366 0.152H15.792a0.43 0.43 0 0 1-0.351-0.152 0.549 0.549 0 0 1-0.133-0.365V4.598H12.261v14.356a0.549 0.549 0 0 1-0.133 0.365 0.454 0.454 0 0 1-0.349 0.152H8.347a0.489 0.489 0 0 1-0.368-0.152 0.489 0.489 0 0 1-0.149-0.365V4.598H4.783v14.356c0 0.349-0.166 0.518-0.518 0.517H0.518c-0.349 0-0.515-0.166-0.516-0.517V0.516c0-0.349 0.166-0.515 0.516-0.516H16.911c0.449 0 0.848 0.083 1.249 0.25z m38.806 22.118c0.017 0.017 0.017 0.033 0.017 0.048v1.069c0 0.066-0.017 0.133-0.033 0.199-0.033 0.066-0.066 0.116-0.1 0.166a0.347 0.347 0 0 1-0.166 0.1c-0.066 0.033-0.133 0.033-0.2 0.033h-1.517a0.836 0.836 0 0 1-0.2-0.033c-0.066-0.033-0.116-0.066-0.166-0.1a0.347 0.347 0 0 1-0.1-0.166c-0.033-0.066-0.033-0.133-0.033-0.199v-2c0-0.066 0.017-0.133 0.033-0.199 0.017-0.066 0.066-0.119 0.1-0.167a0.347 0.347 0 0 1 0.166-0.099c0.066-0.033 0.133-0.033 0.2-0.034h1.781c0.019 0 0.052 0 0.052 0.017 0.017 0.017 0.017 0.033 0.017 0.047v0.57c0 0.014 0 0.047-0.017 0.048-0.017 0.017-0.033 0.017-0.05 0.017h-1.432c-0.017 0-0.05 0-0.05 0.016-0.017 0.017-0.017 0.033-0.016 0.05v1.401c0 0.017 0 0.033 0.016 0.048 0.017 0.019 0.033 0.019 0.048 0.019h0.85c0.017 0 0.033 0 0.05-0.017 0.017-0.017 0.017-0.033 0.017-0.052v-0.748c0-0.017 0-0.05 0.016-0.05 0.017-0.017 0.033-0.017 0.05-0.017h0.601c0.033 0 0.05 0.017 0.066 0.033z m-3.481-1.348c0.066 0.033 0.119 0.066 0.166 0.099a0.347 0.347 0 0 1 0.1 0.167c0.033 0.066 0.033 0.133 0.033 0.199v2.432c0 0.017 0 0.05-0.016 0.05-0.017 0.017-0.033 0.017-0.048 0.016h-0.601c-0.017 0-0.033 0-0.05-0.016-0.017-0.017-0.017-0.033-0.016-0.048v-2.118c0-0.017 0-0.033-0.017-0.048-0.017-0.019-0.033-0.019-0.05-0.019h-0.85c-0.017 0-0.05 0-0.05 0.017s-0.017 0.033-0.016 0.05v2.116c0 0.05-0.033 0.083-0.084 0.083h-0.6a0.081 0.081 0 0 1-0.084-0.083v-2.85c0-0.047 0.033-0.081 0.084-0.081h1.949c0.033-0.017 0.1 0 0.15 0.034zM50.586 23.898c0 0.05-0.033 0.083-0.083 0.083h-0.601a0.081 0.081 0 0 1-0.083-0.083v-2.85c0-0.047 0.033-0.081 0.083-0.081h0.601c0.047 0 0.083 0.033 0.083 0.083z m-2.316-1.665c-0.017 0.017-0.017 0.017 0 0.033l0.998 1.648c0.019 0.017 0.019 0.033 0 0.05-0.014 0.017-0.014 0.017-0.048 0.017h-0.717c-0.017 0-0.047 0-0.067-0.017l-0.047-0.047-0.651-1.169c-0.017-0.017-0.017-0.017-0.016 0l-0.352 0.383c-0.017 0.017-0.033 0.036-0.033 0.069-0.017 0.033-0.017 0.047-0.017 0.083v0.631c0 0.05-0.033 0.083-0.083 0.084h-0.582c-0.05 0-0.083-0.033-0.083-0.084v-2.849c0-0.047 0.033-0.081 0.083-0.081h0.599c0.05 0 0.083 0.033 0.083 0.083v1.282l1.116-1.299a0.23 0.23 0 0 1 0.067-0.049c0.033-0.017 0.05-0.017 0.066-0.017h0.717c0.017 0 0.033 0 0.034 0.017s0 0.033-0.017 0.047z m-3.913-0.518c-0.017 0.017-0.017 0.033-0.017 0.05v1.401c0 0.017 0 0.033 0.017 0.048 0.017 0.019 0.033 0.019 0.047 0.019h1.385c0.017 0 0.05 0 0.049 0.017 0.017 0.017 0.017 0.033 0.017 0.047v0.57c0 0.014 0 0.047-0.017 0.047-0.017 0.017-0.033 0.017-0.049 0.017h-1.715a0.836 0.836 0 0 1-0.202-0.033 1.465 1.465 0 0 1-0.166-0.1 0.347 0.347 0 0 1-0.1-0.166c-0.033-0.066-0.033-0.133-0.033-0.2v-2.016c0-0.066 0.017-0.133 0.033-0.199a1.278 1.278 0 0 1 0.1-0.167 0.347 0.347 0 0 1 0.166-0.099c0.066-0.033 0.135-0.033 0.202-0.034h1.715c0.017 0 0.05 0 0.049 0.017 0.017 0.017 0.017 0.033 0.017 0.048v0.57c0 0.014 0 0.047-0.017 0.047-0.017 0.017-0.033 0.017-0.049 0.017h-1.383c-0.017 0.083-0.033 0.1-0.049 0.099z m-1.948-0.748c0.064 0 0.131 0.017 0.197 0.034 0.066 0.033 0.119 0.066 0.167 0.099a0.347 0.347 0 0 1 0.102 0.167 0.834 0.834 0 0 1 0.033 0.199v2.432c0 0.017 0 0.05-0.017 0.05-0.017 0.017-0.033 0.017-0.05 0.016h-0.6c-0.017 0-0.05 0-0.05-0.016-0.017-0.017-0.017-0.033-0.017-0.048v-0.769c0-0.017 0-0.047-0.017-0.048-0.017-0.019-0.033-0.019-0.049-0.019h-0.851c-0.017 0-0.047 0-0.047 0.017-0.019 0.017-0.019 0.033-0.019 0.05v0.767c0 0.05-0.033 0.083-0.083 0.083h-0.599c-0.05 0-0.083-0.033-0.083-0.083v-2.432c0-0.066 0.017-0.133 0.033-0.199a1.465 1.465 0 0 1 0.1-0.167 0.347 0.347 0 0 1 0.166-0.099c0.066-0.033 0.133-0.033 0.2-0.034z m-0.252 1.432v-0.75h-1.016v0.75z m-2.531-1.432c0.017 0 0.05 0 0.05 0.017 0.017 0.017 0.017 0.033 0.016 0.047v2.85c0 0.017 0 0.05-0.016 0.05-0.017 0.017-0.033 0.017-0.05 0.017h-0.601c-0.017 0-0.047 0-0.047-0.017-0.019-0.017-0.019-0.033-0.019-0.047v-1.003c0-0.017 0-0.033-0.017-0.047-0.017-0.019-0.033-0.019-0.048-0.019h-0.85c-0.017 0-0.05 0-0.05 0.017-0.017 0.017-0.017 0.033-0.016 0.049v1c0 0.05-0.033 0.083-0.083 0.083h-0.601a0.081 0.081 0 0 1-0.083-0.083v-2.85c0-0.047 0.033-0.081 0.083-0.08h0.601c0.047 0 0.083 0.033 0.083 0.083v0.966c0 0.047 0.033 0.083 0.083 0.083h0.848c0.017 0 0.033 0 0.05-0.016 0.017-0.017 0.017-0.033 0.016-0.05v-0.967c0-0.017 0-0.05 0.017-0.049 0.017-0.017 0.033-0.017 0.052-0.017h0.582z m-4.614 0.034c0.017 0.017 0.017 0.033 0.016 0.047v0.551c0 0.017 0 0.033-0.016 0.05-0.017 0.017-0.033 0.017-0.048 0.017h-1.434c-0.017 0-0.017 0-0.017 0.016v0.468c0 0.017 0 0.017 0.017 0.017h1.235c0.014 0 0.031 0 0.047 0.016 0.017 0.017 0.017 0.033 0.017 0.048v0.434c0 0.017 0 0.05-0.017 0.05-0.017 0.017-0.033 0.017-0.047 0.017h-1.235c-0.017 0-0.017 0-0.017 0.016v0.468c0 0.017 0 0.017 0.017 0.017h1.434c0.014 0 0.047 0 0.048 0.017 0.017 0.017 0.017 0.033 0.016 0.047v0.534c0 0.017 0 0.05-0.016 0.05-0.017 0.017-0.033 0.017-0.048 0.017h-2.135a0.081 0.081 0 0 1-0.083-0.083v-2.848c0-0.017 0-0.05 0.017-0.05 0.017-0.017 0.033-0.017 0.05-0.016h2.132a0.313 0.313 0 0 0 0.067 0.1z m-2.981 0c0.017 0.017 0.017 0.033 0.017 0.047v2.434a0.836 0.836 0 0 1-0.033 0.2c-0.033 0.066-0.066 0.116-0.1 0.166a0.347 0.347 0 0 1-0.166 0.1c-0.066 0.033-0.133 0.033-0.202 0.033h-1.515a0.836 0.836 0 0 1-0.2-0.033c-0.066-0.033-0.116-0.066-0.166-0.1a0.347 0.347 0 0 1-0.1-0.166c-0.033-0.066-0.033-0.133-0.033-0.2v-2.432c0-0.05 0.033-0.083 0.083-0.083h0.599c0.05 0 0.083 0.033 0.083 0.083v2.114c0 0.019 0 0.036 0.016 0.052 0.017 0.017 0.033 0.017 0.053 0.017h0.847c0.017 0 0.033 0 0.05-0.017 0.017-0.017 0.017-0.033 0.017-0.05v-2.116c0-0.017 0-0.05 0.016-0.049 0.017-0.017 0.033-0.017 0.05-0.017h0.601c0.047-0.017 0.066 0 0.083 0.017z m-3.165 1.365c0.017 0.017 0.017 0.033 0.016 0.048v1.068a0.836 0.836 0 0 1-0.033 0.2c-0.033 0.066-0.066 0.116-0.1 0.166a0.347 0.347 0 0 1-0.166 0.1c-0.066 0.033-0.133 0.033-0.199 0.033h-1.516a0.836 0.836 0 0 1-0.199-0.033 1.135 1.135 0 0 1-0.166-0.1 0.347 0.347 0 0 1-0.102-0.166c-0.033-0.066-0.033-0.133-0.034-0.2v-1.999c0-0.066 0.017-0.133 0.034-0.2 0.017-0.066 0.066-0.119 0.099-0.166a0.347 0.347 0 0 1 0.167-0.1c0.069-0.033 0.135-0.033 0.201-0.033h1.782c0.017 0 0.05 0 0.049 0.017 0.017 0.017 0.017 0.033 0.017 0.047v0.57c0 0.014 0 0.047-0.017 0.048-0.017 0.017-0.033 0.017-0.047 0.016h-1.434c-0.017 0-0.05 0-0.05 0.017-0.017 0.017-0.017 0.033-0.017 0.05v1.401c0 0.017 0 0.033 0.017 0.047 0.017 0.019 0.033 0.019 0.05 0.019h0.85c0.017 0 0.033 0 0.047-0.016 0.019-0.017 0.019-0.033 0.019-0.053v-0.748c0-0.017 0-0.05 0.017-0.05 0.017-0.017 0.033-0.017 0.047-0.016h0.601c0.017 0 0.05 0.017 0.067 0.033z m-3.681-1.401c0.066 0 0.133 0.019 0.199 0.036 0.069 0.033 0.119 0.066 0.166 0.099a0.347 0.347 0 0 1 0.103 0.167 0.836 0.836 0 0 1 0.033 0.199v2.432c0 0.017 0 0.05-0.017 0.05-0.017 0.017-0.033 0.017-0.05 0.016h-0.617c-0.017 0-0.047 0-0.048-0.016-0.019-0.017-0.019-0.033-0.019-0.048v-0.769c0-0.017 0-0.047-0.016-0.048-0.017-0.019-0.033-0.019-0.048-0.019h-0.869c-0.017 0-0.047 0-0.047 0.017-0.019 0.017-0.019 0.033-0.019 0.05v0.767c0 0.05-0.033 0.083-0.084 0.083h-0.598c-0.05 0-0.083-0.033-0.083-0.083v-2.432c0-0.066 0.017-0.133 0.033-0.199a1.465 1.465 0 0 1 0.1-0.167 0.347 0.347 0 0 1 0.166-0.099c0.066-0.033 0.133-0.033 0.2-0.034z m-0.266 1.434v-0.75h-1.017v0.75z m-2.465-1.401c0.017 0.019 0.017 0.036 0.016 0.052v0.549c0 0.017 0 0.033-0.016 0.05-0.017 0.017-0.033 0.017-0.048 0.017H20.972c-0.017 0-0.017 0-0.017 0.016v0.468c0 0.017 0 0.017 0.017 0.017h1.232c0.017 0 0.033 0 0.05 0.016 0.017 0.017 0.017 0.033 0.017 0.048v0.434c0 0.017 0 0.05-0.017 0.05-0.017 0.017-0.033 0.017-0.05 0.017h-1.235c-0.014 0-0.014 0-0.014 0.016v0.468c0 0.017 0 0.017 0.017 0.017h1.434c0.014 0 0.047 0 0.048 0.017 0.017 0.017 0.017 0.033 0.016 0.047v0.534c0 0.017 0 0.05-0.016 0.05-0.017 0.017-0.033 0.017-0.048 0.017h-2.135a0.081 0.081 0 0 1-0.083-0.083v-2.848c0-0.017 0-0.05 0.017-0.05 0.017-0.017 0.033-0.017 0.05-0.016h2.132a0.313 0.313 0 0 0 0.067 0.1z m-2.781 2.252c0.017 0 0.033 0 0.047 0.016 0.019 0.017 0.019 0.033 0.019 0.048v0.57c0 0.014 0 0.047-0.016 0.047-0.017 0.017-0.033 0.017-0.05 0.017h-1.85a0.081 0.081 0 0 1-0.083-0.083v-2.85c0-0.047 0.033-0.081 0.083-0.081h0.601c0.047 0 0.083 0.033 0.083 0.083v2.114c0 0.017 0 0.036 0.016 0.052 0.017 0.017 0.033 0.017 0.05 0.017h1.1z m-4.047 0.664c0.017 0.017 0.017 0.033 0 0.05-0.017 0.017-0.017 0.017-0.05 0.017H14.892c-0.017 0-0.05 0-0.066-0.017l-0.05-0.047-0.451-0.819c0-0.017-0.014-0.017-0.031-0.017H13.776c-0.017 0-0.017 0-0.016 0.017v0.8c0 0.05-0.033 0.083-0.084 0.083h-0.598c-0.05 0-0.085-0.033-0.085-0.083v-2.85c0-0.047 0.036-0.081 0.085-0.081h1.947c0.066 0 0.133 0.017 0.2 0.034 0.066 0.033 0.119 0.066 0.166 0.099a0.347 0.347 0 0 1 0.102 0.167 0.423 0.423 0 0 1 0.033 0.199v1.133a0.499 0.499 0 0 1-0.102 0.299 0.546 0.546 0 0 1-0.249 0.183h-0.017c-0.017 0-0.017 0.017-0.016 0.033v0.017z m-0.85-2.248h-1.033v0.733h1.033z m-2.947-0.699c0.066 0 0.133 0.017 0.199 0.034 0.066 0.033 0.116 0.066 0.167 0.099a0.347 0.347 0 0 1 0.099 0.167 0.836 0.836 0 0 1 0.034 0.199v2c0 0.066-0.017 0.133-0.034 0.199-0.033 0.066-0.066 0.116-0.099 0.166a0.347 0.347 0 0 1-0.167 0.1c-0.066 0.033-0.133 0.033-0.199 0.033h-1.52c-0.066 0-0.133-0.017-0.2-0.033-0.066-0.033-0.116-0.066-0.166-0.1a0.347 0.347 0 0 1-0.099-0.166c-0.033-0.066-0.033-0.133-0.034-0.199v-2c0-0.066 0.017-0.133 0.034-0.199 0.017-0.066 0.066-0.119 0.099-0.167a0.347 0.347 0 0 1 0.166-0.099c0.066-0.033 0.133-0.033 0.2-0.034z m-0.269 0.732H10.546v1.551h1.014z m-2.446-0.698c0.014 0.017 0.014 0.033 0.015 0.047v2.434c0 0.066-0.017 0.133-0.034 0.2-0.033 0.066-0.066 0.116-0.099 0.166a0.347 0.347 0 0 1-0.167 0.1c-0.066 0.033-0.133 0.033-0.199 0.033h-1.299a0.836 0.836 0 0 1-0.2-0.033 1.278 1.278 0 0 1-0.166-0.1 0.347 0.347 0 0 1-0.099-0.166c-0.033-0.066-0.033-0.133-0.034-0.2v-0.916c0-0.05 0.033-0.083 0.083-0.084h0.599c0.05 0 0.083 0.033 0.083 0.084v0.617c0 0.017 0 0.033 0.017 0.048 0.017 0.019 0.033 0.019 0.049 0.019h0.618c0.017 0 0.047 0 0.047-0.017 0.019-0.017 0.019-0.033 0.019-0.05v-2.116c0-0.017 0-0.05 0.017-0.05 0.017-0.017 0.033-0.017 0.048-0.016h0.6c0.05-0.033 0.083-0.017 0.1 0z m-3.215-0.034c0.066 0 0.133 0.017 0.199 0.034 0.066 0.033 0.116 0.066 0.167 0.099a0.347 0.347 0 0 1 0.099 0.167 0.836 0.836 0 0 1 0.034 0.199v2.432c0 0.017 0 0.05-0.017 0.05-0.017 0.017-0.033 0.017-0.047 0.016h-0.601c-0.017 0-0.05 0-0.05-0.016-0.017-0.017-0.017-0.033-0.017-0.048v-0.769c0-0.017 0-0.047-0.016-0.048-0.017-0.019-0.033-0.019-0.05-0.019h-0.85c-0.017 0-0.05 0-0.05 0.017-0.017 0.017-0.017 0.033-0.017 0.05v0.767c0 0.05-0.033 0.083-0.083 0.083h-0.601a0.081 0.081 0 0 1-0.083-0.083v-2.432c0-0.066 0.017-0.133 0.033-0.199a1.465 1.465 0 0 1 0.1-0.167 0.347 0.347 0 0 1 0.166-0.099c0.066-0.033 0.135-0.033 0.202-0.034z m-0.266 1.432v-0.75h-1.016v0.75z m-2.75-1.382c0.066 0.033 0.119 0.066 0.166 0.1a0.347 0.347 0 0 1 0.102 0.166 0.836 0.836 0 0 1 0.034 0.2v2.431c0 0.017 0 0.05-0.017 0.05-0.017 0.017-0.033 0.017-0.05 0.017h-0.601c-0.017 0-0.033 0-0.05-0.017-0.017-0.017-0.017-0.033-0.016-0.047v-2.202H1.969v2.199c0 0.017 0 0.05-0.017 0.05-0.017 0.017-0.033 0.017-0.05 0.017H1.351c-0.017 0-0.05 0-0.05-0.017-0.017-0.017-0.017-0.033-0.016-0.047v-2.202H0.803v2.199c0 0.05-0.033 0.083-0.083 0.084H0.119a0.081 0.081 0 0 1-0.083-0.084v-2.849c0-0.047 0.033-0.081 0.083-0.081h2.598c0.05-0.017 0.119 0 0.166 0.033Z"/></svg>