<svg fill="#6D00CC" role="img" viewBox="0 0 34 24" xmlns="http://www.w3.org/2000/svg"><title>Make</title><path d="M18.948 0c-0.381 0-0.721 0.268-0.799 0.656L13.965 21.861a0.816 0.816 0 0 0 0.64 0.957l5.78 1.166a0.819 0.819 0 0 0 0.962-0.642l4.183-21.202a0.816 0.816 0 0 0-0.64-0.957l-5.781-1.166a0.831 0.831 0 0 0-0.16-0.017z m-8.294 0.138a0.813 0.813 0 0 0-0.728 0.449L0.15 20.042a0.812 0.812 0 0 0 0.361 1.092l5.269 2.65a0.816 0.816 0 0 0 1.094-0.365l9.776-19.451a0.814 0.814 0 0 0-0.361-1.096L11.018 0.226a0.806 0.806 0 0 0-0.364-0.088z m16.571 0.163a0.813 0.813 0 0 0-0.813 0.813v21.773c0 0.449 0.364 0.816 0.813 0.816h5.897a0.819 0.819 0 0 0 0.816-0.816V1.114a0.816 0.816 0 0 0-0.816-0.813Z"/></svg>