<svg fill="#FC5757" role="img" viewBox="0 0 85 24" xmlns="http://www.w3.org/2000/svg"><title>Malt</title><path d="M71.263 0c-0.242 0-1 0.091-1.699 0.397-1.516 0.635-2.095 1.092-2.095 2.035v17.63c0 0.972 0.913 1.246 2.579 1.246 1.639 0 2.278-0.305 2.278-1.246V0.972c0-0.607-0.397-0.972-1.063-0.972z m12.291 17.209c-1.211 0.305-1.579 0.397-2 0.396-0.516 0-0.702-0.154-0.702-0.702v-7.584h2.765c0.727 0 1-0.274 1.001-1.001 0-0.607-0.274-0.913-1.001-0.912h-2.762v-2.945c0-0.909-0.305-1.274-0.941-1.274-0.607 0-1.457 0.548-3.278 2.095-1.853 1.579-2.913 2.611-2.913 3.338 0 0.425 0.302 0.698 0.786 0.699h1.489v8.195c0 2.397 1.183 3.791 3.246 3.79 1.369 0 2.369-0.512 3.552-1.425 1.092-0.849 1.79-1.516 1.79-2.091 0-0.488-0.362-0.762-1.032-0.579z m-53.384-10.804c-0.456 0-1 0.091-1.699 0.393-1.52 0.667-2.095 1.095-2.095 2.036v11.232c0 0.969 0.913 1.242 2.58 1.242 1.639 0 2.278-0.305 2.278-1.246v-12.684c0-0.607-0.397-0.972-1.064-0.973Zm6.374 0c-1.246 0-2.369 0.425-3.461 1.274-0.607 0.484-1.123 1.032-1.123 1.489 0 0.393 0.274 0.607 0.667 0.607 0.667 0 0.881-0.274 1.46-0.274 0.576 0 0.877 0.607 0.877 1.671v8.89c0 0.972 0.913 1.246 2.58 1.246 1.639 0 2.278-0.305 2.278-1.246v-9.743c0-2.306-1.369-3.913-3.278-3.914z m8.529 0c-1.183 0-2.429 0.425-3.521 1.274-0.607 0.484-1.123 1.032-1.123 1.489 0 0.393 0.274 0.607 0.667 0.607 0.667 0 0.877-0.274 1.516-0.274s0.941 0.607 0.941 1.671v8.89c0 0.972 0.913 1.246 2.58 1.246 1.639 0 2.278-0.305 2.278-1.246v-9.743c0-2.306-1.369-3.913-3.338-3.914z m18.724 0a4.528 4.528 0 0 0-1.698 0.393c-0.913 0.397-1.397 0.702-1.639 1.096-0.913-1.063-2.095-1.397-3.429-1.397-3.917 0-6.707 3.306-6.708 8.013 0 3.945 2.123 6.858 5.128 6.858 0.913 0 1.73-0.365 2.703-1.274 0.758-0.702 1.123-1.155 1.123-1.58a0.491 0.491 0 0 0-0.516-0.516c-0.425 0-0.881 0.365-1.46 0.365-1.242 0-2.092-1.913-2.092-4.738 0-2.818 1.123-4.731 2.822-4.731 1.123 0 1.973 0.849 1.972 2.306v8.862c0 0.972 0.913 1.246 2.58 1.246 1.639 0 2.278-0.305 2.278-1.246v-12.684c0-0.607-0.397-0.972-1.064-0.973ZM12.663 17.486l-0.737 0.737 2.173 2.169c1.067 1.067 2.773 2.099 4.366 0.505 1.19-1.193 0.913-2.439 0.256-3.439-0.211 0.014-6.058 0.028-6.058 0.028z m-3.38-8.16l0.737-0.738-2.134-2.13c-1.067-1.063-2.685-2.18-4.362-0.502-1.232 1.228-0.958 2.429-0.306 3.405Zm10.038 1.46c-0.13 0.151-5.303 5.349-5.303 5.349h4.05c1.509 0 3.443-0.354 3.443-2.728 0-1.741-1.039-2.397-2.19-2.621z m-11.385-0.109H3.826c-1.509 0-3.443 0.474-3.444 2.73 0 1.681 1.078 2.373 2.25 2.615 0.14-0.161 5.303-5.345 5.304-5.345z m5.208 10.67l-2.169-2.169-2.134 2.13a9.171 9.171 0 0 1-0.481 0.449c0.246 1.169 0.934 2.243 2.615 2.243s2.373-1.078 2.615-2.25c-0.151-0.13-0.298-0.256-0.446-0.403zM8.841 5.507l2.134 2.13 2.169-2.169a7.897 7.897 0 0 1 0.449-0.414c-0.228-1.148-0.881-2.187-2.622-2.186s-2.394 1.042-2.618 2.193c0.161 0.14 0.323 0.281 0.492 0.446z m9.624 0.411c-1.597-1.593-3.299-0.562-4.366 0.505l-10.073 10.073c-1.063 1.063-2.18 2.685-0.502 4.363 1.678 1.678 3.299 0.562 4.362-0.502l10.073-10.073c1.067-1.067 2.099-2.773 0.506-4.366Z"/></svg>