<svg fill="#6D28D9" role="img" viewBox="0 0 27 24" xmlns="http://www.w3.org/2000/svg"><title>Mamba UI</title><path d="M4.777 16.201c1.429 0.382 2.737 0.848 4.288 1.143a33.68 33.68 0 0 0 0.443 6.656c-1.862-2.093-4.537-5.688-4.731-7.799Zm17.373 0c-1.38 0.382-2.643 0.848-4.141 1.143a34.842 34.842 0 0 1-0.428 6.656c1.803-2.093 4.388-5.688 4.569-7.799zM7.779 0c2.541 4.572 10.622 3.979 12.566 0a6.824 6.824 0 0 1 2.564 1.52c-0.095 3.955-2.563 5.371-2.564 5.371l0.086 0.918c2.814-0.815 3.862-0.727 3.658-5.507 1.414 1.161 2.693 3.363 2.561 4.78-0.137 1.471-2.234 5.896-1.974 5.818a96.227 96.227 0 0 1-9.261 3.514 3.214 3.214 0 0 0-2.131-1.834 14.016 14.016 0 0 0-1.956 1.952c-2.574-0.935-4.851-1.974-7.232-2.984l-1.87-0.689-0.851-2.182c-1.143-2.828-1.662-4.403 0.17-6.886 0.399-0.539 1.094-1.711 1.707-1.968-0.12 4.052-1.342 5.981 3.228 5.985l0.085-0.918s-1.984-0.248-2.467-5.371z m2.273 12.285c-0.227 0.305-0.369 0.382-0.595 0.689 0.057 0.153-0.227 0.191-0.171 0.344A3.142 3.142 0 0 0 10.221 14.58a2.922 2.922 0 0 0 1.87-1.262c-0.226-0.482-1.582-1.275-2.039-1.032Zm6.21 0c-0.454 0.305-0.992 0.727-1.446 1.033 0.141 0.23 0.879 0.803 1.021 1.033 0.428 0.258 0.324 0.469 0.851 0.229a1.537 1.537 0 0 0 0.935-1.376c-0.226-0.268-0.454-0.65-0.68-0.919Z"/></svg>