<svg fill="#02749C" role="img" viewBox="0 0 28 24" xmlns="http://www.w3.org/2000/svg"><title>MAMP</title><path d="M0.367 9.283c0.281-1.942 2.451-7.997 8.541-9.144 3.595-0.678 8.027 1.185 11.138 4.34-1.552 1.065-2.589 1.985-3.373 3.103 0.586 2.168 2.312 3.051 3.527 3.42-1.346-0.815-2.197-1.582-2.723-3.222 2.88-3.424 5.964-4.531 6.224-4.559 2.409 1.922 4.109 5.426 4.048 9.116-0.071 4.272-2.395 8.673-5.059 10.451-0.364 0.173-1.207-0.286-1.322-0.787 0.545-1.266 1.835-4.349 1.994-6.653 0.15-2.209-1.313-3.508-2.542-1.91-1.706 2.858-2.451 6.408-3.196 10.237-1.255 0.359-3.383 0.449-4.304-0.041-0.116-2.37 0.437-6.418-1.136-7.838-0.674-0.611-1.34-0.327-1.79 0.235-1.137 1.406-1.114 5.058-0.893 7.424-1.271 0.786-3.426 0.622-4.789 0.134-0.547-3.718-1.83-8.253-2.878-11.722-0.292 1.393-0.434 3.053-0.39 4.478-0.7-0.571-1.499-3.571-1.077-7.062z"/></svg>