<svg fill="#E40045" role="img" viewBox="0 0 43 24" xmlns="http://www.w3.org/2000/svg"><title>MAN</title><path d="M19.671 17.27h3.672L27.697 23.998h-3.679l-0.471-0.732h-4.08l-0.472 0.734H15.318z m1.836 2.808l-0.82 1.273h1.64l-0.82-1.275zM0.009 21.62C0.009 9.678 9.63 0 21.5 0s21.491 9.68 21.491 21.622c0 0.804-0.043 1.597-0.129 2.378H40.448c0.097-0.779 0.147-1.572 0.147-2.378 0-10.609-8.55-19.209-19.095-19.21-10.547 0-19.093 8.6-19.093 19.21 0 0.806 0.048 1.599 0.143 2.378H0.14A21.982 21.946 90 0 1 0.009 21.62z m4.006-4.352h3.278l2.185 2.199 2.185-2.197h3.279V23.998H11.405v-2.471l-1.926 1.938-1.927-1.938v2.471H4.015v-6.728z m24.034 0h3.451l3.887 2.901v-2.901h3.537V23.998h-3.478l-3.861-2.874V23.998h-3.537Z"/></svg>