<svg fill="#EF2929" role="img" viewBox="0 0 25 24" xmlns="http://www.w3.org/2000/svg"><title>ManageIQ</title><path d="M12.596 0C6.165-0.006 0.948 5.203 0.942 11.634v0.022c0 2.086 0.552 4.039 1.508 5.731l2.893-2.892a7.75 7.75 0 0 1-0.544-2.839c0-4.298 3.499-7.795 7.797-7.795s7.797 3.497 7.797 7.795-3.499 7.797-7.797 7.797a7.75 7.75 0 0 1-2.622-0.464L7.051 21.913a11.612 11.612 0 0 0 5.545 1.399c2.335 0 4.505-0.692 6.328-1.871l2.413 2.412L24.601 20.584l-2.369-2.369c1.273-1.868 2.017-4.124 2.017-6.56C24.258 5.212 19.006-0.022 12.597 0.001L12.596 0z m0 9.418c-1.235 0-2.233 0.999-2.233 2.236s0.997 2.234 2.233 2.234a2.235 2.235 0 1 0 0-4.47z m-4.276 3.397C8.033 13.099 0.674 20.461 0.399 20.735L3.666 24l7.921-7.921-3.267-3.265v0.001z"/></svg>