<svg fill="#1F305F" role="img" viewBox="0 0 37 24" xmlns="http://www.w3.org/2000/svg"><title>MariaDB Foundation</title><path d="M35.779 0.001c-0.556 0.02-0.395 0.27-1.596 0.566-1.212 0.298-2.68 0.116-3.985 0.664-3.414 1.431-3.966 6.963-8.033 9.102-2.665 1.506-5.385 1.851-7.815 2.613-1.95 0.783-3.164 1.301-4.594 2.534-1.11 0.956-1.381 1.885-2.541 3.087-1.178 1.599-5.638 0.178-6.785 2.184 0.605 0.392 0.955 0.5 2.018 0.361-0.22 0.416-1.617 0.964-1.364 1.578 0 0 3.381 0.616 6.229-1.104 1.328-0.541 2.575-1.685 4.638-1.959 2.676-0.355 5.689 0.562 8.922 0.819-0.669 1.321-1.358 2.101-2.095 3.191-0.229 0.245 0.196 0.462 0.979 0.315 1.411-0.349 2.432-0.727 3.447-1.429 1.322-0.913 1.891-1.747 3.007-3.07 0.97 1.554 4.388 1.897 5.09 0.552-1.306-0.553-1.584-3.429-1.137-4.669 0.527-1.184 0.908-2.855 1.334-4.409 0.385-1.4 0.622-3.537 1.081-4.631 0.55-1.36 1.616-1.784 2.417-2.505 0.801-0.721 1.596-1.322 1.573-2.973-0.009-0.536-0.286-0.833-0.79-0.817z m-0.863 0.67c0.136 0.462 0.348 0.675 1.266 0.759-0.134 1.165-0.913 1.801-1.781 2.412-0.766 0.536-1.605 1.054-2.144 1.894-0.553 0.858-1.432 3.358-2.289 6.263-0.741 2.512-1.604 4.227-3.427 5.732-0.226-0.542 0.256-0.855 0.045-1.35-0.264 0.747-0.84 1.834-1.188 2.499-1.144 2.189-3.04 3.96-5.874 4.461 1.345-1.822 2.691-3.829 2.855-6.968-0.602 0.131-0.651 1.753-1.624 2.349-0.625 0.068-1.498-0.075-2.368-0.18-2.599-0.306-5.218-0.425-7.66 0.361-1.664 0.532-3.548 2.179-4.957 2.79-1.656 0.72-2.224 0.775-4.32 0.712-0.262-0.352 1.509-0.807 1.409-1.576-0.807-0.087-1.277 0.107-1.979-0.211a1.065 1.065 0 0 1 0.336-0.361c1.286-0.888 4.936-0.211 5.913-1.17 0.604-0.59 0.998-1.211 1.408-1.813 0.399-0.584 0.81-1.152 1.435-1.664 0.232-0.188 0.593-0.513 0.86-0.697 1.068-0.729 2.274-1.251 3.573-1.707 1.768-0.622 3.555-0.831 5.441-1.551 1.165-0.446 2.271-0.867 3.302-1.638 0.244-0.182 0.613-0.491 0.828-0.7 3.343-3.301 3.555-7.796 8.154-8.267 0.557-0.057 1.012-0.039 1.428-0.051 0.477-0.015 0.899-0.071 1.358-0.328z m-0.226 0.296c-0.026 0-0.074 0.023-0.14 0.085-0.399 0.41-1.19 1.331-1.476 2.189-0.075 0.233 0.072 0.166 0.124 0.015 0.285-0.879 1.187-1.846 1.462-2.138 0.068-0.078 0.077-0.149 0.03-0.151z m0.121 0.201c-0.026 0.003-0.069 0.033-0.127 0.103-0.337 0.461-0.989 1.159-1.153 2.048-0.041 0.241 0.096 0.155 0.123-0.001 0.16-0.911 0.916-1.671 1.149-1.998 0.056-0.087 0.054-0.158 0.009-0.152z m0.147 0.18c-0.026 0.006-0.066 0.039-0.116 0.115-0.3 0.489-0.693 1.053-0.781 1.95-0.02 0.244 0.11 0.146 0.125-0.012 0.078-0.922 0.571-1.554 0.775-1.901 0.048-0.09 0.042-0.161-0.003-0.15z m0.161 0.137c-0.027 0.008-0.063 0.045-0.107 0.124-0.254 0.512-0.494 0.903-0.502 1.807 0.003 0.245 0.12 0.136 0.121-0.023 0-0.925 0.331-1.393 0.505-1.756 0.039-0.095 0.027-0.166-0.017-0.15z m-3.108 0.443c-0.792 0.02-1.26 0.364-1.412 1.024 0.651 0.565 2.015 0.111 1.772-1.012a3.34 3.34 0 0 0-0.361-0.012Z"/></svg>