<svg fill="#003545" role="img" viewBox="0 0 38 24" xmlns="http://www.w3.org/2000/svg"><title>MariaDB</title><path d="M36.293 0.24c-1.048 0.44-1.224 0.48-2.593 0.576-1.007 0.07-1.173 0.088-1.879 0.324-1.162 0.381-2.162 1.162-3.131 2.464-0.459 0.617-1.936 2.965-1.936 3.082 0 0.088-1.007 1.547-1.418 2.046-0.89 1.105-1.674 1.672-3.317 2.464-1.193 0.558-1.897 0.812-6.358 2.289-1.663 0.547-3.306 1.144-3.668 1.339-1.321 0.696-2.348 1.606-3.415 3.004-1.555 2.046-1.507 2.035-4.715 1.468a19.008 19.008 0 0 0-1.046-0.098c-0.998-0.077-1.586 0.068-2.064 0.518L0.401 20.049l0.274 0.137c0.146 0.077 0.547 0.363 0.87 0.616 0.333 0.263 0.715 0.538 0.852 0.607 0.136 0.068 0.263 0.136 0.284 0.156 0.019 0.02-0.138 0.263-0.354 0.547-0.674 0.901-0.919 1.35-0.889 1.625 0.029 0.254 0.05 0.263 0.666 0.263 0.801-0.009 1.28-0.087 1.955-0.322 1.007-0.361 3.19-1.457 4.315-2.17 1.203-0.775 2.661-1.547 3.031-1.615 0.127-0.031 0.549-0.108 0.921-0.177 0.899-0.166 2.269-0.147 4.01 0.077 0.167 0.02 0.578 0.07 0.93 0.1 0.352 0.039 0.666 0.088 0.703 0.117 0.04 0.019 0.735 0.057 1.547 0.087 1.448 0.04 1.711 0.011 2.015-0.293 0.195-0.206 0.597-0.978 0.772-1.526 0.324-0.997 0.646-1.427 0.567-0.763-0.175 1.497-0.499 2.622-1.105 3.737-0.401 0.773-1.028 1.693-1.448 2.162-0.499 0.538-0.488 0.558 0.137 0.488 0.959-0.098 2.28-0.615 3.249-1.271 1.282-0.871 2.553-2.621 3.394-4.696 0.166-0.418 0.341-0.341 0.283 0.129-0.02 0.146-0.059 0.488-0.088 0.772l-0.048 0.508 0.547-0.313c1.291-0.744 2.192-1.956 3.297-4.47 0.352-0.803 1.359-4.529 1.663-6.163a14.941 14.941 0 0 1 0.42-1.615c0.197-0.665 0.304-0.86 0.744-1.33 0.284-0.294 0.969-0.86 1.516-1.252 1.116-0.783 1.477-1.162 1.84-1.868 0.322-0.646 0.44-1.751 0.204-2.103-0.205-0.313-0.44-0.304-1.182 0.01Z"/></svg>