<svg fill="#1FB6FF" role="img" viewBox="0 0 19 24" xmlns="http://www.w3.org/2000/svg"><title>MarvelApp</title><path d="M7.839 8.13c1.373 0-1.162 7.076-0.845 10.138 0.317 3.063 3.696 2.218 3.485 0.423-0.423-3.063 1.69-12.672 3.696-12.672 1.478 0-1.69 6.547-1.056 10.665 0.422 2.64 4.012 1.901 3.59 0.106-1.162-5.386 2.64-10.56 2.112-14.361C18.61 0.845 17.659 0 16.709 0c-3.379 0-6.125 6.97-6.125 6.97s0.423-3.908-2.428-4.119C4.143 2.64 0.025 12.777 0.13 21.964c0.106 2.957 3.696 2.429 3.485 0.106-0.211-4.12 2.112-13.94 4.225-13.94z"/></svg>