<svg fill="#0C2340" role="img" viewBox="0 0 17 24" xmlns="http://www.w3.org/2000/svg"><title>Maserati</title><path d="M6.177 21.213h4.67v0.909h-4.67v-0.909z m0.87 2.787h2.93v-1.409h-2.93V24z m-0.844-5.313c0.575 0.523 0.881 1.28 0.83 2.056h2.944a2.575 2.575 0 0 1 0.818-2.056H6.203z m-3.052-2.17v0.683h10.696v-0.683H3.151z m0.478 3.087a3.833 3.833 0 0 0 1.74-0.917H3.508l0.121 0.917z m9.74 0l0.121-0.917h-1.86c0.49 0.451 1.089 0.768 1.739 0.917z m-8.666-4.556A73.645 73.645 0 0 0 2.412 8.63c0.644 0.102 1.283 0.237 1.913 0.405A18.885 18.885 0 0 0 0.009 5.583c1.226 2.378 2.378 5.987 2.965 9.465h1.73z m9.326 0c0.587-3.478 1.74-7.087 2.961-9.465a18.877 18.877 0 0 0-4.308 3.452c0.63-0.169 1.268-0.304 1.913-0.405a65.966 65.966 0 0 0-2.292 6.418h1.726zM2.586 16.17h11.83v-0.679H2.586v0.679z m5.135-1.144c0.312-0.74 0.569-1.5 0.77-2.278 0.203 0.777 0.462 1.538 0.773 2.278h2.052c-1.743-2.87-2.234-6.665-2.343-10-0.009-0.343 0.13-0.43 0.46-0.283l1.053 0.474A15.501 15.501 0 0 1 8.49 0 15.494 15.494 0 0 1 6.499 5.217l1.052-0.474c0.33-0.152 0.457-0.06 0.457 0.283-0.109 3.313-0.6 7.109-2.34 10h2.053z m-5.135 3.191h11.83v-0.678H2.586v0.678z"/></svg>