<svg fill="#EB001B" role="img" viewBox="0 0 39 24" xmlns="http://www.w3.org/2000/svg"><title>MasterCard</title><path d="M18.437 21.76c0.094 0.079 0.194 0.159 0.293 0.237-1.905 1.267-4.191 2.003-6.646 2.003C5.454 24.002 0.081 18.629 0.081 12.001c0-6.627 5.373-12.001 12.001-12.001 2.456 0 4.743 0.738 6.643 2.003-0.097 0.083-0.194 0.159-0.267 0.243C15.616 4.701 13.99 8.259 13.99 12.001c0 3.74 1.62 7.298 4.447 9.759z m8.481-21.76c-2.46 0-4.743 0.738-6.643 2.003 0.097 0.083 0.194 0.159 0.267 0.243C23.384 4.701 25.01 8.259 25.01 12.001c0 3.738-1.62 7.293-4.447 9.759-0.094 0.079-0.194 0.159-0.293 0.237 1.905 1.267 4.188 2.003 6.646 2.003C33.546 24.002 38.919 18.629 38.919 12.001c0-6.625-5.373-12.001-12.001-12.001zM19.5 2.573c-0.155 0.121-0.306 0.243-0.453 0.374C16.516 5.146 14.919 8.384 14.919 12.001c0 3.618 1.597 6.855 4.128 9.054 0.146 0.129 0.299 0.256 0.453 0.375 0.155-0.12 0.306-0.246 0.453-0.375 2.529-2.199 4.128-5.436 4.128-9.054 0-3.617-1.597-6.855-4.128-9.054-0.146-0.129-0.298-0.252-0.453-0.374z"/></svg>