<svg fill="#3152A0" role="img" viewBox="0 0 43 24" xmlns="http://www.w3.org/2000/svg"><title>Matomo</title><path d="M11.947 18.034a5.973 5.973 0 0 1-5.966 5.966C2.692 24 0.016 21.325 0.016 18.034s2.677-5.967 5.965-5.967a5.976 5.976 0 0 1 5.966 5.967z m20.705-6.524a6.549 6.549 0 0 1-3.557 1.058 6.521 6.521 0 0 1-3.352-0.947l0.014 0.022a6.674 6.674 0 0 1-2.211-2.131l-4.676-6.612a0.304 0.304 0 0 1-0.048-0.059A5.93 5.93 0 0 0 13.748 0.002a5.94 5.94 0 0 0-5.099 2.839 0.261 0.261 0 0 1-0.038 0.05l-6.137 9.566a6.558 6.558 0 0 1 9.12 2.113 0.233 0.233 0 0 1 0.027 0.032l4.934 6.927a5.917 5.917 0 0 0 4.832 2.471 5.926 5.926 0 0 0 4.854-2.469l0.016-0.023c0.131-0.184 0.245-0.362 0.349-0.546l2.582-4.038 3.464-5.414z m9.444 3.406l-0.025-0.051-0.078-0.118a1.986 1.986 0 0 0-0.052-0.079l-6.311-9.614c0.043 0.301 0.093 0.6 0.093 0.913 0 1.327-0.392 2.609-1.135 3.703l-5.019 7.842 2.535 3.901-0.003 0.003a0.235 0.235 0 0 1 0.043 0.05 5.976 5.976 0 0 0 4.875 2.534A5.971 5.971 0 0 0 42.984 18.034c0-1.097-0.306-2.177-0.888-3.118z m-13.001-2.983a5.973 5.973 0 0 0 5.965-5.967 5.973 5.973 0 0 0-5.965-5.966 5.973 5.973 0 0 0-5.966 5.966 5.976 5.976 0 0 0 5.966 5.967z"/></svg>