<svg fill="#261C29" role="img" viewBox="0 0 21 24" xmlns="http://www.w3.org/2000/svg"><title>Matternet</title><path d="M17.729 4.18l-4.066 2.327V1.826L10.493 0 7.327 1.83v4.677L3.28 4.17 0.106 6v3.664L4.157 12l-4.054 2.343V18l3.165 1.831 4.044-2.338v4.681L10.483 24l3.174-1.831v-4.676l4.052 2.327 3.173-1.829v-3.646L16.839 12l4.058-2.336V6l-3.164-1.82h-0.004z m0.373 3.429V5.715l1.639 0.942v1.905l-1.636-0.953h-0.003z m1.638 9.286l-6.075-3.504 1.65-0.945L19.739 15v1.896l0.001-0.001z m-6.827-3.95L11.263 12l6.452-3.726 1.641 0.944-6.446 3.727h0.003zM1.634 9.219l1.641-0.944L9.728 12l-1.639 0.945-6.455-3.726z m5.69 4.17l-6.075 3.508V15l4.435-2.555 1.641 0.945v-0.001zM1.249 8.564V6.66l1.64-0.945v1.898l-1.64 0.951z m9.627 0V1.55l1.641 0.937V7.61l-1.641 0.953v0.001z m-2.402-0.96V2.493l1.64-0.944v7.004l-1.64-0.949z m8.866-1.889v1.898l-6.456 3.734V9.442l6.456-3.727z m-7.228 3.724v1.897L3.653 7.609V5.715l6.46 3.721-0.001 0.003z m-2.403 6.513l-4.435 2.555-1.64-0.944 6.074-3.508v1.897z m0.765-2.343l1.64-0.945v7.453l-1.64 0.959v-7.467z m3.656 8.115l-1.639 0.954-1.64-0.951 1.64-0.946 1.639 0.946v-0.003z m0.394-0.657l-1.648-0.95v-7.441l1.648 0.944z m6.831-3.504l-1.641 0.944-4.425-2.555v-1.897l6.075 3.508h-0.009z"/></svg>