<svg fill="#4B5562" role="img" viewBox="0 0 121 24" xmlns="http://www.w3.org/2000/svg"><title>Matter.js</title><path d="M98.19 0c-0.764 0-1.333 0.231-1.675 0.609a2.072 2.072 0 0 0-0.573 1.488c0 1.579 0.704 2.359 2.092 2.359 0.84 0 1.448-0.191 1.831-0.573a2.092 2.092 0 0 0 0.553-1.519c0-1.579-0.689-2.364-2.097-2.364h-0.116z m-87.214 0.191l-5.422 9.385L0.148 18.956h14.334v-9.556l-0.292-3.631Zm90.961 0.076v17.069l1.257-2.318 0.111 0.035a11.225 11.225 0 0 0 3.671 1.126 1.559 1.559 0 0 0 0.9-0.266c0.246-0.151 0.342-0.327 0.342-0.629 0-0.327-0.136-0.573-0.498-0.779a6.528 6.528 0 0 0-0.855-0.458 14.137 14.137 0 0 1-3.711-1.962c-0.759-0.649-1.142-1.619-1.142-2.851a3.807 3.807 0 0 1 1.524-3.143 6.015 6.015 0 0 1 3.787-1.142c1.484 0 2.666 0.382 3.541 1.066a4.245 4.245 0 0 1 1.519 2.952v0.111l-3.652 0.704-0.04-0.151c-0.055-0.573-0.191-0.93-0.437-1.197a1.504 1.504 0 0 0-1.122-0.402 1.142 1.142 0 0 0-0.82 0.287c-0.226 0.211-0.342 0.438-0.342 0.648 0 0.246 0.04 0.397 0.096 0.513a1.277 1.277 0 0 0 0.251 0.342l0.377 0.322a4.034 4.034 0 0 0 0.473 0.267l0.654 0.251c0.201 0.131 0.739 0.377 1.574 0.755v-0.051a7.001 7.001 0 0 1 2.213 1.383c0.583 0.573 0.89 1.408 0.89 2.46 0 1.061-0.493 2.012-1.463 2.851a5.14 5.14 0 0 1-2.475 1.142H120.852V0.267Zm-50.696 1.468l-3.651 1.081-0.151 2.535-1.675 0.227-0.362 2.529h1.961v5.653c0 1.941 0.246 3.329 0.755 4.185 0.538 0.855 1.619 1.277 3.294 1.277a7.192 7.192 0 0 0 3.541-0.991l-0.684-2.243a7.916 7.916 0 0 1-1.449 0.247c-0.568 0-0.986-0.171-1.217-0.513-0.251-0.327-0.362-0.935-0.362-1.791v-5.844h2.967l0.458-2.796h-3.42z m9.571 0l-3.651 1.081-0.151 2.535-1.675 0.227-0.382 2.529h1.981v5.653c0 1.941 0.246 3.329 0.755 4.185 0.518 0.855 1.624 1.277 3.294 1.277a7.117 7.117 0 0 0 3.52-0.991l-0.684-2.243a7.916 7.916 0 0 1-1.443 0.247c-0.573 0-0.971-0.171-1.217-0.513-0.231-0.327-0.347-0.935-0.347-1.791v-5.844h2.967l0.458-2.796h-3.42z m-39.541 3.37a4.265 4.265 0 0 0-3.405 1.67h-0.1l-0.357-1.56-3.008 0.383 0.267 3.807v9.51h3.882v-10.063a1.961 1.961 0 0 1 1.539-0.745c0.915 0 1.393 0.573 1.393 1.66v9.153h3.863v-10.068a1.901 1.901 0 0 1 1.559-0.745c0.895 0 1.333 0.573 1.333 1.66v9.153h3.923v-8.967c0-3.234-1.318-4.853-3.923-4.853a4.511 4.511 0 0 0-3.657 1.659c-0.604-1.106-1.675-1.66-3.158-1.659Zm18.156 0a11.286 11.286 0 0 0-2.836 0.432 10.692 10.692 0 0 0-2.379 0.875l1.081 2.399a12.996 12.996 0 0 1 3.349-0.759c0.689 0 1.142 0.151 1.374 0.417 0.246 0.251 0.362 0.669 0.362 1.218v1.005l-2.213 0.383a6.986 6.986 0 0 0-3.345 1.373c-0.759 0.664-1.142 1.66-1.141 2.987 0 2.53 1.217 3.807 3.651 3.807a4.567 4.567 0 0 0 3.732-1.906h0.095a4.813 4.813 0 0 0 1.941 1.906l2.188-2.077a3.807 3.807 0 0 1-0.84-1.257 5.381 5.381 0 0 1-0.171-1.519v-4.778a8.148 8.148 0 0 0-0.151-1.71 3.732 3.732 0 0 0-0.568-1.393 2.605 2.605 0 0 0-1.468-1.061 7.403 7.403 0 0 0-2.475-0.347z m31.871 0c-1.961 0.035-3.42 0.684-4.431 1.921a8.107 8.107 0 0 0-1.524 5.195c0 4.677 1.977 7.001 5.9 7.001a10.084 10.084 0 0 0 5.044-1.373l-0.805-2.374a10.486 10.486 0 0 1-3.46 0.74c-0.956 0-1.599-0.251-1.976-0.74a3.807 3.807 0 0 1-0.574-2.263h5.231l1.81-0.251c0-1.066-0.02-1.961-0.075-2.666-0.151-1.77-0.573-3.043-1.217-3.802-0.805-0.935-2.037-1.393-3.732-1.393z m13.494 0a3.008 3.008 0 0 0-1.901 0.779 4.355 4.355 0 0 0-1.278 2.128h-0.095l-0.473-2.797-2.932 0.383 0.286 3.767v9.555h3.863v-7.614c0-0.956 0.267-1.66 0.8-2.153a2.625 2.625 0 0 1 1.785-0.739 4.949 4.949 0 0 1 1.373 0.247l0.895-3.043a4.758 4.758 0 0 0-2.172-0.498h-0.131z m15.339 0.09l-3.882 0.403v12.045a7.609 7.609 0 0 1-0.267 2.55c-0.171 0.438-0.669 0.956-1.484 1.559l2.128 2.248a9.516 9.516 0 0 0 2.816-2.344 5.331 5.331 0 0 0 0.689-3.007z m7.192 0a5.844 5.844 0 0 0-3.656 1.127 3.48 3.48 0 0 0-1.408 2.892c0 1.217 0.382 2.052 1.086 2.645a13.816 13.816 0 0 0 3.616 1.942 8.545 8.545 0 0 1 0.915 0.512c0.397 0.226 0.604 0.568 0.604 0.951a0.956 0.956 0 0 1-0.453 0.875 1.846 1.846 0 0 1-1.046 0.252 10.692 10.692 0 0 1-3.671-1.031l-1.258 2.263c1.655 0.956 3.289 1.448 4.944 1.448a5.708 5.708 0 0 0 3.868-1.182c0.93-0.82 1.368-1.695 1.368-2.68a3.068 3.068 0 0 0-0.82-2.284 6.488 6.488 0 0 0-2.092-1.297 18.84 18.84 0 0 1-1.635-0.739l-0.573-0.252a5.14 5.14 0 0 1-0.568-0.302l-0.403-0.342a1.559 1.559 0 0 1-0.302-0.402 1.886 1.886 0 0 1-0.075-0.629 1.106 1.106 0 0 1 0.377-0.835 1.428 1.428 0 0 1 0.991-0.362c0.533 0 0.956 0.191 1.272 0.498a2.208 2.208 0 0 1 0.518 1.217l3.119-0.593a3.998 3.998 0 0 0-1.333-2.666 5.1 5.1 0 0 0-3.385-1.026Zm-36.231 2.917h0.11c0.593 0 0.971 0.186 1.142 0.569 0.171 0.377 0.251 1.066 0.252 2.011h-3.083a4.169 4.169 0 0 1 0.417-1.916c0.246-0.422 0.629-0.629 1.157-0.669z m-30.694 5.08v2.374a2.364 2.364 0 0 1-1.715 0.724c-0.895 0-1.333-0.417-1.333-1.257 0-0.568 0.251-0.951 0.704-1.217a7.041 7.041 0 0 1 2.344-0.629z m-21.601 0.644v5.064h2.414v-0.875z m70.883 0.322a2.454 2.454 0 0 0-2.283 2.459 2.454 2.454 0 0 0 2.474 2.454 2.454 2.454 0 0 0 2.435-2.474 2.454 2.454 0 0 0-2.455-2.439 2.454 2.454 0 0 0-0.186 0z m12.257 3.731v1.293h3.54a10.944 10.944 0 0 1-3.54-1.293z"/></svg>