<svg fill="#002E5F" role="img" viewBox="0 0 135 24" xmlns="http://www.w3.org/2000/svg"><title>Maytag</title><path d="M124.618 0c-4.011 0-6.702 1.09-8.5 2.612-3.652 3.09-3.64 7.713-3.64 9.141 0 1.669 0.14 7.219 3.426 10.022 1.899 1.607 4.045 2.225 7.371 2.225 3.483 0 5.404-2.287 5.405-2.287h0.146s0.365 0.573 1.005 1.102c0.59 0.478 1.438 0.899 1.439 0.898h2.011s-0.146-1.399-0.146-4.022v-3.719c0-0.522 0.152-0.893 0.455-1.112a2.713 2.713 0 0 1 1.326-0.411v-1.741h-10.129v1.741c0.371 0 1.528 0.045 1.955 0.315 0.433 0.27 0.843 0.506 0.842 1.472v2.348c0 0.753 0.202 1.494 0.203 1.495-1.27 1.197-4.107 1.36-5.36 0.899-1.927-0.708-2.989-1.803-2.989-9.186 0-2.022-0.14-6.056 1.579-7.916 1-1.079 2.64-1.292 3.809-1.292 2.135 0 3.494 0.618 4.461 2.641 0.421 0.893 1.382 3.152 1.382 3.151h1.825l-0.314-7.202c-1.157-0.461-3.202-1.174-7.562-1.174zM0.169 0.213v1.939c2.376 0 3.27 0.433 3.269 1.612v15.972c0 0.781-0.281 1.337-0.842 1.657-0.556 0.315-1.393 0.472-2.512 0.472v1.961h8.764v-1.961c-1.135 0-1.933-0.163-2.404-0.489-0.466-0.326-0.702-0.888-0.702-1.685v-15.169h0.207l6.714 19.304h3.253l5.882-19.298h0.253v15.596c0 0.607-0.067 1.191-0.663 1.505-0.438 0.242-1.539 0.236-1.989 0.236v1.961h19.809v-1.961c-0.506 0.011-1.831-0.09-2.337-0.303-0.539-0.225-1.191-0.893-0.455-3.259l0.797-2.595h7.321l0.679 2.135c0.843 2.612 1.096 3.343 0.439 3.708-0.579 0.315-1.702 0.315-2.174 0.314v1.961h11.595v-1.966c-0.253-0.011-0.888 0.011-1.455-0.394-0.674-0.539-1.011-1.506-1.191-2.062a386.966 386.966 0 0 1-4.91-15.932 93.399 93.399 0 0 1-0.871-3.259H40.326l-5.787 17.411c-0.449 1.348-0.972 2.64-1.573 3.37-0.652 0.798-1.669 0.871-2.359 0.871-1.567 0-2.112-0.281-2.113-1.741v-16.36c0-1.18 0.899-1.612 3.276-1.612v-1.939H20.64l-4.207 14.736h-0.208l-4.933-14.736z m51.848 0v1.939c0.837 0 1.472 0.096 1.854 0.275a2.208 2.208 0 0 1 0.96 1.079 421.062 421.062 0 0 1 5.765 12.528v4.224a1.579 1.579 0 0 1-0.197 0.838 1.275 1.275 0 0 1-0.635 0.488 3.983 3.983 0 0 1-1.14 0.225 22.36 22.36 0 0 1-1.59 0.056v1.961h12.854v-1.972a19.371 19.371 0 0 1-0.787-0.039 3.938 3.938 0 0 1-1.191-0.242 1.365 1.365 0 0 1-0.663-0.506 1.478 1.478 0 0 1-0.208-0.831v-4.764l4.585-10c0.354-0.826 0.938-2.062 1.477-2.438 0.539-0.382 1.197-0.36 2.303-0.371 1.685-0.011 2.006 0.225 2.276 0.584 0.236 0.32 0.292 1.034 0.286 2.04v14.994c0 0.551-0.298 0.955-0.887 1.208a6.815 6.815 0 0 1-2.264 0.359v1.978h12.769v-1.978a6.831 6.831 0 0 1-2.264-0.359c-0.59-0.253-0.888-0.657-0.887-1.208v-15c0-1 0.051-1.702 0.269-2.011 0.264-0.382 0.584-0.607 2.27-0.607 1.365 0 1.899 0.034 2.32 0.371 0.674 0.539 1.18 1.742 1.545 2.567l0.989 2.169h1.652l-0.377-7.557h-25.747v1.961c0.775 0 1.528 0.112 1.77 0.635 0.326 0.702-0.067 2.236-0.939 4.416-1.264 3.169-2.185 5.371-2.185 5.371H65.815l-3.158-6.871c-0.742-1.612-1.112-2.607-1.112-2.978 0-0.309 0.056-0.59 1.854-0.59v-1.944z m46.68 0l-5.781 17.411c-0.449 1.348-0.938 2.472-1.534 3.202a2.629 2.629 0 0 1-1.803 0.983v2.017h8v-1.961c-0.506 0.011-1.826-0.09-2.337-0.303-0.539-0.225-1.191-0.893-0.455-3.259L95.59 15.708h7.303l0.691 2.135c0.843 2.612 1.09 3.343 0.433 3.708-0.579 0.315-1.702 0.315-2.174 0.314v1.961h11.601v-1.966c-0.258-0.011-0.893 0.011-1.461-0.394-0.674-0.539-1.011-1.506-1.191-2.062a395.843 395.843 0 0 1-4.91-15.932c-0.371-1.348-0.663-2.382-0.871-3.259z m-57.568 3.708h0.152l2.668 9.894h-6.067z m58.371 0h0.152l2.668 9.894h-6.067Z"/></svg>