<svg fill="#101010" role="img" viewBox="0 0 30 24" xmlns="http://www.w3.org/2000/svg"><title>Mazda</title><path d="M14.999 13.095c-0.045 0-0.131-0.057-0.278-0.325a9.412 9.412 0 0 0-2.468-2.941A10.317 10.317 0 0 0 9.626 8.332a22.427 22.427 0 0 0-0.431-0.17c-1.265-0.5-2.576-1.016-3.793-1.721A11.225 11.225 0 0 1 5.002 6.204c0.242-0.425 0.525-0.831 0.837-1.203a7.567 7.567 0 0 1 1.566-1.413 8.906 8.906 0 0 1 2.022-1.007c1.522-0.542 3.346-0.809 5.572-0.811 2.228 0.002 4.05 0.269 5.572 0.812a8.869 8.869 0 0 1 2.024 1.006c0.589 0.399 1.115 0.874 1.566 1.412 0.312 0.372 0.594 0.779 0.837 1.204-0.129 0.08-0.265 0.161-0.4 0.24-1.22 0.705-2.528 1.221-3.795 1.719l-0.432 0.17a10.323 10.323 0 0 0-2.624 1.497 9.397 9.397 0 0 0-2.468 2.942c-0.146 0.266-0.234 0.324-0.28 0.324m0 8.838c-1.93-0.002-3.497-0.161-4.787-0.483-1.266-0.315-2.318-0.8-3.219-1.485a7.238 7.238 0 0 1-1.74-1.921 9.507 9.507 0 0 1-1.012-2.21 12.87 12.87 0 0 1-0.584-3.728c0-0.842 0.059-1.641 0.169-2.375 1.382 0.745 2.691 1.119 3.849 1.449l0.269 0.075c1.612 0.464 2.892 1.071 3.918 1.86 0.594 0.46 1.112 0.991 1.537 1.58 0.461 0.635 0.829 1.36 1.096 2.155 0.12 0.361 0.25 0.585 0.504 0.585 0.259 0 0.385-0.225 0.506-0.585a7.653 7.653 0 0 1 2.633-3.734c1.025-0.79 2.306-1.397 3.918-1.861l0.27-0.075c1.157-0.331 2.466-0.705 3.847-1.449 0.112 0.736 0.17 1.533 0.17 2.374 0 0.572-0.057 2.08-0.581 3.729a9.531 9.531 0 0 1-1.012 2.21 7.235 7.235 0 0 1-1.744 1.921c-0.904 0.685-1.956 1.17-3.217 1.485-1.293 0.322-2.859 0.481-4.79 0.483m12.112-18.191c-2.386-2.562-6.236-3.737-12.112-3.743-5.874 0.006-9.724 1.18-12.11 3.742C1.115 5.643 0.003 8.273 0.003 11.843c0 1.973 0.487 6.999 4.454 9.593 2.375 1.552 5.441 2.557 10.542 2.564 5.103-0.007 8.168-1.012 10.544-2.564C29.508 18.841 29.997 13.815 29.997 11.843c0-3.559-1.121-6.209-2.887-8.103Z"/></svg>