<svg fill="#FF0000" role="img" viewBox="0 0 162 24" xmlns="http://www.w3.org/2000/svg"><title>McLaren</title><path d="M128.481 10.069c22.221-14.381 52.093-14.845 17.239 8.391l0.551-0.74c9.863-13.554-10.233-10.509-17.333-7.839l-0.457 0.188zM47.162 20.309h9.406v3.691H45.682c-4.612 0-6.636-1.385-6.635-5.069v-0.827c0-3.133 1.842-5.164 6.454-5.164h11.067v3.691H47.162a1.667 1.667 0 0 0-1.661 1.661v0.464a1.654 1.654 0 0 0 1.661 1.553zM64.864 11.084v9.218h5.534v3.691h-12.909v-12.909H64.864z m-34.948 1.661c1.284-1.035 2.871-1.62 4.518-1.661h3.691v12.909H30.743v-6.454l-7.1 6.454H16.913v-6.454l-8.209 6.454H0.32l14.657-11.066c1.385-1.015 2.306-1.842 4.699-1.843h4.613v6.455l5.627-4.794z m62.608 1.385a2.125 2.125 0 0 1 2.306-2.125h8.761v3.692h-4.612v8.296h-6.455v-9.863z m43.238-2.125c5.533 0 7.47 1.197 7.47 5.258v6.73h-6.454v-4.612a2.763 2.763 0 0 0-2.764-2.763h-2.763v7.375h-6.455v-11.988h10.966z m-50.338 0c4.242 0 6.179 1.755 6.179 4.7v2.763c0 3.409-1.936 4.518-6.636 4.519h-7.281c-2.676 0-4.612-0.276-5.628-1.197a3.328 3.328 0 0 1-0.739-2.118v-0.464c0-1.842 1.109-3.597 4.612-3.597h8.297c0-0.827 0.094-0.921-0.921-0.921h-11.067V11.999h13.184z m-1.203 7.84v-0.464h-5.07a0.471 0.471 0 0 0 0 0.928h4.613a0.457 0.457 0 0 0 0.457-0.464z m33.751-7.84c4.888 0 5.903 1.472 5.903 3.503v0.464c0 2.212-1.755 3.409-4.612 3.409h-8.297c0 0.827 0.827 0.921 1.843 0.921h10.139v3.691H110.314c-3.967 0-5.809-1.661-5.809-4.699v-2.118c0-3.503 1.936-5.164 6.361-5.164h7.106z m-1.015 4.613a0.471 0.471 0 0 0 0-0.928h-5.533a0.471 0.471 0 0 0-0.464 0.464v0.464h5.997z"/></svg>