<svg fill="#000000" role="img" viewBox="0 0 26 24" xmlns="http://www.w3.org/2000/svg"><title>mdBook</title><path d="M24.664 4.79c0.025 0.365 0 0.664-0.079 0.885l-4.673 15.409c-0.078 0.273-0.26 0.482-0.546 0.65a1.809 1.809 0 0 1-0.871 0.249H4.087c-1.25 0-1.992-0.365-2.252-1.094-0.104-0.286-0.104-0.508 0.013-0.677 0.117-0.156 0.312-0.234 0.599-0.234h13.561c0.964 0 1.64-0.182 2.003-0.534 0.365-0.351 0.743-1.159 1.12-2.393l4.283-14.135c0.234-0.769 0.13-1.445-0.287-2.031-0.416-0.585-1.015-0.885-1.783-0.885H9.462c-0.13 0-0.404 0.052-0.795 0.143l0.013-0.052A2.662 2.662 0 0 0 7.941 0.013a1.06 1.06 0 0 0-0.56 0.182 1.943 1.943 0 0 0-0.417 0.365c-0.104 0.13-0.195 0.286-0.299 0.494a6.239 6.239 0 0 0-0.247 0.56 8.611 8.611 0 0 1-0.235 0.547c-0.091 0.195-0.169 0.351-0.26 0.481-0.065 0.079-0.156 0.195-0.26 0.325-0.104 0.131-0.209 0.261-0.287 0.365a0.841 0.841 0 0 0-0.143 0.287c-0.026 0.091-0.013 0.234 0.026 0.416 0.039 0.182 0.052 0.313 0.052 0.404-0.039 0.39-0.182 0.898-0.429 1.51-0.248 0.611-0.469 1.054-0.664 1.313a5.633 5.633 0 0 1-0.338 0.352c-0.183 0.182-0.3 0.338-0.339 0.481-0.039 0.052-0.039 0.195-0.013 0.443 0.039 0.234 0.052 0.403 0.039 0.494-0.039 0.352-0.169 0.82-0.39 1.406a10.257 10.257 0 0 1-0.651 1.432c-0.026 0.065-0.117 0.182-0.26 0.364-0.144 0.182-0.235 0.325-0.26 0.443-0.027 0.078-0.014 0.234 0.012 0.442 0.026 0.209 0.026 0.365-0.013 0.469-0.078 0.39-0.234 0.872-0.468 1.432-0.235 0.559-0.469 1.028-0.704 1.431-0.065 0.105-0.142 0.222-0.26 0.365-0.104 0.143-0.195 0.26-0.26 0.364a1.004 1.004 0 0 0-0.13 0.324 0.574 0.574 0 0 0 0.052 0.3c0.039 0.143 0.052 0.247 0.052 0.34-0.013 0.143-0.026 0.338-0.065 0.571-0.026 0.234-0.052 0.378-0.052 0.417-0.234 0.624-0.221 1.289 0.026 1.978 0.286 0.807 0.807 1.497 1.549 2.057 0.742 0.559 1.523 0.833 2.317 0.833H18.469c0.677 0 1.315-0.222 1.913-0.677 0.599-0.455 1.002-1.015 1.197-1.679l4.296-14.135c0.234-0.754 0.13-1.419-0.287-2.016-0.221-0.325-0.52-0.547-0.924-0.703ZM7.756 15.983l1.849-5.571h1.405c0.495 0 3.748-0.221 3.306 2.278-0.442 2.499-2.447 3.28-4.79 3.306-2.342 0.026-1.77-0.013-1.77-0.013z m2.473-0.781c0.612-0.013 2.46-0.378 2.877-2.226 0.416-1.848-1.497-1.744-1.497-1.744h-1.159l-1.327 3.97c0.013 0.013 0.508 0.013 1.106 0z m-0.429-6.261l1.783-5.531h1.276l0.104 4.425 3.071-4.425h1.289l-1.77 5.531h-0.924l1.627-4.606-3.189 4.606h-0.885l-0.104-4.554-1.406 4.554z"/></svg>