<svg fill="#1B1F24" role="img" viewBox="0 0 60 24" xmlns="http://www.w3.org/2000/svg"><title>MDX</title><path d="M2.429 0h55.142c1.072 0 1.943 0.873 1.943 1.948v20.109c0 1.072-0.871 1.943-1.943 1.943H2.429a1.943 1.943 0 0 1-1.943-1.943V1.948a1.943 1.943 0 0 1 1.943-1.946V0Zm6.166 18.705v-7.679l4.648 4.649L17.998 10.92v7.679h2.594v-13.946l-7.354 7.354L5.995 4.762v13.945h2.595v-0.002Zm20.758-4.538l-3.625-3.623-1.835 1.835 6.756 6.756 6.752-6.756-1.835-1.835-3.623 3.623v-9.838h-2.592v9.838Zm24.696 2.427l-5.349-5.349 5.46-5.46-1.835-1.835-5.46 5.46-5.46-5.46-1.837 1.835 5.46 5.46-5.352 5.354 1.835 1.835 5.354-5.354 5.352 5.349 1.832-1.835Z"/></svg>