<svg fill="#000000" role="img" viewBox="0 0 43 24" xmlns="http://www.w3.org/2000/svg"><title>Medium</title><path d="M24.21 12a11.965 11.965 0 0 1-11.912 12A11.965 11.965 0 0 1 0.386 12a11.965 11.965 0 0 1 11.912-12A11.965 11.965 0 0 1 24.21 12zM37.265 12c0 6.229-2.657 11.296-5.947 11.296-3.29 0-5.965-5.067-5.965-11.296s2.674-11.296 5.965-11.296 5.947 5.067 5.947 11.296M42.614 12c0 5.578-0.933 10.117-2.093 10.117-1.161 0-2.094-4.54-2.094-10.117s0.933-10.117 2.094-10.117C41.682 1.883 42.614 6.422 42.614 12z"/></svg>