<svg fill="#EC9430" role="img" viewBox="0 0 96 24" xmlns="http://www.w3.org/2000/svg"><title>MediaTek</title><path d="M15.497 0c-1.182 0-2.652 0.839-3.256 1.866L0.321 22.134c-0.599 1.027-0.116 1.866 1.067 1.866h79.114c1.186 0 2.656-0.839 3.26-1.866l11.916-20.268c0.599-1.027 0.12-1.866-1.07-1.866z m13.622 7.889h4.354l-0.927 1.606h-3.1c-0.951 0-1.246 0.372-1.246 1.351v3.223h5.473l-0.931 1.606H26.039v-4.782c0-2.353 1.226-3.004 3.08-3.004z m5.768 0h3.743c2.808 0 4.003 1.079 4.003 3.831 0 2.916-1.202 3.955-3.899 3.955h-3.847z m31.286 0h4.355l-0.931 1.606h-3.096c-0.955 0-1.25 0.372-1.25 1.351-0.016 1.055-0.008 2.153-0.008 3.223h5.48l-0.93 1.606h-6.703v-4.782c0-2.353 1.23-3.004 3.083-3.004z m-46.206 0.016v3.939l2.273-3.931 2.597-0.008v7.754h-2.186v-4.758l-2.684 4.758h-2.181v-4.758l-2.748 4.754h-2.138l4.479-7.742z m23.888 0h2.181v7.754h-2.177z m7.183 0h3.119v7.754h-2.209v-5.525l-3.183 5.525h-2.205z m5.017 0h6.847l-0.927 1.614h-2.013v6.14h-2.129v-6.14h-2.717z m15.471 0h2.185v7.754h-2.185z m5.373 0h2.177l-2.229 3.867-0.008 0.016h0.008l2.229 3.871h-2.177l-2.237-3.875z m-39.923 1.59v4.574h1.187c1.726 0 2.265-0.415 2.265-2.341 0-1.929-0.539-2.233-2.265-2.233z m-7.378 1.662h3.476l-0.739 1.27h-3.436z m36.971 0h3.483l-0.743 1.27h-3.435Z"/></svg>