<svg fill="#000000" role="img" viewBox="0 0 23 24" xmlns="http://www.w3.org/2000/svg"><title>Medusa</title><path d="M19.825 3.896L14.391 0.769a5.728 5.728 0 0 0-5.734 0L3.198 3.896C1.446 4.921 0.344 6.822 0.344 8.848v6.279c0 2.051 1.102 3.927 2.854 4.952l5.434 3.152a5.728 5.728 0 0 0 5.734 0l5.434-3.152c1.778-1.026 2.854-2.901 2.855-4.952V8.848c0.05-2.026-1.052-3.927-2.83-4.952Zm-8.313 13.682c-3.08 0-5.584-2.501-5.584-5.578 0-3.077 2.504-5.578 5.584-5.578 3.08 0 5.609 2.501 5.609 5.578 0 3.076-2.504 5.578-5.609 5.578z"/></svg>