<svg fill="#ED1C40" role="img" viewBox="0 0 26 24" xmlns="http://www.w3.org/2000/svg"><title>Meetup</title><path d="M7.737 0a0.543 0.543 0 0 0-0.11 0.012 0.556 0.556 0 1 0 0.232 1.09 0.559 0.559 0 0 0 0.429-0.664 0.557 0.557 0 0 0-0.551-0.438z m6.767 0.669a1.032 1.032 0 0 0-0.539 0.15 1.038 1.038 0 1 0 1.07 1.781 1.038 1.038 0 0 0 0.356-1.426 1.04 1.04 0 0 0-0.887-0.505z m-3.176 2.344a5.272 5.272 0 0 0-4.894 3.405 3.491 3.491 0 0 0-1.531 0.578 3.537 3.537 0 0 0-0.986 4.783 3.81 3.81 0 0 0-0.634 4.874 3.777 3.777 0 0 0 2.584 1.674c0.019 0.767 0.25 1.537 0.72 2.217a4.089 4.089 0 0 0 5.685 1.04c0.071-0.049 0.126-0.111 0.193-0.165 1.035 0.924 2.59 1.076 3.782 0.252a3.051 3.051 0 0 0 1.218-1.772 4.443 4.443 0 0 0 2.709-0.775 4.481 4.481 0 0 0 1.248-6.069 2.585 2.585 0 0 0 0.454-3.468 2.567 2.567 0 0 0-1.38-0.98 4.651 4.651 0 0 0-0.814-3.012 4.683 4.683 0 0 0-5.446-1.736 5.353 5.353 0 0 0-2.907-0.846z m-5.875 0.857a0.796 0.796 0 0 0-0.443 0.141 0.795 0.795 0 1 0 0.905 1.309 0.794 0.794 0 0 0 0.202-1.106 0.795 0.795 0 0 0-0.664-0.344z m16.769 2.484a0.883 0.883 0 0 0-0.493 0.159 0.886 0.886 0 1 0 1.232 0.225 0.886 0.886 0 0 0-0.739-0.382z m-8.545 1.078c0.066 0 0.13 0.005 0.191 0.015a0.945 0.945 0 0 1 0.472 0.196c0.177 0.14 0.286 0.253 0.453 0.412 0.252 0.238 0.434 0.093 0.559 0.021 0.218-0.128 0.387-0.23 1.032-0.218 0.664 0.012 1.429 0.248 1.587 1.381 0.176 1.257-2.061 4.497-1.905 5.999 0.111 1.059 1.903 0.313 2.055 1.279 0.195 1.256-2.239 0.789-2.796 0.517-0.872-0.428-1.402-1.405-1.174-2.37 0.168-0.721 1.782-3.667 1.842-4.12 0.062-0.461-0.186-0.499-0.34-0.508-0.199-0.01-0.356 0.085-0.551 0.38-0.177 0.267-2.183 4.283-2.357 4.611-0.31 0.587-0.702 0.728-1.095 0.707-0.575-0.03-0.837-0.335-0.754-0.89 0.049-0.325 1.321-3.197 1.387-3.644 0.041-0.278-0.014-0.572-0.289-0.713-0.276-0.142-0.6 0.073-0.696 0.238-0.134 0.225-1.937 4.934-2.13 5.282-0.331 0.604-0.681 0.797-1.208 0.822-1.243 0.059-2.165-0.965-1.759-2.218 0.181-0.558 1.38-4.792 1.987-5.87 0.408-0.723 1.539-1.275 2.324-0.936 0.406 0.175 0.97 0.458 1.136 0.532 0.384 0.171 0.796-0.29 0.958-0.432 0.163-0.14 0.317-0.289 0.513-0.374 0.149-0.063 0.36-0.1 0.558-0.099z m11.407 2.157a0.491 0.491 0 0 0-0.098 0.011 0.49 0.49 0 0 0-0.377 0.582 0.493 0.493 0 0 0 0.584 0.378 0.493 0.493 0 0 0 0.377-0.584 0.493 0.493 0 0 0-0.486-0.388z m-23.608 0.849a1.045 1.045 0 0 0-0.873 0.455 1.048 1.048 0 1 0 1.458-0.27 1.048 1.048 0 0 0-0.585-0.185z m22.324 2.195a0.666 0.666 0 0 0-0.133 0.014 0.657 0.657 0 0 0-0.503 0.782 0.658 0.658 0 0 0 0.782 0.507 0.658 0.658 0 0 0 0.506-0.783 0.66 0.66 0 0 0-0.652-0.52z m-19.123 6.393a0.475 0.475 0 0 0-0.096 0.012 0.486 0.486 0 1 0 0.204 0.952 0.486 0.486 0 0 0 0.374-0.58 0.488 0.488 0 0 0-0.482-0.384z m14.337 1.625a1.095 1.095 0 0 0-0.611 0.196 1.098 1.098 0 1 0 1.527 0.277 1.095 1.095 0 0 0-0.916-0.472zM12.371 22.645a0.674 0.674 0 0 0-0.378 0.12 0.677 0.677 0 0 0-0.172 0.943 0.677 0.677 0 0 0 0.943 0.172 0.677 0.677 0 0 0 0.172-0.942 0.677 0.677 0 0 0-0.566-0.293z"/></svg>