<svg fill="#FFD100" role="img" viewBox="0 0 25 24" xmlns="http://www.w3.org/2000/svg"><title>Meituan</title><path d="M7.423 0c-2.408 0-3.28 0.25-4.16 0.721A4.907 4.906 90 0 0 1.222 2.763C0.75 3.643 0.5 4.516 0.5 6.923v10.154c0 2.407 0.25 3.28 0.72 4.16a4.906 4.905 90 0 0 2.042 2.042c0.88 0.47 1.752 0.721 4.16 0.721h10.156c2.407 0 3.28-0.25 4.16-0.721a4.907 4.906 90 0 0 2.04-2.042c0.471-0.88 0.722-1.753 0.722-4.16V6.923c0-2.407-0.25-3.28-0.722-4.16A4.907 4.906 90 0 0 21.738 0.72C20.857 0.251 19.984 0 17.577 0ZM4.67 7.51h1.084c0.04 0.24 0.07 0.488 0.11 0.737h3.47c0.05-0.25 0.08-0.497 0.1-0.736h1.105a9.85 9.849 90 0 1-0.09 0.736h1.562v0.866H8.12v0.696h3.642v0.855h-3.64v0.667h3.64v0.854h-3.64v0.816h3.89v0.865H8.38c0.775 0.935 2.218 1.532 3.78 1.651l-0.538 0.936c-1.442-0.17-3.103-0.846-4.028-2.04-0.856 1.194-2.487 1.92-4.525 2.07l0.318-1.005c1.382-0.02 2.814-0.736 3.431-1.612h-3.62v-0.865h3.86v-0.816h-3.64v-0.854h3.64v-0.667h-3.64v-0.855h3.64v-0.697H3.2v-0.866h1.56z m8.603 0.182h7.976c0.358 0 0.567 0.198 0.567 0.547v8.146H13.83c-0.358 0-0.557-0.199-0.557-0.547z m1.044 0.885V15.5h6.455V8.577Zm3.999 0.476h1.024v0.756h0.975v0.835h-0.975V13c0 0.806-0.1 1.402-0.318 2.02h-1.113c0.338-0.717 0.408-1.224 0.408-1.99v-2.387h-0.935c-0.14 1.541-0.736 3.451-1.363 4.376h-1.134c0.607-0.855 1.303-2.526 1.472-4.376h-1.512v-0.835h3.472z"/></svg>