<svg fill="#9D1620" role="img" viewBox="0 0 44 24" xmlns="http://www.w3.org/2000/svg"><title>Mendeley</title><path d="M22.006 6.898h0.035a4.243 4.243 0 0 1 2.709 7.506 3.257 3.257 0 0 1-1.542 0.814 4.231 4.231 0 0 1-1.169 0.166h-0.034c-0.405 0-0.797-0.059-1.169-0.166a3.266 3.266 0 0 1-1.543-0.814 4.227 4.227 0 0 1-1.533-3.263 4.249 4.249 0 0 1 4.246-4.243m-17.969 17.07c2.28 0.285 4.303-1.373 4.518-3.707a4.404 4.404 0 0 0-0.385-2.227c-3.193-7.007 12.563-7.167 9.901-0.554l-0.018 0.029c-1.259 2.014-0.576 4.63 1.515 5.838 0.77 0.448 1.622 0.632 2.455 0.596 0.833 0.036 1.685-0.148 2.454-0.596 2.092-1.21 2.775-3.824 1.516-5.838l-0.018-0.029c-2.663-6.613 13.095-6.452 9.898 0.554a4.407 4.407 0 0 0-0.383 2.227c0.217 2.334 2.238 3.992 4.52 3.707a4.225 4.225 0 0 0 2.567-1.328s1.06-0.88 1.044-3.123c-0.014-1.83-1.044-2.843-1.044-2.843a3.985 3.985 0 0 0-3.27-1.163c-2.924-0.065-3.358-2.355-2.532-6.673 0.304-0.766 0.435-1.586 0.408-2.406a6.156 6.156 0 0 0-3.838-5.937c-0.07-0.031-0.141-0.054-0.214-0.083a2.727 2.727 0 0 0-0.242-0.083 6.154 6.154 0 0 0-7.214 2.617c-1.472 1.617-2.139 2.598-3.652 2.598-1.44 0-2.182-0.981-3.653-2.598a6.149 6.149 0 0 0-7.454-2.536c-0.072 0.029-0.143 0.052-0.215 0.083a6.154 6.154 0 0 0-3.837 5.938c-0.029 0.82 0.105 1.64 0.407 2.406 0.825 4.319 0.392 6.607-2.531 6.672-1.432-0.154-2.502 0.437-3.582 1.519-1.084 1.08-0.993 3.974 0 5.237 0.721 0.919 1.698 1.555 2.879 1.703"/></svg>