<svg fill="#00B1EA" role="img" viewBox="0 0 36 24" xmlns="http://www.w3.org/2000/svg"><title>Mercado Pago</title><path d="M16.706 18.549a1.36 1.356 0 0 1-1.373-1.296c-0.003-0.061-0.009-0.227-0.151-0.226-0.058 0-0.108 0.034-0.165 0.086-0.164 0.151-0.371 0.301-0.673 0.301a1.193 1.19 0 0 1-0.446-0.097c-0.782-0.313-0.793-0.845-0.761-1.06 0.009-0.056 0.01-0.117-0.03-0.16l-0.046-0.044h-0.05c-0.039 0-0.08 0.018-0.136 0.057a1.152 1.149 0 0 1-0.664 0.234 1.024 1.022 0 0 1-0.37-0.073c-1.035-0.395-0.95-1.357-0.902-1.647 0.007-0.06-0.007-0.105-0.044-0.135l-0.073-0.058-0.069 0.063a1.065 1.062 0 0 1-0.738 0.297 1.067 1.065 0 0 1-1.071-1.06c0-0.585 0.48-1.056 1.071-1.056 0.532 0 0.987 0.395 1.054 0.921l0.038 0.285 0.161-0.241c0.015-0.026 0.449-0.673 1.246-0.673 0.149 0 0.307 0.023 0.462 0.073 0.635 0.19 0.743 0.76 0.759 0.995 0.012 0.137 0.11 0.146 0.131 0.146 0.054 0 0.094-0.035 0.122-0.066a1.091 1.088 0 0 1 0.789-0.329c0.187 0 0.385 0.044 0.588 0.132 1.009 0.428 0.554 1.693 0.547 1.706-0.085 0.211-0.089 0.303-0.007 0.357l0.039 0.019h0.029c0.044 0 0.102-0.02 0.196-0.051 0.136-0.047 0.344-0.117 0.537-0.117a1.38 1.377 0 0 1 1.374 1.36 1.369 1.366 0 0 1-1.374 1.357z m10.677-6.099c-1.664-1.433-5.51-4.738-6.552-5.513-0.594-0.442-1.002-0.676-1.357-0.779a2.28 2.272 0 0 0-0.667-0.103c-0.266 0-0.55 0.047-0.848 0.139-0.673 0.212-1.342 0.738-1.992 1.249l-0.033 0.026c-0.605 0.474-1.228 0.965-1.702 1.068a2.904 2.895 0 0 1-0.629 0.071c-0.529 0-1.005-0.152-1.184-0.377-0.029-0.037-0.01-0.097 0.058-0.183l0.012-0.011 1.462-1.561c1.145-1.132 2.23-2.202 4.723-2.259h0.124c1.553 0 3.1 0.686 3.276 0.766a10.28 10.28 0 0 0 4.468 1.059c1.573 0 3.199-0.385 4.905-1.162a13.358 13.321 0 0 0-0.592-0.464c-1.499 0.643-2.929 0.965-4.308 0.965-1.407 0-2.815-0.335-4.179-0.994-0.073-0.032-1.784-0.829-3.568-0.834-0.047 0-0.095 0-0.141 0.003-2.097 0.048-3.275 0.784-4.068 1.427-0.772 0.019-1.436 0.202-2.029 0.366-0.528 0.146-0.984 0.272-1.432 0.27-0.183 0-0.512-0.015-0.541-0.017-0.512-0.015-3.093-0.639-5.144-1.407-0.209 0.146-0.409 0.297-0.607 0.454 2.144 0.867 4.752 1.54 5.574 1.592 0.23 0.015 0.472 0.039 0.718 0.039 0.544 0 1.088-0.151 1.615-0.296 0.311-0.086 0.652-0.18 1.012-0.249l-0.287 0.284-1.487 1.589c-0.117 0.117-0.371 0.43-0.205 0.815a1.031 1.028 0 0 0 0.392 0.427c0.355 0.237 0.99 0.395 1.579 0.396 0.222 0 0.434-0.022 0.629-0.064 0.624-0.139 1.278-0.655 1.973-1.2 0.551-0.433 1.335-0.983 1.934-1.143a2.185 2.179 0 0 1 0.541-0.073 0.893 0.892 0 0 1 0.139 0.007c0.395 0.05 0.779 0.183 1.467 0.69 1.221 0.907 6.625 5.579 6.676 5.624 0.003 0.003 0.348 0.297 0.322 0.785-0.01 0.272-0.161 0.515-0.43 0.682a1.319 1.316 0 0 1-0.708 0.219 1.176 1.173 0 0 1-0.625-0.181c-0.02-0.015-1.872-1.692-2.553-2.256-0.108-0.088-0.213-0.168-0.322-0.169a0.178 0.178 0 0 0-0.141 0.066c-0.107 0.132 0.015 0.31 0.154 0.43l2.164 2.15c0.003 0 0.269 0.249 0.298 0.577 0.018 0.357-0.155 0.654-0.511 0.886a1.399 1.396 0 0 1-0.77 0.25 1.12 1.117 0 0 1-0.614-0.185l-0.313-0.302a30.759 30.675 0 0 0-1.579-1.475c-0.105-0.085-0.216-0.164-0.323-0.164a0.186 0.186 0 0 0-0.137 0.056c-0.048 0.054-0.082 0.151 0.041 0.31a1.021 1.018 0 0 0 0.109 0.121l1.576 1.752c0.015 0.015 0.325 0.38 0.036 0.747l-0.056 0.07a1.725 1.723 0 0 1-0.146 0.141c-0.269 0.219-0.629 0.24-0.771 0.24a1.17 1.167 0 0 1-0.215-0.018c-0.155-0.026-0.26-0.07-0.31-0.13l-0.019-0.019c-0.088-0.088-0.88-0.891-1.541-1.433-0.086-0.073-0.194-0.161-0.307-0.161a0.187 0.187 0 0 0-0.14 0.061c-0.132 0.14 0.064 0.351 0.146 0.429l1.345 1.467a0.298 0.298 0 0 1-0.048 0.09c-0.048 0.064-0.211 0.227-0.701 0.287a1.331 1.326 0 0 1-0.178 0.01c-0.504 0-1.041-0.24-1.319-0.386a1.964 1.959 0 0 0 0.19-0.842 2 1.996 0 0 0-2.076-1.985c0.035-0.5-0.037-1.448-1.019-1.862a2.128 2.123 0 0 0-0.841-0.183c-0.213 0-0.42 0.037-0.614 0.109a1.686 1.682 0 0 0-0.982-0.824 2.223 2.215 0 0 0-0.722-0.125c-0.409 0-0.785 0.117-1.121 0.354a1.708 1.704 0 0 0-1.321-0.628 1.715 1.711 0 0 0-1.199 0.489c-0.42-0.317-2.084-1.36-6.532-2.358a25.429 25.361 0 0 1-1.012-0.277 7.051 7.048 0 0 0-0.112 0.723l0.979 0.229c4.545 0.997 6.048 2.034 6.301 2.23a1.674 1.67 0 0 0-0.131 0.647 1.696 1.693 0 0 0 2.015 1.655c0.14 0.683 0.594 1.201 1.285 1.466a1.704 1.699 0 0 0 0.607 0.117c0.132 0 0.262-0.018 0.389-0.049 0.126 0.322 0.412 0.721 1.055 0.977a1.803 1.799 0 0 0 0.669 0.137c0.178 0 0.352-0.032 0.519-0.092a2.008 2.003 0 0 0 1.855 1.23c0.541 0.003 1.062-0.215 1.441-0.6 0.323 0.177 1.006 0.499 1.7 0.499 0.088 0 0.173-0.003 0.256-0.015 0.687-0.086 1.007-0.351 1.154-0.558a0.835 0.833 0 0 0 0.07-0.115c0.161 0.047 0.342 0.085 0.546 0.085 0.373 0 0.733-0.126 1.096-0.387 0.357-0.254 0.611-0.62 0.65-0.932v-0.014c0.121 0.025 0.244 0.038 0.367 0.038 0.387 0 0.771-0.12 1.13-0.354 0.702-0.453 0.822-1.046 0.81-1.433a1.872 1.87 0 0 0 1.43-0.284 1.521 1.521 0 0 0 0.734-1.181 1.591 1.587 0 0 0-0.234-0.955c1.176-0.5 3.855-1.467 7.012-2.169a6.922 6.903 0 0 0-0.098-0.719 40.566 40.456 0 0 0-7.383 2.369z m7.491-1.116c0 5.889-7.554 10.664-16.87 10.664-9.317 0-16.872-4.776-16.871-10.664 0-5.89 7.553-10.664 16.873-10.664 9.316 0 16.87 4.774 16.87 10.664z m0.673 0.006c0-6.247-7.858-11.34-17.547-11.34S0.456 5.093 0.456 11.341L0.453 12.005c0 6.628 6.865 11.995 17.546 11.995 10.743 0 17.547-5.366 17.547-11.996z"/></svg>