<svg fill="#999999" role="img" viewBox="0 0 25 24" xmlns="http://www.w3.org/2000/svg"><title>Mercurial</title><path d="M14.389 0.001a10.655 10.655 0 0 0-1.475 0.08c-7.346 0.908-7.465 8.64-0.99 10.478 7.334 1.11 2.917 6.643 2.29 9.432-0.562 2.501 5.926 2.912 8.928-7.02C24.943 7.781 21.523 0.111 14.389 0.001z m6.395 2.173c-0.022 0.016 0 0.068 0.107 0.182 1.048 1.106 1.543 1.754 2.56 4.015 2.272 5.05-2.245 13.059-5.181 14.722-1.175 0.666-2.663 0.733-3.347 0.674-0.43-0.037-0.848 0.455-0.575 0.898 1.03 1.671 3.673 0.747 5.933-0.863 2.255-1.607 3.795-5.324 4.241-6.967 0.642-2.362 0.73-6.126-0.995-9.292-1.021-1.874-2.017-3.025-2.583-3.323-0.072-0.038-0.139-0.061-0.161-0.046z m-14.297 0.991c-2.019 3.306-0.293 7.941 4.95 9.429 6.883 1.955 1.422 6.319 1.582 9.227 0.16 2.907 5.985 3.962 10.578-3.673 0.056-0.092 0.104-0.188 0.157-0.283-4.591 7.61-10.403 6.556-10.564 3.653-0.16-2.908 5.301-7.274-1.582-9.229-5.085-1.443-6.86-5.843-5.121-9.124z m-0.239 3.014c-0.07 0.056-0.037 0.26 0.002 0.505 0.11 0.685 0.539 1.891 1.385 2.997 1.147 1.5 3.13 2.137 4.668 2.594 1.97 0.584 2.429 1.719 2.655 1.58 0.225-0.139 0.169-1.368-0.499-1.937-0.649-0.553-2.569-1.024-3.495-1.238C9.922 10.439 8.67 9.775 7.775 8.641c-0.895-1.134-1.494-2.488-1.527-2.462zM2.996 8.464c-0.613-0.032-1.326 0.159-1.828 0.615-0.569 0.519-0.728 1.386-0.504 2.089 0.092 0.289 0.327 0.71 0.822 0.781 0.661 0.094 0.796 0.392 1.576 0.237 0.78-0.155 1.37-0.793 1.606-1.5 0.271-0.978-0.133-1.485-0.743-1.936-0.229-0.169-0.561-0.267-0.929-0.286z m1.856 0.766c-0.05-0.03-0.062 0.031 0.018 0.253 0.408 1.123-0.384 2.175-1.067 2.662-0.683 0.486-1.548 0.256-1.901 0.148-0.354-0.108-0.541 0.015-0.526 0.202 0.009 0.105 0.095 0.229 0.252 0.33-0.745-0.368-1.303-1.128-1.391-2.034-0.046-0.475 0.033-0.918 0.223-1.32-0.305 0.469-0.452 1.025-0.394 1.625 0.137 1.41 1.387 2.442 2.796 2.305 0.741-0.073 1.408-0.468 1.819-1.04 0.819-0.889 0.815-2.412 0.387-2.841-0.078-0.139-0.166-0.261-0.216-0.29z m-1.162 0.651c0.225 0.018 0.43 0.122 0.566 0.338 0.394 0.624-0.398 1.44-0.997 1.596-0.635 0.166-0.932 0.005-0.886-0.851 0.029-0.535 0.567-0.993 1.086-1.073a1 1 0 0 1 0.231-0.01z m19.386 0.031c0.19 0.087 0.2 1.682-0.113 2.838-0.541 1.996-2.412 5.084-3.665 6.514-0.961 1.097-2.035 1.555-3.331 1.747-2.696 0.525 0.164-3.962 2.151-3.716 1.987 0.246 4.12-3.87 4.602-6.384 0.147-0.765 0.27-1.039 0.356-0.999z m-18.012 0.645c0.015 0.003 0.026 0.094 0.037 0.218-0.072 1.293-1.261 2.005-1.941 2.099-0.183 0.025-0.507 0.012-0.352-0.128 0.102-0.091 0.615-0.055 1.08-0.305 0.464-0.25 1.016-0.796 1.114-1.573 0.029-0.228 0.047-0.314 0.062-0.311z m4.081 0.115c0.421 0.154 0.761 0.336 1.096 0.439 0.611 0.187 1.325 0.359 1.763 0.445 0.682 0.135 1.392 0.467 1.815 0.607 0.625 0.207 0.906 0.598 0.883 1.053-0.021 0.454-0.239-0.057-0.58-0.286-0.323-0.216-1.093-0.666-2.676-1.185-1.31-0.43-1.976-0.798-2.301-1.073z m15.462 2.196c0.131 0.534-0.721 4.249-3.127 7.389-0.807 1.052-1.909 1.834-2.998 2.379-0.803 0.402-1.393 0.48-2.09 0.585-0.544 0.082-0.948 0.012-0.919-0.34 0.039-0.463 0.588-0.17 1.382-0.362 2.854-0.693 4.092-2.121 5.799-4.804 1.329-2.088 1.909-4.406 1.953-4.847z m-17.083 2.624c-1.038-0.035-2.158 0.409-2.85 1.28-1.496 1.944-0.361 4.104 0.099 4.111 0.46 0.008 0.737 0.073 1.203 0.4 0.921 0.383 2.613 0.141 3.395-0.888 0.782-1.029 0.807-2.448 0.509-3.304-0.364-1.048-1.319-1.563-2.357-1.599z m2.587 1.207c-0.018 0.008-0.018 0.046 0.006 0.12 0.645 1.969 0.049 3.526-1.063 4.328-1.091 0.787-2.59 0.919-3.79 0.297-0.352-0.183-0.498 0.083-0.334 0.234 3.046 2.822 7.63-1.055 5.611-4.478-0.17-0.288-0.378-0.525-0.43-0.501z m-6.343 0.359a3.915 3.915 0 0 0-0.466 3.063c0.547 2.092 2.687 3.345 4.78 2.797a3.915 3.915 0 0 0 2.509-2.033A3.915 3.915 0 0 1 8.253 22.613c-2.092 0.548-4.231-0.704-4.779-2.795a3.915 3.915 0 0 1 0.294-2.76z m5.64 0.632c0.062-0.007 0.106 0.078 0.134 0.295 0.294 2.278-1.273 2.915-1.784 3.049-1.726 0.452-1.924-0.644-0.158-1.23 0.947-0.314 1.54-2.081 1.808-2.114z m1.238 1.64c0.022-0.004 0.017 0.103-0.006 0.26-0.238 1.599-1.75 2.778-3.036 2.822-0.261 0.027-0.603-0.086-0.285-0.153 0.388-0.082 2.643-0.666 3.173-2.521 0.083-0.289 0.132-0.404 0.154-0.408Z"/></svg>