<svg fill="#00B2FF" role="img" viewBox="0 0 24 24" xmlns="http://www.w3.org/2000/svg"><title>Messenger</title><path d="M0.001 11.639C0.001 4.949 5.241 0 12.001 0S24 4.95 24 11.639c0 6.689-5.24 11.638-12 11.638-1.21 0-2.38-0.16-3.47-0.46a0.96 0.96 0 0 0-0.64 0.05l-2.39 1.05a0.96 0.96 0 0 1-1.35-0.85l-0.07-2.14a0.97 0.97 0 0 0-0.32-0.68A11.39 11.389 0 0 1 0.002 11.64z m8.32-2.19l-3.52 5.6c-0.35 0.53 0.32 1.139 0.82 0.75l3.79-2.87c0.26-0.2 0.6-0.2 0.87 0l2.8 2.1c0.84 0.63 2.04 0.4 2.6-0.48l3.52-5.6c0.35-0.53-0.32-1.13-0.82-0.75l-3.79 2.87c-0.25 0.2-0.6 0.2-0.86 0l-2.8-2.1a1.8 1.8 0 0 0-2.61 0.48z"/></svg>