<svg fill="#509EE3" role="img" viewBox="0 0 19 24" xmlns="http://www.w3.org/2000/svg"><title>Metabase</title><path d="M2.885 6.136c0 0.807-0.644 1.461-1.438 1.461s-1.438-0.654-1.438-1.461 0.644-1.461 1.438-1.461 1.438 0.654 1.438 1.461z m-1.438 2.63c-0.794 0-1.438 0.654-1.438 1.461s0.644 1.461 1.438 1.461 1.438-0.654 1.438-1.461-0.644-1.461-1.438-1.461z m5.465-2.63c0 0.807-0.644 1.461-1.438 1.461s-1.438-0.654-1.438-1.461 0.644-1.461 1.438-1.461 1.438 0.654 1.438 1.461z m-0.35 0c0-0.613-0.488-1.111-1.088-1.111s-1.088 0.499-1.088 1.111 0.488 1.111 1.088 1.111 1.088-0.498 1.088-1.111z m-1.088 5.592c0.794 0 1.438-0.654 1.438-1.461s-0.644-1.461-1.438-1.461-1.438 0.654-1.438 1.461 0.643 1.461 1.438 1.461z m5.464-5.592c0 0.807-0.644 1.461-1.438 1.461s-1.438-0.654-1.438-1.461 0.644-1.461 1.438-1.461 1.438 0.654 1.438 1.461z m-0.35 0c0-0.613-0.488-1.111-1.088-1.111s-1.088 0.498-1.088 1.111S8.9 7.247 9.5 7.247s1.088-0.498 1.088-1.111z m0.35-4.675c0 0.807-0.644 1.461-1.438 1.461s-1.438-0.654-1.438-1.461S8.706 0 9.5 0s1.438 0.654 1.438 1.461z m-0.35 0C10.588 0.848 10.1 0.35 9.5 0.35s-1.088 0.498-1.088 1.111S8.9 2.572 9.5 2.572s1.088-0.498 1.088-1.111z m0.35 8.806c0 0.807-0.644 1.461-1.438 1.461s-1.438-0.654-1.438-1.461 0.644-1.461 1.438-1.461 1.438 0.654 1.438 1.461z m-0.35 0c0-0.613-0.488-1.111-1.088-1.111s-1.088 0.498-1.088 1.111 0.488 1.111 1.088 1.111 1.088-0.499 1.088-1.111z m4.376-4.131c0 0.807-0.644 1.461-1.438 1.461s-1.438-0.654-1.438-1.461 0.644-1.461 1.438-1.461 1.438 0.654 1.438 1.461z m-0.35 0c0-0.613-0.488-1.111-1.088-1.111s-1.088 0.498-1.088 1.111 0.488 1.111 1.088 1.111 1.088-0.498 1.088-1.111z m2.939 1.461c0.794 0 1.438-0.654 1.438-1.461s-0.644-1.461-1.438-1.461-1.438 0.654-1.438 1.461 0.644 1.461 1.438 1.461z m-4.027 1.209c-0.794 0-1.438 0.654-1.438 1.461s0.644 1.461 1.438 1.461 1.438-0.654 1.438-1.461-0.643-1.461-1.438-1.461z m4.027 0c-0.794 0-1.438 0.654-1.438 1.461s0.644 1.461 1.438 1.461 1.438-0.654 1.438-1.461-0.644-1.461-1.438-1.461zM1.447 12.857a1.45 1.45 0 0 0-1.438 1.461c0 0.807 0.644 1.461 1.438 1.461s1.438-0.654 1.438-1.461a1.45 1.45 0 0 0-1.438-1.461z m5.465 1.5c0 0.807-0.644 1.461-1.438 1.461s-1.438-0.654-1.438-1.461 0.644-1.461 1.438-1.461 1.438 0.655 1.438 1.461z m-0.35 0c0-0.613-0.488-1.111-1.088-1.111s-1.088 0.498-1.088 1.111 0.488 1.111 1.088 1.111 1.088-0.498 1.088-1.111zM9.5 12.896c-0.794 0-1.438 0.654-1.438 1.461s0.644 1.461 1.438 1.461 1.438-0.654 1.438-1.461-0.644-1.461-1.438-1.461z m5.464 1.461c0 0.807-0.644 1.461-1.438 1.461s-1.438-0.654-1.438-1.461 0.644-1.461 1.438-1.461 1.438 0.655 1.438 1.461z m-0.35 0c0-0.613-0.488-1.111-1.088-1.111s-1.088 0.498-1.088 1.111 0.488 1.111 1.088 1.111 1.088-0.498 1.088-1.111z m2.939-1.461c-0.794 0-1.438 0.654-1.438 1.461s0.644 1.461 1.438 1.461 1.438-0.654 1.438-1.461-0.644-1.461-1.438-1.461zM1.447 16.948c-0.794 0-1.438 0.654-1.438 1.461s0.644 1.461 1.438 1.461 1.438-0.654 1.438-1.461-0.644-1.461-1.438-1.461z m5.465 1.5c0 0.807-0.644 1.461-1.438 1.461s-1.438-0.654-1.438-1.461 0.644-1.461 1.438-1.461 1.438 0.654 1.438 1.461z m-0.35 0c0-0.613-0.488-1.111-1.088-1.111s-1.088 0.498-1.088 1.111 0.488 1.111 1.088 1.111 1.088-0.498 1.088-1.111z m4.376 0c0 0.807-0.644 1.461-1.438 1.461s-1.438-0.654-1.438-1.461 0.644-1.461 1.438-1.461 1.438 0.654 1.438 1.461z m-0.35 0c0-0.613-0.488-1.111-1.088-1.111s-1.088 0.498-1.088 1.111 0.488 1.111 1.088 1.111 1.088-0.498 1.088-1.111z m0.35 4.091c0 0.807-0.644 1.461-1.438 1.461s-1.438-0.654-1.438-1.461 0.644-1.461 1.438-1.461 1.438 0.654 1.438 1.461z m-0.35 0c0-0.613-0.488-1.111-1.088-1.111s-1.088 0.498-1.088 1.111S8.9 23.65 9.5 23.65s1.088-0.498 1.088-1.111z m4.376-4.091c0 0.807-0.644 1.461-1.438 1.461s-1.438-0.654-1.438-1.461 0.644-1.461 1.438-1.461 1.438 0.654 1.438 1.461z m-0.35 0c0-0.613-0.488-1.111-1.088-1.111s-1.088 0.498-1.088 1.111 0.488 1.111 1.088 1.111 1.088-0.498 1.088-1.111z m2.939-1.461c-0.794 0-1.438 0.654-1.438 1.461s0.644 1.461 1.438 1.461 1.438-0.654 1.438-1.461-0.644-1.461-1.438-1.461z"/></svg>