<svg fill="#0467DF" role="img" viewBox="0 0 37 24" xmlns="http://www.w3.org/2000/svg"><title>Meta</title><path d="M10.845 0.002c-2.963 0-5.545 1.927-7.333 4.686C1.494 7.797 0.435 11.824 0.435 15.687c0 1.063 0.105 2.061 0.316 2.97a9.972 9.972 0 0 0 0.399 1.295 7.974 7.974 0 0 0 0.558 1.145c1.048 1.745 2.737 2.901 5.409 2.901 2.254 0 3.964-1.01 5.969-3.679 1.144-1.524 1.722-2.448 4.009-6.503l1.139-2.016 0.28-0.489c0.092 0.151 0.182 0.295 0.275 0.451l3.24 5.412c1.09 1.822 2.507 3.848 3.718 4.989 1.575 1.486 2.999 1.837 4.607 1.837 1.618 0 2.824-0.534 3.696-1.269a5.635 5.635 0 0 0 1.219-1.465c0.816-1.414 1.296-3.202 1.296-5.638 0-4.095-1.025-8.065-3.137-11.216-1.93-2.878-4.452-4.411-7.1-4.41-1.576 0-3.143 0.703-4.596 1.969-0.982 0.858-1.892 1.942-2.74 3.086-1.039-1.317-2.01-2.329-2.947-3.095-1.779-1.454-3.485-1.962-5.2-1.962z m15.295 3.09c1.727 0 3.294 1.141 4.505 3.01 1.704 2.632 2.479 6.315 2.479 9.635 0 2.33-0.554 4.366-2.769 4.365-0.873 0-1.546-0.346-2.505-1.511-0.747-0.905-2.022-2.827-4.263-6.561l-0.929-1.548a67.607 67.607 0 0 0-1.889-2.98c0.105-0.164 0.212-0.337 0.317-0.493 1.686-2.51 3.189-3.917 5.056-3.917z m-15.357 0.833c1.904 0 3.098 1.191 4.027 2.177 0.462 0.492 1.11 1.311 1.858 2.377l-1.536 2.357c-1.14 1.751-2.833 4.542-4.271 6.531-1.793 2.482-2.725 2.735-3.742 2.735-0.789 0-1.563-0.357-2.082-1.195-0.396-0.641-0.699-1.701-0.699-3.08 0-3.344 0.948-6.827 2.499-9.165 0.683-1.034 1.451-1.846 2.308-2.308a3.408 3.408 0 0 1 1.638-0.429z"/></svg>