<svg fill="#DE4F4F" role="img" viewBox="0 0 25 24" xmlns="http://www.w3.org/2000/svg"><title>Meteor</title><path d="M0.261 0l22.348 20.946s0.42 0.586-0.126 1.174c-0.546 0.587-1.261 0.085-1.261 0.085L0.261 0z m6.637 2.099l17.349 15.95s0.421 0.587-0.125 1.175c-0.545 0.587-1.26 0.085-1.26 0.084L6.898 2.099zM2.235 6.591l17.349 15.949s0.42 0.587-0.125 1.175-1.26 0.084-1.26 0.084L2.235 6.591z m10.274-2.688l12.123 11.145s0.293 0.409-0.089 0.821-0.88 0.059-0.88 0.059L12.509 3.903z m-8.738 7.891l12.123 11.144s0.291 0.408-0.09 0.819c-0.382 0.411-0.88 0.06-0.88 0.06L3.771 11.794z m14.47-5.288l5.534 5.054s0.145 0.192-0.045 0.384c-0.189 0.192-0.437 0.028-0.436 0.028l-5.053-5.465v-0.001zM6.562 17.336l5.533 5.054s0.147 0.192-0.043 0.385-0.436 0.027-0.435 0.026l-5.055-5.465z"/></svg>