<svg fill="#255E9C" role="img" viewBox="0 0 40 24" xmlns="http://www.w3.org/2000/svg"><title>Metro de Madrid</title><path d="M20 0L0.165 12l19.835 12L39.835 12 20 0z m0 4.802l5.702 3.449h-11.404L20 4.802zM12.066 9.752h1.299l1.002 2.926 0.932-2.926h1.306v4.245h-0.866l-0.01-3.009-1.036 3.009h-0.714l-1.045-2.984v2.984h-0.87V9.752z m8.719 0.245h0.843l0.002 0.924h0.613v0.567h-0.612v1.52c0 0.288 0.068 0.355 0.351 0.356a1.14 1.14 0 0 0 0.261-0.024v0.662a3.152 3.152 0 0 1-0.493 0.029c-0.517 0-0.965-0.121-0.965-0.732V11.488h-0.507v-0.564h0.507v-0.924z m8.632 0.501l2.479 1.5-2.479 1.501v-3.001zM10.579 10.502v2.996L8.099 12l2.476-1.498z m13.975 0.336a0.57 0.57 0 0 1 0.182 0.028v0.785a1.339 1.339 0 0 0-0.298-0.03c-0.612 0-0.826 0.446-0.826 0.989v1.392h-0.84v-3.08h0.793l0.01 0.571a1.079 1.079 0 0 1 0.979-0.655z m1.863 0c0.959 0 1.582 0.645 1.581 1.623s-0.623 1.62-1.581 1.62c-0.955 0-1.575-0.645-1.576-1.62 0-0.98 0.62-1.62 1.576-1.623z m-7.832 0.003c1.038 0 1.54 0.879 1.481 1.823v0.007h-2.205c0.025 0.537 0.284 0.782 0.752 0.782 0.337 0 0.608-0.208 0.661-0.397h0.738c-0.233 0.726-0.736 1.033-1.427 1.033-0.96 0-1.557-0.673-1.557-1.62 0-0.926 0.631-1.628 1.557-1.628z m-0.02 0.633c-0.532 0-0.688 0.417-0.697 0.655h1.362c-0.074-0.433-0.258-0.655-0.665-0.655z m7.852 0c-0.567 0-0.736 0.496-0.736 0.987 0 0.488 0.169 0.985 0.736 0.985 0.577 0 0.744-0.496 0.743-0.985 0-0.496-0.172-0.987-0.743-0.987zM14.298 15.749h11.404L20 19.198l-5.704-3.449z"/></svg>