<svg fill="#EF4242" role="img" viewBox="0 0 22 24" xmlns="http://www.w3.org/2000/svg"><title>Metro</title><path d="M11 0c-0.655 0-1.31 0.143-1.807 0.43l-7.31 4.22c-0.99 0.574-1.806 1.98-1.806 3.129v8.442c0 1.14 0.813 2.555 1.805 3.128l7.311 4.221c0.994 0.573 2.619 0.573 3.612 0l7.311-4.22c0.994-0.574 1.807-1.982 1.807-3.129V7.779c0-1.14-0.813-2.555-1.807-3.128L12.806 0.43C12.308 0.143 11.653 0 10.998 0z m0.005 2.606c0.29 0 0.577 0.073 0.834 0.209l4.718 2.724-1.76 1.067L11 4.414 7.21 6.602 5.448 5.534l4.71-2.72c0.26-0.137 0.551-0.21 0.847-0.208z m7.577 4.237a0.905 0.905 0 0 1 0.909 0.9c-0.001 2.472 0 5.432-0.008 8.313a1.761 1.761 0 0 1-0.84 1.46l-6.8 3.927a1.694 1.694 0 0 1-0.843 0.215 1.7 1.7 0 0 1-0.844-0.215l-6.802-3.927a1.763 1.763 0 0 1-0.842-1.46V7.75a0.905 0.905 0 0 1 1.376-0.765C6.188 8.381 8.626 9.835 11 11.3c2.375-1.443 4.757-2.897 7.115-4.322a0.895 0.895 0 0 1 0.467-0.135zM4.32 9.355v6.632L11 19.844l6.682-3.857V9.355l-6.213 3.773a0.899 0.899 0 0 1-0.937 0Z"/></svg>