<svg fill="#17377F" role="img" viewBox="0 0 68 24" xmlns="http://www.w3.org/2000/svg"><title>MeWe</title><path d="M8.895 0a2.149 2.149 0 1 0 0 4.299 2.149 2.149 0 0 0 0-4.299z m22.06 0a2.149 2.149 0 1 0 0 4.299 2.149 2.149 0 0 0 0-4.299z m12.353 0a2.149 2.149 0 1 0 0 4.299 2.149 2.149 0 0 0 0-4.299z m12.364 0a2.149 2.149 0 1 0 0 4.301 2.149 2.149 0 0 0 0-4.301z m-12.445 6.456c-0.756 0-1.268 0.49-1.512 1.198l-3.856 11.684-3.926-11.734a1.528 1.528 0 0 0-1.489-1.097c-0.828 0-1.539 0.635-1.539 1.463 0 0.196 0.05 0.414 0.123 0.588l5.051 14.149c0.294 0.781 0.828 1.243 1.562 1.243h0.294c0.73 0 1.29-0.462 1.558-1.243l3.806-11.152 3.806 11.152c0.269 0.781 0.806 1.243 1.54 1.243h0.293c0.73 0 1.293-0.487 1.562-1.243l5.049-14.152a1.727 1.727 0 0 0 0.145-0.61 1.469 1.469 0 0 0-1.486-1.438c-0.733 0-1.245 0.465-1.464 1.071l-3.929 11.76-3.853-11.684c-0.221-0.708-0.756-1.198-1.514-1.198zM1.929 6.529a1.506 1.506 0 0 0-1.511 1.514v14.32c0 0.831 0.635 1.464 1.464 1.463a1.455 1.455 0 0 0 1.488-1.463V12.14l4.148 6.224c0.316 0.487 0.708 0.781 1.242 0.781 0.562 0 0.951-0.294 1.271-0.784l4.17-6.269v10.246a1.511 1.511 0 0 0 1.491 1.488 1.483 1.483 0 0 0 1.511-1.488v-14.295a1.506 1.506 0 0 0-1.511-1.511h-0.319a1.511 1.511 0 0 0-1.366 0.778L8.813 15.434 3.636 7.335a1.581 1.581 0 0 0-1.391-0.806z m23.418 4.027c-3.683 0-6.297 3.025-6.297 6.708v0.05c0 3.974 2.882 6.686 6.613 6.686 2.001 0 3.467-0.66 4.637-1.707a1.287 1.287 0 0 0 0.392-0.904 1.161 1.161 0 0 0-1.172-1.195 1.094 1.094 0 0 0-0.756 0.269 4.632 4.632 0 0 1-3.05 1.119c-1.903 0-3.392-1.17-3.708-3.269h8.073c0.756 0 1.391-0.585 1.391-1.413 0-2.978-2.023-6.344-6.123-6.344z m36.112 0c-3.686 0-6.297 3.025-6.297 6.708v0.05c0 3.974 2.88 6.686 6.613 6.686 2.001 0 3.465-0.66 4.637-1.707a1.287 1.287 0 0 0 0.389-0.904 1.161 1.161 0 0 0-1.169-1.195 1.097 1.097 0 0 0-0.759 0.269 4.623 4.623 0 0 1-3.05 1.119c-1.903 0-3.389-1.17-3.708-3.269h8.076c0.756 0 1.391-0.585 1.391-1.413 0-2.978-2.026-6.344-6.123-6.344z m-36.137 2.415c1.953 0 3.076 1.489 3.271 3.392H21.98c0.269-2.001 1.536-3.392 3.342-3.392z m36.112 0c1.951 0 3.073 1.489 3.268 3.392h-6.612c0.269-2.001 1.539-3.392 3.344-3.392z"/></svg>