<svg fill="#FF0000" role="img" viewBox="0 0 25 24" xmlns="http://www.w3.org/2000/svg"><title>MG</title><path d="M24.793 8.29c-0.016-0.191-0.035-0.382-0.055-0.574-0.017-0.143-0.035-0.285-0.054-0.426a0.615 0.615 0 0 0-0.108-0.253c-0.09-0.114-0.182-0.225-0.276-0.335l-0.38-0.446a43.831 43.831 0 0 0-2.606-2.74A44.429 44.429 0 0 0 18.005 0.641c-0.114-0.091-0.231-0.181-0.349-0.267a0.69 0.69 0 0 0-0.262-0.104 22.697 22.697 0 0 0-1.038-0.106 47.1 47.1 0 0 0-3.854-0.164 47.043 47.043 0 0 0-4.452 0.219c-0.147 0.016-0.295 0.031-0.442 0.05a0.69 0.69 0 0 0-0.263 0.104c-0.117 0.088-0.234 0.177-0.35 0.268a44.43 44.43 0 0 0-3.308 2.875A44.11 44.11 0 0 0 0.702 6.701c-0.093 0.111-0.187 0.223-0.278 0.336a0.633 0.633 0 0 0-0.109 0.253c-0.02 0.142-0.036 0.284-0.052 0.425-0.021 0.192-0.039 0.384-0.058 0.575A42.988 42.988 0 0 0 0.036 12.001a42.95 42.95 0 0 0 0.169 3.712l0.059 0.574c0.015 0.143 0.031 0.285 0.052 0.426 0.016 0.09 0.054 0.177 0.108 0.253a24.97 24.97 0 0 0 0.658 0.782 44.224 44.224 0 0 0 2.604 2.738A44.034 44.034 0 0 0 6.995 23.361c0.116 0.09 0.233 0.179 0.35 0.265a0.689 0.689 0 0 0 0.263 0.106l0.442 0.05c0.197 0.019 0.398 0.038 0.596 0.055 1.282 0.107 2.569 0.163 3.856 0.163 1.285 0 2.572-0.056 3.854-0.163 0.2-0.017 0.399-0.036 0.595-0.055 0.15-0.016 0.298-0.032 0.443-0.05a0.686 0.686 0 0 0 0.262-0.106c0.119-0.086 0.236-0.175 0.349-0.265a44.032 44.032 0 0 0 3.31-2.874 44.065 44.065 0 0 0 2.606-2.739l0.38-0.447c0.093-0.11 0.187-0.223 0.276-0.335a0.619 0.619 0 0 0 0.108-0.252c0.019-0.142 0.037-0.284 0.054-0.427A41.509 41.509 0 0 0 24.964 12c0-1.237-0.06-2.476-0.171-3.711m-1.875 6.856c-0.014 0.162-0.03 0.325-0.046 0.487l-0.045 0.362a0.518 0.518 0 0 1-0.093 0.213c-0.076 0.096-0.154 0.192-0.233 0.286l-0.322 0.377a37.215 37.215 0 0 1-2.209 2.321c-0.893 0.859-1.83 1.672-2.804 2.437a8.088 8.088 0 0 1-0.296 0.224 0.572 0.572 0 0 1-0.223 0.09l-0.376 0.042a39.648 39.648 0 0 1-3.77 0.185c-1.091 0-2.181-0.047-3.268-0.137l-0.504-0.047-0.376-0.043a0.568 0.568 0 0 1-0.223-0.09 9.925 9.925 0 0 1-0.296-0.224c-0.132-0.103-0.261-0.208-0.39-0.312a37.242 37.242 0 0 1-2.414-2.125 37.424 37.424 0 0 1-2.207-2.321c-0.189-0.218-0.375-0.439-0.557-0.663a0.535 0.535 0 0 1-0.093-0.213 35.286 35.286 0 0 1-0.093-0.849 36.066 36.066 0 0 1-0.143-3.145c0.003-1.049 0.049-2.098 0.143-3.146 0.016-0.161 0.031-0.323 0.05-0.485 0.012-0.123 0.027-0.241 0.043-0.362a0.526 0.526 0 0 1 0.093-0.214 22.206 22.206 0 0 1 0.557-0.662 37.658 37.658 0 0 1 2.207-2.323 37.704 37.704 0 0 1 2.804-2.437c0.098-0.076 0.196-0.152 0.296-0.226a0.574 0.574 0 0 1 0.223-0.087c0.293-0.036 0.587-0.065 0.88-0.09a40.137 40.137 0 0 1 3.268-0.14 40.293 40.293 0 0 1 3.77 0.187c0.127 0.012 0.252 0.027 0.376 0.042a0.582 0.582 0 0 1 0.223 0.088 27.787 27.787 0 0 1 0.687 0.537 37.642 37.642 0 0 1 2.413 2.126c0.769 0.743 1.506 1.516 2.209 2.323l0.322 0.378c0.08 0.093 0.158 0.188 0.233 0.284a0.519 0.519 0 0 1 0.093 0.213l0.045 0.363c0.016 0.161 0.032 0.324 0.046 0.485 0.095 1.048 0.145 2.097 0.145 3.146 0 1.049-0.05 2.099-0.145 3.145m-1.272-3.116c-0.102-0.01-1.019-0.012-1.513-0.018-0.646-0.005-1.082 0-1.294-0.001-0.062 0-0.071-0.003-0.14 0-0.003 0.049-0.003 0.074-0.005 0.135-0.002 0.045-0.01 0.197-0.019 0.399-0.012 0.339-0.027 0.817-0.019 1.159l0.001 0.119c0.037 0.002 0.64 0.002 1.046 0.005 0.055 0 0.059 0.001 0.115 0.003-0.001 0.028 0 0.054 0.001 0.101 0 0.05-0.057 0.769-0.092 0.976-0.104 0.155-0.169 0.239-0.381 0.474-0.225 0.249-0.266 0.312-0.97 1.022-0.731 0.74-2.114 1.939-2.61 2.351a10.221 10.221 0 0 0-0.315 0.267s0.007-0.252-0.002-0.375c0.019-4.742 0.014-8.109-0.004-13.337 0.008-0.118-0.005-0.217 0-0.361 0.156 0.122 0.162 0.128 0.269 0.216 0.727 0.617 1.494 1.25 2.102 1.86 0.841 0.847 1.201 1.219 1.807 1.935 0.06 0.076 0.072 0.091 0.113 0.156 0.01 0.066 0.01 0.079 0.021 0.163 0.024 0.2 0.064 0.611 0.071 0.723 0.002 0.064 0.009 0.095 0.007 0.156 0.062 0.006 0.104 0 0.166 0.005 0.366 0.006 0.8 0.008 1.213 0.006 0.138-0.001 0.275-0.003 0.405-0.006 0.071 0 0.075 0.002 0.133 0a1.482 1.482 0 0 0 0-0.177 12.797 12.797 0 0 0-0.101-1.342 2.634 2.634 0 0 0-0.033-0.277c-0.052-0.071-0.084-0.104-0.133-0.161A29.272 29.272 0 0 0 19.251 5.789c-1.864-1.788-2.856-2.467-2.856-2.467s-0.08-0.059-0.139-0.099c-0.078-0.015-0.06-0.01-0.135-0.021a32.701 32.701 0 0 0-2.709-0.174c-0.129-0.004-0.166-0.007-0.304-0.001 0.006 0.156 0.002 0.159-0.002 0.277 0.015 6.457-0.021 11.053-0.01 17.464v0.195s0.091 0.008 0.211 0.004c0.762 0 2.251-0.083 2.632-0.145 0.147-0.023 0.227-0.028 0.331-0.059 0.078-0.045 0.119-0.077 0.183-0.13a37.912 37.912 0 0 0 2.717-2.355c1.021-0.977 1.949-2.036 2.171-2.285 0.093-0.103 0.156-0.183 0.266-0.327 0.047-0.172 0.035-0.223 0.056-0.361 0.097-1.118 0.173-1.82 0.174-3.092-0.004-0.066-0.002-0.099-0.007-0.176-0.092-0.005-0.133-0.004-0.184-0.008m-9.908-9.007c-0.158 0.006-0.447-0.003-0.979 0.027-0.558 0.032-0.883 0.066-1.015 0.077-0.076 0.007-0.122 0.007-0.176 0.014-0.023 0.05-0.02 0.044-0.044 0.107-0.809 2.025-1.857 4.835-2.728 6.924-0.044 0.088-0.133 0.312-0.133 0.311s-0.041-0.066-0.145-0.277A88.598 88.598 0 0 0 4.886 7.093c-0.048-0.08-0.133-0.256-0.133-0.255s-0.128 0.137-0.211 0.212c-0.18 0.161-0.836 0.912-0.966 1.086-0.066 0.086-0.088 0.111-0.164 0.218-0.031 0.122-0.037 0.194-0.06 0.328-0.047 0.267-0.159 1.417-0.187 2.963 0.004 1.257 0.079 2.381 0.193 3.633l0.033 0.335s0.142 0.193 0.172 0.227c0.628 0.737 1.086 1.264 1.52 1.707l0.372 0.379s-0.019-0.267-0.026-0.405l-0.025-0.429c-0.085-1.347-0.253-3.619-0.302-4.8-0.008-0.15 0.019-0.856 0.019-0.856l1.81 3.644s0.135-0.327 0.195-0.465c0.727-1.822 1.419-3.456 2.129-5.277 0.049-0.114 0.305-0.8 0.306-0.8s0.007 0.74 0 0.9c-0.035 5.115-0.02 8.041-0.013 10.848l0.001 0.258c0 0.143-0.003 0.162-0.003 0.257 0.188 0.031 0.169 0.031 0.271 0.043 0.329 0.042 0.325 0.053 0.713 0.078 0.4 0.025 0.837 0.036 1.186 0.045 0.089-0.004 0.138-0.004 0.182-0.006 0.003-0.083 0.003-0.123 0.003-0.201-0.03-6.546 0.046-17.572 0.045-17.571s0.003-0.059 0-0.168a2.642 2.642 0 0 0-0.207 0.001"/></svg>