<svg fill="#62BB47" role="img" viewBox="0 0 25 24" xmlns="http://www.w3.org/2000/svg"><title>Microstation</title><path d="M24.868 0c-0.967 0.224-3.181 0.227-3.742 1.185l-0.567 0.951c-1.418 2.42-4.981 11.408-8.434 11.523-3.453 0.116 1.816-11.04 2.339-12.158-2.144 0.504-4.203 0.199-4.974 2.397-0.799 2.28-1.587 4.561-2.435 6.823-1.762 4.671-3.911 9.163-6.837 13.158 0.066-0.089 0.131-0.176-0.086 0.121 2.176-0.435 4.154-0.363 5.457-2.322 1.206-1.813 1.979-3.844 2.796-5.854l0.388-0.956 0.312 0.295c3.11 2.931 5.498 0 7.933-2.287l0.36-0.337 1.363 5.13 3.022-3.241a34.496 34.496 0 0 1-0.735-1.383l-0.038-0.082C18.995 8.642 22.394 3.688 24.725 0.215Z"/></svg>