<svg fill="#FF8800" role="img" viewBox="0 0 25 24" xmlns="http://www.w3.org/2000/svg"><title>Micro.blog</title><path d="M12.5 0C5.9 0 0.5 4.9 0.5 10.95 0.5 17 5.9 21.9 12.5 21.9c1.4 0 2.85-0.25 4.2-0.7 0.15-0.05 0.35 0 0.45 0.1 1 1.35 2.55 2.3 4.25 2.7l0.25-0.1v-0.3a4.65 4.65 0 0 1 0.2-5.9C23.4 15.85 24.5 13.5 24.5 10.95 24.5 4.9 19.05 0 12.5 0z m-0.05 5.2c0.15 0 0.3 0.1 0.35 0.25L14.05 9l3.85 0.1c0.15 0 0.3 0.1 0.35 0.2 0.05 0.15 0 0.3-0.15 0.4L15.05 12l1.1 3.6c0.05 0.15 0 0.3-0.15 0.4h-0.4l-3.15-2.15L9.3 16h-0.4c-0.15-0.1-0.2-0.25-0.15-0.4l1.1-3.6L6.8 9.7c-0.15-0.1-0.2-0.25-0.15-0.4 0.05-0.1 0.2-0.2 0.35-0.2l3.85-0.1 1.25-3.55c0.05-0.15 0.2-0.25 0.35-0.25z"/></svg>