<svg fill="#00ED00" role="img" viewBox="0 0 43 24" xmlns="http://www.w3.org/2000/svg"><title>micro:bit</title><path d="M12.5 0A12.014 12.014 0 0 0 0.5 12a12.012 12.012 0 0 0 12 12h18.002A12.011 12.011 0 0 0 42.5 12c0-6.617-5.381-12-11.998-12z m0 4.802h18.002A7.205 7.205 0 0 1 37.7 12a7.208 7.208 0 0 1-7.198 7.203H12.5A7.21 7.21 0 0 1 5.3 12a7.207 7.207 0 0 1 7.2-7.198z m17.794 4.776a2.424 2.424 0 1 0 0.005 4.848 2.424 2.424 0 0 0-0.005-4.848z m-17.791 0a2.424 2.424 0 1 0-0.005 4.849 2.424 2.424 0 0 0 0.005-4.847Z"/></svg>