<svg fill="#0043CE" role="img" viewBox="0 0 29 24" xmlns="http://www.w3.org/2000/svg"><title>Migadu</title><path d="M8.657 0c-4.577 0-8.305 3.663-8.41 8.213 0.002 8.319-0.005 4.595 0 7.035-0.075 4.179 2.859 8.617 8.413 8.752h0.007l0.021-5.121c-0.011-0.009-0.04 0.007-0.028-0.021a3.82 3.82 0 0 1-0.211-0.009c-0.561-0.081-1.049-0.225-1.46-0.431-0.847-0.491-1.448-1.466-1.603-2.395-0.089-2.728 1.985-3.775 3.272-3.724 2.125 0.084 3.391 1.749 3.271 3.866v7.835h5.142v-8.413a3.345 3.345 0 0 1 0.129-0.917c0.355-1.235 1.431-2.213 2.905-2.354h0.455c1.701 0.14 3.006 1.507 3.053 3.229v8.455H28.755c-0.007-2.804 0-5.609 0-8.413 0-4.625-3.739-8.384-8.357-8.413-1.06-0.003-2.191 0.181-3.327 0.661l-0.021-0.011c-0.303-4.369-3.947-7.824-8.393-7.824z m-3.28 9.884a1.216 1.216 0 0 1 1.216 1.216 1.216 1.216 0 0 1-1.216 1.216 1.216 1.216 0 0 1-1.216-1.216 1.216 1.216 0 0 1 1.216-1.216z"/></svg>