<svg fill="#00A1EA" role="img" viewBox="0 0 36 24" xmlns="http://www.w3.org/2000/svg"><title>Milvus</title><path d="M23.304 11.995a6.007 6.007 0 0 1-6.022 6.026c-3.54-0.007-6.075-2.931-6.015-6.119a6.019 6.019 0 0 1 12.037 0.091z m12.693-0.06a1.234 1.234 0 0 1-0.375 0.924q-1.683 1.692-3.371 3.374c-0.123 0.124-0.247 0.15-0.375 0.081-0.136-0.072-0.186-0.181-0.147-0.362a19.145 19.145 0 0 0 0.375-2.439 18.228 18.228 0 0 0 0.042-2.235 17.339 17.339 0 0 0-0.405-3.171 0.382 0.382 0 0 1 0.025-0.319 0.291 0.291 0 0 1 0.41-0.078 0.942 0.942 0 0 1 0.129 0.112l3.26 3.261c0.256 0.255 0.435 0.549 0.434 0.85zM16.839 23.999c-2.835-0.003-5.232-0.847-7.388-2.417a12.475 12.475 0 0 1-1.428-1.224q-1.687-1.668-3.38-3.331l-2.896-2.848c-0.436-0.427-0.874-0.855-1.309-1.286-0.589-0.585-0.58-1.245 0.018-1.825 0.444-0.432 0.885-0.868 1.327-1.302q2.149-2.115 4.3-4.227c0.798-0.783 1.585-1.576 2.406-2.332a11.993 11.993 0 0 1 5.679-2.925A11.501 11.501 0 0 1 16.703 0c2.835 0.022 5.418 0.819 7.669 2.584a11.98 11.98 0 0 1 3.422 4.155 11.35 11.35 0 0 1 1.14 3.834c0.382 3.606-0.621 6.777-3.068 9.467a11.657 11.657 0 0 1-5.891 3.549 13.492 13.492 0 0 1-3.136 0.411z m0.546-3.206a8.728 8.728 0 0 0 0.908-0.054 8.024 8.024 0 0 0 0.569-0.075c2.287-0.42 4.14-1.576 5.556-3.394 1.38-1.767 1.92-3.813 1.752-6.042a8.438 8.438 0 0 0-0.946-3.251c-0.94-1.819-2.394-3.1-4.226-3.969-1.644-0.778-3.372-0.973-5.164-0.696A8.72 8.72 0 0 0 10.995 5.7c-1.287 1.245-2.56 2.503-3.839 3.755-0.639 0.628-1.275 1.261-1.92 1.886-0.411 0.399-0.429 0.882-0.02 1.285q1.206 1.189 2.415 2.375c1.083 1.063 2.16 2.13 3.247 3.188 1.776 1.729 3.906 2.605 6.509 2.607z"/></svg>