<svg fill="#C72E49" role="img" viewBox="0 0 13 24" xmlns="http://www.w3.org/2000/svg"><title>MinIO</title><path d="M7.707 0.006c-0.622-0.048-1.2 0.194-1.621 0.582a2.15 2.15 0 0 0-0.094 3.035l3.409 3.551a3.042 3.042 0 0 1-0.664 4.687l-0.463 0.239V7.285a15.42 15.42 0 0 0-8.018 10.486v0.018l6.549-3.328v7.621L8.279 24V13.682l0.897-0.463a4.443 4.443 0 0 0 1.221-7.029l-3.371-3.526a0.749 0.749 0 0 1 0.037-1.055 0.752 0.752 0 0 1 1.056 0.038l0.467 0.486-0.006 0.006 4.071 4.244a0.057 0.057 0 0 0 0.082 0 0.06 0.06 0 0 0 0-0.07l-3.141-5.143-0.148 0.143 0.148-0.145C8.995 0.393 8.329 0.054 7.707 0.006Zm-0.902 9.865v2.994l-4.152 2.149a13.979 13.979 0 0 1 2.767-3.928 14.178 14.178 0 0 1 1.385-1.215z"/></svg>