<svg fill="#000000" role="img" viewBox="0 0 55 24" xmlns="http://www.w3.org/2000/svg"><title>Mini</title><path d="M0.173 5.561h17.208c1.093-1.706 2.53-3.058 4.312-4.06 1.781-1 3.715-1.501 5.803-1.501 2.087 0 4.025 0.502 5.813 1.506 1.788 1.005 3.223 2.357 4.302 4.055H54.827l-1.704 1.704h-14.573a9.742 9.742 0 0 1 0.681 2.023h11.917l-1.704 1.706h-9.949c0.029 0.44 0.043 0.773 0.043 1 0 0.227-0.014 0.562-0.043 1.002h7.948l-1.705 1.704h-6.507a9.26 9.26 0 0 1-0.681 2.014h5.156l-1.727 1.704H37.611c-1.079 1.7-2.514 3.056-4.302 4.067-1.788 1.01-3.726 1.515-5.813 1.515-2.088 0-4.022-0.503-5.803-1.509-1.782-1.008-3.219-2.366-4.312-4.073H13.021l-1.695-1.704h5.146a9.321 9.321 0 0 1-0.674-2.014H9.296l-1.727-1.704h7.948c-0.029-0.44-0.043-0.775-0.044-1.002 0-0.227 0.014-0.56 0.044-1h-9.929l-1.727-1.706h11.937a9.806 9.806 0 0 1 0.674-2.023H1.877z m17.862 2.439c-0.542 1.271-0.814 2.602-0.814 3.994 0 1.392 0.272 2.724 0.814 3.996 0.542 1.27 1.274 2.367 2.193 3.289 0.92 0.922 2.013 1.655 3.279 2.2 1.267 0.545 2.597 0.817 3.989 0.817 1.39 0 2.721-0.272 3.992-0.817 1.27-0.545 2.366-1.278 3.285-2.2 0.919-0.922 1.651-2.019 2.199-3.289 0.547-1.271 0.82-2.604 0.82-3.996 0-1.391-0.273-2.723-0.82-3.994-0.548-1.271-1.28-2.366-2.199-3.284-0.919-0.918-2.015-1.649-3.285-2.195-1.271-0.545-2.602-0.817-3.992-0.817-1.392 0-2.722 0.272-3.988 0.817-1.267 0.545-2.36 1.277-3.28 2.195-0.919 0.919-1.651 2.014-2.193 3.284z m1.261 6.7h1.065l-0.03-4.037 1.289 4.038 1.184-0.008 1.265-4.009v4.016h1.137v-5.412l-1.601-0.001-1.373 4.316-1.4-4.311-1.536-0.004z m7.135 0h1.128v-5.412h-1.128z m2.353 0h1.086v-3.898l2.161 3.898h1.31v-5.412h-1.065v3.921l-2.161-3.921h-1.331z m5.803 0h1.107v-5.412h-1.107z"/></svg>