<svg fill="#FFFC00" role="img" viewBox="0 0 23 24" xmlns="http://www.w3.org/2000/svg"><title>Miraheze</title><path d="M2.177 12.923l3.768 0.011 1.949 3.369-1.926 3.323H2.166L0.227 16.292l1.95-3.369Zm-0.004-8.6l3.761 0.011 1.944 3.367-1.922 3.326H2.162L0.227 7.69l1.946-3.367Zm14.882 0l3.768 0.011 1.95 3.367-1.928 3.326h-3.801L15.106 7.69l1.949-3.367Zm0 8.6l3.768 0.011 1.95 3.369-1.928 3.323h-3.802l-1.937-3.334 1.949-3.369Zm-7.456 4.373l3.767 0.011 1.951 3.368L13.389 24h-3.801l-1.939-3.336 1.95-3.368Zm0-17.296l3.767 0.011 1.951 3.369-1.928 3.324h-3.801L7.649 3.368 9.599 0Zm0 8.628l3.767 0.011 1.951 3.368-1.928 3.325h-3.801l-1.939-3.336 1.95-3.368Z"/></svg>