<svg fill="#A1CA03" role="img" viewBox="0 0 34 24" xmlns="http://www.w3.org/2000/svg"><title>Misskey</title><path d="M12.639 18.906c-1.468 0.005-2.728-0.889-3.322-1.929-0.318-0.454-0.946-0.616-0.954 0v2.845c0 1.143-0.412 2.131-1.237 2.965-0.801 0.809-1.778 1.213-2.933 1.213-1.13 0-2.108-0.404-2.933-1.214C0.46 21.953 0.059 20.964 0.059 19.822V4.178c0-0.881 0.248-1.678 0.742-2.392 0.518-0.738 1.178-1.251 1.979-1.535a4.018 4.018 0 0 1 1.413-0.251c1.272 0 2.333 0.5 3.18 1.5l4.232 4.964c0.095 0.071 0.371 0.617 1.033 0.616 0.664 0 0.976-0.546 1.07-0.617l4.195-4.963c0.872-1 1.944-1.5 3.217-1.5 0.471 0 0.942 0.083 1.413 0.251 0.8 0.285 1.448 0.797 1.944 1.535 0.517 0.714 0.777 1.512 0.777 2.392V19.822c0 1.143-0.412 2.131-1.237 2.965-0.801 0.809-1.779 1.213-2.933 1.213-1.131 0-2.108-0.404-2.934-1.214-0.8-0.833-1.201-1.821-1.2-2.964v-2.845c-0.07-0.776-0.749-0.287-0.99 0-0.636 1.19-1.855 1.922-3.321 1.929ZM30.337 7.214c-0.99 0-1.837-0.345-2.544-1.035-0.683-0.714-1.025-1.571-1.024-2.571s0.342-1.845 1.024-2.536c0.706-0.714 1.554-1.071 2.544-1.071 0.99 0 1.838 0.357 2.545 1.071 0.706 0.69 1.06 1.536 1.059 2.536 0 1-0.353 1.857-1.059 2.571-0.707 0.69-1.555 1.036-2.545 1.035Zm0.035 0.715c0.99 0 1.826 0.357 2.51 1.071 0.706 0.714 1.06 1.571 1.059 2.572v8.821c0 1-0.353 1.857-1.059 2.571-0.683 0.69-1.52 1.036-2.51 1.036-0.989 0-1.837-0.345-2.544-1.036-0.706-0.714-1.06-1.571-1.059-2.571v-8.821c0-1 0.353-1.857 1.059-2.572 0.706-0.714 1.554-1.071 2.544-1.071Z"/></svg>