<svg fill="#7856FF" role="img" viewBox="0 0 26 24" xmlns="http://www.w3.org/2000/svg"><title>Mixpanel</title><path d="M7.725 9.9h3.2c-0.8-0.5-1.098-1.2-1.5-2.499L8.224 2.95C7.674 0.951 7.225 0 5.024 0H0.427v1.2h0.651c1.348 0 1.5 0.5 1.901 2L4.028 7.101c0.549 1.901 1.401 2.798 3.7 2.799h-0.003Zm7.4 0h3.199c2.3 0 3.098-0.901 3.652-2.799l1.049-3.901c0.4-1.5 0.597-2 1.902-2H25.578V0h-4.549c-2.249 0-2.7 0.901-3.2 2.95l-1.2 4.451c-0.402 1.348-0.705 1.999-1.504 2.499Zm-4.2 4.2h4.2V9.9H10.925v4.2ZM0.422 24h4.602c2.201 0 2.651-0.951 3.2-2.95l1.201-4.451c0.401-1.299 0.7-1.999 1.5-2.499H7.725c-2.3 0-3.152 0.901-3.701 2.799l-1.049 3.901c-0.401 1.5-0.549 1.999-1.902 1.999H0.422v1.201Zm20.596 0h4.552v-1.201h-0.652c-1.299 0-1.5-0.499-1.901-1.999l-1.049-3.901c-0.549-1.901-1.348-2.798-3.651-2.799h-3.192c0.799 0.5 1.091 1.151 1.492 2.499l1.2 4.451c0.5 2.049 0.951 2.95 3.201 2.95Z"/></svg>