<svg fill="#041E42" role="img" viewBox="0 0 45 24" xmlns="http://www.w3.org/2000/svg"><title>MLB</title><path d="M41.054 0a3.687 3.687 0 0 1 3.691 3.389l0.013 0.328v16.558a3.723 3.723 0 0 1-3.427 3.714l-0.279 0.011H3.955a3.715 3.715 0 0 1-2.634-1.087 3.671 3.671 0 0 1-1.066-2.309L0.242 20.274V3.719a3.699 3.699 0 0 1 1.081-2.647 3.739 3.739 0 0 1 2.304-1.057l0.326-0.013h37.101z m-13.911 1.304H3.953a2.434 2.434 0 0 0-1.717 0.696 2.409 2.409 0 0 0-0.694 1.717v16.558a2.378 2.378 0 0 0 0.694 1.711c0.456 0.454 1.074 0.71 1.717 0.712h15.054a171.157 171.157 0 0 0-0.918-1.564H16.305c0-4.455 1.506-6.919 3.309-7.41 0.247-0.045 0.13-1.261-0.186-1.632h-1.04c-0.167 0-0.07-0.313-0.071-0.314l0.846-1.803-0.115-0.493H15.925l2.565-1.794c0.119-4.73 4.971-5.097 7.892-3.127 1.738 1.15 1.87 3.43 1.738 5.005-0.022 0.1-0.453 0.033-0.452 0.033s-0.297 1.738 0.476 1.738h3.41c1.389-0.056 2.73 0.887 2.73 0.887l0.326-1.193-7.467-9.727z m13.911 0h-10.368l5.948 9.942 0.549 0.07 0.347 0.455v0.425l0.375 0.076 0.348 0.473v0.41l0.39 0.068 0.391 0.427v0.946c0.467 0.423 0.994 0.775 1.564 1.044 0.525 0.2 0.584 1.042 0.901 1.49 0.395 0.653 0.937 0.914 0.824 1.279-0.265 0.976-1.265 2.623-2.196 2.701h-3.684v1.577h4.615a2.411 2.411 0 0 0 2.4-2.432V3.717h-0.004a2.383 2.383 0 0 0-2.4-2.411zM7.702 16.46a1.647 1.647 0 0 1-1.183 2.806 1.63 1.63 0 0 1-1.633-1.647 1.647 1.647 0 0 1 2.816-1.159z"/></svg>