<svg fill="#FF9955" role="img" viewBox="0 0 25 24" xmlns="http://www.w3.org/2000/svg"><title>MobX</title><path d="M1.902 0C1.125 0 0.5 0.625 0.5 1.402v21.196C0.5 23.375 1.125 24 1.902 24h21.196c0.777 0 1.402-0.625 1.402-1.402V1.402C24.5 0.625 23.875 0 23.098 0z m2.882 5.465h3.038v13.068H4.784v-0.986h1.863V6.45H4.784z m12.394 0h3.038v0.985h-1.863v11.098h1.863v0.986h-3.038z m-7.856 3.55h1.35c0.108 0.441 0.234 0.914 0.378 1.418 0.153 0.495 0.31 0.99 0.472 1.485 0.171 0.486 0.342 0.958 0.513 1.417 0.171 0.46 0.333 0.869 0.486 1.229 0.153-0.36 0.315-0.77 0.486-1.229 0.171-0.459 0.338-0.931 0.5-1.417 0.17-0.495 0.328-0.99 0.472-1.485 0.153-0.504 0.284-0.977 0.392-1.418h1.296a34.295 34.295 0 0 1-1.242 3.78 56.44 56.44 0 0 1-1.364 3.24h-1.134a63.191 63.191 0 0 1-1.377-3.24 36.226 36.226 0 0 1-1.228-3.78Z"/></svg>