<svg fill="#FF6A33" role="img" viewBox="0 0 25 24" xmlns="http://www.w3.org/2000/svg"><title>Mock Service Worker</title><path d="M5 0A4.49 4.49 0 0 0 0.5 4.5v15A4.49 4.49 0 0 0 5 24h15a4.49 4.49 0 0 0 4.5-4.5v-15A4.49 4.49 0 0 0 20 0Zm1.633 4.43l11.715 0.013c0.623 0.001 1.208 0.26 1.62 0.674 0.414 0.414 0.671 1 0.67 1.623v0.086l-1.224 11.799a2.31 2.31 0 0 1-0.836 1.545 2.293 2.293 0 0 1-3.15-0.246L4.926 8.262a2.31 2.31 0 0 1-0.586-1.657A2.295 2.295 0 0 1 6.633 4.43Zm2.363 3.35l7.334 8.146 0.844-8.137z m1.123 0.501l3.244 0.004 2.92 3.244-0.336 3.227zM5.178 9.287l3.017 3.354-0.369 3.57 3.588 0.004 3.018 3.351-7.78-0.01c-0.623 0-1.208-0.26-1.62-0.673-0.414-0.414-0.671-1-0.67-1.623v-0.086z"/></svg>