<svg fill="#7FEE64" role="img" viewBox="0 0 45 24" xmlns="http://www.w3.org/2000/svg"><title>Modal</title><path d="M9.231 0L0.105 15.736l4.705 8.212h9.424l8.204-14.404 8.421 14.387 9.324 0.069L44.895 15.839l-9.064-15.774-9.468-0.028-3.874 6.715L18.656 0Zm1.562 1.36h7.067l3.444 6.07H14.236Zm17.149 0.04l7.097 0.022 7.891 13.726-6.972-0.05z m-18.327 0.645L13.057 8.107l-7.855 13.79-3.531-6.159Zm17.146 0.027l8.019 13.703-3.531 6.125-8.025-13.705z m-12.528 6.718h7.073l-7.861 13.799H6.377Zm21.723 7.668l6.979 0.051-3.532 6.123-6.98-0.05z"/></svg>