<svg fill="#001729" role="img" viewBox="0 0 48 24" xmlns="http://www.w3.org/2000/svg"><title>Modin</title><path d="M12.974 2.86H17.071a0.711 0.711 0 0 0 0.701-0.701 0.711 0.711 0 0 0-0.701-0.71H12.974a0.711 0.711 0 1 0 0 1.411z m27.922 14.044a3.451 3.451 0 0 0-3.516 3.525 3.516 3.516 0 0 0 3.516 3.562h3.377A3.516 3.516 0 0 0 47.798 20.475a3.46 3.46 0 0 0-3.525-3.525z m3.377-9.817A3.46 3.46 0 0 0 47.798 3.562a3.516 3.516 0 0 0-3.525-3.516h-3.377A3.516 3.516 0 0 0 37.38 3.562a3.451 3.451 0 0 0 3.516 3.525z m-3.377 1.384a3.525 3.525 0 0 0-3.516 3.524 3.451 3.451 0 0 0 3.516 3.525h3.377A3.46 3.46 0 0 0 47.798 11.995a3.525 3.525 0 0 0-3.525-3.515z m-9.689 8.433a3.451 3.451 0 0 0-3.516 3.525 3.506 3.506 0 0 0 3.516 3.562h1.255a3.516 3.516 0 0 0 3.525-3.516 3.46 3.46 0 0 0-3.525-3.571z m1.255-9.817a3.46 3.46 0 0 0 3.525-3.525 3.516 3.516 0 0 0-3.525-3.516h-1.292A3.506 3.506 0 0 0 27.655 3.562a3.451 3.451 0 0 0 3.515 3.525z m-1.292 1.384a3.525 3.525 0 0 0-3.478 3.524 3.451 3.451 0 0 0 3.515 3.525h1.255a3.46 3.46 0 0 0 3.562-3.525 3.525 3.525 0 0 0-3.562-3.524zM7.964 5.702h2.048a0.701 0.701 0 0 0 0.711-0.701 0.72 0.72 0 0 0-0.711-0.71H8.001a0.701 0.701 0 0 0 0 1.402z m-6.247-4.226h0.535a0.701 0.701 0 0 0 0.711-0.701 0.72 0.72 0 0 0-0.711-0.71H1.717a0.701 0.701 0 0 0 0 1.402z m11.257 19.654H17.071a0.701 0.701 0 0 1 0.701 0.702 0.711 0.711 0 0 1-0.701 0.71H12.974a0.711 0.711 0 1 1 0-1.412z m-4.973-2.814h2.048a0.701 0.701 0 1 1 0 1.403h-2.048a0.701 0.701 0 0 1 0-1.403z m-6.247 4.226h0.535a0.701 0.701 0 0 1 0.711 0.701 0.72 0.72 0 0 1-0.711 0.711H1.754a0.701 0.701 0 0 1 0-1.403z m3.146 1.449h17.901a3.516 3.516 0 0 0 3.516-3.516 3.451 3.451 0 0 0-3.516-3.525H3.562a0.711 0.711 0 0 0 0 1.412h1.846a0.701 0.701 0 0 1 0 1.403H0.831a0.711 0.711 0 0 0 0 1.411H10.455a0.711 0.711 0 0 1 0 1.412H4.919a0.701 0.701 0 0 0-0.674 0.701 0.711 0.711 0 0 0 0.701 0.711Zm8.074-12.669H17.071a0.701 0.701 0 0 0 0.701-0.701 0.711 0.711 0 0 0-0.701-0.711H12.974a0.72 0.72 0 0 0-0.71 0.711 0.711 0.711 0 0 0 0.71 0.701z m-4.973 2.823h2.048a0.711 0.711 0 1 0 0-1.411h-2.048a0.701 0.701 0 0 0-0.702 0.701 0.711 0.711 0 0 0 0.702 0.71z m-6.247-4.226h0.535a0.701 0.701 0 1 0 0-1.402H1.754a0.711 0.711 0 0 0-0.702 0.701 0.711 0.711 0 0 0 0.702 0.71z m3.146-1.412h17.901a3.525 3.525 0 0 1 3.516 3.488 3.451 3.451 0 0 1-3.516 3.525H3.562a0.701 0.701 0 0 1 0-1.402h1.846a0.711 0.711 0 0 0 0.701-0.711 0.711 0.711 0 0 0-0.701-0.701H0.831a0.711 0.711 0 0 1 0-1.412H10.455a0.711 0.711 0 0 0 0-1.412H4.919a0.711 0.711 0 0 1 0-1.411z m0-8.433h17.901a3.516 3.516 0 0 1 3.516 3.515 3.451 3.451 0 0 1-3.516 3.525H3.562a0.711 0.711 0 0 1-0.701-0.701 0.701 0.701 0 0 1 0.674-0.711h1.845a0.701 0.701 0 0 0 0-1.402H0.831a0.711 0.711 0 0 1 0-1.412H10.455a0.711 0.711 0 0 0 0-1.412H4.919a0.701 0.701 0 0 1-0.674-0.701 0.711 0.711 0 0 1 0.655-0.775Z"/></svg>