<svg fill="#3CAFCE" role="img" viewBox="0 0 26 24" xmlns="http://www.w3.org/2000/svg"><title>Moleculer</title><path d="M16.661 0a2.744 2.744 0 0 0-2.743 2.743 2.744 2.744 0 0 0 1.455 2.42L13.861 8.033a3.728 3.728 0 0 0-1.146-0.183 3.728 3.728 0 0 0-3.728 3.728 3.728 3.728 0 0 0 0.09 0.793l-3.01 1.102a3.159 3.159 0 0 0-2.673-1.479A3.159 3.159 0 0 0 0.236 15.151a3.159 3.159 0 0 0 3.159 3.159 3.159 3.159 0 0 0 3.158-3.159 3.159 3.159 0 0 0-0.077-0.674l2.889-1.269a3.728 3.728 0 0 0 3.351 2.097 3.728 3.728 0 0 0 2.265-0.77l2.421 2.305a4.579 4.579 0 0 0-0.797 2.581 4.579 4.579 0 0 0 4.58 4.579A4.579 4.579 0 0 0 25.764 19.422a4.579 4.579 0 0 0-4.579-4.579 4.579 4.579 0 0 0-2.891 1.03l-2.578-2.089a3.728 3.728 0 0 0 0.727-2.206 3.728 3.728 0 0 0-1.618-3.074l1.281-3.075a2.744 2.744 0 0 0 0.555 0.058 2.744 2.744 0 0 0 2.745-2.745 2.744 2.744 0 0 0-2.745-2.742Z"/></svg>