<svg fill="#5A6AB1" role="img" viewBox="0 0 54 24" xmlns="http://www.w3.org/2000/svg"><title>Momenteo</title><path d="M40.203 0.001c-1.337 0.022-2.571 0.72-3.28 1.851-0.775 0.914-7.048 8.869-9.23 11.632l1.705 2.157c2.309-2.91 9.127-11.518 9.454-11.917a1.705 1.705 0 0 1 2.819 0c0.767 0.936 3.619 4.561 6.023 7.594 1.074 1.317 2.063 2.703 2.959 4.149 1.395 2.324-0.88 4.501-1.765 5.475l-7.25-9.132a1.807 1.807 0 0 0-2.786-0.035L31.902 20.548 17.08 1.854a3.953 3.953 0 0 0-6.73 0.054c-0.131 0.149-3.801 4.804-6.66 8.414-1.177 1.562-2.13 2.964-2.625 3.788-2.335 3.9 0.983 7.714 2.761 9.281 0.388 0.357 0.889 0.573 1.417 0.606a1.62 1.62 0 0 0 1.508-0.82l7.008-8.846s6.422 8.12 7.191 9.069a1.426 1.426 0 0 0 2.302-0.011c0.441-0.564 1.694-2.144 3.059-3.862l-1.704-2.148c-1.221 1.538-2.275 2.866-2.511 3.178l-6.948-8.775a1.807 1.807 0 0 0-2.786 0.035l-7.251 9.134c-0.885-0.976-3.155-3.153-1.764-5.477a39.151 39.151 0 0 1 2.961-4.147c2.402-3.035 5.254-6.66 6.023-7.594a1.705 1.705 0 0 1 2.817 0l15.598 19.66a1.426 1.426 0 0 0 2.304 0.011c0.769-0.949 7.191-9.069 7.19-9.069l7.011 8.842a1.62 1.62 0 0 0 1.504 0.818c0.53-0.033 1.032-0.245 1.421-0.606 1.776-1.564 5.094-5.379 2.759-9.281-0.495-0.824-1.448-2.228-2.627-3.788-2.857-3.612-6.527-8.267-6.66-8.417a3.953 3.953 0 0 0-3.445-1.902z"/></svg>