<svg fill="#880000" role="img" viewBox="0 0 63 24" xmlns="http://www.w3.org/2000/svg"><title>Mongoose</title><path d="M36.718 0.002a23.741 23.741 0 0 0-2.094 0.065c-0.565 0.044-1.125 0.187-1.684 0.285 0.593 0.306 1.182 0.552 1.762 0.816 0.583 0.267 1.13 0.601 1.63 1.003-0.656-0.251-1.293-0.539-1.949-0.772a20.85 20.85 0 0 0-4.208-1.091c-0.707-0.096-1.415-0.189-2.122 0.013-0.715 0.202-0.917 0.466-0.985 1.187-0.104 1.192 0.254 2.298 0.728 3.363a11.485 11.485 0 0 0 3.071 4.076c1.013 0.868 2.138 1.55 3.382 2.04 0.352 0.137 0.71 0.267 1.065 0.401l-0.024 0.083c-0.682-0.187-1.379-0.327-2.039-0.57a10.728 10.728 0 0 1-3.166-1.892 10.78 10.78 0 0 1-2.61-3.161 8.888 8.888 0 0 1-1.114-4.169l-0.031 0.013C13.078 0.308 1.446 10.95 0.495 11.844l-0.089 0.037c-0.005 0.013 0 0.026 0.008 0.041L0.404 11.932l0.013-0.005c0.01 0.021 0.026 0.041 0.034 0.062 0.225-0.049 0.448-0.109 0.673-0.14l0.179-0.025c0.84-0.298 1.697-0.531 2.584-0.656 1.254-0.179 2.552-0.412 3.835-0.404 1.213 0.005 2.444 0.192 3.633 0.396 0.334 0.057 0.661 0.135 0.984 0.226 0.868 0.194 1.684 0.544 2.418 1.013l0.156 0.078c1.044 0.492 1.964 1.218 2.689 2.101 0.135 0.148 0.365 0.301 0.485 0.461 0.249 0.295 0.368 0.612 0.785 0.941v-4.501h5.209l2.433 4.491 2.441-4.491h5.364v8.699l0.889-0.586s0.972-2.591 5.483-2.954l5.172-0.166c-0.798-1.651-0.796-1.651-0.412-2.15 0.381-0.492 3.317-0.814 3.835-1.122l7.546-1.524c0.018-0.057 0.039 0.031 0.078 0.018 0.187-0.057 0.381-0.096 0.647-0.158l1.711-0.415c0.109-0.065 0.241-0.088 0.362-0.129 0.798-0.277 1.495-0.635 1.882-1.485 0.376-0.827 0.878-1.596 1.062-2.506 0.057-0.288 0.008-0.539-0.202-0.746-0.251-0.249-0.575-0.358-0.907-0.443-1.091-0.448-2.177-0.907-3.275-1.33-0.676-0.262-1.371-0.479-2.06-0.699a79.226 79.226 0 0 0-2.058-0.63c-0.632-0.187-1.27-0.358-1.907-0.531-0.622-0.171-1.244-0.345-1.866-0.498-0.731-0.181-1.464-0.337-2.195-0.505-0.557-0.13-1.109-0.264-1.668-0.378-0.606-0.122-1.218-0.231-1.83-0.337-0.783-0.137-1.56-0.29-2.345-0.397-0.948-0.13-1.902-0.212-2.853-0.324-0.894-0.104-1.791-0.168-2.69-0.181z m-8.559 1.988a0.399 0.399 0 0 1 0.145 0.018c1.088 0.337 2.151 0.718 3.151 1.272 0.946 0.526 1.801 1.166 2.537 1.959 0.031 0.034 0.052 0.073 0.093 0.13l-1.671-0.76-0.054 0.068 0.958 1.428-0.057 0.057a5.146 5.146 0 0 0-1.723-0.835l-0.052 0.052 1.641 1.918-1.078-0.353-0.044 0.052c0.422 0.7 0.974 1.309 1.503 2.008-0.917-0.518-1.723-1.088-2.478-1.733a11.63 11.63 0 0 1-2.617-3.071c-0.277-0.492-0.521-0.998-0.575-1.57a1.213 1.213 0 0 1 0.028-0.389 0.319 0.319 0 0 1 0.293-0.251z m14.055 1.731c0.399 0.005 0.806-0.016 1.203 0.038 0.72 0.096 1.438 0.238 2.156 0.363 0.409 0.07 0.821 0.135 1.228 0.223 0.77 0.166 1.539 0.345 2.306 0.518 0.508 0.119 1.016 0.238 1.521 0.363l-0.852 0.417c-0.946 0.07-1.894 0.143-2.843 0.148a8.468 8.468 0 0 1-1.749-0.192c-0.726-0.15-1.332-0.508-1.69-1.207-0.052-0.104-0.233-0.163-0.362-0.202-0.466-0.14-0.938-0.259-1.41-0.436 0.163-0.013 0.327-0.036 0.492-0.033z m8.352 6.828l0.013 0.051c-0.207 0.057-0.415 0.109-0.619 0.174-1.179 0.363-2.374 0.689-3.532 1.109-0.726 0.262-1.41 0.648-2.099 1.006-0.604 0.308-0.816 0.834-0.744 1.49 0.049 0.42 0.104 0.84 0.143 1.264a4.628 4.628 0 0 1-0.747-1.816c-0.091-0.438 0.15-0.707 0.467-0.946 0.617-0.461 1.285-0.824 2.013-1.063 0.907-0.303 1.819-0.604 2.744-0.842 0.65-0.168 1.329-0.233 1.996-0.344 0.124-0.021 0.244-0.054 0.365-0.083zM24.091 17.066v6.934h4.843l0.166-0.171v-6.763l-2.514 3.874z"/></svg>