<svg fill="#E2B714" role="img" viewBox="0 0 40 24" xmlns="http://www.w3.org/2000/svg"><title>Monkeytype</title><path d="M33.333 16a1.333 1.333 0 1 1 0 2.667 1.333 1.333 0 0 1 0-2.667ZM14.667 16h8a1.333 1.333 0 1 1 0 2.667H14.667a1.333 1.333 0 1 1 0-2.667ZM12 8a1.333 1.333 0 0 1 1.333 1.333V12a1.333 1.333 0 1 1-2.666 0v-2.667a1.333 1.333 0 0 1 1.333-1.333ZM5.335 9.265A4 4 0 0 1 12 6.353a4 4 0 0 1 6.667 2.98V12a1.333 1.333 0 1 1-2.667 0v-2.667a1.333 1.333 0 1 0-2.667 0V12a1.333 1.333 0 1 1-2.666 0v-2.667a1.333 1.333 0 1 0-2.667 0V12a1.333 1.333 0 1 1-2.667 0v-2.667l0.002-0.068ZM29.333 13.333v4a1.333 1.333 0 1 1-2.666 0v-4h-3.844c-0.822 0-1.49-0.597-1.49-1.333 0-0.737 0.668-1.333 1.49-1.333h10.354c0.822 0 1.49 0.597 1.49 1.333 0 0.737-0.668 1.333-1.49 1.333H29.333ZM28 5.333H33.333a1.333 1.333 0 1 1 0 2.667h-5.333a1.333 1.333 0 1 1 0-2.667ZM6.667 16h2.666a1.333 1.333 0 1 1 0 2.667H6.667a1.333 1.333 0 1 1 0-2.667ZM22 5.333h0.667a1.333 1.333 0 1 1 0 2.667h-0.667a1.333 1.333 0 1 1 0-2.667ZM2.667 16H0V6.667c0-3.68 2.987-6.667 6.667-6.667h26.666c3.68 0 6.667 2.987 6.667 6.667v10.666c0 3.68-2.987 6.667-6.667 6.667H6.667c-3.68 0-6.667-2.987-6.667-6.667v-2.666h2.667v2.666A4 4 0 0 0 6.667 21.333h26.666a4 4 0 0 0 4-4V6.667A4 4 0 0 0 33.333 2.667H6.667a4 4 0 0 0-4 4v9.333Z"/></svg>