<svg fill="#14233C" role="img" viewBox="0 0 27 24" xmlns="http://www.w3.org/2000/svg"><title>Monzo</title><path d="M4.905 0.002a0.491 0.491 0 0 0-0.3 0.144l-4.4 4.4-0.001 0.001c4.304 4.302 8.968 8.967 13.019 13.018v-9.496L5.302 0.147a0.491 0.491 0 0 0-0.397-0.145z m17.158 0a0.491 0.491 0 0 0-0.365 0.144L13.777 8.072v9.495L26.798 4.547c-1.458-1.465-2.933-2.934-4.399-4.4a0.491 0.491 0 0 0-0.334-0.145zM0.202 5.327l0.002 12.14c0 0.326 0.131 0.639 0.361 0.87l5.511 5.514c0.31 0.313 0.842 0.092 0.84-0.348V12.04z m26.594 0.003l-6.716 6.717v11.456c-0.004 0.442 0.532 0.665 0.842 0.348l5.513-5.514c0.23-0.23 0.361-0.543 0.361-0.87z"/></svg>