<svg fill="#00945E" role="img" viewBox="0 0 17 24" xmlns="http://www.w3.org/2000/svg"><title>Moo</title><path d="M8.464 24c-2.525 0-4.801-1.107-6.34-3.138-1.109-1.417-1.661-3.078-1.661-4.86 0-0.555 0.06-1.109 0.185-1.602 0.299-1.785 1.59-4.678 3.93-8.678C6.305 2.767 7.715 0.554 7.789 0.554c0.123-0.246 0.308-0.554 0.675-0.554 0.372 0 0.555 0.308 0.741 0.555 0 0 1.477 2.215 3.199 5.168 2.342 4 3.631 6.893 3.939 8.678 0.131 0.492 0.193 1.045 0.193 1.6 0 1.785-0.555 3.445-1.65 4.861C13.266 22.834 10.924 24 8.464 24z m0-2.092c1.905 0 3.629-0.861 4.801-2.341 0.799-1.044 1.229-2.337 1.229-3.69 0-0.432-0.059-0.801-0.123-1.229-0.246-1.354-1.293-3.692-3.074-6.833-1.357-2.399-2.525-4.121-2.525-4.121l-0.31-0.433-0.254 0.37s-1.171 1.785-2.521 4.125c-1.843 3.149-2.893 5.474-3.072 6.839-0.061 0.431-0.123 0.8-0.123 1.229 0 1.355 0.429 2.587 1.229 3.693 1.11 1.538 2.831 2.399 4.74 2.399l0.003-0.008z"/></svg>