<svg fill="#6F53F3" role="img" viewBox="0 0 25 24" xmlns="http://www.w3.org/2000/svg"><title>Moonrepo</title><path d="M20.064 7.311C20.263 7.834 20.366 8.389 20.368 8.949 20.368 12.497 16.525 14.715 13.452 12.94 12.026 12.117 11.148 10.596 11.148 8.949 11.148 5.604 14.599 3.374 17.649 4.745 15.782 3.315 13.497 2.544 11.146 2.549 5.224 2.551 0.425 7.35 0.42 13.274 0.422 19.196 5.224 23.998 11.146 24 17.068 23.996 21.868 19.195 21.872 13.274 21.874 11.149 21.245 9.076 20.064 7.311ZM15.36 4.617C15.36 8.166 19.202 10.384 22.274 8.61 23.702 7.786 24.58 6.264 24.58 4.617 24.58 1.067 20.739-1.148 17.664 0.623 16.239 1.449 15.36 2.97 15.36 4.617"/></svg>