<svg fill="#007531" role="img" viewBox="0 0 55 24" xmlns="http://www.w3.org/2000/svg"><title>Morrisons</title><path d="M26.399 10.837c0 0.634-0.507 1.184-1.184 1.185a1.157 1.157 0 0 1-1.187-1.185c0-0.634 0.51-1.184 1.187-1.184 0.634 0 1.141 0.55 1.184 1.184m5.25-4.783a1.178 1.178 0 0 1-1.144 1.184 1.175 1.175 0 0 1-1.184-1.141 1.178 1.178 0 0 1 1.141-1.187 1.148 1.148 0 0 1 1.187 1.144m-2.795-3.556c0 1.608-1.397 2.498-1.397 2.498s-1.397-0.89-1.397-2.498 1.397-2.498 1.397-2.498 1.397 0.888 1.397 2.498M22.97 4.91s-0.34 1.608 0.804 2.752c1.144 1.144 2.752 0.763 2.752 0.763s0.34-1.608-0.804-2.752C24.578 4.573 22.97 4.91 22.97 4.91m-1.861 2.668c1.395 0.804 1.481 2.412 1.481 2.412s-1.481 0.763-2.879-0.043c-1.397-0.804-1.481-2.455-1.481-2.455s1.481-0.718 2.876 0.086m-0.717 5.291s0.38 1.608 1.861 2.158c1.524 0.55 2.838-0.464 2.838-0.464s-0.34-1.608-1.864-2.159c-1.524-0.55-2.836 0.464-2.835 0.465m10.073-1.692c-0.677 1.438-2.328 1.649-2.328 1.649s-0.888-1.395-0.21-2.836c0.677-1.438 2.328-1.651 2.328-1.651s0.888 1.354 0.21 2.838m6.308-3.642s-1.481-0.761-2.876 0.043c-1.397 0.804-1.483 2.455-1.484 2.455s1.481 0.761 2.879-0.043c1.397-0.847 1.481-2.455 1.481-2.455m-3.979 7.492c-1.522 0.55-2.836-0.464-2.836-0.464s0.34-1.608 1.864-2.159c1.522-0.55 2.836 0.421 2.835 0.422s-0.34 1.653-1.863 2.201M13.021 23.959c-1.948 0-3.429-1.395-3.429-3.259 0-1.862 1.483-3.261 3.429-3.261 1.948 0 3.429 1.4 3.429 3.261 0 1.864-1.481 3.261-3.429 3.261m0-4.869c-0.888 0-1.565 0.72-1.565 1.651s0.677 1.651 1.565 1.651c0.89 0 1.567-0.72 1.567-1.653 0-0.929-0.677-1.649-1.567-1.649m15.41 4.657v-6.054a0.091 0.091 0 0 0-0.084-0.084h-1.653a0.091 0.091 0 0 0-0.084 0.084v6.054a0.091 0.091 0 0 0 0.086 0.083h1.651a0.091 0.091 0 0 0 0.084-0.083m10.076 0.21c-1.948 0-3.429-1.395-3.429-3.259 0-1.862 1.481-3.261 3.429-3.261s3.429 1.4 3.429 3.261c0 1.864-1.481 3.261-3.429 3.261m0-4.869c-0.89 0-1.567 0.72-1.567 1.651s0.679 1.651 1.567 1.651c0.888 0 1.565-0.72 1.565-1.653 0-0.929-0.677-1.649-1.565-1.649m10.16 4.657v-3.853c0-1.608-0.763-2.412-2.242-2.412-0.722 0-1.44 0.294-1.907 0.845v-0.591a0.091 0.091 0 0 0-0.084-0.086h-1.608a0.091 0.091 0 0 0-0.086 0.086v6.011a0.091 0.091 0 0 0 0.084 0.083h1.653a0.091 0.091 0 0 0 0.084-0.083v-2.795c0-0.254 0.041-0.507 0.083-0.718a1.449 1.449 0 0 1 1.398-1.06c0.55 0 0.761 0.254 0.761 1.017v3.556a0.091 0.091 0 0 0 0.086 0.083h1.651c0.084 0 0.127-0.041 0.127-0.083M8.702 23.832h-1.694a0.091 0.091 0 0 1-0.084-0.083c0-1.905-0.127-4.063-0.213-4.743-0.634 0.89-1.184 1.864-1.608 2.879 0 0.045-0.043 0.045-0.083 0.045h-0.931c-0.045 0-0.086 0-0.086-0.045a14.737 14.737 0 0 0-1.608-2.877c-0.043 0.677-0.213 2.836-0.213 4.741a0.091 0.091 0 0 1-0.084 0.083H0.406A0.091 0.091 0 0 1 0.322 23.749c0-2.582 0.17-5.97 0.635-7.705 0-0.043 0.045-0.043 0.086-0.084h1.313c0.041 0 0.041 0 0.041 0.041 0.847 0.933 1.565 1.991 2.115 3.091a15.378 15.378 0 0 1 2.118-3.091l0.043-0.041h1.314a0.091 0.091 0 0 1 0.083 0.084c0.421 1.735 0.634 5.123 0.634 7.705 0.084 0.043 0.043 0.084 0 0.083m10.457-0.083V21.332c0-0.294 0.041-0.591 0.127-0.888a1.499 1.499 0 0 1 1.438-1.1h0.383l0.041-0.043v-1.651a0.091 0.091 0 0 0-0.084-0.084h-0.213a2.004 2.004 0 0 0-1.692 0.931v-0.761a0.091 0.091 0 0 0-0.086-0.086h-1.608a0.091 0.091 0 0 0-0.084 0.086v6.053a0.091 0.091 0 0 0 0.084 0.084h1.653c0-0.043 0.041-0.084 0.041-0.127m4.53 0.084h-1.654a0.091 0.091 0 0 1-0.083-0.084v-6.053a0.091 0.091 0 0 1 0.086-0.084h1.608a0.091 0.091 0 0 1 0.083 0.084v0.761a2.229 2.229 0 0 1 1.694-0.929h0.213a0.091 0.091 0 0 1 0.084 0.084v1.608c0 0.043 0 0.043-0.043 0.043 0 0-0.041 0.041-0.084 0h-0.296a1.495 1.495 0 0 0-1.439 1.1c-0.086 0.294-0.129 0.591-0.129 0.888v2.415c0.045 0.127 0.045 0.168-0.04 0.167 0.041 0 0 0 0 0m10.751-1.948c0 1.314-0.974 2.034-2.623 2.034-0.974 0-1.737-0.34-2.582-0.933-0.045 0-0.045-0.041-0.045-0.084v-0.043l0.72-1.1c0-0.041 0.045-0.041 0.086-0.041h0.041c0.72 0.464 1.23 0.677 1.864 0.677 0.424 0 0.677-0.127 0.677-0.38v-0.046c0-0.294-0.254-0.421-0.931-0.634l-0.254-0.084c-1.06-0.294-2.034-0.761-2.033-1.947v-0.041c0-1.187 0.974-1.948 2.498-1.948 0.763 0 1.481 0.211 2.16 0.591 0.041 0 0.041 0.045 0.041 0.086v0.043l-0.634 1.228c0 0.041-0.043 0.041-0.086 0.041h-0.041c-0.634-0.294-1.017-0.424-1.44-0.424-0.38 0-0.634 0.17-0.634 0.383v0.041c0 0.297 0.38 0.424 1.014 0.593l0.213 0.084c1.017 0.256 1.988 0.763 1.989 1.904m18.204-1.947l-0.213-0.084c-0.634-0.168-1.015-0.294-1.015-0.591v-0.046c0-0.251 0.254-0.378 0.635-0.378 0.424 0 0.847 0.127 1.44 0.424h0.041c0.043 0 0.043 0 0.086-0.046l0.677-1.098v-0.043c0-0.041 0-0.041-0.043-0.084a4.36 4.36 0 0 0-2.158-0.593c-1.524 0-2.498 0.72-2.498 1.948v0.043c0 1.184 0.974 1.651 2.031 1.947l0.254 0.084c0.634 0.211 0.933 0.34 0.933 0.634v0.043c-0.045 0.254-0.256 0.38-0.68 0.381-0.634 0-1.141-0.211-1.861-0.677h-0.043c-0.041 0-0.041 0-0.084 0.043l-0.72 1.1v0.041c0 0.045 0 0.045 0.043 0.086 0.847 0.593 1.608 0.931 2.582 0.931 1.653 0 2.625-0.72 2.625-1.988v-0.046c-0.043-1.182-1.017-1.692-2.032-2.029m-24.045-4.53c0 0.634-0.507 1.141-1.144 1.142a1.139 1.139 0 0 1-1.141-1.142c0-0.634 0.507-1.144 1.141-1.143 0.634 0.043 1.144 0.507 1.144 1.143"/></svg>