<svg fill="#660066" role="img" viewBox="0 0 25 24" xmlns="http://www.w3.org/2000/svg"><title>MQTT</title><path d="M11.156 24h-9.454A1.213 1.213 0 0 1 0.494 22.793v-9.184h0.072c5.787 0 10.509 4.652 10.59 10.391Zm7.61 0h-4.047C14.636 16.248 8.293 9.977 0.494 9.942V6.036h0.072c9.988 0 18.129 8.048 18.2 17.964Zm4.532 0h-0.97C22.258 12.072 12.495 2.403 0.494 2.368v-1.16C0.494 0.545 1.039 0.001 1.702 0.001h7.644C16.235 2.486 21.761 7.788 24.505 14.51v8.294c0 0.663-0.544 1.196-1.207 1.196ZM17.215 0.001h6.095A1.191 1.191 0 0 1 24.505 1.196v5.916c-0.91-1.243-2.047-2.651-3.159-3.763C20.091 2.106 18.625 0.982 17.216 0Z"/></svg>