<svg fill="#9A8555" role="img" viewBox="0 0 83 24" xmlns="http://www.w3.org/2000/svg"><title>MSI Business</title><path d="M52.58 7.844l13.027 8.326h-9.178l-13.027-8.326h9.178zM19.637 0l-1.51 5.604-0.603 2.24-2.247 8.326-0.603 2.24-1.506 5.59h6.441l1.506-5.59 0.603-2.24 2.244-8.326 0.603-2.24 1.509-5.604H19.637z m20.884 18.41l-1.506 5.59h17.049l8.764-5.59h-24.307z m12.255-18.41l-8.781 5.604h24.421l1.509-5.604h-17.149z m23.642 0l-1.51 5.604-0.603 2.24-2.243 8.326-0.603 2.24-1.506 5.59h6.441l1.506-5.59 0.603-2.24 2.243-8.326 0.604-2.24L82.856 0h-6.438z m-69.805 0l-1.509 5.604-0.603 2.24-2.244 8.326-0.603 2.24L0.144 24h6.442l1.506-5.59 0.603-2.24 2.243-8.326 0.603-2.24 1.51-5.604H6.613z m25.971 0l-1.509 5.604-0.603 2.24-2.244 8.326-0.603 2.24-1.506 5.59h6.441l1.506-5.59 0.603-2.24 2.244-8.326 0.603-2.24 1.51-5.604H32.584z"/></svg>