<svg fill="#0039A6" role="img" viewBox="0 0 22 24" xmlns="http://www.w3.org/2000/svg"><title>MTA</title><path d="M14.171 10.07l-1.293-0.109v6.861l-1.926 0.34-0.004-7.371-1.637-0.145V6.944l4.86 0.85z m3.668 5.884l-1.142 0.198-0.134-1-1.113 0.145-0.14 1.1-1.473 0.26 1.458-8.651 1.385 0.24z m-1.48-2.492l-0.305-2.642h-0.068l-0.31 2.682zM9.991 24c6.59 0 11.932-5.373 11.932-12 0-6.628-5.342-12-11.932-12C5.86 0 2.22 2.112 0.077 5.323l3.307 0.583 0.91 6.965c0.003-0.012 0.066-0.004 0.066-0.004l0.998-6.615 3.309 0.58v10.735l-2.089 0.367V13.32s0.078-1.987 0.032-2.327c0 0-0.09 0.002-0.092-0.005l-1.246 7.18-2.075 0.366L1.672 10.8l-0.092-0.007c-0.032 0.28 0.112 2.707 0.112 2.707v5.298l-1.364 0.24C2.498 22.044 6.016 24 9.991 24z"/></svg>