<svg fill="#AC2E45" role="img" viewBox="0 0 29 24" xmlns="http://www.w3.org/2000/svg"><title>MTR</title><path d="M14.485 0c-2.26 0-4.393 0.382-6.303 1.05C3.503 2.802 0.224 7.034 0.224 12c0 4.933 3.279 9.167 7.958 10.95 1.942 0.669 4.075 1.05 6.335 1.05a19.915 19.915 0 0 0 6.269-1.018C25.465 21.23 28.776 16.966 28.776 12.032V12c0-4.966-3.311-9.198-7.99-10.95a19.385 19.385 0 0 0-6.301-1.05zM13.179 3.978h2.578v4.553c1.814-0.478 3.214-2.101 3.31-4.044l2.579 0.032c-0.19 3.248-2.641 5.889-5.825 6.398v2.133c3.184 0.509 5.634 3.182 5.857 6.429l-2.578 0.034c-0.095-1.943-1.497-3.565-3.31-4.075v4.584h-2.578V15.438a4.491 4.491 0 0 0-3.343 4.075l-2.578-0.034a6.981 6.981 0 0 1 5.856-6.429v-2.1C9.964 10.472 7.481 7.798 7.291 4.553l2.578-0.032A4.415 4.415 0 0 0 13.179 8.562Z"/></svg>