<svg fill="#000000" role="img" viewBox="0 0 25 24" xmlns="http://www.w3.org/2000/svg"><title>MUBI</title><path d="M3.834 0A3.366 3.366 0 0 0 0.467 3.366a3.366 3.366 0 0 0 3.367 3.366A3.366 3.366 0 0 0 7.199 3.366 3.366 3.366 0 0 0 3.834 0Zm8.666 0A3.366 3.366 0 0 0 9.136 3.366 3.366 3.366 0 0 0 12.5 6.731a3.366 3.366 0 0 0 3.366-3.366A3.366 3.366 0 0 0 12.5 0Zm-8.666 8.633A3.366 3.366 0 0 0 0.467 11.999a3.366 3.366 0 0 0 3.367 3.365A3.366 3.366 0 0 0 7.199 11.999a3.366 3.366 0 0 0-3.365-3.366Zm8.666 0A3.366 3.366 0 0 0 9.136 11.999 3.366 3.366 0 0 0 12.5 15.364 3.366 3.366 0 0 0 15.866 11.999 3.366 3.366 0 0 0 12.5 8.633z m8.666 0A3.366 3.366 0 0 0 17.801 11.999a3.366 3.366 0 0 0 3.365 3.365A3.366 3.366 0 0 0 24.533 11.999a3.366 3.366 0 0 0-3.367-3.366Zm-17.332 8.634A3.366 3.366 0 0 0 0.467 20.635a3.366 3.366 0 0 0 3.367 3.365 3.366 3.366 0 0 0 3.365-3.365 3.366 3.366 0 0 0-3.365-3.366Zm8.666 0a3.366 3.366 0 0 0-3.364 3.367A3.366 3.366 0 0 0 12.5 23.999a3.366 3.366 0 0 0 3.366-3.365A3.366 3.366 0 0 0 12.5 17.268z"/></svg>