<svg fill="#007FFF" role="img" viewBox="0 0 28 24" xmlns="http://www.w3.org/2000/svg"><title>MUI</title><path d="M23.52 16.389a0.77 0.77 0 0 0 0.282-0.281 0.77 0.77 0 0 0 0.105-0.386l0.013-4.463a0.77 0.77 0 0 1 0.105-0.385 0.77 0.77 0 0 1 0.283-0.281L26.726 9.201a0.772 0.772 0 0 1 0.385-0.102 0.772 0.772 0 0 1 0.385 0.104 0.772 0.772 0 0 1 0.283 0.281 0.77 0.77 0 0 1 0.103 0.386v8.114a0.772 0.772 0 0 1-0.388 0.669l-9.131 5.245a0.77 0.77 0 0 1-0.766 0l-7.166-4.098a0.772 0.772 0 0 1-0.285-0.282 0.772 0.772 0 0 1-0.104-0.387v-4.092c0-0.005 0.005-0.007 0.009-0.005s0.009 0 0.01-0.006v-0.004c0-0.003 0.002-0.006 0.004-0.009l5.903-3.389c0.005-0.003 0.002-0.012-0.004-0.012a0.006 0.006 0 0 1-0.004-0.002 0.006 0.006 0 0 1-0.001-0.005l0.011-4.011a0.772 0.772 0 0 0-0.385-0.671 0.772 0.772 0 0 0-0.772 0L10.427 9.454a0.772 0.772 0 0 1-0.769 0l-4.401-2.533a0.772 0.772 0 0 0-1.155 0.667v7.25a0.772 0.772 0 0 1-0.385 0.668 0.77 0.77 0 0 1-0.384 0.104 0.772 0.772 0 0 1-0.385-0.102L0.506 14.112a0.772 0.772 0 0 1-0.285-0.282 0.772 0.772 0 0 1-0.104-0.389L0.139 0.769a0.772 0.772 0 0 1 1.155-0.667l8.364 4.804a0.772 0.772 0 0 0 0.769 0l8.363-4.804a0.77 0.77 0 0 1 0.385-0.102 0.77 0.77 0 0 1 0.385 0.104 0.772 0.772 0 0 1 0.282 0.282 0.772 0.772 0 0 1 0.102 0.386V13.447c0 0.135-0.035 0.268-0.103 0.386a0.772 0.772 0 0 1-0.283 0.282l-4.379 2.522a0.772 0.772 0 0 0-0.284 0.284 0.77 0.77 0 0 0-0.103 0.386 0.772 0.772 0 0 0 0.105 0.387 0.77 0.77 0 0 0 0.285 0.282l2.416 1.375a0.775 0.775 0 0 0 0.382 0.101 0.772 0.772 0 0 0 0.384-0.103l5.156-2.961Zm0.507-11.37a0.77 0.77 0 0 0 0.104 0.387 0.77 0.77 0 0 0 0.287 0.282 0.772 0.772 0 0 0 0.775-0.009l2.315-1.388a0.77 0.77 0 0 0 0.274-0.281 0.772 0.772 0 0 0 0.101-0.381V0.802a0.772 0.772 0 0 0-0.105-0.388 0.772 0.772 0 0 0-0.676-0.382 0.772 0.772 0 0 0-0.387 0.109l-2.313 1.388a0.77 0.77 0 0 0-0.276 0.282 0.773 0.773 0 0 0-0.099 0.38v2.829Z"/></svg>