<svg fill="#57B685" role="img" viewBox="0 0 25 24" xmlns="http://www.w3.org/2000/svg"><title>Multisim</title><path d="M20.949 5.714c-0.163 0.326-0.571 0.571-0.98 0.572-0.653 0-1.143-0.49-1.143-1.143s0.49-1.143 1.143-1.143c0.408 0 0.735 0.245 0.98 0.571h3.592V0H0.378v2.776h15.183c0.163-0.326 0.571-0.571 0.98-0.572 0.653 0 1.143 0.49 1.143 1.143S17.194 4.49 16.541 4.49c-0.408 0-0.735-0.245-0.98-0.572H0.378v6.613h2.122V6.449h10.694c0.163-0.326 0.571-0.571 0.98-0.571 0.653 0 1.143 0.49 1.142 1.142s-0.49 1.143-1.142 1.143c-0.408 0-0.735-0.245-0.98-0.571H3.724v3.102h11.919c0.163-0.327 0.571-0.571 0.979-0.572 0.653 0 1.143 0.49 1.143 1.143s-0.49 1.143-1.143 1.143c-0.408 0-0.735-0.245-0.979-0.571H0.378v3.102h6.612c0.163-0.326 0.571-0.571 0.979-0.572 0.653 0 1.143 0.49 1.143 1.143 0 0.653-0.49 1.143-1.143 1.143-0.408 0-0.735-0.245-0.979-0.571H0.378v3.102h7.755c0.163-0.326 0.571-0.571 0.979-0.572 0.653 0 1.143 0.49 1.143 1.143 0 0.653-0.49 1.143-1.143 1.143-0.408 0-0.735-0.245-0.979-0.572H0.378v3.674h12.734v-7.51c-0.326-0.163-0.571-0.571-0.571-0.98 0-0.653 0.49-1.143 1.143-1.143s1.143 0.49 1.142 1.143c0 0.408-0.245 0.735-0.571 0.98v7.51h2.694v-5.714c-0.326-0.163-0.571-0.571-0.571-0.98 0-0.653 0.49-1.143 1.142-1.143s1.143 0.49 1.143 1.143c0 0.408-0.245 0.735-0.571 0.98v5.714h2.694v-8.408c-0.326-0.163-0.571-0.571-0.572-0.98 0-0.653 0.49-1.143 1.143-1.143 0.653 0 1.143 0.49 1.143 1.143 0 0.408-0.245 0.735-0.571 0.98v8.408H24.622V9.959h-3.02c-0.163 0.326-0.571 0.571-0.98 0.572-0.653 0-1.143-0.49-1.142-1.143s0.49-1.143 1.142-1.143c0.408 0 0.735 0.245 0.98 0.571H24.622V5.633l-3.673 0.081z"/></svg>