<svg fill="#000000" role="img" viewBox="0 0 25 24" xmlns="http://www.w3.org/2000/svg"><title>Mumble</title><path d="M12.5 0A12.081 12 0 0 0 0.419 12a12.081 12 0 0 0 12.081 12A12.081 12 0 0 0 24.581 12 12.081 12 0 0 0 12.5 0zM9.946 1.49c0.396 0 0.768 0.211 0.95 0.574-0.013 1.418-0.007 2.838-0.008 4.258v0.001c0.013 0.305-0.019 0.637 0.004 0.958 0.023 0.32 0.103 0.631 0.344 0.885 0.359 0.45 0.948 0.471 1.459 0.449h-0.003 0.003c0.741 0.094 1.478-0.479 1.529-1.233v-0.001c0.013-1.752 0.008-3.502 0-5.253 0.116-0.39 0.566-0.673 0.98-0.621h0.006c1.467-0.109 3.022 0.62 3.686 1.966l0.001 0.002c0.254 0.451 0.33 1.03 0.383 1.506v4.287a3.424 3.424 0 0 0-0.762-0.175l-0.037-0.004V9.371h-0.022v-0.194c0-0.149-0.131-0.267-0.287-0.267h-0.363a0.307 0.307 0 0 0-0.102 0.019c-0.002-1.307 0.007-2.609-0.01-3.922v-0.001a2.227 2.227 0 0 0-0.575-1.367c-0.339-0.37-0.806-0.61-1.339-0.571l-0.03 0.002v4.022c0.105 1.122-0.678 2.274-1.803 2.486-0.747 0.091-1.508 0.028-2.267 0.047h-0.002c-1.192 0.101-2.321-0.886-2.407-2.074-0.027-1.485-0.004-2.972-0.012-4.457v-0.033h-0.032c-0.511-0.006-0.951 0.243-1.268 0.61a2.262 2.262 0 0 0-0.538 1.328C7.406 6.345 7.416 7.681 7.414 9.02a0.293 0.293 0 0 0-0.157-0.045H6.903c-0.155 0-0.282 0.119-0.282 0.267v0.122h-0.007v-0.218l-0.036 0.004a3.417 3.417 0 0 0-0.738 0.167V5.228c0.007-0.373 0.045-0.739 0.14-1.125 0.404-1.584 2.028-2.645 3.628-2.605l0.082 0.003 0.081 0.001h0.003c0.057-0.01 0.115-0.013 0.171-0.013zM17.81 8.98h0.363c0.123 0 0.218 0.089 0.218 0.197v10.808c0 0.108-0.096 0.197-0.219 0.198h-0.363c-0.123 0-0.218-0.09-0.218-0.198V9.177c0-0.109 0.096-0.197 0.219-0.197zM6.903 9.044h0.355c0.04 0 0.08 0.011 0.111 0.03l0.013 0.008a0.187 0.187 0 0 1 0.035 0.028c0.034 0.035 0.054 0.081 0.054 0.132v10.809c0 0.109-0.094 0.197-0.213 0.197H6.903c-0.121 0-0.213-0.089-0.214-0.197V9.242c0-0.109 0.094-0.197 0.214-0.198z m11.644 0.119c0.055 0.007 0.111 0.016 0.165 0.025 2.075 0.358 3.687 2.674 3.687 5.489 0 2.888-1.697 5.252-3.852 5.513zM6.55 9.222v11.026c-2.154-0.261-3.852-2.624-3.851-5.513 0-2.794 1.589-5.097 3.642-5.48l0.011-0.002 0.034-0.006c0.054-0.009 0.109-0.017 0.164-0.025zM18.46 19.936h0.022v0.328l0.036-0.004a3.372 3.372 0 0 0 0.374-0.062 0.196 0.196 0 0 1-0.091 0.174l-0.002 0.001v0.001s-0.622 0.499-0.953 0.712c-0.316 0.188-0.493 0.34-0.763 0.458a1.73 1.73 0 0 1-0.192 0.067 0.864 0.864 0 0 1-0.141 0.032h-2.22a0.135 0.135 0 0 1-0.021-0.002 0.685 0.685 0 0 0 0.053-0.459h2.082s0.128-0.011 0.282-0.085c0.191-0.092 0.393-0.227 0.58-0.35 0.21-0.138 0.406-0.285 0.611-0.438 0.026-0.02 0.05-0.04 0.073-0.06 0.149-0.008 0.27-0.121 0.27-0.265z m-5.722 0.393c0.49 0 0.934 0.116 1.252 0.301 0.319 0.185 0.509 0.436 0.509 0.709 0 0.273-0.191 0.523-0.509 0.71-0.318 0.184-0.762 0.301-1.252 0.301-0.491 0-0.936-0.117-1.254-0.302-0.319-0.184-0.509-0.436-0.509-0.709 0-0.274 0.191-0.524 0.509-0.709 0.318-0.185 0.762-0.302 1.254-0.302z"/></svg>