<svg fill="#C60D0D" role="img" viewBox="0 0 49 24" xmlns="http://www.w3.org/2000/svg"><title>MUO</title><path d="M10.236 0L0.436 9.8v14.134h38.318l9.772-9.774v-14.158Zm10.949 7.159a0.592 0.592 0 0 1 0.63 0.63v7.323h6.016V7.789a0.608 0.608 0 0 1 0.664-0.63 0.592 0.592 0 0 1 0.631 0.63v7.46a1.015 1.015 0 0 1-1.123 1.107h-6.377a1.007 1.007 0 0 1-1.105-1.107V7.789a0.608 0.608 0 0 1 0.662-0.63z m-10.253 0.082a1.197 1.197 0 0 1 0.932 0.441l3.285 3.991L18.404 7.608a0.943 0.943 0 0 1 0.758-0.367h0.329a0.361 0.361 0 0 1 0.367 0.367 0.387 0.387 0 0 1-0.093 0.257L15.813 12.802a0.868 0.868 0 0 1-0.662 0.381 0.888 0.888 0 0 1-0.648-0.371l-2.907-3.515v6.509a0.608 0.608 0 0 1-0.664 0.632 0.592 0.592 0 0 1-0.632-0.632V7.873a0.592 0.592 0 0 1 0.632-0.632z m19.937 0h6.686a1.007 1.007 0 0 1 1.107 1.107v6.899a1.007 1.007 0 0 1-1.107 1.109h-6.686a1.007 1.007 0 0 1-1.107-1.107v-6.899a1.007 1.007 0 0 1 1.107-1.109z m0.186 1.244v6.625h6.313v-6.623z m-11.58 1.171c0.064 0 0.383 0.024 0.383 0.501v5.649a0.608 0.608 0 0 1-0.662 0.632 0.592 0.592 0 0 1-0.632-0.632V10.977a1.185 1.185 0 0 1 0.267-0.758l0.263-0.329 0.024-0.026c0.116-0.116 0.209-0.209 0.357-0.208zM48.564 17.009l-6.99 6.991H48.564Z"/></svg>