<svg fill="#FF4B4B" role="img" viewBox="0 0 31 24" xmlns="http://www.w3.org/2000/svg"><title>Mural</title><path d="M26.413 7.034H30.852v16.961h-4.439V7.034zM7.181 4.444A2.597 2.597 0 0 1 9.774 7.036h4.439a7.04 7.04 0 0 0-7.032-7.032A7.04 7.04 0 0 0 0.148 7.038h4.439a2.597 2.597 0 0 1 2.594-2.594z m2.593 19.555l4.439-0.003V7.036h-4.439v16.961z m11.452-0.007v-4.436h-4.439l-2.575 0.001v4.439l7.014-0.004z m0-16.958a2.597 2.597 0 0 1 2.593-2.593V0a7.04 7.04 0 0 0-7.032 7.032v12.522h4.439V7.034z m5.188 0H30.852a7.04 7.04 0 0 0-7.033-7.033v4.44a2.597 2.597 0 0 1 2.594 2.593zM0.148 23.997h4.439V7.039H0.148V24z"/></svg>