<svg fill="#000000" role="img" viewBox="0 0 27 24" xmlns="http://www.w3.org/2000/svg"><title>MX Linux</title><path d="M13.501 13.448l3.649 4.252-0.835 1.002-2.375-2.807-1.259-1.489 0.82-0.958zM26.861 1.322v21.357c0 0.729-0.591 1.321-1.32 1.321H1.459A1.321 1.321 0 0 1 0.139 22.678V1.321c0-0.729 0.591-1.321 1.32-1.321h24.082c0.729 0 1.321 0.59 1.32 1.321z m-2.495 19.028l-2.356-2.83-2.355-2.829-0.652 0.783-3.619-4.217 5.47-6.38-1.308-1.123-5.3 6.179-5.281-6.154-2.168 1.859 5.567 6.488-0.813 0.948-1.38-1.631-3.768 4.453-3.769 4.454h21.732z"/></svg>