<svg fill="#2E51A2" role="img" viewBox="0 0 60 24" xmlns="http://www.w3.org/2000/svg"><title>MyAnimeList</title><path d="M20.707 0.15v21.002l-5.244-0.007v-13.006l-5.062 5.994-4.96-6.129-0.049 13.178H0.08L0.078 0.15h5.493l4.651 6.346 5.024-6.349 5.461 0.003z m21.514 5.159l0.062 15.796h-5.897l-0.02-7.159h-6.982c0.175 1.244 0.524 3.157 1.04 4.436 0.386 0.95 0.743 1.873 1.454 2.813l-4.252 2.805c-0.87-1.586-1.551-3.334-2.189-5.191a23.18 23.18 0 0 1-1.264-5.434c-0.212-1.87-0.242-3.668 0.266-5.515a9.745 9.745 0 0 1 2.895-4.653c0.78-0.731 1.868-1.247 2.743-1.713 0.875-0.466 1.853-0.658 2.761-0.896a18.464 18.464 0 0 1 2.969-0.456c0.992-0.085 2.76-0.165 5.96-0.07l1.359 4.361H36.259c-1.479 0.02-2.189 0.002-3.344 0.522a5.575 5.575 0 0 0-3.187 4.787l6.64 0.082 0.095-4.513h5.758z m9.954-5.234v16.524l7.747 0.08-1.072 4.426h-11.986V0l5.311 0.075z"/></svg>