<svg fill="#6100A5" role="img" viewBox="0 0 58 24" xmlns="http://www.w3.org/2000/svg"><title>MYOB</title><path d="M47.764 0c-2.179 0-2.547 1.472-2.576 2.207v15.934h1.529c1.245 0.028 1.528-0.764 1.556-1.217v-0.056-0.057c0.962 1.019 2.292 1.585 3.793 1.585 3.255 0 5.915-2.83 5.915-6.509 0-3.736-2.66-6.566-5.915-6.566-1.443 0-2.717 0.538-3.651 1.472V0h-0.651z m0.651 11.887c0-1.981 1.415-3.594 3.17-3.595 1.783 0 3.198 1.557 3.198 3.595 0 2.009-1.415 3.538-3.198 3.537-1.755 0-3.17-1.585-3.17-3.537z m-16.811 0c0 3.736 2.802 6.538 6.254 6.537 3.481 0 6.283-2.802 6.283-6.537 0-3.764-2.802-6.623-6.283-6.623-3.453 0-6.255 2.858-6.254 6.623z m3.198 0c0-2.151 1.387-3.679 3.056-3.679 1.698 0 3.085 1.528 3.085 3.679 0 2.123-1.387 3.594-3.085 3.594-1.67 0-3.057-1.472-3.056-3.594zM9.585 7.047c-0.877-1.104-2.264-1.783-3.962-1.783C2.227 5.264 0.019 7.67 0.019 10.868v7.273h1.047c0.708-0.057 2.094-0.396 2.151-2.49v-4.84c0-1.415 0.991-2.405 2.406-2.405 2.123 0 2.321 1.698 2.321 2.405v7.33h1.047c0.708-0.057 2.094-0.396 2.151-2.462v-4.868c0-1.415 1.019-2.406 2.405-2.405 2.123 0 2.349 1.698 2.349 2.405v7.33h1.047c0.708-0.057 2.123-0.396 2.151-2.519v-4.754c0-3.283-2.038-5.604-5.547-5.604-1.613 0-3 0.679-3.962 1.783z m18.708-0.057l-2.689 7.472-2.915-7.755c-0.425-1.217-1.585-1.16-1.585-1.16H18.613L23.566 17.745c0-0.028 0-0.028-0.028-0.028 0 0 0.028 0 0.028 0.028s0.028 0.057 0.028 0.057L23.566 17.745c0.17 0.481 0.113 0.764-0.028 1.246l-0.114 0.311c-0.566 1.443-1.387 1.84-3.113 1.726v0.029l1.189 2.943c2.236-0.057 3.877-0.792 5.009-3.566l5.944-14.886h-2.236c-0.113 0-1.387 0.028-1.925 1.443z m19.471-6.99c-2.179 0-2.547 1.472-2.575 2.207v15.934h1.528c1.245 0.028 1.528-0.764 1.557-1.217v-0.056-0.057c0.962 1.019 2.292 1.585 3.792 1.585 3.255 0 5.915-2.83 5.915-6.509 0-3.736-2.66-6.566-5.915-6.566-1.443 0-2.717 0.538-3.651 1.471V0h-0.651z m0.651 11.886c0-1.981 1.415-3.594 3.17-3.594 1.783 0 3.198 1.557 3.198 3.594 0 2.009-1.415 3.538-3.198 3.538-1.755 0-3.17-1.585-3.17-3.538z m-16.811 0c0 3.736 2.802 6.538 6.255 6.538 3.481 0 6.283-2.801 6.282-6.538 0-3.764-2.802-6.622-6.282-6.622-3.453 0-6.255 2.858-6.255 6.622z m3.198 0c0-2.151 1.387-3.679 3.057-3.679 1.698 0 3.085 1.528 3.084 3.679 0 2.123-1.387 3.594-3.084 3.595-1.67 0-3.057-1.472-3.057-3.595zM9.585 7.047c-0.877-1.104-2.264-1.783-3.962-1.783C2.227 5.264 0.019 7.67 0.019 10.868v7.274h1.047c0.708-0.057 2.094-0.396 2.151-2.491v-4.84c0-1.415 0.991-2.405 2.406-2.405 2.123 0 2.321 1.698 2.321 2.405v7.331h1.047c0.708-0.057 2.094-0.396 2.151-2.463v-4.868c0-1.415 1.019-2.405 2.405-2.405 2.123 0 2.349 1.698 2.349 2.405v7.331h1.047c0.708-0.057 2.123-0.396 2.151-2.519v-4.755c0-3.283-2.038-5.604-5.547-5.604-1.613 0-3 0.679-3.962 1.783z m18.708-0.056l-2.689 7.471-2.915-7.754c-0.425-1.217-1.585-1.16-1.585-1.161H18.613L23.566 17.745c0-0.028 0-0.028-0.028-0.028 0 0 0.028 0 0.028 0.028s0.028 0.057 0.028 0.057L23.566 17.745c0.17 0.481 0.113 0.764-0.028 1.246l-0.114 0.311c-0.566 1.443-1.387 1.84-3.113 1.726v0.029l1.189 2.943c2.236-0.057 3.877-0.793 5.009-3.566l5.944-14.887h-2.236c-0.113 0-1.387 0.028-1.925 1.444z"/></svg>