<svg fill="#030303" role="img" viewBox="0 0 40 24" xmlns="http://www.w3.org/2000/svg"><title>Myspace</title><path d="M32.781 12.449A6.243 6.243 0 0 0 39.036 6.217c0-3.442-2.801-6.217-6.255-6.217a6.251 6.251 0 0 0-6.254 6.242 6.253 6.253 0 0 0 6.254 6.243z m-14.092 1.155a5.619 5.619 0 0 0 5.628-5.609A5.619 5.619 0 0 0 18.689 2.384a5.635 5.635 0 0 0-5.629 5.629A5.629 5.629 0 0 0 18.689 13.638z m-12.778 1.04c2.801 0 5.067-2.261 5.067-5.047 0-2.792-2.285-5.052-5.086-5.053A5.056 5.056 0 0 0 0.833 9.607c0 2.785 2.272 5.042 5.07 5.042z m0 1.155c-3.211 0-5.57 2.813-5.57 5.726v1.959c0 0.278 0.226 0.508 0.508 0.508h10.124a0.508 0.508 0 0 0 0.507-0.508v-1.959c0-2.914-2.354-5.734-5.567-5.734z m12.778-0.917c-3.571 0-6.192 3.137-6.192 6.374v2.18c0 0.308 0.256 0.564 0.565 0.564h11.255a0.564 0.564 0 0 0 0.56-0.564V21.256c0-3.237-2.618-6.374-6.188-6.374z m14.092-1.011c-3.968 0-6.876 3.483-6.875 7.082v2.42c0 0.344 0.282 0.624 0.626 0.624h12.499c0.344 0 0.627-0.28 0.628-0.624v-2.42c-0.002-3.599-2.909-7.082-6.878-7.082z"/></svg>