<svg fill="#48AC98" role="img" viewBox="0 0 36 24" xmlns="http://www.w3.org/2000/svg"><title>N26</title><path d="M0.434 0v1.749h10.885V0H0.434zM19.01 5.104c-2.977 0-4.447 1.833-4.447 3.929 0 0.343 0.04 0.685 0.135 1.066l2.039 0.198a5.412 5.412 0 0 1-0.132-1.161c0-1.569 1.039-2.322 2.339-2.322 1.268 0 2.206 0.71 2.206 2.419 0 1.736-0.849 2.92-2.143 4.215-1.354 1.351-3.513 2.967-4.555 3.71v1.598h8.98v-1.749h-6.101c1.017-0.703 2.474-1.872 3.122-2.518 0.735-0.736 2.827-2.626 2.827-5.322 0-2.786-1.815-4.062-4.271-4.063z m12.209 0c-2.893 0-5.056 2.221-5.057 7.197 0 4.416 1.805 6.599 4.913 6.599 2.568 0 4.491-1.754 4.491-4.643 0-2.257-1.205-4.488-4.088-4.489-1.61 0-2.758 0.747-3.339 1.849 0-2.606 0.908-4.875 3.065-4.874 1.372 0 1.916 0.788 2.206 2.081l2-0.397c-0.47-2.235-1.891-3.323-4.193-3.323zM0.543 5.249v13.509h1.947v-9.24c0-0.82-0.019-1.315-0.057-1.79h0.038c0.199 0.545 0.436 1.023 0.789 1.644l5.464 9.386h2.473V5.251H9.275v9.237c0 0.82 0.019 1.315 0.059 1.79h-0.041a10.616 10.616 0 0 0-0.786-1.644L3.044 5.249H0.545z m30.474 6.127c1.631 0 2.553 1.203 2.553 2.916 0 1.839-1.05 2.977-2.49 2.977-1.596 0-2.698-1.465-2.889-3.409 0.483-1.659 1.556-2.484 2.826-2.484zM0.434 22.258v1.742h10.885v-1.742H0.434z"/></svg>