<svg fill="#DE3723" role="img" viewBox="0 0 44 24" xmlns="http://www.w3.org/2000/svg"><title>Namecheap</title><path d="M31.551 21.89c0.409 0.727 1.028 1.313 1.776 1.679-0.557 0.27-1.167 0.413-1.785 0.418h-5.533a4.075 4.075 0 0 1-3.529-2.061L12.454 2.103a4.093 4.093 0 0 0-1.756-1.663c0.557-0.276 1.176-0.42 1.797-0.418h5.5c1.461 0.005 2.809 0.79 3.533 2.061l10.023 19.807z m-16.823-13.33L11.668 2.543c-0.377-0.707-1.05-1.185-1.775-1.495-0.368 0.298-0.705 0.631-0.941 1.047-0.332 0.629-7.918 15.595-8.239 16.206a4.048 4.048 0 0 0 7.242 3.605l6.773-13.346z m28.574-2.872a4.048 4.048 0 0 0-2.095-5.329v-0.002a4.045 4.045 0 0 0-1.608-0.337l-0.006-0.02c-1.471 0-2.829 0.799-3.543 2.086l-6.761 13.37 3.046 5.992c0.384 0.72 1.064 1.197 1.8 1.513 0.454-0.361 0.853-0.801 1.091-1.338l8.076-15.935z"/></svg>