<svg fill="#4A90E2" role="img" viewBox="0 0 57 24" xmlns="http://www.w3.org/2000/svg"><title>Nano</title><path d="M52.504 0c-2.206 0-3.999 1.789-3.999 3.999 0 2.997-0.998 3.999-3.998 3.999-2.206 0-3.999 1.788-3.999 3.998 0 2.997-0.998 3.999-3.999 3.999-2.206 0-3.999 1.788-3.998 3.999 0 2.206 1.789 3.999 3.998 3.998 2.206 0 3.999-1.789 3.999-3.998 0-2.997 0.998-3.999 3.999-3.999 2.206 0 3.999-1.789 3.998-3.999 0-2.997 0.998-3.999 3.999-3.998 2.206 0 3.999-1.789 3.999-3.999 0-2.206-1.793-3.999-3.999-3.999z m-32.01 0.004c-2.206 0-3.999 1.789-3.998 3.999 0 2.997-0.998 3.999-3.999 3.999-2.206 0-3.999 1.788-3.998 3.998 0 2.21 1.797 3.999 4.002 3.999S16.5 14.21 16.5 12c0-2.997 1.002-3.999 3.999-3.998s3.999 0.998 3.998 3.998c0 2.21 1.796 3.999 4.003 3.999 2.206 0 3.999-1.788 3.999-3.999 0-2.206-1.788-3.999-4.007-3.998-2.997 0-3.999-0.998-3.998-3.999 0-2.206-1.793-3.999-3.999-3.999z m-15.998 15.999A3.999 3.999 0 0 0 0.497 20.001a3.999 3.999 0 0 0 3.999 3.999 3.999 3.999 0 0 0 3.999-3.999 3.999 3.999 0 0 0-3.999-3.999Z"/></svg>