<svg fill="#00148C" role="img" viewBox="0 0 117 24" xmlns="http://www.w3.org/2000/svg"><title>National Grid</title><path d="M0.342 7.444h1.415v2.012h0.048c0.514-1.401 2.065-2.351 3.703-2.351 3.262 0 4.25 1.721 4.25 4.498v7.497H8.338v-7.27c0-2.011-0.654-3.528-2.946-3.528-2.249 0-3.596 1.721-3.635 3.998v6.8H0.342z m11.956 3.567c0.131-2.729 2.045-3.906 4.696-3.906 2.045 0 4.265 0.63 4.265 3.751v6.189c0 0.543 0.271 0.858 0.834 0.858 0.16 0 0.339-0.048 0.451-0.092v1.197a3.877 3.877 0 0 1-0.921 0.092c-1.439 0-1.662-0.814-1.663-2.035h-0.048c-0.989 1.517-1.997 2.375-4.221 2.374-2.132 0-3.892-1.066-3.892-3.412 0-3.276 3.174-3.388 6.228-3.746 1.168-0.136 1.817-0.296 1.817-1.585 0-1.919-1.367-2.394-3.029-2.394-1.754 0-3.053 0.814-3.102 2.714z m7.546 1.721h-0.039c-0.184 0.339-0.814 0.451-1.192 0.518-2.409 0.426-5.394 0.407-5.394 2.685 0 1.425 1.26 2.307 2.583 2.307 2.157 0 4.071-1.381 4.042-3.659z m6.994-5.288h2.36v1.197h-2.36v7.861c0 0.921 0.136 1.464 1.143 1.537 0.407 0 0.809-0.024 1.212-0.073v1.221c-0.426 0-0.829 0.048-1.26 0.049-1.88 0-2.535-0.63-2.511-2.622v-7.973h-2.025v-1.197h2.025v-3.499h1.416z m6.339 11.656V7.444h-1.42v11.656z m0-13.846v-2.278h-1.42v2.278z m13.095 8.021c0 3.344-1.929 6.165-5.476 6.164-3.557 0-5.486-2.826-5.487-6.164 0-3.344 1.929-6.17 5.482-6.17s5.481 2.826 5.481 6.17m-9.547 0c0 2.481 1.347 4.968 4.071 4.967 2.714 0 4.061-2.486 4.061-4.967 0-2.486-1.347-4.973-4.066-4.973-2.714 0-4.066 2.486-4.066 4.973m11.636-5.831h1.42v2.012h0.049c0.514-1.401 2.06-2.351 3.702-2.351 3.262 0 4.25 1.721 4.251 4.498v7.497h-1.415v-7.27c0-2.011-0.654-3.528-2.947-3.528-2.249 0-3.596 1.721-3.64 3.998v6.8h-1.42z m11.956 3.567c0.141-2.729 2.045-3.906 4.702-3.906 2.04 0 4.265 0.63 4.265 3.751v6.189c0 0.543 0.271 0.858 0.833 0.858a1.309 1.309 0 0 0 0.451-0.092v1.197a3.897 3.897 0 0 1-0.921 0.092c-1.444 0-1.667-0.814-1.667-2.035h-0.044c-0.989 1.517-1.997 2.375-4.226 2.374-2.132 0-3.887-1.066-3.887-3.412 0-3.276 3.17-3.388 6.228-3.746 1.163-0.136 1.817-0.296 1.817-1.585 0-1.919-1.372-2.394-3.034-2.394-1.75 0-3.053 0.814-3.101 2.714z m7.551 1.721h-0.048c-0.174 0.339-0.805 0.451-1.188 0.518-2.404 0.426-5.394 0.407-5.394 2.685 0 1.425 1.26 2.307 2.588 2.307 2.157 0 4.066-1.381 4.042-3.659z m6.446 6.368v-16.129h-1.41v16.129z m13.76-12.019v11.389c0 2.074-0.16 5.53-6.049 5.53-2.472 0-5.074-1.061-5.21-3.616h3.412c0.136 0.611 0.388 1.221 2.205 1.222 1.682 0 2.491-0.814 2.491-2.758v-1.444l-0.043-0.044c-0.514 0.926-1.304 1.808-3.189 1.808-2.874 0-5.147-2.011-5.147-6.213 0-4.153 2.336-6.189 4.962-6.189 2.229 0 3.126 1.309 3.509 2.103h0.049v-1.783z m-5.802 9.421c2.137 0 2.675-1.832 2.675-3.479 0-1.939-0.945-3.523-2.699-3.524-1.163 0-2.472 0.863-2.472 3.659 0 1.536 0.63 3.344 2.496 3.344z m8.496-9.416h3.005v2.079h0.048c0.654-1.221 1.372-2.399 3.286-2.399 0.199 0 0.402 0.024 0.606 0.048v3.204c-0.271-0.044-0.606-0.044-0.901-0.044-2.447 0-2.898 1.536-2.898 2.869v6.252h-3.146z m12.243 12.009v-12.092h-3.141v12.092z m-3.887-16.774l2.311 2.322 2.312-2.326-2.312-2.317zM116.658 19.1h-3.077v-1.512h-0.049c-0.761 1.357-2.152 1.827-3.455 1.827-3.548 0-5.036-3.16-5.036-6.46 0-4.153 2.336-6.189 4.968-6.189a3.829 3.829 0 0 1 3.46 1.875h0.044V2.889H116.658z m-5.796-2.278c2.002 0 2.787-1.677 2.787-3.46 0-1.919-0.538-3.863-2.695-3.863-2.002 0-2.675 1.788-2.675 3.684 0 1.425 0.557 3.635 2.583 3.634z"/></svg>