<svg fill="#65ADF1" role="img" viewBox="0 0 25 24" xmlns="http://www.w3.org/2000/svg"><title>NativeScript</title><path d="M2.27 1.76A5.68 5.68 0 0 1 6.3 0h12.6c1.37 0 2.65 0.6 3.83 1.76A5.43 5.43 0 0 1 24.5 5.7v12.77c0 1.34-0.56 2.58-1.68 3.73A5.77 5.77 0 0 1 18.75 24H6.37a6.3 6.3 0 0 1-4.1-1.57C1.19 21.45 0.6 20.03 0.5 18.13V5.73a5.21 5.21 0 0 1 1.77-3.97z m6.25 8.3l7.93 10.06h2.12c0.49-0.06 0.88-0.2 1.17-0.43 0.3-0.23 0.5-0.56 0.64-1v-4.94c0.08-0.95 0.67-1.54 1.77-1.75-1.1-0.4-1.69-1.02-1.77-1.86V5.42c-0.12-0.44-0.33-0.8-0.64-1.07a1.83 1.83 0 0 0-1.09-0.47H16.5v10.2L8.52 3.87H6.29c-0.56 0.1-0.97 0.3-1.25 0.6S4.58 5.25 4.5 5.9v4.85c-0.35 0.69-0.9 1.1-1.65 1.25 0.85 0.16 1.4 0.61 1.65 1.36v4.77c0.02 0.55 0.2 1 0.54 1.37 0.33 0.36 0.7 0.53 1.1 0.5H8.5l0.02-9.94z"/></svg>