<svg fill="#FF7100" role="img" viewBox="0 0 82 24" xmlns="http://www.w3.org/2000/svg"><title>NBB</title><path d="M9.325 9.189h0.068l0.57 14.76h7.18L22.239 0H15.936l-3.121 14.626h-0.069L12.45 0H5.167L0.068 23.949h6.105z m24.744 2.214l0.034-0.068c1.576-0.334 4.158-1.641 4.956-5.4 0.846-3.957-1.235-5.935-5.423-5.935H23.969l-5.096 23.945h10.028c4.124 0 7.344-2.111 8.384-6.907 1.006-4.83-1.873-5.502-3.22-5.635z m-3.589 5.13c-0.338 1.576-1.208 2.582-2.684 2.582h-1.177l1.139-5.464h1.208c1.549 0 1.849 1.272 1.514 2.882z m1.61-9.39c-0.368 1.743-1.542 2.282-2.415 2.282h-1.006l0.972-4.595h0.908c1.375 0 1.876 0.767 1.541 2.313z m23.298 9.895c1.006-4.83-1.876-5.502-3.22-5.635l0.034-0.068c1.576-0.334 4.158-1.641 4.956-5.4 0.846-3.957-1.235-5.935-5.427-5.935h-9.657l-5.099 23.945h10.028c4.127 0 7.344-2.111 8.385-6.907z m-6.809-0.505c-0.334 1.576-1.208 2.582-2.684 2.582h-1.174l1.143-5.464h1.208c1.542 0 1.842 1.272 1.507 2.882z m1.61-9.39c-0.368 1.743-1.545 2.282-2.415 2.282h-1.003l0.973-4.595h0.907c1.371 0 1.876 0.767 1.535 2.313z m16.953-7.143h-10.066c2.558 2.098 1.74 5.693 1.74 5.693H65.559l7.975 6.334-7.391 6.256h-9.278c-0.399 1.937-2.429 4.857-3.838 5.717h14.149L81.932 12.034z"/></svg>