<svg fill="#222222" role="img" viewBox="0 0 39 24" xmlns="http://www.w3.org/2000/svg"><title>NBC</title><path d="M24.09 0c-2.281 0.011-4.165 1.961-3.921 4.52h1.752s0.816-0.01 1.053 0.548c0 0-2.587 0.994-2.381 2.612l1.611 11.892 5.635-13.683c0.859-2.076-0.1-5.139-2.754-5.772a4.138 4.138 0 0 0-0.995-0.117z m-9.157 0.003a4.147 4.147 0 0 0-1.018 0.117c-2.654 0.629-3.614 3.693-2.754 5.772l5.635 13.683 2.016-14.862c0.356-2.644-1.552-4.686-3.879-4.71zM6.993 6.012c-0.928 0.035-1.833 0.4-2.53 1.069-1.303 1.256-2.317 4.672 0.603 6.745l11.283 7.993-5.41-13.106c-0.792-1.898-2.399-2.758-3.946-2.7z m24.783 0c-1.473 0.033-2.961 0.897-3.715 2.701l-5.407 13.106 11.283-7.993c2.919-2.069 1.902-5.489 0.6-6.745-0.753-0.724-1.753-1.091-2.761-1.069z m3.147 9.392c-0.734 0.012-1.518 0.255-2.304 0.815l-10.986 7.781h13.024c3.04 0 4.974-2.569 4.111-5.654-0.421-1.503-1.969-2.973-3.845-2.942z m-30.846 0.003C2.201 15.377 0.655 16.844 0.232 18.346c-0.863 3.086 1.071 5.654 4.111 5.654h13.024L6.381 16.219c-0.787-0.558-1.57-0.8-2.304-0.812z"/></svg>