<svg fill="#0C1754" role="img" viewBox="0 0 26 24" xmlns="http://www.w3.org/2000/svg"><title>NDR</title><path d="M5.865 19.668l-3.284-5.912v5.913H0.438V9.529h2.25l3.42 6.308V9.53h2.142v10.138z m2.385-10.138V0H9.451v9.53z m0 14.47v-4.332H9.451v4.332zM13.039 9.529c2.507 0 3.8 1.201 3.8 3.526v3.055c0 2.387-1.246 3.557-3.8 3.557H9.451V9.53z m-0.199 8.223c1.217 0 1.809-0.608 1.809-1.854v-2.615c0-1.231-0.607-1.839-1.808-1.839h-1.078v6.308z m10.306 1.916l-1.809-3.892h-1.215v3.891h-2.251V9.53h3.543c2.493 0 3.678 0.988 3.677 3.101 0 1.398-0.516 2.234-1.672 2.736L25.562 19.669z m-1.641-5.731c0.897 0 1.429-0.517 1.429-1.382 0-0.898-0.395-1.232-1.429-1.232H20.077v2.615h1.429z"/></svg>