<svg fill="#1414A0" role="img" viewBox="0 0 90 24" xmlns="http://www.w3.org/2000/svg"><title>NEC</title><path d="M80.607 0.002a52.091 52.091 0 0 0-9.198 0.742c-2.25 0.412-4.368 0.836-6.348 2.137-3.026 1.972-4.035 5.587-4.072 8.977-0.045 3.675 1.061 7.724 4.537 9.524 2.756 1.44 5.763 2.07 8.83 2.34 5.238 0.442 10.469 0.375 15.64-0.337v-3.675c-3.9 0.712-7.901 1.162-11.939 0.57-6.194-0.9-7.237-5.523-7.237-8.572 0-1.691 0.225-3.701 1.808-5.722 2.535-3.243 10-3.585 17.061-2.212V0.564a85.407 85.407 0 0 0-9.082-0.562z m-48.041 0.738v16.672c0.112 2.79 1.106 5.692 6.877 5.928 6.802 0.281 13.274 0.169 20.001-0.09v-3.36c-3.337 0.052-13.075 0.004-13.687 0-2.64-0.157-3.648-0.96-3.742-3.138a120.44 120.44 0 0 1-0.075-3.956h15.663v-3.128h-15.659V3.943h17.181v-3.203zM0.004 0.74v22.495h4.297v-15.951l12.685 14.113c1.537 1.515 2.861 1.792 4.207 1.838h7.556V0.74h-4.312v16.488l-12.712-14.088c-0.87-0.851-2.824-2.4-4.477-2.4z"/></svg>