<svg fill="#4581C3" role="img" viewBox="0 0 26 24" xmlns="http://www.w3.org/2000/svg"><title>Neo4j</title><path d="M10.475 13.307c-0.632 0-1.213 0.213-1.683 0.567l-3.08-2.104a2.78 2.78 0 0 0 0.108-0.757 2.804 2.804 0 0 0-2.8-2.8A2.803 2.803 0 0 0 0.22 11.013a2.803 2.803 0 0 0 2.8 2.8c0.632 0 1.213-0.213 1.682-0.568L7.782 15.349c-0.067 0.241-0.106 0.495-0.107 0.757 0 0.263 0.039 0.515 0.107 0.758l-3.08 2.104a2.777 2.777 0 0 0-1.682-0.568A2.803 2.803 0 0 0 0.22 21.2a2.803 2.803 0 0 0 2.8 2.8 2.803 2.803 0 0 0 2.8-2.8c0-0.263-0.039-0.517-0.108-0.757l3.08-2.104c0.47 0.355 1.051 0.568 1.683 0.567a2.804 2.804 0 0 0 2.8-2.8c0-1.544-1.257-2.8-2.8-2.799ZM17.379 0c-5.027 0-8.4 2.927-8.4 8.607v4.049a3.754 3.754 0 0 1 3.27 0.009v-4.058c0-3.684 2.031-5.577 5.13-5.577s5.13 1.894 5.13 5.577v8.849H25.78V8.607C25.78 2.892 22.406 0 17.379 0Z"/></svg>