<svg fill="#5B69C2" role="img" viewBox="0 0 25 24" xmlns="http://www.w3.org/2000/svg"><title>Neptune</title><path d="M24.514 12c0 6.627-5.379 12-12.014 12-6.635 0-12.014-5.373-12.014-12C0.486 5.373 5.865 0 12.5 0 19.135 0 24.514 5.373 24.514 12Zm-9.681-5.297c-0.755 0-1.145 0.477-1.439 1.056-0.397 0.782-0.606 1.658-0.82 2.639-0.27 1.246-0.496 2.499-0.749 3.749-0.06 0.294-0.094 0.64-0.209 0.917-0.062 0.149-0.211 0.367-0.381 0.198-0.191-0.19-0.257-0.568-0.313-0.829-0.295-1.455-0.573-2.915-0.903-4.363-0.182-0.78-0.428-1.568-0.732-2.343-0.123-0.313-0.297-0.533-0.493-0.682-0.239-0.182-0.511-0.26-0.768-0.27-0.061 0-0.483 0.008-0.89 0.276-0.217 0.143-0.432 0.359-0.582 0.688-0.359 0.745-0.636 1.589-0.873 2.659-0.146 0.656-0.228 1.157-0.266 1.622-0.014 0.17 0.033 0.344 0.126 0.488 0.092 0.146 0.23 0.261 0.387 0.317 0.242 0.087 0.481 0.064 0.678-0.056 0.18-0.111 0.31-0.301 0.362-0.542 0.107-0.497 0.202-1.01 0.293-1.504 0.046-0.249 0.313-1.54 0.376-1.703 0.028-0.091 0.074-0.249 0.162-0.358 0.084-0.103 0.192-0.102 0.27 0.006 0.088 0.122 0.126 0.275 0.162 0.418 0.077 0.304 0.301 1.516 0.571 2.736 0.256 1.184 0.5 2.371 0.808 3.543 0.141 0.533 0.393 1.002 0.581 1.303 0.244 0.391 0.633 0.619 1.063 0.627 0.344 0.011 0.668-0.106 0.945-0.324 0.269-0.213 0.495-0.526 0.649-0.919 0.393-1.003 0.613-2.1 0.827-3.164 0.36-1.823 0.54-2.731 0.622-3.129 0.026-0.125 0.176-0.754 0.217-0.864 0.033-0.124 0.076-0.206 0.125-0.256 0.064-0.065 0.169-0.08 0.237-0.014 0.178 0.173 0.326 0.812 0.446 1.412 0.112 0.585 0.241 1.166 0.359 1.75 0.199 0.968 0.397 1.936 0.609 2.902 0.185 0.853 0.424 1.45 0.768 1.938 0.258 0.365 0.565 0.577 0.898 0.645 0.333 0.068 0.697-0.007 1.075-0.243 0.32-0.199 0.606-0.547 0.78-0.964 0.274-0.653 0.433-1.424 0.579-2.184 0.058-0.305 0.115-0.61 0.174-0.901 0.082-0.394 0.116-0.647 0.096-0.935-0.024-0.332-0.315-0.697-0.7-0.704-0.5-0.013-0.76 0.242-0.847 0.706-0.149 0.803-0.298 1.605-0.451 2.407-0.051 0.26-0.021 0.578-0.212 0.788-0.029 0.028-0.119 0.109-0.236 0.088-0.075-0.013-0.173-0.078-0.252-0.248-0.154-0.431-0.525-2.646-1.054-4.961-0.181-0.78-0.428-1.578-0.734-2.374-0.268-0.691-0.686-1.044-1.341-1.044Zm-9.56 8.437c-0.648 0-1.173 0.535-1.174 1.195 0 0.656 0.549 1.197 1.174 1.197 0.597 0 1.173-0.537 1.173-1.197s-0.525-1.195-1.173-1.195z"/></svg>