<svg fill="#E0234E" role="img" viewBox="0 0 25 24" xmlns="http://www.w3.org/2000/svg"><title>NestJS</title><path d="M14.639 0c-0.174 0-0.335 0.037-0.485 0.087 0.317 0.211 0.492 0.492 0.579 0.81 0.007 0.043 0.019 0.074 0.025 0.117a0.684 0.684 0 0 1 0.013 0.112c0.024 0.547-0.144 0.616-0.261 0.94-0.181 0.417-0.131 0.864 0.086 1.225a0.743 0.743 0 0 0 0.074 0.137c-0.236-1.574 1.077-1.81 1.32-2.302 0.019-0.43-0.335-0.716-0.616-0.914a1.375 1.375 0 0 0-0.735-0.211zM16.618 0.354c-0.024 0.144-0.006 0.106-0.012 0.181-0.006 0.05-0.006 0.112-0.012 0.162-0.013 0.05-0.025 0.1-0.044 0.149-0.012 0.05-0.03 0.1-0.05 0.15l-0.068 0.142c-0.02 0.025-0.031 0.05-0.05 0.076l-0.037 0.055a2.16 2.16 0 0 1-0.093 0.124c-0.037 0.038-0.068 0.081-0.113 0.113v0.006c-0.037 0.031-0.074 0.068-0.118 0.1-0.131 0.099-0.279 0.174-0.417 0.267-0.043 0.03-0.087 0.056-0.124 0.094a0.91 0.91 0 0 0-0.119 0.099c-0.043 0.037-0.074 0.074-0.111 0.119-0.031 0.037-0.068 0.08-0.094 0.124a1.588 1.588 0 0 0-0.087 0.131c-0.025 0.05-0.043 0.093-0.068 0.142-0.019 0.05-0.037 0.093-0.05 0.144a2.015 2.015 0 0 0-0.044 0.155c-0.006 0.025-0.006 0.056-0.012 0.081-0.007 0.025-0.007 0.05-0.013 0.075 0 0.05-0.006 0.105-0.006 0.156 0 0.037 0 0.074 0.006 0.111 0 0.05 0.006 0.1 0.019 0.156 0.006 0.05 0.018 0.1 0.03 0.15 0.02 0.049 0.032 0.098 0.051 0.149 0.013 0.03 0.031 0.062 0.044 0.087l-1.432-0.554c-0.242-0.068-0.479-0.131-0.722-0.187l-0.391-0.093c-0.373-0.074-0.753-0.131-1.133-0.168-0.013 0-0.019-0.006-0.031-0.006A11.126 11.126 0 0 0 9.388 2.819c-0.379 0.025-0.759 0.074-1.139 0.137a12.499 12.499 0 0 0-0.84 0.174l-0.28 0.075c-0.092 0.037-0.181 0.08-0.267 0.118l-0.206 0.093c-0.012 0.006-0.024 0.006-0.03 0.012-0.063 0.031-0.118 0.056-0.175 0.088a2.749 2.749 0 0 0-0.237 0.118c-0.043 0.018-0.086 0.043-0.124 0.062a0.561 0.561 0 0 1-0.055 0.031c-0.056 0.032-0.112 0.063-0.163 0.094a1.566 1.566 0 0 0-0.149 0.093c-0.044 0.03-0.087 0.055-0.124 0.087-0.006 0.007-0.013 0.007-0.019 0.013-0.037 0.025-0.08 0.056-0.119 0.087l-0.012 0.012-0.093 0.074c-0.012 0.007-0.025 0.019-0.037 0.025-0.031 0.025-0.062 0.056-0.094 0.081-0.006 0.013-0.019 0.02-0.025 0.025-0.037 0.038-0.074 0.069-0.111 0.106-0.007 0-0.007 0.006-0.013 0.012a1.749 1.749 0 0 0-0.112 0.107c-0.007 0.006-0.007 0.012-0.013 0.012a1.46 1.46 0 0 0-0.093 0.1c-0.012 0.012-0.03 0.024-0.043 0.036a1.379 1.379 0 0 1-0.107 0.113c-0.006 0.012-0.018 0.019-0.024 0.03-0.05 0.05-0.093 0.1-0.143 0.151l-0.018 0.018c-0.1 0.106-0.206 0.212-0.319 0.305-0.111 0.1-0.23 0.193-0.348 0.274a3.792 3.792 0 0 1-0.765 0.423c-0.131 0.056-0.268 0.106-0.404 0.149-0.261 0.056-0.529 0.162-0.759 0.181-0.05 0-0.105 0.012-0.156 0.018l-0.156 0.037-0.149 0.056c-0.05 0.019-0.099 0.044-0.149 0.069-0.044 0.031-0.093 0.056-0.137 0.087a1.015 1.015 0 0 0-0.125 0.106c-0.043 0.03-0.087 0.074-0.124 0.112-0.037 0.043-0.074 0.08-0.106 0.124-0.031 0.05-0.068 0.093-0.093 0.144a1.096 1.096 0 0 0-0.087 0.142c-0.025 0.056-0.05 0.106-0.069 0.162-0.019 0.05-0.037 0.106-0.056 0.162-0.012 0.05-0.025 0.1-0.03 0.15 0 0.005-0.007 0.012-0.007 0.018-0.012 0.056-0.012 0.131-0.019 0.168C0.459 7.934 0.453 7.97 0.453 8.014a0.66 0.66 0 0 0 0.074 0.312v0.006c0.019 0.037 0.044 0.075 0.069 0.112 0.024 0.037 0.05 0.074 0.081 0.112 0.031 0.031 0.068 0.069 0.106 0.1a0.91 0.91 0 0 0 0.118 0.099c0.15 0.131 0.187 0.174 0.379 0.273 0.031 0.019 0.062 0.031 0.1 0.051 0.006 0 0.012 0.006 0.018 0.006 0 0.013 0 0.019 0.006 0.031a1.277 1.277 0 0 0 0.081 0.299c0.02 0.037 0.032 0.074 0.05 0.111 0.007 0.013 0.013 0.025 0.02 0.031 0.024 0.05 0.049 0.093 0.073 0.138l0.094 0.13c0.031 0.037 0.069 0.08 0.106 0.119 0.037 0.037 0.074 0.068 0.119 0.105 0 0 0.006 0.006 0.012 0.006 0.037 0.031 0.074 0.062 0.112 0.088a0.99 0.99 0 0 0 0.137 0.08c0.043 0.025 0.093 0.05 0.142 0.069a0.733 0.733 0 0 0 0.125 0.043c0.007 0.006 0.013 0.006 0.025 0.013 0.025 0.007 0.056 0.013 0.08 0.019-0.018 0.336-0.024 0.653 0.026 0.765 0.055 0.124 0.329-0.255 0.603-0.691-0.036 0.43-0.061 0.934 0 1.083 0.069 0.156 0.442-0.33 0.766-0.865 4.412-1.02 8.438 2.028 8.86 6.335-0.08-0.673-0.909-1.045-1.288-0.952-0.187 0.46-0.504 1.051-1.014 1.418 0.043-0.412 0.025-0.833-0.062-1.244a4.025 4.025 0 0 1-0.772 1.568c-0.59 0.043-1.182-0.243-1.493-0.673-0.025-0.018-0.031-0.055-0.05-0.08-0.018-0.043-0.037-0.087-0.05-0.131a0.517 0.517 0 0 1-0.037-0.13c-0.006-0.044-0.006-0.087-0.006-0.138v-0.093a0.996 0.996 0 0 1 0.031-0.131c0.013-0.043 0.025-0.086 0.044-0.13 0.024-0.043 0.043-0.087 0.074-0.131 0.105-0.299 0.105-0.542-0.087-0.684a0.709 0.709 0 0 0-0.119-0.063c-0.024-0.006-0.055-0.018-0.08-0.025l-0.05-0.018a0.85 0.85 0 0 0-0.131-0.031 0.474 0.474 0 0 0-0.13-0.019 1.014 1.014 0 0 0-0.137-0.012c-0.031 0-0.062 0.006-0.093 0.006a0.486 0.486 0 0 0-0.138 0.019c-0.043 0.006-0.086 0.012-0.13 0.024a1.072 1.072 0 0 0-0.131 0.044c-0.043 0.018-0.08 0.037-0.124 0.056-0.037 0.018-0.074 0.043-0.119 0.063-1.45 0.946-0.584 3.16 0.405 3.802-0.373 0.068-0.753 0.149-0.858 0.23l-0.013 0.012c0.268 0.162 0.548 0.299 0.84 0.417 0.399 0.131 0.821 0.248 1.008 0.298v0.006a6.02 6.02 0 0 0 1.568 0.113c2.757-0.193 5.016-2.29 5.426-5.053l0.037 0.162c0.019 0.112 0.043 0.231 0.057 0.348v0.006c0.012 0.056 0.018 0.112 0.025 0.163v0.024c0.006 0.056 0.012 0.112 0.012 0.162 0.006 0.068 0.012 0.137 0.012 0.205v0.101c0 0.03 0.007 0.067 0.007 0.098 0 0.038-0.007 0.075-0.007 0.112v0.088c0 0.043-0.006 0.08-0.006 0.124 0 0.025 0 0.05-0.006 0.081 0 0.044-0.006 0.087-0.006 0.137-0.006 0.018-0.006 0.037-0.006 0.055l-0.02 0.144c0 0.019 0 0.037-0.005 0.056-0.007 0.062-0.019 0.118-0.026 0.181v0.012l-0.037 0.175v0.018l-0.037 0.167c0 0.007-0.007 0.02-0.007 0.025a1.67 1.67 0 0 1-0.043 0.169v0.018c-0.019 0.062-0.037 0.118-0.05 0.175-0.006 0.006-0.006 0.012-0.006 0.012l-0.056 0.187c-0.024 0.062-0.043 0.118-0.069 0.18-0.025 0.062-0.043 0.124-0.068 0.181-0.025 0.062-0.05 0.117-0.074 0.181h-0.007c-0.024 0.055-0.05 0.117-0.081 0.173a0.303 0.303 0 0 1-0.019 0.044c-0.006 0.006-0.006 0.013-0.012 0.019a5.89 5.89 0 0 1-1.749 2.09c-0.05 0.031-0.099 0.069-0.149 0.106-0.012 0.012-0.03 0.018-0.043 0.03a2.613 2.613 0 0 1-0.137 0.095l0.018 0.037h0.007l0.261-0.037h0.006c0.162-0.025 0.323-0.056 0.485-0.088 0.044-0.006 0.093-0.019 0.138-0.031l0.087-0.019c0.043-0.006 0.086-0.018 0.131-0.024 0.037-0.013 0.074-0.02 0.111-0.031 0.622-0.151 1.226-0.355 1.805-0.597a9.965 9.965 0 0 1-3.865 3.154c0.717-0.05 1.432-0.168 2.122-0.367a9.942 9.942 0 0 0 5.88-4.699 9.932 9.932 0 0 1-1.673 4.002 9.796 9.796 0 0 0 1.661-1.382 9.863 9.863 0 0 0 2.62-5.288c0.211 0.984 0.273 1.998 0.181 2.998 4.492-6.266 0.372-12.762-1.351-14.472-0.006-0.013-0.012-0.019-0.012-0.031-0.006 0.006-0.006 0.006-0.006 0.012 0-0.006 0-0.006-0.007-0.012 0 0.074-0.006 0.149-0.012 0.224a8.373 8.373 0 0 1-0.062 0.416c-0.03 0.137-0.068 0.274-0.106 0.412-0.044 0.131-0.093 0.267-0.15 0.397a5.343 5.343 0 0 1-0.186 0.38 4.754 4.754 0 0 1-0.479 0.691c-0.093 0.111-0.193 0.211-0.293 0.311a4.01 4.01 0 0 1-0.181 0.155l-0.143 0.125a3.473 3.473 0 0 1-0.348 0.242 4.312 4.312 0 0 1-0.367 0.212c-0.131 0.062-0.261 0.118-0.392 0.174a4.381 4.381 0 0 1-0.821 0.224c-0.144 0.025-0.286 0.037-0.424 0.05a4.933 4.933 0 0 1-0.298 0.012 4.678 4.678 0 0 1-0.424-0.025 3.149 3.149 0 0 1-0.422-0.062 3.148 3.148 0 0 1-0.417-0.105h-0.007c0.138-0.013 0.274-0.025 0.412-0.051a4.511 4.511 0 0 0 0.821-0.223c0.137-0.05 0.267-0.112 0.391-0.175 0.131-0.062 0.249-0.131 0.374-0.205 0.118-0.08 0.236-0.162 0.348-0.249 0.112-0.087 0.218-0.181 0.318-0.28 0.105-0.093 0.199-0.199 0.292-0.305 0.093-0.111 0.181-0.224 0.261-0.335 0.013-0.019 0.026-0.044 0.038-0.063 0.062-0.1 0.124-0.2 0.181-0.299a4.289 4.289 0 0 0 0.335-0.778c0.044-0.131 0.075-0.267 0.106-0.405 0.025-0.143 0.05-0.279 0.063-0.416 0.012-0.143 0.025-0.286 0.025-0.423 0-0.1-0.007-0.2-0.013-0.299a6.752 6.752 0 0 0-0.051-0.417 4.511 4.511 0 0 0-0.092-0.416c-0.044-0.131-0.087-0.268-0.137-0.399-0.05-0.131-0.111-0.261-0.174-0.385-0.069-0.124-0.138-0.249-0.212-0.368a6.87 6.87 0 0 0-0.249-0.341c-0.093-0.106-0.187-0.213-0.286-0.318a3.893 3.893 0 0 0-0.162-0.156c-0.281-0.218-0.572-0.423-0.865-0.609a1.159 1.159 0 0 0-0.125-0.063 2.424 2.424 0 0 0-0.591-0.261Z"/></svg>