<svg fill="#FF6600" role="img" viewBox="0 0 32 24" xmlns="http://www.w3.org/2000/svg"><title>NetBSD</title><path d="M29.941 10.279c0-0.236 0.083-0.438 0.252-0.605a0.827 0.827 0 0 1 0.605-0.252c0.237 0 0.438 0.085 0.607 0.252a0.826 0.826 0 0 1 0.25 0.605 0.828 0.828 0 0 1-0.25 0.607 0.825 0.825 0 0 1-0.607 0.252 0.827 0.827 0 0 1-0.605-0.252 0.827 0.827 0 0 1-0.252-0.607z m1.574 0a0.691 0.691 0 0 0-0.209-0.506 0.691 0.691 0 0 0-0.508-0.209 0.691 0.691 0 0 0-0.506 0.209 0.689 0.689 0 0 0-0.21 0.506 0.691 0.691 0 0 0 0.209 0.508 0.691 0.691 0 0 0 0.509 0.21 0.69 0.69 0 0 0 0.506-0.21 0.691 0.691 0 0 0 0.209-0.508z m-0.449 0.517l-0.27-0.456h-0.153v0.456h-0.149v-1.054h0.27c0.253 0 0.381 0.097 0.381 0.291 0 0.136-0.069 0.231-0.204 0.287l0.288 0.476z m-0.423-0.927v0.353l0.099 0.001c0.098 0 0.164-0.013 0.197-0.036 0.034-0.026 0.052-0.073 0.052-0.144 0-0.117-0.077-0.175-0.228-0.175h-0.12m-5.078 4.279c0 0.526 0.018 0.87 0.191 1.07 0.172 0.192 0.449 0.278 0.792 0.278 1.652 0 2.215-1.47 2.215-2.768 0-1.72-0.907-2.74-2.635-2.74-0.257 0-0.438 0.047-0.496 0.124-0.057 0.076-0.067 0.257-0.067 0.553v3.483z m-1.364-3.025c0-0.907-0.02-1.088-0.459-1.135l-0.182-0.02c-0.095-0.048-0.095-0.326 0.02-0.335a39.819 39.819 0 0 1 2.557-0.085c0.783 0 1.566 0.077 2.226 0.315 1.25 0.449 1.937 1.576 1.937 2.768 0 1.28-0.611 2.31-1.709 2.855-0.648 0.326-1.431 0.449-2.414 0.448-0.45 0-0.926-0.057-1.27-0.057-0.458 0-0.945 0.01-1.489 0.029-0.077-0.057-0.077-0.287 0-0.334l0.295-0.047c0.431-0.077 0.488-0.144 0.488-1.022v-3.379m-3.138 4.906c-0.878 0-1.422-0.248-1.623-0.362-0.181-0.21-0.305-0.898-0.305-1.547 0.067-0.124 0.287-0.133 0.363-0.029 0.19 0.621 0.83 1.499 1.641 1.499 0.707 0 1.031-0.487 1.03-0.965 0-0.772-0.724-1.23-1.296-1.517-0.688-0.343-1.432-0.916-1.442-1.862 0-1.079 0.83-1.824 2.214-1.824 0.316 0 0.707 0.039 1.088 0.154 0.124 0.038 0.21 0.056 0.326 0.076 0.074 0.21 0.17 0.725 0.17 1.366-0.047 0.114-0.286 0.124-0.372 0.028-0.162-0.488-0.573-1.185-1.259-1.184-0.63 0-0.975 0.411-0.975 0.887 0 0.44 0.391 0.841 0.869 1.089l0.631 0.334c0.592 0.316 1.346 0.869 1.346 1.919 0 1.174-0.965 1.939-2.406 1.939m-5.479-1.767c0 0.744 0.094 1.213 0.839 1.214 0.707 0 1.079-0.545 1.079-1.318 0-0.831-0.477-1.414-1.394-1.414-0.526 0-0.526 0.009-0.526 0.391v1.127z m0-2.204c0 0.248 0.009 0.266 0.505 0.266 0.822 0 1.126-0.524 1.125-1.097 0-0.831-0.515-1.242-1.174-1.242-0.447 0-0.457 0.078-0.456 0.497z m-1.318-0.927c0-0.965-0.02-1.07-0.42-1.118l-0.258-0.039c-0.086-0.047-0.104-0.333 0.039-0.343 0.724-0.047 1.422-0.085 2.375-0.085 0.917 0 1.528 0.104 1.948 0.352 0.41 0.248 0.659 0.65 0.659 1.214 0 0.802-0.678 1.117-0.974 1.194-0.095 0.018-0.19 0.057-0.191 0.104 0 0.029 0.048 0.057 0.134 0.077 0.754 0.162 1.393 0.658 1.403 1.584 0.009 0.878-0.515 1.395-1.117 1.604-0.601 0.209-1.318 0.239-1.899 0.239-0.343 0-0.706-0.039-0.984-0.039-0.467 0-0.935 0.01-1.479 0.029-0.076-0.057-0.076-0.305 0-0.334l0.277-0.058c0.429-0.085 0.487-0.153 0.487-1.011v-3.371M12.136 12.574c-0.124 0-0.133 0.009-0.133 0.219v1.431c0 0.535 0 1.127 0.667 1.128 0.133 0 0.287-0.067 0.401-0.144 0.095 0.029 0.153 0.134 0.133 0.248-0.266 0.287-0.783 0.554-1.374 0.554-0.792 0-1.07-0.458-1.07-1.088v-2.129c0-0.201-0.009-0.219-0.181-0.219H10.286c-0.104-0.039-0.134-0.23-0.058-0.296 0.295-0.104 0.562-0.278 0.792-0.431 0.172-0.124 0.411-0.324 0.706-0.743 0.067-0.039 0.239-0.029 0.287 0.047v0.716c0 0.181 0.009 0.19 0.181 0.19h0.85c0.048 0.039 0.077 0.097 0.077 0.183 0 0.104-0.029 0.275-0.124 0.334h-0.861m-3.428 0.62c0.134 0 0.287-0.02 0.392-0.086 0.048-0.029 0.067-0.124 0.066-0.22 0-0.314-0.181-0.524-0.506-0.524-0.401 0-0.744 0.381-0.744 0.686 0 0.134 0.133 0.144 0.439 0.144z m-0.63 0.42c-0.219 0-0.239 0.02-0.239 0.172 0 0.716 0.458 1.413 1.347 1.413 0.267 0 0.63-0.057 0.887-0.496 0.104-0.02 0.248 0.056 0.248 0.219-0.391 0.811-1.096 1.088-1.67 1.088-1.289 0-1.986-0.907-1.986-1.947 0-1.203 0.869-2.14 2.062-2.14 0.994 0 1.528 0.641 1.527 1.376 0 0.181-0.047 0.314-0.343 0.315H8.077m-1.637 0.639c0 0.621 0 1.222 0.018 1.538-0.065 0.114-0.334 0.219-0.562 0.219-0.01 0-0.326-0.487-0.774-1.041l-2.205-2.73c-0.544-0.688-0.869-1.078-1.041-1.221-0.047 0.095-0.047 0.257-0.047 0.61v1.853c0 0.774 0.038 1.489 0.144 1.747 0.085 0.201 0.305 0.258 0.553 0.305l0.267 0.039c0.076 0.076 0.057 0.277 0 0.333a34.684 34.684 0 0 0-1.278-0.029c-0.354 0-0.707 0.01-1.07 0.029-0.057-0.056-0.077-0.257 0-0.334l0.162-0.029c0.258-0.057 0.44-0.114 0.525-0.314 0.095-0.258 0.133-0.973 0.133-1.749v-2.424c0-0.524 0-0.678-0.066-0.811-0.067-0.162-0.21-0.258-0.544-0.325l-0.268-0.038c-0.067-0.077-0.057-0.305 0.04-0.334 0.447 0.018 0.925 0.029 1.316 0.029 0.325 0 0.6-0.01 0.802-0.029 0.095 0.431 0.715 1.155 1.575 2.176l0.801 0.946c0.431 0.496 0.698 0.83 0.917 1.05 0.039-0.095 0.039-0.258 0.039-0.43v-1.318c0-0.772-0.039-1.489-0.143-1.747-0.087-0.2-0.296-0.257-0.555-0.305l-0.258-0.038c-0.076-0.077-0.056-0.277 0-0.334 0.517 0.018 0.887 0.029 1.279 0.029 0.355 0 0.698-0.01 1.069-0.029 0.057 0.057 0.077 0.257 0 0.334l-0.171 0.029c-0.248 0.057-0.431 0.115-0.516 0.316-0.104 0.257-0.144 0.973-0.144 1.747v2.281M28.442 1.028c-3.716-1.783-7.078-0.933-10.836 0.193-3.786 1.132-7.152 1.744-10.934 0.201l1.03 1.84 1.135 2.031 1.031 1.839c3.012 0.851 5.506-0.253 8.181-1.591 3.213-1.605 6.116-3.049 9.788-2.213-3.102-1.553-5.915-1.168-9.159-0.287 3.175-1.618 6.166-2.875 9.764-2.013M17.513 23.061l-2.964-5.721H13.273l2.979 6.296s0.3 0.594 0.944 0.265c0.643-0.326 0.32-0.84 0.32-0.84M6.39 1.596s-0.089-0.207-0.339-0.07c-0.209 0.116-0.1 0.33-0.101 0.33l3.919 8.286h0.95L6.39 1.596"/></svg>