<svg fill="#00C7B7" role="img" viewBox="0 0 28 24" xmlns="http://www.w3.org/2000/svg"><title>Netlify</title><path d="M7.703 20.046h-0.263L6.149 18.743v-0.263l1.977-1.954h1.371l0.172 0.171v1.372L7.714 20.046ZM6.149 5.497V5.257l1.291-1.291h0.263L9.657 5.92v1.371l-0.171 0.172h-1.372L6.149 5.497Zm11.382 10.389h-1.885l-0.16-0.149v-4.377c0-0.777-0.309-1.371-1.257-1.406-0.48 0-1.029 0-1.635 0.023l-0.08 0.092v5.668l-0.16 0.16H10.457l-0.148-0.16V8.263l0.148-0.16h4.229a2.971 2.971 0 0 1 2.983 2.971v4.663l-0.149 0.16Zm-9.565-2.789H0.446L0.286 12.937v-1.874l0.16-0.16h7.52l0.16 0.16v1.874l-0.16 0.16Zm19.588 0h-7.52l-0.16-0.16v-1.874l0.16-0.16h7.52l0.16 0.16v1.874l-0.16 0.16ZM12.914 5.771V0.16l0.16-0.16h1.886l0.16 0.16v5.6l-0.16 0.16h-1.886l-0.16-0.149Zm0 18.069v-5.6l0.16-0.16h1.886l0.16 0.149v5.611l-0.16 0.16h-1.886l-0.16-0.16Z"/></svg>