<svg fill="#FFE500" role="img" viewBox="0 0 57 24" xmlns="http://www.w3.org/2000/svg"><title>Netto</title><path d="M4.881 0a1.652 1.652 0 0 0-1.013 0.366 1.489 1.489 0 0 0-0.532 0.927L0.522 15.79a1.477 1.477 0 0 0 0.28 1.181 1.447 1.447 0 0 0 1.096 0.506h47.235v0.028c0.42 0 0.87-0.028 1.291-0.084a6.383 6.383 0 0 0 2.529-0.817 6.208 6.208 0 0 0 1.968-1.853c0.336-0.506 0.618-1.041 0.842-1.6 0.224-0.537 0.392-1.097 0.507-1.688 0.112-0.56 0.196-1.123 0.224-1.713 0.028-0.562 0-1.153-0.028-1.743a5.414 5.414 0 0 0-0.339-1.405 3.627 3.627 0 0 0-0.73-1.178 4.831 4.831 0 0 0-1.097-0.873 4.954 4.954 0 0 0-1.319-0.504 12.014 12.014 0 0 0-1.069-0.199 14.294 14.294 0 0 0-1.096-0.056h-0.448a9.881 9.881 0 0 0-0.957 0.115c-0.306 0.056-0.616 0.112-0.896 0.196a4.66 4.66 0 0 0-0.873 0.333c-0.28 0.14-0.532 0.28-0.787 0.453a7.193 7.193 0 0 0-0.73 0.56c-0.14 0.14-0.308 0.28-0.42 0.448l0.056-0.249a1.477 1.477 0 0 0-0.28-1.184 1.447 1.447 0 0 0-1.097-0.504h-1.405l0.224-1.237a1.477 1.477 0 0 0-0.28-1.178 1.447 1.447 0 0 0-1.097-0.506h-2.247a1.652 1.652 0 0 0-1.011 0.366 1.489 1.489 0 0 0-0.537 0.926l-0.31 1.632h-2.52l0.221-1.237a1.477 1.477 0 0 0-0.28-1.181 1.447 1.447 0 0 0-1.097-0.506h-2.247a1.65 1.65 0 0 0-1.01 0.366 1.491 1.491 0 0 0-0.537 0.926l-0.308 1.632h-0.731a1.65 1.65 0 0 0-1.01 0.364 1.489 1.489 0 0 0-0.535 0.926l-0.084 0.479a4.208 4.208 0 0 0-1.208-1.123 5.06 5.06 0 0 0-1.573-0.59 8.063 8.063 0 0 0-1.884-0.199c-0.224 0-0.42 0-0.646 0.026a7.473 7.473 0 0 0-1.911 0.341 4.933 4.933 0 0 0-0.899 0.333c-0.28 0.14-0.56 0.28-0.812 0.453a6.954 6.954 0 0 0-0.761 0.588 19.531 19.529 0 0 0-0.677 0.7 8.355 8.355 0 0 0-0.56 0.817c-0.056 0.086-0.084 0.17-0.14 0.255 0 0 0 0.028-0.028 0-0.028 0 0-0.028 0-0.028l1.097-5.622a1.477 1.477 0 0 0-0.28-1.179 1.447 1.447 0 0 0-1.097-0.504H13.702a1.65 1.65 0 0 0-1.01 0.366 1.489 1.489 0 0 0-0.537 0.925l-0.952 4.97-1.153-4.996a1.172 1.172 0 0 0-0.224-0.507 1.477 1.477 0 0 0-0.338-0.392 1.65 1.65 0 0 0-1.011-0.366z m-0.028 1.069h3.428c0.252 0 0.506 0.196 0.56 0.448l2.222 9.61c0 0.026 0.056 0.026 0.056 0l1.881-9.612a0.567 0.567 0 0 1 0.537-0.448h2.497c0.28 0 0.42 0.196 0.397 0.448l-2.785 14.301a0.567 0.567 0 0 1-0.532 0.452H9.6a0.6 0.6 0 0 1-0.563-0.452l-2.193-9.466c0-0.03-0.051-0.03-0.052 0l-1.855 9.466a0.567 0.567 0 0 1-0.537 0.452H1.905c-0.257 0-0.42-0.198-0.368-0.452L4.319 1.519a0.567 0.567 0 0 1 0.534-0.448z m34.646 0.98h2.248c0.252 0 0.42 0.198 0.366 0.453l-0.478 2.415c0 0.028 0 0.028 0.028 0.028h2.642c0.252 0 0.42 0.196 0.364 0.451l-0.308 1.572a0.567 0.567 0 0 1-0.537 0.449h-2.64c-0.028 0-0.028 0-0.028 0.028l-0.956 5.003c-0.14 0.756 0.198 1.288 0.732 1.377 0.758 0.14 1.573 0.023 2.217 0 0.03 0 0.03 0.026 0.031 0.026l-0.336 1.741c-0.028 0.14-0.084 0.254-0.227 0.31-0.308 0.168-1.039 0.448-2.474 0.448-3.034 0-3.428-2.217-3.033-4.299l0.898-4.634c0-0.03 0-0.028-0.028-0.028h-4.581v0.109c-0.028 0-0.028 0-0.028 0.031l-0.954 5.001c-0.14 0.758 0.196 1.293 0.73 1.377 0.758 0.14 1.573 0.028 2.219 0 0.028 0 0.028 0.028 0.028 0.028l-0.336 1.741c-0.028 0.14-0.084 0.257-0.226 0.31-0.308 0.168-1.039 0.448-2.474 0.448-3.034 0-3.398-2.217-3.034-4.299l0.901-4.637c0-0.028 0-0.023-0.028-0.023h-1.573c-0.254 0-0.42-0.201-0.366-0.453l0.308-1.573a0.567 0.567 0 0 1 0.537-0.45h1.57c0.028 0 0.028 0 0.028-0.026l0.479-2.446a0.567 0.567 0 0 1 0.536-0.45h2.245c0.257 0 0.42 0.198 0.367 0.453l-0.479 2.415c0 0.026 0 0.026 0.028 0.026h4.584c0.028 0 0.028 0 0.028-0.028l0.476-2.444a0.567 0.567 0 0 1 0.534-0.45z m11.48 2.824c0.583 0.007 1.186 0.086 1.755 0.21 1.573 0.366 2.555 1.433 2.695 3.034 0.17 2.14-0.168 4.245-1.346 6.072-0.873 1.321-2.194 2.051-3.739 2.217-0.87 0.086-1.769 0.114-2.642-0.054-2.135-0.397-3.146-1.713-3.145-4.242 0.056-1.153 0.28-2.555 0.84-3.851 0.957-2.189 2.7-3.258 5.003-3.37a6.791 6.791 0 0 1 0.579-0.016z m-28.205 0.018c0.562-0.009 1.144 0.037 1.692 0.164 1.909 0.338 2.922 1.797 2.695 3.906-0.28 2.217-1.797 2.978-3.594 3.062-1.153 0.056-3.795 0.028-4.161 0.028 0 0-0.026 0-0.026 0.028-0.058 1.097 0.224 1.995 2.416 2.024 1.995 0.03 2.894-0.194 4.018-0.504 0.028-0.03 0.056 0 0.056 0.025l-0.394 1.97c-0.028 0.166-0.14 0.28-0.308 0.334a13.466 13.466 0 0 1-4.947 0.536c-3.062-0.196-4.072-1.939-4.045-3.904a10.852 10.852 0 0 1 0.84-4.103c0.987-2.303 2.812-3.4 5.2-3.54a7.328 7.328 0 0 1 0.56-0.023zM22.342 7.326a2.418 2.418 0 0 0-2.063 1.101c-0.366 0.56-0.478 1.011-0.537 1.293 0 0 0.002 0.028 0.03 0.028h3.146c0.733 0.028 1.097-0.226 1.181-0.871 0.112-0.758-0.28-1.291-0.926-1.458a3.531 3.531 0 0 0-0.831-0.093z m28.105 0.116c-0.868 0.016-1.648 0.432-1.984 1.466-0.338 0.98-0.537 2.051-0.618 3.118-0.117 1.181 0.56 1.771 1.853 1.743 0.817 0.028 1.489-0.366 1.883-1.237 0.506-1.125 0.674-2.334 0.675-3.54 0-0.786-0.338-1.265-0.927-1.433a3.305 3.305 0 0 0-0.882-0.117z m-31.181 12.766c-0.224 0-0.336 0.168-0.42 0.364l-0.562 1.743-0.591-1.774c-0.056-0.166-0.196-0.306-0.392-0.305-0.226 0-0.366 0.14-0.397 0.364l-0.644 2.726a0.779 0.779 0 0 0-0.028 0.252c0 0.226 0.196 0.394 0.42 0.394 0.28 0 0.397-0.224 0.451-0.45l0.338-1.545 0.476 1.657c0.056 0.17 0.17 0.366 0.367 0.366a0.387 0.387 0 0 0 0.366-0.28c0-0.028 0.028-0.058 0.028-0.086l0.504-1.657 0.366 1.545c0.056 0.254 0.14 0.45 0.448 0.45a0.485 0.485 0 0 0 0.367-0.45c0-0.084-0.028-0.168-0.056-0.252l-0.647-2.698c-0.056-0.196-0.196-0.364-0.394-0.364z m20.653 0.028a0.443 0.443 0 0 0-0.448 0.448c0 0.254 0.196 0.42 0.451 0.42 0.224 0 0.42-0.194 0.42-0.42 0-0.252-0.196-0.448-0.42-0.448z m-3.54 0.028c-0.31 0-0.478 0.168-0.478 0.476V23.433c0 0.31 0.168 0.478 0.478 0.478h0.817c0.56 0 1.011-0.112 1.433-0.536a1.767 1.767 0 0 0 0.56-1.291 1.844 1.844 0 0 0-1.097-1.685c-0.308-0.14-0.534-0.14-0.898-0.14z m-10.369 0.028c-0.224 0-0.366 0.196-0.366 0.392v2.894c0 0.226 0.14 0.394 0.366 0.394 0.224 0 0.364-0.196 0.365-0.397v-0.7l0.872 0.929c0.112 0.112 0.196 0.196 0.336 0.196 0.224-0.056 0.397-0.224 0.397-0.42 0-0.14-0.114-0.257-0.201-0.338l-0.758-0.731 0.702-0.506c0.14-0.084 0.257-0.196 0.257-0.364a0.373 0.373 0 0 0-0.369-0.367c-0.14 0-0.224 0.084-0.336 0.168l-0.9 0.7v-1.458c0-0.224-0.112-0.392-0.365-0.392z m28.577 0.14c-0.224 0-0.364 0.168-0.364 0.392v0.476c-0.224 0-0.42 0.084-0.42 0.338 0 0.252 0.196 0.336 0.42 0.336v1.573c0 0.226 0.14 0.394 0.364 0.395 0.226 0 0.366-0.196 0.366-0.397v-1.571h0.14c0.196 0 0.366-0.14 0.367-0.336 0-0.226-0.17-0.338-0.367-0.338h-0.14v-0.479c0-0.224-0.14-0.392-0.366-0.392z m-17.33 0.618c0.597 0.019 1.09 0.38 1.09 1.039 0 0.45-0.28 0.87-0.701 1.013a1.557 1.557 0 0 1-0.508 0.056h-0.367v-2.108z m4.406 0.168c-0.478 0-0.957 0.252-0.957 0.787 0 0.28 0.17 0.534 0.397 0.646 0.194 0.112 0.42 0.14 0.644 0.224 0.112 0.028 0.226 0.056 0.226 0.199 0 0.112-0.14 0.224-0.257 0.224-0.42 0-0.448-0.31-0.784-0.367-0.196-0.028-0.397 0.114-0.396 0.311 0 0.476 0.705 0.7 1.096 0.7 0.56 0 1.043-0.308 1.044-0.896 0.084-0.537-0.338-0.702-0.703-0.789l-0.366-0.084c-0.084-0.028-0.224-0.056-0.224-0.168 0-0.112 0.084-0.196 0.196-0.196 0.364-0.028 0.42 0.196 0.73 0.196a0.299 0.299 0 0 0 0.252-0.252c0.028-0.366-0.59-0.537-0.898-0.537z m2.67 0a1.368 1.368 0 0 0-1.349 1.349c0 0.758 0.618 1.377 1.377 1.377 0.308 0.028 1.067-0.224 1.066-0.646a0.373 0.373 0 0 0-0.364-0.367c-0.252 0-0.338 0.28-0.702 0.28a0.623 0.623 0 0 1-0.619-0.616c0-0.364 0.28-0.618 0.647-0.618 0.336 0 0.42 0.252 0.646 0.252a0.373 0.373 0 0 0 0.364-0.364c0-0.42-0.73-0.646-1.066-0.647z m-20.29 0.028a0.334 0.334 0 0 0-0.336 0.28 0.481 0.481 0 0 0-0.03 0.199v1.797c0 0.226 0.14 0.394 0.366 0.394 0.224 0 0.366-0.198 0.367-0.397v-1.204c0-0.117 0-0.338 0.168-0.338 0.14 0 0.224 0.14 0.392 0.14 0.226 0.028 0.45-0.168 0.45-0.42 0-0.257-0.224-0.45-0.478-0.451a0.835 0.835 0 0 0-0.56 0.224 0.364 0.364 0 0 0-0.339-0.224z m5.396 0a1.368 1.368 0 0 0-1.349 1.349c0 0.73 0.618 1.377 1.377 1.377 0.14 0 0.252-0.028 0.392-0.056 0.257-0.056 0.646-0.28 0.646-0.59-0.028-0.196-0.112-0.28-0.336-0.28h-0.056c-0.028 0-0.028 0-0.056 0.028-0.056 0.028-0.084 0.056-0.14 0.084a0.455 0.455 0 0 1-0.198 0.112c-0.056 0.028-0.14 0.028-0.252 0.028H29.436a0.793 0.793 0 0 1-0.45-0.196l-0.028-0.028 1.321-0.591c0.168-0.084 0.28-0.168 0.28-0.338 0-0.56-0.646-0.898-1.12-0.899z m2.583 0c-0.73 0-1.179 0.59-1.178 1.265v1.011c0 0.226 0.14 0.394 0.364 0.394 0.226 0 0.366-0.198 0.366-0.397v-1.092c0-0.257 0.168-0.478 0.448-0.478 0.17 0 0.338 0.112 0.397 0.252a0.943 0.943 0 0 1 0.054 0.394v0.924c0 0.226 0.14 0.394 0.366 0.395 0.28 0.028 0.392-0.168 0.392-0.367v-0.982a1.246 1.246 0 0 0-1.209-1.321z m14.95 0a1.379 1.379 0 0 0-1.377 1.377c0 0.758 0.646 1.321 1.377 1.321a1.307 1.307 0 0 0 1.349-1.321 1.375 1.375 0 0 0-1.349-1.377z m5.452 0c-0.73 0-1.179 0.59-1.179 1.265v1.011c0 0.226 0.14 0.394 0.364 0.394s0.366-0.198 0.366-0.397v-1.092c0-0.257 0.168-0.478 0.449-0.478a0.443 0.443 0 0 1 0.394 0.252c0.056 0.114 0.056 0.254 0.056 0.394v0.924c0 0.226 0.14 0.394 0.364 0.395 0.254 0.028 0.394-0.168 0.394-0.367v-0.982a1.246 1.246 0 0 0-0.366-0.957 1.218 1.218 0 0 0-0.84-0.364z m-30.656 0.028c-0.758 0-1.265 0.618-1.265 1.349 0 0.73 0.534 1.377 1.265 1.377 0.28 0 0.537-0.112 0.758-0.308 0.056 0.168 0.168 0.28 0.364 0.28 0.257-0.028 0.397-0.196 0.397-0.42v-1.883c0-0.226-0.14-0.397-0.397-0.397-0.196 0-0.308 0.086-0.364 0.28a1.06 1.06 0 0 0-0.758-0.28z m27.199 0c-0.224 0-0.364 0.196-0.364 0.395v0.98c0 0.369 0.084 0.677 0.336 0.957a1.218 1.218 0 0 0 0.84 0.366c0.733 0 1.183-0.59 1.184-1.293v-1.01c0-0.226-0.14-0.397-0.364-0.397-0.226 0-0.366 0.198-0.367 0.397v1.064c0 0.254-0.168 0.478-0.45 0.478a0.441 0.441 0 0 1-0.392-0.257c-0.056-0.112-0.056-0.252-0.056-0.364v-0.926c0-0.224-0.14-0.392-0.367-0.392z m-9.045 0.028c-0.226 0-0.366 0.196-0.367 0.395v1.853c0 0.226 0.14 0.394 0.367 0.394 0.224 0 0.364-0.196 0.364-0.397v-1.85c0-0.226-0.14-0.397-0.364-0.397z m-10.427 0.56c0.196 0 0.336 0.086 0.42 0.227l0.028 0.028-1.207 0.506v-0.056c0-0.364 0.336-0.702 0.759-0.702z m-7.585 0.087a0.67 0.67 0 0 1 0.616 0.646c0 0.338-0.28 0.618-0.618 0.619-0.364 0-0.618-0.28-0.619-0.647 0-0.336 0.28-0.618 0.619-0.618z m25.102 0.056c0.334 0.012 0.579 0.303 0.578 0.618 0 0.338-0.28 0.618-0.618 0.619-0.336 0-0.644-0.252-0.644-0.591a0.63 0.63 0 0 1 0.616-0.646h0.07z m-12.826 0.084c-0.224 0-0.392 0.14-0.393 0.366 0 0.224 0.168 0.364 0.393 0.364h0.73c0.198 0 0.397-0.14 0.397-0.364s-0.17-0.366-0.397-0.366z"/></svg>