<svg fill="#3484D2" role="img" viewBox="0 0 90 24" xmlns="http://www.w3.org/2000/svg"><title>Nette</title><path d="M23.506 20.714c-1.273 0.907-2.084 1.456-2.428 1.654-1.822 1.083-3.488 1.632-4.996 1.632-0.844 0-1.665-0.198-2.476-0.579a4.369 4.369 0 0 1-1.815-1.505 3.689 3.689 0 0 1-0.605-2.076c0-1.09 0.37-2.476 1.106-4.156 1.053-2.457 1.617-3.772 1.688-3.947a1.856 1.856 0 0 1-0.056-0.475 9.377 9.377 0 0 0-1.001 0.475 26.513 26.513 0 0 0-2.89 2.158 51.421 51.421 0 0 0-2.581 2.524 22.424 22.424 0 0 0-0.317 3.738c0 0.945 0.056 1.893 0.16 2.842l-6.367 1.001A23.145 23.145 0 0 1 0.189 18.369c0-1.09 0.105-2.196 0.317-3.32 0.209-1.12 0.597-2.382 1.154-3.787 0.388-0.982 0.93-2.211 1.632-3.685l7.316-1.21c-0.456 1.124-0.788 1.964-0.997 2.528a34.579 34.579 0 0 0-0.949 2.58c1.755-1.617 3.51-2.864 5.262-3.738 1.404-0.702 2.666-1.053 3.79-1.053 0.635 0 1.281 0.119 1.949 0.366 0.665 0.246 1.146 0.635 1.445 1.162 0.299 0.527 0.448 1.154 0.448 1.893 0 1.053-0.299 2.349-0.896 3.895-0.702 1.755-1.385 3.506-2.05 5.261 0 0.246 0.09 0.396 0.261 0.448a1.83 1.83 0 0 0 0.527 0.075c0.706 0 1.751-0.366 3.141-1.098a6.498 6.498 0 0 1-0.195-1.583c0-0.844 0.119-1.647 0.366-2.42 0.246-0.773 0.62-1.58 1.109-2.42 0.874-1.441 2.106-2.666 3.682-3.685a12.883 12.883 0 0 1 5-1.946c0.635-0.071 1.12-0.108 1.476-0.108 1.158 0 2.192 0.194 3.103 0.582 0.911 0.385 1.665 1.016 2.263 1.894 0.351 0.56 0.527 1.124 0.526 1.68 0 0.881-0.437 1.74-1.314 2.58-0.631 0.597-1.482 1.161-2.555 1.684a25.307 25.307 0 0 1-3.185 1.315c-0.769 0.246-1.86 0.549-3.26 0.896 0.456 0.948 1.105 1.714 1.949 2.293 0.84 0.575 1.733 0.866 2.682 0.866 1.441 0 2.879-0.37 4.316-1.105 0.067-0.037 1.165-0.728 3.298-2.08a15.068 15.068 0 0 1 0.358-2.394l0.176-0.799 7.599-0.452-0.564 1.961a7.401 7.401 0 0 0-0.343 1.975c0 0.844 0.168 1.43 0.504 1.759 0.332 0.336 0.81 0.504 1.445 0.504 0.911 0 2.102-0.385 3.577-1.157l1.696-1.024c0.011-0.28 0.034-0.583 0.067-0.9 0.052-0.504 0.161-1.131 0.313-1.867l0.18-0.795 7.595-0.456c-0.179 0.635-0.366 1.288-0.564 1.961-0.224 0.788-0.344 1.449-0.343 1.975 0 0.844 0.168 1.43 0.504 1.759 0.332 0.336 0.814 0.504 1.445 0.504 0.915 0 2.11-0.385 3.581-1.157l1.098-0.665a5.62 5.62 0 0 1-0.049-0.758c0-0.844 0.127-1.647 0.37-2.42 0.246-0.773 0.616-1.58 1.105-2.42 0.874-1.441 2.106-2.666 3.682-3.685 1.583-1.016 3.249-1.669 5.001-1.946 0.635-0.071 1.128-0.108 1.478-0.108 1.154 0 2.188 0.194 3.104 0.582 0.907 0.385 1.665 1.016 2.259 1.894 0.351 0.56 0.527 1.124 0.526 1.68 0 0.881-0.437 1.74-1.314 2.58-0.627 0.597-1.479 1.161-2.551 1.684a25.774 25.774 0 0 1-3.185 1.315c-0.773 0.246-1.86 0.549-3.264 0.896 0.456 0.948 1.105 1.714 1.95 2.293 0.844 0.575 1.736 0.866 2.681 0.866 1.441 0 2.879-0.37 4.317-1.105 0.071-0.037 1.262-0.788 3.577-2.263v2.368c-0.209 0.142-1.049 0.739-2.521 1.788a17.084 17.084 0 0 1-2.688 1.632c-1.755 0.773-3.686 1.158-5.788 1.158-1.4 0-2.648-0.168-3.738-0.497a7.76 7.76 0 0 1-2.999-1.766 5.9 5.9 0 0 1-1.333-1.703c-1.546 1.12-2.733 1.916-3.563 2.39-1.856 1.049-3.544 1.576-5.048 1.576-0.848 0-1.531-0.052-2.316-0.422-1.337-0.56-2.267-1.288-2.793-2.181a5.616 5.616 0 0 1-0.59-1.483c-1.624 1.18-2.868 2.016-3.723 2.51-1.86 1.049-3.544 1.576-5.052 1.576-0.848 0-1.531-0.052-2.315-0.422-1.337-0.56-2.263-1.288-2.794-2.181a5.62 5.62 0 0 1-0.661-1.841c-0.37 0.25-1.146 0.807-2.334 1.654a17.428 17.428 0 0 1-2.684 1.632c-1.755 0.773-3.686 1.158-5.789 1.158-1.408 0-2.651-0.168-3.738-0.497a7.801 7.801 0 0 1-3.002-1.766 6.199 6.199 0 0 1-0.836-0.915z m10.575-9.612a2.935 2.935 0 0 0 0.049-0.631c0-0.911-0.381-1.367-1.154-1.367a2.827 2.827 0 0 0-0.579 0.105c-1.053 0.246-1.878 0.915-2.476 2.001a7.039 7.039 0 0 0-0.892 3.417c1.475-0.381 2.543-0.769 3.207-1.154 1.09-0.597 1.703-1.385 1.845-2.371z m47.731 0a2.67 2.67 0 0 0 0.052-0.631c0-0.911-0.385-1.367-1.157-1.367a2.868 2.868 0 0 0-0.579 0.105c-1.049 0.246-1.878 0.915-2.472 2.001-0.597 1.087-0.896 2.229-0.896 3.417 1.475-0.381 2.547-0.769 3.211-1.154 1.087-0.597 1.699-1.385 1.841-2.371z m-40.472 0.16l1.057-4.156 2.159-0.104 2.05-5.635 7.786-1.367-2.207 6.632 3.525-0.161-0.945 3.948c-4.474 0.306-8.944 0.579-13.425 0.843z m14.478 0l1.049-4.156 2.159-0.104 2.05-5.635 7.79-1.367-2.211 6.632 3.525-0.161-0.945 3.948c-4.485 0.306-8.992 0.583-13.417 0.843z"/></svg>