<svg fill="#F89901" role="img" viewBox="0 0 28 24" xmlns="http://www.w3.org/2000/svg"><title>Neutralinojs</title><path d="M6.716 0.002a1.076 1.076 0 0 0-0.604 0.208c-0.457 0.347-0.567 1.018-0.481 1.871 0.085 0.854 0.379 1.928 0.85 3.169 0.404 1.06 0.945 2.245 1.592 3.502-1.324 0.165-2.535 0.382-3.573 0.645-1.222 0.31-2.216 0.679-2.923 1.101C0.871 10.92 0.422 11.416 0.422 12s0.449 1.081 1.155 1.503c0.622 0.373 1.48 0.699 2.509 0.984a1.075 1.075 0 0 0-0.007 0.11c0 0.549 0.413 1.004 0.928 1.004 0.416 0 0.767-0.294 0.887-0.697 0.671 0.129 1.388 0.241 2.147 0.336a34.862 34.862 0 0 0-1.593 3.47c-0.476 1.237-0.776 2.308-0.865 3.163-0.091 0.853 0.018 1.524 0.475 1.874 0.227 0.174 0.521 0.235 0.83 0.205 0.31-0.029 0.647-0.141 1.014-0.325 0.734-0.365 1.592-1.012 2.539-1.89 1.089-1.007 2.292-2.329 3.528-3.871 1.229 1.55 2.428 2.877 3.512 3.892 0.944 0.883 1.797 1.533 2.529 1.903 0.365 0.184 0.702 0.3 1.011 0.331 0.31 0.031 0.604-0.028 0.833-0.201 0.458-0.347 0.568-1.018 0.482-1.872-0.061-0.611-0.233-1.335-0.495-2.15a1.03 1.03 0 0 0 0.389-0.814 1.046 1.046 0 0 0-0.27-0.707 0.9 0.9 0 0 0-0.793-0.284c-0.353-0.849-0.781-1.762-1.273-2.716a30.026 30.026 0 0 0 3.606-0.651c1.222-0.309 2.216-0.676 2.923-1.097 0.706-0.423 1.155-0.92 1.155-1.504s-0.449-1.083-1.155-1.505c-0.707-0.422-1.701-0.788-2.923-1.097a29.952 29.952 0 0 0-3.571-0.642 34.836 34.836 0 0 0 1.591-3.466c0.478-1.237 0.777-2.308 0.867-3.163 0.091-0.853-0.019-1.524-0.475-1.874a1.073 1.073 0 0 0-0.601-0.209 1.516 1.516 0 0 0-0.23 0.005c-0.31 0.029-0.645 0.144-1.013 0.327-0.577 0.287-1.236 0.752-1.948 1.363a0.878 0.878 0 0 0-0.473-0.139c-0.516 0-0.928 0.453-0.928 1.003 0 0.134 0.023 0.261 0.068 0.377a39.637 39.637 0 0 0-2.789 3.159c-1.229-1.55-2.428-2.877-3.511-3.892-0.944-0.883-1.797-1.533-2.529-1.903-0.365-0.184-0.702-0.3-1.012-0.332a1.519 1.519 0 0 0-0.231-0.006z m0.024 0.435a1.118 1.118 0 0 1 0.162 0.005c0.232 0.023 0.523 0.119 0.856 0.287 0.67 0.337 1.505 0.967 2.43 1.833 1.081 1.01 2.288 2.35 3.529 3.922-0.484 0.616-0.972 1.267-1.46 1.946a46.992 46.992 0 0 0-3.722 0.266 34.902 34.902 0 0 1-1.644-3.602c-0.463-1.216-0.745-2.265-0.825-3.056-0.079-0.792 0.057-1.285 0.312-1.479a0.622 0.622 0 0 1 0.362-0.122z m14.545 0.038a0.622 0.622 0 0 1 0.362 0.122c0.255 0.195 0.388 0.69 0.305 1.48-0.084 0.791-0.373 1.838-0.84 3.053a34.851 34.851 0 0 1-1.647 3.564 47.004 47.004 0 0 0-3.747-0.265 55.739 55.739 0 0 0-1.442-1.943 39.755 39.755 0 0 1 2.756-3.136 0.886 0.886 0 0 0 0.615 0.252c0.516 0 0.928-0.454 0.928-1.003a1.061 1.061 0 0 0-0.151-0.548c0.69-0.587 1.316-1.029 1.839-1.289 0.336-0.166 0.628-0.26 0.86-0.283a1.124 1.124 0 0 1 0.161-0.004z m-7.29 6.361c0.389 0.501 0.781 1.033 1.172 1.577-0.385-0.008-0.773-0.016-1.167-0.015-0.402 0-0.797 0.007-1.188 0.015 0.396-0.544 0.791-1.075 1.183-1.577zM14 8.835c0.504 0 0.999 0.009 1.487 0.023 0.3 0.424 0.6 0.86 0.897 1.306 0.414 0.622 0.803 1.237 1.178 1.848a60.711 60.711 0 0 1-1.184 1.836c-0.298 0.441-0.596 0.869-0.895 1.288-0.488 0.015-0.982 0.025-1.483 0.025-0.516 0-1.024-0.01-1.525-0.025a59.828 59.828 0 0 1-0.893-1.299 58.541 58.541 0 0 1-1.177-1.848 59.564 59.564 0 0 1 2.082-3.129c0.497-0.015 1-0.025 1.513-0.025z m-2.064 0.046c-0.238 0.335-0.473 0.676-0.707 1.024-0.378 0.561-0.732 1.118-1.078 1.671a52.955 52.955 0 0 1-1.402-2.464 46.653 46.653 0 0 1 3.187-0.232z m4.102 0a46.721 46.721 0 0 1 3.211 0.228 52.864 52.864 0 0 1-1.43 2.487 60.306 60.306 0 0 0-1.781-2.715z m3.675 0.284c1.373 0.165 2.622 0.385 3.68 0.652 1.196 0.303 2.158 0.664 2.804 1.05 0.646 0.386 0.944 0.78 0.943 1.129 0 0.351-0.298 0.741-0.943 1.127-0.645 0.387-1.608 0.749-2.804 1.052-1.067 0.27-2.326 0.49-3.713 0.656a53.218 53.218 0 0 0-1.602-2.819 53.091 53.091 0 0 0 1.635-2.847zM8.286 9.167c0.48 0.911 1.017 1.856 1.604 2.822a53.137 53.137 0 0 0-1.632 2.838 33.544 33.544 0 0 1-2.33-0.36 1.032 1.032 0 0 0-0.261-0.575 0.9 0.9 0 0 0-0.66-0.296 0.912 0.912 0 0 0-0.788 0.473c-1.012-0.279-1.844-0.6-2.417-0.942C1.157 12.742 0.86 12.351 0.86 12c0-0.351 0.298-0.74 0.943-1.127 0.645-0.387 1.608-0.749 2.804-1.052 1.058-0.268 2.307-0.488 3.68-0.654z m4.911 0.905c-0.652 0-1.178 0.566-1.178 1.259 0 0.548 0.328 1.015 0.786 1.186v0.072c0 0.692 0.527 1.255 1.178 1.255 0.652 0 1.178-0.562 1.178-1.256 0-0.018 0-0.038-0.002-0.057 0.48-0.16 0.826-0.639 0.826-1.203 0-0.333-0.121-0.651-0.342-0.886a1.146 1.146 0 0 0-0.835-0.369 1.132 1.132 0 0 0-0.805 0.34 1.138 1.138 0 0 0-0.806-0.34z m-3.05 2.332a57.217 57.217 0 0 0 1.779 2.713c-1.12-0.045-2.196-0.122-3.205-0.232 0.431-0.803 0.909-1.633 1.426-2.481z m7.671 0.023c0.507 0.841 0.975 1.666 1.398 2.462a47.105 47.105 0 0 1-3.184 0.225c0.235-0.335 0.473-0.673 0.707-1.02 0.377-0.56 0.732-1.116 1.079-1.667z m-9.313 2.871c1.169 0.132 2.423 0.224 3.739 0.267 0.483 0.679 0.966 1.334 1.446 1.949-1.248 1.564-2.462 2.898-3.547 3.904-0.929 0.86-1.767 1.482-2.439 1.816-0.335 0.166-0.627 0.26-0.86 0.283-0.232 0.023-0.396-0.02-0.523-0.118-0.255-0.195-0.388-0.69-0.305-1.48 0.084-0.79 0.372-1.838 0.84-3.053 0.414-1.073 0.974-2.283 1.649-3.568z m10.926 0.004c0.519 1 0.966 1.954 1.333 2.834a1.03 1.03 0 0 0-0.394 0.819c0 0.55 0.412 1.004 0.928 1.003a0.886 0.886 0 0 0 0.14-0.011c0.247 0.776 0.407 1.463 0.461 2.016 0.079 0.79-0.057 1.284-0.311 1.478-0.128 0.097-0.292 0.14-0.524 0.118-0.232-0.023-0.523-0.119-0.858-0.287-0.668-0.337-1.504-0.967-2.428-1.834-1.081-1.01-2.289-2.35-3.53-3.921 0.487-0.617 0.975-1.271 1.464-1.952a47.079 47.079 0 0 0 3.719-0.263z m-4.272 0.279a55.241 55.241 0 0 1-1.188 1.584 55.303 55.303 0 0 1-1.177-1.582 53.55 53.55 0 0 0 2.365-0.002z"/></svg>