<svg fill="#CF0A2C" role="img" viewBox="0 0 50 24" xmlns="http://www.w3.org/2000/svg"><title>New Balance</title><path d="M25.351 8.478l2.31-4.028 7.848-0.503 0.274-0.491-7.252-0.503 1.705-2.941h13.453c4.138 0 7.195 1.487 6.003 5.823-0.353 1.327-2.036 4.643-6.978 6.028 1.054 0.125 3.66 1.281 3.202 4.277-0.798 5.319-7.673 7.848-11.505 7.848l-15.888 0.012-0.79-3.077 8.327-0.583 0.285-0.492-9.037-0.549-0.971-3.65 12.847-0.755 0.284-0.48-23.072-1.441 1.11-1.923 24.844-1.612 0.287-0.48-7.286-0.48m10.397 0.8l2.287-0.012c1.535-0.01 3.123-0.707 3.708-2.117 0.539-1.314-0.183-2.435-1.144-2.425h-2.218l-2.633 4.554z m-2.641 4.564l-2.757 4.793h2.63c1.225 0 3.41-0.607 4.084-2.345 0.628-1.624-0.526-2.447-1.326-2.448h-2.633zM13.064 21.243l-1.601 2.734L0.048 23.998l1.11-1.919 11.906-0.836z m0.801-21.243l9.184 0.012 0.699 2.596-10.971-0.687 1.088-1.921z m10.397 4.668l1.006 3.81-15.682-1.03 1.097-1.913 13.579-0.867z m-7.985 10.981l-1.99 3.454-11.062-0.628 1.11-1.921 11.942-0.905z"/></svg>