<svg fill="#E05E00" role="img" viewBox="0 0 48 24" xmlns="http://www.w3.org/2000/svg"><title>Newegg</title><path d="M31.995 0c-0.178 0-0.358 0.008-0.541 0.02-1.43 0.098-2.946 0.55-4.418 1.253a18.87 18.87 0 0 0-5.923 4.505 13.858 13.858 0 0 0-1.849 2.63c0.77-0.037 1.763-0.084 2.004-0.084 0.623-0.006 1.071 0.19 1.39 0.482 0 0 0.588-0.065 0.815-0.171l0.004-0.004a3.839 3.839 0 0 1 1.565-0.342c0.693-0.008 1.238 0.139 1.641 0.386a1.009 1.009 0 0 1 0.707-0.294l1.534-0.02a1.038 1.038 0 0 1 0.409 0.082 0.995 0.995 0 0 1 0.401-0.09l1.465-0.009c0.135 0 0.264 0.025 0.386 0.076a0.969 0.969 0 0 1 0.39-0.084l1.533-0.012a1.018 1.018 0 0 1 0.727 0.294l0.2-0.098c0.482-0.215 0.999-0.333 1.553-0.343h0.016c0.746 0 1.318 0.176 1.737 0.456l0.333 0.278 0.111-0.113a2.291 2.291 0 0 1 0.545-0.386c-0.086-3.192-1.097-6.071-3.302-7.481-1.007-0.654-2.182-0.94-3.433-0.931Zm-8.777 0.077a8.382 8.382 0 0 0-0.54 0.015c-1.377 0.094-2.834 0.515-4.256 1.171-2.73 1.265-5.331 3.4-7.027 5.77a13.913 13.913 0 0 0-0.466 0.699C7.668 12.979 8.71 19.595 13.267 22.517a8.778 8.778 0 0 0 4.352 1.361 20.196 20.196 0 0 1-0.366 0.014 10.079 10.079 0 0 0 4.812-0.852 8.457 8.457 0 0 1-1.022-0.556 8.843 8.843 0 0 1-2.872-3.018 10 10 0 0 1-1.134-2.985h-0.235a1.015 1.015 0 0 1-0.991-1.267l1.526-5.995a1.018 1.018 0 0 1 0.932-0.764c0.137-0.255 0.278-0.501 0.433-0.75a15.721 15.721 0 0 1 2.19-2.734c1.645-1.661 3.682-3.079 5.769-3.964l-0.003-0.006c-1.013-0.648-2.188-0.928-3.438-0.924Zm-8.586 0.07C10.243 0.204 4.922 3.788 2.395 7.848c-3.263 5.239-2.213 11.859 2.345 14.779 2.624 1.684 5.852 1.769 8.733 0.529a8.617 8.617 0 0 1-1.181-0.635c-4.552-2.916-5.601-9.53-2.337-14.777 1.755-2.824 4.861-5.409 8.062-6.747-0.999-0.603-2.154-0.866-3.385-0.85Zm29.993 8.968a1.457 1.457 0 0 0-1.02 0.386c-0.262 0.251-0.47 0.666-0.617 1.232l-0.553 2.174a2.879 2.879 0 0 0-0.117 0.916 0.732 0.732 0 0 0 0.298 0.518c0.176 0.133 0.425 0.196 0.75 0.189a1.586 1.586 0 0 0 0.564-0.111 2.205 2.205 0 0 0 0.568-0.329l-0.118 0.464a1.663 1.663 0 0 1-0.2 0.517c-0.067 0.08-0.172 0.121-0.305 0.123-0.192 0.004-0.249-0.133-0.182-0.405l-1.741 0.02c-0.137 0.582-0.061 0.969 0.239 1.163 0.29 0.198 0.727 0.294 1.298 0.286a3.894 3.894 0 0 0 1.195-0.171 2.217 2.217 0 0 0 0.84-0.472 1.749 1.749 0 0 0 0.445-0.575 12.335 12.335 0 0 0 0.352-1.213l1.181-4.622-1.669 0.01-0.242 0.456a1.005 1.005 0 0 0-0.966-0.556z m-4.728 0.039a1.449 1.449 0 0 0-1.012 0.382c-0.266 0.255-0.468 0.666-0.617 1.232l-0.557 2.174a2.734 2.734 0 0 0-0.117 0.917 0.713 0.713 0 0 0 0.298 0.521c0.174 0.133 0.421 0.196 0.746 0.196a1.563 1.563 0 0 0 0.56-0.118 2.223 2.223 0 0 0 0.576-0.325l-0.124 0.46a1.575 1.575 0 0 1-0.197 0.521c-0.065 0.078-0.165 0.121-0.298 0.124-0.192 0.004-0.255-0.131-0.188-0.402l-1.771 0.008v0.621c0.014 0.276 0.076 0.423 0.271 0.552 0.296 0.196 0.731 0.284 1.302 0.278a3.721 3.721 0 0 0 1.193-0.162 2.284 2.284 0 0 0 0.834-0.474 1.739 1.739 0 0 0 0.449-0.584 10.27 10.27 0 0 0 0.356-1.208l1.175-4.621-1.659 0.008-0.246 0.457a1.018 1.018 0 0 0-0.392-0.418 1.159 1.159 0 0 0-0.582-0.137z m-3.893 0.04c-0.411 0.008-0.795 0.09-1.152 0.25a2.115 2.115 0 0 0-0.858 0.707c-0.215 0.302-0.396 0.715-0.525 1.236l-0.45 1.749c-0.108 0.45-0.166 0.783-0.167 1.018a1.302 1.302 0 0 0 0.177 0.635 1.067 1.067 0 0 0 0.556 0.46 2.434 2.434 0 0 0 0.96 0.157 2.734 2.734 0 0 0 1.018-0.176 2.239 2.239 0 0 0 0.77-0.517 2.481 2.481 0 0 0 0.485-0.639 4.894 4.894 0 0 0 0.286-0.854l0.116-0.438-1.704 0.017-0.204 0.789a1.949 1.949 0 0 1-0.221 0.602 0.335 0.335 0 0 1-0.311 0.156c-0.106 0-0.166-0.035-0.187-0.113-0.016-0.078 0.01-0.255 0.079-0.525l0.331-1.295 2.311-0.019 0.2-0.799c0.147-0.582 0.196-1.03 0.147-1.352a1.107 1.107 0 0 0-0.49-0.765c-0.28-0.188-0.666-0.282-1.167-0.283z m-10.948 0.111c-0.411 0.004-0.795 0.086-1.156 0.251-0.356 0.165-0.646 0.398-0.864 0.705-0.215 0.304-0.392 0.717-0.521 1.238l-0.45 1.753c-0.114 0.441-0.166 0.783-0.167 1.012a1.334 1.334 0 0 0 0.177 0.641 1.089 1.089 0 0 0 0.556 0.456c0.264 0.11 0.584 0.159 0.96 0.159a2.832 2.832 0 0 0 1.018-0.179c0.288-0.118 0.543-0.286 0.766-0.517 0.223-0.223 0.392-0.437 0.485-0.638a4.806 4.806 0 0 0 0.286-0.856l0.112-0.441-1.704 0.012-0.204 0.795a2.021 2.021 0 0 1-0.223 0.603 0.347 0.347 0 0 1-0.305 0.157c-0.106 0.004-0.172-0.033-0.19-0.112-0.016-0.078 0.01-0.255 0.078-0.524l0.331-1.299 2.317-0.02 0.206-0.795c0.147-0.582 0.2-1.034 0.146-1.355a1.097 1.097 0 0 0-0.489-0.76c-0.278-0.198-0.666-0.292-1.167-0.286z m-3.78 0.037a1.473 1.473 0 0 0-0.688 0.167c-0.215 0.114-0.421 0.276-0.607 0.495l0.174-0.552-1.831 0.02-1.53 5.993 1.8-0.016 1.033-4.054a4.791 4.791 0 0 1 0.258-0.831 0.304 0.304 0 0 1 0.278-0.156c0.119-0.006 0.178 0.045 0.182 0.129 0.004 0.092-0.049 0.345-0.154 0.756l-1.058 4.152 1.796-0.008 1.073-4.205c0.131-0.527 0.204-0.901 0.204-1.12a0.732 0.732 0 0 0-0.235-0.556c-0.157-0.145-0.386-0.217-0.695-0.216z m12.244 0l-1.537 0.012a39.66 39.66 0 0 0-1.283 3.453l0.509-3.447-1.467 0.01c-0.772 2.072-1.206 3.222-1.292 3.453a1093.61 1093.61 0 0 1 0.485-3.447l-1.533 0.021-0.766 5.987 1.925-0.019 1.15-2.909c-0.157 1.161-0.282 2.101-0.362 2.821 0 0.031 0.022 0.043 0.019 0.068h1.9z m11.689 0.839c0.106 0 0.165 0.031 0.18 0.105a1.87 1.87 0 0 1-0.088 0.529l-0.472 1.857a2.689 2.689 0 0 1-0.227 0.654c-0.059 0.1-0.151 0.143-0.267 0.151-0.106 0-0.161-0.037-0.176-0.118a1.78 1.78 0 0 1 0.086-0.525l0.515-2.015a1.723 1.723 0 0 1 0.192-0.509 0.306 0.306 0 0 1 0.257-0.129z m-4.72 0.035c0.106 0 0.166 0.039 0.176 0.115a1.743 1.743 0 0 1-0.084 0.525l-0.476 1.859a2.752 2.752 0 0 1-0.22 0.66 0.317 0.317 0 0 1-0.27 0.147c-0.102 0-0.165-0.043-0.176-0.12a1.892 1.892 0 0 1 0.084-0.525l0.517-2.017a1.42 1.42 0 0 1 0.196-0.509 0.306 0.306 0 0 1 0.255-0.137z m-4.687 0.039h0.023c0.098 0 0.155 0.045 0.163 0.139a2.311 2.311 0 0 1-0.108 0.601l-0.107 0.445h-0.523l0.115-0.441a2.959 2.959 0 0 1 0.196-0.624c0.047-0.074 0.129-0.114 0.241-0.118z m-10.935 0.112c0.096 0 0.145 0.045 0.155 0.135 0.01 0.092-0.022 0.294-0.098 0.603l-0.117 0.443-0.515 0.007 0.109-0.442a2.856 2.856 0 0 1 0.204-0.627c0.043-0.076 0.133-0.116 0.262-0.117z m0.866 5.495a3.279 3.279 0 0 1-0.744 0.421l-0.01 0.004c-0.392 0.155-0.848 0.243-1.379 0.249h-0.007c-0.533 0-0.981-0.082-1.352-0.237a2.415 2.415 0 0 1-0.49-0.266 1.022 1.022 0 0 1-0.818 0.421l-1.796 0.008a0.997 0.997 0 0 1-0.268-0.032 1.058 1.058 0 0 1-0.267 0.035l-0.597 0.008c0.161 0.768 0.403 1.506 0.728 2.202a8.943 8.943 0 0 0 3.281 3.805 8.67 8.67 0 0 0 4.348 1.359c3.662 0.161 7.497-1.865 9.808-5.574 0.27-0.435 0.529-0.901 0.76-1.386l-0.027-0.016c-0.343-0.225-0.548-0.464-0.649-0.834l-0.313 0.147a3.807 3.807 0 0 1-1.383 0.246 3.404 3.404 0 0 1-1.367-0.239c-0.4-0.166-1.498 0.178-1.923 0.179h-1.9a1.046 1.046 0 0 1-0.38-0.075 1.018 1.018 0 0 1-0.413 0.094l-1.931 0.02a1.02 1.02 0 0 1-0.911-0.539z"/></svg>