<svg fill="#FF160B" role="img" viewBox="0 0 25 24" xmlns="http://www.w3.org/2000/svg"><title>New Japan Pro-Wrestling</title><path d="M12.45 0C11.367-0.004 10.299 0.155 9.166 0.481c-3.193 0.92-6.049 3.25-7.475 6.108a13.094 13.094 0 0 0-1.193 3.755c-0.123 0.806-0.111 2.44 0.025 3.323 0.205 1.337 0.566 2.516 1.088 3.562a11.886 11.886 0 0 0 2.312 3.21c2.03 2.022 4.613 3.23 7.556 3.536 0.52 0.053 1.89 0.018 2.497-0.066 4.44-0.606 8.098-3.389 9.766-7.429 1.073-2.597 1.128-5.902 0.141-8.568a15.109 15.109 0 0 0-1.065-2.172 12.127 12.127 0 0 0-4.684-4.33c-1.145-0.594-2.323-0.987-3.697-1.227A11.785 11.785 0 0 0 12.45 0m0.05 0.209c6.512 0 11.79 5.278 11.79 11.791 0 6.513-5.278 11.791-11.79 11.791C5.987 23.791 0.708 18.513 0.708 12S5.986 0.209 12.5 0.209m-0.098 0.212c-0.439 0-0.866 0.018-1.171 0.053A12.087 12.087 0 0 0 3.026 5.191c-0.785 1.048-1.531 2.611-1.873 3.929-0.255 0.983-0.318 1.524-0.321 2.75-0.003 1.189 0.028 1.527 0.234 2.541 0.685 3.36 3.009 6.356 6.14 7.913 1.44 0.715 2.583 1.044 4.366 1.253 0.413 0.048 2.038-0.016 2.61-0.104 3.33-0.512 6.248-2.34 8.055-5.046 0.419-0.627 1.035-1.816 1.278-2.468 0.217-0.584 0.451-1.508 0.56-2.219 0.121-0.78 0.121-2.639 0.004-3.396-0.389-2.506-1.494-4.696-3.266-6.472-1.834-1.839-4.17-2.981-6.884-3.37a11.08 11.08 0 0 0-1.338-0.081z m-0.02 0.114c1.991-0.005 3.663 0.393 5.446 1.296a11.332 11.332 0 0 1 4.671 4.372c1.081 1.847 1.561 3.624 1.565 5.781 0.002 1.924-0.32 3.338-1.129 4.964-0.963 1.939-2.201 3.364-3.929 4.524-2.17 1.456-5.06 2.201-7.548 1.944-2.258-0.234-4.344-1.074-6.17-2.485-0.537-0.415-1.432-1.312-1.9-1.907-0.685-0.87-1.357-2.065-1.722-3.05-0.862-2.333-0.949-5.117-0.227-7.316 0.167-0.512 0.571-1.508 0.776-1.916C3.666 3.862 6.623 1.596 9.955 0.807 10.824 0.601 11.392 0.538 12.38 0.535m0.074 0.212a10.576 10.576 0 0 0-1.529 0.107c-1.692 0.242-3.274 0.856-4.794 1.859-1.323 0.876-2.596 2.189-3.385 3.492-0.502 0.833-1.044 2.144-1.293 3.132-0.439 1.739-0.407 3.731 0.088 5.609 0.782 2.961 2.943 5.616 5.734 7.04 1.447 0.738 2.685 1.084 4.528 1.264 0.353 0.034 0.974 0.027 1.501-0.018a11.382 11.382 0 0 0 4.251-1.174 11.12 11.12 0 0 0 5.053-4.921c0.854-1.634 1.221-3.153 1.224-5.083 0.004-1.909-0.316-3.308-1.135-4.956-0.941-1.896-2.125-3.25-3.839-4.395A11.745 11.745 0 0 0 12.455 0.749m0.673 0.467q0.117 0 0.244 0.022c0.373 0.06 0.47 0.151 0.499 0.463l0.024 0.235h-0.234c-0.206 0-0.235-0.01-0.248-0.103-0.012-0.089-0.048-0.106-0.236-0.118-0.171-0.01-0.226 0.002-0.248 0.061-0.038 0.101 0.035 0.144 0.323 0.181 0.472 0.063 0.632 0.212 0.631 0.598 0 0.302-0.079 0.471-0.253 0.554-0.181 0.088-0.665 0.096-0.901 0.016-0.176-0.06-0.324-0.287-0.322-0.494 0-0.199 0.058-0.247 0.267-0.212 0.145 0.025 0.189 0.055 0.201 0.131 0.025 0.18 0.546 0.206 0.546 0.029 0-0.111-0.106-0.161-0.415-0.197-0.297-0.033-0.47-0.144-0.528-0.342-0.055-0.193 0.007-0.553 0.113-0.659 0.109-0.109 0.302-0.167 0.537-0.165m1.503 0.194c0.038 0 0.201 0.027 0.396 0.071 0.832 0.181 0.937 0.252 0.936 0.624 0 0.307-0.154 0.723-0.302 0.82-0.138 0.091-0.295 0.091-0.622 0.004l-0.264-0.068a2.015 2.015 0 0 0-0.068 0.277c-0.06 0.297-0.076 0.306-0.352 0.226-0.082-0.024-0.149-0.06-0.149-0.078 0-0.02 0.095-0.445 0.208-0.945 0.115-0.499 0.206-0.917 0.207-0.929z m-3.153 0.262l0.03 0.161c0.036 0.191-0.002 0.222-0.314 0.266-0.154 0.02-0.222 0.053-0.222 0.103 0 0.056 0.04 0.064 0.22 0.04 0.121-0.018 0.255-0.043 0.299-0.056 0.067-0.02 0.081 0.006 0.081 0.161V2.532l-0.27 0.053-0.269 0.055 0.033 0.191c0.04 0.218 0.006 0.259-0.214 0.259l-0.144 0.002-0.1-0.607c-0.055-0.334-0.094-0.614-0.085-0.625 0.01-0.009 0.229-0.056 0.486-0.103z m3.586 0.37q-0.055 0-0.075 0.018a0.403 0.403 0 0 0-0.051 0.175c-0.012 0.111 0.006 0.141 0.101 0.167 0.246 0.071 0.369 0.047 0.426-0.078 0.047-0.103 0.042-0.129-0.027-0.179a0.806 0.806 0 0 0-0.374-0.103m-5.147 0.033c0.191 0 0.232 0.017 0.332 0.151 0.245 0.332 0.288 0.755 0.095 0.934-0.199 0.184-0.604 0.292-0.856 0.223-0.106-0.028-0.314-0.429-0.348-0.672a0.574 0.574 0 0 1 0.027-0.309c0.081-0.148 0.489-0.326 0.751-0.326m6.852 0.076c0.183-0.008 0.612 0.136 0.791 0.272 0.217 0.163 0.275 0.344 0.208 0.64-0.063 0.287-0.41 0.902-0.586 1.041-0.154 0.121-0.38 0.121-0.696 0a1.158 1.158 0 0 1-0.411-0.282c-0.161-0.175-0.169-0.201-0.141-0.401 0.064-0.477 0.531-1.214 0.802-1.266z m-9.179 0.259h0.03c0.155 0.004 0.282 0.089 0.401 0.256l0.121 0.172-0.195 0.12c-0.193 0.121-0.199 0.121-0.274 0.035-0.074-0.086-0.081-0.087-0.217-0.006-0.212 0.125-0.288 0.226-0.258 0.348 0.037 0.148 0.393 0.635 0.464 0.635 0.109 0 0.446-0.252 0.446-0.335 0-0.107-0.073-0.104-0.235 0.012l-0.131 0.095-0.119-0.175a1.007 1.007 0 0 1-0.118-0.207c0-0.036 0.631-0.453 0.685-0.453 0.034 0 0.284 0.363 0.373 0.54a0.806 0.806 0 0 1 0.052 0.287c0 0.24-0.174 0.443-0.547 0.645-0.285 0.151-0.377 0.168-0.548 0.1-0.268-0.109-0.891-1.012-0.892-1.292 0-0.185 0.134-0.363 0.417-0.551 0.219-0.146 0.396-0.222 0.544-0.226m2.293 0.091h-0.011a1.007 1.007 0 0 0-0.139 0.04c-0.158 0.054-0.175 0.111-0.092 0.292 0.053 0.116 0.146 0.146 0.289 0.091 0.104-0.04 0.081-0.268-0.04-0.423Zm7.01 0.191a0.222 0.222 0 0 0-0.142 0.051c-0.138 0.124-0.344 0.631-0.293 0.715 0.047 0.079 0.324 0.235 0.415 0.235 0.03 0 0.127-0.118 0.216-0.262 0.226-0.363 0.256-0.514 0.116-0.622a0.504 0.504 0 0 0-0.312-0.118m1.707 0.401c0.065 0 0.876 0.655 0.927 0.748 0.038 0.071 0.036 0.144-0.004 0.278-0.065 0.217-0.346 0.544-0.468 0.544-0.06 0-0.089 0.033-0.089 0.108 0 0.06-0.068 0.201-0.153 0.313a3.022 3.022 0 0 0-0.212 0.308c-0.072 0.136-0.109 0.131-0.304-0.04l-0.163-0.143 0.171-0.232c0.186-0.254 0.179-0.302-0.051-0.474l-0.126-0.093-0.126 0.141a3.022 3.022 0 0 0-0.201 0.249l-0.076 0.107-0.185-0.147-0.186-0.146 0.607-0.761c0.332-0.418 0.621-0.759 0.639-0.76m-12.658 0.323c0.018 0 0.317 0.324 0.665 0.72l0.635 0.72-0.2 0.205c-0.111 0.113-0.232 0.203-0.267 0.203-0.037 0-0.288-0.118-0.557-0.262-0.526-0.282-0.527-0.28-0.065 0.244l0.289 0.326-0.151 0.146c-0.083 0.081-0.171 0.146-0.195 0.145-0.024 0-0.329-0.326-0.679-0.725l-0.634-0.725 0.141-0.145c0.282-0.29 0.302-0.292 0.846-0.005 0.271 0.141 0.49 0.244 0.489 0.229s-0.151-0.201-0.332-0.419l-0.33-0.395 0.157-0.131a0.806 0.806 0 0 1 0.188-0.131m6.421 0.188c0.675-0.004 1.416 0.044 1.862 0.134 2.866 0.574 5.331 2.712 6.281 5.441 0.868 2.497 0.433 5.607-1.066 7.618-0.356 0.475-1.143 1.301-1.581 1.658a8.461 8.461 0 0 1-3.667 1.716c-0.45 0.091-0.739 0.118-1.461 0.131-0.497 0.01-1.06 0-1.249-0.022-0.645-0.081-1.337-0.232-1.81-0.395-2.025-0.705-3.881-2.367-4.845-4.339-0.389-0.796-0.633-1.7-0.738-2.743-0.312-3.122 1.075-6.064 3.691-7.822 1.081-0.725 2.102-1.108 3.516-1.312a8.058 8.058 0 0 1 1.067-0.065m0.164 0.141c-0.65 0.003-1.356 0.05-1.757 0.131-1.638 0.33-3.114 1.164-4.333 2.448a7.655 7.655 0 0 0-1.38 1.964 7.857 7.857 0 0 0-0.836 2.864c-0.071 0.655-0.024 1.79 0.096 2.401 0.483 2.434 2.203 4.669 4.459 5.791 0.723 0.361 1.753 0.665 2.687 0.793 0.453 0.062 1.996 0.025 2.441-0.06 1.873-0.353 3.415-1.168 4.657-2.474 0.647-0.68 0.992-1.168 1.377-1.944 0.963-1.942 1.139-4.402 0.456-6.36-0.213-0.609-0.695-1.553-1.048-2.05-0.35-0.491-1.111-1.301-1.577-1.68a8.028 8.028 0 0 0-4.213-1.786 9.065 9.065 0 0 0-1.031-0.043m6.114 0.053c-0.025 0.003-0.05 0.03-0.092 0.085-0.085 0.111-0.084 0.113 0.062 0.238q0.259 0.222 0.353 0.043c0.046-0.087 0.009-0.138-0.244-0.33q-0.04-0.032-0.067-0.036z m1.478 0.49l0.397 0.417c0.218 0.23 0.44 0.473 0.494 0.539l0.093 0.121-0.177 0.181-0.176 0.181-0.166-0.161c-0.092-0.089-0.181-0.161-0.2-0.161s-0.269 0.217-0.557 0.482l-0.524 0.484-0.151-0.155c-0.083-0.086-0.142-0.177-0.133-0.202 0.009-0.026 0.235-0.252 0.502-0.5 0.267-0.25 0.491-0.473 0.497-0.502 0.007-0.027-0.05-0.111-0.125-0.183-0.077-0.074-0.138-0.156-0.136-0.184s0.085-0.118 0.183-0.201z m-8.8 0.201c0.184 0.004 0.387 0.053 0.58 0.158 0.272 0.149 0.426 0.328 0.528 0.617 0.085 0.239 0.095 0.836 0.015 0.917-0.081 0.081-0.318 0.067-0.456-0.027a6.044 6.044 0 0 1-0.323-0.247 2.015 2.015 0 0 0-0.413-0.258c-0.247-0.108-0.534-0.409-0.576-0.605-0.077-0.346 0.24-0.561 0.645-0.554m2.449 0.099h0.05a0.655 0.655 0 0 1 0.297 0.069c0.308 0.169 0.349 0.574 0.089 0.904-0.054 0.068-0.298 0.226-0.544 0.349-0.245 0.124-0.497 0.278-0.558 0.344-0.141 0.151-0.169 0.151-0.25-0.006-0.181-0.355-0.121-1.06 0.114-1.328 0.173-0.197 0.512-0.325 0.802-0.332M9.821 4.789q0.071 0 0.151 0.004c0.335 0.016 0.829 0.896 0.621 1.105-0.074 0.074-0.292 0.066-0.522-0.018a3.425 3.425 0 0 0-0.608-0.112c-0.5-0.05-0.655-0.111-0.695-0.269-0.023-0.098 0.01-0.149 0.195-0.32 0.312-0.282 0.524-0.383 0.858-0.388Zm5.298 0.056c0.161 0 0.309 0.04 0.508 0.141 0.319 0.159 0.673 0.51 0.629 0.622-0.041 0.108-0.353 0.252-0.703 0.326-0.349 0.074-0.433 0.077-0.644 0.015-0.204-0.058-0.332-0.276-0.333-0.564 0-0.193 0.02-0.247 0.157-0.383 0.136-0.136 0.187-0.156 0.386-0.156M4.263 5h0.022c0.111 0.01 0.295 0.169 0.766 0.564 0.41 0.344 0.745 0.643 0.745 0.662s-0.067 0.101-0.151 0.181l-0.148 0.145-0.753-0.624-0.752-0.623 0.091-0.131c0.073-0.101 0.115-0.168 0.181-0.174m-0.592 0.725c0.014 0 0.133 0.218 0.266 0.484l0.241 0.486h0.58c0.317 0 0.578 0.01 0.578 0.022s-0.058 0.115-0.128 0.23l-0.126 0.212H4.11l0.32 0.207c0.176 0.115 0.328 0.217 0.339 0.227 0.022 0.022-0.186 0.396-0.22 0.393a23.167 23.167 0 0 1-0.826-0.484 38.276 38.276 0 0 1-0.826-0.502c-0.03-0.032 0.191-0.398 0.242-0.396 0.026 0 0.159 0.073 0.298 0.161 0.139 0.088 0.272 0.161 0.292 0.161 0.023 0-0.044-0.161-0.152-0.357l-0.197-0.355 0.131-0.246c0.074-0.134 0.146-0.242 0.16-0.242m13.114 0.048h0.041l0.148 0.008c0.814 0.058 0.96 0.58 0.449 1.595q-0.346 0.691-0.564 0.359c-0.112-0.173-0.05-0.322 0.279-0.665 0.332-0.348 0.395-0.453 0.395-0.645q0-0.327-0.395-0.362c-0.35-0.03-0.604 0.119-0.788 0.461-0.177 0.334-0.266 0.417-0.517 0.489-0.242 0.068-0.285 0.157-0.154 0.32 0.212 0.264 0.219 0.312 0.056 0.497-0.111 0.126-0.142 0.195-0.118 0.268 0.017 0.053 0.042 0.174 0.054 0.268 0.03 0.222-0.079 0.292-0.582 0.382a3.525 3.525 0 0 0-0.873 0.296c-0.272 0.127-0.534 0.238-0.582 0.246-0.171 0.03-0.278 0.247-0.272 0.559l0.01 0.982 0.004 0.692-0.139 0.126c-0.163 0.148-0.596 0.285-0.803 0.254a1.511 1.511 0 0 1-0.292-0.083c-0.121-0.05-0.159-0.05-0.22 0-0.125 0.104-0.091 0.322 0.073 0.458 0.376 0.317 0.456 0.415 0.456 0.549 0 0.143 0.135 0.244 0.326 0.244 0.084 0 0.089-0.02 0.061-0.227-0.03-0.228-0.028-0.229 0.203-0.444 0.128-0.117 0.247-0.27 0.264-0.338 0.05-0.201 0.155-0.279 0.541-0.401 0.632-0.199 1.17-0.125 1.536 0.212 0.244 0.226 0.325 0.473 0.292 0.909-0.023 0.341-0.152 0.645-0.346 0.826-0.167 0.155-0.197 0.138-0.198-0.101 0-0.173-0.017-0.215-0.103-0.246-0.182-0.067-0.719-0.091-0.796-0.034-0.038 0.028-0.091 0.167-0.117 0.307a1.41 1.41 0 0 1-0.213 0.493c-0.174 0.254-0.463 0.509-0.517 0.455-0.017-0.018-0.03-0.242-0.03-0.495 0-0.428-0.01-0.468-0.111-0.549-0.151-0.123-0.383-0.155-0.715-0.101-0.222 0.036-0.319 0.032-0.437-0.016-0.181-0.074-0.28-0.045-0.315 0.093-0.022 0.091 0.073 0.754 0.148 1.033q0.053 0.194-0.238 0.015c-0.078-0.047-0.282-0.242-0.454-0.43l-0.309-0.346-0.373-0.054c-0.672-0.095-1.112-0.413-1.42-1.027-0.093-0.184-0.212-0.363-0.262-0.395-0.141-0.091-0.309 0.013-0.383 0.238-0.048 0.147-0.109 0.212-0.299 0.322-0.131 0.077-0.302 0.227-0.377 0.332a1.007 1.007 0 0 1-0.205 0.222q-0.139 0.057-0.297-0.299c-0.118-0.266-0.171-1.299-0.077-1.525 0.037-0.091 0.198-0.245 0.447-0.425 0.264-0.191 0.419-0.34 0.483-0.464 0.05-0.101 0.084-0.191 0.074-0.201s-0.101 0.046-0.202 0.126c-0.099 0.081-0.33 0.217-0.513 0.305-0.385 0.183-0.508 0.178-0.708-0.036l-0.125-0.135-0.051 0.126a2.015 2.015 0 0 0-0.077 0.289c-0.052 0.266-0.145 0.398-0.432 0.617a7.051 7.051 0 0 0-0.641 0.605c-0.201 0.217-0.4 0.395-0.438 0.395-0.081 0-0.109-0.191-0.156-1.043-0.045-0.816 0.067-1.324 0.382-1.717 0.232-0.289 0.63-0.458 0.946-0.405 0.236 0.04 0.316 0.129 0.316 0.345 0 0.44 0.095 0.422 0.327-0.064 0.191-0.401 0.27-0.483 0.557-0.576 0.181-0.06 0.355-0.217 0.299-0.272-0.02-0.02-0.181-0.033-0.363-0.034-0.296 0-0.332-0.01-0.345-0.092-0.05-0.325-0.043-0.322-0.262-0.098a0.907 0.907 0 0 1-0.403 0.262 3.122 3.122 0 0 0-0.788 0.373 0.504 0.504 0 0 1-0.201 0.086c-0.133 0-0.056-0.332 0.135-0.597a5.036 5.036 0 0 0 0.324-0.549c0.274-0.544 0.504-0.748 0.838-0.748 0.153 0 0.174 0.017 0.242 0.185 0.04 0.101 0.101 0.185 0.131 0.185 0.121 0 0.157-0.165 0.111-0.515-0.113-0.876-0.021-1.34 0.298-1.491 0.287-0.137 0.453-0.087 1.037 0.314 0.353 0.242 0.397 0.26 0.651 0.26 0.148 0 0.453-0.045 0.678-0.101 0.312-0.077 0.558-0.101 1.055-0.104 0.616-0.004 0.661 0.002 0.924 0.126 0.518 0.242 0.649 0.449 0.574 0.907-0.025 0.157-0.032 0.304-0.017 0.328 0.081 0.128-0.054 0.363-0.425 0.743q-0.388 0.398-0.362 0.467c0.022 0.057 0.141 0.074 0.591 0.091 0.604 0.023 0.728-0.003 0.822-0.18 0.052-0.098 0.047-0.138-0.041-0.306-0.121-0.236-0.181-1.076-0.101-1.373 0.101-0.37 0.489-0.652 1.118-0.813a1.612 1.612 0 0 1 0.637-0.04c0.823 0.084 0.891 0.073 1.515-0.226 0.416-0.199 0.533-0.252 0.694-0.257m4.433 0.136c0.302 0 0.653 0.463 0.655 0.862 0.002 0.161-0.02 0.215-0.161 0.338-0.093 0.081-0.191 0.137-0.222 0.128s-0.095-0.095-0.146-0.189c-0.078-0.144-0.081-0.176-0.027-0.212 0.054-0.032 0.055-0.064 0.008-0.181-0.079-0.187-0.197-0.289-0.28-0.239-0.053 0.033-0.038 0.097 0.082 0.361 0.239 0.517 0.187 0.688-0.279 0.937-0.278 0.148-0.393 0.121-0.655-0.151-0.228-0.237-0.349-0.489-0.349-0.73 0-0.114 0.342-0.477 0.425-0.45 0.026 0.01 0.091 0.091 0.145 0.183 0.091 0.157 0.093 0.173 0.02 0.254s-0.071 0.097 0.026 0.269c0.057 0.101 0.138 0.191 0.181 0.199 0.145 0.028 0.145-0.134-0.005-0.439-0.081-0.163-0.146-0.33-0.146-0.372 0-0.25 0.408-0.568 0.728-0.568M7.607 6.279c-0.113-0.003-0.206 0.028-0.258 0.103-0.106 0.151-0.096 0.622 0.02 0.935 0.083 0.218 0.267 0.443 0.363 0.443 0.016 0 0.159-0.117 0.317-0.259 0.416-0.371 0.461-0.63 0.166-0.927-0.183-0.183-0.42-0.289-0.608-0.295m10.498 0.571c0.063 0.004 0.143 0.076 0.265 0.215 0.29 0.328 0.278 0.351-0.224 0.438a0.353 0.353 0 0 1-0.206-0.025c-0.102-0.06-0.104-0.236-0.004-0.445 0.059-0.125 0.106-0.187 0.169-0.182m0.357 1.008h0.014a0.705 0.705 0 0 1 0.182 0.055c0.268 0.103 0.653 0.445 0.782 0.695 0.106 0.204 0.14 0.635 0.057 0.718-0.108 0.109-0.322 0.097-0.61-0.033-0.501-0.228-0.614-0.401-0.614-0.929 0-0.244 0.022-0.344 0.088-0.425 0.042-0.053 0.064-0.081 0.1-0.082m-0.957 0.037q0.111 0.003 0.252 0.134c0.143 0.133 0.291 0.53 0.302 0.812 0.007 0.151-0.079 0.191-0.272 0.126a3.022 3.022 0 0 1-0.284-0.134c-0.217-0.115-0.278-0.277-0.231-0.618 0.028-0.215 0.115-0.324 0.235-0.32m-14.587 0.708a0.745 0.745 0 0 1 0.508 0.187c0.294 0.257 0.365 0.59 0.198 0.93-0.171 0.353-0.624 0.524-0.97 0.371-0.527-0.237-0.665-0.814-0.293-1.226a0.766 0.766 0 0 1 0.557-0.262m19.085 0.002c0.214 0.003 0.43 0.091 0.586 0.272a0.907 0.907 0 0 1 0.186 0.362 0.79 0.79 0 0 1-0.997 0.879 0.782 0.782 0 0 1-0.46-1.108 0.745 0.745 0 0 1 0.685-0.405m-12.883 0.171c-0.151 0-0.274 0.009-0.274 0.02 0 0.01 0.043 0.267 0.095 0.573 0.191 1.136 0.383 1.377 1.279 1.597 0.779 0.191 0.87 0.264 0.833 0.671-0.017 0.196-0.007 0.3 0.04 0.37 0.058 0.083 0.157 0.133 0.157 0.08a2.015 2.015 0 0 0-0.05-0.163c-0.04-0.111-0.038-0.163 0.005-0.215 0.04-0.048 0.046-0.168 0.023-0.413-0.028-0.309-0.02-0.356 0.071-0.478 0.091-0.126 0.095-0.154 0.044-0.401a2.317 2.317 0 0 1-0.024-0.627c0.03-0.348 0.028-0.368-0.085-0.481-0.098-0.098-0.161-0.118-0.375-0.118-0.194 0-0.324-0.034-0.534-0.141A2.971 2.971 0 0 0 9.122 8.777m-6.242 0.063c-0.349 0.027-0.594 0.453-0.44 0.763 0.159 0.335 0.685 0.413 0.913 0.111 0.191-0.235 0.139-0.639-0.141-0.784a0.544 0.544 0 0 0-0.289-0.09Zm19.074 0.002c-0.377 0.013-0.628 0.504-0.413 0.815 0.169 0.267 0.584 0.351 0.816 0.125 0.234-0.197 0.256-0.6 0.012-0.795a0.604 0.604 0 0 0-0.415-0.145m-6.054 0.189q0.009 0 0.012 0.002c0.044 0.042-0.295 1.041-0.421 1.239q-0.366 0.574-1.236 0.392a1.511 1.511 0 0 0-0.403-0.02l-0.195 0.026 0.028-0.312c0.028-0.32 0.096-0.506 0.22-0.609 0.063-0.053 0.073-0.037 0.073 0.128 0 0.275 0.064 0.407 0.272 0.544 0.312 0.207 0.702 0.121 0.954-0.209 0.117-0.155 0.123-0.564 0.01-0.786-0.045-0.087-0.066-0.174-0.046-0.194 0.04-0.04 0.637-0.201 0.732-0.202m-6.653 0.023c0.016 0 0.109 0.023 0.204 0.051l0.174 0.054-0.095 0.157c-0.076 0.127-0.088 0.205-0.065 0.398 0.065 0.551 0.564 0.825 1.077 0.592 0.181-0.084 0.433-0.349 0.433-0.459 0-0.03 0.018-0.052 0.041-0.052 0.095 0 0.179 0.143 0.209 0.352 0.018 0.123 0.043 0.267 0.056 0.32 0.02 0.091-0.002 0.1-0.363 0.128l-0.614 0.051a1.41 1.41 0 0 1-0.386-0.017c-0.325-0.083-0.524-0.309-0.63-0.719-0.071-0.272-0.099-0.856-0.04-0.856m8.233 0.051c0.123-0.002 0.28 0.1 0.41 0.286 0.127 0.184 0.13 0.191 0.13 0.924 0 0.507-0.018 0.745-0.053 0.758-0.03 0.01-0.165-0.087-0.305-0.215-0.371-0.338-0.471-0.599-0.436-1.119 0.016-0.222 0.053-0.453 0.083-0.52a0.181 0.181 0 0 1 0.171-0.115m-7.468 0.184q0.046 0 0.115 0.008c0.517 0.057 0.745 0.537 0.368 0.771-0.23 0.141-0.416 0.124-0.606-0.056a0.604 0.604 0 0 1-0.189-0.32c-0.025-0.145-0.013-0.189 0.091-0.295 0.081-0.081 0.128-0.108 0.221-0.108m4.755 0.096h0.02c0.05 0.002 0.09 0.025 0.151 0.07 0.093 0.071 0.129 0.141 0.14 0.276 0.025 0.344-0.131 0.547-0.46 0.6-0.126 0.02-0.176 0.002-0.264-0.092a0.604 0.604 0 0 1-0.134-0.325c-0.02-0.177-0.006-0.225 0.092-0.322a0.866 0.866 0 0 1 0.454-0.207m-4.604 0.138c-0.123 0.005-0.204 0.081-0.205 0.198 0 0.232 0.33 0.304 0.426 0.093 0.071-0.153 0.004-0.269-0.167-0.289z m8.41 0.004q0.079 0 0.224 0.053c0.453 0.161 0.937 0.591 1.133 1.011 0.247 0.524 0.248 1.457 0.004 1.703-0.151 0.151-0.279 0.105-0.696-0.249a21.152 21.152 0 0 0-0.569-0.467c-0.193-0.148-0.344-0.44-0.347-0.662 0-0.081 0.03-0.286 0.071-0.457a2.619 2.619 0 0 0 0.06-0.578c-0.013-0.253 0.006-0.353 0.121-0.354m-3.95 0.128q-0.232-0.002-0.23 0.241c0 0.093 0.03 0.141 0.104 0.172 0.117 0.046 0.272 0.018 0.322-0.061 0.052-0.081 0.042-0.236-0.02-0.297-0.03-0.03-0.111-0.055-0.176-0.055m2.678 1.294c0.126 0 0.409 0.337 0.45 0.539 0.053 0.262 0.038 0.743-0.03 1.031-0.071 0.302-0.229 0.692-0.282 0.692-0.02 0-0.118-0.095-0.219-0.211-0.279-0.326-0.318-0.498-0.199-0.843 0.053-0.154 0.108-0.403 0.121-0.549 0.06-0.618 0.071-0.659 0.159-0.659M1.501 11.033l0.289 0.026c0.356 0.03 1.672 0.117 1.796 0.117 0.083 0 0.091 0.027 0.081 0.285l-0.015 0.285-0.576 0.226a9.065 9.065 0 0 0-0.601 0.248c-0.013 0.012 0.255 0.008 0.592-0.01l0.612-0.031-0.013 0.2-0.014 0.202-0.88 0.079c-0.483 0.043-0.967 0.09-1.074 0.101l-0.197 0.02 0.002-0.352v-0.353l0.698-0.23c0.806-0.267 0.799-0.29-0.11-0.297l-0.59-0.004v-0.256Zm21.153 0.31l0.077 0.002c0.203 0.004 0.393 0.028 0.473 0.072 0.224 0.121 0.266 0.237 0.267 0.729 0 0.541-0.086 0.729-0.372 0.815-0.236 0.071-0.653 0.068-1.06-0.006-0.526-0.096-0.655-0.169-0.718-0.403-0.06-0.219-0.033-0.718 0.047-0.867 0.06-0.116 0.282-0.233 0.438-0.232 0.109 0 0.118 0.016 0.118 0.201 0 0.164-0.018 0.209-0.09 0.228-0.136 0.035-0.201 0.242-0.139 0.431 0.04 0.125 0.081 0.159 0.221 0.188 0.245 0.052 0.738 0.032 0.817-0.033 0.091-0.077 0.094-0.524 0.002-0.598-0.131-0.109-0.232-0.037-0.248 0.175l-0.016 0.198-0.215-0.015-0.217-0.014v-0.778l0.139-0.04a2.015 2.015 0 0 1 0.476-0.051z m-16.01 0.433c0.036 0 0.091 0.057 0.118 0.127 0.101 0.255 0.239 0.922 0.267 1.306 0.034 0.463 0 0.556-0.36 0.953-0.128 0.141-0.294 0.396-0.369 0.564-0.207 0.461-0.319 0.554-0.467 0.388-0.191-0.216-0.496-1.234-0.495-1.652 0-0.244 0.181-0.709 0.362-0.93 0.161-0.197 0.859-0.757 0.944-0.757m11.765 0.096q0.053 0 0.127 0.043c0.178 0.101 0.74 0.858 0.856 1.155 0.144 0.37 0.143 0.91-0.004 1.237-0.109 0.244-0.283 0.425-0.405 0.425-0.036 0-0.263-0.191-0.506-0.427-0.609-0.589-0.705-0.792-0.544-1.172a6.044 6.044 0 0 0 0.202-0.685c0.104-0.423 0.164-0.574 0.272-0.576m-14.776 0.889q0.025 0 0.028 0.002c0.026 0.026 0.25 1.105 0.231 1.118a3.022 3.022 0 0 1-0.206 0.054c-0.222 0.054-0.186 0.104-0.302-0.423-0.062-0.282-0.103-0.332-0.212-0.264-0.05 0.033-0.05 0.1 0.012 0.398 0.04 0.196 0.075 0.365 0.075 0.372 0 0.025-0.467 0.125-0.488 0.104a3.022 3.022 0 0 1-0.1-0.397c-0.076-0.363-0.084-0.378-0.205-0.378-0.07 0-0.138 0.019-0.151 0.04-0.014 0.023 0.015 0.225 0.065 0.45 0.05 0.226 0.076 0.423 0.057 0.439-0.044 0.039-0.473 0.181-0.549 0.181-0.033 0-0.06-0.013-0.06-0.028s-0.077-0.351-0.167-0.745a9.065 9.065 0 0 1-0.149-0.731c0.032-0.026 1.873-0.191 2.121-0.192m4.931 0.169c0.097 0 0.103 0.01 0.267 0.486 0.081 0.228 0.171 0.385 0.312 0.531 0.249 0.26 0.353 0.413 0.353 0.524 0 0.117-0.594 1-0.675 1-0.034 0-0.131-0.092-0.214-0.206a11.08 11.08 0 0 1-0.382-0.588c-0.219-0.361-0.232-0.395-0.232-0.705 0-0.524 0.282-1.041 0.571-1.042m12.745 0.186c0.417 0.006 2.02 0.094 2.044 0.119 0.018 0.018-0.079 0.717-0.102 0.74a18.131 18.131 0 0 1-0.766 0.094c-0.415 0.046-0.728 0.091-0.695 0.104 0.035 0.012 0.355 0.087 0.711 0.165 0.624 0.139 0.645 0.148 0.635 0.258-0.03 0.312-0.064 0.413-0.141 0.409-0.043-0.002-0.514-0.144-1.045-0.312-0.532-0.169-0.967-0.316-0.967-0.329l0.033-0.261 0.03-0.238 0.564-0.105c0.312-0.057 0.544-0.113 0.518-0.122a8.058 8.058 0 0 0-0.508-0.074l-0.458-0.058 0.015-0.183a0.705 0.705 0 0 1 0.033-0.201 0.504 0.504 0 0 1 0.099-0.006m-4.523 0.048c0.084-0.006 0.193 0.057 0.274 0.177 0.089 0.131 0.105 0.218 0.105 0.537 0 0.457-0.058 0.638-0.4 1.236-0.199 0.351-0.278 0.45-0.355 0.45-0.054 0-0.121-0.027-0.147-0.06a22.16 22.16 0 0 1-0.292-0.427c-0.216-0.322-0.242-0.383-0.215-0.526 0.048-0.255 0.146-0.405 0.532-0.814 0.198-0.212 0.376-0.428 0.392-0.484s0.057-0.087 0.107-0.09m-12.903 0.784c0.04 0 0.116 0.337 0.081 0.37a3.022 3.022 0 0 1-0.408 0.202c-0.203 0.091-0.356 0.166-0.338 0.166s0.205-0.04 0.417-0.091 0.399-0.093 0.417-0.093c0.037 0 0.146 0.199 0.193 0.353 0.026 0.085-0.025 0.125-0.408 0.322-0.24 0.125-0.43 0.232-0.423 0.239s0.218-0.05 0.463-0.131c0.249-0.079 0.458-0.135 0.468-0.125s0.05 0.094 0.088 0.187l0.071 0.167-0.752 0.236c-0.413 0.13-0.873 0.277-1.024 0.327a3.022 3.022 0 0 1-0.307 0.09c-0.017 0-0.076-0.108-0.13-0.238a1.511 1.511 0 0 1-0.098-0.292c0-0.031 0.23-0.165 0.509-0.299 0.28-0.132 0.508-0.247 0.507-0.254s-0.222 0.044-0.495 0.117a6.044 6.044 0 0 1-0.572 0.134c-0.048 0-0.109-0.095-0.173-0.261-0.055-0.144-0.093-0.267-0.085-0.276a90.653 90.653 0 0 1 1.998-0.85m3.445 0.232c0.177 0 0.353 0.189 0.534 0.58 0.087 0.191 0.262 0.506 0.388 0.699 0.145 0.222 0.229 0.401 0.228 0.488 0 0.076-0.103 0.462-0.228 0.86-0.125 0.397-0.242 0.802-0.258 0.896-0.015 0.1-0.053 0.173-0.089 0.174-0.033 0-0.216-0.183-0.405-0.405-0.437-0.514-0.753-0.941-0.908-1.236-0.107-0.201-0.121-0.286-0.121-0.648 0-0.353 0.02-0.454 0.127-0.685 0.205-0.443 0.488-0.722 0.731-0.723m10.503 0.087h0.002c0.099 0.005 0.21 0.083 0.352 0.23 0.431 0.448 0.652 1.488 0.34 1.607-0.118 0.045-0.287-0.06-0.413-0.26-0.084-0.132-0.148-0.186-0.226-0.186-0.164 0-0.177 0.108-0.053 0.437 0.175 0.465 0.191 0.677 0.072 0.923-0.121 0.25-0.38 0.49-0.531 0.489-0.096 0-0.124-0.044-0.212-0.312a5.036 5.036 0 0 0-0.282-0.64c-0.25-0.46-0.242-0.534 0.141-1.148a14.102 14.102 0 0 0 0.459-0.794c0.121-0.24 0.224-0.353 0.351-0.346m3.115 0.282c0.043 0.002 2.049 0.594 2.062 0.611 0.02 0.024-0.22 0.637-0.248 0.635-0.016 0-0.466-0.179-1-0.399s-0.975-0.403-0.981-0.407c-0.023-0.016 0.138-0.439 0.167-0.439m-11.175 0.23c0.043 0 0.139 0.089 0.214 0.197 0.297 0.425 0.433 0.898 0.433 1.525 0 0.435-0.003 0.45-0.102 0.45-0.067 0-0.212-0.112-0.411-0.32-0.396-0.413-0.57-0.763-0.534-1.078 0.033-0.275 0.29-0.776 0.4-0.776m1.886 0.049c0.037 0 0.378 0.693 0.378 0.768s-0.224 0.246-0.322 0.246a0.201 0.201 0 0 1-0.141-0.07c-0.099-0.121-0.111-0.508-0.022-0.738 0.043-0.114 0.091-0.206 0.107-0.206m2.038 0.023l0.065 0.161c0.103 0.252 0.131 0.561 0.065 0.693-0.071 0.138-0.197 0.161-0.37 0.067s-0.159-0.209 0.061-0.599z m1.797 0.211q0.101 0 0.165 0.1c0.09 0.144 0.181 0.791 0.147 1.025-0.04 0.261-0.232 0.48-0.621 0.712-0.363 0.216-0.33 0.204-0.417 0.15-0.05-0.032-0.056-0.106-0.031-0.335 0.02-0.161 0.04-0.429 0.049-0.594 0.016-0.371 0.151-0.676 0.399-0.899q0.179-0.161 0.309-0.16z m-2.943 0.643c0.073 0 0.312 0.074 0.534 0.165 0.411 0.17 0.566 0.183 1.022 0.087 0.325-0.071 0.34 0.211 0.027 0.485-0.201 0.177-0.325 0.178-0.834 0.002-0.557-0.193-0.796-0.186-1.488 0.046-0.302 0.101-0.566 0.185-0.584 0.185s-0.101-0.071-0.186-0.156c-0.244-0.244-0.275-0.539-0.058-0.537 0.058 0 0.196 0.042 0.308 0.093 0.322 0.146 0.459 0.121 0.816-0.141 0.201-0.149 0.358-0.229 0.443-0.229m9.609 0.01l0.293 0.116 0.292 0.116-0.278 0.594c-0.154 0.327-0.292 0.594-0.307 0.594a24.174 24.174 0 0 1-0.907-0.483 44.319 44.319 0 0 0-0.916-0.499c-0.044-0.016 0.111-0.356 0.164-0.355 0.02 0 0.327 0.144 0.679 0.32l0.639 0.32 0.172-0.362z m-1.954 0.546c0.056 0 0.38 0.141 0.38 0.171a1.511 1.511 0 0 1-0.101 0.202c-0.056 0.098-0.093 0.187-0.081 0.196 0.01 0.009 0.332 0.199 0.713 0.425l0.705 0.417c0.02 0.012-0.24 0.433-0.266 0.431a18.131 18.131 0 0 1-0.716-0.46l-0.695-0.458-0.131 0.163-0.131 0.161-0.171-0.124-0.181-0.134c-0.01-0.008 0.608-0.927 0.665-0.987q0.004-0.004 0.009-0.003m-16.536 0.136l0.119 0.173a0.806 0.806 0 0 1 0.115 0.219c0 0.026-0.073 0.097-0.161 0.157s-0.161 0.136-0.161 0.169c0 0.076 0.224 0.344 0.287 0.345 0.04 0 0.675-0.423 1.066-0.71l0.128-0.095 0.113 0.136a0.705 0.705 0 0 1 0.113 0.173c0.004 0.09-0.967 0.874-1.263 1.017-0.264 0.131-0.36 0.145-0.515 0.081-0.146-0.057-0.355-0.296-0.502-0.567-0.108-0.199-0.127-0.279-0.101-0.413 0.036-0.201 0.244-0.419 0.546-0.572z m12.638 0.047c0.113 0 0.294 0.265 0.346 0.508a1.662 1.662 0 0 1-0.021 0.871c-0.114 0.383-0.302 0.548-1.108 0.97-0.396 0.207-0.725 0.376-0.735 0.376-0.007 0-0.025-0.191-0.042-0.427a3.022 3.022 0 0 0-0.108-0.643c-0.111-0.312-0.04-0.449 0.324-0.641 0.344-0.181 0.554-0.34 0.967-0.725 0.171-0.159 0.342-0.288 0.377-0.289m-7.355 0.019q0.035 0 0.086 0.01c0.242 0.047 0.388 0.136 0.724 0.448 0.171 0.159 0.398 0.357 0.503 0.438 0.312 0.242 0.345 0.459 0.202 1.348-0.075 0.473-0.108 0.576-0.188 0.59-0.037 0.007-0.275-0.105-0.528-0.248-0.703-0.396-0.954-0.577-1.108-0.797-0.125-0.178-0.143-0.243-0.158-0.598-0.022-0.529 0.05-0.843 0.246-1.047 0.101-0.107 0.145-0.144 0.222-0.144m-3.231 0.993l0.153 0.149c0.085 0.083 0.155 0.168 0.155 0.189s-0.121 0.222-0.269 0.443c-0.419 0.624-0.849 1.309-0.833 1.326 0.01 0.008 0.327-0.284 0.708-0.65 0.383-0.365 0.705-0.666 0.718-0.667 0.052-0.004 0.562 0.453 0.671 0.603 0.201 0.272 0.138 0.476-0.265 0.856-0.137 0.131-0.295 0.252-0.351 0.271-0.131 0.042-0.371-0.076-0.566-0.277-0.086-0.089-0.178-0.159-0.205-0.161-0.026 0-0.151 0.116-0.282 0.259l-0.233 0.261-0.33-0.382-0.331-0.379 0.137-0.198a1.007 1.007 0 0 0 0.134-0.238c0-0.021-0.071-0.119-0.155-0.219l-0.156-0.181-0.223 0.099-0.225 0.097-0.173-0.194a1.309 1.309 0 0 1-0.174-0.222c0-0.016 0.471-0.197 1.048-0.406z m13.798 0.004c0.113 0 0.26 0.068 0.383 0.177 0.079 0.067 0.077 0.078-0.041 0.2-0.094 0.098-0.153 0.121-0.236 0.101-0.083-0.021-0.145 0.005-0.246 0.101-0.151 0.146-0.171 0.229-0.063 0.271 0.04 0.015 0.081 0.027 0.089 0.027s0.114-0.083 0.238-0.185c0.29-0.24 0.482-0.294 0.705-0.202 0.45 0.187 0.735 0.531 0.677 0.822-0.036 0.181-0.242 0.456-0.474 0.632-0.191 0.145-0.427 0.175-0.596 0.076a3.022 3.022 0 0 1-0.275-0.206l-0.181-0.151 0.171-0.172 0.221 0.209 0.169-0.187c0.197-0.22 0.21-0.308 0.053-0.38-0.105-0.047-0.136-0.032-0.342 0.161-0.336 0.314-0.546 0.339-0.834 0.097-0.176-0.148-0.28-0.339-0.28-0.516 0-0.258 0.437-0.705 0.691-0.705m-8.358 0.472a0.252 0.252 0 0 1 0.131 0.034c0.214 0.115 0.975 1.287 0.975 1.502 0 0.163-0.458 0.22-0.795 0.099-0.437-0.156-0.588-0.399-0.59-0.943-0.002-0.427 0.106-0.682 0.279-0.692m-5.761 0.091c-0.027 0.004-0.121 0.038-0.227 0.084-0.216 0.093-0.219 0.097-0.138 0.185 0.081 0.091 0.084 0.091 0.232-0.081a1.007 1.007 0 0 0 0.141-0.187z m8.581 0.131q0.02 0 0.039 0.002c0.167 0.012 0.256 0.173 0.254 0.476-0.005 0.504-0.269 0.852-0.735 0.974-0.346 0.091-0.383 0.089-0.58-0.01-0.111-0.055-0.166-0.117-0.175-0.196-0.024-0.212 0.469-0.849 0.854-1.104q0.201-0.134 0.343-0.141m4.595 0.159c0.04 0.002 0.094 0.046 0.177 0.143l0.153 0.179-0.282 0.225c-0.377 0.3-0.365 0.281-0.265 0.372 0.085 0.077 0.101 0.071 0.39-0.176l0.301-0.255 0.165 0.204 0.168 0.202-0.303 0.239c-0.164 0.131-0.3 0.265-0.3 0.296 0 0.032 0.036 0.093 0.081 0.131 0.076 0.068 0.109 0.053 0.423-0.199 0.187-0.151 0.356-0.273 0.376-0.273 0.042 0 0.418 0.413 0.413 0.456-0.002 0.024-0.717 0.61-1.038 0.848l-0.111 0.083-0.202-0.292c-0.635-0.896-1.003-1.44-1.003-1.471 0-0.026 0.502-0.456 0.822-0.705a0.05 0.05 0 0 1 0.035-0.01z m-12.264 0.533c-0.02 0-0.091 0.058-0.162 0.131l-0.128 0.133 0.198 0.165 0.198 0.163 0.128-0.09c0.071-0.05 0.131-0.121 0.131-0.154 0-0.063-0.3-0.349-0.365-0.348m1.238 0.397c0.091-0.005 0.418 0.181 0.418 0.246 0 0.018-0.121 0.456-0.271 0.977-0.151 0.518-0.269 0.949-0.262 0.956 0.007 0.006 0.218-0.339 0.465-0.771 0.598-1.044 0.509-0.952 0.802-0.829 0.234 0.097 0.244 0.107 0.221 0.243-0.04 0.225-0.091 0.997-0.065 0.997 0.012 0 0.111-0.214 0.221-0.474 0.109-0.262 0.204-0.479 0.21-0.486a0.705 0.705 0 0 1 0.201 0.062c0.146 0.058 0.186 0.096 0.165 0.152-0.017 0.042-0.186 0.504-0.378 1.023-0.191 0.522-0.363 0.96-0.378 0.977-0.016 0.015-0.164-0.032-0.328-0.107a6.044 6.044 0 0 1-0.305-0.144c-0.004-0.005 0.037-0.332 0.094-0.725a10.073 10.073 0 0 0 0.091-0.735c-0.008-0.008-0.154 0.264-0.322 0.604-0.171 0.338-0.315 0.624-0.323 0.633-0.017 0.016-0.786-0.388-0.884-0.464-0.04-0.033-0.033-0.105 0.03-0.292l0.086-0.25-0.226-0.146-0.226-0.146-0.194 0.165c-0.21 0.181-0.229 0.178-0.493-0.048l-0.151-0.131 0.863-0.621c0.475-0.343 0.891-0.642 0.924-0.662l0.016-0.002z m9.874 0.018c0.228 0 0.572 0.383 0.572 0.632q0 0.151 0.066 0.152c0.083 0 0.289 0.206 0.557 0.554l0.209 0.272-0.228 0.138-0.227 0.141-0.233-0.322c-0.129-0.176-0.264-0.322-0.299-0.322a0.907 0.907 0 0 0-0.254 0.108l-0.188 0.107 0.205 0.361c0.114 0.197 0.195 0.378 0.181 0.401-0.026 0.042-0.363 0.227-0.413 0.227-0.015 0-0.236-0.433-0.489-0.959l-0.461-0.957 0.104-0.077c0.185-0.141 0.806-0.456 0.897-0.456m-0.015 0.512a0.403 0.403 0 0 0-0.191 0.064c-0.255 0.138-0.255 0.141-0.168 0.273a0.403 0.403 0 0 0 0.098 0.121c0.01 0 0.101-0.053 0.201-0.117 0.19-0.121 0.205-0.145 0.157-0.272q-0.027-0.071-0.097-0.07m-1.037 0.005l0.344 1.031 0.345 1.031-0.254 0.096a2.015 2.015 0 0 1-0.306 0.099c-0.03 0-0.169-0.229-0.307-0.508s-0.254-0.502-0.262-0.493c-0.007 0.007 0.059 0.247 0.148 0.534 0.088 0.289 0.161 0.538 0.161 0.554 0 0.027-0.501 0.236-0.567 0.235-0.017 0-0.061-0.057-0.098-0.128-0.101-0.193-0.862-1.813-0.862-1.833 0-0.023 0.278-0.118 0.345-0.118 0.029 0 0.146 0.186 0.257 0.415 0.111 0.228 0.207 0.408 0.215 0.401a3.022 3.022 0 0 0-0.101-0.425 5.036 5.036 0 0 1-0.114-0.46c0-0.043 0.455-0.233 0.482-0.202 0.007 0.01 0.111 0.201 0.232 0.423 0.121 0.225 0.228 0.4 0.236 0.391 0.01-0.01-0.053-0.216-0.139-0.456l-0.158-0.438 0.202-0.075z m-9.015 0.119c-0.028 0-0.095 0.05-0.214 0.151-0.108 0.093-0.109 0.098-0.025 0.161 0.125 0.095 0.164 0.068 0.229-0.151 0.03-0.107 0.04-0.159 0.01-0.161m2.822 0.478c0.124-0.005 0.915 0.188 1.008 0.249a0.373 0.373 0 0 1 0.138 0.189c0.052 0.209-0.01 0.741-0.106 0.905-0.125 0.214-0.272 0.254-0.645 0.179-0.353-0.071-0.363-0.063-0.41 0.272-0.066 0.46-0.046 0.441-0.382 0.359-0.191-0.046-0.198-0.052-0.169-0.191 0.04-0.188 0.534-1.939 0.551-1.959q0.003-0.002 0.015-0.004m3.513 0.228c0.209 0 0.265 0.02 0.375 0.131 0.171 0.171 0.322 0.665 0.356 1.165 0.032 0.473-0.04 0.679-0.279 0.793-0.218 0.104-0.621 0.138-0.811 0.07a0.604 0.604 0 0 1-0.242-0.174c-0.123-0.166-0.224-0.695-0.224-1.187 0-0.388 0.01-0.436 0.118-0.564 0.137-0.163 0.357-0.235 0.707-0.234m-1.686 0.045c0.519 0 0.578 0.01 0.656 0.097 0.125 0.137 0.154 0.688 0.046 0.853-0.074 0.113-0.075 0.126 0 0.208 0.045 0.05 0.088 0.181 0.096 0.307 0.008 0.121 0.02 0.332 0.031 0.467l0.019 0.244-0.237-0.015-0.236-0.013-0.033-0.346a3.022 3.022 0 0 0-0.057-0.405c-0.013-0.036-0.111-0.057-0.254-0.057h-0.232v0.832h-0.254c-0.212 0-0.255-0.013-0.254-0.081 0-0.044 0.03-0.508 0.069-1.027 0.037-0.523 0.068-0.975 0.068-1.007 0-0.043 0.146-0.057 0.572-0.057m-1.538 0.266q-0.02 0-0.025 0.006a1.007 1.007 0 0 0-0.05 0.198l-0.03 0.17 0.201 0.045 0.234 0.05c0.018 0.001 0.054-0.037 0.08-0.085a0.504 0.504 0 0 0 0.048-0.202c0-0.098-0.03-0.119-0.232-0.159a1.41 1.41 0 0 0-0.186-0.023z m3.148 0.149a0.544 0.544 0 0 0-0.265 0.065c-0.081 0.06-0.084 0.094-0.037 0.514 0.062 0.58 0.143 0.66 0.509 0.507l0.165-0.069-0.025-0.338a2.015 2.015 0 0 0-0.097-0.508c-0.064-0.154-0.088-0.171-0.25-0.171m-1.606 0.047c-0.153 0-0.161 0.005-0.162 0.186 0 0.179 0.007 0.184 0.162 0.184a0.806 0.806 0 0 0 0.229-0.03c0.042-0.015 0.073-0.081 0.073-0.155 0-0.143-0.065-0.184-0.302-0.185m2.909 0.058h0.008c0.026 0.028 0.158 0.373 0.148 0.382a3.022 3.022 0 0 1-0.28 0.081l-0.265 0.07-0.026-0.122-0.041-0.202c-0.013-0.062 0.038-0.098 0.218-0.151a2.015 2.015 0 0 1 0.238-0.058"/></svg>