<svg fill="#000000" role="img" viewBox="0 0 19 24" xmlns="http://www.w3.org/2000/svg"><title>New York Times</title><path d="M18.773 14.815h-0.098c-0.747 2.049-2.335 3.681-4.363 4.483v-4.483l2.444-2.182-2.444-2.182V7.397c2.138 0.006 3.885-1.703 3.927-3.84 0-2.629-2.509-3.556-3.927-3.556-0.367-0.007-0.734 0.033-1.091 0.12v0.131h0.556c0.801-0.141 1.565 0.394 1.706 1.195C15.49 1.491 15.496 1.537 15.501 1.583c-0.033 0.789-0.7 1.401-1.488 1.367-0.02-0.001-0.041-0.002-0.061-0.004-2.444 0-5.323-1.985-8.454-1.985C3.048 0.83 0.949 2.692 0.785 5.139 0.709 6.671 1.759 8.031 3.261 8.346v-0.12C2.802 7.931 2.542 7.407 2.585 6.862c0.074-1.015 0.957-1.779 1.973-1.705C4.569 5.159 4.581 5.16 4.592 5.161c2.629 0 6.872 2.182 9.501 2.182h0.098v3.142l-2.444 2.182 2.444 2.182v4.549c-0.978 0.322-2.003 0.481-3.033 0.469-1.673 0.084-3.318-0.456-4.614-1.516l4.429-1.985V7.451l-6.196 2.727c0.592-1.75 1.895-3.168 3.589-3.905V6.175c-4.516 1.004-8.138 4.243-8.138 8.705 0 5.193 4.025 9.12 9.818 9.12 6.011 0 8.727-4.363 8.727-8.814V14.815zM6.359 18.186c-1.363-1.362-2.091-3.235-2.007-5.16-0.016-0.88 0.109-1.756 0.371-2.596l2.051-0.938v8.476L6.359 18.186z"/></svg>