<svg fill="#8ED500" role="img" viewBox="0 0 144 24" xmlns="http://www.w3.org/2000/svg"><title>Nextdoor</title><path d="M87.875 0a0.413 0.413 0 0 0-0.419 0.413v8.477c-0.737-1.06-2.516-2.217-4.823-2.216-4.463 0-7.884 3.948-7.883 8.656 0 4.715 3.421 8.668 7.883 8.668 2.312 0 4.086-1.162 4.829-2.228v1.324c0 0.3 0.24 0.539 0.539 0.539h3.636a0.419 0.419 0 0 0 0.419-0.419v-22.801a0.413 0.413 0 0 0-0.419-0.413z m-23.441 2.42a0.419 0.419 0 0 0-0.413 0.42c0 4.667 0.383 4.193-3.02 4.193a0.539 0.539 0 0 0-0.539 0.539v2.912c0 0.3 0.24 0.533 0.539 0.533h3.02v6.805c0 4.05 2.852 6.009 6.409 6.009 1.096 0 1.917-0.102 2.6-0.276a0.419 0.419 0 0 0 0.312-0.401v-3.151a0.419 0.419 0 0 0-0.515-0.396 5.895 5.895 0 0 1-1.36 0.138c-1.977 0-2.852-0.797-2.852-2.816v-5.912h3.643a0.419 0.419 0 0 0 0.419-0.414v-3.157a0.413 0.413 0 0 0-0.419-0.413h-3.643v-4.199a0.413 0.413 0 0 0-0.413-0.42z m-50.297 4.05c-3.091 0-5.721 1.414-7.195 3.582-0.12 0.18-0.329 0.569-0.611 0.569-1.354 0.012-1.438-1.653-1.479-3.139a0.419 0.419 0 0 0-0.414-0.395l-3.912-0.024a0.419 0.419 0 0 0-0.413 0.419c0.084 3.63 0.755 6.098 5.152 7.075 0.24 0.06 0.407 0.27 0.407 0.521v8.148c0 0.222 0.18 0.407 0.414 0.407h3.798a0.419 0.419 0 0 0 0.413-0.419V14.815c0-1.869 1.324-3.996 3.834-3.996 2.396 0 3.846 2.127 3.846 3.996v8.411c0 0.228 0.18 0.413 0.413 0.413h3.798a0.419 0.419 0 0 0 0.414-0.419v-9.034c0-4.313-3.69-7.71-8.465-7.71z m19.212 0.198c-5.098 0-8.818 3.75-8.818 8.662 0 5.248 3.894 8.573 8.884 8.668 3.924 0.072 6.53-2.175 7.152-2.959a0.407 0.407 0 0 0-0.089-0.581l-2.606-2.037c-0.282-0.282-0.503-0.126-0.671 0.006-0.419 0.341-1.216 1.318-3.75 1.42-2.217 0.09-4.193-1.228-4.463-3.451h12.161a0.419 0.419 0 0 0 0.413-0.389c0.036-0.491 0.036-0.851 0.036-1.174 0-5.374-3.858-8.165-8.249-8.165z m69.802 0c-4.864 0-8.818 3.816-8.818 8.662 0 4.852 3.954 8.668 8.818 8.668 4.864 0 8.818-3.822 8.818-8.668s-3.954-8.662-8.818-8.662z m19.344 0c-4.864 0-8.818 3.816-8.819 8.662 0 4.852 3.954 8.668 8.819 8.668 4.864 0 8.818-3.822 8.818-8.668s-3.954-8.662-8.818-8.662z m19.852 0.167a4.463 4.463 0 0 0-4.163 2.852v-2.241a0.413 0.413 0 0 0-0.413-0.413h-3.762a0.413 0.413 0 0 0-0.42 0.419v15.768a0.419 0.419 0 0 0 0.42 0.413h3.762a0.419 0.419 0 0 0 0.419-0.419v-7.519c0-2.72 1.438-4.415 3.618-4.415 0.551 0 1.048 0.078 1.558 0.21A0.413 0.413 0 0 0 143.887 11.101v-3.739a0.419 0.419 0 0 0-0.335-0.407 5.619 5.619 0 0 0-1.205-0.12z m-99.839 0.198a0.413 0.413 0 0 0-0.347 0.647l5.272 7.818L42.047 22.974a0.419 0.419 0 0 0 0.336 0.659h4.463a0.407 0.407 0 0 0 0.335-0.18l3.379-4.732 3.372 4.732a0.413 0.413 0 0 0 0.336 0.18h4.433a0.413 0.413 0 0 0 0.341-0.659l-5.385-7.476 5.272-7.818a0.413 0.413 0 0 0-0.348-0.647h-4.421a0.419 0.419 0 0 0-0.347 0.18l-3.283 4.9-3.289-4.894a0.419 0.419 0 0 0-0.342-0.18z m-9.297 3.385c1.713 0 3.391 0.929 3.792 2.887h-7.848c0.437-2.025 2.348-2.887 4.056-2.887z m50.393 0.401c2.516 0 4.223 1.923 4.223 4.511 0 2.594-1.707 4.517-4.223 4.517s-4.223-1.923-4.224-4.517c0-2.588 1.707-4.511 4.224-4.511z m19.547 0.096c2.414 0 4.157 1.857 4.157 4.415s-1.743 4.415-4.157 4.415c-2.414 0-4.193-1.857-4.193-4.415 0-2.552 1.779-4.415 4.193-4.415z m19.344 0c2.414 0 4.157 1.857 4.157 4.415s-1.743 4.415-4.157 4.415c-2.414 0-4.193-1.857-4.194-4.415 0-2.552 1.779-4.415 4.194-4.415z"/></svg>