<svg fill="#8D5A9E" role="img" viewBox="0 0 24 24" xmlns="http://www.w3.org/2000/svg"><title>NextBillion.ai</title><path d="M22.399 13.369a6.307 6.307 0 0 0-0.565-0.567 6.375 6.375 0 0 0-4.234-1.599h-4.799V6.401a6.378 6.378 0 0 0-1.599-4.234 6.107 6.107 0 0 0-0.567-0.564A6.397 6.397 0 0 0 0.002 6.402v4.799a1.599 1.599 0 0 0 1.599 1.599h9.596v4.799a6.37 6.37 0 0 0 0.855 3.198l0.084 0.146a6.345 6.345 0 0 0 0.662 0.894 6.664 6.664 0 0 0 0.564 0.564 6.469 6.469 0 0 0 0.891 0.658l0.146 0.086a6.407 6.407 0 0 0 7.432-0.744 6.696 6.696 0 0 0 0.566-0.566 6.397 6.397 0 0 0 0-8.467z m-11.198-2.17H1.605v-4.799a4.799 4.799 0 0 1 9.596 0z m6.397 11.195a4.77 4.77 0 0 1-3.199-1.225 4.198 4.198 0 0 1-0.378-0.376 4.782 4.782 0 0 1-1.221-3.199v-4.796h4.799a4.799 4.799 0 0 1 0 9.596z"/></svg>