<svg fill="#000000" role="img" viewBox="0 0 25 24" xmlns="http://www.w3.org/2000/svg"><title>Nextra</title><path d="M23.18 21.032c-4.98-4.98-4.98-13.084 0-18.064l0.979-0.978c0.22-0.22 0.342-0.513 0.342-0.825 0-0.311-0.122-0.604-0.342-0.824-0.44-0.441-1.207-0.44-1.649 0l-0.979 0.978c-4.98 4.98-13.085 4.98-18.063 0L2.49 0.34a1.17 1.17 0 0 0-1.65 0 1.168 1.168 0 0 0 0 1.649l0.979 0.978c4.98 4.98 4.98 13.084 0 18.064l-0.978 0.978c-0.221 0.22-0.342 0.513-0.342 0.825 0 0.31 0.121 0.604 0.341 0.824 0.442 0.443 1.21 0.441 1.651 0l0.977-0.977c4.98-4.983 13.084-4.98 18.064 0l0.978 0.977c0.22 0.22 0.513 0.342 0.825 0.342 0.312 0 0.605-0.122 0.824-0.342 0.22-0.22 0.342-0.512 0.342-0.824 0-0.313-0.122-0.605-0.342-0.825l-0.978-0.978z"/></svg>