<svg fill="#002E5F" role="img" viewBox="0 0 25 24" xmlns="http://www.w3.org/2000/svg"><title>NFC</title><path d="M24.497 1.948C24.433 0.964 23.679 0.218 22.678 0.159c-1.106-0.066-4.683-0.12-5.712-0.12 1.838 1.268 2.089 3.656 2.263 8.092 0.101 2.628 0.01 11.837 0.002 12.227l-0.049 2.512-9.66-9.661v-3.024l7.681 7.683c0.02-1.521 0.04-3.503 0.04-5.316 0-1.766-0.026-3.365-0.076-4.207-0.289-4.835-0.739-7.1-3.263-7.987-0.772-0.271-1.492-0.336-2.692-0.353C10.221-0.007 3.318-0.002 2.321 0.053 1.264 0.109 0.551 0.878 0.503 1.867c-0.048 0.98-0.064 19.236 0 20.231 0.062 0.983 0.818 1.73 1.818 1.787 1.106 0.067 4.683 0.075 5.713 0.076-1.838-1.268-2.09-3.655-2.263-8.092-0.1-2.628-0.009-11.838 0-12.228l0.047-2.512 9.661 9.661v3.023L7.797 6.133c-0.02 1.519-0.04 3.501-0.04 5.315 0 1.766 0.026 3.365 0.077 4.206 0.289 4.836 0.738 7.1 3.262 7.988 0.772 0.272 1.492 0.338 2.692 0.353 0.99 0.012 7.893 0.006 8.89-0.047 1.059-0.056 1.771-0.825 1.819-1.817 0.048-0.979 0.064-19.189 0-20.183"/></svg>