<svg fill="#1F1E37" role="img" viewBox="0 0 66 24" xmlns="http://www.w3.org/2000/svg"><title>ngrok</title><path d="M51.947 0v18.298h3.987v-4.607l4.389 4.607H65.709v-0.218l-5.787-5.869 5.457-5.031v-0.191H60.121l-4.189 4.077v-11.066z m-7.987 6.569a7.158 7.158 0 0 0-4.871 1.731 5.585 5.585 0 0 0-1.916 4.241c-0.005 2.044 0.848 3.508 1.908 4.478 1.434 1.303 3.328 1.706 4.816 1.699 1.815 0 3.652-0.532 4.92-1.69 1.42-1.317 1.943-2.805 1.944-4.381 0-1.99-0.845-3.399-1.935-4.369-1.507-1.295-3.276-1.712-4.866-1.709z m-24.7 0.106c-3.238-0.014-5.724 2.663-5.735 6.133-0.011 3.533 2.475 5.746 5.538 5.713 1.81 0.005 2.679-0.665 3.566-1.474v3.251h-3.735l-2.807 3.157v0.545H26.622v-17.009H22.629v1.186c-1.039-1.112-2.104-1.477-3.369-1.502z m-13.097 0.3l-1.884 2.143v-2.102H0.291v11.312h3.988v-7.63c1.491 0.005 2.788-0.005 4.061-0.008v7.638h3.994v-7.073c-0.011-1.491-0.273-2.232-0.837-2.892a3.901 3.901 0 0 0-2.492-1.391z m22.116 0.014v11.312h4.001l0.006-7.575h2.903l3.172-3.582v-0.155h-4.355l-1.731 1.949v-1.949z m-8.03 3.039c1.374 0 2.617 1.21 2.584 2.584a2.606 2.606 0 0 1-2.584 2.576c-1.426 0-2.538-1.098-2.581-2.576-0.005-1.417 1.207-2.562 2.581-2.584z m23.722 0.003c1.431 0 2.562 1.183 2.573 2.589-0.074 1.483-1.145 2.589-2.573 2.59s-2.546-1.137-2.589-2.59a2.603 2.603 0 0 1 2.589-2.589z"/></svg>