<svg fill="#231815" role="img" viewBox="0 0 24 24" xmlns="http://www.w3.org/2000/svg"><title>niconico</title><path d="M0.479 7.534v12.128A2.021 2.021 0 0 0 2.5 21.683h2.389l1.323 2.095a0.478 0.478 0 0 0 0.404 0.22 0.478 0.478 0 0 0 0.441-0.22l1.323-2.095h6.983l1.323 2.095a0.478 0.478 0 0 0 0.441 0.22c0.184 0 0.331-0.073 0.404-0.22l1.323-2.095h2.646a2.021 2.021 0 0 0 2.022-2.021V7.534a2.021 2.021 0 0 0-2.022-1.985h-7.681l4.447-4.447L17.164 0l-5.146 5.145L6.8 0 5.697 1.103l4.41 4.41H2.537a2.021 2.021 0 0 0-2.058 2.058z"/></svg>