<svg fill="#FFE100" role="img" viewBox="0 0 87 24" xmlns="http://www.w3.org/2000/svg"><title>Nikon</title><path d="M30.002 0c-2.495 0-3.811 1.674-3.811 3.157 0 0.521 0.116 2.361 3.432 2.361 2.755 0 3.822-1.764 3.822-3.088 0-0.882-0.723-2.43-3.443-2.43z m-24.84 0.777L0.111 23.376h6.219c0.701-3.616 1.645-7.434 2.571-11.347l4.361 11.339H19.166L24.268 0.792H18.19l-2.585 11.483-4.267-11.498Zm31.049 0.015L31.206 23.368h6.013l2.018-8.587 2.542 8.587h6.165l-2.557-9.068 6.201-7.521h-6.906l-4.989 6.017 2.686-12.004z m23.892 5.297c-9.336 0-10.71 7.268-10.97 8.602-0.687 3.363 0.072 7.727 4.466 8.883 2.893 0.759 7.416 0.676 10.322-1.699 2.661-2.169 3.977-5.854 3.934-9.31-0.043-3.326-2.856-6.476-7.752-6.476z m22.392 0.26c-2.072 0.137-4.18 1.266-5.373 2.918 0.159-0.68 0.318-1.461 0.507-2.379h-6.147l-3.612 16.48h6.128l2.036-9.35c0.376-1.721 1.764-2.459 2.987-2.137 0.528 0.145 1.266 0.542 1.016 1.982l-2.076 9.509h6.053l2.773-12.691a3.471 3.471 0 0 0-2.267-4.122 5.763 5.763 0 0 0-2.025-0.21z m-56.622 0.438l-3.688 16.581h6.06l3.695-16.581z m33.373 3.991c1.345-0.007 1.707 0.788 1.591 1.541-0.325 1.971-0.886 3.909-1.309 5.564-0.296 0.918-1.161 1.446-2.173 1.447-1.034 0-1.656-0.644-1.562-1.468 0.145-1.388 1.034-4.907 1.287-5.601 0.434-1.208 1.631-1.475 2.17-1.483z"/></svg>