<svg fill="#FFE953" role="img" viewBox="0 0 33 24" xmlns="http://www.w3.org/2000/svg"><title>Nim</title><path d="M16.63 0s-1.255 1.061-2.533 2.114c-1.315-0.044-3.895 0.271-5.291 0.815C7.516 2.056 6.385 1.091 6.385 1.091s-0.967 1.78-1.574 2.823c-0.903 0.514-1.807 1.091-2.614 1.854C1.26 5.373 0.172 4.884 0.137 4.868c1.242 2.682 2.078 5.367 4.349 6.982 3.619-6.113 20.431-5.55 24.124-0.034 2.386-1.332 3.314-4.197 4.253-6.843-0.102 0.035-1.38 0.494-2.207 0.832-0.495-0.577-1.66-1.462-2.321-1.889a130.919 130.919 0 0 0-1.542-2.893s-1.083 0.862-2.339 1.802c-1.695-0.335-3.746-0.742-5.471-0.64A72.256 72.256 0 0 1 16.63 0zM1.421 10.568l2.985 7.732c5.183 7.319 18.42 7.827 24.191 0.143 1.365-3.293 3.207-7.92 3.207-7.92-1.481 2.345-3.889 3.967-5.373 4.84-1.055 0.618-3.488 0.991-3.488 0.991l-6.387-3.541-6.423 3.47s-2.401-0.413-3.488-0.956c-2.193-1.255-3.668-2.733-5.223-4.759z"/></svg>