<svg fill="#D12228" role="img" viewBox="0 0 25 24" xmlns="http://www.w3.org/2000/svg"><title>Nintendo 3DS</title><path d="M18.153 16.63a0.712 0.712 0 1 0 1.424 0 0.712 0.712 0 1 0-1.424 0m-9.45 4.238h7.575c0.3 0 0.524-0.225 0.544-0.524v-5.175c-0.02-0.282-0.263-0.525-0.544-0.507H8.703a0.54 0.54 0 0 0-0.544 0.525v5.156c0 0.301 0.244 0.525 0.544 0.525z m13.051-3.525a0.729 0.729 0 0 0 0.73-0.729 0.73 0.73 0 1 0-0.73 0.729z m-1.443-0.019a0.714 0.714 0 1 0 0.001 1.427 0.714 0.714 0 0 0-0.001-1.427z m-0.713-2.137a0.712 0.712 0 1 0 1.424 0 0.712 0.712 0 1 0-1.424 0M3.04 16.612a1.65 1.65 0 1 0 3.3 0 1.65 1.65 0 1 0-3.3 0M21.772 0H3.228A2.73 2.73 0 0 0 0.49 2.72v18.542C0.509 22.781 1.728 24 3.228 24h18.526a2.753 2.753 0 0 0 2.756-2.719V2.737C24.491 1.219 23.272 0 21.772 0z m1.913 21.281a1.92 1.92 0 0 1-1.912 1.912H3.228a1.92 1.92 0 0 1-1.913-1.912v-8.456h22.369v8.456z m0-9.694H1.315v-8.85A1.92 1.92 0 0 1 3.228 0.824h18.544c1.049 0 1.912 0.863 1.912 1.913v8.85M17.909 3.112H7.034c-0.3 0-0.544 0.263-0.544 0.563V9.15c0 0.3 0.226 0.563 0.544 0.563h10.875a0.548 0.548 0 0 0 0.544-0.563V3.656a0.543 0.543 0 0 0-0.544-0.544z"/></svg>