<svg fill="#E60012" role="img" viewBox="0 0 98 24" xmlns="http://www.w3.org/2000/svg"><title>Nintendo</title><path d="M18.406 14.21l-4.869-7.867h-3.5v11.314h3.5v-7.867l4.869 7.867h3.467v-11.314H18.377l0.029 7.867Zm27.657-4.055v-1.13h-1.827v-1.523h-3.406v1.523h-1.855v1.13h1.855v7.502h3.406v-7.502h1.827Zm-22.242 7.469h3.379v-7.501h-3.379v7.501Zm0-8.964h3.407v-2.317h-3.407v2.317Zm59.394 0.944c-2.738 0-4.958 1.892-4.957 4.209 0 2.317 2.22 4.209 4.957 4.208 2.738 0 4.962-1.892 4.962-4.208 0-2.317-2.224-4.209-4.962-4.209Zm1.37 5.797c0 1.187-0.701 1.677-1.37 1.677-0.668 0-1.402-0.49-1.401-1.677v-3.172c0-1.191 0.701-1.677 1.401-1.677 0.668 0 1.369 0.486 1.37 1.677v3.172Zm-10.771-4.91a4.427 4.427 0 0 0-1.916-0.672c-2.434-0.215-4.322 1.952-4.322 3.933 0 2.625 2.009 3.569 2.313 3.722 1.154 0.518 2.617 0.547 3.893-0.275v0.425h3.349v-11.281h-3.349c0.032 0 0.032 2.41 0.032 4.148Zm0.032 3.354v1.341c0 1.158-0.794 1.462-1.34 1.462s-1.341-0.304-1.341-1.462v-2.682c0-1.163 0.794-1.466 1.341-1.466 0.518 0 1.337 0.304 1.336 1.466v1.341h0.004Zm-38.707-4.055a4.132 4.132 0 0 0-2.706 1.127v-0.794h-3.378v7.501h3.378V12.687c0-0.64 0.697-1.373 1.612-1.374 0.911 0 1.551 0.733 1.552 1.374v4.937h3.378v-4.083c0-2.961-2.556-3.816-3.836-3.751Zm27.536 0a4.091 4.091 0 0 0-2.706 1.127v-0.794h-3.378v7.501h3.378V12.687c0-0.64 0.701-1.373 1.612-1.374 0.911 0 1.551 0.733 1.552 1.374v4.937h3.378v-4.083c0-2.961-2.556-3.816-3.836-3.751Zm-7.089 4.116c0-2.317-2.252-4.269-4.99-4.269-2.767 0-4.99 1.892-4.99 4.208 0 2.317 2.224 4.209 4.99 4.209 2.285 0 4.229-1.312 4.808-3.079h-3.378v0.454c0 1.373-0.911 1.677-1.398 1.677-0.518 0-1.43-0.304-1.43-1.673v-1.56l6.388 0.033Zm-6.144-2.653a1.402 1.402 0 0 1 1.186-0.673c0.454 0 0.911 0.215 1.187 0.673 0.211 0.365 0.211 0.822 0.211 1.462h-2.828c0-0.64 0.028-1.065 0.244-1.462Zm40.072-3.508c0-0.365-0.275-0.547-0.822-0.547h-0.762v1.92h0.458v-0.794h0.243l0.365 0.794h0.518l-0.425-0.855c0.271-0.089 0.425-0.275 0.425-0.518Zm-0.883 0.275h-0.243v-0.551h0.211c0.275 0 0.425 0.093 0.425 0.276 0 0.215-0.117 0.275-0.393 0.275Zm0.029-1.587a1.754 1.754 0 0 0-1.734 1.741c0 0.944 0.794 1.738 1.738 1.738a1.738 1.738 0 0 0 0-3.479h-0.004Zm0 3.143a1.418 1.418 0 0 1-1.398-1.402 1.418 1.418 0 0 1 1.402-1.405 1.418 1.418 0 0 1 1.397 1.405 1.418 1.418 0 0 1-1.397 1.402h-0.004Zm-3.8-9.576H13.079C5.472-0.032 0.393 5.46 0.393 12.014s5.079 11.986 12.719 11.986h71.776c7.639 0 12.719-5.428 12.719-11.986-0.028-6.554-5.14-12.014-12.747-12.014Zm-0.032 21.071H13.112c-6.056 0.032-9.738-4.055-9.738-9.057 0-5.003 3.714-9.025 9.738-9.057h71.716c6.023 0 9.738 4.055 9.737 9.057 0 5.003-3.682 9.057-9.737 9.057Z"/></svg>