<svg fill="#C3002F" role="img" viewBox="0 0 29 24" xmlns="http://www.w3.org/2000/svg"><title>Nissan</title><path d="M24.75 15.532l-0.012 0.033c-1.49 4.354-5.6 7.274-10.232 7.274-4.633 0-8.749-2.926-10.233-7.278l-0.012-0.035H1.006v0.393l1.354 0.159c0.837 0.096 1.012 0.466 1.241 0.932l0.057 0.115c1.958 4.177 6.22 6.875 10.853 6.875 4.634 0 8.896-2.698 10.854-6.869l0.057-0.113c0.227-0.466 0.404-0.837 1.241-0.934l1.355-0.16v-0.392zM4.273 8.429c1.49-4.354 5.601-7.279 10.233-7.279 4.633 0 8.748 2.925 10.233 7.279l0.012 0.033h3.261v-0.392l-1.355-0.159c-0.837-0.097-1.012-0.466-1.241-0.933l-0.056-0.115C23.402 2.698 19.137 0 14.506 0c-4.639 0-8.896 2.698-10.854 6.875l-0.057 0.113c-0.227 0.466-0.404 0.837-1.241 0.934l-1.354 0.159v0.393h3.256z m16.568 1.895l-2.084 3.341h0.899l0.371-0.598h2.43l0.37 0.598h0.893l-2.083-3.341z m1.234 2.111h-1.667l0.837-1.343z m3.359-1.274l2.475 2.504H28.843v-3.341h-0.734v2.492l-2.465-2.492h-0.95v3.341h0.74zM0.157 13.665h0.74v-2.504l2.481 2.504h0.934v-3.341h-0.74v2.492L1.108 10.324H0.157z m5.789-3.341h0.74v3.341h-0.741z m5.362 2.635c-0.024 0.006-0.115 0.006-0.149 0.006H8.217v0.683h2.988c0.023 0 0.2 0 0.233-0.006 0.61-0.057 0.888-0.564 0.888-1.007 0-0.455-0.29-0.944-0.843-0.996-0.108-0.012-0.198-0.012-0.239-0.012H9.292a0.992 0.992 0 0 1-0.216-0.017c-0.154-0.041-0.21-0.177-0.21-0.29 0-0.103 0.056-0.239 0.215-0.285a0.813 0.813 0 0 1 0.205-0.016h2.818v-0.672H9.241c-0.12 0-0.21 0.005-0.284 0.017a0.947 0.947 0 0 0-0.831 0.962c0 0.41 0.256 0.888 0.819 0.968 0.103 0.011 0.245 0.011 0.308 0.011H11.153c0.035 0 0.12 0 0.137 0.006 0.216 0.027 0.29 0.188 0.29 0.33a0.313 0.313 0 0 1-0.272 0.318z m5.566 0c-0.024 0.006-0.115 0.006-0.154 0.006H13.783v0.683h2.988c0.023 0 0.2 0 0.233-0.006 0.61-0.057 0.888-0.564 0.888-1.007 0-0.455-0.29-0.944-0.843-0.996-0.108-0.012-0.198-0.012-0.239-0.012H14.859a0.992 0.992 0 0 1-0.217-0.017c-0.154-0.041-0.21-0.177-0.21-0.29 0-0.103 0.056-0.239 0.215-0.285a0.813 0.813 0 0 1 0.206-0.016h2.817v-0.672h-2.863c-0.12 0-0.21 0.005-0.284 0.017a0.947 0.947 0 0 0-0.831 0.962c0 0.41 0.256 0.888 0.82 0.968 0.102 0.011 0.244 0.011 0.307 0.011h1.901c0.035 0 0.12 0 0.136 0.006 0.216 0.027 0.29 0.188 0.29 0.33a0.319 0.319 0 0 1-0.272 0.318Z"/></svg>