<svg fill="#5277C3" role="img" viewBox="0 0 28 24" xmlns="http://www.w3.org/2000/svg"><title>NixOS</title><path d="M8.641 0l-1.572 0.002L6.299 1.335l1.795 3.128-3.617-0.009-1.522 2.697H16.433l-1.56-2.688-3.68-0.007-2.553-4.456z m7.119 0l-3.097 0.029 6.74 11.675 1.546-2.698-1.834-3.187 2.583-4.439-0.787-1.363h-1.541l-1.81 3.119-1.798-3.136z m7.941 4.836l-6.74 11.674 3.108-0.01 1.846-3.182 5.134 0.019 0.786-1.364-0.768-1.334-3.609-0.009L25.273 7.503l-1.574-2.667zM11.039 7.487l-3.108 0.009-1.846 3.182-5.134-0.018L0.165 12.022l0.768 1.334 3.609 0.01-1.816 3.124 1.573 2.669L11.039 7.487zM8.616 12.288l-0.007 0.011-0.002-0.004-1.547 2.697 1.833 3.188-2.583 4.439 0.789 1.363H8.639l0.005-0.007h0.001l1.806-3.111 1.797 3.136 3.099-0.03-0.005-0.007h0.012L8.616 12.288z m2.94 4.531l1.561 2.688 3.68 0.007 2.554 4.456 1.571-0.002 0.77-1.333-1.795-3.128 3.617 0.009 1.522-2.697H11.557Z"/></svg>