<svg fill="#76D04B" role="img" viewBox="0 0 22 24" xmlns="http://www.w3.org/2000/svg"><title>Nodemon</title><path d="M21.33 7.851l-0.716-0.398c1.101-1.569 1.758-3.927 0.934-7.453 0 0-1.857 5.029-5.59 4.863l-4.37-2.431a1.171 1.171 0 0 0-0.536-0.15h-0.101a1.183 1.183 0 0 0-0.538 0.15L6.042 4.863C2.309 5.03 0.452 0 0.452 0c-0.825 3.526-0.166 5.884 0.934 7.453l-0.716 0.398a1.133 1.133 0 0 0-0.589 0.988l0.022 14.591c0 0.203 0.109 0.392 0.294 0.491a0.58 0.58 0 0 0 0.584 0l5.79-3.204c0.366-0.211 0.589-0.582 0.589-0.987v-6.817c0-0.406 0.223-0.783 0.588-0.984l2.465-1.372a1.19 1.19 0 0 1 0.59-0.154c0.2 0 0.407 0.05 0.585 0.154l2.465 1.372c0.365 0.201 0.588 0.578 0.588 0.984v6.817c0 0.405 0.226 0.779 0.59 0.987l5.788 3.204a0.59 0.59 0 0 0 0.589 0 0.564 0.564 0 0 0 0.292-0.491l0.019-14.591a1.129 1.129 0 0 0-0.589-0.988z"/></svg>