<svg fill="#00A9CE" role="img" viewBox="0 0 28 24" xmlns="http://www.w3.org/2000/svg"><title>Nordic Semiconductor</title><path d="M13.246 12.511l13.77 7.97-3.299 1.972-2.189 1.245c-0.34 0.227-0.641 0.34-1.019 0.189h-0.037c-0.038 0-0.076 0-0.114-0.038L7.34 16.34v7.66c-0.28 0-0.436-0.044-0.642-0.151L0.962 20.49C0.585 20.264 0.321 19.849 0.321 19.396V5.014l12.272 7.113 0.653 0.384z m6.559-12.281l-5.091 2.909 5.091 2.96V0.23z m6.893 2.902l-5.057-2.906c-0.302-0.151-0.641-0.226-0.981-0.226v7.585l-11.358-6.604-1.283-0.717c-0.566-0.302-1.057-0.34-1.623-0.075L4.17 1.51 1.302 3.17c-0.377 0.226-0.642 0.528-0.83 0.943l0.277 0.161 3.719 2.156 8.463 4.904-0.751-0.435 0.842 0.488 0.657 0.386 5.788 3.351 7.977 4.617 0.122 0.07c0.075-0.264 0.113-0.745 0.113-0.745V4.83c0-0.717-0.377-1.358-0.981-1.698zM8.195 23.688l5.075-2.94-5.075-2.928v5.868z"/></svg>