<svg fill="#D81939" role="img" viewBox="0 0 65 24" xmlns="http://www.w3.org/2000/svg"><title>Norwegian</title><path d="M63.765 9.474c-1.156-0.58-2.296-1.097-3.487-1.685 0.148-0.35 0.195-0.654 0.086-1l-0.518-0.568-0.736 0.121-0.758 0.401c-0.098-0.066-0.482-0.254-0.611-0.308l0.56-0.35c0.934-0.65 1.907-1.257 2.818-1.973 0.884-0.677 1.79-1.354 2.377-2.292 0.14-0.276 0.354-0.58 0.269-0.931l-0.171-0.299-0.284-0.16-0.612-0.241c-0.524-0.095-1.092-0.205-1.638-0.187-0.7 0.035-1.386 0.175-2.066 0.354-0.973 0.261-2.078 0.759-3.273 1.393-1.269 0.673-2.448 1.479-3.635 2.339-0.179-0.257-0.545-0.529-0.911-0.486-0.619 0.136-1.195 0.619-1.673 1.019-0.242-0.03-0.568-0.122-0.81-0.152-1.078-0.175-2.218-0.296-3.277-0.408-0.806-0.132-1.635-0.233-2.447-0.315-0.693-0.07-1.206-0.187-1.865-0.152l-0.825 0.451-0.583 0.541 0.015 0.222c0.413 0.206 0.876 0.229 1.281 0.401 1.158 0.284 1.657 0.438 3.012 0.755 0.696 0.163 0.876 0.233 1.588 0.432 0.708 0.292 1.397 0.654 2.066 0.957-0.69 0.498-1.669 1.167-2.46 1.646l-0.587 0.277-0.588-0.176c-0.907-0.397-1.599-0.708-2.405-1.062l-0.771 0.202-0.245 0.133-0.186 0.284 0.167 0.346c0.455 0.471 0.88 0.938 1.339 1.394l-0.02 0.015c-0.319-0.047-0.755-0.09-1.121-0.124-0.366-0.113-0.798-0.004-1.113 0.214l0.039 0.381c0.782 0.355 1.787 0.531 2.6 0.873-14.235 6.384-27.999 9.307-33.428 8.652-4.876-0.588-4.316-8.69 3.409-15.158l-2.024 0.004c-9.733 7.702-13.064 17.077-6.257 18.462 7.56 1.535 22.952-3.289 38.822-11.275 0.4 0.157 0.767-0.11 1.105-0.184 0.856 0.211 1.746 0.474 2.611 0.666l0.498-0.16 0.097-0.14c-0.132-0.424-0.545-0.592-0.821-0.93 0.817-0.241 1.619-0.525 2.421-0.798 1.245-0.428 2.308-0.946 3.44-1.459 0.728 0.082 1.444 0.105 2.164 0.12 0.599 0.027 1.171 0 1.755 0.09 0.478 0.016 0.86 0.089 1.347 0.171 1.37 0.26 2.74 0.497 4.098 0.798 0.522 0.132 0.973 0.226 1.486 0.346 0.498-0.023 0.887-0.339 1.312-0.548L64.578 9.902l-0.813-0.428z m-15.869-0.681c-0.934 0.494-1.965 1.066-3.335 1.674-0.354 0.16-0.732 0.253-1.144 0.175l-0.569-0.078c-0.566-0.584-1.2-1.161-1.759-1.763l0.323-0.179h0.125c0.952 0.415 1.803 0.884 2.763 1.292l0.821-0.229c1.209-0.746 2.141-1.334 3.269-2.047 0.381 0.156 0.549 0.233 0.915 0.381-0.479 0.284-0.954 0.529-1.409 0.774z m2.069-2.717l-0.207-0.354 0.051-0.713 0.144-0.124c0.202-0.156 0.639-0.439 0.868-0.549l0.039 0.685 0.186 0.347c-0.365 0.233-0.712 0.506-1.081 0.708z m5.442-2.219c-0.401 0.257-1.241 0.954-1.265 0.985-0.638-0.078-1.238-0.093-1.844-0.16l0.124-0.066c0.81-0.662 1.526-1.09 2.425-1.638 0.797-0.483 1.977-1.113 2.95-1.526 0.876-0.339 1.767-0.619 2.72-0.758 0.529-0.078 1.055-0.121 1.584 0.05-0.58 0.128-0.93 0.23-1.557 0.49-0.545 0.226-1.413 0.576-2.113 0.919-1.035 0.518-1.903 0.988-3.024 1.704z"/></svg>