<svg fill="#90E59A" role="img" viewBox="0 0 30 24" xmlns="http://www.w3.org/2000/svg"><title>Notepad++</title><path d="M18.017 0c-0.377 0.006-0.741 0.074-1.053 0.306-0.316 0.207-0.674 0.395-0.893 0.714a7.748 7.748 0 0 0-0.877 3.042c-1.246-0.51-2.569-0.884-3.924-0.835a10.624 10.624 0 0 0-2.384 0.746c-1.556 0.811-2.542 2.4-3.125 4.009a8.448 8.448 0 0 0-0.746 2.23c-0.132 0.702-0.398 1.377-0.441 2.093-0.002 0.487 0.036 0.973 0.029 1.46-0.521 0.325-1.144 0.303-1.727 0.405-0.42-0.01-0.828-0.222-1.252-0.086-0.445 0.212-0.926 0.332-1.372 0.54-0.107 0.63-0.205 1.513 0.564 1.758 1.314-0.002 2.633 0.002 3.946 0.026 0.237 1.21 0.469 2.458 1.109 3.533 0.757 1.219 1.498 2.501 2.652 3.396 1.097 0.732 2.495 0.762 3.753 0.545 0.478-0.053 0.81-0.432 1.24-0.608 0.262-0.156 0.651-0.193 0.75-0.528 0.862-1.396 0.201-3.126-0.58-4.397-0.498-0.873-1.575-1.054-2.493-1.013-0.539 0.08-0.879 0.543-1.313 0.824-0.479 0.29-0.94 0.908-0.578 1.464 0.31 0.584 0.693 1.367 1.474 1.327 0.493-0.057 1.151-0.168 1.366-0.683 0.095-0.624-0.641-0.924-1.136-1.035 0.023 0.305 0.056 0.61 0.086 0.918-0.256-0.177-0.513-0.346-0.772-0.517 0.158-0.824 1.075-0.803 1.704-1.054 0.642 1 1.319 2.287 0.797 3.476-0.604 0.756-1.692 0.661-2.537 0.464-1.104-0.169-1.837-1.152-2.323-2.078-0.734-1.278-1.634-2.649-1.477-4.183 0.515-0.026 1.03-0.025 1.544 0.005 0.492 0.116 0.929 0.541 1.46 0.333 1.139-0.311 2.323-0.124 3.485-0.136 0.914-0.064 1.833-0.077 2.748-0.038 0.331 0.09 0.508 0.494 0.889 0.469 0.442 0.148 0.689-0.304 1.022-0.494a22.175 22.175 0 0 1 2.211 0.003c0.35 0.61 0.872 1.262 1.618 1.349 0.907 0.033 1.675-0.609 2.165-1.315 0.642 0.145 1.336 0.348 1.959 0.026 1.352-0.573 2.841-0.573 4.236-0.969v-0.398c-1.12-0.753-2.504-0.545-3.758-0.858-0.957-0.164-1.929-0.015-2.891-0.027-0.426-0.291-0.844-0.629-1.382-0.664-0.166 0.073-0.333 0.14-0.499 0.208 0.44 0.049 0.899 0.148 1.228 0.469-0.415-0.025-0.845-0.005-1.237-0.155-0.529 0.194-1.031 0.494-1.115 1.104-0.225-0.315 0.103-0.609 0.234-0.89-0.296-0.626-1.02-0.949-1.228-1.624a0.357 0.357 0 0 1 0.593-0.01c0.289 0.426 0.526 0.883 0.708 1.364 0.268 0.016 0.537 0.033 0.808 0.056v-0.309c-0.135 0.056-0.267 0.111-0.398 0.175-0.233-0.509-0.434-1.034-0.599-1.57 0.319 0.077 0.625 0.191 0.946 0.256 1.452-0.227 3.012-0.509 4.15-1.522 0.24-0.247 0.669-0.457 0.598-0.862-0.07-0.585-0.497-1.039-0.708-1.577 0.33-0.125 0.661-0.247 0.979-0.395 1.134-1.11 1.701-2.699 1.825-4.259-0.114-0.831-0.348-1.745-0.992-2.329-1.173-0.593-2.557-0.4-3.749 0.031-0.54 0.215-0.939 0.651-1.387 1.004-0.366-0.082-0.589-0.506-0.83-0.782-0.463-0.79-1.099-1.525-1.971-1.865-0.362-0.014-0.751-0.068-1.129-0.062z m0.488 0.637c0.729 0.025 1.37 0.625 1.782 1.201 0.274 0.457 0.647 0.842 1.093 1.131a6.445 6.445 0 0 1-0.342 4.682c-0.206 0.463-0.641 0.747-1.067 0.982-1.124 0.33-2.315-0.164-3.114-0.967l0.015-0.116c-0.566-0.264-0.663-0.947-0.761-1.494-0.482-1.103-0.362-2.366-0.007-3.487 0.262-0.877 0.934-1.717 1.885-1.85a1.383 1.383 0 0 1 0.516-0.082z m6.907 1.266c0.761 0.002 1.593 0.346 1.778 1.144 0.593 1.373-0.064 2.895-0.85 4.042-0.455 0.426-0.978 0.774-1.404 1.236-0.525-1.042-1.678-1.506-2.745-1.775 0.198-0.998 0.049-2.011 0.027-3.014 0.578-1.031 1.779-1.425 2.873-1.61 0.104-0.014 0.212-0.022 0.321-0.023z m0.957 2.001a9.547 9.547 0 0 1-0.646 0.171c-0.154 0.224-0.311 0.448-0.471 0.673 0.174 0.459 0.786 0.887 1.216 0.469a1.602 1.602 0 0 0-0.099-1.314c-0.22-0.393 0 0 0 0z m-14.806 0.057c1.112-0.014 2.215 0.336 3.212 0.806 0.469 0.189 0.436 0.741 0.541 1.153 0.08 0.321 0.173 0.637 0.268 0.956 0.156 0.473 0.361 0.963 0.766 1.281 0.674 0.516 1.368 1.071 2.216 1.266a2.995 2.995 0 0 0 2.207-0.375c0.556-0.499 0.825-1.244 1.404-1.724 0.543 0.266 1.145 0.393 1.669 0.702 0.543 0.343 0.807 0.96 1.126 1.49 0.111 0.24 0.203 0.484 0.299 0.727-0.971 0.966-2.391 1.22-3.673 1.519-0.531 0.158-1.024-0.119-1.465-0.376-0.227 0.125-0.453 0.258-0.682 0.382a4.592 4.592 0 0 1-2.649 0.556 40.478 40.478 0 0 1-0.679-0.089c0.104-0.464 0.225-0.925 0.319-1.392-0.114 0.01-0.342 0.025-0.457 0.032-0.383 0.588-0.401 1.299-0.324 1.972 0.019 0.256 0.035 0.51 0.045 0.766a1.943 1.943 0 0 1-0.504-1.151c0.02-0.483 0.08-0.961 0.124-1.442-0.506-0.219-0.705 0.361-0.799 0.736 0 0.207 0.015 0.414 0.029 0.62-0.882 0.201-1.828 0.304-2.702 0.013-0.635-0.207-1.328-0.225-1.923-0.549-0.02-0.247-0.041-0.492-0.067-0.736-0.174-0.032-0.348-0.063-0.521-0.099-0.233 0.626-0.558 1.261-0.524 1.945 0.117 0.451 0.495 0.783 0.777 1.142-0.414 0.121-0.977 0.027-1.255 0.413-0.167 0.742 0.51 1.171 0.954 1.629-0.637-0.235-1.345-0.572-1.564-1.272 0.321-0.373 0.684-0.704 1.088-0.984-0.582-0.862-0.835-2.153-0.081-2.991-0.146-0.177-0.317-0.482-0.589-0.331-0.212 0.2-0.393 0.432-0.598 0.643-0.865 0.658-1.205 1.712-1.728 2.618-0.253-0.009-0.506-0.016-0.76-0.016l-0.012-0.314a5.707 5.707 0 0 1-0.028-1.252c0.189-0.736 0.516-1.43 0.701-2.168l0.063-0.239 0.106-0.362c0.558-1.52 1.245-3.08 2.485-4.174 0.793-0.786 1.93-1 2.96-1.321 0.074-0.004 0.151-0.009 0.225-0.01z m6.323 0.613c-0.469-0.015-0.912 0.179-0.833 0.736-0.068 0.487 0.399 0.706 0.731 0.938 0.744-0.004 1.077-0.847 0.873-1.455a1.561 1.561 0 0 0-0.77-0.219z m-9.96 7.151a2.303 2.303 0 0 0 0.278 2.003c-0.483 0.251-1.02 0.263-1.551 0.261-0.111-0.8 0.393-1.485 0.767-2.144 0.169-0.037 0.34-0.077 0.506-0.121z m1.499 0.672c0.436 0.125 0.955 0.111 1.298 0.442-0.052 0.215-0.103 0.43-0.14 0.648a6.373 6.373 0 0 0-0.808 0.575 2.158 2.158 0 0 1-0.35-1.665z m8.853 0.4c0.261 0.028 0.324 0.345 0.494 0.503 0.291 0.378 0.708 0.632 1.052 0.957-0.828 0.022-1.822 0.126-2.322-0.694-0.335 0.091-0.671 0.226-0.845 0.549l-0.494-0.268c-0.006-0.309 0.005-0.62 0.031-0.929h0.565c0.509 0.004 1.018-0.035 1.519-0.118z m-6.554 0.181c0.025 0.415 0.222 0.902-0.086 1.26-0.304-0.026-0.608-0.051-0.905-0.104 0.403-0.241 0.7-0.624 0.832-1.074z m3.1 0.145c0.389 0.296 0.55 0.783 0.73 1.218-1.159 0.044-2.32 0.028-3.475-0.048 0.079-0.383 0.21-0.753 0.311-1.132 0.809-0.025 1.622 0 2.433-0.037z m1.021 0.661c0.188 0.227 0.393 0.438 0.615 0.632 0.296-0.342 0.957-0.898 1.232-0.238-0.448 0.215-1.004 0.377-1.153 0.916l-0.015 0.066c0.094 0.471 0.22 0.934 0.379 1.387-0.955-0.624-0.483-1.912-1.058-2.763z m-13.358 0.362c-0.025 0.364-0.521 0.519-0.461 0.897 0.112 0.358 0.259 0.704 0.438 1.035-0.606-0.028-1.222 0.004-1.822-0.108-0.057-0.316-0.199-0.784 0.136-0.994 0.32-0.198 0.58-0.48 0.759-0.813 0.315 0.049 0.637 0.044 0.951-0.017z m0.815 0.189c-0.257 0.447-0.569 1-0.17 1.471l-0.218 0.096a3.29 3.29 0 0 1-0.445-0.835c0.126-0.227 0.241-0.462 0.345-0.699 0.163-0.007 0.325-0.019 0.488-0.033z m0.64 0.106l0.041 0.099 0.136-0.058c-0.049 0.28-0.253 0.483-0.428 0.694 0.288 0.017 0.366 0.944-0.05 0.688a13.576 13.576 0 0 1-0.157-0.278c0.03-0.28-0.015-0.593 0.223-0.801l0.068-0.082 0.106-0.118 0.061-0.144z m4.87 0.091c0.429 0.101 1.105-0.149 1.371 0.205 0.383 0.062 0.745 0.243 1.136 0.253 1.386-0.406 2.86-0.19 4.286-0.19 0.007 0.124 0.025 0.368 0.035 0.492-1.073 0.041-2.145 0.044-3.217 0.017-0.558-0.004-1.088-0.379-1.652-0.21-0.247 0.022-0.524 0.283-0.741 0.053-0.346-0.004-0.694-0.015-1.041-0.022-0.056-0.21-0.124-0.42-0.177-0.598z m-2.999 0.021c0.463 0.062 1.049-0.119 1.397 0.278l-0.148 0.334c-0.914-0.044-1.828-0.053-2.743-0.081 0.186-0.611 0.988-0.499 1.494-0.531z m19.601 0.02c0.62-0.027 1.21 0.205 1.826 0.265 0.004 0.256 0.08 0.529-0.044 0.77-0.751 0.143-1.464 0.473-2.235 0.491 0.014-0.207 0.025-0.415 0.028-0.624l0.355-0.231 0.07-0.671z m-1.988 0.017c0.126 0 0.253 0.005 0.379 0.013 0.283 0.054 0.489 0.28 0.726 0.428-0.682 0.34-1.459 0.256-2.189 0.157-0.563-0.077-1.149 0.027-1.7-0.142l0.154-0.278c0.874-0.074 1.749-0.186 2.631-0.178z m-4.646 0.12c0.268 0.002 0.536 0.007 0.806 0.007 0.027 0.272-0.088 0.403-0.346 0.394-0.639 0.017-1.277 0.015-1.915-0.022-0.062-0.378 0.42-0.308 0.649-0.364 0.268-0.016 0.537-0.017 0.806-0.015z m-0.637 0.799c0.669 0 1.338 0.063 1.995 0.188 0.919-0.12 1.845-0.006 2.76-0.167 0.378 0.03 1.173-0.142 1.082 0.458-0.431 0.052-0.832-0.219-1.268-0.173-0.857 0.053-1.72 0.132-2.569-0.055-0.972 0.204-1.965 0.109-2.948 0.169a21.33 21.33 0 0 0-0.026-0.377c0.331-0.037 0.674-0.03 0.974-0.043z m-12.867 0.015c0.741 0 1.486 0.137 2.227 0.163l0.154 0.177c-0.998-0.002-2.003 0.077-2.996-0.028a16.727 16.727 0 0 1-0.129-0.258c0.247-0.04 0.497-0.054 0.744-0.054z m4.231 0.147c0.42 0.004 0.844 0.01 1.266 0.002 1.651 0.02 3.3 0.043 4.948 0.155a7.608 7.608 0 0 0-0.121 0.207c-1.611 0.053-3.219 0.025-4.829 0.019l-1.015-0.036c-0.083-0.116-0.166-0.235-0.249-0.347z m10.674 0.482c0.531 0.237 1.058 0.485 1.612 0.67 0.32-0.128 0.76-0.829 1.02-0.321-0.405 0.377-0.977 0.758-1.556 0.63-0.445-0.21-0.729-0.642-1.075-0.979z m-14.801 0.086l0.407 0.062c0.448 1.039 0.469 2.236 1.078 3.21 0.351 0.577 0.64 1.186 0.98 1.768 0.354 0.608 0.941 1.018 1.491 1.436 1.18 0.867 3.112 0.736 3.948-0.541 0.527-1.139-0.128-2.344-0.585-3.384-0.783-1.23-2.828-0.294-2.769 1.047 0.45 0.269 0.947 0.819 1.509 0.474a12.965 12.965 0 0 1-0.016-0.658c0.133 0.148 0.235 0.322 0.366 0.473-0.315 0.406-0.828 0.388-1.291 0.324-0.186-0.207-0.379-0.409-0.568-0.613-0.232-1.338 1.473-2.463 2.606-1.786 0.809 0.519 1.035 1.517 1.357 2.359 0.372 1.014-0.178 2.215-1.141 2.667-0.742 0.479-1.662 0.289-2.492 0.289-1.133-0.054-1.871-0.979-2.615-1.714-0.716-0.879-1.183-1.923-1.742-2.903a9.525 9.525 0 0 1-0.523-2.509z"/></svg>