<svg fill="#333333" role="img" viewBox="0 0 35 24" xmlns="http://www.w3.org/2000/svg"><title>Notist</title><path d="M8.706 0.116c-1.593 0.159-3.316 0.58-4.403 1.072-1.549 0.723-1.825 1.26-1.318 2.708 0.522 1.508 0.275 3.345-1.45 10.878-1.273 5.618-1.489 6.792-1.416 7.836 0.058 0.681 0.13 0.913 0.421 1.145 0.319 0.259 0.478 0.274 2.446 0.187 4.94-0.246 5.88-0.319 6.185-0.493 0.348-0.188 0.362-0.29 0.638-2.548 0.464-4.157 2.592-10.371 4.387-12.891 1.537-2.144 3.419-3.084 4.491-2.245 1.131 0.899 1.102 2.26-0.189 6.01-0.986 2.897-1.145 3.519-1.317 5.243-0.217 2.116 0.188 3.608 1.391 4.94 1.231 1.362 3.07 2.042 5.575 2.042 2.377 0 4.302-0.594 6.344-1.941 1.87-1.247 4.099-3.78 4.36-4.969 0.145-0.594-0.101-1.245-0.507-1.404-0.594-0.217-0.942-0.058-2.013 0.913-1.245 1.131-1.81 1.376-2.911 1.289-1.464-0.116-2.102-0.957-2.102-2.782 0-1.303 0.13-1.955 0.942-4.808 1.145-3.954 1.348-5.75 0.841-7.286-0.826-2.563-4.316-3.679-8.183-2.606-2.1 0.594-4.693 2.1-6.664 3.896-0.551 0.493-0.986 0.855-0.985 0.812 0-0.029 0.101-0.507 0.232-1.044 0.493-2.173 0.29-3.258-0.695-3.766-0.565-0.29-2.318-0.377-4.099-0.188z"/></svg>