<svg fill="#001211" role="img" viewBox="0 0 79 24" xmlns="http://www.w3.org/2000/svg"><title>NOW</title><path d="M29.093 11.991c0-3.168 2.563-5.736 5.724-5.736 3.161 0 5.724 2.568 5.724 5.736 0 3.168-2.563 5.736-5.724 5.737-3.161 0-5.724-2.569-5.724-5.737z m42.379-9.42l-3.957 7.977-2.563-7.543-0.005-0.001c-0.509-1.465-1.894-2.517-3.523-2.516-1.298 0-2.441 0.668-3.109 1.681-1.709 2.607-3.415 5.235-5.119 7.853l-0.906-6.363c-0.313-2.048-2.214-3.444-4.244-3.13-2.033 0.312-3.428 2.205-3.117 4.242l0.159 1.066c-2.091-3.497-5.908-5.837-10.271-5.837-4.401 0-8.247 2.382-10.325 5.93l0.227-1.117c0.398-1.954-0.86-3.862-2.81-4.261-1.95-0.398-3.854 0.862-4.252 2.816l-1.549 7.607-5.7-8.841c-0.644-0.99-1.756-1.644-3.02-1.644-1.73 0-3.175 1.225-3.526 2.86l-3.323 16.304c-0.398 1.954 0.836 3.853 2.789 4.268 0.243 0.052 0.506 0.076 0.745 0.078 1.672 0.012 3.176-1.164 3.528-2.902l1.549-7.606c1.927 2.998 3.853 5.999 5.787 8.991 0.638 0.903 1.718 1.517 2.934 1.517 1.777 0 3.254-1.295 3.55-2.999l1.526-7.488c0.746 5.904 5.776 10.47 11.87 10.47 5.614 0 10.324-3.874 11.614-9.099l0.85 5.722c0.239 1.883 1.781 3.374 3.712 3.373 1.39 0 2.523-0.795 3.244-1.9l6.13-9.414 2.944 8.667c0.528 1.546 1.889 2.647 3.566 2.647 1.558 0 2.781-0.937 3.451-2.327l7.814-15.761c0.922-1.848 0.172-4.083-1.667-5.01-1.837-0.927-4.085-0.17-5.003 1.69Z"/></svg>