<svg fill="#96D7E8" role="img" viewBox="0 0 77 24" xmlns="http://www.w3.org/2000/svg"><title>Nrwl</title><path d="M10.786 0.002a10.979 10.979 0 0 0-2.71 0.395l0.174-0.065a11.021 11.021 0 0 0-2.697 1.11 11.021 11.021 0 0 0-0.84 0.539 11.021 11.021 0 0 0-0.353 0.25 10.979 10.979 0 0 0-0.08 0.07 11.021 11.021 0 0 0-0.032 0.016 10.979 10.979 0 0 0-0.33 0.27 11.021 11.021 0 0 0-0.369 0.333 11.021 11.021 0 0 0-0.161 0.144 10.979 10.979 0 0 0-0.256 0.257 10.979 10.979 0 0 0-0.318 0.343 11.021 11.021 0 0 0-0.096 0.109 10.979 10.979 0 0 0-0.227 0.276 11.021 11.021 0 0 0-0.109 0.128 10.979 10.979 0 0 0-0.212 0.282 11.021 11.021 0 0 0-0.019 0.026 10.979 10.979 0 0 0-0.231 0.321 11.021 11.021 0 0 0-0.045 0.064 10.979 10.979 0 0 0-0.263 0.423 10.979 10.979 0 0 0-0.237 0.407 11.021 11.021 0 0 0-0.039 0.084 10.979 10.979 0 0 0-0.199 0.384 10.979 10.979 0 0 0-0.214 0.459 10.979 10.979 0 0 0-0.174 0.433 11.021 11.021 0 0 0-0.025 0.064 10.979 10.979 0 0 0-0.42 1.401 10.979 10.979 0 0 0-0.1 0.488 10.979 10.979 0 0 0-0.083 0.477 11.021 11.021 0 0 0 0 0.042 10.979 10.979 0 0 0-0.087 0.972A10.979 10.979 0 0 0 0.022 10.975a11.021 11.021 0 0 0 0 0.128 10.979 10.979 0 0 0 0.012 0.398A10.979 10.979 0 0 0 0.073 12.001a10.979 10.979 0 0 0 0.048 0.449 11.021 11.021 0 0 0 0.032 0.183 10.979 10.979 0 0 0 0.058 0.346 11.021 11.021 0 0 0 0 0.013 10.979 10.979 0 0 0 0.08 0.394 11.021 11.021 0 0 0 0.119 0.481 11.021 11.021 0 0 0 0.307 0.953 11.021 11.021 0 0 0 0.18 0.461 11.021 11.021 0 0 0 1.385 2.389c0.045 0.064 0.08 0.077 0.128 0.138a10.979 10.979 0 0 0 0.023 0.032 10.979 10.979 0 0 0 0.978 1.058l0.035 0.042c0.321 0.289 0.513 0.423 0.439 0.414 0.026 0.019 0.064 0.032 0.097 0.057a10.979 10.979 0 0 0 0.054 0.055 2.28 2.28 0 0 1-0.657-0.257 2.19 2.19 0 0 0-1.251-0.282 2.232 2.232 0 0 0-1.949 3.037 6.391 6.391 0 0 1 1.808-0.385 6.695 6.695 0 0 1 1.09 0.023 5.474 5.474 0 0 0 0.908 0.019c0.16-0.013 0.314-0.032 0.471-0.058a5.496 5.496 0 0 0 1.873-0.651 10.979 10.979 0 0 0 1.401 0.545 14.205 14.205 0 0 0 9.584-0.619 1.693 1.693 0 0 0 0.369-0.243 0.574 0.574 0 0 0 0.244 0.096l5.736 0.542v2.767H28.079v-2.354l3.591 0.337-13.48-2.418a0.356 0.356 0 0 0-0.045-0.012c-0.032-0.321-0.305-0.552-0.417-0.7a0.43 0.43 0 0 1-0.096-0.224 5.259 5.259 0 0 0-4.797-4.874 1.616 1.616 0 0 0-0.577-0.619 1.613 1.613 0 0 1-0.6-1.282 1.796 1.796 0 0 0-1.597 1.41 4.467 4.467 0 0 1-1.209-7.124 5.765 5.765 0 0 1 4.207-1.806A5.849 5.849 0 0 1 18.716 8.666a2.931 2.931 0 0 1-1.741 1.026 2.899 2.899 0 0 0-2.36 2.399c1.122 0 1.876 1.53 3.963 1.529a1.892 1.892 0 0 0 1.754-1.176 1.898 1.898 0 0 0 1.76 1.176 3.752 3.752 0 0 0 1.571-0.339v6.419l4.416 1.049v-5.105l7.032 8.353H38.821v-15.68h-4.425v8.353L27.373 8.32H23.663v1.369c-0.907-0.16-1.783-0.818-2.084-1.667a10.979 10.979 0 0 0-10.793-8.02zM70.915 5.46v14.153c0 3.803 2.456 4.284 4.762 4.284 0.702 0 1.302-0.064 1.302-0.064v-3.302s-0.25 0.022-0.526 0.022c-0.978 0-1.202-0.385-1.203-1.453V5.46z m-21.856 6.195a6.596 6.596 0 0 0-2.273 0.41 4.018 4.018 0 0 0-1.716 1.235v-1.453h-4.12v12.153h4.319v-5.579c0-1.013 0.26-1.767 0.783-2.258 0.526-0.494 1.251-0.738 2.174-0.737a9.418 9.418 0 0 1 0.984 0.054v-3.825a6.596 6.596 0 0 0-0.151 0z m1.873 0.192l3.508 12.143h4.188l1.529-5.566 1.443 5.566h4.188l3.508-12.143h-3.803l-1.732 6.195-1.667-6.195h-3.688l-1.738 6.131-1.641-6.131z m-39.38 6.862c0.096 0 0.224 0.051 0.375 0.087 0.295 0.074 0.545 0.064 0.481 0.346a0.548 0.548 0 0 1-1.064-0.256c0.032-0.141 0.106-0.18 0.208-0.177z"/></svg>