<svg fill="#820AD1" role="img" viewBox="0 0 44 24" xmlns="http://www.w3.org/2000/svg"><title>Nubank</title><path d="M13.373 0c-2.159 0-3.992 0.846-5.378 2.288h-0.004c-0.099-0.004-0.196-0.004-0.296-0.004-2.821 0-5.469 1.615-6.76 4.123-0.564 1.096-0.774 2.274-0.839 3.473-0.059 1.076 0 2.168 0 3.234v10.329H5.889s0.004-5.088 0-9.462c-0.003-2.944-0.022-5.569 0-6.107 0.102-2.547 0.799-4.213 2.099-5.575 4.31 0.003 7.1 2.941 7.256 7.617 0.036 1.073 0.046 6.817 0.046 6.817v6.71h5.789v-9.073c0-2.743 0.023-5.118-0.168-6.753-0.534-4.569-3.328-7.617-7.538-7.617z m15.333 0.55l-5.785 0.007v9.073c0 2.743-0.023 5.118 0.168 6.753 0.534 4.569 3.328 7.617 7.538 7.617 2.159 0 3.992-0.846 5.378-2.288 0.001-0.001 0.003 0.001 0.004 0 0.099 0.004 0.2 0.004 0.3 0.004 2.821 0 5.465-1.615 6.756-4.123 0.564-1.096 0.774-2.274 0.839-3.473 0.058-1.076 0-2.168 0-3.233V0.557H38.111s-0.004 5.088 0 9.462c0.003 2.945 0.022 5.568 0 6.107-0.102 2.547-0.799 4.213-2.098 5.575-4.31-0.003-7.1-2.941-7.257-7.617-0.036-1.073-0.05-3.735-0.05-6.82Z"/></svg>