<svg fill="#252B2D" role="img" viewBox="0 0 22 24" xmlns="http://www.w3.org/2000/svg"><title>Nucleo</title><path d="M11.024 0a3.868 3.868 0 0 0-1.964 0.525L0.353 5.55V6.5h15.853a3.9 3.9 0 0 0 3.463-2.115L12.921 0.508A3.868 3.868 0 0 0 11.024 0z m9.81 5.072L12.909 18.801a3.9 3.9 0 0 0 0.1 4.056l6.734-3.908a3.865 3.865 0 0 0 1.914-3.35V5.55l-0.822-0.477zM0.459 7.848a3.9 3.9 0 0 0-0.117 0.004l0.017 7.787a3.868 3.868 0 0 0 1.946 3.334L11.007 24l0.824-0.475-7.926-13.73A3.9 3.9 0 0 0 0.459 7.848zM10.991 9.1a2.6 2.6 0 0 0-2.584 2.6 2.6 2.6 0 0 0 2.6 2.599 2.6 2.6 0 0 0 2.6-2.6 2.6 2.6 0 0 0-2.6-2.6 2.6 2.6 0 0 0-0.016 0Z"/></svg>