<svg fill="#013243" role="img" viewBox="0 0 23 24" xmlns="http://www.w3.org/2000/svg"><title>NumPy</title><path d="M9.814 4.876L5.804 2.852l-4.401 2.196 4.119 2.068z m1.838 0.928l4.205 2.122-4.362 2.191-4.125-2.072z m5.616-2.922l4.319 2.166-3.863 1.94-4.213-2.125z m-1.859-0.932L11.52 0 7.674 1.919l4.006 2.021z m-3.04 16.744V24l4.71-2.351-0.005-5.308z m4.703-4.206l-0.005-5.253-4.698 2.336v5.255z m5.656-0.984v5.327l-4.018 2.005-0.003-5.303z m0-1.863V6.421l-4.026 2.001 0.004 5.264zM10.706 11.571L7.533 9.976v6.895s-3.88-8.256-4.24-8.998c-0.046-0.096-0.237-0.201-0.286-0.227C2.311 7.281 0.272 6.248 0.272 6.248V18.43l2.821 1.508v-6.368s3.839 7.378 3.878 7.458c0.039 0.081 0.424 0.858 0.836 1.132 0.548 0.363 2.899 1.777 2.899 1.776z"/></svg>