<svg fill="#4E9A06" role="img" viewBox="0 0 64 24" xmlns="http://www.w3.org/2000/svg"><title>Nushell</title><path d="M0.007 23.565h3.333v-15.196c1.112-1.664 3.213-3.49 5.67-3.49 3.135 0 3.573 1.706 3.573 5.991v12.695h3.333v-15.156c0-3.887-1.786-6.185-5.871-6.185-2.461 0-5.236 1.226-6.905 3.369l-0.275-2.932H0.007Zm27.133-20.907h-3.333v15.191c0 3.892 1.986 6.151 6.033 6.151 2.455 0 5.036-1.149 6.703-3.253l0.277 2.818h2.858V2.658h-3.332v15.391c-1.152 1.786-3.373 3.333-5.676 3.333-2.418 0-3.53-1.189-3.53-3.887z m21.622-2.658l-1.627 2.538 14 8.609-14 8.649 1.784 2.458L63.993 12.853v-3.412z"/></svg>