<svg fill="#024DA1" role="img" viewBox="0 0 35 24" xmlns="http://www.w3.org/2000/svg"><title>Nutanix</title><path d="M0.887 0a0.565 0.565 0 0 0-0.563 0.565c0 0.172 0.077 0.322 0.2 0.426l12.176 10.598a0.558 0.558 0 0 1-0.018 0.842l-12.196 10.61a0.563 0.563 0 0 0 0.401 0.959h6.956a0.558 0.558 0 0 0 0.38-0.149l13.126-11.423a0.567 0.567 0 0 0 0-0.853L8.224 0.149a0.553 0.553 0 0 0-0.378-0.149z m26.278 0a0.557 0.557 0 0 0-0.39 0.162l-6.751 5.877a0.561 0.561 0 0 0-0.057 0.808l3.474 3.026a0.563 0.563 0 0 0 0.416 0.186 0.564 0.564 0 0 0 0.398-0.17l10.202-8.88a0.557 0.557 0 0 0 0.221-0.444 0.565 0.565 0 0 0-0.563-0.565z m-3.306 13.945c-0.166 0-0.315 0.072-0.418 0.186l-3.473 3.025a0.561 0.561 0 0 0 0.056 0.807l6.751 5.875c0.1 0.1 0.238 0.162 0.39 0.162h6.95a0.563 0.563 0 0 0 0.342-1.009l-10.202-8.88a0.563 0.563 0 0 0-0.398-0.166z"/></svg>