<svg fill="#00DC82" role="img" viewBox="0 0 37 24" xmlns="http://www.w3.org/2000/svg"><title>Nuxt.js</title><path d="M20.744 24h13.674c0.434 0 0.861-0.111 1.238-0.322a2.437 2.437 0 0 0 0.905-0.878 2.344 2.344 0 0 0 0.331-1.2 2.343 2.343 0 0 0-0.332-1.2L27.377 4.971a2.438 2.438 0 0 0-0.906-0.878 2.533 2.533 0 0 0-1.237-0.322c-0.434 0-0.861 0.111-1.236 0.322a2.438 2.438 0 0 0-0.906 0.878L20.744 8.919l-4.591-7.719a2.439 2.439 0 0 0-0.906-0.878 2.534 2.534 0 0 0-1.237-0.322c-0.434 0-0.861 0.111-1.237 0.321a2.439 2.439 0 0 0-0.906 0.879L0.44 20.4A2.344 2.344 0 0 0 0.108 21.6c0 0.421 0.114 0.835 0.331 1.2a2.437 2.437 0 0 0 0.905 0.878c0.376 0.211 0.803 0.322 1.238 0.322h8.583c3.401 0 5.909-1.449 7.635-4.276l4.19-7.038L25.234 8.919l6.735 11.314h-8.979ZM11.025 20.229l-5.99-0.001 8.979-15.085 4.481 7.543-3 5.041c-1.146 1.834-2.448 2.503-4.47 2.502z"/></svg>