<svg fill="#76B900" role="img" viewBox="0 0 37 24" xmlns="http://www.w3.org/2000/svg"><title>NVIDIA</title><path d="M13.886 7.159v-2.162a10.13 10.13 0 0 1 0.641-0.027c5.93-0.187 9.817 5.101 9.817 5.101s-4.194 5.822-8.694 5.822c-0.602 0-1.19-0.094-1.751-0.28v-6.57c2.31 0.28 2.777 1.296 4.153 3.606l3.085-2.592s-2.256-2.951-6.048-2.951a9.096 9.096 0 0 0-1.203 0.053m0-7.159v3.232l0.641-0.04c8.24-0.28 13.622 6.758 13.622 6.758s-6.169 7.505-12.594 7.505c-0.559 0-1.108-0.053-1.656-0.147v2.004c0.454 0.053 0.922 0.094 1.376 0.093 5.983 0 10.311-3.059 14.504-6.664 0.694 0.561 3.538 1.91 4.127 2.498-3.981 3.338-13.262 6.023-18.525 6.023-0.506 0-0.987-0.027-1.468-0.08v2.818H36.643V0z m0 15.612v1.71c-5.529-0.989-7.065-6.743-7.065-6.743s2.658-2.939 7.065-3.42v1.87H13.874c-2.31-0.281-4.128 1.882-4.128 1.882s1.028 3.647 4.141 4.702M4.07 10.337s3.272-4.834 9.828-5.342V3.232C6.636 3.821 0.357 9.963 0.357 9.963s3.553 10.284 13.529 11.219v-1.87c-7.318-0.907-9.815-8.975-9.816-8.975z"/></svg>