<svg fill="#F4DD4B" role="img" viewBox="0 0 72 24" xmlns="http://www.w3.org/2000/svg"><title>nvm</title><path d="M21.606 0l-0.593 0.012a0.134 0.134 0 0 0-0.112 0.204l0.311 0.512a0.134 0.134 0 0 0 0.117 0.065l0.593-0.012a0.134 0.134 0 0 0 0.112-0.204l-0.31-0.512a0.134 0.134 0 0 0-0.118-0.065m-3.635 0.253l-0.485 0.01a0.134 0.134 0 0 0-0.112 0.204l0.254 0.42a0.134 0.134 0 0 0 0.118 0.065l0.485-0.011a0.134 0.134 0 0 0 0.112-0.204l-0.254-0.42a0.134 0.134 0 0 0-0.118-0.064m2.123 1.184l-0.839 0.017a0.134 0.134 0 0 0-0.112 0.204l0.511 0.843a0.134 0.134 0 0 0 0.118 0.065l0.838-0.018a0.134 0.134 0 0 0 0.113-0.204l-0.511-0.842a0.134 0.134 0 0 0-0.118-0.065m2.516 0.742l-1.053 0.023a0.134 0.134 0 0 0-0.111 0.204l0.551 0.911a0.134 0.134 0 0 0 0.118 0.065l1.053-0.023a0.134 0.134 0 0 0 0.112-0.204l-0.552-0.911a0.134 0.134 0 0 0-0.118-0.065m26.057 0.374c-0.227-0.002-0.454 0.064-0.689 0.2q-4.005 2.307-8.019 4.6l0.315-0.534c0.207-0.47 0.081-0.669-0.431-0.669-1.798-0.001-3.597 0.002-5.396-0.005-0.265-0.001-0.433 0.094-0.564 0.326-0.605 1.066-1.221 2.125-1.837 3.185h-0.001c-0.81 1.397-2.514 4.214-2.697 4.518v0.001l-3.086 5.625 0.003-0.008-0.004 0.008c0.239 0.379 0.505 0.784 0.769 1.187l0.123 0.194 0.004 0.003c0.387 0.592 0.776 1.184 1.13 1.738-0.39-0.626 0.34 0.444 0.572 0.689 0.484 0.513 0.894 0.52 1.375 0.007 0.19-0.203 0.356-0.43 0.519-0.655 0.749-1.044 1.399-2.151 2.052-3.256 1.355-2.296 2.673-4.613 4.009-6.92 0.598-1.032 1.204-2.059 1.808-3.089 0.03-0.058 0.063-0.114 0.094-0.172 0.009 4.208 0.01 8.418 0.018 12.626 0.001 0.746 0.354 0.949 0.996 0.583 1.621-0.922 3.235-1.859 4.862-2.773 0.51-0.288 0.736-0.678 0.73-1.27-0.021-1.953 0.005-3.905-0.017-5.858-0.008-0.671 0.246-1.122 0.84-1.431 0.604-0.313 1.191-0.66 1.77-1.015 0.499-0.305 0.97-0.317 1.473-0.008 0.579 0.356 1.165 0.704 1.77 1.013 0.619 0.317 0.864 0.792 0.857 1.478-0.02 1.918 0.012 3.836-0.017 5.752-0.011 0.657 0.241 1.073 0.807 1.388 1.555 0.864 3.093 1.758 4.637 2.64 0.846 0.483 1.141 0.315 1.144-0.651 0.008-3.156 0.021-6.311 0.012-9.467-0.001-0.481 0.183-0.794 0.579-1.022 0.681-0.39 1.362-0.78 2.041-1.175 0.452-0.263 0.887-0.248 1.334 0.019 0.598 0.356 1.196 0.719 1.816 1.038s0.863 0.793 0.857 1.479c-0.02 1.918 0.012 3.836-0.018 5.753-0.01 0.659 0.243 1.074 0.808 1.387 1.57 0.873 3.124 1.774 4.684 2.663 0.781 0.445 1.093 0.27 1.095-0.624 0.003-2.179 0-4.359 0-6.538h0.021c0-2.179-0.009-4.359 0.005-6.538 0.004-0.622-0.229-1.047-0.778-1.359a934.321 934.321 0 0 1-8.347-4.792c-0.581-0.337-1.086-0.332-1.662 0.006-1.788 1.053-3.598 2.066-5.39 3.114-0.278 0.161-0.474 0.162-0.754 0-1.839-1.072-3.691-2.117-5.533-3.183-0.235-0.136-0.462-0.206-0.689-0.208z m-38.545 0.005c-0.24 0.002-0.479 0.079-0.733 0.226A997.007 997.007 0 0 1 0.996 7.6c-0.587 0.333-0.824 0.773-0.816 1.441 0.024 2.144 0.01 4.288 0.009 6.432h0.014c0 2.196-0.003 4.393 0 6.589 0.001 0.871 0.337 1.057 1.105 0.618 1.559-0.891 3.109-1.796 4.68-2.666 0.57-0.316 0.816-0.73 0.806-1.386-0.027-1.952-0.004-3.905-0.013-5.857-0.003-0.575 0.194-1.004 0.715-1.289 0.673-0.368 1.335-0.757 1.996-1.145 0.433-0.254 0.854-0.25 1.285 0.004 0.617 0.361 1.227 0.736 1.863 1.062 0.624 0.32 0.854 0.801 0.847 1.483-0.02 1.934 0.007 3.87-0.015 5.804-0.007 0.616 0.236 1.005 0.768 1.301 1.584 0.883 3.152 1.795 4.726 2.694 0.762 0.436 1.089 0.246 1.09-0.64 0.009-3.994 0.011-7.989 0.024-11.983l6.186 9.725 2.23-7.055 0.361 0.612-0.898-1.542-0.238-0.41-0.545-0.937a0.134 0.134 0 0 0-0.135-0.066l-2.165 0.293-0.186-0.337-0.001-0.003-0.698-1.197a0.134 0.134 0 0 0-0.118-0.066l-0.77 0.009a0.134 0.134 0 0 0-0.114 0.202l0.094 0.162-1.652 0.009-0.391-0.673a0.134 0.134 0 0 0-0.118-0.067l-0.854 0.006c-0.057-0.491-0.301-0.839-0.774-1.108a1068.648 1068.648 0 0 1-8.437-4.845c-0.256-0.148-0.496-0.219-0.735-0.216m8.466 0.07l-0.707 0.015a0.134 0.134 0 0 0-0.112 0.204l0.43 0.709a0.134 0.134 0 0 0 0.118 0.065l0.707-0.014a0.134 0.134 0 0 0 0.112-0.204l-0.43-0.71a0.134 0.134 0 0 0-0.118-0.065m1.641 1.235l-0.744 0.017a0.134 0.134 0 0 0-0.112 0.204l0.389 0.643a0.134 0.134 0 0 0 0.118 0.065l0.745-0.016a0.134 0.134 0 0 0 0.112-0.204l-0.39-0.644a0.134 0.134 0 0 0-0.118-0.065m2.254 0.118l-1.091 0.023a0.134 0.134 0 0 0-0.112 0.205l0.57 0.942a0.134 0.134 0 0 0 0.118 0.065l0.669-0.014 0.526 0.868a0.134 0.134 0 0 0 0.118 0.065l1.551-0.032a0.134 0.134 0 0 0 0.112-0.204l-0.944-1.56a0.134 0.134 0 0 0-0.118-0.064l-1.127 0.023-0.154-0.252a0.134 0.134 0 0 0-0.118-0.064z m-4.063 0.238l-0.594 0.012a0.134 0.134 0 0 0-0.112 0.205l0.31 0.511a0.134 0.134 0 0 0 0.118 0.066l0.593-0.012a0.134 0.134 0 0 0 0.112-0.205l-0.309-0.512a0.134 0.134 0 0 0-0.118-0.065m1.796 1.371l-0.86 0.017a0.134 0.134 0 0 0-0.113 0.204l0.525 0.865a0.134 0.134 0 0 0 0.118 0.065l0.23-0.005 0.447 0.74a0.134 0.134 0 0 0 0.118 0.065l1.411-0.03a0.134 0.134 0 0 0 0.112-0.204l-0.859-1.416a0.134 0.134 0 0 0-0.118-0.065l-0.779 0.016-0.114-0.188a0.134 0.134 0 0 0-0.118-0.064m5.747 1.919l-1.926 0.042a0.134 0.134 0 0 0-0.112 0.204l0.382 0.629a0.134 0.134 0 0 0 0.118 0.064l0.511-0.01 0.315 0.517a0.134 0.134 0 0 0 0.118 0.065l1.334-0.029a0.134 0.134 0 0 0 0.113-0.204l-0.736-1.213a0.134 0.134 0 0 0-0.118-0.065z"/></svg>