<svg fill="#143055" role="img" viewBox="0 0 39 24" xmlns="http://www.w3.org/2000/svg"><title>Nx</title><path d="M19.479 15.441l-5.041 7.923-8.358-13.562-0.019 14.198H0.187V0h5.94l8.445 14.216 0.008-6.434 4.899 7.659z m0.967-9.272c0.039-0.077 0-6.09 0.013-6.169h-5.874c0.003 0.095-0.008 6.077-0.005 6.169h5.866z m9.068 6.653a3.317 3.317 0 0 0-3.169 2.151 3.159 3.159 0 0 1 3.771-1.19c0.637 0.259 1.476 0.679 2.14 0.456a3.38 3.38 0 0 0-2.742-1.417z m5.456 1.708c-0.604-0.209-1.288-0.446-1.785-1.096-0.097-0.129-0.187-0.274-0.283-0.426a3.449 3.449 0 0 0-0.858-1.034c-0.473-0.348-1.094-0.518-1.899-0.518a3.995 3.995 0 0 0-3.692 2.472 3.742 3.742 0 0 1 6.441 0.625 1.207 1.207 0 0 0 1.345 0.537c0.793-0.169 0.74 0.579 1.936 0.834v-0.214c-0.005-0.718-0.396-0.885-1.207-1.18z m3.257 2.038a1.164 1.164 0 0 0 0.559-1.027c-0.016-4.759-3.879-8.831-8.643-8.831a8.633 8.633 0 0 0-7.221 3.891c-0.016-0.042-2.45-3.847-2.476-3.891H14.58l5.573 8.728-5.438 8.562h5.697l2.479-3.808 2.524 3.808h5.699l-5.167-8.131a1.127 1.127 0 0 1-0.135-0.515 4.329 4.329 0 0 1 4.33-4.331h0.001c2.395 0 2.794 1.432 3.311 2.105 1.02 1.329 3.058 0.747 3.058 2.48a1.138 1.138 0 0 0 1.715 0.96z m0.564 0.214c-0.278 0.599-0.901 0.544-1.215 1.028-0.283 0.436 0.183 0.663 0.183 0.663s0.542 0.251 0.866-0.5c0.167-0.372 0.225-0.785 0.166-1.191z"/></svg>