<svg fill="#000000" role="img" viewBox="0 0 71 24" xmlns="http://www.w3.org/2000/svg"><title>NXP</title><path d="M20.219 0l7.403 12-7.403 12-12.543-14.503 0.003 14.501-7.405 0.002L0.26 23.979V0h7.412l12.543 14.503 0.001-14.503m43.612 8.501c0-1.62-0.803-2.547-3.045-2.547h-9.362v6.789h9.998c1.739 0 2.408-1.637 2.409-3.06v-1.182z m-1.85-8.501C69.035 0 70.74 3.506 70.74 8.203v2.82c0 3.572-1.571 7.674-6.822 7.674h-12.507l0.003 5.301h-0.003L44.009 12l7.402-12h10.567m-19.81 0h-1.355l-4.998 7.978-4.997-7.978H22.045l7.404 11.999-7.404 12h8.773l4.998-7.976 4.997 7.976h1.37l7.401 0-7.402-12 7.403-11.999h-7.417z"/></svg>