<svg fill="#EC6813" role="img" viewBox="0 0 28 24" xmlns="http://www.w3.org/2000/svg"><title>OCaml</title><path d="M14.204 23.055c-0.098-0.195-0.215-0.601-0.292-0.776-0.077-0.155-0.31-0.58-0.425-0.717-0.252-0.29-0.31-0.31-0.387-0.697-0.138-0.658-0.465-1.822-0.872-2.634-0.215-0.427-0.562-0.777-0.873-1.086-0.271-0.271-0.891-0.716-1.007-0.697-1.027 0.194-1.338 1.2-1.821 1.995-0.272 0.445-0.543 0.814-0.757 1.279-0.192 0.426-0.173 0.91-0.504 1.279a3.386 3.386 0 0 0-0.715 1.259c-0.039 0.096-0.116 1.066-0.214 1.297l1.512-0.096c1.414 0.098 1.006 0.639 3.197 0.523l3.467-0.115a6.167 6.167 0 0 0-0.31-0.814zM24.278 0H3.702A3.464 3.464 0 0 0 0.235 3.465v7.556c0.505-0.174 1.201-1.239 1.434-1.491 0.387-0.446 0.465-1.027 0.658-1.376 0.446-0.813 0.523-1.394 1.53-1.394 0.466 0 0.66 0.115 0.97 0.543 0.213 0.29 0.6 0.852 0.774 1.22 0.213 0.426 0.544 0.987 0.698 1.104 0.115 0.078 0.212 0.156 0.31 0.195 0.155 0.057 0.29-0.059 0.406-0.138 0.135-0.115 0.195-0.328 0.329-0.638 0.195-0.447 0.389-0.949 0.505-1.144 0.194-0.31 0.271-0.697 0.484-0.871 0.31-0.271 0.735-0.29 0.853-0.31 0.639-0.135 0.929 0.31 1.238 0.582 0.213 0.193 0.485 0.562 0.699 1.043 0.155 0.389 0.349 0.758 0.445 0.971 0.078 0.212 0.272 0.562 0.388 0.986 0.116 0.369 0.387 0.66 0.505 0.854 0 0 0.174 0.466 1.181 0.892a8.609 8.609 0 0 0 0.929 0.328c0.447 0.155 0.872 0.138 1.415 0.078 0.388 0 0.601-0.562 0.775-1.007 0.096-0.272 0.212-1.027 0.271-1.24 0.057-0.212-0.098-0.367 0.039-0.562 0.155-0.213 0.252-0.233 0.329-0.504 0.195-0.6 1.278-0.619 1.899-0.619 0.523 0 0.446 0.505 1.318 0.329 0.504-0.098 0.987 0.057 1.511 0.212 0.445 0.117 0.872 0.252 1.125 0.543 0.154 0.195 0.561 1.144 0.153 1.183 0.038 0.038 0.077 0.135 0.136 0.173-0.098 0.369-0.484 0.098-0.717 0.058-0.29-0.057-0.505 0-0.795 0.136-0.504 0.215-1.219 0.195-1.666 0.562-0.367 0.311-0.367 0.988-0.542 1.376 0 0-0.484 1.219-1.511 1.976-0.272 0.195-0.794 0.658-1.918 0.833-0.505 0.078-0.987 0.078-1.512 0.057-0.252-0.018-0.502-0.018-0.755-0.018-0.156 0-0.66-0.02-0.64 0.039l-0.057 0.136a0.688 0.688 0 0 0 0.038 0.194c0.02 0.115 0.02 0.212 0.039 0.31 0 0.212-0.02 0.445 0 0.658 0.02 0.445 0.195 0.852 0.213 1.317 0.02 0.505 0.271 1.047 0.523 1.453 0.098 0.155 0.233 0.174 0.291 0.367 0.077 0.213 0 0.466 0.038 0.699 0.135 0.911 0.407 1.879 0.815 2.712v0.019c0.504-0.077 1.027-0.271 1.686-0.367 1.219-0.176 2.904-0.098 3.99-0.195 2.752-0.252 4.244 1.124 6.703 0.562V3.468a3.493 3.493 0 0 0-3.487-3.468z m-10.268 16.274c0-0.039 0-0.039 0 0z m-7.421 3.176c0.195-0.427 0.311-0.892 0.465-1.319 0.155-0.406 0.387-0.987 0.795-1.2-0.057-0.057-0.853-0.078-1.065-0.097a8.496 8.496 0 0 1-0.698-0.096 26.356 26.356 0 0 1-1.319-0.271c-0.252-0.059-1.123-0.369-1.296-0.448-0.447-0.193-0.736-0.755-1.067-0.696-0.212 0.039-0.424 0.116-0.562 0.329-0.115 0.174-0.154 0.485-0.232 0.698-0.096 0.233-0.252 0.465-0.367 0.697-0.273 0.406-0.718 0.775-0.912 1.182-0.038 0.098-0.057 0.194-0.096 0.291v4.669c0.232 0.039 0.465 0.078 0.715 0.155 1.939 0.523 2.403 0.562 4.302 0.348l0.174-0.019c0.135-0.31 0.252-1.336 0.349-1.646 0.077-0.252 0.176-0.447 0.215-0.678 0.038-0.233 0-0.466-0.02-0.677-0.039-0.563 0.406-0.758 0.62-1.222z"/></svg>