<svg fill="#000000" role="img" viewBox="0 0 86 24" xmlns="http://www.w3.org/2000/svg"><title>oclif</title><path d="M53.286 0.613a2.077 2.077 0 0 0-1.486-0.613H2.329A2.088 2.088 0 0 0 0.245 2.091v19.818c0 1.158 0.933 2.091 2.084 2.091H51.8a2.077 2.077 0 0 0 1.486-0.613l9.381-9.883a2.163 2.163 0 0 0 0-2.983l-9.381-9.908z m-15.605 6c0.249-0.235 0.577-0.356 0.915-0.346 0.214 0.004 0.424 0.061 0.609 0.168 0.196 0.107 0.356 0.26 0.478 0.445a1.105 1.105 0 0 1 0.178 0.613 1.09 1.09 0 0 1-0.178 0.616 1.308 1.308 0 0 1-0.478 0.442 1.297 1.297 0 0 1-1.731-0.442 1.126 1.126 0 0 1-0.171-0.616 1.162 1.162 0 0 1 0.378-0.88z m-24.243 10.19a3.926 3.926 0 0 1-7.022 0 5.074 5.074 0 0 1-0.535-2.352c-0.007-0.787 0.178-1.568 0.545-2.262 0.338-0.659 0.848-1.219 1.472-1.614 1.24-0.784 2.822-0.784 4.062 0 0.624 0.395 1.133 0.955 1.471 1.614 0.367 0.695 0.552 1.475 0.545 2.262 0.011 0.819-0.171 1.625-0.538 2.352z m8.783-3.859c-0.506-0.748-1.357-1.272-2.298-1.211a1.938 1.938 0 0 0-1.133 0.356 2.451 2.451 0 0 0-0.834 0.962 3.57 3.57 0 0 0-0.299 1.504c0 0.481 0.103 0.955 0.299 1.389a2.07 2.07 0 0 0 1.942 1.269c0.317-0.011 0.542-0.036 0.68-0.072a2.02 2.02 0 0 0 0.457-0.192 3.057 3.057 0 0 0 1.04-0.866l1.183 1.372a4.357 4.357 0 0 1-3.378 1.518 4.261 4.261 0 0 1-2.198-0.57 4.047 4.047 0 0 1-1.525-1.604 4.803 4.803 0 0 1-0.552-2.298c-0.007-0.805 0.178-1.596 0.552-2.309 0.349-0.673 0.876-1.236 1.525-1.631 0.677-0.41 1.45-0.62 2.237-0.613 0.677-0.004 1.35 0.143 1.967 0.427a3.449 3.449 0 0 1 1.439 1.23l-1.104 1.339z m10.183 5.765H25.684v-1.589h2.334V7.974h-2.206v-1.614h4.276v10.76h2.316v1.589z m9.196 0H35.671v-1.646h2.045v-5.252h-1.959v-1.639h3.983v6.891h1.831l0.029 1.646z m10.019-9.976a4.276 4.276 0 0 0-0.941-0.691 1.995 1.995 0 0 0-0.873-0.186 1.568 1.568 0 0 0-1.265 0.503 2.234 2.234 0 0 0-0.427 1.485v0.35h2.608v1.624h-2.597v6.891h-1.985v-6.912h-1.831v-1.628h1.831v-0.357c-0.018-0.684 0.143-1.361 0.47-1.959a3.153 3.153 0 0 1 1.272-1.229c0.545-0.285 1.154-0.431 1.771-0.424 1.062-0.011 2.084 0.42 2.822 1.19l-0.855 1.343z m-39.951 4.204c0.167 0.485 0.249 0.994 0.238 1.507 0.007 0.513-0.071 1.019-0.238 1.504a2.27 2.27 0 0 1-0.692 1.019 1.632 1.632 0 0 1-1.058 0.36 1.589 1.589 0 0 1-1.037-0.357 2.262 2.262 0 0 1-0.694-0.994 4.532 4.532 0 0 1-0.239-1.532c-0.011-0.513 0.071-1.023 0.242-1.503a2.184 2.184 0 0 1 0.684-0.973 1.621 1.621 0 0 1 1.051-0.314 1.7 1.7 0 0 1 1.058 0.335c0.31 0.249 0.549 0.57 0.685 0.948zM85.755 23.002a0.998 0.998 0 0 1-0.997 0.998h-16.639a0.998 0.998 0 0 1-0.994-0.998v-0.976a0.998 0.998 0 0 1 0.997-0.998h16.643a0.998 0.998 0 0 1 0.99 0.998v0.976z"/></svg>