<svg fill="#0790C0" role="img" viewBox="0 0 24 24" xmlns="http://www.w3.org/2000/svg"><title>Octave</title><path d="M10.501 0.007c-2.414-0.09-4.658 0.715-6.286 2.485C2.914 3.906 2.189 5.75 1.988 7.77h-0.42C0.704 7.77 0.001 8.473 0.001 9.335v4.743c0 0.863 0.702 1.567 1.565 1.567h2.091a16.899 16.899 0 0 0 2.57 3.687c4.46 4.848 10.696 6.036 14.561 3.016h2.102c0.577 0 1.05-0.473 1.05-1.05V18.43a1.03 1.03 0 0 0-0.257-0.668c0.858-3.433-0.045-7.642-2.52-11.219 0.002-0.017 0.01-0.032 0.01-0.049V4.482a0.822 0.822 0 0 0-0.816-0.819h-1.703C16.143 1.372 13.219 0.11 10.501 0.007z m1.75 2.18c1.78-0.01 3.69 0.62 5.425 1.85a0.797 0.797 0 0 0-0.15 0.445v2.013c0 0.449 0.368 0.82 0.816 0.82h2.016a0.788 0.788 0 0 0 0.392-0.116c2.248 3.302 2.735 7.322 1.24 10.18h-1.964c-0.579 0-1.052 0.475-1.052 1.051v1.794c-2.991 1.3-7.005 0.222-9.964-2.992a12.743 12.743 0 0 1-1.55-2.098c0.256-0.279 0.416-0.647 0.416-1.056V9.335c0-0.862-0.702-1.565-1.565-1.565H5.901c0.238-1.364 0.781-2.612 1.688-3.596 1.225-1.331 2.88-1.98 4.661-1.988z m6.091 2.01h2.016c0.162 0 0.283 0.123 0.283 0.285v2.013c0 0.163-0.12 0.285-0.283 0.285H18.341a0.28 0.28 0 0 1-0.285-0.285V4.482a0.28 0.28 0 0 1 0.285-0.285zM1.567 8.303h4.743c0.578 0 1.033 0.456 1.033 1.032v4.743c0 0.577-0.455 1.033-1.032 1.033H1.568a1.024 1.024 0 0 1-1.034-1.032V9.335c0-0.576 0.455-1.032 1.032-1.032z m18.459 9.61h2.865c0.29 0 0.52 0.226 0.52 0.518v2.865a0.512 0.512 0 0 1-0.52 0.519h-2.865a0.51 0.51 0 0 1-0.519-0.519v-2.864a0.51 0.51 0 0 1 0.519-0.518z"/></svg>