<svg fill="#13C100" role="img" viewBox="0 0 27 24" xmlns="http://www.w3.org/2000/svg"><title>OctoPrint</title><path d="M4.659 3.896C2.994 5.403 1.549 7.033 0.857 9.488c-0.696 2.466-0.642 5.589-0.159 8.116 0.483 2.527 1.229 4.506 2.055 6.396h14.458c-0.34-1.084-0.835-2.158-1.586-3.551-0.752-1.391-1.819-2.953-2.905-4.584-1.086-1.63-2.178-3.376-2.031-4.906 0.103-1.083 0.538-2.168 1.637-3.028 1.273-0.997 2.511-1.577 3.679-1.75 3.648-0.544 7.046 0.659 9.791 3.693 0.316 0.347 0.395 0.796 0.598 1.236l0.182-0.716c0.165-0.646 0.097-1.491-0.166-2.602-0.267-1.129-0.618-1.966-1.602-3.261-0.98-1.29-2.707-2.547-4.915-3.539-1.646-0.738-3.626-1.097-6.361-0.965-2.767 0.136-6.027 1.291-8.873 3.869Z"/></svg>