<svg fill="#DB6A26" role="img" viewBox="0 0 18 24" xmlns="http://www.w3.org/2000/svg"><title>October CMS</title><path d="M17.948 11.496C17.572 5.365 10.893 0.06 8.142 0 5.39-0.059 0.246 6.435 0.039 13.033-0.157 19.219 5.123 23.462 7.396 24c0.063-2.91 0.296-13.627 0.335-14.877 0.082-2.553 0.207-6.527 0.634-6.659 0.244-0.076 0.578 2.158 0.537 3.478-0.008 0.252-0.011 1.068-0.011 2.226 0.46-0.469 0.94-0.955 1.233-1.242 0.8-0.787 1.155-0.693 0.77 0.009-0.236 0.432-1.253 1.868-2.001 2.909 0.004 2.099 0.013 4.74 0.023 7.202 1.057-1.237 2.35-2.72 3.03-3.378 1.425-1.382 1.576-1.207 0.903 0.243-0.413 0.888-2.434 3.258-3.925 5.127 0.009 2.185 0.016 4.021 0.018 4.898 4-0.88 9.373-6.42 9.006-12.44"/></svg>