<svg fill="#1C1E20" role="img" viewBox="0 0 40 24" xmlns="http://www.w3.org/2000/svg"><title>Oculus</title><path d="M30.16 15.225c-0.528 0.366-1.118 0.588-1.751 0.689s-1.26 0.081-1.891 0.082H13.48c-0.633 0-1.262 0.023-1.896-0.082-0.631-0.104-1.216-0.323-1.751-0.689-1.065-0.747-1.701-1.938-1.7-3.231 0-1.318 0.641-2.509 1.704-3.229 0.52-0.373 1.116-0.595 1.737-0.695s1.242-0.101 1.89-0.101h13.041c0.621 0 1.267-0.023 1.888 0.076s1.217 0.321 1.74 0.671c1.068 0.719 1.689 1.938 1.69 3.227 0 1.292-0.648 2.484-1.714 3.229l0.051 0.053z m5.256-12.511c-1.399-1.123-3.001-1.898-4.744-2.315-0.994-0.242-1.992-0.349-3.018-0.381-0.744-0.025-1.489-0.017-2.259-0.017H14.634c-0.757 0-1.515-0.008-2.272 0.017-1.023 0.035-2.024 0.137-3.022 0.381-1.741 0.421-3.354 1.197-4.745 2.318C1.767 4.978 0.127 8.388 0.127 11.998c0 3.614 1.639 7.023 4.453 9.284 1.401 1.123 3.006 1.898 4.745 2.318 0.999 0.242 1.997 0.349 3.019 0.379 0.745 0.026 1.49 0.02 2.261 0.02h10.757c0.744 0 1.514 0.007 2.259-0.02 1.018-0.03 2.012-0.136 3.004-0.379 1.739-0.424 3.33-1.197 4.747-2.322C38.233 19.019 39.873 15.608 39.873 11.998c0-3.612-1.639-7.023-4.457-9.284z"/></svg>