<svg fill="#714B67" role="img" viewBox="0 0 76 24" xmlns="http://www.w3.org/2000/svg"><title>Odoo</title><path d="M66.77 24c-5.063 0-9.167-4.104-9.168-9.168s4.104-9.167 9.168-9.167c5.063 0 9.168 4.104 9.167 9.167 0 5.058-4.103 9.168-9.167 9.168z m0-3.794c2.968 0.002 5.375-2.403 5.377-5.371 0.001-2.968-2.403-5.375-5.372-5.377h-0.005c-2.968 0.001-5.373 2.409-5.372 5.377 0.002 2.966 2.406 5.37 5.372 5.371z m-19.176 3.794c-5.063 0-9.167-4.104-9.167-9.168s4.104-9.167 9.167-9.167c5.063 0 9.168 4.104 9.168 9.167 0 5.058-4.11 9.168-9.168 9.168z m0-3.794c2.968 0.002 5.375-2.403 5.377-5.371 0.002-2.968-2.403-5.375-5.371-5.377h-0.006c-2.968 0.001-5.373 2.409-5.371 5.377 0.002 2.966 2.406 5.37 5.371 5.371zM37.573 14.712c0 5.121-4.103 9.288-9.161 9.288s-9.168-4.154-9.167-9.281 3.73-9.041 9.167-9.041c2.01 0 3.869 0.424 5.374 1.53v-5.311a1.897 1.897 0 0 1 3.794 0v12.815h-0.006z m-9.161 5.501c2.968 0.002 5.375-2.403 5.377-5.371 0.002-2.968-2.403-5.375-5.371-5.377h-0.006c-2.968 0.001-5.373 2.409-5.371 5.377 0.001 2.966 2.405 5.37 5.371 5.371z m-19.182 3.787C4.167 24 0.063 19.895 0.063 14.832s4.104-9.167 9.167-9.167 9.167 4.104 9.168 9.167c0 5.058-4.11 9.168-9.168 9.168z m0-3.794c2.968 0.002 5.375-2.403 5.377-5.371 0.002-2.968-2.403-5.375-5.371-5.376h-0.006c-2.968 0.001-5.373 2.409-5.371 5.376 0.001 2.966 2.405 5.37 5.371 5.372z"/></svg>