<svg fill="#FF3900" role="img" viewBox="0 0 47 24" xmlns="http://www.w3.org/2000/svg"><title>Oh Dear</title><path d="M21.207 6.857c4.888 0 8.865 3.845 8.864 8.572 0 4.726-3.977 8.571-8.864 8.571-4.27 0-7.844-2.934-8.68-6.827h-12.17v-3.466h12.164c0.827-3.904 4.407-6.85 8.686-6.85z m14.138-6.857v7.476c1.159-0.741 2.572-1.13 4.126-1.13 3.309 0 7.172 2.222 7.172 8.485v8.598h-3.559v-8.598c0-1.974-0.483-3.387-1.434-4.202-0.75-0.642-1.629-0.776-2.236-0.777-1.856 0-4.07 0.863-4.07 4.979v8.598h-3.558v-23.429z m-14.138 10.364c-2.889 0-5.238 2.272-5.238 5.065s2.349 5.064 5.238 5.064c2.888 0 5.237-2.272 5.237-5.064s-2.349-5.064-5.237-5.065z"/></svg>