<svg fill="#0500BE" role="img" viewBox="0 0 44 24" xmlns="http://www.w3.org/2000/svg"><title>okcupid</title><path d="M20.716 0c-2.982 0-4.698 1.595-5.097 4.739l-0.191 1.448a0.495 0.495 0 0 1-0.688 0.392c-1.206-0.529-2.65-0.81-4.316-0.81C4.426 5.769 0.393 9.828 0.393 15.863 0.393 20.881 3.522 23.883 8.766 23.883c2.184 0 4.096-0.486 5.657-1.379a0.483 0.483 0 0 1 0.582 0.081c0.814 0.792 1.995 1.239 3.432 1.239 1.332 0 2.307-0.13 3.064-0.411l0.881-0.324a0.504 0.504 0 0 1 0.446 0.054c0.668 0.421 1.512 0.681 2.622 0.681 2.049 0 3.47-0.393 4.455-0.964a0.495 0.495 0 0 1 0.489-0.009c0.342 0.182 0.709 0.339 1.099 0.476 1.122 0.439 2.44 0.673 3.957 0.673 6.545 0 7.887-3.225 7.887-5.11 0-0.927-0.229-1.873-0.852-2.584-0.018-0.023-0.049-0.041-0.068-0.072-0.697-0.971-2.065-0.628-2.384-1.262-0.162-0.326-0.029-0.889 1.062-0.839 1.963 0.09 2.512-2.519 2.512-3.911 0-1.718-0.808-4.602-6.221-4.602-2.06 0-3.873 0.445-5.389 1.255-0.144 0.07-0.292 0.137-0.434 0.209a0.483 0.483 0 0 1-0.537-0.062c-0.783-0.682-2.008-1.19-3.92-1.19-0.405 0-0.778 0.022-1.125 0.07a0.495 0.495 0 0 1-0.562-0.558l0.213-1.599 0.174-1.309a0.499 0.499 0 0 0-0.19-0.463l-1.048-0.804c-1.323-1.014-2.982-1.167-3.854-1.167z m0.024 2.782c0.828 0 1.657 0.207 2.16 0.594l-1.392 10.415c3.522-4.883 3.846-5.178 5.622-5.179 1.865 0 2.515 0.533 2.515 1.597 0 0.621-0.176 1.035-0.473 1.362-0.443-0.029-0.888-0.029-1.243-0.029-0.621 0-0.976 0.148-2.722 2.544L27.222 17.725c0.148 0.238 0.295 0.445 0.621 0.445 0.266 0 0.711-0.031 1.066-0.119 0.295 0.207 0.414 0.623 0.414 1.006 0 1.39-1.392 1.982-3.848 1.983-1.152 0-1.567-0.414-2.189-1.747L21.301 15.24l-0.74 5.564c-0.562 0.207-1.478 0.236-2.101 0.236-1.302 0-1.892-0.531-1.892-1.657 0-0.326 0.058-0.888 0.176-1.687l1.657-12.604c0.238-1.865 0.859-2.31 2.339-2.31z m-10.293 5.769c4.291 0 5.8 2.132 5.8 5.299 0 4.469-2.722 7.249-7.456 7.249-3.374 0-5.594-1.48-5.595-5.238 0-4.379 2.665-7.31 7.251-7.31z m26.501 0.031c2.811 0 3.491 0.859 3.492 1.982 0 0.621-0.207 0.978-0.593 1.273-0.679-0.207-1.39-0.324-2.484-0.324-2.132 0-3.344 1.242-3.344 3.905 0 1.952 0.591 2.663 2.159 2.663 0.888 0 1.923-0.209 3.048-0.621 0.414 0.207 0.621 0.798 0.621 1.243 0 1.509-1.361 2.397-4.705 2.396-3.58 0-5.504-1.449-5.504-5.209 0-4.674 2.841-7.309 7.31-7.308zM10.21 11.423c-1.804 0-2.809 1.835-2.809 4.291 0 1.775 0.502 2.575 1.952 2.575 1.626 0 2.87-1.57 2.87-4.262 0-1.745-0.474-2.604-2.011-2.604z"/></svg>