<svg fill="#444444" role="img" viewBox="0 0 26 24" xmlns="http://www.w3.org/2000/svg"><title>ONLYOFFICE</title><path d="M11.376 11.702L0.684 6.758c-0.911-0.432-0.911-1.098 0-1.491l10.692-4.943c0.911-0.432 2.377-0.432 3.248 0l10.692 4.943c0.911 0.431 0.911 1.098 0 1.491l-10.692 4.943c-0.911 0.392-2.377 0.392-3.248 0z m0 5.923l-10.692-4.943c-0.911-0.432-0.911-1.098 0-1.49l3.643-1.688 7.049 3.256c0.911 0.431 2.377 0.431 3.248 0l7.049-3.256 3.643 1.688c0.911 0.431 0.911 1.098 0 1.49l-10.692 4.943c-0.911 0.431-2.377 0.431-3.248 0z m0 0l-10.692-4.943c-0.911-0.432-0.911-1.098 0-1.49l3.643-1.688 7.049 3.256c0.911 0.431 2.377 0.431 3.248 0l7.049-3.256 3.643 1.688c0.911 0.431 0.911 1.098 0 1.49l-10.692 4.943c-0.911 0.431-2.377 0.431-3.248 0z m0 6.081l-10.692-4.943c-0.911-0.431-0.911-1.098 0-1.491l3.722-1.725 6.931 3.217c0.91 0.431 2.376 0.431 3.247 0l6.931-3.217 3.722 1.725c0.911 0.432 0.911 1.098 0 1.491l-10.692 4.943c-0.832 0.392-2.297 0.392-3.169 0z"/></svg>