<svg fill="#00AFF0" role="img" viewBox="0 0 37 24" xmlns="http://www.w3.org/2000/svg"><title>OnlyFans</title><path d="M36.506 0h-6.025c-5.177 0-7.953 0.296-10.125 2.936a11.998 11.998 0 1 0 3.156 13.822c4.775-0.347 8.088-3.202 9.13-7.763 0 0-3.6 0.878-6.647 0 6.029-1.166 9.503-4.557 10.511-8.995zM8.912 11.998A3.588 3.588 0 0 1 14.419 8.953a4.45 4.45 0 0 1 4.498-3.793h0.012c-1.38 2.668-2.111 5.03-2.998 7.897A3.589 3.589 0 0 1 8.912 11.999Zm3.58-11.998a11.998 11.998 0 1 0 11.998 11.998 11.998 11.998 0 0 0-11.998-11.998Zm0 15.596A3.6 3.6 0 1 1 16.092 11.999a3.595 3.595 0 0 1-3.6 3.599Z"/></svg>