<svg fill="#005CED" role="img" viewBox="0 0 25 24" xmlns="http://www.w3.org/2000/svg"><title>ONNX</title><path d="M23.817 11.278c-0.052 0-0.103 0-0.155 0.013l-4.125-7.63c0.077-0.142 0.116-0.296 0.116-0.464 0-0.554-0.451-0.992-0.992-0.993-0.284 0-0.541 0.116-0.722 0.309L9.716 0.876C9.664 0.387 9.239 0 8.723 0c-0.541 0-0.992 0.451-0.992 0.992 0 0.168 0.039 0.322 0.116 0.465l-6.406 9.19c-0.077-0.026-0.168-0.039-0.258-0.039-0.554 0-0.992 0.451-0.992 0.992 0 0.554 0.451 0.992 0.992 0.993h0.039l3.454 8.546c-0.052 0.129-0.09 0.271-0.09 0.412 0 0.554 0.451 0.993 0.992 0.992 0.284 0 0.541-0.116 0.722-0.309l10.376 1.018c0.103 0.438 0.503 0.748 0.967 0.748 0.554 0 0.993-0.451 0.992-0.992 0-0.245-0.09-0.477-0.232-0.645l5.246-9.1c0.052 0.013 0.103 0.013 0.168 0.013 0.554 0 0.992-0.451 0.992-0.992 0-0.554-0.438-1.005-0.992-1.006zM17.862 3.815c0.116 0.155 0.284 0.271 0.464 0.335l-1.573 11.872c-0.103 0.026-0.193 0.052-0.283 0.103L7.834 8.623c0.026-0.077 0.039-0.168 0.039-0.258 0-0.064-0.013-0.129-0.013-0.193z m5.001 8.726l-5.311 3.648a1.133 1.133 0 0 0-0.128-0.077L19.009 4.137h0.013l4.047 7.476c-0.155 0.18-0.245 0.4-0.245 0.658 0 0.103 0.013 0.193 0.039 0.27zM6.738 7.386c-0.477 0.077-0.851 0.49-0.85 0.979v0.065l-3.545 2.101 5.517-7.902z m0.361 1.959c0.129-0.026 0.258-0.09 0.361-0.168l8.572 7.45c-0.039 0.116-0.064 0.232-0.065 0.361v0.052l-9.551 3.944c-0.142-0.206-0.361-0.361-0.619-0.412z m9.126 8.326c0.129 0.142 0.309 0.258 0.515 0.297l0.477 4.15c-0.206 0.103-0.361 0.271-0.464 0.464l-10.066-0.979z m1.173 0.219c0.335-0.168 0.554-0.503 0.554-0.889 0-0.09-0.013-0.168-0.039-0.258l4.86-3.338-4.924 8.546z m0.258-14.719l-10.144 4.421-0.116-0.078 1.289-5.529h0.038c0.348 0 0.657-0.18 0.838-0.451l8.095 1.611zM2.175 11.6c0-0.065-0.013-0.129-0.013-0.193l4.009-2.359c0.077 0.077 0.168 0.155 0.271 0.206L5.14 20.456l-3.287-8.108c0.193-0.181 0.322-0.451 0.323-0.747Z"/></svg>