<svg fill="#F7FF14" role="img" viewBox="0 0 39 24" xmlns="http://www.w3.org/2000/svg"><title>Opel</title><path d="M19.97 0.009a12.04 12.04 0 0 0-11.844 8.08h0.917a11.178 11.178 0 0 1 10.463-7.253 11.172 11.172 0 0 1 11.172 11.175c0 0.187 0 0.378-0.016 0.566l0.86 0.095c0-0.216 0.016-0.441 0.017-0.645a12.04 12.04 0 0 0-11.569-12.018zM1.535 8.956L0.132 9.687l21.385 2.324 5.859-3.055H1.536z m5.943 2.393v0.662a12.04 12.04 0 0 0 23.399 3.939h-0.92a11.175 11.175 0 0 1-10.451 7.242 11.182 11.182 0 0 1-11.168-11.181v-0.568l-0.86-0.094z m9.995 0.668l-5.859 3.064h25.841l1.409-0.732v-0.009l-21.391-2.324z m21.391 2.324H38.868l-0.004-0.011v0.01z"/></svg>