<svg fill="#3DA639" role="img" viewBox="0 0 25 24" xmlns="http://www.w3.org/2000/svg"><title>Open Source Initiative</title><path d="M12.457 0A12.4 12.4 0 0 0 0.036 12.423c0 5.792 4.024 10.488 8.084 11.544 0.2 0.052 0.407-0.052 0.485-0.243l2.878-7.086a0.411 0.411 0 0 0-0.255-0.549C9.763 15.604 8.896 14.41 8.844 12.416c-0.025-1.899 1.558-3.583 3.699-3.581 2.006 0.003 3.614 1.695 3.613 3.587 0 1.003-0.211 1.752-0.597 2.324-0.385 0.573-0.958 0.988-1.761 1.287a0.411 0.411 0 0 0-0.239 0.535l2.789 7.17a0.411 0.411 0 0 0 0.483 0.25C20.979 22.942 24.964 18.297 24.964 12.422 24.964 5.564 19.359 0 12.457 0z m0 0.822c6.461 0 11.685 5.19 11.686 11.6 0 5.337-3.555 9.564-7.162 10.669L14.474 16.643c0.73-0.32 1.352-0.821 1.767-1.438 0.495-0.735 0.736-1.664 0.737-2.783 0-2.354-1.971-4.404-4.435-4.408-2.576-0.004-4.552 2.052-4.521 4.414 0.024 2.072 0.97 3.627 2.546 4.29L7.98 23.073C4.451 21.963 0.857 17.669 0.857 12.422A11.561 11.561 0 0 1 12.457 0.822z m11.028 20.928a1.07 1.07 0 0 0 0 2.138 1.07 1.07 0 0 0 0-2.138z m0 0.169c0.499 0 0.898 0.403 0.899 0.9a0.889 0.889 0 0 1-0.282 0.647l-0.178-0.355a0.88 0.88 0 0 0-0.116-0.185 0.273 0.273 0 0 0-0.118-0.087 0.313 0.313 0 0 0 0.176-0.122 0.37 0.37 0 0 0 0.064-0.218c0-0.135-0.039-0.236-0.118-0.303-0.079-0.066-0.199-0.099-0.359-0.099h-0.426v1.395h0.188v-0.59h0.208c0.075 0 0.133 0.016 0.176 0.047a0.499 0.499 0 0 1 0.134 0.187l0.178 0.356 0.163 0.001a0.912 0.912 0 0 1-0.589 0.225 0.898 0.898 0 0 1 0-1.799z m-0.27 0.334h0.238c0.091 0 0.161 0.019 0.208 0.061 0.046 0.042 0.069 0.103 0.068 0.184 0 0.082-0.023 0.145-0.069 0.187-0.046 0.042-0.115 0.062-0.208 0.062h-0.237z"/></svg>