<svg fill="#0081A5" role="img" viewBox="0 0 25 24" xmlns="http://www.w3.org/2000/svg"><title>OpenAI Gym</title><path d="M24.946 9.651V9.635c0-0.019-0.009-0.036-0.01-0.055-0.008-0.018-0.008-0.035-0.017-0.054 0-0.009-0.009-0.009-0.01-0.018a0.197 0.197 0 0 0-0.027-0.045v-0.01c-0.009-0.018-0.027-0.027-0.045-0.044l-0.009-0.01c-0.019-0.009-0.036-0.027-0.055-0.036l-3.858-2.223V2.686c0-0.019 0-0.046-0.008-0.063V2.603a0.129 0.129 0 0 0-0.018-0.054V2.541c-0.01-0.018-0.019-0.036-0.028-0.045 0-0.01-0.008-0.01-0.008-0.01a0.197 0.197 0 0 0-0.036-0.045c-0.019-0.008-0.027-0.027-0.046-0.035-0.008 0-0.008-0.01-0.018-0.01l-0.009-0.009L16.706 0.048a0.351 0.351 0 0 0-0.353 0l-3.858 2.222L8.648 0.048a0.351 0.351 0 0 0-0.352 0L4.265 2.378c-0.01 0-0.01 0.01-0.01 0.01-0.008 0-0.008 0.008-0.018 0.009-0.018 0.009-0.027 0.027-0.044 0.036a0.159 0.159 0 0 0-0.037 0.045l-0.009 0.009c-0.008 0.018-0.018 0.027-0.027 0.046v0.008c-0.009 0.019-0.009 0.036-0.018 0.054v0.018c0 0.018-0.009 0.045-0.009 0.063v4.455L0.227 9.362c-0.019 0.01-0.036 0.027-0.055 0.036l-0.009 0.01-0.045 0.044v0.011c-0.009 0.018-0.018 0.026-0.027 0.044 0 0.008-0.009 0.008-0.01 0.018a0.129 0.129 0 0 0-0.017 0.054C0.054 9.597 0.054 9.615 0.054 9.635v4.689a0.353 0.353 0 0 0 0.173 0.307l3.858 2.222v4.455a0.353 0.353 0 0 0 0.171 0.307l4.029 2.331c0.009 0.008 0.019 0.008 0.027 0.018 0 0 0.009 0 0.009 0.009 0.009 0 0.018 0.008 0.027 0.008 0.009 0 0.009 0 0.019 0.011 0.008 0 0.018 0 0.027 0.008h0.063a0.363 0.363 0 0 0 0.135-0.027c0.019-0.009 0.027-0.009 0.046-0.019l3.858-2.222 3.858 2.222c0.018 0.009 0.027 0.019 0.045 0.019a0.363 0.363 0 0 0 0.134 0.027h0.065c0.008 0 0.018 0 0.027-0.009 0.008 0 0.008 0 0.017-0.01 0.009 0 0.019-0.008 0.027-0.008 0.009 0 0.009 0 0.01-0.009 0.009 0 0.018-0.009 0.027-0.018l4.029-2.331a0.353 0.353 0 0 0 0.172-0.307V16.853l3.858-2.222a0.353 0.353 0 0 0 0.171-0.307V9.67c0.009-0.01 0.009-0.019 0.01-0.019zM12.676 20.991s-0.009 0-0.009-0.009c-0.009-0.008-0.018-0.008-0.036-0.018-0.008 0-0.018-0.009-0.027-0.009-0.009 0-0.018-0.009-0.037-0.009-0.008 0-0.027-0.008-0.036-0.009h-0.071c-0.009 0-0.027 0-0.037 0.009-0.009 0-0.018 0-0.036 0.01-0.009 0-0.018 0.008-0.027 0.008-0.009 0.009-0.018 0.009-0.036 0.018 0 0-0.009 0-0.01 0.009l-3.495 2.024v-3.84l3.677-2.123 3.676 2.123v3.84zM4.618 7.636c0.018-0.018 0.026-0.027 0.035-0.027 0.009-0.008 0.019-0.008 0.027-0.017l0.027-0.027c0.01-0.009 0.019-0.019 0.019-0.027 0.009-0.01 0.009-0.019 0.017-0.027 0.009-0.01 0.009-0.019 0.019-0.028 0.008-0.008 0.008-0.018 0.008-0.036 0-0.01 0.01-0.019 0.011-0.036 0-0.009 0-0.019 0.008-0.036V3.291L8.113 5.217v4.246L4.436 11.585 1.112 9.661z m7.878-4.543l3.676 2.123V9.054l-3.505-2.023s-0.009 0-0.009-0.01c-0.008-0.009-0.018-0.009-0.036-0.017-0.01 0-0.019-0.009-0.028-0.01-0.008 0-0.018-0.009-0.035-0.009-0.01 0-0.019-0.008-0.036-0.008h-0.073c-0.009 0-0.027 0-0.036 0.008-0.008 0-0.018 0-0.036 0.009-0.008 0-0.018 0.009-0.027 0.01-0.008 0.008-0.027 0.008-0.037 0.017 0 0-0.008 0-0.008 0.01L8.818 9.054v-3.837z m0 13.145L8.818 14.115V9.868l3.678-2.123 3.676 2.123v4.247z m-7.707-4.048l3.325-1.925v4.094c0 0.008 0 0.018 0.008 0.036 0 0.008 0.009 0.018 0.01 0.035 0 0.01 0.009 0.019 0.009 0.037 0.008 0.009 0.008 0.019 0.018 0.027 0.009 0.01 0.009 0.019 0.018 0.028 0.008 0.008 0.018 0.018 0.018 0.027l0.027 0.027c0.009 0.009 0.019 0.018 0.027 0.017 0.009 0.009 0.019 0.019 0.027 0.019l0.01 0.008 3.506 2.025-3.326 1.924-3.677-2.123z m11.745 6.379l-3.325-1.924 3.506-2.025 0.009-0.008c0.008-0.009 0.018-0.019 0.027-0.019 0.008-0.008 0.018-0.008 0.027-0.017l0.027-0.027c0.009-0.009 0.018-0.019 0.018-0.027 0.01-0.01 0.01-0.019 0.018-0.028 0.009-0.008 0.009-0.018 0.018-0.027 0.009-0.008 0.009-0.018 0.009-0.037 0-0.008 0.009-0.018 0.01-0.035 0-0.01 0-0.019 0.008-0.036v-4.094l3.325 1.925v4.246z m4.03-6.984l-3.678-2.123V5.217l3.325-1.925V7.384c0 0.008 0 0.018 0.009 0.035 0 0.01 0.009 0.019 0.01 0.037 0 0.009 0.008 0.019 0.008 0.036 0.01 0.009 0.01 0.019 0.019 0.027 0.008 0.009 0.008 0.019 0.017 0.027 0.009 0.01 0.019 0.019 0.019 0.027 0.008 0.01 0.018 0.019 0.027 0.028 0.008 0.008 0.018 0.018 0.027 0.018 0.009 0.009 0.018 0.018 0.027 0.017l0.009 0.011 3.506 2.022zM16.534 0.761l3.324 1.925-3.324 1.924-3.325-1.924z m-8.068 0l3.325 1.925L8.466 4.601 5.142 2.686zM0.76 10.275l3.324 1.925v3.839L0.76 14.115zM8.113 23.014l-3.324-1.924v-3.841l3.325 1.925z m12.098-1.915l-3.325 1.924v-3.839l3.325-1.925z m4.03-6.984l-3.325 1.924v-3.839l3.325-1.925Z"/></svg>