<svg fill="#721412" role="img" viewBox="0 0 109 24" xmlns="http://www.w3.org/2000/svg"><title>OpenSSL</title><path d="M9.262 18.908c-1.365 0-2.591-0.234-3.686-0.707-1.095-0.473-2.019-1.127-2.776-1.97-0.757-0.843-1.343-1.839-1.752-2.992C0.633 12.086 0.426 10.837 0.426 9.49c0-1.347 0.207-2.596 0.617-3.749 0.41-1.154 0.996-2.149 1.753-2.992C3.557 1.906 4.481 1.248 5.576 0.775c1.095-0.473 2.325-0.707 3.686-0.707 1.365 0 2.591 0.234 3.686 0.707 1.095 0.473 2.019 1.127 2.776 1.969 0.757 0.843 1.343 1.839 1.753 2.992 0.41 1.154 0.617 2.402 0.617 3.75 0 1.347-0.207 2.596-0.617 3.749-0.415 1.154-0.996 2.149-1.753 2.992-0.757 0.843-1.685 1.501-2.776 1.969C11.853 18.669 10.628 18.908 9.262 18.908zM9.262 16.912c1.059 0 1.996-0.189 2.803-0.568s1.492-0.897 2.046-1.555c0.554-0.658 0.973-1.437 1.248-2.347 0.279-0.91 0.415-1.893 0.415-2.956 0-1.059-0.14-2.046-0.415-2.957-0.279-0.91-0.694-1.694-1.248-2.361-0.554-0.667-1.239-1.185-2.046-1.563S10.326 2.041 9.262 2.041c-1.059 0-1.996 0.189-2.803 0.568-0.807 0.379-1.492 0.901-2.045 1.564-0.554 0.667-0.973 1.451-1.249 2.361-0.279 0.91-0.415 1.893-0.414 2.956 0 1.059 0.14 2.046 0.414 2.956 0.279 0.91 0.694 1.69 1.249 2.348 0.554 0.658 1.239 1.176 2.045 1.554C7.271 16.722 8.203 16.912 9.262 16.912zM20.501 5.475h2.046v1.843H22.596c0.487-0.671 1.068-1.199 1.744-1.577 0.671-0.379 1.492-0.568 2.451-0.568 0.825 0 1.582 0.158 2.272 0.469 0.689 0.311 1.28 0.757 1.766 1.338 0.487 0.581 0.87 1.302 1.149 2.159 0.279 0.861 0.415 1.825 0.415 2.902 0 1.045-0.131 1.992-0.392 2.838-0.261 0.852-0.635 1.573-1.122 2.172-0.487 0.599-1.086 1.054-1.794 1.375-0.707 0.32-1.501 0.478-2.375 0.477-0.892 0-1.667-0.144-2.325-0.428-0.658-0.284-1.253-0.784-1.793-1.491H22.547v7.016H20.501V5.475zM26.562 17.191c0.622 0 1.172-0.131 1.64-0.392 0.473-0.261 0.861-0.617 1.176-1.072 0.311-0.455 0.541-0.991 0.694-1.618 0.153-0.622 0.225-1.302 0.225-2.046 0-0.725-0.077-1.401-0.225-2.032-0.153-0.631-0.383-1.176-0.694-1.64-0.311-0.464-0.698-0.825-1.163-1.086-0.464-0.261-1.005-0.392-1.626-0.392-0.707 0-1.325 0.135-1.857 0.405-0.532 0.27-0.964 0.64-1.302 1.113-0.338 0.473-0.59 1.018-0.757 1.64-0.167 0.622-0.252 1.289-0.253 1.997 0 0.707 0.077 1.374 0.226 1.996 0.153 0.622 0.392 1.167 0.721 1.627 0.329 0.464 0.753 0.829 1.275 1.099C25.165 17.056 25.805 17.191 26.562 17.191zM40.247 18.881c-0.991 0-1.879-0.18-2.663-0.541-0.784-0.36-1.442-0.856-1.983-1.478-0.541-0.622-0.951-1.352-1.239-2.185-0.288-0.834-0.428-1.721-0.428-2.663 0-0.942 0.149-1.83 0.441-2.664 0.293-0.834 0.716-1.559 1.262-2.185 0.545-0.622 1.199-1.113 1.956-1.478 0.757-0.36 1.6-0.541 2.523-0.541 0.978 0 1.839 0.18 2.587 0.541 0.748 0.36 1.374 0.865 1.879 1.514 0.505 0.649 0.888 1.424 1.149 2.325 0.261 0.901 0.392 1.888 0.392 2.965H36.029c0.032 0.658 0.153 1.271 0.352 1.843 0.203 0.572 0.478 1.068 0.833 1.492 0.351 0.419 0.784 0.748 1.289 0.987 0.505 0.234 1.086 0.351 1.744 0.351 0.96 0 1.744-0.221 2.348-0.667 0.604-0.446 1.027-1.113 1.261-2.005h1.997c-0.302 1.415-0.942 2.501-1.92 3.258C42.955 18.502 41.725 18.881 40.247 18.881zM40.121 6.764c-0.604 0-1.145 0.104-1.618 0.315-0.473 0.212-0.87 0.505-1.199 0.883-0.329 0.379-0.599 0.825-0.806 1.339-0.212 0.514-0.351 1.063-0.415 1.654h7.854c-0.068-1.311-0.424-2.339-1.072-3.083C42.212 7.133 41.297 6.764 40.121 6.764zM50.535 7.192h0.049c0.473-0.622 1.041-1.113 1.703-1.478 0.667-0.36 1.478-0.541 2.438-0.541 1.365 0 2.438 0.356 3.218 1.073 0.784 0.716 1.176 1.753 1.176 3.118v9.165h-2.046v-8.989c0-0.861-0.261-1.514-0.784-1.97-0.523-0.455-1.244-0.68-2.172-0.68-0.523 0-1 0.09-1.438 0.266-0.437 0.176-0.816 0.419-1.135 0.734-0.32 0.311-0.568 0.689-0.744 1.136-0.176 0.446-0.266 0.937-0.265 1.478v8.03h-2.046v-13.054h2.046V7.192zM69.862 18.899c-2.474 0-4.38-0.523-5.728-1.564-1.347-1.041-2.055-2.528-2.118-4.456h3.605c0.135 1.1 0.523 1.884 1.167 2.347 0.644 0.464 1.618 0.698 2.92 0.699 0.473 0 0.924-0.041 1.348-0.126 0.424-0.086 0.798-0.221 1.117-0.406 0.32-0.185 0.581-0.428 0.775-0.725 0.194-0.297 0.293-0.658 0.293-1.082 0-0.442-0.108-0.802-0.315-1.09-0.212-0.288-0.514-0.527-0.901-0.726-0.388-0.194-0.861-0.365-1.411-0.509-0.55-0.144-1.172-0.293-1.865-0.446-0.811-0.185-1.595-0.392-2.348-0.622-0.753-0.23-1.415-0.536-1.983-0.928-0.568-0.388-1.023-0.888-1.37-1.496-0.347-0.608-0.523-1.388-0.522-2.335 0-0.897 0.171-1.685 0.522-2.361 0.347-0.676 0.829-1.244 1.447-1.703 0.617-0.455 1.352-0.802 2.194-1.028 0.847-0.23 1.775-0.342 2.794-0.342 2.046 0 3.695 0.482 4.939 1.446 1.244 0.964 1.933 2.37 2.068 4.214h-3.528c-0.104-0.915-0.473-1.6-1.118-2.055-0.644-0.455-1.437-0.685-2.388-0.685-1 0-1.793 0.194-2.388 0.586-0.595 0.388-0.888 0.906-0.888 1.55 0 0.374 0.081 0.68 0.243 0.928 0.162 0.248 0.406 0.46 0.735 0.649 0.329 0.185 0.739 0.347 1.23 0.482 0.491 0.135 1.072 0.279 1.753 0.433 0.933 0.203 1.807 0.428 2.627 0.671 0.82 0.248 1.541 0.572 2.159 0.978 0.617 0.406 1.104 0.924 1.46 1.55 0.356 0.626 0.532 1.433 0.531 2.411 0 0.915-0.176 1.73-0.531 2.451-0.356 0.721-0.847 1.32-1.474 1.803-0.626 0.482-1.37 0.852-2.235 1.104C71.817 18.768 70.88 18.899 69.862 18.899zM86.8 18.899c-2.474 0-4.38-0.523-5.727-1.564s-2.055-2.528-2.118-4.456h3.605c0.135 1.1 0.523 1.884 1.167 2.347 0.644 0.464 1.618 0.698 2.92 0.699 0.473 0 0.924-0.041 1.348-0.126 0.424-0.086 0.798-0.221 1.117-0.406 0.32-0.185 0.581-0.428 0.775-0.725 0.194-0.297 0.293-0.658 0.293-1.082 0-0.442-0.108-0.802-0.315-1.09-0.212-0.288-0.514-0.527-0.902-0.726-0.388-0.194-0.861-0.365-1.41-0.509-0.55-0.144-1.172-0.293-1.866-0.446-0.811-0.185-1.595-0.392-2.347-0.622-0.753-0.23-1.415-0.536-1.983-0.928-0.568-0.388-1.023-0.888-1.37-1.496-0.347-0.608-0.523-1.388-0.523-2.335 0-0.897 0.171-1.685 0.523-2.361 0.347-0.676 0.829-1.244 1.447-1.703 0.617-0.455 1.352-0.802 2.194-1.028 0.847-0.23 1.775-0.342 2.794-0.342 2.046 0 3.695 0.482 4.939 1.446 1.244 0.964 1.933 2.37 2.068 4.214h-3.528c-0.104-0.915-0.473-1.6-1.118-2.055-0.644-0.455-1.437-0.685-2.388-0.685-1 0-1.793 0.194-2.388 0.586-0.595 0.388-0.888 0.906-0.888 1.55 0 0.374 0.081 0.68 0.243 0.928 0.162 0.248 0.406 0.46 0.735 0.649 0.329 0.185 0.739 0.347 1.23 0.482 0.491 0.135 1.072 0.279 1.753 0.433 0.933 0.203 1.807 0.428 2.627 0.671 0.82 0.248 1.541 0.572 2.158 0.978 0.617 0.406 1.104 0.924 1.46 1.55 0.356 0.626 0.532 1.433 0.532 2.411 0 0.915-0.176 1.73-0.532 2.451-0.356 0.721-0.847 1.32-1.473 1.803-0.626 0.482-1.37 0.852-2.235 1.104C88.756 18.768 87.814 18.899 86.8 18.899zM96.363 0.333h3.681v15.083H108.574v3.073h-12.211V0.333z"/></svg>