<svg fill="#5586A4" role="img" viewBox="0 0 55 24" xmlns="http://www.w3.org/2000/svg"><title>OpenGL</title><path d="M18.163 10.584v0.861h0.021a1.593 1.593 0 0 1 0.828-0.769c0.378-0.16 0.792-0.24 1.243-0.241 0.501 0 0.941 0.089 1.314 0.271 0.373 0.181 0.682 0.423 0.93 0.73a3.205 3.205 0 0 1 0.558 1.062c0.126 0.401 0.188 0.826 0.188 1.277 0 0.451-0.062 0.877-0.183 1.277a3.033 3.033 0 0 1-0.552 1.051 2.577 2.577 0 0 1-0.929 0.705 3.079 3.079 0 0 1-1.3 0.259 3.335 3.335 0 0 1-1.117-0.209 2.252 2.252 0 0 1-0.548-0.302 1.653 1.653 0 0 1-0.432-0.474h-0.021v3.278H17.085v-8.778h1.078z m3.825 2.257a2.312 2.312 0 0 0-0.364-0.755 1.785 1.785 0 0 0-0.627-0.529 1.943 1.943 0 0 0-0.897-0.197c-0.359 0-0.664 0.069-0.916 0.209a1.792 1.792 0 0 0-0.613 0.547 2.271 2.271 0 0 0-0.346 0.766 3.61 3.61 0 0 0 0.007 1.774 2.211 2.211 0 0 0 0.357 0.767 1.797 1.797 0 0 0 0.632 0.534c0.259 0.135 0.572 0.201 0.941 0.201 0.369 0 0.675-0.069 0.92-0.208a1.703 1.703 0 0 0 0.595-0.552c0.151-0.229 0.259-0.49 0.325-0.785 0.066-0.295 0.101-0.597 0.101-0.909a3.074 3.074 0 0 0-0.115-0.863z m6.755 3.688c-0.488 0.359-1.099 0.54-1.838 0.54a3.433 3.433 0 0 1-1.353-0.245 2.678 2.678 0 0 1-0.964-0.689 2.912 2.912 0 0 1-0.586-1.055 4.937 4.937 0 0 1-0.219-1.339c0-0.483 0.076-0.925 0.226-1.326 0.151-0.401 0.364-0.748 0.637-1.043a2.861 2.861 0 0 1 0.97-0.687c0.373-0.165 0.783-0.245 1.229-0.245 0.579 0 1.06 0.117 1.442 0.35 0.382 0.233 0.689 0.531 0.921 0.893 0.231 0.362 0.391 0.755 0.478 1.181 0.089 0.426 0.124 0.833 0.108 1.218h-4.869c-0.009 0.277 0.025 0.542 0.101 0.79a1.783 1.783 0 0 0 0.364 0.661 1.781 1.781 0 0 0 0.64 0.46c0.259 0.114 0.565 0.172 0.918 0.172a1.891 1.891 0 0 0 1.113-0.307 1.497 1.497 0 0 0 0.572-0.934h1.058c-0.146 0.71-0.46 1.245-0.948 1.605z m-0.261-4.075a1.813 1.813 0 0 0-1.701-1.091 1.893 1.893 0 0 0-0.746 0.141 1.687 1.687 0 0 0-0.57 0.387 1.854 1.854 0 0 0-0.375 0.57 2.12 2.12 0 0 0-0.163 0.692h3.727a2.129 2.129 0 0 0-0.172-0.699z m3.037-1.87v1.007h0.021c0.446-0.771 1.154-1.156 2.124-1.156 0.43 0 0.787 0.057 1.074 0.172 0.286 0.114 0.517 0.275 0.696 0.481 0.176 0.206 0.302 0.449 0.373 0.732s0.108 0.597 0.107 0.941v4.182h-1.078v-4.301a1.25 1.25 0 0 0-0.352-0.934 1.332 1.332 0 0 0-0.971-0.343 2.239 2.239 0 0 0-0.851 0.149 1.593 1.593 0 0 0-0.6 0.418 1.797 1.797 0 0 0-0.359 0.632 2.509 2.509 0 0 0-0.119 0.792v3.589h-1.079v-6.356h1.014z m11.844 6.288a3.823 3.823 0 0 1-1.474 0.3c-0.783 0-1.486-0.133-2.111-0.398a4.523 4.523 0 0 1-1.582-1.099 4.834 4.834 0 0 1-0.986-1.646c-0.229-0.629-0.343-1.309-0.343-2.037 0-0.746 0.114-1.44 0.343-2.081 0.229-0.639 0.556-1.197 0.984-1.673 0.428-0.476 0.955-0.849 1.58-1.122a5.265 5.265 0 0 1 2.11-0.405c0.524 0 1.032 0.078 1.522 0.231 0.492 0.156 0.934 0.382 1.33 0.68a3.662 3.662 0 0 1 1.451 2.619h-2.145c-0.133-0.559-0.391-0.977-0.773-1.259a2.289 2.289 0 0 0-1.387-0.419c-0.506 0-0.934 0.096-1.289 0.286s-0.639 0.449-0.858 0.772a3.305 3.305 0 0 0-0.479 1.098 5.326 5.326 0 0 0 0 2.5c0.101 0.396 0.261 0.753 0.481 1.071 0.22 0.318 0.506 0.572 0.858 0.762 0.353 0.192 0.783 0.286 1.289 0.286 0.744 0 1.321-0.183 1.726-0.551 0.405-0.366 0.643-0.9 0.709-1.598h-2.259v-1.641h4.285v5.397h-1.426l-0.229-1.133a3.296 3.296 0 0 1-1.327 1.06zM49.989 6.963v8.126H54.968v1.852h-7.22V6.963h2.241zM8.733 16.531c0.121 0.069 0.245 0.135 0.375 0.195 0.611 0.284 1.323 0.426 2.136 0.425 0.813 0 1.524-0.142 2.135-0.425s1.124-0.668 1.534-1.152c0.41-0.483 0.719-1.039 0.925-1.666 0.206-0.627 0.309-1.282 0.309-1.96 0-0.68-0.103-1.332-0.309-1.959a4.887 4.887 0 0 0-0.925-1.666 4.5 4.5 0 0 0-1.534-1.158 4.967 4.967 0 0 0-2.135-0.433c-0.813 0-1.524 0.144-2.136 0.433l-0.069 0.034c3.262-2.744 9.234-4.58 16.062-4.58 5.75 0 10.907 1.181 14.336 3.232-3.742-3.436-10.452-5.848-18.124-5.851C9.559-0.002 0.032 5.368 0.032 11.997c0 6.627 9.524 12.001 21.274 12.003 7.641 0.002 14.334-2.406 18.085-5.816-3.429 2.037-8.563 3.198-14.292 3.197-7.045-0.002-13.182-1.959-16.366-4.85z m0.904-8.327c0.449-0.238 0.984-0.357 1.607-0.357 0.623 0 1.158 0.119 1.607 0.357 0.449 0.238 0.817 0.552 1.105 0.943 0.286 0.391 0.497 0.831 0.632 1.321a5.562 5.562 0 0 1 0 2.975c-0.135 0.49-0.343 0.929-0.632 1.319a3.189 3.189 0 0 1-1.105 0.943c-0.451 0.238-0.984 0.355-1.607 0.355a3.411 3.411 0 0 1-1.607-0.355 3.209 3.209 0 0 1-1.106-0.943 4.04 4.04 0 0 1-0.632-1.319 5.562 5.562 0 0 1 0-2.975 3.983 3.983 0 0 1 0.632-1.321c0.286-0.391 0.655-0.705 1.106-0.943z"/></svg>