<svg fill="#000000" role="img" viewBox="0 0 121 24" xmlns="http://www.w3.org/2000/svg"><title>OpenText</title><path d="M17.226 11.035c0 3.961-2.358 8.249-8.566 8.249-4.505 0-8.626-2.469-8.626-8.249 0-4.767 3.104-8.465 9.211-8.143 6.535 0.373 7.982 5.301 7.981 8.143z m-11.624-3.003c-0.59 0.857-0.801 1.93-0.801 3.003 0 2.409 1.229 4.606 3.854 4.606 2.57 0 3.804-2.036 3.805-4.394 0-1.713-0.428-2.998-1.341-3.8a3.663 3.663 0 0 0-2.786-0.856c-1.285 0.05-2.086 0.479-2.731 1.441z m53.563-3.376c0.479-0.479 0.746-0.857 1.602-1.23 0.751-0.317 1.764-0.534 2.948-0.534 0.962 0 2.036 0.161 2.837 0.59 1.663 0.857 2.142 2.247 2.141 4.711v10.713h-4.767v-8.838c0-1.391-0.05-1.925-0.211-2.354-0.378-0.857-1.179-1.179-2.142-1.179-2.469 0-2.469 1.925-2.469 3.911v8.465h-4.711v-15.646h4.767v1.396z m-7.019 10.178c-0.428 0.912-1.819 4.449-7.982 4.45-4.767 0-8.087-2.842-8.087-7.982 0-3.749 1.93-8.41 8.248-8.41 0.962 0 3.693-0.106 5.785 2.036 2.091 2.197 2.197 5.25 2.247 7.014H40.849c0 1.93 1.124 3.91 3.698 3.91s3.477-1.663 4.066-2.731l3.538 1.713z m-4.712-5.784c-0.111-0.64-0.217-1.552-0.912-2.192a3.326 3.326 0 0 0-2.302-0.857 3.376 3.376 0 0 0-2.409 1.018c-0.645 0.695-0.806 1.391-0.968 2.086l6.591-0.05z m70.428-2.52H120.966v-3.209h-3.104V0.005h-4.716v3.265H112.4l-2.141 3.215h2.892v7.447c0 1.497 0.05 2.62 0.695 3.533 1.018 1.446 2.786 1.552 4.45 1.552 0.857 0 1.497-0.101 2.458-0.267v-3.588l-1.657 0.05c-1.285 0-1.285-0.801-1.23-1.763v-6.909zM70.946 0.005h4.711v3.265h4.872l-2.141 3.215h-2.787v6.964c-0.05 0.962-0.05 1.764 1.235 1.763l1.663-0.05v3.588c-1.023 0.161-1.612 0.267-2.469 0.267-1.602 0-3.426-0.101-4.445-1.552-0.64-0.907-0.695-2.036-0.695-3.533V0h0.05z m24.367 14.834l-0.907 1.341c-0.862 1.179-2.419 3.054-6.968 3.053-4.767 0-7.926-2.837-7.926-7.981 0-3.749 1.93-8.41 8.248-8.41 0.962 0 3.693-0.101 5.785 2.036 2.091 2.197 2.197 5.25 2.247 7.019H84.334c-0.05 1.925 0.962 3.91 3.477 3.91 2.57 0 3.326-1.663 3.915-2.731l3.587 1.763z m-4.394-5.784c-0.106-0.64-0.212-1.552-0.907-2.192a3.326 3.326 0 0 0-2.307-0.857 3.376 3.376 0 0 0-2.409 1.018c-0.64 0.695-0.806 1.391-0.962 2.086l6.585-0.05z m20.514 9.856l-5.896-8.193 4.878-7.392h-5.357l-2.302 3.481-2.52-3.476h-5.351l5.301 7.387-5.462 8.193h5.356l2.837-4.334 3.109 4.334h5.407z m-87.727-14.245c0.428-0.695 1.874-1.764 4.178-1.764 3.91 0 6.697 2.887 6.696 8.083 0 3.215-1.179 8.249-6.913 8.248-2.031 0-3.638-1.124-4.016-1.763v6.53h-4.711v-20.73h4.766v1.396z m3.215 1.819c-0.857 0-1.769 0.322-2.413 1.179-0.695 0.806-0.957 2.036-0.958 3.426 0 1.824 0.529 2.948 1.119 3.588a2.963 2.963 0 0 0 2.141 0.968c2.303 0 3.326-2.358 3.326-4.661 0-1.93-0.59-3.961-2.519-4.394-0.267-0.05-0.484-0.101-0.696-0.101z"/></svg>