<svg fill="#412991" role="img" viewBox="0 0 24 24" xmlns="http://www.w3.org/2000/svg"><title>OpenAI</title><path d="M22.282 9.821a5.985 5.985 0 0 0-0.516-4.911 6.046 6.046 0 0 0-6.51-2.9A6.065 6.065 0 0 0 4.981 4.182a5.985 5.985 0 0 0-3.998 2.9 6.046 6.046 0 0 0 0.743 7.097 5.98 5.98 0 0 0 0.511 4.91 6.051 6.051 0 0 0 6.514 2.9A5.985 5.985 0 0 0 13.26 24a6.056 6.056 0 0 0 5.772-4.206 5.989 5.989 0 0 0 3.997-2.9 6.056 6.056 0 0 0-0.747-7.073z m-9.022 12.608a4.476 4.476 0 0 1-2.876-1.04l0.141-0.081 4.779-2.758a0.795 0.795 0 0 0 0.392-0.681v-6.737l2.02 1.168a0.071 0.071 0 0 1 0.038 0.052v5.583a4.504 4.504 0 0 1-4.494 4.494z m-9.661-4.125a4.471 4.471 0 0 1-0.534-3.014l0.142 0.085 4.783 2.759a0.771 0.771 0 0 0 0.78 0l5.843-3.369v2.333a0.08 0.08 0 0 1-0.033 0.061L9.74 19.95a4.499 4.499 0 0 1-6.141-1.646zM2.341 7.896a4.485 4.485 0 0 1 2.365-1.973V11.6a0.766 0.766 0 0 0 0.388 0.677l5.815 3.354-2.02 1.168a0.076 0.076 0 0 1-0.071 0l-4.831-2.786A4.504 4.504 0 0 1 2.341 7.872z m16.596 3.856L13.104 8.364 15.119 7.2a0.076 0.076 0 0 1 0.071 0l4.831 2.791a4.494 4.494 0 0 1-0.677 8.105v-5.678a0.79 0.79 0 0 0-0.407-0.667z m2.011-3.024l-0.142-0.085-4.774-2.782a0.776 0.776 0 0 0-0.785 0L9.409 9.23V6.898a0.066 0.066 0 0 1 0.028-0.062l4.831-2.787a4.499 4.499 0 0 1 6.68 4.66zM8.307 12.863l-2.02-1.164a0.08 0.08 0 0 1-0.038-0.056V6.074a4.499 4.499 0 0 1 7.375-3.453l-0.142 0.08L8.704 5.459a0.795 0.795 0 0 0-0.393 0.681z m1.097-2.365l2.602-1.5 2.607 1.5v2.999l-2.597 1.5-2.607-1.5Z"/></svg>