<svg fill="#0099B0" role="img" viewBox="0 0 27 24" xmlns="http://www.w3.org/2000/svg"><title>Open Source Hardware</title><path d="M26.688 11.472c0.079 0.014 0.144 0.093 0.144 0.175v3.369a0.184 0.184 0 0 1-0.144 0.175l-3.194 0.594a0.27 0.27 0 0 0-0.189 0.168l-0.998 2.491a0.28 0.28 0 0 0 0.019 0.254l1.814 2.643a0.186 0.186 0 0 1-0.022 0.227l-2.382 2.382a0.186 0.186 0 0 1-0.226 0.021l-2.597-1.782a0.256 0.256 0 0 0-0.249-0.009l-1.144 0.611a0.134 0.134 0 0 1-0.189-0.069l-2.361-5.705a0.179 0.179 0 0 1 0.069-0.213l0.286-0.175c0.053-0.033 0.126-0.089 0.181-0.139a3.726 3.726 0 1 0-4.012 0c0.056 0.051 0.128 0.107 0.181 0.139l0.286 0.175a0.178 0.178 0 0 1 0.069 0.213L9.669 22.721a0.134 0.134 0 0 1-0.189 0.07l-1.144-0.611a0.256 0.256 0 0 0-0.249 0.008L5.49 23.971a0.187 0.187 0 0 1-0.227-0.021l-2.383-2.382a0.186 0.186 0 0 1-0.021-0.227l1.814-2.644a0.279 0.279 0 0 0 0.019-0.253l-0.997-2.491a0.271 0.271 0 0 0-0.189-0.167L0.312 15.19a0.184 0.184 0 0 1-0.144-0.175v-3.368c0-0.081 0.066-0.16 0.144-0.175l3.274-0.609a0.281 0.281 0 0 0 0.195-0.166l1.003-2.342a0.273 0.273 0 0 0-0.015-0.252L2.861 5.322a0.186 0.186 0 0 1 0.021-0.226L5.264 2.712a0.184 0.184 0 0 1 0.227-0.021L8.319 4.634c0.067 0.046 0.181 0.053 0.255 0.018l2.27-0.929c0.078-0.026 0.152-0.111 0.166-0.192l0.63-3.385a0.186 0.186 0 0 1 0.175-0.146h3.37c0.081 0 0.159 0.066 0.175 0.144l0.63 3.387a0.278 0.278 0 0 0 0.166 0.192l2.27 0.929a0.28 0.28 0 0 0 0.256-0.018l2.828-1.942a0.184 0.184 0 0 1 0.226 0.022l2.382 2.382c0.058 0.057 0.067 0.159 0.022 0.226l-1.909 2.781a0.272 0.272 0 0 0-0.015 0.252l1.003 2.342a0.284 0.284 0 0 0 0.195 0.166l3.273 0.609"/></svg>