<svg fill="#F2CA30" role="img" viewBox="0 0 28 24" xmlns="http://www.w3.org/2000/svg"><title>OpenBSD</title><path d="M15.966 0c-0.234 0.545-0.169 1.183-0.34 1.75-0.039 0.13-0.169 0.524-0.357 0.498-0.386-0.056-0.186-0.798-0.632-0.812l0.139 1.083c-0.669 0.085-0.578-0.961-0.85-1.386-0.313-0.491-0.389 0.223-0.368 0.441 0.013 0.141 0.042 0.281 0.058 0.421 0.03 0.244 0.037 0.456 0.006 0.699-0.64-0.008-0.406-0.85-0.874-0.979l0.034 1.014c-0.71-0.006-1.032-0.646-1.344-1.189-0.13-0.227-0.303-0.666-0.614-0.525 0.146 0.631 0.491 1.234 0.526 1.89 0.008 0.168-0.151 0.598-0.386 0.52-0.544-0.183-0.471-1.169-0.923-1.428-0.093-0.052-0.237-0.007-0.337-0.002 0 0.522 0.23 1.155 0.413 1.644 0.039 0.104 0.15 0.476-0.08 0.468-0.409-0.012-0.511-0.806-0.927-0.714 0.051 0.215 0.177 0.389 0.249 0.595 0.043 0.126 0.123 0.254 0.146 0.385 0.051 0.286-0.312 0.31-0.501 0.256-0.445-0.132-0.765-0.496-1.084-0.816-0.088-0.088-0.321-0.399-0.469-0.257-0.164 0.157 0.158 0.433 0.249 0.538 0.271 0.314 0.566 0.683 0.696 1.084 0.057 0.172 0.067 0.418-0.104 0.536-0.169 0.116-0.445-0.096-0.582-0.185-0.42-0.277-0.836-0.758-1.364-0.771l-0.124 0.315 0.336 0.454 0.872 0.98-1.015-0.419c0.041 0.266 0.676 0.587 0.551 0.86-0.074 0.162-0.441 0.165-0.585 0.144-0.517-0.074-0.884-0.459-1.365-0.597-0.424-0.122-0.346 0.209-0.105 0.397 0.084 0.066 0.164 0.136 0.245 0.206 0.145 0.125 0.284 0.254 0.42 0.389 0.212 0.212 0.398 0.438 0.595 0.665l-1.015-0.035v0.07l0.98 0.454-0.175 0.7c-0.283 0-0.513-0.078-0.77-0.189-0.175-0.077-0.36-0.203-0.559-0.189-0.239 0.016-0.38 0.234-0.221 0.437 0.239 0.305 0.719 0.478 1.024 0.715 0.116 0.09 0.286 0.246 0.155 0.401-0.261 0.306-0.965-0.086-1.309 0.015v0.069c0.319 0.187 0.973 0.293 1.16 0.637 0.148 0.268-0.269 0.877-0.565 0.853-0.263-0.022-0.506-0.319-0.699-0.475-0.465-0.373-0.963-0.812-1.505-1.07-0.929-0.441-1.852 0.262-2.589 0.721 0.094 0.297 0.466-0.02 0.699 0.034 0.314 0.071 0.553 0.363 0.755 0.594 0.974 1.123 1.79 2.394 2.154 3.85 0.096 0.383 0.26 0.841-0.027 1.184-0.077 0.093-0.191 0.104-0.276 0.18-0.064 0.058-0.06 0.137 0.027 0.163 0.16 0.05 0.394-0.024 0.551-0.063 0.514-0.124 1.101-0.401 1.334-0.904 0.145-0.314 0.196-0.924 0.556-1.05 0.079 0.336 0.457 0.781 0.421 1.119-0.034 0.3-0.35 0.649-0.534 0.871-0.066 0.079-0.224 0.252-0.13 0.366 0.095 0.112 0.29-0.13 0.348-0.186 0.266-0.251 0.847-0.647 1.003-0.072 0.137 0.501-0.303 1.311-0.522 1.75-0.063 0.122-0.344 0.504-0.234 0.642 0.128 0.157 0.392-0.253 0.449-0.327 0.22-0.289 0.993-1.145 1.403-0.838 0.5 0.376 0.327 0.644 0.138 1.153-0.053 0.143-0.251 0.502-0.116 0.638 0.129 0.132 0.299 0.012 0.365-0.114 0.121-0.228 0.444-0.905 0.767-0.732 0.203 0.108 0.511 0.291 0.63 0.493 0.183 0.315 0.023 0.945-0.026 1.289-0.028 0.197-0.24 0.814-0.064 0.957 0.162 0.131 0.295-0.264 0.344-0.362 0.173-0.342 0.371-0.692 0.626-0.98 0.093-0.103 0.223-0.275 0.379-0.246 0.812 0.152-0.017 0.961 0.317 1.374 0.067 0.084 0.249 0.078 0.348 0.097l0.42-1.085c0.213 0.081 0.528 0.11 0.685 0.288 0.132 0.148 0.159 0.399 0.197 0.587 0.107 0.527 0.165 1.039 0.097 1.573 0.066 0.049 0.172 0.16 0.261 0.102 0.112-0.072 0.128-0.365 0.166-0.487 0.123-0.385 0.312-0.754 0.487-1.119 0.115-0.24 0.429-0.495 0.656-0.164 0.232 0.339 0.139 0.932 0.285 1.319 0.371-0.183 0.412-0.957 0.42-1.33l0.481 0.071 0.29 0.595 0.522 1.504c0.271-0.104 0.186-0.624 0.217-0.874 0.041-0.34 0.119-1.023 0.369-1.276 0.1-0.101 0.299-0.11 0.429-0.159 0.15 0.362 0.231 0.772 0.41 1.119 0.07 0.135 0.23 0.281 0.391 0.197 0.154-0.079 0.148-0.26 0.129-0.406-0.049-0.363-0.131-0.719-0.16-1.085 0.694-0.049 1.102 0.511 1.536 0.98 0.168 0.18 0.314 0.42 0.563 0.489l-0.36-1.049-0.199-0.98c0.252-0.104 0.784-0.619 1.05-0.545 0.394 0.112 0.696 1.213 1.186 0.954 0.209-0.11 0.102-0.298 0.003-0.444-0.146-0.218-0.587-0.741-0.539-1.014 0.035-0.203 0.376-0.44 0.573-0.437 0.453 0.007 1.242 0.353 1.504 0.717l0.316-0.035c-0.046-0.626-0.986-0.913-1.121-1.54a0.469 0.469 0 0 1 0.005-0.2c0.1-0.402 0.341-0.226 0.592-0.118 0.078 0.034 0.247 0.119 0.311 0.023 0.07-0.106-0.056-0.246-0.1-0.335-0.095-0.181-0.181-0.391-0.142-0.595 0.327 0.086 0.528 0.281 0.805 0.464 0.065 0.044 0.209 0.152 0.291 0.093 0.087-0.065-0.042-0.194-0.082-0.241-0.123-0.143-0.501-0.487-0.464-0.696 0.026-0.141 0.263-0.292 0.359-0.389 0.32-0.32 0.684-0.645 0.946-1.015h0.034c0.617 0.72 2.555 0.216 2.308-0.874-0.153 0.022-0.297 0.143-0.454 0.089-0.689-0.238-0.522-1.342-1.295-1.349-0.057-0.719-0.346-1.438-0.694-2.064-0.16-0.286-0.492-0.549-0.609-0.841-0.064-0.162-0.053-0.418-0.061-0.594 0.405-0.063 0.205-0.472 0.058-0.699-0.165-0.253-0.339-0.553-0.55-0.765-0.262-0.263-0.652-0.434-0.619-0.879 0.031-0.414 0.745-0.361 0.867-0.735-0.212 0.009-0.421 0.061-0.63 0.097-0.521 0.087-0.611-0.088-0.368-0.551 0.212-0.405 0.55-0.711 0.847-1.05 0.096-0.108 0.39-0.355 0.238-0.511-0.124-0.13-0.332 0.067-0.437 0.138-0.386 0.255-0.818 0.445-1.26 0.582-0.131 0.041-0.52 0.193-0.564-0.041-0.059-0.315 0.537-0.373 0.458-0.728-0.238 0.057-0.707 0.434-0.935 0.259-0.276-0.209 0.129-0.746 0.172-0.993 0.044-0.251-0.158-0.26-0.299-0.104-0.05 0.056-0.094 0.116-0.139 0.174-0.081 0.101-0.146 0.197-0.197 0.314-0.573-0.334 0.51-0.723 0.307-1.032-0.073-0.11-0.208 0-0.272 0.058-0.136 0.118-0.647 0.707-0.759 0.274-0.123-0.478 0.125-1.053 0.255-1.504 0.032-0.118 0.184-0.436 0.037-0.52-0.215-0.123-0.308 0.293-0.359 0.416a2.706 2.706 0 0 1-0.713 0.973c-0.1 0.089-0.269 0.261-0.418 0.22-0.217-0.059-0.218-0.661-0.211-0.844 0.003-0.087 0.052-0.238-0.032-0.302-0.111-0.082-0.17 0.084-0.186 0.163-0.056 0.257-0.216 0.993-0.597 0.51-0.346-0.436 0.189-1.342-0.515-1.525l-0.385 1.225c-0.462-0.101-0.36-0.761-0.245-1.121l-0.21-0.069a3.831 3.831 0 0 1-0.13 0.42c-0.186 0.523-0.435 0.625-0.627 0.034-0.147-0.45-0.095-0.936-0.168-1.399-0.029-0.184-0.046-0.371-0.23-0.455z m0.035 1.05c0.177 0.422-0.009 0.951 0.275 1.363 0.29 0.422 0.83 0.195 1.183 0.461 0.125 0.094 0.026 0.297-0.009 0.415-0.116 0.402-0.322 0.7-0.539 1.05 0.76-0.389 1.015-1.496 1.119-2.273h0.035c-0.03 0.691-0.008 1.371 0 2.063 0.003 0.313-0.043 0.675 0.316 0.734V3.255c0.375 0.108 0.937 0.582 1.344 0.442 0.208-0.071 0.397-0.321 0.541-0.476 0.109-0.118 0.203-0.246 0.283-0.385h0.035l-0.139 1.119-0.35-0.07 0.769 0.549 0.302 0.262-0.232 0.341-1.014 0.737c0.739-0.109 1.111-0.654 1.644-1.084-0.174 0.731-0.569 1.464-0.385 2.238h0.035l0.42-1.679c0.318 0.151 0.429 0.552 0.734 0.734 0.444 0.264 1.066-0.237 1.469-0.384-0.263 0.373-0.661 0.636-0.734 1.119l-0.315-0.139c0.274 0.703 0.602 1.38 0.719 2.134 0.108 0.689-0.028 1.372 0.018 2.065 0.023 0.319 0.154 0.6 0.208 0.909-0.653 0.222-0.772 1.137-1.4 1.433 0.05-0.218 0.128-0.437 0.128-0.664 0-0.162-0.077-0.327-0.035-0.49 0.085-0.321 0.364-0.589 0.478-0.909 0.176-0.499 0.058-0.968-0.011-1.469l0.349 0.034-0.879-1.365-0.436-0.664 0.161-0.455c-0.884 0.68-2.165 1.378-2.168 2.66l0.314-0.106 0.104 0.77-0.489 0.07v0.069c0.409 0.116 0.837 0.173 1.225 0.355 0.283 0.132 0.596 0.307 0.791 0.556 0.649 0.823 0.13 2.108-0.36 2.868-0.247 0.383-0.689 0.735-0.851 1.155 0.443-0.107 0.669-0.53 0.918-0.875 0.106-0.147 0.197-0.351 0.377-0.419 0.278-0.104 0.371 0.411 0.43 0.593 0.075 0.232 0.253 0.633 0.209 0.876-0.082 0.465-0.481 0.768-0.394 1.294 0.193-0.234 0.252-0.7 0.559-0.814 0.197-0.072 0.402 0.11 0.595 0.139 0.418 0.061 0.847-0.095 1.155-0.378 0.331-0.305 0.557-0.796 0.473-1.256-0.05-0.278-0.205-0.552-0.185-0.839 0.014-0.232 0.172-0.42 0.255-0.63 0.201-0.495 0.176-1.058-0.298-1.379a0.997 0.997 0 0 0-0.42-0.16c0.038-0.257 0.306-0.819 0.615-0.485 0.218 0.234 0.336 0.647 0.459 0.939 0.451 1.065 0.455 2.326-0.189 3.323-0.457 0.707-1.183 1.287-1.796 1.856l-0.243-0.701h-0.071c-0.081 0.418 0.215 0.895 0.385 1.26-0.383-0.087-0.748-0.481-1.155-0.42 0.115 0.197 0.867 0.663 0.281 0.874 0.003 0.172-0.128 0.29-0.232 0.42-0.233 0.288-0.527 0.717-0.889 0.84l-0.664-1.749h-0.035c0.097 0.767 0.364 1.513 0.708 2.204 0.179 0.356 0.467 0.709 0.586 1.084-0.217-0.184-0.355-0.479-0.54-0.699a7.322 7.322 0 0 0-1.104-1.035c-0.263-0.205-0.522-0.436-0.875-0.4 0.4 0.36 1.007 0.551 0.969 1.225-0.012 0.191-0.224 0.275-0.374 0.343-0.393 0.18-0.777 0.373-1.19 0.508-0.114 0.037-0.324 0.139-0.443 0.101-0.128-0.043-0.112-0.321-0.126-0.428-0.043-0.331 0.14-1.192-0.2-1.329-0.148 1.171 0.153 2.237 0.244 3.393h-0.035c-0.197-0.855-0.509-1.807-0.972-2.554-0.128-0.205-0.398-0.692-0.671-0.629l0.719 1.259 0.015 0.534-0.524 0.092-1.504 0.039c0.055-0.433 0.151-0.865 0.232-1.295 0.016-0.094 0.086-0.378-0.091-0.378-0.162 0-0.196 0.473-0.219 0.588-0.125 0.629-0.237 1.283-0.238 1.926h-0.035c0-1.059-0.476-2.006-0.909-2.94-0.121 0.18 0.048 0.437 0.1 0.629 0.115 0.43 0.131 0.855 0.075 1.295-0.71-0.137-1.479-0.322-2.134-0.63 0.173-0.414 0.668-1.031 0.665-1.47-0.643 0.645-0.932 1.548-1.26 2.38h-0.034l0.139-1.679-0.244-1.435c-0.153 0.154-0.07 0.463-0.046 0.665 0.038 0.319 0.017 0.798-0.218 1.044-0.13 0.136-0.262 0.016-0.402-0.04-0.389-0.158-0.675-0.418-1.014-0.654-0.121-0.084-0.34-0.174-0.325-0.35 0.037-0.502 0.761-0.74 0.779-1.19-0.835 0.36-1.232 1.262-1.889 1.821 0.216-0.91 0.907-1.975 0.735-2.94-0.176 0.097-0.168 0.342-0.214 0.525a5.015 5.015 0 0 1-0.45 1.119c-0.464-0.268-0.835-0.723-1.14-1.155-0.085-0.118-0.27-0.302-0.273-0.454-0.002-0.148 0.168-0.318 0.261-0.42 0.283-0.307 0.626-0.539 1.011-0.7-0.275-0.17-0.819 0.232-1.119 0.316 0.203-0.429 0.754-0.849 0.595-1.365-0.456 0.356-0.765 1.125-1.084 1.61h-0.035l-0.666-1.47 0.875 0.314c0.027-0.313-0.418-0.433-0.665-0.489 0.146-0.38 0.552-0.67 0.455-1.119h-0.07c-0.101 0.325-0.312 0.88-0.664 0.979l-0.105-0.559h-0.034c-0.138 0.293 0.034 0.518-0.047 0.796-0.043 0.145-0.252 0.123-0.325 0.258-0.099 0.183-0.107 0.429-0.19 0.625-0.199 0.472-0.58 0.819-1.048 1.014l-0.043-0.627 0.532-0.597-0.56 0.419c-0.072-0.187-0.235-0.539-0.139-0.734 0.085-0.168 0.295-0.278 0.42-0.42l-0.56 0.279c-0.189-0.489 0.157-0.348 0.35-0.699-0.141 0.081-0.377 0.232-0.546 0.154-0.217-0.099-0.445-0.742-0.539-0.959l0.594-0.104v-0.035c-0.281 0.035-0.726 0.139-0.769-0.245h0.734v-0.035l-0.825-0.092-0.225-0.293-0.489-0.629c0.291-0.087 0.792-0.087 1.085 0-0.427-0.449-1.188 0.211-1.539-0.526l0.874-0.174v-0.034c-0.271 0-0.777 0.157-1.013 0.032-0.063-0.032-0.109-0.087-0.156-0.139-0.45-0.508 0.557-0.554 0.889-0.51 0.638 0.088 1.131 0.524 1.575 0.966 0.225 0.224 0.549 0.624 0.874 0.69 0.322 0.064 0.591-0.141 0.84-0.305 0 0.246-0.026 0.489 0.174 0.664 0-0.482 0.006-0.994 0.081-1.469 0.027-0.176 0.096-0.408 0.305-0.441 0.261-0.039 0.616 0.358 0.804 0.51 0.002-0.271-0.203-0.501-0.37-0.699-0.459-0.545-1.189-1.06-1.833-1.365v-0.035c0.954 0.165 1.672 0.725 2.693 0.455v-0.07l-1.19-0.174c0.05-0.372 0.32-0.851 0.236-1.226-0.116-0.51-0.659-0.747-0.865-1.188 0.355 0.137 0.731 0.336 1.12 0.344 0.218 0.006 0.39-0.114 0.594-0.162 0.562-0.131 0.888 0.143 1.259 0.517 0.102-0.354-0.174-0.648-0.387-0.909-0.216-0.266-0.406-0.533-0.661-0.764-0.31-0.278-0.768-0.603-0.945-0.986 0.29 0.057 0.568 0.297 0.804 0.466 0.416 0.296 0.829 0.583 1.295 0.801 0.245 0.116 0.67 0.307 0.874 0.063l-1.119-0.42c0.081-0.117 0.197-0.218 0.256-0.35 0.16-0.356-0.121-0.659-0.221-0.979 0.215 0.079 0.4 0.263 0.63 0.302 0.538 0.09 0.851-0.545 1.259-0.758L10.649 5.563c0.233-0.195 0.13-0.573 0.09-0.839-0.115-0.77-0.572-1.451-0.684-2.204h0.035c0.442 0.946 0.968 1.967 1.853 2.553l-0.321-0.421-0.554-0.839c0.11-0.043 0.218-0.089 0.312-0.164 0.612-0.491 0.09-1.174 0.003-1.76h0.034c0.075 0.18 0.162 0.364 0.273 0.526 0.511 0.74 1.186 0.622 1.967 0.559l-0.209 1.54h0.035c0.103-0.328 0.299-0.598 0.369-0.945 0.128-0.631-0.007-1.257-0.02-1.89h0.035c0.056 0.373 0.208 0.731 0.327 1.086 0.188 0.559 0.34 1.171 0.757 1.608l-0.384-1.573c1.111-0.001 1.414-0.75 1.434-1.75z m-0.315 2.414l-0.56 2.519c0.431-0.263 0.522-1.221 0.56-1.679h0.035c0.075 0.404 0.111 0.807 0.276 1.189 0.065 0.151 0.136 0.354 0.319 0.35l-0.447-1.574z m-3.428 0.455c0.007 0.894 0.449 1.708 0.279 2.623 0.169-0.102 0.174-0.342 0.176-0.524 0.005-0.423-0.07-0.839-0.07-1.26h0.035c0.122 0.422 0.452 1.264 0.944 1.33-0.058-0.227-0.245-0.399-0.37-0.595-0.276-0.434-0.547-1.311-0.994-1.574z m7.172 0.385c-0.39 0.61-0.854 1.444-1.434 1.889v0.035c0.441-0.079 0.917-0.637 1.049-1.05h0.035c-0.006 0.622-0.291 1.282-0.035 1.89h0.035c0.186-0.63 0.089-1.373 0.249-2.03 0.05-0.205 0.235-0.549 0.101-0.734zM17.12 5.703c-0.206 0.466-0.307 0.899-0.735 1.224v0.07c0.307 0.081 0.522-0.304 0.595-0.559h0.034c0.03 0.235 0.058 0.724 0.316 0.805l-0.173-0.805z m-7.487 0.034c0.075 0.862 1.233 1.443 1.084 2.38 0.186-0.109 0.138-0.312 0.075-0.49-0.13-0.368-0.346-0.691-0.495-1.05 0.335 0.306 0.83 0.652 1.296 0.456l-0.735-0.305z m4.828 0.281c-0.106 0.348-0.402 1.028-0.28 1.364h0.07l0.244-0.84h0.035c0.087 0.317 0.177 0.797 0.56 0.84l-0.56-1.364z m-2.344 0.874l0.174 1.47h0.07l-0.034-1.05c0.228 0.159 0.537 0.55 0.839 0.42-0.116-0.128-0.286-0.15-0.419-0.257-0.217-0.175-0.332-0.559-0.63-0.583z m7.696 0.209c-0.369 0.371-0.677 0.625-1.189 0.77v0.071c0.303 0.087 0.596-0.081 0.84-0.245-0.041 0.205-0.302 0.742-0.105 0.875l0.336-1.015z m1.785 0.724c0.16 0.012 0.281 0.216 0.374 0.327 0.277 0.324 0.589 0.667 0.71 1.084-0.808-0.167-1.684-0.052-2.484 0.139 0.179-0.47 0.517-0.967 0.91-1.275 0.133-0.107 0.299-0.29 0.49-0.275z m-7.767 0.081l-0.21 1.086c0.175-0.133 0.217-0.558 0.245-0.77l0.315 0.35a1.227 1.227 0 0 0-0.35-0.665z m3.428 0.106l-0.664 0.664 0.629-0.454 0.105 0.629c0.123-0.179 0.058-0.67-0.07-0.839z m-7.346 0.09a0.292 0.292 0 0 0-0.069 0.015v0.035c0.293 0.297 0.537 0.707 0.72 1.084 0.102 0.208 0.073 0.436 0.293 0.56-0.017-0.409-0.193-0.719-0.35-1.084 0.248 0.144 0.58 0.36 0.874 0.278v-0.069c-0.397-0.176-0.704-0.326-1.049-0.601-0.128-0.102-0.26-0.232-0.419-0.218z m-2.414 0.329c0.034 0.296 0.275 0.406 0.489 0.569a4.059 4.059 0 0 1 0.797 0.762c0.147 0.193 0.238 0.524 0.429 0.664-0.042-0.515-0.346-1.12-0.841-1.33v-0.035c0.503 0.097 1.006 0.285 1.504 0.07v-0.07l-0.595-0.023z m16.268 0.105c0.343 0.133 0.711 0.605 0.839 0.945l-0.77-0.104z m-8.467 0.035l-0.314 0.596 0.349-0.385 0.21 0.35z m6.901 0.825a0.622 0.622 0 0 1 0.199 0.036c0.423 0.166 0.31 1.044 0.221 1.378-0.071 0.271-0.197 0.574-0.464 0.701-0.194-0.348-0.481-0.575-0.84-0.743-0.179-0.085-0.476-0.117-0.599-0.281-0.119-0.159-0.241-0.749-0.079-0.905 0.176-0.17 0.661-0.136 0.888-0.136 0.189 0 0.455-0.059 0.674-0.05z m-3.542 0.015l-0.595 0.455 0.525-0.279-0.069 0.419c0.148-0.104 0.203-0.43 0.139-0.595z m5.108 0.209c0.158 0.013 0.429-0.002 0.545 0.116 0.384 0.394 0.168 1.45-0.301 1.67l-0.139-0.806c0.037 0.002 0.072 0 0.104-0.003v0.003h0.105l-0.047-0.015c0.413-0.099 0.342-0.669-0.059-0.684l-0.104-0.035 0.057 0.037-0.021 0.001v-0.003h-0.07l0.012 0.013c-0.027 0.006-0.053 0.012-0.082 0.023z m-1.784 0.142c-0.072 0.073-0.176 0.128-0.23 0.217-0.369 0.632 1.028 0.648 0.633-0.035-0.045-0.079-0.125-0.129-0.193-0.182l-0.141 0.069h-0.069z m-7.347 0.139c0 0.179-0.035 0.36 0.139 0.454v-0.349l0.421 0.14z m-1.944 0.1c-0.053 0.002-0.107 0.006-0.155 0.005 0.061 0.225 0.159 0.418 0.35 0.559l-0.21-0.454 0.42 0.035c-0.081-0.147-0.245-0.152-0.405-0.145z m4.274 0.012c-0.104 0.012-0.195 0.195-0.196 0.377l0.174-0.314 0.211 0.139c-0.058-0.153-0.126-0.209-0.189-0.202z m-5.619 0.098l-0.595 0.104 0.49 0.595-0.279-0.489 0.418-0.07z m-3.079 0.487c-0.356 0.015-0.765 0.423-1.049 0.597v0.07l1.015 0.35c-0.021-0.266-0.365-0.344-0.595-0.384l0.699-0.631a0.448 0.448 0 0 0-0.069-0.002z m1.855 0.073l-1.434 0.385v0.07l0.768 0.276 0.456 0.318c-0.05-0.371-0.444-0.435-0.7-0.629 0.325-0.061 0.765-0.067 0.91-0.42z m3.604 0.385c-0.15 0.023-0.267 0.139-0.106 0.244z m1.153 0.209l-0.034 0.246c0.109-0.065 0.128-0.122 0.104-0.245z m1.574 0c-0.136 0.041-0.248 0.137-0.104 0.246z m1.296 0.35l-0.351 0.104v0.141z m1.329 0.035v0.42c0.131-0.128 0.131-0.29 0-0.42z m4.954 0.207c0.493 0.005 0.981 0.458 0.87 0.983-0.072 0.336-0.281 0.702-0.612 0.832-0.173 0.07-0.564 0.046-0.578-0.203-0.012-0.232 0.45-0.554 0.543-0.804-0.647 0.495-1.044 0.916-1.924 0.804v-0.034c0.518-0.384 0.735-1.038 1.228-1.42a0.748 0.748 0 0 1 0.473-0.158z m-11.531 0.037c-0.169 0.088-0.273 0.274-0.316 0.456l0.42 0.105-0.232-0.224z m-5.318 0.071l-1.33 0.7c0.046 0.261 0.304 0.121 0.491 0.107 0.267-0.017 0.762 0.07 0.909 0.314l0.245-0.035c-0.063-0.397-0.633-0.397-0.944-0.421 0.228-0.232 0.557-0.3 0.629-0.665z m6.752 0.28l-0.385 0.49 0.49 0.174-0.35-0.209c0.073-0.153 0.36-0.286 0.245-0.455z m-3.044 0.104l-0.42 0.386c0.165 0.055 0.543 0.27 0.665 0.105l-0.455-0.174z m9.061 0l0.49 0.386v0.07l-0.455 0.245a1.088 1.088 0 0 0 0.63-0.245 1.024 1.024 0 0 0-0.665-0.455z m-11.23 0.14c-0.212 0.476-0.538 0.862-0.909 1.225-0.213 0.208-0.546 0.401-0.63 0.699L8.723 14.088l0.805-0.163c-0.48-0.343-1.322 0.038-1.785 0.244 0.319-0.638 0.943-0.892 1.085-1.645l-0.035-0.035z m6.612 0.035c-0.151 0.05-0.169 0.173-0.209 0.316l0.209 0.034z m1.435 0.246l0.034 0.385a0.583 0.583 0 0 0 0.316-0.385l-0.246 0.174z m-4.863 0.489c-0.151 0.044-0.232 0.152-0.07 0.245z m6.193 0.21l-0.036 0.49-0.314-0.209c0.032 0.211 0.181 0.313 0.385 0.348l0.035-0.629z m-7.838 0.035c-0.255 0.08-0.691 0.803-0.805 1.05 0.232-0.009 1.038 0.021 1.156-0.139l-0.771-0.106z m4.291 0.069c-0.193 0.012-0.379 0.122-0.582 0.121-0.588 0-1.554-0.292-2.058 0.107-0.459 0.364-0.487 0.851-0.776 1.313-0.14 0.225-0.39 0.377-0.594 0.539-0.075 0.06-0.213 0.147-0.184 0.263 0.035 0.141 0.276 0.217 0.394 0.271 0.264 0.122 0.553 0.217 0.84 0.276 0.152 0.031 0.38 0.026 0.51 0.119 0.237 0.172 0.157 0.757 0.189 1.016 0.263-0.151 0.608-0.603 0.734-0.875-0.28 0.085-0.402 0.36-0.595 0.56l-0.104-0.734c0.818-0.072 1.177-0.966 1.658-1.503 0.293-0.327 0.661-0.47 1.036-0.667-0.22-0.263-0.528 0.015-0.735 0.174-0.556 0.429-0.876 0.946-1.364 1.435l0.279-0.734h-0.035c-0.152 0.364-0.334 0.754-0.699 0.944l0.139-0.489h-0.035c-0.147 0.351-0.313 0.524-0.699 0.524l0.349-0.805h-0.035l-0.454 0.77-0.139-0.034 0.349-0.665h-0.035c-0.176 0.283-0.363 0.684-0.734 0.594l0.313-0.594c-0.174 0.137-0.251 0.464-0.457 0.546-0.094 0.037-0.273-0.031-0.234-0.156 0.049-0.162 0.315-0.322 0.421-0.461 0.36-0.47 0.649-1.237 1.18-1.526 0.436-0.238 1.098 0.063 1.575 0.058 0.273-0.005 0.583-0.097 0.665-0.386a0.495 0.495 0 0 0-0.084-0.001z m-8.803 0.106l-0.035 0.21 0.139-0.21z m17.251 0.034c0.264 0.005 0.557 0.043 0.708 0.248 0.154 0.209 0.117 0.495 0.197 0.733 0.06-0.251 0.053-1.188 0.553-0.661 0.405 0.426 0.297 1.348-0.101 1.742-0.251 0.247-0.852 0.398-1.15 0.167-0.456-0.351-0.573-1.074-0.706-1.598-0.031-0.126-0.179-0.418-0.097-0.535 0.067-0.1 0.242-0.093 0.348-0.095 0.075 0 0.16-0.002 0.248-0.001z m3.073 0.211c0.66 0.119 0.713 1.052 1.296 1.33v0.07c-0.331 0.166-0.441-0.002-0.665-0.245l0.245 0.455c-0.27-0.042-0.328-0.304-0.489-0.491l0.243 0.526c-0.401 0-0.572-0.066-0.734-0.455h-0.035l0.07 0.314-0.248-0.176 0.132-0.452z m-5.491 0.035c-0.143 0.042-0.218 0.122-0.104 0.246z m-4.828 0.28l0.385 0.42 0.174-0.42-0.174 0.28z m3.534 0l-0.035 0.525-0.35-0.209c-0.02 0.23 0.334 0.492 0.525 0.594l-0.07-0.91z m-9.481 0.594c-0.109 0.524-0.484 0.996-0.82 1.4-0.16 0.193-0.406 0.386-0.476 0.63 0.58-0.167 1.233-0.756 1.856-0.699-0.16-0.311-0.908 0.119-1.19 0.173 0.227-0.336 0.537-0.629 0.684-1.013 0.06-0.162 0.1-0.379-0.054-0.491z m8.116 0.316c-0.267 0.042-0.253 0.306-0.315 0.524-0.148-0.147-0.299-0.351-0.524-0.314l0.665 0.805z m-3.253 0.035l-0.351 0.315-0.034-0.175h-0.105l0.035 0.454c0.204-0.035 0.415-0.402 0.455-0.594z m0.945 0.56l-0.175 0.454h-0.035l-0.281-0.385 0.245 0.805h0.035c0.093-0.234 0.423-0.663 0.211-0.874z m3.883 0.208l-0.105 0.036 0.209 1.154c-0.223-0.195-0.91-1.092-1.189-0.769 0.644 0.205 0.912 0.957 1.47 1.295l-0.174-0.665z m1.749 0.281c-0.177 0.434 0.255 0.899 0.419 1.294-0.455-0.234-0.858-0.625-1.399-0.629v0.139c0.779 0.07 1.195 0.866 1.819 1.226-0.006-0.653-0.566-1.403-0.77-2.03z m-7.102 0.525l-0.246 0.035c0.084 0.196 0.228 0.355 0.297 0.559 0.075 0.227 0.027 0.54 0.264 0.665 0.11-0.246 0.379-0.646 0.314-0.909-0.197 0.099-0.292 0.311-0.313 0.525h-0.036z m-3.254 0.035c0 0.687-0.093 1.331-0.279 1.995 0.244 0.008 0.371-0.245 0.502-0.421 0.261-0.347 0.522-0.728 0.932-0.909v-0.035c-0.416-0.055-0.936 0.568-1.084 0.909h-0.035c0.123-0.476 0.232-1.072 0.035-1.539z m6.158 0.035c-0.283 0.108-0.211 0.487-0.211 0.734l-0.803-0.559c0.044 0.143 0.158 0.186 0.264 0.284 0.209 0.194 0.391 0.646 0.68 0.696z m1.784 0.665c-0.247 0.437 0.112 1.338 0.174 1.819h-0.035c-0.195-0.412-0.571-0.753-0.874-1.084-0.043-0.046-0.264-0.349-0.344-0.223-0.082 0.132 0.322 0.447 0.398 0.537 0.28 0.332 0.532 0.706 0.745 1.085 0.122 0.219 0.228 0.51 0.46 0.629-0.174-0.902-0.452-1.839-0.454-2.763z m-11.65 0.35c0.259 0.077 0.406 0.254 0.42 0.524l-0.805 0.56z m5.807 0.278l-0.035 0.036c0.17 0.47 0.34 0.861 0.423 1.365 0.039 0.234 0.015 0.539 0.207 0.7 0.197-0.373 0.267-0.806 0.447-1.19 0.104-0.22 0.271-0.413 0.218-0.665-0.336 0.166-0.535 0.913-0.63 1.26-0.174-0.463-0.121-1.266-0.63-1.505z m2.379 0.352c0.395 0.785 0.689 1.524 0.91 2.377 0.246-0.137 0.212-0.382 0.209-0.628-0.006-0.576 0.216-1.148 0.176-1.715-0.166 0.056-0.195 0.225-0.224 0.385-0.07 0.382-0.07 0.776-0.162 1.154-0.189-0.441-0.34-1.483-0.909-1.573z m7.382 0.278l0.525 0.771-0.77-0.35zM10.123 20.327c0.75 0.066 0.238 0.756-0.069 1.084z m9.621 0.84l0.316 0.98c-0.26-0.182-0.566-0.48-0.701-0.77z m-6.381 0.527l0.399 0.068-0.315 1.119h-0.035l-0.069-0.875z m3.306 0.202c0.072 0 0.14 0.015 0.196 0.062 0.189 0.16-0.078 0.934-0.164 1.133l-0.385-1.119c0.1-0.026 0.232-0.073 0.353-0.076Z"/></svg>