<svg fill="#0075C9" role="img" viewBox="0 0 21 24" xmlns="http://www.w3.org/2000/svg"><title>OpenJS Foundation</title><path d="M10.492 0L0.103 6v12L10.5 24l10.397-5.992V6L10.492 0M9.47 1.534L6.958 5.878H1.943l7.526-4.344M6.546 6.595L5.37 8.634 1.843 6.595h4.703M5.63 9.603L9.775 12 5.63 14.397 4.248 12 5.63 9.603m-0.611-0.351L3.843 11.29 1.485 7.214l3.534 2.038m-4.1-1.595L3.432 12 0.92 16.343V7.657m2.916 5.06l1.175 2.039-3.526 2.038 2.35-4.076m1.535 2.648l1.176 2.039H1.843l3.527-2.039m-3.427 2.756h5.015l2.511 4.344-7.526-4.344M10.14 22.2l-2.35-4.078h2.351V22.2m0-4.794h-2.77l-1.383-2.397 4.145-2.397v4.794h0.008m0-6.023L5.996 8.985l1.382-2.397h2.763v4.794m0-5.504H7.79l2.351-4.076v4.076m5.832 3.374L19.5 7.214l-2.351 4.076-1.176-2.038M16.737 12l-1.382 2.397L11.21 12l4.145-2.397L16.736 12m-1.122-3.366L14.44 6.595h4.702l-3.527 2.039m3.428-2.756h-5.015l-2.504-4.344 7.519 4.344m-8.19-4.076l2.35 4.076h-2.351V1.802m0 4.793h2.763l1.382 2.397-4.145 2.397V6.595m0 6.023l4.145 2.397-1.382 2.39h-2.763v-4.787m0 5.504h2.351l-2.351 4.076v-4.076m0.672 4.344l2.504-4.344h5.015l-7.52 4.344m2.917-5.061l1.175-2.039 3.527 2.039H14.44m1.534-2.657l1.176-2.038L19.5 16.786l-3.526-2.038m4.1 1.595L17.56 12l2.511-4.343v8.687"/></svg>