<svg fill="#ED1944" role="img" viewBox="0 0 25 24" xmlns="http://www.w3.org/2000/svg"><title>OpenStack</title><path d="M19.22 9.231h5.537v5.539h-5.537zM0.236 9.231h5.538v5.539H0.236z m18.984 7.999a1.234 1.234 0 0 1-1.233 1.233H7.005a1.234 1.234 0 0 1-1.232-1.233v-0.877H0.236v5.368a2.285 2.285 0 0 0 2.278 2.279h19.96A2.286 2.286 0 0 0 24.764 21.722V16.354h-5.544zM22.478 0H2.518a2.285 2.285 0 0 0-2.279 2.279V7.647h5.538v-0.877a1.233 1.233 0 0 1 1.232-1.233h10.982a1.233 1.233 0 0 1 1.232 1.233v0.877H24.764V2.278A2.286 2.286 0 0 0 22.478 0Z"/></svg>