<svg fill="#005EB8" role="img" viewBox="0 0 24 24" xmlns="http://www.w3.org/2000/svg"><title>OpenSearch</title><path d="M23.151 8.812a0.848 0.848 0 0 0-0.848 0.849c0 6.982-5.66 12.642-12.642 12.642a0.849 0.849 0 0 0 0 1.697C17.58 24 24 17.58 24 9.661a0.849 0.849 0 0 0-0.849-0.849Zm-5.121 5.438c0.816-1.331 1.605-3.106 1.45-5.591-0.322-5.147-4.983-9.051-9.385-8.628C8.372 0.197 6.602 1.602 6.76 4.118c0.068 1.093 0.603 1.739 1.473 2.234 0.828 0.472 1.891 0.771 3.097 1.111 1.456 0.41 3.146 0.87 4.444 1.826 1.556 1.147 2.62 2.476 2.256 4.961Zm-16.561-9C0.653 6.581-0.136 8.356 0.02 10.84c0.322 5.147 4.983 9.051 9.385 8.629 1.723-0.166 3.493-1.57 3.335-4.087-0.068-1.093-0.603-1.739-1.473-2.235-0.828-0.472-1.891-0.771-3.097-1.11-1.456-0.41-3.146-0.87-4.444-1.826-1.556-1.147-2.62-2.476-2.257-4.961Z"/></svg>