<svg fill="#2A667F" role="img" viewBox="0 0 25 24" xmlns="http://www.w3.org/2000/svg"><title>OpenZFS</title><path d="M19.857 3.404a0.634 0.634 0 0 1-0.901 0 0.64 0.64 0 0 1 0-0.905 0.634 0.634 0 0 1 0.901 0 0.629 0.629 0 0 1 0 0.905m-0.14 17.858c-0.435 0.433-1.138 0.433-1.574 0-0.435-0.44-0.435-1.143 0-1.576 0.435-0.433 1.145-0.433 1.574 0a1.104 1.104 0 0 1 0 1.576m-3.722-2.154c-0.435-0.433-0.435-1.143 0-1.57 0.435-0.44 1.145-0.44 1.573 0 0.435 0.433 0.435 1.143 0 1.57-0.435 0.44-1.145 0.44-1.573 0m-0.576 2.154c-0.435 0.433-1.145 0.433-1.573 0-0.435-0.44-0.435-1.143 0-1.576 0.435-0.433 1.145-0.433 1.573 0 0.435 0.433 0.435 1.143 0 1.576m-3.722-2.154c-0.441-0.433-0.441-1.143 0-1.57a1.103 1.103 0 0 1 1.574 0c0.435 0.433 0.435 1.143 0 1.57-0.435 0.44-1.145 0.44-1.574 0m-0.575 2.154c-0.435 0.433-1.145 0.433-1.573 0-0.435-0.44-0.435-1.143 0-1.576 0.435-0.433 1.145-0.433 1.573 0 0.435 0.433 0.435 1.143 0 1.576m-3.728-2.154c-0.435-0.433-0.435-1.143 0-1.57 0.441-0.44 1.145-0.44 1.579 0 0.435 0.433 0.435 1.143 0 1.57-0.435 0.433-1.145 0.44-1.579 0m-0.57 2.148c-0.435 0.44-1.145 0.44-1.573 0-0.441-0.433-0.441-1.143 0-1.57a1.103 1.103 0 0 1 1.573 0c0.435 0.433 0.435 1.143 0 1.57M5.104 2.581c0.256-0.251 0.659-0.251 0.908 0a0.64 0.64 0 0 1 0 0.904c-0.249 0.251-0.659 0.251-0.908 0-0.243-0.251-0.249-0.653 0-0.904M6.492 3.969c0.249-0.251 0.659-0.251 0.908 0a0.64 0.64 0 0 1 0 0.904c-0.249 0.245-0.659 0.245-0.908 0a0.64 0.64 0 0 1 0-0.904m1.388 1.381c0.249-0.245 0.659-0.245 0.908 0 0.249 0.251 0.249 0.659 0 0.904-0.249 0.251-0.659 0.251-0.908 0-0.249-0.245-0.249-0.653 0-0.904m0-2.769c0.249-0.251 0.659-0.251 0.908 0a0.64 0.64 0 0 1 0 0.904c-0.249 0.251-0.659 0.245-0.908 0a0.64 0.64 0 0 1 0-0.904m1.387 4.157c0.249-0.245 0.659-0.251 0.908 0a0.64 0.64 0 0 1 0 0.904c-0.249 0.251-0.659 0.251-0.908 0a0.64 0.64 0 0 1 0-0.904m0-2.769c0.249-0.251 0.659-0.251 0.908 0a0.64 0.64 0 0 1 0 0.904c-0.249 0.251-0.659 0.251-0.908 0-0.249-0.251-0.249-0.659 0-0.904m1.388-1.388c0.249-0.251 0.652-0.251 0.908 0a0.64 0.64 0 0 1 0 0.904c-0.256 0.251-0.659 0.251-0.908 0a0.64 0.64 0 0 1 0-0.904m1.388 4.157c0.249-0.251 0.652-0.245 0.901 0 0.249 0.251 0.249 0.659 0 0.904-0.243 0.251-0.652 0.251-0.901 0a0.64 0.64 0 0 1 0-0.904m0-2.769a0.634 0.634 0 0 1 0.901 0c0.256 0.245 0.249 0.653 0 0.904-0.249 0.245-0.652 0.245-0.901 0-0.249-0.251-0.249-0.659 0-0.904m1.387-1.388a0.634 0.634 0 0 1 0.902 0 0.64 0.64 0 0 1 0 0.904 0.634 0.634 0 0 1-0.902 0 0.64 0.64 0 0 1 0-0.904m0.429 12.804c0.435-0.433 1.145-0.433 1.573 0 0.435 0.44 0.435 1.143 0 1.576-0.435 0.433-1.145 0.433-1.573 0-0.435-0.44-0.435-1.143 0-1.576m0.473-6.393a0.634 0.634 0 0 1-0.902 0c-0.249-0.245-0.249-0.653 0-0.904a0.639 0.639 0 0 1 0.902 0.006c0.249 0.245 0.249 0.653 0 0.898m0-2.769a0.634 0.634 0 0 1-0.902 0 0.64 0.64 0 0 1 0-0.904 0.634 0.634 0 0 1 0.902 0 0.64 0.64 0 0 1 0 0.904m-2.289 3.253c0.249-0.245 0.652-0.245 0.901 0 0.249 0.251 0.249 0.659 0 0.904a0.634 0.634 0 0 1-0.901 0 0.64 0.64 0 0 1 0-0.904m-0.339 3.761c0.435-0.44 1.145-0.44 1.573 0a1.104 1.104 0 0 1 0 1.576c-0.435 0.433-1.138 0.433-1.573 0-0.435-0.44-0.435-1.143 0-1.576m-0.569 2.148c0.435 0.44 0.435 1.143 0 1.576-0.441 0.433-1.145 0.433-1.58 0-0.435-0.433-0.435-1.143 0-1.576 0.435-0.433 1.145-0.433 1.58 0m-0.48-10.066c0.249-0.251 0.652-0.251 0.908 0 0.243 0.251 0.243 0.653 0 0.904-0.256 0.251-0.659 0.251-0.908 0a0.64 0.64 0 0 1 0-0.904m0 2.775a0.639 0.639 0 0 1 0.902-0.006c0.249 0.251 0.249 0.659 0 0.91-0.249 0.245-0.652 0.245-0.902 0-0.249-0.251-0.249-0.659 0-0.904m4.163-1.388a0.634 0.634 0 0 1 0.902 0 0.64 0.64 0 0 1 0 0.905 0.634 0.634 0 0 1-0.902 0 0.64 0.64 0 0 1 0-0.905m0-2.775c0.249-0.245 0.652-0.245 0.902 0 0.249 0.251 0.249 0.659 0 0.904a0.634 0.634 0 0 1-0.902 0c-0.249-0.245-0.249-0.653 0-0.904m1.388 1.388a0.634 0.634 0 0 1 0.901 0 0.64 0.64 0 0 1 0 0.904 0.634 0.634 0 0 1-0.901 0 0.64 0.64 0 0 1 0-0.904m0-2.77a0.634 0.634 0 0 1 0.901 0c0.249 0.245 0.249 0.653 0 0.898a0.634 0.634 0 0 1-0.901 0c-0.249-0.245-0.249-0.653 0-0.898m1.387 1.382c0.249-0.245 0.652-0.245 0.902 0a0.64 0.64 0 0 1 0 0.904 0.634 0.634 0 0 1-0.902 0c-0.249-0.245-0.249-0.653 0-0.904M24.5 1.827C24.5 0.823 23.688 0 22.671 0H2.335C1.325 0 0.5 0.816 0.5 1.827V8.81h2.724L0.5 15.19v6.976C0.5 23.171 1.318 24 2.335 24h20.336C23.681 24 24.5 23.177 24.5 22.166V15.19h-2.724L24.5 8.81Z"/></svg>