<svg fill="#5C3EE8" role="img" viewBox="0 0 26 24" xmlns="http://www.w3.org/2000/svg"><title>OpenCV</title><path d="M12.891 0C9.485 0 6.724 2.761 6.724 6.167c0 2.263 1.219 4.241 3.036 5.314l1.766-2.997c0.044-0.075 0.019-0.171-0.053-0.221-0.671-0.455-1.112-1.224-1.112-2.096 0-1.397 1.133-2.53 2.53-2.53 1.397 0 2.53 1.133 2.531 2.53 0 0.872-0.441 1.641-1.112 2.096-0.072 0.049-0.098 0.145-0.053 0.221l1.767 2.998c1.817-1.073 3.036-3.051 3.035-5.315 0-3.406-2.761-6.167-6.168-6.167z m-6.641 11.665C2.843 11.665 0.082 14.426 0.082 17.833c0 3.406 2.761 6.167 6.168 6.167 3.423 0 6.252-2.906 6.165-6.326H8.943c-0.091 0-0.163 0.077-0.163 0.169-0.009 1.363-1.146 2.52-2.53 2.52-1.397 0-2.53-1.133-2.531-2.53 0-1.397 1.133-2.53 2.531-2.531 0.366 0 0.714 0.078 1.027 0.218 0.077 0.034 0.169 0.008 0.212-0.064l1.772-3.007c-0.891-0.499-1.918-0.784-3.011-0.784z m16.623 0.82l-1.762 3.001c-0.044 0.075-0.019 0.172 0.054 0.22 0.672 0.454 1.114 1.222 1.116 2.094 0.002 1.397-1.128 2.532-2.526 2.535-1.397 0.002-2.532-1.128-2.535-2.526-0.002-0.872 0.438-1.641 1.108-2.098 0.072-0.049 0.097-0.146 0.053-0.22l-1.772-2.995c-1.815 1.076-3.03 3.057-3.026 5.319 0.006 3.406 2.772 6.163 6.178 6.157 3.406-0.006 6.162-2.772 6.157-6.178-0.004-2.263-1.226-4.239-3.045-5.309z"/></svg>