<svg fill="#FFE033" role="img" viewBox="0 0 27 24" xmlns="http://www.w3.org/2000/svg"><title>Openverse</title><path d="M5.722 0C2.772 0 0.388 2.4 0.388 5.37c0 2.955 2.384 5.371 5.334 5.37Zm7.778 0c-2.935 0-5.335 2.4-5.335 5.37 0 2.955 2.384 5.371 5.335 5.37z m7.778 0c-2.946 0-5.333 2.404-5.334 5.37 0 2.966 2.388 5.371 5.333 5.37 2.947 0 5.336-2.404 5.335-5.37 0-2.966-2.389-5.37-5.334-5.37z m0 13.214c-2.946 0-5.333 2.404-5.334 5.371 0 2.966 2.388 5.37 5.333 5.369 2.947 0 5.336-2.404 5.335-5.369 0-2.966-2.389-5.371-5.334-5.371ZM13.5 13.23c-2.935 0-5.335 2.4-5.335 5.355S10.55 23.954 13.5 23.954z m-7.778 0.044c-2.95 0-5.335 2.401-5.334 5.354 0 2.971 2.384 5.372 5.334 5.372Z"/></svg>