<svg fill="#5DACDF" role="img" viewBox="0 0 27 24" xmlns="http://www.w3.org/2000/svg"><title>openmediavault</title><path d="M1.39 0A1.037 1.037 0 0 0 0.355 1.033v21.934c0 0.585 0.478 1.033 1.035 1.033h24.22a1.034 1.034 0 0 0 1.035-1.033V1.033a1.031 1.031 0 0 0-1.035-1.033Zm0.13 1.166h23.961v21.671H1.52ZM4.222 3.659c-0.217 0-0.395 0.163-0.395 0.365v4.052c0 0.203 0.177 0.366 0.395 0.366h18.556c0.217 0 0.394-0.164 0.394-0.366v-4.053c0-0.202-0.176-0.365-0.394-0.364z m2.253 0.97a1.424 1.424 0 0 1 1.421 1.421 1.424 1.424 0 0 1-1.421 1.424 1.424 1.424 0 0 1-1.423-1.424 1.424 1.424 0 0 1 1.423-1.421m-0.002 0.679a0.745 0.745 0 0 0-0.74 0.742 0.745 0.745 0 0 0 0.742 0.743 0.745 0.745 0 0 0 0.743-0.743 0.745 0.745 0 0 0-0.743-0.742ZM4.222 9.608c-0.217 0-0.395 0.164-0.395 0.366v4.055c0 0.202 0.177 0.364 0.395 0.363h18.556c0.217 0 0.394-0.164 0.394-0.366v-4.052c0-0.202-0.176-0.366-0.394-0.366z m2.253 0.971A1.424 1.424 0 0 1 7.897 12a1.424 1.424 0 0 1-1.421 1.423A1.424 1.424 0 0 1 5.053 12a1.424 1.424 0 0 1 1.423-1.421m-0.002 0.679A0.745 0.745 0 0 0 5.734 12a0.745 0.745 0 0 0 0.742 0.745 0.745 0.745 0 0 0 0-1.488ZM4.222 15.557c-0.217 0-0.395 0.164-0.395 0.366v4.054c0 0.203 0.177 0.364 0.395 0.363h18.556c0.217 0 0.394-0.164 0.394-0.366v-4.051c0-0.202-0.176-0.366-0.394-0.366z m2.253 0.971a1.424 1.424 0 0 1 1.421 1.421 1.424 1.424 0 0 1-1.421 1.422 1.424 1.424 0 0 1-1.423-1.422 1.424 1.424 0 0 1 1.423-1.421m-0.002 0.678a0.745 0.745 0 0 0 0.002 1.488 0.745 0.745 0 0 0 0-1.488Z"/></svg>