<svg fill="#EA7E20" role="img" viewBox="0 0 25 24" xmlns="http://www.w3.org/2000/svg"><title>OpenVPN</title><path d="M12.5 0C5.682 0 0.132 5.497 0.132 12.262c0 4.494 2.43 8.403 6.077 10.517l0.793-5.232a7.262 7.262 0 0 1-1.902-4.864c0-4.016 3.278-7.293 7.348-7.293 4.069 0 7.344 3.278 7.345 7.293 0 1.904-0.739 3.595-1.903 4.917L18.684 22.832c3.7-2.113 6.184-6.08 6.184-10.572C24.868 5.497 19.318 0 12.5 0z m-0.052 8.407a3.902 3.902 0 0 0-3.912 3.911 3.853 3.853 0 0 0 2.537 3.649L9.542 24h5.813l-1.479-8.034c1.427-0.581 2.484-1.956 2.484-3.649a3.902 3.902 0 0 0-3.912-3.91z"/></svg>