<svg fill="#000000" role="img" viewBox="0 0 24 24" xmlns="http://www.w3.org/2000/svg"><title>OpenTelemetry</title><path d="M12.697 13.117c-1.022 1.022-1.022 2.68 0 3.703 1.022 1.022 2.68 1.022 3.703 0 1.022-1.022 1.022-2.68 0-3.703-1.022-1.022-2.68-1.022-3.703 0z m2.768 2.77c-0.506 0.506-1.327 0.506-1.833 0s-0.506-1.327 0-1.833c0.506-0.506 1.327-0.506 1.833 0 0.506 0.504 0.506 1.327 0 1.833zM16.356 0.236l-1.604 1.604c-0.314 0.314-0.314 0.83 0 1.144L21.015 9.247c0.314 0.314 0.83 0.314 1.144 0l1.604-1.604c0.314-0.314 0.314-0.83 0-1.144L17.498 0.235c-0.314-0.314-0.828-0.314-1.142 0.001zM5.117 20.734c0.285-0.285 0.285-0.75 0-1.034l-0.815-0.816c-0.285-0.285-0.75-0.285-1.035 0l-1.684 1.685-0.003 0.002-0.462-0.463c-0.256-0.256-0.672-0.256-0.925 0-0.256 0.256-0.256 0.672 0 0.925l2.775 2.775c0.256 0.256 0.672 0.256 0.925 0 0.253-0.256 0.256-0.672 0-0.925l-0.463-0.462 0.003-0.002z m8.486-15.893l-3.564 3.564c-0.316 0.316-0.316 0.837 0 1.154l2.201 2.2c1.555-1.12 3.736-0.981 5.136 0.419l1.782-1.782c0.316-0.317 0.316-0.837 0-1.154l-4.401-4.401c-0.317-0.319-0.837-0.319-1.154 0z m-2.288 7.846l-1.3-1.3c-0.304-0.304-0.803-0.304-1.108 0l-4.583 4.586c-0.304 0.304-0.304 0.803 0 1.107l2.597 2.598c0.304 0.304 0.803 0.304 1.108 0l2.947-2.953c-0.623-1.288-0.511-2.843 0.339-4.038z"/></svg>