<svg fill="#F9D72C" role="img" viewBox="0 0 31 24" xmlns="http://www.w3.org/2000/svg"><title>OpenSCAD</title><path d="M15.581 0c-1.612 0.02-3.103 0.354-4.19 0.878-1.121 0.541-1.786 1.27-1.786 2.037 0 0.619 0.47 1.227 1.221 1.75 0.303-0.223 0.617-0.384 0.913-0.528 0.294-0.145 0.696-0.184 1.222-0.188 0.526-0.005 1.072 0.113 1.072 0.112 0.01 0.001 1.876 0.807 1.876 0.807l1.12-0.524h0.002s0.741-0.333 1.588-0.323c0.056 0 0.113 0.004 0.17 0.008 0.234 0.016 0.445 0.048 0.821 0.134 0.376 0.088 0.74 0.299 0.973 0.488 0.704-0.507 1.123-1.101 1.123-1.708 0-0.773-0.627-1.507-1.708-2.053-1.08-0.546-2.59-0.889-4.261-0.889h-0.156z m9.142 0.179c-0.407-0.025-0.555 0.025-0.87 0.163-0.634 0.344-1.282 0.689-1.935 1.033a12.363 12.363 0 0 1 5.917 10.094c0.523-0.267 1.042-0.535 1.539-0.796 1.449-1.057 1.545-3.848 0.222-6.505-1.177-2.361-3.168-3.992-4.872-3.989ZM11.179 0.639a12.083 12.083 0 0 0-7.736 10.219c0.532-0.268 1.073-0.531 1.621-0.773l0.002-0.002h0.003c0.255-0.108 0.523-0.16 0.797-0.167 0.276-0.006 0.557 0.036 0.842 0.118 0.569 0.163 1.147 0.483 1.697 0.909 1.102 0.852 2.12 2.147 2.771 3.611 0.721 1.619 1.052 3.171 0.996 4.458-0.056 1.289-0.516 2.348-1.425 2.84l-1.224 0.585a12.015 12.015 0 0 0 5.941 1.563 12.015 12.015 0 0 0 6.68-2.018c-0.933 0.362-1.853 0.398-2.612-0.007-0.676-0.363-1.146-1.043-1.355-1.93-0.152-0.517-0.113-0.895-0.129-1.436 0.019-0.595 0.177-1.163 0.259-1.563 0.13-0.544 0.472-1.445 0.971-2.336 0.498-0.889 1.224-1.766 2.017-2.515 0.795-0.749 1.569-1.21 2.134-1.355 0.564-0.145 0.929-0.213 1.307-0.218 0.376-0.004 0.761 0.058 1.153 0.263 0.967 0.513 1.456 1.622 1.488 2.952 0.093-0.283 0.135-1.453 0.161-1.91a12.068 12.068 0 0 0-6.415-10.665c0.56 0.482 0.898 1.052 0.897 1.681 0 0.774-0.512 1.484-1.152 1.907a7.765 7.765 0 0 1-1.876 0.932 9.108 9.108 0 0 1-2.769 0.472c-0.924 0.003-1.565 0.015-2.084-0.075a15.451 15.451 0 0 1-1.057-0.208c-0.438-0.084-0.418-0.066-0.761-0.188-0.739-0.263-0.971-0.363-1.724-0.859-0.753-0.496-1.302-1.217-1.303-2.009 0-0.922 0.754-1.712 1.885-2.276z m1.876 3.632c0.068 0.416 0.184 0.913 0.203 1.416 0.219 0.05 0.443 0.096 0.674 0.134 0.576-0.284 1.081-0.53 1.59-0.777l-1.562-0.673c-0.004 0-0.113-0.019-0.269-0.042a11.473 11.473 0 0 0-0.636-0.058z m4.121 0.364l-1.088 0.507 0.028 0.799c1.057-0.04 2.043-0.218 2.879-0.508 0.025-0.373 0.135-0.739 0.19-1.032-0.182-0.046-0.382-0.041-0.868-0.045-0.486-0.004-1.14 0.279-1.139 0.279z m2.317-0.144c-0.05 0.154-0.103 0.313-0.134 0.488-0.018 0.093-0.025 0.21-0.035 0.321 0.334-0.134 0.635-0.284 0.908-0.45a2.185 2.185 0 0 0-0.739-0.359z m-3.715 0.783c-0.364 0.175-0.802 0.383-1.233 0.597 0.423 0.038 0.845 0.073 1.255 0.083l-0.022-0.68z m-9.899 4.958a1.827 1.827 0 0 0-0.688 0.139c-0.946 0.417-1.887 0.889-2.771 1.362 0.133 0.013 0.26 0.031 0.376 0.047 0.486 0.065 1.016 0.273 1.889 0.954 0.351 0.274 0.741 0.68 1.125 1.152 0.41 0.486 0.764 1.057 1.083 1.55 0.217 0.361 0.408 0.72 0.564 1.062 0.189 0.396 0.326 0.803 0.472 1.184 0.14 0.383 0.225 0.773 0.327 1.14 0.098 0.357 0.13 0.718 0.188 1.057 0.04 0.336 0.056 0.651 0.05 0.944-0.014 0.562-0.055 1.07-0.211 1.521-0.05 0.144-0.115 0.281-0.192 0.411a95.742 95.742 0 0 0 2.506-1.178c1.565-0.847 1.703-3.729 0.294-6.896-1.102-2.477-3.321-4.476-5.012-4.449Zm18.084 0.834c0.232 0.435 0.423 1.132 0.163 2.045-0.083 0.215-0.15 0.472-0.27 0.696-0.661 1.378-1.886 2.016-2.24 2.178 0 0.059-0.003 0.14-0.049 0.58-0.046 0.438-0.079 0.622-0.218 1.077-0.138 0.457-0.284 0.786-0.481 1.102-0.096 0.125-0.188 0.322-0.633 0.814-0.546 0.339-1.262 0.567-1.645 0.567 0.213 0.71 0.557 1.286 1.091 1.573 0.84 0.448 1.946 0.299 3.071-0.347 0.635-0.366 1.269-0.89 1.853-1.54 0.438-0.507 0.834-1.047 1.468-2.154 0.632-1.105 1.019-2.585 0.989-3.812-0.028-1.257-0.481-2.233-1.32-2.68a1.851 1.851 0 0 0-0.903-0.204c-0.311 0-0.617 0.075-0.876 0.105z m-0.356 0.059c-0.626 0.207-1.265 0.589-1.876 1.095 0.215 0.24 0.463 0.446 0.765 0.673a4.671 4.671 0 0 0 1.139 0.629l0.06-0.142a3.932 3.932 0 0 0 0.12-0.356c0.172-0.601 0.128-1.083 0.015-1.445a2.054 2.054 0 0 0-0.223-0.454z m-21.513 0.916a1.002 1.002 0 0 0-0.586 0.194c-0.592 0.462-0.976 1.15-1.03 2.372-0.054 1.224 0.264 2.736 0.969 4.321 0.63 1.415 1.626 2.674 2.677 3.487 1.053 0.814 2.163 1.182 3.107 0.751 0.776-0.43 0.923-1.251 0.95-2.351 0.026-1.1-0.302-2.627-1.011-4.188-0.594-1.307-1.827-2.982-2.679-3.646-0.852-0.664-1.302-0.832-1.735-0.89a3.751 3.751 0 0 0-0.662-0.05Zm19.38 0.405c-0.729 0.729-1.358 1.499-1.815 2.249l1.808 0.993a4.058 4.058 0 0 0 0.665-0.391 4.387 4.387 0 0 0 1.334-1.492 5.429 5.429 0 0 1-1.183-0.675c-0.446-0.333-0.637-0.488-0.809-0.684z m-1.971 2.546a9.386 9.386 0 0 0-0.824 2.148l2.449-1.258c-0.513-0.276-1.09-0.586-1.625-0.89Zm1.779 1.171l-2.787 1.451-0.037 0.183c0.283 0.066 0.595 0.16 0.979 0.365 0.535 0.284 0.785 0.488 0.978 0.663 0.065-0.085 0.129-0.174 0.192-0.271 0.428-0.686 0.591-1.448 0.655-1.987 0.015-0.135 0.013-0.273 0.02-0.404z"/></svg>