<svg fill="#0770B8" role="img" viewBox="0 0 25 24" xmlns="http://www.w3.org/2000/svg"><title>OpenProject</title><path d="M20.084 0h-1.919a4.775 4.775 0 0 0-4.8 4.771v5.788H4.918A4.775 4.775 0 0 0 0.118 15.333v3.839c0 2.651 2.149 4.828 4.8 4.828h1.919c2.652 0 4.8-2.177 4.8-4.828v-3.838c0-0.065 0-0.163-0.005-0.163H8.758v4.003c0 1.059-0.862 1.946-1.921 1.946h-1.919c-1.06 0-1.92-0.891-1.92-1.946V15.333a1.898 1.898 0 0 1 1.919-1.892h15.165c2.652 0 4.8-2.177 4.8-4.827V4.774A4.775 4.775 0 0 0 20.084 0Zm1.92 8.611c0 1.059-0.862 1.946-1.92 1.946h-3.84V4.774a1.898 1.898 0 0 1 1.92-1.891h1.919a1.898 1.898 0 0 1 1.921 1.891z m-8.639 10.014a0.244 0.244 0 0 0 0 0.031c0 0.77 0.649 1.387 1.44 1.387 0.791 0 1.439-0.613 1.439-1.383a0.194 0.194 0 0 0 0-0.035v-3.456h-2.879z"/></svg>