<svg fill="#D3002D" role="img" viewBox="0 0 139 24" xmlns="http://www.w3.org/2000/svg"><title>O'Reilly</title><path d="M69.905 4.349v-3.891H53.979v22.992h15.932v-3.799H57.772v-5.792h11.595v-3.805H57.772v-5.705z m11.867 19.107v-22.998h3.799v19.193h11.051v3.805z m18.018 0v-22.998h3.805v19.193h11.044v3.805z m-25.807-22.998h3.805v22.992h-3.805zM6.251 6.342c-1.448 1.448-2.357 3.44-2.357 5.704 0 2.259 0.909 4.257 2.357 5.792a8.212 8.212 0 0 0 11.502 0c1.448-1.535 2.351-3.533 2.351-5.792 0-2.264-0.903-4.257-2.357-5.704a8.212 8.212 0 0 0-11.496 0M0.002 12.046c0-6.614 5.34-11.954 11.954-11.953 6.608 0 11.954 5.34 11.953 11.953a11.942 11.942 0 0 1-11.953 11.954A11.942 11.942 0 0 1 0.002 12.046Zm35.768-1.992v-5.705h7.697a2.896 2.896 0 0 1 2.896 2.809c0 1.627-1.355 2.896-2.896 2.896z m9.597 3.533c2.809-0.817 4.801-3.353 4.801-6.429 0-3.718-2.988-6.701-6.701-6.7H31.965v22.992h3.805v-9.591h5.34l5.705 9.597h4.529zM29.249 2.902a2.763 2.763 0 0 1-2.809 2.803 2.71 2.71 0 0 1-2.803-2.803c0-1.541 1.176-2.809 2.803-2.809 1.541 0 2.809 1.268 2.809 2.809z m102.417-2.444h-4.622l-5.884 8.513-5.884-8.513h-4.708l8.6 12.492v10.506h3.892v-10.506z m4.523 4.708a2.34 2.34 0 0 1-2.351-2.357c0-1.268 0.996-2.351 2.351-2.351 1.274 0 2.357 1.083 2.357 2.351a2.398 2.398 0 0 1-2.357 2.357m0-5.166a2.82 2.82 0 0 0-2.803 2.809c0 1.541 1.268 2.809 2.803 2.809a2.82 2.82 0 0 0 2.809-2.809 2.82 2.82 0 0 0-2.809-2.809z m-0.724 1.813h1.176c0.185 0 0.365 0.18 0.365 0.365a0.388 0.388 0 0 1-0.365 0.359h-1.176z m1.993 0.365a0.811 0.811 0 0 0-0.811-0.817h-1.633v2.896h0.451v-1.269h0.811l0.637 1.275h0.545l-0.638-1.275a0.869 0.869 0 0 0 0.638-0.81"/></svg>