<svg fill="#4CB05B" role="img" viewBox="0 0 24 24" xmlns="http://www.w3.org/2000/svg"><title>OSGeo</title><path d="M11.387 0L9.882 2.637c-4.102 0.919-7.205 4.449-7.471 8.764h2.41c0.293-3.503 3.077-6.286 6.566-6.579V2.424Zm1.213 2.411V4.822c3.489 0.293 6.273 3.076 6.565 6.565H24l-2.637-1.504c-0.919-4.102-4.448-7.205-8.763-7.472Zm-0.613 3.29l-0.746 4.554 1.492 0.999 0.998 1.492 4.555-0.759-4.555-0.746 1.971-2.957-2.956 1.971z m0.746 5.553L8.284 8.284l2.97 4.449 4.448 2.97z m-1.479 1.479l-0.999-1.492L5.701 12l4.554 0.746-1.971 2.957 2.944-1.971 0.759 4.554 0.759-4.554z m0.733-1.266c0.28 0 0.519 0.24 0.519 0.52 0 0.28-0.226 0.52-0.519 0.52s-0.519-0.24-0.519-0.52c0-0.293 0.24-0.519 0.519-0.52zM0 12.6l2.638 1.504c0.919 4.102 4.448 7.206 8.763 7.472v-2.411c-3.503-0.293-6.286-3.076-6.579-6.566H2.424Zm19.165 0c-0.293 3.489-3.076 6.273-6.565 6.565V24l1.504-2.637c4.102-0.919 7.205-4.448 7.472-8.764z"/></svg>