<svg fill="#E6830F" role="img" viewBox="0 0 55 24" xmlns="http://www.w3.org/2000/svg"><title>Oshkosh</title><path d="M20.518 7.15V1.174c0-0.94 0.416-1.174 1.019-1.174h12.114c0.602 0 0.972 0.329 0.972 1.219v5.931h-3.565V4.409c0-0.515 0-0.658-0.511-0.658H24.594c-0.559 0-0.559 0.143-0.559 0.613v2.786h-3.519z m10.538 11.305v1.09c0 0.513-0.093 0.654-0.509 0.654h-5.767c-0.695 0-0.742 0-0.743-0.656v-1.088h-3.519v4.371c0 0.938 0.37 1.174 0.972 1.174h12.113c0.556 0 1.019-0.329 1.02-1.222v-4.323h-3.565z m-4.623-4.325h1.989v3.142h2.377V12.704c0-0.198-0.098-0.983-0.776-0.983h-1.213l2.037-3.388h-2.523l-1.891 2.945v-2.945h-2.232v8.939h2.232v-3.142z m26.034-2.434h-2.039v-3.338h-2.279v8.889h2.279v-2.947h2.039v2.947H54.747v-8.889h-2.28v3.338z m-41.642-0.098v-0.885h4.026v-2.355H9.077a0.865 0.865 0 0 0-0.875 0.833v3.928c0 0.493 0.195 0.84 0.632 0.841h3.396v0.98H8.2v2.307h5.822c0.486 0 0.826-0.44 0.826-0.931v-3.882a0.822 0.822 0 0 0-0.826-0.836h-3.202z m31.947 0v-0.885h4.023v-2.355h-5.771a0.865 0.865 0 0 0-0.875 0.833v3.928c0 0.493 0.195 0.84 0.632 0.841h3.396v0.98H40.147v2.307h5.822c0.486 0 0.824-0.44 0.824-0.931v-3.882a0.822 0.822 0 0 0-0.824-0.836h-3.202z m-22.252 0.048H18.531v-3.288H16.202v8.889H18.531v-2.947h1.989v2.947H22.845v-8.889H20.52v3.288z m-13.669-2.421v7.153c0 0.477-0.393 0.87-0.869 0.869H1.123A0.872 0.872 0 0 1 0.253 16.378v-7.153c0-0.477 0.391-0.867 0.87-0.867h4.859c0.477 0 0.87 0.391 0.869 0.867z m-2.27 1.826a0.386 0.386 0 0 0-0.386-0.386H2.91a0.386 0.386 0 0 0-0.386 0.386v3.501c0 0.213 0.175 0.386 0.386 0.386h1.287a0.386 0.386 0 0 0 0.386-0.386v-3.501z m34.217-1.826v7.153c0 0.477-0.393 0.87-0.869 0.869h-4.859a0.872 0.872 0 0 1-0.87-0.869v-7.153c0-0.477 0.391-0.867 0.87-0.867h4.859c0.477 0 0.867 0.391 0.867 0.867z m-2.27 1.826a0.386 0.386 0 0 0-0.386-0.386h-1.288a0.386 0.386 0 0 0-0.386 0.386v3.501c0 0.213 0.173 0.386 0.386 0.386h1.288a0.386 0.386 0 0 0 0.386-0.386v-3.501z"/></svg>