<svg fill="#D4021D" role="img" viewBox="0 0 72 24" xmlns="http://www.w3.org/2000/svg"><title>Otto</title><path d="M62.349 0c-3.541 0-6.424 1.096-8.459 3.354 0.287-0.785 0.441-1.742 0.462-2.868h-12.417c-2.708 0-4.258 1.191-5.322 4.258l0.548-4.258H24.613c-2.296 0-3.873 1.096-4.444 3.247-1.553-2.489-4.317-3.733-7.811-3.733C5.715 0 1.392 3.84 0.619 12.03l-0.098 1.037c-0.676 7.319 3.161 10.933 9.126 10.933 6.646 0 10.969-3.873 11.742-12.065l0.098-1.031c0.175-1.879 0.044-3.511-0.338-4.904h5.627l-1.615 13.807c-0.32 2.741 1.161 4 3.645 4 1.517 0 2.033-0.101 2.613-0.195l2-17.612h6.548l-1.612 13.807c-0.326 2.741 1.161 4 3.645 4 1.514 0 2.03-0.101 2.61-0.195l2-17.612h3.227c1.114 0 2.015-0.258 2.711-0.77-1.013 1.79-1.677 4.047-1.938 6.803l-0.095 1.031c-0.679 7.321 3.159 10.933 9.126 10.933 6.646 0 10.966-3.87 11.739-12.059l0.098-1.034c0.679-7.289-3.161-10.904-9.126-10.904zM14.844 10.45l-0.065 0.777c-0.45 5.547-2.258 7.256-4.483 7.256-2 0-3.416-1.354-3.126-4.966l0.062-0.806c0.453-5.517 2.258-7.259 4.483-7.259 1.967 0 3.419 1.387 3.129 4.998z m49.994 0l-0.065 0.777c-0.453 5.547-2.258 7.256-4.483 7.256-2 0-3.419-1.354-3.129-4.966l0.065-0.806c0.45-5.517 2.258-7.259 4.483-7.259 1.967 0 3.419 1.387 3.129 4.998z"/></svg>