<svg fill="#47A141" role="img" viewBox="0 0 21 24" xmlns="http://www.w3.org/2000/svg"><title>Overleaf</title><path d="M20.852 0.748C17.611-0.51 5.865-0.982 5.845 6.027c-3.427 2.194-5.697 5.768-5.696 9.598a8.373 8.373 0 0 0 13.122 6.898 8.373 8.373 0 0 0-1.767-14.72c-0.606-0.234-1.923-0.648-2.975-0.559-1.501 0.954-3.331 2.916-4.195 4.87 2.589-3.082 7.505-2.425 9.194 1.228 1.689 3.654-0.994 7.824-5.02 7.8a5.5 5.5 0 0 1-4.195-1.933c-1.485-1.748-1.868-3.644-1.561-5.497 1.057-6.495 8.759-10.189 14.486-11.61-1.868 0.989-5.237 2.613-7.595 4.384C16.515 9.138 17.631 3.345 20.852 0.748z"/></svg>