<svg fill="#041E42" role="img" viewBox="0 0 45 24" xmlns="http://www.w3.org/2000/svg"><title>ownCloud</title><path d="M9.898 7.412c-0.254-0.458-0.407-0.984-0.407-1.526 0-1.713 1.391-3.104 3.104-3.104 0.628 0 1.221 0.186 1.713 0.526a6.519 6.519 0 0 0-0.577 2.696c0 0.169 0.017 0.356 0.017 0.526-0.119 0-0.238-0.017-0.373-0.017a6.815 6.815 0 0 0-3.477 0.899z m-0.678 12.059c-1.798-1.306-2.985-3.426-2.985-5.817 0-0.611 0.085-1.204 0.22-1.764H6.269C2.978 11.89 0.298 14.57 0.298 17.86c0 3.291 2.68 5.97 5.971 5.97 1.255 0 2.425-0.39 3.392-1.051-0.39-0.611-0.628-1.357-0.628-2.137 0-0.407 0.068-0.797 0.187-1.171z m0.254-0.644c0.543-1.035 1.51-1.798 2.68-2.035 0.102-0.017 0.221-0.034 0.339-0.051 0.119-0.017 0.22-0.017 0.339-0.034h0.153c0.187 0 0.356 0.017 0.543 0.034-0.051-0.407-0.085-0.814-0.085-1.239 0-2.001 0.661-3.867 1.764-5.376-0.254-0.305-0.475-0.644-0.661-1.001l-0.153-0.305c-0.051-0.102-0.102-0.204-0.136-0.306-0.17-0.424-0.305-0.865-0.39-1.322-0.153-0.017-0.305-0.017-0.458-0.017-1.119 0-2.188 0.288-3.104 0.797-0.102 0.051-0.204 0.119-0.305 0.169-0.102 0.068-0.187 0.119-0.288 0.187-1.052 0.729-1.883 1.764-2.358 2.968-0.034 0.102-0.085 0.22-0.119 0.322-0.034 0.102-0.068 0.221-0.101 0.323a6.332 6.332 0 0 0-0.238 1.713c0.017 2.103 1.035 3.986 2.578 5.173z m20.947-7.65c0.865-0.458 1.832-0.729 2.866-0.797-0.271-3.053-2.833-5.462-5.953-5.461-0.119 0-0.238 0-0.356 0.017 0.051 0.339 0.085 0.695 0.085 1.051 0 0.56-0.068 1.103-0.204 1.612 1.493 0.831 2.747 2.069 3.562 3.578z m-15.926-4.257c0.017 0.119 0.051 0.237 0.068 0.356 0.068 0.271 0.136 0.543 0.237 0.798 0.051 0.119 0.085 0.22 0.136 0.339 0.051 0.102 0.102 0.221 0.152 0.322 0.153 0.305 0.339 0.594 0.543 0.865 0.424-0.475 0.882-0.916 1.391-1.306 0.102-0.068 0.187-0.136 0.288-0.204l0.305-0.203c1.374-0.882 3.002-1.391 4.733-1.408h0.118c0.119 0 0.22 0 0.34 0.017 0.153 0 0.305 0.017 0.457 0.034 1.052 0.085 2.035 0.356 2.952 0.78 0.085-0.424 0.136-0.848 0.135-1.306 0-0.339-0.034-0.662-0.084-0.967-0.017-0.119-0.034-0.221-0.068-0.339-0.017-0.119-0.051-0.221-0.085-0.322-0.678-2.544-2.985-4.376-5.716-4.376-2.256 0-4.223 1.255-5.241 3.087-0.051 0.102-0.119 0.204-0.17 0.305-0.051 0.119-0.102 0.221-0.152 0.339-0.271 0.695-0.441 1.442-0.441 2.239 0 0.204 0.017 0.39 0.034 0.594 0.034 0.119 0.051 0.237 0.068 0.356z m26.934 10.109a2.638 2.638 0 0 0-0.526 0.051c0.017 0.153 0.017 0.305 0.017 0.441 0 1.9-0.746 3.63-1.968 4.919 0.594 0.695 1.493 1.136 2.476 1.136 1.798 0 3.274-1.476 3.274-3.274 0-1.798-1.476-3.274-3.274-3.273z m-1.204 0.22c0-0.119-0.017-0.238-0.017-0.356-0.017-0.119-0.017-0.238-0.034-0.339-0.458-3.053-3.036-5.41-6.174-5.512h-0.339c-0.119 0-0.221 0-0.339 0.017a6.57 6.57 0 0 0-2.578 0.729c0.475 1.035 0.746 2.171 0.797 3.358 0 0.119 0.017 0.237 0.017 0.357v0.101c0 0.153 0 0.305-0.017 0.458-0.136 2.256-1.103 4.274-2.595 5.784a6.482 6.482 0 0 0 4.834 2.154c1.645 0 3.155-0.628 4.308-1.645 0.085-0.085 0.17-0.153 0.254-0.238 0.085-0.085 0.17-0.169 0.238-0.254 1.052-1.153 1.679-2.68 1.679-4.359a1.042 1.042 0 0 1-0.034-0.255zM14.851 20.336c-0.068-0.102-0.119-0.204-0.187-0.305a9.153 9.153 0 0 1-1-2.578c-0.221-0.051-0.441-0.068-0.662-0.068h-0.068c-0.119 0-0.221 0.017-0.339 0.017-0.119 0.017-0.22 0.034-0.339 0.068-0.967 0.221-1.764 0.882-2.188 1.747-0.051 0.102-0.102 0.204-0.136 0.322-0.034 0.102-0.068 0.221-0.102 0.323a3.11 3.11 0 0 0-0.101 0.797c0 0.628 0.187 1.221 0.492 1.713 0.068 0.102 0.119 0.186 0.203 0.288 0.068 0.085 0.136 0.17 0.221 0.255a3.264 3.264 0 0 0 2.374 1.017c1.391 0 2.578-0.865 3.053-2.086-0.356-0.373-0.695-0.763-0.984-1.204a0.935 0.935 0 0 1-0.237-0.306z m15.977-4.189c0.017-0.136 0.017-0.288 0.017-0.441v-0.22c0-1.204-0.254-2.341-0.713-3.376l-0.152-0.305-0.153-0.305c-0.746-1.357-1.849-2.493-3.189-3.257-0.102-0.051-0.204-0.119-0.305-0.169l-0.305-0.153c-1.035-0.492-2.171-0.763-3.375-0.797h-0.425c-0.153 0-0.288 0.017-0.423 0.017a8.118 8.118 0 0 0-3.63 1.17c-0.102 0.068-0.204 0.119-0.288 0.187-0.102 0.068-0.186 0.136-0.289 0.203-0.56 0.407-1.069 0.865-1.509 1.391-0.068 0.085-0.152 0.169-0.221 0.271-0.068 0.085-0.136 0.186-0.203 0.272-0.984 1.374-1.561 3.036-1.561 4.851 0 0.475 0.034 0.95 0.119 1.39 0.017 0.136 0.051 0.254 0.068 0.39 0.034 0.136 0.068 0.271 0.102 0.424 0.204 0.763 0.526 1.476 0.933 2.137 0.068 0.102 0.119 0.204 0.186 0.289 0.068 0.102 0.136 0.186 0.204 0.288 0.153 0.221 0.322 0.424 0.491 0.611 0.102 0.102 0.186 0.221 0.289 0.322 0.085 0.102 0.187 0.186 0.288 0.271 1.493 1.374 3.494 2.222 5.682 2.222 2.103 0 4.037-0.78 5.512-2.069 0.085-0.068 0.17-0.153 0.255-0.22 0.085-0.085 0.17-0.153 0.254-0.238 1.221-1.272 2.052-2.917 2.29-4.749a14.553 14.553 0 0 0 0.051-0.407z"/></svg>