<svg fill="#EE2E24" role="img" viewBox="0 0 69 24" xmlns="http://www.w3.org/2000/svg"><title>OYO</title><path d="M56.989 24C63.561 24 68.909 18.615 68.909 12c0-6.621-5.348-12-11.92-12-6.575 0-11.923 5.379-11.923 12 0 6.615 5.348 12 11.923 12z m0-16.278c2.343 0 4.249 1.921 4.249 4.278s-1.91 4.272-4.252 4.272A4.267 4.267 0 0 1 52.737 12c0-2.363 1.907-4.281 4.249-4.281zM12.011 24c6.575 0 11.923-5.385 11.923-12 0-6.621-5.348-12-11.923-12C5.442 0 0.091 5.379 0.091 12c0 6.615 5.351 12 11.92 12z m0-16.278c2.346 0 4.252 1.921 4.252 4.278s-1.907 4.272-4.252 4.272A4.267 4.267 0 0 1 7.767 12c0-2.363 1.904-4.281 4.244-4.281z m22.48-0.27L30.835 0.158H22.265l8.003 15.954v7.512h8.453v-7.512l8.003-15.954h-8.574l-3.656 7.294Z"/></svg>