<svg fill="#ED225D" role="img" viewBox="0 0 52 24" xmlns="http://www.w3.org/2000/svg"><title>p5.js</title><path d="M2.948 5.774v1.697h0.075c0.151-0.238 0.348-0.476 0.593-0.721a4.003 4.003 0 0 1 0.9-0.66 5.532 5.532 0 0 1 2.711-0.67 5.694 5.694 0 0 1 4.249 1.847c0.524 0.575 0.928 1.251 1.214 2.025 0.288 0.779 0.433 1.612 0.433 2.508 0 0.894-0.141 1.733-0.42 2.516a6.179 6.179 0 0 1-1.188 2.051 5.716 5.716 0 0 1-1.873 1.393c-0.736 0.346-1.564 0.519-2.493 0.52-0.861 0-1.651-0.18-2.367-0.533a4.024 4.024 0 0 1-1.657-1.445h-0.052v7.698H0.038V5.77z m7.087 6.026c0-0.474-0.074-0.941-0.216-1.406a3.938 3.938 0 0 0-0.645-1.253 3.252 3.252 0 0 0-1.088-0.9 3.31 3.31 0 0 0-1.545-0.34 3.115 3.115 0 0 0-1.495 0.353 3.829 3.829 0 0 0-1.125 0.911 3.884 3.884 0 0 0-0.709 1.265 4.262 4.262 0 0 0 0 2.824 3.909 3.909 0 0 0 0.709 1.255 3.65 3.65 0 0 0 1.125 0.895c0.439 0.227 0.939 0.344 1.495 0.344a3.209 3.209 0 0 0 2.633-1.268c0.286-0.37 0.5-0.792 0.643-1.265a4.864 4.864 0 0 0 0.216-1.415z m29.602-6.608v13.464c0 0.725-0.061 1.413-0.178 2.06a4.366 4.366 0 0 1-0.67 1.698 3.511 3.511 0 0 1-1.342 1.151c-0.567 0.286-1.302 0.431-2.215 0.431a5.79 5.79 0 0 1-0.757-0.052 7.587 7.587 0 0 1-0.608-0.102l0.253-2.579a3.812 3.812 0 0 0 0.835 0.102 1.627 1.627 0 0 0 0.859-0.204 1.357 1.357 0 0 0 0.506-0.558c0.119-0.236 0.195-0.508 0.227-0.822 0.035-0.312 0.052-0.645 0.052-0.997V5.192z m10.35 3.819a3.507 3.507 0 0 0-1.112-0.924 3.135 3.135 0 0 0-1.545-0.389c-0.489 0-0.935 0.1-1.341 0.303a1.045 1.045 0 0 0-0.606 1.01 1.017 1.017 0 0 0 0.671 1c0.446 0.195 1.099 0.394 1.96 0.597 0.454 0.102 0.915 0.236 1.38 0.404 0.463 0.167 0.887 0.389 1.266 0.671a3.31 3.31 0 0 1 0.924 1.039c0.236 0.411 0.353 0.915 0.352 1.503 0 0.744-0.138 1.372-0.415 1.887-0.281 0.515-0.651 0.93-1.114 1.255a4.693 4.693 0 0 1-1.623 0.692 8.403 8.403 0 0 1-1.91 0.218 7.587 7.587 0 0 1-2.759-0.519 5.829 5.829 0 0 1-2.228-1.482l2.001-1.873a3.955 3.955 0 0 0 3.116 1.521c0.216 0 0.441-0.026 0.67-0.076a2.276 2.276 0 0 0 0.628-0.242 1.313 1.313 0 0 0 0.471-0.444 1.255 1.255 0 0 0 0.176-0.684 1.125 1.125 0 0 0-0.693-1.088c-0.467-0.216-1.164-0.437-2.092-0.655a10.028 10.028 0 0 1-1.328-0.394 4.336 4.336 0 0 1-1.149-0.632 2.921 2.921 0 0 1-0.811-0.976 3.072 3.072 0 0 1-0.303-1.443c0-0.673 0.138-1.255 0.415-1.744a3.591 3.591 0 0 1 1.103-1.203c0.454-0.314 0.967-0.545 1.543-0.696a6.889 6.889 0 0 1 1.772-0.227c0.876 0 1.733 0.151 2.568 0.454 0.835 0.303 1.497 0.768 1.988 1.391z m-17.936 6.341l1.811-0.545 0.355 1.093-1.802 0.612 1.118 1.588-0.943 0.684-1.177-1.56-1.147 1.516-0.915-0.696 1.119-1.532-1.818-0.653 0.357-1.095 1.824 0.586v-1.886h1.221v1.886z m-6.246-5.72a4.996 4.996 0 0 0-1.302-1.772 5.796 5.796 0 0 0-1.962-1.101 7.609 7.609 0 0 0-2.445-0.379c-0.32 0-0.677 0.017-1.076 0.052a5.268 5.268 0 0 0-1.025 0.178l0.177-3.873h7.317V0H15.291l-0.303 9.794a7.544 7.544 0 0 1 0.921-0.378 14.201 14.201 0 0 1 1.063-0.318 9.708 9.708 0 0 1 1.114-0.215 8.178 8.178 0 0 1 1.075-0.075c0.491 0 0.974 0.054 1.445 0.164 0.472 0.108 0.898 0.303 1.279 0.582 0.376 0.279 0.686 0.645 0.922 1.101 0.238 0.454 0.355 1.03 0.354 1.72 0 0.541-0.087 1.026-0.266 1.456a3.057 3.057 0 0 1-0.72 1.076 3.122 3.122 0 0 1-1.06 0.657c-0.411 0.151-0.839 0.229-1.294 0.23-0.811 0-1.51-0.216-2.103-0.647a3.529 3.529 0 0 1-1.263-1.709l-0.033 0.013-2.198 2.059c0.444 0.725 1.017 1.333 1.724 1.813 1.028 0.701 2.293 1.051 3.795 1.052a7.393 7.393 0 0 0 2.531-0.433 5.852 5.852 0 0 0 3.482-3.226c0.346-0.783 0.519-1.672 0.519-2.667 0-0.913-0.156-1.718-0.468-2.419z"/></svg>