<svg fill="#F37143" role="img" viewBox="0 0 41 24" xmlns="http://www.w3.org/2000/svg"><title>Packt</title><path d="M22.131 0c-1.195 0-2.271 0.257-3.224 0.764a6.591 6.591 0 0 0-1.506 1.084v-1.583H12.876v23.735h4.49V15.548c0.439 0.421 0.945 0.782 1.517 1.078 0.966 0.497 2.05 0.743 3.244 0.744 1.544 0 2.923-0.378 4.145-1.139 2.09-1.301 3.934-3.836 3.933-7.524 0-3.727-1.842-6.259-3.933-7.565-1.218-0.76-2.597-1.142-4.141-1.142zM6.645 0.265L0.224 8.266l6.458 8.673H12.204L5.313 8.266l6.548-8.002Zm22.493 0l6.547 8.003-6.89 8.673h5.521L40.776 8.266l-6.421-8.002Zm-7.805 3.917c1.701 0 3.021 0.833 3.717 2.154 0.764 1.453 0.667 3.437 0 4.698-0.373 0.708-1.419 2.158-3.717 2.157-0.828 0-1.563-0.186-2.195-0.568a3.95 3.95 0 0 1-1.485-1.589c-0.357-0.681-0.534-1.468-0.534-2.364s0.177-1.652 0.534-2.332c0.664-1.264 1.953-2.156 3.68-2.156z"/></svg>