<svg fill="#004833" role="img" viewBox="0 0 35 24" xmlns="http://www.w3.org/2000/svg"><title>Paddy Power</title><path d="M21.864 0.001a26.617 26.617 0 0 0-2.354 0.121c-1.182 0.119-2.482 0.355-3.664 0.591l0.826 9.22 0.356 2.838 0.947 9.929 2.244-0.12 2.601-0.235v-0.119l-0.591-5.909v-0.829a27.801 27.801 0 0 0 2.954-0.591 14.717 14.717 0 0 0 2.364-1.182 7.612 7.612 0 0 0 2.482-2.955 9.455 9.455 0 0 0 0.592-4.016 6.879 6.879 0 0 0-4.138-5.911 10.638 10.638 0 0 0-3.901-0.828 26.617 26.617 0 0 0-0.718-0.004z m-15.601 1.419a26.617 26.617 0 0 0-2.355 0.123A20.309 20.309 0 0 0 0.125 2.016l0.828 9.218 0.236 2.838 0.947 9.928 2.246-0.119 2.599-0.237-0.474-5.909v-0.827a27.796 27.796 0 0 0 2.956-0.591 14.717 14.717 0 0 0 2.364-1.183 7.612 7.612 0 0 0 2.482-2.953 8.64 8.64 0 0 0 0.591-3.903A6.737 6.737 0 0 0 10.883 2.251a10.638 10.638 0 0 0-3.902-0.826 26.617 26.617 0 0 0-0.718-0.005zM21.989 4.371a1.785 1.785 0 0 1 0.123 0.008 4.727 4.727 0 0 1 2.125 0.471 2.99 2.99 0 0 1 1.538 2.364 3.759 3.759 0 0 1-0.238 1.655 2.695 2.695 0 0 1-0.826 1.183 3.546 3.546 0 0 1-1.891 0.828 2.577 2.577 0 0 1-0.946 0.118l-0.592-6.501a1.785 1.785 0 0 1 0.707-0.126z m-15.844 1.419a1.785 1.785 0 0 1 0.247 0.007 4.727 4.727 0 0 1 2.128 0.473 2.99 2.99 0 0 1 1.535 2.365 7.163 7.163 0 0 1-0.236 1.655 2.695 2.695 0 0 1-0.83 1.181 3.546 3.546 0 0 1-1.889 0.825 2.577 2.577 0 0 1-0.946 0.119l-0.591-6.501a1.785 1.785 0 0 1 0.582-0.124z m25.775 10.526A2.954 2.954 0 1 0 34.875 19.273a2.954 2.954 0 0 0-2.954-2.954z"/></svg>