<svg fill="#0062B0" role="img" viewBox="0 0 41 24" xmlns="http://www.w3.org/2000/svg"><title>PaddlePaddle</title><path d="M20.787 0c-1.061 0-1.926 0.861-1.926 1.922s0.864 1.926 1.926 1.926 1.922-0.864 1.922-1.926-0.861-1.922-1.922-1.922z m16.726 0c-1.061 0-1.926 0.861-1.926 1.922s0.864 1.926 1.926 1.926c1.061 0 1.922-0.864 1.922-1.926S38.574 0 37.513 0zM11.581 5.316c-0.055 0-0.105 0.032-0.128 0.082l-3.269 7.186H1.672c-0.086 0-0.164 0.049-0.2 0.127l-1.049 2.341c-0.036 0.081 0.023 0.173 0.111 0.173h6.45l-3.897 8.572c-0.043 0.094 0.025 0.203 0.128 0.203h2.772c0.055 0 0.108-0.035 0.131-0.085l8.366-18.399c0.042-0.094-0.025-0.199-0.127-0.2z m5.823 0c-0.042 0-0.081 0.024-0.098 0.062l-0.971 2.151c-0.032 0.071 0.021 0.15 0.098 0.151h1.713c0.363-0.005 0.632 0.019 0.928 0.065 1.381 0.215 2.236 1.227 2.217 2.57-0.019 1.269-1.072 2.279-2.341 2.279H12.813c-0.105 0-0.199 0.062-0.241 0.156l-1.02 2.243c-0.049 0.108 0.031 0.229 0.15 0.229h7.173c2.974 0 5.347-2.566 5.015-5.522-0.271-2.41-2.243-4.3-4.704-4.384-0.022-0.001-0.044 0.002-0.066 0.007a0.103 0.103 0 0 0-0.036-0.007z m10.841 0c-0.055 0-0.108 0.031-0.131 0.082l-8.366 18.399c-0.042 0.094 0.028 0.203 0.131 0.203h2.772c0.055 0 0.105-0.035 0.127-0.085l8.37-18.4c0.043-0.094-0.028-0.199-0.131-0.199z m5.822 0c-0.042 0-0.078 0.024-0.095 0.062l-0.971 2.151c-0.032 0.071 0.018 0.15 0.095 0.151h1.713c0.364-0.005 0.632 0.019 0.929 0.065 1.381 0.215 2.239 1.227 2.22 2.57-0.019 1.269-1.072 2.279-2.341 2.279h-6.14c-0.105 0-0.199 0.062-0.242 0.156l-1.02 2.243c-0.049 0.108 0.031 0.229 0.151 0.229h7.173c2.974 0 5.35-2.566 5.018-5.522-0.27-2.41-2.247-4.3-4.708-4.384-0.022-0.001-0.044 0.002-0.065 0.007a0.102 0.102 0 0 0-0.036-0.007z"/></svg>