<svg fill="#4285F4" role="img" viewBox="0 0 28 24" xmlns="http://www.w3.org/2000/svg"><title>PageSpeed Insights</title><path d="M25.999 0H1.999C0.953 0 0.106 0.85 0.107 1.895L0.106 22.105v0.003c0 1.046 0.849 1.892 1.893 1.892h24.002c1.047 0 1.893-0.85 1.893-1.895V1.895c0.019-1.03-0.88-1.899-1.895-1.895zM4.713 1.447c0.57-0.587 1.481 0.324 0.891 0.894-0.569 0.588-1.48-0.323-0.891-0.893zM2.19 1.452c0.587-0.589 1.482 0.307 0.894 0.893-0.571 0.581-1.475-0.324-0.894-0.893z m25.125 20.654c0.014 0.707-0.607 1.329-1.316 1.315H1.999A1.316 1.316 0 0 1 0.685 22.105L0.686 3.791H27.315v18.316zM12.842 16.816l6.885-5.3c0.272-0.232 0.667 0.149 0.45 0.431l-0.002-0.003-4.558 7.353a1.897 1.897 0 0 1-2.834 0.469c-0.909-0.773-0.939-2.125 0.058-2.95z m5.515-0.869c0.104-0.195 2.318-3.683 2.385-3.879 2.381 2.099 3.507 5.074 3.356 8.135h-4.422c0.085-1.609-0.336-3.101-1.319-4.256z m-10.049 4.263H3.901c-0.413-8.13 8.276-13.587 15.504-9.17l-4.008 3.031c-3.821-0.882-7.369 1.98-7.089 6.139z"/></svg>