<svg fill="#83DA77" role="img" viewBox="0 0 25 24" xmlns="http://www.w3.org/2000/svg"><title>Palo Alto Software</title><path d="M12.495 0c-0.58 0-1.158 0.228-1.616 0.685L1.18 10.384c-0.913 0.913-0.913 2.319 0 3.233l0.842 0.843 8.014-8.153a3.436 3.436 0 0 1 4.849 0l8.082 8.083 0.843-0.843c0.914-0.843 0.915-2.249 0.072-3.163L14.112 0.685a2.28 2.28 0 0 0-1.617-0.685z m0 6.466c-0.58 0-1.158 0.228-1.616 0.684L1.18 16.85c-0.913 0.913-0.913 2.319 0 3.232l3.232 3.233c0.914 0.913 2.319 0.913 3.234 0l4.849-4.848 4.85 4.848c0.913 0.913 2.319 0.913 3.232 0l3.233-3.232c0.914-0.843 0.915-2.319 0.072-3.233l-9.77-9.7a2.28 2.28 0 0 0-1.617-0.684z"/></svg>