<svg fill="#0064FF" role="img" viewBox="0 0 31 24" xmlns="http://www.w3.org/2000/svg"><title>Paramount+</title><path d="M20.955 23.762c0.072-0.105 0.189-0.394-0.032-0.929l-0.665-1.792c-0.092-0.228 0.105-0.368 0.239-0.217 0 0 1.26 1.452 1.586 2.058l0.621 1.031c0.533 0.035 2.008 0.075 3.428 0.076a4.091 4.091 0 0 1-0.396-0.457c-2.422-3.002-3.958-4.673-3.973-4.689-0.491-0.535-0.718-0.637-1.092-0.807a6.048 6.048 0 0 1-0.173-0.082v0.457c0 0.059-0.072 0.092-0.108 0.028l-3.571-6.276a2.005 2.005 0 0 0-0.638-0.736l-0.347-0.244-1.699 3.919c0.266 0 0.444 0.271 0.339 0.513l-1.569 3.63h1.439c0.556 0 1.108 0.109 1.624 0.32l0.379 0.157s-1.146 2.357-1.146 3.598c0 0.227 0.035 0.454 0.094 0.67h2.641l-0.121-0.747s1.589 0.369 3.14 0.519M15.5 0c-8.316 0-15.058 6.742-15.058 15.058 0 3.349 1.095 6.441 2.944 8.942 0.631-0.274 0.983-0.68 1.233-0.993l2.804-3.586a0.586 0.586 0 0 1 0.224-0.173l0.422-0.183 4.61-5.847 0.67-0.523 1.373-1.912a0.605 0.605 0 0 1 0.127-0.128l0.6-0.436a0.427 0.427 0 0 1 0.499-0.005l0.725 0.511c0.386 0.271 0.699 0.632 0.911 1.054l2.914 5.116c0.064 0.113 0.113 0.162 0.228 0.218 0.57 0.285 0.919 0.336 1.669 1.146 0.348 0.381 1.876 2.091 4.02 4.748 0.296 0.399 0.675 0.738 1.208 0.983A14.993 14.993 0 0 0 30.558 15.058c0-8.316-6.742-15.058-15.058-15.058M4.503 15.89l-0.977-0.317-0.602 0.83v-1.026l-0.976-0.318 0.976-0.317v-1.027l0.602 0.831 0.977-0.317-0.603 0.83Zm-0.233 3.358l-0.316 0.976-0.317-0.976h-1.027l0.83-0.604-0.318-0.975 0.832 0.603 0.828-0.603-0.316 0.975 0.831 0.604Zm0.196-7.774l0.318 0.976-0.83-0.602-0.832 0.602 0.318-0.976-0.828-0.602h1.025l0.317-0.976 0.316 0.975h1.027Zm1.649-2.208L5.511 8.436l-0.976 0.318 0.603-0.83-0.603-0.832 0.976 0.319 0.603-0.831v1.027l0.976 0.317-0.975 0.317Zm2.566-3.592l-0.317 0.975-0.316-0.975h-1.027l0.831-0.602-0.318-0.976 0.83 0.602 0.829-0.602-0.316 0.975 0.831 0.602Zm3.234-1.647l-0.602 0.829V3.831l-0.978-0.319 0.976-0.317v-1.025l0.603 0.828 0.978-0.318-0.603 0.832 0.602 0.828z m4.097-0.941l0.317 0.976-0.829-0.602-0.831 0.602 0.317-0.975-0.829-0.604h1.027L15.5 1.506l0.316 0.976h1.027z m3.677 0.746v1.024l-0.604-0.829-0.975 0.316 0.602-0.831-0.602-0.83 0.975 0.317 0.602-0.828v1.025l0.978 0.316z m6.808 10.397l0.977 0.317 0.602-0.831v1.027l0.976 0.317-0.976 0.318v1.026l-0.602-0.83-0.977 0.317 0.603-0.831z m-3.861-7.58l-0.317-0.975h-1.027l0.831-0.602-0.317-0.976 0.83 0.602 0.831-0.602-0.319 0.976 0.831 0.602h-1.027z m2.249 2.618v-1.026l-0.975-0.317 0.975-0.317V6.579l0.603 0.831 0.975-0.319-0.602 0.832 0.602 0.828-0.975-0.316z m1.843 1.604l0.318-0.975 0.318 0.975h1.024l-0.828 0.603 0.316 0.976-0.83-0.602-0.83 0.602 0.318-0.976-0.831-0.602z m0.635 8.377l-0.317 0.976-0.318-0.976h-1.025l0.831-0.604-0.318-0.975 0.828 0.603 0.832-0.603-0.317 0.975 0.829 0.604z m-15.158-0.772l0.953-1.992c0.03-0.06-0.04-0.136-0.084-0.085l-0.833 0.839c-0.393 0.413-1.063 1.569-1.192 1.783l-1.014 1.675a0.137 0.137 0 0 1 0.126 0.203l-0.928 1.554c-0.226 0.388 0.182 0.656 0.238 0.567 1.452-2.344 2.299-2.157 2.298-2.157l0.486-1.126c0.028-0.059-0.001-0.125-0.063-0.15-0.151-0.063-0.397-0.339 0.013-1.111z"/></svg>