<svg fill="#004B8D" role="img" viewBox="0 0 146 24" xmlns="http://www.w3.org/2000/svg"><title>Paychex</title><path d="M128.443 11.334l-5.278-10.738h7.679l2.22 5.941 4.56-5.941H145.967l-9.547 10.738 5.588 12.125h-7.923l-2.517-6.36-5.345 6.36h-8.634Zm-23.757-10.738h18.898l-1.198 5.88h-11.881l-0.602 2.821h11.042l-1.143 5.461h-11.036l-0.608 2.821h12.124l-1.197 5.88h-19.203Zm-22.444 0h7.078l-1.678 7.923h6.421l1.678-7.923h7.084l-4.803 22.863h-7.017l1.854-9.06h-6.415l-1.921 9.06H77.5z m-4.08 14.162c-0.426 2.341-2.219 9.242-11.765 9.242-6.658 0-9.838-4.317-9.839-10.44 0-7.382 4.621-13.56 12.423-13.56 5.102 0 9.662 2.213 9.777 9.06h-6.658c0.061-2.165-0.961-3.363-3.119-3.363-3.904 0-5.339 4.5-5.339 7.741 0 1.921 0.474 4.804 3.715 4.804 2.219 0 3.484-1.502 3.904-3.545z m-34.987 0.304l-4.919-14.466h7.083l2.159 8.519 5.582-8.519h8.282L50.198 14.995l-1.739 8.464H41.436Zm-11.517-6.604l0.839 6.841h-4.378Zm-15.061 15.001h7.199l1.739-3.241h7.443l0.358 3.241h6.902l-3.484-22.863H29.798Zm-6.002-16.983h2.402c1.496 0 3.059 0.304 3.058 2.043 0 1.496-0.961 2.578-3.782 2.578H9.64ZM0.033 23.459h6.962l1.442-6.902h4.742c5.995 0 9.893-3.958 9.893-8.579 0-5.047-2.7-7.382-6.895-7.382H4.831Z"/></svg>