<svg fill="#5C6AC4" role="img" viewBox="0 0 25 24" xmlns="http://www.w3.org/2000/svg"><title>Payhip</title><path d="M4.195 0A3.696 3.696 0 0 0 0.5 3.695v12.92A7.384 7.384 0 0 0 7.885 24h12.92A3.696 3.696 0 0 0 24.5 20.305V0H4.195z m11.653 5.604a3.88 3.88 0 0 1 0.166 0 3.88 3.88 0 0 1 2.677 1.132 3.88 3.88 0 0 1 0 5.48l-0.36 0.356c-1.826-1.825-3.648-3.656-5.476-5.482l0.358-0.354a3.88 3.88 0 0 1 2.635-1.132z m-6.627 0.125a3.88 3.88 0 0 1 2.566 1c2.068 2.062 4.127 4.133 6.192 6.199l-5.481 5.482-6.19-6.203C4.049 9.7 5.846 5.702 9.222 5.729z m-1.744 1.71a0.464 0.464 0 0 0-0.465 0.465v1.817c0 0.256 0.208 0.463 0.465 0.463h1.816a0.464 0.464 0 0 0 0.463-0.463l0.008-1.817A0.464 0.464 0 0 0 9.3 7.44H7.477z"/></svg>