<svg fill="#FF4800" role="img" viewBox="0 0 27 24" xmlns="http://www.w3.org/2000/svg"><title>Payoneer</title><path d="M2.09 2.58c0.254 1.953 1.122 6.116 1.515 7.873 0.103 0.498 0.218 0.925 0.323 1.098 0.543 0.938 0.983-0.311 0.983-0.311C6.61 6.163 3.928 2.891 3.072 2.013c-0.151-0.163-0.416-0.36-0.659-0.43-0.347-0.103-0.405 0.093-0.406 0.256 0.011 0.16 0.07 0.612 0.082 0.74z m23.67-1.586c0.336 0.243 1.502 1.469 0 1.654-2.151 0.254-6.244 0.404-13.033 6.081C10.161 10.881 4.402 16.673 1.316 23.878a0.196 0.196 0 0 1-0.234 0.115c-0.276-0.08-0.774-0.382-0.521-1.537 0.347-1.561 3.47-9.689 11.726-16.859 2.694-2.336 9.123-7.84 13.471-4.602z"/></svg>