<svg fill="#003087" role="img" viewBox="0 0 20 24" xmlns="http://www.w3.org/2000/svg"><title>PayPal</title><path d="M5.015 19.198h-4.2a0.562 0.562 0 0 1-0.555-0.65L3.092 0.584A0.692 0.692 0 0 1 3.775 0h7.222c3.417 0 5.904 2.488 5.846 5.5-0.006 0.25-0.027 0.5-0.066 0.747A6.794 6.794 0 0 1 10.07 12H6.742a0.69 0.69 0 0 0-0.682 0.583l-0.325 2.056-0.013 0.083-0.692 4.39-0.015 0.087zM17.789 6.142c-0.01 0.087-0.01 0.175-0.023 0.261a7.76 7.76 0 0 1-7.695 6.598H7.006l-0.283 1.795-0.013 0.083-0.692 4.39-0.134 0.843-0.014 0.088H4.859l-0.497 3.15a0.562 0.562 0 0 0 0.555 0.65h3.612c0.34 0 0.63-0.249 0.683-0.585l0.952-6.031a0.692 0.692 0 0 1 0.683-0.584h2.126a6.793 6.793 0 0 0 6.707-5.752c0.306-1.95-0.466-3.744-1.89-4.906z"/></svg>