<svg fill="#20336B" role="img" viewBox="0 0 76 24" xmlns="http://www.w3.org/2000/svg"><title>Paytm</title><path d="M50.052 0.003a0.639 0.639 0 0 0-0.126 0.013c-2.129 0.595-1.7 3.594-5.575 3.85h-0.375a0.72 0.72 0 0 0-0.163 0.016h-0.003a0.751 0.751 0 0 0-0.576 0.735v3.412c0 0.419 0.332 0.754 0.742 0.755h2.019v14.471c0 0.413 0.326 0.745 0.729 0.745h3.312a0.739 0.739 0 0 0 0.729-0.745v-14.471h1.879c0.407 0 0.739-0.335 0.738-0.755v-3.412a0.748 0.748 0 0 0-0.738-0.751h-1.916V0.689a0.682 0.682 0 0 0-0.676-0.689z m13.225 3.663c-1.246 0-2.385 0.47-3.262 1.236v-0.388a0.745 0.745 0 0 0-0.732-0.701h-3.35a0.751 0.751 0 0 0-0.738 0.757v18.532a0.751 0.751 0 0 0 0.738 0.757h3.35c0.376 0 0.679-0.285 0.729-0.654v-13.304a1.23 1.23 0 0 1 1.162-1.277h0.613a1.283 1.283 0 0 1 0.708 0.282 1.268 1.268 0 0 1 0.453 0.998v12.753l0.013 0.485a0.751 0.751 0 0 0 0.742 0.755h3.349a0.748 0.748 0 0 0 0.736-0.72l-0.003-13.292c0-0.438 0.194-0.833 0.544-1.064a1.312 1.312 0 0 1 0.614-0.213h0.62c0.72 0.063 1.158 0.626 1.158 1.277 0.016 4.37 0.013 8.765 0.013 13.223a0.751 0.751 0 0 0 0.741 0.754h3.35c0.407 0 0.739-0.338 0.739-0.754v-14.221c0-0.97-0.106-1.384-0.251-1.806a5.012 5.012 0 0 0-4.727-3.412h-0.047a4.946 4.946 0 0 0-3.606 1.565c-0.911-0.964-2.191-1.565-3.609-1.565zM1.163 3.863A0.732 0.732 0 0 0 0.436 4.602v18.543c0 0.413 0.301 0.745 0.677 0.755h3.412c0.407 0 0.742-0.335 0.741-0.751l0.013-5.19H8.481c2.683 0 4.548-1.894 4.549-4.636v-4.815c0-2.745-1.866-4.645-4.549-4.645H1.163z m28.273 0a0.748 0.748 0 0 0-0.742 0.754v7.732c0 2.942 2.057 5.034 4.942 5.034h2.113s0.05 0 0.116 0.012a0.792 0.792 0 0 1 0.695 0.792c0 0.407-0.301 0.736-0.685 0.786l-0.057 0.012-0.948 0.019H30.922a0.748 0.748 0 0 0-0.738 0.751v3.412a0.751 0.751 0 0 0 0.738 0.758h5.478c2.88 0 4.936-2.094 4.937-5.034v-14.274a0.748 0.748 0 0 0-0.739-0.751h-3.349a0.748 0.748 0 0 0-0.739 0.751c-0.016 2.464 0 4.774 0 7.059a0.792 0.792 0 0 1-0.783 0.783h-1.405a0.792 0.792 0 0 1-0.783-0.799c0.016-2.36-0.016-4.695-0.015-7.043a0.748 0.748 0 0 0-0.739-0.751z m-12.534 0.019a0.726 0.726 0 0 0-0.745 0.707v3.202c0 0.413 0.354 0.751 0.789 0.752h4.423c0.351 0.053 0.626 0.313 0.666 0.72v0.438c-0.041 0.388-0.313 0.67-0.647 0.701h-2.192c-2.911 0-4.99 1.972-4.989 4.742v3.973c0 2.755 1.784 4.714 4.679 4.714h6.073c1.089 0 1.972-0.845 1.972-1.878v-12.947c0-3.143-1.59-5.124-5.384-5.124z m-11.623 4.92h2.122c0.435 0 0.783 0.36 0.783 0.802v2.617a0.792 0.792 0 0 1-0.783 0.801h-0.313c-0.601 0.006-1.208 0-1.809 0z m14.618 6.189h1.393c0.435 0 0.789 0.338 0.789 0.751v2.918a0.72 0.72 0 0 1-0.044 0.238 0.783 0.783 0 0 1-0.745 0.513h-1.393a0.773 0.773 0 0 1-0.788-0.751v-2.921c0-0.413 0.354-0.748 0.788-0.748Z"/></svg>