<svg fill="#231F20" role="img" viewBox="0 0 63 24" xmlns="http://www.w3.org/2000/svg"><title>PDQ</title><path d="M49.172 0a12.074 12.074 0 0 0-8.619 3.513 11.986 11.986 0 0 0-3.113 5.39 10.928 10.928 0 0 0-1.805-4.125 9.662 9.662 0 0 0-2.812-2.664c-0.838-0.519-1.896-1.038-3.071-1.296-1.242-0.27-2.578-0.363-4.215-0.364H17.771v23.062h9.083a11.654 11.654 0 0 0 4.48-0.835c1.302-0.524 2.472-1.323 3.434-2.345 0.975-1.061 1.722-2.309 2.197-3.668 0.182-0.495 0.329-1.012 0.446-1.545a11.576 11.576 0 0 0 3.209 5.421c1.146 1.076 2.49 1.925 3.956 2.503a12.969 12.969 0 0 0 4.902 0.915c2.2 0.003 4.29-0.597 6.277-1.797 0.534 0.573 1.276 1.022 2.226 1.349 1.03 0.337 2.109 0.498 3.19 0.485 0.488 0.01 0.97-0.044 1.455-0.065v-4.672c-0.213-0.003-0.285 0.036-0.488 0.034-1.087 0-1.93-0.27-2.531-0.82 0.648-0.947 1.159-1.987 1.51-3.078 0.319-1.069 0.48-2.176 0.472-3.289a11.919 11.919 0 0 0-0.955-4.768 11.755 11.755 0 0 0-2.638-3.844 12.679 12.679 0 0 0-8.824-3.497ZM0.374 0.457v23.059l5.654-0.005v-7.224h2.532c1.642 0 2.983-0.15 4.023-0.449 2.897-0.825 4.119-3.201 4.508-4.181 0.441-1.063 0.664-2.205 0.659-3.354a8.557 8.557 0 0 0-0.693-3.455 7.003 7.003 0 0 0-3.257-3.475c-0.827-0.405-1.935-0.724-3.398-0.83a31.098 31.098 0 0 0-2.464-0.086Zm48.79 4.731c0.897-0.008 1.787 0.156 2.62 0.488 1.694 0.672 2.848 2.002 3.421 3.46 0.329 0.835 0.493 1.725 0.485 2.622 0.008 0.589 0 1.486-0.799 3.424a50.476 50.476 0 0 1-0.83-0.965c-0.623-0.747-1.385-1.331-2.36-2.044-4.28-2.983-7.372-1.808-8.741-1.175 0.301-1.798 1.009-3.216 2.116-4.254 1.11-1.038 2.472-1.556 4.091-1.556Zm-43.136 0.451h2.148c1.388 0 2.392 0.213 3.004 0.644 0.612 0.428 0.918 1.134 0.918 2.106 0 1.811-1.227 2.716-3.678 2.716H6.028z m17.639 0h2.565c1.803 0 3.19 0.555 4.163 1.661 0.973 1.108 1.453 2.698 1.453 4.772 0.003 2.028-0.477 3.58-1.437 4.651-0.96 1.071-2.366 1.608-4.215 1.608H23.667Zm21.962 8.897c0.903-0.008 1.795 0.195 2.604 0.587 0.628 0.272 1.211 0.63 1.733 1.068 0.589 0.524 1.121 1.108 1.595 1.733-1.175 0.851-1.977 0.874-2.462 0.861-1.18 0-2.332-0.368-3.294-1.053a6.236 6.236 0 0 1-2.254-2.817c1.491-0.511 2.054-0.34 2.078-0.379z"/></svg>