<svg fill="#FDC43E" role="img" viewBox="0 0 146 24" xmlns="http://www.w3.org/2000/svg"><title>Pegasus Airlines</title><path d="M63.964 12.615l-3.485 8.078H53.396l-0.3-0.547c-1.947 0.81-3.603 1.124-5.865 1.124-3.596 0-6.535-2.915-6.535-6.509 0-0.223 0.002-0.444 0.026-0.659 0.921-7.915 7.626-14.101 15.788-14.101 3.933 0 6.173 0.725 9.463 2.326l-0.869 2.074c-0.166 0.405-0.639 0.69-1.009 0.511-0.39-0.177-0.301-0.418-0.485-0.815-0.302-0.654-0.702-0.861-0.957-1.038-1.277-0.805-2.138-0.836-3.01-0.835-2.061 0-3.926 0.772-5.354 2.045-3.086 2.735-5.24 6.422-5.844 10.912-0.266 1.72 1.094 3.345 2.839 3.329 1.959 0 3.032-1.132 3.784-2.807l1.379-3.237c0.168-0.412-0.265-0.766-0.442-0.789-0.296-0.115-0.49-0.352-0.49-0.642 0-0.4 0.31-0.724 0.868-0.724l8.593 0.001c0.513-0.029 0.892 0.529 0.686 1.004-0.096 0.243-0.287 0.376-0.623 0.417-0.605 0.096-0.849 0.353-1.075 0.882z m-24.092-4.207a0.937 0.937 0 0 0-0.798 0.456c-0.294 0.472-0.577 0.521-1.068 0.556l-4.34 0.004 2.91-6.756h5.164c0.294-0.017 0.453 0.33 0.431 0.499-0.01 0.319 0.14 0.588 0.407 0.703 0.367 0.158 0.818-0.072 1.007-0.511l1.235-2.861h-16.394c-0.558 0-0.891 0.307-0.891 0.706 0 0.292 0.188 0.537 0.485 0.651 0.255 0.056 0.597 0.432 0.456 0.798l-7.816 18.12h18l1.008-2.317c0.227-0.461-0.141-1.038-0.657-1.025a0.939 0.939 0 0 0-0.798 0.457c-0.325 0.52-0.716 0.717-1.291 0.717l-7.219-0.005 3.085-7.166 4.764 0.004c0.284 0.013 0.4 0.342 0.387 0.496-0.012 0.317 0.067 0.588 0.335 0.702 0.367 0.157 0.819-0.072 1.008-0.514l1.176-2.69c0.206-0.438-0.076-1.04-0.586-1.024z m-22.56 4.379h-5.925l-2.621 6.158c-0.095 0.171 0.032 0.383 0.195 0.451 0.298 0.113 0.486 0.359 0.485 0.649 0 0.401-0.388 0.725-0.869 0.725H0.166l7.88-18.318c0.114-0.266-0.14-0.527-0.297-0.576-0.296-0.115-0.486-0.359-0.486-0.651 0-0.399 0.39-0.723 0.871-0.723 3.117-0.002 10.444-0.001 13.481 0.015 1.494 0 2.814 0.879 3.364 2.171 0.315 0.785 0.479 1.634 0.479 2.533 0 1.415-0.436 2.728-1.173 3.817-1.582 2.344-4.174 3.749-6.973 3.749z m0.102-9.79c-0.377-0.277-1.244-0.368-1.639-0.325l-3.324 7.722 1.298-0.008c1.65-0.012 2.978-0.939 3.892-2.427 1.205-1.959 1.103-4.18-0.227-4.962z m113.316-0.78c0.335-0.041 0.526-0.174 0.624-0.417 0.203-0.472-0.171-1.032-0.687-1.003l-8.129-0.001-7.075 16.408a3.027 3.027 0 0 1-2.778 1.823c-0.245 0-0.532-0.078-0.758-0.131-0.764-0.203-1.347-0.872-1.347-1.812 0.041-1.198 0.766-2.921 1.149-3.813l4.403-10.158c0.226-0.53 0.462-0.801 1.07-0.895 0.335-0.041 0.526-0.174 0.623-0.417 0.203-0.472-0.17-1.032-0.686-1.003h-8.88c-0.479 0-0.868 0.324-0.868 0.724 0 0.291 0.188 0.535 0.483 0.65 0.157 0.047 0.412 0.311 0.298 0.574l-3.191 7.391c-0.805 1.727-1.269 3.681-1.312 5.694 0 1.962 1.132 3.664 2.765 4.505 1.729 0.83 3.645 1.297 5.678 1.297a14.484 14.484 0 0 0 13.515-9.214l4.02-9.297c0.227-0.532 0.477-0.81 1.083-0.905z m7.264-2.178c-5.236 0.366-8.49 4.162-8.183 8.55 0.11 1.561 0.679 2.984 1.549 4.159 0 0 3.904 4.69 4.136 4.989 0.135 0.186 0.502 0.739 0.54 1.285 0.101 1.452-0.632 2.657-2.492 2.788-2.16 0.152-3.955-0.779-4.739-2.172-0.123-0.346-0.099-0.773-0.503-0.887-0.359-0.125-0.772 0.123-0.922 0.552l-0.879 2.508c1.96 1.51 4.572 2.386 7.863 2.149 5.236-0.367 8.49-4.162 8.182-8.548-0.107-1.563-1.162-2.955-2.033-4.128-0.635-0.779-2.492-3.001-3.161-3.803-0.484-0.694-0.961-1.466-1.043-2.339-0.106-1.517 0.933-2.825 2.794-2.955 2.149-0.152 3.645 0.745 4.438 2.125 0.12 0.347 0.097 0.773 0.503 0.886 0.359 0.125 0.771-0.123 0.922-0.551l0.868-2.467c-1.961-1.509-4.55-2.378-7.84-2.141z m-34.375 5.161c-0.407-0.115-0.383-0.541-0.505-0.887-0.794-1.379-2.29-2.276-4.437-2.124-1.862 0.13-2.901 1.439-2.796 2.955 0.085 0.872 0.558 1.644 1.045 2.339 0.679 0.813 2.517 3.013 3.159 3.803 0.873 1.173 1.926 2.564 2.035 4.128 0.306 4.385-2.949 8.18-8.183 8.547-3.292 0.237-5.904-0.639-7.864-2.148l0.367-1.048h-8.471c-0.481 0-0.861-0.32-0.861-0.72 0-0.291 0.188-0.535 0.483-0.648 0.153-0.051 0.398-0.288 0.308-0.556l-1.401-5.996H70.135l-3.682 5.965c-0.134 0.276 0.142 0.519 0.291 0.571 0.297 0.115 0.487 0.357 0.488 0.649 0.002 0.399-0.385 0.725-0.864 0.727l-3.779 0.009c-0.513 0.025-0.906-0.535-0.691-1.006 0.117-0.279 0.37-0.382 0.706-0.423 0.474-0.076 0.715-0.256 0.937-0.588l11.531-18.241 7.063-0.001c0.479 0 0.867 0.333 0.866 0.733 0 0.291-0.189 0.535-0.484 0.65-0.127 0.057-0.32 0.189-0.314 0.451l4.268 18.333 0.479-1.368c0.153-0.43 0.564-0.677 0.923-0.552 0.261 0.092 0.422 0.336 0.432 0.64a0.527 0.527 0 0 0 0.073 0.247c0.782 1.393 2.578 2.323 4.738 2.171 1.861-0.131 2.593-1.337 2.492-2.788-0.038-0.546-0.405-1.099-0.541-1.284-0.231-0.299-4.134-4.989-4.134-4.989-0.87-1.175-1.44-2.598-1.549-4.16-0.307-4.388 2.948-8.184 8.183-8.55 3.292-0.237 5.88 0.632 7.839 2.141l-0.867 2.469c-0.15 0.427-0.563 0.674-0.92 0.549z m-27.689 5.182l-1.165-5.04-3.111 5.04h4.276z"/></svg>