<svg fill="#14A0C4" role="img" viewBox="0 0 23 24" xmlns="http://www.w3.org/2000/svg"><title>Pelican</title><path d="M0.441 0c0.342 1.055 1.876 2.186 2.907 2.624 1.313 0.558 2.598 0.685 3.75 0.812 0.895 0.096 1.702 0.201 2.344 0.5 0.162 0.073 0.329 0.148 0.468 0.25 0.459 0.336 0.946 0.988 1.282 1.437 0.719 0.958 0.586 1.745 1.437 2.217 0.089 0.049 0.168 0.083 0.282 0.125 0.271 0.102 0.667 0.227 0.843-0.156a0.788 0.788 0 0 0 0.063-0.187c-0.071-0.229-0.321-0.433-0.469-0.531-0.262-0.171-0.373-0.274-0.562-0.469-0.349-0.358-0.348-0.951-0.594-1.374 0.309-0.131 1.939-0.36 2.281-0.313 0.731 0.033 1.31 0.078 1.75 0.531 0.173 0.137 0.25 0.257 0.406 0.375 0.011 0.009 0.02 0.024 0.032 0.031 0.693 0.504 1.339 0.67 1.906 0.844 0.15 0.045 0.299 0.105 0.437 0.156 0.213 0.076 0.406 0.159 0.594 0.281 0.222 0.147 0.609 0.542 0.625 0.875-0.559-0.178-0.207 0.032-1.031-0.032-0.402-0.046-0.806-0.065-1.219-0.093-0.642-0.045-1.273-0.104-1.875-0.219-0.1-0.018-0.215-0.039-0.312-0.062-0.077-0.016-0.146-0.011-0.219-0.032-0.002 0.031 0 0.035 0 0.063-0.017 0.629 0.421 0.959-0.594 2.155-0.009 0.013-0.02 0.017-0.031 0.031-0.27 0.315-1.657 0.916-2.094 1.031-1.859 0.373-3.292-0.828-5.531-0.219-0.788 0.293-1.357 1.576-1.719 2.531-0.482 1.268-0.876 2.796-1.313 4.31-0.2 0.698-0.418 1.401-0.656 2.062-0.575 1.584-1.311 2.943-2.406 3.717-0.164 0.126-0.787 0.41-0.813 0.625 0.404 0.204 4.185 0.056 4.813 0 2.503-0.218 3.647-1.773 4.469-3.905 0.566-1.462 1.065-3.986 2.031-5.31 0.013-0.018 0.018-0.015 0.031-0.031 0.146-0.197 0.327-0.369 0.5-0.5 0.045-0.035 0.077-0.065 0.125-0.094 0.034-0.022 0.157-0.059 0.344-0.093 1.736-0.307 9.349-1.347 9.844-6.872 0.051-0.558 0.016-1.159-0.094-1.812-0.054-0.336-0.115-0.665-0.218-1.031-0.246-0.869-0.798-1.614-1.532-2.218-0.193-0.16-0.405-0.329-0.625-0.468-0.846-0.54-1.877-0.921-2.969-1.156-0.733-0.158-1.487-0.239-2.25-0.25C9.34 0.033 5.897 0.207 0.441 0z m1.625 4.217c0.024 0.038 0.039 0.057 0.063 0.094C3.728 6.838 5.739 6.814 7.567 7.028c0.666 0.078 1.317 0.185 1.906 0.469 0.262 0.123 0.512 0.265 0.75 0.468-0.029-0.131-0.076-0.256-0.125-0.375-0.444-1.076-1.649-1.666-2.688-1.967-1.394-0.498-2.404-0.018-5.344-1.406z m1.407 3.186c0.011 0.053 0.009 0.095 0.031 0.156 0.22 0.635 1.04 1.65 2.094 1.874 0.457 0.164 0.315 0.117 1.094 0.094 1.141-0.058 1.692-0.079 2.5 0.25-0.02-0.049-0.042-0.109-0.063-0.156C8.507 8.175 7.759 8.421 5.379 8.246c-1.019-0.307-1.259-0.342-1.906-0.843z"/></svg>