<svg fill="#181A1D" role="img" viewBox="0 0 17 24" xmlns="http://www.w3.org/2000/svg"><title>Peloton</title><path d="M14.228 5.764l1.731-3.006c0.504-0.88 0.208-2.008-0.673-2.513-0.88-0.504-2.008-0.208-2.512 0.673l-1.74 3.007c-3.699-1.167-7.843 0.346-9.861 3.847-1.286 2.225-1.444 4.787-0.663 7.032l3.205-5.558c0.732-1.276 1.929-2.186 3.353-2.572 1.424-0.386 2.908-0.188 4.183 0.554 2.631 1.523 3.541 4.905 2.018 7.536-1.523 2.631-4.896 3.541-7.537 2.018l1.84-3.185c0.88 0.504 2.008 0.208 2.512-0.672 0.504-0.88 0.208-2.008-0.672-2.512-0.88-0.504-2.008-0.208-2.512 0.672l-5.855 10.157c-0.504 0.88-0.208 2.008 0.672 2.512 0.88 0.504 2.008 0.208 2.512-0.672L5.97 20.075c3.699 1.167 7.843-0.346 9.861-3.847 2.018-3.491 1.256-7.833-1.603-10.464z"/></svg>