<svg fill="#CD1414" role="img" viewBox="0 0 126 24" xmlns="http://www.w3.org/2000/svg"><title>Penny</title><path d="M10.944 11.55h1.926c2.193 0 3.532-1.282 3.758-2.91 0.225-1.413-0.806-2.91-2.863-2.91H11.923z m97.397-3.339l4.391-7.871h10.069l-15.218 23.022H97.331l4.882-6.594-5.599-15.957-3.805 22.551h-8.059l-4.967-10.656-1.79 10.656h-8.059l3.899-23.027h8.279l4.789 10.315 1.747-10.31h17.637l2.056 7.871z m-37.732-7.871l-3.893 23.022h-8.06l-4.966-10.656-1.79 10.656h-8.059l3.899-23.027h8.279l4.788 10.315 1.748-10.31h8.054zM16.089 0c5.6 0 9.357 2.863 9.404 7.526l1.203-7.186h18.265l-0.984 5.82H34.306l-0.492 2.737h8.729l-0.984 5.777H32.83l-0.492 2.868h9.802l-0.984 5.82H22.808l2.104-12.456c-1.429 4.03-5.28 6.421-10.294 6.422h-4.605l-1.037 6.034H0.2l3.941-23.362zM125.8 19.039c0 2.737-2.329 4.961-5.192 4.961-2.863 0-5.191-2.224-5.191-4.961 0-2.737 2.329-4.961 5.191-4.961 2.91 0.042 5.191 2.224 5.192 4.961z"/></svg>