<svg fill="#000000" role="img" viewBox="0 0 19 24" xmlns="http://www.w3.org/2000/svg"><title>Penpot</title><path d="M5.154 0L2.63 3.554v2.01L0.434 6.608l-0.02-0.009v13.109l8.563 4.045L9.5 24l0.523-0.247 8.563-4.045V6.6l-0.017 0.008-2.196-1.045V3.555l-0.077-0.108L13.849 0.001l-2.524 3.554v0.004L9.489 0.973l-1.823 2.566-0.065-0.091z m0.447 2.065l0.976 1.374H3.732l0.964-1.358z m8.694 0l0.976 1.374h-2.845l0.965-1.358z m-4.36 0.971l0.976 1.375h-2.845l0.965-1.359zM3.462 4.132h1.35v4.544l-1.35-0.638Zm2.042 0h1.343v5.506l-1.343-0.635z m6.652 0h1.35V9l-1.35 0.637V4.132z m2.042 0h1.343v3.905l-1.343 0.634z m-6.402 0.972h1.35v5.62l-1.35-0.638z m2.042 0h1.343v4.993l-1.343 0.634z m6.534 1.493l1.188 0.486-1.188 0.561zM2.63 6.6v1.047l-1.187-0.561ZM1.46 8.251l7.517 3.55v10.795l-7.516-3.55z m16.08 0v10.794l-7.517 3.55V11.802z"/></svg>