<svg fill="#9E66BF" role="img" viewBox="0 0 31 24" xmlns="http://www.w3.org/2000/svg"><title>Percy</title><path d="M17.044 0s0.711 1.461 0.77 1.934c0 0-2.32-0.807-5.573-1.114 0 0 1.562 1.09 2.168 1.922 0 0-2.3-0.116-5.733 0 0 0 1.951 0.792 2.815 1.519 0 0-4.075 0.414-6.379 1.078 0 0 2.595 0.912 3.315 1.595 0 0-3.31 0.942-6.645 2.867 0 0 1.852 0.325 3.303 0.958 0 0-1.847 1.291-4.585 4.815 0 0 2.025-0.386 3.412-0.278 0 0-1.759 2.055-2.676 5.198 0 0 1.016-0.647 2.003-0.883 0 0 0.105 3.747 2.155 4.348v-0.003a0.967 0.967 0 0 0 0.281 0.043c0.1 0 0.204-0.015 0.31-0.045 0.65-0.187 1.144-0.829 1.712-1.57 0.187-0.244 0.379-0.494 0.583-0.738 0.25-0.355 0.547-0.675 0.882-0.952 0.725-0.597 1.725-1.05 2.948-0.869 1.375 0.116 2.225 1.486 2.909 2.587 0.354 0.572 0.824 1.587 1.611 1.588 0.87 0 1.175-1.042 1.562-2.328 0.365-1.212 0.907-2.364 1.613-3.415 1.356-2.021 3.092-3.119 5.175-4.2 1.994-1.037 3.877-2.017 4.822-3.503 0.474-0.742 0.709-1.656 0.698-2.712a8.707 8.707 0 0 0-0.388-2.386c-0.174-0.569-0.631-1.127-1.173-0.9a4.271 4.271 0 0 1-1.439 0.32c-1.072-1.006-4.224-3-6.298-4.128 0 0 0.252 0.74 0.603 2.123 0 0-2.234-1.745-4.763-2.87z m0 3.375l4.762 1.181-1.541 0.319zM12.946 5.337l5.714 0.443-1.735 0.575Zm8.694 1.353l-0.848 0.642-2.978 0.168z m-7.23 0.642l-1.36 0.913-3.773-0.359Zm5.631 1.508l-1.381 0.771-3.753-0.22z m-10.352 0.962l-0.849 1.64-3.728 1.642z m5.168 0.667l-0.962 1.581-4.816 1.177z m-7.306 2.942l-0.147 1.641L5 17.25z m14.138 3.939c-1.366 1.409-2.502 3.507-2.79 5.151 0.487 0.725 0.932 1.084 1.35 1.091h0.015c0.432 0 0.719-0.291 0.85-0.866 0.096-0.429 0.117-1.016 0.142-1.7 0.036-1.055 0.084-2.367 0.433-3.675z m-9.88 3.14c-1.272 0.014-2.51 1.037-3.133 1.915v0.001c0.354 0.8 0.734 1.191 1.156 1.191a0.662 0.662 0 0 0 0.103-0.008c0.575-0.09 1.107-1.204 1.552-2.282a24.75 24.75 0 0 0 0.322-0.817z"/></svg>