<svg fill="#404040" role="img" viewBox="0 0 27 24" xmlns="http://www.w3.org/2000/svg"><title>Perforce</title><path d="M4.506 8.465c0.179-0.463 0.383-0.908 0.624-1.328-0.232-0.213-0.811-0.668-0.776-0.703 3.021-3.618 6.96-4.705 10.444-4.073 0.713 0.098 1.427 0.268 2.13 0.526 4.991 1.854 7.512 7.351 5.642 12.289a10.161 10.161 0 0 1-0.669 1.399c0.277 0.24 0.882 0.686 0.847 0.722-3.351 3.965-7.816 4.883-11.532 3.779a12.175 12.175 0 0 1-1.069-0.321c-4.981-1.854-7.512-7.352-5.641-12.29zM21.527 0c-0.633 0.605-1.391 1.336-1.764 1.666a12.944 12.944 0 0 0-1.881-0.873C12.214-1.31 6.244 1.069 2.955 5.497 1.235 8.039 0.219 11.167 0.469 14.384c0 0 0.01 6.051 5.597 9.616 0.454-0.625 1.032-1.427 1.416-1.944a13.46 13.46 0 0 0 1.979 0.937c6.417 2.378 13.528-0.66 15.853-6.783 0 0 1.702-3.733 1.141-7.815 0 0-0.437-5.507-4.928-8.394z"/></svg>