<svg fill="#00AA28" role="img" viewBox="0 0 43 24" xmlns="http://www.w3.org/2000/svg"><title>Pets at Home</title><path d="M33.179 21.788c0-1.234 0.703-2.131 2.097-2.131 1.394 0 2.006 1.012 2.006 2.12v0.115c0 0.12-0.067 0.189-0.189 0.188h-2.656c0 0.497 0.4 1.005 1.269 1.005 0.36 0 0.627-0.092 0.971-0.212 0.194-0.069 0.349-0.028 0.349 0.184 0 0.405-0.601 0.943-1.635 0.943-1.405 0-2.212-0.869-2.212-2.212ZM14.059 19.165v0.566h0.675c0.12 0 0.189 0.069 0.189 0.189v0.594c0 0.12-0.069 0.189-0.189 0.188h-0.675v1.807c0 0.439 0.166 0.634 0.418 0.634a0.864 0.864 0 0 0 0.308-0.076c0.178-0.074 0.28 0.018 0.281 0.184 0 0.418-0.474 0.749-1.052 0.749-0.89 0-1.211-0.56-1.211-1.333v-3.13c0-0.074 0.041-0.127 0.109-0.16l0.885-0.372c0.155-0.069 0.263-0.005 0.262 0.16Zm7.808 2.663c0-1.332 0.811-2.171 2.095-2.171 1.287 0 2.097 0.839 2.097 2.171 0 1.331-0.811 2.171-2.097 2.172-1.285 0-2.095-0.841-2.095-2.172Zm-13.967 0c0-1.332 0.721-2.171 1.817-2.171a1.146 1.146 0 0 1 1.08 0.686v-0.423c0-0.12 0.069-0.189 0.189-0.189h0.879c0.12 0 0.189 0.069 0.189 0.189v3.812c0 0.12-0.069 0.189-0.189 0.188h-0.879c-0.12 0-0.189-0.069-0.189-0.188v-0.418a1.144 1.144 0 0 1-1.08 0.686c-1.096 0-1.817-0.841-1.817-2.172Zm22.16 2.098h-0.88c-0.12 0-0.189-0.069-0.188-0.189v-2.561c0-0.428-0.127-0.508-0.355-0.507a0.908 0.908 0 0 0-0.674 0.303v2.76c0 0.12-0.069 0.189-0.189 0.188h-0.879c-0.12 0-0.189-0.069-0.189-0.188v-3.521c0-0.074 0.039-0.125 0.107-0.161l0.887-0.37c0.16-0.069 0.263-0.007 0.263 0.16v0.605c0.229-0.56 0.634-0.793 1.194-0.793 0.497 0 0.862 0.233 1.035 0.754a1.137 1.137 0 0 1 1.124-0.754c0.67 0 1.212 0.365 1.213 1.29v2.783c0 0.12-0.069 0.189-0.189 0.188h-0.881c-0.12 0-0.189-0.069-0.189-0.188v-2.559c0-0.428-0.125-0.509-0.354-0.51a0.913 0.913 0 0 0-0.673 0.304v2.759c0.005 0.137-0.063 0.206-0.183 0.207Zm-12.199 0h-0.938c-0.12 0-0.189-0.069-0.188-0.189v-4.92c0-0.12 0.069-0.189 0.188-0.189h0.938c0.12 0 0.189 0.069 0.188 0.189v1.829h1.846v-1.829c0-0.12 0.069-0.189 0.188-0.189h0.938c0.12 0 0.189 0.069 0.188 0.189v4.92c0 0.12-0.069 0.189-0.188 0.189h-0.938c-0.12 0-0.189-0.069-0.188-0.189v-2.087h-1.846v2.087c0 0.12-0.069 0.189-0.188 0.189Zm6.096-0.864c0.532 0 0.812-0.416 0.812-1.234 0-0.818-0.28-1.234-0.812-1.233-0.53 0-0.811 0.416-0.811 1.233 0 0.818 0.285 1.234 0.811 1.234Zm-13.96 0c0.532 0 0.812-0.416 0.813-1.234 0-0.818-0.28-1.234-0.813-1.233-0.53 0-0.811 0.416-0.81 1.233 0 0.818 0.28 1.234 0.81 1.234Zm26.092-1.754c-0.051-0.509-0.344-0.79-0.813-0.789s-0.754 0.28-0.81 0.789h1.623Zm3.056-11.627l-1.165-0.281c-1.279-0.303-1.748-0.64-1.749-1.258 0-0.622 0.622-1.033 1.578-1.033 1.091 0 1.896 0.377 3.234 1.28 0.148 0.092 0.28 0.171 0.377 0.171 0.189 0 0.319-0.074 0.354-0.355a6.873 6.873 0 0 0 0.056-0.96c0-0.566-0.016-0.943-0.056-1.147-0.058-0.321-0.171-0.486-0.377-0.624-1.109-0.696-2.349-0.994-3.72-0.994-3.086 0-5.097 1.503-5.097 3.817 0 1.731 1.257 3.028 3.44 3.571l1.223 0.303c1.56 0.377 1.748 0.731 1.748 1.281 0 0.64-0.543 1.073-1.445 1.073-1.429 0-2.481-0.525-3.646-1.692-0.171-0.171-0.28-0.278-0.487-0.278a0.49 0.49 0 0 0-0.451 0.262c-0.714 1.183-1.257 1.616-2.011 1.617-0.805 0-1.371-0.566-1.371-1.601V7.4h1.771c0.234 0 0.428-0.194 0.429-0.428V5.091a0.432 0.432 0 0 0-0.429-0.428h-1.771V2.446c0-0.486-0.321-0.675-0.805-0.469l-2.709 1.132a0.508 0.508 0 0 0-0.321 0.484v5.257c0 3.292-2.199 5.527-4.999 5.527-1.468 0-2.8-0.566-3.292-1.995 0.338 0.132 0.904 0.189 1.709 0.189 3.234 0 5.486-1.766 5.486-4.325 0-2.275-1.88-3.777-4.68-3.777-1.04 0-2.039 0.199-2.903 0.566C16.375 1.995 13.42 0 9.34 0c-1.863 0-3.555 0.229-5.114 0.698-0.434 0.13-0.696 0.411-0.697 0.844v7.423a5.213 5.213 0 0 1-2.257-1.708C1.14 7.086 1.043 6.977 0.838 6.977c-0.303 0-0.486 0.229-0.486 0.525 0 1.281 1.503 2.971 3.177 3.8v5.114c0 0.234 0.194 0.43 0.429 0.43h3.353a0.432 0.432 0 0 0 0.429-0.43v-3.873c0.247 0.018 0.486 0.041 0.754 0.04 2.217 0 3.886-0.349 5.104-1.138 0.245 3.355 2.755 5.698 6.582 5.697 1.972 0 4.304-0.696 5.601-2.462 0.622 1.502 2.085 2.462 3.873 2.462s2.857-0.451 3.759-1.485c1.167 0.978 2.464 1.486 4.195 1.485 3.086 0 5.04-1.542 5.04-3.965-0.005-1.732-0.948-2.874-3.503-3.496ZM19.614 6.898c0.902 0 1.389 0.543 1.389 1.297 0 1.257-1.126 2.102-2.8 2.102-0.583 0-0.92-0.041-1.149-0.132 0.007-1.947 1.001-3.267 2.56-3.267Zm-11.867 2.668V3.761c0-0.356 0.148-0.566 0.484-0.619 0.509-0.092 0.846-0.092 1.126-0.091 2.273 0 3.629 1.2 3.629 3.195 0.005 2.102-1.611 3.269-5.239 3.32Z"/></svg>