<svg fill="#000000" role="img" viewBox="0 0 22 24" xmlns="http://www.w3.org/2000/svg"><title>Peugeot</title><path d="M11 0c3.499 0 7.131 0.299 10.817 0.935 0.055 1.478 0.117 3.762 0.013 5.7-0.235 4.322-1.186 7.676-2.994 10.557-1.803 2.872-4.594 5.342-7.836 6.808-3.242-1.467-6.033-3.936-7.835-6.808-1.808-2.88-2.759-6.235-2.995-10.557-0.105-1.938-0.043-4.223 0.013-5.7C3.869 0.299 7.501 0 11 0z m0 0.416c-3.449 0-6.951 0.293-10.414 0.873-0.076 2.192-0.076 3.937 0 5.324 0.231 4.248 1.162 7.539 2.931 10.357 1.769 2.818 4.421 5.146 7.483 6.572 3.062-1.426 5.715-3.754 7.484-6.572 1.769-2.818 2.7-6.109 2.931-10.357 0.075-1.388 0.075-3.132-0.001-5.324C17.952 0.71 14.449 0.416 11 0.416zM10.97 13.036s0.068 0.405 0.089 0.522c0.012 0.067 0.014 0.084-0.003 0.149-0.048 0.17-0.363 1.59-0.538 2.626-0.082 0.477-0.153 0.95-0.195 1.355-0.023 0.23-0.016 0.285 0.045 0.489 0.172 0.577 0.808 2.083 0.93 2.358a0.329 0.329 0 0 1 0.026 0.095l0.046 0.355c-0.204-0.308-1.312-2.346-1.747-3.474-0.051-0.133-0.061-0.198-0.004-0.443 0.302-1.296 1.121-3.499 1.351-4.032z m-1.615-3.132c0.031 0.091 0.291 0.981 0.31 1.192 0.016 0.117 0.013 0.149-0.028 0.262-0.228 0.606-0.916 2.113-1.181 2.616-0.059 0.111-0.115 0.183-0.226 0.296-0.254 0.258-0.739 0.746-1.039 1.019-0.109 0.099-0.139 0.184-0.161 0.312-0.036 0.206-0.071 0.558-0.081 0.741-0.009 0.16 0.017 0.235 0.107 0.393 0.529 0.945 2.297 3.119 2.8 3.576 0.036 0.033 0.063 0.055 0.14 0.106 0.074 0.049 0.315 0.206 0.315 0.206a0.085 0.085 0 0 1 0.024 0.026l0.088 0.154c-0.226-0.112-0.587-0.293-0.775-0.393a0.753 0.753 0 0 1-0.125-0.085c-0.59-0.49-2.396-2.606-2.927-3.49-0.133-0.221-0.146-0.292-0.129-0.5 0.033-0.389 0.085-0.877 0.131-1.092 0.027-0.129 0.056-0.205 0.154-0.319 0.753-0.865 2.206-2.774 2.63-3.591 0.047-0.092 0.051-0.124 0.052-0.212 0.003-0.253-0.078-0.746-0.1-0.87a0.238 0.238 0 0 1-0.002-0.059l0.023-0.288z m4.931-0.474c0.081 0.038 0.214 0.08 0.273 0.15 0.937 0.978 1.686 1.993 1.836 2.26 0.029 0.051 0.049 0.103 0.055 0.162 0.168 1.427 0.024 2.938-0.32 4.253-0.031 0.119-0.066 0.179-0.18 0.265-0.761 0.571-2.569 2.072-3.176 2.63a0.996 0.996 0 0 0-0.171 0.209c-0.153 0.251-0.342 0.601-0.462 0.825-0.123-0.27-0.392-0.927-0.485-1.193-0.03-0.087-0.035-0.132-0.004-0.249 0.15-0.551 0.862-2.154 1.001-2.443-0.002 0.037 0.006 0.135-0.008 0.169-0.062 0.19-0.445 1.453-0.523 2-0.017 0.122-0.016 0.155 0 0.275 0.034 0.256 0.187 0.725 0.187 0.724 0.017-0.041 0.189-0.384 0.309-0.477 0.709-0.698 2.197-1.972 3.05-2.664 0.096-0.078 0.132-0.13 0.153-0.276 0.106-0.725 0.136-2.027 0.072-2.976a1.012 1.012 0 0 0-0.171-0.5c-0.231-0.342-0.507-0.665-0.926-1.08a0.415 0.415 0 0 1-0.115-0.219c-0.122-0.652-0.395-1.845-0.395-1.845z m-7.92 1.509a0.331 0.331 0 0 1 0.179-0.007c0.267 0.064 0.832 0.203 1.259 0.312 0.06 0.015 0.135 0.071 0.167 0.125l0.093 0.155a0.182 0.182 0 0 1 0.006 0.177 21.795 21.795 0 0 1-0.306 0.565l-0.088 0.159c-0.163 0.29-0.325 0.569-0.418 0.716-0.061 0.097-0.095 0.14-0.202 0.178-0.42 0.148-0.942 0.325-1.253 0.426-0.063 0.021-0.085 0.059-0.072 0.129 0.022 0.128 0.094 0.564 0.121 0.691 0.01 0.047 0.048 0.084 0.117 0.071 0.183-0.035 0.671-0.154 0.671-0.155s-0.144 0.133-0.23 0.212a0.146 0.146 0 0 1-0.054 0.032c-0.133 0.044-0.458 0.136-0.559 0.158-0.079 0.017-0.129-0.014-0.15-0.103 0 0-0.139-0.59-0.188-0.791a1.552 1.552 0 0 0-0.026-0.087c-0.037-0.116-0.128-0.344-0.178-0.464a0.108 0.108 0 0 1-0.009-0.044c0.002-0.137 0.027-0.442 0.027-0.442s0.299 0.28 0.444 0.382c0.033 0.023 0.052 0.028 0.092 0.017 0.199-0.051 0.655-0.202 0.906-0.296a0.347 0.347 0 0 0 0.146-0.105c0.259-0.314 0.585-0.801 0.773-1.169a0.219 0.219 0 0 0 0.014-0.163l-0.04-0.133c-0.012-0.039-0.053-0.083-0.091-0.098a34.025 34.025 0 0 0-1.2-0.433l0.049-0.015z m8.741-3.798a0.407 0.407 0 0 1 0.3 0.007c0.741 0.311 1.987 1.044 2.679 1.56 0.067 0.05 0.093 0.084 0.111 0.165 0.163 0.74 0.224 1.885 0.122 2.847-0.007 0.069-0.021 0.111-0.057 0.185-0.439 0.898-0.933 1.743-1.453 2.395 0.008-0.081 0.045-0.462 0.047-0.683a0.076 0.076 0 0 1 0.031-0.061 9.058 9.058 0 0 0 0.304-0.246c0.036-0.032 0.057-0.055 0.075-0.086 0.212-0.343 0.59-1.06 0.743-1.491a0.787 0.787 0 0 0 0.043-0.328c-0.049-0.601-0.143-1.434-0.283-1.978a0.334 0.334 0 0 0-0.171-0.215c-0.121-0.062-0.359-0.171-0.9-0.388a0.763 0.763 0 0 1-0.207-0.123c-0.355-0.298-0.91-0.746-1.254-1.004a0.43 0.43 0 0 0-0.353-0.075 21.499 21.499 0 0 0-0.752 0.186c-0.061 0.017-0.085 0.018-0.148 0.011-0.101-0.012-0.301-0.028-0.382-0.034 0.587-0.276 1.152-0.514 1.505-0.644zM7.274 12c-0.184 0.302-0.403 0.624-0.569 0.824a0.199 0.199 0 0 1-0.083 0.059 14.149 14.149 0 0 1-0.707 0.238l1.359-1.121z m-2.427-0.397l-0.108 0.748-0.368-0.432c0.067-0.145 0.263-0.283 0.476-0.316z m-0.686-1.699l-0.133 0.084c-0.033 0.021-0.042 0.03-0.057 0.06a2.697 2.697 0 0 1-0.085 0.161c-0.009 0.016-0.034 0.04-0.047 0.051a16.611 16.611 0 0 1-0.477 0.353c-0.009 0.006-0.02 0.004-0.028-0.004-0.017-0.017-0.086-0.095-0.098-0.114a0.082 0.082 0 0 1-0.015-0.049 2.033 2.033 0 0 1 0.006-0.133c0.004-0.051 0.018-0.075 0.08-0.14 0.069-0.072 0.145-0.147 0.225-0.225 0.195-0.164 0.686-0.563 1.564-1.19a0.193 0.193 0 0 0 0.044-0.043c0.092-0.124 0.354-0.464 0.418-0.545a0.193 0.193 0 0 1 0.031-0.031 2.485 2.485 0 0 1 0.26-0.183c0.244-0.154 0.718-0.435 0.983-0.59l-0.101 0.124c-0.006 0.005-0.011 0.011-0.016 0.016a42.288 42.288 0 0 0-0.563 0.432c-0.029 0.023-0.04 0.043-0.047 0.078-0.023 0.127-0.06 0.367-0.071 0.5-0.003 0.039-0.02 0.058-0.06 0.074-0.173 0.07-0.378 0.144-0.544 0.211-0.036 0.014-0.045 0.019-0.066 0.036-0.017 0.013-0.237 0.21-0.237 0.21s0.479-0.118 0.655-0.158c0.042-0.009 0.06-0.007 0.098 0.011 0.036 0.017 0.097 0.041 0.129 0.053 0.049 0.018 0.075 0.017 0.129 0.005 0.198-0.044 0.531-0.123 0.708-0.169 0.092-0.024 0.142-0.049 0.22-0.104 0.085-0.059 0.3-0.221 0.3-0.22s-0.004 0.029-0.007 0.044a0.059 0.059 0 0 1-0.016 0.032 3.986 3.986 0 0 1-0.158 0.177c-0.087 0.09-0.139 0.122-0.249 0.168-0.503 0.21-1.364 0.536-2.009 0.76-0.042 0.015-0.061 0.027-0.092 0.059-0.034 0.035-0.08 0.085-0.079 0.085s0.526 0.038 0.687 0.057c0.052 0.006 0.089 0.023 0.129 0.057 0.132 0.114 0.569 0.564 0.7 0.721 0 0-1.243 0.207-1.819 0.35-0.071 0.018-0.107 0.063-0.122 0.12-0.048 0.168-0.16 0.706-0.16 0.706s-0.04-0.013-0.096-0.045c-0.038-0.022-0.058-0.04-0.1-0.085-0.136-0.144-0.36-0.42-0.467-0.579-0.032-0.047-0.045-0.107-0.006-0.156 0.117-0.144 0.351-0.406 0.481-0.541 0.014-0.015 0.031-0.04 0.05-0.077 0.05-0.103 0.104-0.318 0.128-0.413z m8.021-2.816a0.18 0.18 0 0 1 0.109 0.015l0.256 0.122a0.093 0.093 0 0 1 0.05 0.063c0.035 0.147 0.077 0.341 0.107 0.507a0.299 0.299 0 0 1-0.036 0.199c-0.106 0.185-0.324 0.517-0.446 0.695-0.027 0.04-0.03 0.088-0.022 0.136 0.055 0.306 0.286 1.374 0.285 1.374l-0.145-0.132a0.21 0.21 0 0 1-0.06-0.092c-0.103-0.302-0.296-0.933-0.385-1.24a0.159 0.159 0 0 1 0.03-0.145c0.151-0.184 0.372-0.478 0.5-0.664 0.036-0.052 0.048-0.11 0.027-0.154a4.614 4.614 0 0 0-0.127-0.237 0.106 0.106 0 0 0-0.06-0.049l-0.174-0.055a0.145 0.145 0 0 0-0.093 0.001c-0.379 0.138-0.889 0.336-1.201 0.466-0.046 0.019-0.064 0.021-0.119 0.012-0.09-0.013-0.353-0.06-0.483-0.085a0.034 0.034 0 0 1-0.023-0.051l0.153-0.265a0.147 0.147 0 0 1 0.096-0.071c0.492-0.112 1.143-0.241 1.761-0.35zM6.737 8.306a0.054 0.054 0 0 1 0.055 0.033c0.031 0.072 0.022 0.152-0.008 0.221-0.012 0.028-0.047 0.055-0.076 0.062l-0.246 0.054a0.023 0.023 0 0 1-0.027-0.023l0.023-0.289a0.04 0.04 0 0 1 0.036-0.037l0.243-0.02z m2.794-1.854a0.037 0.037 0 0 1 0.032 0.055l-0.599 1.032a0.264 0.264 0 0 1-0.155 0.126l-1.122 0.352a1.65 1.65 0 0 1-0.377 0.071c-0.249 0.019-0.989 0.042-0.988 0.042l0.016-0.035a0.074 0.074 0 0 1 0.038-0.037l0.35-0.149a0.169 0.169 0 0 0 0.067-0.05l0.54-0.666c0.029-0.036 0.067-0.07 0.107-0.091 0.357-0.188 0.992-0.47 1.437-0.619a0.508 0.508 0 0 1 0.142-0.024l0.512-0.007z m-0.6-1.198c1.239-0.109 2.915-0.139 4.517-0.017a0.837 0.837 0 0 1 0.263 0.064c0.525 0.221 1.456 0.704 2.491 1.296a0.776 0.776 0 0 1 0.128 0.092c0.274 0.242 0.969 0.954 0.969 0.954l-0.217-0.043a0.228 0.228 0 0 1-0.084-0.035c-0.438-0.295-1.078-0.678-1.615-0.949a0.592 0.592 0 0 0-0.203-0.06 14.69 14.69 0 0 0-0.844-0.062c-0.114-0.005-0.191-0.024-0.303-0.08-0.213-0.108-0.728-0.342-0.985-0.44-0.11-0.042-0.166-0.052-0.273-0.051-0.441 0.006-1.446 0.038-1.959 0.071a0.244 0.244 0 0 1-0.052-0.003l-0.244-0.038c0.694-0.12 2.408-0.273 3.117-0.31l-0.289-0.096a0.596 0.596 0 0 0-0.173-0.03c-0.97-0.022-2.304-0.018-3.432 0.067a0.61 0.61 0 0 0-0.202 0.05c-0.323 0.142-1.11 0.569-1.899 1.008-0.255 0.142-0.529 0.295-0.773 0.433 0 0 0.099-0.127 0.117-0.152 0.017-0.021 0.022-0.025 0.045-0.04 0.102-0.068 0.411-0.268 0.534-0.358 0.238-0.179 0.613-0.496 0.837-0.692a0.668 0.668 0 0 0 0.128-0.153c0.072-0.117 0.151-0.244 0.2-0.314 0.041-0.061 0.112-0.104 0.201-0.112zM3.655 2.404c0.306-0.032 0.477 0.087 0.477 0.398v0.171c0 0.317-0.171 0.446-0.477 0.477a71.255 71.255 0 0 0-1.269 0.144v0.469c-0.089 0.011-0.177 0.022-0.266 0.033V2.581a70.662 70.662 0 0 1 1.535-0.177z m14.203-0.049a71.245 71.245 0 0 1 2.022 0.226v0.245a68.767 68.767 0 0 0-0.874-0.105v1.27a94.038 94.038 0 0 0-0.266-0.03V2.691a68.332 68.332 0 0 0-0.882-0.092v-0.244zM6.649 2.156v0.244a71.853 71.853 0 0 0-1.664 0.122v0.373a68.573 68.573 0 0 1 1.48-0.11v0.244a70.541 70.541 0 0 0-1.48 0.11v0.41a69.7 69.7 0 0 1 1.664-0.122v0.244a70.938 70.938 0 0 0-1.924 0.145v-1.515a70.535 70.535 0 0 1 1.924-0.145z m8.633 0.415c0-0.34 0.168-0.41 0.548-0.384 0.333 0.023 0.666 0.048 0.998 0.075 0.33 0.027 0.547 0.12 0.547 0.467v0.676c0 0.34-0.188 0.402-0.547 0.372a72.552 72.552 0 0 0-0.998-0.075c-0.363-0.025-0.548-0.095-0.548-0.455v-0.676z m-2.581-0.529c0.643 0.015 1.285 0.04 1.927 0.073v0.244a70.737 70.737 0 0 0-1.666-0.066v0.373c0.494 0.014 0.988 0.033 1.482 0.057v0.244a70.441 70.441 0 0 0-1.482-0.056v0.409a69.156 69.156 0 0 1 1.666 0.066v0.244a71.29 71.29 0 0 0-1.927-0.073v-1.515z m-3.344-0.001v1.096c0 0.347-0.182 0.423-0.549 0.434a68.029 68.029 0 0 0-0.957 0.036c-0.34 0.015-0.548-0.049-0.548-0.393V2.119l0.261-0.014v1.142c0 0.069 0.059 0.126 0.138 0.123a70.12 70.12 0 0 1 1.255-0.048c0.08-0.002 0.132-0.063 0.132-0.132v-1.142c0.089-0.003 0.178-0.005 0.268-0.007z m6.324 0.38c-0.079-0.005-0.139 0.05-0.138 0.13v0.749c0 0.069 0.059 0.142 0.138 0.148 0.432 0.029 0.864 0.061 1.296 0.097 0.069 0.006 0.138-0.058 0.138-0.126v-0.75c0-0.079-0.069-0.144-0.138-0.15a70.186 70.186 0 0 0-1.296-0.098z m-5.172-0.397c0.479-0.004 0.958-0.002 1.437 0.004v0.244a72.147 72.147 0 0 0-1.536-0.004c-0.069 0.001-0.139 0.061-0.139 0.131v0.759c0 0.069 0.069 0.138 0.139 0.137 0.459-0.004 0.918-0.003 1.378 0.002v-0.409a66.592 66.592 0 0 0-0.8-0.005v-0.244c0.353 0 0.707 0.003 1.06 0.008v0.898a71.123 71.123 0 0 0-1.489-0.007c-0.363 0.003-0.548-0.06-0.549-0.413v-0.661c0-0.33 0.165-0.438 0.499-0.44z m-6.754 0.616l-0.021 0a70.229 70.229 0 0 0-1.348 0.152V3.35a71.034 71.034 0 0 1 1.348-0.152c0.069-0.007 0.138-0.07 0.138-0.136v-0.307c0-0.069-0.069-0.122-0.138-0.115l0.021 0z"/></svg>