<svg fill="#4A5F88" role="img" viewBox="0 0 31 24" xmlns="http://www.w3.org/2000/svg"><title>Phabricator</title><path d="M29.873 9.453l-5.691-5.72C21.996 1.436 18.919 0 15.499 0S9.003 1.437 6.816 3.732L1.127 9.456a3.602 3.602 0 0 0 0 5.093l5.84 5.886c2.175 2.2 5.194 3.565 8.532 3.565s6.357-1.365 8.533-3.566l5.841-5.887a3.602 3.602 0 0 0 0-5.094zM15.499 21.494a9.493 9.493 0 1 1 0-18.986 9.493 9.493 0 0 1 0 18.986z m4.694-9.734l1.285-1.304-0.575-1.322H19.073l-0.586-0.578-0.049-1.848-1.296-0.554-1.298 1.283h-0.802l-1.346-1.293-1.314 0.534 0.045 1.807-0.571 0.57-1.857-0.018-0.525 1.315 1.329 1.298 0.008 0.814-1.281 1.295 0.566 1.325 1.836-0.002 0.586 0.582 0.021 1.828 1.373 0.575 1.24-1.297 0.818 0.013 1.322 1.299 1.342-0.544-0.056-1.811 0.569-0.566 1.838 0.017 0.544-1.324-1.324-1.286-0.012-0.808z m-4.776 2.321a1.971 1.971 0 1 1 0-3.94 1.971 1.971 0 0 1 0 3.94z"/></svg>