<svg fill="#0065D3" role="img" viewBox="0 0 56 24" xmlns="http://www.w3.org/2000/svg"><title>Philips Hue</title><path d="M47.985 6.469c-4.708 0-8.078 3.194-8.485 7.872h-1.53c-0.569 0-0.91 0.332-0.911 0.885 0 0.553 0.341 0.885 0.911 0.885h1.523c0.35 4.817 3.807 7.889 9.022 7.889 2.176 0 3.883-0.332 5.375-1.044 0.364-0.173 0.777-0.5 0.673-1.085a0.77 0.77 0 0 0-0.346-0.558c-0.24-0.15-0.576-0.166-0.973-0.046a18.275 18.275 0 0 0-0.811 0.276c-0.954 0.336-1.777 0.629-3.685 0.629-4.033 0-6.702-2.358-6.803-6.003v-0.058h12.546c0.721 0 1.134-0.378 1.164-1.067v-0.133C55.641 7.08 49.783 6.469 47.985 6.469z m5.476 7.872h-11.523l0.009-0.08c0.279-3.641 2.676-5.994 6.105-5.994 2.613 0 5.409 1.579 5.409 6.005zM22.335 7.9c0-0.772-0.449-1.231-1.198-1.231s-1.198 0.461-1.198 1.231v6.441h2.396z m9.887 8.797c0 3.051-2.185 5.441-4.978 5.441-3.302 0-4.909-1.758-4.909-5.377v-0.65h-2.396v0.784c0 4.715 2.224 7.105 6.609 7.105 2.581 0 4.478-1.12 5.63-3.33l0.046-0.083v1.984c0 0.77 0.445 1.231 1.196 1.231 0.749 0 1.198-0.461 1.199-1.231v-6.46h-2.397z m1.198-10.028c-0.751 0-1.198 0.461-1.198 1.231v6.441h2.397v-6.441c0-0.772-0.449-1.231-1.199-1.231zM8.745 6.469c-3.826 0-5.324 2.471-5.694 3.226l-0.312 0.641V1.295c0-0.8-0.459-1.295-1.198-1.295-0.737 0-1.196 0.495-1.196 1.295v13.046h2.394v-0.034c0-2.878 1.659-5.973 5.31-5.974 2.973 0 4.611 1.908 4.612 5.375v0.633h2.396v-0.566c0-4.711-2.242-7.306-6.312-7.306zM0.345 22.504c0 0.8 0.459 1.297 1.198 1.298 0.737 0 1.196-0.498 1.196-1.298v-6.393H0.345z m12.316 0c0 0.8 0.461 1.297 1.198 1.298s1.198-0.498 1.198-1.298v-6.393h-2.396z"/></svg>