<svg fill="#FD4F00" role="img" viewBox="0 0 36 24" xmlns="http://www.w3.org/2000/svg"><title>Phoenix Framework</title><path d="M13.628 16.743l-0.275-0.053c-1.961-0.363-3.198-1.551-3.787-3.415-0.366-1.162 0.298-2.019 1.519-2.072 0.998-0.047 1.683 0.527 2.286 1.194 0.778 0.86 1.492 1.779 2.256 2.654 1.103 1.258 2.4 2.066 4.176 1.814a7.907 7.907 0 0 0 4.184-1.913c0.181-0.158 0.38-0.293 0.574-0.442l-0.123-0.144a8.829 8.829 0 0 1-3.102 0.369c-1.598-0.079-3.119-0.413-4.483-1.29-1.241-0.802-2.16-1.873-2.596-3.307-0.351-1.156 0.369-1.966 1.569-1.8 0.458 0.072 0.887 0.274 1.232 0.583 0.293 0.246 0.571 0.506 0.869 0.746 1.402 1.127 3.356 1.188 5.133-0.032-2.92-0.015-4.907-1.621-6.655-3.658-0.682-0.796-1.349-1.609-2.048-2.394-1.346-1.519-2.844-2.856-4.896-3.313-2.619-0.582-5.147-0.199-7.573 0.91A6.166 6.166 0 0 0 0.442 2.076h0.515c1.223-0.032 2.142 0.512 2.804 1.513 0.48 0.729 0.705 1.551 0.877 2.399 0.258 1.258 0.126 2.537 0.276 3.802 0.38 3.248 2.04 5.513 5.129 6.672 1.132 0.427 2.294 0.571 3.585 0.278v0.003zM5.818 1.924c-0.489 0.123-0.878-0.073-1.279-0.48 0.688-0.173 1.296-0.24 1.949-0.264a0.822 0.822 0 0 1-0.67 0.744z m16.004 18.962c-0.044-0.31-0.31-0.448-0.521-0.614-0.928-0.72-2.016-0.977-3.166-0.998a5.97 5.97 0 0 1-2.017-0.305c-0.298-0.111-0.629-0.255-0.623-0.637 0.009-0.389 0.348-0.497 0.656-0.592 0.255-0.076 0.515-0.123 0.801-0.19-0.732-0.468-1.446-0.533-2.393-0.149-1.498 0.6-2.973 0.527-4.466-0.009-0.84-0.304-1.589-0.781-2.367-1.205l-0.038 0.029c0.644 1.056 1.519 1.908 2.502 2.633 1.896 1.405 3.968 2.239 6.394 1.867a33.36 33.36 0 0 1 2.361-0.278c0.989-0.079 1.931 0.199 2.877 0.451v-0.003z m-4.571-15.173c-0.053-0.038-0.102-0.132-0.211-0.035a7.693 7.693 0 0 0 3.342 2.599c2.177 0.884 4.389 1.036 6.649 0.254 1.756-0.606 3.014-0.015 3.669 1.692 0.097-1.978-1.068-3.421-2.92-3.702-1.042-0.161-2.005 0.187-2.982 0.468-2.716 0.79-5.244 0.401-7.55-1.276h0.003z m13.543 7.714l1.062 0.094c-0.799-0.702-1.773-0.761-2.762-0.703-1.501 0.085-2.584 0.951-3.57 1.984-0.869 0.913-1.653 1.937-2.95 2.303l0.029 0.059c0.176 0.003 0.351 0.012 0.527 0.003 1.885-0.085 3.658-0.483 5.068-1.85 0.448-0.43 0.843-0.907 1.273-1.354 0.331-0.377 0.822-0.576 1.323-0.536z m-4.378-2.335c-1.405 0.123-2.625 0.702-3.775 1.472-0.881 0.591-1.826 0.869-2.885 0.685-0.187-0.032-0.377-0.059-0.562-0.085l-0.009 0.079c0.067 0.035 0.135 0.073 0.205 0.102 0.176 0.07 0.351 0.155 0.533 0.199 2.043 0.483 3.997 0.234 5.759-0.904 1.112-0.717 2.262-0.852 3.508-0.667 0.126 0.02 0.252 0.041 0.378 0.052 0.117 0.012 0.24 0.129 0.398 0a5.054 5.054 0 0 0-3.55-0.933z m-5.024-4.77a3.921 3.921 0 0 0 2.244-0.533c-0.225 0.02-0.322 0.02-0.413 0.038a3.359 3.359 0 0 1-2.867-0.69l-0.946-0.732c-1.252-0.954-2.686-1.276-4.257-1.246 0.026 0.076 0.029 0.129 0.055 0.155 1.709 1.727 3.687 2.92 6.184 3.005v0.003z m12.366 8.867c-1.059-1.053-2.479-1.185-3.789-0.272 0.869 0.041 1.522 0.316 2.048 0.866 0.187 0.196 0.383 0.38 0.591 0.553 0.802 0.644 2.157 0.673 2.95 0.076-0.931-0.363-0.931-0.363-1.8-1.226v0.003z m-10.532 8.027c-0.928-1.727-2.487-2.119-4.295-2.002 0.533 0.146 1.036 0.38 1.492 0.693 0.418 0.293 0.77 0.655 1.118 1.028 0.691 0.737 1.767 1.188 2.481 1.036-0.328-0.205-0.799-0.752-0.799-0.753h-0.017l0.012 0.009 0.005 0.027c0.006-0.029 0.009-0.023 0.012-0.015h0.029l-0.041-0.018v0.015l0.015 0.006s0.167 0.304-0.012-0.026z"/></svg>