<svg fill="#1C47CB" role="img" viewBox="0 0 24 24" xmlns="http://www.w3.org/2000/svg"><title>Photobucket</title><path d="M23.992 11.498C23.732 5.051 18.472 0 12.008 0c-6.615 0.008-12 5.385-12 12s5.385 12 12 12c6.414 0 11.649-4.984 11.975-11.373 0-0.034 0-0.059 0.009-0.092z m-6.013-7.124c0.075 0.025 0.15 0.059 0.234 0.1a7.823 7.823 0 0 0-1.99-0.259c-3.997 0-7.401 3.111-7.752 7.091-0.008 0.131-0.017 0.262-0.025 0.393 0 0.1-0.009 0.201-0.009 0.309 0 0.1 0 0.201 0.009 0.293 0 0.093 0.025 0.12 0.025 0.418 0.351 3.972 3.755 7.075 7.752 7.075 0.686 0 1.355-0.092 1.99-0.259-0.021 0-0.106 0.049-0.234 0.092-0.079 0.02-0.031 0.014-0.109 0.033-0.195 0.078-0.396 0.139-0.593 0.209-0.366 0.105-0.53 0.144-0.619 0.159-0.201 0.053-0.962 0.201-1.731 0.201-4.524 0-8.212-3.679-8.212-8.212s3.679-8.212 8.212-8.212c0.259 0 0.518 0.017 0.794 0.042 0.206 0.014 0.45 0.057 0.77 0.117 0.142 0.03 0.284 0.061 0.426 0.092 0.229 0.056 0.452 0.134 0.677 0.2 0.289 0.105 0.288 0.113 0.352 0.134z m-8.68 7.476v-0.101c0.126-2.116 1.89-3.78 4.014-3.78 2.216 0 4.022 1.806 4.022 4.023s-1.806 4.022-4.022 4.022c-2.124 0-3.889-1.656-4.014-3.755v-0.042c-0.018-0.164 0-0.254 0-0.368z m4.022 5.034c2.693 0 4.884-2.191 4.884-4.884 0-2.693-2.191-4.884-4.884-4.884-0.117 0-0.226 0.008-0.343 0.017a5.06 5.06 0 0 1 1.388-0.192c2.793 0 5.059 2.275 5.06 5.059 0 2.785-2.275 5.059-5.06 5.059a5.105 5.105 0 0 1-1.388-0.192c0.114 0.013 0.229 0.011 0.343 0.017zM20.287 12c0-3.228-2.601-5.862-5.812-5.92a6.269 6.269 0 0 1 0.803-0.051c3.295 0 5.979 2.684 5.979 5.979 0 3.295-2.684 5.979-5.979 5.979-0.276 0-0.544-0.017-0.803-0.05 3.211-0.075 5.812-2.709 5.812-5.937z m-5.009 6.832c3.771 0 6.84-3.069 6.84-6.84s-3.069-6.84-6.84-6.841h-0.075c0.335-0.05 0.669-0.084 1.012-0.083 3.671 0 6.698 2.86 6.907 6.522v0.803c-0.201 3.663-3.236 6.523-6.907 6.523 0-0.004-0.369 0.015-1.012-0.084h0.075z m-3.27 4.298C5.87 23.13 0.878 18.138 0.878 12S5.87 0.87 12.008 0.87c1.94 0 3.755 0.485 5.344 1.354-0.155-0.077-1.01-0.36-1.121-0.359-0.125-0.033-0.251-0.067-0.368-0.092-0.28-0.065-1.246-0.268-2.375-0.268C7.693 1.488 2.985 6.205 2.985 12s4.716 10.511 10.512 10.511c1.248 0 2.22-0.235 2.283-0.25 0.228-0.044 0.483-0.125 0.535-0.126 0.21-0.042 0.892-0.279 1.054-0.359-1.589 0.861-3.42 1.355-5.361 1.354z m4.934-2.124c-0.247 0.093-0.637 0.23-0.928 0.293-0.117 0.033-0.234 0.059-0.376 0.092-0.027 0.01-0.056 0.011-0.084 0.017a3.519 3.519 0 0 1-0.41 0.075 10.008 10.008 0 0 1-1.664 0.142c-5.319 0-9.65-4.332-9.65-9.65s4.34-9.625 9.658-9.625c1.809 0 3.039 0.475 3.671 0.727l0.352 0.151c0.15 0.067 0.293 0.142 0.435 0.217-0.138-0.052-0.279-0.095-0.418-0.142-0.335-0.104-0.767-0.19-0.879-0.217-0.426-0.075-0.672-0.107-0.844-0.117-0.293-0.025-0.585-0.042-0.87-0.042-5.009 0-9.082 4.072-9.081 9.073s4.072 9.073 9.073 9.073c0.284 0 0.577-0.017 0.861-0.042 0.155-0.009 0.792-0.09 1.062-0.167 0.092-0.017 0.176-0.042 0.268-0.058 0.711-0.178 0.751-0.243 0.819-0.243-0.142 0.075-0.284 0.15-0.435 0.217-0.287 0.112-0.293 0.126-0.56 0.226z"/></svg>