<svg fill="#6C78AF" role="img" viewBox="0 0 34 24" xmlns="http://www.w3.org/2000/svg"><title>phpMyAdmin</title><path d="M7.797 0C9.525 2.462 10.661 5.523 10.918 8.9a18.16 18.16 0 0 1-0.946 7.396 6.039 6.039 0 0 1 4.18-2.144c0.07-0.006 0.139-0.008 0.208-0.011 0.113-0.691 0.662-4.857-1.375-9.404-1.503-3.359-4.223-4.449-5.188-4.737Zm2.502 0.052s3.387 1.501 4.682 7.809c0.855 4.16 0.069 6.808-0.566 8.127a10.343 10.343 0 0 1 6.344-2.807c1.211-0.092 2.386 0.028 3.494 0.328-0.141-1.043-0.835-4.806-3.846-8.334-4.594-5.382-10.108-5.124-10.108-5.124Zm20.859 13.657l-25.227 4.292a3.215 3.215 0 0 1 2.161 3.173 3.252 3.252 0 0 1-0.15 0.859c0.077-0.038 3.785-1.795 8.928-2.863 4.558-0.947 8.057-0.507 8.848-0.385a9.094 9.094 0 0 1 5.44-5.076z m-8.747 5.741c-3.263 0-6.533 0.697-9.311 1.641-4.037 1.374-4.154 1.898-7.813 1.469C2.703 22.257 0.107 20.99 0.107 20.99s3.387 2.773 6.918 2.994c2.796 0.176 4.934-1.157 7.482-1.99 3.746-1.226 6.35-1.366 8.803-1.373C27.363 20.61 33.893 22.351 33.893 22.351s-2.97-1.47-7.085-2.421a19.547 19.547 0 0 0-4.397-0.479Z"/></svg>