<svg fill="#2E3192" role="img" viewBox="0 0 59 24" xmlns="http://www.w3.org/2000/svg"><title>Picxy</title><path d="M56.956 5.127a1.817 1.817 0 0 0-1.195 0.676c-0.176 0.228-0.304 0.502-0.526 1.126a602.364 602.364 0 0 1-1.94 5.313 100.333 100.333 0 0 0-0.998 2.809 7.132 7.132 0 0 1-0.13 0.409 19.401 19.401 0 0 1-0.558-1.354 437.284 437.284 0 0 0-3.012-7.527c-0.196-0.495-0.23-0.558-0.384-0.783a1.445 1.445 0 0 0-0.803-0.605c-0.171-0.054-0.196-0.054-1.188-0.054h-1.011v2.187l0.384 0.004c0.453 0 0.534 0.029 0.696 0.213 0.091 0.098 0.223 0.406 1.165 2.635a900.763 900.763 0 0 0 1.599 3.77l0.813 1.9c0.441 1.065 0.994 2.404 0.999 2.434l0.024 0.098c0.024 0.103-0.044 0.301-0.294 0.904-0.482 1.151-0.735 1.577-1.212 1.99-0.632 0.563-1.295 0.735-1.975 0.514a7.223 7.223 0 0 1-1.046-0.504 2.534 2.534 0 0 0-0.433-0.211 13.907 13.907 0 0 0-0.23 0.397c-0.122 0.211-0.233 0.392-0.245 0.411-0.049 0.059-0.514 0.921-0.514 0.948 0 0.073 0.526 0.433 0.947 0.646a4.645 4.645 0 0 0 2.211 0.527c0.783 0 1.371-0.135 2.025-0.466 1.028-0.519 1.724-1.396 2.404-3.041 0.294-0.703 1.371-3.364 2.987-7.369 1.983-4.904 1.92-4.75 2.111-5.137 0.181-0.362 0.26-0.453 0.484-0.573 0.115-0.059 0.154-0.066 0.449-0.078L58.88 7.324v-2.211h-0.891c-0.49-0.005-0.955 0-1.033 0.014zM25.386 5.071c-1.205 0.122-2.118 0.414-3.031 0.952a6.733 6.733 0 0 0-2.096 2.042 6.366 6.366 0 0 0-0.955 2.689 11.752 11.752 0 0 0 0.01 2.066c0.108 0.852 0.274 1.418 0.617 2.111 0.245 0.49 0.384 0.715 0.698 1.101a7.01 7.01 0 0 0 4.187 2.41c0.304 0.049 0.406 0.054 1.175 0.054 0.93 0 1.224-0.027 1.844-0.177 1.033-0.247 1.817-0.627 2.783-1.346 0.157-0.118 0.384-0.282 0.505-0.368 0.159-0.11 0.22-0.171 0.22-0.205 0-0.051-0.071-0.201-0.098-0.216a3.582 3.582 0 0 0-0.303-0.499c-0.032-0.042-0.049-0.076-0.042-0.076 0.007 0-0.005-0.024-0.032-0.054-0.024-0.024-0.042-0.059-0.037-0.073 0.007-0.007 0.002-0.017-0.004-0.018-0.015 0-0.032-0.02-0.045-0.048a17.873 17.873 0 0 0-0.384-0.637l-0.078-0.125-0.769 0.514a9.319 9.319 0 0 1-1.097 0.681c-0.416 0.196-0.881 0.355-1.31 0.441a3.396 3.396 0 0 1-0.879 0.066 3.915 3.915 0 0 1-1.518-0.228 5.822 5.822 0 0 1-1.239-0.632 5.362 5.362 0 0 1-0.886-0.881 4.263 4.263 0 0 1-0.752-1.567 4.855 4.855 0 0 1-0.161-1.303c0-0.49 0.049-0.84 0.171-1.332 0.13-0.509 0.247-0.793 0.514-1.234 0.686-1.131 1.748-1.827 3.049-1.997a7.754 7.754 0 0 1 1.305-0.013c0.321 0.037 0.688 0.127 0.898 0.226a1.812 1.812 0 0 1 0.776 0.653c0.103 0.176 0.211 0.671 0.211 0.972v0.147h2.091v-0.71c0-0.786-0.024-0.96-0.164-1.324-0.213-0.551-0.774-1.131-1.379-1.435a6.684 6.684 0 0 0-1.334-0.475c-0.522-0.122-0.803-0.152-1.606-0.157a17.281 17.281 0 0 0-0.855 0.005z m-11.666 0.069c-0.01 0.01-0.017 0.465-0.018 1.011v0.996h0.627c0.693 0 0.735 0.007 0.889 0.167 0.164 0.176 0.154-0.215 0.152 4.701 0 4.608 0.005 5.166 0.09 5.499 0.125 0.49 0.411 0.783 0.872 0.891 0.262 0.059 1.489 0.11 1.518 0.061 0.002-0.01 0-2.742-0.012-6.067l-0.015-6.047-0.049-0.187c-0.118-0.428-0.328-0.71-0.634-0.861-0.318-0.159-0.34-0.162-1.951-0.172a30.123 30.123 0 0 0-1.469 0.008z m18.323 0.014a24.107 24.107 0 0 0-0.007 1.078l0.007 1.045h0.417c0.318 0 0.451 0.015 0.568 0.044 0.416 0.113 0.644 0.301 0.981 0.798a270.873 270.873 0 0 1 2.331 3.44 0.308 0.308 0 0 1 0.042 0.098c0 0.015-1.004 1.552-2.223 3.416a908.453 908.453 0 0 0-2.223 3.403c0 0.005 0.637 0.01 1.41 0.01h1.408l1.574-2.456a787.997 787.997 0 0 1 1.604-2.497c0.027-0.037 0.064 0.007 0.352 0.428 0.176 0.26 0.913 1.383 1.641 2.498l1.312 2.027h1.401c1.325 0 1.396-0.005 1.376-0.044l-2.233-3.416c-1.91-2.928-2.204-3.384-2.179-3.423 0.012-0.024 0.529-0.815 1.15-1.755 1.175-1.77 1.3-1.946 1.621-2.194a2.431 2.431 0 0 1 0.348-0.206l0.208-0.1 1.023-0.024v-2.187h-0.94c-1.009 0-1.183 0.015-1.532 0.123a1.991 1.991 0 0 0-0.882 0.543c-0.176 0.179-0.264 0.304-0.553 0.791-0.404 0.686-2.037 3.281-2.052 3.269-0.049-0.029-0.612-0.911-1.873-2.931-0.551-0.881-0.651-1.028-0.862-1.227-0.482-0.465-0.994-0.58-2.571-0.58-0.485 0-0.637 0.007-0.644 0.029zM1.247 0.013a0.979 0.979 0 0 0-0.411 0.102 1.244 1.244 0 0 0-0.676 0.828c-0.049 0.176-0.044-0.752-0.034 10.455v7.039l1.295-0.005 1.288-0.007V11.731h1.102c1.959-0.005 3.359-0.037 3.812-0.091 0.722-0.091 1.232-0.23 1.763-0.49a4.97 4.97 0 0 0 1.966-1.738 5.411 5.411 0 0 0 0.96-2.59 11.676 11.676 0 0 0 0-1.935 5.35 5.35 0 0 0-1.917-3.587 5.835 5.835 0 0 0-2.326-1.106 9.818 9.818 0 0 0-1.129-0.162A177.396 177.396 0 0 0 1.245 0.015Zm5.265 2.333a3.668 3.668 0 0 1 1.684 0.588c0.22 0.142 0.649 0.556 0.828 0.798 0.402 0.536 0.617 1.109 0.685 1.819 0.034 0.306 0.034 0.269 0 0.575-0.069 0.71-0.284 1.283-0.685 1.819a4.542 4.542 0 0 1-0.828 0.801 3.714 3.714 0 0 1-1.697 0.588c-0.304 0.032-0.264 0.032-0.57 0a3.722 3.722 0 0 1-1.694-0.588 4.652 4.652 0 0 1-0.833-0.801 3.484 3.484 0 0 1-0.685-1.819c-0.029-0.306-0.029-0.269 0-0.575 0.073-0.71 0.289-1.283 0.685-1.819a4.652 4.652 0 0 1 0.833-0.801c0.49-0.326 1.241-0.58 1.728-0.587a0.955 0.955 0 0 0 0.181-0.025 0.176 0.176 0 0 1 0.093-0.005c0.02 0.005 0.144 0.02 0.275 0.032z m-0.319 1.42a1.567 1.567 0 0 0-1.033 1.048 2.135 2.135 0 0 0 0 0.813c0.115 0.392 0.399 0.744 0.739 0.92 0.269 0.14 0.399 0.171 0.72 0.172 0.318 0 0.446-0.032 0.72-0.172a1.55 1.55 0 0 0 0.74-0.92 2.135 2.135 0 0 0 0-0.813 1.572 1.572 0 0 0-1.053-1.053 2.093 2.093 0 0 0-0.833 0.007zM15.935 0.125a1.552 1.552 0 0 0-1.084 1.09 1.959 1.959 0 0 0-0.037 0.379c0 0.448 0.13 0.764 0.441 1.073a1.383 1.383 0 0 0 1.07 0.438 1.973 1.973 0 0 0 0.382-0.037 1.547 1.547 0 0 0 1.092-1.092 2.147 2.147 0 0 0 0-0.761 1.55 1.55 0 0 0-1.092-1.095 2.145 2.145 0 0 0-0.774 0.005z"/></svg>