<svg fill="#6428B4" role="img" viewBox="0 0 131 24" xmlns="http://www.w3.org/2000/svg"><title>Pimcore</title><path d="M130.629 4.288c0 1.422-1.151 2.573-2.573 2.572H120.805c-0.255 0-0.456 0.206-0.456 0.456v2.969H130.629v0.857c0 1.422-1.151 2.573-2.573 2.573h-7.712v2.969c0 0.25 0.206 0.456 0.456 0.456H130.629v0.857c0 1.417-1.151 2.573-2.573 2.573h-8.57a2.571 2.571 0 0 1-2.572-2.573v-12c0-1.417 1.151-2.573 2.572-2.572H130.629v0.863m-30.334 2.572a0.516 0.516 0 0 0-0.515 0.516V12h7.712c1.465 0 2.643-1.232 2.567-2.714-0.076-1.373-1.237-2.431-2.611-2.431h-7.153m13.194 2.496c0.027 2.388-1.335 4.456-3.332 5.45l3.332 5.769h-2.969c-0.613 0-1.178-0.326-1.481-0.858l-2.475-4.282h-6.784v2.573c0 1.422-1.151 2.573-2.573 2.572h-0.858v-14.567c0-1.422 1.151-2.573 2.573-2.572h8.407c3.311-0.005 6.122 2.605 6.16 5.915m-29.134 7.789c2.833 0 5.14-2.307 5.14-5.14s-2.307-5.14-5.14-5.14c-1.786 0-3.36 0.917-4.282 2.301l-1.889 2.839 1.872 2.822c0.923 1.395 2.502 2.318 4.299 2.318m0-13.71c4.733 0 8.57 3.837 8.57 8.57s-3.837 8.57-8.57 8.57c-2.985 0-5.612-1.525-7.143-3.837l-1.085-1.629-2.334 3.517c-2.149 3.24-5.829 5.379-10.008 5.379-6.627 0-12-5.373-12-12 0-6.627 5.373-12 12-12 4.163 0 7.826 2.117 9.981 5.335l0.304 0.456-2.057 3.11-1.124-1.699c-1.541-2.274-4.147-3.772-7.099-3.772-4.727 0-8.57 3.843-8.57 8.57s3.843 8.57 8.57 8.57c2.98 0 5.607-1.525 7.143-3.837l6.274-9.455c1.531-2.318 4.157-3.848 7.148-3.848m-40.125 0.706l-5.791 5.791a0.515 0.515 0 0 1-0.727 0l-5.781-5.78a2.425 2.425 0 0 0-4.141 1.715v14.713h0.858c1.417 0 2.573-1.151 2.572-2.572v-9.173c0-0.201 0.244-0.304 0.391-0.162l4.646 4.645c1.004 1.004 2.632 1.004 3.636 0l4.646-4.645a0.229 0.229 0 0 1 0.391 0.162v11.74h0.858c1.417 0 2.573-1.151 2.572-2.573v-12.168c0-1.324-1.075-2.399-2.399-2.399h-0.038c-0.635 0-1.243 0.255-1.693 0.706m-22.437 16.434c1.422 0 2.573-1.151 2.573-2.573v-14.567h-0.858c-1.422 0-2.573 1.151-2.572 2.573v14.567h0.857M11.438 12c1.384 0 2.578-1.058 2.643-2.442 0.071-1.476-1.107-2.703-2.567-2.703H4.311c-0.282 0-0.516 0.233-0.515 0.515V12h7.642m-0.082-8.57c3.36 0 6.22 2.752 6.155 6.111-0.06 3.262-2.725 5.883-5.997 5.884H3.801v2.572c0 1.417-1.151 2.573-2.572 2.573H0.371v-14.567c0-1.422 1.151-2.573 2.573-2.573h8.412"/></svg>