<svg fill="#F4AF47" role="img" viewBox="0 0 25 24" xmlns="http://www.w3.org/2000/svg"><title>Pi Network</title><path d="M12.5 0c-6.629 0-12.002 5.372-12.002 12.002 0 6.629 5.373 11.998 12.002 11.998s12.002-5.372 12.002-12.002C24.502 5.369 19.125 0 12.5 0z m0 1.719c5.68 0 10.283 4.603 10.283 10.283S18.181 22.285 12.5 22.285 2.217 17.682 2.217 12.002 6.819 1.719 12.5 1.719zM9.602 5.942c-0.123 0-0.227 0.1-0.228 0.227v1.139c0 0.122 0.1 0.226 0.228 0.226h1.56a0.225 0.225 0 0 0 0.227-0.226v-1.14c0-0.121-0.1-0.226-0.227-0.226h-1.56z m3.685 0c-0.122 0-0.226 0.1-0.226 0.227v1.139c0 0.122 0.1 0.226 0.226 0.226h1.559a0.228 0.228 0 0 0 0.226-0.226v-1.14c0-0.121-0.1-0.226-0.226-0.226h-1.559z m3.22 1.407v1.19H7.851c-1.895 0.026-1.975 2.042-1.975 2.043v1.461H7.929l0.008-1.447h1.398v7.575c-0.005 0.457 0.451 0.285 0.452 0.285l1.461-0.516c0.23-0.099 0.186-0.308 0.186-0.308v-7.023h1.591v7.642c0.014 0.357 0.366 0.213 0.366 0.213l1.591-0.565c0.14-0.076 0.118-0.195 0.118-0.195l-0.022-7.063 1.528-0.04c1.909-0.027 1.963-2.103 1.963-2.104V7.349h-2.062"/></svg>