<svg fill="#00B453" role="img" viewBox="0 0 28 24" xmlns="http://www.w3.org/2000/svg"><title>Pine Script</title><path d="M4.458 16.809L0.205 22.787c-0.361 0.508 0 1.213 0.623 1.213h26.345c0.621 0 0.983-0.706 0.622-1.214l-4.878-6.884-2.299 1.348c-0.043 1.235-1.054 2.222-2.295 2.222-1.268 0-2.296-1.03-2.296-2.302 0-0.064 0.003-0.128 0.008-0.191l-3.686-2.705c-0.396 0.323-0.9 0.517-1.451 0.517-0.65 0-1.237-0.272-1.655-0.707l-4.785 2.725Zm8.935-16.487L4.49 12.85c-0.258 0.365-0.153 0.872 0.229 1.104l0.803 0.484 3.089-1.76a2.029 2.029 0 0 1-0.008-0.189c0-1.272 1.028-2.302 2.297-2.302 1.267 0 2.295 1.03 2.295 2.302 0 0.16-0.016 0.317-0.048 0.468l3.539 2.599c0.417-0.425 0.997-0.688 1.637-0.688 0.736 0 1.392 0.347 1.812 0.887l3.288-1.928c0.254-0.258 0.3-0.675 0.079-0.986L14.642 0.324c-0.304-0.431-0.943-0.433-1.249-0.002Z"/></svg>