<svg fill="#FFF000" role="img" viewBox="0 0 30 24" xmlns="http://www.w3.org/2000/svg"><title>Pingdom</title><path d="M14.95 19.218l9.898-4.223-8.766 9.005c-0.154-1.635-0.537-3.246-1.132-4.781v-0.001zM29.924 10.903c-6.344-0.294-12.695 0.515-18.763 2.388 1.273 1.334 2.339 2.85 3.153 4.503 5.027-2.798 11.996-6.371 15.61-6.878v-0.019 0.006z m-15.638 0.342l0.258-0.075c1.913-0.571 3.792-1.262 5.625-2.059 1.856-0.728 3.602-1.716 5.172-2.944 1.673-1.329 2.929-3.108 3.625-5.126 0.149-0.332 0.262-0.683 0.332-1.041-2.517 3.432-12.488 3.791-12.487 3.791l2.35-2.157C12.314 1.658 5.635 3.822 0.076 7.828c3.768 0.4 7.309 1.985 10.122 4.519 1.351-0.418 2.731-0.716 4.087-1.093v-0.008l0.001-0.001z"/></svg>