<svg fill="#1A1928" role="img" viewBox="0 0 38 24" xmlns="http://www.w3.org/2000/svg"><title>Pioneer DJ</title><path d="M24.398 1.967c2.3 1.785 2.676 4.204 1.727 6.738-0.881 2.345-2.86 4.618-5.971 6.376-3.448 1.914-7.017 2.424-10.909 2.424H0.279L6.85 0h7.88c3.975 0 7.332 0.156 9.668 1.966z m-4.855 6.607c0.515-1.379 0.384-3.435-0.531-4.533-1.027-1.22-2.61-1.362-4.895-1.362l-1.117 0.025s-0.961-0.109-1.351 0.764c-0.239 0.546 0.1-0.41-3.763 9.892-0.509 1.367 0.705 1.434 0.705 1.434s4.359 0.265 8.007-2.259c1.546-1.069 2.46-2.66 2.945-3.961z m9.264-2.289L37.721 6.331l-4.512 12.061c-1.473 3.928-4.518 5.608-10.627 5.608l-4.771-0.062 1.141-2.724c6.906 0.328 8.151-2.746 8.369-3.337l2.88-7.748s0.495-1.379-0.627-1.379h-1.766Z"/></svg>