<svg fill="#517A9E" role="img" viewBox="0 0 24 24" xmlns="http://www.w3.org/2000/svg"><title>Pivotal Tracker</title><path d="M12.001 0c-6.617 0-12 5.382-12 11.998 0 6.618 5.384 12.002 12 12.002S23.999 18.616 23.999 11.998C23.999 5.382 18.618 0 12.001 0z m0 2.43a9.568 9.568 0 0 1 9.568 9.568c0 5.286-4.283 9.572-9.568 9.572-5.285 0-9.57-4.286-9.57-9.572 0-5.285 4.285-9.568 9.57-9.568z m-0.135 1.31L8.821 5.498V5.5l2.68 4.64c0.425-0.113 0.888-0.08 1.31 0.118l1.41-2.442-2.355-4.076z m4.17 2.256l-2.68 4.643c0.325 0.324 0.52 0.749 0.557 1.195h2.816l2.356-4.076-3.049-1.762zM4.78 7.984v3.55h0.002v-0.03h5.36a1.904 1.904 0 0 1 0.756-1.08L9.489 7.984H4.78z m2.487 4.182L4.911 16.24l3.049 1.762 2.682-4.645a1.929 1.929 0 0 1-0.557-1.191H7.267z m6.59 0.33a1.904 1.904 0 0 1-0.756 1.078l1.41 2.442h4.707v-3.52h-5.362z m-2.67 1.244l-1.41 2.442 2.353 4.076 3.049-1.76-2.68-4.64c-0.425 0.114-0.89 0.08-1.313-0.118z"/></svg>