<svg fill="#FF7700" role="img" viewBox="0 0 23 24" xmlns="http://www.w3.org/2000/svg"><title>Piwigo</title><path d="M16.212 12.777A4.713 4.713 0 0 1 11.5 17.49a4.713 4.713 0 0 1-4.713-4.713A4.713 4.713 0 0 1 11.5 8.066a4.713 4.713 0 0 1 4.712 4.711z m2.4-12.776c-2.572 0.058-2.358 1.544-8.237 1.555h-4.15A5.947 5.947 0 0 0 0.277 7.503v10.55A5.947 5.947 0 0 0 6.225 24h10.55a5.947 5.947 0 0 0 5.948-5.947V4.081l-0.008-0.018c0-0.014 0.004-0.028 0.004-0.043 0-2.227-1.88-4.02-4.108-4.02z m0.09 2.545a1.409 1.409 0 0 1 1.407 1.41A1.409 1.409 0 0 1 18.7 5.364a1.409 1.409 0 0 1-1.41-1.408 1.409 1.409 0 0 1 1.41-1.41zM11.5 6.12a6.656 6.656 0 0 1 6.656 6.655A6.656 6.656 0 0 1 11.5 19.434a6.656 6.656 0 0 1-6.656-6.657A6.656 6.656 0 0 1 11.5 6.122z"/></svg>