<svg fill="#2EC66D" role="img" viewBox="0 0 38 24" xmlns="http://www.w3.org/2000/svg"><title>Pixabay</title><path d="M9.043 9.241a1.387 1.387 0 0 1-1.385-1.387H2.908c0 0.766-0.622 1.387-1.387 1.387H0.252v14.759h24.31v-14.759H9.064z m-1.384 4.368h-4.749v-2.067h4.749v2.067z m8.349 8.177a5.11 5.11 0 0 1-5.104-5.107c0-2.815 2.29-4.988 5.104-4.988s5.104 2.172 5.104 4.988a5.11 5.11 0 0 1-5.104 5.107z m2.744-5.107c0 1.514-1.231 2.745-2.744 2.745a2.748 2.748 0 0 1-2.743-2.745c0-1.514 1.231-2.745 2.743-2.745s2.743 1.231 2.744 2.745zM37.748 8.096l-6.14 15.867-4.943-1.916V19.343l3.502 1.357 4.32-11.164L18.297 3.262l-1.5 3.878h-2.703l2.764-7.14L37.748 8.096Z"/></svg>