<svg fill="#3EBBDF" role="img" viewBox="0 0 25 24" xmlns="http://www.w3.org/2000/svg"><title>Pixlr</title><path d="M8.75 14.4a17.765 17.765 0 0 1-2.655-0.3A16.076 16.076 0 0 1 0.455 11.82v0.285c0 6.075 4.5 11.085 10.35 11.895a48.751 48.751 0 0 1-1.815-7.845c-0.075-0.554-0.165-1.139-0.24-1.755Zm6.3-4.65c0.375-0.42 0.615-0.945 0.69-1.5 0.015-0.12 0.03-0.241 0.03-0.345a2.008 2.008 0 0 0-0.241-1.02 1.345 1.345 0 0 0-0.659-0.631c-1.199-0.584-2.625 0.66-3.135 1.697 0 0 0 0.014-0.015 0.014-0.72 1.365-0.525 3.555-0.525 3.555a8.301 8.301 0 0 0 2.94-1.035c0.33-0.196 0.644-0.436 0.915-0.735zM12.5 0C6.965 0 2.315 3.734 0.92 8.835c0.105 0.135 0.645 0.435 0.735 0.495 0.255 0.165 0.525 0.33 0.795 0.495 1.114 0.649 2.908 1.476 5.175 1.755 0.315 0.06 0.645 0.074 0.96 0.075 0-0.12-0.015-0.24-0.015-0.36-0.015-0.585 0.015-1.184 0.075-1.77 0.03-0.24 0.045-0.465 0.09-0.705 0.015-0.045 0.015-0.105 0.03-0.15v-0.045c0.375-2.011 1.425-3.795 3.375-4.665 2.011-0.885 4.306-0.525 5.566 1.365a5.238 5.238 0 0 1-0.121 5.505c-1.32 2.056-3.645 3.045-6.09 3.375a44.427 44.427 0 0 0 0.645 4.05 48.432 48.432 0 0 0 0.885 3.525c0.015 0.06 0.03 0.12 0.06 0.18 0.195 0.675 0.42 1.35 0.645 2.01C19.805 23.371 24.545 18.24 24.545 12.015 24.515 5.385 19.13 0 12.5 0"/></svg>