<svg fill="#0070D1" role="img" viewBox="0 0 31 24" xmlns="http://www.w3.org/2000/svg"><title>PlayStation</title><path d="M11.652 0v22.391l4.996 1.609V5.222c0-0.88 0.388-1.469 1.013-1.265 0.812 0.23 0.97 1.039 0.97 1.92v7.497c3.115 1.522 5.566-0.003 5.566-4.022 0-4.131-1.437-5.966-5.663-7.435-1.668-0.572-4.757-1.513-6.878-1.917z m5.941 20.724l8.034-2.903c0.912-0.329 1.054-0.798 0.314-1.043-0.748-0.245-2.089-0.177-3.008 0.156l-5.365 1.915V15.803l0.306-0.109s1.533-0.536 3.717-0.785c2.164-0.23 4.83 0.038 6.938 0.844 2.358 0.767 2.603 1.878 2.011 2.644-0.593 0.766-2.07 1.322-2.07 1.322l-10.902 3.965V20.754zM2.494 20.422c-2.425-0.695-2.825-2.128-1.726-2.96 1.022-0.748 2.756-1.342 2.757-1.343l7.165-2.569v2.952L5.554 18.38c-0.9 0.346-1.053 0.806-0.305 1.054 0.748 0.249 2.089 0.191 2.989-0.153L10.711 18.38v2.647c-0.153 0.038-0.327 0.056-0.497 0.093-2.474 0.422-5.099 0.25-7.705-0.611z"/></svg>