<svg fill="#003791" role="img" viewBox="0 0 112 24" xmlns="http://www.w3.org/2000/svg"><title>PlayStation 5</title><path d="M48.777 23.972a6.444 6.444 0 0 0 6.444-6.444v-11.084a3.883 3.883 0 0 1 3.887-3.882h12.508a0.174 0.174 0 0 0 0.169-0.174V0.169a0.169 0.169 0 0 0-0.169-0.169H56.546a6.444 6.444 0 0 0-6.449 6.444v11.093a3.887 3.887 0 0 1-3.882 3.887H33.881a0.169 0.169 0 0 0-0.169 0.169v2.219a0.169 0.169 0 0 0 0.169 0.169z m28.169-14.966V0.169a0.169 0.169 0 0 1 0.169-0.169h34.054a0.174 0.174 0 0 1 0.174 0.169v2.219a0.179 0.179 0 0 1-0.174 0.174h-28.935a0.169 0.169 0 0 0-0.169 0.169v5.758a1.843 1.843 0 0 0 1.847 1.852h21.542a6.825 6.825 0 0 1 0 13.631h-28.339a0.169 0.169 0 0 1-0.169-0.169v-2.21a0.169 0.169 0 0 1 0.169-0.169h25.772a4.268 4.268 0 1 0-0.033-8.531h-22.026a3.883 3.883 0 0 1-3.882-3.887m-50.543 1.335a3.89 3.89 0 0 0 0-7.779H0.25a0.174 0.174 0 0 1-0.169-0.174V0.169a0.169 0.169 0 0 1 0.169-0.169h28.672a6.449 6.449 0 0 1 0 12.893H9.087a3.883 3.883 0 0 0-3.883 3.887v7.051a0.169 0.169 0 0 1-0.169 0.169H0.25a0.169 0.169 0 0 1-0.169-0.188v-7.051a6.444 6.444 0 0 1 6.449-6.42Z"/></svg>