<svg fill="#003791" role="img" viewBox="0 0 145 24" xmlns="http://www.w3.org/2000/svg"><title>PlayStation Vita</title><path d="M19.543 13.299H8.128c-1.56 0-2.719 1.188-2.719 3.229v7.412H0.482v-7.142c0-4.009 2.521-6.716 6.086-6.715h11.546c2.827-0.108 3.505-1.512 3.505-3.553 0-1.56-0.78-3.697-3.505-3.481H0.482v-2.941h19.061c4.993 0 6.962 2.887 6.962 6.422 0 4.015-1.968 6.77-6.962 6.769z m20.933-6.733v10.88c0 3.979-1.794 6.458-6.758 6.458H23.054v-2.941h9.302c1.908 0 3.043-1.548 3.043-3.517v-10.88c0-3.469 1.68-6.464 6.613-6.464h10.593v2.941H43.441c-2.473-0.102-2.965 1.92-2.965 3.523z m29.047 17.428c-1.986-0.108-2.821-1.62-3.193-2.263-0.378-0.642-11.523-21.659-11.522-21.659h5.545l9.23 17.134c0.48 0.96 1.572 1.2 2.161 0.072l9.182-17.206h3.463s-10.791 20.429-11.223 21.125c-0.426 0.702-1.656 2.905-3.643 2.797z m18.035-23.838h5.041v23.766h-5.041z m22.625 2.761l0.018 20.867h-4.957V2.941l-9.422-0.012v-2.899L119.666 0l-0.012 2.935z m19.415-2.887c-1.884 0.03-3.061 2.125-3.475 2.803-0.426 0.696-11.241 21.167-11.24 21.167h3.468l2.641-5.041h15.25l2.725 5.041H144.518s-11.163-21.053-11.541-21.701c-0.372-0.642-1.206-2.161-3.199-2.269h-0.18z m-1.08 5.978c0.468-0.03 0.93 0.282 1.2 0.828l4.952 9.152h-12.027l4.909-9.23c0.258-0.492 0.612-0.72 0.972-0.75Z"/></svg>