<svg fill="#003791" role="img" viewBox="0 0 113 24" xmlns="http://www.w3.org/2000/svg"><title>PlayStation 4</title><path d="M57.913 17.523v-11.172c0-2.275 1.062-3.903 3.333-3.903h13.993c0.08 0 0.164-0.084 0.164-0.169v-2.223c0-0.019 0-0.037-0.014-0.056h-17.129c-3.707 0.468-5.523 3.056-5.523 6.351v11.167c0 2.256-1.09 3.889-3.323 3.889H34.653c-0.084 0-0.168 0.056-0.169 0.169v2.223c0 0.094 0.047 0.164 0.108 0.187h16.774c4.367-0.117 6.52-2.902 6.519-6.482zM0.45 24h4.914a0.197 0.197 0 0 0 0.117-0.187v-7.114c0-2.279 1.287-3.852 3.164-3.852h20.233c4.559 0 6.763-2.808 6.762-6.477 0-3.3-1.807-5.883-5.522-6.351H0.366c0 0.014-0.028 0.023-0.028 0.047v2.223c0 0.112 0.061 0.168 0.173 0.168h26.663c2.265 0 3.332 1.638 3.332 3.899 0 2.265-1.062 3.913-3.332 3.912H6.076c-3.276 0-5.738 2.771-5.738 6.426v7.109c0 0.094 0.047 0.168 0.131 0.188z m74.874-2.574h26.855c0.08 0 0.14 0.056 0.14 0.112v2.261c0 0.112 0.08 0.168 0.164 0.168h4.844c0.084 0 0.168-0.047 0.168-0.168v-2.223c0-0.084 0.094-0.168 0.188-0.169h4.811c0.112 0 0.168-0.084 0.168-0.168v-2.266c0-0.084-0.047-0.168-0.164-0.168h-4.82c-0.094 0-0.173-0.08-0.173-0.164V2.452c0-1.324-0.487-2.167-1.311-2.447h-1.404a5.396 5.396 0 0 0-1.418 0.617l-28.923 17.855c-1.123 0.702-1.512 1.488-1.231 2.083 0.225 0.487 0.866 0.852 2.124 0.852z m4.188-2.981l22.419-13.858c0.14-0.112 0.421-0.084 0.421 0.224v13.858c0 0.084-0.075 0.168-0.159 0.169h-22.545c-0.187 0-0.281-0.056-0.304-0.113-0.028-0.112 0.023-0.197 0.168-0.28z"/></svg>