<svg fill="#003791" role="img" viewBox="0 0 113 24" xmlns="http://www.w3.org/2000/svg"><title>PlayStation 3</title><path d="M72.198 0.014h-14.699c-4.529 0-6.752 2.802-6.752 6.444v11.042c0 2.255-1.065 3.875-3.315 3.876H34.573a0.163 0.163 0 0 0-0.163 0.163v2.195c0 0.093 0.047 0.149 0.14 0.149h14.521c4.529 0 6.77-2.788 6.771-6.429v-11.034c0-2.26 1.046-3.885 3.315-3.885h12.985c0.093 0 0.187-0.065 0.187-0.154v-2.218c0-0.093-0.093-0.163-0.187-0.163z m-43.265 0H0.646c-0.103 0-0.177 0.079-0.177 0.163v2.228c0 0.093 0.075 0.168 0.177 0.168h26.587c2.241 0 3.315 1.62 3.315 3.875s-1.065 3.875-3.315 3.876H6.203c-3.268 0-5.729 2.736-5.729 6.373v7.065c0 0.093 0.093 0.173 0.186 0.173h4.81c0.093 0 0.187-0.075 0.186-0.173v-7.065c0-2.241 1.307-3.829 3.176-3.829H28.951c4.529 0 6.742-2.774 6.743-6.415 0-3.633-2.209-6.444-6.733-6.444z m81.492 11.664a0.187 0.187 0 0 1 0-0.262c1.401-1.167 2.101-2.928 2.101-4.958 0-3.633-2.213-6.444-6.751-6.444h-28.282c-0.093 0-0.168 0.084-0.168 0.177v2.218c0 0.093 0.093 0.187 0.187 0.187h26.614c2.241 0 3.339 1.634 3.339 3.876s-1.074 3.875-3.325 3.875h-26.614c-0.093 0-0.168 0.093-0.168 0.187v2.241c0 0.093 0.075 0.154 0.172 0.154h26.615c2.942 0.033 3.315 2.895 3.315 4.343v0.28c0 2.265-1.074 3.889-3.315 3.889h-26.615c-0.093 0-0.168 0.07-0.168 0.159v2.227c0 0.093 0.07 0.173 0.168 0.173h28.249c4.543 0 6.752-3.012 6.752-6.444v-0.266c0-2.195-0.7-4.277-2.101-5.556z"/></svg>