<svg fill="#52BBE6" role="img" viewBox="0 0 58 24" xmlns="http://www.w3.org/2000/svg"><title>Plesk</title><path d="M14.788 0.002v17.718h1.773V0z m32.904 0.025v17.693h1.771V0.029z m1.771 11.163l5.973 6.53h2.456l-6.203-6.58L57.916 5.065h-2.379z m-9.658-6.351c-1.292 0-2.342 0.301-3.157 0.91-0.812 0.607-1.217 1.467-1.217 2.579 0 0.627 0.118 1.142 0.357 1.547 0.241 0.405 0.545 0.737 0.916 1 0.371 0.26 0.79 0.477 1.257 0.643 0.467 0.169 0.94 0.323 1.422 0.458 0.422 0.118 0.824 0.241 1.205 0.366 0.381 0.125 0.716 0.282 1.007 0.468 0.289 0.186 0.52 0.41 0.689 0.67 0.169 0.263 0.251 0.588 0.251 0.975 0 0.506-0.229 0.935-0.689 1.29-0.458 0.354-1.166 0.533-2.121 0.532-1.467 0-2.66-0.59-3.578-1.771l-1.378 1.214c0.689 0.759 1.422 1.301 2.2 1.634 0.776 0.328 1.67 0.492 2.674 0.492 0.655 0 1.27-0.08 1.846-0.241a4.554 4.554 0 0 0 1.497-0.709c0.424-0.313 0.761-0.694 1.009-1.151 0.246-0.455 0.369-0.969 0.369-1.543 0-0.627-0.123-1.142-0.369-1.556a3.518 3.518 0 0 0-0.968-1.051 5.504 5.504 0 0 0-1.314-0.696 31.371 31.371 0 0 0-1.431-0.494c-0.388-0.118-0.764-0.241-1.125-0.366a4.851 4.851 0 0 1-0.957-0.444 2.224 2.224 0 0 1-0.663-0.607 1.441 1.441 0 0 1-0.25-0.86c0-0.489 0.181-0.894 0.542-1.215 0.361-0.32 0.995-0.482 1.896-0.482 0.706 0 1.316 0.133 1.829 0.393 0.513 0.263 0.988 0.67 1.432 1.229l0.026 0.024 1.301-1.19c-0.655-0.759-1.34-1.289-2.055-1.593a6.231 6.231 0 0 0-2.453-0.458z m-35.393 0.098c-1.417 0-2.86 0.229-4.328 0.685v18.376h1.747v-6.555c0.439 0.116 0.877 0.21 1.316 0.277a8.528 8.528 0 0 0 3.822-0.265c0.81-0.246 1.53-0.629 2.164-1.151 0.634-0.523 1.142-1.19 1.532-2 0.386-0.81 0.581-1.781 0.581-2.911 0-0.928-0.161-1.788-0.482-2.581a5.831 5.831 0 0 0-1.378-2.051 6.352 6.352 0 0 0-2.164-1.342c-0.843-0.32-1.781-0.482-2.81-0.482z m21.412 0c-0.776 0-1.511 0.133-2.202 0.393-0.692 0.265-1.301 0.663-1.822 1.205a5.761 5.761 0 0 0-1.241 2.036c-0.304 0.819-0.455 1.783-0.455 2.896 0 0.843 0.125 1.646 0.378 2.405 0.255 0.759 0.634 1.436 1.14 2.024 0.506 0.593 1.14 1.06 1.898 1.405 0.759 0.347 1.646 0.52 2.658 0.521 1.096 0 2.034-0.164 2.81-0.494 0.776-0.33 1.458-0.814 2.048-1.456l-1.06-1.113c-0.492 0.54-1.039 0.933-1.646 1.176a5.364 5.364 0 0 1-2.024 0.369c-1.335 0-2.39-0.422-3.166-1.268-0.776-0.843-1.188-1.981-1.239-3.414h9.492c0.031-2.178-0.424-3.836-1.369-4.974-0.945-1.14-2.345-1.711-4.2-1.711z m0.075 1.494c0.627 0 1.173 0.096 1.646 0.292 0.472 0.193 0.855 0.451 1.151 0.771 0.294 0.32 0.523 0.711 0.685 1.166 0.159 0.455 0.241 0.945 0.241 1.468H21.949a5.123 5.123 0 0 1 1.191-2.658c0.267-0.304 0.636-0.554 1.099-0.747 0.465-0.193 1.017-0.289 1.657-0.289zM4.566 6.458c1.484 0 2.636 0.453 3.456 1.356 0.819 0.901 1.229 2.087 1.229 3.555 0 1.588-0.446 2.807-1.331 3.658-0.887 0.853-2.08 1.277-3.58 1.277-0.405 0-0.824-0.043-1.253-0.138a11.653 11.653 0 0 1-1.253-0.342V6.863c0.439-0.152 0.884-0.258 1.342-0.318 0.455-0.058 0.916-0.087 1.39-0.087z m5.728 15.875v1.667H20.952v-1.667z"/></svg>