<svg fill="#FF574D" role="img" viewBox="0 0 29 24" xmlns="http://www.w3.org/2000/svg"><title>Plurk</title><path d="M15.572 0a11.965 11.965 0 0 0-9.368 4.407 12.102 12.102 0 0 0-0.336 0.424l0.005-0.003c0.276-0.233 0.562-0.41 0.852-0.529l0.069-0.027c0.355-0.133 0.716-0.175 1.07-0.105 1.712 0.344 2.603 3.102 1.991 6.161-0.612 3.06-2.496 5.263-4.208 4.921-1.201-0.24-1.995-1.67-2.154-3.557v-0.006 0.062c-0.004 0.157-0.004 0.316 0 0.475v0.087l0.002 0.07c0.006 0.177 0.015 0.352 0.029 0.527 0.006 0.08 0.014 0.159 0.022 0.238a11.926 11.926 0 0 0 1.143 4.093c0.071 0.15 0.036 0.328-0.093 0.431l-0.329 0.269a1.077 1.077 0 0 0-0.345 1.153c0 0.007 0.004 0.012 0.007 0.02a1.135 1.135 0 0 0 0.07 0.169l0.06-0.047 0.273-0.206a0.311 0.311 0 1 1 0.376 0.494l-0.292 0.221-0.044 0.033 1.4 1.722a1.082 1.082 0 0 0 1.515 0.156l0.307-0.25a0.354 0.354 0 0 1 0.445 0 11.947 11.947 0 0 0 7.759 2.593 11.938 11.938 0 0 0 6.624-2.205 0.354 0.354 0 0 1 0.451 0.029l0.194 0.186a1.081 1.081 0 0 0 1.402 0.07l-0.005-0.005-0.25-0.234a0.311 0.311 0 0 1 0.426-0.454l0.267 0.249 1.498-1.576a1.082 1.082 0 0 0-0.039-1.524l-0.313-0.297a0.353 0.353 0 0 1-0.064-0.428 11.959 11.959 0 0 0 1.311-7.93c0.358-0.33 1.014-0.98 1.271-1.536 0.275-0.597 0.345-1.213-0.384-0.942-0.566 0.21-1.001 0.346-1.529 0.226-1.684-4.271-5.762-7.362-10.521-7.608a11.543 11.543 0 0 0-0.563-0.017zM2.927 5.161a1.46 1.46 0 0 0-1.286 2.097 1.462 1.462 0 1 0 0.896 2.658c0.21-0.147 0.364-0.344 0.47-0.559 0.221 0.407 0.547 0.745 0.924 0.978a6.645 6.645 0 0 0 0.021 0.714c0.121 1.46 0.737 2.568 1.665 2.753 1.324 0.265 2.782-1.438 3.255-3.804 0.474-2.366-0.215-4.498-1.54-4.763-0.516-0.103-1.052 0.095-1.543 0.513-0.535 0.455-1.015 1.174-1.355 2.057-0.012-0.002-0.024-0.004-0.035-0.009-0.166-0.048-0.256-0.156-0.371-0.18a1.462 1.462 0 0 0-1.101-2.455z m3.402 1.479c0.064 0 0.127 0.005 0.19 0.017 0.863 0.17 1.312 1.56 1.004 3.101-0.308 1.543-1.258 2.651-2.12 2.478-0.586-0.116-0.98-0.796-1.076-1.703 0.215 0.083 0.44 0.134 0.666 0.145 0.626 0.029 1.035-0.183 1.355-0.61 0.411-0.553 0.1-2.084-0.444-2.282-0.423-0.155-0.674 0.032-1.051 0.059 0.19-0.354 0.417-0.647 0.662-0.856 0.26-0.22 0.539-0.347 0.815-0.35z"/></svg>