<svg fill="#4285F4" role="img" viewBox="0 0 25 24" xmlns="http://www.w3.org/2000/svg"><title>Plus Codes</title><path d="M12.5 0a2.4 2.4 0 0 0-2.4 2.4A2.4 2.4 0 0 0 12.5 4.8a2.4 2.4 0 0 0 2.4-2.4A2.4 2.4 0 0 0 12.5 0zM10.043 9.543v4.914h4.914V9.543zM2.9 9.6A2.4 2.4 0 0 0 0.5 12a2.4 2.4 0 0 0 2.4 2.4A2.4 2.4 0 0 0 5.3 12a2.4 2.4 0 0 0-2.4-2.4z m19.2 0a2.4 2.4 0 0 0-2.4 2.4 2.4 2.4 0 0 0 2.4 2.4A2.4 2.4 0 0 0 24.5 12a2.4 2.4 0 0 0-2.4-2.4zM12.5 19.2a2.4 2.4 0 0 0-2.4 2.4A2.4 2.4 0 0 0 12.5 24a2.4 2.4 0 0 0 2.4-2.4 2.4 2.4 0 0 0-2.4-2.4z"/></svg>