<svg fill="#2B037A" role="img" viewBox="0 0 30 24" xmlns="http://www.w3.org/2000/svg"><title>PM2</title><path d="M13.08 1.267c-1.015 1.695-1.108 1.833-1.479 2.213-0.774 0.8-1.733 1.227-2.954 1.314-0.229 0.016-1.547 0.04-3.304 0.061-0.78 0.01-0.917 0.013-0.936 0.034-0.012 0.013-0.226 0.335-0.477 0.717l-0.453 0.691 0.127 0.006c0.068 0.004 0.542-0.004 1.05-0.014a113.926 113.921 90 0 1 1.632-0.023c0.699 0 0.709 0 0.816 0.037 0.301 0.103 0.481 0.374 0.434 0.651a0.616 0.616 0 0 1-0.482 0.514c-0.127 0.033-0.459 0.042-3.45 0.092-0.521 0.009-0.954 0.018-0.958 0.024a37.297 37.297 0 0 0-0.914 1.4c0.005 0.005 0.495 0 1.092-0.008 3.828-0.062 7.146-0.113 8.071-0.122 0.889-0.01 1.217-0.024 1.455-0.066 0.66-0.113 1.167-0.363 1.602-0.795 0.309-0.308 0.581-0.699 1.042-1.504 0.153-0.265 0.32-0.55 0.376-0.636l0.168-0.273c0.04-0.066 0.086-0.135 0.101-0.153 0.04-0.046 0.122-0.179 0.171-0.281 0.042-0.086 0.653-1.108 0.917-1.537 0.183-0.296 0.284-0.382 0.514-0.434 0.318-0.073 0.709 0.125 0.798 0.406 0.073 0.23 0.04 0.373-0.166 0.721-1.48 2.489-2.018 3.38-2.308 3.819-0.822 1.245-2.059 1.913-3.657 1.973-0.128 0.004-0.945 0.018-1.818 0.031l-2.509 0.038-1.945 0.033a1426.592 1426.53 90 0 1-3.794 0.059c-0.614 0.006-0.931 0.016-0.954 0.027a0.884 0.884 0 0 0-0.146 0.227 3.51 3.51 0 0 0-0.349 0.97 0.522 0.522 0 0 1-0.048 0.161c-0.029 0.009-0.024 0.962 0.004 0.991a0.501 0.501 0 0 1 0.049 0.165c0.07 0.349 0.241 0.753 0.483 1.14l0.113 0.18 1.609 0.009c0.885 0.005 3.176 0.018 5.092 0.026 2.069 0.01 3.563 0.023 3.681 0.033 0.389 0.032 0.597 0.064 0.917 0.144a4.126 4.126 0 0 1 2.02 1.162c0.312 0.323 0.465 0.538 1.151 1.637 0.448 0.714 1.779 2.89 1.827 2.984 0.174 0.342 0.061 0.698-0.273 0.856a0.719 0.719 0 0 1-0.633 0.013c-0.177-0.088-0.186-0.098-1.101-1.578a104.457 104.457 0 0 0-0.626-1.005 31.906 31.905 90 0 1-0.421-0.691c-0.452-0.758-0.719-1.137-1.003-1.421a2.895 2.895 0 0 0-1.423-0.767c-0.35-0.078-0.413-0.081-2.847-0.094a722.457 722.425 90 0 0-3.931-0.017c-0.902 0-1.998-0.006-2.434-0.01-0.632-0.01-0.791-0.009-0.791 0.009 0 0.01 0.191 0.33 0.426 0.707l0.425 0.684 0.406 0.004c2.943 0.023 3.094 0.024 3.203 0.045 0.237 0.049 0.378 0.15 0.472 0.343a0.428 0.428 0 0 1 0.061 0.259 0.526 0.526 0 0 1-0.175 0.418 0.695 0.695 0 0 1-0.307 0.174c-0.092 0.027-0.174 0.029-1.484 0.024-1.125-0.004-1.387 0-1.377 0.016 0.049 0.088 0.85 1.376 0.86 1.388 0.01 0.009 0.724 0.02 1.845 0.026 1.504 0.01 1.867 0.016 2.045 0.036 1.351 0.159 2.375 0.737 3.147 1.782 0.143 0.193 0.303 0.448 1.115 1.761l0.57 0.922h0.873c0.479 0 0.873-0.004 0.873-0.008s-0.314-0.514-0.697-1.13a603.134 603.107 90 0 1-1.822-2.944 15.462 15.461 90 0 0-0.335-0.526 2.929 2.929 0 0 0-1.754-1.186c-0.308-0.075-0.523-0.094-1.068-0.101-0.545-0.007-0.638-0.02-0.79-0.098a0.675 0.675 0 0 1-0.283-0.278c-0.04-0.079-0.045-0.108-0.045-0.258 0-0.155 0.004-0.177 0.045-0.254a0.681 0.681 0 0 1 0.437-0.336c0.086-0.026 0.159-0.029 0.636-0.03 0.422 0 0.587 0.006 0.764 0.03 1.146 0.147 2.006 0.544 2.72 1.255 0.338 0.338 0.485 0.542 0.927 1.275 0.155 0.256 0.504 0.822 0.777 1.257l1.284 2.062 0.788 1.271h1.107c0.883 0 1.107-0.006 1.1-0.022a29.255 29.253 90 0 0-0.293-0.477c-0.563-0.901-0.603-0.973-0.628-1.153-0.033-0.252 0.144-0.512 0.422-0.611a0.67 0.67 0 0 1 0.734 0.164c0.078 0.077 0.506 0.746 1.145 1.791l0.19 0.312 0.218-0.011a4.06 4.06 0 0 0 1.602-0.397c0.079-0.037 0.153-0.068 0.164-0.073a3.851 3.851 0 0 0 1.318-1.083 661.999 661.97 90 0 0 2.926-4.464c3.038-4.654 2.975-4.554 3.124-4.996a3.28 3.28 0 0 0-0.141-2.465c-0.059-0.126-1.025-1.696-2.767-4.504a656.516 656.487 90 0 0-2.756-4.423 3.59 3.59 0 0 0-1.345-1.119 3.902 3.901 90 0 0-1.103-0.387c-0.22-0.04-0.236-0.044-0.224-0.063 0.005-0.01-0.13-0.012-0.357-0.013l-0.364 0.007-0.324 0.538c-0.719 1.198-0.786 1.306-0.888 1.407a0.695 0.695 0 0 1-0.378 0.207c-0.271 0.049-0.607-0.114-0.721-0.351-0.037-0.07-0.04-0.103-0.041-0.25 0-0.229-0.011-0.204 0.617-1.235a4.17 4.17 0 0 0 0.18-0.31c0-0.009-0.355-0.015-0.869-0.015h-0.868l-0.023 0.037a540.062 540.062 0 0 1-2.237 3.703c-0.257 0.424-0.572 0.949-0.697 1.165-0.282 0.484-0.399 0.66-0.599 0.91a5.042 5.042 0 0 1-0.689 0.685c-0.648 0.503-1.431 0.807-2.347 0.913-0.441 0.051-1.081 0.059-1.311 0.016a0.704 0.704 0 0 1-0.47-0.338c-0.04-0.079-0.045-0.101-0.045-0.256 0-0.147 0.005-0.18 0.041-0.257a0.663 0.663 0 0 1 0.431-0.341c0.089-0.024 0.196-0.033 0.63-0.046 0.323-0.009 0.593-0.024 0.706-0.04a3.852 3.852 0 0 0 0.733-0.183c0.201-0.079 0.484-0.232 0.651-0.353a3.51 3.51 0 0 0 0.648-0.643c0.068-0.09 0.397-0.622 0.732-1.181 0.334-0.56 0.978-1.631 1.432-2.381 0.452-0.751 0.828-1.375 0.832-1.388 0.007-0.02-0.12-0.022-0.86-0.022h-0.866l-0.76 1.266z m8.604 0.655c0 0.012 0.006 0.024 0.015 0.027 0.006 0.001 0.124 0.182 0.259 0.4 0.619 0.991 0.846 1.366 0.881 1.46 0.044 0.122 0.049 0.282 0.01 0.395a0.79 0.79 0 0 1-0.294 0.321 0.664 0.664 0 0 1-0.803-0.108c-0.098-0.092-0.202-0.246-0.563-0.838-0.135-0.223-0.262-0.423-0.28-0.447-0.02-0.029-0.027-0.056-0.019-0.081 0.012-0.038 0.685-1.076 0.735-1.131 0.033-0.037 0.061-0.037 0.061 0.004zM19.99 4.536c-0.005 0.009 0 0.016 0.006 0.019 0.015 0.005 1.227 1.948 1.924 3.085 0.587 0.951 0.851 1.378 1.077 1.728 0.368 0.574 0.505 0.84 0.643 1.255 0.141 0.418 0.196 0.799 0.18 1.229-0.009 0.293-0.037 0.477-0.108 0.763-0.125 0.489-0.397 1.059-0.746 1.563-0.11 0.157-0.334 0.394-0.372 0.394-0.012 0-0.024 0.006-0.024 0.014 0 0.007-0.048 0.031-0.105 0.049a0.774 0.774 0 0 1-0.477-0.014 0.808 0.808 0 0 1-0.36-0.346c-0.039-0.082-0.042-0.106-0.035-0.233 0.009-0.171 0.044-0.247 0.282-0.615 0.306-0.471 0.43-0.729 0.519-1.082 0.152-0.599 0.077-1.194-0.225-1.786-0.06-0.116-0.44-0.741-0.847-1.391a419.065 419.046 90 0 1-1.418-2.283c-0.377-0.607-0.696-1.123-0.714-1.147-0.017-0.026-0.029-0.055-0.025-0.066 0.012-0.033 0.721-1.109 0.759-1.147 0.024-0.027 0.037-0.032 0.052-0.02 0.012 0.01 0.018 0.024 0.012 0.032z m3.842 1.111a0.721 0.721 0 0 1 0.318 0.23c0.116 0.143 1.743 2.727 2.337 3.718 0.342 0.565 0.501 0.917 0.611 1.348 0.076 0.297 0.105 0.527 0.105 0.843 0 0.419-0.045 0.697-0.177 1.097-0.154 0.467-0.265 0.676-0.805 1.511-0.196 0.306-1.22 1.893-2.272 3.531l-2.277 3.534c-0.199 0.309-0.371 0.575-0.379 0.593-0.01 0.016-0.023 0.028-0.033 0.024a25.235 25.234 90 0 1-0.764-1.23c0-0.011 0.015-0.04 0.03-0.063a10195.637 10195.19 90 0 1 4.704-7.297c0.251-0.389 0.325-0.525 0.419-0.758a2.385 2.385 0 0 0 0.183-1.028c-0.017-0.386-0.094-0.66-0.31-1.093-0.159-0.325-0.312-0.582-0.687-1.162-0.153-0.236-0.329-0.514-0.391-0.616a93.631 93.628 90 0 0-0.594-0.965c-0.934-1.499-0.923-1.48-0.926-1.651 0-0.144 0.049-0.259 0.157-0.375a0.819 0.819 0 0 1 0.391-0.225 0.774 0.774 0 0 1 0.36 0.033z m-5.552 1.486l0.245 0.397c1.334 2.136 1.39 2.231 1.524 2.499 0.564 1.124 0.569 2.24 0.018 3.344-0.117 0.232-0.165 0.312-0.938 1.512-1.037 1.614-1.158 1.798-1.191 1.834-0.027 0.027-0.031 0.029-0.031 0.004 0-0.015-0.652-1.077-1.448-2.36a236.291 236.281 90 0 1-1.448-2.346c0-0.009 0.677-1.049 1.508-2.314a749.349 749.316 90 0 0 1.607-2.454 0.863 0.863 0 0 1 0.117-0.155c0.009 0 0.024 0.017 0.037 0.04z m2.98 8.368a0.825 0.825 0 0 1 0.339 0.318 0.574 0.574 0 0 1 0.05 0.187c0.012 0.163-0.029 0.257-0.323 0.719a1003.118 1003.074 90 0 1-1.528 2.39l-0.153 0.237c-0.027 0.049-0.032 0.051-0.059 0.032a36.377 36.375 90 0 1-0.74-1.187c-0.015-0.037 1.513-2.415 1.623-2.528a0.673 0.673 0 0 1 0.545-0.223 0.533 0.533 0 0 1 0.246 0.055z"/></svg>