<svg fill="#EF3F56" role="img" viewBox="0 0 27 24" xmlns="http://www.w3.org/2000/svg"><title>Pocket</title><path d="M21.125 10.053l-6.319 6.065c-0.358 0.341-0.817 0.513-1.277 0.512-0.459 0-0.919-0.171-1.277-0.512l-6.319-6.065c-0.735-0.703-0.758-1.87-0.055-2.604 0.705-0.735 1.87-0.76 2.602-0.056l5.049 4.838 5.055-4.838c0.739-0.706 1.899-0.679 2.604 0.055 0.706 0.722 0.688 1.897-0.051 2.603l-0.012 0.002z m5.689-8.446c-0.335-0.96-1.259-1.607-2.284-1.607H2.508c-1.007 0-1.922 0.631-2.279 1.572-0.105 0.28-0.159 0.572-0.159 0.867v8.108l0.094 1.613c0.389 3.668 2.291 6.874 5.24 9.109 0.05 0.04 0.105 0.078 0.16 0.118l0.033 0.025c1.579 1.153 3.345 1.934 5.254 2.319 0.88 0.177 1.781 0.269 2.674 0.269 0.827 0 1.658-0.075 2.472-0.228 0.098-0.032 0.197-0.05 0.295-0.067 0.026 0 0.055-0.017 0.083-0.033 1.828-0.403 3.523-1.159 5.046-2.266l0.032-0.035 0.151-0.118c2.94-2.233 4.839-5.442 5.245-9.119L26.93 10.522V2.426c0-0.281-0.035-0.56-0.135-0.83l0.019 0.011z"/></svg>