<svg fill="#F90000" role="img" viewBox="0 0 24 24" xmlns="http://www.w3.org/2000/svg"><title>Podcast Index</title><path d="M5.006 0.006c-0.236 0.021-0.467 0.103-0.647 0.236C1.727 2.254 0.173 4.976 0.292 8.289c0.12 3.195 1.674 6.271 4.067 8.046 0.239 0.118 0.479 0.237 0.719 0.236 0.359 0 0.717-0.118 0.957-0.473 0.479-0.592 0.359-1.301-0.239-1.656-1.914-1.302-3.111-3.786-3.111-6.153 0-2.485 1.077-4.616 3.111-6.154 0.598-0.355 0.598-1.183 0.239-1.656-0.224-0.37-0.635-0.508-1.029-0.473Zm13.753 0c-0.314 0.029-0.613 0.177-0.792 0.473-0.359 0.473-0.359 1.301 0.238 1.656 2.034 1.538 3.111 3.669 3.111 6.154 0 2.367-1.196 4.851-3.111 6.153-0.598 0.355-0.717 1.065-0.238 1.656 0.239 0.355 0.599 0.473 0.957 0.473 0.239 0 0.478-0.118 0.718-0.236 2.512-1.775 4.067-4.851 4.067-8.046 0.108-3.313-1.435-6.035-4.067-8.047-0.239-0.177-0.569-0.266-0.883-0.236ZM16.494 3.558c-0.306 0.012-0.609 0.14-0.83 0.376-0.455 0.473-0.418 1.231 0.06 1.669 1.531 1.408 1.663 3.798-0.012 5.371-0.467 0.462-0.49 1.208-0.036 1.681 0.455 0.473 1.208 0.496 1.687 0.047 2.716-2.556 2.488-6.52-0.012-8.827-0.239-0.225-0.549-0.329-0.856-0.317z m-8.993 0.007c-0.305-0.012-0.617 0.091-0.856 0.31-2.5 2.307-2.727 6.271-0.011 8.827 0.478 0.45 1.232 0.426 1.686-0.047 0.455-0.473 0.431-1.219-0.048-1.668-1.675-1.574-1.532-3.965-0.012-5.373 0.478-0.45 0.515-1.194 0.06-1.668-0.215-0.243-0.514-0.37-0.819-0.381Zm4.499 2.149a2.571 2.571 0 0 0-2.571 2.572 2.571 2.571 0 0 0 1.193 2.169L7.714 24h2.525l2.877-13.402a2.571 2.571 0 0 0 1.456-2.312A2.571 2.571 0 0 0 12 5.714Z"/></svg>