<svg fill="#F4842D" role="img" viewBox="0 0 25 24" xmlns="http://www.w3.org/2000/svg"><title>Podcast Addict</title><path d="M5.84 0.001C2.881 0.001 0.464 2.418 0.464 5.377v13.247c0 2.959 2.417 5.376 5.376 5.376h13.32c2.954 0 5.376-2.417 5.376-5.376V5.376c0-2.959-2.422-5.376-5.376-5.376z m6.605 4.298a7.743 7.743 0 0 1 7.74 7.567l0.005 7.919h-3.4v-1.33a7.703 7.703 0 0 1-4.34 1.33 7.8 7.8 0 0 1-2.391-0.379v-4.644a3.658 3.658 0 0 0 2.423 0.913 3.677 3.677 0 0 0 3.61-2.979h-1.288a2.423 2.423 0 0 1-4.744-0.662v-0.031c0-1.098 0.73-2.029 1.733-2.323V8.392a3.681 3.681 0 0 0-2.984 3.611v6.873a7.743 7.743 0 0 1 3.636-14.577z m0.031 1.876V7.416h0.006a4.589 4.589 0 0 1 4.587 4.588v0.01h1.24v-0.01a5.827 5.827 0 0 0-5.827-5.827z m0 2.155v1.25h0.006a2.42 2.42 0 0 1 2.422 2.423v0.01h1.251v-0.01a3.673 3.673 0 0 0-3.673-3.673z m0 2.259c-0.782 0-1.413 0.631-1.413 1.414 0 0.782 0.631 1.413 1.414 1.413 0.782 0 1.413-0.631 1.413-1.414 0-0.782-0.631-1.413-1.414-1.413z"/></svg>