<svg fill="#892CA0" role="img" viewBox="0 0 25 24" xmlns="http://www.w3.org/2000/svg"><title>Podman</title><path d="M17.823 0L7.127 0.034a0.265 0.265 0 0 0-0.208 0.1L0.276 8.522a0.265 0.265 0 0 0-0.051 0.225l2.411 10.433a0.266 0.266 0 0 0 0.144 0.178l9.651 4.617a0.264 0.264 0 0 0 0.229-0.002l9.622-4.673a0.265 0.265 0 0 0 0.144-0.179L24.775 8.674a0.264 0.264 0 0 0-0.052-0.225L18.03 0.101A0.265 0.265 0 0 0 17.823 0z m-0.126 0.529l6.535 8.153-2.295 10.198-9.392 4.562-9.422-4.506L0.772 8.753 7.255 0.562zM11.948 2.643c-0.955 0-1.883 0.102-2.483 0.339h-0.002c-1.59 0.582-2.789 2.154-3.146 4.045v0.004c-0.316 1.497-0.401 2.766-0.569 3.914-0.072 0.492-0.163 0.962-0.29 1.42-0.643 0.509-1.104 1.293-1.273 2.188v0.004c-0.119 0.56-0.185 1.064-0.243 1.535h-0.659v0.53h9.1c-0.062 0.475-0.125 1.019-0.185 1.454H7.993v0.529h8.125c-0.248-0.08-0.497-0.223-0.773-0.514h-0.714l-0.87 0.499-0.237-0.405 0.166-0.094h-1.094c0.116-0.794 0.174-1.639 0.381-2.624v-0.004c0.225-1.191 0.983-2.162 1.94-2.511l0.004-0.002h0.002c0.325-0.13 0.95-0.21 1.579-0.21 0.627 0 1.273 0.077 1.66 0.212 0.957 0.349 1.715 1.32 1.94 2.511v0.004c0.209 0.986 0.266 1.83 0.382 2.624h-0.76l0.166 0.094-0.239 0.405-0.869-0.499h-0.768c-0.224 0.256-0.485 0.422-0.765 0.514h4.495v-0.53h-0.861c-0.105-0.76-0.185-1.709-0.391-2.685v-0.002a4.237 4.237 0 0 0-0.27-0.883h1.906v-0.529h-2.18a3.57 3.57 0 0 0-0.818-0.928h1.842v-0.53H18.59a9.07 9.07 0 0 1-0.197-0.793h1.518v-0.53h-1.613c-0.013-0.083-0.028-0.165-0.039-0.25-0.168-1.146-0.252-2.415-0.568-3.914v-0.004c-0.356-1.891-1.556-3.462-3.148-4.045l-0.002-0.002h-0.002c-0.665-0.232-1.633-0.338-2.59-0.337z m0 0.395c0.925 0 1.876 0.113 2.46 0.316h0.002c1.433 0.526 2.559 1.979 2.893 3.752v0.003c0.31 1.47 0.394 2.722 0.565 3.894 0.078 0.527 0.177 1.037 0.322 1.541-0.46-0.138-1.075-0.202-1.687-0.202-0.123 0-0.242 0.003-0.36 0.008l-1.907-1.909a2.221 2.221 0 0 0 0.113-0.251l2.18 1.259 0.133-0.23-2.236-1.291c0.016-0.071 0.028-0.143 0.036-0.215l2.357 0.63 0.069-0.254-2.409-0.644c-0.02-1.18-1.032-2.127-2.26-2.127-1.233 0-2.248 0.953-2.258 2.14l-2.357 0.631 0.068 0.256 2.305-0.619c0.01 0.078 0.025 0.155 0.042 0.229L7.829 11.222l0.132 0.228 2.136-1.236c0.035 0.091 0.076 0.18 0.123 0.264l-1.296 1.296a7.122 7.122 0 0 0-1.069-0.077c-0.617 0-1.214 0.066-1.615 0.225a2.731 2.731 0 0 0-0.292 0.127c0.078-0.343 0.14-0.691 0.192-1.045 0.172-1.171 0.254-2.426 0.564-3.894l0.002-0.001v-0.002c0.334-1.774 1.459-3.227 2.894-3.752h0.002l0.004-0.002c0.499-0.199 1.413-0.314 2.341-0.314zM8.891 5.034a1.325 1.325 0 0 0-0.988 0.514l-0.12 0.157 0.313 0.241 0.123-0.155a0.945 0.945 0 0 1 0.689-0.36 0.942 0.942 0 0 1 0.686 0.268l0.142 0.137 0.277-0.282-0.139-0.14a1.323 1.323 0 0 0-0.983-0.379z m6.54 0a1.319 1.319 0 0 0-0.983 0.38l-0.141 0.14 0.28 0.282 0.14-0.137a0.945 0.945 0 0 1 0.687-0.268 0.945 0.945 0 0 1 0.69 0.36l0.122 0.155 0.314-0.241-0.123-0.157c-0.235-0.307-0.601-0.497-0.986-0.514zM8.949 6.584c-0.657 0-1.191 0.551-1.191 1.218 0 0.665 0.534 1.215 1.191 1.215 0.658 0 1.191-0.549 1.191-1.216 0-0.666-0.533-1.218-1.191-1.218z m6.42 0c-0.658 0-1.189 0.551-1.189 1.218 0 0.665 0.532 1.215 1.189 1.215 0.658 0 1.191-0.549 1.192-1.216 0-0.666-0.533-1.218-1.192-1.218z m-6.42 0.396c0.438 0 0.794 0.363 0.794 0.821 0 0.457-0.356 0.819-0.794 0.819a0.803 0.803 0 0 1-0.793-0.819c0-0.036 0.002-0.072 0.006-0.106 0.072 0.195 0.254 0.325 0.455 0.326a0.498 0.498 0 0 0 0.489-0.508 0.502 0.502 0 0 0-0.392-0.497 0.777 0.777 0 0 1 0.235-0.036z m6.42 0c0.438 0 0.795 0.363 0.796 0.821 0 0.457-0.357 0.819-0.796 0.819a0.803 0.803 0 0 1-0.788-0.921c0.074 0.194 0.254 0.322 0.455 0.322a0.497 0.497 0 0 0 0.49-0.508 0.503 0.503 0 0 0-0.392-0.495 0.773 0.773 0 0 1 0.235-0.038z m-3.152 0.733c1.036 0 1.862 0.793 1.862 1.763 0 0.969-0.826 1.762-1.862 1.763s-1.863-0.793-1.863-1.763c0-0.97 0.827-1.763 1.863-1.763z m-0.002 0.54c-0.145 0-0.264 0.044-0.363 0.078a0.823 0.823 0 0 1-0.238 0.055c-0.11 0-0.205 0.048-0.274 0.13a0.581 0.581 0 0 0-0.107 0.212c-0.041 0.137-0.063 0.274-0.081 0.323a0.282 0.282 0 0 0 0.032 0.255c0.034 0.057 0.073 0.102 0.12 0.15 0.092 0.094 0.211 0.187 0.33 0.274 0.123 0.09 0.243 0.17 0.333 0.229l-0.008 0.093c-0.044 0.037-0.143 0.104-0.332 0.182a0.546 0.546 0 0 1-0.306 0.025 0.44 0.44 0 0 1-0.241-0.176c0.015-0.141 0.045-0.3 0.07-0.459l-0.385-0.098c-0.051 0.244-0.069 0.44-0.097 0.656l0.038 0.06c0.146 0.229 0.325 0.352 0.518 0.401a0.929 0.929 0 0 0 0.532-0.034 1.607 1.607 0 0 0 0.455-0.247c0.09 0.069 0.25 0.178 0.456 0.247a0.929 0.929 0 0 0 0.533 0.034 0.888 0.888 0 0 0 0.518-0.401l0.038-0.06a6.44 6.44 0 0 0-0.098-0.652l-0.386 0.094c0.033 0.151 0.052 0.328 0.072 0.461a0.444 0.444 0 0 1-0.243 0.174 0.546 0.546 0 0 1-0.307-0.025c-0.182-0.07-0.278-0.143-0.332-0.182l-0.007-0.086c0.092-0.059 0.214-0.14 0.344-0.236 0.118-0.087 0.236-0.18 0.33-0.274a0.737 0.737 0 0 0 0.12-0.15 0.279 0.279 0 0 0 0.031-0.255c-0.018-0.048-0.04-0.185-0.082-0.323a0.577 0.577 0 0 0-0.105-0.212 0.351 0.351 0 0 0-0.274-0.13 0.834 0.834 0 0 1-0.24-0.055c-0.099-0.034-0.217-0.078-0.362-0.078z m0.002 0.395c0.058 0 0.137 0.025 0.235 0.059 0.092 0.031 0.213 0.072 0.345 0.077 0.041 0.104 0.061 0.243 0.092 0.346a0.369 0.369 0 0 1-0.042 0.046 2.722 2.722 0 0 1-0.282 0.234c-0.169 0.125-0.277 0.192-0.35 0.238a5.411 5.411 0 0 1-0.348-0.238 2.617 2.617 0 0 1-0.281-0.234 0.348 0.348 0 0 1-0.041-0.048c0.036-0.122 0.047-0.239 0.091-0.348 0.082 0.012 0.252-0.043 0.344-0.073a0.857 0.857 0 0 1 0.237-0.059z m-3.31 0.625a0.65 0.65 0 0 0-0.625 0.529l1.109-0.296a0.628 0.628 0 0 0-0.484-0.233z m6.485 0a0.624 0.624 0 0 0-0.446 0.191c0.36 0.098 0.706 0.188 1.057 0.282a0.647 0.647 0 0 0-0.611-0.473z m-0.638 0.621c-0.007 0.036-0.002 0.072-0.002 0.105l0.943 0.545a0.663 0.663 0 0 0 0.282-0.321l-1.223-0.329z m-5.205 0.051l-1.208 0.322c0.08 0.154 0.212 0.27 0.371 0.324l0.815-0.471c0.018-0.06 0.015-0.123 0.022-0.174z m4.545 0.731l1.695 1.697a4.288 4.288 0 0 0-0.845 0.149l-0.973-1.685a2.569 2.569 0 0 0 0.123-0.161z m-3.732 0.031c0.041 0.056 0.085 0.121 0.132 0.173l-0.673 1.16a2.718 2.718 0 0 0-0.282-0.122l-0.002-0.002a3.377 3.377 0 0 0-0.299-0.084z m3.417 0.324l0.913 1.583c-0.638 0.257-1.176 0.742-1.559 1.362h-1.691c-0.268-0.768-0.758-1.412-1.39-1.806l0.638-1.107c0.403 0.355 0.941 0.572 1.527 0.572a2.303 2.303 0 0 0 1.562-0.604zM7.854 12.092c0.587 0 1.194 0.075 1.554 0.2 0.887 0.326 1.591 1.231 1.801 2.339l0.001 0.002v0.002c0.112 0.525 0.177 1.003 0.232 1.457H10.31a0.395 0.395 0 0 0-0.505 0H9.543a1.383 1.383 0 0 0-0.08-0.428 0.818 0.818 0 0 0 0.582 0.244c0.461 0 0.833-0.384 0.833-0.848a0.843 0.843 0 0 0-0.833-0.847 0.841 0.841 0 0 0-0.809 1.04 1.53 1.53 0 0 0-1.208-0.572c-0.817 0-1.494 0.625-1.515 1.412h-0.35a0.395 0.395 0 0 0-0.505 0H4.341c0.055-0.455 0.119-0.933 0.23-1.458l0.002-0.002v-0.002c0.21-1.109 0.915-2.016 1.805-2.341h0.002l0.004-0.002c0.302-0.12 0.883-0.195 1.471-0.195z m-1.955 1.131a0.919 0.919 0 0 0-0.686 0.356l-0.121 0.158 0.314 0.243 0.122-0.159a0.537 0.537 0 0 1 0.387-0.202 0.532 0.532 0 0 1 0.386 0.151l0.142 0.139 0.278-0.281-0.14-0.141a0.916 0.916 0 0 0-0.682-0.264z m4.19 0a0.921 0.921 0 0 0-0.683 0.264l-0.141 0.141 0.28 0.281 0.14-0.139a0.534 0.534 0 0 1 0.386-0.151 0.537 0.537 0 0 1 0.388 0.202l0.121 0.159 0.315-0.243-0.123-0.158a0.915 0.915 0 0 0-0.683-0.356z m4.321 0.753a0.969 0.969 0 0 0-0.723 0.373l-0.12 0.158 0.313 0.242 0.123-0.158a0.581 0.581 0 0 1 0.423-0.218 0.584 0.584 0 0 1 0.423 0.162l0.144 0.14 0.276-0.282-0.141-0.14a0.964 0.964 0 0 0-0.718-0.277z m4.477 0a0.964 0.964 0 0 0-0.716 0.277l-0.144 0.14 0.279 0.282 0.142-0.14a0.584 0.584 0 0 1 0.424-0.162 0.581 0.581 0 0 1 0.423 0.218l0.122 0.158 0.313-0.242-0.119-0.158a0.969 0.969 0 0 0-0.724-0.373z m-12.947 0.237a0.843 0.843 0 0 0-0.834 0.847c0 0.464 0.374 0.847 0.833 0.848 0.461 0 0.834-0.384 0.834-0.848a0.843 0.843 0 0 0-0.834-0.847z m5.648 0.292h1.271a4.234 4.234 0 0 0-0.269 0.884v0.002c-0.051 0.243-0.094 0.475-0.13 0.701h-0.617a17.164 17.164 0 0 0-0.241-1.535l-0.002-0.002c-0.003-0.016-0.009-0.033-0.012-0.05z m-5.649 0.104a0.44 0.44 0 0 1 0.436 0.451 0.44 0.44 0 0 1-0.436 0.453c-0.225 0-0.409-0.175-0.432-0.407a0.305 0.305 0 0 0 0.22 0.095 0.317 0.317 0 0 0 0.312-0.324 0.324 0.324 0 0 0-0.132-0.264c0.01-0.001 0.02-0.004 0.032-0.004z m4.108 0c0.241 0 0.437 0.198 0.437 0.451a0.443 0.443 0 0 1-0.437 0.453 0.437 0.437 0 0 1-0.432-0.415 0.307 0.307 0 0 0 0.262 0.149 0.317 0.317 0 0 0 0.311-0.325 0.321 0.321 0 0 0-0.211-0.305c0.024-0.004 0.046-0.008 0.07-0.008z m4.405 0.424a0.885 0.885 0 0 0-0.876 0.89c0 0.489 0.391 0.895 0.876 0.895a0.888 0.888 0 0 0 0.877-0.894 0.887 0.887 0 0 0-0.877-0.891z m4.393 0a0.887 0.887 0 0 0-0.833 1.167 1.634 1.634 0 0 0-1.326-0.668c-0.866 0-1.582 0.665-1.604 1.498l-1.561 0.417 0.067 0.254 1.512-0.403c0.004 0.029 0.009 0.061 0.015 0.089l-1.451 0.836 0.134 0.227 1.399-0.807c0.241 0.565 0.82 0.962 1.489 0.962 0.675 0 1.262-0.406 1.498-0.98l1.431 0.825 0.133-0.227-1.484-0.856c0.005-0.026 0.008-0.054 0.012-0.08l1.546 0.414 0.069-0.254-1.6-0.428a1.472 1.472 0 0 0-0.109-0.511c0.161 0.19 0.399 0.31 0.663 0.31a0.887 0.887 0 0 0 0.876-0.894 0.885 0.885 0 0 0-0.876-0.891z m-10.815 0.044c0.612 0 1.096 0.454 1.118 1.015h-0.42c0.007-0.01 0.016-0.02 0.024-0.034a0.246 0.246 0 0 0 0.025-0.225c-0.005-0.016-0.021-0.104-0.051-0.2a0.426 0.426 0 0 0-0.08-0.16 0.289 0.289 0 0 0-0.23-0.111 0.511 0.511 0 0 1-0.132-0.031c-0.063-0.021-0.145-0.051-0.254-0.052-0.108 0-0.192 0.03-0.256 0.052a0.502 0.502 0 0 1-0.13 0.031 0.297 0.297 0 0 0-0.23 0.111 0.434 0.434 0 0 0-0.082 0.16c-0.03 0.096-0.044 0.184-0.049 0.199a0.248 0.248 0 0 0 0.023 0.225c0.008 0.014 0.017 0.024 0.026 0.035h-0.42c0.02-0.561 0.506-1.015 1.118-1.015z m6.422 0.352c0.265 0 0.481 0.216 0.481 0.495a0.488 0.488 0 0 1-0.481 0.498 0.483 0.483 0 0 1-0.478-0.464 0.33 0.33 0 0 0 0.252 0.118c0.184 0 0.334-0.154 0.334-0.346a0.348 0.348 0 0 0-0.16-0.296c0.017-0.002 0.034-0.005 0.051-0.005z m4.393 0c0.266 0 0.48 0.216 0.48 0.495 0 0.278-0.215 0.497-0.48 0.498a0.488 0.488 0 0 1-0.481-0.498c0-0.016 0.002-0.032 0.004-0.048a0.338 0.338 0 0 0 0.319 0.246c0.184 0 0.334-0.154 0.334-0.346a0.346 0.346 0 0 0-0.262-0.34 0.486 0.486 0 0 1 0.086-0.007z m-10.815 0.245c0.021 0 0.064 0.01 0.128 0.032 0.088 0.031 0.12 0.04 0.19 0.05 0.012 0.042 0.023 0.09 0.034 0.132a1.51 1.51 0 0 1-0.172 0.142c-0.039 0.029-0.066 0.046-0.09 0.062h-0.18c-0.025-0.016-0.053-0.034-0.092-0.061a1.64 1.64 0 0 1-0.172-0.144l0.035-0.131c0.11-0.014 0.149-0.041 0.189-0.05a0.516 0.516 0 0 1 0.13-0.032z m8.656 0.256c0.677 0 1.212 0.514 1.212 1.139 0 0.16-0.036 0.311-0.098 0.451l-0.002-0.025-0.023-0.159a2.5 2.5 0 0 0-0.04-0.246l-0.386 0.095 0.045 0.281a0.246 0.246 0 0 1-0.118 0.075 0.306 0.306 0 0 1-0.172-0.014c-0.089-0.031-0.135-0.064-0.184-0.096 0.058-0.038 0.133-0.086 0.202-0.137 0.082-0.061 0.164-0.126 0.232-0.195a0.555 0.555 0 0 0 0.094-0.113 0.251 0.251 0 0 0 0.027-0.231c-0.008-0.019-0.023-0.115-0.055-0.215a0.454 0.454 0 0 0-0.086-0.166 0.293 0.293 0 0 0-0.235-0.11 0.579 0.579 0 0 1-0.143-0.038c-0.067-0.023-0.156-0.056-0.27-0.056-0.113 0-0.2 0.033-0.268 0.056a0.588 0.588 0 0 1-0.143 0.038 0.301 0.301 0 0 0-0.235 0.11 0.446 0.446 0 0 0-0.085 0.165c-0.031 0.102-0.046 0.197-0.054 0.216a0.252 0.252 0 0 0 0.026 0.231 0.547 0.547 0 0 0 0.092 0.113c0.068 0.069 0.149 0.133 0.231 0.195 0.07 0.051 0.141 0.097 0.199 0.135a0.583 0.583 0 0 1-0.184 0.098 0.312 0.312 0 0 1-0.174 0.014 0.243 0.243 0 0 1-0.114-0.077c0.008-0.092 0.027-0.181 0.041-0.279l-0.385-0.096c-0.033 0.149-0.046 0.293-0.064 0.419a1.077 1.077 0 0 1-0.092-0.439c0-0.625 0.533-1.139 1.209-1.139z m0 0.638c0.027 0 0.076 0.01 0.144 0.034 0.068 0.026 0.173 0.053 0.211 0.056l0.035 0.16c-0.041 0.041-0.115 0.102-0.188 0.155-0.097 0.072-0.143 0.097-0.202 0.134-0.057-0.037-0.102-0.062-0.199-0.133a1.265 1.265 0 0 1-0.188-0.16l0.035-0.156a1.064 1.064 0 0 0 0.211-0.056 0.535 0.535 0 0 1 0.141-0.034z m-2.272 0.361a0.44 0.44 0 0 0-0.394 0.279l0.672-0.18a0.426 0.426 0 0 0-0.278-0.099z m4.435 0a0.424 0.424 0 0 0-0.225 0.072l0.617 0.164a0.436 0.436 0 0 0-0.392-0.236z m-4.149 0.581l-0.621 0.165a0.446 0.446 0 0 0 0.128 0.116z m4.017 0.002l0.417 0.239a0.453 0.453 0 0 0 0.089-0.104z m-2.033 0.239c0.069 0.048 0.169 0.111 0.292 0.152a0.696 0.696 0 0 0 0.398 0.024 0.583 0.583 0 0 0 0.238-0.124 1.229 1.229 0 0 1-0.926 0.404c-0.364 0-0.686-0.148-0.905-0.384a0.594 0.594 0 0 0 0.212 0.104c0.147 0.037 0.287 0.014 0.4-0.024 0.123-0.041 0.223-0.102 0.291-0.152z m-9.747 1.648v0.529h6.36v-0.53z m3.704 1.322v0.529H15.878v-0.529z"/></svg>