<svg fill="#009DE0" role="img" viewBox="0 0 21 24" xmlns="http://www.w3.org/2000/svg"><title>Pointy</title><path d="M6.576 0.025S3.02 0.234 1.333 2.751c-1.58 2.351-1.465 5.145-1.1 8.121C0.596 13.831 1.087 24 1.087 24c0.002 0.003 11.235-11.526 11.23-11.506 1.75-1.805 2.408-4.468 2.395-5.961-0.037-4.274-3.461-6.815-8.136-6.508z m0.777 10.774c-1.991 0-3.604-1.632-3.604-3.645 0-2.015 1.614-3.649 3.604-3.649s3.642 1.512 3.642 3.527c0 2.011-1.652 3.767-3.642 3.767z m2.765-3.741a1.58 1.58 0 1 1-3.162 0 1.58 1.58 0 0 1 3.162 0z m10.879 1.431s-2.325 0.158-3.644 0.57c-1.317 0.413-2.502 1.076-2.502 1.076s0.495-0.852 0.705-2.361c0.207-1.511-0.14-2.652-0.14-2.652l5.581 3.367Z"/></svg>