<svg fill="#FFCB05" role="img" viewBox="0 0 67 24" xmlns="http://www.w3.org/2000/svg"><title>Pok&#233;mon</title><path d="M12.583 11.142c-0.225-1.21-1.807-1.876-3.377-1.021l0.405 1.382 0.638 2.046 0.289 0.929c1.174-0.755 2.359-1.662 2.045-3.338z m-1.559 1.86a157.687 157.687 0 0 0-0.547-1.765l-0.164-0.564a1.499 1.499 0 0 1 0.916 0.092c0.147 0.072 0.405 0.233 0.461 0.544 0.13 0.694-0.103 1.191-0.666 1.687z m25.276-3.78a2.148 2.148 0 1 0-2.672 3.35l2.825-3.2a2.936 2.936 0 0 0-0.153-0.15z m-2.667 2.253a1.388 1.388 0 0 1 1.715-1.962z m20.956 0.625a1.041 1.041 0 0 1 0.036 0.291c-0.028 0.597-0.591 1.06-1.26 1.027-0.669-0.022-1.193-0.53-1.166-1.124 0.019-0.563 0.519-1.005 1.135-1.032a1.976 1.976 0 0 0-0.366-0.047c-1.124-0.047-2.04 0.749-2.076 1.737-0.047 1.055 0.802 1.92 1.904 1.968 1.127 0.042 2.04-0.755 2.081-1.807a1.735 1.735 0 0 0-0.285-1.013m-34.011 1.21c0 0.599-0.547 1.082-1.215 1.082-0.672 0-1.216-0.48-1.216-1.082 0-0.561 0.48-1.021 1.094-1.077a2.043 2.043 0 0 0-0.367-0.033c-1.121 0-2.006 0.833-2.006 1.82 0 1.06 0.888 1.887 1.987 1.887 1.124 0 2.006-0.827 2.006-1.887a1.679 1.679 0 0 0-0.33-0.993c0.028 0.083 0.047 0.18 0.047 0.283m40.985-6.064l-0.5 2.051-0.461-2.276-6.155-1.351 0.044 3.422 0.927 0.208-0.066 0.619-0.028-0.02c-1.149-0.605-2.573-0.666-3.913-0.161-0.452 0.167-0.871 0.397-1.249 0.672l-0.93-5.861h-4.093l-0.111 0.677h-4.31l-0.491 3.011-0.361-0.441a5.512 5.512 0 0 0-4.232-2.026l3.658-1.968-2.548-3.802-4.615 5.309 0.796 0.971a6.078 6.078 0 0 0-1.87 1.191L27.106 3.963l-1.379 2.645 0.052-2.542-6.177 1.976 0.158 3.319 1.052-0.272 0.155 1.679c-1.202-0.536-2.648-0.527-3.985 0.039a5.883 5.883 0 0 0-1.107 0.635 4.704 4.704 0 0 0-0.214-2.936 5.284 5.284 0 0 0-2.267-2.498 5.434 5.434 0 0 0-2.401-0.854c-2.137-0.375-4.707 0.008-7.232 1.087a17.592 17.592 0 0 0-2.576 1.341L0.198 8.209l0.596 1.007 1.851 3.128s0.566 0.96 0.569 0.958l1.002-0.492 0.139-0.063 4.601 10.268 0.444 0.985 1.027-0.327 2.487-0.8 1.093-0.347-0.289-1.11-1.321-5.076c0.38-0.28 0.733-0.58 1.063-0.89-0.075 0.608-0.036 1.221 0.131 1.809 0.344 1.229 1.154 2.201 2.27 2.736 1.207 0.583 2.678 0.583 4.04 0.006 0.685-0.289 1.296-0.713 1.807-1.218l0.189 2.02 4.357-0.641-0.006-3.905 9.109 4.496v-4.357a9.255 9.255 0 0 0 3.738-1.21l-0.383 2.339 4.912 0.775 0.269-1.768 1.28 2.37 0.785-1.513 0.289 2.484 5.564 0.977-0.294-1.87a5.043 5.043 0 0 0 2.88-0.55l-0.222 1.993 3.708 0.524 0.028 1.518 3.857 1.216L66.802 8.517z m-21.755 2.248l0.255-0.269-0.311 1.915-0.802-0.727z m-3.267-7.807l1.352 1.835-3.858 1.912-0.269-0.405z m-25.537 14.129l1.54 5.906-2.492 0.796-5.109-11.412c-0.278 0.147-0.788 0.389-1.263 0.619L1.835 8.6c0.738-0.469 1.543-0.885 2.4-1.248 2.409-1.024 4.71-1.332 6.55-1.005 0.647 0.075 1.335 0.264 1.943 0.666 0.827 0.466 1.457 1.127 1.823 1.973 0.888 2.054-0.597 5.015-3.541 6.83z m11.45-1.049c-0.028 0.883-0.352 1.759-0.89 2.506a4.987 4.987 0 0 1-2.079 1.679c-2.162 0.916-4.321 0-4.895-2.054-0.563-1.981 0.738-4.343 2.83-5.245 1.34-0.561 2.681-0.43 3.641 0.222 0.591 0.405 1.046 1.01 1.257 1.768a3.691 3.691 0 0 1 0.136 1.127z m11.756 4.174l-9.03-4.521 0.016 4.737-2.339 0.319-0.164-1.951c0.722-1.238 0.985-2.698 0.611-4.035a4.235 4.235 0 0 0-1.11-1.887l-0.336-3.977-1.046 0.272-0.048-1.004 3.752-1.122 0.231 3.875 2.767-3.886 2.703 2.573-3.78 3.985 3.552 1.407c0.394 0.749 0.999 1.388 1.76 1.86 0.733 0.452 1.576 0.722 2.467 0.807v2.548z m-4.69-6.55l-1.26-0.483 1.174-1.137c-0.053 0.522-0.028 1.068 0.083 1.62z m9.83 1.185c-0.866 0.719-1.859 1.185-3.161 1.499a6.15 6.15 0 0 1-0.838 0.141c-2.073 0.203-3.813-0.749-4.474-2.292a3.305 3.305 0 0 1-0.191-0.58c-0.305-1.299-0.044-2.462 0.596-3.372a4.08 4.08 0 0 1 0.653-0.724 5.19 5.19 0 0 1 2.253-1.146c1.976-0.475 3.716 0.128 4.782 1.435l-3.761 4.007a2.714 2.714 0 0 0 0.958-0.092c0.896-0.219 1.399-0.694 1.84-1.21l1.504 1.349 0.455 0.416a8.37 8.37 0 0 1-0.616 0.569z m7.984 5.348l-0.816-5.423-1.16 2.992-1.734-3.741h-0.02l-0.682 4.329-2.889-0.499 0.405-2.415a11.573 11.573 0 0 0 0.322-0.316l0.938-0.966-0.913-0.816 0.971-5.753h2.914l0.727 3.986 0.816-4.616h2.087l0.866 5.623c-1.099 1.252-1.637 2.942-1.266 4.482a4.102 4.102 0 0 0 2.401 2.872l0.111 0.73z m7.202-1.768a4.551 4.551 0 0 1-1.046 0.555 3.877 3.877 0 0 1-2.146 0.214 3.2 3.2 0 0 1-1.243-0.527 3.103 3.103 0 0 1-1.193-1.818c-0.222-0.932-0.019-1.932 0.483-2.808 0.253-0.427 0.574-0.827 0.954-1.174 0.422-0.38 0.916-0.694 1.463-0.902 1.274-0.477 2.531-0.311 3.413 0.322a2.997 2.997 0 0 1 1.171 1.756c0.272 1.127-0.05 2.326-0.76 3.294a4.857 4.857 0 0 1-1.096 1.088z m6.502 5.109l-2.137-0.635-0.183-7.876-1.077 6.078-2.331-0.375 0.172-1.748c1.518-1.288 2.326-3.316 1.885-5.151a4.043 4.043 0 0 0-1.205-2.065l0.197-2.062-0.88-0.236 0.056-1.099 4.018 0.805 1.352 6.405 1.385-5.742 3.053 0.677z"/></svg>