<svg fill="#CD792C" role="img" viewBox="0 0 49 24" xmlns="http://www.w3.org/2000/svg"><title>Polars</title><path d="M42.481 3.394h0.872c0.213 0 0.388 0.175 0.388 0.395v7.483a0.396 0.396 0 0 1-0.388 0.388h-0.872a0.396 0.396 0 0 1-0.395-0.388V3.789c0-0.221 0.175-0.396 0.395-0.395z m2.436 2.179h0.874c0.211 0 0.386 0.175 0.386 0.393v5.063a0.396 0.396 0 0 1-0.386 0.388h-0.874a0.396 0.396 0 0 1-0.395-0.388v-5.061c0-0.229 0.175-0.396 0.395-0.395z m2.422 2.777h0.864c0.221 0 0.396 0.175 0.395 0.396v1.442a0.396 0.396 0 0 1-0.395 0.385h-0.864a0.396 0.396 0 0 1-0.395-0.393v-1.442a0.38 0.38 0 0 1 0.395-0.382z m-7.287-5.677h0.865a0.396 0.396 0 0 1 0.396 0.394v1.443a0.396 0.396 0 0 1-0.396 0.38h-0.874a0.396 0.396 0 0 1-0.393-0.382v-1.441a0.396 0.396 0 0 1 0.393-0.394Zm0 2.9h0.865a0.396 0.396 0 0 1 0.396 0.393v1.322a0.396 0.396 0 0 1-0.396 0.387h-0.874a0.396 0.396 0 0 1-0.393-0.387v-1.322a0.396 0.396 0 0 1 0.393-0.393z m0 2.785h0.865a0.396 0.396 0 0 1 0.396 0.388v2.169a0.396 0.396 0 0 1-0.396 0.387h-0.874a0.396 0.396 0 0 1-0.393-0.385v-2.171a0.396 0.396 0 0 1 0.393-0.388z m-2.491-6.292h0.874a0.396 0.396 0 0 1 0.387 0.394v2.285a0.396 0.396 0 0 1-0.387 0.394h-0.872a0.396 0.396 0 0 1-0.395-0.394V2.46a0.396 0.396 0 0 1 0.395-0.394Zm0 3.87h0.874a0.396 0.396 0 0 1 0.387 0.396v4.342a0.396 0.396 0 0 1-0.387 0.385h-0.872a0.396 0.396 0 0 1-0.395-0.385V6.332a0.396 0.396 0 0 1 0.395-0.396ZM35.143 1.345h0.874a0.396 0.396 0 0 1 0.394 0.386v9.186a0.396 0.396 0 0 1-0.394 0.385H35.143a0.396 0.396 0 0 1-0.395-0.385V1.731a0.396 0.396 0 0 1 0.395-0.386z m0 20.432h0.874a0.396 0.396 0 0 1 0.394 0.396v1.441a0.396 0.396 0 0 1-0.394 0.386H35.143a0.396 0.396 0 0 1-0.395-0.394v-1.441a0.396 0.396 0 0 1 0.395-0.382z m-2.49-1.936h0.874a0.396 0.396 0 0 1 0.393 0.396v3.369a0.396 0.396 0 0 1-0.393 0.394h-0.866a0.396 0.396 0 0 1-0.387-0.394V20.235a0.396 0.396 0 0 1 0.387-0.396z m0-10.276h0.874a0.396 0.396 0 0 1 0.393 0.394v2.277a0.396 0.396 0 0 1-0.393 0.402h-0.866a0.396 0.396 0 0 1-0.387-0.394v-2.285a0.396 0.396 0 0 1 0.387-0.394z m0-8.828h0.874a0.396 0.396 0 0 1 0.393 0.396v7.239a0.396 0.396 0 0 1-0.393 0.396h-0.866a0.396 0.396 0 0 1-0.387-0.396V1.133a0.396 0.396 0 0 1 0.387-0.396z m-2.45 0.121h0.872a0.396 0.396 0 0 1 0.395 0.395V5.474a0.396 0.396 0 0 1-0.395 0.386h-0.874a0.396 0.396 0 0 1-0.385-0.386V1.253a0.396 0.396 0 0 1 0.385-0.393z m0 5.807h0.872a0.396 0.396 0 0 1 0.395 0.388v12.326a0.396 0.396 0 0 1-0.395 0.394h-0.874a0.396 0.396 0 0 1-0.385-0.394V7.053a0.396 0.396 0 0 1 0.385-0.388Zm0 13.905h0.872a0.396 0.396 0 0 1 0.395 0.388v2.289a0.396 0.396 0 0 1-0.395 0.388h-0.874a0.396 0.396 0 0 1-0.385-0.388v-2.289a0.396 0.396 0 0 1 0.385-0.388z m-2.43-19.355h0.864a0.396 0.396 0 0 1 0.396 0.402v9.89a0.396 0.396 0 0 1-0.394 0.396h-0.874a0.396 0.396 0 0 1-0.387-0.396V1.619a0.396 0.396 0 0 1 0.387-0.396Zm0 11.491h0.864a0.396 0.396 0 0 1 0.396 0.395v7.849a0.396 0.396 0 0 1-0.394 0.395h-0.874a0.396 0.396 0 0 1-0.387-0.395v-7.849a0.396 0.396 0 0 1 0.387-0.395Zm-2.444-11.848h0.874a0.396 0.396 0 0 1 0.386 0.395v6.384a0.396 0.396 0 0 1-0.386 0.394h-0.874a0.396 0.396 0 0 1-0.395-0.394V1.261a0.396 0.396 0 0 1 0.395-0.395z m0 7.986h0.874a0.396 0.396 0 0 1 0.386 0.386v5.313a0.396 0.396 0 0 1-0.386 0.388h-0.874a0.396 0.396 0 0 1-0.395-0.388V9.23a0.396 0.396 0 0 1 0.395-0.386z m0 6.884h0.874a0.396 0.396 0 0 1 0.386 0.394v2.406a0.396 0.396 0 0 1-0.386 0.395h-0.874a0.396 0.396 0 0 1-0.395-0.395v-2.406a0.396 0.396 0 0 1 0.395-0.394z m-2.45-15.105h0.872a0.396 0.396 0 0 1 0.394 0.381v2.898a0.396 0.396 0 0 1-0.394 0.388h-0.882a0.396 0.396 0 0 1-0.393-0.388v-2.892a0.396 0.396 0 0 1 0.393-0.393z m0 4.472h0.872a0.396 0.396 0 0 1 0.394 0.385v11.114a0.396 0.396 0 0 1-0.394 0.393h-0.882a0.396 0.396 0 0 1-0.393-0.393V5.48a0.396 0.396 0 0 1 0.393-0.385Zm-2.46 16.431h0.872a0.396 0.396 0 0 1 0.396 0.396v1.676a0.396 0.396 0 0 1-0.396 0.396h-0.872a0.396 0.396 0 0 1-0.387-0.396v-1.676a0.396 0.396 0 0 1 0.387-0.396z m0-21.403h0.872a0.396 0.396 0 0 1 0.396 0.395v10.268a0.396 0.396 0 0 1-0.396 0.388h-0.872a0.396 0.396 0 0 1-0.387-0.388v-10.262a0.396 0.396 0 0 1 0.387-0.393Zm0 11.856h0.872a0.396 0.396 0 0 1 0.396 0.385v4.222a0.396 0.396 0 0 1-0.396 0.393h-0.872a0.396 0.396 0 0 1-0.387-0.393V12.362a0.396 0.396 0 0 1 0.387-0.385z m-2.452 7.742h0.872a0.396 0.396 0 0 1 0.387 0.379v3.498a0.396 0.396 0 0 1-0.387 0.396h-0.872a0.396 0.396 0 0 1-0.395-0.396v-3.49a0.396 0.396 0 0 1 0.395-0.396z m0-12.1h0.872a0.396 0.396 0 0 1 0.387 0.396v8.575a0.396 0.396 0 0 1-0.387 0.387h-0.872a0.396 0.396 0 0 1-0.395-0.393v-8.569a0.396 0.396 0 0 1 0.395-0.382Zm0-7.619h0.872a0.396 0.396 0 0 1 0.387 0.394v6.034a0.396 0.396 0 0 1-0.387 0.394h-0.872a0.396 0.396 0 0 1-0.395-0.394V0.394a0.396 0.396 0 0 1 0.395-0.394Zm-2.452 0.121h0.874a0.396 0.396 0 0 1 0.393 0.395V1.96a0.396 0.396 0 0 1-0.393 0.386h-0.874A0.396 0.396 0 0 1 15.126 1.96v-1.442a0.396 0.396 0 0 1 0.387-0.395Zm0 2.907h0.874a0.396 0.396 0 0 1 0.393 0.386v11.127a0.396 0.396 0 0 1-0.393 0.388h-0.874a0.396 0.396 0 0 1-0.387-0.388V3.426a0.396 0.396 0 0 1 0.387-0.388Zm0 12.698h0.874a0.396 0.396 0 0 1 0.393 0.388v3.012a0.396 0.396 0 0 1-0.393 0.396h-0.874a0.396 0.396 0 0 1-0.387-0.396v-3.012a0.396 0.396 0 0 1 0.387-0.388z m0 4.591h0.874a0.396 0.396 0 0 1 0.393 0.396v1.919a0.396 0.396 0 0 1-0.393 0.396h-0.874a0.396 0.396 0 0 1-0.387-0.396v-1.919a0.396 0.396 0 0 1 0.387-0.396ZM13.063 1.096h0.872a0.396 0.396 0 0 1 0.387 0.394v7.242a0.396 0.396 0 0 1-0.387 0.387h-0.874a0.396 0.396 0 0 1-0.393-0.387V1.488a0.396 0.396 0 0 1 0.393-0.394Zm0 8.827h0.872a0.396 0.396 0 0 1 0.387 0.387v1.687a0.396 0.396 0 0 1-0.387 0.394h-0.874a0.396 0.396 0 0 1-0.393-0.396v-1.685a0.396 0.396 0 0 1 0.393-0.387Zm0 3.022h0.864a0.396 0.396 0 0 1 0.395 0.393v7.485a0.396 0.396 0 0 1-0.395 0.394h-0.864a0.396 0.396 0 0 1-0.395-0.394v-7.485a0.396 0.396 0 0 1 0.393-0.393ZM10.479 7.135h1.124a0.273 0.273 0 0 1 0.265 0.273v5.549a0.273 0.273 0 0 1-0.265 0.273h-1.116a0.273 0.273 0 0 1-0.273-0.273V7.416a0.273 0.273 0 0 1 0.273-0.281z m0 6.892h1.124a0.273 0.273 0 0 1 0.265 0.273v4.987a0.273 0.273 0 0 1-0.265 0.273h-1.116a0.273 0.273 0 0 1-0.273-0.273v-4.971a0.273 0.273 0 0 1 0.273-0.273z m0-11.969h1.124a0.273 0.273 0 0 1 0.265 0.274v3.855a0.273 0.273 0 0 1-0.265 0.273h-1.116a0.273 0.273 0 0 1-0.273-0.273v-3.855a0.273 0.273 0 0 1 0.273-0.274Zm-2.444 1.199h1.108a0.273 0.273 0 0 1 0.273 0.265v5.792a0.273 0.273 0 0 1-0.273 0.265h-1.108a0.273 0.273 0 0 1-0.273-0.265V3.522a0.273 0.273 0 0 1 0.273-0.265Zm0 7.029h1.108a0.273 0.273 0 0 1 0.273 0.273v7.84a0.273 0.273 0 0 1-0.273 0.273h-1.116a0.273 0.273 0 0 1-0.265-0.273v-7.832a0.273 0.273 0 0 1 0.265-0.273Zm-2.346 11.491h0.874a0.396 0.396 0 0 1 0.395 0.396v1.441a0.396 0.396 0 0 1-0.395 0.386h-0.864a0.396 0.396 0 0 1-0.389-0.394v-1.441a0.396 0.396 0 0 1 0.387-0.382z m-0.12-5.145h1.13a0.273 0.273 0 0 1 0.273 0.273v2.534a0.273 0.273 0 0 1-0.273 0.273h-1.124a0.273 0.273 0 0 1-0.265-0.273v-2.534a0.273 0.273 0 0 1 0.267-0.273z m0-9.489h1.13a0.273 0.273 0 0 1 0.273 0.265v8.184a0.273 0.273 0 0 1-0.273 0.273h-1.124a0.273 0.273 0 0 1-0.265-0.273V7.408a0.273 0.273 0 0 1 0.267-0.265Zm-2.436 11.949h1.114a0.273 0.273 0 0 1 0.273 0.271v4.364a0.273 0.273 0 0 1-0.273 0.273h-1.124a0.273 0.273 0 0 1-0.271-0.273v-4.364a0.273 0.273 0 0 1 0.273-0.273z m0.12-6.476h0.866a0.396 0.396 0 0 1 0.395 0.387v5.033a0.396 0.396 0 0 1-0.395 0.393h-0.874a0.396 0.396 0 0 1-0.393-0.393v-5.033a0.396 0.396 0 0 1 0.393-0.387ZM0.683 18.028h1.108c0.151 0 0.273 0.12 0.273 0.273v4.121c0 0.153-0.12 0.273-0.273 0.273H0.675A0.273 0.273 0 0 1 0.402 22.424v-4.121c0-0.153 0.12-0.273 0.273-0.273z"/></svg>