<svg fill="#E6007A" role="img" viewBox="0 0 23 24" xmlns="http://www.w3.org/2000/svg"><title>Polkadot</title><path d="M11.5 0c2.39 0 4.328 1.127 4.328 2.517S13.89 5.034 11.5 5.034 7.172 3.907 7.172 2.517 9.11 0 11.5 0Zm0 18.966c2.39 0 4.328 1.127 4.328 2.517S13.89 24 11.5 24s-4.328-1.127-4.328-2.517S9.11 18.966 11.5 18.966ZM1.106 6C2.3 3.93 4.247 2.816 5.452 3.511s1.212 2.937 0.017 5.007S2.328 11.7 1.124 11.007-0.089 8.07 1.106 6Zm16.427 9.483c1.2-2.07 3.139-3.184 4.343-2.489s1.211 2.936 0.016 5.006-3.14 3.185-4.344 2.49S16.337 17.553 17.533 15.483ZM1.124 12.993c1.205-0.7 3.15 0.419 4.346 2.489s1.187 4.311-0.018 5.007S2.3 20.07 1.107 18-0.08 13.689 1.124 12.993ZM17.549 3.512c1.2-0.695 3.149 0.419 4.344 2.489s1.188 4.311-0.016 5.007-3.148-0.42-4.343-2.49S16.346 4.207 17.549 3.512Z"/></svg>