<svg fill="#7B3FE4" role="img" viewBox="0 0 28 24" xmlns="http://www.w3.org/2000/svg"><title>Polygon</title><path d="M20.572 16.903l6.427-3.712A1.107 1.107 0 0 0 27.55 12.237V4.813a1.107 1.107 0 0 0-0.551-0.955l-6.428-3.711a1.107 1.107 0 0 0-1.104 0L13.04 3.858a1.107 1.107 0 0 0-0.552 0.955v13.264L7.982 20.679l-4.508-2.602v-5.205l4.508-2.602 2.973 1.717V8.495L8.533 7.097a1.107 1.107 0 0 0-1.104 0L1.001 10.809a1.107 1.107 0 0 0-0.551 0.955v7.422a1.107 1.107 0 0 0 0.551 0.956l6.428 3.711a1.108 1.108 0 0 0 1.104 0l6.427-3.711a1.107 1.107 0 0 0 0.552-0.955V5.923l0.081-0.046 4.427-2.556 4.505 2.603v5.204l-4.505 2.602-2.97-1.713v3.491l2.416 1.396a1.108 1.108 0 0 0 1.105 0v-0.001Z"/></svg>