<svg fill="#EF7878" role="img" viewBox="0 0 24 24" xmlns="http://www.w3.org/2000/svg"><title>Porkbun</title><path d="M12 0C5.371 0 0.018 5.353 0.018 11.982 0.018 18.612 5.371 24 12 24s11.982-5.353 11.982-11.982C23.982 5.388 18.629 0 12 0ZM5.832 5.885c1.063 0.248 2.092 0.638 3.014 1.135-1.099 0.532-1.987 1.382-2.66 2.375-0.425-0.567-0.674-1.277-0.674-2.057 0-0.532 0.108-0.992 0.32-1.453z m12.336 0c0.213 0.425 0.32 0.921 0.32 1.453 0 0.78-0.248 1.49-0.673 2.057-0.674-0.993-1.597-1.843-2.661-2.375a9.982 9.982 0 0 1 3.014-1.135z m-6.072 0.81c3.529 0.047 6.355 2.92 6.32 6.457v3.829c0 0.638-0.532 1.17-1.17 1.169-0.638 0-1.17-0.532-1.17-1.17v-0.957H7.852v0.957c0 0.638-0.532 1.17-1.17 1.17-0.638 0-1.17-0.532-1.17-1.17v-3.65c0-3.51 2.731-6.489 6.24-6.631 0.115-0.004 0.23-0.005 0.344-0.004z m1.5 3.799c-0.496 0-0.922 0.426-0.922 0.922 0 0.248 0.071 0.424 0.213 0.602 0.142 0.213 0.354 0.355 0.566 0.461-0.142 0.071-0.319 0.142-0.496 0.142-0.213 0-0.391 0.176-0.391 0.389s0.178 0.391 0.391 0.39h0.178c0.603 0 1.135-0.355 1.383-0.851 0.39-0.142 0.709-0.39 0.922-0.744 0.071-0.106 0.034-0.248-0.038-0.213-0.106-0.035-0.212-0.034-0.283 0.072-0.106 0.142-0.248 0.283-0.426 0.354v-0.143c0-0.39-0.141-0.709-0.353-0.992-0.177-0.248-0.425-0.389-0.744-0.389z m0 0.531c0.213 0 0.353 0.141 0.388 0.354v0.178c0 0.177-0.035 0.354-0.105 0.496-0.248-0.071-0.462-0.213-0.604-0.426-0.035-0.071-0.07-0.14-0.07-0.211 0-0.239 0.206-0.391 0.391-0.391z"/></svg>