<svg fill="#447099" role="img" viewBox="0 0 27 24" xmlns="http://www.w3.org/2000/svg"><title>Posit</title><path d="M0.465 0v6.945l5.27 2.244-3.552 1.572v2.48l3.493 1.555L0.465 17.013v6.987l12.946-5.709 0.089-0.038 0.089 0.038L26.535 24v-6.987l-5.211-2.216 3.493-1.556v-2.48l-3.552-1.572L26.535 6.945V0L13.5 5.754Zm0.955 1.469l10.905 4.813-5.388 2.379L1.42 6.311Zm24.16 0v4.842l-5.503 2.349-5.402-2.379 10.906-4.813ZM13.5 6.796l5.372 2.379-5.377 2.288-5.367-2.289zM6.938 9.703l5.351 2.273-0.007 0.002 0.007 0.002-5.409 2.303-3.743-1.661v-1.247l3.802-1.674z m13.124 0l3.817 1.672v1.25l-3.745 1.657-1.203 0.529-5.424 2.401L8.069 14.812l5.424-2.317L18.931 14.811l1.189-0.529-5.402-2.303zM6.88 15.324l5.445 2.406-0.072 0.033-10.833 4.784v-4.902z m13.254 0l5.446 2.321v4.902l-10.818-4.784-0.071-0.033z"/></svg>