<svg fill="#000000" role="img" viewBox="0 0 44 24" xmlns="http://www.w3.org/2000/svg"><title>PostHog</title><path d="M18.126 16.514L9.363 7.753 1.879 0.267A0.903 0.903 0 0 0 0.337 0.906V5.574a0.903 0.903 0 0 0 0.264 0.637L9.363 14.974l0.266 0.263L18.126 23.735l0.264 0.265v-0.088c0.117 0.054 0.242 0.088 0.373 0.088h4.669a0.903 0.903 0 0 0 0.637-1.542L18.126 16.514z m0-9.026l-7.221-7.221a0.879 0.879 0 0 0-0.738-0.26 0.93 0.93 0 0 0-0.643 0.379 0.89 0.89 0 0 0-0.161 0.52V5.574a0.903 0.903 0 0 0 0.266 0.637l16.247 16.247a0.903 0.903 0 0 0 1.54-0.639v-4.666a0.903 0.903 0 0 0-0.264-0.639l-9.026-9.026z m1.805-7.221a0.903 0.903 0 0 0-1.541 0.639V5.574a0.903 0.903 0 0 0 0.265 0.637l7.221 7.221a0.903 0.903 0 0 0 1.54-0.639V8.127a0.903 0.903 0 0 0-0.264-0.639l-7.221-7.221z m22.831 20.787a6.974 6.974 0 0 1-4.029-1.986l-8.499-8.497a0.903 0.903 0 0 0-1.542 0.639v11.887a0.903 0.903 0 0 0 0.903 0.903H42.76a0.903 0.903 0 0 0 0.903-0.903v-1.083c0-0.498-0.406-0.897-0.901-0.96z m-9.737 0.058a1.444 1.444 0 1 1 0-2.889 1.444 1.444 0 0 1 0 2.889zM1.879 18.319a0.903 0.903 0 0 0-1.542 0.639v4.139a0.903 0.903 0 0 0 0.903 0.903h4.139c0.401 0 0.704-0.244 0.834-0.558a0.89 0.89 0 0 0-0.197-0.984L1.879 18.321zM9.363 16.779L1.879 9.293a0.903 0.903 0 0 0-1.542 0.637v4.668a0.903 0.903 0 0 0 0.264 0.638L9.1 23.735l0.263 0.265h5.042a0.903 0.903 0 0 0 0.638-1.542L9.363 16.779z"/></svg>