<svg fill="#DD3A0A" role="img" viewBox="0 0 25 24" xmlns="http://www.w3.org/2000/svg"><title>PostCSS</title><path d="M12.127 0.003q-0.352 0.014-0.706 0.065c-0.226 0.024-0.453 0.064-0.672 0.097-0.267 0.033-0.534 0.05-0.802 0.081-0.252 0.033-0.51 0.082-0.762 0.123-0.09 0.016-0.178 0.048-0.268 0.064-0.194 0.04-0.396 0.057-0.591 0.122A16.008 16.008 0 0 0 7.288 0.913c-0.316 0.13-0.624 0.268-0.923 0.43-0.308 0.17-0.6 0.373-0.893 0.568q-0.415 0.277-0.82 0.592c-0.257 0.203-0.501 0.43-0.737 0.658-0.13 0.13-0.235 0.284-0.356 0.43-0.203 0.236-0.405 0.462-0.6 0.706-0.16 0.203-0.308 0.414-0.462 0.625-0.275 0.373-0.51 0.77-0.729 1.169-0.09 0.162-0.17 0.325-0.25 0.487-0.123 0.243-0.252 0.478-0.366 0.731-0.08 0.17-0.146 0.357-0.194 0.544a67.031 67.031 0 0 0-0.332 1.2c-0.098 0.358-0.122 0.73-0.13 1.097-0.008 0.324 0.024 0.64 0.057 0.965 0.008 0.082-0.04 0.18 0.056 0.245-0.032 0.09-0.008 0.138 0.04 0.154-0.056 0.09 0.025 0.146-0.007 0.227-0.008 0.017 0.025 0.05 0.04 0.073 0 0.025-0.008 0.057 0 0.08 0.01 0.074 0.04 0.147 0.04 0.229 0 0.056 0.05 0.12 0.066 0.178 0.008 0.024 0 0.065-0.017 0.08-0.048 0.058-0.04 0.106 0.033 0.139 0.04 0.105 0.024 0.154 0.016 0.203 0.016 0.073-0.008 0.097 0 0.114 0.065 0.13 0.09 0.275 0.097 0.42 0 0.034 0.016 0.066 0.033 0.107 0.008 0 0 0.154 0 0.155 0.04-0.024 0.073-0.032 0.113-0.05q0.036 0.16 0.081 0.294c0.04 0.065 0.041 0.097 0.025 0.105 0.032 0.145 0.048 0.283 0.105 0.42 0-0.153-0.016-0.307-0.04-0.453 0.113 0.04 0.21 0.08 0.275 0.08 0.008-0.023 0.016-0.055 0.025-0.072-0.049-0.048-0.09-0.12-0.138-0.17 0.016 0.065 0 0.09 0 0.114a1 1 0 0 0-0.114-0.05c0.033-0.04 0.065-0.08 0.114-0.13 0-0.072-0.04-0.137-0.154-0.13 0.05-0.015 0.097-0.04 0.154-0.056 0.09-0.048-0.008-0.138-0.008-0.25 0.008-0.14-0.073-0.277-0.097-0.423-0.04-0.227-0.033-0.568-0.057-0.795-0.049-0.04-0.09 0.065-0.097 0.073q0.04 0.293 0.064 0.584c-0.048-0.162-0.08-0.34-0.12-0.536-0.01 0.057-0.017 0.08-0.017 0.114-0.04 0.04-0.008 0.09 0.016 0.146-0.056-0.025-0.12-0.016-0.12-0.016v0.227c-0.082-0.08-0.106-0.146-0.147-0.203-0.016-0.065-0.025-0.13-0.04-0.194 0.015-0.04 0-0.065 0-0.09l-0.025-0.195a1 1 0 0 0-0.008-0.13c0.065 0.009 0.106 0.016 0.146 0.016-0.08-0.104-0.025-0.17 0.008-0.234 0.016-0.033 0.073-0.04 0.09-0.074 0.064-0.12 0.17-0.218 0.17-0.374 0-0.073 0.025-0.154 0.032-0.227q0.027-0.207 0.04-0.414c0.017-0.178 0-0.357 0.041-0.527 0.065-0.283 0.146-0.568 0.235-0.853 0.065-0.203 0.138-0.397 0.22-0.6 0.12-0.317 0.234-0.633 0.389-0.933 0.22-0.438 0.47-0.86 0.713-1.291 0.154-0.268 0.316-0.52 0.487-0.78 0.16-0.25 0.323-0.51 0.51-0.747 0.26-0.332 0.543-0.64 0.861-0.917 0.323-0.292 0.63-0.592 0.98-0.86a10.005 10.005 0 0 1 1.441-0.926c0.414-0.219 0.843-0.39 1.274-0.552 0.275-0.105 0.575-0.154 0.859-0.243 0.324-0.106 0.648-0.154 0.988-0.162 0.219-0.008 0.43-0.033 0.649-0.057a16.008 16.008 0 0 0 0.6-0.057 0.4 0.4 0 0 0-0.04 0.065c-0.09 0.13-0.187 0.26-0.276 0.39-0.073 0.105-0.154 0.218-0.227 0.324-0.13 0.17-0.268 0.34-0.39 0.52-0.185 0.267-0.356 0.543-0.551 0.811-0.194 0.26-0.405 0.504-0.608 0.755-0.267 0.35-0.518 0.706-0.785 1.055-0.244 0.332-0.502 0.65-0.738 0.983-0.21 0.292-0.398 0.6-0.6 0.9-0.3 0.446-0.6 0.884-0.9 1.331a84.039 84.039 0 0 1-0.713 1.015c-0.016 0.024-0.04 0.032-0.065 0.048-0.064 0.105-0.064 0.162-0.09 0.211a4.002 4.002 0 0 1-0.202 0.358c-0.04 0.065-0.097 0.122-0.146 0.187-0.008-0.098 0.13-0.147 0.065-0.27-0.04 0.067-0.08 0.123-0.12 0.188l-0.1 0.194c0.033 0.024 0.088 0.04 0.035 0.088-0.005-0.02-0.032-0.032-0.053-0.048a5.002 5.002 0 0 0-0.194 0.293c0.05 0.04 0.073 0.024 0.105-0.033 0.03-0.06 0.072-0.104 0.11-0.154l-0.042 0.074a0.3 0.3 0 0 0 0.09-0.08c0 0.088-0.05 0.16-0.09 0.233-0.033 0.065-0.114 0.114-0.17 0.163 0.008 0.008 0.065 0.032 0.073 0.04 0.073-0.024 0.097-0.064 0.106-0.04 0.024-0.033 0.048-0.057 0.056-0.08a0.3 0.3 0 0 1 0.162-0.18q0.046-0.026 0.08-0.064c0.244-0.252 0.495-0.496 0.714-0.764 0.34-0.413 0.648-0.843 0.974-1.266 0.137-0.178 0.3-0.357 0.445-0.527 0.024 0.186 0.008 0.365 0 0.535-0.025 0.3-0.04 0.6-0.065 0.908-0.008 0.122 0 0.244-0.008 0.367 0 0.032-0.025 0.056-0.025 0.09 0 0.08 0.025 0.17 0.025 0.25-0.025 0.3-0.057 0.592-0.082 0.893-0.008 0.064 0.024 0.13 0.04 0.186-0.04 0.438 0.05 0.9-0.024 1.365 0.057-0.09 0.073-0.147 0.073-0.203 0.008-0.05 0-0.097 0-0.154v-0.08c0.008-0.147 0.04-0.3 0.024-0.448a1.501 1.501 0 0 1 0.016-0.471c0.017-0.065-0.007-0.146 0.033-0.227v0.12c-0.008 0.463 0.01 0.926-0.056 1.389-0.008 0.04 0.024 0.114-0.065 0.106-0.073 0.146 0.016 0.252-0.065 0.333-0.016 0.016 0.016 0.09 0.024 0.138-0.032 0.097-0.032 0.097 0.016 0.105 0.008 0.18 0.025 0.34 0.033 0.51 0.13-0.307 0.064-0.624 0.122-0.941 0.008 0.13 0.016 0.26 0.008 0.398 0 0.21-0.01 0.414-0.017 0.625q-0.002 0.06-0.016 0.123c-0.024 0.113-0.032 0.227-0.072 0.332-0.033 0.08-0.016 0.203-0.016 0.3v0.31c0.032 0.137-0.01 0.21 0.016 0.29-0.025 0.083-0.033 0.107-0.025 0.13l0.025 0.123c0.162-0.016 0.09 0.106 0.153 0.17-0.048 0.065-0.032 0.09-0.032 0.122 0 0.073-0.008 0.138-0.016 0.21 0 0.188-0.008 0.374-0.008 0.554 0 0.025 0.008 0.048 0.008 0.073l-0.008 0.227c0.016 0.024 0 0.05-0.025 0.073-0.008 0-0.032-1.03-0.032-1.031h-0.12c-0.017 0.486 0.023 0.924-0.066 1.381-0.097 0.007-0.13 0.023-0.235 0.023q-0.378-0.002-0.755 0.008c-0.3 0-0.59 0.008-0.89 0.008-0.147 0-0.3 0.017-0.446 0.017-0.195 0-0.397-0.025-0.59-0.025-0.3 0-0.593 0.024-0.894 0.032-0.22 0.008-0.437 0.008-0.656 0.017-0.146 0.008-0.292 0.015-0.438 0.032-0.064 0.008-0.12 0.032-0.202 0.056-0.025 0-0.08-0.008-0.131 0-0.08 0.017-0.153 0.065-0.235 0.082-0.122 0.024-0.154 0.056-0.138 0.178v0.08c-0.008 0.017 0.178-0.024 0.178-0.024-0.016 0-0.024 0.05-0.049 0.09 0.065-0.025 0.106-0.04 0.147-0.057 0.121 0.057 0.226 0.025 0.324 0.05 0.316 0.08 0.64 0.113 0.964 0.145 0.21 0.016 0.414 0.025 0.624 0.032 0.3 0.017 0.6 0.033 0.901 0.033 0.25 0 0.493-0.025 0.744-0.025 0.348 0 0.697 0.016 1.046 0.025 0.073 0 0.154-0.008 0.235-0.008h0.592c0.527-0.016 1.053-0.025 1.581-0.04 0.3-0.01 0.608-0.025 0.907-0.033l0.925-0.025c0.357-0.008 0.713-0.008 1.062-0.015 0.267 0 0.526-0.01 0.794-0.017 0.3-0.008 0.607-0.032 0.908-0.048 0.162-0.008 0.324-0.025 0.486-0.04 0.195-0.017 0.398-0.04 0.592-0.05 0.29-0.016 0.59-0.024 0.884-0.04 0.365-0.024 0.73-0.057 1.102-0.065 0.34-0.016 0.689-0.008 1.031-0.016 0.3-0.008 0.599-0.025 0.907-0.033l0.51-0.025s0.34-0.008 0.511-0.024c0.293-0.016 0.584-0.05 0.876-0.057 0.186-0.008 0.372 0 0.559-0.008 0.3-0.008 0.606-0.024 0.907-0.024 0.113 0 0.235 0.016 0.38 0.024-0.064 0.057-0.105 0.09-0.153 0.13 0.032 0.008 0.064 0.025 0.097 0.04a0.22 0.22 0 0 1-0.13 0.04c-0.016 0.042-0.032 0.058-0.048 0.139h0.145c-0.056 0-0.105 0.073-0.16 0.122-0.066-0.017-0.123 0-0.156 0.09 0.057 0.03 0.05 0.056 0.04 0.09-0.096 0.03-0.17 0.063-0.128 0.17q-0.05 0.022-0.114 0.056c-0.04 0.065-0.113 0.08-0.097 0.17 0.032 0.008 0.064 0.025 0.09 0.033-0.042 0.016-0.082 0.04-0.123 0.056-0.145 0.09-0.08 0.13-0.048 0.17q-0.037 0.027-0.073 0.04c0.016 0.074 0.04 0.09 0.048 0.09l-0.085 0.069 0.01-0.027h-0.032q0 0.022 0.005 0.04l-0.02 0.016c-0.024 0.072-0.056 0.104-0.09 0.153-0.03 0.048-0.046 0.114-0.088 0.162-0.17 0.187-0.292 0.406-0.51 0.552-0.081 0.057-0.154 0.13-0.227 0.203-0.146 0.138-0.276 0.292-0.43 0.423a9.004 9.004 0 0 1-0.631 0.478c-0.267 0.187-0.534 0.374-0.803 0.552-0.146 0.097-0.308 0.17-0.462 0.26s-0.3 0.17-0.454 0.26c-0.097 0.064-0.186 0.153-0.291 0.202-0.268 0.114-0.551 0.211-0.828 0.318-0.268 0.114-0.462 0.21-0.664 0.284a5.002 5.002 0 0 1-0.575 0.153c-0.065 0.017-0.138 0-0.211 0.01-0.138 0.024-0.276 0.057-0.415 0.073-0.356 0.048-0.713 0.08-1.07 0.13-0.21 0.024-0.413 0.064-0.623 0.09-0.146 0.007-0.3-0.009-0.447-0.009-0.105 0-0.218 0.025-0.324 0.01-0.17-0.026-0.34-0.066-0.51-0.098-0.04-0.008-0.097-0.025-0.13-0.008-0.064 0.032-0.122-0.016-0.187 0-0.04 0.008-0.08-0.025-0.12-0.025-0.033-0.008-0.074 0.01-0.115 0-0.09-0.024-0.17-0.056-0.268-0.048-0.096 0.008-0.194-0.04-0.299-0.065l-0.43-0.097a0.7 0.7 0 0 1-0.162-0.073c-0.21 0-0.348-0.008-0.478-0.057-0.113-0.04-0.22-0.097-0.34-0.08-0.032 0.007-0.057-0.009-0.09-0.009-0.024-0.033-0.048-0.098-0.072-0.098-0.162 0.008-0.26-0.13-0.397-0.17-0.073-0.024-0.13-0.105-0.203-0.131-0.18-0.073-0.324-0.227-0.527-0.25-0.064-0.01-0.13-0.042-0.202-0.066 0.024 0.032 0.04 0.057 0.064 0.08-0.235-0.113-0.453-0.242-0.672-0.364-0.032-0.008-0.056-0.04-0.08-0.057l-0.22-0.147c-0.12 0.024-0.17-0.025-0.203-0.04-0.218-0.154-0.47-0.252-0.681-0.421-0.09-0.074-0.194-0.122-0.26-0.212a1.301 1.301 0 0 0-0.404-0.316c-0.122-0.064-0.235-0.138-0.348-0.21-0.057-0.041-0.114-0.09-0.114-0.181 0-0.056-0.024-0.113-0.097-0.08-0.032-0.05-0.065-0.106-0.105-0.122-0.097-0.04-0.162-0.114-0.235-0.18-0.073-0.064-0.13-0.153-0.221-0.185-0.161-0.065-0.26-0.203-0.355-0.316-0.228-0.268-0.43-0.56-0.64-0.844-0.017-0.024-0.05-0.04-0.074-0.065 0.033 0.09 0.073 0.162 0.114 0.243a0.5 0.5 0 0 1-0.186-0.146c-0.008 0.008 0.558 0.942 0.558 0.942 0.05 0.073 0.09 0.146 0.138 0.219a0.25 0.25 0 0 1-0.243-0.13c-0.073-0.13-0.154-0.21-0.316-0.194a1.401 1.401 0 0 1-0.04-0.18 0.6 0.6 0 0 1-0.114-0.008c0.114 0.179 0.21 0.333 0.316 0.51l-0.08-0.047c0.145 0.154 0.25 0.349 0.436 0.446 0.04 0.187 0.25 0.276 0.3 0.455l-0.114-0.024c-0.065-0.081-0.138-0.162-0.21-0.252a0.4 0.4 0 0 0 0.072 0.146c0.098 0.122 0.187 0.244 0.3 0.35 0.04 0.04 0.098 0.057 0.098 0.13 0.064 0.032 0.09 0.04 0.113 0.04 0.017 0.049-0.008 0.122 0.091 0.106 0.064 0.12 0.128 0.12 0.218 0.08 0.105 0.105 0.162 0.114 0.235 0.05 0 0.04 0.008 0.08 0.008 0.113 0.032-0.017 0.025-0.04 0.025-0.081 0.04 0.033 0.064 0.049 0.08 0.065 0.08 0.114 0.154 0.219 0.268 0.307 0.154 0.13 0.29 0.268 0.437 0.39 0.283 0.235 0.6 0.43 0.917 0.609 0.39 0.22 0.762 0.455 1.16 0.665a6.203 6.203 0 0 0 1.514 0.545c0.195 0.04 0.38 0.08 0.576 0.13 0.17 0.048 0.34 0.121 0.51 0.161 0.26 0.057 0.527 0.106 0.787 0.154l0.179 0.025c0.072 0.016 0.16-0.016 0.177 0.008 0.04 0.065 0.073 0.032 0.122 0.024 0.057-0.016 0.12-0.016 0.186-0.016 0.227 0.008 0.445 0.056 0.672 0.04 0.05 0 0.122-0.04 0.163 0.04 0.073-0.032 0.113-0.032 0.146-0.04 0.008 0.073 0 0.073-0.016 0.08-0.017 0.01-0.04 0.017-0.073 0.04 0.292 0.058 0.567 0.066 0.811 0a2.701 2.701 0 0 0 1.135-0.136c0.032 0.04 0.056 0.097 0.105 0.016 0.016-0.025 0.056-0.033 0.089-0.04 0.073-0.017 0.162-0.05 0.228-0.026 0.073 0.025 0.097-0.04 0.154-0.04 0.097 0 0.186-0.008 0.276-0.024 0.048-0.008 0.097-0.033 0.153-0.05a0.4 0.4 0 0 0-0.178-0.04 7.003 7.003 0 0 1 0.276-0.13c-0.017 0.025-0.033 0.057-0.065 0.057h0.113c-0.025 0-0.057 0.073-0.097 0.122 0.29-0.073 0.558-0.138 0.818-0.204-0.09-0.17 0.097-0.113 0.162-0.21a3.001 3.001 0 0 1-0.243 0.064c0.275-0.137 0.559-0.26 0.835-0.38-0.04 0.048-0.09 0.073-0.163 0.114 0.049 0.008 0.08 0.008 0.107 0.015 0.129 0.04 0.097-0.08 0.137-0.154 0.154 0 0.219-0.024 0.292-0.05q0.12-0.033 0.243-0.08c0.13-0.056 0.25-0.13 0.38-0.194 0.025-0.01 0.065 0 0.098 0 0.09-0.057 0.12-0.106 0.145-0.098 0.114 0.017 0.194-0.024 0.227-0.13l0.023-0.015c0.033 0.07 0.098 0.08 0.203 0.007q-0.1-0.002-0.187-0.016-0.008 0.002-0.011 0.006 0.06-0.047 0.11-0.08c0.178-0.096 0.347-0.193 0.527-0.291 0.065 0 0.097 0 0.113-0.008a4.002 4.002 0 0 0 0.3-0.163c-0.024-0.008-0.08-0.04-0.08-0.04a1 1 0 0 0 0.154-0.04c0.193-0.23 0.46-0.383 0.664-0.56 0.089-0.008 0.089-0.032 0.089-0.048 0.032-0.041 0.064-0.09 0.105-0.122 0.177-0.163 0.371-0.3 0.533-0.47q0.354-0.355 0.674-0.733c0.194-0.227 0.39-0.454 0.55-0.705 0.228-0.35 0.422-0.706 0.625-1.072 0.146-0.26 0.275-0.52 0.423-0.779 0.015-0.025 0.048-0.057 0.072-0.057 0.22-0.025 0.438-0.04 0.65-0.065 0.047-0.008 0.104-0.04 0.152-0.065-0.024-0.04-0.04-0.09-0.064-0.13-0.033-0.05-0.08-0.09-0.114-0.138-0.032-0.04-0.056-0.09-0.08-0.138-0.025-0.04-0.05-0.072-0.074-0.114a3.001 3.001 0 0 1-0.138-0.275c-0.008-0.024-0.025-0.065-0.016-0.09 0.146-0.315 0.202-0.656 0.34-0.973 0.138-0.325 0.18-0.69 0.243-1.04 0.057-0.331 0.09-0.664 0.13-0.998 0.024-0.235 0.057-0.462 0.064-0.697 0.05-0.373 0.033-0.723 0.025-1.072-0.008-0.308-0.025-0.624-0.04-0.934-0.017-0.317-0.025-0.633-0.058-0.95-0.056-0.43-0.113-0.868-0.21-1.291a7.003 7.003 0 0 0-0.316-1.014c-0.154-0.39-0.308-0.787-0.503-1.161-0.316-0.6-0.73-1.137-1.111-1.697-0.252-0.357-0.576-0.65-0.82-1.014-0.135-0.21-0.34-0.39-0.542-0.551a14.007 14.007 0 0 0-1.004-0.723 10.005 10.005 0 0 0-0.794-0.504c-0.22-0.122-0.454-0.22-0.681-0.325-0.26-0.12-0.511-0.268-0.803-0.324-0.073-0.016-0.138-0.04-0.21-0.065-0.187-0.065-0.365-0.138-0.553-0.196-0.283-0.089-0.56-0.194-0.85-0.267a8.004 8.004 0 0 0-0.87-0.163c-0.323-0.047-0.655-0.064-0.981-0.096a8.004 8.004 0 0 0-0.623-0.056c-0.307-0.018-0.623-0.018-0.931-0.025-0.154-0.008-0.316-0.024-0.47-0.016Zm0.695 0.941q0.156 0.027 0.3 0.041l0.389 0.025c0.292 0.023 0.583 0.04 0.875 0.08 0.243 0.033 0.486 0.081 0.738 0.122a10.405 10.405 0 0 1 1.572 0.405c0.3 0.098 0.59 0.228 0.885 0.35 0.656 0.267 1.281 0.592 1.896 0.933 0.194 0.106 0.308 0.276 0.454 0.43 0.21 0.22 0.42 0.438 0.624 0.665 0.234 0.268 0.453 0.544 0.681 0.82 0.201 0.243 0.412 0.486 0.615 0.731 0.065 0.073 0.114 0.163 0.17 0.244 0.13 0.194 0.275 0.38 0.39 0.592 0.08 0.154 0.13 0.333 0.185 0.503 0.08 0.252 0.162 0.495 0.243 0.747 0.056 0.187 0.104 0.382 0.145 0.576 0.033 0.13 0.025 0.268 0.065 0.397 0.05 0.17 0 0.358 0.05 0.528 0.007 0.017 0.015 0.04 0.023 0.057 0.033 0.032 0.057 0.065 0.008 0.115-0.008 0.008-0.008 0.04 0 0.064 0.017-0.016 0.025-0.032 0.04-0.057 0 0.017 0.01 0.025 0.01 0.033 0 0.032-0.01 0.065 0 0.097 0 0.016 0.015 0.04 0.023 0.057 0.016-0.017 0.032-0.025 0.064-0.05 0.073 0.276 0.082 0.552 0.083 0.836 0 0.268 0.048 0.536-0.065 0.795 0.024-0.09-0.033-0.17-0.008-0.252l0.003 0.002c-0.008 0-0.056-0.05-0.065-0.057-0.01 0.025 0 0.05-0.017 0.08-0.008-0.023-0.064-0.014-0.064-0.04-0.01 0.115 0.048 0.228 0.04 0.34 0.024-0.014 0.12-0.023 0.147-0.047a0.1 0.1 0 0 0 0.032 0.016c-0.162 0.122-0.12 0.244-0.048 0.383 0.016 0.032 0.064 0.097 0.016 0.162-0.016 0.016 0.008 0.065 0.016 0.106h0.024v0.015l-0.073 0.025c-0.016-0.025-0.113-0.073-0.114-0.114v0.414c0.08 0.025 0.08 0.138 0.114 0.195a0.2 0.2 0 0 0 0.033-0.064l0.008 0.008q-0.01 0.072-0.032 0.146c-0.016 0.072-0.033 0.137-0.041 0.21 0 0.008 0.015 0.025 0.016 0.033-0.09 0.203-0.04 0.43-0.073 0.64-0.025 0.154 0 0.317-0.017 0.481a4.002 4.002 0 0 1-0.08 0.42c-0.009 0.025-0.026 0.033-0.066 0.05a0.7 0.7 0 0 0-0.008-0.252c-0.008 0-0.114-0.057-0.122-0.057 0 0.114 0.065 0.268 0.09 0.398-0.025-0.008-0.122-0.065-0.13-0.065-0.017 0.097-0.017 0.227-0.025 0.332-0.008 0.082-0.08 0.154-0.09 0.244 0 0.05 0.058 0.08 0.05 0.162h0.064c0-0.162 0.074-0.308 0.074-0.478h0.023c0.01 0.016 0.033 0.032 0.025 0.04-0.016 0.09-0.05 0.187-0.04 0.276 0 0.05 0.04 0.097 0.024 0.154a1 1 0 0 0-0.033 0.17c-0.008-0.04-0.016-0.056-0.016-0.08l-0.09-0.008c-0.007 0.05 0.058 0.097 0.05 0.138-0.01 0.008-0.017 0.008-0.033 0.016l-0.267-0.39a82.039 82.039 0 0 1-0.632-0.932 2.001 2.001 0 0 1-0.147-0.244q-0.372-0.645-0.834-1.241c-0.235-0.3-0.422-0.626-0.64-0.94-0.203-0.302-0.405-0.594-0.608-0.896-0.073-0.097-0.162-0.186-0.227-0.292-0.21-0.332-0.397-0.673-0.608-1.006-0.178-0.276-0.372-0.544-0.56-0.811q-0.097-0.137-0.194-0.286a0.1 0.1 0 0 1-0.016-0.055 12.006 12.006 0 0 1-0.04-0.528c0-0.162 0.016-0.324 0.016-0.495V6.958c0-0.04 0.008-0.073 0.008-0.113 0.008-0.008 0.016-0.025 0.024-0.033-0.235 0-0.478-0.01-0.713 0-0.154 0.008-0.235-0.057-0.34-0.17-0.308-0.35-0.535-0.747-0.803-1.12a50.023 50.023 0 0 0-0.77-1.056c-0.211-0.284-0.422-0.56-0.632-0.844-0.236-0.324-0.462-0.65-0.706-0.974q-0.44-0.585-0.892-1.168c-0.138-0.179-0.292-0.35-0.446-0.536m-0.753 0.426q0.026 0.005 0.05 0.038c0.218 0.276 0.437 0.56 0.656 0.835 0.163 0.204 0.325 0.398 0.48 0.611 0.185 0.26 0.364 0.52 0.55 0.778q0.316 0.448 0.624 0.908c0.308 0.455 0.6 0.91 0.908 1.364 0.227 0.333 0.454 0.658 0.672 0.99h-0.413c-0.38-0.008-0.77-0.04-1.151-0.024-0.52 0.025-1.046 0.08-1.564 0.122a23.011 23.011 0 0 1-1.977 0.064c-0.236 0-0.47 0.033-0.706 0.051-0.284 0.016-0.56 0.032-0.843 0.04-0.333 0.016-0.656 0.024-0.99 0.033-0.185 0.008-0.38 0-0.583 0V7.179c0.26-0.357 0.527-0.714 0.787-1.081 0.08-0.105 0.145-0.22 0.226-0.324 0.025-0.033 0.058-0.05 0.098-0.082l-0.008-0.015c0.032-0.04 0.064-0.074 0.08-0.106 0.042-0.065 0.066-0.138 0.099-0.21a0.1 0.1 0 0 1 0.032-0.033c0.114 0.057 0.114-0.064 0.154-0.105a6.003 6.003 0 0 0 0.21-0.252c0.05-0.064 0.098-0.12 0.139-0.195 0.007-0.025-0.017-0.065-0.025-0.098H9.549c0.024-0.016 0.049-0.04 0.073-0.056 0.008 0 0.008 0 0.016-0.008a5.002 5.002 0 0 1 0.146-0.21c0.097-0.13 0.202-0.26 0.315-0.374q-0.024 0.062-0.048 0.113c0.008 0 0.008 0.008 0.016 0.008 0.097-0.13 0.203-0.252 0.3-0.382q-0.012-0.014-0.025-0.016c-0.04 0.04-0.072 0.082-0.113 0.122q-0.012-0.014-0.025-0.016c0.082-0.106 0.163-0.21 0.243-0.333 0.017 0.025 0.033 0.057 0.066 0.122 0.033-0.08 0.065-0.138 0.09-0.195-0.025 0.025-0.057 0.05-0.081 0.074l-0.025-0.025 0.146-0.218c0.154-0.22 0.308-0.447 0.462-0.667 0.057-0.08 0.13-0.146 0.178-0.227 0.154-0.308 0.398-0.552 0.584-0.836 0.04-0.056 0.097-0.105 0.145-0.154q0.03-0.035 0.056-0.03z m-2.286 3.161c-0.048 0.033-0.09 0.057-0.137 0.09-0.01 0.008-0.017 0.008-0.01 0.008 0.01 0.04 0.01 0.073 0.017 0.13 0.057-0.082 0.097-0.147 0.146-0.21z m6.841 3.344c0.073 0 0.113 0.025 0.154 0.09q0.108 0.182 0.228 0.365c0.008 0.016 0.024 0.04 0.024 0.064 0 0.18 0 0.365 0.008 0.544 0.008 0.187 0.025 0.365 0.032 0.553 0 0.186-0.016 0.38-0.008 0.576 0.009 0.276 0.016 0.56 0.016 0.843h0.002v0.074c-0.008 0-0.016 0.008-0.032 0.008-0.033-0.114-0.065-0.236-0.106-0.35a2.701 2.701 0 0 0-0.317-0.68c-0.163-0.228-0.308-0.463-0.47-0.698-0.04-0.057-0.098-0.106-0.146-0.155-0.17-0.187-0.34-0.382-0.56-0.52a6.603 6.603 0 0 0-1.013-0.52 2.001 2.001 0 0 1-0.284-0.145h0.194L15.732 7.899c0.3-0.008 0.59-0.008 0.89-0.024m-6.085 0.212q0.088-0.003 0.178 0.008c-0.13 0.065-0.26 0.13-0.374 0.21-0.146 0.098-0.283 0.228-0.43 0.334a2.401 2.401 0 0 0-0.396 0.373c-0.154 0.186-0.324 0.348-0.487 0.528-0.113 0.13-0.243 0.252-0.34 0.39-0.137 0.178-0.26 0.372-0.391 0.575 0.042-0.77 0.09-1.534 0.058-2.313 0.382-0.016 0.746-0.04 1.121-0.056 0.29-0.017 0.59-0.025 0.88-0.04q0.09-0.008 0.181-0.01z m2.033 0.415c0.242 0.008 0.485 0.008 0.729 0.024 0.105 0.008 0.203 0.032 0.3 0.064 0.12 0.04 0.25 0.098 0.365 0.154q0.204 0.11 0.397 0.244c0.235 0.154 0.453 0.324 0.689 0.463 0.227 0.138 0.405 0.325 0.55 0.536 0.18 0.25 0.382 0.48 0.463 0.787l0.12 0.535c0.026 0.098 0.083 0.195 0.058 0.309-0.04 0.203-0.073 0.415-0.105 0.617a1 1 0 0 0-0.024 0.244c0.015 0.252-0.082 0.47-0.18 0.698-0.031 0.073-0.08 0.146-0.12 0.227a0.2 0.2 0 0 0 0.064 0.033l0.073-0.146c0.009 0 0.009 0 0.016 0.008-0.04 0.113-0.072 0.235-0.113 0.351-0.097 0.25-0.194 0.51-0.316 0.753-0.065 0.138-0.178 0.25-0.26 0.382-0.08 0.113-0.145 0.235-0.226 0.34-0.073 0.09-0.145 0.18-0.243 0.244a6.003 6.003 0 0 1-0.681 0.455c-0.146 0.09-0.316 0.138-0.478 0.178h0.002c-0.26 0.064-0.527 0.138-0.794 0.17-0.227 0.033-0.462 0.025-0.698 0.025a8.004 8.004 0 0 1-0.625-0.025c-0.235-0.024-0.47-0.05-0.696-0.154-0.195-0.09-0.398-0.17-0.592-0.268-0.196-0.097-0.39-0.21-0.536-0.391-0.105-0.13-0.251-0.234-0.38-0.348a0.38 0.38 0 0 0 0.17 0.235c-0.041 0.05-0.098 0.025-0.18-0.106-0.023 0.017-0.047 0.025-0.064 0.033 0.025-0.057 0.049-0.114 0.073-0.162-0.032-0.065-0.073-0.138-0.105-0.204a7.003 7.003 0 0 1-0.187-0.324c-0.016-0.024-0.016-0.048-0.032-0.073a2.001 2.001 0 0 1-0.114-0.146c-0.064-0.097-0.12-0.202-0.202-0.3 0 0.025 0.008 0.05 0.008 0.082-0.008 0-0.016 0.008-0.016 0.008l-0.17-0.414c-0.008 0-0.008 0-0.016 0.008l0.145 0.535c-0.008 0-0.016 0.01-0.024 0.01-0.024-0.034-0.048-0.066-0.065-0.106-0.016-0.066-0.065-0.066-0.105-0.04-0.025 0.015-0.041 0.072-0.033 0.096q0.088 0.207 0.187 0.414a1 1 0 0 0 0.057 0.138c0.008 0.016 0.032 0.032 0.032 0.056 0.033 0.065 0.057 0.13 0.098 0.187 0.073 0.097 0.154 0.195 0.227 0.292 0.072 0.097 0.137 0.203 0.2 0.3 0.009 0.016 0.034 0.016 0.04 0.025 0.043 0.12 0.18 0.21 0.277 0.163 0.025 0.186 0.227 0.25 0.308 0.43a4.002 4.002 0 0 1-0.235-0.106c-0.008 0.008-0.008 0.016-0.016 0.032 0.097 0.05 0.195 0.098 0.283 0.154 0.082 0.05 0.163 0.098 0.236 0.155 0.097 0.09 0.21 0.138 0.348 0.17a0.1 0.1 0 0 0-0.016-0.033c0.227 0.106 0.462 0.22 0.641 0.308-0.843 0.017-1.743 0.033-2.675 0.05 0-0.155-0.008-0.3-0.008-0.455 0-0.065 0.016-0.122 0.008-0.187-0.025-0.372-0.025-0.746-0.074-1.111a8.004 8.004 0 0 1-0.04-1.162c0.007-0.21-0.01-0.43-0.017-0.641 0-0.284 0-0.56 0.009-0.844 0-0.04 0.016-0.073 0.032-0.114h0.025c0.008 0.017 0 0.04 0.015 0.05 0.025 0.024 0.066 0.064 0.083 0.056 0.048-0.033 0.12-0.065 0.138-0.114a0.8 0.8 0 0 0 0.056-0.3c0-0.073 0.033-0.12 0.065-0.17 0.016-0.025 0.025-0.05 0.04-0.08-0.031-0.025-0.064-0.042-0.104-0.074 0.032-0.09 0.024-0.195 0.146-0.243 0.016-0.008 0.016-0.05 0.024-0.073 0.008-0.066 0.015-0.14 0.024-0.205 0.016 0.025 0.025 0.033 0.04 0.05q0.015-0.026 0.017-0.026c0-0.032-0.008-0.097 0-0.097 0.097-0.016 0.057-0.122 0.105-0.17 0.008-0.01-0.008-0.033-0.008-0.05 0-0.015 0-0.04 0.008-0.04 0.113-0.024 0.097-0.146 0.17-0.203 0.024-0.016 0.032-0.04 0.065-0.08 0.064 0.112-0.05 0.17-0.057 0.25 0.137-0.08 0.178-0.275 0.097-0.332a0.5 0.5 0 0 0 0.089-0.09c0.09-0.097 0.186-0.186 0.267-0.283 0.057-0.073 0.09-0.162 0.146-0.235 0.033-0.04 0.098-0.073 0.146-0.098 0.146-0.08 0.284-0.17 0.373-0.307q0.026-0.025 0.064-0.05c0.025-0.015 0.074-0.015 0.082-0.04 0.008-0.016-0.016-0.057-0.033-0.08 0.032-0.017 0.065-0.05 0.131-0.082-0.025 0.05-0.032 0.08-0.051 0.114l0.041 0.04c0.074-0.057 0.188-0.12 0.26-0.17 0-0.008-0.04-0.04-0.04-0.041-0.05 0.024-0.121 0.065-0.194 0.098 0.015-0.024 0.015-0.04 0.025-0.05 0.113-0.072 0.226-0.144 0.348-0.203 0.283-0.13 0.567-0.26 0.85-0.38 0.049-0.025 0.114-0.01 0.17-0.01 0.025 0 0.04 0 0.065-0.006 0.13-0.04 0.26-0.082 0.39-0.114a0.7 0.7 0 0 1 0.178-0.024m-0.316 0.12l-0.234 0.106c0 0.008-0.041 0.073-0.033 0.073 0.04-0.008 0.13-0.073 0.178-0.08 0.024 0 0.057 0.007 0.082 0.015 0-0.032 0-0.065 0.007-0.114m5.861 1.381c0.08 0.107 0.17 0.204 0.227 0.309 0.187 0.34 0.43 0.634 0.656 0.942 0.195 0.268 0.373 0.56 0.553 0.836 0.218 0.333 0.429 0.665 0.648 0.998 0.162 0.252 0.332 0.503 0.502 0.748q0.233 0.326 0.478 0.64c0.137 0.187 0.283 0.374 0.42 0.56q0.244 0.344 0.487 0.675c0.08 0.113 0.17 0.227 0.26 0.34 0.05 0.065 0.121 0.114 0.17 0.154a0.1 0.1 0 0 1-0.032-0.008q0.034 0.05 0.056 0.073c0.09 0.05 0.098 0.098 0.05 0.17v-0.001c-0.008 0.016-0.025 0.033-0.033 0.05-0.008-0.017-0.008-0.042-0.016-0.075-0.05 0.13-0.154 0.066-0.227 0.066-0.437 0.008-0.883 0.008-1.321 0.008-0.421 0-0.85 0-1.271 0.008-0.138 0-0.284 0.032-0.422 0.04a37.017 37.017 0 0 1-0.998 0.033c-0.024 0-0.048-0.04-0.09-0.073l-0.048 0.073c-0.008-0.016-0.024-0.032-0.04-0.056l-0.025 0.064h-0.024c-0.016-0.113-0.048-0.22-0.048-0.332 0-0.244 0.024-0.487 0.032-0.731 0.008-0.114 0-0.22 0-0.325l0.09 0.065a1 1 0 0 1 0.048-0.08s-0.016-0.008-0.033-0.025c0.016-0.008 0.033-0.025 0.033-0.033 0.008-0.024 0.024-0.05 0.024-0.065 0-0.057-0.016-0.105-0.024-0.153q0.012 0.002 0.024-0.008l0.048 0.243h0.025c-0.032-0.056 0.073-0.106-0.016-0.17-0.008-0.008 0.008-0.057 0.008-0.082-0.025-0.048-0.04-0.097-0.065-0.162 0.008-0.008 0.033-0.016 0.057-0.024q-0.046-0.026-0.081-0.04c0.08-0.073 0.08-0.114 0.008-0.195 0.016-0.008 0.032-0.008 0.032-0.015 0-0.074 0-0.147-0.016-0.22-0.016-0.081 0.025-0.178-0.097-0.227a0.2 0.2 0 0 0 0.032 0.065s-0.024 0.008-0.048 0.024c-0.105-0.097-0.04-0.228-0.065-0.373a1 1 0 0 1 0.138 0.05c-0.017-0.058-0.057-0.123-0.081-0.196h-0.033v-0.537c0 0.008 0.056 0.008 0.09 0.017 0-0.008 0.007-0.016 0.007-0.025l-0.09-0.105 0.017-0.016c-0.065-0.08-0.032-0.194-0.032-0.22v-0.567c0.08 0.082-0.04 0.187 0.08 0.235v-0.08h-0.008c-0.008-0.122-0.008-0.244-0.016-0.366h-0.016c-0.008 0.017-0.008 0.025-0.016 0.04h-0.016z m-13.656 0.665c-0.098 0.113-0.187 0.227-0.276 0.34 0.015 0.008 0.04 0.065 0.055 0.082 0.09-0.122 0.21-0.276 0.3-0.39-0.008-0.008-0.072-0.024-0.08-0.032m-0.544 0.398c-0.05 0.072-0.17 0.202-0.22 0.276 0.009 0.008 0.098-0.032 0.106-0.024 0.05-0.073 0.098-0.155 0.146-0.228q-0.022-0.013-0.032-0.024m0.17 0.12c-0.05 0.034-0.097 0.075-0.146 0.107 0.016 0.016 0.016 0.025 0.016 0.041-0.064-0.007-0.09 0.026-0.12 0.114-0.01 0.025-0.05 0.033-0.09 0.065-0.01 0.016-0.017 0.057-0.033 0.097l0.008 0.008a0.1 0.1 0 0 1-0.04 0.025c-0.05 0.048-0.106 0.09-0.154 0.138q-0.014 0.036-0.016 0.073c0.056-0.057 0.153-0.162 0.226-0.227l0.01 0.008c0.03-0.05 0.056-0.098 0.09-0.146 0.006 0.008 0.006 0.016 0.014 0.024-0.024 0.065-0.048 0.138-0.073 0.203-0.017 0.008-0.04 0.024-0.04 0.016-0.033 0.025-0.058 0.057-0.09 0.08l-0.146 0.098c-0.08 0.073-0.162 0.138-0.25 0.21-0.058 0.09-0.114 0.17-0.18 0.277 0.098-0.025 0.122 0.016 0.114 0.097 0.113 0.016 0.122-0.073 0.154-0.138 0.008-0.016 0.016-0.05 0.032-0.057 0.073-0.065 0.154-0.12 0.235-0.186 0.017-0.016 0.017-0.05 0.017-0.073 0-0.008-0.04-0.008-0.066-0.017 0.073-0.08 0.18-0.218 0.25-0.307 0.042-0.025 0.083-0.058 0.083-0.082-0.007-0.075 0.032-0.104 0.082-0.13-0.037 0.175-0.144 0.325-0.252 0.356 0.033 0.016 0.065 0.033 0.09 0.025s0.04-0.05 0.056-0.074l0.22-0.316 0.073-0.122-0.032-0.033c-0.033 0.058-0.065 0.107-0.099 0.164l-0.027-0.014 0.002-0.002c-0.032-0.025-0.04-0.05-0.04-0.057a0.3 0.3 0 0 1 0.04-0.074c0.017 0 0.04-0.008 0.04-0.008 0.034-0.056 0.034-0.097 0.067-0.147-0.008-0.008-0.016-0.008-0.026-0.016z m14.066 1h-0.002v0.006z m-0.002 0.006a0.2 0.2 0 0 0-0.007 0.067q-0.002-0.034 0.007-0.067m-0.007 0.147v0.008c0.008 0.008 0.009 0.008 0.016 0-0.008 0-0.008 0-0.016-0.007z m0 0.016c-0.024 0.008-0.05 0.008-0.081 0.017 0.04 0.015 0.079 0.023 0.08 0.04z m0 0.056v0.002z m-1.192 1.423c-0.016 0.925 0.09 1.834 0.21 2.751l-2.788 0.097a3.302 3.302 0 0 0 0.941-0.624 1 1 0 0 1 0.13-0.114c0.34-0.21 0.59-0.503 0.818-0.829 0.259-0.373 0.429-0.795 0.641-1.192a1 1 0 0 1 0.048-0.09m1.134 0.073l0.033 0.08c0.04-0.007 0.057-0.007 0.073-0.015q-0.002-0.012 0.008-0.024c-0.024-0.01-0.057-0.024-0.114-0.04z m0.024 0.074l-0.007 0.006c0.008 0 0.016 0.01 0.016 0.01l-0.008-0.01zM1.565 14.012a0.2 0.2 0 0 0-0.073 0.033c0.032 0.08 0.073 0.17 0.105 0.252a0.2 0.2 0 0 1 0.065-0.033c-0.033-0.08-0.065-0.17-0.097-0.252m-0.228 0.333c-0.024 0.04-0.048 0.08-0.04 0.113 0 0.024 0.04 0.05 0.065 0.073 0-0.008 0.008-0.016 0.016-0.023-0.016-0.057-0.024-0.106-0.04-0.163m21.667 0.008c0 0.016 0.008 0.04 0 0.057z m-21.245 0.18a0.3 0.3 0 0 0-0.073 0.03c0.065 0.139 0.13 0.285 0.194 0.423 0.01 0 0.073-0.032 0.073-0.032-0.065-0.14-0.105-0.293-0.194-0.422m-0.162 0.324c0 0.032-0.04 0.024-0.04 0.057-0.049 0-0.09-0.008-0.13-0.008-0.008 0.008 0.024 0.056 0.033 0.065h0.17c0-0.04-0.008-0.073-0.008-0.114z m7.457 0.316q0.133 0.205 0.276 0.398l-0.008 0.008c-0.017-0.008-0.041-0.017-0.057-0.033l-0.194-0.292a0.1 0.1 0 0 1-0.017-0.08m9.047 0.439c-0.008 0.097-0.016 0.17-0.016 0.243 0 0.016 0.016 0.048 0.024 0.048 0.016 0.01 0.049-0.008 0.065-0.015a0.06 0.06 0 0 0 0.016-0.032c-0.024-0.017-0.048-0.025-0.073-0.042 0.154-0.08 0-0.12-0.016-0.202m-14.121 4.592c0.088 0.099 0.177 0.196 0.267 0.302-0.048-0.025-0.105-0.04-0.13-0.073-0.056-0.065-0.104-0.138-0.161-0.203z m0.341 0.286c0.024 0.04 0.04 0.089 0.064 0.138-0.113-0.008-0.17-0.057-0.137-0.122 0.024-0.008 0.05-0.008 0.073-0.016m15.441 1.241c-0.065 0.015-0.114 0.024-0.154 0.04-0.016 0.033-0.033 0.057-0.05 0.09q0.013 0.001 0.026 0.015c0.049-0.05 0.105-0.09 0.178-0.145m-0.414 0.226c-0.09 0.057-0.186 0.113-0.276 0.171 0.008 0.008 0.008 0.017 0.017 0.025a0.8 0.8 0 0 0 0.292-0.146c-0.008-0.017-0.025-0.034-0.033-0.051m-3.972 1.543c-0.371 0.106-0.493 0.122-0.534 0.065 0.187-0.025 0.357-0.04 0.535-0.065m-0.551 0.073c0.008 0.016 0.008 0.032 0.016 0.048-0.05 0-0.081 0.017-0.123 0.025-0.113 0.024-0.235 0.04-0.348 0.057-0.04 0.008-0.09 0.05-0.105-0.025-0.017 0.008-0.033 0.008-0.05 0.017 0.04 0.12 0.139 0.024 0.22 0.072-0.18 0.025-0.348 0.04-0.52 0.065v-0.016c0.05-0.008 0.107-0.016 0.155-0.025v-0.024a2.001 2.001 0 0 0-0.243-0.016c-0.024 0-0.056 0.033-0.08 0.04a0.4 0.4 0 0 1-0.106 0.017c-0.138 0.008-0.275 0.008-0.405 0.016-0.008 0-0.025-0.008-0.033-0.008v-0.025c0.543-0.072 1.079-0.145 1.621-0.218z m-1.695 0.21v0.024a4.002 4.002 0 0 1-0.453 0.05v-0.025z"/></svg>