<svg fill="#FFDF18" role="img" viewBox="0 0 34 24" xmlns="http://www.w3.org/2000/svg"><title>Postmates</title><path d="M3.793 16.126l0.614-1.794-1.589 0.967-1.509-1.229 0.478 1.886-1.549 1.033 1.886 0.2 0.553 1.869 0.687-1.764 1.889 0.121z m7.414-3.646l-1.592 0.967-1.509-1.229 0.478 1.884-1.548 1.034 1.886 0.201 0.553 1.866 0.689-1.761 1.888 0.121-1.461-1.291z m-1.855 6.794l-1.591 0.967-1.508-1.231 0.477 1.886-1.547 1.034 1.885 0.201 0.554 1.869 0.687-1.764 1.89 0.121-1.461-1.29zM22.517 4.658l1.006 0.057a0.172 0.17 0 0 0 0.129-0.044l2.486-2.333a0.045 0.045 0 0 0-0.028-0.078l-0.978-0.056a0.264 0.264 0 0 0-0.195 0.07l-2.45 2.299a0.049 0.049 0 0 0 0.03 0.084z m10.547 4.717a4.33 4.327 0 0 0-6.951-0.478l-1.548-1.159c0.387-0.158 1.197-0.514 1.252-0.733 0.031-0.13-0.381-0.221-1.016-0.262l2.904-2.648a0.066 0.066 0 0 0 0.013-0.074l-0.739-1.391a0.056 0.056 0 0 0-0.088-0.014l-3.021 2.752c-0.902 0-2.509 0.119-2.972-0.172-0.738-0.465-0.824-1.148-1.096-1.393-0.272-0.246-0.58-0.275-0.645-0.483a0.021 0.021 0 0 1 0.015-0.027c0.142-0.036 0.936-0.26 1.117-0.81 0.18-0.553-0.189-1.302-0.251-1.419a0.025 0.025 0 0 1 0-0.028l0.844-0.736a0.025 0.025 0 0 0-0.018-0.042l-1.238 0.151a0.021 0.021 0 0 1-0.021 0c-0.066-0.087-0.559-0.676-1.566-0.264-1.176 0.475-0.96 1.492-0.959 1.492 0.156 1.052 0.522 1.26 1.117 1.603 0.017 0 0.024 0.028 0 0.038-0.383 0.318-4.239 3.484-7.801 4.718a0.07 0.07 0 0 0 0 0.13c1.031 0.447 4.123 0.205 5.037-0.324a0.022 0.022 0 0 1 0.035 0.025c-0.101 0.381-0.64 2.616 0.205 3.311l0.047 0.036-1.145 0.808a0.293 0.293 0 0 0 0.205 0.53l0.59-0.065a1.699 1.699 0 0 0 1.013-0.475l0.206-0.196 1.667 1.238-0.221 1.761a4.33 4.327 0 1 0 3.576 2.267l0.426-0.272a1.045 1.045 0 0 0 1.701-1.056l1.763-0.517a0.286 0.286 0 0 0 0.205-0.335l-0.011-0.057a0.289 0.289 0 0 0-0.283-0.229h-1.496a0.025 0.025 0 0 1-0.021-0.014l-0.45-1.016 0.894-5.255 1.444 1.072a4.33 4.327 0 1 0 7.297 0z m-12.005-3.112l2.04-0.035 0.268 0.504c-0.472 0.017-0.964 0.054-1.443 0.115-0.345 0.042-0.761-0.401-0.886-0.541a0.028 0.028 0 0 1 0.021-0.042z m-3.092 3.052c0.17-0.285 1.161-1.933 1.285-2.496a0.025 0.025 0 0 1 0.042-0.01c0.658 0.768 2.051 1.21 2.158 1.236a0.013 0.013 0 0 0 0.011 0l1.788-0.55 0.401 0.297-1.872 1.717a1.282 1.282 0 0 0-0.726-0.318c-1.076-0.137-2.759 0.106-3.065 0.153a0.022 0.022 0 0 1-0.009-0.029z m4.623 5.628a1.062 1.062 0 0 0-0.348 0.103l-1.278-0.978a0.021 0.021 0 0 1 0-0.026l0.64-1.324a0.022 0.022 0 0 1 0.042 0l1.05 1.648z m-2.713-1.432l-0.874-0.654 1.676-1.536z m0-2.267l-1.36 1.249-1.365-1.016a15.735 15.726 0 0 0 2.752-0.223z m-1.086 2.169l0.898 0.668-0.108 0.295a0.399 0.399 0 0 0 0.241 0.515l1.871 0.682 0.056 0.042a1.052 1.05 0 0 0-0.026 0.66l-0.412 0.269a4.316 4.313 0 0 0-2.681-1.7z m-0.291 2.321a3.436 3.433 0 0 1 2.046 1.292l-2.398 1.525z m1.148 6.257a3.436 3.436 0 1 1-1.725-6.327l-0.431 3.43a0.299 0.299 0 0 0 0.134 0.284 0.289 0.289 0 0 0 0.311 0l2.918-1.855a3.439 3.436 0 0 1-1.209 4.467z m2.557-11.237a0.014 0.014 0 0 1 0-0.014 1.856 1.855 0 0 0-0.088-0.724l1.582-1.443-0.684 4.016z m9.059 3.842a3.436 3.433 0 0 1-4.774-4.696l2.724 2.029a0.289 0.289 0 0 0 0.331 0.011 0.274 0.274 0 0 0 0.075-0.07 0.291 0.291 0 0 0-0.06-0.412l-2.728-2.026a3.331 3.33 0 0 1 0.735-0.618 3.436 3.436 0 1 1 3.693 5.792Z"/></svg>