<svg fill="#E74536" role="img" viewBox="0 0 39 24" xmlns="http://www.w3.org/2000/svg"><title>POWERS</title><path d="M19.999 12.559s-0.013 1.176-0.012 1.721c0 0.548 0.546 0.876 1.251 0.876v0.783h-4.813v-0.783c0.657 0 1.273-0.329 1.272-0.876v-4.307c0-0.878-0.838-0.897-1.272-0.958v-0.751h4.108c1.679 0 3.871-0.201 3.871 1.978 0 2.26-1.986 2.321-3.712 2.322z m-0.027-3.563v2.511h0.796c0.564 0 1.252-0.101 1.252-1.244 0-1.207-0.512-1.281-1.462-1.28-0.409 0-0.586 0.013-0.586 0.013zM19.5 0l19.331 12.002-19.331 11.998L0.169 12z m-13.927 12.002c4.453 2.76 11.878 7.37 13.927 8.641L33.425 12A11504.97 11504.97 0 0 0 19.5 3.359c-2.049 1.268-9.474 5.878-13.927 8.643Z"/></svg>