<svg fill="#0080FF" role="img" viewBox="0 0 40 24" xmlns="http://www.w3.org/2000/svg"><title>pr.co</title><path d="M20 0c3.071-0.004 6.142 1.172 8.485 3.515 1.68 1.676 2.625 3.584 3.107 5.378l2.932-2.931c1.172-1.172 3.071-1.172 4.242 0 1.172 1.171 1.172 3.071 0 4.242l-10.281 10.281c-2.343 2.343-5.414 3.515-8.485 3.515-3.071 0-6.142-1.171-8.486-3.515-1.546-1.545-2.581-3.408-3.107-5.377L5.476 18.039c-1.171 1.172-3.071 1.172-4.243 0-1.171-1.171-1.171-3.071 0-4.243 3.425-3.427 6.861-6.858 9.743-9.741 2.773-3.044 6.171-4.051 9.024-4.055z m4.243 7.757c-2.343-2.343-6.143-2.343-8.486 0-2.343 2.343-2.343 6.143 0 8.486 2.343 2.343 6.142 2.343 8.485 0 2.343-2.343 2.343-6.142 0.001-8.486z"/></svg>