<svg fill="#673AB8" role="img" viewBox="0 0 21 24" xmlns="http://www.w3.org/2000/svg"><title>Preact</title><path d="M10.501 10.406A1.594 1.594 0 0 0 8.907 12 1.594 1.594 0 0 0 10.501 13.594 1.594 1.594 0 0 0 12.095 12 1.594 1.594 0 0 0 10.501 10.406Zm5.499-4.33a2.998 2.998 0 0 1 0.643 0.054 1.668 1.668 0 0 1 0.48 0.172 1.085 1.085 0 0 1 0.29 0.235 1.032 1.032 0 0 1 0.185 0.315 1.454 1.454 0 0 1 0.084 0.452c0.007 0.195-0.015 0.398-0.058 0.603-0.054 0.261-0.14 0.521-0.244 0.778-0.137 0.334-0.304 0.66-0.49 0.978-0.245 0.417-0.52 0.818-0.817 1.207-0.145 0.191-0.3 0.376-0.455 0.561-0.22-0.238-0.443-0.472-0.673-0.7a23.61 23.61 0 0 0-2.05-1.797l-0.23 0.296 0.23-0.296-0.018-0.014-0.461 0.592 0.018 0.014a22.864 22.864 0 0 1 1.984 1.74c0.241 0.237 0.475 0.48 0.703 0.73-0.099 0.108-0.194 0.22-0.296 0.326-0.099 0.104-0.2 0.207-0.301 0.308l0.53 0.53c0.106-0.105 0.21-0.212 0.313-0.32 0.085-0.088 0.164-0.182 0.248-0.272 0.065 0.078 0.135 0.152 0.198 0.231a13.317 13.317 0 0 1 0.909 1.262c0.211 0.336 0.404 0.681 0.564 1.036a5.23 5.23 0 0 1 0.293 0.806 3.019 3.019 0 0 1 0.102 0.637c0.008 0.178-0.007 0.351-0.05 0.508-0.034 0.123-0.087 0.239-0.157 0.338h-0.001c-0.068 0.098-0.157 0.186-0.26 0.256-0.121 0.083-0.264 0.146-0.418 0.191-0.188 0.054-0.39 0.081-0.6 0.09-0.266 0.01-0.538-0.01-0.814-0.05-0.357-0.051-0.713-0.134-1.067-0.238-0.464-0.137-0.92-0.307-1.369-0.5h-0.001c-0.584-0.253-1.153-0.543-1.71-0.86L11.209 16.26c0.578-0.377 1.144-0.77 1.686-1.194l-0.21-0.27 0.211 0.27 0.018-0.015-0.463-0.59-0.017 0.014c-0.695 0.542-1.418 1.047-2.168 1.505A18.53 18.53 0 0 1 8.439 16.963C7.965 17.182 7.484 17.378 6.994 17.539A8.68 8.68 0 0 1 5.853 17.835C5.566 17.887 5.281 17.921 4.999 17.925 4.777 17.928 4.561 17.912 4.356 17.87 4.181 17.834 4.018 17.778 3.877 17.698 3.765 17.635 3.667 17.556 3.587 17.464 3.507 17.373 3.444 17.265 3.401 17.149 3.35 17.012 3.324 16.857 3.317 16.696a2.54 2.54 0 0 1 0.058-0.603c0.055-0.261 0.14-0.52 0.245-0.777a7.704 7.704 0 0 1 0.49-0.978 12.09 12.09 0 0 1 1.271-1.767c0.232 0.251 0.469 0.497 0.712 0.737a23.645 23.645 0 0 0 2.02 1.765l0.461-0.591A22.9 22.9 0 0 1 6.619 12.773C6.365 12.523 6.119 12.267 5.878 12.004 5.978 11.896 6.074 11.785 6.173 11.679 6.276 11.572 6.379 11.466 6.483 11.362l-0.53-0.53C5.845 10.94 5.739 11.05 5.632 11.16 5.547 11.249 5.467 11.343 5.385 11.433 5.329 11.367 5.27 11.305 5.215 11.238 4.886 10.832 4.577 10.411 4.3 9.975 4.085 9.637 3.891 9.292 3.728 8.935 3.603 8.66 3.495 8.38 3.42 8.097 3.364 7.882 3.326 7.669 3.318 7.46A1.67 1.67 0 0 1 3.369 6.953C3.402 6.829 3.455 6.714 3.526 6.614H3.526C3.595 6.516 3.684 6.428 3.786 6.358A1.446 1.446 0 0 1 4.205 6.168C4.393 6.113 4.595 6.086 4.804 6.078a4.545 4.545 0 0 1 0.814 0.048 7.708 7.708 0 0 1 1.067 0.24 12.092 12.092 0 0 1 1.369 0.5 17.248 17.248 0 0 1 1.736 0.874 24.003 24.003 0 0 0-1.694 1.202l0.462 0.59c0.683-0.534 1.393-1.031 2.13-1.484 0.594-0.363 1.203-0.697 1.83-0.99 0.474-0.222 0.956-0.42 1.448-0.583A8.816 8.816 0 0 1 15.112 6.172C15.411 6.116 15.708 6.08 15.999 6.076Zm-0.01-0.75l-0.001 0C15.643 5.331 15.304 5.373 14.975 5.434A9.546 9.546 0 0 0 13.729 5.763 14.202 14.202 0 0 0 12.2 6.379C11.618 6.651 11.055 6.961 10.505 7.289 10.383 7.216 10.261 7.144 10.138 7.074 9.561 6.745 8.966 6.442 8.353 6.177 7.881 5.974 7.397 5.792 6.897 5.646 6.517 5.534 6.125 5.442 5.725 5.384 5.417 5.34 5.099 5.316 4.776 5.329 4.521 5.339 4.26 5.372 3.999 5.446 3.781 5.51 3.563 5.602 3.364 5.74A1.774 1.774 0 0 0 2.646 6.754C2.579 7.001 2.559 7.251 2.569 7.491a3.728 3.728 0 0 0 0.127 0.798 6.016 6.016 0 0 0 0.351 0.959 9.548 9.548 0 0 0 0.62 1.128 14.203 14.203 0 0 0 0.967 1.335c0.08 0.098 0.166 0.19 0.248 0.286C4.693 12.219 4.507 12.443 4.33 12.676 4.019 13.084 3.726 13.51 3.463 13.958A8.44 8.44 0 0 0 2.925 15.033 5.28 5.28 0 0 0 2.643 15.941C2.59 16.19 2.559 16.453 2.569 16.723a2.182 2.182 0 0 0 0.13 0.688v0.001a1.775 1.775 0 0 0 0.81 0.94 2.403 2.403 0 0 0 0.697 0.253 3.699 3.699 0 0 0 0.805 0.07 5.97 5.97 0 0 0 0.977-0.102l0.001-0.001a9.412 9.412 0 0 0 1.24-0.32c0.523-0.173 1.031-0.38 1.526-0.61 0.599-0.278 1.178-0.593 1.742-0.93 0.121 0.072 0.243 0.144 0.366 0.214a17.99 17.99 0 0 0 1.785 0.898 12.832 12.832 0 0 0 1.455 0.53c0.38 0.112 0.772 0.204 1.172 0.262a5.284 5.284 0 0 0 0.95 0.056c0.254-0.01 0.516-0.044 0.776-0.118 0.218-0.063 0.436-0.156 0.636-0.294a1.775 1.775 0 0 0 0.717-1.014c0.068-0.248 0.087-0.497 0.077-0.736-0.011-0.277-0.06-0.544-0.127-0.799-0.085-0.322-0.202-0.629-0.335-0.923-0.178-0.393-0.387-0.767-0.612-1.127-0.294-0.466-0.618-0.908-0.959-1.333-0.09-0.111-0.188-0.216-0.28-0.324 0.189-0.222 0.374-0.447 0.552-0.679 0.311-0.409 0.604-0.835 0.867-1.283A8.441 8.441 0 0 0 18.075 8.967 5.277 5.277 0 0 0 18.358 8.06C18.412 7.81 18.441 7.547 18.431 7.277 18.424 7.051 18.386 6.817 18.301 6.589V6.588a1.775 1.775 0 0 0-0.81-0.94C17.267 5.522 17.029 5.444 16.794 5.396A3.7 3.7 0 0 0 15.99 5.326ZM10.501 0L20.892 6V18L10.501 24 0.107 18V6Z"/></svg>