<svg fill="#5A87C6" role="img" viewBox="0 0 24 24" xmlns="http://www.w3.org/2000/svg"><title>PrepBytes</title><path d="M12 0C5.427 0 0.1 5.372 0.102 12c0 6.628 5.327 12 11.898 12s11.898-5.374 11.898-12c0-6.628-5.327-12-11.898-12z m1.408 7.16h1.127v3.914l0.268-0.185a3.565 3.565 0 0 1 2.252-0.7c0.009 0 0.02 0.002 0.029 0.002 1.924 0.105 3.4 1.75 3.297 3.674-0.215 3.539-5.069 4.585-6.625 1.395-0.376-0.776-0.348-0.484-0.375-4.506l0.027-3.594z m-4.732 0.133a3.426 3.426 0 0 1 2.131 0.754c1.508 1.177 1.794 3.348 0.638 4.873-1.167 1.541-3.362 1.845-4.902 0.678-0.08-0.053-0.19-0.107-0.27-0.161-0.027 0-0.027 0.856-0.027 1.93v1.93H5.119v-3.19c0-3.861 0.001-4.077 0.377-4.828A3.606 3.606 0 0 1 7.91 7.375c0.254-0.057 0.51-0.083 0.766-0.082z m-0.069 1.103c-1.054-0.006-1.979 0.697-2.253 1.715-0.334 1.236 0.399 2.51 1.636 2.844 1.236 0.334 2.508-0.399 2.842-1.637 0.334-1.236-0.397-2.508-1.635-2.841a2.21 2.21 0 0 0-0.59-0.081z m8.42 2.897c-1.123-0.069-2.142 0.659-2.439 1.744-0.347 1.266 0.398 2.575 1.664 2.922 1.266 0.347 2.575-0.398 2.922-1.664 0.347-1.266-0.398-2.575-1.664-2.922a1.48 1.48 0 0 0-0.483-0.08z"/></svg>