<svg fill="#5890FF" role="img" viewBox="0 0 24 24" xmlns="http://www.w3.org/2000/svg"><title>Presto</title><path d="M1.372 0C0.618 0 0.001 0.618 0.001 1.372v21.256C0.001 23.383 0.618 24 1.372 24h21.256c0.754 0 1.371-0.618 1.371-1.372V1.372c0-0.754-0.617-1.372-1.371-1.372z m11.959 4.485a0.854 0.854 0 0 1 0.032 0 0.854 0.854 0 0 1 0.854 0.854 0.854 0.854 0 0 1-0.854 0.854 0.854 0.854 0 0 1-0.854-0.854 0.854 0.854 0 0 1 0.822-0.854z m-4.446 0.094a0.759 0.759 0 0 1 0.007 0 0.759 0.759 0 0 1 0.76 0.76 0.759 0.759 0 0 1-0.76 0.759 0.759 0.759 0 0 1-0.759-0.759 0.759 0.759 0 0 1 0.752-0.76z m-4.463 0.095a0.664 0.664 0 0 1 0.664 0.665 0.664 0.664 0 0 1-0.664 0.664 0.664 0.664 0 0 1-0.665-0.664 0.664 0.664 0 0 1 0.665-0.665z m11.176 1.951a0.949 0.949 0 0 1 0.949 0.949 0.949 0.949 0 0 1-0.949 0.948 0.949 0.949 0 0 1-0.949-0.948 0.949 0.949 0 0 1 0.949-0.949z m-4.502 0.094a0.855 0.855 0 0 1 0.032 0 0.855 0.855 0 0 1 0.855 0.854 0.855 0.855 0 0 1-0.855 0.855 0.855 0.855 0 0 1-0.855-0.855 0.855 0.855 0 0 1 0.823-0.854z m-4.446 0.095a0.759 0.759 0 0 1 0.007 0 0.759 0.759 0 0 1 0.76 0.759 0.759 0.759 0 0 1-0.76 0.76 0.759 0.759 0 0 1-0.759-0.76 0.759 0.759 0 0 1 0.752-0.759z m11.167 1.951a1.044 1.044 0 0 1 0.018 0 1.044 1.044 0 0 1 1.043 1.044 1.044 1.044 0 0 1-1.043 1.044 1.044 1.044 0 0 1-1.044-1.044 1.044 1.044 0 0 1 1.026-1.043z m-4.454 0.095a0.949 0.949 0 0 1 0.949 0.949 0.949 0.949 0 0 1-0.949 0.949 0.949 0.949 0 0 1-0.949-0.948 0.949 0.949 0 0 1 0.949-0.949z m-4.471 0.095a0.854 0.854 0 0 1 0.855 0.854 0.854 0.854 0 0 1-0.855 0.854 0.854 0.854 0 0 1-0.854-0.854 0.854 0.854 0 0 1 0.854-0.854zM20.069 10.906a1.139 1.139 0 0 1 1.139 1.139 1.139 1.139 0 0 1-1.139 1.138 1.139 1.139 0 0 1-1.139-1.138 1.139 1.139 0 0 1 1.139-1.139z m-4.47 0.095a1.044 1.044 0 0 1 1.043 1.044 1.044 1.044 0 0 1-1.043 1.043 1.044 1.044 0 0 1-1.044-1.043 1.044 1.044 0 0 1 1.044-1.044z m-4.471 0.094a0.949 0.949 0 0 1 0.95 0.949 0.949 0.949 0 0 1-0.95 0.949 0.949 0.949 0 0 1-0.949-0.949 0.949 0.949 0 0 1 0.949-0.949z m6.706 2.046a1.139 1.139 0 0 1 1.139 1.139 1.139 1.139 0 0 1-1.139 1.138 1.139 1.139 0 0 1-1.139-1.138 1.139 1.139 0 0 1 1.139-1.139z m-4.489 0.095a1.044 1.044 0 0 1 0.018 0 1.044 1.044 0 0 1 1.044 1.043 1.044 1.044 0 0 1-1.044 1.044 1.044 1.044 0 0 1-1.044-1.044 1.044 1.044 0 0 1 1.026-1.043z m-4.46 0.284a0.759 0.759 0 0 1 0.007 0 0.759 0.759 0 0 1 0.76 0.759 0.759 0.759 0 0 1-0.76 0.76 0.759 0.759 0 0 1-0.759-0.76 0.759 0.759 0 0 1 0.752-0.759z m6.68 1.857a1.139 1.139 0 0 1 0.033 0 1.139 1.139 0 0 1 1.139 1.138 1.139 1.139 0 0 1-1.139 1.139 1.139 1.139 0 0 1-1.139-1.139 1.139 1.139 0 0 1 1.106-1.138z m-8.915 0.379a0.759 0.759 0 0 1 0.007 0 0.759 0.759 0 0 1 0.76 0.759 0.759 0.759 0 0 1-0.76 0.76 0.759 0.759 0 0 1-0.759-0.76 0.759 0.759 0 0 1 0.752-0.759z m4.471 0a0.759 0.759 0 0 1 0.007 0 0.759 0.759 0 0 1 0.76 0.759 0.759 0.759 0 0 1-0.76 0.76 0.759 0.759 0 0 1-0.759-0.76 0.759 0.759 0 0 1 0.752-0.759zM4.416 17.99a0.759 0.759 0 0 1 0.007 0 0.759 0.759 0 0 1 0.76 0.76 0.759 0.759 0 0 1-0.76 0.759 0.759 0.759 0 0 1-0.76-0.759 0.759 0.759 0 0 1 0.753-0.76z m4.469 0.001a0.759 0.759 0 0 1 0.007 0 0.759 0.759 0 0 1 0.76 0.759 0.759 0.759 0 0 1-0.76 0.76 0.759 0.759 0 0 1-0.759-0.76 0.759 0.759 0 0 1 0.752-0.759z m4.478 0.001a0.759 0.759 0 0 1 0.538 0.222c0.295 0.296 0.295 0.777 0 1.073a0.76 0.76 0 0 1-1.075 0c-0.296-0.296-0.296-0.777 0-1.073a0.756 0.756 0 0 1 0.537-0.222Z"/></svg>