<svg fill="#F7B93E" role="img" viewBox="0 0 21 24" xmlns="http://www.w3.org/2000/svg"><title>Prettier</title><path d="M7.071 23.429A0.571 0.571 0 0 1 6.5 24H0.786a0.571 0.571 0 0 1 0-1.143H6.5c0.316 0 0.571 0.256 0.571 0.572zM6.5 20.57H5.357a0.571 0.571 0 0 0 0 1.143H6.5a0.571 0.571 0 0 0 0-1.143z m-5.714 1.143H3.07a0.571 0.571 0 0 0 0-1.143H0.786a0.571 0.571 0 0 0 0 1.143zM6.5 18.286H0.786a0.571 0.571 0 0 0 0 1.143H6.5a0.571 0.571 0 0 0 0-1.143zM14.5 16H4.214a0.571 0.571 0 0 0 0 1.143H14.5A0.571 0.571 0 0 0 14.5 16zM0.786 17.143h1.143a0.571 0.571 0 0 0 0-1.143H0.786a0.571 0.571 0 0 0 0 1.143z m17.143-3.429H14.5a0.571 0.571 0 0 0 0 1.143h3.429a0.571 0.571 0 0 0 0-1.143zM7.643 14.857h4.571a0.571 0.571 0 0 0 0-1.143H7.643a0.571 0.571 0 0 0 0 1.143z m-6.857 0h4.571a0.571 0.571 0 0 0 0-1.143H0.786a0.571 0.571 0 0 0 0 1.143zM19.07 11.43H9.93a0.571 0.571 0 0 0 0 1.142h9.142a0.571 0.571 0 0 0 0-1.142zM8.214 12a0.571 0.571 0 0 0-0.571-0.571H4.214a0.571 0.571 0 0 0 0 1.142h3.429A0.571 0.571 0 0 0 8.214 12z m-7.428 0.571h1.143a0.571 0.571 0 0 0 0-1.142H0.786a0.571 0.571 0 0 0 0 1.142z m19.428-3.428H14.5a0.571 0.571 0 0 0 0 1.143h5.714a0.571 0.571 0 0 0 0-1.143zM0.786 10.286H6.5a0.571 0.571 0 0 0 0-1.143H0.786a0.571 0.571 0 0 0 0 1.143z m13.143-2.857c0 0.315 0.255 0.571 0.571 0.571h5.714a0.571 0.571 0 0 0 0-1.143H14.5a0.571 0.571 0 0 0-0.571 0.572z m-8.572-0.572a0.571 0.571 0 0 0 0 1.143H6.5a0.571 0.571 0 0 0 0-1.143H5.357zM0.786 8H3.07a0.571 0.571 0 0 0 0-1.143H0.786a0.571 0.571 0 0 0 0 1.143z m16.571-2.857c0 0.315 0.256 0.571 0.572 0.571h1.142a0.571 0.571 0 0 0 0-1.143H17.93a0.571 0.571 0 0 0-0.572 0.572z m-1.143 0a0.571 0.571 0 0 0-0.571-0.572H11.07a0.571 0.571 0 0 0 0 1.143h4.572a0.571 0.571 0 0 0 0.571-0.571z m-15.428 0.571h8a0.571 0.571 0 0 0 0-1.143h-8a0.571 0.571 0 0 0 0 1.143z m5.143-2.857c0 0.316 0.255 0.572 0.571 0.572h11.429a0.571 0.571 0 0 0 0-1.143H6.5a0.571 0.571 0 0 0-0.571 0.571z m-5.143 0.572h3.428a0.571 0.571 0 0 0 0-1.143H0.786a0.571 0.571 0 0 0 0 1.143z m0-2.286H14.5A0.571 0.571 0 0 0 14.5 0H0.786a0.571 0.571 0 0 0 0 1.143z"/></svg>