<svg fill="#44C1C5" role="img" viewBox="0 0 125 24" xmlns="http://www.w3.org/2000/svg"><title>Prevention</title><path d="M124.533 23.617h-3.673v-9.781c0-1.914-1.091-2.664-2.627-2.664-1.691 0-3.259 1.122-3.259 3.973v8.472h-3.564v-15.595h3.559v2.287h0.078c0.859-1.541 2.472-2.814 4.572-2.814 2.922 0 4.95 1.614 4.95 5.141z m-14.25-7.872c0 5.1-3.455 8.25-7.723 8.25-4.272 0-7.65-3-7.65-8.209 0-5.25 3.414-8.286 7.65-8.286 4.241 0 7.722 3.109 7.723 8.245z m-3.75 0.041c0-3.259-1.572-5.064-3.973-5.064s-3.972 1.878-3.972 5.023c0 3.078 1.572 5.028 3.972 5.027s3.972-1.914 3.973-4.991z m-11.809-11.058a2.084 2.084 0 0 1-2.136 1.986 2.048 2.048 0 0 1-1.991-1.986 2.084 2.084 0 0 1 1.991-2.142 2.079 2.079 0 0 1 2.136 1.986z m-3.931 3.517h3.745v15.75h-3.75z m-0.755 14.741c-0.936 0.595-1.722 1.003-3.75 1.004-2.85 0-4.422-1.645-4.422-5.473v-7.303h-1.95v-3.042h1.95v-3.858l3.9-1.692v5.55h3.972v3.078h-3.972v6.9c0 1.795 0.414 2.509 1.458 2.509a3.724 3.724 0 0 0 1.8-0.487z m-10.872 0.631h-3.673v-9.781c0-1.914-1.086-2.664-2.627-2.664-1.686 0-3.222 1.122-3.223 3.973v8.472h-3.6v-15.595h3.559v2.287h0.077c0.864-1.541 2.478-2.814 4.568-2.814 2.928 0 4.96 1.614 4.96 5.141z m-24.632-9.414c0.414-2.431 2.131-3.445 3.787-3.444 2.172 0 3.414 1.541 3.45 3.455z m3.373-6.703c-4.536 0-7.236 3.372-7.236 8.245 0 5.028 3.222 8.25 7.836 8.25 3 0 4.536-0.414 5.886-1.423l-1.05-3c-1.169 0.709-2.472 1.128-4.572 1.128-2.778 0-4.164-2.033-4.273-3.724h10.795c0.186-5.503-1.464-9.476-7.381-9.476z m-21.109 0.75h4.195l3.569 10.722 3.414-10.722h3.822L46.357 24h-4.159z m1.128 8.7H27.121c0.114 1.681 1.5 3.709 4.277 3.709 2.095 0 3.409-0.378 4.568-1.123l1.05 3c-1.381 1.009-2.922 1.422-5.887 1.423-4.609 0.036-7.831-3.15-7.831-8.214 0-4.914 2.695-8.245 7.231-8.245 5.928 0 7.578 3.972 7.387 9.45z m-3.528-2.741c-0.036-1.914-1.278-3.414-3.455-3.414-1.645 0-3.362 1.014-3.776 3.414z m-9.972-6.378l-0.792 3.641a4.252 4.252 0 0 0-1.344-0.222c-3.114 0-3.191 2.917-3.192 3.786v8.586H15.431V8.017h3.636v2.405h0.078c0.709-1.841 1.872-2.897 3.6-2.896a3.75 3.75 0 0 1 1.686 0.3z m-9.75 0.569c0 6.486-4.645 8.4-10.123 8.4v6.817H0.431V0.522a40.733 40.733 0 0 1 5.664-0.522c4.645 0 8.586 2.095 8.586 8.395z m-4.159 0c0-3.636-1.986-4.872-4.572-4.872-0.414 0-0.864 0.103-1.345 0.144v9.528c3.103 0.145 5.917-0.905 5.917-4.805z"/></svg>