<svg fill="#00A8E1" role="img" viewBox="0 0 39 24" xmlns="http://www.w3.org/2000/svg"><title>Prime</title><path d="M36.736 17.26c-0.537-0.687-3.55-0.326-4.904-0.164-0.411 0.05-0.473-0.308-0.103-0.569 2.403-1.687 6.34-1.198 6.799-0.635 0.46 0.57-0.121 4.517-2.373 6.403-0.347 0.288-0.676 0.134-0.523-0.248 0.507-1.266 1.641-4.1 1.103-4.787m-1.747 1.994c-4.198 3.1-10.285 4.746-15.526 4.746-7.345 0-13.961-2.716-18.967-7.235-0.393-0.355-0.042-0.839 0.431-0.564 5.401 3.143 12.078 5.035 18.977 5.035a37.758 37.758 0 0 0 14.476-2.963c0.709-0.3 1.304 0.468 0.609 0.981m0.77-8.05c-1.216 0-2.151-0.334-2.804-1-0.654-0.668-0.979-1.625-0.979-2.871 0-1.277 0.334-2.277 1.002-3.004 0.668-0.725 1.595-1.09 2.781-1.09 0.914 0 1.628 0.221 2.143 0.663 0.516 0.441 0.773 1.031 0.774 1.766 0 0.737-0.278 1.294-0.831 1.671-0.556 0.379-1.374 0.567-2.453 0.567-0.559 0-1.045-0.054-1.457-0.161 0.059 0.657 0.257 1.128 0.596 1.412 0.339 0.284 0.852 0.428 1.538 0.429 0.275 0 0.543-0.018 0.803-0.053a9.92 9.92 0 0 0 1.171-0.251 0.486 0.486 0 0 1 0.073-0.006c0.166 0 0.249 0.112 0.25 0.338v0.678c0 0.157-0.021 0.267-0.064 0.331a0.545 0.545 0 0 1-0.259 0.169 6.318 6.318 0 0 1-2.284 0.412m-0.485-4.622c0.502 0 0.864-0.077 1.089-0.229 0.227-0.152 0.339-0.385 0.339-0.7 0-0.618-0.368-0.927-1.102-0.927-0.943 0-1.488 0.578-1.637 1.737 0.393 0.08 0.831 0.118 1.311 0.119m-15.723 4.402c-0.128 0-0.222-0.029-0.282-0.088-0.058-0.059-0.088-0.153-0.087-0.28V3.828c0-0.137 0.03-0.233 0.087-0.287 0.059-0.054 0.153-0.08 0.282-0.08h1.059c0.225 0 0.363 0.107 0.412 0.323l0.119 0.398c0.519-0.344 0.989-0.586 1.406-0.729 0.415-0.144 0.847-0.214 1.288-0.214 0.884 0 1.507 0.315 1.869 0.943a6.024 6.024 0 0 1 1.414-0.723c0.441-0.147 0.898-0.221 1.37-0.22 0.687 0 1.219 0.192 1.597 0.575 0.377 0.382 0.566 0.917 0.566 1.604v5.198c0 0.128-0.027 0.221-0.08 0.28-0.054 0.059-0.15 0.088-0.287 0.088h-1.415c-0.128 0-0.221-0.029-0.279-0.088-0.059-0.059-0.088-0.153-0.088-0.28V5.89c0-0.668-0.3-1.002-0.898-1.002-0.53 0-1.066 0.128-1.606 0.383v5.345c0 0.128-0.027 0.221-0.08 0.28-0.054 0.059-0.15 0.088-0.287 0.088h-1.413c-0.128 0-0.222-0.029-0.281-0.088-0.058-0.059-0.088-0.153-0.088-0.28V5.89c0-0.668-0.299-1.002-0.898-1.002-0.55 0-1.09 0.133-1.619 0.398v5.33c0 0.128-0.027 0.221-0.081 0.28-0.054 0.059-0.15 0.088-0.288 0.088zM16.284 2.296c-0.374 0-0.671-0.102-0.898-0.308-0.227-0.206-0.339-0.486-0.339-0.839 0-0.353 0.112-0.634 0.339-0.841 0.225-0.206 0.524-0.308 0.898-0.308 0.372 0 0.671 0.102 0.898 0.308a1.08 1.08 0 0 1 0.338 0.841c0 0.352-0.112 0.633-0.338 0.839-0.225 0.206-0.526 0.308-0.898 0.308m-0.708 8.688c-0.128 0-0.221-0.03-0.28-0.088-0.059-0.059-0.088-0.153-0.088-0.281V3.828c0-0.137 0.029-0.233 0.088-0.287 0.059-0.054 0.153-0.08 0.28-0.08h1.414c0.137 0 0.233 0.026 0.287 0.08s0.08 0.15 0.08 0.287v6.787c0 0.128-0.027 0.222-0.08 0.281-0.054 0.058-0.15 0.088-0.287 0.088z m-5.882 0c-0.128 0-0.222-0.029-0.281-0.088-0.058-0.059-0.088-0.153-0.088-0.28V3.828c0-0.137 0.03-0.233 0.088-0.287 0.059-0.054 0.153-0.08 0.281-0.08h1.059c0.225 0 0.363 0.107 0.413 0.323l0.191 0.794c0.391-0.431 0.762-0.738 1.111-0.919 0.35-0.182 0.719-0.272 1.112-0.272h0.208c0.136 0 0.235 0.026 0.292 0.08 0.059 0.054 0.089 0.15 0.09 0.288v1.235c0 0.128-0.027 0.222-0.082 0.281-0.054 0.058-0.15 0.088-0.288 0.088a3.084 3.084 0 0 1-0.265-0.016 4.742 4.742 0 0 0-0.412-0.014c-0.224 0-0.5 0.032-0.825 0.096-0.323 0.064-0.598 0.145-0.822 0.243v4.948c0 0.128-0.029 0.221-0.082 0.28-0.054 0.059-0.15 0.088-0.288 0.088zM0.875 14.017c-0.128 0-0.221-0.027-0.279-0.08-0.059-0.054-0.088-0.152-0.088-0.288V3.828c0-0.137 0.029-0.233 0.088-0.287 0.059-0.054 0.152-0.08 0.279-0.08h1.061c0.224 0 0.363 0.107 0.413 0.323l0.102 0.383a3.244 3.244 0 0 1 1.067-0.677 3.403 3.403 0 0 1 1.274-0.251c0.952 0 1.705 0.348 2.259 1.045 0.556 0.698 0.832 1.639 0.833 2.828 0 0.815-0.137 1.526-0.413 2.135-0.275 0.607-0.647 1.077-1.118 1.406a2.76 2.76 0 0 1-1.62 0.492c-0.403 0-0.785-0.064-1.149-0.192a2.78 2.78 0 0 1-0.927-0.528v3.224c0 0.136-0.027 0.233-0.08 0.288-0.054 0.053-0.152 0.08-0.288 0.08z m3.225-4.491c0.55 0 0.954-0.187 1.214-0.559 0.26-0.374 0.391-0.964 0.392-1.767 0-0.815-0.128-1.409-0.384-1.782-0.256-0.374-0.663-0.559-1.222-0.559-0.511 0-0.991 0.133-1.443 0.396v3.874c0.431 0.265 0.912 0.398 1.443 0.397Z"/></svg>