<svg fill="#1F2E3E" role="img" viewBox="0 0 79 24" xmlns="http://www.w3.org/2000/svg"><title>Prime Video</title><path d="M0.42 3.883c0-0.14 0.033-0.238 0.091-0.293 0.059-0.055 0.153-0.081 0.28-0.081h1.072c0.228 0 0.365 0.111 0.413 0.329l0.104 0.387c0.296-0.287 0.658-0.518 1.075-0.683a3.387 3.387 0 0 1 1.29-0.258c0.957 0 1.72 0.355 2.279 1.062 0.557 0.707 0.837 1.661 0.837 2.866 0 0.827-0.137 1.547-0.413 2.165-0.28 0.619-0.655 1.091-1.13 1.424a2.768 2.768 0 0 1-1.635 0.501c-0.407 0-0.791-0.065-1.156-0.195a2.791 2.791 0 0 1-0.938-0.534v3.266c0 0.14-0.026 0.238-0.082 0.293-0.055 0.052-0.15 0.081-0.293 0.082H0.794c-0.13 0-0.221-0.029-0.28-0.082-0.062-0.055-0.091-0.153-0.091-0.293z m3.625 1.043a2.827 2.827 0 0 0-1.456 0.403v3.928a2.716 2.716 0 0 0 1.456 0.404c0.554 0 0.964-0.189 1.224-0.567 0.264-0.381 0.394-0.977 0.394-1.791 0-0.827-0.13-1.43-0.384-1.807-0.261-0.378-0.671-0.567-1.234-0.567z m7.321-0.284c0.394-0.436 0.769-0.749 1.12-0.931a2.387 2.387 0 0 1 1.123-0.277h0.206c0.14 0 0.238 0.029 0.299 0.081 0.059 0.055 0.088 0.153 0.088 0.294v1.253c0 0.13-0.026 0.221-0.081 0.284-0.055 0.059-0.15 0.088-0.29 0.088a3.006 3.006 0 0 1-0.267-0.013 4.458 4.458 0 0 0-1.248 0.081c-0.326 0.065-0.606 0.147-0.833 0.248v5.015c0 0.13-0.026 0.225-0.082 0.283-0.052 0.059-0.15 0.091-0.289 0.091h-1.424c-0.13 0-0.225-0.033-0.283-0.091-0.059-0.059-0.091-0.153-0.091-0.283V3.883c0-0.14 0.033-0.238 0.091-0.293 0.059-0.055 0.153-0.081 0.283-0.081h1.069c0.228 0 0.365 0.111 0.416 0.326z m4.969-2.312a1.29 1.29 0 0 1-0.905-0.313 1.101 1.101 0 0 1-0.342-0.853c0-0.358 0.114-0.642 0.342-0.847a1.286 1.286 0 0 1 0.905-0.315c0.378 0 0.677 0.104 0.906 0.312 0.228 0.208 0.342 0.492 0.342 0.85a1.107 1.107 0 0 1-0.342 0.853 1.29 1.29 0 0 1-0.906 0.313z m-1.084 1.553c0-0.14 0.033-0.238 0.088-0.293 0.062-0.055 0.156-0.081 0.283-0.081h1.426c0.14 0 0.234 0.026 0.29 0.081s0.081 0.153 0.082 0.293v6.882c0 0.13-0.026 0.225-0.082 0.283-0.055 0.059-0.15 0.091-0.293 0.091h-1.423c-0.13 0-0.221-0.033-0.283-0.091-0.059-0.059-0.088-0.153-0.088-0.283z m5.982 0.359c0.524-0.348 0.997-0.596 1.417-0.74 0.423-0.147 0.857-0.218 1.303-0.218 0.889 0 1.518 0.319 1.885 0.958 0.505-0.339 0.977-0.586 1.427-0.733 0.446-0.15 0.905-0.225 1.38-0.225 0.694 0 1.228 0.195 1.613 0.583 0.381 0.391 0.57 0.931 0.569 1.629v5.269c0 0.13-0.026 0.225-0.081 0.283-0.055 0.062-0.15 0.088-0.29 0.088h-1.426c-0.13 0-0.221-0.026-0.28-0.088-0.059-0.059-0.091-0.153-0.091-0.283V5.974c0-0.677-0.3-1.016-0.906-1.016-0.534 0-1.075 0.13-1.618 0.388v5.419c0 0.13-0.026 0.225-0.082 0.283-0.055 0.062-0.15 0.088-0.293 0.088h-1.423c-0.13 0-0.221-0.026-0.28-0.088-0.062-0.059-0.091-0.153-0.091-0.283V5.974c0-0.677-0.303-1.016-0.906-1.016-0.554 0-1.098 0.13-1.635 0.401v5.406c0 0.13-0.026 0.225-0.081 0.283-0.055 0.062-0.15 0.088-0.29 0.088h-1.426c-0.127 0-0.221-0.026-0.28-0.088-0.059-0.059-0.088-0.153-0.088-0.283V3.883c0-0.14 0.029-0.238 0.088-0.293 0.059-0.055 0.153-0.081 0.28-0.081h1.071c0.228 0 0.365 0.111 0.417 0.329z m14.287 3.777a5.895 5.895 0 0 1-1.468-0.162c0.059 0.664 0.261 1.14 0.602 1.433 0.342 0.287 0.857 0.43 1.55 0.429 0.277 0 0.547-0.016 0.811-0.052a10.031 10.031 0 0 0 1.179-0.254 0.466 0.466 0 0 1 0.075-0.006c0.169 0 0.254 0.114 0.254 0.342v0.687c0 0.16-0.023 0.27-0.065 0.335a0.55 0.55 0 0 1-0.261 0.173 6.36 6.36 0 0 1-2.305 0.417c-1.228 0-2.169-0.335-2.827-1.016-0.661-0.674-0.99-1.645-0.99-2.908 0-1.296 0.339-2.312 1.009-3.045 0.674-0.739 1.609-1.107 2.808-1.108 0.922 0 1.641 0.225 2.162 0.671a2.247 2.247 0 0 1 0.782 1.791c0 0.749-0.283 1.312-0.841 1.694-0.56 0.388-1.384 0.576-2.475 0.576z m0.209-3.224c-0.951 0-1.498 0.586-1.648 1.759 0.397 0.081 0.837 0.12 1.322 0.12 0.505 0 0.87-0.078 1.098-0.231 0.228-0.153 0.342-0.391 0.342-0.71 0-0.629-0.371-0.941-1.114-0.941z m9.6 6.338a0.684 0.684 0 0 1-0.244-0.036 0.388 0.388 0 0 1-0.163-0.12 0.892 0.892 0 0 1-0.123-0.232l-2.531-6.643a6.067 6.067 0 0 1-0.075-0.205 0.528 0.528 0 0 1-0.029-0.163c0-0.153 0.098-0.228 0.296-0.228h1.479c0.16 0 0.274 0.033 0.348 0.091 0.075 0.059 0.13 0.16 0.17 0.3l1.524 5.282 1.553-5.282a0.57 0.57 0 0 1 0.17-0.3c0.075-0.059 0.189-0.088 0.348-0.088h1.433c0.199 0 0.296 0.072 0.296 0.221a0.521 0.521 0 0 1-0.029 0.163l-0.072 0.212-2.53 6.64a0.892 0.892 0 0 1-0.127 0.228 0.397 0.397 0 0 1-0.153 0.124 0.674 0.674 0 0 1-0.254 0.033z m6.579-8.803a1.28 1.28 0 0 1-0.902-0.316 1.101 1.101 0 0 1-0.342-0.847c0-0.358 0.114-0.645 0.342-0.853a1.28 1.28 0 0 1 0.902-0.312c0.375 0 0.674 0.104 0.902 0.312 0.228 0.208 0.339 0.492 0.339 0.85 0 0.358-0.111 0.642-0.339 0.85a1.28 1.28 0 0 1-0.902 0.316z m-0.71 8.803c-0.13 0-0.221-0.033-0.28-0.091-0.062-0.059-0.091-0.153-0.091-0.284V3.88c0-0.14 0.033-0.234 0.091-0.293 0.059-0.052 0.153-0.078 0.28-0.078h1.42c0.137 0 0.234 0.026 0.29 0.081 0.052 0.055 0.078 0.15 0.078 0.293v6.875c0 0.13-0.026 0.228-0.078 0.284-0.055 0.062-0.153 0.091-0.293 0.091z m6.344 0.163a2.83 2.83 0 0 1-1.671-0.499 3.159 3.159 0 0 1-1.087-1.387 5.211 5.211 0 0 1-0.378-2.052c0-1.238 0.293-2.221 0.873-2.963a2.788 2.788 0 0 1 2.309-1.111 3.192 3.192 0 0 1 2.025 0.671V0.464c0-0.14 0.033-0.238 0.088-0.293 0.059-0.052 0.153-0.081 0.284-0.082h1.419c0.137 0 0.231 0.029 0.287 0.082 0.055 0.055 0.081 0.153 0.081 0.293v10.294c0 0.13-0.026 0.228-0.081 0.284-0.055 0.062-0.15 0.091-0.287 0.091h-1.185a0.44 0.44 0 0 1-0.274-0.075 0.446 0.446 0 0 1-0.14-0.254l-0.088-0.342a3.12 3.12 0 0 1-2.175 0.834z m0.71-1.642a2.482 2.482 0 0 0 1.361-0.417v-3.94a2.84 2.84 0 0 0-1.465-0.371c-0.521 0-0.912 0.195-1.166 0.586-0.261 0.394-0.384 0.99-0.384 1.784 0 0.798 0.134 1.387 0.403 1.779 0.274 0.388 0.69 0.58 1.251 0.579z m8.428-1.661c-0.55 0-1.026-0.052-1.433-0.162 0.059 0.655 0.254 1.124 0.587 1.406 0.335 0.283 0.837 0.423 1.514 0.424 0.27 0 0.534-0.016 0.788-0.052a9.76 9.76 0 0 0 1.153-0.248 0.44 0.44 0 0 1 0.072-0.006c0.163 0 0.244 0.114 0.244 0.335v0.674c0 0.156-0.023 0.267-0.065 0.329a0.537 0.537 0 0 1-0.251 0.17 6.171 6.171 0 0 1-2.247 0.41c-1.195 0-2.117-0.332-2.755-0.997-0.642-0.664-0.964-1.615-0.964-2.853 0-1.27 0.326-2.263 0.983-2.986 0.658-0.723 1.57-1.084 2.736-1.084 0.899 0 1.602 0.221 2.107 0.661a2.208 2.208 0 0 1 0.762 1.755c0 0.733-0.274 1.286-0.818 1.661-0.547 0.375-1.352 0.563-2.409 0.563z m0.205-3.159c-0.928 0-1.466 0.573-1.608 1.726 0.388 0.078 0.814 0.117 1.289 0.118 0.489 0 0.847-0.078 1.072-0.228 0.221-0.15 0.332-0.381 0.332-0.694 0-0.619-0.361-0.925-1.085-0.925z m7.953 6.524c-1.172 0-2.091-0.358-2.752-1.069-0.661-0.71-0.99-1.703-0.99-2.976 0-1.264 0.329-2.25 0.99-2.964 0.661-0.71 1.579-1.065 2.752-1.065s2.091 0.355 2.752 1.065c0.661 0.713 0.99 1.7 0.99 2.964 0 1.27-0.329 2.267-0.99 2.976-0.661 0.71-1.579 1.068-2.752 1.069z m0-1.674c1.036 0 1.553-0.788 1.554-2.371 0-1.573-0.521-2.358-1.554-2.358-1.036 0-1.553 0.785-1.553 2.358 0 1.583 0.521 2.371 1.553 2.371z m-22.288 6.142c1.319-0.997 3.074-1.329 4.526-1.329 1.361 0 2.462 0.293 2.697 0.602 0.489 0.651-0.127 5.159-2.524 7.308-0.365 0.332-0.716 0.153-0.554-0.283 0.541-1.439 1.746-4.677 1.173-5.461-0.57-0.788-3.771-0.375-5.211-0.189-0.221 0.026-0.348-0.065-0.365-0.199v-0.075c0.013-0.117 0.098-0.254 0.258-0.374z m-33.167-0.56a0.342 0.342 0 0 1 0.346-0.297c0.088 0 0.186 0.029 0.29 0.091a38.357 38.357 0 0 0 20.171 5.771c4.95 0 10.389-1.107 15.391-3.396 0.756-0.342 1.387 0.534 0.652 1.126-4.465 3.55-10.939 5.439-16.512 5.439-7.806 0-14.841-3.113-20.162-8.295a0.563 0.563 0 0 1-0.176-0.316Z"/></svg>