<svg fill="#2D3748" role="img" viewBox="0 0 20 24" xmlns="http://www.w3.org/2000/svg"><title>Prisma</title><path d="M19.807 18.285L11.553 0.756c-0.207-0.438-0.639-0.727-1.128-0.754-0.502-0.029-0.952 0.213-1.207 0.626L0.266 15.127c-0.277 0.452-0.272 1.009 0.016 1.456l4.376 6.778c0.261 0.405 0.713 0.639 1.182 0.639 0.133 0 0.267-0.019 0.399-0.058l12.702-3.757c0.389-0.115 0.707-0.39 0.874-0.755s0.163-0.783-0.008-1.145z m-1.848 0.752L7.182 22.224c-0.329 0.098-0.645-0.187-0.576-0.519l3.85-18.439c0.072-0.345 0.549-0.4 0.699-0.08l7.129 15.138c0.134 0.286-0.019 0.622-0.325 0.713z"/></svg>