<svg fill="#1E811F" role="img" viewBox="0 0 18 24" xmlns="http://www.w3.org/2000/svg"><title>Private Internet Access</title><path d="M7.808 5.764a0.812 0.812 0 1 0-0.812 0.812 0.811 0.811 0 0 0 0.812-0.812m3.196-0.812a0.812 0.812 0 1 0 0.811 0.812 0.812 0.812 0 0 0-0.811-0.812m-0.876 2.154a1.686 1.686 0 0 1-2.257 0 0.211 0.211 0 0 0-0.286 0.309 2.064 2.064 0 0 0 2.83 0 0.211 0.211 0 1 0-0.286-0.309M8.947 0C4.994 0 1.789 3.205 1.789 7.158V8.543c0 0.008 0.002 0.02 0.002 0.029-0.783 0.144-1.378 0.823-1.389 1.647a2.393 2.393 0 0 0-0.33 1.221v9.177a2.415 2.415 0 0 0 1.785 2.328A1.767 1.767 0 0 0 3.473 24h2.006a1.763 1.763 0 0 0 1.576-0.967h3.681c0.301 0.594 0.91 0.968 1.577 0.967h2.007a1.772 1.772 0 0 0 1.59-1c1.165-0.191 2.02-1.2 2.018-2.381v-9.178a2.428 2.428 0 0 0-0.315-1.197v-0.01c-0.001-0.774-0.521-1.423-1.23-1.625V7.158C16.383 3.205 13.176 0 9.223 0Zm0.032 2.559h0.214c2.475 0 4.482 2.005 4.483 4.48V8.543H12.668a1.667 1.667 0 0 0-1.174 0.48H6.527a1.675 1.675 0 0 0-1.183-0.48h-0.848V7.039c0-2.475 2.007-4.48 4.483-4.48z m0.025 9.492v0.004a1.974 1.974 0 0 1 1.105 3.603 0.313 0.313 0 0 0-0.132 0.299l0.486 3.297a0.307 0.307 0 0 1-0.07 0.246 0.314 0.314 0 0 1-0.235 0.107h-2.316a0.31 0.31 0 0 1-0.305-0.353l0.485-3.297a0.293 0.293 0 0 0-0.129-0.295 1.975 1.975 0 0 1 0.884-3.598 2.176 2.176 0 0 1 0.227-0.013z"/></svg>