<svg fill="#C71585" role="img" viewBox="0 0 41 24" xmlns="http://www.w3.org/2000/svg"><title>Pronouns.page</title><path d="M25.595 0.315c0.099-0.174 0.017-0.315-0.184-0.315l-3.494 0.002a0.705 0.705 0 0 0-0.547 0.313l-8.562 14.484c-1.196 1.969-2.863 2.403-4.466 2.209-2.751-0.334-4.229-2.352-4.23-5.042a4.906 4.906 0 0 1 4.899-4.899h5.437c0.199 0 0.443-0.141 0.543-0.313l1.959-3.424c0.099-0.172 0.017-0.313-0.182-0.313H9.009A8.96 8.96 0 0 0 0.06 11.966c0 2.385 0.932 4.957 2.627 6.638 1.669 1.656 3.901 2.262 6.281 2.311 1.344 0.015 5.035-0.015 6.766-3.095a31816.454 31816.454 0 0 1 9.862-17.505Zm12.718 5.083c-1.669-1.656-3.901-2.264-6.281-2.312-1.344-0.017-5.035 0.015-6.766 3.094-1.938 3.448-9.862 17.505-9.862 17.505-0.097 0.174-0.014 0.315 0.185 0.315l3.494-0.002a0.705 0.705 0 0 0 0.547-0.313l8.562-14.484c1.196-1.969 2.863-2.403 4.466-2.209 2.751 0.334 4.229 2.352 4.23 5.042a4.906 4.906 0 0 1-4.899 4.899h-5.437a0.692 0.692 0 0 0-0.543 0.313l-1.959 3.424c-0.099 0.172-0.017 0.313 0.182 0.313h7.759A8.96 8.96 0 0 0 40.94 12.034c0-2.385-0.932-4.957-2.627-6.636z"/></svg>