<svg fill="#6D4AFF" role="img" viewBox="0 0 30 24" xmlns="http://www.w3.org/2000/svg"><title>Proton Mail</title><path d="M18.994 8.298l4.507-3.788v19.489H3.267C1.576 23.999 0.208 22.611 0.208 20.902V5.766l9.344 7.865a2.695 2.695 0 0 0 3.539-0.052l5.907-5.281h-0.004z m-6.726 4.361l2.23-1.992a3.005 3.005 0 0 1-1.452-0.657L1.323 0.159A0.68 0.68 0 0 0 0.208 0.69v3.465l10.14 8.534a1.462 1.462 0 0 0 1.92-0.03zM29.633 0.243a0.679 0.679 0 0 0-0.956-0.084l-3.944 3.313v20.528h2.001c1.69 0 3.058-1.389 3.058-3.098V0.688a0.679 0.679 0 0 0-0.159-0.444z"/></svg>