<svg fill="#EB508D" role="img" viewBox="0 0 30 24" xmlns="http://www.w3.org/2000/svg"><title>Proton Drive</title><path d="M29.619 5.415v15.582c0 1.657-1.352 2.999-3.023 2.999h-1.974V8.345a3.563 3.563 0 0 0-3.57-3.55l-11.476 0.065a1.149 1.149 0 0 1-0.67-0.21L6.356 2.854a3.555 3.555 0 0 0-2.063-0.653H0.503A3.009 3.009 0 0 1 3.404 0h5.674c0.573 0 1.131 0.18 1.59 0.517l1.899 1.381c0.463 0.336 1.02 0.517 1.594 0.517h12.435A3.01 3.01 0 0 1 29.619 5.415zM23.402 8.345v15.655H3.404A3.01 3.01 0 0 1 0.381 20.999V3.42h3.91c0.487 0 0.965 0.149 1.362 0.43l2.553 1.798a2.363 2.363 0 0 0 1.376 0.43l11.455-0.063A2.342 2.342 0 0 1 23.402 8.345z"/></svg>