<svg fill="#4D9FE7" role="img" viewBox="0 0 26 24" xmlns="http://www.w3.org/2000/svg"><title>protocols.io</title><path d="M4.93 0.005c-0.783 0.05-1.371 0.509-1.748 1.366a5.041 5.041 0 0 0-0.233 0.65 11.924 11.924 0 0 0-0.455 3.883c0.056 1.091-0.203 2.045-0.65 3.03C0.931 10.943 0.294 13.048 0.034 15.254c-0.147 1.261 0.183 2.329 1.224 3.11 0.444 0.334 0.903 0.653 1.387 0.927 1.343 0.76 2.787 1.291 4.251 1.77a0.894 0.894 0 0 1 0.321 0.175c1.213 1.119 2.625 1.896 4.167 2.466 1.095 0.404 2.172 0.394 3.267-0.011 1.145-0.424 2.263-0.924 3.189-1.707 0.823-0.695 1.746-1.095 2.738-1.445 1.416-0.5 2.78-1.123 3.997-2.028 1.012-0.753 1.531-1.729 1.406-3.01-0.025-0.258-0.043-0.516-0.082-0.771-0.325-2.104-0.962-4.119-1.847-6.045-0.386-0.841-0.713-1.651-0.478-2.603-0.081-0.927-0.139-1.87-0.252-2.804-0.09-0.744-0.26-1.479-0.622-2.148-0.479-0.888-1.22-1.261-2.207-1.083-0.347 0.062-0.695 0.156-1.018 0.296-1.744 0.756-3.146 1.95-4.279 3.464-0.108 0.148-0.21 0.199-0.399 0.197a206.242 206.242 0 0 0-3.606-0.002c-0.156 0-0.26-0.015-0.362-0.156-0.675-0.95-1.505-1.75-2.444-2.434-0.796-0.581-1.636-1.083-2.606-1.322a2.818 2.818 0 0 0-0.849-0.086z m0.104 1.248c0.094-0.002 0.198 0.013 0.317 0.043a4.875 4.875 0 0 1 1.079 0.387c1.549 0.809 2.812 1.942 3.73 3.438 0.095 0.156 0.193 0.201 0.366 0.193 0.979-0.045 1.956-0.105 2.935-0.112 0.672-0.004 1.343 0.065 2.015 0.112 0.178 0.013 0.271-0.043 0.365-0.197 0.926-1.503 2.193-2.643 3.758-3.447a4.929 4.929 0 0 1 1.054-0.377c0.466-0.116 0.76 0.006 0.935 0.452 0.204 0.524 0.381 1.072 0.466 1.625 0.133 0.884 0.18 1.78 0.245 2.473-0.04 0.702-0.076 1.2-0.093 1.699a0.737 0.737 0 0 0 0.087 0.349 23.638 23.638 0 0 1 2.355 6.908c0.079 0.451 0.083 0.921 0.069 1.379-0.014 0.521-0.351 0.88-0.729 1.192-0.946 0.78-2.045 1.287-3.17 1.735-0.773 0.308-1.573 0.552-2.355 0.84-0.162 0.06-0.325 0.161-0.453 0.281-1.326 1.224-2.844 2.102-4.615 2.475-0.401 0.084-0.872 0.015-1.273-0.106-1.596-0.482-3.02-1.278-4.216-2.459a0.75 0.75 0 0 0-0.294-0.162c-1.462-0.466-2.908-0.98-4.259-1.72-0.379-0.206-0.732-0.455-1.098-0.685-0.877-0.552-1.111-1.373-0.968-2.346 0.385-2.586 1.224-5.018 2.421-7.336a0.807 0.807 0 0 0 0.076-0.406c-0.115-1.649-0.069-3.287 0.318-4.902 0.069-0.288 0.175-0.573 0.304-0.84 0.158-0.324 0.347-0.479 0.628-0.486z m9.991 7.279c-0.383 0.043-0.585 0.286-0.78 0.78-0.034 0.091-0.065 0.182-0.088 0.274-0.213 0.847-0.132 1.693-0.027 2.548 0.117 0.964 0.539 1.616 1.481 1.985 1.494 0.585 2.286 1.782 2.645 3.301 0.087 0.372 0.16 0.745 0.247 1.157 0.422-0.149 0.828-0.287 1.23-0.438 1.081-0.404 2.136-0.86 3.101-1.506 0.162-0.108 0.243-0.23 0.211-0.425-0.099-0.635-0.154-1.278-0.295-1.905-0.443-1.956-1.524-3.443-3.337-4.353-0.661-0.33-1.324-0.665-2.016-0.915a10.385 10.385 0 0 0-1.922-0.481 1.718 1.718 0 0 0-0.45-0.022z m-4.559 0.011a2.448 2.448 0 0 0-0.286 0.039c-1.701 0.347-3.246 1.045-4.656 2.05-0.53 0.377-0.986 0.83-1.327 1.389-0.788 1.292-1.162 2.708-1.248 4.209-0.011 0.193 0.057 0.312 0.216 0.395 0.782 0.406 1.552 0.842 2.353 1.21 0.632 0.29 1.3 0.5 1.975 0.755 0.09-0.422 0.162-0.798 0.25-1.17 0.359-1.519 1.162-2.687 2.639-3.315 0.054-0.022 0.101-0.056 0.155-0.075 0.783-0.27 1.159-0.834 1.283-1.642 0.155-0.996 0.282-1.981-0.032-2.964-0.238-0.758-0.535-0.945-1.322-0.88z m2.81 8.128c-1.04 0.049-1.791 0.148-2.463 0.547-0.461 0.275-0.606 0.601-0.429 1.062 0.396 1.03 1.083 1.831 2.047 2.372 0.357 0.199 0.742 0.209 1.105 0.011 0.996-0.539 1.685-1.356 2.09-2.405 0.152-0.395 0.048-0.678-0.297-0.936-0.159-0.119-0.338-0.237-0.526-0.288-0.589-0.158-1.188-0.285-1.527-0.363z"/></svg>