<svg fill="#66DEB1" role="img" viewBox="0 0 27 24" xmlns="http://www.w3.org/2000/svg"><title>Proton VPN</title><path d="M11.487 20.893l0.947-1.413 7.187-10.856c0.629-0.949 0.029-2.223-1.109-2.352L0.674 4.22l9.24 16.614a0.927 0.927 0 0 0 1.572 0.058h0.001zM26.286 6.637l-10.663 16.123c-1.143 1.729-3.73 1.631-4.737-0.179l-0.103-0.185c0.331-0.011 0.656-0.095 0.944-0.259a2.042 2.042 0 0 0 0.675-0.629l0.949-1.413 7.191-10.863c0.508-0.766 0.579-1.722 0.191-2.554a2.621 2.621 0 0 0-2.096-1.505L0.801 3.124l-0.525-0.06C0.077 1.398 1.472-0.194 3.33 0.019l20.957 2.384c2.048 0.232 3.129 2.526 2 4.235z"/></svg>