<svg fill="#50B0E9" role="img" viewBox="0 0 30 24" xmlns="http://www.w3.org/2000/svg"><title>Proton Calendar</title><path d="M18.865 15.433V24h-5.21v-1.397c0-0.712 0.256-1.402 0.721-1.945l4.489-5.224z m-6.007 7.168c0-0.903 0.324-1.779 0.914-2.463l5.693-6.482c0.636-0.72 1.857-1.121 2.756-1.121h1.178V5.916a2.338 2.338 0 0 0-2.349-2.332H0.38v17.416c0 1.657 1.352 3 3.024 3h9.454v-1.397zM23.285 3.711c0.588 0.591 0.913 1.374 0.91 2.205v6.621H29.62V3c0-1.657-1.352-3-3.024-3H3.404A3.013 3.013 0 0 0 0.387 2.786h20.663c0.846 0 1.639 0.329 2.235 0.926z m0.414 17.961c0.995 0 1.767-0.549 1.766-1.384a1.161 1.161 0 0 0-0.962-1.183v-0.016a1.172 1.172 0 0 0 0.591-0.422 1.15 1.15 0 0 0 0.225-0.688c0-0.77-0.669-1.317-1.636-1.317-1.206 0-1.686 0.867-1.724 1.474h1.027a0.658 0.658 0 0 1 0.703-0.603c0.387 0 0.669 0.239 0.669 0.585 0 0.345-0.26 0.576-0.892 0.576h-0.365v0.869h0.421c0.653 0 0.983 0.214 0.983 0.599s-0.317 0.648-0.798 0.648a0.82 0.82 0 0 1-0.835-0.621h-1.064c0.077 0.893 0.832 1.489 1.89 1.483z m2.437-4.13v0.982l0.962-0.649v3.729h0.999v-4.859h-0.774l-1.186 0.798z"/></svg>