<svg fill="#1C79B3" role="img" viewBox="0 0 35 24" xmlns="http://www.w3.org/2000/svg"><title>Proteus</title><path d="M5.23 1.72c0-0.95 0.77-1.72 1.721-1.72s1.72 0.77 1.72 1.72c0 0.005-0.003 0.01-0.003 0.015 0.991 0.407 2.137 1.108 3.136 1.793 0.577 0.395 1.168 0.836 1.764 1.294-0.212 0.123-0.422 0.249-0.608 0.382l-0.097 0.069c-0.485-0.368-0.97-0.731-1.441-1.054C10.063 3.286 9.11 2.782 8.452 2.514c-0.251 0.472-0.707 0.795-1.256 0.877 0.22 0.828 0.789 1.95 1.642 3.269l1.025 1.492c0.206 0.284 0.438 0.583 0.662 0.877 0.282 0.371 0.58 0.749 0.888 1.132 0.066 0.081 0.132 0.163 0.199 0.245 0.27 0.333 0.549 0.669 0.837 1.009 0.166 0.194 0.338 0.391 0.509 0.587 0.219 0.252 0.436 0.502 0.664 0.757 0.427 0.474 0.864 0.95 1.32 1.427 0.421 0.441 0.853 0.869 1.285 1.295-0.381-0.008-0.762-0.015-1.139-0.031a60.406 60.406 0 0 1-0.709-0.728c-0.706-0.74-1.364-1.473-1.998-2.199a63.407 63.407 0 0 1-0.414-0.478c-0.608-0.71-1.189-1.411-1.717-2.089l-0.002-0.003c-0.436-0.56-0.848-1.108-1.223-1.635l-0.001 0-0.011-0.016c-0.004-0.006-0.01-0.013-0.014-0.019l0.001-0.001-0.183-0.271-0.201-0.3-0.566-0.84c-0.904-1.422-1.496-2.64-1.716-3.555-0.643-0.249-1.103-0.865-1.104-1.596z m21.83 18.905c-0.468-1.163-1.304-2.576-2.337-4.06-0.284 0.042-0.581 0.075-0.872 0.113 1.108 1.574 1.915 2.952 2.364 3.986-0.672 0.217-1.161 0.817-1.187 1.555-0.903-0.381-2.086-1.088-3.452-2.095-1.052-0.776-2.167-1.712-3.288-2.717a78.206 78.206 0 0 1-0.589 0.523c2.98 2.672 5.824 4.654 7.62 5.269 0.307 0.471 0.813 0.801 1.417 0.801 0.95 0 1.72-0.77 1.72-1.72 0-0.835-0.607-1.499-1.396-1.655z m-8.824-3.557a15.051 15.051 0 0 0-0.327 0.009c-0.144 0.005-0.287 0.011-0.431 0.011-0.139 0-0.274-0.008-0.413-0.009-0.181 0.159-0.356 0.299-0.536 0.452a52.456 52.456 0 0 1-1.172 0.977l0.002 0c-2.219 1.786-4.179 3.05-5.485 3.606 0-0.002 0.001-0.004 0.002-0.006 0-0.756-0.495-1.379-1.172-1.61 0.385-0.866 0.993-1.928 1.84-3.149 0.142-0.204 0.31-0.42 0.462-0.628-0.297-0.034-0.604-0.065-0.891-0.103-1.029 1.449-1.816 2.768-2.273 3.832-0.794 0.152-1.407 0.818-1.407 1.658 0 0.95 0.77 1.72 1.72 1.72 0.567 0 1.046-0.293 1.36-0.716 2.217-0.705 5.749-3.368 8.721-6.044z m-8.086-6.666a7.38 7.38 0 0 0-0.081 1.082c0 1.338 0.374 2.583 0.999 3.663 0.089 0.011 0.17 0.024 0.259 0.034 1.053 0.119 2.142 0.2 3.25 0.256-0.152-0.155-0.305-0.31-0.456-0.468-1.452-1.522-2.792-3.069-3.971-4.567z m11.662-4.817c0.383 0.286 0.74 0.605 1.061 0.959 0.267 0.295 0.509 0.612 0.726 0.946 0.265 0.409 0.475 0.855 0.656 1.315-0.887 1.192-1.858 2.374-2.854 3.493-0.173 0.194-0.343 0.39-0.517 0.579a43.146 43.146 0 0 1-1.087 1.142 57.223 57.223 0 0 1-1.223 1.196l-0.289 0.275c-0.27 0.004-0.537 0.024-0.807 0.024-0.247 0-0.484-0.016-0.729-0.019l-0.271-0.268c-0.429-0.424-0.859-0.849-1.278-1.288a64.38 64.38 0 0 1-1.037-1.117 62.152 62.152 0 0 1-0.522-0.583c-1.083-1.22-2.091-2.442-2.98-3.622 0.154-0.363 0.328-0.715 0.537-1.046a7.368 7.368 0 0 1 0.727-0.969c0.369-0.416 0.788-0.784 1.242-1.107a7.345 7.345 0 0 1 0.703-0.442c1.054-0.584 2.263-0.924 3.554-0.924 1.351 0 2.616 0.364 3.704 1a7.375 7.375 0 0 1 0.684 0.456m-1.313 9.838a48.178 48.178 0 0 0 3.041-0.277c0.091-0.011 0.173-0.028 0.264-0.039 0.611-1.072 0.975-2.301 0.975-3.623 0-0.281-0.03-0.553-0.061-0.826-1.214 1.55-2.531 3.067-3.861 4.41-0.115 0.116-0.238 0.236-0.358 0.355z m-2.063 1.64c0.512 0.461 1.017 0.905 1.503 1.311 0.942-0.346 1.801-0.862 2.518-1.538-1.325 0.13-2.672 0.199-4.021 0.227z m-1.713 1.708c0.234 0.023 0.461 0.068 0.701 0.068 0.233 0 0.454-0.045 0.681-0.067-0.222-0.193-0.45-0.407-0.675-0.608-0.218 0.19-0.454 0.393-0.707 0.607z m-4.3-1.906c0.718 0.668 1.577 1.178 2.517 1.519 0.502-0.4 1.02-0.828 1.556-1.29l-0.001-0.015 0.01-0.013c-1.391-0.024-2.761-0.085-4.082-0.201zM22.025 5.299l0.081 0.06c1.794-1.387 3.367-2.375 4.488-2.783 0.247 0.484 0.711 0.816 1.269 0.9-0.211 0.652-0.684 1.668-1.661 3.193l-0.909 1.327c-0.28 0.399-0.584 0.803-0.887 1.207-0.623 0.829-1.293 1.66-1.985 2.473-0.085 0.099-0.171 0.197-0.257 0.296-0.685 0.792-1.391 1.569-2.113 2.298-0.41 0.414-0.821 0.812-1.231 1.204 0.386-0.01 0.772-0.016 1.155-0.035a51.752 51.752 0 0 0 0.629-0.622c0.657-0.663 1.298-1.368 1.929-2.085a53.545 53.545 0 0 0 0.353-0.408c0.61-0.708 1.201-1.425 1.761-2.15l0.002-0.002c0.521-0.675 1.025-1.35 1.485-2.016l0.899-1.331c0.715-1.135 1.413-2.41 1.698-3.423 0.643-0.25 1.101-0.865 1.102-1.596 0-0.95-0.77-1.72-1.721-1.72-0.945 0-1.709 0.763-1.717 1.705-1.285 0.489-3.017 1.58-4.969 3.108 0.196 0.12 0.391 0.245 0.599 0.4z m1.344 1.307c0.183 0.223 0.37 0.443 0.529 0.69l0.175 0.269c0.333 0.046 0.648 0.107 0.974 0.159l0.543-0.793c-0.726-0.121-1.464-0.234-2.221-0.325z m-11.952 0.08c-0.647 0.091-1.275 0.21-1.904 0.325l0.53 0.772c0.229-0.04 0.449-0.09 0.679-0.127l0.174-0.276c0.155-0.245 0.341-0.468 0.521-0.694z m23.182 4.458c-0.359-1.854-3.613-3.019-6.28-3.67-0.358-0.087-0.757-0.156-1.136-0.235l-0.517 0.767c0.621 0.124 1.233 0.253 1.805 0.403 3.161 0.827 5.087 1.883 5.284 2.899 0.056 0.287-0.044 0.581-0.306 0.897-0.78 0.945-2.847 1.875-5.672 2.552-1.251 0.3-2.621 0.54-4.054 0.722-0.046 0.007-0.091 0.015-0.139 0.021a48.632 48.632 0 0 1-3.01 0.277c-0.324 0.02-0.654 0.016-0.98 0.03-0.388 0.016-0.273 0.028-0.663 0.035h-0.503c-0.323 0.035-0.747 0.029-1.065 0.029-2.174 0-4.154-0.118-6.076-0.335-4.606-0.519-8.223-1.603-9.558-2.981-0.342-0.353-0.51-0.709-0.499-1.058 0.017-0.531 1.101-1.736 5.06-2.88 0.686-0.198 1.405-0.376 2.145-0.535l-0.504-0.749c-0.639 0.144-1.282 0.285-1.88 0.458C3.954 8.397 0.426 9.682 0.371 11.47c-0.019 0.591 0.231 1.157 0.741 1.684 1.562 1.612 5.681 2.825 10.916 3.326 1.714 0.164 3.606 0.25 5.509 0.25 0.02 0-0.02 0 0 0 0.37-0.002 0.733-0.021 1.101-0.03 1.439-0.033 2.859-0.108 4.213-0.253 0.263-0.028 0.511-0.067 0.77-0.099 0.202-0.025 0.402-0.051 0.601-0.077 4.758-0.653 8.595-1.948 9.891-3.518 0.429-0.52 0.592-1.061 0.486-1.609z"/></svg>