<svg fill="#E57000" role="img" viewBox="0 0 28 24" xmlns="http://www.w3.org/2000/svg"><title>Proxmox</title><path d="M5.881 0.319c-1.251 0.635-1.251 0.735-0.08 2.043 6.492 7.227 8.041 8.934 8.159 8.934 0.16 0.02 9.151-9.807 9.251-10.104 0.039-0.08-0.239-0.358-0.596-0.615-0.476-0.358-0.992-0.497-1.966-0.536-1.825-0.119-2.461 0.278-4.724 2.818-1.032 1.151-1.906 2.104-1.906 2.105-0.02 0-0.873-0.933-1.885-2.065S9.951 0.634 9.554 0.416c-0.914-0.517-2.779-0.556-3.674-0.098zM1.712 3.237C0.74 3.614 0.223 3.972 0.223 4.248c0 0.139 1.528 1.926 3.376 3.972 1.866 2.044 3.374 3.752 3.374 3.79 0 0.04-1.528 1.747-3.376 3.792C1.732 17.867 0.243 19.672 0.264 19.832c0.099 0.536 1.727 1.211 2.917 1.211 1.926-0.021 2.363-0.358 6.432-4.824 2.044-2.243 3.712-4.149 3.712-4.209 0-0.079-1.647-1.945-3.673-4.167-2.641-2.879-3.93-4.17-4.546-4.448-0.932-0.457-2.441-0.536-3.394-0.158z m21.201 0.138c-0.576 0.298-2.025 1.728-4.526 4.467-2.024 2.224-3.673 4.089-3.673 4.168 0 0.08 1.668 1.965 3.713 4.209 4.069 4.466 4.506 4.803 6.431 4.824 1.192 0 2.818-0.675 2.918-1.211 0.02-0.179-1.469-1.965-3.335-4.01-1.846-2.044-3.375-3.771-3.375-3.812 0-0.039 1.529-1.767 3.375-3.811C26.307 6.156 27.796 4.368 27.776 4.209c-0.1-0.517-1.568-1.111-2.839-1.191-0.913-0.039-1.389 0.04-2.024 0.358zM9.355 17.709c-2.461 2.72-4.487 5.022-4.527 5.121-0.039 0.08 0.239 0.358 0.597 0.616 0.475 0.357 0.992 0.496 1.964 0.536 1.807 0.118 2.481-0.298 4.765-2.879 0.992-1.111 1.846-2.044 1.865-2.044s0.874 0.932 1.887 2.065c2.322 2.581 2.938 2.957 4.743 2.858 0.974-0.04 1.489-0.179 1.966-0.536 0.357-0.258 0.635-0.536 0.596-0.615-0.1-0.298-9.093-10.125-9.251-10.104-0.079 0-2.143 2.243-4.605 4.982z"/></svg>