<svg fill="#A86454" role="img" viewBox="0 0 40 24" xmlns="http://www.w3.org/2000/svg"><title>Pug</title><path d="M20.153 0c-3.367 0-5.999 0.332-8.021 0.929a10.512 10.512 0 0 0 0.15-0.136c0.061-0.061-0.083-0.102-0.373-0.112-0.869-0.029-3.043 0.234-4.872 1.149-2.074 0.976-6.71 6.102-6.589 6.407 0.122 0.305 2.378 2.193 3.049 2.925 0.427 0.488 1.709 4.822 2.868 4.09 0.308-0.213 0.433-1.061 0.538-2.107 0.095 0.811 0.188 1.651 0.315 2.412 0.183 1.22 1.771 2.196 1.954 3.355 0.227 1.652 1.241 2.808 3.227 3.543 0.79 1.089 2.018 0.538 2.935 1.034 1.464 0.793 3.111 0.426 4.758 0.426 1.647 0 3.233 0.303 4.759-0.49 0.939-0.488 2.151 0.051 2.947-0.945 1.997-0.732 2.985-1.896 3.214-3.568 0.183-1.159 1.708-2.134 1.891-3.355 0.103-0.619 0.18-1.307 0.258-1.96 0.093 0.814 0.212 1.473 0.474 1.655 1.098 0.732 2.441-3.602 2.868-4.09 0.671-0.732 2.927-2.62 3.049-2.925 0.122-0.305-4.575-5.431-6.649-6.407-1.83-0.915-4.003-1.177-4.873-1.149-0.272 0.009-0.4 0.047-0.366 0.102-1.914-0.502-4.355-0.783-7.511-0.783z m0.048 0.815c3.591 0 6.271 0.367 8.163 1.002 0.218 0.073 0.389 0.16 0.586 0.239 1.125 1.165 2.645 2.984 3.281 5.08 0.04 0.132 0.066 0.27 0.102 0.404 0 0.002 0 0.005 0 0.006v0.007c0.074 1.255 0.515 2.309 0.376 3.243-0.25 1.627-0.372 3.214-0.608 4.628l-0.003 0.006v0.007c-0.047 0.313-0.355 0.776-0.78 1.314-0.425 0.539-0.97 1.145-1.111 2.034v0.009l-0.003 0.007c-0.164 1.194-0.686 1.955-1.907 2.578 0.204-0.725 0.334-1.719 0.335-3.199 0.061-1.83 0.125-2.562-1.401-4.392-1.171-1.505-2.777-2.566-4.551-3.094-0.181-0.635-1.176-1.362-2.527-1.362-1.35 0-2.305 0.688-2.502 1.337-1.808 0.519-3.448 1.59-4.637 3.119-1.525 1.83-1.4 2.623-1.401 4.392 0 1.473 0.13 2.466 0.331 3.196-1.254-0.627-1.805-1.396-1.966-2.575v-0.016c-0.143-0.903-0.712-1.505-1.153-2.044-0.44-0.539-0.754-1.005-0.799-1.304l-0.003-0.007v-0.006c-0.235-1.413-0.358-2.999-0.608-4.625v-0.003c-0.139-0.934 0.299-1.988 0.373-3.243v0.025c0.021-0.234 0.028-0.393 0.041-0.604 0.587-1.888 1.879-3.54 2.941-4.686a10.451 10.451 0 0 1 1.181-0.47c1.943-0.638 4.659-1.003 8.25-1.003z m-8.489 6.2a2.684 2.684 0 0 0-2.664 2.686 2.684 2.684 0 0 0 2.686 2.683 2.684 2.684 0 0 0 0.72-0.098c0.568-0.611 1.17-1.177 1.811-1.697a2.684 2.684 0 0 0 0.152-0.888 2.684 2.684 0 0 0-2.683-2.686 2.684 2.684 0 0 0-0.022 0z m16.78 0a2.684 2.684 0 0 0-2.667 2.686 2.684 2.684 0 0 0 0.245 1.114c0.509 0.431 0.996 0.891 1.457 1.381a2.684 2.684 0 0 0 0.984 0.188 2.684 2.684 0 0 0 2.683-2.683 2.684 2.684 0 0 0-2.683-2.686 2.684 2.684 0 0 0-0.019 0z m-16.086 0.792a0.671 0.671 0 0 1 0.668 0.672 0.671 0.671 0 0 1-0.668 0.672 0.671 0.671 0 0 1-0.672-0.672 0.671 0.671 0 0 1 0.672-0.672z m15.433 0a0.671 0.671 0 0 1 0.672 0.672 0.671 0.671 0 0 1-0.672 0.672 0.671 0.671 0 0 1-0.671-0.672 0.671 0.671 0 0 1 0.671-0.672z m-8.326 2.422a0.244 0.488 17.23 0 1 0.048 0.007 0.244 0.488 17.23 0 1 0.089 0.538 0.244 0.488 17.23 0 1-0.379 0.394 0.244 0.488 17.23 0 1-0.086-0.537 0.244 0.488 17.23 0 1 0.328-0.402z m1.095 0.035a0.488 0.244 75.54 0 1 0.334 0.414 0.488 0.244 75.54 0 1-0.115 0.535 0.488 0.244 75.54 0 1-0.359-0.411 0.488 0.244 75.54 0 1 0.114-0.534 0.488 0.244 75.54 0 1 0.026-0.004z m-0.516 0.777s0.058 0.368 0.303 0.49c0.244 0.122 1.404-0.245 1.403-0.245-0.549 0.427-1.585 0.429-1.585 0.551v0.608c0 0.665 0.043 2.381-0.051 2.746 1.342 0.007 3.406 1.834 3.406 4.087v0.121c-0.061-2.196-2.622-3.966-3.415-3.966-0.793 0-3.357 1.709-3.419 3.966v-0.121c0-2.22 2.009-4.025 3.352-4.083-0.115-0.899-0.118-1.853-0.118-2.75v-0.608c-0.35-0.155-0.704-0.279-1.069-0.385 0.301 0.053 0.605 0.08 0.888 0.079 0.244-0.122 0.306-0.49 0.305-0.49z m-4.955 2.196a0.244 0.244 0 0 1 0.012 0 0.244 0.244 0 0 1 0.246 0.245 0.244 0.244 0 0 1-0.246 0.245 0.244 0.244 0 0 1-0.245-0.245 0.244 0.244 0 0 1 0.233-0.245z m1.83 0a0.244 0.244 0 0 1 0.013 0 0.244 0.244 0 0 1 0.245 0.245 0.244 0.244 0 0 1-0.245 0.245 0.244 0.244 0 0 1-0.246-0.245 0.244 0.244 0 0 1 0.233-0.245z m5.98 0a0.244 0.244 0 0 1 0.013 0 0.244 0.244 0 0 1 0.245 0.245 0.244 0.244 0 0 1-0.245 0.245 0.244 0.244 0 0 1-0.245-0.245 0.244 0.244 0 0 1 0.232-0.245z m1.83 0a0.244 0.244 0 0 1 0.013 0 0.244 0.244 0 0 1 0.245 0.245 0.244 0.244 0 0 1-0.245 0.245 0.244 0.244 0 0 1-0.245-0.245 0.244 0.244 0 0 1 0.232-0.245z m-9.211 1.464a0.244 0.244 0 0 1 0.013 0 0.244 0.244 0 0 1 0.242 0.245 0.244 0.244 0 0 1-0.242 0.245 0.244 0.244 0 0 1-0.245-0.245 0.244 0.244 0 0 1 0.232-0.245z m8.785 0a0.244 0.244 0 0 1 0.01 0 0.244 0.244 0 0 1 0.245 0.245 0.244 0.244 0 0 1-0.246 0.245 0.244 0.244 0 0 1-0.241-0.245 0.244 0.244 0 0 1 0.232-0.245Z"/></svg>