<svg fill="#8A3391" role="img" viewBox="0 0 23 24" xmlns="http://www.w3.org/2000/svg"><title>Pulumi</title><path d="M11.497 0C9.726 0 8.29 0.83 8.29 1.856c0 1.025 1.436 1.856 3.207 1.856 1.772 0 3.208-0.831 3.208-1.856C14.705 0.83 13.27 0 11.497 0zM5.45 3.488c-1.772 0-3.208 0.83-3.208 1.856C2.242 6.369 3.678 7.2 5.45 7.2c1.771 0 3.207-0.831 3.207-1.856 0-1.025-1.436-1.856-3.207-1.856z m12.103 0c-1.772 0-3.208 0.83-3.208 1.856 0 1.025 1.436 1.856 3.208 1.856 1.771 0 3.207-0.831 3.207-1.856 0-1.025-1.436-1.856-3.207-1.856z m-6.056 3.495c-1.771 0-3.207 0.831-3.207 1.856 0 1.025 1.436 1.856 3.207 1.856 1.772 0 3.208-0.83 3.208-1.856 0-1.025-1.436-1.856-3.208-1.856z m-10.127 0.67a1.157 1.157 0 0 0-0.55 0.151c-0.888 0.513-0.89 2.172-0.004 3.706 0.886 1.534 2.324 2.362 3.211 1.85 0.888-0.513 0.89-2.171 0.003-3.706-0.72-1.246-1.803-2.027-2.66-2z m20.257 0.004c-0.857-0.026-1.941 0.754-2.661 2-0.886 1.535-0.884 3.194 0.003 3.707 0.888 0.512 2.325-0.316 3.211-1.85 0.886-1.534 0.885-3.193-0.003-3.706a1.157 1.157 0 0 0-0.55-0.15z m-6.048 3.492c-0.857-0.026-1.94 0.754-2.66 2-0.886 1.535-0.885 3.194 0.003 3.706 0.887 0.513 2.325-0.316 3.21-1.85 0.887-1.534 0.885-3.193-0.003-3.706a1.157 1.157 0 0 0-0.55-0.15z m-8.16 0.001a1.157 1.157 0 0 0-0.55 0.151c-0.888 0.513-0.89 2.172-0.004 3.706 0.886 1.535 2.324 2.363 3.211 1.85 0.888-0.512 0.89-2.171 0.003-3.705-0.72-1.247-1.803-2.028-2.66-2.002z m-6.047 3.494a1.157 1.157 0 0 0-0.55 0.151c-0.888 0.513-0.89 2.172-0.004 3.706 0.886 1.534 2.324 2.362 3.212 1.85 0.887-0.513 0.888-2.172 0.003-3.706-0.72-1.246-1.804-2.027-2.661-2.001z m20.258 0.002c-0.857-0.026-1.941 0.755-2.66 2.001-0.887 1.535-0.885 3.193 0.003 3.706 0.887 0.512 2.325-0.316 3.21-1.85 0.886-1.534 0.885-3.193-0.003-3.706a1.157 1.157 0 0 0-0.55-0.15z m-6.047 3.492c-0.858-0.026-1.942 0.754-2.661 2-0.886 1.535-0.885 3.194 0.003 3.706 0.888 0.513 2.325-0.315 3.21-1.85 0.887-1.533 0.885-3.193-0.002-3.705a1.157 1.157 0 0 0-0.55-0.151z m-8.163 0.003a1.157 1.157 0 0 0-0.55 0.151c-0.887 0.513-0.889 2.172-0.003 3.706 0.886 1.534 2.323 2.363 3.211 1.85 0.888-0.512 0.89-2.171 0.004-3.706-0.72-1.246-1.804-2.027-2.662-2z"/></svg>