<svg fill="#242B2F" role="img" viewBox="0 0 32 24" xmlns="http://www.w3.org/2000/svg"><title>Puma</title><path d="M31.366 0.335c-0.541-0.691-1.487-0.138-1.903 0.104-2.963 1.746-3.4 4.821-4.432 6.586-0.812 1.414-2.143 2.452-3.347 2.532-0.89 0.064-1.855-0.109-2.813-0.525-2.344-1.013-3.606-2.325-3.914-2.556-0.632-0.48-5.487-5.208-9.444-5.401 0 0-0.483-0.973-0.603-0.99-0.288-0.032-0.584 0.585-0.799 0.65-0.195 0.069-0.536-0.664-0.733-0.632-0.198 0.026-0.392 0.76-0.778 1.138-0.285 0.276-0.63 0.259-0.827 0.6-0.067 0.125-0.044 0.344-0.12 0.545-0.165 0.415-0.715 0.459-0.72 0.904 0 0.494 0.463 0.589 0.868 0.934 0.322 0.275 0.344 0.47 0.718 0.598 0.335 0.114 0.82-0.243 1.251-0.114 0.359 0.105 0.704 0.182 0.781 0.549 0.07 0.332 0 0.854-0.441 0.795-0.145-0.019-0.776-0.226-1.554-0.142-0.941 0.1-2.015 0.401-2.12 1.44-0.053 0.58 0.667 1.258 1.368 1.123 0.481-0.092 0.254-0.656 0.518-0.929 0.346-0.35 2.299 1.225 4.115 1.225 0.769 0 1.337-0.195 1.903-0.785 0.052-0.038 0.121-0.132 0.201-0.143a0.82 0.82 0 0 1 0.253 0.114c1.467 1.164 2.574 3.503 7.952 3.53 0.755 0.009 1.622 0.362 2.33 1.008 0.623 0.562 0.991 1.459 1.345 2.368 0.542 1.366 1.506 2.684 2.974 4.155 0.078 0.088 1.284 1.012 1.375 1.08 0.016 0.013 0.109 0.217 0.069 0.331-0.026 0.895-0.16 3.464 1.77 3.572 0.475 0.026 0.357-0.3 0.357-0.532-0.006-0.442-0.084-0.889 0.147-1.349 0.328-0.62-0.682-0.92-0.661-2.278 0.025-1.017-0.837-0.845-1.276-1.622-0.246-0.445-0.477-0.69-0.454-1.227 0.095-3.087-0.671-5.122-1.045-5.613-0.294-0.381-0.549-0.523-0.268-0.701 1.609-1.057 1.978-2.042 1.978-2.042 0.856-1.999 1.629-3.82 2.692-4.631 0.215-0.156 0.764-0.571 1.105-0.727 0.99-0.47 1.522-0.75 1.801-1.022 0.462-0.437 0.824-1.366 0.381-1.92z"/></svg>