<svg fill="#300D4F" role="img" viewBox="0 0 16 24" xmlns="http://www.w3.org/2000/svg"><title>Pusher</title><path d="M8 23.966v-6.017a0.035 0.035 0 0 1 0.018-0.031l7.732-4.464a0.035 0.035 0 0 0 0.018-0.031v-1.711a0.036 0.036 0 0 0-0.054-0.031l-7.66 4.423a0.036 0.036 0 0 1-0.054-0.031v-1.712a0.036 0.036 0 0 1 0.018-0.031l7.732-4.464a0.037 0.037 0 0 0 0.018-0.031v-1.711a0.036 0.036 0 0 0-0.054-0.031l-7.66 4.423a0.036 0.036 0 0 1-0.054-0.031v-1.711a0.035 0.035 0 0 1 0.018-0.031l7.732-4.463a0.036 0.036 0 0 0 0.018-0.031V4.515a0.076 0.076 0 0 0-0.035-0.062L8.036 0.01a0.07 0.07 0 0 0-0.072 0L6.5 0.855a0.036 0.036 0 0 0 0 0.062L14.161 5.34a0.036 0.036 0 0 1 0 0.062l-1.464 0.845a0.076 0.076 0 0 1-0.072 0L4.929 1.804a0.076 0.076 0 0 0-0.076 0l-1.46 0.844a0.036 0.036 0 0 0 0 0.062l7.659 4.424a0.036 0.036 0 0 1 0 0.062l-1.463 0.845a0.076 0.076 0 0 1-0.076 0l-7.692-4.444a0.076 0.076 0 0 0-0.076 0l-1.513 0.876v15.05a0.035 0.035 0 0 0 0.018 0.031l1.481 0.855a0.036 0.036 0 0 0 0.054-0.031V5.433a0.036 0.036 0 0 1 0.054-0.031l1.482 0.856a0.036 0.036 0 0 1 0.018 0.031v15.028a0.036 0.036 0 0 0 0.018 0.031l1.481 0.856a0.036 0.036 0 0 0 0.055-0.032V7.227a0.036 0.036 0 0 1 0.054-0.031l1.481 0.855a0.036 0.036 0 0 1 0.018 0.031v15.029a0.037 0.037 0 0 0 0.018 0.031l1.486 0.855A0.036 0.036 0 0 0 8 23.966z"/></svg>