<svg fill="#201B44" role="img" viewBox="0 0 28 24" xmlns="http://www.w3.org/2000/svg"><title>PyCQA</title><path d="M3.84 6.115c-0.204 1.38-0.284 1.968 1.023 1.968l-0.009 0.079H0.057l0.01-0.079c1.171 0 1.273-0.639 1.49-1.968l0.602-3.87c0.217-1.379 0.32-1.967-0.865-1.967l0.009-0.079H5.367c2.199 0 3.371 0.546 3.371 1.88 0 2.208-2.471 2.769-4.37 2.768h-0.205l0.01-0.093h0.172c1.593 0 2.014-1.708 2.013-3.083 0-0.959-0.389-1.388-1.287-1.389h-0.318z m9.185-1.453l-0.046-0.01c-0.763 2.918-1.514 3.597-2.723 3.597-1.569 0-1.528-1.171-1.397-1.957l0.555-3.404c0.033-0.227-0.148-0.399-0.467-0.296l-0.033-0.032c0.397-0.194 1.194-0.444 1.741-0.444 0.648 0 0.875 0.241 0.75 1.013l-0.592 3.644c-0.093 0.537 0.008 0.866 0.365 0.865 0.695 0 1.255-1.309 1.672-3.004 0.194-0.787 0.514-2.254 0.124-2.45l0.033-0.032c1.546-0.115 2.302-0.092 2.014 1.755l-0.616 3.903c-0.32 2.004-2.981 3.973-4.338 3.973-2.278 0-2.995-2.015-4.621-2.015-0.694 0-0.959 0.329-0.958 0.648 0 0.282 0.195 0.537 0.601 0.537 0.273 0 0.616-0.273 0.492-0.602 1.56-0.157 1.593 2.186-0.093 2.186-0.875 0-1.342-0.625-1.342-1.365 0-1.117 1.022-2.505 2.513-2.505 2.631 0 3.653 2.708 4.306 2.708 0.852 0 1.148-2.13 1.274-2.746zM5.906 23.922c-2.433-0.461-4.275-2.601-4.274-5.167 0-2.904 2.356-5.26 5.258-5.26 2.904 0 5.26 2.356 5.26 5.26a5.24 5.24 0 0 1-0.638 2.512l-2.038-3.525z m3.568-5.019l2.945 5.092H6.535z m8.835-9.757c-1.112-0.954-1.816-2.369-1.816-3.948 0-2.869 2.33-5.198 5.2-5.198 2.869 0 5.198 2.33 5.198 5.198 0 1.429-0.577 2.723-1.51 3.665l0.01 0.039c-0.602 0.607-1.365 1.07-2.245 1.32-1.756 0.5-3.555 0.036-4.837-1.076m6.885-0.937c0.696-0.809 1.117-1.86 1.116-3.011 0-2.065-1.357-3.814-3.228-4.404z m0.559 12.584l1.852 3.207H15.623l5.991-10.375 2.755 4.771H20.844v2.2l4.711-0.001c0.06 0.072 0.127 0.138 0.198 0.198m-4.329-1.816h4.452c0.188-0.339 0.55-0.569 0.965-0.569 0.608 0 1.101 0.494 1.102 1.101 0 0.609-0.494 1.103-1.102 1.103a1.105 1.105 0 0 1-0.98-0.597H21.424z"/></svg>