<svg fill="#E92063" role="img" viewBox="0 0 28 24" xmlns="http://www.w3.org/2000/svg"><title>Pydantic</title><path d="M27.638 18.132l-4.879-6.765-7.896-10.952c-0.401-0.554-1.327-0.554-1.726 0l-7.894 10.949-4.882 6.768a1.067 1.067 0 0 0 0.53 1.634l12.776 4.181h0.002a1.061 1.061 0 0 0 0.66 0h0.002l12.775-4.181c0.323-0.106 0.577-0.358 0.68-0.683a1.056 1.056 0 0 0-0.149-0.951h0.002ZM14 2.855l5.121 7.102-4.788-1.568c-0.037-0.012-0.076-0.009-0.113-0.019a0.923 0.923 0 0 0-0.111-0.018c-0.037-0.005-0.072-0.018-0.109-0.019s-0.072 0.014-0.108 0.019a0.853 0.853 0 0 0-0.111 0.018c-0.037 0.007-0.076 0.007-0.11 0.019L8.913 9.949l-0.03 0.009 5.121-7.101h-0.002Zm-7.234 10.034l5.575-1.826 0.595-0.194v10.599L2.94 18.196l3.825-5.305Zm8.3 8.577V10.871l6.17 2.02 3.824 5.303-9.994 3.273Z"/></svg>