<svg fill="#3C2179" role="img" viewBox="0 0 25 24" xmlns="http://www.w3.org/2000/svg"><title>PyG</title><path d="M16.171 8.042l-2.666 2.74a1.149 1.149 0 0 0-0.534-0.181l-0.29-2.627a1.157 1.157 0 0 0 0.809-0.898l2.479 0.362c0 0.053 0.004 0.107 0.013 0.159 0.03 0.16 0.096 0.312 0.189 0.445Zm-4.44 3.486H9.15a1.142 1.142 0 0 0-0.339-0.584l2.823-3.167c0.173 0.136 0.382 0.219 0.6 0.241l0.288 2.632a1.155 1.155 0 0 0-0.792 0.878Zm-6.755-0.43l1.897 0.6c-0.01 0.104-0.006 0.208 0.011 0.312a1.161 1.161 0 0 0 1.355 0.924c0.062-0.012 0.123-0.03 0.181-0.053l2.475 3.051a1.148 1.148 0 0 0-0.231 0.842l-2.747 0.91a1.155 1.155 0 0 0-1.15-0.587l-2.181-5.575a1.147 1.147 0 0 0 0.39-0.423Zm3.082 7.113c0-0.034-0.008-0.068-0.008-0.104l2.749-0.912a1.157 1.157 0 0 0 2.079-1.008l2.605-1.674c0.14 0.175 0.328 0.307 0.541 0.376l-0.321 3.848c-0.03 0.008-0.06 0.002-0.09 0.008a1.159 1.159 0 0 0-0.861 0.713l-6.694-1.246ZM9.949 4.684l1.496 1.465c-0.213 0.262-0.3 0.604-0.239 0.936 0.025 0.125 0.07 0.245 0.136 0.356l-2.918 3.275a1.142 1.142 0 0 0-1.428 0.558l-1.884-0.595a1.16 1.16 0 0 0-0.008-0.344 1.142 1.142 0 0 0-0.259-0.533l3.906-4.909a1.142 1.142 0 0 0 1.198-0.208Zm7.255 3.851a0.98 0.98 0 0 0 0.544-0.177l3.227 3.371a1.151 1.151 0 0 0-0.207 0.707l-3.379 0.788a1.159 1.159 0 0 0-0.695-0.541l0.507-4.148h0.003Zm1.183-4.028l-0.935 1.765a1.142 1.142 0 0 0-1.424 0.727l-2.547-0.375a1.142 1.142 0 0 0-1.691-0.768L10.221 4.328c0.052-0.106 0.088-0.219 0.104-0.336l7.659-0.135c0.056 0.256 0.198 0.485 0.403 0.649Zm-3.077 8.869a1.142 1.142 0 0 0-0.064 0.641c0.007 0.033 0.022 0.067 0.032 0.103l-2.646 1.703a1.161 1.161 0 0 0-0.4-0.26l0.601-2.649a1.142 1.142 0 0 0 0.916-0.412l1.561 0.875Zm0.863-0.724a1.142 1.142 0 0 0-0.624 0.339l-1.583-0.884a1.131 1.131 0 0 0-0.147-1.017l2.666-2.742c0.085 0.056 0.177 0.101 0.275 0.132l-0.508 4.168c-0.027 0.003-0.053 0.002-0.079 0.004Zm-7.369 0.001a1.157 1.157 0 0 0 0.362-0.68h2.563c0.071 0.372 0.322 0.687 0.669 0.84l-0.603 2.667a1.197 1.197 0 0 0-0.201 0.018 1.15 1.15 0 0 0-0.367 0.14L8.804 12.653ZM14.412 23.999l-8.727-1.827 1.074-2.784c0.12 0.017 0.241 0.016 0.359-0.005a1.157 1.157 0 0 0 0.869-0.734l6.682 1.244c-0.002 0.433 0.242 0.827 0.631 1.018l-0.888 3.089Zm-9.096-2.103l-4.85-7.417 2.87-2.964c0.247 0.161 0.547 0.221 0.838 0.169l2.164 5.553a1.151 1.151 0 0 0 0 2.012L5.317 21.897Zm16.711-2.684l-7.111 4.648 0.808-2.821c0.106 0.011 0.213 0.008 0.318-0.01 0.526-0.101 0.916-0.549 0.941-1.085l5.044-0.732Zm0.07-18.904L24.573 12.721l-1.492-0.312a1.157 1.157 0 0 0-1.293-1.166l-2.117-6.62a1.157 1.157 0 0 0 0.584-1.227 1.136 1.136 0 0 0-0.252-0.519L22.098 0.308Zm2.447 12.861l-1.989 5.513-5.638 0.819a1.133 1.133 0 0 0-0.203-0.354l4.668-5.732c0.598 0.324 1.346 0.06 1.607-0.568l1.555 0.322ZM0.427 13.881L2.211 5.359l5.895-1.111c0.06 0.151 0.153 0.289 0.27 0.402L4.498 9.525a1.142 1.142 0 0 0-0.747-0.116 1.161 1.161 0 0 0-0.925 1.35c0.03 0.161 0.096 0.314 0.19 0.448L0.427 13.88Zm20.863-2.459l-3.231-3.37a1.142 1.142 0 0 0-0.217-1.566l0.936-1.765c0.151 0.047 0.312 0.061 0.471 0.043l2.117 6.621-0.076 0.037ZM21.755 0.027l-2.093 2.573a1.142 1.142 0 0 0-1.519 0.387L10.699 0 21.756 0.026ZM2.747 4.804L9.871 0.146l8.108 3.253v0.014L10.309 3.548a1.157 1.157 0 0 0-2.284 0.262l-5.278 0.995Zm13.618 14.061a1.187 1.187 0 0 0-0.226-0.092l0.322-3.831a1.016 1.016 0 0 0 0.136-0.012 1.157 1.157 0 0 0 0.934-1.288l3.337-0.772c0.043 0.096 0.101 0.184 0.168 0.264l-4.671 5.731Z"/></svg>