<svg fill="#3775A9" role="img" viewBox="0 0 28 24" xmlns="http://www.w3.org/2000/svg"><title>PyPI</title><path d="M27.577 13.799v4.456L23.737 19.653l-0.089 0.063 0.06 0.042 3.929-1.431 0.029-0.041v-4.552l-0.06-0.041-0.029 0.105zM27.235 4.732l-3.463 1.261v4.455l3.803-1.384V4.608zM27.575 13.659V9.203l-3.799 1.384v4.456zM23.646 15.086V10.633L19.888 12v4.456zM19.733 21.106v-4.455l-3.773 1.373v4.456zM19.888 16.62v4.405l3.774-1.373V15.246l-3.774 1.373z m2.383 2.144c-0.418 0.153-0.755-0.084-0.755-0.528s0.337-0.927 0.755-1.078c0.416-0.151 0.754 0.085 0.754 0.528s-0.338 0.927-0.754 1.078zM15.395 8.942l0.416-0.15-3.741-1.363-3.785 1.378 0.116 0.042 3.627 1.321zM23.688 10.479V6.022L19.888 7.405v4.456zM19.76 11.907V7.45l-3.76 1.369v4.455zM15.871 8.864l-3.799 1.383v4.457l3.799-1.384zM8.2 13.327l3.783 1.377v-4.457L8.2 8.87zM12.11 7.3l3.736 1.359V4.254l-3.735-1.359zM23.688 1.426L19.911 2.8v4.457l3.777-1.375zM19.637 2.779L15.963 1.443l-3.723 1.355 3.673 1.337zM17.832 3.579l-1.849 0.675v4.405l3.777-1.375V2.879l-1.928 0.7z m-0.445 3.164c-0.418 0.153-0.754-0.084-0.754-0.528s0.336-0.926 0.754-1.078c0.417-0.151 0.755 0.084 0.755 0.529s-0.338 0.926-0.755 1.077zM11.983 19.3v-4.457l-3.783-1.377V17.922zM15.911 17.901v-4.456l-3.839 1.398v4.456zM16 17.87l3.758-1.367V12.046l-3.758 1.366zM15.911 22.497l-3.839 1.397v-4.455h-0.089v4.455l-3.783-1.377v-4.456l-0.06-0.066-0.029-0.068-3.799-1.378v-4.497l0.039 0.015 3.743 1.362 0.017-0.089-3.714-1.351 3.713-1.352v-0.124L4.748 9.29l-0.35-0.128 3.713-1.353v0.999l0.09-0.063V6.043l3.709 1.349 0.066-0.069L8.401 6.021l-0.116-0.042 3.69-1.343v-0.094L8.14 5.938v0.02l-0.029 0.021v1.734L4.251 9.119v0.023l-0.028 0.019v4.563l-3.861 1.404v0.022L0.334 15.171v4.549l0.028 0.042 3.872 1.409 0.01-0.007 0.007 0.012 3.873 1.41 0.009-0.007 0.007 0.011 3.872 1.409 0.016-0.01 0.013 0.011 3.929-1.43 0.03-0.043-0.089-0.03zM4.312 9.225l3.709 1.349-3.709 1.352V9.223zM4.206 21.065L0.423 19.689v-4.456l2.689 0.98 1.093 0.397v4.456z m0.017-4.544L0.715 15.246l-0.207-0.075 3.715-1.352v2.703z m3.871 5.958l-3.782-1.377v-4.456l3.782 1.377v4.456zM27.428 4.522l-3.656-1.332v2.663zM23.551 1.344l-3.689-1.344-3.724 1.355 3.697 1.346z"/></svg>