<svg fill="#F1BF7A" role="img" viewBox="0 0 26 24" xmlns="http://www.w3.org/2000/svg"><title>PySyft</title><path d="M17.757 18.293l1.485-0.484V13.724Zm6.818-5.922L25.617 9.166l-7.135-5.183z m-4.569-4.747l2.538 7.804 1.565-2.158z m0.143 3.365l1.671 5.149-1.671 1.216zM10.615 20.611l3.878-1.259H9.702ZM13 22.546l4.373-3.179-6.043 1.967z m3.434 1.288l4.094-5.639-6.629 4.817z m4.362 0.166h-3.364l6.085-8.377Zm-10.153-2.047l-6.63-4.817v2.662z m-5.441 2.047h8.807l-9.846-3.202Zm-0.384-9.827l-0.638 1.966 4.373 3.177z m2.862 2.402l-2.395-3.302 0.914-1.258ZM0.383 9.166l2.725 8.391V7.187Zm6.166-3.25l-2.533 0.825v6.976Zm1.001-0.147l-1.675 5.15 3.745-5.149Zm3.065 0.167l1.486 0.484-3.886 2.823z m5.113-3.954L12.998 0 5.857 5.187ZM9.789 4.864h8.212L16.435 2.705z m3.241 0.906l6.062 1.969-0.641-1.969z m6.212 2.968v1.565l-3.892-2.826Z"/></svg>