<svg fill="#1D9FD7" role="img" viewBox="0 0 34 24" xmlns="http://www.w3.org/2000/svg"><title>PythonAnywhere</title><path d="M16.22 24c-0.124-0.152-0.302-0.251-0.453-0.352-0.127-0.076-0.177-0.152-0.152-0.329 0.253-1.487 0.479-2.974 0.706-4.488 0.152-1.008 0.304-2.016 0.479-3.075 0.228 0.152 0.454 0.304 0.656 0.455 0.05 0.05 0.025 0.126 0.024 0.176-0.05 0.352-0.101 0.732-0.176 1.084l-0.377 2.444-0.379 2.421c-0.026 0.202-0.051 0.428-0.1 0.631 0.101 0.025 0.152-0.051 0.226-0.076 1.915-1.008 3.832-1.991 5.749-3l0.151-0.075c0.05-0.026 0.099-0.051 0.151 0 0.202 0.124 0.403 0.276 0.63 0.428-0.101 0.05-0.152 0.101-0.227 0.126-2.219 1.16-4.412 2.32-6.631 3.479-0.076 0.025-0.152 0.05-0.176 0.126l-0.101 0.025z m-6.731-13.613c-0.051 0.403-0.126 0.755-0.176 1.109-0.177 1.16-0.378 2.294-0.555 3.454-0.101 0.681-0.226 1.362-0.328 2.042-0.025 0.126-0.076 0.177-0.176 0.202-0.202 0.05-0.428 0.126-0.63 0.201-0.025-0.051 0-0.101 0-0.152 0.202-1.259 0.403-2.495 0.605-3.756 0.202-1.21 0.378-2.444 0.58-3.655 0.025-0.101 0.05-0.177 0.176-0.201 0.175-0.051 0.327-0.101 0.504-0.152 0.101-0.05 0.177-0.025 0.277 0.051l1.287 1.284c1.362 1.363 2.748 2.724 4.109 4.06 0.025 0.026 0.05 0.076 0.101 0.101-0.253 0.101-0.505 0.152-0.732 0.252-0.076 0.025-0.126-0.051-0.152-0.076-0.327-0.327-0.655-0.656-1.008-0.983a518.874 518.874 0 0 1-3.731-3.706c-0.05 0-0.075-0.025-0.152-0.075m6.556 3.908a11.442 11.442 0 0 1-0.555-0.53c-0.051-0.051-0.025-0.126 0-0.177 0.152-0.453 0.302-0.907 0.479-1.361l1.664-4.764a0.467 0.467 0 0 0 0.05-0.177c-0.101-0.025-0.177 0.025-0.251 0.05-2.067 0.656-4.109 1.287-6.177 1.941-0.329 0.101-0.228 0.127-0.454-0.101l-0.379-0.378c0.051-0.075 0.152-0.075 0.228-0.101 2.394-0.755 4.789-1.512 7.16-2.269 0.175-0.05 0.276-0.025 0.403 0.101 0.075 0.101 0.202 0.202 0.303 0.304 0.101 0.075 0.101 0.175 0.074 0.276-0.276 0.757-0.529 1.513-0.806 2.269-0.554 1.588-1.109 3.176-1.664 4.741a0.439 0.439 0 0 1-0.075 0.175m-0.428 1.588a7.274 7.274 0 0 0-0.102 0.732c0 0.101-0.076 0.101-0.152 0.125-0.554 0.177-1.083 0.354-1.613 0.504-1.563 0.505-3.151 0.983-4.714 1.489-0.05 0.025-0.126 0.05-0.202 0.075a0.392 0.392 0 0 0 0.202 0.151c1.765 1.21 3.529 2.444 5.294 3.656 0.152 0.101 0.253 0.202 0.177 0.403-0.051 0.177-0.051 0.354-0.101 0.53-0.076 0-0.126-0.051-0.176-0.076C12.161 22.059 10.096 20.622 8.027 19.208c-0.126-0.101-0.177-0.175-0.152-0.352 0.026-0.152 0.076-0.278 0.076-0.428 0-0.127 0.076-0.177 0.177-0.203 2.444-0.782 4.916-1.537 7.36-2.32 0.028 0 0.077 0 0.127-0.023M10.018 0.429c-0.025 0.253-0.076 0.504-0.101 0.731 0 0.101-0.101 0.101-0.176 0.101-0.453 0.152-0.932 0.276-1.387 0.428-1.664 0.504-3.302 1.008-4.965 1.512-0.051 0.026-0.127 0.026-0.177 0.101 0.076 0.051 0.126 0.101 0.202 0.152 1.765 1.236 3.505 2.495 5.269 3.731 0.124 0.101 0.175 0.177 0.152 0.354a4.654 4.654 0 0 0-0.102 0.58c-0.076-0.026-0.126-0.076-0.202-0.103L2.406 3.707c-0.152-0.102-0.202-0.203-0.152-0.354 0.025-0.152 0.051-0.276 0.076-0.428 0-0.101 0.05-0.152 0.176-0.203l1.74-0.529c1.864-0.555 3.705-1.134 5.571-1.688 0.051-0.051 0.126-0.051 0.201-0.076m7.563 5.143c-0.202 0.075-0.403 0.124-0.605 0.202-0.126 0.05-0.226 0.025-0.327-0.076-0.681-0.706-1.386-1.386-2.093-2.093a253.971 253.971 0 0 0-2.52-2.496c-0.051-0.05-0.076-0.126-0.177-0.151a8.397 8.397 0 0 0-0.126 0.781c-0.202 1.186-0.378 2.371-0.58 3.53-0.127 0.757-0.253 1.489-0.353 2.243-0.025 0.127-0.05 0.177-0.177 0.202-0.202 0.051-0.428 0.127-0.63 0.202-0.025-0.152 0.025-0.276 0.05-0.377l0.757-4.69c0.126-0.833 0.278-1.664 0.403-2.496 0.026-0.101 0.051-0.152 0.152-0.176 0.177-0.051 0.327-0.101 0.504-0.152 0.126-0.051 0.202-0.025 0.302 0.076l2.016 2.016c1.085 1.084 2.194 2.168 3.279 3.252 0.025 0.051 0.101 0.101 0.125 0.203m0.928 10.709a5.148 5.148 0 0 1-0.179-1.049c-0.159-1.324-0.019-2.603 0.497-3.831 0.79-1.917 2.154-3.338 4.01-4.243a11.213 11.213 0 0 1 2.922-0.934c0.069 0.081 0.037 0.18 0.032 0.256l0.044 0.458c0.018 0.102-0.036 0.149-0.138 0.166-0.668 0.156-1.339 0.362-1.965 0.647-1.696 0.74-2.988 1.888-3.812 3.549a6.841 6.841 0 0 0-0.726 3.513c0.028 0.331 0.055 0.66 0.108 0.993 0.018 0.102 0.012 0.178-0.118 0.22a4.93 4.93 0 0 0-0.675 0.255m3.494 2.444c0.018-0.253 0.008-0.481 0.027-0.732 0.006-0.101 0.035-0.149 0.162-0.165 0.664-0.105 1.308-0.262 1.908-0.549 2.218-0.983 3.673-2.651 4.267-5.009 0.244-0.943 0.286-1.9 0.202-2.867 0.003-0.05-0.017-0.127-0.014-0.178 0.008-0.099-0.083-0.233-0.003-0.304 0.055-0.072 0.181-0.062 0.283-0.08 0.18-0.039 0.334-0.079 0.515-0.141 0.079 0.334 0.104 0.69 0.107 1.018a10.108 10.108 0 0 1-0.075 2.143 7.805 7.805 0 0 1-2.041 4.254c-1.201 1.281-2.697 2.06-4.39 2.422a3.926 3.926 0 0 1-0.948 0.187m7.378-14.419c0.075 0.006 0.104-0.044 0.156-0.065a75.176 75.176 0 0 1 3.127-1.728c0.054-0.047 0.131-0.066 0.203-0.011 0.217 0.141 0.46 0.284 0.703 0.428a0.766 0.766 0 0 1-0.185 0.114c-1.312 0.692-2.647 1.357-3.959 2.047a1.194 1.194 0 0 0-0.269 0.235c-0.482 0.75-0.991 1.523-1.473 2.273-0.086 0.145-0.086 0.145-0.231 0.059-0.146-0.087-0.267-0.171-0.413-0.256-0.145-0.086-0.145-0.086-0.061-0.208l0.935-1.449c0.197-0.29 0.37-0.58 0.566-0.87a0.508 0.508 0 0 0 0.097-0.272 251.514 251.514 0 0 1 0.291-4.553c0.196 0.088 0.363 0.226 0.56 0.317 0.221 0.115 0.262 0.244 0.243 0.498a105.437 105.437 0 0 0-0.221 2.814c-0.014 0.2-0.054 0.4-0.069 0.627m-5.361 6.169c-0.025 0.352-0.436 0.829-0.794 0.88a0.632 0.632 0 0 1-0.642-0.221 0.594 0.594 0 0 1-0.106-0.639 1.201 1.201 0 0 1 0.602-0.666 0.614 0.614 0 0 1 0.654 0.046c0.215 0.166 0.329 0.352 0.286 0.6m2.563 1.671c-0.025 0.352-0.438 0.829-0.797 0.905-0.257 0.058-0.453-0.032-0.64-0.221a0.552 0.552 0 0 1-0.111-0.615c0.124-0.32 0.318-0.559 0.631-0.69 0.445-0.221 0.95 0.144 0.917 0.621M1.649 4.312c0.226 0.126 0.403 0.276 0.63 0.428 0.076 0.051 0.051 0.126 0.026 0.201l-0.228 1.436c-0.276 1.715-0.554 3.404-0.831 5.119 0 0.05-0.051 0.126 0 0.202 0.076-0.051 0.152-0.076 0.226-0.126l5.673-3.101c0.152-0.076 0.251-0.076 0.378 0.025 0.152 0.127 0.302 0.228 0.479 0.353-0.051 0.076-0.127 0.101-0.177 0.126-2.194 1.211-4.387 2.396-6.555 3.604-0.152 0.077-0.253 0.102-0.378-0.024-0.101-0.101-0.226-0.177-0.352-0.252-0.101-0.05-0.127-0.126-0.101-0.227 0.101-0.605 0.202-1.185 0.276-1.789 0.304-1.917 0.631-3.833 0.934-5.749a0.349 0.349 0 0 1 0-0.226"/></svg>