<svg fill="#E40000" role="img" viewBox="0 0 34 24" xmlns="http://www.w3.org/2000/svg"><title>Qantas</title><path d="M0.12 0.001l0.307 0.805c2.708 7.042 7.829 3.782 14.65 10.042l0.079 0.07c0.917 0.843 1.547 0.062 1.249-0.43a1.069 1.069 0 0 1-0.232-0.748 9.424 9.424 0 0 1 3.666 1.925l-0.085 0.177c-0.515 1.027-5.569 0.592-5.626 2.734a1.363 1.363 0 0 0 0.853 1.298l0.999 0.404a24.391 24.391 0 0 1 8.561 5.831 0.121 0.121 0 0 1-0.089 0.207 0.111 0.111 0 0 1-0.076-0.025 24.363 24.363 0 0 0-11.496-5.078 0.657 0.657 0 0 1-0.549-0.577c-0.771-7.158-7.842-7.644-10.538-12.244l7.473 19.608H33.88L14.157 4.192a14.097 14.097 0 0 0-9.91-4.192Z"/></svg>