<svg fill="#4F46DC" role="img" viewBox="0 0 25 24" xmlns="http://www.w3.org/2000/svg"><title>Qase</title><path d="M24.449 19.052s-0.809 0.464-1.81 0.282c-0.192-0.03-0.373-0.101-0.555-0.191a11.867 11.867 0 0 0 2.386-7.147C24.469 5.373 19.08 0 12.434 0S0.4 5.373 0.4 11.996c0 6.623 5.391 11.997 12.034 11.996 2.104 0 4.076-0.545 5.796-1.482 0.567 0.595 1.355 1.22 2.316 1.412 1.811 0.343 3.126-0.484 3.661-1.594 0.455-0.968 0.486-2.118 0.242-3.276m-12.025-0.131c-3.822 0-6.938-3.105-6.937-6.915 0-3.811 3.116-6.915 6.937-6.916 3.824 0 6.948 3.096 6.948 6.906 0 1.17-0.292 2.279-0.819 3.247-0.151-0.192-0.282-0.373-0.373-0.495-0.355-0.484-0.719-0.978-1.073-1.482-0.465-0.655-1.537-1.966-3.014-2.249-1.81-0.343-3.125 0.484-3.66 1.594-0.456 0.968-0.486 2.118-0.253 3.266 0 0 0.809-0.464 1.81-0.283 0.728 0.131 1.416 0.686 2.296 1.775 0.071 0.091 0.374 0.494 0.778 1.019-0.809 0.343-1.699 0.534-2.64 0.534"/></svg>