<svg fill="#5C0D34" role="img" viewBox="0 0 28 24" xmlns="http://www.w3.org/2000/svg"><title>Qatar Airways</title><path d="M21.672 13.322c0.013 0.327 0.009 0.652-0.007 0.972-3.183 0.127-6.202 0.317-6.202 0.534 0 0.212 2.952 0.401 6.096 0.526a8.353 8.353 0 0 1-0.215 1.068c-3.1 0.127-5.98 0.316-5.98 0.528 0 0.201 2.691 0.382 5.664 0.509-0.134 0.382-0.289 0.748-0.458 1.103-2.556 0.121-4.673 0.286-4.673 0.465 0 0.168 1.845 0.323 4.174 0.44a11.53 11.53 0 0 1-0.409 0.62c-0.155 0.213-0.317 0.427-0.488 0.636-1.457 0.109-2.456 0.235-2.456 0.37 0 0.116 0.713 0.223 1.814 0.319a10.474 10.474 0 0 1-2.147 1.636s-0.988-0.848-1.801-1.841c-0.729-0.884-2.267-3.216-2.627-3.735-0.363-0.522-0.601-0.677-1.026-0.524-0.568 0.2-1.23 0.301-1.432 0.3-0.204 0-0.313-0.077 0.029-0.213 0.337-0.136 1.677-0.769 2.34-2.08 0.74-1.474 0.089-3.508 0.089-3.509-0.25 1.087-0.815 1.492-0.815 1.492 0.184-1.009-0.016-1.925-0.516-2.567l-0.278 1.28s-0.174-0.012-0.607 0.352c-0.428 0.363-0.548 0.891-0.548 0.89 0.342 0.139 0.745-0.204 0.744-0.203-0.516 1.949-1.264 3.533-1.806 4.372-0.546 0.837-0.99 1.154-1.539 1.377-0.458 0.184-0.612-0.032-0.612-0.033a8.294 8.294 0 0 1-1.015-1.043s-0.024-0.046 0.058-0.042c0.227 0.003 0.625-0.378 0.712-0.54 0.097-0.183 0.09-0.32 0.038-0.331-0.046-0.008-0.133 0.138-0.569 0.408-0.428 0.273-0.621 0.086-0.769-0.069-0.108-0.116 0-0.268 0.066-0.361 0.069-0.086 2.342-4.321 8.354-8.777 7.891-5.836 12.922-7.409 13.209-7.524 0.192-0.075 0.502-0.174 0.574-0.102 0.075 0.082 0.116 0.148 0.102 0.244-0.009 0.095-0.058 0.142-0.42 0.303-3.031 1.335-6.563 3.555-8.569 4.848-2.471 1.203-4.826 2.921-4.91 2.962-0.19 0.117-0.053 0.289 0.067 0.218 4.164-2.773 9.052-4.662 14.456-6.21 0.254-0.072 0.396-0.072 0.442-0.016a0.436 0.436 0 0 1 0.074 0.217c0.007 0.097-0.074 0.15-0.298 0.238-5.796 2.156-10.075 4.155-12.829 6.008 0 0-0.283 0.169-0.287 0.368 0 0.075 0.153 0.084 0.153 0.084 1.376 0.024 3.22 0.106 4.092 0.157 0 0-0.12 0.444-0.96 0.801-0.648 0.278-1.246 0.234-1.841 0.236-0.135 0-0.243 0.13-0.142 0.275 0.054 0.069 1.319 2.101 5.904 2.564m-10.514 4.272c-0.623 0.223-1.361 0.342-1.662 0.343-0.522 0-1.375 0.289-1.678 0.55a389.926 389.926 0 0 0 3.948-0.08 67.332 67.332 0 0 1-0.372-0.546 1.795 1.795 0 0 0-0.217-0.273c-0.012 0.003-0.009 0-0.018 0.006M3.497 8.162c1.654 0 4.705-0.04 7.721-0.11 0.344-0.276 0.701-0.552 1.073-0.83-3.343-0.084-6.944-0.138-8.794-0.138-0.782 0-1.418 0.243-1.418 0.539 0 0.297 0.636 0.538 1.418 0.538m0.471-2.599c0 0.234 0.501 0.423 1.116 0.423 1.887 0 6.092-0.068 9.159-0.173 0.229-0.16 0.457-0.323 0.683-0.475a327.811 327.811 0 0 0-9.842-0.198c-0.615 0-1.116 0.19-1.116 0.423m13.63 5.863c0.335 0.2 0.748 0.403 1.255 0.588 1.604-0.081 2.637-0.17 2.638-0.266 0-0.116-1.589-0.226-3.893-0.322m-15.058-1.135c1.404 0 3.697-0.027 6.2-0.074 0.357-0.345 0.743-0.694 1.147-1.048a407.642 407.642 0 0 0-7.347-0.095c-0.881 0-1.594 0.273-1.594 0.608 0 0.335 0.713 0.608 1.594 0.609m15.963-2.832a35.28 35.28 0 0 0-0.701 0.372c1.183-0.064 1.932-0.133 1.932-0.207 0-0.058-0.465-0.112-1.23-0.165m-10.911-3.239c1.8 0 7.271-0.134 7.271-0.298 0-0.168-5.474-0.302-7.271-0.302-0.348 0-0.633 0.134-0.633 0.301 0 0.165 0.285 0.301 0.633 0.3M19.373 9.629a1.029 1.029 0 0 1-0.11 0.252c0.997-0.062 1.609-0.131 1.609-0.2 0-0.067-0.554-0.131-1.462-0.191z m-6.799 9.97c-3.415-0.089-7.172-0.143-9.076-0.144-0.782 0-1.418 0.242-1.418 0.539 0 0.296 0.636 0.538 1.418 0.538 2.007 0 6.058-0.061 9.617-0.158-0.18-0.254-0.362-0.515-0.541-0.775m1.621 2.203c-3.07-0.104-7.234-0.171-9.11-0.171-0.615 0-1.116 0.19-1.116 0.425 0 0.231 0.501 0.421 1.116 0.421 1.969 0 6.449-0.072 9.537-0.187a15.188 15.188 0 0 1-0.428-0.488m-7.233 1.895c0 0.164 0.285 0.303 0.633 0.303 1.798 0 7.271-0.139 7.271-0.303 0-0.165-5.471-0.298-7.271-0.298-0.348 0-0.633 0.133-0.633 0.298m-3.236-7.192c0.032-0.15 0.101-0.317 0.237-0.498-0.02 0.023-0.028 0.045-0.007 0.008 0.123-0.212 0.282-0.474 0.485-0.776-0.942-0.01-1.77-0.016-2.421-0.016-0.935 0-1.695 0.289-1.695 0.645 0 0.357 0.76 0.645 1.695 0.646 0.48 0 1.058-0.003 1.706-0.009m1.388 2.021c-0.229-0.223-0.997-1.107-1.091-1.191-0.559-0.003-1.062-0.007-1.481-0.007-0.881 0-1.594 0.271-1.593 0.61 0 0.333 0.713 0.607 1.593 0.607 0.679 0 1.559-0.008 2.572-0.019m-0.122-4.085c0.281-0.378 0.598-0.8 0.971-1.254-1.651-0.022-3.098-0.035-4.113-0.035-0.957 0-1.729 0.294-1.73 0.656 0 0.362 0.773 0.657 1.73 0.657 0.807 0 1.902-0.008 3.142-0.023m-2.972-2.048c1.122 0 2.781-0.017 4.655-0.046 0.345-0.378 0.702-0.775 1.098-1.183a345.847 345.847 0 0 0-5.753-0.06c-0.935 0-1.695 0.285-1.695 0.643 0 0.359 0.76 0.645 1.695 0.646Z"/></svg>