<svg fill="#2F67BA" role="img" viewBox="0 0 25 24" xmlns="http://www.w3.org/2000/svg"><title>qbittorrent</title><path d="M12.411 24c-1.311 0-2.606-0.232-3.833-0.705-3.402-1.024-6.203-3.867-7.437-7.584-1.231-3.71-0.685-7.658 1.46-10.559C4.558 2.033 8.175 0.089 12.242 0.003c4.066-0.079 7.762 1.704 9.886 4.787a12.072 12.072 0 0 1 2.371 7.148c0.138 3.735-1.751 7.372-5.055 9.733-2.148 1.536-4.612 2.329-7.033 2.329z m0.11-22.325c-0.081 0-0.162 0-0.244 0.002-3.502 0.074-6.602 1.726-8.294 4.417-1.857 2.517-2.311 5.896-1.251 9.091 1.061 3.199 3.45 5.639 6.389 6.526 3.026 1.166 6.499 0.633 9.35-1.403 2.848-2.036 4.475-5.146 4.353-8.322v-0.032c0-2.215-0.73-4.412-2.056-6.188-1.781-2.581-4.842-4.092-8.247-4.092zM9.905 20.25v-4.58a2.664 2.664 0 0 1-0.953 0.863 2.574 2.574 0 0 1-1.29 0.345c-1.016 0-1.894-0.444-2.632-1.331-0.731-0.887-1.098-2.103-1.097-3.648 0-0.939 0.148-1.782 0.444-2.528 0.301-0.746 0.734-1.31 1.3-1.691A3.262 3.262 0 0 1 7.549 7.098c1.059 0 1.892 0.487 2.502 1.461v-1.251h1.306v12.941H9.905z m-4.48-8.289c0 1.204 0.232 2.109 0.695 2.713 0.463 0.6 1.016 0.9 1.663 0.9 0.619 0 1.151-0.286 1.597-0.855 0.446-0.576 0.67-1.448 0.671-2.617 0-1.246-0.237-2.181-0.711-2.811-0.468-0.627-1.02-0.941-1.654-0.941-0.63 0-1.165 0.293-1.606 0.88-0.435 0.581-0.654 1.492-0.655 2.731m9.555 4.704h-1.347V3.751h1.453v4.607c0.613-0.84 1.396-1.259 2.348-1.259 0.526 0 1.024 0.117 1.493 0.351 0.464 0.222 0.864 0.558 1.161 0.979 0.307 0.416 0.546 0.922 0.719 1.514 0.172 0.593 0.258 1.228 0.258 1.903 0 1.604-0.363 2.842-1.089 3.718-0.727 0.874-1.599 1.313-2.615 1.313-1.011 0-1.805-0.46-2.38-1.383v1.17m-0.016-4.748c0 1.123 0.14 1.933 0.42 2.433 0.456 0.815 1.075 1.224 1.855 1.224 0.635 0 1.184-0.3 1.647-0.898 0.462-0.604 0.693-1.504 0.693-2.697 0-1.221-0.224-2.123-0.67-2.704-0.44-0.58-0.975-0.872-1.606-0.872-0.634 0-1.183 0.303-1.646 0.907-0.463 0.6-0.694 1.469-0.694 2.608"/></svg>