<svg fill="#FF6600" role="img" viewBox="0 0 25 24" xmlns="http://www.w3.org/2000/svg"><title>QEMU</title><path d="M12.503 0C5.84 0 0.436 5.372 0.436 12s5.405 12 12.067 12c2.181 0 4.223-0.573 5.987-1.578l0.627 1.578h4.867l-1.903-4.704A11.909 11.909 0 0 0 24.564 12C24.564 5.372 19.166 0 12.503 0zM9.301 1.977c0.4 0.341 0.326 0.199 0.865 0.134 0.613-0.399 0.898 0.947 1.153 0.196 0.752 0.098 1.55 0.342 2.262 0.587a3.465 3.465 0 0 1 1.869 1.134l-0.014 0.008 0.352 0.465c0.045 0.08 0.082 0.165 0.12 0.249 0.143 1.211 1.488 1.196 2.39 1.634 0.771 0.273 1.699 0.69 1.794 1.62-0.194-0.042-0.946-0.926-1.538-1.013a3.94 3.94 0 0 1-1.1-0.256L15.375 6.35v-0.007a3.051 3.051 0 0 1-0.31-0.053v0.013l-2.943-0.364c0.048 0.033 0.101 0.077 0.149 0.12l3.016 0.588v-0.007l0.21 0.054 0.843 0.189c0.167 0.016 0.336 0.043 0.473 0.067 0.861 0.237 1.878 0.195 2.585 0.796-0.185 0.354-1.216 0.154-1.728 0.109-0.062-0.012-0.132-0.023-0.195-0.034l-0.035-0.007c-0.7-0.114-1.419-0.121-2.092 0.088h-0.007a3.21 3.21 0 0 0-0.674 0.304c-0.973 0.566-2.176 0.771-2.983 1.585-0.791 0.852-0.743 2.023-0.608 3.112h0.034v0.276c0.013 0.096 0.028 0.191 0.04 0.284 0.412 2.202 1.508 4.223 1.85 6.446 0.065 0.848 0.204 1.942 0.31 2.632-0.308-0.091-0.478-1.47-0.547-1.012a38.401 38.401 0 0 0-3.584-5.278c-0.858-1.009-1.706-2.071-2.726-2.91-0.689-0.531-0.471-1.558-0.54-2.314-0.231-0.931-0.095-1.858 0.06-2.788 0.315-0.968 0.42-1.979 0.851-2.909 0.657-0.584 0.673-1.639 1.31-2.146 0.095 0.058 0.158 0.085 0.201 0.101l0.068 0.008h0.007c0.09-0.096-0.893-1.122 0.02-0.716 0.035-0.54 0.859-0.129 0.871-0.6z m3.868 2.193c-0.325 0.009-0.577 0.131-0.649 0.337-0.115 0.332 0.274 0.759 0.871 0.965 0.597 0.206 1.174 0.11 1.289-0.222 0.115-0.332-0.273-0.766-0.871-0.972a1.852 1.852 0 0 0-0.64-0.108z"/></svg>