<svg fill="#000000" role="img" viewBox="0 0 16 24" xmlns="http://www.w3.org/2000/svg"><title>Qi</title><path d="M12.574 0c-0.842 0-1.525 0.683-1.525 1.525 0 0.842 0.683 1.525 1.525 1.525s1.525-0.683 1.525-1.525C14.099 0.683 13.416 0 12.574 0z m-4.637 2.856c-1.71 0.012-3.426 0.597-4.839 1.783-3.226 2.707-3.647 7.518-0.94 10.744 1.462 1.742 3.537 2.665 5.644 2.721 0.297 0 0.297 0.293 0.296 0.293v2.65s0 2.762 2.657 2.953c0.295 0.01 0.295-0.295 0.295-0.295V3.786s0-0.294-0.295-0.415a7.665 7.665 0 0 0-2.818-0.515z m4.748 1.662c-0.11-0.002-0.11 0.179-0.11 0.389v11.147c0 0.294 0 0.527 0.295 0.295 0.01-0.009 0.021-0.018 0.032-0.027 3.227-2.707 3.647-7.518 0.94-10.743a7.593 7.593 0 0 0-0.971-0.966c-0.083-0.066-0.143-0.094-0.186-0.095z m-4.751 1.389c0.165 0 0.165 0.164 0.165 0.164v8.82s0 0.164-0.165 0.164c-1.282-0.019-2.55-0.574-3.439-1.633-1.625-1.936-1.372-4.822 0.564-6.446 0.84-0.705 1.858-1.055 2.875-1.069z"/></svg>