<svg fill="#55C500" role="img" viewBox="0 0 79 24" xmlns="http://www.w3.org/2000/svg"><title>Qiita</title><path d="M11.839 0.003a11.986 11.986 0 0 0-4.515 0.883 11.763 11.763 0 0 0-3.741 2.422 11.494 11.494 0 0 0-2.536 3.616A10.818 10.818 0 0 0 0.125 11.393a10.763 10.763 0 0 0 0.922 4.452 11.599 11.599 0 0 0 2.543 3.633A11.931 11.931 0 0 0 11.938 22.798a12.242 12.242 0 0 0 3.238-0.426 12 12 0 0 0 2.914-1.227l2.254 2.29a1.9 1.9 0 0 0 2.704 0 1.903 1.903 0 0 0 0-2.681l-2.048-2.047a11.593 11.593 0 0 0 2.012-3.354 10.769 10.769 0 0 0 0.741-3.964 10.818 10.818 0 0 0-0.925-4.469 11.445 11.445 0 0 0-2.543-3.616A11.859 11.859 0 0 0 16.531 0.886a12 12 0 0 0-4.587-0.886 11.986 11.986 0 0 0-0.102 0z m37.098 0.607v4.87h-2.51v3.488h2.51v7.028c0 1.375 0.174 2.497 0.522 3.374a5.119 5.119 0 0 0 1.421 2.067 4.958 4.958 0 0 0 2.11 1.04 8.781 8.781 0 0 0 2.277 0.282h2.799v-3.324h-2.415a4.102 4.102 0 0 1-1.155-0.157 2.34 2.34 0 0 1-0.955-0.555 2.658 2.658 0 0 1-0.656-1.063 5.168 5.168 0 0 1-0.243-1.703v-6.989h5.466v-3.488h-5.447V0.61zM30.969 1.687a2.264 2.264 0 0 0-2.264 2.267 2.264 2.264 0 0 0 2.264 2.264 2.264 2.264 0 0 0 2.267-2.264 2.264 2.264 0 0 0-2.264-2.267z m9.092 0a2.264 2.264 0 0 0-2.264 2.267 2.264 2.264 0 0 0 2.264 2.264 2.264 2.264 0 0 0 2.268-2.264 2.264 2.264 0 0 0-2.264-2.267z m-28.219 1.765a7.626 7.626 0 0 1 0.099 0 7.711 7.711 0 0 1 3.051 0.614 7.698 7.698 0 0 1 4.148 4.2 8.082 8.082 0 0 1 0.61 3.14 8.019 8.019 0 0 1-0.61 3.14 7.823 7.823 0 0 1-1.66 2.517 7.754 7.754 0 0 1-5.539 2.29 7.626 7.626 0 0 1-3.052-0.61 7.796 7.796 0 0 1-2.477-1.68 7.964 7.964 0 0 1-2.294-5.654 8.006 8.006 0 0 1 2.294-5.667 7.823 7.823 0 0 1 2.481-1.676 7.626 7.626 0 0 1 2.946-0.614z m57.908 2.536a8.827 8.827 0 0 0-3.347 0.66 8.17 8.17 0 0 0-2.674 1.811 7.98 7.98 0 0 0-1.723 2.671 8.787 8.787 0 0 0-0.61 3.275 8.676 8.676 0 0 0 0.61 3.271 8.154 8.154 0 0 0 1.723 2.671 7.993 7.993 0 0 0 2.674 1.792 8.85 8.85 0 0 0 3.475 0.656 7.941 7.941 0 0 0 1.7-0.184 8.282 8.282 0 0 0 1.509-0.479 7.96 7.96 0 0 0 1.293-0.699 7.855 7.855 0 0 0 1.08-0.863l0.213 1.74H78.875v-15.846h-3.202l-0.223 1.749a8.197 8.197 0 0 0-1.057-0.853 7.383 7.383 0 0 0-1.293-0.712 8.584 8.584 0 0 0-1.515-0.476 7.888 7.888 0 0 0-1.71-0.184 8.827 8.827 0 0 0-0.125 0z m-40.605 2.77v13.578h3.652V8.755z m9.089 0v13.578h3.655V8.755z m31.894 0.476a5.224 5.224 0 0 1 0.078 0 5.109 5.109 0 0 1 3.603 1.46 4.906 4.906 0 0 1 1.096 1.624 5.283 5.283 0 0 1 0.397 2.071 5.355 5.355 0 0 1-0.397 2.1 5.089 5.089 0 0 1-1.086 1.634 4.823 4.823 0 0 1-1.608 1.063 5.388 5.388 0 0 1-3.96 0 4.928 4.928 0 0 1-1.618-1.063 4.988 4.988 0 0 1-1.093-1.641 5.381 5.381 0 0 1-0.4-2.093 5.342 5.342 0 0 1 0.394-2.091 5.001 5.001 0 0 1 1.076-1.624 4.837 4.837 0 0 1 1.608-1.06 5.224 5.224 0 0 1 1.906-0.38z"/></svg>