<svg fill="#6929C4" role="img" viewBox="0 0 25 24" xmlns="http://www.w3.org/2000/svg"><title>Qiskit</title><path d="M12.469 0v0.001C8.264 0.011 4.36 2.222 2.197 5.844-0.021 9.555-0.068 14.172 2.073 17.928c2.029 3.559 5.725 5.821 9.787 6.037a6.173 6.173 0 0 0 1.366-0.005c3.942-0.239 7.533-2.407 9.572-5.821a11.979 11.979 0 0 0 1.694-5.97 1.348 1.348 0 0 0 0.008-0.126v-0.034a1.402 1.402 0 0 0-0.006-0.111 11.978 11.978 0 0 0-1.416-5.56C21.039 2.526 17.105 0.106 12.781 0.003c-0.08-0.002-0.16-0.001-0.239-0.001C12.519 0.002 12.49 0 12.469 0z m0.008 0.84c1.229 0.001 2.066 0.274 2.065 0.513 0 0.24-0.857 0.548-2.056 0.548-1.2 0-2.091-0.291-2.091-0.531 0-0.235 0.823-0.517 1.998-0.529 0.028 0 0.056-0.002 0.084-0.002z m2.874 0.368a11.2 11.2 0 0 1 4.996 2.835c-1.968-0.754-4.83-1.17-7.604-1.199-1.347 0-2.703 0.09-3.977 0.258-0.277-0.339-0.757-0.513-1.247-0.273-0.27 0.132-0.437 0.34-0.518 0.57-0.862 0.18-1.653 0.402-2.335 0.663a11.185 11.185 0 0 1 4.916-2.829c-0.006 0.045-0.01 0.09-0.01 0.138 0 1.233 2.022 1.336 2.914 1.336 0.891 0 2.879-0.12 2.879-1.336 0-0.057-0.006-0.111-0.014-0.163z m-2.608 2.441c4.789 0.06 8.31 1.152 9.126 2.248 0.025 0.037 0.05 0.074 0.073 0.112 0.07 0.122 0.107 0.243 0.107 0.363 0 0.825-1.731 1.705-4.446 2.231-1.534-0.223-3.184-0.348-4.809-0.363-0.596 0-1.193 0.018-1.787 0.045L8.767 4.402c0.136-0.167 0.208-0.346 0.23-0.524 1.142-0.144 2.402-0.229 3.746-0.229z m-5.694 0.556c0.159 0.332 0.487 0.585 0.946 0.574 0.046 0.003 0.091 0.003 0.137 0l2.065 3.551c-0.955 0.064-1.894 0.16-2.787 0.292-2.742-0.529-4.437-1.429-4.437-2.249 0-0.096 0.026-0.193 0.072-0.291 0.05-0.079 0.101-0.157 0.153-0.235 0.516-0.619 1.902-1.223 3.851-1.642zM22.595 7.184a11.132 11.132 0 0 1 0.999 3.353c-0.873-0.668-2.314-1.201-4.041-1.584 1.46-0.448 2.565-1.045 3.042-1.769z m-20.17 0.031c0.488 0.729 1.598 1.32 3.045 1.762-1.729 0.386-3.159 0.915-4.029 1.57 0.066-0.497 0.164-0.993 0.299-1.487 0.176-0.643 0.407-1.259 0.685-1.845zM12.777 9.028c0.293 0.003 0.58 0.01 0.864 0.019-0.444 0.019-0.896 0.032-1.361 0.032a31.619 31.619 0 0 1-0.826-0.02l-0.004-0.008a39.867 39.867 0 0 1 1.327-0.023z m4.918 0.38c3.649 0.553 5.954 1.615 5.997 2.581 0 0.015-0.001 0.031 0 0.045-0.052 0.962-2.38 1.999-5.943 2.553-1.047-0.201-2.179-0.342-3.333-0.419L12.88 11.529l-0.944-1.636c0.109 0.002 0.218 0.007 0.327 0.008 1.875 0 3.772-0.172 5.432-0.493z m-10.374 0.016c1.18 0.227 2.467 0.375 3.767 0.439l1.158 1.991 1.31 2.268a31.83 31.83 0 0 0-0.813-0.024c-1.895 0-3.811 0.173-5.485 0.499-3.461-0.535-5.7-1.531-5.913-2.459a11.114 11.114 0 0 1 0-0.264c0.215-0.935 2.522-1.919 5.976-2.45z m16.269 4.077a11.176 11.176 0 0 1-0.976 3.295c-0.467-0.72-1.535-1.302-2.937-1.739 1.679-0.387 3.064-0.912 3.913-1.556zM1.447 13.521c0.852 0.653 2.233 1.173 3.89 1.553-1.389 0.436-2.444 1.009-2.921 1.702a11.181 11.181 0 0 1-0.969-3.255z m11.296 1.365c0.44 0.007 0.865 0.025 1.283 0.049l0.008 0.014a39.667 39.667 0 0 1-1.788 0.04 39.388 39.388 0 0 1-1.435-0.042 31.119 31.119 0 0 1 1.932-0.061z m5.093 0.523c2.612 0.539 4.22 1.41 4.23 2.218 0 0.116-0.036 0.233-0.103 0.351-0.012 0.018-0.024 0.036-0.036 0.054-0.406 0.611-1.697 1.221-3.565 1.66-0.173-0.243-0.452-0.416-0.82-0.42a1.046 1.046 0 0 0-0.155 0l-2.078-3.57c0.868-0.07 1.717-0.167 2.527-0.293z m-10.667 0.012c1.603 0.248 3.347 0.387 5.059 0.408 0.758 0 1.52-0.023 2.273-0.068l2.235 3.888a1.046 1.046 0 0 0-0.2 0.386c-1.274 0.187-2.709 0.3-4.256 0.299-4.702-0.059-8.179-1.1-9.087-2.172a11.162 11.162 0 0 1-0.186-0.294c-0.032-0.081-0.05-0.161-0.051-0.241 0.011-0.8 1.638-1.666 4.213-2.206z m13.264 4.468c-0.062 0.062-0.123 0.125-0.187 0.186a11.148 11.148 0 0 1-4.721 2.69c0.051-0.12 0.08-0.245 0.08-0.375 0-0.556-0.486-1.031-1.252-1.322a28.808 28.808 0 0 0 2.295-0.245c0.25 0.414 0.775 0.662 1.32 0.407 0.351-0.164 0.534-0.457 0.579-0.765 0.69-0.164 1.326-0.357 1.886-0.576z m-15.784 0.048c1.592 0.611 3.765 0.996 6.001 1.139-0.745 0.287-1.216 0.749-1.215 1.297v0.017c0 0.13 0.03 0.255 0.082 0.374a11.17 11.17 0 0 1-4.868-2.827z m7.871 1.596c1.388 0 2.263 0.497 2.279 0.857 0.012 0.257-0.458 0.574-1.225 0.734a11.202 11.202 0 0 1-2.199-0.008c-0.714-0.175-1.135-0.491-1.135-0.726 0-0.343 0.891-0.857 2.28-0.857z"/></svg>