<svg fill="#009848" role="img" viewBox="0 0 25 24" xmlns="http://www.w3.org/2000/svg"><title>Qlik</title><path d="M24.617 20.39l-3.227-2.715c1.12-1.785 1.784-3.892 1.784-6.151 0-6.36-5.164-11.524-11.524-11.524S0.127 5.164 0.127 11.524c0 6.36 5.164 11.524 11.523 11.524 2.468 0 4.765-0.779 6.645-2.107l3.436 2.886s0.513 0.437 0.95-0.076l2.05-2.431c-0.019 0 0.398-0.512-0.114-0.93z m-5.885-8.866c0 3.911-3.17 7.081-7.082 7.081-3.911 0-7.082-3.17-7.081-7.081 0-3.911 3.171-7.082 7.081-7.081 3.911 0 7.082 3.17 7.082 7.081z m-11.638 0c0-2.506 2.032-4.538 4.537-4.537 2.506 0 4.537 2.032 4.538 4.537 0 2.506-2.032 4.538-4.538 4.538-2.506 0-4.537-2.032-4.537-4.538z"/></svg>