<svg fill="#0C2E82" role="img" viewBox="0 0 141 24" xmlns="http://www.w3.org/2000/svg"><title>QNAP</title><path d="M7.807 0C2.653 0 0.083 2.08 0.083 6.236v11.45c0 4.131 2.57 6.2 7.724 6.2h15.083c0-0.036 0.873 0.029 2.213-0.172-1.259-1.811-3.587-3.776-5.766-5.352l-0.401-0.286H9.55v-12.402H22.053v10.522c3.755 1.17 6.333 2.672 8.092 4.103 0.298-0.753 0.447-1.621 0.447-2.614v-11.449c0-3.931-2.305-6.008-6.9-6.224v-0.011z m29.135 0.31c-0.91 0-1.608 0.258-2.098 0.768-0.861 0.901-0.683 2.031-0.767 2.074v20.642h8.481s-0.048-10.904-0.069-14.12c0.036-0.211 0.19-0.516 0.836-0.436 0 0 0.25 0.007 0.356 0.195 1.635 2.611 12.344 14.361 12.344 14.361h8.802v-23.484H56.242v13.661c-0.129 0.314-0.557 0.258-0.767 0.036-1.514-2.341-7.34-10.353-9.204-12.906-0.119-0.143-0.732-0.791-2.086-0.791Zm38.636 0c-2.151 0-3.795 0.448-4.952 1.352-1.185 0.934-1.776 2.177-1.776 3.748v18.384h8.962v-6.258h12.562v6.258h8.974V5.41c0-1.591-0.583-2.845-1.743-3.748-1.156-0.905-2.813-1.353-4.962-1.352z m34.727 0c-2.148 0-3.803 0.457-4.963 1.364-1.156 0.9-1.746 2.118-1.776 3.633v18.487h8.974v-6.132h14.498c3.94 0 5.914-1.573 5.914-4.745V5.387c0-1.808-0.496-3.104-1.455-3.896-1.644-1.304-4.36-1.101-4.127-1.181z m27.724 0.424c-1.455 0.074-2.625 1.288-2.625 2.762 0 1.52 1.242 2.75 2.762 2.751A2.749 2.749 0 0 0 140.917 3.496c0-1.522-1.23-2.762-2.751-2.762-0.047 0-0.09-0.002-0.137 0z m0.012 0.401c0.04-0.002 0.086 0 0.126 0 1.299 0.004 2.346 1.064 2.35 2.361a2.345 2.345 0 0 1-2.35 2.338c-1.297-0.003-2.348-1.043-2.35-2.338 0.002-1.257 0.983-2.294 2.224-2.361z m-1.112 0.826v3.128h0.424v-1.387c0.237-0.013 0.475 0.008 0.711 0.012 0.191 0.043 0.377 0.268 0.401 0.298 0.265 0.34 0.474 0.718 0.71 1.077h0.517l-0.539-0.848a2.061 2.061 0 0 0-0.344-0.412 1.048 1.048 0 0 0-0.252-0.161c0.302-0.041 0.521-0.135 0.664-0.286 0.255-0.273 0.293-0.679 0.081-1.032-0.127-0.211-0.329-0.39-0.974-0.389z m0.424 0.343h0.986c0.888 0 0.786 0.826 0.344 0.986-0.432 0.11-0.888 0.038-1.33 0.057z m-59.541 4.115h12.562v6.796H77.812z m34.602 0h11.404v6.085h-11.404z m-95.987 9.031c2.811 1.786 7.933 5.323 9.627 8.55h6.384c-1.09-1.945-4.777-6.627-16.011-8.55Z"/></svg>