<svg fill="#41CD52" role="img" viewBox="0 0 33 24" xmlns="http://www.w3.org/2000/svg"><title>Qt</title><path d="M29.661 0H4.728L0.207 4.519v19.481h28.066L32.793 19.481V0zM17.566 20.69l-2.121 0.988-1.833-3.01c-0.266 0.077-0.678 0.122-1.255 0.122-2.144 0-3.643-0.577-4.487-1.732-0.845-1.154-1.265-2.987-1.265-5.476 0-2.498 0.433-4.353 1.288-5.564 0.855-1.211 2.344-1.821 4.464-1.821 2.121 0 3.609 0.599 4.454 1.81 0.855 1.199 1.276 3.055 1.276 5.564 0 1.655-0.177 2.987-0.521 3.999-0.354 1.021-0.922 1.799-1.722 2.332z m6.43-2.155c-1.165 0-1.965-0.266-2.398-0.801-0.434-0.532-0.656-1.542-0.655-3.031v-4.798H19.365V7.996h1.578V4.998h2.232V7.995h2.843v1.921h-2.843v4.543c0 0.845 0.068 1.399 0.19 1.666 0.122 0.277 0.443 0.411 0.944 0.411l1.687-0.068 0.099 1.801c-0.91 0.177-1.61 0.266-2.099 0.266z m-11.649-12.329c-1.29 0-2.178 0.422-2.666 1.277-0.478 0.855-0.722 2.212-0.722 4.088 0 1.866 0.234 3.21 0.699 4.009 0.467 0.8 1.366 1.211 2.689 1.212 1.321 0 2.21-0.401 2.676-1.19 0.455-0.788 0.688-2.132 0.688-4.009 0-1.887-0.234-3.253-0.71-4.109-0.478-0.855-1.366-1.276-2.654-1.276Z"/></svg>