<svg fill="#3253DC" role="img" viewBox="0 0 21 24" xmlns="http://www.w3.org/2000/svg"><title>Qualcomm</title><path d="M10.5 0C4.729 0 0.076 4.486 0.076 10.474c0 6.004 4.653 10.474 10.424 10.474 0.984 0 1.935-0.133 2.835-0.384l1.134 2.919c0.117 0.317 0.35 0.517 0.768 0.517h1.801c0.434 0 0.751-0.284 0.55-0.834l-1.467-3.819c2.885-1.818 4.803-5.037 4.803-8.89C20.924 4.486 16.271 0 10.5 0m4.536 16.561l-1.317-3.419c-0.117-0.284-0.35-0.55-0.851-0.55h-1.718c-0.434 0-0.767 0.284-0.567 0.834l1.735 4.486c-0.567 0.15-1.184 0.217-1.818 0.217-4.22 0-7.222-3.319-7.222-7.655C3.278 6.138 6.28 2.819 10.5 2.819s7.222 3.319 7.222 7.655c0 2.535-1.017 4.703-2.686 6.087"/></svg>