<svg fill="#00B4EF" role="img" viewBox="0 0 45 24" xmlns="http://www.w3.org/2000/svg"><title>Qualtrics</title><path d="M37.56 0.007l-4.986 17.647h-0.063l-5.347-17.647H15.331l-4.052 7.203-4.289-7.203H0.979l6.994 11.316L0.298 24h5.538l4.921-8.389 5.097 8.389h9.077v-16.633h0.063q0.189 1.043 0.361 1.787 0.172 0.744 0.324 1.377c0.105 0.422 0.218 0.823 0.34 1.203 0.12 0.381 0.244 0.796 0.37 1.252l3.563 11.007h4.668l3.593-11.009q0.394-1.328 0.737-2.562a26.908 26.908 0 0 0 0.592-2.786h0.064v16.364H44.702V0zM13.939 11.354l6.259-10.39v20.57z"/></svg>