<svg fill="#ED2E26" role="img" viewBox="0 0 21 24" xmlns="http://www.w3.org/2000/svg"><title>Qualys</title><path d="M10.499 0C3.935 0 0.638 3.512 0.638 3.512s-0.378 2.599-0.136 7.833C0.865 19.251 10.499 24 10.5 24c0.001-0.001 9.635-4.749 9.998-12.655 0.241-5.234-0.136-7.833-0.136-7.833S17.062 0 10.499 0z m-0.679 2.919a7.366 7.366 0 0 1 8.046 7.335 7.116 7.116 0 0 1-2.771 5.634c-1.179-0.108-2.41-0.442-2.968-0.761 1.438-0.918 3.304-2.703 3.304-4.873a4.936 4.936 0 0 0-4.931-4.931c-2.716 0-4.927 2.274-4.926 5.07 0 2.332 1.236 4.162 3.671 5.44 1.594 0.836 3.972 1.449 6.486 1.773-0.418 0.623-1.533 1.686-2.185 2.046-3.009-0.493-5.651-1.535-7.458-3.097-1.932-1.67-2.954-3.849-2.954-6.301a7.366 7.366 0 0 1 6.686-7.335Z"/></svg>