<svg fill="#000000" role="img" viewBox="0 0 133 24" xmlns="http://www.w3.org/2000/svg"><title>Quantcast</title><path d="M64.008 6.263c-1.687 0-3.192 0.562-4.444 2.371h-0.061v-1.946H55.473v15.018h4.207v-8.534c0-2.04 1.053-3.496 2.74-3.496 1.323 0 2.249 0.728 2.25 2.895v9.152h4.206v-10.205c0-2.911-1.252-5.249-4.874-5.249z m-10.762 15.438v-10.569c0-3.457-3.099-4.852-6.815-4.852-5.26 0-6.892 2.961-7.041 5.271h4.025c0.094-1.351 1.114-2.216 2.834-2.217 1.841 0 2.955 0.882 2.955 2.663v0.695l-3.887 0.237c-5.866 0.353-6.396 2.999-6.395 4.609 0 3.424 2.9 4.587 5.265 4.587 1.753 0 3.749-0.529 5.144-2.37h0.055v1.951z m-4.025-5.166c0 1.808-2.139 2.536-3.452 2.536-1.411 0-2.635-0.402-2.635-1.748 0-1.086 0.651-1.671 2.569-1.841l3.501-0.331Zm65.229-5.872c0-0.91 1.119-1.345 2.217-1.345 1.61 0 2.509 0.761 2.569 2.012l4.212-0.094c-0.232-3.264-2.773-4.968-6.627-4.967-4.444 0-6.225 2.509-6.225 4.813 0 6.197 8.998 3.915 8.998 6.429 0 1.224-1.411 1.544-2.481 1.543-1.252 0-2.536-0.584-2.596-2.04h-4.213c0.353 4.444 4.549 5.078 6.655 5.078 6.197 0 6.848-3.859 6.848-5.033 0-6.054-9.356-3.716-9.357-6.396z m-5.419 11.043v-10.574c0-3.457-3.093-4.852-6.809-4.852-5.265 0-6.892 2.961-7.047 5.271h4.025c0.094-1.351 1.114-2.216 2.834-2.217 1.841 0 2.961 0.882 2.961 2.663v0.695l-3.887 0.232c-5.872 0.358-6.396 3.005-6.396 4.614 0 3.424 2.895 4.587 5.266 4.587 1.748 0 3.749-0.529 5.138-2.37h0.061v1.951z m-4.025-5.171c0 1.808-2.134 2.536-3.452 2.536-1.406 0-2.63-0.402-2.629-1.748 0-1.086 0.651-1.671 2.569-1.841l3.501-0.331v1.378z m-15.267-0.11c-0.259 1.378-1.081 2.294-2.63 2.293-2.2 0-2.895-2.216-2.894-4.212 0-1.935 0.325-4.675 2.922-4.676 1.086 0 2.277 0.463 2.42 2.426h4.102l0.276-0.011c-0.198-3.192-2.338-5.993-6.809-5.993-4.554 0-7.311 3.253-7.311 8.066 0 4.615 2.481 7.774 7.405 7.774 4.025 0 6.021-2.382 6.654-5.678z m-17.648-9.677v-4.383h4.256v4.383h2.244v3.253h-2.244v7.681c0 0.678 0.292 1.003 1.395 1.003a3.402 3.402 0 0 0 0.849-0.094v3.347c-0.678 0.094-1.362 0.165-2.04 0.165-2.773 0-4.466-0.678-4.466-3.958v-8.16h-1.946v-3.237z m54.07 0v-4.383h4.256v4.383H132.661v3.253h-2.244v7.681c0 0.678 0.292 1.003 1.395 1.003a3.402 3.402 0 0 0 0.849-0.094v3.347a15.162 15.162 0 0 1-2.04 0.165c-2.773 0-4.466-0.678-4.466-3.958v-8.16h-1.946v-3.237ZM33.089 15.217c0 2.04-1.053 3.501-2.741 3.501-1.323 0-2.249-0.728-2.249-2.894v-9.153h-4.212v10.2c0 2.9 1.643 5.238 5.265 5.238 1.687 0 2.806-0.557 4.058-2.371h0.061v1.952h4.024v-15.019H33.089Zm-18.029 6.412l1.378 2.371h4.907l-2.591-4.493c2.349-2.139 3.573-5.282 3.572-8.408 0-5.513-3.777-11.099-10.993-11.099S0.339 5.585 0.339 11.099s3.777 11.104 10.994 11.104c1.345 0 2.602-0.204 3.732-0.574z m-9.969-10.53c0-3.578 1.919-7.184 6.208-7.184 4.289 0 6.208 3.606 6.209 7.184 0 1.544-0.353 3.115-1.114 4.366h-4.907l1.5 2.603a6.451 6.451 0 0 1-1.688 0.22c-4.289 0-6.208-3.611-6.208-7.189z"/></svg>