<svg fill="#F98309" role="img" viewBox="0 0 24 24" xmlns="http://www.w3.org/2000/svg"><title>QuantConnect</title><path d="M23.067 16.664a12.108 12.108 0 0 1-6.404 6.404A12.018 12.018 0 0 1 12 24v-2.797a8.63 8.63 0 0 0 3.546-0.747 9.457 9.457 0 0 0 2.983-1.927 11.366 11.366 0 0 0 1.927-2.922 9.147 9.147 0 0 0 0.747-3.607 8.63 8.63 0 0 0-0.747-3.545 8.928 8.928 0 0 0-4.91-4.912 9.528 9.528 0 0 0-7.091 0 9.48 9.48 0 0 0-4.911 4.912A9.758 9.758 0 0 0 2.798 12H0A12.011 12.011 0 0 1 0.932 7.338 12.093 12.093 0 0 1 7.336 0.933a12.121 12.121 0 0 1 9.326 0 11.507 11.507 0 0 1 3.792 2.609 11.499 11.499 0 0 1 2.613 3.796 12.123 12.123 0 0 1 0 9.326zM11.998 9.887V7.089a4.788 4.788 0 0 0-3.483 1.43 4.709 4.709 0 0 0-1.491 3.482 4.609 4.609 0 0 0 1.491 3.478c1.832 1.923 4.875 1.997 6.799 0.165a4.763 4.763 0 0 0 0.165-0.165 4.34 4.34 0 0 0 1.43-3.479h-2.798a2.058 2.058 0 0 1-0.621 1.492 2.019 2.019 0 0 1-1.492 0.622c-1.165-0.005-2.109-0.949-2.114-2.114a2.02 2.02 0 0 1 0.622-1.492 2.064 2.064 0 0 1 1.492-0.621z m5.972 8.08a7.044 7.044 0 0 0 1.806-2.676 7.471 7.471 0 0 0 0.684-3.296 7.655 7.655 0 0 0-0.684-3.295 8.453 8.453 0 0 0-4.477-4.477 7.468 7.468 0 0 0-3.295-0.683v2.797a5.307 5.307 0 0 1 3.979 1.679 5.403 5.403 0 0 1 1.678 3.979c-0.034 3.125-2.594 5.63-5.719 5.596-3.077-0.033-5.563-2.519-5.596-5.596H3.548a8.4 8.4 0 0 0 0.616 3.298 9.291 9.291 0 0 0 4.54 4.538 9.041 9.041 0 0 0 6.59 0 7.996 7.996 0 0 0 2.676-1.864z"/></svg>