<svg fill="#FB4F14" role="img" viewBox="0 0 89 24" xmlns="http://www.w3.org/2000/svg"><title>Quest</title><path d="M12.269 0c-0.203 0-0.407 0-0.614 0.007-0.355 0-0.74 0.037-1.094 0.108a11.926 11.926 0 0 0-10.429 12.295 11.993 11.993 0 0 0 12.403 11.52 11.874 11.874 0 0 0 6.62-2.326l-1.831-1.339a0.64 0.64 0 0 0-0.702-0.037c-1.409 0.814-3.032 1.235-4.793 1.198C7.003 21.323 3.024 17.41 2.776 12.592a9.315 9.315 0 0 1 10.148-9.689 9.312 9.312 0 0 1 8.416 8.594 9.337 9.337 0 0 1-1.582 5.88 0.666 0.666 0 0 0 0.14 0.921l1.553 1.124c1.794-2.256 2.711-5 2.604-7.888a11.996 11.996 0 0 0-11.786-11.53z m9.179 19.418s-0.351 0.459-1.058 1.128c-0.703 0.669-1.268 1.095-1.268 1.095l2.045 1.516a0.74 0.74 0 0 0 0.846 0 12.344 12.344 0 0 0 1.409-1.376 0.655 0.655 0 0 0-0.111-0.987z m65.033-16.907c-0.141 0-0.281 0-0.389 0.103a0.732 0.732 0 0 0-0.351 0.215 0.769 0.769 0 0 0-0.248 0.314c-0.037 0.107-0.07 0.248-0.103 0.389 0 0.141 0 0.281 0.07 0.421a1.276 1.276 0 0 0 0.248 0.355c0.104 0.07 0.211 0.174 0.351 0.211 0.141 0.037 0.281 0.07 0.422 0.07 0.141 0 0.281-0.037 0.421-0.074a0.732 0.732 0 0 0 0.355-0.207c0.07-0.107 0.174-0.214 0.211-0.355a1.771 1.771 0 0 0 0.07-0.421 1.524 1.524 0 0 0-0.074-0.422 0.832 0.832 0 0 0-0.207-0.318 3.339 3.339 0 0 0-0.355-0.211 1.764 1.764 0 0 0-0.421-0.074z m-7.855 0.037v4.789h-1.024c-0.422 0-0.74 0.351-0.74 0.739v1.517h1.764v8.416c0 4.016 2.041 5.92 5.495 5.921A7.692 7.692 0 0 0 88.877 22.343l-0.814-1.301a0.688 0.688 0 0 0-0.913-0.248c-0.843 0.459-1.797 0.777-2.818 0.776-1.867 0-3.169-1.095-3.169-3.594v-8.383h4.26a0.629 0.629 0 0 0 0.636-0.636v-1.62h-4.933V3.214a0.666 0.666 0 0 0-0.666-0.666z m7.855 0.137c0.141 0 0.248 0.037 0.351 0.074a0.74 0.74 0 0 1 0.285 0.174 0.751 0.751 0 0 1 0.173 0.281c0.037 0.107 0.074 0.211 0.074 0.355a1.257 1.257 0 0 1-0.074 0.351 0.765 0.765 0 0 1-0.173 0.281 0.769 0.769 0 0 1-0.285 0.177 1.25 1.25 0 0 1-0.351 0.071 1.043 1.043 0 0 1-0.352-0.074 0.769 0.769 0 0 1-0.281-0.174 0.769 0.769 0 0 1-0.177-0.281c-0.037-0.141-0.037-0.248-0.074-0.351 0-0.144 0.037-0.248 0.074-0.355a0.765 0.765 0 0 1 0.177-0.281 0.769 0.769 0 0 1 0.281-0.178 1.043 1.043 0 0 1 0.352-0.07z m-0.459 0.248v1.231h0.177V3.643h0.211l0.352 0.525h0.214l-0.355-0.525a1.716 1.716 0 0 0 0.248-0.108 0.322 0.322 0 0 0 0.107-0.247c0-0.141-0.037-0.211-0.111-0.282a0.703 0.703 0 0 0-0.314-0.07z m0.248 0.14h0.351s0.037 0.037 0.074 0.037l0.067 0.07c0.037 0.037 0.037 0.07 0.037 0.104 0 0.037 0 0.074-0.037 0.107 0 0.037-0.037 0.07-0.071 0.07-0.037 0.037-0.07 0.037-0.103 0.037h-0.107v-0.037h-0.211z m-34.207 4.227c-4.549 0-7.929 3.417-7.928 8.317 0 4.966 3.384 8.313 8.102 8.313 2.363 0 4.582-0.599 6.59-2.504l-0.95-1.194a0.655 0.655 0 0 0-0.884-0.108 7.359 7.359 0 0 1-4.615 1.62c-2.884 0-5.318-1.76-5.669-5.214h12.151a0.703 0.703 0 0 0 0.703-0.703v-0.247c-0.033-4.863-3.165-8.247-7.5-8.28z m-24.414 0.037a0.666 0.666 0 0 0-0.669 0.665v8.987c0 4.756 3.38 7.011 7.255 7.011 3.842 0 7.259-2.256 7.259-7.011V7.969a0.629 0.629 0 0 0-0.636-0.632h-1.867v9.408c0 3.31-1.971 4.859-4.719 4.859s-4.756-1.549-4.755-4.859v-9.408z m40.796 0c-3.842 0-6.379 1.831-6.379 4.863 0 2.393 1.69 4.016 5.288 4.437l1.901 0.211c2.256 0.248 3.347 1.058 3.347 2.326 0 1.69-1.694 2.57-4.404 2.57-2.293 0-3.772-0.562-4.933-1.301a0.74 0.74 0 0 0-1.021 0.244l-0.777 1.235c2.008 1.549 4.582 2.041 6.657 2.041 4.301 0 7.048-1.934 7.048-4.966 0-2.64-1.971-4.049-5.355-4.475l-1.9-0.244c-2.115-0.248-3.276-0.917-3.277-2.256 0-1.553 1.479-2.5 3.768-2.5 1.831 0 3.557 0.562 4.686 1.162 0.318 0.174 0.703 0.07 0.88-0.248l0.495-0.777a0.68 0.68 0 0 0-0.247-0.913 12.067 12.067 0 0 0-5.777-1.409z m-16.419 2.219c2.714 0 4.685 1.938 5.004 4.933h-10.288c0.388-2.888 2.326-4.933 5.288-4.933z"/></svg>