<svg fill="#F27557" role="img" viewBox="0 0 24 24" xmlns="http://www.w3.org/2000/svg"><title>Quip</title><path d="M22.154 22.154H12a10.06 10.06 0 0 1-7.4-3.201C2.66 16.89 1.69 14.19 1.868 11.35c0.315-5.091 4.39-9.168 9.482-9.484 0.22-0.014 0.44-0.02 0.657-0.02A10.059 10.058 90 0 1 18.952 4.6a10.059 10.058 90 0 1 3.202 7.4z m-1.938-18.9C17.778 0.963 14.59-0.186 11.236 0.024 5.218 0.399 0.398 5.219 0.024 11.237c-0.207 3.353 0.94 6.543 3.231 8.98A12.048 12.047 90 0 0 12 24h11.077c0.51 0 0.923-0.413 0.923-0.922V12a12.048 12.047 90 0 0-3.784-8.745m-4.062 11.976H7.846a0.923 0.923 0 0 0 0 1.846h8.308a0.923 0.923 0 0 0 0-1.846M7.846 8.77h8.308a0.923 0.923 0 0 0 0-1.847H7.846a0.923 0.923 0 0 0 0 1.847m-2.769 2.308a0.923 0.923 0 0 0 0 1.845h13.846a0.923 0.923 0 0 0 0-1.846H5.077Z"/></svg>