<svg fill="#F5CD0E" role="img" viewBox="0 0 25 24" xmlns="http://www.w3.org/2000/svg"><title>Qwiklabs</title><path d="M14.882 18.3A6.563 6.563 0 0 0 12.5 5.623a6.561 6.561 0 0 0-2.382 12.677 0.701 0.701 0 0 0 0.976-0.632v-5.483a1.406 1.406 0 1 1 2.812 0v5.483a0.703 0.703 0 0 0 0.976 0.632z m0.822 5.644C20.879 22.537 24.685 17.806 24.685 12.185c0-6.729-5.456-12.185-12.185-12.185s-12.185 5.456-12.185 12.185c0 5.621 3.806 10.353 8.981 11.759a0.711 0.711 0 0 0 0.05 0.013l0.06 0.016 0.001-0.002a1.406 1.406 0 0 0 0.645-2.736 9.373 9.373 0 1 1 4.898-0.001 1.406 1.406 0 0 0 0.645 2.736l0.001 0.002 0.06-0.016 0.05-0.013z"/></svg>