<svg fill="#FECE00" role="img" viewBox="0 0 26 24" xmlns="http://www.w3.org/2000/svg"><title>Qzone</title><path d="M25.541 9.072c-0.033-0.104-0.133-0.233-0.35-0.27-0.217-0.038-7.692-1.471-7.691-1.471s-0.11-0.023-0.208-0.074c-0.096-0.049-0.133-0.175-0.133-0.174S13.468 0.444 13.365 0.249c-0.104-0.196-0.256-0.249-0.365-0.249-0.109 0-0.263 0.053-0.365 0.249C12.532 0.444 8.841 7.083 8.841 7.083s-0.037 0.126-0.134 0.175c-0.096 0.049-0.206 0.073-0.206 0.073S1.026 8.764 0.808 8.801c-0.218 0.038-0.316 0.167-0.348 0.27a0.499 0.499 0 0 0 0.131 0.47L6.201 15.285s0.075 0.084 0.125 0.18c0.017 0.109 0.005 0.22 0.005 0.22s-1.244 7.578-1.277 7.795c-0.032 0.218 0.078 0.386 0.167 0.45 0.087 0.065 0.244 0.111 0.44 0.014 0.198-0.097 7.128-3.412 7.128-3.413s0.103-0.046 0.21-0.063c0.108-0.018 0.21 0.064 0.21 0.063s6.93 3.315 7.128 3.413c0.197 0.098 0.354 0.051 0.441-0.014a0.484 0.484 0 0 0 0.166-0.45c-0.022-0.146-0.973-5.94-0.973-5.94 0.916-0.565 1.491-1.087 1.935-1.828-2.714 1.014-6.284 1.797-9.852 1.952-0.957 0.043-2.522 0.101-3.634-0.015-0.709-0.074-1.224-0.151-1.3-0.458-0.055-0.225 0.056-0.481 0.57-0.87a2762.874 2762.874 0 0 1 2.994-2.255c1.345-1.013 3.724-2.584 3.724-2.858 0-0.298-2.243-0.817-4.225-0.817-2.035 0-2.38 0.138-2.941 0.176-0.511 0.036-0.805 0.005-0.841-0.144-0.063-0.26 0.191-0.407 0.615-0.595 0.742-0.329 1.946-0.621 2.076-0.655 0.203-0.054 3.225-0.842 5.879-0.559 1.379 0.146 3.394 0.699 3.394 1.335 0 0.358-1.801 1.563-3.375 2.717-1.202 0.882-2.32 1.633-2.319 1.766 0 0.358 3.697 1.298 6.999 1.057l0.003-0.023c0.05-0.096 0.124-0.18 0.124-0.18l5.611-5.744a0.499 0.499 0 0 0 0.133-0.47z"/></svg>