<svg fill="#276DC3" role="img" viewBox="0 0 32 24" xmlns="http://www.w3.org/2000/svg"><title>R</title><path d="M16 0c-8.593 0-15.561 4.667-15.561 10.422 0 5.053 5.374 9.264 12.501 10.218V17.524c-3.792-1.187-6.386-3.573-6.387-6.324 0-3.936 5.296-7.124 11.827-7.124 6.533 0 11.356 2.182 11.355 7.124 0 2.562-1.295 4.382-3.452 5.54 0.117 0.086 0.226 0.166 0.335 0.28 0.219 0.193 0.324 0.471 0.482 0.705 2.759-1.88 4.461-4.457 4.461-7.302 0-5.758-6.967-10.423-15.561-10.423z m-2.737 6.471v17.526l5.307-0.002-0.002-6.861h1.426c0.292 0 0.416 0.086 0.712 0.324 0.353 0.285 0.927 1.273 0.927 1.273l2.806 5.269 6-0.003-3.714-6.258s-0.112-0.25-0.343-0.496a2.879 2.879 0 0 0-0.755-0.54c-0.547-0.278-1.49-0.563-1.49-0.563s4.64-0.342 4.64-4.961c0-4.619-4.855-4.707-4.855-4.707z m5.351 3.799l3.214 0.003s1.49-0.08 1.489 1.461c0 1.511-1.49 1.517-1.489 1.517h-3.214z m2.275 7.935c-0.641 0.064-1.312 0.102-1.997 0.114v2.343a21.554 21.554 0 0 0 3.073-0.613l-0.611-1.156s-0.14-0.237-0.321-0.51c-0.051-0.07-0.104-0.127-0.144-0.178z"/></svg>