<svg fill="#EC1D24" role="img" viewBox="0 0 32 24" xmlns="http://www.w3.org/2000/svg"><title>R3</title><path d="M31.743 13.911c0 1.103-0.903 2.007-2.007 2.008-1.105 0-2.007-0.904-2.008-2.008a2.007 2.007 0 1 1 4.015 0zM8.321 0c-1.473 0-2.849 0.394-4.04 1.086v-1.086H0.257v15.919h4.024V8.064a4.037 4.037 0 0 1 4.04-4.04l1.35-0.01 2.762-4.014H8.321z m11.474 7.976l2.726-3.962v-4.014h-8.678l-2.76 4.014h6.546l-3.365 4.9 2.008 3.481a4.064 4.064 0 0 1 6.1 3.524c0 2.253-1.824 4.067-4.067 4.067-2.243 0-4.067-1.824-4.067-4.067h-4.014c0 4.46 3.621 8.081 8.073 8.081 4.46 0 8.081-3.621 8.081-8.081a8.084 8.084 0 0 0-6.583-7.943z"/></svg>