<svg fill="#FF6600" role="img" viewBox="0 0 24 24" xmlns="http://www.w3.org/2000/svg"><title>RabbitMQ</title><path d="M23.035 9.601h-7.677a0.956 0.956 0 0 1-0.962-0.962V0.962a0.956 0.956 0 0 0-0.962-0.956H10.56a0.956 0.956 0 0 0-0.962 0.956V8.64a0.956 0.956 0 0 1-0.962 0.962H5.762a0.956 0.956 0 0 1-0.961-0.962V0.962A0.956 0.956 0 0 0 3.839 0H0.959a0.956 0.956 0 0 0-0.956 0.962v22.076A0.956 0.956 0 0 0 0.965 24h22.07a0.956 0.956 0 0 0 0.962-0.962V10.58a0.956 0.956 0 0 0-0.962-0.98z m-3.86 8.152a1.437 1.437 0 0 1-1.437 1.443h-1.924a1.437 1.437 0 0 1-1.436-1.443v-1.917a1.437 1.437 0 0 1 1.436-1.443h1.924a1.437 1.437 0 0 1 1.437 1.443z"/></svg>