<svg fill="#CE262F" role="img" viewBox="0 0 22 24" xmlns="http://www.w3.org/2000/svg"><title>RadioPublic</title><path d="M12.793 4.069c3.012-0.283 6.024-1.977 9.037-0.535v19.892c-4.155-1.989-8.311 1.989-12.466 0l0-3.152v-0.347c-3.065 0.271-6.129 1.988-9.194 0.539V0.574c4.208 1.989 8.415-1.989 12.623 0z m2.295 10.799c0.362-0.085 0.725-0.174 1.087-0.258 1.605-0.379 2.245-1.403 2.244-3.015V8.997c0-1.585-0.414-2.591-2.364-2.134-1.087 0.256-2.175 0.542-3.263 0.644v12.97c0.765-0.072 1.53-0.235 2.296-0.414z m0-2.11V9.097c0.143-0.034 0.287-0.068 0.431-0.102 0.537-0.128 0.586 0.157 0.587 0.627 0 0.721 0 1.441 0 2.162 0 0.401-0.051 0.744-0.587 0.872a82.082 82.082 0 0 1-0.431 0.102z m-9.148 4.351v-5.544c0.161-0.037 0.322-0.075 0.483-0.113 0.467-0.11 0.603 0.015 0.604 0.625v3.783c0.001 0.575 0.087 0.834 0.207 0.947 0.766-0.173 1.53-0.323 2.296-0.377v-0.088c-0.086-0.151-0.19-0.385-0.189-0.943v-4.411c0.001-0.963-0.622-1.331-0.985-1.401 0.43-0.272 1.019-0.802 1.019-1.879V5.633c0-1.391-0.707-2.125-2.106-1.804-1.208 0.272-2.417 0.606-3.625 0.718v12.97c0.765-0.071 1.531-0.231 2.296-0.408z m0-7.688V6.144a73.198 73.198 0 0 0 0.518-0.122c0.466-0.11 0.569 0.041 0.569 0.599v1.761c0 0.61-0.172 0.824-0.638 0.934-0.15 0.035-0.299 0.071-0.449 0.105z"/></svg>