<svg fill="#E62431" role="img" viewBox="0 0 25 24" xmlns="http://www.w3.org/2000/svg"><title>RAD Studio</title><path d="M12.646 10.533l0.737 1.954h-1.472l0.735-1.954zM5.385 9.147c-0.403 0.004-0.805 0.001-1.208 0.001-0.019 0-0.038 0.002-0.061 0.003v2.097c0.018 0.002 0.033 0.004 0.048 0.004 0.414 0 0.829 0.005 1.243-0.002 0.664-0.011 1.141-0.609 1.009-1.26-0.102-0.5-0.547-0.848-1.031-0.843z m19.1 3.361c-0.025 0.409-0.06 0.819-0.112 1.225-0.074 0.568-0.202 1.125-0.365 1.675a11.847 11.847 0 0 1-0.892 2.194 11.979 11.979 0 0 1-2.411 3.159c-0.917 0.859-1.943 1.56-3.078 2.097-0.987 0.467-2.018 0.794-3.096 0.975-0.511 0.086-1.025 0.142-1.543 0.163-0.05 0.002-0.856 0.005-0.868 0.004a12.046 12.046 0 0 1-1.452-0.133 11.763 11.763 0 0 1-1.795-0.418 11.93 11.93 0 0 1-2.283-0.996 11.984 11.984 0 0 1-2.913-2.312c-0.891-0.966-1.606-2.05-2.142-3.25-0.505-1.13-0.824-2.311-0.962-3.541a11.918 11.918 0 0 1-0.073-1.527c0.007-0.432 0.036-0.863 0.087-1.291 0.066-0.537 0.168-1.068 0.306-1.592 0.237-0.899 0.574-1.759 1.011-2.579 0.544-1.021 1.224-1.943 2.033-2.769a11.901 11.901 0 0 1 1.153-1.031C6.132 1.743 7.277 1.114 8.526 0.675 9.008 0.505 9.497 0.362 9.997 0.264c0.381-0.074 0.765-0.136 1.151-0.182 0.343-0.041 0.688-0.061 1.033-0.077 0.236-0.011 0.473-0.001 0.709 0.004 0.467 0.01 0.932 0.056 1.394 0.124 0.502 0.075 0.998 0.182 1.488 0.32 0.815 0.231 1.596 0.544 2.343 0.941a11.995 11.995 0 0 1 3.017 2.274 11.999 11.999 0 0 1 1.362 1.692A11.927 11.927 0 0 1 23.963 8.449c0.224 0.722 0.377 1.459 0.461 2.21 0.068 0.614 0.1 1.231 0.061 1.849zM8.516 14.835c-0.278-0.661-0.556-1.322-0.836-1.983-0.077-0.183-0.174-0.355-0.298-0.51-0.071-0.088-0.148-0.17-0.22-0.252 0.091-0.105 0.189-0.206 0.274-0.316 0.763-0.988 0.704-2.404-0.142-3.322-0.512-0.556-1.156-0.83-1.908-0.84-0.673-0.008-1.345-0.004-2.018 0.001-0.103 0.001-0.211 0.022-0.309 0.055-0.29 0.1-0.483 0.393-0.483 0.716 0 2.235 0 4.469 0.001 6.705 0 0.077 0.01 0.156 0.027 0.231 0.077 0.338 0.378 0.577 0.726 0.582a0.772 0.772 0 0 0 0.783-0.775c0.001-0.755 0-1.509 0-2.263v-0.073c0.023-0.002 0.04-0.004 0.057-0.004 0.373 0 0.747 0 1.121 0a0.226 0.226 0 0 1 0.063 0.008c0.199 0.06 0.391 0.138 0.564 0.256 0.13 0.089 0.251 0.188 0.317 0.337 0.033 0.073 0.064 0.147 0.096 0.221 0.259 0.612 0.517 1.224 0.776 1.835a0.761 0.761 0 0 0 1.013 0.4c0.386-0.172 0.561-0.617 0.396-1.009z m7.381 0c-0.182-0.487-0.365-0.973-0.548-1.46-0.656-1.747-1.311-3.494-1.967-5.241-0.116-0.31-0.397-0.501-0.729-0.502-0.341-0.001-0.624 0.19-0.742 0.503a7269.51 7269.51 0 0 0-2.509 6.69c-0.036 0.096-0.051 0.199-0.065 0.256 0.009 0.256 0.075 0.443 0.223 0.594 0.384 0.395 1.07 0.249 1.266-0.269 0.168-0.442 0.335-0.884 0.5-1.328 0.018-0.047 0.038-0.065 0.091-0.064 0.823 0.002 1.646 0.002 2.47 0 0.052 0 0.074 0.016 0.091 0.063 0.168 0.45 0.336 0.901 0.509 1.35 0.184 0.48 0.815 0.632 1.199 0.291 0.252-0.224 0.333-0.555 0.211-0.883z m7.142-3.645c-0.15-1.092-0.663-1.988-1.523-2.679-0.72-0.578-1.551-0.867-2.469-0.897-0.486-0.016-0.974-0.005-1.461-0.002a0.733 0.733 0 0 0-0.364 0.098c-0.261 0.151-0.383 0.384-0.384 0.68-0.002 1.12-0.001 2.241-0.001 3.361 0 1.122 0 2.245 0 3.367 0 0.451 0.332 0.783 0.782 0.783 0.44 0 0.88 0 1.32 0a4.098 4.098 0 0 0 1.309-0.212c0.854-0.285 1.546-0.795 2.063-1.531 0.627-0.893 0.876-1.887 0.728-2.968z m-3.224-1.895c-0.463-0.181-0.949-0.149-1.432-0.144-0.002 0-0.003 0.002-0.008 0.006v5.205c0.019 0.001 0.034 0.004 0.049 0.003 0.182 0 0.364 0.002 0.545 0 0.646-0.009 1.218-0.225 1.696-0.656 0.67-0.605 0.972-1.37 0.858-2.265-0.133-1.05-0.724-1.764-1.709-2.149z"/></svg>