<svg fill="#19519B" role="img" viewBox="0 0 17 24" xmlns="http://www.w3.org/2000/svg"><title>Rainmeter</title><path d="M9.2 1.088L8.5 0l-0.7 1.088c-0.751 1.168-7.342 11.525-7.342 15.366C0.458 20.615 4.065 24 8.5 24s8.042-3.385 8.042-7.546c0-3.84-6.591-14.197-7.342-15.366zM8.5 22.335c-3.516 0-6.377-2.638-6.377-5.881C2.123 13.908 6.232 6.756 8.5 3.1c2.268 3.656 6.377 10.809 6.377 13.355 0 3.242-2.861 5.88-6.377 5.88z m4.957-6.017c0 2.548-2.22 4.615-4.957 4.615-2.737 0-4.957-2.067-4.957-4.615 0-0.163 0.021-0.347 0.058-0.549 0 0 1.306-2.616 4.847 0 2.999 2.215 4.95 0 4.95 0 0.038 0.202 0.059 0.386 0.059 0.549z"/></svg>