<svg fill="#0075A8" role="img" viewBox="0 0 54 24" xmlns="http://www.w3.org/2000/svg"><title>Rancher</title><path d="M51.101 5.273a1.602 1.602 0 0 1-1.631 1.921h-3.464V4.804h1.051a1.984 1.984 0 0 0 1.966-1.966v-0.872c0-1.072 0.27-1.966 0.604-1.966 0.312 0 0.737 0.872 0.915 1.943l0.559 3.33z m-7.841-2.815c1.092 0 1.964 0.872 2.009 1.988v10.234a1.984 1.984 0 0 1-1.966 1.966h-5.296a1.984 1.984 0 0 1-1.966-1.966v-4.021a1.957 1.957 0 0 0-0.782 1.563v3.375c0 1.072 0.892 1.966 1.966 1.966h3.44v5.228a1.202 1.202 0 0 1-1.206 1.209h-6.48a1.202 1.202 0 0 1-1.207-1.209v-4.871a1.202 1.202 0 0 0-1.206-1.206h-16.177a1.202 1.202 0 0 0-1.209 1.206v4.871a1.202 1.202 0 0 1-1.206 1.209H5.494a1.202 1.202 0 0 1-1.206-1.209V8.807L1.36 11.106c-0.135 0.09-0.315 0.09-0.425-0.045l-0.826-0.984a0.303 0.303 0 0 1-0.023-0.357l4.292-6.548a1.204 1.204 0 0 1 1.094-0.714h22.838a1.213 1.213 0 0 1 1.184 1.409l-0.472 2.792a1.213 1.213 0 0 0 1.187 1.407h4.581a1.202 1.202 0 0 0 1.184-0.982c-0.292 0.09-0.604 0.135-0.939 0.135h-3.263c-1.094 0-1.831-0.872-1.653-1.946l0.559-3.33c0.18-1.072 0.58-1.943 0.915-1.943 0.337 0 0.604 0.894 0.604 1.966v0.514c0.045-0.022 0.112-0.022 0.18-0.022h10.881z m8.201-1.207c0-0.872 0.647-1.251 1.249-1.251 0.604 0 1.251 0.382 1.251 1.251 0 0.849-0.647 1.229-1.251 1.229-0.602 0-1.251-0.382-1.251-1.229z m2.211 0c0-0.692-0.449-0.984-0.94-0.984-0.492 0-0.962 0.292-0.961 0.984 0 0.67 0.472 0.984 0.961 0.985 0.492-0.022 0.939-0.315 0.94-0.985z m-1.364-0.626h0.447c0.225 0 0.447 0.067 0.447 0.382 0 0.18-0.135 0.29-0.292 0.334l0.292 0.513h-0.27l-0.267-0.49h-0.112v0.49h-0.245v-1.229z m0.447 0.561c0.112 0 0.202-0.067 0.202-0.179 0-0.135-0.112-0.157-0.202-0.158h-0.225v0.337h0.225z"/></svg>