<svg fill="#0055DA" role="img" viewBox="0 0 22 24" xmlns="http://www.w3.org/2000/svg"><title>Rapid</title><path d="M15.028 15.798c-0.212-0.065-0.228-0.359 0.017-0.457 4.216-1.993 3.938-6.519 3.938-6.519C18.967 4.232 15.6-0.016 10.158 0 4.112 0.033 0.468 4.787 0.5 10.407 0.55 20.26 8.067 24.017 10.42 24l-0.016-3.905c0-0.62 0-1.11 0.375-1.11 0 0 2.42 2.434 5.116 2.417 4.183-0.016 5.605-3.529 5.605-3.529z m-4.837-3.006a3.86 3.86 0 0 1-3.89-3.855 3.86 3.86 0 0 1 3.857-3.889 3.86 3.86 0 0 1 3.89 3.856c0 2.14-1.716 3.888-3.857 3.888z"/></svg>