<svg fill="#5A17EE" role="img" viewBox="0 0 53 24" xmlns="http://www.w3.org/2000/svg"><title>Rasa</title><path d="M45.964 20.474l-8.54-4.475H2.236V2.134h48.528v13.865h-4.8v4.475ZM0.102 0v18.133h36.797l11.199 5.867v-5.867H52.898V0H0.102Zm4.268 4.268h9.063v4.795l-2.926 1.138 2.996 3.664H10.749l-2.331-2.851-1.914 0.746v2.105h-2.134V4.268ZM17.701 13.865h-2.134V4.268h9.6v9.597h-2.134v-3.198H17.701v3.198Zm9.6-3.73V4.268h9.598v2.133h-7.467v1.6h7.467v5.864h-9.598v-2.133h7.466v-1.597h-7.466Zm11.731-0.535V4.268h9.6v9.597h-2.133v-3.198h-5.333v3.198h-2.134V9.602Zm-32.531-0.132l4.8-1.865v-1.202H6.501v3.069ZM17.701 6.404v2.133h5.332v-2.133H17.701Zm28.795 2.133v-2.133h-5.33v2.133h5.333Z"/></svg>