<svg fill="#028CF0" role="img" viewBox="0 0 25 24" xmlns="http://www.w3.org/2000/svg"><title>Ray</title><path d="M16.656 12.826c-0.63-0.183-1.031 0.15-1.379 0.847-0.58 1.131-1.644 1.645-2.89 1.595-1.246-0.05-2.259-0.63-2.79-1.777-0.233-0.498-0.498-0.665-1.047-0.681-0.931-0.017-1.644 0.016-2.176 1.063-0.631 1.262-2.26 1.694-3.621 1.262a3.236 3.236 0 0 1-2.259-3.222 3.2 3.2 0 0 1 2.292-3.022 3.278 3.278 0 0 1 3.704 1.328c0.216 0.315 0.216 0.864 0.598 0.93 0.648 0.1 1.329 0.033 1.993 0.033 0.299 0 0.316-0.266 0.4-0.465 0.58-1.296 1.611-1.96 2.989-1.977 1.362-0.017 2.392 0.647 2.957 1.894 0.215 0.465 0.48 0.598 0.947 0.548 0.166-0.017 0.332 0.016 0.498 0 0.464-0.083 1.063 0.282 1.345-0.448 0.282-0.731-0.382-0.914-0.68-1.246-0.848-0.947-1.811-1.794-2.675-2.708-0.415-0.465-0.764-0.614-1.411-0.415-1.877 0.614-3.622-0.431-4.153-2.359-0.448-1.677 0.715-3.538 2.441-3.92a3.295 3.295 0 0 1 3.953 2.459c0.017 0.05 0.017 0.083 0.033 0.133 0.117 0.564 0.117 1.146-0.132 1.627-0.283 0.531-0.133 0.831 0.249 1.196a152.725 152.725 0 0 1 3.289 3.272c0.299 0.299 0.498 0.349 0.914 0.201 1.511-0.565 2.972-0.1 3.887 1.161a3.268 3.268 0 0 1-0.067 3.804c-0.897 1.196-2.359 1.644-3.837 1.08-0.381-0.15-0.58-0.1-0.847 0.182a163.743 163.743 0 0 1-3.406 3.389c-0.299 0.3-0.415 0.532-0.232 0.981a3.2 3.2 0 0 1-1.279 3.92A3.3 3.3 0 0 1 10.144 23.008c-1.063-1.063-1.229-2.69-0.415-4.036a3.198 3.198 0 0 1 3.838-1.295c0.498 0.182 0.781 0.083 1.146-0.283 1.013-1.046 2.06-2.06 3.089-3.105 0.266-0.266 0.681-0.449 0.432-1.031-0.233-0.547-0.631-0.414-1.031-0.432zM12.47 4.937c0.914 0.016 1.644-0.715 1.661-1.629v-0.05a1.647 1.647 0 0 0-1.761-1.561 1.631 1.631 0 0 0-1.544 1.528 1.639 1.639 0 0 0 1.578 1.712z m0.033 5.414a1.659 1.659 0 0 0-1.677 1.611v0.084a1.731 1.731 0 0 0 1.644 1.661c0.848 0.016 1.644-0.781 1.678-1.628a1.649 1.649 0 0 0-1.578-1.711c-0.017-0.016-0.05-0.016-0.067-0.016z m7.093 1.695c0.016 0.897 0.748 1.611 1.628 1.644a1.724 1.724 0 0 0 1.661-1.727 1.667 1.667 0 0 0-1.661-1.611 1.624 1.624 0 0 0-1.645 1.578c0.017 0.05 0.017 0.083 0.017 0.116zM3.733 10.352a1.693 1.693 0 0 0-1.661 1.627c-0.017 0.848 0.864 1.728 1.694 1.711a1.688 1.688 0 0 0 1.628-1.744 1.616 1.616 0 0 0-1.645-1.594Zm8.687 12.009c0.981 0.033 1.711-0.647 1.728-1.595a1.647 1.647 0 0 0-1.511-1.794 1.647 1.647 0 0 0-1.794 1.511v0.233a1.61 1.61 0 0 0 1.544 1.662c0-0.017 0.017-0.017 0.033-0.017z"/></svg>