<svg fill="#3F79AD" role="img" viewBox="0 0 26 24" xmlns="http://www.w3.org/2000/svg"><title>Rclone</title><path d="M12.833 0.002C10.22 0.06 7.7 1.442 6.297 3.871c-0.801 1.386-1.123 2.918-1.019 4.403a8.428 8.428 0 0 1 2.803-0.479l1.551-0.001c-0.01-0.59 0.131-1.19 0.448-1.739 0.931-1.612 2.993-2.165 4.605-1.234 1.612 0.931 2.164 2.992 1.233 4.605l-1.559 2.705 1.261 2.185 2.523 0 1.558-2.706c2.137-3.701 0.869-8.434-2.832-10.572C15.596 0.304 14.202-0.029 12.833 0.002m-1.63 8.516l-3.122 0.003C3.806 8.521 0.342 11.986 0.342 16.26c0 4.274 3.465 7.739 7.739 7.739 1.601 0 3.087-0.486 4.321-1.318a8.439 8.439 0 0 1-1.814-2.189l-0.778-1.343c-0.506 0.304-1.096 0.482-1.729 0.482-1.862 0-3.371-1.509-3.371-3.371 0-1.861 1.509-3.371 3.371-3.371l3.122-0.002 1.262-2.185z m10.113 0.788a8.428 8.428 0 0 1-0.986 2.667l-0.775 1.344c0.516 0.287 0.965 0.709 1.282 1.258 0.931 1.612 0.378 3.674-1.234 4.604-1.612 0.931-3.674 0.378-4.604-1.234l-1.564-2.703h-2.522L9.651 17.426l1.565 2.703c2.137 3.702 6.87 4.97 10.572 2.833 3.701-2.137 4.97-6.87 2.832-10.572-0.8-1.386-1.965-2.432-3.304-3.084"/></svg>