<svg fill="#000000" role="img" viewBox="0 0 34 24" xmlns="http://www.w3.org/2000/svg"><title>Reactive Resume</title><path d="M0.269 0v18.054h5.106v-4.796h2.788c2.51-0.003 5.694-0.551 7.356-3.044 0.652-0.998 0.98-2.175 0.98-3.534 0-1.375-0.328-2.56-0.981-3.557-0.652-1.015-1.582-1.79-2.786-2.323-1.185-0.533-2.56-0.8-4.21-0.8H0.269z m5.106 4.024h2.837c1.067 0 1.856 0.233 2.372 0.697 0.533 0.463 0.802 1.115 0.802 1.959 0 0.825-0.269 1.471-0.802 1.935-0.516 0.464-1.305 0.697-2.37 0.697H5.374V4.025z m12.417 5.996l5.248 6.988-5.248 6.992h5.465l2.503-3.329 2.502 3.329H33.731L23.257 10.02h-5.465z m10.47 0l-1.908 2.557 2.745 3.639L33.731 10.02h-5.469zM12.951 13.272s-2.086 0.876-4.834 0.842l2.949 3.94h5.466l-3.581-4.782z"/></svg>