<svg fill="#EC5990" role="img" viewBox="0 0 20 24" xmlns="http://www.w3.org/2000/svg"><title>React Hook Form</title><path d="M8.775 17.348H3.807a0.281 0.281 0 1 0 0 0.563h4.968a0.281 0.281 0 1 0 0-0.563z m7.32 0h-4.969a0.281 0.281 0 1 0 0 0.563h4.969a0.281 0.281 0 0 0 0-0.563z m-7.334-6.475H3.807a0.281 0.281 0 1 0 0 0.563h4.954a0.281 0.281 0 1 0 0-0.563z m7.32 0h-4.955a0.281 0.281 0 1 0 0 0.563h4.955a0.281 0.281 0 0 0 0-0.563z m0.552-9.2h-4.341a2.404 2.404 0 0 0-4.581 0H3.367c-1.71 0-3.097 1.386-3.096 3.096v16.134C0.271 22.614 1.657 24 3.367 24h13.266c1.71 0 3.097-1.387 3.096-3.097V4.769c0-1.71-1.387-3.097-3.096-3.096z m-8.705 0.563a0.281 0.281 0 0 0 0.281-0.223 1.841 1.841 0 0 1 3.598 0 0.281 0.281 0 0 0 0.282 0.223h1.514v1.844a0.845 0.845 0 0 1-0.844 0.844H7.255a0.845 0.845 0 0 1-0.844-0.844v-1.844Zm11.238 18.667c0 1.399-1.134 2.534-2.533 2.534H3.367c-1.399 0-2.534-1.134-2.533-2.534V4.769c0-1.399 1.134-2.534 2.533-2.533h2.481v1.844c0 0.777 0.63 1.408 1.407 1.407h5.49c0.777 0 1.408-0.63 1.407-1.407v-1.844h2.481c1.399 0 2.534 1.134 2.533 2.533z"/></svg>