<svg fill="#B7178C" role="img" viewBox="0 0 25 24" xmlns="http://www.w3.org/2000/svg"><title>ReactiveX</title><path d="M7.841 2.214c-2.254 0.997-3.663 2.617-4.459 3.797-0.863 1.285-1.2 2.35-1.2 2.359-0.002 0.036 0.005-0.017 0 0.02-0.249 0.709-0.479 1.822-0.479 1.831-0.269 1.362-0.144 2.628-0.144 2.647l0.029 0.249a9.708 9.708 0 0 1 0.134-1.026c0.019-0.135 0.375-2.043 1.717-3.557 0.144-0.221 1.697-2.263 4.555-2.263 0.614 0 1.257 0.095 1.899 0.287h0.019c0.039 0.01 0.882 0.317 1.189 0.47 0.288 0.144 0.796 0.365 0.805 0.365h0.02c2.751 1.343 5.13 1.773 5.149 1.783 0.681 0.116 1.295 0.172 1.842 0.172 1.093 0 1.88-0.239 2.292-0.699 0.24-0.263 0.311-0.566 0.297-0.825 0.019-0.998-0.795-2.071-1.487-2.791a11.013 11.013 0 0 0-1.562-1.362c-2.071-1.534-4.286-2.31-6.608-2.31-2.378 0.009-3.99 0.843-4.008 0.853z m7.518 2.695c0.288 0 0.518 0.23 0.518 0.517a0.516 0.516 0 0 1-0.518 0.518 0.516 0.516 0 0 1-0.518-0.517c0-0.288 0.23-0.518 0.518-0.518z m-6.694-1.966c0.076 0 0.125 0.019 0.144 0.019l3.27 1.017-0.124 0.258-1.564-0.488c-0.555-0.172-1.135-0.356-1.678-0.527-0.01 0-0.028-0.01-0.048-0.011-0.02 0-0.049 0-0.067 0.011-0.297 0.076-1.112 0.364-1.352 0.795a0.487 0.487 0 0 0-0.039 0.383c0 0.01 0.172 0.547 0.604 1.103l2.169-0.106 1.447-0.067-0.144 0.297-3.596 0.173c-0.537-0.652-0.748-1.303-0.748-1.304C6.603 3.441 8.531 2.951 8.531 2.951c0.046-0.001 0.091-0.006 0.134-0.01z m11.373 15.957c2.206-0.959 3.145-2.619 3.146-2.618 2.062-2.809 1.362-5.773 1.362-5.773-1.313 2.858-2.513 3.644-2.513 3.644 3.233-4.919 0.02-7.892 0.02-7.892C23.366 9.062 21.62 12.475 21.62 12.475c-1.467 3.089-3.549 4.191-3.549 4.191 2.321 0.432 4.028-1.132 4.029-1.132-3.328 3.596-6.933 3.424-6.934 3.424 1.515 1.697 3.788 1.553 3.788 1.553-2.973 0.699-5.764-0.288-8.056-2.196-0.431-0.355-0.843-0.74-1.226-1.151-0.146-0.152-0.284-0.314-0.423-0.47-0.048 1.774 1.803 3.424 1.803 3.424-2.321-0.96-3.385-3.04-3.385-3.04s-1.564-2.666-0.431-5.706c1.122-3.002 4.478-3.674 4.564-3.694-0.254-0.119-0.653-0.296-0.825-0.372-0.297-0.144-1.16-0.461-1.16-0.461a6.482 6.482 0 0 0-1.822-0.277c-2.829 0-4.334 2.138-4.335 2.138-1.334 1.497-1.65 3.433-1.649 3.433-0.375 1.851 0.028 3.798 0.028 3.798s0.039 0.153 0.049 0.22c0.307 0.73 0.699 1.449 1.16 2.129 2.493 3.721 6.54 5.006 6.54 5.006 5.993 2.033 10.088-0.959 10.088-0.959 3.77-2.589 4.527-5.582 4.527-5.581-3.05 2.369-4.364 2.148-4.364 2.148zM1.664 14.988a12.713 12.713 0 0 1-0.365-1.804c-0.01-0.099-0.025-0.21-0.037-0.306 0 0-0.135-1.304 0.153-2.733 0 0 0.01-0.039 0.02-0.096 0.036-0.206 0.094-0.412 0.134-0.585 0.086-0.375 0.211-0.825 0.334-1.19 0 0 1.324-4.344 5.803-6.328 0 0 1.544-0.816 3.874-0.874-0.164-0.162-0.354-0.333-0.517-0.441-1.094-0.73-2.724-0.969-3.712 0.058-0.297 0.307-0.547 0.642-0.825 0.95-0.316 0.345-0.699 0.632-1.141 0.795-0.383 0.144-0.767 0.116-1.16 0.183-0.402 0.067-0.815 0.211-1.141 0.47-0.355 0.288-0.499 0.671-0.537 1.111-0.039 0.346-0.028 0.7-0.048 1.046-0.049 1.016-0.375 1.304-1.103 1.87-0.307 0.23-0.565 0.537-0.757 0.863-0.576 1.016 0.345 2.071 0.393 3.098 0.01 0.211-0.01 0.422-0.086 0.623-0.077 0.22-0.231 0.365-0.355 0.547-0.173 0.239-0.289 0.527-0.24 0.824 0.048 0.297 0.202 0.576 0.344 0.834 0.279 0.461 0.624 0.874 0.988 1.267 0.012 0.016 0.039 0.041 0.055 0.053l-0.074-0.235z"/></svg>