<svg fill="#FF4154" role="img" viewBox="0 0 27 24" xmlns="http://www.w3.org/2000/svg"><title>React Query</title><path d="M7.833 13.887c0.183-0.105 0.419-0.039 0.524 0.148l0.07 0.118c0.537 0.952 1.096 1.855 1.677 2.711 0.685 1.008 1.458 2.03 2.318 3.065a0.386 0.386 0 0 1-0.044 0.541l-0.083 0.074c-2.842 2.484-4.684 2.977-5.536 1.489-0.834-1.458-0.533-4.104 0.904-7.945a0.384 0.384 0 0 1 0.17-0.201ZM19.926 16.807c0.205-0.035 0.402 0.096 0.441 0.302l0.022 0.113c0.703 3.671 0.21 5.509-1.48 5.51-1.654 0-3.754-1.567-6.313-4.698a0.366 0.366 0 0 1-0.083-0.249c0-0.21 0.175-0.38 0.385-0.38h0.135a36.862 36.862 0 0 0 3.139-0.109c1.196-0.096 2.449-0.258 3.754-0.489z m0.974-7.797a0.394 0.394 0 0 1 0.497-0.235l0.114 0.039c3.645 1.24 5.034 2.606 4.156 4.095-0.856 1.458-3.344 2.519-7.47 3.182-0.092 0.013-0.188-0.004-0.266-0.052-0.188-0.109-0.253-0.345-0.14-0.533l0.07-0.117c0.563-0.943 1.07-1.882 1.528-2.821 0.533-1.105 1.039-2.292 1.511-3.558zM8.803 7.91c0.092-0.013 0.188 0.004 0.266 0.053 0.188 0.109 0.253 0.345 0.14 0.532l-0.07 0.118a38.097 38.097 0 0 0-1.528 2.82c-0.533 1.105-1.039 2.292-1.511 3.558a0.394 0.394 0 0 1-0.497 0.236l-0.114-0.039c-3.645-1.24-5.034-2.606-4.156-4.095 0.856-1.458 3.344-2.519 7.47-3.183Zm5.902-4.453c2.842-2.484 4.684-2.977 5.536-1.488 0.834 1.458 0.533 4.104-0.904 7.945a0.384 0.384 0 0 1-0.17 0.201c-0.183 0.105-0.419 0.039-0.524-0.148l-0.07-0.118c-0.537-0.952-1.096-1.855-1.676-2.711-0.685-1.008-1.458-2.03-2.319-3.065a0.386 0.386 0 0 1 0.044-0.541Zm-6.474-2.326c1.655 0 3.759 1.567 6.312 4.697a0.39 0.39 0 0 1 0.088 0.244c-0.004 0.214-0.175 0.384-0.389 0.385l-0.131-0.005a38.65 38.65 0 0 0-3.139 0.114c-1.201 0.096-2.453 0.258-3.758 0.489a0.383 0.383 0 0 1-0.441-0.306l-0.022-0.109c-0.703-3.671-0.21-5.509 1.48-5.509Zm3.209 6.496h4.121a0.713 0.713 0 0 1 0.615 0.353l2.065 3.597a0.719 0.719 0 0 1 0 0.703l-2.065 3.602a0.713 0.713 0 0 1-0.615 0.354h-4.121c-0.253 0-0.489-0.135-0.612-0.354L8.759 12.28a0.719 0.719 0 0 1 0-0.703l2.069-3.597c0.122-0.218 0.358-0.354 0.612-0.353Zm3.61 0.886a0.713 0.713 0 0 1 0.615 0.353l1.555 2.711a0.719 0.719 0 0 1 0 0.703l-1.555 2.716a0.713 0.713 0 0 1-0.615 0.353h-3.1c-0.253 0-0.489-0.135-0.611-0.353L9.781 12.28a0.719 0.719 0 0 1 0-0.703l1.558-2.711c0.122-0.218 0.358-0.354 0.611-0.353Zm-0.55 0.969h-2c-0.253 0-0.485 0.131-0.611 0.354l-1.004 1.741a0.719 0.719 0 0 0 0 0.703l1.004 1.747a0.706 0.706 0 0 0 0.611 0.353h2a0.706 0.706 0 0 0 0.611-0.353l1.004-1.747a0.719 0.719 0 0 0 0-0.703l-1.004-1.741c-0.127-0.223-0.358-0.354-0.611-0.354Zm-0.533 0.925c0.253 0 0.489 0.135 0.611 0.354l0.472 0.816c0.127 0.218 0.127 0.489 0 0.703l-0.472 0.821c-0.122 0.218-0.358 0.354-0.611 0.354h-0.934a0.706 0.706 0 0 1-0.611-0.354l-0.472-0.821c-0.127-0.214-0.127-0.485 0-0.703l0.472-0.816a0.706 0.706 0 0 1 0.611-0.354z m-0.467 0.913a0.612 0.612 0 0 0-0.528 0.305c-0.109 0.188-0.109 0.419 0 0.612a0.608 0.608 0 0 0 0.528 0.301 0.608 0.608 0 0 0 0.528-0.301c0.109-0.192 0.109-0.423 0-0.612A0.612 0.612 0 0 0 13.5 11.32Zm-4.942 0.611h1.096M21.301 7.251c0.437-2.117 0.533-3.737 0.249-4.915-0.166-0.703-0.471-1.27-0.938-1.686-0.493-0.437-1.118-0.65-1.817-0.65-1.157 0-2.371 0.528-3.667 1.528-0.528 0.406-1.078 0.899-1.645 1.471-0.048-0.057-0.096-0.113-0.153-0.161-1.615-1.436-2.973-2.327-4.135-2.672-0.69-0.205-1.336-0.223-1.925-0.026-0.624 0.21-1.122 0.642-1.471 1.248-0.576 1-0.729 2.318-0.515 3.942 0.087 0.659 0.24 1.379 0.45 2.161a1.25 1.25 0 0 0-0.241 0.053C3.451 8.225 2.001 8.949 1.124 9.783c-0.52 0.493-0.86 1.048-0.987 1.655-0.127 0.646 0 1.292 0.349 1.899 0.576 1 1.637 1.786 3.148 2.409 0.607 0.249 1.292 0.476 2.06 0.681a1.143 1.143 0 0 0-0.078 0.254c-0.437 2.113-0.533 3.737-0.249 4.911 0.166 0.703 0.476 1.275 0.939 1.685 0.493 0.437 1.118 0.65 1.816 0.65 1.157 0 2.37-0.528 3.667-1.523 0.533-0.415 1.087-0.912 1.663-1.493a1.341 1.341 0 0 0 0.218 0.253c1.615 1.436 2.973 2.327 4.135 2.672 0.69 0.205 1.336 0.223 1.925 0.026 0.624-0.21 1.122-0.642 1.471-1.249 0.576-1 0.729-2.318 0.515-3.942-0.092-0.685-0.249-1.432-0.476-2.248a1.369 1.369 0 0 0 0.267-0.052c2.043-0.681 3.492-1.406 4.369-2.24 0.52-0.493 0.86-1.048 0.987-1.654 0.127-0.646 0-1.292-0.349-1.899-0.576-1-1.637-1.786-3.148-2.41-0.624-0.257-1.336-0.493-2.13-0.699a0.966 0.966 0 0 0 0.065-0.218z"/></svg>