<svg fill="#41E0FD" role="img" viewBox="0 0 26 24" xmlns="http://www.w3.org/2000/svg"><title>React Bootstrap</title><path d="M8.441 0c-0.528 0-1 0.118-1.403 0.351-0.387 0.224-0.713 0.558-0.968 0.993-0.239 0.407-0.415 0.903-0.523 1.474-0.209 1.099-0.164 2.475 0.131 3.978 0.037 0.189 0.078 0.381 0.122 0.571a17.936 17.936 0 0 0-0.68 0.221c-1.419 0.495-2.606 1.141-3.431 1.87-0.428 0.377-0.76 0.776-0.987 1.185C0.461 11.078 0.339 11.524 0.339 11.97c0 0.893 0.494 1.797 1.43 2.617 0.881 0.773 2.126 1.447 3.6 1.951 0.137 0.047 0.276 0.092 0.417 0.135a17.936 17.936 0 0 0-0.136 0.643c-0.28 1.476-0.313 2.827-0.095 3.907 0.113 0.559 0.293 1.046 0.534 1.447 0.257 0.426 0.582 0.755 0.968 0.977 0.406 0.234 0.885 0.353 1.422 0.353 0.731 0 1.548-0.217 2.428-0.644 0.863-0.419 1.745-1.019 2.62-1.784a13.716 13.716 0 0 0 0.412-0.375h0.207v0h6.278q1.373 0 2.37-0.401c0.665-0.267 1.207-0.627 1.632-1.079 0.426-0.452 0.737-0.992 0.936-1.619 0.199-0.621 0.299-1.295 0.299-2.013 0.001-1.254-0.227-2.292-0.677-3.124q-0.67-1.231-1.97-1.598a0.034 0.034 0 0 1-0.021-0.034 0.036 0.036 0 0 1 0.016-0.031c0.645-0.359 1.142-0.87 1.489-1.522q0.525-0.986 0.526-2.374c0-1.526-0.386-2.661-1.155-3.417-0.769-0.755-1.792-1.131-3.067-1.13h-6.871a16.881 16.881 0 0 0-0.325-0.297c-0.908-0.806-1.814-1.438-2.692-1.878C10.013 0.229 9.181 0 8.441 0m0.008 1.793c0.458 0 1.05 0.18 1.712 0.52 0.718 0.369 1.497 0.918 2.252 1.588q0.07 0.062 0.143 0.129c-0.664 0.734-1.319 1.55-1.947 2.429-1.072 0.105-2.102 0.261-3.068 0.465a15.826 15.826 0 0 1-0.097-0.458l-0.003-0.016c-0.23-1.175-0.286-2.249-0.162-3.103 0.107-0.735 0.347-1.26 0.659-1.441 0.13-0.075 0.302-0.113 0.511-0.113m5.444 3.394v13.623l-0.808-0.997-0.527-0.652c-0.266-0.329-0.693-0.938-1.202-1.713a30.597 30.597 0 0 1-0.839-1.352l-0.015-0.027c-0.244-0.42-0.425-0.759-0.571-1.031a41.148 41.148 0 0 1-0.534-1.035l0.032-0.061 0.001-0.004a32.707 32.707 0 0 1 0.598-1.158l0.001-0.003 0.219-0.425 0.323-0.535 0.002-0.004c0.121-0.205 0.246-0.413 0.372-0.616l0.223-0.368c0.296-0.49 0.534-0.848 0.909-1.365 0.202-0.279 0.394-0.524 0.698-0.903l0.001-0.001 0.015-0.019 0.006-0.008c0.123-0.157 0.248-0.312 0.37-0.461l0.004-0.004 0.002-0.003a87.571 87.571 0 0 1 0.72-0.878z m2.523 0.266h4.039c0.678 0 1.196 0.19 1.555 0.566s0.538 1.028 0.538 1.953c0 0.823-0.199 1.451-0.598 1.893-0.399 0.442-0.897 0.658-1.495 0.659h-4.04c-0.015 0-0.027-0.016-0.027-0.035l0.001-5.001c0-0.019 0.012-0.035 0.027-0.035M9.305 8.43a33.235 33.235 0 0 0-0.837 1.451 24.267 24.267 0 0 1-0.44-1.224 24.267 24.267 0 0 1 1.277-0.227m-3.022 0.668c0.304 0.942 0.684 1.916 1.13 2.899l0 0c-0.453 1-0.839 1.989-1.146 2.945a12.661 12.661 0 0 1-0.317-0.103c-1.226-0.419-2.246-0.96-2.953-1.564-0.54-0.462-0.862-0.95-0.862-1.305 0-0.364 0.322-0.833 0.885-1.287 0.654-0.529 1.586-1.013 2.692-1.399a15.826 15.826 0 0 1 0.571-0.186m10.132 3.738h4.377c0.758 0 1.34 0.237 1.762 0.73s0.63 1.188 0.63 2.098c0 0.925-0.211 1.645-0.629 2.149-0.415 0.509-1.004 0.762-1.762 0.762h-4.378c-0.015 0-0.027-0.016-0.027-0.035v-5.669c0-0.019 0.012-0.035 0.027-0.035M8.47 14.111a33.129 33.129 0 0 0 0.863 1.489 23.212 23.212 0 0 1-1.32-0.22v0c0.136-0.415 0.289-0.84 0.457-1.269m-0.943 3.001c0.952 0.195 1.994 0.342 3.103 0.437 0.635 0.885 1.295 1.706 1.964 2.445-0.083 0.076-0.166 0.151-0.249 0.223-0.968 0.846-1.941 1.458-2.811 1.77l-0.018 0.006c-0.39 0.138-0.739 0.208-1.036 0.208-0.219 0-0.395-0.038-0.525-0.113-0.315-0.182-0.561-0.696-0.673-1.409-0.132-0.832-0.085-1.88 0.133-3.03l0 0c0.034-0.179 0.071-0.358 0.112-0.537"/></svg>