<svg fill="#FF4154" role="img" viewBox="0 0 27 24" xmlns="http://www.w3.org/2000/svg"><title>React Table</title><path d="M18.795 0c0.7 0 1.322 0.215 1.815 0.649 0.466 0.412 0.773 0.984 0.941 1.685 0.283 1.178 0.189 2.8-0.248 4.915a1.235 1.235 0 0 1-0.067 0.218c0.796 0.209 1.505 0.441 2.13 0.7 1.511 0.625 2.572 1.413 3.149 2.411 0.35 0.606 0.477 1.252 0.346 1.896-0.123 0.61-0.464 1.162-0.985 1.656-0.876 0.833-2.325 1.56-4.37 2.238a1.229 1.229 0 0 1-0.264 0.056c0.225 0.815 0.383 1.565 0.474 2.249 0.216 1.623 0.063 2.938-0.514 3.939-0.351 0.607-0.847 1.039-1.471 1.25-0.59 0.198-1.237 0.179-1.928-0.026-1.161-0.344-2.518-1.236-4.131-2.671a1.229 1.229 0 0 1-0.218-0.255c-0.577 0.582-1.132 1.08-1.666 1.492-1.296 0.999-2.511 1.524-3.666 1.524-0.7 0-1.322-0.212-1.815-0.648-0.466-0.414-0.773-0.984-0.941-1.684-0.283-1.178-0.189-2.801 0.248-4.916 0.018-0.088 0.045-0.172 0.08-0.25-0.768-0.205-1.454-0.431-2.06-0.682C2.122 15.122 1.062 14.334 0.485 13.335c-0.35-0.606-0.477-1.252-0.346-1.897 0.123-0.609 0.464-1.161 0.985-1.656 0.876-0.832 2.325-1.56 4.37-2.238 0.079-0.026 0.16-0.044 0.241-0.054a16.694 16.694 0 0 1-0.451-2.163c-0.216-1.623-0.063-2.938 0.514-3.939 0.351-0.607 0.847-1.039 1.471-1.249 0.59-0.198 1.237-0.179 1.928 0.025 1.161 0.344 2.518 1.236 4.131 2.671 0.056 0.05 0.108 0.105 0.153 0.165 0.57-0.576 1.12-1.066 1.649-1.476 1.296-0.998 2.511-1.524 3.665-1.524zM8.313 13.968a0.382 0.382 0 0 0-0.65 0.119c-1.435 3.84-1.737 6.489-0.905 7.946 0.852 1.489 2.697 0.994 5.536-1.486l0.086-0.076 0.059-0.066a0.392 0.392 0 0 0-0.018-0.478 40.502 40.502 0 0 1-2.317-3.065 38.035 38.035 0 0 1-1.679-2.711l-0.067-0.118z m11.691 2.832l-0.075 0.006c-1.307 0.23-2.559 0.393-3.759 0.488-1.017 0.08-2.062 0.117-3.138 0.112h-0.134l-0.079 0.007a0.383 0.383 0 0 0-0.221 0.619C15.154 21.165 17.256 22.729 18.909 22.729c1.69 0 2.184-1.836 1.482-5.507l-0.022-0.112-0.022-0.074a0.382 0.382 0 0 0-0.418-0.23z m-6.964-1.27H10.577l0.282 0.491a0.706 0.706 0 0 0 0.612 0.356h1.569v-0.847z m3.45 0h-2.462v0.847h1.568a0.706 0.706 0 0 0 0.612-0.355l0.282-0.492zM21.323 8.757a0.397 0.397 0 0 0-0.423 0.252 40.106 40.106 0 0 1-1.511 3.559 37.72 37.72 0 0 1-1.527 2.822l-0.07 0.118-0.034 0.072a0.386 0.386 0 0 0 0.173 0.46 0.402 0.402 0 0 0 0.265 0.049c4.126-0.665 6.616-1.725 7.474-3.18 0.876-1.489-0.51-2.854-4.158-4.098l-0.111-0.036z m-12.425-0.85l-0.092 0.004c-4.126 0.665-6.616 1.725-7.474 3.18-0.876 1.489 0.51 2.854 4.158 4.098l0.112 0.037 0.077 0.017c0.18 0.023 0.359-0.078 0.423-0.252a40.106 40.106 0 0 1 1.511-3.559 37.72 37.72 0 0 1 1.527-2.822l0.071-0.118 0.033-0.072a0.386 0.386 0 0 0-0.173-0.46 0.402 0.402 0 0 0-0.265-0.049z m4.143 5.645H9.443l0.567 0.99h3.028v-0.99z m4.584 0h-3.596v0.99h3.028l0.568-0.99z m-4.584-1.976H8.875l-0.081 0.144a0.706 0.706 0 0 0 0 0.701l0.081 0.143h4.165v-0.988z m5.152 0h-4.164v0.988h4.164l0.082-0.143a0.706 0.706 0 0 0 0-0.701l-0.082-0.144z m-5.152-1.976h-3.029l-0.568 0.988h3.597v-0.988z m4.018 0h-3.03v0.988h3.596l-0.566-0.988z m3.184-7.633c-0.852-1.489-2.697-0.994-5.536 1.486l-0.086 0.076-0.059 0.066a0.392 0.392 0 0 0 0.018 0.478c0.858 1.035 1.632 2.056 2.318 3.065 0.581 0.855 1.141 1.758 1.678 2.711l0.067 0.118 0.045 0.065a0.382 0.382 0 0 0 0.651-0.119c1.435-3.84 1.737-6.489 0.904-7.946z m-7.202 5.798h-1.568a0.706 0.706 0 0 0-0.613 0.355l-0.283 0.491h2.464v-0.846z m2.556 0h-1.568v0.846h2.463l-0.283-0.491a0.706 0.706 0 0 0-0.612-0.355zM8.231 1.13c-1.689 0-2.183 1.835-1.482 5.508l0.023 0.111 0.022 0.073c0.067 0.163 0.239 0.263 0.419 0.231a39.684 39.684 0 0 1 3.759-0.488 37.164 37.164 0 0 1 3.137-0.112h0.134l0.078-0.006a0.383 0.383 0 0 0 0.222-0.62c-2.555-3.132-4.658-4.697-6.312-4.697z"/></svg>