<svg fill="#CA4245" role="img" viewBox="0 0 45 24" xmlns="http://www.w3.org/2000/svg"><title>React Router</title><path d="M22.717 0a4.235 4.235 0 0 0-1.144 0.147c-0.511 0.123-1.289 0.61-1.751 1.071-0.753 0.777-0.9 1.118-1.215 2.698-0.147 0.777 0.753 2.626 1.555 3.184 0.826 0.582 1.993 0.922 3.792 1.117 2.624 0.294 3.379 1.168 3.38 4.034 0 2.529-0.707 3.208-3.6 3.501-3.135 0.316-4.738 1.532-5.078 3.887-0.195 1.434 0.753 3.232 2.066 3.84 2.988 1.41 5.785-0.364 6.367-4.032 0.387-2.358 1.142-3.015 3.67-3.209 2.916-0.244 4.424-1.24 4.982-3.282 0.511-1.873-0.558-3.961-2.382-4.69-0.485-0.195-1.603-0.437-2.479-0.534-2.746-0.294-3.451-0.779-3.743-2.553-0.413-2.455-0.582-2.869-1.458-3.838a3.992 3.992 0 0 0-2.962-1.341z m-8.788 8.007a3.939 3.939 0 0 0-0.913 0.088c-2.698 0.584-3.985 3.767-2.479 6.052 2.163 3.258 7.243 1.75 7.291-2.162 0.022-2.191-1.8-3.936-3.899-3.978zM4.299 16.022a4.077 4.077 0 0 0-0.785 0.095c-3.963 0.874-4.108 6.659-0.194 7.68 0.973 0.266 1.069 0.266 2.04 0.024 2.187-0.584 3.427-2.674 2.845-4.788-0.511-1.873-2.101-3.056-3.906-3.011z m36.406 0.014c-0.428 0.004-0.876 0.107-1.44 0.298-2.553 0.876-3.427 3.842-1.8 6.126 1.023 1.458 3.599 1.943 5.179 0.948 2.6-1.605 2.503-5.614-0.171-6.88-0.698-0.342-1.218-0.498-1.768-0.492z"/></svg>