<svg fill="#018EF5" role="img" viewBox="0 0 33 24" xmlns="http://www.w3.org/2000/svg"><title>ReadMe</title><path d="M30.26 0h-8.002a5.895 5.895 0 0 0-5.753 4.598A5.895 5.895 0 0 0 10.753 0h-7.996A2.75 2.75 0 0 0 0.007 2.75v14.079a2.75 2.75 0 0 0 2.75 2.749h5.136c5.851 0 7.6 1.408 8.436 4.306a0.154 0.154 0 0 0 0.155 0.116h0.032a0.154 0.154 0 0 0 0.154-0.116c0.841-2.898 2.59-4.306 8.437-4.306h5.136A2.75 2.75 0 0 0 32.993 16.829V2.75a2.75 2.75 0 0 0-2.733-2.75Zm-16.394 15.195a0.198 0.198 0 0 1-0.198 0.198H4.484a0.198 0.198 0 0 1-0.198-0.198v-1.309a0.198 0.198 0 0 1 0.198-0.198h9.184a0.198 0.198 0 0 1 0.198 0.198z m0-3.486a0.198 0.198 0 0 1-0.198 0.197H4.484a0.198 0.198 0 0 1-0.198-0.197v-1.309a0.198 0.198 0 0 1 0.198-0.198h9.184a0.198 0.198 0 0 1 0.198 0.198z m0-3.487a0.198 0.198 0 0 1-0.198 0.198H4.484a0.198 0.198 0 0 1-0.198-0.198v-1.309a0.198 0.198 0 0 1 0.198-0.198h9.184a0.198 0.198 0 0 1 0.198 0.198z m14.849 6.968a0.198 0.198 0 0 1-0.198 0.198h-9.185a0.198 0.198 0 0 1-0.198-0.198v-1.309a0.198 0.198 0 0 1 0.198-0.198h9.184a0.198 0.198 0 0 1 0.198 0.198z m0-3.487a0.198 0.198 0 0 1-0.198 0.198h-9.185a0.198 0.198 0 0 1-0.198-0.198v-1.309a0.198 0.198 0 0 1 0.198-0.198h9.184a0.198 0.198 0 0 1 0.198 0.198z m0-3.487a0.198 0.198 0 0 1-0.198 0.198h-9.185a0.198 0.198 0 0 1-0.198-0.198v-1.303a0.198 0.198 0 0 1 0.198-0.198h9.184a0.198 0.198 0 0 1 0.198 0.198v1.309z"/></svg>