<svg fill="#111111" role="img" viewBox="0 0 23 24" xmlns="http://www.w3.org/2000/svg"><title>Read.cv</title><path d="M20.331 3.367L8.168 0.108C6.489-0.342 4.763 0.655 4.313 2.334L0.443 16.777C-0.007 18.457 0.989 20.183 2.669 20.633L14.832 23.892C16.511 24.342 18.237 23.345 18.687 21.666L22.557 7.223C23.007 5.543 22.011 3.817 20.331 3.367ZM5.833 2.741C6.058 1.902 6.921 1.403 7.761 1.628L19.924 4.887C20.763 5.112 21.262 5.975 21.037 6.815L17.167 21.259C16.942 22.098 16.079 22.597 15.239 22.371L3.076 19.112C2.237 18.887 1.738 18.024 1.963 17.185L5.833 2.741ZM8.467 5.077C8.047 4.964 7.615 5.213 7.503 5.633 7.39 6.053 7.639 6.484 8.059 6.597L17.181 9.041C17.601 9.154 18.033 8.905 18.145 8.485 18.258 8.065 18.009 7.633 17.589 7.521L8.467 5.077ZM6.484 9.434C6.597 9.014 7.028 8.765 7.448 8.877L16.57 11.322C16.99 11.434 17.239 11.866 17.127 12.286 17.014 12.705 16.583 12.955 16.163 12.842L7.041 10.398C6.621 10.285 6.372 9.854 6.484 9.434ZM6.43 12.678C6.01 12.566 5.578 12.815 5.466 13.235 5.353 13.655 5.603 14.086 6.022 14.199L11.344 15.625C11.763 15.737 12.195 15.488 12.307 15.068 12.42 14.648 12.171 14.217 11.751 14.104L6.43 12.678Z"/></svg>