<svg fill="#3578E5" role="img" viewBox="0 0 11 24" xmlns="http://www.w3.org/2000/svg"><title>Recoil</title><path d="M10.59 8.862a3.018 3.017 90 0 0-2.615-2.43l-0.245-0.03a1.662 1.662 0 0 1-1.453-1.645v-0.856a2.028 2.028 0 1 0-1.602-0.02v0.874a3.264 3.263 90 0 0 2.855 3.236l0.245 0.032c0.764 0.096 1.144 0.66 1.246 1.155 0.1 0.495-0.03 1.163-0.698 1.55a2.569 2.569 0 0 1-1.055 0.337l-3.68 0.346a4.212 4.212 0 0 0-1.71 0.546 3.02 3.02 0 0 0-1.468 3.257 3.018 3.017 90 0 0 2.615 2.43l0.245 0.032a1.662 1.662 0 0 1 1.453 1.644v0.777a2.03 2.03 0 1 0 1.602 0.016v-0.793a3.264 3.263 90 0 0-2.856-3.236l-0.244-0.032c-0.764-0.096-1.145-0.66-1.246-1.155-0.1-0.495 0.03-1.163 0.697-1.55a2.569 2.569 0 0 1 1.057-0.337l3.68-0.345a4.212 4.212 0 0 0 1.71-0.546 3.024 3.023 90 0 0 1.467-3.258z m-2.653 4.708a5.71 5.71 0 0 1-0.436 0.06l-1.543 0.147 1.93 2.119a3.47 3.47 0 0 1 0.906 2.34H10.4a5.07 5.07 0 0 0-1.325-3.42z m-5.003-3.11a4.65 4.65 0 0 1 0.546-0.08l1.427-0.136L2.969 8.12a3.47 3.47 0 0 1-0.905-2.34H0.463c0 1.267 0.47 2.483 1.324 3.42z"/></svg>