<svg fill="#DB0A40" role="img" viewBox="0 0 43 24" xmlns="http://www.w3.org/2000/svg"><title>Red Bull</title><path d="M39.817 10.896c-0.686 2.195-1.798 4.111-3.78 5.438l-0.582 0.442-0.466 0.417-0.16 0.189-0.045 0.072-0.019 0.049-0.007 0.029v0.023l0.002 0.015 0.003 0.013 0.004 0.01 0.009 0.013 0.003 0.003 0.018 0.014 0.021 0.013 0.019 0.007a0.282 0.282 0 0 0 0.082 0.01h0.042c0.314-0.012 0.903-0.249 1.11-0.432l-0.246 0.242-0.289 0.263-0.305 0.257-0.318 0.249-0.326 0.24-0.348 0.236-0.36 0.23-0.363 0.217-0.376 0.208-0.393 0.203-0.399 0.191-0.397 0.176-0.417 0.171-0.079 0.032c-3.476 1.346-7.635 1.507-10.435-0.776 0.623 0.607 1.389 1.285 2.116 1.729-0.443-0.076-0.757-0.418-1.175-0.549 0.007 0.014 1.015 1.325 4.026 1.669l0.558 0.057 0.846 0.054 0.819 0.025 0.791-0.016 0.776-0.069 0.819-0.148 0.707-0.189 1.057-0.319 0.519-0.143 0.226-0.058c0.184-0.046 0.378-0.092 0.587-0.136l0.073-0.016c0.129 0.055-0.925 0.598-2.372 1.006-0.637 0.233-1.304 0.353-1.974 0.4l-0.475 0.021-0.381 0.002-0.385-0.009-0.465-0.026-0.556-0.048-0.547-0.06-0.099-0.012c-0.708-0.086-1.378-0.189-1.98-0.252h-0.01 0.01c0.053 0.026 0.369 0.169 1.883 0.709-0.108 0.039-0.61 0.108-2.71-0.791 4.265 2.456 8.801 1.339 12.82-1.032l0.621-0.379 0.094-0.06 0.519-0.337 0.266-0.182c0.314-0.213 0.623-0.434 0.928-0.66 0 0.016-0.007 0.037-0.007 0.055a1.699 1.699 0 0 0 0.132 0.018c-0.025 0.072-0.025 0.072-0.377 0.492 0.768-0.619 1.163-1.581 1.976-2.162-0.416 0.835-0.949 1.434-1.941 2.402 0.058-0.042 0.113-0.09 0.168-0.138l0.049-0.046-0.049 0.046a13.904 13.904 0 0 1-6.497 3.467c0.222-0.025 0.443-0.069 0.658-0.128-0.388 0.108-0.401 0.12-0.564 0.174 0.102-0.012 0.102-0.012 0.631-0.12-0.309 0.152-0.665 0.224-1.526 0.399 4.951-0.783 10.094-4.536 10.509-9.614a0.251 0.251 0 0 1-0.268-0.253c0.016-0.992-0.259-1.733-0.741-2.297-0.288 1.023-0.729 2.004-1.812 3.656-0.459 0.693-1.27 0.723-1.774 1.36l-0.037-0.023-0.056-0.049-0.009-0.005-0.007-0.004-0.002-0.002h-0.005l-0.012 0.002h-0.006l-0.002 0.002a0.341 0.341 0 0 0-0.102 0.09l0.11-0.124 0.118-0.162 0.028-0.055 0.009-0.024 0.003-0.018v-0.018l-0.001-0.016-0.002-0.005-0.004-0.007-0.001-0.005-0.006-0.006a0.048 0.048 0 0 0-0.009-0.01l-0.015-0.011-0.071-0.033-0.011-0.007-0.007-0.007-0.003-0.006-0.004-0.003-0.003-0.011v-0.01l0.001-0.013 0.008-0.019 0.04-0.06 0.025-0.028c1.097-1.212 2.103-2.304 2.537-3.931l0.011-0.038-0.048 0.057c-0.154 0.182-0.259 0.259-0.423 0.468l0.194-0.689 0.061-0.224 0.115-0.458 0.092-0.397a1.516 1.516 0 0 0-0.208-0.097Zm-3.983 10.937a15.891 15.891 0 0 1-1.949 0.965c-0.67 0.273-1.355 0.492-2.033 0.625a17.69 17.69 0 0 0 3.982-1.59Zm-11.477 0.358l0.09 0.036-0.002-0.021-0.088-0.015Zm6.429-4.952c-0.656-0.355-0.909-1.112-1.312-1.668-1.059-1.094-1.237-2.966-1.514-4.497-0.279-1.487-1.549-2.588-2.432-3.739-0.782-0.637-2.821-2.571-3.785-2.88-1.27-0.528-2.378 0.471-3.435 0.96-0.859 0.355-1.768 0.455-2.527 1.112-1.189 1.526-1.904 0.305-3.283 1.514-2.056 2.153-2.834 0.258-5.659 2.779-0.757 0.453-1.466 0.909-2.378 0.859-1.452-0.069-1.946-2.02-0.81-2.881 0.792-0.886 2.738-1.798 1.771-3.231-1.006-0.896-2.188-0.515-3.384-1.514-0.552 0.865 0.154 2.038 1.061 2.326 0.372 0.231 1.237-0.138 1.415 0.4-0.383 0.766-1.429 1.18-1.92 1.922-1.223 1.412-0.016 3.726 1.717 3.834 0.64 0.206 1.456-0.316 1.87-0.101 0.049 0.505 0 0.96 0.101 1.415 0.048 0.498 0.614 1.03 0.303 1.514-0.503 0.432-1.154 0.653-1.817 0.612-0.344 0.397-0.402 0.847-0.607 1.313-0.251 0.455-0.755 0.656-1.11 0.859-0.235 0.355-0.468 0.748-0.962 0.808-0.302 0.355-0.353 0.808-0.453 1.264 1.263 0.335 1.535 0.166 2.223-0.909 0.252-0.252 0.607-0.051 0.858 0 0.718-0.086 1.255-0.566 1.769-1.011 1.839-0.48 1.821 0.723 3.94-0.656 0.355-0.152 0.506-0.556 0.659-0.86 0.176-0.339 0.667-0.992 0.049-1.161-1.586 3.21-4.348 0.596-6.467 3.026-0.325 0.09-0.072-0.415 0-0.506 1.521-2.216 4.981-0.265 6.163-3.134 0.206-0.441 0.09-2.2 0.606-2.173 0.051 0 0.203 0.051 0.203 0.151-0.491 2.142-0.166 2.807 2.12 2.432 0.783-0.226 3.028 0.573 2.982-0.505 0-0.201-0.203-0.302 0-0.453 0.049-0.051 0.201 0 0.253 0.049 0.143 0.865 0.902 1.5 1.621 1.87 1.452 0.988 0.865 2.278-0.81 2.224-0.556-0.303-0.706-0.859-1.111-1.315-0.471-0.413-1.117-0.215-1.666-0.101-0.273 0.411 0.374 0.902 0.505 1.315 0.252 0.152 0.607-0.102 0.808 0.201 0.203 0.302 0.303 0.607 0.607 0.808 0.875 0.84 2.703-0.635 3.636-0.707 0.817 0.09 1.189-0.655 1.467-1.264 0.461-0.842-0.766-1.673-0.86-2.424-0.279-0.078-0.649-0.295-0.859 0 0.155 0.376 1.022 1.752 0.96 2.172-0.113 0.305-0.371 1.009-0.757 0.96 0.102-0.353 0.254-0.755 0.254-1.161-0.185-0.432-0.997-1.682-1.062-2.123 0.162-0.427 0.992-0.18 1.312-0.607 0.355-0.556 0.455-1.11 0.558-1.817a0.224 0.224 0 0 1 0.152-0.154c0.492 0.318-0.009 1.839-0.304 2.174-0.028 0.524 1.002 0.173 1.212 0 0.39 0.081 1.182-0.309 1.364-0.051a2.726 2.726 0 0 0-0.504 1.011c-0.303 0.353-0.808 0.607-0.808 1.112 0.055 0.318 0.482-0.194 0.504 0.201-0.439 0.559-0.385 0.695-0.252 1.314 0.461 0.649 1.343 0.115 1.92-0.049 0.974-0.383 2.068 0.222 2.83-0.81 0.205 0.018 0.392 0.131 0.504 0.304 0.563 0.591 1.357 0.905 2.172 0.859 0.332-0.229-0.392-0.411-0.504-0.507-0.355-0.201-0.81-0.505-0.911-0.908-0.132-0.565-0.54-1.082-0.808-1.616 1.18 0.018 1.304 2.481 3.028 2.122 0.085-0.058 0.076-0.122 0.051-0.203l-0.457-0.1Zm-29.759 1.212c-0.598 0.245-0.281 0.985-0.654 1.364 0 0.049-0.102 0.152 0 0.203 0.251 0.049 0.453 0.152 0.757 0.201 0.134-0.452 0.265-0.955 0.352-1.364-0.102-0.152-0.252-0.353-0.455-0.404Zm30.555-0.688c-0.15 0.192-0.483 0.203-0.628 0.335a0.203 0.203 0 0 0-0.041 0.145 0.423 0.423 0 0 1-0.129 0.427c-0.154 0.166-0.441 0.24-0.7 0.222-1.295 0.014-1.927-0.619-2.456-0.923-0.723 0.468-1.173 0.653-2.119 0.507-0.556-0.044-1.052 0.236-1.592 0.374 0.766 0.656 3.869 1.489 2.726 0.924-1.891-1.071-0.521-0.358 1.138 0.034a12.183 12.183 0 0 0 2.868 0.353 14.191 14.191 0 0 0 4.282-2.257 0.603 0.603 0 0 1-0.208-0.037 0.339 0.339 0 0 1-0.168-0.143c-0.055-0.092-0.085-0.24 0.041-0.443 0.131-0.21 0.505-0.577 1.295-1.149a0.025 0.025 0 0 1 0.007-0.005c1.936-1.299 3.017-3.176 3.684-5.32a7.217 7.217 0 0 0-1.408-0.353c-0.715 1.775-0.888 3.028-2.573 4.032-1.955 1.279-0.73 0.951-0.711 0.942 0.152-0.062 0.296-0.139 0.433-0.233-0.757 1.216-2.071 1.992-3.64 2.342a0.363 0.363 0 0 1-0.101 0.226Zm-29.443 0.688c0.353-0.203 0.556-0.556 0.707-0.859-0.109-0.169-0.24-0.393-0.504-0.304-0.242 0.187-0.494 0.355-0.757 0.506-0.127 0.342 0.189 0.775 0.556 0.657h-0.002Zm15.259-1.112c0.201 0.252 0.201 0.605 0.455 0.808a1.089 1.089 0 0 0 0.857-0.252c0.152-0.101-0.049-0.252-0.1-0.404-0.152-0.203-0.049-0.607-0.404-0.607-0.383 0.09-0.803-0.021-1.163 0.101 0 0.154 0.303 0.154 0.355 0.354Zm9.042-0.607a2.989 2.989 0 0 1-0.705 0.101h-0.052c-0.298-0.275 0.325-0.826 0.657-0.808h0.152c0.185 0.078 0.138 0.565-0.052 0.707Zm13.812-5.609c-0.067 0.298-0.138 0.579-0.211 0.863a0.251 0.251 0 0 1 0.234 0.312c-0.429 1.652-1.424 2.772-2.528 3.991l0.005 0.009c0.176-0.124 0.365-0.224 0.553-0.324 0.288-0.155 0.575-0.311 0.779-0.62 1.115-1.697 1.539-2.673 1.821-3.732-0.194-0.187-0.411-0.353-0.653-0.499Zm-1.672-4.439l0.206 0.129c3.044 1.969 4.335 5.641 3.234 8.654l0.011-0.009c0.512-1.472 0.72-3.031 0.616-4.585-0.54-4.025-1.918-7.557-6.829-8.856 3.037 0.734 3.264 1.113 3.662 1.374-2.359-2.179-6.158-2.936-9.999-2.285 2.211-0.713 5.828-0.637 8.134 0.736l0.054 0.034c-5.484-3.363-12.067-1.897-16.116 1.965 0.757 0.146 1.422 0.646 2.041 1.124l0.193-0.104 0.224-0.113 0.231-0.109 0.476-0.21 0.496-0.194 0.521-0.186 0.54-0.169 0.502-0.139 0.57-0.14 0.528-0.113 0.482-0.088 0.3-0.047 0.3-0.045 0.243-0.031 0.304-0.034c3.008-0.321 6.244 0.079 8.658 1.669l0.023 0.014a7.843 7.843 0 0 1 2.678 2.973c-0.058 0.037-0.115 0.028-0.166-0.001l-0.067-0.051-0.191-0.203-0.035-0.027c-0.025-0.009-0.081-0.064-0.107-0.076l-0.369-0.333-0.438-0.328-0.469-0.286-0.078-0.043c-1.364-0.738-3.024-1.064-4.499-1.374l-0.09-0.018 0.732 0.258 0.81 0.238 0.872 0.252 0.527 0.175 0.427 0.166 0.283 0.125 0.252 0.127 0.15 0.081 0.173 0.103Zm-1.962 7.827c0.328-0.722 1.094-1.11 1.344-1.982-0.037 0.129 0.236 0.182 0.344 0.182 0.432-0.074 0.443-0.669 0.583-0.792-0.108 1.352-1.02 2.458-2.019 3.373a0.45 0.45 0 0 0-0.43-0.019c-0.042-0.254 0.505-0.607 0.178-0.762Zm-8.863-0.709c-0.056 0.099-0.143 0.356-0.252 0.354-0.109-0.002-0.157 0.016-0.152-0.1-0.009-0.341-0.064-0.757-0.355-0.96-0.66-1.027-0.826 0.259-1.06 0.1-0.141-0.286 0.081-0.609 0.203-0.859 0.056-0.067 0.078-0.146 0.151-0.201 0.108-0.623 0.676-0.268 0.809 0.1 0.348 0.432 0.757 0.919 0.707 1.416-0.051-0.051-0.051 0.049-0.051 0.15Zm-0.969-5.784c-0.383-0.494-0.78-1.027-1.205-1.417 2.13-0.76 5.57-0.953 7.271-1.018 0.402-0.012 0.621-0.039 0.711-0.066a0.318 0.318 0 0 0 0.154-0.091 0.252 0.252 0 0 0 0.065-0.203 0.265 0.265 0 0 0-0.116-0.194 1.011 1.011 0 0 0-0.318-0.104 14.327 14.327 0 0 0-1.863-0.187h-0.004c-1.159 0-2.486 0.118-3.747 0.338 0.45-0.152 0.909-0.275 1.374-0.368a0.251 0.251 0 0 0 0.201-0.258 0.252 0.252 0 0 0-0.225-0.236c-0.215-0.023-1.579 0.132-2.832 0.425-0.856 0.199-1.655 0.469-2.028 0.773a0.141 0.141 0 0 0-0.023 0.023c-0.125-0.106-0.252-0.21-0.375-0.311 2.728-1.44 7.114-2.239 10.863-1.38 2.079 0.475 3.963 1.464 5.246 3.15-1.532-1.173-3.682-1.59-5.53-1.98a0.251 0.251 0 0 0-0.145 0.476c1.345 0.535 2.763 0.693 4.023 1.408 2.774 1.592 4.201 4.593 3.813 7.339 0.028-1.754-0.792-2.775-2.053-3.42-3.866-1.623-7.522 0.545-10.587 0.985v-0.025l-0.005-0.009c-0.176-0.379 1.653-0.768 1.896-0.914 0.145-0.15 0.392-0.099 0.556-0.233 0.162-0.161 0.406-0.196 0.623-0.238 0.57-0.291 1.198-0.386 1.833-0.399 0.224 0.034 0.432-0.092 0.657-0.075a0.612 0.612 0 0 1 0.331-0.053c0.679-0.051 1.374-0.115 1.961-0.528 0.062-0.037 0.27-0.152 0.093-0.175-1.11-0.3-1.644 0.459-2.657-0.451 0.016-0.039-0.319-0.182-0.367-0.182-0.536 0.108-1.039 0.348-1.597 0.356-0.254 0.056-0.355-0.071-0.609-0.07-0.341 0.079-0.812 0.298-1.159 0.324-0.162-0.03-0.956 0.385-0.972 0.099a0.03 0.03 0 0 1-0.018 0c-0.085-0.321 4.979-2.213 2.896-0.938 0.115 0.099 0.789-0.185 1.424-0.233 0.713-0.152 1.66 0.372 1.972-0.327-0.012-0.115-0.286-0.081-0.353-0.033-0.136 0.074-0.282 0.025-0.425 0.056-0.238 0.028-1.165-0.139-1.374-0.125-0.168-0.143 0.932-0.113 1.028-0.129 0.362-0.055 0.798-0.136 1.16-0.203 0.161-0.019 0.323-0.023 0.483-0.01 0.328 0.078 1.207-0.042 0.27-0.27-0.247-0.048-1.025-0.072-1.15-0.034-0.191 0.025-1.016 0.27-1.456 0.168-0.397-0.12 1.235-0.187 1.041-0.297-2.026-0.256-4.335-0.192-8.335 1.765-0.127-0.157-0.265-0.323-0.417-0.501Zm-4.487 1.591c-0.051 0.051-0.102 0.051-0.203 0.051-0.136-0.512-0.184-1.045-0.455-1.466-0.141-0.139-0.325-0.319-0.203-0.556a0.243 0.243 0 0 1 0.305-0.051c0.462 0.346 0.54 0.828 0.556 1.415 0.101 0.101 0.049 0.404 0 0.607Zm16.281-2.925Zm-13.228-0.265l0.376-0.132 0.444-0.134 0.47-0.12 0.552-0.12 0.635-0.118 0.552-0.087 0.653-0.086 0.78-0.089 0.824-0.074 0.935-0.063 0.731-0.041 0.787-0.032 0.342-0.031 0.062-0.014 0.023-0.009 0.008-0.006v-0.001l0.006-0.004v-0.002l0.001-0.007c0-0.004-0.002-0.007-0.007-0.012l-0.007-0.005-0.01-0.006c-0.199-0.102-1.551-0.235-2.028-0.24-2.1 0-4.759 0.395-6.549 1.078l0.42 0.355Zm3.659-1.958l0.048 0.001a11.474 11.474 0 0 0-1.53 0.42l-0.875 0.298-0.798 0.293-0.601 0.233-0.503 0.207-0.369-0.307c0.766-0.626 3.472-1.055 4.395-1.133l0.233-0.012Zm6.257 0.331c0.141 0.104 0.64 0.406 1.433 0.41a0.252 0.252 0 0 0 0.231-0.152 0.252 0.252 0 0 0-0.05-0.272c-0.159-0.164-0.439-0.305-0.765-0.414-0.432-0.145-0.948-0.245-1.295-0.325a0.247 0.247 0 0 0-0.18 0.028 0.252 0.252 0 0 0-0.12 0.147 0.247 0.247 0 0 0 0.014 0.195c0.018 0.037 0.069 0.104 0.166 0.159 0.132 0.072 0.413 0.175 0.566 0.224Zm-0.506-0.49c-0.005-0.007-0.004-0.014 0.005-0.02 0.533 0.122 1.472 0.291 1.865 0.607l0.07 0.062a2.594 2.594 0 0 1-0.772-0.116l-0.175-0.062-0.162-0.074-0.115-0.065a0.381 0.381 0 0 1-0.088-0.064h0.001l-0.488-0.182-0.076-0.037a0.187 0.187 0 0 1-0.065-0.049Zm0.538 0.501l0.003 0.002a0.358 0.358 0 0 0-0.003-0.002Z"/></svg>