<svg fill="#EE0000" role="img" viewBox="0 0 32 24" xmlns="http://www.w3.org/2000/svg"><title>Red Hat</title><path d="M21.299 13.832c2.085 0 5.102-0.431 5.103-2.911a2.333 2.333 0 0 0-0.053-0.569l-1.243-5.394c-0.286-1.187-0.537-1.725-2.62-2.766-1.617-0.826-5.139-2.192-6.181-2.192-0.969 0-1.252 1.25-2.408 1.25-1.113 0-1.939-0.933-2.981-0.933-1.001 0-1.652 0.681-2.155 2.084 0 0-1.401 3.952-1.582 4.526a1.071 1.071 0 0 0-0.037 0.323c0 1.536 6.05 6.575 14.157 6.576m5.421-1.897c0.288 1.364 0.288 1.507 0.289 1.688 0 2.333-2.623 3.629-6.072 3.628-7.792 0.005-14.62-4.562-14.62-7.579a3.075 3.075 0 0 1 0.251-1.223C3.767 8.583 0.137 9.084 0.137 12.287c0 5.247 12.432 11.713 22.275 11.713 7.548 0 9.45-3.413 9.451-6.107 0-2.122-1.833-4.527-5.139-5.964"/></svg>