<svg fill="#EE0000" role="img" viewBox="0 0 27 24" xmlns="http://www.w3.org/2000/svg"><title>Red Hat Open Shift</title><path d="M24.017 11.795c-0.12-1.498-0.518-2.964-1.176-4.315L26.557 6.123c-0.292-0.605-0.637-1.188-1.026-1.736l-1.742 0.634c-3.845-5.386-11.329-6.635-16.716-2.791-3.421 2.442-5.313 6.498-4.986 10.689l1.745-0.635c0.055 0.669 0.166 1.332 0.332 1.982L0.443 15.628c0.368 1.457 1.003 2.833 1.872 4.06l1.972-0.717c3.837 5.386 11.314 6.644 16.701 2.807 1.692-1.205 3.042-2.829 3.916-4.713 0.873-1.866 1.245-3.928 1.079-5.982L24.017 11.795zM18.859 8.928c0.748 1.335 1.086 2.861 0.974 4.387l1.968-0.715c-0.069 0.931-0.307 1.843-0.703 2.689-1.817 3.9-6.45 5.591-10.352 3.778-0.851-0.397-1.622-0.947-2.276-1.621l-1.973 0.718c-1.065-1.099-1.785-2.486-2.071-3.99l3.728-1.352c-0.132-0.679-0.173-1.373-0.121-2.063H8.027l-1.746 0.634c0.32-4.278 4.048-7.487 8.327-7.167 0.944 0.071 1.867 0.313 2.724 0.716V4.936c0.847 0.396 1.614 0.943 2.266 1.613l1.74-0.633c0.002 0.002 0.004 0.003 0.006 0.005 0.48 0.494 0.892 1.05 1.228 1.652L18.859 8.928z"/></svg>