<svg fill="#B32024" role="img" viewBox="0 0 36 24" xmlns="http://www.w3.org/2000/svg"><title>Redmine</title><path d="M1.896 16.559c1.165 0.359 6.05 1.484 6.05 1.483 0.292 0.09 0.205 0.31 0.205 0.31-0.337 2.654-0.263 4.68-0.263 5.38 0 0.31-0.226 0.266-0.225 0.266h-7.131c-0.309 0-0.242-0.281-0.242-0.281 0.059-0.884 0.313-3.4 1.296-7.006 0 0 0.049-0.232 0.31-0.152z m32.208 0c-1.165 0.359-6.05 1.484-6.05 1.483-0.292 0.09-0.205 0.31-0.206 0.31 0.337 2.654 0.263 4.68 0.263 5.38 0 0.31 0.226 0.266 0.226 0.266h7.131c0.31 0 0.242-0.281 0.242-0.281-0.059-0.884-0.313-3.4-1.296-7.006 0 0-0.05-0.232-0.31-0.152z m-2.848-7.905l-5.091 2.461c-0.242 0.093-0.121 0.313-0.121 0.313 0.703 1.674 1.131 3.087 1.462 4.8 0.056 0.286 0.25 0.195 0.249 0.195l5.727-2.486s0.171-0.065 0.101-0.285c-0.254-0.784-1.55-3.911-2.07-4.933 0 0-0.092-0.155-0.257-0.065z m-26.512 0l5.09 2.461c0.242 0.093 0.121 0.313 0.121 0.313-0.703 1.674-1.131 3.087-1.463 4.8-0.055 0.286-0.25 0.195-0.249 0.195l-5.725-2.486s-0.171-0.065-0.101-0.285c0.254-0.784 1.55-3.911 2.07-4.933 0 0 0.092-0.155 0.257-0.065z m6.031-6.448l3.398 3.958c0.146 0.189-0.047 0.328-0.047 0.327-1.363 0.735-2.347 1.845-3.19 3.117-0.168 0.251-0.348 0.068-0.349 0.068l-4.306-3.224s-0.186-0.109-0.024-0.325c1.261-1.674 2.406-2.855 4.239-3.97 0 0 0.139-0.131 0.279 0.049z m14.45 0l-3.398 3.958c-0.146 0.189 0.047 0.328 0.047 0.327 1.363 0.735 2.347 1.845 3.19 3.117 0.168 0.251 0.348 0.068 0.349 0.068l4.306-3.224s0.186-0.109 0.024-0.325c-1.261-1.674-2.406-2.855-4.239-3.97 0 0-0.139-0.131-0.279 0.049z m-7.225 3.388c0.573 0 1.631 0.055 2.132 0.137 0.261 0.044 0.326-0.13 0.326-0.13l2.139-4.47s0.143-0.168-0.156-0.278c-1.597-0.585-2.446-0.853-4.441-0.853-1.971 0-2.843 0.269-4.441 0.853-0.3 0.109-0.156 0.278-0.156 0.278l2.139 4.47s0.065 0.174 0.326 0.13c0.5-0.083 1.559-0.137 2.132-0.137z"/></svg>