<svg fill="#000000" role="img" viewBox="0 0 49 24" xmlns="http://www.w3.org/2000/svg"><title>Redox</title><path d="M11.783 0.001a0.577 0.577 0 0 0-0.52 0.488C7.438 0.674 4.1 2.727 2.142 5.755H2.138a0.572 0.572 0 0 0-0.78 0.532c0 0.179 0.085 0.339 0.217 0.444A11.472 11.472 0 0 0 0.303 12c0 1.898 0.458 3.69 1.272 5.27a0.57 0.57 0 0 0 0.567 0.977c1.957 3.028 5.296 5.081 9.121 5.266v0.004a0.572 0.572 0 0 0 1.131-0.005c3.824-0.185 7.16-2.239 9.117-5.265h0.004a0.575 0.575 0 0 0 0.783-0.532 0.576 0.576 0 0 0-0.062-0.255l-0.029-0.06-0.058 0.032a4.735 4.735 0 0 1-0.926 0.373l-0.063 0.02 0.02 0.063a0.617 0.617 0 0 0 0.044 0.1 11.126 11.126 0 0 1-8.913 5.139v-0.004a0.57 0.57 0 0 0-0.969 0.007 11.135 11.135 0 0 1-8.913-5.14l0.004-0.003a0.572 0.572 0 0 0-0.488-0.843A11.091 11.091 0 0 1 0.687 12c0-1.856 0.454-3.605 1.257-5.143a0.572 0.572 0 0 0 0.485-0.846 11.135 11.135 0 0 1 8.912-5.14 0.57 0.57 0 0 0 0.973 0 11.135 11.135 0 0 1 8.909 5.143 0.568 0.568 0 0 0-0.071 0.272 0.575 0.575 0 0 0 0.559 0.571 11.066 11.066 0 0 1 0.937 2.485 4.777 4.777 0 0 1 0.48 0.382 11.432 11.432 0 0 0-1.047-2.993 0.57 0.57 0 0 0 0.216-0.445 0.575 0.575 0 0 0-0.783-0.532A11.516 11.516 0 0 0 12.393 0.492a0.575 0.575 0 0 0-0.567-0.491c-0.015 0-0.029-0.001-0.044 0z m-0.012 2.858a0.581 0.581 0 0 0-0.5 0.445c-4.527 0.3-8.113 4.07-8.113 8.673 0 4.598 3.579 8.367 8.102 8.672a0.572 0.572 0 0 0 0.567 0.492 0.579 0.579 0 0 0 0.567-0.487 8.679 8.679 0 0 0 5.938-2.887 4.777 4.777 0 0 1-0.378-0.154 8.284 8.284 0 0 1-5.64 2.658 0.575 0.575 0 0 0-0.487-0.271 0.581 0.581 0 0 0-0.485 0.267c-4.352-0.263-7.798-3.872-7.798-8.29 0-4.41 3.433-8.015 7.774-8.29v0.005a0.571 0.571 0 0 0 1.021-0.005c3.151 0.183 5.828 2.116 7.072 4.845a4.777 4.777 0 0 1 0.41-0.032 8.696 8.696 0 0 0-7.436-5.195v-0.004a0.575 0.575 0 0 0-0.558-0.441c-0.02 0-0.037-0.002-0.056 0zM8.286 6.971v10.052h0.999V7.881h1.418c1.028 0 1.799 0.122 2.312 0.366a1.715 1.715 0 0 1 0.785 0.741c0.186 0.332 0.279 0.729 0.279 1.188 0 1.108-0.487 1.808-1.458 2.096-0.46 0.128-1.231 0.193-2.311 0.193l3.391 4.558h1.248L12.129 13.269c0.965-0.101 1.705-0.415 2.21-0.938 0.509-0.527 0.764-1.239 0.764-2.138 0-0.611-0.126-1.146-0.373-1.607a2.756 2.756 0 0 0-1.073-1.103c-0.615-0.341-1.575-0.512-2.886-0.512Zm23.449 0v3.793c-0.758-0.908-1.731-1.363-2.922-1.362-0.745 0-1.418 0.171-2.025 0.511a3.747 3.747 0 0 0-1.422 1.41c-0.341 0.598-0.512 1.262-0.512 1.997 0 0.727 0.178 1.388 0.532 1.981a3.759 3.759 0 0 0 1.453 1.395c0.62 0.335 1.31 0.503 2.068 0.503 0.62 0 1.149-0.119 1.587-0.358 0.443-0.239 0.855-0.629 1.241-1.169v1.35h1.012V6.971ZM19.856 9.402a3.812 3.812 0 0 0-1.945 0.511 3.749 3.749 0 0 0-1.394 1.402 3.853 3.853 0 0 0-0.513 1.954c0 0.541 0.104 1.053 0.308 1.539a3.853 3.853 0 0 0 0.827 1.258 3.883 3.883 0 0 0 1.256 0.831 3.965 3.965 0 0 0 1.544 0.303 3.664 3.664 0 0 0 2.21-0.721 3.928 3.928 0 0 0 1.41-1.91h-1.052a2.656 2.656 0 0 1-1.028 1.236 2.824 2.824 0 0 1-1.567 0.465 2.871 2.871 0 0 1-1.993-0.764c-0.563-0.515-0.866-1.136-0.906-1.871h6.731c0-0.496-0.032-0.909-0.099-1.237a3.63 3.63 0 0 0-0.346-0.968 3.62 3.62 0 0 0-1.414-1.485 3.921 3.921 0 0 0-2.029-0.543Zm18.165 0c-1.095 0.023-2.001 0.394-2.722 1.11-0.745 0.736-1.119 1.667-1.119 2.796 0 0.735 0.171 1.399 0.513 1.993a3.696 3.696 0 0 0 1.429 1.395c0.607 0.335 1.283 0.503 2.032 0.503 1.094 0 2-0.367 2.718-1.102 0.717-0.735 1.075-1.661 1.074-2.777 0-0.739-0.164-1.406-0.495-2.005a3.567 3.567 0 0 0-1.371-1.402c-0.58-0.341-1.231-0.511-1.953-0.511h-0.107z m4.359 0.18l2.591 3.648-2.591 3.792h1.142l2.02-2.985 1.997 2.985H48.697l-2.603-3.792L48.697 9.582h-1.158l-1.997 2.867-2.019-2.867z m-22.653 0.745c0.043-0.002 0.086 0 0.129 0 0.722 0 1.341 0.213 1.855 0.642 0.518 0.43 0.86 1.014 1.029 1.752H17.04c0.137-0.717 0.466-1.294 0.985-1.733a2.711 2.711 0 0 1 1.702-0.661z m8.873 0c0.049-0.002 0.095 0 0.145 0 0.851 0 1.57 0.287 2.154 0.863 0.585 0.572 0.879 1.268 0.879 2.091 0 0.823-0.284 1.53-0.85 2.115-0.567 0.585-1.251 0.874-2.049 0.874-0.846 0-1.558-0.284-2.139-0.854-0.575-0.576-0.862-1.282-0.862-2.119 0-0.824 0.277-1.524 0.835-2.1 0.523-0.544 1.153-0.836 1.887-0.87z m9.298 0c0.05-0.002 0.099 0 0.15 0 0.841 0 1.531 0.28 2.071 0.847 0.54 0.562 0.811 1.285 0.811 2.162 0 0.855-0.265 1.558-0.791 2.111-0.523 0.549-1.194 0.823-2.012 0.823-0.841 0-1.538-0.277-2.092-0.835-0.553-0.559-0.831-1.265-0.83-2.115 0-0.859 0.271-1.571 0.811-2.139 0.507-0.535 1.135-0.821 1.882-0.853z"/></svg>