<svg fill="#764ABC" role="img" viewBox="0 0 26 24" xmlns="http://www.w3.org/2000/svg"><title>Redux</title><path d="M17.886 16.749c0.917-0.079 1.627-0.886 1.582-1.849-0.05-0.964-0.839-1.738-1.802-1.738h-0.064a1.803 1.803 0 0 0-1.738 1.865c0.032 0.505 0.238 0.916 0.521 1.216-1.105 2.149-2.764 3.729-5.278 5.056-1.69 0.884-3.476 1.217-5.213 0.981-1.453-0.206-2.59-0.854-3.286-1.897-1.042-1.581-1.137-3.286-0.269-4.992 0.633-1.234 1.581-2.133 2.213-2.576a10.503 10.503 0 0 1-0.443-1.627C-0.569 14.539-0.093 19.12 1.329 21.285c1.059 1.58 3.224 2.59 5.593 2.59 0.633 0 1.297-0.046 1.943-0.205 4.109-0.79 7.221-3.254 9.006-6.888z m5.64-3.95c-2.446-2.877-6.051-4.456-10.159-4.456h-0.538c-0.267-0.584-0.883-0.948-1.58-0.948h-0.047c-0.994 0-1.769 0.854-1.737 1.849 0.032 0.947 0.837 1.738 1.801 1.737h0.078a1.782 1.782 0 0 0 1.581-1.106h0.585c2.435 0 4.74 0.711 6.842 2.101 1.61 1.06 2.765 2.45 3.413 4.109 0.567 1.358 0.537 2.686-0.047 3.793-0.902 1.737-2.419 2.654-4.425 2.654-1.264 0-2.496-0.395-3.129-0.679-0.38 0.314-1.012 0.836-1.47 1.153 1.39 0.631 2.796 0.994 4.155 0.994 3.081 0 5.372-1.737 6.241-3.412 0.947-1.896 0.869-5.087-1.55-7.82zM7.19 17.317c0.032 0.948 0.836 1.738 1.801 1.737h0.063a1.78 1.78 0 0 0 1.738-1.864c0-0.949-0.821-1.737-1.786-1.737h-0.063c-0.063 0-0.158 0-0.238 0.031-1.311-2.212-1.864-4.584-1.658-7.141 0.127-1.928 0.759-3.603 1.895-4.993 0.949-1.185 2.734-1.772 3.951-1.801 3.412-0.064 4.835 4.187 4.945 5.878l1.579 0.474C19.054 2.717 15.832 0 12.751 0 9.857 0 7.19 2.102 6.114 5.183 4.645 9.29 5.609 13.241 7.411 16.401c-0.158 0.206-0.253 0.568-0.221 0.916z"/></svg>