<svg fill="#999999" role="img" viewBox="0 0 40 24" xmlns="http://www.w3.org/2000/svg"><title>Redux-Saga</title><path d="M13.233 0a5.433 5.433 0 0 0-3.201 1.034C7.634 2.74 6.436 5.83 6.125 8.734c-0.334 3.176 0.377 6.828 2.291 9.24-0.318 0.934 0.316 1.97 1.299 2.078a1.598 1.598 0 0 0 1.738-1.168c0.323-1.082-0.697-2.199-1.852-1.949-1.609-2.165-2.114-4.979-1.944-7.626 0.205-2.583 1.119-5.335 3.253-6.957 1.328-0.987 2.996-1.019 4.343-0.123 1.814 1.216 2.889 3.494 3.229 5.622l0.836 0.326 0.903 0.472c-0.325-3.094-1.798-6.336-4.222-7.825a5.161 5.161 0 0 0-2.766-0.824z m15.594 6.467a14.344 14.344 0 0 0-5.008 0.862 1.586 1.586 0 0 0-2.043 0.443c-0.646 0.828-0.266 2.126 0.779 2.45 1.008 0.346 2.114-0.465 2.073-1.504a12.748 12.748 0 0 1 4.653-0.661c2.581 0.115 6.007 1.072 7.582 3.52 0.125 0.195 0.27 0.662 0.854 0.656a0.793 0.793 0 0 0 0.691-1.147c-0.862-1.623-2.494-2.827-4.32-3.596-1.613-0.675-3.434-1.016-5.261-1.023z m-18.127 1.175c-0.746-0.005-1.524 0.485-1.604 1.53 0.02 2.021 2.716 2.18 3.134 0.393 3.093-0.444 6.382 0.957 8.686 2.814 1.595 1.262 3.035 3.266 3.396 5.053 0.266 0.116 1 0.434 1.642 0.501-0.239-2.685-1.991-5.082-4.019-6.764-2.57-2.18-6.757-3.815-10.19-3.119a1.495 1.495 0 0 0-1.043-0.408z m-5.601 3.049c-1.419 0.998-2.704 2.229-3.581 3.74C0.346 16.373-0.179 18.949 0.988 21.013c1.082 1.996 3.412 2.917 5.589 2.97a11.904 11.904 0 0 0 3.712-0.487c3.448-0.967 7.167-3.642 8.644-7.149a1.58 1.58 0 0 0 1.295-1.156c0.328-1.18-0.759-2.249-1.916-1.952-1.124 0.287-1.583 1.659-0.856 2.524-0.995 2.276-2.95 4.014-5.1 5.181-2.447 1.318-5.418 1.947-7.798 1.08-1.524-0.498-2.691-1.852-2.652-3.63 0-2.126 1.514-4.387 3.379-5.856-0.193-0.882-0.175-1.213-0.186-1.849z m32.947 2.507a1.537 1.537 0 0 0-1.101 0.479c-0.564 0.536-0.597 1.478-0.151 2.045-0.895 1.349-2.472 2.268-4.024 2.796-3.04 1.005-6.738 0.824-9.502-0.622a7.342 7.342 0 0 1-1.623-1.105c-0.231-0.21-0.3-0.257-0.485-0.308-0.819-0.172-1.283 0.797-0.749 1.324 2.08 1.949 4.977 2.796 7.775 2.912 1.088 0.039 2.18-0.033 3.25-0.229 2.658-0.495 5.438-1.814 6.831-4.132 1.047-0.118 1.701-1.27 1.261-2.202a1.57 1.57 0 0 0-1.482-0.958z m-14.334 7.399c-1.36 1.836-4.337 2.376-7.785 1.185-0.311 0.213-0.495 0.351-0.71 0.491-0.213 0.143-0.475 0.279-0.994 0.6 4.192 1.691 8.922 1.763 11.044-1.773a5.556 5.556 0 0 1-1.555-0.503z"/></svg>