<svg fill="#E41D1B" role="img" viewBox="0 0 86 24" xmlns="http://www.w3.org/2000/svg"><title>Reebok</title><path d="M53.682 10.143C63.514 6.214 69.636 3.957 85.857 0c-8.811 0.582-28.293 1.918-41.721 4.539l9.546 5.607m-30.571 13.04h12.857c2.546-3.857 5.079-5.736 8.028-7.825a254.936 254.936 0 0 0-6.757-2.504c-8.204 3.621-12.768 8.482-14.118 10.329m2.533-14.029c-11.464 4.096-17.836 8.546-22.14 14.029h14.197c1.382-1.925 6.65-7.475 16.546-11.336a203.9 203.9 0 0 0-8.607-2.693M31.536 0.529H0.143c31.65 5.714 46.904 13.071 71.428 23.471-2.096-1.568-35.896-21.475-40.032-23.471"/></svg>