<svg fill="#F26B00" role="img" viewBox="0 0 41 24" xmlns="http://www.w3.org/2000/svg"><title>Relay</title><path d="M3.96 0C1.835 0 0.113 1.722 0.113 3.847c0 2.125 1.722 3.847 3.847 3.847 1.79 0 3.295-1.223 3.724-2.879h17.564c1.678 0 3.043 1.365 3.044 3.043 0 1.678-1.365 3.044-3.044 3.044h-9.736c-2.841 0-5.153 2.312-5.153 5.153 0 2.841 2.312 5.153 5.153 5.153h17.829c0.458 1.612 1.94 2.792 3.699 2.792 2.125 0 3.847-1.722 3.847-3.847 0-2.125-1.722-3.847-3.847-3.847-1.759 0-3.241 1.18-3.699 2.792H15.512c-1.678 0-3.044-1.365-3.044-3.043 0-1.678 1.365-3.044 3.044-3.044h9.736c2.841 0 5.153-2.312 5.153-5.153 0-2.841-2.311-5.153-5.153-5.153H7.634c-0.486-1.567-1.948-2.705-3.674-2.705Z"/></svg>