<svg fill="#D1AB66" role="img" viewBox="0 0 25 24" xmlns="http://www.w3.org/2000/svg"><title>Reliance Industries Limited</title><path d="M8.114 18.493c0.723-1.518 1.367-3.071 1.675-4.826 0.12 1.833 1.21 3.463 1.734 5.219 0.201 0.849 0.216 1.728-0.108 2.606-0.352 0.956-0.919 1.773-1.595 2.508C7.991 22.018 7.429 20.177 8.114 18.493z m11.642 3.796c-0.832 0.628-1.918 0.722-2.766 0.314 0 0-0.231-0.094-0.443-0.343-1.613-1.883-3.241-3.756-4.868-5.629 1.443 0.266 3.025-0.442 3.837-1.726 0.817-1.222 0.783-2.966 0.016-4.188-0.924-1.335-2.717-1.772-4.225-1.568-2.609 0.376-4.484 2.744-5.067 5.224-0.6 2.822-0.167 5.485 0.767 7.998a6.927 6.927 0 0 0 0.863 1.55c-2.749-1.225-5.179-3.478-6.455-6.51-1.412-3.259-1.383-7.384 0.297-10.693C3.031 4.161 5.365 1.793 8.254 0.792c1.167-0.494 2.49-0.752 3.842-0.792h0.722c1.926 0.057 3.87 0.555 5.479 1.478 3.577 1.822 6.283 6.352 6.296 10.399 0.124 4.187-1.688 7.98-4.837 10.412z"/></svg>