<svg fill="#000000" role="img" viewBox="0 0 46 24" xmlns="http://www.w3.org/2000/svg"><title>remark</title><path d="M8.132 23.613V13.259q0-4.724 2.204-7.528 2.205-2.804 5.928-2.803 0.942 0 1.964 0.175 1.03 0.168 1.818 0.467V0.511q-0.532-0.233-1.438-0.372-0.912-0.139-1.921-0.139-3.357 0-5.534 1.678-2.182 1.68-2.781 4.763h-0.3V0.576H0.114v2.262h5.22V23.615Zm-7.551 0H15.448v-2.264H0.581ZM36.541 2.672q3.059 0 4.781 2.088 1.724 2.081 1.724 5.76H29.866q0-3.7 1.774-5.773 1.774-2.075 4.899-2.075z m9.242 15.254h-2.78q-0.534 1.686-2.161 2.628-1.629 0.942-3.981 0.942-3.204 0-5.103-2.125-1.89-2.132-1.89-5.746v-0.79H45.886v-1.817q0-3.446-1.102-5.863-1.095-2.416-3.185-3.686-2.086-1.278-5.058-1.278-2.847 0-4.987 1.255-2.132 1.249-3.315 3.505-1.177 2.256-1.177 5.292v3.359q0 4.921 2.579 7.659 2.577 2.739 7.22 2.739 2.329 0 4.206-0.751 1.869-0.744 3.103-2.117 1.226-1.367 1.613-3.206z"/></svg>