<svg fill="#217DC6" role="img" viewBox="0 0 43 24" xmlns="http://www.w3.org/2000/svg"><title>Renren</title><path d="M10.223 7.647V0A12.085 12.085 0 0 0 3.011 19.72c4.232-2.049 7.19-6.68 7.212-12.073z m2.013 7.32c-0.752 3.117-3.001 5.781-5.802 7.551a12.025 12.025 0 0 0 5.799 1.482 12.046 12.046 0 0 0 5.806-1.482c-2.802-1.772-5.052-4.436-5.803-7.551z m9.222-10.856a12.078 12.078 0 0 0-7.208-4.109V7.588c0 5.417 2.965 10.074 7.206 12.129a12.037 12.037 0 0 1-2.858-7.804 12.016 12.016 0 0 1 2.86-7.802zc1.784 2.104 2.944 4.828 2.944 7.804 0 2.978-1.156 5.698-2.944 7.805 4.234-2.046 7.272-6.68 7.293-12.073V0a12.276 12.274 90 0 0-7.293 4.109zM32.778 7.588c0 5.418 2.965 10.074 7.21 12.132A12.084 12.084 0 0 0 32.778 0.002z m-2.013 7.379c-0.752 3.117-3.001 5.781-5.805 7.551a12.025 12.025 0 0 0 5.803 1.482 12.046 12.046 0 0 0 5.804-1.482c-2.802-1.772-5.05-4.436-5.802-7.551z"/></svg>