<svg fill="#FF0029" role="img" viewBox="0 0 45 24" xmlns="http://www.w3.org/2000/svg"><title>Republic of Gamers</title><path d="M40.06 0.001c-2.518 0.022-6.421 0.365-11.103 1.826-2.996 0.932-7.323 5.127-15.379 12.918-1.065 0.599-4.993-1.666-7.257-2.732 0 0 3.727 5.928 5.058 7.659 1.998 2.73 5.661 4.328 5.661 4.328-0.333-0.333-2.861-2.997-3.594-4.529-0.466-0.732 0.064-1.8 3.66-4.463C20.368 12.611 31.956 2.825 43.143 0.162c0 0-1.124-0.177-3.083-0.161V0.001ZM44.939 4.092c-3.862 0.4-7.592 1.531-11.121 3.195C26.76 10.617 14.841 19.139 14.841 19.139c0.533 0.333 1.067 0.665 1.6 0.931 5.726 2.53 14.183 4.061 15.781 3.528 4.461-1.465 9.454-10.851 10.986-15.179 0 0-4.662 1.864-9.39 4.062-3.929 1.865-8.254 3.996-8.254 3.995l10.986-3.33s-2.931 6.926-6.793 7.724c-3.862 0.799-10.654-1.932-10.654-1.932 0.533-0.466 7.723-5.727 24.503-12.586 0.732-0.533 1.2-1.395 1.333-2.26V4.092ZM0.061 10.68c0.666 1.798 1.532 3.464 2.531 5.062 1.199 1.531 6.124 2.796 6.789 2.929C6.318 16.541 0.061 10.68 0.061 10.68Z"/></svg>