<svg fill="#E6484F" role="img" viewBox="0 0 25 24" xmlns="http://www.w3.org/2000/svg"><title>ReScript</title><path d="M23.79 1.8c-0.3-0.4-0.6-0.7-0.9-0.9-1.3-0.9-2.899-0.9-6.098-0.9H8.196C4.998 0 3.4 0 2.3 0.8c-0.4 0.3-0.7 0.6-1 1C0.5 2.9 0.5 4.5 0.5 7.7v8.6c0 3.2 0 4.8 0.8 5.9 0.3 0.4 0.6 0.7 0.9 0.9 1.199 0.9 2.798 0.9 5.996 0.9h8.596c3.199 0 4.798 0 5.898-0.8 0.4-0.3 0.7-0.6 0.9-0.9 0.799-1.1 0.799-2.7 0.799-5.9V7.7c0.2-3.2 0.2-4.8-0.6-5.9ZM11.694 16.5c0 0.2 0 0.5-0.1 0.8 0 0.2-0.1 0.3-0.1 0.5-0.1 0.1-0.2 0.3-0.4 0.5s-0.4 0.3-0.6 0.4c-0.3 0.1-0.7 0.1-1.399 0.1-0.8 0-1.1 0-1.4-0.1-0.4-0.2-0.699-0.5-0.899-0.9-0.1-0.3-0.1-0.7-0.1-1.4v-8c0-0.9 0-1.4 0.2-1.7 0.2-0.3 0.4-0.5 0.8-0.7 0.3-0.2 0.8-0.2 1.699-0.2h2.299z m5.097-4.9c-1.599 0-2.798-1.3-2.798-2.8 0-1.6 1.3-2.8 2.798-2.8 1.5 0 2.8 1.3 2.8 2.8 0 1.5-1.3 2.8-2.8 2.8z"/></svg>