<svg fill="#000000" role="img" viewBox="0 0 20 24" xmlns="http://www.w3.org/2000/svg"><title>Resend</title><path d="M0.024 0v24h5.553v-8.434h2.998L13.327 24h6.65l-5.372-9.258a7.652 7.652 0 0 0 3.316-3.016c0.709-1.21 1.062-2.57 1.062-4.08 0-1.462-0.353-2.767-1.062-3.91-0.709-1.165-1.692-2.079-2.95-2.742C13.738 0.331 12.356 0 10.824 0Zm5.553 4.87h4.219c0.731 0 1.349 0.125 1.851 0.376 0.526 0.252 0.925 0.618 1.2 1.098 0.274 0.457 0.412 0.994 0.412 1.611S13.133 9.12 12.881 9.6c-0.229 0.48-0.572 0.856-1.03 1.13-0.434 0.252-0.948 0.38-1.542 0.38H5.576Z"/></svg>