<svg fill="#000000" role="img" viewBox="0 0 34 24" xmlns="http://www.w3.org/2000/svg"><title>Resurrection Remix OS</title><path d="M33.999 0.001l-14.098 0.111C12.951 0.167 9.908 6.709 0.001 18.155c2.223 1.067 4.707 1.757 6.145 0.169 2.413-2.667 6.056-7.763 10.134-11.823 2.54-2.527 8.514-1.225 14.096-1.743 1.914-0.177 3.414-3.513 3.623-4.758z m-0.208 8.608l-10.378 0.062c-6.219 0-7.621 3.53-16.872 14.506 1.691 0.798 4.647 1.19 5.331 0.364 2.522-3.057 3.55-4.972 7.593-9.012 2.347-2.349 6.219-0.973 11.135-1.431 1.795-0.17 3.02-3.469 3.191-4.489z"/></svg>