<svg fill="#F2E142" role="img" viewBox="0 0 28 24" xmlns="http://www.w3.org/2000/svg"><title>reveal.js</title><path d="M5.301 0.016a0.871 0.871 0 0 0-0.886 0.872v22.241c0 0.551 0.506 0.965 1.047 0.853l7.514-1.556-3.118-0.691-4.136 0.858V1.428l3.49 0.772 3.126-0.646-6.862-1.519a0.871 0.871 0 0 0-0.175-0.019z m17.237 0.002L6.285 3.383v16.986l16.24 3.596a0.871 0.871 0 0 0 1.058-0.853V0.87a0.87 0.87 0 0 0-1.046-0.852zM3.853 3.885l-2.664 0.552A0.871 0.871 0 0 0 0.494 5.292v13.1a0.871 0.871 0 0 0 0.683 0.848l2.676 0.591V3.886z m20.297 0.284V5.506l2.05 0.456v12.392l-2.05 0.425v1.334l2.661-0.551A0.871 0.871 0 0 0 27.506 18.708V5.61a0.871 0.871 0 0 0-0.683-0.849l-2.673-0.591z"/></svg>