<svg fill="#CC071E" role="img" viewBox="0 0 90 24" xmlns="http://www.w3.org/2000/svg"><title>REWE</title><path d="M62.212 13.685h0.093l2.168-11.854c0.247-1.348 0.801-1.827 2.359-1.827h2.172c1.149 0 1.801 0.442 1.801 1.479 0 0.24-0.034 0.505-0.098 0.808l-4.785 19.788c-0.292 1.337-0.73 1.917-2.377 1.917h-2.606c-1.483 0-1.91-0.517-2.239-1.853l-2.992-12.914h-0.056l-3.021 12.936c-0.303 1.359-0.73 1.835-2.202 1.835h-2.61c-1.681 0-2.097-0.543-2.403-1.861l-4.752-19.844c-0.06-0.307-0.135-0.573-0.135-0.809 0-1.041 0.674-1.483 1.835-1.482h2.584c1.561 0 2.134 0.472 2.377 1.827l2.153 11.858h0.056l2.763-11.858c0.318-1.355 0.872-1.827 2.359-1.827h2.445c1.464 0 2.033 0.472 2.359 1.827l2.752 11.858zM1.935 24c-1.307 0-1.865-0.539-1.865-1.857V1.891c0-1.329 0.562-1.883 1.865-1.884h6.87c7.428 0 10.244 2.797 10.244 7.564 0 2.905-1.573 5.335-5.054 6.552l5.492 7.582c0.333 0.464 0.468 0.824 0.468 1.146 0 0.768-0.899 1.149-1.902 1.149H13.998c-1.198 0-1.662-0.472-2.504-1.835l-4.516-7.23h-0.071v7.212c0 1.322-0.562 1.853-1.909 1.853H1.935z m72.932 0c-1.31 0-1.816-0.476-1.816-1.79V1.835c0-1.355 0.509-1.835 1.816-1.835h12.172c1.333 0 1.82 0.476 1.82 1.831v1.73c0 1.299-0.487 1.79-1.82 1.789h-6.99v3.973h5.927c1.34 0 1.812 0.487 1.812 1.835v1.595c0 1.303-0.472 1.786-1.816 1.786H80.045v4.099h8.024c1.359 0 1.861 0.498 1.861 1.835v1.734c0 1.314-0.502 1.79-1.861 1.789h-13.202z m-50.213 0c-1.314 0-1.865-0.539-1.864-1.857V1.891c0-1.329 0.55-1.883 1.864-1.884h12.023c1.325 0 1.887 0.558 1.887 1.884v1.606c0 1.299-0.562 1.857-1.887 1.857H29.754v3.969H35.602c1.348 0 1.913 0.547 1.913 1.898v1.453c0 1.31-0.562 1.868-1.909 1.868H29.75v4.096h7.979c1.333 0 1.91 0.547 1.909 1.917v1.584c0 1.318-0.577 1.853-1.909 1.854H24.654zM8.873 10.802c2.085 0 2.969-0.876 2.969-2.782s-0.884-2.789-2.969-2.789h-1.97v5.571h1.97Z"/></svg>