<svg fill="#801010" role="img" viewBox="0 0 33 24" xmlns="http://www.w3.org/2000/svg"><title>Rhinoceros</title><path d="M9.517 0c-0.135 0-0.287 0.008-0.458 0.023-0.689 0.059-1.686 0.243-2.431 0.444a8.456 8.456 0 0 0-1.551 0.566c-0.312 0.151-0.445 0.24-0.478 0.368-0.031 0.127 0.038 0.293 0.216 0.589s0.467 0.719 0.722 1.296c0.256 0.577 0.48 1.308 0.487 2.227 0.008 0.917-0.201 2.023-0.331 2.646-0.129 0.623-0.179 0.766-0.306 0.834-0.127 0.067-0.33 0.059-0.708-0.029-0.379-0.088-0.931-0.252-1.484-0.349-0.553-0.097-1.105-0.125-1.513-0.051-0.41 0.076-0.68 0.255-0.87 0.497-0.189 0.243-0.302 0.548-0.38 1.012A9.384 9.384 0 0 0 0.314 11.578c0.007 0.428 0.063 0.661 0.184 0.788 0.119 0.127 0.301 0.147 0.663 0.073s0.906-0.243 1.651-0.29a8.5 8.5 0 0 1 2.617 0.272c0.924 0.245 1.825 0.661 2.63 1.255 0.807 0.591 1.52 1.358 2.112 2.148 0.591 0.79 1.062 1.604 1.355 2.079 0.293 0.476 0.41 0.614 0.501 0.566 0.092-0.047 0.158-0.279 0.196-0.562a4.237 4.237 0 0 0-0.027-1.144 10.072 10.072 0 0 0-0.432-1.841 7.576 7.576 0 0 0-0.667-1.373c-0.197-0.333-0.325-0.55-0.331-0.688-0.005-0.139 0.115-0.2 0.688-0.425 0.572-0.225 1.598-0.616 2.641-1.09 1.041-0.473 2.099-1.031 2.754-1.491 0.656-0.46 0.909-0.823 0.977-1.264 0.067-0.44-0.053-0.958-0.216-1.452a9.347 9.347 0 0 0-0.713-1.609A18.474 18.474 0 0 0 15.529 3.368a12.392 12.392 0 0 0-1.484-1.667c-0.38-0.344-0.568-0.418-0.688-0.391-0.121 0.027-0.177 0.155-0.226 0.634-0.05 0.48-0.094 1.312-0.195 2.102a10.073 10.073 0 0 1-0.582 2.392 16.918 16.918 0 0 1-1.336 2.673c-0.523 0.863-1.083 1.635-1.421 1.972-0.337 0.337-0.453 0.243-0.644 0.087l-0.655-0.54c-0.202-0.169-0.341-0.287-0.368-0.395-0.027-0.108 0.061-0.202 0.364-0.604 0.306-0.403 0.83-1.113 1.295-1.994a10.453 10.453 0 0 0 1.073-3.078 13.623 13.623 0 0 0 0.128-3.154c-0.059-0.761-0.167-1.039-0.412-1.208-0.185-0.128-0.448-0.197-0.861-0.197z m8.741 9.488h-0.017c-0.113 0.013-0.259 0.151-0.559 0.396a9.253 9.253 0 0 1-1.372 0.944c-0.618 0.347-1.4 0.684-2.037 0.99-0.634 0.305-1.121 0.579-1.354 0.961-0.232 0.382-0.209 0.874 0.054 1.146 0.262 0.275 0.763 0.332 1.191 0.35 0.429 0.018 0.782-0.003 1.114 0.117 0.332 0.121 0.641 0.384 1.031 0.696 0.388 0.31 0.859 0.672 1.247 0.757 0.39 0.085 0.699-0.107 1.033-0.273 0.336-0.167 0.696-0.31 1.198-0.303 0.5 0.007 1.142 0.162 1.778 0.499 0.634 0.335 1.265 0.85 1.597 1.168 0.333 0.318 0.367 0.441 0.33 0.488-0.038 0.049-0.146 0.024-0.41-0.189-0.264-0.212-0.685-0.612-1.237-0.928-0.553-0.316-1.236-0.545-1.888-0.527-0.65 0.018-1.268 0.283-1.659 0.742-0.391 0.459-0.556 1.109-0.736 1.57-0.179 0.46-0.378 0.732-0.634 0.832-0.256 0.1-0.572 0.027-0.949-0.134-0.378-0.162-0.815-0.414-1.178-0.596-0.363-0.183-0.653-0.297-0.837-0.476-0.183-0.178-0.263-0.418-0.274-0.77-0.013-0.351 0.043-0.809 0.068-1.151 0.027-0.337 0.024-0.557-0.051-0.755a1.455 1.455 0 0 0-0.313-0.472c-0.094-0.094-0.134-0.101-0.153-0.078-0.019 0.023-0.016 0.078 0.014 0.213 0.031 0.135 0.09 0.351 0.067 0.784-0.026 0.433-0.132 1.083-0.216 1.578-0.084 0.494-0.144 0.834-0.027 1.09 0.117 0.258 0.413 0.434 0.954 0.728 0.54 0.297 1.325 0.711 2.048 1.153 0.724 0.441 1.385 0.908 2.106 1.469 0.72 0.56 1.5 1.214 2.024 1.67 0.526 0.457 0.793 0.718 1.001 0.796 0.208 0.08 0.356-0.024 0.414-0.186 0.059-0.162 0.031-0.384-0.019-0.579a1.584 1.584 0 0 0-0.324-0.621 6.636 6.636 0 0 0-0.917-0.949c-0.387-0.328-0.828-0.625-1.083-0.828-0.256-0.204-0.326-0.314-0.286-0.35 0.04-0.035 0.189 0.005 0.407 0.146 0.219 0.139 0.506 0.378 0.826 0.619 0.32 0.24 0.673 0.48 0.988 0.788 0.317 0.308 0.598 0.683 0.787 0.952 0.189 0.271 0.289 0.437 0.396 0.502 0.108 0.066 0.223 0.03 0.374-0.068a4.087 4.087 0 0 0 0.574-0.478c0.24-0.228 0.537-0.53 0.744-0.854 0.208-0.324 0.326-0.669 0.403-1.042 0.076-0.372 0.108-0.772 0.333-1.162 0.225-0.391 0.642-0.774 1.341-1.383 0.699-0.608 1.678-1.443 2.55-2.244 0.874-0.803 1.64-1.571 2.288-2.431 0.646-0.861 1.173-1.81 1.439-2.351 0.268-0.54 0.277-0.672 0.189-0.709-0.085-0.036-0.267 0.02-0.823 0.422-0.558 0.401-1.492 1.145-2.544 1.929-1.053 0.782-2.226 1.605-3.15 2.116-0.925 0.51-1.605 0.707-2.091 0.758-0.487 0.05-0.782-0.046-0.977-0.148-0.193-0.104-0.283-0.213-0.302-0.325-0.018-0.113 0.04-0.229 0.182-0.371 0.143-0.143 0.374-0.313 0.603-0.529 0.229-0.216 0.456-0.477 0.631-0.75 0.175-0.272 0.297-0.554 0.352-0.798 0.057-0.244 0.046-0.449-0.053-0.508-0.1-0.058-0.29 0.031-0.508 0.149-0.219 0.116-0.463 0.259-0.799 0.404a3.619 3.619 0 0 1-1.241 0.317 2.193 2.193 0 0 1-1.468-0.422c-0.463-0.351-0.857-0.958-1.168-1.547-0.31-0.591-0.537-1.167-0.691-1.511-0.146-0.326-0.227-0.445-0.331-0.445z m-2.988 5.496a0.569 0.569 0 0 0-0.397 0.155c-0.127 0.116-0.196 0.27-0.045 0.456 0.151 0.185 0.519 0.401 0.857 0.633 0.34 0.232 0.649 0.482 0.899 0.566 0.248 0.086 0.436 0.008 0.542-0.129 0.108-0.138 0.135-0.333-0.004-0.545-0.139-0.212-0.441-0.438-0.761-0.649-0.321-0.212-0.658-0.407-0.918-0.467a0.774 0.774 0 0 0-0.173-0.02z m0.34 0.281c0.034 0 0.071 0.004 0.112 0.013 0.159 0.035 0.367 0.155 0.564 0.285 0.196 0.129 0.382 0.27 0.449 0.39 0.067 0.12 0.019 0.22-0.065 0.291a0.344 0.344 0 0 1-0.333 0.071c-0.135-0.042-0.291-0.17-0.486-0.295-0.196-0.125-0.43-0.248-0.522-0.361-0.092-0.113-0.042-0.219 0.039-0.295a0.351 0.351 0 0 1 0.243-0.099z m6.445 5.028c0.285-0.011 0.567 0.081 0.812 0.324 0.247 0.24 0.459 0.63 0.516 0.987 0.057 0.357-0.04 0.681-0.168 0.934a2.131 2.131 0 0 1-0.39 0.535c-0.1 0.1-0.147 0.128-0.189 0.128h-0.004c-0.045-0.001-0.084-0.031-0.281-0.231a9.968 9.968 0 0 1-0.773-0.865c-0.223-0.297-0.313-0.517-0.354-0.767-0.043-0.25-0.036-0.526 0.11-0.723 0.147-0.197 0.436-0.31 0.721-0.322z m0.125 1.499a0.348 0.348 0 0 0-0.206 0.062c-0.078 0.055-0.142 0.152-0.126 0.249 0.016 0.098 0.115 0.197 0.235 0.344 0.12 0.148 0.263 0.344 0.356 0.452 0.092 0.108 0.135 0.125 0.171 0.123 0.039-0.003 0.073-0.024 0.116-0.065a0.471 0.471 0 0 0 0.127-0.212 0.699 0.699 0 0 0 0.003-0.426 0.901 0.901 0 0 0-0.294-0.38 0.642 0.642 0 0 0-0.382-0.147z"/></svg>