<svg fill="#0A222E" role="img" viewBox="0 0 20 24" xmlns="http://www.w3.org/2000/svg"><title>Rimac Automobili</title><path d="M19.422 1.317C16.428 0.488 13.194-0.017 10.007 0 6.819-0.017 3.586 0.487 0.594 1.317a0.488 0.488 0 0 0-0.342 0.455c0 7.95 2.976 17.802 9.479 22.142a0.464 0.464 0 0 0 0.537 0c6.503-4.34 9.495-14.175 9.479-22.142 0.016-0.21-0.13-0.39-0.326-0.455zM13.91 17.055c-1.025 1.723-2.244 3.267-3.691 4.454a0.32 0.319 0 0 1-0.407 0C5.845 18.241 3.537 12.47 2.658 6.893L1.65 6.356h7.479c2.407 0 2.715 0.78 2.715 1.35 0 0.57-0.308 1.35-2.714 1.35H6.934a0.128 0.128 0 0 0-0.13 0.13c0 0.032 0.016 0.065 0.05 0.097l7.332 7.332 0.78 0.78z m1.333-2.65l-4.374-4.374c-0.065-0.065-0.016-0.162 0.065-0.18l0.862-0.096c1.805-0.195 2.845-1.106 2.845-2.244 0-1.317-1.398-2.049-3.723-2.049H2.446A24.735 24.733 0 0 1 2.268 3.3a0.462 0.462 0 0 1 0.374-0.487 32.298 32.296 0 0 1 7.3-0.862h0.13c2.39 0 4.878 0.293 7.301 0.862 0.227 0.049 0.39 0.26 0.373 0.487-0.179 3.625-0.99 7.593-2.503 11.104z"/></svg>