<svg fill="#1C9AD6" role="img" viewBox="0 0 39 24" xmlns="http://www.w3.org/2000/svg"><title>Ring</title><path d="M38.665 18.988a4.871 4.871 0 0 1-0.392 1.966 4.973 4.973 0 0 1-2.671 2.651 4.9 4.9 0 0 1-1.956 0.395 5.901 5.901 0 0 1-1.134-0.117 6.468 6.468 0 0 1-1.181-0.348 5.085 5.085 0 0 1-1.079-0.591 3.226 3.226 0 0 1-0.81-0.822 0.735 0.735 0 0 1-0.128-0.44 0.706 0.706 0 0 1 0.243-0.552 0.805 0.805 0 0 1 0.553-0.221 0.883 0.883 0 0 1 0.321 0.064 0.626 0.626 0 0 1 0.297 0.272 0.073 0.073 0 0 0 0.025 0.051l0.102 0.104a2.884 2.884 0 0 0 1.275 0.81 4.874 4.874 0 0 0 1.506 0.245 3.386 3.386 0 0 0 1.351-0.271 3.496 3.496 0 0 0 1.853-1.853 3.378 3.378 0 0 0 0.281-1.343v-1.771a5.002 5.002 0 0 1-1.573 1.017 4.934 4.934 0 0 1-1.906 0.374 4.865 4.865 0 0 1-1.966-0.393 5.01 5.01 0 0 1-2.651-2.651 4.855 4.855 0 0 1-0.394-1.968v-4.063a4.884 4.884 0 0 1 0.394-1.956 5.037 5.037 0 0 1 1.067-1.597 5.114 5.114 0 0 1 1.575-1.069 5.031 5.031 0 0 1 3.934 0 4.935 4.935 0 0 1 2.664 2.664 4.897 4.897 0 0 1 0.392 1.957v9.455z m-1.544-9.455a3.383 3.383 0 0 0-0.272-1.351 3.496 3.496 0 0 0-1.852-1.853 3.515 3.515 0 0 0-2.702 0 3.499 3.499 0 0 0-1.863 1.853 3.408 3.408 0 0 0-0.268 1.35v4.042a3.407 3.407 0 0 0 0.268 1.362 3.504 3.504 0 0 0 0.748 1.107 3.467 3.467 0 0 0 1.108 0.746 3.515 3.515 0 0 0 2.702 0 3.496 3.496 0 0 0 1.853-1.853 3.381 3.381 0 0 0 0.278-1.362z m-11.582 8.554a0.695 0.695 0 0 1-0.246 0.58 0.816 0.816 0 0 1-1.054 0 0.693 0.693 0 0 1-0.245-0.58v-8.554a3.383 3.383 0 0 0-0.271-1.351 3.496 3.496 0 0 0-1.853-1.853 3.515 3.515 0 0 0-2.702 0 3.498 3.498 0 0 0-1.853 1.853 3.397 3.397 0 0 0-0.271 1.351v8.554a0.693 0.693 0 0 1-0.243 0.58 0.816 0.816 0 0 1-1.056 0 0.693 0.693 0 0 1-0.244-0.58v-8.554a4.884 4.884 0 0 1 0.393-1.956 5.052 5.052 0 0 1 1.07-1.597 5.114 5.114 0 0 1 1.571-1.069 5.031 5.031 0 0 1 3.936 0 4.937 4.937 0 0 1 2.662 2.664 4.897 4.897 0 0 1 0.395 1.957z m-13.389 0a0.695 0.695 0 0 1-0.243 0.58 0.816 0.816 0 0 1-1.057 0 0.693 0.693 0 0 1-0.243-0.58V5.542a0.695 0.695 0 0 1 0.243-0.58 0.818 0.818 0 0 1 1.057 0 0.696 0.696 0 0 1 0.243 0.58zM8.291 6.315a0.739 0.739 0 0 1-0.231 0.54 0.771 0.771 0 0 1-0.567 0.227 0.803 0.803 0 0 1-0.542-0.232l-0.025-0.027a0.238 0.238 0 0 0-0.051-0.038 0.196 0.196 0 0 1-0.053-0.04 3.035 3.035 0 0 0-1.98-0.687q-1.391 0-2.177 0.95-0.784 0.952-0.786 2.704v8.374a0.695 0.695 0 0 1-0.244 0.58 0.838 0.838 0 0 1-0.527 0.196 0.838 0.838 0 0 1-0.527-0.196 0.693 0.693 0 0 1-0.245-0.58v-8.374A6.967 6.967 0 0 1 0.622 7.693a4.846 4.846 0 0 1 0.847-1.646 4.066 4.066 0 0 1 1.402-1.128 4.413 4.413 0 0 1 1.966-0.41 4.919 4.919 0 0 1 1.701 0.333 4.109 4.109 0 0 1 1.491 0.927 0.767 0.767 0 0 1 0.261 0.548z m4.408-4.996a1.319 1.319 0 0 1-1.319 1.321 1.319 1.319 0 0 1-1.321-1.321 1.319 1.319 0 0 1 1.321-1.319 1.319 1.319 0 0 1 1.319 1.319Z"/></svg>