<svg fill="#0085C0" role="img" viewBox="0 0 23 24" xmlns="http://www.w3.org/2000/svg"><title>Ripple</title><path d="M20.05 14.65c-0.846-0.486-1.805-0.632-2.752-0.666-0.79-0.023-1.974-0.541-1.974-1.985 0-1.072 0.868-1.94 1.985-1.985 0.947-0.034 1.906-0.18 2.752-0.666A5.018 5.018 0 0 0 21.9 2.502 5.04 5.04 0 0 0 15.03 0.674a4.993 4.993 0 0 0-2.504 4.343c0 0.97 0.35 1.861 0.79 2.696 0.372 0.699 0.553 1.996-0.71 2.73-0.948 0.54-2.132 0.202-2.719-0.745-0.496-0.801-1.094-1.545-1.94-2.03C5.545 6.28 2.477 7.104 1.1 9.495A5.018 5.018 0 0 0 2.94 16.34a5.025 5.025 0 0 0 5.008 0c0.846-0.485 1.444-1.23 1.94-2.03 0.406-0.654 1.433-1.489 2.718-0.744 0.948 0.541 1.241 1.737 0.711 2.73-0.44 0.823-0.79 1.725-0.79 2.695A5.011 5.011 0 0 0 17.534 24a5.011 5.011 0 0 0 5.008-5.008 4.982 4.982 0 0 0-2.492-4.343z"/></svg>