<svg fill="#1D1D1D" role="img" viewBox="0 0 23 24" xmlns="http://www.w3.org/2000/svg"><title>Rive</title><path d="M0.143 1.475c0 0.814 0.668 1.475 1.49 1.475H13.99c1.408 0 2.568 0.43 3.48 1.29 0.91 0.861 1.366 1.967 1.366 3.32 0 1.25-0.456 2.274-1.367 3.072-0.911 0.78-2.07 1.168-3.479 1.168H8.62c-0.824 0-1.491 0.66-1.491 1.475 0 0.815 0.667 1.475 1.491 1.475h5.93l5.342 8.482c0.332 0.512 0.797 0.768 1.398 0.768 0.663 0 1.129-0.256 1.398-0.768 0.269-0.533 0.217-1.096-0.155-1.69l-4.753-7.56c1.284-0.574 2.299-1.414 3.044-2.52 0.746-1.127 1.119-2.427 1.119-3.902 0-1.496-0.342-2.807-1.026-3.934-0.662-1.127-1.594-2.008-2.795-2.643C16.92 0.327 15.544 0 13.99 0H1.634C0.811 0 0.143 0.66 0.143 1.475Z"/></svg>