<svg fill="#000000" role="img" viewBox="0 0 25 24" xmlns="http://www.w3.org/2000/svg"><title>Robot Framework</title><path d="M5.456 10.225c0-1.877 1.526-3.402 3.4-3.403 1.877 0 3.402 1.526 3.403 3.403 0 0.684-0.553 1.236-1.234 1.236-0.682 0-1.234-0.553-1.235-1.236 0-0.513-0.419-0.93-0.933-0.93-0.513 0-0.932 0.417-0.932 0.93 0 0.684-0.552 1.236-1.234 1.236-0.682 0-1.234-0.553-1.235-1.236m14.087 5.717c0 0.684-0.552 1.236-1.234 1.236H6.857c-0.682 0-1.234-0.552-1.234-1.236 0-0.684 0.553-1.236 1.234-1.237h11.452c0.682 0 1.234 0.553 1.234 1.237m-5.351-5.025c-0.381-0.566-0.232-1.333 0.334-1.714l2.862-1.933c0.561-0.39 1.333-0.232 1.715 0.328 0.382 0.565 0.232 1.333-0.334 1.715l-2.862 1.933c-0.544 0.383-1.335 0.238-1.715-0.329z m7.84 7.602a0.882 0.882 0 0 1-0.258 0.623l-2.128 2.127a0.882 0.882 0 0 1-0.623 0.258H5.977a0.882 0.882 0 0 1-0.623-0.258l-2.128-2.127a0.882 0.882 0 0 1-0.258-0.623V5.482a0.88 0.88 0 0 1 0.258-0.623l2.128-2.128a0.882 0.882 0 0 1 0.623-0.258h13.046a0.882 0.882 0 0 1 0.623 0.258l2.128 2.128a0.88 0.88 0 0 1 0.258 0.623V18.519z m1.811-15.083L21.064 0.658A2.245 2.245 0 0 0 19.478 0H5.521A2.245 2.245 0 0 0 3.933 0.658L1.157 3.436A2.245 2.245 0 0 0 0.5 5.023v13.955c0 0.595 0.237 1.167 0.657 1.587l2.778 2.778c0.421 0.421 0.992 0.657 1.588 0.657h13.954a2.245 2.245 0 0 0 1.588-0.657l2.778-2.778A2.244 2.244 0 0 0 24.5 18.978V5.023a2.245 2.245 0 0 0-0.657-1.587z"/></svg>