<svg fill="#F5455C" role="img" viewBox="0 0 27 24" xmlns="http://www.w3.org/2000/svg"><title>Rocket.Chat</title><path d="M25.726 7.944c-0.73-1.133-1.753-2.136-3.036-2.982-2.483-1.632-5.746-2.531-9.188-2.531-1.15 0-2.283 0.1-3.383 0.298a11.184 11.184 0 0 0-2.325-1.715C4.658-0.549 1.895 0.034 0.5 0.535a0.671 0.671 0 0 0-0.261 1.096c0.984 1.016 2.613 3.023 2.212 4.85C0.895 8.069 0.051 9.986 0.051 11.98c0 2.033 0.843 3.949 2.4 5.539 0.4 1.826-1.229 3.835-2.213 4.85a0.669 0.669 0 0 0 0.26 1.095c1.396 0.502 4.159 1.085 7.295-0.479a11.243 11.243 0 0 0 2.325-1.715c1.1 0.198 2.232 0.298 3.383 0.298 3.443 0 6.706-0.898 9.187-2.53 1.285-0.846 2.308-1.848 3.037-2.982 0.813-1.262 1.224-2.621 1.224-4.037 0.001-1.454-0.41-2.811-1.223-4.075z m-12.366 11.27c-1.488 0-2.907-0.192-4.201-0.538l-0.946 0.909A8.648 8.648 0 0 1 6.47 20.877a6.857 6.857 0 0 1-2.466 0.697c0.047-0.083 0.089-0.167 0.133-0.251 0.947-1.74 1.204-3.304 0.766-4.692-1.549-1.217-2.479-2.775-2.479-4.472 0-3.895 4.896-7.053 10.934-7.054 6.038 0 10.936 3.158 10.936 7.054 0.001 3.897-4.895 7.056-10.934 7.055zM9.741 12.137c0 0.883-0.722 1.599-1.612 1.599-0.89 0-1.612-0.716-1.611-1.599s0.722-1.599 1.611-1.599c0.89 0 1.612 0.716 1.612 1.599z m5.186 0c0 0.883-0.722 1.599-1.612 1.599-0.89 0-1.612-0.716-1.611-1.599s0.722-1.599 1.611-1.599c0.89 0 1.612 0.716 1.612 1.599z m5.188 0c0 0.883-0.722 1.599-1.611 1.599-0.89 0-1.612-0.716-1.612-1.599s0.722-1.599 1.612-1.599c0.89 0 1.612 0.716 1.611 1.599z"/></svg>