<svg fill="#2A2A2A" role="img" viewBox="0 0 31 24" xmlns="http://www.w3.org/2000/svg"><title>RocksDB</title><path d="M24.678 0.078l-2.643 1.239c0.008 0.006 0.008 0.018 0.007 0.025a1.018 1.018 0 0 0 0.381 0.424c-3.215 1.66-4.581 3.903-4.581 3.903L5.554 12.286a1.487 1.487 0 0 1-2.009-0.606 1.487 1.487 0 0 1 0.607-2.007l3.484-1.876A2.799 2.799 0 0 0 9.102 5.512l-2.092 1.124-3.484 1.878a2.804 2.804 0 0 0 2.652 4.938l1.572-0.848c-0.113 0.62-0.063 1.281 0.183 1.907 0.083 0.214 0.138 0.348 0.138 0.348 0.557 1.207-0.176 2.154-1.135 2.154h-0.304l-1.106 4.813a1.169 1.169 0 0 0-0.554-0.321l-0.551 2.266a1.161 1.161 0 0 0 1.334-0.655l2.505-4.499c3.171-0.309 4.841-2.457 4.765-5.482 3.283 0.201 7.661-1.861 9.607-4.685 1.477 1.876 4.269 1.609 5.513 1.134l0.239-0.08a1.169 1.169 0 0 0-0.138 0.553l2.335-0.025a1.173 1.173 0 0 0-1.182-1.148h-0.013l-4.013-0.346-0.918-2.407v-2.552a1.235 1.235 0 0 0 0.607 0.158c0.663 0 1.207-0.51 1.27-1.154l0.961-0.639-0.044-1.295a0.239 0.239 0 0 0-0.241-0.235l-1.201-0.018a0.918 0.918 0 0 0-1.129-0.316z m0.314 0.639c0.209 0 0.381 0.17 0.381 0.377a0.384 0.384 0 0 1-0.381 0.383 0.378 0.378 0 0 1-0.371-0.381c0-0.209 0.163-0.377 0.371-0.378zM7.302 2.653a0.664 0.664 0 0 0-0.292 0.863l0.16 0.277 1.162-0.623-0.151-0.278a0.664 0.664 0 0 0-0.879-0.239z m15.701 0.296c0.196 0 0.353 0.181 0.353 0.181s-0.057 0.07-0.144 0.121c0.138 0.057 0.233 0.145 0.232 0.144s-0.094 0.091-0.232 0.147a0.591 0.591 0 0 1 0.144 0.119s-0.157 0.185-0.353 0.184c-0.196 0-0.353-0.185-0.354-0.184s0.055-0.067 0.145-0.119a0.702 0.702 0 0 1-0.234-0.147s0.094-0.088 0.234-0.144c-0.088-0.05-0.145-0.121-0.145-0.121s0.157-0.181 0.353-0.181z m-1.837 0.871c0.196 0 0.353 0.182 0.353 0.183s-0.057 0.063-0.145 0.119c0.138 0.058 0.233 0.146 0.233 0.146s-0.094 0.088-0.233 0.145c0.088 0.05 0.145 0.119 0.145 0.119s-0.157 0.185-0.353 0.185c-0.196 0-0.353-0.185-0.354-0.185s0.057-0.069 0.145-0.119a0.847 0.847 0 0 1-0.234-0.145s0.094-0.088 0.234-0.146c-0.088-0.05-0.145-0.119-0.145-0.119s0.157-0.182 0.352-0.183z m-12.448 0.063l-1.162 0.625 0.06 0.121c0.113 0.214 0.172 0.443 0.178 0.67l1.232-0.666a2.672 2.672 0 0 0-0.248-0.63z m14.128 1.192c0.196 0 0.353 0.185 0.353 0.185s-0.057 0.069-0.145 0.119c0.138 0.058 0.233 0.146 0.233 0.146s-0.094 0.088-0.233 0.145c0.088 0.05 0.145 0.119 0.145 0.119s-0.163 0.185-0.353 0.185c-0.196 0-0.353-0.185-0.354-0.185s0.055-0.069 0.145-0.119a0.847 0.847 0 0 1-0.234-0.145s0.094-0.088 0.234-0.146c-0.088-0.05-0.145-0.119-0.145-0.119s0.157-0.185 0.352-0.185z m-3.576 0.502c0.196 0 0.353 0.181 0.353 0.181s-0.057 0.07-0.145 0.121c0.138 0.057 0.234 0.145 0.234 0.144s-0.094 0.088-0.234 0.145c0.088 0.05 0.145 0.121 0.145 0.121s-0.157 0.184-0.353 0.183c-0.196 0-0.353-0.184-0.354-0.183s0.057-0.07 0.145-0.121c-0.138-0.057-0.234-0.145-0.234-0.145s0.096-0.088 0.234-0.144c-0.088-0.05-0.145-0.121-0.145-0.121s0.157-0.181 0.354-0.181z m9.816 0.226c-0.019 0.005-0.038 0.019-0.057 0.032l0.005-0.005-3.408 1.222 0.41 1.089c0.639-0.163 1.617-0.868 2.306-1.41a1.182 1.182 0 0 0 0.056 0.57L30.589 6.488a1.172 1.172 0 0 0-1.503-0.687z m-8.01 0.321c0.196 0 0.355 0.185 0.355 0.185s-0.057 0.069-0.145 0.119a0.739 0.739 0 0 1 0.233 0.146s-0.094 0.088-0.233 0.145c0.088 0.05 0.145 0.119 0.145 0.119s-0.158 0.185-0.353 0.185c-0.196 0-0.355-0.185-0.355-0.185s0.057-0.069 0.146-0.119c-0.14-0.057-0.234-0.145-0.234-0.145s0.094-0.088 0.234-0.146c-0.088-0.05-0.146-0.119-0.146-0.119s0.158-0.185 0.355-0.185z m2.236 0.703c0.196 0 0.353 0.181 0.353 0.181s-0.057 0.07-0.144 0.12a0.704 0.704 0 0 1 0.232 0.145s-0.094 0.091-0.232 0.147a0.591 0.591 0 0 1 0.144 0.118s-0.157 0.185-0.353 0.185c-0.196 0-0.353-0.185-0.353-0.185s0.057-0.067 0.144-0.118c-0.138-0.057-0.234-0.147-0.234-0.147s0.094-0.088 0.234-0.145c-0.088-0.05-0.145-0.121-0.144-0.12s0.157-0.181 0.352-0.181z m-4.887 0.485c0.196 0 0.353 0.182 0.353 0.182s-0.055 0.069-0.145 0.121c0.138 0.057 0.234 0.145 0.234 0.145s-0.094 0.091-0.234 0.147a0.591 0.591 0 0 1 0.145 0.118s-0.157 0.184-0.352 0.184c-0.197 0-0.355-0.184-0.355-0.184s0.057-0.068 0.145-0.118c-0.138-0.057-0.233-0.147-0.233-0.147s0.094-0.088 0.233-0.145c-0.088-0.05-0.145-0.121-0.145-0.121s0.157-0.182 0.354-0.182z m-2.394 0.314c0.196 0 0.353 0.185 0.353 0.185s-0.057 0.069-0.145 0.121c0.138 0.057 0.233 0.145 0.233 0.145s-0.094 0.088-0.233 0.144c0.088 0.05 0.145 0.121 0.145 0.121s-0.157 0.184-0.353 0.183c-0.196 0-0.353-0.184-0.354-0.183s0.057-0.063 0.145-0.121a0.847 0.847 0 0 1-0.234-0.144s0.094-0.088 0.234-0.145c-0.088-0.05-0.145-0.121-0.145-0.121s0.157-0.185 0.352-0.185z m4.54 0.43c0.196 0 0.353 0.185 0.353 0.185s-0.055 0.069-0.144 0.12c0.138 0.05 0.234 0.146 0.234 0.146s-0.094 0.088-0.234 0.144c0.088 0.05 0.145 0.121 0.144 0.121s-0.157 0.184-0.352 0.183c-0.197 0-0.355-0.184-0.354-0.183s0.057-0.07 0.144-0.121c-0.138-0.057-0.233-0.145-0.232-0.144s0.094-0.088 0.232-0.146c-0.088-0.05-0.145-0.119-0.144-0.12s0.157-0.185 0.353-0.185z m-3.399 1.069c0.196 0 0.353 0.184 0.354 0.184s-0.057 0.068-0.145 0.118c0.138 0.05 0.234 0.147 0.234 0.147s-0.094 0.088-0.234 0.146c0.088 0.05 0.145 0.119 0.145 0.119s-0.157 0.182-0.352 0.183c-0.197 0-0.355-0.182-0.355-0.183s0.059-0.069 0.147-0.119c-0.138-0.058-0.235-0.146-0.235-0.146s0.097-0.091 0.235-0.147a0.636 0.636 0 0 1-0.147-0.118s0.157-0.184 0.353-0.184z m-2.854 0.025c0.196 0 0.355 0.184 0.355 0.184s-0.057 0.069-0.145 0.121c0.138 0.057 0.233 0.145 0.233 0.144s-0.094 0.088-0.233 0.145c0.088 0.05 0.145 0.121 0.145 0.121s-0.158 0.181-0.354 0.181c-0.196 0-0.355-0.181-0.354-0.181s0.057-0.07 0.146-0.121c-0.14-0.057-0.234-0.145-0.234-0.145s0.094-0.088 0.234-0.144c-0.088-0.05-0.146-0.121-0.146-0.121s0.158-0.185 0.354-0.185z m4.725 0.385c0.196 0 0.355 0.184 0.355 0.184s-0.057 0.07-0.146 0.12c0.138 0.057 0.234 0.145 0.234 0.145s-0.094 0.088-0.234 0.146c0.088 0.05 0.146 0.119 0.146 0.119s-0.158 0.182-0.355 0.183c-0.195 0-0.352-0.182-0.352-0.183s0.055-0.069 0.144-0.119a0.865 0.865 0 0 1-0.233-0.146s0.094-0.088 0.233-0.145c-0.088-0.05-0.145-0.121-0.145-0.12s0.158-0.184 0.353-0.184z m-7.119 0.405c0.196 0 0.353 0.182 0.353 0.182s-0.055 0.069-0.144 0.121c0.138 0.05 0.234 0.145 0.234 0.145s-0.094 0.088-0.234 0.144c0.088 0.05 0.146 0.121 0.146 0.121s-0.158 0.184-0.355 0.184c-0.195 0-0.353-0.184-0.353-0.184s0.057-0.07 0.144-0.121c-0.138-0.057-0.233-0.145-0.232-0.144s0.094-0.088 0.232-0.145c-0.088-0.05-0.145-0.121-0.144-0.121s0.158-0.182 0.353-0.182z m4.22 1.01c0.195 0 0.353 0.185 0.353 0.185s-0.057 0.069-0.144 0.119a0.704 0.704 0 0 1 0.232 0.145s-0.094 0.088-0.232 0.145c0.088 0.05 0.145 0.119 0.144 0.12s-0.158 0.182-0.353 0.182c-0.196 0-0.355-0.182-0.355-0.182s0.057-0.069 0.146-0.12c-0.138-0.058-0.234-0.146-0.234-0.145s0.094-0.088 0.234-0.145c-0.088-0.05-0.146-0.119-0.146-0.119s0.158-0.185 0.355-0.185z m-2.324 0.329c0.196 0 0.353 0.184 0.353 0.184s-0.057 0.068-0.144 0.118a0.616 0.616 0 0 1 0.234 0.147s-0.094 0.088-0.234 0.145c0.088 0.05 0.145 0.121 0.144 0.12s-0.157 0.182-0.352 0.183c-0.197 0-0.355-0.182-0.354-0.183s0.057-0.069 0.144-0.12c-0.138-0.057-0.233-0.145-0.232-0.145s0.094-0.091 0.232-0.147c-0.088-0.05-0.145-0.118-0.144-0.118s0.157-0.184 0.353-0.184z m-4.169 0.101c0.195 0 0.352 0.184 0.352 0.183s-0.055 0.07-0.144 0.121c0.138 0.057 0.233 0.145 0.233 0.145s-0.094 0.088-0.233 0.144c0.088 0.05 0.145 0.121 0.145 0.121s-0.158 0.182-0.353 0.182c-0.196 0-0.355-0.182-0.355-0.182s0.059-0.069 0.148-0.121a0.905 0.905 0 0 1-0.236-0.144s0.097-0.088 0.236-0.145c-0.088-0.05-0.148-0.121-0.148-0.121s0.158-0.184 0.355-0.183z m20.93 0.662l-7.173 1.796-2.804 3.181-4.087 0.101-1.543 3.538-4.014 1.049-2.515 2.293h20.235c1.049 0 1.901-0.855 1.901-1.904z m-18.927 0.273c0.196 0 0.355 0.181 0.354 0.181s-0.057 0.07-0.146 0.121c0.138 0.05 0.234 0.145 0.234 0.145s-0.094 0.088-0.234 0.145c0.088 0.05 0.146 0.119 0.146 0.12s-0.158 0.185-0.354 0.185c-0.195 0-0.352-0.185-0.352-0.185s0.055-0.069 0.143-0.12a0.865 0.865 0 0 1-0.233-0.145s0.094-0.088 0.233-0.145c-0.088-0.05-0.145-0.121-0.145-0.121s0.158-0.181 0.354-0.181z m-2.387 1.275c0.196 0 0.353 0.184 0.353 0.184s-0.059 0.07-0.147 0.12a0.905 0.905 0 0 1 0.237 0.145s-0.097 0.088-0.237 0.145c0.088 0.05 0.147 0.121 0.147 0.12s-0.163 0.189-0.353 0.183c-0.196 0-0.353-0.182-0.353-0.183s0.057-0.07 0.144-0.12c-0.138-0.057-0.234-0.145-0.233-0.145s0.094-0.088 0.233-0.145c-0.088-0.05-0.145-0.121-0.144-0.12s0.157-0.184 0.353-0.184z m1.989 0.694c0.196 0 0.353 0.185 0.354 0.185s-0.057 0.069-0.145 0.121c0.138 0.057 0.234 0.145 0.234 0.144s-0.094 0.088-0.234 0.145c0.088 0.05 0.145 0.121 0.145 0.121s-0.157 0.181-0.354 0.181c-0.196 0-0.353-0.181-0.353-0.181s0.057-0.07 0.145-0.121c-0.138-0.057-0.234-0.145-0.234-0.145s0.094-0.088 0.234-0.144c-0.088-0.05-0.145-0.121-0.145-0.121s0.157-0.185 0.353-0.185z m-1.365 1.58c0.196 0 0.353 0.185 0.353 0.184s-0.057 0.069-0.144 0.12c0.138 0.05 0.234 0.146 0.233 0.146s-0.094 0.088-0.233 0.144c0.088 0.05 0.145 0.121 0.144 0.121s-0.157 0.181-0.352 0.181c-0.197 0-0.355-0.181-0.354-0.181s0.057-0.07 0.144-0.121c-0.138-0.057-0.234-0.145-0.234-0.144s0.096-0.088 0.234-0.146c-0.088-0.05-0.145-0.119-0.144-0.12s0.157-0.185 0.353-0.184z m-4.028 1.452l-3.406 2.923a1.218 1.218 0 0 0-0.258-0.595L0.411 21.15a1.167 1.167 0 0 0 1.503 0.241l3.331-1.51z"/></svg>