<svg fill="#CD163F" role="img" viewBox="0 0 25 24" xmlns="http://www.w3.org/2000/svg"><title>Rockwell Automation</title><path d="M23.627 6.156l-4.668-4.669a0.767 0.767 0 0 0-0.981-0.087l-8.984 6.051c1.701 0.107 2.732 0.796 2.731 2.368 0 1.372-0.74 2.226-1.991 2.375v0.024c0.581 0.107 0.968 0.376 1.254 0.74 0.1 0.126 0.169 0.275 0.208 0.434l0.709 2.15 3.054-7.649a0.708 0.708 0 0 1 0.657-0.445h2.682l3.568 8.934h-2.208c-0.448 0-0.867-0.284-1.056-0.708-0.113-0.326-0.229-0.653-0.344-0.979h-3.24l-0.63 1.687H9.547c-0.258 0-0.479-0.191-0.524-0.452l-0.805-2.342c-0.112-0.4-0.51-0.463-0.901-0.463h-0.784v3.257H3.777v-5.416l-1.648 1.11a0.557 0.557 0 0 0-0.239 0.456v3.448c0 0.222 0.132 0.421 0.334 0.51l15.543 6.506a0.768 0.768 0 0 0 0.847-0.16l5.009-4.988A2.984 2.984 0 0 0 24.502 15.733v-7.466a2.996 2.996 0 0 0-0.875-2.111ZM8.874 10.279c0-0.806-0.55-0.923-1.135-0.922H6.571v1.9h1.126c0.596 0 1.177-0.077 1.177-0.978z m6.87 2.423h1.814l-0.889-2.524ZM7.329 7.434L16.932 0.32c0.138-0.103 0.066-0.32-0.106-0.32H8.954a3.441 3.441 0 0 0-2.434 1.008L1.506 6.021A3.441 3.441 0 0 0 0.498 8.455v7.09c0 0.913 0.362 1.788 1.008 2.434l5.014 5.012A3.441 3.441 0 0 0 8.954 24h6.819c0.19 0 0.247-0.257 0.076-0.338l-13.552-6.39a1.615 1.615 0 0 1-0.927-1.46v-3.4c0-0.355 0.169-0.69 0.454-0.901l1.952-1.446V7.434Z"/></svg>