<svg fill="#662D91" role="img" viewBox="0 0 78 24" xmlns="http://www.w3.org/2000/svg"><title>Roku</title><path d="M52.929 5.113l-7.234 7.233v-7.253H39.417v18.435h6.281v-7.478l7.552 7.478h7.895l-9.59-9.596 7.95-7.947v10.948c0 3.636 2.179 6.987 7.68 6.987 2.616 0 5.007-1.483 6.168-2.825l2.824 2.436H77.513v-18.422h-6.262v11.933c-0.706 1.232-1.695 2.012-3.216 2.012-1.547 0-2.256-0.918-2.256-3.845V5.113z m-14.735 9.207A9.641 9.641 0 1 1 28.531 4.718a9.619 9.619 0 0 1 9.663 9.596m-9.663-5.039c-1.662 0-3.068 2.259-3.068 5.045 0 2.783 1.406 5.039 3.068 5.039 1.695 0 3.107-2.253 3.107-5.039 0-2.789-1.406-5.045-3.107-5.045z m-7.08 14.272H14.329L8.671 15.704h-1.906v7.83H0.487V0h8.987c5.186 0 9.42 3.53 9.419 7.863 0 2.651-1.621 5.013-4.085 6.46l6.643 9.227m-8.826-15.687A3.935 3.935 0 0 0 8.703 3.909h-1.938v7.873h1.942a3.931 3.931 0 0 0 3.915-3.919Z"/></svg>