<svg fill="#EC4A3F" role="img" viewBox="0 0 18 24" xmlns="http://www.w3.org/2000/svg"><title>rollup.js</title><path d="M0.42 0a0.37 0.37 0 0 0-0.369 0.37V19.885c0.577-1.488 1.557-3.617 3.138-6.53C8.888 2.876 9.635 1.819 12.604 1.819c1.56 0 3.134 0.704 4.152 1.955A7.962 7.962 0 0 0 10.101 0zM13.139 2.544c-1.19 0.01-2.257 0.466-2.698 1.498-0.967 2.256 1.624 4.767 2.757 4.568 1.442-0.255-0.255-3.563-0.255-3.563 2.205 4.156 1.697 2.884-2.29 6.699C6.667 15.562 2.596 23.619 2.002 23.957a0.477 0.477 0 0 1-0.08 0.043H17.558a0.373 0.373 0 0 0 0.33-0.538l-4.088-8.092a0.37 0.37 0 0 1 0.144-0.488 7.96 7.96 0 0 0 4.005-6.912c0-1.425-0.373-2.761-1.03-3.92-0.927-0.952-2.43-1.516-3.779-1.506z"/></svg>