<svg fill="#2039F3" role="img" viewBox="0 0 83 24" xmlns="http://www.w3.org/2000/svg"><title>Roon</title><path d="M11.598 2.38c0.474-0.082 0.804-0.586 0.804-1.101a1.073 1.073 0 0 0-0.628-1.026s-0.301-0.205-1.982-0.206C3.938 0.047 0.301 3.754 0.301 9.721v13.041a1.221 1.221 0 0 0 2.441 0v-13.041c0-4.729 2.909-7.512 7.333-7.334 0.296 0.012 1.151 0.083 1.523-0.007z m61.422-2.38c-5.633 0-9.722 4.088-9.721 9.722v13.04a1.221 1.221 0 1 0 2.441 0v-13.04c0-4.194 3.062-7.238 7.28-7.238 4.194 0 7.238 3.044 7.238 7.238v13.04a1.22 1.22 0 1 0 2.441 0v-13.04c0-5.633-4.07-9.722-9.679-9.722Zm-23.683 0c-6.305 0-11.434 5.418-11.434 12.077 0 6.565 5.129 11.906 11.434 11.906 6.329 0 11.478-5.341 11.478-11.906 0-6.659-5.149-12.077-11.478-12.077z m8.994 12.077c0 5.266-4.035 9.55-8.994 9.55-4.959 0-8.993-4.284-8.993-9.55 0-5.361 4.035-9.722 8.993-9.722 4.959 0 8.993 4.361 8.994 9.722zM23.899 0c-6.305 0-11.435 5.418-11.435 12.077 0 6.565 5.13 11.906 11.435 11.906 6.329 0 11.477-5.341 11.477-11.906 0-6.659-5.149-12.077-11.477-12.077z m8.993 12.077c0 5.266-4.035 9.55-8.993 9.55-4.959 0-8.993-4.284-8.994-9.55 0-5.361 4.035-9.722 8.994-9.722 4.959 0 8.993 4.361 8.993 9.722z"/></svg>