<svg fill="#525DDC" role="img" viewBox="0 0 26 24" xmlns="http://www.w3.org/2000/svg"><title>Roots</title><path d="M9.261 12.289L2.921 18.623a0.262 0.262 0 0 1-0.187 0.077l-0.021-0.001a0.266 0.266 0 0 1-0.191-0.109 12.838 12.838 0 0 1-0.953-1.557 0.265 0.265 0 0 1 0.048-0.308l6.045-6.035a10.082 10.082 0 0 0 2.977-7.177 0.263 0.263 0 0 1 0.525 0v4.193a6.433 6.433 0 0 1-1.902 4.583zM19.433 0.036a0.259 0.259 0 0 0-0.262 0 0.264 0.264 0 0 0-0.131 0.227v11.639a6.433 6.433 0 0 0 1.901 4.582l2.141 2.139a0.264 0.264 0 0 0 0.186 0.077l0.022-0.001a0.274 0.274 0 0 0 0.193-0.109A12.762 12.762 0 0 0 25.867 11.153c0-4.562-2.464-8.822-6.434-11.116zM6.96 3.513V0.263A0.262 0.262 0 0 0 6.567 0.036C2.599 2.33 0.133 6.589 0.133 11.153c0 0.365 0.019 0.756 0.06 1.195 0.011 0.101 0.077 0.187 0.173 0.223a0.315 0.315 0 0 0 0.09 0.015 0.263 0.263 0 0 0 0.184-0.076l4.421-4.415a6.432 6.432 0 0 0 1.899-4.582z m11.381 15.569a10.081 10.081 0 0 1-2.979-7.18V7.706a0.263 0.263 0 1 0-0.524 0 10.08 10.08 0 0 1-2.977 7.18l-6.342 6.332a0.262 0.262 0 0 0-0.076 0.207 0.261 0.261 0 0 0 0.109 0.193A12.791 12.791 0 0 0 13 24a12.792 12.792 0 0 0 7.449-2.382 0.254 0.254 0 0 0 0.107-0.193 0.256 0.256 0 0 0-0.073-0.207l-2.142-2.136Z"/></svg>