<svg fill="#EF0092" role="img" viewBox="0 0 21 24" xmlns="http://www.w3.org/2000/svg"><title>RSocket</title><path d="M20.502 0.003a10.519 10.519 0 0 1-0.707 0.025c-2.729-0.003-5.459 0.015-8.188-0.023-1.331-0.019-2.586 0.259-3.806 0.738-1.888 0.741-3.491 1.887-4.811 3.433C1.877 5.481 1.104 6.96 0.6 8.598c-0.351 1.141-0.442 2.316-0.457 3.484-0.049 3.852-0.03 7.704-0.045 11.557-0.001 0.272 0.12 0.34 0.359 0.34a747.047 747.047 0 0 1 3.881 0.015c0.206 0.001 0.303-0.07 0.303-0.299-0.006-2.077-0.004-4.155-0.004-6.232h0.004c0-1.615-0.005-3.229 0.002-4.844 0.003-0.735 0.041-1.463 0.201-2.191 0.293-1.333 0.876-2.493 1.801-3.502 1.411-1.54 3.095-2.387 5.226-2.406 2.739-0.024 5.476-0.017 8.215-0.01 0.758 0.002 0.757 0.006 0.759-0.748 0.004-1.143 0.009-2.285 0.014-3.427 0.001-0.279-0.081-0.35-0.357-0.332z m0.072 6.468a8.046 8.046 0 0 1-0.51 0.018c-2.71 0.003-5.419 0.006-8.129 0.008-0.445 0-0.899 0.017-1.322 0.134-2.36 0.656-3.866 2.68-3.992 4.979-0.117 2.144 0.81 3.794 2.563 4.992 0.639 0.437 1.353 0.742 2.121 0.802 1.525 0.121 3.059 0.045 4.587 0.084 0.19 0.005 0.281-0.076 0.266-0.273-0.007-0.089-0.056-0.206 0.053-0.254 0.11-0.048 0.189 0.054 0.269 0.115 0.502 0.383 1 0.775 1.508 1.151 0.205 0.151 0.162 0.259-0.006 0.394-0.477 0.385-0.951 0.776-1.426 1.164-0.073 0.06-0.145 0.132-0.25 0.098-0.119-0.039-0.104-0.147-0.097-0.238 0.016-0.243-0.111-0.303-0.332-0.303-2.955 0.006-5.91 0.007-8.865 0.006-0.432 0-0.42-0.009-0.416 0.412 0.012 1.303 0.04 2.604-0.018 3.906-0.011 0.259 0.094 0.335 0.328 0.334 1.529-0.003 3.058-0.002 4.588-0.002v-0.033c0.916 0 1.832 0.007 2.748-0.002 0.726-0.007 1.462 0.044 2.176-0.106 1.478-0.309 2.655-1.106 3.506-2.351 1.003-1.468 1.187-3.08 0.683-4.76-0.34-1.132-1.022-2.067-1.982-2.758-0.884-0.636-1.852-1.061-2.986-1.064-1.18-0.004-2.359-0.007-3.539-0.023-0.251-0.004-0.278 0.132-0.25 0.33 0.012 0.082 0.027 0.179-0.065 0.228-0.094 0.051-0.162-0.024-0.224-0.076-0.515-0.428-1.026-0.862-1.543-1.287-0.136-0.112-0.155-0.213-0.01-0.316 0.547-0.39 1.052-0.829 1.543-1.286 0.06-0.056 0.126-0.133 0.22-0.076 0.079 0.048 0.051 0.132 0.045 0.207-0.027 0.325 0.025 0.379 0.352 0.381 0.68 0.003 1.358-0.03 2.037-0.037 2.115-0.022 4.231-0.007 6.345 0 0.236 0.001 0.352-0.079 0.352-0.324-0.004-1.293-0.004-2.587-0.006-3.881 0-0.213-0.11-0.307-0.322-0.293z"/></svg>