<svg fill="#00A7B3" role="img" viewBox="0 0 46 24" xmlns="http://www.w3.org/2000/svg"><title>RT&#201;</title><path d="M3.918 13.633V6.359s1.398-0.034 3.077-0.035c0.25 0 0.491 0.019 0.71 0.031 2.686 0.219 3.795 1.682 3.795 3.442 0 1.973-1.562 3.465-3.795 3.783a6.667 6.667 0 0 1-0.902 0.053z m5.41 2.37c3.307-0.32 6.09-2.755 6.09-5.909 0-3.358-1.939-6.332-7.713-6.572a18.091 18.091 0 0 0-0.748-0.019c-3.997 0-6.738 0.19-6.738 0.191s0.185 1.972 0.185 2.967v14.524C0.404 22.52 0.141 23.926 0.141 23.926h4.035s-0.257-1.404-0.258-3.004v-5.907l3.787 3.962 1.917 1.987c1.181 1.29 3.242 2.962 3.242 2.962h5.334s-2.387-1.673-3.496-2.74z m36.299-13.711a15.474 15.474 0 0 0-3.879-0.541c-3.398 0-6.326 1.031-8.768 3.204l0.038-2.402c2.591-1.762 5.524-2.553 8.73-2.553 1.406 0 2.625 0.19 3.917 0.526l-0.038 1.766M21.632 23.924s0.223-1.482 0.223-2.778V7.052h-0.954c-1.295 0-3.307 0-4.793 0.147l-0.126-3.273h15.476l-0.078 3.273c-1.528-0.147-3.501-0.147-4.837-0.147h-1.175v14.094c0 1.295 0.259 2.777 0.259 2.778h-3.995m19.848-2.903c-3.501 0-6.45-2.505-6.984-6.048h6.633c0.733 0 2.328 0.156 2.328 0.156V12.191s-1.566 0.116-2.438 0.117h-6.523c0.661-3.471 3.515-5.867 6.984-5.867 1.829 0 4.075 0.834 4.074 0.834l0.044-3.09s-1.6-0.606-4.118-0.606c-5.835 0-10.936 4.457-10.937 10.134 0 6.14 5.101 10.287 10.935 10.287 2.743 0 4.381-0.731 4.381-0.731l-0.076-3.193c-0.002 0-2.023 0.945-4.305 0.945Z"/></svg>