<svg fill="#FA002E" role="img" viewBox="0 0 137 24" xmlns="http://www.w3.org/2000/svg"><title>RTL</title><path d="M0.286 0v24h42.622V0.006H0.286z m46.897 0v24h42.634V0.006h-42.634z m46.909 0v24H136.714V0.006h-42.622z m-81.658 5.491H23.706c3.468 0 5.372 1.563 5.372 4.167 0 2.257-1.444 3.763-3.928 4.11l5.554 4.684h-4.286l-5.264-4.519H15.384v4.519h-2.956v-12.961z m47.073 0h17.986v2.547H69.978v10.414h-2.956v-10.414h-7.515v-2.547z m47.83 0h2.944v10.414h13.188v2.547h-16.132v-12.961z m-91.953 2.433v3.587H23.365c1.847 0 2.717-0.586 2.717-1.796 0-1.216-0.87-1.791-2.717-1.791H15.384z"/></svg>