<svg fill="#000000" role="img" viewBox="0 0 21 24" xmlns="http://www.w3.org/2000/svg"><title>RuboCop</title><path d="M10.56 0C6.21 0 2.621 3.25 2.084 7.455h16.952C18.498 3.25 14.91 0 10.56 0zM2.43 7.95a1.54 1.54 0 0 0-1.537 1.537v0.772c-0.358 0.22-0.598 0.613-0.598 1.06v2.065c0 0.448 0.24 0.842 0.598 1.061v0.802a1.54 1.54 0 0 0 1.536 1.536h16.14a1.54 1.54 0 0 0 1.536-1.536v-0.802c0.358-0.22 0.6-0.612 0.6-1.06V11.32c0-0.448-0.242-0.842-0.6-1.061v-0.772A1.54 1.54 0 0 0 18.57 7.95z m1.47 3.146h13.2c0.622 0 1.132 0.51 1.132 1.134s-0.51 1.133-1.133 1.133H3.9c-0.624 0-1.134-0.51-1.134-1.133s0.51-1.134 1.134-1.134z m-1.42 5.998v3.276A3.64 3.64 0 0 0 6.11 24h8.94a3.64 3.64 0 0 0 3.628-3.63v-3.276h-1.995v3.267c0 0.898-0.735 1.633-1.633 1.633h-0.89v-0.003a0.62 0.62 0 0 1-0.48-0.23h-0.002l-1.063-1.358h-0.002a0.622 0.622 0 0 0-0.488-0.245h-3.093a0.62 0.62 0 0 0-0.463 0.214h-0.002L7.48 21.758h-0.002a0.62 0.62 0 0 1-0.481 0.23v0.004h-0.89a1.638 1.638 0 0 1-1.633-1.633v-3.267z m4.996 0.795l-0.82 0.95 0.774 0.67 0.515-0.596h5.046l0.516 0.596 0.774-0.67-0.82-0.95z"/></svg>