<svg fill="#D30001" role="img" viewBox="0 0 40 24" xmlns="http://www.w3.org/2000/svg"><title>Ruby on Rails</title><path d="M1.655 24h13.622s-2.604-11.879 6.017-16.689l0.218-0.108c2.095-1.038 7.995-3.961 17.437 3.021 0.31-0.259 0.603-0.466 0.603-0.466s-8.966-8.948-18.949-7.948c-5.017 0.448-11.189 5.017-14.811 11.052C2.172 18.897 1.655 24 1.655 24Zm14.345-1.276a17.404 17.404 0 0 1-0.207-2.172l1.862 0.672c0.103 0.811 0.259 1.569 0.414 2.242l-2.069-0.742Zm-12.707-7.034L1.31 14.965c-0.327 0.741-0.689 1.603-0.862 2.07l1.983 0.723c0.223-0.585 0.587-1.431 0.862-2.068Zm12.759 0.483l1.396 1.103c0.068-0.673 0.189-1.344 0.362-2.017l-1.241-0.983c-0.223 0.637-0.38 1.276-0.517 1.897Zm3.327-4.311l-0.827-1.242c0.311-0.396 0.673-0.792 1.068-1.155l0.776 1.173a9.708 9.708 0 0 0-1.017 1.224ZM7.275 6.913l1.225 1.069c-0.414 0.432-0.811 0.898-1.173 1.362l-1.328-1.137c0.398-0.432 0.828-0.862 1.276-1.294Zm15.966 1.674l-0.396-1.19c0.432-0.191 0.93-0.38 1.517-0.552l0.379 1.137a11.112 11.112 0 0 0-1.5 0.605Zm5.086-1.069l0.069-1.087c0.552 0.034 1.121 0.104 1.707 0.225l-0.068 1.069a9.546 9.546 0 0 0-1.708-0.207ZM15.018 2.863l-0.776-1.191c-0.432 0.225-0.88 0.466-1.346 0.741l0.794 1.207c0.448-0.275 0.88-0.534 1.328-0.757Zm15.017-0.087l0.068-1.155c-0.155-0.086-0.587-0.293-1.671-0.604l-0.07 1.139c0.569 0.189 1.121 0.396 1.673 0.62ZM22.017 1.051h0.173l-0.346-1.051c-0.534 0-1.085 0.034-1.655 0.103l0.327 1.018a14.452 14.452 0 0 1 1.501-0.07Z"/></svg>