<svg fill="#000000" role="img" viewBox="0 0 37 24" xmlns="http://www.w3.org/2000/svg"><title>Ruby Sinatra</title><path d="M8.187 9.756c-1.849 0.609-5.053 2.107-6.002 2.943-0.105 0.091-0.21 0.19-0.315 0.296-0.746 0.654-1.157 1.295-1.355 1.956A6.732 6.732 0 0 0 0.235 16.884c-0.008 1.282 0.376 2.084 0.376 2.083 1.087 2.173 3.677 3.653 6.408 4.51 2.705 0.903 8.557 0.44 11.448 0.07 7.749-1.041 12.769-2.522 15.706-4.927C36.649 16.631 36.765 14.503 36.765 13.716c0-0.091-0.011-0.204-0.031-0.333-0.049-0.842-0.393-2.466-2.268-3.623a4.505 4.505 0 0 0-0.502-0.3c-0.19-0.099-0.381-0.193-0.571-0.283l-0.053-0.041-0.291-0.118a18.741 18.741 0 0 0-0.957-0.402c-0.784-0.342-1.478-0.589-2.088-0.726a106.436 106.436 0 0 1-0.063-2.592c0-1.065-0.371-1.644-0.671-1.944-0.183-0.181-0.848-0.403-1.517-0.609a29.099 29.099 0 0 0-1.416-0.437 7.088 7.088 0 0 0-0.12-0.041v0.008l-0.635-0.183h-0.001l-0.682-0.195a2.283 2.283 0 0 1-0.143-0.022l-0.051-0.016a3.289 3.289 0 0 0-0.106-0.03l-0.043-0.012a97.818 97.818 0 0 1-0.975-0.29 2.618 2.618 0 0 1-0.139-0.018v-0.004a77.815 77.815 0 0 1-0.324-0.087v-0.006a47.047 47.047 0 0 0-0.487-0.137v-0.002a26.739 26.739 0 0 0-1.018-0.254 106.982 106.982 0 0 0-4.093-0.764c-0.277-0.07-2.081-0.231-2.081-0.231a9.047 9.047 0 0 0-1.683 0.035 6.103 6.103 0 0 0-1.186 0.289c-0.172 0.037-0.373 0.157-0.583 0.329a2.075 2.075 0 0 0-0.269 0.222l-0.003 0.003a6.432 6.432 0 0 0-0.191 0.183l-0.01 0.012c-0.33 0.33-0.548 0.627-0.691 0.889-0.265 0.379-0.463 0.729-0.519 0.928-0.049 0.181-0.196 0.88-0.347 1.589-0.139 0.658-0.28 1.326-0.347 1.604-0.073 0.304-0.508 1.379-0.915 2.385-0.189 0.463-0.37 0.91-0.508 1.264Zm21.893 0.977c0-0.091 0.116-0.091 0.116 0.023 0 0 0 0.024-0.005 0.055a0.14 0.14 0 0 1 0.005 0.038c0 0.046 0 0.694-0.046 1.456-0.012 0.209-0.03 0.428-0.047 0.649-0.017 0.219-0.035 0.44-0.046 0.646-0.011 0.342-0.012 0.656-0.011 0.898 0.011 0.234 0.011 0.374 0.011 0.375v0.161c0 0.394-0.231 0.903-0.603 1.134l-0.061 0.04h-0.001l-0.032 0.02c-0.175 0.134-0.382 0.253-0.623 0.35-0.335 0.161-0.785 0.339-1.433 0.516-1.272 0.37-2.221 0.533-2.845 0.601-1.527 0.186-3.33 0.277-5.481 0.277-0.441 0-2.152 0-2.568-0.023-5.691-0.161-9.114-1.872-9.114-3.099v-0.161s0.487-3.772 0.487-4.003c0-0.23 0.137-0.416 0.137-0.277v0.091c0 0.046 0 0.093 0.003 0.142 0.003 0.015 0.008 0.027 0.012 0.038 0.005 0.011 0.009 0.02 0.01 0.03 0.487 1.549 5.251 2.613 11.079 2.613h0.971l0.312-0.004h0.001c1.75-0.018 5.811-0.064 8.892-1.452 0.533-0.347 0.88-0.694 0.88-1.134z"/></svg>