<svg fill="#CC342D" role="img" viewBox="0 0 25 24" xmlns="http://www.w3.org/2000/svg"><title>Ruby</title><path d="M20.706 0.01c3.052 0.528 3.917 2.614 3.853 4.799L24.574 4.778 23.201 22.777 5.346 24h0.016C3.88 23.938 0.577 23.802 0.426 19.183l1.655-3.018 2.837 6.627 0.506 1.179 2.822-9.201-0.03 0.008 0.016-0.031 9.312 2.975-1.405-5.465-0.996-3.924 8.875-0.572-0.619-0.514L17.028 2.054 20.709 0l-0.003 0.01zM0.426 19.133zM5.588 5.031c3.583-3.555 8.207-5.656 9.983-3.864 1.773 1.788-0.106 6.143-3.696 9.696-3.585 3.554-8.153 5.769-9.925 3.981-1.777-1.788 0.045-6.255 3.635-9.81l0.003-0.003z"/></svg>