<svg fill="#2EB4E3" role="img" viewBox="0 0 31 24" xmlns="http://www.w3.org/2000/svg"><title>Rumahweb</title><path d="M0.083 12.192c0.036-0.353 0.19-0.698 0.462-0.968l9.228-9.112a1.249 1.249 0 0 1 0.132-0.117c0.396-0.34 2.322-1.893 4.809-1.995h0.516c1.447 0.06 3.05 0.642 4.639 2.224 3.256 3.266 6.522 6.523 9.783 9.784 1.465 1.465 1.539 3.321 0.825 4.876a5.194 5.194 0 0 1-1.052 1.507 5.105 5.105 0 0 1-1.526 1.057c-1.552 0.69-3.4 0.588-4.96-0.967l-0.068-0.072-7.994-7.788a1.195 1.195 0 0 0-1.323-0.265 2.056 2.056 0 0 0-0.641 0.417c-0.193 0.181-0.349 0.391-0.453 0.608-0.175 0.374-0.181 0.806 0.11 1.165l8.744 8.739c0.621 0.623 0.618 1.632-0.006 2.251a1.601 1.601 0 0 1-2.259-0.005l-8.851-8.852c-1.284-1.462-1.312-3.186-0.627-4.643a5.251 5.251 0 0 1 2.807-2.634c1.52-0.601 3.28-0.469 4.727 0.939 2.702 2.626 5.392 5.265 8.099 7.886 0.461 0.457 0.976 0.504 1.394 0.319a2.056 2.056 0 0 0 0.977-0.981c0.198-0.43 0.19-0.933-0.188-1.308-3.263-3.254-6.514-6.523-9.784-9.77-2.54-2.535-5.191-0.443-5.585-0.106l-9.222 9.104a1.6 1.6 0 0 1-2.257-0.004A1.603 1.603 0 0 1 0.083 12.517v-0.325Z"/></svg>