<svg fill="#85C742" role="img" viewBox="0 0 22 24" xmlns="http://www.w3.org/2000/svg"><title>Rumble</title><path d="M13.453 13.546c0.806-0.654 0.93-1.838 0.275-2.645a1.88 1.88 0 0 0-0.275-0.275 21.213 21.213 0 0 0-4.312-2.776c-1.066-0.51-2.256 0.2-2.426 1.414a23.523 23.523 0 0 0-0.14 5.502c0.116 1.23 1.292 1.964 2.372 1.492a19.628 19.628 0 0 0 4.506-2.704v-0.008z m6.932-5.4c2.034 2.228 2.04 5.637 0.014 7.872A26.149 26.149 0 0 1 7.295 23.846c-2.685 0.671-5.417-0.914-6.167-3.578-1.524-5.2-1.3-11.08 0.17-16.305 0.772-2.744 3.352-4.466 6.011-3.832 4.924 1.174 9.544 4.196 13.076 8.013v0.002z"/></svg>