<svg fill="#491757" role="img" viewBox="0 0 26 24" xmlns="http://www.w3.org/2000/svg"><title>RunKit</title><path d="M25.579 14.939a3.153 3.153 0 0 1-1.545 3.174l-9.458 5.465a3.153 3.153 0 0 1-3.152 0l-9.458-5.465a3.153 3.153 0 0 1-1.545-3.174l1.387-7.566a3.153 3.153 0 0 1 1.03-1.913 3.111 3.111 0 0 1 0.515-0.367l7.934-4.593a3.163 3.163 0 0 1 3.447 0.021l7.913 4.572c0.105 0.053 0.2 0.105 0.294 0.178a3.153 3.153 0 0 1 1.251 2.102z m-10.025-11.318l-8.113 1.671c-0.452 0.084-0.536 0.673-0.147 0.904l5.885 3.394c0.242 0.137 0.525 0.074 0.662-0.199l1.66-3.783 0.557-1.282c0.168-0.368-0.116-0.788-0.525-0.705z"/></svg>