<svg fill="#001E62" role="img" viewBox="0 0 183 24" xmlns="http://www.w3.org/2000/svg"><title>Runkeeper</title><path d="M18.809 0c-3.949 0-8.286 2.415-11.013 4.701l0.22 0.304c4.223-2.962 10.101-4.891 11.727-1.997 0.851 1.527-0.6 4.61-2.643 7.048 0.494-1.078 0.167-3.144-2.681-3.145-4.739 0-14.058 6.273-14.058 12.699 0 2.575 1.785 4.253 4.724 4.253 7.861 0 18.532-12.896 18.531-19.374 0-2.286-1.314-4.481-4.807-4.481z m66.364 5.423v14.453h3.449v-2.324l2.62-1.739 4.769 4.063h4.755l-6.912-5.803 6.768-4.519h-5.165l-6.835 4.702v-8.833z m-56.688 1.443v13.002h3.44v-4.124h7.443l4.147 4.132h4.405l-4.473-4.367a5.871 5.871 0 0 0 3.03-1.489 3.684 3.684 0 0 0 1.064-2.711 3.759 3.759 0 0 0-1.747-3.289c-1.154-0.775-2.757-1.162-4.816-1.162z m-14.074 1.572c2.256 0 2.081 2.013 0.76 3.737l-0.729 0.805c-2.62 2.582-5.043 3.949-6.684 3.949v-0.007c-1.359 0-2.013-1.048-1.671-2.256 0.706-2.506 5.241-6.228 8.324-6.228z m130.846 0.684a9.797 9.797 0 0 0-0.091 0 9.501 9.501 0 0 0-3.061 0.478 5.772 5.772 0 0 0-2.218 1.261v-1.307h-3.417v14.446h3.455v-5.4a5.909 5.909 0 0 0 2.226 1.238 9.585 9.585 0 0 0 3.015 0.463 9.797 9.797 0 0 0 3.782-0.698 6.197 6.197 0 0 0 2.651-1.975 4.922 4.922 0 0 0 0-5.841 6.228 6.228 0 0 0-2.651-1.967 9.797 9.797 0 0 0-3.691-0.698z m-69.365 0a8.377 8.377 0 0 0-0.083 0 7.291 7.291 0 0 0-3.342 0.729 5.392 5.392 0 0 0-2.202 1.959v-2.256h-3.281v10.322h3.448v-4.314a3.441 3.441 0 0 1 0.615-2.058 3.752 3.752 0 0 1 1.671-1.291 6.228 6.228 0 0 1 2.369-0.433 4.261 4.261 0 0 1 1.983 0.455 3.349 3.349 0 0 1 1.367 1.269 3.608 3.608 0 0 1 0.493 1.883v4.481h3.464v-5.035a5.392 5.392 0 0 0-0.889-3.144 5.37 5.37 0 0 0-2.385-1.93 8.377 8.377 0 0 0-3.228-0.637z m50.636 0a11.294 11.294 0 0 0-3.972 0.713 6.585 6.585 0 0 0-2.765 1.998 4.511 4.511 0 0 0-1.002 2.871 4.557 4.557 0 0 0 1.01 2.924 6.448 6.448 0 0 0 2.924 1.975c1.276 0.463 2.78 0.699 4.511 0.691a19.542 19.542 0 0 0 3.175-0.228c0.934-0.152 1.944-0.372 3.015-0.646v-2.506a42.478 42.478 0 0 1-3.023 0.661 17.97 17.97 0 0 1-3.038 0.228c-1.352 0-2.491-0.182-3.417-0.555-0.911-0.372-1.481-0.911-1.702-1.618l11.917 0.023v-0.592a5.218 5.218 0 0 0-0.995-3.19 6.175 6.175 0 0 0-2.734-2.051 11.294 11.294 0 0 0-3.904-0.698z m56.111 0a11.127 11.127 0 0 0-4.42 0.843c-1.253 0.547-2.119 1.268-2.597 2.157v-2.568h-3.411v10.322h3.448v-3.798a2.939 2.939 0 0 1 1.094-2.324 6.813 6.813 0 0 1 2.712-1.367 11.339 11.339 0 0 1 3.174-0.395z m-73.367 0a11.301 11.301 0 0 0-3.98 0.713 6.608 6.608 0 0 0-2.757 1.998 4.511 4.511 0 0 0-1.01 2.871 4.565 4.565 0 0 0 1.018 2.924 6.456 6.456 0 0 0 2.924 1.975c1.276 0.463 2.78 0.699 4.511 0.698a19.557 19.557 0 0 0 3.175-0.228c0.934-0.159 1.937-0.38 3.015-0.653v-2.506a39.418 39.418 0 0 1-3.022 0.661 17.977 17.977 0 0 1-3.038 0.228c-1.352 0-2.491-0.182-3.418-0.547-0.911-0.38-1.481-0.911-1.701-1.618l11.916 0.015v-0.592a5.218 5.218 0 0 0-0.995-3.19 6.175 6.175 0 0 0-2.734-2.051 11.301 11.301 0 0 0-3.911-0.698z m52.846 0a11.301 11.301 0 0 0-3.972 0.713 6.608 6.608 0 0 0-2.765 1.998 4.511 4.511 0 0 0-1.003 2.871 4.565 4.565 0 0 0 1.018 2.924 6.456 6.456 0 0 0 2.924 1.975c1.276 0.463 2.78 0.699 4.512 0.698a19.549 19.549 0 0 0 3.174-0.228c0.934-0.159 1.937-0.38 3.016-0.653v-2.506c-1.116 0.281-2.127 0.509-3.023 0.661a17.977 17.977 0 0 1-3.038 0.228 9.342 9.342 0 0 1-3.418-0.547c-0.911-0.38-1.481-0.911-1.701-1.618l11.916 0.015v-0.592a5.218 5.218 0 0 0-0.995-3.19 6.175 6.175 0 0 0-2.734-2.051 11.301 11.301 0 0 0-3.911-0.698z m-130.193 0.432h8.734a5.468 5.468 0 0 1 2.309 0.411 1.39 1.39 0 0 1 0.874 1.344c0 0.608-0.289 1.063-0.874 1.337a5.339 5.339 0 0 1-2.309 0.425h-8.734z m29.142 0v4.899a2.727 2.727 0 0 1-0.532 1.686 3.456 3.456 0 0 1-1.496 1.109 5.696 5.696 0 0 1-2.18 0.395 5.392 5.392 0 0 1-2.118-0.395 3.395 3.395 0 0 1-1.459-1.124 2.772 2.772 0 0 1-0.531-1.671v-4.899h-3.464v4.899a5.225 5.225 0 0 0 0.935 3.091 5.932 5.932 0 0 0 2.658 2.036c1.139 0.478 2.484 0.722 4.025 0.721 1.549 0 2.886-0.243 4.041-0.721a5.97 5.97 0 0 0 2.658-2.036 5.218 5.218 0 0 0 0.926-3.091v-4.899z m48.175 1.846c1.063 0 1.959 0.213 2.688 0.63a2.62 2.62 0 0 1 1.352 1.648h-8.278a2.673 2.673 0 0 1 1.428-1.67c0.759-0.403 1.701-0.608 2.81-0.608z m17.255 0c1.063 0 1.959 0.213 2.697 0.63a2.62 2.62 0 0 1 1.344 1.648h-8.279a2.673 2.673 0 0 1 1.436-1.67c0.759-0.403 1.694-0.608 2.81-0.608z m35.598 0c1.063 0 1.959 0.213 2.689 0.63a2.62 2.62 0 0 1 1.344 1.648h-8.271a2.704 2.704 0 0 1 1.428-1.67c0.759-0.403 1.694-0.608 2.81-0.608z m-17.415 0.251a6.577 6.577 0 0 1 2.202 0.379 3.494 3.494 0 0 1 1.542 1.086 2.514 2.514 0 0 1 0.539 1.588 2.544 2.544 0 0 1-0.531 1.602 3.478 3.478 0 0 1-1.55 1.079 6.585 6.585 0 0 1-2.369 0.38 7.625 7.625 0 0 1-2.317-0.335 3.949 3.949 0 0 1-1.724-1.04 2.377 2.377 0 0 1-0.653-1.686 2.316 2.316 0 0 1 0.653-1.671 4.109 4.109 0 0 1 1.732-1.025 7.451 7.451 0 0 1 2.309-0.357 6.577 6.577 0 0 1 0.167 0z"/></svg>