<svg fill="#024EFF" role="img" viewBox="0 0 25 24" xmlns="http://www.w3.org/2000/svg"><title>RustDesk</title><path d="M21.108 5.602l-1.971 1.958c-0.347 0.311-0.515 0.811-0.32 1.235 1.313 2.747 0.814 6.022-1.34 8.175-2.155 2.152-5.434 2.649-8.184 1.337-0.405-0.182-0.881-0.028-1.193 0.288l-2.003 2a1.065 1.065 0 0 0 0.192 1.671 12.005 12.005 0 0 0 14.686-1.765A11.973 11.973 0 0 0 22.781 5.836a1.065 1.065 0 0 0-1.673-0.234zM4.061 3.474A11.972 11.972 0 0 0 2.197 18.137a1.065 1.065 0 0 0 1.672 0.235L5.83 16.424c0.355-0.31 0.528-0.816 0.331-1.244-1.314-2.747-0.816-6.022 1.34-8.175C9.655 4.852 12.935 4.355 15.685 5.666c0.401 0.179 0.87 0.03 1.182-0.277l2.015-2.012a1.063 1.063 0 0 0-0.192-1.671A12.008 12.008 0 0 0 4.019 3.527z"/></svg>