<svg fill="#004B93" role="img" viewBox="0 0 47 24" xmlns="http://www.w3.org/2000/svg"><title>Sabanci</title><path d="M10.613 5.919a30.8 30.8 0 0 0-2.995 0.205c-2.229 0.284-3.001 1.259-3.001 3.65 0 1.893 0.502 2.807 1.761 3.237 0.61 0.213 1.656 0.302 3.398 0.302h3.313a16.967 16.967 0 0 1 1.799 0.038c0.738 0.071 1.097 0.412 1.097 1.022 0 1.065-0.473 1.169-4.733 1.17a16.565 16.565 0 0 1-2.285-0.123c-0.539-0.128-0.663-0.341-0.7-1.241H4.67v0.701c0 1.709 0.577 2.57 1.926 2.911 0.88 0.237 2.102 0.308 4.818 0.307a45.169 45.169 0 0 0 5.035-0.18c2.281-0.246 3.143-1.23 3.143-3.639 0-1.245-0.251-2.144-0.734-2.683-0.558-0.644-1.296-0.861-3.095-0.947-0.97-0.038-1.689-0.057-1.893-0.057H10.457a6.2 6.2 0 0 1-1.419-0.07 0.918 0.918 0 0 1-0.805-0.947c0-0.663 0.322-0.919 1.221-0.99 0.559-0.033 2.177-0.09 3.313-0.09 2.466 0 2.807 0.147 2.807 1.188h3.516c0-2.068-0.397-2.897-1.599-3.346-0.918-0.341-1.87-0.411-5.377-0.411a30.8 30.8 0 0 0-1.501-0.007Zm21.871 0.087l-6.744 11.988h4.136l1.15-2.139h7.733l1.184 2.139h3.994l-6.564-11.988Zm2.409 2.57l2.607 4.785H32.337ZM0.112 12.002a11.993 11.993 0 0 1 23.384-3.757 11.997 11.997 0 1 1 0 7.51A11.993 11.993 0 0 1 0.112 12.002Z"/></svg>