<svg fill="#00D639" role="img" viewBox="0 0 44 24" xmlns="http://www.w3.org/2000/svg"><title>Sage</title><path d="M5.307 0C2.551 0 0.456 2.09 0.456 4.768c0 2.935 2.095 4.07 4.417 4.767 2.197 0.695 3.239 1.469 3.238 2.991 0 1.544-1.149 2.63-2.651 2.63-1.508 0-2.811-1.084-2.812-2.756 0-0.926 0.434-1.162 0.435-1.676 0-0.592-0.408-1.031-1.076-1.031-0.759 0-1.551 1.162-1.551 2.811 0 2.657 2.273 4.614 5.004 4.614 2.756 0 4.849-2.088 4.849-4.768 0-2.914-2.093-4.07-4.438-4.767-2.171-0.668-3.217-1.469-3.217-2.991 0-1.517 1.124-2.603 2.626-2.603 1.557 0 2.81 1.108 2.831 2.63 0.029 0.697 0.512 1.108 1.076 1.108a1.063 1.063 0 0 0 1.095-1.161c-0.048-2.657-2.268-4.566-4.975-4.566z m11.079 17.092c1.226 0 2.172-0.413 2.172-1.239a1.023 1.023 0 0 0-1-1.031c-0.359 0-0.612 0.153-1.199 0.153-1.583 0-2.831-1.364-2.831-2.962 0-1.727 1.275-3.097 2.887-3.097 1.811 0 2.962 1.391 2.962 3.402v3.687c0 0.646 0.51 1.084 1.122 1.085 0.587 0 1.095-0.438 1.095-1.085v-3.764c0-3.088-2.115-5.357-5.131-5.358-2.811 0-5.135 2.19-5.134 5.128 0 2.837 2.302 5.081 5.057 5.081z m11.233 6.908c2.756 0 4.849-2.088 4.85-4.768 0-2.935-2.093-4.07-4.438-4.767-2.171-0.695-3.217-1.469-3.218-2.991s1.149-2.63 2.627-2.63c1.508 0 2.831 1.084 2.831 2.756 0 0.932-0.433 1.162-0.433 1.676 0 0.592 0.406 1.031 1.047 1.031 0.792 0 1.583-1.162 1.584-2.811 0-2.657-2.294-4.614-5.029-4.614-2.756 0-4.824 2.088-4.824 4.768 0 2.914 2.068 4.07 4.416 4.767 2.197 0.668 3.239 1.469 3.239 2.991 0 1.544-1.149 2.603-2.625 2.603-1.585 0-2.811-1.079-2.833-2.63-0.027-0.697-0.539-1.084-1.073-1.085-0.587 0-1.124 0.388-1.095 1.133 0.02 2.691 2.239 4.571 4.973 4.571z m11.079-6.91c1.427 0 2.557-0.411 3.343-0.903 0.765-0.488 1.068-0.905 1.069-1.365 0-0.488-0.359-0.926-1.02-0.926-0.792 0-1.427 1.185-3.37 1.185-1.709 0-3.065-1.364-3.065-3.092 0-1.706 1.302-3.095 2.936-3.095 1.763 0 2.707 1.162 2.707 1.907 0 0.208-0.153 0.312-0.359 0.312h-2.144c-0.585 0-1.02 0.388-1.019 0.903 0 0.564 0.434 0.98 1.019 0.98h2.937c1.122 0 1.811-0.592 1.812-1.597 0-2.528-2.144-4.51-4.98-4.51-2.811 0-5.081 2.268-5.081 5.098s2.355 5.102 5.215 5.103z"/></svg>