<svg fill="#053766" role="img" viewBox="0 0 24 24" xmlns="http://www.w3.org/2000/svg"><title>Sailfish OS</title><path d="M23.981 5.105a0.312 0.312 0 0 0-0.407-0.174l-2.338 0.815a24.35 24.35 0 0 1-3.129 0.822c-2.164 0.396-3.717-1.337-3.717-1.337a0.324 0.324 0 0 0-0.36-0.102 4.832 4.832 0 0 0-0.455 0.174 13.146 13.146 0 0 1 1.702-4.796c0.102-0.103 0.102-0.269 0-0.372a0.366 0.366 0 0 0-0.408-0.113 27.174 27.174 0 0 0-4.196 2.601c-2.877 2.236-4.478 4.514-4.676 6.798-0.15 1.858 1.073 3.075 2.242 4.196l0.204 0.198a4.508 4.508 0 0 1-0.287 3.591c-1.043 2.302-3.357 4.31-6.259 5.395-0.911 0.348-1.679 0.599-1.678 0.6-0.155 0.052-0.244 0.214-0.204 0.371A0.324 0.324 0 0 0 0.321 24H0.398a34.289 34.289 0 0 0 6.595-2.356l0.599-0.3c3.717-1.93 5.701-4.196 5.929-6.69 0.156-1.589-0.785-2.656-1.799-3.596 1.295-1.798 5.491-3.225 5.521-3.225l4.143-1.439c1.325-0.42 2.344-0.821 2.398-0.845a0.3 0.3 0 0 0 0.179-0.42zM12.969 5.626a10.233 10.233 0 0 0-3.513 2.728 3.291 3.291 0 0 1-0.227-1.541c0.156-1.708 1.984-3.693 2.266-3.992a29.925 29.925 0 0 1 2.793-1.756 12.805 12.805 0 0 0-1.349 4.561ZM5.254 21.746a10.61 10.61 0 0 0 3.513-4.094 5.743 5.743 0 0 0 0.557-2.878 3.039 3.039 0 0 1 0.87 2.26c-0.228 2.182-2.925 3.741-2.95 3.765-0.647 0.342-1.313 0.653-1.99 0.947z m7.607-7.146c-0.15 1.714-1.247 3.177-2.745 4.388a4.01 4.01 0 0 0 0.677-1.882c0.156-1.637-0.989-2.776-2.11-3.866-1.121-1.091-2.188-2.158-2.062-3.723 0.156-1.834 1.301-3.471 2.697-4.856a5.239 5.239 0 0 0-0.761 2.128c-0.204 2.008 1.145 3.249 2.314 4.341 1.169 1.091 2.11 1.96 1.984 3.47z m-1.654-4.016a9.388 9.388 0 0 1-1.451-1.571c1.097-1.756 3.597-2.901 4.328-3.195a5.149 5.149 0 0 0 2.848 1.397c-0.611 0.222-4.34 1.535-5.725 3.369z"/></svg>