<svg fill="#00A1E0" role="img" viewBox="0 0 35 24" xmlns="http://www.w3.org/2000/svg"><title>Salesforce</title><path d="M14.651 2.593a5.993 5.993 0 0 1 4.35-1.866c2.229 0 4.22 1.286 5.272 3.15 0.9-0.429 1.929-0.643 3-0.643 4.071 0 7.37 3.343 7.37 7.457s-3.3 7.457-7.394 7.458c-0.493 0-0.986-0.063-1.458-0.149a5.357 5.357 0 0 1-4.714 2.786c-0.857 0-1.65-0.214-2.357-0.536A6.163 6.163 0 0 1 13.043 24a6.146 6.146 0 0 1-5.786-4.029c-0.386 0.089-0.771 0.109-1.178 0.109-3.149 0-5.721-2.571-5.722-5.786 0-2.143 1.159-4.007 2.872-5.014-0.364-0.814-0.557-1.714-0.558-2.637 0-3.686 3-6.643 6.643-6.643 2.186 0 4.071 1.007 5.315 2.571"/></svg>