<svg fill="#BAF3E6" role="img" viewBox="0 0 29 24" xmlns="http://www.w3.org/2000/svg"><title>Salla</title><path d="M22.637 13.706a1.506 1.506 0 0 0-0.96-0.658 1.506 1.506 0 0 0-1.144 0.214c-4.058 2.646-8.005 2.646-12.07 0a1.506 1.506 0 0 0-1.143-0.214 1.521 1.521 0 0 0-0.514 2.76c2.54 1.653 5.13 2.49 7.696 2.49 2.569 0 5.156-0.837 7.694-2.492a1.506 1.506 0 0 0 0.658-0.961 1.506 1.506 0 0 0-0.213-1.143z m6.052 3.345l-1.389-11.579a6.214 6.214 0 0 0-6.167-5.472H7.866a6.209 6.209 0 0 0-6.164 5.469l-1.388 11.582a6.208 6.208 0 0 0 6.164 6.949h16.044a6.212 6.212 0 0 0 6.164-6.949z m-3.807 2.846c-0.631 0.712-1.5 1.102-2.45 1.102H6.567c-0.95 0-1.822-0.391-2.45-1.102a3.237 3.237 0 0 1-0.801-2.562l1.372-11.452A3.278 3.278 0 0 1 7.939 2.999h13.121a3.279 3.279 0 0 1 3.252 2.884l1.372 11.451a3.226 3.226 0 0 1-0.802 2.563"/></svg>