<svg fill="#1428A0" role="img" viewBox="0 0 54 24" xmlns="http://www.w3.org/2000/svg"><title>Samsung Pay</title><path d="M15.199 24l1.375-3.342-2.685-6.226h1.613l1.82 4.411 1.729-4.411h1.584l-3.903 9.568Zm-5.551-2.885c-1.577 0-3.219-1.268-3.219-3.404 0-2.172 1.586-3.411 3.241-3.411 0.862 0 1.637 0.356 2.107 0.916v-0.784h1.509v6.549h-1.509v-0.851a2.722 2.722 0 0 1-2.129 0.985Zm-9.37-0.134v-8.167h2.802c1.691 0 2.941 1.294 2.941 2.908 0 1.622-1.252 2.923-2.952 2.922H1.804v2.34z m9.613-1.252c1.121 0 1.96-0.907 1.96-2.036 0-1.107-0.84-2.018-1.96-2.018a1.974 1.974 0 0 0-1.979 2.018c0 1.141 0.86 2.036 1.979 2.036zM1.804 17.23h1.158c0.909 0 1.528-0.668 1.528-1.508a1.47 1.47 0 0 0-1.526-1.498H1.804Zm1.241-9.052C1.61 8.178 0.266 7.666 0.266 5.962v-0.591h2.05l0.005 0.742c0 0.417 0.29 0.691 0.766 0.691 0.508 0 0.679-0.261 0.742-0.517a0.98 0.98 0 0 0-0.011-0.562C3.423 4.736 0.708 4.286 0.376 2.725a2.656 2.656 0 0 1-0.016-1.032c0.201-1.248 1.31-1.693 2.669-1.693 1.08 0 2.575 0.254 2.575 1.918v0.539h-1.902v-0.474c0-0.417-0.267-0.691-0.713-0.691-0.479 0-0.644 0.272-0.697 0.517a0.969 0.969 0 0 0 0.004 0.401c0.218 0.893 3.119 1.37 3.442 2.97 0.031 0.16 0.098 0.593 0.004 1.252-0.18 1.277-1.314 1.747-2.695 1.746z m24.848-0.04c-1.421 0-2.749-0.506-2.749-2.192V5.36h2.03v0.731c0 0.412 0.287 0.691 0.759 0.69 0.506 0 0.675-0.261 0.738-0.512a0.976 0.976 0 0 0-0.011-0.557c-0.39-0.98-3.079-1.428-3.407-2.976a2.598 2.598 0 0 1-0.017-1.021c0.201-1.234 1.303-1.678 2.646-1.677 1.069 0 2.546 0.256 2.547 1.905v0.534h-1.885v-0.472c0-0.412-0.258-0.684-0.702-0.684-0.472 0-0.644 0.267-0.697 0.512a0.969 0.969 0 0 0 0.011 0.393c0.214 0.887 3.085 1.359 3.406 2.94 0.033 0.163 0.098 0.59 0.007 1.243-0.18 1.263-1.305 1.729-2.673 1.729z m7.183-0.029c-1.404 0-2.535-0.468-2.669-1.893a6.22 6.22 0 0 1-0.018-0.497V0.236h1.932v5.654c0 0.098 0 0.207 0.017 0.29 0.038 0.189 0.205 0.552 0.738 0.552 0.53 0 0.693-0.363 0.73-0.552a1.6 1.6 0 0 0 0.018-0.29V0.236h1.932v5.483a6.55 6.55 0 0 1-0.018 0.499c-0.134 1.426-1.256 1.891-2.662 1.891z m15.942-0.082c-1.354 0-2.558-0.492-2.685-1.885a5.61 5.61 0 0 1-0.031-0.506V2.424c0-0.136 0.02-0.379 0.036-0.506 0.172-1.428 1.326-1.885 2.68-1.885 1.354 0 2.54 0.452 2.68 1.885 0.025 0.245 0.018 0.506 0.018 0.506v0.254h-1.925v-0.43s0-0.178-0.022-0.29c-0.036-0.167-0.183-0.557-0.769-0.557-0.555 0-0.717 0.37-0.757 0.557a1.818 1.818 0 0 0-0.032 0.361v3.491a1.983 1.983 0 0 0 0.018 0.29c0.036 0.205 0.232 0.557 0.784 0.557s0.742-0.352 0.778-0.557a1.608 1.608 0 0 0 0.018-0.29v-1.107h-0.784v-1.114H53.734v2.05c0 0.143-0.007 0.25-0.029 0.503-0.127 1.392-1.332 1.885-2.687 1.885z m-43.988-0.145l1.417-7.646h3.4l1.41 7.646h-2.054l-1.016-6.937-0.045 0.004-1.047 6.933Zm7.753 0L14.948 0.236h3.119l0.937 5.848h0.047l0.94-5.848h3.117l0.167 7.646h-1.909l-0.045-6.868H21.275l-1.277 6.868h-1.938L16.783 1.016h-0.04l-0.047 6.868Zm25.103-0.08V0.236h2.836l1.759 6h0.041l-0.105-6h1.896v7.566h-2.72l-1.892-6.209h-0.04l0.105 6.209z"/></svg>