<svg fill="#ED1C24" role="img" viewBox="0 0 124 24" xmlns="http://www.w3.org/2000/svg"><title>SanDisk</title><path d="M8.16 0C3.421 0 0.25 2.696 0.25 6.834c0 4.053 3.076 5.77 7.106 7.005 2.539 0.78 5.557 1.841 5.558 4.342 0 1.49-1.36 3.216-4.101 3.216-2.108 0-3.489-0.739-4.291-1.588-0.803-0.826-1.584-1.625-2.302-3.145-0.077-0.201-0.212-0.382-0.382-0.383H0.612c-0.17 0-0.302 0.133-0.301 0.372v4.614c0 0.185 0.107 0.445 0.291 0.552 2.354 1.382 5.467 1.907 8.03 1.9 4.554-0.023 8.101-3.054 8.101-7.91-0.031-5.218-4.81-5.884-8.624-7.196-3.327-1.142-4.02-2.107-4.019-3.457 0-1.459 1.358-2.935 4.261-2.935 1.011 0 2.077 0.337 3.065 0.955 0.617 0.378 1.255 1.009 1.98 2.251 0.077 0.131 0.249 0.231 0.342 0.231h1.045c0.154-0.015 0.211-0.116 0.211-0.301 0-0.749 0.021-2.761 0.021-3.95 0-0.208-0.138-0.365-0.363-0.443-1.976-0.656-3.899-0.964-6.492-0.964z m90.765 0.171s-0.332 0.265-0.332 0.844c0 0.579 0.332 0.895 0.332 0.895h2.201c0.262 0 0.372 0.134 0.372 0.411v18.986c0 0.278-0.131 0.412-0.332 0.411h-2.09s-0.332 0.304-0.332 0.845 0.332 0.895 0.332 0.895l9.085-0.021s0.241-0.377 0.242-0.894c0-0.509-0.241-0.824-0.242-0.824h-1.497c-0.185 0-0.352-0.153-0.352-0.392v-4.412c0.425-0.448 1.194-1.229 1.286-1.337 0.278-0.278 0.562-0.169 0.724 0.07 0.185 0.293 3.641 5.572 3.719 5.719 0.154 0.262 0.07 0.382-0.131 0.382l-1.086 0.02s-0.261 0.386-0.261 0.834c0 0.448 0.241 0.844 0.242 0.844l9.055 0.021s0.292-0.374 0.292-0.845c0-0.471-0.332-0.875-0.332-0.874s-0.246 0.01-0.563 0.01c-1.027 0-1.834-0.318-2.281-1.005-0.208-0.301-5.613-8.581-5.729-8.774 1.366-1.899 2.075-2.593 3.286-3.226 0.803-0.425 2.278-0.733 3.397-0.734 0.015 0 0.261-0.215 0.261-0.824 0-0.61-0.281-0.834-0.281-0.834h-5.427c-0.201 0-0.468 0.152-0.654 0.422-0.115 0.17-4.38 6.286-5.507 7.929v-13.94c0-0.34-0.209-0.603-0.603-0.602h-6.794z m-21.96 0.02c-0.224 0-0.358 0.146-0.412 0.331l-0.844 2.875c-0.116 0.332 0.054 0.603 0.331 0.603h4.342c0.247 0 0.426-0.111 0.473-0.311l1.005-3.106c0.077-0.262-0.095-0.392-0.342-0.392h-4.553z m-22.764 0.04s-0.453 0.291-0.453 0.955c0 0.818 0.453 1.005 0.453 1.005h3.367c4.886 0 7.95 3.262 7.95 9.669 0 6.908-3.03 9.909-8.402 9.909h-2.172c-0.34 0-0.595-0.41-0.603-0.603 0-1.289-0.01-9.381-0.01-10.06 0-3.327-2.282-5.156-5.979-5.156-2.485 0-4.253 1.114-5.257 3.005v-2.091c0-0.332-0.202-0.483-0.472-0.482H36.371s-0.412 0.357-0.411 1.005c0 0.695 0.412 0.955 0.411 0.955h1.397c0.37 0 0.764 0.407 0.764 0.854v11.98c0 0.247-0.344 0.563-0.583 0.563h-1.336l-0.623 1.719c4.068 0 8.924 0.01 8.924 0.01s0.311-0.288 0.312-0.905c0-0.579-0.302-0.824-0.302-0.824h-1.065c-0.316 0-0.553-0.27-0.553-0.533v-9.326c0.88-2.386 2.578-3.789 3.99-3.79 1.328 0 2.171 0.995 2.171 2.493 0 0.78-0.01 9.127-0.01 10.492 0 0.379-0.286 0.664-0.533 0.664h-1.266s-0.352 0.245-0.352 0.824c0 0.602 0.352 0.905 0.352 0.904h10.492c10.452 0 13.146-6.267 13.146-11.607 0.054-8.398-5.78-11.628-13.306-11.629h-3.789z m67.579 5.246c-0.525 0-0.971 0.188-1.357 0.543-0.409 0.378-0.613 0.858-0.613 1.437 0 0.556 0.2 1.019 0.562 1.397 0.379 0.378 0.849 0.562 1.397 0.563 0.54 0 1.009-0.182 1.388-0.553 0.394-0.378 0.593-0.854 0.592-1.417 0.008-0.517-0.195-0.998-0.572-1.377a1.883 1.883 0 0 0-1.397-0.593z m-95.419 0.282c-2.3 0-4.124 0.256-6 0.904-0.208 0.077-0.261 0.285-0.261 0.563 0 0.934-0.02 1.45-0.02 2.523 0 0.224 0.16 0.352 0.321 0.352h0.985c0.201 0 0.376-0.103 0.553-0.312 0.556-0.726 1.234-1.307 1.759-1.608 0.486-0.278 1.282-0.583 2.1-0.583 1.907 0 2.704 1.384 2.704 3.005v2.553c-7.187-0.425-10.131 1.705-10.131 5.085 0 3.867 2.67 5.487 5.287 5.488 2.386 0 4.16-0.91 5.156-2.292 0.208 1.212 0.92 2.03 1.869 2.03h3.749l0.613-1.708h-0.553c-1.135-0.116-1.263-0.789-1.286-1.538v-9.146c0-1.343-0.473-2.88-1.609-3.829-1.405-1.181-3.453-1.487-5.236-1.487z m95.439 0.09c0.448 0 0.829 0.166 1.146 0.482 0.316 0.332 0.472 0.698 0.472 1.146-0.015 0.448-0.166 0.832-0.483 1.156a1.559 1.559 0 0 1-1.146 0.472 1.559 1.559 0 0 1-1.145-0.472c-0.316-0.316-0.472-0.708-0.472-1.156s0.156-0.822 0.472-1.146c0.316-0.332 0.708-0.482 1.156-0.482z m-30.744 0.201c-2.949 0-6.141 1.681-6.141 5.317 0 3.103 2.52 4.79 4.673 5.377 3.674 0.988 4.724 1.518 4.724 3.085 0 1.358-1.07 2.171-2.915 2.171-1.852 0-3.587-1.365-4.613-3.789-0.154-0.247-0.262-0.342-0.432-0.342-0.509-0.015-1.029 0-1.176 0-0.147 0-0.302 0.072-0.301 0.312v3.568c0 0.278 0.382 0.583 0.381 0.583s1.063 0.656 2.252 1.065c0.988 0.34 2.204 0.603 3.909 0.603 4.33 0 6.392-2.695 6.392-5.829 0-2.864-1.598-4.613-5.226-5.477-3.489-0.841-4.201-1.456-4.201-2.684 0-1.042 0.909-2.151 2.724-2.151 1.806 0 3.489 1.071 4.261 2.322 0.108 0.17 0.249 0.241 0.473 0.241h0.854a0.237 0.237 0 0 0 0.241-0.221v-3.005c0-0.201-0.077-0.415-0.332-0.493-1.328-0.394-3.332-0.654-5.547-0.653z m-17.307 0.342s-0.402 0.376-0.402 0.955c0 0.594 0.402 0.975 0.402 0.975s1.567 0.01 1.698 0.01c0.132 0 0.232 0.091 0.231 0.261l-0.02 12.664c0 0.278-0.242 0.482-0.442 0.482h-1.94s-0.372 0.237-0.372 0.824c0 0.556 0.372 0.885 0.372 0.885h9.649s0.312-0.359 0.312-0.915c-0.015-0.525-0.332-0.784-0.332-0.784l-1.97 0.02c-0.301 0-0.463-0.195-0.463-0.473 0 0-0.02-13.832-0.02-14.241 0-0.409-0.142-0.664-0.613-0.663h-6.09z m47.156 0v2.181h0.563v-0.784h0.121l0.13 0.01c0.093 0 0.154 0.017 0.201 0.04 0.077 0.039 0.128 0.074 0.151 0.151a0.994 0.994 0 0 1 0.04 0.281c0 0.131 0.025 0.24 0.041 0.302h0.552l-0.01-0.071v-0.331c0-0.224-0.069-0.39-0.201-0.483a0.824 0.824 0 0 0-0.321-0.12 0.733 0.733 0 0 0 0.382-0.141c0.108-0.093 0.151-0.232 0.15-0.402 0-0.247-0.109-0.422-0.301-0.523-0.116-0.069-0.262-0.103-0.432-0.11h-1.066z m0.593 0.372h0.141a1.339 1.339 0 0 1 0.341 0.04c0.116 0.054 0.171 0.136 0.172 0.251-0.015 0.123-0.044 0.217-0.121 0.272-0.077 0.054-0.18 0.07-0.312 0.07h-0.221v-0.633zM28.522 15.035v4.181h-0.01c-0.726 0.95-1.922 1.759-3.196 1.759-1.66 0-2.583-0.816-2.583-2.653 0-2.123 1.011-3.287 5.789-3.287z"/></svg>