<svg fill="#BA0C2F" role="img" viewBox="0 0 50 24" xmlns="http://www.w3.org/2000/svg"><title>San Francisco Municipal Railway</title><path d="M34.605 19.69v-10.077s0-0.482-0.493-0.482c-0.468 0-0.468 0.482-0.468 0.482v13.884h-1.921V7.688s-0.046-2.399 2.391-2.399c2.397 0 2.397 2.397 2.397 2.397v8.64s0 3.364 3.36 3.364c3.358 0 3.358-3.364 3.358-3.364V0.459h1.921v19.231s0 4.31-5.281 4.31c-5.264 0-5.264-4.31-5.264-4.31m-11.522-3.341V0.459h1.923v13.951s-0.048 0.484 0.478 0.484c0.528 0 0.478-0.482 0.479-0.482v-13.95h1.918v15.864s0.198 2.405-2.397 2.406c-2.593 0-2.401-2.383-2.401-2.383m-17.268 2.383L5.811 9.611s0-0.482-0.478-0.482c-0.482 0-0.482 0.482-0.483 0.482v13.884h-1.917V7.688s0-2.399 2.4-2.399 2.399 2.397 2.399 2.397v8.64s0 3.364 3.353 3.364c3.364 0 3.364-3.364 3.364-3.364V7.688s-0.042-2.399 2.391-2.399c2.407 0 2.407 2.397 2.407 2.397v15.811H17.328v-13.884s0-0.482-0.492-0.482c-0.468 0-0.468 0.482-0.468 0.482v9.119s-0.062 5.268-5.285 5.268c-5.225 0-5.27-5.268-5.27-5.268m40.301-18.273H49.948V23.499h-3.832zM20.208 18.732V7.686s0-3.347-3.368-3.347c-3.351 0-3.351 3.347-3.351 3.347v8.64s0 2.405-2.404 2.406c-2.399 0-2.399-2.405-2.399-2.406V7.688s0-3.349-3.353-3.349c-3.36 0-3.36 3.347-3.36 3.347v15.811H0.052V5.289s0-5.287 5.281-5.287 5.281 5.287 5.28 5.287l0.021 9.189s-0.021 0.416 0.451 0.416c0.503 0 0.489-0.482 0.489-0.482V5.287s0-5.287 5.264-5.287c5.291 0 5.281 5.287 5.281 5.287l0.01 11.039s-0.156 3.362 3.353 3.362c3.514 0 3.356-3.364 3.356-3.364l0.004-11.039s0-5.283 5.27-5.283c5.274 0 5.274 5.285 5.275 5.285l0.016 9.123s-0.017 0.482 0.468 0.482c0.478 0 0.478-0.482 0.478-0.482v-13.951h1.921v15.865s0 2.405-2.399 2.406c-2.405 0-2.405-2.405-2.405-2.406V7.688s0-3.349-3.354-3.349c-3.349 0-3.349 3.347-3.349 3.347v11.046s0 5.268-5.281 5.268c-5.274 0-5.274-5.268-5.274-5.268Z"/></svg>