<svg fill="#0FAAFF" role="img" viewBox="0 0 49 24" xmlns="http://www.w3.org/2000/svg"><title>SAP</title><path d="M0.241 0v24h24.522L48.759 0z m6.599 4.464h0.01c1.745 0.002 3.871 0.495 5.409 1.279l-1.657 2.891c-1.688-0.817-2.537-0.894-3.498-0.944-1.431-0.077-2.151 0.435-2.161 0.987-0.014 0.671 1.352 1.28 2.639 1.694 1.949 0.619 4.427 1.445 4.805 3.841L15.949 4.797h4.136l4.172 11.272-0.014-11.27h4.791c4.563 0 6.708 1.544 6.708 5.093 0 3.184-2.204 5.082-5.935 5.082h-1.543l-0.02 4.233-7.253-0.006-0.506-1.836c-0.748 0.247-1.591 0.382-2.486 0.382-0.922 0-1.789-0.144-2.554-0.404l-0.723 1.858-4.043 0.012 0.182-0.934c-0.059 0.051-0.115 0.101-0.176 0.15-1.082 0.869-2.442 1.272-4.118 1.301l-0.431 0.005a10.259 10.259 0 0 1-5.218-1.365l1.476-2.927c1.597 0.944 2.6 1.156 3.954 1.128 0.701-0.014 1.209-0.142 1.539-0.483a1.126 1.126 0 0 0 0.315-0.746c0.014-0.76-1.071-1.118-2.395-1.529-1.073-0.332-2.294-0.786-3.247-1.486-1.13-0.829-1.668-1.868-1.642-3.335a4.023 4.023 0 0 1 1.145-2.784c1.049-1.086 2.743-1.745 4.777-1.744z m21.422 3.376v3.849h1.053c1.403 0 2.521-0.465 2.523-1.949 0-1.433-1.12-1.9-2.523-1.9z m-10.284 1.55l-1.512 4.775c0.451 0.172 0.972 0.269 1.531 0.269 0.542 0 1.051-0.095 1.5-0.255l-1.488-4.791z"/></svg>