<svg fill="#FFED00" role="img" viewBox="0 0 138 24" xmlns="http://www.w3.org/2000/svg"><title>Sartorius</title><path d="M122.738 14.858c0 3.499-1.661 6.141-5.34 6.141s-5.338-2.713-5.338-6.141V0.469h-3.37v14.385c0 4.706 2.943 9.146 8.708 9.146 5.633 0 8.652-4.44 8.653-9.146v-0.943h-3.313z m-22.006 8.673h3.37V0.469h-3.37Zm-30.526-23.029h-0.544v2.937h0.544c4.799 0 8.585 3.838 8.586 8.778 0 4.973-3.786 8.812-8.586 8.811s-8.591-3.838-8.591-8.811h-3.131c0 6.575 5.187 11.749 11.722 11.749s11.715-5.173 11.716-11.749c0-6.542-5.18-11.714-11.716-11.714m63.34 10.308c-1.637-0.735-3.603-1.108-5.036-1.71-1.569-0.669-2.142-1.578-2.142-3.082 0-1.805 1.5-3.177 3.785-3.176 3.001 0 4.401 1.472 4.468 3.611h3.034c0.102-3.344-2.318-6.454-7.502-6.454-4.262 0-7.099 2.643-7.099 5.986 0 2.837 1.324 4.452 3.438 5.588 1.637 0.869 3.353 1.071 4.957 1.672 2.343 0.867 3.054 2.062 3.054 3.755 0 2.318-1.593 3.797-4.219 3.797h-0.333v2.741h0.2c4.665 0 7.622-2.913 7.622-6.554 0.001-2.392-1.162-4.807-4.227-6.174m-36.71-3.064c0-4.172-2.995-7.276-7.318-7.276h-6.843v3.039h6.735c2.178 0 4.289 1.702 4.289 4.235 0 2.437-1.941 4.273-4.391 4.272h-3.553v3.038l2.676-0.026 4.479 8.504h3.71l-4.838-8.894c2.531-0.771 5.054-3.389 5.054-6.896ZM65.099 0.469H48.069v3.033h4.091v20.03h3.335v-20.03h9.604z m-41.905 0L14.377 23.532h3.27l7.283-19.092 7.522 19.092h3.507L26.666 0.469ZM3.397 16.361v-1.232H0.23v1.23c-0.102 3.737 2.408 7.178 8.092 7.179h0.204v-2.801h-0.204c-3.03 0-4.925-1.937-4.925-4.374z m8.091-5.51c-1.635-0.734-3.71-1.135-5.141-1.736-1.566-0.664-2.043-1.602-2.043-3.105 0-1.803 1.495-3.172 3.779-3.171 2.996 0 4.391 1.469 4.46 3.606h3.029c0.102-3.339-2.315-6.445-7.49-6.445-4.256 0-7.115 2.637-7.116 5.979 0 2.671 1.091 4.474 3.337 5.608 1.635 0.831 3.404 1.069 5.005 1.67 1.702 0.634 2.35 1.169 2.587 2.103h3.438c-0.475-1.97-1.803-3.57-3.845-4.507z m35.135-3.109c0-4.172-2.995-7.276-7.318-7.276h-6.969v3.037h6.861c2.178 0 4.289 1.702 4.288 4.236 0 2.437-1.94 4.272-4.39 4.272h-3.677v3.037l2.805-0.026 4.477 8.505h3.71l-4.835-8.895c2.525-0.765 5.048-3.381 5.048-6.889z"/></svg>