<svg fill="#EB680B" role="img" viewBox="0 0 42 24" xmlns="http://www.w3.org/2000/svg"><title>Saturn</title><path d="M33.26 11.059c0.002 0.026 0.038 0.425 0.053 0.709 0.01 0.197 0 0.505 0 0.522 0.005 0 0.051 0.04 0.052 0.042 2.487 2.038 5.125 4.819 5.58 6.861 0.127 0.566 0.098 1.076-0.126 1.512-0.265 0.51-0.765 0.876-1.452 1.111-3.563 1.219-12.06-1.118-18.995-4.543-4.955-2.449-9.303-5.366-12.246-8.219-2.734-2.652-3.474-4.719-2.769-5.968 0.27-0.472 0.731-0.822 1.351-1.06 2.262-0.883 6.597-0.265 10.866 1.008-2.02 1.508-3.427 3.542-4.079 5.576l-0.002 0.012a0.089 0.089 0 0 1-0.002 0.011c-0.2 1.863 2.497 4.302 5.225 5.66-0.003-0.01 0.146 0.056 0.146 0.045-0.003-0.01-0.026-0.19-0.029-0.197-0.637-4.632 2.87-11.564 6.556-13.084 0.237-0.098 0.442-0.157 0.471-0.165l-0.476-0.047c-0.129-0.01-0.258-0.023-0.397-0.026a12.999 12.999 0 0 0-0.474-0.018 11.221 11.221 0 0 0-5.921 1.554C9.47-0.09 4.254-0.378 2.072 0.35c-0.866 0.291-1.451 0.728-1.742 1.308-0.303 0.61-0.305 1.376-0.003 2.275 0.993 2.968 5.326 7.022 10.816 10.621 0.796 4.192 4.554 8.49 9.932 9.063l0.247 0.026a0.484 0.484 0 0 1 0.087 0 11.525 11.525 0 0 0-0.301-0.23c-1.663-1.282-3.157-3.394-3.669-5.224l0.322 0.162 0.249 0.121c8.681 4.293 17.79 6.478 21.821 5.133 0.904-0.303 1.567-0.728 1.872-1.338 0.291-0.583 0.242-1.358-0.05-2.225-0.759-2.264-4.012-5.719-8.142-8.799a8.713 8.713 0 0 0-0.252-0.186"/></svg>