<svg fill="#3DDC91" role="img" viewBox="0 0 25 24" xmlns="http://www.w3.org/2000/svg"><title>Sauce Labs</title><path d="M24.176 7.245c-0.576-0.783-1.5-1.246-2.486-1.245H14.541L12.499 12h4.941l-2.043 6H10.457l-2.042 6h9.191c1.319 0 2.49-0.826 2.907-2.051L24.597 9.95c0.311-0.915 0.155-1.921-0.421-2.704Zm-13.719 4.754H7.559l2.042-6h4.941l2.043-5.999H7.394c-1.319 0-2.49 0.826-2.907 2.051L0.403 14.05c-0.311 0.915-0.155 1.921 0.421 2.704 0.576 0.783 1.5 1.245 2.486 1.245h7.149l2.042-6H10.459z"/></svg>