<svg fill="#026938" role="img" viewBox="0 0 33 24" xmlns="http://www.w3.org/2000/svg"><title>Saudia</title><path d="M20.273 2.515c1.295 0.302 2.157 0.97 2.158 0.97s-0.773-1.217-2.044-1.777c-0.944-0.417-1.869-0.422-2.594-0.313 0.058-0.116 0.132-0.221 0.227-0.308 0.223-0.205 0.473-0.323 0.474-0.323s-0.537-0.135-1.003 0.04c-0.241 0.091-0.43 0.223-0.573 0.349a3.847 3.847 0 0 0-0.077-0.41c-0.055-0.224-0.319-0.703-0.341-0.743-0.023 0.041-0.286 0.52-0.342 0.743a3.919 3.919 0 0 0-0.076 0.41c-0.143-0.126-0.332-0.258-0.573-0.349-0.466-0.175-1.003-0.04-1.003-0.04s0.251 0.118 0.473 0.323c0.095 0.087 0.169 0.192 0.228 0.308-0.725-0.109-1.65-0.104-2.594 0.313-1.271 0.56-2.044 1.777-2.044 1.777s0.862-0.668 2.157-0.97c0.638-0.148 1.23-0.143 1.735-0.076-0.81 0.176-1.945 0.598-2.782 1.664-0.729 0.928-0.915 2.225-0.915 2.225s0.591-0.758 1.587-1.603a7.312 7.312 0 0 1 1.653-1.057c-0.62 0.589-0.928 1.492-1.052 1.834-0.378 1.043-0.136 2.202-0.135 2.203s0.159-0.757 0.74-1.742c0.414-0.702 0.947-1.234 1.393-1.601-0.534 1.981 0.017 3.931 0.017 3.931s0.335-1.501 0.838-2.774c0.214-0.542 0.46-0.951 0.695-1.257 0.235 0.306 0.481 0.716 0.695 1.257 0.503 1.273 0.838 2.774 0.838 2.774s0.552-1.95 0.017-3.931c0.447 0.366 0.98 0.898 1.393 1.601 0.581 0.985 0.74 1.742 0.74 1.742s0.242-1.159-0.135-2.203c-0.124-0.342-0.431-1.246-1.052-1.834a7.317 7.317 0 0 1 1.653 1.057c0.996 0.845 1.587 1.603 1.587 1.603s-0.187-1.298-0.915-2.225c-0.837-1.066-1.972-1.488-2.783-1.664 0.505-0.067 1.097-0.072 1.735 0.076zM15.484 9.26L0.242 6.204c-0.121-0.024-0.203 0.12-0.12 0.212l4.838 5.347c1.48-0.262 2.974-0.275 4.443 0.046 2.2 0.481 4.251 1.453 6.267 2.431z m-4.111 9.586l-0.873-0.967c0.59-0.326 1.178-0.656 1.761-0.993 0.977-0.564 1.937-1.164 2.917-1.727-2.289-1.314-4.031-2.132-5.507-2.637-1.489-0.587-3.124-0.705-4.711-0.759l5.532 6.112c-0.025 0.019-0.209 0.155-0.516 0.337-1.831 1.084-2.943 1.234-4.43 1.344 1.37 0.286 1.949 0.661 3.955 0.209 0.705-0.159 1.837-0.888 1.875-0.912l4.658 5.147-0.294-7.875c-1.141 0.685-2.269 1.39-3.394 2.104m5.17-8.969l-0.186 4.981c2.015-0.978 4.066-1.95 6.267-2.432 1.469-0.321 2.963-0.309 4.443-0.046l4.838-5.347c0.083-0.091 0.001-0.236-0.119-0.212m-4.719 5.559l-5.532 6.112c0.025 0.019 0.209 0.155 0.516 0.337 1.831 1.084 2.943 1.235 4.431 1.344-1.37 0.286-1.949 0.661-3.956 0.209-0.705-0.159-1.837-0.888-1.875-0.913l-4.658 5.148 0.294-7.875c1.471 0.881 2.919 1.802 4.367 2.721l0.873-0.967a109.611 109.611 0 0 1-1.761-0.993c-0.977-0.564-1.937-1.164-2.917-1.727 2.665-1.516 4.173-2.18 5.507-2.637 1.489-0.588 3.124-0.705 4.711-0.759"/></svg>