<svg fill="#041E42" role="img" viewBox="0 0 26 24" xmlns="http://www.w3.org/2000/svg"><title>Scania</title><path d="M13 0c-2.281 0-4.489 0.702-6.336 1.987a34.494 34.494 0 0 1-2.281-0.505A12.908 12.908 0 0 0 0.368 8.437a34.475 34.475 0 0 1 1.579 1.722c-0.39 4.622 2.137 8.999 6.335 10.972 0.26 0.736 0.495 1.478 0.703 2.229a12.912 12.912 0 0 0 8.031 0c0.207-0.751 0.442-1.494 0.702-2.23 4.198-1.972 6.725-6.348 6.335-10.97 0.507-0.593 1.034-1.168 1.579-1.722a12.907 12.907 0 0 0-4.015-6.957c-0.754 0.195-1.515 0.363-2.281 0.506A11.09 11.09 0 0 0 13 0z m0 0.676c1.901 0 3.75 0.52 5.354 1.481a34.448 34.448 0 0 1-10.708 0A10.417 10.417 0 0 1 13 0.676zM4.572 2.226c0.454 0.113 0.911 0.215 1.37 0.309a11.092 11.092 0 0 0-3.881 6.723c-0.311-0.349-0.628-0.694-0.952-1.031a12.231 12.231 0 0 1 3.463-6.001z m16.856 0a12.232 12.232 0 0 1 3.463 6.001c-0.323 0.338-0.641 0.682-0.952 1.031a11.092 11.092 0 0 0-3.881-6.723c0.459-0.094 0.916-0.196 1.37-0.309z m-14.604 0.478a35.11 35.11 0 0 0 12.352 0 10.406 10.406 0 0 1 4.175 7.235 35.109 35.109 0 0 0-6.175 10.695 10.411 10.411 0 0 1-8.353 0 35.124 35.124 0 0 0-6.175-10.695 10.416 10.416 0 0 1 4.176-7.235z m6.335 0.913a0.697 0.697 0 0 0-0.472 1.192 0.686 0.686 0 0 0-1.022 0.603 0.686 0.686 0 0 0 1.084 0.563c-0.254 0.425-0.638 0.994-1.189 0.994-0.576 0-0.854-0.24-1.107-0.667a0.577 0.577 0 0 0 0.334-0.022c0.333-0.111 0.519-0.445 0.426-0.866-0.083-0.373-0.48-0.579-0.842-0.474a0.671 0.671 0 0 0-0.306 0.19 0.735 0.735 0 0 0 0.068-0.547c-0.103-0.367-0.539-0.661-0.919-0.604l1.489 3.658c-0.077 0.082-0.189 0.206-0.269 0.346-0.318-0.161-0.957-0.399-1.594-0.142a1.635 1.635 0 0 0-0.55 0.368c-0.474 0.474-0.712 1.263-0.834 1.822a8.769 8.769 0 0 0-0.085 0.437c0.198-0.148 0.326-0.242 0.447-0.322 0.107-0.072 0.211-0.131 0.353-0.205 0.26-0.134 0.614-0.278 0.933-0.278 0.172 0 0.365 0.045 0.497 0.156 0.047 0.039 0.426 0.572 1.173 0.768 0.701 0.184 0.716 0.302 0.726 0.397 0 0-0.122 0.2-0.386 0.384a2.826 2.826 0 0 0-0.365-0.469c-0.348-0.364-0.907-0.56-1.364-0.557-0.435 0.004-0.756 0.202-1.606 0.203-0.863 0-1.463-0.218-1.906-0.478-0.318-0.173-0.547-0.389-0.761-0.564 0.114 0.277 0.224 0.497 0.324 0.721 0.074 0.159 0.344 0.702 0.682 0.996 0.435 0.368 0.865 0.489 1.288 0.49 0.429 0 0.853-0.125 1.27-0.249 0.411-0.122 0.806-0.24 1.202-0.24 0.513 0 0.792 0.172 1.015 0.31a6.522 6.522 0 0 1-0.237 0.158c-0.316 0.201-0.567 0.276-0.812 0.276-0.301 0-0.843-0.158-1.316-0.348a1.302 1.302 0 0 0-0.006 0.108v0.122c0 0.266 0.043 0.586 0.343 0.895 0.129 0.132 0.289 0.234 0.478 0.305 0.197 0.074 0.428 0.111 0.68 0.123-0.115 0.105-0.222 0.204-0.326 0.333-0.253 0.312-0.458 0.728-0.458 1.265 0 0.276 0.048 0.506 0.117 0.727 0.049 0.157 0.098 0.299 0.165 0.469l0.223-0.269c0.004-0.004 0.248-0.293 0.584-0.537a3.137 3.137 0 0 0-0.343 1.395c0 1.065 0.593 1.931 1.402 2.611 0 0 0.193 0.172 0.329 0.277-0.003-0.171 0-0.281 0-0.43 0-0.519 0.084-1.524 0.426-2.131 0.037 0.142 0.079 0.352 0.116 0.587 0.047 0.314 0.085 0.675 0.085 0.989 0 0.522-0.076 0.908-0.164 1.187-0.103 0.32-0.189 0.442-0.269 0.576a3.516 3.516 0 0 0 0.929-0.095 2.421 2.421 0 0 0 1.811-1.637c0.095-0.298 0.143-0.627 0.143-0.99 0-0.208-0.019-0.424-0.049-0.634l-0.025-0.169c0.058 0.046 0.098 0.089 0.147 0.146 0.189 0.218 0.361 0.552 0.361 1.09 0 0.184-0.011 0.468-0.088 0.789 0.183-0.061 0.369-0.172 0.547-0.285 0.215-0.137 0.418-0.299 0.603-0.484 0.505-0.505 0.854-1.176 0.861-1.942 0.005-0.5-0.101-0.9-0.337-1.367-0.025-0.051-0.055-0.102-0.081-0.154 0.055 0.023 0.106 0.053 0.154 0.084 0.268 0.173 0.442 0.446 0.558 0.756 0.069 0.186 0.12 0.368 0.155 0.583 0.078-0.095 0.171-0.223 0.276-0.405 0.212-0.366 0.436-0.93 0.436-1.734 0-0.395-0.052-0.848-0.232-1.321a3.035 3.035 0 0 0-0.895-1.265c0.278 0.03 0.538 0.154 0.737 0.35 0.132 0.133 0.235 0.295 0.33 0.476l0.1 0.2c0.009-0.098 0.008-0.129 0.01-0.215-0.021-1.422-0.418-2.463-1.711-3.135l-0.008-0.004c0.453-0.514 0.672-1.093 0.824-1.716-0.312-0.079-0.887-0.145-1.761 0.263l1.39-3.425c-0.381-0.057-0.816 0.237-0.919 0.604a0.732 0.732 0 0 0 0.068 0.547 0.676 0.676 0 0 0-0.307-0.191c-0.361-0.105-0.758 0.102-0.842 0.475-0.093 0.421 0.094 0.756 0.426 0.865 0.141 0.042 0.186 0.047 0.335 0.022-0.254 0.426-0.52 0.662-1.096 0.662-0.552 0-0.939-0.563-1.193-0.989 0 0 0.259 0.128 0.406 0.128a0.685 0.685 0 0 0 0.679-0.691 0.686 0.686 0 0 0-0.679-0.693 0.667 0.667 0 0 0-0.348 0.098 0.731 0.731 0 0 0 0.213-0.506 0.685 0.685 0 0 0-0.679-0.693z m3.798 3.774h0.155l-0.05 0.147c-0.159 0.471-0.662 1.596-1.897 1.873l0.006 0.023 0.052 0.26c0.523-0.097 0.86-0.319 1.166-0.584 0.781 0.38 1.307 1.012 1.494 1.852l0.036 0.166a0.703 0.703 0 0 0-0.12-0.106 1.416 1.416 0 0 0-0.757-0.204c-0.276 0-0.515 0.066-0.633 0.108 0.196 0.167 0.355 0.313 0.495 0.453 0.432 0.433 0.713 0.845 0.881 1.3 0.126 0.343 0.189 0.705 0.19 1.104 0 0.424-0.076 0.813-0.224 1.155-0.012 0.027-0.042 0.097-0.055 0.134a0.743 0.743 0 0 0-0.046-0.133c-0.359-0.758-0.958-0.918-1.398-0.917-0.074 0-0.137 0.004-0.194 0.008l0.006 0.01c0.293 0.451 0.735 1.132 0.735 1.969 0 0.274-0.051 0.543-0.149 0.799a2.526 2.526 0 0 1-0.579 0.874c-0.124 0.123-0.234 0.225-0.418 0.35l-0.106 0.075a0.489 0.489 0 0 0 0.022-0.126c0.025-0.944-0.5-1.695-1.339-1.924l0.018 0.08c0.092 0.372 0.196 0.792 0.196 1.36 0 0.614-0.153 1.122-0.452 1.512a2.057 2.057 0 0 1-0.725 0.585 2.347 2.347 0 0 1-0.686 0.231l-0.115 0.019c0.012-0.015 0.036-0.066 0.048-0.092a1.147 1.147 0 0 0 0.057-0.169c0.131-0.479 0.134-1.054 0.133-1.126 0-0.89-0.221-1.703-0.353-2.189l-0.028-0.103c-0.105 0.078-0.175 0.147-0.222 0.196l-0.021 0.022c-0.277 0.277-0.479 0.761-0.6 1.439-0.037 0.207-0.055 0.381-0.074 0.565l-0.013 0.205-0.004 0.128s-0.076-0.084-0.094-0.104a4.888 4.888 0 0 1-0.198-0.214 3.376 3.376 0 0 1-0.509-0.748 2.626 2.626 0 0 1-0.186-0.507 2.423 2.423 0 0 1-0.074-0.591c0-1.118 0.675-1.867 0.967-2.166l-0.095 0.017a3.484 3.484 0 0 0-0.343 0.084 2.286 2.286 0 0 0-0.575 0.265 3.338 3.338 0 0 0-0.635 0.54s-0.019-0.087-0.022-0.112a2.651 2.651 0 0 1-0.042-0.412c0-0.464 0.177-0.877 0.526-1.224 0.328-0.329 0.58-0.435 1.332-0.75l0.229-0.095-0.33 0.045c-0.461 0.065-0.672 0.095-1.062 0.095-0.553 0-0.934-0.113-1.164-0.345a0.79 0.79 0 0 1-0.13-0.166 1.631 1.631 0 0 1-0.123-0.256l0.286 0.104c0.057 0.018 0.123 0.038 0.179 0.053a2 2 0 0 0 0.516 0.074c0.467 0 0.846-0.204 1.305-0.535 0.192-0.137 0.354-0.272 0.48-0.398 0.192-0.192 0.233-0.295 0.234-0.313-0.008-0.283-0.017-0.551-1.001-0.808a1.876 1.876 0 0 1-0.961-0.621 0.855 0.855 0 0 0-0.066-0.072 1.101 1.101 0 0 0-0.718-0.241c-0.206 0-0.431 0.045-0.686 0.139a5.047 5.047 0 0 0-0.415 0.175l-0.114 0.053 0.038-0.119c0.042-0.139 0.089-0.265 0.151-0.412 0.053-0.124 0.105-0.232 0.165-0.33 0.194-0.326 0.434-0.549 0.711-0.663 0.145-0.059 0.303-0.088 0.471-0.088 0.405 0 0.771 0.176 0.921 0.26 0.011 0.747 0.461 1.179 0.979 1.179a0.901 0.901 0 0 0 0.677-0.29c0.127-0.128 0.206-0.272 0.256-0.385 0.041-0.092 0.071-0.158 0.074-0.21l0.005 0.001a0.522 0.522 0 0 1 0.223 0.139l0.248-0.221a1.177 1.177 0 0 0-0.422-0.278 1.499 1.499 0 0 0-0.489-0.103 1.768 1.768 0 0 0-0.379 0.027c-0.129 0.021-0.234 0.051-0.416 0.05a0.729 0.729 0 0 1-0.377-0.094 1.821 1.821 0 0 1 0.552-0.563l0.007-0.005h4.018l0.078 0.003a3.46 3.46 0 0 0-0.787 0.69l0.227 0.179c0.524-0.655 1.339-1.063 2.126-1.063v0.001z m-0.481 0.52c-0.654 0.084-1.244 0.668-1.244 0.668l0.133 0.284c0.308-0.065 0.548-0.232 0.727-0.409 0.261-0.261 0.365-0.46 0.384-0.543z m-5.834 0.571l0.145 0.04c0.058 0.017 0.139 0.034 0.218 0.045l0.038 0.006 0.007 0.037a0.284 0.284 0 0 0 0.076 0.151 0.318 0.318 0 0 0 0.453 0 0.313 0.313 0 0 0 0.093-0.206l0.002-0.05 0.049-0.003a2.74 2.74 0 0 1 0.232 0l0.123 0.009-0.019 0.074a0.897 0.897 0 0 1-0.24 0.447 0.641 0.641 0 0 1-0.494 0.202 0.608 0.608 0 0 1-0.431-0.184 0.853 0.853 0 0 1-0.231-0.453l-0.021-0.115z m4.751 1.569l-0.14 0.438c0.089 0.103 0.156 0.2 0.21 0.281 0.154 0.225 0.251 0.432 0.306 0.646 0.053 0.211 0.059 0.413 0.058 0.6 0 0.149-0.016 0.3-0.048 0.448-0.023 0.106-0.056 0.221-0.083 0.308-0.025 0.084-0.083 0.238-0.083 0.238s-0.008-0.174-0.024-0.268-0.031-0.196-0.056-0.278a1.513 1.513 0 0 0-0.372-0.636 1.484 1.484 0 0 0-0.368-0.267 1.917 1.917 0 0 0-0.299-0.124c0.023 0.087 0.047 0.182 0.073 0.295 0.067 0.291 0.098 0.531 0.098 0.754 0 0.355-0.079 0.655-0.244 0.917a1.393 1.393 0 0 1-0.197 0.246 2.146 2.146 0 0 1-0.406 0.333c0.038-0.063 0.068-0.128 0.105-0.204 0.044-0.092 0.072-0.189 0.092-0.261 0.196-0.692-0.127-1.119-0.39-1.381a2.504 2.504 0 0 0-0.108-0.103c-0.004 0.097-0.008 0.194-0.015 0.292-0.023 0.335-0.084 0.716-0.368 0.998a2.044 2.044 0 0 1-0.147 0.136c-0.055 0.044-0.117 0.097-0.2 0.148 0.035-0.067 0.063-0.101 0.116-0.23a1.021 1.021 0 0 0-0.03-0.821l-0.358 0.193c0.011 0.026 0.018 0.055 0.025 0.08a0.747 0.747 0 0 1-0.091 0.607c-0.053 0.084-0.121 0.168-0.214 0.263-0.083 0.081-0.171 0.16-0.248 0.23l-0.164 0.148 0.146-0.001c0.158-0.002 0.368-0.011 0.593-0.049 0.358-0.065 0.637-0.202 0.856-0.421a1.411 1.411 0 0 0 0.229-0.302c-0.011 0.116-0.039 0.234-0.088 0.358a2.384 2.384 0 0 1-0.252 0.458c-0.068 0.1-0.145 0.211-0.244 0.332l-0.09 0.111 0.141-0.021c0.171-0.024 0.34-0.059 0.505-0.104a1.834 1.834 0 0 0 1.135-0.818c0.105-0.166 0.181-0.34 0.229-0.53a2.474 2.474 0 0 0 0.07-0.733c0.032 0.055 0.06 0.115 0.087 0.181 0.057 0.143 0.095 0.305 0.116 0.495 0.011 0.118 0.017 0.247 0.017 0.405v0.032c0 0.152 0 0.296-0.012 0.459l-0.011 0.16 0.108-0.118c0.141-0.155 0.294-0.332 0.449-0.579a2.677 2.677 0 0 0 0.35-2.082 2.432 2.432 0 0 0-0.378-0.8 3.316 3.316 0 0 0-0.367-0.439l-0.019-0.02z m-3.448 0.174a0.526 0.526 0 0 0-0.226 0.051c0.287 0.031 0.359 0.119 0.491 0.251 0.069 0.071 0.136 0.145 0.205 0.214 0.126 0.126 0.243 0.231 0.459 0.231a0.645 0.645 0 0 0 0.165-0.023 1.033 1.033 0 0 0 0.321-0.149 0.556 0.556 0 0 1-0.214 0.044c-0.538 0-0.698-0.619-1.2-0.619h-0.001z m-6.137 0.105c0.063 0.04 0.196 0.134 0.384 0.21 0.176 0.074 0.361 0.142 0.579 0.194 0.293 0.068 0.617 0.102 0.99 0.102 0.343 0 0.755-0.055 1.223-0.161 0.151-0.034 0.307-0.065 0.435-0.065 0.226 0 0.446 0.037 0.608 0.122 0.161 0.086 0.275 0.179 0.416 0.294a2.853 2.853 0 0 0-0.505-0.075c-0.151-0.011-0.358 0.003-0.49 0.023-0.295 0.043-0.553 0.12-0.824 0.2l-0.032 0.011c-0.411 0.121-0.799 0.236-1.182 0.235-0.444 0-0.845-0.165-1.159-0.479-0.068-0.068-0.18-0.179-0.254-0.284a2.099 2.099 0 0 1-0.189-0.326v-0.001z m-3.222 0.597a34.416 34.416 0 0 1 5.352 9.268 10.416 10.416 0 0 1-5.354-9.102c0-0.057 0-0.112 0.002-0.166z m20.828 0l0.002 0.165a10.416 10.416 0 0 1-5.354 9.103 34.385 34.385 0 0 1 5.353-9.268h-0.001zM9.119 21.482a11.09 11.09 0 0 0 7.763 0c-0.147 0.445-0.287 0.892-0.417 1.341a12.228 12.228 0 0 1-6.929 0 34.973 34.973 0 0 0-0.418-1.34l0.001-0.001z"/></svg>