<svg fill="#3DCD58" role="img" viewBox="0 0 25 24" xmlns="http://www.w3.org/2000/svg"><title>Schneider Electric</title><path d="M17.356 0.001c-3.655-0.05-8.005 1.725-11.589 5.154-0.893 0.852-1.65 1.771-2.341 2.713h3.123L5.823 9.936H2.093c-0.355 0.653-0.69 1.3-0.946 1.957h4.422l-0.706 2.07H0.515c-0.743 3.161-0.269 6.112 1.601 7.985 3.635 3.632 11.304 2.353 17.034-3.13 1.003-0.955 1.831-1.983 2.578-3.039h-4.01l0.612-2.066h4.69c0.343-0.657 0.66-1.308 0.906-1.965h-5.125l0.569-2.064h5.186c0.64-2.995 0.136-5.77-1.682-7.587C21.494 0.717 19.55 0.029 17.356 0Zm-1.072 4.84h5.101l-0.651 3.016h-3.082c-0.332 0-0.472 0.055-0.608 0.207-0.051 0.06-0.072 0.118-0.092 0.236l-1.683 6.386c-0.395 2.237-3.147 4.475-6.73 4.475H3.555l0.865-3.283h3.202a1.01 1.01 0 0 0 0.796-0.356c0.078-0.092 0.182-0.238 0.195-0.387L9.942 9.557c0.391-2.24 2.758-4.715 6.342-4.715Z"/></svg>