<svg fill="#F7931E" role="img" viewBox="0 0 45 24" xmlns="http://www.w3.org/2000/svg"><title>scikit-learn</title><path d="M29.177 0.002c-3.542 0.065-7.382 1.687-10.439 4.747-5.433 5.433-3.862 15.817-2.018 17.662 1.493 1.491 12.229 3.417 17.664-2.017a18.061 18.061 0 0 0 1.083-1.192c0.08-0.541 0.38-1.224 0.907-2.051a3.427 3.427 0 0 1-0.996 0.326c-0.267 0.491-0.686 1.02-1.254 1.586-0.656 0.621-1.126 1.027-1.409 1.216a1.474 1.474 0 0 1-0.81 0.282c-0.649 0-0.953-0.571-0.916-1.714-0.408 0.586-0.788 1.018-1.135 1.299a1.695 1.695 0 0 1-1.072 0.415c-0.36 0-0.668-0.167-0.919-0.506a1.91 1.91 0 0 1-0.358-0.94 7.447 7.447 0 0 1-1.347 1.081c-0.415 0.245-0.872 0.365-1.372 0.365-0.556 0-1.007-0.178-1.348-0.534a1.814 1.814 0 0 1-0.476-0.972v0.008c-0.556 0.512-1.046 0.89-1.465 1.133a2.401 2.401 0 0 1-1.204 0.365 1.285 1.285 0 0 1-1.059-0.51c-0.269-0.339-0.404-0.797-0.404-1.37 0-0.86 0.187-1.891 0.56-3.097 0.373-1.205 0.825-2.318 1.359-3.332l1.562-0.579a0.389 0.389 0 0 1 0.111-0.024c0.117 0 0.215 0.087 0.291 0.26 0.074 0.176 0.113 0.41 0.113 0.704 0 0.836-0.193 1.647-0.578 2.429-0.384 0.783-0.986 1.619-1.806 2.507-0.033 0.426-0.05 0.719-0.05 0.879 0 0.358 0.067 0.64 0.196 0.85 0.132 0.21 0.306 0.313 0.523 0.313a1.317 1.317 0 0 0 0.708-0.241c0.245-0.156 0.617-0.482 1.117-0.97 0.052-0.775 0.347-1.48 0.893-2.117 0.601-0.705 1.27-1.055 2.003-1.055 0.382 0 0.686 0.1 0.916 0.296a0.972 0.972 0 0 1 0.345 0.773c0 0.849-0.901 1.537-2.705 2.066 0.163 0.797 0.593 1.198 1.285 1.198a1.496 1.496 0 0 0 0.773-0.217c0.239-0.141 0.595-0.451 1.066-0.922 0.059-0.467 0.219-0.918 0.48-1.349 0.337-0.556 0.771-1.009 1.3-1.354 0.528-0.343 0.996-0.515 1.402-0.516 0.512 0 0.872 0.235 1.076 0.707l1.255-0.694h0.345l-0.542 1.801c-0.278 0.905-0.419 1.526-0.419 1.862 0 0.352 0.124 0.528 0.375 0.528 0.159 0 0.336-0.083 0.528-0.254 0.193-0.171 0.464-0.43 0.811-0.779v0.002c0.265-0.287 0.508-0.593 0.726-0.916-0.352-0.156-0.528-0.389-0.528-0.695 0-0.315 0.108-0.653 0.323-1.011 0.215-0.36 0.51-0.538 0.888-0.538 0.319 0 0.478 0.163 0.478 0.492 0 0.258-0.093 0.627-0.276 1.105 0.681-0.074 1.274-0.593 1.782-1.561l0.423-0.019c1.964-4.521 1.535-9.411-1.539-12.483-1.89-1.891-4.465-2.781-7.223-2.728z m8.762 15.211a16.574 16.574 0 0 1-2.472 3.989 2.021 2.021 0 0 0-0.022 0.272c0 0.312 0.087 0.573 0.259 0.785 0.171 0.21 0.382 0.315 0.631 0.315 0.549 0 1.324-0.49 2.325-1.459-0.002 0.074-0.006 0.148-0.005 0.224 0 0.271 0.022 0.682 0.066 1.235l1.359-0.319c0-0.371 0.006-0.662 0.019-0.879 0.019-0.291 0.061-0.612 0.122-0.959 0.037-0.204 0.13-0.401 0.282-0.584l0.345-0.4a9.783 9.783 0 0 1 0.701-0.736c0.115-0.102 0.215-0.184 0.3-0.242a0.482 0.482 0 0 1 0.229-0.085c0.102 0 0.154 0.065 0.153 0.197 0 0.13-0.096 0.438-0.289 0.921-0.36 0.901-0.541 1.572-0.541 2.01 0 0.325 0.085 0.582 0.252 0.775a0.834 0.834 0 0 0 0.664 0.288c0.677 0 1.489-0.499 2.434-1.498v-0.707c-0.669 0.79-1.155 1.187-1.453 1.187-0.202 0-0.302-0.124-0.303-0.371 0-0.185 0.121-0.586 0.362-1.205 0.352-0.901 0.528-1.55 0.528-1.944a0.86 0.86 0 0 0-0.207-0.591 0.668 0.668 0 0 0-0.523-0.236c-0.306 0-0.656 0.143-1.052 0.432-0.395 0.289-0.927 0.808-1.6 1.558 0.098-0.486 0.306-1.153 0.621-2.003l-1.5 0.29a12.127 12.127 0 0 0-0.74 1.991c-0.074 0.289-0.13 0.586-0.17 0.89a13.809 13.809 0 0 1-0.909 0.835 0.705 0.705 0 0 1-0.424 0.148 0.386 0.386 0 0 1-0.323-0.152 0.653 0.653 0 0 1-0.119-0.412c0-0.185 0.035-0.397 0.104-0.636 0.07-0.241 0.223-0.692 0.462-1.355l0.571-1.574z m-31.913-5.427c-1.6-0.03-3.097 0.488-4.192 1.583-2.507 2.507-1.984 7.096 1.17 10.249 3.152 3.154 9.179 2.244 10.249 1.172 0.866-0.864 1.984-7.096-1.171-10.249-1.775-1.775-4.002-2.717-6.058-2.755z m22.78 0.663h0.308v0.39H28.804z m0.792 0h0.308v1.604l0.853-0.843h0.362l-0.675 0.671 0.793 1.268h-0.367l-0.662-1.066-0.304 0.308v0.76h-0.308z m1.884 0h0.308v0.39h-0.308z m0.892 0.227h0.308v0.534h0.319v0.25h-0.319v1.33c0 0.069 0.011 0.115 0.037 0.139 0.022 0.024 0.069 0.037 0.137 0.037a0.426 0.426 0 0 0 0.145-0.019v0.262a1.487 1.487 0 0 1-0.252 0.026 0.426 0.426 0 0 1-0.279-0.08 0.278 0.278 0 0 1-0.096-0.228v-1.465h-0.261v-0.252h0.261z m-6.605 0.478c0.15 0 0.278 0.022 0.384 0.07 0.106 0.045 0.185 0.113 0.241 0.204s0.083 0.197 0.083 0.321h-0.326c-0.011-0.206-0.139-0.31-0.386-0.309a0.528 0.528 0 0 0-0.304 0.076 0.248 0.248 0 0 0-0.111 0.217c0 0.065 0.028 0.121 0.083 0.163 0.056 0.045 0.148 0.082 0.279 0.111l0.296 0.072a0.872 0.872 0 0 1 0.416 0.195c0.087 0.085 0.13 0.2 0.129 0.345a0.556 0.556 0 0 1-0.096 0.324 0.606 0.606 0 0 1-0.282 0.216 1.085 1.085 0 0 1-0.419 0.076c-0.252 0-0.445-0.056-0.573-0.164-0.128-0.109-0.195-0.276-0.202-0.498h0.326c0.007 0.069 0.019 0.121 0.032 0.155a0.308 0.308 0 0 0 0.063 0.1c0.082 0.08 0.208 0.121 0.378 0.121a0.575 0.575 0 0 0 0.328-0.083 0.258 0.258 0 0 0 0.125-0.221 0.215 0.215 0 0 0-0.071-0.167 0.532 0.532 0 0 0-0.23-0.102l-0.289-0.07a2.314 2.314 0 0 1-0.295-0.093 0.666 0.666 0 0 1-0.182-0.113 0.408 0.408 0 0 1-0.107-0.154 0.593 0.593 0 0 1-0.03-0.2c0-0.178 0.067-0.323 0.202-0.431a0.834 0.834 0 0 1 0.538-0.161z m1.919 0a0.853 0.853 0 0 1 0.375 0.08 0.651 0.651 0 0 1 0.347 0.393 1.07 1.07 0 0 1 0.042 0.234h-0.311a0.475 0.475 0 0 0-0.145-0.312 0.449 0.449 0 0 0-0.315-0.111 0.46 0.46 0 0 0-0.288 0.092 0.567 0.567 0 0 0-0.185 0.267 1.228 1.228 0 0 0-0.063 0.416 1.075 1.075 0 0 0 0.065 0.397 0.554 0.554 0 0 0 0.187 0.25 0.484 0.484 0 0 0 0.291 0.089c0.263 0 0.421-0.156 0.475-0.467h0.31a0.962 0.962 0 0 1-0.121 0.408 0.649 0.649 0 0 1-0.271 0.256 0.86 0.86 0 0 1-0.4 0.089 0.831 0.831 0 0 1-0.456-0.123 0.818 0.818 0 0 1-0.299-0.356 1.304 1.304 0 0 1-0.106-0.543c0-0.158 0.019-0.302 0.06-0.432a0.968 0.968 0 0 1 0.176-0.338 0.747 0.747 0 0 1 0.278-0.217 0.84 0.84 0 0 1 0.354-0.074z m1.118 0.056h0.308v1.939H28.804z m2.676 0h0.308v1.939h-0.308z m-9.364 1.146c-0.148 0-0.371 0.378-0.66 1.133-0.287 0.755-0.571 1.812-0.851 3.17 0.521-0.579 0.944-1.228 1.266-1.947 0.325-0.718 0.486-1.335 0.486-1.852a0.844 0.844 0 0 0-0.067-0.365c-0.046-0.093-0.104-0.139-0.172-0.139z m8.645 3.332c-0.41 0-0.799 0.349-1.167 1.044-0.365 0.697-0.549 1.339-0.549 1.925 0 0.223 0.054 0.401 0.164 0.537a0.506 0.506 0 0 0 0.413 0.206c0.41 0 0.797-0.349 1.159-1.048 0.363-0.699 0.545-1.344 0.545-1.934a0.847 0.847 0 0 0-0.154-0.537 0.499 0.499 0 0 0-0.411-0.193z m-5.281 0.013c-0.271 0-0.528 0.204-0.774 0.617-0.247 0.412-0.371 0.946-0.371 1.606 1.05-0.295 1.574-0.838 1.575-1.634 0-0.393-0.143-0.59-0.43-0.589Z"/></svg>