<svg fill="#CD1925" role="img" viewBox="0 0 25 24" xmlns="http://www.w3.org/2000/svg"><title>Scilab</title><path d="M4.313 1.803c-1.103 0-1.99 0.888-1.99 1.99v16.414c0 1.102 0.887 1.99 1.99 1.99h16.375c1.102 0 1.99-0.888 1.99-1.99V3.793c0-1.102-0.888-1.99-1.99-1.99z m8.82 1.234a1.825 1.802 90 0 1 1.803 1.824 1.825 1.802 90 0 1-1.803 1.827A1.825 1.802 90 0 1 11.33 4.86a1.825 1.802 90 0 1 1.803-1.824Zm2.986 3.496a1.825 1.802 90 0 1 1.803 1.826 1.825 1.802 90 0 1-1.803 1.825 1.825 1.802 90 0 1-1.803-1.825 1.825 1.802 90 0 1 1.803-1.826Zm-7.346 0.26a1.825 1.802 90 0 1 1.803 1.824 1.825 1.802 90 0 1-1.803 1.826 1.825 1.802 90 0 1-1.802-1.826 1.825 1.802 90 0 1 1.802-1.824Zm3.98 2.633a1.825 1.802 90 0 1 1.804 1.826 1.825 1.802 90 0 1-1.803 1.824 1.825 1.802 90 0 1-1.803-1.824 1.825 1.802 90 0 1 1.803-1.826z m7.044 0.053a1.825 1.802 90 0 1 1.803 1.826 1.825 1.802 90 0 1-1.803 1.824 1.825 1.802 90 0 1-1.8-1.824 1.825 1.802 90 0 1 1.8-1.826z m-3.402 2.535a1.825 1.802 90 0 1 1.802 1.826 1.825 1.802 90 0 1-1.802 1.824 1.825 1.802 90 0 1-1.803-1.824 1.825 1.802 90 0 1 1.803-1.826z m-11.614 0.953a1.825 1.802 90 0 1 1.803 1.826 1.825 1.802 90 0 1-1.803 1.824 1.825 1.802 90 0 1-1.802-1.824 1.825 1.802 90 0 1 1.802-1.826Zm15.518 0.93a1.825 1.802 90 0 1 1.803 1.824 1.825 1.802 90 0 1-1.803 1.826 1.825 1.802 90 0 1-1.803-1.826 1.825 1.802 90 0 1 1.803-1.825zM8.31 15.665a1.825 1.802 90 0 1 1.802 1.824 1.825 1.802 90 0 1-1.802 1.826 1.825 1.802 90 0 1-1.803-1.826 1.825 1.802 90 0 1 1.803-1.824ZM4.064 0A3.556 3.556 0 0 0 0.5 3.564v16.872A3.556 3.556 0 0 0 4.064 24h16.872A3.556 3.556 0 0 0 24.5 20.436V3.564A3.556 3.556 0 0 0 20.936 0Zm-0.002 1.021h16.875a2.536 2.536 0 0 1 2.542 2.542v16.875a2.536 2.536 0 0 1-2.542 2.54H4.063a2.536 2.536 0 0 1-2.54-2.54V3.563a2.536 2.536 0 0 1 2.54-2.542z"/></svg>