<svg fill="#8CAAE6" role="img" viewBox="0 0 26 24" xmlns="http://www.w3.org/2000/svg"><title>SciPy</title><path d="M16.95 13.598c-0.838-1.145-2.118-1.623-3.947-2.008l-1.701-0.401-1.283-0.55c-0.674-0.476-1.25-1.746-1.086-2.864a3.205 3.205 0 0 1 3.617-2.699 3.165 3.165 0 0 1 2.096 1.234L16.579 8.848c1.104 1.421 2.345 1.845 3.696 1.173l0.68-0.288a0.235 0.235 0 0 1 0.297 0.093l0.136 0.203a0.332 0.332 0 0 0 0.166 0.14 0.348 0.348 0 0 0 0.353-0.062l1.567-1.479c0.275-0.235 0.194-0.451 0.195-0.451l-0.378-0.861s-0.104-0.206-0.461-0.159l-2.102 0.193a0.349 0.349 0 0 0-0.289 0.44l0.076 0.242c0.015 0.05 0.015 0.107-0.005 0.158a0.234 0.234 0 0 1-0.133 0.134l-0.594 0.251c-0.622 0.364-1.329 0.131-1.801-0.446l-0.54-0.716-1.536-2.04a4.723 4.723 0 0 0-3.129-1.838C10.174 3.168 7.76 4.97 7.381 7.556c-0.191 1.303 0.2 2.537 0.914 3.527 0.518 0.72 1.467 1.132 1.981 1.261l1.348 0.385 1.291 0.296c0.177 0.043 0.677 0.166 0.972 0.272 0.274 0.098 0.903 0.331 1.414 0.749 0.611 0.622 0.935 1.51 0.797 2.44a2.932 2.932 0 0 1-5.232 1.341l-1.844-2.449a2.451 2.451 0 0 0-1.617-0.951 2.468 2.468 0 0 0-1.825 0.469l-3.88 2.896A11.754 11.754 0 0 1 0.18 12C0.18 5.374 5.663 0 12.428 0c5.037 0 9.36 2.979 11.243 7.233l0.621-0.289 0.42-1.145 0.439 0.154-0.378 1.026 1.047 0.36-0.158 0.429-1.17-0.408-0.644 0.296c0.534 1.348 0.831 2.812 0.831 4.344 0 6.627-5.486 12-12.251 12a12.314 12.314 0 0 1-9.893-4.925l3.976-2.979a0.913 0.913 0 0 1 1.242 0.203l1.951 2.623a4.472 4.472 0 0 0 2.856 1.605c2.459 0.344 4.743-1.36 5.099-3.807a4.423 4.423 0 0 0-0.709-3.122"/></svg>