<svg fill="#E9711C" role="img" viewBox="0 0 37 24" xmlns="http://www.w3.org/2000/svg"><title>Scopus</title><path d="M36.514 22.596l-0.211-2.667c-2.141 1.159-4.421 1.615-6.702 1.615-4.982 0-8.947-4.176-8.947-9.72 0-5.859 3.895-9.472 8.456-9.472 2.878 0 5.089 0.455 7.193 1.614L36.514 1.335c-1.93-0.913-3.508-1.335-7.053-1.335-6.806 0-11.964 5.299-11.964 12.035 0 7.686 6.14 11.895 11.859 11.894 2.876 0 5.263-0.386 7.158-1.333z m-22.448-5.193c0-3.332-2.948-4.841-5.79-6.526C6.065 9.544 3.714 8.631 3.714 6.176c0-1.824 1.335-3.825 3.966-3.825 2.28 0 3.858 0.351 5.859 1.544l0.175-2.772c-1.86-0.772-3.193-1.123-6.21-1.123C3.189 0 0.557 2.807 0.557 6.386c0 3.579 3.157 5.123 6.035 6.876 2.141 1.298 4.386 2.177 4.386 4.492 0 2.246-2.001 3.859-4.386 3.859-2.351 0-3.894-0.525-5.684-1.614L0.486 22.772c1.824 0.841 3.684 1.228 6.245 1.228 3.58 0 7.333-2.211 7.333-6.597z"/></svg>