<svg fill="#FFFFFF" role="img" viewBox="0 0 26 24" xmlns="http://www.w3.org/2000/svg"><title>SCP Foundation</title><path d="M12.548 4.583v0.593l-0.048 0.011c-0.028 0-0.158 0.016-0.291 0.03a7.51 7.51 0 0 0-3.364 1.219A7.542 7.542 0 0 0 6.777 8.503a7.493 7.493 0 0 0-0.542 7.371c0.053 0.11 0.096 0.203 0.096 0.208 0 0-0.252 0.155-0.565 0.335a37.201 37.201 0 0 0-0.581 0.339c-0.015 0.011 0.014 0.067 0.209 0.406a9.282 9.282 0 0 0 0.235 0.396 27.803 27.803 0 0 0 0.588-0.334c0.318-0.185 0.582-0.335 0.589-0.334 0.003 0 0.056 0.067 0.113 0.149a7.546 7.546 0 0 0 1.926 1.861 7.761 7.761 0 0 0 1.807 0.883 7.477 7.477 0 0 0 4.715 0 7.729 7.729 0 0 0 1.808-0.882 7.496 7.496 0 0 0 1.941-1.886c0.067-0.096 0.125-0.173 0.129-0.174 0.002 0 0.261 0.148 0.573 0.328 0.312 0.182 0.576 0.331 0.586 0.335 0.014 0.011 0.068-0.08 0.246-0.387 0.205-0.354 0.225-0.397 0.208-0.409-0.011-0.011-0.273-0.16-0.584-0.339a17.932 17.932 0 0 1-0.563-0.335s0.038-0.088 0.085-0.186a7.52 7.52 0 0 0 0.606-4.427 7.564 7.564 0 0 0-1.159-2.919 7.517 7.517 0 0 0-1.735-1.833 7.126 7.126 0 0 0-1.155-0.709 7.308 7.308 0 0 0-2.542-0.745l-0.289-0.03-0.051-0.011v-1.187h-0.923z m0 3.317v1.337h-0.526c-0.305 0-0.524 0-0.521 0.01 0.011 0.034 1.527 2.967 1.531 2.968 0.004 0 1.518-2.933 1.533-2.967 0.002-0.011-0.228-0.011-0.545-0.01h-0.549V6.562h0.053c0.161 0 0.648 0.081 0.975 0.163a5.672 5.672 0 0 1 1.216 0.449 6.031 6.031 0 0 1 1.246 0.807c0.176 0.145 0.63 0.606 0.78 0.794 0.225 0.278 0.434 0.583 0.607 0.885 0.092 0.163 0.281 0.556 0.352 0.738a6.138 6.138 0 0 1 0.123 4.189c-0.103 0.31-0.289 0.752-0.314 0.752-0.014 0-2.131-1.219-2.152-1.24-0.014-0.012 0.024-0.086 0.238-0.457 0.139-0.244 0.257-0.447 0.257-0.453 0-0.012 0.007-0.012-0.268-0.024-0.109 0-0.209-0.011-0.218-0.012-0.011 0-0.112-0.011-0.23-0.01s-0.24-0.011-0.271-0.013c-0.032 0-0.135-0.011-0.231-0.012-0.094 0-0.196-0.011-0.225-0.012-0.029 0-0.143-0.011-0.253-0.012-0.111 0-0.219-0.011-0.241-0.011-0.021 0-0.126-0.011-0.235-0.012-0.109 0-0.217-0.011-0.24-0.012-0.021 0-0.139-0.011-0.259-0.011-0.12 0-0.227-0.011-0.236-0.012-0.045-0.011-0.428-0.019-0.427-0.013 0 0 0.328 0.518 0.729 1.141l0.901 1.401c0.156 0.242 0.174 0.267 0.188 0.249 0.009-0.012 0.133-0.225 0.277-0.474l0.262-0.453 0.035 0.02 1.083 0.625c0.575 0.331 1.046 0.61 1.046 0.614 0 0.017-0.171 0.246-0.311 0.417a9.232 9.232 0 0 1-0.767 0.779 6.713 6.713 0 0 1-0.813 0.577 8.111 8.111 0 0 1-0.874 0.431 6.141 6.141 0 0 1-4.529 0c-0.214-0.086-0.678-0.312-0.873-0.431a6.662 6.662 0 0 1-0.812-0.577 8.943 8.943 0 0 1-0.745-0.749 4.427 4.427 0 0 1-0.31-0.409c0.002 0 0.474-0.275 1.048-0.606l1.08-0.624 0.037-0.022 0.251 0.435c0.139 0.24 0.257 0.445 0.265 0.457 0.012 0.018 0.021 0.011 0.086-0.092 0.038-0.062 0.141-0.225 0.227-0.357l0.286-0.443c0.122-0.192 0.519-0.808 0.623-0.969l0.259-0.403 0.273-0.424a0.729 0.729 0 0 0 0.062-0.108c0-0.011-0.028-0.011-0.089-0.01-0.049 0-0.16 0.011-0.246 0.012-0.086 0-0.195 0.011-0.242 0.011-0.094 0.011-0.256 0.015-0.484 0.025-0.08 0-0.184 0.011-0.231 0.01-0.047 0-0.15 0.011-0.231 0.013-0.146 0.011-0.278 0.013-0.481 0.024-0.062 0-0.227 0.011-0.366 0.017-0.139 0.011-0.305 0.014-0.366 0.017-0.063 0-0.164 0.011-0.224 0.011-0.281 0.015-0.373 0.021-0.373 0.029 0 0 0.121 0.217 0.269 0.473l0.271 0.468-0.032 0.018c-0.099 0.064-2.134 1.233-2.143 1.233-0.014 0-0.122-0.229-0.203-0.434a6.191 6.191 0 0 1-0.435-2.663 6.165 6.165 0 0 1 1.381-3.515c0.153-0.186 0.606-0.648 0.783-0.793 0.404-0.335 0.781-0.577 1.244-0.809 0.428-0.21 0.775-0.339 1.216-0.449 0.331-0.082 0.784-0.158 0.962-0.16h0.066zM9.291 0.03l-0.18 1.031c-0.094 0.549-0.176 1.005-0.182 1.012a0.89 0.89 0 0 1-0.175 0.083 11.328 11.328 0 0 0-6.948 8.789 2.411 2.411 0 0 1-0.043 0.23c-0.021 0.057-0.068 0.499-0.09 0.882a16.248 16.248 0 0 0 0 1.213c0.014 0.251 0.035 0.487 0.07 0.787l0.026 0.213-0.046 0.043a47.319 47.319 0 0 1-0.351 0.324l-0.213 0.195c-0.096 0.091-0.113 0.107-0.601 0.558-0.212 0.192-0.385 0.358-0.39 0.364-0.003 0 0.141 0.263 0.32 0.573l1.859 3.219a214.166 214.166 0 0 0 1.546 2.656c0.006 0 0.097-0.032 0.203-0.071l0.5-0.183c1.016-0.372 1.264-0.462 1.273-0.461a0.411 0.411 0 0 1 0.08 0.056c0.211 0.176 0.728 0.541 1.069 0.753a11.965 11.965 0 0 0 2.03 0.99 11.377 11.377 0 0 0 5.311 0.634 11.431 11.431 0 0 0 2.762-0.692c0.113-0.045 0.217-0.083 0.23-0.085 0.063-0.011 0.432-0.179 0.797-0.364 0.591-0.299 1.109-0.62 1.652-1.026l0.222-0.163 0.06 0.018 0.095 0.03a142.474 142.474 0 0 1 1.436 0.448c0.016 0.011 0.082 0.027 0.15 0.046l0.228 0.072a0.654 0.654 0 0 0 0.117 0.03c0.014 0 3.728-6.434 3.724-6.445-0.003-0.011-0.225-0.195-1.151-0.966l-0.444-0.371c-0.021-0.021-0.021-0.025 0.002-0.193 0.128-0.902 0.143-1.796 0.049-2.737a11.324 11.324 0 0 0-5.651-8.7 12.436 12.436 0 0 0-1.311-0.642c-0.053-0.021-0.098-0.048-0.1-0.057-0.003-0.011-0.111-0.483-0.239-1.052l-0.237-1.052c-0.005-0.018-0.192-0.019-3.731-0.019h-3.721Zm6.838 0.588a195.731 195.731 0 0 1 0.455 1.959c0.009 0.032 0.021 0.04 0.228 0.118 0.454 0.176 0.994 0.428 1.371 0.638a10.665 10.665 0 0 1 5.46 8.472c0.037 0.462 0.045 1.282 0.013 1.666-0.03 0.369-0.087 0.802-0.153 1.169l-0.014 0.078 0.051 0.049a6.301 6.301 0 0 0 0.273 0.234c0.006 0.011 0.066 0.057 0.131 0.109l0.229 0.19 0.439 0.367c0.442 0.369 0.411 0.34 0.395 0.364-0.004 0.011-0.706 1.221-1.552 2.69-0.927 1.607-1.55 2.673-1.559 2.674-0.011 0-0.102-0.026-0.205-0.057l-0.227-0.069a47.762 47.762 0 0 1-0.917-0.28c-0.013-0.011-0.046-0.016-0.075-0.023-0.029-0.011-0.062-0.017-0.075-0.024-0.013-0.011-0.059-0.021-0.103-0.032l-0.222-0.066c-0.139-0.043-0.141-0.043-0.171-0.022l-0.192 0.156c-0.279 0.225-0.794 0.599-0.827 0.598a0.823 0.823 0 0 0-0.113 0.067 10.746 10.746 0 0 1-5.073 1.667 17.277 17.277 0 0 1-1.373 0c-1.502-0.112-2.823-0.474-4.111-1.123a10.843 10.843 0 0 1-1.887-1.209 0.604 0.604 0 0 0-0.094-0.071 1.064 1.064 0 0 1-0.125-0.102l-0.111-0.096-0.053 0.011a5.407 5.407 0 0 0-0.499 0.175 64.16 64.16 0 0 1-0.564 0.209l-0.566 0.206a2.463 2.463 0 0 1-0.201 0.071c-0.006 0-0.712-1.213-1.568-2.695l-1.555-2.695 0.039-0.033 0.229-0.216 0.265-0.249 0.185-0.175c0.06-0.058 0.137-0.128 0.171-0.161l0.107-0.096a44.879 44.879 0 0 1 0.439-0.412l0.077-0.074-0.016-0.083a8.963 8.963 0 0 1-0.127-1.069c0-0.093-0.006-0.342-0.01-0.554A10.658 10.658 0 0 1 7.076 3.797a10.545 10.545 0 0 1 2.329-1.176c0.133-0.047 0.139-0.051 0.148-0.088 0.012-0.046 0.087-0.467 0.228-1.285l0.111-0.627 0.005-0.025h3.112c2.957 0 3.114 0 3.12 0.019z"/></svg>