<svg fill="#FF8282" role="img" viewBox="0 0 30 24" xmlns="http://www.w3.org/2000/svg"><title>Screencastify</title><path d="M9.901 0c-0.587 0.01-1.136 0.472-1.136 1.108v5.318H1.45c-0.673 0-1.367 0.543-1.367 1.216v8.727c0 0.671 0.695 1.128 1.367 1.127h7.315V6.447h7.966c0.674 0 1.151 0.543 1.151 1.217v2.018l4.558-2.605v9.855l-4.558-2.605v2.084c0 0.673-0.477 1.129-1.151 1.129H8.765v5.361c0 0.845 0.977 1.367 1.715 0.955l11.981-6.881 6.904-3.972c0.737-0.5 0.737-1.563 0-1.976l-6.904-3.971L10.48 0.153a1.101 1.101 0 0 0-0.579-0.153z"/></svg>