<svg fill="#FFCB36" role="img" viewBox="0 0 32 24" xmlns="http://www.w3.org/2000/svg"><title>ScrollReveal</title><path d="M2.501 0.001A2.244 2.244 0 0 0 0.252 2.251v9c0 1.247 1.004 2.249 2.249 2.249a2.244 2.244 0 0 0 2.251-2.249V2.249a2.244 2.244 0 0 0-2.251-2.249z m8.999 0a2.244 2.244 0 0 0-2.249 2.25v1.5c0 1.247 1.004 2.251 2.249 2.25a2.244 2.244 0 0 0 2.251-2.25V2.251A2.244 2.244 0 0 0 11.499 0.001z m9 0a2.244 2.244 0 0 0-2.251 2.25V21.751c0 1.247 1.004 2.249 2.251 2.249a2.244 2.244 0 0 0 2.249-2.249V2.249a2.244 2.244 0 0 0-2.249-2.249z m8.999 0a2.244 2.244 0 0 0-2.251 2.25v9c0 1.247 1.004 2.249 2.251 2.249A2.244 2.244 0 0 0 31.748 11.251V2.249a2.244 2.244 0 0 0-2.249-2.249z m-17.999 10.499a2.244 2.244 0 0 0-2.249 2.249v9c0 1.247 1.004 2.249 2.249 2.25a2.244 2.244 0 0 0 2.251-2.25V12.748a2.244 2.244 0 0 0-2.251-2.249z m-8.999 7.499A2.244 2.244 0 0 0 0.252 20.249v1.5c0 1.247 1.004 2.249 2.249 2.25a2.244 2.244 0 0 0 2.251-2.25v-1.5a2.244 2.244 0 0 0-2.251-2.25z m26.998 0a2.244 2.244 0 0 0-2.251 2.25v1.5c0 1.247 1.004 2.249 2.251 2.25A2.244 2.244 0 0 0 31.748 21.749v-1.5a2.244 2.244 0 0 0-2.249-2.25Z"/></svg>