<svg fill="#009FDA" role="img" viewBox="0 0 67 24" xmlns="http://www.w3.org/2000/svg"><title>Scrum Alliance</title><path d="M4.636 0.009a0.833 0.833 0 1 0 0.944 0.705 0.833 0.833 0 0 0-0.944-0.705z m2.442 0.005a0.903 0.903 0 0 0-0.82 0.901 0.903 0.903 0 0 0 0.907 0.906 0.903 0.903 0 0 0 0.901-0.906 0.903 0.903 0 0 0-0.901-0.901 0.903 0.903 0 0 0-0.087 0zM2.454 1.104a0.763 0.763 0 0 0-0.646 0.863c0.061 0.417 0.447 0.701 0.863 0.641a0.753 0.753 0 0 0 0.641-0.858c-0.06-0.415-0.442-0.707-0.858-0.646z m5.796 1.042a0.97 0.97 0 0 0 0.971 0.972 0.97 0.97 0 0 0 0.966-0.972 0.967 0.967 0 0 0-0.969-0.963 0.967 0.967 0 0 0-0.968 0.964z m11.016 0.077c-1.704 0-3.251 0.943-3.251 2.746 0 2.776 3.734 2.041 3.734 3.988 0 0.999-0.797 1.698-1.921 1.699-0.822 0-1.741-0.275-1.595-1.091l0.13-0.727h-1.113l-0.168 0.922c-0.266 1.566 1.489 2.068 2.589 2.068 1.789 0 3.321-1.105 3.321-2.947 0-2.882-3.733-2.133-3.734-3.989 0-0.934 0.824-1.514 1.851-1.514 0.604 0 1.424 0.199 1.302 0.831l-0.108 0.645h1.112l0.195-1.004c0.23-1.197-1.341-1.628-2.344-1.628z m-18.174 0.797a0.682 0.682 0 0 0-0.575 0.771 0.677 0.677 0 0 0 0.77 0.57 0.675 0.675 0 0 0 0.575-0.766 0.683 0.683 0 0 0-0.77-0.575z m9.242 0.353a1.021 1.021 0 0 0-0.863 1.156 1.021 1.021 0 0 0 1.156 0.863 1.019 1.019 0 0 0 0.863-1.156 1.02 1.02 0 0 0-1.156-0.863z m15.737 1.481c-2.162 0-3.891 1.891-3.891 4.049 0 1.738 1.12 2.925 2.909 2.925 1.608 0 2.54-0.988 2.54-0.988l-0.337-0.987s-0.874 0.868-2.095 0.868c-1.136 0-1.823-0.752-1.823-1.91 0-1.539 1.243-2.855 2.573-2.855 0.58 0 1.257 0.237 1.171 0.776l-0.081 0.45h1.036l0.147-0.765c0.193-1.184-1.266-1.563-2.149-1.563z m21.186 0c-1.148 0-2.135 1.025-2.426 1.617h-0.027c0.085-0.236 0.184-0.754 0.185-0.911 0-0.356-0.184-0.548-0.668-0.548h-1.378l-0.179 0.987h0.759c0.193 0 0.241 0.101 0.217 0.272l-0.965 5.399h1.172l0.532-2.974c0.242-1.316 1.124-2.686 2.295-2.686 0.677 0 0.874 0.383 0.874 0.923 0 0.224-0.051 0.485-0.087 0.749l-0.711 3.988h1.167l0.548-3.044c0.218-1.276 1.088-2.616 2.225-2.616 0.701 0 0.89 0.381 0.89 0.961 0 0.631-0.516 2.854-0.516 3.473 0 1.131 0.797 1.248 1.341 1.248 0.29 0 0.521-0.022 0.521-0.022l0.179-0.987s-0.124 0.027-0.293 0.027c-0.302 0-0.543-0.081-0.543-0.581 0-0.527 0.532-2.727 0.532-3.516 0-1.131-0.637-1.758-1.677-1.759-1.015 0-1.933 0.71-2.404 1.617h-0.027c-0.06-1.052-0.557-1.617-1.536-1.617z m-13.789 0.076c-0.967 0-1.787 0.827-2.198 1.775h-0.027c0.097-0.316 0.217-0.958 0.217-1.129 0-0.382-0.18-0.564-0.651-0.564h-1.379l-0.195 0.982h0.765c0.205 0 0.242 0.135 0.217 0.293l-0.955 5.383h1.172l0.434-2.474c0.266-1.526 1.28-3.017 2.405-3.017 0.157 0 0.266 0.031 0.325 0.043l0.234-1.264a2.171 2.171 0 0 0-0.364-0.028z m1.367 0.082l-0.184 0.982h1.015l-0.565 3.24a4.352 4.352 0 0 0-0.087 0.841c0 1.25 0.784 1.753 1.715 1.753 1.281 0 2.13-0.912 2.529-1.596h0.022c-0.084 1 0.399 1.46 1.221 1.46a7.885 7.885 0 0 0 0.559-0.022l0.179-0.987s-0.112 0.027-0.293 0.027c-0.302 0-0.543-0.107-0.543-0.581a2.603 2.603 0 0 1 0.038-0.407l0.847-4.71h-2.187l-0.185 0.982h1.015l-0.358 2.041c-0.218 1.263-1.211 2.632-2.431 2.631-0.689 0-0.917-0.354-0.917-0.933 0-0.21 0.037-0.483 0.097-0.76l0.7-3.961z m-34.139 0.239a0.627 0.627 0 0 0-0.532 0.711c0.049 0.344 0.372 0.581 0.716 0.531a0.626 0.626 0 0 0 0.532-0.711 0.633 0.633 0 0 0-0.716-0.531z m0.608 2.16a0.531 0.531 0 0 0-0.451 0.602 0.536 0.536 0 0 0 0.608 0.45 0.531 0.531 0 0 0 0.45-0.602 0.538 0.538 0 0 0-0.607-0.45z m1.372 1.801a0.461 0.461 0 0 0-0.39 0.521 0.456 0.456 0 0 0 0.521 0.385 0.461 0.461 0 0 0 0.391-0.521 0.457 0.457 0 0 0-0.522-0.385z m6.909 0.613c-0.617 0-1.118 0.497-1.118 1.113 0 0.617 0.502 1.118 1.118 1.118a1.119 1.119 0 0 0 1.118-1.118c0-0.615-0.501-1.113-1.118-1.113z m-5.031 0.212a0.436 0.436 0 0 0-0.401 0.434 0.436 0.436 0 0 0 0.439 0.44 0.436 0.436 0 0 0 0.434-0.44 0.436 0.436 0 0 0-0.434-0.434 0.435 0.435 0 0 0-0.038 0z m1.867 0.255a1.21 1.21 0 0 0-1.161 1.21 1.21 1.21 0 1 0 1.21-1.21 1.213 1.213 0 0 0-0.049 0z m6.127 0.488c-0.562 0-1.015 0.458-1.015 1.021 0 0.563 0.452 1.02 1.015 1.02a1.021 1.021 0 0 0 1.02-1.02 1.022 1.022 0 0 0-1.02-1.021z m-8.515 1.417a1.296 1.296 0 0 0-1.297 1.297c0 0.718 0.58 1.297 1.297 1.297a1.296 1.296 0 0 0 1.297-1.297 1.296 1.296 0 0 0-1.297-1.297z m10.718 0.895a0.886 0.886 0 0 0-0.885 0.89c0 0.493 0.393 0.89 0.885 0.89a0.889 0.889 0 0 0 0.89-0.89 0.891 0.891 0 0 0-0.89-0.89z m7.815 1.341l-4.375 8.487h-0.857l-0.136 0.765h2.719l0.147-0.765h-0.966l1.221-2.382h3.31l0.375 2.382h-0.983l-0.13 0.765h2.681l0.136-0.765h-0.858l-1.346-8.487z m4.677 0l-0.135 0.738h1.09l-1.221 6.853c-0.036 0.184-0.059 0.368-0.059 0.5 0 1.04 0.712 1.199 1.183 1.199 0.194 0 0.423-0.038 0.423-0.038l0.13-0.765s-0.093 0.027-0.298 0.027c-0.29 0-0.581-0.039-0.581-0.592 0-0.105 0.025-0.276 0.049-0.434l1.329-7.488z m3.229 0l-0.135 0.738h1.085l-1.216 6.853c-0.037 0.184-0.065 0.368-0.065 0.5 0 1.04 0.717 1.199 1.189 1.199 0.194 0 0.423-0.038 0.423-0.038l0.13-0.765s-0.093 0.027-0.298 0.027c-0.29 0-0.581-0.039-0.581-0.592 0-0.105 0.025-0.276 0.049-0.434l1.324-7.488z m4.553 0l-0.206 1.117h0.934l0.206-1.117zM2.818 15.263a1.369 1.369 0 0 0-1.368 1.368c0 0.755 0.613 1.362 1.368 1.362a1.363 1.363 0 0 0 1.367-1.362 1.368 1.368 0 0 0-1.367-1.368z m62.727 0.108c-0.713 0-1.286 0.637-1.286 1.439 0 0.8 0.573 1.438 1.286 1.438 0.72 0 1.297-0.638 1.297-1.438 0-0.801-0.577-1.438-1.297-1.438z m-42.665 0.012h0.022s0.001 0.289 0.049 0.591l0.581 3.788H20.694l1.953-3.788c0.145-0.303 0.233-0.592 0.233-0.591z m42.665 0.255c0.583 0 1.031 0.513 1.032 1.172 0 0.659-0.448 1.172-1.032 1.172-0.576 0-1.02-0.513-1.02-1.172 0-0.659 0.444-1.173 1.02-1.173z m-49.86 0.271a0.824 0.824 0 0 0-0.825 0.825c0 0.456 0.368 0.825 0.825 0.825s0.83-0.369 0.83-0.825c0-0.457-0.374-0.825-0.83-0.825z m49.421 0.152v1.487h0.255v-0.575h0.222l0.256 0.575h0.282l-0.261-0.548c-0.033-0.067-0.049-0.081-0.049-0.082v-0.011c0.112-0.031 0.25-0.162 0.25-0.39 0-0.276-0.171-0.456-0.429-0.456z m0.255 0.211h0.217c0.134 0 0.223 0.091 0.222 0.245 0 0.158-0.089 0.25-0.222 0.249h-0.217z m-25.452 0.635c-1.269 0-2.209 0.684-2.208 0.684l0.25 0.727s0.825-0.618 1.828-0.618c0.931 0 1.243 0.485 1.243 1.183 0 0.236-0.098 0.749-0.098 0.749h-0.396c-1.668 0-4.124 0.432-4.124 2.55 0 1.066 0.801 1.66 1.78 1.661 1.438 0 2.248-1.422 2.236-1.422h0.021c-0.06 0.882 0.389 1.291 1.102 1.291 0.218 0 0.456-0.027 0.456-0.027l0.136-0.737s-0.109 0.027-0.315 0.026c-0.278 0-0.57-0.067-0.57-0.618 0-0.553 0.608-2.827 0.608-3.604 0-1.276-0.788-1.845-1.949-1.845z m8.114 0c-1.499 0-2.467 1.187-2.708 1.753h-0.027c0.109-0.276 0.206-0.909 0.206-1.053 0-0.342-0.154-0.542-0.614-0.542h-1.161l-0.136 0.738h0.825c0.193 0 0.241 0.13 0.217 0.287l-1.003 5.595h0.819l0.548-3.039c0.266-1.552 1.473-2.898 2.779-2.898 0.677 0 1.053 0.357 1.052 1.108 0 0.737-0.57 3.131-0.57 3.722 0 1 0.726 1.134 1.162 1.134 0.205 0 0.445-0.027 0.445-0.027l0.135-0.737s-0.11 0.027-0.303 0.026c-0.29 0-0.581-0.053-0.581-0.618 0-0.527 0.57-2.935 0.57-3.75 0-1.092-0.592-1.699-1.655-1.699z m7.033 0c-2.018 0-3.831 1.804-3.832 4.054 0 1.777 1.133 2.882 2.79 2.882 1.547 0 2.469-0.988 2.469-0.988l-0.266-0.738s-0.869 0.922-2.138 0.922c-1.184 0-2.008-0.803-2.008-2.132 0-1.802 1.473-3.196 2.887-3.196 0.592 0 1.416 0.25 1.319 0.868l-0.087 0.488h0.765l0.119-0.7c0.181-1.078-1.197-1.46-2.018-1.46z m6.42 0c-2.055 0-3.555 1.988-3.555 4.146 0 1.671 1.089 2.79 2.757 2.79 1.281 0 2.285-0.869 2.284-0.869l-0.255-0.738s-0.897 0.803-1.997 0.803c-1.281 0-1.943-0.906-1.942-2.051 0-0.329 0.059-0.608 0.059-0.608h4.667s0.168-0.567 0.168-1.079c0-1.382-0.688-2.393-2.186-2.394z m-27.948 0.158l-0.131 0.738h1.086l-0.771 4.265c-0.024 0.184-0.065 0.351-0.065 0.483 0 1.04 0.729 1.161 1.189 1.162 0.169 0 0.423-0.027 0.423-0.028l0.13-0.737s-0.099 0.027-0.304 0.026c-0.29 0-0.575-0.066-0.575-0.618 0-0.105 0.008-0.235 0.033-0.38l0.895-4.911z m27.909 0.591c0.798 0 1.389 0.515 1.39 1.569 0 0.263-0.049 0.499-0.049 0.499H58.974c0.435-1.343 1.461-2.067 2.463-2.068z m-46.132 1.178c-0.386 0-0.7 0.314-0.7 0.7 0 0.385 0.314 0.695 0.7 0.695s0.7-0.309 0.7-0.695c0-0.386-0.314-0.7-0.7-0.7z m25.147 1.471h0.353l-0.06 0.287c-0.265 1.145-1.219 2.513-2.355 2.513-0.81 0-1.151-0.487-1.15-1.053 0-1.632 2.197-1.747 3.212-1.747z m-26.585 1.123c-0.333 0-0.608 0.268-0.608 0.602a0.611 0.611 0 0 0 0.608 0.608c0.333 0 0.602-0.275 0.602-0.608a0.601 0.601 0 0 0-0.602-0.602z m-2.247 1.427a0.577 0.577 0 0 0-0.575 0.575c0 0.317 0.259 0.57 0.575 0.57a0.568 0.568 0 0 0 0.57-0.57 0.573 0.573 0 0 0-0.57-0.575Z"/></svg>