<svg fill="#8A9296" role="img" viewBox="0 0 21 24" xmlns="http://www.w3.org/2000/svg"><title>Scrutinizer CI</title><path d="M13.362 0L5.379 0.06a6.139 6.127 0 0 0-3.744 2.508 6.36 6.36 0 0 0-1.357 2.64l-0.12 0.553-0.12 0.857c-0.06 0.8-0.06 1.351 0.12 1.471h5.276c0.06 0-0.186-0.246-0.186-0.672 0-0.738 0.252-0.924 0.552-1.23 0.552-0.426 2.945-0.12 4.728-0.246 2.448 0 4.602-0.06 4.848-0.12 2.7-0.427 5.03-2.388 5.522-4.536 0.12-0.547 0.12-1.105 0.06-1.165C20.898 0 19.918 0 13.36 0zM7.694 9.007c-3.758-0.015-7.47 0-7.53 0.06-0.126 0.126-0.06 0.798 0.06 1.35a5.64 5.64 0 0 0 1.843 2.761 7.549 7.549 0 0 0 3.312 1.59c0.366 0.126 1.044 0.126 4.597 0.126 4.236 0 4.915 0.06 5.22 0.24a1.842 1.836 0 0 1 0.372 0.372c0.18 0.24 0.18 0.307 0.18 0.98 0 0.671-0.065 0.731-0.185 1.043a1.47 1.47 0 0 1-0.426 0.366c-0.186 0.12-0.307 0.12-4.357 0.18-4.67 0-5.155 0-6.32 0.431a6.445 6.433 0 0 0-2.46 1.35c-1.163 1.04-1.841 2.203-1.961 3.428l0.06 0.611a283.022 282.613 0 0 0 15.404 0l0.492-0.12a4.543 4.537 0 0 0 0.737-0.245l0.367-0.18a7.735 7.723 0 0 0 3.499-4.297 8.407 8.395 0 0 0-0.373-6.06 8.527 8.521 0 0 0-2.328-2.88 6.937 6.925 0 0 0-2.394-0.985c-0.246-0.06-4.051-0.106-7.81-0.12z"/></svg>