<svg fill="#6EBE49" role="img" viewBox="0 0 27 24" xmlns="http://www.w3.org/2000/svg"><title>Seagate</title><path d="M12.633 24c-0.297-1.129-0.588-2.237-0.872-3.319 0.307-0.149 0.56-0.266 0.894-0.431 1.392-0.593 2.736-1.272 3.988-2.126 1.566-1.068 3.03-2.262 4.305-3.67 1-1.104 1.833-2.323 2.309-3.754 0.317-0.952 0.472-1.926 0.332-2.93-0.116-0.832-0.421-1.592-0.894-2.287-0.571-0.839-1.313-1.477-2.217-1.933-1.131-0.571-2.336-0.782-3.591-0.745-1.113 0.033-2.185 0.278-3.229 0.659C11.738 4.166 9.977 5.169 8.286 6.304c-0.493 0.331-0.946 0.715-1.338 1.165-0.214 0.246-0.378 0.517-0.448 0.841-0.117 0.547 0.197 0.964 0.756 0.99 0.391 0.018 0.739-0.133 1.08-0.294 1.062-0.502 2.021-1.178 3.013-1.797 0.815-0.508 1.638-1.005 2.533-1.361 0.883-0.352 1.794-0.544 2.748-0.384 1.04 0.174 1.876 0.664 2.384 1.619 0.356 0.669 0.384 1.378 0.197 2.101-0.214 0.823-0.69 1.493-1.254 2.107-0.778 0.847-1.673 1.552-2.665 2.133-1.038 0.609-2.067 1.236-3.131 1.795-1.245 0.654-2.572 1.118-3.923 1.51-1.135 0.33-2.289 0.478-3.466 0.374-0.987-0.088-1.917-0.374-2.737-0.945-0.74-0.516-1.286-1.2-1.617-2.043-0.511-1.304-0.485-2.632-0.161-3.971 0.366-1.512 1.132-2.819 2.078-4.033 0.718-0.922 1.546-1.738 2.438-2.488 1.263-1.062 2.602-2.018 4.038-2.835 0.486-0.276 0.981-0.537 1.443-0.788l0.473 0.973c-0.428 0.23-0.85 0.45-1.266 0.682-1.792 0.998-3.434 2.201-4.897 3.642-0.794 0.781-1.465 1.663-1.973 2.657-0.532 1.043-0.818 2.146-0.693 3.323 0.138 1.288 0.742 2.279 1.929 2.873 0.708 0.355 1.463 0.46 2.243 0.443 1.074-0.023 2.087-0.328 3.087-0.686 1.491-0.533 2.878-1.277 4.229-2.093 0.793-0.479 1.583-0.965 2.253-1.613 0.354-0.342 0.708-0.69 0.889-1.167 0.321-0.846-0.136-1.579-1.042-1.664-0.493-0.047-0.941 0.117-1.377 0.319-1.152 0.533-2.189 1.264-3.263 1.93-0.821 0.51-1.65 1.004-2.553 1.358-0.625 0.244-1.272 0.397-1.95 0.319-1.164-0.133-1.892-1.052-1.765-2.218 0.1-0.916 0.545-1.664 1.147-2.331 0.666-0.737 1.444-1.342 2.279-1.875 1.282-0.819 2.582-1.604 3.974-2.228 1.613-0.723 3.268-1.297 5.043-1.452 1.285-0.113 2.555-0.041 3.809 0.284 1.108 0.288 2.129 0.756 3.049 1.438 0.911 0.676 1.645 1.513 2.2 2.503 0.501 0.894 0.787 1.853 0.871 2.873 0.089 1.074-0.039 2.128-0.349 3.154-0.303 1-0.709 1.96-1.265 2.85-0.775 1.241-1.689 2.37-2.751 3.378-1.082 1.027-2.176 2.039-3.407 2.888-1.602 1.105-3.272 2.088-5.078 2.829-0.482 0.198-0.962 0.4-1.467 0.611"/></svg>