<svg fill="#FF5B49" role="img" viewBox="0 0 34 24" xmlns="http://www.w3.org/2000/svg"><title>SeatGeek</title><path d="M16.811 10.982h-0.249l-0.989-0.002v-0.001c-1.882-0.003-4.823-0.013-5.413-0.016v-10.375c2.972 0.125 5.693 0.17 5.693 0.171l0.428 2.19c0.001 0-1.049 0.01-3.324-0.042v1.962l2.092 0.031v1.844L12.957 6.72v2.044c1.171 0.011 2.245 0.018 3.394 0.02l2.801-7.904c0.422-0.011 2.214-0.058 2.655-0.076l3.712 10.17c-0.93 0.004-1.874-0.013-2.805-0.008l-0.631-1.833c-1.07 0.011-2.14 0.018-3.211 0.023l-0.626 1.82c-0.5 0-0.964 0-1.435 0.006Zm3.67-6.511l-0.975 2.836c0.649-0.006 1.296-0.013 1.942-0.022l-0.967-2.814Zm6.179-1.685c-1.012 0.062-2.024 0.114-3.037 0.158l0.432-2.244c2.68-0.148 5.349-0.381 8.016-0.7l0.431 2.316c-1.012 0.1-2.026 0.189-3.041 0.27l-0.014 8.38c-0.929 0.008-1.858-0.001-2.787 0.006V2.786ZM9.304 7.873c0 1.754-1.268 3.38-3.764 3.38-2.266 0-3.407-1.059-3.407-1.058V7.352c1.55 1.468 4.598 2.456 4.598 0.679 0-1.351-4.598-1.584-4.598-4.952 0-1.889 1.755-3.077 3.766-3.078 1.42 0 2.611 0.272 2.907 0.364l-0.117 2.494c-1.244-0.733-3.943-1.074-3.943 0.189 0 1.396 4.56 1.411 4.558 4.825Zm20.92 15.703l-2.755-5.062v4.833c-0.947-0.075-2.79-0.187-2.79-0.187V12.703l2.79 0.006c-0.01 1.491 0.011 2.982 0 4.471l2.855-4.477h3.143l-3.257 5.024L33.892 24a127.535 127.535 0 0 0-3.668-0.424ZM12.963 20.771c1.256-0.027 2.513-0.041 3.77-0.041l-0.433 2.197c-1.223 0.004-4.826 0.087-6.134 0.172v-10.38h5.684l0.432 2.162s-1.37-0.01-3.319-0.011v1.969l2.085-0.018v1.862l-2.085 0.025v2.063Zm7.266-0.002c0.995 0.021 2.682 0.076 3.776 0.116l-0.451 2.214a123.017 123.017 0 0 0-6.122-0.17v-10.21l5.703 0.002 0.431 2.184-3.338-0.021v1.955c0.649 0.007 1.295 0.013 1.941 0.024v1.86c-0.646-0.015-1.294-0.025-1.941-0.036l0.001 2.082ZM5.199 16.995l3.666-0.083v6.257s-0.985 0.045-3.182 0.251C2.565 23.713 0.108 21.884 0.108 18.289c0-4.271 3.128-5.621 5.947-5.621 1.222 0 1.941 0.023 2.347 0.044l0.461 2.425s-0.816-0.172-2.355-0.172c-1.746 0-3.639 0.584-3.639 2.926 0 2.521 1.049 3.367 3.599 3.136l-0.002-2.162-1.698 0.083 0.431-1.953Z"/></svg>