<svg fill="#33302E" role="img" viewBox="0 0 27 24" xmlns="http://www.w3.org/2000/svg"><title>SEAT</title><path d="M0.031 10.12l26.916 5.006c-0.024 0.737-0.07 3.044-0.116 4.381-0.046 1.592-0.393 2.56-1.038 3.159-0.899 0.808-1.961 0.992-4.498 1.131-5.858 0.323-11.83 0.277-19.327-0.254-0.785-0.045-1.084-0.208-1.222-0.3-0.323-0.23-0.369-0.484-0.461-1.799-0.07-0.899-0.184-3.505-0.23-4.382 3.482 0.231 8.81 0.415 13.145 0.415 1.084 0 3.921 0.022 4.682 0.023 0.599 0 1.384-0.161 1.776-0.784L0.031 13.372z m0.022-1.406c0.024-0.853 0.07-2.974 0.116-4.221 0.046-1.592 0.393-2.56 1.038-3.159 0.899-0.808 1.961-0.992 4.498-1.131 5.858-0.323 11.83-0.277 19.327 0.254 0.785 0.045 1.084 0.208 1.222 0.3 0.323 0.23 0.369 0.484 0.461 1.799 0.046 0.761 0.162 2.79 0.208 3.897-2.583-0.138-6.966-0.346-10.771-0.393-3.805-0.045-7.242 0.024-7.657 0.071-0.831 0.114-1.222 0.507-1.338 0.668L26.969 10.467v2.882Z"/></svg>