<svg fill="#212E50" role="img" viewBox="0 0 19 24" xmlns="http://www.w3.org/2000/svg"><title>Sefaria</title><path d="M17.115 15.412c-0.62 2.915-2.733 4.152-7.425 4.152-11.54 0-7.45-9.28-5.84-11.186 0.678-0.85 1.152-1.553 2.874-1.553h3.273c4.567 0 5.437 0.217 6.582 2.55 0.617 1.258 0.975 3.971 0.536 6.036m1.238-5.79c-0.385-2.492-0.889-5.202-3.052-6.706-1.31-0.911-2.663-0.981-4.177-0.981-1.026 0-4.666-0.041-6.257-0.041C3.333 1.893 2.279 0.618 2.279 0 1.277 1.234 0.501 2.597 0.772 4.245c0.244 1.484 1.261 2.433 2.75 2.622C1.838 9.25 0.31 11.994 0.381 14.9c0.046 1.83 0.467 9.1 8.686 9.1h1.497c3.507 0 5.632-2.606 6.25-3.614 1.822-2.963 2.122-7.548 1.537-10.764Z"/></svg>