<svg fill="#1857B6" role="img" viewBox="0 0 34 24" xmlns="http://www.w3.org/2000/svg"><title>Semantic Scholar</title><path d="M33.644 7.297c-1.176 0.743-1.992 1.151-2.977 1.727-5.759 3.48-11.304 7.344-15.599 12.456l-2.064 2.52-6.335-10.08c1.416 1.129 4.943 4.297 6.384 4.991l4.654-3.503c3.24-2.28 12.408-7.248 15.937-8.111ZM11.516 16.44c0.48 0.384 0.96 0.745 1.344 1.032 1.055-5.087 0.168-10.559-2.616-15.311 4.68-0.072 9.336-0.121 14.015-0.193a20.519 20.519 0 0 1 1.801 7.344c0.408-0.216 0.816-0.408 1.224-0.6-0.144-2.591-0.889-5.423-2.305-8.687-6.383-0.025-12.743-0.025-19.126-0.025 4.151 4.92 6.047 10.872 5.663 16.44Zm-0.864-0.672c0.121 0.119 0.265 0.215 0.384 0.312-0.191-4.728-1.968-9.552-5.304-13.704H2.756c4.297 3.96 6.913 8.736 7.896 13.392Zm-1.032-0.912c0.144 0.121 0.288 0.24 0.456 0.384-1.248-3.503-3.456-6.96-6.575-9.983H0.356c4.008 2.879 7.104 6.215 9.264 9.599Z"/></svg>