<svg fill="#FF642D" role="img" viewBox="0 0 41 24" xmlns="http://www.w3.org/2000/svg"><title>Semrush</title><path d="M35 11.852c0 0.74-0.377 0.86-1.317 0.861-0.994 0-1.177-0.167-1.284-0.924-0.197-1.92-1.494-3.551-3.669-3.734-0.697-0.057-0.864-0.317-0.863-1.177 0-0.8 0.123-1.18 0.743-1.18 3.776 0.017 6.39 3.054 6.39 6.151v0.003z m5.501 0c0-5.761-3.897-11.852-12.903-11.852H9.698c-0.363 0-0.59 0.183-0.59 0.517 0 0.182 0.137 0.348 0.26 0.433 0.647 0.517 1.617 1.09 2.884 1.727 1.239 0.62 2.205 1.027 3.172 1.421 0.41 0.167 0.56 0.347 0.56 0.573 0 0.317-0.227 0.513-0.667 0.513H1.116c-0.423 0-0.62 0.273-0.62 0.544 0 0.227 0.073 0.423 0.27 0.62 1.15 1.21 2.994 2.661 5.668 4.341 2.444 1.517 4.968 2.901 7.556 4.154 0.393 0.183 0.513 0.393 0.514 0.62-0.013 0.257-0.21 0.467-0.667 0.467H7.331c-0.36 0-0.573 0.2-0.574 0.5 0 0.167 0.133 0.377 0.317 0.544 1.48 1.347 3.852 2.814 7.013 4.157 4.218 1.8 8.492 2.869 13.303 2.869 9.11 0 13.114-6.813 13.114-12.151l-0.003 0.003z m-11.891 8.509c-4.658 0-8.555-3.794-8.555-8.525 0-4.658 3.884-8.402 8.555-8.402 4.773 0 8.52 3.734 8.52 8.402a8.478 8.478 0 0 1-8.52 8.525z"/></svg>