<svg fill="#3F4551" role="img" viewBox="0 0 25 24" xmlns="http://www.w3.org/2000/svg"><title>SemVer</title><path d="M0.857 9.024A12.07 12.07 0 0 0 3.47 19.867a12.051 12.051 0 0 0 10.38 4.063c7.768-0.703 13.086-9.799 9.516-16.8-0.416-1.19-2.07-0.368-1.903 0.596 0.287 0.7 0.526 1.421 0.713 2.155a9.983 9.983 0 0 1-3.925 10.25 9.965 9.965 0 0 1-14.807-3.809A9.984 9.984 0 0 1 4.94 5.448a9.968 9.968 0 0 1 4.85-3.043 9.868 9.868 0 0 1 7.02 0.63 0.333 0.333 0 0 1 0.155 0.429l-3.962 10.62c-0.107 0.81-0.69 0.786-0.797 0l-2.38-7.37a1.572 1.572 0 0 0-0.773-0.988c-1.19-0.56-3.093 0.667-2.379 2.155l3.914 10.441c0.524 1.393 1.023 1.834 2.058 1.834s1.535-0.44 2.058-1.834L20.5 3.94a1.036 1.036 0 0 0-0.369-1.189C13.6-2.906 2.82 0.642 0.857 9.023z"/></svg>