<svg fill="#362D59" role="img" viewBox="0 0 28 24" xmlns="http://www.w3.org/2000/svg"><title>Sentry</title><path d="M16.167 1.232c-0.99-1.642-3.371-1.642-4.359 0L8.222 7.373a17.554 17.554 0 0 1 9.674 14.529h-2.519A15.085 15.085 0 0 0 6.951 9.521l-3.318 5.738a8.676 8.676 0 0 1 5.03 6.633H2.88a0.414 0.414 0 0 1-0.338-0.606l1.603-2.724a5.852 5.852 0 0 0-1.831-1.036L0.727 20.251a2.475 2.475 0 0 0 0.921 3.401 2.54 2.54 0 0 0 1.232 0.326h7.919a10.572 10.572 0 0 0-4.36-9.433l1.259-2.18a13.008 13.008 0 0 1 5.614 11.613h6.708a19.554 19.554 0 0 0-8.943-17.329l2.545-4.36a0.42 0.42 0 0 1 0.572-0.148c0.289 0.159 11.058 18.949 11.259 19.167a0.414 0.414 0 0 1-0.371 0.615h-2.593c0.033 0.694 0.033 1.387 0 2.077h2.605a2.502 2.502 0 0 0 2.18-3.754z"/></svg>