<svg fill="#2350A9" role="img" viewBox="0 0 88 24" xmlns="http://www.w3.org/2000/svg"><title>SEPA</title><path d="M46.023 0v24h6.461v-6.198h3.849l1.072-0.036c2.118-0.033 3.318-0.073 3.6-0.121 2.4-0.315 3.988-1.529 4.756-3.636 0.388-1.061 0.585-2.813 0.585-5.247 0-2.023-0.179-3.541-0.53-4.547-0.677-1.917-2.005-3.187-3.988-3.805-0.863-0.271-2.122-0.406-3.772-0.406z m24.842 0l-7.211 24h6.68l1.16-4.149h8.634l1.233 4.145H87.902l-7.298-23.992z m-34.167 0.113a12.293 12.293 0 0 0-6.908 2.1 11.971 11.971 0 0 0-4.386 5.324h-2.715l-1.698 3.643h3.546a11.598 11.598 0 0 0 0.014 1.925h-1.708l-1.702 3.64H25.488a12.194 12.194 0 0 0 11.21 7.218 12.329 12.329 0 0 0 6.863-2.063l0.048-0.033v-4.54l-0.183 0.205a8.389 8.389 0 0 1-13.237-0.787h8.766l1.701-3.64H28.773a8.62 8.62 0 0 1-0.044-1.925h12.823l0.03-0.062 1.602-3.435 0.07-0.146H29.929a8.444 8.444 0 0 1 7.182-4.054c2.539 0 4.917 1.134 6.523 3.11l0.103 0.128 1.496-3.201-0.055-0.052a12.289 12.289 0 0 0-8.48-3.355z m-26.342 0.015c-1.606 0-3.062 0.059-4.376 0.176-1.573 0.124-2.872 0.549-3.885 1.273a3.959 3.959 0 0 0-1.5 2.067c-0.315 0.907-0.468 2.115-0.468 3.622 0 1.976 0.289 3.45 0.863 4.427 0.655 1.149 1.965 1.902 3.93 2.272 0.75 0.128 2.085 0.26 4.002 0.398 2.393 0.161 3.732 0.285 4.017 0.377 0.772 0.23 1.156 0.874 1.156 1.932a4.024 4.024 0 0 1-0.135 1.152 1.756 1.756 0 0 1-1.09 1.05c-0.307 0.117-1.028 0.176-2.155 0.176h-2.21a3.523 3.523 0 0 1-1.5-0.329c-0.6-0.296-0.9-0.966-0.9-2.009v-0.497H0.098c0 1.95 0.146 3.348 0.431 4.181 0.52 1.507 1.591 2.506 3.216 3 1.324 0.402 3.67 0.6 7.032 0.6 2.016 0 3.512-0.091 4.493-0.274 2.341-0.439 3.841-1.478 4.51-3.121 0.37-0.896 0.552-2.312 0.553-4.244 0-0.841-0.037-1.591-0.121-2.257a4.339 4.339 0 0 0-1.299-2.707c-0.922-0.885-2.415-1.434-4.463-1.639-0.648-0.07-2.268-0.19-4.866-0.366l-1.211-0.084a2.81 2.81 0 0 1-1.28-0.344c-0.454-0.274-0.677-0.852-0.677-1.723 0-0.966 0.256-1.591 0.761-1.881 0.509-0.289 1.548-0.432 3.117-0.432 1.613 0 2.598 0.249 2.956 0.75 0.23 0.337 0.348 0.995 0.348 1.983h6.007c0.037-0.53 0.059-0.926 0.058-1.192 0-3.234-1.306-5.199-3.922-5.902-1.072-0.289-2.868-0.435-5.389-0.435z m65.466 4.646l3.026 10.402h-5.964z m-23.342 0.476h4.083c0.659 0 1.076 0.015 1.252 0.037 0.878 0.154 1.438 0.574 1.668 1.262 0.165 0.49 0.245 1.244 0.245 2.257a10.61 10.61 0 0 1-0.121 1.873c-0.128 0.629-0.384 1.05-0.768 1.259-0.278 0.154-1.054 0.252-2.33 0.3h-4.025Z"/></svg>