<svg fill="#52B0E7" role="img" viewBox="0 0 21 24" xmlns="http://www.w3.org/2000/svg"><title>Sequelize</title><path d="M10.526 0L0.095 5.992v12.016L10.526 24l10.379-5.992V5.992L10.526 0z m-0.027 3.484l7.43 4.227v8.578l-7.43 4.227-7.348-4.182-0.08-8.623 7.428-4.227z m0.049 0.59c-0.977 0.563-1.952 1.127-2.928 1.692v0.254l2.608 1.523v0.482c0.136-0.078 0.262-0.151 0.402-0.232l0.256 0.15v-0.336c0.884-0.507 1.807-1.041 2.568-1.48 0.004-0.123 0.003-0.253 0.004-0.373-0.97-0.56-1.94-1.12-2.91-1.68zM6.835 6.139c-0.971 0.553-1.931 1.123-2.893 1.691v3.402c0.965 0.555 1.929 1.113 2.893 1.67l0.402-0.232v-2.916c0.856-0.494 1.752-1.013 2.491-1.44v-0.484L6.835 6.139z m7.443 0.088l-2.892 1.669v0.338l2.636 1.541v3.067c0.085 0.049 0.171 0.099 0.256 0.148l2.893-1.67V7.918l-2.893-1.691z m-3.648 2.144c-0.964 0.558-1.928 1.115-2.893 1.672v3.424c0.965 0.555 1.929 1.113 2.893 1.67l2.893-1.672v-3.402l-2.893-1.692z m-6.197 3.723c-0.163 0.096-0.328 0.189-0.491 0.285v3.402c0.964 0.557 1.928 1.115 2.893 1.672l0.402-0.232v-2.918c0.163-0.094 0.309-0.179 0.473-0.274-0.163-0.095-0.305-0.176-0.473-0.273v-0.508l-0.402 0.232c-0.825-0.477-1.69-0.976-2.402-1.386z m12.248 0.086l-2.403 1.388c-0.088-0.051-0.167-0.097-0.255-0.148v0.334l-0.493 0.285 0.493 0.287v3.067c0.085 0.049 0.171 0.099 0.255 0.148l2.893-1.672v-3.402l-0.49-0.287z m-8.469 2.138c-0.158 0.091-0.317 0.182-0.475 0.274v3.424c0.964 0.557 1.928 1.114 2.893 1.669l2.893-1.669v-3.403l-0.491-0.287-2.402 1.389c-0.831-0.48-1.701-0.983-2.418-1.397z"/></svg>