<svg fill="#E7282D" role="img" viewBox="0 0 35 24" xmlns="http://www.w3.org/2000/svg"><title>Server Fault</title><path d="M34.523 20.774v3.226h-6.937v-3.226H34.523z m-34.046-0.15h16.321v3.226H0.477z m18.286 0h6.937v3.226h-6.937z m8.825-5.117H34.523v3.226h-6.937l0.002-3.226zM0.477 15.358h16.321v3.226H0.477v-3.226z m18.286 0h6.937v3.226h-6.937v-3.226z m8.825-4.747H34.523v3.225h-6.937l0.002-3.225zM0.477 10.462h16.321v3.222H0.477v-3.222z m18.286 0h6.937v3.222h-6.937v-3.222z m8.823-5.12H34.523v3.233h-6.937V5.342zM0.477 5.199h16.321V8.425H0.477V5.192z m18.286 0h6.937V8.425h-6.937V5.192z m8.825-5.044H34.523v3.228h-6.937v-3.234l0.002 0.006zM0.477 0h16.321v3.226H0.477V0z m18.286 0h6.937v3.226h-6.937V0z"/></svg>