<svg fill="#000000" role="img" viewBox="0 0 22 24" xmlns="http://www.w3.org/2000/svg"><title>Session</title><path d="M18.431 12.193l-4.53-2.51h3.071a4.847 4.847 0 0 0 4.842-4.841A4.848 4.848 0 0 0 16.972 0H6.252a6.073 6.073 0 0 0-6.066 6.066 6.566 6.566 0 0 0 3.383 5.741l4.53 2.51H5.028a4.847 4.847 0 0 0-4.842 4.841A4.848 4.848 0 0 0 5.028 24h10.72a6.073 6.073 0 0 0 6.066-6.066 6.568 6.568 0 0 0-3.383-5.741z m-14.136-1.7a5.065 5.065 0 0 1-2.607-4.309C1.627 3.61 3.79 1.5 6.367 1.5h10.508c1.797 0 3.345 1.378 3.434 3.173a3.345 3.345 0 0 1-3.337 3.51H10.92a0.67 0.67 0 0 0-0.67 0.67l-0.001 4.94zM15.633 22.5H5.124c-1.797 0-3.345-1.378-3.434-3.173a3.345 3.345 0 0 1 3.337-3.51h6.053c0.37 0 0.67-0.3 0.67-0.67v-4.94l5.954 3.3a5.065 5.065 0 0 1 2.608 4.309c0.06 2.575-2.103 4.684-4.679 4.684"/></svg>