<svg fill="#E6C3A5" role="img" viewBox="0 0 16 24" xmlns="http://www.w3.org/2000/svg"><title>Setapp</title><path d="M9.095 8.133a0.619 0.619 0 0 1 0-0.874l2.771-2.773a0.619 0.619 0 0 1 0.877 0l2.77 2.772a0.619 0.619 0 0 1 0 0.875l-2.77 2.773a0.619 0.619 0 0 1-0.877 0z m-1.533-1.533L4.791 3.83a0.618 0.618 0 0 1 0-0.877L7.562 0.182a0.619 0.619 0 0 1 0.876 0l2.773 2.771a0.619 0.619 0 0 1 0 0.877L8.438 6.6a0.619 0.619 0 0 1-0.876 0z m0 2.19a0.619 0.619 0 0 1 0.876 0l2.773 2.772a0.619 0.619 0 0 1 0 0.877l-2.773 2.771a0.619 0.619 0 0 1-0.876 0l-2.771-2.769a0.618 0.618 0 0 1 0-0.877z m-4.305 2.116L0.486 8.133a0.619 0.619 0 0 1 0-0.876l2.771-2.771a0.619 0.619 0 0 1 0.877 0l2.772 2.771a0.621 0.621 0 0 1 0 0.876l-2.773 2.773a0.619 0.619 0 0 1-0.876 0z m9.485 2.19l2.772 2.771a0.618 0.618 0 0 1 0 0.875l-2.77 2.772a0.619 0.619 0 0 1-0.876 0l-2.773-2.772a0.621 0.621 0 0 1 0-0.875l2.773-2.772a0.619 0.619 0 0 1 0.875 0z m-4.304 4.303l2.772 2.772a0.618 0.618 0 0 1 0 0.876l-2.772 2.772a0.619 0.619 0 0 1-0.876 0l-2.771-2.772a0.619 0.619 0 0 1 0-0.877l2.771-2.771a0.619 0.619 0 0 1 0.876 0z m-1.532-1.532a0.619 0.619 0 0 1 0 0.875l-2.772 2.773a0.621 0.621 0 0 1-0.876 0l-2.773-2.772a0.619 0.619 0 0 1 0-0.875l2.772-2.772a0.619 0.619 0 0 1 0.877 0z"/></svg>