<svg fill="#8CC445" role="img" viewBox="0 0 25 24" xmlns="http://www.w3.org/2000/svg"><title>SFML</title><path d="M12.692 0.001C11.589-0.022 10.317 0.545 8.343 1.962L3.41 5.547C0.417 7.721-0.705 8.428 0.869 13.367l1.884 5.8c1.143 3.518 1.469 4.804 6.653 4.833H15.503c3.7 0 5.023 0.087 6.653-4.833l1.884-5.8c1.143-3.519 1.636-4.75-2.541-7.82L16.566 1.962h-0.001C14.976 0.807 13.943 0.026 12.692 0.001z m-0.167 1.937c0.067 0.002 0.134 0.005 0.201 0.01 1.109 0.085 1.727 0.657 2.407 1.151l0.02 0.02-2.189 8.401h-0.952L9.83 3.119c0.007-0.006 0.012-0.014 0.02-0.02 0.796-0.611 1.568-1.101 2.479-1.157l0.196-0.004zM16.746 4.275h0.001l0.092 0.066 3.988 2.896c0.947 0.65 1.725 1.314 1.983 2.38 0.261 1.081-0.097 1.846-0.357 2.645l-2.169 6.692c-0.326 1.101-0.719 2.044-1.653 2.619-0.948 0.583-1.785 0.483-2.625 0.482H8.97c-1.149 0.031-2.167-0.042-3.002-0.753-0.847-0.721-1.01-1.548-1.27-2.348l-2.175-6.692c-0.385-1.085-0.624-2.079-0.205-3.094 0.424-1.029 1.158-1.437 1.838-1.931l3.988-2.896 0.085-0.06 0.86 3.3-0.218 0.158-2.85 2.064c-0.579 0.421-0.686 0.524-0.734 0.562 0.012 0.062 0.037 0.293 0.245 0.872l2.188 6.732c0.204 0.691 0.283 0.826 0.305 0.879 0.067 0.009 0.294 0.051 0.899 0.033h7.082c0.647 0 0.85-0.018 0.925-0.019 0.027-0.059 0.145-0.259 0.317-0.847l2.189-6.738c0.2-0.614 0.247-0.827 0.265-0.886-0.049-0.046-0.208-0.221-0.708-0.562l-2.883-2.09-0.225-0.165 0.86-3.299h0z"/></svg>