<svg fill="#EC1C24" role="img" viewBox="0 0 25 24" xmlns="http://www.w3.org/2000/svg"><title>Shanghai Metro</title><path d="M20.891 11.665h-1.718l-3.435-4.491-3.076 3.609L9.808 7.174l-3.517 4.491H4.122c0.185-4.468 3.876-8.054 8.391-8.055 3.957 0 7.277 2.751 8.157 6.43h3.691C23.42 4.353 18.465 0 12.5 0c-6.638 0-12.011 5.374-12.011 12.011 0 1.103 0.15 2.171 0.429 3.18h6.522l2.415-2.552 2.807 3.481 2.948-3.505 1.904 2.612h2.692c-1.288 2.97-4.26 5.5-7.706 5.5-2.843 0-5.362-1.683-6.881-3.946H1.487C3.344 21.029 7.567 24 12.5 24c6.638 0 12.011-5.373 12.011-12.011 0-0.116 0-0.231-0.012-0.347l-3.608 0.023Z"/></svg>