<svg fill="#FFD500" role="img" viewBox="0 0 26 24" xmlns="http://www.w3.org/2000/svg"><title>Shell</title><path d="M13 0C5.824 0 0.07 5.806 0.07 13.056c0 1.073 0.041 1.48 0.265 2.51l3.946 2.92 0.614 4.865h6.575l0.351 0.245c0.406 0.282 0.76 0.404 1.166 0.404 0.379 0 0.789-0.109 1.103-0.337l0.421-0.312h6.566l0.606-4.865 3.982-2.92c0.224-1.03 0.265-1.437 0.265-2.51C25.93 5.807 20.177 0 13 0z m1.073 2.433c0.97 0 1.916 0.241 2.707 0.699l-2.656 13.521 3.685-12.997c1.141 0.388 2.007 1.014 2.702 1.954l0.027 0.037-5.282 11.438 6.004-10.466 0.036 0.032c0.817 0.763 1.344 1.688 1.607 2.854l-6.675 8.26 6.935-7.004 0.011 0.023c0.273 0.607 0.449 1.465 0.449 2.15 0 0.548-0.026 0.767-0.177 1.347l-3.829 2.804-0.503 3.997h-4.822l-0.557 0.426c-0.214 0.17-0.519 0.287-0.735 0.286-0.214 0-0.52-0.116-0.735-0.286l-0.557-0.425H6.882l-0.479-3.89-3.909-2.872c-0.119-0.47-0.172-0.894-0.172-1.359 0-0.776 0.171-1.605 0.459-2.212l0.014-0.026 6.95 7.059L3.033 9.437c0.269-1.145 0.942-2.252 1.767-2.924l5.972 10.534L5.435 5.643c0.598-0.877 1.562-1.568 2.743-1.969l3.69 13.004L9.073 3.182l0.059-0.032c0.877-0.485 1.722-0.708 2.647-0.708 0.21 0 0.308 0.004 0.569 0.032l0.633 14.061 0.495-14.071c0.241-0.027 0.333-0.031 0.597-0.031z"/></svg>