<svg fill="#189EFF" role="img" viewBox="0 0 25 24" xmlns="http://www.w3.org/2000/svg"><title>Shopware</title><path d="M24.45 10.891a0.174 0.174 0 0 0-0.061-0.118c-2.504-2.078-4.53-2.927-6.992-2.926-1.313 0-2.32 0.264-2.992 0.782-0.582 0.449-0.89 1.077-0.89 1.813 0 2.061 2.519 3.001 5.437 4.089 1.503 0.561 3.058 1.141 4.484 1.932a0.163 0.163 0 0 0 0.083 0.022 0.187 0.187 0 0 0 0.059-0.011c0.046-0.017 0.085-0.052 0.102-0.1 0.545-1.396 0.822-2.868 0.822-4.375a13.084 13.084 0 0 0-0.052-1.108z m-4.811 10.481c-1.042-0.785-2.58-1.383-4.207-2.013-1.937-0.75-4.133-1.603-5.781-2.913-1.867-1.487-2.776-3.363-2.776-5.734 0-2.128 0.883-3.947 2.553-5.262 1.873-1.474 4.713-2.255 8.209-2.255 0.966 0 1.889 0.059 2.743 0.177a0.17 0.17 0 0 0 0.179-0.098 0.17 0.17 0 0 0-0.041-0.201C18.315 1.09 15.467 0 12.501 0c-3.206 0-6.22 1.247-8.488 3.515C1.747 5.781 0.498 8.795 0.498 11.999c0 3.206 1.247 6.22 3.515 8.486 2.266 2.266 5.28 3.515 8.488 3.515 2.591 0 5.057-0.813 7.136-2.351a0.171 0.171 0 0 0 0.07-0.137 0.174 0.174 0 0 0-0.068-0.14Z"/></svg>