<svg fill="#58B1E4" role="img" viewBox="0 0 25 24" xmlns="http://www.w3.org/2000/svg"><title>Shortcut</title><path d="M24.5 6a6 6 0 0 0-6-6H6.5a5.975 5.975 0 0 0-4.242 1.758 5.998 5.998 0 0 0 0 8.484l2.137 2.137A6.007 6.007 0 0 0 0.5 18a6 6 0 0 0 6 6h12a5.975 5.975 0 0 0 4.242-1.758 5.998 5.998 0 0 0 0-8.484l-2.137-2.137A6.002 6.002 0 0 0 24.5 6zM3.904 20.598c-0.694-0.694-1.075-1.615-1.075-2.596s0.38-1.903 1.075-2.595a3.65 3.65 0 0 1 2.443-1.074l7.34 7.34H6.5a3.664 3.664 0 0 1-2.596-1.075z m17.192-5.194C21.79 16.1 22.17 17.02 22.17 18s-0.38 1.904-1.075 2.596A3.644 3.644 0 0 1 18.5 21.67a3.64 3.64 0 0 1-2.596-1.075l-12-11.998C3.21 7.904 2.83 6.983 2.83 6.002s0.38-1.903 1.075-2.595C4.6 2.712 5.52 2.33 6.5 2.33s1.904 0.381 2.596 1.076l12 11.997z m0-6.806a3.65 3.65 0 0 1-2.443 1.073l-7.34-7.342H18.5a3.64 3.64 0 0 1 2.596 1.075C21.79 4.1 22.17 5.02 22.17 6s-0.38 1.904-1.075 2.598z"/></svg>