<svg fill="#0A0D14" role="img" viewBox="0 0 27 24" xmlns="http://www.w3.org/2000/svg"><title>Showwcase</title><path d="M9.671 1.931c0.622-0.114 1.251-0.197 1.883-0.245 0.142-0.011 0.242-0.034 0.304-0.134 0.104-0.17 0.289-0.234 0.546-0.253 0.693-0.052 1.381-0.056 2.077-0.008 0.334 0.022 0.559 0.108 0.687 0.328 0.051 0.087 0.138 0.119 0.269 0.128 0.272 0.019 0.544 0.048 0.814 0.085 0.351 0.047 0.699 0.107 1.063 0.167a2.286 2.286 0 0 0-0.271-0.569c-0.421-0.672-1.096-1.131-2.1-1.317-0.754-0.14-1.518-0.127-2.282-0.083-0.478 0.028-0.936 0.122-1.362 0.287-0.889 0.341-1.326 0.923-1.629 1.614Zm-8.977 0.614c0.302 0.114 0.586 0.272 0.841 0.47 0.559 0.428 0.943 0.937 1.3 1.459 0.396 0.58 0.708 1.186 1.001 1.8 0.059-0.037 0.063-0.078 0.076-0.12 0.15-0.486 0.326-0.966 0.551-1.435 0.4-0.833 0.934-1.604 1.909-2.17 0.098-0.057 0.089-0.097 0.017-0.164a5.994 5.994 0 0 0-1.03-0.784 1.984 1.984 0 0 0-1.061-0.267c-0.881 0.014-1.683 0.222-2.444 0.528-0.438 0.176-0.844 0.381-1.16 0.683Zm8.05-0.183c-1.191 0.267-2.11 0.784-2.747 1.562-0.509 0.619-0.787 1.303-1.04 1.992a16.926 16.926 0 0 0-0.612 2.188 58.464 58.464 0 0 0-0.654 3.572c-0.136 0.87-0.261 1.742-0.378 2.616-0.167 1.239-0.317 2.478-0.328 3.725-0.011 1.094 0.023 2.184 0.489 3.24 0.304 0.692 0.829 1.261 1.711 1.641 0.914 0.392 1.916 0.604 2.942 0.764 1.518 0.237 3.061 0.314 4.608 0.333 1.664 0.018 3.327-0.011 4.978-0.185 1.211-0.128 2.397-0.322 3.52-0.689 1.022-0.333 1.767-0.853 2.173-1.626 0.402-0.767 0.54-1.564 0.586-2.373 0.106-1.827-0.138-3.641-0.393-5.456a92.676 92.676 0 0 0-0.637-3.986c-0.15-0.811-0.311-1.621-0.52-2.425-0.244-0.933-0.533-1.858-1.034-2.74-0.611-1.074-1.637-1.833-3.196-2.16-3.778-0.789-7.821-0.362-9.468 0.007Zm15.744 10.829c0 0.106 0.006 0.211 0.042 0.314l0.123 0.851c-0.018 0.053-0.009 0.104 0.027 0.174 0.029-0.071 0.092-0.111 0.072-0.172l0.374-1.332c0.026-0.05 0.05-0.099 0.036-0.152 0.072-0.122 0.089-0.253 0.134-0.38 0.271-0.767 0.456-1.547 0.628-2.328 0.192-0.859 0.357-1.722 0.569-2.577 0.262-1.053 0.379-2.112 0.329-3.18-0.019-0.396-0.044-0.793-0.191-1.204-0.122 0.069-0.229 0.12-0.322 0.184-0.429 0.289-0.733 0.647-1.007 1.016-0.777 1.056-1.281 2.186-1.752 3.326-0.023 0.058-0.01 0.113 0.003 0.171 0.244 1.033 0.422 2.074 0.589 3.116 0.117 0.724 0.23 1.449 0.345 2.173zM0.241 3.482c-0.078 0.227-0.073 0.458-0.075 0.689-0.002 1.046 0.154 2.082 0.343 3.119 0.163 0.9 0.391 1.792 0.612 2.685 0.212 0.867 0.434 1.731 0.667 2.595 0.222 0.821 0.302 1.652 0.386 2.484 0.006 0.06-0.008 0.126 0.05 0.187 0.011-0.018 0.026-0.03 0.028-0.043 0.151-1.219 0.324-2.434 0.521-3.647 0.191-1.182 0.374-2.366 0.645-3.54 0.036-0.153 0.078-0.302 0-0.463-0.157-0.316-0.274-0.64-0.425-0.957-0.397-0.838-0.819-1.669-1.451-2.432-0.256-0.309-0.522-0.617-0.933-0.838-0.092-0.058-0.193-0.161-0.305-0.125-0.093 0.03-0.059 0.157-0.078 0.242-0.002 0.014 0.009 0.03 0.015 0.044z m24.72-1.663a7.98 7.98 0 0 0-2.699-0.445 1.389 1.389 0 0 0-0.748 0.219c-0.381 0.244-0.644 0.549-0.871 0.875-0.047 0.067 0.003 0.093 0.063 0.128 0.259 0.154 0.5 0.337 0.717 0.545 0.751 0.714 1.136 1.547 1.453 2.4 0.097 0.26 0.182 0.522 0.284 0.815 0.311-0.638 0.611-1.244 1.003-1.822 0.478-0.702 0.992-1.388 1.888-1.869 0.07-0.037 0.144-0.062 0.217-0.094 0.093-0.024 0.037-0.049 0-0.073-0.018-0.053-0.067-0.091-0.124-0.125a0.472 0.472 0 0 0-0.211-0.145 2.708 2.708 0 0 0-0.662-0.312c-0.1-0.039-0.19-0.092-0.311-0.097z"/></svg>