<svg fill="#2D2E83" role="img" viewBox="0 0 43 24" xmlns="http://www.w3.org/2000/svg"><title>Showpad</title><path d="M42.864 11.977c0-0.159 0-0.318-0.023-0.5v-0.068c0-0.136-0.023-0.273-0.023-0.432v-0.023c-0.477-4.591-4.114-8.205-8.682-8.681h-0.022c-0.136-0.023-0.273-0.023-0.432-0.023h-0.068c-0.159 0-0.318-0.023-0.5-0.023-2.591 0-5.068 1.023-6.887 2.864l-3.318 3.295 2.409 2.409 2.387-2.409h-0.023l0.909-0.909c1.182-1.205 2.818-1.864 4.5-1.863h0.364c0.091 0 0.182 0 0.272 0.022h0.023c3 0.318 5.364 2.682 5.659 5.66v0.022c0 0.091 0.023 0.182 0.023 0.273v0.727c0 0.091-0.023 0.182-0.023 0.273-0.227 2.182-1.568 4.091-3.522 5.045l-0.069 0.023a0.679 0.679 0 0 0-0.182 0.091l-0.136 0.046-0.114 0.045-0.204 0.068-0.046 0.023c-2.296 0.795-4.841 0.204-6.568-1.523l-0.886-0.886-6-5.978-9.546-9.545-2.409 2.409L0.136 12l2.409 2.409 9.591 9.591 2.409-2.409 6-6-2.409-2.409-6 6L4.932 12l7.204-7.205 3.591 3.614 9.591 9.591 0.887 0.886c1.818 1.841 4.318 2.864 6.909 2.841 1.091 0 2.159-0.182 3.181-0.522l0.091-0.023c0.091-0.045 0.205-0.068 0.296-0.114l0.182-0.068 0.181-0.091 0.273-0.136 0.091-0.046c3.023-1.477 5.068-4.409 5.432-7.75 0.023-0.136 0.023-0.296 0.023-0.432v-0.568z"/></svg>