<svg fill="#B10000" role="img" viewBox="0 0 25 24" xmlns="http://www.w3.org/2000/svg"><title>Showtime</title><path d="M17.49 12.167c0-4.808 1.779-7.84 3.903-8.16C19.269 1.397 15.721 0 12.499 0 8.951 0 5.765 1.54 3.57 3.985c2.094 0.416 2.806 2.174 2.806 4.892H3.814c0-1.605-0.334-2.436-1.284-2.436-0.427 0-0.758 0.217-0.954 0.587-0.027 0.06-0.057 0.122-0.084 0.184a2.115 2.115 0 0 0-0.114 0.71c0 3.324 5.46 3.159 5.46 8.27 0 1.995-1.53 3.855-3.252 3.855C5.85 22.52 8.941 24 12.5 24c3.46 0 6.577-1.464 8.766-3.808-2.018-0.509-3.776-3.413-3.776-8.025z m-1.142 7.921h-2.746V13.26h-2.967v6.83H7.884V4.327h2.746v6.348h2.972V4.327h2.746v15.761zM2.872 17.58c-1.32 0-2.399-2.32-2.372-5.8 1.905 1.72 3.681 2.11 3.681 4.145 0 0.981-0.543 1.655-1.309 1.655zM24.5 12.002c0 2.844-0.896 5.409-2.1 5.409-1.445 0-2.181-2.703-2.181-5.498 0-2.654 0.771-5.308 2.181-5.308 1.676 0 2.1 4.102 2.1 5.397z"/></svg>