<svg fill="#101227" role="img" viewBox="0 0 27 24" xmlns="http://www.w3.org/2000/svg"><title>SideQuest</title><path d="M26.846 10.231L20.939 0H9.124l2.8 4.848 0.855 1.48-1.021 1.771H9.716l-0.855-1.483-2.799-4.849L0.154 11.999l5.907 10.232 2.8-4.85 0.855-1.482h2.042l1.022 1.772-0.856 1.481-2.799 4.848H20.941L26.846 13.769h-7.308l-1.022-1.77 1.022-1.768H26.846ZM6.035 4.58L7.127 6.473 5.451 9.376h7.045l3.524-6.102h-3.353l-1.093-1.893h7.836l-5.764 9.984H2.114l3.921-6.785Zm5.539 18.039l1.093-1.894h3.353l-3.524-6.104H5.451l1.676 2.904-1.092 1.895-3.921-6.789h11.532l1.517 2.628 4.247 7.36h-7.836Zm8.991-4.518l1.673-2.903h2.19l-3.92 6.787-3.458-5.986-2.31-4 2.735-4.734 3.033-5.25 3.92 6.787h-2.19l-1.673-2.904-3.526 6.101 3.526 6.102Z"/></svg>