<svg fill="#009999" role="img" viewBox="0 0 146 24" xmlns="http://www.w3.org/2000/svg"><title>Siemens</title><path d="M9.357 0c1.452 0 3.569 0.278 6.327 0.847v4.391a14.909 14.909 0 0 0-5.722-1.288c-2.48 0-3.72 0.714-3.72 2.141 0 0.532 0.248 0.968 0.75 1.306 0.417 0.272 1.56 0.847 3.436 1.73 2.698 1.258 4.494 2.347 5.383 3.272 1.065 1.101 1.597 2.522 1.597 4.264 0 2.51-1.04 4.415-3.121 5.74-1.687 1.065-3.871 1.597-6.563 1.597-2.268 0-4.554-0.278-6.853-0.841v-4.566c2.48 0.817 4.681 1.228 6.593 1.228 2.643 0 3.962-0.732 3.962-2.19a1.827 1.827 0 0 0-0.575-1.373c-0.393-0.393-1.403-0.937-3.024-1.633-2.909-1.258-4.808-2.323-5.685-3.206a6.042 6.042 0 0 1-1.718-4.415c0-2.28 0.829-4.028 2.498-5.226 1.645-1.185 3.786-1.778 6.435-1.778z m128.166 0c1.488 0 3.417 0.242 5.782 0.744l0.544 0.097v4.397a14.946 14.946 0 0 0-5.734-1.288c-2.474 0-3.702 0.714-3.701 2.141 0 0.532 0.242 0.968 0.744 1.306 0.399 0.26 1.548 0.841 3.447 1.73 2.679 1.258 4.476 2.347 5.377 3.272 1.065 1.101 1.597 2.522 1.597 4.264 0 2.51-1.04 4.415-3.109 5.74-1.694 1.065-3.889 1.597-6.574 1.597-2.274 0-4.56-0.278-6.859-0.841v-4.566c2.462 0.817 4.657 1.228 6.593 1.228 2.643 0 3.962-0.732 3.961-2.19 0-0.544-0.181-1.004-0.556-1.373-0.399-0.393-1.409-0.937-3.043-1.633-2.903-1.246-4.796-2.31-5.685-3.206a6.03 6.03 0 0 1-1.718-4.427c0-2.274 0.829-4.016 2.498-5.214 1.645-1.185 3.792-1.778 6.436-1.778z m-76.658 0.399l5.565 14.782 5.698-14.782h7.602v23.135h-5.854v-16.379l-6.484 16.615h-3.823l-6.363-16.615v16.379H52.857v-23.135z m-33.792 0v23.135H20.898v-23.135z m21.496 0v4.186H38.686v5.225H47.293v3.811H38.686v5.492h10.143v4.415h-16.089v-23.129z m52.663 0v4.186h-9.883v5.225h8.601v3.811h-8.601v5.492h10.143v4.415H85.398v-23.129z m11.48 0l7.591 15.484v-15.484h4.349v23.135h-6.956l-7.79-15.695v15.695h-4.355v-23.135z"/></svg>