<svg fill="#3A76F0" role="img" viewBox="0 0 24 24" xmlns="http://www.w3.org/2000/svg"><title>Signal</title><path d="M9.12 0.351l0.27 1.09a10.845 10.845 0 0 0-3.015 1.248l-0.578-0.964A11.955 11.955 0 0 1 9.12 0.351z m5.76 0l-0.27 1.09a10.845 10.845 0 0 1 3.015 1.248l0.581-0.964A11.955 11.955 0 0 0 14.88 0.351zM1.725 5.798A11.955 11.955 0 0 0 0.351 9.12l1.09 0.27A10.845 10.845 0 0 1 2.69 6.375z m-0.6 6.202a10.856 10.856 0 0 1 0.122-1.63l-1.112-0.168a12.043 12.043 0 0 0 0 3.596l1.112-0.169A10.856 10.856 0 0 1 1.125 12.001z m17.078 10.275l-0.578-0.964a10.845 10.845 0 0 1-3.011 1.247l0.27 1.091a11.955 11.955 0 0 0 3.319-1.374zM22.875 12.001a10.856 10.856 0 0 1-0.122 1.63l1.112 0.168a12.043 12.043 0 0 0 0-3.596l-1.112 0.169a10.856 10.856 0 0 1 0.122 1.63z m0.774 2.88l-1.09-0.27a10.845 10.845 0 0 1-1.248 3.015l0.964 0.581a11.955 11.955 0 0 0 1.374-3.326z m-10.02 7.875a10.952 10.952 0 0 1-3.258 0l-0.17 1.112a12.043 12.043 0 0 0 3.597 0z m7.125-4.303a10.914 10.914 0 0 1-2.304 2.302l0.668 0.906a12.019 12.019 0 0 0 2.542-2.535zM18.45 3.246a10.914 10.914 0 0 1 2.304 2.304l0.906-0.675a12.019 12.019 0 0 0-2.535-2.535zM3.246 5.55A10.914 10.914 0 0 1 5.55 3.246l-0.675-0.906A12.019 12.019 0 0 0 2.34 4.875z m19.029 0.248l-0.964 0.577a10.845 10.845 0 0 1 1.247 3.011l1.091-0.27a11.955 11.955 0 0 0-1.374-3.318zM10.371 1.247a10.952 10.952 0 0 1 3.258 0L13.8 0.135a12.043 12.043 0 0 0-3.597 0zM3.823 21.958L1.5 22.501l0.542-2.323-1.095-0.257-0.542 2.323a1.125 1.125 0 0 0 1.352 1.352l2.321-0.532z m-2.642-3.041l1.095 0.255 0.375-1.61a10.828 10.828 0 0 1-1.21-2.952l-1.09 0.27a11.91 11.91 0 0 0 1.106 2.852z m5.25 2.437l-1.61 0.375 0.255 1.095 1.185-0.275a11.91 11.91 0 0 0 2.851 1.106l0.27-1.091a10.828 10.828 0 0 1-2.943-1.217zM12 2.251a9.75 9.75 0 0 0-8.25 14.938l-0.938 4 4-0.938A9.75 9.75 0 1 0 12 2.251z"/></svg>