<svg fill="#111111" role="img" viewBox="0 0 15 24" xmlns="http://www.w3.org/2000/svg"><title>Simple Icons</title><path d="M7.5 0C4.188 0 1.5 2.688 1.5 6s2.688 6 6 6c4.64-0.001 7.526 5.039 5.176 9.04h1.68A7.507 7.507 0 0 0 7.5 10.5 4.502 4.502 0 0 1 3 6c0-2.484 2.016-4.5 4.5-4.5s4.5 2.016 4.5 4.5H13.5c0-3.312-2.688-6-6-6Zm0 3a3 3 0 0 0 0 6c4 0 4-6 0-6Zm0 1.5A1.5 1.5 0 0 1 9 6v0.002c-0.002 1.336-1.617 2.003-2.561 1.058C5.495 6.115 6.164 4.5 7.5 4.5ZM3 15v1.5H4.5v6H0V24h15v-1.5H10.5v-6h1.5V15Zm3 1.5h3v6h-3z m-6 1.47c0 1.09 0.216 2.109 0.644 3.069h1.684A5.957 5.957 0 0 1 1.5 17.97Z"/></svg>