<svg fill="#EA319F" role="img" viewBox="0 0 33 24" xmlns="http://www.w3.org/2000/svg"><title>SimpleLogin</title><path d="M32 0.727c0.143 0.142 0.269 0.3 0.375 0.471 0.241 0.397 0.368 0.85 0.368 1.313v12.999c0 0.463-0.129 0.919-0.371 1.315a2.57 2.57 0 0 1-0.519 0.601c-0.453 0.387-1.029 0.6-1.625 0.599H16.13a13.228 13.228 0 0 1-7.038 5.909l-0.184 0.066-0.183-0.07a13.185 13.185 0 0 1-6.09-4.773A13.132 13.132 0 0 1 0.257 11.595a13.257 13.257 0 0 1 0.308-2.843l0.07-0.321 0.319-0.078c0.074-0.018 0.148-0.038 0.22-0.057a16.214 16.214 0 0 0 7.536-4.415l0.054-0.059 0.314-0.323v-0.988c0-0.464 0.129-0.92 0.371-1.316 0.106-0.171 0.231-0.328 0.377-0.468a2.484 2.484 0 0 1 1.614-0.727h18.942a2.491 2.491 0 0 1 1.618 0.727Zm-20.405 0.468c-0.045 0-0.089 0.001-0.133 0.006h-0.192l0.031 0.028 9.225 8.161a0.589 0.589 0 0 0 0.779 0l9.225-8.161 0.031-0.028h-0.198a1.41 1.41 0 0 0-0.132-0.006H11.595Zm-1.216 0.819a1.279 1.279 0 0 0-0.097 0.497v2.147a16.239 16.239 0 0 0 6.684 3.629l0.154 0.039 0.077 0.02 0.321 0.079 0.069 0.323a11.492 11.492 0 0 1 0.135 0.765l0.565-0.5-7.908-6.999ZM3.41 18.387a12.248 12.248 0 0 0 5.514 4.483 12.178 12.178 0 0 0 7.688-13.585 17.239 17.239 0 0 1-7.519-4.289 17.259 17.259 0 0 1-7.557 4.3 12.242 12.242 0 0 0-0.218 2.299 12.233 12.233 0 0 0 2.092 6.792Zm14.461-6.901a13.142 13.142 0 0 1-1.133 5.339h13.823l-0.038-0.034-7.886-6.975-1.333 1.178a0.582 0.582 0 0 1-0.778 0l-1.334-1.178-1.332 1.178c0.007 0.165 0.011 0.328 0.011 0.492Zm13.575 4.52a1.272 1.272 0 0 0 0.097-0.496l0.002-12.998a1.309 1.309 0 0 0-0.096-0.492l-7.905 6.995 7.902 6.991ZM9.203 6.864a13.86 13.86 0 0 0 5.927 3.335c0.1 0.547 0.153 1.1 0.16 1.655v0.111a9.79 9.79 0 0 1-2.308 6.301l-0.009 0.011a9.792 9.792 0 0 1-4.02 2.836 9.826 9.826 0 0 1-6.112-9.058c0-0.62 0.058-1.239 0.175-1.848a13.877 13.877 0 0 0 6.072-3.453l0.114 0.11h0.001Zm-4.3 6.839l3.725 3.725h0.001l5.186-5.185-1.147-1.145-4.038 4.039-2.582-2.581-1.145 1.147Z"/></svg>