<svg fill="#3361CC" role="img" viewBox="0 0 25 24" xmlns="http://www.w3.org/2000/svg"><title>Simplenote</title><path d="M3.966 3.62c-0.004 0.052-0.014 0.104-0.018 0.158-0.406 4.626 2.747 8.548 8.03 9.994 2.024 0.553 5.374 2.018 5.06 5.599a5.063 5.063 0 0 1-1.803 3.46c-1.022 0.857-2.308 1.21-3.64 1.166C5.647 23.794 0.5 18.367 0.5 12.05c0-3.285 1.325-6.262 3.467-8.428zM10.32 1.032c0.907-0.762 2.056-1.078 3.235-1.027C19.496 0.27 24.5 5.67 24.5 11.936c0 2.855-1.001 5.478-2.667 7.536 0.332-4.908-2.94-8.897-8.59-10.441-2.337-0.64-4.749-2.274-4.514-4.948A4.467 4.467 0 0 1 10.32 1.03z"/></svg>