<svg fill="#E6162D" role="img" viewBox="0 0 30 24" xmlns="http://www.w3.org/2000/svg"><title>Sina Weibo</title><path d="M12.657 22.251c-4.898 0.482-9.131-1.732-9.449-4.951-0.319-3.213 3.398-6.216 8.301-6.701 4.901-0.485 9.13 1.729 9.448 4.948 0.319 3.202-3.398 6.219-8.297 6.699l-0.003 0.005zM11.367 18.428c-0.473 0.759-1.488 1.089-2.253 0.742-0.754-0.344-0.977-1.221-0.5-1.962 0.467-0.733 1.448-1.06 2.208-0.741 0.766 0.324 1.01 1.197 0.545 1.961z m1.564-2.004c-0.174 0.292-0.553 0.435-0.849 0.312-0.291-0.111-0.386-0.445-0.218-0.722 0.17-0.28 0.537-0.426 0.828-0.296 0.294 0.111 0.388 0.443 0.222 0.741l0.017-0.035z m0.217-3.349c-2.331-0.607-4.967 0.554-5.983 2.609-1.03 2.099-0.032 4.423 2.323 5.185 2.442 0.788 5.318-0.42 6.321-2.684 0.985-2.208-0.248-4.486-2.661-5.11z m9.314-1.507c-0.426-0.129-0.702-0.222-0.498-0.758 0.462-1.203 0.517-2.222 0-2.96-0.962-1.37-3.59-1.297-6.607-0.037 0 0-0.943 0.408-0.703-0.334 0.463-1.499 0.388-2.739-0.333-3.46-1.648-1.647-5.997 0.055-9.715 3.794C1.832 10.608 0.22 13.568 0.22 16.124c0 4.903 6.28 7.876 12.423 7.876 8.05 0 13.41-4.681 13.41-8.4 0-2.244-1.905-3.515-3.591-4.044v0.012z m2.35-6.272c-0.943-1.054-2.35-1.462-3.645-1.185-0.537 0.111-0.87 0.629-0.759 1.148 0.111 0.517 0.629 0.851 1.148 0.742 0.629-0.129 1.314 0.054 1.776 0.573 0.463 0.519 0.574 1.203 0.389 1.814-0.168 0.5 0.11 1.054 0.628 1.222 0.499 0.147 1.056-0.129 1.222-0.631 0.406-1.258 0.148-2.683-0.796-3.738l0.037 0.055z m2.979-2.703c-1.941-2.164-4.81-2.979-7.457-2.424-0.611 0.128-1 0.723-0.869 1.331 0.128 0.611 0.722 1.001 1.332 0.871 1.887-0.408 3.923 0.185 5.291 1.704 1.37 1.535 1.76 3.625 1.167 5.438-0.203 0.591 0.131 1.24 0.721 1.425 0.59 0.203 1.221-0.128 1.425-0.721 0.831-2.572 0.297-5.515-1.647-7.68l0.037 0.056z"/></svg>