<svg fill="#258AAF" role="img" viewBox="0 0 21 24" xmlns="http://www.w3.org/2000/svg"><title>SitePoint</title><path d="M0.971 10.533l1.771 1.688 5.598 5.141 2.4-2.291c0.21-0.297 0.194-0.705-0.046-0.985L8.49 12.184l0.01-0.005-2.371-2.266c-0.279-0.314-0.27-0.78 0.021-1.079l6.39-6.076L9.646 0 0.975 8.238c-0.664 0.633-0.664 1.66 0 2.295h-0.004z m19.056 2.937l-1.77-1.691-5.595-5.142-2.411 2.291c-0.221 0.3-0.207 0.705 0.045 0.985l2.205 1.891h-0.006l2.369 2.265c0.27 0.314 0.27 0.766-0.029 1.064l-6.391 6.075L11.355 24l8.67-8.238c0.664-0.633 0.666-1.659 0-2.295l0.002 0.003z"/></svg>