<svg fill="#F7B500" role="img" viewBox="0 0 27 24" xmlns="http://www.w3.org/2000/svg"><title>Sketch</title><path d="M13.5 0l7.535 7.409V0.837L13.5 0z m0 0l-6.753 7.814h13.506l-6.753-7.814z m0 0L5.965 0.837v6.572L13.5 0zM5.965 0.837L0.105 8.651l4.929-0.759L5.965 0.837zM0.105 8.651l13.349 15.297 0.009-0.016L5.064 8.651H0.105z m20.93-7.814l0.931 7.055L26.895 8.651l-5.86-7.814zM26.895 8.651h-5.03l-8.397 15.282 0.032 0.067L26.895 8.651zM13.5 24l-0.035-0.064-0.009 0.014 0.044 0.05zM6.173 8.651l7.292 15.278L20.827 8.651H6.173Z"/></svg>