<svg fill="#005F9E" role="img" viewBox="0 0 23 24" xmlns="http://www.w3.org/2000/svg"><title>SketchUp</title><path d="M0.468 9.027l7.717 4.428-0.006 1.32-4.39-2.518-2.763 1.57 7.148 4.12 0.005 1.27-7.658-4.405c0.02 0.516 0.488 2.106 1.383 3.337 0.91 1.247 1.946 1.776 1.946 1.776L10.928 24V11.849L0.475 5.846z m22.064-3.8L14.72 0.723S13.482 0 11.508 0C9.452 0 8.26 0.746 8.26 0.746l-7.236 4.14 11.009 6.328V24l7.245-4.136s1.295-0.715 2.279-2.414c0.867-1.496 0.975-2.943 0.975-2.943zM10.751 7.308s1.615-0.298 2.98 0.49l2.171 1.25s0.003 1.097 0.003 2.736c0 1.313-1.112 2.674-1.112 2.674l0.002-4.816z m6.402 10.562l-2.358 1.353v-1.269l1.835-1.05c1.748-1.26 2.037-3.117 2.037-3.761l-0.007-5.705-5.006-2.881s-0.76-0.499-2.129-0.499c-1.367 0-2.113 0.461-2.113 0.461L7.654 5.53l-1.11-0.641L8.973 3.5s0.95-0.527 2.544-0.527c1.462 0 2.6 0.571 2.6 0.571L19.77 6.81l-0.007 6.226c0.04 0.957-0.406 3.296-2.61 4.835z"/></svg>