<svg fill="#00FF84" role="img" viewBox="0 0 49 24" xmlns="http://www.w3.org/2000/svg"><title>Skillshare</title><path d="M20.024 0a1.551 1.551 0 0 0-1.561 1.543c0 0.85 0.699 1.541 1.561 1.54a1.551 1.551 0 0 0 1.559-1.54 1.551 1.551 0 0 0-1.559-1.543zM4.098 4.127C1.929 4.127 0.496 5.181 0.496 6.778c0 1.28 0.769 2.14 2.116 2.473l1.688 0.424c0.501 0.157 0.703 0.404 0.7 0.788 0 0.424-0.424 0.66-0.856 0.68-0.626 0.028-1.084-0.311-1.118-0.852H0.272c0.04 1.615 1.619 2.75 3.985 2.75 2.237 0 3.689-1.036 3.689-2.79 0-1.28-0.806-2.088-2.134-2.439l-1.635-0.453c-0.553-0.164-0.745-0.408-0.745-0.751 0-0.374 0.295-0.594 0.676-0.638 0.553-0.065 0.981 0.176 0.981 0.772v0.04H7.904v-0.04h-0.002c0-1.684-1.425-2.613-3.804-2.613z m5.017 0.234v8.46h2.661v-3.677l2.572 3.675h3.271l-3.289-4.444 3.239-3.992h-3.15l-2.643 3.554v-3.574z m9.578 0v8.46h2.661v-8.46z m4.208 0v8.462h6.497v-2.512h-3.82V4.363z m7.949 0v8.462h6.497v-2.512h-3.82V4.363z m-26.752 10.717c-2.168 0-3.602 1.054-3.602 2.649 0 1.282 0.769 2.14 2.116 2.473l1.688 0.424c0.501 0.157 0.703 0.404 0.7 0.788 0 0.424-0.424 0.662-0.856 0.682-0.626 0.028-1.084-0.313-1.118-0.854H0.272c0.04 1.615 1.619 2.75 3.985 2.75 2.237 0 3.689-1.034 3.689-2.79 0-1.28-0.806-2.088-2.134-2.437l-1.635-0.455c-0.553-0.164-0.745-0.406-0.745-0.749 0-0.376 0.295-0.596 0.676-0.64 0.553-0.065 0.981 0.176 0.981 0.774v0.038H7.904v-0.04h-0.002c0-1.684-1.425-2.613-3.804-2.613z m18.555 0.03c-2.453 0-4.01 1.924-4.01 4.446 0 2.538 1.454 4.446 3.973 4.444 1.171 0 2.221-0.577 2.677-1.417v1.191h2.662v-8.438h-2.662v1.21c-0.454-0.858-1.417-1.436-2.642-1.436z m17.668 0c-2.746 0-4.549 1.68-4.549 4.446 0 2.819 1.767 4.446 4.636 4.446 2.241 0 3.939-1.102 4.199-2.766h-2.624c-0.228 0.525-0.753 0.753-1.575 0.753-1.191 0-1.926-0.596-1.979-1.698h6.233c0.052-0.472 0.071-0.735 0.07-1.173 0-2.38-1.785-4.008-4.411-4.008z m-5.795 0.087c-1.03 0-2.029 0.646-2.325 1.908v-1.769h-2.68v8.438h2.68v-3.257c0-1.872 0.771-2.817 2.22-2.816a5.653 5.653 0 0 1 0.794 0.05l0.014-2.483a2.584 2.584 0 0 0-0.701-0.071zM9.115 15.332v8.462h2.625v-2.998h3.21v2.998h2.625V15.332h-2.625v3.039H11.74V15.332z m31.19 1.577c1.139 0 1.769 0.596 1.787 1.716H38.431c0.016-1.032 0.719-1.716 1.872-1.716z m-16.919 0.438c1.333 0 2.013 0.997 2.012 2.207 0 1.226-0.68 2.221-2.012 2.221-1.244 0-2.013-0.945-2.013-2.221 0-1.28 0.771-2.207 2.013-2.207z m23.783 3.515a1.551 1.551 0 0 0-1.558 1.543c0 0.852 0.697 1.543 1.558 1.543a1.551 1.551 0 0 0 1.559-1.543 1.551 1.551 0 0 0-1.559-1.543z"/></svg>