<svg fill="#0072C9" role="img" viewBox="0 0 40 24" xmlns="http://www.w3.org/2000/svg"><title>Sky</title><path d="M12.469 14.703c0 2.323-1.523 4.006-4.609 4.368-2.204 0.24-5.448-0.041-7.011-0.242-0.041-0.24-0.121-0.56-0.12-0.8 0-2.044 1.082-2.485 2.122-2.485 1.084 0 2.766 0.201 4.008 0.201 1.362 0 1.802-0.482 1.802-0.922 0-0.601-0.56-0.841-1.642-1.042l-2.885-0.56C1.69 12.739 0.409 11.058 0.409 9.295c0-2.163 1.523-4.006 4.568-4.327 2.282-0.242 5.087 0.039 6.61 0.199 0.039 0.281 0.08 0.522 0.08 0.802 0 2.044-1.082 2.485-2.083 2.485-0.802 0-2.003-0.162-3.406-0.162-1.443 0-2.003 0.402-2.003 0.882 0 0.522 0.56 0.722 1.442 0.881l2.804 0.523c2.844 0.48 4.047 2.122 4.048 4.125m5.048 2.484c0 1.242-0.482 1.964-2.926 1.964-0.32 0-0.601-0.041-0.881-0.082V2.563c0-1.241 0.441-2.563 2.884-2.563 0.32 0 0.642 0.039 0.923 0.08z m9.934 6.411c0.322 0.16 0.963 0.359 1.804 0.4 1.402 0.041 2.163-0.521 2.764-1.763L39.591 5.327a4.082 4.082 0 0 0-1.562-0.359c-0.962 0-2.284 0.199-3.125 2.163l-2.444 5.77-4.808-7.853c-0.32-0.082-1.081-0.242-1.642-0.242-1.682 0-2.645 0.642-3.646 1.684l-4.687 5.128 3.765 5.929c0.682 1.082 1.603 1.642 3.085 1.643 0.962 0 1.802-0.24 2.163-0.4l-4.527-6.851 3.205-3.405 5.29 8.293Z"/></svg>