<svg fill="#3167FF" role="img" viewBox="0 0 17 24" xmlns="http://www.w3.org/2000/svg"><title>Skypack</title><path d="M16.32 11.27l-5.997-2.994 5.999-2.993c0.28-0.14 0.453-0.42 0.453-0.734a0.815 0.815 0 0 0-0.454-0.735L8.866 0.087a0.814 0.814 0 0 0-0.733 0L0.678 3.814a0.815 0.815 0 0 0-0.453 0.735v7.454c0 0.28 0.15 0.548 0.384 0.699l0.07 0.034 5.998 2.994-5.999 2.993a0.815 0.815 0 0 0-0.453 0.734c0 0.314 0.174 0.594 0.453 0.735l7.455 3.727a0.814 0.814 0 0 0 0.361 0.081 0.814 0.814 0 0 0 0.361-0.081l7.454-3.727c0.28-0.14 0.455-0.42 0.455-0.735v-7.454a0.785 0.785 0 0 0-0.443-0.733z m-7.814-9.54l5.625 2.819-5.625 2.818L2.88 4.55z m-6.64 4.135l4.811 2.41-4.81 2.412z m1.014 6.138l5.626-2.819 5.625 2.82-5.625 2.818z m4.81 5.044v4.81l-4.81-2.41z m7.455 1.91l-5.824 2.911v-5.625l5.824-2.912v5.625z"/></svg>