<svg fill="#009AFF" role="img" viewBox="0 0 24 24" xmlns="http://www.w3.org/2000/svg"><title>Skyrock</title><path d="M11.416 14.39A3.189 3.189 0 0 0 9.81 12.8a10.005 10.005 0 0 0-1.877-0.637l-2.964-0.804c-0.463-0.133-0.907-0.315-1.276-0.638-0.247-0.215-0.4-0.479-0.401-0.817-0.002-0.738 0.447-1.333 1.196-1.552 0.697-0.204 1.407-0.196 2.116-0.064 0.775 0.144 1.37 0.527 1.728 1.261 0.238 0.488 0.249 0.736 0.249 0.736l2.684-0.003v-0.097a4.437 4.437 0 0 0-0.088-0.726c-0.333-1.59-1.214-2.718-2.771-3.266-1.011-0.356-2.06-0.41-3.118-0.356-0.755 0.039-1.497 0.152-2.21 0.413-0.996 0.364-1.775 0.98-2.24 1.951-0.332 0.692-0.414 1.428-0.385 2.187 0.026 0.654 0.222 1.254 0.516 1.832 0.357 0.7 0.974 1.082 1.66 1.375 0.857 0.367 1.778 0.513 2.67 0.756 0.622 0.169 1.25 0.311 1.854 0.542 0.465 0.178 0.916 0.384 1.303 0.709 0.414 0.347 0.546 0.776 0.413 1.3-0.15 0.584-0.544 0.937-1.091 1.103-1.09 0.331-2.226 0.308-3.288-0.126-0.45-0.184-0.819-0.479-1.052-0.92a2.857 2.857 0 0 1-0.28-0.837s-0.027-0.148-0.025-0.196H1.695c-0.444 0-1.014 0.003-1.458-0.001l0.009 0.12c0.051 0.735 0.198 1.448 0.55 2.102 0.646 1.196 1.675 1.896 2.97 2.233 0.893 0.232 1.803 0.285 2.72 0.255 0.778-0.025 1.545-0.122 2.289-0.364 0.87-0.284 1.632-0.73 2.183-1.487 0.457-0.63 0.693-1.339 0.774-2.105 0.085-0.789 0.025-1.56-0.316-2.288Zm4.513 0.434l7.834-5.667-9.693 0.003L11.086 0l-1.7 5.172 0.102 0.048c0.643 0.305 1.2 0.727 1.669 1.262 0.765 0.87 1.205 1.888 1.37 3.032 0.067 0.471 0.07 0.946 0.092 1.42l0.006 0.174c1.579-0.005 3.537-0.003 5.116-0.002l-4.127 2.968 1.4 4.27 0.177 0.537s-1.477-1.064-2.2-1.587a5.378 5.378 0 0 1-0.667 1.804l-0.053 0.09 5.803 4.196 0.848 0.616-1.485-4.555-1.508-4.62Z"/></svg>