<svg fill="#000000" role="img" viewBox="0 0 27 24" xmlns="http://www.w3.org/2000/svg"><title>Slackware</title><path d="M14.529 0.004c-0.65-0.011-1.393 0-1.654 0.03-2.74 0.314-4.608 1.448-5.293 3.22-0.243 0.615-0.305 1.116-0.271 1.973 0.053 1.348 0.467 2.232 1.406 3.054 1.364 1.18 3.319 1.679 6.68 1.679 3.048 0 4.132 0.46 4.361 1.866 0.349 2.079-1.748 3.419-4.916 3.148-2.091-0.178-3.893-1.016-4.703-2.191a8.655 8.655 0 0 1-0.395-0.69c-0.425-0.846-0.713-1.089-1.31-1.089-0.479 0.006-0.815 0.184-1.022 0.55l-0.148 0.267v4.488l0.152 0.33c0.184 0.383 0.445 0.608 0.829 0.701 0.39 0.1 0.884-0.04 1.581-0.447l0.557-0.323 0.92 0.206c2.027 0.449 3.063 0.582 4.527 0.582 1.228 0.006 1.724-0.051 2.734-0.317 1.252-0.331 2.198-0.874 3.026-1.749 0.891-0.94 1.281-2.064 1.221-3.504-0.077-1.813-0.774-3.005-2.227-3.802-1.069-0.585-2.552-0.88-4.875-0.98-2.274-0.096-3.112-0.173-3.914-0.357-0.568-0.134-0.874-0.278-1.198-0.573-0.727-0.656-0.657-1.954 0.151-2.764 0.715-0.709 1.683-1.033 3.089-1.034 1.595 0.006 2.665 0.301 3.8 1.064 0.206 0.141 0.803 0.69 1.329 1.216 0.987 1.005 1.264 1.205 1.677 1.205 0.272 0 0.657-0.182 0.815-0.383 0.29-0.366 0.337-0.702 0.338-2.45 0-1.849-0.048-2.127-0.42-2.542-0.431-0.473-0.944-0.468-1.949 0.035l-0.657 0.331-0.702-0.19c-1.666-0.437-2.27-0.531-3.539-0.561zM0.136 13.977v10.023h26.728v-1.114H1.25v-8.909z"/></svg>