<svg fill="#E4637C" role="img" viewBox="0 0 25 24" xmlns="http://www.w3.org/2000/svg"><title>Slides</title><path d="M4.946 0L4.825 0.595l5.894 0.57z m-2.526 0.88l-0.041 0.42H6.751ZM0.092 1.817V22.185h20.367V1.817Zm20.884 0.864V20.52l1.717-17.673z m2.155 0.998l-1.706 17.581L24.908 4.039ZM10.357 7.203c0.615 0 1.165 0.078 1.648 0.235 0.483 0.157 0.724 0.332 0.724 0.525 0 0.156-0.07 0.359-0.208 0.606-0.14 0.247-0.264 0.371-0.373 0.371-0.012 0-0.089-0.036-0.233-0.108a2.916 2.916 0 0 0-1.386-0.326c-0.513 0-0.91 0.107-1.194 0.317a0.982 0.982 0 0 0-0.426 0.825c0 0.337 0.107 0.603 0.317 0.796 0.211 0.192 0.569 0.367 1.077 0.524 1.134 0.351 1.904 0.733 2.308 1.149 0.404 0.417 0.606 1.044 0.606 1.882 0 0.84-0.299 1.531-0.897 2.074-0.598 0.544-1.312 0.815-2.145 0.815-0.832 0-1.55-0.124-2.152-0.372-0.604-0.247-0.905-0.486-0.905-0.715 0-0.121 0.075-0.302 0.226-0.544 0.15-0.241 0.284-0.362 0.406-0.362 0.012 0 0.11 0.058 0.29 0.173 0.182 0.114 0.44 0.231 0.778 0.345 0.338 0.114 0.745 0.172 1.222 0.172 0.477 0 0.87-0.136 1.178-0.408 0.307-0.271 0.46-0.64 0.46-1.105 0-0.465-0.134-0.827-0.406-1.086-0.271-0.261-0.813-0.505-1.622-0.734-0.809-0.229-1.393-0.52-1.755-0.877-0.362-0.356-0.544-0.895-0.543-1.619 0-0.724 0.277-1.331 0.832-1.82 0.555-0.488 1.28-0.733 2.173-0.733Zm6.06 15.499l4.307 0.418 0.041-0.418z m1.164 0.634l3.288 0.664 0.069-0.339z"/></svg>