<svg fill="#008ED2" role="img" viewBox="0 0 25 24" xmlns="http://www.w3.org/2000/svg"><title>SlideShare</title><path d="M3.568 0.003C2.082 0.003 1.368 1.15 1.368 2.33v8.021c-0.539-0.511-1.115-0.153-1.077 0.301 0.039 0.447 0.6 1.573 1.462 2.561 0.858 0.985 1.958 1.807 2.991 2.308a11.386 11.386 0 0 0-0.499 3.661c0.092 1.115 0.385 1.984 0.918 2.798 0.934 1.432 2.361 2.02 3.739 2.02 1.23 0 2.538-0.573 2.745-2.415v-4.776c1.331 0.562 3.531 0.369 4.549-0.397 0.193-0.142 0.332-0.211 0.423-0.115 0.097 0.092 0.108 0.169-0.115 0.447a5.698 5.698 0 0 1-3.158 1.999l0.009 2.768a2.576 2.576 0 0 0 2.587 2.489c1.669 0.015 2.523-0.566 3.203-1.185 0.643-0.577 1.424-1.785 1.586-3.3a10.306 10.306 0 0 0-0.462-3.994 10.54 10.54 0 0 0 3-2.308C23.91 12.509 24.71 11.171 24.71 10.652c0-0.519-0.566-0.796-1.054-0.308V2.33c0-0.838-0.488-2.33-2.172-2.33z m0.43 1.374H21.057c0.769 0 1.191 0.285 1.191 1.245v9.06a8.883 8.883 0 0 1-3.617 1.561c-1.634 0.358-2.992 0.089-3.731 0.151-0.731 0.061-1.453 0.538-1.318 1.821-0.5-0.157-1.258-0.695-1.712-1.136-0.446-0.436-0.885-0.723-1.561-0.704-1.031 0.031-1.692 0.104-2.615 0.01a9.825 9.825 0 0 1-4.923-1.818V2.618c0-0.885 0.385-1.241 1.227-1.241z m4.576 5.075a3.047 3.047 0 1 0 0 6.092 3.045 3.045 0 0 0 0-6.088z m7.845 0a3.047 3.047 0 1 0 0 6.092 3.045 3.045 0 0 0 0-6.088z"/></svg>