<svg fill="#D7E600" role="img" viewBox="0 0 26 24" xmlns="http://www.w3.org/2000/svg"><title>smart</title><path d="M11.763 0A11.983 11.983 0 0 0 0.09 11.977v0.043a11.981 11.981 0 0 0 11.666 11.98h0.305a11.816 11.816 0 0 0 4.347-0.816 0.425 0.425 0 0 0 0.276-0.397v-5.986a0.226 0.226 0 0 0-0.295-0.209c-1.293 0.526-2.383 1.03-4.26 1.029a5.618 5.618 0 0 1-5.616-5.616 5.616 5.616 0 0 1 5.616-5.616c1.877 0 2.967 0.502 4.26 1.028a0.226 0.226 0 0 0 0.295-0.208V1.219a0.425 0.425 0 0 0-0.276-0.398 11.816 11.816 0 0 0-4.343-0.821Zm6.307 1.958v20.086a0.256 0.256 0 0 0 0.406 0.204c3.672-2.283 7.434-8.779 7.434-10.242 0-1.463-3.762-7.957-7.434-10.244a0.256 0.256 0 0 0-0.406 0.196Z"/></svg>