<svg fill="#EE2E24" role="img" viewBox="0 0 31 24" xmlns="http://www.w3.org/2000/svg"><title>SMRT</title><path d="M3.772 14.2c1.016 5.567 5.869 9.8 11.719 9.8 5.869 0 10.812-5.13 11.791-10.719h-3.217c-0.941 3.839-4.455 7.577-8.574 7.577-2.972 0-5.587-1.504-7.186-3.763h6.64c0.546 0 1.072-0.289 1.524-0.882l1.618-2.331c0.152-0.289 0.433-0.452 0.771-0.452h9.461L30.557 10.534H17.522c-0.318 0-0.602 0.181-0.771 0.412l-2.144 2.878c-0.13 0.217-0.358 0.361-0.621 0.361z m23.437-4.4c-1.016-5.571-5.831-9.8-11.699-9.8-5.869 0-10.665 4.988-11.643 10.578h3.216c0.941-3.839 4.307-7.436 8.445-7.437 2.972 0 5.586 1.504 7.186 3.76h-6.659c-0.546 0-1.072 0.289-1.524 0.886l-1.617 2.331c-0.152 0.289-0.433 0.452-0.772 0.452h-9.461L0.443 13.426h13.035c0.318 0 0.602-0.181 0.771-0.412l2.144-2.899c0.13-0.217 0.358-0.361 0.621-0.362z"/></svg>