<svg fill="#6DB944" role="img" viewBox="0 0 21 24" xmlns="http://www.w3.org/2000/svg"><title>SmugMug</title><path d="M16.811 0l-0.35 0.01c-1.55 0.13-2.46 1.2-2.6 2.28-0.15 1.2 0.65 2.4 2.58 2.28 2.15-0.12 3.09-1.2 3.1-2.28 0.02-1.15-1-2.28-2.73-2.29zM5.711 0.34A2.66 2.66 0 0 0 3.061 2.6C2.911 3.73 3.621 4.87 5.501 4.85c2.23-0.04 3.31-1.37 3.16-2.57-0.12-1-1.09-1.92-2.94-1.94z m12.35 8.71a7 7 0 0 0-0.4 0.02c-5.28 0.54-5.54 0.6-15.26 0.82C-1.699 9.9-0.879 24 7.881 24c8.2 0 18.12-15.15 10.18-14.95z m-1.1 2.7c3.18-0.07-2.9 9.53-8.8 9.56-7.46 0-6.44-8.8-5.18-8.85 8.67-0.35 10.88-0.64 13.98-0.71Z"/></svg>