<svg fill="#FFFC00" role="img" viewBox="0 0 26 24" xmlns="http://www.w3.org/2000/svg"><title>Snapchat</title><path d="M13.221 0.001c1.06 0 4.654 0.296 6.349 4.091 0.566 1.277 0.431 3.446 0.32 5.19l-0.003 0.064c-0.013 0.193-0.024 0.369-0.033 0.546 0.08 0.048 0.217 0.096 0.43 0.096 0.321-0.017 0.706-0.128 1.106-0.322 0.177-0.094 0.368-0.111 0.497-0.111 0.195 0 0.384 0.031 0.544 0.096 0.482 0.16 0.786 0.513 0.786 0.897 0.016 0.481-0.418 0.898-1.298 1.251-0.095 0.031-0.224 0.08-0.369 0.127-0.482 0.145-1.219 0.385-1.427 0.867-0.096 0.24-0.065 0.561 0.129 0.93l0.016 0.016c0.064 0.146 1.634 3.721 5.129 4.297 0.273 0.047 0.466 0.289 0.45 0.545 0 0.08-0.016 0.16-0.048 0.241-0.257 0.609-1.363 1.058-3.369 1.361-0.063 0.097-0.128 0.401-0.175 0.61-0.031 0.192-0.079 0.385-0.144 0.592-0.081 0.29-0.289 0.434-0.594 0.434h-0.032c-0.145 0-0.335-0.033-0.576-0.079-0.385-0.08-0.819-0.145-1.363-0.145-0.321 0-0.641 0.016-0.977 0.08-0.642 0.111-1.202 0.497-1.845 0.946-0.913 0.641-1.955 1.379-3.527 1.379-0.064 0-0.127-0.016-0.193-0.016h-0.159c-1.572 0-2.599-0.723-3.511-1.379-0.641-0.45-1.185-0.834-1.828-0.947-0.336-0.048-0.673-0.079-0.993-0.079-0.578 0-1.026 0.095-1.362 0.16-0.226 0.046-0.419 0.079-0.578 0.079-0.4 0-0.56-0.24-0.624-0.45-0.065-0.206-0.096-0.416-0.145-0.607-0.049-0.194-0.112-0.529-0.178-0.61-2.054-0.238-3.158-0.687-3.414-1.313-0.033-0.067-0.056-0.161-0.059-0.241-0.016-0.26 0.177-0.498 0.45-0.545 3.495-0.578 5.064-4.153 5.129-4.304l0.017-0.031c0.193-0.369 0.24-0.691 0.128-0.93-0.209-0.465-0.946-0.704-1.426-0.866-0.13-0.031-0.257-0.079-0.371-0.128-1.185-0.466-1.346-0.996-1.281-1.363 0.096-0.513 0.722-0.849 1.25-0.849 0.156 0 0.289 0.031 0.41 0.08 0.45 0.208 0.845 0.321 1.182 0.321 0.251 0 0.411-0.064 0.498-0.113l-0.049-0.609c-0.105-1.741-0.241-3.909 0.329-5.179C8.066 0.305 11.65 0.016 12.708 0.016l0.448-0.016h0.065z"/></svg>