<svg fill="#CA0939" role="img" viewBox="0 0 47 24" xmlns="http://www.w3.org/2000/svg"><title>SNCF</title><path d="M4.448 0c8.9 0 28.617 1.217 41.727 9.488 0.404 0.26 0.481 0.519 0.332 0.999-0.075 0.221-4.137 12.962-4.136 12.961-0.185 0.552-0.481 0.552-0.814 0.552H1.161c-0.481 0-0.738-0.331-0.738-0.738V0.812c0-0.481 0.333-0.738 0.884-0.739 0.813 0 1.846-0.073 3.141-0.073z m0.554 12.221c-0.738 1.81 1.365 2.917 3.211 3.767 1.515 0.663 2.587 1.365 2.179 2.141-0.258 0.665-1.365 0.962-2.842 0.961-1.292 0-2.917-0.408-4.212-0.998l-0.736 1.625c0.962 0.406 2.842 0.998 4.503 1.071 3.065 0.073 5.096-0.665 5.91-2.363 0.819-1.877-1.106-2.904-2.919-3.775l-0.177-0.087-0.265-0.126c-1.513-0.663-2.51-1.071-2.25-1.808 0.256-0.887 1.769-1.219 3.136-1.146 0.665 0 1.144 0.075 1.773 0.259l0.481-1.552c-0.665-0.148-1.219-0.185-2.033-0.184-2.731-0.073-5.169 0.665-5.759 2.215Zm26.144-2.327c-2.585 0-4.912 0.887-6.316 2.439 0 0.073-0.073 0.073-0.148 0.073-0.073 0-0.073 0-0.073-0.073l0.739-2.289h-2.179l-2.437 7.346c-0.738-2.14-2.327-5.058-4.211-7.346H14.198l-1.698 5.391c0.85 0.663 1.108 1.144 1.404 1.771 0 0 0 0.075 0.073 0.075 0 0 0.073 0 0.073-0.075 0-0.073 1.515-4.652 1.515-4.652a27.896 27.896 0 0 1 3.877 8.013h2.437l1.219-3.84s0-0.075 0.073-0.075c0 0 0.075 0 0.075 0.075 0.331 2.363 2.769 3.988 6.202 3.988 2.179 0 4.212-0.592 4.69-0.813l1.292-4.062h4.949l0.48-1.552h-5.023l0.887-2.621h5.907l0.554-1.625h-8.346l-2.769 8.752c-0.627 0.148-1.365 0.185-2.104 0.185-1.625 0-2.99-0.406-3.731-1.292a2.821 2.821 0 0 1-0.627-2.437c0.333-2.215 2.512-3.656 5.429-3.656 0.627 0 1.219 0 1.846 0.148l0.629-1.7c-0.665-0.146-1.552-0.146-2.365-0.146z"/></svg>