<svg fill="#29B5E8" role="img" viewBox="0 0 26 24" xmlns="http://www.w3.org/2000/svg"><title>Snowflake</title><path d="M25.595 3.035c0 0.678-0.439 1.238-1.198 1.239-0.759 0-1.199-0.56-1.199-1.239 0-0.679 0.44-1.238 1.199-1.238 0.759 0 1.198 0.559 1.198 1.238z m-0.24 0c0-0.559-0.399-0.998-0.958-0.998s-0.958 0.399-0.958 0.997c0 0.559 0.399 0.999 0.958 0.999 0.598 0 0.958-0.44 0.958-0.998z m-1.438-0.559h0.52c0.279 0 0.479 0.16 0.479 0.399 0 0.161-0.08 0.24-0.2 0.32l0.2 0.279v0.04h-0.28l-0.199-0.279h-0.24v0.279h-0.28z m0.52 0.239h-0.24v0.28h0.24c0.12 0 0.16-0.04 0.159-0.119 0.04-0.081-0.04-0.161-0.159-0.161zM8.384 12.419c0.04-0.158 0.08-0.319 0.08-0.478 0-0.12-0.04-0.239-0.04-0.359-0.12-0.36-0.319-0.679-0.678-0.88l-5.111-2.914c-0.719-0.399-1.637-0.16-2.036 0.559-0.4 0.719-0.161 1.637 0.558 2.036l2.835 1.637-2.835 1.638c-0.719 0.399-0.958 1.318-0.559 2.036 0.399 0.719 1.318 0.959 2.036 0.559l5.071-2.914c0.36-0.28 0.599-0.559 0.679-0.92z m1.398 2.756c-0.279-0.04-0.598 0.04-0.878 0.2l-5.072 2.914c-0.719 0.399-0.958 1.318-0.558 2.037 0.399 0.72 1.317 0.959 2.036 0.559l2.835-1.637v3.274c0 0.84 0.679 1.478 1.517 1.478 0.839 0 1.477-0.679 1.477-1.478v-5.869c0-0.799-0.598-1.438-1.357-1.478z m5.191-6.389c0.279 0.04 0.598-0.04 0.879-0.2l5.071-2.914c0.719-0.399 0.958-1.318 0.558-2.036-0.399-0.72-1.317-0.959-2.036-0.56l-2.835 1.638V1.478c0-0.839-0.679-1.478-1.517-1.478-0.839 0-1.518 0.639-1.518 1.478V7.308c0 0.798 0.639 1.438 1.398 1.477zM3.832 5.671l5.072 2.914c0.279 0.16 0.559 0.199 0.878 0.2 0.759-0.04 1.397-0.718 1.397-1.477V1.478c0-0.839-0.678-1.478-1.477-1.478-0.839 0-1.518 0.679-1.517 1.478v3.274l-2.835-1.637c-0.719-0.399-1.637-0.16-2.036 0.559-0.44 0.678-0.199 1.596 0.518 1.997z m9.544 6.309a0.432 0.432 0 0 0-0.12-0.28l-0.598-0.599a0.363 0.363 0 0 0-0.28-0.12 0.432 0.432 0 0 0-0.28 0.12l-0.599 0.598a0.431 0.431 0 0 0-0.119 0.281c0 0.08 0.04 0.199 0.119 0.28l0.598 0.598a0.362 0.362 0 0 0 0.281 0.12c0.08 0 0.199-0.04 0.279-0.12l0.599-0.598a0.432 0.432 0 0 0 0.12-0.28z m1.677 0.559L12.937 14.655c-0.041 0.04-0.161 0.12-0.24 0.119h-0.638a0.431 0.431 0 0 1-0.281-0.119L9.662 12.539a0.428 0.428 0 0 1-0.079-0.24v-0.639c0-0.08 0.04-0.199 0.119-0.28l2.116-2.116a0.43 0.43 0 0 1 0.28-0.119h0.639a0.43 0.43 0 0 1 0.28 0.119l2.116 2.116a0.364 0.364 0 0 1 0.119 0.28v0.639c-0.08 0.081-0.12 0.199-0.199 0.24z m5.87 5.709l-5.071-2.914c-0.279-0.16-0.598-0.199-0.879-0.16-0.759 0.04-1.398 0.718-1.398 1.478v5.829c0 0.84 0.679 1.478 1.478 1.478 0.839 0 1.518-0.679 1.518-1.478v-3.274l2.833 1.637c0.72 0.399 1.638 0.16 2.038-0.559 0.44-0.678 0.199-1.596-0.519-2.037z m2.675-7.906l-2.834 1.638 2.833 1.637c0.72 0.399 0.959 1.318 0.56 2.036-0.399 0.719-1.317 0.958-2.036 0.559l-5.072-2.915a1.725 1.725 0 0 1-0.679-0.838c-0.039-0.161-0.08-0.32-0.08-0.479 0-0.12 0.041-0.239 0.041-0.359 0.12-0.36 0.359-0.679 0.678-0.879l5.072-2.916c0.719-0.399 1.637-0.16 2.036 0.56 0.48 0.639 0.199 1.558-0.519 1.956"/></svg>