<svg fill="#010101" role="img" viewBox="0 0 25 24" xmlns="http://www.w3.org/2000/svg"><title>Socket.io</title><path d="M12.436 0a12.183 12.183 0 0 0-2.978 0.379C4.773 1.543 1.055 5.787 0.578 10.6c-0.591 4.554 1.71 9.296 5.65 11.647 3.865 2.421 9.103 2.323 12.888-0.223 3.401-2.208 5.518-6.235 5.392-10.296-0.058-4.02-2.313-7.926-5.765-9.991C16.859 0.575 14.646-0.009 12.436 0z m-0.063 1.698c4.95-0.007 9.8 3.818 10.293 8.935 0.946 5.666-3.757 11.425-9.498 11.592-5.46 0.545-10.737-4.084-10.892-9.567-0.407-4.439 2.519-8.845 6.705-10.311a9.123 9.123 0 0 1 3.392-0.648z m5.097 3.228c-2.69 2.087-5.266 4.313-7.898 6.464 1.204 0.017 2.415 0.016 3.625 0.01 1.412-2.167 2.862-4.306 4.273-6.474z m-5.672 7.663c-1.412 2.168-2.863 4.314-4.274 6.481 2.696-2.082 5.261-4.325 7.91-6.463a255.702 255.702 0 0 0-3.636-0.018z"/></svg>