<svg fill="#002873" role="img" viewBox="0 0 21 24" xmlns="http://www.w3.org/2000/svg"><title>Softpedia</title><path d="M0.38 18.093V24c4.526 0 9.959-0.326 13.765-1.628a14.698 14.698 0 0 0 2.708-1.23c1.255-0.752 2.208-1.668 2.844-2.763 0.317-0.533 0.559-1.107 0.725-1.709l0.197-1.723c0-0.63-0.09-1.23-0.257-1.819a6.72 6.72 0 0 0-0.696-1.531c-0.484-0.78-1.165-1.45-2.012-2.024a12.187 12.187 0 0 0-1.95-0.999c-1.722-0.642-4.38-1.295-5.356-1.654-0.882-0.294-1.784-0.738-1.784-1.012H19.09V0H8.61C6.022 0 4.177 1.148 3.073 3.46c-1.18 2.461-0.741 4.704 1.286 6.714 0.56 0.561 1.24 1.053 2.042 1.477 0.862 0.452 2.072 0.903 3.615 1.34 1.664 0.493 2.465 0.712 2.374 0.684 0.56 0.178 1 0.342 1.332 0.493l0.62 0.328c0.272 0.191 0.332 0.506 0.18 0.957-0.165 0.22-0.437 0.452-0.8 0.67-0.938 0.574-2.375 1.026-4.311 1.34-2.39 0.424-5.4 0.63-9.03 0.63z"/></svg>