<svg fill="#9945FF" role="img" viewBox="0 0 28 24" xmlns="http://www.w3.org/2000/svg"><title>Solana</title><path d="M27.631 18.922l-4.547 4.751a1.056 1.056 0 0 1-0.352 0.242 1.08 1.08 0 0 1-0.421 0.085H0.755a0.538 0.538 0 0 1-0.29-0.084 0.518 0.518 0 0 1-0.194-0.225 0.502 0.502 0 0 1-0.036-0.292 0.509 0.509 0 0 1 0.134-0.264l4.551-4.751a1.056 1.056 0 0 1 0.35-0.241 1.08 1.08 0 0 1 0.42-0.086H27.245a0.539 0.539 0 0 1 0.289 0.084 0.52 0.52 0 0 1 0.195 0.225 0.503 0.503 0 0 1 0.036 0.293 0.51 0.51 0 0 1-0.134 0.263z m-4.547-9.567a1.056 1.056 0 0 0-0.352-0.241 1.08 1.08 0 0 0-0.421-0.085H0.755a0.538 0.538 0 0 0-0.29 0.084 0.518 0.518 0 0 0-0.194 0.225 0.502 0.502 0 0 0-0.036 0.292 0.51 0.51 0 0 0 0.134 0.264l4.551 4.751a1.056 1.056 0 0 0 0.35 0.241c0.132 0.056 0.275 0.085 0.42 0.085H27.245a0.538 0.538 0 0 0 0.289-0.084 0.52 0.52 0 0 0 0.195-0.225 0.503 0.503 0 0 0 0.036-0.292 0.51 0.51 0 0 0-0.134-0.264zM0.755 5.943h21.556a1.08 1.08 0 0 0 0.421-0.085 1.056 1.056 0 0 0 0.352-0.242l4.547-4.751a0.51 0.51 0 0 0 0.134-0.264 0.502 0.502 0 0 0-0.036-0.292 0.52 0.52 0 0 0-0.195-0.225 0.538 0.538 0 0 0-0.289-0.084H5.69a1.08 1.08 0 0 0-0.42 0.086 1.056 1.056 0 0 0-0.35 0.241L0.37 5.078a0.509 0.509 0 0 0-0.134 0.263 0.502 0.502 0 0 0 0.036 0.292 0.518 0.518 0 0 0 0.194 0.225 0.538 0.538 0 0 0 0.289 0.085z"/></svg>