<svg fill="#2C4F7C" role="img" viewBox="0 0 26 24" xmlns="http://www.w3.org/2000/svg"><title>Solid</title><path d="M12.527 0.001A9.719 9.719 0 0 0 10.62 0.217l-0.485 0.16c-0.97 0.324-1.772 0.808-2.247 1.443l-0.322 0.484-2.178 3.775c0.456-0.414 1.042-0.747 1.758-0.956h0.001l0.656-0.165h0.001a9.439 9.439 0 0 1 1.902-0.221c3.121-0.057 6.456 1.229 9.014 2.526 2.48 1.257 4.161 2.483 4.267 2.558L25.842 5.063c-0.088-0.064-1.776-1.295-4.271-2.554-2.561-1.291-5.908-2.564-9.043-2.507zM9.708 4.9a9.24 9.24 0 0 0-1.867 0.217l-0.649 0.162c-1.368 0.402-2.242 1.241-2.6 2.256-0.357 1.015-0.201 2.21 0.521 3.334 0.353 0.46 0.799 0.87 1.301 1.228L13.351 9.859h0.001a7.43 7.43 0 0 1 6.435 1.084l3.043-1.03c-0.182-0.133-1.78-1.284-4.184-2.505-2.546-1.291-5.863-2.564-8.938-2.508z m5.816 4.812a7.267 7.267 0 0 0-2.123 0.303L3.304 13.272 0.158 18.778l9.927-3.202a7.432 7.432 0 0 1 7.928 2.476v0.001c0.744 0.966 0.952 2.04 0.706 3.005l2.752-4.955c0.637-1.114 0.482-2.381-0.323-3.669a7.269 7.269 0 0 0-5.624-2.722z m-3.243 5.716a7.263 7.263 0 0 0-2.147 0.303L0.167 18.947c0.187 0.14 2.162 1.603 5.016 2.962 2.993 1.425 6.817 2.64 10.132 1.832l0.486-0.163h0.002c1.368-0.402 2.284-1.244 2.661-2.236 0.378-0.995 0.222-2.145-0.579-3.187a7.267 7.267 0 0 0-5.604-2.727z"/></svg>