<svg fill="#149EF2" role="img" viewBox="0 0 25 24" xmlns="http://www.w3.org/2000/svg"><title>Sololearn</title><path d="M19.143 16.098a8.513 8.513 0 0 1-2.932 6.45c-0.605 0.532-0.191 1.527 0.615 1.447a9.071 9.071 0 0 0 1.592-0.301 8.35 8.35 0 0 0 5.808-5.908 8.585 8.585 0 0 0-8.287-10.87 9.044 9.044 0 0 0-1.049 0.06c-0.797 0.1-0.999 1.165-0.291 1.548 2.711 1.457 4.546 4.3 4.546 7.574zM8.39 18.62a8.568 8.568 0 0 1-6.473-2.923c-0.534-0.602-1.532-0.191-1.451 0.612a8.975 8.975 0 0 0 0.301 1.588c0.797 2.833 3.075 5.044 5.928 5.786 5.747 1.497 10.909-2.783 10.909-8.258 0-0.351-0.02-0.702-0.061-1.044-0.1-0.795-1.169-0.996-1.552-0.291a8.628 8.628 0 0 1-7.601 4.53zM5.857 7.902a8.513 8.513 0 0 1 2.934-6.45c0.605-0.533 0.191-1.527-0.615-1.447a9.965 9.965 0 0 0-1.603 0.291A8.369 8.369 0 0 0 0.767 6.204a8.585 8.585 0 0 0 8.287 10.87c0.353 0 0.706-0.02 1.049-0.06 0.797-0.1 0.999-1.166 0.291-1.548a8.571 8.57 90 0 1-4.536-7.564z m10.758-2.522a8.568 8.568 0 0 1 6.473 2.923c0.532 0.602 1.531 0.191 1.45-0.612a8.977 8.977 0 0 0-0.301-1.589C23.439 3.269 21.161 1.059 18.307 0.316 12.57-1.192 7.409 3.088 7.409 8.564c0 0.351 0.02 0.702 0.06 1.045 0.1 0.794 1.172 0.995 1.554 0.291A8.61 8.61 0 0 1 16.613 5.381z"/></svg>