<svg fill="#FD3456" role="img" viewBox="0 0 26 24" xmlns="http://www.w3.org/2000/svg"><title>Sonar</title><path d="M21.207 4.511a4.124 4.124 0 0 0-0.755 0.047 15.999 15.999 0 0 1 1.094 5.878c0 6.123-3.412 11.557-8.391 13.538 0.252 0.016 0.504 0.026 0.76 0.026h0.038a7.996 7.996 0 0 0 6.182-2.973c1.907-2.36 3.077-5.539 3.077-9.025a14.608 14.608 0 0 0-2.005-7.491Zm-0.794 5.925a14.878 14.878 0 0 0-1.054-5.563c-0.146 0.06-0.251 0.115-0.327 0.153a0.86 0.86 0 0 0-0.456 0.865c0.089 0.774 0.136 1.553 0.136 2.333 0 3.562-1.15 6.98-3.238 9.622-1.976 2.496-4.626 4.103-7.509 4.562l0.025 0.015a5.869 5.869 0 0 0 5.489 0.165c4.068-1.994 6.934-6.69 6.934-12.152ZM25.907 12.002a11.943 11.943 0 0 0-0.914-4.599 5.262 5.262 0 0 0-1.153-1.75 3.883 3.883 0 0 0-0.906-0.679A3.87 3.87 0 0 0 22.68 4.854a15.962 15.962 0 0 1 1.661 7.144c0 3.543-1.154 6.956-3.208 9.573A11.976 11.976 0 0 0 25.907 12.002Zm-3.385-8.358A11.958 11.958 0 0 0 13.921 0C7.29 0 1.857 5.493 1.924 12.124c0.014 1.571 0.339 3.124 0.955 4.571-0.198-0.026-0.397-0.034-0.597-0.026-0.538 0.025-1.298-0.169-1.642-0.266-0.344-0.096-0.652 0.18-0.512 0.5v0.01c1.192 2.728 3.831 4.503 6.352 4.498 0.167 0 0.334-0.009 0.501-0.026 5.903-0.45 10.587-6.18 10.587-13.16 0-0.44-0.019-0.878-0.057-1.312a0.256 0.256 0 0 0-0.058-0.142 0.255 0.255 0 0 0-0.283-0.081 0.258 0.258 0 0 0-0.126 0.09c-1.633 2.161-4.051 5.96-7.076 3.98-1.166-0.759-1.787-2.393-1.436-4.057 0.63-2.987 4.111-4.956 5.645-4.339 0.12 0.048 0.552 0.22 0.699 0.614 0.224 0.6-0.453 1.095-0.798 2.159-0.371 1.152-0.161 2.373 0.099 2.426 0.291 0.058 0.781-1.011 1.984-1.983 0.874-0.703 1.534-0.902 1.948-1.65 0.399-0.729-0.312-1.497-0.07-1.566 0.242-0.068 0.468 0.771 1.189 1.189 0.601 0.35 1.138 0.131 1.929 0.099 0.294-0.002 0.586 0.02 0.875 0.067 0 0 0.155 0.022 0.4 0.072a0.083 0.083 0 0 0 0.056-0.003 0.09 0.09 0 0 0 0.043-0.036 0.082 0.082 0 0 0 0.012-0.055 0.088 0.088 0 0 0-0.021-0.053Zm-8.942 9.249a0.845 0.845 0 0 1 0.546-0.33 0.697 0.697 0 0 1 0.537 0.145c0.291 0.27 0.205 0.792-0.045 1.091-0.233 0.277-0.693 0.459-1.012 0.254a0.729 0.729 0 0 1-0.283-0.583 0.86 0.86 0 0 1 0.257-0.577Z"/></svg>