<svg fill="#F3702A" role="img" viewBox="0 0 27 24" xmlns="http://www.w3.org/2000/svg"><title>SonarCloud</title><path d="M24.991 10.785a7.827 7.827 0 0 0-3.729-2.604v-0.093c0-4.456-3.485-8.088-7.782-8.088-4.299 0-7.785 3.624-7.785 8.089v0.11C2.547 9.231 0.249 12.296 0.249 15.911c0 4.456 3.488 8.089 7.785 8.089a7.627 7.627 0 0 0 5.468-2.328 7.603 7.603 0 0 0 5.463 2.328c4.289 0 7.786-3.624 7.786-8.089a8.361 8.361 0 0 0-1.76-5.127zM18.966 21.954c-3.206 0-5.816-2.712-5.816-6.045a1.005 1.005 0 0 0-0.983-1.02 1 1 0 0 0-0.985 1.021c0 1.511 0.405 2.927 1.098 4.139a5.694 5.694 0 0 1-4.246 1.914c-3.207 0-5.819-2.713-5.82-6.045 0-3.33 2.613-6.044 5.82-6.044 0.696 0 1.37 0.129 2.017 0.37 0.008 0 0.014 0.008 0.022 0.008 0.224 0.078 0.54 0.232 0.639 0.317a0.947 0.947 0 0 0 1.379-0.111 1.04 1.04 0 0 0-0.107-1.435c-0.431-0.378-1.099-0.635-1.263-0.696a7.524 7.524 0 0 0-2.678-0.489c-0.125 0-0.248 0-0.373 0.008 0.133-3.22 2.687-5.794 5.819-5.794 3.206 0 5.816 2.712 5.816 6.044a6.15 6.15 0 0 1-2.446 4.929 1.047 1.047 0 0 0-0.232 1.417c0.189 0.276 0.497 0.431 0.803 0.43a0.95 0.95 0 0 0 0.57-0.19 8.151 8.151 0 0 0 2.991-4.439c2.247 0.867 3.809 3.124 3.809 5.675-0.008 3.324-2.618 6.036-5.834 6.036z"/></svg>