<svg fill="#1B1C30" role="img" viewBox="0 0 28 24" xmlns="http://www.w3.org/2000/svg"><title>Sonatype</title><path d="M3.207 21.725c0 0.579-0.483 1.021-1.368 1.022-0.558 0-1.069-0.177-1.41-0.511l0.327-0.518c0.232 0.239 0.688 0.463 1.117 0.464 0.429 0 0.647-0.157 0.647-0.402 0-0.286-0.347-0.388-0.75-0.477-0.565-0.122-1.239-0.272-1.239-1.008 0-0.538 0.463-1.001 1.294-1.001 0.558 0 0.981 0.197 1.28 0.463l-0.299 0.504c-0.197-0.225-0.565-0.395-0.974-0.395-0.375 0-0.613 0.136-0.613 0.368 0 0.252 0.327 0.34 0.715 0.429 0.572 0.123 1.273 0.286 1.273 1.062z m3.745-0.708c0 0.947-0.64 1.73-1.695 1.73-1.042 0-1.689-0.783-1.689-1.73 0-0.94 0.647-1.723 1.689-1.723 1.056 0 1.696 0.783 1.695 1.723z m-0.742 0c0-0.579-0.341-1.09-0.953-1.089-0.606 0-0.947 0.511-0.947 1.089 0 0.586 0.34 1.096 0.947 1.097 0.613 0 0.953-0.511 0.953-1.097z m3.18-1.723c-0.518 0-0.94 0.272-1.158 0.531v-0.449h-0.715v3.289H8.232v-2.295c0.163-0.225 0.477-0.443 0.845-0.442 0.402 0 0.66 0.17 0.66 0.68v2.057h0.715v-2.315c0-0.674-0.354-1.055-1.062-1.056z m4.608 1.192v2.179h-0.715v-0.354c-0.245 0.279-0.627 0.436-1.063 0.436-0.538 0-1.144-0.361-1.144-1.09 0-0.756 0.606-1.069 1.144-1.069 0.443 0 0.824 0.143 1.063 0.422v-0.49c0-0.381-0.313-0.613-0.77-0.613-0.368 0-0.688 0.136-0.974 0.415l-0.292-0.497c0.381-0.361 0.858-0.531 1.382-0.531 0.729 0 1.369 0.306 1.369 1.192z m-0.715 0.933c-0.163-0.225-0.47-0.341-0.783-0.341-0.402 0-0.702 0.232-0.702 0.593 0 0.354 0.3 0.586 0.702 0.586 0.313 0 0.62-0.116 0.783-0.341v-0.497z m2.812 0.695c-0.204 0-0.313-0.163-0.313-0.389V20.002h0.667v-0.626h-0.667v-0.899h-0.715v0.899h-0.545v0.626h0.545v1.9c0 0.545 0.293 0.845 0.844 0.845 0.334 0 0.545-0.089 0.675-0.211l-0.171-0.538c-0.055 0.061-0.184 0.116-0.32 0.116z m2.395-0.273l-0.96-2.465h-0.763l1.348 3.33-0.163 0.375c-0.095 0.218-0.245 0.286-0.47 0.286-0.082 0-0.197-0.02-0.272-0.055l-0.109 0.64c0.102 0.027 0.3 0.048 0.401 0.048 0.511-0.007 0.906-0.184 1.131-0.742l1.587-3.882h-0.77l-0.96 2.465z m5.303-0.824c0 1.083-0.606 1.73-1.458 1.73-0.416 0-0.79-0.184-1.055-0.538v1.709h-0.716V19.376h0.716v0.449c0.245-0.327 0.627-0.531 1.055-0.531 0.851 0 1.457 0.64 1.458 1.723z m-0.743 0c0-0.633-0.361-1.09-0.926-1.089-0.334 0-0.688 0.197-0.844 0.442v1.301c0.157 0.238 0.511 0.443 0.844 0.443 0.565 0 0.926-0.456 0.926-1.097zM27.571 21.255h-2.54c0.055 0.497 0.429 0.906 1.049 0.906 0.32 0 0.702-0.129 0.933-0.361l0.326 0.47c-0.327 0.313-0.81 0.477-1.334 0.477-0.988 0-1.723-0.688-1.723-1.73 0-0.953 0.694-1.723 1.668-1.723 0.988 0 1.621 0.756 1.621 1.791v0.17z m-0.695-0.504c-0.014-0.388-0.279-0.872-0.926-0.871-0.613 0-0.892 0.47-0.926 0.871h1.852z m-6.145-9.092L14 15.545l-6.731-3.886V3.886L14 0l6.731 3.886v7.773z m-1.93-6.658L14 2.23 9.2 5.001v5.543L14 13.316l4.801-2.772V5.001z"/></svg>