<svg fill="#F80046" role="img" viewBox="0 0 25 24" xmlns="http://www.w3.org/2000/svg"><title>Songkick</title><path d="M7.05 18.78c-1.855 0-3.372-0.339-4.598-1.602l1.92-1.908c0.63 0.631 1.74 0.853 2.715 0.853 1.186 0 1.739-0.391 1.739-1.089 0-0.291-0.06-0.529-0.239-0.717-0.15-0.154-0.404-0.273-0.795-0.324l-1.455-0.205c-1.064-0.152-1.891-0.51-2.43-1.072-0.555-0.578-0.84-1.395-0.84-2.434C3.036 8.067 4.7 6.451 7.46 6.451c1.74 0 3.048 0.407 4.086 1.448L9.671 9.771c-0.765-0.766-1.77-0.715-2.295-0.715-1.039 0-1.465 0.597-1.465 1.125 0 0.152 0.051 0.375 0.24 0.561 0.15 0.153 0.404 0.307 0.832 0.359l1.467 0.203c1.09 0.153 1.875 0.495 2.385 1.005 0.645 0.63 0.9 1.53 0.9 2.655 0 2.47-2.127 3.819-4.68 3.819l-0.005-0.003zM21.313 2.652C19.678 1.433 17.87 0.613 15.589 0.238v10.875l3.261-4.539h3.565l-4.095 5.72s0.944 1.51 1.515 2.405c0.586 0.899 1.139 1.14 1.965 1.14h0.57v2.806h-0.872c-1.812 0-2.9-0.33-3.72-1.575-0.504-0.811-2.175-3.436-2.175-3.436v4.995H12.62V0H12.5c-3.852 0-6.509 0.931-8.811 2.652C0.368 5.138 0.501 8.452 0.501 11.998c0 3.547-0.133 6.867 3.188 9.352C5.991 23.075 8.648 24.001 12.5 24.001s6.51-0.927 8.812-2.651C24.631 18.866 24.5 15.545 24.5 11.998c0-3.546 0.132-6.859-3.188-9.346h0.001z"/></svg>