<svg fill="#000000" role="img" viewBox="0 0 124 24" xmlns="http://www.w3.org/2000/svg"><title>Sonos</title><path d="M67.078 13.853l-14.458-13.538v22.764h4.302V10.461l14.458 13.533V1.235h-4.302zM33.546 0.001A11.821 11.821 0 0 0 21.55 12.003c0 6.461 5.535 11.996 11.996 11.996A11.821 11.821 0 0 0 45.543 12.003a11.821 11.821 0 0 0-11.997-11.997m0 19.686A7.617 7.617 0 0 1 25.857 12.003c0-4.307 3.382-7.689 7.689-7.689S41.236 7.695 41.236 12.003s-3.382 7.689-7.69 7.689M14.17 12.003c-1.234-0.925-2.775-1.542-4.924-2.154-4.307-1.234-4.307-2.462-4.307-3.074 0-1.234 1.537-2.467 3.69-2.467 1.85 0 3.382 0.925 3.999 1.234l0.308 0.308 3.382-2.462-0.308-0.308s-2.765-3.074-7.381-3.074c-2.154 0-4.307 0.617-5.844 1.846-1.542 1.234-2.462 3.074-2.462 4.923s0.925 3.69 2.462 4.919c1.234 0.925 2.765 1.542 4.919 2.159 4.307 1.228 4.307 2.457 4.307 3.073 0 1.228-1.537 2.457-3.69 2.457-1.845 0-3.382-0.925-3.999-1.228l-0.308-0.309-3.382 2.462 0.308 0.309s2.765 3.074 7.381 3.073c2.159 0 4.307-0.617 5.844-1.845 1.542-1.234 2.467-3.074 2.467-4.919 0-1.85-0.925-3.387-2.467-4.923m76.289-11.997A11.821 11.821 0 0 0 78.457 12.003a12.012 12.012 0 0 0 11.997 11.996A11.821 11.821 0 0 0 102.45 12.003a12.012 12.012 0 0 0-11.996-11.997m0 19.686A7.617 7.617 0 0 1 82.764 12.003c0-4.307 3.382-7.689 7.69-7.689s7.689 3.382 7.689 7.689-3.69 7.689-7.689 7.689m19.376-7.998c1.234 0.925 2.775 1.542 4.924 2.159 4.307 1.228 4.307 2.457 4.307 3.073 0 1.228-1.537 2.457-3.69 2.457-1.85 0-3.382-0.925-3.999-1.228h-0.308l-3.382 2.462 0.308 0.308s2.765 3.074 7.381 3.074c2.154 0 4.307-0.617 5.844-1.845s2.462-3.074 2.462-4.924-0.925-3.69-2.462-4.919c-1.234-0.925-2.765-1.542-4.919-2.159-4.307-1.228-4.307-2.457-4.307-3.073 0-1.228 1.537-2.457 3.69-2.457 1.845 0 3.382 0.925 3.999 1.228l0.308 0.309 3.382-2.462-0.308-0.309s-2.765-3.074-7.381-3.073c-2.159 0-4.307 0.617-5.844 1.845-1.542 1.234-2.467 3.074-2.467 4.919-0.303 1.85 0.617 3.387 2.467 4.615"/></svg>