<svg fill="#D52B1E" role="img" viewBox="0 0 27 24" xmlns="http://www.w3.org/2000/svg"><title>Soriana</title><path d="M21.176 2.343c-1.273 0-3.042 0.542-4.324 2.309-0.245 0.345-0.428 0.729-0.542 1.134a4.686 4.686 0 0 0 0.744 4.052c0.658 0.891 1.501 1.558 2.243 2.151 0.364 0.285 1.135 1.016 1.383 1.326 0.373 0.463 0.654 0.74 0.99 1.763 0.204 0.619 0.233 1.435 0.131 1.898C24.128 14.617 26.67 11.555 26.67 8.225c0-3.826-2.741-5.882-5.494-5.882M16.847 15.277c-0.972-1.321-2.094-2.125-3.022-2.969-0.404-0.369-0.847-0.641-1.174-0.966-1.574-1.563-2.307-3.49-1.936-5.861 0.294-1.857 1.216-3.08 2.331-3.975a7.79 7.79 0 0 0-4.695-1.505C3.924 0.001 0.221 3.561 0.333 7.946c0.202 7.924 10.123 14.673 14.21 16.054 2.186-1.119 3.347-3.213 3.347-5.36 0-1.565-0.672-2.853-1.043-3.363"/></svg>