<svg fill="#FF5500" role="img" viewBox="0 0 54 24" xmlns="http://www.w3.org/2000/svg"><title>SoundCloud</title><path d="M53.788 16.834c-0.116 4.01-3.599 7.075-7.591 7.074h-18.262a1.518 1.518 0 0 1-1.507-1.524V2.762a1.668 1.668 0 0 1 1.009-1.617s1.674-1.145 5.209-1.145a11.975 11.975 0 0 1 6.168 1.686 12.129 12.129 0 0 1 5.738 7.903c0.63-0.179 1.281-0.27 1.938-0.268 1.974 0 3.862 0.799 5.239 2.215s2.116 3.327 2.059 5.298ZM24.144 4.01c0.551 6.653 0.953 12.719 0 19.36a0.589 0.589 0 0 1-1.183 0c-0.882-6.577-0.491-12.766 0-19.36a0.589 0.589 0 0 1 1.183 0ZM20.463 6.303c0.636 5.936 0.826 11.132-0.014 17.09a0.618 0.618 0 0 1-1.228 0c-0.739-5.872-0.572-11.207 0-17.09a0.618 0.618 0 0 1 1.242 0Zm-3.713-0.574c0.603 6.086 0.871 11.545 0 17.646a0.594 0.594 0 0 1-1.188 0c-0.848-6.006-0.574-11.632 0-17.646a0.594 0.594 0 0 1 1.188 0Zm-3.677 1.719a58.287 58.287 0 0 1-0.018 15.956 0.607 0.607 0 0 1-1.21 0 62.411 62.411 0 0 1 0-15.956 0.614 0.614 0 0 1 1.228 0Zm-3.729 3.949c0.94 4.164 0.509 7.814-0.064 12.029a0.574 0.574 0 0 1-1.148 0c-0.469-4.148-0.889-7.923 0-12.031a0.607 0.607 0 0 1 1.212 0Zm-3.694-0.609c0.866 4.235 0.58 7.832-0.023 12.082-0.058 0.625-1.148 0.632-1.205 0-0.545-4.193-0.775-7.903-0.023-12.082a0.632 0.632 0 0 1 1.251 0Zm-3.724 2.034c0.893 2.831 0.574 5.117-0.058 7.974a0.574 0.574 0 0 1-1.148 0c-0.538-2.817-0.79-5.162-0.051-7.974a0.632 0.632 0 0 1 1.257 0Z"/></svg>