<svg fill="#FF6600" role="img" viewBox="0 0 28 24" xmlns="http://www.w3.org/2000/svg"><title>SourceForge</title><path d="M11.72 0c-0.1 0-0.201 0.045-0.274 0.118L0.448 11.106c-0.155 0.146-0.155 0.392 0 0.547l10.424 10.405c0.073 0.082 0.173 0.12 0.274 0.12 0.1 0 0.199-0.047 0.271-0.12l1.56-1.578c0.155-0.146 0.155-0.392 0-0.547l-8.169-8.171a0.533 0.533 0 0 1 0-0.756l10.34-10.341c0.137-0.137 0.128-0.311 0.083-0.429-0.046-0.109-0.164-0.236-0.356-0.236H11.72z m5.161 1.813c-0.1 0-0.201 0.047-0.273 0.12l-1.587 1.587c-0.155 0.146-0.155 0.392 0 0.547l8.169 8.18c0.1 0.1 0.156 0.237 0.156 0.374 0 0.137-0.055 0.273-0.156 0.373l-10.34 10.341c-0.137 0.137-0.128 0.311-0.082 0.429 0.046 0.109 0.164 0.236 0.356 0.236v-0.009H16.278c0.1 0 0.201-0.036 0.274-0.109l10.999-10.997c0.082-0.073 0.118-0.173 0.118-0.273 0-0.1-0.045-0.201-0.118-0.274l-10.396-10.405c-0.073-0.082-0.173-0.12-0.274-0.12zM13.355 5.408c-0.128 0.006-0.246 0.115-0.24 0.272 0.164 2.526-3.01 3.148-3.01 7.114v0.027c0 2.417 1.825 4.376 4.078 4.376 2.252 0 4.076-1.959 4.075-4.376v-0.027c0-1.122-0.419-2.19-0.847-2.992-0.082-0.155-0.33-0.099-0.303 0.047 0.766 3.411-1.157 5.525-1.157 2.899 0-4.478-1.588-6.511-2.427-7.277a0.236 0.236 0 0 0-0.169-0.063Z"/></svg>