<svg fill="#0052CC" role="img" viewBox="0 0 20 24" xmlns="http://www.w3.org/2000/svg"><title>Sourcetree</title><path d="M9.999 0C4.756 0 0.474 4.245 0.474 9.525c0 4.21 2.769 7.792 6.572 9.047v4.764c0 0.37 0.295 0.664 0.664 0.664h4.506a0.661 0.661 0 0 0 0.664-0.664v-4.764c0.025-0.008 0.049-0.019 0.074-0.027v0.064c3.694-1.22 6.412-4.634 6.565-8.687 0.005-0.124 0.007-0.25 0.007-0.375v-0.022c0-0.152-0.006-0.304-0.013-0.455C19.275 4.037 15.125 0 9.999 0Zm0 6.352a3.214 3.214 0 0 1 2.664 5.005v0.002A3.218 3.218 0 0 1 10 12.775a3.212 3.212 0 0 1 0-6.424z"/></svg>