<svg fill="#F79A10" role="img" viewBox="0 0 26 24" xmlns="http://www.w3.org/2000/svg"><title>Source Engine</title><path d="M21.365 0h-0.277L8.364 0.072a13.569 13.569 0 0 0-7.455 1.798l0.003 0.001A1.288 1.288 0 0 0 1.526 4.29c0.372 0 0.704-0.157 0.939-0.407a10.976 10.976 0 0 1 9.378-0.492c5.61 2.302 8.3 8.741 5.997 14.351a10.935 10.935 0 0 1-2.653 3.842l0.011 0.014a1.287 1.287 0 1 0 1.733 1.797 13.44 13.44 0 0 0 3.233-4.699c0.053-0.125 5.266-12.825 5.279-12.86A4.245 4.245 0 0 0 23.127 0.298c-0.585-0.24-1.131-0.296-1.762-0.298zM6.691 6.524c-2.802 0-5.681 0.858-5.681 4.191 0 2.297 2.069 3.031 4.14 3.485 2.576 0.555 4.065 0.934 4.066 2.021 0 1.262-1.313 1.666-2.348 1.666-1.414 0-2.727-0.632-2.752-2.197H0.707c0.152 3.458 3.105 4.594 6.136 4.594 2.979 0 5.958-1.11 5.959-4.544 0-2.425-2.045-3.182-4.141-3.662-2.045-0.479-4.065-0.656-4.066-1.944 0-1.06 1.187-1.212 1.996-1.212 1.287 0 2.347 0.38 2.448 1.768h3.409c-0.276-3.206-2.903-4.165-5.757-4.166z"/></svg>