<svg fill="#304CB2" role="img" viewBox="0 0 26 24" xmlns="http://www.w3.org/2000/svg"><title>Southwest Airlines</title><path d="M23.68 1.932C22.497 0.671 20.724 0 18.713 0c-2.167 0-3.822 0.709-4.965 1.34 2.168 1.222 6.858 3.941 11.743 7.527 0.079-0.473 0.119-0.986 0.119-1.459-0.04-2.286-0.709-4.216-1.93-5.477z m1.418 8.63C19.5 5.952 16.153 3.626 12.527 1.461 11.541 0.868 9.611 0 7.404 0 5.316 0.001 3.542 0.673 2.32 1.934 1.532 2.759 0.982 3.783 0.665 5.044 3.542 7.055 11.384 12.69 19.305 18.916c2.64-2.482 4.847-5.359 5.792-8.354zM0.39 7.567c0 6.463 6.817 12.452 12.61 16.433 1.655-1.143 3.389-2.443 5.044-3.902A774.329 774.329 0 0 0 0.548 5.833C0.43 6.347 0.39 6.937 0.39 7.567Z"/></svg>