<svg fill="#394EFF" role="img" viewBox="0 0 27 24" xmlns="http://www.w3.org/2000/svg"><title>Spaceship</title><path d="M13.5 0c1.166 0 2.184 0.635 2.725 1.577l5.123 8.856 4.969 8.588c0.052 0.083 0.235 0.4 0.302 0.552 0.247 0.522 0.28 1.058 0.28 1.294 0 1.73-1.405 3.133-3.14 3.133-0.329 0-0.646-0.05-0.944-0.144l-8.822-2.91a1.57 1.57 0 0 0-0.493-0.079 1.578 1.578 0 0 0-0.493 0.079L4.186 23.856l-0.182 0.051a3.171 3.171 0 0 1-0.763 0.093c-1.734 0-3.14-1.402-3.14-3.133 0.002-0.271 0.026-0.618 0.188-1.069 0.033-0.102 0.083-0.197 0.124-0.295 0.079-0.166 0.179-0.321 0.269-0.482l4.968-8.588 5.124-8.856c0.542-0.942 1.56-1.577 2.726-1.577z"/></svg>