<svg fill="#09A3D5" role="img" viewBox="0 0 77 24" xmlns="http://www.w3.org/2000/svg"><title>spaCy</title><path d="M9.962 9.504c-1.744-0.206-1.874-2.547-4.113-2.34-1.085 0-2.093 0.453-2.093 1.449 0 1.5 2.315 1.64 3.71 2.017 2.378 0.723 4.681 1.215 4.681 3.802 0 3.282-2.572 4.421-5.975 4.421-2.845 0-5.727-1.008-5.727-3.621 0-0.723 0.698-1.291 1.37-1.291 0.853 0 1.151 0.362 1.449 0.954 0.66 1.164 1.395 1.785 3.232 1.786 1.164 0 2.353-0.441 2.353-1.449 0-1.433-1.459-1.744-2.972-2.094C3.201 12.387 0.899 12 0.626 9.025c-0.285-5.068 10.281-5.261 10.887-0.815-0.013 0.802-0.761 1.294-1.551 1.294ZM22.53 5.055c3.714 0 5.819 3.105 5.819 6.932 0 3.84-2.042 6.929-5.819 6.929-2.093 0-3.4-0.891-4.345-2.261v5.068c0 1.525-0.492 2.264-1.601 2.264-1.357 0-1.605-0.866-1.605-2.264v-14.74c0-1.202 0.504-1.941 1.605-1.941 1.034 0 1.601 0.815 1.601 1.941v0.412c1.05-1.319 2.252-2.34 4.345-2.34Zm-0.879 11.226c2.172 0 3.143-2.004 3.143-4.344 0-2.29-0.983-4.345-3.143-4.345-2.264 0-3.311 1.862-3.311 4.345 0 2.416 1.062 4.345 3.311 4.344Zm9.219-7.604c0-2.664 3.067-3.622 6.038-3.622 4.177 0 5.899 1.218 5.899 5.252v3.878c0 0.92 0.568 2.756 0.567 3.311 0 0.84-0.774 1.37-1.601 1.37-0.92 0-1.605-1.085-2.096-1.862-1.357 1.085-2.794 1.862-4.992 1.862-2.429 0-4.345-1.437-4.345-3.803 0-2.093 1.5-3.295 3.311-3.71 0 0.013 5.819-1.37 5.819-1.383 0-1.785-0.634-2.575-2.508-2.575-1.655 0-2.496 0.453-3.143 1.45-0.517 0.752-0.453 1.202-1.449 1.202-0.802-0.013-1.5-0.555-1.5-1.37Zm4.966 8.004c2.547 0 3.622-1.345 3.622-4.021v-0.571c-0.685 0.235-3.453 0.92-4.202 1.037-0.802 0.155-1.605 0.748-1.605 1.693 0.025 1.034 1.085 1.862 2.185 1.862Zm18.711-16.681c3.596 0 7.487 2.147 7.487 5.559a1.554 1.554 0 0 1-1.526 1.605c-1.177 0-1.345-0.634-1.861-1.526-0.866-1.592-1.89-2.651-4.113-2.651-3.441-0.025-4.979 2.921-4.979 6.593 0 3.701 1.281 6.365 4.836 6.365 2.366 0 3.672-1.373 4.345-3.143 0.273-0.815 0.764-1.605 1.785-1.604 0.802 0 1.605 0.815 1.605 1.693 0 3.622-3.701 6.13-7.5 6.13-4.164 0-6.517-1.76-7.811-4.681a11.036 11.036 0 0 1-1.034-4.836c-0.029-5.613 3.244-9.504 8.766-9.504Zm20.559 5.055c0.92 0 1.449 0.596 1.449 1.525 0 0.377-0.298 1.126-0.412 1.529l-4.424 11.623c-0.983 2.521-1.719 4.268-5.068 4.268-1.592 0-2.975-0.143-2.974-1.525 0-0.802 0.606-1.205 1.449-1.205 0.152 0 0.412 0.079 0.567 0.079 0.244 0 0.412 0.076 0.568 0.076 1.681 0 1.915-1.719 2.509-2.908L64.504 7.953c-0.247-0.571-0.415-0.958-0.415-1.293 0-0.932 0.726-1.605 1.693-1.605 1.088 0 1.516 0.853 1.786 1.785l2.819 8.379 2.819-7.744c0.425-1.202 0.466-2.42 1.9-2.42Z"/></svg>