<svg fill="#009287" role="img" viewBox="0 0 39 24" xmlns="http://www.w3.org/2000/svg"><title>Speaker Deck</title><path d="M16.34 15H7.799a7.501 7.501 0 0 1 0-15h9.963a3 3 0 0 1 0 6H7.647a1.499 1.499 0 1 0 0 3h8.539a7.499 7.499 0 1 1 0 15H3.3a3 3 0 0 1 0-6h13.04a1.501 1.501 0 0 0 0-3zM22.652 24a9.016 9.016 0 0 0 3.834-6h4.841a1.488 1.488 0 0 0 1.474-1.501V7.502a1.488 1.488 0 0 0-1.474-1.5h-8.795c0.701-0.797 1.126-1.848 1.126-3s-0.426-2.203-1.126-3h10.269C36.06 0 38.7 2.686 38.7 6v12c0 3.314-2.64 6-5.899 6H22.652z"/></svg>