<svg fill="#1C71F9" role="img" viewBox="0 0 29 24" xmlns="http://www.w3.org/2000/svg"><title>SpeedyPage</title><path d="M24.35 11.734a10.208 10.208 0 0 1-9.191 10.164C15.159 22.023 0.355 24 0.355 24l1.63-5.868 12.014-1.82v-0.029a4.264 4.264 0 0 0 4.014-4.488 4.055 4.055 0 0 0-0.25-1.191h6.523c0.064 0.375 0.064 0.752 0.064 1.13z m-19.669 0.532c0-5.239 3.985-9.632 9.191-10.164C13.872 1.946 28.645 0 28.645 0l-1.662 5.868-12.011 1.851v0.029a4.192 4.192 0 0 0-3.953 4.457c0.031 0.408 0.094 0.783 0.252 1.16H4.744c-0.031-0.377-0.064-0.721-0.063-1.099z"/></svg>