<svg fill="#000000" role="img" viewBox="0 0 32 24" xmlns="http://www.w3.org/2000/svg"><title>Sphinx</title><path d="M21.68 22.423c0-0.867 0.235-2.432 0.522-3.478 0.662-2.416 1.026-5.409 0.659-5.409-0.154 0-1.272 1.01-2.484 2.247-4.604 4.694-9.543 7.35-13.674 7.35-2.358 0-3.961-0.597-5.508-2.049C0.257 20.202 0.088 19.767 0.088 18.236c0-1.575 0.155-1.947 1.205-2.884 0.952-0.851 1.553-1.078 2.86-1.078 1.008 0.227 1.604 0.212 1.932 0.611 0.333 0.392 0.448 1.677 0.047 2.429-0.215 0.402-0.776 0.651-1.466 0.651-0.65 0-1.021-0.154-0.887-0.368 0.418-0.678-0.179-1.136-0.945-0.727-0.927 0.496-0.943 2.252-0.028 3.079 1.285 1.164 4.84 1.602 6.978 0.859 2.311-0.802 5.333-2.733 7.745-4.948l2.121-1.948-2.768-0.018c-2.899-0.016-4.784-0.362-10.888-1.996-2.03-0.544-3.982-1.014-4.338-1.047-0.403-0.034-0.667-0.363-0.645-0.87 0.036-0.857 0.501-1.494 1.051-1.734 0.33-0.145 2.622-0.363 5.051-1.009 9.462-2.517 10.037-2.16 16.34-0.565 2.059 0.521 4.443 1.089 5.499 1.107 1.627 0.029 1.98 0.164 2.308 0.883 0.212 0.465 0.386 0.91 0.385 0.988 0 0.077-0.922 0.562-2.048 1.078-4.137 1.894-5.442 2.897-4.095 4.82 0.558 0.798 0.546 0.883-0.186 1.395-0.428 0.301-0.782 0.911-0.786 1.355-0.012 1.204-0.773 3.787-1.879 4.806l-0.971 0.895v-1.577Zm2.114-11.043c1.647-0.459 2.644-0.979 4.693-2.071-1.687-0.493-5.917-1.187-5.917-1.187-3.121-0.626-2.795-0.594-2.936 0.094a4.608 4.608 0 0 1-0.596 1.466c-0.717 1.124-3.343 1.36-4.848 0.64-0.472-0.227-0.947-1.089-0.94-1.701 0.009-0.862-0.48-1.062-0.793-0.947-0.253 0.093-1.078 0.105-2.89 0.594-5.986 1.614-6.805 1.429-2.902 1.983 0.468 0.066 2.948 0.758 4.158 1.08 2.969 0.792 3.525 0.85 7.367 0.771 2.672-0.056 3.79-0.216 5.604-0.722ZM1.058 4.386c0.074-0.765 0.117-0.931 2.244-1.36 1.219-0.245 4.223-1.041 6.678-1.767 5.641-1.671 7.243-1.675 13.091-0.035 2.525 0.709 5.353 1.29 6.286 1.293 1.455 0.003 2.212 0.646 2.212 0.646 0.67 1.538 0.546 1.644-2.066 1.644-1.822 0-3.392-0.308-5.815-1.136-1.842-0.631-4.467-1.224-5.902-1.331-2.618-0.198-2.614-0.199-10.704 2.027-1.421 0.391-3.385 0.827-4.362 0.971l-1.78 0.26 0.118-1.212Z"/></svg>