<svg fill="#ED8106" role="img" viewBox="0 0 31 24" xmlns="http://www.w3.org/2000/svg"><title>SpigotMC</title><path d="M16.307 0.022c-0.224 0.041-0.571 0.228-0.756 0.414-0.307 0.251-0.737 0.291-2.534 0.167l-2.147-0.145 0.062 0.893 0.061 0.893h0.817c0.451-0.02 1.512-0.063 2.351-0.104l1.533-0.104v4.156l-0.551 0.063c-0.532 0.063-0.573 0.125-0.573 1.08 0 0.893-0.063 1.019-0.451 1.081-0.326 0.041-0.489 0.228-0.551 0.582-0.02 0.291-0.143 0.561-0.226 0.622-0.1 0.063-0.286 0.748-0.408 1.517-0.286 1.912-0.47 2.14-1.716 2.306-1.799 0.209-2.576 0.168-2.577-0.186 0-0.251-0.306-0.313-1.45-0.313-1.268 0-1.451-0.04-1.554-0.413-0.081-0.313-0.286-0.417-0.777-0.417s-0.695 0.104-0.777 0.415c-0.103 0.375-0.286 0.416-1.533 0.416-1.267 0-1.451 0.041-1.574 0.416-0.061 0.228-0.226 0.415-0.326 0.415-0.103 0-0.185 1.081-0.185 2.493 0 2.016 0.063 2.493 0.287 2.494 0.163 0 0.367 0.188 0.428 0.416 0.103 0.353 0.307 0.416 1.473 0.416 1.145 0 1.349 0.063 1.43 0.414 0.163 0.583 1.391 0.583 1.554 0 0.081-0.353 0.286-0.415 1.451-0.414 1.064 0 1.349-0.063 1.349-0.314 0-0.497 2.657-0.413 4.293 0.147 1.983 0.664 6.44 0.664 8.545 0 0.818-0.249 1.574-0.416 1.676-0.353 0.45 0.291 0.204 1.123-0.43 1.476-0.735 0.373-0.735 0.705 0 2.45l0.43 0.999 2.004-0.084c2.168-0.104 3.536-0.601 4.905-1.767l0.675-0.581-0.388-1.143c-0.41-1.205-0.92-1.663-1.902-1.662-0.428 0-0.593-0.187-0.96-0.998-0.634-1.433-1.534-2.203-3.456-2.95-1.001-0.395-1.982-0.935-2.493-1.412-0.757-0.687-0.858-0.915-1.042-2.224-0.123-0.789-0.307-1.496-0.409-1.559-0.083-0.063-0.205-0.332-0.225-0.622-0.061-0.353-0.226-0.54-0.532-0.582-0.408-0.063-0.47-0.188-0.469-1.081 0-0.956-0.041-1.017-0.552-1.08-0.574-0.063-0.574-0.063-0.635-1.912-0.04-1.164 0.021-1.932 0.163-2.077 0.144-0.145 1.165-0.229 2.619-0.23h2.39l0.063-0.706c0.04-0.373-0.021-0.789-0.124-0.894-0.123-0.125-1.022-0.104-2.392 0.063-1.574 0.188-2.228 0.188-2.33 0.021-0.183-0.313-1.062-0.603-1.554-0.498z"/></svg>