<svg fill="#352A71" role="img" viewBox="0 0 25 24" xmlns="http://www.w3.org/2000/svg"><title>Spotlight</title><path d="M15.74 6.206c0.008 0.105 0.008 0.201 0 0.305-0.035 0.61-0.306 1.064-0.68 1.438a2.168 2.168 0 0 1-1.517 0.628 2.182 2.182 0 0 1-1.552-0.592 2.203 2.203 0 0 1-0.13-3.104l0.104-0.105c0.366-0.357 0.784-0.567 1.422-0.628a2.188 2.188 0 0 1 1.639 0.575c0.41 0.383 0.663 0.916 0.715 1.483z m8.77 7.551l-0.654 1.264a3.865 3.865 0 0 0-0.383 1.185l-0.218 1.412a3.825 3.825 0 0 1-2.075 2.851l-1.273 0.636c-0.375 0.192-0.715 0.436-1.011 0.733l-1.003 1.021a3.837 3.837 0 0 1-3.357 1.089l-1.404-0.235a3.756 3.756 0 0 0-1.246 0l-1.404 0.235a3.844 3.844 0 0 1-3.357-1.089l-1.003-1.021a3.801 3.801 0 0 0-1.011-0.733l-1.274-0.636a3.844 3.844 0 0 1-2.075-2.851l-0.217-1.412a3.709 3.709 0 0 0-0.384-1.185l-0.663-1.264a3.813 3.813 0 0 1 0-3.523l0.654-1.264a3.865 3.865 0 0 0 0.383-1.185l0.218-1.412a3.825 3.825 0 0 1 2.075-2.852l1.273-0.636c0.375-0.192 0.715-0.436 1.012-0.732l1.002-1.012a3.837 3.837 0 0 1 3.357-1.089l1.404 0.235c0.41 0.069 0.837 0.069 1.247 0l1.403-0.235a3.844 3.844 0 0 1 3.357 1.089l1.003 1.012c0.296 0.296 0.636 0.549 1.011 0.732l1.274 0.636a3.844 3.844 0 0 1 2.075 2.852l0.218 1.412c0.061 0.419 0.192 0.82 0.383 1.185l0.654 1.264a3.837 3.837 0 0 1 0.008 3.523z m-7.55-7.595a3.155 3.155 0 0 0-0.357-1.342 3.502 3.502 0 0 0-3.339-1.892c-0.14 0.018-0.261 0.026-0.384 0.043a3.436 3.436 0 0 0-1.935 1.09 3.372 3.372 0 0 0-0.872 2.528c0.079 0.959 0.506 1.779 1.126 2.311 0.454 0.393 1.029 0.741 1.752 0.845 1.386 0.209 2.45-0.34 3.138-1.09a3.357 3.357 0 0 0 0.871-2.494z m-10.087 7.01c0.253-0.14 0.497-0.288 0.741-0.427-0.087-1.003-0.166-2.084-0.245-3.007 1.021-0.427 1.744-1.256 2.066-2.424 0.261-0.942 0.148-2.048-0.331-2.668a1.588 1.588 0 0 0-0.619-0.505c-0.419-0.156-0.924-0.035-1.273 0.113a3.007 3.007 0 0 0-0.541 0.314c-0.332 0.235-0.636 0.497-0.916 0.802 0.296 2.581 0.593 5.292 0.881 7.933 0.079-0.035 0.156-0.079 0.235-0.131z m0.131-7.411c0.018-0.079 0.209-0.192 0.278-0.244a0.888 0.888 0 0 1 0.445-0.166c0.48-0.018 0.593 0.393 0.618 0.855 0.018 0.245 0.018 0.488 0 0.732-0.061 0.811-0.444 1.333-1.08 1.596-0.052-0.506-0.087-1.116-0.148-1.7-0.026-0.235-0.061-0.549-0.097-0.828-0.008-0.079-0.018-0.156-0.017-0.245z m-1.177 6.505a6.299 6.299 0 0 0-0.437-1.256 4.723 4.723 0 0 1-0.383-1.282c-0.069-0.619 0.052-1.159 0.445-1.447-0.148-0.48-0.27-0.95-0.419-1.421-0.855 0.454-1.447 1.273-1.447 2.493 0 0.75 0.279 1.238 0.549 1.779 0.183 0.357 0.34 0.723 0.462 1.108 0.122 0.41 0.235 0.863 0.201 1.29-0.069 0.82-0.41 1.395-0.855 1.883-0.044 0.052-0.192 0.174-0.192 0.21 0.026 0.061 0.052 0.113 0.087 0.165 0.174 0.366 0.332 0.68 0.506 1.037 0.026 0.052 0.052 0.156 0.087 0.175s0.105-0.069 0.148-0.123c0.148-0.156 0.288-0.322 0.419-0.497 0.723-1.003 1.159-2.563 0.828-4.115z m2.877 1.734c0.357-1.011 0.697-2.058 0.959-3.121 0.079-0.314 0.174-0.636 0.235-0.959 0.008-0.035 0.035-0.113 0-0.13-0.462 0.14-0.942 0.261-1.394 0.41-0.192 1.578-0.663 2.982-1.195 4.297s-1.185 2.528-1.866 3.688c0.837 0.907 1.9 1.596 3.069 2.17 0.209-0.349 0.436-0.689 0.636-1.046-0.715-0.436-1.456-0.855-2.066-1.395a41.046 41.046 0 0 0 1.622-3.914z m2.719-2.781c-0.296-0.201-0.663-0.349-0.985-0.523-0.645 2.476-1.509 4.76-2.336 7.08 0.288 0.156 0.567 0.332 0.863 0.488 0.558-1.081 0.898-2.241 1.343-3.418 0.218-0.575 0.401-1.169 0.584-1.77s0.366-1.229 0.531-1.857z m2.512 7.246v-1.029c0-0.235-0.008-0.497-0.018-0.907-0.619 0.079-1.246 0.131-1.856 0.218-0.026 0.34-0.026 0.697-0.044 1.054 0.27 0.018 0.697-0.035 0.968-0.035 0 0.506 0 0.942 0.008 1.369 0 0.166 0.026 0.332-0.017 0.47-0.061 0.209-0.279 0.34-0.559 0.314-0.322-0.035-0.575-0.366-0.715-0.636-0.48-0.942-0.322-2.494-0.13-3.539a5.516 5.516 0 0 1 0.758-1.997c0.357-0.567 0.845-1.037 1.543-1.238 0-0.288-0.018-0.68-0.035-1.003-0.008-0.148 0-0.332-0.036-0.41-0.008-0.008-0.026 0.008-0.035 0.008a3.792 3.792 0 0 0-1.169 0.663 4.973 4.973 0 0 0-1.264 1.465 5.704 5.704 0 0 0-0.296 0.611c-0.375 0.837-0.549 1.805-0.654 2.877-0.079 0.82-0.087 1.57 0.036 2.31 0.044 0.235 0.113 0.47 0.201 0.698 0.306 0.802 0.898 1.473 2.101 1.307 0.462-0.061 0.837-0.245 1.228-0.41 0-0.767-0.018-1.57-0.017-2.163z m3.687-4.639a22.844 22.844 0 0 1-0.113-1.752c-0.026-0.811 0-1.596 0.044-2.406 0-0.008 0-0.008-0.008-0.008-0.314 0.245-0.671 0.497-1.012 0.741a0.433 0.433 0 0 0-0.13 0.122 0.884 0.884 0 0 0 0 0.209c-0.008 1.169 0.061 2.406 0.087 3.453-0.288 0.122-0.575 0.279-0.863 0.392a92.15 92.15 0 0 1-0.271-3.531c-0.383 0.131-0.733 0.288-1.107 0.427 0.079 0.575 0.156 1.125 0.209 1.657 0.096 0.845 0.14 1.691 0.148 2.537 0 0.245 0 0.488-0.017 0.733-0.035 0.514-0.026 1.037-0.061 1.552-0.079 0.994-0.069 2.058-0.07 2.999 0.201-0.087 0.393-0.201 0.593-0.296 0.201-0.087 0.393-0.192 0.584-0.306 0-0.375 0.018-0.671 0.026-0.993 0.035-1.229 0.069-2.258 0.026-3.348 0.332-0.156 0.663-0.314 1.011-0.462 0.235 1.404 0.707 2.633 1.134 3.888 0.357-0.27 0.663-0.593 1.002-0.889a23.799 23.799 0 0 1-0.636-1.988 13.657 13.657 0 0 1-0.575-2.729z m2.676-3.924c0.201-0.079 0.383-0.201 0.575-0.296s0.375-0.201 0.559-0.314c-0.349-1.003-0.784-1.918-1.386-2.703a10.445 10.445 0 0 0-2.049-2.058c0-0.018-0.026 0-0.026 0.009a7.681 7.681 0 0 0-0.531 0.75c-0.035 0.061-0.156 0.218-0.148 0.279 0.052 0.069 0.113 0.131 0.183 0.183 0.069 0.069 0.14 0.122 0.192 0.174 0.314 0.322 0.575 0.61 0.863 0.959 0.044 0.052 0.148 0.166 0.148 0.218a1.438 1.438 0 0 1-0.079 0.279c-0.14 0.497-0.235 0.985-0.322 1.508a12.909 12.909 0 0 0-0.156 3.069c0.079 1.09 0.288 2.075 0.523 3.034 0.113 0.47 0.253 0.942 0.427 1.394 0.131 0.34 0.261 0.68 0.41 0.986 0.052 0.105 0.079 0.227 0.166 0.305 0.296-0.383 0.61-0.75 0.898-1.133-0.436-0.776-0.733-1.726-0.959-2.712a7.157 7.157 0 0 1-0.184-1.046c-0.131-1.421-0.183-2.964 0.201-4.307 0.306 0.444 0.541 0.924 0.698 1.421z"/></svg>