<svg fill="#6DB33F" role="img" viewBox="0 0 18 24" xmlns="http://www.w3.org/2000/svg"><title>Spring Security</title><path d="M17.59 2.066L8.993 0 0.41 2.066v6.612h4.557a3.804 3.804 0 0 0 0 0.954H0.41v3.106C0.41 19.867 8.994 24 8.994 24s8.582-4.133 8.582-11.258V9.635h-4.545a3.616 3.616 0 0 0 0-0.954h4.558zM9 12.262h-0.006a3.109 3.109 0 1 1 0.006 0z m-0.006-4.579a0.804 0.804 0 0 0-0.37 1.52v0.208l0.238 0.237v0.159l0.159 0.159v0.159l-0.14 0.14 0.15 0.246v0.159l-0.16 0.189 0.223 0.222 0.246-0.246V9.218a0.804 0.804 0 0 0-0.346-1.535z m0 0.836a0.299 0.299 0 1 1 0.298-0.299 0.299 0.299 0 0 1-0.298 0.3z"/></svg>