<svg fill="#FF0000" role="img" viewBox="0 0 25 24" xmlns="http://www.w3.org/2000/svg"><title>Spyder IDE</title><path d="M18.021 0s-0.735 1.169-1.844 3.006l-6.435-0.036a75.296 75.296 0 0 0-0.362-2.81L8.449 0.297c0.142 0.96 0.254 1.85 0.346 2.667h-0.021a0.537 0.537 0 0 0-0.423 0.203l-4.489 5.62c-2.249 0.055-3.579-0.072-3.579-0.071L0.193 9.655s1.243 0.119 3.354 0.082l1.47 6.636c-1.858 1.574-3.25 2.422-3.25 2.422l0.489 0.804s1.314-0.799 3.102-2.282a0.513 0.513 0 0 0 0.088 0.055l6.769 3.332c-0.01 2.058 0.059 3.296 0.059 3.296l0.941-0.053s-0.072-1.297-0.058-3.442l6.378-3.054a0.539 0.539 0 0 0 0.22-0.195l0.251 0.249c1.178 1.147 1.979 1.639 1.98 1.639l0.489-0.804s-0.687-0.416-1.812-1.51a19.415 19.415 0 0 1-0.628-0.639l1.458-6.318A119.328 119.328 0 0 1 24.807 8.633l-0.314-0.888s-1.255 0.445-3.243 1.214l-4.272-5.459A205.714 205.714 0 0 1 18.818 0.503zM9.853 4.057l5.674 0.033c-0.601 1.006-1.269 2.143-1.982 3.381l-3.454 0.613a53.665 53.665 0 0 0-0.238-4.027z m-0.933 0.134c0.197 2.113 0.231 3.549 0.236 4.191a53.558 53.558 0 0 1-3.863 0.348z m7.462 0.301l3.428 4.379a1.877 1.877 0 0 0-0.672 0.089c-0.463 0.144-0.879 0.415-1.252 0.787-0.246 0.246-0.446 0.511-0.596 0.796-0.388 0.16-0.785 0.325-1.195 0.498l-1.682-3.189c0.71-1.231 1.374-2.363 1.969-3.36z m-2.734 3.922l1.723 3.266-0.77 0.803a1.118 1.118 0 0 1-0.125-0.105l-1.346-1.347-1.455-1.453a2.974 2.974 0 0 0-0.967-0.643zM7.356 9.524l-0.052 0.049-2.202 2.202-0.459-2.072c0.815-0.033 1.723-0.089 2.713-0.179z m2.479 0.982c0.226 0.052 0.429 0.162 0.591 0.321l1.346 1.347 1.454 1.454c0.047 0.048 0.096 0.092 0.147 0.138l-0.548 0.571-3.296-1.623z m-0.962 0.094l-0.317 2.304c-0.882 1.005-1.776 1.894-2.615 2.656l-0.477-2.153 0.254 0.253 2.837-2.837a1.2 1.2 0 0 1 0.318-0.223z m8.138 1.076l0.004 0.039-0.238 0.238-0.089-0.14z m2.793 0.714l-0.65 2.813c-0.431-0.513-0.895-1.098-1.368-1.758l0.515-0.516c0.226 0.009 0.448-0.029 0.641-0.089 0.308-0.095 0.595-0.249 0.862-0.45z m-3.843 0.034l0.103 0.163a1.323 1.323 0 0 1-0.384 0.129zM9.198 13.602l3.216 1.584a91.268 91.268 0 0 0-0.183 4.315L6.244 16.553a34.381 34.381 0 0 0 2.953-2.951z m7.866 0.449a28.409 28.409 0 0 0 1.828 2.285l-0.056 0.243-5.662 2.711c0.026-1.21 0.08-2.612 0.184-4.15l0.834-0.872a3.24 3.24 0 0 0 2.872-0.217z"/></svg>