<svg fill="#D71F00" role="img" viewBox="0 0 70 24" xmlns="http://www.w3.org/2000/svg"><title>SQLAlchemy</title><path d="M34.421 23.455a127.639 127.639 0 0 1-4.846-2.001c-5.028-2.193-5.738-2.236-7.238-0.415-0.345 0.423-0.724 0.684-0.831 0.58-0.322-0.322 0.634-1.865 1.787-2.876 0.941-0.825 1.254-0.941 2.291-0.826 0.66 0.072 2.853 0.84 4.872 1.697 4.556 1.938 5.891 2.349 7.632 2.349 2.117 0 3.203-1.483 2.537-3.452-0.165-0.495-0.116-0.66 0.214-0.66 0.617 0 0.933 2.308 0.487 3.635a4.683 4.683 0 0 1-1.228 1.778c-0.727 0.611-1.188 0.744-2.546 0.736a11.16 11.16 0 0 1-3.134-0.545h0.003Zm0.872-6.444c0-0.139 0.518-0.388 1.161-0.545l1.161-0.287 0.25-4.188c0.272-4.631 0.072-9.187-0.429-9.798-0.182-0.214-0.733-0.478-1.237-0.594-2.042-0.452-0.684-0.765 3.282-0.765 3.962 0 5.222 0.287 3.336 0.765-1.625 0.405-1.634 0.429-1.633 7.038 0 3.667 0.133 6.43 0.321 6.783 0.266 0.495 0.66 0.6 2.178 0.6 3.131 0 4.208-0.739 5.06-3.484 0.255-0.823 0.912-0.675 0.684 0.156-0.107 0.388-0.281 1.564-0.388 2.636l-0.197 1.937H42.067c-3.725 0-6.775-0.116-6.774-0.254Zm15.385-0.197c0-0.249 0.24-0.495 0.635-0.684 0.53-0.249 0.875-0.768 2.126-3.215 1.987-3.872 5.118-10.526 5.416-11.522 0.229-0.759 0.281-0.799 1.135-0.898 0.495-0.058 0.907-0.09 0.915-0.072l1.527 3.337c0.823 1.819 2.479 5.283 3.681 7.687 2.013 4.046 2.236 4.411 2.911 4.738 0.411 0.2 0.733 0.504 0.733 0.687 0 0.287-0.353 0.322-3.403 0.321-3.059 0-3.403-0.035-3.404-0.33 0-0.197 0.264-0.411 0.684-0.553 0.388-0.125 0.684-0.353 0.683-0.527 0-0.165-0.403-1.251-0.897-2.416l-0.898-2.117h-6.807l-0.652 1.433c-1.219 2.688-1.245 3.322-0.107 3.627 0.568 0.156 0.724 0.281 0.658 0.535-0.072 0.298-0.368 0.339-2.511 0.339-2.3 0.017-2.424 0-2.425-0.37Zm-45.334 0.072a31.666 31.666 0 0 1-2.341-0.568l-1.59-0.446 0.817-1.5 0.814-1.5-0.658-0.814c-0.933-1.156-2.135-3.684-2.143-4.501-0.009-1.903 2.465-4.663 5.498-6.146 2.085-1.022 3.739-1.048 5.818-0.076l1.564 0.733 0.455-0.649c0.246-0.356 0.452-0.825 0.452-1.031 0-0.206 0.206-0.388 0.455-0.388 0.246 0 0.452 0.067 0.452 0.139 0 0.182-1.822 4.782-1.938 4.898-0.049 0.046-0.542-0.182-1.104-0.513-1.581-0.93-3.568-1.55-5.109-1.59-3.586-0.09-4.828 3.412-2.3 6.476l0.892 1.081 2.431-1.97c2.728-2.201 3.041-2.251 5.167-0.782 2.39 1.648 2.43 4.153 0.121 6.775-2.042 2.332-4.145 2.975-7.753 2.372Zm17.332-0.478c-1.871-0.872-3.56-2.537-4.533-4.481-1.558-3.117-1.08-5.112 1.871-7.805 2.479-2.265 4.507-3.148 7.235-3.149 1.97 0 2.39 0.107 3.667 0.889 3.024 1.871 3.774 5.439 1.955 9.33-2.135 4.568-6.644 6.864-10.195 5.216Zm-11.215-2.033c1.185-0.933 1.104-2.656-0.183-4.023-1.616-1.715-2.117-1.639-4.961 0.733-2.827 2.358-2.844 2.268 0.536 3.345 2.233 0.727 3.635 0.701 4.608-0.055Zm17.477-0.133c1.402-0.692 2.366-3.89 1.969-6.543-0.492-3.273-4.918-5.506-8.165-4.122-3.34 1.428-3.389 5.225-0.107 8.646 2.291 2.398 4.261 3.024 6.303 2.019Zm32.9-4.096c0.116-0.206-2.447-5.801-2.688-5.859-0.174-0.049-2.827 5.422-2.827 5.833 0 0.209 5.39 0.232 5.515 0.026Z"/></svg>