<svg fill="#000000" role="img" viewBox="0 0 31 24" xmlns="http://www.w3.org/2000/svg"><title>Squarespace</title><path d="M28.895 7.876c-2.265-2.264-5.941-2.264-8.252 0l-9.241 9.24c-0.566 0.566-0.566 1.509 0 2.074 0.566 0.564 1.509 0.564 2.074 0l9.241-9.241c1.13-1.13 2.969-1.13 4.104 0 1.131 1.131 1.131 2.972 0 4.103l-9.101 9.1c1.131 1.13 2.969 1.13 4.102 0l7.026-7.026c2.308-2.311 2.308-5.988 0.047-8.25z m-3.112 3.063c-0.567-0.566-1.51-0.566-2.074 0l-9.245 9.289c-1.131 1.13-2.968 1.13-4.1 0-0.566-0.566-1.509-0.566-2.075 0s-0.566 1.509 0 2.073c2.264 2.264 5.941 2.264 8.252 0l9.241-9.24c0.564-0.612 0.564-1.558 0.001-2.122z m-3.066-9.239c-2.264-2.264-5.941-2.264-8.251 0l-9.241 9.241c-0.566 0.564-0.566 1.507 0 2.073s1.509 0.566 2.074 0l9.296-9.241c1.131-1.13 2.981-1.13 4.111 0 0.567 0.566 1.51 0.566 2.074 0 0.529-0.612 0.529-1.507-0.036-2.073h-0.027z m-3.111 3.063c-0.566-0.566-1.509-0.566-2.074 0l-9.241 9.289c-1.13 1.131-2.971 1.131-4.105 0-1.131-1.13-1.131-2.971 0-4.103l9.1-9.1c-1.131-1.131-2.969-1.131-4.102 0L2.112 7.876c-2.263 2.263-2.263 5.94 0 8.25 2.264 2.264 5.94 2.264 8.252 0l9.239-9.241c0.567-0.613 0.567-1.556 0-2.122h0.003z"/></svg>