<svg fill="#AF001E" role="img" viewBox="0 0 70 24" xmlns="http://www.w3.org/2000/svg"><title>SRG SSR</title><path d="M0.213 0.003v23.997h69.574V0Zm8.636 6.189c1.432 0 2.56 0.093 3.073 0.165 0.232 0.035 0.354 0.136 0.319 0.4l-0.212 1.325c-0.07 0.391-0.197 0.444-0.655 0.409a34.259 34.259 0 0 0-2.65-0.125c-0.815 0-1.667 0.18-1.667 1.099 0 0.655 0.406 0.936 1.293 1.165l1.305 0.337c2.337 0.6 3.009 1.751 3.009 3.287 0 2.618-2.047 3.54-4.859 3.539-1.255 0-2.545-0.093-3.058-0.165-0.229-0.035-0.357-0.136-0.319-0.4l0.212-1.365c0.072-0.388 0.194-0.444 0.652-0.406 0.441 0.035 1.731 0.139 2.473 0.139 1.626 0 2.299-0.174 2.299-1.165 0-0.673-0.455-0.986-1.534-1.27l-1.307-0.339c-1.716-0.441-2.708-1.519-2.708-3.34 0-2.015 1.418-3.29 4.334-3.29z m21.09 0c1.821 0 2.618 0.107 2.739 0.125 0.371 0.035 0.438 0.197 0.386 0.55l-0.209 1.273c-0.072 0.388-0.197 0.435-0.658 0.403-0.513-0.035-1.412-0.087-2.085-0.087-2.226 0-3.255 0.693-3.255 3.398 0 2.139 0.62 3.693 3.024 3.693 0.406 0 0.762-0.017 0.869-0.035v-2.476h-0.829c-0.354 0-0.464-0.128-0.464-0.481v-1.217c0-0.351 0.11-0.475 0.464-0.476h2.899c0.354 0 0.458 0.125 0.458 0.476v5.676c0 0.388-0.11 0.533-0.481 0.62s-1.09 0.174-3.015 0.174c-4.299 0-5.682-2.473-5.682-5.954 0-3.519 1.681-5.662 5.839-5.662z m11.969 0c1.432 0 2.566 0.087 3.079 0.159 0.232 0.035 0.354 0.142 0.319 0.406l-0.218 1.325c-0.07 0.391-0.188 0.444-0.649 0.409a34.259 34.259 0 0 0-2.65-0.125c-0.812 0-1.664 0.18-1.664 1.099 0 0.655 0.406 0.936 1.29 1.165l1.308 0.337c2.334 0.6 3.006 1.751 3.006 3.287 0 2.618-2.052 3.537-4.865 3.537a27.771 27.771 0 0 1-3.055-0.163c-0.232-0.035-0.354-0.136-0.319-0.4l0.218-1.365c0.07-0.388 0.191-0.444 0.649-0.406 0.441 0.035 1.734 0.139 2.476 0.139 1.623 0 2.299-0.174 2.298-1.165 0-0.673-0.464-0.991-1.542-1.276l-1.304-0.333c-1.716-0.441-2.702-1.519-2.702-3.34 0-2.015 1.409-3.29 4.325-3.29z m9.143 0c1.432 0 2.563 0.087 3.073 0.159 0.232 0.035 0.354 0.142 0.319 0.406l-0.209 1.325c-0.07 0.391-0.197 0.444-0.658 0.409a34.245 34.245 0 0 0-2.649-0.125c-0.812 0-1.664 0.18-1.664 1.099 0 0.655 0.406 0.936 1.29 1.165l1.307 0.337c2.334 0.6 3.009 1.751 3.009 3.287 0 2.618-2.05 3.537-4.858 3.537-1.255 0-2.551-0.09-3.065-0.163-0.232-0.035-0.354-0.136-0.319-0.4l0.218-1.365c0.07-0.388 0.191-0.444 0.652-0.406 0.441 0.035 1.731 0.139 2.473 0.139 1.626 0 2.299-0.174 2.299-1.165 0-0.673-0.455-0.991-1.537-1.276l-1.31-0.333c-1.716-0.441-2.702-1.519-2.702-3.34 0-2.015 1.415-3.29 4.331-3.29zM14.65 6.32h3.939c2.725 0 3.963 1.238 3.963 3.449 0 1.713-0.974 2.493-1.841 3.038l2.58 4.282c0.287 0.441-0.017 0.6-0.261 0.6h-1.927c-0.423 0-0.571-0.125-0.748-0.426l-2.099-3.78c-0.217-0.371-0.206-0.53-0.107-0.925l0.174-0.739c0.159-0.673 0.336-0.441 0.849-0.652 0.406-0.177 0.815-0.464 0.815-1.363 0-0.991-0.513-1.377-1.575-1.377h-1.681v8.784c0 0.357-0.104 0.478-0.458 0.478h-1.623c-0.354 0-0.461-0.122-0.461-0.475v-10.419c0-0.354 0.107-0.475 0.461-0.475z m42.202 0h3.942c2.722 0 3.957 1.238 3.957 3.449 0 1.713-0.968 2.493-1.835 3.038l2.58 4.282c0.284 0.441-0.017 0.6-0.263 0.6h-1.931c-0.426 0-0.565-0.125-0.742-0.426l-2.102-3.78c-0.232-0.406-0.203-0.533-0.107-0.925l0.174-0.739c0.159-0.673 0.339-0.441 0.852-0.652 0.406-0.177 0.812-0.464 0.812-1.363 0-0.991-0.51-1.377-1.571-1.377h-1.682v8.781c0 0.354-0.104 0.481-0.458 0.481h-1.623c-0.357 0-0.464-0.128-0.464-0.481v-10.413c0-0.354 0.107-0.475 0.464-0.475z"/></svg>