<svg fill="#154881" role="img" viewBox="0 0 61 24" xmlns="http://www.w3.org/2000/svg"><title>SSRN</title><path d="M8.021 0c-4.298 0-7.259 2.512-7.259 6.04 0 1.581 0.53 2.878 1.541 3.935 1.135 1.173 2.351 1.823 5.191 2.794 2.958 0.933 3.526 1.218 4.136 1.665 1.052 0.85 1.66 2.025 1.659 3.281 0 2.555-2.431 4.623-5.432 4.623-1.823 0-3.728-0.731-4.906-1.907-0.89-0.89-1.498-1.904-2.025-3.445-0.081-0.202-0.164-0.323-0.325-0.323-0.202 0-0.366 0.202-0.366 0.485 0 0.325 0.164 1.259 0.447 2.148 0.245 0.852 0.406 1.42 0.406 1.501 0.245 1.216 0.285 1.256 0.607 1.541 0.852 0.648 3.364 1.256 5.231 1.256 4.661 0 7.985-2.958 7.985-7.095 0-3.039-1.985-5.228-6.078-6.567-4.096-1.337-4.3-1.46-5.231-2.472a3.723 3.723 0 0 1-0.973-2.555c0-2.189 1.783-3.77 4.257-3.77 2.958 0 5.715 1.743 6.487 4.136 0.202 0.648 0.282 0.769 0.527 0.769 0.161 0 0.323-0.202 0.323-0.486 0-0.121-0.04-0.404-0.081-0.732-0.446-2.754-0.487-2.875-0.53-3.362 0-0.567-0.119-0.812-0.403-0.812a0.305 0.305 0 0 0-0.162 0.081c-0.404 0.325-0.446 0.366-0.648 0.366a1.248 1.248 0 0 1-0.325-0.081c-2.149-0.893-2.512-1.014-4.053-1.014z m13.256 0.081c-3.082 0-5.473 1.256-6.568 3.283l0.242 1.662c0.043 0.242 0.04 0.404 0.041 0.487 0 0.648-0.404 1.135-0.931 1.256 0.121 1.259 0.648 2.353 1.539 3.244 1.135 1.175 2.353 1.826 5.19 2.799 2.921 0.971 3.528 1.216 4.136 1.66 1.054 0.812 1.662 2.028 1.662 3.283 0 2.555-2.431 4.623-5.432 4.623-1.823 0-3.733-0.731-4.906-1.904a7.112 7.112 0 0 1-0.973-1.218c-0.242 0.567-0.527 1.135-0.853 1.622 0.245 1.135 0.285 1.218 0.611 1.46 0.85 0.648 3.364 1.256 5.228 1.256 4.623 0 7.987-2.958 7.987-7.095-0.081-2.958-2.108-5.107-6.204-6.486-4.136-1.377-4.338-1.458-5.228-2.472a3.725 3.725 0 0 1-0.974-2.555c0-2.23 1.783-3.77 4.258-3.77 2.958 0 5.675 1.743 6.486 4.136 0.202 0.648 0.323 0.769 0.527 0.769 0.161 0 0.325-0.202 0.326-0.487 0-0.121-0.043-0.363-0.083-0.729-0.446-2.757-0.484-2.878-0.528-3.364 0-0.567-0.121-0.812-0.403-0.812-0.081 0-0.124 0.04-0.164 0.081-0.404 0.328-0.444 0.366-0.648 0.365-0.081 0-0.161-0.04-0.326-0.08-2.106-0.933-2.512-1.014-4.012-1.014z m11.758 0.446c-0.772 0-1.622 0.04-2.472 0.081-1.826 0.121-1.826 0.121-2.678 0.121h-0.323a2.043 2.043 0 0 1 0.121 0.772c0.04 0.323 0.04 0.487 0.282 1.823l0.285 1.783a2.774 2.774 0 0 1 0.041 0.487 1.286 1.286 0 0 1-0.366 0.933v6.366c0.731 1.052 1.095 2.27 1.095 3.647 0 1.581-0.446 3.001-1.216 4.176-0.202 1.46-0.731 1.823-2.068 2.23-0.323 0.081-0.404 0.121-0.404 0.325 0 0.242 0.121 0.323 0.444 0.323 0.121 0 0.53-0.04 0.853-0.081 0.567-0.081 1.42-0.121 2.229-0.121 1.581 0 3.324 0.04 3.73 0.121 0.446 0.04 0.81 0.081 1.014 0.081 0.282 0 0.527-0.121 0.527-0.323s-0.202-0.325-0.608-0.366c-2.353-0.242-3.122-1.095-3.041-3.404v-6.003c0.04-0.565 0.121-0.648 0.973-0.605h1.824c0.731 0 0.933 0.121 1.299 0.688 0.121 0.202 0.202 0.323 0.201 0.364l4.094 6.285c1.665 2.555 3.122 3.528 5.15 3.528 1.216 0 2.351-0.325 2.35-0.651 0-0.121-0.121-0.242-0.282-0.242-1.743 0.04-2.921-0.933-4.986-4.096l-4.623-6.729c2.673-1.38 4.136-3.324 4.136-5.798 0-1.783-0.731-3.364-2.028-4.338-1.296-0.971-2.961-1.377-5.553-1.377z m27.243 0.283c-0.202 0-0.446 0.04-0.812 0.083-0.404 0.081-0.81 0.121-1.501 0.121-0.971 0-2.593-0.081-3.203-0.121l-0.729-0.041c-0.323 0-0.487 0.121-0.486 0.323 0 0.242 0.124 0.366 0.486 0.447 3.163 0.446 3.448 1.175 3.365 8.918v7.944c0 0.53-0.04 0.651-0.202 0.611-0.081 0-0.202-0.121-0.446-0.404l-15.244-17.352c-0.323-0.366-0.527-0.487-0.89-0.487-0.121 0-0.325 0-0.567 0.041h-0.285c-0.081 0-0.81 0-1.297-0.041 0.202 0.121 0.404 0.282 0.606 0.404 1.463 1.095 2.353 2.961 2.353 4.986 0 0.325-0.04 0.651-0.081 0.933v10.543l0.403 0.605c0.366 0.53 0.651 0.974 0.934 1.379v-11.879c0-0.567 0.081-0.729 0.325-0.728 0.161 0 0.202 0.04 0.403 0.242l13.988 16.055c0.53 0.608 0.53 0.608 0.772 0.608 0.404 0 0.527-0.245 0.527-0.974v-0.322c0.04-0.974 0.04-2.472 0.04-4.583v-10.784l0.04-1.052c-0.04-4.015 0.121-4.421 1.662-4.825 0.242-0.04 0.325-0.124 0.326-0.285 0-0.202-0.202-0.366-0.487-0.365z m-28.136 0.852c1.541 0 3.203 0.527 4.136 1.38 1.175 0.971 1.864 2.593 1.864 4.136 0 2.754-1.743 4.456-4.663 4.456h-1.864c-1.095-0.04-1.175-0.121-1.176-1.175V3.73c0-1.135 0-1.259 0.202-1.541 0.245-0.325 0.731-0.527 1.501-0.527z"/></svg>