<svg fill="#E27152" role="img" viewBox="0 0 32 24" xmlns="http://www.w3.org/2000/svg"><title>SST</title><path d="M29.88 5.769h-4.907a0.342 0.342 0 0 1-0.29-0.524l2.165-3.462a1.166 1.166 0 0 0-0.988-1.783H5.723c-0.702 0-1.352 0.377-1.703 0.985C3.121 2.558 1.39 5.573 0.704 6.768a2.194 2.194 0 0 0-0.29 1.091L0.405 16.9a1.948 1.948 0 0 0 1.948 1.95h6.212a0.107 0.107 0 0 1 0.087 0.165l-2.142 3.158a1.17 1.17 0 0 0 0.968 1.827h18.899a2.69 2.69 0 0 0 2.353-1.388c0.604-1.094 1.561-2.61 2.152-3.679 0.468-0.849 0.713-1.803 0.713-2.772V7.486c0-0.949-0.768-1.715-1.715-1.716z m-24.238-2.469a1.858 1.858 0 0 1 1.859-1.859h17.256a0.441 0.441 0 0 1 0.369 0.683l-2.267 3.47a0.389 0.389 0 0 1-0.325 0.175H12.573c-0.668 0-1.291 0.338-1.656 0.897-1.083 1.661-3.044 5.045-3.05 5.098h-0.243a1.892 1.892 0 0 1-1.983-1.891V3.301zM3.335 17.654a0.677 0.677 0 0 1-0.533-1.096l2.088-2.67a2.163 2.163 0 0 1 1.699-0.832l18.231-0.064a0.417 0.417 0 0 1 0.358 0.637l-1.603 2.619c-0.252 0.411-0.699 0.663-1.182 0.663H10.612a1.3 1.3 0 0 0-1.176 0.743H3.337z m25.907 1.446c-0.476 0.825-1.267 1.991-1.729 2.795-0.325 0.563-0.923 0.91-1.572 0.909H8.3a0.351 0.351 0 0 1-0.287-0.552l2.557-3.63a1.216 1.216 0 0 1 0.994-0.514h17.103a0.663 0.663 0 0 1 0.575 0.992z m1.033-3.185a0.996 0.996 0 0 1-0.996 0.994h-3.419a0.637 0.637 0 0 1-0.54-0.974l1.411-2.27a1.258 1.258 0 0 0-1.068-1.923H10.518a0.506 0.506 0 0 1-0.427-0.776c0.559-0.877 1.216-2.296 1.781-3.187a1.749 1.749 0 0 1 1.477-0.81h15.951a0.975 0.975 0 0 1 0.975 0.974v7.972z"/></svg>