<svg fill="#207BEA" role="img" viewBox="0 0 29 24" xmlns="http://www.w3.org/2000/svg"><title>Stackbit</title><path d="M13.239 0.367L1.505 7.161c-0.941 0.539-1.486 1.591-1.395 2.69v4.529c-0.08 1.113 0.487 2.17 1.448 2.7l11.734 6.567a2.713 2.713 0 0 0 2.676 0l11.513-6.567c0.946-0.54 1.497-1.595 1.41-2.7v-4.529c0.082-1.094-0.462-2.138-1.395-2.679l-11.512-6.794A2.718 2.718 0 0 0 14.601 0c-0.47 0-0.94 0.122-1.362 0.367z m0.929 16.844l-11.733-6.794a0.894 0.894 0 0 1-0.347-0.354c-0.237-0.438-0.082-0.989 0.347-1.231l11.733-6.794a0.869 0.869 0 0 1 0.886 0l11.512 6.81c0.424 0.25 0.569 0.804 0.325 1.238-0.244 0.433-0.786 0.582-1.21 0.331l-11.074-6.542-9.932 5.75 10.366 6.001c0.428 0.246 0.58 0.801 0.338 1.238-0.163 0.297-0.465 0.464-0.775 0.465a0.872 0.872 0 0 1-0.436-0.118z m0.018 4.756L2.452 15.4a0.848 0.848 0 0 1-0.098-0.055c-0.413-0.268-0.536-0.828-0.273-1.25 0.261-0.422 0.809-0.548 1.221-0.28l11.305 6.325 11.085-6.325c0.428-0.244 0.968-0.087 1.207 0.351 0.238 0.438 0.085 0.99-0.344 1.234l-11.512 6.567a0.869 0.869 0 0 1-0.857 0z"/></svg>