<svg fill="#000000" role="img" viewBox="0 0 62 24" xmlns="http://www.w3.org/2000/svg"><title>StackPath</title><path d="M9.68 0c-2.601 0-4.738 0.592-6.437 1.803-1.7 1.185-2.549 2.781-2.55 4.738 0 2.009 0.711 3.554 2.138 4.609 1.416 1.082 3.605 2.06 6.54 2.987 1.416 0.515 2.395 0.979 2.936 1.442 0.567 0.438 0.824 1.082 0.824 1.906 0 0.721-0.258 1.313-0.824 1.751-0.541 0.489-1.391 0.695-2.498 0.695-1.468 0-2.575-0.309-3.27-0.875-0.773-0.618-1.133-1.545-1.133-2.884H0.134l-0.033 0.103c-0.052 2.498 0.891 4.403 2.833 5.742 1.931 1.339 4.223 1.983 6.875 1.983 2.627 0 4.738-0.567 6.335-1.7 1.597-1.185 2.421-2.807 2.421-4.841 0-2.034-0.67-3.605-2.009-4.764-1.365-1.159-3.348-2.137-6-2.91-1.725-0.644-2.884-1.159-3.528-1.57-0.618-0.412-0.927-0.953-0.927-1.623 0-0.721 0.309-1.313 0.927-1.777 0.618-0.541 1.468-0.747 2.575-0.746 1.107 0 1.983 0.309 2.601 0.875 0.644 0.618 0.953 1.339 0.953 2.266h5.253l0.026-0.077c0.077-2.086-0.747-3.811-2.395-5.15-1.648-1.339-3.76-1.983-6.361-1.983m12.309 0.155v23.639h5.537v-8.112h3.348c2.807 0 5.021-0.695 6.669-2.137 1.648-1.416 2.472-3.296 2.472-5.614 0-2.369-0.824-4.197-2.472-5.639-1.648-1.442-3.863-2.137-6.669-2.137H21.987m24.744 0l-8.189 23.665h5.125l8.395-23.665m4.506 0l-8.189 23.665h5.125L61.901 0.155M27.523 4.378h3.348c1.185 0 2.112 0.335 2.704 1.004 0.644 0.67 0.953 1.468 0.953 2.575 0 1.03-0.309 1.88-0.953 2.524-0.592 0.67-1.519 0.979-2.704 0.978h-3.348z"/></svg>