<svg fill="#CD2640" role="img" viewBox="0 0 37 24" xmlns="http://www.w3.org/2000/svg"><title>Stadia</title><path d="M10.159 8.999a27.849 27.849 0 0 1 24.043 0.401c0.401 0.301 1.002 0 1.102-0.401l1.402-4.308c0.2-0.401 0-1.002-0.501-1.202A34.06 34.06 0 0 0 0.642 6.895a1.002 1.002 0 0 0-0.3 1.302l3.305 7.313c0.2 0.501 0.801 0.801 1.303 0.601 3.707-1.402 9.417-2.805 15.227-2.003-4.007 0.701-7.113 2.104-9.617 3.606a1.002 1.002 0 0 0-0.301 1.303L12.263 23.625c0.2 0.401 0.701 0.501 1.001 0.2 0.801-0.801 1.603-1.402 2.304-1.803 3.206-1.803 7.614-3.206 13.524-2.905a1.002 1.002 0 0 0 1.002-0.701l1.503-4.508c0.201-0.401 0-1.002-0.401-1.202a30.554 30.554 0 0 0-21.137-3.707z"/></svg>