<svg fill="#FFE200" role="img" viewBox="0 0 25 24" xmlns="http://www.w3.org/2000/svg"><title>Star Trek</title><path d="M15.464 14.615c0.095 0 0.302 0.096 0.58 0.465a58.126 58.126 0 0 1 2.181 3.253c-1.639 0.651-3.621 1.017-5.725 1.018-0.995 0-1.962-0.098-2.877-0.262 1.427-1.518 2.939-2.877 4.737-4.009 0.559-0.28 0.825-0.465 1.104-0.465z m2.442-6.247c2.879 1.063 4.823 2.927 4.822 5.034 0 1.425-0.887 2.75-2.355 3.782-0.388-2.276-0.904-4.509-1.656-6.664a38.969 38.969 0 0 0-0.813-2.151zM8.199 8.049a39.246 39.246 0 0 0-1.104 3.311 56.767 56.767 0 0 0-1.336 6.451c-2.125-1.108-3.487-2.709-3.487-4.417 0.001-2.29 2.458-4.368 5.927-5.345zM12.966 0c-0.096 0-0.081-0.007-0.175 0.087a26.067 26.067 0 0 0-3.689 5.811C4.071 6.853 0.414 9.872 0.414 13.395c0 2.607 2.005 4.938 5.084 6.363a65.317 65.317 0 0 0-0.35 4.038c0 0.095 0.109 0.203 0.205 0.204h0.086c0.095 0 0.081 0.007 0.175-0.087a80.332 80.332 0 0 1 2.556-3.226c1.348 0.338 2.8 0.524 4.33 0.524 2.473 0 4.772-0.483 6.683-1.307 0.463 0.778 0.915 1.566 1.395 2.412 0 0.095 0.195 0.087 0.29 0.086a0.176 0.176 0 0 0 0.174-0.174 70.07 70.07 0 0 0-0.348-3.11c2.386-1.43 3.893-3.475 3.892-5.723 0-3.275-3.179-6.116-7.669-7.264a33.768 33.768 0 0 0-3.777-6.043c0-0.095-0.079-0.088-0.174-0.088z"/></svg>