<svg fill="#004B8D" role="img" viewBox="0 0 34 24" xmlns="http://www.w3.org/2000/svg"><title>Stardock</title><path d="M31.222 0.003c-0.149 0-0.303 0.01-0.462 0.023-2.137 0.177-5.347 1.262-9.022 3.05a10.08 10.08 0 0 0-5.104-1.367c-5.674 0-10.289 4.615-10.289 10.313 0 0.927 0.128 1.83 0.36 2.683-4.436 3.711-6.934 7.09-6.033 8.56 0.98 1.548 5.493 0.567 11.165-2.141a10.388 10.388 0 0 0 4.794 1.187c5.674 0 10.292-4.617 10.292-10.289 0-0.748-0.08-1.494-0.234-2.19 4.821-3.945 7.607-7.555 6.626-9.102-0.33-0.516-1.057-0.75-2.093-0.729Zm-5.949 2.35c-2.631 1.058-6.42 2.347-7.76 5.106-0.776 1.573 0.51 3.352 1.156 4.175 0.647 0.853 1.857 2.991-0.179 5.209-2.064 2.243-9.67 4.565-9.67 4.566 2.449-1.16 6.756-2.834 7.424-5.724 0.516-2.192-1.571-3.43-2.139-4.41-0.567-0.98-1.158-2.655 1.806-4.87 2.966-2.244 9.361-4.052 9.362-4.052Zm1.403 1.043c0.922-0.01 1.586 0.208 1.896 0.685 0.592 0.929-0.285 2.683-2.141 4.668a10.338 10.338 0 0 0-3.196-4.668c1.341-0.438 2.521-0.674 3.443-0.685zM7.093 15.839a10.494 10.494 0 0 0 3.172 4.229c-2.424 0.722-4.229 0.721-4.77-0.155-0.542-0.85 0.103-2.347 1.598-4.073z"/></svg>