<svg fill="#082125" role="img" viewBox="0 0 107 24" xmlns="http://www.w3.org/2000/svg"><title>STARZ</title><path d="M10.521 0C2.168 0 1.075 5.245 1.075 6.85c0 9.712 12.949 6.164 12.949 9.877 0 0.916-0.725 1.889-3.252 1.89-2.79 0-3.356-1.279-3.356-2.252H0.496c0.024 1.777 0.74 7.635 10.275 7.635 7.062 0 10.102-3.32 10.102-7.523 0-9.631-13.233-5.986-13.233-9.627 0-0.719 0.567-1.803 2.786-1.803 2.22 0 2.787 1.084 2.787 1.803H19.794c0-1.73-0.92-6.85-9.274-6.85z m10.059 0.647v6.203h6.272v16.503h6.841V6.85h6.358V0.647Zm24.819 0L36.411 23.353h7.255l0.811-2.467h7.945l0.82 2.467h7.246L51.499 0.647Zm16.529 0v22.706h6.841v-9.558l5.694 9.558h8.109l-5.797-8.402c3.091-1.389 4.383-4.105 4.383-6.876h-0.009c0-4.099-2.706-7.428-9.369-7.428h-0.008z m21.775 0v6.203h8.998l-9.826 16.503h18.47l3.442-6.203h-10.836l9.818-16.503Zm-14.934 5.59h3.011c1.84 0 2.562 0.994 2.562 2.226 0 1.231-0.723 2.234-2.562 2.234v-0.008h-3.011z m-20.324 2.692l2.467 7.41h-4.926z m56.696 11.991c-0.754 0-1.364 0.617-1.364 1.372 0 0.754 0.609 1.363 1.363 1.363A1.361 1.361 0 0 0 106.504 22.292c0-0.754-0.609-1.372-1.364-1.372z m-0.061 0.268c0.019-0.001 0.042 0 0.06 0 0.606 0 1.095 0.498 1.096 1.104a1.094 1.094 0 0 1-1.096 1.095c-0.606 0-1.104-0.489-1.104-1.095 0-0.587 0.464-1.075 1.044-1.104z m-0.414 0.371v1.457h0.267v-0.569h0.208l0.31 0.57h0.31l-0.344-0.604a0.436 0.436 0 0 0 0.207-0.147 0.419 0.419 0 0 0 0.086-0.267c0-0.261-0.184-0.44-0.466-0.44z m0.267 0.276h0.285c0.139 0 0.216 0.057 0.216 0.172 0 0.115-0.077 0.172-0.216 0.172h-0.285z"/></svg>