<svg fill="#006241" role="img" viewBox="0 0 25 24" xmlns="http://www.w3.org/2000/svg"><title>Starbucks</title><path d="M13.716 5.229c-0.106-0.019-0.617-0.105-1.216-0.104s-1.11 0.085-1.216 0.104c-0.061 0.011-0.084-0.049-0.038-0.083 0.042-0.031 1.254-0.953 1.254-0.953l1.253 0.953c0.047 0.035 0.024 0.094-0.037 0.083z m-2.094 5.99s-0.064 0.023-0.081 0.079c0.254 0.195 0.429 0.639 0.959 0.639s0.705-0.444 0.958-0.639c-0.017-0.057-0.081-0.079-0.08-0.079s-0.332 0.078-0.878 0.078c-0.546 0-0.878-0.078-0.878-0.078zM12.5 10.472c-0.147 0-0.179-0.056-0.28-0.055-0.096 0-0.281 0.077-0.321 0.146a0.155 0.155 0 0 0 0.041 0.095c0.215 0.032 0.311 0.152 0.56 0.152 0.249 0 0.345-0.119 0.56-0.152a0.159 0.159 0 0 0 0.042-0.095c-0.04-0.07-0.226-0.146-0.322-0.146-0.101-0.001-0.133 0.055-0.28 0.055z m12.077 2.287a12.054 12.054 0 0 1-0.076 0.859c-1.369 0.227-1.859-0.993-3.262-0.932 0.084 0.298 0.152 0.601 0.205 0.91 1.157-0.001 1.623 1.08 2.909 0.922-0.068 0.331-0.149 0.657-0.243 0.978-1.018 0.1-1.376-0.911-2.553-0.884 0.01 0.168 0.015 0.337 0.015 0.508l-0.005 0.283 2.286 0.872a12.131 12.131 0 0 1-0.399 0.955c-0.687-0.038-0.924-0.92-1.97-0.849a9.157 9.157 0 0 1-0.119 0.67c0.908-0.064 1.104 0.772 1.754 0.84a12.324 12.324 0 0 1-0.534 0.884c-0.385-0.207-0.72-0.829-1.45-0.868a8.668 8.668 0 0 0 0.196-0.705c-0.648 0-1.39-0.253-2.011-0.819 0.202-1.147-1.579-2.316-1.58-3.156 0-0.913 0.462-1.418 0.462-2.648 0-0.913-0.444-1.904-1.112-2.581a2.234 2.234 0 0 0-0.415-0.333c0.614 0.76 1.086 1.662 1.086 2.706 0 1.159-0.539 1.77-0.539 2.84 0 1.069 1.564 1.995 1.565 3.097 0 0.434-0.139 0.857-0.596 1.69 0.702 0.701 1.617 1.084 2.207 1.084 0.191 0 0.294-0.058 0.363-0.209a9.161 9.161 0 0 0 0.168-0.394c0.636 0.025 0.927 0.602 1.278 0.833-0.193 0.259-0.396 0.51-0.608 0.752-0.236-0.261-0.553-0.701-1.017-0.823a9.278 9.278 0 0 1-0.263 0.477c0.4 0.109 0.673 0.512 0.885 0.777a12.222 12.222 0 0 1-0.713 0.68c-0.154-0.24-0.395-0.545-0.664-0.709a8.427 8.427 0 0 1-0.31 0.394c0.229 0.155 0.431 0.435 0.563 0.662-0.285 0.229-0.581 0.446-0.887 0.65-0.151-1.228-1.827-2.07-1.375-3.496-0.148 0.251-0.325 0.565-0.326 0.944 0 1.032 1.099 1.85 1.187 2.875-0.228 0.136-0.461 0.264-0.698 0.386-0.039-1.127-1.203-2.36-1.203-3.285 0-1.033 1.352-2.069 1.352-3.288 0-1.22-1.56-2.064-1.56-3.135 0-1.07 0.664-1.686 0.663-3.057 0-1.005-0.477-2.021-1.215-2.671-0.131-0.115-0.259-0.207-0.413-0.287 0.696 0.834 1.099 1.591 1.098 2.739 0 1.29-0.76 2.006-0.76 3.269 0 1.263 1.531 1.965 1.531 3.142 0 1.177-1.425 2.169-1.425 3.379 0 1.1 1.256 2.198 1.275 3.504a11.859 11.859 0 0 1-0.839 0.328c0.16-1.319-1.254-2.679-1.254-3.755 0-1.176 1.478-2.188 1.478-3.456 0-1.269-1.503-1.859-1.503-3.161 0-1.302 0.922-2.023 0.922-3.461 0-1.121-0.554-2.13-1.362-2.755l-0.051-0.039c-0.076-0.056-0.139 0.012-0.085 0.079 0.572 0.715 0.878 1.438 0.878 2.508 0 1.316-1.059 2.385-1.059 3.66 0 1.505 1.422 1.935 1.422 3.169 0 1.234-1.525 2.221-1.525 3.532 0 1.215 1.443 2.564 1.196 3.966a11.752 11.752 0 0 1-0.881 0.194c0.271-1.746-1.145-3.001-1.145-4.143 0-1.237 1.58-2.34 1.58-3.549 0-1.14-1.134-1.513-1.283-2.679-0.021-0.159-0.148-0.277-0.325-0.248-0.23 0.042-0.525 0.193-0.989 0.194-0.464 0-0.759-0.152-0.989-0.194-0.176-0.029-0.304 0.089-0.324 0.248-0.149 1.166-1.283 1.539-1.284 2.679 0 1.209 1.58 2.311 1.58 3.549 0 1.143-1.416 2.397-1.145 4.143a12.215 12.215 0 0 1-0.881-0.194c-0.248-1.403 1.196-2.751 1.196-3.966 0-1.31-1.526-2.298-1.525-3.532 0-1.235 1.423-1.665 1.422-3.169 0-1.275-1.059-2.344-1.059-3.66 0-1.07 0.306-1.793 0.879-2.508 0.054-0.067-0.009-0.135-0.086-0.078l-0.05 0.038c-0.808 0.623-1.361 1.632-1.362 2.753 0 1.438 0.922 2.159 0.923 3.461 0 1.302-1.503 1.892-1.503 3.162 0 1.268 1.478 2.279 1.478 3.456 0 1.076-1.414 2.436-1.254 3.755a11.989 11.989 0 0 1-0.839-0.328c0.019-1.305 1.274-2.404 1.274-3.504 0-1.209-1.424-2.202-1.424-3.379 0-1.177 1.53-1.88 1.53-3.143 0-1.263-0.76-1.979-0.76-3.268 0-1.148 0.403-1.905 1.098-2.739-0.155 0.08-0.283 0.172-0.413 0.287-0.737 0.649-1.214 1.666-1.214 2.671 0 1.371 0.664 1.987 0.663 3.057 0 1.071-1.56 1.915-1.56 3.134 0 1.219 1.352 2.256 1.352 3.289 0 0.925-1.164 2.158-1.203 3.285a11.965 11.965 0 0 1-0.698-0.386c0.088-1.025 1.186-1.844 1.186-2.876 0-0.378-0.177-0.692-0.325-0.943 0.452 1.425-1.225 2.267-1.376 3.495a12.212 12.212 0 0 1-0.886-0.649c0.131-0.227 0.333-0.507 0.563-0.663a7.973 7.973 0 0 1-0.31-0.394c-0.27 0.165-0.51 0.469-0.665 0.71a12.338 12.338 0 0 1-0.712-0.681c0.212-0.265 0.485-0.669 0.885-0.777a9.111 9.111 0 0 1-0.264-0.477c-0.464 0.122-0.781 0.562-1.016 0.823a12.233 12.233 0 0 1-0.609-0.752c0.352-0.231 0.643-0.809 1.279-0.833 0.053 0.132 0.109 0.264 0.168 0.394 0.069 0.15 0.172 0.209 0.363 0.209 0.59 0 1.505-0.383 2.207-1.084-0.457-0.832-0.596-1.256-0.596-1.69 0-1.102 1.564-2.028 1.564-3.097 0-1.07-0.539-1.681-0.539-2.84 0-1.044 0.472-1.946 1.086-2.706a2.234 2.234 0 0 0-0.414 0.334c-0.669 0.677-1.112 1.667-1.112 2.58 0 1.23 0.462 1.736 0.462 2.649 0 0.84-1.781 2.009-1.58 3.156-0.622 0.566-1.363 0.819-2.012 0.819a9.375 9.375 0 0 0 0.197 0.704c-0.731 0.039-1.065 0.662-1.451 0.868a12.178 12.178 0 0 1-0.534-0.883c0.65-0.068 0.846-0.904 1.755-0.841a9.196 9.196 0 0 1-0.12-0.67c-1.046-0.07-1.283 0.812-1.97 0.85a12.131 12.131 0 0 1-0.399-0.955l2.287-0.873-0.005-0.282c0-0.171 0.005-0.34 0.015-0.508-1.178-0.028-1.536 0.983-2.554 0.883a12.197 12.197 0 0 1-0.243-0.978c1.286 0.159 1.753-0.922 2.91-0.921a8.814 8.814 0 0 1 0.204-0.911c-1.402-0.061-1.892 1.159-3.261 0.932a11.824 11.824 0 0 1-0.077-0.859c1.591 0.178 2.188-1.13 3.637-0.97a8.494 8.494 0 0 1 0.475-1.004c-1.817-0.319-2.434 1.2-4.124 0.966C0.592 5.23 5.935 0 12.5 0S24.408 5.23 24.59 11.751c-1.691 0.233-2.308-1.285-4.124-0.966 0.179 0.322 0.338 0.658 0.475 1.004 1.448-0.16 2.045 1.148 3.636 0.97z m-17.276-5.073c-0.891-0.364-1.969-0.28-2.89 0.311-0.143-0.857-0.608-1.618-1.269-2.077-0.091-0.063-0.187-0.003-0.178 0.103 0.14 1.81-0.918 3.382-2.22 4.764 1.341 0.403 2.483-1.324 4.223-0.722a9.105 9.105 0 0 1 2.334-2.379zM12.5 6.591c-1.123 0-2.063 0.635-2.31 1.455-0.019 0.063 0.007 0.104 0.08 0.071 0.202-0.091 0.432-0.134 0.681-0.134 0.458 0 0.862 0.168 1.1 0.461 0.106 0.348 0.115 0.853-0.005 1.14-0.189-0.042-0.256-0.188-0.44-0.188-0.184 0-0.327 0.129-0.64 0.13-0.312 0-0.349-0.148-0.554-0.148-0.241 0-0.286 0.249-0.285 0.529 0 1.251 1.15 2.973 2.373 2.973 1.223 0 2.373-1.721 2.372-2.973 0-0.281-0.058-0.521-0.31-0.553-0.126 0.091-0.242 0.172-0.529 0.172-0.313 0-0.399-0.129-0.583-0.13-0.222 0-0.2 0.469-0.463 0.495-0.176-0.423-0.184-0.964-0.039-1.447 0.239-0.293 0.642-0.461 1.101-0.461 0.25 0 0.481 0.044 0.68 0.134 0.073 0.033 0.098-0.008 0.08-0.071-0.246-0.82-1.186-1.455-2.309-1.455z m1.788 1.795c-0.269 0-0.585 0.083-0.784 0.303-0.021 0.06-0.021 0.15 0.009 0.21 0.488-0.167 0.919-0.174 1.127 0.059 0.111-0.101 0.146-0.191 0.146-0.297 0-0.163-0.165-0.275-0.498-0.275z m-3.928 0.572c0.235-0.236 0.732-0.226 1.248-0.036 0.023-0.256-0.437-0.537-0.896-0.537-0.333 0-0.498 0.112-0.498 0.276 0 0.105 0.035 0.196 0.146 0.297z m7.739-4.235c-0.887 0.063-1.657 0.368-2.28 0.875 0.264-0.75 0.6-1.406 1.026-2.042-1.129 0.12-2.073 0.533-2.761 1.238l-0.539-1.413 1.197-1.057-1.603-0.113L12.5 0.721l-0.64 1.49-1.602 0.113 1.197 1.057-0.539 1.413c-0.689-0.706-1.633-1.118-2.761-1.238 0.425 0.636 0.761 1.292 1.025 2.042-0.622-0.508-1.393-0.812-2.279-0.875 0.532 0.684 1.003 1.413 1.352 2.196 0.04 0.088 0.124 0.117 0.216 0.072 1.214-0.604 2.583-0.943 4.031-0.943 1.448 0 2.816 0.34 4.03 0.943 0.091 0.046 0.176 0.017 0.216-0.072 0.35-0.784 0.821-1.513 1.353-2.196z m1.935 5.343c1.739-0.603 2.881 1.124 4.223 0.722-1.301-1.382-2.359-2.954-2.22-4.764 0.008-0.106-0.087-0.166-0.178-0.103-0.662 0.459-1.127 1.22-1.269 2.077-0.921-0.591-1.999-0.676-2.89-0.311a9.111 9.111 0 0 1 2.334 2.379z"/></svg>