<svg fill="#001327" role="img" viewBox="0 0 24 24" xmlns="http://www.w3.org/2000/svg"><title>Statista</title><path d="M0.86 0a0.84 0.84 0 0 0-0.841 0.84v15.217H0.14s3.611-0.068 5.143-0.874a10.89 10.89 0 0 0 3.337-3.051l0.903-1.275 0.285-0.406c0.034-0.04 0.182-0.257 0.268-0.383s0.458-0.651 0.818-1.176a16.94 16.94 0 0 1 5.263-4.744c3.337-1.714 7.76-1.542 7.76-1.542h0.068V0.892A0.84 0.84 0 0 0 23.145 0Zm23.119 7.949a0.9 0.9 0 0 1-0.216 0.029s-3.605 0.068-5.154 0.879a10.86 10.86 0 0 0-3.339 3.046l-0.885 1.28c-0.131 0.183-0.257 0.365-0.291 0.405l-0.269 0.383-0.817 1.177s-2.178 3.143-5.263 4.744c-3.2 1.663-7.388 1.554-7.731 1.542v1.714A0.84 0.84 0 0 0 0.854 24h22.286a0.84 0.84 0 0 0 0.839-0.84z"/></svg>