<svg fill="#FF269E" role="img" viewBox="0 0 30 24" xmlns="http://www.w3.org/2000/svg"><title>Statamic</title><path d="M24.685 24c2.184 0 2.985-0.941 2.985-3.246v-4.506c0-2.144 1.042-3.366 2.043-3.947 0.301-0.181 0.301-0.601 0-0.801-1.041-0.661-2.042-2.044-2.042-3.887v-4.407c0-2.485-0.682-3.206-2.865-3.206H5.193c-2.184 0-2.865 0.722-2.865 3.206v4.427c0 1.843-1.002 3.224-2.043 3.886a0.469 0.469 0 0 0 0 0.801c1.001 0.561 2.042 1.784 2.042 3.946v4.488c0 2.303 0.803 3.246 2.986 3.246z m-9.736-4.107c-2.344 0-4.046-0.701-5.629-2.083a1.109 1.109 0 0 1-0.361-0.841 1.033 1.033 0 0 1 0.24-0.701l0.502-0.641c0.24-0.301 0.5-0.441 0.8-0.441 0.341 0 0.661 0.139 1.002 0.361a6.637 6.637 0 0 0 3.726 1.1c1.102 0 1.983-0.461 1.984-1.401 0-2.444-8.133-1.102-8.134-6.591 0-2.946 2.403-4.588 5.529-4.588 2.204 0 3.827 0.641 5.03 1.402 0.299 0.2 0.5 0.601 0.5 1.002 0 0.24-0.061 0.461-0.2 0.66l-0.361 0.542c-0.261 0.361-0.56 0.542-0.941 0.541-0.261 0-0.542-0.1-0.842-0.24a6.312 6.312 0 0 0-2.985-0.702c-1.183 0-1.884 0.641-1.884 1.302 0 2.505 8.134 1.143 8.135 6.471 0 3.005-2.424 4.848-6.111 4.848z"/></svg>