<svg fill="#1E1E1E" role="img" viewBox="0 0 115 24" xmlns="http://www.w3.org/2000/svg"><title>Steamworks</title><path d="M104.969 0v9.902h-7.186v7.186h7.186v-7.172H114.876V0z m-28.282 2.381v5.14h5.14V2.381z m11.122 12.298a2.85 2.85 0 0 0-1.827 0.688 2.376 2.376 0 0 0-0.741 1.831 2.089 2.089 0 0 0 0.693 1.674 2.998 2.998 0 0 0 1.578 0.669l0.493 0.072 0.535 0.096a5.121 5.121 0 0 1 0.78 0.176 1.75 1.75 0 0 1 0.487 0.311 1.626 1.626 0 0 1 0.478 1.282 1.688 1.688 0 0 1-0.607 1.386 2.529 2.529 0 0 1-1.659 0.502 3.519 3.519 0 0 1-1.363-0.239 3.572 3.572 0 0 1-1.147-0.837l-0.469 0.488a3.801 3.801 0 0 0 1.291 0.923 4.141 4.141 0 0 0 1.64 0.287 3.251 3.251 0 0 0 2.176-0.689 2.429 2.429 0 0 0 0.837-1.864 2.534 2.534 0 0 0-0.206-0.995 2.022 2.022 0 0 0-0.574-0.765 2.238 2.238 0 0 0-0.621-0.382 4.016 4.016 0 0 0-0.957-0.225l-0.535-0.096-0.421-0.062a3.921 3.921 0 0 1-0.727-0.215 2.3 2.3 0 0 1-0.588-0.344 1.544 1.544 0 0 1-0.454-1.196 1.807 1.807 0 0 1 0.55-1.372 2.113 2.113 0 0 1 1.496-0.502 2.95 2.95 0 0 1 1.205 0.215 3.586 3.586 0 0 1 0.933 0.631l0.43-0.44a3.409 3.409 0 0 0-2.534-1.004 2.85 2.85 0 0 0-0.172 0z m-84.457 0.024a3.218 3.218 0 0 0-2.066 0.769 2.591 2.591 0 0 0-0.837 2.008 2.467 2.467 0 0 0 0.631 1.793 2.878 2.878 0 0 0 1.717 0.751l0.574 0.072 0.502 0.072a1.329 1.329 0 0 1 0.822 0.363 1.1 1.1 0 0 1 0.239 0.741c0 0.765-0.526 1.133-1.563 1.133a3.744 3.744 0 0 1-1.2-0.177 2.247 2.247 0 0 1-0.933-0.588l-1.114 1.148a3.634 3.634 0 0 0 1.411 0.932 5.532 5.532 0 0 0 1.817 0.277 3.653 3.653 0 0 0 2.352-0.745 2.534 2.534 0 0 0 0.923-2.061 2.582 2.582 0 0 0-0.684-1.937 2.295 2.295 0 0 0-0.693-0.444 4.724 4.724 0 0 0-1.004-0.249l-0.512-0.072-0.54-0.071a1.396 1.396 0 0 1-0.799-0.373 0.928 0.928 0 0 1-0.277-0.646 1.061 1.061 0 0 1 0.359-0.822 1.458 1.458 0 0 1 1.018-0.325 3.667 3.667 0 0 1 0.98 0.129 1.884 1.884 0 0 1 0.823 0.502l1.09-1.109a3.443 3.443 0 0 0-1.243-0.813 4.671 4.671 0 0 0-1.617-0.254 3.218 3.218 0 0 0-0.176 0z m57.81 0.014a2.926 2.926 0 0 0-1.137 0.239 3.084 3.084 0 0 0-1.005 0.698 2.51 2.51 0 0 0-0.463 0.641 2.902 2.902 0 0 0-0.239 0.731 6.632 6.632 0 0 0-0.096 0.909 40.082 40.082 0 0 0 0 2.845 6.244 6.244 0 0 0 0.096 0.908 2.902 2.902 0 0 0 0.239 0.727 2.324 2.324 0 0 0 0.463 0.645 3.084 3.084 0 0 0 1.005 0.694 3.137 3.137 0 0 0 1.2 0.239 2.926 2.926 0 0 0 1.2-0.239 3.084 3.084 0 0 0 1.004-0.694 2.51 2.51 0 0 0 0.464-0.645 2.897 2.897 0 0 0 0.239-0.727 6.622 6.622 0 0 0 0.095-0.908 39.972 39.972 0 0 0 0-2.845 6.24 6.24 0 0 0-0.095-0.909 2.897 2.897 0 0 0-0.239-0.731 2.324 2.324 0 0 0-0.464-0.641 3.084 3.084 0 0 0-1.004-0.698 3.137 3.137 0 0 0-1.196-0.239 2.926 2.926 0 0 0-0.067 0z m-52.35 0.072v1.592H11.121v7.53h1.722v-7.53h2.304v-1.592z m8.979 0v9.122h5.824v-1.577h-4.088v-2.219h3.476v-1.592h-3.476v-2.142h4.088v-1.592z m10.988 0l-3.218 9.122h1.793l0.54-1.611h3.132l0.526 1.611h1.802l-3.227-9.122z m6.894 0v9.122h1.722v-5.307l1.697 3.452h1.171l1.683-3.452v5.307h1.722v-9.122h-1.693l-2.295 4.924-2.309-4.924z m10.51 0l2.199 9.122h0.689l2.089-7.937 2.08 7.937h0.684l2.199-9.122h-0.703l-1.865 7.927-2.056-7.927H50.806l-2.056 7.927-1.865-7.927z m21.286 0v9.122h0.669v-4.217h2.429l2.104 4.217h0.775l-2.128-4.217a2.343 2.343 0 0 0 2.046-2.467 2.324 2.324 0 0 0-0.707-1.788 2.63 2.63 0 0 0-1.827-0.65z m9.228 0v9.122h0.669v-2.462l2.104-2.644 2.835 5.106v-0.009h0.799l-3.189-5.628 2.725-3.481h-0.803l-4.471 5.7v-5.7z m15.243 0.157v0.909h0.124v-0.612l0.215 0.444h0.115l0.201-0.444v0.612h0.134v-0.909h-0.134l-0.263 0.565-0.263-0.565z m-0.789 0.01v0.119h0.249v0.78h0.133v-0.78h0.249v-0.119z m-29.931 0.382a2.338 2.338 0 0 1 1.683 0.708 2.152 2.152 0 0 1 0.368 0.512 2.319 2.319 0 0 1 0.206 0.631 5.341 5.341 0 0 1 0.086 0.837 35.764 35.764 0 0 1 0 2.658 5.341 5.341 0 0 1-0.086 0.837 2.319 2.319 0 0 1-0.206 0.631 2.419 2.419 0 0 1-0.368 0.511 2.338 2.338 0 0 1-3.347 0 2.152 2.152 0 0 1-0.373-0.511 2.816 2.816 0 0 1-0.201-0.631 5.341 5.341 0 0 1-0.086-0.837 35.664 35.664 0 0 1 0-2.658 5.341 5.341 0 0 1 0.086-0.837 2.319 2.319 0 0 1 0.201-0.631 2.419 2.419 0 0 1 0.373-0.512 2.338 2.338 0 0 1 1.669-0.708z m9.596 0.072a2.07 2.07 0 0 1 1.339 0.469 1.673 1.673 0 0 1 0.526 1.382 1.712 1.712 0 0 1-0.541 1.367 2.046 2.046 0 0 1-1.405 0.469h-2.597v-3.682h2.606a2.07 2.07 0 0 1 0.072-0.005z m-41.325 2.07l1.09 3.309h-2.199z"/></svg>