<svg fill="#7D00FF" role="img" viewBox="0 0 29 24" xmlns="http://www.w3.org/2000/svg"><title>Stellar</title><path d="M14.834 0.005A12.001 12.001 0 0 0 2.499 12.002c0 0.306 0.012 0.61 0.035 0.914A2.183 2.183 0 0 1 1.347 15.026L0.317 15.552v2.451l3.035-1.547 0.983-0.501 0.97-0.493 17.386-8.86 1.953-0.995L28.683 3.549V1.098l-4.003 2.042-3.416 1.741-16.494 8.401a9.9 9.9 0 0 1-0.082-1.283 9.825 9.825 0 0 1 14.615-8.566l1.955-0.996 0.292-0.149a12.001 12.001 0 0 0-6.716-2.283zM28.683 6.002L6.292 17.403l-1.954 0.997L0.317 20.451v2.449L4.309 20.865l3.416-1.741 16.512-8.412a10.016 10.016 0 0 1 0.082 1.29A9.825 9.825 0 0 1 9.69 20.567l-0.12 0.064-2.119 1.08a12.001 12.001 0 0 0 19.051-9.709c0-0.307-0.012-0.617-0.035-0.921a2.184 2.184 0 0 1 1.186-2.11L28.683 8.445Z"/></svg>