<svg fill="#77E8B9" role="img" viewBox="0 0 24 24" xmlns="http://www.w3.org/2000/svg"><title>Stimulus</title><path d="M0.704 0A0.704 0.704 0 0 0 0 0.704v2.824h5.648a3.064 3.064 0 0 1 1.312 0.36l3.232 1.9a0.4 0.4 0 0 1 0 0.712l-1.536 0.904a1.308 1.308 0 0 1-1.2 0l-1.2-0.7a3.084 3.084 0 0 0-1.316-0.36H0v4.236h4.94a3.028 3.028 0 0 0 1.316-0.36l10.8-6.344a3.008 3.008 0 0 1 1.312-0.36H24V0.692A0.704 0.704 0 0 0 23.296 0zM19.06 6.352a3.084 3.084 0 0 0-1.316 0.36l-10.8 6.348a3.064 3.064 0 0 1-1.312 0.36H0v4.236h4.94a3.084 3.084 0 0 0 1.316-0.36l10.8-6.348a3.064 3.064 0 0 1 1.312-0.36H24V6.352h-3.376z m0 7.072a3.084 3.084 0 0 0-1.316 0.36l-10.8 6.344a3.008 3.008 0 0 1-1.312 0.36H0v2.824A0.708 0.708 0 0 0 0.704 24h22.592a0.708 0.708 0 0 0 0.704-0.7v-2.824h-5.648a3.008 3.008 0 0 1-1.312-0.36l-3.232-1.896a0.4 0.4 0 0 1 0-0.716l1.536-0.9a1.308 1.308 0 0 1 1.2 0l1.2 0.696a3.028 3.028 0 0 0 1.316 0.36H24v-4.236h-3.376z"/></svg>