<svg fill="#03234B" role="img" viewBox="0 0 46 24" xmlns="http://www.w3.org/2000/svg"><title>STMicroelectronics</title><path d="M45.195 0L12.487 0C10.089-0.002 7.916 1.412 6.947 3.604L0.49 19.158C0.396 19.383 0.561 19.631 0.806 19.627L15.574 19.627C16.617 19.627 17.081 18.617 16.262 17.809L10.838 12.729C7.991 9.935 9.212 3.456 15.131 3.456L44.045 3.456C44.19 3.457 44.319 3.365 44.368 3.228L45.512 0.464C45.529 0.423 45.538 0.377 45.536 0.332 45.531 0.148 45.381 0 45.195 0M41.934 7.918L36.383 7.918C36.019 7.916 35.688 8.132 35.547 8.466L29.327 23.49C29.301 23.539 29.286 23.594 29.286 23.648 29.288 23.836 29.44 23.988 29.628 23.984L31.699 23.984C34.137 23.996 36.343 22.542 37.296 20.298L42.239 8.363C42.254 8.323 42.263 8.28 42.263 8.237 42.255 8.06 42.111 7.922 41.934 7.918M31.021 8.254C31.021 8.066 30.867 7.916 30.679 7.916L14.936 7.916C14.081 7.916 13.334 8.958 14.239 9.794L19.439 14.637C19.439 14.637 21.543 16.577 21.092 19.355 20.705 21.802 19.036 23.299 17.819 23.836 17.757 23.851 17.734 23.928 17.777 23.975 17.798 23.996 17.828 24.005 17.856 23.997L23.918 23.997C24.283 24.001 24.613 23.785 24.754 23.447L30.993 8.372C31.012 8.337 31.021 8.295 31.021 8.254"/></svg>