<svg fill="#E00033" role="img" viewBox="0 0 43 24" xmlns="http://www.w3.org/2000/svg"><title>strongSwan</title><path d="M31.801 0.001a5.611 5.611 0 0 0-2.924 0.888c-0.435 0.328-0.959 0.923-0.919 2.068 0.039 0.568 0.055 0.522 0.198 1.029 0.412 0.769 0.813 1.104 1.467 1.669 0.107 0.083 0.14 0.107 0.236 0.175 0.488 0.458 0.982 0.987 1.402 1.461 0.367 0.454 0.767 0.959 1.072 1.465 0.406 0.696 0.467 0.655 0.969 1.647 0.509 1.145 0.706 2.471 0.402 3.671a8.201 8.201 0 0 1-1.563 2.922l0.616 2.018 0.538-1.979 0.822 0.005 0.529 1.977 0.604-1.973h0.827l-0.984 2.95c0.533-0.692 0.937-1.314 1.355-2.125l0.726 0.124c0.064-0.165 0.14-0.275 0.257-0.325 0.071-0.032 0.112-0.057 0.337-0.056 0.178-0.002 0.383 0.028 0.45 0.168 0.023 0.062 0.05 0.114 0.04 0.325a6.532 6.532 0 0 1-0.774 0.185c-0.536 0.105-0.758 0.186-0.924 0.34a0.781 0.781 0 0 0-0.27 0.631c0 0.195 0.036 0.327 0.124 0.461 0.14 0.217 0.337 0.35 0.611 0.408 0.178 0.039 0.536 0.032 0.697-0.014a1.527 1.527 0 0 0 0.48-0.245l0.124-0.094 0.099 0.307h0.856l-0.027-0.053a2.029 2.029 0 0 1-0.133-0.391c-0.021-0.096-0.025-0.234-0.027-0.972 0-0.712-0.005-0.882-0.024-0.98-0.039-0.199-0.071-0.284-0.182-0.384a0.817 0.817 0 0 0-0.456-0.248 3.089 3.089 0 0 0-0.877-0.044c-0.383 0.032-0.746 0.195-0.869 0.39 0 0.004 0 0.004-0.004 0.005 1.303-2.647 1.779-5.662 0.486-8.335-0.746-1.633-1.839-2.702-3.108-3.731 1.26 0.016 2.427 0.167 3.609 0.035 0.296-0.021 0.533-0.036 0.808-0.099a1.108 1.108 0 0 1 0.564-0.13c0.595-0.206 0.667-0.38 0.673-0.518-0.037-0.321-0.595-0.573-0.865-0.698l-1.704 0.359c-0.101-0.071-1.482-0.518-1.473-1.056 0.005-0.217 0.231-0.245 0.284-0.769l0.002-0.467-0.103-0.529c-0.112-0.146-0.754-0.556-1.111-0.747-0.428-0.213-0.685-0.337-0.998-0.417a5.646 5.646 0 0 0-1.945-0.304z m-11.24 1.166c-2.959-0.018-5.828 0.904-7.911 3.249-0.976 1.028-1.882 2.261-2.588 3.413 0.703 0.147 1.237 0.33 2.067 0.568 0.777 0.172 1.385 0.671 1.921 0.866l0.16-0.085c-1.777-0.888-1.216-0.71-0.504-0.472 1.283 1.161 3.236 0.923 4.517 2.063l0.432 0.248c0.201-0.071-0.572-0.488-0.441-0.5l0.112 0.007c-0.039-0.002-1.53-0.946-1.411-0.941-0.151-0.257-0.474-0.399-0.635-0.547 0.403 0.13 1.042 0.666 1.299 0.76l0.131-0.112c0.059-0.051 0.009 0.24 0.251 0.293l0.177-0.293c0.03-0.046 0.154 0.259 0.233 0.279 0.053 0.014 0.007-0.108 0.131-0.197-0.218-0.14-0.249-0.133-0.462-0.245-0.273-0.051-0.325-0.075-0.814-0.423 0.515-0.043 0.579 0.16 0.816 0.267 0.781 0.224 1.598 0.497 2.262 0.997l0.058-0.071c0.03-0.036 0.969 0.683 0.905 0.621l0.116-0.147c0.021-0.027 0.234 0.305 0.252 0.286l0.106-0.119c0.447 0.401 0.49 0.669 0.938 0.978 0.284 0.133 0.959 0.662 1.402 0.937 0.896 0.799 1.262 1.136-0.052 0.137-0.295-0.165-1.095-0.932-0.937-0.286 0.295 0.222 1.191 0.66 0.792 0.687 0.014 0.007 0.069 0.135 0.666 0.471 0.254 0.144 0.793 0.529 0.793 0.528l0.025-0.044 0.312 0.284c-0.021-0.021-0.225-0.023-0.333-0.039-0.501-0.391-0.479-0.344-0.526-0.343-0.375 0.419 0.369 0.277 0.057 0.533 0.273 0.149 0.536 0.376 0.74 0.58 0.021 0.217 0.231 0.337 0.469 0.563s0.506 0.559 0.69 0.728c1.502-0.69 2.334-1.732 2.753-2.705 0.524-1.342 0.435-1.811 0.153-2.816-0.316-0.989-1.262-2.047-2.1-2.71-0.444-0.396-0.879-0.653-1.558-1.163-1.225-1.333-1.693-2.487-1.809-3.489-0.135-0.916 0.107-1.772 0.298-2.335-1.243-0.124-2.577-0.266-3.665-0.257a14.044 14.044 0 0 0-0.288-0.004zM10.062 7.829c-0.142-0.025-0.279-0.05-0.407-0.053a0.6 0.6 0 0 0-0.447 0.158c0.231 0.027 0.462 0.053 0.706 0.131z m-0.148 0.236l-0.142 0.224c0.389 0.041 0.557 0.027 0.914 0.071 0.337 0.089 0.962 0.266 1.261 0.367 0.028 0.023 0.156-0.059 0.088-0.095-0.692-0.309-1.447-0.369-2.121-0.567z m-0.142 0.224h-0.3l0.249 0.08z m-0.05 0.08l-0.055 0.115c0.383 0.055 1.75 0.515 1.855 0.527 0.076 0.009 0.112-0.085 0.045-0.115-0.238-0.092-0.563-0.17-0.902-0.273a10.302 10.302 0 0 0-0.943-0.254z m-0.055 0.115c-0.373-0.076-0.579-0.174-1.026-0.3-0.458-0.188-2.006-0.447-0.988 0.053 0.075 0.174-0.898-0.073-0.606-0.168-0.107 0.004-1.74-0.485-1.279-0.163-0.696-0.249-0.547-0.229-0.648 0.122-0.355-0.218-0.588-0.293-0.827-0.295-0.142 0-0.289 0.027-0.466 0.066-0.618-0.112-0.22-0.034-0.294 0.254 0.202 0.22 1.386 0.493 1.636 0.55 0.572 0.122 1.979 0.559 1.926 0.451-0.501-0.291 0.259 0.016 0.474 0.121 0.256 0.156 1.03 0.14 0.977 0.399a0.627 0.627 0 0 1 0.372 0.137c0.218-0.382 0.435-0.767 0.749-1.225z m-0.937-0.451c0.119 0.124 0.249 0.094 0.412 0.139 0.117-0.011 0.518-0.032 0.596-0.023-0.03-0.007-0.408-0.112-1.008-0.116z m-0.724 0.133c0.169 0.004 0.758 0.398 0.344 0.245-0.431-0.115-0.579-0.227-0.372-0.239a0.06 0.06 0 0 1 0.028-0.006z m-4.748 0.02c-0.06-0.005-0.099 0.142 0.211 0.185 0.096 0.014-0.138-0.165-0.213-0.185z m0.39 0.124c-0.053 0.037 0.053 0.121 0.645 0.227 0.486 0.089-0.534-0.229-0.643-0.227z m5.109 0.053c0.071 0 0.421 0.218 0.293 0.205-0.419-0.05-0.453-0.206-0.293-0.205z m-4.45 0.338c0.406 0.256 0.55 0.302 0.092 0.238 0.261 0.172 0.852 0.266 0.618 0.543 0.098 0.048 0.357-0.011 0.397 0.083 0.041 0.094 0.028 0.112-0.179 0.231-0.142 0.089-0.87-0.112-1.212-0.16-0.391-0.101-0.667-0.107-1.055-0.16-0.831-0.082-0.005 0.154-1.192 0.082-0.967-0.057-0.343 0.195-0.434 0.217-0.178 0.243-0.504-0.122-0.555-0.078-0.078 0.101-0.018 0.332-0.51 0.01L0.199 9.981c0.705-0.018 0.927 0.259 1.06-0.063 0.302 0.023 0.533 0.17 0.628 0.237 0.096 0.066-0.238 0.195-0.028 0.168 0.179-0.199 0.305 0.119 0.426 0.101 0.078 0 0.213-0.146 0.302-0.156 0.037 0.011 0.14 0.174 0.23 0.165 0.076-0.007 0.229-0.124 0.265-0.101 0.69 0.117 0.866 0.172 0.987 0.312 0.447-0.021 0.976 0.291 1.709 0.371 1.741 0.596-1.605-0.343-2.595-0.284-0.334 0.03-1.548-0.231-0.955 0.103 0.511 0.225 0.856 0.453 1.108 0.283 0.085-0.046 1.587 0.632 0.6 0.033 0.213 0.03 0.403-0.018 0.578 0.08 0.538 0.289 0.834 0.103 1.003 0.238 0.492 0.277 0.841 0.197 1.239 0.24 0.224 0.039 0.73 0.107 0.845 0.184 0.202 0.041 0.119 0.025 0.377 0.068l0.181-0.474c-1.191-0.133-1.23-0.199-2.739-0.653l0.025-0.1c0.371 0.121 0.609 0.178 0.923 0.226l0.021-0.167c0.16 0.039 0.834 0.186 0.868 0.161-0.382-0.167-0.355-0.078-0.289-0.202 0.195-0.059 0.989 0.293 1.088 0.247 0.277-0.009 0.218 0.005 0.287 0.012 0.273-0.737 0.304-0.675 0.49-1.161a4.04 4.04 0 0 1-0.435-0.193c-0.158 0.075 0.348 0.252-0.543-0.014-0.261-0.178-0.222-0.257-0.271-0.004-0.096-0.066-0.158-0.009-0.602-0.343-0.623-0.217-2.238-0.6-2.675-0.596z m4.036 2.309l-0.184 0.476c0.376 0.036 0.296 0.009 0.537-0.018 0.24-0.025 0.836 0.209 1.103 0.339 0.156 0.101 0.169 0.131 0.644 0.297 0.261 0.044 1.019 0.43 1.555 0.56 0.064-0.018 0.644 0.202 0.934 0.267 0.181 0.071 0.343 0.165 0.497 0.278 0.261 0.108 0.367 0.154 0.674 0.196 0.291 0.126-0.032 0.043 0.357 0.207 0.426 0.218 0.635 0.43 0.785 0.474 0.185-0.094 0.604-0.213 0.674-0.23-0.305-0.071-0.777-0.43-1.45-0.689-1.106-0.266-2.018-0.976-3.035-1.427l-0.744-0.201c-0.067 0.005-0.076 0.037-0.078 0.089 0.699 0.218 0.948 0.288 1.201 0.417 0.323 0.284 0.572 0.328 0.624 0.392-0.577-0.172-0.524-0.151-1.048-0.309-0.421-0.138-0.486-0.236-1.029-0.403-0.28-0.087-0.632-0.295-0.952-0.413a3.847 3.847 0 0 0-1.065-0.302z m-0.365 0.95C6.728 15.373 6.084 17.051 3.323 18.852c-0.646 0.406-1.381 0.71-2.147 0.758v4.379c2.68 0.004 5.359 0.002 8.037 0.011-0.49-4.045 1.995-8.135 5.684-9.772-0.675-0.511-0.692-0.359-0.801-0.305-0.44-0.321-2.041-1.202-2.059-1.221-0.178-0.02-0.639-0.222-0.706-0.133-0.044 0.098 0.231 0.128 0.332 0.149 0.399 0.073 2.205 1.179 2.343 1.406-0.795 0.044-1.438-0.728-2.097-0.897l0.015-0.209c-0.419-0.213-0.737-0.217-0.854-0.295-0.142 0.259-1.803-0.614-2.077-0.605-0.408 0.059-0.378-0.064-1.015-0.158z m1.665-2.363c-0.03 0-0.012 0.018 0.099 0.073 0.094 0.034 0.914 0.364 0.454 0.254-0.298 0.208 0.754 0.023 0.434 0.206-0.706-0.197 0.971 0.543 0.546 0.124-0.165-0.261-0.233-0.156-0.342-0.213-0.325-0.165-0.527-0.225-0.735-0.316-0.053-0.016-0.383-0.124-0.456-0.128z m0.456 0.128m-8.121-0.092c0.231 0 0.472 0.018 0.555 0.025 0.65-0.08 0.754 0.213 0.19 0.156-0.053-0.004-0.192-0.13-0.413 0.087-0.131-0.016-0.224-0.153-0.376-0.185 0.126 0.178 0.52 0.252-0.233 0.156-0.458-0.202-0.107-0.243 0.277-0.239z m1.315 0.058c0.089-0.004 0.197 0.03 0.227 0.137-0.456-0.027-0.373-0.131-0.227-0.137z m15.537 0.497l-0.005 0.002c-0.217 0.142 0.089 0.412 0.683 0.618-0.176-0.245-0.075-0.254-0.346-0.343 0.119 0.305-0.266-0.275-0.332-0.277z m-10.178 0.213c-0.408 0.249 0.863 0.534 0.687 0.453-0.075-0.307 0.708 0.309 0.385-0.076-0.462-0.103-0.195-0.183-0.36-0.171-0.28 0.117-0.524-0.174-0.712-0.204z m-3.669 0.03c0.009 0 0.018 0.004 0.028 0.009 0.041 0.025 0.092 0.089 0.166 0.128 0.018 0.066-0.051 0.071-0.123 0.052-0.071-0.018-0.144-0.059-0.138-0.08 0.02-0.083 0.041-0.11 0.067-0.11z m1.5 0.16c0.028 0 0.085 0.044 0.169 0.181-0.172-0.007-0.224-0.178-0.169-0.179z m13.157 0.082c-0.149 0.13 0.334 0.524 0.479 0.257-0.241-0.224 0.096 0.218-0.479-0.257z m-7.083 0.005c-0.492 0.115-0.488 0.012 0.094 0.35 0.533 0.245-0.005 0.169-0.223 0.021 0.007 0.053 0.444 0.385 0.39 0.337 0.209 0.147 0.806 0.382 0.568 0.075 0.213-0.266-0.343-0.288-0.344-0.327a1.539 1.539 0 0 1-0.497-0.324c-0.328 0.025 0.211-0.107 0.012-0.132z m-0.012 0.132h0.007c-0.007-0.004-0.009-0.004-0.007 0z m0.497 0.324c0.05 0.012 0.085 0.005 0.097-0.03-0.071 0.012-0.098 0.023-0.097 0.03z m0.497 5.063v0.861h-0.341v0.429h0.341l0.014 1.807c0.014 0.398 0.229 0.689 0.593 0.794 0.302 0.05 0.568 0.023 0.848-0.05l-0.007-0.469a1.301 1.301 0 0 1-0.435 0.103c-0.302-0.018-0.408-0.062-0.488-0.36l-0.009-1.828 0.941 0.003v-0.429h-0.935v-0.861z m8.19 0.774a1.243 1.243 0 0 0-0.815 0.317l-0.099 0.08v-0.31h-0.52v2.998h0.52v-2.235l0.113-0.083a1.598 1.598 0 0 1 0.458-0.242 1.014 1.014 0 0 1 0.419 0c0.107 0.03 0.195 0.103 0.245 0.201 0.083 0.163 0.089 0.222 0.096 1.338l0.007 1.021h0.519l-0.006-1.11c-0.005-1.076-0.007-1.115-0.039-1.242-0.089-0.364-0.296-0.604-0.61-0.698a1.287 1.287 0 0 0-0.288-0.035z m19.971 0.003a1.333 1.333 0 0 0-0.543 0.121 1.59 1.59 0 0 0-0.405 0.298l-0.06 0.069v-0.42h-0.788v3.044h0.847l-0.006-1.585c-0.018-0.777 0.401-0.895 0.707-0.907 0.346 0.011 0.486 0.249 0.497 0.589-0.004 0.635 0.002 1.269 0.007 1.903H42.801l-0.006-1.154c-0.005-1.049-0.009-1.164-0.032-1.26a0.82 0.82 0 0 0-0.507-0.598 1.381 1.381 0 0 0-0.556-0.1z m-23.273 0a1.599 1.599 0 0 0-0.351 0.036c-0.533 0.146-0.884 0.598-0.959 1.241-0.028 0.233-0.011 0.63 0.036 0.83 0.071 0.307 0.178 0.504 0.38 0.709a0.93 0.93 0 0 0 0.261 0.202 1.409 1.409 0 0 0 0.415 0.137c0.142 0.023 0.47 0.007 0.612-0.027a1.203 1.203 0 0 0 0.781-0.621c0.135-0.266 0.172-0.438 0.183-0.843a2.031 2.031 0 0 0-0.085-0.767 1.232 1.232 0 0 0-1.273-0.897z m6.025 0.002a1.189 1.189 0 0 0-0.847 0.348 1.221 1.221 0 0 0-0.312 0.472c-0.13 0.32-0.165 0.754-0.094 1.175 0.089 0.533 0.373 0.882 0.788 0.994a1.5 1.5 0 0 0 0.792-0.035c0.162-0.071 0.273-0.165 0.399-0.263l-0.004 0.24a1.864 1.864 0 0 1-0.032 0.323c-0.048 0.195-0.128 0.327-0.289 0.408a0.953 0.953 0 0 1-0.527 0.098c-0.348-0.007-0.646-0.13-0.866-0.206l-0.007 0.545c0.178 0.043 0.373 0.083 0.523 0.101 0.328 0.041 0.676 0.021 0.913-0.053 0.454-0.107 0.754-0.531 0.795-1.19v-2.875h-0.472l-0.025 0.124-0.137-0.075c-0.277-0.131-0.469-0.13-0.598-0.131z m-12.479 0.005a1.402 1.402 0 0 0-0.378 0.045c-0.343 0.101-0.598 0.341-0.674 0.633a1.148 1.148 0 0 0-0.023 0.244c0 0.266 0.067 0.438 0.23 0.591 0.16 0.151 0.33 0.209 0.836 0.314 0.359 0.075 0.497 0.138 0.556 0.314 0.036 0.311 0.004 0.382-0.19 0.502a1.289 1.289 0 0 1-0.43 0.075c-0.266 0.025-0.66-0.126-0.983-0.387H10.885v0.568c0.195 0.099 0.408 0.174 0.63 0.227 0.178 0.046 0.678 0.027 0.803-0.014 0.264-0.085 0.533-0.266 0.635-0.463a0.804 0.804 0 0 0 0.107-0.451c-0.002-0.456-0.217-0.692-0.742-0.815l-0.384-0.089a1.035 1.035 0 0 1-0.408-0.168c-0.08-0.073-0.122-0.241-0.092-0.366 0.027-0.107 0.089-0.174 0.191-0.236 0.314-0.192 0.884-0.085 1.282 0.231h0.041v-0.547a2.379 2.379 0 0 0-0.598-0.186 4.251 4.251 0 0 0-0.373-0.022z m4.75 0.075a1.203 1.203 0 0 0-0.701 0.311l-0.165 0.142 0.002-0.449H15.358l0.007 2.992 0.506 0.004-0.007-2.128a1.624 1.624 0 0 1 0.446-0.288c0.263-0.094 0.346-0.071 0.644-0.041v-0.541h-0.231z m1.713 0.362c0.091 0 0.183 0.012 0.274 0.039 0.249 0.078 0.421 0.288 0.502 0.609 0.044 0.178 0.057 0.657 0.023 0.856-0.067 0.389-0.249 0.641-0.525 0.733a0.793 0.793 0 0 1-0.764-0.142c-0.201-0.188-0.289-0.438-0.303-0.863-0.018-0.492 0.071-0.822 0.275-1.026a0.747 0.747 0 0 1 0.518-0.206z m6.071 0.014h0.075a1.424 1.424 0 0 1 0.596 0.174v1.63l-0.089 0.062a1.425 1.425 0 0 1-0.426 0.195 1.099 1.099 0 0 1-0.497 0c-0.209-0.067-0.337-0.217-0.412-0.49a2.272 2.272 0 0 1-0.053-0.594c0.028-0.38 0.117-0.604 0.309-0.785a0.664 0.664 0 0 1 0.497-0.192z m7.029 0.187c-1.8 1.592-3.35 1.945-4.272 2.179 0.438 1.235 0.604 2.68 0.513 3.985 2.833-0.47 5.396-1.605 7.235-3.697l-0.764-0.002-0.55-1.949-0.531 1.949-0.816 0.002z m6.71 1.029c0.012 0.004 0.012 0.05 0.007 0.229-0.009 0.277-0.034 0.362-0.138 0.479a0.808 0.808 0 0 1-0.355 0.203c-0.197 0.05-0.376 0.009-0.503-0.116-0.199-0.199-0.13-0.486 0.14-0.585 0.08-0.03 0.142-0.046 0.584-0.148a6.154 6.154 0 0 0 0.265-0.062z"/></svg>