<svg fill="#003168" role="img" viewBox="0 0 53 24" xmlns="http://www.w3.org/2000/svg"><title>StubHub</title><path d="M52.509 0L0.469 3.493c-0.256 0.018-0.464 0.236-0.464 0.501V4.049l1.601 15.2v0.008c0.007 0.079 0.013 0.155 0.013 0.243 0 0.272-0.035 0.537-0.106 0.766L0.765 22.684c-0.088 0.269 0.057 0.402 0.322 0.296l3.985-1.656c0.004 0 0.009 0 0.013-0.004h0.007c0.287-0.11 0.596-0.168 0.923-0.168h0.079l44.247 2.848c0.28 0 0.508-0.214 0.537-0.49L52.995 0.481v-0.044c0-0.243-0.199-0.437-0.442-0.437h-0.044z m-42.491 8.125h0.117c1.817 0 2.76 0.671 2.815 1.97v0.099h-1.139l-0.013-0.088c-0.06-0.574-0.603-0.852-1.663-0.853h-0.099c-1.06 0.018-1.583 0.336-1.583 0.959v0.176c0.011 0.121 0.066 0.225 0.154 0.301 0.115 0.106 0.258 0.192 0.42 0.242l2.658 0.89-0.016-0.011 0.023 0.009c0.397 0.126 0.751 0.36 1.015 0.676 0.238 0.305 0.386 0.691 0.387 1.108v0.258c0 0.634-0.309 1.192-0.795 1.535-0.519 0.397-1.27 0.592-2.202 0.591s-1.656-0.205-2.185-0.591v-0.005c-0.481-0.342-0.795-0.905-0.795-1.545v-0.155h1.139v0.111c0 0.322 0.139 0.563 0.464 0.764s0.79 0.302 1.386 0.302 1.082-0.106 1.407-0.3 0.486-0.442 0.485-0.764v-0.159c0-0.369-0.216-0.612-0.662-0.76L8.693 11.998c-0.431-0.137-0.773-0.347-0.993-0.618-0.221-0.265-0.353-0.605-0.354-0.981v-0.185c0-1.36 0.89-2.064 2.672-2.082z m18.308 0.177h1.144v3.197h3.506v-3.195h1.148v7.661h-1.153v-3.356h-3.499v3.356h-1.144v-7.661z m-14.34 0.015h1.104v2.087h1.181v1.126h-1.181v1.965c0 0.459 0.124 0.817 0.37 1.075l-0.004 0.009c0.192 0.199 0.446 0.331 0.737 0.375h0.078v1.071l-0.104-0.009h-0.009c-0.585-0.035-1.113-0.287-1.501-0.68-0.448-0.464-0.673-1.086-0.674-1.841v-5.18z m26.302 0h1.104v2.473c0.342-0.347 0.81-0.53 1.398-0.53 1.667 0 2.517 0.872 2.521 2.594v0.625c0 0.755-0.227 1.378-0.673 1.844s-1.073 0.698-1.846 0.698-1.387-0.232-1.832-0.696-0.676-1.091-0.676-1.841v-5.16z m-17.848 0.005h1.104v2.472c0.344-0.353 0.813-0.537 1.399-0.536 1.678 0 2.517 0.874 2.526 2.596v0.625c0 0.755-0.232 1.378-0.678 1.844s-1.066 0.698-1.839 0.698-1.384-0.232-1.832-0.696-0.678-1.091-0.678-1.841v-5.156z m-5.288 2.086h1.086v3.018c0 0.57 0.088 0.976 0.249 1.204 0.155 0.21 0.45 0.322 0.855 0.322h0.035c0.408 0 0.684-0.104 0.85-0.322s0.254-0.634 0.254-1.204H20.472V10.408h1.082v3.018c0 0.921-0.177 1.59-0.508 1.992-0.322 0.382-0.85 0.583-1.567 0.6h-0.254c-0.718-0.018-1.245-0.216-1.568-0.602-0.344-0.397-0.508-1.073-0.508-1.994V10.408z m17.833 0h1.086v3.018c0 0.57 0.088 0.976 0.254 1.204 0.155 0.21 0.442 0.322 0.848 0.322h0.055c0.397 0 0.676-0.11 0.835-0.322 0.166-0.23 0.254-0.634 0.254-1.204h-0.009V10.408h1.082v3.018c0 0.921-0.183 1.607-0.508 1.992s-0.848 0.583-1.568 0.6h-0.265c-0.715-0.018-1.243-0.216-1.567-0.602-0.342-0.397-0.503-1.073-0.504-1.994V10.408z m-10.042 0.932c-0.457 0-0.817 0.11-1.044 0.344s-0.353 0.629-0.353 1.17v0.636c0 0.459 0.137 0.808 0.375 1.073s0.574 0.402 1.025 0.402c0.448 0 0.788-0.124 1.037-0.397s0.375-0.618 0.376-1.078v-0.624c0-0.545-0.124-0.934-0.36-1.171s-0.587-0.353-1.051-0.353z m17.847 0c-0.457 0-0.817 0.11-1.044 0.344s-0.353 0.629-0.354 1.17v0.636c0 0.459 0.132 0.808 0.367 1.073s0.59 0.402 1.031 0.402 0.784-0.132 1.038-0.397 0.375-0.629 0.375-1.078v-0.624c0-0.545-0.124-0.934-0.36-1.171s-0.59-0.353-1.053-0.353z"/></svg>