<svg fill="#17AF66" role="img" viewBox="0 0 33 24" xmlns="http://www.w3.org/2000/svg"><title>Studio 3T</title><path d="M16.958 0.002c-4.592 0.06-12.154 2.687-15.552 10.663-0.218 0.523-0.409 1.059-0.569 1.604A17.474 17.474 0 0 0 0.286 14.853l-0.005-0.002c-0.552 5.547 0.707 8.434 2.557 9.02 1.239 0.392 2.326-0.135 3.605-1.21 1.406-1.181 1.957-2.075 1.799-3.306-0.164-1.27-1.534-2.194-2.776-2.525-1.796-0.522-1.072-1.673-1.072-1.673s1.936 1.39 5.056 1.04c2.846-0.319 3.387-0.916 3.388-0.916-0.004-2.936 1.57-4.983 3.629-5.18-1.431 0.674-2.256 3.004-2.253 4.895l0.008 5.006 0.71 0.003c2.089 0.003 3.868-2.098 3.864-4.47v-0.981s1.561-0.849 3.78-1.097c1.049-0.119 1.869-0.008 2.577 0.204a2.929 2.929 0 0 1-0.7-1.796c-0.01-0.307 0.493-0.441 0.605 0 0.395 1.774 1.41 2.533 3.949 3.295a5.232 5.232 0 0 0 1.44 0.029c1.1-0.151 2.2-0.76 2.376-2.055 0.164-1.213-0.44-2.041-1.057-2.889l-0.149-0.208a7.178 7.178 0 0 1-0.654-1.049 8.828 8.828 0 0 1-0.399-1.04c-0.146-0.433-0.29-0.864-0.511-1.256-2.91-5.157-8.092-6.755-13.095-6.69Zm10.979 8.566h0.037c0.395 0 0.715 0.346 0.717 0.771 0 0.425-0.317 0.77-0.714 0.77-0.395 0-0.718-0.347-0.718-0.772 0-0.411 0.3-0.749 0.678-0.769z m-8.223 6.442c0.286 2.811-1.312 3.998-1.312 3.998 2.229-0.134 4.748-2.169 4.622-4.783 0 0-0.988-0.143-3.31 0.785z"/></svg>