<svg fill="#1D29E4" role="img" viewBox="0 0 31 24" xmlns="http://www.w3.org/2000/svg"><title>Studyverse</title><path d="M15.84 23.977c1.977-0.161 3.895-0.792 5.511-1.957 0.701-0.515 1.354-1.122 1.818-1.863 0.237-0.378 0.391-0.79 0.378-1.242a2.882 2.882 0 0 0-0.752-1.996c-0.491-0.557-1.086-0.99-1.723-1.36a16.711 16.711 0 0 0-3.054-1.371c-3.091-1.073-6.457-2.018-9.386-3.474-0.95-0.485-1.888-1.029-2.661-1.773-0.382-0.384-0.73-0.836-0.889-1.361-0.288-0.972-0.289-2.045 0.127-2.981 0.136-0.322 0.344-0.577 0.536-0.867-0.08-0.112-0.12-0.245-0.276-0.26-0.262 0.034-0.52 0.159-0.765 0.258A9.735 9.735 0 0 0 1.376 6.177C0.877 6.763 0.43 7.492 0.287 8.257c-0.222 1.238 0.038 2.535 0.771 3.563 0.9 1.3 2.407 2.185 3.841 2.778 3.501 1.394 7.064 2.64 10.581 3.993 0.448 0.177 0.886 0.298 1.233 0.652 0.22 0.227 0.377 0.545 0.234 0.858-0.175 0.405-0.687 0.586-1.09 0.639-0.945 0.118-1.881-0.223-2.76-0.522-2.682-0.934-5.313-2.023-7.934-3.114-0.148-0.06-0.213-0.064-0.341 0.038-0.048 0.149-0.017 0.265 0.063 0.395 0.524 0.879 1.134 1.71 1.818 2.469 1.41 1.566 3.194 2.939 5.22 3.586 1.287 0.418 2.578 0.443 3.917 0.385z m9.694-3.451c0.297-0.042 0.586-0.187 0.861-0.303a9.724 9.724 0 0 0 3.263-2.442c0.65-0.775 1.115-1.665 1.126-2.7a4.672 4.672 0 0 0-1.032-3.161c-0.92-1.17-2.337-1.981-3.695-2.538-3.634-1.442-7.329-2.732-10.975-4.142-0.376-0.148-0.739-0.344-0.961-0.695-0.134-0.213-0.173-0.473-0.044-0.698 0.186-0.352 0.637-0.521 1.006-0.58 0.883-0.133 1.77 0.155 2.596 0.437 2.778 0.953 5.499 2.086 8.21 3.211 0.112 0.048 0.196 0.013 0.288-0.057 0.052-0.147 0.015-0.27-0.061-0.398A15.598 15.598 0 0 0 23.896 3.565c-1.342-1.39-3.007-2.586-4.863-3.172-0.926-0.293-1.926-0.403-2.895-0.391a11.161 11.161 0 0 0-4.246 0.76c-1.289 0.51-2.538 1.283-3.477 2.312-0.378 0.427-0.764 0.939-0.909 1.499a2.841 2.841 0 0 0 0.244 1.839c0.311 0.612 0.855 1.121 1.401 1.524 1.514 1.077 3.208 1.688 4.956 2.257 2.678 0.896 5.518 1.76 8.062 2.992 0.986 0.492 2.019 1.073 2.82 1.837 0.385 0.376 0.742 0.827 0.911 1.343 0.319 1.022 0.311 2.162-0.156 3.138-0.13 0.28-0.327 0.499-0.482 0.765 0.07 0.111 0.113 0.255 0.27 0.258z"/></svg>