<svg fill="#DB7093" role="img" viewBox="0 0 55 24" xmlns="http://www.w3.org/2000/svg"><title>styled-components</title><path d="M37.154 0l-0.172 0.896c-0.266 1.698-0.17 2.183 0.559 2.813l0.704 0.582-0.729 3.249c-0.435 1.938-0.969 3.562-1.308 4.096-0.291 0.46-0.63 1.139-0.703 1.503-0.121 0.435-0.534 0.873-1.164 1.26-0.557 0.316-1.649 1.164-2.424 1.844-0.619 0.557-1.045 0.898-1.276 1.045l-0.756 0.597c-0.243 0.389-0.38 0.703-0.433 0.942-0.053 0.245-0.023 0.408 0.055 0.527 0.076 0.115 0.206 0.195 0.385 0.245a2.186 2.186 0 0 0 0.646 0.053 6.873 6.873 0 0 0 1.448-0.257c0.16-0.044 0.286-0.085 0.396-0.121 0.17-0.208 0.561-0.603 1.255-1.288 1.842-1.817 2.545-2.811 1.819-2.543-0.268 0.096-0.147-0.147 0.314-0.632 0.971-0.946 1.528-2.376 2.692-6.859 0.921-3.54 0.921-3.59 1.599-3.59 0.318 0 1.219 0.055 1.219 0.055V0h-2.066z m8.795 7.251c-0.147 0-0.389 0.22-0.534 0.463-0.266 0.435 0.048 0.701 4.048 3.198 2.376 1.505 4.291 2.788 4.243 2.886-0.048 0.071-1.989 1.333-4.314 2.788-4.22 2.616-4.243 2.641-3.855 3.176 0.486 0.63 0 0.848 5.477-2.571L54.991 14.646v-1.915l-4.437-2.74c-2.399-1.503-4.483-2.715-4.605-2.74z m-36.85 0.268c-0.121 0-2.206 1.237-4.605 2.715L0.009 12.974v1.915l4.46 2.788c2.474 1.526 4.559 2.788 4.655 2.788 0.096 0 0.291-0.22 0.486-0.486 0.291-0.46 0.046-0.655-4.05-3.248C1.658 14.282 1.246 13.943 1.635 13.677c0.243-0.17 2.085-1.31 4.073-2.545 4.534-2.788 4.291-2.596 3.927-3.178-0.144-0.241-0.389-0.458-0.534-0.435z m19.895 0.053c-0.669-0.005-2.108 1.015-6.415 4.531-0.186 0.442-0.202 0.747-0.117 0.944 0.055 0.135 0.156 0.229 0.296 0.298 0.137 0.069 0.316 0.11 0.513 0.126 0.392 0.034 0.855-0.027 1.228-0.101l0.252-0.057a0.884 0.884 0 0 1 0.33-0.271c0.266-0.147 1.381-1.164 2.497-2.254 1.963-1.989 2.424-2.887 1.624-3.177a0.55 0.55 0 0 0-0.206-0.039z m5.031 1.381c-0.589 0.016-1.649 0.699-3.467 2.149-0.912 0.74-1.489 1.139-1.798 1.221l-1.2 0.948c-0.451 0.825-0.518 1.336-0.399 1.618a0.573 0.573 0 0 0 0.316 0.307 1.475 1.475 0 0 0 0.55 0.103 4.994 4.994 0 0 0 1.329-0.195 7.94 7.94 0 0 0 0.666-0.211l0.067-0.027 0.121-0.064c0.229-0.296 0.756-0.852 1.416-1.494 2.085-2.011 3.15-3.441 2.932-3.975-0.099-0.259-0.268-0.389-0.533-0.38z m-5.554 2.474c-0.17 0.018-0.55 0.312-1.234 0.912-0.99 0.875-2.069 1.379-2.443 1.155a9.095 9.095 0 0 1-0.261 0.055c-0.38 0.076-0.855 0.137-1.278 0.103a1.622 1.622 0 0 1-0.577-0.145 0.772 0.772 0 0 1-0.385-0.389c-0.085-0.206-0.085-0.463 0.011-0.79l-1.489 1.223-3.37 2.788V20.859l11.042-8.699a0.939 0.939 0 0 1 0.037-0.281c0.085-0.307 0.08-0.463-0.053-0.449z m4.752 1.464c-0.167 0-0.447 0.236-0.894 0.71-0.607 0.648-1.562 1.276-2.068 1.405l-0.078 0.041a5.019 5.019 0 0 1-0.252 0.096c-0.137 0.046-0.316 0.101-0.523 0.156-0.412 0.112-0.926 0.215-1.383 0.204a1.677 1.677 0 0 1-0.63-0.124 0.788 0.788 0 0 1-0.422-0.412c-0.133-0.318-0.08-0.765 0.211-1.4L17.443 21.239v2.761h4.279l9.077-7.129c0.236-0.261 0.591-0.619 1.07-1.066 1.283-1.189 1.574-1.599 1.574-2.206 0-0.472-0.053-0.71-0.22-0.71z m2.16 4.468l-0.776 0.774c-0.435 0.412-1.212 0.921-1.744 1.138l-0.105 0.046-0.007 0.012-0.023 0.023c-0.021 0.016-0.03 0.018-0.046 0.025a7.863 7.863 0 0 1-0.646 0.213 7.006 7.006 0 0 1-1.489 0.263 2.371 2.371 0 0 1-0.71-0.061 0.834 0.834 0 0 1-0.5-0.33c-0.11-0.17-0.142-0.396-0.08-0.676a2.543 2.543 0 0 1 0.218-0.573l-7.324 5.787h9.741l1.164-1.333c1.599-1.865 2.328-3.198 2.327-4.339z"/></svg>