<svg fill="#263238" role="img" viewBox="0 0 26 24" xmlns="http://www.w3.org/2000/svg"><title>stylelint</title><path d="M4.003 0L0.425 3.315 2.774 5.346 0.998 7.266l11.712 16.672h0.119c-2.751-9.836-2.672-9.88-4.659-16.893l-0.478 0.276c-0.26 0.15-0.473 0.027-0.472-0.273V3.704C6.691 1.857 6.279 0.429 6.157 0z m15.84 0c-0.122 0.43-0.534 1.857-1.063 3.704v3.344c0 0.3-0.213 0.422-0.471 0.273l-0.479-0.277c-1.988 7.014-1.908 7.058-4.659 16.893-0.018 0.073 0.063 0.094 0.119 0L25.002 7.267 23.225 5.346 25.575 3.315 21.997 0z m-12.047 0.786c-0.124 0.007-0.21 0.11-0.21 0.284v5.373c0 0.254 0.18 0.356 0.399 0.23l3.215-1.857a0.352 0.352 0 0 1-0.09-0.232V2.869c0-0.07 0.022-0.135 0.058-0.19L7.986 0.839a0.349 0.349 0 0 0-0.189-0.053z m10.415 0a0.347 0.347 0 0 0-0.188 0.054l-3.184 1.837a0.346 0.346 0 0 1 0.06 0.192v1.715a0.351 0.351 0 0 1-0.092 0.233l3.215 1.855c0.22 0.128 0.398 0.024 0.398-0.228V1.07c0-0.174-0.084-0.277-0.209-0.283z m-6.654 1.952c-0.106 0-0.192 0.059-0.192 0.131v1.715c0 0.072 0.086 0.131 0.192 0.131h2.893c0.106 0 0.193-0.059 0.193-0.131V2.869c0-0.073-0.087-0.131-0.193-0.131z m1.356 3.817a0.869 0.869 0 0 0-0.87 0.87 0.869 0.869 0 0 0 0.87 0.867 0.869 0.869 0 0 0 0.869-0.868 0.869 0.869 0 0 0-0.87-0.869z m-0.01 5.166a0.869 0.869 0 0 0-0.86 0.869 0.869 0.869 0 0 0 0.87 0.869 0.869 0.869 0 0 0 0.868-0.87 0.869 0.869 0 0 0-0.869-0.868 0.869 0.869 0 0 0-0.009 0z m0.01 5.166a0.869 0.869 0 0 0-0.87 0.868 0.869 0.869 0 0 0 0.87 0.87 0.869 0.869 0 0 0 0.869-0.87 0.869 0.869 0 0 0-0.87-0.869z"/></svg>