<svg fill="#333333" role="img" viewBox="0 0 40 24" xmlns="http://www.w3.org/2000/svg"><title>Stylus</title><path d="M22.718 6.891c-0.724-0.576-2.762 0.389-3.336 1.819-0.726 1.816-1.799 4.47-2.852 5.632-1.112 1.221-1.222 0.277-1.112-0.426 0.257-1.66 1.877-5.503 2.761-6.587-0.329-0.488-2.474-0.417-3.964 1.897-0.557 0.872-1.826 3.784-3.239 6.078-0.309 0.496-0.695 0.15-0.395-1.011 0.337-1.343 1.331-5.028 2.611-7.928 3.359-0.666 6.924-1.133 9.656-1.143 0.368-0.098 0.614-0.428 0-0.447-2.355-0.08-5.892 0.199-9.199 0.618 0.636-1.273 1.322-2.285 2.017-2.713-0.755-0.477-2.285-0.288-3.158 1.004a17.167 17.167 0 0 0-1.143 2.025c-2.425 0.378-4.5 0.804-5.553 1.203-1.092 0.417-0.973 1.738-0.309 1.489 1.383-0.516 3.249-1.053 5.325-1.53-1.322 2.98-2.355 6.498-2.602 7.927-0.617 3.478 1.54 3.457 2.593 2.087 1.143-1.501 3.525-6.776 3.893-7.331 0.109-0.189 0.26-0.09 0.179 0.078-2.661 5.314-2.435 7.372-0.277 6.914 0.972-0.208 2.651-1.877 3.088-2.741 0.09-0.208 0.278-0.189 0.238-0.099-1.688 4.382-3.833 7.927-5.274 9.04-1.31 1.003-2.285-1.172 2.354-4.292 0.687-0.466 0.368-1.102-0.407-0.884-2.393 0.378-9.247 2.552-12.257 4.639-0.231 0.16-0.439 0.288-0.429 0.616 0.01 0.189 0.339 0.119 0.498 0.02 3.895-2.336 7.082-3.247 10.737-4.014 0.049 0.021 0.109 0.031 0.158 0.012 0.169-0.041 0.16 0.049 0.051 0.118a6.494 6.494 0 0 1-0.557 0.288c-2.463 0.962-3.954 3.088-3.426 4.172 0.448 0.934 2.861 0.596 4.004-0.019 2.8-1.52 4.836-4.5 6.227-8.614 1.213-3.646 2.743-7.777 3.099-7.897zM6.489 18.664c1.014-1.213 1.133-2.464 0.348-4.789-0.496-1.47-1.322-2.603-0.716-3.516 0.646-0.973 2.018-0.031 0.876 1.27l0.228 0.159c1.37 0.16 2.046-1.719 1.022-2.256-2.702-1.41-5.067 1.302-4.024 4.442 0.448 1.33 1.074 2.741 0.567 3.864-0.436 0.964-1.281 1.53-1.848 1.55-1.182 0.06-0.397-2.653 0.964-3.329 0.119-0.059 0.288-0.138 0.13-0.337-1.68-0.189-2.663 0.586-3.229 1.669-1.649 3.148 3.128 4.312 5.68 1.273z m32.511-3.36c-4.557-0.596-14.392 0.199-18.733 1.353-1.292 0.337-0.934 1.022-0.278 0.893 0.01 0 0.288-0.07 0.298-0.07 3.566-0.695 12.219-1.302 17.264-0.337 0.605 0.109 2.425-1.709 1.449-1.839z m-15.007-0.535c1.27-0.635 3.158-4.57 4.398-6.724 0.09-0.16 0.249-0.033 0.159 0.078-3.138 5.404-1.807 6.03-0.566 5.951 1.66-0.099 3.19-2.484 3.527-3.021 0.14-0.208 0.22-0.039 0.14 0.11-0.081 0.247-0.368 0.685-0.637 1.281-0.378 0.845 0.02 1.172 0.349 1.322 0.516 0.249 1.926 0.09 2.143-0.775-1.408-0.029 1.968-6.686 2.316-7.093-0.944-0.547-2.404 0.05-3.069 1.361-1.419 2.811-2.612 5.077-3.358 5.115-1.449 0.08 1.67-6.266 2.176-6.466-0.309-0.448-2.285-0.259-3.389 1.448-0.397 0.619-2.819 4.909-3.416 5.616-1.053 1.252-1.133 0.179-0.835-1.075 0.099-0.426 0.269-0.973 0.488-1.578 0.695-1.569 1.44-2.067 1.898-2.574 3.068-3.407 4.828-6.169 4.131-7.251-0.615-0.964-2.673-0.537-3.993 1.449-2.435 3.648-4.678 8.643-4.966 10.929-0.278 2.284 1.379 2.451 2.502 1.897z m11.999-5.365c0.387 0.954 0.973 1.898 0.625 2.733-0.288 0.715-0.667 1.014-1.083 1.082-0.586 0.098-0.428-1.738 0.577-2.285 0.09-0.049 0.218-0.288 0.097-0.427-1.27-0.07-1.986 0.537-2.373 1.342-1.123 2.355 2.544 2.998 4.341 0.683 0.716-0.923 0.745-1.836 0.059-3.494-0.435-1.053-1.1-1.839-0.684-2.535 0.448-0.732 1.519-0.099 0.716 0.886l0.179 0.097c1.042 0.06 1.468-1.33 0.674-1.676-2.095-0.895-4.053 1.359-3.128 3.594z m-10.709-1.32c0.109-0.249 0.179-0.317 0.368-0.736 1.091-2.404 2.464-4.937 3.407-6.118 0.586-0.617 1.41 0.218-0.08 2.503a23.056 23.056 0 0 1-2.949 3.685v0.01c-0.278 0.308-0.527 0.566-0.637 0.716-0.08 0.098-0.169 0.08-0.109-0.06z"/></svg>