<svg fill="#013C74" role="img" viewBox="0 0 42 24" xmlns="http://www.w3.org/2000/svg"><title>Subaru</title><path d="M21 0c5.137 0 10.644 1.047 15.025 3.829C38.873 5.649 41.522 8.409 41.522 12.003c0 4.2-3.586 7.254-7.022 9.042-4.089 2.117-8.92 2.955-13.5 2.955-5.136 0-10.632-1.035-15.015-3.827C3.139 18.351 0.478 15.593 0.478 12.005 0.478 7.786 4.056 4.744 7.5 2.953 11.601 0.84 16.422 0 21 0z m-0.043 1.276c-4.776 0-9.922 0.894-14.066 3.391-2.606 1.56-5.182 4.014-5.181 7.273 0 3.829 3.489 6.509 6.608 8.048 3.861 1.885 8.375 2.617 12.639 2.617 4.785 0 9.934-0.894 14.078-3.392 2.594-1.57 5.18-4.012 5.18-7.273 0-3.836-3.48-6.521-6.608-8.046-3.861-1.888-8.376-2.617-12.65-2.617z m-18.025 8.013l7.862-1.34 2.367-5.136L15.517 7.947l7.86 1.341-7.86 1.354-2.356 5.148-2.367-5.148z m17.283 3.915l3.468-0.609 1.035-2.324 1.036 2.324 3.468 0.609-3.468 0.598-1.036 2.326-1.035-2.326z m7.176-6.192l3.468-0.599 1.035-2.334 1.036 2.332 3.468 0.599-3.468 0.61-1.036 2.326-1.037-2.326zM23.685 18.003l3.454-0.599 1.038-2.334 1.047 2.334 3.466 0.599-3.466 0.61-1.047 2.326-1.036-2.326z m-10.654 0.839l3.468-0.598 1.047-2.336 1.034 2.336 3.468 0.598-3.468 0.611-1.034 2.324-1.047-2.324z m17.436-5.734l3.458-0.61 1.035-2.324 1.046 2.324 3.469 0.61-3.469 0.599-1.046 2.32-1.037-2.32Z"/></svg>