<svg fill="#809CC9" role="img" viewBox="0 0 33 24" xmlns="http://www.w3.org/2000/svg"><title>Subversion</title><path d="M32.952 24v-8.645c-4.504 1.777-10.093 3.504-16.767 5.19-6.216 1.57-11.596 2.701-16.137 3.393v0.062h32.904zM0.048 14.849v7.037c5.125-0.754 9.756-1.653 13.888-2.697 4.061-1.025 7.191-2.022 9.387-2.988 2.196-0.964 3.208-1.778 3.044-2.441-0.147-0.576-1.16-0.871-3.04-0.884-0.964 0.014-2.29 0.082-3.981 0.206-1.695 0.123-3.803 0.321-6.32 0.584-3.907 0.417-7.151 0.736-9.734 0.951-1.228 0.103-2.31 0.181-3.244 0.233z m1.419 4.044c0.082 0 0.156 0.034 0.22 0.096 0.063 0.063 0.096 0.141 0.096 0.228 0 0.09-0.033 0.165-0.096 0.23-0.064 0.062-0.143 0.09-0.225 0.091-0.044 0-0.088-0.008-0.126-0.025-0.041-0.016-0.074-0.041-0.103-0.069-0.032-0.019-0.055-0.06-0.069-0.101 0-0.021-0.022-0.062-0.021-0.124 0-0.082 0.041-0.165 0.102-0.226s0.144-0.082 0.247-0.082z m1.111 0c0.086 0 0.16 0.034 0.226 0.096 0.062 0.063 0.09 0.141 0.091 0.228 0 0.09-0.03 0.165-0.092 0.23-0.082 0.062-0.145 0.09-0.247 0.091-0.041 0-0.082-0.008-0.123-0.025s-0.082-0.041-0.105-0.069c-0.041-0.019-0.062-0.06-0.082-0.101-0.021-0.021-0.021-0.062-0.02-0.124 0-0.082 0.019-0.165 0.082-0.226s0.143-0.082 0.225-0.082z m-1.111-2.07c0.082 0 0.156 0.03 0.22 0.096 0.063 0.062 0.096 0.137 0.096 0.226 0 0.088-0.033 0.165-0.096 0.226s-0.137 0.096-0.225 0.096c-0.089 0-0.167-0.033-0.229-0.096-0.062-0.062-0.096-0.14-0.096-0.226 0-0.092 0.022-0.169 0.082-0.23s0.145-0.093 0.228-0.093z m1.111 0c0.086 0 0.16 0.03 0.226 0.096 0.062 0.062 0.09 0.137 0.091 0.226 0 0.088-0.03 0.165-0.092 0.226-0.082 0.062-0.145 0.096-0.247 0.096s-0.165-0.033-0.228-0.096c-0.062-0.062-0.103-0.14-0.102-0.226 0-0.092 0.019-0.169 0.082-0.23s0.143-0.093 0.225-0.093zM32.952 1.851V8.449c-2.242 0.137-5.045 0.38-8.415 0.732-3.414 0.37-6.197 0.658-8.354 0.843-2.161 0.206-3.719 0.31-4.675 0.329-1.869 0.041-2.865-0.206-3.009-0.759-0.144-0.617 0.967-1.44 3.352-2.427 2.385-1.008 5.552-2.015 9.46-3.002 3.434-0.864 7.321-1.625 11.639-2.262z m-1.173-1.851c-4.462 0.829-9.085 1.851-13.866 3.057C10.45 4.942 4.496 6.818 0.048 8.673V0.001h31.733z"/></svg>