<svg fill="#000099" role="img" viewBox="0 0 129 24" xmlns="http://www.w3.org/2000/svg"><title>Sumo Logic</title><path d="M26.48 5.318v13.498h-3.147v-1.428c-0.72 1.16-2.036 1.832-3.959 1.831-3.196 0-4.781-1.654-4.781-4.292v-9.615h3.438v8.702c0 1.407 0.763 2.235 2.24 2.235 1.719 0 2.772-0.988 2.772-2.793v-8.138z m22.351 4.066v9.432h-3.438v-8.401c0-1.611-0.65-2.594-2.148-2.594s-2.369 1.117-2.369 2.686v8.309h-3.438v-8.401c0-1.719-0.72-2.594-2.148-2.594-1.52 0-2.369 1.117-2.369 2.686v8.309H29.478v-13.498h3.196v1.498c0.784-1.3 2.079-1.944 3.846-1.944 1.719 0 3.013 0.714 3.754 1.987 0.913-1.316 2.278-1.987 4.045-1.987 2.879 0 4.512 1.719 4.512 4.512z m27.626 9.432h-3.438V0.043h3.438z m37.327 0h-3.443v-13.498h3.437z m-3.513-15.534h3.556v-3.282h-3.556z m16.41 10.931c-1.413 1.499-2.369 2.079-3.669 2.079-1.542 0-2.632-0.897-3.126-2.283v-3.932c0.51-1.407 1.611-2.299 3.169-2.299 1.144 0 2.057 0.397 3.513 1.762l2.149-2.122c-1.724-1.88-3.4-2.568-5.657-2.568-3.153 0-5.586 1.649-6.553 4.421v5.544c0.94 2.772 3.33 4.405 6.462 4.404 2.433 0 4.109-0.806 5.989-3.131z m-119.554-3.706c-0.94-0.204-1.611-0.387-1.988-0.473-0.473-0.134-0.827-0.312-1.01-0.559v-1.031c0.317-0.489 1.074-0.806 2.127-0.806 1.45 0 2.455 0.338 4.045 1.59l1.853-2.234c-1.88-1.563-3.486-2.122-5.812-2.122-2.68 0-4.534 1.096-5.274 2.659v3.395c0.585 1.139 1.923 1.789 4.608 2.369 0.956 0.226 1.611 0.381 1.988 0.451 0.489 0.156 0.94 0.355 1.182 0.714v1.182c-0.333 0.537-1.139 0.827-2.187 0.827a5.248 5.248 0 0 1-2.191-0.424 9.959 9.959 0 0 1-2.439-1.585L0.042 16.673c2.149 1.896 3.953 2.546 6.526 2.546 2.75 0 4.695-1.053 5.431-2.728V13.074c-0.623-1.273-2.122-1.944-4.872-2.573z m50.734-5.657c-3.105 0-5.543 1.676-6.527 4.351v5.684c0.983 2.686 3.443 4.356 6.527 4.356 3.083 0 5.522-1.676 6.505-4.335v-5.721c-1.004-2.659-3.438-4.335-6.5-4.335z m3.174 9.186c-0.537 1.429-1.676 2.278-3.196 2.277s-2.659-0.849-3.223-2.277v-3.98c0.537-1.429 1.681-2.304 3.223-2.305s2.637 0.876 3.17 2.305z m24.629-9.186c-3.105 0-5.543 1.676-6.548 4.351v5.684c1.004 2.686 3.443 4.356 6.553 4.356 3.105 0 5.517-1.676 6.5-4.335v-5.721c-0.983-2.659-3.416-4.335-6.5-4.335z m3.174 9.186c-0.537 1.429-1.676 2.278-3.169 2.277a3.33 3.33 0 0 1-3.223-2.277v-3.98c0.537-1.429 1.676-2.304 3.223-2.305 1.536 0 2.632 0.876 3.169 2.305z m15.309-8.718v1.498c-0.87-1.3-2.235-1.944-4.109-1.944-2.551 0-4.603 1.558-5.5 4.045v5.565c0.876 2.482 2.927 4.023 5.5 4.023 1.719 0 3.019-0.58 3.932-1.719v1.074c0 2.229-1.295 3.277-3.309 3.277-1.493 0-2.723-0.44-4.689-1.606l-1.681 2.482c1.902 1.273 4.136 1.966 6.418 1.987 3.798 0 6.591-2.03 6.591-5.833v-12.849z m-0.424 8.202c-0.51 1.273-1.585 2.079-2.928 2.079a3.083 3.083 0 0 1-2.927-2.079v-3.69a3.073 3.073 0 0 1 2.927-2.052c1.364 0 2.417 0.779 2.928 2.052z"/></svg>