<svg fill="#151F6D" role="img" viewBox="0 0 47 24" xmlns="http://www.w3.org/2000/svg"><title>Supermicro</title><path d="M27.273 0.004c-0.953-0.014-1.925 0.004-2.91 0.059-7.772 0.425-15.255 2.941-19.939 6.707-0.914 0.738-2.299 2.207-2.831 3.005-1.05 1.558-1.469 2.813-1.468 4.387 0 3.019 1.999 5.552 5.855 7.399 2.373 1.142 5.201 1.89 8.556 2.267 2.343 0.259 6.23 0.222 8.898-0.089 7.72-0.906 14.643-3.742 18.545-7.584 0.471-0.471 1.5-1.658 1.537-1.78 0-0.008 0.205 0.06 0.455 0.144 1.079 0.366 2.236-0.152 2.724-1.226 0.259-0.545 0.236-1.426-0.045-1.996a2.238 2.238 0 0 0-1.21-1.111l-0.366-0.13v-0.388c0-1.666-0.822-3.364-2.343-4.838-3.054-2.961-8.791-4.716-15.458-4.826Zm-0.303 0.77c1.243-0.016 2.449 0.025 3.576 0.125 4.434 0.39 8.207 1.523 10.883 3.28 0.982 0.647 2.291 1.952 2.763 2.758 0.456 0.783 0.73 1.652 0.785 2.474l0.039 0.645-0.468 0.008a2.096 2.096 0 0 0-1.603 0.798c-0.382 0.487-0.495 0.822-0.487 1.516 0 0.655 0.16 1.083 0.563 1.549l0.251 0.28-0.678 0.686c-1.33 1.344-2.844 2.419-4.835 3.409-5.036 2.525-11.813 3.845-18.034 3.518-4.243-0.22-7.628-0.978-10.451-2.332-2.975-1.422-4.827-3.356-5.298-5.493-1.194-5.408 6.115-10.936 16.739-12.678a42.485 42.485 0 0 1 6.253-0.545ZM44.928 3.787l-0.02 0.004c-0.058 0-0.115 0-0.171 0.02-0.078 0.014-0.154 0.051-0.228 0.082a0.857 0.857 0 0 0-0.269 0.243c-0.031 0.053-0.068 0.101-0.083 0.16a0.682 0.682 0 0 0-0.063 0.237 0.912 0.912 0 0 0 0.031 0.297 0.849 0.849 0 0 0 0.339 0.444 0.941 0.941 0 0 0 0.365 0.13 0.888 0.888 0 0 0 0.483-0.091 0.795 0.795 0 0 0 0.418-0.548c0.01-0.068 0.025-0.134 0.016-0.202 0.002-0.051-0.012-0.105-0.019-0.156a0.847 0.847 0 0 0-0.372-0.507 0.945 0.945 0 0 0-0.41-0.113H44.928z m-0.06 0.168h0.116a0.569 0.569 0 0 1 0.219 0.064c0.039 0.016 0.072 0.039 0.105 0.068 0.045 0.039 0.094 0.08 0.122 0.133a0.584 0.584 0 0 1 0.073 0.146c0.023 0.053 0.025 0.111 0.039 0.167-0.004 0.06 0.008 0.125-0.008 0.186-0.006 0.064-0.035 0.121-0.063 0.179-0.012 0.037-0.037 0.066-0.056 0.097a0.579 0.579 0 0 1-0.148 0.146c-0.033 0.029-0.078 0.039-0.115 0.059-0.043 0.012-0.086 0.031-0.133 0.033-0.012 0-0.021 0-0.035 0.004-0.058 0-0.119 0.008-0.177-0.004a0.579 0.579 0 0 1-0.3-0.152 0.429 0.429 0 0 1-0.086-0.092c-0.035-0.039-0.051-0.088-0.076-0.132-0.018-0.039-0.023-0.082-0.033-0.123-0.016-0.053-0.012-0.109-0.011-0.164-0.004-0.076 0.019-0.15 0.041-0.22 0.027-0.051 0.047-0.105 0.083-0.148 0.029-0.047 0.076-0.078 0.111-0.115a0.618 0.618 0 0 1 0.129-0.079c0.045-0.014 0.088-0.035 0.134-0.041a0.275 0.275 0 0 1 0.069-0.012z m0.091 0.234l-0.107 0.006h-0.103l-0.039 0.007-0.037 0.004-0.029 0.004-0.032 0.002v0.808h0.183v-0.331l0.073 0.004 0.068 0.004 0.023 0.006 0.025 0.004 0.024 0.023 0.008 0.016 0.007 0.013 0.004 0.02 0.004 0.015 0.022 0.075 0.011 0.027 0.012 0.027h0.203l-0.012-0.023-0.016-0.069-0.019-0.072-0.012-0.042-0.012-0.039-0.013-0.03-0.016-0.025-0.019-0.023-0.02-0.02-0.029-0.015-0.027-0.02v-0.006l0.023-0.011 0.025-0.012 0.024-0.012 0.023-0.015 0.02-0.02 0.013-0.025 0.012-0.027 0.004-0.039v-0.037l-0.004-0.026-0.004-0.027-0.015-0.027-0.016-0.026-0.02-0.023-0.019-0.019-0.029-0.012-0.029-0.016-0.036-0.008-0.035-0.009-0.056-0.004z m-0.107 0.136h0.103l0.033 0.01 0.031 0.011 0.028 0.024 0.019 0.019 0.002 0.014 0.008 0.019v0.041l-0.012 0.028-0.009 0.019-0.02 0.012-0.019 0.019-0.035 0.006-0.026 0.016-0.078 0.004h-0.078v-0.236l0.026-0.004zM8.312 8.724c-0.138 0.008-0.203 0.047-0.203 0.105 0 0.191-0.113 0.199-0.555 0.046a2.032 2.032 0 0 0-1.369-0.046 1.617 1.617 0 0 0-1.118 1.607c0 0.791 0.343 1.179 1.727 1.969 0.341 0.199 0.73 0.477 0.852 0.622 0.374 0.417 0.29 0.867-0.183 1.065-0.812 0.333-1.681-0.214-1.832-1.173-0.047-0.304-0.062-0.316-0.305-0.315h-0.259v2.279h0.259c0.189 0 0.267-0.039 0.296-0.144 0.039-0.146 0.047-0.146 0.51 0 1.399 0.432 2.571-0.094 2.815-1.264 0.199-0.935-0.228-1.51-1.705-2.318-1.11-0.608-1.422-1.04-1.013-1.43a0.849 0.849 0 0 1 0.885-0.228c0.508 0.131 0.995 0.799 0.995 1.369 0 0.107 0.062 0.136 0.267 0.137h0.267V8.727h-0.331z m29.309 1.137l-0.076 0.004c-0.152 0-0.234 0.045-0.265 0.152-0.047 0.144-0.062 0.144-0.29 0.023-0.335-0.168-1.217-0.206-1.658-0.062-0.479 0.152-1.073 0.709-1.332 1.233-0.168 0.343-0.22 0.565-0.244 1.081-0.039 0.799 0.152 1.381 0.608 1.876 0.997 1.079 2.854 0.875 3.532-0.389l0.144-0.281-0.183-0.144-0.181-0.152-0.351 0.395c-0.526 0.608-1.021 0.738-1.66 0.456-0.623-0.288-0.935-1.13-0.775-2.119 0.168-1.079 0.715-1.582 1.553-1.43 0.351 0.068 0.754 0.471 0.89 0.896 0.097 0.282 0.144 0.329 0.35 0.351l0.244 0.023-0.039-0.479c-0.119-1.371-0.113-1.44-0.267-1.434z m-16.351 0.064v0.273c0 0.267 0.004 0.275 0.263 0.275 0.22 0 0.281 0.039 0.343 0.199 0.045 0.105 0.076 0.877 0.076 1.704s-0.031 1.593-0.078 1.701c-0.058 0.16-0.121 0.197-0.341 0.196-0.251 0-0.263 0.016-0.263 0.267v0.267h2.279v-0.259c0-0.251-0.016-0.267-0.283-0.288l-0.288-0.024-0.023-0.785c-0.008-0.425 0.008-0.771 0.039-0.763 0.029 0 0.395 0.475 0.806 1.061l0.738 1.058h2.967v-0.267c0-0.243-0.023-0.267-0.214-0.267-0.37 0-0.393-0.084-0.394-1.369l0.008-1.175 0.676 1.518c0.906 2.038 0.838 2.03 1.681 0.115l0.641-1.442 0.022 1.075c0.008 0.594 0 1.126-0.016 1.181-0.021 0.053-0.16 0.097-0.312 0.097-0.251 0-0.265 0.016-0.265 0.267v0.267h4.333v-0.267c0-0.243-0.016-0.267-0.228-0.267-0.144 0-0.251-0.053-0.304-0.144-0.084-0.16-0.107-3.185-0.031-3.487 0.039-0.131 0.107-0.169 0.304-0.169 0.243 0 0.259-0.016 0.259-0.265v-0.267h-3.633l-0.663 1.5c-0.364 0.828-0.692 1.531-0.72 1.562-0.033 0.031-0.368-0.627-0.748-1.48l-0.692-1.545-0.769-0.021-0.76-0.024v0.273c0 0.243 0.016 0.267 0.228 0.267 0.183 0 0.251 0.047 0.304 0.199 0.047 0.105 0.078 0.877 0.078 1.704s-0.031 1.593-0.078 1.701c-0.053 0.16-0.121 0.197-0.32 0.196a1.101 1.101 0 0 1-0.494-0.152c-0.228-0.136-0.806-0.842-1.111-1.357-0.123-0.214-0.123-0.214 0.152-0.396 0.38-0.251 0.547-0.503 0.602-0.921a1.251 1.251 0 0 0-0.641-1.262c-0.351-0.199-0.395-0.206-1.741-0.228z m16.655 0v0.267c0 0.257 0.016 0.273 0.29 0.296l0.283 0.024v3.724l-0.283 0.024c-0.273 0.021-0.288 0.039-0.288 0.288v0.259h2.277v-0.259c0-0.251-0.014-0.267-0.28-0.288l-0.291-0.024-0.021-0.798c-0.023-0.951-0.078-0.974 0.882 0.38l0.67 0.95 0.737 0.023 0.74 0.024v-0.259c0-0.243-0.023-0.267-0.29-0.304-0.335-0.062-0.571-0.29-1.157-1.12-0.364-0.516-0.388-0.565-0.265-0.643 0.076-0.039 0.249-0.175 0.387-0.288 0.631-0.54 0.464-1.644-0.305-2.055-0.281-0.144-0.448-0.168-1.695-0.189z m-28.978 0.016v0.265c0 0.253 0.016 0.267 0.259 0.267 0.168 0 0.273 0.047 0.304 0.123 0.023 0.068 0.047 0.746 0.047 1.513 0 1.825 0.113 2.164 0.874 2.568 0.243 0.131 0.442 0.16 0.99 0.159 0.935 0 1.319-0.197 1.675-0.867 0.123-0.228 0.154-0.491 0.185-1.86l0.039-1.597 0.462-0.024c0.434-0.023 0.473-0.008 0.518 0.152 0.078 0.29 0.053 3.23-0.031 3.437-0.053 0.152-0.121 0.197-0.304 0.196-0.214 0-0.228 0.023-0.228 0.267v0.267h2.207v-0.259c0-0.251-0.016-0.267-0.282-0.29l-0.289-0.022-0.023-0.74-0.023-0.732 0.448 0.004c0.785 0.008 1.243-0.247 1.492-0.863 0.327-0.785-0.129-1.644-1.011-1.89-0.152-0.037-1.173-0.074-2.268-0.074H11.992v0.259c0 0.249 0.014 0.265 0.288 0.288l0.282 0.024 0.022 1.43c0.023 1.675-0.023 1.845-0.548 2.103-0.526 0.251-1.058 0.16-1.316-0.214-0.121-0.181-0.136-0.376-0.137-1.759v-1.56l0.288-0.024c0.267-0.023 0.282-0.039 0.283-0.288v-0.259h-1.103Zm8.366 0v0.259c0 0.249 0.016 0.265 0.289 0.288l0.282 0.024 0.024 1.817c0.021 1.964 0.021 1.944-0.382 1.944-0.189 0-0.214 0.031-0.215 0.267v0.267h3.702l0.233-0.76 0.23-0.761h-0.253c-0.195 0-0.273 0.053-0.409 0.265-0.304 0.495-0.473 0.571-1.227 0.57h-0.676v-1.519h0.571c0.395 0 0.584 0.033 0.601 0.093 0.021 0.053 0.053 0.187 0.076 0.3 0.039 0.175 0.092 0.214 0.273 0.215h0.23v-1.9h0.234c0.183 0 0.23-0.023 0.191-0.122a3.76 3.76 0 0 1-0.045-0.684v-0.565H19.176Zm13.973 0.536c0.068 0 0.152 0.006 0.263 0.011l0.479 0.024v3.724h-0.494c-0.456 0-0.493-0.016-0.54-0.191-0.084-0.296-0.076-3.162 0.008-3.381 0.051-0.142 0.084-0.185 0.284-0.187z m-12.375 0.058l0.685 0.029c0.479 0.016 0.715 0.053 0.791 0.137a0.919 0.919 0 0 1 0.16 0.358c0.045 0.228 0.039 0.251-0.144 0.251-0.152 0-0.206 0.045-0.244 0.205a1.728 1.728 0 0 1-0.077 0.306c-0.014 0.068-0.205 0.097-0.6 0.097h-0.571v-0.691z m4.311 0.022a0.682 0.682 0 0 1 0.288 0.083c0.351 0.16 0.526 0.707 0.343 1.058-0.097 0.183-0.464 0.372-0.721 0.372h-0.193v-0.715c0-0.715 0.023-0.783 0.283-0.798z m16.655 0a0.682 0.682 0 0 1 0.29 0.083c0.22 0.097 0.419 0.419 0.419 0.67 0 0.409-0.39 0.76-0.846 0.76-0.129 0-0.144-0.068-0.144-0.715 0-0.715 0.023-0.783 0.281-0.798z m-24.543 0.068h0.259c0.199 0 0.312 0.062 0.464 0.243 0.175 0.214 0.206 0.298 0.175 0.61-0.045 0.471-0.228 0.67-0.607 0.67h-0.291v-0.762z"/></svg>