<svg fill="#000000" role="img" viewBox="0 0 45 24" xmlns="http://www.w3.org/2000/svg"><title>Supercrease</title><path d="M22.742 0l-0.493 0.879s-0.087 0.153-0.153 0.279c-0.084 0.026-8.491 2.429-10.706 3.073-1.312 0.367-2.26 0.642-2.476 0.709-0.214-0.344-0.707-1.182-0.707-1.182l-2.023 0.603-2.279 0.666-0.407 0.131s-0.041 0.235-0.11 0.556c-0.149 0.817-0.406 2.258-0.451 2.429-0.043 0.043-0.277 0.409-0.621 0.862-0.322 0.473-0.754 1.033-1.119 1.569-0.302 0.409-0.581 0.772-0.774 1.052L0.164 11.993s0.108-0.022 0.259-0.066l1.893-0.323c-0.171 0.968-0.519 2.839-0.52 2.838l0.389 0.54 1.119 1.545 0.776 1.053c0.078 0 0.16 0.007 0.239 0.023-0.322 0.666-0.905 1.871-1.141 2.323a0.737 0.737 0 0 1-0.069 0.171l1.937 1.653 1.335 1.139 0.689 0.581 0.215 0.171 0.6 0.102-0.021 0.043 5.635 0.214s-1.029-1.201-1.099-1.268c1.312 0.043 4.411 0.173 4.412 0.174l-2.606-3.01-0.168-0.214s-0.778 0.367-1.12 0.515c-0.022-0.02-0.022-0.065-0.045-0.108l-0.106 0.069-0.153-0.391-0.236-0.685 0.369-0.495 1.334 0.432 1.136 0.391 1.291 0.406 2.692-0.363 0.45-0.065s0.601-0.493 1.16-0.946c0.173-0.149 0.346-0.303 0.497-0.432 0.475 0.86 1.612 2.986 1.869 3.46-0.108 0.259-0.787 2.044-0.788 2.044l2.835 0.149 1.487 0.065 3.246 0.171-0.558-1.31 3.03 0.149-1.102-2.602-1.571-0.988s-0.32 0.069-0.362 0.068v-0.279c0.02-0.022 0.084-0.067 0.128-0.11l0.234-0.191s0.13-2.451 0.175-3.654a3.462 3.462 0 0 0 0.019-0.434c0.153 0.065 0.501 0.218 0.953 0.434 2.451 1.117 8.514 3.868 9.288 4.234l0.493-0.323 2.109-1.335-0.625-0.324 0.303-0.707 0.646-1.549 1.72-4.192-1.461 1.313s-2.453 2.105-3.142 2.686c-0.02-0.02-0.236-0.171-0.236-0.172l1.247-2.987-1.741 0.515c-0.363 0.151-0.925 0.367-1.312 0.54 0-0.045-0.707-1.569-0.968-2.107v-0.02c0.646-0.344 2.582-1.426 2.582-1.426l-0.065-0.127-0.775-1.505-1.098-2.167-0.603-1.16s-1.402 1.504-1.807 1.934c-0.173-0.086-0.624-0.365-1.247-0.731-0.279-0.149-0.579-0.344-0.901-0.538-1.915-1.117-4.54-2.643-5.724-3.351-0.385-0.216-0.624-0.369-0.623-0.368s0.043 0.175 0.085 0.368l0.171 0.857a3.557 3.557 0 0 1-0.515 0.044c-0.473 0.065-1.009 0.106-1.484 0.149-0.387 0.043-0.687 0.065-0.88 0.088-0.108-0.173-0.385-0.644-0.707-1.182h-0.01c-0.426-0.694-0.879-1.439-0.878-1.439Zm0.093 1.178l6.623 10.908-2.072 0.943-0.236 0.108-6.187 2.861-1.825 0.838-1.837-5.953 5.318-9.319 0.216-0.386Zm-0.445 0.469l-3.628 6.366-1.61 2.824-0.018 0.029 1.906 6.173 1.064-0.488 0.931-0.421 0.339 0.635 0.093 0.175-2.003 1.662-2.864 0.385-3.909-1.189-2.256-0.689 0.223-0.368-1.344-0.088 3.261-4.809-3.76-6.297 13.575-3.9Zm5.614 0.698l7.503 4.393-3.896 4.194-0.379 0.407-1.145 1.087-0.099-0.48-1.898-9.234-0.013-0.065-0.073-0.302Zm-0.073 0.467l1.858 8.926 0.037 0.171-0.171 0.206-5.428-8.938 3.704-0.365Zm-19.951 1.616l0.61 1.028 1.48 2.475 2.327 3.909-3.282 4.836-0.216 0.29-3.304-0.149H5.549l-0.084-0.004-0.96-0.037-1.938-2.632 0.629-3.354 0.011-0.052 0.938-5.199 3.835-1.111Zm29.182 0.752l1.811 3.537-4.345 2.371-4.923 2.468-0.164 0.08v-0.007l-0.439 0.225 0.287-0.309 0.11-0.115 0.028-0.034 5.651-6.075 0.508-0.546 0.065-0.069 1.411-1.526Zm-33.729 3.388l-0.382 2.094-1.296 0.232 1.676-2.326Zm33.023 1.701l1.471 3.138 0.18 0.683-0.372 0.302-3.892-2.734 0.856-0.44 1.121-0.61 0.636-0.339Zm-2.766 1.47l4.86 3.425 0.54 0.384 1.266 0.888 0.07 0.046 0.458 0.328 0.912 0.659-1.483 0.886-10.401-4.734 3.778-1.883Zm-4.098 0.455l-0.814 1.02-0.039 0.018 0.019 0.011-0.791 0.992-0.516-1.068 2.141-0.975Zm10.846 0.13l-1.285 3.067-0.003 0.012-1.287-0.92 0.416-0.335-0.004-0.007 2.049-1.726 0.112-0.093Zm-0.568 0.272l-1.636 1.386-0.164-0.612-0.011-0.043 1.811-0.731Zm-10.431 0.029l-0.009 0.328-0.149 0.061-0.216 0.084 0.376-0.473Zm14.088 0.112l-1.865 4.449-1.079-0.777 0.138-0.171 2.726-3.399 0.08-0.102Zm-13.844 0.263l-0.138 0.152-0.192 0.207-0.243-0.116 0.465-0.189 0.108-0.054Zm-2.37 0.232l0.153 0.313 0.469 0.975 0.959-1.208 0.35 0.168-0.553 0.592 0.095 0.117 0.24-0.129 0.353-0.173-0.212 4.28-0.24 0.186v-0.032l-2.083 1.746-0.389 0.05v-0.435l0.367-0.302 0.32-6.071 0.171-0.075Zm-0.327 0.149l-0.283 5.363-0.03 0.558-0.367 0.303-1.96 1.603-0.374 0.074-2.311-4.305-0.233-0.435-0.255-0.475 5.813-2.686Zm15.825 0.008l-2.122 2.65-0.376-0.51 2.498-2.14Zm-3.246 1.418l1.023 1.351-0.134 0.16-1.18-0.824 0.291-0.689Zm-30.353 1.992l1.189 0.076-0.119 0.19-0.015 0.024-0.065 0.106-1.048 1.763-0.42 0.688-0.099 0.159-0.019 0.033-0.042 0.069-0.008 0.015-0.026 0.039-0.047 0.093-2.752-3.073 3.235 0.141 0.236-0.323ZM5.376 16.97h0.156l2.8 3.123-4.326-0.324 1.37-2.799Zm4.981 0.272l2.107 0.64-0.494 0.815-0.156 0.261-1.491-1.664 0.034-0.052Zm-0.112 0.189l1.396 1.564-2.226-0.168 0.828-1.396Zm18.539 1.214v1.083l-1.633 0.285 1.633-1.368Zm-19.457 0.328l2.461 0.186 0.048 0.054 0.028-0.047 0.112 0.008 0.571 1.678-0.98 0.466-0.63 0.298-0.301-0.324-0.186 0.084-1.702-1.436 0.462-0.778 0.117-0.189Zm2.606 0.076l0.026 0.074-0.043-0.048 0.019-0.026Zm17.748 0.676l1.173 0.725 0.599 1.413-2.863-0.141-0.069-0.19-1.284-0.828-0.082 0.014-0.694 0.123v-0.567l0.167-0.028-0.014 0.015 2.315-0.401v-0.007l0.752-0.128Zm-3.373 0.076v1.066l-1.654 0.287 1.654-1.353ZM4.11 19.929l4.367 0.326 0.046 0.056 0.03-0.05 0.08 0.005 0.592 1.688-1.74 0.821-3.375-2.848Zm9.798 0.454l1.439 1.651-4.203-0.163-0.108-0.136 2.872-1.352Zm13.297 0.481l1.179 0.744 0.011 0.023 0.084 0.236h0.014l0.484 1.16-5.563-0.27 0.506-1.316 1.839-0.324 0.694-0.119 0.752-0.134Zm-16.606 0.614l0.452 0.521 0.019 0.019 0.966 1.113-4.57-0.173 1.889-0.881 1.074-0.521 0.17-0.078Z"/></svg>