<svg fill="#FF00A0" role="img" viewBox="0 0 21 24" xmlns="http://www.w3.org/2000/svg"><title>SurrealDB</title><path d="M10.5 6.314l5.714 3.165v-1.27L10.5 5.054c-0.85 0.47-4.957 2.74-5.714 3.157 0.703 0.39 8.085 4.467 12.572 6.946v1.264L10.5 20.209c-1.71-0.943-5.15-2.844-6.858-3.79v-3.788L10.5 16.42l1.144-0.632-9.146-5.05v6.316L10.5 21.472l8-4.42v-2.526L7.07 8.21Zm-8.002 0.632v2.528l11.428 6.316-3.428 1.896-5.714-3.165v1.27l5.714 3.156c0.85-0.47 4.957-2.74 5.714-3.157-0.703-0.39-8.083-4.467-12.57-6.948V7.578L10.5 3.789c1.707 0.945 5.148 2.846 6.858 3.789v3.789L10.5 7.577l-1.144 0.633L18.5 13.263V6.946L10.5 2.526c-0.791 0.438-7.416 4.1-8.002 4.42zM10.5 0L0.213 5.685v12.63L10.5 24l10.287-5.682V5.685Zm9.14 17.683L10.5 22.736l-9.143-5.053V6.317L10.5 1.264l9.143 5.053z"/></svg>