<svg fill="#00BF6F" role="img" viewBox="0 0 35 24" xmlns="http://www.w3.org/2000/svg"><title>SurveyMonkey</title><path d="M30.645 13.699a4.091 4.091 0 0 0-0.972 0.121c-1.211-4.76-5.09-8.375-9.924-9.247a12.042 12.042 0 0 0-0.632-0.096c0.037-1.184 0.091-2.552 1.833-3.783l-0.275-0.694s-3.401 1.054-3.786 3.959c-0.169-0.79-1.752-1.779-2.535-1.966l-0.39 0.629s1.039 0.519 1.292 1.952c-4.834 0.869-8.715 4.48-9.928 9.239-2.18-0.539-4.384 0.79-4.924 2.971-0.539 2.18 0.79 4.384 2.97 4.923a4.067 4.067 0 0 0 2.467-0.164 12.456 12.456 0 0 0 1.32 2.457l3.375-2.274c-0.915-1.158-1.464-2.853-1.56-4.553-0.1-1.855 0.351-3.695 1.536-4.777 2.441-2.078 5.102-1.13 6.762 0.861h0.447c1.665-1.991 4.329-2.937 6.762-0.861 1.183 1.082 1.636 2.924 1.535 4.777-0.094 1.701-0.643 3.395-1.56 4.553l3.375 2.274a12.461 12.461 0 0 0 1.324-2.457c2.088 0.825 4.449-0.199 5.273-2.286s-0.199-4.449-2.286-5.274a4.067 4.067 0 0 0-1.499-0.284zM4.281 18.955a1.2 1.2 0 0 1 0-2.399 1.211 1.211 0 0 1 0.673 0.207c0.01 0.63 0.053 1.259 0.128 1.885-0.211 0.193-0.536 0.334-0.801 0.307z m26.437 0a1.2 1.2 0 0 1-0.801-0.309 18.19 18.19 0 0 0 0.128-1.884 1.198 1.198 0 0 1 1.871 0.994c0.011 0.656-0.548 1.231-1.198 1.199z"/></svg>