<svg fill="#0C322C" role="img" viewBox="0 0 48 24" xmlns="http://www.w3.org/2000/svg"><title>SUSE</title><path d="M45.175 8.482a0.778 0.778 0 0 1-0.852 0c-0.418-0.278-0.459-0.859-0.121-1.195a0.76 0.76 0 0 1 1.095 0c0.337 0.336 0.296 0.917-0.122 1.195m-2.222 1.75c-1.054-0.247-1.889-1.083-2.138-2.136-0.485-2.068 1.374-3.927 3.443-3.443 1.053 0.246 1.889 1.082 2.137 2.136 0.486 2.069-1.373 3.93-3.442 3.443z m-9.947 8.681c0.078 0.233 0.178 0.54 0.408 0.665 0.013 0.007 0.024 0.013 0.038 0.016 0.422 0.154 1.508 0.128 1.508 0.128h1.997c0.171 0.003 1.671-0.002 1.633-0.169-0.181-0.802-1.108-0.946-1.815-1.366-0.651-0.388-1.268-0.828-1.548-1.584-0.146-0.391-0.06-1.292 0.192-1.62 0.183-0.237 0.454-0.395 0.744-0.459 0.322-0.069 0.656-0.01 0.978 0.024 0.397 0.04 0.789 0.112 1.184 0.161a14.755 14.755 0 0 0 2.305 0.118c1.271-0.035 2.545-0.238 3.75-0.648 0.841-0.282 1.67-0.664 2.385-1.195 0.813-0.604 0.599-0.547-0.225-0.463-0.987 0.101-1.982 0.116-2.972 0.057-0.924-0.054-1.835-0.163-2.671-0.592-0.658-0.34-1.223-0.68-1.744-1.206-0.078-0.079-0.127-0.311 0.016-0.459 0.139-0.144 0.432-0.061 0.522 0.016 0.91 0.761 2.267 1.387 3.672 1.455 0.76 0.038 1.499 0.052 2.26 0.019 0.38-0.017 0.953-0.015 1.334-0.019 0.196-0.002 0.733 0.054 0.833-0.154 0.03-0.06 0.028-0.13 0.026-0.199-0.112-3.041-0.336-6.47-3.519-7.924-2.374-1.086-5.933-2.767-7.437-3.464-0.348-0.166-0.756 0.096-0.756 0.484 0 1.016 0.052 2.475 0.053 3.803-0.72-0.734-1.933-1.197-2.858-1.621-1.05-0.481-2.133-0.89-3.236-1.233-2.22-0.688-4.517-1.111-6.828-1.34-2.62-0.261-5.285-0.136-7.865 0.397-4.249 0.881-8.426 2.924-11.597 5.912-1.946 1.834-3.474 4.44-3.576 7.087-0.147 3.745 0.902 5.755 2.829 7.827 3.075 3.303 9.693 3.765 12.373-0.151 1.206-1.763 1.468-4.154 0.593-6.103-0.875-1.947-2.887-3.355-5.02-3.427-1.655-0.055-3.419 0.787-4.054 2.317-0.484 1.169-0.209 2.613 0.673 3.521 0.343 0.354 0.808 0.644 1.317 0.53 0.299-0.067 0.549-0.292 0.594-0.595 0.067-0.448-0.325-0.738-0.566-1.083-0.435-0.621-0.347-1.553 0.198-2.08 0.46-0.445 1.141-0.577 1.781-0.575 0.596 0.001 1.205 0.108 1.72 0.408 0.723 0.425 1.203 1.204 1.369 2.027 0.496 2.459-1.503 4.457-4.214 4.614-1.387 0.082-2.798-0.282-3.881-1.153-2.742-2.205-3.413-6.713-0.28-9.12 2.975-2.284 6.73-1.695 8.944-0.508 1.772 0.95 3.092 2.503 4.093 4.221 0.502 0.864 0.93 1.767 1.327 2.683 0.382 0.882 0.739 1.77 1.504 2.416 0.506 0.429 1.13 0.413 1.793 0.414h3.783c0.514 0 0.389-0.343 0.167-0.57-0.502-0.513-1.222-0.629-1.889-0.812-1.525-0.42-1.37-2.439-0.948-2.439 1.364 0 1.406 0.041 2.601 0.026 1.724-0.024 2.246-0.124 3.594 0.374 0.721 0.267 1.413 0.972 1.865 1.615 0.236 0.339 0.433 0.668 0.543 0.997Z"/></svg>