<svg fill="#3E7FC1" role="img" viewBox="0 0 24 24" xmlns="http://www.w3.org/2000/svg"><title>SVGO</title><path d="M21.969 9.571a10.384 10.384 0 0 0-1.242-2.851c0.412-0.58 0.806-1.172 1.172-1.8l-2.827-2.819c-0.643 0.377-1.253 0.785-1.849 1.211a10.26 10.26 0 0 0-2.76-1.139c-0.12-0.72-0.268-1.448-0.457-2.173h-4.006c-0.187 0.71-0.328 1.421-0.447 2.131a10.302 10.302 0 0 0-2.845 1.128c-0.572-0.407-1.159-0.798-1.777-1.158L2.102 4.928c0.341 0.582 0.707 1.137 1.087 1.68a10.33 10.33 0 0 0-1.319 2.988 25.065 25.065 0 0 0-1.869 0.403v4.001c0.58 0.151 1.157 0.274 1.737 0.379a10.327 10.327 0 0 0 1.281 3.26c-0.32 0.462-0.629 0.937-0.917 1.432l2.829 2.828c0.48-0.278 0.935-0.574 1.381-0.881A10.337 10.337 0 0 0 9.652 22.41c0.097 0.53 0.211 1.061 0.348 1.59h4.001c0.142-0.544 0.257-1.086 0.36-1.631a10.299 10.299 0 0 0 3.256-1.406c0.472 0.326 0.96 0.642 1.457 0.936l2.827-2.828c-0.314-0.536-0.653-1.051-1.004-1.56a10.341 10.341 0 0 0 1.2-3.109c0.634-0.112 1.268-0.24 1.902-0.406v-3.997c-0.675-0.175-1.353-0.313-2.03-0.428z m-2.915 5.188c-0.687 1.956-2.161 3.552-4.052 4.399-1.897 0.856-4.07 0.877-5.99 0.08-1.886-0.789-3.454-2.381-4.175-4.339-0.723-1.931-0.618-4.093 0.288-5.945a7.61 7.61 0 0 1 3.824-3.647c1.931-0.837 4.21-0.807 6.119 0.082a7.591 7.591 0 0 1 3.643 3.551c0.889 1.807 1.011 3.921 0.343 5.819z m-1.688-0.141c0.069 0.34 0.02 0.693-0.14 1-0.386 0.745-1.302 1.036-2.047 0.651-0.745-0.386-1.036-1.302-0.651-2.047l-1.2-0.897a2.076 2.076 0 0 1-2.418 0.437l-0.96 1.495c0.382 0.362 0.504 0.921 0.308 1.409-0.264 0.657-1.011 0.977-1.668 0.713-0.657-0.264-0.977-1.011-0.713-1.668 0.264-0.657 1.011-0.977 1.669-0.713l0.96-1.496a2.074 2.074 0 0 1-0.701-2.122l-2.063-0.808a0.96 0.96 0 0 1-0.873 0.39c-0.527-0.053-0.912-0.524-0.858-1.052 0.053-0.527 0.524-0.912 1.052-0.858 0.527 0.053 0.912 0.524 0.858 1.052v0.02l2.06 0.81c0.503-0.971 1.674-1.384 2.675-0.943l0.969-1.665a1.036 1.036 0 0 1-0.28-1.048c0.164-0.548 0.741-0.859 1.289-0.696 0.548 0.164 0.859 0.741 0.695 1.289-0.164 0.548-0.741 0.859-1.288 0.695l-0.974 1.665c0.846 0.633 1.081 1.8 0.548 2.712l1.2 0.892a1.52 1.52 0 0 1 0.761-0.404c0.822-0.167 1.624 0.364 1.791 1.187h-0.001z"/></svg>