<svg fill="#FFA633" role="img" viewBox="0 0 27 24" xmlns="http://www.w3.org/2000/svg"><title>Swarm</title><path d="M18.349 0c-2.025 0.026-4.711 2.872-2.86 7.46 0.02 0.038 0.089 0.189 0.101 0.227h0.004c5.755-2.557 4.952-6.996 3.463-7.566a1.903 1.903 0 0 0-0.708-0.121zM4.599 1.727c-2.077 0.03-3.774 0.901-4.311 2.293-1.013 2.632 3.416 8.897 13.608 4.373l0.004-0.004a6.153 6.153 0 0 1-0.178-0.402C11.489 3.435 7.635 1.683 4.598 1.727zM17.405 9.143l-0.153 0.038a7.878 7.878 0 0 0-2.396 1.058c-1.056 0.694-1.987 1.724-2.389 2.938-0.108 0.328-0.189 0.688-0.216 1.033a10.185 10.185 0 0 0 0.857 4.953 10.198 10.198 0 0 0 2.983 3.85c0.763 0.605 2.136 0.987 3.261 0.987 1.056 0 2.096-0.314 3.032-0.79 0.292-0.148 0.936-0.55 0.978-0.579a4.281 4.281 0 0 1-1.534-0.737c-1.61-1.232-2.886-2.888-3.793-4.922-0.919-2.063-1.294-4.151-1.115-6.204a4.243 4.243 0 0 1 0.485-1.624z m3.893 0.029c-0.966 0-1.896 0.803-1.984 1.806-0.147 1.672 0.185 3.375 0.917 5.018 0.721 1.617 1.744 2.985 3.059 3.99a1.925 1.925 0 0 0 1.179 0.385c0.753 0 1.506-0.401 1.804-1.115a7.5 7.5 0 0 0-0.076-5.959 7.511 7.511 0 0 0-4.33-4.026 1.678 1.678 0 0 0-0.569-0.099z m-11.183 6.117a31.96 31.96 0 0 0-2.421 4.56c-0.026 0.06-0.421 1.037-0.537 1.341a0.752 0.752 0 0 0 0.427 0.957c0.304 0.119 1.295 0.478 1.358 0.5a32.192 32.192 0 0 0 4.955 1.246 12.407 12.407 0 0 1-2.717-3.872 12.391 12.391 0 0 1-1.066-4.732z"/></svg>