<svg fill="#F8C457" role="img" viewBox="0 0 69 24" xmlns="http://www.w3.org/2000/svg"><title>SWC</title><path d="M20.405 0a2.826 2.826 0 0 0-1.998 4.825l11.382 11.379a1.199 1.199 0 0 1 0.265 1.37 1.199 1.199 0 0 1-1.164 0.776 1.256 1.256 0 0 1-0.891-0.371L12.046 2.033a6.866 6.866 0 0 0-4.884-2.027c-1.447 0-2.826 0.434-3.982 1.244a6.974 6.974 0 0 0-2.838 6.86c0.24 1.39 0.914 2.666 1.935 3.692L6.665 16.195c0.522 0.522 0.4 1.082 0.28 1.37a1.205 1.205 0 0 1-1.168 0.783h-1.984a2.818 2.818 0 1 0 0 5.641h2.013c1.447 0 2.818-0.425 3.977-1.237a6.991 6.991 0 0 0 2.837-6.865 6.86 6.86 0 0 0-1.935-3.691l-4.397-4.397a1.199 1.199 0 0 1-0.274-1.379 1.199 1.199 0 0 1 1.165-0.776c0.331 0 0.645 0.128 0.885 0.371l15.952 15.949a6.866 6.866 0 0 0 4.885 2.027 6.791 6.791 0 0 0 5.698-2.991l0.976 0.97a6.863 6.863 0 0 0 4.882 2.03h0.143a6.88 6.88 0 0 0 3.974-1.242c1.068-0.757 1.896-1.801 2.403-3.023 0.502-1.228 0.662-2.558 0.434-3.843a6.86 6.86 0 0 0-1.932-3.691l-4.4-4.393a1.199 1.199 0 0 1-0.274-1.376 1.205 1.205 0 0 1 1.165-0.782h3.006a6.857 6.857 0 0 0-0.023 2.46c0.24 1.39 0.914 2.666 1.936 3.692l10.168 10.168a6.869 6.869 0 0 0 4.885 2.03c3.757 0 6.823-3.055 6.814-6.82a2.826 2.826 0 1 0-5.649 0 1.168 1.168 0 0 1-1.165 1.168 1.245 1.245 0 0 1-0.885-0.372l-10.172-10.168a1.205 1.205 0 0 1-0.276-1.376 1.205 1.205 0 0 1 1.164-0.782h1.693a2.818 2.818 0 1 0 0-5.641h-11.496c-1.447 0-2.823 0.428-3.98 1.241a6.974 6.974 0 0 0-2.837 6.86c0.24 1.39 0.911 2.666 1.933 3.692l4.387 4.396a1.199 1.199 0 0 1 0.274 1.379 1.19 1.19 0 0 1-1.159 0.773h-0.142a1.245 1.245 0 0 1-0.888-0.365l-5.773-5.767-0.011-0.017-11.373-11.367a2.829 2.829 0 0 0-1.999-0.831z m-13.246 2.475c1.188 0 2.301 0.457 3.14 1.299l15.958 15.952c0.705 0.705 1.641 1.093 2.638 1.094a3.683 3.683 0 0 0 3.452-2.304c0.585-1.419 0.285-2.969-0.803-4.06L20.157 3.077a0.343 0.343 0 0 1 0-0.496c0.143-0.143 0.363-0.143 0.502 0l17.146 17.145c0.705 0.705 1.641 1.093 2.638 1.094h0.142a3.683 3.683 0 0 0 3.455-2.304 3.677 3.677 0 0 0-0.814-4.065l-4.399-4.397a4.368 4.368 0 0 1-0.959-4.836 4.376 4.376 0 0 1 4.102-2.737h11.496c0.2 0 0.354 0.154 0.354 0.351 0 0.2-0.154 0.351-0.354 0.351h-1.693a3.683 3.683 0 0 0-3.454 2.304 3.677 3.677 0 0 0 0.816 4.065l10.169 10.174c0.708 0.705 1.644 1.093 2.638 1.094 2.004 0 3.637-1.63 3.637-3.634 0-0.2 0.157-0.354 0.357-0.354 0.197 0 0.351 0.154 0.351 0.354a4.339 4.339 0 0 1-4.345 4.336c-1.185 0-2.298-0.457-3.14-1.299l-10.169-10.171a4.368 4.368 0 0 1-0.959-4.834 4.453 4.453 0 0 1 1.673-2.035h-7.377a3.683 3.683 0 0 0-3.451 2.304 3.666 3.666 0 0 0 0.808 4.065l4.399 4.396a4.368 4.368 0 0 1 0.959 4.836 4.368 4.368 0 0 1-4.097 2.738h-0.145c-1.185 0-2.298-0.457-3.141-1.299l-4.059-4.054c0.186 0.856 0.097 1.753-0.257 2.615a4.368 4.368 0 0 1-4.096 2.738c-1.185 0-2.304-0.457-3.146-1.299L9.794 4.271a3.703 3.703 0 0 0-2.638-1.094 3.683 3.683 0 0 0-3.454 2.304 3.677 3.677 0 0 0 0.811 4.065l4.396 4.397a4.368 4.368 0 0 1 0.962 4.836 4.368 4.368 0 0 1-4.099 2.737h-1.979c-0.2 0-0.351-0.154-0.351-0.351s0.154-0.351 0.351-0.351h1.984a3.683 3.683 0 0 0 3.455-2.304 3.666 3.666 0 0 0-0.817-4.062l-4.393-4.399a4.368 4.368 0 0 1-0.959-4.831c0.699-1.693 2.264-2.741 4.099-2.74z"/></svg>