<svg fill="#000000" role="img" viewBox="0 0 102 24" xmlns="http://www.w3.org/2000/svg"><title>SWR</title><path d="M0.188 12.792a11.259 11.259 0 0 0 11.213 11.208 11.272 11.272 0 0 0 11.208-11.204v-1.592a4.645 4.645 0 0 1 4.624-4.598c1.38 0 2.693 0.622 3.574 1.689h7.249a11.263 11.263 0 0 0-10.832-8.295 11.28 11.28 0 0 0-11.208 11.208v1.584c0 2.532-2.088 4.615-4.619 4.615a4.641 4.641 0 0 1-4.616-4.615 1.33 1.33 0 0 0-1.321-1.321H1.505a1.325 1.325 0 0 0-1.317 1.321Zm42.898 11.208a11.28 11.28 0 0 1-10.819-8.299h7.241a4.607 4.607 0 0 0 8.193-2.892v-1.605a11.276 11.276 0 0 1 11.213-11.204 11.221 11.221 0 0 1 11.208 10.971l0.034 1.821a4.645 4.645 0 0 0 4.624 4.598c1.38 0 2.693-0.618 3.569-1.689h7.249a11.251 11.251 0 0 1-10.822 8.299 11.263 11.263 0 0 1-11.213-11.204l-0.034-1.647v-0.072a4.641 4.641 0 0 0-4.615-4.484 4.641 4.641 0 0 0-4.615 4.615v1.584a11.276 11.276 0 0 1-11.213 11.208Zm43.935-15.701a4.615 4.615 0 0 1 8.198 2.892v0.017c0 0.724 0.593 1.321 1.317 1.321h3.959a1.325 1.325 0 0 0 1.317-1.321 11.276 11.276 0 0 0-11.213-11.208 11.259 11.259 0 0 0-10.827 8.299h7.249Z"/></svg>