<svg fill="#0098FF" role="img" viewBox="0 0 17 24" xmlns="http://www.w3.org/2000/svg"><title>Symphony</title><path d="M16.971 8.118v-4.22c0-0.864-0.468-1.677-1.22-2.12C14.623 1.113 12.184 0 8.5 0S2.376 1.113 1.25 1.777a2.476 2.476 0 0 0-1.22 2.12v6.338l13.412 3.882v2.824c0 0.382-0.24 0.65-0.648 0.849L8.5 19.941l-4.315-2.162c-0.386-0.188-0.626-0.456-0.626-0.838v-2.118L0.03 13.764v3.177c0 1.744 1 3.228 2.588 4.001L8.5 24l5.86-3.047c1.61-0.784 2.61-2.268 2.61-4.011v-5.294L3.559 7.765V4.542C4.517 4.08 6.151 3.529 8.5 3.529c2.349 0 3.983 0.55 4.941 1.013v2.517l3.53 1.059z"/></svg>