<svg fill="#3B5526" role="img" viewBox="0 0 31 24" xmlns="http://www.w3.org/2000/svg"><title>SymPy</title><path d="M12.76 19.334a0.696 0.696 0 0 0 0.11-0.356c0.005-0.139-0.03-0.232-0.105-0.279-0.068-0.051-0.154-0.056-0.255-0.016a0.646 0.646 0 0 0-0.274 0.228 0.686 0.686 0 0 0-0.119 0.371c-0.01 0.284 0.081 0.468 0.272 0.557 0.198 0.085 0.428 0.076 0.692-0.031 0.485-0.195 0.882-0.603 1.193-1.223 0.304-0.59 0.474-1.207 0.507-1.846 0.205 1.2-0.086 2.528-0.818 3.5a3.786 3.786 0 0 1-0.851 0.494l-1.266 0.38a9.217 9.217 0 0 1-0.624 0.104v-7.161c1.048 0.281 2.107 0.593 2.876 1.285l-0.057 1.618c-0.053 1.504-0.371 2.374-0.949 2.608-0.234 0.094-0.427 0.096-0.577 0.007a0.701 0.701 0 0 0 0.245-0.241z m0.464-14.658c-0.162-0.057-0.491-0.144-0.697-0.199-0.296-0.078-0.68-0.18-0.881-0.199a1.848 1.848 0 0 0-0.608 0.038c-0.092 0.025-0.329 0.105-0.052 0.203 0.157 0.06 0.392 0.122 0.655 0.19 0.2 0.054 0.577 0.154 0.801 0.195 0.317 0.057 0.613 0.022 0.754-0.016 0.116-0.03 0.311-0.109 0.028-0.212z m5.735-1.715c0.323 0.051 0.66 0.101 0.991 0.171l1.26 0.441-3.793 1.139-6.414 1.925-3.419-1.026c0.082-0.232 0.194-0.453 0.33-0.658l3.585 1.057 0.728-0.213-0.513-0.152-0.459 0.135L8.005 4.821a2.95 2.95 0 0 1 0.81-0.762c1.923-1.207 4.168-1.527 6.305-1.484l3.538 1.046-0.46 0.134 0.514 0.152 0.728-0.213-3.71-1.096c0.969 0.051 1.908 0.165 2.777 0.294z m-5.887 1.397c-0.355-0.094-1.224-0.323-2.163-0.076-0.937 0.246-0.078 0.476 0.279 0.57 0.358 0.095 1.2 0.317 2.139 0.071 0.933-0.244 0.106-0.468-0.257-0.565z m4.745-0.633l-0.171-0.045-0.544 0.144-2.091-0.555a0.334 0.334 0 0 0-0.217-0.004c-0.043 0.013-0.051 0.013-0.061 0.029-0.092 0.133-0.494 0.238-0.576 0.26l-0.076 0.02 0.169 0.046 0.076-0.021c0.063-0.016 0.273-0.073 0.435-0.151l1.876 0.497-0.539 0.139 0.171 0.047c0.161-0.048 0.574-0.156 0.763-0.206 0.19-0.051 0.603-0.157 0.785-0.2zM11.221 8.888c0.165 0.043 0.329 0.089 0.488 0.139 0.853 0.194 1.735 0.425 2.588 0.734 0.047-0.595 0.21-1.171 0.49-1.721 0.317-0.62 0.718-1.031 1.203-1.226 0.263-0.106 0.491-0.114 0.684-0.028 0.196 0.085 0.291 0.27 0.279 0.553a0.679 0.679 0 0 1-0.129 0.385 0.591 0.591 0 0 1-0.262 0.213c-0.101 0.041-0.19 0.041-0.266 0-0.068-0.051-0.101-0.149-0.096-0.295a0.696 0.696 0 0 1 0.11-0.354 0.694 0.694 0 0 1 0.247-0.241c-0.152-0.089-0.342-0.087-0.576 0.006-0.582 0.234-0.899 1.101-0.951 2.608l-0.012 0.384c0.913 0.39 1.776 0.886 2.519 1.541v-1.008c0-0.357-0.038-0.395-0.386-0.287v-0.226l0.713-0.304v2.13c0.371 0.371 0.705 0.787 0.991 1.26 0.198 0.319 0.346 0.653 0.458 1 0.139-0.244 0.21-0.655 0.266-1.008l0.114-0.696c0.044-0.285 0.104-0.658 0.104-0.835 0-0.291-0.094-0.43-0.238-0.384-0.198 0.063-0.456 0.427-0.589 1.093-0.025 0.124-0.025 0.132-0.088 0.152-0.025 0.008-0.076 0.023-0.076-0.05 0-0.165 0.268-1.203 0.763-1.358 0.124-0.038 0.367-0.056 0.475 0.347 0.051-0.152 0.213-0.561 0.485-0.645 0.143-0.046 0.43-0.048 0.43 0.323 0 0.284-0.152 0.434-0.243 0.462-0.129 0.041-0.173-0.085-0.173-0.178 0 0 0-0.277 0.197-0.412-0.08-0.076-0.203-0.038-0.217-0.035-0.233 0.072-0.367 0.515-0.436 0.916l-0.168 1.051c-0.038 0.258-0.094 0.589-0.094 0.763 0 0.38 0.134 0.424 0.233 0.393 0.208-0.063 0.456-0.425 0.589-1.093 0.025-0.124 0.029-0.133 0.088-0.152 0.034-0.013 0.076-0.023 0.076 0.051 0 0.144-0.253 1.199-0.763 1.357-0.129 0.041-0.371 0.035-0.469-0.348-0.049 0.139-0.123 0.304-0.22 0.435 0.253 0.852 0.306 1.762 0.36 2.653 0.013 0.187 0.022 0.372 0.034 0.556v0.008c0.013 0.433-0.004 0.844-0.046 1.237l1.988-0.596V3.882L11.221 7.024zM3.763 7.323l-0.184-0.056 0.19 0.451a5.14 5.14 0 0 1-0.007-0.395zM10.783 21.268v-7.331a24.478 24.478 0 0 1-0.585-0.165c-1.747-0.398-3.451-1.388-4.93-2.861a3.608 3.608 0 0 1-0.231-0.208l0.831 1.959c0.033 0.073 0.078 0.167 0.078 0.246 0 0 0 0.095-0.101 0.222l-2.802 3.657 3.082 0.938c1.754 0.532 2.512 0.336 2.713-2.255l0.278 0.085-0.312 3.651-6.198-1.886c-0.167-0.051-0.279-0.085-0.278-0.26 0-0.048 0-0.08 0.111-0.22l2.659-3.494-2.782-6.593c0-0.365 0.023-0.358 0.292-0.278l1.177 0.361c0.057-0.618 0.199-1.228 0.408-1.791L0.307 3.882v14.277l10.387 3.115z m0-12.487V7.024L7.473 6.032c-0.076 0.418-0.076 0.994 0.271 1.538 0.717 0.694 1.738 0.922 2.727 1.139zM4.609 3.974L3.08 3.522l0.728-0.212 0.514 0.151-0.46 0.135 0.816 0.24c0.127-0.241 0.266-0.468 0.42-0.681l-0.114-0.03 0.076-0.021 0.092-0.025a4.862 4.862 0 0 1 2.277-1.699c1.317-0.577 2.779-0.928 4.479-1.063l-0.906-0.317-10.207 3.57 3.542 1.064a5.811 5.811 0 0 1 0.271-0.659z m22.1 0.186a0.184 0.184 0 0 0-0.184 0.185 0.184 0.184 0 0 0 0.184 0.184 0.184 0.184 0 0 0 0.182-0.185 0.177 0.177 0 0 0-0.055-0.131 0.176 0.176 0 0 0-0.126-0.053z m-1.127 2.229a0.134 0.134 0 0 1-0.048 0.097 0.203 0.203 0 0 1-0.137 0.051c-0.099 0-0.184-0.067-0.184-0.147 0-0.047 0.029-0.08 0.047-0.096a0.203 0.203 0 0 1 0.137-0.051c0.101 0 0.184 0.067 0.183 0.146z m4.194 1.576c-0.38 0-0.503-0.165-0.671-0.393a66.823 66.823 0 0 0-0.404-0.517c0.266-0.4 0.22-0.865-0.131-1.267-0.286-0.332-0.515-0.767-0.735-1.187-0.247-0.466-0.5-0.95-0.82-1.27-0.268-0.268-0.823-0.57-1.49-0.813-1.094 0.184-2.011 0.2-3.165-0.266-2.105-0.89-4.53-1.4-7.208-1.519-3.127-0.175-5.528 0.16-7.552 1.051l-0.019 0.006C6.216 2.264 5.131 3.467 4.675 5.011a0.095 0.095 0 0 1-0.006 0.02c-0.731 1.81-0.739 4.231 0.886 5.552a0.195 0.195 0 0 1 0.015 0.015c1.424 1.423 3.061 2.375 4.735 2.755a27.423 27.423 0 0 0 0.846 0.236c1.374 0.367 2.794 0.747 3.694 1.924 0.01 0.013 0.018 0.025 0.026 0.042 0.725 1.574 0.494 3.573-0.576 4.976a0.261 0.261 0 0 1-0.038 0.038c-0.803 0.643-1.988 1.022-3.615 1.154-0.025 0.003-0.051 0-0.076-0.007a189.967 189.967 0 0 1-3.292-0.947c-1.098-0.322-2.231-0.655-3.271-0.941a7.634 7.634 0 0 1-0.702-0.215l0.183 0.23c0.285 0.362 0.717 0.909 0.904 1.07l0.009 0.008c1.684 1.613 3.115 2.19 5.022 2.646 2.398 0.556 4.502 0.709 6.971-0.346 2.068-1.291 3.001-3.098 2.932-5.685-0.013-0.184-0.025-0.37-0.034-0.555-0.073-1.253-0.152-2.545-0.8-3.6-1.469-2.414-4.302-3.342-6.88-3.928a0.072 0.072 0 0 1-0.018-0.006c-0.387-0.124-0.789-0.213-1.215-0.307-1.055-0.235-2.147-0.479-2.954-1.274a0.156 0.156 0 0 1-0.029-0.035C7.021 7.265 6.906 6.556 7.068 5.834a3.486 3.486 0 0 1 1.519-2.147c3.107-1.952 6.971-1.683 9.99-1.228l0.448 0.071c1.038 0.16 2.33 0.358 3.117 1.11a0.218 0.218 0 0 1 0.067 0.165c-0.019 0.608 0.206 0.915 0.468 1.272 0.168 0.233 0.361 0.498 0.49 0.858 0.418 1.019 1.418 1.146 2.476 1.279 0.427 0.056 0.869 0.111 1.266 0.232a0.348 0.348 0 0 1 0.044 0.019c0.548 0.314 1.152 0.161 1.527-0.162 0.118 0.149 0.332 0.424 0.359 0.462 0.165 0.223 0.352 0.474 0.79 0.519 0.006 0.11-0.001 0.234-0.007 0.354a4.533 4.533 0 0 0-0.01 0.261h0.328c0-0.073 0.005-0.154 0.01-0.24 0.008-0.122 0.014-0.246 0.009-0.365h0.391L30.693 8.29v-0.326zM7.481 21.392c0 0.19-0.408 0.342-0.912 0.341-0.506 0-0.914-0.152-0.914-0.341 0-0.19 0.409-0.342 0.912-0.342 0.506 0 0.915 0.152 0.915 0.342z m3.235 1.262c0 0.298-0.399 0.539-0.891 0.539-0.494 0-0.891-0.241-0.891-0.538 0-0.299 0.399-0.541 0.89-0.54 0.491 0 0.891 0.241 0.892 0.539z m4.474 0.137c0 0.358-0.434 0.649-0.971 0.649s-0.972-0.291-0.973-0.648c0-0.36 0.434-0.651 0.971-0.651s0.972 0.289 0.973 0.65z m1.532-1.491c-0.447 0-0.81-0.38-0.811-0.848 0-0.468 0.363-0.848 0.811-0.848 0.447 0 0.81 0.38 0.81 0.848a0.829 0.829 0 0 1-0.81 0.848z m0.811-5.093c0.468 0 0.848 0.466 0.849 1.042 0 0.576-0.38 1.042-0.849 1.042-0.468 0-0.848-0.466-0.848-1.042 0-0.576 0.38-1.042 0.848-1.042z m-1.775-3.705c0.511 0 0.924 0.43 0.925 0.965 0 0.532-0.413 0.965-0.925 0.965-0.511 0-0.926-0.43-0.925-0.965 0-0.532 0.414-0.965 0.925-0.965z m-5.325-1.079c0-0.555 0.501-1.003 1.119-1.003s1.119 0.449 1.12 1.003c0 0.555-0.5 1.004-1.118 1.004s-1.119-0.448-1.121-1.003zM5.185 5.961c0-0.362 0.311-0.656 0.697-0.656 0.382 0 0.694 0.294 0.693 0.656 0 0.362-0.313 0.656-0.696 0.656-0.384 0-0.694-0.294-0.694-0.656z m1.993 2.46a0.912 0.912 0 0 1 0.924 0.896 0.912 0.912 0 0 1-0.924 0.896 0.912 0.912 0 0 1-0.924-0.896 0.912 0.912 0 0 1 0.924-0.896z m0.861-4.985c0 0.319-0.292 0.579-0.655 0.579-0.362 0-0.656-0.258-0.655-0.579 0-0.319 0.294-0.579 0.655-0.578 0.362 0 0.656 0.258 0.656 0.578z m2.152-1.377c0 0.234-0.242 0.425-0.539 0.426-0.299 0-0.541-0.19-0.541-0.425 0-0.235 0.241-0.425 0.54-0.427 0.299 0.001 0.541 0.191 0.54 0.426z m2.469-0.602c0 0.213-0.205 0.386-0.461 0.386-0.256 0-0.463-0.172-0.463-0.384 0-0.214 0.206-0.387 0.462-0.388 0.256 0 0.463 0.172 0.463 0.386z m2.758-0.099c0 0.171-0.19 0.309-0.424 0.309-0.234 0-0.424-0.138-0.426-0.307 0-0.172 0.19-0.309 0.424-0.309 0.234 0 0.424 0.135 0.426 0.307z m2.015 0.484c-0.182 0-0.329-0.127-0.329-0.286 0-0.158 0.147-0.286 0.329-0.286 0.182 0 0.329 0.128 0.329 0.286s-0.148 0.286-0.329 0.286z m2.672 0.15c0 0.149-0.152 0.27-0.346 0.27-0.19 0-0.347-0.12-0.348-0.269 0-0.151 0.154-0.271 0.347-0.272 0.192 0 0.348 0.12 0.348 0.271z m1.981 0.943c-0.127 0-0.232-0.122-0.232-0.27 0-0.149 0.104-0.271 0.232-0.271 0.127 0 0.232 0.123 0.232 0.271 0 0.148-0.104 0.27-0.232 0.27z m3.824 3.456a0.453 0.453 0 0 1-0.157 0.339 0.532 0.532 0 0 1-0.355 0.132c-0.282 0-0.511-0.211-0.513-0.471a0.456 0.456 0 0 1 0.156-0.342 0.532 0.532 0 0 1 0.355-0.131c0.284 0 0.511 0.211 0.512 0.472h-0.164z m1.31-2.046a0.511 0.511 0 0 1-0.51 0.513 0.513 0.513 0 0 1-0.364-0.874 0.513 0.513 0 0 1 0.361-0.149 0.506 0.506 0 0 1 0.362 0.149 0.499 0.499 0 0 1 0.152 0.361z"/></svg>