<svg fill="#B5B5B6" role="img" viewBox="0 0 94 24" xmlns="http://www.w3.org/2000/svg"><title>Synology</title><path d="M52.623 0l-3.472 1.445 0.219 0.457a2.433 2.433 0 0 1 0.828-0.211c0.195 0 0.363 0.066 0.492 0.179 0.129 0.109 0.226 0.316 0.281 0.625 0.059 0.312 0.086 1.132 0.086 2.476v10.683c0 0.738-0.051 1.234-0.164 1.487a1.152 1.152 0 0 1-0.461 0.555c-0.207 0.121-0.574 0.176-1.117 0.176v0.468h5.783v-0.468c-0.601 0-1.019-0.066-1.249-0.188a1.132 1.132 0 0 1-0.492-0.554c-0.102-0.234-0.156-0.73-0.156-1.476V0z m-45.771 1.328c-1.289 0-2.374 0.195-3.28 0.574-0.91 0.39-1.605 0.961-2.085 1.702a4.229 4.229 0 0 0-0.722 2.39c0 1.32 0.512 2.448 1.535 3.373 0.718 0.652 1.98 1.207 3.779 1.648 1.398 0.355 2.292 0.597 2.687 0.746a2.733 2.733 0 0 1 1.21 0.714c0.226 0.273 0.344 0.617 0.344 1.012 0 0.605-0.273 1.136-0.82 1.601-0.554 0.453-1.367 0.687-2.452 0.687-1.023 0-1.835-0.258-2.441-0.769-0.601-0.515-0.996-1.324-1.199-2.417L0.144 12.897c0.219 1.874 0.89 3.299 2.019 4.28 1.128 0.984 2.749 1.476 4.857 1.476 1.449 0 2.655-0.211 3.632-0.61a4.932 4.932 0 0 0 3.049-4.564 5.037 5.037 0 0 0-0.668-2.671 4.697 4.697 0 0 0-1.843-1.706c-0.781-0.418-1.984-0.82-3.619-1.211-1.632-0.383-2.667-0.754-3.085-1.116a1.273 1.273 0 0 1 0.035-2.046c0.547-0.41 1.312-0.609 2.288-0.61 0.937 0 1.648 0.191 2.117 0.567 0.476 0.379 0.777 1 0.925 1.839l3.374-0.11c-0.051-1.542-0.601-2.772-1.66-3.705-1.058-0.918-2.632-1.378-4.717-1.379z m85.153 1.288a1.855 1.855 0 1 0-0.008 3.71 1.855 1.855 0 0 0 0.008-3.71z m0 0.281a1.562 1.562 0 0 1 1.566 1.574c0 0.453-0.195 0.859-0.5 1.148l-0.336-0.527a1.546 1.546 0 0 0-0.254-0.305 0.828 0.828 0 0 0-0.187-0.117 0.781 0.781 0 0 0 0.496-0.223 0.562 0.562 0 0 0 0.168-0.425 0.695 0.695 0 0 0-0.098-0.356 0.488 0.488 0 0 0-0.261-0.214 1.207 1.207 0 0 0-0.481-0.078h-1.038v2.366h0.312v-1.047h0.355c0.078 0 0.141 0.004 0.176 0.012 0.051 0.016 0.098 0.027 0.141 0.055 0.051 0.039 0.094 0.09 0.156 0.168 0.059 0.074 0.137 0.191 0.23 0.324l0.313 0.488h0.167a1.546 1.546 0 0 1-0.925 0.312 1.581 1.581 0 0 1-1.577-1.581c0-0.875 0.703-1.574 1.577-1.574z m-0.613 0.746h0.746c0.172 0 0.301 0.039 0.379 0.105a0.348 0.348 0 0 1 0.117 0.274 0.351 0.351 0 0 1-0.063 0.215 0.297 0.297 0 0 1-0.183 0.136 0.765 0.765 0 0 1-0.332 0.051h-0.664z m-58.714 2.343c-1.601 0-2.936 0.664-3.995 2.007v-1.777h-2.944v12.124h3.179v-5.47c0-1.359 0.086-2.276 0.246-2.784a2.276 2.276 0 0 1 0.913-1.195 2.6 2.6 0 0 1 1.504-0.461c0.43 0 0.812 0.109 1.12 0.32 0.312 0.211 0.527 0.508 0.664 0.894 0.144 0.387 0.211 1.226 0.211 2.523v6.173h3.186V10.828a9.918 9.918 0 0 0-0.18-2.148 3.612 3.612 0 0 0-0.624-1.339 3.241 3.241 0 0 0-1.332-0.976 5.017 5.017 0 0 0-1.948-0.379z m10.347 0a6.638 6.638 0 0 0-3.225 0.781 5.427 5.427 0 0 0-2.23 2.288 6.575 6.575 0 0 0-0.788 3.096c0 1.39 0.266 2.565 0.788 3.53 0.523 0.976 1.289 1.71 2.296 2.21 1.011 0.504 2.069 0.758 3.179 0.758 1.796 0 3.284-0.609 4.467-1.808 1.183-1.21 1.777-2.725 1.776-4.557 0-1.816-0.586-3.319-1.761-4.514-1.171-1.191-2.667-1.784-4.506-1.784z m28.563 0.195c-1.371 0-2.499 0.422-3.378 1.261a3.983 3.983 0 0 0-1.312 3.007c0 0.758 0.195 1.449 0.574 2.085 0.39 0.633 0.937 1.113 1.652 1.48-0.871 0.73-1.429 1.308-1.675 1.718a2.148 2.148 0 0 0-0.36 1.058c0 0.266 0.094 0.508 0.278 0.718 0.18 0.219 0.496 0.453 0.937 0.731a37.586 37.586 0 0 0-1.285 1.386c-0.441 0.566-0.742 0.988-0.882 1.312a1.601 1.601 0 0 0-0.133 0.613c0 0.469 0.316 0.906 0.96 1.339 1.136 0.742 2.534 1.109 4.182 1.109 2.148 0 3.889-0.625 5.221-1.863 0.906-0.843 1.367-1.757 1.367-2.709a2.394 2.394 0 0 0-0.715-1.757 3.272 3.272 0 0 0-1.913-0.887 33.104 33.104 0 0 0-3.429-0.207 16.622 16.622 0 0 1-1.796-0.105c-0.41-0.059-0.691-0.156-0.828-0.293-0.148-0.144-0.219-0.281-0.218-0.437a1.445 1.445 0 0 1 0.195-0.621 3.389 3.389 0 0 1 0.726-0.863c0.609 0.191 1.207 0.273 1.793 0.273 1.406 0 2.53-0.39 3.373-1.175a3.733 3.733 0 0 0 1.261-2.819c0-0.964-0.242-1.757-0.73-2.382h1.539c0.379 0 0.586-0.008 0.652-0.039a0.219 0.219 0 0 0 0.136-0.098 1.128 1.128 0 0 0 0.071-0.468 0.836 0.836 0 0 0-0.078-0.41 0.324 0.324 0 0 0-0.129-0.11 3.241 3.241 0 0 0-0.648-0.031h-2.496a5.103 5.103 0 0 0-2.912-0.82z m-10.746 0c-0.984 0-1.913 0.254-2.788 0.758a5.611 5.611 0 0 0-2.132 2.381 7.091 7.091 0 0 0-0.8 3.222c0 1.488 0.445 2.827 1.327 4.022a5.037 5.037 0 0 0 4.256 2.12c1.093 0 2.077-0.273 2.968-0.824 0.898-0.547 1.597-1.367 2.108-2.448 0.508-1.078 0.758-2.148 0.758-3.206 0-1.503-0.461-2.831-1.382-3.991a5.248 5.248 0 0 0-4.315-2.038z m-47.566 0.035l4.584 12.155a4.658 4.658 0 0 1-0.82 1.683c-0.351 0.437-0.898 0.652-1.636 0.652-0.398 0-0.851-0.051-1.344-0.156l0.262 2.519c0.594 0.129 1.199 0.203 1.812 0.203 0.605 0 1.148-0.074 1.632-0.203a4.061 4.061 0 0 0 1.21-0.539 3.366 3.366 0 0 0 0.875-0.914 8.59 8.59 0 0 0 0.8-1.616l0.777-2.128 4.237-11.656h-3.296l-2.819 8.606-2.889-8.606z m64.938 0.305v0.476a3.28 3.28 0 0 1 0.956 0.355c0.137 0.113 0.312 0.312 0.531 0.613 0.281 0.398 0.488 0.726 0.617 0.996l4.249 8.883-0.832 2.054c-0.308 0.758-0.617 1.273-0.922 1.535-0.312 0.266-0.586 0.406-0.847 0.406a3.428 3.428 0 0 1-0.652-0.196 3.608 3.608 0 0 0-1.171-0.273c-0.41 0-0.742 0.098-0.976 0.328a1.117 1.117 0 0 0-0.36 0.859c0 0.383 0.164 0.715 0.492 1.004a1.784 1.784 0 0 0 1.258 0.437c0.703 0 1.429-0.281 2.186-0.871 0.754-0.586 1.367-1.445 1.831-2.592l4.788-11.769a6.247 6.247 0 0 1 0.441-0.992 2.148 2.148 0 0 1 0.566-0.57 1.847 1.847 0 0 1 0.734-0.207v-0.476h-3.819v0.476c0.363 0 0.625 0.031 0.769 0.09a0.672 0.672 0 0 1 0.325 0.223 0.57 0.57 0 0 1 0.089 0.339c0 0.355-0.074 0.703-0.218 1.058l-2.636 6.525-2.878-5.974c-0.289-0.586-0.43-1.046-0.429-1.39a0.82 0.82 0 0 1 0.289-0.625 1.351 1.351 0 0 1 0.874-0.246h0.266v-0.476z m-6.845 0.312c0.683 0 1.234 0.289 1.679 0.847 0.586 0.765 0.875 1.82 0.875 3.183 0 1.035-0.207 1.796-0.625 2.28a2.015 2.015 0 0 1-1.601 0.734 2.062 2.062 0 0 1-1.679-0.843c-0.582-0.742-0.871-1.788-0.871-3.132 0-1.046 0.211-1.8 0.637-2.304a2.011 2.011 0 0 1 1.585-0.769z m-10.925 0.211c0.945 0 1.718 0.398 2.335 1.218 0.898 1.203 1.351 2.839 1.351 4.932 0 1.675-0.273 2.85-0.816 3.534a2.522 2.522 0 0 1-2.062 1.03c-1.117 0-2.015-0.629-2.698-1.862-0.679-1.249-1.027-2.714-1.027-4.432 0-1.062 0.144-1.925 0.429-2.612a2.854 2.854 0 0 1 1.113-1.41 2.604 2.604 0 0 1 1.375-0.398z m-17.427 1.542c0.843 0 1.546 0.328 2.12 0.965 0.562 0.633 0.843 1.55 0.844 2.745 0 1.214-0.281 2.148-0.844 2.78a2.714 2.714 0 0 1-2.12 0.968 2.714 2.714 0 0 1-2.116-0.968c-0.574-0.629-0.859-1.554-0.859-2.765 0-1.203 0.285-2.128 0.859-2.76a2.749 2.749 0 0 1 2.116-0.965z m26.005 9.754c1.035 0.141 2.526 0.254 4.459 0.313 1.328 0.027 2.21 0.133 2.656 0.324 0.441 0.187 0.664 0.508 0.663 0.941 0 0.613-0.367 1.187-1.101 1.725-0.742 0.539-1.874 0.812-3.412 0.813-1.617 0-2.858-0.273-3.714-0.797-0.5-0.305-0.742-0.656-0.742-1.081 0-0.305 0.094-0.66 0.297-1.016a5.896 5.896 0 0 1 0.89-1.222z"/></svg>