<svg fill="#F2CC38" role="img" viewBox="0 0 39 24" xmlns="http://www.w3.org/2000/svg"><title>Tabelog</title><path d="M38.874 16.023a0.295 0.295 0 0 0-0.225-0.293l-3.636-0.877a0.293 0.293 0 0 0-0.263 0.065 0.295 0.295 0 0 0-0.099 0.243c-0.338-0.109-0.659-0.241-0.922-0.397-0.697-0.415-1.6-1.21-1.948-2.634-0.239-0.976-0.872-2.683-1.291-3.813l-0.302-0.822c-0.083-0.234-0.221-0.504-0.401-0.785l1.461-0.686a0.389 0.389 0 0 0 0.182-0.524l-0.56-1.143a0.39 0.39 0 0 0-0.525-0.177l-1.922 0.978c-0.279-0.237-0.575-0.449-0.879-0.619-0.408-0.226-1.049-0.551-1.717-0.881l3.173-1.841a0.388 0.388 0 0 0 0.136-0.537l-0.656-1.091a0.39 0.39 0 0 0-0.539-0.131l-4.178 2.603c-0.327-0.155-0.551-0.262-0.601-0.285-0.141-0.091-0.947-0.547-2.228-0.049-1.225 0.475-2.338 0.821-2.349 0.824-0.094 0.03-0.907 0.297-1.23 0.726-0.335 0.445-1.239 1.463-1.545 1.633-0.361 0.199-0.813 0.596-0.901 1.055a0.956 0.956 0 0 0-0.011 0.079 0.728 0.728 0 0 0 0.169 0.546c0.205 0.248 0.498 0.364 0.752 0.42L0.315 17.269a0.397 0.397 0 0 0-0.132 0.544l0.121 0.201a0.399 0.399 0 0 0 0.542 0.138l14.341-8.319c-0.015 0.265-0.006 0.934 0.404 1.288 0.137 0.118 0.363 0.234 0.702 0.209l-14.958 7.608a0.397 0.397 0 0 0-0.179 0.53l0.103 0.212a0.399 0.399 0 0 0 0.528 0.184l14.671-6.893c-0.151 0.472-0.266 0.915-0.297 1.251-0.013 0.134-0.013 0.251 0.003 0.347 0.104 0.614 0.377 1.036 0.77 1.186 0.192 0.074 0.481 0.098 0.845-0.075 0.08 0.31 0.23 0.702 0.509 0.927 0.176 0.141 0.386 0.203 0.605 0.179 0.473-0.053 1.046-0.473 1.425-1.046 0.258-0.391 0.409-0.812 0.45-1.239a2.478 2.478 0 0 0-0.001-0.444c0.384 0.134 0.94 0.412 1.239 0.967 0.58 1.076 2.704 4.038 4.017 4.65l0.756 0.375c1.126 0.573 2.668 1.356 4.839 1.761 0.01 0.004 0.022 0.009 0.033 0.013a0.302 0.302 0 0 0-0.037 0.114 0.296 0.296 0 0 0 0.17 0.293l3.777 1.743a0.291 0.291 0 0 0 0.207 0.015c0.119-0.034 2.982-0.954 3.106-7.965z m-11.617-10.968a4.613 4.613 0 0 1 0.592 0.395l-4.25 2.162a5.949 5.949 0 0 0-0.546-0.307l-0.617-0.293c-0.369-0.174-0.847-0.397-1.311-0.626l4.088-2.371c0.785 0.383 1.581 0.781 2.044 1.04zM15.491 6.674c0.038-0.2 0.299-0.479 0.605-0.649 0.48-0.265 1.51-1.502 1.731-1.794 0.158-0.21 0.658-0.429 0.937-0.517 0.009-0.002 1.139-0.355 2.384-0.838 1.071-0.415 1.685-0.013 1.71 0.004a0.322 0.322 0 0 0 0.042 0.024c0.006 0.002 0.105 0.049 0.269 0.127l-3.827 2.384c-0.661-0.247-1.445 0.006-1.882 0.46-0.174 0.18-0.298 0.426-0.368 0.704-0.255 0.51-0.686 0.5-0.738 0.496-0.004 0-0.008 0.002-0.013 0.001-0.011-0.001-0.023-0.003-0.035-0.003-0.155 0.004-0.595-0.034-0.784-0.261-0.033-0.04-0.043-0.08-0.031-0.138z m0.486 4c-0.208-0.179-0.213-0.664-0.198-0.853 0.006-0.018 0.062-0.182 0.145-0.416l1.577-0.916c0.122 0.168 0.266 0.324 0.43 0.467-0.067 0.596-0.268 1.018-0.27 1.023-0.001 0.001 0 0.001-0.001 0.001v0.001c-0.002 0.005-0.251 0.468-1.25 0.732-0.297 0.079-0.4-0.009-0.433-0.039z m2.215-0.439l0.001-0.002c0.026-0.052 0.181-0.39 0.275-0.887 0.261 0.17 0.513 0.334 0.753 0.492l-1.106 0.563c0.027-0.056 0.052-0.113 0.077-0.166z m-0.402 4.75c-0.258 0.201-0.487 0.28-0.645 0.219-0.184-0.071-0.333-0.344-0.399-0.733-0.01-0.058-0.01-0.132-0.001-0.22 0.034-0.366 0.217-0.969 0.457-1.63l1.853-0.87c-0.169 0.399-0.317 0.888-0.338 1.397-0.034 0.815-0.806 1.703-0.927 1.837z m14.013 6.266a0.343 0.343 0 0 0-0.049-0.013c-2.103-0.388-3.61-1.154-4.709-1.713l-0.774-0.383c-1.128-0.526-3.182-3.346-3.747-4.395-0.497-0.923-1.479-1.246-1.896-1.344-0.082-0.277-0.251-0.793-0.456-1.064a0.296 0.296 0 0 0-0.414-0.058 0.296 0.296 0 0 0-0.058 0.413c0.152 0.201 0.33 0.743 0.408 1.036 0 0.002 0.001 0.002 0.001 0.003 0.001 0.002 0.001 0.005 0.002 0.008 0.223 0.747-0.083 1.371-0.285 1.675-0.316 0.477-0.741 0.756-0.998 0.785-0.065 0.007-0.115-0.008-0.17-0.052-0.189-0.151-0.311-0.557-0.36-0.848 0.262-0.305 0.97-1.211 1.009-2.127 0.033-0.791 0.448-1.567 0.631-1.837l0.895-0.42c0.636 0.436 1.058 0.743 1.174 0.86l0.196 0.186c0.418 0.387 1.289 1.194 1.393 2.03 0.148 1.175 1.535 3.878 3.125 4.635a0.294 0.294 0 0 0 0.393-0.14 0.294 0.294 0 0 0-0.139-0.393c-1.394-0.664-2.663-3.139-2.794-4.176-0.131-1.048-1.072-1.92-1.577-2.388l-0.178-0.169c-0.406-0.408-3.02-2.111-3.813-2.624-0.766-0.496-0.945-1.131-0.983-1.466-0.045-0.393 0.055-0.78 0.254-0.986 0.3-0.31 0.969-0.558 1.447-0.215 0.546 0.391 1.935 1.043 2.855 1.475l0.607 0.288c0.565 0.28 1.048 0.668 1.053 0.672 0.067 0.058 1.811 1.551 2.431 1.96 0.832 0.551 1.535 0.203 1.79-0.057a0.294 0.294 0 0 0-0.003-0.413 0.296 0.296 0 0 0-0.415-0.003c-0.042 0.041-0.43 0.387-1.047-0.019-0.295-0.195-0.888-0.674-1.408-1.105l4.056-1.906c0.173 0.262 0.306 0.513 0.382 0.729l0.305 0.832c0.414 1.117 1.04 2.804 1.271 3.747 0.396 1.623 1.426 2.527 2.219 3 0.359 0.214 0.804 0.383 1.254 0.517 0.029 1.369-0.141 4.627-2.3 5.681a50.158 50.158 0 0 0-0.578-0.218z m3.885 2.132c-0.184-0.085-2.201-1.016-3.036-1.402 1.835-0.896 2.419-3.057 2.576-4.725a12.543 12.543 0 0 0 0.039-1.734c0.579 0.14 2.647 0.638 3.009 0.725-0.014 0.505-0.04 0.982-0.081 1.42-0.416 4.423-2.098 5.514-2.507 5.716z"/></svg>