<svg fill="#E97627" role="img" viewBox="0 0 25 24" xmlns="http://www.w3.org/2000/svg"><title>Tableau</title><path d="M12.149 0V2.235H10.148v0.589h2.001V5.059h0.706V2.824h1.999v-0.589h-1.999V0h-0.353z m6.119 2.295l-0.002 1.647v1.647h-3.001v0.941h3.001v3.235H19.324l0.011-1.606 0.02-1.599 1.487-0.02 1.481-0.01v-0.941H19.327V2.295h-0.53z m-12.59 0.061V5.593H2.648v0.939H5.678V9.769h1V6.531h3.057v-0.939H6.678V2.356H6.178z m6.176 5.348v3.646H8.502v1.205h3.353v3.649h1.298v-3.649H16.511v-1.205H13.152V7.704h-0.646z m9.864 1.573v2.253h-2.042v0.823h2.042v2.294h0.9v-2.294H24.677v-0.823h-2.059V9.278h-0.429z m-19.393 0.132V11.615H0.323v0.631H2.325v2.226H3.002v-2.226h2.03v-0.63H2.971V9.408h-0.323z m15.941 4.583v3.302h-3.061v0.94h3.061v3.265h1.087v-3.264H22.383v-0.941H19.353v-3.302h-0.54z m-12.647 0.008v3.294H2.619v0.941h3v3.236H6.736v-3.236h2.999v-0.941H6.736V13.999h-0.558z m6.409 4.645l0.002 1.12v1.116H10.03v0.824h2v2.295h0.942l0.012-1.135 0.017-1.16H14.999v-0.824h-2.029V18.645h-0.472z"/></svg>