<svg fill="#7935D2" role="img" viewBox="0 0 25 24" xmlns="http://www.w3.org/2000/svg"><title>TableCheck</title><path d="M11.414 3.828L7.748 0.164C7.625 0.041 7.378-0.001 7.213 0.041 4.253 1.36 1.879 3.718 0.541 6.669a0.449 0.449 0 0 0 0.124 0.534L4.329 10.867c0.124 0.124 0.371 0.082 0.412-0.122a7.909 7.909 0 0 1 2.217-4.331 7.915 7.915 0 0 1 4.332-2.215c0.165 0 0.247-0.247 0.124-0.371Zm9.266 7.08l3.666-3.664c0.123-0.123 0.165-0.37 0.123-0.534-1.32-2.958-3.679-5.331-6.631-6.669a0.45 0.45 0 0 0-0.288-0.03 0.449 0.449 0 0 0-0.247 0.153L13.638 3.828c-0.124 0.123-0.082 0.371 0.123 0.412a7.915 7.915 0 0 1 4.332 2.215 7.909 7.909 0 0 1 2.216 4.331c0 0.164 0.248 0.247 0.371 0.122Zm3.666 5.887L20.68 13.09c-0.123-0.123-0.37-0.082-0.412 0.124-0.535 3.335-3.171 6.01-6.548 6.546-0.205 0.041-0.288 0.288-0.123 0.412l3.666 3.663c0.123 0.124 0.37 0.165 0.534 0.124 2.949-1.321 5.308-3.68 6.631-6.628 0.124-0.206 0.083-0.412-0.082-0.536ZM4.331 13.09L0.664 16.795c-0.124 0.124-0.165 0.371-0.124 0.536 1.322 2.947 3.682 5.306 6.63 6.628a0.449 0.449 0 0 0 0.289 0.029 0.449 0.449 0 0 0 0.247-0.153l3.666-3.663c0.123-0.124 0.082-0.371-0.124-0.412-1.641-0.265-3.157-1.04-4.333-2.215a7.909 7.909 0 0 1-2.216-4.331c0-0.165-0.247-0.247-0.371-0.124h0.003Z"/></svg>