<svg fill="#38096C" role="img" viewBox="0 0 27 24" xmlns="http://www.w3.org/2000/svg"><title>Taco Bell</title><path d="M13.587 0a13.018 13.018 0 0 0-1.009 0.035c-1.653 0.088-3.266 0.556-4.773 1.225 0.31-0.001 0.65-0.053 0.927 0.12 0.341 0.189 0.497 0.582 0.822 0.785 0.463 0.18 0.961 0.008 1.433-0.044 1.509-0.175 3.069 0.122 4.418 0.816 0.87 0.458 1.657 1.062 2.378 1.728 1.11 0.976 2.023 2.151 3.122 3.139 0.359 0.319 0.771 0.581 1.22 0.755 1.048 0.411 2.206 0.379 3.262 0.764 0.333 0.112 0.631 0.298 0.932 0.475-0.182-0.593-0.375-1.183-0.621-1.752-1.085-2.559-3.005-4.749-5.39-6.173-2.018-1.219-4.366-1.863-6.721-1.873ZM5.754 2.5C3.828 3.877 2.287 5.788 1.347 7.96 0.577 9.713 0.217 11.636 0.248 13.548c0.001 3.308 0.006 6.617-0.002 9.925-0.017 0.18 0.092 0.332 0.166 0.486 1.279 0.079 2.565 0.015 3.847 0.034-0.63-0.229-1.352-0.605-1.474-1.334-0.199-1.052 0.308-2.075 0.851-2.943 0.871-1.356 2.026-2.5 3.216-3.577 1.444-1.251 3.042-2.311 4.68-3.286 0.439-0.283 0.945-0.505 1.261-0.94-0.287 0.024-0.569 0.095-0.83 0.217-1.091 0.474-2.125 1.067-3.144 1.678-0.973 0.602-1.952 1.198-2.867 1.888-0.64 0.458-1.236 0.97-1.855 1.454-0.137-1.039-0.385-2.057-0.645-3.071-0.319-1.346-0.527-2.734-0.438-4.121 0.066-1.42 0.519-2.83 1.364-3.979 0.325-0.476 0.772-0.856 1.08-1.344 0.265-0.417-0.133-0.848-0.1-1.283-0.006-0.332 0.214-0.597 0.396-0.852z m17.188 9.776c-0.185-0.003-0.371 0.012-0.55 0.031-1.454 0.178-2.843 0.678-4.195 1.221-3.028 1.272-5.953 2.845-8.551 4.865-1.036 0.828-2.06 1.706-2.827 2.799-0.232 0.364-0.523 0.81-0.358 1.255 0.211 0.293 0.605 0.345 0.938 0.39 1.167 0.104 2.336-0.086 3.475-0.329 2.298-0.523 4.523-1.389 6.543-2.606 1.518-0.878 2.986-1.855 4.304-3.015 0.739-0.67 1.45-1.392 1.959-2.258 0.235-0.415 0.443-0.87 0.433-1.357 0.003-0.275-0.026-0.618-0.293-0.77-0.264-0.167-0.569-0.221-0.878-0.226z m3.785 0.084c-0.871 2.202-2.598 3.921-4.385 5.41-1.558 1.263-3.255 2.35-5.033 3.276-2.414 1.347-5.012 2.405-7.731 2.938 5.562 0.024 11.125 0.004 16.686 0.009 0.25 0.035 0.505-0.157 0.488-0.42 0.007-3.164 0-6.328 0.003-9.493 0.002-0.573 0.008-1.148-0.028-1.72zM14.292 16.15c0.398 0.851 0.443 1.874 0.06 2.738-0.354 0.849-1.087 1.519-1.954 1.82-1.16 0.4-2.514 0.09-3.386-0.775 1.549-1.527 3.38-2.737 5.28-3.783z"/></svg>