<svg fill="#FFA900" role="img" viewBox="0 0 69 24" xmlns="http://www.w3.org/2000/svg"><title>tado&#176;</title><path d="M64.424 0a4.321 4.321 0 1 0 0 8.644 4.321 4.321 0 0 0 0-8.644z m-24.269 0.009v7.008c-1.304-0.982-2.697-1.607-4.811-1.606-5.177 0-8.085 3.893-8.085 9.323 0 5.114 2.908 9.266 8.085 9.266 5.083 0 8.039-4.166 8.048-9.266v-14.725zM5.648 0.011l-3.208 1.079V5.408H0.254v2.697h2.161v11.052c0 2.397 1.912 4.309 4.332 4.309h3.219v-2.691h-2.7a1.615 1.615 0 0 1-1.621-1.615v-11.055h9.175V5.408H5.648z m58.776 1.071a3.239 3.239 0 1 1 0 6.478 3.239 3.239 0 0 1 0-6.478zM15.893 5.408v2.699h5.439c1.01 0 1.567 0.79 1.567 1.542v2.205l-3.773-0.002c-3.236 0-6.469 2.195-6.469 5.935 0 3.73 3.225 5.956 6.463 5.956 2.72 0 3.784-1.627 3.785-1.626v1.341H26.138v-13.881c0-2.237-1.903-4.169-4.309-4.169z m36.702 0.006c-5.16 0-8.09 3.907-8.09 9.237 0 5.454 2.931 9.349 8.09 9.349 5.1 0 8.07-3.881 8.07-9.349 0-5.317-2.985-9.238-8.07-9.237z m-17.254 2.711c3.253 0 4.794 3.382 4.794 6.609 0 3.188-1.57 6.578-4.794 6.578-3.516 0-4.843-3.39-4.843-6.578 0-3.225 1.598-6.609 4.843-6.609z m17.254 0.014c3.196 0 4.86 3.367 4.86 6.563 0 3.188-1.632 6.601-4.86 6.601-3.213 0-4.871-3.325-4.871-6.583 0-3.213 1.627-6.581 4.871-6.581zM19.129 14.568h3.773v3.445c0 1.427-1.064 3.031-3.776 3.031-1.047 0-3.233-0.542-3.233-3.237 0-2.403 2.163-3.239 3.236-3.239Z"/></svg>