<svg fill="#000000" role="img" viewBox="0 0 24 24" xmlns="http://www.w3.org/2000/svg"><title>Taichi Lang</title><path d="M15.526 4.678c-0.02 1.605-0.817 2.896-2.211 3.854-1.218 0.837-2.47 1.627-3.632 2.54-1.898 1.495-3.139 3.434-3.178 5.927-0.042 2.712 1.175 4.798 3.434 6.274 0.042 0.028 0.089 0.05 0.131 0.075 0.2 0.123 0.364 0.305 0.219 0.524-0.07 0.103-0.327 0.154-0.472 0.115-1.217-0.297-2.386-0.731-3.456-1.395-3.462-2.149-5.484-5.262-5.952-9.318C-0.254 7.468 3.193 2.09 8.683 0.354c1.356-0.431 2.722-0.527 4.073 0.042 1.722 0.72 2.826 2.381 2.77 4.282Zm8.146 9.265c-0.028 1.07-0.328 2.269-1.444 3.112-1.3 0.981-2.975 0.916-3.998-0.149a2.836 2.836 0 0 1-0.645-1.081 2.914 2.914 0 0 1-0.12-1.254 2.879 2.879 0 0 1 0.434-1.186 2.844 2.844 0 0 1 0.897-0.878c0.139-0.087 0.281-0.171 0.422-0.253 1.167-0.658 1.692-1.689 1.731-3.005a1.955 1.955 0 0 1 0.09-0.381c0.131 0.056 0.28 0.084 0.388 0.171 1.434 1.126 2.245 2.815 2.245 4.904z"/></svg>