<svg fill="#FF371A" role="img" viewBox="0 0 34 24" xmlns="http://www.w3.org/2000/svg"><title>Taipy</title><path d="M1.851 0.918a1.371 1.371 0 0 1 1.295-0.918h30.116a0.686 0.686 0 0 1 0.647 0.912l-1.758 5.028a1.371 1.371 0 0 1-1.295 0.918H0.739a0.686 0.686 0 0 1-0.648-0.912Zm6.856 8.572a1.371 1.371 0 0 1 1.295-0.918h11.774a0.686 0.686 0 0 1 0.647 0.911l-1.758 5.028a1.371 1.371 0 0 1-1.295 0.918H7.596a0.686 0.686 0 0 1-0.647-0.912Zm3.81 8.57a1.371 1.371 0 0 1 1.296-0.918h4.917a0.686 0.686 0 0 1 0.647 0.912l-1.76 5.028a1.371 1.371 0 0 1-1.293 0.918H11.406a0.686 0.686 0 0 1-0.647-0.912Z"/></svg>