<svg fill="#000000" role="img" viewBox="0 0 32 24" xmlns="http://www.w3.org/2000/svg"><title>Take-Two Interactive Software</title><path d="M22.575 18.265l0.547-0.337 5.45-4.067c1.854-1.637 3.008-3.523 3.008-6.043-0.008-5.049-3.984-7.57-8.676-7.57-2.181 0-4.095 0.586-5.618 1.647V0L0.259 0.01l0.009 5.766 5.05-0.011 0.021 18.215 7.025-0.01-0.021-18.215h1.893a10.455 10.455 0 0 0-0.677 2.649l5.926 1.16c0.1-1.805 0.718-4.069 2.911-4.069 1.444 0 2.3 1.091 2.3 2.453 0 2.042-1.712 3.48-3.149 4.712l-7.978 5.981 0.008 5.359 17.895-0.021 0.269-5.734-9.166 0.02Z"/></svg>