<svg fill="#000000" role="img" viewBox="0 0 21 24" xmlns="http://www.w3.org/2000/svg"><title>Talenthouse</title><path d="M20.872 7.42V0H0.126v7.42h6.66V24h7.428V7.42h6.66zM10.809 0h-0.623z m-0.004 3.41V0.618h8.865L16.151 3.41Zm-5.948 0L1.329 0.618h8.857V3.41H4.857z m-0.608 0.308l-3.503 2.76V0.949ZM1.336 6.802l3.52-2.781h4.894L6.959 6.8H1.336Zm6.068 0.438l2.78-2.782v14.781l-1.602 2.046-1.183 1.51Zm0.326 16.142l0.555-0.706 2.216-2.825 2.77 3.535z m3.078-18.924l2.786 2.782v15.556l-2.786-3.556zM14.049 6.8l-2.8-2.78h4.904l3.519 2.78h-5.623Zm6.206-0.322L16.749 3.71 20.243 0.963l0.02-0.015Z"/></svg>