<svg fill="#E94F20" role="img" viewBox="0 0 38 24" xmlns="http://www.w3.org/2000/svg"><title>Taobao</title><path d="M33.733 8.678c0.836 0 1.517 0.678 1.517 1.517 0 0.835-0.68 1.516-1.517 1.517-0.835 0-1.517-0.681-1.517-1.517 0-0.84 0.682-1.518 1.517-1.517z m3.782 4.821h-16.471v-1.519h6.568V8.454h-4.569v-1.216h4.568v-1.461h-3.968v0.322h-2.599V1.513h2.599v0.554c0.783-0.096 2.315-0.287 3.984-0.468v-1.307h2.931v1.014c1.464-0.128 2.774-0.208 3.499-0.176 2.356 0.113 3.869 0.446 3.932 2.015 0.056 1.565-2.254 3.014-2.254 3.013l-0.714-0.686v0.305h-4.449v1.461h5.11v1.216h-5.11v3.526h6.943v1.519zM34.075 4.561l-0.018-0.019s2.172-1.202 0.542-2.013c-1.366-0.68-8.759 0.484-10.956 0.991v1.041h10.432zM2.988 3.164c0.873 0 1.58-0.711 1.581-1.582 0-0.875-0.707-1.582-1.581-1.582a1.58 1.58 0 0 0-1.584 1.582c0 0.872 0.706 1.583 1.584 1.582z m5.396-1.36c0.399-0.691 0.588-1.139 0.588-1.139l-2.32-0.652S5.718 3.066 4.05 4.488c0 0 1.613 0.933 1.597 0.907a15.262 15.262 0 0 0 1.238-1.392c0.371-0.161 0.726-0.313 1.075-0.455-0.43 0.771-1.123 1.929-1.817 2.66l0.978 0.853s0.664-0.638 1.391-1.41h0.831v1.423H6.112v1.14h3.23v2.728c-0.04 0-0.082 0-0.123-0.004-0.354-0.017-0.91-0.075-1.128-0.419-0.266-0.417-0.07-1.186-0.054-1.655H5.803l-0.078 0.041s-0.818 3.662 2.356 3.58c2.974 0.082 4.675-0.828 5.495-1.452l0.327 1.21 1.833-0.764-1.242-3.036-1.49 0.462 0.28 1.041c-0.382 0.286-0.82 0.5-1.296 0.654V8.214h3.157v-1.14h-3.157v-1.423h3.17v-1.14h-5.629c0.406-0.492 0.726-0.947 0.806-1.234L9.356 3.011c4.21-1.506 6.553-1.248 6.532 1.224v6.508s0.248 2.235-2.312 2.074l-1.386-0.297-0.327 1.314s5.985 1.711 6.474-2.887c0.49-4.598-0.121-7.529-0.121-7.529s-0.546-4.245-9.832-1.614zM0.102 12.243l2.511 1.567c1.736-3.768 1.624-3.269 2.06-4.621 0.448-1.383 0.546-2.437-0.215-3.201-0.977-0.981-1.083-1.072-2.535-2.149L0.878 5.442l1.925 1.199s1.288 0.657 0.677 1.884c-0.572 1.167-3.378 3.718-3.378 3.718z m31.555 10.837s-0.029 0.828-1.061 0.828c-0.932 0-1.007-0.651-1.007-0.651-0.393 0.474-0.982 0.72-1.692 0.72-1.204 0-2.051-0.813-2.051-2.041 0-1.244 0.882-2.026 2.212-2.025 0.606 0 1.147 0.231 1.465 0.639 0.01-0.112 0.022-0.216 0.022-0.312 0-0.89-0.489-1.286-1.598-1.286-0.535 0-1.054 0.077-1.604 0.223 0.175-0.347 0.304-0.6 0.47-0.724 0.19-0.154 0.68-0.223 1.49-0.223 2.008 0 2.757 0.674 2.757 2.26v1.903c0 0.5 0.052 0.69 0.597 0.689z m-2.1-1.179c0-0.762-0.404-1.182-1.009-1.182-0.64 0-1.055 0.447-1.056 1.202 0 0.739 0.439 1.205 1.034 1.205 0.614 0 1.031-0.435 1.031-1.225z m8.341-0.792c0 1.824-1.096 2.891-2.815 2.891-1.734 0-2.811-1.067-2.811-2.891 0-1.833 1.078-2.888 2.811-2.889 1.719 0 2.815 1.063 2.815 2.889z m-1.72 0c0-1.376-0.375-2.057-1.095-2.057-0.749 0-1.098 0.681-1.098 2.057 0 1.371 0.349 2.056 1.098 2.055 0.739 0 1.095-0.685 1.095-2.055z m-11.285-0.07c0 1.852-1.034 2.938-2.496 2.938-0.67 0-1.275-0.258-1.656-0.744 0 0-0.171 0.675-1.047 0.675-1.089 0-1.051-0.828-1.052-0.828 0.612 0.026 0.595-0.339 0.595-0.69v-4.567c0-0.562-0.117-0.759-0.675-0.77 0.022-0.17 0.123-0.851 1.074-0.851 1.291 0 1.205 1.448 1.205 1.448v1.244c0.362-0.424 0.873-0.624 1.568-0.624 1.523 0 2.484 1.02 2.484 2.769z m-1.731 0.127c0-1.422-0.43-2.145-1.205-2.145-0.695 0-1.171 0.628-1.171 1.748v0.57c0 1.14 0.499 1.767 1.207 1.768 0.755 0 1.169-0.654 1.169-1.941z m-5.131-0.057c0 1.824-1.089 2.891-2.818 2.891-1.731 0-2.805-1.067-2.805-2.891 0-1.833 1.074-2.888 2.805-2.889 1.729 0 2.818 1.063 2.818 2.889z m-1.715 0c0-1.376-0.373-2.057-1.103-2.057-0.739 0-1.088 0.681-1.088 2.057 0 1.371 0.349 2.056 1.088 2.055 0.742 0 1.104-0.685 1.103-2.055z m-9.478-4.298c-0.424 0.124-1.25 0.154-2.455 0.153-1.464 0-2.436-0.062-2.935-0.061-0.822 0-1.148 0.212-1.438 1.043 0.476-0.161 1.065-0.172 1.796-0.172 0.556 0 0.65 0.068 0.651 0.465V22.834c0 0.446 0.186 1.074 1.148 1.074 1.124 0 1.321-0.832 1.32-0.832-0.562-0.011-0.672-0.208-0.672-0.77V18.254c0-0.423 0.16-0.442 0.746-0.442 0.198 0 0.331 0.011 0.412 0.011 0.862 0 1.089-0.166 1.427-1.013z m4.954 6.269s-0.028 0.828-1.055 0.828c-0.88 0-1.013-0.651-1.013-0.651-0.392 0.474-0.982 0.72-1.687 0.72-1.211 0-2.057-0.813-2.056-2.041 0-1.244 0.881-2.026 2.214-2.025 0.608 0 1.151 0.231 1.465 0.639 0.006-0.112 0.017-0.216 0.017-0.312 0-0.89-0.483-1.286-1.593-1.286-0.535 0-1.055 0.077-1.607 0.223 0.179-0.347 0.304-0.6 0.466-0.724 0.205-0.154 0.685-0.223 1.499-0.223 2.002 0 2.763 0.674 2.763 2.26v1.903c0 0.5 0.044 0.69 0.587 0.689z m-2.099-1.179c0-0.762-0.404-1.182-1.009-1.182-0.635 0-1.055 0.447-1.056 1.202 0 0.739 0.442 1.205 1.031 1.205 0.616 0 1.034-0.435 1.034-1.225z"/></svg>