<svg fill="#486AAE" role="img" viewBox="0 0 36 24" xmlns="http://www.w3.org/2000/svg"><title>Tata</title><path d="M14.668 11.354c0.289-1.979 0.252-3.014-2.647-2.854-3.328 0.186-6.701 0.397-11.751 1.538A8.428 8.428 0 0 0 0.035 12c0 2.276 0.925 4.476 2.676 6.369 1.587 1.713 3.826 3.136 6.476 4.12a23.174 23.174 0 0 0 3.015 0.88c0.195-0.789 1.436-5.849 2.419-11.711l0.045-0.303m21.064-1.317c-5.048-1.141-8.419-1.35-11.746-1.536-2.9-0.16-2.937 0.874-2.647 2.853l0.069 0.446c0.973 5.761 2.183 10.719 2.392 11.558C30.867 21.743 35.965 17.264 35.965 12c0-0.663-0.081-1.317-0.235-1.962m-0.735-1.982a10.723 10.723 0 0 0-1.707-2.423c-1.587-1.713-3.825-3.136-6.475-4.119-2.671-0.991-5.719-1.514-8.813-1.514-3.096 0-6.142 0.524-8.813 1.512-2.65 0.985-4.889 2.41-6.476 4.121A10.734 10.734 0 0 0 1.005 8.057c3.449-0.834 9.349-1.936 14.827-2.051 0.528-0.012 0.892 0.157 1.132 0.46 0.293 0.371 0.269 1.689 0.262 2.278l-0.156 15.24a27.706 27.706 0 0 0 1.863 0l-0.156-15.24c-0.007-0.59-0.03-1.907 0.262-2.278 0.24-0.302 0.603-0.472 1.132-0.461 5.476 0.117 11.373 1.217 14.824 2.051z"/></svg>