<svg fill="#ED8B0B" role="img" viewBox="0 0 26 24" xmlns="http://www.w3.org/2000/svg"><title>TaxBuzz</title><path d="M2.062 5.845c4.22-2.213 6.163 0.095 6.164 0.095-2.452-1.02-6.163-0.095-6.164-0.095z m7.024 0.095c-1.334-1.29-0.637-5.128-0.638-5.128-1.879 3.503 0.637 5.128 0.638 5.128z m15.877 9.428s0.334 0.78 0.541 1.72l-9.157 6.912-2.51-6.827c-0.754 0.253-2.857 0.775-5.899 0.059-3.854-0.907-4.108-1.624-5.351-2.485-1.243-0.86-2.102-2.675-2.309-3.376-0.207-0.701-0.223-2.055 0.318-3.027 0.541-0.972 2.039-1.608 2.039-1.608s0.876-0.366 3.2-0.477c2.327-0.111 3.872 0.685 3.872 0.684s-0.844-2.786-0.255-5.064S11.825 0.032 11.825 0.032s1.72 0.446 3.153 2.788c0.948 1.548 1.261 2.424 1.365 2.843 1.644-0.38 3.631-1.121 5.73-2.468 0 0 1.022 2.887 3.782 11.553l-0.892 0.62z m-12.374-8.313l0.589 1.512c5.105 0.255 8.504-2.628 8.504-2.628l-0.351-0.907c-4.475 3.042-8.743 2.023-8.742 2.023z m-0.832-6.064s1.266 1.812 2.246 4.949c0 0 1.051 0.091 1.887-0.243-0.001 0-1.613-4.539-4.133-4.706z m-0.609 7.214l0.597 0.12-0.884-2.532c2.219 0.244 2.508 0.148 2.508 0.147-0.454-2.099-1.971-5.008-1.971-5.008-1.026 0.154-1.217 1.385-1.217 1.385-0.753 3.5 0.967 5.888 0.967 5.888z m-9.579 0.645c7.167 1.243 10.678 4.038 10.678 4.038L10.741 8.821S9.218 7.184 5.725 7.11c-3.475-0.072-4.157 1.74-4.156 1.74z m11.801 7.132l-0.78-2.091c-4.949-3.428-11.092-4.825-11.092-4.825s-0.167 0.204-0.227 1.1c-0.06 0.896 0.371 1.744 1.015 2.783s1.888 1.708 2.747 2.248c0.86 0.541 3.041 1.048 4.945 1.2 1.914 0.15 3.392-0.416 3.392-0.415z m0.62-5.041c5.717-0.287 8.345-2.986 8.345-2.985l-0.478-1.347c-3.583 3.073-8.441 2.675-8.44 2.675l0.573 1.657z m1.067 2.707c5.001-0.844 7.867-3.727 7.867-3.727l-0.414-1.273c-3.456 3.01-8.218 2.978-8.218 2.978l0.765 2.022z m1.036 2.907c4.205-1.636 7.525-4.694 7.525-4.695l-0.418-1.218c-3.5 2.95-7.931 3.702-7.931 3.703l0.824 2.21z m8.193-2.556l-0.513-1.41c-2.508 2.496-7.441 4.706-7.441 4.706l0.804 2.078 7.15-5.374z m-19.294 3.296c3.95 3.28 8.656 0.494 8.656 0.494-5.056 1.162-8.656-0.494-8.656-0.494z"/></svg>