<svg fill="#005149" role="img" viewBox="0 0 30 24" xmlns="http://www.w3.org/2000/svg"><title>Teal</title><path d="M5.154 0v5.126h9.804a3.933 3.933 0 0 1 2.793 1.176c0.74 0.75 1.157 1.769 1.158 2.831l0.01 5.269v4.482H9.107A3.935 3.935 0 0 1 6.31 17.708a4.036 4.036 0 0 1-1.157-2.834V5.126H0.102v9.949c0 1.172 0.228 2.333 0.672 3.417a8.93 8.93 0 0 0 1.908 2.895 8.782 8.782 0 0 0 2.857 1.934c1.068 0.449 2.214 0.679 3.369 0.679h5.864a4.122 4.122 0 0 0 2.936-1.232c0.778-0.79 1.217-1.86 1.216-2.975v-0.909h10.955l-2.89-2.834L29.898 13.198h-7.833a7.203 7.203 0 0 0 2.72-3.58 7.316 7.316 0 0 0 0.088-4.518 7.224 7.224 0 0 0-2.576-3.688 7.058 7.058 0 0 0-4.234-1.412H5.154Zm8.326 7.619c-1.505 0-2.724 1.238-2.723 2.762 0 1.526 1.219 2.762 2.723 2.762s2.724-1.236 2.724-2.762c0-1.525-1.219-2.762-2.724-2.762Z"/></svg>