<svg fill="#004680" role="img" viewBox="0 0 25 24" xmlns="http://www.w3.org/2000/svg"><title>TeamViewer</title><path d="M23.096 24H1.905A1.41 1.41 0 0 1 0.499 22.594V1.406A1.41 1.41 0 0 1 1.905 0h21.191a1.41 1.41 0 0 1 1.406 1.406v21.188A1.41 1.41 0 0 1 23.096 24zM12.41 2.109c-5.405 0.047-9.763 4.482-9.802 9.89-0.04 5.507 4.381 9.885 9.89 9.89 5.415 0.003 9.796-4.5 9.89-9.89 0.097-5.572-4.406-9.939-9.978-9.89zM10.149 8.633l-0.889 2.159H15.799l-0.889-2.159 6.642 3.365-6.642 3.365 0.889-2.159H9.26l0.882 2.159-6.659-3.365z"/></svg>