<svg fill="#4B69B6" role="img" viewBox="0 0 26 24" xmlns="http://www.w3.org/2000/svg"><title>TeamSpeak</title><path d="M13.005 0h-0.094l-0.03 0.001h-0.067l-0.032 0.001-0.073 0.001-0.022 0.001-0.094 0.003h-0.023l-0.074 0.004-0.032 0.001-0.066 0.003L12.368 0.016l-0.094 0.005-0.095 0.006h-0.016l-0.011 0.001-0.067 0.006-0.032 0.002-0.073 0.005-0.021 0.002-0.093 0.009-0.021 0.001-0.074 0.007-0.028 0.003-0.069 0.007-0.026 0.003-0.093 0.01-0.094 0.011-0.025 0.003-0.069 0.008-0.009 0.002-0.015 0.003h-0.004l-0.076 0.01-0.016 0.002-0.053 0.008-0.042 0.006-0.015 0.002-0.077 0.01-0.025 0.006-0.074 0.01-0.021 0.004-0.092 0.016-0.037 0.007-0.019 0.004-0.037 0.006-0.021 0.003-0.074 0.014-0.021 0.004-0.084 0.016h-0.003l-0.004 0.001-0.006 0.001-0.091 0.019-0.008 0.002H10.441l-0.036 0.009-0.045 0.01-0.019 0.002L10.262 0.3l-0.014 0.003-0.094 0.021-0.095 0.021-0.011 0.004-0.084 0.021-0.011 0.003-0.092 0.023-0.097 0.025-0.093 0.026-0.01 0.002-0.089 0.025h-0.003l-0.095 0.027-0.095 0.029H9.378l-0.077 0.024-0.011 0.003-0.005 0.002h-0.003l-0.03 0.011a6.34 6.34 0 0 0-0.2 0.065l-0.084 0.026-0.271 0.096-0.079 0.029a8.467 8.467 0 0 0-0.321 0.126c-0.021 0.007-0.043 0.015-0.064 0.024l-0.152 0.063a13.242 13.242 0 0 0-0.558 0.253l-0.074 0.036-0.084 0.042c-0.179 0.09-0.358 0.183-0.533 0.281-0.162 0.19-0.32 0.381-0.474 0.577l-0.063 0.085-0.038 0.045 0.005-0.003c-0.039 0.051-0.076 0.103-0.115 0.153-0.081 0.108-0.164 0.216-0.244 0.327-0.06 0.084-0.118 0.171-0.176 0.256-0.085 0.124-0.172 0.246-0.252 0.374-0.057 0.087-0.111 0.177-0.167 0.263-0.078 0.126-0.158 0.253-0.231 0.381-0.054 0.09-0.105 0.181-0.156 0.272-0.074 0.133-0.148 0.263-0.221 0.4-0.046 0.091-0.095 0.183-0.139 0.274a16.955 16.955 0 0 0-0.197 0.399c-0.047 0.101-0.093 0.203-0.139 0.305a16.871 16.871 0 0 0-0.456 1.12l-0.053 0.135 0.009-0.013c-0.134 0.376-0.258 0.755-0.366 1.142l-0.113 0.051a4.921 4.921 0 0 0-0.015 0.007 5.002 5.002 0 0 0-0.59 0.323 4.921 4.921 0 0 0-0.037 0.023 4.942 4.942 0 0 0-0.519 0.39 4.921 4.921 0 0 0-0.048 0.04 4.955 4.955 0 0 0-0.449 0.449 4.921 4.921 0 0 0-0.047 0.053 4.941 4.941 0 0 0-0.385 0.514 4.921 4.921 0 0 0-0.026 0.042 4.911 4.911 0 0 0-0.318 0.582 4.921 4.921 0 0 0-0.011 0.026 4.884 4.884 0 0 0-0.239 0.638 4.921 4.921 0 0 0-0.003 0.014c-0.063 0.219-0.114 0.442-0.148 0.674a4.921 4.921 0 0 0 0 0.01 4.95 4.95 0 0 0 0 1.388 4.921 4.921 0 0 0 0 0.011c0.034 0.23 0.084 0.455 0.148 0.674a4.921 4.921 0 0 0 0.004 0.014c0.064 0.219 0.144 0.432 0.238 0.638a4.921 4.921 0 0 0 0.011 0.025c0.095 0.202 0.2 0.397 0.319 0.583a4.921 4.921 0 0 0 0.025 0.04c0.118 0.181 0.247 0.354 0.387 0.516a4.921 4.921 0 0 0 0.044 0.052c0.14 0.158 0.29 0.309 0.448 0.449a4.921 4.921 0 0 0 0.051 0.042c0.163 0.141 0.335 0.27 0.516 0.386a4.921 4.921 0 0 0 0.042 0.029c0.187 0.119 0.383 0.226 0.587 0.32a4.921 4.921 0 0 0 0.015 0.006c0.207 0.095 0.421 0.175 0.643 0.24a4.921 4.921 0 0 0 0.018 0.005c0.218 0.063 0.442 0.113 0.67 0.146a4.921 4.921 0 0 0 0.013 0.002 4.948 4.948 0 0 0 1.385 0 4.921 4.921 0 0 0 0.013-0.002c0.23-0.033 0.453-0.082 0.67-0.146a4.921 4.921 0 0 0 0.018-0.005 4.918 4.918 0 0 0 0.642-0.239 4.921 4.921 0 0 0 0.018-0.008c0.202-0.095 0.398-0.2 0.584-0.319a4.921 4.921 0 0 0 0.044-0.029c0.179-0.117 0.353-0.246 0.516-0.385a4.921 4.921 0 0 0 0.048-0.042c0.16-0.14 0.311-0.292 0.451-0.453a4.921 4.921 0 0 0 0.042-0.047c0.141-0.164 0.271-0.337 0.389-0.519a4.921 4.921 0 0 0 0.021-0.037 4.865 4.865 0 0 0 0.322-0.586 4.921 4.921 0 0 0 0.011-0.022c0.094-0.207 0.174-0.421 0.239-0.643a4.921 4.921 0 0 0 0.002-0.008c0.063-0.219 0.114-0.443 0.148-0.674a4.921 4.921 0 0 0 0-0.021 4.948 4.948 0 0 0 0.042-0.928 4.921 4.921 0 0 0 0-0.002c0-0.053-0.005-0.103-0.011-0.155a4.921 4.921 0 0 0-0.006-0.089 4.398 4.398 0 0 0-0.03-0.234 4.921 4.921 0 0 0 0-0.006 4.851 4.851 0 0 0-0.32-1.156 4.921 4.921 0 0 0 0-0.001c-0.032-0.074-0.064-0.147-0.099-0.221a4.921 4.921 0 0 0-0.002-0.003 4.768 4.768 0 0 0-0.087-0.174 4.921 4.921 0 0 0-0.021-0.042l-0.074-0.13a4.921 4.921 0 0 0-0.053-0.089l-0.039-0.063a4.921 4.921 0 0 0-0.091-0.145l-0.013-0.016A4.921 4.921 0 0 0 7.882 8.456c-0.019-0.012-0.037-0.024-0.056-0.034a4.921 4.921 0 0 0-0.101-0.058c-0.038-0.022-0.076-0.045-0.116-0.067a4.921 4.921 0 0 0-0.046-0.023 4.882 4.882 0 0 0-1.441-0.488 14.399 14.399 0 0 1 3.57-5.511 10.848 10.848 0 0 1 3.315-0.519c6.003 0 10.878 4.875 10.878 10.877v0.002c0 2.243-0.681 4.328-1.846 6.062l-0.014 0.019C19.845 21.963 15.825 24.185 10.371 23.606l0.021 0.016c5.476 1.198 9.873-0.574 12.513-3.643l-0.019 0.027a11.268 11.268 0 0 0 0.324-0.392c0.019-0.024 0.037-0.051 0.057-0.075 0.099-0.128 0.196-0.258 0.29-0.389l0.105-0.154a11.296 11.296 0 0 0 0.533-0.859l0.08-0.14c0.182-0.337 0.346-0.681 0.494-1.033l0.065-0.167a11.247 11.247 0 0 0 0.331-0.949c0.017-0.056 0.035-0.111 0.049-0.165a10.215 10.215 0 0 0 0.143-0.555l0.004-0.019c0.041-0.179 0.076-0.361 0.108-0.543l0.026-0.169a11.163 11.163 0 0 0 0.114-1c0.004-0.063 0.011-0.124 0.013-0.187 0.009-0.191 0.016-0.382 0.016-0.574C25.639 5.663 19.978 0 13.005 0z m0.245 3.451c1.435 1.446 2.248 3.375 2.538 5.507 0.11 0.806-0.048 1.696-0.811 2.243-0.061 0.351 0.121 0.733 0.281 1.111 0.409 0.969 1.032 1.85 1.483 2.782 0.404 0.84-0.666 1.462-1.447 1.717a6.571 6.571 0 0 1-0.29 0.088c0.051 0.403 0.289 0.706 0.227 1.057a1.032 1.032 0 0 1-0.392 0.631s0.295 0.925-0.4 1.327c-0.16 0.092-0.348 0.11-0.384 0.358-0.067 0.493-0.141 0.975-0.53 1.377-0.059 0.06-0.121 0.116-0.187 0.167 4.556-0.16 8.393-3.693 8.817-8.351 0.458-5.049-3.269-9.52-8.32-9.979a9.336 9.336 0 0 0-0.585-0.036z m-2.078 0.179a9.141 9.141 0 0 0-2.109 0.708c0.409 0.141 0.775 0.333 1.021 0.562 1.148 1.064 1.716 2.109 2.033 3.563 0.281 1.283 0.416 1.905-0.258 2.372-0.911 0.632 0.972 3.332 1.339 4.114-0.484 0.623-1.118 0.61-1.453 0.782-0.185 0.095-0.108 0.449-0.078 0.722 0.029 0.267 0.274 0.435 0.14 0.642-0.12 0.184-0.579 0.198-0.776 0.327 0.192 0.211 0.616 0.42 0.558 0.693-0.042 0.211-0.518 0.175-0.701 0.655-0.098 0.258-0.047 0.735-0.251 0.976-0.472 0.558-0.966 0.653-1.948 0.544a16.787 16.787 0 0 1-0.956-0.133 9.067 9.067 0 0 0 2.383 1.197c0.263 0.086 0.544 0.116 0.821 0.086 0.518-0.048 0.878-0.238 1.228-0.653 0.232-0.274 0.174-0.817 0.284-1.11 0.21-0.548 0.751-0.503 0.801-0.743 0.063-0.312-0.419-0.551-0.636-0.79 0.225-0.145 0.745-0.161 0.882-0.372 0.153-0.235-0.126-0.425-0.16-0.729-0.034-0.31-0.121-0.712 0.09-0.822 0.379-0.196 1.101-0.181 1.652-0.889-0.418-0.889-2.559-3.96-1.524-4.678 0.767-0.533 0.614-1.24 0.295-2.699-0.362-1.653-1.008-2.841-2.312-4.051a2.332 2.332 0 0 0-0.365-0.274Z"/></svg>