<svg fill="#4E64DF" role="img" viewBox="0 0 26 24" xmlns="http://www.w3.org/2000/svg"><title>TeePublic</title><path d="M7.786 0s-0.594 0.344-0.709 1.024c-0.101 0.609 0.144 1.161 0.198 1.271-0.425 0.266-0.831 0.562-1.214 0.885 0.527-0.601 0.585-1.443 0.04-2.238 0 0-0.538 0.427-0.553 1.116-0.014 0.625 0.319 1.142 0.381 1.233-0.352 0.306-0.685 0.639-0.997 0.99 0.371-0.657 0.281-1.455-0.349-2.13 0 0-0.467 0.503-0.378 1.187 0.077 0.592 0.451 1.041 0.549 1.149-0.231 0.274-0.45 0.56-0.655 0.858-0.104 0.154-0.204 0.311-0.301 0.469 0.407-0.757 0.242-1.635-0.552-2.271 0 0-0.391 0.566-0.205 1.229 0.182 0.646 0.709 1.059 0.735 1.079-0.289 0.475-0.539 0.969-0.748 1.48 0.236-0.813-0.102-1.628-0.996-2.091 0 0-0.271 0.631 0.042 1.244 0.292 0.574 0.856 0.876 0.928 0.911-0.188 0.464-0.343 0.94-0.463 1.426 0.066-0.795-0.388-1.506-1.3-1.821 0 0-0.177 0.663 0.219 1.225 0.361 0.508 0.932 0.725 1.039 0.763-0.101 0.436-0.174 0.879-0.22 1.327-0.115-0.719-0.657-1.278-1.538-1.44 0 0-0.076 0.683 0.401 1.178 0.398 0.413 0.938 0.557 1.107 0.594a11.122 11.122 0 0 0-0.01 1.398C2.035 11.323 1.41 10.824 0.492 10.789c0 0 0.023 0.687 0.567 1.109 0.469 0.364 1.047 0.419 1.198 0.428 0.041 0.486 0.115 0.967 0.218 1.44-0.321-0.685-1.026-1.076-1.942-0.949 0 0 0.141 0.672 0.75 0.993 0.524 0.276 1.104 0.232 1.254 0.214 0.116 0.467 0.262 0.925 0.438 1.371-0.413-0.649-1.176-0.943-2.077-0.682 0 0 0.237 0.644 0.886 0.873 0.572 0.203 1.152 0.065 1.28 0.029 0.177 0.42 0.381 0.83 0.61 1.226-0.508-0.536-1.282-0.688-2.104-0.308 0 0 0.331 0.602 1.007 0.732 0.577 0.11 1.112-0.095 1.256-0.157a10.705 10.705 0 0 0 0.932 1.283c-0.59-0.592-1.459-0.695-2.294-0.151 0 0 0.414 0.548 1.102 0.58 0.662 0.03 1.212-0.331 1.253-0.359 0.373 0.435 0.78 0.836 1.214 1.204-0.704-0.511-1.605-0.459-2.34 0.259 0 0 0.514 0.457 1.195 0.352 0.67-0.102 1.147-0.584 1.161-0.599 0.404 0.341 0.834 0.651 1.283 0.93-0.755-0.365-1.61-0.171-2.217 0.623 0 0 0.574 0.377 1.233 0.177 0.617-0.189 1.011-0.693 1.058-0.755 0.396 0.24 0.809 0.456 1.233 0.643-0.735-0.141-1.459 0.195-1.901 0.999 0 0 0.624 0.288 1.245-0.01 0.532-0.255 0.84-0.742 0.918-0.875 0.454 0.187 0.922 0.343 1.401 0.466-0.783-0.072-1.491 0.364-1.824 1.256 0 0 0.66 0.194 1.23-0.19 0.515-0.346 0.748-0.909 0.789-1.018l0.159 0.036 0.084 0.019c0.734 0.162 1.381 0.334 1.943 0.518-0.855 0.328-1.668 0.771-2.04 1.348a0.101 0.101 0 0 0 0.084 0.156 0.102 0.102 0 0 0 0.084-0.047c0.323-0.498 1.055-0.951 2.182-1.351 1.128 0.4 1.859 0.853 2.182 1.351 0.02 0.029 0.052 0.046 0.085 0.046a0.101 0.101 0 0 0 0.085-0.156c-0.374-0.575-1.186-1.018-2.041-1.347a20.159 20.159 0 0 1 1.942-0.518l0.085-0.019c0.052-0.01 0.105-0.024 0.158-0.036 0.042 0.109 0.274 0.672 0.789 1.018 0.571 0.384 1.23 0.19 1.23 0.19-0.334-0.892-1.04-1.328-1.824-1.256a10.705 10.705 0 0 0 1.402-0.467c0.077 0.134 0.385 0.621 0.918 0.876 0.62 0.297 1.246 0.01 1.245 0.011-0.442-0.805-1.167-1.14-1.902-1 0.424-0.188 0.836-0.402 1.233-0.643 0.048 0.063 0.442 0.566 1.058 0.755 0.659 0.201 1.233-0.177 1.233-0.178-0.607-0.793-1.461-0.986-2.217-0.623 0.449-0.277 0.879-0.588 1.284-0.929 0.014 0.015 0.49 0.496 1.16 0.599 0.681 0.104 1.195-0.351 1.195-0.352-0.734-0.717-1.636-0.77-2.34-0.26 0.435-0.367 0.841-0.768 1.215-1.203 0.042 0.029 0.592 0.389 1.253 0.359 0.688-0.031 1.102-0.58 1.102-0.58-0.836-0.543-1.704-0.441-2.293 0.15l0.135-0.163c0.289-0.356 0.555-0.732 0.795-1.119 0.145 0.063 0.679 0.268 1.256 0.156 0.676-0.129 1.007-0.732 1.007-0.731-0.823-0.378-1.595-0.227-2.104 0.307 0.229-0.396 0.433-0.805 0.61-1.225 0.128 0.035 0.709 0.174 1.281-0.029 0.648-0.229 0.886-0.873 0.886-0.873-0.902-0.261-1.664 0.033-2.078 0.682 0.175-0.447 0.322-0.905 0.438-1.371 0.15 0.019 0.73 0.063 1.254-0.214 0.61-0.321 0.75-0.993 0.75-0.993-0.917-0.126-1.622 0.265-1.942 0.95 0.104-0.474 0.178-0.955 0.218-1.441 0.152-0.008 0.73-0.065 1.199-0.428 0.544-0.422 0.566-1.109 0.566-1.109-0.917 0.034-1.542 0.533-1.745 1.254a11.058 11.058 0 0 0-0.01-1.396c0.169-0.038 0.709-0.18 1.107-0.594 0.477-0.496 0.401-1.179 0.401-1.178-0.882 0.163-1.422 0.722-1.538 1.439-0.046-0.448-0.119-0.89-0.219-1.326 0.107-0.038 0.678-0.255 1.038-0.763 0.396-0.562 0.219-1.225 0.219-1.225-0.912 0.315-1.365 1.026-1.299 1.822a10.651 10.651 0 0 0-0.462-1.428c0.07-0.035 0.634-0.336 0.928-0.91 0.313-0.614 0.04-1.245 0.04-1.244-0.893 0.463-1.23 1.279-0.995 2.091a10.799 10.799 0 0 0-0.749-1.48c0.026-0.021 0.552-0.433 0.736-1.079 0.186-0.663-0.204-1.229-0.205-1.229-0.795 0.636-0.961 1.515-0.554 2.27-0.096-0.157-0.195-0.314-0.3-0.468a10.726 10.726 0 0 0-0.655-0.858c0.098-0.108 0.473-0.558 0.549-1.149 0.09-0.683-0.378-1.186-0.378-1.187-0.63 0.674-0.719 1.473-0.348 2.13-0.313-0.352-0.645-0.684-0.998-0.99 0.063-0.091 0.394-0.609 0.381-1.233-0.014-0.688-0.552-1.115-0.553-1.116-0.545 0.795-0.487 1.636 0.04 2.238-0.384-0.323-0.788-0.619-1.213-0.886 0.052-0.109 0.299-0.662 0.198-1.27-0.115-0.679-0.709-1.024-0.709-1.024-0.42 0.857-0.249 1.673 0.344 2.192a10.809 10.809 0 0 0-1.251-0.645c-0.525-0.847-1.374-1.128-2.189-0.829 0 0 0.33 0.629 0.969 0.93 0.43 0.201 0.858 0.132 1.094 0.065 0.418 0.18 0.82 0.384 1.205 0.609-0.594-0.171-1.217 0.045-1.655 0.666 0 0 0.495 0.3 1.042 0.109 0.453-0.156 0.752-0.514 0.842-0.635 0.393 0.246 0.767 0.514 1.121 0.805-0.563-0.256-1.212-0.133-1.738 0.418 0 0 0.448 0.369 1.017 0.259 0.469-0.091 0.815-0.399 0.924-0.505 0.373 0.323 0.721 0.671 1.043 1.04-0.528-0.392-1.225-0.39-1.855 0.101 0 0 0.387 0.43 0.966 0.407 0.502-0.019 0.907-0.299 1.006-0.374 0.292 0.346 0.56 0.71 0.803 1.091-0.462-0.394-1.11-0.459-1.763-0.089 0 0 0.32 0.483 0.896 0.544 0.463 0.048 0.876-0.136 1.021-0.21 0.237 0.392 0.448 0.798 0.633 1.219-0.378-0.46-0.992-0.641-1.693-0.408 0 0 0.219 0.535 0.773 0.708 0.445 0.138 0.886 0.038 1.043-0.007 0.17 0.421 0.313 0.855 0.427 1.298-0.302-0.534-0.894-0.816-1.639-0.685 0 0 0.141 0.562 0.664 0.813 0.429 0.205 0.89 0.165 1.042 0.143 0.113 0.489 0.191 0.989 0.233 1.498-0.179-0.653-0.748-1.083-1.563-1.064 0 0 0.054 0.576 0.533 0.903 0.429 0.292 0.938 0.299 1.043 0.298a11.214 11.214 0 0 1 0.004 1.451c-0.105-0.641-0.598-1.123-1.383-1.217 0 0-0.029 0.577 0.398 0.97 0.365 0.334 0.839 0.423 0.969 0.442-0.042 0.492-0.117 0.974-0.225 1.448-0.004-0.639-0.407-1.186-1.152-1.412 0 0-0.128 0.565 0.224 1.024 0.299 0.39 0.746 0.56 0.876 0.604-0.112 0.445-0.252 0.881-0.419 1.304 0.063-0.612-0.259-1.186-0.944-1.51 0 0-0.208 0.54 0.074 1.047 0.23 0.414 0.627 0.645 0.766 0.716-0.186 0.436-0.398 0.858-0.638 1.263 0.174-0.608-0.053-1.242-0.696-1.673 0 0-0.288 0.502-0.084 1.046 0.17 0.452 0.539 0.743 0.657 0.827-0.227 0.367-0.477 0.719-0.747 1.055 0.196-0.547 0.045-1.157-0.492-1.642 0 0-0.358 0.456-0.234 1.022 0.096 0.438 0.378 0.761 0.504 0.888-0.281 0.327-0.584 0.639-0.902 0.931 0.274-0.493 0.236-1.102-0.185-1.668 0 0-0.44 0.377-0.429 0.957 0.007 0.448 0.223 0.821 0.321 0.969-0.331 0.281-0.681 0.544-1.046 0.785 0.375-0.452 0.441-1.081 0.096-1.724 0 0-0.49 0.31-0.563 0.886-0.059 0.454 0.11 0.865 0.183 1.019-0.412 0.252-0.843 0.477-1.292 0.671 0.526-0.38 0.736-1.037 0.469-1.782 0 0-0.53 0.232-0.687 0.79-0.138 0.479-0.002 0.947 0.039 1.069a10.35 10.35 0 0 1-1.309 0.441c0.535-0.313 0.809-0.917 0.659-1.664 0 0-0.559 0.154-0.797 0.683-0.196 0.434-0.143 0.892-0.118 1.045l-0.157 0.036-0.083 0.019c-0.445 0.097-1.324 0.291-2.21 0.601a18.804 18.804 0 0 0-2.21-0.601l-0.083-0.019-0.157-0.036c0.025-0.152 0.077-0.611-0.117-1.045-0.238-0.528-0.796-0.683-0.797-0.683-0.15 0.747 0.124 1.351 0.659 1.664a10.388 10.388 0 0 1-1.309-0.441c0.041-0.123 0.177-0.59 0.04-1.069-0.158-0.558-0.688-0.79-0.688-0.79-0.268 0.745-0.057 1.402 0.469 1.782a10.415 10.415 0 0 1-1.293-0.671c0.073-0.152 0.242-0.563 0.184-1.02-0.073-0.575-0.563-0.885-0.563-0.885-0.346 0.643-0.28 1.272 0.096 1.724-0.365-0.24-0.714-0.502-1.047-0.785 0.098-0.148 0.314-0.521 0.321-0.969 0.01-0.58-0.429-0.957-0.429-0.957-0.42 0.566-0.459 1.175-0.185 1.668-0.319-0.292-0.62-0.604-0.901-0.931 0.125-0.127 0.409-0.451 0.504-0.888 0.123-0.567-0.235-1.021-0.234-1.021-0.537 0.485-0.688 1.094-0.493 1.641a10.663 10.663 0 0 1-0.747-1.055c0.119-0.083 0.488-0.375 0.657-0.827 0.204-0.542-0.083-1.045-0.084-1.046-0.643 0.43-0.869 1.065-0.695 1.673-0.24-0.405-0.453-0.828-0.638-1.263 0.139-0.071 0.535-0.302 0.765-0.716 0.284-0.507 0.074-1.047 0.074-1.047-0.686 0.323-1.006 0.897-0.943 1.51-0.167-0.423-0.309-0.859-0.42-1.304 0.13-0.044 0.577-0.214 0.876-0.604 0.354-0.46 0.225-1.025 0.225-1.024-0.746 0.226-1.148 0.773-1.153 1.411a10.531 10.531 0 0 1-0.226-1.447c0.132-0.019 0.607-0.108 0.971-0.442 0.427-0.393 0.398-0.97 0.398-0.97-0.785 0.095-1.278 0.576-1.384 1.216a10.074 10.074 0 0 1 0.005-1.45c0.104 0.002 0.613-0.005 1.042-0.298 0.479-0.326 0.534-0.903 0.533-0.903-0.814-0.02-1.383 0.41-1.563 1.063 0.044-0.509 0.121-1.008 0.234-1.497 0.151 0.022 0.612 0.063 1.043-0.143 0.521-0.251 0.662-0.813 0.662-0.813-0.743-0.131-1.335 0.152-1.638 0.685 0.115-0.444 0.257-0.877 0.427-1.298 0.156 0.045 0.597 0.146 1.043 0.006 0.552-0.173 0.773-0.709 0.773-0.708-0.701-0.231-1.314-0.05-1.693 0.409 0.183-0.421 0.396-0.829 0.633-1.219 0.145 0.075 0.557 0.259 1.02 0.21 0.576-0.061 0.896-0.544 0.896-0.544-0.651-0.37-1.3-0.305-1.763 0.089 0.244-0.379 0.511-0.744 0.803-1.091 0.1 0.074 0.503 0.354 1.006 0.375 0.58 0.023 0.966-0.408 0.966-0.408-0.63-0.49-1.326-0.493-1.855-0.101a10.423 10.423 0 0 1 1.044-1.04c0.107 0.106 0.454 0.415 0.924 0.505 0.569 0.109 1.016-0.26 1.016-0.259-0.524-0.551-1.175-0.674-1.738-0.417 0.354-0.292 0.729-0.56 1.122-0.806 0.09 0.121 0.389 0.478 0.841 0.636 0.548 0.191 1.042-0.109 1.042-0.11-0.438-0.621-1.061-0.837-1.655-0.666 0.386-0.226 0.788-0.429 1.206-0.609 0.236 0.068 0.663 0.136 1.093-0.065 0.64-0.301 0.971-0.93 0.971-0.93-0.817-0.299-1.665-0.019-2.191 0.829a10.809 10.809 0 0 0-1.251 0.646c0.594-0.52 0.765-1.336 0.345-2.193z m4.102 5.41c-0.047-0.005-0.235 0.054-0.43 0.091-0.195 0.038-0.725 0.065-0.911 0.107-0.186 0.042-0.633 0.196-0.757 0.219-0.126 0.024-0.517 0.255-0.824 0.349-0.307 0.093-0.698 0.321-0.99 0.408-0.294 0.089-0.727 0.256-0.917 0.317-0.191 0.06-0.525 0.223-0.54 0.256-0.014 0.033 0.192 0.568 0.331 0.869 0.14 0.302 0.362 0.795 0.417 0.949 0.057 0.154 0.118 0.294 0.169 0.307 0.051 0.014 0.469 0.102 0.586 0.121 0.116 0.019 0.493 0.024 0.618 0.015 0.125-0.01 0.396 0 0.507 0.055 0 0 0.036 0.549 0.037 0.595 0 0.047-0.009 0.884-0.027 0.986-0.019 0.103-0.083 0.986-0.122 1.397-0.036 0.409-0.093 1.553-0.093 1.701 0 0.149-0.055 1.265-0.055 1.47v0.995c0 0.177 0.046 0.596 0.065 0.633 0.019 0.038 2.27 0.196 2.92 0.271 0.651 0.073 1.479 0.148 2.168 0.129 0.688-0.019 1.73-0.112 2.224-0.111 0.493 0 0.837 0 0.874-0.038 0.036-0.036-0.038-0.911-0.037-1.2 0-0.288-0.038-1.647-0.038-1.991 0-0.344-0.028-1.247-0.028-1.377s-0.036-1.591-0.065-2.083c-0.028-0.493-0.102-1.339-0.083-1.396 0.018-0.055 0.279-0.112 0.38-0.094 0.103 0.02 0.596 0.094 0.708 0.094 0.112 0 0.427 0.028 0.493-0.018 0.065-0.047 0.633-1.116 0.699-1.265 0.065-0.149 0.316-0.744 0.315-0.791 0-0.046-0.847-0.418-1.089-0.548-0.241-0.13-0.907-0.461-1.134-0.535-0.228-0.075-0.526-0.149-0.67-0.219s-0.633-0.2-0.898-0.261c-0.265-0.06-0.634-0.202-0.769-0.215-0.134-0.015-0.358-0.047-0.396-0.053-0.036-0.004-0.18-0.121-0.218-0.096-0.036 0.023-0.409 0.369-0.669 0.425-0.261 0.056-0.896 0.078-1.213-0.043-0.316-0.121-0.492-0.421-0.538-0.425z"/></svg>