<svg fill="#ED2761" role="img" viewBox="0 0 57 24" xmlns="http://www.w3.org/2000/svg"><title>Teespring</title><path d="M37.371 3.429c-1.807 0-3.276 1.443-3.276 3.215 0 2.523 0.953 4.83 2.523 6.602 0.65 0.732 1.403 1.371 2.244 1.894a11.735 11.735 0 0 0 1.727-9.092c-0.012-0.068-0.031-0.136-0.047-0.204a3.267 3.267 0 0 0-3.168-2.415z m-20.211 9.289c0.324 0.859 0.744 1.671 1.25 2.422 0.836-0.523 1.591-1.162 2.242-1.894a9.906 9.906 0 0 0 2.525-6.602c0-1.772-1.469-3.215-3.279-3.215-1.526 0-2.805 1.028-3.168 2.415-0.014 0.068-0.035 0.134-0.047 0.202a11.739 11.739 0 0 0 0.481 6.672z m36.38-1.572L56.663 12.681a13.784 13.784 0 0 1-12.305 7.463 13.983 13.983 0 0 1-4.52-0.751 15.83 15.83 0 0 1-11.204 4.607 15.823 15.823 0 0 1-11.205-4.609 13.948 13.948 0 0 1-4.52 0.751A13.777 13.777 0 0 1 0.337 12.127l3.196-1.397a10.28 10.28 0 0 0 9.376 5.983c0.76 0 1.504-0.084 2.22-0.24a15.138 15.138 0 0 1-2.217-7.902 15.283 15.283 0 0 1 0.446-3.647c0.77-2.835 3.403-4.924 6.538-4.924l0.186 0.005c0.188 0.005 0.38 0.019 0.567 0.037 3.389 0.368 6.02 3.185 6.02 6.605 0 4.595-2.345 8.653-5.919 11.087a12.307 12.307 0 0 0 7.886 2.839 12.314 12.314 0 0 0 7.881-2.839c-3.574-2.434-5.919-6.494-5.919-11.087 0-3.422 2.633-6.238 6.018-6.605 0.188-0.019 0.376-0.033 0.568-0.037l0.187-0.005a6.752 6.752 0 0 1 6.647 5.365 15.203 15.203 0 0 1-1.878 11.108c0.716 0.155 1.455 0.239 2.218 0.24 4.013 0 7.489-2.269 9.177-5.567z"/></svg>