<svg fill="#FD495C" role="img" viewBox="0 0 23 24" xmlns="http://www.w3.org/2000/svg"><title>Tekton</title><path d="M1.382 0a0.924 0.924 0 0 0-0.89 0.678A6.465 6.465 0 0 0 0.304 3.133a6.62 6.62 0 0 0 0.758 2.367 7.283 7.283 0 0 0 0.906 1.307 9.765 9.765 0 0 0-0.125 0.785 10.123 10.123 0 0 0-0.072 1.359c0.003 0.186 0.008 0.375 0.029 0.565 0.043 0.54 0.535 1.182 0.871 1.594a7.135 7.135 0 0 0 2.026 1.716 0.91 0.91 0 0 0 0.033 0.082c0.083 0.176 0.186 0.342 0.31 0.493a5.928 5.928 0 0 0-0.505 1.673 8.165 8.165 0 0 0-0.174 1.301 2.218 2.218 0 0 0-0.463 0.283 2.657 2.657 0 0 0-0.846 1.231 3.252 3.252 0 0 0-0.109 0.41l-0.229-0.062-0.025 0.16c-0.116 0.73-0.064 1.361 0.232 2.006a1.443 1.443 0 0 0-0.693 0.293 1.231 1.231 0 0 0-0.354 0.459c-0.147 0.33-0.293 0.714-0.293 1.08 0 0.272 0.085 0.544 0.299 0.72a0.711 0.711 0 0 0 0.45 0.162h2.369c0.141 0.373 0.41 0.721 0.806 0.825 0.112 0.027 0.226 0.044 0.342 0.047 0.122 0.006 0.24 0.008 0.359 0.007 0.308 0.006 0.617 0.003 0.926 0 0.482-0.006 0.966-0.015 1.451-0.027a0.769 0.769 0 0 0 0.678-0.443 0.773 0.773 0 0 0 0.682 0.443c0.482 0.012 0.965 0.021 1.447 0.027 0.308 0 0.617 0.003 0.926 0a7.143 7.143 0 0 0 0.359-0.007 1.856 1.856 0 0 0 0.34-0.047c0.397-0.104 0.667-0.449 0.805-0.825h2.392a0.706 0.706 0 0 0 0.448-0.162c0.214-0.177 0.301-0.449 0.3-0.72-0.003-0.366-0.147-0.75-0.296-1.08-0.211-0.467-0.61-0.688-1.069-0.752 0.296-0.644 0.348-1.276 0.233-2.006l-0.026-0.16-0.205 0.056c-0.002-0.008-0.005-0.019-0.006-0.029a0.39 0.39 0 0 0 0.026-0.051 6.936 6.936 0 0 1 0.451-0.889 8.615 8.615 0 0 1 0.742-1.074 5.555 5.555 0 0 1 0.459-0.508c0.29-0.281 0.656-0.515 1.068-0.543 0.289-0.02 0.576 0.065 0.807 0.241 0.174 0.131 0.259 0.281 0.342 0.476 0.137 0.333 0.222 0.617 0.494 0.877 0.482 0.455 1.199 0.464 1.773 0.196 0.449-0.211 0.828-0.596 0.948-1.088a1.326 1.326 0 0 0 0.031-0.451c-0.095-0.919-0.66-1.753-1.354-2.336-0.632-0.531-1.45-0.92-2.283-0.942-0.785-0.021-1.559 0.221-2.24 0.6-1.16 0.644-2.082 1.691-2.775 2.851a7.876 7.876 0 0 0-0.094-0.525 6.231 6.231 0 0 0-0.237-1.004 4.787 4.787 0 0 0-0.17-0.455 1.898 1.898 0 0 0 0.25-0.328 4.202 4.202 0 0 0 0.217-0.399l0.037-0.084a7.17 7.17 0 0 0 2.024-1.714c0.345-0.421 0.822-1.046 0.871-1.602 0.021-0.186 0.028-0.378 0.031-0.57a9.97 9.97 0 0 0-0.076-1.383 11.949 11.949 0 0 0-0.123-0.748 7.288 7.288 0 0 0 0.904-1.309 6.61 6.61 0 0 0 0.758-2.365 6.534 6.534 0 0 0-0.183-2.455 0.916 0.916 0 0 0-0.889-0.682c-1.564 0-2.914 0.638-4.166 1.463a7.354 7.354 0 0 0-7.684 0C4.295 0.639 2.946 0 1.382 0z m0.018 0.92h0.074c0.867 0.476 1.644 1.444 2.215 2.406a10.47 10.47 0 0 0-0.34 0.463 8.026 8.026 0 0 0-0.975 2.047c-0.699-0.941-1.587-2.669-0.998-4.898 0.009-0.003 0.014-0.011 0.024-0.018z m15.908 0h0.072l0.022 0.022c0.589 2.229-0.299 3.956-0.998 4.896a7.981 7.981 0 0 0-1.037-2.141 5.536 5.536 0 0 0-0.274-0.371c0.571-0.962 1.348-1.93 2.215-2.406zM2.687 1.1c0.773 0.208 1.499 0.583 2.189 1.019a7.175 7.175 0 0 0-0.791 0.738c-0.131-0.217-0.274-0.427-0.423-0.634a7.492 7.492 0 0 0-0.975-1.123z m13.408 0a7.492 7.492 0 0 0-0.974 1.123c-0.15 0.208-0.289 0.422-0.424 0.638a7.214 7.214 0 0 0-0.791-0.742c0.687-0.437 1.417-0.812 2.189-1.019z m-6.887 0.17v2.593c-1.386 0.03-2.748 0.415-3.582 1.155-0.965 0.852-1.609 2.326-1.539 3.101 0.061 0.693 1.173 1.168 2.655 1.412a1.348 1.348 0 0 0-0.153 0.428 1.936 1.936 0 0 0 0.002 0.637 16.41 16.41 0 0 1-1.513-0.244 14.985 14.985 0 0 1-2.325-0.696 0.942 0.942 0 0 1-0.06-0.22S2.38 6.585 3.968 4.209c1.27-1.899 3.246-2.881 5.24-2.939z m0.366 0c1.96 0.055 3.904 1.006 5.183 2.853 1.655 2.391 1.336 5.311 1.336 5.311a0.832 0.832 0 0 1-0.053 0.213c-0.758 0.298-1.539 0.534-2.336 0.703-0.449 0.095-0.953 0.18-1.511 0.244a1.948 1.948 0 0 0 0.004-0.639 1.351 1.351 0 0 0-0.155-0.428c1.481-0.244 2.593-0.714 2.655-1.41 0.07-0.776-0.574-2.252-1.539-3.103-0.837-0.736-2.198-1.12-3.584-1.151z m-0.854 0.712a0.214 0.214 0 0 0-0.217 0.217c0 0.193 0.234 0.289 0.371 0.153 0.137-0.137 0.039-0.369-0.154-0.37z m1.342 0a0.218 0.218 0 0 0-0.217 0.217c0 0.193 0.233 0.289 0.369 0.153 0.137-0.137 0.041-0.369-0.152-0.37z m-1.342 0.955a0.218 0.218 0 0 0-0.217 0.217c0 0.193 0.234 0.291 0.371 0.155s0.039-0.371-0.154-0.371z m1.342 0a0.218 0.218 0 0 0-0.217 0.217c0 0.193 0.233 0.291 0.369 0.155 0.137-0.137 0.041-0.371-0.152-0.371z m-3.512 3.756c0.33 0.002 0.641 0.151 0.854 0.405 0.222 0.262 0.345 0.594 0.343 0.937a0.22 0.22 0 0 1-0.22 0.219 0.22 0.22 0 0 1-0.221-0.219 0.986 0.986 0 0 0-0.23-0.648 0.71 0.71 0 0 0-0.53-0.254 0.664 0.664 0 0 0-0.379 0.119 0.843 0.843 0 0 0-0.287 0.346 0.217 0.217 0 0 1-0.289 0.103c-0.109-0.051-0.157-0.18-0.105-0.289a1.335 1.335 0 0 1 0.437-0.523 1.104 1.104 0 0 1 0.627-0.196z m5.686 0c0.224 0 0.441 0.068 0.625 0.196 0.188 0.133 0.34 0.314 0.437 0.523a0.218 0.218 0 0 1-0.105 0.289 0.22 0.22 0 0 1-0.291-0.103 0.843 0.843 0 0 0-0.287-0.346 0.664 0.664 0 0 0-0.379-0.119 0.705 0.705 0 0 0-0.53 0.254 0.986 0.986 0 0 0-0.23 0.648 0.22 0.22 0 0 1-0.221 0.215 0.22 0.22 0 0 1-0.22-0.215 1.427 1.427 0 0 1 0.345-0.937 1.128 1.128 0 0 1 0.856-0.405zM9.386 8.893h0.01c0.974-0.009 2.161 0.436 2.277 1.15 0.113 0.684-0.264 1.148-0.847 1.414-0.864 0.321-1.168-0.098-1.303-0.363-0.064-0.128-0.091-0.194-0.125-0.197h-0.008c-0.027 0.012-0.063 0.072-0.133 0.191-0.137 0.241-0.421 0.603-1.019 0.48-0.736-0.238-1.264-0.734-1.133-1.525 0.119-0.715 1.307-1.16 2.281-1.15z m0.004 0.332c-0.591 0-1.305 0.173-1.375 0.539-0.116 0.608 0.785 0.9 1.381 0.899 0.595-0.002 1.487-0.294 1.371-0.899-0.07-0.366-0.786-0.539-1.377-0.539z m-6.383 0.91a14.973 14.973 0 0 0 1.996 0.572 16.386 16.386 0 0 0 1.707 0.268 0.842 0.842 0 0 0 0.084 0.152c0.269 0.461 0.729 0.752 1.243 0.926-0.272 0.113-0.482 0.291-0.532 0.572a0.65 0.65 0 0 0 0.034 0.332c0 0.003 0.004 0.009 0.003 0.012a9.469 9.469 0 0 1-1.181-0.317c-1.212-0.418-2.224-1.087-3.028-2.07a5.198 5.198 0 0 1-0.326-0.447z m12.764 0.004c-0.079 0.107-0.161 0.218-0.25 0.318-0.455 0.547-0.94 1.052-1.535 1.44-0.825 0.537-1.754 0.872-2.74 1.07a0.647 0.647 0 0 0 0.033-0.358c-0.052-0.272-0.256-0.446-0.522-0.558 0.513-0.174 0.972-0.468 1.24-0.926a2.306 2.306 0 0 0 0.077-0.15 16.517 16.517 0 0 0 1.707-0.268 15.187 15.187 0 0 0 1.99-0.568z m-6.348 2.226c0.751 0.002 1.491 0.145 1.338 0.442-0.07 0.137-0.255 0.241-0.48 0.314-0.293 0.037-0.591 0.062-0.891 0.08a17.087 17.087 0 0 1-0.887-0.08c-0.241-0.079-0.432-0.194-0.49-0.344-0.104-0.273 0.659-0.414 1.41-0.412z m9.653 0.51c0.467 0.012 0.953 0.177 1.392 0.445-0.455 0.131-0.827 0.501-1.025 0.953a1.827 1.827 0 0 0-0.131 0.446 1.899 1.899 0 0 0-0.785-0.223 0.252 0.252 0 0 0-0.037-0.076c-0.266-0.36-0.303-1.033 0.006-1.381a0.723 0.723 0 0 1 0.07-0.066 1.64 1.64 0 0 1 0.103-0.08 2.602 2.602 0 0 1 0.407-0.018z m-1.121 0.17a1.656 1.656 0 0 0-0.133 0.707c0.004 0.273 0.071 0.54 0.197 0.781a2.246 2.246 0 0 0-0.689 0.276 0.169 0.169 0 0 0-0.055-0.036c-0.171-0.073-0.317-0.24-0.412-0.402-0.104-0.18-0.229-0.522-0.098-0.715 0-0.003 0.002-0.003 0.002-0.006 0.143-0.098 0.288-0.19 0.432-0.269a4.41 4.41 0 0 1 0.756-0.336z m-11.995 0.203c0.186 0.067 0.372 0.131 0.565 0.186a6.08 6.08 0 0 0 3.246 0.716 5.974 5.974 0 0 0 1.441-0.271 5.761 5.761 0 0 0 1.055-0.445 9.36 9.36 0 0 0 0.564-0.186 3.743 3.743 0 0 1-1.982 1.371c0.718-0.092 1.462-0.276 2.049-0.621 0.327 0.794 0.511 1.869 0.34 3.295-0.043 0.342-0.096 0.666-0.16 0.975-0.733-0.409-1.745-0.082-2.512 0.357-0.098-1.414-0.403-2.455-0.531-2.84-0.116-0.354-0.536-0.283-0.545 0.037 0.058 0.156 0.095 0.36 0.129 0.522 0.055 0.284 0.1 0.574 0.142 0.861 0.07 0.479 0.144 0.986 0.178 1.469 0.006 0.107 0.013 0.217 0.016 0.324a5.516 5.516 0 0 1-1.383 0.008c0.003-0.11 0.007-0.218 0.013-0.328 0.015-0.196 0.04-0.396 0.065-0.588 0.037-0.302 0.08-0.601 0.123-0.901 0.046-0.302 0.09-0.607 0.148-0.906 0.021-0.113 0.05-0.269 0.084-0.4 0.006-0.324-0.181-0.33-0.291-0.32-0.104 0.009-0.18 0.093-0.238 0.267-0.134 0.412-0.414 1.421-0.512 2.762-0.849-0.565-1.534-0.742-2.511-0.299-0.067-0.315-0.121-0.649-0.164-1-0.183-1.542 0.046-2.672 0.421-3.484 0.58 0.403 1.33 0.633 2.073 0.757a3.74 3.74 0 0 1-1.823-1.318z m14.899 0.483a0.367 0.367 0 0 1 0.26 0.097c0.003 0 0.007 0.003 0.009 0.006 0.489 0.476 0.84 1.08 0.905 1.688 0.07 0.699-1.064 1.247-1.575 0.761-0.29-0.275-0.268-0.807-0.732-1.261a0.182 0.182 0 0 0 0.02-0.081c0.021-0.593 0.496-1.238 1.113-1.211z m-4.592 0.314a1.602 1.602 0 0 0 0.197 0.555 1.481 1.481 0 0 0 0.459 0.504 5.146 5.146 0 0 0-0.144 0.13c-0.153 0.15-0.299 0.312-0.44 0.477a0.259 0.259 0 0 0-0.109-0.022c-0.177 0.009-0.354-0.073-0.488-0.179-0.144-0.113-0.351-0.358-0.336-0.569a7.122 7.122 0 0 1 0.861-0.896z m-1.203 1.35c0.098 0.185 0.235 0.348 0.4 0.476 0.16 0.128 0.348 0.215 0.549 0.256a9.535 9.535 0 0 0-0.849 1.381 2.356 2.356 0 0 0-0.61-0.735 2.106 2.106 0 0 0-0.224-0.154 9.92 9.92 0 0 1 0.734-1.224zM13.89 17.012c0.593 0.275 0.966 0.901 1.049 1.603-0.479 0.141-1.004 0.392-1.447 0.612 0.165-0.611 0.286-1.232 0.363-1.86a6.107 6.107 0 0 0 0.035-0.355z m-9.262 0.014c0.009 0.116 0.021 0.231 0.033 0.343 0.077 0.628 0.198 1.251 0.364 1.862-0.437-0.217-0.949-0.462-1.422-0.606 0.079-0.696 0.442-1.319 1.025-1.599z m1.897 1.666c0.52 0.021 1.032 0.287 1.414 0.621 0.021 1.472 0.331 2.855 0.529 3.127 0.202 0.269 0.094 0.754 0.094 0.754s-2.602 0.067-2.856 0c-0.254-0.067-0.555-0.815-0.136-1.248 0.195-0.202 0.475-0.251 0.722-0.248 0.507 0.11 0.837 0.423 1.182 0.863-0.073-0.754-0.496-0.952-0.799-1.135-0.098-0.058-0.136-0.086-0.187-0.184a10.839 10.839 0 0 1-0.883-2.285c0.292-0.203 0.608-0.278 0.92-0.265z m5.468 0c0.312-0.012 0.628 0.063 0.92 0.265a11.035 11.035 0 0 1-0.879 2.286c-0.055 0.098-0.093 0.126-0.187 0.183-0.302 0.183-0.726 0.38-0.799 1.135 0.345-0.44 0.675-0.753 1.182-0.863 0.247-0.003 0.53 0.046 0.722 0.248 0.418 0.434 0.117 1.181-0.136 1.248-0.254 0.067-2.856 0-2.856 0s-0.106-0.485 0.096-0.754c0.199-0.272 0.51-1.655 0.531-3.127 0.378-0.334 0.886-0.6 1.406-0.621z m-8.66 0.388c0.464 0.122 1.232 0.477 1.901 0.828 0.107 0.315 0.226 0.622 0.357 0.924 0.045 0.102 0.092 0.206 0.141 0.307a1.413 1.413 0 0 0-0.621 0.369 1.383 1.383 0 0 0-0.379 0.906H2.33c-0.241-0.202 0.028-2.03 2.394-0.955-0.522-0.415-1.412-0.971-1.391-2.379z m11.85 0c0.021 1.408-0.868 1.964-1.387 2.379 2.364-1.075 2.635 0.753 2.391 0.955h-2.445a1.324 1.324 0 0 0-1.018-1.246 9.362 9.362 0 0 0 0.477-1.215c0.69-0.369 1.503-0.748 1.982-0.873z m-5.186 0.412a9.757 9.757 0 0 1-0.179 1.739c-0.04 0.202-0.14 0.689-0.244 0.869a1.444 1.444 0 0 0-0.079 0.129c-0.149 0.002-0.269 0.001-0.42 0.002a1.675 1.675 0 0 0-0.095-0.158 1.849 1.849 0 0 1-0.098-0.276 7.231 7.231 0 0 1-0.178-0.793 10.22 10.22 0 0 1-0.138-1.5 4.89 4.89 0 0 0 1.431-0.012Z"/></svg>