<svg fill="#FF00FF" role="img" viewBox="0 0 24 24" xmlns="http://www.w3.org/2000/svg"><title>TELE 5</title><path d="M0.007 0v5.027H3.831V0h-0.685v4.18H2.231V0.074h-0.677V4.18h-0.87V0H0.008z m5.623 0.004v14.154h8.658V7.254h8.791V0.004H5.629zM3.146 6.076v3.9H0.006v0.85H3.831v-4.75h-0.685zM23.001 9.926L5.39 18.502c2.371 4.857 8.236 6.874 13.1 4.506v0.002C23.353 20.64 25.373 14.783 23.001 9.926zM0.007 12.129v5.027H3.831V12.13h-0.685v4.18H2.231v-4.106h-0.677v4.106h-0.87v-4.18H0.008z m0 6.07v5.791h0.687v-2.47H3.831v-0.848H0.694v-2.473H0.007z"/></svg>