<svg fill="#1343FB" role="img" viewBox="0 0 45 24" xmlns="http://www.w3.org/2000/svg"><title>T&#233;l&#233;-Qu&#233;bec</title><path d="M18.87 0.002c-2.061 0.015-3.712 0.093-4.952 0.155L8.479 7.157A78.973 78.973 0 0 1 0.718 4.52c1.199 1.24 3.6 2.6 6.801 3.84l-0.802 1C4.24 8.558 1.999 7.758 0.117 6.958c1.082 1.119 3.081 2.359 5.721 3.519l-2.6 3.32c3.201 0.601 8.36 2.041 14.12 4.203 4.443 1.72 8.043 3.439 10.762 4.92l1.841 1.08 4.719-7.08c4.682 0.159 8.162-0.321 9.522-1.401-2.32 0.119-5.161 0.039-8.44-0.243l0.88-1.318c4.04 0 7.041-0.56 8.241-1.599-2 0.119-4.439 0.119-7.163-0.041l6.043-9.04c-2.522-0.56-6.761-1.681-11.762-2.442l-5.72-0.599a96.372 96.372 0 0 0-7.411-0.235z m0.746 2.315c1.593-0.009 3.503 0.019 5.745 0.16l4.439 0.441c3.88 0.56 7.162 1.399 9.121 1.799L33.882 11.999c-3.48-0.319-7.282-0.879-11.322-1.6a139.697 139.697 0 0 1-11.242-2.481l4.439-5.519c0.981-0.019 2.262-0.069 3.858-0.08z m5.074 0.998c-0.92 0.007-1.921 0.416-2.731 1.203-1.44 1.362-1.679 3.439-0.559 4.56 1.119 1.119 3.16 0.92 4.599-0.481 1.442-1.36 1.681-3.439 0.56-4.56a2.57 2.57 0 0 0-1.869-0.722z m-14.53 6.043c3.639 1.24 8.002 2.359 12.679 3.24 3.522 0.64 6.801 1.041 9.761 1.24l-0.718 1.039a140.745 140.745 0 0 1-10.042-1.639 153.014 153.014 0 0 1-12.402-3Zm-1.802 2.16c3.842 1.481 8.6 2.841 13.761 3.842a81.752 81.752 0 0 0 8.523 1.278l-2.362 3.441-1.52-0.72c-2.08-1.119-4.879-2.401-8.319-3.682-4.441-1.598-8.442-2.678-10.922-3.118Z"/></svg>