<svg fill="#000000" role="img" viewBox="0 0 29 24" xmlns="http://www.w3.org/2000/svg"><title>Termius</title><path d="M21.3 20.635A7.247 7.247 0 0 0 28.54 13.395c0-1.989-0.846-3.922-2.291-5.282a7.032 7.032 0 0 0-7.026-6.968 6.997 6.997 0 0 0-3.195 0.768 7.002 7.002 0 0 0-4.82-1.913 7.033 7.033 0 0 0-7.02 6.719A7.282 7.282 0 0 0 0.46 13.072a7.283 7.283 0 0 0 7.846 7.254 7.518 7.518 0 0 0 6.444 3.674 7.482 7.482 0 0 0 6.256-3.371c0.098 0.004 0.195 0.006 0.293 0.006z m-6.55 1.453A5.607 5.607 0 0 1 9.703 18.888l-0.312-0.657-0.718 0.126a5.373 5.373 0 0 1-6.302-5.284A5.37 5.37 0 0 1 5.538 8.178l0.592-0.267-0.031-0.649a5.121 5.121 0 0 1 5.11-5.351c1.517 0 2.939 0.662 3.916 1.825l0.55 0.655 0.712-0.476a5.088 5.088 0 0 1 2.837-0.859 5.122 5.122 0 0 1 5.106 5.419l-0.029 0.487 0.377 0.31a5.396 5.396 0 0 1 1.952 4.123 5.336 5.336 0 0 1-6.013 5.286l-0.648-0.083-0.313 0.573a5.574 5.574 0 0 1-4.904 2.917z m3.63-7.643l0.018-0.008c0.248-0.106 0.337-0.2 0.337-0.46v-0.326c0-0.285-0.164-0.469-0.433-0.469h-0.015l-0.054 0.012a5.305 5.305 0 0 1-1.757 0.318c-0.562 0-1.116-0.105-1.648-0.316l-0.016-0.006-0.06-0.008c-0.269 0-0.433 0.184-0.433 0.469v0.326c0 0.245 0.091 0.355 0.305 0.447l0.023 0.01 0.024 0.01a4.575 4.575 0 0 0 1.806 0.374c0.614 0 1.253-0.125 1.903-0.373z m-8.285-2.674c0-0.262 0.136-0.407 0.318-0.444l1.756-0.461-1.76-0.462c-0.183-0.048-0.314-0.192-0.314-0.445v-0.553c0-0.242 0.145-0.346 0.311-0.347 0.054 0 0.11 0.012 0.165 0.033l3.136 1.014c0.238 0.08 0.369 0.27 0.368 0.533v0.453c0 0.262-0.131 0.454-0.369 0.533l-3.142 1.016a0.511 0.511 0 0 1-0.146 0.023c-0.197 0-0.323-0.14-0.323-0.348v-0.545z"/></svg>