<svg fill="#00539F" role="img" viewBox="0 0 90 24" xmlns="http://www.w3.org/2000/svg"><title>Tesco</title><path d="M43.582 0c-3.808 0-7.527 1.152-7.527 4.961 0 6.553 11.513 3.098 11.513 7.083 0 1.328-2.037 1.861-3.631 1.861-2.922 0-5.048-0.444-7.616-1.949v3.277c1.948 0.62 4.518 0.973 7.44 0.974 3.985 0 7.705-1.062 7.704-4.871 0-6.907-11.514-3.808-11.513-7.174 0-1.328 1.86-1.859 3.454-1.859 2.745 0 5.668 0.797 7.262 2.303v-3.543h-0.177c-2.037-0.62-4.872-1.063-6.908-1.063z m36.4 0c-6.022 0.089-10.185 3.454-10.185 8.325 0 4.693 3.809 7.882 9.388 7.882 5.933 0 10.096-3.364 10.096-8.236 0-4.782-3.72-7.971-9.299-7.971z m-16.119 0.09c-6.907 0-11.424 3.275-11.424 8.323 0 4.605 4.163 7.705 10.451 7.705 2.037 0 3.807-0.266 5.932-0.796V11.424c-1.506 1.594-3.276 2.214-5.224 2.214-3.719 0-6.2-2.301-6.2-5.667 0-3.277 2.658-5.668 6.288-5.668 2.037 0 3.631 0.708 4.871 1.947v-3.719c-1.328-0.354-3.011-0.442-4.694-0.442zM0.72 0.531v3.72c1.328-0.974 3.986-1.416 6.908-1.417v10.096c0 1.506-0.089 1.859-0.797 2.657h5.845c-0.62-0.797-0.797-1.239-0.797-2.657V2.746h0.177c2.569 0 5.579 0.442 6.907 1.505v-3.72z m19.838 0c0.62 0.797 0.708 1.241 0.708 2.658v9.741c0 1.506-0.089 1.948-0.708 2.657h14.082v-3.632c-1.948 1.417-5.58 1.419-7.086 1.33h-2.038v-4.162h1.507c1.063 0 2.833 0.088 3.896 0.442v-3.1c-1.063 0.354-2.922 0.443-3.896 0.444h-1.506V2.923h2.037c1.86 0 5.047 0.355 6.199 1.417V0.531z m58.892 1.86c3.1 0 5.137 2.569 5.138 5.757 0.088 3.1-1.949 5.667-5.049 5.667-3.188 0-5.225-2.567-5.225-5.667 0-3.188 2.036-5.757 5.136-5.757z m-72.441 17.536c-1.86 0-3.277 0.973-3.986 1.682 0 0-1.683 1.683-2.834 2.303-0.089 0-0.089 0.088 0 0.088h10.451c2.037 0 3.011-0.709 4.25-1.771 0 0 1.771-1.682 3.1-2.213 0.088 0 0.088-0.088 0-0.089z m17.976 0c-1.86 0-3.276 0.973-3.896 1.682 0 0-1.683 1.683-2.834 2.303-0.088 0-0.088 0.088 0 0.088H28.705c2.037 0 3.011-0.709 4.251-1.771 0 0 1.771-1.682 3.011-2.213 0.089 0 0.089-0.088 0-0.089z m17.89 0c-1.771 0-3.187 0.973-3.897 1.682 0 0-1.683 1.683-2.834 2.303-0.089 0-0.089 0.088 0 0.088h10.45c2.037 0 3.013-0.709 4.252-1.771 0 0 1.771-1.682 3.011-2.213 0.089 0 0.089-0.088 0-0.089z m17.977 0c-1.771 0-3.187 0.973-3.895 1.682 0 0-1.683 1.683-2.835 2.303-0.089 0-0.089 0.088 0 0.088h10.45c2.037 0 3.011-0.709 4.251-1.771 0 0 1.771-1.682 3.01-2.213 0.089 0 0.089-0.088 0-0.089z m17.979 0c-1.771 0-3.187 0.973-3.985 1.682 0 0-1.683 1.683-2.834 2.303-0.089 0-0.089 0.088 0 0.088h10.538c2.037 0 3.011-0.709 4.25-1.771 0 0 1.771-1.682 3.011-2.213 0.089 0 0.089-0.088 0-0.089z"/></svg>