<svg fill="#65C179" role="img" viewBox="0 0 16 24" xmlns="http://www.w3.org/2000/svg"><title>TestRail</title><path d="M3.27 23.896L0.5 21.124a0.352 0.352 0 0 1 0-0.5l2.772-2.77a0.352 0.352 0 0 1 0.5 0l2.772 2.772a0.352 0.352 0 0 1 0 0.5l-2.772 2.77a0.352 0.352 0 0 1-0.5 0H3.27z m4.48-4.48l-2.772-2.772a0.352 0.352 0 0 1 0-0.498l2.772-2.772a0.352 0.352 0 0 1 0.5 0l2.77 2.772a0.352 0.352 0 0 1 0 0.5l-2.77 2.77a0.352 0.352 0 0 1-0.499 0z m4.48-4.48l-2.77-2.772a0.352 0.352 0 0 1 0-0.498l2.771-2.772a0.352 0.352 0 0 1 0.5 0l2.77 2.772a0.352 0.352 0 0 1 0 0.498l-2.772 2.772a0.352 0.352 0 0 1-0.5 0h0.002z m-8.876 0.084l-2.772-2.77a0.352 0.352 0 0 1 0-0.499l2.772-2.773a0.352 0.352 0 0 1 0.5 0l2.772 2.772a0.352 0.352 0 0 1 0 0.498l-2.772 2.774a0.352 0.352 0 0 1-0.5 0v-0.002z m4.48-4.48L5.062 7.77a0.352 0.352 0 0 1 0-0.5l2.772-2.772a0.352 0.352 0 0 1 0.5 0l2.77 2.772a0.352 0.352 0 0 1 0 0.498l-2.77 2.772a0.352 0.352 0 0 1-0.499 0v-0.002 0.001zM3.44 6.15L0.666 3.37a0.352 0.352 0 0 1 0-0.5L3.44 0.104a0.352 0.352 0 0 1 0.5 0l2.772 2.772a0.352 0.352 0 0 1 0 0.5L3.938 6.142a0.352 0.352 0 0 1-0.5 0l0.002 0.006v0.001z"/></svg>