<svg fill="#007DD7" role="img" viewBox="0 0 92 24" xmlns="http://www.w3.org/2000/svg"><title>Testin</title><path d="M19.611 4.11H12.072v19.871H7.962V4.11H0.423V0h19.188v4.11z m13.138 6.608c1.569 2.993 1.238 6.442 1.238 6.442H20.591c0.509 1.485 1.751 2.727 4.489 2.727h8.25v4.113H25.08c-3.904 0-6.028-1.713-7.117-3.149-1.155-1.515-1.789-3.555-1.789-5.746 0-4.425 3.061-8.906 8.906-8.907 3.407-0.004 6.138 1.599 7.669 4.52z m-3.4 2.503c-0.577-1.329-1.781-2.913-4.269-2.913-2.811 0-3.973 1.561-4.455 2.913h8.724z m18.88-0.19H41.784a1.307 1.307 0 0 1-1.306-1.306 1.519 1.519 0 0 1 0.448-1.06 1.223 1.223 0 0 1 0.851-0.376h9.381v-4.11h-9.268c-1.629 0-2.849 0.558-3.866 1.577a5.644 5.644 0 0 0-1.656 3.969c0 2.989 2.431 5.42 5.42 5.419h6.445c0.805 0 1.458 0.646 1.459 1.436 0 0.722-0.596 1.307-1.33 1.307H37.337v4.113h11.022c3 0 5.443-2.431 5.442-5.416 0-3.061-2.499-5.553-5.572-5.553z m14.581-13.016h-4.113v6.168h-4.786v4.114h4.786v5.822c0 4.125 4.246 7.881 8.906 7.881v-4.113c-2.583 0-4.797-2.074-4.797-3.768v-5.822h4.805v-4.114h-4.805V0.015z m7.524 23.966h4.114v-17.817h-4.114v17.817z m2.059-23.97a2.051 2.051 0 1 0 0 4.106 2.051 2.051 0 0 0 0-4.106z m11.819 6.142c-3.874 0-7.023 3.133-7.022 6.981v10.847h4.113v-10.847c0-1.584 1.307-2.868 2.913-2.868 1.671 0 3.255 1.394 3.255 2.868v10.847H91.577v-10.847c0-3.783-3.373-6.981-7.365-6.981z"/></svg>