<svg fill="#FFBC00" role="img" viewBox="0 0 76 24" xmlns="http://www.w3.org/2000/svg"><title>Thangs</title><path d="M63.696 17.975a5.975 5.975 0 1 1 0-11.95 5.975 5.975 0 0 1 0 11.95m0-17.975A12 12 0 0 0 51.696 12v12h12a12 12 0 1 0 0-24m-27.191 17.975A5.991 5.991 0 0 1 30.495 12c0-3.298 2.692-5.975 6.01-5.975s6.009 2.676 6.009 5.975c0 3.298-2.692 5.975-6.009 5.975m-24.135 0A5.991 5.991 0 0 1 6.36 12c0-3.298 2.692-5.975 6.01-5.975 3.32 0 6.009 2.676 6.009 5.975 0 3.298-2.689 5.975-6.009 5.975m36.169-6.619l-0.006-0.101a11.812 11.812 0 0 0-0.126-1.162l-0.012-0.059a11.601 11.601 0 0 0-0.255-1.172V8.859a12.05 12.05 0 0 0-11.635-8.859H12.367a12.041 12.041 0 0 0-11.919 10.222l-0.003 0.025c-0.057 0.371-0.094 0.741-0.113 1.122l-0.006 0.062v0.051C0.323 11.654 0.304 11.827 0.304 12c0 0.22 0.022 0.43 0.031 0.647l0.006 0.101c0.025 0.39 0.066 0.779 0.129 1.162l0.01 0.056a12.041 12.041 0 0 0 11.893 10.034h36.198V12c0-0.22-0.019-0.43-0.032-0.644"/></svg>