<svg fill="#00BCB4" role="img" viewBox="0 0 33 24" xmlns="http://www.w3.org/2000/svg"><title>The Algorithms</title><path d="M11.348 22.726H1.965l2.444-5.768h6.569L18.286 0H10.444l-5.769 13.406h3.531c0.246 0.41 0.698 0.696 1.211 0.696a1.42 1.42 0 0 0 1.417-1.415c0-0.781-0.638-1.397-1.417-1.397-0.575 0-1.047 0.328-1.272 0.822H6.462l4.782-10.84h5.133L10.197 15.664l-6.507 0.041L0.118 24h12.071L13.77 20.55h5.235l1.745 3.449H32.882L21.94 0.001Zm3.099-3.53l1.889-4.127 2.052 4.127z m7.123 3.674l-1.19-2.402h3.736c0.246 0.451 0.718 0.759 1.252 0.759a1.42 1.42 0 0 0 1.417-1.415 1.42 1.42 0 0 0-1.417-1.417c-0.573 0-1.068 0.349-1.293 0.842H19.804l-2.853-5.543 2.094-4.599 2.36 4.804h1.109c0.225 0.472 0.718 0.82 1.272 0.82a1.42 1.42 0 0 0 1.417-1.415 1.42 1.42 0 0 0-1.417-1.417c-0.595 0-1.109 0.37-1.313 0.903h-0.41l-2.444-4.969 2.32-5.089 9.115 20.138Z"/></svg>