<svg fill="#000000" role="img" viewBox="0 0 58 24" xmlns="http://www.w3.org/2000/svg"><title>The Boring Company</title><path d="M0.438 0.002v1.102h1.009v3.868h1.357V1.104h1.059v-1.102H0.438z m3.91 0v4.97h1.357v-2.004h1.766v2.004h1.357V0.002h-1.357v1.859h-1.766V0.005h-1.357z m5.444 0v4.97h2.854V3.766h-1.478v-0.703h1.418v-1.209h-1.418v-0.742h1.475v-1.112H9.792z m42.63 6.498c-3.118 0-5.284 2.147-5.284 5.277 0 3.132 2.218 5.263 5.256 5.263 3.623 0 5.477-2.778 5.127-5.931H52.398v2.111h2.064c-0.169 1.083-1.012 1.452-2.071 1.452-1.571 0-2.428-1.1-2.428-2.88-0.029-1.766 1.016-2.942 2.44-2.942 0.976 0 1.738 0.514 2.126 1.571l2.532-1.088c-0.821-1.807-2.442-2.832-4.641-2.833z m-37.791 0.029c-3.273 0-5.506 2.356-5.506 5.26 0 2.902 2.318 5.251 5.506 5.251 3.187 0 5.498-2.349 5.498-5.253 0-2.904-2.226-5.258-5.498-5.258z m-13.984 0.309v9.928h4.015c2.744 0 3.608-1.464 3.609-3.018 0-1.176-0.655-2.047-1.961-2.347 0.662-0.35 1.024-1.126 1.023-2.03 0-1.357-0.755-2.535-2.547-2.535H0.642z m20.984 0v9.928h2.673v-3.677l2.364 3.677h3.268v-0.111l-3.033-3.952c1.39-0.317 2.116-1.431 2.117-2.823 0-1.638-1.166-3.044-2.952-3.044H21.631z m9.305 0v9.928h2.63V6.836h-2.63z m4.596 0v9.928h2.678v-5.886l4.613 5.886h2.649V6.836h-2.649v5.867L38.21 6.836h-2.678z m-32.212 1.997h0.445c0.566 0 1.088 0.271 1.088 0.929 0 0.643-0.524 0.931-1.088 0.93h-0.445v-1.859z m20.984 0.05h0.731c0.631 0 1.24 0.514 1.24 1.143 0 0.633-0.478 1.145-1.24 1.145h-0.731v-2.285z m-20.984 3.754h0.595c0.985-0.005 1.65 0.328 1.65 1.002 0 0.645-0.5 0.981-1.221 0.99l-1.024 0.015v-2.007z m19.413 6.074c-1.561 0-2.625 1.185-2.625 2.647 0 1.459 1.104 2.64 2.625 2.64 0.445 0 0.852-0.1 1.209-0.278v-1.567h-0.088a1.285 1.285 0 0 1-1.047 0.51 1.285 1.285 0 0 1-1.304-1.305c0-0.724 0.528-1.312 1.304-1.311a1.285 1.285 0 0 1 1.057 0.516h0.078v-1.575a2.706 2.706 0 0 0-1.209-0.277z m4.566 0c-1.647 0-2.771 1.185-2.771 2.647 0 1.459 1.166 2.64 2.771 2.64 1.604 0 2.766-1.181 2.765-2.642 0-1.459-1.119-2.642-2.765-2.642z m4.082 0.108l-0.838 5.039h1.357l0.438-2.626 1.004 2.626h0.678l1.005-2.626 0.433 2.626h1.357l-0.836-5.039-1.34 0.009-0.957 2.499-0.959-2.499-1.342-0.009z m6.117 0v5.027h1.409v-1.619h0.771c1.2 0 1.707-0.755 1.707-1.69 0-0.924-0.5-1.719-1.957-1.718h-1.928z m5.608 0l-1.928 5.039h1.49l0.269-0.81h1.785l0.271 0.81h1.498l-1.928-5.039h-1.457z m3.794 0v5.027h1.352V20.903l2.309 2.945h1.335v-5.027h-1.338v2.961l-2.308-2.961h-1.35z m5.279 0l1.869 2.651v2.376h1.349v-2.354l1.881-2.673h-1.64l-0.905 1.366-0.907-1.366h-1.647z m-13.272 1.154h0.493c0.738 0 0.757 1.138-0.034 1.138h-0.459v-1.138z m-11.608 0.071c0.802 0 1.345 0.59 1.344 1.314a1.302 1.302 0 0 1-1.344 1.305 1.304 1.304 0 0 1-1.348-1.305c0-0.724 0.547-1.312 1.348-1.311z m16.53 0.472l0.503 1.433h-1l0.5-1.433z"/></svg>