<svg fill="#000000" role="img" viewBox="0 0 37 24" xmlns="http://www.w3.org/2000/svg"><title>The Irish Times</title><path d="M14.912 0V6.43h0.638c0.273-1.754 0.932-3.107 1.973-4.052 0.739-0.68 1.927-1.02 3.566-1.02h1.817V19.922c0 1.199-0.065 1.943-0.193 2.223-0.176 0.399-0.413 0.683-0.718 0.846-0.42 0.25-0.974 0.373-1.663 0.373h-0.786v0.633h12.535v-0.633h-0.784c-0.672 0-1.203-0.117-1.592-0.346-0.389-0.228-0.65-0.496-0.783-0.801-0.134-0.308-0.199-1.071-0.199-2.295V1.358h1.816c1.128 0 1.918 0.106 2.368 0.316 0.807 0.385 1.442 0.903 1.906 1.553 0.463 0.648 0.886 1.715 1.266 3.202H36.712V0zM12.035 23.364c-0.665 0-1.194-0.115-1.585-0.344-0.393-0.228-0.653-0.498-0.787-0.803-0.134-0.307-0.2-1.07-0.201-2.295V4.075c0-1.199 0.062-1.94 0.193-2.222 0.173-0.401 0.413-0.683 0.717-0.848 0.42-0.246 0.973-0.37 1.663-0.371h0.787v-0.634H0.288v0.634h0.791c0.669 0 1.199 0.115 1.594 0.345 0.392 0.228 0.653 0.499 0.781 0.804 0.129 0.304 0.196 1.07 0.196 2.292v15.85c0 1.199-0.067 1.941-0.194 2.223-0.165 0.399-0.401 0.683-0.703 0.846-0.425 0.249-0.982 0.372-1.674 0.372H0.288v0.634h12.536v-0.634h-0.789Z"/></svg>