<svg fill="#D0072A" role="img" viewBox="0 0 15 24" xmlns="http://www.w3.org/2000/svg"><title>The Mighty</title><path d="M14.678 0.001h-4.432L7.551 13.988 4.809 0.001H0.356c0.216 0.219 0.334 0.634 0.39 1.072v21.21c0 0.621-0.105 1.383-0.425 1.717 1.014-0.214 2.307-0.416 3.414-0.611V9.375l2.489 12.375c0.07 0.46 0.135 1.084-0.021 1.198 0.847-0.129 1.694-0.252 2.544-0.366-0.105-0.16-0.064-0.652-0.005-1.061L11.197 9.15v13.095c1.054-0.123 2.366-0.24 3.47-0.349l0.012-0.008c-0.324-0.328-0.43-1.1-0.43-1.724V1.726c0-0.627 0.105-1.396 0.43-1.726v0.001z"/></svg>