<svg fill="#01B4E4" role="img" viewBox="0 0 34 24" xmlns="http://www.w3.org/2000/svg"><title>The Movie Database</title><path d="M9.536 12a3.179 3.179 0 0 1 3.18-3.184h-0.018A3.179 3.179 0 0 1 15.875 12a3.179 3.179 0 0 1-3.177 3.179h0.018A3.179 3.179 0 0 1 9.536 12z m14.873-5.636h5.919a3.179 3.179 0 0 0 3.177-3.178 3.179 3.179 0 0 0-3.177-3.186H24.409a3.179 3.179 0 0 0-3.179 3.186 3.179 3.179 0 0 0 3.178 3.177zM4.08 23.994h11.495a3.179 3.179 0 0 0 3.179-3.18 3.179 3.179 0 0 0-3.177-3.184H4.079a3.179 3.179 0 0 0-3.179 3.184 3.179 3.179 0 0 0 3.178 3.18z m15.097-8.815h1.124l2.628-6.363H21.426l-1.601 4.173h-0.018l-1.575-4.173h-1.601z m5.838 0h1.403V8.816h-1.403z m3.993 0h4.489v-1.291h-3.084v-1.294h2.761v-1.296h-2.761v-1.186h2.923v-1.296h-4.318zM2.168 6.368h1.402V1.243h1.817v-1.242H0.351v1.242h1.817z m5.199 0h1.403V3.618h2.716v2.753h1.403v-6.368h-1.401v2.374H8.76V0H7.367z m7.42 0h4.498v-1.294H16.182v-1.296h2.761v-1.294h-2.761v-1.188h2.923v-1.296h-4.318zM0.576 15.186h1.394v-4.884h0.018l1.619 4.884h1.062l1.673-4.884h0.018v4.884h1.403v-6.369H5.651L4.173 12.971h-0.018L2.69 8.816H0.567z m20.165 8.814h2.277a4.423 4.423 0 0 0 1.359-0.207 3.512 3.512 0 0 0 1.143-0.606 2.946 2.946 0 0 0 0.787-0.989 3.043 3.043 0 0 0 0.31-1.364 3.328 3.328 0 0 0-0.303-1.485 2.717 2.717 0 0 0-0.813-0.993 3.337 3.337 0 0 0-1.211-0.544 6.034 6.034 0 0 0-1.451-0.18h-2.108z m1.405-5.073h0.827a3.136 3.136 0 0 1 0.841 0.111 2.101 2.101 0 0 1 0.698 0.339 1.619 1.619 0 0 1 0.472 0.572 1.776 1.776 0 0 1 0.18 0.814 2.145 2.145 0 0 1-0.18 0.913 1.564 1.564 0 0 1-0.482 0.601 1.956 1.956 0 0 1-0.719 0.33 3.881 3.881 0 0 1-0.9 0.097h-0.747z m6.502 5.073h2.608a4.158 4.158 0 0 0 0.851-0.089 2.407 2.407 0 0 0 0.768-0.297 1.694 1.694 0 0 0 0.558-0.541 1.533 1.533 0 0 0 0.215-0.841 1.648 1.648 0 0 0-0.098-0.575 1.401 1.401 0 0 0-0.283-0.472 1.508 1.508 0 0 0-0.44-0.333 1.8 1.8 0 0 0-0.573-0.181v-0.016a1.669 1.669 0 0 0 0.797-0.508 1.335 1.335 0 0 0 0.3-0.899 1.5 1.5 0 0 0-0.207-0.837 1.418 1.418 0 0 0-0.539-0.491 2.321 2.321 0 0 0-0.749-0.234 6.192 6.192 0 0 0-0.833-0.057h-2.375z m1.402-5.181h0.954a1.942 1.942 0 0 1 0.333 0.031 1.038 1.038 0 0 1 0.305 0.104 0.599 0.599 0 0 1 0.222 0.204 0.58 0.58 0 0 1 0.084 0.327 0.652 0.652 0 0 1-0.076 0.323 0.601 0.601 0 0 1-0.202 0.217 0.86 0.86 0 0 1-0.283 0.116 1.468 1.468 0 0 1-0.32 0.037h-1.033z m0 2.546h1.062a2.719 2.719 0 0 1 0.369 0.028 1.408 1.408 0 0 1 0.361 0.097 0.72 0.72 0 0 1 0.283 0.211 0.563 0.563 0 0 1 0.111 0.361 0.667 0.667 0 0 1-0.084 0.351 0.72 0.72 0 0 1-0.222 0.233 0.86 0.86 0 0 1-0.301 0.125 1.602 1.602 0 0 1-0.328 0.037H30.042z"/></svg>