<svg fill="#000000" role="img" viewBox="0 0 52 24" xmlns="http://www.w3.org/2000/svg"><title>The North Face</title><path d="M34.119 0v7.149h0.485a10.313 10.313 0 0 1 10.136 10.136v6.46H51.532v-6.664c0-9.421-7.66-17.081-17.081-17.081H34.298Zm-19.276 0.026v1.276h2.144V7.149h1.481V1.302h2.145v-1.276z m6.306 0V7.149h1.481v-3.192h2.783v3.192h1.481V0.026h-1.481v2.706h-2.783V0.026Zm6.383 0V7.149h5.106v-1.251h-3.727v-1.864h3.293v-1.251h-3.293V1.277h3.727v-1.251ZM10.349 8.043c-0.945 0-3.421 0.409-3.421 3.727s2.477 3.728 3.421 3.728c0.945 0 3.421-0.409 3.421-3.728S11.294 8.043 10.349 8.043zM0.468 8.247v7.098h1.379v-5.056H1.872l2.911 5.056h1.481v-7.098h-1.379v4.927h-0.025L2.026 8.247Zm13.915 0l0.026 7.098h1.455v-2.783h1.532c1.098 0 1.149 0.383 1.149 1.353 0 0.74 0.051 1.098 0.153 1.43h1.634v-0.179c-0.306-0.102-0.306-0.357-0.306-1.404 0-1.328-0.306-1.557-0.894-1.813 0.689-0.23 1.098-0.894 1.098-1.685 0-0.613-0.357-2.017-2.247-2.017z m6.204 0v1.251h2.17v5.847h1.481v-5.847h2.145v-1.251z m6.332 0v7.098h1.481v-3.192h2.757v3.192h1.481v-7.098h-1.481v2.681h-2.757v-2.681z m7.175 0v7.123h0.332c2.298 0 4.136 1.864 4.136 4.136v4.239h5.081v-6.358c-0.026-4.928-3.957-8.936-8.835-9.14h-0.536Zm-23.745 1.072c0.791 0 1.915 0.485 1.915 2.477 0 1.991-1.123 2.477-1.915 2.476s-1.94-0.485-1.94-2.476c0-1.991 1.149-2.477 1.94-2.477z m5.489 0.153h1.839c0.868 0 1.047 0.536 1.046 0.919 0 0.689-0.383 0.97-1.149 0.971h-1.736Zm7.839 6.817c-1.864 0-3.345 1.302-3.345 3.856 0 2.528 1.379 3.83 3.319 3.829 1.838 0 2.86-1.098 3.166-2.68h-1.532c-0.179 0.894-0.766 1.379-1.608 1.378-1.302 0-1.813-1.174-1.813-2.476 0-2.068 1.072-2.553 1.813-2.553 1.251 0 1.481 0.817 1.608 1.251v-0.026h1.532c-0.077-1.072-0.97-2.579-3.14-2.579z m-14.247 0.179v7.302h1.506v-3.064h3.217v-1.302H10.936v-1.634h3.677V16.468Zm6.868 0l-2.604 7.302h1.608l0.485-1.506h2.732l0.46 1.506h1.659L18.06 16.468Zm11.132 0v7.302h5.234v-1.302h-3.83v-1.889h3.396v-1.277h-3.396v-1.532h3.83V16.468Zm6.689 0.026v7.302h3.396v-4.239c0-1.685-1.379-3.064-3.064-3.063z m-16.979 1.634h0.026l0.894 2.885h-1.864Zm-10.468 1.94a1.972 1.972 0 0 0-1.991 1.966c0 1.123 0.919 1.966 1.991 1.966a1.951 1.951 0 0 0 1.966-1.966 1.951 1.951 0 0 0-1.966-1.966z m0 0.306c0.894 0 1.609 0.715 1.609 1.66 0 0.97-0.689 1.685-1.609 1.685s-1.634-0.74-1.634-1.685c0-0.945 0.715-1.66 1.634-1.66z m-0.766 0.511v2.323h0.358V22.213h0.383l0.638 0.995h0.383l-0.664-1.021c0.357-0.051 0.613-0.23 0.613-0.638 0-0.46-0.281-0.664-0.817-0.664z m0.358 0.281h0.485c0.255 0 0.511 0.051 0.511 0.357 0 0.357-0.306 0.383-0.613 0.383h-0.383z"/></svg>