<svg fill="#A9792B" role="img" viewBox="0 0 18 24" xmlns="http://www.w3.org/2000/svg"><title>The Odin Project</title><path d="M0.002 0l1.99 7.387L3.568 8.963v0.576l0.975 1.924c0.806-1.53 2.845-2.064 4.312-0.969l0.202 0.151 0.201-0.151c1.469-1.095 3.507-0.561 4.314 0.969l0.975-1.926v-0.689l1.461-1.461L17.998 0l-3.633 1.859v3.258c-0.655-0.395-2.982-1.691-5.308-1.691-2.494 0-4.987 1.489-5.422 1.762V1.859L0.002 0z m6.111 10.229c-0.18 0-0.326 0.144-0.326 0.322v0.998c0 0.267 0.219 0.484 0.49 0.484h0.561c0.304 0 0.594-0.12 0.808-0.332a1.115 1.115 0 0 0 0.336-0.797v-0.353c0-0.178-0.147-0.322-0.328-0.322h-1.541z m5.291 0.392c-0.285 0-0.518 0.228-0.517 0.51 0 0.281 0.233 0.51 0.517 0.51 0.286 0 0.518-0.229 0.518-0.51 0-0.282-0.232-0.51-0.518-0.51z m-7.836 0.024l-1.465 5.414 1.497 2.951 1.375-5.104 0.197-0.097-1.604-3.164z m10.979 0l-1.604 3.164 0.198 0.097 1.375 5.104 1.496-2.951-1.465-5.414z m-5.49 1.804l-1.828 0.903L5.58 22.195 9.057 24l3.476-1.805-1.646-8.843-1.83-0.903zM6.668 13.629l-1.27 0.625-1.654 6.137 1.469 1.049 1.455-7.811z m4.779 0l1.455 7.811 1.467-1.049-1.652-6.137-1.27-0.625z m-3.015 0.084h1.281v0.451a0.623 0.623 0 0 1-0.188 0.445 0.643 0.643 0 0 1-0.453 0.186 0.645 0.645 0 0 1-0.453-0.186 0.623 0.623 0 0 1-0.187-0.445v-0.451z"/></svg>