<svg fill="#FF0000" role="img" viewBox="0 0 30 24" xmlns="http://www.w3.org/2000/svg"><title>The Register</title><path d="M27.611 13.043a51.746 51.746 0 0 1-3.177 2.212c-1.086 0.691-2.047 1.188-2.893 1.484-0.845 0.298-1.419 0.241-1.718-0.161-0.28-0.507-0.294-1.25-0.035-2.221 0.255-0.975 0.618-1.98 1.087-3.023 0.463-0.951 0.865-1.922 1.204-2.907 0.337-0.985 0.501-1.985 0.486-2.989-0.015-1.005-0.324-2.004-0.922-3.005-0.527-0.815-1.314-1.428-2.359-1.834-1.05-0.41-2.217-0.613-3.507-0.598a11.609 11.609 0 0 0-3.829 0.705 8.318 8.318 0 0 0-2.712 1.705c-0.821 0.761-1.468 1.713-1.946 2.853-0.163 0.415-0.269 0.966-0.329 1.637a21.837 21.837 0 0 0-0.1 1.812c-0.005 0.54-0.01 0.825-0.004 0.849-0.527 0.362-1.125 0.806-1.802 1.333-0.676 0.523-1.343 1.156-1.995 1.888a18.759 18.759 0 0 0-1.747 2.4c-0.478 0.797-0.772 1.405-0.885 1.83-0.058 0.174-0.01 0.647 0.145 1.439 0.154 0.782 0.556 1.686 1.216 2.709 0.663 1.023 1.725 1.97 3.183 2.835 0.015 0.015 0.054-0.015 0.11-0.081a1.125 1.125 0 0 0 0.102-0.106 8.151 8.151 0 0 1-0.523-0.579c-0.317-0.367-0.626-0.85-0.921-1.429a3.503 3.503 0 0 1-0.377-1.849c0.058-0.89 0.623-1.702 1.696-2.44 1.076-0.742 2.911-1.39 5.51-1.936 0.737-0.189 1.376-0.468 1.922-0.86 0.545-0.382 0.834-0.598 0.858-0.647-0.203 2.071 0.17 3.965 1.096 5.659a14.726 14.726 0 0 0 3.086 3.863l12.049-12.015L29.596 11.513c-0.574 0.45-1.231 0.961-1.985 1.53zM11.884 6.36c-0.19 0.502-0.377 1.005-0.567 1.512-0.182 0.507-0.285 0.792-0.299 0.859 0.034 0.058 0.154 0.198 0.343 0.41 0.198 0.208 0.309 0.348 0.343 0.416 0.015 0.122-0.054 0.41-0.207 0.86-0.151 0.45-0.455 0.787-0.899 1.02-0.584 0.219-1.13 0.26-1.637 0.125-0.507-0.125-0.912-0.294-1.226-0.502-0.309-0.213-0.472-0.324-0.482-0.348l4.904-5.34 0.02 0.173c-0.01 0.043-0.106 0.314-0.295 0.815z"/></svg>