<svg fill="#231F20" role="img" viewBox="0 0 29 24" xmlns="http://www.w3.org/2000/svg"><title>The Washington Post</title><path d="M28.662 15.972V6.007l-2.582-2.358-2.863 3.032V4.518h-0.422v2.639l-0.673 0.702V5.614L19.988 3.649l-2.554 2.611 0.308 0.308 0.645-0.646 0.815 0.731v2.47h-0.141c-1.234 0-1.993 0.843-1.993 1.993 0 0.59 0.085 0.87 0.169 1.067h0.281a1.219 1.219 0 0 1 1.207-0.983h0.477v4.463c-1.487 0.505-2.358 1.796-2.526 3.564l0.196 0.114c0.673-0.814 1.544-1.319 2.33-1.516v6.148l0.056 0.027 2.668-2.442 1.262 1.18 0.056-0.029v-4.772c0.562 0.168 1.067 0.561 1.431 1.067z m-2.863 0.618c-0.674-0.673-1.487-1.039-2.555-1.179V7.102l1.207-1.292 1.348 1.236z m-3.004 5.192l-0.673-0.617V8.253l0.672-0.674z m-6.821-7.101V6.146L13.391 3.621 10.723 6.4 7.89 3.621 5.194 6.456v-0.927c0-2.385-1.487-1.992-1.487-3.537 0-0.982 0.617-1.46 1.375-1.824l-0.169-0.168C2.612 0.814 1.376 2.02 1.376 3.34c0 1.18 0.898 1.236 0.899 2.61v3.509C0.59 9.459 0.338 11.032 0.338 11.649c0 0.365 0.057 0.701 0.112 0.87h0.224c0.085-0.477 0.366-0.814 0.956-0.814h0.645v4.492l3.312 2.863 2.443-2.75 3.199 2.75z m-2.891 2.218l-2.275-1.938V6.961l0.984-0.982 1.291 1.291z m-5.221-1.067l-0.703 0.814-1.965-1.685V7.046l1.067-1.096L7.862 7.551Z"/></svg>