<svg fill="#EE2624" role="img" viewBox="0 0 69 24" xmlns="http://www.w3.org/2000/svg"><title>ThinkPad</title><path d="M20.302 0.328a1.923 1.923 0 0 0-0.301 2.983 1.986 1.986 0 0 0 3.028-0.293 1.918 1.918 0 0 0 0.332-1.077l0.003-0.002a1.92 1.92 0 0 0-0.577-1.373 1.991 1.991 0 0 0-2.485-0.238z m29.086 1.145a3.602 3.602 0 0 0-2.502-0.972h-4.165v23.28h3.261v-10.11h0.904c1.918 0 3.608-1.932 3.608-3.798l-0.003-5.983a3.471 3.471 0 0 0-1.103-2.417z m-1.857 8.67c0 0.949-0.804 0.949-1.543 0.949V3.109h0.449c0.855 0 1.091 0.562 1.091 2.017v5.017z m11.823 13.63l0.003-0.003h-0.003z m-3.932-18.937c-2.409 0-3.909 1.156-3.909 3.134v3.644h3.063v-2.653c0.026-0.821-0.065-2.011 0.88-2.011 0.872 0 0.727 1.437 0.728 2.056 0 4.656-4.687 2.906-4.688 6.557v6.269c0 1.415 0.702 2.168 2.145 2.168 1.185 0 1.744-0.401 2.44-1.511h0.194a2.781 2.781 0 0 0 0.184 1.281h2.898v-15.792c-0.003-1.929-1.523-3.142-3.935-3.142z m0.864 15.798a0.895 0.895 0 0 1-0.901 0.832 0.847 0.847 0 0 1-0.304-0.031 0.815 0.815 0 0 1-0.46-0.381 0.73 0.73 0 0 1-0.085-0.287v-4.866c0.009-0.932 0.815-1.469 1.741-1.969h0.009v6.702z m9.284-20.195v5.792h-0.077a2.994 2.994 0 0 0-2.392-1.429c-1.216 0-2.298 0.702-2.298 2.051v14.923c-0.037 1.565 1.054 2.221 2.298 2.221 0.915-0.108 1.739-0.602 2.267-1.355h0.202v1.125H68.589V0.439h-3.019z m-0.003 19.862c-0.037 1-0.437 1.168-0.926 1.168-0.449 0-0.824-0.29-0.824-1.168v-11.84c0-0.736 0.276-1.091 0.824-1.091 0.449 0 0.889 0.111 0.926 1.111v11.82zM0.411 3.339h3.096v20.366h3.344V3.339h3.062V0.41H0.411z m15.635 1.472a2.386 2.386 0 0 0-2.269 1.349h-0.131V0.368H10.649v23.362h3.022v-15.306c0-0.494 0.131-1.077 0.901-1.077 0.696 0 0.847 0.469 0.847 1.105v15.281H18.45v-15.914c0-1.969-0.33-3.008-2.404-3.008z m3.841 0.235h3.011v18.701h-3.011z m9.795-0.196a2.508 2.508 0 0 0-2.27 1.321h-0.125v-1.105H24.285v18.695h2.994v-15.152c0-0.526 0.04-1.222 0.971-1.222 0.696 0 0.801 0.625 0.801 1.222v15.158h3.034v-15.613c0.003-1.969 0.028-3.304-2.403-3.304z m11.911 0.225H38.562l-1.735 8.616h-0.287V0.433h-3.026v23.337h3.026v-9.875h0.287l1.767 9.875h3.099l-1.921-10.238z"/></svg>