<svg fill="#248BFB" role="img" viewBox="0 0 25 24" xmlns="http://www.w3.org/2000/svg"><title>Thingiverse</title><path d="M12.455 0.004C5.925-0.153 0.409 5.484 0.507 11.804c-0.235 6.756 5.537 12.25 12.052 12.196C19.121 23.899 24.412 18.594 24.5 12.029 24.531 5.482 19.005-0.181 12.455 0.004z m-0.047 1.701a10.276 10.276 0 0 1 7.36 17.529 10.275 10.275 0 0 1-17.556-7.287C2.21 6.307 6.768 1.727 12.407 1.705z m-5.55 4.781c-0.322 0-0.358 0.033-0.358 0.361v2.248c0 0.351 0.04 0.391 0.398 0.391h3.823c0.274 0 0.274 0.004 0.274 0.265v9.736a0.176 0.176 0 0 0 0.051 0.146c0.04 0.038 0.093 0.059 0.148 0.053h2.555c0.247-0.003 0.283-0.035 0.283-0.28v-9.32c0-0.124 0.004-0.239 0-0.39s0.055-0.21 0.218-0.21h3.9c0.319 0.004 0.35-0.032 0.35-0.344V6.854c0-0.34-0.024-0.363-0.37-0.363h-5.626z"/></svg>