<svg fill="#F213A4" role="img" viewBox="0 0 40 24" xmlns="http://www.w3.org/2000/svg"><title>thirdweb</title><path d="M39.763 14.624c-0.192 0.647-0.479 1.258-0.723 1.883a1433.69 1433.69 0 0 1-2.13 5.325c-0.164 0.406-0.33 0.812-0.489 1.22a1.501 1.501 0 0 1-1.397 0.943 1.502 1.502 0 0 1-1.39-0.951c-3.194-7.993-5.253-13.127-8.401-21.001a1.484 1.484 0 0 1 0.053-1.251 1.479 1.479 0 0 1 0.992-0.763c0.029-0.007 0.056-0.016 0.086-0.024h6.993c0.022 0.007 0.043 0.015 0.065 0.02a1.492 1.492 0 0 1 1.09 0.934c0.407 1.023 0.815 2.043 1.223 3.06a13686.898 13686.898 0 0 1 3.203 8.012c0.28 0.704 0.592 1.395 0.822 2.119z m-31.295-14.624c0.079 0.022 0.159 0.041 0.236 0.068a1.417 1.417 0 0 1 0.895 0.834 1499.769 1499.769 0 0 1 2.067 5.159c1.036 2.586 2.067 5.173 3.106 7.757a1.484 1.484 0 0 1 0 1.151c-1.083 2.703-2.169 5.404-3.254 8.106a1.481 1.481 0 0 1-0.541 0.67c-0.507 0.344-1.187 0.339-1.693-0.006a1.509 1.509 0 0 1-0.564-0.715c-0.649-1.646-1.311-3.288-1.968-4.932-1.775-4.491-3.574-8.973-5.366-13.457-0.343-0.856-0.682-1.714-1.029-2.57-0.315-0.739 0.015-1.6 0.742-1.938a2.859 2.859 0 0 1 0.392-0.127z m12.561 0c0.242 0.05 0.47 0.152 0.67 0.298a1.571 1.571 0 0 1 0.495 0.678c1.34 3.348 2.675 6.699 4.019 10.046 0.369 0.924 0.737 1.85 1.111 2.772a1.533 1.533 0 0 1 0 1.193l-3.223 8.041c-0.213 0.532-0.6 0.863-1.168 0.949-0.707 0.106-1.34-0.243-1.595-0.863-1.616-4.015-3.218-8.037-4.825-12.056-0.898-2.251-1.797-4.501-2.697-6.75-0.299-0.747-0.588-1.498-0.899-2.239a1.5 1.5 0 0 1 0.043-1.268 1.494 1.494 0 0 1 1-0.778c0.026-0.006 0.051-0.015 0.076-0.023Z"/></svg>