<svg fill="#0099FF" role="img" viewBox="0 0 75 24" xmlns="http://www.w3.org/2000/svg"><title>Threadless</title><path d="M55.6 12.867c-0.247-0.58-0.546-2.265-0.059-3.231 0.586 0.75 1.243 1.703 0.059 3.231z m-4.597-9.849c-0.713 2.549-0.808 6.958-0.084 8.8 1.984-3.857 0.342-8.099 0.084-8.8z m-5.029 7.414c0.154-3.854 0.154-6.597-0.679-8.145-0.703 2.092-0.352 4.282 0.679 8.145z m1.514 3.703c1.302 1.706 2.018 0.793 2.21-0.007-1.66-6.347-0.555-9.716 0.577-13.566 0 0-0.006 0-0.01-0.006-0.062-0.043-3.255 1.246-3.591 1.382 2.57 4.119-0.506 8.793 0.814 12.197z m15.52-0.565c2.286-1.731 2.092-5.335 2.394-7.22a0.074 0.074 0 0 1-0.009 0s-3.561 1.37-3.983 1.537c1.833 0.969 2.437 2.95 1.598 5.683z m-20.302-0.478c0.716 1.632 2.005 0.963 2.542 0.277-0.713-1.447-0.901-2.061-1.265-3.211-1.182 0.179-2.08 1.12-1.28 2.931z m15.063 1.117c1.648-1.645 2.521-4.98 2.579-6.726a0.096 0.096 0 0 0-0.009-0.003s-3.348 1.284-3.672 1.413c1.376 1.444 1.08 3.138-0.148 5.235 0.361 0.432 0.926 0.284 1.25 0.084z m8.691-5.292c0.154 1.53-0.253 2.937-0.694 3.638 1.416 0.164 2.326-2.188 0.694-3.638z m-5.285 1.126c0.012 1.129-0.679 2.7-0.679 2.7 1.425 0.956 2.076-0.833 0.679-2.7z m-6.488 3.934c-1.209-2.228-0.808-4.603 0.274-6.306l-0.006-0.003-1.518 0.567a12.696 12.696 0 0 1-1.604 5.455c0.29 0.87 2.456 1.29 2.854 0.29z m10.231 0.145c-1.678 1.595-3.372 1.685-5.122 0.229-0.919 1.305-2.123 1.86-4.227 1.107-1.219 0.96-3.576 0.981-4.856-0.194-1.293 1.962-3.326 1.7-4.619-0.296-0.836 1.592-2.394 1.651-3.653 0.527-1.142 1.395-2.7 1.53-3.613 0.136-0.398 1.348-2.132 2.157-4.116 1.074-0.617 1.111-2.564 2.11-4.752 1.197-2.863 2.724-5.187 2.249-5.14-3.937l-1.172-0.299s0.142 3.937 0.099 4.387c-0.049 1.404-1.172 1.66-1.537 1.768-1.061 0.312-2.024-0.549-2.16-1.293-0.494-2.774-1.024-5.936-1.172-5.985-0.722-0.234-1.388 6.634-3.295 8.167-2.073 1.666-3.456 0.386-4.922-0.55l-1.261 1.336c-0.521-2.829-0.895-5.523-0.182-8.108-0.926 0.238-2.274-0.17-2.469-0.824 0.66-0.91 1.746-0.889 2.342-0.796 0.339-1.108 0.426-2.453 0.13-3.872 1.904 0.052 2.036 1.481 2.042 1.876a4.98 4.98 0 0 1-0.287 1.725 2.107 2.107 0 0 1 1.987 0.034 1.265 1.265 0 0 1 0.667 1.018 5.137 5.137 0 0 1-2.561 0.49c-1.41 3.523 0.833 5.936 2.801 6.492 0.99-6.424 0.429-13.927 2.012-17.417-0.003 0-0.006 0-0.009-0.006l-6.294 2.481a12.928 12.928 0 0 0-0.908 3.477c-0.17 0.074-5.782 2.181-5.757 2.314 0.216 1.12 0.231 2.231 0 3.332l-0.025 0.012c-0.771 0.309-1.669 0.546-2.289 1.133-0.506 0.478 0.679 0.904 1.012 0.999a3.036 3.036 0 0 0 0.883 0.081 2.209 2.209 0 0 0 0.416-0.062q-0.077 0.287-0.139 0.577a11.768 11.768 0 0 0-0.253 2.342c-0.043 1.743 0.262 3.486 0.574 5.189l1.749-0.688 0.321-0.117c0.447 0.287 0.91 0.549 1.423 0.719 1.105 0.358 2.28-0.299 3.276-0.685 1.392-0.54 2.786-1.083 4.166-1.654a1.919 1.919 0 0 0 0.734 0.66c1.068 0.568 2.971-0.574 3.85-0.916l0.685-0.268a2.188 2.188 0 0 0 0.741 0.752 1.635 1.635 0 0 0 1.04 0.161 3.092 3.092 0 0 0 0.583-0.158c1.009-0.336 1.996-0.753 2.983-1.147 1.574 0.225 2.953-0.444 4.52-1.055l0.155-0.062c0.71 0.17 1.376 0.102 2.045-0.084 0.589-0.164 1.185-0.417 1.821-0.672 0.876 0.753 3.104-0.342 3.406-0.463 1.129 0.842 3.345-0.133 3.628-0.299 0.762 0.845 1.752 1.314 2.941 0.901 0.645-0.225 1.284-0.463 1.922-0.707 0.938 0.487 2.046 0.552 3.085 0.281a13.93 13.93 0 0 0 1.389-0.444c0.549 0.16 1.092 0.262 1.672 0.234 0.981-0.046 2.018-0.611 2.919-0.981 1.179 0.935 3.659 0.21 5.041-0.41a7.51 7.51 0 0 0 4.323 0.45c0.423-0.08 5.205-1.87 7.445-2.808-1.848 0.679-4.042 0.682-6.041-0.401zM16.425 5.193l-0.651 9.343c0.981-1.537 1.444-7.195 0.651-9.343z m23.834 9.738c0.111 0.404 1.163 0.302 1.29-0.324-1.191-1.719-2.058-5.637 2.049-6.162-0.639-3.449-0.145-6.016 1.351-8.438a0.046 0.046 0 0 1-0.006-0.006c-0.049-0.043-6.22 2.354-6.294 2.477a10.922 10.922 0 0 0-1.574 5.057c1.564-0.086 2.252 4.005 3.184 7.396z m-18.805 3.063s0.562 0.858 1.018 0.294c0.478-0.595-0.358-6.165-0.37-6.248h-0.012c-0.272 0.028-0.697 0.256-0.929 0.342l-0.185 0.071a5.828 5.828 0 0 1 0.395 1.571c0.179 1.438 0.083 3.971 0.083 3.97z m3.925-6.315c1.243 1.543 1.672 3.209 1.067 5.319 0.781 1.098 1.379 0.969 2.286 0.071-1.836-1.25-1.712-5.875 1.364-7.596a1.311 1.311 0 0 0-0.117 0.034c-0.744 0.262-4.896 1.712-6.097 2.412-0.025 0.009-0.164 0.096-0.237 0.142a6.063 6.063 0 0 1 1.086 0.25z m10.684 3.665c0.423 0.247 1.7 0.096 2.012-1.277-0.648-2.117-0.793-2.91-1.092-4.273-1.404 0.262-2.151 4.829-0.92 5.553z m-4.825 1.114c0.543 0.324 2.388 0.472 2.613-0.71-0.633-4.992 1.533-7.704 2.903-8.151l-0.101 0.031-0.331 0.117-5.677 1.981c2.36 1.382 2.468 5.026 0.593 6.732z m-1.241-0.886c1.842-1.953 1.083-4.054 0.235-4.165-1.493 1.333-1.222 3.48-0.235 4.165z m40.332-6.763a0.238 0.238 0 0 0 0.108-0.031 0.093 0.093 0 0 0 0.031-0.092c0-0.043-0.015-0.071-0.043-0.08a0.204 0.204 0 0 0-0.117-0.013l-0.173 0.019 0.022 0.216z m4.172-1.854c0-0.009-0.009-0.015-0.012-0.025l-3.41 1.296a1.018 1.018 0 1 1-1.095-0.287l-1.716 0.651a4.545 4.545 0 0 1 0.272 0.599c0.429 1.176 0.401 2.607-0.265 4.156 4.517-0.21 6.489-3.511 6.226-6.393z m-4.27 1.105a0.848 0.848 0 1 1-0.759 0.931 0.852 0.852 0 0 1 0.759-0.935z m-0.284 0.401l0.099 0.947 0.169-0.016-0.04-0.398 0.083-0.012a0.062 0.062 0 0 1 0.047 0.016 0.216 0.216 0 0 1 0.043 0.052l0.234 0.302 0.198-0.021-0.296-0.38a0.062 0.062 0 0 0 0-0.009 0.241 0.241 0 0 0 0.061-0.034 0.25 0.25 0 0 0 0.093-0.244 0.256 0.256 0 0 0-0.139-0.216 0.401 0.401 0 0 0-0.207-0.024z"/></svg>