<svg fill="#23FFB0" role="img" viewBox="0 0 27 24" xmlns="http://www.w3.org/2000/svg"><title>Thunderstore</title><path d="M0.464 13.31l5.253 9.145L8.142 17.419 5.49 12.804a1.581 1.581 0 0 1 0-1.612l3.309-5.76c0.296-0.513 0.801-0.807 1.39-0.807h1.78l-3.444 7.761h4.255L6.993 23.612 18.616 9.671h-3.573l2.437-5.045h6.756L26.895 0H8.114c-0.96 0-1.784 0.478-2.264 1.311l-5.386 9.376a2.574 2.574 0 0 0 0 2.623m8.052 10.69h10.37a2.556 2.556 0 0 0 2.266-1.313l5.386-9.377a2.586 2.586 0 0 0 0-2.623l-2.154-3.751h-5.317l2.444 4.257c0.292 0.513 0.292 1.102 0 1.612l-3.308 5.762a1.574 1.574 0 0 1-1.393 0.807h-2.405l-1.671-0.019z"/></svg>