<svg fill="#026CDF" role="img" viewBox="0 0 180 24" xmlns="http://www.w3.org/2000/svg"><title>Ticketmaster</title><path d="M108.864 7c-1.84 0-3.619 0.348-5.37 0.978l-0.582 3.374c1.626-0.787 3.374-1.261 5.184-1.261 1.443 0 3.16 0.472 3.16 2.113 0 0.472 0 0.945-0.122 1.387h-1.442c-3.865 0-9.692 0.409-9.693 5.773 0 2.995 2.024 4.635 4.876 4.635 2.269 0 3.682-1.041 5.093-2.871h0.061l-0.43 2.493h3.467c0.368-3.06 1.932-9.431 1.932-11.607 0-3.816-2.974-5.014-6.134-5.014z m-2.854 13.909c-1.042 0-2.086-0.568-2.086-1.704 0-2.743 3.313-3.09 5.307-3.09h1.441c-0.643 2.617-1.594 4.794-4.662 4.794z m-64.848-5.869l4.919 8.959h-4.793l-4.222-8.734h-0.063L35.163 23.999h-4.159l5.048-23.998h4.252l-2.825 13.504h0.064l5.936-5.984h5.524L41.163 15.04z m28.551 5.594c0.71 0 1.42-0.162 1.921-0.388l-0.68 3.364c-0.679 0.162-1.447 0.39-2.127 0.39-2.69 0-4.583-1.165-4.583-4.368 0-1.294 0.237-2.555 0.502-3.881l1.124-5.63H63.002l0.621-3.17h2.867l0.681-3.431 4.257-1.519-0.976 4.95h3.549l-0.621 3.169h-3.55l-1.447 7.28a7.494 7.494 0 0 0-0.177 1.617c0 1.004 0.619 1.618 1.507 1.617z m-62.996 0c0.71 0 1.42-0.162 1.923-0.388l-0.68 3.364c-0.681 0.162-1.45 0.39-2.129 0.39-2.69 0-4.583-1.165-4.583-4.368 0-1.294 0.237-2.555 0.502-3.881l1.123-5.63H0.006l0.62-3.17h2.869l0.68-3.431 4.256-1.519-0.976 4.95h3.55l-0.621 3.169H6.835l-1.448 7.28a7.53 7.53 0 0 0-0.177 1.617c0 1.004 0.621 1.618 1.507 1.617z m15.762-4.14c0 2.112 0.703 4.224 3.644 4.224 1.054 0 2.365-0.283 3.483-0.819l-0.479 3.344c-1.31 0.63-2.717 0.757-4.123 0.757-4.251 0-6.999-2.806-7-7.002 0-5.677 3.804-9.997 9.717-9.997 1.597 0 3.132 0.283 4.282 0.63l-1.054 3.469c-0.832-0.536-1.95-0.82-3.132-0.82-3.42 0-5.337 3.154-5.338 6.214z m-3.43-12.324h-4.575l0.957-4.17h4.574l-0.956 4.17z m-0.717 3.06L14.579 23.999h-4.574l3.754-16.769h4.573z m137.664 5.952c0 1.23-0.149 2.427-0.386 3.627h-9.393c0.007-0.77 0.07-1.626 0.423-2.903h5.457a6.852 6.852 0 0 0 0.09-1.103c0-1.735-0.864-2.712-2.53-2.712-2.35 0-3.434 1.428-4.199 3.495a9.186 9.186 0 0 0-0.648 3.223h-0.003l0 0.047-0.001 0.09c0 0.156 0.013 0.3 0.019 0.448h0.003c0.193 2.554 1.682 3.514 4.235 3.515 1.636 0 3.214-0.441 4.702-1.169l-0.508 3.345c-1.546 0.504-3.243 0.915-4.88 0.915-4.404 0-7.38-2.272-7.38-7.098 0-5.044 3.691-9.902 8.72-9.902 3.78 0 6.279 2.049 6.279 6.182z m13.297-6.182c0.566 0 1.17 0.031 1.702 0.161l-0.935 4.226a5.867 5.867 0 0 0-1.704-0.258c-3.175 0-4.71 2.742-5.28 5.419l-1.602 7.451h-4.478l3.074-14.386c0.133-0.709 0.267-1.452 0.401-2.226h4.276l-0.601 3.13h0.066c0.802-1.807 3.007-3.517 5.08-3.517z m8.574 1.973c0-0.887-0.53-1.322-1.607-1.322h-1.792v4.691h0.763v-2.074h0.639l1.31 2.074h0.811l-1.335-2.074c0.735 0 1.21-0.543 1.211-1.295z m-2.636 0.698v-1.419h0.906c0.49 0 0.967 0.154 0.968 0.686 0 0.609-0.38 0.732-0.968 0.732h-0.906zM98.999 11.549c0 1.483-0.373 3.162-0.716 4.514L96.603 23.999h-4.173l1.682-8.096c0.217-1 0.529-2.549 0.529-3.548 0-1.226-0.904-2-1.961-2-2.896 0-3.613 3.483-4.142 5.742l-1.65 7.902h-4.172l1.681-8.096c0.218-1 0.53-2.549 0.53-3.548 0-1.226-0.904-2-1.962-2-2.834 0-3.613 3.516-4.142 5.742l-1.649 7.902h-4.173l2.927-14.773c0.125-0.645 0.249-1.323 0.343-1.84h3.892l-0.374 2.228h0.062c1.122-1.71 2.958-2.614 4.92-2.614 1.9 0 3.861 1.161 4.079 3.161h0.062c1.058-2.161 3.394-3.161 5.635-3.161 2.398 0 4.452 2.032 4.452 4.549zM175.996 6h-0.001a4.007 4.007 0 0 0-4 4.003 4.005 4.005 0 0 0 4 3.997 4.005 4.005 0 0 0 3.999-3.997 4.007 4.007 0 0 0-3.998-4.003z m0.012 7.404c-1.861 0-3.25-1.485-3.249-3.401 0-1.917 1.389-3.403 3.249-3.403 1.836 0 3.223 1.486 3.222 3.403 0 1.916-1.387 3.4-3.222 3.401z m-40.63 3.996a7.5 7.5 0 0 0-0.177 1.617c0 1.004 0.621 1.618 1.508 1.617 0.71 0 1.42-0.162 1.922-0.388l-0.68 3.364c-0.68 0.162-1.449 0.39-2.13 0.39-2.69 0-4.583-1.165-4.583-4.368 0-1.294 0.238-2.555 0.503-3.881l1.125-5.63h-2.869l0.62-3.17h2.871l0.679-3.431 4.257-1.519-0.975 4.95H140.997l-0.621 3.169h-3.55l-1.448 7.28z m-10.526-10.4c1.62 0 3.273 0.284 4.146 0.5l-0.96 3.185c-0.476-0.247-1.7-0.594-2.956-0.594-1.321 0-2.975 0.346-2.975 1.64 0 2.05 5.752 2.808 5.752 6.781 0 4.227-3.868 5.487-7.669 5.487-1.786 0-3.572-0.252-5.192-0.977l0.96-3.375c1.256 0.662 2.512 1.261 4.231 1.262 1.488 0 3.042-0.474 3.042-1.797 0-2.618-5.752-2.872-5.752-6.94 0-3.816 3.867-5.172 7.373-5.172z m-62.85 6.182c0 1.23-0.15 2.427-0.387 3.627H52.223c0.007-0.77 0.069-1.626 0.424-2.903h5.456a6.852 6.852 0 0 0 0.09-1.103c0-1.735-0.864-2.712-2.53-2.712-2.35 0-3.434 1.428-4.199 3.495a9.206 9.206 0 0 0-0.648 3.223h-0.003l0 0.047-0.002 0.09c0 0.156 0.013 0.3 0.02 0.448h0.004c0.191 2.554 1.682 3.514 4.233 3.515 1.636 0 3.214-0.441 4.702-1.169l-0.507 3.345c-1.546 0.504-3.243 0.915-4.88 0.915-4.404 0-7.38-2.271-7.38-7.098 0-5.044 3.69-9.902 8.719-9.902 3.78 0 6.28 2.049 6.28 6.182z"/></svg>