<svg fill="#4050FB" role="img" viewBox="0 0 58 24" xmlns="http://www.w3.org/2000/svg"><title>Tide</title><path d="M45.101 13.222h8.161c-0.495-2.035-2.124-3.06-3.961-3.06-2.124 0-3.608 1.155-4.2 3.06z m4.2 10.776c-5.383 0-8.849-3.776-8.849-8.775 0-4.868 3.61-8.808 8.882-8.808 5.318 0 8.529 3.685 8.529 8.584 0 0.657-0.065 1.506-0.065 1.617h-12.858c0.495 2.131 2.093 3.524 4.457 3.524 2.03 0 3.514-0.88 4.457-2.242l3.418 2.097c-1.628 2.465-4.233 4.005-7.971 4.005m-14.863-8.741a4.546 4.546 0 0 0-4.584-4.531c-2.492 0-4.426 2.035-4.426 4.531 0 2.53 1.934 4.532 4.426 4.532 2.622 0 4.584-2.001 4.584-4.532z m-0.062 7.11c-1.183 0.928-3.021 1.474-4.921 1.475a8.529 8.529 0 0 1-8.498-8.585c0-4.868 3.897-8.678 8.498-8.678 1.9 0 3.738 0.592 4.921 1.506v-7h4.551v22.533h-4.551v-1.251M18.888 6.74H14.337v16.861h4.551v-16.861m-7.028 0v4.081H7.136v6.774c0 1.506 0.686 2.097 2.237 2.097H11.874v3.909H9.051c-4.457 0-6.47-2.001-6.471-5.783v-6.999H0.137V6.74a2.429 2.429 0 0 0 2.429-2.434V2.401h4.551v4.339h4.743m7.514-3.986c0 1.52-1.229 2.754-2.747 2.754-1.515 0-2.747-1.234-2.747-2.754 0-1.523 1.229-2.754 2.747-2.754a2.73 2.73 0 0 1 2.747 2.754Z"/></svg>