<svg fill="#063752" role="img" viewBox="0 0 27 24" xmlns="http://www.w3.org/2000/svg"><title>TietoEVRY</title><path d="M1.235 0.001v2.192H0.12v1.43h1.115v2.843c0 1.83 0.484 2.376 2.365 2.376 0.401 0 0.803-0.052 1.208-0.066V7.154c-0.194 0-0.391 0.027-0.573 0.027-0.479 0-0.791-0.117-0.79-0.649v-2.91h1.363v-1.428H3.445L3.443 0z m4.174 0v1.591h2.208V0.002z m10.772 0v2.192h-1.115v1.43h1.115v2.843c0 1.83 0.484 2.376 2.364 2.376 0.401 0 0.803-0.052 1.209-0.066V7.154c-0.194 0-0.392 0.027-0.573 0.027-0.479 0-0.791-0.117-0.79-0.649v-2.91h1.363v-1.428h-1.363l-0.003-2.193z m-4.685 2.023a3.489 3.489 0 0 0-3.468 3.443c0 2.193 1.492 3.479 3.686 3.479 1.506 0 2.946-0.656 3.349-2.168H12.998a1.319 1.319 0 0 1-1.257 0.718 1.416 1.416 0 0 1-1.506-1.487h4.945c0.105-2.218-1.104-3.983-3.519-3.983a3.489 3.489 0 0 0-0.165-0.002z m11.999 0a3.394 3.394 0 0 0-0.176 0.002 3.461 3.461 0 1 0 3.56 3.468 3.394 3.394 0 0 0-3.384-3.47z m-18.086 0.169V8.778h2.208V2.193z m6.231 1.283a1.435 1.435 0 0 1 0.023 0 1.345 1.345 0 0 1 1.31 1.335H10.235a1.435 1.435 0 0 1 1.405-1.334z m11.679 0.189c1.025 0 1.349 0.996 1.349 1.829 0 0.831-0.323 1.813-1.349 1.813-1.025 0-1.335-0.981-1.335-1.814 0-0.832 0.31-1.826 1.335-1.827zM5.248 10.372a2.637 2.637 0 0 0-1.535 0.477 1.666 1.666 0 0 0-0.364 0.782l-0.762 2.633a1.093 1.093 0 0 1-0.372 0.731c-0.523 0.314-1.59 0.336-1.494 1.49a5.983 5.983 0 0 0 0.477 1.725 1.299 1.299 0 0 1 0.076 0.769c-0.033 0.224-0.072 0.447-0.117 0.67-0.038 0.194-0.127 0.613 0.004 0.772 0.13 0.158 0.379 0.145 0.677 0.108a17.751 17.751 0 0 0 3.704-1.108 3.316 3.316 0 0 0 0.68-0.384 1.811 1.811 0 0 0 0.544-1.117 0.438 0.438 0 0 0-0.178-0.462c-0.138-0.078-0.327-0.029-0.613 0.05-0.471 0.128-1.638 0.579-2.042 0.703-0.164 0.049-0.487 0.126-0.612-0.031-0.207-0.261 0.089-1.078 0.268-1.534a1.686 1.686 0 0 1 1.313-1.067c0.314-0.09 0.831-0.255 1.04-0.326a0.947 0.947 0 0 0 0.663-0.75c0.147-0.593-0.303-0.685-0.714-0.799-0.589-0.163-0.957-0.182-0.699-0.753a0.585 0.585 0 0 1 0.433-0.401c0.234-0.061 2.211-0.377 2.997-0.521 0.44-0.08 0.591-0.318 0.775-0.699 0.4-0.828-0.099-0.881-0.503-0.844-0.911 0.084-2.375 0.35-3.001 0.441-0.335 0.05-0.113-0.524-0.501-0.55a2.637 2.637 0 0 0-0.144-0.005z m12.34 1.281a5.582 5.582 0 0 0-1.904 1.267c-0.05-0.338-0.058-0.71-0.401-0.749a1.422 1.422 0 0 0-0.758 0.2 1.229 1.229 0 0 0-0.547 0.524l-0.8 1.85a0.145 0.145 0 0 1-0.121 0.089 0.803 0.803 0 0 0-0.601 0.502 0.695 0.695 0 0 0 0.138 0.733c-0.158 0.428-0.58 1.427-0.58 1.427-0.523 1.223-0.488 1.648-0.301 1.907a1.455 1.455 0 0 0 0.828 0.39c0.303 0.05 0.535-0.132 0.789-0.535 0.375-0.597 1.126-2.172 1.126-2.172a11.871 11.871 0 0 0 4.493 2.716s-1.587 2.193-1.815 3.405c0 0-0.117 0.796 0.95 0.793a1.993 1.993 0 0 0 0.965-0.245 0.521 0.521 0 0 0 0.244-0.315 0.246 0.246 0 0 0-0.025-0.169 0.52 0.52 0 0 0-0.108-0.115c-0.056-0.056-0.048-0.126-0.018-0.207 0.588-1.717 2.977-4.633 3.485-5.266 1.345-1.676 3.828-4.285 4.005-4.493 0.321-0.414 0.384-0.661-0.142-1.178-0.472-0.464-0.786-0.19-1.017 0.05-0.039 0.046-1.108 1.111-2.234 2.411-0.876 1.011-1.636 1.954-1.636 1.954a9.935 9.935 0 0 1 0.067-1.432c0.055-0.453 0.201-1.334 0.246-1.613 0.223-1.416-0.647-1.473-0.97-1.495-0.341-0.02-0.503 0.163-0.604 0.596a16.112 16.112 0 0 0-0.398 4.806c0.036 0.404 0.114 0.818 0.123 0.845l-0.206 0.285a8.153 8.153 0 0 1-3.212-1.847A6.095 6.095 0 0 0 17.96 15.966a2.831 2.831 0 0 0 1.485-2.616 1.89 1.89 0 0 0-1.858-1.698z m-5.157 0.229a0.6 0.6 0 0 0-0.573 0.376c-0.283 0.486-1.037 1.872-1.719 2.944a11.541 11.541 0 0 1-1.193 1.695s0-2.723-0.034-2.958c-0.112-0.781-0.521-0.702-0.825-0.649-0.789 0.134-0.781 0.433-0.818 0.686a36.975 36.975 0 0 0 0.074 3.802c0.029 0.35-0.027 1.583 0.687 1.684 0.536 0.076 1.048-0.418 1.437-0.848a21.895 21.895 0 0 0 1.744-2.241 41.344 41.344 0 0 0 1.993-3.081c0.258-0.455 0.243-0.775-0.346-1.217a0.6 0.6 0 0 0-0.427-0.193z m5.032 1.456a0.394 0.394 0 0 1 0.268 0.025c0.329 0.178-0.049 0.948-0.681 1.417a3.328 3.328 0 0 1-1.826 0.756 6.917 6.917 0 0 1 1.109-1.444c0.384-0.385 0.816-0.69 1.13-0.754Z"/></svg>