<svg fill="#000000" role="img" viewBox="0 0 45 24" xmlns="http://www.w3.org/2000/svg"><title>Tile</title><path d="M14.153 5.497h2.99a0.296 0.296 0 0 1 0.277 0.278v17.948a0.296 0.296 0 0 1-0.277 0.277H14.153a0.3 0.3 0 0 1-0.277-0.277V5.775c0-0.139 0.139-0.277 0.277-0.278z m6.539-5.495h2.99c0.141 0 0.279 0.139 0.279 0.277v23.373c0 0.139-0.139 0.277-0.278 0.278h-2.991a0.3 0.3 0 0 1-0.278-0.278V0.277c0-0.139 0.139-0.277 0.278-0.277zM10.813 5.497H3.857V0.277a0.3 0.3 0 0 0-0.277-0.277H0.588a0.3 0.3 0 0 0-0.278 0.277v14.4c0 5.078 4.174 9.251 9.252 9.251h1.251c0.139 0 0.277-0.139 0.278-0.277v-2.992a0.3 0.3 0 0 0-0.278-0.278h-1.251a5.73 5.73 0 0 1-5.705-5.704v-5.703H10.813c0.139 0 0.277-0.141 0.278-0.277V5.705c0-0.141-0.139-0.209-0.278-0.209zM41.977 8.21a9.279 9.279 0 0 0-13.009 0c-3.617 3.547-3.547 9.39 0 13.007 3.549 3.617 9.392 3.549 13.009 0a8.284 8.284 0 0 0 1.6-2.156 0.148 0.148 0 0 0-0.139-0.139h-3.828l-0.416 0.139c-2.365 2.088-5.982 1.808-8.068-0.625-0.627-0.766-1.113-1.67-1.253-2.644 0-0.139 0.07-0.209 0.208-0.209h14.331c0.139 0 0.277-0.139 0.278-0.278v-0.556a9.27 9.27 0 0 0-2.713-6.539z m-1.67 4.174h-9.737c-0.141 0-0.209-0.07-0.209-0.209a5.669 5.669 0 0 1 5.007-3.061c2.088 0 4.035 1.183 5.009 3.061 0 0.07 0 0.139-0.07 0.209zM17.7 2.019a2.016 2.016 0 0 1-2.016 2.016 2.016 2.016 0 0 1-2.017-2.016 2.016 2.016 0 0 1 2.015-2.017 2.016 2.016 0 0 1 2.018 2.015Z"/></svg>