<svg fill="#EC4815" role="img" viewBox="0 0 18 24" xmlns="http://www.w3.org/2000/svg"><title>Tina</title><path d="M11.46 10.662C12.625 9.697 13.143 3.996 13.647 1.947 14.152-0.103 16.241 0.001 16.241 0.001 16.241 0.001 15.699 0.945 15.92 1.649 16.14 2.353 17.655 2.982 17.655 2.982L17.329 3.843C17.329 3.843 16.646 3.756 16.241 4.568 15.835 5.38 16.502 13.421 16.502 13.421 16.502 13.421 14.062 18.234 14.062 20.266 14.062 22.298 15.024 24 15.024 24L13.673 24C13.673 24 11.694 21.644 11.287 20.467 10.881 19.289 11.044 18.112 11.044 18.112 11.044 18.112 8.893 17.99 6.983 18.112 5.075 18.234 3.802 19.874 3.573 20.792 3.344 21.709 3.248 24 3.248 24L2.182 24C1.531 21.996 1.015 21.278 1.296 20.266 2.071 17.462 1.918 15.872 1.74 15.164 1.559 14.456 0.345 13.838 0.345 13.838 0.939 12.625 1.547 12.042 4.162 11.981 6.774 11.921 10.293 11.627 11.46 10.662ZM6.276 18.871C6.276 18.871 6.412 22.579 7.668 24L6.412 24C4.948 22.7 4.672 20.148 4.672 20.148 4.753 19.824 5.637 19.079 6.276 18.871Z"/></svg>