<svg fill="#17AEB9" role="img" viewBox="0 0 29 24" xmlns="http://www.w3.org/2000/svg"><title>Tindie</title><path d="M25.702 0c-0.06 0-0.119 0.004-0.178 0.009-2.017 0.16-3.673 1.281-4.793 3.244a9.691 9.691 0 0 0-0.62 1.317c-0.771-0.463-1.9-0.965-3.166-0.965-0.237 0-0.474 0.019-0.704 0.054-0.853 0.131-3.45 0.53-5.261 2.267-0.901 0.866-1.559 2.027-1.973 2.913-1.007-0.819-2.646-1.831-4.591-1.831-0.862 0-1.707 0.201-2.511 0.601-0.912 0.415-1.449 1.75-1.443 2.807 0.006 0.82 0.337 1.431 0.909 1.676 0.131 0.056 0.263 0.063 0.376 0.064 0.861 0 4.659-0.664 6.934-1.098l1.945 5.204 0.094 0.093c0.006 0.006 0.096 0.095 0.251 0.248l0.897 0.892c0.339 0.338 0.731 0.728 1.139 1.134-0.179 0.138-0.373 0.292-0.568 0.459-1.069 0.904-1.545 1.624-1.545 2.206 0 1.189 1.906 2.706 3.456 2.706 0.353 0 0.684-0.129 0.984-0.268l0.626-0.487c0.485-0.448 0.887-1.094 1.201-1.736 1.172-0.11 2.3-0.537 3.244-1.018l1.185-0.684c0.8-0.515 1.311-0.958 1.363-1.002l0.196-0.172 0.314-7.352L21.636 6.387c0.96-0.352 2.162-0.804 3.274-1.237 3.12-1.219 3.242-1.386 3.371-1.563 0.34-0.47 0.343-1.09 0.008-1.749-0.461-0.903-1.555-1.838-2.587-1.838Zm0 1.218c0.456 0 1.199 0.58 1.502 1.173 0.098 0.193 0.125 0.344 0.111 0.428-0.631 0.352-3.804 1.589-6.162 2.45 0.501-1.437 1.741-3.835 4.477-4.047l0.025-0.002c0.015-0.002 0.03-0.002 0.047-0.002ZM16.945 4.823c1.131 0 2.165 0.539 2.79 0.95 0.23 0.152 0.407 0.287 0.51 0.371l0.02 0.053 0.012 0.033 0.213 0.571 1.746 4.674-0.113 2.668c-1.004-0.133-1.876-0.135-2.673-0.017-0.426 0.063-0.829 0.16-1.221 0.289a8.393 8.393 0 0 0-0.241 0.085l-0.735-1.795-0.499-1.216-2.502-6.108c0.929-0.328 1.77-0.457 2.174-0.518a3.311 3.311 0 0 1 0.519-0.04Zm-3.19 0.75l2.424 5.915 0.498 1.217 0.819 1.996c-1.29 0.583-2.489 1.528-3.932 2.766-0.398-0.397-0.77-0.766-1.082-1.078-0.378-0.376-0.668-0.663-0.809-0.804l-0.055-0.147-1.726-4.618-0.186-0.5c0.051-0.142 0.133-0.353 0.244-0.608 0.347-0.807 0.981-2.052 1.874-2.907 0.574-0.552 1.26-0.948 1.931-1.232Zm1.185 0.185c-0.15 0-0.273 0.122-0.273 0.272 0 0.15 0.123 0.271 0.273 0.272s0.271-0.122 0.271-0.272c0-0.151-0.122-0.273-0.271-0.272Zm0.456 0.988c-0.15 0-0.273 0.123-0.272 0.273a0.273 0.273 0 0 0 0.545 0c0-0.15-0.123-0.273-0.273-0.273Zm0.38 0.914a0.273 0.273 0 0 0-0.272 0.271c0 0.151 0.123 0.273 0.272 0.273s0.273-0.122 0.273-0.273a0.273 0.273 0 0 0-0.273-0.271Zm-11.36 0.565c1.649 0 3.088 0.946 3.937 1.656-2.314 0.44-5.723 1.026-6.548 1.056-0.067-0.078-0.124-0.264-0.126-0.529-0.005-0.756 0.397-1.544 0.732-1.693l0.025-0.012c0.638-0.317 1.304-0.478 1.98-0.478Zm14.857 0.445c-0.368 0-0.728 0.106-1.038 0.308-0.426 0.278-0.717 0.704-0.822 1.203-0.104 0.497-0.008 1.005 0.269 1.429 0.352 0.54 0.949 0.862 1.594 0.863 0.368 0 0.728-0.106 1.038-0.309 0.879-0.573 1.127-1.754 0.553-2.632-0.352-0.54-0.949-0.862-1.594-0.862Zm0 1.064c0.284 0 0.547 0.143 0.702 0.38 0.253 0.386 0.144 0.905-0.243 1.158a0.829 0.829 0 0 1-0.456 0.136 0.836 0.836 0 0 1-0.821-1.008c0.047-0.219 0.175-0.407 0.363-0.529a0.821 0.821 0 0 1 0.455-0.137Zm-6.118 1.113c-0.37 0-0.729 0.106-1.039 0.31-0.426 0.277-0.717 0.704-0.822 1.201-0.104 0.497-0.008 1.005 0.269 1.429 0.352 0.54 0.949 0.863 1.594 0.864 0.368 0 0.728-0.108 1.038-0.31 0.426-0.277 0.717-0.704 0.822-1.202 0.104-0.497 0.009-1.005-0.269-1.43a1.898 1.898 0 0 0-1.593-0.862Zm0 1.064c0.284 0 0.546 0.143 0.702 0.38 0.122 0.187 0.164 0.411 0.118 0.63a0.836 0.836 0 0 1-0.818 0.664 0.834 0.834 0 0 1-0.702-0.379 0.83 0.83 0 0 1-0.119-0.629c0.047-0.219 0.175-0.407 0.363-0.529a0.832 0.832 0 0 1 0.456-0.137Zm7.387 2.661c0.096-0.001 0.194-0.001 0.294 0.002 0.397 0.008 0.815 0.042 1.263 0.104l-0.144 3.37c-0.108 0.085-0.257 0.2-0.441 0.333-0.306 0.221-0.711 0.491-1.18 0.761-0.75 0.429-1.668 0.852-2.627 1.054-0.372 0.078-0.749 0.125-1.126 0.125-0.055 0-0.111-0.001-0.166-0.004l-0.04-0.039c-0.262-0.264-0.559-0.563-0.875-0.88-0.477-0.477-0.994-0.993-1.492-1.49-0.021-0.022-0.043-0.043-0.065-0.065 1.699-1.456 3.011-2.468 4.532-2.95a6.615 6.615 0 0 1 1.232-0.266c0.268-0.033 0.545-0.051 0.835-0.055Zm-0.277 0.238c-0.151 0-0.273 0.123-0.273 0.272s0.122 0.273 0.273 0.273c0.15 0 0.273-0.123 0.273-0.273s-0.123-0.273-0.273-0.272Zm0.988 0a0.273 0.273 0 0 0 0 0.545c0.151 0 0.273-0.123 0.273-0.273s-0.122-0.273-0.273-0.272Zm-0.712 1.505c-0.515 0.081-1.571 0.533-2.5 0.967-0.928 0.432-1.727 0.845-1.727 0.844 2.1 1.717 4.445-0.895 4.227-1.811Zm-6.667 3.179c0.681 0.68 1.344 1.344 1.839 1.845l0.065 0.065-0.033 0.169c-0.281 0.467-0.592 0.838-0.909 0.992-0.14 0.068-0.304 0.102-0.486 0.101-1.049 0-2.2-1.049-2.239-1.422 0.063-0.292 0.835-1.046 1.763-1.75Z"/></svg>