<svg fill="#ED1C24" role="img" viewBox="0 0 18 24" xmlns="http://www.w3.org/2000/svg"><title>TinyLetter</title><path d="M16.07 18.202h-4.913v3.207l-4.22-3.207H1.931a0.643 0.643 0 0 1-0.643-0.642v-1.69l3.987-3.028L9.001 15.672l3.725-2.83 3.987 3.03v1.688a0.643 0.643 0 0 1-0.643 0.642zM4.214 12.035l-2.925 2.222V9.813z m12.499-2.222v4.444l-2.925-2.222zM1.933 5.61h2.735L9.001 9.128l4.338-3.518h2.73c0.355 0 0.644 0.288 0.644 0.642v1.946L9.001 14.058l-7.712-5.86V6.252c0-0.354 0.289-0.642 0.643-0.642z m3.407-3.772c0.356-0.356 0.83-0.553 1.335-0.553 0.504 0 0.978 0.197 1.334 0.553L9.001 2.83l0.992-0.992c0.356-0.356 0.83-0.553 1.334-0.553 0.505 0 0.979 0.197 1.335 0.553 0.357 0.357 0.553 0.83 0.553 1.335 0 0.494-0.188 0.959-0.53 1.313L9.001 7.473 5.318 4.486a1.89 1.89 0 0 1 0.022-2.648z m10.73 2.486h-1.787A3.167 3.167 0 0 0 13.571 0.93C12.971 0.33 12.175 0 11.327 0c-0.847 0-1.644 0.33-2.243 0.93L9.001 1.011 8.918 0.93C8.318 0.33 7.522 0 6.675 0 5.827 0 5.03 0.33 4.431 0.93a3.176 3.176 0 0 0-0.711 3.394H1.931a1.93 1.93 0 0 0-1.928 1.928V17.56a1.93 1.93 0 0 0 1.928 1.928h4.572L12.441 24v-4.512h3.628a1.93 1.93 0 0 0 1.928-1.928V6.252a1.93 1.93 0 0 0-1.928-1.928"/></svg>