<svg fill="#FFDE91" role="img" viewBox="0 0 64 24" xmlns="http://www.w3.org/2000/svg"><title>Toggl</title><path d="M3.953 0v1.686c0 1.874-1.426 3.389-3.186 3.389-0.132 0-0.258-0.008-0.388-0.024v4.164h2.161v4.184c0 1.647 0.295 2.917 0.891 3.779 0.914 1.32 1.934 2.187 4.416 2.187 1.439 0 2.646-0.332 3.436-0.772v-4.922a3.336 3.336 0 0 1-1.17 0.195c-0.957 0-1.349-0.295-1.705-0.743-0.229-0.295-0.343-0.727-0.342-1.289v-2.619h3.215V4.519h-3.215V0z m52.337 0v13.281c0 1.652 0.245 3.028 0.84 3.894 0.914 1.318 2.15 2.179 4.612 2.187a4.638 4.638 0 0 0 1.879-0.456v-5.059c-1.162 0.145-1.565-0.675-1.566-1.489v-12.358z m-17.265 1.368l-1.902 2.645a7.602 7.602 0 0 0-2.327-0.35c-1.655 0-3.315 0.487-4.527 1.626-1.183 1.104-1.734 2.648-1.734 4.229 0 1.581 0.553 3.125 1.734 4.229 0.103 0.1 0.211 0.187 0.316 0.274l-0.221 0.119c-0.553 0.316-1.059 0.719-1.497 1.188-0.748 0.798-1.497 1.992-1.497 3.584 0 0-0.103 3.389 3.789 3.388h2.823c0.651 0 1.312 0.414 1.312 1.062 0 0.227-0.066 0.448-0.19 0.638h5.397c0.814-0.925 1.252-2.124 1.228-3.357-0.037-1.062-0.35-2.19-1.147-2.933-0.896-0.833-2.19-1.212-3.394-1.212h-5.37c-0.527 0-0.999-0.398-0.999-0.891a0.891 0.891 0 0 1 0.665-0.859s0.09-0.021 0.189-0.052c0.978 0.451 2.045 0.68 3.123 0.669 1.652 0 3.31-0.487 4.524-1.626 1.183-1.104 1.734-2.648 1.734-4.229 0-1.581-0.553-3.125-1.734-4.229a5.52 5.52 0 0 0-1.141-0.817c1.138 0.264 2.316-0.061 3.125-1.457z m13.655 0l-1.903 2.645a7.597 7.597 0 0 0-2.324-0.35c-1.655 0-3.312 0.487-4.524 1.626-1.183 1.104-1.734 2.648-1.734 4.229 0 1.581 0.553 3.125 1.734 4.229 0.345 0.321 0.733 0.601 1.149 0.825a6.906 6.906 0 0 0-0.843 0.756c-0.748 0.798-1.497 1.992-1.497 3.584 0 0-0.103 3.389 3.789 3.388h2.82c0.651 0 1.312 0.414 1.312 1.062 0 0.227-0.063 0.448-0.187 0.638h5.396c0.814-0.925 1.252-2.124 1.228-3.357-0.04-1.062-0.356-2.19-1.157-2.933-0.896-0.833-2.19-1.212-3.394-1.212l-6.224-0.045c-0.395 0-0.693-0.248-0.693-0.611 0-0.303 0.15-0.746 0.527-0.82 0.743 0.232 1.518 0.348 2.298 0.343 1.655 0 3.312-0.487 4.527-1.623 1.181-1.107 1.734-2.651 1.734-4.232 0-1.581-0.553-3.123-1.734-4.227a5.494 5.494 0 0 0-1.146-0.817c1.141 0.264 2.316-0.063 3.125-1.459z m-32.806 2.334c-2.032 0-4.063 0.651-5.553 2.169-1.455 1.478-2.129 3.547-2.129 5.663 0 2.116 0.677 4.182 2.127 5.662 1.491 1.518 3.523 2.169 5.552 2.169 2.029 0 4.061-0.651 5.549-2.169 1.449-1.481 2.126-3.547 2.127-5.662 0-2.116-0.677-4.184-2.127-5.666-1.489-1.515-3.518-2.166-5.549-2.166z m15.125 4.274a1.491 1.491 0 1 1-1.534 1.489 1.389 1.389 0 0 1 0.377-0.996h0.003a1.489 1.489 0 0 1 1.154-0.493z m13.686 0.003a1.486 1.486 0 1 1-1.531 1.486 1.386 1.386 0 0 1 0.38-0.996 1.486 1.486 0 0 1 1.151-0.49z m-28.648 1.563a1.924 1.924 0 1 1-1.976 1.928 1.787 1.787 0 0 1 0.49-1.291 1.924 1.924 0 0 1 1.486-0.637z"/></svg>