<svg fill="#149DD3" role="img" viewBox="0 0 39 24" xmlns="http://www.w3.org/2000/svg"><title>Tokyo Metro</title><path d="M19.473 22.034c4.621 0.01 6.527-1.533 6.532-3.865 0.005-2.75-2.737-6.111-4.723-8.196 3.745-3.364 8.603-5.852 10.515-3.93 2.209 2.209 0.032 8.754-5.191 15.983l6.883 1.974c5.838-10.389 7.077-20.616 3.053-23.384-3.144-2.147-11.071 2.16-17.045 7.628-5.957-5.49-13.863-9.823-17.016-7.689-4.039 2.753-2.824 12.985 2.974 23.395l6.893-1.95C7.14 14.752 4.992 8.2 7.21 5.998c1.913-1.915 6.763 0.59 10.502 3.968-1.999 2.078-4.755 5.429-4.758 8.179-0.005 2.333 1.9 3.881 6.519 3.89z m0.006-3.781c-1.53-0.002-2.819-0.391-2.816-1.696 0-1.209 1.029-3.037 2.828-5.019 1.793 1.987 2.81 3.819 2.808 5.03-0.002 1.304-1.293 1.688-2.82 1.687z"/></svg>