<svg fill="#007A68" role="img" viewBox="0 0 103 24" xmlns="http://www.w3.org/2000/svg"><title>Toll</title><path d="M93.618 17.776H102.801l-2.757 6.22h-14.305c-2.946 0-4.951-2.497-3.839-4.916l8.457-19.08h10.072l-7.482 16.904c-0.158 0.376-0.034 0.864 0.671 0.872ZM26.478 6.216l-7.879 17.78H14.319c-2.569 0-4.536-2.377-3.642-4.467l5.895-13.313H0.199l0.478-1.077h31.529c1.603 0 4.083-0.248 6.558-1.445 0.663-0.316 3.612-2.022 6.426-3.694h6.301c-1.757 0.829-10.179 4.878-11.188 5.246-2.642 0.962-4.348 0.97-6.523 0.97H26.478Zm2.3-2.014H1.092c0.834-1.89 2.702-4.202 8.264-4.202h26.42c-1.501 1.881-3.01 4.202-6.998 4.202Zm42.755 12.702c-0.158 0.376-0.03 0.864 0.671 0.872h9.188l-2.754 6.22h-14.308c-2.946 0-4.946-2.497-3.839-4.916l8.456-19.08h10.072l-7.482 16.904h-0.004Zm-7.828-14.702c1.21 1.719 0.547 4.275-0.457 6.438l-3.89 8.785c-2.933 7.075-13.065 6.567-13.065 6.567H34.763s-9.97 0.522-5.622-9.264l3.356-7.584h2.8c2.27 0 5.053-0.705 6.327-1.206l15.002-5.938h2.633c2.125 0 3.724 1.026 4.434 2.202h0.012Zm-10.26 5.882c0.509-1.244-0.231-1.868-1.257-1.868h-7.267c-1.466-0.009-2.189 0.718-2.407 1.193-0.154 0.316-3.651 8.23-3.651 8.229-0.996 2.215 1.116 2.142 1.116 2.142h6.912s2.223 0.009 3.232-2.189l3.322-7.511v0.004Z"/></svg>