<svg fill="#29A7DF" role="img" viewBox="0 0 65 24" xmlns="http://www.w3.org/2000/svg"><title>Topcoder</title><path d="M32.511 0c-5.049 0-10.476 2.643-15.009 7.231 4.701 1.037 9.685 2.692 13.624 4.487l1.385 0.621c0.551-0.243 0.991-0.44 1.385-0.621 3.953-1.801 8.958-3.461 13.673-4.501-4.441-4.849-9.471-7.217-15.058-7.217z m23.627 7.352c-1.822 0.043-3.888 0.273-6.161 0.686 1.642 2.117 3.402 5.4 5.205 9.458a117.608 117.608 0 0 1 2.649 6.48c0.823-0.162 1.566-0.626 2.228-1.464 3.761-4.755 5.503-9.088 4.611-11.742-0.702-2.095-3.11-3.213-6.79-3.396a23.679 23.679 0 0 0-1.742-0.022z m-47.265 0a23.879 23.879 0 0 0-1.745 0.022c-3.685 0.184-6.097 1.299-6.798 3.396-0.891 2.654 0.85 6.988 4.611 11.745 0.697 0.877 1.482 1.347 2.358 1.485 0.405-3.964 4.053-11.483 7.743-15.96a40.167 40.167 0 0 0-6.169-0.685z m39.662 0.95c-3.197 0.532-9.801 2.622-13.905 4.423l-0.097 0.046a27.594 27.594 0 0 1 4.855 1.617c3.424 1.485 4.061 1.874 13.956 8.262 0.556 0.362 0.999 0.613 1.585 0.864 0.524 0.227 1.034 0.386 1.528 0.47a115.334 115.334 0 0 0-3.553-8.348c-1.242-2.592-2.446-4.747-3.572-6.313-0.27-0.378-0.54-0.718-0.797-1.021z m-32.038 0.011c-3.645 4.153-7.447 11.826-7.903 15.665 0.975-0.165 2.133-0.648 3.3-1.323 0.856-0.499 1.755-1.064 2.846-1.779 0.656-0.432 3.113-2.074 2.934-1.955 5.235-3.483 8.783-5.351 12.631-6.177-4.29-1.863-10.254-3.826-13.808-4.428z"/></svg>