<svg fill="#231F20" role="img" viewBox="0 0 40 24" xmlns="http://www.w3.org/2000/svg"><title>TourBox</title><path d="M9.157 8.162c0-0.46 0.493-0.831 1.475-1.098a11.058 11.058 0 0 1 2.82-0.332 10.927 10.927 0 0 1 2.818 0.332c0.994 0.269 1.485 0.636 1.485 1.098v2.681c0 0.465-0.491 0.831-1.485 1.101-0.822 0.227-1.761 0.335-2.818 0.335a10.769 10.769 0 0 1-2.82-0.333c-0.986-0.271-1.476-0.638-1.475-1.101Zm4.295 5.614c3.891 0 5.833-0.978 5.833-2.933V8.162c0-1.955-1.942-2.931-5.833-2.932-3.883 0-5.825 0.981-5.825 2.932v2.681c0 1.955 1.942 2.936 5.825 2.937m17.322-2.876V5.273h-1.53v5.638c0 0.394-0.209 0.707-0.624 0.915-0.698 0.358-1.683 0.537-2.958 0.537a7.526 7.526 0 0 1-2.349-0.34c-0.817-0.273-1.227-0.641-1.228-1.112v-5.636h-1.53v5.624c0 1.081 0.606 1.873 1.821 2.381 0.894 0.365 1.988 0.557 3.285 0.557a8.732 8.732 0 0 0 3.293-0.545c1.214-0.498 1.821-1.298 1.82-2.393m3.717-5.363h0.013a0.046 0.046 0 0 0 0.033-0.017z m-1.047 2.616c0-0.386 0.207-0.682 0.631-0.907 0.744-0.391 1.817-0.582 3.219-0.582 0.608 0 1.259 0.066 1.965 0.209L39.718 5.444a11.354 11.354 0 0 0-2.424-0.214c-1.052 0-1.983 0.104-2.787 0.304-1.745 0.486-2.619 1.356-2.619 2.619v5.627h1.556zM9.876 15.599a12.514 12.514 0 0 0-2.399 0.22l0.3 1.413a12.012 12.012 0 0 1 2.095-0.22c0.861 0 1.671 0.115 2.453 0.35 0.94 0.274 1.413 0.644 1.413 1.092v2.679c0 0.457-0.444 0.818-1.331 1.081a9.123 9.123 0 0 1-2.531 0.315 9.064 9.064 0 0 1-2.53-0.32c-0.896-0.263-1.331-0.624-1.331-1.081v-7.391c0.345 0.016 0.69 0.041 1.068 0.041v-1.747a19.591 19.591 0 0 1-2.808-0.411c-1.438-0.322-2.153-0.734-2.153-1.232V5.812h4.979V4.1H2.119V0H0.282v10.385c0 1.761 1.467 2.83 4.354 3.217v7.542c0 1.906 1.745 2.856 5.242 2.856 3.492 0 5.238-0.948 5.239-2.856v-2.681c0-1.913-1.747-2.869-5.239-2.869m16.649 5.422c0 0.465-0.495 0.83-1.484 1.101a11.111 11.111 0 0 1-2.82 0.332 11.058 11.058 0 0 1-2.819-0.332c-0.986-0.271-1.479-0.636-1.479-1.101v-2.683c0-0.46 0.493-0.831 1.479-1.098a10.812 10.812 0 0 1 2.819-0.332c1.052 0 1.996 0.107 2.82 0.332 0.989 0.271 1.484 0.636 1.484 1.098z m-4.305-5.615c-3.888 0-5.828 0.981-5.829 2.932v2.681c0 1.955 1.941 2.936 5.83 2.937 3.888 0 5.83-0.983 5.83-2.937v-2.681c0-1.955-1.942-2.931-5.83-2.932m15.888 0.845c0 0.486-0.562 0.997-1.684 1.535-0.927 0.386-1.635 0.664-2.104 0.831a28.915 28.915 0 0 1-2.113-0.831c-1.122-0.542-1.676-1.048-1.676-1.532v-0.805h-1.528v0.805c0 0.733 0.365 1.393 1.101 1.972 0.424 0.345 1.122 0.744 2.103 1.196-2.133 1.098-3.201 2.366-3.201 3.793v0.739h1.525v-0.739c0-0.582 0.493-1.2 1.486-1.846a11.127 11.127 0 0 1 2.317-1.156c0.859 0.329 1.623 0.707 2.293 1.156 0.986 0.647 1.479 1.264 1.479 1.846v0.739h1.532v-0.739c0-1.426-1.065-2.695-3.204-3.793 0.986-0.452 1.686-0.851 2.109-1.196 0.728-0.582 1.094-1.239 1.095-1.972v-0.805h-1.53z m0 0"/></svg>