<svg fill="#EB0A1E" role="img" viewBox="0 0 36 24" xmlns="http://www.w3.org/2000/svg"><title>Toyota</title><path d="M18 0C8.024 0 0.336 5.079 0.336 12c0 6.921 7.69 12 17.664 12S35.664 18.921 35.664 12c0-6.921-7.688-12-17.664-12z m10.796 5.651c0 1.59-2.539 2.816-6.607 3.306-0.383-3.798-1.479-6.299-2.889-7.232 4.34 0.271 9.495 1.806 9.494 3.926zM18 18.478c-1.413 0-2.57-2.208-2.661-6.46 0.849 0.069 1.737 0.106 2.661 0.106 0.924 0 1.811-0.037 2.66-0.106-0.09 4.254-1.247 6.461-2.66 6.46z m0-9.285c-0.868 0-1.7-0.028-2.488-0.08 0.384-2.544 1.354-4.637 2.488-4.637 1.133 0 2.102 2.093 2.486 4.637-0.788 0.05-1.618 0.079-2.486 0.08z m-1.298-7.471c-1.407 0.932-2.511 3.434-2.891 7.235C9.743 8.467 7.203 7.241 7.203 5.651c0-2.12 5.158-3.665 9.499-3.929zM3.334 11.529a7.75 7.75 0 0 1 1.543-4.658c0.397 2.277 3.712 4.241 8.791 4.961V12c0 5.553 1.294 9.131 3.072 10.26-7.518-0.473-13.406-5.123-13.406-10.731z m15.932 10.731c1.777-1.129 3.072-4.708 3.072-10.26v-0.169c5.074-0.718 8.396-2.688 8.791-4.961a7.743 7.743 0 0 1 1.544 4.659c-0.006 5.608-5.9 10.259-13.409 10.731z"/></svg>