<svg fill="#000000" role="img" viewBox="0 0 25 24" xmlns="http://www.w3.org/2000/svg"><title>Traccar</title><path d="M6.501 1.61C0.762 4.923-1.204 12.26 2.11 17.999c3.313 5.739 10.651 7.705 16.389 4.392 5.739-3.313 7.705-10.651 4.391-16.39C19.577 0.262 12.24-1.704 6.501 1.61m0.706 1.222c5.064-2.923 11.538-1.188 14.461 3.875 2.923 5.064 1.188 11.538-3.874 14.461-5.064 2.923-11.538 1.188-14.462-3.874C0.409 12.23 2.144 5.756 7.207 2.832m3.914 14.315a3.768 3.768 0 1 1-3.768-6.526l1.884 3.263Zm5.725-11.395l-1.176 1.495c0.665 0.511 1.279 1.156 1.725 1.927s0.697 1.626 0.807 2.458l1.882-0.272c-0.141-1.074-0.483-2.132-1.058-3.128-0.575-0.997-1.32-1.822-2.18-2.48M14.574 8.763l-1.176 1.495c0.275 0.216 0.548 0.479 0.733 0.8 0.185 0.321 0.276 0.69 0.326 1.036l1.883-0.272c-0.08-0.588-0.262-1.161-0.577-1.706-0.315-0.545-0.72-0.99-1.189-1.353Zm-3.832 3.708a0.942 0.942 0 1 0 1.884 0 0.942 0.942 0 1 0-1.884 0"/></svg>