<svg fill="#9D0FB0" role="img" viewBox="0 0 40 24" xmlns="http://www.w3.org/2000/svg"><title>Traefik Mesh</title><path d="M14.535 0.17l0.056 0.033 4.798 2.704a1.075 1.075 0 0 0 1.059 0l4.757-2.678a1.616 1.616 0 0 1 1.642 2.786l-0.053 0.033-2.751 1.551a0.538 0.538 0 0 0 0 0.935l7.422 4.187a1.075 1.075 0 0 0 1.059 0l4.586-2.591a1.618 1.618 0 0 1 1.645 2.786l-0.057 0.033-2.582 1.45a0.538 0.538 0 0 0 0 0.942l2.597 1.461a1.618 1.616 90 0 1-1.532 2.848l-0.057-0.033-4.604-2.592a1.075 1.075 0 0 0-1.059 0l-7.502 4.228a0.538 0.538 0 0 0 0 0.937l3.103 1.746a1.618 1.618 0 0 1-1.531 2.848l-0.057-0.029-5.104-2.879a1.075 1.075 0 0 0-1.059 0L14.161 23.781a1.616 1.616 0 0 1-1.639-2.786l0.053-0.032 3.145-1.773a0.538 0.538 0 0 0 0-0.937l-7.436-4.19a1.075 1.075 0 0 0-1.059 0l-4.381 2.46a1.618 1.618 0 0 1-1.637-2.788l0.055-0.029 2.366-1.331a0.538 0.538 0 0 0 0-0.94l-2.363-1.331a1.616 1.616 0 0 1 1.533-2.845l0.054 0.029 4.375 2.469a1.075 1.075 0 0 0 1.059 0l7.505-4.23a0.538 0.538 0 0 0 0-0.938l-2.787-1.569a1.618 1.616 90 0 1 1.531-2.848Zm4.85 7.045l-7.509 4.22a0.538 0.538 0 0 0 0 0.945l7.435 4.187a1.075 1.075 0 0 0 1.059 0l7.504-4.228a0.538 0.538 0 0 0 0-0.94l-7.426-4.187a1.075 1.075 0 0 0-1.059 0z"/></svg>