<svg fill="#24A1C1" role="img" viewBox="0 0 27 24" xmlns="http://www.w3.org/2000/svg"><title>Traefik Proxy</title><path d="M13.5 0.001c1.208 0 2.282 0.852 2.282 1.903 0 1.051-1.022 1.904-2.282 1.903-0.144 0-0.333-0.024-0.565-0.071a0.76 0.76 0 0 0-0.527 0.085l-8.181 4.656a0.382 0.382 0 0 0 0.001 0.663l8.869 4.983c0.231 0.129 0.512 0.129 0.743 0l8.917-4.959a0.381 0.381 0 0 0 0.004-0.664l-2.783-1.58a0.758 0.758 0 0 0-0.744-0.004l-2.938 1.63a0.26 0.26 0 0 0-0.132 0.2l-0.001 0.027c0 1.05-1.022 1.903-2.282 1.903s-2.282-0.852-2.282-1.903c0-1.051 1.022-1.904 2.282-1.903 0.047 0 0.1 0.002 0.161 0.007l0.096 0.009 0.107 0.015a0.76 0.76 0 0 0 0.472-0.089l4.343-2.412c0.333-0.184 0.735-0.19 1.071-0.019l0.045 0.026 6.066 3.445c0.761 0.433 0.769 1.518 0.033 1.968l-0.041 0.023-4.058 2.257a0.381 0.381 0 0 0 0.008 0.67l4.018 2.116c0.799 0.42 0.817 1.556 0.033 2.002l-12.204 6.962a1.143 1.143 0 0 1-1.131 0L0.764 16.917a1.143 1.143 0 0 1 0.038-2.004l4.062-2.121a0.381 0.381 0 0 0 0.011-0.67L0.762 9.812a1.143 1.143 0 0 1-0.046-1.964l0.04-0.024L10.856 2.077a0.764 0.764 0 0 0 0.342-0.41l0.012-0.04c0.355-1.057 1.161-1.627 2.29-1.627Zm5.634 14.019l-4.986 2.871-0.045 0.024c-0.34 0.175-0.745 0.169-1.08-0.02l-4.971-2.805a0.757 0.757 0 0 0-0.721-0.011L4.465 15.579a0.381 0.381 0 0 0-0.014 0.668l8.755 5.012c0.233 0.133 0.518 0.134 0.751 0l8.831-5.048a0.381 0.381 0 0 0-0.011-0.668l-2.911-1.536a0.758 0.758 0 0 0-0.732 0.013z"/></svg>