<svg fill="#DA291C" role="img" viewBox="0 0 44 24" xmlns="http://www.w3.org/2000/svg"><title>TrainerRoad</title><path d="M37.012 15.693c0.284-0.116 0.797-0.36 0.923-0.424 2.001-1.014 3.477-2.213 4.383-3.561 0.954-1.369 1.449-3.003 1.413-4.67 0-2.269-0.826-3.972-2.532-5.205-1.67-1.21-4.03-1.759-7.016-1.833H2.725L0.267 5.518h10.012c0.025 0 0.051 0.009 0.069 0.029a0.036 0.036 0 0 1 0.007 0.035L5.311 20.784h6.643c0.114 0 0.217-0.074 0.254-0.185l4.996-15.037a0.078 0.078 0 0 1 0.076-0.044l5.113 0.002c0.025 0 0.051 0.009 0.069 0.027a0.036 0.036 0 0 1 0.007 0.035L17.423 20.784h6.645c0.116 0 0.217-0.076 0.254-0.187l1.344-4.093a0.078 0.078 0 0 1 0.076-0.043s4.441 0.009 4.44 0.005c1.565 2.468 3.273 5.212 4.738 7.534l6.962-0.004c0.214 0 0.344-0.235 0.226-0.414l-5.129-7.826c-0.018-0.04 0.024-0.045 0.033-0.063z m-0.815-6.076c-0.791 0.746-2.146 1.108-3.918 1.108h-4.677l1.724-5.205 4.261 0.002c2.065 0.031 3.307 0.931 3.329 2.421 0.013 0.634-0.25 1.246-0.719 1.674z"/></svg>