<svg fill="#0064AB" role="img" viewBox="0 0 29 24" xmlns="http://www.w3.org/2000/svg"><title>Transifex</title><path d="M23.941 12.995l-3.225-3.224 4.353-4.279a0.386 0.386 0 0 1 0.546 0.003l2.654 2.701a0.386 0.386 0 0 1-0.004 0.547z m0 0h-0.001z m-10.572-7.523l15.051 15.05c0.151 0.152 0.151 0.398 0 0.548l-2.677 2.677a0.387 0.387 0 0 1-0.547 0l-6.044-6.044-3.348 3.292c-0.706 0.693-1.455 1.355-2.31 1.861a8.229 8.229 0 0 1-2.629 0.971c-2.562 0.491-5.329-0.055-7.371-1.717A8.262 8.262 0 0 1 0.467 15.75V0.386a0.386 0.386 0 0 1 0.387-0.386h3.785a0.386 0.386 0 0 1 0.387 0.386v4.824H8.244c0.208 0 0.378 0.17 0.377 0.378v4.23a0.378 0.378 0 0 1-0.377 0.377H5.026v5.555c0 1.488 0.945 2.841 2.325 3.384 0.881 0.345 1.891 0.375 2.803 0.153 0.996-0.241 1.735-0.839 2.453-1.543l3.32-3.265-5.783-5.783a0.387 0.387 0 0 1 0-0.547l2.677-2.677a0.389 0.389 0 0 1 0.548 0"/></svg>