<svg fill="#5FCF80" role="img" viewBox="0 0 23 24" xmlns="http://www.w3.org/2000/svg"><title>Treehouse</title><path d="M19.898 4.386c-0.821-0.448-2.09 0.299-2.837 1.642l-1.418 2.389c-0.523 0.97-0.448 2.165 0.224 3.135l0.075 0.075c0.672 0.896 1.493 1.792 1.791 2.09 0.149 0.149 0.299 0.373 0.373 0.672 0.224 0.821-0.224 1.717-1.119 1.941-0.821 0.224-1.717-0.224-1.941-1.12-0.075-0.224-0.075-0.448-0.075-0.597 0.075-0.373-0.075-0.896-0.597-1.493-0.522-0.523-1.493 0.522-1.866 1.567v0.075c-0.299 1.045-0.523 2.015-0.448 2.09 0 0.075 0.075 0.075 0.074 0.15 0.448 0.896 0.149 1.941-0.746 2.388-0.896 0.448-1.941 0.149-2.389-0.746-0.448-0.896-0.149-1.941 0.747-2.389 0.075 0 0.075-0.075 0.149-0.075 0.075 0 0.224-0.448 0.448-1.045 0.149-0.522 0.224-0.747 0.298-0.97 0.075-0.299 0.224-1.045 0.15-1.344-0.075-0.373-0.448-0.373-0.821-0.149-0.224 0.149-0.672 0.522-0.822 0.672-0.373 0.299-0.672 0.747-0.821 1.12-0.075 0.149-0.224 0.373-0.373 0.522-0.672 0.523-1.642 0.448-2.239-0.224-0.522-0.672-0.448-1.642 0.224-2.239 0.224-0.149 0.448-0.299 0.671-0.299 0.373-0.075 1.717-0.896 2.538-1.493 0.149-0.075 0.373-0.299 0.448-0.373 0.224-0.299 0-0.523-0.224-0.523-0.672 0.075-1.418 0.149-1.567 0.373-0.075 0.075-0.149 0.224-0.299 0.299-0.597 0.448-1.493 0.299-1.941-0.299-0.448-0.597-0.299-1.493 0.299-1.94 0.224-0.224 0.597-0.299 0.821-0.299 0.522 0 1.866 0.299 2.911 0.075l0.299-0.075c1.12-0.224 2.463-1.194 2.986-2.165 0 0 0.523-0.896 1.12-2.015 0.672-1.12 0.597-2.389-0.075-2.762l-1.269-0.747c-0.672-0.373-1.642-0.373-2.314 0L1.683 5.207C1.012 5.58 0.489 6.476 0.489 7.222v9.556c0 0.747 0.523 1.642 1.194 2.015L10.343 23.72c0.672 0.373 1.717 0.373 2.314 0l8.66-4.927c0.672-0.373 1.194-1.269 1.194-2.015V7.222c0-0.747-0.523-1.642-1.194-2.015 0 0-0.597-0.373-1.419-0.821z"/></svg>