<svg fill="#D71921" role="img" viewBox="0 0 25 24" xmlns="http://www.w3.org/2000/svg"><title>Trend Micro</title><path d="M12.5 0C5.88 0 0.5 5.37 0.5 12 0.5 14.45 1.234 16.72 2.5 18.62 2 17.45 2.08 15.94 2.69 14.29L2.7 14.25 2.75 14.12 2.8 14 2.82 13.95C3.04 13.4 3.32 12.83 3.66 12.26 3.71 12.16 3.75 12.07 3.8 12L2.36 12 2.71 11.21C3.9 10.88 5.88 10.22 7.77 8.39L7.82 8.39H8.82L7.53 11.14 9.6 11.14 9.22 11.96 7.16 11.96S6.19 13.9 5.86 15.28C5.61 16.82 5.86 18 7.24 18.41 8.09 18.67 9.16 18.61 10.31 18.29 13 17.45 15.84 15.62 17.93 13.18 21.37 9.19 21.44 5.1 18.08 4.05 15.93 3.38 12.89 4.13 10.08 5.8 13.58 3.54 17.44 2.5 20.09 3.31 20.59 3.46 21.03 3.68 21.39 3.94A11.97 11.97 0 0 0 12.5 0M22.67 5.63C23.5 7.81 22.47 11.07 19.7 14.29 15.54 19.13 8.97 22.05 5 20.83A4.46 4.46 0 0 1 3.74 20.21 11.96 11.96 0 0 0 12.5 24C19.13 24 24.5 18.63 24.5 12 24.5 9.66 23.83 7.5 22.67 5.63Z"/></svg>