<svg fill="#000000" role="img" viewBox="0 0 26 24" xmlns="http://www.w3.org/2000/svg"><title>Treyarch</title><path d="M2.509 23.931C0.628 23.657-0.247 22.509 0.067 20.73a7.194 7.194 0 0 1 0.953-2.478c1.438-2.299 3.466-4.219 5.74-5.432 0.602-0.322 2.037-0.935 2.187-0.935 0.032 0 0.115 0.251 0.181 0.559 0.103 0.479 0.206 0.693 0.726 1.513 0.334 0.525 0.636 0.983 0.671 1.019 0.092 0.092 0.178-0.51 0.178-1.249v-0.619l0.27 0.501c0.318 0.587 0.637 1.061 0.805 1.201 0.065 0.054 0.006-0.108-0.132-0.36-1.063-1.942-1.754-4.619-1.757-6.808-0.002-2.169 0.528-3.85 1.535-4.86 0.481-0.483 0.88-0.68 1.462-0.723 1.083-0.078 1.893 0.688 2.421 2.289 0.087 0.267 0.141 0.506 0.116 0.528-0.024 0.025-0.043-0.003-0.043-0.063 0-0.057-0.144-0.401-0.319-0.761-0.36-0.739-0.851-1.32-1.286-1.518-0.278-0.128-0.822-0.18-0.914-0.089-0.025 0.025 0.144 0.249 0.376 0.498 0.522 0.557 0.937 1.375 1.19 2.345 0.164 0.628 0.191 0.895 0.22 2.211 0.063 2.758-0.379 4.772-1.396 6.347-0.429 0.667-0.494 0.6-0.09-0.094 0.167-0.287 0.295-0.611 0.32-0.814 0.024-0.186 0.028-0.339 0.012-0.339s-0.119 0.16-0.23 0.356c-0.178 0.316-0.227 0.357-0.439 0.358h-0.238l0.145 0.232 0.145 0.235-0.647 0.854c-0.537 0.708-0.992 1.289-1.277 1.627-0.051 0.06-0.802-1.151-1.174-1.889a7.084 7.084 0 0 0-0.213-0.406c-0.051-0.057-1.318 0.595-1.872 0.962-1.688 1.123-2.805 2.967-2.339 3.867 0.344 0.665 1.875 0.401 3.429-0.596 0.196-0.125 0.602-0.426 0.902-0.667 0.3-0.242 0.615-0.44 0.699-0.44 0.088 0 0.322-0.158 0.544-0.368 0.213-0.201 0.405-0.351 0.425-0.331 0.065 0.066-1.991 2.011-2.679 2.534-1.692 1.283-3.162 1.779-4.197 1.414-0.287-0.102-0.295-0.101-0.293 0.054 0.002 0.242 0.249 0.73 0.437 0.866 0.165 0.119 0.16 0.119-0.189 0.072-1.055-0.145-1.675-0.78-1.676-1.714 0-0.417 0.231-1.262 0.516-1.885 0.644-1.406 2.595-3.336 4.001-3.956 0.321-0.141 0.453-0.269 0.892-0.852 0.403-0.537 0.491-0.695 0.405-0.729-0.139-0.053-0.36 0.032-1.415 0.556-2.968 1.467-5.021 3.682-5.625 6.07-0.25 0.992-0.084 2.13 0.396 2.715l0.166 0.202-0.034-0.881c-0.028-0.738-0.01-0.979 0.116-1.475 0.147-0.584 0.533-1.476 0.758-1.757 0.082-0.101 0.075-0.058-0.026 0.149-0.43 0.888-0.576 1.916-0.372 2.616 0.33 1.138 1.858 1.692 3.509 1.27 1.126-0.287 2.57-1.094 4.06-2.27 0.975-0.769 3.076-2.912 3.655-3.725 1.766-2.487 2.686-6.261 2.328-9.574-0.283-2.623-1.446-4.437-3.059-4.77a4.956 4.956 0 0 1-0.672-0.192c-0.238-0.095-0.26-0.119-0.143-0.166 0.363-0.141 1.264-0.05 1.843 0.19 0.097 0.041 0.121 0.032 0.084-0.028-0.102-0.165-0.585-0.314-1.184-0.366l-0.606-0.053 0.499-0.011 0.499-0.013-0.28-0.149c-0.225-0.119-0.354-0.139-0.66-0.102-0.753 0.089-1.708 0.554-2.383 1.163-0.467 0.421-0.213 0.016 0.322-0.516 1.191-1.178 2.802-1.404 4.459-0.622 0.621 0.292 1.458 1.083 1.848 1.744 0.48 0.817 0.834 1.909 1.023 3.16 0.206 1.358 0.061 4.332-0.289 5.935l-0.128 0.585 0.684 0.225c0.661 0.217 1.814 0.707 1.769 0.752-0.011 0.012-0.39-0.119-0.839-0.291-0.449-0.172-0.832-0.298-0.849-0.279-0.082 0.081 1.509 1.571 2.064 1.934 2.138 1.393 3.574 2.942 3.816 4.12 0.025 0.119-0.035 0.029-0.132-0.199-0.429-1.007-1.137-1.866-2.324-2.821-1.49-1.199-3.222-2.171-4.267-2.397-0.486-0.105-0.197 0.08 0.604 0.39 2.085 0.801 4.076 2.297 5.214 3.917 0.825 1.175 0.944 2.311 0.285 2.714-0.352 0.214-1.249 0.198-2.205-0.041-0.638-0.16-2.959-1.012-2.901-1.065 0.011-0.009 0.245 0.041 0.519 0.112 1.482 0.39 2.323-0.016 2.228-1.077-0.126-1.381-1.749-2.946-3.894-3.753-0.25-0.094-0.462-0.162-0.47-0.152a49.785 49.785 0 0 1-1.12 1.936l-0.557 0.918 0.169 0.295a2.166 2.166 0 0 1 0.219 0.652c0.087 0.629 0.264 0.921 0.798 1.314 1.172 0.861 2.899 1.691 4.245 2.038 0.365 0.094 0.596 0.173 0.512 0.176-0.204 0.004-1.391-0.311-1.881-0.501-1.177-0.455-2.25-1.076-3.772-2.184-0.754-0.548-1.042-0.722-1.084-0.654-0.069 0.112 0.126 0.289 1.113 1.016 2.123 1.564 5.063 2.754 6.803 2.754 1.074 0 1.754-0.368 2.145-1.162a3.119 3.119 0 0 0 0.278-0.91l0.055-0.46 0.099 0.32c0.107 0.347 0.141 1.678 0.052 2.033-0.054 0.211-0.052 0.211 0.087-0.037 0.567-1.004 0.585-2.441 0.047-3.66a10.819 10.819 0 0 0-0.535-0.975c-0.441-0.72-0.179-0.441 0.421 0.447 1.029 1.524 1.495 3.032 1.296 4.191a3.529 3.529 0 0 1-0.259 0.839c-0.336 0.655-1.069 1.205-1.931 1.448-0.523 0.147-2.128 0.131-2.877-0.029-2.345-0.501-5.399-2.209-7.569-4.232l-0.395-0.368-0.713 0.692c-1.855 1.798-3.617 2.984-5.243 3.528-0.701 0.234-1.772 0.445-2.74 0.541-0.877 0.086-1.109 0.084-1.714-0.004zM14.05 10.906c0.426-1.917 0.364-4.174-0.146-5.315-0.661-1.48-1.891-1.079-2.256 0.736-0.167 0.83-0.206 1.733-0.121 2.762 0.068 0.827 0.231 1.937 0.325 2.209 0.022 0.065 0.3 0.089 1.061 0.089h1.03z m7.055 10.418a0.64 0.64 0 0 1 0.249 0c0.069 0.015 0.013 0.032-0.125 0.033-0.136 0-0.193-0.017-0.124-0.033z m2.856-2.411c0-0.197 0.014-0.269 0.03-0.161 0.016 0.108 0.016 0.269 0 0.358-0.017 0.087-0.031-0.001-0.03-0.198zM8.436 9.834c-0.29-1.23-0.351-1.841-0.312-3.104 0.027-0.845 0.078-1.321 0.189-1.765 0.148-0.595 0.507-1.662 0.544-1.625 0.011 0.01-0.005 0.159-0.037 0.328-0.032 0.173-0.026 0.427 0.013 0.582 0.055 0.217 0.037 0.396-0.086 0.869-0.206 0.78-0.279 2.788-0.139 3.738 0.052 0.351 0.084 0.669 0.073 0.709a4.57 4.57 0 0 0-0.021 0.553c0.001 0.265-0.009 0.482-0.021 0.482-0.011 0-0.103-0.345-0.203-0.767z"/></svg>