<svg fill="#000000" role="img" viewBox="0 0 29 24" xmlns="http://www.w3.org/2000/svg"><title>Trilium</title><path d="M13.131 22.18c-0.931-0.866-0.971-1.749-1.044-1.899-0.094 0.295-0.15 0.485-0.164 1.016-0.904-0.876-1.537-1.889-1.57-3.102-0.044-1.627 0.687-2.214 0.682-2.212 0.001 0-0.568 0.293-1.073 0.708 0.371-2.182 1.721-4.222 3.701-4.782-0.627 1.47-0.852 3.049-0.685 4.636-0.728 0.77-1.067 1.694-1.063 2.627 0.091-0.934 0.494-1.701 1.11-2.267 0.253 1.789 1 3.554 2.221 5.1-0.82-1.182-2.189-3.906-1.665-7.093 1.035 0.518 1.833 1.412 2.242 2.678-0.269-1.267-0.991-2.358-2.183-3.112 0.14-0.903 0.381-1.782 0.712-2.607 0.548 0.081 2.646 0.71 3.237 4.732-0.429-0.23-0.836-0.358-0.836-0.358 0.011 0.004 0.266 0.214 0.534 1.295 0.246 0.947 0.118 2.095-0.003 2.968-0.448-0.204-0.829-0.33-0.829-0.33 0 0 0.45 0.389 0.596 1.532 0.131 1.02 0.127 2.306 0.147 2.29 0.008 0-2.509-0.37-4.067-1.82M3.966 4.624c1.277-0.371 2.09 0.057 2.264 0.071-0.214-0.239-0.355-0.388-0.824-0.679 1.271-0.342 2.519-0.371 3.626 0.236 1.484 0.816 1.618 1.774 1.619 1.769 0 0.001 0.042-0.658-0.06-1.325 1.759 1.476 2.866 3.748 2.307 5.799-0.983-1.329-2.279-2.359-3.793-3.044-0.301-1.051-0.949-1.838-1.788-2.326 0.789 0.572 1.262 1.333 1.439 2.178-1.741-0.716-3.726-0.981-5.768-0.71 1.501-0.107 4.679 0.11 7.258 2.251-1.02 0.647-2.25 0.885-3.605 0.582 1.281 0.427 2.647 0.36 3.963-0.302a12.332 12.332 0 0 1 1.958 2.002c-0.367 0.444-2.055 1.975-5.982 0.386 0.436-0.259 0.769-0.554 0.769-0.554-0.01 0.007-0.334 0.124-1.449-0.206-0.982-0.28-1.943-0.997-2.661-1.563 0.423-0.29 0.741-0.562 0.741-0.563 0 0-0.59 0.195-1.695-0.275C1.299 7.931 0.148 7.251 0.151 7.278c-0.005 0.007 1.678-2.033 3.815-2.654m19.392-4.331c-1.683-0.052-2.554 0.735-2.765 0.809 0.192-0.363 0.32-0.591 0.809-1.101-1.666-0.017-3.211 0.343-4.389 1.445-1.581 1.479-1.458 2.704-1.461 2.698 0 0.001-0.249-0.799-0.325-1.654-1.72 2.381-2.4 5.537-1.095 7.891 0.81-1.953 2.095-3.636 3.752-4.964 0.055-1.393 0.615-2.57 1.501-3.439-0.799 0.957-1.152 2.046-1.116 3.145 1.927-1.438 4.289-2.396 6.883-2.71-1.878 0.345-3.58 1.094-5.068 2.115 0.931 0.425 1.994 0.492 3.112 0.102-1.071 0.502-2.261 0.584-3.464 0.147-1.068 0.782-2.018 1.706-2.834 2.722 1.449 0.474 3.035 0.376 4.612-0.428-1.448 0.935-3.15 1.286-4.967 0.888a15.999 15.999 0 0 0-1.807 3.094c0.585 0.431 3.123 1.784 7.476-1.427-0.615-0.182-1.113-0.439-1.113-0.439 0.014 0.006 0.449 0.046 1.72-0.715 1.124-0.657 2.091-1.848 2.805-2.776-0.607-0.224-1.08-0.458-1.08-0.459 0 0 0.785 0.053 2.002-0.879 1.086-0.832 2.299-2.037 2.303-2.003 0.008 0.007-2.675-1.975-5.491-2.061"/></svg>