<svg fill="#FF0089" role="img" viewBox="0 0 20 24" xmlns="http://www.w3.org/2000/svg"><title>Triller</title><path d="M13.547 5.216L5.004 20.012l-0.29-0.167 8.54-14.788a9.365 9.365 0 0 0-6.07-0.906L0.729 15.333l-0.609 1.055a9.34 9.34 0 0 0 3.818 4.806l-1.522 2.64 0.289 0.166 2.303-3.987h-0.002a9.367 9.367 0 0 0 6.068 0.905l6.321-10.945 0.287 0.167-6.168 10.683-0.964 1.67a9.322 9.322 0 0 0 7.55-7.555 9.267 9.267 0 0 0-0.413-4.802l2.299-3.982-0.29-0.167L18.139 8.68a9.343 9.343 0 0 0-3.816-4.806z m-5.842-2.64a9.324 9.324 0 0 0-7.132 12.359L6.892 3.989l0.292 0.162L9.482 0.167 9.192 0z"/></svg>