<svg fill="#DD00A1" role="img" viewBox="0 0 17 24" xmlns="http://www.w3.org/2000/svg"><title>Trino</title><path d="M10.624 16.853a0.162 0.162 0 1 1 0.158 0.161 0.158 0.158 0 0 1-0.158-0.161z m-5.607-0.158a0.161 0.161 0 1 0 0 0.323 0.161 0.161 0 0 0 0-0.323z m10.134-0.664v1.986c-0.031 0.579-0.524 1.024-1.103 0.996h-0.384a5.06 5.06 0 0 1-1.13 1.718 0.319 0.319 0 0 0 0 0.465l0.238 0.219a0.304 0.304 0 0 1 0.039 0.43c-1.126 1.383-2.967 2.152-5.05 2.152a6.575 6.575 0 0 1-4.819-1.898c-0.003-0.003-0.006-0.006-0.009-0.01a0.63 0.63 0 0 1 0.055-0.889c0.137-0.127 0.137-0.346 0-0.473a4.944 4.944 0 0 1-1.126-1.714h-0.35c-0.58 0.028-1.074-0.416-1.107-0.996v-1.986c0.035-0.578 0.529-1.02 1.107-0.992h0.273a5.765 5.765 0 0 1 2.079-3.094c-0.423-1.099-1.153-3.255-1.226-5.007C2.523 4.471 2.719 0.078 4.325 0.001c1.606-0.077 1.372 4.027 1.099 6.695a32.732 32.732 0 0 0-0.123 4.45 6.994 6.994 0 0 1 2.483-0.43 7.241 7.241 0 0 1 1.737 0.207c0.261-1.268 0.876-3.574 2.029-5.196 1.672-2.352 3.436-4.781 4.612-4.1 1.176 0.68-0.307 3.14-1.33 4.427-1.022 1.287-2.786 3.209-3.374 4.227-0.211 0.384-0.43 0.803-0.596 1.153a5.737 5.737 0 0 1 2.917 3.613h0.073v-2.306a0.307 0.307 0 0 0-0.18-0.285 0.915 0.915 0 0 1-0.558-0.814 1.018 1.018 0 0 1 0.905-0.905c0.559-0.06 1.061 0.345 1.121 0.905a0.919 0.919 0 0 1-0.554 0.814 0.307 0.307 0 0 0-0.169 0.285v2.152a0.311 0.311 0 0 0 0.169 0.281 0.972 0.972 0 0 1 0.565 0.857z m-1.022-3.974a0.434 0.434 0 0 0 0.461-0.415 0.415 0.415 0 1 0-0.461 0.415z m-0.423 3.478c0.098 0.479 0.148 0.967 0.15 1.456v0.365h0.411a0.323 0.323 0 0 0 0.323-0.319v-1.007c-0.011-0.297-0.273-0.526-0.569-0.495h-0.315z m-3.728-4.481l0.611 0.238a36.605 36.605 0 0 1 2.383-3.866c1.287-1.726 2.337-3.582 1.872-3.87-0.465-0.288-1.618 1.23-2.771 3.109a34.898 34.898 0 0 0-2.095 4.389z m-4.054 0.672l0.015 1.334c-0.004 0.201 0.188 0.359 0.385 0.315a6.432 6.432 0 0 1 1.456-0.165 5.995 5.995 0 0 1 1.453 0.173c0.196 0.04 0.385-0.115 0.384-0.315v-1.342a0.319 0.319 0 0 0-0.242-0.311 6.664 6.664 0 0 0-1.603-0.184 6.709 6.709 0 0 0-1.602 0.184 0.319 0.319 0 0 0-0.246 0.311z m1.706 6.864v0.384a0.688 0.688 0 0 1-0.499 0.269c-0.307 0-0.538-0.419-0.538-0.419a0.073 0.073 0 0 0-0.1-0.03l-0.003 0.001a0.069 0.069 0 0 0-0.024 0.095c0.011 0.023 0.281 0.496 0.665 0.495a0.714 0.714 0 0 0 0.384-0.126 0.327 0.327 0 0 1 0.361 0 0.833 0.833 0 0 0 0.473 0.134 0.957 0.957 0 0 0 0.657-0.48 0.069 0.069 0 0 0-0.027-0.096 0.069 0.069 0 0 0-0.1 0.027c0 0.023-0.219 0.384-0.542 0.407a0.804 0.804 0 0 1-0.576-0.269v-0.384a0.315 0.315 0 0 1 0.127-0.254c0.196-0.15 0.415-0.396 0.415-0.492a0.538 0.538 0 0 0-0.577-0.419c-0.377 0-0.653 0.25-0.653 0.458 0 0.135 0.254 0.338 0.423 0.461a0.323 0.323 0 0 1 0.134 0.238zM4.283 11.646l0.576-0.308c-0.019-1.126-0.035-3.144 0-4.542 0.054-2.037 0.154-4.573-0.522-4.547S3.188 4.229 3.449 7.007a33.056 33.056 0 0 0 0.834 4.639z m-3.305 5.391a0.319 0.319 0 0 0 0.319 0.319h0.4a3.046 3.046 0 0 1 0-0.365 7.546 7.546 0 0 1 0.146-1.456c-0.049 0-0.34 0.001-0.387-0.002a0.488 0.488 0 0 0-0.478 0.498v1.006z m0.918 1.472a5.325 5.325 0 0 1-0.123-0.557 0.323 0.323 0 0 0-0.319-0.273h-0.495c0.001 0.016-0.002 0.34 0.001 0.355a0.519 0.519 0 0 0 0.552 0.483l0.384-0.008z m10.127 2.917l-0.089-0.08a0.323 0.323 0 0 0-0.384-0.027 6.982 6.982 0 0 1-3.804 1.006 6.995 6.995 0 0 1-3.794-1.006 0.323 0.323 0 0 0-0.384 0.027l-0.088 0.08a0.315 0.315 0 0 0 0 0.458 6.03 6.03 0 0 0 4.292 1.598 6.045 6.045 0 0 0 4.289-1.598 0.315 0.315 0 0 0-0.038-0.458z m1.449-4.416c0-2.456-1.153-4.327-3.025-5.226-0.208-0.102-0.467 0.059-0.465 0.292v1.33a0.327 0.327 0 0 0 0.204 0.296c1.733 0.711 2.928 2.187 2.928 3.877 0 2.271-2.156 3.808-5.342 3.809-3.186 0-5.342-1.541-5.342-3.809 0-1.691 1.195-3.167 2.929-3.877a0.319 0.319 0 0 0 0.204-0.296v-1.322c0.005-0.232-0.254-0.396-0.462-0.292-1.887 0.884-3.04 2.767-3.04 5.207 0 2.99 2.287 4.996 5.711 4.996 3.428 0 5.699-2.01 5.7-4.985z m-8.609-0.538h-0.004a0.584 0.584 0 1 0 0.004 0z m5.162 0.592c0.006 0.323 0.262 0.579 0.584 0.573a0.584 0.584 0 1 0-0.584-0.573z m4.569 0.623h-0.5a0.323 0.323 0 0 0-0.315 0.273c-0.035 0.173-0.077 0.377-0.127 0.557 0.016 0.001 0.386-0.001 0.402 0.001a0.519 0.519 0 0 0 0.536-0.501l0.004-0.33z"/></svg>