<svg fill="#287DFA" role="img" viewBox="0 0 52 24" xmlns="http://www.w3.org/2000/svg"><title>Trip.com</title><path d="M38.424 5.615c-1.448 0-2.747 0.66-3.635 1.701v-1.094h-3.637v17.778h4.04v-6.225c0.886 0.733 2.008 1.173 3.232 1.173 3.571 0 6.466-2.984 6.466-6.665s-2.896-6.666-6.466-6.666z m-0.404 9.617c-1.561 0-2.828-1.32-2.828-2.949s1.267-2.95 2.828-2.95c1.563 0 2.828 1.32 2.828 2.95s-1.265 2.95-2.828 2.949z m13.536 1.293a2.424 2.424 0 1 1-4.849 0 2.424 2.424 0 0 1 4.849 0zM28.566 2.263a2.262 2.262 0 1 1-4.525 0 2.262 2.262 0 0 1 4.525 0z m-4.282 3.959h4.039v12.122h-4.039V6.222zM14.99 3.96H9.738v14.384H5.696V3.96H0.444V0.563h14.546v3.395z m6.463 2.2c0.277 0 0.543 0.026 0.809 0.064v3.705a3.301 3.301 0 0 0-0.632-0.066c-1.874 0-3.395 1.303-3.395 3.393v5.088H14.183V6.222h3.635v1.916c0.773-1.188 2.11-1.981 3.635-1.98z"/></svg>