<svg fill="#34E0A1" role="img" viewBox="0 0 38 24" xmlns="http://www.w3.org/2000/svg"><title>Tripadvisor</title><path d="M19.009 0c-4.158 0-8.314 1.221-11.906 3.665H0.311l3.057 3.325a9.34 9.34 0 0 0 6.292 16.244 9.307 9.307 0 0 0 6.347-2.492L19 24l2.993-3.255a9.301 9.301 0 0 0 6.342 2.489 9.345 9.345 0 0 0 9.345-9.342 9.317 9.317 0 0 0-3.048-6.902L37.689 3.665h-6.775a21.139 21.139 0 0 0-11.905-3.665zM19 3.053c2.384 0 4.77 0.472 7.015 1.406C22.026 5.985 19 9.555 19 13.713c0-4.16-3.025-7.728-7.015-9.254A18.253 18.253 0 0 1 19 3.054zM9.659 7.572a6.322 6.322 0 1 1 0 12.643 6.322 6.322 0 0 1 0-12.643z m18.676 0.003a6.318 6.318 0 1 1 0.005 12.639 6.318 6.318 0 0 1-0.005-12.639z m-18.676 3.006a3.314 3.314 0 0 0 0 6.629 3.314 3.314 0 0 0 0-6.629z m18.676 0a3.314 3.314 0 0 0 0 6.629 3.314 3.314 0 0 0 0-6.629z"/></svg>