<svg fill="#2D004B" role="img" viewBox="0 0 81 24" xmlns="http://www.w3.org/2000/svg"><title>Trove</title><path d="M40.238 0.003c-4.681 0.118-8.421 4.076-8.354 8.757a8.515 8.515 0 0 0 5.924 8.039l0.84-3.774a4.785 4.785 0 0 1-2.94-4.392c0-2.967 2.742-5.357 5.78-4.691 1.882 0.41 3.34 1.949 3.68 3.841a4.768 4.768 0 0 1-2.87 5.235l0.84 3.774a8.525 8.525 0 0 0 5.928-8.159 8.593 8.593 0 0 0-8.828-8.63zM0.81 0.238a0.464 0.464 0 0 0-0.457 0.461v2.608c0 0.235 0.195 0.45 0.457 0.45h3.414v12.759a0.47 0.47 0 0 0 0.454 0.454h2.866a0.474 0.474 0 0 0 0.461-0.454V3.757h3.414a0.457 0.457 0 0 0 0.457-0.45v-2.608a0.464 0.464 0 0 0-0.457-0.461z m15.135 0a0.457 0.457 0 0 0-0.45 0.461v15.817c0 0.239 0.188 0.46 0.45 0.461h2.843a0.481 0.481 0 0 0 0.461-0.461v-6.089h1.646l3.176 6.331a0.437 0.437 0 0 0 0.383 0.219h3.182c0.403 0 0.571-0.386 0.407-0.696l-3.276-6.072c2.083-0.837 3.539-2.604 3.538-4.806 0-2.843-2.342-5.165-5.209-5.165z m34.801 0c-0.36 0-0.551 0.316-0.407 0.625l7.454 16.087a0.457 0.457 0 0 0 0.41 0.262h0.242c0.192 0 0.336-0.118 0.403-0.262l7.504-16.087c0.144-0.309-0.047-0.625-0.404-0.625h-3.179a0.47 0.47 0 0 0-0.406 0.266l-3.945 8.727h-0.145L54.328 0.507a0.47 0.47 0 0 0-0.403-0.265z m19.507 0a0.464 0.464 0 0 0-0.46 0.461v15.817c0 0.239 0.195 0.46 0.46 0.461h9.89a0.457 0.457 0 0 0 0.454-0.461v-2.604a0.45 0.45 0 0 0-0.454-0.454h-6.62v-3.226h5.45a0.45 0.45 0 0 0 0.454-0.457v-2.604a0.47 0.47 0 0 0-0.454-0.454h-5.454v-2.957h6.621a0.45 0.45 0 0 0 0.457-0.453v-2.608a0.457 0.457 0 0 0-0.454-0.461zM19.249 3.659h3.538c0.978 0 1.811 0.813 1.811 1.818 0 1.005-0.833 1.909-1.814 1.909H19.252zM0.629 20.488A0.45 0.45 0 0 0 0.175 20.939v2.604c0 0.239 0.188 0.454 0.454 0.454h35.58l0.779-3.512z m43.336 0l0.783 3.512h35.623a0.45 0.45 0 0 0 0.454-0.454v-2.604a0.45 0.45 0 0 0-0.454-0.454z"/></svg>