<svg fill="#4E71DA" role="img" viewBox="0 0 17 24" xmlns="http://www.w3.org/2000/svg"><title>TrueUp</title><path d="M12.67 4.8a1.2 1.2 0 1 0 0.06 2.4 1.2 1.2 0 0 0-0.06-2.4Zm-8.4 0a1.2 1.2 0 1 0 0.06 2.4 1.2 1.2 0 0 0-0.06-2.4ZM6.7 0a6.608 6.608 0 0 0-6.6 6.6v4.8A12.614 12.614 0 0 0 12.7 24h3.6a0.599 0.599 0 0 0 0.6-0.6V6.6A6.608 6.608 0 0 0 10.3 0Zm0 1.2h3.6a5.33 5.33 0 0 1 2.525 0.656A6.146 6.146 0 0 0 8.5 5.631a6.146 6.146 0 0 0-4.325-3.775A5.33 5.33 0 0 1 6.7 1.2ZM2.833 2.844C6.005 3.13 7.9 5.403 7.9 9a0.6 0.6 0 0 0 1.2 0c0-3.597 1.895-5.87 5.067-6.156A5.375 5.375 0 0 1 15.7 6.6v0.6c0 3.905-4.423 7.2-7.2 7.2s-7.2-3.295-7.2-7.2v-0.6c0-1.404 0.551-2.752 1.533-3.756ZM1.3 11.068C3.005 13.758 6.181 15.6 8.5 15.6c1.09 0 2.371-0.413 3.6-1.124V16.2c0 2.932 0.782 5.138 2.316 6.6H12.7A11.413 11.413 0 0 1 1.3 11.4Zm14.4 0v11.25c-1.609-1.21-2.4-3.218-2.4-6.118v-2.523a10.32 10.32 0 0 0 2.4-2.61z"/></svg>