<svg fill="#0A0B09" role="img" viewBox="0 0 94 24" xmlns="http://www.w3.org/2000/svg"><title>trulia</title><path d="M69.264 0.027a2.61 2.61 0 0 0 0.371 5.194 2.61 2.61 0 0 0 2.611-2.611 2.61 2.61 0 0 0-2.982-2.583z m-17.182 1.099v4.382h2.937v13.573h-2.937v4.382h10.266v-4.382h-2.937V1.126Zm-49.052 0.473v5.399H0.094v4.41h2.937v4.242c0 4.612 3.714 8.35 8.297 8.35a8.258 8.258 0 0 0 1.801-0.198v-4.359a4.31 4.31 0 0 1-1.5 0.268c-2.329 0-4.217-1.833-4.217-4.092v-4.211H13.13v-4.41H7.411V1.599Zm81.773 4.928c-4.357-0.02-7.894 3.833-7.892 8.563 0.002 4.73 3.535 8.581 7.892 8.562 0.114 0 0.234-0.004 0.343-0.008 1.65-0.043 3.423-0.82 4.351-1.907v1.649H93.906v-16.597h-4.407l-0.002 1.656c-0.932-1.091-2.705-1.865-4.351-1.907-0.114-0.008-0.229-0.008-0.343-0.008z m-57.947 0.185c-2.022 0.012-3.625 0.598-5.067 2.557l-0.89-2.502h-4.292v4.406h2.031v12.291h4.37v-8.593a3.865 3.865 0 0 1 3.85-3.872h1.325v-4.287Zm37.74 0.184v4.367h2.937v12.2h7.323v-4.367h-2.937l0.004-12.2z m-32.289 0.116v8.649c0 4.602 3.711 8.332 8.285 8.332s8.284-3.723 8.284-8.326v-8.654h-4.373v8.81a3.916 3.916 0 1 1-7.821 0v-8.81z m53.104 3.799c2.319 0 4.198 1.958 4.201 4.374 0.002 2.417-1.882 4.375-4.201 4.375-2.319 0-4.199-1.958-4.202-4.375-0.003-2.417 1.883-4.374 4.202-4.374z"/></svg>