<svg fill="#7408FF" role="img" viewBox="0 0 84 24" xmlns="http://www.w3.org/2000/svg"><title>Tubi</title><path d="M58.393 23.424v-2.625c1.396 1.913 3.864 3.201 6.752 3.201 5.149 0 7.959-3.337 7.959-10.001 0-5.983-3.117-9.977-7.802-9.977-2.971 0-5.411 1.211-6.909 3.169v-7.191h-9.334v23.424z m5.481-9.125c0 2.887-1.176 4.451-2.887 4.451-1.697 0-2.922-1.578-2.922-4.451s1.194-4.468 2.922-4.469c1.728 0 2.89 1.578 2.891 4.469zM24.336 4.978v12.567c0 4.315 2.632 6.427 6.825 6.427 3.348 0 5.673-1.382 7.079-3.714v3.176h9.066V4.982h-9.338v10.961c0 1.721-1.208 2.419-2.325 2.419-1.121 0-1.983-0.67-1.983-2.286V4.982Zm50.234 0H83.891v18.418h-9.321ZM22.985 8.986c0 2.726-2.217 4.94-4.957 4.939-2.733 0-4.954-2.213-4.954-4.939 0-2.73 2.22-4.94 4.957-4.94 2.737 0 4.957 2.21 4.958 4.94zM12.292 3.98v9.313c0.017 2.28 1.142 3.226 3.407 3.226 0.785 0 1.836-0.185 2.346-0.58v6.741c-1.711 0.848-3.034 1.32-5.358 1.32 0 0-0.241 0-0.629-0.021l-0.01 0.021c-5.634 0-8.762-3.613-8.664-9.377v-1.64H0.109V4.985h3.212V0.003h8.968Z"/></svg>