<svg fill="#D40E14" role="img" viewBox="0 0 30 24" xmlns="http://www.w3.org/2000/svg"><title>TUI</title><path d="M30 2.646a2.646 2.646 0 0 1-2.647 2.646 2.646 2.646 0 0 1-2.646-2.646 2.646 2.646 0 0 1 2.646-2.646A2.646 2.646 0 0 1 30 2.646zM1.425 6.685h7.132c0.705 0 1.226 0.221 1.433 1.214 0.231 1.104 0.141 1.873-1.107 1.961l-2.239 0.165c1.647 10.413 11.284 13.806 16.527 2.591 0.869-1.856 1.152-2.193 2.103-1.958 1.289 0.32 1.465 0.987 0.847 2.853-4.529 13.82-19.773 15.207-22.764-3.255l-1.818 0.131C0.058 10.493 0 9.245 0 8.551c0-1.374 0.509-1.866 1.425-1.867z"/></svg>