<svg fill="#14D8CC" role="img" viewBox="0 0 36 24" xmlns="http://www.w3.org/2000/svg"><title>TuneIn</title><path d="M11.589 11.111v1.096c0 0.155-0.162 0.155-0.162 0.155h-1.251s-0.162 0-0.163 0.163v5.953c0 0.162-0.155 0.162-0.155 0.162h-1.263c-0.157 0-0.157-0.162-0.157-0.162v-5.953s0-0.162-0.161-0.163h-1.246c-0.155 0-0.155-0.155-0.155-0.155v-1.096c0-0.157 0.155-0.157 0.155-0.156H11.589v0.156m22.834-11.108H18.445c-1.004 0-1.235 0.236-1.235 1.205v3.566c0 0.728 0 0.728-0.727 0.728H1.475C0.477 5.501 0.274 5.703 0.274 6.72v7.991c0 2.591 0 5.182 0.034 7.779 0 1.362 0.151 1.507 1.536 1.506H14.883c0.981 0 1.95 0.015 2.931-0.014 0.709-0.009 0.988-0.298 0.988-1.008v-3.781c0-0.691 0-0.691 0.693-0.692h15.059c0.935 0 1.171-0.225 1.172-1.152V1.27c0-1.034-0.242-1.27-1.305-1.27z m-17.194 21.603c0 0.739-0.019 0.739-0.776 0.739-4.65 0-9.296 0-13.951 0.012-0.473 0-0.635-0.115-0.635-0.618 0.024-4.668 0.012-9.341 0-14.003-0.012-0.502 0.127-0.659 0.652-0.659 4.708 0.018 9.399 0.012 14.107 0.012 0.173 0 0.34 0.022 0.591 0.034 0 0.266 0 0.473 0.015 0.653-0.004 4.598-0.004 9.22-0.005 13.83z m11.359-8.632c0 0.151-0.154 0.151-0.153 0.15h-3.797c-0.157 0-0.157-0.151-0.156-0.15v-1.064c0-0.148 0.155-0.148 0.155-0.147h0.911s0.151 0 0.151-0.151V7.065s0-0.149-0.151-0.149h-0.76c-0.151 0-0.151-0.151-0.151-0.151v-1.211c0-0.157 0.151-0.157 0.151-0.156h3.496c0.151 0 0.151 0.157 0.151 0.156v1.056c0 0.155-0.151 0.155-0.151 0.155h-0.762s-0.149 0-0.149 0.151v4.541s0 0.155 0.147 0.155h0.913c0.157 0 0.157 0.151 0.157 0.151z"/></svg>