<svg fill="#5CD8E5" role="img" viewBox="0 0 25 24" xmlns="http://www.w3.org/2000/svg"><title>Turbo</title><path d="M23.767 0H1.237A0.737 0.737 0 0 0 0.5 0.737v3.09h12a8.177 8.177 0 0 1 6.803 12.705h5.177V0.737A0.733 0.733 0 0 0 23.767 0ZM4.327 12a8.153 8.153 0 0 1 1.37-4.532H0.5v15.799A0.733 0.733 0 0 0 1.237 24h22.53A0.733 0.733 0 0 0 24.5 23.267v-3.094H12.5A8.173 8.173 0 0 1 4.327 12ZM18.442 11.793a9.212 9.212 0 0 1-2.282 0.554 3.983 3.983 0 0 0-0.024-0.921 9.742 9.742 0 0 0 1.964-2.313 0.882 0.882 0 0 0-1.49-0.944 8.762 8.762 0 0 1-1.215 1.549 3.612 3.612 0 0 0-0.756-0.721 7.265 7.265 0 0 0-0.124-1.545 12.434 12.434 0 0 0-0.561-2.012 0.88 0.88 0 0 0-1.131-0.525 0.84 0.84 0 0 0-0.323 0.203 0.888 0.888 0 0 0-0.207 0.928c0.08 0.211 0.147 0.398 0.207 0.609 0.088 0.283 0.159 0.55 0.219 0.797a7.523 7.523 0 0 1 0.128 0.912 3.433 3.433 0 0 0-0.917 0.024A9.766 9.766 0 0 0 9.613 6.42a0.884 0.884 0 0 0-0.944 1.494 8.79 8.79 0 0 1 1.553 1.195 3.724 3.724 0 0 0-0.725 0.756 9.499 9.499 0 0 0-3.557 0.689 0.882 0.882 0 0 0 0.606 1.657 9.272 9.272 0 0 1 2.318-0.569c0 0.119-0.02 0.239-0.02 0.358a3.676 3.676 0 0 0 0.044 0.558 9.662 9.662 0 0 0-1.968 2.314 0.88 0.88 0 0 0 0.745 1.354 0.876 0.876 0 0 0 0.749-0.399 8.603 8.603 0 0 1 1.195-1.549 3.955 3.955 0 0 0 0.756 0.725 7.018 7.018 0 0 0 0.128 1.541 12.036 12.036 0 0 0 0.561 2.012 0.876 0.876 0 0 0 0.825 0.561 0.896 0.896 0 0 0 0.302-0.052 0.92 0.92 0 0 0 0.319-0.207 0.876 0.876 0 0 0 0.207-0.924c-0.076-0.215-0.147-0.398-0.207-0.613-0.088-0.283-0.159-0.546-0.215-0.797a6.603 6.603 0 0 1-0.143-0.872H12.5a3.728 3.728 0 0 0 0.562-0.04 9.714 9.714 0 0 0 2.31 1.964 0.882 0.882 0 1 0 0.943-1.49 8.897 8.897 0 0 1-1.549-1.214 3.736 3.736 0 0 0 0.725-0.757h0.203a9.957 9.957 0 0 0 3.35-0.689 0.884 0.884 0 0 0-0.602-1.661zM14.46 12v0.159a1.952 1.952 0 0 1-0.693 1.35 1.796 1.796 0 0 1-0.243 0.176 1.991 1.991 0 0 1-1.032 0.29h-0.159a1.952 1.952 0 0 1-1.346-0.689 2.306 2.306 0 0 1-0.18-0.247 1.991 1.991 0 0 1-0.29-1.031v-0.159a1.868 1.868 0 0 1 0.047-0.299 1.991 1.991 0 0 1 0.642-1.048 2.788 2.788 0 0 1 0.247-0.179 1.991 1.991 0 0 1 1.031-0.29h0.159a1.916 1.916 0 0 1 0.303 0.047 1.991 1.991 0 0 1 1.048 0.646 1.796 1.796 0 0 1 0.175 0.242A1.991 1.991 0 0 1 14.475 12z"/></svg>