<svg fill="#C70A0C" role="img" viewBox="0 0 24 24" xmlns="http://www.w3.org/2000/svg"><title>Turkish Airlines</title><path d="M0.168 13.989c0.272 1.623 0.86 3.115 1.69 4.423 3.095-0.863 5.817-2.495 6.785-6.132 1.065-4.003-0.15-8.199-3.057-10.422C1.626 4.365-0.657 9.078 0.168 13.989m23.664-3.975c1.098 6.534-3.308 12.722-9.844 13.819-1.1 0.185-2.19 0.214-3.245 0.103a12.023 12.023 0 0 1-8.46-4.892l19.428-5.57c0.279-0.08 0.207-0.349-0.024-0.333l-8.145 0.569c1.148-1.108 2.021-2.467 1.915-4.345-0.214-3.043-3.311-6.013-9.071-7.967a12.016 12.016 0 0 1 6.87-1.333c5.228 0.548 9.663 4.512 10.576 9.95"/></svg>