<svg fill="#4FF8D2" role="img" viewBox="0 0 23 24" xmlns="http://www.w3.org/2000/svg"><title>Turso</title><path d="M22.81 0.803l-0.563-0.42-1.11 1.189-0.891-1.286-0.512 0.235 0.704 1.798-0.326 0.35L17.582 0l-0.574 0.284 2.25 4.836-2.108 0.741h-0.05l-1.143-1.359-1.144 1.36H8.187l-1.144-1.36-1.146 1.363H5.86l-2.12-0.745L5.991 0.284 5.419 0l-2.53 2.668-0.327-0.349 0.705-1.798-0.512-0.236-0.89 1.287L0.753 0.382 0.19 0.804 1.92 3.69l-0.89 0.939 0.311 2.375 2.061 0.787L3.4 8.817H1.447v0.444l0.755 1.078 1.197 0.433v6.971l3.057 4.55L7.157 24l1.101-1.606L9.4 24l0.999-1.606L11.5 24l1.102-1.606L13.6 24l1.141-1.606L15.843 24l0.701-1.706 3.058-4.55v-6.972l1.196-0.433 0.756-1.078v-0.444h-1.952l0.003-1.03 2.054-0.784 0.311-2.375-0.89-0.939z m-8.93 18.718H7.533l0.793-1.615 0.794 1.615 0.793-1.083 0.793 1.083 0.794-1.083 0.793 1.083 0.794-1.083 0.793 1.083 0.793-1.615 0.794 1.615z m3.886-7.39l-3.3 1.084-0.143 3.061-2.827 0.627-2.826-0.627-0.142-3.06-3.3-1.085v-1.635l4.266 1.21-0.052 4.126h4.109l-0.052-4.127 4.266-1.209z"/></svg>