<svg fill="#E0001C" role="img" viewBox="0 0 34 24" xmlns="http://www.w3.org/2000/svg"><title>TV4 Play</title><path d="M14.705 17.546V0.31c0-0.295-0.394-0.433-0.567-0.17L0.116 20.875a0.281 0.281 0 0 0-0.009 0.315c0.051 0.102 0.152 0.169 0.271 0.169h10.347v2.338c0 0.159 0.144 0.303 0.314 0.303h3.353c0.169 0 0.313-0.144 0.313-0.303v-2.338h2.026c0.169 0 0.313-0.135 0.313-0.313v-3.186a0.311 0.311 0 0 0-0.316-0.313z m-3.988 0.011H6.831l3.886-5.749z m23.024-5.284L23.64 6.438c-0.11-0.069-0.239 0.049-0.187 0.169a14.862 14.862 0 0 1 1.262 6.013c0 2.134-0.447 4.166-1.253 5.995-0.051 0.117 0.075 0.227 0.185 0.17l10.094-5.825a0.399 0.399 0 0 0 0-0.687z"/></svg>