<svg fill="#262627" role="img" viewBox="0 0 107 24" xmlns="http://www.w3.org/2000/svg"><title>Typeform</title><path d="M69.099 16.61c-2.227 0-3.367-1.831-3.367-4.084 0-2.249 1.122-3.982 3.367-3.983 2.285 0 3.367 1.813 3.368 3.983-0.018 2.294-1.163 4.085-3.368 4.084Zm-21.773-8.062c1.301 0 1.844 0.757 1.844 1.412 0 1.59-1.626 2.29-5.015 2.387 0-1.969 1.127-3.804 3.171-3.804Zm-14.436 8.062c-2.107 0-2.984-1.71-2.985-4.084 0-2.347 0.9-3.982 2.985-3.983 2.125 0 3.127 1.693 3.127 3.983 0 2.392-1.042 4.085-3.127 4.084Zm-17.804-10.396h-3.288l5.453 12.508c-1.042 2.312-1.604 2.886-2.326 2.886-0.762 0-1.483-0.615-2.004-1.154l-1.443 1.916c0.98 1.033 2.325 1.63 3.706 1.63 1.724 0 3.051-0.998 3.813-2.788l6.294-15.016h-3.23l-3.287 8.962-3.688-8.944Zm87.096 2.329c1.604 0 1.924 1.096 1.924 3.666v6.753H106.952v-8.525c0-3.069-2.107-4.401-4.053-4.401-1.719 0-3.305 1.073-4.187 3.064a4.013 4.013 0 0 0-3.969-3.064c-1.626 0-3.252 1.033-4.129 2.966v-2.788h-2.851v12.726h2.851v-5.434c0-2.748 1.443-4.962 3.407-4.963 1.604 0 1.902 1.096 1.902 3.666v6.753h2.851l-0.022-5.456c0-2.748 1.465-4.962 3.43-4.963Zm-22.718-2.329h-1.443v12.726h2.846v-4.878c0-3.087 1.363-5.18 3.386-5.18 0.526 0 0.967 0.022 1.447 0.223l0.441-3.011c-0.361-0.04-0.682-0.08-1.002-0.081-2.004 0-3.448 1.376-4.294 3.15V6.209h-1.381Zm-10.365-0.201c-3.768 0-6.316 2.869-6.316 6.495 0 3.764 2.584 6.57 6.316 6.57 3.786 0 6.374-2.886 6.374-6.57-0.018-3.644-2.646-6.494-6.374-6.495Zm-21.612 10.602c-1.483 0-2.588-0.757-3.052-2.294 3.773-0.16 7.461-1.078 7.461-4.401 0-1.915-1.884-3.884-4.588-3.884-3.653 0-6.12 2.967-6.12 6.49 0 3.688 2.428 6.575 6.058 6.574 2.526 0 4.129-1.016 5.39-2.49l-1.381-1.871c-1.465 1.492-2.365 1.871-3.768 1.871Zm-14.036-10.602c-1.443 0-2.886 0.837-3.448 2.152v-1.951h-2.85v17.728h2.85v-6.334c0.601 0.913 1.982 1.514 3.207 1.514 3.786 0 5.791-2.811 5.791-6.592-0.018-3.746-1.982-6.517-5.55-6.517Zm-19.969-4.899H0.048v2.77h5.256v15.056h2.984v-15.056h5.194v-2.77Zm42.325 5.1h-1.706v2.548h1.706v10.178h2.847v-10.178h2.766v-2.548h-2.766v-1.991c0-1.274 0.521-1.715 1.701-1.715 0.445 0 0.846 0.12 1.386 0.303l0.641-2.392c-0.521-0.298-1.563-0.419-2.245-0.419-2.726 0-4.33 1.635-4.33 4.463v1.751Z"/></svg>