<svg fill="#06C167" role="img" viewBox="0 0 32 24" xmlns="http://www.w3.org/2000/svg"><title>Uber Eats</title><path d="M0.237 0v6.564c0 2.474 1.749 4.111 4.051 4.111a3.895 3.895 0 0 0 2.824-1.15v0.975H8.703V0H7.098v6.481c0 1.661-1.142 2.784-2.621 2.787-1.496-0.003-2.623-1.096-2.623-2.787V0z m9.671 0v10.5h1.528v-0.961a3.93 3.93 0 0 0 2.782 1.15c2.251 0.063 4.111-1.745 4.111-3.997s-1.859-4.06-4.111-3.997a3.898 3.898 0 0 0-2.768 1.151V0z m12.986 2.701c-2.2-0.01-3.989 1.772-3.988 3.973 0 2.281 1.804 3.99 4.143 3.989a4.102 4.102 0 0 0 3.36-1.633l-1.116-0.812a2.693 2.693 0 0 1-2.244 1.128c-1.282 0.017-2.384-0.908-2.589-2.174h6.329v-0.498c0-2.278-1.647-3.972-3.893-3.973z m8.096 0.087a2.094 2.094 0 0 0-1.808 1.006v-0.944h-1.528v7.65h1.543V6.15c0-1.185 0.733-1.95 1.743-1.95h0.65V2.79c-0.207 0.002-0.419-0.001-0.6-0.002z m-8.149 1.24a2.422 2.422 0 0 1 2.409 1.952H20.498a2.422 2.422 0 0 1 2.343-1.952z m-8.747 0.008c1.474-0.011 2.675 1.181 2.675 2.655-0.003 1.472-1.201 2.661-2.672 2.655a2.647 2.647 0 0 1-1.86-0.787A2.647 2.647 0 0 1 11.468 6.692a2.647 2.647 0 0 1 0.767-1.868 2.647 2.647 0 0 1 1.859-0.788zM0.237 13.296v10.471h7.517v-1.795H2.268v-2.589h5.339v-1.726H2.268v-2.569h5.486v-1.792z m19.127 0.538v2.215h-1.513v1.757h1.516v4.129c0 1.041 0.75 1.866 2.103 1.866h2.157L23.619 22.044h-1.499c-0.457 0-0.751-0.198-0.751-0.61v-3.636H23.619v-1.749h-2.242v-2.215z m-6.959 2.006c-2.279-0.014-4.126 1.844-4.1 4.123 0.026 2.279 1.915 4.093 4.192 4.028a3.93 3.93 0 0 0 2.512-0.874v0.699h1.993v-7.767h-1.982v0.69a3.947 3.947 0 0 0-2.523-0.898c-0.032-0.001-0.065-0.001-0.092-0.001z m15.462 0.011c-2.083 0-3.547 0.846-3.547 2.476 0 1.131 0.805 1.867 2.543 2.227l1.902 0.431c0.748 0.144 0.949 0.34 0.949 0.645 0 0.486-0.575 0.791-1.481 0.791-1.151 0-1.809-0.25-2.066-1.114h-2.013c0.288 1.617 1.519 2.693 4.004 2.693h0.003c2.301 0 3.602-1.076 3.602-2.566 0-1.059-0.768-1.85-2.376-2.189l-1.7-0.343c-0.987-0.178-1.298-0.36-1.298-0.716 0-0.469 0.475-0.756 1.352-0.756 0.949 0 1.646 0.253 1.847 1.113h1.993c-0.112-1.614-1.3-2.692-3.714-2.693zM12.673 17.493c1.326 0.013 2.389 1.099 2.373 2.425 0.002 1.32-1.077 2.385-2.396 2.367-1.323-0.006-2.391-1.084-2.385-2.407 0.006-1.324 1.084-2.391 2.408-2.385z"/></svg>