<svg fill="#800000" role="img" viewBox="0 0 21 24" xmlns="http://www.w3.org/2000/svg"><title>uBlock Origin</title><path d="M10.5 0C6.002 3 4.502 3 0 3c0 15.002 0 15.002 10.5 21 10.5-5.998 10.5-5.998 10.5-21-4.498 0-5.998 0-10.5-3zM4.456 7.472h1.512v4.536c0 1.322 0.19 1.508 1.512 1.508 1.323 0 1.512-0.19 1.512-1.512V7.472H10.5v0.767a3.75 3.75 0 0 1 2.268-0.767 3.79 3.79 0 0 1 3.776 3.78 3.79 3.79 0 0 1-3.78 3.775 3.765 3.764 0 0 1-2.684-1.133c-0.464 0.77-1.315 1.133-2.6 1.133-2.079 0-3.024-0.944-3.024-3.023z m8.308 1.512A2.254 2.254 0 0 0 10.5 11.252a2.254 2.254 0 0 0 2.268 2.264 2.254 2.254 0 0 0 2.264-2.268 2.254 2.254 0 0 0-2.268-2.264z"/></svg>