<svg fill="#E95420" role="img" viewBox="0 0 25 24" xmlns="http://www.w3.org/2000/svg"><title>Ubuntu</title><path d="M18.331 0a3.544 3.544 0 0 0-3.545 3.544 3.544 3.544 0 0 0 3.545 3.544 3.544 3.544 0 0 0 3.544-3.544 3.544 3.544 0 0 0-3.544-3.544zM13.456 0.359C9.302 0.335 5.367 2.584 3.299 6.232a4.677 4.677 0 0 1 0.271-0.007 5.114 5.114 0 0 1 2.686 0.766A8.643 8.643 0 0 1 13.215 3.269 5.139 5.139 0 0 1 14.291 0.394 11.441 11.441 0 0 0 13.456 0.359z m9.589 5.19a5.108 5.108 0 0 1-1.993 2.335 8.689 8.689 0 0 1-0.284 8.629 5.082 5.082 0 0 1 1.696 2.64 11.595 11.595 0 0 0 0.581-13.604zM3.572 7.771A3.544 3.544 0 0 0 0.027 11.316a3.544 3.544 0 0 0 3.545 3.543 3.544 3.544 0 0 0 3.544-3.544 3.544 3.544 0 0 0-3.544-3.545z m2.106 8.176a5.101 5.101 0 0 1-3.029 0.372 11.537 11.537 0 0 0 8.305 6.962 11.676 11.676 0 0 0 2.518 0.259 5.071 5.071 0 0 1-1.039-2.963 8.818 8.818 0 0 1-0.869-0.141 8.631 8.631 0 0 1-5.886-4.49z m11.854 0.965a3.544 3.544 0 0 0-3.544 3.544 3.544 3.544 0 0 0 3.544 3.544 3.544 3.544 0 0 0 3.545-3.544 3.544 3.544 0 0 0-3.545-3.544z"/></svg>