<svg fill="#02B3E4" role="img" viewBox="0 0 25 24" xmlns="http://www.w3.org/2000/svg"><title>Udacity</title><path d="M8.5 0L0.5 4.8v9.6C0.5 20.8 5.3 24 9.3 24c1.348 0 2.786-0.362 4.1-1.088l6.303-3.633C22.187 18.155 24.5 15.64 24.5 11.2V0.8L22.9 0 16.5 4v10.4c0 1.6-0.3 2.898-0.785 3.948-2.002-0.257-5.615-1.597-5.615-7.15V0.802z m0 1.76v9.44c0 5.342 3.346 7.9 6.313 8.597-1.618 1.99-4.025 2.603-5.512 2.603-2.4 0-7.2-1.6-7.2-8V5.6z m14.4 0.04v9.4c0 5.45-3.482 6.84-5.504 7.132 0.446-1.14 0.704-2.45 0.704-3.932V4.8z"/></svg>