<svg fill="#D20A0A" role="img" viewBox="0 0 70 24" xmlns="http://www.w3.org/2000/svg"><title>UFC</title><path d="M18.569 0h8.074s-5.369 19.165-5.632 20.201c-0.511 1.992-1.019 3.799-5.898 3.799-5.88 0-9.295-0.02-10.903 0-2.015 0.02-4.391-1.827-3.741-4.226l5.514-19.774H14.216S9.597 16.483 9.499 16.907c-0.084 0.427-0.548 1.608 2.015 1.628 1.847 0.04 1.992-0.447 2.318-1.628 0.774-2.662 4.734-16.907 4.734-16.907z m29.652 0l-1.464 5.265H29.186l1.464-5.265z m-24.26 24l4.212-15.138h17.568l-1.463 5.263h-9.417l-2.742 9.875z m33.11-15.545c-0.751 2.763-1.423 5.121-2.176 7.904-0.144 0.491-0.468 1.201-0.367 1.645 0.225 1.059 3.724 0.652 4.983 0.653h5.614c-0.447 1.767-0.953 3.493-1.443 5.224h-13.366c-1.951-0.185-4.495-1.019-4.249-3.539 0.081-0.791 0.45-1.686 0.693-2.56a3434.28 3434.28 0 0 0 3.58-12.883c0.508-1.871 0.915-3.455 2.396-4.206 0.961-0.491 2.485-0.629 3.622-0.693H69.64c-0.468 1.749-0.955 3.496-1.443 5.225h-7.63c-0.915 0-1.931-0.104-2.439 0.242-0.548 0.407-0.852 2.237-1.057 2.988z"/></svg>