<svg fill="#FA4616" role="img" viewBox="0 0 70 24" xmlns="http://www.w3.org/2000/svg"><title>UiPath</title><path d="M0.027 0v24h24V0H0.027Zm2.483 2.483h19.031v19.031H2.51v-19.031Zm64.898 2.026c-1.498 0-2.582 1.005-2.582 2.544 0 1.489 1.049 2.559 2.582 2.559 1.51 0 2.565-1.046 2.565-2.559 0-1.518-1.046-2.544-2.565-2.544Zm-49.612 0.16a1.46 1.46 0 0 0-1.521 1.521c0 0.88 0.641 1.483 1.521 1.484 0.88 0 1.521-0.6 1.522-1.484a1.46 1.46 0 0 0-1.522-1.521Zm49.612 0.297c1.274 0 2.087 0.81 2.087 2.087 0 1.242-0.799 2.075-2.087 2.075-1.242 0-2.095-0.79-2.095-2.075 0-1.282 0.81-2.087 2.095-2.087Zm-1.011 0.621v2.879h0.574v-0.926h0.408l0.513 0.926h0.641l-0.542-1.011a0.933 0.933 0 0 0 0.6-0.906c0-0.592-0.463-0.962-1.09-0.962h-1.104Zm-10.9 0.006v13.021h2.486v-5.17c0-1.664 0.88-2.664 2.343-2.664s2.224 0.962 2.224 2.443v5.391h2.483v-5.671c0-2.565-1.804-4.226-4.107-4.226-1.483 0-2.384 0.56-2.943 1.501V5.593h-2.486Zm11.474 0.457h0.457c0.335 0 0.562 0.187 0.563 0.499 0 0.344-0.227 0.528-0.563 0.527h-0.457v-1.026Zm-62.295 0.143v7.271c0 3.325 1.821 5.269 4.908 5.27 3.145 0 5.007-1.985 5.007-5.27v-7.271h-2.484v7.271c0 1.883-0.801 2.926-2.465 2.927-1.722 0-2.483-1.102-2.483-2.927v-7.271h-2.483Zm21.995 0v12.421h2.483v-4.007h2.244c2.705 0 4.468-1.583 4.468-4.246 0-2.565-1.722-4.168-4.468-4.168H26.671Zm22.758 0v2.664h-1.163v2.104h1.163v4.226c0 2.305 1.02 3.427 3.384 3.427h1.302v-2.124h-0.982c-0.962 0-1.221-0.42-1.221-1.283v-4.246h2.183v-2.104h-2.183v-2.664h-2.483Zm-20.275 2.002h1.984c1.422 0 2.203 0.804 2.204 2.166 0 1.463-0.781 2.262-2.204 2.261h-1.984v-4.427Zm12.059 0.542c-2.684 0-4.506 2.122-4.505 5.007 0 2.906 1.862 4.989 4.505 4.99 1.565 0 2.585-0.562 3.166-1.504v1.384h2.485v-9.757h-2.485v1.524c-0.6-1.003-1.641-1.644-3.166-1.644Zm-24.658 0.12v9.757h2.483v-9.757h-2.483Zm25.241 2.043c1.583 0 2.582 1.163 2.583 2.844 0 1.705-1.061 2.807-2.583 2.807-1.685 0-2.565-1.183-2.564-2.807 0-1.743 0.982-2.844 2.564-2.844Z"/></svg>