<svg fill="#000000" role="img" viewBox="0 0 27 24" xmlns="http://www.w3.org/2000/svg"><title>Umami</title><path d="M2.724 8.272H1.244a0.929 0.929 0 0 0-0.925 0.925v0.944a14.64 14.64 0 0 0-0.018 0.66c0 7.289 5.91 13.199 13.199 13.199 7.179 0 13.02-5.733 13.195-12.87 0-0.027 0.004-0.055 0.004-0.083V9.197a0.929 0.929 0 0 0-0.925-0.925h-1.481c-1.275-4.762-5.623-8.272-10.784-8.272-5.161 0-9.509 3.511-10.785 8.272Zm20.287 0H4.008c1.24-4.072 5.027-7.038 9.501-7.038 4.476 0 8.263 2.966 9.502 7.038Z"/></svg>