<svg fill="#08BD80" role="img" viewBox="0 0 30 24" xmlns="http://www.w3.org/2000/svg"><title>Unacademy</title><path d="M1.199 0a0.851 0.851 0 0 0-0.87 0.872H0.325l0.002 0.033c-0.012 0.374 0.037 0.805 0.15 1.322 1.107 6.783 7.185 11.97 14.517 11.971 7.258 0 13.286-5.084 14.48-11.768 0.154-0.626 0.216-1.126 0.198-1.557a0.851 0.851 0 0 0-0.872-0.873z m13.75 16.902c-3.629 0-6.643 2.543-7.24 5.882a2.797 2.797 0 0 0-0.098 0.781c0 0.246 0.183 0.435 0.434 0.435h13.801a0.426 0.426 0 0 0 0.436-0.435h0.002v-0.018a2.703 2.703 0 0 0-0.077-0.66c-0.554-3.393-3.593-5.985-7.258-5.985z"/></svg>