<svg fill="#1D1D1D" role="img" viewBox="0 0 41 24" xmlns="http://www.w3.org/2000/svg"><title>Under Armour</title><path d="M27.214 12.001c-0.151 0.112-0.331 0.241-0.55 0.396-1.403 0.993-3.435 1.673-6.079 1.672h-0.177c-2.642 0-4.678-0.679-6.079-1.672A61.864 61.864 0 0 1 13.779 12.001c0.153-0.114 0.333-0.243 0.55-0.398 1.401-0.992 3.437-1.673 6.079-1.672h0.177c2.644 0 4.68 0.681 6.079 1.672 0.219 0.153 0.399 0.284 0.552 0.398M40.878 3.817s-1.204-0.919-5.01-2.318c-3.342-1.224-5.862-1.499-5.862-1.499l0.01 7.205c0 1.015-0.275 1.941-1.049 2.998-2.839-1.036-5.526-1.673-8.459-1.673-2.934 0-5.617 0.637-8.456 1.673-0.776-1.051-1.053-1.983-1.053-2.998l0.012-7.205s-2.537 0.272-5.881 1.499C1.326 2.902 0.122 3.817 0.122 3.817c0.158 3.271 3.023 6.178 7.531 8.186C3.14 14.005 0.275 16.903 0.122 20.183c0 0 1.204 0.917 5.008 2.318 3.342 1.224 5.864 1.499 5.864 1.499l-0.012-7.207c0-1.014 0.278-1.941 1.051-2.996 2.839 1.036 5.522 1.669 8.457 1.67 2.933 0 5.619-0.635 8.457-1.67 0.776 1.053 1.053 1.982 1.052 2.996l-0.01 7.207s2.52-0.272 5.862-1.499c3.806-1.403 5.01-2.318 5.01-2.318-0.158-3.272-3.023-6.181-7.531-8.184 4.512-2.007 7.375-4.904 7.531-8.185"/></svg>