<svg fill="#0371B5" role="img" viewBox="0 0 142 24" xmlns="http://www.w3.org/2000/svg"><title>Underscore.js</title><path d="M81.024 0a7.318 7.318 0 0 0-1.765 0.276 5.976 5.976 0 0 0-4.094 3.448c-0.435 0.941-0.471 1.188-0.471 3.605 0 2.429 0.035 2.665 0.471 3.589a6.159 6.159 0 0 0 2.812 2.988c0.929 0.447 1.2 0.5 2.982 0.5 2.659 0 3.318-0.147 3.318-0.735 0-0.447-0.018-0.447-0.841-0.306-1.629 0.265-3.835 0.159-4.706-0.236-1.682-0.765-2.8-2.494-3.012-4.694-0.359-3.512 0.912-6.218 3.406-7.141 1.076-0.394 3.206-0.394 4.423 0.018 0.782 0.265 0.982 0.294 1.106 0.088 0.394-0.629-0.029-0.912-1.788-1.235a9.088 9.088 0 0 0-1.841-0.153z m-13.1 0.059a4.071 4.071 0 0 0-0.941 0.1 4.5 4.5 0 0 0-2.759 2.106 4.382 4.382 0 0 0-0.194 1.435c0 1.847 0.835 2.706 3.8 3.841 3.012 1.176 3.547 1.647 3.547 3.235 0 2.471-3.029 3.471-7.136 2.353-0.376-0.094-0.412-0.065-0.364 0.4 0.059 0.471 0.153 0.547 1.047 0.736 1.424 0.294 3.729 0.276 4.806-0.03 1.071-0.324 2.129-1.176 2.47-2a4.912 4.912 0 0 0 0.247-1.629c0-1.765-0.824-2.665-3.306-3.618-3.235-1.247-4.041-1.859-4.076-3.159a2.353 2.353 0 0 1 1.271-2.37c0.682-0.388 1.018-0.471 2.082-0.471 0.682 0 1.741 0.159 2.312 0.33 1.076 0.324 1.341 0.253 1.353-0.377 0-0.435-2.529-0.906-4.153-0.882z m24.9 0a6.141 6.141 0 0 0-1.33 0.117c-2.982 0.624-4.706 3.235-4.706 7.065 0 2.665 0.835 4.806 2.353 6.024 1.206 0.941 1.918 1.153 4 1.153 1.518-0.024 1.935-0.094 2.689-0.459 2.253-1.106 3.488-3.471 3.488-6.706 0-3.229-1.271-5.629-3.488-6.647a8.176 8.176 0 0 0-3-0.553z m44.329 0.006a6.041 6.041 0 0 0-1.512 0.153 4.159 4.159 0 0 0-2.411 1.806 4.588 4.588 0 0 0 0 3.311c0.412 0.765 1.547 1.482 3.764 2.3 2.824 1.071 3.7 2.118 3.194 3.794-0.406 1.353-1.882 2.176-3.864 2.177a12.276 12.276 0 0 1-3.1-0.447c-0.553-0.118-0.588-0.106-0.588 0.317 0 0.706 0.912 0.941 3.588 0.942 2.082 0 2.282-0.041 3.159-0.506a3.559 3.559 0 0 0 1.705-4.665c-0.471-1.041-1.347-1.629-3.982-2.647-2.506-0.953-3.135-1.541-3.135-2.941 0-1.141 0.412-1.782 1.459-2.324 0.894-0.471 2.824-0.471 4.176-0.017 0.941 0.324 0.976 0.324 1.212 0 0.359-0.5 0.306-0.571-0.706-0.883a11.218 11.218 0 0 0-2.959-0.37Zm-108.041 0.235v14.059l2.824-0.077c2.488-0.071 2.941-0.118 3.917-0.529 2.824-1.153 3.941-3.288 3.783-7.141-0.118-2.976-1-4.529-3.148-5.588-1.176-0.588-1.2-0.588-4.282-0.648Zm24 0v14.012h0.894V8.235h3.488l1.789 3.041c1.741 2.994 1.794 3.047 2.382 3.048h0.588l-0.57-1.036a108.253 108.253 0 0 0-1.883-3.159l-1.27-2.129 0.882-0.447a3.765 3.765 0 0 0 1.971-4.335c-0.288-1.2-0.647-1.724-1.63-2.294-0.782-0.471-0.941-0.471-3.723-0.53z m-52.694 0.059l0.053 5.312c0.059 5.153 0.076 5.365 0.47 6.176 0.924 1.882 2.724 2.776 5.224 2.6 2.176-0.141 3.429-0.912 4.312-2.641 0.412-0.788 0.441-0.929 0.488-6.135l0.076-5.318h-1.117v4.959c0 3.059-0.071 5.247-0.188 5.694-0.294 1.047-1.494 2.129-2.671 2.412-1.824 0.453-3.841-0.1-4.706-1.277-0.788-1.059-0.847-1.553-0.847-6.794v-5H0.971Zm14.353 0v13.959h0.894l0.029-6.2 0.059-6.212 4.118 6.188c3.747 5.647 4.176 6.224 4.623 6.224h0.489V0.353h-0.906v12.259l-4.077-6.118c-3.941-5.965-4.088-6.135-4.647-6.153Zm27.394 0v13.959h7.706v-0.894H43.065l0.041-3.018 0.059-2.988 3.176-0.053 3.177-0.041v-0.895h-6.471l0.059-2.647 0.059-2.629 3.365-0.047c3.2-0.041 3.341-0.059 3.341-0.394 0-0.353-0.118-0.353-3.841-0.353z m59.841 0v13.959h0.894V8.235h3.541l1.765 3.041c1.706 2.941 1.776 3.035 2.353 3.048 0.294 0 0.571-0.029 0.571-0.106 0-0.047-0.824-1.471-1.806-3.147a35.129 35.129 0 0 1-1.753-3.089 7.341 7.341 0 0 1 0.782-0.429c1.376-0.706 2.059-1.841 2.059-3.494a3.529 3.529 0 0 0-2.665-3.53 21.694 21.694 0 0 0-3.188-0.176z m11.453 0v13.959h7.706v-0.894h-6.624v-6.1h6.277v-0.895h-6.277v-5.364h3.318c3.188 0 3.312-0.018 3.312-0.353 0-0.341-0.118-0.353-3.841-0.353z m15.235 0v7.435c0 6.347-0.047 7.547-0.282 8.047-0.388 0.806-1 1.076-2.353 1.041-1.012-0.024-1.135 0.018-1.135 0.318 0 0.494 0.782 0.765 1.941 0.647 1.212-0.118 1.965-0.571 2.429-1.471 0.353-0.706 0.376-1 0.43-8.394l0.059-7.629h-0.536z m-74.706 0.647l1.942 0.123c1.059 0.076 2.194 0.218 2.541 0.324 1.912 0.571 2.588 3.176 1.235 4.706-0.759 0.835-1.824 1.176-3.965 1.176h-1.735v-3.164z m-22.852 0.076a25.1 25.1 0 0 1 2.211 0.177c2.529 0.276 3.924 1.159 4.724 2.929 0.359 0.782 0.412 1.2 0.412 3.059 0 2-0.035 2.218-0.5 3.177a5.929 5.929 0 0 1-1.236 1.647c-1.071 0.941-2.059 1.224-4.559 1.305l-2.205 0.095v-6.083c0-3.353 0.059-6.135 0.129-6.188 0.076-0.088 0.453-0.118 1.024-0.118z m72.864 0c0.529 0 1.253 0.059 2.036 0.153 1.735 0.2 2.541 0.629 2.958 1.53 0.706 1.547 0.212 3.271-1.153 4.059-0.647 0.353-1.029 0.424-2.841 0.476l-2.117 0.071v-3.03c0-1.659 0.059-3.094 0.135-3.153 0.071-0.076 0.429-0.118 0.97-0.106z m-10.929 0a7.041 7.041 0 0 1 1.965 0.259 5.135 5.135 0 0 1 2.694 2.777c0.341 0.824 0.394 1.353 0.394 3.129 0 2.359-0.265 3.371-1.236 4.647-1.235 1.612-4.135 2.118-6.235 1.106-1.965-0.941-2.718-2.588-2.706-5.841 0-1.694 0.082-2.235 0.412-3.077 0.453-1.141 1.741-2.471 2.747-2.776a6.706 6.706 0 0 1 1.959-0.212z m31.482 11.647c-0.306 0-0.424 0.106-0.57 0.412-0.282 0.647 0.059 1.365 0.647 1.365 0.576 0 0.865-0.388 0.788-1.118-0.059-0.512-0.118-0.588-0.63-0.647a2.229 2.229 0 0 0-0.235-0.006z m-53.423 7.695c-38.765 0-70.529 0.059-70.583 0.117a7.059 7.059 0 0 0-0.123 1.794v1.665H141.588v-3.576z"/></svg>