<svg fill="#1F36C7" role="img" viewBox="0 0 24 24" xmlns="http://www.w3.org/2000/svg"><title>Unilever</title><path d="M21.436 6.625c0.115 0.847 1.392 1.99 1.746 1.962 0.234-0.019 0.321-1.105 0.321-1.962 0-0.488 0.029-0.875-0.23-0.961-0.411 0.828-1.488 0.995-1.837 0.961z m0.072-0.378c0.928 0 1.775-0.741 1.774-1.392 0-0.301-0.143-0.555-0.507-0.598 0.062 0.081 0.091 0.139 0.091 0.287 0 0.493-0.746 1.033-1.559 1.034-0.297 0-0.383 0.206-0.383 0.311-0.005 0.258 0.234 0.359 0.584 0.359z m-0.196-1.004c-0.124 0-0.301 0-0.402-0.196-0.034-0.062-0.048-0.139-0.062-0.22-0.024-0.124-0.048-0.249-0.144-0.316 0.153 0.048 0.306 0.048 0.435 0.048 0.402 0 0.785-0.278 1.081-0.278 0.196 0 0.254 0.124 0.254 0.249 0.01 0.392-0.789 0.713-1.153 0.713h-0.009zM1.373 12.232c0.301 0 0.239-1.856 0.732-1.856 0.115 0 0.148 0.115 0.148 0.263 0 0.421-0.206 1.033-0.205 1.373 0 0.172 0.048 0.23 0.124 0.225 0.215 0 0.588-2.043 0.952-2.043 0.115 0 0.172 0.115 0.172 0.235 0 0.426-0.545 1.66-0.545 2.004 0 0.057 0.024 0.101 0.057 0.1 0.225 0 0.67-0.962 0.813-1.444 0.081-0.249 0.187-0.383 0.287-0.383 0.091 0 0.172 0.101 0.173 0.306 0 0.483-0.445 1.612-0.837 2.373-0.301 0.588-0.775 1.435-0.775 1.909 0 0.239 0.048 0.493 0.387 0.789-0.569-0.034-0.804-0.091-1.014-0.536-0.952 1.894 1.76 1.713 0.832 3.397-0.167-0.301-1.507-0.612-1.507-2.378 0-1.526 1.335-2.416 1.335-3.047 0-0.124-0.043-0.23-0.158-0.33-0.297-0.249-0.301-0.455-0.536-0.455-0.167 0-0.373 0.392-0.162 0.742 0.072 0.115 0.139 0.182 0.138 0.296 0 0.249-0.392 0.918-0.669 0.914-0.277 0-0.488-0.684-0.488-1.789 0-0.981 0.225-1.971 0.497-1.971 0.081 0 0.1 0.058 0.101 0.124 0 0.115-0.034 0.349-0.034 0.742 0.005 0.416 0.096 0.45 0.182 0.44z m2.272 2.612c0.373 0 0.684-0.278 0.684-0.89v-0.909c0-0.349 0.029-0.741 0.259-1.014-0.029 0.115-0.029 0.239-0.029 0.354 0 0.765 0.421 1.292 0.421 2.033 0 0.278-0.081 0.426-0.292 0.421-0.206 0-0.187-0.186-0.234-0.186-0.034 0-0.091 0.115-0.091 0.239 0 0.182 0.139 0.478 0.502 0.483 0.321 0 0.579-0.292 0.579-0.622 0-0.804-0.622-1.693-0.622-2.55 0-0.373 0.101-0.622 0.177-0.818 0 1.77 1.507 3.062 1.507 3.803 0 0.168-0.124 0.301-0.311 0.302-0.206 0-0.301-0.163-0.301-0.287 0-0.062-0.01-0.081-0.034-0.082-0.053 0-0.215 0.177-0.215 0.412 0 0.297 0.239 0.651 0.684 0.65 0.507 0 0.785-0.431 0.785-0.813 0-0.938-1.827-2.354-1.828-3.87 0-0.258 0.043-0.679 0.23-1-1.177 0.756-1.54 1.765-1.541 2.65 0 0.765-0.029 1.148-0.421 1.148-0.206 0-0.258-0.186-0.33-0.186-0.053 0-0.081 0.163-0.081 0.206 0.01 0.335 0.244 0.517 0.488 0.516h0.014v0.01zM19.833 4.64c-0.172 0-0.455 0.187-0.679 0.187-0.282-0.005-0.201-0.359-0.512-0.359-0.067 0-0.148 0.019-0.229 0.062-0.646 0.325-1.148 0.201-1.263 0.278-0.029 0.014-0.052 0.038-0.062 0.09 0 0.67 0.713 1.703 1.899 1.703 0.813 0 1.497-0.277 1.497-0.731 0-0.397-0.383-1.229-0.651-1.23z m-0.741 1.301c-0.655 0-1.086-0.354-1.081-0.588 0-0.029 0.019-0.048 0.052-0.048 0.105 0 0.392 0.143 0.766 0.206 0.435 0.072 0.67 0.081 0.784 0.081 0.115 0 0.167 0.029 0.168 0.062 0 0.11-0.296 0.287-0.689 0.287zM3.832 18.207c-0.292 0.072-0.765 0.536-0.766 1.268 0 0.871 0.938 2.215 2.478 2.215 1.301 0 1.622-0.899 1.622-1.507 0-1.344-0.828-2.291-1.909-2.292-0.588 0-1.115 0.43-1.114 1.062 0 0.593 0.445 1.473 1.507 1.474 0.497 0 0.794-0.359 0.794-0.766 0-0.402-0.363-0.952-0.9-0.952-0.163 0-0.277 0.105-0.277 0.278 0 0.215 0.297 0.421 0.665 0.425 0.091 0 0.163-0.019 0.196-0.033 0.019 0.024 0.024 0.067 0.024 0.105 0 0.206-0.196 0.33-0.498 0.33-0.455 0-0.89-0.34-0.889-0.875 0-0.321 0.278-0.55 0.679-0.55 0.794 0 1.268 0.708 1.268 1.406 0 0.631-0.349 1-1.062 0.995-1.435 0.005-2.124-1.287-1.818-2.583z m11.055 2.837c-0.091-0.172-0.019-0.469-0.287-0.469-0.182 0-0.196 0.144-0.215 0.258-0.388-0.11-0.708-0.168-0.995-0.167-0.206 0-0.383 0.029-0.536 0.081-0.101-0.182-0.541-0.526-0.923-0.65-0.148 0.804-0.871 1.435-1.943 1.526-0.062 0.526-0.474 0.66-0.794 0.66-0.23 0.005-0.598-0.076-0.617-0.168-0.124-0.756-0.698-1.182-0.947-1.282 0.009 0.081 0.019 0.167 0.019 0.249 0 0.641-0.44 1.043-1.258 1.043-0.124 0-0.297-0.01-0.421-0.034 0.938 1.043 1.607 0.66 2.043 0.857C8.582 23.206 9.046 24 10.873 24c0.665 0 1.344-0.258 1.79-0.545 0.081 0.268 0.359 0.507 0.813 0.507 0.775 0 1.21-0.239 1.21-0.436 0-0.053-0.005-0.134-0.139-0.134s-0.115 0.034-0.54 0.034c-0.493-0.005-1.296-0.196-1.674-1.057-0.067-0.143-0.172-0.143-0.206-0.144-0.249 0-0.631 0.885-2.201 0.885-0.655 0.005-0.962-0.244-0.961-0.301 0-0.01 0-0.019 0.033-0.019 0.062 0 0.306 0.029 0.608 0.028 0.99 0 1.789-0.454 2.272-0.98 0.167-0.187 0.249-0.215 0.392-0.216 0.124 0 0.258 0.11 0.321 0.278 0.22 0.569 0.727 1.024 1.282 1.024 0.751 0 0.761-1.282 0.937-1.345a0.344 0.344 0 0 0 0.106 0.02c0.091 0 0.234-0.067 0.234-0.235 0-0.182-0.22-0.23-0.263-0.32z m-1.215 0.961c-0.196-0.005-0.354-0.163-0.354-0.359 0-0.201 0.158-0.359 0.354-0.358 0.196 0 0.359 0.163 0.359 0.358a0.358 0.358 0 0 1-0.359 0.359z m6.425-5.181c-1.311 0-0.971 1.148-2.502 1.498-0.282 0.062-0.363 0.153-0.364 0.277 0 0.234 0.129 0.536 0.292 0.536 0.665 0 1.703-1.383 1.889-1.383v-0.009c0.078 0.005 0.158 0.012 0.153 0.196 0 0.502-1.445 1.158-1.444 1.517 0 0.215 0.512 0.67 1.009 0.669 0.722 0.005 1.368-1.473 1.521-1.473 0.12 0 0.163 0.086 0.163 0.177 0 0.402-0.488 1.186-1.344 1.526-0.177 0.072-0.206 0.153-0.206 0.215 0 0.196 0.225 0.488 0.431 0.488 0.249 0 1.923-1.459 1.923-2.636 0-1.105-0.799-1.598-1.521-1.598z m0.602 1.268a0.574 0.574 0 0 1-0.263-0.067c-0.115-0.053-0.321-0.225-0.32-0.488 0-0.239 0.134-0.34 0.258-0.339 0.383 0 0.785 0.34 0.789 0.607 0 0.215-0.206 0.287-0.464 0.287zM3.727 6.874c0 0.196 0.158 0.354 0.354 0.359 0.196 0 0.354-0.163 0.354-0.359 0-0.196-0.163-0.354-0.354-0.354-0.191 0.005-0.359 0.163-0.359 0.354h0.005z m-0.464-0.799c0 0.196 0.158 0.354 0.354 0.354 0.196 0 0.359-0.163 0.358-0.358 0-0.196-0.163-0.359-0.358-0.359s-0.354 0.172-0.354 0.363z m-0.321 2.435c-0.206 0.053-0.631 0.301-0.631 0.747 0 0.321 0.254 0.526 0.559 0.526 0.163 0 0.278-0.033 0.35-0.091-0.249-0.239-0.34-0.507-0.34-0.775 0-0.177 0.029-0.292 0.062-0.407z m-2.186 0.129c-0.009 0.043-0.009 0.091-0.01 0.134 0 0.421 0.215 0.651 0.512 0.651 0.22 0 0.483-0.134 0.713-0.426-0.096 0.019-0.215 0.029-0.321 0.029-0.321 0-0.684-0.091-0.894-0.388z m-0.311 0.799c0 0.674 0.206 0.995 0.569 1 0.287 0 0.67-0.206 1.124-0.598-0.349 0.081-0.617 0.134-0.856 0.139C0.962 9.974 0.718 9.85 0.445 9.438z m2.31-3.568c0.043-0.143 0.081-0.321 0.082-0.517 0-0.426-0.196-1.076-0.804-1.076-0.349 0-0.598 0.277-0.598 0.607 0 0.708 0.708 0.99 1.32 0.986z m0.45 0.899c-0.115-0.153-0.072-0.292-0.143-0.364-0.043-0.043-0.167-0.043-0.33-0.062a2.24 2.24 0 0 0-0.197-0.009c-0.292 0-0.641 0.038-1.033 0.287-0.77 0.488-0.66 1.311-0.78 1.511-0.014 0.029-0.029 0.062-0.028 0.101 0 0.081 0.091 0.172 0.172 0.167 0.072 0 0.115-0.019 0.153-0.019 0.215 0 0.459 0.148 0.799 0.153 0.206 0 0.445-0.062 0.746-0.215 0.641-0.321 0.89-1.115 0.89-1.249 0-0.168-0.134-0.148-0.249-0.301zM1.995 8.118c-0.292 0-0.612-0.364-0.612-0.694 0-0.177 0.134-0.402 0.229-0.402 0.034 0 0.057 0.024 0.058 0.091 0.053 0.435 0.344 0.684 0.607 0.814 0.029 0.024 0.048 0.024 0.048 0.043 0 0.053-0.167 0.143-0.33 0.148z m0.837-0.55c-0.311 0-0.56-0.474-0.56-0.742 0-0.167 0.1-0.187 0.23-0.186 0.062 0 0.091 0.01 0.139 0.033 0.077 0.043 0.077 0.215 0.177 0.354 0.062 0.081 0.23 0.182 0.229 0.254 0 0.124-0.072 0.287-0.215 0.287z m0.852 0.21c-0.196 0.23-0.402 0.622-0.402 1.029 0 0.478 0.297 0.88 0.756 0.88 0.435 0 0.641-0.373 0.641-0.756-0.005-0.603-0.545-1.024-0.995-1.153zM1.775 6.066s-0.258 0.196-0.579 0.196c-0.383 0-0.684-0.287-0.684-0.684 0-0.278 0.143-0.56 0.473-0.703-0.009 0.053-0.009 0.096-0.009 0.153-0.005 0.502 0.277 0.89 0.799 1.038zM17.489 9.022c0 0.206 0.172 0.378 0.378 0.373 0.206 0 0.373-0.168 0.373-0.373s-0.167-0.373-0.373-0.373c-0.21 0-0.378 0.172-0.378 0.373z m0.024 1.124c0 0.23 0.182 0.421 0.421 0.421a0.422 0.422 0 0 0 0.421-0.421 0.422 0.422 0 0 0-0.421-0.421c-0.23 0.01-0.421 0.191-0.421 0.421z m-1.282 0.761c0 0.344 0.273 0.617 0.617 0.617 0.34 0 0.617-0.277 0.617-0.617s-0.277-0.617-0.617-0.617c-0.34 0.005-0.617 0.278-0.617 0.617z m0.33-1.263c0 0.196 0.158 0.354 0.354 0.359 0.196 0 0.359-0.163 0.359-0.359s-0.163-0.359-0.359-0.359c-0.191 0-0.349 0.163-0.349 0.364l-0.005-0.005z m-1.167 0.718c0 0.196 0.158 0.354 0.354 0.354s0.359-0.158 0.359-0.354-0.163-0.354-0.359-0.354c-0.191 0-0.349 0.163-0.354 0.354z m0.919-2.091c0 0.306 0.263 0.569 0.569 0.569s0.569-0.258 0.569-0.569-0.258-0.569-0.569-0.569c-0.311 0-0.569 0.263-0.569 0.569z m0.665-1.091c0 0.182 0.148 0.344 0.344 0.34a0.341 0.341 0 0 0 0.34-0.34 0.341 0.341 0 0 0-0.34-0.339c-0.191 0.005-0.349 0.153-0.344 0.339z m-1.613 0.857c0 0.182 0.148 0.344 0.33 0.339a0.341 0.341 0 0 0 0.34-0.339 0.341 0.341 0 0 0-0.34-0.34c-0.177 0.005-0.33 0.153-0.33 0.34z m-0.043 1.162c0 0.306 0.239 0.55 0.536 0.545a0.542 0.542 0 0 0 0.545-0.545 0.542 0.542 0 0 0-0.545-0.545c-0.297-0.005-0.541 0.234-0.536 0.545z m-1.124 0.565c0 0.273 0.23 0.502 0.502 0.507 0.278 0 0.507-0.23 0.507-0.507 0-0.278-0.234-0.507-0.507-0.507-0.268 0-0.502 0.225-0.502 0.507z m0.302-1.259c0 0.196 0.158 0.354 0.354 0.354s0.359-0.163 0.358-0.358-0.163-0.359-0.358-0.359c-0.191-0.005-0.349 0.158-0.35 0.359h-0.004v0.004z m3.133 2.751c0-0.177 0.163-0.33 0.335-0.33 0.196 0 0.344 0.148 0.344 0.33 0 0.206-0.153 0.349-0.349 0.344a0.331 0.331 0 0 1-0.33-0.344z m0.301 9.367c0.072-0.062 0.091-0.163 0.091-0.259v-0.205c0-0.258-0.392-0.411-0.928-0.412-0.651 0-1 0.292-1 0.416v0.412c0 0.172 0.388 0.344 0.881 0.344 0.378 0 0.727-0.101 0.956-0.296z m0.464 0.095c-0.23 0.177-0.775 0.579-1.674 0.584-0.483 0-0.694-0.153-0.765-0.153-0.091 0-0.186 0.091-0.287 0.205-0.21 0.249-0.488 0.713-0.488 1.225 0 0.354 0.273 0.708 0.789 0.713 1.669 0 2.913-1.043 2.913-1.89 0.005-0.48-0.283-0.686-0.488-0.684z m-0.842 1.636c-0.225 0.153-0.526 0.277-0.971 0.282 0.072-0.215 0.124-0.435 0.125-0.65 0-0.072-0.01-0.124-0.019-0.206h0.114c0.698-0.005 1.004-0.282 1.058-0.277 0.043 0 0.1 0.024 0.1 0.186 0 0.196-0.091 0.454-0.407 0.665z m1.153-9.132c0 0.215 0.067 0.478 0.297 0.483 0.186 0 0.349-0.287 0.349-0.598 0-0.359-0.062-0.631-0.062-0.775 0-0.062 0.029-0.091 0.062-0.091 0.134 0.009 0.263 0.378 0.402 0.378 0.163 0 0.402-0.297 0.497-0.296 0.029 0 0.034 0.034 0.034 0.043 0 0.134-0.206 0.431-0.206 0.55 0 0.1 0.512 0.115 0.512 0.206 0 0.134-0.541 0.134-0.799 0.248-0.249 0.105-0.402 0.239-0.402 0.421s0.182 0.215 0.436 0.216c0.598 0 1.014-0.321 1.148-0.321 0.029 0 0.048 0.024 0.048 0.043 0 0.091-0.301 0.383-0.302 0.512 0 0.148 0.55 0.33 0.55 0.421-0.01 0.029-0.043 0.033-0.105 0.033-0.1 0-0.249-0.029-0.368-0.028-0.072 0-0.134 0.01-0.163 0.043-0.062 0.067 0.024 0.545-0.105 0.545-0.115 0-0.421-1.052-1.105-1.052-0.101 0-0.168 0.081-0.168 0.215 0 0.354 0.344 0.765 0.675 0.962 0.148 0.101 0.402 0.196 0.402 0.253 0 0.105-0.569 0.01-0.57 0.187 0 0.158 0.067 0.402 0.067 0.545 0 0.043-0.01 0.096-0.062 0.1-0.105 0-0.368-0.488-0.492-0.488-0.105 0-0.34 0.292-0.436 0.292-0.024 0-0.043-0.029-0.043-0.052 0-0.206 0.33-0.67 0.33-1.124 0-0.215-0.029-0.679-0.287-0.68-0.215 0-0.454 0.34-0.56 0.675-0.062 0.196-0.019 0.952-0.162 0.952-0.134 0-0.101-0.507-0.278-0.507-0.134 0-0.416 0.239-0.516 0.239-0.019 0-0.034-0.01-0.034-0.029 0-0.105 0.258-0.455 0.259-0.526 0-0.134-0.588-0.153-0.589-0.258 0-0.062 0.23-0.105 0.445-0.144 0.454-0.081 1.124-0.411 1.124-0.875 0-0.517-0.497-0.742-0.827-0.952-0.167-0.105-0.359-0.196-0.359-0.268 0-0.072 0.215-0.072 0.301-0.072 0.134 0 0.268-0.01 0.268-0.115 0-0.081-0.019-0.239-0.019-0.363 0-0.091 0.009-0.163 0.043-0.163 0.134 0 0.321 0.435 0.411 0.435 0.143 0 0.34-0.359 0.474-0.358 0.043 0 0.057 0.024 0.057 0.105-0.005 0.335-0.172 0.713-0.172 1.033z m-4.253-2.607c0.101 0.756 1.119 0.378 1.12 1.292 0 0.134-0.033 0.33-0.034 0.497 0 0.196 0.024 0.364 0.173 0.364 0.153 0 0.186-0.105 0.186-0.249s-0.034-0.321-0.033-0.421c0-0.311 0.225-0.383 0.358-0.383 0.34 0 0.593 0.344 1.11 0.349-0.115 0.569-1.292 0.421-1.291 1.043 0 0.306 0.306 0.388 0.512 0.388 0.186 0 0.249-0.029 0.248-0.187 0-0.091-0.019-0.187-0.019-0.249 0-0.034 0.029-0.072 0.072-0.071 0.196 0 1.153 0.732 1.153 0.952 0 0.206-1.014 0.411-1.311 0.411-0.091 0-0.105-0.062-0.105-0.096 0-0.062 0.153-0.249 0.153-0.358 0-0.081-0.134-0.134-0.493-0.134-0.167 0-0.297 0.019-0.296 0.153 0 0.239 0.388 0.536 0.387 0.756 0 0.177-0.105 0.287-0.392 0.287-0.239 0-0.603-0.187-0.603-0.498 0-0.249 0.258-0.497 0.258-0.651 0-0.043-0.034-0.115-0.138-0.114-0.33 0-0.421 0.875-1.589 0.971 0.187-0.167 0.349-0.359 0.35-0.742 0-0.187-0.043-0.34-0.043-0.545 0-0.268 0.124-0.402 0.301-0.402 0.33 0 0.493 0.469 0.708 0.469 0.115 0 0.239-0.105 0.239-0.268 0-0.679-1.301-0.579-1.301-1.531-0.009-0.268 0.086-0.588 0.32-1.033z m2.995 5.554c0.062 0.101 0.091 0.196 0.091 0.287 0 0.249-0.168 0.483-0.167 0.741 0 0.297 0.23 0.536 0.559 0.536 0.364 0 0.617-0.292 0.617-0.641-0.005-0.478-0.435-0.88-1.1-0.923z m-2.951 0.569c0.091 0.091 0.115 0.182 0.114 0.268 0 0.134-0.062 0.277-0.062 0.426 0 0.215 0.158 0.402 0.388 0.402 0.249 0 0.421-0.196 0.421-0.426 0.005-0.335-0.34-0.67-0.857-0.67h-0.004z m0.215-1.052c0.411 0.057 0.512 0.196 0.512 0.311 0 0.196-0.177 0.258-0.35 0.258-0.124 0-0.268-0.029-0.421-0.029-0.196 0-0.392 0.043-0.554 0.23 0.115 0.024 0.287 0.101 0.287 0.277 0 0.517-1.435 0.091-1.435 1.416 0 0.708 0.732 1.473 1.841 1.469 0.569 0 0.938-0.187 0.938-0.402 0-0.168-0.301-0.053-0.302-0.196 0-0.062 0.105-0.177 0.106-0.277 0-0.043-0.034-0.124-0.106-0.125-0.163 0-0.464 0.258-1.081 0.263-0.483 0-0.952-0.278-0.952-0.65 0-0.081 0.034-0.124 0.091-0.125 0.052 0 0.124 0.034 0.182 0.034 0.053 0 0.062-0.034 0.062-0.134s0-0.373 0.168-0.373 0.493 0.627 1.727 0.626c0.407 0 1.201-0.081 1.497-0.349-0.01 0.981-0.775 2.272-2.382 2.272-1.665 0-2.559-1.339-2.56-2.568 0-1.363 1.115-2.602 2.641-2.603 0.392 0 0.718 0.139 0.717 0.302 0 0.249-0.584 0.101-0.626 0.373z m0.971-0.469c0.124 0.148 0.168 0.311 0.163 0.454 0 0.383-0.292 0.775-0.292 1.148 0 0.502 0.33 0.813 0.784 0.814 0.497 0 0.785-0.421 0.785-0.876 0-0.66-0.502-1.359-1.44-1.54z m0.679 1.411c-0.124-0.01-0.215-0.101-0.215-0.225 0-0.067 0.043-0.177 0.057-0.263 0.019-0.12-0.01-0.225 0.063-0.225 0.163 0 0.33 0.258 0.33 0.445 0 0.143-0.091 0.268-0.235 0.268zM8.95 5.511c-0.455 0.009-0.875 0.383-1.162 0.89a1.697 1.697 0 0 0 0.029-0.306c0-0.694-0.373-1.32-1.077-1.321-0.569 0-1.086 0.33-1.301 0.971 0.062-0.067 0.249-0.182 0.402-0.181 0.177 0 0.23 0.153 0.23 0.392 0 0.163-0.038 0.349-0.101 0.526-0.11 0.292-0.306 0.383-0.411 0.383-0.445 0-0.244-0.732-0.469-0.732-0.187 0-0.239 0.392-0.239 0.545 0 0.507 0.33 1.043 1.062 1.043 0.775 0 1.215-0.368 1.688-0.866 0.091 0.536 0.383 1.454 1.168 1.454 0.426 0 0.732-0.354 0.765-0.765-0.057 0.053-0.134 0.096-0.225 0.096-0.163 0-0.196-0.23-0.196-0.436 0-0.33 0.096-0.684 0.249-0.684 0.081 0 0.124 0.053 0.143 0.292 0.014 0.187 0 0.392 0.115 0.392s0.187-0.368 0.187-0.617c0-0.574-0.268-1.076-0.857-1.076zM6.31 7.233c-0.076 0-0.096-0.072-0.101-0.134 0-0.349 0.383-1.909 0.66-1.909 0.067 0 0.091 0.053 0.091 0.125 0 0.278-0.349 1.918-0.65 1.918z m1.186-0.665c-0.23 0.258-0.354 0.364-0.454 0.364-0.053 0.005-0.105-0.086-0.106-0.192 0-0.191 0.134-0.904 0.402-0.904 0.105 0 0.177 0.196 0.177 0.373 0 0.134 0 0.244-0.019 0.359z m0.522 0.617c-0.091 0.005-0.139-0.143-0.158-0.464 0.143-0.239 0.239-0.344 0.33-0.344 0.038 0 0.072 0.034 0.072 0.186v0.005h0.004c0 0.311-0.148 0.622-0.248 0.617z m0.478 0.541c-0.057 0-0.1-0.081-0.096-0.268 0-0.483 0.311-1.363 0.498-1.364 0.053 0 0.072 0.124 0.072 0.24 0 0.536-0.249 1.392-0.474 1.392z m-1.215 0.186c-0.383 0-0.402 0.464-0.402 1.402-0.287-0.617-0.756-1.272-1.311-1.272-0.373 0-0.517 0.249-0.516 0.684 0 0.091 0.01 0.23 0.024 0.301 0.043-0.153 0.186-0.215 0.363-0.215 0.383 0 0.847 0.297 1.153 0.693-0.349-0.062-0.689-0.124-0.971-0.124-0.177 0-0.34 0.019-0.474 0.081-0.258 0.115-0.608 0.497-0.607 1.077 0 0.091 0.009 0.182 0.024 0.291 0.311-0.694 1.139-1.009 1.674-1.009 0.105 0 0.182 0.01 0.254 0.019-0.277 0.249-0.34 0.684-0.359 0.981-0.009 0.143-0.062 0.153-0.163 0.148 0 0.297 0.23 0.732 0.23 0.952 0 0.081-0.043 0.153-0.091 0.167 0 0.388 0.388 0.674 0.387 0.924 0 0.062-0.019 0.115-0.043 0.143 0.029 0.158 0.459 0.435 0.512 0.565 0.067 0.158 0.148 0.196 0.196 0.196 0.153 0 0.392-0.177 0.393-0.34 0-0.053-0.043-0.115-0.082-0.143-0.167-0.124-0.258-0.392-0.33-0.57-0.062 0-0.144-0.024-0.172-0.129-0.048-0.187-0.053-0.526-0.124-0.732-0.115-0.029-0.167-0.072-0.168-0.311 0-0.115 0.072-0.569 0.072-0.732-0.053 0-0.124-0.033-0.124-0.143 0-0.287 0.287-0.507 0.363-0.875 0.507 0.378 0.627 0.756 0.627 1.095 0 0.177-0.029 0.349-0.062 0.507 0.373-0.186 0.938-0.464 0.937-1.024 0-0.33-0.153-0.694-1.157-0.837 0.311-0.115 0.703-0.177 1.033-0.177 0.569 0 0.904 0.182 0.971 0.584 0.115-0.177 0.206-0.383 0.206-0.569 0-0.435-0.364-0.722-0.828-0.723-0.545 0-1.024 0.287-1.54 0.627 0.234-0.483 0.392-0.765 0.679-0.765 0.043 0 0.091 0.009 0.139 0.019-0.096-0.383-0.502-0.77-0.713-0.766z m15.021 6.425c0.445 0 0.799 0.584 0.799 1.258 0 0.722-0.34 1.507-0.943 2.047-0.01-1.201-1.483-0.818-1.483-1.693 0-0.373 0.268-0.622 0.589-0.622 0.287 0 0.502 0.081 0.674 0.239-0.163-0.153-0.239-0.364-0.239-0.569-0.005-0.349 0.21-0.66 0.603-0.66z m-6.616-9.118c-0.072-0.115-0.34-0.177-0.464-0.177-0.392 0-0.66 0.277-0.713 0.526-0.034-0.091-0.062-0.196-0.062-0.301 0-0.392 0.268-0.875 0.918-0.876 0.569 0 0.789 0.297 0.871 0.297 0.091 0 0.177-0.091 0.249-0.091 0.096 0 0.1 0.148 0.1 0.258 0 0.354-0.163 0.971-0.564 1.201-0.072-0.153-0.215-0.321-0.445-0.426-0.062-0.029-0.091-0.081-0.091-0.134 0.005-0.105 0.096-0.23 0.201-0.277z m-1.344 0.651c0.23 0.23 0.435 0.321 0.684 0.32 0.101 0 0.215-0.029 0.277-0.029 0.081 0 0.139 0.033 0.139 0.101 0 0.101-0.091 0.258-0.196 0.349 0.105 0.048 0.23 0.057 0.344 0.062 0.507 0 1.086-0.321 1.086-1.124 0.105 0.139 0.172 0.435 0.172 0.569 0 0.971-0.713 1.344-1.373 1.345-0.43 0-0.641-0.143-0.698-0.144-0.168 0-0.158 0.34-0.277 0.33-0.206-0.033-0.392-0.488-0.393-0.971 0-0.287 0.077-0.598 0.239-0.818h-0.004v0.01zM6.712 0.201c0-0.053-0.268-0.105-0.632-0.105-0.579 0-0.497 0.483-0.942 0.478-0.464 0-0.349-0.497-0.938-0.497-0.359 0-0.684 0.062-0.684 0.143 0 0.1 0.421 0.057 0.421 0.354 0 0.311-0.899 0.402-0.899 0.589 0 0.058 0.067 0.091 0.158 0.091 0.196 0 0.507-0.091 0.732-0.091 0.124 0 0.239 0.024 0.239 0.143 0 0.225-0.483 0.622-0.483 0.804 0 0.057 0.048 0.067 0.09 0.072 0.177 0 0.483-0.455 0.766-0.455 0.474 0 0.158 1.005 0.421 1.009 0.268 0 0.153-0.99 0.536-0.99 0.311 0 0.55 0.684 0.755 0.684 0.053 0 0.096-0.043 0.096-0.105 0-0.187-0.268-0.569-0.268-0.818 0-0.153 0.105-0.225 0.249-0.225 0.206 0 0.478 0.124 0.627 0.125 0.053 0 0.105-0.019 0.105-0.082 0-0.215-0.794-0.445-0.794-0.722C6.276 0.33 6.716 0.33 6.712 0.201z m2.095 0.909c0 0.158 0.56 0.502 0.823 0.507 0.153 0 0.196-0.206 0.196-0.421 0-0.268-0.115-0.277-0.349-0.277-0.297 0.005-0.67 0.086-0.67 0.191z m0.928 1.765c0-0.536-1.445-1.507-1.464-1.923 0-0.038 0.019-0.077 0.053-0.11C8.573 0.579 9.601 0.392 9.601 0.167c0-0.115-0.215-0.115-0.321-0.115-0.828 0-2.043 0.301-2.042 0.599 0 0.306 1.086 1.038 1.086 1.406 0 0.101-0.062 0.134-0.163 0.139-0.301 0-0.962-0.363-1.272-0.364-0.143 0-0.196 0.096-0.197 0.239 0 0.421 0.502 1.234 0.503 1.474 0 0.029-0.009 0.062-0.043 0.062-0.163 0-0.918-0.89-1.187-0.89-0.096 0-0.105 0.134-0.105 0.33v0.302c0 0.206-0.01 0.33-0.105 0.33-0.23 0-0.34-0.65-0.56-0.651-0.23 0-0.277 1.158-0.497 1.153-0.258 0-0.034-1.272-0.287-1.273-0.278 0-0.588 0.847-0.785 0.847-0.072 0-0.091-0.072-0.091-0.134 0-0.258 0.153-0.679 0.153-0.928 0-0.124-0.034-0.196-0.143-0.196-0.277 0-0.885 0.445-1.115 0.445-0.033 0-0.081-0.019-0.081-0.053 0-0.215 0.971-0.89 0.971-1.196 0-0.296-1.339-0.1-1.339-0.435 0-0.287 0.952-0.579 0.952-0.875 0-0.258-1.134-0.373-1.57-0.373C0.837 0.01 0.55 0.072 0.55 0.225c0 0.23 1.201 0.306 1.201 0.502s-1.239 0.722-1.239 1.024c0 0.263 1.746 0.024 1.746 0.296 0 0.301-1.526 1.612-1.526 2.048 0 0.1 0.067 0.139 0.172 0.143 0.464 0 1.665-0.88 1.995-0.88 0.115 0 0.124 0.139 0.124 0.263 0 0.234-0.081 0.589-0.081 0.847 0 0.206 0.057 0.344 0.23 0.349 0.33 0 0.631-0.56 0.856-0.56 0.287 0 0.115 1.646 0.55 1.651 0.364 0 0.517-1.784 0.746-1.784s0.421 0.512 0.627 0.511c0.268 0 0.143-0.899 0.43-0.899 0.311 0 1.201 1.076 1.598 1.072 0.124 0 0.167-0.101 0.168-0.225 0-0.474-0.66-1.54-0.661-1.88 0-0.091 0.024-0.115 0.125-0.115 0.349 0 1.359 0.478 1.842 0.478 0.182 0.019 0.277-0.072 0.282-0.191z m-8.142-0.516c0 0.177-0.679 0.775-0.918 0.775-0.091 0-0.115-0.105-0.115-0.206 0-0.177 0.081-0.426 0.177-0.507 0.115-0.105 0.383-0.158 0.588-0.158 0.129 0 0.268 0.024 0.268 0.096z m6.554 0.918c0 0.306 1.119 1.842 1.325 1.837 0.177 0 0.311-0.311 0.311-0.579 0-0.072-0.019-0.143-0.053-0.196-0.163-0.225-1.292-1.115-1.54-1.115-0.024-0.005-0.048 0.019-0.043 0.053zM23.507 0.172c-0.445 0-0.521-0.139-0.822-0.138-0.364 0-0.622 0.249-0.622 0.621 0 0.124 0.043 0.321 0.043 0.579 0 0.316-0.062 0.608-0.34 0.608-0.254 0-0.354-0.167-0.354-0.364 0-0.354 0.187-0.593 0.187-0.827 0-0.426-0.526-0.55-1.077-0.55-0.66 0-1.373 0.177-1.373 0.267 0 0.153 0.952 0.062 1.622 0.919-0.435 0.01-1.282 0.206-1.282 0.32 0 0.143 1.516 0.306 1.516 0.938 0.005 0.416-0.33 0.459-0.459 0.464-0.502 0-0.77-0.512-0.904-0.512a0.07 0.07 0 0 0-0.072 0.072c0 0.081 0.072 0.292 0.072 0.516 0 0.569-0.631 0.631-0.631 0.747 0 0.043 0.019 0.062 0.091 0.071a9.153 9.153 0 0 0 1.382 0.106c1.612 0 2.932-0.502 2.932-1.909 0-0.775-0.239-1.024-0.239-1.402 0-0.124 0.091-0.383 0.33-0.526z m-2.286 3.047c-0.1 0-0.215 0-0.33-0.009 1.043-0.167 1.622-0.77 1.621-1.564 0.234 0.067 0.378 0.306 0.373 0.559 0 0.464-0.445 1.014-1.664 1.014zM22.689 0.794c-0.129-0.005-0.23-0.096-0.229-0.22 0-0.129 0.105-0.22 0.229-0.225a0.225 0.225 0 0 1 0.225 0.225c0 0.124-0.101 0.225-0.225 0.22z m0.56 11.581c-0.416 0-0.66 0.732-1.067 0.775 0.258-1.072 1.32-1.622 1.321-2.621 0-1.134-0.952-1.531-1.349-1.784-0.665-0.938-1.139-1.679-2.206-1.679-0.455 0-0.742 0.081-1.052 0.081-0.603-0.005-0.789-0.234-0.833-0.235-0.01 0-0.019 0.01-0.019 0.043 0 0.828 0.435 2.727 2.354 2.727 1.024 0 1.464-0.392 1.703-0.392 0.258 0 1.086 0.282 1.086 1.229 0 0.526-0.416 1.062-0.569 1.062-0.148 0.005-0.306-0.234-0.307-0.488 0-0.282 0.153-0.799 0.153-1.119 0-0.12-0.019-0.177-0.09-0.177-0.163 0-0.928 0.478-0.928 1.096 0 0.526 0.775 0.847 1.066 0.999-0.292 0.483-0.469 0.794-0.612 1.239 0-0.335-0.321-1.019-0.421-1.306-0.493-1.339-0.665-1.588-1.679-1.703 0.153 0.536 1.899 1.827 1.899 3.148 0 0.081-0.009 0.196-0.019 0.239-0.526-1.54-1.43-1.894-1.76-2.272-0.536-0.588-0.23-1.158-1.086-1.478 0.053 0.072 0.072 0.163 0.071 0.258 0 0.282-0.163 0.641-0.162 0.89 0 0.928 1.091 0.651 1.722 1.158 0.622 0.502 0.971 1.32 1.229 2.229 0.249-0.397 0.392-0.88 0.837-0.88 0.287 0 0.383 0.359 0.383 0.607 0 0.053 0 0.101-0.009 0.134 0.426-0.364 0.651-0.952 0.65-1.344 0-0.263-0.091-0.435-0.306-0.436z m-1.66-3.496c-0.091 0-0.263-0.048-0.378-0.048-0.306 0-0.521 0.421-0.679 0.421-0.057 0-0.081-0.053-0.081-0.101 0-0.172 0.301-0.378 0.301-0.492 0-0.081-0.129-0.105-0.182-0.106-0.306 0-0.732 0.416-0.971 0.416-0.043 0-0.101-0.024-0.1-0.081 0-0.115 0.321-0.278 0.32-0.402 0-0.11-0.139-0.134-0.23-0.134-0.148 0-0.445 0.081-0.631 0.082-0.1 0-0.182-0.019-0.182-0.101 0-0.182 0.579-0.062 0.579-0.277 0-0.105-0.182-0.301-0.182-0.402 0-0.038 0.048-0.067 0.091-0.067 0.206 0 0.421 0.56 0.66 0.56 0.105 0 0.134-0.081 0.134-0.196s-0.024-0.172-0.024-0.273c0-0.105 0.043-0.134 0.077-0.134 0.148 0 0.282 0.804 0.694 0.804 0.182-0.005 0.053-0.493 0.215-0.493 0.101 0 0.124 0.143 0.134 0.225 0.043 0.526 0.517 0.545 0.516 0.732 0 0.019-0.029 0.067-0.081 0.067zM17.006 0.057c-0.598 0-1.033 0.292-1.267 0.292-0.139 0.01-0.354-0.349-0.464-0.349-0.043 0-0.091 0.091-0.091 0.239 0 0.1 0 0.411-0.106 0.412-0.215 0-1.043-0.612-1.042-0.393 0 0.206 0.55 0.832 0.55 0.995s-0.545 0.311-0.546 0.421c0 0.196 0.584 0.23 0.584 0.484 0 0.249-0.608 0.445-0.608 0.626 0 0.148 0.608 0.048 0.608 0.23 0 0.186-0.445 0.813-0.445 0.99 0 0.048 0.01 0.048 0.048 0.048 0.167 0.005 0.679-0.579 0.799-0.579 0.143 0 0.172 0.344 0.196 0.555 0.019 0.1 0.034 0.115 0.081 0.115 0.105 0 0.277-0.411 0.392-0.412 0.168 0 0.627 0.469 1.383 0.474 1.076 0 2.095-0.756 2.095-2.095 0-1.292-0.909-2.052-2.167-2.053z m-1.526 2.875c-0.029 0-0.043-0.034-0.043-0.081l-0.019-0.354c0-0.034-0.019-0.072-0.062-0.072-0.105 0-0.311-0.01-0.373-0.009-0.043 0-0.062-0.01-0.062-0.029 0.009-0.067 0.363-0.321 0.368-0.378 0-0.1-0.349-0.287-0.349-0.392 0-0.019 0.019-0.029 0.043-0.029 0.101 0 0.263 0.034 0.402 0.034 0.115 0 0.134-0.497 0.22-0.498 0.062 0 0.172 0.469 0.263 0.469 0.115 0 0.33-0.134 0.421-0.134 0.019 0 0.034 0.01 0.033 0.029 0 0.062-0.225 0.301-0.225 0.378 0 0.081 0.502 0.182 0.503 0.248 0 0.091-0.507 0.081-0.507 0.163 0 0.057 0.182 0.306 0.181 0.388 0 0.019-0.01 0.029-0.028 0.028-0.072 0-0.349-0.124-0.431-0.124-0.1 0-0.258 0.363-0.335 0.363z m1.545 0.771c-0.627 0-1.033-0.311-1.033-0.474 0-0.081 0.053-0.134 0.124-0.134 0.196 0 0.627 0.297 0.766 0.297 0.034 0 0.062-0.019 0.062-0.072 0-0.163-0.153-0.426-0.153-0.56 0-0.034 0.029-0.062 0.081-0.062 0.239 0 0.593 0.101 0.79 0.1 0.062 0 0.081-0.034 0.081-0.071 0-0.196-0.579-0.579-0.579-0.694 0-0.105 0.722-0.268 0.722-0.435 0-0.177-0.981-0.053-0.98-0.225 0-0.124 0.187-0.34 0.186-0.435 0-0.043-0.034-0.062-0.095-0.063-0.081 0-0.507 0.168-0.689 0.168-0.091 0-0.196-0.019-0.196-0.144 0-0.206 0.349-0.426 0.894-0.425 0.88 0 1.406 0.608 1.407 1.621-0.005 1.287-0.899 1.607-1.388 1.608z m-6.037 15.422c0 0.081-0.029 0.167-0.1 0.259-0.096-0.177-0.373-0.268-0.498-0.268-0.918 0-0.569 1.33-1.55 1.33-0.411 0-0.445-0.053-0.598-0.053-0.062 0-0.1 0.029-0.1 0.081 0 0.23 0.33 0.799 1.244 0.804 0.918 0 1.799-0.56 1.798-1.258 0-0.115-0.029-0.239-0.081-0.364 0.034-0.053 0.124-0.091 0.206-0.091 0.144 0 0.215 0.158 0.354 0.163 0.144 0 0.249-0.105 0.249-0.249 0-0.115-0.062-0.196-0.168-0.248 0.072-0.053 0.124-0.143 0.124-0.24 0-0.153-0.105-0.292-0.287-0.291-0.081 0-0.134 0.029-0.196 0.086-0.019-0.158-0.105-0.311-0.277-0.311-0.134 0-0.234 0.096-0.235 0.253 0.019 0.124 0.115 0.239 0.115 0.397z m-2.87-0.645c-0.062 0-0.143 0.009-0.23 0.009-0.081 0-0.196-0.019-0.268-0.081-0.143-0.124-0.186-0.794-0.454-1.196-0.292-0.445-0.612-0.569-1.052-0.569-0.311 0-0.66 0.167-0.66 0.421 0 0.153 0.086 0.258 0.65 0.406 0.713 0.182 1.076 0.56 1.143 1.014 0.072 0.435 0.158 0.789 0.33 0.971 0.225 0.254 0.665 0.469 1.039 0.469 0.321 0 0.579-0.105 0.578-0.402 0-0.321-0.435-1.043-1.076-1.042z m0.474 0.98c-0.268 0-0.67-0.287-0.67-0.445 0-0.134 0.124-0.206 0.225-0.205 0.225 0 0.627 0.273 0.626 0.507-0.005 0.062-0.048 0.139-0.181 0.143z m2.133-3.922c-0.411-0.148-0.593-0.388-0.674-0.857-0.201 0.273-0.297 0.531-0.297 0.684 0 0.603 0.828 0.612 0.828 1.014-0.005 0.234-0.421 0.474-0.971 0.479-0.641-0.005-1.072-0.105-1.474-0.507-0.105-0.115-0.153-0.215-0.287-0.216-0.153 0-0.215 0.268-0.215 0.508 0 0.875 0.832 1.909 1.99 1.908 1.445-0.005 2.005-1 2.004-1.803 0-0.469-0.11-0.914-0.904-1.21z m-0.426 2.439c-0.115 0-0.139-0.072-0.138-0.172 0-0.081 0.029-0.234 0.028-0.349 0-0.316 0.12-0.292 0.426-0.431h-0.005c0.215-0.1 0.297-0.234 0.364-0.234 0.081 0 0.153 0.053 0.153 0.177 0 0.464-0.507 1.009-0.828 1.009zM7.774 12.519c0-0.569 1.354-0.875 1.353-1.579 0-0.115-0.043-0.321-0.124-0.473 0.474 0.263 0.823 0.698 0.823 1.052 0 0.617-0.641 0.899-0.641 1.282 0 0.445 0.684 0.512 0.684 1.072 0 0.455-0.65 0.981-0.651 1.569 0 0.459 0.321 0.832 0.814 0.89-0.163 0.034-0.301 0.062-0.455 0.062-0.899 0-1.827-0.742-1.827-1.622 0-0.435 0.187-0.818 0.473-1.095 0.249 0.215 0.502 0.354 0.665 0.354 0.143 0 0.206-0.072 0.206-0.177-0.01-0.325-1.315-0.636-1.32-1.335zM5.219 16.274c-0.034-0.321-0.325-0.56-0.622-0.521-0.115 0.014-0.225 0.057-0.296 0.119-0.081-0.268-0.33-0.497-0.675-0.445-0.311 0.053-0.517 0.316-0.483 0.651 0.005 0.057 0.024 0.115 0.048 0.177 0 0-0.053 0.01-0.091 0.014-0.258 0.048-0.545 0.311-0.498 0.651 0.038 0.306 0.321 0.536 0.641 0.498 0.115-0.014 0.225-0.043 0.297-0.091 0.072 0.287 0.306 0.469 0.627 0.425 0.33-0.043 0.55-0.301 0.516-0.631-0.01-0.091-0.029-0.143-0.052-0.206 0 0 0.043-0.005 0.076-0.009 0.321-0.062 0.541-0.321 0.512-0.632z m-1.249 0.67c-0.187 0.024-0.354-0.11-0.378-0.297s0.11-0.354 0.297-0.378c0.191-0.024 0.359 0.115 0.378 0.297 0.024 0.186-0.11 0.354-0.297 0.378z"/></svg>