<svg fill="#FFFFFF" role="img" viewBox="0 0 22 24" xmlns="http://www.w3.org/2000/svg"><title>Unity</title><path d="M11.929 4.294l3.799 2.193c0.137 0.077 0.141 0.29 0 0.367l-4.515 2.608a0.419 0.419 0 0 1-0.424 0L6.274 6.854c-0.139-0.074-0.141-0.293 0-0.367l3.797-2.193V0L0.376 5.598V16.793l3.717-2.146v-4.385c-0.003-0.157 0.181-0.268 0.318-0.184l4.515 2.607a0.425 0.425 0 0 1 0.214 0.368v5.213c0.003 0.157-0.181 0.268-0.318 0.183l-3.8-2.192-3.717 2.145L11 24l9.695-5.598-3.717-2.145-3.8 2.192c-0.134 0.082-0.323-0.025-0.318-0.183V13.053c0-0.157 0.087-0.296 0.214-0.368l4.515-2.607c0.134-0.082 0.323 0.022 0.317 0.184v4.385l3.718 2.146V5.598L11.929 0Z"/></svg>