<svg fill="#009EDB" role="img" viewBox="0 0 29 24" xmlns="http://www.w3.org/2000/svg"><title>United Nations</title><path d="M22.878 21.847a3.725 3.725 0 0 1-2.443 0.289 8.489 8.489 0 0 1-1.629-0.553l-1.155-0.472a5.649 5.649 0 0 0-3.1-0.079h-0.105a5.197 5.197 0 0 0-3.099 0.079c-0.394 0.131-0.762 0.315-1.155 0.472-0.525 0.237-1.077 0.447-1.629 0.579a3.745 3.745 0 0 1-2.442-0.289l-0.105-0.052c-0.026 0-0.026 0-0.027 0.026a3.978 3.978 0 0 0 3.283 1.182 4.769 4.769 0 0 0 2.049-0.788l1.103-0.736a1.873 1.873 0 0 1 1.392-0.263c0.262 0.026 0.052 0.157 0.027 0.184a10.505 10.505 0 0 0-1.866 1.157c-0.394 0.287-1.103 0.971-1.103 0.971l0.525 0.446 0.578-0.63a10.426 10.426 0 0 1 2.417-1.865 0.197 0.197 0 0 1 0.236 0 10.426 10.426 0 0 1 2.416 1.865l0.579 0.63 0.525-0.446-1.104-0.972a10.506 10.506 0 0 0-1.864-1.156c-0.052-0.026-0.236-0.157 0.026-0.184 0.472-0.105 0.971 0 1.392 0.263l1.104 0.736a4.769 4.769 0 0 0 2.048 0.787c0.474 0.054 0.972 0.027 1.444-0.105a4.486 4.486 0 0 0 1.839-1.076s-0.026-0.026-0.052-0.026l-0.105 0.026m2.573-2.285a3.698 3.698 0 0 1-1.103 0.577c-0.552 0.159-1.157 0.262-1.734 0.262-0.761 0.027-1.497 0.08-2.258 0.185-0.052 0-0.079 0-0.052-0.026 0.656-0.262 1.181-0.787 1.47-1.419l0.735-1.496v-0.054c-0.052 0.026-0.787 0.657-1.129 0.972l-1.235 1.209a4.795 4.795 0 0 1-1.917 0.998h-0.026l-0.026 0.026 1.418 0.341a8.972 8.972 0 0 0 1.864 0.342 4.376 4.376 0 0 0 4.046-1.891c0-0.026-0.027-0.026-0.053-0.026m2.311-3.519a5.538 5.538 0 0 1-1.312 1.155c-0.421 0.289-0.867 0.525-1.341 0.736a6.527 6.527 0 0 0-1.654 0.971l-0.105 0.079c-0.026 0-0.026 0-0.026-0.027 0-0.026 0.787-0.813 1.024-2.469 0.026-0.604 0.131-1.181 0.263-1.759v-0.053a7.658 7.658 0 0 0-1.261 2.259l-0.472 1.34c-0.185 0.604-0.525 1.156-0.972 1.602l-0.053 0.052v0.026c0.052 0 0.105-0.026 0.158-0.026l1.523-0.315a5.313 5.313 0 0 0 2.311-0.972 5.357 5.357 0 0 0 1.655-1.944c0.105-0.209 0.184-0.42 0.262-0.63 0.052-0.052 0.026-0.052 0-0.026m0.998-3.94a4.672 4.672 0 0 1-1.208 1.892 17.554 17.554 0 0 0-1.733 1.969c0 0.026-0.052 0-0.026-0.026a5.308 5.308 0 0 0 0.157-2.232c-0.105-0.631-0.367-1.313-0.446-2.075l-0.027-0.026c0 0.026-0.026 0.052-0.026 0.078a7.479 7.479 0 0 0-0.315 1.524c-0.026 0.631 0.079 1.444 0.026 2.075-0.052 0.735-0.105 1.497-0.446 2.153v0.052l1.575-0.971a5.915 5.915 0 0 0 1.655-1.576A4.708 4.708 0 0 0 28.813 12.181v-0.105c-0.026 0-0.052 0.026-0.053 0.026m-1.681 0.421c0.027 0 0.027 0 0 0 0 0.026 0 0 0 0 0-0.211 0-0.421-0.025-0.631-0.052-0.735-0.5-1.339-0.894-1.969a9.762 9.762 0 0 1-0.709-1.261s-0.026-0.026-0.053-0.026c0 0.052 0 0.289 0.026 0.42 0.131 1.05 0.394 2.102 0.789 3.099 0.236 0.631 0.315 1.288 0.262 1.944 0 0.052 0 0.052 0.026 0.079 0.236-0.341 0.71-0.815 0.999-1.182 0.289-0.367 1.864-2.154 1.103-4.622-0.026-0.106-0.079-0.211-0.131-0.316l-0.026 0.026c0 1.787-0.867 2.548-1.209 3.757a5.856 5.856 0 0 0-0.157 0.682m0.026-3.677l-0.157-0.42-0.105-0.237a3.652 3.652 0 0 0-1.077-1.209 5.116 5.116 0 0 1-0.946-1.049h-0.079c0.026 0.079 0.262 0.866 0.42 1.234 0.262 0.499 0.578 0.997 0.946 1.419l0.078 0.105c0.446 0.604 0.787 1.261 1.025 1.969 0 0.026 0.026 0.026 0.026 0.026l0.446-1.366c0.157-0.472 0.289-0.972 0.394-1.47 0.159-1.181-0.21-2.679-0.892-3.519 0 0-0.026 0.025-0.026 0.052l0.026 0.105 0.052 0.158c0.131 0.63 0.157 1.312 0.027 1.944-0.105 0.499-0.131 1.023-0.132 1.548 0 0.079 0.052 0.736 0.053 0.762s-0.026 0-0.053 0m-2.128-6.644c0.21 0.21 0.394 0.446 0.5 0.734 0.184 0.447 0.236 1.103 0.368 1.603l0.236 0.866c0 0.026-0.026 0.052-0.053 0.027a5.16 5.16 0 0 0-1.419-1.181c-0.366-0.211-0.656-0.5-0.919-0.815l-0.131-0.184s-0.026-0.026-0.052 0v0.079c0.131 0.577 0.394 1.13 0.814 1.575 0.341 0.316 0.709 0.605 1.05 0.894a11.427 11.427 0 0 1 1.261 1.261s0.026 0.026 0.026 0v-0.421l0.026-1.261V5.011c0-0.42-0.079-0.867-0.236-1.261-0.262-0.656-0.761-1.181-1.366-1.496-0.026-0.026-0.079-0.026-0.131-0.053 0 0 0 0.026 0.026 0.053M22.3 1.019c0.367 0.341 0.683 0.736 0.973 1.156 0.262 0.42 0.551 0.787 0.918 1.129 0.237 0.236 0.946 0.787 1.13 0.945-0.026-0.21-0.367-1.706-1.287-2.442a4.688 4.688 0 0 0-1.812-0.894v0.054l0.078 0.052M7.591 21.479a8.49 8.49 0 0 0 1.813-0.342l1.417-0.341h0.027s0-0.026-0.027-0.026h-0.026a5.079 5.079 0 0 1-1.944-0.998l-1.233-1.181-1.13-0.973v0.053c0.105 0.157 0.5 1.023 0.736 1.497 0.289 0.656 0.813 1.156 1.471 1.418 0.026 0.026 0 0.026-0.053 0.027a21.236 21.236 0 0 0-2.259-0.184c-0.577 0-1.181-0.105-1.733-0.263a3.7 3.7 0 0 1-1.103-0.578h-0.053a4.584 4.584 0 0 0 2.101 1.628 5.735 5.735 0 0 0 1.996 0.263m-0.603-1.55c0.052 0 0.079 0.026 0.157 0.026v-0.026l-0.052-0.052a4.177 4.177 0 0 1-0.972-1.602l-0.473-1.34a7.658 7.658 0 0 0-1.26-2.259v0.053c0.157 0.578 0.236 1.157 0.288 1.76 0.236 1.628 1.025 2.415 1.025 2.442 0 0.026 0 0.054-0.026 0.026l-0.107-0.079a6.527 6.527 0 0 0-1.654-0.971 8.267 8.267 0 0 1-1.339-0.736 5.538 5.538 0 0 1-1.312-1.155H1.234c0.079 0.21 0.157 0.421 0.262 0.631 0.394 0.761 0.972 1.443 1.682 1.944 0.682 0.525 1.471 0.866 2.31 0.971 0.5 0.131 0.998 0.262 1.499 0.367m-4.23-3.414l1.577 0.971s0.026-0.026 0.026-0.052c-0.342-0.682-0.394-1.418-0.447-2.153-0.052-0.656 0.052-1.444 0.026-2.075a7.726 7.726 0 0 0-0.315-1.55c0-0.026-0.026-0.052-0.026-0.079l-0.026 0.027c-0.052 0.762-0.341 1.444-0.446 2.075a5.37 5.37 0 0 0 0.157 2.232c0.026 0.026-0.026 0.052-0.026 0.026a15.506 15.506 0 0 0-1.734-1.968 4.584 4.584 0 0 1-1.205-1.867s-0.027-0.026-0.054-0.026 0 0.052 0 0.105c0 0.972 0.29 1.944 0.867 2.758 0.42 0.605 0.972 1.157 1.628 1.576m-0.288-2.311c0.026-0.026 0.026-0.026 0.026-0.079-0.052-0.656 0.026-1.339 0.289-1.944 0.369-0.997 0.631-2.022 0.788-3.099 0-0.131 0.026-0.367 0.026-0.42-0.026 0-0.026 0-0.026 0.027a9.762 9.762 0 0 1-0.71 1.26c-0.42 0.577-0.84 1.208-0.892 1.944a2.531 2.531 0 0 0 0 0.63s0 0.026-0.026 0.026v-0.026l-0.184-0.631C1.391 10.684 0.553 9.923 0.553 8.136l-0.026-0.026c-0.052 0.105-0.079 0.21-0.132 0.316-0.762 2.469 0.787 4.255 1.103 4.622s0.736 0.815 0.972 1.156M1.368 9.292l0.447 1.366s0.026 0 0.026-0.026c0.236-0.709 0.604-1.366 1.023-1.97l0.079-0.105c0.369-0.447 0.683-0.92 0.946-1.419 0.157-0.367 0.394-1.155 0.421-1.233H4.23c-0.262 0.394-0.577 0.735-0.945 1.049a3.568 3.568 0 0 0-1.103 1.235c-0.026 0.079-0.079 0.157-0.105 0.237l-0.157 0.446s-0.026 0.052-0.026 0 0.052-0.656 0.052-0.762c0-0.525-0.052-1.05-0.157-1.549a4.838 4.838 0 0 1 0.026-1.945c0-0.051 0.026-0.104 0.052-0.156 0-0.026 0.026-0.079 0.027-0.106s0-0.026-0.027-0.052C1.183 5.142 0.789 6.666 0.946 7.821c0.131 0.499 0.262 0.998 0.42 1.471m0.946-3.835l0.026 1.261v0.394h0.027c0.367-0.472 0.787-0.892 1.234-1.286l1.05-0.895a3.352 3.352 0 0 0 0.814-1.574v-0.079h-0.026l-0.131 0.184a3.308 3.308 0 0 1-0.892 0.813c-0.631 0.394-1.051 0.683-1.42 1.182-0.025 0.026-0.052 0.026-0.025-0.026l0.237-0.866c0.131-0.5 0.184-1.157 0.367-1.603 0.105-0.262 0.289-0.525 0.498-0.735v-0.052c-0.052 0-0.079 0.026-0.131 0.052-0.656 0.341-1.13 0.893-1.392 1.523-0.157 0.394-0.262 0.815-0.236 1.261v0.446M3.704 4.224l1.156-0.945c0.341-0.342 0.656-0.71 0.918-1.129a5.821 5.821 0 0 1 0.972-1.156l0.079-0.079V0.86a4.349 4.349 0 0 0-1.812 0.894c-0.972 0.761-1.287 2.258-1.312 2.469m10.557 8.142c0.079-0.106-0.105-0.185-0.157 0-0.052 0.184 0.079 0.131 0.157 0m1.997-4.624c-0.08-0.026-0.369 0.315-0.316 0.368a0.873 0.873 0 0 0 0.316-0.368m0.053-0.052c0.052 0.026 0.236-0.079 0.21-0.105-0.026-0.026-0.262-0.131-0.263-0.079 0 0.105 0.026 0.157 0.053 0.184m3.545 3.256c0.105-0.026 0.079-0.184 0-0.183s-0.184 0.131-0.158 0.131c0.026 0 0.105 0.079 0.158 0.052m-1.287-3.492c-0.079 0-0.105 0.079-0.027 0.131 0.079 0.026 0.131 0 0.184-0.026a0.178 0.178 0 0 0 0.105-0.158c0-0.079-0.105-0.184-0.053-0.236s0.131 0.026 0.185 0 0.079-0.079 0.079-0.131c0-0.054-0.026-0.211-0.131-0.211s-0.211 0.211-0.211 0.211a0.224 0.224 0 0 0 0 0.184c0.026 0.105 0 0.236-0.131 0.236m1.734 0.026c0 0.052 0.131 0.394 0.157 0.472 0.026 0.079 0.052 0.367 0.105 0.342 0.052-0.026 0.052-0.184 0.026-0.263a3.391 3.391 0 0 0-0.131-0.551c-0.026-0.105-0.21-0.5-0.262-0.473-0.054 0.027 0.079 0.262 0.105 0.368 0.026 0.105-0.026 0.052 0 0.105m-0.92-4.466c0.079 0.026 0.079-0.131-0.052-0.236-0.131-0.105-0.341-0.052-0.289 0 0.105 0.079 0.21 0.184 0.341 0.236m-3.94-1.128c-0.184-0.105-0.026-0.262-0.157-0.369-0.157-0.052-0.315-0.026-0.421 0.079-0.131 0.159 0.159 0.105 0.237 0.159 0.079 0.052 0.341 0.236 0.368 0.21 0.026-0.026 0-0.079-0.027-0.079m1.05-0.525c-0.235-0.106-1.102-0.106-1.076 0.131s0.499 0 0.63 0 0.656-0.027 0.447-0.131m-2.39 10.137c-0.052-0.026-0.131 0.026-0.157-0.026-0.026-0.052-0.079-0.026-0.079 0s-0.026 0.079 0.026 0.131a0.16 0.16 0 0 0 0.21 0 0.08 0.08 0 0 0 0-0.105m-0.499-1.759c0.079 0 0.079-0.052 0.105-0.052s0 0.052 0.079 0.052 0.157-0.185-0.079-0.185c-0.185 0-0.159 0.185-0.105 0.185m0.315 0.21c-0.131-0.026-0.105 0.052-0.21 0.053-0.159 0.026-0.026-0.105-0.078-0.158-0.026-0.026-0.106 0.105-0.132 0.184 0 0.052 0 0.157 0.052 0.183l0.5 0.053c0.105 0 0-0.289-0.132-0.315M12.293 11.655c0.052 0 0.079-0.157 0.053-0.236s-0.185-0.026-0.185 0.026 0.106 0.21 0.131 0.21m-2.1 0c0-0.052 0-0.262-0.053-0.315s-0.052 0.026-0.079 0.026-0.026-0.105-0.052-0.105 0 0.157 0.052 0.263 0.131 0.262 0.132 0.131m-0.053-0.472c0.052-0.157 0.079-0.316 0.079-0.474 0-0.131-0.079-0.236-0.105-0.236s0 0.079 0.026 0.21c0 0.131-0.052 0.262-0.079 0.393 0 0.027 0.052 0.159 0.079 0.107m-2.679 5.882c3.912 3.913 10.217 3.913 14.131 0s3.912-10.217 0-14.13-10.217-3.912-14.131 0-3.913 10.243 0 14.13M4.965 10.212h1.523c0.026 0.787 0.157 1.551 0.394 2.285a0.933 0.933 0 0 1-0.237-0.105c-0.105-0.052-0.184 0.026-0.209 0.026-0.105 0-0.236-0.079-0.237 0s0.105 0.026 0.105 0.079-0.262 0.052-0.288-0.052-0.079-0.211-0.105-0.079-0.131 0.105-0.184 0.131c-0.026 0.026-0.052 0.079-0.052 0.131s-0.131 0.026-0.132 0.105 0.079 0.105 0.105 0.184 0.105 0.131 0.053 0.157c-0.052 0.026-0.026-0.026-0.079 0s0.236 0.815 0.289 0.788-0.079-0.262-0.079-0.368 0.026-0.131 0.105-0.184 0.289 0.315 0.367 0.263-0.026-0.105 0.053-0.131 0.315 0.342 0.393 0.237c0.052-0.08 0.105 0.052 0.105 0.079 0.08 0.131 0.211 0.131 0.29 0.288s0.262 0.446 0.394 0.446c0.131 0 0.052-0.131 0.105-0.131s0.105 0.184 0.184 0.289a0.382 0.382 0 0 0 0.236 0.157c0.184 0.237 0.394 0.474 0.604 0.71l-1.077 1.077A9.226 9.226 0 0 1 4.965 10.212m8.694-2.181l-0.106 0.053a1.472 1.472 0 0 0-0.394 0.262l-1.077-1.076c0.631-0.552 1.419-0.893 2.233-0.919V7.874a2.106 2.106 0 0 0-0.551 0.131c0.052-0.105 0.157-0.21 0.157-0.21s-0.184 0.105-0.262 0.236m-0.815 2.496s0 0.026 0 0v0.052c0-0.052-0.026-0.079-0.052-0.131-0.026-0.026-0.052-0.052-0.079-0.053h-0.131l-0.053 0.027h-0.368c-0.052 0-0.079 0-0.079-0.027-0.026-0.105 0.131-0.026 0.237-0.341 0.026-0.026 0.026-0.079 0.053-0.105l0.052-0.078 0.027-0.027c0.052-0.052 0.105-0.052 0.157-0.052h0.053l0.052 0.052 0.079 0.158c0.026 0.026 0.052 0.026 0.052 0.052a0.363 0.363 0 0 1 0.105 0.079l0.026 0.026v0.026c0.026 0.026 0.026 0.026 0.053 0.027h0.105c0.052-0.026 0.052 0 0.079 0v0.026c0 0.026 0 0.026-0.027 0.052 0 0.026-0.026 0.026-0.026 0.053-0.026 0.026-0.052 0.052-0.079 0.052-0.052 0-0.105-0.026-0.131-0.026s-0.052 0-0.052 0.026v0.132m-2.889 2.521a0.961 0.961 0 0 1-0.105-0.472 0.885 0.885 0 0 0-0.131-0.448c-0.026-0.105-0.052-0.21-0.053-0.314 0-0.184-0.159-0.131-0.158-0.184s0.131 0 0.131-0.053-0.157-0.262-0.289-0.314c-0.131-0.052-0.079-0.131-0.079-0.21s0-0.159-0.052-0.212c-0.026-0.105 0-0.289 0.131-0.288 0.052 0 0.131 0.052 0.211 0 0.079-0.052 0.026-0.21 0.027-0.341h0.734c0 0.105 0.026 0.236 0.026 0.341-0.052 0.026-0.079 0.079-0.052 0.105 0.026 0.026 0.052 0.052 0.079 0.026 0.131 0.762 0.472 1.471 0.998 2.049l-1.077 1.077c-0.079-0.079-0.157-0.185-0.236-0.29v-0.078c0-0.184-0.131-0.289-0.184-0.446m-0.946-1.786a6.095 6.095 0 0 1-0.131-0.998h0.63c-0.052 0.079-0.184 0.157-0.21 0.236s-0.184 0.341-0.079 0.446c0.236 0.262-0.052 0.369-0.21 0.316m0.131 3.887l-0.131 0.131-0.183-0.183c0.105-0.052 0.21-0.026 0.314 0.052m1.629-6.751c-0.026 0-0.026 0.027-0.053 0.028-0.079 0.079-0.289 0.052-0.262 0.131s0.578-0.185 0.578-0.131-0.237 0.131-0.393 0.21-0.211 0.21-0.474 0.209c-0.131 0-0.184 0.105-0.236 0.184a1.956 1.956 0 0 0-0.184 0.315 1.031 1.031 0 0 1-0.105 0.474h-0.763a5.678 5.678 0 0 1 1.498-3.626l1.077 1.078a7.18 7.18 0 0 0-0.683 1.128m0.998-0.787l0.946 0.946h-0.105c-0.105 0-0.105-0.079-0.184-0.079-0.159 0.026-0.185 0.079-0.211 0.053a1.472 1.472 0 0 0-0.394-0.263 0.72 0.72 0 0 0-0.524 0.025c-0.026 0-0.026 0.026-0.053 0.026 0.184-0.236 0.367-0.472 0.525-0.708m-1.312 1.917c0 0.105-0.027 0.211-0.028 0.316h-0.551c-0.026-0.079 0-0.159 0.053-0.238 0.052-0.105 0.184-0.157 0.315-0.131a0.811 0.811 0 0 1 0.21 0.053m0.472 1.234l0.054 0.079c0.052 0.052 0.105 0.105 0.157 0.079 0.052-0.026 0.184 0 0.21 0 0.079 0.026 0.131 0.079 0.184 0.131 0.052 0.08 0.157 0.027 0.236 0.08s0.157 0.105 0.052 0.157c-0.105 0.052 0.105 0.157 0.132 0.158s0.052-0.052 0.052-0.131c0-0.026 0.052-0.131 0.131-0.105 0.079 0.026 0.316 0.315 0.394 0.209 0.08-0.105 0.027-0.236 0.054-0.288 0-0.026 0.026-0.052 0.052-0.053 0.079 0.131 0.131 0.236 0.236 0.341l-1.077 1.078a3.303 3.303 0 0 1-0.867-1.735m0.841-3.756l-1.05-1.076a5.678 5.678 0 0 1 3.624-1.497v1.524c-0.946 0.026-1.838 0.394-2.574 1.049M10.375 5.562L9.299 4.486a7.628 7.628 0 0 1 5.017-2.075v1.523a6.05 6.05 0 0 0-3.94 1.628m-0.314 0.29a6.107 6.107 0 0 0-1.629 3.94H6.908a7.628 7.628 0 0 1 2.075-5.017l1.077 1.077zM8.432 10.212c0 0.289 0.026 0.551 0.079 0.841-0.026 0-0.026-0.08-0.105-0.054s-0.369 0.525-0.5 0.736c-0.105 0.184 0.052 0.577-0.105 0.71a1.487 1.487 0 0 1-0.472 0.078h-0.026a7.462 7.462 0 0 1-0.421-2.259l1.55-0.052z m5.857 9.35a9.471 9.471 0 0 1-6.382-2.653l1.076-1.077a8.046 8.046 0 0 0 5.306 2.207v1.523z m0-1.944a7.628 7.628 0 0 1-5.017-2.076l0.184-0.182a0.574 0.574 0 0 0 0.131 0.078 0.582 0.582 0 0 0 0.368 0.053c0.105-0.026 0.315-0.21 0.446-0.21 0.131 0 0.341 0.052 0.473-0.026s-0.079-0.342-0.158-0.474c-0.026-0.026-0.026-0.052-0.052-0.079a5.909 5.909 0 0 0 3.677 1.392l-0.052 1.524z m0-1.97a5.678 5.678 0 0 1-3.625-1.497l1.077-1.077c0.5 0.446 1.103 0.787 1.786 0.946-0.236 0.105-0.341 0.262-0.315 0.394 0.026 0.131-0.157 0.21-0.158 0.367s0.21 0.262 0.236 0.421c0.026 0.079 0.21 0.21 0.369 0.315 0.21 0.052 0.42 0.079 0.603 0.053l0.027 0.078z m-0.053-2.101c-0.079-0.052-0.131 0.052-0.236 0.105a3.788 3.788 0 0 1-1.944-0.893l1.077-1.077c0.341 0.262 0.736 0.446 1.156 0.473 0 0.052 0.052 0.105 0.052 0.211s-0.079 0.157-0.052 0.21 0.262 0 0.288-0.079c0.026-0.079-0.079-0.131-0.105-0.211-0.026-0.052-0.026-0.079-0.052-0.131H14.5c0.079 0 0.157 0 0.236-0.027a0.056 0.056 0 0 0 0.052-0.052c0-0.026 0.026-0.052 0.027-0.079s0.026-0.026 0.026-0.052l0.026 0.026c0.026 0.052 0.08 0.21 0.131 0.184s0.08-0.262 0.054-0.315a0.197 0.197 0 0 1 0-0.236c0-0.026 0.026-0.184 0.079-0.158s0 0.157 0 0.21c0 0.079 0.052 0.184 0.131 0.131 0.052-0.026 0.105-0.105 0.157-0.078s-0.131 0.079-0.157 0.131c-0.026 0.052 0.079 0.079 0.052 0.105-0.026 0.026-0.052 0-0.078 0.026-0.026 0.026 0.052 0.184 0 0.21s-0.236 0.079-0.289 0.105-0.106-0.026-0.08-0.053 0-0.131-0.052-0.131-0.052 0.026-0.053 0.079 0.052 0.131 0.053 0.159-0.079 0.052-0.132 0.078c-0.052 0.079-0.131 0.157-0.209 0.21s-0.236 0.052-0.237 0.105 0.079 0.052 0.105 0.079c0.052 0.079 0.079 0.184-0.026 0.236s-0.236-0.079-0.289-0.052c-0.052 0.026-0.079 0.157-0.104 0.314-0.026 0.157 0.289 0.21 0.446 0.132 0.105-0.052 0.079-0.21 0.183-0.263s0.079-0.157 0.184-0.131c0.105 0.026 0.079-0.079 0.185-0.079s0.105 0.079 0.236 0.105c0.21 0.052 0.21 0.21 0.236 0.132s0.052-0.131-0.105-0.184-0.236-0.236-0.105-0.184c0.157 0.079 0.289 0.079 0.315 0.158s0.184 0.052 0.21 0.131c0.026 0.131 0.131 0 0.053-0.079s-0.052-0.105 0-0.157 0.079 0.026 0.157-0.079-0.026-0.079-0.052-0.131 0-0.341 0.104-0.289 0.21-0.026 0.158-0.052c-0.052-0.027 0.026-0.185 0.052-0.185s0 0.105 0.027 0.131 0.29-0.079 0.316 0.054-0.184 0.21-0.236 0.209c-0.106 0-0.185 0.105-0.263 0.21-0.08 0.105-0.159 0.131-0.106 0.237s0.157 0.079 0.262 0.026 0.185-0.131 0.238-0.158c0.105-0.052 0.184 0.262 0.131 0.315s-0.157 0.079-0.21 0.131c-0.159 0.079-0.316 0.157-0.5 0.158-0.105 0.026-0.105 0.052-0.131 0.157-0.026 0.106-0.499 0.026-0.603 0.027s0.079-0.236-0.079-0.21l-0.474 0.078c-0.026 0-0.184 0.131-0.315 0.027m1.392 2.442c0.131 0.052 0.262 0.157 0.341 0.263 0.079 0.131 0.105 0.185 0.053 0.316-0.131 0.236-0.079 0.394 0.184 0.472 0.159 0.052 0.211 0.21 0.316 0.315a8.147 8.147 0 0 1-1.787 0.263v-1.524c0.29-0.026 0.605-0.052 0.895-0.105m-0.895-0.314v-0.184c0.342-0.052 0.262 0.157 0.5 0.079a0.204 0.204 0 0 1 0.21 0.052 6.441 6.441 0 0 0-0.71 0.053m0 3.913v-1.551a7.968 7.968 0 0 0 2.338-0.419c0.026 0.027 0.052 0.027 0.079 0.027a0.551 0.551 0 0 0 0.288-0.106 3.089 3.089 0 0 0 0.71-0.394 7.965 7.965 0 0 0 1.89-1.339l1.077 1.077c-1.707 1.682-3.992 2.626-6.381 2.705m4.255-13.736l0.367-0.368a0.65 0.65 0 0 0 0.367 0.209c0.131 0.027 0.184 0.08 0.21 0.212 0.026 0.131 0.157 0.184 0.29 0.21s0.21 0.184 0.315 0.183 0.446 0.472 0.577 0.63c0.079 0.079 0.184 0.211 0.263 0.106 0.079-0.106 0.079-0.08 0.131-0.106a7.717 7.717 0 0 1 0.657 2.863h-1.523c0-0.341-0.052-0.682-0.131-1.024a0.728 0.728 0 0 0 0.079-0.341c0-0.106-0.105-0.159-0.184-0.08a3.745 3.745 0 0 0-0.21-0.577c-0.027-0.105-0.054-0.236-0.08-0.341 0-0.026-0.052-0.052-0.105-0.105-0.052-0.105-0.079-0.184-0.131-0.263 0.079-0.054 0.105-0.185 0-0.158-0.157 0.026-0.052-0.079-0.105-0.131s-0.052 0-0.079 0.026a7.314 7.314 0 0 0-0.682-0.892v-0.027c-0.052 0-0.052-0.026-0.026-0.026m0.918 8.903c-0.052-0.105-0.079-0.236-0.131-0.341-0.026-0.105-0.236-0.105-0.236-0.053 0 0.105 0 0.21-0.026 0.315v0.026l-0.551-0.551a6.107 6.107 0 0 0 1.628-3.939h1.523a7.508 7.508 0 0 1-2.076 4.99l-0.078-0.079a0.63 0.63 0 0 0-0.053-0.368m-1.261 1.051c0.079-0.131 0.237-0.367 0.317-0.499 0.079-0.131-0.211-0.315-0.369-0.368s-0.157-0.131-0.157-0.263c0.079-0.052 0.157-0.131 0.236-0.21l1.077 1.077a7.544 7.544 0 0 1-1.156 0.894c-0.026-0.052 0.157-0.237 0.21-0.316s-0.21-0.184-0.158-0.315m0.656-6.278c-0.131-0.184 0.054-0.21 0.238-0.288 0.105-0.052 0.236 0.026 0.236-0.027s0.052-0.157 0.105-0.183c0.052-0.026 0.131-0.079 0.157-0.132 0 0.052 0.026 0.105 0.027 0.158a0.599 0.599 0 0 0-0.079 0.289c0 0.079 0 0.184 0.079 0 0-0.026 0.026-0.026 0.026-0.053 0.052 0.184 0.052 0.341 0.052 0.5h-1.128v-0.026c0.079-0.131 0.367-0.106 0.289-0.238m0.21-2.153s0 0.026-0.027 0.027c-0.026 0.026-0.157-0.184-0.157-0.027s0.052 0.21 0.157 0.236c0.105 0.026 0.052 0.079 0.132 0.105 0.026 0 0.079 0.026 0.104 0.053 0.131 0.289 0.21 0.577 0.289 0.893a0.363 0.363 0 0 0-0.105 0.079c-0.052 0.052-0.026 0.157-0.079 0.236-0.079 0.131-0.105 0.21-0.314 0.158-0.131-0.052-0.026-0.21 0-0.342s0.079-0.105 0.078-0.183-0.262-0.369-0.393-0.263c-0.131 0.105-0.105 0.21-0.21 0.315-0.052 0.052-0.105 0.052-0.185 0s-0.105-0.105-0.079-0.157c0.026-0.052-0.184-0.29-0.262-0.394a0.549 0.549 0 0 0-0.42-0.211 4.128 4.128 0 0 0-0.5-0.682l1.077-1.077c0.369 0.394 0.656 0.787 0.894 1.234m-1.813 0.735l-0.052 0.079c-0.026 0.052-0.159-0.052-0.185-0.026-0.026 0.026 0.185 0.29-0.026 0.211-0.21-0.08-0.079-0.08-0.079-0.159s-0.184-0.131-0.078-0.184 0-0.131 0.105-0.157c0.105-0.026 0.079-0.131-0.053-0.158-0.131-0.026-0.105 0.289-0.183 0.237-0.079-0.026-0.157-0.026-0.237-0.027l0.368-0.367a0.237 0.237 0 0 0 0.131 0.026c0.052 0.21 0.185 0.367 0.29 0.525m-0.421 5.332c0.157 0.026 0.342 0.052 0.499 0.105 0.105 0.052 0.184 0.159 0.263 0.026 0.157-0.236 0.262-0.499 0.315-0.787 0.052-0.394-0.026-0.525-0.079-0.525-0.052 0-0.157 0.105-0.262 0.105-0.052 0-0.052 0.105-0.053 0.183s-0.105 0.157-0.131 0.105-0.079-0.026-0.053 0.027-0.21 0.026-0.316-0.027c-0.157-0.079 0.185-0.079 0.343-0.209 0.131-0.105 0.262-0.237 0.393-0.369 0.079-0.131 0.079-0.289 0.21-0.394s0.341-0.079 0.368-0.236 0.052-0.131 0.131-0.105 0.815-0.026 0.814-0.262c0-0.106-0.157-0.237-0.314-0.263-0.105 0-0.131-0.211-0.184-0.316a1.959 1.959 0 0 0-0.184-0.315h1.102a5.678 5.678 0 0 1-1.497 3.625l-0.026-0.026v-0.105c0.026-0.211-0.131-0.552-0.183-0.5s0 0.052-0.158 0.289c-0.052 0.079-0.131 0.211-0.236 0.211s-0.105-0.054-0.263-0.027a1.131 1.131 0 0 1-0.421 0 2.919 2.919 0 0 1-0.708-0.342c0.026-0.026 0.105 0.026 0.105-0.052s0.42 0.157 0.525 0.184m4.123 3.178l-1.076-1.077a8.046 8.046 0 0 0 2.207-5.305h1.548a9.425 9.425 0 0 1-2.679 6.381m2.679-6.827h-1.549a7.82 7.82 0 0 0-0.788-3.256l0.027-0.028c0.105-0.105-0.5-0.893-0.605-0.972s-0.21-0.21-0.341-0.341a4.684 4.684 0 0 1-0.578-0.682l1.129-1.13a9.397 9.397 0 0 1 2.705 6.409m-9.35-9.351a9.586 9.586 0 0 1 6.409 2.653l-1.05 1.05c-0.054-0.026-0.106-0.052-0.08-0.105 0.052-0.079-0.079-0.079-0.105-0.289a0.833 0.833 0 0 0-0.393-0.498c-0.131-0.079-0.21-0.184-0.342-0.237-0.131-0.052-0.394-0.21-0.524-0.158a0.933 0.933 0 0 1-0.263 0.053 8.008 8.008 0 0 0-3.626-0.945l-0.026-1.523z m0 1.97c1.13 0.026 2.207 0.315 3.231 0.815a1.095 1.095 0 0 0 0.21 0.472c0.052 0.131 0.131 0.236 0.21 0.367 0.079 0.079 0.026 0.236 0.053 0.369 0 0.052 0.052 0.105 0.078 0.157v0.21c0 0.026 0.105 0.026 0.184-0.026s0.131-0.157 0.237-0.131 0.236 0.236 0.315 0.367l-0.5 0.499c-0.052-0.105-0.105-0.236-0.078-0.236s0.079 0.026 0.105 0.026c0.106 0-0.079-0.079-0.079-0.105-0.079-0.079-0.079-0.184-0.184-0.262s-0.262-0.026-0.315-0.132a1.44 1.44 0 0 0-0.42-0.473c-0.026 0 0.21 0.29 0.132 0.342s-0.369-0.184-0.394-0.131c-0.027 0.052 0.315 0.184 0.42 0.289 0.052 0.052 0.157 0.21 0.262 0.341a6.112 6.112 0 0 0-3.467-1.235V2.411z m0 1.944a5.678 5.678 0 0 1 3.626 1.497l-1.078 1.076a4.172 4.172 0 0 0-2.548-1.05V4.354z m0 1.969a3.626 3.626 0 0 1 2.233 0.919l-0.053 0.054-0.052-0.027c-0.131-0.052-0.394 0.21-0.341 0.236 0.052 0.026 0.157-0.105 0.21-0.078h0.026l-0.446 0.472c-0.131 0.052-0.262 0.157-0.263 0.236v0.027l-0.158 0.157-0.079-0.079a1.332 1.332 0 0 0-0.42-0.236c0.079-0.052 0.105-0.131 0.131-0.236 0-0.157-0.052-0.105-0.131-0.026s-0.157 0.105-0.21 0.183a1.189 1.189 0 0 0-0.421-0.078V6.324h-0.026z m-0.184 1.945c0.026 0.051 0 0.105-0.026 0.131-0.052 0.052-0.21-0.131-0.236 0.026-0.052 0.157 0.105 0.079 0.105 0.105a0.487 0.487 0 0 0 0.315 0.184c0.105 0 0.262 0 0.262 0.105 0 0.052 0.131 0.052 0.159 0.105 0 0.079 0.079 0.21 0.131 0.183s0.131 0.026 0.157 0.079c0.026 0.052 0 0.079-0.026 0.131-0.079 0.079 0.079 0.052 0.105 0.21s-0.131 0.052-0.157 0.159c-0.052 0.079-0.105 0.131-0.158 0.21-0.026 0.026 0.026 0.079 0.053 0.052 0.026-0.026 0.079-0.105 0.157-0.105s0.157 0.289 0.236 0.315c0.079 0.026 0.052 0.131 0.079 0.158s-0.131 0-0.105 0.052c0.026 0.052 0.184 0.079 0.184 0.158-0.026 0.079-0.079 0.157-0.184 0.157-0.079 0-0.21-0.184-0.21-0.131s0.052 0.21 0.131 0.21 0.262-0.079 0.184 0.026-0.052 0.262-0.105 0.262-0.079 0-0.026 0.08c0.026 0.079 0 0.157-0.053 0.236-0.052 0.052-0.184 0-0.183-0.026s0.157-0.026 0.157-0.105-0.079-0.105-0.236-0.052c-0.079 0.026-0.105-0.026-0.157-0.026s-0.21 0.184-0.21 0.209v0.132a0.444 0.444 0 0 1-0.08 0.262c-0.105 0.026-0.184 0.026-0.289 0.026-0.42 0-0.84-0.184-1.156-0.446a0.495 0.495 0 0 1 0.211-0.052c0.079 0.026 0.105-0.026 0.158-0.053 0.052-0.026 0.184 0.052 0.262 0s0.262-0.394 0.236-0.473 0.184-0.21 0.158-0.236-0.052 0.026-0.053 0 0.052-0.026 0-0.132-0.131-0.052-0.183-0.052c-0.079-0.052-0.21-0.079-0.236-0.053-0.026 0.026-0.105-0.052-0.132-0.026-0.026 0-0.079 0.026-0.078 0.079-0.026 0.052 0.026 0.105 0.026 0.157-0.026 0.105-0.185 0.184-0.185 0.263s-0.079 0.026-0.105 0.052 0 0.079-0.052 0.079-0.131 0.131-0.184 0.237c-0.079-0.105-0.157-0.237-0.236-0.342 0.052-0.026 0.105-0.052 0.131-0.026 0.079 0.052 0.394-0.499 0.341-0.656s-0.131-0.052-0.21-0.027-0.079-0.052-0.052-0.078 0.367-0.026 0.183-0.131c-0.079-0.052-0.289-0.052-0.262-0.132s0.131 0 0.157 0c0.131 0.052 0.21-0.211 0.289-0.211 0.131 0 0.08-0.262-0.053-0.183s-0.184 0.052-0.236 0.131-0.184 0.184-0.183 0.078c0-0.052 0.289-0.21 0.341-0.288a0.573 0.573 0 0 0 0.131-0.21c0.027-0.079 0.394-0.131 0.473-0.184 0.052-0.052 0.105-0.131 0.105-0.21s-0.105-0.052-0.131-0.105 0.131 0 0.131-0.078-0.131 0-0.183-0.053c0-0.026 0-0.026 0.026-0.052 0.236-0.08 0.394-0.106 0.577-0.107h0.053m-0.289-7.825v1.523a8.046 8.046 0 0 0-5.305 2.207l-1.077-1.078a9.471 9.471 0 0 1 6.382-2.652M7.591 3.409l1.077 1.077a8.046 8.046 0 0 0-2.206 5.306H4.939a9.722 9.722 0 0 1 2.652-6.383"/></svg>