<svg fill="#333333" role="img" viewBox="0 0 25 24" xmlns="http://www.w3.org/2000/svg"><title>UnoCSS</title><path d="M13.362 18.416c0-3.084 2.5-5.584 5.585-5.585S24.531 15.332 24.531 18.416c0 3.084-2.5 5.584-5.584 5.584s-5.584-2.5-5.585-5.584ZM13.362 5.584c0-3.084 2.5-5.584 5.585-5.584S24.531 2.5 24.531 5.585v5.025a0.558 0.558 0 0 1-0.558 0.559H13.921a0.558 0.558 0 0 1-0.559-0.559v-5.026ZM11.638 18.416c0 3.084-2.5 5.584-5.585 5.584C2.969 24 0.469 21.5 0.469 18.416v-5.026a0.558 0.558 0 0 1 0.558-0.559h10.052a0.558 0.558 0 0 1 0.559 0.559v5.026Z"/></svg>