<svg fill="#FFC000" role="img" viewBox="0 0 29 24" xmlns="http://www.w3.org/2000/svg"><title>Untappd</title><path d="M13.302 13.556l-6.979 9.745c-0.357 0.498-0.959 0.761-1.567 0.686-0.693-0.086-1.646-0.346-2.63-1.053S0.59 21.404 0.287 20.774a1.68 1.68 0 0 1 0.147-1.707l6.978-9.746a3.674 3.674 0 0 1 1.273-1.111l1.373-0.724c0.276-0.145 0.522-0.339 0.729-0.573 0.666-0.756 2.455-2.737 5.627-5.94l0.055-0.254a0.161 0.161 0 0 1 0.115-0.119l0.175-0.045a0.162 0.162 0 0 0 0.121-0.169l-0.018-0.215a0.156 0.156 0 0 1 0.15-0.171c0.211-0.006 0.621 0.055 1.2 0.471s0.767 0.786 0.829 0.988a0.156 0.156 0 0 1-0.114 0.196l-0.21 0.053a0.159 0.159 0 0 0-0.121 0.169l0.015 0.18a0.157 0.157 0 0 1-0.076 0.147l-0.223 0.134c-2.012 4.037-3.312 6.37-3.814 7.245a2.585 2.585 0 0 0-0.308 0.875l-0.246 1.535A3.684 3.684 0 0 1 13.302 13.557z m15.265 5.509l-6.979-9.745a3.674 3.674 0 0 0-1.272-1.111l-1.373-0.725a2.562 2.562 0 0 1-0.729-0.573 60.519 60.519 0 0 0-0.703-0.784 0.107 0.107 0 0 0-0.171 0.022 116.548 116.548 0 0 1-2.091 3.862 1.702 1.702 0 0 0-0.205 0.581 4.216 4.216 0 0 0 0 1.322l0.012 0.077c0.09 0.564 0.31 1.1 0.643 1.563l6.979 9.746c0.355 0.495 0.947 0.761 1.55 0.688a5.703 5.703 0 0 0 2.647-1.056 5.706 5.706 0 0 0 1.837-2.159 1.678 1.678 0 0 0-0.146-1.708zM10.074 1.653l0.21 0.053a0.161 0.161 0 0 1 0.121 0.169l-0.015 0.179a0.156 0.156 0 0 0 0.076 0.148l0.223 0.134c0.373 0.747 0.718 1.431 1.041 2.062 0.031 0.061 0.109 0.072 0.155 0.023 0.524-0.562 1.155-1.228 1.899-1.999a0.164 0.164 0 0 0 0.003-0.228c-0.377-0.386-0.773-0.79-1.2-1.222l-0.055-0.254a0.156 0.156 0 0 0-0.115-0.118l-0.175-0.045a0.162 0.162 0 0 1-0.121-0.169l0.018-0.215a0.156 0.156 0 0 0-0.148-0.171c-0.21-0.006-0.621 0.054-1.201 0.471-0.579 0.416-0.767 0.786-0.829 0.988a0.156 0.156 0 0 0 0.114 0.196z"/></svg>