<svg fill="#7B00FF" role="img" viewBox="0 0 61 24" xmlns="http://www.w3.org/2000/svg"><title>UpCloud</title><path d="M55.973 14.509a4.746 4.746 0 1 1 0 9.491H22.1V11.673h2.236v10.09h31.691a2.538 2.538 0 0 0 2.509-2.509 2.598 2.598 0 0 0-2.618-2.509H26.463v-2.236z m-21.873-14.509H22.1v5.018h2.236V2.182h9.819a2.538 2.538 0 0 1 2.509 2.509 2.683 2.683 0 0 1-2.564 2.618H5.027a4.746 4.746 0 1 0 0 9.491h14.837v-2.236H5.027a2.509 2.509 0 0 1 0-5.019h29.128a4.784 4.784 0 0 0 4.745-4.745 4.879 4.879 0 0 0-4.8-4.8z"/></svg>