<svg fill="#49CC68" role="img" viewBox="0 0 18 24" xmlns="http://www.w3.org/2000/svg"><title>Uphold</title><path d="M11.274 22.332a7.852 7.852 0 0 1-2.22 0.333h-0.107a7.78 7.78 0 0 1-2.237-0.339 0.668 0.668 0 1 0-0.379 1.282A9.267 9.267 0 0 0 8.947 24h0.107a9.155 9.155 0 0 0 2.599-0.39 0.667 0.667 0 1 0-0.379-1.278z m5.827-16.423V5.869a8.522 8.522 0 0 0-16.207 0.027v0.016c-0.753 2.213-0.48 5.175 0.734 7.935 1.66 3.774 4.673 6.406 7.343 6.406h0.075c2.669 0 5.683-2.624 7.342-6.406 1.198-2.754 1.471-5.722 0.713-7.938zM13.185 2.68c-1.351-0.051-2.819 0.534-4.185 1.676-1.383-1.142-2.85-1.727-4.201-1.676a7.231 7.23 0 0 1 8.386 0z m-3.09 15.995a2.597 2.597 0 0 1-2.205 0c-2.277-1.049-2.736-5.266-1.006-9.2a11.979 11.979 0 0 1 2.116-3.277 11.888 11.888 0 0 1 2.111 3.277c1.719 3.934 1.26 8.151-1.017 9.2z m-7.26-5.357c-1.089-2.471-1.335-5.071-0.684-6.99 0.347-1.006 0.931-1.722 1.687-2.071 1.182-0.547 2.715-0.16 4.183 1.028a13.257 13.257 0 0 0-2.357 3.651c-1.169 2.669-1.428 5.389-0.889 7.505a12.659 12.659 0 0 1-1.94-3.123Zm12.315 0a12.726 12.726 0 0 1-1.941 3.126c0.534-2.119 0.267-4.852-0.888-7.508a13.257 13.257 0 0 0-2.357-3.651c1.468-1.188 2.997-1.575 4.18-1.028 0.758 0.35 1.335 1.068 1.689 2.071 0.659 1.906 0.403 4.519-0.694 6.99z"/></svg>