<svg fill="#3930D8" role="img" viewBox="0 0 40 24" xmlns="http://www.w3.org/2000/svg"><title>UpLabs</title><path d="M16.343 24c-0.187-0.185-0.31-0.433-0.495-0.62-1.481-1.489-3.762-2.232-6.845-2.231-3.024 0-5.306 0.743-6.787 2.231-0.185 0.187-0.308 0.371-0.493 0.62z m4.796-0.073V0.615h4.928V3.506c0.676-1.169 1.477-2.03 2.464-2.644a6.757 6.757 0 0 1 3.387-0.861c2.525 0 4.497 0.861 5.913 2.521 1.416 1.66 2.155 3.997 2.155 6.95 0 2.891-0.739 5.166-2.155 6.888-1.416 1.722-3.326 2.583-5.666 2.584-1.417 0-2.588-0.245-3.573-0.8-0.986-0.491-1.849-1.352-2.525-2.46 0.062 0.431 0.122 0.923 0.122 1.476 0 0.493 0.062 1.108 0.062 1.784v4.921h-5.112z m4.68-14.455c0 1.599 0.37 2.83 1.171 3.752 0.801 0.861 1.91 1.352 3.264 1.353 1.416 0 2.525-0.43 3.265-1.353 0.799-0.861 1.171-2.153 1.17-3.752 0-1.599-0.37-2.83-1.17-3.752-0.799-0.923-1.909-1.352-3.326-1.353-1.354 0-2.463 0.491-3.265 1.416-0.739 0.799-1.108 2.09-1.107 3.689zM12.888 0.677v9.288c0 1.537-0.308 2.645-0.924 3.321-0.616 0.676-1.601 1.046-2.956 1.046-1.354 0-2.34-0.308-2.956-0.984-0.616-0.678-0.924-1.784-0.925-3.383V0.675H0.014v9.288c0 2.766 0.555 4.797 1.662 6.274 0.185 0.183 0.308 0.43 0.493 0.615 1.479 1.476 3.757 2.215 6.837 2.215 3.018 0 5.296-0.739 6.775-2.215 0.183-0.185 0.308-0.37 0.493-0.616 1.108-1.476 1.662-3.567 1.662-6.273V0.675Z"/></svg>