<svg fill="#00E9A3" role="img" viewBox="0 0 19 24" xmlns="http://www.w3.org/2000/svg"><title>Upstash</title><path d="M11.303 0C8.693 0 6.083 0.995 4.092 2.986c-3.982 3.982-3.982 10.44 0 14.422 1.991 1.991 5.22 1.991 7.211 0 1.991-1.991 1.991-5.22 0-7.211L9.5 12c0.996 0.996 0.996 2.61 0 3.606-0.996 0.996-2.61 0.996-3.606 0-2.987-2.987-2.987-7.83 0-10.817 2.987-2.987 7.83-2.987 10.817 0l1.803-1.803C16.523 0.995 13.912 0 11.303 0zM9.5 12c-0.996-0.996-0.996-2.61 0-3.606 0.996-0.996 2.61-0.996 3.605 0 2.987 2.987 2.987 7.83 0 10.817-2.987 2.987-7.83 2.987-10.816 0l-1.803 1.803c3.982 3.982 10.44 3.982 14.422 0 3.982-3.982 3.982-10.44 0-14.422-0.996-0.996-2.301-1.492-3.605-1.492-1.305 0-2.61 0.497-3.606 1.492-1.991 1.991-1.991 5.22 0 7.211z"/></svg>