<svg fill="#5CDD8B" role="img" viewBox="0 0 27 24" xmlns="http://www.w3.org/2000/svg"><title>Uptime Kuma</title><path d="M13.238 0c-4.423 0-8.616 2.461-10.93 6.273l-0.174 0.286-0.126 0.309c-1.967 4.824-2.377 9.907 0.675 13.536 2.901 3.449 6.759 3.616 10.296 3.594 3.538-0.022 6.87-0.524 9.773-2.207C25.18 20.382 26.538 17.343 26.538 14.749c0-2.595-0.787-5.104-2.045-7.978l-0.122-0.279-0.16-0.259C21.847 2.439 17.661 0 13.237 0Zm0 4.203c3.171 0 5.639 1.418 7.406 4.252 2.256 5.158 2.256 8.392 0 9.701-3.386 1.964-12.206 2.563-14.744-0.456-1.693-2.013-1.693-5.096 0-9.246 1.721-2.834 4.167-4.251 7.338-4.251z"/></svg>