<svg fill="#5CE1E6" role="img" viewBox="0 0 135 24" xmlns="http://www.w3.org/2000/svg"><title>Uptobox</title><path d="M116.726 0.526c0 0.207 0.951 2.74 2.069 5.547l2.108 5.183-2.013 5.128c-3.271 8.41-3.327 7.616 0.531 7.454 3.176-0.157 3.333-0.212 3.858-1.845 0.9-2.595 1.325-2.645 2.276-0.269l0.85 2.22h4.177c2.326 0 4.121-0.157 4.015-0.419-1.532-3.12-4.652-11.53-4.652-12.531 0-0.375 0.844-2.857 1.851-5.503 1.007-2.589 1.851-4.921 1.851-5.077 0-0.157-1.32-0.263-3.014-0.156-2.908 0.157-3.014 0.212-3.596 2.013-0.738 2.22-1.376 2.164-2.169-0.168-0.582-1.689-0.582-1.689-4.334-1.845-2.114-0.112-3.802 0.056-3.802 0.262z m-18.134 0.576c-0.794 0.85-0.895 2.432-0.895 11.055 0 9.042 0.101 10.149 0.951 10.887 0.788 0.744 2.214 0.895 7.929 0.894 9.092 0 8.561 0.693 8.561-11.888 0-12.637 0.531-11.899-8.667-11.899-6.134 0-7.141 0.112-7.885 0.951z m8.617 11.262c0 5.027-0.106 5.815-0.839 5.658-0.431-0.112-0.8-0.319-0.799-0.581 0.056-0.212 0.056-2.751 0.055-5.659 0-4.334 0.157-5.284 0.789-5.284 0.637 0 0.794 1.007 0.794 5.871z m-29.077-0.314v11.894h7.873c9.573 0 9.31 0.162 9.204-6.291-0.017-0.967 0-3.143-0.291-4.143-0.257-0.895-0.693-0.559-0.699-1.42-0.011-0.738 0.447-0.733 0.671-1.443 0.28-0.883 0.207-2.544 0.207-3.467 0.056-5.39-0.05-5.927-1.051-6.447-0.582-0.319-4.177-0.582-8.46-0.582H78.126z m9.411-3.651c-0.212 2.063-1.694 2.063-1.901 0-0.218-1.532 0.839-2.746 1.632-1.957 0.268 0.268 0.375 1.113 0.269 1.957z m0.112 7.884c0 1.476-0.218 1.845-1.063 1.846-0.794 0-1.062-0.369-1.062-1.482 0-1.689 0.369-2.22 1.431-2.22 0.419 0 0.688 0.637 0.688 1.845z m-27.663-15.181c-0.794 0.85-0.895 2.432-0.894 11.055 0 9.042 0.101 10.149 0.95 10.887 0.788 0.744 2.164 0.895 7.611 0.894 5.709 0 6.716-0.101 7.453-0.95 0.794-0.839 0.9-2.427 0.901-11.044 0-9.042-0.106-10.155-0.951-10.892-0.794-0.738-2.17-0.895-7.616-0.895-5.704 0-6.71 0.101-7.454 0.95z m8.617 11.262c0 5.396-0.05 5.759-1.057 5.759s-1.057-0.363-1.056-5.759c0-4.121 0.212-5.871 0.687-6.028 1.269-0.419 1.426 0.268 1.426 6.028z m-28.551-11.419a0.811 0.811 0 0 1-0.794 0.794c-0.632 0-0.783 0.688-0.783 2.908s0.151 2.908 0.783 2.908c0.688 0 0.794 1.213 0.794 7.56 0 5.184 0.212 7.772 0.637 8.197 0.419 0.419 2.852 0.632 7.404 0.632 9.092 0 8.986 0.112 8.779-8.354l-0.168-6.184H49.318l-0.157 4.333c-0.112 3.439-0.319 4.39-0.894 4.39-0.643 0-0.8-1.007-0.8-5.284v-5.24l4.652-0.157 4.602-0.156v-5.29c-3.131-0.095-6.408-0.224-9.472-0.341-0.319-0.112-0.414-0.727-0.503-0.883-0.637-1.163-6.682-0.951-6.683 0.167z m-20.617 11.105v11.95l3.747-0.168 3.757-0.151 0.112-4.233 0.056-4.227 3.959-0.157c2.17-0.112 4.227-0.425 4.596-0.743 0.951-0.738 0.951-12.637 0.056-13.532-0.425-0.425-3.064-0.637-8.46-0.638h-7.828z m9.73-5.233c0.475 1.213-0.112 2.852-1.007 2.851-1.007 0-1.532-2.013-0.794-2.907 0.844-1.007 1.376-1.007 1.795 0.056z m-28.764 4.384c0 13.7-0.637 12.749 9.092 12.749 8.88 0 8.354 0.839 8.354-13.119V0.09l-3.802 0.168-3.814 0.151-0.056 8.303c0 5.759-0.207 8.511-0.632 8.936-1.007 1.007-1.213-0.112-1.319-9.042l-0.157-8.197-3.802-0.157-3.858-0.157z"/></svg>