<svg fill="#6FDA44" role="img" viewBox="0 0 34 24" xmlns="http://www.w3.org/2000/svg"><title>Upwork</title><path d="M26.254 13.633c-1.554 0-3.011-0.659-4.336-1.73l0.322-1.518 0.011-0.059c0.292-1.612 1.197-4.316 4.004-4.316 2.104 0 3.812 1.709 3.813 3.812-0.001 2.1-1.709 3.811-3.814 3.811z m0-11.481c-3.581 0-6.361 2.326-7.49 6.158-1.721-2.587-3.03-5.693-3.789-8.31H11.116v10.031c-0.003 1.983-1.609 3.591-3.593 3.594-1.982-0.003-3.587-1.612-3.589-3.594V0H0.075v10.031c0 4.11 3.343 7.48 7.448 7.48 4.109 0 7.451-3.37 7.452-7.48v-1.678c0.746 1.561 1.667 3.144 2.784 4.543l-2.36 11.104h3.945l1.711-8.054c1.499 0.958 3.223 1.564 5.199 1.565 4.231 0 7.671-3.458 7.671-7.687 0-4.231-3.44-7.671-7.671-7.672z"/></svg>