<svg fill="#333366" role="img" viewBox="0 0 39 24" xmlns="http://www.w3.org/2000/svg"><title>USPS</title><path d="M5.185 0L0.101 24h33.714L38.899 0H5.185z m-0.254 6.153h15.254c0.254 0 8.186 0 8.34 1.576H14.796l2.135 6.508c2.441-1.169 8.442-3.61 12.052-3.763 1.526-0.05 2.136 0.204 1.83 0.407-0.204 0.102-1.678 0.306-2.847 0.61-2.034 0.509-2.136 0.509-4.271 1.22-2.389 0.813-4.373 1.728-7.323 3.103L1.27 23.289l3.661-17.136z m26.647 2.745c-0.865-0.152-4.475 0.102-5.39 0.102-0.204 0-0.763 0.05-0.763-0.102 0-0.102 0.204-0.102 0.609-0.152s1.626-0.254 2.034-0.458c0.102-0.102 0.356-0.254 0.509-0.407 0.05-0.102 0.102-0.152 0.254-0.152h1.882c1.221 0 1.932 0.152 1.83 1.169-0.05 0.509-0.763 1.83-1.017 2.237-0.102 0.152-0.306 0.306-0.254 0 0.204-0.813 0.965-2.136 0.306-2.237z m1.422 14.391H3.457s28.069-10.983 28.374-11.187c0 0 2.491-3.356 1.017-4.729-0.457-0.457-1.119-0.457-3.661-0.457 0 0-0.102-0.967-4.018-1.882-0.457-0.102-19.17-4.069-19.169-4.069h31.73l-4.73 22.324z m4.729-1.124c0-0.315-0.184-0.474-0.579-0.474h-0.656v1.63h0.236v-0.71h0.289l0.446 0.736h0.29L37.283 22.611c0.262-0.026 0.446-0.157 0.446-0.446z m-0.736 0.236h-0.263v-0.551h0.341c0.184 0 0.369 0.026 0.368 0.263 0 0.262-0.21 0.288-0.446 0.288z m0.026-1.34a1.403 1.403 0 0 0-1.445 1.419c0 0.815 0.656 1.445 1.445 1.446s1.445-0.63 1.445-1.446a1.419 1.419 0 0 0-1.445-1.419z m0 2.654c-0.684 0-1.182-0.525-1.182-1.235 0-0.684 0.525-1.209 1.182-1.209 0.656 0 1.182 0.525 1.182 1.209 0 0.71-0.525 1.235-1.182 1.235z"/></svg>