<svg fill="#76B83F" role="img" viewBox="0 0 25 24" xmlns="http://www.w3.org/2000/svg"><title>uTorrent</title><path d="M14.192 23.999a12.072 12.072 0 0 0 9.646-7.828c-0.119 0.044-0.261 0.096-0.434 0.148-2.01 0.593-3.421-0.468-3.705-0.653-0.284-0.181-0.59-0.482-0.646-0.466-0.184 1.138-1.224 2.719-3.598 3.437-1.301 0.393-2.7 0.402-3.699-0.158l0.33 0.826c0.131 0.33 0.353 0.87 0.49 1.198 0 0 0.862 2.054 1.616 3.497M3.178 7.13l3.557-0.663c0.325-0.059 0.683 0.125 0.798 0.409l2.444 6.099c0.334 0.636 0.401 0.777 0.618 1.048 0 0 1.688 2.41 4.26 1.821 1.734-0.396 2.544-1.698 2.6-2.625 0.057-0.297-0.032-0.672-0.186-1.021L14.341 5.579c-0.118-0.267 0.022-0.53 0.307-0.584l2.968-0.552a0.693 0.693 0 0 1 0.709 0.377l3.243 6.944c0.131 0.277 0.396 0.715 0.591 0.971 0 0 0.674 0.969 1.756 0.784 0.267 0 0.572-0.144 0.571-0.144 0.047-0.432 0.072-0.87 0.073-1.316 0-6.659-5.399-12.059-12.061-12.059C5.84 0.002 0.441 5.401 0.441 12.061c0 5.345 3.477 9.875 8.293 11.458a24.889 24.889 0 0 1-0.924-2.132L2.75 7.788c-0.112-0.298 0.083-0.593 0.428-0.657"/></svg>