<svg fill="#4B8BF5" role="img" viewBox="0 0 28 24" xmlns="http://www.w3.org/2000/svg"><title>V8</title><path d="M8.17 5.231c0-0.182 0.009-0.363 0.026-0.54 0.021-0.234 0.079-0.452 0.126-0.676l-0.783-1.553H0.462l2.462 4.307h1.723l2.365 4.49a7.371 7.371 0 0 1 1.949-3.097A5.779 5.779 0 0 1 8.17 5.231zM12.155 20.645L14 24l1.847-3.356c-0.604 0.156-1.217 0.264-1.847 0.264s-1.242-0.108-1.845-0.263zM20.462 2.462l-0.809 1.419c0.063 0.268 0.126 0.537 0.151 0.819a5.808 5.808 0 0 1-0.763 3.463 7.406 7.406 0 0 1 1.948 3.098l2.366-4.491h1.722L27.538 2.462h-7.076zM20.595 12.008a6.769 6.769 0 0 0-2.339-3.734A5.235 5.235 0 0 0 14 0 5.229 5.229 0 0 0 8.769 5.231a5.212 5.212 0 0 0 0.976 3.043A6.755 6.755 0 0 0 7.231 13.538a6.78 6.78 0 0 0 4.303 6.308 6.791 6.791 0 0 0 4.935-0.003 6.776 6.776 0 0 0 4.126-7.835zM14 3.231c1.274 0 2.308 1.035 2.308 2.307a2.308 2.308 0 0 1-4.616 0c0-1.273 1.036-2.307 2.308-2.307z m0 12.924a2.617 2.617 0 0 1 0-5.231c1.446 0 2.615 1.17 2.615 2.615S15.446 16.155 14 16.155z"/></svg>