<svg fill="#00B4F0" role="img" viewBox="0 0 26 24" xmlns="http://www.w3.org/2000/svg"><title>Vaadin</title><path d="M1.674 0C0.984 0 0.456 0.558 0.456 1.248v2.06c0 2.421 1.102 3.631 3.66 3.63h5.677c1.697 0 1.864 0.716 1.864 1.411 0 0.071 0.004 0.136 0.012 0.202a1.326 1.326 0 0 0 2.646-0.004c0.007-0.065 0.013-0.126 0.013-0.199 0-0.694 0.167-1.41 1.864-1.41h5.676C24.426 6.938 25.544 5.729 25.544 3.309V1.248c0-0.69-0.548-1.248-1.237-1.248-0.69 0-1.243 0.558-1.243 1.248l-0.004 0.716c0 0.78-0.498 1.328-1.667 1.328h-5.563c-2.532 0-2.726 1.877-2.809 2.873h-0.058c-0.084-0.995-0.278-2.873-2.81-2.873H4.59c-1.169 0-1.703-0.569-1.703-1.349v-0.695c0-0.69-0.523-1.248-1.213-1.248z m6.142 11.032a1.658 1.658 0 0 0-1.437 2.478c1.732 3.199 3.458 6.408 5.192 9.601a1.479 1.479 0 0 0 2.703 0.021l0.035-0.063 5.169-9.557a1.659 1.659 0 0 0-1.439-2.48c-0.734 0-1.232 0.361-1.57 1.131l-3.54 6.599-3.537-6.591c-0.341-0.779-0.842-1.139-1.576-1.139Z"/></svg>