<svg fill="#7239B3" role="img" viewBox="0 0 22 24" xmlns="http://www.w3.org/2000/svg"><title>Vala</title><path d="M8.384 23.999l-0.516-21.859q-2.25 0.844-3.515 2.64-1.251 1.797-1.251 4.469 0 0.609 0.063 1 0.078 0.375 0.156 0.61 0.078 0.219 0.141 0.343 0.078 0.125 0.078 0.219-0.828 0-1.468-0.156-0.641-0.172-1.079-0.531-0.422-0.358-0.656-0.953-0.219-0.593-0.219-1.468 0-1.062 0.452-2.094 0.469-1.031 1.266-1.953 0.813-0.921 1.891-1.703 1.094-0.781 2.328-1.344Q7.304 0.641 8.648 0.329 10.008 0 11.352 0q0.359 0 0.656 0.015 0.312 0.016 0.624 0.047l0.282 19.687L19.648 0.155h2.234L12.992 24H8.383Z"/></svg>