<svg fill="#FA4454" role="img" viewBox="0 0 30 24" xmlns="http://www.w3.org/2000/svg"><title>Valorant</title><path d="M29.353 0.012a0.307 0.307 0 0 0-0.119 0.101c-4.119 5.149-8.24 10.299-12.356 15.448-0.13 0.113-0.03 0.351 0.145 0.323 2.969 0.004 5.937 0 8.906 0.001a0.803 0.803 0 0 0 0.672-0.305c0.942-1.177 1.887-2.354 2.829-3.533a0.876 0.876 0 0 0 0.175-0.597c-0.002-3.746 0-7.49-0.003-11.236 0.019-0.134-0.122-0.251-0.249-0.203zM0.484 0.029c-0.094 0.046-0.09 0.161-0.092 0.25 0.002 3.742 0.001 7.487 0.001 11.229a0.827 0.827 0 0 0 0.193 0.564l9.3 11.626c0.146 0.185 0.375 0.304 0.615 0.3 2.989 0 5.977 0.004 8.965 0 0.173 0.024 0.27-0.212 0.142-0.322C13.369 15.866 7.118 8.063 0.878 0.253c-0.097-0.114-0.212-0.331-0.392-0.224z"/></svg>