<svg fill="#F74843" role="img" viewBox="0 0 85 24" xmlns="http://www.w3.org/2000/svg"><title>Valve</title><path d="M0.407 0v24h84.186V0.004z m6.314 4.963h2.782l2.722 10.678 2.666-10.678h2.932l-4.304 14.133H10.93z m19.25 0h3.803l4.016 14.151h-2.855l-0.947-3.533H25.761s-0.737 2.841-0.891 3.473c-0.849 0.06-2.911 0-2.911 0z m14.677 0h2.778v11.758h5.928v2.375h-8.706z m12.102 0h2.862l2.722 10.541 2.645-10.541h2.859l-4.287 14.151h-2.511z m16.935 0h5.928v1.832h-3.802v2.048h3.472v1.835h-3.472v2.104h3.802v1.835h-5.928z m-41.749 2.386l-1.494 5.97h3.121z"/></svg>