<svg fill="#0D0D0D" role="img" viewBox="0 0 22 24" xmlns="http://www.w3.org/2000/svg"><title>Vapor</title><path d="M21.75 13.908v1.56L11 24 0.25 15.468v-1.56L11 22.44l10.75-8.532zM11 17.267L0.25 8.824 11 0l10.75 8.824L11 17.267z m0.356-4.635a3.193 3.193 0 0 0 3.193-3.193 3.185 3.185 0 0 0-3.029-3.176l0.001-0.016-4.514-0.427 1.205 4.102a3.184 3.184 0 0 0 3.144 2.71zM11 20.269L0.25 11.737v1.533L11 21.802l10.75-8.532v-1.533L11 20.269z m0-2.366L0.25 9.46v1.64L11 19.63l10.75-8.532V9.46L11 17.903z"/></svg>