<svg fill="#6100FF" role="img" viewBox="0 0 30 24" xmlns="http://www.w3.org/2000/svg"><title>Vectary</title><path d="M2.83 0.002a8.204 8.204 0 0 0-0.339 0.014c-0.778 0.021-1.603 0.511-1.994 1.184-0.424 0.653-0.49 1.612-0.158 2.316l5.294 11.982c0.297 0.72 1.047 1.317 1.816 1.443 0.761 0.164 1.68-0.117 2.219-0.678 1.287-1.246 2.289-3.054 2.655-4.984 0.366-1.93 0.098-3.98-0.643-5.611-0.706-1.646-2.042-3.226-3.716-4.255-1.569-0.965-3.434-1.447-5.134-1.411z m23.37 0c-1.181 0.021-2.398 0.257-3.512 0.731-2.228 0.948-4.049 2.85-4.85 4.785L10.256 22.685c-0.063 0.137-0.063 0.313-0.002 0.45 0.057 0.139 0.185 0.26 0.327 0.31 1.95 0.765 4.583 0.771 6.811-0.177 2.228-0.948 4.051-2.85 4.853-4.785l7.579-17.167c0.063-0.137 0.063-0.313 0.002-0.45-0.057-0.139-0.182-0.26-0.324-0.31-0.975-0.382-2.121-0.575-3.301-0.554z"/></svg>