<svg fill="#00B336" role="img" viewBox="0 0 134 24" xmlns="http://www.w3.org/2000/svg"><title>Veeam</title><path d="M37.138 0c-6.139 0-11.121 5.255-11.122 11.683v0.601c0 7.351 4.704 11.333 10.977 11.677 0.284 0.039 0.601 0.039 0.89 0.039 2.419 0 4.415-0.639 6.645-2.007 0.222-0.128 1.118-0.734 2.007-1.88 0.734-0.923 0.767-2.285 0-3.019-1.112-1.051-2.291-0.478-3.308 0.411-1.624 1.368-2.869 2.458-6.117 2.458-3.058 0-5.917-1.757-6.617-5.227 0-0.128 0.056-0.25 0.189-0.25H45.646a2.63 2.63 0 0 0 2.613-2.803c0-6.428-4.971-11.677-11.116-11.677z m24.834 0c-6.117 0-11.099 5.255-11.099 11.683v0.601c0 7.351 4.704 11.333 10.976 11.677 0.289 0.039 0.612 0.039 0.89 0.039 2.419 0 4.421-0.639 6.651-2.007 0.222-0.128 1.112-0.734 2.007-1.88 0.734-0.923 0.762-2.285 0-3.019-1.112-1.051-2.297-0.478-3.314 0.411-1.624 1.368-2.864 2.458-6.117 2.458-3.053 0-5.911-1.757-6.611-5.227-0.033-0.128 0.056-0.25 0.155-0.25h14.964a2.63 2.63 0 0 0 2.614-2.803c-0.039-6.428-5.005-11.677-11.116-11.677z m-38.313 0.222a2.224 2.224 0 0 0-1.913 1.24l-7.897 17.033c-0.189 0.35-0.345 0.612-0.756 0.612-0.417 0-0.584-0.261-0.778-0.612l-7.896-16.999a2.113 2.113 0 0 0-2.948-0.984 2.38 2.38 0 0 0-0.956 3.114l7.729 15.725 0.89 1.78a4.449 4.449 0 0 0 3.959 2.558 4.399 4.399 0 0 0 3.943-2.558l0.889-1.78 7.702-15.759a2.352 2.352 0 0 0-0.923-3.114 2.091 2.091 0 0 0-1.045-0.25z m63.18 0a4.237 4.237 0 0 0-2.802 1.046 4.493 4.493 0 0 0-1.151 1.501l-8.842 17.444c0 0.028-0.039 0.033-0.039 0.056v0.039a2.413 2.413 0 0 0 0.167 2.458c0 0.028 0.028 0.033 0.028 0.055 0 0.039 0.033 0.028 0.033 0.056a2.069 2.069 0 0 0 2.869 0.428s0.028 0 0.028-0.033a0.462 0.462 0 0 0 0.134-0.095l0.083-0.1 0.034-0.033a2.697 2.697 0 0 0 0.422-0.573l0.317-0.695 1.846-3.893c0.033-0.095 0.156-0.15 0.25-0.15h8.253c1.084 0 1.968-0.929 1.968-2.107 0-1.146-0.884-2.096-1.968-2.097h-6.112a0.184 0.184 0 0 1-0.166-0.256l0.444-0.956 3.348-6.712v-0.033s0-0.033 0.033-0.034c0.061-0.128 0.222-0.601 0.545-0.695 0.189-0.067 0.35-0.067 0.478 0 0.35 0.095 0.467 0.506 0.629 0.823l8.091 16.805a2.185 2.185 0 0 0 2.669 1.084s0.033 0 0.033-0.033l0.195-0.095c0.033 0 0.039-0.033 0.066-0.033 0 0 0.033 0 0.034-0.033 0.033 0 0.033-0.033 0.067-0.034s0.056-0.022 0.055-0.055c0.033 0 0.033-0.033 0.061-0.034 0.033-0.033 0.067-0.067 0.1-0.067l0.095-0.094 0.033-0.033a2.269 2.269 0 0 0 0.512-2.77l-8.886-17.538a4.393 4.393 0 0 0-3.943-2.502z m19.507 0c-2.169 0-3.943 1.846-3.942 4.327v16.782c0 1.018 0.578 1.968 1.468 2.258 1.462 0.478 2.703-0.795 2.702-2.292l-0.322-16.337a0.167 0.167 0 0 1 0.289-0.094l8.018 16.292c0.762 1.557 2.041 2.497 3.476 2.497 1.429 0 2.725-0.929 3.464-2.491l8.058-16.321c0.056-0.161 0.278-0.106 0.278 0.089l-0.312 16.432c0 1.301 0.984 2.352 2.163 2.291 1.146-0.033 2.041-1.151 2.041-2.391V4.549c0.056-2.513-1.724-4.282-3.892-4.321a3.804 3.804 0 0 0-3.392 2.191c-2.007 4.109-7.93 16.293-7.93 16.326-0.033 0.056-0.167 0.356-0.417 0.356-0.222 0-0.378-0.261-0.411-0.356-1.946-4.043-5.822-12.033-7.83-16.17-0.795-1.596-2.113-2.347-3.503-2.347z m-69.231 3.598c3.876 0 6.339 2.93 6.718 6.367 0 0.128-0.067 0.25-0.195 0.25H30.687c-0.128-0.033-0.184-0.122-0.183-0.25 0.411-3.375 2.725-6.367 6.617-6.367z m24.857 0h0.011c3.876 0.006 6.328 2.93 6.712 6.367 0 0.128-0.072 0.25-0.195 0.25H55.544c-0.128-0.033-0.222-0.122-0.189-0.25 0.417-3.37 2.741-6.361 6.617-6.367z"/></svg>