<svg fill="#1A1A1A" role="img" viewBox="0 0 100 24" xmlns="http://www.w3.org/2000/svg"><title>VEGAS</title><path d="M50.955 0c-2.522 0-4.508 0.385-6.036 1.149-1.529 0.688-2.598 1.907-3.286 3.512-0.688 1.758-0.996 4.132-0.995 7.113 0 4.213 0.451 8.6 3.212 10.77 1.07 0.841 2.442 1.23 4.2 1.23 1.223 0 2.446-0.002 3.439-0.308 0.917-0.306 1.76-0.764 2.371-1.375 0.23-0.153 0.539-0.535 0.615-0.688v1.982h3.973v-13.222h-4.515v8.254c-0.644 0.43-1.332 0.672-2.21 0.923-0.535 0.153-1.149 0.227-1.836 0.226-0.917 0-1.687-0.23-2.298-0.688-0.535-0.459-0.993-1.22-1.222-2.29-0.528-2.465-0.44-6.546-0.154-8.407 0.229-0.993 0.459-1.763 0.841-2.298 0.856-1.369 2.781-1.448 3.901-1.449h2.29c0.764 0 1.453 0.073 2.217 0.073 0.764 0 1.534 0.005 2.298 0.081l0.299-3.674c-1.533-0.46-2.1-0.628-4.353-0.833-0.914-0.1-1.835-0.054-2.751-0.081Zm40.354 0c-2.42 0-4.953 0.4-6.417 1.375-1.133 0.755-1.991 1.936-1.991 5.123 0 2.845 0.811 5.259 4.815 6.651l4.661 1.603c0.535 0.153 0.997 0.381 1.303 0.534 0.306 0.153 0.534 0.463 0.687 0.768 0.314 0.629 0.326 2.208-0.08 2.751-0.23 0.382-0.533 0.612-1.069 0.688-1.262 0.219-2.545 0.133-3.819 0.154-0.688 0-1.45-0.081-2.444-0.081-0.993 0-2.14-0.073-3.439-0.073l-0.081 3.738c0.993 0.23 3.212 0.539 4.588 0.616 1.375 0.076 2.525 0.153 3.213 0.153 1.146 0 2.903-0.078 3.973-0.307 1.07-0.23 1.91-0.61 2.598-1.068 0.688-0.535 1.143-1.223 1.448-2.064 0.306-0.917 0.461-1.986 0.461-3.285 0-1.758-0.38-3.137-1.068-4.208-0.688-1.07-1.985-1.905-3.819-2.516l-4.435-1.457c-0.917-0.306-1.528-0.613-1.91-0.995-0.637-0.51-0.639-1.901-0.388-2.905 0.077-0.229 0.305-0.454 0.535-0.607 0.305-0.076 0.617-0.234 1.076-0.235 0.459-0.077 0.991-0.073 1.602-0.072h3.819c1.299 0 2.445 0.073 3.439 0.072l0.081-3.512c-2.35-0.503-4.758-0.841-7.339-0.841Zm-63.359 0.307c-2.66 0-4.888 1.698-4.888 4.661v13.838c0 1.375 0.459 2.517 1.376 3.357 0.841 0.841 2.06 1.303 3.512 1.303h3.746c1.146 0 3.135-0.081 3.747-0.081 0.535-0.076 2.134-0.15 3.204-0.226v-3.666H29.786c-0.535 0-0.916-0.155-1.222-0.461-0.229-0.306-0.388-0.768-0.388-1.303V13.222h9.249v-3.592H28.176v-3.593c0-0.611 0.083-0.989 0.389-1.295 0.229-0.305 0.687-0.461 1.222-0.461h8.86V0.615c-1.07-0.077-2.364-0.158-3.204-0.235-2.495-0.113-4.996-0.073-7.493-0.073ZM0.284 0.461l6.344 21.549c0.163 0.816 0.876 1.375 1.756 1.375H13.044c0.918 0 1.61-0.605 1.765-1.375l6.262-21.549h-5.195l-4.742 18.725s-0.077 0.073-0.153 0.073h-0.607c-0.076 0-0.153 0.003-0.153-0.073l-4.661-18.725z m68.327 0c-0.493 0-1.575 0.292-1.756 1.376l-6.651 21.629h5.195l1.683-6.036h7.873l1.683 6.036h5.195L75.181 1.837c-0.076-0.382-0.301-0.69-0.607-0.996a1.884 1.884 0 0 0-1.149-0.38z m2.67 4.046c0.077 0 0.154 0.077 0.154 0.154l2.452 8.868h-5.81l2.444-8.868c0.077-0.076 0.077-0.153 0.116-0.153z"/></svg>