<svg fill="#008CFF" role="img" viewBox="0 0 127 24" xmlns="http://www.w3.org/2000/svg"><title>Venmo</title><path d="M115.067 17.905c-1.409 0-2.011-1.325-2.005-3.456 0-2.813 0.639-8.311 3.757-8.312 1.409 0 1.884 1.282 1.884 3.156 0 2.813-0.686 8.612-3.636 8.612Zm2.649-17.821c-8.85 0-12.691 6.781-12.691 14.027 0 5.499 2.222 9.889 8.934 9.889 9.061 0 12.865-7.42 12.866-14.58 0-5.409-2.438-9.335-9.109-9.336Zm-20.227 0c-2.945 0-5.087 0.897-7.35 2.518-0.813-1.451-2.438-2.517-4.919-2.518-2.86 0-4.997 1.156-6.58 2.307l-0.211-1.921H71.627l-3.631 22.976h7.947l2.528-16.111c0.681-0.343 1.704-0.813 2.733-0.813 0.765 0 1.409 0.259 1.409 1.409 0 0.296-0.084 0.765-0.126 1.151l-2.264 14.364h7.905l2.522-16.111c0.728-0.385 1.71-0.813 2.692-0.813 0.77 0 1.414 0.259 1.414 1.409 0 0.296-0.09 0.765-0.132 1.151l-2.264 14.364h7.91l2.433-15.346c0.132-0.807 0.259-2.047 0.259-2.897 0-3.071-1.409-5.119-5.473-5.119Zm-36.258 0c-3.034 0-5.172 1.156-6.792 2.222l-0.089-1.836H47.468l-3.636 22.976H51.785l2.522-16.111c0.686-0.343 1.71-0.813 2.734-0.813 0.776 0 1.414 0.259 1.414 1.277 0 0.427-0.127 1.198-0.169 1.578l-2.227 14.069h7.911l2.438-15.346c0.127-0.807 0.259-2.047 0.258-2.897 0-3.071-1.414-5.119-5.435-5.119Zm-29.715 9.679c0.216-2.559 2.179-4.348 3.678-4.349 0.855 0 1.578 0.512 1.578 1.536 0 2.132-3.763 2.813-5.256 2.813Zm4.448-9.679c-8.464 0-12.57 7.335-12.57 14.238 0 5.33 2.522 9.588 9.573 9.588 2.781 0 5.646-0.596 7.483-1.488l0.981-6.649c-2.607 1.319-4.612 1.831-6.707 1.831-1.926 0-3.377-1.024-3.377-3.625 4.359-0.042 11.884-1.831 11.884-7.668 0-3.625-2.607-6.227-7.267-6.227Zm-22.369 1.409c0.47 0.982 0.77 2.174 0.77 3.921 0 3.198-2.264 7.884-4.1 10.871l-1.968-15.773L0.175 1.282l3.721 22.164h9.272c4.063-5.33 9.066-12.918 9.066-18.755 0-1.831-0.385-3.282-1.241-4.691l-7.398 1.493Z"/></svg>