<svg fill="#B1181E" role="img" viewBox="0 0 128 24" xmlns="http://www.w3.org/2000/svg"><title>Veritas</title><path d="M0.112 0l6.645 20.61c0.561 1.727 2.168 2.839 3.909 2.839a4.091 4.091 0 0 0 3.9-2.839l6.644-20.609h-3.691L11.218 19.518a0.576 0.576 0 0 1-0.551 0.405c-0.249 0-0.469-0.149-0.561-0.405L3.804 0.001H0.112z m28.284 0c-3.238 0-5.854 2.63-5.854 5.865v11.719c0 3.236 2.617 5.865 5.854 5.865h11.137v-3.525H28.396a2.337 2.337 0 0 1-2.34-2.34v-4.128h11.137v-3.463H26.056v-4.128c0-1.294 1.046-2.35 2.34-2.35h11.137V0H28.396z m20.017 0a5.27 5.27 0 0 0-5.272 5.272v18.176h3.515v-18.176c0-0.972 0.785-1.757 1.756-1.757h7.623a2.931 2.931 0 0 1 2.735 1.882 2.928 2.928 0 0 1-1.685 3.785l-5.906 2.174c-2.143 0.74-3.274 3.077-2.538 5.22a4.081 4.081 0 0 0 2.205 2.412l11.043 5.012v-3.847l-9.66-4.274a0.695 0.695 0 0 1-0.374-0.416 0.693 0.693 0 0 1 0.436-0.884l6.052-2.111c3.324-1.276 4.986-5.006 3.713-8.329-0.985-2.563-3.43-4.138-6.021-4.138H48.413z m17.615 0v23.449h3.524V0h-3.524z m6.447 0v3.515h6.8v19.934h3.515v-19.934h6.8V0h-17.115z m25.06 0a4.09 4.09 0 0 0-3.9 2.839l-6.655 20.609h3.702l6.302-19.527a0.575 0.575 0 0 1 0.551-0.406c0.249 0 0.47 0.151 0.561 0.406l6.291 19.528h3.703l-6.655-20.61a4.101 4.101 0 0 0-3.9-2.838z m17.75 0c-3.723 0-6.738 3.016-6.738 6.739 0 3.723 3.016 6.738 6.738 6.738l5.865 0.01c1.78 0 3.223 1.434 3.223 3.213a3.223 3.223 0 0 1-3.223 3.224h-11.428v3.524h11.428c3.723 0 6.738-3.026 6.738-6.748s-3.016-6.738-6.738-6.738h-5.865a3.223 3.223 0 0 1-3.224-3.223c0-1.78 1.443-3.223 3.224-3.224h11.428V0h-11.428Z"/></svg>