<svg fill="#85B09A" role="img" viewBox="0 0 70 24" xmlns="http://www.w3.org/2000/svg"><title>Vespa</title><path d="M69.133 9.109l-0.084-0.023c-0.369 0.16-0.797 0.145-1.207 0.195-0.587-0.349-1.163-0.721-1.763-1.047-0.23 0.175-0.465 0.41-0.744 0.488-0.32 0.049-0.683 0.049-0.943-0.154a1.347 1.347 0 0 1-0.64-1.227l0.602-2.705-0.029-0.087c-1.076 0.073-2.19 0.029-3.289 0.029-0.425 0.061-0.273 0.573-0.489 0.817-0.605-0.343-1.219-0.669-1.919-0.814-2.056-0.512-4.083 0.364-5.352 2.059-0.343 0.378-0.448 0.887-0.863 1.207l-2.662 1.658c-0.058 0.02-0.151 0.079-0.206 0a4.336 4.336 0 0 0-2.676-2.827c-2.539-0.669-4.956 0.291-6.826 2.056-0.093 0.282-0.108 0.593-0.2 0.872-1.448 0.98-2.871 2.036-4.328 2.999-0.058 0.049-0.18 0.044-0.224-0.032a5.183 5.183 0 0 0-1.92-3.281c-0.256-0.157-0.483-0.422-0.799-0.421l-1.344 1.175-7.149 6.189a2.711 2.711 0 0 1-2.015 0.328c-0.081-0.041-0.259-0.006-0.251-0.139l3.432-2.993 0.152-0.233c-0.201-0.401-0.369-0.814-0.678-1.178-1.079-1.469-3.092-1.87-4.752-1.375-1.675 0.512-2.9 2.161-3.258 3.786l-7.125 4.625c-0.055 0.023-0.154 0.096-0.192-0.012 0.012-1.134 0.227-2.239 0.643-3.24 0.971-2.472 3.688-4.607 6.41-4.537 0.131-0.026 0.166-0.157 0.122-0.27a20.103 20.103 0 0 1-2.173-3.368c-1.018 0.175-1.89 0.765-2.763 1.37-2.856 2.382-4.165 5.712-4.243 9.507-1.443-1.853-2.274-3.938-2.687-6.151-0.524-2.341 0.122-4.944 1.576-6.719 0.308-0.451 0.756-0.823 1.024-1.285-0.98-1.041-1.89-2.184-2.426-3.438-0.137-0.3-0.212-0.637-0.369-0.913-0.5 0.209-0.96 0.538-1.396 0.931-2.007 1.885-3.156 4.27-2.996 7.172 0.273 4.741 2.967 8.841 6.567 12.352-0.294 0.131-0.622 0.151-0.933 0.229-1.024 0.209-2.074 0.396-3.075 0.634a5.828 5.828 0 0 1-1.419 2.49c-0.035 0.049-0.111 0.154-0.014 0.192l22.656-4.406 10.06-2.007c1.507-0.279 2.996-0.617 4.572-0.791 0.061 0.483-0.157 0.919-0.169 1.448 0.998-0.16 1.978-0.369 2.964-0.555l0.125-0.061 0.305-1.664 0.096-0.134 13.972-2.736 8.182-1.635 5.77-1.07 0.128-0.114a4.403 4.403 0 0 1-0.768-1.166zM18.608 18.198l-6.913 1.338 5.026-3.316c0.474 0.044 0.57 0.602 0.91 0.884 0.361 0.416 0.832 0.698 1.245 1.007l-0.268 0.087z m1.129-2.531a1.658 1.658 0 0 1 0.084-1.192 1.722 1.722 0 0 1 1.885-0.718c0.195-0.003 0.3 0.169 0.43 0.291l-0.023 0.101-2.135 1.78c-0.105-0.032-0.195-0.16-0.241-0.262z m10.671-1.076c-0.329 0.561-1.344 0.265-1.184 1.1 0.064 0.189 0.233 0.358 0.308 0.526-1.233 0.302-2.498 0.503-3.754 0.727l0.064-0.151 4.362-3.778a0.241 0.241 0 0 1 0.192 0.015l0.247 0.436a1.277 1.277 0 0 1-0.235 1.128z m8.542-0.128c-1.32 0.285-2.652 0.561-3.999 0.78 0.079-0.282 0.23-0.57 0.369-0.844 0.233-0.247 0.553-0.349 0.817-0.552l3.188-2.036 0.087 0.009c-0.125 0.873-0.183 1.826-0.462 2.646z m4.575-0.791l-1.298 0.221-0.078-0.093c0.07-0.285 0.067-0.608 0.215-0.852l0.087 0.006a2.775 2.775 0 0 0 1.164 0.64l-0.09 0.078z m2.035-2.169a1.286 1.286 0 0 1-1.192 0.491 1.774 1.774 0 0 1-1.329-1.032c-0.206-0.524-0.186-1.248 0.27-1.649 0.46-0.346 1.192-0.311 1.661-0.006a1.876 1.876 0 0 1 0.704 0.849 1.454 1.454 0 0 1-0.111 1.347z m2.804 1.276c0.163-0.349 0.471-0.611 0.553-0.988l3.373-2.231c0.041-0.009 0.076-0.044 0.126-0.026a2.763 2.763 0 0 0 1.41 2.134l-5.462 1.111z m9.406-3.321a1.213 1.213 0 0 1-1.213 0.297c-0.43-0.128-0.884-0.512-0.989-0.972-0.145-0.384-0.084-0.928 0.221-1.221 0.369-0.361 0.945-0.401 1.399-0.195 0.302 0.145 0.605 0.442 0.745 0.765 0.183 0.404 0.145 0.989-0.163 1.326z m2.504 1.079c-0.035-0.157 0.169-0.238 0.204-0.384l0.224-0.506c0.349 0.102 0.556 0.509 0.948 0.535-0.396 0.198-0.893 0.276-1.376 0.355z"/></svg>