<svg fill="#F07355" role="img" viewBox="0 0 19 24" xmlns="http://www.w3.org/2000/svg"><title>Viadeo</title><path d="M13.789 13.898c0.361 0.884 0.543 1.842 0.543 2.875 0 1.931-0.659 3.619-1.977 5.063C11.037 23.28 9.342 24 7.27 24c-2.082 0-3.778-0.72-5.098-2.164-1.318-1.444-1.979-3.131-1.978-5.063 0-1.914 0.621-3.575 1.868-4.979C3.438 10.244 5.169 9.469 7.267 9.469c0.884 0 1.702 0.139 2.454 0.413-0.245 0.481-0.466 1.07-0.526 1.704-0.599-0.25-1.242-0.376-1.934-0.376-1.454 0-2.701 0.545-3.741 1.638-1.041 1.092-1.561 2.413-1.562 3.963 0 1 0.24 1.931 0.711 2.795 0.479 0.864 1.115 1.53 1.925 2.001 0.81 0.47 1.694 0.705 2.66 0.704 0.967 0 1.859-0.234 2.66-0.704 0.81-0.47 1.454-1.137 1.925-2.001 0.835-1.497 0.962-3.465 0.298-5.039 0.471-0.099 1.049-0.295 1.652-0.669zM17.887 0.428l-0.012-0.014c-0.757 1.615-2.159 1.917-2.159 1.917-1.401 0.361-1.892 0.9-1.892 0.9-1.401 1.416-0.295 3.134-0.295 3.134 3.031-0.693 4.137-3.186 4.137-3.186-0.133 1.681-3.732 3.658-3.732 3.658 1.195 1.173 2.33 1.032 3.083 0.583 0.996-0.59 1.475-1.895 1.475-1.895 0.966-2.898-0.605-5.096-0.605-5.096zM4.53 20.473s0.428 0.074 0.912 0.052c0 0 10.329-7.021 7.61-14.315l-0.041-0.118v0.007c0.034 0.487-4.483 13.061-8.481 14.374z m8.383-15.19C12.549 1.41 10.433 0 10.433 0c1.49 2.513 2.3 4.769 2.481 5.306 0-0.013-0.001-0.022-0.001-0.023z"/></svg>