<svg fill="#621773" role="img" viewBox="0 0 21 24" xmlns="http://www.w3.org/2000/svg"><title>VictoriaMetrics</title><path d="M0.393 3.078C-1.261 1.537 3.346 0.009 10.463 0h0.076c7.116 0.009 11.723 1.537 10.067 3.078 0 0-6.168 5.655-8.301 7.473-0.404 0.346-1.084 0.607-1.766 0.616h-0.076c-0.682-0.009-1.362-0.271-1.767-0.616-2.132-1.818-8.301-7.473-8.303-7.473Zm20.549 2.771V8.58c0 0.3-0.115 0.698-0.319 0.885-1.332 1.222-6.47 5.925-8.319 7.502-0.405 0.345-1.085 0.606-1.767 0.615h-0.072c-0.683-0.009-1.362-0.27-1.767-0.615-1.849-1.577-6.987-6.28-8.32-7.502-0.204-0.187-0.318-0.585-0.318-0.885V5.849c1.96 1.788 7.163 6.505 8.638 7.764 0.404 0.346 1.084 0.607 1.767 0.616h0.072c0.682-0.009 1.362-0.271 1.767-0.616 1.474-1.258 6.678-5.973 8.638-7.764Zm0 6.418v2.73c0 0.301-0.115 0.698-0.319 0.885-1.332 1.222-6.47 5.926-8.319 7.502-0.405 0.346-1.085 0.607-1.767 0.616h-0.072c-0.683-0.009-1.362-0.271-1.767-0.616-1.849-1.576-6.987-6.28-8.32-7.502-0.204-0.187-0.318-0.585-0.318-0.885v-2.73c1.96 1.788 7.163 6.505 8.638 7.764 0.404 0.346 1.084 0.606 1.767 0.615h0.072c0.682-0.009 1.362-0.27 1.767-0.615 1.474-1.258 6.678-5.976 8.638-7.764Z"/></svg>