<svg fill="#0066B2" role="img" viewBox="0 0 40 24" xmlns="http://www.w3.org/2000/svg"><title>Victron Energy</title><path d="M12.136 0c-0.852 0.002-2.114 0.224-3.428 1.226 0 0-2.775 1.696-3.422 8.434 0 0-0.235 1.664-0.108 2.506 0 0 0.108 0.984 1.122 1.073 0 0 1.223 0.095 1.301-1.051 0.077-1.146 0.103-1.611 0.103-1.612S7.896 6.096 9.715 3.825l0.439 0.33s0.62-2.353 3.06-4.024c0 0-0.415-0.132-1.078-0.131Zm4.456 0.038c-1.037 0.002-2.664 0.273-3.979 1.701 0 0-2.088 1.861-2.704 6.486 0 0-0.258 2.485-0.302 3.693 0 0-0.021 1.172 1.107 1.321 0 0 1.159 0.072 1.236-1.161 0 0 0.075-5.662 2.17-8.253l0.521 0.324s0.906-2.617 2.981-4.018c0 0-0.408-0.095-1.03-0.093Zm4.659 0.026c-0.093-0.002-0.189 0-0.285 0.005 0 0-2.926-0.119-4.644 2.829 0 0-1.985 2.891-1.977 8.811 0 0-0.121 1.404 0.981 1.532 0 0 1.303 0.082 1.303-1.408 0 0 0.059-5.842 2.288-8.204 0 0 1.974 2.371 2.135 7.945 0 0 0.069 3.82 0.782 5.926 0 0 0.645-2.364 0.776-5.636 0 0-0.056-0.598 0.463-1.018 0 0 0.341-0.167 0.275-0.764 0 0-0.477-4.862-2.097-7.618 0 0 3.433-0.222 4.115 6.646 0 0 0.007 1.004 0.563 1.631 0 0 0.408 0.289 0.449 0.994 0 0 0.1 0.971-0.193 4.116 0 0-0.069 0.689 0.235 1.667 0 0 0.849-2.348 0.624-4.65 0 0-0.111-1.868 0.818-2.497 0 0-0.078-5.213-2.152-8.067 0 0-1.541-2.219-4.459-2.24Zm-13.973 0.031c-0.919 0.008-2.149 0.264-3.385 1.258 0 0-2.939 1.972-3.477 10.284 0 0-0.163 1.383 1.058 1.587 0 0 1.229 0.237 1.392-0.798 0.162-1.038 0.131-6.281 2.454-8.971 0 0 0.225-0.34 0.842-0.606 0.518-0.317 0.926-0.898 1.23-1.358 0 0 0.452-0.602 1.415-1.166 0 0-0.611-0.238-1.529-0.23ZM13.581 6.482s-0.847 2.348-0.625 4.648c0 0 0.113 1.869-0.816 2.499 0 0 0.078 5.215 2.153 8.067 0 0 1.639 2.364 4.743 2.235 0 0 2.926 0.119 4.645-2.831 0 0 1.982-2.89 1.975-8.811 0 0 0.121-1.402-0.981-1.532 0 0-1.304-0.082-1.305 1.409 0 0-0.057 5.842-2.287 8.203 0 0-1.974-2.369-2.135-7.941 0 0-0.067-3.82-0.779-5.927 0 0-0.647 2.361-0.776 5.634 0 0 0.054 0.598-0.465 1.019 0 0-0.341 0.167-0.276 0.764 0 0 0.478 4.864 2.1 7.618 0 0-3.435 0.222-4.116-6.646 0 0-0.007-1.004-0.563-1.631 0 0-0.408-0.289-0.449-0.993 0 0-0.1-0.973 0.191-4.117 0 0 0.069-0.689-0.234-1.667Zm24.753 4.272c-0.354-0.018-1.078 0.042-1.199 0.821-0.162 1.035-0.131 6.277-2.454 8.97 0 0-0.225 0.34-0.844 0.604-0.514 0.318-0.922 0.9-1.227 1.36 0 0-0.454 0.602-1.416 1.164 0 0 2.441 0.96 4.914-1.028 0 0 2.939-1.971 3.476-10.284 0 0 0.165-1.383-1.056-1.586 0 0-0.077-0.016-0.194-0.021Zm-9.096 0.007c-0.224 0.003-1.122 0.083-1.185 1.161 0 0-0.078 5.662-2.173 8.254l-0.519-0.323s-0.906 2.617-2.98 4.016c0 0 2.904 0.678 5.009-1.606 0 0 2.087-1.863 2.702-6.487 0 0 0.258-2.485 0.302-3.694 0 0 0.023-1.172-1.105-1.32l-0.051-0.001Zm4.41 0.001c-0.235-0.003-1.18 0.049-1.246 1.05l-0.106 1.612s-0.193 4.48-2.01 6.752l-0.439-0.33s-0.62 2.351-3.059 4.023c0 0 2.17 0.689 4.506-1.095 0 0 2.774-1.695 3.422-8.435 0 0 0.237-1.664 0.106-2.506 0 0-0.104-0.984-1.122-1.071h-0.052Z"/></svg>