<svg fill="#1AB7EA" role="img" viewBox="0 0 28 24" xmlns="http://www.w3.org/2000/svg"><title>Vimeo</title><path d="M27.825 5.555c-0.121 2.699-2.007 6.398-5.649 11.092-3.772 4.903-6.956 7.353-9.57 7.353-1.626 0-2.976-1.494-4.101-4.48l-2.214-8.212c-0.83-2.983-1.718-4.477-2.669-4.476-0.207 0-0.93 0.436-2.171 1.306l-1.303-1.682a363.689 363.689 0 0 0 4.041-3.61c1.823-1.579 3.192-2.407 4.103-2.492 2.155-0.208 3.482 1.27 3.979 4.43 0.537 3.409 0.911 5.528 1.12 6.357 0.622 2.828 1.305 4.241 2.05 4.241 0.579 0 1.45-0.919 2.615-2.753 1.159-1.834 1.778-3.229 1.861-4.188 0.166-1.583-0.456-2.379-1.863-2.379-0.663 0-1.347 0.14-2.052 0.451 1.369-4.465 3.964-6.645 7.806-6.507 2.855 0.069 4.188 1.921 4.032 5.537z"/></svg>