<svg fill="#0A0A20" role="img" viewBox="0 0 211 24" xmlns="http://www.w3.org/2000/svg"><title>Vimeo Livestream</title><path d="M23.736 0c-0.964 0-1.841 0.351-2.629 1.017-0.789 0.675-1.201 1.376-1.227 2.103-0.061 1.402 0.684 2.104 2.208 2.104a3.506 3.506 0 0 0 2.569-1.095 3.024 3.024 0 0 0 1.008-2.017 2.042 2.042 0 0 0-0.526-1.402 1.744 1.744 0 0 0-1.403-0.701z m80.002 5.575v15.225c0 2.866 1.928 3.199 3.015 3.2a4.33 4.33 0 0 0 0.649-0.053v-1.586s-0.202 0.026-0.438 0.026c-0.675 0-1.455-0.263-1.455-1.981v-14.831z m5.522 0v2.217h1.841v-2.217z m41.136 1.595v3.778h-1.744v1.49h1.718v6.697c0 4.383 3.042 4.865 4.549 4.865a4.514 4.514 0 0 0 0.745-0.053v-1.586s-0.228 0.053-0.596 0.052c-0.982 0-2.936-0.394-2.936-3.462v-6.522h3.278v-1.49h-3.269v-3.769zM15.611 7.626c-2.481-0.088-4.164 1.385-5.04 4.409a3.217 3.217 0 0 1 1.315-0.307c0.92 0 1.315 0.543 1.209 1.613-0.053 0.649-0.456 1.595-1.201 2.84-0.754 1.245-1.315 1.867-1.691 1.867-0.482 0-0.92-0.964-1.324-2.875a71.955 71.955 0 0 1-0.727-4.313c-0.316-2.148-1.175-3.147-2.569-3.006-0.587 0.061-1.473 0.622-2.656 1.692L0.315 12.009l0.842 1.139a5.452 5.452 0 0 1 1.402-0.885c0.614 0 1.192 1.008 1.727 3.033l1.446 5.574c0.719 2.016 1.604 3.033 2.647 3.033 1.683 0 3.743-1.665 6.18-4.987 1.709-2.314 2.814-4.269 3.331-5.873 0.675-0.517 1.087-0.789 1.245-0.789 0.482 0 0.719 0.368 0.718 1.104 0 0.14-0.263 1.183-0.789 3.121-0.517 1.946-0.789 3.383-0.815 4.313a3.278 3.278 0 0 0 0.614 2.191 2.279 2.279 0 0 0 1.911 0.841c1.797 0 3.594-0.815 5.39-2.445l0.465-0.447a3.462 3.462 0 0 0 0.745 1.551c0.771 0.877 2.077 1.28 3.918 1.227-0.245-0.622-0.351-1.718-0.289-3.295 0.088-1.753 0.526-3.462 1.288-5.032 0.771-1.604 1.499-2.402 2.174-2.401 0.78 0 1.14 0.517 1.087 1.56-0.026 0.701-0.158 1.508-0.394 2.41a11.921 11.921 0 0 0-0.395 2.7c-0.053 1.438 0.254 2.463 0.921 3.085 0.745 0.701 2.06 1.026 3.927 0.965a6.548 6.548 0 0 1-0.342-2.779 12.096 12.096 0 0 1 1.665-5.329c0.964-1.744 1.797-2.612 2.498-2.612 0.64 0 0.955 0.526 0.921 1.604a16.041 16.041 0 0 1-0.5 2.954 16.198 16.198 0 0 0-0.5 3.243c-0.053 2.034 0.789 3.042 2.534 3.041 1.797 0 3.594-0.815 5.381-2.445l0.088-0.088a4.979 4.979 0 0 0 0.193 0.333c0.938 1.525 2.498 2.279 4.672 2.279 2.919 0 5.803-0.85 8.643-2.568l0.911-0.57a6.136 6.136 0 0 0 0.631 1.07c1.096 1.438 2.709 2.156 4.821 2.156a8.327 8.327 0 0 0 6.399-2.831c1.709-1.885 2.63-4.12 2.726-6.706 0.088-1.911-0.333-3.471-1.245-4.681-0.964-1.324-2.384-1.981-4.26-1.981-2.919 0-5.347 1.122-7.275 3.366-1.797 2.034-2.63 4.251-2.489 6.662 0 0.184 0.018 0.351 0.035 0.526l-0.298 0.14c-2.279 1.034-4.383 1.551-6.311 1.552-0.964 0-1.692-0.351-2.174-1.052a12.009 12.009 0 0 0 6.478-3.164c1.604-1.516 2.358-2.989 2.252-4.427-0.167-2.244-1.56-3.375-4.181-3.375-2.849 0-5.312 1.14-7.398 3.384-1.902 2.06-2.875 4.225-2.892 6.504a5.698 5.698 0 0 0 0.052 1.104c-0.456 0.316-0.789 0.473-1.025 0.473-0.508 0-0.833-0.114-0.965-0.341-0.131-0.219-0.184-0.631-0.157-1.228 0-0.219 0.167-1.078 0.499-2.577a19.722 19.722 0 0 0 0.544-3.436c0.053-1.14-0.158-2.034-0.64-2.647-0.561-0.763-1.49-1.078-2.779-0.964a5.811 5.811 0 0 0-3.094 1.262c-0.587 0.456-1.192 1.052-1.806 1.815l-0.604 0.552a4.278 4.278 0 0 0-0.64-2.665c-0.57-0.754-1.508-1.078-2.814-0.964a6.986 6.986 0 0 0-4.146 1.893 7.67 7.67 0 0 0-1.403 1.692 4.137 4.137 0 0 0-0.561-3.103c-0.438-0.657-0.999-0.964-1.691-0.903-0.403 0.026-1.166 0.587-2.297 1.683-1.551 1.525-2.393 2.34-2.533 2.455l0.964 1.139c0.754-0.57 1.21-0.859 1.368-0.859 0.298 0 0.421 0.254 0.368 0.763-0.026 0.728-0.149 1.753-0.377 3.05a34.623 34.623 0 0 0-0.289 2.104l-0.044 0.026c-0.964 0.833-1.63 1.253-2.007 1.253-0.859 0-1.271-0.605-1.245-1.814 0.403-2.63 0.78-4.812 1.122-6.521a3.681 3.681 0 0 0-0.456-2.455c-0.421-0.64-1.069-0.912-1.955-0.832-0.561 0.061-1.42 0.622-2.568 1.691l-1.201 1.14c-0.088-1.99-0.947-3.015-2.603-3.068z m115.887 2.638c-3.532 0-6.443 2.577-6.442 6.881 0 4.041 2.936 6.855 6.837 6.855 2.928 0 4.83-1.823 4.829-1.824l-0.806-1.358s-1.578 1.595-3.971 1.595c-2.709 0-4.996-1.823-5.066-5.189h10.027s0.053-0.596 0.053-0.912c0-3.261-1.841-6.048-5.461-6.048z m11.693 0c-2.367 0-4.47 1.28-4.47 3.62 0 4.278 7.047 3.576 7.047 6.443 0 1.376-1.227 2.086-2.629 2.086a5.584 5.584 0 0 1-3.892-1.595l-0.964 1.28s1.665 1.902 4.838 1.902c2.621 0 4.47-1.534 4.47-3.682 0-4.321-7.047-3.532-7.047-6.434 0-1.455 1.271-2.034 2.603-2.033 2.156 0 3.269 1.201 3.27 1.201l0.806-1.35s-1.28-1.438-4.032-1.438z m28.049 0c-3.532 0-6.443 2.577-6.442 6.881 0 4.041 2.936 6.855 6.837 6.855 2.928 0 4.821-1.823 4.821-1.824l-0.798-1.358s-1.587 1.595-3.979 1.595c-2.7 0-4.988-1.823-5.067-5.189h10.028s0.053-0.596 0.053-0.912c0-3.261-1.841-6.048-5.453-6.048z m12.395 0c-2.936 0-4.646 1.49-4.646 1.49l0.824 1.35s1.534-1.253 3.69-1.253c1.876 0 3.243 0.868 3.243 3.392v0.342h-0.718c-2.261 0-8.003 0.105-8.003 4.532 0 2.603 2.261 3.883 4.444 3.883 3.269 0 4.365-2.84 4.365-2.84h0.053s-0.053 0.438-0.053 1.095v1.438h1.683v-8.397c0-3.287-1.736-5.031-4.882-5.032z m13.805 0.202a5.347 5.347 0 0 0-4.733 3.313h-0.053s0.053-0.465 0.053-1.043v-1.955h-1.744v13.105h1.77v-6.197c0-0.587 0.053-1.175 0.176-1.754 0.552-1.999 2.165-3.857 4.295-3.856 2.463 0 2.752 1.928 2.752 3.918v7.889h1.762v-6.197c0-0.701 0.053-1.332 0.236-1.903 0.5-1.928 2.13-3.699 4.129-3.699 2.393 0 2.831 1.771 2.831 3.91v7.889H210.685v-8.327c0-3.243-1.166-5.084-4.339-5.084a5.312 5.312 0 0 0-4.804 3.278h-0.052c-0.394-2.165-1.639-3.287-4.05-3.287z m-33.974 0.184c-2.051 0-3.506 1.508-4.129 3.489h-0.053s0.053-0.465 0.053-1.035v-2.323h-1.744v13.105h1.77v-5.522a8.678 8.678 0 0 1 0.36-2.551c0.579-1.928 1.955-3.392 3.795-3.392 0.342 0 0.649 0.053 0.649 0.052v-1.744s-0.333-0.079-0.701-0.079z m-54.162 0.131v13.105h1.771V10.781z m3.252 0l5.014 13.105h1.928l4.988-13.105h-1.85l-3.611 9.616c-0.263 0.675-0.465 1.569-0.465 1.569h-0.052s-0.21-0.912-0.438-1.569l-3.647-9.616z m-38.024 0.456c0.421 0 0.754 0.316 0.982 0.947a5.592 5.592 0 0 1 0.298 2.104 8.301 8.301 0 0 1-1.166 3.891c-0.859 1.49-1.885 2.244-3.094 2.244-0.535 0-0.955-0.316-1.245-0.929a3.787 3.787 0 0 1-0.359-1.867 8.476 8.476 0 0 1 1.2-4.067c0.885-1.551 2.016-2.323 3.384-2.323z m-15.094 0.491c0.614 0 0.903 0.377 0.876 1.14-0.026 0.561-0.43 1.289-1.2 2.182-0.947 1.026-2.104 1.814-3.419 2.314a6.074 6.074 0 0 1 1.28-3.892c0.841-1.166 1.657-1.744 2.454-1.744z m72.008 0.026c1.955 0 3.611 1.271 3.716 4.006h-8.204c0.412-2.63 2.305-4.006 4.488-4.006z m39.742 0c1.946 0 3.611 1.271 3.716 4.006h-8.213c0.421-2.63 2.314-4.006 4.497-4.006z m-79.16 2.279c-1.306 0-1.955 0.973-1.955 1.955 0 0.973 0.649 1.946 1.955 1.946 1.297 0 1.946-0.973 1.946-1.946 0-0.982-0.649-1.955-1.946-1.955z m93.965 3.007h0.762v0.578c0 2.261-1.508 4.865-4.006 4.865-1.946 0-2.91-1.245-2.91-2.472 0-2.893 4.111-2.971 6.162-2.971z"/></svg>