<svg fill="#E10A0A" role="img" viewBox="0 0 28 24" xmlns="http://www.w3.org/2000/svg"><title>Virgin</title><path d="M9.436 9.544l0.009-0.005c0.05-0.068 0.118-0.129 0.146-0.203 0.045-0.124 0.074-0.257-0.005-0.383-0.018-0.029-0.027-0.063-0.041-0.095-0.039-0.101-0.09-0.133-0.23-0.13a0.631 0.631 0 0 0-0.317 0.097 3.506 3.506 0 0 0-0.336 0.237c-0.056 0.045-0.101 0.104-0.152 0.155-0.068 0.068-0.083 0.158-0.124 0.237a0.519 0.519 0 0 0-0.06 0.25c0.002 0.106 0.046 0.203 0.128 0.259 0.09 0.061 0.207 0.104 0.327 0.048a2.074 2.074 0 0 0 0.243-0.131c0.15-0.097 0.318-0.176 0.412-0.336M27.527 9.095c-0.009-0.011-0.023-0.023-0.026-0.037a0.716 0.716 0 0 0-0.195-0.316 0.338 0.338 0 0 0-0.138-0.067c-0.044-0.011-0.092 0.002-0.138-0.008a1.111 1.111 0 0 0-0.775 0.11c-0.245 0.127-0.485 0.263-0.733 0.385a6.358 6.358 0 0 1-0.505 0.216c-0.119 0.047-0.188 0.023-0.264-0.068-0.01-0.014-0.023-0.028-0.036-0.031-0.056-0.014-0.056-0.062-0.071-0.102-0.006-0.017-0.011-0.045-0.019-0.047-0.077-0.012-0.052-0.043-0.018-0.079 0.011-0.011 0.017-0.026 0.028-0.043-0.038-0.036-0.101-0.056-0.072-0.124 0.002-0.005-0.009-0.018-0.017-0.021-0.05-0.021-0.027-0.059-0.024-0.092 0.006-0.064 0.007-0.072 0.036-0.1l-0.058-0.056 0.059-0.106c-0.052-0.011-0.071-0.043-0.04-0.074 0.036-0.035 0.03-0.068 0.025-0.109-0.002-0.018-0.006-0.042 0.003-0.056 0.023-0.034 0.018-0.065 0.007-0.101-0.007-0.023 0.007-0.05 0.011-0.079-0.053-0.021-0.069-0.061-0.047-0.118 0.006-0.014 0.01-0.034 0.004-0.045-0.028-0.053 0.002-0.091 0.022-0.112-0.015-0.056-0.034-0.095-0.034-0.135a11.113 11.113 0 0 1 0.002-0.464c0-0.025 0.023-0.048 0.035-0.074-0.034-0.06-0.034-0.06 0.016-0.109-0.016-0.034-0.036-0.064-0.042-0.095-0.009-0.06 0.057-0.038 0.079-0.061-0.009-0.056-0.023-0.107-0.025-0.158 0-0.046-0.008-0.092 0.011-0.141 0.016-0.043 0.002-0.096 0.003-0.148l-0.052 0.005-0.008-0.168c-0.002-0.061 0.009-0.113 0.074-0.115v-0.143c-0.024-0.036-0.051-0.069-0.07-0.106-0.025-0.048 0.015-0.082 0.047-0.121-0.064-0.03-0.076-0.082-0.091-0.139-0.018-0.071-0.034-0.16-0.084-0.202-0.047-0.041-0.087-0.096-0.148-0.123l-0.037-0.015c-0.248-0.112-0.493-0.069-0.729 0.027-0.129 0.052-0.246 0.132-0.368 0.201a0.387 0.387 0 0 0-0.079 0.058c-0.088 0.085-0.174 0.171-0.259 0.257a1.235 1.235 0 0 0-0.09 0.107 0.842 0.842 0 0 1-0.381 0.275 0.408 0.408 0 0 1-0.31-0.011c-0.074-0.033-0.132-0.044-0.202 0a0.186 0.186 0 0 1-0.105 0.021c-0.308-0.041-0.56 0.085-0.769 0.284a1.045 1.045 0 0 0-0.296 0.616c-0.017 0.121-0.017 0.245-0.023 0.367-0.011 0.202-0.019 0.402-0.029 0.604l-0.04 0.769c-0.008 0.156-0.01 0.311-0.019 0.465-0.018 0.361-0.039 0.721-0.056 1.083a1.051 1.051 0 0 0 0.008 0.206c0.026 0.18 0.09 0.282 0.248 0.314a0.586 0.586 0 0 0 0.373-0.031c0.099-0.046 0.203-0.087 0.293-0.147 0.112-0.074 0.247-0.135 0.265-0.293 0-0.003 0.003-0.006 0.005-0.009 0.045-0.079 0.09-0.158 0.129-0.24a0.135 0.135 0 0 0 0.015-0.081c-0.008-0.036-0.054-0.062-0.008-0.112 0.021-0.023 0-0.079 0.008-0.119 0.008-0.044 0.025-0.086 0.038-0.133l-0.068-0.056 0.036-0.034c-0.077-0.071-0.015-0.131 0.024-0.191-0.021-0.024-0.07-0.005-0.064-0.057 0.014-0.135-0.03-0.275 0.038-0.405 0.002-0.005 0.006-0.015 0.004-0.017-0.053-0.061-0.005-0.113 0.009-0.173 0.034 0.043 0.054 0.007 0.075-0.002l-0.012-0.077c-0.011-0.059 0.002-0.124-0.061-0.166-0.015-0.009-0.018-0.057-0.007-0.079a0.406 0.406 0 0 1 0.084-0.109c0.034-0.033 0.039-0.064 0.022-0.106a0.854 0.854 0 0 1-0.04-0.119c-0.006-0.027-0.012-0.064 0-0.085 0.014-0.02 0.05-0.025 0.074-0.036v-0.129l-0.045-0.03 0.029-0.064c0.062 0.01 0.062 0.01 0.05-0.047-0.001-0.009-0.005-0.023 0-0.027 0.051-0.06 0.028-0.132 0.037-0.199 0.002-0.019 0-0.043 0.011-0.055 0.055-0.065 0.056-0.144 0.064-0.212 0.043-0.038 0.101-0.065 0.112-0.105 0.025-0.087 0.088-0.135 0.151-0.185a0.24 0.24 0 0 0 0.075-0.087 0.436 0.436 0 0 1 0.115-0.155c0.077-0.061 0.167-0.105 0.248-0.161 0.124-0.086 0.256-0.044 0.385-0.029 0.026 0.003 0.053 0.028 0.072 0.05 0.074 0.085 0.119 0.185 0.034 0.343a0.404 0.404 0 0 0-0.011 0.388c0.115 0.212 0.01 0.405 0.029 0.606-0.045 0.061-0.023 0.123-0.002 0.185a0.074 0.074 0 0 1 0 0.046 0.558 0.558 0 0 0-0.017 0.369c0.007 0.02 0.002 0.045 0 0.069-0.011 0.176-0.044 0.349-0.039 0.526 0.002 0.147 0 0.291 0.005 0.436a0.505 0.505 0 0 0 0.133 0.323c0.045 0.051 0.107 0.087 0.164 0.125 0.05 0.034 0.055 0.053 0.011 0.09a0.415 0.415 0 0 1-0.057 0.04c-0.074 0.045-0.149 0.089-0.225 0.13l-0.784 0.44-1.123 0.629c-0.221 0.124-0.442 0.247-0.661 0.372-0.253 0.147-0.503 0.298-0.756 0.443-0.035 0.02-0.08 0.025-0.12 0.038-0.018 0.006-0.038 0.011-0.051 0.024a0.863 0.863 0 0 1-0.25 0.158c-0.079 0.037-0.158 0.072-0.232 0.116-0.135 0.082-0.268 0.171-0.402 0.256l-0.628 0.387c-0.266 0.163-0.534 0.325-0.799 0.49-0.147 0.091-0.287 0.191-0.433 0.285-0.026 0.017-0.056 0.027-0.093 0.045-0.006-0.037-0.012-0.06-0.012-0.081a6.615 6.615 0 0 1 0-0.256 2.81 2.81 0 0 1 0.011-0.214c0.008-0.088 0.032-0.171 0.015-0.263-0.015-0.079 0.007-0.162 0.011-0.243 0.006-0.057 0.027-0.121 0.011-0.174a0.586 0.586 0 0 1-0.014-0.234 4.782 4.782 0 0 0 0.027-0.44c0-0.052 0.016-0.103 0.02-0.154 0.009-0.099 0.015-0.198 0.023-0.297 0.023-0.227 0.047-0.453 0.064-0.68 0.018-0.227 0.026-0.454 0.042-0.68 0.009-0.13 0-0.269 0.046-0.386 0.05-0.124-0.009-0.246 0.037-0.361-0.055-0.122 0.045-0.241 0.004-0.362-0.002-0.006 0.015-0.015 0.016-0.022a0.151 0.151 0 0 0 0-0.051c-0.003-0.023-0.016-0.044-0.016-0.065 0-0.067-0.002-0.134 0.006-0.2a0.399 0.399 0 0 0-0.101-0.32 0.407 0.407 0 0 0-0.262-0.128 0.79 0.79 0 0 0-0.44 0.058c-0.196 0.09-0.343 0.222-0.383 0.436a4.408 4.408 0 0 0-0.056 0.482c-0.019 0.248-0.03 0.495-0.047 0.742-0.011 0.161-0.028 0.322-0.043 0.483-0.008 0.09 0.006 0.184-0.053 0.264a0.028 0.028 0 0 0-0.004 0.025c0.038 0.088 0.011 0.178 0.006 0.265-0.008 0.171-0.041 0.342-0.055 0.511-0.025 0.286-0.07 0.569-0.116 0.853-0.032 0.198-0.09 0.383-0.241 0.534a0.885 0.885 0 0 1-0.567 0.282 0.275 0.275 0 0 1-0.284-0.148 0.737 0.737 0 0 1-0.092-0.269c-0.017-0.176-0.045-0.354 0.003-0.531 0.006-0.023 0-0.045 0-0.069 0.002-0.053 0.001-0.106 0.006-0.158a4.37 4.37 0 0 1 0.029-0.237c0.006-0.037 0.009-0.079 0.027-0.112 0.032-0.063 0.027-0.117-0.002-0.181a0.246 0.246 0 0 1-0.021-0.142c0.016-0.096 0.021-0.193 0.057-0.286 0.036-0.095 0.052-0.197 0.081-0.295a0.28 0.28 0 0 1 0.054-0.116c0.045-0.047 0.053-0.104 0.069-0.161a0.561 0.561 0 0 1 0.05-0.127c0.034-0.057 0.071-0.117 0.097-0.175 0.027-0.059 0.045-0.113 0.1-0.151a0.135 0.135 0 0 0 0.041-0.065 0.304 0.304 0 0 1 0.115-0.147c0.033-0.023 0.076-0.043 0.091-0.074 0.056-0.107 0.139-0.2 0.165-0.322 0.014-0.061 0.011-0.125 0.03-0.181a0.277 0.277 0 0 0-0.01-0.205 0.21 0.21 0 0 0-0.095-0.097 0.388 0.388 0 0 0-0.267-0.026c-0.185 0.053-0.38 0.082-0.528 0.223-0.016 0.015-0.042 0.02-0.059 0.034-0.117 0.094-0.243 0.177-0.348 0.282-0.097 0.099-0.169 0.22-0.252 0.331-0.187 0.253-0.327 0.53-0.424 0.827-0.107 0.325-0.15 0.662-0.197 0.996-0.029 0.212 0.001 0.431-0.069 0.638-0.011 0.03-0.007 0.065-0.004 0.099 0.007 0.071 0.02 0.142 0.022 0.215 0.003 0.129 0 0.257-0.001 0.386-0.001 0.271-0.02 0.541 0.041 0.81 0.029 0.13 0.063 0.259 0.146 0.364a0.897 0.897 0 0 0 0.679 0.346c0.165 0.01 0.327-0.012 0.486-0.05 0.056-0.012 0.112-0.041 0.173-0.014 0.014 0.006 0.037-0.006 0.055-0.014 0.023-0.01 0.045-0.025 0.068-0.035 0.086-0.035 0.168-0.079 0.262-0.087a0.112 0.112 0 0 0 0.044-0.015c0.123-0.081 0.245-0.165 0.367-0.247 0.023-0.015 0.056-0.034 0.077-0.027 0.018 0.007 0.032 0.045 0.033 0.072 0.003 0.068-0.006 0.138 0.003 0.205a1.86 1.86 0 0 1-0.004 0.388 0.112 0.112 0 0 1-0.049 0.08c-0.168 0.113-0.336 0.225-0.5 0.346-0.245 0.18-0.485 0.365-0.726 0.547a26.475 26.475 0 0 1-0.432 0.316c-0.151 0.108-0.304 0.213-0.456 0.322-0.169 0.124-0.335 0.253-0.505 0.374-0.218 0.158-0.44 0.309-0.658 0.465-0.053 0.039-0.097 0.09-0.148 0.133-0.064 0.052-0.132 0.101-0.197 0.153a47.254 47.254 0 0 0-0.288 0.228l-0.398 0.318c-0.16 0.129-0.32 0.259-0.48 0.387-0.086 0.068-0.175 0.131-0.258 0.201-0.129 0.11-0.249 0.228-0.379 0.336-0.16 0.135-0.327 0.262-0.488 0.394a50.792 50.792 0 0 0-0.58 0.487c-0.169 0.144-0.338 0.289-0.504 0.438-0.156 0.14-0.305 0.285-0.459 0.428-0.185 0.171-0.372 0.34-0.557 0.513-0.258 0.245-0.526 0.479-0.745 0.761l-0.241 0.315a0.37 0.37 0 0 0-0.065 0.245 0.879 0.879 0 0 0 0.09 0.363 0.556 0.556 0 0 0 0.211 0.228c0.174 0.105 0.361 0.125 0.558 0.118a0.426 0.426 0 0 0 0.29-0.127c0.086-0.082 0.175-0.161 0.259-0.244 0.09-0.085 0.176-0.171 0.264-0.257 0.021-0.021 0.045-0.041 0.066-0.062a12.873 12.873 0 0 0 0.138-0.14 3.085 3.085 0 0 0 0.083-0.086l0.23-0.257c0.028-0.033 0.053-0.068 0.083-0.097l0.672-0.664c0.051-0.051 0.101-0.104 0.15-0.157a2.416 2.416 0 0 0 0.098-0.109c0.032-0.038 0.056-0.081 0.09-0.117 0.063-0.063 0.131-0.121 0.194-0.183 0.108-0.106 0.212-0.218 0.325-0.32 0.104-0.096 0.219-0.18 0.324-0.274 0.047-0.042 0.083-0.094 0.126-0.139l0.278-0.284c0.007-0.007 0.016-0.011 0.023-0.018 0.169-0.135 0.338-0.268 0.504-0.406 0.237-0.193 0.47-0.39 0.707-0.583 0.158-0.129 0.321-0.249 0.478-0.377 0.229-0.187 0.452-0.38 0.682-0.566 0.131-0.107 0.271-0.205 0.404-0.309 0.131-0.101 0.259-0.207 0.391-0.309a72.589 72.589 0 0 1 0.551-0.425c0.177-0.135 0.353-0.271 0.533-0.4 0.096-0.068 0.198-0.131 0.316-0.175 0.005 0.03 0.011 0.053 0.01 0.074-0.003 0.079-0.011 0.157-0.012 0.235-0.002 0.234-0.002 0.469-0.003 0.705l-0.001 0.89c0 0.356 0 0.712-0.002 1.069 0 0.063 0.025 0.132-0.03 0.188-0.008 0.008 0.002 0.03 0.003 0.046 0.003 0.042 0.01 0.085 0.009 0.126-0.005 0.105-0.016 0.21-0.017 0.315 0 0.092 0.014 0.184 0.016 0.276a8.221 8.221 0 0 1-0.005 0.354l-0.015 0.404c-0.003 0.154-0.003 0.31-0.011 0.464-0.007 0.171-0.02 0.343-0.026 0.514-0.008 0.228-0.005 0.455-0.018 0.682-0.018 0.312-0.008 0.62 0.094 0.92 0.035 0.101 0.062 0.207 0.142 0.292a0.789 0.789 0 0 0 0.383 0.22c0.026 0.006 0.05 0.017 0.075 0.026 0.079 0.024 0.149 0.023 0.229 0.017a0.433 0.433 0 0 0 0.18-0.057c0.087-0.048 0.174-0.096 0.255-0.151a0.59 0.59 0 0 0 0.133-0.146c0.025-0.034 0.028-0.082 0.053-0.116 0.026-0.035 0.064-0.061 0.098-0.091l-0.088-0.05c0.014-0.029 0.025-0.054 0.038-0.079 0.007-0.014 0.027-0.026 0.025-0.036-0.011-0.06 0.027-0.096 0.068-0.137-0.034-0.019-0.083-0.032-0.087-0.052-0.011-0.06-0.057-0.092-0.087-0.135l0.047-0.084-0.056-0.021c0.106-0.003 0.056-0.11 0.113-0.14-0.023-0.03-0.068-0.035-0.041-0.091 0.016-0.034-0.037-0.068-0.086-0.067-0.053 0-0.081-0.023-0.082-0.076l-0.009-0.145 0.065-0.03-0.002-0.015-0.073-0.012c0.087-0.025 0.113-0.095 0.143-0.164a0.444 0.444 0 0 1-0.087-0.289c0.002-0.029-0.003-0.068-0.061-0.06-0.048 0.006-0.089-0.063-0.072-0.112 0.017-0.048 0.035-0.092-0.011-0.14l0.064-0.028c0.028-0.071-0.034-0.135-0.012-0.203-0.05-0.033-0.053-0.076-0.023-0.124l-0.063-0.007 0.054-0.14-0.112-0.118c0.034-0.074 0.034-0.074 0.006-0.187l0.058-0.033c-0.027-0.029-0.025-0.082-0.08-0.079-0.007 0-0.016-0.014-0.019-0.022-0.029-0.068-0.001-0.125 0.072-0.153l-0.026-0.04c-0.048-0.078-0.072-0.153 0.017-0.223 0.011-0.009 0.014-0.043 0.007-0.061-0.023-0.072-0.051-0.143-0.073-0.203 0.023-0.061 0.039-0.115 0.064-0.166 0.02-0.045 0.032-0.083-0.004-0.127-0.008-0.011 0.003-0.036 0.006-0.06l-0.063-0.083 0.09-0.023c-0.002-0.016 0-0.034-0.008-0.039-0.025-0.02-0.052-0.035-0.078-0.052 0-0.042-0.008-0.086 0.004-0.124 0.011-0.036 0.042-0.067 0.065-0.102-0.006-0.061-0.018-0.131-0.016-0.2 0.001-0.076 0.017-0.15 0.025-0.226 0-0.01 0-0.023-0.006-0.028-0.028-0.027-0.026-0.054-0.019-0.09 0.011-0.05 0.009-0.101 0.011-0.154l0.018-0.533a0.407 0.407 0 0 0-0.018-0.121c-0.015-0.044-0.023-0.085 0.026-0.123 0.009-0.007 0.01-0.036 0.004-0.048-0.033-0.048-0.023-0.105-0.023-0.155a3.267 3.267 0 0 1 0.005-0.402c0.006-0.059 0.034-0.113-0.006-0.169-0.007-0.009-0.003-0.034 0.003-0.045 0.033-0.056 0.027-0.106-0.006-0.158-0.011-0.018-0.011-0.044-0.012-0.046 0.024-0.032 0.055-0.065 0.052-0.067-0.068-0.077-0.015-0.153 0.004-0.225 0.017-0.067 0.02-0.122-0.032-0.167 0.008-0.069 0.065-0.132 0.005-0.198-0.006-0.007 0.008-0.037 0.019-0.052 0.025-0.033 0.051-0.062 0.016-0.104-0.007-0.008-0.002-0.026-0.002-0.038 0.007-0.109 0.025-0.219 0.018-0.327-0.006-0.097 0.045-0.139 0.117-0.181 0.06-0.037 0.134-0.061 0.156-0.141 0.002-0.01 0.018-0.018 0.03-0.026 0.103-0.072 0.205-0.147 0.308-0.215 0.228-0.153 0.451-0.311 0.697-0.438 0.099-0.051 0.183-0.129 0.276-0.189 0.214-0.139 0.428-0.28 0.648-0.413 0.247-0.15 0.498-0.293 0.749-0.439 0.293-0.171 0.583-0.346 0.879-0.513a106.358 106.358 0 0 1 1.31-0.721c0.293-0.158 0.588-0.311 0.883-0.466 0.234-0.124 0.47-0.248 0.707-0.371 0.201-0.104 0.4-0.212 0.606-0.305 0.304-0.135 0.609-0.267 0.921-0.384 0.295-0.113 0.597-0.207 0.9-0.304 0.255-0.082 0.513-0.151 0.744-0.29 0.242-0.144 0.45-0.321 0.561-0.589a0.758 0.758 0 0 1 0.082-0.139c0.006-0.009 0.029-0.007 0.044-0.01v-0.04c-0.045-0.056-0.045-0.056 0-0.119z m-8.627-3.108a0.46 0.46 0 0 0 0.138 0.08c0.11 0.044 0.234 0.061 0.338 0.015 0.174-0.077 0.338-0.18 0.44-0.361a0.434 0.434 0 0 1 0.048-0.067c0.097-0.113 0.192-0.224 0.228-0.384a0.594 0.594 0 0 0 0.016-0.177c-0.008-0.103-0.071-0.169-0.113-0.245-0.039-0.006-0.079-0.003-0.111-0.016a0.528 0.528 0 0 0-0.334-0.009 1.021 1.021 0 0 0-0.524 0.331c-0.178 0.203-0.286 0.436-0.191 0.722a0.268 0.268 0 0 0 0.065 0.112m-0.609 5.793a0.667 0.667 0 0 0 0.317-0.067 10.537 10.537 0 0 0 0.378-0.185 0.788 0.788 0 0 0 0.287-0.247c0.056-0.079 0.139-0.153 0.136-0.26-0.002-0.037 0.016-0.076 0.019-0.113 0.002-0.028-0.005-0.056-0.009-0.086-0.007-0.037-0.025-0.076-0.023-0.112a20.769 20.769 0 0 1 0.027-0.561c0.003-0.061 0.017-0.122 0.026-0.181l0.084 0.004c-0.019-0.026-0.035-0.043-0.047-0.061a0.904 0.904 0 0 1-0.035-0.073l0.119 0.02c-0.024-0.034-0.03-0.061-0.049-0.068-0.061-0.026-0.062-0.072-0.061-0.119 0.002-0.047-0.01-0.109 0.02-0.138 0.072-0.071 0.077-0.144 0.063-0.229a0.9 0.9 0 0 1-0.012-0.161c0.003-0.11 0.011-0.221 0.016-0.331 0-0.006-0.008-0.011-0.009-0.018-0.002-0.032-0.014-0.065-0.003-0.093a0.192 0.192 0 0 0 0.003-0.124 0.605 0.605 0 0 1-0.005-0.314c0.016-0.063 0.035-0.126 0.048-0.191 0.002-0.009-0.02-0.023-0.033-0.037 0.06-0.083 0.065-0.17 0.073-0.256 0.003-0.045-0.021-0.088 0.012-0.138a0.273 0.273 0 0 0 0.037-0.146c0-0.06 0.015-0.119-0.024-0.182-0.029-0.046-0.069-0.095-0.067-0.158 0.003-0.103-0.057-0.162-0.176-0.169-0.157-0.011-0.313-0.008-0.454 0.066a1.108 1.108 0 0 0-0.623 0.871c-0.006 0.068-0.016 0.136-0.024 0.204-0.045 0.32-0.092 0.639-0.132 0.958-0.044 0.36-0.079 0.719-0.121 1.079-0.029 0.26-0.062 0.522-0.089 0.783-0.017 0.167-0.037 0.335-0.032 0.501 0.006 0.202 0.122 0.32 0.363 0.332m-11.622 1.379a0.37 0.37 0 0 1 0.083-0.318c0.02-0.023 0.038-0.07 0.027-0.09-0.027-0.045 0.016-0.065 0.02-0.098 0.007-0.034-0.032-0.068 0-0.105 0.011-0.014 0.011-0.037 0.013-0.056 0.003-0.043 0-0.087 0.008-0.128l0.138-0.587c0.059-0.251 0.11-0.504 0.176-0.754 0.053-0.206 0.09-0.419 0.187-0.613 0.021-0.042 0.028-0.09 0.052-0.131 0.036-0.063 0.026-0.147 0.091-0.195 0.01-0.008 0.015-0.023 0.018-0.036l0.061-0.232c0.018-0.069 0.032-0.14 0.11-0.172 0.014-0.006 0.025-0.023 0.031-0.038 0.038-0.086 0.079-0.17 0.079-0.267 0-0.036-0.008-0.072-0.003-0.107 0.023-0.142 0.057-0.282 0.068-0.425a0.47 0.47 0 0 1 0.068-0.214c0.074-0.125 0.1-0.265 0.128-0.401 0.023-0.106 0.077-0.189 0.128-0.278 0.02-0.036 0.034-0.061 0.01-0.099a0.098 0.098 0 0 1-0.004-0.105c0.073-0.142 0.107-0.295 0.141-0.45a3.032 3.032 0 0 1 0.068-0.259c0.03-0.099 0.07-0.195 0.103-0.293 0.034-0.097 0.061-0.195 0.093-0.293 0.023-0.07 0.042-0.144 0.08-0.207a0.716 0.716 0 0 0 0.09-0.229 1.184 1.184 0 0 1 0.072-0.218c0.062-0.14 0.131-0.278 0.198-0.417 0.023-0.045 0.051-0.087 0.07-0.132a0.253 0.253 0 0 0 0.024-0.106 0.396 0.396 0 0 1 0.039-0.185c0.095-0.212 0.181-0.427 0.28-0.637 0.169-0.361 0.289-0.746 0.528-1.074 0.055-0.074 0.087-0.165 0.135-0.244a4.836 4.836 0 0 1 0.495-0.638c0.06-0.068 0.131-0.127 0.199-0.191 0.03 0.017 0.053 0.014 0.056-0.017 0.011-0.081 0.071-0.106 0.136-0.13 0.015-0.006 0.034-0.014 0.04-0.026 0.021-0.052 0.071-0.092 0.06-0.157-0.002-0.015 0.006-0.034 0.014-0.045 0.05-0.072 0.104-0.14 0.152-0.212a0.836 0.836 0 0 0 0.15-0.443 1.282 1.282 0 0 0-0.048-0.396 0.889 0.889 0 0 0-0.64-0.644 1.471 1.471 0 0 0-0.278-0.063 1.194 1.194 0 0 0-0.214 0 1.075 1.075 0 0 0-0.555 0.304c-0.147 0.139-0.275 0.291-0.377 0.469a4.145 4.145 0 0 0-0.28 0.593 27.174 27.174 0 0 1-0.164 0.423c-0.042 0.106-0.09 0.21-0.131 0.317-0.113 0.293-0.22 0.586-0.33 0.879-0.105 0.28-0.214 0.559-0.317 0.84-0.068 0.18-0.126 0.363-0.192 0.543L7.434 5.53c-0.023 0.06-0.037 0.125-0.073 0.177-0.054 0.082-0.072 0.172-0.095 0.263-0.029 0.113-0.059 0.229-0.111 0.334-0.087 0.177-0.139 0.363-0.194 0.55-0.037 0.127-0.042 0.267-0.12 0.383-0.012 0.017-0.014 0.045-0.014 0.068-0.002 0.082 0.009 0.168-0.055 0.237-0.003 0.005-0.003 0.014-0.005 0.019l-0.085 0.331-0.149 0.525c-0.045 0.165-0.092 0.33-0.134 0.496-0.02 0.081-0.024 0.166-0.045 0.246-0.03 0.106-0.076 0.209-0.104 0.316-0.101 0.375-0.197 0.753-0.295 1.131-0.014 0.051-0.029 0.101-0.042 0.154a99.659 99.659 0 0 0-0.12 0.489c-0.017 0.072-0.035 0.144-0.049 0.217-0.068 0.336-0.126 0.673-0.2 1.008-0.062 0.282-0.121 0.565-0.161 0.851-0.039 0.266-0.095 0.53-0.142 0.794-0.018 0.096-0.034 0.192-0.047 0.288l-0.061 0.399c-0.048 0.312-0.1 0.623-0.147 0.936-0.029 0.193-0.05 0.387-0.079 0.578-0.008 0.057-0.034 0.113-0.054 0.171-0.036-0.029-0.065-0.045-0.083-0.069a0.154 0.154 0 0 1-0.028-0.078c-0.003-0.07 0-0.14-0.004-0.209 0-0.015-0.011-0.034-0.023-0.039-0.043-0.018-0.037-0.052-0.039-0.086-0.003-0.119 0-0.24-0.04-0.359-0.011-0.035 0-0.079 0.003-0.119 0.003-0.065 0.012-0.132 0.011-0.199 0-0.032-0.007-0.074-0.028-0.092-0.08-0.068-0.083-0.169-0.104-0.255a0.496 0.496 0 0 1 0.032-0.271c0.03-0.079 0.038-0.145 0-0.219a0.45 0.45 0 0 1-0.023-0.055c-0.036-0.105-0.087-0.206-0.081-0.32a0.635 0.635 0 0 0-0.045-0.245c-0.03-0.087-0.071-0.18-0.009-0.267-0.023-0.048-0.068-0.096-0.061-0.138 0.019-0.154-0.064-0.277-0.112-0.41-0.018-0.05-0.036-0.091-0.018-0.126-0.023-0.044-0.051-0.076-0.058-0.11-0.017-0.09-0.016-0.18-0.038-0.27-0.034-0.131-0.038-0.268-0.062-0.403-0.025-0.141-0.085-0.277-0.043-0.425a0.044 0.044 0 0 0-0.003-0.03c-0.028-0.055 0.018-0.135-0.06-0.177-0.007-0.002 0.001-0.03 0-0.045 0-0.026 0.005-0.053-0.006-0.075-0.041-0.096-0.025-0.205-0.074-0.298-0.007-0.014 0-0.034 0-0.05-0.001-0.02 0-0.039-0.005-0.059-0.011-0.045-0.027-0.09-0.034-0.135-0.026-0.158-0.045-0.319-0.072-0.478a117.622 117.622 0 0 0-0.18-1.04 0.958 0.958 0 0 0-0.162-0.389c-0.192-0.271-0.597-0.326-0.871-0.16a0.739 0.739 0 0 0-0.314 0.385c-0.041 0.107-0.068 0.219-0.112 0.325-0.132 0.324-0.196 0.671-0.349 0.987-0.009 0.123-0.064 0.231-0.104 0.345-0.033 0.091-0.046 0.188-0.075 0.282-0.03 0.099-0.071 0.195-0.102 0.296-0.044 0.147-0.108 0.286-0.143 0.438a0.781 0.781 0 0 1-0.131 0.325c-0.028 0.037-0.029 0.095-0.042 0.142-0.017 0.065-0.016 0.144-0.055 0.191-0.06 0.071-0.073 0.154-0.1 0.235-0.014 0.042-0.011 0.087-0.026 0.127-0.065 0.189-0.158 0.367-0.211 0.564-0.061 0.23-0.156 0.451-0.234 0.676a1.398 1.398 0 0 0-0.053 0.184 0.485 0.485 0 0 0 0.323 0.552c0.205 0.071 0.395 0.025 0.572-0.085 0.059-0.036 0.105-0.091 0.158-0.138-0.02-0.074 0.047-0.119 0.065-0.184 0.023-0.082 0.067-0.158 0.095-0.24 0.034-0.094 0.104-0.169 0.117-0.272 0.006-0.045 0.047-0.085 0.073-0.128-0.025-0.018-0.007-0.041 0.005-0.065 0.034-0.076 0.077-0.15 0.098-0.229 0.017-0.062 0.023-0.124 0.049-0.187 0.043-0.096 0.039-0.211 0.1-0.305-0.015-0.095 0.054-0.163 0.09-0.236a0.366 0.366 0 0 0 0.041-0.227c0.036-0.018 0.087-0.026 0.075-0.087 0-0.005 0.02-0.014 0.028-0.022 0.023-0.023 0.05-0.043 0.062-0.071 0.027-0.056 0.045-0.118 0.07-0.176 0.008-0.019 0.037-0.045 0.047-0.042a0.496 0.496 0 0 1 0.124 0.06c0.038 0.027 0.053 0.065 0.031 0.114-0.006 0.011 0.001 0.029 0.003 0.051 0.035-0.009 0.061-0.055 0.094-0.014-0.007 0.032-0.016 0.062-0.02 0.094a1.096 1.096 0 0 0-0.004 0.143c0.002 0.042 0.018 0.082 0.016 0.123a0.134 0.134 0 0 0 0.038 0.108 0.273 0.273 0 0 1 0.064 0.11c0.02 0.088 0.029 0.178 0.044 0.267l0.124 0.796c0.008 0.056 0.015 0.113 0.016 0.169 0.002 0.103-0.02 0.209 0.052 0.301 0.011 0.014 0.007 0.038 0.01 0.059 0.03 0.21 0.06 0.419 0.091 0.628 0.03 0.2 0.063 0.398 0.093 0.597 0.042 0.271 0.081 0.543 0.122 0.814 0.029 0.203 0.059 0.405 0.09 0.607l0.135 0.843c0.019 0.122 0.059 0.241 0.018 0.365-0.008 0.025-0.009 0.052-0.014 0.073 0.108 0.087 0.115 0.121 0.047 0.237 0.054 0 0.071 0.034 0.079 0.078 0.028 0.174 0.046 0.349 0.09 0.522 0.006 0.023 0.009 0.051 0 0.07a0.081 0.081 0 0 0 0.011 0.092 0.133 0.133 0 0 1 0.023 0.057c0.034 0.187 0.068 0.374 0.098 0.561 0.034 0.205 0.061 0.413 0.101 0.615 0.05 0.24 0.116 0.477 0.162 0.717 0.041 0.214 0.282 0.441 0.548 0.406 0.225-0.028 0.482-0.158 0.554-0.433a6.905 6.905 0 0 0 0.117-0.529c0.042-0.23 0.073-0.463 0.106-0.696 0.044-0.305 0.088-0.611 0.127-0.918 0.041-0.312 0.074-0.627 0.114-0.939a96.225 96.225 0 0 1 0.111-0.85c0.015-0.109 0.023-0.222 0.055-0.327 0.029-0.096 0.079-0.184 0.064-0.285 0.11-0.042 0.135-0.09 0.072-0.147-0.045-0.042-0.051-0.082-0.045-0.133l0.012-0.1c0.016-0.116 0.038-0.232 0.041-0.349 0.002-0.076 0.021-0.151 0.069-0.194 0.088-0.079 0.079-0.186 0.113-0.28 0.026-0.073 0.011-0.162 0.016-0.248-0.055-0.016-0.095-0.038-0.087-0.096 0.01-0.073 0.014-0.148 0.028-0.22 0.032-0.157 0.07-0.311 0.104-0.467a0.188 0.188 0 0 0 0-0.089c-0.015-0.05 0.003-0.082 0.036-0.116a0.121 0.121 0 0 0 0.034-0.068 3.076 3.076 0 0 0 0.009-0.276c0-0.048 0.012-0.089 0.028-0.134 0.03-0.092 0.083-0.181 0.054-0.29-0.009-0.03 0.014-0.079 0.037-0.108 0.091-0.11 0.094-0.233 0.063-0.361m2.458-0.751c-0.017-0.073-0.001-0.09 0.073-0.129-0.024-0.043-0.068-0.085-0.06-0.115 0.019-0.076-0.018-0.135-0.038-0.199a0.257 0.257 0 0 0-0.226-0.18 0.537 0.537 0 0 0-0.219 0.016 1.397 1.397 0 0 0-0.376 0.177c-0.194 0.124-0.338 0.28-0.435 0.479a1.991 1.991 0 0 0-0.18 0.641c-0.021 0.171-0.034 0.345-0.049 0.518-0.002 0.016 0 0.033-0.001 0.049-0.005 0.123-0.008 0.246-0.015 0.369a59.644 59.644 0 0 1-0.031 0.568c-0.002 0.044 0.012 0.091-0.034 0.128-0.009 0.007-0.005 0.03-0.003 0.046 0 0.081 0.017 0.165 0 0.241-0.039 0.168-0.034 0.337-0.042 0.505-0.009 0.193-0.024 0.386-0.029 0.578-0.005 0.206-0.011 0.413 0 0.618 0.009 0.183 0.129 0.281 0.324 0.297a0.513 0.513 0 0 0 0.272-0.057 2.48 2.48 0 0 0 0.441-0.285c0.035-0.027 0.051-0.085 0.117-0.061 0.007 0.002 0.03-0.014 0.032-0.022 0.006-0.068 0.068-0.036 0.109-0.05l0.022-0.094-0.094-0.005c0.007-0.037 0.012-0.071 0.021-0.105 0.008-0.034 0.024-0.068 0.029-0.102 0.017-0.097 0.016-0.198 0.05-0.288 0.052-0.133 0.014-0.265 0.024-0.397 0.007-0.094-0.005-0.187 0.005-0.281 0.016-0.156 0.041-0.31 0.063-0.465 0.011-0.077 0.029-0.153 0.042-0.23a2.462 2.462 0 0 0 0.027-0.203c0.005-0.061 0-0.119 0.028-0.18a0.558 0.558 0 0 0 0.046-0.208c0.009-0.143 0.006-0.286 0.007-0.429 0-0.017-0.002-0.036 0.006-0.049 0.062-0.099 0.062-0.212 0.079-0.319a0.894 0.894 0 0 0 0.021-0.203 0.285 0.285 0 0 1 0.034-0.161c0.017-0.028 0.035-0.068 0.025-0.09a0.141 0.141 0 0 1 0.009-0.135c-0.028-0.071-0.059-0.127-0.073-0.188m1.276-1.059a1.449 1.449 0 0 0-0.135 0.533c-0.011 0.175-0.016 0.349-0.024 0.524-0.009 0.169-0.017 0.336-0.028 0.504-0.008 0.105-0.02 0.21-0.03 0.313-0.005 0.054 0.006 0.113-0.013 0.161a0.681 0.681 0 0 0-0.045 0.302l-0.002 0.009c0.005 0.08-0.024 0.159-0.007 0.241 0.007 0.034 0.001 0.073-0.003 0.109-0.008 0.072-0.042 0.151-0.022 0.214 0.036 0.124 0.007 0.245 0.008 0.367 0 0.106-0.039 0.207-0.027 0.318 0.014 0.113 0.005 0.229 0.005 0.342 0 0.092 0.03 0.176 0.075 0.254 0.068 0.121 0.187 0.185 0.303 0.164 0.218-0.041 0.453-0.154 0.643-0.343a0.798 0.798 0 0 0 0.232-0.449 4.137 4.137 0 0 0 0.047-0.554c0.006-0.271 0.019-0.541 0.032-0.811 0.003-0.068 0.029-0.14 0.018-0.206-0.02-0.115 0.01-0.227 0.009-0.341 0-0.055 0.011-0.119 0.06-0.151 0.003-0.062-0.007-0.115 0.011-0.153 0.032-0.068 0.03-0.139 0.049-0.207 0.01-0.037 0.038-0.072 0.039-0.11a0.271 0.271 0 0 1 0.052-0.15c0.116-0.18 0.237-0.358 0.412-0.488a7.51 7.51 0 0 0 0.327-0.257c0.153-0.126 0.308-0.255 0.293-0.486 0-0.016 0.01-0.032 0.009-0.047-0.003-0.041-0.001-0.085-0.016-0.121-0.032-0.076-0.072-0.147-0.109-0.22-0.054-0.107-0.147-0.14-0.258-0.139-0.108 0-0.203 0.046-0.299 0.091-0.063 0.03-0.124 0.063-0.189 0.092-0.061 0.027-0.126 0.044-0.184 0.077a0.868 0.868 0 0 1-0.338 0.108 1.409 1.409 0 0 0-0.513 0.141 0.834 0.834 0 0 0-0.383 0.369"/></svg>