<svg fill="#DA0530" role="img" viewBox="0 0 35 24" xmlns="http://www.w3.org/2000/svg"><title>Virgin Atlantic</title><path d="M20.343 0c-4.41 0-5.453 0.695-7.193 2.668L0.442 16.594c10.154-0.463 13.288 9.749 23.557 6.905L34.558 0H20.343z m-3.521 2.255a0.864 0.864 0 0 1 0.561 0.181c0.29 0.233 0.233 0.581 0.234 0.582-0.057 0.522-0.58 0.869-0.58 0.868-0.465 0.407-1.103 1.567-1.104 1.567-0.697 1.102-1.507 3.25-2.203 5.396-0.928 3.25-1.511 6.266-1.569 6.556-0.057 0.29-0.173 0.638-0.464 0.638-0.407 0-0.463-0.522-0.463-0.58 0-0.058-0.522-6.383-0.522-6.382s-0.06-0.29-0.116-0.29c0 0-0.114-0.057-0.232 0.233l-0.58 1.275c-0.232 0.58-0.638 0.35-0.638 0.35-0.348-0.173-0.117-0.58-0.117-0.58l1.277-3.193c0.291-0.697 0.753-0.64 0.753-0.64 0.405 0.058 0.408 0.465 0.408 0.64 0.057 0.173 0.463 4.876 0.463 4.876 0.057 0.522 0.117 0.347 0.117 0.347C13.034 8.469 15.993 2.901 15.993 2.901c0.28-0.483 0.58-0.633 0.83-0.646z m6.813 3.97c0.179-0.014 0.247 0.1 0.248 0.099 0.175 0.29-0.233 0.638-0.233 0.639-0.348 0.407-0.638 0.117-0.639 0.116-0.29-0.232 0.175-0.64 0.175-0.639 0.196-0.151 0.343-0.208 0.449-0.217z m3.096 0.56c0.034 0 0.053 0.003 0.053 0.003 0.523 0 0.463 0.697 0.463 0.696l-0.174 1.914c-0.115 0.812 0.523 0.526 0.523 0.526 0-0.06 0.173-0.119 0.696-0.351 0.463-0.173 0.697-0.057 0.813 0.116 0.117 0.173 0.057 0.348-0.058 0.522-0.117 0.232-0.638 0.407-1.043 0.522-0.29 0.058-0.526 0.175-0.526 0.174-0.697 0.175-1.507 0.523-1.507 0.524a40.765 40.765 0 0 0-5.047 2.551c-0.06 0.232-0.06 0.405-0.059 0.522 0 0-0.23 3.133-0.289 3.598 0 0-0.003 0.583 0.057 0.929 0.057 0.348 0.291 1.102-0.173 1.392a0.56 0.56 0 0 1-0.813-0.116c0-0.058-0.175-0.232-0.059-1.104 0 0 0.233-2.263 0.292-2.959l0.116-1.624c-3.83 2.378-5.919 4.525-5.919 4.525-0.232 0.233-0.753 0.64-1.103 0.175-0.347-0.463 0.581-1.16 0.581-1.16 2.03-1.741 4.41-3.248 6.499-4.468l0.056-0.522s0.06-0.173-0.114-0.056c0 0-0.697 0.407-1.219 0.173 0 0-0.408-0.175-0.408-0.813 0 0 0.001-1.973 0.814-2.785 0 0 0.462-0.463 0.927-0.463 0.29 0 0.235 0.407-0.114 0.696-0.348 0.348-0.407 0.752-0.521 1.217 0 0-0.293 1.335 0.17 1.277 0 0 0.466 0.001 0.64-0.811 0 0 0.289-1.859 0.347-2.091 0-0.232 0.061-0.753 0.526-0.753 0 0 0.462 0 0.403 0.348 0 0-0.347 2.262-0.521 3.887a48.616 48.616 0 0 1 5.106-2.552c0.117-0.057 0.058-0.057 0.058-0.057-0.348-0.117-0.175-0.873-0.175-0.873l0.175-1.566c0-0.405-0.463-0.175-0.463-0.175-0.348 0.233-0.58 0.64-0.58 0.64-0.175 0.29-0.291 1.623-0.292 1.623-0.058 0.697-0.465 0.813-0.465 0.813-0.463 0.175-0.522-0.117-0.521-0.116-0.057-0.173 0.058-0.81 0.058-0.811l0.23-1.684c0.058-0.755 0.581-0.87 0.582-0.87 0.115-0.057 0.289-0.057 0.463 0 0.173 0.058 0.291 0 0.408 0 0.173 0 0.405-0.233 0.405-0.233 0.348-0.304 0.598-0.347 0.702-0.35z m-3.534 1.275c0.316 0.014 0.163 0.53 0.164 0.586-0.057 0.057-0.35 2.262-0.35 2.261-0.057 0.581-0.58 0.697-0.58 0.697-0.465 0.117-0.347-0.348-0.347-0.348l0.057-0.465 0.407-2.147c0.057-0.463 0.58-0.58 0.58-0.58a0.372 0.372 0 0 1 0.069-0.004z m-7.444 0.753c0.118-0.011 0.233 0.027 0.298 0.18 0 0 0.114 0.232-0.292 0.58 0 0-0.465 0.465-0.697 0.058 0 0-0.172-0.29 0.291-0.64 0 0 0.205-0.156 0.4-0.176z m2.232 1.179c0.205 0.024 0.27 0.219 0.27 0.219 0.175 0.407-0.466 0.697-0.466 0.696-0.58 0.348-0.635 1.103-0.636 1.103l-0.116 1.044c-0.058 0.753-0.58 0.87-0.58 0.87-0.697 0.232-0.407-0.987-0.407-0.987 0.058-0.29 0.232-1.74 0.232-1.74 0.057-0.871 0.58-0.87 0.521-0.928 0.057 0 0.463-0.057 0.464-0.057s0.176-0.06 0.466-0.176a0.488 0.488 0 0 1 0.253-0.044z m-2.843 0.967c0.142 0.001 0.415 0.081 0.328 0.646l-0.35 1.912-0.116 0.697s-0.057 0.348-0.347 0.523c0 0-0.697 0.347-0.64-0.175l0.351-2.786s0.114-0.694 0.694-0.81c0 0 0.034-0.009 0.081-0.007z"/></svg>