<svg fill="#ED1A37" role="img" viewBox="0 0 42 24" xmlns="http://www.w3.org/2000/svg"><title>Virgin Media</title><path d="M9.351 0c-1.888 0-3.554 0.595-4.957 1.761C2.801 3.081 0.367 6.214 0.367 12c0 5.788 2.435 8.919 4.027 10.239 1.403 1.166 3.069 1.761 4.957 1.761 2.801 0 5.552-1.29 7.344-2.409 4.863-3.042 8.738-8.843 8.738-8.843 1.879 2.583 3.578 4.288 5.5 5.519 1.181 0.72 2.963 1.572 4.792 1.572 1.247 0 2.357-0.378 3.274-1.164C40.751 17.172 41.633 14.851 41.633 12s-0.882-5.172-2.634-6.675c-0.915-0.786-2.029-1.164-3.274-1.164-1.829 0-3.611 0.851-4.792 1.572-1.922 1.231-3.621 2.937-5.502 5.519 0 0-3.874-5.801-8.735-8.843-1.793-1.119-4.544-2.409-7.345-2.409Zm0 0.882c2.596 0 5.177 1.241 6.878 2.277 2.906 1.864 5.588 4.551 8.659 8.841-3.069 4.288-5.753 6.976-8.661 8.841-1.699 1.035-4.281 2.275-6.876 2.275-1.675 0-3.152-0.524-4.392-1.554C2.232 19.296 1.25 15.294 1.25 12s0.982-7.296 3.709-9.562c1.24-1.032 2.717-1.556 4.392-1.556z m26.376 4.161c1.032 0 1.943 0.323 2.708 0.96 1.707 1.424 2.316 3.908 2.316 5.997 0 2.089-0.609 4.574-2.316 5.997-0.763 0.636-1.675 0.958-2.71 0.958-1.625 0-3.248-0.781-4.324-1.436-1.835-1.178-3.456-2.803-5.423-5.519 1.967-2.718 3.588-4.343 5.423-5.519 1.076-0.655 2.7-1.437 4.324-1.438z m-30.262 6.027l-0.017 0.022 0.017-0.017v-0.005z"/></svg>