<svg fill="#1A1F71" role="img" viewBox="0 0 75 24" xmlns="http://www.w3.org/2000/svg"><title>Visa</title><path d="M28.558 0.427L18.829 23.638H12.481L7.694 5.112c-0.291-1.139-0.542-1.557-1.427-2.037C4.824 2.291 2.44 1.557 0.344 1.099l0.142-0.672h10.218a2.799 2.799 0 0 1 2.768 2.366l2.53 13.432 6.248-15.798z m24.873 15.634c0.025-6.128-8.472-6.465-8.413-9.203 0.019-0.833 0.811-1.718 2.545-1.944a11.333 11.333 0 0 1 5.924 1.04l1.052-4.923a16.123 16.123 0 0 0-5.616-1.031c-5.936 0-10.113 3.158-10.15 7.676-0.037 3.341 2.982 5.202 5.257 6.317 2.341 1.136 3.127 1.867 3.115 2.882-0.015 1.561-1.864 2.245-3.592 2.273-3.019 0.046-4.768-0.814-6.168-1.465l-1.086 5.085c1.403 0.644 3.991 1.208 6.675 1.232 6.307 0 10.435-3.115 10.457-7.939m15.671 7.577H74.656l-4.845-23.211h-5.128a2.734 2.734 0 0 0-2.558 1.703l-9.007 21.508h6.304l1.254-3.468h7.704z m-6.698-8.224l3.158-8.717 1.821 8.717z m-25.266-14.987l-4.964 23.211H26.167l4.97-23.211z"/></svg>