<svg fill="#5C73E7" role="img" viewBox="0 0 20 24" xmlns="http://www.w3.org/2000/svg"><title>VitePress</title><path d="M15.029 0.001a1.838 1.838 0 0 0-0.187 0.018L2.085 1.833C1.078 1.977 0.377 2.92 0.518 3.939l2.56 18.457c0.141 1.019 1.073 1.729 2.08 1.586l12.757-1.817c1.007-0.143 1.708-1.086 1.567-2.105L16.922 1.605C16.789 0.649 15.961-0.035 15.029 0.001Zm0.127 0.932c0.427 0.027 0.791 0.355 0.853 0.801l2.561 18.457c0.071 0.51-0.28 0.981-0.783 1.053L5.03 23.058c-0.503 0.072-0.968-0.283-1.039-0.793L1.43 3.81c-0.071-0.51 0.28-0.981 0.783-1.053L14.97 0.941A0.907 0.907 0 0 1 15.156 0.933z m-3.644 5.354L7.967 7.521a0.136 0.136 0 0 0-0.09 0.141l0.318 3.869c0.007 0.091 0.099 0.15 0.184 0.117l0.982-0.379c0.092-0.035 0.189 0.037 0.184 0.137l-0.09 1.539c-0.006 0.104 0.101 0.176 0.193 0.133l0.6-0.281c0.093-0.043 0.198 0.031 0.192 0.135l-0.147 2.418c-0.009 0.151 0.195 0.204 0.258 0.066l0.041-0.092 2.123-6.424c0.035-0.108-0.066-0.21-0.172-0.173l-1.018 0.351c-0.096 0.033-0.192-0.049-0.177-0.15l0.343-2.491a0.137 0.137 0 0 0-0.142-0.156c-0.016-0.001-0.042 0.008-0.037 0.006z m2.822 0.799a0.272 0.272 0 0 0-0.08 0.014L12 7.85l-0.076 0.56 0.455-0.156c0.507-0.163 0.973 0.295 0.811 0.803l-2.131 6.449-0.053 0.117c-0.127 0.278-0.442 0.43-0.738 0.352-0.29-0.077-0.491-0.353-0.473-0.657l0.109-1.808c-0.506 0.258-0.973-0.147-0.947-0.594l0.057-0.977-0.453 0.176c-0.414 0.154-0.83-0.137-0.864-0.543L7.453 8.6l-3.062-0.123c-0.229-0.009-0.363 0.255-0.223 0.439l6.291 8.231c0.129 0.169 0.391 0.13 0.467-0.069l3.668-9.619c0.072-0.189-0.076-0.377-0.26-0.373z"/></svg>