<svg fill="#6E9F18" role="img" viewBox="0 0 27 24" xmlns="http://www.w3.org/2000/svg"><title>Vitest</title><path d="M15.408 0a0.543 0.543 0 0 0-0.172 0.028 0.541 0.541 0 0 0-0.275 0.205L8.671 9.327a0.537 0.537 0 0 0-0.091 0.245 0.535 0.535 0 0 0 0.034 0.259 0.536 0.536 0 0 0 0.154 0.212 0.54 0.54 0 0 0 0.235 0.114l4.064 0.862-0.252 5.021a0.535 0.535 0 0 0 0.093 0.329 0.539 0.539 0 0 0 0.273 0.206c0.111 0.037 0.232 0.038 0.344 0.001a0.541 0.541 0 0 0 0.274-0.205l6.29-9.094a0.535 0.535 0 0 0 0.092-0.245c0.01-0.088-0.002-0.177-0.035-0.259a0.535 0.535 0 0 0-0.153-0.212 0.541 0.541 0 0 0-0.236-0.115l-4.063-0.861 0.251-5.021a0.535 0.535 0 0 0-0.092-0.329 0.539 0.539 0 0 0-0.274-0.207 0.542 0.542 0 0 0-0.171-0.028zM1.614 9.575c-0.336 0.001-0.658 0.136-0.895 0.373a1.273 1.273 0 0 0-0.373 0.895 1.274 1.274 0 0 0 0.366 0.899l11.885 11.885a1.269 1.269 0 0 0 0.413 0.276 1.27 1.27 0 0 0 0.487 0.097c0.001 0 0.002 0 0.003 0 0.001 0 0.002 0 0.002 0a1.27 1.27 0 0 0 0.488-0.097 1.269 1.269 0 0 0 0.413-0.276l11.885-11.885a1.275 1.275 0 0 0 0.366-0.899c-0.001-0.336-0.136-0.657-0.373-0.895a1.273 1.273 0 0 0-0.895-0.373 1.273 1.273 0 0 0-0.898 0.366l-5.921 5.92c-0.009 0.008-0.019 0.014-0.027 0.022L13.5 20.923l-5.04-5.04c-0.008-0.008-0.018-0.014-0.027-0.021l-5.921-5.921a1.274 1.274 0 0 0-0.898-0.366Z"/></svg>