<svg fill="#1F263A" role="img" viewBox="0 0 34 24" xmlns="http://www.w3.org/2000/svg"><title>Viva Wallet</title><path d="M10.441 19.534c0.522 1.079 1.317 1.698 2.182 1.705h0.014c0.859 0 1.653-0.604 2.186-1.658l0.7-1.499-6.802-14.419-4.703 2.194z m8.838 0.046c0.53 1.055 1.328 1.659 2.187 1.659h0.008c0.868-0.006 1.666-0.625 2.185-1.702l6.34-13.676-4.705-2.195-6.724 14.411z m-2.228 1.674c-1.027 1.728-2.644 2.744-4.414 2.745h-0.031c-1.931-0.014-3.669-1.235-4.654-3.27C5.419 15.327 2.88 9.927 0.342 4.527l9.703-4.524 6.995 14.83 6.92-14.833L33.658 4.521 26.151 20.731c-0.984 2.034-2.724 3.255-4.655 3.269h-0.03c-1.77 0-3.39-1.016-4.415-2.744Z"/></svg>