<svg fill="#212721" role="img" viewBox="0 0 29 24" xmlns="http://www.w3.org/2000/svg"><title>Vivint</title><path d="M11.009 0.001a0.976 0.976 0 0 0-0.666 0.263L0.663 9.297A1.952 1.952 0 0 0 0.044 10.722V23.023c0 0.539 0.436 0.976 0.974 0.976h19.979a0.976 0.976 0 0 0 0.973-0.976V10.723a1.952 1.952 0 0 0-0.619-1.426l-9.68-9.036a0.969 0.969 0 0 0-0.662-0.261z m0 5.98l6.327 5.908v7.473H4.679v-7.473l6.33-5.908zM26.123 18.445a2.777 2.777 0 0 0-2.723 2.776 2.777 2.777 0 0 0 2.78 2.779A2.777 2.777 0 0 0 28.956 21.221a2.777 2.777 0 0 0-2.776-2.776 2.777 2.777 0 0 0-0.057 0z"/></svg>