<svg fill="#415FFF" role="img" viewBox="0 0 92 24" xmlns="http://www.w3.org/2000/svg"><title>vivo</title><path d="M74.992 20.012c-4.419 0-4.812-3.622-4.811-4.728 0-1.106 0.393-4.735 4.811-4.735h7.862c4.423 0 4.815 3.626 4.815 4.735 0 1.106-0.397 4.728-4.815 4.728m-7.862-13.447c-8.167 0-8.895 6.68-8.895 8.719 0 2.04 0.724 8.716 8.895 8.716h7.862c8.171 0 8.899-6.676 8.899-8.716 0-2.04-0.724-8.72-8.899-8.719m-20.882 0.407c-1.09 0-1.315 0.191-1.739 0.813-0.419 0.625-7.709 11.751-7.709 11.75-0.229 0.343-0.48 0.48-0.786 0.481-0.305 0-0.553-0.137-0.785-0.481 0 0-7.29-11.125-7.709-11.75-0.419-0.625-0.648-0.812-1.739-0.813h-2.547c-0.587 0-0.854 0.458-0.484 1.018l8.704 13.219c1.35 1.986 2.341 2.791 4.56 2.791s3.21-0.801 4.56-2.791l8.709-13.219c0.366-0.557 0.099-1.018-0.488-1.018m-33.842 1.083c0-0.774 0.305-1.083 1.079-1.083h1.926c0.774 0 1.079 0.305 1.079 1.079v14.87c0 0.77-0.305 1.079-1.079 1.079h-1.926c-0.774 0-1.079-0.305-1.079-1.079z m-6.745-1.086c-1.094 0-1.319 0.191-1.738 0.812-0.419 0.625-7.709 11.751-7.709 11.751-0.233 0.343-0.48 0.48-0.786 0.48-0.305 0-0.553-0.137-0.785-0.48 0 0-7.29-11.125-7.713-11.751-0.419-0.625-0.644-0.812-1.735-0.812H0.915c-0.652 0-0.854 0.458-0.484 1.018l8.704 13.218c1.354 1.986 2.345 2.791 4.564 2.791 2.219 0 3.21-0.801 4.56-2.791l8.705-13.218c0.37-0.557 0.168-1.018-0.485-1.018m4.023-3.405c-0.629-0.625-0.629-1.125 0-1.754l1.338-1.338c0.629-0.629 1.129-0.629 1.754 0l1.342 1.338c0.629 0.629 0.629 1.129 0 1.754l-1.342 1.342c-0.625 0.629-1.125 0.629-1.754 0z"/></svg>