<svg fill="#FF8800" role="img" viewBox="0 0 22 24" xmlns="http://www.w3.org/2000/svg"><title>VLC media player</title><path d="M11.032 0c-0.882 0-1.054 0.136-1.055 0.136-0.174 0.056-0.356 0.255-0.41 0.43L8.683 3.381c0.473 0.173 1.322 0.427 2.234 0.426 1.099 0 2.017-0.349 2.376-0.507L12.435 0.566c-0.055-0.175-0.237-0.371-0.407-0.437 0 0-0.114-0.129-0.996-0.129z m3.564 7.455c-0.36 0.34-1.328 0.937-3.679 0.937-2.293 0-3.189-0.568-3.522-0.911l-1.388 4.423c0.227 0.361 1.254 1.559 4.884 1.559 3.757 0 4.854-1.347 5.065-1.674z m-8.589 4.449l-1.003 3.192H3.343c-0.249 0-0.51 0.193-0.583 0.431l-2.334 7.632a0.396 0.396 0 0 0-0.017 0.154c-0.001 0.005-0.002 0.01-0.002 0.016 0 0.084 0.023 0.226 0.024 0.226 0.032 0.246 0.261 0.445 0.509 0.445h20.12c0.249 0 0.477-0.199 0.509-0.445 0 0 0.023-0.142 0.024-0.226a0.025 0.025 0 0 0-0.003-0.01 0.32 0.32 0 0 0 0.003-0.032 0.41 0.41 0 0 0-0.019-0.128l-2.334-7.632c-0.073-0.238-0.334-0.431-0.583-0.431h-1.663l0.2 0.639c-0.241 0.485-1.489 2.38-6.303 2.38-4.6 0-5.829-1.73-6.11-2.307z"/></svg>