<svg fill="#607078" role="img" viewBox="0 0 152 24" xmlns="http://www.w3.org/2000/svg"><title>VMware</title><path d="M3.35 0.002a3.19 3.19 0 0 0-1.244 0.304 3.14 3.14 0 0 0-1.579 4.295l7.189 15.636c1.131 2.401 2.401 3.74 4.554 3.739 2.16 0 3.424-1.39 4.549-3.739l6.336-13.81a0.91 0.91 0 0 1 0.91-0.581 1.011 1.011 0 0 1 0.992 1.011v13.38a3.38 3.38 0 1 0 6.734 0v-10.929a3.354 3.354 0 0 1 3.575-3.487 3.285 3.285 0 0 1 3.418 3.48v10.929a3.354 3.354 0 0 0 3.348 3.746 3.405 3.405 0 0 0 3.38-3.739v-10.929a3.354 3.354 0 0 1 3.563-3.487 3.285 3.285 0 0 1 3.43 3.48v10.929a3.354 3.354 0 0 0 3.335 3.746 3.38 3.38 0 0 0 3.38-3.739v-12.439a7.795 7.795 0 0 0-8.105-7.77 10.405 10.405 0 0 0-7.201 3.07 7.96 7.96 0 0 0-6.918-3.051 11.415 11.415 0 0 0-6.785 3.051 8.13 8.13 0 0 0-6.07-3.051 7.435 7.435 0 0 0-7.316 4.965l-4.605 10.84-5.894-13.917 0.069-0.025A3.19 3.19 0 0 0 3.35 0.002z m116.427 0.379a1.706 1.706 0 0 0-1.68 1.731h0.013v19.849a1.706 1.706 0 1 0 3.379 0v-7.72c0-6.551 3.607-9.855 8.023-10.379a1.68 1.68 0 0 0 1.504-1.731 1.63 1.63 0 0 0-1.681-1.699 9.255 9.255 0 0 0-7.846 5.559v-3.879a1.68 1.68 0 0 0-1.712-1.731z m-42.546 0.051a1.725 1.725 0 0 0-1.58 1.371l-5.761 16.595-5.698-16.551a1.769 1.769 0 0 0-1.731-1.39 1.68 1.68 0 0 0-1.706 1.63 3.114 3.114 0 0 0 0.215 0.91l6.886 19.185 0.126-0.044a2.015 2.015 0 0 0 1.883 1.529 1.895 1.895 0 0 0 1.851-1.529l5.704-16.317 5.66 16.317a1.895 1.895 0 0 0 1.851 1.529h0.114a2.015 2.015 0 0 0 1.851-1.529l6.93-19.192a3.234 3.234 0 0 0 0.209-0.909 1.63 1.63 0 0 0-1.674-1.58 1.655 1.655 0 0 0-1.63 1.321l-5.8 16.614-5.71-16.589a1.8 1.8 0 0 0-1.757-1.371h-0.157a1.725 1.725 0 0 0-0.076 0z m64.233 0.05a11.055 11.055 0 0 0-10.682 11.694 11.15 11.15 0 0 0 11.118 11.737l-0.05 0.082a11.27 11.27 0 0 0 8.402-3.405 1.44 1.44 0 0 0 0.518-1.074 1.44 1.44 0 0 0-2.394-1.061 9.065 9.065 0 0 1-6.431 2.622 7.814 7.814 0 0 1-7.834-7.625h16.141a1.56 1.56 0 0 0 1.554-1.561c0-5.97-3.746-11.409-10.342-11.409z m-36.286 0.013a9.924 9.924 0 0 0-0.998 0.038 15.06 15.06 0 0 0-6.81 1.295 1.39 1.39 0 0 0-0.903 1.402 1.516 1.516 0 0 0 1.484 1.447 1.68 1.68 0 0 0 0.6-0.151 11.51 11.51 0 0 1 5.269-1.024c4.365 0 6.759 2.11 6.759 6.185v0.789a23.98 23.98 0 0 0-6.967-0.947c-5.635 0-9.602 2.527-9.603 7.328l-0.019-0.025c0 4.649 4.239 7.056 8.465 7.056a9.95 9.95 0 0 0 8.2-3.917v2.167a1.56 1.56 0 0 0 1.605 1.579 1.605 1.605 0 0 0 1.63-1.655v-12.527a8.945 8.945 0 0 0-2.395-6.608 9.924 9.924 0 0 0-6.317-2.432z m36.129 2.717c4.511 0 6.854 3.569 7.195 7.669h-14.391a7.72 7.72 0 0 1 7.196-7.676z m-37.177 8.73a23.69 23.69 0 0 1 6.677 0.967V15.101c0 3.601-3.405 6.147-7.581 6.146-3.064 0-5.711-1.649-5.711-4.504 0-2.95 2.369-4.801 6.615-4.801Z"/></svg>