<svg fill="#DA074A" role="img" viewBox="0 0 76 24" xmlns="http://www.w3.org/2000/svg"><title>VOX</title><path d="M0.125 0l13.2 24h7.707L25.849 15.377a13.496 13.496 0 0 1 6.482-15.377H22.572l-5.293 10.15-5.384-10.15z m45.267 0a13.382 13.382 0 0 1 6.069 6.963c2.474 6.568-0.309 13.935-6.77 17.037h8.734l4.936-5.536 4.482 5.536H75.875l-11.063-12.726 9.747-11.274H61.388l-3.005 3.942-2.938-3.942z m-6.597 5.037c-2.995 0-6.038 2.178-6.546 5.603a6.729 6.729 0 0 0 6.515 7.837c4.002 0.032 6.918-3.554 6.805-6.881-0.041-3.204-2.768-6.565-6.774-6.559z"/></svg>