<svg fill="#2F80ED" role="img" viewBox="0 0 25 24" xmlns="http://www.w3.org/2000/svg"><title>VSCodium</title><path d="M12.072 0.24a1.505 1.505 0 0 0-0.452 2.086c2.49 3.856 3.078 6.765 2.822 9.312-1.03 4.881-3.271 5.871-5.228 5.871-1.912 0-1.4-3.145 0.037-4.066 0.858-0.536 1.956-0.884 2.8-0.883 0.835 0 1.513-0.675 1.512-1.509 0-0.833-0.677-1.509-1.512-1.508-0.985 0-1.951 0.207-2.853 0.559 0.185-0.869 0.252-1.808 0.014-2.807-0.361-1.516-1.403-2.965-3.21-4.368a1.515 1.515 0 0 0-2.123 0.263c-0.513 0.657-0.394 1.605 0.266 2.117 1.473 1.143 1.958 1.99 2.124 2.686 0.166 0.697 0.033 1.444-0.301 2.471-0.427 1.384-0.924 2.62-1.139 3.806-0.108 0.583-0.117 1.218-0.144 1.724-1.061-1.032-1.476-2.397-1.475-4.392 0-0.832-0.677-1.509-1.513-1.508-0.835 0.001-1.512 0.676-1.511 1.508 0 2.724 0.796 5.315 2.929 7.043 1.932 1.84 6.845 1.16 6.845 4.115 0 0.833 1.221 1.24 2.057 1.24 0.856 0 1.934-0.573 1.934-1.24 0-3.353 3.533-5.391 9.349-5.381A1.511 1.511 0 0 0 24.814 15.872 1.511 1.511 0 0 0 23.306 14.361c-0.398 0-0.785 0.013-1.168 0.036 0.651-1.529 0.939-3.212 0.88-5.032a1.512 1.512 0 0 0-1.562-1.457 1.511 1.511 0 0 0-1.463 1.557c0.078 2.381-0.01 4.508-1.785 5.629-0.503 0.318-1.09 0.595-1.646 0.595 0.431-1.175 0.757-2.415 0.891-3.751 0.085-0.852 0.093-1.866-0.003-2.653-0.152-1.219-0.334-2.601 0.13-3.643 0.416-0.897 1.347-1.272 2.714-1.272 0.835 0 1.512-0.676 1.512-1.509 0-0.832-0.676-1.509-1.512-1.508-2.032 0-3.572 1.069-4.445 2.36-0.457-0.975-1.013-1.98-1.686-3.02a1.513 1.513 0 0 0-2.09-0.452z"/></svg>