<svg fill="#ED125F" role="img" viewBox="0 0 29 24" xmlns="http://www.w3.org/2000/svg"><title>VTEX</title><path d="M26.494 0H5.426c-1.634 0-2.68 1.728-1.916 3.164l2.108 3.971H1.797a1.411 1.411 0 0 0-0.69 0.18 1.402 1.402 0 0 0-0.512 0.495 1.393 1.393 0 0 0-0.041 1.374l6.779 12.764c0.12 0.225 0.298 0.412 0.517 0.544a1.41 1.41 0 0 0 1.449 0 1.4 1.4 0 0 0 0.517-0.544l1.841-3.448 2.31 4.351c0.813 1.53 3.015 1.533 3.831 0.004L28.358 3.084c0.747-1.398-0.272-3.084-1.864-3.084ZM17.03 8.447l-4.553 8.527a0.932 0.932 0 0 1-0.344 0.362 0.939 0.939 0 0 1-0.964 0 0.933 0.933 0 0 1-0.344-0.362L6.315 8.483a0.927 0.927 0 0 1 0.025-0.914 0.933 0.933 0 0 1 0.339-0.33 0.939 0.939 0 0 1 0.46-0.122h9.088a0.913 0.913 0 0 1 0.448 0.118 0.907 0.907 0 0 1 0.332 0.321 0.902 0.902 0 0 1 0.023 0.891z"/></svg>