<svg fill="#A41E22" role="img" viewBox="0 0 85 24" xmlns="http://www.w3.org/2000/svg"><title>Vulkan</title><path d="M50.707 23.692h-3.28v-10.483c1.048 0.585 2.432 1.661 3.28 2.695z m-27.678 0h-4.09L13.6 7.198h3.719l3.673 11.598h0.046l3.718-11.598h3.744z m16.473 0h-3.119v-1.661h-0.07a3.684 3.684 0 0 1-1.62 1.503 4.767 4.767 0 0 1-2.032 0.463 5.713 5.713 0 0 1-2.159-0.347 3.119 3.119 0 0 1-1.329-0.981 3.89 3.89 0 0 1-0.683-1.55 9.701 9.701 0 0 1-0.197-2.022v-7.346h3.281v6.747c0 0.985 0.154 1.721 0.462 2.204 0.308 0.487 0.855 0.729 1.641 0.729 0.894 0 1.539-0.266 1.941-0.795 0.4-0.533 0.599-1.405 0.6-2.622V11.755h3.28z m11.748-7.185l-0.007-0.463 4.136-4.296h3.883l-4.503 4.388 5.012 7.552h-3.975z m9.12-1.086c0.046-0.771 0.238-1.409 0.578-1.918a3.96 3.96 0 0 1 1.294-1.223 5.608 5.608 0 0 1 1.766-0.659 10.164 10.164 0 0 1 1.977-0.196c0.599 0 1.209 0.042 1.826 0.126 0.617 0.084 1.178 0.252 1.686 0.498 0.508 0.245 0.925 0.589 1.247 1.027 0.322 0.438 0.484 1.02 0.484 1.745v6.214c0 0.54 0.032 1.055 0.091 1.549a2.8 2.8 0 0 0 0.323 1.108h-3.326a4.626 4.626 0 0 1-0.232-1.153 4.234 4.234 0 0 1-1.85 1.132 7.483 7.483 0 0 1-2.173 0.322c-0.571 0-1.101-0.07-1.595-0.206a3.568 3.568 0 0 1-1.293-0.649 3 3 0 0 1-0.866-1.107 3.761 3.761 0 0 1-0.312-1.595c0-0.676 0.119-1.237 0.358-1.675a3 3 0 0 1 0.925-1.052c0.379-0.263 0.81-0.459 1.293-0.589 0.484-0.13 0.974-0.235 1.465-0.311a28.004 28.004 0 0 1 1.455-0.186c0.477-0.046 0.901-0.116 1.268-0.207a2.233 2.233 0 0 0 0.88-0.407c0.217-0.179 0.315-0.435 0.302-0.774a1.752 1.752 0 0 0-0.176-0.845 1.279 1.279 0 0 0-0.462-0.483 1.826 1.826 0 0 0-0.67-0.232 5.467 5.467 0 0 0-0.82-0.059c-0.648 0-1.157 0.137-1.524 0.417-0.368 0.277-0.585 0.74-0.649 1.388z m7.578 2.428a1.454 1.454 0 0 1-0.519 0.288c-0.207 0.07-0.431 0.126-0.669 0.175a11.251 11.251 0 0 1-0.75 0.116c-0.263 0.032-0.522 0.07-0.785 0.115-0.245 0.046-0.491 0.109-0.729 0.186a2.166 2.166 0 0 0-0.624 0.312 1.472 1.472 0 0 0-0.428 0.498 1.595 1.595 0 0 0-0.161 0.764c0 0.294 0.053 0.54 0.161 0.739a1.269 1.269 0 0 0 0.438 0.473 1.833 1.833 0 0 0 0.649 0.242c0.245 0.046 0.501 0.07 0.764 0.07 0.648 0 1.15-0.109 1.503-0.322a2.159 2.159 0 0 0 0.785-0.775 2.495 2.495 0 0 0 0.312-0.911c0.039-0.308 0.056-0.554 0.06-0.739z m5.404-6.101h3.12v1.661h0.07c0.417-0.694 0.953-1.199 1.615-1.514 0.662-0.315 1.339-0.473 2.033-0.473 0.88 0 1.598 0.119 2.163 0.357 0.561 0.238 1.002 0.571 1.328 0.992 0.322 0.424 0.551 0.939 0.68 1.546 0.13 0.617 0.196 1.29 0.196 2.029v7.346h-3.28v-6.747c0-0.985-0.154-1.721-0.463-2.204-0.308-0.484-0.855-0.729-1.64-0.729-0.894 0-1.539 0.266-1.942 0.795-0.4 0.529-0.599 1.405-0.599 2.622v6.259h-3.281z m-31.677-2.058v14.005h3.28v-12.196a40.576 40.576 0 0 0-3.28-1.809z m-33.465 0.596c1.9-5.573 13.27-7.613 25.397-4.564 7.272 1.83 13.217 5.376 17.1 8.885-1.763-4.651-10.304-11.285-22.063-13.556-13.298-2.573-26.413-0.312-28.036 5.59-1.171 4.262 3.974 9.256 11.937 12.67-3.578-2.898-5.32-6.151-4.335-9.025z m42.501 2.296v-5.384h-3.281v1.633c1.398 1.251 2.509 2.523 3.281 3.75z"/></svg>