<svg fill="#007BFC" role="img" viewBox="0 0 28 24" xmlns="http://www.w3.org/2000/svg"><title>Vultr</title><path d="M9.8 0.66A1.378 1.378 0 0 0 8.632 0H1.538A1.385 1.385 0 0 0 0.153 1.385a1.397 1.397 0 0 0 0.21 0.738l13.385 21.232a1.392 1.392 0 0 0 2.349 0l3.548-5.624a1.418 1.418 0 0 0 0.21-0.738 1.397 1.397 0 0 0-0.21-0.741z m11.942 10.016a1.392 1.392 0 0 0 2.348 0L25.308 8.744l2.328-3.692a1.397 1.397 0 0 0 0.211-0.739 1.418 1.418 0 0 0-0.211-0.738l-1.846-2.915a1.392 1.392 0 0 0-1.173-0.659h-7.094a1.385 1.385 0 0 0-1.386 1.385 1.319 1.319 0 0 0 0.217 0.738z"/></svg>