<svg fill="#D95E26" role="img" viewBox="0 0 66 24" xmlns="http://www.w3.org/2000/svg"><title>Vyond</title><path d="M4.396 23.995L0.153 0h3.635l2.54 16.916 2.552-16.916h3.635l-4.243 23.995H4.396z m15.016-20.831H16.637l3.191 10.336v7.336h2.53v-7.336L25.555 3.164H22.768L21.093 10.221l-1.681-7.062v0.005z m14.015 5.256c0-0.887-0.35-1.319-1.018-1.32s-1.013 0.438-1.013 1.32v7.16c0 0.887 0.345 1.347 1.013 1.347s1.018-0.454 1.018-1.347v-7.16z m-0.942-3.438c1.889 0 3.131 1.281 3.132 3.454v6.898c0 2.387-1.182 3.684-3.208 3.684s-3.181-1.281-3.181-3.766v-6.898c0-2.097 1.204-3.394 3.257-3.394m13.774-1.796v11.497l-3.679-11.497h-2.452v17.672h2.529v-10.796l3.602 10.796h2.562V3.164h-2.562z m13.878 17.3c1.391 0 1.932-0.881 1.932-2.519v-11.551c0-1.971-0.92-2.858-2.956-2.858h-0.848v16.928h1.872zM54.597 0h5.266c4.117 0 5.984 2.146 5.984 6.591v10.708c0 4.593-1.697 6.701-5.809 6.701H54.597V0z"/></svg>