<svg fill="#04AA6D" role="img" viewBox="0 0 26 24" xmlns="http://www.w3.org/2000/svg"><title>W3Schools</title><path d="M21.748 5.051s0.643 0.689 1.541 0.689c0.708 0 1.224-0.428 1.224-1.015 0-0.72-0.658-1.051-1.454-1.052h-0.469l-0.281-0.632 1.244-1.475c0.266-0.317 0.491-0.516 0.491-0.516s-0.2 0.011-0.603 0.011h-2.025V0h4.148v0.776L23.901 2.697c0.939 0.133 1.857 0.802 1.857 1.98 0 1.159-0.877 2.231-2.392 2.23-1.445 0-2.245-0.909-2.246-0.909l0.628-0.948z m-8.092 1.433l5.48 9.756 2.703-4.822-5.173-9.209H10.645L8.15 6.652 5.656 2.208H0.242l7.878 14.031 0.03-0.051 0.032 0.051 5.474-9.756zM0.298 22.853h0.801c0 0.234 0.204 0.458 0.567 0.458 0.337 0 0.561-0.168 0.561-0.393 0-0.192-0.149-0.28-0.404-0.336l-0.458-0.117c-0.776-0.204-0.975-0.617-0.975-1.057 0-0.536 0.532-1.025 1.281-1.025 0.612 0 1.306 0.312 1.296 1.076H2.156c0-0.234-0.215-0.383-0.46-0.383-0.266 0-0.45 0.153-0.449 0.368 0 0.179 0.169 0.281 0.368 0.326l0.55 0.149c0.776 0.198 0.914 0.683 0.915 1 0 0.698-0.7 1.081-1.399 1.081-0.678 0-1.367-0.413-1.383-1.148z m3.49-0.664c0-1.092 0.878-1.807 1.873-1.807 0.596 0 1.081 0.266 1.398 0.664l-0.603 0.479a1.021 1.021 0 0 0-0.78-0.347c-0.596 0-1.026 0.43-1.026 1.01 0 0.577 0.43 1.016 1.026 1.017a1.021 1.021 0 0 0 0.78-0.348l0.603 0.479a1.751 1.751 0 0 1-1.398 0.664c-0.995 0-1.873-0.719-1.873-1.811z m7.393-0.209V23.907h-0.857v-1.867c0-0.552-0.332-0.847-0.714-0.847-0.393 0-0.877 0.23-0.878 0.898v1.822h-0.858v-5.316h0.863v2.392c0.169-0.419 0.725-0.612 1.066-0.612 0.888 0.005 1.378 0.602 1.378 1.602z m0.898 0.209c0-1.092 0.846-1.807 1.827-1.807 0.979 0 1.836 0.716 1.836 1.807s-0.857 1.811-1.836 1.811c-0.98 0-1.827-0.719-1.827-1.811z m2.801 0c0-0.592-0.443-1.01-0.974-1.01-0.532 0-0.964 0.418-0.964 1.01 0 0.602 0.434 1.015 0.964 1.016 0.531 0 0.974-0.415 0.974-1.016z m1.592 0c0-1.092 0.846-1.807 1.827-1.807 0.979 0 1.836 0.716 1.836 1.807s-0.857 1.811-1.836 1.811c-0.975 0-1.827-0.719-1.827-1.811z m2.801 0c0-0.592-0.443-1.01-0.974-1.01-0.532 0-0.964 0.418-0.964 1.01 0 0.602 0.434 1.015 0.964 1.016 0.536 0 0.974-0.415 0.974-1.016z m1.811 1.725v-5.316h0.857v5.316h-0.857z m1.792-1.061h0.8c0 0.234 0.204 0.458 0.567 0.458 0.336 0 0.561-0.168 0.561-0.393 0-0.192-0.149-0.28-0.404-0.336l-0.458-0.117c-0.776-0.204-0.975-0.617-0.975-1.057 0-0.536 0.531-1.025 1.281-1.025 0.611 0 1.306 0.312 1.296 1.076h-0.816c0-0.234-0.215-0.383-0.46-0.383-0.266 0-0.45 0.153-0.449 0.368 0 0.179 0.169 0.281 0.368 0.326l0.55 0.149c0.776 0.198 0.914 0.683 0.915 1 0 0.698-0.7 1.081-1.399 1.081-0.678 0-1.362-0.413-1.377-1.148z"/></svg>