<svg fill="#000000" role="img" viewBox="0 0 136 24" xmlns="http://www.w3.org/2000/svg"><title>Wacom</title><path d="M41.119 0c-2.687 0-3.959 0.283-5.337 0.813l-0.248 0.106 1.52 2.686 0.177-0.07c1.025-0.424 2.156-0.566 4.277-0.566h2.262c3.323 0 5.196 1.661 5.196 4.56v8.907c0 2.898-1.908 4.56-5.196 4.56h-3.712c-3.393 0-5.054-1.379-5.054-4.206 0-2.793 1.661-4.171 5.054-4.171h5.161v-2.969h-5.302c-5.019 0-7.918 2.615-7.918 7.175 0 4.419 3.04 7.14 7.918 7.14h3.994c5.549 0 8.095-3.711 8.095-7.14V7.14c0-3.428-2.545-7.14-8.095-7.14zM55.434 7.14c0-3.428 2.545-7.14 8.095-7.14h3.463c2.828 0.036 4.666 0.424 6.151 1.414l0.212 0.106-1.732 2.509-0.176-0.105c-1.131-0.672-2.51-0.955-4.843-0.956H63.705c-3.358 0-5.196 1.626-5.195 4.561v8.907c0 2.934 1.838 4.56 5.195 4.56h2.899c2.333 0 3.747-0.283 4.843-0.955l0.176-0.106 1.732 2.51-0.212 0.141c-1.52 0.955-3.358 1.379-6.186 1.379h-3.428c-5.55 0-8.095-3.711-8.095-7.14z m36.973 9.332c0 2.898-1.909 4.56-5.196 4.56h-3.676c-3.358 0-5.196-1.626-5.196-4.561V7.564c0-2.899 1.908-4.559 5.196-4.559h3.676c3.323 0 5.196 1.661 5.196 4.559z m-5.09-16.436h-3.924c-5.585 0-8.13 3.711-8.129 7.139V16.86c0 3.428 2.545 7.14 8.094 7.14h3.959c5.549 0 8.095-3.712 8.095-7.14v-9.686c0.035-3.428-2.51-7.14-8.095-7.14z m19.582 0.07c3.217 0 5.126 0.777 6.61 2.686 1.485-1.908 3.428-2.686 6.609-2.686 4.772 0 7.883 2.722 7.883 6.928v16.895h-3.005V7.423c0-2.933-1.661-4.347-5.019-4.348-3.181 0-4.949 1.449-4.948 4.065v16.789h-3.04V7.14c0-2.616-1.767-4.065-4.949-4.065-3.393 0-5.019 1.414-5.019 4.348v16.506h-3.04v-16.896c0.036-4.206 3.11-6.928 7.918-6.927z m26.51 1.449c0.248 0 0.424 0.036 0.53 0.106 0.141 0.071 0.177 0.212 0.142 0.353 0 0.177-0.071 0.318-0.248 0.389-0.106 0.071-0.248 0.071-0.424 0.07h-0.389v-0.918z m0.778-0.177c-0.177-0.071-0.389-0.106-0.707-0.106l-0.884-0.036v2.546h0.459v-0.99h0.354c0.248 0 0.389 0 0.495 0.07 0.177 0.071 0.248 0.283 0.247 0.566v0.354h0.425v-0.036c-0.036-0.035-0.036-0.071-0.036-0.141v-0.354c0-0.141-0.035-0.247-0.141-0.389-0.071-0.141-0.212-0.212-0.425-0.247 0.142 0 0.283-0.036 0.354-0.106 0.177-0.106 0.248-0.283 0.248-0.495 0-0.318-0.141-0.53-0.389-0.636z m-2.651 1.167c0-0.565 0.176-1.025 0.565-1.414 0.389-0.389 0.884-0.565 1.414-0.601 0.566 0 1.025 0.212 1.414 0.601 0.389 0.389 0.566 0.848 0.565 1.414 0 0.565-0.177 1.025-0.565 1.413-0.389 0.39-0.848 0.601-1.414 0.601-0.565 0-1.025-0.212-1.414-0.601-0.389-0.389-0.565-0.848-0.565-1.413z m1.979 2.297c0.636 0 1.166-0.212 1.626-0.672 0.459-0.424 0.671-0.99 0.672-1.661 0-0.636-0.212-1.166-0.672-1.626-0.424-0.459-0.99-0.672-1.626-0.672s-1.166 0.212-1.626 0.673c-0.459 0.459-0.671 0.989-0.671 1.625 0 0.671 0.212 1.202 0.671 1.661 0.424 0.459 0.989 0.671 1.626 0.672z m-107.347 11.841v-16.507l3.039-0.035v16.896c-0.036 4.206-3.111 6.927-7.917 6.927-3.217 0-5.126-0.778-6.61-2.686-1.485 1.909-3.393 2.687-6.61 2.686C3.298 23.964 0.187 21.243 0.187 17.037V0.141l3.005 0.035v16.507c0 2.934 1.661 4.348 5.019 4.348 3.181 0 4.948-1.449 4.948-4.065v-16.79h3.041v16.79c0 2.616 1.767 4.065 4.948 4.065 3.393 0 5.019-1.414 5.019-4.348z"/></svg>