<svg fill="#43B1B0" role="img" viewBox="0 0 20 24" xmlns="http://www.w3.org/2000/svg"><title>Wagtail</title><path d="M14.181 0c-2.641 0-4.11 1.969-4.732 3.313L2.018 16.973l2.097-0.392L0.263 24l2.688-0.482 2.043-5.838c5.815 0 13.279-2.088 12.238-9.906 0 0-0.634-3.151-4.743-2.302-0.416-1.421-0.342-2.475 0.566-3.434 1.249-1.319 3.182-0.596 3.182-0.596l0.002-1.088C15.56 0.057 14.906 0 14.181 0z m2.417 2.523a0.495 0.495 0 1 0 0 0.991 0.495 0.495 0 0 0 0-0.991z m1.502 1.029l-1.292 1.574h2.929zM14.374 8.342l0.303 0.011-0.04 0.55-0.038 0.288c-0.014 0.105-0.025 0.219-0.051 0.339l-0.074 0.383-0.106 0.42c-0.042 0.145-0.094 0.293-0.143 0.448a14.128 14.128 0 0 1-0.186 0.468l-0.113 0.237-0.058 0.121-0.066 0.118-0.134 0.24c-0.05 0.078-0.101 0.156-0.152 0.236l-0.077 0.119-0.085 0.114c-0.058 0.076-0.114 0.155-0.175 0.23-0.126 0.147-0.249 0.299-0.39 0.438-0.134 0.145-0.284 0.275-0.431 0.41l-0.231 0.19c-0.076 0.064-0.16 0.12-0.239 0.18-0.324 0.234-0.662 0.446-1.01 0.626-0.347 0.18-0.697 0.343-1.044 0.477-0.347 0.135-0.686 0.254-1.013 0.351-0.325 0.1-0.636 0.183-0.924 0.255-0.576 0.142-1.061 0.239-1.4 0.307l-0.534 0.102 0.531-0.115c0.337-0.075 0.82-0.184 1.391-0.34 0.285-0.079 0.594-0.168 0.915-0.276 0.322-0.105 0.657-0.231 0.997-0.373 0.341-0.141 0.683-0.31 1.022-0.496 0.339-0.185 0.667-0.403 0.978-0.639 0.076-0.061 0.157-0.117 0.23-0.182l0.221-0.191c0.14-0.135 0.284-0.265 0.41-0.409 0.134-0.138 0.25-0.289 0.369-0.434 0.057-0.075 0.109-0.152 0.163-0.228l0.08-0.112 0.072-0.117 0.141-0.231 0.124-0.235 0.061-0.115 0.053-0.118 0.103-0.232c0.061-0.155 0.117-0.308 0.169-0.455 0.044-0.151 0.09-0.295 0.127-0.436l0.094-0.408 0.062-0.372c0.022-0.116 0.03-0.227 0.042-0.329 0.011-0.102 0.021-0.196 0.029-0.28l0.027-0.535Z"/></svg>