<svg fill="#DF0000" role="img" viewBox="0 0 43 24" xmlns="http://www.w3.org/2000/svg"><title>Wails</title><path d="M35.14 0l-13.971 8.961-0.656-0.816-15.453-0.504 3.362 3.386 9.285 0.189 2.899 2.945-10.453 1.177 3.147 3.171 9.496-2.108 0.006-0.01 1.766 2.077-5.476 5.53 13.158 0.002-2.813-8.895 3.928 5.584H42.84l-9.577-4.295h7.329l-9.575-4.3h7.322L29.141 7.963l1.935-2.566 7.273-1.913-6.165 0.441 2.956-3.925z m-6.465 4.129l-10.739 0.765 2.588 3.247 3.224-0.846 4.927-3.166z m-0.448 5.051l-1.529 2.036-0.002-0.004 0.274-0.364 1.257-1.668zM0.16 12.356l9.986 1.837-1.809-1.827L0.16 12.356z"/></svg>