<svg fill="#000000" role="img" viewBox="0 0 52 24" xmlns="http://www.w3.org/2000/svg"><title>WALKMAN</title><path d="M36.322 0.001a7.732 7.732 0 0 0-1.778 0.183c-3.619 0.8-5.462 3.572-5.408 6.459 0.047 2.833-1.263 5.355-4.078 5.682-2.731 0.329-3.971-1.782-4.152-4.287-0.177-2.473-1.867-4.429-4.478-3.845-2.228 0.484-3.809 2.481-3.939 4.991-0.139 2.603-1.167 4.779-3.041 4.999-1.794 0.207-2.691-1.991-2.81-3.734-0.115-1.713-0.967-3.888-3.194-3.392C1.347 7.518 0.432 10.138 0.397 11.87c-0.036 1.75 0.711 4.084 2.71 3.954 1.549-0.102 2.72 1.357 2.755 3.563 0.03 2.151 1.212 4.609 3.552 4.613 2.475 0 3.838-2.095 3.901-5.048 0.058-2.56 1.615-4.395 3.317-4.581 1.765-0.186 3.388 1.355 3.572 4.175 0.194 2.868 1.643 5.37 5.479 5.371 4.154 0 5.242-3.151 5.166-6.164-0.077-2.981 2.198-5.05 4.946-5.428 2.996-0.41 6.107-2.659 5.733-7.216-0.294-3.629-2.65-5.065-5.206-5.106z m8.532 12.029a8.34 8.34 0 0 0-0.678 0.043c-3.414 0.341-5.893 2.71-5.642 6.173 0.256 3.521 3.136 5.716 6.685 5.716 3.774 0 6.753-2.462 6.348-6.384-0.38-3.606-3.352-5.616-6.713-5.548Z"/></svg>