<svg fill="#3B99FC" role="img" viewBox="0 0 40 24" xmlns="http://www.w3.org/2000/svg"><title>WalletConnect</title><path d="M8.437 4.688c6.388-6.251 16.74-6.251 23.126 0l0.769 0.752a0.788 0.788 0 0 1 0 1.133l-2.629 2.573a0.411 0.411 0 0 1-0.577 0l-1.059-1.035c-4.454-4.361-11.677-4.361-16.132 0l-1.132 1.11a0.416 0.416 0 0 1-0.58 0L7.595 6.646a0.786 0.786 0 0 1 0-1.131l0.842-0.827Zm28.563 5.324l2.339 2.291a0.788 0.788 0 0 1 0 1.132l-10.55 10.33a0.829 0.829 0 0 1-1.156 0l-7.486-7.331a0.206 0.206 0 0 0-0.291 0l-7.487 7.331a0.829 0.829 0 0 1-1.157 0L0.661 13.435a0.788 0.788 0 0 1 0-1.132l2.339-2.291a0.829 0.829 0 0 1 1.157 0l7.488 7.331c0.082 0.078 0.21 0.078 0.29 0l7.487-7.331a0.829 0.829 0 0 1 1.157 0l7.488 7.331c0.082 0.078 0.209 0.078 0.29 0l7.488-7.331a0.827 0.827 0 0 1 1.155 0Z"/></svg>