<svg fill="#0071CE" role="img" viewBox="0 0 100 24" xmlns="http://www.w3.org/2000/svg"><title>Walmart</title><path d="M89.001 0c-0.913 0-1.639 0.51-1.639 1.13l0.555 6.279c0.061 0.378 0.525 0.67 1.085 0.671 0.561-0.001 1.023-0.293 1.085-0.671l0.556-6.279c0-0.621-0.727-1.13-1.642-1.13zM0.307 5.036s2.473 10.133 2.867 11.778c0.461 1.92 1.291 2.626 3.684 2.15l1.544-6.283c0.391-1.56 0.654-2.673 0.906-4.26h0.044c0.177 1.603 0.429 2.705 0.751 4.266 0 0 0.628 2.852 0.95 4.35 0.323 1.498 1.221 2.441 3.565 1.927l3.679-13.928h-2.97l-1.257 6.022c-0.338 1.753-0.644 3.122-0.88 4.726h-0.042c-0.215-1.588-0.488-2.903-0.831-4.611l-1.308-6.137h-3.095l-1.399 5.983c-0.396 1.818-0.767 3.285-1.003 4.834h-0.042c-0.242-1.459-0.563-3.303-0.912-5.063 0 0-0.831-4.279-1.123-5.754z m28.319 0v13.928h2.828v-13.928z m39.832 0v10.275c0 1.416 0.267 2.409 0.837 3.015 0.498 0.53 1.319 0.874 2.302 0.874 0.836 0 1.659-0.159 2.047-0.303l-0.036-2.21c-0.289 0.071-0.62 0.127-1.075 0.127-0.963 0-1.287-0.617-1.286-1.888v-3.931h2.463v-2.665h-2.463v-3.294z m11.507 0c-0.474 0.011-1.013 0.37-1.355 0.964-0.458 0.791-0.377 1.674 0.159 1.985l5.714 2.661c0.357 0.133 0.842-0.121 1.123-0.605 0.282-0.486 0.26-1.034-0.037-1.276l-5.161-3.62c-0.134-0.078-0.285-0.113-0.443-0.109z m18.073 0c-0.158-0.004-0.309 0.031-0.442 0.109l-5.162 3.62c-0.295 0.242-0.317 0.787-0.038 1.273 0 0.001 0.001 0.001 0.001 0.001 0 0.001 0.001 0.001 0.001 0.002 0.282 0.484 0.765 0.737 1.122 0.605l5.715-2.661c0.538-0.31 0.615-1.194 0.16-1.985-0.344-0.594-0.883-0.953-1.357-0.964zM22.305 8.265c-1.758 0-3.153 0.493-3.914 0.933l0.557 1.906c0.696-0.439 1.804-0.802 2.853-0.802 1.737-0.005 2.022 0.983 2.022 1.615v0.15c-3.786-0.006-6.177 1.304-6.177 3.975 0 1.63 1.217 3.158 3.334 3.158 1.303 0 2.393-0.52 3.046-1.353h0.064s0.433 1.808 2.815 1.117c-0.125-0.753-0.166-1.555-0.166-2.521v-3.721c0-2.371-1.013-4.457-4.434-4.457z m16.918 0c-1.77 0-2.565 0.897-3.047 1.658h-0.043v-1.422h-2.698v10.463h2.843V12.828c0-0.288 0.033-0.592 0.133-0.856 0.236-0.618 0.81-1.34 1.728-1.341 1.147 0 1.684 0.97 1.684 2.37v5.963h2.84v-6.21c0-0.275 0.038-0.606 0.119-0.848 0.234-0.703 0.853-1.274 1.706-1.275 1.163 0 1.721 0.953 1.721 2.6v5.733h2.842v-6.162c0-3.25-1.65-4.537-3.513-4.537-0.825 0-1.476 0.207-2.064 0.569-0.495 0.304-0.938 0.735-1.326 1.303h-0.042c-0.449-1.128-1.506-1.871-2.883-1.872z m15.613 0c-1.757 0-3.152 0.493-3.913 0.933l0.557 1.906c0.695-0.439 1.804-0.802 2.853-0.802 1.736-0.005 2.021 0.983 2.021 1.615v0.15c-3.785-0.006-6.177 1.304-6.177 3.975 0 1.63 1.218 3.158 3.336 3.158 1.302 0 2.392-0.52 3.044-1.353h0.064s0.432 1.808 2.815 1.117c-0.125-0.753-0.165-1.555-0.165-2.521v-3.721c0-2.371-1.013-4.457-4.435-4.457z m11.807 0c-1.089 0-2.327 0.703-2.847 2.21h-0.08v-1.974h-2.559v10.463h2.917V13.607c0-0.289 0.017-0.541 0.064-0.773 0.216-1.122 1.074-1.84 2.306-1.839 0.338 0 0.58 0.036 0.842 0.074v-2.739c-0.22-0.044-0.37-0.065-0.643-0.065z m18.053 5.055c-0.074-0.001-0.145 0.011-0.213 0.036l-5.714 2.658c-0.536 0.311-0.617 1.195-0.159 1.987 0.457 0.789 1.262 1.164 1.798 0.855l5.161-3.617c0.297-0.246 0.319-0.792 0.036-1.278l0.003 0.001c-0.228-0.396-0.592-0.637-0.912-0.642z m8.611 0c-0.32 0.004-0.683 0.246-0.911 0.642l0.002-0.001c-0.281 0.486-0.259 1.033 0.036 1.278l5.162 3.617c0.535 0.31 1.341-0.066 1.799-0.855 0.455-0.792 0.378-1.676-0.16-1.987l-5.715-2.658c-0.067-0.025-0.138-0.037-0.213-0.036z m-69.393 0.601v1.305c0 0.193-0.017 0.392-0.07 0.567-0.219 0.725-0.97 1.338-1.909 1.337-0.783 0-1.404-0.444-1.404-1.384 0-1.437 1.582-1.834 3.383-1.825z m32.531 0v1.305c0 0.193-0.017 0.392-0.07 0.567-0.219 0.725-0.97 1.338-1.909 1.337-0.783 0-1.405-0.444-1.404-1.384 0-1.437 1.582-1.834 3.383-1.825z m32.555 2.001c-0.559 0.001-1.022 0.291-1.083 0.669l-0.555 6.278c0 0.622 0.726 1.131 1.639 1.131 0.915 0 1.642-0.509 1.642-1.131l-0.556-6.278c-0.062-0.377-0.524-0.668-1.085-0.669z"/></svg>