<svg fill="#21BDDB" role="img" viewBox="0 0 34 24" xmlns="http://www.w3.org/2000/svg"><title>Wantedly</title><path d="M26.135 15.617c-0.242-0.157-0.932-1.082-2.839-5.638a13.013 13.013 0 0 0-0.336-0.744l-0.388-0.94-3.344-8.073H12.541l3.343 8.073 3.344 8.078 3.088 7.456a0.277 0.277 0 0 0 0.512 0l3.36-8.044a0.142 0.142 0 0 0-0.053-0.168z m-12.528 0c-0.242-0.157-0.932-1.082-2.84-5.638a12.7 12.7 0 0 0-0.334-0.743l-0.391-0.941-3.341-8.073H0.012l3.344 8.073 3.343 8.078 3.088 7.456a0.277 0.277 0 0 0 0.513 0l3.36-8.044a0.139 0.139 0 0 0-0.053-0.168ZM33.988 4.036a4.036 4.036 0 0 1-4.036 4.038 4.036 4.036 0 0 1-4.037-4.038 4.036 4.036 0 0 1 4.037-4.036A4.036 4.036 0 0 1 33.988 4.036Z"/></svg>