<svg fill="#4608AD" role="img" viewBox="0 0 29 24" xmlns="http://www.w3.org/2000/svg"><title>Wappalyzer</title><path d="M28.625 10.839v-0.711L14.5 0 0.375 10.128v0.71l14.125 10.13 14.125-10.129zM10.538 10.611l3.237 1.26 0.019-0.012-1.796-2.315 1.158-0.848 3.172 1.314 0.019-0.013-1.722-2.376 1.468-1.074 3.06 4.531-1.231 0.902-3.293-1.362-0.014 0.01 1.875 2.398-1.233 0.903-6.191-2.24 1.472-1.078z m16.971 1.752l1.114 0.799v0.71l-14.124 10.128L0.375 13.872v-0.71l1.115-0.798 12.666 9.083 0.344 0.247 0.343-0.247 12.667-9.083z"/></svg>