<svg fill="#4946DD" role="img" viewBox="0 0 20 24" xmlns="http://www.w3.org/2000/svg"><title>Wasmer</title><path d="M16.111 3.537c-0.011 0.822-0.5 1.208-1.111 0.86-0.611-0.353-1.106-1.307-1.111-2.146L10 0v4.651l5.561 3.222 0.55 0.32v7.763L20 18.206V5.794l-3.889-2.256Zm-5 3.034c-0.011 0.822-0.5 1.208-1.111 0.86-0.611-0.352-1.106-1.307-1.111-2.145l-3.89-2.252V7.41l5.562 3.222 0.55 0.32v8.038L15 21.241V8.828L11.11 6.57Zm-5 2.759c-0.011 0.822-0.5 1.208-1.111 0.86-0.611-0.353-1.106-1.307-1.111-2.146L0 5.794v12.413L10 24V11.586L6.111 9.33Z"/></svg>