<svg fill="#FF500A" role="img" viewBox="0 0 33 24" xmlns="http://www.w3.org/2000/svg"><title>Wattpad</title><path d="M17.891 0.012c-2.281 0.152-5.247 2.727-9.284 9.347 0.33-3.711 0.464-6.345-1.153-7.727-1.107-0.945-3.719-1.31-5.282 0.721C0.596 4.397 0.233 8.383 0.386 12.581c0.32 8.77 3.423 11.419 6.176 11.419h0.001c4.875 0 5.557-5.973 8.886-11.302-0.121 1.905-0.011 3.59 0.358 4.752 1.45 4.572 6.437 4.928 8.701 0.283 3.194-6.552 4.114-8.094 7.337-12.81 2.126-3.113-0.339-5.129-3.194-3.68-1.467 0.745-3.848 2.603-6.815 6.548 0.521-3 0.377-8.067-3.945-7.779z"/></svg>