<svg fill="#4285F4" role="img" viewBox="0 0 32 24" xmlns="http://www.w3.org/2000/svg"><title>Wear OS</title><path d="M11.311 23.952c-1.267 0-2.478-0.733-3.027-1.965L0.586 4.699C-0.157 3.028 0.593 1.071 2.263 0.328c1.67-0.743 3.628 0.007 4.372 1.677l7.697 17.289c0.743 1.67-0.007 3.628-1.677 4.371a3.304 3.304 0 0 1-1.344 0.287z m9.414 0.048c-1.166 0-2.278-0.674-2.783-1.808L9.968 4.283C9.284 2.747 9.975 0.948 11.51 0.263c1.535-0.683 3.335 0.007 4.02 1.542l7.974 17.911c0.685 1.537-0.007 3.335-1.542 4.02a3.024 3.024 0 0 1-1.237 0.264zM31.701 3.096a3.045 3.045 0 0 1-3.045 3.045 3.045 3.045 0 0 1-3.045-3.045 3.045 3.045 0 0 1 3.045-3.045A3.045 3.045 0 0 1 31.701 3.096z m-3.417 6.694a3.257 3.257 0 0 1-3.257 3.257 3.257 3.257 0 0 1-3.257-3.257 3.257 3.257 0 0 1 3.257-3.257 3.257 3.257 0 0 1 3.257 3.257Z"/></svg>