<svg fill="#990000" role="img" viewBox="0 0 30 24" xmlns="http://www.w3.org/2000/svg"><title>Weasyl</title><path d="M26.394 2.315a10.48 10.48 0 0 0-7.249-2.293c-4.65 0.3-7.808 3.287-9.091 8.002-1.58-1.511-2.336-3.998-2.584-6.84-1.259 0.265-2.047 0.867-2.757 1.527 0.549 2.859 2.225 4.957 4.029 6.368-3.159 0.391-7.395 3.015-8.359 6.055-0.626 1.973 0.319 4.216 1.584 5.581 1.527 1.646 4.63 2.467 7.846 2.165 0.046 0.447-0.128 0.662-0.072 1.12 5.021-0.378 8.857-2.032 12.396-4.808 1.382-1.083 3.283-2.515 4.637-3.984 1.359-1.472 2.835-3.183 3.017-5.58 0.259-3.445-1.526-5.795-3.397-7.313z m-1.77 13.504c-1.278 1.236-2.767 2.219-4.138 3.303-1.542-2.453-3.189-4.919-4.799-7.305 0.021 3.247 0.007 6.707 0.05 9.824-0.963 0.47-2.209 0.689-3.388 0.942-2.389-3.601-4.899-7.395-7.36-10.999 0.856-0.552 2.009-0.969 3.06-1.327 1.752 2.531 3.369 5.251 5.149 7.819 0.023-3.843-0.011-8.239-0.075-12.246a17.501 17.501 0 0 0 1.885-0.536c2.238 3.359 4.387 6.949 6.746 10.32a675.781 675.781 0 0 1-0.022-12.06c1.059-0.348 2.226-0.661 3.295-0.998 0.025 4.32-0.417 8.801-0.403 13.263z"/></svg>