<svg fill="#F16822" role="img" viewBox="0 0 26 24" xmlns="http://www.w3.org/2000/svg"><title>Web3.js</title><path d="M1.122 0S0.171 0.551 0.171 1.646V7.125s0 3.292 2.85 4.937c0.873 0.505 1.48 0.543 1.9 0.357 0.421 0.671 1.026 1.332 1.901 1.837 2.85 1.646 2.852-1.645 2.852-1.645V7.133c0-1.098 0.949-1.645 0.949-1.646l3.803-2.195s0.951-0.549 1.9 0c0.951 0.548 0 1.098 0 1.098L12.53 6.584l1.897 1.096 3.805-2.197c0.056-0.032 0.975-0.529 1.895 0.002 0.951 0.549 0 1.097 0 1.097l-3.8 2.196s-0.949 0.549-0.949 1.646v5.478s0 1.099-0.951 0.55c-0.951-0.548-0.951-1.645-0.951-1.646l-1.901-1.097s0.001 3.293 2.852 4.938c2.851 1.645 2.85-1.646 2.85-1.647v-5.48c0-1.097 0.95-1.643 0.951-1.643l4.752-2.746s1.899-1.096-0.951-2.741c-0.876-0.507-1.659-0.753-2.327-0.852-0.175-0.382-0.604-0.83-1.472-1.326-2.851-1.628-5.7-0.017-5.7-0.017L8.728 4.39s-0.951 0.549-0.951 1.645v5.479s0 1.098-0.952 0.549c-0.95-0.549-0.951-1.646-0.951-1.646V4.94c0-0.068 0.003-0.136 0.01-0.201 0.104-0.964 0.94-1.446 0.94-1.446L4.923 2.195l-0.004 0.002c-0.056 0.032-0.945 0.582-0.945 1.643v5.479s-0.002 1.098-0.953 0.549c-0.951-0.549-0.95-1.646-0.95-1.646V2.745c0-1.097 0.95-1.646 0.95-1.646L1.122 0.001z m10.455 9.338v2.195l1.901 1.096v-2.195L11.578 9.338z m9.025 2.334c-0.712 0.005-1.424 0.416-1.424 2.041 0 3.249 2.85 4.938 2.85 4.938l0.951 0.548s0.951 0.549 0.951 1.647-0.951 0.548-0.951 0.548l-3.801-2.195v2.195l3.801 2.195S25.829 25.234 25.829 21.942c0-3.289-1.9-4.388-1.9-4.388l-1.901-1.096s-0.949-0.549-0.949-1.646c0-1.099 0.949-0.551 0.949-0.551L25.829 16.456v-2.195l-3.801-2.191s-0.713-0.402-1.426-0.398Z"/></svg>