<svg fill="#3423A6" role="img" viewBox="0 0 35 24" xmlns="http://www.w3.org/2000/svg"><title>WebAuthn</title><path d="M22.215 0.009a12.059 12.059 0 0 0-11.547 10.892h0.789a11.196 11.196 0 0 1 3.213-6.76 8.356 8.356 0 0 0 1.324 0.997c-0.872 1.688-1.406 3.666-1.552 5.763h0.194c0.151-2.104 0.696-4.044 1.527-5.662 1.069 0.623 2.328 1.082 3.697 1.349a39.921 39.921 0 0 0-0.359 5.398h-1.215v0.193h1.215c0.004 1.914 0.129 3.754 0.359 5.399-1.368 0.265-2.628 0.726-3.697 1.349a14.34 14.34 0 0 1-1.403-4.5h-0.196c0.235 1.664 0.72 3.227 1.43 4.602a8.356 8.356 0 0 0-1.325 0.997 11.196 11.196 0 0 1-3.235-6.993h-0.789a12.059 12.059 0 0 0 24.069-0.968 12.046 12.046 0 0 0-0.989-4.781 12.059 12.059 0 0 0-11.511-7.276z m0.452 0.784c0.222 0 0.445 0.007 0.666 0.02 0.524 0.488 1.016 1.535 1.41 3.032a23.694 23.694 0 0 1 0.512 2.568 14.593 14.593 0 0 1-2.588 0.229 14.593 14.593 0 0 1-2.589-0.229 23.696 23.696 0 0 1 0.512-2.568c0.394-1.499 0.886-2.546 1.41-3.032a11.433 11.433 0 0 1 0.667-0.02z m-0.954 0.04c-0.495 0.562-0.944 1.568-1.309 2.962a23.868 23.868 0 0 0-0.517 2.582c-1.347-0.263-2.585-0.714-3.633-1.328 0.984-1.84 2.345-3.248 3.916-3.981a11.295 11.295 0 0 1 1.543-0.235z m1.908 0a11.269 11.269 0 0 1 1.555 0.241c1.566 0.736 2.922 2.14 3.903 3.975-1.047 0.614-2.287 1.066-3.633 1.329a23.869 23.869 0 0 0-0.517-2.582c-0.366-1.394-0.815-2.4-1.308-2.963z m-4.263 0.45c-0.94 0.584-1.803 1.419-2.548 2.482a11.714 11.714 0 0 0-0.726 1.183 8.162 8.162 0 0 1-1.276-0.961 11.209 11.209 0 0 1 4.55-2.704z m6.633 0.009a11.278 11.278 0 0 1 4.538 2.692 8.165 8.165 0 0 1-1.281 0.964 11.714 11.714 0 0 0-0.725-1.183c-0.74-1.059-1.599-1.891-2.532-2.473z m4.676 2.847a11.272 11.272 0 0 1 2.35 3.47 11.192 11.192 0 0 1 0.921 4.377h-3.006c-0.014-2.496-0.571-4.871-1.592-6.848a8.353 8.353 0 0 0 1.327-0.999z m-1.498 1.1c0.975 1.893 1.555 4.224 1.57 6.747h-4.906a39.968 39.968 0 0 0-0.359-5.398c1.367-0.267 2.628-0.726 3.695-1.349z m-9.118 1.385a14.773 14.773 0 0 0 2.616 0.229 14.773 14.773 0 0 0 2.615-0.229c0.23 1.632 0.353 3.461 0.359 5.362h-1.691a1.477 1.477 0 0 1-0.134 0.193h1.822a39.748 39.748 0 0 1-0.356 5.364 14.914 14.914 0 0 0-5.231 0 39.781 39.781 0 0 1-0.356-5.364h1.856a1.42 1.42 0 0 1-0.129-0.193h-1.727c0.004-1.901 0.126-3.73 0.356-5.362z m-16.095 1.619a3.708 3.708 0 0 0-3.653 3.371c-0.204 2.21 1.526 4.077 3.681 4.077 1.807 0 3.316-1.315 3.633-3.047h6.369v1.394h1.357v-1.394h1.2v2.053h1.356v-3.409h-10.282a3.709 3.709 0 0 0-3.661-3.045z m-0.083 1.384a2.351 2.351 0 0 1 2.449 2.349 2.352 2.352 0 0 1-2.351 2.349 2.351 2.351 0 0 1-0.098-4.698z m18.777 0.557a1.076 1.076 0 0 0-0.495 2.014l-0.549 2.809h2.151l-0.549-2.809a1.076 1.076 0 0 0 0.551-0.938 1.076 1.076 0 0 0-1.109-1.076z m3.182 1.995h4.907c-0.014 2.522-0.595 4.854-1.57 6.748-1.067-0.623-2.328-1.083-3.696-1.349a39.892 39.892 0 0 0 0.359-5.399z m5.1 0h3.006a11.196 11.196 0 0 1-3.271 7.847 8.356 8.356 0 0 0-1.327-0.999c1.021-1.977 1.578-4.351 1.592-6.848z m-7.918 5.312a14.752 14.752 0 0 1 2.241 0.224 23.694 23.694 0 0 1-0.512 2.569c-0.394 1.499-0.886 2.545-1.409 3.032a11.435 11.435 0 0 1-1.334 0c-0.524-0.488-1.016-1.535-1.41-3.032a23.696 23.696 0 0 1-0.512-2.568 14.752 14.752 0 0 1 2.938-0.225z m2.432 0.26c1.348 0.264 2.586 0.717 3.633 1.328-0.984 1.842-2.345 3.249-3.916 3.982a11.295 11.295 0 0 1-1.542 0.235c0.493-0.564 0.942-1.569 1.31-2.962a23.869 23.869 0 0 0 0.516-2.582z m-5.557 0a23.881 23.881 0 0 0 0.516 2.582c0.364 1.396 0.813 2.401 1.308 2.963a11.293 11.293 0 0 1-1.542-0.235c-1.572-0.733-2.933-2.14-3.916-3.981 1.047-0.614 2.285-1.066 3.634-1.329z m-3.805 1.43a11.705 11.705 0 0 0 0.726 1.183c0.746 1.063 1.608 1.898 2.548 2.482a11.209 11.209 0 0 1-4.553-2.703 8.168 8.168 0 0 1 1.279-0.961z m13.166 0a8.168 8.168 0 0 1 1.278 0.961 11.209 11.209 0 0 1-4.552 2.704c0.938-0.584 1.802-1.419 2.547-2.482a11.705 11.705 0 0 0 0.727-1.183z"/></svg>