<svg fill="#29ABE2" role="img" viewBox="0 0 30 24" xmlns="http://www.w3.org/2000/svg"><title>webcomponents.org</title><path d="M14.67 0l-0.013 0.02H7.165L0.269 11.974l6.896 11.952h15.714l0.049 0.074 2.62-4.585 0.636-1.096h-0.01l0.01-0.018-0.769-0.92h1.099l0.007-0.013 0.01 0.013L29.731 11.993l-3.2-5.39-0.004 0.007-0.013-0.025h-1.16l0.773-0.937-3.199-5.61-0.007 0.012-0.03-0.049H14.669zM11.448 5.646h7.599l-0.65 0.938h-0.028l2.943 4.929h1.075l-0.34 0.402 0.438 0.534h-1.174l-2.944 4.929h0.034l0.642 0.938H11.408l-3.671-6.344 3.71-6.329z"/></svg>