<svg fill="#000000" role="img" viewBox="0 0 32 24" xmlns="http://www.w3.org/2000/svg"><title>Webex</title><path d="M29.037 5.835c0.683 1.574 0.043 3.525-1.48 4.14-2.875 1.184-3.999-1.726-3.999-1.726-0.315-0.733-0.969-1.994-1.78-1.994-0.272 0-0.671 0-1.253 1.125-0.305 0.591-0.579 1.58-0.821 2.453l-0.12 0.426c-0.497-2.116-1.094-4.604-2.047-6.42-0.26-0.507-0.56-0.986-0.897-1.439a6.845 6.845 0 0 1 2.323-1.783 6.52 6.52 0 0 1 2.815-0.617c1.393 0 3.686 0.451 5.635 2.969 0.223 0.275 0.423 0.565 0.597 0.872 0.371 0.588 0.693 1.205 0.968 1.843l0.057 0.151zM0.03 7.2C-0.196 5.474 1.07 3.794 2.607 3.674c2.391-0.209 3.146 1.846 3.272 2.519l0.03 0.183c0.093 0.587 0.387 2.45 0.64 3.658 0.104 0.533 0.325 1.35 0.47 1.887l0.008 0.03 0.035 0.122c0.147 0.533 0.309 1.065 0.482 1.591 0.247 0.73 0.532 1.446 0.855 2.146 0.627 1.273 1.24 1.933 1.822 1.933 0.271 0 0.683 0 1.28-1.171 0.377-0.786 0.683-1.61 0.912-2.459 0.497 2.13 1.081 4.17 1.993 5.94 0.273 0.541 0.592 1.058 0.953 1.546a6.83 6.83 0 0 1-2.323 1.784 6.505 6.505 0 0 1-2.815 0.614c-2.064 0-4.968-0.93-7.117-5.338a29.869 29.869 0 0 1-1.437-3.765 35.789 35.789 0 0 1-0.924-3.54 64.732 64.732 0 0 1-0.286-1.485C0.258 8.803 0.102 7.829 0.03 7.2z m29.389-3.526l-0.269-0.029h-0.069c0.296 0.523 0.561 1.062 0.796 1.619l0.07 0.151c0.429 1.013 0.461 2.152 0.091 3.187a4.104 4.104 0 0 1-2.069 2.332 3.906 3.906 0 0 1-1.637 0.373 4.152 4.152 0 0 1-1.138-0.18c-0.399 1.576-1.024 3.511-1.593 4.68-0.569 1.169-1.24 1.934-1.837 1.934-0.256 0-0.668 0-1.267-1.169a14.325 14.325 0 0 1-0.91-2.459 51.618 51.618 0 0 1-0.528-2.1 16.889 16.889 0 0 1-0.181-0.797l-0.003-0.013c-0.541-2.37-1.153-4.859-2.206-6.854A11.015 11.015 0 0 0 15.36 2.401a6.846 6.846 0 0 0-2.33-1.786A6.521 6.521 0 0 0 10.206 0.001c-1.381 0-3.671 0.451-5.621 2.97 0.621 0.297 1.156 0.749 1.552 1.312 0.407 0.577 0.665 1.244 0.753 1.944 0.101 0.75 0.341 2.205 0.626 3.583l0.002 0.009c0.028 0.147 0.056 0.295 0.097 0.456 0.168-0.453 0.333-0.856 0.507-1.273l0.149-0.361 0.171-0.391c0.313-0.733 0.968-1.994 1.764-1.994 0.284 0 0.684 0 1.267 1.125 0.395 0.808 0.709 1.652 0.941 2.52 0.184 0.676 0.368 1.396 0.525 2.115 0.053 0.197 0.093 0.395 0.135 0.592l0.008 0.037c0.569 2.505 1.166 4.919 2.191 6.915 0.212 0.423 0.453 0.829 0.727 1.214 0.2 0.287 0.413 0.563 0.64 0.827 1.693 1.933 3.643 2.399 5.122 2.399 2.064 0 4.983-0.93 7.132-5.34 1.096-2.266 2.02-5.609 2.362-7.305 0.341-1.693 0.599-3.225 0.712-4.152 0.053-0.409 0.031-0.824-0.068-1.224-0.1-0.399-0.273-0.772-0.509-1.1a2.995 2.995 0 0 0-0.871-0.809 2.857 2.857 0 0 0-1.101-0.395z"/></svg>