<svg fill="#990000" role="img" viewBox="0 0 54 24" xmlns="http://www.w3.org/2000/svg"><title>WebGL</title><path d="M42.495 16.872c-0.479 0.201-0.955 0.302-1.439 0.302-0.765 0-1.454-0.132-2.064-0.398a4.39 4.39 0 0 1-1.543-1.098c-0.418-0.467-0.743-1.013-0.966-1.644s-0.333-1.311-0.333-2.037c0-0.749 0.112-1.438 0.333-2.08 0.224-0.642 0.541-1.199 0.959-1.671a4.384 4.384 0 0 1 1.543-1.12 5.032 5.032 0 0 1 2.065-0.41c0.514 0 1.009 0.081 1.485 0.233 0.479 0.154 0.912 0.382 1.299 0.68s0.707 0.669 0.955 1.109a3.802 3.802 0 0 1 0.461 1.512h-2.091c-0.132-0.557-0.382-0.977-0.754-1.257a2.176 2.176 0 0 0-1.357-0.418c-0.494 0-0.912 0.096-1.257 0.286s-0.626 0.445-0.839 0.769c-0.212 0.324-0.371 0.689-0.468 1.099s-0.148 0.832-0.147 1.272c0 0.418 0.047 0.828 0.147 1.226 0.096 0.398 0.255 0.754 0.468 1.071 0.212 0.318 0.494 0.573 0.839 0.765s0.765 0.286 1.257 0.286c0.727 0 1.29-0.186 1.686-0.552 0.398-0.367 0.626-0.897 0.695-1.597h-2.207V11.552h4.187v5.396h-1.396l-0.224-1.129a3.23 3.23 0 0 1-1.294 1.053z m6.476-9.905v8.123H53.838v1.852h-7.056V6.967h2.189zM6.391 11.997c0-1.586 0.767-3.077 2.12-4.388l2.48 9.44h1.709l2.404-8.532 2.371 8.532h1.713l2.954-10.861h-1.923l-1.926 8.331-2.323-8.333H14.207l-2.324 8.331-1.878-8.123c3.33-2.292 8.651-3.78 14.644-3.78 5.618 0 10.655 1.183 14.003 3.232-3.65-3.433-10.21-5.842-17.702-5.846C9.468 0 0.162 5.37 0.162 11.997s9.306 12.003 20.784 12.003c7.465 0 14.003-2.404 17.668-5.815-3.348 2.037-8.367 3.194-13.965 3.194-10.087-0.002-18.259-4.198-18.258-9.382z m20.562-1.237a2.648 2.648 0 0 0-0.993-0.859 3.082 3.082 0 0 0-1.391-0.302c-0.584 0-1.109 0.105-1.566 0.313a2.937 2.937 0 0 0-1.093 0.866c-0.546 0.696-0.832 1.677-0.832 2.838 0 0.514 0.074 1.002 0.217 1.438a3.355 3.355 0 0 0 0.637 1.152c0.584 0.68 1.416 1.04 2.409 1.04 0.521 0 0.944-0.054 1.299-0.166 0.309-0.096 0.514-0.224 0.685-0.333a3.035 3.035 0 0 0 0.993-1.094c0.201-0.371 0.302-0.722 0.324-0.901l0.016-0.123h-1.416l-0.005 0.101c-0.038 0.461-0.642 1.284-1.72 1.283-1.539 0-1.906-1.114-1.932-2.095h5.158v-0.112a7.045 7.045 0 0 0-0.191-1.713 4.115 4.115 0 0 0-0.599-1.333z m-2.547 0.112c1.141 0 1.751 0.615 1.863 1.878h-3.693c0.056-1.024 0.868-1.879 1.83-1.878z m10.462 0.928a3.523 3.523 0 0 0-0.599-1.152 2.796 2.796 0 0 0-0.978-0.774 3.042 3.042 0 0 0-1.31-0.282 2.552 2.552 0 0 0-1.188 0.287 2.46 2.46 0 0 0-0.774 0.626v-3.333h-1.411v9.87h1.342v-0.673a2.156 2.156 0 0 0 0.472 0.461c0.382 0.275 0.854 0.414 1.4 0.414 0.588 0 1.12-0.132 1.565-0.394 0.398-0.233 0.738-0.568 1.002-0.993a4.316 4.316 0 0 0 0.526-1.306 5.949 5.949 0 0 0 0.154-1.349 4.442 4.442 0 0 0-0.201-1.402z m-1.268 1.603c0 0.774-0.154 1.422-0.452 1.879a1.525 1.525 0 0 1-1.353 0.727c-0.843 0-1.832-0.588-1.832-2.254 0-0.796 0.101-1.411 0.302-1.879 0.291-0.673 0.785-0.997 1.501-0.998 0.765 0 1.279 0.297 1.566 0.917 0.237 0.508 0.268 1.129 0.268 1.608z"/></svg>