<svg fill="#2ECCAA" role="img" viewBox="0 0 33 24" xmlns="http://www.w3.org/2000/svg"><title>Weblate</title><path d="M13.343 0.939c-2.532 1.607-3.794 4.746-3.821 7.825-0.019 3.549 0.899 7.1 2.684 9.864 1.264 1.971 3.022 3.666 5.18 4.608a9.374 9.374 0 0 0 7.625-0.095c2.697-1.252 4.757-3.686 6.026-6.461 2.169-4.75 2.219-10.43 0.162-15.252-1.547 0.618-2.925-0.366-2.924-0.366s0.004 1.515-1.463 2.276c1.506 3.527 1.469 7.72-0.04 11.157-0.726 1.654-1.834 3.193-3.373 4.065-1.238 0.702-2.755 0.844-4.121 0.248-1.812-0.79-3.096-2.517-3.903-4.394-0.629-1.441-1.056-3.304-1.083-5.236-0.05-2.328 0.983-4.312 2.208-4.346 0.84-0.032 1.927 1.24 2.158 3.288 0.213 2.084-0.239 5.023-1.585 7.413 0.914 1.465 2.39 2.674 3.984 2.666 1.872-3.157 2.467-6.631 2.421-9.435-0.027-3.079-1.29-6.215-3.821-7.825-1.94-1.225-4.285-1.28-6.314 0zM4.723 1.062s-1.375 0.986-2.921 0.365c-2.058 4.825-2.009 10.503 0.162 15.253 1.269 2.776 3.328 5.209 6.025 6.461a9.385 9.385 0 0 0 7.458 0.168 12.315 12.315 0 0 1-2.363-1.965 15.096 15.096 0 0 1-1.711-2.198c-1.037-0.108-2.023-0.651-2.705-1.233-1.954-1.638-3.312-4.696-3.554-7.967-0.162-2.208 0.189-4.529 1.074-6.608C4.72 2.577 4.723 1.062 4.723 1.062z"/></svg>