<svg fill="#7DA0D0" role="img" viewBox="0 0 22 24" xmlns="http://www.w3.org/2000/svg"><title>Webmin</title><path d="M8.301 0c-1.55 0.006-2.66 1.157-2.503 3.006 0.102 1.228 0.208 2.474 0.312 3.73-1.08 0.455-2.218 0.933-3.428 1.445-1.255 0.536-2.122 1.609-2.457 2.885-0.34 1.301-0.135 2.808 0.723 4.143 0.764 1.195 1.856 2.006 3.255 2.446-0.08 1.091 0.03 2.079 0.34 2.954a5.464 5.464 0 0 0 0.533 1.098c0.798 1.268 1.978 2.029 3.183 2.235 1.184 0.203 2.38-0.13 3.294-0.999 0.98-0.945 1.907-1.837 2.791-2.683 1.047 0.629 2.055 1.236 3.036 1.827 1.605 0.957 3.244-0.084 3.631-2.115 0.162-0.847 0.089-1.793-0.211-2.863 0.571-0.351 0.926-0.901 1.066-1.671 0.306-1.633-0.503-3.781-1.826-4.879a944.463 944.463 0 0 0-2.166-1.785c-0.003-0.019-0.371-2.106-0.551-3.11-0.306-1.724-1.798-3.539-3.374-4.04-0.722-0.231-1.394-0.159-2.036 0.224-0.778-0.824-1.592-1.379-2.479-1.663C9.04 0.059 8.658-0.001 8.301 0z m1.018 2.48a1.322 1.322 0 0 1 0.381 0.047c0.466 0.125 0.911 0.49 1.155 0.932 0.199 0.368 0.29 0.67 0.37 1.298 0.132 1.03 0.267 2.074 0.404 3.143 0.014 0.098 0.027 0.195 0.038 0.293 0.115 0.889 0.644 1.528 1.329 1.619 0.66 0.088 1.01-0.43 0.89-1.261a12.193 12.193 0 0 0-0.037-0.276 2387.944 2387.944 0 0 0-0.442-3.006c-0.064-0.425-0.084-0.75-0.049-0.96 0.051-0.465 0.421-0.708 0.895-0.579 0.479 0.131 0.927 0.572 1.134 1.098 0.107 0.266 0.155 0.472 0.236 0.964 0.157 0.941 0.312 1.89 0.472 2.867 0.118 0.638 0.177 1.202 1.045 1.805 0.73 0.574 1.442 1.14 2.141 1.686 0.421 0.331 0.573 0.484 0.739 0.718 0.269 0.38 0.382 0.933 0.288 1.358-0.087 0.393-0.341 0.628-0.659 0.59-0.26-0.031-0.479-0.138-0.924-0.465-0.733-0.55-1.484-1.113-2.259-1.684-0.068-0.048-0.144-0.101-0.213-0.152-0.645-0.476-1.209-0.384-1.424 0.266-0.223 0.666 0.09 1.448 0.754 1.913 0.071 0.049 0.153 0.107 0.223 0.158 0.809 0.567 1.605 1.121 2.38 1.66 0.329 0.229 0.573 0.444 0.735 0.637 0.357 0.409 0.528 1.081 0.404 1.643-0.133 0.593-0.514 0.902-0.979 0.796-0.234-0.05-0.411-0.145-0.831-0.417-0.817-0.53-1.657-1.079-2.523-1.637a5.084 5.084 0 0 1-0.237-0.159c-0.272-0.167-0.536-0.243-0.768-0.234h-0.002c-0.26-0.017-0.531 0.077-0.792 0.286-0.073 0.059-0.146 0.117-0.213 0.181-0.808 0.665-1.646 1.374-2.535 2.121-0.48 0.401-0.696 0.558-1.017 0.671-0.646 0.246-1.359-0.03-1.805-0.74-0.421-0.692-0.403-1.589 0.033-2.154 0.185-0.252 0.498-0.539 0.93-0.845 0.94-0.672 1.83-1.306 2.676-1.913a10.921 10.921 0 0 0 0.228-0.158c0.642-0.455 0.764-1.261 0.312-2.012-0.441-0.749-1.17-0.976-1.861-0.558a5.379 5.379 0 0 0-0.234 0.145c-0.895 0.549-1.834 1.128-2.824 1.739-0.638 0.385-0.976 0.508-1.452 0.531-0.589 0.03-1.205-0.332-1.564-0.903-0.407-0.636-0.421-1.427-0.03-1.918 0.219-0.288 0.455-0.463 1.129-0.809a274.597 274.597 0 0 1 2.996-1.526c0.081-0.049 0.163-0.083 0.246-0.125a1.073 1.073 0 0 0 0.16-0.097c0.425-0.188 0.632-0.657 0.566-1.293-0.012-0.106-0.019-0.209-0.037-0.311a375.454 375.454 0 0 0-0.351-3.317c-0.069-0.66-0.063-0.892 0.021-1.154 0.1-0.312 0.39-0.492 0.752-0.502zM6.11 6.737l0.002 0.025c-0.001-0.001-0.002-0.001-0.003-0.004v-0.005a0.236 0.236 0 0 0 0-0.014s0.001-0.001 0.001-0.002z m0.003 0.041c0.003 0.03 0.006 0.06 0.008 0.091-0.003-0.027-0.006-0.052-0.011-0.083 0-0.002 0.002-0.005 0.003-0.008z m0.012 0.136l0.002 0.026h-0.002V6.924c0-0.003 0.002-0.005-0.001-0.008 0 0 0.001-0.001 0.001-0.002z m0.004 0.042c0.001 0.005 0 0.01 0 0.015 0-0.001-0.001-0.003 0-0.003-0.001-0.003-0.003-0.005-0.003-0.008 0.003-0.001 0.003-0.003 0.003-0.004z"/></svg>