<svg fill="#036CB5" role="img" viewBox="0 0 25 24" xmlns="http://www.w3.org/2000/svg"><title>WebMoney</title><path d="M12.442 0c1.901 0 3.71 0.436 5.334 1.215 0.255 0.115 0.511 0.252 0.764 0.39l-1.113 0.986-1.669-1.72-2.875 2.522L11.19 1.582 5.903 6.281l3.385 3.691-1.322 1.146 3.34 3.691-1.321 1.145 4.777 5.25 2.827-2.568 2.459 2.752c-0.487 0.367-1.021 0.734-1.599 1.054a12.228 12.228 0 0 1-5.983 1.558C5.763 24 0.315 18.614 0.315 11.99 0.291 5.41 5.741 0 12.442 0zM10.215 11.256l2.899-2.568 2.598 2.866-2.899 2.567z m2.065 4.951l2.875-2.59 2.621 2.865-2.899 2.568zM8.153 6.373l2.898-2.567 2.597 2.865-2.899 2.567z m5.309-1.376l2.157-1.925L17.567 5.204l-2.157 1.948z m3.85 8.826l2.156-1.926 1.948 2.154-2.157 1.927z m1.901 4.333l2.157-1.926 1.947 2.132-2.156 1.948z m0.881-9.904l1.438-1.283 1.298 1.421-1.437 1.284zM18.239 4.012l1.438-1.307 1.299 1.444-1.439 1.284z m3.687 8.482l1.438-1.284L24.685 12.631l-1.46 1.284z m-6.469-3.187l2.157-1.925 1.947 2.131-2.156 1.926Z"/></svg>