<svg fill="#8DD6F9" role="img" viewBox="0 0 22 24" xmlns="http://www.w3.org/2000/svg"><title>Webpack</title><path d="M21.199 18.498l-9.77 5.502v-4.285l6.087-3.334 3.683 2.117z m0.668-0.603V6.388l-3.575 2.055v7.396z m-21.066 0.603l9.77 5.502v-4.285L4.484 16.381l-3.683 2.117z m-0.668-0.603V6.388l3.575 2.055v7.396z m0.418-12.251l10.02-5.644v4.143L4.152 7.659l-0.049 0.028z m20.898 0l-10.02-5.644v4.143l6.419 3.516 0.049 0.028 3.552-2.043z m-10.878 13.096l-6.005-3.287V8.938l6.005 3.453v6.349z m0.858 0l6.005-3.287V8.938l-6.005 3.453zM4.972 8.185l6.029-3.302L17.03 8.185l-6.029 3.466z"/></svg>