<svg fill="#333333" role="img" viewBox="0 0 25 24" xmlns="http://www.w3.org/2000/svg"><title>WebRTC</title><path d="M12.5 0c-2.915 0-5.305 2.24-5.546 5.093a5.579 5.579 0 0 0-1.258-0.145C2.622 4.948 0.129 7.441 0.129 10.516c0 2.289 1.382 4.255 3.358 5.11a5.539 5.539 0 0 0-0.76 2.807c0 3.074 2.492 5.567 5.567 5.567 1.714 0 3.247-0.775 4.267-1.994 1.021 1.218 2.554 1.994 4.268 1.994 3.075 0 5.567-2.493 5.567-5.567 0-1.002-0.266-1.941-0.729-2.753C23.56 14.79 24.871 12.868 24.871 10.639c0-3.074-2.492-5.568-5.567-5.568-0.43 0-0.848 0.051-1.249 0.143C17.872 2.304 15.456 0 12.5 0z m-5.894 7.081h10.92c0.769 0 1.394 0.624 1.394 1.39v7.883c0 0.767-0.625 1.39-1.394 1.39h-3.72l-7.464 3.658 1.135-3.658h-0.871c-0.769 0-1.394-0.623-1.394-1.39V8.471c0-0.767 0.625-1.39 1.394-1.39Z"/></svg>