<svg fill="#00D564" role="img" viewBox="0 0 26 24" xmlns="http://www.w3.org/2000/svg"><title>WEBTOON</title><path d="M16.167 15.416c0.728 0 1.062-0.423 1.062-1.101 0-0.577-0.323-1.058-1.031-1.058-0.608 0-0.955 0.423-0.955 1.064 0 0.569 0.335 1.095 0.924 1.095zM11.046 15.612c0.8 0 1.166-0.464 1.166-1.209 0-0.633-0.354-1.162-1.133-1.162-0.667 0-1.05 0.466-1.05 1.168 0 0.625 0.369 1.203 1.017 1.203zM25.571 10.116l-3.3 0.031 0.87-10.147L2.48 3.207l1.766 6.545H0.429l3.912 12.034 9.127-1.344v3.558l10.594-4.862L25.571 10.116z m-9.537-3.765c0-0.051 0.041-0.096 0.092-0.098l1.968-0.131 0.468-0.03c0.549-0.037 1.712 0.066 1.711 1.294 0 0.869-0.648 1.24-0.648 1.241s0.786 0.198 0.741 1.144c0 1.678-2.035 1.455-2.036 1.455l-0.236-0.006-1.998-0.056a0.093 0.093 0 0 1-0.091-0.094l0.029-4.719z m-3.85 0.255c0-0.049 0.041-0.094 0.092-0.096l3.21-0.213a0.084 0.084 0 0 1 0.091 0.084v0.988c0 0.051-0.041 0.094-0.091 0.096l-1.99 0.084a0.098 0.098 0 0 0-0.093 0.094l-0.005 0.413a0.087 0.087 0 0 0 0.09 0.088l1.724-0.069a0.086 0.086 0 0 1 0.091 0.088l-0.021 1.06a0.093 0.093 0 0 1-0.094 0.09h-1.707a0.093 0.093 0 0 0-0.092 0.092v0.436c0 0.049 0.041 0.092 0.092 0.092l1.959 0.035a0.094 0.094 0 0 1 0.091 0.094v0.996a0.088 0.088 0 0 1-0.091 0.088l-3.209-0.129a0.094 0.094 0 0 1-0.091-0.094l0.044-4.317z m-6.296 0.327l1.021-0.067a0.106 0.106 0 0 1 0.11 0.084l0.48 2.31c0.01 0.049 0.028 0.049 0.041 0l0.603-2.39a0.138 0.138 0 0 1 0.114-0.094l0.964-0.064a0.113 0.113 0 0 1 0.115 0.082l0.59 2.453c0.013 0.049 0.03 0.049 0.043 0l0.629-2.539a0.137 0.137 0 0 1 0.113-0.097l1.043-0.067c0.05-0.004 0.081 0.032 0.069 0.082l-1.142 4.299a0.118 0.118 0 0 1-0.115 0.086l-1.174-0.032a0.126 0.126 0 0 1-0.114-0.09l-0.56-2.059c-0.013-0.049-0.035-0.049-0.048 0l-0.546 2.026a0.126 0.126 0 0 1-0.116 0.086l-1.161-0.033a0.129 0.129 0 0 1-0.114-0.092l-0.914-3.79c-0.012-0.049 0.02-0.092 0.069-0.094z m-0.302 10.081v-3.731a0.093 0.093 0 0 0-0.091-0.092l-1.311-0.03a0.1 0.1 0 0 1-0.096-0.095l-0.048-1.178a0.086 0.086 0 0 1 0.087-0.09l4.24 0.1c0.05 0 0.091 0.043 0.089 0.093l-0.023 1.139a0.097 0.097 0 0 1-0.094 0.093l-1.193 0.004a0.094 0.094 0 0 0-0.091 0.092v3.611c0 0.051-0.041 0.094-0.091 0.096l-1.286 0.074a0.084 0.084 0 0 1-0.092-0.086z m2.969-2.492c0-2.009 1.384-2.6 2.531-2.601s2.45 0.765 2.45 2.427c0 1.99-1.449 2.6-2.531 2.6-1.082 0.001-2.45-0.758-2.45-2.426z m5.384-0.121c0-1.829 1.221-2.344 2.264-2.344s2.23 0.696 2.231 2.207c0 1.811-1.319 2.368-2.303 2.367s-2.193-0.712-2.192-2.23z m7.604 1.792a0.183 0.183 0 0 1-0.146-0.067l-1.243-1.708c-0.03-0.041-0.056-0.032-0.056 0.019v1.749c0 0.049-0.041 0.094-0.09 0.096l-1.102 0.064a0.086 0.086 0 0 1-0.091-0.086l0.041-4.024c0-0.049 0.041-0.09 0.092-0.088l0.923 0.021a0.21 0.21 0 0 1 0.144 0.077l1.354 1.993c0.028 0.043 0.053 0.035 0.054-0.015l0.033-1.934a0.091 0.091 0 0 1 0.093-0.09l1.009 0.03c0.049 0 0.089 0.043 0.087 0.095l-0.145 3.724a0.102 0.102 0 0 1-0.095 0.096l-0.862 0.048zM17.461 8.052l0.758-0.015s0.492 0.019 0.492-0.455c0-0.374-0.431-0.346-0.43-0.345l-0.819 0.008a0.094 0.094 0 0 0-0.093 0.092v0.627a0.087 0.087 0 0 0 0.092 0.088zM17.43 10.106h1.037c0.025 0 0.367-0.053 0.367-0.423 0-0.307-0.24-0.421-0.462-0.417l-0.941 0.03a0.093 0.093 0 0 0-0.091 0.094v0.625a0.09 0.09 0 0 0 0.09 0.091z"/></svg>