<svg fill="#FFBE00" role="img" viewBox="0 0 25 24" xmlns="http://www.w3.org/2000/svg"><title>Weights &amp; Biases</title><path d="M2.98 0a1.55 1.55 0 1 0 0 3.1 1.55 1.55 0 0 0 0-3.1z m19.04 0a1.55 1.55 0 1 0 0 3.101 1.55 1.55 0 0 0 0-3.101zM12.5 2.295a1.55 1.55 0 1 0 0 3.1 1.55 1.55 0 0 0 0-3.1zM2.98 5.272a2.48 2.48 0 1 0 0 4.96 2.48 2.48 0 0 0 0-4.96z m19.04 0a2.48 2.48 0 1 0 0 4.96 2.48 2.48 0 0 0 0-4.96zM12.5 8.496a1.55 1.55 0 1 0 0 3.1 1.55 1.55 0 0 0 0-3.1z m-9.52 3.907a1.55 1.55 0 1 0 0 3.1 1.55 1.55 0 0 0 0-3.1z m19.04 0a1.55 1.55 0 1 0 0 3.102 1.55 1.55 0 0 0 0-3.102zM12.5 13.767a2.48 2.48 0 1 0 0 4.962 2.48 2.48 0 0 0 0-4.962z m-9.52 3.907a2.48 2.48 0 1 0 0.001 4.962 2.48 2.48 0 0 0 0-4.962z m19.04 0.93a1.55 1.55 0 1 0 0 3.102 1.55 1.55 0 0 0 0-3.101zM12.5 20.9a1.55 1.55 0 1 0 0 3.1 1.55 1.55 0 0 0 0-3.1Z"/></svg>