<svg fill="#FFCD00" role="img" viewBox="0 0 30 24" xmlns="http://www.w3.org/2000/svg"><title>Welcome to the Jungle</title><path d="M27.833 2.071c-1.347-2.188-5.263-3.147-8.112-0.321-0.16 0.163-0.37 0.662 0.264 1.334 1.326 1.388 8.24 8.514 5.682 14.738-1.242 3.026-4.777 2.505-6.105-2.509a28.015 28.015 0 0 1-0.572-11.319s0.127-0.476-0.078-0.628c-0.141-0.105-0.369-0.06-0.661 0.399-0.073 0.116-0.058 0.092-0.128 0.215l-0.004 0.002c-1.96 3.248-3.954 7.098-4.893 8.544 0.459-2.179-0.122-5.176-1.027-7.685l-0.172-0.453c-0.836-2.146-1.842-3.594-2.146-3.921-0.036-0.04-0.127-0.114-0.426-0.114H0.98c-0.592 0-0.541 0.498-0.354 0.678 2.25 2.632 8.808 12.498 5.768 22.18-0.234 0.748 0.133 1.141 0.739 0.369 2.666-3.396 5.972-9.181 8.369-13.518-0.528 1.504-0.993 3.178-1.243 4.934-0.526 3.703 0.588 6.489 1.404 7.951 0.417 0.748 0.97 1.206 2.403 0.995 7.305-1.069 9.74-7.392 10.64-10.597 1.64-5.847 0.439-9.145-0.873-11.274"/></svg>