<svg fill="#000000" role="img" viewBox="0 0 50 24" xmlns="http://www.w3.org/2000/svg"><title>Wellfound</title><path d="M49.943 3.95c0.131-2.867-3.351-4.939-5.811-3.459-2.557 1.243-2.748 5.239-0.324 6.723 2.495 1.792 6.226-0.187 6.135-3.264z m0 16.107c0.131-2.869-3.351-4.941-5.811-3.461-2.557 1.243-2.748 5.239-0.324 6.723 2.495 1.794 6.226-0.187 6.135-3.264z m-42.617 3.663L0.054 0.283h6.771l4.295 16.851 4.667-16.851h6.791l4.665 16.851 4.293-16.851h6.771l-7.359 23.437H23.732c-1.518-5.64-3.035-11.28-4.548-16.922l-4.643 16.922H7.33z"/></svg>