<svg fill="#72D44C" role="img" viewBox="0 0 25 24" xmlns="http://www.w3.org/2000/svg"><title>WEMO</title><path d="M4.801 0C2.425 0 0.5 1.925 0.5 4.302v15.396C0.5 22.073 2.425 24 4.801 24H20.197c2.376 0 4.303-1.927 4.303-4.301H24.5V4.302C24.5 1.926 22.573 0 20.197 0z m12.912 4.167c2.088 0 3.788 1.621 3.789 3.613 0 0.095-0.004 0.188-0.011 0.28l-0.016 0.175H15.151l0.114 0.325c0.354 0.994 1.337 1.663 2.448 1.663 0.829 0 1.614-0.383 2.099-1.024l0.109-0.146 0.99 0.674-0.12 0.161c-0.711 0.943-1.862 1.505-3.078 1.505-2.091 0-3.791-1.621-3.791-3.613 0-1.992 1.7-3.613 3.791-3.613z m-13.937 0.132h1.209V8.729c0 0.73 0.593 1.324 1.324 1.324 0.73 0 1.324-0.593 1.325-1.324V4.299h1.207v4.43c0 0.73 0.594 1.324 1.324 1.324 0.73 0 1.324-0.593 1.324-1.324V4.299h1.209v4.43c0 1.396-1.136 2.532-2.533 2.532-0.648 0-1.289-0.26-1.76-0.714l-0.168-0.162-0.168 0.162c-0.471 0.454-1.112 0.714-1.76 0.714-1.397 0-2.534-1.135-2.533-2.532z m13.937 1.024c-0.987 0-1.882 0.517-2.336 1.349l-0.195 0.358h5.059l-0.194-0.358c-0.454-0.832-1.348-1.348-2.334-1.349z m-0.001 7.233c2.089 0 3.789 1.622 3.789 3.614 0 1.993-1.7 3.614-3.789 3.613-2.09 0-3.789-1.621-3.789-3.613 0-1.992 1.699-3.614 3.789-3.614z m-11.403 0.133c0.648 0 1.291 0.26 1.762 0.713l0.166 0.163 0.169-0.163c0.472-0.454 1.113-0.713 1.759-0.713 1.396 0 2.532 1.136 2.533 2.532v4.43h-1.208v-4.43c0-0.73-0.595-1.325-1.324-1.325-0.731 0-1.324 0.595-1.325 1.325v4.43H7.634v-4.43c0-0.73-0.593-1.325-1.325-1.325-0.73 0-1.323 0.595-1.323 1.325v4.43h-1.209v-4.43c0-1.395 1.137-2.532 2.532-2.532z m11.403 1.038c-1.422 0-2.579 1.096-2.579 2.443 0 1.347 1.157 2.442 2.579 2.442 1.422 0 2.578-1.096 2.578-2.442 0-1.347-1.156-2.443-2.578-2.443Z"/></svg>