<svg fill="#995DFF" role="img" viewBox="0 0 40 24" xmlns="http://www.w3.org/2000/svg"><title>Western Digital</title><path d="M2.914 0C0.776 0.006-0.311 2.574 1.174 4.113c1.883 1.878 3.762 3.759 5.643 5.639 3.912 3.872 7.819 7.749 11.711 11.641l1.74 1.813c1.529 1.549 4.164 0.432 4.115-1.743v-5.57c-0.017-1.341-1.101-2.423-2.442-2.438h-6.757c-2.355 0.015-4.267-1.897-4.252-4.252v-6.764c-0.017-1.341-1.101-2.423-2.442-2.439Zm15.058 0c-2.14 0.003-3.229 2.572-1.744 4.113 6.393 6.385 12.778 12.778 19.167 19.166 1.528 1.548 4.161 0.434 4.116-1.74v-5.576c-0.017-1.341-1.101-2.423-2.442-2.438-2.277 0.022-4.553-0.03-6.83-0.07-2.354 0.014-4.264-1.898-4.249-4.252v-6.764c-0.017-1.341-1.101-2.423-2.442-2.439Zm13.451 0c-2.198-0.012-3.273 2.675-1.673 4.183l5.579 5.575c1.54 1.486 4.109 0.397 4.112-1.743V2.439c-0.017-1.34-1.099-2.422-2.439-2.439z"/></svg>