<svg fill="#409FFF" role="img" viewBox="0 0 52 24" xmlns="http://www.w3.org/2000/svg"><title>WeTransfer</title><path d="M30.001 11.764c0-7.295 5.177-11.647 11.885-11.648C47.882 0.116 51.883 3.177 51.883 7.411c0 4.001-3.412 6.589-7.178 6.59-2.118 0-3.645-0.354-4.707-1.178-0.352-0.354-0.587-0.235-0.586 0.118 0 1.529 0.587 2.705 1.529 3.764 0.824 0.824 2.351 1.413 3.764 1.413 1.531 0 2.826-0.354 4.001-0.942 1.176-0.587 2.118-0.352 2.705 0.588 0.707 1.057-0.235 2.47-1.057 3.413-1.531 1.646-4.471 2.823-8.238 2.823-7.646-0.237-12.118-5.414-12.117-12.236z m-15.646 4.825c0.705 0 1.176 0.352 1.646 1.175l2.118 3.413c0.824 1.294 1.529 2.235 3.058 2.234 1.531 0 2.353-0.589 3.059-2.351a45.532 45.532 0 0 0 2.825-8.354c1.057-4.001 1.529-6.354 1.529-8.353s-0.589-3.177-2.825-3.531c-2.94-0.587-7.057-0.822-11.41-0.822-4.355 0-8.472 0.235-11.412 0.705C0.706 1.176 0.117 2.353 0.117 4.35c0 2.002 0.472 4.355 1.413 8.356a61.934 61.934 0 0 0 2.825 8.352c0.822 1.764 1.527 2.353 3.057 2.353 1.531 0 2.237-0.94 3.06-2.234l2.116-3.413c0.589-0.705 1.059-1.176 1.767-1.175z"/></svg>