<svg fill="#4E49EE" role="img" viewBox="0 0 31 24" xmlns="http://www.w3.org/2000/svg"><title>WezTerm</title><path d="M4.264 7.527c0-0.802 0.798-1.296 2.732-1.296l-0.643 3.548c-1.198-0.802-2.09-1.543-2.09-2.252z m5.158 8.761c0 0.833-0.829 1.389-2.732 1.48l0.674-3.763c1.198 0.803 2.059 1.512 2.06 2.283z m-3.378 7.712l0.584-3.485c4.637-0.432 6.448-2.314 6.448-4.382 0-2.128-2.579-3.794-4.943-5.243l0.86-4.567c0.983 0.093 2.149 0.278 3.531 0.556l0.399-3.177c-1.043-0.154-2.027-0.216-2.947-0.278L10.682 0.031l-3.041-0.031-0.583 3.454C2.421 3.825 0.609 5.769 0.609 7.836c0 2.098 2.579 3.702 4.943 5.089l-0.86 4.783c-1.106-0.062-2.456-0.247-4.022-0.526L0.055 20.36c1.321 0.154 2.548 0.247 3.655 0.278l-0.675 3.331z m20.018-2.438h3.44c0.43-3.609 1.043-10.889 1.443-19.126h-3.286c-0.091 1.943-0.43 13.512-0.553 14.468h-0.092c-0.829-3.115-1.505-5.645-2.333-8.729h-1.874c-0.798 3.084-1.351 5.398-2.181 8.729h-0.123c-0.091-0.956-0.614-12.523-0.676-14.466h-3.408c0.399 8.236 0.982 15.516 1.412 19.126h3.378l2.366-9.164z"/></svg>