<svg fill="#8B8B8B" role="img" viewBox="0 0 51 24" xmlns="http://www.w3.org/2000/svg"><title>Wii</title><path d="M37.845 0.001c-1.524-0.029-2.781 1.181-2.81 2.703v0.038c0.025 1.531 1.28 2.75 2.81 2.728 1.637 0 2.936-1.211 2.935-2.728 0.002-1.531-1.296-2.741-2.935-2.741z m9.848 0c-1.562 0-2.844 1.213-2.844 2.741 0 1.487 1.282 2.729 2.846 2.728 1.604 0 2.896-1.211 2.896-2.728 0-1.531-1.292-2.741-2.898-2.741z m-31.029 1.135c-1.564 0-2.618 0.782-3.166 2.54-0.506 1.792-3.751 14.264-3.751 14.265L5.49 1.33H0.409s4.88 17.697 5.545 19.772c0.504 1.6 1.756 2.898 3.555 2.898 2.11 0 3.092-1.531 3.521-2.898 0.47-1.413 3.634-13.091 3.634-13.091s3.168 11.686 3.594 13.091c0.47 1.365 1.443 2.898 3.517 2.898 1.838 0 3.044-1.298 3.596-2.898 0.659-2.07 5.556-19.772 5.556-19.772h-5.123l-4.226 16.611s-3.241-12.472-3.788-14.265c-0.506-1.765-1.61-2.54-3.126-2.54z m18.835 7.032v15.671h4.855v-15.671h-4.855z m9.812 0v15.671h4.845v-15.671h-4.845z"/></svg>