<svg fill="#8B8B8B" role="img" viewBox="0 0 81 24" xmlns="http://www.w3.org/2000/svg"><title>Wii U</title><path d="M37.584 0c-1.564 0-2.808 1.207-2.807 2.737 0.024 1.527 1.281 2.747 2.807 2.731 1.641 0 2.936-1.204 2.936-2.724 0-1.53-1.295-2.744-2.936-2.744z m9.853 0c-1.564 0-2.852 1.207-2.851 2.737 0 1.486 1.288 2.731 2.851 2.731 1.604 0 2.895-1.204 2.896-2.724 0-1.53-1.295-2.744-2.896-2.744z m12.291 0.037c-1.782 0-3.329 1.127-3.329 2.885v11.148c0 2.72 1.883 4.335 4.631 4.334h15.626c2.317 0 4.197-1.604 4.197-3.907V3.07c0-1.385-1.036-2.892-2.313-2.892h-3.615v9.413c0 7.136-12.446 7.075-12.446 0.134v-9.685h-2.751z m5.646 0v8.249c0 5.501 6.504 4.715 6.504 0.861V0.044h-6.504v-0.007zM16.399 1.137c-1.564 0-2.609 0.78-3.154 2.542-0.511 1.792-3.753 14.265-3.753 14.265l-4.261-16.612H0.147s4.879 17.702 5.548 19.776c0.504 1.601 1.752 2.892 3.558 2.892 2.108 0 3.084-1.527 3.514-2.892 0.471-1.416 3.632-13.098 3.632-13.098s3.168 11.689 3.595 13.098c0.471 1.365 1.449 2.892 3.521 2.892 1.839 0 3.047-1.295 3.598-2.892 0.659-2.075 5.549-19.776 5.548-19.776H27.547l-4.231 16.612s-3.238-12.472-3.783-14.265c-0.504-1.769-1.611-2.542-3.127-2.542h-0.007z m18.848 7.028v15.677h4.846V8.165h-4.846z m9.806 0v15.677h4.849V8.165h-4.849z"/></svg>