<svg fill="#1976D2" role="img" viewBox="0 0 32 24" xmlns="http://www.w3.org/2000/svg"><title>Wiki.js</title><path d="M23.582 14.035c0.193 0.128 0.376 0.264 0.545 0.409 2.423 2.091 4.087 6.086 3.375 9.556-1.426-0.333-7.512-1.379-9.983-4.422-1.189-1.464-1.785-2.72-2.051-3.771a7.385 7.385 0 0 0 0.045-0.286c0.116 0.259 0.257 0.457 0.409 0.609 0.314 0.314 0.681 0.438 1.001 0.486 0.397 0.06 0.776-0.008 1.053-0.088l0.002 0.001c0.065-0.02 0.566-0.152 1.124-0.447 0.425-0.226 2.625-1.217 4.48-2.047Zm-9.651 1.876C12.283 18.008 8.942 21.07 1.118 20.387c0.286-1.95 1.712-3.946 3.281-5.372 0.495-0.451 1.184-0.904 1.968-1.318 0.374 0.22 0.782 0.434 1.227 0.635 3.515 1.596 5.101 1.308 6.392 0.749a1.699 1.699 0 0 0 0.071-0.033 8.046 8.046 0 0 0-0.126 0.863Zm5.427-0.604c0.497-0.446 1.146-1.197 1.808-2.038-0.508-0.196-1.132-0.485-1.724-0.772-0.782-0.379-1.706-0.37-2.71-0.412a6.124 6.124 0 0 1-1.051-0.135c0.018-0.161 0.035-0.322 0.05-0.482 0.081 0.136 0.88 0.075 1.138 0.075 0.463 0 2.119 0.044 4.018-0.751 1.898-0.795 3.333-2.23 3.95-4.215 0.62-1.987 0.288-4.04-0.22-5.165-0.221 0.927-1.899 3.112-2.517 3.752-0.618 0.639-3.112 3.001-3.884 3.818-0.915 0.967-0.899 1.036-1.741 1.702-0.264 0.248-0.652 0.525-0.736 0.693 0.035-0.442 0.051-0.882 0.035-1.304a10.003 10.003 0 0 0-0.042-0.683c0.421-0.077 0.741-0.682 0.741-1.126 0-0.293-0.139-0.323-0.354-0.299 0.098-1.169 0.499-5.128 1.639-5.595 0.285 0.142 1.086 0.089 0.848-0.386-0.238-0.476-1.078-0.097-1.413 0.348-0.366 0.489-1.25 2.674-1.202 5.651-0.148 0.018-0.227 0.043-0.421 0.044-0.224 0-0.42-0.052-0.566-0.066 0.044-2.974-0.933-4.93-1.098-5.449-0.157-0.49-0.642-0.779-1.021-0.779-0.191 0-0.356 0.073-0.435 0.234-0.238 0.474 0.6 0.545 0.885 0.403 0.923 0.42 1.511 4.599 1.639 5.59-0.163-0.008-0.26 0.046-0.26 0.304 0 0.406 0.222 0.988 0.591 1.102a0.578 0.578 0 0 0-0.009 0.04s-0.375 1.294-0.54 2.861a6.097 6.097 0 0 1-0.939-0.294c-0.933-0.374-1.771-0.762-2.639-0.74-0.868 0.024-1.785 0.03-2.358-0.047-0.572-0.076-0.848-0.196-0.848-0.196s-0.306 0.477 0.336 1.405c0.549 0.793 1.379 1.368 2.149 1.542 0.77 0.175 2.577 0.235 3.64-0.493 0.209-0.142 0.414-0.298 0.6-0.444a11.394 11.394 0 0 0-0.017 0.818c-0.378 0.984-0.746 2.605-0.35 4.363 0-0.001 0.916-1.101 1.028-3.866 0.008-0.188 0.012-0.354 0.013-0.501 0.068-0.324 0.135-0.677 0.194-1.044 0.094 0.176 0.197 0.362 0.306 0.54 0.668 1.101 2.341 1.791 3.114 1.947 0.119 0.025 0.244 0.042 0.373 0.05Zm-1.464 0.974c-0.246 0.072-0.582 0.131-0.932 0.077-0.274-0.041-0.588-0.144-0.856-0.413-0.221-0.22-0.408-0.548-0.524-1.032a12.857 12.857 0 0 0 0.051-1.071l0.064-0.318c0.736 1.118 2.438 1.827 3.236 1.989 0.047 0.01 0.094 0.018 0.143 0.026l-0.017 0.012c-0.757 0.542-0.993 0.657-1.165 0.73Zm8.278-3.684c-0.336 0.149-5.373 2.381-6.857 3.089 1.281-1.013 3.943-4.692 4.835-6.24 1.388 0.864 1.919 1.45 2.121 1.883 0.132 0.284 0.118 0.497 0.125 0.674a0.745 0.745 0 0 1-0.224 0.594Zm-12.042 2.118a2.099 2.099 0 0 1-0.249 0.125c-1.247 0.541-2.779 0.797-6.179-0.746-2.644-1.2-3.953-2.819-4.406-3.485 0.622 0.21 1.923 0.618 2.819 0.685 0.369 0.027 0.919 0.089 1.525 0.164 0.027 0.273 0.142 0.635 0.451 1.083l0.001 0.001c0.589 0.851 1.482 1.463 2.307 1.65 0.813 0.184 2.723 0.238 3.846-0.532a4.078 4.078 0 0 0 0.172-0.122l0.002 0.234a7.91 7.91 0 0 0-0.289 0.943Zm7.204-1.662a22.86 22.86 0 0 1-1.733-0.769c0.571 0.055 1.378 0.108 2.212 0.141-0.158 0.212-0.319 0.422-0.479 0.628Zm1.218-1.646c-0.157 0.222-0.32 0.448-0.487 0.675-0.315 0.024-0.625 0.039-0.927 0.05a37.97 37.97 0 0 1-0.968-0.063c0.795-0.085 1.605-0.329 2.382-0.662Zm0.288-0.412c-1.057 0.499-2.195 0.847-3.277 0.847-0.617 0-1.089 0.024-1.489 0.051v0.001c-0.423-0.041-0.869-0.051-1.332-0.07a4.647 4.647 0 0 1-0.198-0.012c0.133-0.003 0.251-0.008 0.325-0.008 0.474 0 2.172 0.044 4.119-0.77 1.971-0.826 3.457-2.317 4.099-4.38 0.484-1.55 0.405-3.14 0.112-4.329 0.599-0.439 1.124-0.851 1.499-1.189 0.655-0.589 0.971-0.958 1.109-1.136 0.26 0.269 0.933 1.129 0.895 2.794-0.047 2.106-0.792 4.166-1.962 5.43a11.893 11.893 0 0 1-1.727 1.48 15.656 15.656 0 0 0-0.841-0.552l-0.117-0.072-0.066 0.119c-0.24 0.434-0.654 1.078-1.149 1.796ZM6.541 3.919c-0.205 1.495 0.148 3.036 0.852 4.05 0.704 1.014 2.729 2.993 4.724 3.274 1.295 0.183 2.686 0.175 2.686 0.175s-0.775-0.753-1.456-2.169c-0.681-1.418-1.239-2.75-2.267-3.642-1.026-0.89-2.093-1.851-2.673-2.542-0.58-0.693-0.771-1.124-0.771-1.124s-0.857 0.229-1.095 1.978Zm18.692 5.945a11.975 11.975 0 0 0 1.699-1.464c0.426-0.46 0.799-1.022 1.105-1.653 1.719 0.19 3.136 0.485 3.648 0.567 0 0-0.887 2.576-5.157 3.95l-0.021-0.046c-0.158-0.34-0.503-0.776-1.274-1.354Zm-15.206 1.123a11.158 11.158 0 0 1-0.782-0.293c-2.166-0.906-3.804-2.541-4.508-4.807-0.651-2.093-0.382-4.249 0.119-5.58 0.294 0.711 0.991 1.751 1.65 2.627a4.679 4.679 0 0 0-0.225 0.949c-0.213 1.565 0.161 3.174 0.898 4.235 0.544 0.783 1.852 2.117 3.339 2.866-0.167 0.003-0.331 0.004-0.491 0.003Zm-2.298-0.101c-1.252-0.446-2.485-1.029-3.525-1.788C0.224 6.195 0.316 5.239 0.316 5.239s2.036-0.007 4.036 0.234c0.039 0.165 0.085 0.328 0.136 0.492 0.728 2.341 2.419 4.034 4.655 4.971l0.062 0.025a5.56 5.56 0 0 1-0.349-0.034h-0.002c-0.524-0.069-0.778-0.176-0.777-0.177l-0.205-0.09-0.121 0.188-0.022 0.038Zm8.897-2.078c0.112 0.022 0.178 0.076 0.178 0.19 0 0.257-0.316 0.654-0.78 0.78l-0.013-0.21a1.159 1.159 0 0 0 0.369-0.318c0.102-0.129 0.186-0.284 0.246-0.442Zm-2.079 0.008c0.043 0.131 0.099 0.257 0.168 0.369 0.08 0.127 0.175 0.235 0.284 0.313l-0.028 0.109c-0.361-0.122-0.554-0.383-0.554-0.609 0-0.102 0.046-0.156 0.13-0.182Zm-0.033-0.868c-0.359-1.067-1.039-2.643-1.967-2.848-0.387 0.094-1.226 0.125-0.903-0.189 0.322-0.314 1.418-0.063 1.677 0.283 0.19 0.254 0.972 1.053 1.321 2.271l0.042 0.296a0.423 0.423 0 0 0-0.17 0.187Zm1.9-0.348c0.328-1.294 1.162-2.142 1.358-2.406 0.257-0.346 1.354-0.597 1.677-0.283 0.323 0.315-0.516 0.284-0.903 0.189-0.902 0.199-1.568 1.694-1.936 2.757a0.476 0.476 0 0 0-0.087-0.077 0.484 0.484 0 0 0-0.12-0.057l0.011-0.123Zm6.277-3.539a12.907 12.907 0 0 1-0.779 0.921c-0.397 0.412-1.572 1.537-2.566 2.505 0.846-1.248 1.703-2.361 2.855-3.106 0.161-0.105 0.325-0.21 0.49-0.32Z"/></svg>