<svg fill="#006699" role="img" viewBox="0 0 20 24" xmlns="http://www.w3.org/2000/svg"><title>Wikiquote</title><path d="M8.152 12a4.037 4.037 0 1 1-8.075 0 4.037 4.037 0 0 1 8.075 0zM15.292 0.822c-0.286-0.287-0.581-0.56-0.885-0.822l-1.528 1.527C15.872 4.036 17.778 7.8 17.778 12s-1.906 7.964-4.899 10.473L14.407 24c0.304-0.262 0.6-0.535 0.886-0.822A15.705 15.705 0 0 0 19.923 12c0-4.223-1.644-8.192-4.63-11.178zM11.508 2.9L10.03 4.377a9.642 9.642 0 0 1 0 15.246l1.477 1.477a11.712 11.712 0 0 0 0-18.2z m-2.735 2.735L7.349 7.057c1.61 1.057 2.675 2.878 2.675 4.943s-1.065 3.886-2.675 4.943l1.423 1.422A7.884 7.884 0 0 0 12.005 12a7.884 7.884 0 0 0-3.233-6.365z"/></svg>