<svg fill="#006699" role="img" viewBox="0 0 26 24" xmlns="http://www.w3.org/2000/svg"><title>Wikivoyage</title><path d="M24.792 14.353c-0.465 0-0.845-0.148-1.14-0.443-0.295-0.295-0.443-0.673-0.442-1.133 0-0.459 0.128-0.838 0.383-1.135 0.256-0.298 0.586-0.446 0.991-0.447 0.44 0 0.779 0.139 1.019 0.417 0.239 0.278 0.359 0.666 0.359 1.165v0.168H23.946c0.021 0.173 0.084 0.326 0.188 0.458 0.197 0.183 0.425 0.274 0.683 0.274 0.189 0 0.365-0.033 0.528-0.1 0.162-0.067 0.368-0.18 0.617-0.341v0.699c-0.204 0.154-0.396 0.262-0.575 0.325-0.179 0.062-0.378 0.093-0.595 0.093z m0.48-1.917c-0.024-0.144-0.076-0.27-0.156-0.379-0.113-0.155-0.28-0.232-0.501-0.233-0.195 0-0.356 0.084-0.482 0.252-0.087 0.113-0.145 0.233-0.174 0.36z m-4.029 1.148c0 0.039 0.053 0.086 0.16 0.142 0.107 0.056 0.244 0.096 0.413 0.122 0.409 0.065 0.704 0.175 0.886 0.329 0.182 0.154 0.273 0.377 0.273 0.67 0 0.287-0.135 0.513-0.404 0.677-0.269 0.164-0.626 0.246-1.071 0.247-0.418 0-0.752-0.088-1.004-0.265-0.251-0.177-0.377-0.417-0.377-0.722 0-0.21 0.067-0.391 0.202-0.542 0.135-0.151 0.292-0.235 0.472-0.254-0.151-0.073-0.227-0.184-0.227-0.335 0-0.163 0.1-0.298 0.301-0.405 0.048-0.026 0.083-0.031 0.105-0.014-0.078-0.003-0.164-0.047-0.258-0.132-0.216-0.2-0.324-0.457-0.324-0.768 0-0.313 0.108-0.57 0.325-0.771 0.217-0.201 0.494-0.301 0.832-0.301 0.085 0 0.166 0.006 0.241 0.019h1.187v0.588h-0.41c0.09 0.095 0.136 0.271 0.139 0.529 0 0.268-0.11 0.504-0.329 0.708-0.191 0.176-0.431 0.273-0.72 0.294l-0.194 0.012a0.395 0.395 0 0 0-0.144 0.054c-0.049 0.031-0.074 0.071-0.074 0.118z m0.304-1.743c-0.143 0-0.259 0.046-0.35 0.136-0.091 0.091-0.136 0.21-0.137 0.357 0 0.148 0.045 0.266 0.136 0.356 0.091 0.09 0.207 0.134 0.351 0.134 0.143 0 0.26-0.045 0.35-0.135 0.091-0.09 0.136-0.208 0.137-0.355 0-0.146-0.046-0.265-0.138-0.357-0.091-0.091-0.207-0.136-0.349-0.136z m-0.761 2.946c0 0.116 0.064 0.213 0.193 0.29 0.129 0.077 0.304 0.115 0.527 0.115 0.243 0 0.434-0.032 0.571-0.097 0.137-0.065 0.206-0.145 0.205-0.242 0-0.102-0.047-0.188-0.14-0.259-0.093-0.071-0.233-0.122-0.418-0.152l-0.081-0.013a2.398 2.398 0 0 0-0.217-0.022c-0.07-0.004-0.123-0.003-0.158 0.004-0.135 0.022-0.243 0.057-0.324 0.107-0.105 0.066-0.158 0.155-0.158 0.269z m-2.573-0.434c-0.228 0-0.411-0.072-0.548-0.216-0.137-0.144-0.206-0.332-0.206-0.563 0-0.205 0.067-0.381 0.203-0.53 0.135-0.148 0.335-0.27 0.599-0.365l0.704-0.254v-0.136c0-0.15-0.035-0.258-0.106-0.323-0.07-0.065-0.186-0.098-0.347-0.098-0.179 0-0.34 0.034-0.481 0.103-0.141 0.069-0.312 0.183-0.512 0.345v-0.674c0.154-0.159 0.311-0.274 0.47-0.343 0.159-0.069 0.335-0.104 0.53-0.104 0.376 0 0.663 0.094 0.862 0.281 0.199 0.188 0.298 0.458 0.298 0.813v1.458c0 0.024 0.003 0.039 0.01 0.045 0.007 0.007 0.019 0.01 0.036 0.011 0.014 0 0.045-0.015 0.092-0.045 0.047-0.029 0.136-0.075 0.268-0.135v0.452c-0.084 0.084-0.187 0.15-0.309 0.197-0.122 0.048-0.239 0.071-0.35 0.071-0.129 0-0.237-0.039-0.325-0.116-0.065-0.06-0.099-0.114-0.103-0.164-0.015 0.049-0.066 0.096-0.154 0.141-0.194 0.099-0.404 0.149-0.631 0.149z m0.752-0.675v-0.811l-0.278 0.129c-0.171 0.061-0.297 0.134-0.377 0.22-0.08 0.086-0.121 0.186-0.12 0.301 0 0.087 0.032 0.156 0.097 0.209 0.065 0.053 0.153 0.079 0.263 0.08a0.666 0.666 0 0 0 0.279-0.063 2.463 2.463 0 0 1 0.216-0.087z m-1.597-2.352L15.322 15.85h-0.782l1.008-2.283-1.147-2.305h0.765l0.77 1.656 0.69-1.656h0.742z m-4.712 3.012c-0.498 0.021-0.915-0.131-1.217-0.427-0.302-0.295-0.453-0.673-0.453-1.133 0-0.461 0.151-0.84 0.453-1.137 0.302-0.297 0.69-0.445 1.164-0.445 0.473 0 0.861 0.149 1.165 0.445 0.304 0.297 0.455 0.676 0.455 1.137 0 0.459-0.152 0.837-0.455 1.132-0.303 0.296-0.686 0.427-1.112 0.428z m-0.003-0.594c0.238-0.021 0.425-0.107 0.591-0.281 0.166-0.175 0.249-0.403 0.249-0.685 0-0.284-0.083-0.514-0.249-0.69-0.166-0.176-0.38-0.263-0.641-0.263-0.262 0-0.475 0.088-0.64 0.263-0.165 0.175-0.247 0.405-0.247 0.69 0 0.284 0.082 0.512 0.246 0.686 0.164 0.174 0.381 0.28 0.691 0.28z m-4.771-2.482H8.629l0.715 1.789 0.717-1.789h0.742l-1.327 3.07H9.204z m9.956-0.759V7.488h0.727v3.08h-0.584z m0.363-4.281c0.119 0 0.22 0.041 0.302 0.123 0.082 0.082 0.123 0.18 0.123 0.296a0.403 0.403 0 0 1-0.123 0.295c-0.082 0.082-0.182 0.122-0.302 0.122-0.121 0-0.221-0.041-0.303-0.121-0.081-0.081-0.122-0.18-0.122-0.296a0.403 0.403 0 0 1 0.123-0.296c0.082-0.082 0.182-0.122 0.302-0.123z m-2.882-0.196v4.543h-0.727V5.96h0.727z m1.389 4.477L15.205 9.032l1.358-1.543H17.381l-1.295 1.528 1.526 1.552h-0.76z m-3.565 0V7.488h0.727v3.08h-0.583z m0.363-4.281c0.119 0 0.22 0.041 0.302 0.123 0.082 0.082 0.123 0.18 0.123 0.296a0.403 0.403 0 0 1-0.122 0.295c-0.082 0.082-0.182 0.122-0.303 0.122-0.121 0-0.221-0.041-0.302-0.121-0.081-0.081-0.122-0.18-0.122-0.296a0.403 0.403 0 0 1 0.122-0.296c0.082-0.082 0.182-0.122 0.302-0.123zM9.209 10.614L7.882 7.489h0.754l0.715 1.815 0.736-1.859h0.456l0.731 1.849 0.717-1.805h0.756l-1.341 3.125h-0.277l-0.823-1.991-0.82 1.991h-0.138z m4.069 6.829l4.33 6.557 0.47-7.843a4.969 4.969 0 0 1-4.8 1.286zM7.882 5.96L0.038 6.431l6.557 4.329a4.969 4.969 0 0 1 1.287-4.8z m12.643 1.068L24.039 0l-7.028 3.514a4.969 4.969 0 0 1 3.514 3.514z"/></svg>