<svg fill="#FF1985" role="img" viewBox="0 0 35 24" xmlns="http://www.w3.org/2000/svg"><title>wiki.gg</title><path d="M8.666 0.197c-1.769 0.473-3.563 1.903-4.4 3.503-0.424 0.824-3.563 10.508-3.866 11.938-0.194 0.921-0.061 2.472 0.291 3.502 1.042 2.993 3.745 4.86 7.054 4.86 2.29 0 3.769-0.558 5.575-2.121 1.757-1.515 3.236-2.097 5.029-1.951 1.624 0.121 2.715 0.618 4.242 1.951 2.157 1.891 4.654 2.436 7.235 1.576 1.794-0.594 3.26-1.854 4.097-3.503 0.642-1.285 0.824-2.206 0.751-3.648-0.048-1.151-0.133-1.454-1.697-6.241-0.897-2.763-1.757-5.32-1.89-5.672-0.594-1.491-1.782-2.8-3.26-3.576-1.369-0.727-1.903-0.812-4.982-0.812-1.648 0-2.678 0.048-2.617 0.109 0.073 0.061 0.751 0.473 1.515 0.921 0.763 0.436 1.491 0.909 1.611 1.055 0.121 0.146 0.206 0.448 0.206 0.727 0 0.582-0.133 0.715-1.878 1.915l-1.333 0.909 2.387 0.061c2.303 0.061 2.388 0.073 2.691 0.351 0.376 0.352 0.327 0.23 2.145 5.83 1.576 4.872 1.636 5.163 1.079 5.756-0.739 0.788-1.479 0.691-2.606-0.303-0.461-0.4-1.103-0.909-1.442-1.139-4.472-2.945-10.35-2.581-14.459 0.897-1.369 1.164-1.454 1.212-2.242 1.212-0.412 0-0.873-0.085-1.078-0.182-0.412-0.218-0.836-0.836-0.837-1.236 0-0.145 0.727-2.569 1.624-5.381 1.285-4.06 1.697-5.175 1.939-5.43 0.315-0.315 0.339-0.315 2.776-0.4 1.345-0.036 2.666-0.133 2.933-0.218 0.594-0.182 3.151-1.636 3.466-1.975 0.254-0.279 0.303-0.776 0.097-1.212-0.146-0.327-2.388-1.685-3.369-2.049-0.751-0.279-5.769-0.303-6.787-0.024z m19.148 1.976c0.473 0.485 0.485 1.079 0.013 1.6-0.582 0.654-1.624 0.461-1.964-0.364-0.485-1.188 1.03-2.145 1.951-1.236z"/></svg>