<svg fill="#341C53" role="img" viewBox="0 0 31 24" xmlns="http://www.w3.org/2000/svg"><title>Wipro</title><path d="M19.932 12.044c0-1.095-0.863-1.983-1.929-1.983-1.065 0-1.929 0.888-1.929 1.983 0 1.096 0.864 1.984 1.929 1.984 1.065 0 1.928-0.888 1.929-1.984z m-1.929 1.047c-0.547 0-0.992-0.47-0.992-1.047 0-0.577 0.445-1.047 0.992-1.047 0.547 0 0.991 0.47 0.992 1.047 0 0.577-0.445 1.047-0.992 1.047z m-11.993-2.763l-1.16 3.595c-0.019 0.058-0.083 0.104-0.144 0.105h-0.105c-0.061 0-0.133-0.044-0.161-0.098l-1.189-2.282-1.188 2.282c-0.028 0.053-0.1 0.097-0.162 0.098h-0.105c-0.06 0-0.125-0.047-0.144-0.105L0.491 10.328c-0.028-0.087 0.024-0.158 0.115-0.158h0.71c0.06 0 0.125 0.047 0.144 0.105l0.587 1.817 1.007-1.934c0.028-0.054 0.101-0.097 0.161-0.097H3.287c0.061 0 0.133 0.044 0.161 0.097l1.008 1.934 0.586-1.817c0.019-0.058 0.083-0.105 0.144-0.105h0.71c0.091 0 0.142 0.071 0.114 0.158z m1.712 3.425a0.166 0.166 0 0 1-0.165 0.165h-0.717a0.165 0.165 0 0 1-0.165-0.165v-3.417c0-0.091 0.074-0.165 0.165-0.166h0.717a0.166 0.166 0 0 1 0.165 0.166v3.417z m0.927-3.417v5.4c0 0.092 0.074 0.165 0.165 0.165h0.717a0.165 0.165 0 0 0 0.165-0.165v-1.873c0.304 0.106 0.639 0.165 0.992 0.165 1.004 0 1.818-0.888 1.818-1.984 0-1.095-0.814-1.983-1.818-1.983-0.493 0-0.94 0.214-1.267 0.561l0 0-0.128-0.348c-0.021-0.057-0.088-0.104-0.148-0.104h-0.331a0.165 0.165 0 0 0-0.165 0.166z m1.047 1.126c0.172-0.28 0.465-0.465 0.797-0.465 0.53 0 0.959 0.469 0.96 1.047 0 0.578-0.429 1.047-0.96 1.047-0.3 0-0.575-0.079-0.797-0.211V11.462z m4.474 2.456h-0.716a0.165 0.165 0 0 1-0.165-0.165V10.336c0-0.091 0.074-0.165 0.165-0.166h0.331c0.06 0 0.127 0.047 0.148 0.104l0.127 0.348s0.4-0.561 1.089-0.561c0.689 0 0.772 0.237 0.714 0.368-0.058 0.131-0.214 0.485-0.246 0.558-0.032 0.073-0.113 0.124-0.222 0.082-0.109-0.042-0.642-0.216-1.06 0.291v2.393a0.166 0.166 0 0 1-0.165 0.165z m5.868-12.942a0.881 0.881 0 0 1 1.08-0.622 0.881 0.881 0 1 1-0.457 1.702 0.882 0.882 0 0 1-0.623-1.08z m2.311 3.491a0.661 0.661 0 0 1 0.242 0.903 0.661 0.661 0 0 1-0.903 0.242 0.661 0.661 0 0 1-0.243-0.903 0.661 0.661 0 0 1 0.904-0.242z m0.831 13.725a0.717 0.717 0 0 1 0-1.013 0.716 0.716 0 0 1 1.013 0 0.717 0.717 0 0 1 0 1.013 0.717 0.717 0 0 1-1.013 0z m-3.076-9.231a0.303 0.303 0 0 1-0.525-0.303 0.303 0.303 0 1 1 0.525 0.303z m-0.525 6.382a0.303 0.303 0 0 1 0.525-0.303 0.303 0.303 0 0 1-0.111 0.414 0.304 0.304 0 0 1-0.414-0.111z m4.667-3.343a0.647 0.647 0 1 1-0.647-0.647 0.647 0.647 0 0 1 0.647 0.647zM22.778 1.851a0.937 0.937 0 1 1 1.622 0.937 0.937 0.937 0 0 1-1.622-0.937z m-6.795 13.232a0.193 0.193 0 1 1 0.334 0.192 0.193 0.193 0 0 1-0.334-0.192z m3.508-11.001a0.606 0.606 0 1 1 1.171 0.313 0.606 0.606 0 0 1-0.742 0.429 0.606 0.606 0 0 1-0.429-0.742zM17.994 6.805a0.385 0.385 0 1 1 0-0.771 0.385 0.385 0 1 1 0 0.771z m0 1.268a0.248 0.248 0 1 1 0 0.496 0.248 0.248 0 0 1 0-0.496z m0-3.554a0.551 0.551 0 1 1 0-1.102 0.551 0.551 0 0 1 0 1.102z m-2.011 4.399a0.193 0.193 0 1 1 0.263 0.07 0.192 0.192 0 0 1-0.263-0.07z m2.011 7.01a0.248 0.248 0 1 1 0-0.496 0.248 0.248 0 0 1 0 0.496z m0 1.267a0.386 0.386 0 0 1 0 0.772 0.386 0.386 0 1 1 0-0.772z m4.373-2.675a0.55 0.55 0 0 1 0.752-0.202 0.551 0.551 0 0 1 0.202 0.753 0.551 0.551 0 0 1-0.954-0.551z m-4.373 4.962a0.551 0.551 0 1 1 0 1.102 0.551 0.551 0 0 1 0-1.102z m11.984-10.69c0.173 0.646-0.21 1.311-0.857 1.484-0.646 0.173-1.311-0.211-1.484-0.857-0.173-0.646 0.21-1.311 0.857-1.484 0.646-0.173 1.311 0.21 1.484 0.857z m-8.376 7.51a0.496 0.496 0 0 1 0.701-0.701 0.496 0.496 0 0 1 0 0.701 0.495 0.495 0 0 1-0.701 0z m1.218-5.592a0.606 0.606 0 0 1 0.429-0.742 0.606 0.606 0 1 1 0.313 1.17 0.606 0.606 0 0 1-0.742-0.428z m1.761-3.399a0.771 0.771 0 0 1 0.772 1.336 0.771 0.771 0 0 1-0.772-1.336z m-0.388-0.489a0.716 0.716 0 0 1-1.013 0 0.716 0.716 0 0 1 0-1.013 0.716 0.716 0 0 1 1.013 0 0.716 0.716 0 0 1 0 1.013z m-1.373 6.468a0.606 0.606 0 0 1 1.171 0.314 0.606 0.606 0 1 1-1.171-0.314z m-3.777-6.79a0.413 0.413 0 0 1 0.505-0.292 0.413 0.413 0 0 1-0.213 0.798 0.413 0.413 0 0 1-0.292-0.506z m8.093-1.045c0.527-0.305 1.201-0.124 1.505 0.403a1.102 1.102 0 1 1-1.908 1.102c-0.304-0.527-0.124-1.201 0.403-1.505z m-3.815 3.475a0.551 0.551 0 1 1-0.954 0.551 0.551 0.551 0 1 1 0.954-0.551z m1.655 1.202a0.827 0.827 0 0 1 0.584-1.012 0.827 0.827 0 0 1 0.428 1.597 0.827 0.827 0 0 1-1.012-0.585z m0 3.736a0.826 0.826 0 1 1 1.596 0.428 0.826 0.826 0 1 1-1.596-0.428z m1.075-0.92a0.948 0.948 0 1 1 0-1.895 0.948 0.948 0 0 1 0 1.895z m-0.845-8.152a0.991 0.991 0 0 1 0-1.403c0.387-0.387 1.015-0.388 1.402 0a0.992 0.992 0 0 1-1.402 1.403z m-4.032 2.587a0.441 0.441 0 1 1-0.764-0.44 0.441 0.441 0 0 1 0.764 0.44z m-0.8 6.991a0.331 0.331 0 0 1 0.468-0.001 0.331 0.331 0 0 1 0 0.468 0.33 0.33 0 0 1-0.468 0 0.33 0.33 0 0 1 0-0.467z m0-5.214a0.331 0.331 0 0 1 0.468-0.001 0.331 0.331 0 1 1-0.468 0.001z m0.644 4.995a0.359 0.359 0 0 1-0.131-0.49 0.358 0.358 0 0 1 0.489-0.13 0.358 0.358 0 0 1-0.358 0.62z m-0.608 2.903a0.44 0.44 0 0 1 0.162-0.602 0.44 0.44 0 0 1 0.602 0.161 0.44 0.44 0 0 1-0.162 0.602 0.441 0.441 0 0 1-0.602-0.161z m1.098-7.081a0.358 0.358 0 0 1-0.132 0.489 0.359 0.359 0 0 1-0.489-0.131 0.358 0.358 0 0 1 0.62-0.358z m-0.311 1.168a0.386 0.386 0 1 1 0.745-0.2 0.386 0.386 0 0 1-0.745 0.2z m0 1.71a0.386 0.386 0 1 1 0.745 0.201 0.386 0.386 0 0 1-0.745-0.201z m0.501-0.434a0.421 0.421 0 1 1 0-0.842 0.421 0.421 0 0 1 0 0.842z m0.605-4.723a0.496 0.496 0 1 1-0.701 0.702 0.496 0.496 0 0 1 0.701-0.702z m-9.28 14.329a0.717 0.717 0 0 1-0.979 0.262 0.717 0.717 0 0 1 0.717-1.241 0.716 0.716 0 0 1 0.262 0.979zM19.021 8.177a0.276 0.276 0 1 1-0.142 0.532 0.276 0.276 0 0 1 0.142-0.532z m-3.176 14.812a0.771 0.771 0 1 1-1.491-0.399 0.771 0.771 0 0 1 1.491 0.399z m3.176-7.165a0.276 0.276 0 0 1-0.142-0.533 0.275 0.275 0 1 1 0.142 0.533z m-0.2 7.35a0.826 0.826 0 0 1-0.827 0.826 0.826 0.826 0 0 1-0.826-0.826c0-0.457 0.37-0.827 0.826-0.827 0.456 0 0.826 0.37 0.827 0.827z m-1.839-7.41a0.221 0.221 0 0 1-0.156-0.27 0.221 0.221 0 0 1 0.27-0.156 0.22 0.22 0 0 1-0.114 0.426z m-0.089 1.716a0.358 0.358 0 1 1-0.692-0.185 0.358 0.358 0 0 1 0.692 0.185z m-3.498-2.844a0.276 0.276 0 0 1-0.477 0.275 0.275 0.275 0 0 1 0.101-0.376 0.275 0.275 0 0 1 0.376 0.101z m2.091 2.355a0.331 0.331 0 1 1-0.573-0.331 0.331 0.331 0 0 1 0.573 0.331z m0.018-2.285a0.165 0.165 0 1 1-0.234-0.233 0.166 0.166 0 0 1 0.234 0 0.166 0.166 0 0 1 0 0.234z m-1.247 1.014a0.303 0.303 0 1 1-0.428 0.428 0.303 0.303 0 0 1 0-0.428 0.302 0.302 0 0 1 0.428 0z m0.098 3.449a0.44 0.44 0 0 1-0.602 0.161 0.441 0.441 0 1 1 0.602-0.161z m12.254 0.036a0.992 0.992 0 0 1 0 1.403c-0.387 0.388-1.015 0.387-1.403 0-0.388-0.387-0.387-1.015 0-1.403a0.992 0.992 0 0 1 1.403 0z m-2.027-2.516a0.772 0.772 0 0 1-0.282-1.054 0.772 0.772 0 0 1 1.053-0.282 0.771 0.771 0 0 1-0.771 1.336z m4.06 1.453c-0.304 0.527-0.978 0.708-1.506 0.404-0.527-0.304-0.707-0.978-0.403-1.505 0.305-0.527 0.979-0.708 1.505-0.404 0.527 0.304 0.708 0.978 0.404 1.505z m-9.093-0.35a0.413 0.413 0 1 1-0.214-0.798 0.413 0.413 0 0 1 0.214 0.798zM30.516 12c0 0.731-0.593 1.324-1.324 1.324-0.731 0-1.324-0.593-1.324-1.324 0-0.731 0.593-1.324 1.324-1.324S30.516 11.269 30.516 12z m-0.538 3.208c-0.173 0.646-0.838 1.03-1.484 0.858-0.646-0.174-1.03-0.838-0.857-1.485 0.173-0.647 0.838-1.03 1.484-0.857 0.647 0.173 1.03 0.838 0.857 1.484z m-8.237 7.36a0.881 0.881 0 1 1-1.703 0.455 0.881 0.881 0 0 1 0.623-1.079 0.881 0.881 0 0 1 1.08 0.623z m2.659-1.355a0.936 0.936 0 0 1-0.343 1.279 0.936 0.936 0 0 1-1.279-0.343 0.936 0.936 0 0 1 0.342-1.279 0.936 0.936 0 0 1 1.28 0.343z m-4.909-1.294a0.606 0.606 0 1 1 1.171-0.314 0.606 0.606 0 0 1-1.171 0.314z m2.858-0.385a0.661 0.661 0 1 1-0.662-1.146 0.661 0.661 0 0 1 0.662 1.146z m-5.958 0.35a0.496 0.496 0 0 1-0.958-0.257 0.496 0.496 0 0 1 0.607-0.351 0.496 0.496 0 0 1 0.351 0.608z m-1.121-10.357a0.165 0.165 0 1 1 0.234-0.233 0.165 0.165 0 0 1-0.234 0.233z m0.094-2.066a0.331 0.331 0 0 1-0.33-0.572 0.331 0.331 0 0 1 0.33 0.572z m-1.01-6.05a0.771 0.771 0 1 1 1.49-0.399 0.771 0.771 0 0 1-1.49 0.399z m-1.059 7.577a0.275 0.275 0 1 1-0.276 0.477 0.275 0.275 0 0 1-0.101-0.376 0.275 0.275 0 0 1 0.376-0.101z m0.962-1.136a0.303 0.303 0 0 1-0.428 0.429 0.303 0.303 0 0 1 0.428-0.429z m-0.666-2.58a0.441 0.441 0 0 1 0.764-0.44 0.441 0.441 0 0 1-0.764 0.44z m3.576-4.445c0-0.456 0.37-0.827 0.827-0.827 0.456 0 0.826 0.37 0.826 0.827a0.827 0.827 0 0 1-0.826 0.827 0.827 0.827 0 0 1-0.827-0.827z m-0.185 7.41a0.22 0.22 0 1 1 0.114 0.426 0.22 0.22 0 0 1-0.114-0.426z m-1.198-4.471a0.496 0.496 0 0 1 0.257 0.958 0.496 0.496 0 0 1-0.608-0.351 0.496 0.496 0 0 1 0.351-0.607z m0.67 2.501a0.358 0.358 0 1 1 0.185 0.692 0.358 0.358 0 0 1-0.185-0.692zM11.783 2.69a0.716 0.716 0 0 1 0.262-0.979 0.716 0.716 0 0 1 0.716 1.241 0.716 0.716 0 0 1-0.978-0.262z m-0.463 13.145a0.331 0.331 0 1 1-0.574 0.33 0.331 0.331 0 0 1 0.574-0.33zM6.64 8.82a0.578 0.578 0 0 1 0.708-0.409 0.578 0.578 0 0 1 0.409 0.708 0.578 0.578 0 0 1-0.708 0.409 0.579 0.579 0 0 1-0.409-0.708z m1.126-2.714a0.606 0.606 0 1 1 0.222 0.827 0.606 0.606 0 0 1-0.222-0.827z m2.789 13.315a0.661 0.661 0 0 1 0 0.935 0.661 0.661 0 0 1-0.935 0 0.661 0.661 0 0 1 0-0.935 0.661 0.661 0 0 1 0.935 0zM8.838 17.267a0.606 0.606 0 1 1-1.049 0.606 0.606 0.606 0 0 1 1.049-0.606z m0.783-12.688a0.661 0.661 0 0 1 0-0.935 0.661 0.661 0 0 1 0.935 0 0.661 0.661 0 0 1 0 0.935 0.661 0.661 0 0 1-0.935 0zM12.582 6.606a0.386 0.386 0 0 1-0.546 0 0.386 0.386 0 0 1 0-0.546 0.386 0.386 0 0 1 0.546 0 0.386 0.386 0 0 1 0 0.546z m0 10.789a0.386 0.386 0 1 1-0.546 0.546 0.386 0.386 0 0 1 0.546-0.546zM10.747 7.835a0.331 0.331 0 1 1 0.572 0.331 0.331 0.331 0 0 1-0.572-0.331z"/></svg>