<svg fill="#000000" role="img" viewBox="0 0 30 24" xmlns="http://www.w3.org/2000/svg"><title>Wire</title><path d="M29.568 15.004c0.011 4.958-4.001 8.985-8.959 8.996h-0.02c-1.987-0.018-3.912-0.704-5.463-1.949-3.969 3.088-9.689 2.376-12.776-1.594-1.214-1.561-1.888-3.475-1.918-5.453V0.855h1.711v14.149c-0.002 4.023 3.257 7.287 7.28 7.289 1.57 0.001 3.098-0.505 4.357-1.443-1.412-1.621-2.193-3.694-2.204-5.845v-11.581c0-1.89 1.533-3.424 3.424-3.424s3.424 1.533 3.424 3.424v11.581c0.007 2.144-0.756 4.218-2.149 5.845 3.246 2.376 7.805 1.664 10.177-1.583 0.904-1.237 1.395-2.729 1.404-4.263V0.855H29.568v14.149z m-12.856-11.582c0-0.945-0.767-1.712-1.712-1.711-0.946 0-1.712 0.766-1.712 1.711v11.582c0.002 1.712 0.608 3.37 1.712 4.68 1.102-1.31 1.709-2.968 1.712-4.68v-11.582z"/></svg>