<svg fill="#58B7FE" role="img" viewBox="0 0 31 24" xmlns="http://www.w3.org/2000/svg"><title>Wistia</title><path d="M30.521 5.068c0.651-3.976-1.593-5.068-1.594-5.068s0.094 3.237-5.853 3.923C17.796 4.532 0.081 4.072 0.081 4.072l5.692 6.529c1.542 1.771 2.362 1.975 4.095 2.098 1.733 0.116 5.56 0.075 8.153-0.123 2.835-0.217 6.874-1.141 9.607-3.258 1.401-1.083 2.62-2.59 2.891-4.25m0.365 4.118s-0.714 1.42-4.279 3.666c-1.519 0.956-4.673 1.972-8.728 2.364-2.191 0.213-6.222 0.04-7.951 0.04-1.74 0-2.536 0.366-4.095 2.123L0.081 23.86s1.992 0.01 3.495 0.01c1.503 0 10.906 0.546 15.078-0.601 13.551-3.725 12.23-14.083 12.23-14.083Z"/></svg>