<svg fill="#0C6EFC" role="img" viewBox="0 0 62 24" xmlns="http://www.w3.org/2000/svg"><title>Wix</title><path d="M0.009 0.003l5.457 23.997h2.069a3.977 3.977 0 0 0 3.889-3.146l3.489-16.373a0.442 0.442 0 0 1 0.431-0.354c0.207 0 0.387 0.15 0.432 0.354l3.491 16.373a3.977 3.977 0 0 0 3.89 3.146h2.079l5.457-23.997h-1.459c-1.601 0-2.993 1.111-3.348 2.673l-3.254 14.32-2.856-13.367a4.545 4.545 0 0 0-5.656-3.42c-1.65 0.455-2.874 1.849-3.231 3.525l-2.825 13.241-3.254-14.299A3.435 3.435 0 0 0 1.463 0.003H0.009z m36.136 0a2.456 2.456 0 0 0-2.457 2.453v21.544h1.64a2.459 2.459 0 0 0 2.456-2.453V0h-1.639z m4.591 0l8.156 12.034-8.109 11.963h3.422c0.95 0 1.839-0.467 2.371-1.255l4.535-6.689a0.31 0.31 0 0 1 0.508 0l4.53 6.689c0.532 0.788 1.42 1.255 2.371 1.255h3.425l-8.11-11.963L61.991 0.003h-3.424c-0.95 0-1.839 0.467-2.371 1.255l-4.577 6.758a0.31 0.31 0 0 1-0.508 0L46.532 1.258a2.862 2.862 0 0 0-2.371-1.255H40.736z"/></svg>