<svg fill="#DD1100" role="img" viewBox="0 0 23 24" xmlns="http://www.w3.org/2000/svg"><title>Wolfram Mathematica</title><path d="M15.24 10.7c-0.53-1.53 0.14-4 0.14-4S13.1 8.01 11.43 8 7.63 6.7 7.63 6.7s0.56 2.46 0.07 4.04c-0.48 1.58-2.47 3.34-2.47 3.34s2.58 0.23 3.85 1.1S11.5 18.64 11.5 18.64s0.78-2.35 2.32-3.41c1.54-1.07 3.96-1.15 3.96-1.15s-2-1.84-2.54-3.37z m-2 3.69c-1.09 0.81-1.75 2.19-1.75 2.19s-0.76-1.43-1.8-2.22c-1.05-0.79-2.57-0.97-2.57-0.97a5.06 5.06 0 0 0 1.53-2.37c0.46-1.54 0.18-2.73 0.18-2.73s0.92 0.7 2.62 0.7c1.7 0 2.79-0.7 2.79-0.7s-0.38 1.58 0.07 2.7c0.44 1.14 1.57 2.41 1.57 2.41s-1.56 0.17-2.64 0.99zM13.23 9.6s-0.95 0.38-1.77 0.37c-0.82 0-1.7-0.37-1.7-0.37 0.05 0.58 0 1.15-0.17 1.7-0.27 0.86-0.91 1.64-0.91 1.64A4.23 4.23 0 0 1 11.5 14.95s0.45-0.85 1.18-1.33c0.5-0.31 1.05-0.55 1.63-0.7 0 0-0.74-0.78-1.02-1.57-0.28-0.78-0.06-1.75-0.06-1.75zM19.6 12l3.31-3.7-4.85-1.07 0.5-4.94-4.56 2L11.5 0 9 4.29l-4.55-2 0.49 4.95L0.09 8.29 3.39 12 0.1 15.7l4.85 1.07-0.5 4.94 4.55-2L11.5 24l2.5-4.29 4.56 2-0.5-4.94 4.85-1.06-3.3-3.71z m-5.27 3.95C13.5 16.56 11.5 20.81 11.5 20.81S10 16.95 8.5 15.95c-1.48-1-5.38-1.22-5.38-1.22s2.99-2.37 3.57-4.47c0.59-2.1-0.37-5.37-0.37-5.37s2.9 2.1 5.08 2.1c2.17 0 5.26-2.1 5.26-2.1s-0.82 4.5-0.53 5.46c0.3 0.96 3.73 4.38 3.73 4.38s-4.7 0.62-5.54 1.22z"/></svg>