<svg fill="#96588A" role="img" viewBox="0 0 41 24" xmlns="http://www.w3.org/2000/svg"><title>Woo</title><path d="M4.082 0A3.743 3.743 0 0 0 0.34 3.758v12.528c0 2.076 1.682 3.758 3.759 3.758h15.544l7.105 3.956-1.616-3.956h11.77c2.076 0 3.758-1.68 3.758-3.758V3.758c0-2.076-1.68-3.758-3.758-3.758z m13.574 2.202c0.326 0.003 0.625 0.119 0.899 0.336a1.292 1.292 0 0 1 0.51 0.941 1.43 1.43 0 0 1-0.164 0.79c-0.642 1.188-1.169 3.182-1.598 5.95-0.413 2.688-0.561 4.781-0.462 6.282 0.034 0.412-0.034 0.773-0.198 1.087a1.062 1.062 0 0 1-0.874 0.593c-0.428 0.034-0.874-0.165-1.302-0.609-1.534-1.567-2.753-3.908-3.644-7.022a309.257 309.257 0 0 0-2.373 4.746c-0.971 1.865-1.796 2.819-2.488 2.869-0.445 0.034-0.823-0.346-1.155-1.137-0.84-2.16-1.747-6.33-2.719-12.512-0.05-0.428 0.034-0.806 0.263-1.104 0.23-0.312 0.578-0.477 1.039-0.511 0.84-0.067 1.319 0.329 1.434 1.186 0.511 3.446 1.072 6.364 1.665 8.753L10.099 5.969c0.329-0.627 0.741-0.958 1.237-0.99 0.724-0.05 1.169 0.412 1.35 1.385 0.413 2.192 0.941 4.055 1.566 5.638 0.428-4.186 1.154-7.204 2.176-9.067 0.249-0.46 0.61-0.692 1.088-0.724a1.455 1.455 0 0 1 0.142-0.007z m6.273 1.786c0.281 0 0.576 0.034 0.89 0.101 1.154 0.245 2.043 0.874 2.638 1.91 0.528 0.89 0.79 1.962 0.789 3.248 0 1.698-0.427 3.247-1.285 4.665-0.988 1.648-2.275 2.473-3.872 2.473-0.281 0-0.578-0.034-0.891-0.099-1.171-0.247-2.045-0.874-2.637-1.912-0.528-0.907-0.791-1.994-0.791-3.264 0-1.697 0.428-3.247 1.285-4.649 1.006-1.648 2.291-2.473 3.874-2.473z m10.335 0c0.281 0 0.576 0.034 0.89 0.101 1.169 0.245 2.043 0.874 2.638 1.91 0.528 0.89 0.79 1.962 0.789 3.248 0 1.698-0.427 3.247-1.285 4.665-0.988 1.648-2.275 2.473-3.872 2.473-0.281 0-0.578-0.034-0.89-0.099-1.171-0.247-2.045-0.874-2.638-1.912-0.528-0.907-0.791-1.994-0.791-3.264 0-1.697 0.428-3.247 1.285-4.649 1.006-1.648 2.291-2.473 3.874-2.473z m-10.26 2.764c-0.516-0.003-1.018 0.338-1.493 1.045a5.331 5.331 0 0 0-0.874 1.962c-0.084 0.378-0.116 0.79-0.116 1.203 0 0.477 0.101 0.99 0.298 1.5 0.247 0.642 0.576 0.99 0.972 1.072 0.412 0.082 0.857-0.101 1.336-0.529 0.61-0.543 1.021-1.351 1.252-2.44 0.084-0.378 0.116-0.79 0.116-1.219a4.183 4.183 0 0 0-0.296-1.501c-0.249-0.642-0.578-0.988-0.974-1.07a1.199 1.199 0 0 0-0.221-0.023z m10.336 0c-0.516-0.003-1.018 0.338-1.494 1.045a5.331 5.331 0 0 0-0.873 1.962c-0.082 0.378-0.116 0.79-0.116 1.203 0 0.477 0.101 0.99 0.297 1.5 0.247 0.642 0.578 0.99 0.973 1.072 0.412 0.082 0.857-0.101 1.335-0.529 0.61-0.543 1.021-1.351 1.252-2.44 0.067-0.378 0.118-0.79 0.117-1.219a4.183 4.183 0 0 0-0.297-1.501c-0.249-0.642-0.578-0.988-0.974-1.07a1.199 1.199 0 0 0-0.22-0.023Z"/></svg>