<svg fill="#96588A" role="img" viewBox="0 0 120 24" xmlns="http://www.w3.org/2000/svg"><title>WooCommerce</title><path d="M4.235 0a3.739 3.739 0 0 0-3.739 3.759v12.52c0 2.083 1.681 3.759 3.759 3.759h15.545l7.096 3.962-1.617-3.962h11.767a3.754 3.754 0 0 0 3.759-3.759v-12.52a3.754 3.754 0 0 0-3.759-3.759H4.235z m13.433 2.207h0.149c0.322 0.005 0.615 0.114 0.887 0.332a1.289 1.289 0 0 1 0.511 0.942 1.438 1.438 0 0 1-0.164 0.793c-0.645 1.185-1.17 3.174-1.596 5.946-0.412 2.683-0.565 4.785-0.467 6.282a1.944 1.944 0 0 1-0.193 1.086 1.056 1.056 0 0 1-0.873 0.595c-0.426 0.03-0.878-0.169-1.304-0.614-1.537-1.567-2.752-3.907-3.644-7.022-1.071 2.107-1.86 3.689-2.371 4.746-0.972 1.864-1.8 2.817-2.489 2.866-0.446 0.035-0.823-0.342-1.155-1.131-0.843-2.162-1.745-6.332-2.718-12.516a1.473 1.473 0 0 1 0.268-1.1c0.233-0.317 0.575-0.471 1.041-0.506 0.838-0.064 1.314 0.322 1.429 1.18 0.511 3.446 1.076 6.367 1.666 8.757l3.605-6.878c0.327-0.625 0.744-0.952 1.239-0.986 0.724-0.05 1.175 0.412 1.354 1.388 0.412 2.187 0.932 4.051 1.562 5.633 0.426-4.185 1.155-7.205 2.182-9.064a1.264 1.264 0 0 1 1.081-0.729z m6.411 1.785c0.278 0 0.575 0.03 0.893 0.099 1.15 0.248 2.038 0.878 2.628 1.914 0.531 0.893 0.798 1.959 0.798 3.243 0 1.701-0.431 3.243-1.289 4.661-0.992 1.646-2.276 2.479-3.873 2.479a4.364 4.364 0 0 1-0.892-0.109 3.783 3.783 0 0 1-2.633-1.904 6.382 6.382 0 0 1-0.784-3.268c0-1.696 0.421-3.248 1.28-4.646 1.002-1.651 2.291-2.469 3.867-2.469z m10.334 0c0.278 0 0.575 0.03 0.893 0.099 1.17 0.248 2.038 0.878 2.628 1.914 0.531 0.893 0.793 1.959 0.793 3.243 0 1.701-0.426 3.243-1.284 4.661-0.992 1.646-2.276 2.479-3.873 2.479a4.364 4.364 0 0 1-0.892-0.109 3.783 3.783 0 0 1-2.633-1.904 6.382 6.382 0 0 1-0.794-3.268c0-1.696 0.431-3.248 1.29-4.646 1.002-1.651 2.291-2.469 3.867-2.469z m22.002 0.233c-1.512 0-2.707 0.506-3.56 1.507-0.858 1.007-1.269 2.43-1.27 4.245 0 1.959 0.426 3.456 1.27 4.492 0.843 1.041 2.073 1.567 3.689 1.567 1.562 0 2.772-0.531 3.61-1.567 0.843-1.041 1.269-2.499 1.269-4.378s-0.431-3.337-1.289-4.359c-0.873-1.002-2.102-1.507-3.719-1.507z m-7.27 0.01a5.603 5.603 0 0 0-4.165 1.616c-1.106 1.091-1.646 2.474-1.646 4.156 0 1.795 0.536 3.263 1.626 4.363 1.091 1.106 2.504 1.666 4.27 1.666 0.511 0 1.091-0.079 1.715-0.257v-2.678c-0.58 0.169-1.071 0.253-1.502 0.253a2.702 2.702 0 0 1-2.093-0.878c-0.526-0.595-0.793-1.379-0.793-2.38 0-0.942 0.263-1.726 0.774-2.321a2.469 2.469 0 0 1 1.968-0.897c0.511 0 1.051 0.074 1.646 0.243v-2.663a6.912 6.912 0 0 0-1.8-0.223z m61.557 0a5.628 5.628 0 0 0-4.165 1.616c-1.106 1.091-1.646 2.474-1.646 4.156 0 1.795 0.536 3.263 1.626 4.363 1.091 1.106 2.509 1.666 4.27 1.666 0.511 0 1.091-0.079 1.715-0.257v-2.678c-0.575 0.169-1.071 0.253-1.502 0.253a2.702 2.702 0 0 1-2.093-0.878c-0.526-0.595-0.793-1.379-0.793-2.38 0-0.942 0.263-1.726 0.774-2.321a2.469 2.469 0 0 1 1.968-0.897c0.511 0 1.051 0.074 1.646 0.243v-2.663a6.912 6.912 0 0 0-1.8-0.223z m-47.593 0.297l-1.438 11.227h2.871l0.774-7.731 1.958 7.731h2.043l1.88-7.711 0.813 7.711h2.99l-1.507-11.227h-3.923l-0.595 2.519c-0.149 0.645-0.298 1.309-0.431 1.984l-0.332 1.745a148.612 148.612 0 0 0-1.28-6.248h-3.823z m13.726 0l-1.438 11.227h2.871l0.773-7.731 1.964 7.731h2.043l1.859-7.711 0.819 7.711h2.99l-1.513-11.227h-3.912l-0.59 2.519c-0.149 0.645-0.298 1.309-0.427 1.984l-0.327 1.745c-0.312-1.745-0.744-3.823-1.289-6.248h-3.823z m19.775 0v11.227h3.03v-5.113h0.059l2.45 5.108h3.198l-2.425-5.053a3.025 3.025 0 0 0 1.835-2.737 2.965 2.965 0 0 0-1.24-2.509c-0.828-0.61-1.954-0.922-3.372-0.923h-3.535z m16.745 0v11.227H119.504v-2.395h-3.124v-2.053h2.678v-2.321h-2.678v-2.063h3.104v-2.395H113.355z m-23.767 0.02v11.227h6.149v-2.396h-3.109v-2.062h2.683v-2.321h-2.678v-2.058h3.084v-2.39h-6.129z m10.042 2.142c0.724 0.015 1.24 0.124 1.552 0.357 0.312 0.228 0.451 0.595 0.451 1.126 0 0.774-0.669 1.17-2.003 1.19v-2.678z m-75.471 0.055c-0.516 0-1.017 0.342-1.493 1.046a5.345 5.345 0 0 0-0.992 3.169c0 0.476 0.099 0.992 0.298 1.502 0.243 0.645 0.58 0.982 0.972 1.066 0.412 0.079 0.858-0.099 1.339-0.525 0.61-0.545 1.017-1.354 1.249-2.44 0.079-0.382 0.114-0.793 0.114-1.22 0-0.481-0.099-0.992-0.297-1.502-0.248-0.645-0.575-0.982-0.972-1.066a1.22 1.22 0 0 0-0.223-0.03z m10.329 0c-0.511 0-1.012 0.342-1.488 1.046a5.345 5.345 0 0 0-0.992 3.169c0 0.476 0.099 0.992 0.298 1.502 0.243 0.645 0.58 0.982 0.972 1.066 0.412 0.079 0.858-0.099 1.339-0.525 0.61-0.545 1.017-1.354 1.249-2.44 0.064-0.382 0.114-0.793 0.114-1.22 0-0.481-0.099-0.992-0.297-1.502-0.248-0.645-0.575-0.982-0.972-1.066a1.22 1.22 0 0 0-0.223-0.03z m21.957 0.03c1.155 0 1.755 1.081 1.755 3.272-0.02 1.354-0.188 2.281-0.486 2.742a1.453 1.453 0 0 1-1.299 0.69 1.319 1.319 0 0 1-1.2-0.69c-0.278-0.461-0.417-1.388-0.417-2.786 0-2.162 0.545-3.223 1.647-3.224Z"/></svg>