<svg fill="#4526CE" role="img" viewBox="0 0 23 24" xmlns="http://www.w3.org/2000/svg"><title>Workplace</title><path d="M22.768 10.541C22.768 4.715 18.044 0 12.228 0c-1.614 0-3.191 0.317-4.663 0.952a11.952 11.952 0 0 0-3.817 2.574 11.915 11.915 0 0 0-3.516 8.478 11.924 11.924 0 0 0 3.516 8.48 12.05 12.05 0 0 0 3.817 2.573c1.472 0.626 3.05 0.943 4.671 0.943 1.56 0 3.05-0.3 4.416-0.837l-0.908-2.292a9.448 9.448 0 0 1-3.508 0.67 9.481 9.481 0 0 1-6.743-2.794A9.481 9.481 0 0 1 2.7 12.004c0-2.547 0.996-4.944 2.794-6.742a9.496 9.496 0 0 1 6.743-2.794 8.072 8.072 0 0 1 6.734 12.524l-2.098-5.165c-0.308-0.758-0.679-1.895-2.071-1.895-1.393 0-1.763 1.146-2.063 1.895l-1.93 4.769-2.591-6.54H5.493l3.226 7.95c0.326 0.802 0.688 1.895 2.09 1.895 1.4 0 1.753-1.093 2.08-1.895l1.912-4.724 1.921 4.724c0.388 0.978 0.802 1.895 2.08 1.895 0.908 0 1.481-0.582 1.798-0.96a10.493 10.493 0 0 0 2.168-6.4Z"/></svg>