<svg fill="#0093D5" role="img" viewBox="0 0 28 24" xmlns="http://www.w3.org/2000/svg"><title>World Health Organization</title><path d="M14.024 0c-1.206 0-0.693 1.789-0.597 2.372 0 0.028 0.097 4.047 0.116 4.963 0.183-0.049 0.366-0.093 0.539-0.135l0.365-0.092c0.017-0.886 0.107-4.721 0.109-4.742 0.08-0.624 0.711-2.366-0.532-2.366z m-0.353 13.646c0.135-0.046 0.27-0.086 0.391-0.125l0.261-0.081c0-0.258 0.078-3.822 0.091-4.469a8.191 8.191 0 0 0-0.829 0.239c0.009 0.486 0.08 4.048 0.086 4.436z m0.445 1.352c-0.046 0.016-0.163 0.066-0.237 0.092-0.074 0.026-0.178 0.069-0.178 0.096 0 0.027 0.075 4.102 0.075 4.192 0 0.843 0.429 0.849 0.429 0 0-0.061 0.086-4.438 0.086-4.438s-0.103 0.034-0.175 0.058z m-0.97-11.5a6.228 6.228 0 0 0-0.944 0.384c-0.337 0.112-0.809 0.135-1.305 0.667a6.676 6.676 0 0 0-0.449 0.577c-0.148 0.213-0.155 0.556-0.27 0.741-0.157 0.27-0.119 0.419-0.118 0.419v0.008a0.716 0.716 0 0 1-0.181 0.335 0.685 0.685 0 0 1-0.629 0.251c0.224 0.112 0.539-0.044 0.54-0.045a4.129 4.129 0 0 0-0.119 0.445c0.251-0.568 0.482-0.776 0.553-0.833 0.108 0.024 0.332 0.015 0.748-0.224 0.469-0.27 1.175-0.708 1.374-0.986a1.833 1.833 0 0 1 0.831-0.627c-0.015-0.428-0.023-0.797-0.031-1.112zM11.166 5.272L10.922 5.324l0.291-0.468 0.34 0.011z m1.45 9.792c0 0.529 0.391 0.809 0.781 1.035 0-0.089-0.016-0.908-0.016-0.921 0.008-0.163 0.166-0.262 0.294-0.323a6.347 6.347 0 0 1 0.619-0.236c0.116-0.041 0.214-0.08 0.325-0.112 0.782-0.236 1.688-0.54 1.688-1.484 0-0.944-0.776-1.349-1.619-1.636 0 0.304-0.015 0.747-0.022 1.053 0.359 0.135 0.596 0.312 0.597 0.583 0 0.341-0.364 0.539-0.622 0.637a6.716 6.716 0 0 1-0.317 0.111c-0.208 0.065-0.432 0.135-0.641 0.215a3.074 3.074 0 0 0-0.317 0.135c-0.372 0.186-0.751 0.46-0.75 0.943z m5.186-9.236c0-0.967-0.702-2.041-2.422-2.42a4.14 4.14 0 0 0-0.525-0.061c0 0.146-0.011 0.48-0.01 0.48 0 0.105-0.011 0.492-0.014 0.576a2.428 2.428 0 0 1 0.331 0.046c1 0.239 1.357 0.809 1.357 1.379 0 0.919-0.785 1.265-1.754 1.527l-0.32 0.083c-0.293 0.073-0.594 0.143-0.891 0.223a12.22 12.22 0 0 0-0.318 0.09c-1.07 0.326-1.99 0.842-1.989 2.159 0 1.317 1.05 1.8 2.073 2.115q-0.009-0.565-0.021-1.136c-0.452-0.212-0.77-0.491-0.771-0.96 0-0.469 0.29-0.737 0.734-0.945a3.422 3.422 0 0 1 0.316-0.122c0.255-0.086 0.539-0.16 0.843-0.234l0.32-0.077c1.442-0.337 3.061-0.789 3.061-2.723z m-3.229 10.808c0.486 0.245 0.933 0.585 1.121 1.229 0.082-1.066-0.515-1.527-1.107-1.839l-0.014 0.61zM22.523 4.395c0.521 0.621 1.431 0.986 1.964 1.608-0.382-1.839-1.801-3.34-3.479-3.699 0.819 0.617 0.996 1.473 1.515 2.091zM2.353 9.056c1.156-2.516 2.881-1.983 3.611-4.38-0.405 0.735-2.293 1.045-3.171 2.93 0.447-1.12 0.223-2.833 0.978-3.757-2.258 1.666-1.297 4.361-1.418 5.207z m2.093 6.034c0.208 0.979-0.405 2.393 0.567 3.745-1.004-1.125-3.13-1.411-3.996-3.122 1.079 4.182 3.912 3.319 5.179 4.226-1.047-1.504-0.19-2.504-1.75-4.849z m-0.325 2.624c-0.619-2.335 0.484-3.145-0.358-5.384-0.088 1.263-0.929 1.878-0.362 4.182C2.399 14.561 0.849 13.833 0.399 12.492c0.031 3.667 2.977 4.21 3.722 5.222z m4.525 3.912c-0.867-1.201-0.27-1.879-2.712-4.059 0.515 0.796-0.016 1.797 1.627 3.353-1.608-0.944-3.826-0.54-4.895-1.809 1.837 3.517 5.066 2.082 5.98 2.519z m11.793-0.706c1.643-1.557 1.112-2.563 1.627-3.353-2.436 2.18-1.844 2.858-2.712 4.059 0.915-0.437 4.143 0.998 5.979-2.515-1.068 1.271-3.286 0.865-4.894 1.813z m2.548-2.089c0.967-1.349 0.359-2.765 0.567-3.745-1.56 2.346-0.703 3.346-1.754 4.856 1.273-0.908 4.095-0.047 5.179-4.226-0.865 1.708-2.988 1.994-3.992 3.119z m-3.893 2.961a12.033 12.033 0 0 0-2.664-0.405 6.441 6.441 0 0 0-2.429 0.413 6.446 6.446 0 0 0-2.428-0.413 12.033 12.033 0 0 0-2.664 0.405c-1.466 0.39-2.733 0.692-3.838 0.134 1.059 0.944 2.293 1.275 4.078 1.08 1.484-0.159 2.686-0.903 4.086-0.892h0.055a7.483 7.483 0 0 0-2.309 1.796l0.675 0.09s0.711-1.429 2.345-1.801c1.635 0.372 2.346 1.801 2.346 1.801l0.675-0.09a7.504 7.504 0 0 0-2.31-1.786h0.056c1.4-0.011 2.6 0.733 4.084 0.891 1.785 0.193 3.02-0.143 4.08-1.079-1.105 0.552-2.372 0.25-3.838-0.14zM3.862 9.798c-0.604 1.16-1.543 1.426-1.439 3.827-0.51-2.134-1.721-2.925-1.707-4.286-0.842 3.548 1.408 3.969 1.986 5.455-0.085-2.13 1.275-2.56 1.16-4.996z m0.845-2.739c-0.21 0.294-0.357 0.42-0.919 0.883a4.556 4.556 0 0 0-1.635 2.666c0.058-1.3-0.746-3.169-0.212-4.531-2.068 2.921 0.119 4.67 0.196 5.728 0.537-2.036 1.77-2.052 2.57-4.746z m21.138 3.55A4.562 4.562 0 0 0 24.212 7.942c-0.561-0.463-0.708-0.588-0.919-0.883 0.8 2.698 2.033 2.71 2.563 4.746 0.077-1.058 2.264-2.807 0.194-5.728 0.54 1.362-0.263 3.231-0.205 4.532z m1.754 1.888c-0.449 1.341-1.999 2.069-3.001 4.026 0.568-2.309-0.27-2.925-0.362-4.182-0.843 2.242 0.27 3.047-0.359 5.383 0.746-1.023 3.692-1.566 3.724-5.232z m-3.457-2.699c-0.115 2.436 1.246 2.867 1.16 4.991 0.579-1.484 2.833-1.907 1.985-5.455 0.016 1.361-1.195 2.158-1.701 4.279 0.094-2.389-0.844-2.655-1.444-3.815zM5.48 4.402c0.522-0.62 0.699-1.474 1.516-2.091-1.678 0.359-3.103 1.86-3.479 3.699 0.525-0.629 1.437-0.994 1.957-1.615z m16.561 0.28c0.73 2.397 2.455 1.864 3.61 4.381-0.12-0.846 0.842-3.541-1.416-5.207 0.755 0.925 0.532 2.637 0.978 3.756-0.881-1.891-2.765-2.201-3.177-2.936z m-5.858 1.355a5.655 5.655 0 0 0-1.38-0.371v0.307a5.396 5.396 0 0 1 1.268 0.348 0.809 0.809 0 0 0 0.112-0.284zM15.833 3.069l0.092-0.082-0.175-0.075-0.462-0.009-0.12 0.084-0.27-0.023v0.066a4.688 4.688 0 0 1 0.475 0.05l0.226-0.02z m-0.894 9.949c0-0.078-0.104-0.155-0.258-0.228h-0.028c0 0.063 0 0.376-0.01 0.529 0.19-0.085 0.295-0.177 0.296-0.301zM9.594 7.15a1.473 1.473 0 0 1 0.039-0.169 0.781 0.781 0 0 1-0.189 0.019z m4.415 13.571a9.411 9.411 0 0 0 0.96-18.769c0 0.018 0 0.036-0.011 0.054-0.019 0.092-0.036 0.174-0.05 0.247a9.086 9.086 0 0 1 5.481 2.563l-1.039 1.039 0.039-0.184-0.135-0.059-0.186-0.011 0.039-0.12-0.125-0.425-0.259-0.285-0.81-0.427-0.07 0.074-0.147 0.043a2.428 2.428 0 0 1 0.429 1.364v0.185l0.405 0.506-0.189 0.043 0.125 0.189-0.354 0.353-0.143-0.27a2.417 2.417 0 0 1-0.27 0.531l0.08 0.072-1.095 1.094a3.731 3.731 0 0 0-0.205-0.182 5.195 5.195 0 0 1-0.321 0.135l0.093 0.073-0.055 0.055-0.135 0.072-0.047 0.135-0.08-0.08-0.23 0.077 0.063 0.101 0.159-0.042 0.104 0.008 0.008-0.056 0.08-0.041 0.024-0.047 0.143-0.04h0.112c0.022 0.019 0.044 0.039 0.065 0.059l-0.44 0.418-0.032-0.046-0.454 0.074-0.101 0.102-0.098 0.012 0.28-0.27-0.099-0.05-0.264 0.351 0.077-0.008v0.135l0.096 0.037 0.019 0.135-0.158-0.031-0.164 0.03-0.405-0.204-0.032 1.606c0.944 0.316 1.936 0.772 1.935 1.969a1.484 1.484 0 0 1-0.674 1.265l-0.02 0.014-0.03 0.02c-0.38 0.251-0.869 0.386-1.292 0.518l-0.013 0.839c0.674 0.335 1.491 0.822 1.416 2.215-0.01 0.343-0.143 0.437-0.258 0.468a7.085 7.085 0 0 1-1.214 0.193v0.307a7.537 7.537 0 0 0 4.692-2.072l1.092 1.092a9.088 9.088 0 0 1-12.586 0.026l1.093-1.093a7.531 7.531 0 0 0 4.626 2.044v-0.306a7.229 7.229 0 0 1-4.414-1.952l0.291-0.293 0.405 0.046 0.213-0.23 0.558 0.019 0.083-0.193-0.021-0.082a5.666 5.666 0 0 0 2.845 1.137v-0.307a5.387 5.387 0 0 1-3.064-1.406l1.094-1.094a3.892 3.892 0 0 0 0.886 0.595 1.035 1.035 0 0 1 0.111-0.287 3.537 3.537 0 0 1-0.782-0.525l1.097-1.095a2.005 2.005 0 0 0 0.586 0.325v-0.33a1.682 1.682 0 0 1-0.362-0.214l0.309-0.309a7.636 7.636 0 0 1-0.326-0.105l-0.208 0.208a1.673 1.673 0 0 1-0.262-0.39 3.719 3.719 0 0 1-0.539-0.289 2.117 2.117 0 0 1-1.024-1.859 2.231 2.231 0 0 1 0.442-1.416l-1.09-1.09a5.384 5.384 0 0 1 2.919-1.436c0-0.105 0-0.209-0.006-0.307a5.69 5.69 0 0 0-3.129 1.53l-0.184-0.181a5.105 5.105 0 0 0-0.147 0.284l0.116 0.118a5.683 5.683 0 0 0-1.546 3.803H6.757a7.233 7.233 0 0 1 2.006-4.903l0.491 0.493a0.622 0.622 0 0 0 0.071 0 0.742 0.742 0 0 0 0.279-0.081l-0.625-0.625a7.353 7.353 0 0 1 1.079-0.86 2.032 2.032 0 0 1 0.077-0.227 3.633 3.633 0 0 1 0.236-0.317 7.554 7.554 0 0 0-1.608 1.186l-1.092-1.093a9.065 9.065 0 0 1 5.409-2.536 2.414 2.414 0 0 1-0.014-0.068c-0.013-0.072-0.03-0.151-0.044-0.234a9.412 9.412 0 0 0 0.982 18.771z m2.039-6.496v-0.008z m4.557-9.189a9.073 9.073 0 0 1 2.515 6.184h-1.552a7.51 7.51 0 0 0-0.81-3.303l0.014-0.027 0.106 0.057 0.026-0.082-0.27-0.485-0.327-0.453-0.389-0.317c-0.135-0.165-0.27-0.324-0.414-0.477z m-1.977 1.979l0.371 0.016 0.089 0.107-0.044 0.157 0.511 0.324 0.101-0.012 0.661 0.755 0.27-0.094a7.204 7.204 0 0 1 0.675 2.952h-1.546a5.636 5.636 0 0 0-0.145-1.177l0.072-0.096 0.096-0.484-0.073-0.521-0.186-0.598-0.432-0.632 0.105 0.056 0.053-0.053-0.347-0.235-0.023 0.077 0.347 0.495 0.195 0.405 0.135 0.405 0.045 0.269 0.071 0.456-0.135 0.01s-0.15-0.279-0.195-0.394l0.069-0.104-0.135-0.189V8.721l-0.095-0.119-0.117 0.015a3.314 3.314 0 0 0-0.135-0.23l0.084 0.041 0.021-0.021-0.044-0.097 0.101-0.057-0.046-0.057-0.15 0.057 0.056-0.235-0.089-0.051-0.08 0.188a5.752 5.752 0 0 0-0.563-0.715z m-0.31 3.624l0.278-0.151 0.283-0.043 0.062-0.135 0.158-0.094 0.061-0.135 0.048-0.228a4.614 4.614 0 0 1 0.063 0.244l-0.15 0.447v0.151l0.217-0.29a5.226 5.226 0 0 1 0.077 0.809h-1.349l-0.031-0.117 0.158-0.126 0.031-0.075 0.068-0.051 0.184-0.019 0.019-0.081z m-1.856-1.061l0.135-0.032v-0.033l-0.135-0.093 0.047-0.291 0.166-0.166a3.664 3.664 0 0 1 0.287 0.373l-0.058 0.18-0.151-0.108-0.114 0.031 0.056 0.106h0.057l-0.064 0.158-0.043-0.063z m0.592 5.136l-0.335-0.095-0.099 0.036-0.189-0.144-0.178-0.063c0.088-0.063 0.173-0.135 0.255-0.2l0.27 0.194 0.21 0.111 0.104 0.104z m-0.17-5.966l1.094-1.094a5.454 5.454 0 0 1 0.675 0.909l-0.135 0.038 0.007 0.244 0.404 0.259a5.288 5.288 0 0 1 0.256 0.691l-0.071 0.105-0.148 0.095-0.037 0.226-0.101 0.057-0.085 0.1-0.085-0.031h-0.151l0.088-0.119 0.063-0.309 0.1-0.062-0.282-0.29-0.22 0.074-0.05 0.207-0.135 0.149-0.144-0.118-0.051-0.127 0.082-0.051 0.046 0.083 0.067-0.025-0.029-0.135h-0.096l-0.007 0.056-0.063 0.013-0.344-0.404-0.116-0.088 0.044-0.048 0.103-0.035-0.095-0.038s-0.12 0.027-0.135 0.027l0.069 0.086h-0.173a3.738 3.738 0 0 0-0.345-0.445z m0.557 5.821l-0.148-0.148 0.113-0.147 0.143-0.292-0.055-0.081 0.094-0.215-0.011-0.195-0.056-0.201-0.135-0.047-0.05 0.113-0.081-0.021a3.666 3.666 0 0 0 0.324-0.565l0.135-0.06 0.078-0.105 0.038 0.043 0.094-0.113-0.075-0.095 0.068-0.018 0.127 0.051h0.239l0.144-0.076 0.378-0.099-0.071-0.126-0.025-0.152 0.203 0.089 0.075-0.045-0.038-0.156-0.244 0.098-0.269-0.057-0.208-0.425h1.183a5.385 5.385 0 0 1-1.494 3.519l-0.161-0.164 0.07-0.217-0.127-0.479z m0.209 3.018l0.146-0.313-0.057-0.135 0.215-0.189v-0.113l-0.184-0.115 0.151-0.301 0.227-0.296-0.227-0.245h-0.17l-0.105-0.171a8.547 8.547 0 0 0 0.27-0.233l1.094 1.094a7.336 7.336 0 0 1-1.36 1.018z m1.365-1.444l0.122-0.134-0.115-0.599-0.078-0.031 0.049-0.102-0.259-0.081-0.05 0.214-0.026 0.269-0.054 0.05-0.472-0.472a5.689 5.689 0 0 0 1.584-3.733h1.547a7.224 7.224 0 0 1-2.037 4.827z m0.427 0.425a7.533 7.533 0 0 0 2.127-5.042h1.546a9.076 9.076 0 0 1-2.579 6.136z m-9.308-1.498a5.848 5.848 0 0 1-0.321-0.362l0.047-0.391-0.163-0.375-0.041-0.587-0.183-0.356 0.038-0.221-0.222-0.425-0.193-0.097 0.079-0.226-0.08-0.178 0.08-0.203h0.211l0.075-0.123h0.361l0.055 0.106-0.067 0.374-0.043 0.063 0.135 0.296-0.089 0.048-0.062-0.078-0.027 0.03 0.062 0.175 0.106 0.205h0.05l0.035-0.199-0.051-0.068v-0.124l-0.016-0.256 0.067-0.451-0.073-0.121h0.259a3.842 3.842 0 0 0 1.065 2.451z m-1.025-3.023l-0.146 0.229h-0.251l-0.02-0.015a5.496 5.496 0 0 1-0.079-0.735h0.466l-0.112 0.372z m0.508-1.062l0.028-0.308 0.184-0.106 0.328 0.058 0.05 0.059a3.642 3.642 0 0 0-0.05 0.532h-0.371z m1.574 1.156l0.077-0.039 0.193 0.152-0.088 0.072 0.228 0.151-0.005-0.162 0.121-0.201 0.127 0.135 0.135 0.186-0.248 0.051 0.106 0.213 0.164-0.086-0.016-0.067 0.121-0.083 0.071-0.337a2.011 2.011 0 0 0 0.355 0.54l-1.092 1.092a3.536 3.536 0 0 1-0.958-2.053l0.224 0.239h0.21z m-1.125-4.514l1.093 1.094a3.9 3.9 0 0 0-0.58 0.835h-0.076l-0.153 0.047h-0.054l-0.164 0.153 0.207-0.043 0.186-0.047-0.032 0.071-0.164 0.1h-0.082l-0.24 0.183-0.232-0.018-0.336 0.625 0.066 0.126-0.182 0.202-0.028 0.27h-0.686a5.385 5.385 0 0 1 1.457-3.598zM8.654 15.876l0.347 0.204 0.071 0.049-0.251 0.25q-0.175-0.182-0.34-0.376z m-0.347-4.35c0 0.15 0.019 0.3 0.035 0.446l-0.189 0.043-0.039 0.192-0.394 0.502 0.01 0.689-0.405 0.135h-0.221a7.214 7.214 0 0 1-0.345-2.009z m-1.527 1.999l-0.09-0.017-0.085-0.096-0.435-0.038 0.135 0.182-0.404-0.075 0.105-0.098-0.099-0.097-0.29 0.127-0.104 0.192 0.041 0.441 0.334 0.793 0.161 0.251 0.092 0.034-0.253-0.479-0.055-0.245 0.057-0.059-0.035-0.135 0.152 0.021 0.234 0.353 0.058 0.023v-0.258l0.094 0.055 0.02 0.135 0.246 0.065 0.102-0.073 0.035 0.025v0.187l0.108 0.135 0.135 0.03 0.286 0.484 0.174 0.049 0.054-0.227a7.597 7.597 0 0 0 1.066 1.376l-1.093 1.093a9.081 9.081 0 0 1-2.62-6.153h1.548a7.531 7.531 0 0 0 0.326 1.999z m0.675-8.516l1.092 1.092a7.542 7.542 0 0 0-2.096 5.119h-1.546A9.076 9.076 0 0 1 7.448 5.009z m11.196-0.564l-0.093-0.151-0.202-0.101-0.158 0.12 0.202 0.108 0.218 0.166z m-0.945 4.364v0.119l0.269-0.08 0.083-0.163-0.185-0.243 0.098-0.148 0.25 0.178 0.046-0.037-0.05-0.035-0.057-0.108 0.103-0.059-0.1-0.135-0.235 0.119-0.078 0.147-0.047 0.128 0.104 0.174-0.038 0.081z m-11.184 6.936l0.021-0.07-0.135-0.302-0.165-0.061z m6.325-5.811c0 0.259 0.158 0.442 0.445 0.6v-0.116l-0.181-0.18 0.096-0.174 0.078-0.022c0-0.302-0.012-0.641-0.013-0.689h-0.014c-0.267 0.148-0.411 0.326-0.411 0.581Z"/></svg>