<svg fill="#F56640" role="img" viewBox="0 0 17 24" xmlns="http://www.w3.org/2000/svg"><title>WP Rocket</title><path d="M0.223 0.666c-0.08-0.276 0.08-0.47 0.356-0.47h2.283c0.16 0 0.31 0.137 0.356 0.274L4.893 7.07h0.08L7.991 0.218A0.374 0.374 0 0 1 8.324 0h0.356c0.172 0 0.287 0.092 0.333 0.218l3.018 6.85h0.08L13.786 0.47a0.397 0.397 0 0 1 0.356-0.275h2.284c0.275 0 0.424 0.195 0.355 0.47l-3.683 13.082a0.369 0.369 0 0 1-0.356 0.275h-0.31a0.38 0.38 0 0 1-0.333-0.218l-3.568-7.963h-0.058l-3.545 7.963a0.403 0.403 0 0 1-0.333 0.218h-0.31a0.379 0.379 0 0 1-0.356-0.275L0.223 0.666m8.308 7.917l-2.594 5.818a1.663 1.663 0 0 1-0.344 0.448v0.004a1.466 1.466 0 0 1-0.688 0.34l1.4 8.687c0.091 0.16 0.263 0.16 0.367 0l1.79-2.72 1.64 2.708c0.104 0.16 0.265 0.16 0.368 0l1.584-8.698a1.5 1.5 0 0 1-0.832-0.618l-0.02-0.03a1.405 1.405 0 0 1-0.066-0.12l-0.609-1.366h-0.003Z"/></svg>