<svg fill="#5AC4EE" role="img" viewBox="0 0 42 24" xmlns="http://www.w3.org/2000/svg"><title>Write.as</title><path d="M22.42 0l3.812 13.134a294.005 294.005 0 0 1 1.165 4.301h0.043c0.094-0.651 0.254-1.35 0.478-2.106l0.617-2.056 1.837-6.021 0.372-1.174c0.108-0.348 0.22-0.668 0.336-0.964 0.119-0.292 0.229-0.572 0.34-0.836 0.108-0.264 0.231-0.526 0.372-0.788v-0.049l-2.744 0.183V0h9.041V3.045c-0.637 0-1.193 0.208-1.672 0.626a6.311 6.311 0 0 0-1.244 1.487 11.063 11.063 0 0 0-0.862 1.721 39.845 39.845 0 0 0-0.5 1.326l-5.416 15.737h-5.044L20.073 13.785c-0.093-0.248-0.21-0.603-0.348-1.06a82.107 82.107 0 0 1-0.432-1.487c-0.145-0.537-0.303-1.09-0.464-1.661-0.161-0.574-0.313-1.116-0.453-1.629h-0.045c-0.093 0.666-0.245 1.415-0.455 2.244-0.208 0.829-0.425 1.639-0.651 2.428-0.224 0.789-0.434 1.503-0.626 2.139-0.194 0.637-0.339 1.084-0.43 1.349l-2.626 7.834h-4.722L3.057 7.439a48.679 48.679 0 0 1-0.825-2.431 6.988 6.988 0 0 1-0.198-0.731l-0.164-0.744L0.01 3.626V0h11.415V3.045c-0.668 0.047-1.137 0.247-1.41 0.604-0.271 0.357-0.404 0.815-0.404 1.371-0.016 0.264 0.002 0.544 0.056 0.836a8.571 8.571 0 0 0 0.224 0.908l1.602 5.811c0.187 0.698 0.367 1.431 0.546 2.197 0.177 0.766 0.322 1.546 0.432 2.336h0.046l0.234-1.046a69.926 69.926 0 0 1 0.579-2.499c0.126-0.486 0.271-1.027 0.444-1.613l3.486-11.95h5.16zM41.99 20.096a3.904 3.904 0 1 1-7.808 0 3.904 3.904 0 1 1 7.808 0"/></svg>