<svg fill="#000000" role="img" viewBox="0 0 27 24" xmlns="http://www.w3.org/2000/svg"><title>WWE</title><path d="M26.648 0L17.521 18.662l-3.806-9.346-3.807 9.346L0.783 0.001l3.537 9.836 3.6 9.313C4.597 20.036 1.812 21.27 0.352 22.683c0.485-0.184 3.802-1.359 8.118-2.111l1.326 3.428 1.7-3.854a40.286 40.286 0 0 1 4.339-0.224l1.801 4.078 1.534-3.966c2.336 0.159 4.23 0.467 5.122 0.758 0 0 1.008-2.15 1.466-3.14a60.083 60.083 0 0 0-5.629-0.101l2.982-7.715z m-23.929 0.028L9.819 14.038l3.909-10.03 3.908 10.03 7.101-14.011-7.048 9.261-3.961-9.006-3.961 9.006z m10.996 15.094l1.221 2.764a46.545 46.545 0 0 0-2.589 0.336Z"/></svg>