<svg fill="#00549F" role="img" viewBox="0 0 40 24" xmlns="http://www.w3.org/2000/svg"><title>Wwise</title><path d="M10.25 12c0 1.242-1.006 2.25-2.25 2.25-1.242 0-2.25-1.008-2.25-2.25 0-1.243 1.008-2.25 2.25-2.25C9.244 9.75 10.25 10.757 10.25 12m12.75-9c0 1.656-1.342 3-3 3-1.656 0-3-1.344-3-3 0-1.657 1.344-3 3-3 1.658 0 3 1.343 3 3M3.5 12a1.5 1.5 0 0 1-1.5 1.5C1.173 13.5 0.5 12.828 0.5 12c0-0.829 0.673-1.5 1.5-1.5 0.829 0 1.5 0.671 1.5 1.5M39.5 12c0 0.828-0.672 1.5-1.5 1.5-0.827 0-1.5-0.672-1.5-1.5 0-0.829 0.673-1.5 1.5-1.5 0.828 0 1.5 0.671 1.5 1.5m-5.25 0c0 1.242-1.007 2.25-2.25 2.25C30.758 14.25 29.75 13.242 29.75 12c0-1.243 1.008-2.25 2.25-2.25 1.243 0 2.25 1.007 2.25 2.25m-13.366 4.608c0.006 0.869 0.416 1.648 1.07 2.135 0.651 0.541 1.07 1.366 1.069 2.283 0 1.648-1.331 2.974-2.972 2.974H20c-1.644 0-2.977-1.327-2.977-2.974 0-0.917 0.422-1.741 1.074-2.283 0.65-0.488 1.075-1.266 1.069-2.135v-0.209c-0.007-0.877-0.419-1.655-1.069-2.137-0.652-0.546-1.073-1.369-1.074-2.288 0-1.645 1.333-2.974 2.977-2.974h0.051c1.642 0 2.973 1.329 2.973 2.974 0 0.919-0.419 1.742-1.07 2.288a2.627 2.627 0 0 0-1.07 2.137v0.209m6-4.5c0.005 0.869 0.416 1.648 1.07 2.135 0.651 0.541 1.07 1.366 1.07 2.283 0 1.648-1.331 2.974-2.973 2.974h-0.051c-1.644 0-2.977-1.326-2.976-2.974 0-0.917 0.422-1.741 1.073-2.283 0.65-0.488 1.075-1.266 1.069-2.135v-0.209c-0.007-0.877-0.419-1.655-1.069-2.137-0.652-0.546-1.073-1.369-1.073-2.288 0-1.645 1.333-2.974 2.976-2.974h0.051c1.642 0 2.973 1.329 2.973 2.974 0 0.919-0.419 1.742-1.07 2.288a2.627 2.627 0 0 0-1.07 2.137v0.209m-12 0c0.006 0.869 0.416 1.648 1.07 2.135a2.971 2.971 0 0 1 1.069 2.283c0 1.648-1.331 2.974-2.972 2.974h-0.051c-1.644 0-2.977-1.326-2.977-2.974 0-0.917 0.422-1.741 1.074-2.283 0.65-0.488 1.075-1.266 1.069-2.135v-0.209c-0.007-0.877-0.419-1.655-1.069-2.137-0.652-0.546-1.073-1.369-1.074-2.288 0-1.645 1.333-2.974 2.977-2.974h0.051c1.641 0 2.973 1.329 2.972 2.974 0 0.919-0.419 1.742-1.069 2.288a2.628 2.628 0 0 0-1.07 2.137v0.209"/></svg>