<svg fill="#1DF0BB" role="img" viewBox="0 0 114 24" xmlns="http://www.w3.org/2000/svg"><title>Wyze</title><path d="M26.057 17.555L34.712 0h4.619L27.499 24h-2.883l-4.903-9.873-4.904 9.873h-2.888L0.094 0h4.614l8.66 17.418 4.035-8.09-4.614-9.328h4.614l8.654 17.555Zm40.105-17.555l-10.675 16.322v7.545h-4.182v-7.545L40.483 0h4.903l7.934 12.069 7.934-12.069h4.908Zm25.816 19.889H113.906v4.111h-21.928v-4.111Zm0-19.889H113.906v4.116h-21.928v-4.116Zm0 9.878H113.906v4.111h-21.928v-4.111Zm-1.295-9.878l-16.303 20.026h14.857v3.974H65.726l16.156-20.021h-14.426v-3.979h23.227Z"/></svg>