<svg fill="#147EFB" role="img" viewBox="0 0 24 24" xmlns="http://www.w3.org/2000/svg"><title>Xcode</title><path d="M19.06 5.333c0.452-0.194 0.774-0.258 1.097-0.194 0.516 0.129 0.774 0.516 0.968 0.71 0.194 0.387 0.903 0.774 1.226 0.839 0.258 0.065 0.71-0.645 1.033-1.291 0.323-0.581 0.516-1.355 0.451-1.548-0.065-0.194-0.968-0.581-1.161-0.581-0.129 0-0.387 0.129-0.839 0.064-0.452-0.065-0.903-0.581-1.162-0.968-0.452-0.645-1.097-1.032-1.678-1.355-0.645-0.323-1.355-0.516-2.065-0.645-1.032-0.258-2.065-0.452-3.097-0.323-0.581 0.065-1.291 0.129-1.807 0.323-0.065 0-0.194 0.194-0.065 0.193s0.581 0.065 0.581 0.065-0.581 0.129-0.58 0.258c0 0.129 0.065 0.129 0.129 0.129 0.065 0 1.484-0.065 2.065 0 0.645 0.129 1.355 0.452 1.807 1.226 0.774 1.42 0.452 2.775 0.258 3.227-0.968 2.13-8.647 15.229-9.035 16.133-0.387 0.903-0.516 1.484 0.581 2.065s1.678 0.323 2-0.065c0.387-0.516 7.034-17.165 9.293-18.262z m-3.614 8.712h1.549c1.032 0 1.226 0.516 1.226 0.709 0.065 0.516-0.194 1.162-1.226 1.162h-0.968l0.774 1.291c0.452 0.774 0.258 1.162 0 1.419-0.387 0.387-1.226 0.387-1.677-0.451l-0.904-1.549c-0.645 1.42-1.291 2.968-2.065 4.775h4.001c1.936 0 3.549-1.613 3.549-3.549V6.559c-0.065-0.129-0.194-0.065-0.258 0-0.387 0.452-1.484 2-4.001 7.486z m-9.809 8.001h-0.322c-2.323 0-4.194-1.871-4.195-4.194V7.011c0-2.323 1.871-4.194 4.195-4.195h9.357c-0.194-0.194-0.968-0.516-1.742-0.452-0.323 0-0.968 0.129-1.356-0.129-0.387-0.323-0.323-0.516-0.903-0.516H4.928c-2.646 0-4.775 2.13-4.776 4.775v11.745c0 2.646 2.13 4.775 4.453 4.711 0.645 0 0.839-0.516 1.032-0.904zM20.415 6.946v10.906c0 2.323-1.871 4.194-4.194 4.194H11.897s-0.387 1.032 0.839 1.033h3.872c2.646 0 4.775-2.13 4.775-4.775V8.817c0.065-0.903-0.71-1.484-0.968-1.871z m-18.585 0.065v10.841c0 1.936 1.613 3.549 3.549 3.549h0.581c0-0.065 0.774-1.42 2.452-4.259 0.194-0.387 0.452-0.774 0.71-1.226H4.411c-0.581 0-0.903-0.387-0.968-0.71-0.129-0.516 0.194-1.162 0.904-1.161h2.387l3.033-5.292s-0.71-1.291-0.903-1.613c-0.258-0.452-0.129-0.903 0.129-1.162 0.387-0.387 1.032-0.581 1.678 0.452l0.258 0.387 0.258-0.387c0.581-0.839 0.968-0.774 1.291-0.71 0.516 0.129 0.839 0.71 0.387 1.613L8.864 14.045h1.355c0.452-0.774 0.903-1.549 1.355-2.388-0.065-0.323-0.129-0.71-0.064-1.033 0.065-0.516 0.323-0.968 0.645-1.355l0.387 0.645c1.226-2.13 2.13-3.936 2.388-4.646 0.129-0.387 0.323-1.162 0.129-1.807H5.379c-2.001 0-3.549 1.613-3.549 3.55zM4.605 17.787c0-0.065 0.774-1.42 0.774-1.419 1.226-0.323 1.807 0.452 1.872 0.516 0 0-0.839 1.484-1.097 1.742s-0.581 0.323-0.904 0.258c-0.516-0.129-0.839-0.645-0.645-1.097z"/></svg>