<svg fill="#F28834" role="img" viewBox="0 0 29 24" xmlns="http://www.w3.org/2000/svg"><title>X.Org</title><path d="M23.934 0l-10.803 14.108 5.463 7.595a16.979 16.979 0 0 1-3.041 0.271c-2.836 0-5.444-0.686-7.505-1.832l7.79-10.25-7.166-9.875L2.892 0.012 11.886 12.571l-5.147 6.725c-2.01-1.504-3.243-3.523-3.243-5.741 0-2.531 1.602-4.803 4.135-6.348l-0.778-1.187C2.88 7.707 0.242 10.665 0.242 14.032c0 2.89 1.943 5.477 5.004 7.219l-2.097 2.741h1.974l1.543-2.031c2.248 0.986 4.94 1.561 7.833 1.561a20.71 20.71 0 0 0 4.976-0.595l0.772 1.073h5.781l-2.055-2.878C26.908 19.384 28.758 16.851 28.758 14.032c0-3.493-2.84-6.549-7.067-8.198l-0.258 0.369c3.682 1.442 6.173 4.195 6.173 7.353 0 2.616-1.711 4.955-4.394 6.499l-6.123-8.578 8.771-11.476zM14.5 4.58c-0.696 0-1.44 0.055-2.109 0.119 1.193 1.555 2.181 2.872 3.321 4.368-0.639-1.375-1.953-2.695-1.498-3.373 0.449-0.671 1.277-0.558 1.34-0.559 1.328 0 2.607 0.151 3.802 0.428l0.279-0.385C18.041 4.765 16.31 4.579 14.5 4.579z"/></svg>