<svg fill="#2284F2" role="img" viewBox="0 0 46 24" xmlns="http://www.w3.org/2000/svg"><title>XFCE</title><path d="M0.278 0.001a0.199 0.199 0 0 0-0.066 0.004v-0.001l-0.029 0.005-0.026 0.014a0.221 0.221 0 0 0-0.093 0.102 0.219 0.219 0 0 0-0.013 0.128c0.014 0.069 0.044 0.106 0.075 0.144 0.062 0.077 0.15 0.153 0.273 0.246 0.245 0.187 0.626 0.432 1.142 0.725 1.032 0.586 2.601 1.363 4.643 2.204 2.015 0.829 4.435 2.306 6.286 3.657 0.925 0.675 1.71 1.32 2.229 1.83 0.259 0.256 0.452 0.479 0.559 0.645 0.054 0.083 0.085 0.151 0.095 0.192 0.005 0.02 0.006 0.03 0.006 0.034-1.338 1.889-2.129 4.183-1.587 8.025l0.001 0.001v0c0.011 0.072-0.061 0.242-0.23 0.45-0.169 0.207-0.415 0.446-0.663 0.699-0.248 0.253-0.498 0.521-0.683 0.802-0.185 0.281-0.312 0.585-0.264 0.902v0.001l0 0.001c0.023 0.142 0.119 0.268 0.24 0.322 0.121 0.054 0.248 0.053 0.38 0.035 0.264-0.035 0.564-0.151 0.867-0.277 0.303-0.126 0.606-0.265 0.837-0.35a1.514 1.514 0 0 1 0.251-0.072c0 0.04 0.004 0.059-0.006 0.123-0.02 0.117-0.056 0.265-0.103 0.431-0.093 0.331-0.228 0.731-0.352 1.124-0.124 0.393-0.237 0.776-0.287 1.09-0.025 0.157-0.036 0.296-0.016 0.425 0.02 0.128 0.094 0.27 0.234 0.322l0.006 0.002 0.005 0.002c0.097 0.029 0.16 0.002 0.222-0.023a1.267 1.267 0 0 0 0.199-0.103c0.143-0.088 0.314-0.214 0.508-0.367 0.388-0.305 0.864-0.718 1.333-1.131 0.47-0.414 0.932-0.829 1.288-1.136 0.178-0.153 0.33-0.279 0.439-0.362a1.544 1.544 0 0 1 0.119-0.084c2.865 0.853 6.126 0.959 8.701 0.843a40.127 40.127 0 0 0 3.227-0.275c0.404-0.052 0.729-0.1 0.959-0.138 0.115-0.019 0.206-0.035 0.271-0.048a2.238 2.238 0 0 0 0.063-0.013l0.001 0c0.037 0.016 0.094 0.042 0.166 0.075l0.609 0.276c0.507 0.23 1.189 0.536 1.887 0.834 0.698 0.298 1.411 0.587 1.985 0.784 0.287 0.099 0.538 0.175 0.741 0.218 0.102 0.021 0.191 0.035 0.273 0.038 0.081 0.002 0.158 0.002 0.244-0.054l0.018-0.012 0.015-0.016c0.336-0.363 0.35-0.814 0.189-1.21-0.16-0.396-0.47-0.77-0.789-1.122-0.32-0.352-0.653-0.683-0.861-0.954-0.104-0.136-0.174-0.257-0.199-0.341-0.023-0.075-0.012-0.101 0.011-0.136a0.46 0.46 0 0 1 0.096 0c0.112 0.01 0.279 0.045 0.475 0.097 0.393 0.104 0.906 0.276 1.42 0.445 0.514 0.169 1.027 0.335 1.434 0.43 0.204 0.048 0.379 0.079 0.529 0.081 0.075 0.001 0.144-0.004 0.214-0.029 0.07-0.024 0.149-0.081 0.183-0.168l0.001-0.004 0.002-0.004c0.096-0.29-0.011-0.6-0.182-0.911-0.171-0.311-0.421-0.632-0.688-0.943-0.266-0.31-0.549-0.608-0.783-0.858-0.233-0.25-0.42-0.464-0.477-0.559-0.119-0.21-0.192-0.491-0.158-0.763 0.033-0.272 0.162-0.536 0.473-0.752 0.061-0.043 0.253-0.143 0.513-0.268 0.26-0.125 0.595-0.28 0.977-0.459 0.764-0.358 1.716-0.813 2.64-1.321 0.924-0.507 1.818-1.066 2.474-1.642 0.656-0.576 1.101-1.183 1.013-1.814-0.138-1.024-0.813-1.804-1.715-2.39-0.902-0.585-2.038-0.99-3.157-1.284-1.119-0.294-2.222-0.477-3.051-0.606-0.415-0.064-0.762-0.115-1.005-0.16a3.026 3.026 0 0 1-0.275-0.06h-0.001a8.071 8.071 0 0 1 0-0.168c0.001-0.158 0.003-0.377 0-0.633-0.007-0.511-0.036-1.171-0.143-1.801-0.107-0.631-0.287-1.235-0.635-1.644-0.348-0.409-0.899-0.582-1.57-0.317-0.444 0.166-0.693 0.551-0.798 0.993-0.105 0.442-0.086 0.952-0.018 1.452 0.068 0.501 0.188 0.992 0.296 1.387 0.109 0.394 0.209 0.707 0.227 0.786v0.001c0.011 0.05 0.01 0.033-0.009 0.048-0.019 0.015-0.081 0.04-0.159 0.047a0.779 0.779 0 0 1-0.241-0.018c-0.071-0.018-0.12-0.056-0.11-0.044-0.015-0.018-0.072-0.116-0.133-0.246-0.061-0.13-0.134-0.298-0.218-0.488-0.166-0.379-0.373-0.844-0.611-1.281-0.239-0.437-0.506-0.848-0.82-1.123-0.156-0.138-0.327-0.243-0.515-0.289a0.85 0.85 0 0 0-0.586 0.069l-0.003 0.002-0.003 0.003c-0.489 0.269-0.752 0.698-0.859 1.161-0.107 0.462-0.072 0.96 0.006 1.422 0.078 0.462 0.2 0.891 0.278 1.203 0.039 0.156 0.066 0.284 0.073 0.357 0.002 0.024 0.001 0.027 0.001 0.034-0.349 0.218-0.526 0.562-0.662 0.916-0.142 0.371-0.261 0.759-0.504 1.097l-0.001 0.001-0.001 0.001c-0.073 0.105-0.228 0.2-0.471 0.263-0.243 0.063-0.565 0.094-0.939 0.095-0.748 0.002-1.704-0.113-2.701-0.272-1.993-0.317-4.135-0.807-5.227-0.873-0.822-0.049-1.602 0.26-2.192 0.549-0.295 0.145-0.544 0.287-0.72 0.379a1.706 1.706 0 0 1-0.183 0.085c-1.907-1.9-5.763-5.142-10.042-6.236-1.173-0.318-2.654-0.946-3.854-1.491-0.6-0.273-1.131-0.524-1.522-0.707a21.754 21.754 0 0 0-0.475-0.218 2.708 2.708 0 0 0-0.148-0.061 0.629 0.629 0 0 0-0.059-0.019C0.299 0.009 0.292 0.004 0.278 0.002z m43.419 3.511a0.119 0.119 0 0 0-0.035 0.009c-0.038 0.016-0.049 0.036-0.06 0.051a0.441 0.441 0 0 0-0.049 0.103c-0.03 0.081-0.063 0.195-0.099 0.335-0.071 0.282-0.15 0.669-0.218 1.065-0.067 0.396-0.122 0.799-0.142 1.118-0.01 0.16-0.012 0.297 0 0.406a0.609 0.609 0 0 0 0.03 0.146 0.203 0.203 0 0 0 0.091 0.112 0.143 0.143 0 0 0 0.083 0.025 0.151 0.151 0 0 0 0.083-0.033c0.039-0.031 0.059-0.067 0.08-0.108 0.042-0.083 0.078-0.196 0.114-0.336 0.073-0.281 0.143-0.667 0.198-1.065 0.055-0.397 0.096-0.805 0.108-1.128 0.006-0.161 0.006-0.3-0.004-0.411a0.791 0.791 0 0 0-0.024-0.144 0.207 0.207 0 0 0-0.069-0.113c-0.012-0.011-0.025-0.024-0.046-0.029a0.117 0.117 0 0 0-0.041-0.003z m2.125 0.404a0.199 0.199 0 0 0-0.082 0.015c-0.045 0.018-0.082 0.046-0.123 0.08-0.082 0.07-0.174 0.172-0.276 0.301-0.205 0.257-0.447 0.616-0.67 0.99-0.222 0.375-0.425 0.765-0.548 1.088-0.062 0.161-0.104 0.305-0.118 0.429-0.014 0.124-0.001 0.248 0.098 0.321 0.055 0.04 0.129 0.029 0.172 0.007 0.043-0.022 0.077-0.053 0.114-0.091 0.074-0.077 0.155-0.186 0.246-0.323 0.181-0.272 0.393-0.648 0.594-1.033a18.53 18.53 0 0 0 0.527-1.085 5.226 5.226 0 0 0 0.154-0.383 0.998 0.998 0 0 0 0.037-0.129A0.244 0.244 0 0 0 45.953 4.046c0-0.021 0.001-0.054-0.036-0.091l-0.004-0.004-0.003-0.003a0.145 0.145 0 0 0-0.088-0.032zM37.478 7.465c0.348 0 0.64 0.325 0.64 0.741 0 0.416-0.292 0.741-0.64 0.741-0.348 0-0.64-0.324-0.64-0.741 0-0.417 0.292-0.741 0.64-0.741z m-1.688 0.649c0.151 0.556 0.341 0.981 0.67 1.239 0.312 0.245 0.758 0.33 1.318 0.346-0.345 0.247-0.659 0.366-0.918 0.335-0.321-0.038-0.591-0.239-0.792-0.513s-0.327-0.623-0.357-0.924c-0.021-0.206 0.018-0.361 0.079-0.483z m3.999 3.406c0.102-0.008 0.159 0.012 0.174 0.026l0.016 0.016 0.022 0.008c0.013 0.005 0.006 0.001 0.01 0.004-0.021 0.031-0.095 0.102-0.215 0.177-0.251 0.159-0.668 0.353-1.108 0.532-0.44 0.178-0.905 0.343-1.258 0.449-0.113 0.034-0.187 0.05-0.272 0.071 0.055-0.041 0.098-0.075 0.171-0.124a12.164 12.164 0 0 1 0.993-0.585c0.373-0.197 0.76-0.376 1.071-0.481 0.156-0.052 0.294-0.085 0.396-0.093z m0.46 0.902a0.131 0.131 0 0 1 0.048 0.004c0.051 0.058 0.075 0.112 0.067 0.184-0.01 0.081-0.055 0.183-0.136 0.295-0.161 0.222-0.45 0.474-0.762 0.701-0.312 0.228-0.646 0.434-0.899 0.579-0.092 0.053-0.157 0.087-0.223 0.121 0.029-0.057 0.055-0.111 0.107-0.188 0.15-0.222 0.381-0.509 0.635-0.782 0.253-0.273 0.53-0.535 0.766-0.708 0.118-0.087 0.226-0.151 0.311-0.184a0.3 0.3 0 0 1 0.086-0.022z"/></svg>