<svg fill="#FF2442" role="img" viewBox="0 0 68 24" xmlns="http://www.w3.org/2000/svg"><title>Xiaohongshu</title><path d="M63.125 6.06c0.006 0.045 0.028 0.056 0.196 0.053h2.03a2.231 2.231 0 0 0 2.183-2.72 2.223 2.223 0 0 0-2.475-1.73 2.225 2.225 0 0 0-1.937 2.222c0 0.283-0.006 1.864 0.003 2.175z m-32.216 13.459c-0.568 0.003-3.787 0.011-4.716 0.008a7.076 7.076 0 0 1-2.144-0.353 0.07 0.07 0 0 0-0.084 0.04L21.963 23.55a0.07 0.07 0 0 0 0.028 0.089c0.311 0.168 0.941 0.347 1.386 0.347 1.847 0.028 3.695 0.006 5.545 0 0.028 0 0.056-0.017 0.064-0.042l1.993-4.325a0.07 0.07 0 0 0-0.067-0.1zM1.745 6.147c-0.199 0-0.213 0.006-0.213 0.028a2.335 2.335 0 0 0-0.028 0.224c-0.076 1.111-0.106 1.386-0.655 8.565-0.034 0.672-0.095 1.089-0.378 1.7-0.073 0.16-0.092 0.118 0.008 0.313 0.129 0.258 1.906 4.263 2.203 4.871 0.022 0.042 0.031 0.056 0.048 0.056 0.022 0 0.092-0.073 0.132-0.124 0.411-0.523 0.75-1.094 1.038-1.696 0.857-1.777 1.232-3.709 1.36-4.775 0.039-0.308 0.059-0.616 0.084-0.924l0.571-7.323 0.062-0.82c0.008-0.081 0-0.092-0.084-0.095z m20.162 10.517a3.994 3.994 0 0 1-0.378-1.7c-0.011-0.235-0.087-1.092-0.657-8.565a1.24 1.24 0 0 0-0.028-0.23c-0.011-0.031-0.146-0.022-0.213-0.022h-4.143c-0.084 0.003-0.095 0.014-0.084 0.095l0.059 0.82c0.213 2.749 0.428 5.498 0.652 8.247 0.14 1.12 0.521 3.037 1.363 4.775 0.288 0.602 0.624 1.173 1.036 1.696 0.042 0.05 0.104 0.143 0.134 0.138 0.056-0.008 2.077-4.596 2.251-4.941 0.101-0.196 0.084-0.154 0.008-0.313z m10.808-2.556h-2.441a0.353 0.353 0 0 1-0.325-0.498l3.298-7.348a0.07 0.07 0 0 0-0.065-0.098l-3.689-0.009a0.414 0.414 0 0 1-0.378-0.587l2.452-5.47a0.07 0.07 0 0 0-0.064-0.098h-4.367c-0.028 0-0.056 0.017-0.067 0.042l-2.592 5.789c-0.238 0.473-0.879 1.775-1.117 2.625a1.495 1.495 0 0 0-0.056 0.535 1.288 1.288 0 0 0 0.644 1.058 2.746 2.746 0 0 0 1.287 0.333h1.652c0.115 0-1.926 4.148-2.335 5.52a1.484 1.484 0 0 0-0.064 0.482 1.302 1.302 0 0 0 0.644 1.114c0.42 0.258 0.957 0.336 1.329 0.336l4.647-0.003c0.028 0 0.056-0.017 0.065-0.042l1.609-3.583a0.07 0.07 0 0 0-0.067-0.098z m-19.398-13.82H9.087a0.09 0.09 0 0 0-0.095 0.093c0 2.934-0.028 7.824-0.028 19.115 0 0.806-0.753 0.733-0.784 0.734h-2.071c-0.112 0.003-0.123 0.011-0.112 0.131 0.003 0.104 1.302 2.978 1.553 3.536 0.028 0.056 0.084 0.092 0.143 0.092 0.439 0.008 2.147 0.025 2.626-0.039 0.428-0.056 0.84-0.168 1.226-0.37 0.84-0.437 1.372-1.173 1.665-2.141 0.146-0.481 0.21-0.988 0.21-1.492 0.006-6.522 0-13.044-0.02-19.569a0.09 0.09 0 0 0-0.089-0.09z m32.985 19.303c0-0.039-0.028-0.059-0.067-0.061h-4.101c-0.134-0.003-0.137-0.006-0.14-0.137v-13.044c0-0.202-0.014-0.196 0.196-0.196h2.416c0.224 0 0.21 0.011 0.21-0.208V1.901c0-0.23 0.017-0.213-0.224-0.213h-9.797c-0.179 0-0.21-0.017-0.21 0.204v4.045c0 0.232-0.017 0.216 0.224 0.216h2.39c0.21 0 0.196-0.011 0.196 0.196v12.943c0 0.266 0.022 0.235-0.238 0.235-1.036 0-3.107-0.006-3.65 0-0.134 0.003-0.168 0.084-0.168 0.084l-1.951 4.252s-0.039 0.07-0.022 0.101c0.017 0.028 0.036 0.022 0.162 0.022 4.893 0.008 9.783 0.006 14.676 0.006 0.084-0.003 0.095-0.017 0.098-0.093v-4.308z m11.692-9.601c0 0.036-0.02 0.064-0.056 0.067-0.969 0.017-1.937 0.011-2.902 0.012-0.039-0.006-0.062-0.028-0.062-0.068-0.014-1.215-0.02-2.432-0.028-3.647 0-0.202-0.017-0.199 0.196-0.196l2.052-0.008c0.115 0 0.227 0.006 0.336 0.042 0.26 0.07 0.448 0.3 0.462 0.571 0.017 1.206 0.006 3.227 0.002 3.227z m7.474 0.683a5.467 5.467 0 0 0-2.472-0.621h-0.503c-0.112-0.003-0.112-0.008-0.118-0.112V6.987c0-0.369-0.02-0.736-0.07-1.103a5.103 5.103 0 0 0-0.428-1.484 4.291 4.291 0 0 0-1.895-1.987 6.066 6.066 0 0 0-2.799-0.722c-0.428-0.008-1.587 0-2.016 0-0.196 0-0.19 0.011-0.19-0.182V0.129c0-0.087-0.028-0.115-0.129-0.109H50.599s-0.045 0-0.065 0.019c-0.017 0.017-0.022 0.034-0.022 0.065v1.528c-0.022 0.101-0.16 0.042-0.229 0.062h-2.66c-0.062 0.006-0.078 0.022-0.084 0.089v4.146c0 0.252-0.011 0.23 0.23 0.229h2.556c0.23 0 0.202 0.358 0.201 0.359V9.73s0.008 0.328-0.168 0.327h-4.148c-0.19 0-0.168 0.23-0.168 0.23v4.045s-0.028 0.19 0.179 0.19h4.078c0.23 0 0.213-0.017 0.213 0.221v9.028c0 0.246-0.02 0.227 0.23 0.226h4.002c0.252 0 0.23 0.02 0.23-0.224v-9.153c0-0.081 0.017-0.098 0.092-0.098l6.503-0.008c0.274 0 0.535 0.056 0.784 0.171a1.288 1.288 0 0 1 0.767 1.139c0.022 1.106 0.008 2.211 0.008 3.317 0 0.725-0.3 1.027-0.924 1.027h-3.409c-0.064 0.006-0.081 0.022-0.079 0.093 0.515 1.223 1.047 2.438 1.596 3.647a0.126 0.126 0 0 0 0.112 0.073c0.476 0.014 0.952 0.006 1.428 0.008 0.42-0.006 1.447 0.011 1.864-0.028a5.682 5.682 0 0 0 1.142-0.21c1.652-0.504 2.729-1.954 2.732-3.675v-5.545c0-0.358-0.028-0.711-0.095-1.064 0 0.218-0.081-1.794-2.027-2.794z"/></svg>