<svg fill="#006567" role="img" viewBox="0 0 21 24" xmlns="http://www.w3.org/2000/svg"><title>Xing</title><path d="M16.688 0c-0.517 0-0.741 0.325-0.927 0.66 0 0-7.455 13.224-7.702 13.657 0.015 0.024 4.919 9.023 4.919 9.023 0.17 0.308 0.436 0.66 0.967 0.66h3.454c0.211 0 0.375-0.078 0.463-0.22 0.089-0.151 0.089-0.346-0.009-0.536l-4.879-8.916c-0.004-0.006-0.004-0.016 0-0.022L20.639 0.756c0.095-0.191 0.097-0.387 0.006-0.535C20.556 0.078 20.394 0 20.186 0h-3.498zM2.148 4.74c-0.211 0-0.385 0.074-0.473 0.216-0.09 0.149-0.078 0.339 0.02 0.531l2.34 4.05c0.004 0.01 0.004 0.016 0 0.021L0.36 16.051c-0.099 0.188-0.093 0.381 0 0.529 0.085 0.142 0.239 0.234 0.45 0.234h3.461c0.518 0 0.766-0.348 0.945-0.667l3.734-6.609-2.378-4.155c-0.172-0.315-0.434-0.659-0.962-0.659H2.148v0.016z"/></svg>