<svg fill="#002B5C" role="img" viewBox="0 0 34 24" xmlns="http://www.w3.org/2000/svg"><title>XMPP</title><path d="M5.172 1.813l1.41 0.503 4.236 1.255c-0.014 0.248-0.022 0.497-0.022 0.747 0 4.612 2.329 10.239 6.204 14.287 3.875-4.048 6.204-9.675 6.204-14.287 0-0.25-0.008-0.499-0.022-0.747l4.236-1.255 1.41-0.503L33.506 0C33.305 7.843 26.829 15.989 19.066 20.487c1.791 1.414 3.821 2.49 6.036 3.047v0.157l0.005 0.001v0.308a20.014 20.014 0 0 1-6.642-1.762A28.761 28.761 0 0 1 17 21.582c-0.486 0.234-0.974 0.453-1.465 0.656a20.014 20.014 0 0 1-6.642 1.762V23.692l0.005-0.001v-0.156c2.215-0.558 4.245-1.634 6.037-3.048C7.171 15.989 0.695 7.843 0.494 0l4.678 1.813Z"/></svg>