<svg fill="#5ED9C7" role="img" viewBox="0 0 46 24" xmlns="http://www.w3.org/2000/svg"><title>XO</title><path d="M3.504 0.154l8.036 10.089 8.035-10.089h3.032l-9.566 12.001 9.32 11.691h-3.032L11.539 14.069l-7.787 9.777H0.688l9.319-11.691L0.442 0.154h3.062Zm30.98-0.154C40.714 0 45.558 5.67 45.558 12.001c0 6.438-4.912 11.901-11.059 11.999-6.205-0.188-10.911-5.41-11.112-11.587L23.38 12.001c0-6.459 4.957-12.001 11.104-12.001Zm0 2.384c-4.869 0-8.721 4.512-8.721 9.617 0.147 5.143 3.728 9.392 8.354 9.608l0.367 0.007c4.856 0 8.691-4.523 8.691-9.615 0-5.173-3.921-9.617-8.691-9.617Zm1.775 6.974c0.953 0 2.068 1.244 1.319 2.769-0.558 1.137-2.581 2.241-3.024 2.472l-0.085 0.045s-2.481-1.237-3.111-2.517c-0.746-1.525 0.368-2.769 1.321-2.769 1.053 0 1.79 1.006 1.79 1.006s0.735-1.006 1.79-1.006Z"/></svg>