<svg fill="#25A768" role="img" viewBox="0 0 32 24" xmlns="http://www.w3.org/2000/svg"><title>XRP</title><path d="M7.403 0.001A4.671 4.671 0 0 0 2.728 4.678v3.393A2.812 2.812 0 0 1 0.08 10.882l0.04 0.746-0.04 0.744a2.812 2.812 0 0 1 2.648 2.814v3.911a4.895 4.895 0 0 0 4.882 4.903v-1.49a3.396 3.396 0 0 1-3.392-3.393v-3.931a4.297 4.297 0 0 0-1.884-3.558 4.325 4.325 0 0 0 1.884-3.558V4.678A3.2 3.2 0 0 1 7.403 1.491h0.58V0.001z m16.634 0v1.49h0.579a3.171 3.171 0 0 1 3.166 3.185v3.394a4.325 4.325 0 0 0 1.884 3.558 4.297 4.297 0 0 0-1.884 3.558v3.931a3.396 3.396 0 0 1-3.392 3.393v1.49a4.895 4.895 0 0 0 4.882-4.903V15.185A2.812 2.812 0 0 1 31.92 12.373l-0.04-0.745 0.04-0.744a2.812 2.812 0 0 1-2.648-2.813V4.675a4.667 4.667 0 0 0-4.656-4.675zM8.376 6.002l4.614 4.323a4.501 4.501 0 0 0 6.04 0l4.614-4.325h-2.214l-3.516 3.269a2.83 2.83 0 0 1-3.828 0L10.59 6.002z m7.437 6.479a4.457 4.457 0 0 0-2.823 1.175l-4.634 4.344h2.213l3.538-3.31a2.83 2.83 0 0 1 3.827 0l3.516 3.31h2.215l-4.635-4.344a4.457 4.457 0 0 0-3.217-1.175z"/></svg>