<svg fill="#FF1A1A" role="img" viewBox="0 0 22 24" xmlns="http://www.w3.org/2000/svg"><title>Yelp</title><path d="M6.688 15.142l-3.671 0.848c-0.377 0.087-0.755 0.183-1.145 0.155-0.261-0.019-0.512-0.041-0.761-0.213a1.179 1.179 0 0 1-0.331-0.36c-0.349-0.552-0.366-1.366-0.37-2a6.287 6.287 0 0 1 0.332-2.064 1.857 1.857 0 0 1 0.107-0.248 2.343 2.343 0 0 1 0.126-0.216 2.457 2.457 0 0 1 0.156-0.198 1.174 1.174 0 0 1 0.399-0.283 1.082 1.082 0 0 1 0.459-0.083c0.235 0.002 0.514 0.052 0.91 0.173 0.056 0.019 0.124 0.038 0.186 0.057 0.328 0.101 0.705 0.24 1.15 0.399 0.686 0.24 1.366 0.487 2.046 0.74l1.212 0.442c0.222 0.081 0.436 0.18 0.641 0.297 0.174 0.098 0.327 0.23 0.451 0.387a1.217 1.217 0 0 1 0.192 0.431 1.22 1.22 0 0 1-0.872 1.452c-0.047 0.015-0.085 0.024-0.108 0.029l-1.105 0.256-0.004-0.001zM17.821 7.565a1.851 1.851 0 0 0-0.204-0.175 2.408 2.408 0 0 0-0.208-0.14 2.361 2.361 0 0 0-0.227-0.109 1.171 1.171 0 0 0-0.482-0.079 1.086 1.086 0 0 0-0.45 0.126c-0.211 0.105-0.439 0.273-0.742 0.555-0.042 0.042-0.095 0.089-0.142 0.133-0.25 0.235-0.529 0.525-0.86 0.863a114.636 114.636 0 0 0-1.516 1.563l-0.897 0.929a4.19 4.19 0 0 0-0.446 0.549 1.541 1.541 0 0 0-0.237 0.545 1.22 1.22 0 0 0 0.011 0.452l0.005 0.02a1.218 1.218 0 0 0 1.418 0.923 1.162 1.162 0 0 0 0.111-0.021l4.778-1.104c0.377-0.087 0.759-0.167 1.097-0.363 0.227-0.132 0.443-0.262 0.591-0.525a1.179 1.179 0 0 0 0.14-0.469c0.073-0.651-0.267-1.391-0.54-1.963a6.279 6.279 0 0 0-1.2-1.71zM7.97 0.075a8.672 8.672 0 0 0-0.83 0.157c-0.275 0.066-0.548 0.138-0.814 0.223-0.868 0.284-2.088 0.806-2.295 1.807-0.117 0.566 0.16 1.144 0.373 1.66 0.26 0.625 0.614 1.189 0.938 1.778 0.854 1.554 1.724 3.099 2.592 4.645 0.259 0.462 0.542 1.046 1.043 1.286a1.058 1.058 0 0 0 0.101 0.038c0.225 0.085 0.47 0.102 0.704 0.047a4.301 4.301 0 0 0 0.042-0.009 1.214 1.214 0 0 0 0.566-0.34 1.103 1.103 0 0 0 0.079-0.082c0.346-0.435 0.345-1.083 0.376-1.614 0.104-1.771 0.214-3.542 0.301-5.314 0.033-0.671 0.105-1.333 0.066-2.009-0.033-0.558-0.037-1.198-0.389-1.657-0.622-0.807-1.948-0.741-2.853-0.616z m2.084 15.951a1.105 1.105 0 0 0-1.23-0.415 1.14 1.14 0 0 0-0.153 0.064 1.481 1.481 0 0 0-0.217 0.135c-0.199 0.147-0.367 0.339-0.52 0.532-0.039 0.049-0.074 0.114-0.12 0.156l-0.768 1.057a113.917 113.917 0 0 0-1.292 1.789c-0.278 0.39-0.518 0.718-0.708 1.01-0.036 0.055-0.073 0.116-0.107 0.164-0.228 0.352-0.357 0.609-0.423 0.838a1.095 1.095 0 0 0-0.046 0.472c0.021 0.166 0.077 0.325 0.163 0.467 0.046 0.071 0.096 0.141 0.149 0.207a2.334 2.334 0 0 0 0.175 0.183 1.843 1.843 0 0 0 0.211 0.173c0.53 0.369 1.111 0.634 1.722 0.839a6.096 6.096 0 0 0 1.572 0.301c0.091 0.005 0.182 0.003 0.273-0.006a2.388 2.388 0 0 0 0.25-0.035 2.386 2.386 0 0 0 0.245-0.071 1.193 1.193 0 0 0 0.417-0.266c0.113-0.113 0.199-0.249 0.255-0.399 0.089-0.221 0.147-0.503 0.185-0.92 0.003-0.059 0.012-0.131 0.018-0.196 0.03-0.346 0.044-0.753 0.067-1.231 0.037-0.736 0.067-1.468 0.09-2.203 0 0 0.05-1.305 0.049-1.306 0.011-0.301 0.002-0.634-0.081-0.934a1.396 1.396 0 0 0-0.176-0.405z m8.676 2.044c-0.161-0.176-0.388-0.351-0.747-0.568-0.052-0.029-0.112-0.067-0.168-0.101-0.298-0.179-0.658-0.368-1.078-0.597a120.761 120.761 0 0 0-1.943-1.042l-1.151-0.61c-0.06-0.018-0.12-0.061-0.177-0.088-0.221-0.106-0.456-0.204-0.699-0.25a1.492 1.492 0 0 0-0.254-0.027 1.153 1.153 0 0 0-0.165 0.01 1.108 1.108 0 0 0-0.923 0.914 1.419 1.419 0 0 0 0.016 0.439c0.056 0.306 0.193 0.61 0.335 0.875l0.615 1.152c0.342 0.65 0.688 1.296 1.043 1.941 0.229 0.42 0.42 0.78 0.598 1.078 0.034 0.056 0.072 0.116 0.101 0.168 0.217 0.358 0.392 0.584 0.569 0.746 0.115 0.111 0.252 0.195 0.403 0.247 0.158 0.052 0.326 0.071 0.492 0.055a2.368 2.368 0 0 0 0.251-0.044c0.082-0.022 0.162-0.048 0.241-0.078a1.863 1.863 0 0 0 0.247-0.115 6.102 6.102 0 0 0 1.282-0.959c0.46-0.452 0.866-0.945 1.182-1.51 0.044-0.08 0.082-0.163 0.114-0.249a2.49 2.49 0 0 0 0.077-0.241c0.019-0.083 0.033-0.167 0.043-0.251a1.188 1.188 0 0 0-0.056-0.491 1.093 1.093 0 0 0-0.248-0.404z m2.86 3.742a0.852 0.852 0 0 1-0.111 0.423c-0.074 0.132-0.178 0.238-0.312 0.318a0.843 0.843 0 0 1-0.438 0.119 0.847 0.847 0 0 1-0.438-0.118 0.853 0.853 0 0 1-0.312-0.317 0.855 0.855 0 0 1-0.111-0.425c0-0.153 0.038-0.296 0.114-0.43a0.841 0.841 0 0 1 0.315-0.315 0.849 0.849 0 0 1 0.432-0.116 0.851 0.851 0 0 1 0.429 0.114 0.84 0.84 0 0 1 0.316 0.315 0.849 0.849 0 0 1 0.116 0.432z m-0.121 0c0-0.133-0.033-0.256-0.099-0.37s-0.156-0.204-0.27-0.27a0.713 0.713 0 0 0-0.371-0.101 0.72 0.72 0 0 0-0.37 0.1 0.749 0.749 0 0 0-0.271 0.27 0.718 0.718 0 0 0-0.1 0.371c0 0.132 0.033 0.256 0.1 0.371a0.736 0.736 0 0 0 0.271 0.271 0.735 0.735 0 0 0 0.37 0.099 0.721 0.721 0 0 0 0.369-0.1 0.742 0.742 0 0 0 0.271-0.269 0.719 0.719 0 0 0 0.1-0.372z m-0.577 0.058l0.273 0.452h-0.192l-0.237-0.405h-0.155v0.405h-0.169v-1.02h0.298c0.127 0 0.22 0.025 0.279 0.075 0.059 0.05 0.089 0.125 0.089 0.227a0.279 0.279 0 0 1-0.049 0.162c-0.032 0.047-0.077 0.081-0.137 0.104z m-0.041-0.141a0.153 0.153 0 0 0 0.056-0.121c0-0.057-0.016-0.098-0.049-0.122-0.033-0.025-0.085-0.038-0.156-0.038h-0.121v0.328h0.124c0.061 0 0.11-0.016 0.146-0.047z"/></svg>