<svg fill="#FF0000" role="img" viewBox="0 0 20 24" xmlns="http://www.w3.org/2000/svg"><title>YouTube Shorts</title><path d="M16.931 9.99l-1.441-0.601 1.717-0.913a4.48 4.48 0 0 0 1.874-6.078 4.506 4.506 0 0 0-6.09-1.874L2.792 5.929a4.504 4.504 0 0 0-2.402 4.193 4.521 4.521 0 0 0 2.666 3.904c0.036 0.012 1.442 0.6 1.442 0.6l-1.706 0.901a4.51 4.51 0 0 0-2.369 3.967A4.528 4.528 0 0 0 4.93 24c0.725 0 1.437-0.174 2.08-0.508l10.21-5.406a4.494 4.494 0 0 0 2.39-4.192 4.525 4.525 0 0 0-2.678-3.904ZM7.597 15.19V8.824l6.007 3.184z"/></svg>