<svg fill="#FF0000" role="img" viewBox="0 0 24 24" xmlns="http://www.w3.org/2000/svg"><title>YouTube Studio</title><path d="M20.918 13.176c0.048-0.384 0.084-0.768 0.084-1.176s-0.036-0.792-0.084-1.176l2.532-1.98a0.605 0.605 0 0 0 0.144-0.768l-2.4-4.152a0.603 0.603 0 0 0-0.732-0.264l-2.988 1.2a8.767 8.767 0 0 0-2.028-1.176l-0.456-3.18A0.585 0.585 0 0 0 14.402 0h-4.8c-0.3 0-0.552 0.216-0.588 0.504l-0.456 3.18A9.22 9.22 0 0 0 6.53 4.86l-2.988-1.2a0.585 0.585 0 0 0-0.732 0.264l-2.4 4.152a0.592 0.592 0 0 0 0.144 0.768l2.532 1.98c-0.048 0.384-0.084 0.78-0.084 1.176s0.036 0.792 0.084 1.176l-2.532 1.98a0.605 0.605 0 0 0-0.144 0.768l2.4 4.152c0.144 0.264 0.468 0.36 0.732 0.264l2.988-1.2c0.624 0.48 1.296 0.876 2.028 1.176l0.456 3.18a0.585 0.585 0 0 0 0.588 0.504h4.8c0.3 0 0.552-0.216 0.588-0.504l0.456-3.18a9.22 9.22 0 0 0 2.028-1.176l2.988 1.2c0.276 0.108 0.588 0 0.732-0.264l2.4-4.152a0.605 0.605 0 0 0-0.144-0.768l-2.532-1.98zM9.602 15.6V8.4l6 3.6-6 3.6z"/></svg>