<svg fill="#FF0000" role="img" viewBox="0 0 131 24" xmlns="http://www.w3.org/2000/svg"><title>YouTube TV</title><path d="M118.777 4.433h-3.362v17.875h-3.302v-17.875h-3.356v-2.741h10.02v2.741z m0.734-2.741h3.53l1.099 9.264c0.31 2.655 0.598 4.939 0.936 8.072h0.141c0.31-3.133 0.62-5.364 0.925-8.072l1.131-9.264H130.777l-3.389 20.584h-4.461l-3.416-20.584z m-85.719 2.067a4.33 4.33 0 0 0-3.019-3.052c-2.682-0.707-13.409-0.707-13.409-0.707s-10.733 0-13.414 0.707a4.281 4.281 0 0 0-3.019 3.046C0.223 6.435 0.223 12 0.223 12s0 5.592 0.708 8.247a4.319 4.319 0 0 0 3.046 3.046c2.655 0.707 13.382 0.707 13.382 0.707s10.733 0 13.414-0.707a4.384 4.384 0 0 0 3.046-3.019c0.707-2.682 0.707-8.247 0.707-8.247s-0.027-5.592-0.734-8.268z m-19.85 13.382v-10.282l8.922 5.141-8.922 5.141z m36.06 4.716a3.547 3.547 0 0 1-1.441-2.149 14.704 14.704 0 0 1-0.425-3.84v-2.176a12.963 12.963 0 0 1 0.506-3.895 3.938 3.938 0 0 1 1.523-2.143 5.13 5.13 0 0 1 2.742-0.68c1.104 0 2.007 0.228 2.682 0.68 0.707 0.533 1.246 1.267 1.469 2.143 0.337 1.273 0.511 2.568 0.451 3.895v2.176c0.027 1.3-0.109 2.6-0.451 3.867a3.808 3.808 0 0 1-1.469 2.149c-0.675 0.451-1.61 0.675-2.764 0.674-1.186-0.027-2.149-0.25-2.828-0.707z m3.808-2.372c0.201-0.484 0.283-1.306 0.283-2.404v-4.657a7.485 7.485 0 0 0-0.283-2.371 1.028 1.028 0 0 0-0.985-0.762 0.995 0.995 0 0 0-0.962 0.762c-0.223 0.762-0.31 1.578-0.283 2.371v4.684c0 1.104 0.087 1.92 0.283 2.404 0.109 0.451 0.511 0.762 0.99 0.735a0.995 0.995 0 0 0 0.957-0.762z m48.305-3.59v0.761c0 0.734 0.033 1.442 0.087 2.176a2.029 2.029 0 0 0 0.37 1.045 1.088 1.088 0 0 0 0.848 0.337 1.088 1.088 0 0 0 1.045-0.593c0.196-0.392 0.283-1.044 0.31-1.975l2.905 0.196a3.046 3.046 0 0 1 0.032 0.544c0 1.376-0.37 2.421-1.131 3.101-0.762 0.68-1.833 1.017-3.221 1.017-1.665 0-2.823-0.539-3.497-1.577s-1.017-2.66-1.018-4.864v-2.621c0-2.263 0.337-3.9 1.045-4.945 0.707-1.044 1.893-1.55 3.557-1.55 1.159 0 2.062 0.223 2.682 0.652 0.653 0.479 1.126 1.18 1.327 1.975 0.283 1.213 0.424 2.481 0.365 3.726v2.568l-5.701 0.027z m0.429-6.321a1.996 1.996 0 0 0-0.342 1.044 29.81 29.81 0 0 0-0.082 2.203v1.072h2.486v-1.072c0-0.734-0.033-1.469-0.114-2.203a2.029 2.029 0 0 0-0.37-1.044 0.947 0.947 0 0 0-0.789-0.31 0.919 0.919 0 0 0-0.789 0.31z m-60.788 6.038l-3.841-13.92h3.362l1.354 6.299c0.337 1.55 0.593 2.883 0.762 3.982h0.109c0.12-0.794 0.37-2.089 0.761-3.955l1.415-6.326h3.361l-3.894 13.925v6.691H41.783v-6.691h-0.027z m26.681-8.355v15.051h-2.654L65.5 20.47h-0.087c-0.707 1.387-1.806 2.089-3.242 2.088-0.99 0-1.724-0.337-2.203-0.984-0.484-0.653-0.707-1.67-0.707-3.079v-11.238h3.389v11.042a3.585 3.585 0 0 0 0.223 1.436 0.745 0.745 0 0 0 0.734 0.425 1.523 1.523 0 0 0 0.849-0.283 1.529 1.529 0 0 0 0.593-0.675v-11.945h3.388z m17.364 0v15.051h-2.655l-0.282-1.838h-0.087c-0.707 1.387-1.806 2.089-3.243 2.088-0.99 0-1.724-0.337-2.203-0.984-0.484-0.653-0.707-1.67-0.707-3.079v-11.238h3.389v11.042a3.585 3.585 0 0 0 0.223 1.436 0.745 0.745 0 0 0 0.735 0.425 1.523 1.523 0 0 0 0.848-0.283 1.529 1.529 0 0 0 0.593-0.675v-11.945h3.389z m-8.16-2.829h-3.361v17.88h-3.302v-17.875h-3.362v-2.741h10.025v2.741z m19.366 5.227c-0.196-0.93-0.533-1.632-0.985-2.061a2.763 2.763 0 0 0-1.893-0.653 3.046 3.046 0 0 0-1.751 0.544 3.454 3.454 0 0 0-1.241 1.382h-0.027V0.93h-3.247v21.378h2.796l0.337-1.414h0.082a2.888 2.888 0 0 0 1.185 1.213 3.753 3.753 0 0 0 1.752 0.451 2.731 2.731 0 0 0 2.54-1.577c0.539-1.044 0.816-2.714 0.816-4.945v-2.371a26.442 26.442 0 0 0-0.364-4.01z m-3.101 6.131c0 0.843-0.033 1.719-0.141 2.568a2.763 2.763 0 0 1-0.457 1.327 1.061 1.061 0 0 1-0.843 0.392 1.398 1.398 0 0 1-0.762-0.196 1.632 1.632 0 0 1-0.566-0.593v-8.524a2.312 2.312 0 0 1 0.593-1.017 1.218 1.218 0 0 1 0.903-0.398c0.31 0 0.62 0.141 0.789 0.398 0.228 0.424 0.37 0.87 0.397 1.354 0.082 0.903 0.109 1.806 0.109 2.709l-0.027 1.98z"/></svg>