<svg fill="#FF0000" role="img" viewBox="0 0 30 24" xmlns="http://www.w3.org/2000/svg"><title>YouTube Kids</title><path d="M29.728 13.895l-0.008-0.353c-0.018-1.378-0.792-7.978-1.228-9.16-0.504-1.365-1.196-2.389-2.057-3.047-1.404-1.072-2.598-1.306-4.07-1.335h-0.037c-0.626 0-4.727 0.51-8.158 0.984-3.436 0.475-7.742 1.124-8.771 1.507-1.416 0.531-2.543 1.225-3.435 2.123C0.321 6.266 0.121 7.984 0.326 10.223c0.16 1.734 1.075 8.568 1.599 10.131 0.705 2.109 2.081 3.378 3.874 3.574 0.442 0.048 0.865 0.072 1.284 0.072 1.572 0 2.819-0.341 4.263-0.735 2.27-0.62 5.094-1.388 10.923-1.388h0.172c1.427 0 4.923-0.323 6.515-3.3 0.851-1.593 0.801-3.525 0.772-4.682z m-9.482-2.051l-0.129 0.081c-0.337 0.227-0.672 0.458-1.006 0.692l-5.279 3.654c-0.332 0.258-0.919 0.64-1.248 0.64a0.29 0.29 0 0 1-0.132-0.029c-0.278-0.147-0.372-1.155-0.437-1.646l-0.014-0.107c-0.08-0.587-0.73-6.185-0.803-6.799-0.021-0.174-0.129-0.814 0.068-0.96 0.061-0.045 0.147-0.061 0.245-0.061 0.24 0 0.543 0.102 0.675 0.145 1.038 0.334 6.244 2.179 7.861 3.007 0.047 0.025 0.097 0.049 0.15 0.07 0.231 0.098 0.548 0.236 0.555 0.626 0.005 0.373-0.276 0.548-0.506 0.688z"/></svg>