<svg fill="#FF0000" role="img" viewBox="0 0 35 24" xmlns="http://www.w3.org/2000/svg"><title>YouTube Gaming</title><path d="M34.643 13.714v-8.571l-8.572-5.143-8.571 5.143-8.571-5.143-8.572 5.143v8.571l17.143 10.286zM12.357 10.286H8.929v3.428H7.214v-3.428H3.786V8.571h3.428V5.143H8.929v3.428h3.428z m10.286 3.428a1.714 1.714 0 0 1-1.714-1.714c0-0.943 0.771-1.714 1.714-1.714 0.943 0 1.714 0.771 1.714 1.714 0 0.943-0.771 1.714-1.714 1.714z m5.143-3.428A1.714 1.714 0 0 1 26.071 8.571c0-0.943 0.771-1.714 1.715-1.714 0.943 0 1.714 0.771 1.714 1.714 0 0.943-0.771 1.714-1.714 1.715Z"/></svg>