<svg fill="#006420" role="img" viewBox="0 0 60 24" xmlns="http://www.w3.org/2000/svg"><title>&#379;abka</title><path d="M10.477 19.534l0.463-2.395a23.349 23.349 0 0 0 24.9 0l0.463 2.395a20.903 20.903 0 0 1-25.826 0z m30.001-11.057c0.85 0.154 1.779 0.077 2.552-0.387 0.619-0.387 1.003-1.006 1.159-1.702 0.154-0.694 0.233-1.313 0.31-2.009h2.938v1.083a6.937 6.937 0 0 1-0.696 2.552c-0.31 0.619-0.85 1.16-1.392 1.546-0.154 0.077-0.31 0.233-0.464 0.309 0.154 0.23 0.31 0.54 0.387 0.773 0.773 1.392 1.546 2.706 2.396 4.098l0.233 0.464a0.981 0.981 0 0 1 0.076 0.465h-3.245l-2.552-4.64-1.702 0.153v4.564h-3.172v-15.311h3.172zM9.704 4.302c0 0.154-0.079 0.307-0.157 0.54l-1.622 2.785a172.515 172.515 0 0 0-2.939 5.104c0 0.074-0.077 0.154-0.077 0.23h4.795v2.785H0.269c0-0.156 0.077-0.31 0.153-0.463 0.466-0.852 0.929-1.625 1.393-2.398 0.463-0.773 0.85-1.469 1.313-2.243 0.619-1.083 1.239-2.165 1.858-3.171 0.077-0.077 0.077-0.154 0.154-0.31H0.655V4.302z m-4.411-1.083A1.276 1.276 0 0 1 4.134 2.833c-0.463-0.387-0.694-1.083-0.463-1.702a1.601 1.601 0 0 1 1.313-1.083c0.545-0.154 1.162 0.077 1.548 0.463 0.463 0.466 0.54 1.083 0.387 1.703a1.487 1.487 0 0 1-1.393 1.005c-0.077 0.074-0.154 0.074-0.23 0z m29.771 4.638a5.253 5.253 0 0 0-1.856-2.782 4.633 4.633 0 0 0-2.782-0.929 6.224 6.224 0 0 0-2.629 0.387c-0.079 0-0.233 0.077-0.309 0.076V0.435h-3.172v14.615c0.463 0.154 0.929 0.233 1.393 0.31 0.773 0.23 1.546 0.387 2.396 0.54 1.239 0.156 2.478 0 3.711-0.387 1.858-0.54 3.248-2.089 3.481-4.021 0.154-1.16 0.154-2.475-0.233-3.635z m-3.015 3.791a2.195 2.195 0 0 1-1.623 1.546 4.856 4.856 0 0 1-2.785-0.156s-0.077 0-0.076-0.074v-5.649a3.273 3.273 0 0 1 3.634-0.074c0.387 0.307 0.619 0.694 0.773 1.159 0.31 1.006 0.387 2.165 0.077 3.246zM21.378 5.075a13 13 0 0 0-2.475-0.696c-1.16-0.233-2.319-0.31-3.479-0.233a4.472 4.472 0 0 0-2.785 1.313c-0.694 0.775-1.236 1.702-1.389 2.708a11.803 11.803 0 0 0-0.233 2.319c0 1.006 0.233 1.933 0.696 2.785 0.387 0.694 0.927 1.313 1.623 1.702a7.626 7.626 0 0 0 5.027 0.85c1.239-0.154 2.396-0.54 3.634-0.773V5.385c-0.156-0.079-0.387-0.233-0.619-0.31z m-2.475 7.963c-1.08 0.387-2.242 0.466-3.325 0a2.046 2.046 0 0 1-1.16-1.236 5.55 5.55 0 0 1 0.08-3.712 2.304 2.304 0 0 1 1.855-1.392c0.773-0.077 1.623 0 2.319 0.386 0.077 0 0.077 0.077 0.154 0.077z m39.822-8.119a17.175 17.175 0 0 0-2.859-0.694 9.358 9.358 0 0 0-2.938 0c-1.779 0.307-3.171 1.623-3.712 3.323a9.16 9.16 0 0 0-0.309 4.1c0.154 1.236 0.773 2.396 1.778 3.172 0.23 0.154 0.54 0.384 0.773 0.463 0.619 0.307 1.39 0.54 2.087 0.619 0.852 0.154 1.702 0.154 2.552 0 1.239-0.233 2.475-0.545 3.634-0.775V5.385a12.586 12.586 0 0 0-1.006-0.466z m-2.009 8.119c-0.156 0.079-0.233 0.079-0.387 0.079-0.619 0.154-1.239 0.23-1.932 0.231a2.418 2.418 0 0 1-1.933-1.004 2.71 2.71 0 0 1-0.465-1.082c-0.154-0.929-0.154-1.858 0.153-2.785a2.309 2.309 0 0 1 2.012-1.702c0.85-0.154 1.702 0 2.475 0.466z"/></svg>