<svg fill="#50A135" role="img" viewBox="0 0 25 24" xmlns="http://www.w3.org/2000/svg"><title>Zaim</title><path d="M8.081 0C6.4 0 5.071 0.177 4.186 0.617c-0.53 0.265-1.238 0.795-1.503 1.854-0.266 1.059 0.177 1.852 0.53 2.206a8.582 8.582 0 0 0 2.299 1.676c-1.946 0.442-3.538 0.97-4.422 1.588C0.561 8.294 0.029 8.912 0.029 10.057v9.796c0 1.147 0.53 1.764 0.973 2.117 1.593 1.146 5.663 2.03 10.351 2.03 4.69 0 8.76-0.795 10.352-2.03 0.531-0.353 1.062-0.97 1.062-2.117v-9.796c0-0.177 0-0.441-0.088-0.617 0.265-0.088 0.531-0.177 0.709-0.264 0.53-0.265 1.237-0.795 1.502-1.854 0.265-1.059-0.177-1.851-0.53-2.293-1.239-1.5-5.044-3.265-9.644-4.236C12.327 0.265 10.027 0 8.081 0Zm0.475 1.564c1.635 0.024 3.687 0.267 5.893 0.731 5.044 1.146 8.848 3 8.583 4.235-0.266 1.236-4.601 1.323-9.556 0.265-5.043-1.147-8.847-3-8.582-4.236 0.15-0.695 1.56-1.026 3.662-0.995Zm-0.298 6.025c1.415 0.442 3.009 0.971 4.69 1.323 2.92 0.707 5.661 0.883 7.874 0.795 0 1.236-4.157 2.295-9.29 2.295-5.131 0-9.289-1.06-9.29-2.295 0-0.971 2.477-1.765 6.016-2.118z m-4.514 5.736c2.035 0.53 4.69 0.882 7.699 0.882 3.008 0 5.661-0.353 7.697-0.882 0.973 0.442 1.592 0.882 1.592 1.323 0 1.236-4.157 2.295-9.289 2.294-5.132 0-9.291-1.06-9.291-2.294 0-0.53 0.619-0.97 1.592-1.323z m0 4.94c2.035 0.53 4.69 0.883 7.699 0.884 3.008 0 5.661-0.353 7.697-0.884 0.973 0.442 1.592 0.883 1.592 1.325 0 1.236-4.157 2.293-9.289 2.293-5.132 0-9.291-1.057-9.291-2.293 0-0.53 0.619-0.972 1.592-1.325z"/></svg>