<svg fill="#FF6900" role="img" viewBox="0 0 24 24" xmlns="http://www.w3.org/2000/svg"><title>Zalando</title><path d="M5.271 24c-0.88 0-1.36-0.2-1.62-0.36-0.36-0.21-1.02-0.75-1.62-2.33A27.06 27.06 0 0 1 0.491 12c0.02-3.66 0.59-6.76 1.54-9.3C2.631 1.1 3.291 0.56 3.651 0.35 3.911 0.21 4.391 0 5.271 0c0.33 0 0.72 0.03 1.18 0.1a26.1 26.1 0 0 1 8.7 3.3h0.01a26.4 26.4 0 0 1 7.16 6.01c1.06 1.32 1.19 2.17 1.19 2.59 0 0.42-0.13 1.27-1.19 2.59a26.4 26.4 0 0 1-7.16 6h-0.01a26.03 26.03 0 0 1-8.7 3.3c-0.46 0.08-0.85 0.11-1.18 0.11z"/></svg>