<svg fill="#00549E" role="img" viewBox="0 0 25 24" xmlns="http://www.w3.org/2000/svg"><title>ZAP</title><path d="M15.646 14.104a0.17 0.17 0 0 1 0.086-0.269l1.716-0.42c0.126-0.037 0.136-0.174 0.123-0.229a0.166 0.166 0 0 0-0.021-0.04L13.571 8.162c-0.073-0.102-0.029-0.227 0.074-0.266l1.345-0.433a0.167 0.167 0 0 0 0.08-0.256L10.056 0.078a0.155 0.155 0 0 0-0.188-0.068L0.596 4.029a0.17 0.17 0 0 0-0.031 0.29l5.169 3.673a0.161 0.161 0 0 1 0.068 0.152c-0.002 0.063-0.049 0.108-0.055 0.114l-0.041 0.025-1.214 0.531a0.17 0.17 0 0 0-0.09 0.096v0.04a0.182 0.182 0 0 0 0.068 0.155c1.775 1.281 3.551 2.562 5.326 3.843 0.109 0.084 0.074 0.243-0.04 0.293l-1.579 0.619c-0.128 0.054-0.14 0.23-0.022 0.299l13.117 7.575c0.151 0.063 0.29-0.11 0.198-0.245l-5.824-7.385z m0.148-7.404a1.07 1.07 0 0 1 0.136 0.927 1.045 1.045 0 0 1-0.668 0.662l-0.362 0.117 3.321 4.192a1.048 1.048 0 0 1-0.566 1.673l-0.618 0.154 4.482 5.679A11.68 11.68 0 0 0 12.817 0.628c-0.414 0-0.822 0.022-1.237 0.062zM7.71 14.929a1.051 1.051 0 0 1 0.139-1.882l0.377-0.146L3.957 9.81a1.051 1.051 0 0 1 0.191-1.812l0.062-0.028-1.691-1.187a11.683 11.683 0 0 0 17.102 15.025Z"/></svg>