<svg fill="#000000" role="img" viewBox="0 0 58 24" xmlns="http://www.w3.org/2000/svg"><title>Zara</title><path d="M20.749 0l0.005 0.014 6.705 18.291v-17.352h-2.76v-0.168h9.504c4.567 0 7.754 2.342 7.755 5.7 0 2.448-2.184 4.483-5.432 5.061l-0.597 0.075 0.6 0.062c1.97 0.226 3.535 0.83 4.644 1.8l0.007 0.007L46.138 0h0.168l0.005 0.014 8.535 23.276H57.8v0.168h-9.403v-0.168h2.769l-2.808-7.654h-5.695v0.005l0.031 0.089c0.226 0.674 0.341 1.382 0.334 2.095v2.87c0 1.476 0.65 2.971 1.896 2.971 0.73 0 1.313-0.257 2.009-0.892l0.098 0.091c-0.754 0.797-1.668 1.135-3.038 1.135-1.032 0-1.92-0.25-2.631-0.739l-0.134-0.096c-0.936-0.71-1.546-1.867-1.807-3.444l-0.043-0.255-0.044-0.384-0.004-0.067-1.57 4.272h2.227v0.168h-4.661v-0.168h2.252l1.723-4.689v-0.012a15.24 15.24 0 0 1-0.031-0.831v-2.049c0-2.518-1.872-3.96-5.136-3.96h-3.209v11.544h2.779v0.168H22.839v-0.168h2.77l-2.808-7.654H15.013l-2.779 7.57 0.115-0.02c3.65-0.629 5.328-3.415 5.352-6.348h0.168v6.62H0.2l13.116-22.505H8.043c-4.373 0-6.35 3.377-6.381 6.744H1.496v-6.912h15.922l-0.096 0.168-13.02 22.337h6.849c0.17 0 0.338-0.007 0.509-0.022l0.173-0.014 0.216-0.024L20.578 0h0.168z m23.719 5.028l-3.151 8.582 0.017 0.017 0.16 0.159c0.463 0.473 0.833 1.032 1.085 1.641l0.017 0.041h5.7l-3.828-10.44z m-25.555 0l-3.838 10.44h7.666l-3.828-10.44z m14.462-4.075h-2.448v10.625h3.207c3.247 0 4.241-1.183 4.24-5.057 0-3.641-1.728-5.568-4.999-5.568z"/></svg>