<svg fill="#FFF200" role="img" viewBox="0 0 25 24" xmlns="http://www.w3.org/2000/svg"><title>ZCOOL</title><path d="M16.098 0.002c-0.1-0.011-0.168 0.031-0.208 0.124-0.602 1.45-1.663 2.542-3.183 3.276-0.713 0.346-1.376 0.577-1.988 0.696-1.089 0.211-2.044 0.429-2.866 0.654C3.62 5.913 0.252 9.094 0.058 13.649c-0.095 2.234 0.477 4.258 1.72 6.071 2.932 4.282 8.77 5.587 13.201 2.835 2.367-1.47 3.875-3.61 4.523-6.419a0.151 0.154 84 0 1 0.087-0.107c0.293-0.133 0.604-0.235 0.89-0.382 2.159-1.112 3.647-2.828 4.463-5.147a0.188 0.19 13.8 0 0-0.15-0.249 0.263 0.263 0 0 0-0.132 0.011c-0.972 0.339-1.979 0.57-3.018 0.691a0.031 0.031 0 0 1-0.029-0.048c2.054-2.783 3.022-5.935 2.904-9.456-0.003-0.104-0.054-0.168-0.153-0.195a0.182 0.176 28.9 0 0-0.181 0.05c-2.221 2.378-4.888 3.825-8.006 4.343-0.08 0.012-0.102-0.017-0.065-0.089 0.835-1.655 0.795-3.762 0.151-5.428a0.203 0.203 0 0 0-0.164-0.127z m-2.232 13.692c0.101-0.013 0.119 0.059 0.054 0.217a6.87 6.87 0 0 1-1.305 2.078c-0.913 0.999-2.041 1.394-3.388 1.182a3.063 3.063 0 0 1-1.926-1.153 0.091 0.091 0 0 1 0.001-0.113 0.156 0.156 0 0 1 0.113-0.06c2.266-0.213 4.226-1.164 6.322-2.11a0.479 0.479 0 0 1 0.129-0.041z m-12.692 0.641c0.042 0.005 0.104 0.042 0.189 0.114 0.767 0.648 1.742 1.258 2.743 1.345a0.123 0.123 0 0 1 0.099 0.178c-0.577 1.155-1.724 0.903-2.369 0.026a4.382 4.382 0 0 1-0.69-1.41c-0.051-0.176-0.042-0.261 0.028-0.253z"/></svg>