<svg fill="#FA7D19" role="img" viewBox="0 0 42 24" xmlns="http://www.w3.org/2000/svg"><title>ZDF</title><path d="M12.469 0A12.011 12.011 0 0 0 0.469 12.007a12.005 12.005 0 0 0 22.706 5.431h4.987c1.191 0 2.265-0.075 3.357-0.946 0.789-0.624 1.281-1.512 1.51-2.67v3.599h2.286v-4.232h5.395v-1.882h-5.407l0.034-0.761c0.009-1.239 0.387-1.988 2.185-1.988H41.531V6.654h-4.821c-2.595 0-3.663 1.454-3.663 3.73v0.22c-0.435-2.678-2.027-3.952-4.943-3.952h-4.885a12.007 12.007 0 0 0-10.75-6.652zM14.191 6.654h5.878c2.98 0 3.408 2.086 3.408 3.25 0 1.24-0.51 3.205-3.408 3.205h-1.444c-1.807 0-2.192 0.65-2.191 1.889v0.575h6.749v1.837H14.126v-2.665c0-2.284 1.069-3.632 3.656-3.633h1.493c1.182 0 1.882-0.24 1.882-1.24 0-1.035-0.7-1.321-1.916-1.321h-5.047v-1.899z m11.343 1.904h2.518c1.98 0 2.693 0.849 2.693 3.49 0 2.638-0.705 3.483-2.693 3.484H25.534z"/></svg>