<svg fill="#2072EF" role="img" viewBox="0 0 33 24" xmlns="http://www.w3.org/2000/svg"><title>ZebPay</title><path d="M7.999 9.619S23.699 24.539 23.153 23.985l1.229-1.481L9.481 8.35c-0.449 0.379-0.947 0.803-1.482 1.269Zm-6.624 5.944s-1.124 1.117-1.16 2.674c-0.024 0.706 0.182 1.504 0.82 2.325 0 0 0.01 0.016 0.035 0.048a3.077 3.077 0 0 0 0.995 0.692c0.052 0.022 0.109 0.048 0.171 0.068 0.149 0.057 0.322 0.105 0.506 0.146a5.809 5.809 0 0 0 1.652 0.087l0.301-0.031c0.103-0.015 0.208-0.027 0.315-0.046 0.109-0.016 0.219-0.037 0.332-0.057 0.01 0 0.015 0 0.028-0.006 0.01 0 0.02 0 0.029-0.005 1.042-0.205 2.315-0.634 3.85-1.387l-6.382-6.078c-0.506 0.516-1.008 1.041-1.493 1.569Zm11.233-10.141s-0.414 0.32-1.087 0.863l-0.399 0.321 14.803 14.085 1.249-1.483L12.647 5.377c-0.015 0.014-0.026 0.03-0.041 0.045Zm-8.021 6.881l6.957 6.626a7.358 7.358 0 0 1 2.359-0.434L6.009 10.976c-0.466 0.426-0.941 0.869-1.421 1.327Zm7.504-12.059s-0.562 0.19-0.828 0.625L28.661 17.444l1.25-1.479L13.167 0c-0.375 0.054-0.738 0.13-1.076 0.244Zm8.087 0.602s-1.467-0.479-3.303-0.755l14.682 13.916 1.23-1.453-0.98-0.925-11.102-10.573c-0.174-0.068-0.347-0.14-0.527-0.21Z"/></svg>