<svg fill="#000000" role="img" viewBox="0 0 75 24" xmlns="http://www.w3.org/2000/svg"><title>Zebra Technologies</title><path d="M16.269 15.433H14.581v-4.785l1.688 1.691v3.094z m-6.761-0.294l1.691 1.691v2.388L7.82 15.839v-9.577L3.44 1.899a8.455 8.455 0 0 1 1.441-0.948l4.627 4.612V0a2.784 2.784 0 0 1 0.26 5.553h2.168l0.006 0.01 1.682 1.681H9.508v7.895z m1.691-7.882l-0.009 8.164h1.691l0.006-6.467-1.688-1.697z m5.801 3.391l-1.691-1.691h-2.419l1.688 1.691h2.422z m-10.871 3.599v-7.272L2.242 3.094c-0.365 0.443-0.684 0.926-0.954 1.437l3.147 3.147v2.388L0.622 6.25c-0.183 0.672-0.279 1.378-0.288 2.106l5.792 5.891zM0.365 10.772v2.391l10.834 10.837v-2.391L0.365 10.775z m19.286 2.524h-1.691v2.137h-1.691a2.784 2.784 0 1 0 5.569 0l-2.187-2.137z m9.22 2.171l5.135-9.867h-7.897l-1.27 2.415h4.55l-5.139 9.865h7.901l1.27-2.413H28.868z m9.137-7.455h4.048v-2.412h-7.031V17.883h7.031v-2.41h-4.051v-2.539h4.051v-2.416h-4.051v-2.503z m5.513-2.412V17.883h5.024c1.251 0 1.988-0.164 2.595-0.57 0.793-0.536 1.251-1.549 1.251-2.688 0-0.901-0.276-1.62-0.827-2.137-0.387-0.369-0.719-0.533-1.474-0.7 0.663-0.183 0.938-0.347 1.288-0.716a2.902 2.902 0 0 0 0.83-2.137c0-1.177-0.517-2.23-1.362-2.744-0.663-0.421-1.564-0.588-3.128-0.588h-4.2z m2.979 2.23h0.7c1.4 0 1.97 0.421 1.97 1.415 0 1.013-0.57 1.437-1.932 1.437h-0.738v-2.852z m0 5.023h0.682c0.901 0 1.199 0.037 1.527 0.223 0.443 0.238 0.663 0.663 0.662 1.252 0 0.991-0.533 1.419-1.784 1.418h-1.084v-2.893z m10.032 0.279l2.688 4.748h3.572l-2.707-4.51c1.583-0.626 2.376-1.858 2.375-3.738 0-1.344-0.48-2.447-1.325-3.112-0.811-0.626-1.988-0.92-3.609-0.92h-3.976V17.883h2.982v-4.748z m0-1.676v-3.406h1.14c1.053 0 1.768 0.7 1.768 1.712 0 1.065-0.737 1.694-1.951 1.694h-0.957z m14.142 4.008h-3.98l-0.759 2.416h-3.143l4.051-12.277h3.791L74.666 17.88h-3.236l-0.756-2.416z m-0.756-2.416l-1.233-3.93-1.232 3.933h2.465z"/></svg>