<svg fill="#1682D4" role="img" viewBox="0 0 74 24" xmlns="http://www.w3.org/2000/svg"><title>Zenodo</title><path d="M73.095 9.446a6.842 6.842 0 0 0-1.425-2.097 6.561 6.561 0 0 0-4.651-1.913 6.439 6.439 0 0 0-3.684 1.113 6.857 6.857 0 0 0-1.51 1.386c-0.183 0.229-0.381 0.534-0.498 0.72a8.2 8.2 0 0 0-0.625 1.416c0.018-0.824 0.14-2.051 0.625-2.74V1.386a1.303 1.303 0 0 0-0.418-0.983 1.352 1.352 0 0 0-0.967-0.403 1.343 1.343 0 0 0-0.986 0.403 1.343 1.343 0 0 0-0.397 0.983v5.289a7.233 7.233 0 0 0-1.806-0.913 6.482 6.482 0 0 0-4.578 0.183 6.592 6.592 0 0 0-3.519 3.501l-0.073 0.183a6.842 6.842 0 0 0-1.495-2.28 6.57 6.57 0 0 0-4.651-1.913 6.439 6.439 0 0 0-2.573 0.509 6.805 6.805 0 0 0-2.097 1.404 6.427 6.427 0 0 0-1.422 2.097l-0.07 0.17-0.07-0.17a6.577 6.577 0 0 0-6.073-4.01c-0.919 0-1.776 0.171-2.57 0.509a6.805 6.805 0 0 0-2.093 1.404c-0.61 0.598-1.083 1.294-1.425 2.097l-0.061 0.161-0.068-0.161a6.845 6.845 0 0 0-1.425-2.097 6.555 6.555 0 0 0-4.648-1.913 6.439 6.439 0 0 0-2.569 0.509 6.802 6.802 0 0 0-1.959 1.276v-0.22a1.413 1.413 0 0 0-1.41-1.413H2.007a1.413 1.413 0 0 0 0 2.826h7.779L0.655 20.698a1.41 1.41 0 0 0-0.278 0.839v0.921c0 0.781 0.632 1.413 1.413 1.413h10.529a1.41 1.41 0 0 0 1.41-1.312 6.619 6.619 0 0 0 4.11 1.441c1.361 0 2.576-0.366 3.647-1.099 0.864-0.586 1.547-1.315 2.045-2.197v1.91c0 0.388 0.131 0.717 0.397 0.983a1.331 1.331 0 0 0 0.988 0.403c0.366 0 0.684-0.134 0.965-0.403a1.303 1.303 0 0 0 0.421-0.983V17.67h-0.006l0.006-0.009H22.841a1.343 1.343 0 0 0-1.275 0.876l-0.226 0.464a3.766 3.766 0 0 1-1.404 1.623 3.766 3.766 0 0 1-2.097 0.602c-0.513 0-1.007-0.095-1.48-0.29a3.586 3.586 0 0 1-1.221-0.824 4.218 4.218 0 0 1-0.823-1.221 3.555 3.555 0 0 1-0.306-1.456v-1.239h12.293v-4.196a3.775 3.775 0 0 1 1.114-2.68 3.784 3.784 0 0 1 2.716-1.113c0.51 0 1.004 0.098 1.477 0.289 0.473 0.198 0.882 0.47 1.221 0.825 0.342 0.351 0.61 0.76 0.821 1.22 0.204 0.461 0.311 0.949 0.311 1.459v10.611c0 0.391 0.131 0.72 0.397 0.986a1.337 1.337 0 0 0 0.988 0.403c0.366 0 0.684-0.134 0.965-0.403a1.315 1.315 0 0 0 0.418-0.986v-1.901a6.543 6.543 0 0 0 5.701 3.29c0.897 0 1.752-0.171 2.554-0.513 0.8-0.339 1.505-0.806 2.115-1.404a6.445 6.445 0 0 0 1.477-2.237l0.055 0.144c0.339 0.8 0.815 1.495 1.422 2.096 0.61 0.595 1.306 1.062 2.097 1.404 0.787 0.336 1.648 0.51 2.572 0.51a6.552 6.552 0 0 0 4.648-1.914c0.595-0.598 1.071-1.297 1.425-2.096l0.074-0.184 0.073 0.184c0.351 0.8 0.824 1.495 1.422 2.096a6.543 6.543 0 0 0 4.651 1.914c0.897 0 1.752-0.171 2.554-0.513a6.775 6.775 0 0 0 2.115-1.404 6.461 6.461 0 0 0 1.938-4.645v-5.438a6.348 6.348 0 0 0-0.528-2.554zM3.917 21.048l7.385-9.945c-0.037 0.293-0.061 0.592-0.061 0.897v5.432c0 0.903 0.177 1.752 0.531 2.558 0.165 0.375 0.36 0.729 0.58 1.058z m17.755-7.629H14.012v-1.419a3.79 3.79 0 0 1 2.335-3.5c0.464-0.195 0.961-0.293 1.495-0.293 0.513 0 1.007 0.098 1.477 0.289 0.476 0.198 0.885 0.47 1.221 0.824 0.342 0.351 0.61 0.76 0.824 1.221 0.208 0.461 0.305 0.949 0.305 1.459z m24.592 4.016a3.812 3.812 0 0 1-3.827 3.794c-0.513 0-1.004-0.098-1.48-0.293a3.564 3.564 0 0 1-1.221-0.824 4.199 4.199 0 0 1-0.821-1.221 3.537 3.537 0 0 1-0.305-1.456v-5.435a3.784 3.784 0 0 1 3.83-3.793c0.507 0 1.001 0.098 1.471 0.289 0.476 0.198 0.885 0.47 1.22 0.824 0.342 0.351 0.613 0.76 0.824 1.221 0.204 0.464 0.308 0.949 0.309 1.459z m12.292 0c0 0.51-0.101 0.995-0.305 1.459a4.211 4.211 0 0 1-0.824 1.221 3.54 3.54 0 0 1-1.221 0.824 3.845 3.845 0 0 1-1.477 0.286 3.76 3.76 0 0 1-2.716-1.11 3.79 3.79 0 0 1-1.117-2.68v-5.435c0-0.51 0.107-0.995 0.312-1.459a4.272 4.272 0 0 1 0.824-1.221 3.54 3.54 0 0 1 1.22-0.824 3.876 3.876 0 0 1 1.477-0.289 3.815 3.815 0 0 1 2.716 1.113 3.815 3.815 0 0 1 1.111 2.68z m12.293 0a3.735 3.735 0 0 1-1.111 2.68c-0.354 0.354-0.763 0.626-1.221 0.824a3.815 3.815 0 0 1-1.495 0.286 3.876 3.876 0 0 1-1.48-0.289 3.568 3.568 0 0 1-1.221-0.824 4.211 4.211 0 0 1-0.824-1.221 3.531 3.531 0 0 1-0.305-1.456v-5.435a3.784 3.784 0 0 1 3.83-3.793c0.51 0 1.001 0.098 1.474 0.289 0.476 0.198 0.885 0.47 1.221 0.825 0.342 0.351 0.613 0.76 0.824 1.22 0.204 0.464 0.305 0.949 0.305 1.459v5.432z"/></svg>