<svg fill="#000000" role="img" viewBox="0 0 146 24" xmlns="http://www.w3.org/2000/svg"><title>Zensar</title><path d="M78.627 22.758c1.696 0.509 6.118 1.242 10.068 1.242 6.342 0 9.934-2.805 9.934-7.772 0-4.137-2.811-6.118-8.553-7.814-4.422-1.29-6.3-1.932-6.3-3.956 0-2.302 2.023-3.404 4.507-3.356 3.398 0.048 6.433 2.574 8.093 6.852h0.781v-6.852a47.461 47.461 0 0 0-8.553-1.011c-6.482 0-10.165 2.847-10.164 7.451 0 3.725 2.484 5.93 7.953 7.493 5.428 1.563 7.13 2.205 7.13 4.507 0 2.066-2.205 3.453-4.967 3.452-4.367 0-7.723-3.271-9.196-7.777h-0.733v7.541z m-11.576-22.534c-2.423 0-5.131 1.254-7.59 3.944v-3.617H48.909v0.873c2.532 0 3.635 1.29 3.635 3.174v18.942H59.552v-18.016c1.472-1.533 2.998-2.078 3.998-2.077 1.938 0 3.416 1.242 3.417 3.774v16.319h7.063v-16.319c0-4.234-2.29-6.99-6.979-6.991z m-33.958 11.637v1.381c0 5.331 2.435 8.553 7.033 8.553 3.035 0 5.331-1.472 6.99-3.725l0.83 0.502c-2.023 3.544-5.658 5.428-10.165 5.428-8.644 0-12.781-4.87-12.781-12.279 0-7.263 5.058-11.721 12.139-11.721 7.13 0 10.946 4.228 10.946 10.48v1.381H33.093z m2.805-10.71a5.973 5.973 0 0 0-2.805 0.648v8.868h7.22v-4.646c0-3.077-1.472-4.87-4.415-4.87z m87.834 6.524v15.871H116.19v-2.623a10.419 10.419 0 0 1-7.354 3.077c-4.422 0-7.178-2.526-7.178-5.839s2.211-4.87 4.646-5.658l9.795-3.211v-3.453c0-2.992-1.514-4.689-4.276-4.688-0.909 0-1.642 0.109-2.344 0.303v6.542a9.068 9.068 0 0 1-3.126 0.509c-2.302 0-3.774-1.333-3.774-3.174 0-3.398 4.785-5.24 10.625-5.24 6.118 0 10.528 2.072 10.528 7.584z m-11.037 13.29a4.646 4.646 0 0 0 3.404-1.29v-9.147l-6.663 2.223v4.307c0 2.574 1.096 3.907 3.259 3.907zM22.607 1.157v-0.6H1.042v8.965h0.788c0.642-3.907 3.907-8.044 9.329-8.044v10.577L0.309 22.946v0.594h22.117V14.12h-0.782c-0.691 3.956-4.228 8.505-9.837 8.505v-10.57l10.8-10.904zM145.691 0.139v6.664h-3.998c-2.326 0-4.131 0.351-5.246 2.441v14.296h-7.009v-18.942c0-1.884-1.102-3.174-3.634-3.174v-0.873h10.552v6.942c2.241-5.028 4.816-7.354 8.274-7.354H145.691z"/></svg>