<svg fill="#00D287" role="img" viewBox="0 0 17 24" xmlns="http://www.w3.org/2000/svg"><title>Zilch</title><path d="M0.921 6.149c3.292-2.011 6.584-4.036 9.862-6.046a0.702 0.702 0 0 1 0.83 0.073c1.312 1.18 2.637 2.36 3.948 3.54a0.694 0.694 0 0 1 0.175 0.815 1737.248 1737.248 0 0 1-4.341 9.338 0.61 0.61 0 0 0 0.408 0.845c1.427 0.335 2.855 0.656 4.283 0.991a0.546 0.546 0 0 1 0.204 0.976c-3.234 2.375-6.483 4.749-9.717 7.124a0.986 0.986 0 0 1-1.136 0.029l-4.633-3.016a0.691 0.691 0 0 1-0.248-0.888c1.326-2.812 2.666-5.623 3.992-8.421a0.78 0.78 0 0 0-0.146-0.859 802.196 802.196 0 0 0-3.583-3.569c-0.277-0.262-0.219-0.729 0.102-0.932Z"/></svg>