<svg fill="#E42527" role="img" viewBox="0 0 57 24" xmlns="http://www.w3.org/2000/svg"><title>Zoho</title><path d="M20.647 0a3.055 3.055 0 0 0-2.833 1.799l-1.51 3.387-0.146-0.906A3.036 3.036 0 0 0 12.676 1.766l-9.842 1.595A3.036 3.036 0 0 0 0.32 6.844l1.594 9.829a3.041 3.041 0 0 0 2.987 2.557c0.174 0 0.336-0.024 0.508-0.04l9.83-1.595c1.025-0.165 1.844-0.825 2.257-1.7l6.898 3.074a3.067 3.067 0 0 0 2.323 0.061c0.755-0.282 1.352-0.858 1.684-1.595l0.658-1.479 0.09 0.649a3.05 3.05 0 0 0 3.421 2.594l8.729-1.178a3.034 3.034 0 0 0 2.423 1.209h9.961c1.677 0 3.034-1.364 3.036-3.036V6.227c0-1.674-1.364-3.036-3.036-3.035h-9.961c-0.186 0-0.365 0.019-0.541 0.051a3.078 3.078 0 0 0-0.647-0.677c-0.647-0.494-1.444-0.705-2.253-0.595l-9.87 1.343c-0.365 0.049-0.705 0.165-1.015 0.329L21.821 0.266a2.987 2.987 0 0 0-1.174-0.266z m-0.058 1.658c0.181 0 0.374 0.031 0.564 0.123l6.987 3.113c-0.301 0.56-0.423 1.195-0.334 1.839l0.839 6.105h0.005l-1.752 3.932a1.387 1.387 0 0 1-1.827 0.696l-7.307-3.257-0.009-0.097-0.964-5.94L19.331 2.477a1.385 1.385 0 0 1 1.26-0.819z m-7.429 1.724c0.294 0 0.576 0.092 0.807 0.263 0.306 0.212 0.494 0.534 0.557 0.899l0.55 3.4-1.317 2.961a2.987 2.987 0 0 0-0.061 2.321c0.282 0.757 0.856 1.352 1.595 1.686l0.693 0.308a1.376 1.376 0 0 1-1.006 0.738l-9.842 1.595a1.387 1.387 0 0 1-1.585-1.141l-1.594-9.829a1.383 1.383 0 0 1 1.14-1.585l9.842-1.595c0.071-0.009 0.151-0.024 0.221-0.023z m27.526 0.212a1.387 1.387 0 0 1 0.976 0.406 3.027 3.027 0 0 0-0.979 2.227v9.964c0 0.078 0.007 0.153 0.012 0.228l-8.348 1.134a1.378 1.378 0 0 1-1.552-1.181l-0.449-3.299 2.114-4.743a3.034 3.034 0 0 0-0.783-3.528l8.828-1.199c0.061-0.009 0.12-0.009 0.181-0.009z m3.057 1.251h9.94c0.767 0 1.383 0.626 1.383 1.382v9.964a1.385 1.385 0 0 1-1.383 1.383h-9.964a1.326 1.326 0 0 1-0.282-0.031c1.105-0.578 1.783-1.799 1.609-3.099z m-14.082 0.726l0.598 0.266c0.696 0.313 1.011 1.129 0.696 1.827l-1.016 2.281-0.487-3.445a1.364 1.364 0 0 1 0.212-0.929z m12.675 1.266l1.066 7.819a1.371 1.371 0 0 1-1.066 1.528zM15.559 10.931l0.399 2.474a1.383 1.383 0 0 1-0.689-1.825z m9.371 10.215a1.383 1.383 0 0 0-1.439 1.418c0 0.842 0.574 1.434 1.413 1.435a1.369 1.369 0 0 0 1.427-1.43c0-0.823-0.569-1.423-1.401-1.423z m13.04 0a1.383 1.383 0 0 0-1.44 1.418c0 0.842 0.576 1.434 1.416 1.435a1.369 1.369 0 0 0 1.425-1.43c0-0.823-0.564-1.423-1.401-1.423z m-20.076 0.042a0.111 0.111 0 0 0-0.113 0.111v0.2c0 0.061 0.049 0.111 0.113 0.11h1.223l-1.465 2.117a0.122 0.122 0 0 0-0.022 0.063v0.064c0 0.061 0.049 0.111 0.113 0.11h1.917a0.111 0.111 0 0 0 0.11-0.11v-0.2a0.111 0.111 0 0 0-0.11-0.111h-1.294l1.426-2.116a0.118 0.118 0 0 0 0.018-0.061v-0.066a0.111 0.111 0 0 0-0.11-0.111z m12.47 0a0.111 0.111 0 0 0-0.11 0.111v2.554c0 0.061 0.047 0.111 0.11 0.11h0.318a0.111 0.111 0 0 0 0.11-0.11v-1.068h1.282v1.068c0 0.061 0.047 0.111 0.111 0.11h0.315a0.111 0.111 0 0 0 0.11-0.11v-2.554a0.111 0.111 0 0 0-0.11-0.111h-0.315a0.111 0.111 0 0 0-0.111 0.111v1.065h-1.282v-1.065a0.111 0.111 0 0 0-0.11-0.111z m-5.465 0.386c0.588 0 0.875 0.456 0.875 1 0 0.515-0.256 0.999-0.842 1.001-0.569 0-0.882-0.463-0.882-0.985 0-0.553 0.254-1.016 0.847-1.016z m13.04 0c0.588 0 0.875 0.456 0.875 1 0 0.515-0.254 0.999-0.842 1.001-0.569 0-0.88-0.463-0.88-0.985 0-0.553 0.254-1.016 0.847-1.016z"/></svg>