<svg fill="#F47920" role="img" viewBox="0 0 28 24" xmlns="http://www.w3.org/2000/svg"><title>Zoiper</title><path d="M4.204 13.225c-0.979-0.979-0.979-3.323-0.085-4.217s3.705-3.663 5.75-5.707c2.045-2.044 3.834-2.342 4.387-2.342H18.429c0.252 0 0.628 0.037 1.049 0.1l-1.234 2.461c-0.992-0.071-1.909-0.048-2.583-0.048-2.768 0-2.982 0.639-3.45 1.107-0.469 0.469-5.749 5.494-6.133 5.878-1.193 1.193 0.638 1.746 2.641 1.746 0.894 0 1.022 0.937 0.809 1.789-0.116 0.463-0.418 1.624-0.673 2.872h-2.429c0.095-0.481 0.187-0.876 0.248-1.084 0.214-0.723 0.256-1.363-0.17-1.363s-1.32-0.213-2.3-1.192z m20.492-11.266c-0.223-0.223-2.481-1.533-3.149-1.84-0.183-0.084-0.34-0.119-0.474-0.119-0.355 0-0.551 0.246-0.667 0.476l-3.541 7.057c-1.776 0.508-3.078 2.143-3.078 4.083 0 1.63 0.919 3.046 2.267 3.759-0.52 0.617-1.288 1.25-1.467 1.459-0.256 0.298-0.894 0.597-2.003 0.597H5.331c-0.034-1.341-1.13-2.418-2.48-2.417-1.37 0-2.481 1.111-2.48 2.48 0 1.371 1.111 2.482 2.48 2.482 1.043 0 1.935-0.643 2.302-1.556h7.995c1.107 0 1.746-0.298 2.002-0.596 0.242-0.283 1.551-1.332 1.883-2.079 0.321 0.078 0.657 0.121 1.003 0.12 2.346 0 4.248-1.902 4.248-4.249a4.235 4.235 0 0 0-0.604-2.183 7957.752 7957.752 0 0 1 3.127-6.303c0.307-0.613 0.112-0.947-0.111-1.171z m0.326 2.015c-0.27 0.544-0.684 1.377-1.128 2.273 0.792 1.143 1.308 2.739 1.308 5.019 0 5.792-3.067 6.431-3.706 6.431h-2.428c-0.511 0-0.894 0.085-1.831 1.022-0.937 0.937-2.257 2.086-2.641 2.47-0.383 0.383-0.937 0.639-1.917 0.639h-3.023c-0.426 0-1.193-0.214-1.193-2.002 0-0.251 0.024-0.539 0.056-0.838H6.117c-0.066 0.728-0.085 1.451 0.004 2.03 0.256 1.661 1.619 2.982 2.768 2.982h4.515c2.087 0 5.92-3.875 5.92-3.875s1.258 0.077 2.002 0.057C23.64 20.119 27.629 18.208 27.629 11.82c0-3.764-1.13-6.221-2.607-7.846z"/></svg>