<svg fill="#E23744" role="img" viewBox="0 0 113 24" xmlns="http://www.w3.org/2000/svg"><title>Zomato</title><path d="M92.335 0l-5.92 2.226-0.786 3.341-2.098 0.099-0.542 4.602h1.92l-0.993 7.106c-0.616 4.419 0.169 6.499 4.071 6.499 2.296 0 4.282-0.824 5.341-1.398l0.683-4.235c-0.786 0.391-2.052 0.894-2.909 0.894-1.162 0-1.299-0.612-1.058-2.296l0.889-6.57h3.967c0.141-0.969 0.616-4.127 0.753-4.706h-4.071z m-17.783 4.715c-0.541 0.009-1.111 0.047-1.699 0.123a16.904 16.904 0 0 0-6.339 2.033l1.224 3.713c1.266-0.706 2.894-1.318 4.602-1.535 2.532-0.311 3.562 0.471 3.718 1.765 0.066 0.513 0.019 0.936-0.024 1.36l-0.066 0.264a16.282 16.282 0 0 0-5.162-0.17c-2.438 0.296-4.438 1.285-5.666 2.824a6.231 6.231 0 0 0-1.059 4.866c0.598 2.744 2.602 3.953 5.643 3.576 2.118-0.259 3.821-1.271 5.063-2.965a12.541 12.541 0 0 1-0.141 1.431 8.188 8.188 0 0 1-0.339 1.365l5.854 0.004a17.209 17.209 0 0 1-0.005-1.717c0.169-2.16 0.555-5.379 1.163-9.652a11.28 11.28 0 0 0-0.01-2.776c-0.376-3.031-2.955-4.56-6.757-4.509z m30.757 0.297c-5.619 0-9.915 5.021-9.915 11.021 0 4.513 2.598 7.967 7.661 7.967 5.647 0 9.915-5.021 9.916-11.059 0-4.471-2.532-7.929-7.662-7.929z m-55.421 0.193c-2.532 0-5.271 2.188-7.153 5.816 0.48-2.372 0.376-5.064 0.24-5.637a42.184 42.184 0 0 1-6.056 0.574 32.471 32.471 0 0 1-0.344 5.849l-0.786 5.388c-0.311 2.118-0.649 4.56-0.993 6.104h6.368c0.033-0.936 0.273-2.405 0.442-3.699l0.546-3.699c0.447-2.405 2.362-5.242 3.835-5.242 0.856 0 0.824 0.828 0.584 2.372l-0.617 4.164c-0.311 2.118-0.649 4.56-0.993 6.104h6.433c0.038-0.936 0.24-2.409 0.414-3.699l0.546-3.699c0.442-2.409 2.362-5.242 3.831-5.242 0.856 0 0.824 0.791 0.687 1.863l-1.539 10.777H61.206l2.061-12.278c0.447-3.054 0.207-5.816-3.181-5.816-2.461 0-5.129 2.085-7.012 5.562 0.409-2.871 0.169-5.562-3.186-5.562z m-22.964 0.037c-5.539 0-9.788 4.955-9.789 10.88 0 4.452 2.569 7.859 7.567 7.859 5.576 0 9.788-4.951 9.789-10.913 0-4.414-2.499-7.826-7.563-7.826z m-24.123 0.429c-0.235 1.835-0.48 3.661-0.823 5.317 1.544-0.038 2.913-0.075 6.64-0.075l-8.518 9.223-0.071 3.309c2.089-0.141 4.692-0.184 7.671-0.184 2.664 0 5.336 0.038 7.045 0.184 0.306-2.155 0.612-3.591 0.988-5.351-1.294 0.071-3.553 0.108-7.115 0.108l8.517-9.266 0.109-3.265c-2.056 0.108-3.906 0.141-7.153 0.141-3.525 0-4.588-0.033-7.29-0.141z m23.473 4.362c1.2 0 1.92 1.073 1.92 3.299 0 3.233-1.299 5.887-2.946 5.887-1.228 0-1.948-1.111-1.948-3.304 0-3.266 1.332-5.882 2.974-5.882z m78.254 0c1.195 0 1.915 1.073 1.916 3.299 0 3.233-1.299 5.887-2.942 5.887-1.233 0-1.953-1.111-1.953-3.304 0-3.266 1.336-5.882 2.979-5.882zM73.018 15.012c0.969-0.014 1.896 0.113 2.588 0.273l-0.061 0.555c-0.353 2.071-1.835 4.146-3.991 4.414-1.459 0.174-2.72-0.696-2.861-1.835a2.532 2.532 0 0 1 0.536-1.93c0.551-0.748 1.581-1.261 2.819-1.411 0.325-0.042 0.649-0.061 0.97-0.066Z"/></svg>