<svg fill="#F15A24" role="img" viewBox="0 0 26 24" xmlns="http://www.w3.org/2000/svg"><title>Zsh</title><path d="M4.08 0.004A3.851 3.851 0 0 0 0.239 3.845v16.301a3.857 3.857 0 0 0 3.845 3.841h8.765a0.563 0.563 0 0 0 0.242-0.044 0.646 0.646 0 0 0-0.246-1.244H4.08a2.545 2.545 0 0 1-2.545-2.552V5.741h22.934v13.653a0.143 0.143 0 0 1-0.127 0.079h-0.79a0.168 0.168 0 0 1-0.096-0.046 0.143 0.143 0 0 1-0.043-0.101v-2.371c-0.004-0.001-0.004-0.003-0.004-0.007v-0.007a0.64 0.64 0 1 0-1.278 0v6.415l0.004 0.001v0.002a0.638 0.638 0 0 0 1.278 0v0.002V20.825a0.123 0.123 0 0 1 0.039-0.101 0.143 0.143 0 0 1 0.1-0.043h0.791a0.128 0.128 0 0 1 0.105 0.038c0.011 0.011 0.019 0.023 0.026 0.037v2.589a0.045 0.045 0 0 0 0.002 0.024 0.638 0.638 0 0 0 0.149 0.404 0.639 0.639 0 0 0 0.489 0.227h0.01a0.63 0.63 0 0 0 0.582-0.391l0.004-0.012a0.473 0.473 0 0 0 0.025-0.079 0.647 0.647 0 0 0 0.026-0.172V3.84A3.844 3.844 0 0 0 21.924 0H4.084Zm0 1.292h17.84a2.534 2.534 0 0 1 2.554 2.545V4.451H1.531v-0.607a2.54 2.54 0 0 1 2.549-2.548ZM7.002 6.982a0.227 0.227 0 0 0-0.154 0.08l-4.216 5.02a0.227 0.227 0 1 0 0.348 0.292l4.216-5.019a0.227 0.227 0 0 0-0.194-0.372Zm-3.126 0.127c-0.672 0-1.224 0.553-1.224 1.224 0 0.672 0.553 1.225 1.224 1.225 0.672 0 1.225-0.553 1.225-1.225 0-0.672-0.553-1.224-1.225-1.224Zm0 0.71a0.51 0.51 0 0 1 0.515 0.514 0.51 0.51 0 0 1-0.515 0.516 0.51 0.51 0 0 1-0.515-0.516 0.51 0.51 0 0 1 0.515-0.514Zm2.063 2.062c-0.672 0-1.225 0.553-1.225 1.225 0 0.672 0.553 1.223 1.225 1.223 0.672 0 1.224-0.551 1.224-1.223 0-0.673-0.553-1.225-1.224-1.225Zm0 0.709a0.51 0.51 0 0 1 0.515 0.516 0.51 0.51 0 0 1-0.515 0.514 0.51 0.51 0 0 1-0.516-0.514 0.51 0.51 0 0 1 0.516-0.516Zm2.826 1.287a0.228 0.228 0 0 0-0.086 0.436c0.028 0.011 0.056 0.017 0.086 0.017h3.011a0.348 0.348 0 0 0 0.091-0.022 0.229 0.229 0 0 0 0.14-0.21 0.227 0.227 0 0 0-0.227-0.227h-3.009Zm6.136 4.423a0.649 0.649 0 0 0-0.648 0.648v-0.004 0.004a0.649 0.649 0 0 0 0.648 0.649l0.03-0.002h1.194a0.055 0.055 0 0 1 0.043 0.005 0.082 0.082 0 0 1 0.043 0.062 0.081 0.081 0 0 1-0.007 0.039l-1.896 4.736a0.713 0.713 0 0 0-0.051 0.265v0.584a0.691 0.691 0 0 0 0.204 0.504 0.713 0.713 0 0 0 0.504 0.209h2.223a0.764 0.764 0 0 0 0.258-0.054 0.663 0.663 0 0 0 0.411-0.615v0.004-0.004a0.666 0.666 0 0 0-0.665-0.666l-0.015 0.001h-1.495a0.053 0.053 0 0 1-0.04-0.005 0.079 0.079 0 0 1-0.041-0.06 0.077 0.077 0 0 1 0.006-0.036l2.186-5.452a0.59 0.59 0 0 0-0.549-0.81h-2.304a0.074 0.074 0 0 0-0.035-0.007Zm5.227 0.031c-0.304 0-0.652 0.029-0.861 0.088a1.006 1.006 0 0 0-0.496 0.284 1.248 1.248 0 0 0-0.262 0.558c-0.053 0.229-0.081 0.519-0.081 0.872 0 0.338 0.003 0.613 0.01 0.821 0.009 0.17 0.028 0.34 0.06 0.509a0.989 0.989 0 0 0 0.132 0.313c0.058 0.083 0.127 0.16 0.202 0.225 0.106 0.093 0.221 0.175 0.345 0.245 0.135 0.079 0.273 0.153 0.414 0.225 0.141 0.071 0.276 0.147 0.404 0.225 0.121 0.068 0.234 0.151 0.335 0.244 0.039 0.044 0.077 0.089 0.111 0.139a0.313 0.313 0 0 1 0.056 0.096 0.692 0.692 0 0 1 0.045 0.256c0.007 0.078 0.011 0.186 0.011 0.322a4.009 4.009 0 0 1-0.031 0.558 0.792 0.792 0 0 1-0.081 0.303 0.278 0.278 0 0 1-0.162 0.128 2.471 2.471 0 0 1-0.402 0.03 0.883 0.883 0 0 1-0.242-0.03 0.335 0.335 0 0 1-0.152-0.137 1.14 1.14 0 0 1-0.081-0.294 4.742 4.742 0 0 1-0.021-0.489c0-0.017 0-0.036-0.002-0.053h-0.005a0.574 0.574 0 0 0-0.187-0.331 0.55 0.55 0 0 0-0.901 0.335h-0.003c0.002 0.015 0.002 0.035 0.002 0.055v0.025l0.004 0.302c0 0.385 0.028 0.698 0.08 0.939 0.061 0.235 0.155 0.421 0.284 0.558a0.974 0.974 0 0 0 0.486 0.264c0.234 0.057 0.476 0.083 0.718 0.079 0.324 0 0.742-0.029 0.958-0.089a0.954 0.954 0 0 0 0.517-0.332c0.135-0.163 0.229-0.388 0.283-0.676 0.061-0.294 0.091-0.668 0.091-1.125 0-0.333-0.011-0.601-0.03-0.803a1.755 1.755 0 0 0-0.091-0.5 0.811 0.811 0 0 0-0.192-0.312 1.595 1.595 0 0 0-0.294-0.234 2.906 2.906 0 0 0-0.304-0.167 4.66 4.66 0 0 0-0.364-0.186 8.795 8.795 0 0 1-0.364-0.196 3.068 3.068 0 0 1-0.294-0.205 0.998 0.998 0 0 1-0.121-0.117 0.423 0.423 0 0 1-0.061-0.148 1.544 1.544 0 0 1-0.031-0.224v-0.368a2.754 2.754 0 0 1 0.016-0.421 0.673 0.673 0 0 1 0.072-0.245 0.245 0.245 0 0 1 0.152-0.107c0.061-0.02 0.23-0.03 0.324-0.03 0.216 0 0.351 0.062 0.404 0.186 0.043 0.079 0.067 0.165 0.07 0.255 0.003 0.07 0.004 0.163 0.005 0.261h0.003c0.004-0.003 0.004-0.002 0.004 0a0.544 0.544 0 0 0 0.549 0.544 0.549 0.549 0 0 0 0.547-0.544v-0.005c-0.004-0.105-0.004-0.202-0.004-0.257a3.386 3.386 0 0 0-0.071-0.754 0.953 0.953 0 0 0-0.242-0.499 0.924 0.924 0 0 0-0.486-0.274 2.864 2.864 0 0 0-0.78-0.087Z"/></svg>