<svg fill="#6492FE" role="img" viewBox="0 0 22 24" xmlns="http://www.w3.org/2000/svg"><title>Zulip</title><path d="M21.767 3.589c0 1.209-0.543 2.283-1.37 2.934l-8.034 7.174c-0.149 0.128-0.343-0.078-0.235-0.25l2.946-5.9c0.083-0.165-0.024-0.368-0.194-0.368H3.452c-1.77 0-3.219-1.615-3.219-3.59C0.233 1.616 1.682 0 3.452 0h15.096c1.77-0.001 3.219 1.614 3.219 3.589zM3.452 24h15.096c1.77 0 3.219-1.616 3.219-3.59 0-1.974-1.449-3.59-3.219-3.59H7.12c-0.17 0-0.277-0.202-0.194-0.367l2.946-5.9c0.108-0.172-0.086-0.378-0.235-0.25l-8.033 7.173c-0.828 0.65-1.37 1.725-1.37 2.934 0 1.974 1.448 3.59 3.218 3.59z"/></svg>