<svg fill="#B02CCE" role="img" viewBox="0 0 56 24" xmlns="http://www.w3.org/2000/svg"><title>Zyte</title><path d="M32.944 0v3.971h-2.818V7.183h2.818v6.023c0 3.761 2.184 5.759 5.454 5.76 0.547 0 1.301-0.058 1.817-0.176v-3.122c-0.338 0.09-0.723 0.116-1.088 0.116-1.64 0-2.79-0.76-2.79-2.635V7.183h3.878V3.971h-3.869V0ZM48.547 3.663c-4.275 0-7.64 3.337-7.639 7.642 0 4.421 3.367 7.781 7.697 7.781 3.64 0 6.456-2.061 7.003-5.182h-3.397c-0.306 1.281-1.728 2.126-3.546 2.125-2.394 0-3.909-1.364-4.332-3.545h11.365c0.06-0.278 0.09-1.03 0.09-1.429 0-4.33-3.24-7.392-7.241-7.392ZM0.212 3.971v3.24h9.096L0.212 15.548v3.242h13.243v-3.242h-9.124l9.124-8.337V3.971Zm13.979 0l5.882 14.031-2.665 5.998h3.636l8.362-20.029h-3.636l-3.971 10.092-3.977-10.092Zm34.176 2.756c2.026 0 3.45 1.183 3.758 2.881h-7.697c0.486-1.82 1.941-2.881 3.936-2.881z"/></svg>